<svg xmlns="http://www.w3.org/2000/svg" width="176pt" height="55.453" viewBox="0 0 176 41.59"><defs><clipPath id="a"><path d="M0 0h43v41.59H0Zm0 0"/></clipPath></defs><g clip-path="url(#a)"><path d="M25.555 28.285c1.863-2.48 3.71-4.91 4.082-5.383l.687-.882 5.192.105 5.191.125-.105-2.164c-.125-2.871-.704-5.106-1.973-7.621-3.133-6.23-9.152-10.121-16.191-10.418-2.325-.11-4.786.121-5.965.527l-.633.211 2.074 3.203c1.129 1.778 3.027 4.715 4.207 6.547l2.164 3.344-5.207 7.883c-2.871 4.332-5.351 8.097-5.547 8.363-.176.262-.332.527-.332.578 0 .055 2.004.09 4.469.09h4.488Zm-15.367.969 2.519-4.594-1.34-2.586c-.738-1.41-1.898-3.68-2.586-5.035l-1.25-2.46 2.535-4.49c3.625-6.425 3.676-6.51 3.555-6.51-.055 0-.703.316-1.445.702C7.266 6.851 3.73 11.566 2.53 17.2c-.402 1.918-.367 5.649.106 7.602.758 3.258 1.972 5.703 3.996 8.133.441.492.844.914.898.914.07 0 1.266-2.075 2.657-4.594m14.945 10.05c4.097-.827 7.09-2.429 10.031-5.331 1.969-1.938 3.926-5.086 4.61-7.446.21-.773.882-3.996.828-4.066-.141-.121-3.52 1.48-4.524 2.148-1.758 1.16-2.781 2.25-5.879 6.266l-2.781 3.59-9.61.09-9.624.086 1.406 1.054c2.5 1.883 5.387 3.153 8.324 3.68 2.059.371 5.211.352 7.219-.07m-8.328 1.848C8.445 39.395 1.813 32.773.28 24.695c-.37-1.898-.37-6.054-.02-7.777.844-4.031 2.606-7.36 5.493-10.367C9.89 2.258 15.168.02 21.207.004c4.98-.02 9.168 1.32 13.008 4.152 5.156 3.836 8.183 9.434 8.5 15.7.297 5.792-1.813 11.14-6.09 15.417-3.238 3.239-7.129 5.282-11.531 6.055-2.375.406-5.91.336-8.29-.176" style="stroke:none;fill-rule:nonzero;fill:#409ad2;fill-opacity:1"/></g><path d="M128.707 33.004 127.441 32l-.015-10.684V10.633l1.582-1.074 1.566-1.055h16.492l1 1.125 1.004 1.144v5.829h-5.98v-4.579h-9.508v17.864l4.754.02h4.754v-4.86h5.98v6.832l-1.215 1.074-1.21 1.07-8.329-.015h-8.34zM169.84 20.79v-9.118h-9.238l.035 9.101c.035 5.016.05 9.114.05 9.114h9.152999999999999Zm-14.75 11.792-1.266-1.426V10.16l1.196-1.18 1.199-1.18 8.87.016h8.888l1.003 1.27 1.02 1.266v21.296l-1.305 1.196-1.316 1.18h-17.004zM87.734 23.691c-.21-.753-.773-2.832-1.25-4.628l-.843-3.239-.301.953c-.297.914-2.496 7.375-2.727 7.989-.086.246.176.28 2.711.28h2.817Zm-14.168 9.98c0-.085.95-3.077 2.13-6.632 1.163-3.574 2.835-8.66 3.714-11.32.863-2.656 1.813-5.508 2.078-6.336l.492-1.496 3.59-.051 3.59-.035.547 1.707c.316.949 1.09 3.344 1.723 5.332.652 1.988 1.355 4.207 1.586 4.93.226.718.933 2.937 1.582 4.925 1.601 4.965 2.906 9.012 2.906 9.082 0 .035-1.496.07-3.344.07h-3.328l-.191-.738c-.11-.422-.336-1.265-.512-1.902-.176-.633-.387-1.355-.442-1.637l-.105-.472-3.992.035-3.996.05-.457 1.848c-.266 1.024-.532 2.063-.582 2.344l-.125.473H77c-2.113 0-3.434-.07-3.434-.176M57.816 27.918C55 19.242 51.356 8.082 51.266 7.871c-.051-.16.918-.21 3.539-.23 3.328-.036 3.61-.016 3.695.28.055.177.527 1.833 1.074 3.665 2.465 8.375 3.469 11.809 3.504 11.95.016.085.649-1.727 1.406-4.048.758-2.308 1.938-5.933 2.621-8.027l1.25-3.836h3.665c2.003 0 3.66.05 3.66.105 0 .07-.563 1.637-1.25 3.485s-1.516 4.082-1.832 4.945c-.703 1.918-5.809 15.719-6.196 16.774l-.28.738h-6.423zM102.219 31.387l-1.547-1.922v-4.418h6.863V29.8h7.918v-2.059l-.016-2.078-7.285-4.453-7.304-4.469V10.88l1.53-1.547 1.513-1.531h16.05l1.551 1.547 1.547 1.566-.031 2.711c-.02 1.496-.07 2.8-.11 2.922-.07.16-.93.21-3.253.21-1.727 0-3.274-.05-3.415-.105-.195-.07-.246-.562-.246-2.445v-2.36h-7.746v4.508l.668.368c.356.21 3.559 2.148 7.114 4.312l6.457 3.926.02 3.027v3.008l-1.267 1.164-1.27 1.16-8.112-.015h-8.098z" style="stroke:none;fill-rule:nonzero;fill:#409ad2;fill-opacity:1"/></svg>