<?xml version="1.0" encoding="UTF-8"?>
<svg xmlns="http://www.w3.org/2000/svg" xmlns:xlink="http://www.w3.org/1999/xlink" width="176pt" height="41.59pt" viewBox="0 0 176 41.59" version="1.1">
<defs>
<clipPath id="clip1">
  <path d="M 0 0 L 43 0 L 43 41.589844 L 0 41.589844 Z M 0 0 "/>
</clipPath>
</defs>
<g id="surface1">
<g clip-path="url(#clip1)" clip-rule="nonzero">
<path style=" stroke:none;fill-rule:nonzero;fill:rgb(25.106812%,60.348511%,82.406616%);fill-opacity:1;" d="M 25.554688 28.285156 C 27.417969 25.804688 29.265625 23.375 29.636719 22.902344 L 30.324219 22.019531 L 35.515625 22.125 L 40.707031 22.25 L 40.601562 20.085938 C 40.476562 17.214844 39.898438 14.980469 38.628906 12.464844 C 35.496094 6.234375 29.476562 2.34375 22.4375 2.046875 C 20.113281 1.9375 17.652344 2.167969 16.472656 2.574219 L 15.839844 2.785156 L 17.914062 5.988281 C 19.042969 7.765625 20.941406 10.703125 22.121094 12.535156 L 24.285156 15.878906 L 19.078125 23.761719 C 16.207031 28.09375 13.726562 31.859375 13.53125 32.125 C 13.355469 32.386719 13.199219 32.652344 13.199219 32.703125 C 13.199219 32.757812 15.203125 32.792969 17.667969 32.792969 L 22.15625 32.792969 Z M 10.1875 29.253906 L 12.707031 24.660156 L 11.367188 22.074219 C 10.628906 20.664062 9.46875 18.394531 8.78125 17.039062 L 7.53125 14.578125 L 10.066406 10.089844 C 13.691406 3.664062 13.742188 3.578125 13.621094 3.578125 C 13.566406 3.578125 12.917969 3.894531 12.175781 4.28125 C 7.265625 6.851562 3.730469 11.566406 2.53125 17.199219 C 2.128906 19.117188 2.164062 22.847656 2.636719 24.800781 C 3.394531 28.058594 4.609375 30.503906 6.632812 32.933594 C 7.074219 33.425781 7.476562 33.847656 7.53125 33.847656 C 7.601562 33.847656 8.796875 31.773438 10.1875 29.253906 Z M 25.132812 39.304688 C 29.230469 38.476562 32.222656 36.875 35.164062 33.972656 C 37.132812 32.035156 39.089844 28.886719 39.773438 26.527344 C 39.984375 25.753906 40.65625 22.53125 40.601562 22.460938 C 40.460938 22.339844 37.082031 23.941406 36.078125 24.609375 C 34.320312 25.769531 33.296875 26.859375 30.199219 30.875 L 27.417969 34.464844 L 17.808594 34.554688 L 8.183594 34.640625 L 9.589844 35.695312 C 12.089844 37.578125 14.976562 38.847656 17.914062 39.375 C 19.972656 39.746094 23.125 39.726562 25.132812 39.304688 Z M 16.804688 41.152344 C 8.445312 39.394531 1.8125 32.773438 0.28125 24.695312 C -0.0898438 22.796875 -0.0898438 18.640625 0.261719 16.917969 C 1.105469 12.886719 2.867188 9.558594 5.753906 6.550781 C 9.890625 2.257812 15.167969 0.0195312 21.207031 0.00390625 C 26.1875 -0.015625 30.375 1.324219 34.214844 4.15625 C 39.371094 7.992188 42.398438 13.589844 42.714844 19.855469 C 43.011719 25.648438 40.902344 30.996094 36.625 35.273438 C 33.386719 38.511719 29.496094 40.554688 25.09375 41.328125 C 22.71875 41.734375 19.183594 41.664062 16.804688 41.152344 "/>
</g>
<path style=" stroke:none;fill-rule:nonzero;fill:rgb(25.106812%,60.348511%,82.406616%);fill-opacity:1;" d="M 128.707031 33.003906 L 127.441406 32 L 127.425781 21.316406 L 127.425781 10.632812 L 129.007812 9.558594 L 130.574219 8.503906 L 147.066406 8.503906 L 148.066406 9.628906 L 149.070312 10.773438 L 149.070312 16.601562 L 143.089844 16.601562 L 143.089844 12.023438 L 133.582031 12.023438 L 133.582031 29.886719 L 138.335938 29.90625 L 143.089844 29.90625 L 143.089844 25.046875 L 149.070312 25.046875 L 149.070312 31.878906 L 147.855469 32.953125 L 146.644531 34.023438 L 138.316406 34.007812 L 129.976562 34.007812 L 128.707031 33.003906 "/>
<path style=" stroke:none;fill-rule:nonzero;fill:rgb(25.106812%,60.348511%,82.406616%);fill-opacity:1;" d="M 169.839844 20.789062 L 169.839844 11.671875 L 160.601562 11.671875 L 160.636719 20.773438 C 160.671875 25.789062 160.6875 29.886719 160.6875 29.886719 C 160.6875 29.886719 162.746094 29.886719 165.265625 29.886719 L 169.839844 29.886719 Z M 155.089844 32.582031 L 153.824219 31.15625 L 153.824219 10.160156 L 155.019531 8.980469 L 156.21875 7.800781 L 165.089844 7.816406 L 173.976562 7.816406 L 174.980469 9.085938 L 176 10.351562 L 176 31.648438 L 174.695312 32.84375 L 173.378906 34.023438 L 156.375 34.023438 L 155.089844 32.582031 "/>
<path style=" stroke:none;fill-rule:nonzero;fill:rgb(25.106812%,60.348511%,82.406616%);fill-opacity:1;" d="M 87.734375 23.691406 C 87.523438 22.9375 86.960938 20.859375 86.484375 19.0625 L 85.640625 15.824219 L 85.339844 16.777344 C 85.042969 17.691406 82.84375 24.152344 82.613281 24.765625 C 82.527344 25.011719 82.789062 25.046875 85.324219 25.046875 L 88.140625 25.046875 Z M 73.566406 33.671875 C 73.566406 33.585938 74.515625 30.59375 75.695312 27.039062 C 76.859375 23.464844 78.53125 18.378906 79.410156 15.71875 C 80.273438 13.0625 81.222656 10.210938 81.488281 9.382812 L 81.980469 7.886719 L 85.570312 7.835938 L 89.160156 7.800781 L 89.707031 9.507812 C 90.023438 10.457031 90.796875 12.851562 91.429688 14.839844 C 92.082031 16.828125 92.785156 19.046875 93.015625 19.769531 C 93.242188 20.488281 93.949219 22.707031 94.597656 24.695312 C 96.199219 29.660156 97.503906 33.707031 97.503906 33.777344 C 97.503906 33.8125 96.007812 33.847656 94.160156 33.847656 L 90.832031 33.847656 L 90.640625 33.109375 C 90.53125 32.6875 90.304688 31.84375 90.128906 31.207031 C 89.953125 30.574219 89.742188 29.851562 89.6875 29.570312 L 89.582031 29.097656 L 85.589844 29.132812 L 81.59375 29.183594 L 81.136719 31.03125 C 80.871094 32.054688 80.605469 33.09375 80.554688 33.375 L 80.429688 33.847656 L 77 33.847656 C 74.886719 33.847656 73.566406 33.777344 73.566406 33.671875 "/>
<path style=" stroke:none;fill-rule:nonzero;fill:rgb(25.106812%,60.348511%,82.406616%);fill-opacity:1;" d="M 57.816406 27.917969 C 55 19.242188 51.355469 8.082031 51.265625 7.871094 C 51.214844 7.710938 52.183594 7.660156 54.804688 7.640625 C 58.132812 7.605469 58.414062 7.625 58.5 7.921875 C 58.554688 8.097656 59.027344 9.753906 59.574219 11.585938 C 62.039062 19.960938 63.042969 23.394531 63.078125 23.535156 C 63.09375 23.621094 63.726562 21.808594 64.484375 19.488281 C 65.242188 17.179688 66.421875 13.554688 67.105469 11.460938 L 68.355469 7.625 L 72.019531 7.625 C 74.023438 7.625 75.679688 7.675781 75.679688 7.730469 C 75.679688 7.800781 75.117188 9.367188 74.429688 11.214844 C 73.742188 13.0625 72.914062 15.296875 72.597656 16.160156 C 71.894531 18.078125 66.789062 31.878906 66.402344 32.933594 L 66.121094 33.671875 L 59.699219 33.671875 L 57.816406 27.917969 "/>
<path style=" stroke:none;fill-rule:nonzero;fill:rgb(25.106812%,60.348511%,82.406616%);fill-opacity:1;" d="M 102.21875 31.386719 L 100.671875 29.464844 L 100.671875 25.046875 L 107.535156 25.046875 L 107.535156 29.800781 L 115.453125 29.800781 L 115.453125 27.742188 L 115.4375 25.664062 L 108.152344 21.210938 L 100.847656 16.742188 L 100.847656 10.878906 L 102.378906 9.332031 L 103.890625 7.800781 L 119.941406 7.800781 L 121.492188 9.347656 L 123.039062 10.914062 L 123.007812 13.625 C 122.988281 15.121094 122.9375 16.425781 122.898438 16.546875 C 122.828125 16.707031 121.96875 16.757812 119.644531 16.757812 C 117.917969 16.757812 116.371094 16.707031 116.230469 16.652344 C 116.035156 16.582031 115.984375 16.089844 115.984375 14.207031 L 115.984375 11.847656 L 108.238281 11.847656 L 108.238281 16.355469 L 108.90625 16.722656 C 109.261719 16.933594 112.464844 18.871094 116.019531 21.035156 L 122.476562 24.960938 L 122.496094 27.988281 L 122.496094 30.996094 L 121.230469 32.160156 L 119.960938 33.320312 L 111.847656 33.304688 L 103.75 33.304688 L 102.21875 31.386719 "/>
</g>
</svg>
