<?xml version="1.0" encoding="UTF-8"?>
<svg xmlns="http://www.w3.org/2000/svg" xmlns:xlink="http://www.w3.org/1999/xlink" width="176pt" height="25.59pt" viewBox="0 0 176 25.59" version="1.1">
<defs>
<clipPath id="clip1">
  <path d="M 0 0 L 176 0 L 176 25.589844 L 0 25.589844 Z M 0 0 "/>
</clipPath>
</defs>
<g id="surface1">
<g clip-path="url(#clip1)" clip-rule="nonzero">
<path style=" stroke:none;fill-rule:nonzero;fill:rgb(16.653442%,48.21167%,21.405029%);fill-opacity:1;" d="M 62.964844 15.636719 C 63.574219 15.636719 63.980469 15.636719 64.453125 15.636719 C 64.597656 14.984375 64.976562 14.421875 64.941406 13.699219 C 64.683594 13.699219 64.476562 13.699219 64.253906 13.699219 C 63.84375 14.316406 63.449219 14.90625 62.964844 15.636719 Z M 90.113281 16.253906 C 89.628906 16.253906 89.167969 16.253906 88.699219 16.253906 C 88.269531 16.757812 87.875 17.265625 87.515625 17.898438 C 88.09375 17.898438 88.582031 17.898438 89.105469 17.898438 C 89.429688 17.4375 89.75 16.988281 90.058594 16.53125 C 90.101562 16.472656 90.089844 16.378906 90.113281 16.253906 Z M 143.128906 16.25 C 142.511719 16.25 142.050781 16.25 141.574219 16.25 C 141.121094 16.734375 140.722656 17.242188 140.40625 17.898438 C 140.976562 17.898438 141.464844 17.898438 141.96875 17.898438 C 142.328125 17.382812 142.679688 16.890625 143.128906 16.25 Z M 44.875 15.625 C 45.59375 15.648438 46.183594 15.824219 46.761719 15.488281 C 46.578125 14.792969 46.40625 14.152344 46.230469 13.476562 C 45.894531 13.492188 45.625 13.507812 45.3125 13.523438 C 45.167969 14.214844 45.035156 14.859375 44.875 15.625 Z M 62.546875 16.246094 C 62.1875 16.765625 61.832031 17.28125 61.410156 17.886719 C 62.277344 17.886719 63.011719 17.886719 63.769531 17.886719 C 63.960938 17.335938 64.195312 16.84375 64.203125 16.246094 C 63.628906 16.246094 63.109375 16.246094 62.546875 16.246094 Z M 47.355469 17.898438 C 47.195312 17.285156 47.058594 16.765625 46.921875 16.246094 C 46.171875 16.246094 45.511719 16.246094 44.753906 16.246094 C 44.648438 16.789062 44.542969 17.3125 44.421875 17.914062 C 45.441406 17.941406 46.347656 17.960938 47.355469 17.898438 Z M 78.699219 16.382812 C 78.671875 16.320312 78.644531 16.261719 78.613281 16.203125 C 76.789062 16.242188 74.960938 16.144531 73.121094 16.257812 C 73.03125 16.570312 72.960938 16.804688 72.898438 17.046875 C 72.832031 17.304688 72.777344 17.566406 72.703125 17.886719 C 74.355469 17.886719 75.933594 17.886719 77.550781 17.886719 C 77.933594 17.386719 78.316406 16.882812 78.699219 16.382812 Z M 123.339844 17.882812 C 125.757812 17.882812 128.0625 17.882812 130.425781 17.882812 C 130.78125 17.402344 131.152344 16.898438 131.546875 16.363281 C 130.8125 16.164062 124.46875 16.152344 123.644531 16.339844 C 123.554688 16.808594 123.453125 17.308594 123.339844 17.882812 Z M 106.710938 17.890625 C 109.300781 17.890625 111.8125 17.890625 114.375 17.890625 C 114.488281 17.382812 114.597656 16.902344 114.714844 16.390625 C 114.527344 16.316406 114.40625 16.238281 114.28125 16.222656 C 113.570312 16.128906 106.785156 16.214844 106.265625 16.328125 C 106.40625 16.832031 106.550781 17.332031 106.710938 17.890625 Z M 90.664062 15.632812 C 90.964844 15.246094 91.253906 14.875 91.566406 14.472656 C 92.722656 14.472656 93.855469 14.472656 95.097656 14.472656 C 94.820312 12.972656 94.359375 11.621094 93.925781 10.253906 C 93.625 10.253906 93.378906 10.253906 93.152344 10.253906 C 92.097656 11.375 89.507812 15.015625 89.339844 15.632812 C 89.785156 15.632812 90.21875 15.632812 90.664062 15.632812 Z M 144.507812 14.339844 C 145.664062 14.339844 146.832031 14.339844 148.097656 14.339844 C 147.679688 12.890625 147.289062 11.535156 146.898438 10.171875 C 146.550781 10.171875 146.277344 10.171875 145.992188 10.171875 C 144.679688 11.957031 143.375 13.726562 142.019531 15.566406 C 142.574219 15.746094 143.035156 15.65625 143.527344 15.652344 C 143.828125 15.25 144.128906 14.847656 144.507812 14.339844 Z M 34.925781 16.335938 C 34.230469 16.179688 27.835938 16.136719 26.507812 16.265625 C 26.09375 16.746094 25.648438 17.269531 25.179688 17.8125 C 25.929688 17.988281 33.804688 17.980469 34.511719 17.804688 C 34.644531 17.332031 34.785156 16.835938 34.925781 16.335938 Z M 176 18.550781 C 170.660156 18.550781 165.316406 18.550781 159.875 18.550781 C 160.527344 20.785156 161.152344 22.917969 161.8125 25.167969 C 158.234375 25.285156 154.757812 25.214844 151.222656 25.261719 C 150.765625 23.675781 150.316406 22.128906 149.855469 20.546875 C 146.601562 20.546875 143.394531 20.546875 140.109375 20.546875 C 140.566406 19.886719 140.972656 19.296875 141.425781 18.644531 C 140.859375 18.464844 140.367188 18.59375 139.839844 18.53125 C 138.15625 20.8125 136.480469 23.085938 134.789062 25.371094 C 131.472656 25.371094 128.171875 25.371094 124.773438 25.371094 C 126.464844 23.125 128.125 20.925781 129.753906 18.761719 C 129.738281 18.671875 129.742188 18.636719 129.730469 18.621094 C 129.714844 18.601562 129.679688 18.582031 129.65625 18.582031 C 127.78125 18.566406 125.90625 18.554688 124.03125 18.546875 C 123.785156 18.542969 123.535156 18.546875 123.199219 18.546875 C 122.742188 20.734375 122.289062 22.882812 121.832031 25.074219 C 118.796875 25.074219 115.789062 25.074219 112.726562 25.074219 C 113.226562 22.914062 113.710938 20.800781 114.226562 18.578125 C 111.773438 18.511719 109.410156 18.558594 106.941406 18.542969 C 107.503906 20.816406 108.253906 22.9375 108.84375 25.207031 C 108.542969 25.234375 108.308594 25.269531 108.074219 25.269531 C 106.113281 25.285156 104.15625 25.285156 102.195312 25.304688 C 101.132812 25.316406 100.070312 25.359375 99.011719 25.382812 C 98.789062 25.390625 98.570312 25.386719 98.292969 25.386719 C 97.832031 23.792969 97.382812 22.246094 96.910156 20.609375 C 95.300781 20.546875 93.714844 20.613281 92.132812 20.601562 C 90.539062 20.589844 88.949219 20.597656 87.316406 20.597656 C 87.515625 19.855469 88.265625 19.398438 88.484375 18.589844 C 87.96875 18.589844 87.5 18.589844 86.945312 18.589844 C 85.28125 20.835938 83.589844 23.125 81.878906 25.441406 C 78.539062 25.441406 75.222656 25.441406 71.855469 25.441406 C 73.554688 23.191406 75.234375 20.96875 77.011719 18.617188 C 76.160156 18.488281 75.449219 18.5625 74.746094 18.546875 C 74.046875 18.535156 73.347656 18.546875 72.5625 18.546875 C 71.863281 20.839844 71.402344 23.1875 70.746094 25.507812 C 67.683594 25.507812 64.671875 25.507812 61.566406 25.507812 C 61.761719 24.285156 62.230469 23.179688 62.542969 22.039062 C 62.855469 20.910156 63.214844 19.792969 63.574219 18.601562 C 62.671875 18.601562 61.84375 18.601562 60.9375 18.601562 C 59.398438 20.863281 57.828125 23.175781 56.246094 25.507812 C 53.945312 25.507812 51.65625 25.507812 49.273438 25.507812 C 48.699219 23.230469 48.117188 20.9375 47.515625 18.5625 C 46.464844 18.527344 45.441406 18.554688 44.335938 18.546875 C 44.007812 19.679688 43.816406 20.828125 43.585938 21.96875 C 43.355469 23.117188 43.113281 24.265625 42.878906 25.398438 C 42.246094 25.59375 34.339844 25.664062 32.210938 25.496094 C 32.890625 23.222656 33.5625 20.964844 34.21875 18.757812 C 34.160156 18.671875 34.152344 18.648438 34.132812 18.628906 C 34.113281 18.609375 34.089844 18.589844 34.066406 18.582031 C 34.011719 18.566406 33.957031 18.550781 33.902344 18.550781 C 22.617188 18.550781 11.335938 18.550781 0 18.433594 C 0.246094 18.289062 0.488281 18.136719 0.738281 18 C 6.15625 15.023438 11.578125 12.050781 16.992188 9.070312 C 17.316406 8.890625 17.617188 8.703125 18.082031 8.890625 C 17.558594 9.523438 17.058594 10.121094 16.5625 10.71875 C 16.046875 11.34375 15.503906 11.949219 15.019531 12.597656 C 14.777344 12.921875 14.644531 13.324219 14.507812 13.605469 C 14.746094 14.472656 15.328125 14.640625 15.96875 14.667969 C 16.640625 14.691406 17.316406 14.667969 17.984375 14.652344 C 20.335938 14.609375 22.6875 14.558594 25.035156 14.511719 C 25.175781 14.507812 25.316406 14.496094 25.5 14.488281 C 27.308594 13.289062 29.148438 12.074219 30.984375 10.855469 C 31.011719 10.882812 31.035156 10.90625 31.058594 10.933594 C 29.765625 12.445312 28.472656 13.960938 27.121094 15.542969 C 27.296875 15.597656 27.410156 15.667969 27.527344 15.667969 C 29.9375 15.671875 32.34375 15.671875 34.753906 15.667969 C 34.859375 15.667969 34.96875 15.632812 35.175781 15.59375 C 36.707031 10.519531 38.242188 5.417969 39.785156 0.308594 C 44.171875 0.308594 48.503906 0.308594 52.878906 0.308594 C 53.902344 3.726562 54.921875 7.121094 55.953125 10.570312 C 56.164062 10.601562 56.371094 10.628906 56.59375 10.660156 C 59.125 7.195312 61.628906 3.761719 64.144531 0.3125 C 68.429688 0.3125 72.703125 0.3125 77.074219 0.3125 C 75.796875 5.425781 74.53125 10.476562 73.269531 15.53125 C 73.953125 15.699219 78.144531 15.742188 79.292969 15.601562 C 83.171875 10.476562 87.089844 5.304688 91.011719 0.128906 C 94.476562 0.128906 97.914062 0.128906 101.457031 0.128906 C 102.980469 5.269531 104.503906 10.429688 106.039062 15.621094 C 108.757812 15.621094 111.429688 15.621094 114.234375 15.621094 C 111.285156 10.523438 108.390625 5.523438 105.457031 0.449219 C 109.320312 0.449219 113.109375 0.449219 116.980469 0.449219 C 118.453125 2.992188 119.953125 5.574219 121.503906 8.246094 C 123.003906 6.984375 124.308594 5.613281 125.671875 4.308594 C 127.046875 2.992188 128.421875 1.675781 129.828125 0.328125 C 133.625 0.328125 137.441406 0.328125 141.367188 0.328125 C 135.691406 5.414062 130.074219 10.449219 124.429688 15.507812 C 125.050781 15.710938 130.636719 15.773438 132.144531 15.605469 C 136.0625 10.433594 140.011719 5.21875 143.960938 0 C 147.445312 0 150.882812 0 154.390625 0 C 155.929688 5.199219 157.460938 10.390625 159.015625 15.648438 C 159.386719 15.65625 159.714844 15.671875 160.039062 15.671875 C 165.054688 15.675781 170.066406 15.675781 175.078125 15.675781 C 175.386719 15.675781 175.691406 15.6875 176 15.695312 C 176 15.863281 176 16.03125 176 16.199219 C 175.804688 16.203125 175.609375 16.207031 175.410156 16.207031 C 170.316406 16.207031 165.222656 16.203125 160.128906 16.210938 C 159.84375 16.210938 159.523438 16.113281 159.222656 16.351562 C 159.382812 16.871094 159.535156 17.371094 159.707031 17.9375 C 160.046875 17.9375 160.347656 17.9375 160.652344 17.9375 C 165.4375 17.9375 170.222656 17.933594 175.011719 17.941406 C 175.339844 17.941406 175.671875 18.011719 176 18.046875 C 176 18.214844 176 18.382812 176 18.550781 "/>
</g>
</g>
</svg>
