<svg xmlns="http://www.w3.org/2000/svg" width="176pt" height="46.32" viewBox="0 0 176 34.74"><defs><clipPath id="a"><path d="M121 19h13v15.738h-13Zm0 0"/></clipPath></defs><path d="M0 30.668h30.84L36.336.004Zm0 0" style="stroke:none;fill-rule:nonzero;fill:#2e3791;fill-opacity:1"/><path d="m32.09 13.398.254-10.027-.844.715-.234 9.398-1.137 4.172h.004-.008.004l-1.945-3.554-1.04-6.344-.73.617.914 5.727v4.472l.027-.008q-.022.01-.046.02l.02-.008-2.684-3.148-2.31-3.61-.62.524 2.207 3.453 1.05 4.02.028-.012-.055.035.028-.024-3.586-2.421-2.27-2.864-.605.512 2.246 2.836 2.02 3.613-4.118-1.648-3.015-2.38-.61.516 3.106 2.45 2.847 3.011.032-.03c-.016.019-.032.034-.047.054l.015-.024-4.465-.773-4.628-2.04-.653.552 4.89 2.152 3.415 2.402.023-.039q-.02.047-.043.086l.02-.047-4.399-.304-6.77-1.832-.702.593 7.215 1.954 3.722 1.992-4.36.515-11.116-.632-.832.703 11.836.672 4.027 1.125 15.16-12.56z" style="stroke:none;fill-rule:nonzero;fill:#f3b012;fill-opacity:1"/><path d="M17.422 30.668h30.84L53.758.004Zm0 0" style="stroke:none;fill-rule:nonzero;fill:#ed212c;fill-opacity:1"/><path d="M62.54 22.8h.925q2.374 0 3.168-.3.796-.299 1.254-.953.457-.656.457-1.442 0-.526-.235-.867a1.3 1.3 0 0 0-.656-.488q-.422-.157-1.883-.156h-2.148Zm-1.661 7.97h-3.004l3.05-14.57h5.927q1.58 0 2.5.37a3.03 3.03 0 0 1 1.457 1.235c.359.57.535 1.258.535 2.05q.001 1.108-.426 2.149-.429 1.044-1.05 1.672c-.411.414-.86.734-1.337.949q-.713.322-1.926.492-.706.096-2.644.098h-1.922zM79.129 25.125l-.844-5.863-3.52 5.863Zm.367 2.426h-5.773l-1.75 3.219H68.89l8.242-14.57h3.328l2.367 14.57h-2.844zM84.734 30.77 87.79 16.2h2.992l-2.535 12.136h7.414l-.508 2.434z" style="stroke:none;fill-rule:nonzero;fill:#2e3791;fill-opacity:1"/><g clip-path="url(#a)"><path d="M126.125 26.16q.001 1.241.605 1.926.606.685 1.426.684.71-.001 1.371-.512.656-.516 1.094-1.711.434-1.195.434-2.215-.002-1.19-.57-1.824-.57-.638-1.45-.637-.819 0-1.496.586-.675.587-1.043 1.719-.37 1.136-.371 1.984m-1.727-6.086h2.72l-.231 1.09c.578-.48 1.125-.824 1.629-1.031a4.3 4.3 0 0 1 1.629-.309q1.668 0 2.687 1.149 1.015 1.149 1.016 3.43c0 1.913-.586 3.527-1.75 4.847q-1.5 1.692-3.551 1.691-2.108 0-3.192-1.71l-1.148 5.507h-2.867z" style="stroke:none;fill-rule:nonzero;fill:#2e3791;fill-opacity:1"/></g><path d="M136.836 20.074h2.68l-.43 2.059q1.5-2.311 3.246-2.313.62.001 1.332.313l-1.101 2.347a2.4 2.4 0 0 0-.829-.136c-.496 0-.996.183-1.504.558q-.767.558-1.195 1.493c-.289.625-.57 1.613-.851 2.964l-.7 3.332h-2.87zM150.664 24.52q.007-.188.008-.29 0-1.178-.531-1.77-.528-.587-1.418-.589-.89 0-1.594.672-.708.668-.957 1.98Zm2.418 1.75h-7.2c-.007.113-.007.203-.007.261q-.001 1.061.605 1.711c.403.434.891.649 1.473.649q1.429 0 2.23-1.48l2.57.429c-.5 1.035-1.167 1.808-2.007 2.328q-1.254.774-2.812.773-2.139-.001-3.48-1.355t-1.34-3.582c0-1.453.402-2.75 1.21-3.883q1.648-2.297 4.707-2.297c1.301 0 2.332.403 3.102 1.203q1.148 1.207 1.148 3.375 0 1.04-.199 1.868M153.762 27.723l2.781-.442q.368.878.918 1.246.55.364 1.5.364.978-.001 1.57-.442.41-.299.41-.726a.74.74 0 0 0-.21-.52q-.218-.221-1.192-.543-2.596-.855-3.219-1.36-.967-.778-.968-2.038t.941-2.168q1.307-1.273 3.89-1.274 2.048 0 3.098.75 1.052.752 1.328 2.032l-2.648.46c-.14-.386-.367-.68-.68-.87q-.637-.392-1.539-.391-.9 0-1.293.3-.398.3-.398.692c0 .266.137.484.402.656q.248.165 1.61.563c1.402.406 2.335.804 2.808 1.199q1.001.83 1 2 .001 1.51-1.27 2.621-1.27 1.108-3.578 1.11-2.301 0-3.554-.844c-.84-.567-1.406-1.356-1.707-2.375M165.152 27.723l2.778-.442q.37.878.922 1.246.546.364 1.496.364.985-.001 1.57-.442.41-.299.41-.726a.74.74 0 0 0-.21-.52c-.145-.148-.544-.328-1.188-.543q-2.603-.855-3.22-1.36c-.648-.519-.968-1.198-.968-2.038q0-1.26.938-2.168 1.313-1.273 3.89-1.274c1.368 0 2.399.25 3.102.75q1.048.752 1.328 2.032l-2.648.46c-.141-.386-.368-.68-.68-.87q-.643-.392-1.543-.391-.899 0-1.293.3t-.395.692q0 .398.399.656.25.165 1.61.563c1.402.406 2.335.804 2.812 1.199.664.555 1 1.219 1 2q-.001 1.51-1.274 2.621c-.843.738-2.039 1.11-3.578 1.11-1.531 0-2.719-.282-3.555-.844-.835-.567-1.406-1.356-1.703-2.375M111.836 20.066h3.633l1.312 3.286 2.418-3.286h3.598l-4.234 5.168 2.664 5.504h-3.707l-1.504-3.43-2.715 3.43h-3.688l4.668-5.562zM107.727 24.395q.006-.188.007-.29.001-1.178-.53-1.77-.528-.587-1.419-.589-.89 0-1.594.672-.706.668-.957 1.98Zm2.418 1.75h-7.2c-.007.113-.007.203-.007.261q-.001 1.061.601 1.711c.406.43.898.649 1.477.649q1.428 0 2.23-1.48l2.57.429q-.75 1.551-2.004 2.324-1.259.779-2.816.777-2.139-.001-3.48-1.355t-1.34-3.586q-.001-2.18 1.21-3.879 1.648-2.297 4.708-2.297 1.952-.002 3.101 1.203 1.149 1.207 1.149 3.375 0 1.04-.2 1.868" style="stroke:none;fill-rule:nonzero;fill:#2e3791;fill-opacity:1"/></svg>