<svg xmlns="http://www.w3.org/2000/svg" width="176pt" height="67.72" viewBox="0 0 176 50.79"><defs><clipPath id="a"><path d="M137 27h8v23.79h-8Zm0 0"/></clipPath></defs><path d="M176 30.79h-4.91c-.02.273-.043.542-.047.812-.008 1.75 0 3.5-.016 5.25-.023 2.937 1.254 5.02 4.055 6.183l.043.836c-.223.031-.41.09-.594.082-1.617-.074-3.203-.293-4.629-1.137-1.632-.968-2.539-2.347-2.52-4.293.024-2.285.009-4.574.009-6.859v-1.023l-2.5-.082v-1.57c2.847-1.223 4.754-3.278 5-6.622h1.472c.012.524.028 1.074.032 1.625.007.535 0 1.07 0 1.61v1.765c1.582.113 3.093.004 4.605.031zM151.898 32.809c2.594 0 5.122.004 7.649-.004.152-.004.308-.086.45-.13-.177-2.019-1.642-3.245-3.977-3.37-2.149-.11-3.743 1.18-4.122 3.504m12.348 2.148h-12.855c-.114 1.809.507 3.227 1.847 4.297 1.473 1.172 3.168 1.375 4.965.965 1.121-.254 2.106-.797 3.012-1.489.336-.253.656-.53 1.055-.855l2.03 1.215c-.386.894-.96 1.578-1.636 2.172-3.117 2.758-7.855 3.21-11.437 1.086-1.758-1.04-2.872-2.602-3.45-4.543-.593-2.008-.5-4.024.172-5.992.613-1.782 1.758-3.16 3.473-3.977 2.945-1.395 5.933-1.504 8.887-.035 2.566 1.277 4.199 4.262 3.937 7.156M134.191 29.91 132 27.258h5.387c.172.64.218 15.52.058 16.605h-3.472v-2c-.317.219-.493.348-.676.469-2.192 1.461-4.508 1.742-6.899.598-2.156-1.035-3.25-2.828-3.304-5.207-.047-1.946-.012-3.895-.012-5.844v-4.61h3.86v.958c0 2.851-.008 5.703.003 8.554.008 1.61 1.024 3.043 2.45 3.52 1.535.515 3.234-.125 4.171-1.614.438-.699.672-1.44.649-2.312-.067-2.145-.024-4.29-.024-6.465M109.043 30.605h-4.863c-.024.329-.055.575-.055.82-.008 1.778-.023 3.56-.012 5.34.02 2.801 1.192 4.883 3.836 6.02.051.024.098.059.196.117v.817c-.73.238-1.454.015-2.168-.063a7.26 7.26 0 0 1-3.383-1.238c-1.348-.934-2.07-2.195-2.063-3.86.016-2.347.008-4.69 0-7.035 0-.328-.043-.66-.07-1.062h-2.39v-1.637c2.835-1.234 4.69-3.285 4.917-6.605.227-.028.442-.059.653-.07.226-.012.449-.004.695-.004.262.566.105 1.136.133 1.683.027.535.008 1.074.008 1.61v1.71c.777.227 1.507.079 2.226.102.73.023 1.465.004 2.3.004.013.555.032 1.078.036 1.598.008.535.004 1.074.004 1.753" style="stroke:none;fill-rule:nonzero;fill:#ee273e;fill-opacity:1"/><g clip-path="url(#a)"><path d="M140.914 27.14h3.82c.016.282.04.528.04.774.003 5.816-.004 11.629.007 17.445.004 2.184-.996 3.707-2.945 4.63-1.434.679-2.95.894-4.629.769.453-.293.84-.512 1.195-.774 1.875-1.347 2.649-3.254 2.653-5.488.004-2.258-.075-4.512-.102-6.77-.031-3.273-.05-6.546-.07-9.824-.004-.222.015-.445.031-.761" style="stroke:none;fill-rule:nonzero;fill:#ee273e;fill-opacity:1"/></g><path d="M115.145 43.543h-3.79V27.125c.606-.008 1.215-.02 1.825-.023.613-.004 1.23 0 1.941 0V29.5c1.578-1.164 3.063-2.145 4.879-2.383.465-.062.941-.008 1.375-.008.813 1.774.016 3.243-1.73 3.762-.5.152-1.051.184-1.582.211-1.188.059-2.598 1.117-2.918 2.254-.067.238-.051.504-.051.754.015 2.879.035 5.758.05 8.637.004.25 0 .5 0 .816M140.828 26.098v-3.926h9.926c-3.395 1.34-6.621 2.621-9.926 3.926" style="stroke:none;fill-rule:nonzero;fill:#ee273e;fill-opacity:1"/><path d="M88.926 24.285c-.031.059-.082.113-.09.172-.227 2.11-.945 4.047-1.984 5.883-.82 1.45-1.82 2.754-2.938 3.984-1.234 1.36-2.566 2.614-4.031 3.707-.715.535-1.535.942-2.332 1.352-1.512.781-3.13 1.297-4.793 1.625-1.602.316-3.235.39-4.856.258-1.718-.141-3.41-.473-5.039-1.075q-.81-.297-1.625-.605c-.054-.023-.097-.086-.144-.129.14.027.289.04.426.082a16.8 16.8 0 0 0 3.78.719c.798.058 1.595.027 2.395-.043a11.6 11.6 0 0 0 2.293-.442c1.438-.421 2.762-1.097 3.985-1.968a18 18 0 0 0 3.609-3.446c1.484-1.855 2.934-3.742 4.156-5.789.086-.144.23-.254.348-.379.828-.28 1.582-.703 2.312-1.171 1.36-.875 2.473-2 3.32-3.38.387-.628.712-1.288.966-1.984.046-.125.16-.226.242-.34z" style="stroke:none;fill-rule:nonzero;fill:#ec2741;fill-opacity:1"/><path d="M82.086 28.191c-.117.125-.262.235-.348.38-1.222 2.046-2.672 3.933-4.156 5.788a18 18 0 0 1-3.61 3.446c-1.222.87-2.546 1.547-3.984 1.968-.746.22-1.508.375-2.293.442-.8.07-1.597.101-2.394.043a16.8 16.8 0 0 1-3.781-.719c-.137-.043-.286-.055-.426-.082l-.008.012c-.14-.196-.363-.211-.574-.25-2.223-.903-4.235-2.157-6.055-3.715-.738-.633-1.437-1.313-2.191-1.926a10.4 10.4 0 0 0-5.016-2.262c-1.23-.203-2.46-.144-3.687.04-1.63.242-3.2.699-4.731 1.285-.691.261-1.348.605-2.016.922q-2.948 1.387-5.89 2.792c-2.29 1.09-4.574 2.188-6.863 3.282-2.145 1.023-4.29 2.043-6.434 3.07-.809.387-1.617.781-2.43 1.164-.156.074-.328.106-.488.16.05-.062.098-.136.164-.183 1.332-.907 2.664-1.809 4-2.715q.06-.044.117-.086l-.004.004.106-.09.031-.004c.133.016.23-.008.21-.176v.004c.118-.039.25-.058.349-.12.558-.36 1.105-.735 1.664-1.095.738-.472 1.488-.933 2.234-1.402.484-.305.969-.621 1.457-.926q1.693-1.048 3.39-2.086c.934-.57 1.864-1.152 2.813-1.703a161 161 0 0 1 3.39-1.922 183 183 0 0 1 4.036-2.183c.96-.504 1.95-.957 2.922-1.434.555-.273 1.097-.57 1.664-.816.922-.399 1.863-.754 2.789-1.149a34 34 0 0 1 4.988-1.656c.75-.188 1.516-.32 2.278-.45.62-.105 1.25-.202 1.879-.241.808-.055 1.613.015 2.414.156 1 .176 1.96.46 2.82 1.027.09.059.215.063.32.094l-.004.004q.048.047.094.101c1.152 1.309 2.45 2.438 4.008 3.243 1.562.8 3.222 1.16 4.972 1.015 1.282-.105 2.508-.46 3.684-.976 1.867-.82 3.531-1.957 5.067-3.278.44-.383.773-.898 1.132-1.375 1-1.32 1.965-2.668 2.79-4.11.878-1.542 1.613-3.148 2.109-4.858a6.2 6.2 0 0 0 .254-1.672c.02-1.395-.594-2.422-1.766-3.137-.023-.016-.05-.027-.078-.043-.676-.387-.672-.383-1.387-.07-1.18.507-2.406.77-3.695.648-.899-.082-1.762-.336-2.617-.629-.41-.144-.825-.277-1.223-.445-.871-.367-1.785-.5-2.715-.563-.226-.015-.449-.09-.738-.152.11-.117.164-.191.234-.246 1.356-1.125 2.653-2.313 4.121-3.29 1.09-.722 2.262-1.253 3.547-1.491.696-.13 1.41-.2 2.125-.059.082.02.172.004.278.004.039-.102.082-.207.12-.312.071-.18.055-.329-.105-.465a2.8 2.8 0 0 1-.39-.41 2.95 2.95 0 0 0-1.336-.942c-.133-.043-.25-.133-.36-.191.012-.07.008-.11.024-.121.937-.536 1.922-.942 3.015-1.04 1.285-.113 2.301.376 3.078 1.372.516.66.872 1.402 1.133 2.23-.097.012-.183.047-.254.027-.613-.164-1.214-.02-1.816.059-.074.012-.145.05-.215.043-.445-.047-.7.191-.894.586.07.055.136.125.218.172 1.778.976 2.953 2.445 3.614 4.351q.837 2.42.726 4.97c-.043 1.015-.23 2.015-.449 3.01-.637 2.915-1.773 5.641-3.184 8.259-.562 1.047-1.18 2.062-1.773 3.093" style="stroke:none;fill-rule:nonzero;fill:#2952a9;fill-opacity:1"/><path d="M60.742 24.879c-.105-.031-.23-.035-.32-.094-.86-.566-1.82-.851-2.82-1.027-.801-.14-1.606-.211-2.414-.156-.63.039-1.258.136-1.88.242-.761.129-1.527.261-2.277.449a34 34 0 0 0-4.988 1.656c-.926.395-1.867.75-2.79 1.149-.566.246-1.108.543-1.663.816-.973.477-1.961.93-2.922 1.434a183 183 0 0 0-4.035 2.183 161 161 0 0 0-3.39 1.922c-.95.55-1.88 1.133-2.813 1.703a607 607 0 0 0-3.39 2.086c-.49.305-.974.621-1.458.926-.746.469-1.496.93-2.234 1.402-.559.36-1.106.735-1.664 1.094-.098.063-.23.082-.348.121.129-.133.25-.281.39-.398.79-.657 1.587-1.313 2.383-1.961 1.102-.899 2.211-1.785 3.309-2.684 1.102-.898 2.203-1.793 3.285-2.71 1.008-.856 1.985-1.743 2.985-2.606a437 437 0 0 1 3.53-3.031c.993-.848 1.981-1.7 2.993-2.524a233 233 0 0 1 8.77-6.844c1.476-1.093 3.027-2.093 4.601-3.043.211-.125.414-.257.621-.386 1.195-.395 2.379-.82 3.586-1.168 1.445-.418 2.902-.82 4.402-.97 1.063-.105 2.145-.136 3.266.185-.219.234-.414.44-.602.652-1.074 1.207-2.02 2.496-2.69 3.98-.622 1.375-.817 2.813-.653 4.29.117 1.078.558 2.062 1.097 3 .059.097.09.206.133.312" style="stroke:none;fill-rule:nonzero;fill:#42b1c5;fill-opacity:1"/><path d="M52.203 14.598c-.207.129-.41.261-.621.386-1.574.95-3.125 1.95-4.602 3.043a233.322 233.322 0 0 0-8.77 6.844c-1.01.824-2 1.676-2.991 2.524a437 437 0 0 0-3.532 3.03c-1 .864-1.976 1.75-2.984 2.606-1.082.918-2.183 1.813-3.285 2.711-1.098.899-2.207 1.785-3.309 2.684q-1.197.974-2.382 1.96c-.141.118-.262.266-.391.4v-.005l-.211.176-.031.004-.106.09.004-.004q-.058.042-.117.086c-1.336.906-2.668 1.808-4 2.715-.066.047-.113.12-.164.183-.727.387-1.445.785-2.176 1.157q-1.801.912-3.707 1.574c-.805.281-1.621.523-2.441.746a86 86 0 0 1-3.149.797c-1.027.242-2.058.449-3.09.672-.039.007-.085-.008-.148-.063.281-.113.563-.23.844-.34a36 36 0 0 0 3.668-1.578c.851-.43 1.722-.824 2.55-1.293a126 126 0 0 0 4.258-2.535c1.797-1.113 3.508-2.36 5.196-3.633a89 89 0 0 0 3.437-2.73 181 181 0 0 0 4.145-3.594c1.148-1.023 2.265-2.078 3.39-3.129.692-.645 1.352-1.32 2.055-1.953a71 71 0 0 1 2.664-2.305c1.164-.953 2.336-1.902 3.555-2.789 1.261-.922 2.566-1.789 3.87-2.648 1.919-1.254 3.938-2.336 6.02-3.297 1.207-.559 2.446-1.047 3.68-1.543.75-.3 1.516-.563 2.281-.832.188-.063.395-.082.59-.117" style="stroke:none;fill-rule:nonzero;fill:#7fcb2c;fill-opacity:1"/><path d="M60.512 39.219c.21.039.433.054.574.25a37 37 0 0 1-.574-.25" style="stroke:none;fill-rule:nonzero;fill:#ec2741;fill-opacity:1"/><path d="M60.832 24.984q-.046-.054-.094-.101.048.047.094.101" style="stroke:none;fill-rule:nonzero;fill:#42b1c5;fill-opacity:1"/></svg>