<svg xmlns="http://www.w3.org/2000/svg" width="150.613" height="59pt" viewBox="0 0 112.96 59"><defs><clipPath id="a"><path d="M74 0h38.96v59H74Zm0 0"/></clipPath></defs><g clip-path="url(#a)"><path d="M74.656 58.973c-.097-.258.031-.332.164-.399q.494-.256.989-.511a36 36 0 0 0 6.605-4.438 37 37 0 0 0 7.41-8.441 36.4 36.4 0 0 0 4.34-9.664 35 35 0 0 0 1.191-6.266c.086-.895.09-1.797.184-2.688.102-.976.02-1.945-.031-2.914a28.5 28.5 0 0 0-.68-5.004c-.082-.359-.316-.554-.656-.664q-1.283-.416-2.567-.84-2.255-.743-4.52-1.492c-.12-.039-.245-.078-.35-.152-.274-.191-.282-.52-.016-.719.148-.113.316-.195.48-.289q3.95-2.29 7.899-4.586c3.148-1.832 6.297-3.672 9.445-5.504q2.932-1.696 5.863-3.394c.496-.285 1.004-.555 1.477-.871.5-.328.875-.024.883.453.011.758.074 1.515.086 2.27q.066 3.192.101 6.386c.012.93.008 1.86-.031 2.79a95 95 0 0 1-.234 3.503c-.106 1.254-.208 2.508-.38 3.75a75 75 0 0 1-.746 4.438c-.476 2.367-1.003 4.722-1.687 7.039a45 45 0 0 1-4.762 10.75 38 38 0 0 1-3.797 5.183c-2.105 2.41-4.46 4.543-7.12 6.332-3.895 2.621-8.137 4.395-12.743 5.293-1.547.301-3.098.535-4.672.598-.554.023-1.11.055-1.668.078-.152.004-.304-.02-.457-.027" style="stroke:none;fill-rule:nonzero;fill:#29419a;fill-opacity:1"/></g><path d="M62.406 30.629v.57c0 2.715.004 5.43-.004 8.145a2 2 0 0 1-.12.71c-.184.462-.56.727-1.06.747-.656.027-1.316.027-1.972 0-.598-.024-1.09-.543-1.133-1.145-.012-.125-.008-.254-.008-.383V23.621c.008-.933.496-1.422 1.43-1.43q.605-.005 1.203 0c.442.004.801.184 1.074.532l3.067 3.914 4.351 5.57c.036.043.079.074.188.168.008-.227.02-.39.02-.55 0-2.704.003-5.403-.004-8.106 0-.465.101-.875.468-1.192.239-.207.5-.332.813-.332.586-.004 1.176-.015 1.758 0 .75.02 1.246.535 1.27 1.29.003.14 0 .285 0 .425v15.18c0 .187.007.375-.009.558a1.22 1.22 0 0 1-1.164 1.157c-.527.023-1.058.015-1.586 0a1.18 1.18 0 0 1-.922-.477q-1.847-2.366-3.695-4.726-1.898-2.433-3.8-4.864c-.016-.02-.044-.031-.165-.11M47.992 36.438c2.582.07 4.957-2.09 4.969-4.907.016-2.82-2.203-4.996-4.914-5.008-2.793-.011-4.973 2.168-4.992 4.934-.02 2.926 2.433 5.04 4.937 4.98m-.082 4.289c-4.965-.008-9.226-4.09-9.164-9.332.059-5.211 4.207-9.235 9.36-9.18 5.316.055 9.289 4.43 9.14 9.523-.148 5.086-4.34 9.067-9.336 8.989M79.773 26.57v2.68c.266.145.54.129.809.129q3.024.005 6.047.004c.14 0 .285.008.426 0 .539-.04 1.199.394 1.246 1.168.039.64.035 1.289-.012 1.93-.055.757-.566 1.195-1.352 1.195-2.187.008-4.374.004-6.562.004h-.527c-.121.36-.149 2.191-.051 2.785.164.015.34.047.52.047 1.972.004 3.945 0 5.917 0 .157 0 .313.008.47 0 .98-.059 1.39.61 1.421 1.312.027.668-.02 1.34-.078 2.008-.04.473-.527.906-1.02.965-.156.023-.312.016-.472.016q-4.757.004-9.52.003c-.055 0-.113-.007-.168 0-.824.079-1.441-.593-1.437-1.433.023-5.258.011-10.52.011-15.778 0-.906.5-1.41 1.403-1.414 3.418-.003 6.832 0 10.25.004.168 0 .344.012.504.063.554.164.886.59.898 1.168.016.613-.016 1.23.012 1.844.027.64-.664 1.238-1.242 1.222-1.086-.027-2.172-.008-3.258-.004-1.156 0-2.313 0-3.473.012-.238.004-.476.043-.762.07" style="stroke:none;fill-rule:nonzero;fill:#29419a;fill-opacity:1"/><path d="M4.344 26.54v2.792c.187.012.355.031.52.031q2.337.005 4.675.004c.129 0 .258-.004.387 0 .695.031 1.219.52 1.25 1.223.031.598.027 1.2.004 1.797-.032.73-.567 1.246-1.301 1.285-.215.008-.43.004-.645.004H4.352c-.012.203-.028.37-.028.535-.004 1.644 0 3.289 0 4.93 0 .144.004.289-.008.43-.058.718-.566 1.222-1.285 1.245q-.879.024-1.758 0c-.726-.023-1.226-.523-1.265-1.25-.012-.144-.008-.285-.008-.43V23.876c0-.145-.004-.285.004-.43.043-.715.555-1.218 1.27-1.254.085-.003.171 0 .257 0h10.504c.16 0 .317-.003.473.024.594.113 1.039.617 1.062 1.234q.031.903-.004 1.801c-.027.703-.52 1.191-1.226 1.25-.168.012-.344.012-.512.012q-3.45-.001-6.902.004c-.184 0-.367.015-.582.023M83.074 50.438c.121.234-.031.328-.144.425-1 .852-1.97 1.746-3.012 2.543-2.809 2.149-5.902 3.801-9.164 5.145-.371.152-.738.199-1.133.152a36 36 0 0 1-9.058-2.328 36.6 36.6 0 0 1-11.66-7.46 37.2 37.2 0 0 1-4.989-5.813 2 2 0 0 1-.18-.293c-.039-.082-.03-.086.164-.29.137.114.286.22.414.344a36.6 36.6 0 0 0 19.461 9.59c2.38.379 4.774.531 7.176.434a36.8 36.8 0 0 0 11.5-2.32c.149-.055.297-.106.45-.145.05-.016.109.008.175.016M31.902 27.852c.368-.5.696-.95 1.024-1.395.86-1.18 1.726-2.352 2.57-3.539.363-.512.816-.762 1.453-.734.582.03 1.172.011 1.758.007.563-.003 1.008.211 1.262.723.25.512.176 1-.157 1.453l-3.242 4.43c-.75 1.023-1.496 2.055-2.258 3.074a1.35 1.35 0 0 0-.277.871c.008 2.145.004 4.29.004 6.434 0 .14.004.285-.004.43-.043.675-.539 1.183-1.215 1.206-.613.02-1.23.024-1.843 0-.672-.023-1.18-.527-1.239-1.195-.015-.144-.008-.285-.008-.43 0-2.144-.007-4.289.008-6.433 0-.36-.09-.652-.304-.945-1.801-2.438-3.586-4.887-5.38-7.329-.206-.28-.366-.574-.37-.937-.012-.723.5-1.316 1.222-1.344.754-.027 1.512-.02 2.27 0 .445.012.777.254 1.035.61.66.914 1.332 1.824 1.996 2.734.55.746 1.098 1.496 1.695 2.309M18.734 36.52h7.211c.13 0 .258-.004.387 0 .727.035 1.277.55 1.305 1.277.023.57.02 1.14.004 1.715-.02.75-.63 1.324-1.446 1.316-3.43-.02-6.86-.008-10.289-.008q-.15 0-.3-.011c-.376-.028-.696-.188-.907-.496a1.8 1.8 0 0 1-.254-.626c-.047-.203-.03-.425-.03-.64v-15.09c0-.2.003-.402.023-.602.066-.628.55-1.125 1.18-1.152q.967-.046 1.929 0c.64.027 1.137.559 1.183 1.203.012.14.004.285.004.43V36.52" style="stroke:none;fill-rule:nonzero;fill:#4493d6;fill-opacity:1"/></svg>