<svg xmlns="http://www.w3.org/2000/svg" width="176pt" height="50.467" viewBox="0 0 176 37.85"><defs><clipPath id="a"><path d="M58 0h42v37.852H58Zm0 0"/></clipPath></defs><path d="M47.074 5.473h6.68v6.914h3.93v5.008h-3.93v6.39q.001 3.357.371 4.125.368.774 1.395.774c.21 0 2.46.066 2.753 0v5.855c-.8.14-5 0-5.824 0q-3.204 0-4.289-1.465-1.085-1.464-1.086-6.047v-9.632h-2.832v-5.008h2.832Zm-9.926 14.043q-.404-2.187-1.37-3.266-.968-1.078-2.532-1.078-1.645 0-2.805 1.16-1.159 1.16-1.523 3.184Zm7.297 4.804H28.918q.305 2.414 1.441 3.68c.762.844 1.762 1.266 3.008 1.266q1.12.001 1.973-.625.857-.628 1.32-1.813h7.32c-.707 2.445-2.015 4.344-3.933 5.692-1.918 1.343-4.285 2.02-7.106 2.02-3.332 0-6.035-1.126-8.109-3.368q-3.11-3.37-3.11-8.707.001-5.296 3.16-8.57 3.163-3.275 8.282-3.274 5.286-.001 8.305 3.356 3.018 3.352 3.02 9.23-.002.163-.02.531-.024.373-.024.582M12.977 5.473h7.46v18.465q.002 5.483-2.48 8.042c-1.652 1.704-4.266 2.56-7.836 2.56q-4.963 0-7.488-2.302Q.106 29.94 0 25.328v-3.613h7.406v3.613c.028 1.117.27 1.973.735 2.559q.696.879 2.015.879 1.605 0 2.215-.93.607-.927.606-3.898z" style="stroke:none;fill-rule:nonzero;fill:#100f0d;fill-opacity:1"/><path d="M174.727 22.066v6.477q0 1.88.304 3.332.311 1.448.969 2.61h-8.46a18 18 0 0 1-.33-1.262 36 36 0 0 1-.35-1.918q-1.231 1.976-3.208 3.03-1.978 1.056-4.484 1.056-3.603 0-5.648-1.961-2.04-1.963-2.04-5.418c0-1.985.59-3.492 1.778-4.528q1.78-1.557 5.91-2.066a68 68 0 0 1 3.605-.348q.459-.022.57-.047 1.823-.186 2.65-.789.821-.604.823-1.718c0-.774-.28-1.407-.836-1.891q-.832-.731-2.175-.73-1.383 0-2.297.753c-.606.5-.969 1.172-1.086 2.008h-8.238q.438-3.46 3.402-5.316 2.966-1.858 8.02-1.86c2.23 0 4.14.301 5.738.895q2.392.896 3.777 2.66.879 1.138 1.242 2.598.364 1.463.364 4.433m-8 .977q-.968.951-3.711 1.785-.532.165-.77.235-1.276.415-1.867 1.101c-.399.457-.594 1.043-.594 1.754q0 1.253.832 2.008.837.752 2.2.754 1.98-.001 2.988-1.508 1.012-1.511 1.011-4.48 0-.257-.023-.618c-.016-.238-.035-.582-.066-1.031m-24.918-10.668h7.148v22.098h-7.148Zm-2.844 6.234h-7.649q-.087-1.51-.879-2.254-.791-.74-2.328-.742-1.254.001-1.945.524-.69.522-.691 1.472c0 .653.336 1.172 1.007 1.567.676.394 1.875.746 3.606 1.058 3.75.649 6.25 1.48 7.492 2.496q1.868 1.518 1.867 4.536 0 3.737-3.02 5.933-3.022 2.192-8.23 2.192-4.898 0-7.625-1.844c-1.816-1.23-2.898-3.078-3.25-5.535h7.778q.176 1.459 1.043 2.226c.582.512 1.359.766 2.34.766q1.386.001 2.199-.637.813-.64.812-1.73.001-.839-.8-1.371-.803-.533-2.672-.907a62 62 0 0 0-2.57-.437q-2.704-.42-3.583-.79-2.174-.977-3.14-2.347-.969-1.365-.97-3.457 0-3.62 3.013-5.758 3.01-2.133 8.195-2.133 4.705-.001 7.351 1.903c1.762 1.27 2.649 3.023 2.649 5.27M96.84 5.52h9.469l10.382 28.954h-8.207l-1.636-5.532H96.262l-1.672 5.532h-8.172Zm4.566 6.942-3.265 10.648h6.832l-3.27-10.648z" style="stroke:none;fill-rule:nonzero;fill:#909090;fill-opacity:1"/><path d="m83.348 21.324 2.543 15.133L75.52 26.414l-15.075 7.371 8.559-12.82L60 12.44l14.262.305 8.57-11.316.223 11.316H97.8z" style="stroke:none;fill-rule:nonzero;fill:#f1481f;fill-opacity:1"/><g clip-path="url(#a)"><path d="m75.613 25.82 9.543 9.243-2.351-13.989 13.203-7.836H82.574l-.207-10.383-7.863 10.391-13.242-.285 8.379 7.93-7.778 11.652Zm11.008 12.032-11.2-10.844-16.398 8.02 9.34-13.993-9.629-9.113 15.29.328L83.292 0l.246 12.258h16.05l-15.702 9.32z" style="stroke:none;fill-rule:nonzero;fill:#fff;fill-opacity:1"/></g></svg>