<svg xmlns="http://www.w3.org/2000/svg" width="235.533" height="59pt" viewBox="0 0 176.65 59"><defs><clipPath id="a"><path d="M150 14h26.648v25H150Zm0 0"/></clipPath></defs><path d="M66.246 29.5c0 15.863-12.86 28.723-28.723 28.723-15.867 0-28.726-12.86-28.726-28.723S21.657.777 37.523.777c15.864 0 28.723 12.86 28.723 28.723" style="stroke:none;fill-rule:nonzero;fill:#fff;fill-opacity:1"/><path d="M37.523 1.55c-15.41 0-27.949 12.54-27.949 27.95s12.54 27.95 27.95 27.95S65.468 44.91 65.468 29.5 52.934 1.55 37.523 1.55m0 57.45c-16.265 0-29.5-13.234-29.5-29.5S21.258 0 37.523 0s29.5 13.234 29.5 29.5S53.79 59 37.523 59" style="stroke:none;fill-rule:nonzero;fill:#2858a6;fill-opacity:1"/><path d="M74.785 50.41H0v-1.765h74.785z" style="stroke:none;fill-rule:nonzero;fill:#2858a6;fill-opacity:1"/><path d="M4.723 12.938h35.129s15.394 2.59 15.136 14.492c0 5.304-3.492 7.015-3.492 7.015H46.97s5.562-6.757 1.55-13.289c-3.3-5.379-8.539-5.629-8.539-5.629L6.22 14.871z" style="stroke:none;fill-rule:nonzero;fill:#ede907;fill-opacity:1"/><path d="M5.691 14.23H38.56s10.609 1.813 10.609 12.165c0 7.246-5.566 8.05-6.34 8.05H27.43s16.539-9.996-6.727-15.812c-3.453-.863-3.676-.488-8.625-.95-4.535-.421-6.387-3.453-6.387-3.453M24.383 38.023h2.535l-4.676 4.786-1.152 1.18q-.134.151-.227.28-.358.523-.054.864c.203.226.64.34 1.32.34q.92 0 1.687-.246a4.9 4.9 0 0 0 1.426-.735q.663-.486 1.801-1.652l4.71-4.817h2.536l-4.707 4.82q-1.489 1.525-2.621 2.329-1.132.808-2.656 1.312-1.53.504-3.328.504c-1.442 0-2.368-.254-2.786-.754-.421-.504-.359-1.148.18-1.941.113-.16.254-.34.426-.531.11-.13.457-.492 1.043-1.098zM36.973 41.863h1.347c1.364 0 2.309-.054 2.836-.172q.79-.17 1.422-.546.639-.37.914-.782c.223-.32.203-.562-.05-.718q-.24-.151-1.36-.149h-2.797Zm-4.864 4.977h-2.543l8.622-8.817h5.484q1.413 0 2.058.207c.434.141.68.395.754.762q.105.552-.433 1.344c-.516.746-1.254 1.367-2.215 1.852q-1.442.731-3.477.906c.184.207.305.484.356.82q.146 1.038-.106 2.926h-2.726q.181-.748.3-2.328.064-.855-.324-1.149-.241-.175-1.144-.175H35.68zM53.367 42.133h5.528L55.19 45.91q-1.283.456-2.918.766-1.634.311-3.109.312c-1.527 0-2.527-.246-3.008-.742q-.972-1.008.34-2.926c.586-.855 1.387-1.68 2.402-2.465a14.7 14.7 0 0 1 3.95-2.199q2.12-.78 4.257-.781c1.426 0 2.41.234 2.95.71q.807.706.297 2.067l-2.5.192q.198-.744-.235-1.125-.44-.375-1.488-.375c-.82 0-1.68.148-2.574.453q-1.336.458-2.575 1.414-1.235.955-2.007 2.086-.763 1.112-.418 1.644.34.533 1.707.532.815 0 1.789-.164c.648-.11 1.23-.243 1.754-.395l1.277-1.312H51.93zM80.633 14.176h11.832l-.754 3.3h-.773q-1.124 0-1.422.141a1.9 1.9 0 0 0-.758.656q-.266.412-.438 1.438l-2.078 9.21-.105.411q-.272 1.009-.274 1.824.001 1.428 1.145 2.371t2.96.942q1.45.002 2.641-.617 1.2-.616 2.012-1.766.81-1.155 1.313-3.277l2.125-9.47q.1-.48.101-.925c0-.316-.113-.555-.34-.707-.226-.156-.707-.23-1.441-.23h-.977l.79-3.301h9.863l-.754 3.3h-.942c-.535 0-.894.036-1.09.102a1.6 1.6 0 0 0-.566.383 2.1 2.1 0 0 0-.441.684q-.17.398-.34 1.37l-2.36 10.434q-.28 1.102-.964 2.567c-.453.976-1.149 1.886-2.075 2.73-.93.844-2.046 1.5-3.347 1.977-1.297.476-2.739.71-4.32.71q-2.737 0-4.676-.913-1.942-.913-3.016-2.54-1.073-1.623-1.074-3.468c0-.754.082-1.492.242-2.223l2.238-9.95q.17-.736.168-.905c0-.356-.16-.618-.488-.786-.223-.117-.672-.171-1.344-.171h-.992z" style="stroke:none;fill-rule:nonzero;fill:#2858a6;fill-opacity:1"/><path d="M112.414 24.262h2.785c1.48 0 2.574-.137 3.29-.41q1.077-.41 1.679-1.282a3.43 3.43 0 0 0 .602-1.984q0-1.47-1.125-2.05-1.127-.582-3.594-.583h-2.196Zm-6.566-10.086h11.457q3.948 0 5.804.676 1.858.674 2.86 2.027 1.008 1.353 1.008 3.094c0 1.804-.657 3.398-1.961 4.78q-1.958 2.08-5.532 2.712l3.41 5.473q.77 1.23 1.297 1.511.53.281 2.254.281l-.734 3.293h-6.48l-5.59-10.257h-2.024l-1.23 5.402c-.078.27-.117.52-.117.758 0 .297.144.511.44.652q.346.146 1.302.145h1.031l-.727 3.3h-11.738l.719-3.3h.82q1.378.002 1.863-.348c.329-.234.57-.715.735-1.445l3.02-13.453c.1-.446.152-.786.152-1.028a1 1 0 0 0-.168-.57.82.82 0 0 0-.446-.336q-.182-.065-1.097-.066h-1.102zM151.18 14.176l.8 8.273-3.554.344c-.168-1.152-.52-2.148-1.043-2.992-.524-.844-1.16-1.469-1.914-1.883-.75-.406-1.594-.613-2.531-.613q-1.98 0-3.836 1.23c-1.239.82-2.25 2.05-3.043 3.684a11.8 11.8 0 0 0-1.188 5.207q.001 2.168.77 3.855.767 1.681 1.98 2.489 1.22.801 2.719.8 1.094.002 2.055-.367.955-.368 1.39-.871c.29-.336.524-.863.692-1.582l.359-1.434q.07-.327.07-.738-.001-.493-.265-.734-.265-.24-.864-.239l-.41.016h-1.488l.754-3.297h11.726l-.754 3.297h-1.058q-.839 0-1.18.164-.34.163-.57.52c-.156.238-.313.715-.473 1.418l-1.64 7.3h-3.54l-.308-1.433c-.988.648-1.973 1.117-2.941 1.41-.965.29-2 .434-3.094.434-2.942 0-5.41-1.032-7.418-3.102-2.004-2.066-3.008-4.676-3.008-7.82q0-3.745 1.805-6.899a13.4 13.4 0 0 1 4.965-5q3.163-1.846 6.785-1.847 1.213-.001 2.41.214 1.2.213 2.137.59c.445.168.941.457 1.488.852l.719-1.246z" style="stroke:none;fill-rule:nonzero;fill:#2858a6;fill-opacity:1"/><g clip-path="url(#a)"><path d="m167.688 26.98-.961-7.27-4.059 7.27Zm-1.778-12.804h5.332l3.113 18.566c.133.762.254 1.235.372 1.418q.168.275.507.422.342.14 1.414.14l-.804 3.301h-11.469l.77-3.3h1.109q1.167 0 1.562-.203c.461-.239.696-.586.696-1.043q.001-.306-.157-1.438l-.253-1.91h-7.387l-1.586 2.742c-.316.57-.477.969-.477 1.184 0 .242.13.422.395.55q.235.118 1.344.118h1.023l-.75 3.3h-10.258l.809-3.3q.91.017 1.387-.141.473-.165.812-.488.345-.327 1.129-1.54z" style="stroke:none;fill-rule:nonzero;fill:#2858a6;fill-opacity:1"/></g></svg>