<svg xmlns="http://www.w3.org/2000/svg" width="176pt" height="55.173" viewBox="0 0 176 41.38"><defs><clipPath id="a"><path d="M133 10h43v31.379h-43Zm0 0"/></clipPath></defs><path d="M11.887 29.496c.015-1.371-.34-2.637-1.203-3.726-1.27-1.606-3.465-1.657-4.817-.133-1.804 2.039-1.765 5.629.113 7.59 1.305 1.363 2.942 1.457 4.364.113 1.097-1.04 1.527-2.363 1.543-3.844M0 29.344c.074-.383.164-.762.219-1.145.355-2.488 1.351-4.629 3.398-6.18 2.172-1.648 5.36-1.581 7.363-.14.165.117.336.215.504.324.496-.11.895-.312 1.246-.691.864-.926 2.31-.88 3.297.101v15.485c-.574.785-1.336.886-2.207.773-1.004-.133-1.297-.894-1.55-1.797-.27.188-.454.301-.622.434-1.289 1.027-2.703 1.597-4.398 1.574-1.543-.023-2.852-.559-3.98-1.512C1.367 34.97.434 32.852.195 30.402c-.03-.3-.129-.593-.195-.89z" style="stroke:none;fill-rule:nonzero;fill:#40ba45;fill-opacity:1"/><path d="M40.473 29.57c0 1.203.418 2.442 1.226 3.387 1.278 1.496 3.207 1.54 4.555.11 1.758-1.872 1.797-5.5.074-7.395-1.41-1.555-3.406-1.492-4.719.144-.816 1.024-1.156 2.204-1.136 3.754m6.96-7.449c.34-.246.708-.457.997-.746 1.004-.996 2.617-.91 3.578.309v1.183c.008 3.106.008 6.211.02 9.317.003 1.28.042 2.562.05 3.843.004 1.153-.426 1.696-1.441 1.871-1.25.215-2.075-.218-2.442-1.285-.047-.133-.105-.261-.187-.457-.164.102-.309.168-.422.27-2.918 2.57-6.922 2.203-9.504-.742-2.96-3.38-2.953-9.235.008-12.618 2.523-2.878 6.215-3.16 8.902-1.218.094.066.196.12.442.273M113.79 27.809c-.087-1.985-1.567-3.422-3.466-3.407-1.87.012-3.336 1.453-3.379 3.407zm-6.728 2.953c-.039 1.558 1.415 3.273 3.297 3.398a6.7 6.7 0 0 0 3.164-.562c.625-.274 1.223-.614 1.832-.918 1.043-.52 2.72.406 2.762 1.57.016.332-.144.727-.347 1.008-.805 1.125-1.934 1.824-3.23 2.265-1.173.399-2.38.54-3.61.598-.953.047-1.875-.031-2.782-.316-2.27-.715-3.882-2.2-4.964-4.293-1.84-3.559-1.172-8.14 1.586-10.938 3.535-3.59 9.113-3.125 12.03.992 1.102 1.555 1.665 3.29 1.77 5.18.059 1-.558 1.762-1.554 1.926-.332.055-.68.05-1.024.05-2.676.005-5.351 0-8.031.005-.3 0-.606.023-.898.035M69.918 36.652c-.86 1.297-2.156 1.727-3.453 1.184-.742-.316-1.164-.836-1.156-1.707.023-2.902.007-5.809.007-8.715 0-1.418-.601-2.406-1.73-2.863-1.234-.5-2.844-.168-3.715.773-.512.555-.672 1.223-.668 1.969.012 2.531.004 5.066.004 7.602v1.109c-.004 1.043-.426 1.64-1.414 1.957a3 3 0 0 1-1.852 0c-.902-.29-1.34-.89-1.34-1.844a8072 8072 0 0 1 0-13.754c0-.793.294-1.191 1.036-1.484 1.32-.524 2.648-.215 3.617.812.98-.328 1.926-.734 2.914-.957 1.316-.293 2.656-.277 3.957.196 2.215.808 3.785 3.023 3.79 5.383.007 3.445.003 6.89.003 10.34M130.492 24.793c-.351-.133-.668-.234-.972-.367-1.157-.52-2.344-.914-3.63-.735-.433.063-.898.22-1.25.47-.757.546-.796 1.628-.066 2.21.48.383 1.063.652 1.63.91.956.434 1.948.79 2.901 1.235a4.4 4.4 0 0 1 1.938 1.75c1.27 2.129.574 5.12-1.516 6.504-.847.562-1.789.863-2.785 1.015-1.805.278-3.578.145-5.293-.504-1.219-.457-1.449-.785-1.453-2.093 0-.575-.148-1.2.395-1.774.312.137.648.266.964.426 1.235.62 2.497 1.144 3.915.988.445-.05.91-.148 1.304-.344 1.07-.523 1.266-1.855.352-2.609-.496-.402-1.121-.656-1.711-.934-.95-.449-1.953-.796-2.871-1.3-2.852-1.559-2.824-5.153-1.278-7.008.645-.77 1.47-1.266 2.403-1.563 2.02-.648 4.043-.578 6.035.121 1.121.395 1.27.633 1.281 1.817.004.555.125 1.137-.293 1.785M78.316 20.652c.243.047.52.098.793.153.696.144 1.278.484 1.676 1.082.606.914.406 1.949-.543 2.504-.406.234-.898.328-1.355.468-.188.055-.387.059-.653.098-.015.352-.046.688-.05 1.02-.008 3.273-.008 6.55-.016 9.824-.004 1.054-.414 1.625-1.422 1.949-.613.195-1.23.2-1.844-.008-.91-.308-1.34-.883-1.34-1.844 0-3.3.008-6.605.012-9.906v-.965c-.875-.156-1.761-.207-2.242-.988a2.3 2.3 0 0 1-.34-1.195c.02-1.203.836-1.918 2.559-2.301.023-.238.07-.508.074-.777.012-.883.023-1.766 0-2.649-.02-.597.262-.976.766-1.215.98-.46 1.98-.472 2.972-.027.598.27.91.707.887 1.41-.035 1.078-.004 2.16.004 3.242 0 .024.023.051.062.125M95.895 14.266c1.02-1.223 2.968-1.446 4.093-.559.309.242.508.535.496.945-.004.227 0 .457 0 .684q-.006 10.214-.02 20.422c-.003 1.262-.476 1.863-1.69 2.187-.669.18-1.305.098-1.91-.199-.637-.312-1.005-.785-.997-1.547.028-2.164.016-4.328.02-6.492.004-4.844.004-9.687.008-14.527zM88.738 14.168c1.133-1.488 3.492-1.473 4.598.016v1.812l-.012 19.652c-.004 1.137-.394 1.72-1.39 2.075-1.075.379-2.301.101-2.91-.641-.297-.36-.305-.773-.305-1.207l.011-11.535c.004-3.074.004-6.152.008-9.227z" style="stroke:none;fill-rule:nonzero;fill:#246931;fill-opacity:1"/><path d="M30.547 26.71v8.97c-.004 1.418-.719 2.16-2.145 2.168a3.8 3.8 0 0 1-1.32-.23c-.617-.223-.918-.704-.918-1.391.012-4.786.008-9.57.012-14.356 0-.14.031-.281.043-.387.789-1.039 2.836-1 3.66-.496.406.25.527.414.777 1.215.164-.137.305-.258.442-.383a4.36 4.36 0 0 1 2.867-1.156c.937-.027 1.527.453 1.687 1.36.153.851-.004 1.644-.644 2.285-.696.691-1.516 1.199-2.418 1.57-.653.273-1.309.535-2.043.832" style="stroke:none;fill-rule:nonzero;fill:#40ba45;fill-opacity:1"/><path d="M86.504 21.445v15.02c-.762 1.222-2.035 1.676-3.324 1.195-.778-.289-1.27-1.004-1.266-1.738.035-4.613.027-9.23.008-13.844-.004-.703.289-1.125.883-1.41 1.222-.59 2.863-.273 3.699.777" style="stroke:none;fill-rule:nonzero;fill:#246931;fill-opacity:1"/><path d="M19.055 21.68c1.047-1.29 3.117-1.332 4.355-.051v.836c0 4.469 0 8.933-.004 13.402 0 1.395-1.234 2.387-2.625 2.086-.707-.152-1.37-.414-1.726-1.254z" style="stroke:none;fill-rule:nonzero;fill:#40ba45;fill-opacity:1"/><path d="M84.184 13.629c1.406.012 2.507 1.062 2.5 2.375-.012 1.289-1.16 2.344-2.551 2.336-1.371-.004-2.508-1.09-2.504-2.39.008-1.29 1.156-2.337 2.555-2.321" style="stroke:none;fill-rule:nonzero;fill:#246931;fill-opacity:1"/><path d="M18.723 16.227c.082-1.047.566-1.778 1.52-2.098 1.706-.578 3.437.45 3.323 2.203-.07 1.047-.878 1.93-1.93 2.04-1.566.16-2.757-.47-2.913-2.145" style="stroke:none;fill-rule:nonzero;fill:#40ba45;fill-opacity:1"/><g clip-path="url(#a)"><path d="M168.082 11.328c-2.27 1.102-4.594 2.086-6.309 4.008a.4.4 0 0 1 .032.05l.554-.28c1.946-.989 3.934-1.868 6.036-2.477 1.671-.484 3.37-.79 5.125-.656.82.062 1.617.234 2.375.558.039.02.074.043.105.11-.105-.004-.215-.012-.32-.016-2.13-.102-4.196.164-6.149 1.09-1.797.851-3.199 2.152-4.308 3.785-.543.797-.989 1.645-1.387 2.523-.559 1.235-1.25 2.399-1.988 3.536a33.4 33.4 0 0 1-4.54 5.535c-2.343 2.312-4.968 4.265-7.796 5.937-2.73 1.617-5.594 2.946-8.555 4.07a74 74 0 0 1-6.36 2.07c-.257.071-.523.142-.78.208-.012.004-.028-.012-.067-.031.059-.035.102-.067.148-.086 3.184-1.301 5.93-3.254 8.399-5.621 2.418-2.309 4.508-4.899 6.398-7.641 1.907-2.758 3.739-5.566 5.614-8.344 1.296-1.926 2.636-3.824 4.238-5.52 1.058-1.12 2.215-2.124 3.625-2.8 1.93-.926 3.867-.883 5.82-.078.028.012.043.035.09.07" style="stroke:none;fill-rule:nonzero;fill:#246931;fill-opacity:1"/></g><path d="M148.336 27.145c-.059-.254-.09-.461-.149-.66-.28-.95-.792-1.778-1.351-2.583-1.094-1.566-2.336-3.015-3.66-4.386a1131 1131 0 0 0-7.735-7.868c-1.836-1.851-3.187-4.003-4.16-6.41-.656-1.625-1.133-3.304-1.511-5.011a1.3 1.3 0 0 1-.032-.18c0-.008.02-.02.04-.047.163.25.316.496.488.734 1.03 1.43 2.367 2.536 3.82 3.516 1.734 1.168 3.598 2.113 5.469 3.047 2.082 1.043 4.191 2.039 6.187 3.246 1.305.789 2.543 1.668 3.606 2.773 1.172 1.22 1.988 2.625 2.226 4.325.168 1.152.051 2.293-.242 3.418-.441 1.691-1.203 3.242-2.105 4.73-.235.379-.477.754-.715 1.129-.043.066-.098.125-.176.227" style="stroke:none;fill-rule:nonzero;fill:#f68615;fill-opacity:1"/></svg>