<svg xmlns="http://www.w3.org/2000/svg" width="176pt" height="57.667" viewBox="0 0 176 43.25"><defs><clipPath id="a"><path d="M0 0h44v43.25H0Zm0 0"/></clipPath></defs><g clip-path="url(#a)"><path d="M41.91 23.25c-.894-.46-1.652-.312-2.347.016a48 48 0 0 0-3.192 1.703c-2.379 1.367-4.703 2.84-7.133 4.113-1.097.574-2.367.941-3.593 1.11-2.625.363-3.73-1.118-2.793-3.579.27-.715.652-1.394.914-2.113.363-1.008-.055-1.527-1.09-1.277-1.063.257-2.086.683-3.125 1.03-1.77.59-3.512 1.302-5.317 1.735-4.25 1.016-8.171.172-11.718-2.39-.301-.215-.594-.434-1.121-.82.128 1.261-.208 2.288.945 2.98 4.265 2.574 8.695 3.273 13.375 1.258 1.613-.696 3.176-1.504 4.777-2.235.723-.332 1.43-.8 2.504-.605-.101.465-.144.875-.285 1.246-.234.613-.578 1.187-.793 1.808-.703 2.02.422 3.836 2.555 4.032.859.074 1.757-.008 2.617-.168 2.957-.547 5.617-1.867 8.215-3.317 2-1.117 3.93-2.406 6.437-2.332zM30.688 39.625c-.708-.184-1.18-.312-1.653-.43-1.441-.351-2.922-.59-4.312-1.078a19.4 19.4 0 0 1-3.836-1.844c-1.489-.937-2.18-2.43-2.223-4.195-.016-.535-.004-1.07-.004-1.61-1.133 1.532-1.984 3.169-2.953 4.731-1.016 1.637-2.613 2.727-4.164 3.875 5.148 3.61 14.18 3.692 19.145.551m11.085-20.77c0-.316.024-.484-.003-.64-1.989-10.711-11.508-16.93-20.36-16.8-8.504.124-16.8 5.983-19.305 14.593-.218.754-.148 1.347.192 2.027 2.035 4.055 5.297 6.18 9.824 6.399 3.063.152 6.012-.395 8.914-1.329.719-.23 1.496-.39 2.246-.402.848-.008 1.293.606 1.149 1.434-.082.484-.274.949-.442 1.414-.203.566-.488 1.113-.633 1.695-.312 1.277.239 1.906 1.547 1.793.489-.043 1.004-.14 1.43-.36 1.07-.542 2.16-1.09 3.133-1.784 2.328-1.66 4.578-3.426 6.887-5.11 1.64-1.195 3.308-2.367 5.421-2.93m-22.632 8.536c-.813 1.023-1.567 2.101-2.45 3.066-1.992 2.176-4.492 3.496-7.367 4.105-.886.188-1.781.313-2.71.473.824 1.582 1.995 2.145 3.585 1.543 1.07-.406 2.164-.812 3.137-1.41 1.66-1.016 2.937-2.465 4.05-4.059.427-.613.907-1.195 1.555-2.047.051.61.09.86.086 1.11-.027 2.969 1.094 4.594 3.887 5.59 1.57.558 3.195.777 4.856.789 1.98.015 3.988-.114 5.93.176 1.597.234 2.3-.516 3.07-1.676-.993-.348-1.883-.414-2.836-.328-2.243.207-4.493.425-6.739.418-1.465-.004-2.957-.29-4.382-.649-1.508-.379-2.735-1.285-3.047-2.922-.262-1.363-.196-2.746.734-3.922-.062.434-.152.868-.184 1.305-.199 2.469.758 3.813 3.188 4.445 1.574.41 3.156.274 4.746.051 3.742-.535 7.313-2.035 11.21-1.883.36-.718.696-1.39 1.09-2.183-.48-.078-.808-.219-1.097-.16-1.129.222-2.262.445-3.36.777-2.156.652-4.277 1.414-6.437 2.055-1.754.52-3.57.71-5.39.476-2.73-.351-3.848-2.078-3.059-4.672.238-.785.64-1.515.941-2.28.102-.267.118-.567.243-1.216-1.036.614-1.793 1.024-2.504 1.5-.918.61-1.785 1.285-2.692 1.91-3.55 2.438-7.449 3.098-11.644 2.293-.77-.148-1.551-.226-2.621-.378.441.824.66 1.394 1.02 1.851.245.313.675.633 1.05.672 3.332.363 6.625.3 9.57-1.578 1.575-1.004 3.047-2.156 4.57-3.242m2.535 15.859C9.98 43.086 0 34.195 0 21.637 0 9.965 8.89.527 21.746 0c13.172.64 21.66 10.516 21.586 21.79-.078 12.222-9.879 21.304-21.656 21.46" style="stroke:none;fill-rule:nonzero;fill:#d91e25;fill-opacity:1"/></g><path d="m23.727 17.902 1.894.914c-1.398.223-2.664.563-3.933.586-1.008.016-2.02-.359-3.028-.562l-.039-.363c.68-.309 1.36-.622 2.074-.946-.351-.816-1.082-1.05-1.824-1.261-1.058-.301-2.117-.602-3.176-.891-1.898-.524-3.336-1.602-4.297-3.352-.66-1.207-1.418-2.37-2.793-3.02 2.356-1.015 4.067-.234 5.547 1.548a46 46 0 0 0 3.145 3.386 10.7 10.7 0 0 0 4.277 2.61c.363-.485.711-.965 1.074-1.434 1.645-2.101 3.79-3.453 6.446-3.547 2.488-.09 4.793-.488 6.941-2.136.074 1.59-.527 2.578-1.789 3.336-2.992-1.649-5.336-.262-7.465 1.828-1.011.996-1.933 2.086-3.054 3.304M54.555 17.055c1.25.539 3.168 1.082 5.148 1.082 2.133 0 3.262-.746 3.262-1.88 0-1.081-.977-1.698-3.445-2.445-3.41-1.003-5.637-2.601-5.637-5.12 0-2.962 2.926-5.227 7.77-5.227 2.316 0 4.023.41 5.242.875l-1.036 3.164a11.3 11.3 0 0 0-4.296-.82c-2.012 0-2.985.77-2.985 1.671 0 1.106 1.156 1.594 3.809 2.446 3.625 1.133 5.332 2.726 5.332 5.172 0 2.91-2.653 5.379-8.29 5.379-2.347 0-4.66-.516-5.82-1.055zM75.516 3.746v17.348h-4.66V3.746zM94.621 20.605c-.851.36-2.773.747-5.273.747-7.098 0-10.754-3.73-10.754-8.672 0-5.922 4.996-9.215 11.21-9.215 2.41 0 4.239.41 5.06.773l-.946 3.114c-.941-.336-2.254-.645-3.898-.645-3.688 0-6.551 1.879-6.551 5.742 0 3.473 2.437 5.66 6.582 5.66 1.402 0 2.957-.257 3.867-.566zM102.328 3.746v6.668h7.649V3.746h4.632v17.348h-4.632v-7.258h-7.649v7.258h-4.664V3.746zM123.29 3.746v9.988c0 2.985 1.343 4.504 3.718 4.504 2.437 0 3.777-1.441 3.777-4.504V3.746h4.633v9.73c0 5.356-3.2 7.903-8.563 7.903-5.18 0-8.226-2.422-8.226-7.953v-9.68zM148.52 13.707l-1.282-3.68c-.367-1.027-.73-2.316-1.035-3.343h-.062c-.305 1.027-.61 2.34-.946 3.343l-1.218 3.68Zm-5.211 2.934-1.465 4.453h-4.813l6.278-17.348h6.093l6.368 17.348h-4.997l-1.585-4.453zM158.512 21.094V3.746h5.422l4.265 6.36a47 47 0 0 1 3.352 5.945h.094c-.305-2.29-.399-4.633-.399-7.235v-5.07h4.27v17.348h-4.88l-4.386-6.692c-1.219-1.851-2.559-4.09-3.566-6.125l-.09.028c.12 2.289.183 4.734.183 7.566v5.223zM64.398 35.23l-1.28-3.68c-.368-1.03-.731-2.316-1.036-3.347h-.062c-.305 1.031-.61 2.344-.946 3.348l-1.219 3.68Zm-5.21 2.934-1.465 4.453H52.91l6.278-17.347h6.093l6.367 17.347h-4.996l-1.586-4.453zM79.05 25.27v17.347h-4.66V25.27zM87.672 32.965H89.5c2.316 0 3.688-.977 3.688-2.496 0-1.598-1.278-2.395-3.41-2.418-1.13 0-1.77.074-2.106.125ZM83.07 25.5c1.496-.203 3.72-.36 6.188-.36 3.047 0 5.18.387 6.644 1.364 1.215.824 1.887 2.035 1.887 3.629 0 2.215-1.86 3.734-3.625 4.273v.078c1.43.489 2.223 1.649 2.742 3.243.64 1.957 1.278 4.222 1.676 4.89h-4.754c-.336-.488-.824-1.906-1.433-4.043-.547-2.16-1.43-2.754-3.32-2.777h-1.403v6.82H83.07zM101.14 25.27h4.66v14.054h8.169v3.293H101.14zM121.371 25.27v17.347h-4.664V25.27zM125.39 42.617V25.27h5.426l4.266 6.355a47 47 0 0 1 3.352 5.95h.09c-.305-2.294-.395-4.638-.395-7.235v-5.07h4.266v17.347h-4.875l-4.387-6.691c-1.223-1.856-2.563-4.094-3.567-6.125l-.09.023c.122 2.293.18 4.738.18 7.567v5.226zM158.633 35.281h-7.559v4.117h8.442v3.22h-13.102V25.27h12.676v3.218h-8.016v3.602h7.559zM162.836 38.574c1.25.543 3.168 1.082 5.148 1.082 2.133 0 3.262-.746 3.262-1.879 0-1.082-.973-1.699-3.441-2.445-3.414-1.004-5.64-2.598-5.64-5.121 0-2.961 2.929-5.227 7.773-5.227 2.316 0 4.023.414 5.238.875l-1.035 3.168c-.82-.336-2.286-.824-4.297-.824-2.008 0-2.985.774-2.985 1.672 0 1.11 1.157 1.598 3.809 2.445 3.625 1.133 5.332 2.73 5.332 5.176 0 2.906-2.652 5.379-8.29 5.379-2.343 0-4.66-.516-5.82-1.055z" style="stroke:none;fill-rule:nonzero;fill:#d91e25;fill-opacity:1"/></svg>