<?xml version="1.0" encoding="UTF-8"?>
<svg xmlns="http://www.w3.org/2000/svg" xmlns:xlink="http://www.w3.org/1999/xlink" width="176pt" height="43.25pt" viewBox="0 0 176 43.25" version="1.1">
<defs>
<clipPath id="clip1">
  <path d="M 0 0 L 44 0 L 44 43.25 L 0 43.25 Z M 0 0 "/>
</clipPath>
</defs>
<g id="surface1">
<g clip-path="url(#clip1)" clip-rule="nonzero">
<path style=" stroke:none;fill-rule:nonzero;fill:rgb(85.02655%,11.708069%,14.614868%);fill-opacity:1;" d="M 41.910156 23.25 C 41.015625 22.789062 40.257812 22.9375 39.5625 23.265625 C 38.476562 23.785156 37.417969 24.367188 36.371094 24.96875 C 33.992188 26.335938 31.667969 27.808594 29.238281 29.082031 C 28.140625 29.65625 26.871094 30.023438 25.644531 30.191406 C 23.019531 30.554688 21.914062 29.074219 22.851562 26.613281 C 23.121094 25.898438 23.503906 25.21875 23.765625 24.5 C 24.128906 23.492188 23.710938 22.972656 22.675781 23.222656 C 21.613281 23.480469 20.589844 23.90625 19.550781 24.253906 C 17.78125 24.84375 16.039062 25.554688 14.234375 25.988281 C 9.984375 27.003906 6.0625 26.160156 2.515625 23.597656 C 2.214844 23.382812 1.921875 23.164062 1.394531 22.777344 C 1.523438 24.039062 1.1875 25.066406 2.339844 25.757812 C 6.605469 28.332031 11.035156 29.03125 15.714844 27.015625 C 17.328125 26.320312 18.890625 25.511719 20.492188 24.78125 C 21.214844 24.449219 21.921875 23.980469 22.996094 24.175781 C 22.894531 24.640625 22.851562 25.050781 22.710938 25.421875 C 22.476562 26.035156 22.132812 26.609375 21.917969 27.230469 C 21.214844 29.25 22.339844 31.066406 24.472656 31.261719 C 25.332031 31.335938 26.230469 31.253906 27.089844 31.09375 C 30.046875 30.546875 32.707031 29.226562 35.304688 27.777344 C 37.304688 26.660156 39.234375 25.371094 41.742188 25.445312 C 41.804688 24.609375 41.859375 23.921875 41.910156 23.25 Z M 30.6875 39.625 C 29.980469 39.441406 29.507812 39.3125 29.035156 39.195312 C 27.59375 38.84375 26.113281 38.605469 24.722656 38.117188 C 23.390625 37.648438 22.082031 37.023438 20.886719 36.273438 C 19.398438 35.335938 18.707031 33.84375 18.664062 32.078125 C 18.648438 31.542969 18.660156 31.007812 18.660156 30.46875 C 17.527344 32 16.675781 33.636719 15.707031 35.199219 C 14.691406 36.835938 13.09375 37.925781 11.542969 39.074219 C 16.691406 42.683594 25.722656 42.765625 30.6875 39.625 Z M 41.773438 18.855469 C 41.773438 18.539062 41.796875 18.371094 41.769531 18.214844 C 39.78125 7.503906 30.261719 1.285156 21.410156 1.414062 C 12.90625 1.539062 4.609375 7.398438 2.105469 16.007812 C 1.886719 16.761719 1.957031 17.355469 2.296875 18.035156 C 4.332031 22.089844 7.59375 24.214844 12.121094 24.433594 C 15.183594 24.585938 18.132812 24.039062 21.035156 23.105469 C 21.753906 22.875 22.53125 22.714844 23.28125 22.703125 C 24.128906 22.695312 24.574219 23.308594 24.429688 24.136719 C 24.347656 24.621094 24.15625 25.085938 23.988281 25.550781 C 23.785156 26.117188 23.5 26.664062 23.355469 27.246094 C 23.042969 28.523438 23.59375 29.152344 24.902344 29.039062 C 25.390625 28.996094 25.90625 28.898438 26.332031 28.679688 C 27.402344 28.136719 28.492188 27.589844 29.464844 26.894531 C 31.792969 25.234375 34.042969 23.46875 36.351562 21.785156 C 37.992188 20.589844 39.660156 19.417969 41.773438 18.855469 Z M 19.140625 27.390625 C 18.328125 28.414062 17.574219 29.492188 16.691406 30.457031 C 14.699219 32.632812 12.199219 33.953125 9.324219 34.5625 C 8.4375 34.75 7.542969 34.875 6.613281 35.035156 C 7.4375 36.617188 8.609375 37.179688 10.199219 36.578125 C 11.269531 36.171875 12.363281 35.765625 13.335938 35.167969 C 14.996094 34.152344 16.273438 32.703125 17.386719 31.109375 C 17.8125 30.496094 18.292969 29.914062 18.941406 29.0625 C 18.992188 29.671875 19.03125 29.921875 19.027344 30.171875 C 19 33.140625 20.121094 34.765625 22.914062 35.761719 C 24.484375 36.320312 26.109375 36.539062 27.769531 36.550781 C 29.75 36.566406 31.757812 36.4375 33.699219 36.726562 C 35.296875 36.960938 36 36.210938 36.769531 35.050781 C 35.777344 34.703125 34.886719 34.636719 33.933594 34.722656 C 31.691406 34.929688 29.441406 35.148438 27.195312 35.140625 C 25.730469 35.136719 24.238281 34.851562 22.8125 34.492188 C 21.304688 34.113281 20.078125 33.207031 19.765625 31.570312 C 19.503906 30.207031 19.570312 28.824219 20.5 27.648438 C 20.4375 28.082031 20.347656 28.515625 20.316406 28.953125 C 20.117188 31.421875 21.074219 32.765625 23.503906 33.398438 C 25.078125 33.808594 26.660156 33.671875 28.25 33.449219 C 31.992188 32.914062 35.5625 31.414062 39.460938 31.566406 C 39.820312 30.847656 40.15625 30.175781 40.550781 29.382812 C 40.070312 29.304688 39.742188 29.164062 39.453125 29.222656 C 38.324219 29.445312 37.191406 29.667969 36.09375 30 C 33.9375 30.652344 31.816406 31.414062 29.65625 32.054688 C 27.902344 32.574219 26.085938 32.765625 24.265625 32.53125 C 21.535156 32.179688 20.417969 30.453125 21.207031 27.859375 C 21.445312 27.074219 21.847656 26.34375 22.148438 25.578125 C 22.25 25.3125 22.265625 25.011719 22.390625 24.363281 C 21.355469 24.976562 20.597656 25.386719 19.886719 25.863281 C 18.96875 26.472656 18.101562 27.148438 17.195312 27.773438 C 13.644531 30.210938 9.746094 30.871094 5.550781 30.066406 C 4.78125 29.917969 4 29.839844 2.929688 29.6875 C 3.371094 30.511719 3.589844 31.082031 3.949219 31.539062 C 4.195312 31.851562 4.625 32.171875 5 32.210938 C 8.332031 32.574219 11.625 32.511719 14.570312 30.632812 C 16.144531 29.628906 17.617188 28.476562 19.140625 27.390625 Z M 21.675781 43.25 C 9.980469 43.085938 0 34.195312 0 21.636719 C 0 9.964844 8.890625 0.527344 21.746094 0 C 34.917969 0.640625 43.40625 10.515625 43.332031 21.789062 C 43.253906 34.011719 33.453125 43.09375 21.675781 43.25 "/>
</g>
<path style=" stroke:none;fill-rule:nonzero;fill:rgb(85.02655%,11.708069%,14.614868%);fill-opacity:1;" d="M 23.726562 17.902344 C 24.457031 18.253906 24.984375 18.507812 25.621094 18.816406 C 24.222656 19.039062 22.957031 19.378906 21.6875 19.402344 C 20.679688 19.417969 19.667969 19.042969 18.660156 18.839844 C 18.648438 18.71875 18.632812 18.597656 18.621094 18.476562 C 19.300781 18.167969 19.980469 17.855469 20.695312 17.53125 C 20.34375 16.714844 19.613281 16.480469 18.871094 16.269531 C 17.8125 15.96875 16.753906 15.667969 15.695312 15.378906 C 13.796875 14.855469 12.359375 13.777344 11.398438 12.027344 C 10.738281 10.820312 9.980469 9.65625 8.605469 9.007812 C 10.960938 7.992188 12.671875 8.773438 14.152344 10.554688 C 15.136719 11.738281 16.199219 12.863281 17.296875 13.941406 C 18.480469 15.109375 19.867188 15.992188 21.574219 16.550781 C 21.9375 16.066406 22.285156 15.585938 22.648438 15.117188 C 24.292969 13.015625 26.4375 11.664062 29.09375 11.570312 C 31.582031 11.480469 33.886719 11.082031 36.035156 9.433594 C 36.109375 11.023438 35.507812 12.011719 34.246094 12.769531 C 31.253906 11.121094 28.910156 12.507812 26.78125 14.597656 C 25.769531 15.59375 24.847656 16.683594 23.726562 17.902344 "/>
<path style=" stroke:none;fill-rule:nonzero;fill:rgb(85.02655%,11.708069%,14.614868%);fill-opacity:1;" d="M 54.554688 17.054688 C 55.804688 17.59375 57.722656 18.136719 59.703125 18.136719 C 61.835938 18.136719 62.964844 17.390625 62.964844 16.257812 C 62.964844 15.175781 61.988281 14.558594 59.519531 13.8125 C 56.109375 12.808594 53.882812 11.210938 53.882812 8.691406 C 53.882812 5.730469 56.808594 3.464844 61.652344 3.464844 C 63.96875 3.464844 65.675781 3.875 66.894531 4.339844 L 65.859375 7.503906 C 65.035156 7.171875 63.574219 6.683594 61.5625 6.683594 C 59.550781 6.683594 58.578125 7.453125 58.578125 8.355469 C 58.578125 9.460938 59.734375 9.949219 62.386719 10.800781 C 66.011719 11.933594 67.71875 13.527344 67.71875 15.972656 C 67.71875 18.882812 65.066406 21.351562 59.429688 21.351562 C 57.082031 21.351562 54.769531 20.835938 53.609375 20.296875 L 54.554688 17.054688 "/>
<path style=" stroke:none;fill-rule:nonzero;fill:rgb(85.02655%,11.708069%,14.614868%);fill-opacity:1;" d="M 75.515625 3.746094 L 75.515625 21.09375 L 70.855469 21.09375 L 70.855469 3.746094 L 75.515625 3.746094 "/>
<path style=" stroke:none;fill-rule:nonzero;fill:rgb(85.02655%,11.708069%,14.614868%);fill-opacity:1;" d="M 94.621094 20.605469 C 93.769531 20.964844 91.847656 21.351562 89.347656 21.351562 C 82.25 21.351562 78.59375 17.621094 78.59375 12.679688 C 78.59375 6.757812 83.589844 3.464844 89.804688 3.464844 C 92.214844 3.464844 94.042969 3.875 94.863281 4.238281 L 93.917969 7.351562 C 92.976562 7.015625 91.664062 6.707031 90.019531 6.707031 C 86.332031 6.707031 83.46875 8.585938 83.46875 12.449219 C 83.46875 15.921875 85.90625 18.109375 90.050781 18.109375 C 91.453125 18.109375 93.007812 17.851562 93.917969 17.542969 L 94.621094 20.605469 "/>
<path style=" stroke:none;fill-rule:nonzero;fill:rgb(85.02655%,11.708069%,14.614868%);fill-opacity:1;" d="M 102.328125 3.746094 L 102.328125 10.414062 L 109.976562 10.414062 L 109.976562 3.746094 L 114.609375 3.746094 L 114.609375 21.09375 L 109.976562 21.09375 L 109.976562 13.835938 L 102.328125 13.835938 L 102.328125 21.09375 L 97.664062 21.09375 L 97.664062 3.746094 L 102.328125 3.746094 "/>
<path style=" stroke:none;fill-rule:nonzero;fill:rgb(85.02655%,11.708069%,14.614868%);fill-opacity:1;" d="M 123.289062 3.746094 L 123.289062 13.734375 C 123.289062 16.71875 124.632812 18.238281 127.007812 18.238281 C 129.445312 18.238281 130.785156 16.796875 130.785156 13.734375 L 130.785156 3.746094 L 135.417969 3.746094 L 135.417969 13.476562 C 135.417969 18.832031 132.21875 21.378906 126.855469 21.378906 C 121.675781 21.378906 118.628906 18.957031 118.628906 13.425781 L 118.628906 3.746094 L 123.289062 3.746094 "/>
<path style=" stroke:none;fill-rule:nonzero;fill:rgb(85.02655%,11.708069%,14.614868%);fill-opacity:1;" d="M 148.519531 13.707031 L 147.238281 10.027344 C 146.871094 9 146.507812 7.710938 146.203125 6.683594 L 146.140625 6.683594 C 145.835938 7.710938 145.53125 9.023438 145.195312 10.027344 L 143.976562 13.707031 Z M 143.308594 16.640625 L 141.84375 21.09375 L 137.03125 21.09375 L 143.308594 3.746094 L 149.402344 3.746094 L 155.769531 21.09375 L 150.773438 21.09375 L 149.1875 16.640625 L 143.308594 16.640625 "/>
<path style=" stroke:none;fill-rule:nonzero;fill:rgb(85.02655%,11.708069%,14.614868%);fill-opacity:1;" d="M 158.511719 21.09375 L 158.511719 3.746094 L 163.933594 3.746094 L 168.199219 10.105469 C 169.417969 11.933594 170.636719 14.09375 171.550781 16.050781 L 171.644531 16.050781 C 171.339844 13.761719 171.246094 11.417969 171.246094 8.816406 L 171.246094 3.746094 L 175.515625 3.746094 L 175.515625 21.09375 L 170.636719 21.09375 L 166.25 14.402344 C 165.03125 12.550781 163.691406 10.3125 162.683594 8.277344 L 162.59375 8.304688 C 162.714844 10.59375 162.777344 13.039062 162.777344 15.871094 L 162.777344 21.09375 L 158.511719 21.09375 "/>
<path style=" stroke:none;fill-rule:nonzero;fill:rgb(85.02655%,11.708069%,14.614868%);fill-opacity:1;" d="M 64.398438 35.230469 L 63.117188 31.550781 C 62.75 30.519531 62.386719 29.234375 62.082031 28.203125 L 62.019531 28.203125 C 61.714844 29.234375 61.410156 30.546875 61.074219 31.550781 L 59.855469 35.230469 Z M 59.1875 38.164062 L 57.722656 42.617188 L 52.910156 42.617188 L 59.1875 25.269531 L 65.28125 25.269531 L 71.648438 42.617188 L 66.652344 42.617188 L 65.066406 38.164062 L 59.1875 38.164062 "/>
<path style=" stroke:none;fill-rule:nonzero;fill:rgb(85.02655%,11.708069%,14.614868%);fill-opacity:1;" d="M 79.050781 25.269531 L 79.050781 42.617188 L 74.390625 42.617188 L 74.390625 25.269531 L 79.050781 25.269531 "/>
<path style=" stroke:none;fill-rule:nonzero;fill:rgb(85.02655%,11.708069%,14.614868%);fill-opacity:1;" d="M 87.671875 32.964844 L 89.5 32.964844 C 91.816406 32.964844 93.1875 31.988281 93.1875 30.46875 C 93.1875 28.871094 91.910156 28.074219 89.777344 28.050781 C 88.648438 28.050781 88.007812 28.125 87.671875 28.175781 Z M 83.070312 25.5 C 84.566406 25.296875 86.789062 25.140625 89.257812 25.140625 C 92.304688 25.140625 94.4375 25.527344 95.902344 26.503906 C 97.117188 27.328125 97.789062 28.539062 97.789062 30.132812 C 97.789062 32.347656 95.929688 33.867188 94.164062 34.40625 L 94.164062 34.484375 C 95.59375 34.972656 96.386719 36.132812 96.90625 37.726562 C 97.546875 39.683594 98.183594 41.949219 98.582031 42.617188 L 93.828125 42.617188 C 93.492188 42.128906 93.003906 40.710938 92.394531 38.574219 C 91.847656 36.414062 90.964844 35.820312 89.074219 35.796875 L 87.671875 35.796875 L 87.671875 42.617188 L 83.070312 42.617188 L 83.070312 25.5 "/>
<path style=" stroke:none;fill-rule:nonzero;fill:rgb(85.02655%,11.708069%,14.614868%);fill-opacity:1;" d="M 101.140625 25.269531 L 105.800781 25.269531 L 105.800781 39.324219 L 113.96875 39.324219 L 113.96875 42.617188 L 101.140625 42.617188 L 101.140625 25.269531 "/>
<path style=" stroke:none;fill-rule:nonzero;fill:rgb(85.02655%,11.708069%,14.614868%);fill-opacity:1;" d="M 121.371094 25.269531 L 121.371094 42.617188 L 116.707031 42.617188 L 116.707031 25.269531 L 121.371094 25.269531 "/>
<path style=" stroke:none;fill-rule:nonzero;fill:rgb(85.02655%,11.708069%,14.614868%);fill-opacity:1;" d="M 125.390625 42.617188 L 125.390625 25.269531 L 130.816406 25.269531 L 135.082031 31.625 C 136.300781 33.453125 137.519531 35.617188 138.433594 37.574219 L 138.523438 37.574219 C 138.21875 35.28125 138.128906 32.9375 138.128906 30.339844 L 138.128906 25.269531 L 142.394531 25.269531 L 142.394531 42.617188 L 137.519531 42.617188 L 133.132812 35.925781 C 131.910156 34.070312 130.570312 31.832031 129.566406 29.800781 L 129.476562 29.824219 C 129.597656 32.117188 129.65625 34.5625 129.65625 37.390625 L 129.65625 42.617188 L 125.390625 42.617188 "/>
<path style=" stroke:none;fill-rule:nonzero;fill:rgb(85.02655%,11.708069%,14.614868%);fill-opacity:1;" d="M 158.632812 35.28125 L 151.074219 35.28125 L 151.074219 39.398438 L 159.515625 39.398438 L 159.515625 42.617188 L 146.414062 42.617188 L 146.414062 25.269531 L 159.089844 25.269531 L 159.089844 28.488281 L 151.074219 28.488281 L 151.074219 32.089844 L 158.632812 32.089844 L 158.632812 35.28125 "/>
<path style=" stroke:none;fill-rule:nonzero;fill:rgb(85.02655%,11.708069%,14.614868%);fill-opacity:1;" d="M 162.835938 38.574219 C 164.085938 39.117188 166.003906 39.65625 167.984375 39.65625 C 170.117188 39.65625 171.246094 38.910156 171.246094 37.777344 C 171.246094 36.695312 170.273438 36.078125 167.804688 35.332031 C 164.390625 34.328125 162.164062 32.734375 162.164062 30.210938 C 162.164062 27.25 165.09375 24.984375 169.9375 24.984375 C 172.253906 24.984375 173.960938 25.398438 175.175781 25.859375 L 174.140625 29.027344 C 173.320312 28.691406 171.855469 28.203125 169.84375 28.203125 C 167.835938 28.203125 166.859375 28.976562 166.859375 29.875 C 166.859375 30.984375 168.015625 31.472656 170.667969 32.320312 C 174.292969 33.453125 176 35.050781 176 37.496094 C 176 40.402344 173.347656 42.875 167.710938 42.875 C 165.367188 42.875 163.050781 42.359375 161.890625 41.820312 L 162.835938 38.574219 "/>
</g>
</svg>
