<svg xmlns="http://www.w3.org/2000/svg" width="176pt" height="78.24" viewBox="0 0 176 58.68"><defs><clipPath id="a"><path d="M0 0h176v58.68H0Zm0 0"/></clipPath></defs><path d="M82.75 42.785V29.094l.32.488 10.18 13.203h9.063V15.887H93.25l-.004 13.695-.32-.488L82.75 15.887h-9.062v26.898zM17.492 15.887h28.63v7.336h-7.688l-1.856-.04v19.602h-9.543V23.184l-1.855.039h-7.688zM129.879 15.887h28.625v7.336h-7.688l-1.851-.04v19.602h-9.547V23.184l-1.856.039h-7.683z" style="stroke:none;fill-rule:nonzero;fill:#f2531b;fill-opacity:1"/><g clip-path="url(#a)"><path d="M144.191 51.832c13.465 0 24.387-10.066 24.387-22.496 0-12.426-10.922-22.492-24.387-22.492-13.468 0-24.386 10.066-24.386 22.492 0 12.43 10.918 22.496 24.386 22.496m-56.195 0c13.473 0 24.387-10.066 24.387-22.496 0-12.426-10.914-22.492-24.387-22.492-13.465 0-24.387 10.066-24.387 22.492.004 12.43 10.922 22.496 24.387 22.496m-56.187 0c13.464 0 24.382-10.066 24.382-22.496 0-12.426-10.918-22.492-24.382-22.492-13.47 0-24.387 10.066-24.387 22.492 0 12.43 10.918 22.496 24.387 22.496M176 29.336c0 16.207-14.242 29.344-31.809 29.344-12.18 0-22.754-6.325-28.093-15.602-5.348 9.277-15.918 15.602-28.102 15.602-12.18 0-22.75-6.32-28.094-15.602C54.56 52.355 43.988 58.68 31.81 58.68 14.239 58.68 0 45.543 0 29.336 0 13.133 14.238-.004 31.809-.004c12.18 0 22.75 6.32 28.093 15.602C65.246 6.32 75.816-.004 87.996-.004c12.184 0 22.754 6.32 28.102 15.602C121.438 6.32 132.012-.004 144.19-.004 161.758-.004 176 13.133 176 29.336" style="stroke:none;fill-rule:nonzero;fill:#f2531b;fill-opacity:1"/></g></svg>