<svg xmlns="http://www.w3.org/2000/svg" width="106.52" height="59pt" viewBox="0 0 79.89 59"><defs><clipPath id="a"><path d="M43 0h36.89v31H43Zm0 0"/></clipPath></defs><path d="M51.344 52.758h4.078c.121-1.36-.594-2.254-1.79-2.313-1.323-.066-2.304.907-2.288 2.313M53.012 59c-.047-.04-.086-.105-.14-.121-3.267-.918-3.61-5.004-2.263-7.191 1.235-2.008 3.598-2.106 4.977-1.543 1.266.515 1.98 1.73 1.836 3.14h-6.047c-.469 1.621.688 3.457 1.95 3.961.476.191 1.03.242 1.554.262a1.98 1.98 0 0 0 1.523-.64c.348-.38.641-.817 1.012-1.294.129.477-.098.79-.23 1.117-.465 1.153-1.403 1.801-2.47 2.309zM61.324 59c-.601-.277-1.199-.547-1.933-.156-.184-1.032-.067-1.98.074-2.977.11.27.21.535.32.797.43.992 1.149 1.637 2.23 1.824.876.153 1.669-.195 1.926-.824.278-.672-.004-1.41-.793-1.922-.527-.336-1.101-.605-1.648-.906-.387-.211-.785-.406-1.152-.64-.907-.59-1.262-1.407-1.028-2.423.223-.976.875-1.582 1.836-1.816.684-.164 1.375-.094 2.051.086.488.129.98.293 1.461-.332v2.914l-.133.059c-.137-.325-.258-.657-.41-.977-.488-1.035-1.355-1.535-2.43-1.395-.597.075-1.117.333-1.297.938-.183.61.102 1.137.606 1.465.55.36 1.156.629 1.738.933.5.266 1.028.485 1.496.797 1.66 1.102 1.551 3.172-.207 4.125-.27.145-.547.285-.82.43z" style="stroke:none;fill-rule:nonzero;fill:#dd2b29;fill-opacity:1"/><path d="M8.836 43.395h-.703C6.53 40.094 4.918 36.77 3.28 33.39c-.234.726-.27 7.867-.066 8.808.457.39.457.39 1.433.668v.5H0v-.664c.332-.035.645-.058.95-.101.773-.11 1.019-.383 1.07-1.176.007-.094.003-.188.003-.281q.019-4.108.032-8.215a6 6 0 0 0-.012-.567c-.066-.758-.328-1.058-1.074-1.215-.305-.062-.617-.09-.965-.14v-.613h4.832c1.46 3.082 2.926 6.175 4.457 9.41 1.547-3.22 3.023-6.301 4.52-9.418h4.18v.644c-1.63.418-1.63.418-1.63 2.117q.001 3.727.008 7.457c0 .286-.004.567.012.852.043.77.234 1 .96 1.18.208.05.419.086.68.14-.007.211-.02.383-.03.606h-5.716a11 11 0 0 1-.09-.446c.11-.062.184-.136.266-.148 1.188-.207 1.324-.348 1.328-1.512.012-2.488.004-4.972.004-7.457a.96.96 0 0 0-.195-.61c-1.57 3.368-3.145 6.735-4.754 10.185M55.559 43.395h-1.504c-.903-1.93-1.586-3.946-2.61-6.063-1.101 2.113-1.828 4.14-2.777 6.07H47.32c-.172-.554-.36-1.113-.523-1.68-.469-1.597-.918-3.202-1.387-4.8-.242-.813-.558-1.57-1.617-1.617v-.598h4.887l.082.535c-.426.047-.793.09-1.285.145.328 1.648.867 3.21 1.3 5.015.668-1.086 1.04-2.132 1.52-3.12.48-.985.926-1.989 1.387-2.993h.949c.875 1.961 1.754 3.926 2.715 6.074.527-1.754.996-3.304 1.484-4.93-.246-.046-.441-.09-.645-.12-.207-.032-.417-.051-.675-.083.02-.19.035-.335.05-.511h3.778c.015.144.023.238.035.343-.074.055-.14.153-.215.165-.808.109-1.148.656-1.37 1.37-.626 1.977-1.282 3.942-1.927 5.915-.086.265-.183.531-.304.883" style="stroke:none;fill-rule:nonzero;fill:#231f20;fill-opacity:1"/><path d="M9.145 53.805c-.81-1.832-1.54-3.496-2.301-5.227-.672.95-2.235 4.527-2.297 5.227zm5.23 4.894H9.152c.578-.37 1.313-.23 1.45-.969-.079-.855-.633-2.285-1.293-3.265H4.043c-.445 1.031-.898 2.086-1.3 3.008.234.922.91.898 1.484 1.07-.551.273-3.067.309-4.137.023 1.332-.21 1.77-1.16 2.195-2.097C3.801 53.12 5.31 49.766 6.82 46.418c.125-.273.274-.535.508-1 .23.473.383.766.516 1.066l4.136 9.403q.213.476.43.945c.402.86.922 1.59 2.02 1.656q-.024.105-.055.211" style="stroke:none;fill-rule:nonzero;fill:#dd2b29;fill-opacity:1"/><path d="M40.824 38.863c-1.11-.129-2.047.055-2.902.567-.668.402-.902 1.125-.64 1.777.288.715.964 1.078 1.75.898.671-.156 1.296-.43 1.792-.914zm.114 4.524c-.028-.52-.047-.953-.075-1.496-.258.152-.453.28-.66.39-.719.383-1.406.84-2.164 1.121-1.09.399-2.066.04-2.562-.8-.567-.95-.454-2.059.3-2.883.575-.621 1.313-.965 2.13-1.133.491-.106.991-.168 1.488-.23.464-.06.933-.098 1.457-.153.328-.695.226-1.348-.301-1.887-.559-.57-1.242-.89-2.047-.558-.34.14-.633.394-.945.601-.25.164-.489.34-.899.618 0-.395-.055-.614.012-.782.254-.644.742-1.078 1.351-1.383.809-.406 1.676-.542 2.563-.507 1.61.066 2.5.945 2.547 2.554.039 1.446.012 2.895.027 4.34.004.371.05.742.082 1.137l.875.508c-.015.152-.031.328-.054.543zM24.813 41.348V38.91c-1.086-.144-2.196.059-2.868.512-.672.457-.914 1.203-.601 1.89a1.423 1.423 0 0 0 1.734.782c.617-.188 1.195-.508 1.735-.746m-4.118-4.399c-.015-.355-.07-.535-.023-.683.203-.633.664-1.067 1.226-1.375 1.004-.547 2.09-.703 3.204-.54 1.25.192 1.992 1.044 2.027 2.348.043 1.508.016 3.02.035 4.528.008.398.09.796.129 1.148l.836.484c-.016.16-.031.305-.05.512H24.94c-.035-.5-.062-.957-.097-1.46-.668.401-1.278.784-1.903 1.132-.3.168-.625.305-.957.398-1.03.293-1.941 0-2.43-.754-.581-.89-.511-2.101.184-2.898.559-.64 1.29-1.012 2.102-1.18.8-.164 1.617-.242 2.426-.347.187-.028.37-.035.574-.047.406-.73.226-1.371-.285-1.906-.524-.555-1.192-.856-1.961-.57-.371.14-.688.421-1.028.64-.25.16-.496.324-.87.57M33.941 42.805v.566h-5.035l-.074-.387c.082-.086.117-.156.168-.168 1.195-.332 1.398-.554 1.41-1.746q.045-4.291.055-8.582c0-.37-.082-.738-.11-.957-.418-.648-1.007-.441-1.496-.633.004-.144.012-.293.02-.5 1.262-.18 2.492-.351 3.855-.546v10.732999999999999c0 .22-.004.442 0 .661.032 1.066.114 1.176 1.207 1.559" style="stroke:none;fill-rule:nonzero;fill:#231f20;fill-opacity:1"/><path d="M42.063 52.195c0 1.68-.016 3.348.007 5.012.012.848.258 1.098 1.078 1.27.11.023.215.054.317.175a20 20 0 0 1-4.164-.066c.152-.05.304-.106.457-.156.363-.117.586-.356.652-.73.043-.22.106-.434.106-.653.004-1.57.02-3.145-.024-4.715-.008-.414.024-.902-.469-1.25-.242-.02-.546-.043-1.093-.09 1.07-.57 2.027-.847 3.058-1.242.047.652.082 1.191.13 1.863.327-.297.55-.504.777-.707.527-.46 1.09-.847 1.796-.988 1.305-.262 2.332.348 2.641 1.637.125.511.164 1.054.172 1.586.027 1.257 0 2.515.016 3.777.011 1.18.125 1.316 1.382 1.691-.804.254-1.507.118-2.191.141a9.7 9.7 0 0 1-2.106-.121c.11-.05.22-.121.336-.149.73-.183.973-.335.98-1.046.028-1.758.032-3.52-.085-5.27-.074-1.05-.883-1.484-1.918-1.215-.723.188-1.293.625-1.855 1.246" style="stroke:none;fill-rule:nonzero;fill:#dd2b29;fill-opacity:1"/><path d="M61.387 42.672c.312-.805.414-5.84.183-7.11-.355-.582-1.047-.257-1.605-.558.129-.172.207-.387.328-.418 1.184-.29 2.371-.547 3.66-.832v8.809c.434.183.824.347 1.285.546-.105.114-.191.293-.281.297-1.57.012-3.14.004-4.71-.008-.067 0-.134-.109-.278-.234.531-.187 1.008-.352 1.418-.492" style="stroke:none;fill-rule:nonzero;fill:#231f20;fill-opacity:1"/><path d="M32.484 58.707h-4.277c.227-.133.305-.219.39-.227.657-.082.895-.523.97-1.101.027-.219.027-.441.027-.66q.002-4.343-.008-8.684c-.004-.5.023-1.015-.39-1.496-.301-.027-.653-.066-1.005-.102-.007-.046-.02-.097-.027-.148l2.887-1.14c.023.456.05.78.05 1.105q.005 4.864.004 9.723c0 .285-.003.566.004.851.036 1.246.2 1.45 1.375 1.879M25.3 58.691h-4.452c.21-.129.27-.187.343-.21.942-.305 1.051-.422 1.055-1.387.012-1.606.004-3.207-.004-4.813 0-.441.008-.894-.527-1.21-.227-.012-.535-.028-.844-.048.84-.574 1.785-.875 2.863-1.23.032.625.055 1.168.094 1.937.371-.44.621-.734.863-1.027.399-.48.88-.82 1.52-.844.465-.015.863.164 1.102.59.238.43.105.785-.22 1.059-.816.441-1.288-.383-2-.496-.769.547-1.316 1.215-1.312 2.23.008 1.07 0 2.14.004 3.207 0 .188.024.375.031.567.047.949.532 1.492 1.61 1.492zM19.832 58.703h-4.086c.016-.062.016-.156.043-.16 1.09-.309 1.184-.383 1.195-1.457.024-1.633 0-3.266-.011-4.898-.004-.41-.008-.829-.477-1.126h-.902c.531-.492 2.008-1.074 3-1.171v.914c0 2.043-.008 4.082.008 6.125.007 1.199.132 1.34 1.23 1.773M38.121 58.695h-4.266c.239-.133.301-.183.372-.207.851-.25 1.023-.43 1.05-1.304.028-1.008.016-2.016.012-3.02a92 92 0 0 0-.031-2.074c-.012-.383-.059-.762-.508-1.024-.238-.011-.547-.03-.852-.046.864-.551 1.801-.903 2.86-1.223.023.351.058.621.062.894.004 1.887 0 3.774.004 5.66 0 .317.008.63.043.942.098.848.207.96 1.063 1.187.078.02.148.07.222.11-.007.035-.02.07-.03.105M36.895 45.7c.105.843-.036 1.167-.551 1.331a.98.98 0 0 1-1.117-.46.86.86 0 0 1 .23-1.09c.402-.333.77-.286 1.438.218M18.777 46.156c-.132.559-.414.914-.968.903-.532-.008-.868-.305-.973-.86.035-.527.324-.847.86-.926.468-.066.75.168 1.081.883" style="stroke:none;fill-rule:nonzero;fill:#dd2b29;fill-opacity:1"/><g clip-path="url(#a)"><path d="M59.55 26.238q.015-.012.028-.023-.03-.02-.055-.04-.011.013-.02.024.025.017.048.04m4.157-6.07c-.121.039-.23.074-.316.168-.18.203-.266.441-.274.707-.015.773.012 1.547-.027 2.316-.024.453-.004.907-.004 1.36 0 .035-.023.086.047.09.062-.22.129-.438.187-.653.051-.176.09-.351.14-.523.06-.211.134-.414.192-.621q.123-.435.235-.875c.086-.356.21-.703.277-1.067a1.2 1.2 0 0 0-.047-.57.43.43 0 0 0-.3-.297c-.036-.008-.07-.023-.11-.035m-4.508 6.93a.03.03 0 0 0 .008-.02q-.27-.125-.539-.25c-.383-.168-.762-.336-1.145-.5q-.353-.15-.707-.3c-.226-.102-.453-.2-.675-.305a4 4 0 0 0-.653-.254.86.86 0 0 0-.578.035c-.281.121-.351.43-.176.64.125.149.27.254.453.313.172.059.344.105.532.117.21.016.426.067.636.098.118.02.235.031.352.05l.605.094c.114.02.235.028.348.043.172.032.344.082.516.098.234.02.465.063.695.105.106.02.219.024.328.036m4.778-1.977.039.016c.007-.012.023-.024.03-.035.169-.258.333-.512.5-.766.27-.406.544-.809.813-1.219.227-.347.446-.699.672-1.05.156-.243.254-.5.239-.797a.5.5 0 0 0-.102-.278.35.35 0 0 0-.344-.137.75.75 0 0 0-.355.188 1.4 1.4 0 0 0-.348.582c-.098.281-.187.563-.277.844-.121.367-.246.73-.364 1.097q-.221.699-.437 1.403c-.016.05-.043.101-.066.152m-5.258-3.8c.031.085.05.148.074.206.035.082.066.164.113.239.137.214.278.433.418.648.254.387.504.777.758 1.168q.288.452.582.898c.098.153.203.297.313.457.015-.03.027-.05.023-.062-.05-.148-.113-.293-.164-.441-.113-.344-.215-.692-.324-1.036q-.251-.79-.508-1.582-.1-.302-.215-.605c-.07-.211-.238-.352-.398-.488-.051-.04-.133-.047-.2-.055-.078-.008-.156-.004-.226-.004-.11.09-.207.172-.246.309zm11.937 7.019c-.043-.27-.222-.414-.453-.48-.27-.079-.547-.04-.82.011-.094.016-.184.035-.278.047-.171.031-.347.055-.52.082q-.163.025-.327.055-.233.045-.465.086c-.191.027-.387.047-.574.078-.266.043-.531.093-.797.136-.168.032-.336.055-.504.086a.17.17 0 0 0 .094.055c.199.016.398.024.597.04q.194.015.387.038c.262.031.524.07.785.098.18.023.364.031.547.043l.07.012c.122.015.243.043.364.054.191.02.386.028.582.043a1.842 1.842 0 0 0 .824-.008c.246-.066.445-.195.488-.476m-8.754-3.656v-.239q.001-.92-.004-1.836-.005-.9-.035-1.797c0-.109-.02-.222-.058-.328-.063-.168-.145-.336-.317-.449-.027-.008-.062-.027-.101-.039-.16-.035-.309-.016-.418.121a.8.8 0 0 0-.164.563c.015.164.035.332.09.496.125.394.218.797.332 1.195.062.234.144.469.207.703q.204.75.402 1.5c.008.031.035.059.066.11M59.5 26.16c-.059-.062-.094-.105-.14-.144-.13-.11-.262-.215-.391-.328-.211-.18-.418-.368-.63-.551q-.449-.386-.905-.766c-.254-.219-.508-.441-.766-.656a1.2 1.2 0 0 0-.59-.25.48.48 0 0 0-.484.207c-.106.203-.043.379.074.535.094.129.207.246.344.324.207.114.414.215.625.32.23.114.468.215.699.325.23.113.457.234.691.347q.674.321 1.352.637c.023.012.059 0 .121 0m5.953.266c.063-.024.094-.035.121-.047.285-.137.57-.277.856-.41q.551-.263 1.11-.52c.108-.054.218-.113.327-.164.309-.144.617-.281.922-.433.238-.118.453-.266.582-.516.113-.215.106-.402-.062-.54-.032-.026-.063-.054-.102-.089-.098-.012-.207-.043-.305-.031-.168.027-.336.07-.472.176q-.211.164-.41.335-.37.312-.73.622c-.114.097-.228.207-.345.304q-.461.397-.93.793c-.117.098-.242.188-.355.29-.066.062-.14.12-.207.23m4.785-.621q-.052-.03-.097-.059c-.23-.148-.489-.137-.723-.047-.445.164-.875.367-1.309.551-.273.121-.546.238-.82.36-.2.085-.394.175-.594.261-.28.129-.562.25-.847.379-.016.008-.032.02-.063.04.035.01.05.026.063.023.16-.02.312-.047.468-.07.094-.013.188-.016.278-.036q.327-.082.66-.105c.121-.008.238-.047.36-.067q.25-.04.503-.074c.137-.02.278-.04.414-.063.18-.027.36-.062.54-.078q.367-.03.718-.148c.152-.047.293-.129.406-.238a.48.48 0 0 0 .137-.485zM59.047 28.28c-.125-.097-.125-.093-.238-.105-.133-.012-.274-.012-.399-.051-.238-.07-.484-.078-.722-.125-.18-.035-.36-.059-.536-.086-.082-.016-.168-.012-.246-.035-.242-.078-.496-.078-.738-.129-.168-.035-.336-.055-.504-.078-.156-.024-.312-.055-.469-.063-.113-.007-.23.02-.347.032a.6.6 0 0 0-.43.25c-.066.086-.129.191-.078.312.031.074.07.149.129.207a.74.74 0 0 0 .531.23c.266-.003.531 0 .797-.027.316-.035.629-.093.945-.11a10 10 0 0 0 .754-.077c.074-.008.149-.028.223-.031q.322-.028.636-.043c.024-.004.051.003.07-.004.196-.063.395-.067.622-.067m3.469-1.43c-.801-.019-1.422.626-1.426 1.391a1.396 1.396 0 0 0 1.398 1.406 1.397 1.397 0 0 0 1.414-1.367c.024-.758-.617-1.453-1.386-1.43m2.425-1.175c.04-.024.086-.043.118-.07.175-.16.347-.325.523-.485.375-.351.758-.7 1.125-1.058.332-.32.695-.61 1-.958.219-.253.387-.53.25-.91-.066-.05-.144-.113-.23-.18-.098.012-.2.016-.297.04-.274.062-.446.265-.59.48-.25.367-.469.758-.703 1.137-.38.613-.766 1.223-1.145 1.836-.031.047-.035.11-.05.164-.047-.004-.079.012-.055.082q.033-.051.054-.078m-4.757-.074c.011.003.023.011.03.015-.007-.004-.019-.012-.03-.015a.3.3 0 0 1-.032-.036c.004-.054-.023-.09-.07-.109h-.035c-.024-.059-.035-.125-.067-.18-.07-.12-.148-.238-.222-.359q-.417-.669-.832-1.344c-.207-.336-.414-.668-.614-1.008a2.2 2.2 0 0 0-.44-.55.75.75 0 0 0-.337-.184c-.308-.07-.55.059-.558.414a.8.8 0 0 0 .168.473q.152.217.351.394.27.242.531.496c.368.34.73.676 1.094 1.02q.386.364.777.734c.04.04.094.067.141.098q.022.019.04.043c-.005.05.023.066.07.062zM79.887.105c-.082.09-.075.208-.102.31-.133.468-.254.937-.379 1.405-.117.442-.226.887-.344 1.328-.062.235-.128.473-.19.711l-.2.762-.2.746c-.066.254-.128.512-.195.766-.09.34-.175.68-.265 1.02l-.235.878q-.168.626-.332 1.258-.104.381-.203.762c-.078.293-.152.59-.23.883q-.224.878-.453 1.75c-.137.507-.278 1.015-.414 1.523-.07.273-.125.547-.196.82-.07.27-.156.54-.226.813-.106.398-.203.805-.309 1.203-.11.414-.23.824-.34 1.238-.117.434-.226.871-.34 1.305q-.127.502-.261 1.004l-.235.879q-.116.433-.226.867c-.153.582-.301 1.168-.457 1.75-.149.559-.305 1.117-.453 1.676-.102.394-.196.793-.297 1.191-.07.274-.149.543-.22.813-.108.41-.21.816-.32 1.222-.07.278-.152.555-.226.832l-.144.567h-28.52c.438-.11.86-.203 1.27-.328.453-.137.898-.305 1.343-.47q.328-.122.649-.269c.3-.14.601-.273.89-.433.418-.227.836-.461 1.239-.715.41-.262.816-.54 1.207-.828.297-.215.57-.461.855-.692.586-.476 1.121-1.007 1.649-1.55.27-.274.511-.57.746-.875.144-.184.3-.352.449-.528.2-.242.394-.488.594-.73.132-.164.273-.324.41-.489.21-.253.418-.511.629-.765q.293-.355.593-.711c.196-.234.383-.477.579-.715.144-.172.293-.34.437-.512.2-.242.395-.488.594-.73l.433-.516c.204-.246.403-.492.606-.738l.398-.477q.303-.374.606-.742c.14-.168.285-.336.422-.504.195-.234.386-.476.582-.715.144-.171.289-.34.433-.515.207-.25.41-.504.617-.754.258-.309.52-.617.778-.926.191-.23.375-.469.566-.7l.41-.491.633-.766q.296-.357.59-.707l.582-.715.41-.488q.41-.5.824-1c.2-.242.407-.477.606-.719.191-.234.375-.472.566-.703.196-.238.399-.469.594-.707.254-.309.508-.625.762-.934.195-.238.398-.468.594-.707s.386-.476.582-.714c.128-.16.265-.317.398-.477l.797-.973c.14-.168.285-.332.422-.504.203-.246.402-.492.61-.738.038-.05.089-.094.12-.125.29-.047.563-.09.836-.129.238-.031.48-.047.719-.082.207-.027.414-.066.625-.097.2-.028.398-.043.594-.075.34-.046.68-.066 1.011-.136.141-.028.286-.028.422-.043.211-.028.418-.063.63-.094q.19-.023.382-.05.317-.037.629-.079.211-.032.418-.062l.75-.106q.21-.022.422-.039z" style="stroke:none;fill-rule:nonzero;fill:#55be51;fill-opacity:1"/></g><path d="M62.516 26.852c.77-.024 1.41.671 1.386 1.43a1.397 1.397 0 0 1-1.414 1.366 1.396 1.396 0 0 1-1.398-1.406 1.39 1.39 0 0 1 1.426-1.39" style="stroke:none;fill-rule:nonzero;fill:#dc343b;fill-opacity:1"/><path d="M59.047 28.281c-.227 0-.426.004-.621.067-.02.007-.047 0-.07.004q-.316.015-.637.043c-.074.003-.149.023-.223.03q-.374.054-.754.079c-.316.016-.629.074-.945.11-.266.027-.531.023-.797.027a.74.74 0 0 1-.531-.23.6.6 0 0 1-.13-.208c-.05-.121.013-.226.079-.312a.6.6 0 0 1 .43-.25c.117-.012.234-.04.347-.032.157.008.313.04.47.063.167.023.335.043.503.078.242.05.496.05.738.129.078.023.164.02.246.035.176.027.356.05.535.086.239.047.485.055.723.125.125.04.266.04.399.05.113.012.113.009.238.106" style="stroke:none;fill-rule:nonzero;fill:#db363c;fill-opacity:1"/><path d="M70.238 25.805c.04.058.07.11.094.144a.48.48 0 0 1-.137.485c-.113.109-.254.191-.406.238a3 3 0 0 1-.719.148c-.18.016-.36.051-.539.078-.136.024-.277.043-.414.063q-.252.034-.504.074c-.12.02-.238.059-.36.067q-.331.023-.66.105c-.09.02-.183.023-.277.035-.156.024-.308.051-.468.07-.012.004-.028-.011-.063-.023.031-.02.047-.031.063-.039.285-.129.566-.25.847-.379.2-.086.395-.176.594-.262q.41-.179.82-.359c.434-.184.864-.387 1.309-.55.234-.09.492-.102.723.046q.045.03.097.059M65.453 26.426c.067-.11.14-.168.207-.23.113-.102.238-.192.356-.29q.466-.396.93-.793c.117-.097.23-.207.343-.304q.362-.31.73-.622.2-.17.41-.335c.137-.106.305-.149.473-.176.098-.012.207.02.305.031l.102.09c.168.137.175.324.062.539-.129.25-.344.398-.582.516-.305.152-.613.289-.922.433-.11.05-.219.11-.328.164q-.557.257-1.11.52c-.284.133-.57.273-.855.41z" style="stroke:none;fill-rule:nonzero;fill:#db353d;fill-opacity:1"/><path d="M60.04 25.46c-.048-.03-.102-.058-.142-.097l-.777-.734c-.363-.344-.726-.68-1.094-1.02a21 21 0 0 0-.53-.496 2.3 2.3 0 0 1-.352-.394.8.8 0 0 1-.168-.473c.007-.355.25-.484.558-.414a.75.75 0 0 1 .336.184c.18.156.32.347.441.55.2.34.407.672.614 1.008q.415.676.832 1.344c.074.121.152.238.222.36.032.054.043.12.067.179z" style="stroke:none;fill-rule:nonzero;fill:#db353c;fill-opacity:1"/><path d="M59.5 26.16c-.062 0-.098.012-.121 0q-.678-.315-1.352-.637c-.234-.113-.46-.234-.691-.347-.23-.11-.469-.211-.7-.324-.21-.106-.417-.207-.624-.32a1.1 1.1 0 0 1-.344-.325c-.117-.156-.18-.332-.074-.535a.48.48 0 0 1 .484-.207c.211.035.418.105.59.25.258.215.512.437.766.656q.455.38.906.766c.21.183.418.37.629.55.129.114.261.22.39.329.047.039.082.082.141.144" style="stroke:none;fill-rule:nonzero;fill:#db353d;fill-opacity:1"/><path d="M61.902 24.684c-.03-.051-.058-.079-.066-.11q-.199-.75-.402-1.5c-.063-.234-.145-.469-.207-.703-.114-.398-.207-.8-.332-1.195a2.2 2.2 0 0 1-.09-.496.8.8 0 0 1 .164-.563c.11-.137.258-.156.418-.12.039.01.074.03.101.038.172.113.254.281.317.45.039.105.058.218.058.328q.03.895.035 1.796.005.916.004 1.836zM64.941 25.672c.016-.055.02-.117.051-.164.38-.613.766-1.223 1.145-1.836.234-.379.453-.77.703-1.137.144-.215.316-.418.59-.48.097-.024.199-.028.297-.04.085.067.164.13.23.18.137.38-.031.657-.25.91-.305.348-.668.637-1 .957-.367.36-.75.708-1.125 1.06q-.262.241-.523.483c-.032.028-.079.047-.118.07z" style="stroke:none;fill-rule:nonzero;fill:#db353c;fill-opacity:1"/><path d="M70.656 28.34c-.043.281-.242.41-.488.476a1.8 1.8 0 0 1-.773.016.2.2 0 0 0-.051-.008c-.196-.015-.39-.023-.582-.043-.121-.011-.242-.039-.364-.054l-.07-.012c-.183-.012-.367-.02-.547-.043-.261-.027-.523-.067-.785-.098q-.194-.022-.387-.039c-.199-.015-.398-.023-.597-.039a.17.17 0 0 1-.094-.055c.168-.03.336-.054.504-.086.266-.043.531-.093.797-.136.187-.032.383-.051.574-.078q.233-.04.465-.086.165-.031.328-.055c.172-.027.348-.05.52-.082.093-.012.183-.031.277-.047.273-.05.55-.09.82-.012.23.067.41.211.453.48M58.719 21.32v-.347c.039-.137.136-.22.246-.309.07 0 .148-.004.226.004.067.008.149.016.2.055.16.136.328.277.398.488q.113.302.215.605.257.792.508 1.582c.11.344.21.692.324 1.036.05.148.113.293.164.441.004.012-.008.031-.023.063-.11-.16-.215-.305-.313-.458q-.293-.445-.582-.898c-.254-.39-.504-.781-.758-1.168-.14-.215-.281-.434-.418-.648-.047-.075-.078-.157-.113-.239-.023-.058-.043-.12-.074-.207M63.977 25.121c.023-.05.05-.101.066-.152q.216-.705.437-1.403c.118-.367.243-.73.364-1.097q.133-.423.277-.844a1.4 1.4 0 0 1 .348-.582.75.75 0 0 1 .355-.188.35.35 0 0 1 .344.137.5.5 0 0 1 .102.278c.015.296-.082.554-.239.796-.226.352-.445.704-.672 1.051-.27.41-.543.813-.812 1.219-.168.254-.332.508-.5.766-.008.011-.024.023-.031.035zM59.2 27.098c-.11-.012-.223-.016-.329-.035a7 7 0 0 0-.695-.106c-.172-.016-.344-.066-.516-.098-.113-.015-.234-.023-.347-.043q-.307-.046-.606-.093c-.117-.02-.234-.032-.352-.051-.21-.031-.425-.082-.636-.098a2 2 0 0 1-.532-.117.96.96 0 0 1-.453-.312c-.175-.211-.105-.52.176-.641a.86.86 0 0 1 .578-.035c.227.062.442.152.653.254.222.105.449.203.675.304q.354.151.707.301c.383.164.762.332 1.145.5q.27.125.539.25a.03.03 0 0 1-.008.02" style="stroke:none;fill-rule:nonzero;fill:#db353d;fill-opacity:1"/><path d="M63.707 20.168c.04.012.074.027.11.035a.43.43 0 0 1 .3.297c.059.188.082.367.047.57-.066.364-.191.711-.277 1.067q-.112.44-.235.875c-.058.207-.132.41-.191.62-.05.173-.09.348-.14.524-.06.215-.126.434-.188.653-.07-.004-.047-.055-.047-.09 0-.453-.02-.907.004-1.36.039-.77.012-1.543.027-2.316.008-.266.094-.504.274-.707.086-.094.195-.129.316-.168" style="stroke:none;fill-rule:nonzero;fill:#dc343c;fill-opacity:1"/><path d="M60.148 25.566c-.046.004-.074-.011-.07-.062 0-.016.004-.031.004-.047.047.02.074.055.07.11z" style="stroke:none;fill-rule:nonzero;fill:#969457;fill-opacity:1"/><path d="m64.941 25.676-.054.078c-.024-.07.008-.086.054-.082z" style="stroke:none;fill-rule:nonzero;fill:#db353c;fill-opacity:1"/><path d="M59.55 26.238q-.022-.022-.046-.039.007-.012.02-.023.024.02.054.039c-.008.008-.02.015-.027.023" style="stroke:none;fill-rule:nonzero;fill:#db353d;fill-opacity:1"/><path d="M60.082 25.457c0 .016-.004.031-.004.047q-.017-.024-.039-.043l.008-.004z" style="stroke:none;fill-rule:nonzero;fill:#db353c;fill-opacity:1"/><path d="m60.184 25.602-.036-.036h.004q.013.018.032.036M60.184 25.602c.011.003.023.011.03.015-.007-.004-.019-.012-.03-.015" style="stroke:none;fill-rule:nonzero;fill:#969457;fill-opacity:1"/></svg>