<?xml version="1.0" encoding="UTF-8"?>
<svg xmlns="http://www.w3.org/2000/svg" xmlns:xlink="http://www.w3.org/1999/xlink" width="79.89pt" height="59pt" viewBox="0 0 79.89 59" version="1.1">
<defs>
<clipPath id="clip1">
  <path d="M 43 0 L 79.890625 0 L 79.890625 31 L 43 31 Z M 43 0 "/>
</clipPath>
</defs>
<g id="surface1">
<path style=" stroke:none;fill-rule:nonzero;fill:rgb(86.787415%,16.688538%,16.130066%);fill-opacity:1;" d="M 51.34375 52.757812 C 52.703125 52.757812 54.066406 52.757812 55.421875 52.757812 C 55.542969 51.398438 54.828125 50.503906 53.632812 50.445312 C 52.308594 50.378906 51.328125 51.351562 51.34375 52.757812 Z M 53.011719 59 C 52.964844 58.960938 52.925781 58.894531 52.871094 58.878906 C 49.605469 57.960938 49.261719 53.875 50.609375 51.6875 C 51.84375 49.679688 54.207031 49.582031 55.585938 50.144531 C 56.851562 50.660156 57.566406 51.875 57.421875 53.285156 C 55.40625 53.285156 53.375 53.285156 51.375 53.285156 C 50.90625 54.90625 52.0625 56.742188 53.324219 57.246094 C 53.800781 57.4375 54.355469 57.488281 54.878906 57.507812 C 55.457031 57.523438 56 57.300781 56.402344 56.867188 C 56.75 56.488281 57.042969 56.050781 57.414062 55.574219 C 57.542969 56.050781 57.316406 56.363281 57.183594 56.691406 C 56.71875 57.84375 55.78125 58.492188 54.714844 59 C 54.144531 59 53.578125 59 53.011719 59 "/>
<path style=" stroke:none;fill-rule:nonzero;fill:rgb(86.787415%,16.688538%,16.130066%);fill-opacity:1;" d="M 61.324219 59 C 60.722656 58.722656 60.125 58.453125 59.390625 58.84375 C 59.207031 57.8125 59.324219 56.863281 59.464844 55.867188 C 59.574219 56.136719 59.675781 56.402344 59.785156 56.664062 C 60.214844 57.65625 60.933594 58.300781 62.015625 58.488281 C 62.890625 58.640625 63.683594 58.292969 63.941406 57.664062 C 64.21875 56.992188 63.9375 56.253906 63.148438 55.742188 C 62.621094 55.40625 62.046875 55.136719 61.5 54.835938 C 61.113281 54.625 60.714844 54.429688 60.347656 54.195312 C 59.441406 53.605469 59.085938 52.789062 59.320312 51.773438 C 59.542969 50.796875 60.195312 50.191406 61.15625 49.957031 C 61.839844 49.792969 62.53125 49.863281 63.207031 50.042969 C 63.695312 50.171875 64.1875 50.335938 64.667969 49.710938 C 64.667969 50.820312 64.667969 51.722656 64.667969 52.625 C 64.625 52.644531 64.578125 52.664062 64.535156 52.683594 C 64.398438 52.359375 64.277344 52.027344 64.125 51.707031 C 63.636719 50.671875 62.769531 50.171875 61.695312 50.3125 C 61.097656 50.386719 60.578125 50.644531 60.398438 51.25 C 60.214844 51.859375 60.5 52.386719 61.003906 52.714844 C 61.554688 53.074219 62.160156 53.34375 62.742188 53.648438 C 63.242188 53.914062 63.769531 54.132812 64.238281 54.445312 C 65.898438 55.546875 65.789062 57.617188 64.03125 58.570312 C 63.761719 58.714844 63.484375 58.855469 63.210938 59 C 62.582031 59 61.953125 59 61.324219 59 "/>
<path style=" stroke:none;fill-rule:nonzero;fill:rgb(13.729858%,12.159729%,12.548828%);fill-opacity:1;" d="M 8.835938 43.394531 C 8.59375 43.394531 8.414062 43.394531 8.132812 43.394531 C 6.53125 40.09375 4.917969 36.769531 3.28125 33.390625 C 3.046875 34.117188 3.011719 41.257812 3.214844 42.199219 C 3.671875 42.589844 3.671875 42.589844 4.648438 42.867188 C 4.648438 43.007812 4.648438 43.15625 4.648438 43.367188 C 3.097656 43.367188 1.574219 43.367188 0 43.367188 C 0 43.148438 0 42.945312 0 42.703125 C 0.332031 42.667969 0.644531 42.644531 0.949219 42.601562 C 1.722656 42.492188 1.96875 42.21875 2.019531 41.425781 C 2.027344 41.332031 2.023438 41.238281 2.023438 41.144531 C 2.035156 38.40625 2.046875 35.667969 2.054688 32.929688 C 2.058594 32.742188 2.058594 32.550781 2.042969 32.363281 C 1.976562 31.605469 1.714844 31.304688 0.96875 31.148438 C 0.664062 31.085938 0.351562 31.058594 0.00390625 31.007812 C 0.00390625 30.804688 0.00390625 30.632812 0.00390625 30.394531 C 1.597656 30.394531 3.1875 30.394531 4.835938 30.394531 C 6.296875 33.476562 7.761719 36.570312 9.292969 39.804688 C 10.839844 36.585938 12.316406 33.503906 13.8125 30.386719 C 15.203125 30.386719 16.578125 30.386719 17.992188 30.386719 C 17.992188 30.632812 17.992188 30.839844 17.992188 31.03125 C 16.363281 31.449219 16.363281 31.449219 16.363281 33.148438 C 16.363281 35.632812 16.367188 38.117188 16.371094 40.605469 C 16.371094 40.890625 16.367188 41.171875 16.382812 41.457031 C 16.425781 42.226562 16.617188 42.457031 17.34375 42.636719 C 17.550781 42.6875 17.761719 42.722656 18.023438 42.777344 C 18.015625 42.988281 18.003906 43.160156 17.992188 43.382812 C 16.074219 43.382812 14.199219 43.382812 12.277344 43.382812 C 12.242188 43.226562 12.214844 43.085938 12.1875 42.9375 C 12.296875 42.875 12.371094 42.800781 12.453125 42.789062 C 13.640625 42.582031 13.777344 42.441406 13.78125 41.277344 C 13.792969 38.789062 13.785156 36.304688 13.785156 33.820312 C 13.78125 33.632812 13.761719 33.449219 13.589844 33.210938 C 12.019531 36.578125 10.445312 39.945312 8.835938 43.394531 "/>
<path style=" stroke:none;fill-rule:nonzero;fill:rgb(13.729858%,12.159729%,12.548828%);fill-opacity:1;" d="M 55.558594 43.394531 C 55.027344 43.394531 54.566406 43.394531 54.054688 43.394531 C 53.152344 41.464844 52.46875 39.449219 51.445312 37.332031 C 50.34375 39.445312 49.617188 41.472656 48.667969 43.402344 C 48.210938 43.402344 47.808594 43.402344 47.320312 43.402344 C 47.148438 42.847656 46.960938 42.289062 46.796875 41.722656 C 46.328125 40.125 45.878906 38.519531 45.410156 36.921875 C 45.167969 36.109375 44.851562 35.351562 43.792969 35.304688 C 43.792969 35.082031 43.792969 34.914062 43.792969 34.707031 C 45.429688 34.707031 47.027344 34.707031 48.679688 34.707031 C 48.703125 34.863281 48.730469 35.027344 48.761719 35.242188 C 48.335938 35.289062 47.96875 35.332031 47.476562 35.386719 C 47.804688 37.035156 48.34375 38.597656 48.777344 40.402344 C 49.445312 39.316406 49.816406 38.269531 50.296875 37.28125 C 50.777344 36.296875 51.222656 35.292969 51.683594 34.289062 C 52.011719 34.289062 52.289062 34.289062 52.632812 34.289062 C 53.507812 36.25 54.386719 38.214844 55.347656 40.363281 C 55.875 38.609375 56.34375 37.058594 56.832031 35.433594 C 56.585938 35.386719 56.390625 35.34375 56.1875 35.3125 C 55.980469 35.28125 55.769531 35.261719 55.511719 35.230469 C 55.53125 35.039062 55.546875 34.894531 55.5625 34.71875 C 56.851562 34.71875 58.09375 34.71875 59.339844 34.71875 C 59.355469 34.863281 59.363281 34.957031 59.375 35.0625 C 59.300781 35.117188 59.234375 35.214844 59.160156 35.226562 C 58.351562 35.335938 58.011719 35.882812 57.789062 36.597656 C 57.164062 38.574219 56.507812 40.539062 55.863281 42.511719 C 55.777344 42.777344 55.679688 43.042969 55.558594 43.394531 "/>
<path style=" stroke:none;fill-rule:nonzero;fill:rgb(86.787415%,16.688538%,16.130066%);fill-opacity:1;" d="M 9.144531 53.804688 C 8.335938 51.972656 7.605469 50.308594 6.84375 48.578125 C 6.171875 49.527344 4.609375 53.105469 4.546875 53.804688 C 6.011719 53.804688 7.46875 53.804688 9.144531 53.804688 Z M 14.375 58.699219 C 12.703125 58.699219 11.027344 58.699219 9.152344 58.699219 C 9.730469 58.328125 10.464844 58.46875 10.601562 57.730469 C 10.523438 56.875 9.96875 55.445312 9.308594 54.464844 C 7.609375 54.464844 5.886719 54.464844 4.042969 54.464844 C 3.597656 55.496094 3.144531 56.550781 2.742188 57.472656 C 2.976562 58.394531 3.652344 58.371094 4.226562 58.542969 C 3.675781 58.816406 1.160156 58.851562 0.0898438 58.566406 C 1.421875 58.355469 1.859375 57.40625 2.285156 56.46875 C 3.800781 53.121094 5.308594 49.765625 6.820312 46.417969 C 6.945312 46.144531 7.09375 45.882812 7.328125 45.417969 C 7.558594 45.890625 7.710938 46.183594 7.84375 46.484375 C 9.222656 49.617188 10.601562 52.753906 11.980469 55.886719 C 12.121094 56.203125 12.265625 56.519531 12.410156 56.832031 C 12.8125 57.691406 13.332031 58.421875 14.429688 58.488281 C 14.414062 58.558594 14.394531 58.628906 14.375 58.699219 "/>
<path style=" stroke:none;fill-rule:nonzero;fill:rgb(13.729858%,12.159729%,12.548828%);fill-opacity:1;" d="M 40.824219 38.863281 C 39.714844 38.734375 38.777344 38.917969 37.921875 39.429688 C 37.253906 39.832031 37.019531 40.554688 37.28125 41.207031 C 37.570312 41.921875 38.246094 42.285156 39.03125 42.105469 C 39.703125 41.949219 40.328125 41.675781 40.824219 41.191406 C 40.824219 40.425781 40.824219 39.683594 40.824219 38.863281 Z M 40.9375 43.386719 C 40.910156 42.867188 40.890625 42.433594 40.863281 41.890625 C 40.605469 42.042969 40.410156 42.171875 40.203125 42.28125 C 39.484375 42.664062 38.796875 43.121094 38.039062 43.402344 C 36.949219 43.800781 35.972656 43.441406 35.476562 42.601562 C 34.910156 41.652344 35.023438 40.542969 35.777344 39.71875 C 36.351562 39.097656 37.089844 38.753906 37.90625 38.585938 C 38.398438 38.480469 38.898438 38.417969 39.394531 38.355469 C 39.859375 38.296875 40.328125 38.257812 40.851562 38.203125 C 41.179688 37.507812 41.078125 36.855469 40.550781 36.316406 C 39.992188 35.746094 39.308594 35.425781 38.503906 35.757812 C 38.164062 35.898438 37.871094 36.152344 37.558594 36.359375 C 37.308594 36.523438 37.070312 36.699219 36.660156 36.976562 C 36.660156 36.582031 36.605469 36.363281 36.671875 36.195312 C 36.925781 35.550781 37.414062 35.117188 38.023438 34.8125 C 38.832031 34.40625 39.699219 34.269531 40.585938 34.304688 C 42.195312 34.371094 43.085938 35.25 43.132812 36.859375 C 43.171875 38.304688 43.144531 39.753906 43.160156 41.199219 C 43.164062 41.570312 43.210938 41.941406 43.242188 42.335938 C 43.539062 42.507812 43.804688 42.664062 44.117188 42.84375 C 44.101562 42.996094 44.085938 43.171875 44.0625 43.386719 C 43.027344 43.386719 42.03125 43.386719 40.9375 43.386719 "/>
<path style=" stroke:none;fill-rule:nonzero;fill:rgb(13.729858%,12.159729%,12.548828%);fill-opacity:1;" d="M 24.8125 41.347656 C 24.8125 40.4375 24.8125 39.667969 24.8125 38.910156 C 23.726562 38.765625 22.617188 38.96875 21.945312 39.421875 C 21.273438 39.878906 21.03125 40.625 21.34375 41.3125 C 21.628906 41.949219 22.335938 42.316406 23.078125 42.09375 C 23.695312 41.90625 24.273438 41.585938 24.8125 41.347656 Z M 20.695312 36.949219 C 20.679688 36.59375 20.625 36.414062 20.671875 36.265625 C 20.875 35.632812 21.335938 35.199219 21.898438 34.890625 C 22.902344 34.34375 23.988281 34.1875 25.101562 34.351562 C 26.351562 34.542969 27.09375 35.394531 27.128906 36.699219 C 27.171875 38.207031 27.144531 39.71875 27.164062 41.226562 C 27.171875 41.625 27.253906 42.023438 27.292969 42.375 C 27.628906 42.570312 27.867188 42.707031 28.128906 42.859375 C 28.113281 43.019531 28.097656 43.164062 28.078125 43.371094 C 27.023438 43.371094 26.003906 43.371094 24.941406 43.371094 C 24.90625 42.871094 24.878906 42.414062 24.84375 41.910156 C 24.175781 42.3125 23.566406 42.695312 22.941406 43.042969 C 22.640625 43.210938 22.316406 43.347656 21.984375 43.441406 C 20.953125 43.734375 20.042969 43.441406 19.554688 42.6875 C 18.972656 41.796875 19.042969 40.585938 19.738281 39.789062 C 20.296875 39.148438 21.027344 38.777344 21.839844 38.609375 C 22.640625 38.445312 23.457031 38.367188 24.265625 38.261719 C 24.453125 38.234375 24.636719 38.226562 24.839844 38.214844 C 25.246094 37.484375 25.066406 36.84375 24.554688 36.308594 C 24.03125 35.753906 23.363281 35.453125 22.59375 35.738281 C 22.222656 35.878906 21.90625 36.160156 21.566406 36.378906 C 21.316406 36.539062 21.070312 36.703125 20.695312 36.949219 "/>
<path style=" stroke:none;fill-rule:nonzero;fill:rgb(13.729858%,12.159729%,12.548828%);fill-opacity:1;" d="M 33.941406 42.804688 C 33.941406 43.011719 33.941406 43.160156 33.941406 43.371094 C 32.257812 43.371094 30.605469 43.371094 28.90625 43.371094 C 28.878906 43.230469 28.851562 43.089844 28.832031 42.984375 C 28.914062 42.898438 28.949219 42.828125 29 42.816406 C 30.195312 42.484375 30.398438 42.261719 30.410156 41.070312 C 30.441406 38.210938 30.457031 35.347656 30.464844 32.488281 C 30.464844 32.117188 30.382812 31.75 30.355469 31.53125 C 29.9375 30.882812 29.347656 31.089844 28.859375 30.898438 C 28.863281 30.753906 28.871094 30.605469 28.878906 30.398438 C 30.140625 30.21875 31.371094 30.046875 32.734375 29.851562 C 32.734375 30.292969 32.734375 30.628906 32.734375 30.964844 C 32.734375 34.171875 32.734375 37.378906 32.734375 40.585938 C 32.734375 40.804688 32.730469 41.027344 32.734375 41.246094 C 32.765625 42.3125 32.847656 42.421875 33.941406 42.804688 "/>
<path style=" stroke:none;fill-rule:nonzero;fill:rgb(86.787415%,16.688538%,16.130066%);fill-opacity:1;" d="M 42.0625 52.195312 C 42.0625 53.875 42.046875 55.542969 42.070312 57.207031 C 42.082031 58.054688 42.328125 58.304688 43.148438 58.476562 C 43.257812 58.5 43.363281 58.53125 43.464844 58.652344 C 42.085938 58.777344 40.710938 58.75 39.300781 58.585938 C 39.453125 58.535156 39.605469 58.480469 39.757812 58.429688 C 40.121094 58.3125 40.34375 58.074219 40.410156 57.699219 C 40.453125 57.480469 40.515625 57.265625 40.515625 57.046875 C 40.519531 55.476562 40.535156 53.902344 40.492188 52.332031 C 40.484375 51.917969 40.515625 51.429688 40.023438 51.082031 C 39.78125 51.0625 39.476562 51.039062 38.929688 50.992188 C 40 50.421875 40.957031 50.144531 41.988281 49.75 C 42.035156 50.402344 42.070312 50.941406 42.117188 51.613281 C 42.445312 51.316406 42.667969 51.109375 42.894531 50.90625 C 43.421875 50.445312 43.984375 50.058594 44.691406 49.917969 C 45.996094 49.65625 47.023438 50.265625 47.332031 51.554688 C 47.457031 52.066406 47.496094 52.609375 47.503906 53.140625 C 47.53125 54.398438 47.503906 55.65625 47.519531 56.917969 C 47.53125 58.097656 47.644531 58.234375 48.902344 58.609375 C 48.097656 58.863281 47.394531 58.726562 46.710938 58.75 C 46.023438 58.777344 45.332031 58.757812 44.605469 58.628906 C 44.714844 58.578125 44.824219 58.507812 44.941406 58.480469 C 45.671875 58.296875 45.914062 58.144531 45.921875 57.433594 C 45.949219 55.675781 45.953125 53.914062 45.835938 52.164062 C 45.761719 51.113281 44.953125 50.679688 43.917969 50.949219 C 43.195312 51.136719 42.625 51.574219 42.0625 52.195312 "/>
<path style=" stroke:none;fill-rule:nonzero;fill:rgb(13.729858%,12.159729%,12.548828%);fill-opacity:1;" d="M 61.386719 42.671875 C 61.699219 41.867188 61.800781 36.832031 61.570312 35.5625 C 61.214844 34.980469 60.523438 35.304688 59.964844 35.003906 C 60.09375 34.832031 60.171875 34.617188 60.292969 34.585938 C 61.476562 34.296875 62.664062 34.039062 63.953125 33.753906 C 63.953125 36.730469 63.953125 39.609375 63.953125 42.5625 C 64.386719 42.746094 64.777344 42.910156 65.238281 43.109375 C 65.132812 43.222656 65.046875 43.402344 64.957031 43.40625 C 63.386719 43.417969 61.816406 43.410156 60.246094 43.398438 C 60.179688 43.398438 60.113281 43.289062 59.96875 43.164062 C 60.5 42.976562 60.976562 42.8125 61.386719 42.671875 "/>
<path style=" stroke:none;fill-rule:nonzero;fill:rgb(86.787415%,16.688538%,16.130066%);fill-opacity:1;" d="M 32.484375 58.707031 C 31.121094 58.707031 29.757812 58.707031 28.207031 58.707031 C 28.433594 58.574219 28.511719 58.488281 28.597656 58.480469 C 29.253906 58.398438 29.492188 57.957031 29.566406 57.378906 C 29.59375 57.160156 29.59375 56.9375 29.59375 56.71875 C 29.59375 53.824219 29.59375 50.929688 29.585938 48.035156 C 29.582031 47.535156 29.609375 47.019531 29.195312 46.539062 C 28.894531 46.511719 28.542969 46.472656 28.191406 46.4375 C 28.183594 46.390625 28.171875 46.339844 28.164062 46.289062 C 29.074219 45.929688 29.984375 45.570312 31.050781 45.148438 C 31.074219 45.605469 31.101562 45.929688 31.101562 46.253906 C 31.105469 49.496094 31.105469 52.738281 31.105469 55.976562 C 31.105469 56.261719 31.101562 56.542969 31.109375 56.828125 C 31.144531 58.074219 31.308594 58.277344 32.484375 58.707031 "/>
<path style=" stroke:none;fill-rule:nonzero;fill:rgb(86.787415%,16.688538%,16.130066%);fill-opacity:1;" d="M 25.300781 58.691406 C 23.871094 58.691406 22.441406 58.691406 20.847656 58.691406 C 21.058594 58.5625 21.117188 58.503906 21.191406 58.480469 C 22.132812 58.175781 22.242188 58.058594 22.246094 57.09375 C 22.257812 55.488281 22.25 53.886719 22.242188 52.28125 C 22.242188 51.839844 22.25 51.386719 21.714844 51.070312 C 21.488281 51.058594 21.179688 51.042969 20.871094 51.023438 C 21.710938 50.449219 22.65625 50.148438 23.734375 49.792969 C 23.765625 50.417969 23.789062 50.960938 23.828125 51.730469 C 24.199219 51.289062 24.449219 50.996094 24.691406 50.703125 C 25.089844 50.222656 25.570312 49.882812 26.210938 49.859375 C 26.675781 49.84375 27.074219 50.023438 27.3125 50.449219 C 27.550781 50.878906 27.417969 51.234375 27.09375 51.507812 C 26.277344 51.949219 25.804688 51.125 25.09375 51.011719 C 24.324219 51.558594 23.777344 52.226562 23.78125 53.242188 C 23.789062 54.3125 23.78125 55.382812 23.785156 56.449219 C 23.785156 56.636719 23.808594 56.824219 23.816406 57.015625 C 23.863281 57.964844 24.347656 58.507812 25.425781 58.507812 C 25.382812 58.570312 25.34375 58.628906 25.300781 58.691406 "/>
<path style=" stroke:none;fill-rule:nonzero;fill:rgb(86.787415%,16.688538%,16.130066%);fill-opacity:1;" d="M 19.832031 58.703125 C 18.472656 58.703125 17.109375 58.703125 15.746094 58.703125 C 15.761719 58.640625 15.761719 58.546875 15.789062 58.542969 C 16.878906 58.234375 16.972656 58.160156 16.984375 57.085938 C 17.007812 55.453125 16.984375 53.820312 16.972656 52.1875 C 16.96875 51.777344 16.964844 51.359375 16.496094 51.0625 C 16.25 51.0625 15.941406 51.0625 15.59375 51.0625 C 16.125 50.570312 17.601562 49.988281 18.59375 49.890625 C 18.59375 50.203125 18.59375 50.503906 18.59375 50.804688 C 18.59375 52.847656 18.585938 54.886719 18.601562 56.929688 C 18.609375 58.128906 18.734375 58.269531 19.832031 58.703125 "/>
<path style=" stroke:none;fill-rule:nonzero;fill:rgb(86.787415%,16.688538%,16.130066%);fill-opacity:1;" d="M 38.121094 58.695312 C 36.761719 58.695312 35.402344 58.695312 33.855469 58.695312 C 34.09375 58.5625 34.15625 58.511719 34.226562 58.488281 C 35.078125 58.238281 35.25 58.058594 35.277344 57.183594 C 35.304688 56.175781 35.292969 55.167969 35.289062 54.164062 C 35.285156 53.472656 35.277344 52.78125 35.257812 52.089844 C 35.246094 51.707031 35.199219 51.328125 34.75 51.066406 C 34.511719 51.054688 34.203125 51.035156 33.898438 51.019531 C 34.761719 50.46875 35.699219 50.117188 36.757812 49.796875 C 36.78125 50.148438 36.816406 50.417969 36.820312 50.691406 C 36.824219 52.578125 36.820312 54.464844 36.824219 56.351562 C 36.824219 56.667969 36.832031 56.980469 36.867188 57.292969 C 36.964844 58.140625 37.074219 58.253906 37.929688 58.480469 C 38.007812 58.5 38.078125 58.550781 38.152344 58.589844 C 38.144531 58.625 38.132812 58.660156 38.121094 58.695312 "/>
<path style=" stroke:none;fill-rule:nonzero;fill:rgb(86.787415%,16.688538%,16.130066%);fill-opacity:1;" d="M 36.894531 45.699219 C 37 46.542969 36.859375 46.867188 36.34375 47.03125 C 35.925781 47.160156 35.441406 46.960938 35.226562 46.570312 C 35.027344 46.203125 35.117188 45.757812 35.457031 45.480469 C 35.859375 45.148438 36.226562 45.195312 36.894531 45.699219 "/>
<path style=" stroke:none;fill-rule:nonzero;fill:rgb(86.787415%,16.688538%,16.130066%);fill-opacity:1;" d="M 18.777344 46.15625 C 18.644531 46.714844 18.363281 47.070312 17.808594 47.058594 C 17.277344 47.050781 16.941406 46.753906 16.835938 46.199219 C 16.871094 45.671875 17.160156 45.351562 17.695312 45.273438 C 18.164062 45.207031 18.445312 45.441406 18.777344 46.15625 "/>
<g clip-path="url(#clip1)" clip-rule="nonzero">
<path style=" stroke:none;fill-rule:nonzero;fill:rgb(33.396912%,74.516296%,31.800842%);fill-opacity:1;" d="M 59.550781 26.238281 C 59.558594 26.230469 59.570312 26.222656 59.578125 26.214844 C 59.558594 26.203125 59.539062 26.1875 59.523438 26.175781 C 59.515625 26.183594 59.507812 26.191406 59.503906 26.199219 C 59.519531 26.210938 59.535156 26.222656 59.550781 26.238281 Z M 63.707031 20.167969 C 63.585938 20.207031 63.476562 20.242188 63.390625 20.335938 C 63.210938 20.539062 63.125 20.777344 63.117188 21.042969 C 63.101562 21.816406 63.128906 22.589844 63.089844 23.359375 C 63.066406 23.8125 63.085938 24.265625 63.085938 24.71875 C 63.085938 24.753906 63.0625 24.804688 63.132812 24.808594 C 63.195312 24.589844 63.261719 24.371094 63.320312 24.15625 C 63.371094 23.980469 63.410156 23.804688 63.460938 23.632812 C 63.519531 23.421875 63.59375 23.21875 63.652344 23.011719 C 63.734375 22.722656 63.8125 22.429688 63.886719 22.136719 C 63.972656 21.78125 64.097656 21.433594 64.164062 21.070312 C 64.199219 20.867188 64.175781 20.6875 64.117188 20.5 C 64.070312 20.351562 63.96875 20.25 63.816406 20.203125 C 63.78125 20.195312 63.746094 20.179688 63.707031 20.167969 Z M 59.199219 27.097656 C 59.203125 27.09375 59.207031 27.085938 59.207031 27.078125 C 59.027344 26.996094 58.847656 26.910156 58.667969 26.828125 C 58.285156 26.660156 57.90625 26.492188 57.523438 26.328125 C 57.289062 26.226562 57.050781 26.128906 56.816406 26.027344 C 56.589844 25.925781 56.363281 25.828125 56.140625 25.722656 C 55.929688 25.621094 55.714844 25.53125 55.488281 25.46875 C 55.289062 25.414062 55.097656 25.425781 54.910156 25.503906 C 54.628906 25.625 54.558594 25.933594 54.734375 26.144531 C 54.859375 26.292969 55.003906 26.398438 55.1875 26.457031 C 55.359375 26.515625 55.53125 26.5625 55.71875 26.574219 C 55.929688 26.589844 56.144531 26.640625 56.355469 26.671875 C 56.472656 26.691406 56.589844 26.703125 56.707031 26.722656 C 56.90625 26.753906 57.109375 26.785156 57.3125 26.816406 C 57.425781 26.835938 57.546875 26.84375 57.660156 26.859375 C 57.832031 26.890625 58.003906 26.941406 58.175781 26.957031 C 58.410156 26.976562 58.640625 27.019531 58.871094 27.0625 C 58.976562 27.082031 59.089844 27.085938 59.199219 27.097656 Z M 63.976562 25.121094 C 63.988281 25.125 64.003906 25.132812 64.015625 25.136719 C 64.023438 25.125 64.039062 25.113281 64.046875 25.101562 C 64.214844 24.84375 64.378906 24.589844 64.546875 24.335938 C 64.816406 23.929688 65.089844 23.527344 65.359375 23.117188 C 65.585938 22.769531 65.804688 22.417969 66.03125 22.066406 C 66.1875 21.824219 66.285156 21.566406 66.269531 21.269531 C 66.261719 21.164062 66.226562 21.070312 66.167969 20.992188 C 66.085938 20.882812 65.953125 20.832031 65.824219 20.855469 C 65.695312 20.882812 65.574219 20.945312 65.46875 21.042969 C 65.296875 21.207031 65.195312 21.40625 65.121094 21.625 C 65.023438 21.90625 64.933594 22.1875 64.84375 22.46875 C 64.722656 22.835938 64.597656 23.199219 64.480469 23.566406 C 64.332031 24.03125 64.1875 24.5 64.042969 24.96875 C 64.027344 25.019531 64 25.070312 63.976562 25.121094 Z M 58.71875 21.320312 C 58.75 21.40625 58.769531 21.46875 58.792969 21.527344 C 58.828125 21.609375 58.859375 21.691406 58.90625 21.765625 C 59.042969 21.980469 59.183594 22.199219 59.324219 22.414062 C 59.578125 22.800781 59.828125 23.191406 60.082031 23.582031 C 60.273438 23.882812 60.46875 24.183594 60.664062 24.480469 C 60.761719 24.632812 60.867188 24.777344 60.976562 24.9375 C 60.992188 24.90625 61.003906 24.886719 61 24.875 C 60.949219 24.726562 60.886719 24.582031 60.835938 24.433594 C 60.722656 24.089844 60.621094 23.742188 60.511719 23.398438 C 60.34375 22.871094 60.175781 22.34375 60.003906 21.816406 C 59.9375 21.613281 59.863281 21.414062 59.789062 21.210938 C 59.71875 21 59.550781 20.859375 59.390625 20.722656 C 59.339844 20.683594 59.257812 20.675781 59.191406 20.667969 C 59.113281 20.660156 59.035156 20.664062 58.964844 20.664062 C 58.855469 20.753906 58.757812 20.835938 58.71875 20.972656 C 58.71875 21.09375 58.71875 21.210938 58.71875 21.320312 Z M 70.65625 28.339844 C 70.613281 28.070312 70.433594 27.925781 70.203125 27.859375 C 69.933594 27.78125 69.65625 27.820312 69.382812 27.871094 C 69.289062 27.886719 69.199219 27.90625 69.105469 27.917969 C 68.933594 27.949219 68.757812 27.972656 68.585938 28 C 68.476562 28.015625 68.367188 28.035156 68.257812 28.054688 C 68.101562 28.085938 67.949219 28.113281 67.792969 28.140625 C 67.601562 28.167969 67.40625 28.1875 67.21875 28.21875 C 66.953125 28.261719 66.6875 28.3125 66.421875 28.355469 C 66.253906 28.386719 66.085938 28.410156 65.917969 28.441406 C 65.949219 28.472656 65.980469 28.492188 66.011719 28.496094 C 66.210938 28.511719 66.410156 28.519531 66.609375 28.535156 C 66.738281 28.546875 66.867188 28.558594 66.996094 28.574219 C 67.257812 28.605469 67.519531 28.644531 67.78125 28.671875 C 67.960938 28.695312 68.144531 28.703125 68.328125 28.714844 C 68.351562 28.71875 68.375 28.722656 68.398438 28.726562 C 68.519531 28.742188 68.640625 28.769531 68.761719 28.78125 C 68.953125 28.800781 69.148438 28.808594 69.34375 28.824219 C 69.359375 28.824219 69.378906 28.828125 69.394531 28.832031 C 69.65625 28.878906 69.914062 28.878906 70.167969 28.816406 C 70.414062 28.75 70.613281 28.621094 70.65625 28.339844 Z M 61.902344 24.683594 C 61.902344 24.589844 61.902344 24.515625 61.902344 24.445312 C 61.902344 23.832031 61.902344 23.21875 61.898438 22.609375 C 61.894531 22.007812 61.882812 21.410156 61.863281 20.8125 C 61.863281 20.703125 61.84375 20.589844 61.804688 20.484375 C 61.742188 20.316406 61.660156 20.148438 61.488281 20.035156 C 61.460938 20.027344 61.425781 20.007812 61.386719 19.996094 C 61.226562 19.960938 61.078125 19.980469 60.96875 20.117188 C 60.839844 20.285156 60.789062 20.484375 60.804688 20.679688 C 60.820312 20.84375 60.839844 21.011719 60.894531 21.175781 C 61.019531 21.570312 61.113281 21.972656 61.226562 22.371094 C 61.289062 22.605469 61.371094 22.839844 61.433594 23.074219 C 61.570312 23.574219 61.703125 24.074219 61.835938 24.574219 C 61.84375 24.605469 61.871094 24.632812 61.902344 24.683594 Z M 59.5 26.160156 C 59.441406 26.097656 59.40625 26.054688 59.359375 26.015625 C 59.230469 25.90625 59.097656 25.800781 58.96875 25.6875 C 58.757812 25.507812 58.550781 25.320312 58.339844 25.136719 C 58.039062 24.878906 57.738281 24.625 57.433594 24.371094 C 57.179688 24.152344 56.925781 23.929688 56.667969 23.714844 C 56.496094 23.570312 56.289062 23.5 56.078125 23.464844 C 55.878906 23.429688 55.707031 23.515625 55.59375 23.671875 C 55.488281 23.875 55.550781 24.050781 55.667969 24.207031 C 55.761719 24.335938 55.875 24.453125 56.011719 24.53125 C 56.21875 24.644531 56.425781 24.746094 56.636719 24.851562 C 56.867188 24.964844 57.105469 25.066406 57.335938 25.175781 C 57.566406 25.289062 57.792969 25.410156 58.027344 25.523438 C 58.476562 25.738281 58.925781 25.949219 59.378906 26.160156 C 59.402344 26.171875 59.4375 26.160156 59.5 26.160156 Z M 65.453125 26.425781 C 65.515625 26.402344 65.546875 26.390625 65.574219 26.378906 C 65.859375 26.242188 66.144531 26.101562 66.429688 25.96875 C 66.796875 25.792969 67.167969 25.621094 67.539062 25.449219 C 67.648438 25.394531 67.757812 25.335938 67.867188 25.285156 C 68.175781 25.140625 68.484375 25.003906 68.789062 24.851562 C 69.027344 24.734375 69.242188 24.585938 69.371094 24.335938 C 69.484375 24.121094 69.476562 23.933594 69.308594 23.796875 C 69.277344 23.769531 69.246094 23.742188 69.207031 23.707031 C 69.109375 23.695312 69 23.664062 68.902344 23.675781 C 68.734375 23.703125 68.566406 23.746094 68.429688 23.851562 C 68.289062 23.960938 68.152344 24.074219 68.019531 24.1875 C 67.773438 24.394531 67.53125 24.601562 67.289062 24.808594 C 67.175781 24.90625 67.0625 25.015625 66.945312 25.113281 C 66.636719 25.378906 66.328125 25.640625 66.015625 25.90625 C 65.898438 26.003906 65.773438 26.09375 65.660156 26.195312 C 65.59375 26.257812 65.519531 26.316406 65.453125 26.425781 Z M 70.238281 25.804688 C 70.203125 25.785156 70.171875 25.765625 70.140625 25.746094 C 69.910156 25.597656 69.652344 25.609375 69.417969 25.699219 C 68.972656 25.863281 68.542969 26.066406 68.109375 26.25 C 67.835938 26.371094 67.5625 26.488281 67.289062 26.609375 C 67.089844 26.695312 66.894531 26.785156 66.695312 26.871094 C 66.414062 27 66.132812 27.121094 65.847656 27.25 C 65.832031 27.257812 65.816406 27.269531 65.785156 27.289062 C 65.820312 27.300781 65.835938 27.316406 65.847656 27.3125 C 66.007812 27.292969 66.160156 27.265625 66.316406 27.242188 C 66.410156 27.230469 66.503906 27.226562 66.59375 27.207031 C 66.8125 27.152344 67.03125 27.117188 67.253906 27.101562 C 67.375 27.09375 67.492188 27.054688 67.613281 27.035156 C 67.78125 27.007812 67.949219 26.984375 68.117188 26.960938 C 68.253906 26.941406 68.394531 26.921875 68.53125 26.898438 C 68.710938 26.871094 68.890625 26.835938 69.070312 26.820312 C 69.316406 26.800781 69.554688 26.75 69.789062 26.671875 C 69.941406 26.625 70.082031 26.542969 70.195312 26.433594 C 70.328125 26.308594 70.375 26.144531 70.332031 25.949219 C 70.308594 25.914062 70.277344 25.863281 70.238281 25.804688 Z M 59.046875 28.28125 C 58.921875 28.183594 58.921875 28.1875 58.808594 28.175781 C 58.675781 28.164062 58.535156 28.164062 58.410156 28.125 C 58.171875 28.054688 57.925781 28.046875 57.6875 28 C 57.507812 27.964844 57.328125 27.941406 57.152344 27.914062 C 57.070312 27.898438 56.984375 27.902344 56.90625 27.878906 C 56.664062 27.800781 56.410156 27.800781 56.167969 27.75 C 56 27.714844 55.832031 27.695312 55.664062 27.671875 C 55.507812 27.648438 55.351562 27.617188 55.195312 27.609375 C 55.082031 27.601562 54.964844 27.628906 54.847656 27.640625 C 54.664062 27.65625 54.523438 27.753906 54.417969 27.890625 C 54.351562 27.976562 54.289062 28.082031 54.339844 28.203125 C 54.371094 28.277344 54.410156 28.351562 54.46875 28.410156 C 54.613281 28.554688 54.792969 28.640625 55 28.640625 C 55.265625 28.636719 55.53125 28.640625 55.796875 28.613281 C 56.113281 28.578125 56.425781 28.519531 56.742188 28.503906 C 56.996094 28.488281 57.246094 28.460938 57.496094 28.425781 C 57.570312 28.417969 57.644531 28.398438 57.71875 28.394531 C 57.933594 28.375 58.144531 28.363281 58.355469 28.351562 C 58.378906 28.347656 58.40625 28.355469 58.425781 28.347656 C 58.621094 28.285156 58.820312 28.28125 59.046875 28.28125 Z M 62.515625 26.851562 C 61.714844 26.832031 61.09375 27.476562 61.089844 28.242188 C 61.085938 29.015625 61.707031 29.648438 62.488281 29.648438 C 63.285156 29.644531 63.878906 29.039062 63.902344 28.28125 C 63.925781 27.523438 63.285156 26.828125 62.515625 26.851562 Z M 64.941406 25.675781 C 64.980469 25.652344 65.027344 25.632812 65.058594 25.605469 C 65.234375 25.445312 65.40625 25.28125 65.582031 25.121094 C 65.957031 24.769531 66.339844 24.421875 66.707031 24.0625 C 67.039062 23.742188 67.402344 23.453125 67.707031 23.105469 C 67.925781 22.851562 68.09375 22.574219 67.957031 22.195312 C 67.890625 22.144531 67.8125 22.082031 67.726562 22.015625 C 67.628906 22.027344 67.527344 22.03125 67.429688 22.054688 C 67.15625 22.117188 66.984375 22.320312 66.839844 22.535156 C 66.589844 22.902344 66.371094 23.292969 66.136719 23.671875 C 65.757812 24.285156 65.371094 24.894531 64.992188 25.507812 C 64.960938 25.554688 64.957031 25.617188 64.941406 25.671875 C 64.894531 25.667969 64.863281 25.683594 64.886719 25.753906 C 64.910156 25.71875 64.925781 25.695312 64.941406 25.675781 Z M 60.183594 25.601562 C 60.195312 25.605469 60.207031 25.613281 60.214844 25.617188 C 60.207031 25.613281 60.195312 25.605469 60.183594 25.601562 C 60.171875 25.589844 60.160156 25.578125 60.152344 25.566406 C 60.15625 25.511719 60.128906 25.476562 60.082031 25.457031 C 60.070312 25.457031 60.058594 25.457031 60.046875 25.457031 C 60.023438 25.398438 60.011719 25.332031 59.980469 25.277344 C 59.910156 25.15625 59.832031 25.039062 59.757812 24.917969 C 59.480469 24.472656 59.203125 24.023438 58.925781 23.574219 C 58.71875 23.238281 58.511719 22.90625 58.3125 22.566406 C 58.191406 22.363281 58.050781 22.171875 57.871094 22.015625 C 57.773438 21.929688 57.664062 21.859375 57.535156 21.832031 C 57.226562 21.761719 56.984375 21.890625 56.976562 22.246094 C 56.972656 22.414062 57.042969 22.578125 57.144531 22.71875 C 57.246094 22.863281 57.363281 22.996094 57.496094 23.113281 C 57.675781 23.273438 57.851562 23.441406 58.027344 23.609375 C 58.394531 23.949219 58.757812 24.285156 59.121094 24.628906 C 59.378906 24.871094 59.636719 25.117188 59.898438 25.363281 C 59.9375 25.402344 59.992188 25.429688 60.039062 25.460938 C 60.054688 25.472656 60.066406 25.488281 60.078125 25.503906 C 60.074219 25.554688 60.101562 25.570312 60.148438 25.566406 C 60.160156 25.578125 60.171875 25.589844 60.183594 25.601562 Z M 79.886719 0.105469 C 79.804688 0.195312 79.8125 0.3125 79.785156 0.414062 C 79.652344 0.882812 79.53125 1.351562 79.40625 1.820312 C 79.289062 2.261719 79.179688 2.707031 79.0625 3.148438 C 79 3.382812 78.933594 3.621094 78.871094 3.859375 C 78.804688 4.113281 78.738281 4.367188 78.671875 4.621094 C 78.605469 4.871094 78.539062 5.117188 78.472656 5.367188 C 78.40625 5.621094 78.34375 5.878906 78.277344 6.132812 C 78.1875 6.472656 78.101562 6.8125 78.011719 7.152344 C 77.933594 7.445312 77.855469 7.738281 77.777344 8.03125 C 77.664062 8.449219 77.554688 8.867188 77.445312 9.289062 C 77.375 9.542969 77.308594 9.796875 77.242188 10.050781 C 77.164062 10.34375 77.089844 10.640625 77.011719 10.933594 C 76.863281 11.519531 76.710938 12.101562 76.558594 12.683594 C 76.421875 13.191406 76.28125 13.699219 76.144531 14.207031 C 76.074219 14.480469 76.019531 14.753906 75.949219 15.027344 C 75.878906 15.296875 75.792969 15.566406 75.722656 15.839844 C 75.617188 16.238281 75.519531 16.644531 75.414062 17.042969 C 75.304688 17.457031 75.183594 17.867188 75.074219 18.28125 C 74.957031 18.714844 74.847656 19.152344 74.734375 19.585938 C 74.648438 19.921875 74.5625 20.253906 74.472656 20.589844 C 74.394531 20.882812 74.316406 21.175781 74.238281 21.46875 C 74.160156 21.757812 74.085938 22.046875 74.011719 22.335938 C 73.859375 22.917969 73.710938 23.503906 73.554688 24.085938 C 73.40625 24.644531 73.25 25.203125 73.101562 25.761719 C 73 26.15625 72.90625 26.554688 72.804688 26.953125 C 72.734375 27.226562 72.65625 27.496094 72.585938 27.765625 C 72.476562 28.175781 72.375 28.582031 72.265625 28.988281 C 72.195312 29.265625 72.113281 29.542969 72.039062 29.820312 C 71.992188 30.003906 71.945312 30.191406 71.894531 30.386719 C 62.394531 30.386719 52.894531 30.386719 43.375 30.386719 C 43.8125 30.277344 44.234375 30.183594 44.644531 30.058594 C 45.097656 29.921875 45.542969 29.753906 45.988281 29.589844 C 46.207031 29.507812 46.421875 29.417969 46.636719 29.320312 C 46.9375 29.179688 47.238281 29.046875 47.527344 28.886719 C 47.945312 28.660156 48.363281 28.425781 48.765625 28.171875 C 49.175781 27.910156 49.582031 27.632812 49.972656 27.34375 C 50.269531 27.128906 50.542969 26.882812 50.828125 26.652344 C 51.414062 26.175781 51.949219 25.644531 52.476562 25.101562 C 52.746094 24.828125 52.988281 24.53125 53.222656 24.226562 C 53.367188 24.042969 53.523438 23.875 53.671875 23.699219 C 53.871094 23.457031 54.066406 23.210938 54.265625 22.96875 C 54.398438 22.804688 54.539062 22.644531 54.675781 22.480469 C 54.886719 22.226562 55.09375 21.96875 55.304688 21.714844 C 55.5 21.476562 55.699219 21.242188 55.898438 21.003906 C 56.09375 20.769531 56.28125 20.527344 56.476562 20.289062 C 56.621094 20.117188 56.769531 19.949219 56.914062 19.777344 C 57.113281 19.535156 57.308594 19.289062 57.507812 19.046875 C 57.652344 18.875 57.796875 18.703125 57.941406 18.53125 C 58.144531 18.285156 58.34375 18.039062 58.546875 17.792969 C 58.679688 17.632812 58.8125 17.472656 58.945312 17.316406 C 59.148438 17.066406 59.347656 16.820312 59.550781 16.574219 C 59.691406 16.40625 59.835938 16.238281 59.972656 16.070312 C 60.167969 15.835938 60.359375 15.59375 60.554688 15.355469 C 60.699219 15.183594 60.84375 15.015625 60.988281 14.839844 C 61.195312 14.589844 61.398438 14.335938 61.605469 14.085938 C 61.863281 13.777344 62.125 13.46875 62.382812 13.160156 C 62.574219 12.929688 62.757812 12.691406 62.949219 12.460938 C 63.085938 12.296875 63.222656 12.132812 63.359375 11.96875 C 63.570312 11.714844 63.78125 11.457031 63.992188 11.203125 C 64.1875 10.964844 64.386719 10.730469 64.582031 10.496094 C 64.777344 10.257812 64.96875 10.019531 65.164062 9.78125 C 65.300781 9.617188 65.4375 9.457031 65.574219 9.292969 C 65.847656 8.960938 66.121094 8.625 66.398438 8.292969 C 66.597656 8.050781 66.804688 7.816406 67.003906 7.574219 C 67.195312 7.339844 67.378906 7.101562 67.570312 6.871094 C 67.765625 6.632812 67.96875 6.402344 68.164062 6.164062 C 68.417969 5.855469 68.671875 5.539062 68.925781 5.230469 C 69.121094 4.992188 69.324219 4.761719 69.519531 4.523438 C 69.714844 4.285156 69.90625 4.046875 70.101562 3.808594 C 70.230469 3.648438 70.367188 3.492188 70.5 3.332031 C 70.765625 3.007812 71.03125 2.683594 71.296875 2.359375 C 71.4375 2.191406 71.582031 2.027344 71.71875 1.855469 C 71.921875 1.609375 72.121094 1.363281 72.328125 1.117188 C 72.367188 1.066406 72.417969 1.023438 72.449219 0.992188 C 72.738281 0.945312 73.011719 0.902344 73.285156 0.863281 C 73.523438 0.832031 73.765625 0.816406 74.003906 0.78125 C 74.210938 0.753906 74.417969 0.714844 74.628906 0.683594 C 74.828125 0.65625 75.027344 0.640625 75.222656 0.609375 C 75.5625 0.5625 75.902344 0.542969 76.234375 0.472656 C 76.375 0.445312 76.519531 0.445312 76.65625 0.429688 C 76.867188 0.402344 77.074219 0.367188 77.285156 0.335938 C 77.414062 0.320312 77.539062 0.304688 77.667969 0.285156 C 77.878906 0.261719 78.089844 0.234375 78.296875 0.207031 C 78.4375 0.1875 78.578125 0.164062 78.714844 0.144531 C 78.964844 0.109375 79.214844 0.0742188 79.464844 0.0390625 C 79.605469 0.0234375 79.746094 0.0117188 79.886719 0 C 79.886719 0.0351562 79.886719 0.0703125 79.886719 0.105469 "/>
</g>
<path style=" stroke:none;fill-rule:nonzero;fill:rgb(86.299133%,20.336914%,23.228455%);fill-opacity:1;" d="M 62.515625 26.851562 C 63.285156 26.828125 63.925781 27.523438 63.902344 28.28125 C 63.878906 29.039062 63.285156 29.644531 62.488281 29.648438 C 61.707031 29.648438 61.085938 29.015625 61.089844 28.242188 C 61.09375 27.476562 61.714844 26.832031 62.515625 26.851562 "/>
<path style=" stroke:none;fill-rule:nonzero;fill:rgb(85.823059%,21.244812%,23.721313%);fill-opacity:1;" d="M 59.046875 28.28125 C 58.820312 28.28125 58.621094 28.285156 58.425781 28.347656 C 58.40625 28.355469 58.378906 28.347656 58.355469 28.351562 C 58.144531 28.363281 57.933594 28.375 57.71875 28.394531 C 57.644531 28.398438 57.570312 28.417969 57.496094 28.425781 C 57.246094 28.460938 56.996094 28.488281 56.742188 28.503906 C 56.425781 28.519531 56.113281 28.578125 55.796875 28.613281 C 55.53125 28.640625 55.265625 28.636719 55 28.640625 C 54.792969 28.640625 54.613281 28.554688 54.46875 28.410156 C 54.410156 28.351562 54.371094 28.277344 54.339844 28.203125 C 54.289062 28.082031 54.351562 27.976562 54.417969 27.890625 C 54.523438 27.753906 54.664062 27.65625 54.847656 27.640625 C 54.964844 27.628906 55.082031 27.601562 55.195312 27.609375 C 55.351562 27.617188 55.507812 27.648438 55.664062 27.671875 C 55.832031 27.695312 56 27.714844 56.167969 27.75 C 56.410156 27.800781 56.664062 27.800781 56.90625 27.878906 C 56.984375 27.902344 57.070312 27.898438 57.152344 27.914062 C 57.328125 27.941406 57.507812 27.964844 57.6875 28 C 57.925781 28.046875 58.171875 28.054688 58.410156 28.125 C 58.535156 28.164062 58.675781 28.164062 58.808594 28.175781 C 58.921875 28.1875 58.921875 28.183594 59.046875 28.28125 "/>
<path style=" stroke:none;fill-rule:nonzero;fill:rgb(85.888672%,20.744324%,23.808289%);fill-opacity:1;" d="M 70.238281 25.804688 C 70.277344 25.863281 70.308594 25.914062 70.332031 25.949219 C 70.375 26.144531 70.328125 26.308594 70.195312 26.433594 C 70.082031 26.542969 69.941406 26.625 69.789062 26.671875 C 69.554688 26.75 69.316406 26.800781 69.070312 26.820312 C 68.890625 26.835938 68.710938 26.871094 68.53125 26.898438 C 68.394531 26.921875 68.253906 26.941406 68.117188 26.960938 C 67.949219 26.984375 67.78125 27.007812 67.613281 27.035156 C 67.492188 27.054688 67.375 27.09375 67.253906 27.101562 C 67.03125 27.117188 66.8125 27.152344 66.59375 27.207031 C 66.503906 27.226562 66.410156 27.230469 66.316406 27.242188 C 66.160156 27.265625 66.007812 27.292969 65.847656 27.3125 C 65.835938 27.316406 65.820312 27.300781 65.785156 27.289062 C 65.816406 27.269531 65.832031 27.257812 65.847656 27.25 C 66.132812 27.121094 66.414062 27 66.695312 26.871094 C 66.894531 26.785156 67.089844 26.695312 67.289062 26.609375 C 67.5625 26.488281 67.835938 26.371094 68.109375 26.25 C 68.542969 26.066406 68.972656 25.863281 69.417969 25.699219 C 69.652344 25.609375 69.910156 25.597656 70.140625 25.746094 C 70.171875 25.765625 70.203125 25.785156 70.238281 25.804688 "/>
<path style=" stroke:none;fill-rule:nonzero;fill:rgb(85.888672%,20.744324%,23.808289%);fill-opacity:1;" d="M 65.453125 26.425781 C 65.519531 26.316406 65.59375 26.257812 65.660156 26.195312 C 65.773438 26.09375 65.898438 26.003906 66.015625 25.90625 C 66.328125 25.640625 66.636719 25.378906 66.945312 25.113281 C 67.0625 25.015625 67.175781 24.90625 67.289062 24.808594 C 67.53125 24.601562 67.773438 24.394531 68.019531 24.1875 C 68.152344 24.074219 68.289062 23.960938 68.429688 23.851562 C 68.566406 23.746094 68.734375 23.703125 68.902344 23.675781 C 69 23.664062 69.109375 23.695312 69.207031 23.707031 C 69.246094 23.742188 69.277344 23.769531 69.308594 23.796875 C 69.476562 23.933594 69.484375 24.121094 69.371094 24.335938 C 69.242188 24.585938 69.027344 24.734375 68.789062 24.851562 C 68.484375 25.003906 68.175781 25.140625 67.867188 25.285156 C 67.757812 25.335938 67.648438 25.394531 67.539062 25.449219 C 67.167969 25.621094 66.796875 25.792969 66.429688 25.96875 C 66.144531 26.101562 65.859375 26.242188 65.574219 26.378906 C 65.546875 26.390625 65.515625 26.402344 65.453125 26.425781 "/>
<path style=" stroke:none;fill-rule:nonzero;fill:rgb(85.884094%,20.788574%,23.527527%);fill-opacity:1;" d="M 60.039062 25.460938 C 59.992188 25.429688 59.9375 25.402344 59.898438 25.363281 C 59.636719 25.117188 59.378906 24.871094 59.121094 24.628906 C 58.757812 24.285156 58.394531 23.949219 58.027344 23.609375 C 57.851562 23.441406 57.675781 23.273438 57.496094 23.113281 C 57.363281 22.996094 57.246094 22.863281 57.144531 22.71875 C 57.042969 22.578125 56.972656 22.414062 56.976562 22.246094 C 56.984375 21.890625 57.226562 21.761719 57.535156 21.832031 C 57.664062 21.859375 57.773438 21.929688 57.871094 22.015625 C 58.050781 22.171875 58.191406 22.363281 58.3125 22.566406 C 58.511719 22.90625 58.71875 23.238281 58.925781 23.574219 C 59.203125 24.023438 59.480469 24.472656 59.757812 24.917969 C 59.832031 25.039062 59.910156 25.15625 59.980469 25.277344 C 60.011719 25.332031 60.023438 25.398438 60.046875 25.457031 L 60.039062 25.460938 "/>
<path style=" stroke:none;fill-rule:nonzero;fill:rgb(85.888672%,20.744324%,23.808289%);fill-opacity:1;" d="M 59.5 26.160156 C 59.4375 26.160156 59.402344 26.171875 59.378906 26.160156 C 58.925781 25.949219 58.476562 25.738281 58.027344 25.523438 C 57.792969 25.410156 57.566406 25.289062 57.335938 25.175781 C 57.105469 25.066406 56.867188 24.964844 56.636719 24.851562 C 56.425781 24.746094 56.21875 24.644531 56.011719 24.53125 C 55.875 24.453125 55.761719 24.335938 55.667969 24.207031 C 55.550781 24.050781 55.488281 23.875 55.59375 23.671875 C 55.707031 23.515625 55.878906 23.429688 56.078125 23.464844 C 56.289062 23.5 56.496094 23.570312 56.667969 23.714844 C 56.925781 23.929688 57.179688 24.152344 57.433594 24.371094 C 57.738281 24.625 58.039062 24.878906 58.339844 25.136719 C 58.550781 25.320312 58.757812 25.507812 58.96875 25.6875 C 59.097656 25.800781 59.230469 25.90625 59.359375 26.015625 C 59.40625 26.054688 59.441406 26.097656 59.5 26.160156 "/>
<path style=" stroke:none;fill-rule:nonzero;fill:rgb(85.884094%,20.788574%,23.527527%);fill-opacity:1;" d="M 61.902344 24.683594 C 61.871094 24.632812 61.84375 24.605469 61.835938 24.574219 C 61.703125 24.074219 61.570312 23.574219 61.433594 23.074219 C 61.371094 22.839844 61.289062 22.605469 61.226562 22.371094 C 61.113281 21.972656 61.019531 21.570312 60.894531 21.175781 C 60.839844 21.011719 60.820312 20.84375 60.804688 20.679688 C 60.789062 20.484375 60.839844 20.285156 60.96875 20.117188 C 61.078125 19.980469 61.226562 19.960938 61.386719 19.996094 C 61.425781 20.007812 61.460938 20.027344 61.488281 20.035156 C 61.660156 20.148438 61.742188 20.316406 61.804688 20.484375 C 61.84375 20.589844 61.863281 20.703125 61.863281 20.8125 C 61.882812 21.410156 61.894531 22.007812 61.898438 22.609375 C 61.902344 23.21875 61.902344 23.832031 61.902344 24.445312 C 61.902344 24.515625 61.902344 24.589844 61.902344 24.683594 "/>
<path style=" stroke:none;fill-rule:nonzero;fill:rgb(85.884094%,20.788574%,23.527527%);fill-opacity:1;" d="M 64.941406 25.671875 C 64.957031 25.617188 64.960938 25.554688 64.992188 25.507812 C 65.371094 24.894531 65.757812 24.285156 66.136719 23.671875 C 66.371094 23.292969 66.589844 22.902344 66.839844 22.535156 C 66.984375 22.320312 67.15625 22.117188 67.429688 22.054688 C 67.527344 22.03125 67.628906 22.027344 67.726562 22.015625 C 67.8125 22.082031 67.890625 22.144531 67.957031 22.195312 C 68.09375 22.574219 67.925781 22.851562 67.707031 23.105469 C 67.402344 23.453125 67.039062 23.742188 66.707031 24.0625 C 66.339844 24.421875 65.957031 24.769531 65.582031 25.121094 C 65.40625 25.28125 65.234375 25.445312 65.058594 25.605469 C 65.027344 25.632812 64.980469 25.652344 64.941406 25.675781 L 64.941406 25.671875 "/>
<path style=" stroke:none;fill-rule:nonzero;fill:rgb(85.888672%,20.744324%,23.808289%);fill-opacity:1;" d="M 70.65625 28.339844 C 70.613281 28.621094 70.414062 28.75 70.167969 28.816406 C 69.914062 28.878906 69.65625 28.878906 69.394531 28.832031 C 69.378906 28.828125 69.359375 28.824219 69.34375 28.824219 C 69.148438 28.808594 68.953125 28.800781 68.761719 28.78125 C 68.640625 28.769531 68.519531 28.742188 68.398438 28.726562 C 68.375 28.722656 68.351562 28.71875 68.328125 28.714844 C 68.144531 28.703125 67.960938 28.695312 67.78125 28.671875 C 67.519531 28.644531 67.257812 28.605469 66.996094 28.574219 C 66.867188 28.558594 66.738281 28.546875 66.609375 28.535156 C 66.410156 28.519531 66.210938 28.511719 66.011719 28.496094 C 65.980469 28.492188 65.949219 28.472656 65.917969 28.441406 C 66.085938 28.410156 66.253906 28.386719 66.421875 28.355469 C 66.6875 28.3125 66.953125 28.261719 67.21875 28.21875 C 67.40625 28.1875 67.601562 28.167969 67.792969 28.140625 C 67.949219 28.113281 68.101562 28.085938 68.257812 28.054688 C 68.367188 28.035156 68.476562 28.015625 68.585938 28 C 68.757812 27.972656 68.933594 27.949219 69.105469 27.917969 C 69.199219 27.90625 69.289062 27.886719 69.382812 27.871094 C 69.65625 27.820312 69.933594 27.78125 70.203125 27.859375 C 70.433594 27.925781 70.613281 28.070312 70.65625 28.339844 "/>
<path style=" stroke:none;fill-rule:nonzero;fill:rgb(85.888672%,20.744324%,23.808289%);fill-opacity:1;" d="M 58.71875 21.320312 C 58.71875 21.210938 58.71875 21.09375 58.71875 20.972656 C 58.757812 20.835938 58.855469 20.753906 58.964844 20.664062 C 59.035156 20.664062 59.113281 20.660156 59.191406 20.667969 C 59.257812 20.675781 59.339844 20.683594 59.390625 20.722656 C 59.550781 20.859375 59.71875 21 59.789062 21.210938 C 59.863281 21.414062 59.9375 21.613281 60.003906 21.816406 C 60.175781 22.34375 60.34375 22.871094 60.511719 23.398438 C 60.621094 23.742188 60.722656 24.089844 60.835938 24.433594 C 60.886719 24.582031 60.949219 24.726562 61 24.875 C 61.003906 24.886719 60.992188 24.90625 60.976562 24.9375 C 60.867188 24.777344 60.761719 24.632812 60.664062 24.480469 C 60.46875 24.183594 60.273438 23.882812 60.082031 23.582031 C 59.828125 23.191406 59.578125 22.800781 59.324219 22.414062 C 59.183594 22.199219 59.042969 21.980469 58.90625 21.765625 C 58.859375 21.691406 58.828125 21.609375 58.792969 21.527344 C 58.769531 21.46875 58.75 21.40625 58.71875 21.320312 "/>
<path style=" stroke:none;fill-rule:nonzero;fill:rgb(85.888672%,20.744324%,23.808289%);fill-opacity:1;" d="M 63.976562 25.121094 C 64 25.070312 64.027344 25.019531 64.042969 24.96875 C 64.1875 24.5 64.332031 24.03125 64.480469 23.566406 C 64.597656 23.199219 64.722656 22.835938 64.84375 22.46875 C 64.933594 22.1875 65.023438 21.90625 65.121094 21.625 C 65.195312 21.40625 65.296875 21.207031 65.46875 21.042969 C 65.574219 20.945312 65.695312 20.882812 65.824219 20.855469 C 65.953125 20.832031 66.085938 20.882812 66.167969 20.992188 C 66.226562 21.070312 66.261719 21.164062 66.269531 21.269531 C 66.285156 21.566406 66.1875 21.824219 66.03125 22.066406 C 65.804688 22.417969 65.585938 22.769531 65.359375 23.117188 C 65.089844 23.527344 64.816406 23.929688 64.546875 24.335938 C 64.378906 24.589844 64.214844 24.84375 64.046875 25.101562 C 64.039062 25.113281 64.023438 25.125 64.015625 25.136719 C 64.003906 25.132812 63.988281 25.125 63.976562 25.121094 "/>
<path style=" stroke:none;fill-rule:nonzero;fill:rgb(85.888672%,20.744324%,23.808289%);fill-opacity:1;" d="M 59.199219 27.097656 C 59.089844 27.085938 58.976562 27.082031 58.871094 27.0625 C 58.640625 27.019531 58.410156 26.976562 58.175781 26.957031 C 58.003906 26.941406 57.832031 26.890625 57.660156 26.859375 C 57.546875 26.84375 57.425781 26.835938 57.3125 26.816406 C 57.109375 26.785156 56.90625 26.753906 56.707031 26.722656 C 56.589844 26.703125 56.472656 26.691406 56.355469 26.671875 C 56.144531 26.640625 55.929688 26.589844 55.71875 26.574219 C 55.53125 26.5625 55.359375 26.515625 55.1875 26.457031 C 55.003906 26.398438 54.859375 26.292969 54.734375 26.144531 C 54.558594 25.933594 54.628906 25.625 54.910156 25.503906 C 55.097656 25.425781 55.289062 25.414062 55.488281 25.46875 C 55.714844 25.53125 55.929688 25.621094 56.140625 25.722656 C 56.363281 25.828125 56.589844 25.925781 56.816406 26.027344 C 57.050781 26.128906 57.289062 26.226562 57.523438 26.328125 C 57.90625 26.492188 58.285156 26.660156 58.667969 26.828125 C 58.847656 26.910156 59.027344 26.996094 59.207031 27.078125 C 59.207031 27.085938 59.203125 27.09375 59.199219 27.097656 "/>
<path style=" stroke:none;fill-rule:nonzero;fill:rgb(86.300659%,20.289612%,23.504639%);fill-opacity:1;" d="M 63.707031 20.167969 C 63.746094 20.179688 63.78125 20.195312 63.816406 20.203125 C 63.96875 20.25 64.070312 20.351562 64.117188 20.5 C 64.175781 20.6875 64.199219 20.867188 64.164062 21.070312 C 64.097656 21.433594 63.972656 21.78125 63.886719 22.136719 C 63.8125 22.429688 63.734375 22.722656 63.652344 23.011719 C 63.59375 23.21875 63.519531 23.421875 63.460938 23.632812 C 63.410156 23.804688 63.371094 23.980469 63.320312 24.15625 C 63.261719 24.371094 63.195312 24.589844 63.132812 24.808594 C 63.0625 24.804688 63.085938 24.753906 63.085938 24.71875 C 63.085938 24.265625 63.066406 23.8125 63.089844 23.359375 C 63.128906 22.589844 63.101562 21.816406 63.117188 21.042969 C 63.125 20.777344 63.210938 20.539062 63.390625 20.335938 C 63.476562 20.242188 63.585938 20.207031 63.707031 20.167969 "/>
<path style=" stroke:none;fill-rule:nonzero;fill:rgb(58.668518%,58.178711%,34.272766%);fill-opacity:1;" d="M 60.148438 25.566406 C 60.101562 25.570312 60.074219 25.554688 60.078125 25.503906 C 60.078125 25.488281 60.082031 25.472656 60.082031 25.457031 C 60.128906 25.476562 60.15625 25.511719 60.152344 25.566406 L 60.148438 25.566406 "/>
<path style=" stroke:none;fill-rule:nonzero;fill:rgb(85.884094%,20.788574%,23.527527%);fill-opacity:1;" d="M 64.941406 25.675781 C 64.925781 25.695312 64.910156 25.71875 64.886719 25.753906 C 64.863281 25.683594 64.894531 25.667969 64.941406 25.671875 L 64.941406 25.675781 "/>
<path style=" stroke:none;fill-rule:nonzero;fill:rgb(85.888672%,20.744324%,23.808289%);fill-opacity:1;" d="M 59.550781 26.238281 C 59.535156 26.222656 59.519531 26.210938 59.503906 26.199219 C 59.507812 26.191406 59.515625 26.183594 59.523438 26.175781 C 59.539062 26.1875 59.558594 26.203125 59.578125 26.214844 C 59.570312 26.222656 59.558594 26.230469 59.550781 26.238281 "/>
<path style=" stroke:none;fill-rule:nonzero;fill:rgb(85.884094%,20.788574%,23.527527%);fill-opacity:1;" d="M 60.082031 25.457031 C 60.082031 25.472656 60.078125 25.488281 60.078125 25.503906 C 60.066406 25.488281 60.054688 25.472656 60.039062 25.460938 L 60.046875 25.457031 C 60.058594 25.457031 60.070312 25.457031 60.082031 25.457031 "/>
<path style=" stroke:none;fill-rule:nonzero;fill:rgb(58.668518%,58.178711%,34.272766%);fill-opacity:1;" d="M 60.183594 25.601562 C 60.171875 25.589844 60.160156 25.578125 60.148438 25.566406 L 60.152344 25.566406 C 60.160156 25.578125 60.171875 25.589844 60.183594 25.601562 "/>
<path style=" stroke:none;fill-rule:nonzero;fill:rgb(58.668518%,58.178711%,34.272766%);fill-opacity:1;" d="M 60.183594 25.601562 C 60.195312 25.605469 60.207031 25.613281 60.214844 25.617188 C 60.207031 25.613281 60.195312 25.605469 60.183594 25.601562 "/>
</g>
</svg>
