<?xml version="1.0" encoding="UTF-8"?>
<svg xmlns="http://www.w3.org/2000/svg" xmlns:xlink="http://www.w3.org/1999/xlink" width="174.97pt" height="28.86pt" viewBox="0 0 174.97 28.86" version="1.1">
<defs>
<clipPath id="clip1">
  <path d="M 157 0 L 174.96875 0 L 174.96875 17 L 157 17 Z M 157 0 "/>
</clipPath>
<clipPath id="clip2">
  <path d="M 7 1 L 90 1 L 90 28.859375 L 7 28.859375 Z M 7 1 "/>
</clipPath>
<clipPath id="clip3">
  <path d="M 0 0 L 82 0 L 82 28.859375 L 0 28.859375 Z M 0 0 "/>
</clipPath>
</defs>
<g id="surface1">
<path style=" stroke:none;fill-rule:nonzero;fill:rgb(13.343811%,14.822388%,37.420654%);fill-opacity:1;" d="M 82.046875 5.015625 L 83.222656 4.675781 C 83.386719 4.632812 83.554688 4.59375 83.730469 4.5625 C 83.902344 4.53125 84.101562 4.519531 84.328125 4.519531 L 87.921875 4.472656 L 87.222656 5.804688 L 84.328125 5.738281 C 83.90625 5.738281 83.542969 5.691406 83.242188 5.601562 L 82.046875 5.261719 L 80.214844 5.261719 L 80.351562 5.015625 Z M 81.253906 6.484375 L 82.429688 6.144531 C 82.597656 6.097656 82.765625 6.0625 82.9375 6.03125 C 83.113281 6 83.3125 5.988281 83.539062 5.988281 L 87.132812 5.917969 L 86.429688 7.273438 L 83.539062 7.207031 C 83.117188 7.207031 82.753906 7.164062 82.453125 7.070312 L 81.253906 6.730469 L 79.425781 6.730469 L 79.558594 6.484375 Z M 80.488281 7.953125 L 81.640625 7.613281 C 81.804688 7.566406 81.972656 7.53125 82.148438 7.5 C 82.320312 7.472656 82.519531 7.457031 82.746094 7.457031 L 86.363281 7.386719 L 85.640625 8.746094 L 82.746094 8.675781 C 82.234375 8.675781 81.78125 8.601562 81.390625 8.449219 C 81.164062 8.359375 80.996094 8.300781 80.882812 8.269531 C 80.769531 8.238281 80.636719 8.21875 80.488281 8.203125 L 78.632812 8.203125 L 78.769531 7.953125 Z M 79.71875 9.398438 C 79.851562 9.398438 80.238281 9.292969 80.871094 9.082031 C 81.035156 9.039062 81.207031 9 81.378906 8.96875 C 81.550781 8.941406 81.753906 8.925781 81.976562 8.925781 L 85.59375 8.859375 L 84.871094 10.214844 L 81.976562 10.144531 C 81.480469 10.144531 81.042969 10.070312 80.667969 9.921875 C 80.289062 9.769531 79.972656 9.679688 79.71875 9.648438 L 77.863281 9.648438 L 78 9.398438 Z M 79.355469 0.605469 C 79.613281 0.605469 79.882812 0.546875 80.167969 0.425781 C 80.9375 0.140625 81.511719 -0.00390625 81.886719 -0.00390625 L 93.125 -0.00390625 L 92.375 1.398438 L 81.617188 1.332031 C 81.105469 1.332031 80.652344 1.253906 80.261719 1.105469 C 80.035156 1.011719 79.863281 0.953125 79.75 0.921875 C 79.640625 0.894531 79.507812 0.871094 79.355469 0.855469 L 77.503906 0.855469 L 77.636719 0.605469 Z M 78.925781 10.867188 C 78.988281 10.867188 79.109375 10.847656 79.300781 10.800781 C 79.488281 10.753906 79.753906 10.671875 80.101562 10.554688 C 80.269531 10.507812 80.4375 10.46875 80.609375 10.441406 C 80.785156 10.410156 80.984375 10.394531 81.210938 10.394531 L 84.804688 10.328125 L 84.101562 11.683594 L 81.210938 11.617188 C 80.714844 11.617188 80.269531 11.53125 79.875 11.367188 C 79.679688 11.289062 79.515625 11.234375 79.378906 11.195312 C 79.242188 11.160156 79.09375 11.132812 78.925781 11.117188 L 77.074219 11.117188 L 77.230469 10.867188 Z M 78.566406 2.074219 L 79.738281 1.738281 C 79.90625 1.691406 80.074219 1.65625 80.25 1.625 C 80.421875 1.59375 80.621094 1.578125 80.847656 1.578125 L 92.308594 1.535156 L 91.585938 2.867188 L 80.847656 2.800781 C 80.425781 2.800781 80.066406 2.753906 79.761719 2.664062 L 78.566406 2.324219 L 76.734375 2.324219 L 76.871094 2.074219 Z M 78.136719 12.339844 C 78.195312 12.339844 78.320312 12.316406 78.507812 12.269531 C 78.695312 12.226562 78.964844 12.140625 79.3125 12.019531 C 79.476562 11.976562 79.648438 11.9375 79.820312 11.910156 C 79.992188 11.878906 80.191406 11.863281 80.417969 11.863281 L 84.011719 11.792969 L 83.3125 13.128906 L 80.417969 13.085938 C 79.921875 13.085938 79.476562 13 79.085938 12.835938 C 78.890625 12.761719 78.722656 12.703125 78.589844 12.667969 C 78.453125 12.628906 78.300781 12.601562 78.136719 12.585938 L 76.304688 12.585938 L 76.441406 12.339844 Z M 77.796875 3.546875 L 78.949219 3.207031 C 79.113281 3.160156 79.285156 3.125 79.457031 3.09375 C 79.632812 3.0625 79.832031 3.046875 80.054688 3.046875 L 91.542969 3.003906 L 90.792969 4.40625 L 79.785156 4.40625 C 79.46875 4.40625 79.125 4.308594 78.757812 4.121094 C 78.386719 3.933594 78.070312 3.824219 77.796875 3.792969 L 75.945312 3.792969 L 76.078125 3.546875 Z M 77.367188 13.808594 C 77.503906 13.808594 77.886719 13.703125 78.519531 13.492188 C 78.683594 13.445312 78.855469 13.410156 79.027344 13.378906 C 79.203125 13.347656 79.402344 13.332031 79.628906 13.332031 L 83.242188 13.265625 L 82.519531 14.597656 L 79.628906 14.554688 C 79.128906 14.554688 78.695312 14.476562 78.316406 14.328125 C 77.941406 14.175781 77.621094 14.085938 77.367188 14.054688 L 75.511719 14.054688 L 75.648438 13.808594 Z M 76.578125 15.277344 C 76.636719 15.277344 76.761719 15.253906 76.949219 15.207031 C 77.136719 15.164062 77.40625 15.082031 77.75 14.960938 C 77.917969 14.914062 78.085938 14.878906 78.261719 14.847656 C 78.433594 14.816406 78.632812 14.800781 78.859375 14.800781 L 82.476562 14.734375 L 81.730469 16.136719 L 78.566406 16.136719 C 78.308594 16.136719 77.894531 16 77.320312 15.726562 C 77.050781 15.59375 76.800781 15.523438 76.578125 15.523438 L 74.746094 15.523438 L 74.882812 15.277344 L 76.578125 15.277344 "/>
<path style=" stroke:none;fill-rule:nonzero;fill:rgb(13.343811%,14.822388%,37.420654%);fill-opacity:1;" d="M 101.507812 5.015625 L 102.683594 4.675781 C 102.847656 4.632812 103.019531 4.59375 103.191406 4.5625 C 103.367188 4.53125 103.566406 4.519531 103.792969 4.519531 L 106.140625 4.472656 C 106.140625 4.636719 106.097656 4.855469 106.007812 5.128906 C 105.960938 5.367188 105.863281 5.59375 105.714844 5.804688 L 103.792969 5.738281 C 103.371094 5.738281 103.007812 5.691406 102.707031 5.601562 L 101.507812 5.261719 L 99.679688 5.261719 L 99.8125 5.015625 Z M 98.210938 15.277344 C 98.34375 15.277344 98.726562 15.171875 99.359375 14.960938 C 99.527344 14.914062 99.695312 14.878906 99.871094 14.847656 C 100.042969 14.816406 100.242188 14.800781 100.46875 14.800781 L 103.609375 14.734375 L 104.109375 16.136719 L 100.199219 16.136719 C 99.925781 16.136719 99.503906 16 98.933594 15.726562 C 98.660156 15.59375 98.421875 15.523438 98.210938 15.523438 L 96.355469 15.523438 L 96.492188 15.277344 Z M 97.664062 13.808594 C 97.726562 13.808594 97.851562 13.785156 98.039062 13.738281 C 98.226562 13.695312 98.496094 13.609375 98.839844 13.492188 C 99.007812 13.445312 99.175781 13.410156 99.347656 13.378906 C 99.523438 13.347656 99.722656 13.332031 99.949219 13.332031 L 103.066406 13.265625 L 103.566406 14.597656 L 99.949219 14.554688 C 99.453125 14.554688 99.007812 14.472656 98.617188 14.304688 C 98.421875 14.230469 98.253906 14.171875 98.117188 14.136719 C 97.984375 14.097656 97.832031 14.070312 97.664062 14.054688 L 95.835938 14.054688 L 95.96875 13.808594 Z M 97.144531 12.339844 C 97.207031 12.339844 97.332031 12.316406 97.519531 12.269531 C 97.707031 12.226562 97.976562 12.140625 98.324219 12.019531 C 98.488281 11.976562 98.65625 11.9375 98.832031 11.910156 C 99.003906 11.878906 99.203125 11.863281 99.429688 11.863281 L 102.570312 11.792969 L 103.023438 13.128906 L 99.429688 13.085938 C 98.933594 13.085938 98.488281 13 98.097656 12.835938 C 97.898438 12.761719 97.734375 12.703125 97.597656 12.667969 C 97.460938 12.628906 97.3125 12.601562 97.144531 12.585938 L 95.316406 12.585938 L 95.453125 12.339844 Z M 94.796875 0.605469 C 94.960938 0.605469 95.089844 0.601562 95.179688 0.585938 C 95.269531 0.570312 95.421875 0.515625 95.632812 0.425781 C 96.402344 0.140625 96.972656 -0.00390625 97.351562 -0.00390625 L 102.457031 -0.00390625 C 103.285156 -0.00390625 103.980469 0.140625 104.535156 0.425781 C 104.855469 0.59375 105.230469 0.914062 105.667969 1.398438 L 97.078125 1.332031 C 96.65625 1.332031 96.296875 1.285156 95.992188 1.195312 L 94.796875 0.855469 L 92.964844 0.855469 L 93.101562 0.605469 Z M 94.027344 2.074219 L 95.203125 1.738281 C 95.367188 1.691406 95.539062 1.65625 95.710938 1.625 C 95.882812 1.59375 96.082031 1.578125 96.308594 1.578125 L 105.734375 1.535156 L 105.984375 2.007812 L 106.210938 2.867188 L 96.308594 2.800781 C 95.886719 2.800781 95.527344 2.753906 95.226562 2.664062 L 94.027344 2.324219 L 92.195312 2.324219 L 92.332031 2.074219 Z M 93.257812 3.546875 L 94.410156 3.207031 C 94.578125 3.160156 94.746094 3.125 94.921875 3.09375 C 95.09375 3.0625 95.292969 3.046875 95.519531 3.046875 L 106.230469 3.003906 L 106.230469 3.410156 L 106.164062 4.335938 L 95.519531 4.269531 C 95.007812 4.269531 94.554688 4.195312 94.160156 4.042969 C 93.9375 3.953125 93.765625 3.890625 93.652344 3.863281 C 93.539062 3.832031 93.410156 3.808594 93.257812 3.792969 L 91.40625 3.792969 L 91.542969 3.546875 Z M 92.488281 5.015625 L 93.644531 4.675781 C 93.808594 4.632812 93.976562 4.59375 94.152344 4.5625 C 94.324219 4.53125 94.523438 4.519531 94.75 4.519531 L 98.367188 4.472656 L 97.644531 5.804688 L 94.75 5.738281 C 94.238281 5.738281 93.785156 5.664062 93.394531 5.511719 C 93.167969 5.421875 93 5.363281 92.886719 5.332031 C 92.773438 5.300781 92.640625 5.277344 92.488281 5.261719 L 90.636719 5.261719 L 90.773438 5.015625 Z M 91.699219 6.484375 L 92.875 6.144531 C 93.039062 6.097656 93.210938 6.0625 93.382812 6.03125 C 93.554688 6 93.753906 5.988281 93.980469 5.988281 L 105.667969 5.917969 L 105.304688 6.621094 L 104.785156 7.273438 L 93.980469 7.207031 C 93.558594 7.207031 93.199219 7.164062 92.898438 7.070312 L 91.699219 6.730469 L 89.847656 6.730469 L 90.003906 6.484375 Z M 93.191406 7.457031 L 104.695312 7.386719 C 104.453125 7.675781 104.191406 7.929688 103.90625 8.15625 L 103.066406 8.746094 L 93.191406 8.675781 C 92.933594 8.675781 92.6875 8.652344 92.445312 8.609375 C 92.203125 8.5625 91.941406 8.480469 91.652344 8.359375 C 91.414062 8.285156 91.171875 8.234375 90.929688 8.203125 L 89.078125 8.203125 L 89.210938 7.953125 L 90.929688 7.953125 L 92.082031 7.613281 C 92.25 7.566406 92.417969 7.53125 92.589844 7.5 C 92.765625 7.472656 92.964844 7.457031 93.191406 7.457031 Z M 92.421875 8.925781 L 102.820312 8.859375 L 101.710938 9.375 L 102.003906 10.214844 L 92.421875 10.144531 C 91.925781 10.144531 91.480469 10.0625 91.089844 9.898438 C 90.890625 9.820312 90.726562 9.765625 90.589844 9.726562 C 90.457031 9.691406 90.304688 9.664062 90.140625 9.648438 L 88.304688 9.648438 L 88.445312 9.398438 L 90.140625 9.398438 C 90.199219 9.398438 90.324219 9.375 90.511719 9.332031 C 90.699219 9.285156 90.96875 9.203125 91.316406 9.082031 C 91.480469 9.039062 91.648438 9 91.824219 8.96875 C 91.996094 8.941406 92.195312 8.925781 92.421875 8.925781 Z M 89.347656 10.867188 C 89.410156 10.867188 89.53125 10.847656 89.722656 10.800781 C 89.910156 10.753906 90.175781 10.671875 90.523438 10.554688 C 90.6875 10.507812 90.859375 10.46875 91.03125 10.441406 C 91.207031 10.410156 91.40625 10.394531 91.632812 10.394531 L 95.226562 10.328125 L 94.933594 10.867188 L 96.648438 10.867188 C 96.785156 10.867188 97.167969 10.765625 97.800781 10.554688 C 97.96875 10.507812 98.136719 10.46875 98.3125 10.441406 C 98.484375 10.410156 98.683594 10.394531 98.910156 10.394531 L 102.027344 10.328125 L 102.503906 11.683594 L 98.910156 11.617188 C 98.414062 11.617188 97.976562 11.539062 97.597656 11.390625 C 97.222656 11.238281 96.90625 11.148438 96.648438 11.117188 L 94.796875 11.117188 L 94.523438 11.683594 L 91.632812 11.617188 C 91.132812 11.617188 90.6875 11.53125 90.296875 11.367188 C 90.101562 11.289062 89.9375 11.234375 89.800781 11.195312 C 89.664062 11.160156 89.515625 11.132812 89.347656 11.117188 L 87.515625 11.117188 L 87.652344 10.867188 Z M 88.558594 12.339844 C 88.617188 12.339844 88.742188 12.316406 88.929688 12.269531 C 89.117188 12.226562 89.386719 12.140625 89.734375 12.019531 C 89.898438 11.976562 90.066406 11.9375 90.242188 11.910156 C 90.414062 11.878906 90.613281 11.863281 90.839844 11.863281 L 94.433594 11.792969 L 93.734375 13.128906 L 90.839844 13.085938 C 90.34375 13.085938 89.898438 13 89.507812 12.835938 C 89.308594 12.761719 89.144531 12.703125 89.007812 12.667969 C 88.875 12.628906 88.722656 12.601562 88.558594 12.585938 L 86.722656 12.585938 L 86.859375 12.339844 Z M 87.785156 13.808594 C 87.921875 13.808594 88.304688 13.703125 88.941406 13.492188 C 89.105469 13.445312 89.277344 13.410156 89.449219 13.378906 C 89.625 13.347656 89.824219 13.332031 90.046875 13.332031 L 93.664062 13.265625 L 92.941406 14.597656 L 90.046875 14.554688 C 89.550781 14.554688 89.113281 14.476562 88.738281 14.328125 C 88.359375 14.175781 88.042969 14.085938 87.785156 14.054688 L 85.933594 14.054688 L 86.070312 13.808594 Z M 87.019531 15.277344 C 87.15625 15.277344 87.539062 15.171875 88.171875 14.960938 C 88.339844 14.914062 88.507812 14.878906 88.679688 14.847656 C 88.855469 14.816406 89.054688 14.800781 89.28125 14.800781 L 92.898438 14.734375 L 92.152344 16.136719 L 89.007812 16.136719 C 88.738281 16.136719 88.316406 16 87.742188 15.726562 C 87.46875 15.59375 87.230469 15.523438 87.019531 15.523438 L 85.164062 15.523438 L 85.300781 15.277344 L 87.019531 15.277344 "/>
<path style=" stroke:none;fill-rule:nonzero;fill:rgb(13.343811%,14.822388%,37.420654%);fill-opacity:1;" d="M 119.34375 12.339844 C 119.402344 12.339844 119.527344 12.316406 119.714844 12.269531 C 119.902344 12.226562 120.171875 12.140625 120.519531 12.019531 C 120.683594 11.976562 120.851562 11.9375 121.027344 11.910156 C 121.199219 11.878906 121.398438 11.863281 121.625 11.863281 L 125.355469 11.792969 L 125.105469 13.128906 L 121.625 13.085938 C 121.128906 13.085938 120.683594 13 120.292969 12.835938 C 120.09375 12.761719 119.929688 12.703125 119.792969 12.667969 C 119.65625 12.628906 119.507812 12.601562 119.34375 12.585938 L 117.511719 12.585938 L 117.648438 12.339844 Z M 119.09375 13.808594 C 119.230469 13.808594 119.613281 13.703125 120.246094 13.492188 C 120.414062 13.445312 120.582031 13.410156 120.753906 13.378906 C 120.925781 13.347656 121.128906 13.332031 121.355469 13.332031 L 125.082031 13.265625 L 124.835938 14.597656 L 121.355469 14.554688 C 120.855469 14.554688 120.417969 14.476562 120.042969 14.328125 C 119.664062 14.175781 119.347656 14.085938 119.09375 14.054688 L 117.238281 14.054688 L 117.375 13.808594 Z M 118.824219 15.277344 C 118.882812 15.277344 119.007812 15.253906 119.195312 15.207031 C 119.382812 15.164062 119.648438 15.082031 119.996094 14.960938 C 120.164062 14.914062 120.332031 14.878906 120.507812 14.847656 C 120.679688 14.816406 120.878906 14.800781 121.105469 14.800781 L 124.8125 14.734375 L 124.5625 16.136719 L 120.8125 16.136719 C 120.554688 16.136719 120.140625 16 119.566406 15.726562 C 119.296875 15.59375 119.046875 15.523438 118.824219 15.523438 L 116.992188 15.523438 L 117.128906 15.277344 Z M 118.597656 0.605469 C 118.761719 0.605469 118.890625 0.601562 118.980469 0.585938 C 119.070312 0.570312 119.222656 0.515625 119.433594 0.425781 C 120.203125 0.140625 120.773438 -0.00390625 121.148438 -0.00390625 L 127.480469 -0.00390625 L 127.230469 1.398438 L 120.878906 1.332031 C 120.457031 1.332031 120.09375 1.285156 119.792969 1.195312 L 118.597656 0.855469 L 116.765625 0.855469 L 116.902344 0.605469 Z M 117.351562 2.074219 L 118.527344 1.738281 C 118.695312 1.691406 118.863281 1.65625 119.035156 1.625 C 119.210938 1.59375 119.410156 1.578125 119.636719 1.578125 L 127.207031 1.535156 L 126.960938 2.867188 L 119.636719 2.800781 C 119.214844 2.800781 118.851562 2.753906 118.550781 2.664062 L 117.351562 2.324219 L 115.523438 2.324219 L 115.65625 2.074219 Z M 116.109375 3.546875 L 117.285156 3.207031 C 117.449219 3.160156 117.621094 3.125 117.792969 3.09375 C 117.964844 3.0625 118.167969 3.046875 118.394531 3.046875 L 126.9375 3.003906 L 126.6875 4.335938 L 118.394531 4.269531 C 117.96875 4.269531 117.609375 4.222656 117.308594 4.132812 L 116.109375 3.792969 L 114.277344 3.792969 L 114.414062 3.546875 Z M 114.890625 5.015625 L 116.042969 4.675781 C 116.207031 4.632812 116.375 4.59375 116.550781 4.5625 C 116.722656 4.53125 116.925781 4.519531 117.148438 4.519531 L 121.761719 4.472656 L 121.464844 4.8125 L 122.03125 4.632812 C 122.289062 4.570312 122.484375 4.535156 122.621094 4.527344 C 122.753906 4.519531 122.859375 4.519531 122.9375 4.519531 L 126.6875 4.472656 L 126.4375 5.804688 L 122.9375 5.738281 C 122.527344 5.738281 122.167969 5.691406 121.851562 5.601562 L 121.058594 5.308594 L 120.628906 5.804688 L 117.148438 5.738281 C 116.894531 5.738281 116.644531 5.714844 116.402344 5.671875 C 116.160156 5.625 115.898438 5.542969 115.613281 5.421875 C 115.371094 5.347656 115.128906 5.292969 114.890625 5.261719 L 113.035156 5.261719 L 113.171875 5.015625 Z M 113.625 6.484375 L 114.796875 6.144531 C 114.964844 6.097656 115.132812 6.0625 115.308594 6.03125 C 115.480469 6 115.679688 5.988281 115.90625 5.988281 L 120.519531 5.917969 L 120.066406 6.484375 L 120.40625 6.484375 L 121.578125 6.144531 C 121.746094 6.097656 121.914062 6.0625 122.089844 6.03125 C 122.261719 6 122.460938 5.988281 122.6875 5.988281 L 126.417969 5.917969 L 126.167969 7.273438 L 122.6875 7.207031 C 122.265625 7.207031 121.902344 7.164062 121.601562 7.070312 L 120.40625 6.730469 L 119.863281 6.730469 L 119.386719 7.273438 L 115.90625 7.207031 C 115.484375 7.207031 115.125 7.164062 114.820312 7.070312 L 113.625 6.730469 L 111.792969 6.730469 L 111.929688 6.484375 Z M 112.402344 7.953125 L 113.554688 7.613281 C 113.722656 7.566406 113.890625 7.53125 114.0625 7.5 C 114.238281 7.472656 114.4375 7.457031 114.664062 7.457031 L 119.273438 7.386719 L 118.824219 7.953125 L 120.132812 7.953125 L 121.308594 7.613281 C 121.472656 7.566406 121.644531 7.53125 121.816406 7.5 C 121.992188 7.472656 122.191406 7.457031 122.417969 7.457031 L 126.144531 7.386719 L 125.898438 8.746094 L 122.417969 8.675781 C 121.996094 8.675781 121.632812 8.632812 121.332031 8.539062 L 120.132812 8.203125 L 118.621094 8.203125 L 118.167969 8.746094 L 114.664062 8.675781 C 114.40625 8.675781 114.160156 8.652344 113.917969 8.609375 C 113.675781 8.5625 113.414062 8.480469 113.125 8.359375 C 112.882812 8.285156 112.644531 8.234375 112.402344 8.203125 L 110.550781 8.203125 L 110.683594 7.953125 Z M 111.160156 9.398438 C 111.28125 9.398438 111.746094 9.261719 112.5625 8.992188 C 112.96875 8.859375 113.351562 8.789062 113.714844 8.789062 L 125.898438 8.789062 L 125.648438 10.214844 L 113.421875 10.144531 C 112.921875 10.144531 112.484375 10.070312 112.109375 9.921875 C 111.734375 9.769531 111.414062 9.679688 111.160156 9.648438 L 109.304688 9.648438 L 109.441406 9.398438 Z M 109.917969 10.867188 C 109.976562 10.867188 110.101562 10.847656 110.289062 10.800781 C 110.476562 10.753906 110.746094 10.671875 111.089844 10.554688 C 111.257812 10.507812 111.425781 10.46875 111.601562 10.441406 C 111.773438 10.410156 111.972656 10.394531 112.199219 10.394531 L 125.601562 10.328125 L 125.355469 11.726562 L 111.90625 11.726562 C 111.648438 11.726562 111.234375 11.59375 110.664062 11.320312 C 110.390625 11.183594 110.144531 11.117188 109.917969 11.117188 L 108.085938 11.117188 L 108.222656 10.867188 Z M 108.671875 12.339844 C 108.734375 12.339844 108.859375 12.316406 109.046875 12.269531 C 109.234375 12.226562 109.5 12.140625 109.847656 12.019531 C 110.015625 11.976562 110.183594 11.9375 110.355469 11.910156 C 110.53125 11.878906 110.730469 11.863281 110.957031 11.863281 L 115.589844 11.792969 L 114.460938 13.128906 L 110.957031 13.085938 C 110.460938 13.085938 110.015625 13 109.621094 12.835938 C 109.425781 12.761719 109.261719 12.703125 109.125 12.667969 C 108.988281 12.628906 108.839844 12.601562 108.671875 12.585938 L 106.84375 12.585938 L 106.976562 12.339844 Z M 107.429688 13.808594 C 107.488281 13.808594 107.613281 13.785156 107.800781 13.738281 C 107.992188 13.695312 108.257812 13.609375 108.605469 13.492188 C 108.769531 13.445312 108.941406 13.410156 109.113281 13.378906 C 109.285156 13.347656 109.488281 13.332031 109.714844 13.332031 L 114.347656 13.265625 L 113.214844 14.597656 L 109.714844 14.554688 C 109.214844 14.554688 108.769531 14.472656 108.378906 14.304688 C 108.183594 14.230469 108.019531 14.171875 107.882812 14.136719 C 107.746094 14.097656 107.59375 14.070312 107.429688 14.054688 L 105.597656 14.054688 L 105.734375 13.808594 Z M 106.1875 15.277344 C 106.246094 15.277344 106.371094 15.253906 106.558594 15.207031 C 106.75 15.164062 107.015625 15.082031 107.363281 14.960938 C 107.527344 14.914062 107.695312 14.878906 107.871094 14.847656 C 108.042969 14.816406 108.246094 14.800781 108.46875 14.800781 L 113.101562 14.734375 L 111.929688 16.136719 L 108.175781 16.136719 C 107.917969 16.136719 107.503906 16 106.933594 15.726562 C 106.664062 15.59375 106.414062 15.523438 106.1875 15.523438 L 104.355469 15.523438 L 104.492188 15.277344 L 106.1875 15.277344 "/>
<path style=" stroke:none;fill-rule:nonzero;fill:rgb(13.343811%,14.822388%,37.420654%);fill-opacity:1;" d="M 140.882812 0.605469 C 141.046875 0.605469 141.175781 0.601562 141.265625 0.585938 C 141.355469 0.570312 141.507812 0.515625 141.71875 0.425781 C 142.488281 0.140625 143.058594 -0.00390625 143.4375 -0.00390625 L 147.824219 -0.00390625 L 146.644531 1.398438 L 143.164062 1.332031 C 142.746094 1.332031 142.382812 1.285156 142.082031 1.195312 L 140.882812 0.855469 L 139.050781 0.855469 L 139.1875 0.605469 Z M 139.640625 2.074219 L 140.816406 1.738281 C 140.980469 1.691406 141.152344 1.65625 141.324219 1.625 C 141.496094 1.59375 141.695312 1.578125 141.921875 1.578125 L 146.535156 1.535156 L 145.402344 2.867188 L 141.921875 2.800781 C 141.5 2.800781 141.140625 2.753906 140.835938 2.664062 L 139.640625 2.324219 L 137.808594 2.324219 L 137.945312 2.074219 Z M 138.394531 3.546875 L 139.570312 3.207031 C 139.738281 3.160156 139.90625 3.125 140.082031 3.09375 C 140.253906 3.0625 140.453125 3.046875 140.679688 3.046875 L 145.289062 3.003906 L 144.160156 4.335938 L 140.679688 4.269531 C 140.257812 4.269531 139.894531 4.222656 139.59375 4.132812 L 138.394531 3.792969 L 136.566406 3.792969 L 136.703125 3.546875 Z M 137.175781 5.015625 L 138.328125 4.675781 C 138.492188 4.632812 138.664062 4.59375 138.835938 4.5625 C 139.011719 4.53125 139.210938 4.519531 139.4375 4.519531 L 144.070312 4.472656 L 142.941406 5.804688 L 139.4375 5.738281 C 138.921875 5.738281 138.472656 5.664062 138.078125 5.511719 C 137.855469 5.421875 137.683594 5.363281 137.570312 5.332031 C 137.457031 5.300781 137.328125 5.277344 137.175781 5.261719 L 135.320312 5.261719 L 135.457031 5.015625 Z M 128.632812 0.605469 C 128.796875 0.605469 128.925781 0.601562 129.015625 0.585938 C 129.105469 0.570312 129.257812 0.515625 129.46875 0.425781 C 130.234375 0.140625 130.808594 -0.00390625 131.1875 -0.00390625 L 134.644531 -0.00390625 L 134.394531 1.398438 L 130.914062 1.332031 C 130.492188 1.332031 130.128906 1.285156 129.828125 1.195312 L 128.632812 0.855469 L 126.800781 0.855469 L 126.9375 0.605469 Z M 128.382812 2.074219 L 129.535156 1.738281 C 129.703125 1.691406 129.871094 1.65625 130.042969 1.625 C 130.21875 1.59375 130.417969 1.578125 130.644531 1.578125 L 134.375 1.535156 L 134.125 2.867188 L 130.644531 2.800781 C 130.386719 2.800781 130.136719 2.777344 129.898438 2.730469 C 129.65625 2.6875 129.390625 2.605469 129.105469 2.484375 C 128.867188 2.40625 128.625 2.355469 128.382812 2.324219 L 126.527344 2.324219 L 126.664062 2.074219 Z M 128.113281 3.546875 L 129.265625 3.207031 C 129.429688 3.160156 129.601562 3.125 129.773438 3.09375 C 129.945312 3.0625 130.144531 3.046875 130.371094 3.046875 L 134.101562 3.003906 L 133.851562 4.335938 L 130.371094 4.269531 C 129.859375 4.269531 129.40625 4.195312 129.015625 4.042969 C 128.789062 3.953125 128.621094 3.890625 128.507812 3.863281 C 128.394531 3.832031 128.261719 3.808594 128.113281 3.792969 L 126.257812 3.792969 L 126.394531 3.546875 Z M 127.839844 5.015625 L 129.015625 4.675781 C 129.183594 4.632812 129.351562 4.59375 129.523438 4.5625 C 129.695312 4.53125 129.898438 4.519531 130.125 4.519531 L 133.832031 4.472656 L 133.605469 5.804688 L 130.125 5.738281 C 129.703125 5.738281 129.339844 5.691406 129.039062 5.601562 L 127.839844 5.261719 L 126.007812 5.261719 L 126.144531 5.015625 Z M 127.570312 6.484375 L 128.746094 6.144531 C 128.910156 6.097656 129.082031 6.0625 129.253906 6.03125 C 129.425781 6 129.625 5.988281 129.851562 5.988281 L 133.582031 5.917969 L 133.46875 6.484375 L 135.933594 6.484375 L 137.085938 6.144531 C 137.25 6.097656 137.421875 6.0625 137.59375 6.03125 C 137.765625 6 137.96875 5.988281 138.191406 5.988281 L 142.828125 5.917969 L 141.675781 7.273438 L 138.191406 7.207031 C 137.679688 7.207031 137.226562 7.132812 136.835938 6.980469 C 136.609375 6.890625 136.441406 6.832031 136.328125 6.800781 C 136.214844 6.769531 136.082031 6.746094 135.933594 6.730469 L 133.445312 6.730469 L 133.332031 7.273438 L 129.851562 7.207031 C 129.429688 7.207031 129.070312 7.164062 128.769531 7.070312 L 127.570312 6.730469 L 125.738281 6.730469 L 125.875 6.484375 Z M 127.300781 7.953125 L 128.472656 7.613281 C 128.640625 7.566406 128.808594 7.53125 128.984375 7.5 C 129.15625 7.472656 129.355469 7.457031 129.582031 7.457031 L 133.308594 7.386719 L 133.21875 7.953125 L 134.691406 7.953125 L 135.84375 7.613281 C 136.007812 7.566406 136.175781 7.53125 136.351562 7.5 C 136.523438 7.472656 136.722656 7.457031 136.949219 7.457031 L 141.582031 7.386719 L 140.453125 8.746094 L 136.949219 8.675781 C 136.4375 8.675781 135.984375 8.601562 135.59375 8.449219 C 135.367188 8.359375 135.199219 8.300781 135.085938 8.269531 C 134.972656 8.238281 134.839844 8.21875 134.691406 8.203125 L 133.152344 8.203125 L 133.085938 8.746094 L 129.582031 8.675781 C 129.160156 8.675781 128.796875 8.632812 128.496094 8.539062 L 127.300781 8.203125 L 125.46875 8.203125 L 125.601562 7.953125 Z M 127.027344 9.398438 C 127.085938 9.398438 127.210938 9.375 127.402344 9.332031 C 127.589844 9.285156 127.855469 9.203125 128.203125 9.082031 C 128.367188 9.039062 128.539062 9 128.710938 8.96875 C 128.882812 8.941406 129.085938 8.925781 129.308594 8.925781 L 133.0625 8.859375 L 132.949219 9.398438 L 133.445312 9.398438 C 133.503906 9.398438 133.628906 9.375 133.820312 9.332031 C 134.007812 9.285156 134.273438 9.203125 134.621094 9.082031 C 134.789062 9.039062 134.957031 9 135.128906 8.96875 C 135.304688 8.941406 135.503906 8.925781 135.730469 8.925781 L 140.339844 8.859375 L 139.210938 10.214844 L 135.730469 10.144531 C 135.230469 10.144531 134.789062 10.0625 134.394531 9.898438 C 134.199219 9.820312 134.035156 9.765625 133.898438 9.726562 C 133.761719 9.691406 133.613281 9.664062 133.445312 9.648438 L 132.902344 9.648438 L 132.8125 10.214844 L 129.308594 10.144531 C 128.8125 10.144531 128.367188 10.0625 127.976562 9.898438 C 127.78125 9.820312 127.613281 9.765625 127.480469 9.726562 C 127.34375 9.691406 127.191406 9.664062 127.027344 9.648438 L 125.195312 9.648438 L 125.332031 9.398438 Z M 126.777344 10.867188 C 126.914062 10.867188 127.300781 10.765625 127.929688 10.554688 C 128.097656 10.507812 128.265625 10.46875 128.4375 10.441406 C 128.613281 10.410156 128.8125 10.394531 129.039062 10.394531 L 139.097656 10.328125 L 137.96875 11.683594 L 129.039062 11.617188 C 128.542969 11.617188 128.105469 11.539062 127.726562 11.390625 C 127.351562 11.238281 127.035156 11.148438 126.777344 11.117188 L 124.925781 11.117188 L 125.058594 10.867188 Z M 126.507812 12.339844 C 126.566406 12.339844 126.691406 12.316406 126.878906 12.269531 C 127.070312 12.226562 127.335938 12.140625 127.683594 12.019531 C 127.847656 11.976562 128.019531 11.9375 128.191406 11.910156 C 128.363281 11.878906 128.5625 11.863281 128.789062 11.863281 L 137.855469 11.792969 L 136.722656 13.128906 L 128.789062 13.085938 C 128.292969 13.085938 127.847656 13 127.457031 12.835938 C 127.261719 12.761719 127.09375 12.703125 126.960938 12.667969 C 126.824219 12.628906 126.671875 12.601562 126.507812 12.585938 L 124.675781 12.585938 L 124.8125 12.339844 Z M 126.234375 13.808594 C 126.296875 13.808594 126.421875 13.785156 126.609375 13.738281 C 126.796875 13.695312 127.066406 13.609375 127.410156 13.492188 C 127.578125 13.445312 127.746094 13.410156 127.921875 13.378906 C 128.09375 13.347656 128.292969 13.332031 128.519531 13.332031 L 136.609375 13.265625 L 135.480469 14.597656 L 128.519531 14.554688 C 128.019531 14.554688 127.578125 14.472656 127.1875 14.304688 C 126.988281 14.230469 126.824219 14.171875 126.6875 14.136719 C 126.550781 14.097656 126.402344 14.070312 126.234375 14.054688 L 124.40625 14.054688 L 124.539062 13.808594 Z M 125.988281 15.277344 C 126.121094 15.277344 126.507812 15.171875 127.140625 14.960938 C 127.304688 14.914062 127.476562 14.878906 127.648438 14.847656 C 127.820312 14.816406 128.019531 14.800781 128.246094 14.800781 L 135.367188 14.734375 L 134.191406 16.136719 L 127.976562 16.136719 C 127.707031 16.136719 127.285156 16 126.710938 15.726562 C 126.4375 15.59375 126.199219 15.523438 125.988281 15.523438 L 124.132812 15.523438 L 124.269531 15.277344 L 125.988281 15.277344 "/>
<path style=" stroke:none;fill-rule:nonzero;fill:rgb(13.343811%,14.822388%,37.420654%);fill-opacity:1;" d="M 150.464844 0.605469 C 150.632812 0.605469 150.757812 0.601562 150.851562 0.585938 C 150.941406 0.570312 151.09375 0.515625 151.304688 0.425781 C 152.070312 0.140625 152.644531 -0.00390625 153.019531 -0.00390625 L 164.253906 -0.00390625 L 163.507812 1.398438 L 152.75 1.332031 C 152.328125 1.332031 151.964844 1.285156 151.664062 1.195312 L 150.464844 0.855469 L 148.636719 0.855469 L 148.769531 0.605469 Z M 149.699219 2.074219 L 150.851562 1.738281 C 151.015625 1.691406 151.1875 1.65625 151.359375 1.625 C 151.53125 1.59375 151.730469 1.578125 151.957031 1.578125 L 163.441406 1.535156 L 162.714844 2.867188 L 151.957031 2.800781 C 151.445312 2.800781 150.992188 2.722656 150.601562 2.574219 C 150.375 2.484375 150.207031 2.421875 150.09375 2.394531 C 149.980469 2.363281 149.847656 2.339844 149.699219 2.324219 L 147.84375 2.324219 L 147.980469 2.074219 Z M 148.929688 3.546875 L 150.082031 3.207031 C 150.25 3.160156 150.417969 3.125 150.589844 3.09375 C 150.761719 3.0625 150.964844 3.046875 151.191406 3.046875 L 162.648438 3.003906 L 161.902344 4.40625 L 150.917969 4.40625 C 150.644531 4.40625 150.226562 4.269531 149.652344 3.996094 C 149.382812 3.863281 149.140625 3.792969 148.929688 3.792969 L 147.074219 3.792969 L 147.210938 3.546875 Z M 148.136719 5.015625 L 149.3125 4.675781 C 149.480469 4.632812 149.648438 4.59375 149.820312 4.5625 C 149.996094 4.53125 150.195312 4.519531 150.421875 4.519531 L 154.015625 4.472656 L 153.3125 5.804688 L 150.421875 5.738281 C 150 5.738281 149.636719 5.691406 149.335938 5.601562 L 148.136719 5.261719 L 146.285156 5.261719 L 146.441406 5.015625 Z M 147.347656 6.484375 C 147.511719 6.484375 147.640625 6.476562 147.730469 6.460938 C 147.824219 6.445312 147.972656 6.394531 148.183594 6.304688 C 148.953125 6.015625 149.523438 5.875 149.902344 5.875 L 161.132812 5.875 L 160.390625 7.273438 L 149.628906 7.207031 C 149.207031 7.207031 148.84375 7.164062 148.546875 7.070312 L 147.347656 6.730469 L 145.515625 6.730469 L 145.652344 6.484375 Z M 146.578125 7.953125 L 147.730469 7.613281 C 147.898438 7.566406 148.066406 7.53125 148.238281 7.5 C 148.414062 7.472656 148.613281 7.457031 148.839844 7.457031 L 160.320312 7.386719 L 159.597656 8.746094 L 148.839844 8.675781 C 148.328125 8.675781 147.875 8.601562 147.484375 8.449219 C 147.257812 8.359375 147.085938 8.300781 146.972656 8.269531 C 146.859375 8.238281 146.730469 8.21875 146.578125 8.203125 L 144.726562 8.203125 L 144.859375 7.953125 Z M 145.789062 9.398438 C 145.847656 9.398438 145.972656 9.375 146.160156 9.332031 C 146.347656 9.285156 146.617188 9.203125 146.960938 9.082031 C 147.128906 9.039062 147.296875 9 147.472656 8.96875 C 147.644531 8.941406 147.84375 8.925781 148.070312 8.925781 L 159.53125 8.859375 L 158.785156 10.257812 L 147.777344 10.257812 C 147.519531 10.257812 147.105469 10.121094 146.535156 9.851562 C 146.261719 9.714844 146.015625 9.648438 145.789062 9.648438 L 143.957031 9.648438 L 144.09375 9.398438 Z M 145.019531 10.867188 C 145.15625 10.867188 145.539062 10.765625 146.171875 10.554688 C 146.335938 10.507812 146.507812 10.46875 146.679688 10.441406 C 146.855469 10.410156 147.054688 10.394531 147.277344 10.394531 L 150.894531 10.328125 L 150.195312 11.683594 L 147.277344 11.617188 C 146.78125 11.617188 146.34375 11.539062 145.96875 11.390625 C 145.589844 11.238281 145.273438 11.148438 145.019531 11.117188 L 143.164062 11.117188 L 143.300781 10.867188 Z M 144.226562 12.339844 C 144.394531 12.339844 144.523438 12.332031 144.613281 12.316406 C 144.703125 12.300781 144.851562 12.246094 145.0625 12.15625 C 145.832031 11.871094 146.40625 11.726562 146.78125 11.726562 L 158.015625 11.726562 L 157.269531 13.128906 L 146.511719 13.085938 C 146.015625 13.085938 145.570312 13 145.175781 12.835938 C 144.980469 12.761719 144.816406 12.703125 144.679688 12.667969 C 144.542969 12.628906 144.394531 12.601562 144.226562 12.585938 L 142.398438 12.585938 L 142.53125 12.339844 Z M 143.457031 13.808594 C 143.59375 13.808594 143.980469 13.703125 144.613281 13.492188 C 144.777344 13.445312 144.949219 13.410156 145.121094 13.378906 C 145.292969 13.347656 145.492188 13.332031 145.71875 13.332031 L 157.203125 13.265625 L 156.480469 14.597656 L 145.71875 14.554688 C 145.222656 14.554688 144.785156 14.476562 144.410156 14.328125 C 144.03125 14.175781 143.714844 14.085938 143.457031 14.054688 L 141.605469 14.054688 L 141.742188 13.808594 Z M 142.667969 15.277344 C 142.730469 15.277344 142.851562 15.253906 143.042969 15.207031 C 143.230469 15.164062 143.496094 15.082031 143.84375 14.960938 C 144.007812 14.914062 144.179688 14.878906 144.351562 14.847656 C 144.523438 14.816406 144.726562 14.800781 144.949219 14.800781 L 156.410156 14.734375 L 155.664062 16.136719 L 144.65625 16.136719 C 144.402344 16.136719 143.988281 16 143.414062 15.726562 C 143.144531 15.59375 142.894531 15.523438 142.667969 15.523438 L 140.835938 15.523438 L 140.972656 15.277344 L 142.667969 15.277344 "/>
<g clip-path="url(#clip1)" clip-rule="nonzero">
<path style=" stroke:none;fill-rule:nonzero;fill:rgb(13.343811%,14.822388%,37.420654%);fill-opacity:1;" d="M 167.417969 0.628906 C 167.582031 0.628906 167.710938 0.621094 167.804688 0.605469 C 167.894531 0.59375 168.042969 0.539062 168.253906 0.449219 C 169.023438 0.164062 169.597656 0.0195312 169.972656 0.0195312 L 173.339844 0.0195312 L 172.59375 1.421875 L 169.699219 1.351562 C 169.28125 1.351562 168.917969 1.308594 168.617188 1.21875 L 167.417969 0.878906 L 165.585938 0.878906 L 165.722656 0.628906 Z M 166.648438 2.074219 C 166.710938 2.074219 166.835938 2.054688 167.023438 2.007812 C 167.210938 1.964844 167.480469 1.878906 167.824219 1.757812 C 167.992188 1.714844 168.160156 1.675781 168.335938 1.648438 C 168.507812 1.617188 168.707031 1.601562 168.933594 1.601562 L 172.550781 1.535156 L 171.828125 2.890625 L 168.933594 2.820312 C 168.4375 2.820312 167.992188 2.738281 167.597656 2.574219 C 167.402344 2.5 167.238281 2.441406 167.101562 2.40625 C 166.964844 2.367188 166.816406 2.339844 166.648438 2.324219 L 164.820312 2.324219 L 164.957031 2.074219 Z M 165.882812 3.546875 C 166.019531 3.546875 166.402344 3.441406 167.035156 3.230469 C 167.199219 3.183594 167.371094 3.144531 167.542969 3.117188 C 167.714844 3.085938 167.914062 3.070312 168.140625 3.070312 L 171.757812 3.003906 L 171.058594 4.359375 L 168.140625 4.292969 C 167.644531 4.292969 167.207031 4.214844 166.832031 4.066406 C 166.453125 3.914062 166.136719 3.824219 165.882812 3.792969 L 164.027344 3.792969 L 164.164062 3.546875 Z M 165.089844 5.015625 C 165.148438 5.015625 165.273438 4.992188 165.464844 4.945312 C 165.652344 4.902344 165.917969 4.820312 166.265625 4.699219 C 166.429688 4.652344 166.601562 4.617188 166.773438 4.585938 C 166.945312 4.554688 167.148438 4.539062 167.375 4.539062 L 170.96875 4.472656 L 170.265625 5.804688 L 167.375 5.761719 C 166.875 5.761719 166.429688 5.679688 166.039062 5.511719 C 165.84375 5.4375 165.679688 5.378906 165.542969 5.34375 C 165.40625 5.304688 165.257812 5.277344 165.089844 5.261719 L 163.261719 5.261719 L 163.394531 5.015625 Z M 164.320312 6.484375 C 164.382812 6.484375 164.507812 6.460938 164.695312 6.417969 C 164.882812 6.371094 165.148438 6.289062 165.496094 6.167969 C 165.664062 6.121094 165.832031 6.085938 166.007812 6.054688 C 166.179688 6.023438 166.378906 6.007812 166.605469 6.007812 L 170.199219 5.941406 L 169.5 7.273438 L 166.605469 7.230469 C 166.105469 7.230469 165.664062 7.148438 165.269531 6.980469 C 165.074219 6.90625 164.910156 6.847656 164.773438 6.8125 C 164.636719 6.773438 164.488281 6.746094 164.320312 6.730469 L 162.492188 6.730469 L 162.628906 6.484375 Z M 163.53125 7.953125 C 163.589844 7.953125 163.714844 7.929688 163.902344 7.886719 C 164.089844 7.839844 164.359375 7.757812 164.707031 7.636719 C 164.871094 7.589844 165.042969 7.554688 165.214844 7.523438 C 165.386719 7.492188 165.585938 7.476562 165.8125 7.476562 L 169.40625 7.410156 L 168.707031 8.746094 L 165.8125 8.699219 C 165.316406 8.699219 164.871094 8.617188 164.480469 8.449219 C 164.285156 8.375 164.117188 8.316406 163.984375 8.28125 C 163.847656 8.242188 163.695312 8.21875 163.53125 8.203125 L 161.699219 8.203125 L 161.835938 7.953125 Z M 162.761719 9.421875 C 162.898438 9.421875 163.28125 9.316406 163.914062 9.105469 C 164.082031 9.058594 164.25 9.023438 164.421875 8.992188 C 164.597656 8.964844 164.796875 8.949219 165.023438 8.949219 L 168.636719 8.878906 L 167.914062 10.214844 L 165.023438 10.144531 C 164.511719 10.144531 164.058594 10.070312 163.667969 9.921875 C 163.441406 9.828125 163.269531 9.769531 163.160156 9.738281 C 163.046875 9.707031 162.914062 9.6875 162.761719 9.671875 L 160.90625 9.671875 L 161.042969 9.421875 Z M 161.972656 10.890625 L 163.148438 10.554688 C 163.3125 10.507812 163.480469 10.46875 163.65625 10.441406 C 163.828125 10.410156 164.027344 10.394531 164.253906 10.394531 L 167.847656 10.347656 L 167.148438 11.683594 L 164.253906 11.617188 C 163.832031 11.617188 163.472656 11.570312 163.167969 11.480469 L 161.972656 11.140625 L 160.140625 11.140625 L 160.277344 10.890625 Z M 161.179688 12.359375 C 161.347656 12.359375 161.472656 12.355469 161.566406 12.339844 C 161.65625 12.324219 161.804688 12.269531 162.015625 12.179688 C 162.785156 11.894531 163.359375 11.75 163.734375 11.75 L 174.96875 11.75 L 174.222656 13.152344 L 163.464844 13.085938 C 163.042969 13.085938 162.679688 13.039062 162.378906 12.949219 L 161.179688 12.609375 L 159.347656 12.609375 L 159.484375 12.359375 Z M 160.410156 13.828125 L 161.566406 13.492188 C 161.730469 13.445312 161.898438 13.410156 162.074219 13.378906 C 162.246094 13.347656 162.445312 13.332031 162.671875 13.332031 L 174.152344 13.265625 L 173.429688 14.621094 L 162.671875 14.554688 C 162.414062 14.554688 162.167969 14.53125 161.925781 14.484375 C 161.683594 14.441406 161.421875 14.355469 161.132812 14.238281 C 160.894531 14.160156 160.652344 14.109375 160.410156 14.078125 L 158.558594 14.078125 L 158.695312 13.828125 Z M 159.644531 15.296875 L 160.796875 14.960938 C 160.960938 14.914062 161.128906 14.878906 161.304688 14.847656 C 161.476562 14.816406 161.679688 14.800781 161.902344 14.800781 L 173.363281 14.734375 L 172.617188 16.15625 L 161.632812 16.15625 C 161.359375 16.15625 160.9375 16.023438 160.367188 15.75 C 160.097656 15.617188 159.855469 15.546875 159.644531 15.546875 L 157.789062 15.546875 L 157.925781 15.296875 L 159.644531 15.296875 "/>
</g>
<g clip-path="url(#clip2)" clip-rule="nonzero">
<path style=" stroke:none;fill-rule:nonzero;fill:rgb(9.164429%,10.850525%,24.230957%);fill-opacity:1;" d="M 7.03125 20.378906 C 7.03125 20.378906 25.734375 8.816406 50.769531 3.976562 C 50.769531 3.976562 62.195312 4.449219 65.3125 1.851562 L 72.71875 1.851562 C 72.71875 1.851562 56.085938 14.390625 55.09375 18.558594 C 53.796875 24.015625 88.21875 27.78125 89.128906 28.042969 C 90.039062 28.300781 43.664062 30.511719 34.050781 26.355469 C 24.4375 22.195312 7.03125 20.378906 7.03125 20.378906 "/>
</g>
<path style=" stroke:none;fill-rule:nonzero;fill:rgb(88.163757%,11.456299%,14.456177%);fill-opacity:1;" d="M 1.964844 19.730469 C 1.964844 19.730469 20.667969 8.167969 45.703125 3.328125 C 45.703125 3.328125 57.128906 3.800781 60.246094 1.203125 L 67.652344 1.203125 C 67.652344 1.203125 47.128906 14.710938 48.167969 18.871094 C 49.207031 23.023438 55.699219 25.234375 56.609375 25.492188 C 57.519531 25.753906 42.042969 26.714844 32.429688 22.558594 C 22.820312 18.398438 1.964844 19.730469 1.964844 19.730469 "/>
<g clip-path="url(#clip3)" clip-rule="nonzero">
<path style="fill:none;stroke-width:10;stroke-linecap:butt;stroke-linejoin:miter;stroke:rgb(100%,100%,100%);stroke-opacity:1;stroke-miterlimit:10;" d="M 19.648438 91.295313 C 19.648438 91.295313 206.679688 206.920313 457.03125 255.31875 C 457.03125 255.31875 571.289062 250.592188 602.460938 276.56875 L 676.523438 276.56875 C 676.523438 276.56875 471.289062 141.490625 481.679688 99.889063 C 492.070312 58.365625 556.992188 36.25625 566.09375 33.678125 C 575.195312 31.060938 420.429688 21.451563 324.296875 63.014063 C 228.203125 104.615625 19.648438 91.295313 19.648438 91.295313 Z M 19.648438 91.295313 " transform="matrix(0.1,0,0,-0.1,0,28.86)"/>
</g>
<path style=" stroke:none;fill-rule:nonzero;fill:rgb(88.163757%,11.456299%,14.456177%);fill-opacity:1;" d="M 88.847656 20.082031 C 88.703125 19.824219 88.492188 19.589844 88.210938 19.382812 C 87.925781 19.171875 87.609375 19.003906 87.257812 18.875 C 86.902344 18.75 86.535156 18.65625 86.152344 18.59375 C 85.007812 18.421875 83.945312 18.054688 82.957031 17.484375 C 82.871094 17.4375 82.78125 17.339844 82.683594 17.195312 C 82.589844 17.046875 82.542969 16.90625 82.542969 16.769531 C 82.542969 16.273438 82.625 15.777344 82.789062 15.277344 C 82.957031 14.777344 83.171875 14.386719 83.429688 14.101562 C 83.847656 13.632812 84.601562 13.226562 85.6875 12.875 C 86.777344 12.523438 88 12.351562 89.363281 12.351562 C 90.175781 12.351562 90.804688 12.410156 91.246094 12.535156 C 91.691406 12.660156 91.910156 12.851562 91.910156 13.109375 C 91.910156 13.535156 91.855469 13.863281 91.738281 14.09375 C 91.621094 14.328125 91.5 14.480469 91.367188 14.554688 C 91.234375 14.632812 91 14.734375 90.667969 14.863281 C 90.3125 14.988281 90 15.117188 89.738281 15.253906 C 89.476562 15.390625 89.253906 15.519531 89.066406 15.644531 C 88.878906 15.769531 88.761719 15.832031 88.71875 15.832031 C 88.660156 15.832031 88.632812 15.808594 88.632812 15.761719 C 88.632812 15.667969 88.734375 15.523438 88.933594 15.328125 C 89.136719 15.132812 89.382812 14.960938 89.675781 14.8125 C 89.984375 14.652344 90.140625 14.546875 90.140625 14.5 C 90.140625 14.425781 89.96875 14.390625 89.625 14.390625 C 88.578125 14.390625 87.613281 14.484375 86.726562 14.667969 C 85.839844 14.855469 85.140625 15.101562 84.628906 15.40625 C 84.117188 15.710938 83.863281 16.023438 83.863281 16.339844 C 83.863281 16.535156 83.96875 16.675781 84.179688 16.757812 C 84.390625 16.839844 84.859375 16.976562 85.582031 17.167969 C 86.304688 17.363281 86.953125 17.582031 87.523438 17.832031 C 88.34375 18.179688 88.949219 18.546875 89.34375 18.921875 C 89.742188 19.300781 89.9375 19.726562 89.9375 20.195312 C 89.9375 20.515625 89.863281 20.839844 89.707031 21.164062 C 89.550781 21.488281 89.324219 21.785156 89.023438 22.058594 C 88.722656 22.328125 88.378906 22.550781 87.988281 22.726562 C 87.65625 22.867188 87.234375 23 86.730469 23.125 C 86.222656 23.25 85.675781 23.347656 85.085938 23.417969 C 84.496094 23.488281 83.933594 23.523438 83.398438 23.523438 C 82.410156 23.523438 81.613281 23.429688 81.011719 23.242188 C 80.410156 23.058594 80.109375 22.773438 80.109375 22.394531 C 80.109375 22.226562 80.210938 21.964844 80.414062 21.605469 C 80.617188 21.246094 80.859375 21.003906 81.136719 20.878906 C 81.378906 20.785156 81.613281 20.730469 81.839844 20.714844 C 82.0625 20.699219 82.175781 20.726562 82.175781 20.796875 C 82.175781 20.8125 82.167969 20.828125 82.152344 20.847656 C 82.132812 20.863281 82.113281 20.878906 82.09375 20.886719 C 82.070312 20.898438 82.046875 20.910156 82.023438 20.921875 C 81.910156 20.96875 81.820312 21.003906 81.75 21.027344 C 81.679688 21.054688 81.621094 21.078125 81.578125 21.105469 C 81.539062 21.128906 81.515625 21.164062 81.515625 21.210938 C 81.515625 21.328125 82.101562 21.386719 83.269531 21.386719 C 84.285156 21.386719 85.121094 21.351562 85.769531 21.277344 C 86.417969 21.207031 86.992188 21.074219 87.488281 20.878906 C 87.984375 20.6875 88.4375 20.421875 88.847656 20.082031 "/>
<path style=" stroke:none;fill-rule:nonzero;fill:rgb(88.163757%,11.456299%,14.456177%);fill-opacity:1;" d="M 92.726562 19.617188 C 93.234375 19.421875 93.667969 19.175781 94.03125 18.882812 C 94.390625 18.585938 94.660156 18.304688 94.832031 18.039062 C 95.003906 17.769531 95.089844 17.574219 95.089844 17.449219 C 95.089844 17.320312 95.03125 17.253906 94.910156 17.253906 C 94.808594 17.253906 94.644531 17.320312 94.414062 17.449219 C 94.1875 17.578125 93.957031 17.75 93.71875 17.957031 C 93.484375 18.164062 93.277344 18.410156 93.089844 18.695312 C 92.902344 18.976562 92.78125 19.285156 92.726562 19.617188 Z M 92.640625 20.167969 L 92.640625 20.378906 C 92.640625 20.714844 92.722656 20.972656 92.886719 21.160156 C 93.050781 21.347656 93.265625 21.4375 93.53125 21.4375 C 93.808594 21.4375 94.09375 21.375 94.390625 21.246094 C 94.6875 21.113281 94.980469 20.941406 95.277344 20.726562 C 95.570312 20.511719 95.929688 20.226562 96.351562 19.863281 L 96.351562 20.378906 C 95.714844 21.148438 95.113281 21.738281 94.554688 22.148438 C 93.996094 22.554688 93.429688 22.761719 92.851562 22.761719 C 92.351562 22.761719 91.953125 22.566406 91.660156 22.175781 C 91.363281 21.785156 91.21875 21.253906 91.21875 20.574219 C 91.21875 19.980469 91.355469 19.445312 91.632812 18.960938 C 91.910156 18.476562 92.359375 17.96875 92.988281 17.433594 C 93.417969 17.066406 93.84375 16.789062 94.269531 16.601562 C 94.691406 16.414062 95.070312 16.324219 95.402344 16.324219 C 95.667969 16.324219 95.878906 16.382812 96.035156 16.503906 C 96.1875 16.625 96.265625 16.808594 96.265625 17.050781 C 96.265625 17.40625 96.132812 17.761719 95.867188 18.113281 C 95.601562 18.464844 95.199219 18.816406 94.652344 19.164062 C 94.109375 19.511719 93.4375 19.847656 92.640625 20.167969 "/>
<path style=" stroke:none;fill-rule:nonzero;fill:rgb(88.163757%,11.456299%,14.456177%);fill-opacity:1;" d="M 96.265625 20.515625 L 96.265625 19.964844 C 96.570312 19.605469 96.804688 19.296875 96.960938 19.042969 C 96.78125 18.980469 96.648438 18.902344 96.566406 18.8125 C 96.484375 18.722656 96.445312 18.585938 96.445312 18.40625 C 96.445312 18.203125 96.527344 17.945312 96.699219 17.636719 C 96.867188 17.324219 97.078125 17.035156 97.324219 16.761719 C 97.574219 16.492188 97.800781 16.316406 98.003906 16.238281 C 98.082031 16.199219 98.160156 16.179688 98.230469 16.179688 C 98.34375 16.179688 98.402344 16.230469 98.402344 16.339844 C 98.402344 16.433594 98.316406 16.628906 98.140625 16.921875 C 99.300781 16.742188 100.035156 16.652344 100.34375 16.652344 C 100.460938 16.652344 100.542969 16.664062 100.585938 16.6875 C 100.683594 16.738281 100.761719 16.855469 100.824219 17.042969 C 100.886719 17.226562 100.917969 17.414062 100.917969 17.601562 C 100.917969 17.71875 100.867188 17.847656 100.761719 17.988281 C 100.65625 18.125 100.476562 18.328125 100.222656 18.59375 C 99.921875 18.914062 99.671875 19.265625 99.46875 19.644531 C 99.265625 20.023438 99.164062 20.308594 99.164062 20.5 C 99.164062 20.765625 99.328125 20.898438 99.65625 20.898438 C 100 20.898438 100.597656 20.546875 101.453125 19.847656 L 101.453125 20.414062 C 100.984375 20.90625 100.59375 21.292969 100.289062 21.574219 C 99.984375 21.855469 99.703125 22.082031 99.445312 22.25 C 99.183594 22.414062 98.953125 22.5 98.75 22.5 C 98.511719 22.5 98.316406 22.390625 98.15625 22.171875 C 97.996094 21.953125 97.917969 21.640625 97.917969 21.226562 C 97.917969 20.984375 97.980469 20.707031 98.105469 20.398438 C 98.230469 20.085938 98.410156 19.75 98.652344 19.386719 C 98.890625 19.019531 99.160156 18.65625 99.460938 18.296875 C 99.300781 18.332031 99.125 18.367188 98.925781 18.402344 C 98.730469 18.4375 98.519531 18.476562 98.300781 18.515625 C 98.078125 18.554688 97.910156 18.585938 97.792969 18.609375 C 97.441406 19.308594 96.933594 19.945312 96.265625 20.515625 "/>
<path style=" stroke:none;fill-rule:nonzero;fill:rgb(88.163757%,11.456299%,14.456177%);fill-opacity:1;" d="M 102.527344 19.878906 L 102.375 20.589844 C 102.351562 20.683594 102.339844 20.785156 102.339844 20.898438 C 102.339844 21.203125 102.46875 21.355469 102.722656 21.355469 C 102.964844 21.355469 103.554688 20.878906 104.492188 19.929688 C 104.5 19.566406 104.636719 19.140625 104.902344 18.660156 C 105.171875 18.179688 105.46875 17.761719 105.792969 17.398438 C 106.117188 17.035156 106.359375 16.855469 106.519531 16.855469 C 106.765625 16.855469 106.890625 17.019531 106.890625 17.347656 C 106.890625 17.542969 106.84375 17.785156 106.746094 18.070312 C 106.652344 18.355469 106.507812 18.664062 106.324219 18.996094 C 106.136719 19.324219 105.90625 19.664062 105.636719 20.015625 C 105.777344 20.269531 105.921875 20.398438 106.070312 20.398438 C 106.191406 20.398438 106.332031 20.355469 106.480469 20.265625 C 106.628906 20.179688 106.816406 20.042969 107.042969 19.863281 L 107.042969 20.429688 C 106.726562 20.679688 106.476562 20.847656 106.292969 20.941406 C 106.109375 21.03125 105.875 21.074219 105.585938 21.074219 C 105.472656 21.074219 105.269531 21 104.976562 20.847656 C 104.398438 21.457031 103.929688 21.914062 103.570312 22.214844 C 103.207031 22.515625 102.914062 22.667969 102.6875 22.667969 C 102.296875 22.667969 101.964844 22.433594 101.695312 21.96875 C 101.417969 21.503906 101.28125 20.988281 101.28125 20.429688 C 101.28125 19.679688 101.707031 18.777344 102.554688 17.726562 C 102.808594 17.414062 103.011719 17.195312 103.167969 17.082031 C 103.324219 16.964844 103.5 16.90625 103.695312 16.90625 C 103.867188 16.90625 104.027344 16.9375 104.179688 17 C 104.332031 17.0625 104.410156 17.136719 104.410156 17.21875 C 104.410156 17.503906 104.21875 17.917969 103.839844 18.460938 C 103.460938 19.007812 103.023438 19.480469 102.527344 19.878906 "/>
<path style=" stroke:none;fill-rule:nonzero;fill:rgb(88.163757%,11.456299%,14.456177%);fill-opacity:1;" d="M 110.5 16.078125 C 110.359375 16.078125 110.222656 16.023438 110.097656 15.914062 C 109.96875 15.808594 109.90625 15.671875 109.90625 15.507812 C 109.90625 15.261719 110.023438 14.984375 110.261719 14.679688 C 110.5 14.375 110.746094 14.21875 111 14.21875 C 111.167969 14.21875 111.308594 14.273438 111.421875 14.378906 C 111.535156 14.484375 111.59375 14.632812 111.59375 14.832031 C 111.59375 15.074219 111.476562 15.34375 111.246094 15.636719 C 111.011719 15.929688 110.765625 16.078125 110.5 16.078125 Z M 111.074219 19.863281 L 111.074219 20.480469 C 110.527344 21.1875 110.015625 21.71875 109.542969 22.078125 C 109.066406 22.4375 108.664062 22.617188 108.332031 22.617188 C 107.867188 22.617188 107.523438 22.375 107.296875 21.886719 C 107.070312 21.402344 106.957031 20.871094 106.957031 20.296875 C 106.957031 20.074219 106.980469 19.863281 107.027344 19.664062 C 107.070312 19.464844 107.125 19.296875 107.1875 19.167969 C 107.25 19.039062 107.363281 18.835938 107.535156 18.558594 C 108.335938 17.3125 109.070312 16.6875 109.738281 16.6875 C 110.082031 16.6875 110.253906 16.820312 110.253906 17.085938 C 110.253906 17.265625 110.140625 17.546875 109.917969 17.933594 C 109.695312 18.316406 109.496094 18.589844 109.320312 18.753906 C 108.832031 19.226562 108.507812 19.558594 108.359375 19.746094 C 108.210938 19.929688 108.136719 20.140625 108.136719 20.378906 C 108.136719 20.582031 108.210938 20.753906 108.363281 20.886719 C 108.515625 21.023438 108.714844 21.09375 108.957031 21.09375 C 109.222656 21.09375 109.515625 20.996094 109.832031 20.800781 C 110.152344 20.605469 110.566406 20.292969 111.074219 19.863281 "/>
<path style=" stroke:none;fill-rule:nonzero;fill:rgb(88.163757%,11.456299%,14.456177%);fill-opacity:1;" d="M 116.097656 19.878906 L 116.097656 20.449219 C 115.496094 21.039062 115.003906 21.5 114.621094 21.828125 C 114.238281 22.15625 113.882812 22.410156 113.554688 22.589844 C 113.222656 22.773438 112.898438 22.863281 112.582031 22.863281 C 112.273438 22.863281 111.988281 22.738281 111.726562 22.496094 C 111.46875 22.25 111.265625 21.925781 111.117188 21.527344 C 110.96875 21.128906 110.898438 20.707031 110.898438 20.261719 C 110.898438 19.878906 110.980469 19.535156 111.152344 19.234375 C 111.320312 18.9375 111.648438 18.550781 112.132812 18.078125 C 112.710938 17.511719 113.246094 17.074219 113.738281 16.765625 C 114.234375 16.460938 114.621094 16.304688 114.902344 16.304688 C 115.109375 16.304688 115.28125 16.375 115.421875 16.519531 C 115.5625 16.65625 115.632812 16.835938 115.632812 17.050781 C 115.632812 17.230469 115.539062 17.488281 115.351562 17.824219 C 115.167969 18.15625 114.957031 18.445312 114.726562 18.691406 C 114.496094 18.9375 114.3125 19.058594 114.175781 19.058594 C 114.027344 19.058594 113.957031 18.980469 113.957031 18.820312 C 113.960938 18.777344 113.964844 18.734375 113.96875 18.695312 C 113.972656 18.65625 113.972656 18.613281 113.972656 18.574219 C 113.972656 18.507812 113.949219 18.46875 113.898438 18.460938 C 113.851562 18.453125 113.792969 18.472656 113.726562 18.523438 C 113.164062 18.921875 112.773438 19.199219 112.566406 19.359375 C 112.359375 19.519531 112.191406 19.683594 112.070312 19.847656 C 111.949219 20.011719 111.890625 20.183594 111.890625 20.363281 C 111.890625 20.699219 111.996094 20.96875 112.210938 21.175781 C 112.425781 21.386719 112.703125 21.488281 113.050781 21.488281 C 113.40625 21.488281 113.832031 21.351562 114.332031 21.078125 C 114.832031 20.804688 115.421875 20.40625 116.097656 19.878906 "/>
<path style=" stroke:none;fill-rule:nonzero;fill:rgb(88.163757%,11.456299%,14.456177%);fill-opacity:1;" d="M 117.503906 19.617188 C 118.015625 19.421875 118.449219 19.175781 118.808594 18.882812 C 119.171875 18.585938 119.4375 18.304688 119.609375 18.039062 C 119.78125 17.769531 119.867188 17.574219 119.867188 17.449219 C 119.867188 17.320312 119.808594 17.253906 119.691406 17.253906 C 119.589844 17.253906 119.421875 17.320312 119.195312 17.449219 C 118.964844 17.578125 118.734375 17.75 118.5 17.957031 C 118.265625 18.164062 118.058594 18.410156 117.871094 18.695312 C 117.683594 18.976562 117.5625 19.285156 117.503906 19.617188 Z M 117.421875 20.167969 L 117.421875 20.378906 C 117.421875 20.714844 117.503906 20.972656 117.667969 21.160156 C 117.832031 21.347656 118.046875 21.4375 118.308594 21.4375 C 118.585938 21.4375 118.875 21.375 119.171875 21.246094 C 119.46875 21.113281 119.761719 20.941406 120.054688 20.726562 C 120.347656 20.511719 120.707031 20.226562 121.132812 19.863281 L 121.132812 20.378906 C 120.492188 21.148438 119.894531 21.738281 119.335938 22.148438 C 118.777344 22.554688 118.207031 22.761719 117.632812 22.761719 C 117.128906 22.761719 116.730469 22.566406 116.4375 22.175781 C 116.144531 21.785156 115.996094 21.253906 115.996094 20.574219 C 115.996094 19.980469 116.136719 19.445312 116.414062 18.960938 C 116.691406 18.476562 117.140625 17.96875 117.769531 17.433594 C 118.195312 17.066406 118.625 16.789062 119.046875 16.601562 C 119.472656 16.414062 119.851562 16.324219 120.183594 16.324219 C 120.449219 16.324219 120.65625 16.382812 120.8125 16.503906 C 120.96875 16.625 121.046875 16.808594 121.046875 17.050781 C 121.046875 17.40625 120.914062 17.761719 120.648438 18.113281 C 120.382812 18.464844 119.976562 18.816406 119.433594 19.164062 C 118.886719 19.511719 118.21875 19.847656 117.421875 20.167969 "/>
</g>
</svg>
