<svg xmlns="http://www.w3.org/2000/svg" width="233.293" height="38.48" viewBox="0 0 174.97 28.86"><defs><clipPath id="a"><path d="M157 0h17.969v17H157Zm0 0"/></clipPath><clipPath id="b"><path d="M7 1h83v27.86H7Zm0 0"/></clipPath><clipPath id="c"><path d="M0 0h82v28.86H0Zm0 0"/></clipPath></defs><path d="m82.047 5.016 1.176-.34q.245-.065.507-.114.258-.043.598-.042l3.594-.047-.7 1.332-2.894-.067q-.634-.001-1.086-.136l-1.195-.34h-1.832l.137-.246Zm-.793 1.468 1.176-.34q.251-.068.507-.113.264-.045.602-.043l3.594-.07-.703 1.355-2.89-.066q-.635.002-1.087-.137l-1.2-.34h-1.827l.133-.246Zm-.766 1.47 1.153-.34c.164-.048.332-.083.507-.114q.258-.042.598-.043l3.617-.07-.722 1.36-2.895-.071q-.769.001-1.355-.227a5 5 0 0 0-.508-.18 2.5 2.5 0 0 0-.395-.066h-1.855l.137-.25Zm-.77 1.444q.202 0 1.153-.316a7 7 0 0 1 .508-.113c.172-.028.375-.043.598-.043l3.617-.067-.723 1.356-2.894-.07q-.746 0-1.309-.223-.568-.227-.95-.274h-1.855l.137-.25ZM79.356.605q.386.001.813-.18 1.156-.427 1.719-.429h11.238l-.75 1.402-10.758-.066q-.769-.002-1.355-.227a5 5 0 0 0-.512-.183 3 3 0 0 0-.395-.067h-1.851l.133-.25Zm-.43 10.262c.063 0 .184-.02.376-.066q.28-.071.8-.246.253-.071.508-.114.263-.045.602-.046l3.594-.067-.703 1.356-2.891-.067a3.5 3.5 0 0 1-1.336-.25 5 5 0 0 0-.496-.172 3 3 0 0 0-.453-.078h-1.852l.156-.25Zm-.359-8.793 1.172-.336c.168-.047.336-.082.512-.113q.258-.047.598-.047l11.46-.043-.722 1.332-10.738-.066q-.631-.001-1.086-.137l-1.196-.34h-1.832l.137-.25Zm-.43 10.266q.09 0 .372-.07c.187-.043.457-.13.805-.25q.248-.066.507-.11.258-.047.598-.047l3.594-.07-.7 1.336-2.894-.043c-.496 0-.941-.086-1.332-.25a5 5 0 0 0-.496-.168 2.5 2.5 0 0 0-.453-.082h-1.832l.136-.246Zm-.34-8.793 1.153-.34c.164-.047.336-.082.508-.113q.264-.047.598-.047l11.488-.043-.75 1.402H79.785q-.475-.002-1.027-.285c-.371-.187-.688-.297-.961-.328h-1.852l.133-.246Zm-.429 10.262q.204 0 1.153-.317c.164-.047.335-.082.507-.113q.263-.047.602-.047l3.613-.066-.722 1.332-2.891-.043c-.5 0-.934-.078-1.313-.227a4 4 0 0 0-.949-.273h-1.855l.136-.246Zm-.789 1.468q.09 0 .371-.07.284-.064.801-.246c.168-.047.336-.082.512-.113q.257-.048.597-.047l3.618-.067-.747 1.403h-3.164q-.385 0-1.246-.41c-.27-.133-.52-.204-.742-.204h-1.832l.137-.246zM101.508 5.016l1.176-.34a7 7 0 0 1 .507-.114q.263-.043.602-.042l2.348-.047q.001.245-.133.656a1.8 1.8 0 0 1-.293.676l-1.922-.067q-.634-.001-1.086-.136l-1.2-.34H99.68l.132-.246ZM98.21 15.277q.2 0 1.148-.316c.168-.047.336-.082.512-.113q.258-.048.598-.047l3.14-.067.5 1.403h-3.91q-.41 0-1.265-.41c-.274-.133-.512-.204-.723-.204h-1.856l.137-.246Zm-.547-1.468q.095 0 .375-.07c.188-.044.457-.13.8-.247.169-.047.337-.082.509-.113q.262-.047.601-.047l3.117-.066.5 1.332-3.617-.043q-.745.001-1.332-.25a5 5 0 0 0-.5-.168 2.4 2.4 0 0 0-.453-.082h-1.828l.133-.246Zm-.52-1.47q.094 0 .376-.07c.187-.042.457-.128.804-.25.164-.042.332-.082.508-.109q.258-.047.598-.047l3.14-.07.453 1.336-3.593-.043c-.496 0-.942-.086-1.332-.25a5 5 0 0 0-.5-.168 2.5 2.5 0 0 0-.453-.082h-1.829l.137-.246ZM94.798.606c.164 0 .293-.003.383-.02q.136-.024.453-.16c.77-.284 1.34-.429 1.719-.429h5.105q1.244.001 2.078.43c.32.168.695.488 1.133.972l-8.59-.066c-.422 0-.781-.047-1.086-.137l-1.195-.34h-1.832l.137-.25Zm-.77 1.47 1.176-.337q.248-.068.508-.113.258-.047.598-.047l9.425-.043.25.473.227.86-9.902-.067a3.8 3.8 0 0 1-1.082-.137l-1.2-.34h-1.832l.137-.25Zm-.77 1.472 1.153-.34c.168-.047.336-.082.512-.113q.258-.047.598-.047l10.71-.043v.406l-.066.926L95.52 4.27q-.768 0-1.36-.227a4 4 0 0 0-.508-.18 2.4 2.4 0 0 0-.394-.07h-1.852l.137-.246Zm-.769 1.469 1.157-.34q.245-.065.507-.114.258-.043.598-.042l3.617-.047-.722 1.332-2.895-.067q-.769.001-1.355-.226a5 5 0 0 0-.508-.18 2.5 2.5 0 0 0-.399-.07h-1.851l.136-.246ZM91.7 6.484l1.176-.34q.248-.068.508-.113.257-.045.597-.043l11.688-.07-.363.703-.52.652-10.805-.066q-.63.002-1.082-.137L91.7 6.73h-1.851l.156-.246Zm1.492.973 11.504-.07q-.362.432-.789.77l-.84.59-9.875-.071a4 4 0 0 1-.746-.067 4 4 0 0 1-.793-.25 4.3 4.3 0 0 0-.722-.156h-1.852l.133-.25h1.719l1.152-.34c.168-.047.336-.082.508-.113q.263-.042.601-.043m-.77 1.469 10.4-.067-1.11.516.293.84-9.582-.07q-.745 0-1.332-.247a6 6 0 0 0-.5-.171 3 3 0 0 0-.45-.079h-1.835l.14-.25h1.696q.088 0 .37-.066a10 10 0 0 0 .805-.25q.245-.066.508-.113.258-.043.598-.043m-3.073 1.941c.062 0 .183-.02.375-.066q.28-.071.8-.246a4 4 0 0 1 .508-.114q.263-.045.602-.046l3.594-.067-.293.54h1.714q.204.002 1.153-.313.25-.071.511-.114.258-.045.598-.046l3.117-.067.477 1.356-3.594-.067a3.6 3.6 0 0 1-1.312-.226q-.563-.229-.95-.274h-1.851l-.274.567-2.89-.067c-.5 0-.945-.086-1.336-.25a5 5 0 0 0-.496-.172 3 3 0 0 0-.453-.078h-1.832l.136-.25Zm-.79 1.473q.09 0 .372-.07c.187-.043.457-.13.804-.25q.245-.066.508-.11.258-.047.598-.047l3.594-.07-.7 1.336-2.894-.043c-.496 0-.942-.086-1.332-.25a5 5 0 0 0-.5-.168 2.4 2.4 0 0 0-.45-.082h-1.835l.136-.246Zm-.773 1.469q.204 0 1.156-.317c.164-.047.336-.082.508-.113q.264-.047.598-.047l3.617-.066-.723 1.332-2.894-.043q-.745-.002-1.309-.227-.567-.227-.953-.273h-1.851l.136-.246Zm-.765 1.468q.204 0 1.152-.316c.168-.047.336-.082.508-.113q.262-.048.601-.047l3.617-.067-.746 1.403h-3.144q-.405 0-1.266-.41c-.273-.133-.512-.204-.722-.204h-1.856l.137-.246zM119.344 12.34q.088 0 .37-.07c.188-.043.458-.13.806-.25q.245-.066.507-.11.258-.047.598-.047l3.73-.07-.25 1.336-3.48-.043c-.496 0-.941-.086-1.332-.25a5 5 0 0 0-.5-.168 2.5 2.5 0 0 0-.45-.082h-1.831l.136-.246Zm-.25 1.469q.204 0 1.152-.317c.168-.047.336-.082.508-.113a3.4 3.4 0 0 1 .601-.047l3.727-.066-.246 1.332-3.48-.043q-.75-.002-1.313-.227-.568-.227-.95-.273h-1.855l.137-.246Zm-.27 1.468q.09 0 .371-.07.28-.064.801-.246c.168-.047.336-.082.512-.113q.257-.048.597-.047l3.707-.067-.25 1.403h-3.75q-.385 0-1.246-.41c-.27-.133-.52-.204-.742-.204h-1.832l.137-.246ZM118.598.605c.164 0 .293-.003.382-.02q.136-.024.454-.16 1.154-.427 1.714-.429h6.332l-.25 1.402-6.351-.066q-.634-.001-1.086-.137l-1.195-.34h-1.832l.136-.25Zm-1.246 1.47 1.175-.337q.251-.068.508-.113.263-.047.602-.047l7.57-.043-.246 1.332-7.324-.066q-.634-.001-1.086-.137l-1.2-.34h-1.828l.133-.25Zm-1.243 1.472 1.176-.34c.164-.047.336-.082.508-.113a3.4 3.4 0 0 1 .602-.047l8.543-.043-.25 1.332-8.293-.066q-.637-.001-1.086-.137l-1.2-.34h-1.832l.137-.246Zm-1.218 1.469 1.152-.34q.245-.065.508-.114c.172-.03.375-.042.597-.042l4.614-.047-.297.34.566-.18a3.6 3.6 0 0 1 .59-.106q.199-.009.317-.007l3.75-.047-.25 1.332-3.5-.067q-.614-.001-1.086-.136l-.793-.293-.43.496-3.48-.067q-.382 0-.747-.066a4 4 0 0 1-.789-.25 4.5 4.5 0 0 0-.722-.16h-1.856l.137-.246Zm-1.266 1.468 1.172-.34c.168-.046.336-.082.512-.113q.257-.045.597-.043l4.614-.07-.454.566h.34l1.172-.34c.168-.046.336-.082.512-.113q.257-.045.597-.043l3.731-.07-.25 1.355-3.48-.066q-.634.002-1.086-.137l-1.196-.34h-.543l-.476.543-3.48-.066c-.423 0-.782-.043-1.087-.137l-1.195-.34h-1.832l.137-.246Zm-1.223 1.47 1.153-.34c.168-.048.336-.083.507-.114q.264-.042.602-.043l4.61-.07-.45.566h1.309l1.176-.34c.164-.047.336-.082.507-.113q.263-.042.602-.043l3.727-.07-.247 1.36-3.48-.071c-.422 0-.785-.043-1.086-.137l-1.2-.336h-1.51l-.454.543-3.504-.07a4 4 0 0 1-.746-.067 4 4 0 0 1-.793-.25 4.4 4.4 0 0 0-.723-.156h-1.851l.133-.25Zm-1.242 1.444q.18 0 1.403-.406.608-.201 1.152-.203h12.183l-.25 1.426-12.226-.07q-.75 0-1.313-.223a4 4 0 0 0-.949-.274h-1.855l.136-.25Zm-1.242 1.47q.09.002.371-.067.284-.071.8-.246c.169-.047.337-.086.513-.114q.257-.045.597-.046l13.403-.067-.247 1.399h-13.449c-.258 0-.672-.133-1.242-.407q-.408-.203-.746-.203h-1.832l.137-.25Zm-1.246 1.472q.093 0 .375-.07c.187-.043.453-.13.8-.25a6 6 0 0 1 .508-.11q.263-.047.602-.047l4.633-.07-1.13 1.336-3.503-.043a3.5 3.5 0 0 1-1.336-.25 5 5 0 0 0-.496-.168 2.5 2.5 0 0 0-.453-.082h-1.828l.133-.246Zm-1.242 1.469q.088 0 .37-.07c.192-.044.458-.13.805-.247.165-.047.336-.082.508-.113a3.4 3.4 0 0 1 .602-.047l4.633-.066-1.133 1.332-3.5-.043q-.75.001-1.336-.25a5 5 0 0 0-.496-.168 2.5 2.5 0 0 0-.453-.082h-1.832l.136-.246Zm-1.243 1.468q.09 0 .372-.07a8 8 0 0 0 .804-.246c.164-.047.332-.082.508-.113.172-.032.375-.047.598-.047l4.633-.067-1.172 1.403h-3.754q-.387 0-1.242-.41c-.27-.133-.52-.204-.746-.204h-1.833l.137-.246z" style="stroke:none;fill-rule:nonzero;fill:#22265f;fill-opacity:1"/><path d="M140.883.605c.164 0 .293-.003.383-.02q.136-.024.453-.16c.77-.284 1.34-.429 1.719-.429h4.386l-1.18 1.402-3.48-.066q-.629-.001-1.082-.137l-1.2-.34h-1.831l.137-.25Zm-1.242 1.47 1.175-.337c.164-.047.336-.082.508-.113q.258-.047.598-.047l4.613-.043-1.133 1.332-3.48-.066c-.422 0-.781-.047-1.086-.137l-1.195-.34h-1.832l.136-.25Zm-1.246 1.472 1.175-.34c.168-.047.336-.082.512-.113q.258-.047.598-.047l4.61-.043-1.13 1.332-3.48-.066q-.634-.001-1.086-.137l-1.2-.34h-1.828l.137-.246Zm-1.22 1.469 1.153-.34a7 7 0 0 1 .508-.114q.263-.043.601-.042l4.633-.047-1.129 1.332-3.504-.067c-.515 0-.964-.074-1.359-.226a5 5 0 0 0-.508-.18 2.4 2.4 0 0 0-.394-.07h-1.856l.137-.246Zm-8.542-4.41c.164 0 .293-.004.383-.02q.136-.025.453-.16 1.149-.429 1.719-.43h3.457l-.25 1.402-3.48-.066q-.635-.001-1.087-.137l-1.195-.34H126.8l.136-.25Zm-.25 1.468 1.152-.336q.251-.068.508-.113.263-.047.602-.047l3.73-.043-.25 1.332-3.48-.066a3.9 3.9 0 0 1-1.54-.317 4 4 0 0 0-.722-.16h-1.856l.137-.25Zm-.27 1.473 1.153-.34c.164-.047.336-.082.507-.113q.259-.047.598-.047l3.73-.043-.25 1.332-3.48-.066q-.769 0-1.355-.227a4 4 0 0 0-.508-.18 2.5 2.5 0 0 0-.395-.07h-1.855l.137-.246Zm-.273 1.469 1.176-.34q.251-.065.507-.114a3.5 3.5 0 0 1 .602-.042l3.707-.047-.227 1.332-3.48-.067q-.634-.001-1.086-.136l-1.2-.34h-1.831l.137-.246Zm-.27 1.468 1.176-.34c.164-.046.336-.082.508-.113q.258-.045.598-.043l3.73-.07-.113.566h2.465l1.152-.34c.164-.046.336-.082.508-.113s.375-.043.597-.043l4.637-.07-1.152 1.355-3.485-.066q-.767.001-1.355-.227a5 5 0 0 0-.508-.18 2.5 2.5 0 0 0-.394-.07h-2.489l-.113.543-3.48-.066q-.633.002-1.082-.137l-1.2-.34h-1.832l.137-.246Zm-.27 1.47 1.173-.34a3.826 3.826 0 0 1 1.11-.156l3.726-.071-.09.566h1.472l1.153-.34a3.826 3.826 0 0 1 1.105-.156l4.633-.07-1.129 1.36-3.504-.071q-.769.001-1.355-.227a5 5 0 0 0-.508-.18 2.5 2.5 0 0 0-.395-.066h-1.539l-.066.543-3.504-.07c-.422 0-.785-.043-1.086-.137l-1.195-.336h-1.832l.133-.25Zm-.273 1.444q.088 0 .375-.066.28-.07.801-.25a7 7 0 0 1 .508-.113c.172-.028.375-.043.598-.043l3.754-.067-.114.54h.496q.088-.001.375-.067.28-.07.801-.25.251-.066.508-.113.263-.043.601-.043l4.61-.067-1.13 1.356-3.48-.07c-.5 0-.94-.082-1.335-.247a5 5 0 0 0-.497-.171 3 3 0 0 0-.453-.079h-.543l-.09.567-3.503-.07q-.745 0-1.332-.247a6 6 0 0 0-.497-.171 3 3 0 0 0-.453-.079h-1.832l.137-.25Zm-.25 1.47c.137 0 .524-.102 1.153-.313q.251-.071.507-.114.263-.045.602-.046l10.059-.067-1.13 1.356-8.929-.067a3.6 3.6 0 0 1-1.312-.226q-.563-.229-.95-.274h-1.851l.133-.25Zm-.27 1.472q.09 0 .372-.07c.191-.043.457-.13.805-.25.164-.043.336-.082.507-.11q.258-.047.598-.047l9.066-.07-1.132 1.336-7.934-.043c-.496 0-.941-.086-1.332-.25a5 5 0 0 0-.496-.168 2.5 2.5 0 0 0-.453-.082h-1.832l.136-.246Zm-.273 1.469q.095 0 .375-.07c.188-.044.457-.13.801-.247.168-.047.336-.082.512-.113q.258-.047.598-.047l8.09-.066-1.13 1.332-6.96-.043q-.748.001-1.333-.25a5 5 0 0 0-.5-.168 2.5 2.5 0 0 0-.453-.082h-1.828l.133-.246Zm-.246 1.468c.133 0 .52-.105 1.153-.316.164-.047.336-.082.507-.113q.259-.048.598-.047l7.121-.067-1.176 1.403h-6.214q-.405 0-1.266-.41c-.273-.133-.512-.204-.723-.204h-1.855l.137-.246zM150.465.605c.168 0 .293-.003.387-.02q.136-.024.453-.16c.765-.284 1.34-.429 1.715-.429h11.234l-.746 1.402-10.758-.066q-.634-.001-1.086-.137l-1.2-.34h-1.827l.133-.25Zm-.766 1.47 1.153-.337q.248-.068.507-.113.258-.047.598-.047l11.484-.043-.726 1.332-10.758-.066q-.769-.002-1.355-.227a4 4 0 0 0-.508-.18 2.5 2.5 0 0 0-.395-.07h-1.855l.136-.25Zm-.77 1.472 1.153-.34c.168-.047.336-.082.508-.113a3.4 3.4 0 0 1 .601-.047l11.457-.043-.746 1.402h-10.984c-.273 0-.691-.136-1.266-.41q-.405-.201-.722-.203h-1.856l.137-.246Zm-.792 1.469 1.175-.34q.251-.065.508-.114.263-.043.602-.042l3.594-.047-.703 1.332-2.891-.067q-.634-.001-1.086-.136l-1.2-.34h-1.85l.155-.246Zm-.79 1.468q.249 0 .383-.023.14-.022.454-.156c.77-.29 1.34-.43 1.718-.43h11.23l-.741 1.398-10.762-.066q-.635.002-1.082-.137l-1.2-.34h-1.831l.136-.246Zm-.769 1.47 1.152-.34c.168-.048.336-.083.508-.114q.263-.042.602-.043l11.48-.07-.722 1.36-10.758-.071q-.769.001-1.356-.227a5 5 0 0 0-.511-.18 2.4 2.4 0 0 0-.395-.066h-1.851l.132-.25Zm-.789 1.444q.09 0 .371-.066.284-.07.8-.25c.169-.043.337-.082.513-.113q.257-.043.597-.043l11.461-.067-.746 1.399h-11.008q-.386-.001-1.242-.406-.408-.205-.746-.204h-1.832l.137-.25Zm-.77 1.47q.205.002 1.153-.313a4 4 0 0 1 .508-.114q.263-.045.597-.046l3.618-.067-.7 1.356-2.918-.067c-.496 0-.933-.078-1.308-.226q-.57-.229-.95-.274h-1.855l.137-.25Zm-.792 1.472q.251 0 .386-.024.134-.024.45-.16 1.155-.429 1.718-.43h11.235l-.746 1.403-10.758-.043a3.5 3.5 0 0 1-1.336-.25 5 5 0 0 0-.496-.168 2.5 2.5 0 0 0-.453-.082h-1.829l.133-.246Zm-.77 1.469q.206 0 1.156-.317c.164-.047.336-.082.508-.113q.258-.047.598-.047l11.484-.066-.723 1.332-10.761-.043q-.745-.002-1.309-.227-.567-.227-.953-.273h-1.852l.137-.246Zm-.789 1.468c.062 0 .184-.023.375-.07q.28-.064.8-.246c.165-.047.337-.082.509-.113.171-.032.375-.047.597-.047l11.461-.067-.746 1.403h-11.008q-.381 0-1.242-.41c-.27-.133-.52-.204-.746-.204h-1.832l.137-.246z" style="stroke:none;fill-rule:nonzero;fill:#22265f;fill-opacity:1"/><g clip-path="url(#a)"><path d="M167.418.629q.246 0 .387-.024c.09-.011.238-.066.449-.156q1.156-.429 1.719-.43h3.367l-.746 1.403-2.895-.07q-.629.001-1.082-.133l-1.199-.34h-1.832l.137-.25Zm-.77 1.445q.094.002.375-.066a8 8 0 0 0 .801-.25 5 5 0 0 1 .512-.11q.258-.046.598-.046l3.617-.067-.723 1.356-2.894-.07a3.5 3.5 0 0 1-1.336-.247 5 5 0 0 0-.496-.168 2.5 2.5 0 0 0-.454-.082h-1.828l.137-.25Zm-.765 1.473q.205 0 1.152-.317a4 4 0 0 1 .508-.113q.258-.047.598-.047l3.617-.066-.7 1.355-2.917-.066q-.745-.002-1.309-.227-.568-.227-.95-.273h-1.855l.137-.246Zm-.793 1.469q.087 0 .375-.07.28-.066.8-.247c.165-.047.337-.082.508-.113a3.4 3.4 0 0 1 .602-.047l3.594-.066-.703 1.332-2.891-.043q-.75.001-1.336-.25a5 5 0 0 0-.496-.168 2.5 2.5 0 0 0-.453-.082h-1.828l.133-.246Zm-.77 1.468q.094 0 .375-.066.28-.07.801-.25c.168-.047.336-.082.512-.113q.257-.048.597-.047l3.594-.067-.699 1.332-2.895-.043c-.5 0-.94-.082-1.335-.25a5 5 0 0 0-.497-.168 2.5 2.5 0 0 0-.453-.082h-1.828l.137-.246Zm-.789 1.47q.09-.001.371-.067a10 10 0 0 0 .805-.25c.164-.047.336-.082.508-.114q.257-.045.597-.046l3.594-.067-.699 1.336-2.894-.047q-.746.001-1.333-.25a5 5 0 0 0-.496-.168 2.5 2.5 0 0 0-.453-.078H161.7l.137-.25Zm-.77 1.468q.205 0 1.153-.317.251-.068.508-.113.263-.042.601-.043l3.614-.07-.723 1.336-2.89-.07q-.769 0-1.356-.223a5 5 0 0 0-.508-.184 2.5 2.5 0 0 0-.398-.066h-1.856l.137-.25Zm-.788 1.469 1.175-.336q.246-.071.508-.114.258-.045.598-.046l3.594-.047-.7 1.336-2.894-.067c-.422 0-.781-.047-1.086-.137l-1.195-.34h-1.832l.136-.25Zm-.793 1.468c.168 0 .293-.004.386-.02q.134-.024.45-.16 1.155-.428 1.718-.429h11.235l-.746 1.402-10.758-.066q-.634-.001-1.086-.137l-1.2-.34h-1.831l.136-.25Zm-.77 1.47 1.156-.337c.164-.047.332-.082.508-.113q.258-.047.598-.047l11.48-.066-.722 1.355-10.758-.066c-.258 0-.504-.024-.746-.07a4 4 0 0 1-.793-.247 4 4 0 0 0-.723-.16h-1.851l.136-.25Zm-.765 1.468 1.152-.336c.164-.047.332-.082.508-.113.172-.032.375-.047.597-.047l11.461-.067-.746 1.422h-10.984q-.411.002-1.266-.406-.406-.201-.722-.203h-1.856l.137-.25z" style="stroke:none;fill-rule:nonzero;fill:#22265f;fill-opacity:1"/></g><g clip-path="url(#b)"><path d="M7.031 20.379S25.734 8.816 50.77 3.977c0 0 11.425.472 14.542-2.125h7.407S56.086 14.39 55.094 18.559c-1.297 5.457 33.125 9.222 34.035 9.484.91.258-45.465 2.469-55.078-1.688-9.614-4.16-27.02-5.976-27.02-5.976" style="stroke:none;fill-rule:nonzero;fill:#171c3e;fill-opacity:1"/></g><path d="M1.965 19.73S20.668 8.168 45.703 3.328c0 0 11.426.473 14.543-2.125h7.406S47.13 14.711 48.168 18.871c1.039 4.152 7.531 6.363 8.441 6.621.91.262-14.566 1.223-24.18-2.933-9.609-4.16-30.464-2.829-30.464-2.829" style="stroke:none;fill-rule:nonzero;fill:#e11d25;fill-opacity:1"/><g clip-path="url(#c)"><path d="M19.648 91.295S206.68 206.92 457.031 255.32c0 0 114.258-4.727 145.43 21.25h74.062S471.29 141.49 481.68 99.889c10.39-41.523 75.312-63.633 84.414-66.21 9.101-2.618-145.664-12.227-241.797 29.335-96.094 41.602-304.649 28.281-304.649 28.281Zm0 0" style="fill:none;stroke-width:10;stroke-linecap:butt;stroke-linejoin:miter;stroke:#fff;stroke-opacity:1;stroke-miterlimit:10" transform="matrix(.1 0 0 -.1 0 28.86)"/></g><path d="M88.848 20.082a2.2 2.2 0 0 0-.637-.7 3.8 3.8 0 0 0-.953-.507 6.5 6.5 0 0 0-1.106-.281 9 9 0 0 1-3.195-1.11q-.128-.071-.273-.289a.8.8 0 0 1-.141-.425q0-.744.246-1.493.253-.749.64-1.175c.419-.47 1.173-.875 2.258-1.227 1.09-.352 2.313-.523 3.676-.523.813 0 1.442.058 1.883.183q.666.188.664.574.002.639-.172.985-.174.35-.37.46a5.5 5.5 0 0 1-.7.31 7 7 0 0 0-.93.39 7 7 0 0 0-.672.39q-.281.188-.347.188-.087 0-.086-.07 0-.141.3-.434.305-.293.743-.515.464-.241.465-.313 0-.11-.516-.11a14.3 14.3 0 0 0-2.898.278q-1.33.281-2.098.738-.767.458-.766.934 0 .294.317.418c.21.082.68.219 1.402.41q1.085.29 1.941.664c.82.348 1.426.715 1.82 1.09.4.379.594.805.594 1.273 0 .32-.074.645-.23.97a2.9 2.9 0 0 1-.684.894q-.45.404-1.035.668c-.332.14-.754.273-1.258.398q-.76.188-1.644.293-.885.105-1.688.105-1.483 0-2.386-.28c-.602-.184-.903-.47-.903-.848q0-.251.305-.79.305-.538.723-.726.363-.141.703-.164.334-.023.336.082 0 .022-.024.05c-.02.016-.039.032-.058.04l-.07.035a4 4 0 0 1-.274.105c-.07.028-.129.051-.172.078a.12.12 0 0 0-.062.106q.001.176 1.754.176c1.015 0 1.851-.035 2.5-.11a6.7 6.7 0 0 0 1.718-.398q.744-.288 1.36-.797M92.727 19.617a4.8 4.8 0 0 0 1.304-.734c.36-.297.63-.578.801-.844q.258-.404.258-.59 0-.194-.18-.195-.15 0-.496.195-.34.196-.695.508a3.7 3.7 0 0 0-.63.738q-.28.424-.362.922m-.086.551v.21q0 .503.246.782a.81.81 0 0 0 .644.277q.416.001.86-.19.443-.2.886-.52c.293-.215.653-.5 1.075-.864v.516c-.637.77-1.239 1.36-1.797 1.77-.559.406-1.125.613-1.703.613q-.751 0-1.192-.586c-.297-.39-.441-.922-.441-1.602 0-.594.136-1.129.414-1.613s.726-.992 1.355-1.527q.644-.552 1.282-.832.633-.28 1.132-.278.399 0 .633.18.23.183.23.547 0 .533-.398 1.062-.396.528-1.215 1.051-.816.523-2.011 1.004" style="stroke:none;fill-rule:nonzero;fill:#e11d25;fill-opacity:1"/><path d="M96.266 20.516v-.551c.304-.36.539-.668.695-.922a.96.96 0 0 1-.395-.23q-.122-.136-.12-.407c0-.203.081-.46.253-.77.168-.312.38-.6.625-.874q.375-.406.68-.524a.5.5 0 0 1 .226-.058c.114 0 .172.05.172.16q0 .142-.261.582 1.74-.27 2.203-.27.176 0 .242.035.146.075.238.356.094.277.094.559.002.176-.156.386-.158.206-.54.606-.45.482-.753 1.05-.305.57-.305.856 0 .398.492.398.515 0 1.797-1.05v.566c-.469.492-.86.879-1.164 1.16a6.6 6.6 0 0 1-.844.676q-.391.248-.695.25-.356 0-.594-.328c-.16-.219-.238-.531-.238-.945q0-.365.187-.829.186-.467.547-1.011.358-.55.809-1.09-.238.053-.535.105l-.625.114q-.333.059-.508.093-.527 1.05-1.527 1.907" style="stroke:none;fill-rule:nonzero;fill:#e11d25;fill-opacity:1"/><path d="m102.527 19.879-.152.71a1.3 1.3 0 0 0-.035.31q.001.456.383.456.363 0 1.77-1.425.01-.548.41-1.27.404-.718.89-1.262t.727-.543q.37 0 .37.493.001.294-.144.722a5.5 5.5 0 0 1-.422.926 9 9 0 0 1-.687 1.02q.21.381.433.382a.8.8 0 0 0 .41-.132c.149-.086.336-.223.563-.403v.567q-.474.373-.75.511-.275.134-.707.133-.17.001-.61-.226-.867.914-1.406 1.367-.544.451-.882.453-.587 0-.993-.7a2.95 2.95 0 0 1-.414-1.538q.001-1.126 1.274-2.703c.254-.313.457-.532.613-.645a.86.86 0 0 1 .527-.176q.257 0 .485.094.229.095.23.219 0 .428-.57 1.242a6.7 6.7 0 0 1-1.313 1.418" style="stroke:none;fill-rule:nonzero;fill:#e11d25;fill-opacity:1"/><path d="M110.5 16.078a.6.6 0 0 1-.402-.164.5.5 0 0 1-.192-.406q-.001-.37.356-.828.357-.46.738-.461.252 0 .422.16.17.156.172.453 0 .364-.348.805-.349.44-.746.441m.574 3.785v.617q-.821 1.06-1.531 1.598-.714.54-1.211.54-.697 0-1.035-.731a3.7 3.7 0 0 1-.34-1.59q0-.335.07-.633.066-.301.16-.496c.063-.129.176-.332.348-.61q1.2-1.869 2.203-1.87.516 0 .516.398 0 .268-.336.848-.334.573-.598.82c-.488.473-.812.805-.96.992a.98.98 0 0 0-.223.633c0 .203.074.375.226.508a.86.86 0 0 0 .594.207q.4 0 .875-.293.48-.294 1.242-.938" style="stroke:none;fill-rule:nonzero;fill:#e11d25;fill-opacity:1"/><path d="M116.098 19.879v.57q-.903.886-1.477 1.38a6.4 6.4 0 0 1-1.066.76 2 2 0 0 1-.973.274q-.463-.002-.855-.367-.387-.37-.61-.969a3.6 3.6 0 0 1-.219-1.265c0-.383.082-.727.254-1.028q.253-.446.98-1.156.868-.85 1.606-1.312.743-.46 1.164-.461.31-.001.52.215c.14.136.21.316.21.53q0 .27-.28.774a4.3 4.3 0 0 1-.625.867q-.346.37-.551.368c-.149 0-.219-.079-.219-.239l.012-.125c.004-.039.004-.082.004-.12q0-.101-.075-.114-.07-.012-.171.062c-.563.399-.954.676-1.16.836q-.314.241-.497.489a.85.85 0 0 0-.18.515q0 .503.32.813c.216.21.493.312.84.312q.533 0 1.282-.41.751-.409 1.766-1.2" style="stroke:none;fill-rule:nonzero;fill:#e11d25;fill-opacity:1"/><path d="M117.504 19.617a4.7 4.7 0 0 0 1.305-.734q.544-.445.8-.844.258-.404.258-.59 0-.194-.176-.195c-.101 0-.27.066-.496.195q-.344.196-.695.508a3.7 3.7 0 0 0-.629.738q-.28.424-.367.922m-.082.551v.21q0 .503.246.782a.81.81 0 0 0 .64.277q.418.001.864-.19.444-.2.883-.52c.293-.215.652-.5 1.078-.864v.516q-.96 1.155-1.797 1.77c-.559.406-1.129.613-1.703.613q-.757 0-1.195-.586-.44-.584-.442-1.602c0-.594.14-1.129.418-1.613q.414-.725 1.356-1.527a5.2 5.2 0 0 1 1.277-.832q.639-.28 1.137-.278c.265 0 .472.059.629.18q.234.183.234.547 0 .533-.399 1.062-.399.528-1.214 1.051-.819.523-2.012 1.004" style="stroke:none;fill-rule:nonzero;fill:#e11d25;fill-opacity:1"/></svg>