<svg xmlns="http://www.w3.org/2000/svg" viewBox="0 0 250 93"><defs><style>.cls-1,.cls-11{fill:#252c73;}.cls-2{fill:#80cbdb;}.cls-3{fill:#339444;}.cls-10,.cls-4{fill:#e33c23;}.cls-5{fill:#f5c70a;}.cls-6{fill:#ece41a;}.cls-7{fill:#010003;}.cls-8{font-size:32.9px;font-family:Montserrat-Light, Montserrat;letter-spacing:-0.02em;}.cls-9{letter-spacing:-0.02em;}.cls-10{letter-spacing:-0.02em;}.cls-11{font-size:11.06px;font-family:Arial-BoldMT, Arial;font-weight:700;letter-spacing:0.12em;}</style></defs><title>Air Kiribati</title><path class="cls-1" d="M150.34,41s-15.5-2-20.92-2.54a52,52,0,0,0-7.05-.36,60,60,0,0,0-21.05,3.46s-6.19,2.48-18.44,8.88S51,66.43,51,66.43A33,33,0,0,1,41.93,69c-4.93.59-11.26-1.6-11.26-1.6S26.1,66.1,19.8,60.46a41,41,0,0,1-7.05-9.14,40.54,40.54,0,0,0,9.17,6.46,70.44,70.44,0,0,0,11.26,4.67S40.26,64.37,49.36,61a143.82,143.82,0,0,0,13.48-5.54L75.45,49S90.21,40.48,99.51,37a40.49,40.49,0,0,1,16.71-2.68,81.71,81.71,0,0,1,13.25,1.37A121.55,121.55,0,0,1,150.34,41Z"/><path class="cls-2" d="M146.67,38.65a104.68,104.68,0,0,0-13.79-4.13S127,33,121.65,32.11a69.71,69.71,0,0,0-8.25-1,37.31,37.31,0,0,0-12,.74,70.21,70.21,0,0,0-11.16,4.09L73.95,43.73,63,49.56,60.65,51l.09-2.7,4.24-2L84.91,34.7s9.34-5.81,14.6-7.51a28.67,28.67,0,0,1,10.23-1.24s4.7,0,13.49,3,16.43,6.33,16.43,6.33Z"/><path class="cls-3" d="M152.57,41s-8.83-4.52-12.05-6.07-20.11-9.09-20.11-9.09-6.57-2.64-9.27-3.08-5-1.59-11.58.52S67.35,40,67.35,40l-4.13,2.37V34.61l5-2,13-6.88L93.51,19.4a39.06,39.06,0,0,1,9.38-3.63,18.36,18.36,0,0,1,9.51.78c5,1.83,14.3,7.18,14.3,7.18l10,6.46,10.51,7.09Z"/><circle id="RED" class="cls-4" cx="40.15" cy="32.54" r="27.98"/><circle id="SUN" class="cls-5" cx="43.01" cy="29.68" r="23.73"/><ellipse id="YELLOW" class="cls-6" cx="46.42" cy="28.73" rx="20.33" ry="19.79"/><path class="cls-7" d="M63.11,27.26,58.46,25.7s-3.17-1-5.7-2.07a28.89,28.89,0,0,0-5.48-1.31,25.9,25.9,0,0,0-7.95,0,13.76,13.76,0,0,0-3.93,1.19c-1.52.85-5.45.13-7.9-2s-6.84-2.72-6.84-2.72a68.82,68.82,0,0,0-8.92-.38c-4.67.13-10.46-.34-10.46-.34s-1.34-.16,0,.23,4.93.85,4.93.85l5.55.49a24.58,24.58,0,0,1,4.39.74,63.47,63.47,0,0,1,6.45,1.68,39.94,39.94,0,0,1,4.33,3c2.54,2-4.31,2-4.31,2l-1.41.19s-.9.16,3.47.51a13.59,13.59,0,0,0,3.45-.12,2.27,2.27,0,0,1,1.78.36c1.09.62,3.17-.69,3.17-.69l.85-.62a2.37,2.37,0,0,1,1.37-.28s2.88,1.14,1.81.48c-.64-.39-1.75-1.24-1.75-1.24s-.4-.37-.15-.54A3.27,3.27,0,0,1,36.36,25a6.79,6.79,0,0,0,1.49-.23,33.91,33.91,0,0,1,4.93,0,99.22,99.22,0,0,1,11.29,1.32c6.79,1.14,7.8,1.22,7.8,1.22S63.88,27.7,63.11,27.26Z"/><text class="cls-8" transform="translate(87.11 70.58)"><tspan class="cls-1">Air</tspan><tspan class="cls-9" x="42.58" y="0"> </tspan><tspan class="cls-10" x="51.76" y="0">Kiribati</tspan></text><text class="cls-11" transform="translate(87.28 85.84) scale(0.94 1)">Flying our Nation Forward</text></svg>