<svg xmlns="http://www.w3.org/2000/svg" viewBox="0 0 250 93"><defs><style>.cls-1{fill:#252c73}</style></defs><path d="M150.34 41s-15.5-2-20.92-2.54a52 52 0 0 0-7.05-.36 60 60 0 0 0-21.05 3.46s-6.19 2.48-18.44 8.88S51 66.43 51 66.43A33 33 0 0 1 41.93 69c-4.93.59-11.26-1.6-11.26-1.6s-4.57-1.3-10.87-6.94a41 41 0 0 1-7.05-9.14 40.5 40.5 0 0 0 9.17 6.46 70.4 70.4 0 0 0 11.26 4.67s7.08 1.92 16.18-1.45a144 144 0 0 0 13.48-5.54L75.45 49s14.76-8.52 24.06-12a40.5 40.5 0 0 1 16.71-2.68 82 82 0 0 1 13.25 1.37A121.6 121.6 0 0 1 150.34 41" class="cls-1"/><path d="M146.67 38.65a105 105 0 0 0-13.79-4.13S127 33 121.65 32.11a70 70 0 0 0-8.25-1 37.3 37.3 0 0 0-12 .74 70 70 0 0 0-11.16 4.09l-16.29 7.79L63 49.56 60.65 51l.09-2.7 4.24-2 19.93-11.6s9.34-5.81 14.6-7.51a28.7 28.7 0 0 1 10.23-1.24s4.7 0 13.49 3 16.43 6.33 16.43 6.33Z" style="fill:#80cbdb"/><path d="M152.57 41s-8.83-4.52-12.05-6.07-20.11-9.09-20.11-9.09-6.57-2.64-9.27-3.08-5-1.59-11.58.52S67.35 40 67.35 40l-4.13 2.37v-7.76l5-2 13-6.88 12.29-6.33a39 39 0 0 1 9.38-3.63 18.36 18.36 0 0 1 9.51.78c5 1.83 14.3 7.18 14.3 7.18l10 6.46 10.51 7.09Z" style="fill:#339444"/><circle id="RED" cx="40.15" cy="32.54" r="27.98" style="fill:#e33c23"/><circle id="SUN" cx="43.01" cy="29.68" r="23.73" style="fill:#f5c70a"/><ellipse id="YELLOW" cx="46.42" cy="28.73" rx="20.33" ry="19.79" style="fill:#ece41a"/><path d="m63.11 27.26-4.65-1.56s-3.17-1-5.7-2.07a29 29 0 0 0-5.48-1.31 25.9 25.9 0 0 0-7.95 0 13.8 13.8 0 0 0-3.93 1.19c-1.52.85-5.45.13-7.9-2s-6.84-2.72-6.84-2.72a69 69 0 0 0-8.92-.38c-4.67.13-10.46-.34-10.46-.34s-1.34-.16 0 .23 4.93.85 4.93.85l5.55.49a24.6 24.6 0 0 1 4.39.74 64 64 0 0 1 6.45 1.68 40 40 0 0 1 4.33 3c2.54 2-4.31 2-4.31 2l-1.41.19s-.9.16 3.47.51a13.6 13.6 0 0 0 3.45-.12 2.27 2.27 0 0 1 1.78.36c1.09.62 3.17-.69 3.17-.69l.85-.62a2.37 2.37 0 0 1 1.37-.28s2.88 1.14 1.81.48c-.64-.39-1.75-1.24-1.75-1.24s-.4-.37-.15-.54a3.3 3.3 0 0 1 1.15-.11 6.8 6.8 0 0 0 1.49-.23 34 34 0 0 1 4.93 0 99 99 0 0 1 11.29 1.32c6.79 1.14 7.8 1.22 7.8 1.22s2.01.39 1.24-.05" style="fill:#010003"/><text style="font-size:32.9px;font-family:Montserrat-Light,Montserrat;letter-spacing:-.02em" transform="translate(87.11 70.58)"><tspan class="cls-1">Air</tspan><tspan x="42.58" y="0" style="letter-spacing:-.02em"> </tspan><tspan x="51.76" y="0" style="fill:#e33c23;letter-spacing:-.02em">Kiribati</tspan></text><text style="fill:#252c73;font-size:11.06px;font-family:Arial-BoldMT,Arial;font-weight:700;letter-spacing:.12em" transform="matrix(.94 0 0 1 87.28 85.84)">Flying our Nation Forward</text></svg>