<?xml version="1.0" encoding="UTF-8"?>
<svg xmlns="http://www.w3.org/2000/svg" xmlns:xlink="http://www.w3.org/1999/xlink" width="176pt" height="22.3pt" viewBox="0 0 176 22.3" version="1.1">
<defs>
<clipPath id="clip1">
  <path d="M 69 22 L 70 22 L 70 22.300781 L 69 22.300781 Z M 69 22 "/>
</clipPath>
</defs>
<g id="surface1">
<path style=" stroke:none;fill-rule:evenodd;fill:rgb(37.638855%,38.198853%,39.442444%);fill-opacity:1;" d="M 11.882812 10.730469 C 10.664062 12.574219 8.902344 13.453125 6.738281 13.574219 C 3.421875 13.757812 0.761719 11.714844 0.0546875 8.46875 C 0.03125 8.367188 0.00390625 8.265625 0.00390625 8.164062 C 0 5.464844 0 2.769531 0 0.0234375 C 0.75 0.0234375 1.480469 0.0234375 2.289062 0.0234375 C 2.289062 0.769531 2.277344 2.410156 2.277344 2.410156 C 2.277344 2.410156 2.703125 2.15625 2.84375 2.0625 C 5.402344 0.417969 8.730469 0.847656 10.796875 3.082031 C 11.074219 3.386719 11.144531 3.617188 10.910156 3.988281 C 10.550781 4.5625 10.261719 5.179688 9.9375 5.789062 C 9.695312 5.636719 9.636719 5.378906 9.503906 5.179688 C 8.421875 3.554688 6.402344 2.925781 4.671875 3.6875 C 2.878906 4.472656 1.941406 6.40625 2.417969 8.339844 C 2.867188 10.167969 4.625 11.394531 6.539062 11.285156 C 8.171875 11.195312 9.394531 10.445312 10.289062 9.117188 C 11.339844 7.558594 13.488281 3.5625 13.796875 3.304688 C 13.59375 3.609375 13.40625 3.910156 13.289062 4.269531 C 13.027344 5.070312 12.875 5.886719 12.765625 6.71875 C 12.609375 7.863281 12.429688 9.007812 12.257812 10.148438 C 12.164062 10.304688 12.066406 10.460938 11.972656 10.617188 C 11.941406 10.652344 11.914062 10.691406 11.882812 10.730469 "/>
<path style=" stroke:none;fill-rule:evenodd;fill:rgb(44.120789%,61.013794%,84.390259%);fill-opacity:1;" d="M 12.257812 10.148438 C 12.429688 9.007812 12.609375 7.863281 12.765625 6.71875 C 12.875 5.886719 13.027344 5.070312 13.289062 4.269531 C 13.40625 3.910156 13.59375 3.609375 13.796875 3.304688 C 14.890625 1.921875 16.316406 1.203125 18.070312 1.0625 C 19.945312 0.910156 21.535156 1.558594 22.855469 2.808594 C 24.003906 3.894531 24.714844 5.253906 24.726562 6.886719 C 24.746094 8.96875 24.753906 13.417969 24.753906 13.417969 L 22.386719 13.417969 L 22.382812 12.230469 C 19.464844 14.078125 16.699219 13.925781 14.0625 11.621094 C 14.476562 10.894531 14.859375 10.222656 15.273438 9.488281 C 16.011719 10.433594 16.914062 11.011719 18.074219 11.183594 C 19.5 11.390625 21.125 10.621094 21.914062 9.316406 C 22.742188 7.953125 22.632812 6.292969 21.789062 5.0625 C 20.199219 2.746094 16.535156 2.566406 14.832031 5.671875 C 14.152344 6.917969 13.480469 8.167969 12.800781 9.414062 C 12.65625 9.683594 12.523438 9.96875 12.257812 10.148438 "/>
<g clip-path="url(#clip1)" clip-rule="nonzero">
<path style=" stroke:none;fill-rule:evenodd;fill:rgb(44.120789%,61.013794%,84.390259%);fill-opacity:1;" d="M 69.46875 22.300781 C 69.484375 22.277344 69.503906 22.257812 69.519531 22.234375 C 69.503906 22.257812 69.484375 22.277344 69.46875 22.300781 "/>
</g>
<path style=" stroke:none;fill-rule:nonzero;fill:rgb(36.083984%,38.282776%,39.427185%);fill-opacity:1;" d="M 106.148438 6.515625 C 106.113281 6.175781 106.082031 5.648438 106 5.128906 C 105.832031 4.0625 105.441406 3.078125 104.835938 2.183594 C 104.492188 1.679688 104.070312 1.257812 103.539062 0.960938 C 102.851562 0.570312 102.109375 0.441406 101.324219 0.515625 C 100.433594 0.605469 99.699219 0.988281 99.105469 1.648438 C 98.515625 2.308594 98.121094 3.09375 97.839844 3.925781 C 97.492188 4.933594 97.386719 5.972656 97.457031 7.039062 C 97.496094 7.652344 97.570312 8.253906 97.695312 8.851562 C 97.851562 9.59375 98.066406 10.316406 98.453125 10.976562 C 99.089844 12.0625 99.976562 12.800781 101.273438 12.972656 C 102.347656 13.117188 103.289062 12.835938 104.105469 12.128906 C 104.796875 11.523438 105.242188 10.746094 105.578125 9.902344 C 105.988281 8.875 106.113281 7.796875 106.148438 6.515625 Z M 102.839844 13.386719 C 102.703125 13.375 102.632812 13.359375 102.566406 13.367188 C 102.195312 13.398438 101.824219 13.453125 101.457031 13.46875 C 100.988281 13.484375 100.523438 13.4375 100.070312 13.320312 C 98.789062 13 97.695312 12.351562 96.835938 11.351562 C 96.023438 10.410156 95.496094 9.320312 95.332031 8.066406 C 95.148438 6.707031 95.261719 5.386719 95.835938 4.125 C 96.394531 2.894531 97.234375 1.894531 98.339844 1.125 C 99.042969 0.632812 99.828125 0.304688 100.675781 0.152344 C 101.375 0.0273438 102.078125 0.00390625 102.785156 0.09375 C 103.363281 0.167969 103.917969 0.292969 104.449219 0.527344 C 105.765625 1.113281 106.773438 2.023438 107.457031 3.300781 C 107.773438 3.902344 108.035156 4.511719 108.171875 5.175781 C 108.402344 6.316406 108.351562 7.4375 107.980469 8.542969 C 107.730469 9.285156 107.386719 9.976562 106.941406 10.625 C 106.328125 11.523438 105.527344 12.214844 104.636719 12.816406 C 103.402344 13.644531 102.035156 14.191406 100.65625 14.722656 C 100.300781 14.863281 99.949219 15.011719 99.59375 15.160156 C 99.523438 15.191406 99.457031 15.238281 99.402344 15.332031 C 99.53125 15.332031 99.660156 15.335938 99.789062 15.328125 C 100.441406 15.304688 101.054688 15.433594 101.617188 15.761719 C 102.15625 16.074219 102.691406 16.394531 103.230469 16.707031 C 103.8125 17.042969 104.394531 17.386719 105.0625 17.527344 C 105.753906 17.671875 106.378906 17.542969 106.894531 17.046875 C 107.128906 16.824219 107.339844 16.574219 107.558594 16.335938 C 107.667969 16.214844 107.757812 16.054688 107.984375 16.148438 C 108.050781 16.335938 107.964844 16.5 107.859375 16.640625 C 107.289062 17.425781 106.648438 18.140625 105.710938 18.492188 C 105.160156 18.703125 104.585938 18.785156 103.984375 18.726562 C 103.019531 18.632812 102.207031 18.1875 101.414062 17.679688 C 100.929688 17.371094 100.472656 17.019531 99.992188 16.703125 C 99.691406 16.507812 99.378906 16.332031 99.058594 16.167969 C 98.910156 16.09375 98.742188 16.046875 98.578125 16.03125 C 97.839844 15.949219 97.410156 16.285156 97.273438 17.050781 C 97.21875 17.332031 97.175781 17.613281 97.144531 17.898438 C 97.09375 18.3125 96.894531 18.566406 96.414062 18.601562 C 96.15625 18.59375 95.964844 18.40625 95.796875 18.175781 C 95.683594 17.769531 95.828125 17.421875 96.042969 17.089844 C 96.476562 16.417969 97.054688 15.910156 97.761719 15.542969 C 98.730469 15.039062 99.75 14.644531 100.765625 14.25 C 101.382812 14.011719 101.992188 13.761719 102.601562 13.515625 C 102.664062 13.488281 102.726562 13.449219 102.839844 13.386719 "/>
<path style=" stroke:none;fill-rule:nonzero;fill:rgb(36.083984%,38.282776%,39.427185%);fill-opacity:1;" d="M 33.34375 0.671875 C 33.3125 1.21875 33.273438 1.710938 33.261719 2.199219 C 33.246094 3.027344 33.246094 3.855469 33.242188 4.683594 C 33.238281 5.070312 33.238281 5.453125 33.246094 5.839844 C 33.253906 6.136719 33.34375 6.238281 33.628906 6.246094 C 34.660156 6.28125 35.664062 6.152344 36.609375 5.710938 C 37.316406 5.382812 37.765625 4.835938 37.957031 4.078125 C 38.085938 3.570312 38.082031 3.046875 38.003906 2.539062 C 37.925781 2.015625 37.714844 1.515625 37.285156 1.164062 C 36.535156 0.542969 35.65625 0.3125 34.699219 0.40625 C 34.25 0.449219 33.808594 0.578125 33.34375 0.671875 Z M 33.367188 6.671875 C 33.234375 6.910156 33.183594 7.148438 33.179688 7.515625 C 33.171875 8.140625 33.195312 8.765625 33.160156 9.390625 C 33.101562 10.347656 33.085938 11.304688 33.164062 12.265625 C 33.183594 12.511719 33.277344 12.679688 33.515625 12.746094 C 33.800781 12.824219 34.09375 12.925781 34.386719 12.941406 C 34.921875 12.972656 35.46875 12.976562 36.007812 12.945312 C 36.476562 12.921875 36.921875 12.78125 37.308594 12.484375 C 37.914062 12.019531 38.273438 11.398438 38.460938 10.667969 C 38.582031 10.183594 38.574219 9.6875 38.519531 9.199219 C 38.449219 8.542969 38.226562 7.9375 37.714844 7.480469 C 37.351562 7.15625 36.925781 6.925781 36.457031 6.8125 C 36.121094 6.726562 35.773438 6.699219 35.429688 6.640625 C 34.734375 6.515625 34.046875 6.625 33.367188 6.671875 Z M 29.835938 0.285156 C 29.90625 0.117188 30.054688 0.121094 30.199219 0.125 C 30.617188 0.140625 31.039062 0.175781 31.457031 0.171875 C 32.453125 0.15625 33.449219 0.128906 34.445312 0.101562 C 35.03125 0.0898438 35.617188 0.0585938 36.207031 0.0507812 C 36.859375 0.0429688 37.492188 0.195312 38.089844 0.449219 C 38.796875 0.753906 39.390625 1.222656 39.644531 1.964844 C 39.976562 2.9375 39.941406 3.886719 39.265625 4.753906 C 38.808594 5.335938 38.195312 5.65625 37.539062 5.9375 C 37.324219 6.03125 37.097656 6.109375 36.863281 6.199219 C 36.925781 6.351562 37.066406 6.34375 37.167969 6.371094 C 37.746094 6.535156 38.300781 6.761719 38.816406 7.070312 C 39.230469 7.320312 39.605469 7.613281 39.902344 8 C 40.6875 9.039062 40.675781 10.570312 39.78125 11.710938 C 39.492188 12.082031 39.175781 12.425781 38.769531 12.671875 C 38.226562 13 37.648438 13.199219 37.023438 13.292969 C 36.414062 13.386719 35.800781 13.386719 35.191406 13.34375 C 33.632812 13.230469 32.074219 13.304688 30.511719 13.300781 C 30.285156 13.300781 30.058594 13.335938 29.832031 13.351562 C 29.695312 13.359375 29.574219 13.328125 29.511719 13.1875 C 29.5625 13.058594 29.664062 13.042969 29.773438 13.023438 C 29.996094 12.980469 30.21875 12.9375 30.441406 12.886719 C 30.824219 12.796875 31.085938 12.5625 31.179688 12.179688 C 31.265625 11.832031 31.359375 11.480469 31.386719 11.125 C 31.4375 10.429688 31.453125 9.734375 31.46875 9.039062 C 31.480469 8.308594 31.46875 7.574219 31.480469 6.84375 C 31.496094 5.761719 31.53125 4.683594 31.53125 3.605469 C 31.53125 2.910156 31.449219 2.21875 31.320312 1.535156 C 31.292969 1.394531 31.230469 1.261719 31.191406 1.125 C 31.121094 0.886719 30.960938 0.730469 30.734375 0.652344 C 30.53125 0.578125 30.324219 0.519531 30.117188 0.46875 C 29.996094 0.441406 29.882812 0.417969 29.835938 0.285156 "/>
<path style=" stroke:none;fill-rule:nonzero;fill:rgb(36.083984%,38.282776%,39.427185%);fill-opacity:1;" d="M 53.242188 6.457031 C 53.226562 6.300781 53.199219 6.015625 53.175781 5.726562 C 53.074219 4.546875 52.722656 3.453125 52.097656 2.449219 C 51.460938 1.429688 50.628906 0.675781 49.394531 0.492188 C 48.523438 0.359375 47.6875 0.472656 46.941406 0.960938 C 46.113281 1.5 45.539062 2.273438 45.160156 3.167969 C 44.632812 4.402344 44.355469 5.6875 44.472656 7.050781 C 44.5625 8.097656 44.753906 9.113281 45.082031 10.105469 C 45.277344 10.6875 45.539062 11.25 45.96875 11.699219 C 46.914062 12.683594 48.058594 13.160156 49.4375 12.949219 C 50.027344 12.859375 50.558594 12.617188 51.027344 12.242188 C 51.601562 11.777344 51.992188 11.183594 52.332031 10.542969 C 52.984375 9.304688 53.210938 7.96875 53.242188 6.457031 Z M 49.097656 0.00390625 C 50.296875 0.0117188 51.414062 0.292969 52.402344 0.972656 C 53.921875 2.019531 54.949219 3.441406 55.28125 5.277344 C 55.574219 6.894531 55.324219 8.441406 54.472656 9.882812 C 53.871094 10.902344 53.101562 11.753906 52.121094 12.414062 C 51.15625 13.066406 50.089844 13.410156 48.917969 13.445312 C 47.898438 13.472656 46.910156 13.351562 45.972656 12.921875 C 45.515625 12.710938 45.085938 12.449219 44.695312 12.128906 C 43.46875 11.125 42.710938 9.84375 42.425781 8.28125 C 42.316406 7.679688 42.257812 7.074219 42.285156 6.460938 C 42.316406 5.832031 42.464844 5.230469 42.683594 4.644531 C 43.070312 3.621094 43.621094 2.699219 44.410156 1.933594 C 45.394531 0.980469 46.535156 0.304688 47.917969 0.117188 C 48.308594 0.0625 48.707031 0.0390625 49.097656 0.00390625 "/>
<path style=" stroke:none;fill-rule:nonzero;fill:rgb(36.083984%,38.282776%,39.427185%);fill-opacity:1;" d="M 128.929688 0.894531 C 128.699219 2.679688 128.78125 4.453125 128.761719 6.214844 C 128.839844 6.253906 128.878906 6.292969 128.921875 6.296875 C 129.652344 6.328125 130.382812 6.367188 131.105469 6.183594 C 131.625 6.054688 132.015625 5.761719 132.253906 5.28125 C 132.40625 4.972656 132.546875 4.652344 132.679688 4.332031 C 132.726562 4.21875 132.773438 4.140625 132.933594 4.140625 C 132.960938 4.207031 133.011719 4.28125 133.007812 4.351562 C 133 4.578125 132.960938 4.804688 132.953125 5.03125 C 132.925781 5.761719 132.898438 6.492188 132.894531 7.226562 C 132.890625 7.765625 132.929688 8.304688 132.941406 8.84375 C 132.945312 8.96875 132.980469 9.117188 132.789062 9.167969 C 132.652344 9.085938 132.636719 8.941406 132.609375 8.800781 C 132.519531 8.363281 132.355469 7.953125 132.09375 7.585938 C 131.910156 7.335938 131.679688 7.136719 131.390625 7.046875 C 131.039062 6.933594 130.671875 6.851562 130.308594 6.804688 C 129.902344 6.75 129.492188 6.746094 129.089844 6.722656 C 128.996094 6.71875 128.902344 6.738281 128.789062 6.746094 C 128.78125 6.871094 128.765625 6.972656 128.765625 7.078125 C 128.765625 8.292969 128.757812 9.507812 128.773438 10.71875 C 128.78125 11.0625 128.84375 11.410156 128.90625 11.75 C 128.984375 12.175781 129.25 12.476562 129.621094 12.691406 C 129.984375 12.902344 130.382812 12.988281 130.789062 13.011719 C 131.652344 13.058594 132.519531 13.0625 133.367188 12.875 C 134.375 12.652344 135.292969 12.253906 135.960938 11.4375 C 136.222656 11.117188 136.40625 10.730469 136.621094 10.375 C 136.695312 10.257812 136.710938 10.09375 136.894531 10.054688 C 137.066406 10.144531 136.996094 10.304688 136.976562 10.433594 C 136.945312 10.65625 136.886719 10.878906 136.835938 11.097656 C 136.6875 11.777344 136.539062 12.457031 136.390625 13.132812 C 136.371094 13.226562 136.335938 13.3125 136.304688 13.421875 C 136.203125 13.425781 136.109375 13.433594 136.015625 13.433594 C 134.394531 13.433594 132.773438 13.445312 131.152344 13.421875 C 130.230469 13.410156 129.308594 13.332031 128.386719 13.304688 C 127.460938 13.28125 126.535156 13.289062 125.609375 13.277344 C 125.398438 13.273438 125.1875 13.238281 124.984375 13.214844 C 124.957031 13 125.09375 12.980469 125.207031 12.964844 C 125.335938 12.949219 125.472656 12.96875 125.601562 12.953125 C 125.777344 12.929688 125.960938 12.90625 126.128906 12.851562 C 126.484375 12.738281 126.738281 12.5 126.832031 12.140625 C 126.921875 11.792969 127.007812 11.441406 127.039062 11.085938 C 127.089844 10.574219 127.105469 10.054688 127.109375 9.539062 C 127.117188 7.957031 127.132812 6.367188 127.109375 4.785156 C 127.097656 3.765625 127.023438 2.746094 126.976562 1.730469 C 126.957031 1.320312 126.75 1.023438 126.386719 0.851562 C 126.148438 0.738281 125.894531 0.671875 125.644531 0.582031 C 125.515625 0.53125 125.382812 0.480469 125.265625 0.433594 C 125.242188 0.222656 125.359375 0.191406 125.484375 0.191406 C 125.761719 0.195312 126.035156 0.207031 126.3125 0.21875 C 126.421875 0.222656 126.527344 0.246094 126.632812 0.25 C 128.023438 0.339844 129.417969 0.339844 130.8125 0.339844 C 132.253906 0.339844 133.691406 0.339844 135.136719 0.339844 C 135.324219 0.339844 135.515625 0.339844 135.730469 0.339844 C 136.003906 1.375 136.148438 2.414062 136.300781 3.457031 C 136.144531 3.554688 136.089844 3.433594 136.023438 3.335938 C 135.757812 2.96875 135.496094 2.59375 135.21875 2.234375 C 134.871094 1.78125 134.4375 1.425781 133.941406 1.140625 C 133.53125 0.898438 133.085938 0.765625 132.613281 0.746094 C 131.941406 0.710938 131.269531 0.675781 130.601562 0.6875 C 130.097656 0.695312 129.597656 0.777344 129.097656 0.828125 C 129.054688 0.832031 129.011719 0.863281 128.929688 0.894531 "/>
<path style=" stroke:none;fill-rule:nonzero;fill:rgb(36.083984%,38.282776%,39.427185%);fill-opacity:1;" d="M 66.679688 0.410156 C 66.75 0.359375 66.804688 0.292969 66.871094 0.273438 C 66.976562 0.25 67.085938 0.253906 67.195312 0.253906 C 68.46875 0.253906 69.738281 0.253906 71.011719 0.253906 C 71.097656 0.253906 71.1875 0.246094 71.261719 0.273438 C 71.316406 0.292969 71.351562 0.363281 71.433594 0.453125 C 71.269531 0.511719 71.152344 0.554688 71.03125 0.59375 C 70.875 0.644531 70.707031 0.675781 70.554688 0.734375 C 70.164062 0.890625 69.878906 1.152344 69.78125 1.574219 C 69.703125 1.921875 69.621094 2.273438 69.582031 2.628906 C 69.449219 3.8125 69.527344 5.003906 69.492188 6.191406 C 69.457031 7.316406 69.429688 8.445312 69.277344 9.558594 C 69.214844 10.019531 69.082031 10.472656 68.945312 10.914062 C 68.703125 11.699219 68.160156 12.246094 67.464844 12.65625 C 66.816406 13.035156 66.105469 13.242188 65.367188 13.359375 C 64.601562 13.484375 63.832031 13.476562 63.070312 13.414062 C 62.070312 13.332031 61.121094 13.070312 60.28125 12.480469 C 59.597656 12 59.226562 11.339844 59.089844 10.542969 C 58.871094 9.269531 58.929688 7.988281 58.976562 6.703125 C 59 6.117188 58.972656 5.527344 58.964844 4.941406 C 58.964844 4.691406 58.949219 4.441406 58.945312 4.191406 C 58.941406 3.445312 58.90625 2.703125 58.789062 1.96875 C 58.769531 1.828125 58.746094 1.683594 58.703125 1.546875 C 58.542969 1.019531 58.210938 0.679688 57.648438 0.59375 C 57.496094 0.570312 57.339844 0.558594 57.1875 0.53125 C 57.121094 0.519531 57.058594 0.488281 57.011719 0.46875 C 56.976562 0.332031 57.042969 0.28125 57.132812 0.269531 C 57.226562 0.257812 57.324219 0.253906 57.421875 0.253906 C 59.042969 0.253906 60.664062 0.25 62.285156 0.253906 C 62.441406 0.257812 62.625 0.199219 62.742188 0.394531 C 62.695312 0.550781 62.550781 0.558594 62.429688 0.585938 C 62.335938 0.605469 62.238281 0.601562 62.144531 0.621094 C 61.558594 0.734375 61.167969 1.074219 61.015625 1.652344 C 60.914062 2.019531 60.828125 2.398438 60.796875 2.777344 C 60.742188 3.457031 60.722656 4.140625 60.714844 4.824219 C 60.707031 5.796875 60.695312 6.769531 60.730469 7.742188 C 60.761719 8.519531 60.78125 9.296875 60.914062 10.070312 C 61.109375 11.230469 61.785156 12 62.855469 12.414062 C 63.683594 12.738281 64.554688 12.8125 65.4375 12.683594 C 65.816406 12.628906 66.199219 12.582031 66.5625 12.472656 C 67.664062 12.148438 68.296875 11.367188 68.589844 10.285156 C 68.722656 9.773438 68.789062 9.25 68.808594 8.722656 C 68.839844 7.726562 68.867188 6.730469 68.898438 5.738281 C 68.90625 5.378906 68.929688 5.019531 68.9375 4.660156 C 68.953125 3.902344 68.914062 3.148438 68.800781 2.402344 C 68.726562 1.902344 68.609375 1.417969 68.214844 1.042969 C 67.90625 0.753906 67.542969 0.636719 67.144531 0.597656 C 66.992188 0.585938 66.828125 0.621094 66.679688 0.410156 "/>
<path style=" stroke:none;fill-rule:nonzero;fill:rgb(36.083984%,38.282776%,39.427185%);fill-opacity:1;" d="M 115.242188 0.386719 C 115.089844 0.558594 114.9375 0.574219 114.78125 0.59375 C 113.945312 0.703125 113.628906 1.078125 113.402344 1.804688 C 113.269531 2.242188 113.226562 2.699219 113.203125 3.148438 C 113.160156 4.132812 113.144531 5.117188 113.140625 6.101562 C 113.140625 6.925781 113.160156 7.757812 113.207031 8.582031 C 113.234375 9.128906 113.285156 9.683594 113.390625 10.21875 C 113.617188 11.40625 114.378906 12.140625 115.503906 12.492188 C 116.300781 12.742188 117.121094 12.796875 117.957031 12.6875 C 118.3125 12.636719 118.660156 12.578125 119.007812 12.472656 C 119.980469 12.179688 120.59375 11.53125 120.933594 10.589844 C 121.101562 10.125 121.167969 9.636719 121.214844 9.148438 C 121.367188 7.402344 121.375 5.652344 121.359375 3.898438 C 121.355469 3.226562 121.292969 2.5625 121.140625 1.90625 C 121.074219 1.617188 120.941406 1.363281 120.757812 1.140625 C 120.472656 0.796875 120.085938 0.65625 119.65625 0.601562 C 119.5625 0.589844 119.464844 0.597656 119.367188 0.589844 C 119.253906 0.582031 119.164062 0.53125 119.128906 0.371094 C 119.1875 0.339844 119.25 0.289062 119.324219 0.269531 C 119.414062 0.25 119.515625 0.253906 119.609375 0.253906 C 120.894531 0.253906 122.179688 0.25 123.464844 0.253906 C 123.597656 0.253906 123.761719 0.203125 123.847656 0.394531 C 123.796875 0.566406 123.628906 0.546875 123.5 0.589844 C 123.332031 0.644531 123.152344 0.671875 122.984375 0.734375 C 122.574219 0.890625 122.328125 1.203125 122.199219 1.613281 C 122.050781 2.097656 122 2.601562 121.984375 3.101562 C 121.953125 4.460938 121.953125 5.816406 121.898438 7.167969 C 121.859375 8.148438 121.820312 9.132812 121.625 10.097656 C 121.453125 10.96875 121.121094 11.75 120.398438 12.316406 C 119.855469 12.742188 119.234375 13.03125 118.570312 13.207031 C 117.441406 13.503906 116.296875 13.503906 115.144531 13.367188 C 114.339844 13.269531 113.578125 13.035156 112.890625 12.59375 C 112.246094 12.1875 111.804688 11.644531 111.613281 10.886719 C 111.410156 10.070312 111.398438 9.25 111.398438 8.421875 C 111.402344 6.957031 111.425781 5.492188 111.398438 4.027344 C 111.382812 3.273438 111.359375 2.515625 111.195312 1.773438 C 111.136719 1.492188 111.050781 1.226562 110.847656 1 C 110.539062 0.65625 110.136719 0.578125 109.714844 0.535156 C 109.605469 0.523438 109.464844 0.566406 109.402344 0.382812 C 109.46875 0.34375 109.527344 0.285156 109.601562 0.269531 C 109.703125 0.25 109.816406 0.253906 109.925781 0.253906 C 111.523438 0.253906 113.117188 0.253906 114.714844 0.253906 C 114.824219 0.253906 114.933594 0.25 115.039062 0.269531 C 115.101562 0.28125 115.152344 0.332031 115.242188 0.386719 "/>
<path style=" stroke:none;fill-rule:nonzero;fill:rgb(36.083984%,38.282776%,39.427185%);fill-opacity:1;" d="M 85.84375 0.207031 C 85.957031 0.652344 86.160156 2.980469 86.113281 3.222656 C 85.84375 3.296875 85.820312 3.296875 85.671875 3.078125 C 85.484375 2.8125 85.320312 2.535156 85.132812 2.269531 C 84.492188 1.359375 83.613281 0.871094 82.496094 0.820312 C 81.859375 0.789062 81.226562 0.765625 80.589844 0.738281 C 80.472656 0.734375 80.355469 0.738281 80.226562 0.738281 C 80.210938 0.855469 80.191406 0.933594 80.1875 1.015625 C 80.15625 1.972656 80.109375 2.933594 80.101562 3.894531 C 80.09375 5.324219 80.097656 6.753906 80.125 8.183594 C 80.140625 9.140625 80.203125 10.097656 80.261719 11.054688 C 80.277344 11.304688 80.335938 11.550781 80.382812 11.796875 C 80.480469 12.289062 80.785156 12.605469 81.238281 12.785156 C 81.566406 12.917969 81.90625 12.972656 82.257812 12.960938 C 82.414062 12.957031 82.574219 12.945312 82.699219 13.070312 C 82.734375 13.195312 82.65625 13.25 82.554688 13.273438 C 82.484375 13.289062 82.410156 13.28125 82.339844 13.28125 C 80.347656 13.28125 78.351562 13.28125 76.359375 13.28125 C 76.285156 13.28125 76.207031 13.289062 76.144531 13.265625 C 76.089844 13.242188 76.054688 13.171875 76 13.113281 C 76.136719 12.980469 76.285156 12.957031 76.441406 12.957031 C 76.597656 12.953125 76.753906 12.949219 76.90625 12.921875 C 77.839844 12.753906 78.292969 11.957031 78.332031 11.214844 C 78.445312 8.96875 78.40625 6.722656 78.378906 4.480469 C 78.367188 3.414062 78.289062 2.347656 78.238281 1.28125 C 78.230469 1.113281 78.195312 0.949219 78.167969 0.773438 C 77.667969 0.664062 77.164062 0.652344 76.664062 0.691406 C 76.238281 0.722656 75.8125 0.792969 75.390625 0.875 C 74.535156 1.039062 73.878906 1.515625 73.339844 2.179688 C 73.089844 2.492188 72.871094 2.816406 72.765625 3.207031 C 72.730469 3.335938 72.671875 3.421875 72.535156 3.476562 C 72.480469 3.4375 72.421875 3.398438 72.335938 3.335938 C 72.460938 2.3125 72.585938 1.28125 72.71875 0.222656 C 72.84375 0.210938 72.949219 0.1875 73.050781 0.191406 C 73.664062 0.207031 74.273438 0.230469 74.886719 0.246094 C 76.046875 0.28125 77.210938 0.324219 78.375 0.335938 C 79.71875 0.351562 81.066406 0.347656 82.410156 0.324219 C 83.09375 0.316406 83.773438 0.238281 84.457031 0.210938 C 84.910156 0.191406 85.367188 0.207031 85.84375 0.207031 "/>
<path style=" stroke:none;fill-rule:nonzero;fill:rgb(36.083984%,38.282776%,39.427185%);fill-opacity:1;" d="M 87.816406 0.394531 C 87.855469 0.277344 87.875 0.214844 87.902344 0.136719 C 88.246094 0.136719 88.585938 0.117188 88.917969 0.140625 C 89.757812 0.203125 90.59375 0.1875 91.433594 0.140625 C 91.863281 0.113281 92.296875 0.121094 92.730469 0.132812 C 92.847656 0.136719 92.96875 0.210938 93.15625 0.273438 C 93.035156 0.367188 92.984375 0.433594 92.917969 0.449219 C 92.734375 0.503906 92.542969 0.519531 92.359375 0.578125 C 91.664062 0.796875 91.421875 1.09375 91.335938 1.800781 C 91.238281 2.609375 91.203125 3.421875 91.199219 4.238281 C 91.191406 4.875 91.152344 5.511719 91.15625 6.148438 C 91.164062 7.144531 91.183594 8.140625 91.21875 9.132812 C 91.246094 9.9375 91.304688 10.738281 91.359375 11.539062 C 91.371094 11.726562 91.414062 11.917969 91.472656 12.101562 C 91.589844 12.460938 91.808594 12.734375 92.199219 12.832031 C 92.429688 12.894531 92.660156 12.953125 92.894531 13.007812 C 92.992188 13.03125 93.082031 13.058594 93.074219 13.183594 C 93.003906 13.328125 92.871094 13.292969 92.757812 13.292969 C 92.335938 13.292969 91.914062 13.289062 91.496094 13.289062 C 90.484375 13.292969 89.476562 13.296875 88.46875 13.300781 C 88.316406 13.300781 88.167969 13.273438 88.027344 13.261719 C 87.957031 13.054688 88.03125 12.976562 88.195312 12.957031 C 88.371094 12.9375 88.550781 12.921875 88.726562 12.886719 C 89.078125 12.8125 89.3125 12.605469 89.355469 12.242188 C 89.414062 11.765625 89.484375 11.289062 89.484375 10.8125 C 89.496094 8.46875 89.503906 6.128906 89.472656 3.785156 C 89.464844 3.023438 89.4375 2.253906 89.289062 1.496094 C 89.191406 1.003906 88.914062 0.710938 88.4375 0.578125 C 88.246094 0.527344 88.054688 0.464844 87.816406 0.394531 "/>
<path style=" stroke:none;fill-rule:nonzero;fill:rgb(6.266785%,5.734253%,5.047607%);fill-opacity:1;" d="M 151.714844 8.433594 L 149.59375 3.386719 L 147.421875 8.433594 Z M 151.972656 9.117188 L 147.136719 9.117188 L 146.285156 11.089844 C 146.078125 11.566406 145.972656 11.929688 145.972656 12.175781 C 145.972656 12.273438 145.988281 12.363281 146.023438 12.445312 C 146.058594 12.53125 146.128906 12.605469 146.230469 12.675781 C 146.335938 12.746094 146.484375 12.804688 146.675781 12.851562 C 146.863281 12.898438 147.113281 12.933594 147.421875 12.957031 L 147.421875 13.300781 L 143.484375 13.300781 L 143.484375 12.957031 C 144.003906 12.867188 144.339844 12.746094 144.5 12.597656 C 144.660156 12.453125 144.824219 12.226562 144.992188 11.929688 C 145.160156 11.632812 145.34375 11.257812 145.539062 10.800781 L 149.9375 0.519531 L 150.257812 0.519531 L 154.605469 10.914062 C 154.785156 11.34375 154.949219 11.6875 155.101562 11.949219 C 155.25 12.210938 155.40625 12.414062 155.566406 12.558594 C 155.726562 12.703125 155.898438 12.800781 156.085938 12.855469 C 156.273438 12.914062 156.496094 12.945312 156.753906 12.957031 L 156.753906 13.300781 L 151.824219 13.300781 L 151.824219 12.957031 C 152.070312 12.945312 152.273438 12.917969 152.441406 12.875 C 152.605469 12.832031 152.738281 12.777344 152.832031 12.710938 C 152.929688 12.640625 152.996094 12.566406 153.035156 12.480469 C 153.074219 12.394531 153.097656 12.296875 153.097656 12.195312 C 153.101562 12.058594 153.070312 11.886719 153.007812 11.671875 C 152.941406 11.460938 152.851562 11.207031 152.726562 10.914062 L 151.972656 9.117188 "/>
<path style=" stroke:none;fill-rule:nonzero;fill:rgb(6.266785%,5.734253%,5.047607%);fill-opacity:1;" d="M 162.789062 12.957031 L 162.789062 13.300781 L 157.4375 13.300781 L 157.4375 12.957031 L 157.878906 12.957031 C 158.398438 12.957031 158.773438 12.808594 159 12.507812 C 159.148438 12.316406 159.222656 11.84375 159.222656 11.089844 L 159.222656 3.015625 C 159.222656 2.722656 159.214844 2.480469 159.203125 2.296875 C 159.191406 2.113281 159.167969 1.960938 159.136719 1.84375 C 159.101562 1.722656 159.050781 1.628906 158.988281 1.5625 C 158.921875 1.492188 158.835938 1.429688 158.726562 1.367188 C 158.453125 1.21875 158.171875 1.148438 157.878906 1.148438 L 157.4375 1.148438 L 157.4375 0.804688 L 162.789062 0.804688 L 162.789062 1.148438 L 162.335938 1.148438 C 161.820312 1.148438 161.449219 1.296875 161.222656 1.597656 C 161.066406 1.789062 160.992188 2.261719 160.992188 3.015625 L 160.992188 11.089844 C 160.992188 11.382812 160.996094 11.621094 161.011719 11.804688 C 161.023438 11.992188 161.046875 12.140625 161.078125 12.257812 C 161.113281 12.375 161.164062 12.46875 161.230469 12.539062 C 161.300781 12.609375 161.386719 12.675781 161.496094 12.738281 C 161.761719 12.882812 162.042969 12.957031 162.335938 12.957031 L 162.789062 12.957031 "/>
<path style=" stroke:none;fill-rule:nonzero;fill:rgb(6.266785%,5.734253%,5.047607%);fill-opacity:1;" d="M 167.128906 6.878906 C 167.242188 6.878906 167.347656 6.878906 167.433594 6.882812 C 167.519531 6.886719 167.589844 6.886719 167.644531 6.886719 C 168.238281 6.886719 168.761719 6.816406 169.214844 6.679688 C 169.664062 6.539062 170.042969 6.347656 170.34375 6.101562 C 170.644531 5.855469 170.867188 5.566406 171.019531 5.230469 C 171.171875 4.898438 171.246094 4.535156 171.246094 4.140625 C 171.246094 3.753906 171.183594 3.398438 171.054688 3.078125 C 170.925781 2.753906 170.738281 2.476562 170.503906 2.242188 C 170.269531 2.007812 169.984375 1.828125 169.65625 1.699219 C 169.328125 1.570312 168.96875 1.507812 168.574219 1.507812 C 168.394531 1.507812 168.1875 1.519531 167.945312 1.546875 C 167.707031 1.574219 167.433594 1.621094 167.128906 1.679688 Z M 176 13.300781 L 172.664062 13.300781 L 168.4375 7.457031 C 168.277344 7.464844 168.132812 7.46875 168.007812 7.472656 C 167.882812 7.472656 167.769531 7.476562 167.671875 7.476562 C 167.589844 7.476562 167.503906 7.472656 167.414062 7.472656 C 167.320312 7.46875 167.226562 7.464844 167.128906 7.457031 L 167.128906 11.089844 C 167.128906 11.875 167.214844 12.363281 167.386719 12.550781 C 167.617188 12.824219 167.96875 12.957031 168.4375 12.957031 L 168.925781 12.957031 L 168.925781 13.300781 L 163.570312 13.300781 L 163.570312 12.957031 L 164.039062 12.957031 C 164.5625 12.957031 164.941406 12.785156 165.175781 12.441406 C 165.304688 12.25 165.367188 11.800781 165.367188 11.089844 L 165.367188 3.015625 C 165.367188 2.230469 165.28125 1.742188 165.109375 1.550781 C 164.871094 1.28125 164.515625 1.148438 164.039062 1.148438 L 163.570312 1.148438 L 163.570312 0.804688 L 168.121094 0.804688 C 169.4375 0.804688 170.414062 0.902344 171.054688 1.101562 C 171.363281 1.191406 171.660156 1.332031 171.933594 1.515625 C 172.203125 1.699219 172.445312 1.917969 172.652344 2.167969 C 172.855469 2.421875 173.019531 2.703125 173.140625 3.015625 C 173.257812 3.332031 173.316406 3.664062 173.316406 4.019531 C 173.316406 4.40625 173.257812 4.769531 173.136719 5.101562 C 173.011719 5.4375 172.824219 5.742188 172.566406 6.019531 C 172.3125 6.296875 171.992188 6.535156 171.605469 6.738281 C 171.21875 6.941406 170.765625 7.101562 170.242188 7.21875 L 172.820312 10.800781 C 173.417969 11.632812 173.925781 12.175781 174.34375 12.441406 C 174.773438 12.710938 175.324219 12.882812 176 12.957031 L 176 13.300781 "/>
</g>
</svg>
