<svg xmlns="http://www.w3.org/2000/svg" width="176pt" height="46.3pt" viewBox="0 0 176 46.3"><defs><clipPath id="a"><path d="M70 0h48v46.3H70Zm0 0"/></clipPath></defs><g clip-path="url(#a)"><path d="M117.055 23.148c0 12.786-10.368 23.153-23.153 23.153S70.754 35.934 70.754 23.148 81.117 0 93.902 0s23.153 10.363 23.153 23.148" style="stroke:none;fill-rule:nonzero;fill:#2c307b;fill-opacity:1"/></g><path d="m102.988 11.414-4.101 11.164h-6.774C97.172 9.891 99.938 9.41 99.938 9.41h3.05c.86 0 0 2.004 0 2.004m-3.05-2.98c-3.72 0-5.247 4.222-5.247 4.222l-4.77 9.922h-6.394s2.387-5.535 4.106-10.113c1.715-4.578 0-4.008 0-4.008H80.57c1.243 0 .86 1.91.86 1.91s-3.051 9.254-3.72 11.16c-.667 1.91 1.24 3.055 1.24 3.055l10.304-.191s-4.39 8.488-6.871 12.304c-2.48 3.817-5.914 4.008-7.153 4.008-1.242 0-7.44.192-7.44-6.773s4.67-8.395 4.67-8.395l1.528-.668c1.528-.668.668-1.336.668-1.336H73.32c-4.863 0-8.3 6.297-8.3 10.496 0 4.196 4.199 9.54 10.304 9.54s8.778-5.536 8.778-5.536l7.156-13.64 7.25-.098-5.153 13.645-.097 4.675h7.347l-.093-1.527H99.46l.191-3.816 4.961-13.168h6.961l.766-1.524h-7.25l4.484-13.453s2.383-.094 3.91-.094 9.922 2.574 12.118 2.574c4.101 0 4.96-3.171 4.96-3.171z" style="stroke:none;fill-rule:nonzero;fill:#f5b90b;fill-opacity:1"/><path d="M112.941 10.238s9.606 3.055 11.004 2.672c-2.066 2.067-5.215 1.527-6.93.508-1.718-1.016-4.074-3.18-4.074-3.18M112.242 11.637s2.801 2.734 3.88 3.054c1.081.317 1.112.985.636 1.461-.477.48-2.098 1.465-3.242-.699-1.145-2.16-1.274-3.816-1.274-3.816M110.273 12.594s2.668 3.687 2.668 4.578c0 .89-2.351 1.46-2.668.445-.32-1.02 0-5.023 0-5.023" style="stroke:none;fill-rule:nonzero;fill:#f5b90b;fill-opacity:1"/><path d="M.273 9.219h5.778l1.086 5.676 5.703-5.676h5.746L8.074 19l-2.863 7.047H0L2.86 19zM31.215 9.219h5.187l-4.066 10.027q-.608 1.487-1.61 2.817a10.9 10.9 0 0 1-2.398 2.316q-1.395.99-2.648 1.394-1.746.563-3.867.563-1.23-.001-2.614-.172-1.382-.175-2.148-.684-.773-.51-1.2-1.453a3.67 3.67 0 0 1-.32-1.937q.17-1.607.672-2.844l4.07-10.027h5.188l-4.164 10.265q-.561 1.376-.11 2.149.452.779 1.805.777 1.343 0 2.414-.765 1.073-.764 1.64-2.16zM38.664 9.219h15.809l-1.688 4.156h-5.3L42.34 26.047h-5.2l5.141-12.672h-5.304zM56.816 9.219h13.938l-1.461 3.59H60.57l-1.086 2.675h8.094l-1.394 3.434H58.09l-1.344 3.316h8.977l-1.547 3.813H49.984zM133.672 19.387l.316-5.946-4.687 5.946Zm-.234 3.574h-6.985l-2.125 2.727h-6.281L132.52 9.156h6.71l.493 16.532h-6.442zM148.914 9.156h6.164l-6.988 16.532h-6.168zM162.922 15.855h2.598q.415.001 1.722-.226a2.7 2.7 0 0 0 1.219-.52c.375-.277.64-.593.793-.957.223-.535.195-.941-.094-1.23-.285-.285-.992-.426-2.113-.426h-2.703Zm-10.336 9.833 6.988-16.532h10.254q2.853.001 4.192.406 1.335.409 1.792 1.508c.305.73.239 1.625-.207 2.676q-.585 1.378-1.71 2.375a9.4 9.4 0 0 1-2.63 1.617c-.636.266-1.449.48-2.437.657q.974.304 1.344.609.256.2.617.867.364.666.43 1.027l.953 4.79h-6.953l-1.153-5.051q-.21-.98-.574-1.274-.504-.385-1.347-.383h-.543l-2.836 6.708z" style="stroke:none;fill-rule:nonzero;fill:#2c307b;fill-opacity:1"/></svg>