<?xml version="1.0" encoding="UTF-8"?>
<svg xmlns="http://www.w3.org/2000/svg" xmlns:xlink="http://www.w3.org/1999/xlink" width="176pt" height="24.36pt" viewBox="0 0 176 24.36" version="1.1">
<defs>
<clipPath id="clip1">
  <path d="M 24 5 L 39 5 L 39 24.359375 L 24 24.359375 Z M 24 5 "/>
</clipPath>
</defs>
<g id="surface1">
<path style=" stroke:none;fill-rule:nonzero;fill:rgb(22.900391%,43.545532%,75.131226%);fill-opacity:1;" d="M 10.140625 11.425781 L 8.71875 6.972656 C 8.371094 5.871094 8.074219 4.636719 7.808594 3.589844 L 7.753906 3.589844 C 7.488281 4.636719 7.21875 5.898438 6.894531 6.972656 L 5.5 11.425781 Z M 4.964844 13.921875 L 3.40625 19.046875 L 0 19.046875 L 5.796875 0.960938 L 10.007812 0.960938 L 15.886719 19.046875 L 12.34375 19.046875 L 10.707031 13.921875 L 4.964844 13.921875 "/>
<path style=" stroke:none;fill-rule:nonzero;fill:rgb(22.900391%,43.545532%,75.131226%);fill-opacity:1;" d="M 18.148438 -0.00390625 L 21.472656 -0.00390625 L 21.472656 19.046875 L 18.148438 19.046875 L 18.148438 -0.00390625 "/>
<g clip-path="url(#clip1)" clip-rule="nonzero">
<path style=" stroke:none;fill-rule:nonzero;fill:rgb(22.900391%,43.545532%,75.131226%);fill-opacity:1;" d="M 28.347656 13.574219 C 28.347656 13.894531 28.375 14.191406 28.457031 14.484375 C 28.777344 15.824219 29.957031 16.792969 31.351562 16.792969 C 33.445312 16.792969 34.679688 15.046875 34.679688 12.472656 C 34.679688 10.164062 33.550781 8.285156 31.433594 8.285156 C 30.066406 8.285156 28.804688 9.277344 28.480469 10.730469 C 28.402344 10.996094 28.347656 11.292969 28.347656 11.5625 Z M 25.046875 10.324219 C 25.046875 8.609375 24.992188 7.214844 24.941406 5.980469 L 27.839844 5.980469 L 28 7.992188 L 28.050781 7.992188 C 29.019531 6.515625 30.546875 5.683594 32.53125 5.683594 C 35.539062 5.683594 38.035156 8.261719 38.035156 12.339844 C 38.035156 17.058594 35.054688 19.339844 32.078125 19.339844 C 30.441406 19.339844 29.074219 18.644531 28.402344 17.597656 L 28.347656 17.597656 L 28.347656 24.359375 L 25.046875 24.359375 L 25.046875 10.324219 "/>
</g>
<path style=" stroke:none;fill-rule:nonzero;fill:rgb(22.900391%,43.545532%,75.131226%);fill-opacity:1;" d="M 40.753906 19.046875 L 40.753906 5.980469 L 44.082031 5.980469 L 44.082031 19.046875 Z M 44.269531 2.332031 C 44.269531 3.320312 43.542969 4.101562 42.390625 4.101562 C 41.289062 4.101562 40.566406 3.320312 40.566406 2.332031 C 40.566406 1.308594 41.316406 0.53125 42.417969 0.53125 C 43.542969 0.53125 44.242188 1.308594 44.269531 2.332031 "/>
<path style=" stroke:none;fill-rule:nonzero;fill:rgb(22.900391%,43.545532%,75.131226%);fill-opacity:1;" d="M 47.625 9.871094 C 47.625 8.367188 47.597656 7.105469 47.519531 5.980469 L 50.414062 5.980469 L 50.578125 7.9375 L 50.65625 7.9375 C 51.21875 6.917969 52.644531 5.683594 54.816406 5.683594 C 57.097656 5.683594 59.457031 7.160156 59.457031 11.292969 L 59.457031 19.046875 L 56.15625 19.046875 L 56.15625 11.667969 C 56.15625 9.789062 55.460938 8.367188 53.664062 8.367188 C 52.347656 8.367188 51.433594 9.304688 51.085938 10.300781 C 50.976562 10.59375 50.953125 10.996094 50.953125 11.375 L 50.953125 19.046875 L 47.625 19.046875 L 47.625 9.871094 "/>
<path style=" stroke:none;fill-rule:nonzero;fill:rgb(22.900391%,43.545532%,75.131226%);fill-opacity:1;" d="M 71.058594 11.128906 C 71.085938 9.921875 70.550781 7.9375 68.347656 7.9375 C 66.308594 7.9375 65.449219 9.789062 65.316406 11.128906 Z M 65.316406 13.4375 C 65.398438 15.800781 67.25 16.820312 69.339844 16.820312 C 70.871094 16.820312 71.972656 16.605469 72.964844 16.226562 L 73.445312 18.507812 C 72.320312 18.964844 70.761719 19.316406 68.886719 19.316406 C 64.644531 19.316406 62.152344 16.714844 62.152344 12.714844 C 62.152344 9.089844 64.351562 5.683594 68.535156 5.683594 C 72.777344 5.683594 74.171875 9.171875 74.171875 12.042969 C 74.171875 12.660156 74.117188 13.144531 74.0625 13.4375 L 65.316406 13.4375 "/>
<path style=" stroke:none;fill-rule:nonzero;fill:rgb(6.266785%,5.734253%,5.047607%);fill-opacity:1;" d="M 91.328125 11.425781 L 89.90625 6.972656 C 89.554688 5.871094 89.261719 4.636719 88.992188 3.589844 L 88.9375 3.589844 C 88.671875 4.636719 88.402344 5.898438 88.078125 6.972656 L 86.683594 11.425781 Z M 86.148438 13.921875 L 84.589844 19.046875 L 81.183594 19.046875 L 86.980469 0.960938 L 91.191406 0.960938 L 97.070312 19.046875 L 93.527344 19.046875 L 91.890625 13.921875 L 86.148438 13.921875 "/>
<path style=" stroke:none;fill-rule:nonzero;fill:rgb(6.266785%,5.734253%,5.047607%);fill-opacity:1;" d="M 100.835938 5.980469 L 102.953125 12.609375 C 103.328125 13.761719 103.597656 14.808594 103.839844 15.878906 L 103.921875 15.878906 C 104.160156 14.808594 104.457031 13.789062 104.804688 12.609375 L 106.871094 5.980469 L 110.359375 5.980469 L 105.367188 19.046875 L 102.121094 19.046875 L 97.265625 5.980469 L 100.835938 5.980469 "/>
<path style=" stroke:none;fill-rule:nonzero;fill:rgb(6.266785%,5.734253%,5.047607%);fill-opacity:1;" d="M 112.378906 19.046875 L 112.378906 5.980469 L 115.707031 5.980469 L 115.707031 19.046875 Z M 115.894531 2.332031 C 115.894531 3.320312 115.171875 4.101562 114.015625 4.101562 C 112.914062 4.101562 112.191406 3.320312 112.191406 2.332031 C 112.191406 1.308594 112.941406 0.53125 114.042969 0.53125 C 115.171875 0.53125 115.867188 1.308594 115.894531 2.332031 "/>
<path style=" stroke:none;fill-rule:nonzero;fill:rgb(6.266785%,5.734253%,5.047607%);fill-opacity:1;" d="M 126.175781 12.660156 C 123.839844 12.609375 121.613281 13.117188 121.613281 15.101562 C 121.613281 16.390625 122.445312 16.980469 123.492188 16.980469 C 124.808594 16.980469 125.773438 16.121094 126.066406 15.179688 C 126.148438 14.941406 126.175781 14.671875 126.175781 14.457031 Z M 126.605469 19.046875 L 126.390625 17.597656 L 126.308594 17.597656 C 125.503906 18.617188 124.136719 19.339844 122.445312 19.339844 C 119.816406 19.339844 118.339844 17.4375 118.339844 15.449219 C 118.339844 12.152344 121.265625 10.488281 126.097656 10.511719 L 126.097656 10.300781 C 126.097656 9.441406 125.746094 8.019531 123.4375 8.019531 C 122.148438 8.019531 120.808594 8.421875 119.921875 8.984375 L 119.277344 6.835938 C 120.246094 6.246094 121.9375 5.683594 124.003906 5.683594 C 128.1875 5.683594 129.394531 8.339844 129.394531 11.183594 L 129.394531 15.90625 C 129.394531 17.085938 129.449219 18.242188 129.582031 19.046875 L 126.605469 19.046875 "/>
<path style=" stroke:none;fill-rule:nonzero;fill:rgb(6.266785%,5.734253%,5.047607%);fill-opacity:1;" d="M 136.511719 2.25 L 136.511719 5.980469 L 139.652344 5.980469 L 139.652344 8.449219 L 136.511719 8.449219 L 136.511719 14.214844 C 136.511719 15.800781 136.941406 16.632812 138.203125 16.632812 C 138.769531 16.632812 139.195312 16.550781 139.492188 16.46875 L 139.546875 18.992188 C 139.0625 19.179688 138.203125 19.316406 137.15625 19.316406 C 135.949219 19.316406 134.929688 18.914062 134.3125 18.242188 C 133.613281 17.492188 133.292969 16.308594 133.292969 14.589844 L 133.292969 8.449219 L 131.414062 8.449219 L 131.414062 5.980469 L 133.292969 5.980469 L 133.292969 3.027344 L 136.511719 2.25 "/>
<path style=" stroke:none;fill-rule:nonzero;fill:rgb(6.266785%,5.734253%,5.047607%);fill-opacity:1;" d="M 142.152344 19.046875 L 142.152344 5.980469 L 145.480469 5.980469 L 145.480469 19.046875 Z M 145.667969 2.332031 C 145.667969 3.320312 144.941406 4.101562 143.789062 4.101562 C 142.6875 4.101562 141.964844 3.320312 141.964844 2.332031 C 141.964844 1.308594 142.71875 0.53125 143.816406 0.53125 C 144.941406 0.53125 145.640625 1.308594 145.667969 2.332031 "/>
<path style=" stroke:none;fill-rule:nonzero;fill:rgb(6.266785%,5.734253%,5.047607%);fill-opacity:1;" d="M 151.601562 12.527344 C 151.601562 15.046875 152.835938 16.953125 154.847656 16.953125 C 156.726562 16.953125 158.039062 15.101562 158.039062 12.472656 C 158.039062 10.433594 157.128906 8.097656 154.875 8.097656 C 152.539062 8.097656 151.601562 10.351562 151.601562 12.527344 Z M 161.449219 12.390625 C 161.449219 17.195312 158.066406 19.339844 154.738281 19.339844 C 151.035156 19.339844 148.191406 16.792969 148.191406 12.609375 C 148.191406 8.3125 151.011719 5.683594 154.953125 5.683594 C 158.847656 5.683594 161.449219 8.421875 161.449219 12.390625 "/>
<path style=" stroke:none;fill-rule:nonzero;fill:rgb(6.266785%,5.734253%,5.047607%);fill-opacity:1;" d="M 164.167969 9.871094 C 164.167969 8.367188 164.140625 7.105469 164.058594 5.980469 L 166.957031 5.980469 L 167.117188 7.9375 L 167.199219 7.9375 C 167.765625 6.917969 169.183594 5.683594 171.359375 5.683594 C 173.640625 5.683594 176 7.160156 176 11.292969 L 176 19.046875 L 172.699219 19.046875 L 172.699219 11.667969 C 172.699219 9.789062 172.003906 8.367188 170.203125 8.367188 C 168.890625 8.367188 167.976562 9.304688 167.628906 10.300781 C 167.519531 10.59375 167.492188 10.996094 167.492188 11.375 L 167.492188 19.046875 L 164.167969 19.046875 L 164.167969 9.871094 "/>
</g>
</svg>
