<svg xmlns="http://www.w3.org/2000/svg" width="173.5pt" height="59pt" viewBox="0 0 173.5 59"><defs><clipPath id="a"><path d="M169 19h4.5v5H169Zm0 0"/></clipPath></defs><g clip-path="url(#a)"><path d="M171.336 23.027c-.977 0-1.734-.754-1.734-1.777 0-1.016.757-1.777 1.734-1.777.969 0 1.726.761 1.726 1.777 0 1.023-.757 1.777-1.726 1.777m0-3.906c-1.172 0-2.168.902-2.168 2.129 0 1.23.996 2.129 2.168 2.129 1.164 0 2.16-.899 2.16-2.129 0-1.227-.996-2.129-2.16-2.129" style="stroke:none;fill-rule:nonzero;fill:#20335f;fill-opacity:1"/></g><path d="M170.883 21.102v-.762h.508c.257 0 .535.055.535.36 0 .378-.278.402-.594.402Zm.797.293c.363-.04.636-.235.636-.672 0-.489-.285-.7-.867-.7h-.937v2.457h.37v-1.066h.43l.649 1.066h.422zM26.883 9.242c.605.004 1.023.188 1.363.348.703.332 1.527.719 2.563 1.215 0 .004 1.668-1.184 1.757-1.242.567-.391 1.11-.094 1.286.238.625 1.172 1.77 3.61 2.375 5.836.074.265-.012.683-.43.808-.242.07-.656.13-1.09.184-.605.078-.594.566-.594.86 0 .363.008 2.827.008 3.667.012.516-.383 2.2-2.332 2.2l-4.445-.004c-1.68.011-3.035-1.41-3.043-2.922 0-.996 0-7.918.004-8.696.004-1.5 1.351-2.507 2.578-2.492" style="stroke:none;fill-rule:nonzero;fill:#20335f;fill-opacity:1"/><path d="M19.852 23.355H5.395v1.606h16.96s.614-1.422.614-2.988l.004-10.903c0-.86.351-2.308 2.117-2.695q.074-.018.148-.031c5.008-1.184 10.168-.106 13.078 1.148.524.254.645-.164.63-.34.062-2.453-1.801-5.242-5.227-5.414-2.782-.062-4.328.938-4.895 1.215-.043.02-.113.012-.176-.058-.511-.508-1.609-1.266-2.84-1.618-.183-.043-.203-.312.012-.336 2.633-.28 4.938.016 5.899.172.222.04.386-.093.3-.297-.066-.152-.124-.226-.234-.464-.234-.504-.855-1.04-1.644-1.258C28.07.516 24.547.02 21.406 0c-3.535-.02-7.261.684-8.203.895-.226.05-.543.132-.598.14-.257.055-.32.297-.207.418.07.078.262.242.356.356.117.144.172.351-.05.57L6.167 8.25h4.473l.05-.004c.29-.008.567.258.567.594.004.3-.238.582-.543.582l-.043.004H4.863l-1.777 1.613h7.648c.301 0 .532.313.528.594 0 .262-.223.578-.528.578l-.043.004H1.785l-1.781 1.61h15.41c.305 0 .54.312.543.581.004.317-.219.602-.527.598H0v1.601h15.352l.046.008c.352 0 .555.317.555.614 0 .265-.258.55-.562.55H0v1.621h20.09c.336.008.547.293.539.606-.008.273-.234.562-.535.562H5.398v1.614h14.754c.274 0 .508.336.508.605 0 .274-.242.57-.512.57zM10.79 28.906v1.64s2.17.009 3.41 0c3.054-.015 5.054-1.64 5.054-1.64zM10.79 26.14v1.606h9.812c.453-.457 1.035-1.297 1.187-1.605zM162.375 21.652a4.6 4.6 0 0 1-.645 0 2.84 2.84 0 0 1-1.898-.968c-.637-.723-.984-1.95-1.066-2.922-.188-2.266.265-5.57 3.047-5.793l.207-.012h.065l.212.012c2.777.222 3.23 3.527 3.043 5.793-.082.972-.39 2.175-1.067 2.922a3.5 3.5 0 0 1-.367.355c-.441.34-.96.566-1.531.613m6.656-5.453c0-.031-.004-.054-.008-.086a6.3 6.3 0 0 0-1.054-3.234c-1.215-1.906-3.348-2.934-5.914-2.902-2.567-.032-4.703.996-5.918 2.902-.582.867-1 1.984-1.055 3.234-.004.032-.008.055-.008.086-.351 4.188 2.09 7.082 6.246 7.418q.376.03.735.024.356.006.73-.024c4.156-.336 6.598-3.23 6.246-7.418M141.379 13.086c0-1.035.105-2.856.105-2.856h-3.418s.106 1.82.106 2.856l-.008 7.46c0 1.036-.094 2.802-.094 2.802h3.41s-.093-1.766-.093-2.801zM121.465 21.316c-.715 0-1.653 0-2.371.004a187 187 0 0 1-.055-3.75v-.207h3.938v-1.855h-3.934c.012-2 .05-3.309.05-3.309l4.887-.008v-1.964c-3.414.011-8.351 0-8.351 0s.074 1.812.074 2.847v7.446c0 .945-.058 2.554-.07 2.824h8.668l.008-2.082s-1.707.054-2.844.054M64.621 21.316c-.71 0-1.648 0-2.371.004-.031-1.316-.047-2.59-.05-3.75l-.005-.175h.004v-.032h3.938v-1.855h-3.934c.008-1.996.047-3.309.047-3.309l4.887-.004v-1.968c-3.414.011-8.348 0-8.348 0s.07 1.812.07 2.847v7.446c0 .945-.058 2.558-.066 2.824h8.668l.004-2.082s-1.703.054-2.844.054M132.621 16.29l3.766-6.06h-2.61l-.02.06c-.788 1.362-1.773 3.01-2.163 3.616l-.149.242-2.183-3.918h-3.918l3.777 6.786-3.937 6.332h2.593c1.68-2.871 2.54-4.192 2.54-4.192l2.34 4.192h3.905zM152.016 21.559c-3.036 0-4.668-2.227-4.586-4.973.07-2.39 1.168-4.426 3.77-4.602.995-.066 1.812.11 3.21.485l-.14-2.051s-1.184-.379-2.887-.441c-2.16-.082-4.117.332-5.68 1.77-1.387 1.276-2.219 3.163-2.219 4.995 0 2.031.836 3.903 2.403 5.195 1.629 1.375 3.379 1.684 5.453 1.684 1.363 0 2.164-.09 3.488-.445l-.2-2.016c-.28.098-1.233.399-2.612.399M108.219 8.266l3.8-.004.102.875c.852 8.761 1.371 14.21 1.371 14.21h-3.953l-.394-5.429-.364-4.848-3.347 10.274c-.887.004-2.118 0-2.118 0s-1.062-3.653-1.254-4.16l-1.921-6.16s-.293 3.43-.407 4.894c-.234 2.945-.437 5.43-.437 5.43h-2.953s1.207-12.266 1.297-13.012c.093-.77.238-2.074.238-2.074h3.879l3.219 8.836zM88.125 21.645q-.167.01-.32.011c-.106 0-.211 0-.32-.011a2.85 2.85 0 0 1-1.524-.61 3.5 3.5 0 0 1-.367-.355c-.637-.715-.98-1.942-1.063-2.91-.187-2.25.266-5.543 3.031-5.766q.105-.007.211-.008h.062q.102.001.208.008c2.77.223 3.223 3.516 3.031 5.766-.078.968-.39 2.168-1.058 2.91a4 4 0 0 1-.368.355 2.9 2.9 0 0 1-1.523.61m6.625-5.426q-.001-.047-.008-.086a6.3 6.3 0 0 0-1.05-3.223c-1.212-1.898-3.333-2.922-5.887-2.89-2.555-.032-4.68.992-5.89 2.89a6.3 6.3 0 0 0-1.052 3.223c0 .027-.008.055-.008.086-.347 4.168 2.082 7.05 6.223 7.383q.369.03.727.023.357.006.726-.023c4.14-.332 6.567-3.215 6.219-7.383M48.3 16.918l1.645-4.883.094-.285 1.719 5.168Zm9.665 6.426c-.113-.27-.817-1.934-1.336-3.278l-4.43-11.804H48.75s-.984 2.765-1.125 3.222l-3.238 9.153c-.422 1.172-1.008 2.71-1.008 2.71h2.816s.793-2.546.961-3.007l.434-1.274h4.879l.668 1.942c.136.363.715 2.305.726 2.336zM75.008 16.023c-.512.266-1.66.192-2.227.157l.043-3.75.32-.02c1.043-.086 1.805.059 2.118.195.468.207.746.653.77 1.391.038 1.106-.384 1.695-1.024 2.027m6.02 7.325c-.813-1.172-1.114-1.657-1.739-2.516l-2.352-3.656c1.13-.555 2.192-1.492 2.352-3.45.102-1.226-.555-2.242-.945-2.59-.563-.503-1.117-.706-1.899-.8-.625-.082-1.078-.086-1.457-.113H69.45s.067 1.816.067 2.851v7.418c0 1.035-.067 2.852-.067 2.852h3.406s-.097-1.817-.097-2.852l.023-2.383s.739.004 1.262.004l2.156 3.953c.29.504.707 1.133.805 1.282z" style="stroke:none;fill-rule:nonzero;fill:#20335f;fill-opacity:1"/><path d="M102.055 46.348q-2.35.002-3.637-1.446-1.29-1.447-1.29-4.093.001-2.713 1.31-4.196c.87-.984 2.113-1.48 3.726-1.48q.78.002 1.559.168.781.17 1.226.394l-.504 1.395a8 8 0 0 0-1.183-.363 5.4 5.4 0 0 0-1.137-.141q-3.298 0-3.297 4.203-.002 1.997.805 3.063c.535.71 1.332 1.066 2.383 1.066q1.354 0 2.773-.582v1.45q-1.084.562-2.734.562M108.453 40.73q0 2.076.828 3.16.831 1.086 2.442 1.087 1.607 0 2.441-1.082.837-1.08.836-3.165.001-2.061-.836-3.132-.834-1.071-2.465-1.07-1.605-.001-2.426 1.054-.82 1.056-.82 3.148m8.242 0c0 1.766-.441 3.141-1.332 4.133-.886.992-2.117 1.485-3.68 1.485q-1.453 0-2.578-.68-1.127-.68-1.738-1.953c-.406-.852-.613-1.844-.613-2.985q0-2.643 1.324-4.12t3.672-1.477q2.274 0 3.61 1.512 1.335 1.511 1.335 4.085M126.973 46.152v-7q0-1.322-.602-1.976c-.402-.434-1.027-.649-1.887-.649q-1.695 0-2.488.918c-.523.61-.789 1.621-.789 3.032v5.675h-1.637v-10.82h1.332l.266 1.48h.078q.508-.8 1.414-1.238a4.6 4.6 0 0 1 2.024-.441q1.957 0 2.941.945.989.943.988 3.016v7.058zM139.383 46.152v-7q0-1.322-.602-1.976-.603-.65-1.886-.649-1.696 0-2.489.918c-.523.61-.789 1.621-.789 3.032v5.675h-1.637v-10.82h1.333l.265 1.48h.078q.505-.8 1.414-1.238a4.6 4.6 0 0 1 2.024-.441c1.3 0 2.285.316 2.941.945s.988 1.633.988 3.016v7.058zM148.516 36.508q-1.304-.001-2.078.847-.773.85-.915 2.348h5.657c0-1.031-.23-1.824-.692-2.371q-.687-.825-1.972-.824m.445 9.84q-2.402.001-3.785-1.461-1.39-1.46-1.39-4.055 0-2.62 1.288-4.16c.86-1.024 2.016-1.54 3.461-1.54 1.356 0 2.43.45 3.219 1.34q1.184 1.337 1.184 3.528v1.04h-7.454q.053 1.904.965 2.89.91.989 2.57.988a8.7 8.7 0 0 0 3.458-.73v1.46q-.873.375-1.645.54c-.52.105-1.14.16-1.871.16M160.059 46.348q-2.354.002-3.641-1.446-1.29-1.447-1.29-4.093.001-2.713 1.31-4.196c.875-.984 2.117-1.48 3.726-1.48q.78.002 1.563.168.778.17 1.222.394l-.504 1.395a8 8 0 0 0-1.183-.363 5.4 5.4 0 0 0-1.137-.141c-2.195 0-3.297 1.402-3.297 4.203q.001 1.997.805 3.063t2.383 1.066q1.354 0 2.773-.582v1.45q-1.085.562-2.73.562M168.852 44.996c.293 0 .57-.02.84-.062q.404-.066.644-.137v1.254q-.27.134-.785.215a6 6 0 0 1-.934.082q-3.14 0-3.14-3.305v-6.438h-1.551v-.789l1.55-.683.692-2.309h.95v2.508h3.136v1.273h-3.137v6.368q0 .978.461 1.5c.313.351.734.523 1.274.523" style="stroke:none;fill-rule:nonzero;fill:#244e9a;fill-opacity:1"/><path d="M43.379 53.691s.508-.023 1.457-.062q.357-.012.797-.035l.953-.063c.344-.027.715-.05 1.11-.078l1.253-.113a95 95 0 0 0 6.34-.817c2.441-.39 5.176-.925 8.164-1.523 2.984-.594 6.223-1.266 9.695-1.781a81 81 0 0 1 11.012-.957c3.84-.04 7.813.18 11.809.726 3.992.551 8.004 1.371 11.965 2.38.984.265 1.976.515 2.953.8l2.922.855 2.91.844c.965.266 1.926.504 2.886.758 3.852.953 7.692 1.734 11.438 2.266 3.746.53 7.394.863 10.863.988 3.465.125 6.754.066 9.778-.14 3.027-.212 5.789-.56 8.218-.973a72 72 0 0 0 6.246-1.344c1.711-.457 3.04-.887 3.938-1.207.894-.317 1.36-.524 1.36-.524s-.454.23-1.333.598c-.879.367-2.18.883-3.883 1.418-1.699.535-3.789 1.11-6.222 1.617a76 76 0 0 1-8.25 1.266 86 86 0 0 1-9.88.398 95 95 0 0 1-11.015-.804c-3.797-.5-7.699-1.204-11.605-2.168-.977-.254-1.965-.496-2.942-.758q-1.451-.417-2.91-.832c-.972-.281-1.941-.563-2.918-.844-.968-.277-1.949-.516-2.925-.781-3.907-1.012-7.864-1.836-11.79-2.395-3.93-.543-7.828-.843-11.605-.84a86 86 0 0 0-10.867.746c-3.446.446-6.692 1.016-9.696 1.524-3.003.52-5.77.95-8.234 1.246a82 82 0 0 1-6.402.55q-.67.031-1.262.056-.598.009-1.113.019l-.957.012q-.44-.007-.797-.008c-.953-.012-1.461-.02-1.461-.02" style="stroke:none;fill-rule:nonzero;fill:#d71e25;fill-opacity:1"/></svg>