<svg xmlns="http://www.w3.org/2000/svg" width="176pt" height="49.533" viewBox="0 0 176 37.15"><defs><clipPath id="a"><path d="M103 18h13v19.148h-13Zm0 0"/></clipPath></defs><path d="M24.555 29.035c.586-2.09 1.336-4.101 2.445-6.015-.156.117-.316.226-.469.351a38.6 38.6 0 0 0-5.07 5.067c-1.36 1.628-2.637 3.324-3.953 4.988-.106.136-.207.273-.363.476-.047-.285.062-.46.125-.64 1.445-4.211 3.777-7.88 6.789-11.133 2.945-3.188 6.175-6.05 9.761-8.496 2.828-1.926 5.883-3.383 9.23-4.172 2.47-.578 4.958-.785 7.462-.277a9 9 0 0 1 2.125.718c1.172.567 1.535 1.582 1.101 2.813-.144.414-.312.82-.672 1.172-.058-.098-.105-.153-.129-.219-.296-.828-.93-1.195-1.765-1.273-.992-.098-1.957.054-2.918.304-1.969.516-3.824 1.324-5.656 2.192a25 25 0 0 0-3.11 1.78c-3.68 2.454-7.285 5.005-10.61 7.93-1.55 1.364-3.03 2.797-4.323 4.434" style="stroke:none;fill-rule:nonzero;fill:#329783;fill-opacity:1"/><path d="M75.05 24.8v2.716c0 .234.02.445.227.62 1.512 1.282 3.618.677 4.2-1.21a5 5 0 0 0 .101-.39 8.9 8.9 0 0 0 .082-3.388c-.3-1.847-1.41-2.648-3.265-2.41-.872.114-1.387.793-1.352 1.52.039.847.008 1.695.008 2.543m-3.62-12.675c.879-.098 1.78-.223 2.632.203.672.332.93.953.973 1.664.028.442.016.887.016 1.332v3.125c0 .188.02.375.031.66.246-.148.43-.238.594-.359 1.566-1.129 5.023-.898 6.457.828a6.2 6.2 0 0 1 1.36 3.02c.25 1.539.222 3.082-.11 4.605-.262 1.207-.75 2.309-1.664 3.184-.422.406-.899.734-1.457.918-1.91.62-3.723.539-5.34-.813-.027-.023-.07-.027-.149-.062l-.187.386c-.117.247-.309.434-.57.438-.864.023-1.723.008-2.57.008-.13-.524-.141-18.52-.016-19.137" style="stroke:none;fill-rule:nonzero;fill:#3c70c0;fill-opacity:1"/><g clip-path="url(#a)"><path d="M107.398 24.969c0 .847.004 1.695 0 2.547 0 .261.043.484.278.656 1.21.906 3.453.996 4.113-1.192.023-.074.055-.144.074-.218a7.7 7.7 0 0 0 .203-2.985 6.7 6.7 0 0 0-.394-1.558c-.285-.739-.867-1.188-1.645-1.309a4.3 4.3 0 0 0-1.32.008c-.887.145-1.293.66-1.305 1.562-.011.829-.004 1.66-.004 2.489m-.039 5.554v6.625h-3.636c-.016-.18-.051-.359-.051-.543V19.008c0-.172.023-.34.043-.543.988-.223 1.941-.25 2.828.23.305.164.512.5.789.785l.371-.296c1.555-1.27 3.293-1.399 5.125-.778 1.031.348 1.762 1.086 2.281 2.032.442.808.711 1.675.79 2.585.128 1.465.156 2.934-.2 4.375-.265 1.082-.726 2.067-1.5 2.895-1.508 1.617-4.664 1.953-6.523.437-.059-.046-.121-.082-.317-.207" style="stroke:none;fill-rule:nonzero;fill:#3c70c0;fill-opacity:1"/></g><path d="M31.371 9.55c-.195.15-.387.305-.586.446-3.601 2.496-7.437 4.54-11.586 5.973-2.36.816-4.773 1.363-7.273 1.57-2.313.188-4.578 0-6.809-.629-2.074-.582-3.484-1.91-4.32-3.875C.129 11.457-.078 9.81.027 8.11c.004-.09.047-.175.098-.347.215.113.395.203.57.3 1.184.653 2.336 1.364 3.551 1.942 2.285 1.086 4.719 1.66 7.227 1.965 1.898.234 3.808.281 5.714.187 2.973-.152 5.91-.59 8.805-1.285 1.649-.394 3.281-.86 4.922-1.293l.422-.105z" style="stroke:none;fill-rule:nonzero;fill:#4aa9e3;fill-opacity:1"/><path d="M97.188 31.281c-.915 0-1.782.012-2.645-.008-.387-.007-.645-.222-.734-.617-.043-.183-.094-.363-.157-.597-.156.12-.273.207-.386.304-.871.739-1.871 1.137-3.016 1.157-.367.003-.734.007-1.102-.004-2.05-.07-3.34-1.258-3.55-3.313-.078-.746-.118-1.5-.121-2.25-.016-2.277-.008-4.555-.004-6.832 0-.207.02-.414.035-.648.941-.23 1.828-.22 2.687.172.7.316.957.918.977 1.64.016.676.004 1.352.004 2.027.008 1.407.004 2.817.031 4.223.004.344.063.695.152 1.024a1.2 1.2 0 0 0 .965.906c.79.148 1.574.125 2.317-.238.593-.29.886-.723.882-1.418-.027-2.528-.011-5.055-.011-7.582.004-.247.027-.493.043-.766.902-.211 1.761-.215 2.582.148.605.266.957.762 1.054 1.422.032.23.043.465.043.696q.002 5.062-.007 10.128c0 .114-.02.223-.04.426M124.86 25.008c-1.266.066-2.438.062-3.481.722a2.3 2.3 0 0 0-.547.508c-.738.953-.332 2.535.754 2.836 1.05.285 2.027.051 2.875-.633.18-.144.375-.398.383-.609.043-.898.015-1.8.015-2.824m4.085 6.27c-.922.374-1.824.464-2.746.199-.406-.118-.707-.383-.91-.758l-.23-.438c-.16.11-.297.203-.434.301-1.55 1.117-3.27 1.32-5.066.816-1.524-.425-2.465-1.695-2.575-3.277-.129-1.871.551-3.21 2.485-4.156 1.023-.5 2.129-.672 3.242-.781.672-.067 1.344-.102 2.012-.153.386-1.168-.27-2.129-1.285-2.258-1.063-.136-2.122-.117-3.122.336-.543.25-1.078.508-1.683.797-.445-.52-.762-1.101-.817-1.785-.015-.215.121-.512.29-.652.335-.278.71-.54 1.117-.7 1.93-.78 3.937-.91 5.965-.496 1.949.399 2.972 1.649 3.14 3.696.043.476.04.96.043 1.445.02 1.793.024 3.586.055 5.379.008.418.058.848.144 1.258.082.394.235.773.375 1.226M61.637 23.344c.699.156 4.222.133 4.715-.028-.04-.925-.122-1.87-.993-2.425-.816-.52-1.742-.496-2.57.011-.887.543-1.16 1.422-1.152 2.442m7.949 2.168H61.69c0 .191-.02.32.004.441.043.246.098.496.172.73.446 1.41 1.352 2.141 2.82 2.27 1.247.106 2.368-.226 3.336-1.027.149-.121.301-.235.508-.399.453.602.864 1.172.989 1.895.078.433-.094.789-.415 1.086-.585.539-1.312.808-2.062.992-1.746.422-3.488.363-5.191-.21-1.84-.622-2.973-1.962-3.536-3.778a9.15 9.15 0 0 1-.168-4.856c.622-2.672 2.817-4.468 5.555-4.578.969-.039 1.93.008 2.844.375 1.59.64 2.539 1.828 2.953 3.469.258 1 .254 2.023.2 3.047-.013.148-.063.297-.114.543M157.016 15.555c-.227-.137-.387-.242-.551-.336-.86-.489-1.774-.63-2.735-.399-.75.18-1.21.664-1.37 1.414-.137.664-.07 1.336-.055 2.055.277.023.5.055.722.059 1.082.004 2.16-.004 3.243.004.628.003.64.02.644.656.008.691.004 1.383.004 2.129-.27.02-.477.05-.68.05-1.078.004-2.16 0-3.238.004-.207.004-.414.028-.668.043-.02.286-.047.528-.047.774v9.234h-3.648c-.02-.176-.055-.36-.055-.543-.004-4.648-.012-9.297.008-13.945.004-1.399.414-2.664 1.472-3.649.875-.812 1.954-1.152 3.11-1.253 1.082-.09 2.16-.032 3.207.304.363.117.73.254 1.059.45.73.44.863 1.113.382 1.82-.246.367-.511.719-.804 1.129M140.445 22.2c-.37-.255-.695-.493-1.039-.708-.98-.617-2.043-.765-3.164-.5-.754.18-1.32.606-1.691 1.293-.63 1.164-.625 2.406-.488 3.668a4 4 0 0 0 .148.676c.445 1.59 1.64 2.43 3.285 2.308.914-.07 1.73-.375 2.434-.972.097-.086.207-.16.37-.29.466.61.845 1.216.887 1.977.028.493-.222.868-.625 1.102-.445.258-.914.512-1.406.664-1.754.543-3.515.469-5.226-.156-1.73-.633-2.82-1.942-3.344-3.672-.516-1.692-.563-3.434-.066-5.137.593-2.031 1.93-3.398 3.957-4.039 1.468-.46 2.96-.469 4.453-.082.64.168 1.238.434 1.765.84.578.45.73.93.52 1.637-.149.5-.371.968-.77 1.39M56.457 22.203c-.477-.312-.863-.601-1.281-.836-.977-.55-2.016-.629-3.082-.34a2.44 2.44 0 0 0-1.512 1.18c-.309.543-.477 1.129-.559 1.75a7 7 0 0 0 .164 2.64c.352 1.41 1.301 2.212 2.747 2.329 1.086.09 2.054-.23 2.914-.899.12-.097.242-.187.363-.28.016-.009.039-.005.129-.009.406.524.758 1.11.836 1.82.058.532-.2.93-.633 1.215a5.6 5.6 0 0 1-2.082.836 8.6 8.6 0 0 1-3.957-.156c-2.129-.586-3.422-2.031-4.004-4.105a9 9 0 0 1-.113-4.414c.539-2.414 2.027-3.989 4.437-4.618 1.59-.414 3.18-.367 4.719.239.457.183.887.46 1.289.758.426.312.535.78.422 1.296-.129.594-.402 1.11-.797 1.594M175.156 22.203c-.453-.3-.824-.574-1.222-.805-.985-.574-2.04-.668-3.13-.37a2.4 2.4 0 0 0-1.511 1.175c-.3.524-.477 1.09-.563 1.692a7 7 0 0 0 .133 2.582c.395 1.714 1.711 2.636 3.461 2.449.848-.09 1.61-.387 2.266-.934.105-.086.215-.16.324-.242.012-.008.035-.004.11-.016.43.52.773 1.114.855 1.82.062.532-.195.93-.629 1.22a5.5 5.5 0 0 1-2.023.824 8.7 8.7 0 0 1-4.07-.157c-2.075-.593-3.356-2.003-3.93-4.035a8.9 8.9 0 0 1-.067-4.75c.57-2.187 1.969-3.64 4.14-4.277 1.653-.484 3.321-.461 4.942.172.426.168.828.414 1.203.676.493.347.649.847.504 1.433a3.8 3.8 0 0 1-.793 1.543" style="stroke:none;fill-rule:nonzero;fill:#3c70c0;fill-opacity:1"/><path d="M7.32 0c.184.18.313.29.422.414 2.957 3.465 6.75 5.488 11.16 6.438 2.047.437 4.118.625 6.203.57.868-.024 1.727-.117 2.684-.184-.152.114-.238.2-.344.25-2.074 1.016-4.254 1.719-6.547 2-1.257.157-2.535.25-3.804.227-2.063-.035-4.11-.313-6.067-1.024-1.105-.398-2.09-.98-2.894-1.851-.887-.965-1.348-2.098-1.406-3.399-.043-.949.039-1.886.335-2.793C7.126.453 7.212.27 7.32 0M28.367 13.984c-.453.621-.887 1.254-1.351 1.864-1.977 2.57-4.215 4.87-6.957 6.632-1.387.891-2.848 1.641-4.465 2.008-1.426.328-2.867.344-4.29-.05-1.855-.516-3.433-1.985-3.679-4.52.11 0 .223-.027.32.004 2.985.918 5.946.625 8.89-.207 3.161-.899 6.067-2.356 8.837-4.106.781-.496 1.531-1.035 2.297-1.554.093-.063.191-.114.289-.172q.054.047.11.101" style="stroke:none;fill-rule:nonzero;fill:#4aa9e3;fill-opacity:1"/><path d="M146.188 25.672q.001 2.602-.004 5.203c0 .613-.016.637-.602.652-.48.016-.965.024-1.441-.023-.868-.086-1.403-.586-1.578-1.442a4.3 4.3 0 0 1-.09-.8q-.006-5.094 0-10.18c0-.117.004-.23.004-.348 0-.207.109-.32.308-.347.774-.098 1.543-.13 2.281.168.672.27 1.02.8 1.098 1.508.027.246.02.5.02.75q.005 2.429.004 4.859M159.406 18.45c.903-.18 1.739-.212 2.555.105.68.261 1.008.808 1.098 1.508.03.226.027.46.027.69v10.005c0 .097.004.195-.004.289-.023.414-.047.453-.48.473-.461.023-.926.03-1.387 0-1.063-.07-1.649-.622-1.813-1.676-.027-.172-.027-.344-.027-.52V19.09c0-.192.02-.38.031-.64" style="stroke:none;fill-rule:nonzero;fill:#3c70c0;fill-opacity:1"/><path d="M48.05 7.77c-.886-.68-1.878-.961-2.921-1.106-.45-.062-.79 0-1.152.332-.864.785-1.891 1.094-3.051.754-.535-.156-.871-.434-1.102-.879.86.149 1.688.191 2.434-.355-4.235-.59-8.453-.286-12.688.218.164-.09.32-.195.489-.273 2.945-1.371 6.027-2.23 9.27-2.52 1.812-.16 3.62-.171 5.417.133.86.149 1.7.38 2.445.852.98.62 1.336 1.582.993 2.64-.016.051-.059.094-.133.204" style="stroke:none;fill-rule:nonzero;fill:#329783;fill-opacity:1"/><path d="M146.195 14.148c.059 1.079-.847 1.934-2.007 1.93-1.125 0-1.961-.875-1.95-2 .008-1.121.867-1.976 1.992-1.969 1.024.008 2.032.778 1.965 2.04M163.094 14.105c0 1.13-.836 1.97-1.969 1.977-1.125.008-1.984-.84-1.988-1.96-.004-1.138.824-2 1.941-2.009 1.246-.011 2.086.989 2.016 1.992" style="stroke:none;fill-rule:nonzero;fill:#3c70c0;fill-opacity:1"/></svg>