<svg xmlns="http://www.w3.org/2000/svg" width="163.453" height="59pt" viewBox="0 0 122.59 59"><defs><clipPath id="a"><path d="M105 46h17.59v13H105Zm0 0"/></clipPath><clipPath id="b"><path d="M92 11h30.59v41H92Zm0 0"/></clipPath></defs><path d="M26.773.23q1.88-.001 3.438 1.375 1.554 1.377 1.555 3.473v36.473q0 .94-.399 1.808a5 5 0 0 1-1.12 1.555c-.481.461-1.028.82-1.63 1.086a4.5 4.5 0 0 1-1.844.398q-1.735.002-3.183-1.41-1.449-1.411-1.45-3.437V29.684H9.985V41.55q.002 2.026-1.41 3.437t-3.437 1.41c-1.496 0-2.711-.457-3.653-1.375Q.072 43.65 0 41.551V5.078q-.002-2.242 1.555-3.547a5.43 5.43 0 0 1 3.582-1.3Q7.163.23 8.574 1.675q1.412 1.452 1.41 3.402V19.84h12.157V5.078q0-1.95 1.449-3.402Q25.038.229 26.773.23M41.46 11.434q1.883-.001 3.15 1.375 1.264 1.377 1.41 3.328v25.617c0 1.305-.41 2.387-1.23 3.258q-1.23 1.3-3.33 1.445-1.88.002-3.183-1.156-1.301-1.155-1.59-3.258V15.848q.142-1.882 1.52-3.114c.914-.816 2-1.254 3.254-1.3m0-11.07q1.884-.002 3.22 1.41 1.34 1.411 1.34 3.292T44.68 8.36q-1.336 1.409-3.22 1.41c-1.398-.046-2.542-.496-3.437-1.34-.89-.843-1.336-2.034-1.336-3.581q.07-1.882 1.481-3.184 1.412-1.3 3.293-1.3" style="stroke:none;fill-rule:nonzero;fill:#233163;fill-opacity:1"/><path d="M61.621 10.348q.868-1.012 2.387-1.086 2.026-.142 3.363-1.446 1.341-1.304 1.34-3.183c-.098-1.547-.625-2.703-1.59-3.477C66.152.386 64.973 0 63.574 0c-1.687 0-3.281.352-4.777 1.047A12.8 12.8 0 0 0 54.89 3.87a13.3 13.3 0 0 0-2.606 4.05 12.3 12.3 0 0 0-.941 4.743v26.64l.039.008v2.731q.287 2.103 1.59 3.258 1.304 1.158 3.183 1.156 2.098-.146 3.328-1.445c.82-.871 1.235-1.953 1.235-3.258v-1.172l.035.004V21.648q3.399-.145 4.629-1.445 1.23-1.306 1.23-3.258 0-1.95-1.265-3.293c-.844-.89-2.38-1.386-4.594-1.484v.566q0-1.372.867-2.386" style="stroke:none;fill-rule:nonzero;fill:#5fb8e9;fill-opacity:1"/><g clip-path="url(#a)"><path d="M112.316 48.652c-.578.676-1.375 1.035-2.386 1.086q-2.027.143-3.368 1.446-1.335 1.304-1.335 3.183c.097 1.547.625 2.703 1.59 3.477q1.447 1.155 3.546 1.156 2.533-.001 4.778-1.05a12.6 12.6 0 0 0 3.906-2.821 13.3 13.3 0 0 0 2.605-4.055c.625-1.52.942-3.097.942-4.738l-9.41.496" style="stroke:none;fill-rule:nonzero;fill:#5fb8e9;fill-opacity:1"/></g><path d="M77.61.219q1.957-.001 3.292 1.375c.895.914 1.387 2.05 1.485 3.398v28.586q-.001 1.447.941 2.461.939 1.013 2.387 1.012 1.88 0 3.293 1.3 1.41 1.308 1.484 3.258 0 1.74-1.195 3.075-1.194 1.341-3.074 1.629H85.21q-2.538 0-4.777-1.047a13.4 13.4 0 0 1-3.946-2.79 12.9 12.9 0 0 1-2.675-4.05 12.3 12.3 0 0 1-.977-4.848V4.703a5.13 5.13 0 0 1 1.52-3.11Q75.657.29 77.608.22" style="stroke:none;fill-rule:nonzero;fill:#5fb8e9;fill-opacity:1"/><g clip-path="url(#b)"><path d="M96.93 11.145q1.81 0 3.293 1.23 1.483 1.228 1.484 3.184v13.097q-.001 1.666.613 3.114c.41.964.89 1.906 1.703 2.53 3.375 2.595 5.82.895 6.57.22a7.9 7.9 0 0 0 1.81-2.426 6.94 6.94 0 0 0 .687-3.074V15.777c0-1.257.445-2.34 1.34-3.257q1.335-1.376 3.363-1.375 1.88 0 3.328 1.265 1.449 1.267 1.45 3.149V47.37q-.001 1.882-1.45 3.184-1.447 1.304-3.328 1.304-1.806.001-3.254-1.304-1.452-1.3-1.45-3.399v-2.941c-1.109.676-2.374 1.168-3.796 1.484-1.426.313-4.363-.176-6.625-.664-2.371-.512-3.492-1.312-5.277-2.715-2.11-1.656-2.813-3.383-3.754-5.578-.942-2.195-1.41-5.988-1.41-8.594v-12.37c0-1.258.445-2.34 1.34-3.258q1.335-1.376 3.363-1.375" style="stroke:none;fill-rule:nonzero;fill:#5fb8e9;fill-opacity:1"/></g></svg>