<?xml version="1.0" encoding="UTF-8"?>
<svg xmlns="http://www.w3.org/2000/svg" xmlns:xlink="http://www.w3.org/1999/xlink" width="122.59pt" height="59pt" viewBox="0 0 122.59 59" version="1.1">
<defs>
<clipPath id="clip1">
  <path d="M 105 46 L 122.589844 46 L 122.589844 59 L 105 59 Z M 105 46 "/>
</clipPath>
<clipPath id="clip2">
  <path d="M 92 11 L 122.589844 11 L 122.589844 52 L 92 52 Z M 92 11 "/>
</clipPath>
</defs>
<g id="surface1">
<path style=" stroke:none;fill-rule:nonzero;fill:rgb(13.572693%,19.229126%,38.900757%);fill-opacity:1;" d="M 26.773438 0.230469 C 28.027344 0.230469 29.171875 0.6875 30.210938 1.605469 C 31.246094 2.523438 31.765625 3.679688 31.765625 5.078125 L 31.765625 41.550781 C 31.765625 42.175781 31.632812 42.78125 31.367188 43.359375 C 31.101562 43.9375 30.726562 44.457031 30.246094 44.914062 C 29.765625 45.375 29.21875 45.734375 28.617188 46 C 28.015625 46.265625 27.398438 46.398438 26.773438 46.398438 C 25.617188 46.398438 24.554688 45.929688 23.589844 44.988281 C 22.625 44.046875 22.140625 42.902344 22.140625 41.550781 L 22.140625 29.683594 L 9.984375 29.683594 L 9.984375 41.550781 C 9.984375 42.902344 9.515625 44.046875 8.574219 44.988281 C 7.632812 45.929688 6.488281 46.398438 5.136719 46.398438 C 3.640625 46.398438 2.425781 45.941406 1.484375 45.023438 C 0.542969 44.109375 0.046875 42.949219 0 41.550781 L 0 5.078125 C 0 3.582031 0.515625 2.402344 1.554688 1.53125 C 2.59375 0.664062 3.785156 0.230469 5.136719 0.230469 C 6.488281 0.230469 7.632812 0.710938 8.574219 1.675781 C 9.515625 2.644531 9.984375 3.777344 9.984375 5.078125 L 9.984375 19.839844 L 22.140625 19.839844 L 22.140625 5.078125 C 22.140625 3.777344 22.625 2.644531 23.589844 1.675781 C 24.554688 0.710938 25.617188 0.230469 26.773438 0.230469 "/>
<path style=" stroke:none;fill-rule:nonzero;fill:rgb(13.572693%,19.229126%,38.900757%);fill-opacity:1;" d="M 41.460938 11.433594 C 42.714844 11.433594 43.765625 11.890625 44.609375 12.808594 C 45.453125 13.726562 45.921875 14.835938 46.019531 16.136719 L 46.019531 41.753906 C 46.019531 43.058594 45.609375 44.140625 44.789062 45.011719 C 43.96875 45.878906 42.859375 46.359375 41.460938 46.457031 C 40.207031 46.457031 39.144531 46.074219 38.277344 45.300781 C 37.410156 44.53125 36.878906 43.445312 36.6875 42.042969 L 36.6875 15.847656 C 36.78125 14.59375 37.289062 13.554688 38.207031 12.734375 C 39.121094 11.917969 40.207031 11.480469 41.460938 11.433594 Z M 41.460938 0.363281 C 42.714844 0.363281 43.789062 0.832031 44.679688 1.773438 C 45.574219 2.714844 46.019531 3.8125 46.019531 5.066406 C 46.019531 6.320312 45.574219 7.417969 44.679688 8.359375 C 43.789062 9.296875 42.714844 9.769531 41.460938 9.769531 C 40.0625 9.722656 38.917969 9.273438 38.023438 8.429688 C 37.132812 7.585938 36.6875 6.394531 36.6875 4.847656 C 36.734375 3.59375 37.226562 2.53125 38.167969 1.664062 C 39.109375 0.796875 40.207031 0.363281 41.460938 0.363281 "/>
<path style=" stroke:none;fill-rule:nonzero;fill:rgb(37.072754%,72.293091%,91.349792%);fill-opacity:1;" d="M 61.621094 10.347656 C 62.199219 9.671875 62.996094 9.3125 64.007812 9.261719 C 65.359375 9.167969 66.480469 8.683594 67.371094 7.816406 C 68.265625 6.945312 68.710938 5.886719 68.710938 4.632812 C 68.613281 3.085938 68.085938 1.929688 67.121094 1.15625 C 66.152344 0.386719 64.972656 0 63.574219 0 C 61.886719 0 60.292969 0.351562 58.796875 1.046875 C 57.300781 1.75 56 2.691406 54.890625 3.871094 C 53.78125 5.054688 52.910156 6.40625 52.285156 7.921875 C 51.65625 9.445312 51.34375 11.023438 51.34375 12.664062 L 51.34375 39.304688 L 51.382812 39.3125 L 51.382812 42.042969 C 51.574219 43.445312 52.105469 44.53125 52.972656 45.300781 C 53.84375 46.074219 54.902344 46.457031 56.15625 46.457031 C 57.554688 46.359375 58.664062 45.878906 59.484375 45.011719 C 60.304688 44.140625 60.71875 43.058594 60.71875 41.753906 L 60.71875 40.582031 L 60.753906 40.585938 L 60.753906 21.648438 C 63.019531 21.550781 64.5625 21.070312 65.382812 20.203125 C 66.203125 19.332031 66.613281 18.246094 66.613281 16.945312 C 66.613281 15.644531 66.191406 14.546875 65.347656 13.652344 C 64.503906 12.761719 62.96875 12.265625 60.753906 12.167969 L 60.753906 12.734375 C 60.753906 11.820312 61.042969 11.023438 61.621094 10.347656 "/>
<g clip-path="url(#clip1)" clip-rule="nonzero">
<path style=" stroke:none;fill-rule:nonzero;fill:rgb(37.072754%,72.293091%,91.349792%);fill-opacity:1;" d="M 112.316406 48.652344 C 111.738281 49.328125 110.941406 49.6875 109.929688 49.738281 C 108.578125 49.832031 107.457031 50.316406 106.5625 51.183594 C 105.671875 52.054688 105.226562 53.113281 105.226562 54.367188 C 105.324219 55.914062 105.851562 57.070312 106.816406 57.84375 C 107.78125 58.613281 108.964844 59 110.363281 59 C 112.050781 59 113.644531 58.648438 115.140625 57.949219 C 116.636719 57.25 117.9375 56.3125 119.046875 55.128906 C 120.15625 53.945312 121.027344 52.59375 121.652344 51.074219 C 122.277344 49.554688 122.59375 47.976562 122.59375 46.335938 L 113.183594 46.832031 "/>
</g>
<path style=" stroke:none;fill-rule:nonzero;fill:rgb(37.072754%,72.293091%,91.349792%);fill-opacity:1;" d="M 77.609375 0.21875 C 78.914062 0.21875 80.011719 0.675781 80.902344 1.59375 C 81.796875 2.507812 82.289062 3.644531 82.386719 4.992188 L 82.386719 33.578125 C 82.386719 34.542969 82.699219 35.363281 83.328125 36.039062 C 83.953125 36.714844 84.75 37.050781 85.714844 37.050781 C 86.96875 37.050781 88.066406 37.484375 89.007812 38.351562 C 89.949219 39.222656 90.441406 40.308594 90.492188 41.609375 C 90.492188 42.769531 90.09375 43.792969 89.296875 44.683594 C 88.5 45.578125 87.476562 46.121094 86.222656 46.3125 L 85.210938 46.3125 C 83.519531 46.3125 81.925781 45.964844 80.433594 45.265625 C 78.9375 44.566406 77.621094 43.636719 76.488281 42.476562 C 75.355469 41.320312 74.464844 39.96875 73.8125 38.425781 C 73.160156 36.882812 72.835938 35.265625 72.835938 33.578125 L 72.835938 4.703125 C 72.980469 3.496094 73.484375 2.460938 74.355469 1.59375 C 75.222656 0.722656 76.308594 0.265625 77.609375 0.21875 "/>
<g clip-path="url(#clip2)" clip-rule="nonzero">
<path style=" stroke:none;fill-rule:nonzero;fill:rgb(37.072754%,72.293091%,91.349792%);fill-opacity:1;" d="M 96.929688 11.144531 C 98.136719 11.144531 99.234375 11.554688 100.222656 12.375 C 101.210938 13.195312 101.707031 14.253906 101.707031 15.558594 L 101.707031 28.65625 C 101.707031 29.765625 101.910156 30.804688 102.320312 31.769531 C 102.730469 32.734375 103.210938 33.675781 104.023438 34.300781 C 107.398438 36.894531 109.84375 35.195312 110.59375 34.519531 C 111.339844 33.84375 111.945312 33.035156 112.402344 32.09375 C 112.859375 31.152344 113.089844 30.128906 113.089844 29.019531 L 113.089844 15.777344 C 113.089844 14.519531 113.535156 13.4375 114.429688 12.519531 C 115.320312 11.601562 116.441406 11.144531 117.792969 11.144531 C 119.046875 11.144531 120.15625 11.566406 121.121094 12.410156 C 122.085938 13.253906 122.570312 14.304688 122.570312 15.558594 L 122.570312 47.371094 C 122.570312 48.625 122.085938 49.6875 121.121094 50.554688 C 120.15625 51.425781 119.046875 51.859375 117.792969 51.859375 C 116.589844 51.859375 115.503906 51.425781 114.539062 50.554688 C 113.570312 49.6875 113.089844 48.554688 113.089844 47.15625 L 113.089844 44.214844 C 111.980469 44.890625 110.714844 45.382812 109.292969 45.699219 C 107.867188 46.011719 104.929688 45.523438 102.667969 45.035156 C 100.296875 44.523438 99.175781 43.722656 97.390625 42.320312 C 95.28125 40.664062 94.578125 38.9375 93.636719 36.742188 C 92.695312 34.546875 92.226562 30.753906 92.226562 28.148438 L 92.226562 15.777344 C 92.226562 14.519531 92.671875 13.4375 93.566406 12.519531 C 94.457031 11.601562 95.578125 11.144531 96.929688 11.144531 "/>
</g>
</g>
</svg>
