<svg xmlns="http://www.w3.org/2000/svg" width="235.4" height="58.4pt" viewBox="0 0 176.55 58.4"><defs><clipPath id="a"><path d="M0 0h59v58.398H0Zm0 0"/></clipPath><clipPath id="b"><path d="M58.406 29.2c0 16.124-13.074 29.198-29.203 29.198S0 45.324 0 29.2C0 13.07 13.074-.004 29.203-.004S58.406 13.07 58.406 29.2m0 0"/></clipPath><clipPath id="c"><path d="M0 32h59v26H0Zm0 0"/></clipPath><clipPath id="d"><path d="M58.406 29.2c0 16.124-13.074 29.198-29.203 29.198S0 45.324 0 29.2C0 13.07 13.074-.004 29.203-.004S58.406 13.07 58.406 29.2m0 0"/></clipPath><clipPath id="e"><path d="M0 33h59v25H0Zm0 0"/></clipPath><clipPath id="f"><path d="M58.406 29.2c0 16.124-13.074 29.198-29.203 29.198S0 45.324 0 29.2C0 13.07 13.074-.004 29.203-.004S58.406 13.07 58.406 29.2m0 0"/></clipPath><clipPath id="g"><path d="M1 34h57v24H1Zm0 0"/></clipPath><clipPath id="h"><path d="M58.406 29.2c0 16.124-13.074 29.198-29.203 29.198S0 45.324 0 29.2C0 13.07 13.074-.004 29.203-.004S58.406 13.07 58.406 29.2m0 0"/></clipPath><clipPath id="i"><path d="M1 34h57v23H1Zm0 0"/></clipPath><clipPath id="j"><path d="M58.406 29.2c0 16.124-13.074 29.198-29.203 29.198S0 45.324 0 29.2C0 13.07 13.074-.004 29.203-.004S58.406 13.07 58.406 29.2m0 0"/></clipPath><clipPath id="k"><path d="M2 35h55v22H2Zm0 0"/></clipPath><clipPath id="l"><path d="M58.406 29.2c0 16.124-13.074 29.198-29.203 29.198S0 45.324 0 29.2C0 13.07 13.074-.004 29.203-.004S58.406 13.07 58.406 29.2m0 0"/></clipPath><clipPath id="m"><path d="M3 35h53v22H3Zm0 0"/></clipPath><clipPath id="n"><path d="M58.406 29.2c0 16.124-13.074 29.198-29.203 29.198S0 45.324 0 29.2C0 13.07 13.074-.004 29.203-.004S58.406 13.07 58.406 29.2m0 0"/></clipPath><clipPath id="o"><path d="M4 36h51v21H4Zm0 0"/></clipPath><clipPath id="p"><path d="M58.406 29.2c0 16.124-13.074 29.198-29.203 29.198S0 45.324 0 29.2C0 13.07 13.074-.004 29.203-.004S58.406 13.07 58.406 29.2m0 0"/></clipPath><clipPath id="q"><path d="M5 36h49v20H5Zm0 0"/></clipPath><clipPath id="r"><path d="M58.406 29.2c0 16.124-13.074 29.198-29.203 29.198S0 45.324 0 29.2C0 13.07 13.074-.004 29.203-.004S58.406 13.07 58.406 29.2m0 0"/></clipPath><clipPath id="s"><path d="M5 36h48v20H5Zm0 0"/></clipPath><clipPath id="t"><path d="M58.406 29.2c0 16.124-13.074 29.198-29.203 29.198S0 45.324 0 29.2C0 13.07 13.074-.004 29.203-.004S58.406 13.07 58.406 29.2m0 0"/></clipPath><clipPath id="u"><path d="M6 37h47v19H6Zm0 0"/></clipPath><clipPath id="v"><path d="M58.406 29.2c0 16.124-13.074 29.198-29.203 29.198S0 45.324 0 29.2C0 13.07 13.074-.004 29.203-.004S58.406 13.07 58.406 29.2m0 0"/></clipPath><clipPath id="w"><path d="M7 37h45v19H7Zm0 0"/></clipPath><clipPath id="x"><path d="M58.406 29.2c0 16.124-13.074 29.198-29.203 29.198S0 45.324 0 29.2C0 13.07 13.074-.004 29.203-.004S58.406 13.07 58.406 29.2m0 0"/></clipPath><clipPath id="y"><path d="M8 37h43v19H8Zm0 0"/></clipPath><clipPath id="z"><path d="M58.406 29.2c0 16.124-13.074 29.198-29.203 29.198S0 45.324 0 29.2C0 13.07 13.074-.004 29.203-.004S58.406 13.07 58.406 29.2m0 0"/></clipPath><clipPath id="A"><path d="M8 38h43v17H8Zm0 0"/></clipPath><clipPath id="B"><path d="M58.406 29.2c0 16.124-13.074 29.198-29.203 29.198S0 45.324 0 29.2C0 13.07 13.074-.004 29.203-.004S58.406 13.07 58.406 29.2m0 0"/></clipPath><clipPath id="C"><path d="M9 38h41v17H9Zm0 0"/></clipPath><clipPath id="D"><path d="M58.406 29.2c0 16.124-13.074 29.198-29.203 29.198S0 45.324 0 29.2C0 13.07 13.074-.004 29.203-.004S58.406 13.07 58.406 29.2m0 0"/></clipPath><clipPath id="E"><path d="M10 38h39v17H10Zm0 0"/></clipPath><clipPath id="F"><path d="M58.406 29.2c0 16.124-13.074 29.198-29.203 29.198S0 45.324 0 29.2C0 13.07 13.074-.004 29.203-.004S58.406 13.07 58.406 29.2m0 0"/></clipPath><clipPath id="G"><path d="M10 39h39v16H10Zm0 0"/></clipPath><clipPath id="H"><path d="M58.406 29.2c0 16.124-13.074 29.198-29.203 29.198S0 45.324 0 29.2C0 13.07 13.074-.004 29.203-.004S58.406 13.07 58.406 29.2m0 0"/></clipPath><clipPath id="I"><path d="M11 39h37v16H11Zm0 0"/></clipPath><clipPath id="J"><path d="M58.406 29.2c0 16.124-13.074 29.198-29.203 29.198S0 45.324 0 29.2C0 13.07 13.074-.004 29.203-.004S58.406 13.07 58.406 29.2m0 0"/></clipPath><clipPath id="K"><path d="M12 39h35v15H12Zm0 0"/></clipPath><clipPath id="L"><path d="M58.406 29.2c0 16.124-13.074 29.198-29.203 29.198S0 45.324 0 29.2C0 13.07 13.074-.004 29.203-.004S58.406 13.07 58.406 29.2m0 0"/></clipPath><clipPath id="M"><path d="M12 40h35v14H12Zm0 0"/></clipPath><clipPath id="N"><path d="M58.406 29.2c0 16.124-13.074 29.198-29.203 29.198S0 45.324 0 29.2C0 13.07 13.074-.004 29.203-.004S58.406 13.07 58.406 29.2m0 0"/></clipPath><clipPath id="O"><path d="M13 40h33v14H13Zm0 0"/></clipPath><clipPath id="P"><path d="M58.406 29.2c0 16.124-13.074 29.198-29.203 29.198S0 45.324 0 29.2C0 13.07 13.074-.004 29.203-.004S58.406 13.07 58.406 29.2m0 0"/></clipPath><clipPath id="Q"><path d="M14 41h31v13H14Zm0 0"/></clipPath><clipPath id="R"><path d="M58.406 29.2c0 16.124-13.074 29.198-29.203 29.198S0 45.324 0 29.2C0 13.07 13.074-.004 29.203-.004S58.406 13.07 58.406 29.2m0 0"/></clipPath><clipPath id="S"><path d="M14 41h30v13H14Zm0 0"/></clipPath><clipPath id="T"><path d="M58.406 29.2c0 16.124-13.074 29.198-29.203 29.198S0 45.324 0 29.2C0 13.07 13.074-.004 29.203-.004S58.406 13.07 58.406 29.2m0 0"/></clipPath><clipPath id="U"><path d="M15 41h29v12H15Zm0 0"/></clipPath><clipPath id="V"><path d="M58.406 29.2c0 16.124-13.074 29.198-29.203 29.198S0 45.324 0 29.2C0 13.07 13.074-.004 29.203-.004S58.406 13.07 58.406 29.2m0 0"/></clipPath><clipPath id="W"><path d="M16 42h27v11H16Zm0 0"/></clipPath><clipPath id="X"><path d="M58.406 29.2c0 16.124-13.074 29.198-29.203 29.198S0 45.324 0 29.2C0 13.07 13.074-.004 29.203-.004S58.406 13.07 58.406 29.2m0 0"/></clipPath><clipPath id="Y"><path d="M17 42h25v11H17Zm0 0"/></clipPath><clipPath id="Z"><path d="M58.406 29.2c0 16.124-13.074 29.198-29.203 29.198S0 45.324 0 29.2C0 13.07 13.074-.004 29.203-.004S58.406 13.07 58.406 29.2m0 0"/></clipPath><clipPath id="aa"><path d="M18 43h23v10H18Zm0 0"/></clipPath><clipPath id="ab"><path d="M58.406 29.2c0 16.124-13.074 29.198-29.203 29.198S0 45.324 0 29.2C0 13.07 13.074-.004 29.203-.004S58.406 13.07 58.406 29.2m0 0"/></clipPath><clipPath id="ac"><path d="M19 43h21v9H19Zm0 0"/></clipPath><clipPath id="ad"><path d="M58.406 29.2c0 16.124-13.074 29.198-29.203 29.198S0 45.324 0 29.2C0 13.07 13.074-.004 29.203-.004S58.406 13.07 58.406 29.2m0 0"/></clipPath><clipPath id="ae"><path d="M20 44h19v8H20Zm0 0"/></clipPath><clipPath id="af"><path d="M58.406 29.2c0 16.124-13.074 29.198-29.203 29.198S0 45.324 0 29.2C0 13.07 13.074-.004 29.203-.004S58.406 13.07 58.406 29.2m0 0"/></clipPath><clipPath id="ag"><path d="M21 44h17v8H21Zm0 0"/></clipPath><clipPath id="ah"><path d="M58.406 29.2c0 16.124-13.074 29.198-29.203 29.198S0 45.324 0 29.2C0 13.07 13.074-.004 29.203-.004S58.406 13.07 58.406 29.2m0 0"/></clipPath><clipPath id="ai"><path d="M21 44h17v7H21Zm0 0"/></clipPath><clipPath id="aj"><path d="M58.406 29.2c0 16.124-13.074 29.198-29.203 29.198S0 45.324 0 29.2C0 13.07 13.074-.004 29.203-.004S58.406 13.07 58.406 29.2m0 0"/></clipPath><clipPath id="ak"><path d="M22 45h15v6H22Zm0 0"/></clipPath><clipPath id="al"><path d="M58.406 29.2c0 16.124-13.074 29.198-29.203 29.198S0 45.324 0 29.2C0 13.07 13.074-.004 29.203-.004S58.406 13.07 58.406 29.2m0 0"/></clipPath><clipPath id="am"><path d="M23 45h13v6H23Zm0 0"/></clipPath><clipPath id="an"><path d="M58.406 29.2c0 16.124-13.074 29.198-29.203 29.198S0 45.324 0 29.2C0 13.07 13.074-.004 29.203-.004S58.406 13.07 58.406 29.2m0 0"/></clipPath><clipPath id="ao"><path d="M24 46h11v5H24Zm0 0"/></clipPath><clipPath id="ap"><path d="M58.406 29.2c0 16.124-13.074 29.198-29.203 29.198S0 45.324 0 29.2C0 13.07 13.074-.004 29.203-.004S58.406 13.07 58.406 29.2m0 0"/></clipPath><clipPath id="aq"><path d="M25 46h9v4h-9Zm0 0"/></clipPath><clipPath id="ar"><path d="M58.406 29.2c0 16.124-13.074 29.198-29.203 29.198S0 45.324 0 29.2C0 13.07 13.074-.004 29.203-.004S58.406 13.07 58.406 29.2m0 0"/></clipPath><clipPath id="as"><path d="M26 46h7v4h-7Zm0 0"/></clipPath><clipPath id="at"><path d="M58.406 29.2c0 16.124-13.074 29.198-29.203 29.198S0 45.324 0 29.2C0 13.07 13.074-.004 29.203-.004S58.406 13.07 58.406 29.2m0 0"/></clipPath><clipPath id="au"><path d="M26 47h7v3h-7Zm0 0"/></clipPath><clipPath id="av"><path d="M58.406 29.2c0 16.124-13.074 29.198-29.203 29.198S0 45.324 0 29.2C0 13.07 13.074-.004 29.203-.004S58.406 13.07 58.406 29.2m0 0"/></clipPath><clipPath id="aw"><path d="M27 47h5v3h-5Zm0 0"/></clipPath><clipPath id="ax"><path d="M58.406 29.2c0 16.124-13.074 29.198-29.203 29.198S0 45.324 0 29.2C0 13.07 13.074-.004 29.203-.004S58.406 13.07 58.406 29.2m0 0"/></clipPath><clipPath id="ay"><path d="M28 48h3v2h-3Zm0 0"/></clipPath><clipPath id="az"><path d="M58.406 29.2c0 16.124-13.074 29.198-29.203 29.198S0 45.324 0 29.2C0 13.07 13.074-.004 29.203-.004S58.406 13.07 58.406 29.2m0 0"/></clipPath><clipPath id="aA"><path d="M28 48h3v1h-3Zm0 0"/></clipPath><clipPath id="aB"><path d="M58.406 29.2c0 16.124-13.074 29.198-29.203 29.198S0 45.324 0 29.2C0 13.07 13.074-.004 29.203-.004S58.406 13.07 58.406 29.2m0 0"/></clipPath><clipPath id="aC"><path d="M7 0h44v29H7Zm0 0"/></clipPath><clipPath id="aD"><path d="M50.66 14.719c0 7.699-9.61 13.937-21.457 13.937-11.851 0-21.457-6.238-21.457-13.937C7.746 7.023 17.352.78 29.203.78 41.051.781 50.66 7.023 50.66 14.72m0 0"/></clipPath><clipPath id="aE"><path d="M7 0h44v27H7Zm0 0"/></clipPath><clipPath id="aF"><path d="M50.66 14.719c0 7.699-9.61 13.937-21.457 13.937-11.851 0-21.457-6.238-21.457-13.937C7.746 7.023 17.352.78 29.203.78 41.051.781 50.66 7.023 50.66 14.72m0 0"/></clipPath><clipPath id="aG"><path d="M7 0h44v26H7Zm0 0"/></clipPath><clipPath id="aH"><path d="M50.66 14.719c0 7.699-9.61 13.937-21.457 13.937-11.851 0-21.457-6.238-21.457-13.937C7.746 7.023 17.352.78 29.203.78 41.051.781 50.66 7.023 50.66 14.72m0 0"/></clipPath><clipPath id="aI"><path d="M7 0h44v25H7Zm0 0"/></clipPath><clipPath id="aJ"><path d="M50.66 14.719c0 7.699-9.61 13.937-21.457 13.937-11.851 0-21.457-6.238-21.457-13.937C7.746 7.023 17.352.78 29.203.78 41.051.781 50.66 7.023 50.66 14.72m0 0"/></clipPath><clipPath id="aK"><path d="M7 0h44v24H7Zm0 0"/></clipPath><clipPath id="aL"><path d="M50.66 14.719c0 7.699-9.61 13.937-21.457 13.937-11.851 0-21.457-6.238-21.457-13.937C7.746 7.023 17.352.78 29.203.78 41.051.781 50.66 7.023 50.66 14.72m0 0"/></clipPath><clipPath id="aM"><path d="M7 0h44v23H7Zm0 0"/></clipPath><clipPath id="aN"><path d="M50.66 14.719c0 7.699-9.61 13.937-21.457 13.937-11.851 0-21.457-6.238-21.457-13.937C7.746 7.023 17.352.78 29.203.78 41.051.781 50.66 7.023 50.66 14.72m0 0"/></clipPath><clipPath id="aO"><path d="M7 0h44v22H7Zm0 0"/></clipPath><clipPath id="aP"><path d="M50.66 14.719c0 7.699-9.61 13.937-21.457 13.937-11.851 0-21.457-6.238-21.457-13.937C7.746 7.023 17.352.78 29.203.78 41.051.781 50.66 7.023 50.66 14.72m0 0"/></clipPath><clipPath id="aQ"><path d="M7 0h44v21H7Zm0 0"/></clipPath><clipPath id="aR"><path d="M50.66 14.719c0 7.699-9.61 13.937-21.457 13.937-11.851 0-21.457-6.238-21.457-13.937C7.746 7.023 17.352.78 29.203.78 41.051.781 50.66 7.023 50.66 14.72m0 0"/></clipPath><clipPath id="aS"><path d="M7 0h44v20H7Zm0 0"/></clipPath><clipPath id="aT"><path d="M50.66 14.719c0 7.699-9.61 13.937-21.457 13.937-11.851 0-21.457-6.238-21.457-13.937C7.746 7.023 17.352.78 29.203.78 41.051.781 50.66 7.023 50.66 14.72m0 0"/></clipPath><clipPath id="aU"><path d="M7 0h44v19H7Zm0 0"/></clipPath><clipPath id="aV"><path d="M50.66 14.719c0 7.699-9.61 13.937-21.457 13.937-11.851 0-21.457-6.238-21.457-13.937C7.746 7.023 17.352.78 29.203.78 41.051.781 50.66 7.023 50.66 14.72m0 0"/></clipPath><clipPath id="aW"><path d="M7 0h44v18H7Zm0 0"/></clipPath><clipPath id="aX"><path d="M50.66 14.719c0 7.699-9.61 13.937-21.457 13.937-11.851 0-21.457-6.238-21.457-13.937C7.746 7.023 17.352.78 29.203.78 41.051.781 50.66 7.023 50.66 14.72m0 0"/></clipPath><clipPath id="aY"><path d="M7 0h44v17H7Zm0 0"/></clipPath><clipPath id="aZ"><path d="M50.66 14.719c0 7.699-9.61 13.937-21.457 13.937-11.851 0-21.457-6.238-21.457-13.937C7.746 7.023 17.352.78 29.203.78 41.051.781 50.66 7.023 50.66 14.72m0 0"/></clipPath><clipPath id="ba"><path d="M7 0h44v16H7Zm0 0"/></clipPath><clipPath id="bb"><path d="M50.66 14.719c0 7.699-9.61 13.937-21.457 13.937-11.851 0-21.457-6.238-21.457-13.937C7.746 7.023 17.352.78 29.203.78 41.051.781 50.66 7.023 50.66 14.72m0 0"/></clipPath><clipPath id="bc"><path d="M7 0h44v15H7Zm0 0"/></clipPath><clipPath id="bd"><path d="M50.66 14.719c0 7.699-9.61 13.937-21.457 13.937-11.851 0-21.457-6.238-21.457-13.937C7.746 7.023 17.352.78 29.203.78 41.051.781 50.66 7.023 50.66 14.72m0 0"/></clipPath><clipPath id="be"><path d="M7 0h44v14H7Zm0 0"/></clipPath><clipPath id="bf"><path d="M50.66 14.719c0 7.699-9.61 13.937-21.457 13.937-11.851 0-21.457-6.238-21.457-13.937C7.746 7.023 17.352.78 29.203.78 41.051.781 50.66 7.023 50.66 14.72m0 0"/></clipPath><clipPath id="bg"><path d="M7 0h44v13H7Zm0 0"/></clipPath><clipPath id="bh"><path d="M50.66 14.719c0 7.699-9.61 13.937-21.457 13.937-11.851 0-21.457-6.238-21.457-13.937C7.746 7.023 17.352.78 29.203.78 41.051.781 50.66 7.023 50.66 14.72m0 0"/></clipPath><clipPath id="bi"><path d="M7 0h44v12H7Zm0 0"/></clipPath><clipPath id="bj"><path d="M50.66 14.719c0 7.699-9.61 13.937-21.457 13.937-11.851 0-21.457-6.238-21.457-13.937C7.746 7.023 17.352.78 29.203.78 41.051.781 50.66 7.023 50.66 14.72m0 0"/></clipPath><clipPath id="bk"><path d="M7 0h43v12H7Zm0 0"/></clipPath><clipPath id="bl"><path d="M50.66 14.719c0 7.699-9.61 13.937-21.457 13.937-11.851 0-21.457-6.238-21.457-13.937C7.746 7.023 17.352.78 29.203.78 41.051.781 50.66 7.023 50.66 14.72m0 0"/></clipPath><clipPath id="bm"><path d="M8 0h41v11H8Zm0 0"/></clipPath><clipPath id="bn"><path d="M50.66 14.719c0 7.699-9.61 13.937-21.457 13.937-11.851 0-21.457-6.238-21.457-13.937C7.746 7.023 17.352.78 29.203.78 41.051.781 50.66 7.023 50.66 14.72m0 0"/></clipPath><clipPath id="bo"><path d="M9 0h39v11H9Zm0 0"/></clipPath><clipPath id="bp"><path d="M50.66 14.719c0 7.699-9.61 13.937-21.457 13.937-11.851 0-21.457-6.238-21.457-13.937C7.746 7.023 17.352.78 29.203.78 41.051.781 50.66 7.023 50.66 14.72m0 0"/></clipPath><clipPath id="bq"><path d="M10 0h37v10H10Zm0 0"/></clipPath><clipPath id="br"><path d="M50.66 14.719c0 7.699-9.61 13.937-21.457 13.937-11.851 0-21.457-6.238-21.457-13.937C7.746 7.023 17.352.78 29.203.78 41.051.781 50.66 7.023 50.66 14.72m0 0"/></clipPath><clipPath id="bs"><path d="M11 0h35v9H11Zm0 0"/></clipPath><clipPath id="bt"><path d="M50.66 14.719c0 7.699-9.61 13.937-21.457 13.937-11.851 0-21.457-6.238-21.457-13.937C7.746 7.023 17.352.78 29.203.78 41.051.781 50.66 7.023 50.66 14.72m0 0"/></clipPath><clipPath id="bu"><path d="M12 0h33v9H12Zm0 0"/></clipPath><clipPath id="bv"><path d="M50.66 14.719c0 7.699-9.61 13.937-21.457 13.937-11.851 0-21.457-6.238-21.457-13.937C7.746 7.023 17.352.78 29.203.78 41.051.781 50.66 7.023 50.66 14.72m0 0"/></clipPath><clipPath id="bw"><path d="M13 0h31v8H13Zm0 0"/></clipPath><clipPath id="bx"><path d="M50.66 14.719c0 7.699-9.61 13.937-21.457 13.937-11.851 0-21.457-6.238-21.457-13.937C7.746 7.023 17.352.78 29.203.78 41.051.781 50.66 7.023 50.66 14.72m0 0"/></clipPath><clipPath id="by"><path d="M14 0h28v8H14Zm0 0"/></clipPath><clipPath id="bz"><path d="M50.66 14.719c0 7.699-9.61 13.937-21.457 13.937-11.851 0-21.457-6.238-21.457-13.937C7.746 7.023 17.352.78 29.203.78 41.051.781 50.66 7.023 50.66 14.72m0 0"/></clipPath><clipPath id="bA"><path d="M15 0h26v7H15Zm0 0"/></clipPath><clipPath id="bB"><path d="M50.66 14.719c0 7.699-9.61 13.937-21.457 13.937-11.851 0-21.457-6.238-21.457-13.937C7.746 7.023 17.352.78 29.203.78 41.051.781 50.66 7.023 50.66 14.72m0 0"/></clipPath><clipPath id="bC"><path d="M16 0h24v6H16Zm0 0"/></clipPath><clipPath id="bD"><path d="M50.66 14.719c0 7.699-9.61 13.937-21.457 13.937-11.851 0-21.457-6.238-21.457-13.937C7.746 7.023 17.352.78 29.203.78 41.051.781 50.66 7.023 50.66 14.72m0 0"/></clipPath><clipPath id="bE"><path d="M18 0h21v6H18Zm0 0"/></clipPath><clipPath id="bF"><path d="M50.66 14.719c0 7.699-9.61 13.937-21.457 13.937-11.851 0-21.457-6.238-21.457-13.937C7.746 7.023 17.352.78 29.203.78 41.051.781 50.66 7.023 50.66 14.72m0 0"/></clipPath><clipPath id="bG"><path d="M19 0h19v5H19Zm0 0"/></clipPath><clipPath id="bH"><path d="M50.66 14.719c0 7.699-9.61 13.937-21.457 13.937-11.851 0-21.457-6.238-21.457-13.937C7.746 7.023 17.352.78 29.203.78 41.051.781 50.66 7.023 50.66 14.72m0 0"/></clipPath><clipPath id="bI"><path d="M20 0h17v5H20Zm0 0"/></clipPath><clipPath id="bJ"><path d="M50.66 14.719c0 7.699-9.61 13.937-21.457 13.937-11.851 0-21.457-6.238-21.457-13.937C7.746 7.023 17.352.78 29.203.78 41.051.781 50.66 7.023 50.66 14.72m0 0"/></clipPath><clipPath id="bK"><path d="M21 0h15v4H21Zm0 0"/></clipPath><clipPath id="bL"><path d="M50.66 14.719c0 7.699-9.61 13.937-21.457 13.937-11.851 0-21.457-6.238-21.457-13.937C7.746 7.023 17.352.78 29.203.78 41.051.781 50.66 7.023 50.66 14.72m0 0"/></clipPath><clipPath id="bM"><path d="M22 0h12v4H22Zm0 0"/></clipPath><clipPath id="bN"><path d="M50.66 14.719c0 7.699-9.61 13.937-21.457 13.937-11.851 0-21.457-6.238-21.457-13.937C7.746 7.023 17.352.78 29.203.78 41.051.781 50.66 7.023 50.66 14.72m0 0"/></clipPath><clipPath id="bO"><path d="M23 0h10v3H23Zm0 0"/></clipPath><clipPath id="bP"><path d="M50.66 14.719c0 7.699-9.61 13.937-21.457 13.937-11.851 0-21.457-6.238-21.457-13.937C7.746 7.023 17.352.78 29.203.78 41.051.781 50.66 7.023 50.66 14.72m0 0"/></clipPath><clipPath id="bQ"><path d="M24 0h8v2h-8Zm0 0"/></clipPath><clipPath id="bR"><path d="M50.66 14.719c0 7.699-9.61 13.937-21.457 13.937-11.851 0-21.457-6.238-21.457-13.937C7.746 7.023 17.352.78 29.203.78 41.051.781 50.66 7.023 50.66 14.72m0 0"/></clipPath><clipPath id="bS"><path d="M25 0h6v2h-6Zm0 0"/></clipPath><clipPath id="bT"><path d="M50.66 14.719c0 7.699-9.61 13.937-21.457 13.937-11.851 0-21.457-6.238-21.457-13.937C7.746 7.023 17.352.78 29.203.78 41.051.781 50.66 7.023 50.66 14.72m0 0"/></clipPath><clipPath id="bU"><path d="M3 4h173.55v46H3Zm0 0"/></clipPath></defs><g clip-path="url(#a)"><g clip-path="url(#b)"><path d="M0-.004h58.406v58.402H0z" style="stroke:none;fill-rule:nonzero;fill:#d9d1e8;fill-opacity:1"/></g></g><g clip-path="url(#c)"><g clip-path="url(#d)"><path d="M58.676 44.176v2.535h1.367c-.383.824-.961 1.629-1.719 2.406-1.515 1.551-3.738 2.985-6.508 4.223-5.539 2.472-13.257 4.176-21.847 4.523-17.176.684-31.324-4.328-31.598-11.199-.277-6.871 13.426-12.996 30.606-13.684 8.586-.343 16.418.739 22.136 2.762 2.86 1.016 5.192 2.266 6.825 3.692.816.71 1.457 1.468 1.906 2.261h-1.168z" style="stroke:none;fill-rule:nonzero;fill:#d9d1e8;fill-opacity:1"/></g></g><g clip-path="url(#e)"><g clip-path="url(#f)"><path d="M59.883 44.277c.27 6.72-13.13 12.711-29.922 13.38C13.164 58.331-.672 53.43-.937 46.71c-.27-6.719 13.128-12.707 29.921-13.379 16.797-.672 30.63 4.23 30.899 10.945" style="stroke:none;fill-rule:nonzero;fill:#dbd3e9;fill-opacity:1"/><path d="M59.191 44.379C59.453 50.945 46.36 56.8 29.95 57.457c-16.414.656-29.933-4.133-30.195-10.7S12.582 34.337 28.996 33.68s29.934 4.136 30.195 10.699" style="stroke:none;fill-rule:nonzero;fill:#dcd6ea;fill-opacity:1"/><path d="M58.5 44.48c.258 6.415-12.531 12.133-28.562 12.774-16.032.64-29.235-4.04-29.493-10.45-.257-6.413 12.532-12.132 28.563-12.773 16.031-.64 29.234 4.04 29.492 10.45" style="stroke:none;fill-rule:nonzero;fill:#ded8eb;fill-opacity:1"/></g></g><g clip-path="url(#g)"><g clip-path="url(#h)"><path d="M57.809 44.582c.25 6.262-12.235 11.844-27.883 12.469s-28.54-3.942-28.79-10.203c-.25-6.258 12.235-11.84 27.884-12.465 15.648-.63 28.539 3.937 28.789 10.199" style="stroke:none;fill-rule:nonzero;fill:#e0d9ec;fill-opacity:1"/></g></g><g clip-path="url(#i)"><g clip-path="url(#j)"><path d="M57.117 44.684c.246 6.105-11.933 11.554-27.203 12.164-15.266.609-27.844-3.844-28.09-9.953-.242-6.106 11.938-11.551 27.207-12.165 15.266-.609 27.844 3.848 28.086 9.954" style="stroke:none;fill-rule:nonzero;fill:#e1dbed;fill-opacity:1"/></g></g><g clip-path="url(#k)"><g clip-path="url(#l)"><path d="M56.426 44.785c.238 5.953-11.637 11.266-26.524 11.86-14.886.597-27.144-3.747-27.382-9.704-.239-5.953 11.636-11.265 26.523-11.859 14.883-.598 27.148 3.75 27.383 9.703" style="stroke:none;fill-rule:nonzero;fill:#e3dded;fill-opacity:1"/></g></g><g clip-path="url(#m)"><g clip-path="url(#n)"><path d="M55.734 44.887c.235 5.8-11.336 10.976-25.84 11.554-14.507.582-26.453-3.652-26.687-9.453-.23-5.804 11.34-10.976 25.844-11.558 14.508-.578 26.453 3.656 26.683 9.457" style="stroke:none;fill-rule:nonzero;fill:#e5deee;fill-opacity:1"/><path d="M55.047 44.988c.226 5.649-11.043 10.688-25.164 11.25-14.125.567-25.758-3.554-25.985-9.203-.226-5.652 11.043-10.687 25.165-11.254 14.125-.562 25.757 3.559 25.984 9.207" style="stroke:none;fill-rule:nonzero;fill:#e6e0ef;fill-opacity:1"/></g></g><g clip-path="url(#o)"><g clip-path="url(#p)"><path d="M54.355 45.09c.22 5.496-10.742 10.398-24.484 10.95-13.742.546-25.058-3.462-25.281-8.962-.219-5.496 10.742-10.394 24.484-10.945s25.059 3.46 25.281 8.957" style="stroke:none;fill-rule:nonzero;fill:#e7e3f0;fill-opacity:1"/></g></g><g clip-path="url(#q)"><g clip-path="url(#r)"><path d="M53.664 45.191c.211 5.344-10.445 10.11-23.805 10.645-13.359.531-24.363-3.367-24.578-8.711-.21-5.344 10.446-10.11 23.805-10.64 13.36-.536 24.363 3.363 24.578 8.706" style="stroke:none;fill-rule:nonzero;fill:#e9e4f1;fill-opacity:1"/></g></g><g clip-path="url(#s)"><g clip-path="url(#t)"><path d="M52.973 45.293c.207 5.191-10.145 9.82-23.125 10.34-12.977.52-23.668-3.27-23.875-8.461s10.144-9.82 23.125-10.34c12.976-.52 23.668 3.27 23.875 8.461" style="stroke:none;fill-rule:nonzero;fill:#e9e6f2;fill-opacity:1"/></g></g><g clip-path="url(#u)"><g clip-path="url(#v)"><path d="M52.281 45.395c.2 5.039-9.847 9.53-22.441 10.035-12.598.504-22.973-3.172-23.176-8.211-.203-5.04 9.848-9.532 22.441-10.035 12.598-.504 22.973 3.171 23.176 8.21" style="stroke:none;fill-rule:nonzero;fill:#ebe7f3;fill-opacity:1"/></g></g><g clip-path="url(#w)"><g clip-path="url(#x)"><path d="M51.59 45.496c.195 4.887-9.547 9.242-21.762 9.73-12.219.489-22.277-3.078-22.473-7.96-.195-4.887 9.547-9.246 21.762-9.735 12.219-.484 22.278 3.078 22.473 7.965" style="stroke:none;fill-rule:nonzero;fill:#ece9f3;fill-opacity:1"/></g></g><g clip-path="url(#y)"><g clip-path="url(#z)"><path d="M50.898 45.598c.192 4.734-9.25 8.953-21.082 9.425-11.836.473-21.578-2.98-21.77-7.71-.19-4.735 9.25-8.958 21.083-9.43 11.836-.473 21.578 2.98 21.77 7.715" style="stroke:none;fill-rule:nonzero;fill:#edeaf4;fill-opacity:1"/></g></g><g clip-path="url(#A)"><g clip-path="url(#B)"><path d="M50.207 45.7c.184 4.577-8.95 8.663-20.402 9.12S8.922 51.937 8.738 47.355c-.183-4.578 8.953-8.664 20.403-9.12 11.453-.458 20.882 2.882 21.066 7.464" style="stroke:none;fill-rule:nonzero;fill:#efebf5;fill-opacity:1"/></g></g><g clip-path="url(#C)"><g clip-path="url(#D)"><path d="M49.516 45.8c.175 4.427-8.653 8.376-19.723 8.817-11.07.446-20.188-2.789-20.363-7.215-.176-4.425 8.652-8.375 19.722-8.82 11.07-.441 20.188 2.79 20.364 7.219" style="stroke:none;fill-rule:nonzero;fill:#f0edf5;fill-opacity:1"/></g></g><g clip-path="url(#E)"><g clip-path="url(#F)"><path d="M48.824 45.902c.172 4.274-8.355 8.086-19.043 8.516-10.687.426-19.488-2.691-19.66-6.969-.172-4.277 8.356-8.086 19.043-8.515 10.688-.426 19.488 2.691 19.66 6.968" style="stroke:none;fill-rule:nonzero;fill:#f2eff6;fill-opacity:1"/></g></g><g clip-path="url(#G)"><g clip-path="url(#H)"><path d="M48.133 46.004c.164 4.121-8.055 7.797-18.36 8.21-10.308.411-18.796-2.597-18.96-6.718-.165-4.125 8.054-7.8 18.359-8.21 10.308-.415 18.797 2.593 18.96 6.718" style="stroke:none;fill-rule:nonzero;fill:#f3f0f7;fill-opacity:1"/></g></g><g clip-path="url(#I)"><g clip-path="url(#J)"><path d="M47.441 46.102c.16 3.972-7.757 7.511-17.68 7.91-9.925.394-18.1-2.5-18.257-6.473-.16-3.969 7.758-7.508 17.68-7.906 9.925-.395 18.097 2.5 18.257 6.469" style="stroke:none;fill-rule:nonzero;fill:#f4f1f9;fill-opacity:1"/></g></g><g clip-path="url(#K)"><g clip-path="url(#L)"><path d="M46.75 46.203c.156 3.82-7.457 7.223-17 7.606-9.543.379-17.402-2.407-17.555-6.223-.156-3.816 7.457-7.219 17-7.602 9.543-.382 17.403 2.403 17.555 6.22" style="stroke:none;fill-rule:nonzero;fill:#f5f3f9;fill-opacity:1"/></g></g><g clip-path="url(#M)"><g clip-path="url(#N)"><path d="M46.059 46.305c.148 3.668-7.16 6.933-16.32 7.3-9.16.368-16.708-2.308-16.852-5.972-.149-3.664 7.16-6.934 16.32-7.297 9.16-.367 16.707 2.305 16.852 5.969" style="stroke:none;fill-rule:nonzero;fill:#f5f5fa;fill-opacity:1"/></g></g><g clip-path="url(#O)"><g clip-path="url(#P)"><path d="M45.367 46.406c.14 3.512-6.86 6.645-15.64 6.996-8.778.352-16.008-2.21-16.149-5.722-.14-3.512 6.86-6.645 15.64-6.996 8.778-.352 16.009 2.21 16.15 5.722" style="stroke:none;fill-rule:nonzero;fill:#f6f6fa;fill-opacity:1"/></g></g><g clip-path="url(#Q)"><g clip-path="url(#R)"><path d="M44.676 46.508c.136 3.36-6.563 6.355-14.961 6.691-8.395.336-15.313-2.113-15.445-5.472-.137-3.36 6.562-6.356 14.96-6.692 8.395-.336 15.313 2.117 15.446 5.473" style="stroke:none;fill-rule:nonzero;fill:#f7f7fb;fill-opacity:1"/></g></g><g clip-path="url(#S)"><g clip-path="url(#T)"><path d="M43.988 46.61c.125 3.206-6.27 6.066-14.285 6.386s-14.617-2.02-14.746-5.223c-.125-3.207 6.266-6.066 14.281-6.386 8.02-.32 14.621 2.015 14.75 5.222" style="stroke:none;fill-rule:nonzero;fill:#f8f8fc;fill-opacity:1"/></g></g><g clip-path="url(#U)"><g clip-path="url(#V)"><path d="M43.293 46.71c.125 3.056-5.965 5.778-13.598 6.083-7.636.309-13.922-1.922-14.043-4.977-.125-3.05 5.965-5.773 13.602-6.082 7.633-.304 13.918 1.922 14.039 4.977" style="stroke:none;fill-rule:nonzero;fill:#f9f9fc;fill-opacity:1"/></g></g><g clip-path="url(#W)"><g clip-path="url(#X)"><path d="M42.605 46.813c.114 2.902-5.671 5.488-12.921 5.777-7.254.289-13.227-1.824-13.344-4.727-.117-2.902 5.668-5.488 12.922-5.777 7.254-.29 13.226 1.824 13.343 4.727" style="stroke:none;fill-rule:nonzero;fill:#f9f8fc;fill-opacity:1"/></g></g><g clip-path="url(#Y)"><g clip-path="url(#Z)"><path d="M41.914 46.914c.11 2.75-5.371 5.2-12.242 5.473-6.871.277-12.527-1.73-12.64-4.477-.11-2.75 5.37-5.2 12.241-5.472 6.872-.278 12.528 1.726 12.641 4.476" style="stroke:none;fill-rule:nonzero;fill:#faf9fc;fill-opacity:1"/><path d="M41.223 47.016c.101 2.597-5.075 4.91-11.563 5.172-6.488.257-11.832-1.637-11.937-4.231-.102-2.598 5.074-4.91 11.562-5.172 6.488-.258 11.832 1.637 11.938 4.23" style="stroke:none;fill-rule:nonzero;fill:#fbfafd;fill-opacity:1"/></g></g><g clip-path="url(#aa)"><g clip-path="url(#ab)"><path d="M40.531 47.117c.098 2.446-4.773 4.621-10.883 4.867-6.105.243-11.136-1.539-11.234-3.98-.098-2.445 4.773-4.625 10.879-4.867 6.11-.242 11.14 1.539 11.238 3.98" style="stroke:none;fill-rule:nonzero;fill:#fbfbfd;fill-opacity:1"/></g></g><g clip-path="url(#ac)"><g clip-path="url(#ad)"><path d="M39.84 47.219c.09 2.289-4.477 4.332-10.2 4.562-5.726.227-10.445-1.441-10.535-3.734-.09-2.29 4.477-4.332 10.2-4.563 5.726-.226 10.445 1.446 10.535 3.735" style="stroke:none;fill-rule:nonzero;fill:#fcfcfe;fill-opacity:1"/><path d="M39.148 47.32c.086 2.137-4.175 4.043-9.52 4.258-5.343.211-9.745-1.348-9.831-3.484s4.176-4.043 9.52-4.258c5.343-.211 9.746 1.348 9.831 3.484" style="stroke:none;fill-rule:nonzero;fill:#fcfcfe;fill-opacity:1"/></g></g><g clip-path="url(#ae)"><g clip-path="url(#af)"><path d="M38.457 47.422c.078 1.984-3.879 3.754-8.84 3.953-4.96.2-9.05-1.25-9.129-3.234-.082-1.985 3.88-3.754 8.84-3.953 4.961-.2 9.05 1.25 9.129 3.234" style="stroke:none;fill-rule:nonzero;fill:#fdfdfe;fill-opacity:1"/></g></g><g clip-path="url(#ag)"><g clip-path="url(#ah)"><path d="M37.766 47.523c.074 1.832-3.582 3.465-8.16 3.649-4.583.183-8.352-1.152-8.426-2.984-.075-1.833 3.582-3.47 8.16-3.653 4.582-.18 8.351 1.156 8.426 2.988" style="stroke:none;fill-rule:nonzero;fill:#fefeff;fill-opacity:1"/></g></g><g clip-path="url(#ai)"><g clip-path="url(#aj)"><path d="M37.074 47.625c.07 1.68-3.281 3.176-7.48 3.344-4.2.168-7.657-1.055-7.723-2.735-.07-1.68 3.281-3.18 7.48-3.347 4.2-.168 7.657 1.058 7.723 2.738" style="stroke:none;fill-rule:nonzero;fill:#fefeff;fill-opacity:1"/></g></g><g clip-path="url(#ak)"><g clip-path="url(#al)"><path d="M36.383 47.727c.062 1.527-2.98 2.89-6.801 3.039-3.816.152-6.96-.961-7.02-2.485-.062-1.527 2.981-2.89 6.801-3.043 3.817-.152 6.961.961 7.02 2.489" style="stroke:none;fill-rule:nonzero;fill:#feffff;fill-opacity:1"/></g></g><g clip-path="url(#am)"><g clip-path="url(#an)"><path d="M35.691 47.828c.055 1.375-2.683 2.598-6.117 2.734-3.437.137-6.265-.863-6.32-2.238s2.683-2.597 6.121-2.738c3.434-.137 6.262.867 6.316 2.242" style="stroke:none;fill-rule:nonzero;fill:#feffff;fill-opacity:1"/><path d="M35.004 47.93c.047 1.218-2.39 2.308-5.441 2.43-3.055.124-5.57-.766-5.618-1.989-.05-1.223 2.387-2.312 5.438-2.434 3.055-.12 5.57.77 5.62 1.993" style="stroke:none;fill-rule:nonzero;fill:#fff;fill-opacity:1"/></g></g><g clip-path="url(#ao)"><g clip-path="url(#ap)"><path d="M34.313 48.031c.039 1.067-2.09 2.02-4.762 2.13-2.672.105-4.875-.677-4.918-1.743-.04-1.07 2.09-2.023 4.762-2.129 2.671-.11 4.875.672 4.918 1.742" style="stroke:none;fill-rule:nonzero;fill:#fff;fill-opacity:1"/></g></g><g clip-path="url(#aq)"><g clip-path="url(#ar)"><path d="M33.617 48.133c.04.914-1.789 1.73-4.078 1.824-2.293.09-4.176-.578-4.21-1.496-.04-.914 1.788-1.73 4.077-1.824 2.29-.09 4.176.578 4.211 1.496" style="stroke:none;fill-rule:nonzero;fill:#fff;fill-opacity:1"/></g></g><g clip-path="url(#as)"><g clip-path="url(#at)"><path d="M32.93 48.234c.03.762-1.492 1.442-3.403 1.52-1.91.074-3.48-.48-3.511-1.246-.032-.762 1.492-1.446 3.402-1.52s3.48.48 3.512 1.246" style="stroke:none;fill-rule:nonzero;fill:#fff;fill-opacity:1"/></g></g><g clip-path="url(#au)"><g clip-path="url(#av)"><path d="M32.238 48.336c.024.61-1.195 1.152-2.722 1.215-1.528.058-2.782-.383-2.809-.996-.023-.61 1.195-1.157 2.723-1.215 1.527-.063 2.78.383 2.808.996" style="stroke:none;fill-rule:nonzero;fill:#fff;fill-opacity:1"/></g></g><g clip-path="url(#aw)"><g clip-path="url(#ax)"><path d="M31.547 48.434c.015.46-.895.867-2.043.914-1.145.047-2.086-.29-2.106-.746-.015-.457.895-.868 2.043-.914 1.145-.043 2.086.289 2.106.746" style="stroke:none;fill-rule:nonzero;fill:#fff;fill-opacity:1"/></g></g><g clip-path="url(#ay)"><g clip-path="url(#az)"><path d="M30.855 48.54c.012.304-.597.573-1.359.605-.766.03-1.394-.192-1.406-.497-.012-.304.598-.578 1.36-.609.765-.031 1.394.191 1.405.5" style="stroke:none;fill-rule:nonzero;fill:#fff;fill-opacity:1"/></g></g><g clip-path="url(#aA)"><g clip-path="url(#aB)"><path d="M30.164 48.637c.004.152-.297.289-.68.304-.382.016-.699-.093-.703-.246-.004-.156.297-.289.68-.304s.695.093.703.246" style="stroke:none;fill-rule:nonzero;fill:#fff;fill-opacity:1"/></g></g><g clip-path="url(#aC)"><g clip-path="url(#aD)"><path d="M7.746.781H50.66v27.875H7.746z" style="stroke:none;fill-rule:nonzero;fill:#d9d1e8;fill-opacity:1"/></g></g><g clip-path="url(#aE)"><g clip-path="url(#aF)"><path d="M50.93 12.148v12.704h.406c-.742.113-1.488.218-2.25.324-6.066.836-12.75 1.39-19.773 1.582-7.024.191-13.727.008-19.833-.496q-1.142-.094-2.261-.203h.258V2.227h-.91q1.108-.166 2.246-.325C14.883 1.066 21.563.512 28.59.32 35.613.13 42.316.316 48.418.816q1.149.099 2.262.204c.375.039.742.074 1.11.113h-.86z" style="stroke:none;fill-rule:nonzero;fill:#d9d1e8;fill-opacity:1"/><path d="M50.93 11.879v12.25h.965a78 78 0 0 1-1.079.172 156 156 0 0 1-2.195.316c-5.934.82-12.465 1.36-19.336 1.547-6.867.188-13.422.008-19.39-.484q-1.121-.095-2.211-.2-.548-.052-1.082-.109h.875V2.18h-.43q1.083-.164 2.195-.32C15.176 1.042 21.711.503 28.578.315 35.445.125 42 .31 47.968.801c1.493.12 2.95.265 4.364.426H50.93z" style="stroke:none;fill-rule:nonzero;fill:#dbd3e9;fill-opacity:1"/></g></g><g clip-path="url(#aG)"><g clip-path="url(#aH)"><path d="M50.93 11.605V23.41h1.46c-1.37.235-2.785.45-4.234.649-5.8.8-12.183 1.328-18.898 1.511-6.711.184-13.113.008-18.95-.472a145 145 0 0 1-4.265-.418h1.434V2.297H6.473l1.05-.164q1.06-.165 2.149-.313C15.469 1.02 21.855.492 28.566.31 35.281.125 41.684.305 47.52.78q2.186.183 4.261.418h-.851z" style="stroke:none;fill-rule:nonzero;fill:#dcd6ea;fill-opacity:1"/><path d="M50.93 11.34v11.527h.898q-2.016.34-4.137.633c-5.664.781-11.902 1.297-18.457 1.477-6.558.18-12.812.003-18.511-.465a140 140 0 0 1-4.164-.403h.918V2.41H5.965q2.011-.339 4.133-.633C15.766.997 22 .48 28.555.301 35.113.12 41.367.297 47.066.766q2.138.177 4.164.406h-.3z" style="stroke:none;fill-rule:nonzero;fill:#ded8eb;fill-opacity:1"/></g></g><g clip-path="url(#aI)"><g clip-path="url(#aJ)"><path d="M50.93 11.07v11.254h.332c-1.309.223-2.657.426-4.04.617-5.527.762-11.617 1.266-18.015 1.442-6.402.176-12.508.004-18.07-.453q-2.085-.171-4.067-.395h.407V2.355h-.985q1.964-.334 4.04-.62C16.058.976 22.147.472 28.546.296 34.945.12 41.05.289 46.617.747q2.086.175 4.063.398.99.11 1.953.238H50.93z" style="stroke:none;fill-rule:nonzero;fill:#e0d9ec;fill-opacity:1"/></g></g><g clip-path="url(#aK)"><g clip-path="url(#aL)"><path d="M50.93 10.8v10.645h1.652q-.926.172-1.883.336-1.921.324-3.941.602c-5.395.742-11.336 1.234-17.578 1.406-6.246.172-12.203.004-17.63-.441q-2.035-.165-3.964-.387c-.645-.074-1.277-.148-1.902-.23h1.793V2.296H7.02q1.916-.321 3.937-.602C16.352.953 22.293.461 28.535.29 34.781.117 40.738.285 46.165.73q2.034.171 3.968.387.96.113 1.898.23H50.93z" style="stroke:none;fill-rule:nonzero;fill:#e1dbed;fill-opacity:1"/><path d="M50.93 10.531v10.38h1.043q-.91.169-1.84.327-1.87.317-3.84.586c-5.262.723-11.05 1.203-17.14 1.371-6.087.168-11.895.004-17.188-.43a121 121 0 0 1-3.867-.378q-.944-.106-1.852-.223h1.23V2.57H5.708a99 99 0 0 1 1.84-.328q1.87-.316 3.84-.586C16.645.93 22.437.45 28.523.281c6.09-.164 11.899-.004 17.192.434a114.525 114.525 0 0 1 5.719.602h-.504z" style="stroke:none;fill-rule:nonzero;fill:#e3dded;fill-opacity:1"/></g></g><g clip-path="url(#aM)"><g clip-path="url(#aN)"><path d="M50.93 10.262v10.113h.43q-.88.165-1.794.316c-1.21.207-2.46.399-3.742.575-5.12.707-10.765 1.172-16.699 1.336-5.93.16-11.59.003-16.746-.418q-1.936-.163-3.766-.368-.919-.105-1.808-.222h.672V2.504H6.28q.885-.164 1.793-.32 1.819-.307 3.742-.57C16.941.905 22.582.44 28.516.276S40.106.27 45.262.695c2.578.211 5.031.493 7.324.828H50.93z" style="stroke:none;fill-rule:nonzero;fill:#e5deee;fill-opacity:1"/><path d="M50.93 9.992v9.52h1.508c-2.215.449-4.583.851-7.079 1.195-4.992.688-10.484 1.14-16.261 1.3-5.774.157-11.285.005-16.305-.41a111 111 0 0 1-7.133-.804h1.817V2.438h-.622q.862-.16 1.747-.31 1.77-.298 3.644-.558C17.234.883 22.726.43 28.504.27 34.28.113 39.789.266 44.812.68c2.508.207 4.895.476 7.133.804H50.93z" style="stroke:none;fill-rule:nonzero;fill:#e6e0ef;fill-opacity:1"/></g></g><g clip-path="url(#aO)"><g clip-path="url(#aP)"><path d="M50.93 9.723v9.261h.851c-2.156.438-4.46.832-6.886 1.164-4.856.668-10.2 1.11-15.82 1.266-5.622.152-10.981.004-15.868-.398-2.441-.2-4.762-.465-6.937-.786h1.207V2.695H5.789c2.152-.441 4.457-.832 6.887-1.164C17.527.86 22.875.418 28.496.266 34.113.109 39.476.258 44.36.66c2.442.203 4.766.465 6.942.785h-.371z" style="stroke:none;fill-rule:nonzero;fill:#e7e3f0;fill-opacity:1"/></g></g><g clip-path="url(#aQ)"><g clip-path="url(#aR)"><path d="M50.93 9.457v9h.195c-2.098.43-4.336.809-6.7 1.133-4.718.648-9.913 1.078-15.378 1.23-5.465.149-10.676.004-15.426-.386a105 105 0 0 1-6.746-.766h.602V2.621h-1.07c2.097-.43 4.335-.808 6.695-1.133C17.824.836 23.02.406 28.484.258 33.945.105 39.16.254 43.91.645c2.371.195 4.633.449 6.746.761.528.078 1.051.16 1.559.246H50.93z" style="stroke:none;fill-rule:nonzero;fill:#e9e4f1;fill-opacity:1"/><path d="M50.93 9.188v8.421h1.035c-.492.11-.988.22-1.5.32-2.035.419-4.211.786-6.504 1.102-4.586.63-9.633 1.051-14.941 1.196-5.305.144-10.372.003-14.985-.375-2.305-.192-4.5-.442-6.555-.743a125 125 0 0 1-1.515-.238h1.512V2.547h-.45c2.035-.418 4.211-.785 6.504-1.102C18.117.812 23.164.398 28.473.25 33.78.105 38.843.246 43.457.625c2.309.191 4.5.441 6.555.742q.772.116 1.515.238h-.597z" style="stroke:none;fill-rule:nonzero;fill:#e9e6f2;fill-opacity:1"/></g></g><g clip-path="url(#aS)"><g clip-path="url(#aT)"><path d="M50.93 8.914v7.856h1.734q-1.372.332-2.855.636c-1.973.403-4.086.758-6.313 1.067-4.453.613-9.351 1.02-14.504 1.16-5.148.14-10.066.004-14.543-.363a100 100 0 0 1-6.36-.723c-.5-.074-.987-.149-1.472-.23h.86V2.78H6.19q.717-.157 1.457-.308a99 99 0 0 1 6.313-1.067C18.41.793 23.313.386 28.465.246 33.613.102 38.53.242 43.008.61c2.238.184 4.367.426 6.36.72 1 .148 1.96.308 2.89.48H50.93z" style="stroke:none;fill-rule:nonzero;fill:#ebe7f3;fill-opacity:1"/><path d="M50.93 8.648v7.614h.992c-.887.215-1.813.422-2.77.617-1.918.39-3.965.738-6.12 1.035-4.317.594-9.071.988-14.063 1.125-4.996.137-9.762.004-14.106-.355a95 95 0 0 1-6.168-.696 79 79 0 0 1-2.8-.465h1.582V2.7h-.622a99 99 0 0 1 1.415-.3 96 96 0 0 1 6.12-1.036C18.708.77 23.458.375 28.454.238 33.45.102 38.215.234 42.555.59c2.172.18 4.234.414 6.168.7q1.453.214 2.8.464h-.593z" style="stroke:none;fill-rule:nonzero;fill:#ece9f3;fill-opacity:1"/></g></g><g clip-path="url(#aU)"><g clip-path="url(#aV)"><path d="M50.93 8.379v7.375h.246q-1.29.316-2.684.598c-1.855.378-3.84.714-5.93 1.003-4.18.575-8.78.957-13.62 1.09s-9.458.004-13.66-.343a92 92 0 0 1-5.981-.676c-.938-.137-1.84-.29-2.711-.45h.887V2.923h-1.27c.86-.211 1.754-.406 2.684-.598a94 94 0 0 1 5.93-1.004C19 .746 23.6.363 28.44.23c4.84-.132 9.457-.003 13.664.344 2.102.172 4.102.399 5.977.676q1.403.21 2.711.45.652.12 1.281.253H50.93z" style="stroke:none;fill-rule:nonzero;fill:#edeaf4;fill-opacity:1"/></g></g><g clip-path="url(#aW)"><g clip-path="url(#aX)"><path d="M50.93 8.11v6.828h.726q-.596.157-1.222.308c-.832.203-1.7.399-2.598.578a89 89 0 0 1-5.738.973c-4.047.555-8.5.926-13.184 1.05-4.684.13-9.152.008-13.219-.327a89 89 0 0 1-5.785-.657 70 70 0 0 1-2.625-.433h.192V2.828h-.563c.832-.203 1.7-.394 2.594-.578a90 90 0 0 1 5.738-.969c4.047-.558 8.5-.93 13.184-1.054 9.367-.258 17.875.496 24.054 1.921H50.93z" style="stroke:none;fill-rule:nonzero;fill:#efebf5;fill-opacity:1"/><path d="M50.93 7.84v6.285h1.074c-5.89 1.707-14.063 2.883-23.117 3.133-9.055.246-17.278-.48-23.25-1.863h1.84V3.035h-1.04q.579-.153 1.18-.3a68 68 0 0 1 2.512-.56 88 88 0 0 1 5.547-.937C19.59.7 23.895.344 28.422.218c9.05-.245 17.277.481 23.254 1.86h-.746z" style="stroke:none;fill-rule:nonzero;fill:#f0edf5;fill-opacity:1"/></g></g><g clip-path="url(#aY)"><g clip-path="url(#aZ)"><path d="M50.93 7.57v6.07h.25c-5.688 1.645-13.578 2.782-22.32 3.024-8.739.238-16.68-.465-22.45-1.797h1.067V3.234H6.094C11.78 1.59 19.668.454 28.41.214s16.684.462 22.45 1.794c.363.086.714.168 1.058.258h-.988z" style="stroke:none;fill-rule:nonzero;fill:#f2eff6;fill-opacity:1"/><path d="M50.93 7.3v5.235h1.383a35 35 0 0 1-1.958.617c-5.484 1.59-13.09 2.684-21.52 2.918-8.429.23-16.085-.449-21.647-1.734h.289V3.12h-.598C12.363 1.535 19.973.438 28.402.207c8.43-.23 16.082.45 21.645 1.73.7.16 1.36.333 1.988.512H50.93z" style="stroke:none;fill-rule:nonzero;fill:#f3f0f7;fill-opacity:1"/></g></g><g clip-path="url(#ba)"><g clip-path="url(#bb)"><path d="M50.93 7.031v5.043h.484c-.594.207-1.219.403-1.883.594-5.281 1.527-12.605 2.586-20.722 2.805-8.118.226-15.489-.43-20.848-1.664a41 41 0 0 1-1.91-.493h1.426V3.602H5.78a34 34 0 0 1 1.883-.594C12.945 1.477 20.274.422 28.391.199c8.117-.222 15.488.434 20.843 1.668q1.007.234 1.914.492h-.218z" style="stroke:none;fill-rule:nonzero;fill:#f4f1f9;fill-opacity:1"/></g></g><g clip-path="url(#bc)"><g clip-path="url(#bd)"><path d="M50.93 6.762V11h1.199a32 32 0 0 1-3.418 1.184c-5.082 1.468-12.125 2.484-19.93 2.699-7.804.21-14.894-.418-20.047-1.606a36 36 0 0 1-1.836-.472h.579v-9.34H6.64q.856-.299 1.812-.574C13.531 1.42 20.574.406 28.38.195 36.184-.02 43.273.61 48.422 1.797c1.289.297 2.457.629 3.484.992h-.976z" style="stroke:none;fill-rule:nonzero;fill:#f5f3f9;fill-opacity:1"/><path d="M50.93 6.492v4.07h.238a30 30 0 0 1-3.281 1.133c-4.875 1.41-11.637 2.387-19.133 2.594-7.492.203-14.297-.398-19.242-1.543a31 31 0 0 1-3.344-.95h1.309V3.91H5.953a32 32 0 0 1 3.285-1.133c4.875-1.41 11.637-2.382 19.13-2.59 7.495-.207 14.3.399 19.245 1.54 1.235.285 2.356.605 3.34.953h-.023z" style="stroke:none;fill-rule:nonzero;fill:#f5f5fa;fill-opacity:1"/></g></g><g clip-path="url(#be)"><g clip-path="url(#bf)"><path d="M50.93 6.227V8.91h1.648c-1.297.844-3.18 1.625-5.516 2.3-4.671 1.352-11.152 2.286-18.332 2.481-7.183.2-13.703-.379-18.445-1.472a29 29 0 0 1-3.203-.914h.395V3.75h-.602c.926-.387 1.98-.75 3.152-1.086C14.7 1.312 21.176.38 28.36.18c7.18-.196 13.7.383 18.442 1.476 2.367.547 4.293 1.223 5.629 1.996h-1.5z" style="stroke:none;fill-rule:nonzero;fill:#f6f6fa;fill-opacity:1"/><path d="M50.93 5.957v2.566h.582c-1.239.809-3.04 1.555-5.274 2.2-4.468 1.297-10.668 2.187-17.535 2.375-6.871.187-13.11-.364-17.64-1.41-2.266-.524-4.106-1.168-5.387-1.907h1.8V4.156H6.57q.57-.292 1.23-.566a27 27 0 0 1 3.013-1.04C15.28 1.259 21.48.364 28.348.173c6.867-.188 13.105.367 17.64 1.414 2.266.523 4.106 1.168 5.387 1.906h-.445z" style="stroke:none;fill-rule:nonzero;fill:#f7f7fb;fill-opacity:1"/></g></g><g clip-path="url(#bg)"><g clip-path="url(#bh)"><path d="M52.25 5.688c.094 3.406-10.46 6.46-23.574 6.816-6.559.18-12.512-.348-16.84-1.344-2.16-.5-3.918-1.117-5.14-1.824h.78v-4.8h-.913c1.183-.77 2.902-1.485 5.035-2.102C15.863 1.199 21.78.348 28.336.168c13.113-.36 23.82 2.113 23.914 5.52" style="stroke:none;fill-rule:nonzero;fill:#f8f8fc;fill-opacity:1"/></g></g><g clip-path="url(#bi)"><g clip-path="url(#bj)"><path d="M51.098 5.418c.09 3.242-9.961 6.152-22.45 6.492-12.488.344-22.683-2.008-22.773-5.254C5.789 3.41 15.84.504 28.328.16c12.488-.34 22.684 2.012 22.77 5.258" style="stroke:none;fill-rule:nonzero;fill:#f9f9fc;fill-opacity:1"/></g></g><g clip-path="url(#bk)"><g clip-path="url(#bl)"><path d="M49.95 5.148c.085 3.082-9.466 5.844-21.329 6.172-11.863.325-21.547-1.914-21.633-4.996S16.453.48 28.316.156C40.18-.168 49.867 2.066 49.95 5.148" style="stroke:none;fill-rule:nonzero;fill:#f9f8fc;fill-opacity:1"/></g></g><g clip-path="url(#bm)"><g clip-path="url(#bn)"><path d="M48.8 4.879c.083 2.918-8.964 5.539-20.202 5.844-11.243.308-20.418-1.809-20.496-4.73C8.02 3.073 17.066.456 28.305.147 39.547-.16 48.723 1.961 48.8 4.878" style="stroke:none;fill-rule:nonzero;fill:#faf9fc;fill-opacity:1"/></g></g><g clip-path="url(#bo)"><g clip-path="url(#bp)"><path d="M47.652 4.61c.075 2.757-8.468 5.23-19.082 5.519-10.617.293-19.28-1.707-19.36-4.465-.073-2.758 8.47-5.23 19.087-5.52C38.91-.147 47.578 1.853 47.652 4.61" style="stroke:none;fill-rule:nonzero;fill:#fbfafd;fill-opacity:1"/></g></g><g clip-path="url(#bq)"><g clip-path="url(#br)"><path d="M46.504 4.34c.07 2.598-7.973 4.922-17.961 5.195-9.992.274-18.148-1.61-18.219-4.203C10.254 2.734 18.293.41 28.285.137s18.149 1.61 18.219 4.203" style="stroke:none;fill-rule:nonzero;fill:#fbfbfd;fill-opacity:1"/></g></g><g clip-path="url(#bs)"><g clip-path="url(#bt)"><path d="M45.355 4.07c.067 2.434-7.472 4.618-16.84 4.871C19.153 9.2 11.505 7.434 11.439 5S18.906.387 28.273.129 45.29 1.637 45.355 4.07" style="stroke:none;fill-rule:nonzero;fill:#fcfcfe;fill-opacity:1"/></g></g><g clip-path="url(#bu)"><g clip-path="url(#bv)"><path d="M44.207 3.8c.063 2.274-6.977 4.31-15.719 4.548-8.742.242-15.879-1.407-15.941-3.68-.063-2.27 6.976-4.305 15.719-4.543 8.742-.242 15.879 1.406 15.941 3.676" style="stroke:none;fill-rule:nonzero;fill:#fcfcfe;fill-opacity:1"/></g></g><g clip-path="url(#bw)"><g clip-path="url(#bx)"><path d="M43.055 3.531c.058 2.11-6.473 4-14.59 4.223-8.121.223-14.746-1.309-14.805-3.414-.058-2.11 6.477-4 14.594-4.223S43 1.422 43.054 3.531" style="stroke:none;fill-rule:nonzero;fill:#fdfdfe;fill-opacity:1"/></g></g><g clip-path="url(#by)"><g clip-path="url(#bz)"><path d="M41.906 3.266c.055 1.945-5.976 3.687-13.468 3.894-7.493.207-13.61-1.207-13.665-3.152C14.72 2.058 20.75.316 28.243.109c7.491-.203 13.612 1.207 13.663 3.157" style="stroke:none;fill-rule:nonzero;fill:#fefeff;fill-opacity:1"/></g></g><g clip-path="url(#bA)"><g clip-path="url(#bB)"><path d="M40.758 2.996c.047 1.785-5.48 3.383-12.348 3.57-6.867.188-12.476-1.105-12.523-2.89C15.836 1.89 21.363.293 28.23.106c6.872-.188 12.477 1.105 12.528 2.89" style="stroke:none;fill-rule:nonzero;fill:#fefeff;fill-opacity:1"/></g></g><g clip-path="url(#bC)"><g clip-path="url(#bD)"><path d="M39.61 2.727c.042 1.62-4.981 3.074-11.227 3.246-6.242.172-11.344-1.004-11.387-2.63C16.953 1.724 21.98.27 28.223.099c6.242-.172 11.343 1.004 11.386 2.629" style="stroke:none;fill-rule:nonzero;fill:#feffff;fill-opacity:1"/></g></g><g clip-path="url(#bE)"><g clip-path="url(#bF)"><path d="M38.46 2.457c.04 1.457-4.483 2.766-10.105 2.922-5.617.152-10.207-.906-10.246-2.363C18.07 1.555 22.594.246 28.211.094c5.621-.156 10.207.902 10.25 2.363" style="stroke:none;fill-rule:nonzero;fill:#feffff;fill-opacity:1"/></g></g><g clip-path="url(#bG)"><g clip-path="url(#bH)"><path d="M37.309 2.188c.039 1.296-3.985 2.46-8.977 2.597-4.996.137-9.074-.805-9.113-2.101-.035-1.297 3.988-2.461 8.984-2.598 4.992-.137 9.07.805 9.106 2.102" style="stroke:none;fill-rule:nonzero;fill:#fff;fill-opacity:1"/></g></g><g clip-path="url(#bI)"><g clip-path="url(#bJ)"><path d="M36.16 1.918c.031 1.137-3.484 2.152-7.855 2.273-4.371.122-7.942-.703-7.973-1.84C20.301 1.22 23.82.2 28.192.079c4.37-.117 7.94.703 7.968 1.84" style="stroke:none;fill-rule:nonzero;fill:#fff;fill-opacity:1"/></g></g><g clip-path="url(#bK)"><g clip-path="url(#bL)"><path d="M35.012 1.648c.027.973-2.989 1.848-6.735 1.95s-6.804-.606-6.832-1.578S24.434.176 28.18.074c3.746-.105 6.804.602 6.832 1.574" style="stroke:none;fill-rule:nonzero;fill:#fff;fill-opacity:1"/></g></g><g clip-path="url(#bM)"><g clip-path="url(#bN)"><path d="M33.863 1.379c.024.812-2.492 1.539-5.613 1.625S22.578 2.5 22.559 1.69C22.535.88 25.047.152 28.172.066 31.293-.02 33.84.57 33.863 1.38" style="stroke:none;fill-rule:nonzero;fill:#fff;fill-opacity:1"/></g></g><g clip-path="url(#bO)"><g clip-path="url(#bP)"><path d="M32.715 1.11c.015.652-1.992 1.23-4.492 1.3-2.496.067-4.535-.402-4.555-1.05C23.652.71 25.66.128 28.16.058c2.496-.067 4.535.402 4.555 1.05" style="stroke:none;fill-rule:nonzero;fill:#fff;fill-opacity:1"/></g></g><g clip-path="url(#bQ)"><g clip-path="url(#bR)"><path d="M31.566.84c.012.488-1.496.926-3.367.976-1.875.051-3.402-.3-3.418-.789C24.77.54 26.277.105 28.148.051c1.875-.047 3.403.304 3.418.789" style="stroke:none;fill-rule:nonzero;fill:#fff;fill-opacity:1"/></g></g><g clip-path="url(#bS)"><g clip-path="url(#bT)"><path d="M30.418.574c.008.324-1 .614-2.246.649-1.25.03-2.27-.203-2.277-.528-.008-.324.996-.613 2.242-.648 1.25-.035 2.27.2 2.281.527" style="stroke:none;fill-rule:nonzero;fill:#fff;fill-opacity:1"/></g></g><path d="m24.25 35.242 1.828-2.98c-1.55-.778-3.113-1.543-2.902-2.348.125-.465.82-.977.82-.977s1.707-.683 2.785-1.14c1.196-.508 3.047-1.34 3.047-1.34 0 .047-1.289-3.2-2.305-4.973-.886-1.547-2.566-3.812-2.566-3.812L8.477 44.145H19.07l3.532-5.708 17.503.004-1.964-3.199Zm106.805-19.785c0-2.465 2.086-4.062 4.61-4.062 2.155 0 3.765 1.144 4.534 3.02h.363c.293-.974.547-1.946.989-2.849-1.352-1.144-3.473-1.664-5.23-1.664-4.387 0-8.118 2.188-8.118 6.664 0 7.848 11.445 5 11.445 11.457 0 2.743-2.12 5.07-5.082 5.07-2.851 0-4.496-1.39-5.921-3.613h-.368c-.144 1.043-.328 2.086-.695 3.09 1.246 1.285 4.168 2.016 5.961 2.016 4.973 0 9.031-2.95 9.031-7.918 0-7.39-11.52-4.824-11.52-11.211m-15.09 17.914c-4.168 0-5.703-3.68-5.703-7.117 0-3.68 1.386-7.813 6.031-7.813 4.059 0 5.3 4.098 5.3 7.223 0 2.707-1.35 7.707-5.628 7.707m.367-16.004c-5.266 0-9.289 3.367-9.289 8.367-.328 5.278 3.695 8.711 8.629 8.711 6.035 0 9.14-4.199 9.14-8.61 0-5.17-3.472-8.468-8.48-8.468m42.129.207v9.582c0 2.465-.77 5.59-4.5 5.59-3.29 0-4.422-2.152-4.422-5.797v-9.375c-.55.035-.988.106-1.465.106-.512 0-.988-.07-1.46-.106v10.207c0 4.688 2.007 6.668 6.03 6.668 2.563 0 4.645-1.148 5.817-3.265v2.984c.473-.031.95-.102 1.46-.102.477 0 .915.07 1.466.102V17.574c-.551.035-.989.106-1.465.106-.512 0-.988-.07-1.461-.106m16.406-.207c-1.828 0-3.402 1.457-4.61 3.262l-.179.418v-3.473c-.55.035-.988.106-1.465.106-.511 0-.988-.07-1.46-.106v16.594c.472-.035.949-.102 1.46-.102.477 0 .914.067 1.465.102V25.18c0-1.875.07-3.024 1.352-4.41.547-.59 1.535-.868 2.34-.868.62 0 1.167.414 1.718.555l.512-2.918c-.328-.137-.621-.172-1.133-.172M61.742 23.328l5.477-8.894 2.84 8.894Zm6.66-13.445L52.91 34.168c.422-.035.848-.105 1.34-.105.453 0 .86.07 1.383.105 1.554-3.266 3.379-6.324 5.168-9.379h9.601c1.032 3.16 1.883 6.496 2.54 9.379.648-.035 1.3-.105 2.019-.105.64 0 1.234.07 1.95.105L69.27 9.883ZM99.68 20.629l-.18.418v-3.473c-.55.035-.988.106-1.465.106-.512 0-.988-.07-1.46-.106v16.594c.472-.035.948-.102 1.46-.102.477 0 .914.067 1.465.102V25.18c0-1.875.07-3.024 1.352-4.41.546-.59 1.535-.868 2.34-.868.62 0 1.171.414 1.718.555l.512-2.918c-.328-.137-.621-.172-1.133-.172-1.828 0-3.398 1.457-4.61 3.262m-19.688 3.855c.219-2.918 1.719-6.043 5.156-6.043 3.622 0 4.497 3.02 4.57 6.043Zm5.156-7.117c-5.445 0-8.37 3.715-8.37 8.54 0 5.382 3.581 8.542 8.628 8.542 2.23 0 4.496-.836 6.29-2.05l.034-1.805c-.988.902-2.925 2.394-5.41 2.394-4.425 0-6.656-3.332-6.328-7.218h5.156c2.45 0 4.938.03 7.422.101.368-5.797-3.363-8.504-7.422-8.504" style="stroke:none;fill-rule:nonzero;fill:#32937a;fill-opacity:1"/><g clip-path="url(#bU)"><path d="m242.5 231.578 18.281 29.805c-15.508 7.773-31.133 15.43-29.023 23.476 1.25 4.649 8.203 9.766 8.203 9.766s17.07 6.836 27.851 11.406c11.954 5.078 30.47 13.399 30.47 13.399 0-.47-12.891 31.992-23.048 49.726-8.867 15.469-25.664 38.125-25.664 38.125L84.766 142.555h105.937l35.313 57.07 175.039-.04-19.649 31.993ZM1310.547 429.43c0 24.648 20.86 40.625 46.094 40.625 21.562 0 37.656-11.446 45.351-30.196h3.633c2.93 9.727 5.469 19.454 9.883 28.477-13.516 11.445-34.727 16.64-52.305 16.64-43.867 0-81.172-21.874-81.172-66.64 0-78.477 114.453-50 114.453-114.57 0-27.422-21.21-50.704-50.82-50.704-28.516 0-44.96 13.907-59.219 36.133h-3.672c-1.445-10.43-3.28-20.86-6.953-30.898 12.461-12.852 41.68-20.156 59.61-20.156 49.726 0 90.312 29.492 90.312 79.18 0 73.906-115.195 48.241-115.195 112.109Zm-150.899-179.14c-41.68 0-57.03 36.796-57.03 71.17 0 36.798 13.866 78.126 60.312 78.126 40.586 0 53.007-40.977 53.007-72.227 0-27.07-13.515-77.07-56.289-77.07Zm3.672 160.038c-52.656 0-92.89-33.672-92.89-83.672-3.282-52.773 36.953-87.11 86.289-87.11 60.351 0 91.406 41.993 91.406 86.095 0 51.718-34.727 84.687-84.805 84.687Zm421.29-2.07v-95.82c0-24.649-7.696-55.899-45-55.899-32.891 0-44.22 21.524-44.22 57.969v93.75c-5.507-.352-9.882-1.055-14.648-1.055-5.117 0-9.883.703-14.61 1.055v-102.07c0-46.875 20.079-66.68 60.313-66.68 25.625 0 46.446 11.484 58.164 32.656V242.32c4.727.313 9.493 1.016 14.61 1.016 4.765 0 9.14-.703 14.648-1.016v165.938c-5.508-.352-9.883-1.055-14.648-1.055-5.117 0-9.883.703-14.61 1.055Zm164.062 2.07c-18.281 0-34.024-14.57-46.094-32.617l-1.797-4.18v34.727c-5.508-.352-9.883-1.055-14.648-1.055-5.117 0-9.883.703-14.61 1.055V242.32c4.727.352 9.493 1.016 14.61 1.016 4.765 0 9.14-.664 14.648-1.016v89.883c0 18.75.703 30.235 13.516 44.102 5.469 5.898 15.351 8.672 23.398 8.672 6.211 0 11.68-4.141 17.188-5.547l5.117 29.18c-3.281 1.367-6.21 1.718-11.328 1.718Zm-1131.25-59.61 54.765 88.946 28.399-88.945Zm66.601 134.454L529.102 242.32c4.218.352 8.476 1.055 13.398 1.055 4.531 0 8.594-.703 13.828-1.055 15.547 32.657 33.79 63.243 51.68 93.79h96.015c10.313-31.602 18.829-64.962 25.391-93.79 6.484.352 13.008 1.055 20.195 1.055 6.407 0 12.344-.703 19.493-1.055l-76.407 242.852ZM996.797 377.71 995 373.53v34.727c-5.508-.352-9.883-1.055-14.648-1.055-5.118 0-9.883.703-14.61 1.055V242.32c4.727.352 9.492 1.016 14.61 1.016 4.765 0 9.14-.664 14.648-1.016v89.883c0 18.75.703 30.235 13.516 44.102 5.468 5.898 15.351 8.672 23.398 8.672 6.211 0 11.719-4.141 17.188-5.547l5.117 29.18c-3.282 1.367-6.211 1.718-11.328 1.718-18.282 0-33.985-14.57-46.094-32.617Zm-196.875-38.555c2.187 29.18 17.187 60.43 51.562 60.43 36.211 0 44.961-30.195 45.703-60.43Zm51.562 71.172c-54.453 0-83.71-37.148-83.71-85.39 0-53.829 35.82-85.43 86.289-85.43 22.304 0 44.96 8.36 62.89 20.508l.352 18.046c-9.883-9.023-29.258-23.945-54.102-23.945-44.258 0-66.562 33.32-63.281 72.188h51.562c24.493 0 49.375-.313 74.22-1.016 3.671 57.969-33.634 85.04-74.22 85.04Zm0 0" style="fill:none;stroke-width:9.811;stroke-linecap:butt;stroke-linejoin:miter;stroke:#32937a;stroke-opacity:1;stroke-miterlimit:3.8637" transform="matrix(.1 0 0 -.1 0 58.4)"/></g><path d="M27.586 31.516h-.012s0 .047.012 0M16.758 9.786a.5.5 0 0 0 .164.12l-.406-.386c.054.054.16.156.242.265m-.242-.266-.043-.04ZM43.957 43.94c-.187-.129-.234-.39-.234-.39s.07-.477-.024-.61c-.094-.129-.308-.148-.285-.257s.023-.286.023-.286-.304-.086-.187-.171.164-.305.164-.305-.07 0-.14-.258c-.07-.262-.024-.676-.024-.676l-.281.043s-.051.305-.215.305-.215.086-.215.086.145.11.121.262a.5.5 0 0 0 .047.28s.238.09.309.349c.07.261.187.39.187.39s-.094.133-.117.348c-.023.219.094.219.094.219s.07-.348.187-.196c.117.153.094.367.094.367s-.117 0-.094.196c.024.195 0 .781.309.87.304.087.543-.585.543-.585s-.07.152-.262.02m5.906-.117c.098-.105.215-.129.215-.367s-.047-.215-.164-.5c-.121-.281-.121-.305-.023-.605.093-.305-.098-.653-.192-.72-.094-.062-.426.067-.426-.085s.145-.434-.046-.5c-.188-.063-.684-.043-.684-.043s-.14.434-.285.414c-.14-.023-.328-.39-.328-.48 0-.086-.45-.672-.309-.758.145-.09.356.11.426.258.07.152.21.195.21.046 0-.152-.163-.48-.187-.632-.023-.149-.355-.586-.355-.586l-.258-.715s-.355-.414-.215-.543c.145-.13.285-.41.285-.41s.094-.153.188-.067.215.172.168 0c-.047-.176-.094-.5-.38-.457-.284.043-.495.11-.542 0s-.07-.367.117-.238c.188.129.45.262.379.023-.07-.242-.45-.414-.64-.632-.188-.215-.493-.63-.282-.586.211.043.38.39.473.195.094-.195-.094-.61-.235-.715-.144-.11-.402-.281-.402-.281l-.734-1.285-1.11-1.582-.847-1.13-1.207-1.366-1.512-1.305-1.04-1.3-.776-.74s-.497-.37-.38-.5c.118-.132-.023-.175-.023-.175l.14-.129.45-.414.355-.453s.165-.195.47-.262c.308-.066.167-.195.448-.219.286-.02.149-.125.497-.105.425.02.261.063.472.129.215.066.356.129.52.281.168.152.402.328.52.434.116.11.261.133.261.133s.016-.125-.031-.32c-.047-.196-.16-.266-.254-.4-.094-.128-.211-.195-.258-.28s-.05-.149-.05-.149-.09-.176.144-.285c.234-.11.238-.195.238-.195s-.074-.196-.309-.457c-.238-.258-.59-.63-.734-.672-.14-.043-.566-.282-.754-.324-.191-.047-.687-.176-.851-.196-.164-.023-.707-.066-.852-.043-.14.02.027-.09-.187-.199-.211-.105-.235-.195-.543-.195-.305 0-.426.023-.852.133-.422.109-.566.062-.707.195-.14.129-.402.348-.52.215-.117-.13-.238-.239-.187-.52.047-.281-.191-.543-.332-.89-.14-.348-.188-.672-.426-1.043-.234-.368-.379-.454-.445-.649-.074-.195.047-.547-.074-.785-.118-.238-.305-.54-.45-.8-.14-.263-.328-.673-.492-.891-.168-.22-.57-.848-.898-1.325-.332-.476-.852-1.367-1.133-1.629-.285-.257-.781-.976-1.086-1.3-.309-.328-.496-.653-.828-.957-.332-.301-1.324-1.172-1.324-1.172l-1.32-1-1.133-.801s-.707-.152-.899-.195c-.187-.043-.492-.285-.492-.285l-.285.042.047.352s-.707-.305-.946-.176c-.234.13-.234.176-.234.176s.117.496.023.648c-.093.153-.828-.128-.945-.043s-.164.305-.164.305.566.11.426.281c-.145.176-.38.176-.38.176l-.073.301-.399-.281-.117.304-.332-.171-.07.238s-.07-.262-.285-.262c-.211 0-.258.086-.258.086s.047.305-.14.238c-.192-.062-.474-.496-.474-.496s.024-.086.165-.047c.14.047.214.024.214.024s-.402-.695-.617-.543c-.21.152-.328.453-.328.453s.07.219.188.457.945 1 .945 1l-.945-.629-.165.11-.285-.372-.187.371-.781-.414-.118.239s-.308-.02-.425-.305c-.118-.281-.45-.434-.66-.457-.211-.02-.188-.195-.211-.344-.028-.152-.168-.176-.168-.176s0 .61.191.762c.187.152.375.324.375.324l-.305.086.305.438s-.297-.11-.496-.227l.637.617 1.347.977.852.715 1.086.914.875.89.777.844 1.016 1.153 1.226 1.543.828 1.191.614 1.066.71 1.325.637 1.257 1.086 2.106.614 1.238s.187.11.07.281a4 4 0 0 1-.235.305l-1.867.848-2.218.976-1.016.563-.613-.043.164.238-1.04.11.262.152s-.449-.133-.664.043c-.21.172-.117.262-.117.262l.781.105-1.136.133s.07.305.238.238c.164-.066.21-.02.21-.02l.048.13.144-.086h.282l-.07.324s.26-.086.402-.024c.14.067-.215.153-.215.153l.425.152.141.195.922-.02-.023.106h.66s-.047.196-.14.438c-.095.238 0 .39 0 .39s.804-.109.71-.285c-.098-.172-.426.086-.426-.043S25 31.04 25 31.04l1.418-.285-.922.48s-.023.172.211.258c.238.09.496-.043.496-.043s-.375-.043-.258-.152c.117-.106.258-.172.258-.172s.309-.043.332.172c.024.219.07.348.309.371.234.02.422-.348.422-.348s.12-.39-.024-.39c-.14 0 .473-.22.403.261-.032.2-.047.286-.06.32l.438-.062-.027.414.453-.285s.281-.215.52.047c.234.258.093.238.093.238s-.144.367-.308.39c-.164.02-.352-.194-.352-.194s-.496-.067-.593.086c-.094.152.097.347.097.347s0-.262.188-.176c.187.09.187.348.187.348s.168.242.403.242c.234 0 .828-.261.828-.261s-.075.5-.567.52c-.496.023-.425-.044-.379.175.047.215.543.238.543.238s-.164-.219.094-.219c.262 0 1.156-.062 1.25-.367.094-.304.094-.347-.094-.39-.187-.043-.425-.067-.425-.067l.472-.195.567-.172 1.062-.11 1.656-1.019 1.723 1.496 1.606 1.563 1.109 1.261s.07-.37.07-.437c0-.063.215-.043.403.152.187.196.449.5.449.5s.187-.086.117-.258c-.07-.175.117-.175.117-.175l.028-.305-.57-.41s-.141-.239.12-.219c.258.023.66.086.66.086l1.297 1.262 1.016 1.41.687 1 .426.324.235.39.968 1.477.094.434-.355-.477-.403-.758s-.21-.542-.351-.437c-.14.11.187.762.187.762s.262.347.309.566c.047.215 0 .434 0 .434l.21.152s.239.605.141.691c-.093.09-.375-.28-.375-.28s-.191.218-.093.413c.093.196.351.41.304.563s-.14.285-.023.39c.117.11.332.239.258.348-.07.11-.043.371.097.348.141-.02.094-.282.282-.153.191.133.285.196.261.348s.258.305.07.39c-.19.087-.378.196-.285.544.098.347-.07.457.168.5.235.043.024-.282.211-.172.188.105-.023.347.239.347.257 0 .304.063.351-.152.047-.219-.07-.434.121-.39.188.042.14.39.282.257.14-.129.168-.476.07-.586-.094-.11-.234-.261-.305-.5-.074-.238-.262-.562-.023-.543a.51.51 0 0 1 .445.395c.05.195 0 .41.191.52.188.109.211.019.258.367.047.347.024.37.262.566.234.195.234.324.52.477.28.152.234.085.28-.024.048-.105-.116-.781.028-.715q.21.1.281.39c.047.196.047.524.258.587.215.066.309.219.45.11.14-.11.07-.11.285-.282.21-.176.402-.5.402-.5s-.05.129.281.152c.328.024.188-.238.356-.37.164-.13.14-.13.304-.24.168-.105.239-.171.145-.39-.098-.215-.57-.304-.477-.414m-24.3-11.629c-.235.09-.426.11-.426.11l-.094-.172s-.14-.043-.14.11c0 .148.07.366.07.366s.187.282.328.176c.144-.11.332-.09.332-.09l.164-.086.07.11v-.282c.004-.003-.07-.328-.305-.242m14.996 5.883-.286-.062s-.304.086-.093.261c.215.172.308.13.308.13l.328.452s-.07-.129-.093-.386a.64.64 0 0 0-.164-.395m-.215-.562a.44.44 0 0 0 .332-.153s.07 0 .187-.238.117-.457.117-.457-.445.39-.515.285a1.7 1.7 0 0 1-.145-.305l-.14.106-.117-.281s-.075 0-.118-.172a1.1 1.1 0 0 0-.144-.305s-.38.324-.235.543c.141.215.403.39.403.39l.117.262s.047.325.258.325m2.597 3.343c.121-.195.047-.39.047-.39s-.164.11-.258 0c-.093-.11-.14-.434-.14-.434s.023-.238.21-.195c.177.039-.155-.348-.202-.403.035.04.144.196-.078.274-.262.086-.426.02-.426.02s-.047.109.07.39.234.11.234.11-.187.562-.023.695c.164.129.45.129.566-.067m-1.511-2.453c-.024.13.144-.129.144-.129s-.168-.347-.308-.37c-.141-.02-.164-.259-.164-.259s-.094-.156-.215-.132c-.117.023-.282.066-.282.066s.024.543.305.605c.285.067.309 0 .309 0s.238.09.21.22m.664.586.047-.238-.215-.043s-.024.105-.188.172-.402.176-.402.176.262-.09.402.105.14.328.14.328 0 .13.192-.133c.188-.257.024-.367.024-.367m64.55 1.563c.426 0 .75.36.75.746h.262q.18-.394.39-.781c-.323-.282-.816-.422-1.288-.422-.238 0-.617.097-.852.187a1.64 1.64 0 0 0-1.07 1.23c-.094.462.066.938.48 1.126.149.062.293.144.442.214.273.137.922.344.844.73-.028.134-.176.306-.305.388a.96.96 0 0 1-.531.132c-.512 0-.852-.285-.93-.738h-.238q-.142.433-.313.848c.336.25.766.367 1.23.367.426 0 .829-.062 1.235-.285.48-.27.79-.656.89-1.145.188-.925-.402-1.152-1.117-1.449-.277-.117-.761-.258-.683-.637.074-.367.465-.511.805-.511m-3.902 1.113a4 4 0 0 1-.055.453c-.066.324-.23.906-.37 1.211-.188.414-.458.902-1 .902-.825 0-.641-1.222-.524-1.8a9 9 0 0 1 .18-.684c.148-.504.527-1.277 1.18-1.277.624 0 .644.738.59 1.195m-.566-1.582c-.586 0-1.332.254-1.813.664a3 3 0 0 0-.988 1.71c-.273 1.333.457 2.169 1.86 2.169 1.488 0 2.546-1 2.828-2.367.113-.567.039-1.16-.286-1.582-.32-.422-1.023-.594-1.601-.594m-4.531-1.844c-.95 0-2 .223-2.852.828-.969.692-1.402 1.528-1.613 2.555-.137.664-.078 1.25.23 1.781.137.223.34.477.555.637.207.145.695.387.95.441.444.09.741.137 1.214.137.637 0 1.332-.11 1.957-.387l.363-.765-.113-.047c-.504.379-1.246.668-1.832.668-.656 0-1.254-.27-1.55-.766-.31-.52-.317-1.187-.184-1.824.265-1.305 1.195-2.7 2.77-2.7.616 0 1.155.313 1.41.79h.132c.14-.305.258-.61.406-.918-.492-.277-1.218-.43-1.843-.43m64.953 3.426a4 4 0 0 1-.055.453c-.066.324-.234.906-.371 1.211-.192.414-.461.902-1 .902-.824 0-.64-1.222-.524-1.8.047-.227.114-.457.18-.684.149-.504.527-1.277 1.18-1.277.625 0 .644.738.59 1.195m-.567-1.582c-.59 0-1.332.254-1.812.664-.555.469-.86 1.082-.989 1.71-.273 1.333.458 2.169 1.86 2.169 1.488 0 2.547-1 2.824-2.367.117-.567.04-1.16-.281-1.582-.32-.422-1.024-.594-1.602-.594m-51.05-1.422-.086-.043c-.465.195-.934.387-1.41.547-.063.36-.11.73-.184 1.082h-.664l-.02.09a1.8 1.8 0 0 1-.074.367h.664c-.062.352-.152.691-.23 1.043-.118.477-.247.953-.34 1.422-.172.836-.024 1.41.96 1.41.294 0 .653-.078.954-.168.023-.02.054-.02.074-.039l.074-.348q-.066.025-.125.051c-.761.156-.77-.18-.68-.754.036-.215.067-.43.114-.648.137-.656.297-1.313.46-1.969h.833l.094-.457h-.832c.105-.523.261-1.055.417-1.586m20.753 2.637.246-1.106c-.222.016-.433.035-.652.035-.21 0-.414-.02-.617-.035a35 35 0 0 1-.363 2.032c-.153.757-.309 1.52-.52 2.277.227-.012.453-.047.68-.047.23 0 .46.027.683.047.059-.524.16-1.063.27-1.586.059-.285.129-.781.27-1.043.19-.387.578-.594.992-.594.152 0 .355.04.46.117l.102-.07c.035-.191.067-.379.106-.566.043-.215.117-.434.187-.649-.793-.11-1.453.532-1.844 1.188m-3.812 1.043c-.074.379-.164.722-.356 1.09-.066.152-.171.34-.293.468-.156.153-.43.293-.632.293-.84 0-.57-1.273-.457-1.824.113-.566.406-1.719 1.242-1.719.832 0 .61 1.133.496 1.692m0-2.266c-.531 0-1.082.29-1.418.727.066-.285.148-.582.207-.871.078-.38.164-.766.254-1.145.035-.168.078-.34.113-.512l.137-.566c-.246.027-.488.055-.723.055-.23 0-.449-.028-.664-.055a21 21 0 0 1-.289 1.7q-.177.837-.355 1.675c-.125.617-.254 1.25-.391 1.871-.117.52-.234 1.043-.379 1.563h.211c.3-.18.605-.368.922-.532.191.414.668.633 1.172.633.633 0 1.242-.242 1.742-.703.5-.45.773-1.133.89-1.707.22-1.063-.187-2.133-1.43-2.133m-39.879 2.977c-.094.449-.316.945-.895.945-.406 0-.449-.352-.382-.684.058-.289.171-.55.457-.738.183-.117.402-.16.605-.234a6 6 0 0 0 .41-.153c-.078.29-.136.575-.195.864m.129-2.942c-.598 0-1.352.215-1.879.602l.016.539h.066c.035-.035.09-.07.125-.106.344-.246.746-.406 1.137-.406.433 0 .816.317.726.746-.027.137-.058.254-.191.344-.234.125-.492.18-.742.234-.438.098-.809.16-1.243.38-.402.195-.69.59-.769.988-.16.773.336 1.175 1.113 1.175.492 0 1.016-.242 1.344-.644.074.387.363.637.809.637.132 0 .27-.028.41-.055.164-.05.332-.098.492-.18l.016-.09c.05-.234.003-.062-.29-.152-.113-.055-.167-.254-.152-.379q.044-.253.098-.512c.09-.441.207-.87.297-1.312.039-.2.074-.406.113-.606.164-.89-.7-1.203-1.496-1.203m26.824.082c-.129.672-.23 1.348-.367 2.024-.117.566-.293 1.617-1.156 1.617-.332 0-.512-.188-.578-.469-.055-.187.007-.539.05-.742.164-.812.34-1.621.594-2.43-.223.016-.437.035-.652.035-.258 0-.5-.02-.754-.035-.031.16-.055.313-.086.477-.133.656-.277 1.305-.414 1.96-.09.45-.25 1.009-.04 1.395.208.387.677.555 1.16.555.661 0 1.052-.285 1.571-.734l-.164.656c.203-.02.418-.047.617-.047.239 0 .465.04.703.047l.028-.18c.05-.406.117-.812.199-1.207l.094-.457c.097-.476.203-.953.312-1.441q.105-.512.25-1.024c-.234.016-.465.035-.691.035-.227 0-.453-.02-.676-.035m7.8-.11c-.624 0-1.183.36-1.612.837-.09-.54-.493-.824-1.09-.824-.551 0-1.188.332-1.57.761l.183-.664c-.23.016-.453.035-.68.035a5 5 0 0 1-.562-.027l-.086-.008c-.102.594-.203 1.18-.324 1.774-.172.843-.375 1.687-.555 2.535.219-.008.453-.047.672-.047.226 0 .457.027.683.047.122-.691.227-1.387.368-2.078.035-.172.078-.332.12-.504.122-.496.337-1.078.989-1.078.563 0 .586.484.527.91a7 7 0 0 1-.105.637c-.14.703-.336 1.41-.527 2.113.23-.008.476-.043.703-.043s.437.035.664.043c.125-.656.23-1.313.363-1.961.05-.242.11-.484.164-.719.07-.289.078-.414.3-.676a.94.94 0 0 1 .704-.332c.41 0 .582.313.559.664-.012.227-.07.516-.118.739-.125.613-.285 1.222-.421 1.824-.028.156-.07.309-.11.46.23-.019.465-.046.692-.046.187 0 .382.02.57.04l.082.007c.094-.461.18-.918.273-1.379.098-.484.207-.96.305-1.445.09-.442.11-.856-.152-1.188-.227-.289-.602-.406-1.008-.406m21.356 2.204c-.117.566-.464 1.754-1.277 1.754-.77 0-.602-1.133-.496-1.652.117-.57.445-1.711 1.262-1.711.757 0 .617 1.09.511 1.61m1.536-4.523c-.192 0-.387-.008-.575-.028l-.129-.008q-.087.633-.214 1.266c-.063.352-.122.695-.192 1.035-.05.242-.11.477-.144.711-.18-.469-.598-.656-1.157-.656-.53 0-1.144.305-1.53.719-.454.496-.645.98-.767 1.558-.238 1.16.004 2.258 1.407 2.258.625 0 1.168-.344 1.515-.875-.05.254-.152.504-.222.758.222-.012.445-.047.664-.047.172 0 .347.02.504.035l.132.012c.07-.543.16-1.07.274-1.61q.27-1.321.562-2.656c.11-.547.239-1.086.371-1.636q.103-.444.22-.872c-.243.016-.485.036-.72.036M83.84 40.098c-.59 0-1.149.328-1.598.754l.164-.657c-.21.016-.418.035-.625.035-.234 0-.46-.02-.691-.035l-.028.18c-.074.387-.109.762-.19 1.148-.024.122-.048.235-.075.364-.07.34-.149.683-.219 1.023-.078.38-.172.746-.25 1.125-.031.153-.09.317-.125.469.23-.008.465-.047.695-.047.227 0 .446.04.672.047.13-.676.227-1.352.368-2.024.117-.566.285-1.62 1.156-1.62.816 0 .59.917.476 1.456-.043.227-.101.45-.144.676-.082.352-.164.692-.262 1.043-.043.153-.094.317-.137.469.223-.008.438-.047.657-.047.254 0 .496.027.75.047.101-.496.195-1 .293-1.492.078-.371.16-.73.238-1.098.094-.46.222-.957-.047-1.316-.258-.34-.586-.5-1.078-.5m-24.23 2.957c-.09.449-.317.945-.895.945-.406 0-.45-.352-.38-.684.06-.289.169-.55.454-.738.184-.117.402-.16.61-.234.128-.043.273-.098.406-.153-.075.29-.137.575-.196.864m.128-2.942c-.597 0-1.351.215-1.875.602l.012.539h.066c.036-.035.09-.07.125-.106.344-.246.75-.406 1.137-.406.438 0 .817.317.727.746-.028.137-.059.254-.192.344-.234.125-.492.18-.742.234-.434.098-.809.16-1.238.38-.403.195-.692.59-.774.988-.156.773.336 1.175 1.114 1.175.496 0 1.015-.242 1.347-.644.07.387.36.637.805.637.133 0 .273-.028.41-.055.164-.05.332-.098.492-.18l.02-.09c.047-.234.004-.062-.293-.152-.11-.055-.164-.254-.149-.379.024-.168.06-.34.094-.512.09-.441.207-.87.297-1.312.043-.2.074-.406.113-.606.164-.89-.699-1.203-1.496-1.203m113.957 1.188.25-1.106c-.222.016-.437.035-.652.035-.211 0-.414-.02-.621-.035a39 39 0 0 1-.356 2.032c-.156.757-.316 1.52-.527 2.277.23-.012.457-.047.684-.047.226 0 .46.027.683.047.059-.524.16-1.063.266-1.586.062-.285.133-.781.273-1.043.192-.387.575-.594.993-.594.152 0 .351.04.46.117l.098-.07c.04-.191.07-.379.106-.566.046-.215.117-.434.191-.649-.793-.11-1.453.532-1.848 1.188m-24.445.422c.004.07-.027.136-.023.207h-1.47c.138-.477.407-1.465 1.098-1.465.567 0 .461.879.395 1.258m-.324-1.645c-1.375 0-2.36.918-2.617 2.176-.125.601-.137 1.223.203 1.684.402.546.941.683 1.691.683.465 0 1.008-.152 1.438-.406l.312-.504-.098-.082c-.34.234-.804.406-1.19.406-.333 0-.575-.062-.786-.277-.176-.172-.309-.621-.277-.883.015-.172.043-.34.066-.512h2.73c.372-1.289.016-2.285-1.472-2.285m18.144-1.988c.024-.13.078-.254.106-.38a5 5 0 0 1-.738.048c-.239 0-.473-.012-.704-.047-.02.152-.023.305-.054.457-.063.352-.114.695-.188 1.047-.097.484-.18.98-.281 1.472-.074.372-.149.731-.227 1.098q-.06.31-.125.621c-.152.703-.297 1.403-.496 2.098.242-.02.492-.047.73-.047.239 0 .477.027.712.047.203-1.324.457-2.645.726-3.969.098-.484.219-.98.32-1.465.067-.324.153-.656.22-.98m2.422 4.965c-.094.449-.316.945-.894.945-.41 0-.45-.352-.383-.684.058-.289.168-.55.453-.738.187-.117.402-.16.61-.234a7 7 0 0 0 .41-.153c-.079.29-.137.575-.196.864m.13-2.942c-.602 0-1.352.215-1.88.602l.012.539h.066c.035-.035.09-.07.13-.106.343-.246.745-.406 1.132-.406.438 0 .82.317.73.746-.027.137-.062.254-.19.344-.24.125-.493.18-.743.234-.438.098-.813.16-1.242.38-.403.195-.692.59-.774.988-.156.773.34 1.175 1.117 1.175.493 0 1.016-.242 1.344-.644.074.387.363.637.809.637.133 0 .27-.028.406-.055.164-.05.336-.098.492-.18l.02-.09c.047-.234.004-.062-.29-.152-.113-.055-.167-.254-.152-.379q.044-.253.098-.512c.09-.441.207-.87.297-1.312.039-.2.074-.406.113-.606.164-.89-.703-1.203-1.496-1.203m-115.509 3.73c.078-.374.137-.753.211-1.128l.352-1.703c.07-.352.14-.7.222-1.051.122-.54.278-1.07.407-1.613-.258.02-.532.047-.785.047-.258 0-.508-.028-.758-.047l-.028.172c-.117.667-.214 1.324-.351 1.988-.074.36-.156.719-.227 1.078a49 49 0 0 1-.683 2.918c.265-.02.523-.027.793-.027.425 0 .859-.04 1.293-.028l1.59.055c0-.129.015-.262.042-.39.024-.126.063-.259.118-.384-.559.043-1.118.09-1.68.098Zm14.418-3.98a1.48 1.48 0 0 1-.601.934c-.383.25-.73.242-1.125.223.062-.313.117-.618.18-.934.085-.406.187-.809.288-1.215.157-.027.301-.035.454-.035.285 0 .488.07.668.242.152.145.18.567.136.785m-.527 2.942c-.059.277-.211.554-.418.789a1.21 1.21 0 0 1-.926.394 9 9 0 0 1-.46-.015c.077-.38.136-.754.21-1.133.09-.434.18-.863.278-1.297 1.035-.11 1.519.27 1.316 1.262m.363-4.453c-.457 0-.918.015-1.37.015q-.528 0-1.067-.027c-.137.82-.258 1.64-.426 2.45-.168.827-.356 1.644-.543 2.472-.094.414-.188.828-.328 1.242.273-.008.555-.027.828-.027.465 0 .922.027 1.387.027.172 0 .476-.008.644-.047.434-.078.895-.207 1.262-.512.39-.332.656-.754.75-1.207.094-.457.008-.773-.3-1.078a1.62 1.62 0 0 0-1.102-.406l.015-.078c.828-.11 1.676-.594 1.852-1.442.215-1.05-.645-1.382-1.602-1.382m10.332 3.37c.004.071-.027.137-.023.208h-1.469c.137-.477.402-1.465 1.098-1.465.566 0 .465.879.394 1.258m-.324-1.644c-1.375 0-2.36.918-2.617 2.176-.125.601-.137 1.223.203 1.684.402.546.941.683 1.691.683.465 0 1.008-.152 1.438-.406l.312-.504-.097-.082c-.344.234-.801.406-1.192.406-.332 0-.574-.062-.785-.277-.176-.172-.308-.621-.277-.883.015-.172.043-.34.066-.512h2.73c.368-1.289.012-2.285-1.472-2.285m81.059-1.71c-.036-.009-.063-.009-.098-.016-.836 1.52-1.754 3.003-2.7 4.476-.265-1.492-.609-2.957-.769-4.476-.281.023-.57.043-.844.043-.277 0-.554-.028-.824-.043.477 2.066.91 4.101 1.278 6.152.14-.027.293-.047.437-.047.14 0 .277.027.406.047 1.196-2.07 2.535-4.086 3.868-6.152a2.5 2.5 0 0 1-.754.015m-22.825 3.355c.004.07-.027.136-.023.207h-1.469c.137-.477.406-1.465 1.098-1.465.57 0 .465.879.394 1.258m-.324-1.645c-1.375 0-2.36.918-2.617 2.176-.125.601-.137 1.223.207 1.684.398.546.938.683 1.688.683.464 0 1.007-.152 1.437-.406l.313-.504-.098-.082c-.34.234-.8.406-1.192.406-.332 0-.574-.062-.785-.277-.175-.172-.308-.621-.277-.883.016-.172.043-.34.07-.512h2.727c.37-1.289.015-2.285-1.473-2.285m-62.36.117c-.128.672-.226 1.348-.366 2.024-.114.566-.293 1.617-1.157 1.617-.332 0-.511-.188-.574-.469-.058-.187.004-.539.047-.742a25 25 0 0 1 .594-2.43c-.223.016-.438.035-.653.035-.257 0-.5-.02-.75-.035-.035.16-.058.313-.09.477-.132.656-.277 1.305-.41 1.96-.093.45-.254 1.009-.039 1.395.203.387.672.555 1.157.555.66 0 1.05-.285 1.57-.734l-.164.656c.203-.02.418-.047.617-.047.238 0 .465.04.703.047l.028-.18c.05-.406.117-.812.199-1.207l.093-.457c.098-.476.204-.953.313-1.441q.104-.512.25-1.024c-.234.016-.465.035-.691.035-.227 0-.45-.02-.676-.035" style="stroke:none;fill-rule:nonzero;fill:#821c89;fill-opacity:1"/></svg>