<?xml version="1.0" encoding="UTF-8"?>
<svg xmlns="http://www.w3.org/2000/svg" xmlns:xlink="http://www.w3.org/1999/xlink" width="176pt" height="47.13pt" viewBox="0 0 176 47.13" version="1.1">
<defs>
<clipPath id="clip1">
  <path d="M 0 0 L 176 0 L 176 47.128906 L 0 47.128906 Z M 0 0 "/>
</clipPath>
<clipPath id="clip2">
  <path d="M 79 17 L 168 17 L 168 47.128906 L 79 47.128906 Z M 79 17 "/>
</clipPath>
</defs>
<g id="surface1">
<g clip-path="url(#clip1)" clip-rule="nonzero">
<path style=" stroke:none;fill-rule:nonzero;fill:rgb(24.104309%,17.880249%,53.018188%);fill-opacity:1;" d="M 175.726562 0.160156 C 175.519531 -0.00390625 175.230469 -0.046875 174.980469 0.0625 L 151.265625 15.160156 C 151.085938 15.242188 150.976562 15.4375 150.988281 15.628906 C 150.988281 15.820312 151.085938 16 151.167969 16.191406 L 167.28125 29.351562 C 167.460938 29.542969 167.75 29.542969 167.929688 29.542969 C 168.121094 29.449219 168.300781 29.351562 168.300781 29.074219 L 171.078125 18.707031 C 171.175781 18.335938 171.175781 17.964844 170.898438 17.59375 C 170.71875 17.25 170.363281 17.03125 169.976562 17.042969 L 160.433594 15.835938 C 160.339844 15.835938 160.257812 15.738281 160.257812 15.640625 C 160.257812 15.546875 160.351562 15.464844 160.433594 15.464844 L 170.527344 14.445312 C 171.078125 14.445312 171.546875 14.265625 171.914062 13.894531 C 172.285156 13.523438 172.5625 13.058594 172.753906 12.507812 L 176 0.804688 C 176 0.53125 175.902344 0.351562 175.726562 0.160156 M 66.605469 32.773438 L 66.605469 30.273438 C 66.617188 30.039062 66.441406 29.820312 66.207031 29.804688 C 66.191406 29.804688 66.164062 29.804688 66.152344 29.804688 L 64.859375 29.804688 C 63.085938 29.777344 61.367188 30.480469 60.128906 31.742188 C 58.851562 32.980469 58.148438 34.6875 58.175781 36.460938 L 58.175781 46.277344 C 58.175781 46.550781 58.273438 46.648438 58.546875 46.648438 L 61.972656 46.648438 C 62.246094 46.648438 62.34375 46.550781 62.34375 46.277344 L 62.34375 36.925781 C 62.34375 34.699219 63.636719 33.503906 66.234375 33.132812 C 66.507812 33.230469 66.605469 33.050781 66.605469 32.773438 M 69.933594 25.542969 C 69.65625 25.542969 69.5625 25.636719 69.5625 25.914062 L 69.5625 41.65625 C 69.5625 45.273438 71.144531 47.035156 74.289062 47.035156 C 75.128906 47.035156 75.871094 46.9375 76.519531 46.664062 C 76.699219 46.566406 76.792969 46.46875 76.792969 46.292969 L 76.792969 43.609375 C 76.792969 43.515625 76.699219 43.429688 76.601562 43.335938 C 76.503906 43.238281 76.328125 43.238281 76.230469 43.238281 C 76.050781 43.335938 75.859375 43.335938 75.488281 43.335938 C 74.195312 43.335938 73.546875 42.6875 73.546875 41.480469 L 73.546875 33.144531 L 76.328125 33.144531 C 76.601562 33.144531 76.699219 33.050781 76.699219 32.773438 L 76.699219 30.464844 C 76.699219 30.191406 76.601562 29.996094 76.328125 29.996094 L 73.546875 29.996094 L 73.546875 26.011719 C 73.546875 25.734375 73.453125 25.636719 73.175781 25.636719 L 69.933594 25.636719 M 36.589844 31.015625 C 35.570312 29.996094 34.085938 29.433594 32.230469 29.433594 C 31.117188 29.433594 30.003906 29.613281 28.890625 29.984375 C 27.96875 30.257812 27.226562 30.628906 26.578125 31.195312 C 25.367188 29.984375 23.609375 29.433594 21.203125 29.433594 C 19.265625 29.433594 17.503906 29.707031 15.828125 30.273438 C 15.179688 30.546875 14.90625 31.015625 14.90625 31.566406 L 14.90625 46.195312 C 14.90625 46.46875 15 46.566406 15.277344 46.566406 L 18.699219 46.566406 C 18.976562 46.566406 19.070312 46.46875 19.070312 46.195312 L 19.070312 33.230469 C 19.8125 32.953125 20.640625 32.859375 21.382812 32.859375 C 22.300781 32.859375 22.960938 33.050781 23.511719 33.503906 C 24.0625 33.972656 24.253906 34.519531 24.253906 35.265625 L 24.253906 46.292969 C 24.253906 46.566406 24.351562 46.664062 24.625 46.664062 L 28.050781 46.664062 C 28.324219 46.664062 28.421875 46.566406 28.421875 46.292969 L 28.421875 33.792969 C 29.066406 33.242188 29.90625 32.953125 30.921875 32.953125 C 31.761719 32.953125 32.410156 33.144531 32.863281 33.601562 C 33.332031 34.066406 33.605469 34.714844 33.605469 35.550781 L 33.605469 46.386719 C 33.605469 46.664062 33.796875 46.757812 34.074219 46.757812 L 37.59375 46.757812 C 37.867188 46.757812 37.964844 46.664062 37.964844 46.386719 L 37.964844 35.085938 C 38.167969 33.421875 37.605469 32.03125 36.589844 31.015625 M 45.484375 43.335938 C 44.933594 42.867188 44.648438 42.316406 44.648438 41.480469 C 44.648438 40.363281 45.195312 39.539062 46.40625 39.167969 C 47.148438 38.894531 48.539062 38.703125 50.476562 38.617188 L 50.476562 43.800781 C 49.832031 43.996094 49.085938 44.078125 48.070312 44.078125 C 46.96875 43.980469 46.132812 43.789062 45.484375 43.335938 M 43.902344 33.421875 C 45.292969 32.953125 46.503906 32.773438 47.421875 32.773438 C 48.441406 32.773438 49.183594 32.953125 49.652344 33.242188 C 50.203125 33.613281 50.394531 34.164062 50.394531 35.003906 L 50.394531 35.839844 C 47.339844 36.019531 45.019531 36.488281 43.628906 37.132812 C 41.59375 38.054688 40.578125 39.539062 40.578125 41.671875 C 40.578125 43.429688 41.222656 44.722656 42.527344 45.660156 C 43.738281 46.582031 45.675781 47.046875 48.179688 47.046875 C 49.746094 47.046875 51.425781 46.773438 53.089844 46.304688 C 53.554688 46.207031 53.832031 45.933594 54.105469 45.5625 C 54.382812 45.191406 54.476562 44.820312 54.476562 44.351562 L 54.476562 36.101562 C 54.476562 33.503906 53.832031 31.660156 52.523438 30.546875 C 51.507812 29.707031 49.84375 29.253906 47.710938 29.335938 C 46.226562 29.335938 44.5625 29.613281 42.804688 30.175781 C 42.527344 30.273438 42.433594 30.453125 42.527344 30.726562 L 43.367188 32.953125 C 43.367188 33.050781 43.464844 33.144531 43.546875 33.230469 C 43.820312 33.421875 43.902344 33.421875 43.902344 33.421875 M 4.632812 34.34375 C 4.632812 33.875 4.8125 33.503906 5.183594 33.132812 C 5.652344 32.859375 6.296875 32.664062 6.945312 32.664062 C 7.863281 32.664062 8.882812 32.941406 9.914062 33.40625 C 10.1875 33.503906 10.382812 33.40625 10.464844 33.132812 L 11.386719 31 C 11.480469 30.90625 11.480469 30.808594 11.480469 30.726562 C 11.480469 30.628906 11.386719 30.546875 11.289062 30.546875 C 9.804688 29.804688 8.140625 29.53125 6.476562 29.53125 C 4.523438 29.53125 3.050781 29.996094 1.9375 30.917969 C 0.824219 31.839844 0.371094 33.050781 0.371094 34.535156 C 0.371094 36.019531 0.921875 37.132812 1.9375 38.054688 C 2.585938 38.605469 3.601562 39.074219 5.085938 39.636719 C 5.925781 39.910156 6.574219 40.1875 6.945312 40.476562 C 7.410156 40.847656 7.6875 41.3125 7.6875 41.863281 C 7.6875 42.511719 7.492188 42.976562 7.039062 43.253906 C 6.574219 43.625 6.023438 43.71875 5.183594 43.71875 C 4.714844 43.71875 4.070312 43.625 3.425781 43.445312 C 2.679688 43.253906 2.132812 43.074219 1.664062 42.800781 C 1.386719 42.703125 1.195312 42.800781 1.113281 43.074219 L 0 45.550781 L 0 45.824219 C 0.0976562 46.015625 0.0976562 46.015625 0.179688 46.097656 C 1.761719 46.746094 3.425781 47.117188 5.28125 47.117188 C 7.507812 47.117188 9.171875 46.648438 10.285156 45.726562 C 11.398438 44.804688 12.042969 43.5 12.042969 41.835938 C 12.042969 40.351562 11.496094 39.15625 10.382812 38.316406 C 9.734375 37.847656 8.71875 37.300781 7.136719 36.734375 C 6.296875 36.460938 5.652344 36.183594 5.28125 35.894531 C 4.910156 35.457031 4.632812 34.988281 4.632812 34.34375 "/>
</g>
<g clip-path="url(#clip2)" clip-rule="nonzero">
<path style=" stroke:none;fill-rule:nonzero;fill:rgb(94.891357%,32.93457%,34.393311%);fill-opacity:1;" d="M 146.917969 28.140625 C 146.820312 28.511719 146.820312 28.882812 147.097656 29.253906 C 147.277344 29.597656 147.632812 29.820312 148.019531 29.804688 L 157.5625 31.015625 C 157.65625 31.015625 157.738281 31.113281 157.738281 31.207031 C 157.738281 31.304688 157.644531 31.398438 157.5625 31.398438 L 147.46875 32.417969 C 146.917969 32.515625 146.449219 32.691406 146.078125 32.96875 C 145.710938 33.339844 145.433594 33.710938 145.242188 34.261719 L 142.09375 46.03125 C 141.996094 46.304688 142.09375 46.496094 142.367188 46.675781 C 142.558594 46.855469 142.835938 46.855469 143.109375 46.675781 L 166.730469 31.757812 C 166.910156 31.675781 167.019531 31.484375 167.007812 31.289062 C 167.007812 31.097656 166.910156 30.917969 166.730469 30.738281 L 150.617188 17.582031 C 150.4375 17.402344 150.246094 17.402344 150.066406 17.402344 C 149.890625 17.5 149.695312 17.582031 149.695312 17.871094 Z M 118.015625 23.328125 C 117.550781 22.859375 117 22.683594 116.351562 22.683594 C 115.707031 22.683594 115.058594 22.875 114.59375 23.328125 C 114.152344 23.726562 113.917969 24.304688 113.945312 24.910156 C 113.917969 25.5 114.152344 26.078125 114.59375 26.492188 C 115.058594 26.957031 115.707031 27.136719 116.351562 27.136719 C 117 27.136719 117.5625 26.945312 118.015625 26.492188 C 118.484375 26.023438 118.757812 25.472656 118.757812 24.910156 C 118.757812 24.25 118.566406 23.6875 118.015625 23.328125 M 118.46875 30.273438 C 118.46875 29.996094 118.375 29.804688 118.097656 29.804688 L 114.675781 29.804688 C 114.398438 29.804688 114.304688 29.996094 114.304688 30.273438 L 114.304688 46.304688 C 114.304688 46.582031 114.398438 46.675781 114.675781 46.675781 L 118.097656 46.675781 C 118.375 46.675781 118.46875 46.582031 118.46875 46.304688 L 118.46875 30.273438 M 131.355469 43.707031 C 130.707031 43.886719 129.867188 43.980469 128.945312 43.980469 C 127.835938 43.980469 126.996094 43.789062 126.445312 43.335938 C 125.800781 42.867188 125.523438 42.316406 125.523438 41.480469 C 125.523438 40.363281 126.074219 39.527344 127.285156 39.167969 C 128.121094 38.894531 129.414062 38.703125 131.355469 38.617188 L 131.355469 43.707031 M 124.78125 33.421875 C 126.265625 32.953125 127.378906 32.773438 128.300781 32.773438 C 129.316406 32.773438 130.15625 32.953125 130.609375 33.242188 C 131.160156 33.613281 131.355469 34.164062 131.355469 35.003906 L 131.355469 35.839844 C 128.300781 36.019531 125.976562 36.488281 124.492188 37.132812 C 122.457031 38.054688 121.523438 39.539062 121.523438 41.671875 C 121.523438 43.429688 122.167969 44.722656 123.378906 45.660156 C 124.671875 46.582031 126.527344 47.046875 129.03125 47.046875 C 130.609375 47.046875 132.273438 46.773438 133.9375 46.304688 C 134.40625 46.207031 134.683594 45.933594 134.957031 45.5625 C 135.230469 45.191406 135.328125 44.820312 135.328125 44.351562 L 135.328125 36.101562 C 135.328125 33.503906 134.683594 31.660156 133.390625 30.546875 C 132.371094 29.722656 130.789062 29.253906 128.574219 29.335938 C 127.089844 29.335938 125.429688 29.613281 123.667969 30.175781 C 123.570312 30.273438 123.476562 30.273438 123.394531 30.355469 C 123.296875 30.453125 123.394531 30.628906 123.394531 30.726562 L 124.230469 32.953125 C 124.230469 33.050781 124.328125 33.132812 124.410156 33.230469 C 124.589844 33.421875 124.683594 33.421875 124.78125 33.421875 M 82.996094 41.480469 C 82.996094 40.363281 83.542969 39.527344 84.753906 39.167969 C 85.59375 38.894531 86.886719 38.703125 88.824219 38.617188 L 88.824219 43.800781 C 88.179688 43.996094 87.4375 44.078125 86.417969 44.078125 C 85.304688 44.078125 84.480469 43.898438 83.914062 43.429688 C 83.367188 42.867188 82.996094 42.316406 82.996094 41.480469 M 85.867188 32.773438 C 86.886719 32.773438 87.726562 32.953125 88.097656 33.242188 C 88.648438 33.613281 88.839844 34.164062 88.839844 35.003906 L 88.839844 35.839844 C 85.785156 36.019531 83.460938 36.488281 82.074219 37.132812 C 80.039062 38.054688 79.117188 39.539062 79.117188 41.671875 C 79.117188 45.289062 81.621094 47.128906 86.707031 47.128906 C 88.289062 47.128906 89.855469 46.855469 91.519531 46.386719 C 91.988281 46.292969 92.261719 46.015625 92.535156 45.644531 C 92.8125 45.273438 92.910156 44.902344 92.910156 44.433594 L 92.910156 36.183594 C 92.910156 33.585938 92.261719 31.742188 90.96875 30.628906 C 89.855469 29.886719 88.289062 29.417969 86.15625 29.515625 C 84.671875 29.515625 83.007812 29.792969 81.25 30.355469 C 81.152344 30.453125 81.054688 30.453125 80.972656 30.535156 C 80.878906 30.628906 80.972656 30.808594 80.972656 30.90625 L 81.8125 33.132812 C 81.910156 33.40625 82.085938 33.503906 82.28125 33.40625 C 83.835938 32.953125 84.949219 32.773438 85.867188 32.773438 M 95.410156 29.804688 C 95.230469 29.804688 95.136719 29.902344 95.136719 29.996094 C 95.039062 30.09375 95.039062 30.273438 95.039062 30.367188 L 100.140625 44.640625 C 100.414062 45.289062 100.785156 45.851562 101.253906 46.222656 C 101.804688 46.59375 102.367188 46.773438 103.015625 46.773438 L 103.660156 46.773438 C 104.308594 46.773438 104.871094 46.582031 105.421875 46.222656 C 105.972656 45.851562 106.261719 45.300781 106.4375 44.640625 L 111.539062 30.367188 C 111.636719 30.273438 111.539062 30.09375 111.539062 29.996094 C 111.441406 29.804688 111.347656 29.804688 111.167969 29.804688 L 107.375 29.804688 C 107.195312 29.804688 107.097656 29.902344 107.003906 30.175781 L 103.480469 42.496094 L 99.785156 30.175781 C 99.6875 29.902344 99.507812 29.804688 99.316406 29.804688 L 95.410156 29.804688 "/>
</g>
</g>
</svg>
