<svg xmlns="http://www.w3.org/2000/svg" width="176pt" height="62.84" viewBox="0 0 176 47.13"><defs><clipPath id="a"><path d="M0 0h176v47.129H0Zm0 0"/></clipPath><clipPath id="b"><path d="M79 17h89v30.129H79Zm0 0"/></clipPath></defs><g clip-path="url(#a)"><path d="M175.727.16a.73.73 0 0 0-.747-.097L151.266 15.16a.49.49 0 0 0-.278.469c0 .191.098.371.18.562l16.113 13.16c.18.192.469.192.649.192.191-.094.37-.191.37-.469l2.778-10.367c.098-.371.098-.742-.18-1.113a1.01 1.01 0 0 0-.921-.551l-9.543-1.207c-.094 0-.176-.098-.176-.195 0-.094.094-.176.176-.176l10.093-1.02c.551 0 1.02-.18 1.387-.55q.555-.56.84-1.387L176 .805c0-.274-.098-.453-.273-.645M66.605 32.773v-2.5c.012-.234-.164-.453-.398-.468h-1.348a6.5 6.5 0 0 0-4.73 1.937 6.43 6.43 0 0 0-1.953 4.719v9.816c0 .274.097.371.37.371h3.427c.273 0 .37-.097.37-.37v-9.352c0-2.227 1.294-3.422 3.891-3.793.274.097.371-.082.371-.36m3.329-7.23c-.278 0-.371.094-.371.371v15.742c0 3.617 1.582 5.38 4.726 5.38.84 0 1.582-.099 2.23-.372.18-.098.274-.195.274-.371v-2.684c0-.093-.094-.18-.191-.273-.098-.098-.274-.098-.372-.098-.18.098-.37.098-.742.098-1.293 0-1.941-.648-1.941-1.856v-8.335h2.781c.274 0 .371-.094.371-.372v-2.308c0-.274-.097-.469-.37-.469h-2.782v-3.984c0-.278-.094-.375-.371-.375h-3.242M36.59 31.016c-1.02-1.02-2.504-1.582-4.36-1.582-1.113 0-2.226.18-3.34.55-.921.274-1.663.645-2.312 1.211-1.21-1.21-2.969-1.761-5.375-1.761-1.937 0-3.7.273-5.375.84-.648.273-.922.742-.922 1.292v14.63c0 .273.094.37.371.37H18.7c.278 0 .371-.097.371-.37V33.23c.742-.277 1.57-.37 2.313-.37.918 0 1.578.19 2.129.644.55.469.742 1.016.742 1.762v11.027c0 .273.098.371.371.371h3.426c.273 0 .37-.098.37-.371v-12.5c.645-.55 1.485-.84 2.5-.84.84 0 1.49.192 1.942.649.469.464.742 1.113.742 1.949v10.836c0 .277.192.37.47.37h3.519c.273 0 .37-.093.37-.37V35.086c.204-1.664-.359-3.055-1.374-4.07m8.894 12.32c-.55-.469-.836-1.02-.836-1.856 0-1.117.547-1.94 1.758-2.312.742-.273 2.133-.465 4.07-.55V43.8c-.644.195-1.39.277-2.406.277-1.101-.098-1.937-.289-2.586-.742m-1.582-9.914c1.391-.469 2.602-.649 3.52-.649 1.02 0 1.762.18 2.23.47.551.37.743.921.743 1.76v.837c-3.055.18-5.375.648-6.766 1.293-2.035.922-3.05 2.406-3.05 4.539 0 1.758.644 3.05 1.948 3.988 1.211.922 3.149 1.387 5.653 1.387 1.566 0 3.246-.274 4.91-.742.465-.098.742-.371 1.015-.742.278-.372.372-.743.372-1.211v-8.25c0-2.598-.645-4.442-1.954-5.555-1.015-.84-2.68-1.293-4.812-1.211-1.484 0-3.148.277-4.906.84-.278.097-.371.277-.278.55l.84 2.227c0 .098.098.192.18.277.273.192.355.192.355.192m-39.27.922c0-.469.18-.84.552-1.211a3.6 3.6 0 0 1 1.761-.469c.918 0 1.938.277 2.97.742.273.098.468 0 .55-.273L11.387 31c.093-.094.093-.191.093-.273 0-.098-.093-.18-.19-.18-1.485-.742-3.15-1.016-4.813-1.016-1.954 0-3.426.465-4.54 1.387S.371 33.051.371 34.535c0 1.485.55 2.598 1.567 3.52.648.55 1.664 1.02 3.148 1.582.84.273 1.488.55 1.86.84.464.37.742.836.742 1.386 0 .649-.196 1.114-.649 1.39-.465.372-1.016.466-1.855.466-.47 0-1.114-.094-1.758-.274-.746-.191-1.293-.37-1.762-.644-.277-.098-.469 0-.55.273L0 45.551v.273c.098.192.098.192.18.274a13.2 13.2 0 0 0 5.101 1.02c2.227 0 3.89-.47 5.004-1.391 1.113-.922 1.758-2.227 1.758-3.891 0-1.484-.547-2.68-1.66-3.52-.649-.468-1.664-1.015-3.246-1.582-.84-.273-1.485-.55-1.856-.84-.37-.437-.648-.906-.648-1.55" style="stroke:none;fill-rule:nonzero;fill:#3d2e87;fill-opacity:1"/></g><g clip-path="url(#b)"><path d="M146.918 28.14c-.098.372-.098.743.18 1.114.18.344.535.566.922.55l9.542 1.212c.094 0 .176.097.176.191 0 .098-.093.191-.175.191l-10.094 1.02c-.551.098-1.02.273-1.39.55-.368.372-.645.743-.837 1.294l-3.148 11.77c-.098.273 0 .464.273.644.192.18.469.18.742 0l23.621-14.918a.49.49 0 0 0 .278-.469c0-.191-.098-.371-.278-.55l-16.113-13.157c-.18-.18-.37-.18-.55-.18-.176.098-.372.18-.372.47Zm-28.902-4.812c-.465-.469-1.016-.644-1.664-.644-.645 0-1.293.191-1.758.644a2 2 0 0 0-.649 1.582c-.027.59.207 1.168.649 1.582.465.465 1.113.645 1.758.645.648 0 1.21-.192 1.664-.645.468-.469.742-1.02.742-1.582 0-.66-.192-1.223-.742-1.582m.453 6.945c0-.277-.094-.468-.371-.468h-3.422c-.278 0-.371.191-.371.468v16.032c0 .277.093.37.37.37h3.423c.277 0 .37-.093.37-.37zm12.887 13.434c-.648.18-1.488.273-2.41.273-1.11 0-1.949-.19-2.5-.644-.644-.469-.922-1.02-.922-1.856 0-1.117.551-1.953 1.762-2.312.836-.273 2.13-.465 4.07-.55zm-6.574-10.285c1.485-.469 2.598-.649 3.52-.649 1.015 0 1.855.18 2.308.47.551.37.746.921.746 1.76v.837c-3.054.18-5.378.648-6.863 1.293-2.035.922-2.969 2.406-2.969 4.539 0 1.758.645 3.05 1.856 3.988 1.293.922 3.148 1.387 5.652 1.387 1.578 0 3.242-.274 4.906-.742.47-.098.747-.371 1.02-.742.273-.372.371-.743.371-1.211v-8.25c0-2.598-.644-4.442-1.937-5.555-1.02-.824-2.602-1.293-4.817-1.211-1.484 0-3.144.277-4.906.84-.098.097-.191.097-.273.18-.098.097 0 .273 0 .37l.835 2.227c0 .098.098.18.18.277.18.192.274.192.371.192M82.996 41.48c0-1.117.547-1.953 1.758-2.312.84-.273 2.133-.465 4.07-.55V43.8c-.644.195-1.386.277-2.406.277-1.113 0-1.938-.18-2.504-.648-.547-.563-.918-1.114-.918-1.95m2.871-8.707c1.02 0 1.86.18 2.23.47.551.37.743.921.743 1.76v.837c-3.055.18-5.38.648-6.766 1.293-2.035.922-2.957 2.406-2.957 4.539 0 3.617 2.504 5.457 7.59 5.457 1.582 0 3.148-.274 4.813-.742.468-.094.742-.371 1.015-.742.278-.372.375-.743.375-1.211v-8.25c0-2.598-.648-4.442-1.941-5.555-1.114-.742-2.68-1.211-4.813-1.113-1.484 0-3.148.277-4.906.84-.098.097-.195.097-.277.18-.094.093 0 .273 0 .37l.84 2.227c.097.273.273.37.468.273 1.555-.453 2.668-.633 3.586-.633m9.543-2.968c-.18 0-.273.097-.273.191-.098.098-.098.277-.098.371l5.102 14.274c.273.648.644 1.21 1.113 1.582.55.37 1.113.55 1.762.55h.644c.649 0 1.211-.191 1.762-.55.55-.371.84-.922 1.016-1.582l5.101-14.274c.098-.094 0-.273 0-.37-.098-.192-.191-.192-.371-.192h-3.793c-.18 0-.277.097-.371.37l-3.524 12.321-3.695-12.32c-.097-.274-.277-.371-.469-.371z" style="stroke:none;fill-rule:nonzero;fill:#f25458;fill-opacity:1"/></g></svg>