<svg xmlns="http://www.w3.org/2000/svg" width="222.213" height="59pt" viewBox="0 0 166.66 59"><defs><clipPath id="a"><path d="M158 40h8.66v10H158Zm0 0"/></clipPath></defs><path d="m48.727 55.68.949-.188v.188zM45.29 55.508q.386.088.773.172h-.758a.2.2 0 0 0-.016-.172" style="stroke:none;fill-rule:nonzero;fill:#777878;fill-opacity:1"/><path d="M107.465 21.234c-.168-.066-.254-.12-.344-.132-1.633-.184-3.262-.407-4.898-.524-1.778-.129-3.547-.015-5.25.559-1.137.386-1.965 1.117-2.387 2.273-1.082 2.988.64 5.73 3.805 6.024 1.359.125 2.714.078 4.058-.196 1.961-.402 3.7-1.238 5.164-2.605-.05-1.813-.097-3.582-.148-5.399m-.153-7.39c-.082-.852-.57-1.45-1.214-1.95-.793-.613-1.72-.917-2.688-1.128-2.164-.47-4.344-.403-6.512-.075-1.37.207-2.722.551-4.082.832-.18.036-.363.067-.609.11V8.168c.555-.172 1.164-.406 1.8-.55a31.1 31.1 0 0 1 8.481-.743c1.742.09 3.457.367 5.078 1.066 2.676 1.153 4.079 3.196 4.254 6.09.024.41.016.824.02 1.235V32.78h-2.278c-.597-.738-1.234-1.515-1.882-2.316-.625.348-1.192.687-1.778.98-2.945 1.465-6.039 2.028-9.297 1.426-3.34-.621-5.37-2.633-6.187-5.902-.77-3.078.273-5.813 2.902-7.625 2.094-1.442 4.453-2.059 6.957-2.2 2.22-.128 4.426.055 6.63.313.144.04.284.082.57.164-.13-1.32.105-2.55-.165-3.777" style="stroke:none;fill-rule:nonzero;fill:#12100f;fill-opacity:1"/><path d="M161.172 21.066a996 996 0 0 0-3.883-.433c-1.77-.192-3.543-.23-5.297.094-1.187.218-2.344.57-3.14 1.59-1.543 1.968-1.293 6.234 2.62 6.956 1.454.266 2.895.22 4.34-.035 2.07-.36 3.91-1.203 5.5-2.664-.042-1.789-.09-3.59-.14-5.508m4.262 11.707h-2.137l-1.942-2.398c-1.324.836-2.695 1.54-4.183 1.988-2.504.762-5.035.989-7.578.285-3.989-1.109-6.348-4.921-5.59-9.003.336-1.81 1.379-3.176 2.836-4.235 1.976-1.433 4.234-2.113 6.644-2.281a31.7 31.7 0 0 1 7.008.293c.176.027.36.031.578.047 0-1.23.07-2.399-.02-3.555-.09-1.129-.823-1.89-1.78-2.43-1.364-.761-2.864-.988-4.387-1.062-2.844-.14-5.617.285-8.356 1.02l-.605.156V8.133c1.07-.5 2.258-.703 3.433-.906a31 31 0 0 1 7.286-.375c1.843.117 3.644.476 5.293 1.355 2.257 1.203 3.511 3.11 3.535 5.664.054 6.207.023 12.414.023 18.625 0 .059-.023.121-.058.277" style="stroke:none;fill-rule:nonzero;fill:#11100e;fill-opacity:1"/><path d="M44.926 6.668h4.402v1.039c.04 5.387.082 10.77.11 16.156.003 1.168.214 2.27.855 3.258.93 1.426 2.305 2.145 3.957 2.317 2.566.269 4.797-.61 6.79-2.157.573-.441 1.077-.972 1.577-1.433V6.672c.715-.086 1.465-.027 2.207-.04.727-.01 1.453-.003 2.235-.003V32.64h-2.86c-.285-.903-.578-1.832-.886-2.825-.223.188-.41.336-.59.493-1.2 1.043-2.586 1.695-4.133 2.015-2.797.582-5.598.559-8.39.004-2.782-.555-4.337-2.355-4.876-5.055-.238-1.203-.394-2.445-.406-3.671-.043-5.485-.02-10.965-.02-16.446 0-.152.016-.3.028-.488" style="stroke:none;fill-rule:nonzero;fill:#12100f;fill-opacity:1"/><path d="M130.84 32.98c-1.059-.164-2.13-.277-3.18-.503-3.312-.711-5.95-2.414-7.629-5.434-.812-1.457-1.261-3.035-1.5-4.672-.383-2.672-.16-5.316.602-7.89 1.238-4.196 4.125-6.618 8.379-7.454 2.992-.593 5.984-.418 8.968.07.872.141 1.739.329 2.711.516-.046 1.215-.093 2.403-.144 3.653-.594-.133-1.11-.262-1.625-.36-2.762-.535-5.524-.676-8.3-.11-3.063.626-5.02 2.442-5.759 5.477-.582 2.375-.574 4.766.227 7.114 1.18 3.476 3.703 5.304 7.246 5.883 2.523.41 4.976-.028 7.414-.637.273-.07.547-.145.934-.242.09 1.238.027 2.414.046 3.66-1.039.336-2.097.46-3.148.61-.906.124-1.816.214-2.727.32q-.115.002-.23.003c-.242.008-.48.012-.727.02h-.793c-.113-.004-.226-.012-.343-.016q-.211-.007-.422-.008" style="stroke:none;fill-rule:nonzero;fill:#11100e;fill-opacity:1"/><path d="M85.59 6.547c.039.273.11.55.113.824.016 1.043.008 2.082.008 3.223-2.184.05-4.316.097-6.504.144-.016.325-.035.602-.039.88-.031 4.304-.07 8.612-.082 12.917 0 .785.027 1.59.176 2.36.316 1.652 1.156 2.316 2.832 2.347.949.016 1.898.008 2.847.008h.715v3.574h-2.594c-.886 0-1.773.012-2.656 0-3.062-.035-5.12-1.812-5.594-4.86a14 14 0 0 1-.164-2.077c-.011-7.54-.007-15.074-.007-22.61V2.5h2.75q.731 1.882 1.468 3.77l.106.164c.097.054.195.152.293.152 2.047-.016 4.094-.047 6.14-.07.067.007.13.02.192.03" style="stroke:none;fill-rule:nonzero;fill:#12110f;fill-opacity:1"/><path d="M119.262 44.668c.066-.004.133-.004.195-.008.398-.176.137-.492.113-.719-.074-.714-.203-1.421-.32-2.136-.059-.367-.129-.735-.195-1.102h-.168l-1.957 3.73q-.035.1-.075.2c.11.012.215.02.325.031q1.037-.001 2.082.004m-1.114-6.406h2.508c.567 3.508 1.125 6.984 1.7 10.535h-2.067c-.117-.711-.242-1.445-.371-2.219h-4.191c-.391.692-.825 1.45-1.278 2.242h-2.254c2.004-3.558 3.97-7.039 5.953-10.558" style="stroke:none;fill-rule:nonzero;fill:#131210;fill-opacity:1"/><path d="M148.855 48.824h-2.015c.02-.23.015-.437.058-.636.282-1.297.594-2.59.844-3.891.098-.508.336-1.047-.047-1.578-.437-.371-.922-.29-1.394-.043-.715.367-1.192.949-1.383 1.722-.273 1.106-.508 2.215-.758 3.325-.086.363-.172.726-.258 1.105h-2.043c.489-2.574 1.051-5.082 1.582-7.637h1.868q.02.352.043.715c.05.004.12.035.152.012.594-.426 1.207-.797 1.953-.91 1.758-.266 2.863.816 2.523 2.543-.34 1.734-.734 3.457-1.125 5.273" style="stroke:none;fill-rule:nonzero;fill:#131110;fill-opacity:1"/><path d="M156.598 44.379c-.028-1.285-.461-1.895-1.309-1.945-.957-.055-1.73.761-1.824 1.945zm-3.383 1.625c-.04.723.297 1.246.965 1.465.922.3 1.586-.157 2.097-.961.598.097 1.176.195 1.774.293-.68 1.578-1.977 2.344-3.738 2.238-1.454-.086-2.602-.984-3.004-2.352-.684-2.324.578-4.906 2.77-5.503.71-.192 1.515-.196 2.245-.094.895.125 1.528.738 1.887 1.57.406.938.36 1.914.16 2.887-.016.078-.195.121-.297.183-1.398-.023-2.797-.054-4.195-.058-.254-.004-.594-.074-.664.332" style="stroke:none;fill-rule:nonzero;fill:#12110f;fill-opacity:1"/><g clip-path="url(#a)"><path d="m166.656 42.988-1.8.344c-.493-.793-1.204-1.016-2.051-.863-.57.097-.567.105-.844.863.297.164.598.371.93.5.617.242 1.27.395 1.87.664 1.65.742 1.88 2.43.579 3.695-1.238 1.2-4.672 1.168-5.778-.207-.12-.144-.25-.289-.343-.453-.121-.215-.211-.449-.371-.793.675-.12 1.285-.226 1.93-.343.367.449.636 1.062 1.32 1.101.433.024.89.024 1.304-.086.512-.133.586-.367.496-1.101-.363-.145-.761-.313-1.168-.473-.527-.211-1.078-.379-1.582-.633-1.293-.66-1.539-2.074-.582-3.176.73-.836 1.723-1.039 2.746-1.058a6 6 0 0 1 1.86.265c.789.246 1.312.813 1.484 1.754" style="stroke:none;fill-rule:nonzero;fill:#131210;fill-opacity:1"/></g><path d="M135.762 38.277h2.09c-.743 3.543-1.473 7.024-2.207 10.54h-2.094c.746-3.555 1.48-7.051 2.21-10.54" style="stroke:none;fill-rule:nonzero;fill:#131210;fill-opacity:1"/><path d="M131.07 42.055v.062h.176v-.062zm-1.793-.887h1.848l.152.785c.887-.664 1.711-1.355 2.918-.726-.242.535-.468 1.043-.73 1.617-.633-.133-1.227-.024-1.75.383-.578.449-.914 1.046-1.082 1.738-.262 1.074-.488 2.156-.738 3.234-.047.211-.122.414-.188.633h-2.027a3054 3054 0 0 1 1.597-7.664" style="stroke:none;fill-rule:nonzero;fill:#131110;fill-opacity:1"/><path d="M125.766 48.828h-2.086c.53-2.562 1.05-5.074 1.586-7.633h2.09c-.54 2.586-1.067 5.106-1.59 7.633M137.691 48.797l1.594-7.61h2.086c-.531 2.555-1.05 5.055-1.586 7.61z" style="stroke:none;fill-rule:nonzero;fill:#131210;fill-opacity:1"/><path d="M125.512 40.074c.129-.625.246-1.191.375-1.797h2.09c-.137.63-.262 1.2-.387 1.797zM139.527 40.066c.133-.648.243-1.199.364-1.793h2.097c-.129.614-.246 1.184-.375 1.793z" style="stroke:none;fill-rule:nonzero;fill:#161413;fill-opacity:1"/><path d="M56.973 45.215q-.116.013-.239.031c.028-.129.051-.258.078-.387q.078.001.16.008z" style="stroke:none;fill-rule:nonzero;fill:#777878;fill-opacity:1"/><path d="M38.156 45.973c.969 11.922 15.192 12.668 18.739 1.636.027 5.153-2.75 10.578-8.247 11.27-.753.043-1.48.152-2.25.113-.289-.18-.601-.039-.921-.105-.059-.125-.254.008-.403-.063-5.949-.96-10.683-6.52-10.84-12.566-.066-1.469.16-2.93.02-4.395-.594-8.828-10.938-10.707-18.094-11.36 11.848-1.366 22.524 1.45 21.996 15.47" style="stroke:none;fill-rule:nonzero;fill:#11100e;fill-opacity:1"/><path d="M17.371 19.395c-.05-.137-.14-.157-.238-.157-.445.032-.906-.074-1.332.075.07.195.094.378.293.472.355-.398.922-.012 1.277-.39m-8.45-6.082c-.175.19-.183.261-.097.546.45.11.938-.011 1.281-.351-.433-.035-.789-.235-1.183-.195m2.294 3.8c-.414.059-.695.414-1.031.633-.149.125-.375.152-.465.356.094.14.215.16.367.132.273-.449 1.246-.441 1.129-1.12m6.902.606c-.254-.34-1.691.68-1.617.808.492.239.93-.297 1.383-.488.113-.066.226-.144.234-.32m-2.281-2.153c.453-.117 1.246-.004 1.312-.629-.418-.054-.828.098-1.242.157-.136.027-.3.09-.32.293.07.05.137.101.25.18m1.848 4.094c.59-.015 1.187-.574 1.168-1.082a.44.44 0 0 0-.45.086c-.28.32-.804.55-.718.996m-6.016-1.922c-.297-.062-2.281 1.196-1.637 1.414.621-.465 1.266-.68 1.637-1.414m4.465-.242c.504.266 1.465-.324 1.8-.71-.097-.602-1.652.421-1.8.71m-4.805-6.398c.168.332.613.164.91.23.356-.055 1.344.293 1.153-.36-.426-.113-1.762-.034-2.063.13m4.863 5.62c.375-.175 1.942-.675 1.32-1.113-.476.278-1.675.207-1.566 1.028.094.031.18.062.246.086m-1.187-7.257c-.496-.34-.293-.344-.57-.79-.246-.073-.356.044-.45.208-.171.316.063.492.25.691-.136.235-.375.496-.101.73a.7.7 0 0 0 .472-.51c.188-.063.356-.11.399-.33m-1.914 4.566c-.102-.066-.207.024-.309.059-.644.328-1.289.664-1.933 1-.254.152-.625.246-.692.578.387.2 2.63-1.273 2.934-1.637m.805-2.996c.289.524 1.117.516 1.52.11.077-.079.19-.125.288-.184.492-.32-.254-.613-.555-.395-.41.231-.859.215-1.253.47m.503 5.086c-.164-.039-.285.031-.398.086-.64.297-1.273.61-1.91.906-.344.125-.38.516.043.48.226-.14.457-.273.699-.386.434-.262 1.598-.473 1.566-1.086m-2.609.598c.621.164 1.09-.399 1.64-.582.36-.23 1.68-.594 1.337-1.16-.953.586-2 .964-2.996 1.48.007.098.015.18.02.262m1.066 5.902a5.9 5.9 0 0 0 1.856-1.426c.21-.32 1.277-1.003 1.105-1.359-.168-.055-.312.008-.425.11-.805.886-1.618 1.738-2.575 2.468.012.063.02.11.04.207m-4.449-11.86c.664.15 1.297-.019 1.961.052.395 0 .836.28 1.188-.012-.223-.39-.59-.516-.992-.527-.446.07-2.876-.516-2.157.488m8.57 2.712c.364-.453-.511-1.098-.93-1.086-.73-.004-1.093-.746-1.573-.262.035.172.066.371.12.559.052.183-.042.41.169.574.601-.461.71-.527 1.468-.29.313.063.282.294.454.505zm-1.84-.035v.351q.253.165.516.328c-.086.254-.351.29-.492.477.043.098.086.2.121.289.39.094.621-.227.965-.328.305-.02.738-.168.926.156.098.18.328.18.422.012.02-.434-.438-.196-.461-.781-.692.105-1.176-.438-1.778-.633-.085.05-.144.082-.218.129m.704 4.875c-.527.293-4.27 3.832-3.844 4.261.309-.07.305-.07.453-.273.32-.465.746-.844 1.121-1.27a62 62 0 0 1 2.168-2.379c.078-.078.168-.164.102-.34m-2.79-.875c-1.12.546-1.968 1.488-2.984 2.191-.246.164-.793.809-.492 1.082.496-.543 1.016-1.027 1.653-1.402.488-.344 1.996-1.203 1.824-1.871M8.337 2.652c-.008.555.488.88.879 1.188.973.855 2.098 1.535 2.828 2.629l.219-.11C11.816 5.74 9 2.168 8.336 2.652m-.012 12.72c.528.3 1.2.077 1.637-.29.207-.187.453-.316.719-.41.765-.402 1.574-.715 2.36-1.086.476-.176.562-.875-.087-.621-.18.09-.348.207-.527.285-.93.398-1.844.828-2.793 1.176-.453.254-1.301.297-1.309.945m-.094-2.653c1.81.875 1.461-.375 2.465-.348.442-.066 2.305.207 2.39-.238-.312-.336-.843-.188-1.253-.254-.613-.035-1.223-.102-1.785-.367-.281-.133-.649-.172-.902.09l.05.05c-.039.192.125.282.223.407-.36.351-1.188-.051-1.188.66m6.325 1.195c-.47-.14-.746.43-1.137.59a39 39 0 0 1-2.148 1.207c-.778.46-1.793.562-2.434 1.226-.348.29.023.668.379.47.914-.446 1.812-.907 2.617-1.528.656-.39 1.313-.781 2.043-1.031.367-.145.824-.48.68-.934M13.41 9.172c-.004-1.078-1.058-1.508-1.762-2.121-1.046-.914-2.32-1.489-3.605-2.004-.766 1.008 2.64 2.117 3.297 2.516.668.324 1.316.671 1.715 1.343.066.11.156.215.355.266m-3.207 11.996c1.258.293 1.746-.488 2.453-1.336.844-.828 1.535-1.793 2.434-2.562.226-.172.43-.387.5-.723-.918-.305-1.485.91-2.031 1.46-.524.7-1.36 1.052-1.907 1.74-.445.519-.945.964-1.449 1.421M9.926.859c-.61 1.153 1.23 2.489 1.867 3.325.445.503.836 1.043 1.074 1.683a.9.9 0 0 0 .434.48c.558.313.945.883 1.496 1.188.523-.582-1.438-1.469-1.438-2.156-.129-.399-.449-.711-.652-1.074-.39-.586-.547-1.325-1.125-1.77-.574-.34-1.059-1.629-1.656-1.676m3.449 9.383c.203-.344-1.68-1.265-1.984-1.55-.703-.45-1.43-.848-2.282-.954-.418-.008-1.285-.32-1.472.192-.008.578.133.687.562.828 1.07.347 2.121.781 3.242.922.676.078 1.286.394 1.934.562m2.324 7.274c-.234 0-.363.261-.543.386-.246.18-.504.344-.742.535-.703.497-1.012 1.348-1.687 1.86-.036.023-.04.086-.067.152.485-.137.871-.539 1.16-.937.52-.785 1.282-1.356 1.922-2.032-.031.008-.05 0-.043.036M10.223 0c.03.055.047.137.093.16.391.219.73.508 1.036.836 1.246 1.399 2.039 3.117 3.058 4.66.754 1.082 1.55 2.258 1.86 3.54-.047.425.496.57.062.98.063.586.668.765.387 1.594.48.421.941.882.636 1.543.778.421.88 1.113.465 1.859.14.371.477.648.657 1.004.14.246.128.254-.016.48-.05.399.312.801-.008 1.157.012.109.106.16.195.195.329.058.536.285.79.469v.117c-.399.125-.57 1.187-.797 1.57-2.34-.23-2.125-.406-3.774 1.356-.597.37-3.824 3.636-3.61 1.507.06-.578.587-.515.544-1.273-.582-.516-1.121.32-1.563.605-.25-.23-.582-.468-.605-.87-.79-.11-1.192-.524-1.051-1.4.023-.487.64-.745.438-1.245.03-.754-.973-.7-.973-1.422.023-.606-.008-1.067-.246-1.64-.102-.669.277-1.364.144-2.052-.98.012.125-1.578.399-1.94-1.051-.161-1.074-1.427-.301-1.942-.04-.059-.098-.16-.18-.164-.324 0-.593-.168-.863-.305-.285-.145-.555-.34-.582-.715-.09-.25-.168-.36-.047-.617.074-.735.805-.965 1.367-1.274v-.171c-.718-.528-.926-1.598-.031-2.106.613-.008.613-.008.75-.137l-.93-1.535c.243-.761.59-1.48 1.551-.867a.5.5 0 0 0 .152-.14c-.085-.602-.332-1.172.098-1.653.027-.047.02-.11.027-.164z" style="stroke:none;fill-rule:nonzero;fill:#f0eeed;fill-opacity:1"/><path d="M26.695 28.965c-.754-.035-1.574.02-2.28-.23 12.093-3.813 11.855-18.051-.087-21.868 15.578-2.55 18.043 21.563 2.367 22.098" style="stroke:none;fill-rule:nonzero;fill:#11100e;fill-opacity:1"/><path d="M10.238 22.36c.442-.286.98-1.126 1.563-.606.043.758-.485.695-.543 1.273-.215 2.13 3.008-1.136 3.61-1.507 1.64-1.762 1.444-1.586 3.773-1.356v.594c.582.238 1.195-.262 1.738.137a9 9 0 0 0-.047.355c.86.23-.21.547-.18 1.203.059.367.313.332.578.535-.148.426-.77.325-.363.914-1.101 1.032-2.656 1.23-3.953 1.918-.715.325-1.422.664-2.203.817-.867.144-1.781.172-2.598.523-.593.305-1.187.598-1.773.918-.727.332-1.348.985-2.168 1.063-.547-.016-.649-.176-1.145.203-.066-.223.121-.367.211-.535.047-.282.371-.258.559-.434l-.106-.328c-.312-.024-.586-.059-.789-.379 1.38-1.703 2.43-3.637 3.836-5.309" style="stroke:none;fill-rule:nonzero;fill:#edd81e;fill-opacity:1"/><path d="M26.477 18.59c-.125-.524-.989-.567-1.422-.39-.008.09-.012.183-.02.288q.204.143.395.274c.004.113.008.215.015.324.36.176.825-.18 1.032-.496m-6.11 5.312c-.406-.59.215-.488.363-.914-.265-.203-.52-.168-.578-.535-.03-.656 1.04-.973.18-1.203.016-.14.031-.25.047-.355-.543-.399-1.156.101-1.738-.137-.086-.727.308-1.305.554-1.957.196-.5.54.156.742.304.844.06 1.493-.597 2.196-.96.008-.075.015-.149.027-.247.184-.054.375-.074.55-.136.88-.461 1.911-.317 2.872-.39 1.223.1.668.226 1.102.773.757-.11.726.003 1.293.41.453.215 1.199.312 1.402.804-1.66-.636-2.902-.574-3.465 1.32-.273-.077-.523-.206-.762.051-.8.766-1.691 1.45-2.386 2.325-.54.84-1.586.586-2.399.847" style="stroke:none;fill-rule:nonzero;fill:#11100e;fill-opacity:1"/><path d="M6.402 27.668c.203.32.477.355.79.379l.105.328c-.188.176-.512.152-.559.434-.09.168-.277.312-.21.535-.5.828-1.473 1.234-2.165 1.89-.433.309-.66.844-1.199 1.004-.184-.265-.008-.586-.094-.867-.468-.543-1.058.395-1.46.64-.47.368-.997.716-1.59.821-.211-.715 1.449-1.34 1.918-1.766 1.46-1.164 3.023-2.214 4.464-3.398" style="stroke:none;fill-rule:nonzero;fill:#131110;fill-opacity:1"/><path d="M45.285 58.855c.07-.03.145-.066.192.032-.075.07-.137.054-.192-.032M44.941 58.797c.055-.035.102-.043.133.027-.062.082-.097.028-.133-.027M48.648 58.879c.028-.07.079-.059.133-.027-.035.058-.07.117-.133.027" style="stroke:none;fill-rule:nonzero;fill:#727373;fill-opacity:1"/><path d="M13.375 10.242c-.648-.168-1.258-.484-1.934-.562-1.12-.14-2.171-.575-3.242-.922-.43-.14-.57-.25-.562-.828.187-.512 1.058-.196 1.472-.192.852.106 1.579.504 2.282.953.312.29 2.183 1.207 1.984 1.551" style="stroke:none;fill-rule:nonzero;fill:#131110;fill-opacity:1"/><path d="M9.926.86c.59.038 1.09 1.343 1.656 1.675.578.445.734 1.184 1.125 1.77.203.363.523.675.652 1.074 0 .687 1.961 1.578 1.438 2.156-.55-.305-.938-.875-1.496-1.187a.9.9 0 0 1-.434-.48c-.238-.641-.629-1.18-1.074-1.684-.64-.84-2.473-2.168-1.867-3.325" style="stroke:none;fill-rule:nonzero;fill:#131210;fill-opacity:1"/><path d="M10.203 21.168c.504-.457 1.004-.902 1.45-1.426.546-.683 1.382-1.035 1.906-1.734.546-.551 1.113-1.766 2.03-1.461-.07.336-.273.55-.5.723-.898.77-1.589 1.734-2.433 2.562-.703.848-1.199 1.633-2.453 1.336M13.41 9.172a.54.54 0 0 1-.355-.266c-.399-.672-1.047-1.02-1.715-1.344-.656-.398-4.063-1.503-3.297-2.515 1.285.516 2.559 1.09 3.605 2.004.704.613 1.758 1.043 1.762 2.12" style="stroke:none;fill-rule:nonzero;fill:#141211;fill-opacity:1"/><path d="M14.555 13.914c.144.453-.313.793-.68.934-.73.25-1.387.64-2.043 1.03-.805.622-1.703 1.083-2.617 1.528-.352.2-.73-.176-.38-.468.642-.665 1.657-.766 2.435-1.227a39 39 0 0 0 2.148-1.207c.39-.16.668-.727 1.137-.59" style="stroke:none;fill-rule:nonzero;fill:#151312;fill-opacity:1"/><path d="M8.23 12.719c0-.711.829-.309 1.188-.66-.098-.125-.262-.215-.223-.407l-.05-.05c.253-.262.62-.223.902-.09.562.265 1.172.332 1.785.367.41.066.941-.082 1.254.254-.066.441-1.961.176-2.39.238-1-.027-.66 1.223-2.466.348" style="stroke:none;fill-rule:nonzero;fill:#151311;fill-opacity:1"/><path d="M8.324 15.371c.008-.648.856-.691 1.309-.945.949-.348 1.863-.778 2.793-1.176.18-.078.347-.195.527-.285.645-.25.567.441.086.62-.785.372-1.594.685-2.36 1.087a2.1 2.1 0 0 0-.718.41c-.441.371-1.11.59-1.637.29" style="stroke:none;fill-rule:nonzero;fill:#141211;fill-opacity:1"/><path d="M8.336 2.652c.684-.468 3.46 3.067 3.926 3.707l-.219.11c-.73-1.094-1.855-1.774-2.828-2.63-.39-.308-.89-.632-.88-1.187" style="stroke:none;fill-rule:nonzero;fill:#151312;fill-opacity:1"/><path d="M13.05 17.434c.177.664-1.335 1.527-1.823 1.87-.637.376-1.157.86-1.653 1.403-.297-.285.246-.91.492-1.082 1.016-.703 1.864-1.645 2.985-2.191" style="stroke:none;fill-rule:nonzero;fill:#161413;fill-opacity:1"/><path d="M15.84 18.309c.066.175-.024.261-.102.34-.75.769-1.46 1.574-2.168 2.378-.375.426-.8.805-1.12 1.27-.15.203-.145.203-.454.273-.43-.418 3.305-3.96 3.844-4.261" style="stroke:none;fill-rule:nonzero;fill:#171513;fill-opacity:1"/><path d="M15.137 13.434c.074-.047.133-.079.218-.13.606.196 1.086.739 1.778.633.023.586.476.344.46.782-.093.168-.323.168-.421-.012-.188-.324-.621-.176-.926-.156-.344.101-.574.422-.965.328a8 8 0 0 0-.12-.29c.14-.187.405-.222.491-.476q-.263-.164-.515-.328z" style="stroke:none;fill-rule:nonzero;fill:#151312;fill-opacity:1"/><path d="M16.977 13.469h-.293c-.172-.211-.137-.442-.454-.504-.757-.238-.867-.168-1.468.289-.211-.164-.117-.39-.168-.574-.055-.188-.086-.387-.121-.559.476-.484.843.254 1.574.262.418-.012 1.293.633.93 1.086" style="stroke:none;fill-rule:nonzero;fill:#141311;fill-opacity:1"/><path d="M8.406 10.758c-.719-1.004 1.707-.418 2.156-.488.403.011.77.136.993.527-.352.293-.793.012-1.188.012-.664-.07-1.297.097-1.96-.051" style="stroke:none;fill-rule:nonzero;fill:#161513;fill-opacity:1"/><path d="M12.855 22.617c-.02-.097-.027-.144-.039-.207.957-.73 1.77-1.582 2.575-2.469.125-.18.632-.187.418.122-.329.41-.735.75-1.098 1.128a5.9 5.9 0 0 1-1.856 1.426" style="stroke:none;fill-rule:nonzero;fill:#191716;fill-opacity:1"/><path d="M11.79 16.715c-.005-.082-.013-.164-.02-.262.996-.515 2.043-.894 2.996-1.48.343.562-.977.93-1.336 1.16-.551.183-1.02.746-1.64.582" style="stroke:none;fill-rule:nonzero;fill:#171514;fill-opacity:1"/><path d="M14.398 16.117c.032.613-1.132.824-1.566 1.09-.242.11-.473.242-.7.383-.417.035-.386-.356-.042-.48.637-.297 1.27-.61 1.91-.907.113-.055.234-.125.398-.086" style="stroke:none;fill-rule:nonzero;fill:#181615;fill-opacity:1"/><path d="M13.895 11.031c.394-.254.843-.238 1.253-.469.297-.218 1.047.075.555.395-.098.059-.21.105-.289.184-.402.406-1.23.414-1.52-.11" style="stroke:none;fill-rule:nonzero;fill:#141211;fill-opacity:1"/><path d="M13.09 14.027c-.3.36-2.543 1.836-2.934 1.637.067-.332.438-.426.692-.578.644-.336 1.289-.672 1.933-1 .102-.035.203-.125.309-.059" style="stroke:none;fill-rule:nonzero;fill:#1a1816;fill-opacity:1"/><path d="M15.004 9.46c-.043.22-.211.267-.399.33a.7.7 0 0 1-.472.51c-.274-.234-.035-.495.101-.73-.187-.199-.421-.375-.25-.691.094-.164.204-.281.45-.207.277.45.074.45.57.789" style="stroke:none;fill-rule:nonzero;fill:#161413;fill-opacity:1"/><path d="M16.191 16.719c-.066-.024-.152-.055-.246-.086-.11-.82 1.09-.75 1.567-1.028.62.438-.946.938-1.32 1.114" style="stroke:none;fill-rule:nonzero;fill:#171513;fill-opacity:1"/><path d="M15.242 17.984c-.5.489-1.047.93-1.422 1.528-.289.402-.675.8-1.16.937.027-.066.031-.129.067-.152.312-.192.496-.496.703-.781.449-.668 1.058-1.18 1.726-1.614z" style="stroke:none;fill-rule:nonzero;fill:#1c1a19;fill-opacity:1"/><path d="M11.328 11.098c.3-.164 1.637-.243 2.063-.13.191.653-.797.305-1.153.36-.297-.066-.742.102-.91-.23" style="stroke:none;fill-rule:nonzero;fill:#1a1917;fill-opacity:1"/><path d="M16.133 17.496c.144-.285 1.699-1.312 1.8-.71-.335.386-1.296.976-1.8.71" style="stroke:none;fill-rule:nonzero;fill:#171514;fill-opacity:1"/><path d="M11.668 17.738c-.371.735-1.016.95-1.637 1.414-.64-.218 1.332-1.472 1.637-1.414" style="stroke:none;fill-rule:nonzero;fill:#191716;fill-opacity:1"/><path d="M17.684 19.66c-.086-.445.437-.676.718-.996a.44.44 0 0 1 .45-.086c.02.508-.579 1.067-1.168 1.082" style="stroke:none;fill-rule:nonzero;fill:#171514;fill-opacity:1"/><path d="M15.836 15.566c-.113-.078-.18-.129-.25-.18.02-.202.184-.265.32-.292.414-.059.824-.211 1.242-.156-.07.624-.859.511-1.312.628" style="stroke:none;fill-rule:nonzero;fill:#181615;fill-opacity:1"/><path d="M18.117 17.719c-.008.176-.12.254-.234.32-.453.191-.89.727-1.383.488.11-.265.652-.625 1.242-.824.11-.035.246-.148.375.016" style="stroke:none;fill-rule:nonzero;fill:#191716;fill-opacity:1"/><path d="M11.215 17.113c.113.68-.856.672-1.13 1.121-.151.028-.273.008-.366-.132.09-.204.316-.23.465-.356.336-.219.617-.574 1.03-.633" style="stroke:none;fill-rule:nonzero;fill:#1a1816;fill-opacity:1"/><path d="M8.922 13.313c.394-.04.75.16 1.183.195-.343.34-.832.46-1.28.351-.087-.285-.079-.355.097-.546" style="stroke:none;fill-rule:nonzero;fill:#181615;fill-opacity:1"/><path d="M17.371 19.395c-.355.378-.926-.008-1.277.39-.2-.094-.223-.277-.293-.473.426-.148.886-.042 1.332-.074.097 0 .187.02.238.157" style="stroke:none;fill-rule:nonzero;fill:#1a1816;fill-opacity:1"/><path d="m15.242 17.984-.086-.082c.18-.125.309-.386.543-.386l-.008-.004zM15.7 17.516c-.009-.036.01-.028.042-.036-.023.012-.035.024-.05.032z" style="stroke:none;fill-rule:nonzero;fill:#434243;fill-opacity:1"/><path d="M26.477 18.59c-.207.316-.672.672-1.032.496a9 9 0 0 1-.015-.324c-.13-.086-.258-.18-.395-.274q.01-.156.02-.289c.433-.176 1.297-.133 1.422.39" style="stroke:none;fill-rule:nonzero;fill:#e2d01a;fill-opacity:1"/></svg>