<?xml version="1.0" encoding="UTF-8"?>
<svg xmlns="http://www.w3.org/2000/svg" xmlns:xlink="http://www.w3.org/1999/xlink" width="153.78pt" height="59pt" viewBox="0 0 153.78 59" version="1.1">
<defs>
<clipPath id="clip1">
  <path d="M 114 0 L 153.78125 0 L 153.78125 59 L 114 59 Z M 114 0 "/>
</clipPath>
</defs>
<g id="surface1">
<path style=" stroke:none;fill-rule:nonzero;fill:rgb(8.282471%,9.22699%,16.430664%);fill-opacity:1;" d="M 131.679688 0 L 134.566406 0 C 134.519531 2.402344 134.296875 4.796875 134.027344 7.183594 C 130.558594 6.449219 127.109375 5.410156 123.535156 5.34375 C 125.195312 4.253906 126.585938 2.820312 128.195312 1.660156 C 129.238281 0.894531 130.410156 0.296875 131.679688 0 "/>
<path style=" stroke:none;fill-rule:nonzero;fill:rgb(8.282471%,9.22699%,16.430664%);fill-opacity:1;" d="M 137.28125 0 L 148.496094 0 C 148.355469 4.792969 147.128906 9.511719 145.21875 13.894531 C 144.308594 12.171875 142.738281 10.898438 141.050781 9.980469 C 139.601562 9.175781 138.042969 8.59375 136.507812 7.972656 C 136.957031 5.339844 137.210938 2.667969 137.28125 0 "/>
<g clip-path="url(#clip1)" clip-rule="nonzero">
<path style=" stroke:none;fill-rule:nonzero;fill:rgb(8.282471%,9.22699%,16.430664%);fill-opacity:1;" d="M 149.914062 0 L 152.5 0 C 153.109375 0.222656 153.683594 0.722656 153.769531 1.398438 C 153.835938 1.816406 153.597656 2.183594 153.441406 2.550781 C 145.824219 20.261719 138.136719 37.945312 130.503906 55.648438 C 130.027344 56.765625 129.527344 57.875 129.066406 58.996094 L 116.300781 58.996094 C 116.3125 58.625 116.28125 58.234375 116.082031 57.910156 C 115.734375 57.332031 115.125 56.996094 114.554688 56.679688 C 114.707031 56.203125 114.804688 55.714844 114.855469 55.21875 C 114.945312 54.550781 114.90625 53.863281 115.132812 53.21875 C 115.601562 51.589844 116.089844 49.957031 116.328125 48.277344 C 116.539062 46.832031 116.53125 45.34375 116.203125 43.914062 C 116.984375 43.164062 117.410156 42.121094 117.652344 41.082031 C 119.269531 40.5625 120.507812 39.328125 121.59375 38.074219 C 122.425781 38.210938 123.296875 38.085938 124.0625 37.726562 C 125.246094 37.183594 126.203125 36.285156 127.132812 35.402344 C 127.597656 34.941406 128.105469 34.527344 128.539062 34.039062 C 129.242188 33.386719 130.238281 33.261719 131.144531 33.101562 C 131.691406 32.164062 132.328125 31.269531 133.128906 30.535156 C 133.550781 30.140625 134.042969 29.835938 134.488281 29.46875 C 140.890625 24.496094 145.648438 17.5 148.105469 9.789062 C 149.105469 6.617188 149.753906 3.324219 149.914062 0 "/>
</g>
<path style=" stroke:none;fill-rule:nonzero;fill:rgb(8.282471%,9.22699%,16.430664%);fill-opacity:1;" d="M 119.621094 8.4375 C 120.28125 7.957031 120.917969 7.441406 121.542969 6.910156 C 122.054688 7.007812 122.574219 7.042969 123.089844 7.113281 C 126.675781 7.539062 130.269531 8.046875 133.746094 9.035156 C 133.058594 12.71875 131.996094 16.332031 130.636719 19.824219 C 126.652344 18.945312 122.671875 17.976562 118.597656 17.617188 C 119.078125 14.558594 119.449219 11.480469 119.738281 8.398438 L 119.621094 8.4375 "/>
<path style=" stroke:none;fill-rule:nonzero;fill:rgb(8.282471%,9.22699%,16.430664%);fill-opacity:1;" d="M 136.136719 9.742188 C 138.417969 10.285156 140.621094 11.226562 142.535156 12.59375 C 143.117188 13.003906 143.632812 13.53125 143.96875 14.167969 C 144.210938 14.636719 144.34375 15.179688 144.246094 15.707031 C 144.171875 16.148438 143.90625 16.519531 143.699219 16.90625 C 142.09375 19.808594 140.152344 22.539062 137.8125 24.898438 C 137.523438 24.289062 137.171875 23.695312 136.691406 23.214844 C 135.53125 22 133.964844 21.332031 132.460938 20.652344 C 134.078125 17.164062 135.441406 13.53125 136.136719 9.742188 "/>
<path style=" stroke:none;fill-rule:nonzero;fill:rgb(8.282471%,9.22699%,16.430664%);fill-opacity:1;" d="M 108.671875 17.136719 C 111.226562 15.167969 113.75 13.15625 116.257812 11.121094 L 116.308594 11.089844 C 116.367188 13.191406 116.050781 15.28125 115.886719 17.371094 C 113.480469 17.273438 111.074219 17.175781 108.671875 17.136719 "/>
<path style=" stroke:none;fill-rule:nonzero;fill:rgb(8.282471%,9.22699%,16.430664%);fill-opacity:1;" d="M 103.214844 21.441406 C 104.375 20.597656 105.5 19.703125 106.589844 18.765625 C 109.613281 18.796875 112.640625 18.761719 115.664062 18.953125 C 115.304688 21.972656 114.84375 24.988281 114.179688 27.960938 C 110.925781 27.660156 107.648438 27.679688 104.394531 27.953125 C 103.914062 25.800781 103.582031 23.617188 103.214844 21.441406 "/>
<path style=" stroke:none;fill-rule:nonzero;fill:rgb(8.282471%,9.22699%,16.430664%);fill-opacity:1;" d="M 118.320312 19.292969 C 122.265625 19.355469 126.148438 20.1875 129.953125 21.171875 C 128.421875 24.488281 126.375 27.558594 123.925781 30.265625 C 121.421875 29.15625 118.730469 28.5625 116.039062 28.152344 C 117 25.253906 117.644531 22.265625 118.320312 19.292969 "/>
<path style=" stroke:none;fill-rule:nonzero;fill:rgb(8.282471%,9.22699%,16.430664%);fill-opacity:1;" d="M 131.863281 21.851562 C 133.269531 22.199219 134.558594 22.929688 135.691406 23.820312 C 136.136719 24.183594 136.46875 24.699219 136.574219 25.265625 C 136.652344 25.691406 136.546875 26.164062 136.234375 26.476562 C 133.433594 29.25 130.097656 31.425781 126.605469 33.230469 C 126.320312 32.285156 125.722656 31.464844 124.972656 30.835938 C 127.726562 28.226562 129.945312 25.109375 131.863281 21.851562 "/>
<path style=" stroke:none;fill-rule:nonzero;fill:rgb(8.282471%,9.22699%,16.430664%);fill-opacity:1;" d="M 93.566406 29.074219 C 96.105469 27.148438 98.613281 25.171875 101.0625 23.132812 C 101.527344 24.808594 102.035156 26.480469 102.453125 28.171875 C 99.730469 28.554688 97.042969 29.230469 94.496094 30.273438 C 94.175781 29.878906 93.882812 29.46875 93.566406 29.074219 "/>
<path style=" stroke:none;fill-rule:nonzero;fill:rgb(8.282471%,9.22699%,16.430664%);fill-opacity:1;" d="M 104.671875 29.203125 C 107.699219 29 110.742188 29.027344 113.773438 29.167969 C 113.640625 31.296875 112.648438 33.234375 112.15625 35.285156 C 113.132812 34.683594 113.789062 33.707031 114.253906 32.6875 C 114.757812 31.601562 115.101562 30.453125 115.605469 29.371094 C 117.605469 29.558594 119.601562 29.867188 121.542969 30.394531 C 122.082031 30.550781 122.636719 30.683594 123.152344 30.910156 C 121.902344 32.769531 119.585938 33.546875 118.367188 35.433594 C 120.65625 34.5625 122.507812 32.917969 124.378906 31.390625 C 124.867188 31.714844 125.355469 32.109375 125.59375 32.667969 C 125.753906 33.023438 125.671875 33.46875 125.378906 33.734375 C 123.15625 34.828125 120.777344 35.578125 118.367188 36.132812 C 117.96875 35.859375 117.496094 35.671875 117.003906 35.703125 C 116.089844 35.753906 115.273438 36.257812 114.59375 36.835938 C 113.878906 36.585938 113.101562 36.613281 112.386719 36.355469 C 112.058594 36.25 111.8125 35.988281 111.496094 35.851562 C 110.742188 35.5 109.863281 35.527344 109.078125 35.757812 C 108.5625 35.894531 108.113281 36.1875 107.613281 36.359375 C 107.121094 36.558594 106.605469 36.816406 106.058594 36.734375 C 105.65625 36.6875 105.382812 36.34375 104.996094 36.253906 C 104.070312 35.984375 103.136719 36.355469 102.210938 36.421875 C 101.691406 36.484375 101.183594 36.335938 100.683594 36.226562 C 98.0625 35.644531 95.480469 34.832031 93.078125 33.617188 C 92.9375 33.316406 92.917969 32.964844 93.054688 32.660156 C 93.25 32.203125 93.625 31.859375 93.992188 31.539062 C 95.84375 33.035156 97.71875 34.59375 99.976562 35.425781 C 99.910156 35.207031 99.867188 34.976562 99.78125 34.761719 C 98.59375 33.765625 97.28125 32.917969 96.160156 31.84375 C 95.878906 31.546875 95.554688 31.28125 95.351562 30.925781 C 97.769531 30.082031 100.304688 29.695312 102.828125 29.332031 C 103.558594 30.714844 104.03125 32.222656 104.8125 33.578125 C 105.222656 34.285156 105.730469 34.945312 106.359375 35.46875 C 106.050781 33.320312 105.046875 31.34375 104.671875 29.203125 "/>
<path style=" stroke:none;fill-rule:nonzero;fill:rgb(8.282471%,9.22699%,16.430664%);fill-opacity:1;" d="M 89.816406 32.066406 C 90.722656 31.398438 91.601562 30.699219 92.457031 29.972656 C 92.75 30.308594 93.066406 30.632812 93.367188 30.964844 C 92.773438 31.601562 92.292969 32.355469 92.003906 33.179688 C 91.609375 32.976562 91.21875 32.761719 90.828125 32.554688 C 90.484375 32.398438 90.179688 32.152344 89.816406 32.066406 "/>
<path style=" stroke:none;fill-rule:nonzero;fill:rgb(8.282471%,9.22699%,16.430664%);fill-opacity:1;" d="M 74.128906 46.101562 C 71.539062 48.941406 69.109375 51.925781 66.699219 54.917969 C 68.03125 55.015625 69.367188 55.015625 70.703125 54.996094 C 70.976562 54.988281 71.285156 55.074219 71.53125 54.90625 C 71.945312 54.644531 72.121094 54.164062 72.421875 53.796875 C 73.316406 53.730469 74.214844 53.707031 75.113281 53.738281 C 75.054688 54.15625 74.992188 54.578125 74.933594 54.996094 C 76.542969 54.933594 78.160156 55.125 79.761719 54.902344 C 80.289062 51.984375 80.34375 49.007812 80.699219 46.070312 C 78.507812 46.085938 76.316406 46.011719 74.128906 46.101562 Z M 90.816406 46.074219 C 89.550781 49.070312 88.101562 51.980469 86.835938 54.976562 C 88.304688 54.996094 89.773438 55 91.242188 54.972656 C 91.765625 53.820312 92.277344 52.664062 92.792969 51.511719 C 93.441406 52.5625 93.671875 53.792969 94.023438 54.957031 C 95.675781 55.007812 97.332031 54.992188 98.980469 55.011719 C 98.488281 53.671875 97.792969 52.425781 97.207031 51.128906 C 97.753906 51.101562 98.296875 50.972656 98.792969 50.738281 C 99.78125 50.289062 100.589844 49.375 100.761719 48.285156 C 100.800781 47.929688 100.933594 47.566406 100.8125 47.210938 C 100.652344 46.691406 100.152344 46.367188 99.660156 46.203125 C 99.046875 45.976562 98.382812 46.054688 97.746094 46.023438 C 95.433594 45.980469 93.121094 45.96875 90.816406 46.074219 M 84.667969 45.996094 C 83.246094 48.957031 81.90625 51.953125 80.570312 54.953125 C 82.003906 55.007812 83.441406 54.992188 84.875 55.023438 C 86.363281 52.078125 87.671875 49.042969 89.015625 46.027344 C 87.566406 46 86.117188 45.996094 84.667969 45.996094 M 60.03125 55.707031 C 69.570312 48.125 79.15625 40.613281 88.65625 32.984375 C 88.796875 33.339844 89.046875 33.648438 89.359375 33.871094 C 90.136719 34.433594 91.160156 34.503906 91.917969 35.09375 C 92.277344 35.359375 92.472656 35.769531 92.78125 36.085938 C 93.890625 37.332031 95.464844 38.082031 97.085938 38.40625 C 97.277344 38.449219 97.492188 38.453125 97.644531 38.601562 C 98.820312 39.550781 100.140625 40.320312 101.558594 40.855469 C 102.054688 41.351562 102.488281 41.917969 103.050781 42.359375 C 103.363281 42.628906 103.734375 42.8125 104.097656 43.003906 C 104.644531 43.921875 105.464844 44.621094 106.136719 45.441406 C 106.59375 45.988281 106.949219 46.636719 107.0625 47.347656 C 106.351562 48.421875 105.84375 49.625 105.550781 50.875 C 104.902344 53.605469 105.277344 56.640625 106.855469 58.996094 L 56.164062 58.996094 L 56.078125 58.972656 C 57.34375 57.824219 58.679688 56.753906 60.03125 55.707031 "/>
<path style=" stroke:none;fill-rule:nonzero;fill:rgb(8.282471%,9.22699%,16.430664%);fill-opacity:1;" d="M 94.875 35.652344 C 96.3125 36.476562 97.847656 37.21875 99.511719 37.425781 C 100.527344 37.53125 101.246094 38.472656 102.277344 38.519531 C 102.808594 38.554688 103.183594 38.113281 103.675781 38.011719 C 104.855469 37.734375 106.09375 38.398438 107.246094 37.90625 C 107.34375 38.636719 107.25 39.4375 107.644531 40.097656 C 108.007812 40.640625 108.683594 40.816406 109.277344 40.984375 C 109.636719 41.074219 109.980469 41.320312 110.046875 41.707031 C 109.550781 41.675781 109.058594 41.605469 108.558594 41.597656 C 109.132812 42.042969 109.726562 42.464844 110.359375 42.828125 C 110.546875 42.484375 110.882812 42.15625 111.308594 42.210938 C 111.578125 42.261719 111.945312 42.34375 111.988281 42.671875 C 112.167969 43.324219 111.433594 43.820312 110.847656 43.71875 C 111.199219 44.5625 110.398438 45.261719 110.359375 46.078125 C 109.589844 46.113281 108.816406 46.132812 108.042969 46.113281 C 108.109375 46.003906 108.171875 45.894531 108.25 45.789062 C 108.660156 45.65625 109.085938 45.578125 109.503906 45.460938 C 109.546875 45.339844 109.390625 45.261719 109.316406 45.1875 C 108.886719 44.886719 108.304688 44.992188 107.863281 44.71875 C 107.683594 44.609375 107.617188 44.398438 107.59375 44.203125 C 108.203125 44.058594 108.84375 44.160156 109.441406 43.976562 C 109.722656 43.898438 109.953125 43.710938 110.117188 43.476562 C 109.203125 43.359375 108.273438 43.457031 107.367188 43.28125 C 106.777344 43.164062 106.179688 42.914062 105.808594 42.425781 C 105.183594 41.59375 105.160156 40.472656 104.554688 39.632812 C 104.105469 39.070312 103.308594 39.085938 102.652344 39.105469 C 102.796875 39.441406 102.9375 39.777344 103.089844 40.105469 C 102.539062 39.871094 102.011719 39.578125 101.464844 39.339844 C 100.269531 38.785156 99.066406 38.234375 97.949219 37.527344 C 97.164062 37.285156 96.289062 37.269531 95.585938 36.800781 C 95.183594 36.550781 94.933594 36.113281 94.875 35.652344 "/>
<path style=" stroke:none;fill-rule:nonzero;fill:rgb(8.282471%,9.22699%,16.430664%);fill-opacity:1;" d="M 117.863281 37.402344 C 118.234375 37.097656 118.675781 36.867188 119.15625 36.804688 C 119.65625 36.722656 120.160156 36.839844 120.621094 37.023438 C 119.539062 36.976562 118.554688 37.503906 117.613281 37.972656 C 117.074219 38.875 116.253906 39.582031 115.316406 40.050781 C 115.371094 39.191406 115.34375 38.332031 115.257812 37.476562 C 116.105469 37.296875 117.03125 37.015625 117.863281 37.402344 "/>
<path style=" stroke:none;fill-rule:nonzero;fill:rgb(8.282471%,9.22699%,16.430664%);fill-opacity:1;" d="M 112.316406 47.992188 C 112.386719 46.6875 112.335938 45.300781 112.988281 44.121094 C 113.121094 45.324219 113.523438 46.46875 113.667969 47.671875 C 113.765625 48.390625 113.660156 49.117188 113.628906 49.839844 C 113.511719 51.734375 113.34375 53.636719 112.933594 55.492188 C 112.449219 56.652344 111.527344 57.679688 111.53125 59 L 109.699219 59 C 109.804688 58.300781 109.972656 57.609375 110.113281 56.917969 C 110.46875 55.339844 110.90625 53.761719 111.703125 52.34375 C 111.894531 53.363281 112.097656 54.382812 112.390625 55.375 C 112.894531 54.78125 113.148438 54 113.144531 53.222656 C 113.167969 52.03125 112.792969 50.886719 112.539062 49.738281 C 112.410156 49.164062 112.25 48.582031 112.316406 47.992188 "/>
<path style=" stroke:none;fill-rule:nonzero;fill:rgb(8.282471%,9.22699%,16.430664%);fill-opacity:1;" d="M 8.480469 51.226562 C 9.113281 51.230469 9.75 51.246094 10.382812 51.242188 C 10.644531 49.980469 10.921875 48.722656 11.261719 47.480469 C 10.210938 48.636719 9.382812 49.960938 8.480469 51.226562 Z M 2.832031 51.667969 C 4.78125 49.28125 6.707031 46.875 8.699219 44.523438 C 11.214844 44.5625 13.730469 44.535156 16.246094 44.550781 C 15.882812 48.105469 15.554688 51.667969 15.160156 55.21875 C 13.261719 55.214844 11.363281 55.234375 9.464844 55.179688 C 9.566406 54.699219 9.699219 54.226562 9.808594 53.746094 C 8.824219 53.730469 7.839844 53.667969 6.859375 53.691406 C 6.460938 54.164062 6.132812 54.695312 5.757812 55.1875 C 3.839844 55.246094 1.917969 55.207031 0 55.199219 L 0 55.121094 C 0.933594 53.960938 1.898438 52.828125 2.832031 51.667969 "/>
<path style=" stroke:none;fill-rule:nonzero;fill:rgb(8.282471%,9.22699%,16.430664%);fill-opacity:1;" d="M 52.800781 46.570312 C 53.945312 46.050781 55.210938 45.921875 56.449219 45.835938 C 57.453125 45.804688 58.457031 45.820312 59.460938 45.835938 C 60.382812 45.894531 61.324219 46.023438 62.167969 46.429688 C 62.917969 46.734375 63.1875 47.769531 62.789062 48.445312 C 62.703125 48.558594 62.609375 48.714844 62.453125 48.710938 C 60.949219 48.773438 59.441406 48.773438 57.941406 48.664062 C 57.929688 48.40625 57.878906 48.152344 57.84375 47.894531 C 57.3125 47.71875 56.679688 47.800781 56.214844 48.117188 C 55.914062 48.3125 55.808594 48.738281 56.015625 49.039062 C 57.617188 49.585938 59.421875 49.222656 60.953125 50.019531 C 60.957031 50.023438 60.964844 50.03125 60.96875 50.03125 C 61.460938 50.234375 61.691406 50.792969 61.660156 51.300781 C 61.613281 51.894531 61.328125 52.4375 60.992188 52.917969 C 60.269531 53.988281 59.058594 54.636719 57.835938 54.957031 C 56.175781 55.382812 54.453125 55.40625 52.753906 55.363281 C 51.417969 55.300781 49.976562 55.179688 48.890625 54.3125 C 48.421875 53.949219 48.445312 53.277344 48.582031 52.757812 C 48.628906 52.644531 48.628906 52.476562 48.734375 52.410156 C 50.328125 52.480469 51.929688 52.4375 53.527344 52.453125 C 53.523438 52.5625 53.535156 52.675781 53.5625 52.789062 C 53.566406 52.792969 53.570312 52.804688 53.570312 52.8125 C 53.675781 53.226562 54.144531 53.386719 54.53125 53.375 C 54.941406 53.335938 55.375 53.195312 55.621094 52.847656 C 55.761719 52.644531 55.765625 52.386719 55.679688 52.160156 C 54.351562 51.71875 52.921875 51.71875 51.609375 51.230469 C 51.164062 51.042969 50.65625 50.835938 50.433594 50.375 C 50.191406 49.898438 50.292969 49.335938 50.480469 48.863281 C 50.90625 47.828125 51.789062 47.023438 52.800781 46.570312 "/>
<path style=" stroke:none;fill-rule:nonzero;fill:rgb(8.282471%,9.22699%,16.430664%);fill-opacity:1;" d="M 43.332031 49.019531 C 43.328125 49.023438 43.324219 49.03125 43.320312 49.03125 C 42.695312 49.957031 41.96875 50.820312 41.496094 51.839844 C 42.023438 51.804688 42.550781 51.785156 43.078125 51.777344 C 43.386719 50.6875 43.542969 49.554688 43.691406 48.429688 C 43.578125 48.632812 43.460938 48.828125 43.332031 49.019531 Z M 17.644531 46.441406 C 17.84375 46.132812 18.1875 45.917969 18.558594 45.921875 C 19.070312 45.972656 19.589844 45.960938 20.105469 45.964844 C 24.960938 45.980469 29.816406 45.957031 34.675781 45.988281 C 33.628906 48.324219 32.554688 50.644531 31.4375 52.949219 C 32.8125 53.019531 34.1875 52.988281 35.558594 52.996094 C 37.503906 50.707031 39.441406 48.414062 41.347656 46.09375 C 41.414062 45.980469 41.5625 46.023438 41.667969 46.011719 C 43.875 45.964844 46.082031 45.996094 48.289062 45.984375 C 48.070312 48.730469 47.824219 51.476562 47.523438 54.214844 C 47.507812 54.550781 47.429688 54.882812 47.429688 55.21875 C 45.742188 55.214844 44.054688 55.210938 42.371094 55.222656 C 42.441406 54.789062 42.5 54.347656 42.542969 53.90625 C 41.609375 53.894531 40.679688 53.925781 39.75 53.988281 C 39.480469 54.382812 39.253906 54.792969 38.984375 55.183594 C 35.027344 55.265625 31.066406 55.199219 27.109375 55.234375 C 26.644531 55.234375 26.179688 55.238281 25.710938 55.230469 C 26.71875 52.863281 27.90625 50.574219 28.882812 48.195312 C 27.660156 48.214844 26.433594 48.21875 25.210938 48.195312 C 24.503906 49.648438 23.800781 51.101562 23.144531 52.574219 C 22.738281 53.457031 22.351562 54.34375 21.933594 55.21875 C 20.347656 55.230469 18.765625 55.230469 17.179688 55.21875 C 17.804688 53.847656 18.460938 52.488281 19.085938 51.113281 C 19.53125 50.152344 19.960938 49.175781 20.421875 48.21875 C 19.285156 48.203125 18.148438 48.203125 17.011719 48.234375 C 17.164062 47.621094 17.285156 46.972656 17.644531 46.441406 "/>
<path style=" stroke:none;fill-rule:nonzero;fill:rgb(8.282471%,9.22699%,16.430664%);fill-opacity:1;" d="M 107.570312 47.597656 C 107.679688 47.628906 107.714844 47.746094 107.777344 47.828125 C 108.304688 48.660156 108.757812 49.59375 108.761719 50.601562 C 108.773438 51.195312 108.554688 51.753906 108.359375 52.300781 C 107.878906 53.625 107.355469 55.007812 107.542969 56.441406 C 107.414062 56.335938 107.402344 56.160156 107.351562 56.015625 C 106.863281 54.492188 106.84375 52.867188 107.003906 51.292969 C 107.128906 50.050781 107.363281 48.828125 107.570312 47.597656 "/>
<path style=" stroke:none;fill-rule:nonzero;fill:rgb(8.282471%,9.22699%,16.430664%);fill-opacity:1;" d="M 94.289062 48.210938 C 94.859375 48.210938 95.429688 48.242188 96.003906 48.253906 C 96.0625 48.691406 95.925781 49.160156 95.589844 49.457031 C 95.054688 49.933594 94.300781 50.0625 93.605469 50.039062 C 93.824219 49.425781 94.0625 48.824219 94.289062 48.210938 "/>
<path style=" stroke:none;fill-rule:nonzero;fill:rgb(8.282471%,9.22699%,16.430664%);fill-opacity:1;" d="M 74.015625 51.660156 C 74.722656 50.542969 75.503906 49.472656 76.324219 48.433594 C 76.070312 49.480469 76.03125 50.582031 75.601562 51.582031 C 75.074219 51.632812 74.542969 51.632812 74.015625 51.660156 "/>
<path style=" stroke:none;fill-rule:nonzero;fill:rgb(96.66748%,55.2948%,6.663513%);fill-opacity:1;" d="M 107.570312 47.597656 C 107.363281 48.828125 107.128906 50.050781 107.003906 51.292969 C 106.84375 52.867188 106.863281 54.492188 107.351562 56.011719 C 107.40625 56.160156 107.417969 56.335938 107.542969 56.441406 C 107.355469 55.007812 107.882812 53.625 108.363281 52.300781 C 108.558594 51.753906 108.777344 51.195312 108.761719 50.601562 C 108.757812 49.59375 108.304688 48.660156 107.777344 47.828125 C 107.714844 47.746094 107.679688 47.628906 107.570312 47.597656 Z M 117.863281 37.402344 C 117.03125 37.015625 116.105469 37.296875 115.257812 37.476562 C 115.339844 38.332031 115.371094 39.191406 115.316406 40.046875 C 116.25 39.582031 117.074219 38.875 117.613281 37.972656 C 118.554688 37.503906 119.539062 36.976562 120.621094 37.019531 C 120.160156 36.839844 119.65625 36.722656 119.15625 36.800781 C 118.675781 36.867188 118.234375 37.097656 117.863281 37.402344 M 94.875 35.652344 C 94.933594 36.113281 95.183594 36.550781 95.582031 36.800781 C 96.289062 37.269531 97.164062 37.285156 97.949219 37.527344 C 99.0625 38.234375 100.265625 38.785156 101.460938 39.339844 C 102.011719 39.578125 102.539062 39.871094 103.089844 40.109375 C 102.9375 39.777344 102.796875 39.441406 102.652344 39.105469 C 103.308594 39.082031 104.101562 39.070312 104.550781 39.628906 C 105.160156 40.472656 105.183594 41.59375 105.804688 42.425781 C 106.179688 42.914062 106.777344 43.164062 107.363281 43.28125 C 108.273438 43.453125 109.203125 43.359375 110.113281 43.472656 C 109.953125 43.710938 109.722656 43.898438 109.441406 43.976562 C 108.839844 44.160156 108.199219 44.058594 107.589844 44.203125 C 107.617188 44.398438 107.683594 44.609375 107.859375 44.71875 C 108.304688 44.992188 108.882812 44.886719 109.316406 45.1875 C 109.386719 45.261719 109.542969 45.339844 109.5 45.460938 C 109.085938 45.578125 108.65625 45.652344 108.246094 45.789062 C 108.167969 45.894531 108.105469 46.003906 108.039062 46.113281 C 108.8125 46.132812 109.585938 46.113281 110.359375 46.074219 C 110.394531 45.261719 111.195312 44.5625 110.84375 43.71875 C 111.429688 43.816406 112.164062 43.324219 111.984375 42.671875 C 111.941406 42.34375 111.578125 42.257812 111.304688 42.210938 C 110.878906 42.152344 110.546875 42.484375 110.355469 42.828125 C 109.726562 42.464844 109.128906 42.042969 108.558594 41.597656 C 109.054688 41.601562 109.546875 41.675781 110.042969 41.707031 C 109.976562 41.320312 109.636719 41.074219 109.277344 40.980469 C 108.679688 40.816406 108.007812 40.640625 107.640625 40.09375 C 107.246094 39.4375 107.339844 38.636719 107.246094 37.902344 C 106.089844 38.398438 104.855469 37.734375 103.675781 38.011719 C 103.183594 38.109375 102.808594 38.554688 102.277344 38.515625 C 101.246094 38.472656 100.527344 37.53125 99.507812 37.421875 C 97.847656 37.21875 96.3125 36.476562 94.875 35.652344 M 104.671875 29.203125 C 105.046875 31.34375 106.050781 33.320312 106.359375 35.472656 C 105.730469 34.949219 105.222656 34.289062 104.8125 33.582031 C 104.027344 32.226562 103.558594 30.71875 102.828125 29.335938 C 100.304688 29.699219 97.765625 30.089844 95.351562 30.929688 C 95.550781 31.28125 95.878906 31.550781 96.15625 31.847656 C 97.28125 32.921875 98.589844 33.769531 99.777344 34.769531 C 99.863281 34.980469 99.90625 35.210938 99.972656 35.433594 C 97.71875 34.59375 95.839844 33.039062 93.992188 31.542969 C 93.621094 31.863281 93.246094 32.207031 93.050781 32.660156 C 92.917969 32.96875 92.9375 33.320312 93.078125 33.621094 C 95.476562 34.835938 98.058594 35.648438 100.679688 36.230469 C 101.183594 36.339844 101.6875 36.484375 102.207031 36.425781 C 103.132812 36.359375 104.070312 35.988281 104.992188 36.261719 C 105.378906 36.347656 105.65625 36.691406 106.058594 36.738281 C 106.605469 36.820312 107.117188 36.558594 107.613281 36.363281 C 108.113281 36.191406 108.5625 35.898438 109.078125 35.761719 C 109.863281 35.53125 110.742188 35.503906 111.492188 35.855469 C 111.808594 35.992188 112.054688 36.253906 112.386719 36.363281 C 113.097656 36.617188 113.878906 36.589844 114.59375 36.84375 C 115.269531 36.261719 116.089844 35.757812 117.003906 35.707031 C 117.492188 35.675781 117.96875 35.863281 118.363281 36.136719 C 120.777344 35.582031 123.152344 34.832031 125.378906 33.738281 C 125.667969 33.472656 125.753906 33.027344 125.589844 32.667969 C 125.351562 32.113281 124.867188 31.71875 124.375 31.394531 C 122.507812 32.921875 120.652344 34.566406 118.367188 35.4375 C 119.585938 33.550781 121.898438 32.773438 123.148438 30.910156 C 122.632812 30.6875 122.082031 30.554688 121.539062 30.398438 C 119.601562 29.871094 117.605469 29.5625 115.605469 29.375 C 115.101562 30.457031 114.753906 31.605469 114.25 32.691406 C 113.785156 33.710938 113.128906 34.6875 112.15625 35.289062 C 112.648438 33.238281 113.640625 31.300781 113.773438 29.171875 C 110.742188 29.027344 107.699219 29 104.671875 29.203125 M 131.863281 21.851562 C 129.945312 25.109375 127.726562 28.226562 124.972656 30.835938 C 125.722656 31.464844 126.320312 32.285156 126.605469 33.230469 C 130.097656 31.425781 133.433594 29.253906 136.234375 26.476562 C 136.546875 26.164062 136.652344 25.691406 136.574219 25.265625 C 136.46875 24.699219 136.136719 24.183594 135.691406 23.820312 C 134.558594 22.929688 133.269531 22.199219 131.863281 21.851562 M 118.320312 19.292969 C 117.644531 22.265625 117 25.253906 116.039062 28.152344 C 118.730469 28.5625 121.421875 29.15625 123.925781 30.265625 C 126.375 27.558594 128.425781 24.488281 129.953125 21.171875 C 126.148438 20.1875 122.265625 19.355469 118.320312 19.292969 M 136.136719 9.742188 C 135.441406 13.53125 134.078125 17.164062 132.460938 20.652344 C 133.960938 21.332031 135.53125 22 136.6875 23.214844 C 137.171875 23.695312 137.519531 24.289062 137.8125 24.898438 C 140.152344 22.539062 142.09375 19.808594 143.699219 16.90625 C 143.90625 16.519531 144.171875 16.148438 144.242188 15.707031 C 144.34375 15.179688 144.210938 14.636719 143.964844 14.167969 C 143.632812 13.53125 143.117188 13.003906 142.53125 12.59375 C 140.621094 11.226562 138.417969 10.285156 136.136719 9.742188 M 134.566406 0 L 137.28125 0 C 137.210938 2.667969 136.957031 5.339844 136.507812 7.972656 C 138.039062 8.59375 139.601562 9.175781 141.050781 9.980469 C 142.738281 10.898438 144.308594 12.171875 145.21875 13.894531 C 147.128906 9.511719 148.355469 4.792969 148.496094 0 L 149.914062 0 C 149.753906 3.324219 149.109375 6.617188 148.105469 9.785156 C 145.652344 17.5 140.890625 24.492188 134.488281 29.46875 C 134.042969 29.835938 133.550781 30.140625 133.132812 30.535156 C 132.328125 31.269531 131.691406 32.164062 131.144531 33.101562 C 130.238281 33.261719 129.242188 33.382812 128.539062 34.039062 C 128.105469 34.527344 127.597656 34.941406 127.132812 35.402344 C 126.203125 36.285156 125.242188 37.183594 124.0625 37.722656 C 123.296875 38.082031 122.429688 38.210938 121.59375 38.074219 C 120.507812 39.328125 119.269531 40.5625 117.65625 41.082031 C 117.410156 42.121094 116.988281 43.164062 116.203125 43.914062 C 116.535156 45.34375 116.539062 46.828125 116.328125 48.277344 C 116.089844 49.957031 115.605469 51.589844 115.132812 53.21875 C 114.90625 53.863281 114.945312 54.550781 114.855469 55.21875 C 114.808594 55.714844 114.707031 56.203125 114.554688 56.679688 C 115.125 56.992188 115.738281 57.332031 116.082031 57.910156 C 116.28125 58.234375 116.3125 58.625 116.300781 58.996094 L 111.53125 58.996094 C 111.527344 57.679688 112.453125 56.652344 112.933594 55.492188 C 113.347656 53.636719 113.515625 51.734375 113.628906 49.835938 C 113.660156 49.117188 113.769531 48.390625 113.667969 47.667969 C 113.523438 46.46875 113.121094 45.320312 112.992188 44.121094 C 112.339844 45.296875 112.386719 46.6875 112.316406 47.988281 C 112.253906 48.582031 112.410156 49.164062 112.539062 49.738281 C 112.796875 50.886719 113.167969 52.03125 113.148438 53.21875 C 113.148438 53.996094 112.898438 54.777344 112.394531 55.375 C 112.101562 54.375 111.894531 53.359375 111.703125 52.339844 C 110.910156 53.757812 110.46875 55.335938 110.117188 56.914062 C 109.972656 57.605469 109.808594 58.296875 109.699219 58.996094 L 106.855469 58.996094 C 105.277344 56.636719 104.902344 53.605469 105.550781 50.871094 C 105.84375 49.621094 106.351562 48.417969 107.0625 47.347656 C 106.949219 46.636719 106.59375 45.988281 106.136719 45.441406 C 105.464844 44.621094 104.644531 43.917969 104.097656 43.003906 C 103.734375 42.8125 103.363281 42.625 103.050781 42.355469 C 102.488281 41.917969 102.054688 41.351562 101.554688 40.855469 C 100.140625 40.320312 98.820312 39.550781 97.644531 38.597656 C 97.492188 38.449219 97.277344 38.449219 97.085938 38.40625 C 95.46875 38.082031 93.890625 37.332031 92.78125 36.085938 C 92.472656 35.769531 92.277344 35.359375 91.917969 35.09375 C 91.160156 34.503906 90.136719 34.429688 89.355469 33.867188 C 89.046875 33.644531 88.796875 33.335938 88.65625 32.980469 C 89.035156 32.667969 89.421875 32.359375 89.816406 32.0625 C 90.179688 32.152344 90.484375 32.398438 90.828125 32.550781 C 91.21875 32.761719 91.609375 32.972656 92.003906 33.175781 C 92.292969 32.351562 92.773438 31.601562 93.367188 30.964844 C 93.066406 30.632812 92.753906 30.308594 92.457031 29.972656 C 92.820312 29.664062 93.191406 29.363281 93.566406 29.074219 C 93.882812 29.46875 94.179688 29.878906 94.496094 30.273438 C 97.042969 29.226562 99.730469 28.554688 102.453125 28.167969 C 102.035156 26.476562 101.527344 24.808594 101.0625 23.128906 C 101.757812 22.539062 102.472656 21.976562 103.214844 21.441406 C 103.582031 23.613281 103.917969 25.796875 104.398438 27.953125 C 107.652344 27.679688 110.929688 27.65625 114.179688 27.957031 C 114.84375 24.988281 115.304688 21.972656 115.664062 18.953125 C 112.644531 18.761719 109.613281 18.796875 106.589844 18.765625 C 107.25 18.179688 107.941406 17.632812 108.671875 17.132812 C 111.078125 17.175781 113.480469 17.273438 115.886719 17.371094 C 116.054688 15.277344 116.367188 13.191406 116.308594 11.089844 L 116.257812 11.121094 C 117.332031 10.171875 118.445312 9.261719 119.621094 8.4375 L 119.738281 8.398438 C 119.449219 11.480469 119.082031 14.554688 118.597656 17.613281 C 122.671875 17.972656 126.652344 18.945312 130.636719 19.820312 C 131.996094 16.328125 133.058594 12.71875 133.75 9.035156 C 130.269531 8.046875 126.679688 7.535156 123.09375 7.113281 C 122.574219 7.042969 122.054688 7.007812 121.542969 6.910156 C 122.183594 6.355469 122.851562 5.835938 123.535156 5.34375 C 127.109375 5.40625 130.5625 6.445312 134.03125 7.183594 C 134.296875 4.796875 134.519531 2.402344 134.566406 0 "/>
<path style=" stroke:none;fill-rule:nonzero;fill:rgb(96.66748%,55.2948%,6.663513%);fill-opacity:1;" d="M 84.667969 45.996094 C 86.117188 45.996094 87.566406 46.003906 89.015625 46.027344 C 87.671875 49.042969 86.363281 52.078125 84.875 55.023438 C 83.441406 54.992188 82.003906 55.007812 80.570312 54.953125 C 81.90625 51.953125 83.246094 48.957031 84.667969 45.996094 "/>
<path style=" stroke:none;fill-rule:nonzero;fill:rgb(96.66748%,55.2948%,6.663513%);fill-opacity:1;" d="M 94.289062 48.210938 C 94.0625 48.824219 93.824219 49.425781 93.605469 50.039062 C 94.300781 50.0625 95.054688 49.933594 95.589844 49.457031 C 95.925781 49.160156 96.0625 48.691406 96.003906 48.253906 C 95.429688 48.242188 94.859375 48.210938 94.289062 48.210938 Z M 90.816406 46.074219 C 93.121094 45.96875 95.433594 45.976562 97.742188 46.023438 C 98.382812 46.054688 99.046875 45.976562 99.660156 46.203125 C 100.148438 46.367188 100.648438 46.691406 100.8125 47.210938 C 100.933594 47.566406 100.800781 47.929688 100.761719 48.285156 C 100.589844 49.375 99.78125 50.289062 98.792969 50.738281 C 98.296875 50.972656 97.75 51.101562 97.203125 51.128906 C 97.792969 52.425781 98.484375 53.671875 98.980469 55.011719 C 97.328125 54.992188 95.675781 55.007812 94.023438 54.957031 C 93.667969 53.792969 93.4375 52.5625 92.792969 51.511719 C 92.277344 52.664062 91.765625 53.820312 91.242188 54.972656 C 89.773438 55 88.300781 54.996094 86.832031 54.976562 C 88.101562 51.980469 89.550781 49.070312 90.816406 46.074219 "/>
<path style=" stroke:none;fill-rule:nonzero;fill:rgb(96.66748%,55.2948%,6.663513%);fill-opacity:1;" d="M 74.015625 51.660156 C 74.542969 51.632812 75.074219 51.632812 75.601562 51.582031 C 76.03125 50.582031 76.070312 49.480469 76.324219 48.433594 C 75.503906 49.472656 74.722656 50.542969 74.015625 51.660156 Z M 74.128906 46.101562 C 76.316406 46.011719 78.507812 46.085938 80.699219 46.070312 C 80.347656 49.011719 80.289062 51.984375 79.765625 54.902344 C 78.164062 55.125 76.542969 54.933594 74.9375 55 C 74.992188 54.578125 75.054688 54.160156 75.113281 53.738281 C 74.21875 53.707031 73.320312 53.730469 72.421875 53.800781 C 72.125 54.167969 71.945312 54.644531 71.53125 54.90625 C 71.285156 55.074219 70.980469 54.988281 70.703125 54.996094 C 69.367188 55.015625 68.03125 55.015625 66.699219 54.921875 C 69.109375 51.925781 71.539062 48.941406 74.128906 46.101562 "/>
<path style=" stroke:none;fill-rule:nonzero;fill:rgb(96.66748%,55.2948%,6.663513%);fill-opacity:1;" d="M 43.320312 49.03125 C 43.324219 49.03125 43.328125 49.023438 43.332031 49.019531 C 43.328125 49.023438 43.324219 49.03125 43.320312 49.03125 "/>
<path style=" stroke:none;fill-rule:nonzero;fill:rgb(96.66748%,55.2948%,6.663513%);fill-opacity:1;" d="M 60.953125 50.023438 C 60.957031 50.023438 60.964844 50.03125 60.96875 50.03125 C 60.964844 50.03125 60.957031 50.023438 60.953125 50.023438 "/>
<path style=" stroke:none;fill-rule:nonzero;fill:rgb(96.66748%,55.2948%,6.663513%);fill-opacity:1;" d="M 53.566406 52.789062 C 53.566406 52.792969 53.570312 52.804688 53.570312 52.8125 C 53.570312 52.804688 53.566406 52.792969 53.566406 52.789062 "/>
</g>
</svg>
