<?xml version="1.0" encoding="UTF-8"?>
<svg xmlns="http://www.w3.org/2000/svg" xmlns:xlink="http://www.w3.org/1999/xlink" width="176pt" height="57.24pt" viewBox="0 0 176 57.24" version="1.1">
<defs>
<clipPath id="clip1">
  <path d="M 26 27 L 145 27 L 145 57.238281 L 26 57.238281 Z M 26 27 "/>
</clipPath>
</defs>
<g id="surface1">
<path style=" stroke:none;fill-rule:nonzero;fill:rgb(73.431396%,15.19928%,24.497986%);fill-opacity:1;" d="M 80.015625 30.3125 C 80.113281 30.246094 80.210938 30.121094 80.304688 30.121094 C 81.558594 30.109375 82.8125 30.113281 84.164062 30.113281 C 84.164062 30.730469 84.164062 31.304688 84.164062 32.046875 C 84.582031 31.808594 84.863281 31.667969 85.125 31.496094 C 86.363281 30.679688 87.667969 30.023438 89.125 29.664062 C 91.164062 29.164062 93.15625 29.210938 95.09375 30.042969 C 96.070312 30.464844 96.921875 31.078125 97.507812 32.003906 C 97.660156 32.25 97.839844 32.480469 98.046875 32.777344 C 98.679688 32.371094 99.296875 32.003906 99.878906 31.585938 C 102.210938 29.910156 104.820312 29.164062 107.664062 29.359375 C 110.855469 29.585938 113.359375 31.683594 113.964844 34.765625 C 114.0625 35.277344 114.15625 35.800781 114.167969 36.320312 C 114.195312 37.90625 114.175781 39.492188 114.175781 41.167969 C 112.863281 41.898438 111.382812 42.277344 109.886719 42.828125 C 109.859375 42.558594 109.820312 42.34375 109.820312 42.125 C 109.8125 40.507812 109.773438 38.886719 109.828125 37.269531 C 109.902344 35.019531 108.050781 33.648438 106.207031 33.476562 C 104.210938 33.289062 102.476562 34.027344 100.816406 35.023438 C 100.539062 35.191406 100.296875 35.433594 100.003906 35.574219 C 99.269531 35.925781 99.089844 36.511719 99.101562 37.273438 C 99.136719 38.992188 99.113281 40.710938 99.113281 42.429688 C 99.113281 43.617188 99.113281 44.808594 99.113281 46.105469 C 97.816406 46.628906 96.429688 46.894531 94.933594 47.230469 C 94.933594 46.796875 94.933594 46.476562 94.933594 46.152344 C 94.9375 43.445312 94.953125 40.734375 94.9375 38.027344 C 94.933594 37.472656 94.839844 36.917969 94.753906 36.371094 C 94.511719 34.8125 93.128906 33.65625 91.433594 33.492188 C 88.871094 33.242188 86.679688 34.195312 84.6875 35.714844 C 84.488281 35.871094 84.355469 36.113281 84.171875 36.335938 C 84.171875 40.726562 84.171875 45.113281 84.171875 49.585938 C 82.855469 49.898438 81.558594 50.144531 80.238281 50.265625 C 80.257812 50.042969 80.148438 49.953125 79.933594 49.964844 C 79.953125 49.449219 79.984375 48.933594 79.988281 48.417969 C 79.992188 43.875 80 39.332031 79.988281 34.789062 C 79.984375 33.542969 79.90625 32.300781 79.878906 31.054688 C 79.875 30.871094 79.949219 30.6875 79.988281 30.503906 C 80.054688 30.480469 80.125 30.457031 80.234375 30.421875 C 80.125 30.367188 80.070312 30.339844 80.015625 30.3125 "/>
<path style=" stroke:none;fill-rule:nonzero;fill:rgb(73.448181%,14.94751%,24.142456%);fill-opacity:1;" d="M 32.253906 25.285156 C 31.871094 25.734375 31.425781 26.140625 31.121094 26.636719 C 29.9375 28.5625 29.320312 30.675781 29.03125 32.917969 C 28.835938 34.433594 28.804688 35.945312 28.886719 37.453125 C 29.050781 40.476562 29.773438 43.355469 31.652344 45.808594 C 33.246094 47.890625 35.375 49.1875 37.933594 49.78125 C 39.417969 50.125 40.917969 50.234375 42.4375 50.175781 C 45.042969 50.070312 47.460938 49.324219 49.722656 48.042969 C 51.136719 47.242188 52.40625 46.257812 53.519531 45.074219 C 53.628906 44.960938 53.761719 44.867188 53.859375 44.785156 C 53.945312 44.816406 53.976562 44.820312 53.996094 44.835938 C 54.019531 44.859375 54.042969 44.894531 54.042969 44.925781 C 54.042969 47.003906 54.042969 49.082031 54.042969 51.207031 C 52.921875 51.914062 51.652344 52.359375 50.445312 52.9375 C 49.125 53.566406 47.714844 53.570312 46.320312 53.6875 C 45.464844 53.761719 44.601562 53.710938 43.742188 53.738281 C 41.769531 53.792969 39.789062 53.828125 37.816406 53.933594 C 36.574219 54 35.398438 53.789062 34.265625 53.308594 C 32.320312 52.472656 30.515625 51.40625 28.972656 49.941406 C 26.695312 47.777344 25.289062 45.101562 24.523438 42.082031 C 24.152344 40.621094 23.90625 39.132812 23.875 37.617188 C 23.859375 36.765625 23.714844 35.910156 23.75 35.0625 C 23.886719 31.863281 24.4375 28.757812 25.929688 25.875 C 27.789062 22.289062 30.667969 19.878906 34.402344 18.441406 C 34.519531 18.398438 34.664062 18.414062 34.792969 18.402344 C 34.214844 19.097656 33.59375 19.765625 33.058594 20.496094 C 31.992188 21.945312 31.722656 23.554688 32.253906 25.285156 "/>
<path style=" stroke:none;fill-rule:nonzero;fill:rgb(12.409973%,11.756897%,10.316467%);fill-opacity:1;" d="M 37.972656 17.59375 C 38.011719 17.261719 38.113281 16.917969 37.835938 16.472656 C 37.398438 16.957031 37.019531 17.375 36.640625 17.796875 C 35.828125 18.632812 35.003906 19.457031 34.207031 20.308594 C 33.125 21.460938 32.636719 22.820312 32.859375 24.410156 C 32.867188 24.539062 32.839844 24.679688 32.882812 24.796875 C 33.226562 25.722656 33.886719 25.996094 34.730469 25.503906 C 35.117188 25.277344 35.523438 24.980469 35.75 24.613281 C 36.222656 23.839844 36.582031 23 36.988281 22.1875 C 37.054688 22.125 37.160156 22.074219 37.179688 22 C 37.328125 21.414062 37.421875 20.8125 37.609375 20.238281 C 37.894531 19.375 38.078125 18.507812 37.972656 17.59375 Z M 27.667969 12.152344 C 27.738281 11.976562 27.84375 11.800781 27.867188 11.617188 C 27.992188 10.742188 28.140625 9.867188 28.195312 8.984375 C 28.332031 6.867188 28.386719 4.746094 28 2.597656 C 27.601562 3.019531 27.246094 3.394531 26.785156 3.882812 C 26.917969 5.515625 27.058594 7.25 27.207031 8.980469 C 27.296875 9.996094 27.402344 11.007812 27.5 12.023438 C 27.515625 12.089844 27.53125 12.160156 27.546875 12.226562 C 27.589844 12.203125 27.628906 12.175781 27.667969 12.152344 Z M 32.253906 25.285156 C 31.722656 23.554688 31.992188 21.945312 33.058594 20.496094 C 33.59375 19.765625 34.214844 19.097656 34.792969 18.402344 C 35.824219 17.347656 36.855469 16.292969 37.972656 15.152344 C 38.117188 14.320312 37.863281 13.390625 37.734375 12.460938 C 37.59375 11.460938 37.382812 10.46875 37.207031 9.476562 C 37.191406 9.296875 37.175781 9.117188 37.164062 8.9375 C 37.125 8.933594 37.085938 8.933594 37.046875 8.929688 C 37.023438 9.101562 37 9.273438 36.976562 9.445312 C 36.992188 10.863281 36.992188 12.28125 36.578125 13.660156 C 36.402344 14.234375 36.148438 14.761719 35.71875 15.191406 C 34.695312 16.207031 33.511719 16.074219 32.75 14.851562 C 32.667969 14.722656 32.59375 14.589844 32.441406 14.339844 C 32.347656 14.882812 32.273438 15.296875 32.207031 15.710938 C 31.992188 17.039062 31.308594 18.015625 30.070312 18.589844 C 29.433594 18.882812 28.832031 18.816406 28.335938 18.339844 C 28.011719 18.023438 27.671875 17.652344 27.519531 17.242188 C 27.082031 16.078125 26.636719 14.898438 26.382812 13.6875 C 26.003906 11.890625 25.761719 10.0625 25.515625 8.238281 C 25.359375 7.070312 25.3125 5.886719 25.210938 4.695312 C 23.128906 5 21.066406 5.300781 18.894531 5.621094 C 18.4375 8.210938 18.925781 10.820312 19.320312 13.507812 C 19.972656 13.421875 20.480469 13.128906 20.980469 12.847656 C 21.925781 12.316406 22.847656 11.746094 23.789062 11.203125 C 24.03125 11.066406 24.308594 10.984375 24.722656 10.8125 C 24.550781 11.480469 24.238281 11.8125 23.816406 12.074219 C 22.421875 12.941406 21.027344 13.816406 19.5 14.769531 C 19.585938 15.375 19.722656 16.109375 19.792969 16.847656 C 20.046875 19.476562 20.191406 22.101562 19.539062 24.707031 C 18.773438 27.773438 16.960938 30.089844 14.398438 31.84375 C 12.84375 32.90625 11.152344 33.691406 9.238281 33.945312 C 5.617188 34.429688 2.226562 32.671875 0.71875 29.265625 C 0.300781 28.320312 0.046875 27.332031 0.00390625 26.320312 C -0.0390625 25.332031 0.273438 24.386719 0.914062 23.585938 C 1.019531 23.585938 1.128906 23.585938 1.234375 23.589844 C 1.042969 24.246094 0.78125 24.894531 0.667969 25.570312 C 0.210938 28.265625 2.191406 31.285156 4.945312 32.140625 C 7.746094 33.007812 10.414062 32.605469 12.914062 31.132812 C 15.625 29.539062 17.144531 27.054688 17.953125 24.09375 C 18.316406 22.761719 18.539062 21.398438 18.578125 20.011719 C 18.792969 18.882812 18.796875 17.753906 18.578125 16.625 C 18.546875 16.175781 18.515625 15.726562 18.476562 15.203125 C 17.621094 15.457031 16.992188 15.867188 16.394531 16.300781 C 15.785156 16.742188 15.152344 17.207031 14.695312 17.792969 C 14.246094 18.367188 14.011719 19.105469 13.664062 19.804688 C 13.273438 19.59375 13.238281 19.238281 13.273438 18.878906 C 13.414062 17.421875 14.003906 16.203125 15.277344 15.425781 C 16.199219 14.859375 17.175781 14.390625 18.132812 13.878906 C 18.070312 11.15625 18.003906 8.394531 17.933594 5.578125 C 17.882812 5.566406 17.757812 5.507812 17.640625 5.515625 C 15.347656 5.738281 13.054688 5.964844 10.867188 6.75 C 9.398438 7.277344 8.019531 7.960938 6.863281 9.042969 C 5.546875 10.277344 4.710938 11.757812 4.394531 13.546875 C 4.253906 14.339844 4.238281 15.113281 4.4375 15.886719 C 4.816406 17.386719 5.742188 18.257812 7.523438 17.71875 C 9.160156 17.222656 10.070312 16.011719 10.570312 14.46875 C 10.691406 14.09375 10.519531 13.628906 10.523438 13.207031 C 10.523438 13.023438 10.621094 12.84375 10.71875 12.523438 C 11.328125 13.5625 11.175781 14.480469 10.878906 15.339844 C 10.21875 17.246094 8.355469 18.757812 6.199219 18.617188 C 4.703125 18.523438 3.660156 17.804688 3.082031 16.425781 C 2.113281 14.128906 2.59375 11.976562 3.824219 9.9375 C 4.703125 8.484375 6.007812 7.480469 7.5 6.71875 C 9.253906 5.824219 11.152344 5.40625 13.078125 5.15625 C 14.734375 4.9375 16.410156 4.84375 18.171875 4.6875 C 18.269531 4.472656 18.386719 4.175781 18.53125 3.886719 C 18.855469 3.238281 19.382812 2.902344 20.117188 2.921875 C 20.339844 2.925781 20.335938 2.933594 20.667969 3.359375 C 20.269531 3.542969 19.84375 3.6875 19.484375 3.929688 C 19.292969 4.058594 19.214844 4.355469 19.078125 4.59375 C 20.160156 4.875 23.300781 4.242188 25.257812 3.351562 C 25.296875 2.171875 25.429688 0.957031 26.488281 -0.00390625 C 26.765625 -0.00390625 27.117188 -0.00390625 27.46875 -0.00390625 C 28.382812 0.746094 28.558594 1.816406 28.640625 2.851562 C 28.785156 4.660156 28.859375 6.476562 28.828125 8.289062 C 28.804688 9.734375 28.566406 11.171875 28.191406 12.582031 C 27.757812 14.238281 28.328125 15.691406 29.179688 17.058594 C 29.355469 17.335938 29.742188 17.480469 29.972656 17.644531 C 31.09375 17.53125 31.511719 16.78125 31.609375 15.953125 C 31.773438 14.621094 31.953125 13.28125 31.75 11.921875 C 31.628906 11.109375 31.710938 10.273438 31.671875 9.449219 C 31.644531 8.859375 31.542969 8.269531 31.53125 7.679688 C 31.527344 7.261719 31.613281 6.839844 31.667969 6.339844 C 32.285156 5.980469 32.890625 5.628906 33.570312 5.230469 C 33.152344 7.992188 33.511719 10.597656 33.839844 13.195312 C 33.921875 13.855469 34.105469 14.566406 34.839844 14.875 C 35.464844 14.765625 35.691406 14.304688 35.804688 13.828125 C 35.996094 13.03125 36.144531 12.21875 36.242188 11.40625 C 36.5 9.304688 36.289062 7.199219 36.222656 5.097656 C 36.210938 4.703125 36.21875 4.308594 36.21875 3.804688 C 36.789062 3.425781 37.378906 3.035156 38.070312 2.578125 C 38.011719 3.375 37.878906 4.019531 37.933594 4.648438 C 38.03125 5.824219 38.203125 6.996094 38.410156 8.160156 C 38.703125 9.8125 39.054688 11.449219 39.386719 13.089844 C 39.410156 13.210938 39.488281 13.316406 39.582031 13.515625 C 40.734375 12.1875 41.445312 10.746094 41.558594 9.0625 C 41.621094 8.109375 41.566406 7.148438 41.566406 6.1875 C 41.566406 5.867188 41.566406 5.546875 41.757812 5.175781 C 41.851562 5.316406 42.019531 5.449219 42.03125 5.59375 C 42.199219 7.53125 42.433594 9.496094 41.667969 11.355469 C 41.285156 12.285156 40.65625 13.113281 40.132812 13.984375 C 39.914062 14.347656 39.675781 14.699219 39.449219 15.058594 C 39.359375 15.125 39.191406 15.1875 39.1875 15.257812 C 39.171875 15.730469 39.183594 16.203125 39.203125 16.675781 C 39.207031 16.726562 39.339844 16.773438 39.414062 16.820312 C 39.453125 16.980469 39.492188 17.144531 39.53125 17.304688 C 39.484375 17.488281 39.414062 17.664062 39.390625 17.851562 C 39.3125 18.417969 39.269531 18.992188 39.179688 19.554688 C 39.070312 20.242188 38.925781 20.921875 38.792969 21.605469 C 38.5625 22.109375 38.347656 22.625 38.09375 23.117188 C 37.390625 24.488281 36.320312 25.457031 34.90625 26.066406 C 33.972656 26.46875 32.808594 26.261719 32.253906 25.285156 "/>
<path style=" stroke:none;fill-rule:nonzero;fill:rgb(73.455811%,15.252686%,24.079895%);fill-opacity:1;" d="M 72.714844 39.246094 C 72.644531 38.753906 72.585938 38.371094 72.535156 37.992188 C 72.25 35.882812 71.078125 34.46875 69.132812 33.675781 C 67.835938 33.144531 66.511719 33 65.101562 33.253906 C 62.542969 33.714844 60.703125 35.03125 59.738281 37.46875 C 59.523438 38.015625 59.261719 38.609375 59.488281 39.246094 C 63.875 39.246094 68.21875 39.246094 72.714844 39.246094 Z M 76.398438 42.582031 C 75.058594 42.582031 73.902344 42.582031 72.75 42.582031 C 71.03125 42.578125 69.316406 42.589844 67.597656 42.570312 C 66.679688 42.558594 65.761719 42.453125 64.84375 42.457031 C 63.066406 42.464844 61.292969 42.519531 59.464844 42.554688 C 59.234375 43.871094 59.460938 45.070312 59.925781 46.234375 C 60.640625 48.015625 61.984375 49.1875 63.703125 49.914062 C 65.101562 50.503906 66.578125 50.8125 68.113281 50.753906 C 70.046875 50.679688 71.855469 50.171875 73.542969 49.226562 C 74.339844 48.777344 75.152344 48.367188 76.046875 47.886719 C 76.046875 48.953125 76.046875 49.894531 76.046875 50.9375 C 75.121094 51.070312 74.195312 51.207031 73.265625 51.34375 C 72.035156 51.523438 70.808594 51.714844 69.582031 51.882812 C 68.898438 51.976562 68.210938 52.039062 67.527344 52.105469 C 65.957031 52.253906 64.386719 52.394531 62.820312 52.550781 C 62.5625 52.574219 62.308594 52.65625 62.050781 52.699219 C 60.644531 52.9375 59.558594 52.269531 58.59375 51.382812 C 56.917969 49.839844 56 47.855469 55.464844 45.683594 C 54.640625 42.355469 54.949219 39.085938 56.34375 35.976562 C 57.910156 32.496094 60.617188 30.453125 64.457031 29.890625 C 66.628906 29.578125 68.710938 29.746094 70.742188 30.523438 C 73.792969 31.691406 75.6875 33.851562 76.28125 37.113281 C 76.554688 38.605469 76.71875 40.101562 76.625 41.617188 C 76.609375 41.921875 76.488281 42.21875 76.398438 42.582031 "/>
<path style=" stroke:none;fill-rule:nonzero;fill:rgb(19.515991%,29.669189%,49.862671%);fill-opacity:1;" d="M 163.914062 53.683594 C 162.382812 53.957031 160.925781 54.003906 159.425781 53.699219 C 159.425781 44.863281 159.425781 36.050781 159.425781 27.121094 C 160.144531 27.109375 160.859375 27.117188 161.570312 27.117188 C 162.265625 27.117188 162.957031 27.117188 163.699219 27.117188 C 163.960938 28.285156 163.625 29.480469 163.917969 30.746094 C 164.699219 30.21875 165.390625 29.746094 166.089844 29.289062 C 167.386719 28.441406 168.738281 27.710938 170.242188 27.289062 C 172.15625 26.753906 174.0625 26.816406 176 27.339844 C 176 28.859375 176 30.332031 176 31.902344 C 175.277344 31.824219 174.566406 31.800781 173.878906 31.667969 C 172.730469 31.453125 171.605469 31.535156 170.453125 31.664062 C 168.699219 31.859375 167.167969 32.539062 165.742188 33.507812 C 165.039062 33.984375 164.3125 34.453125 163.828125 35.152344 C 163.703125 38.144531 163.761719 52.40625 163.914062 53.683594 "/>
<g clip-path="url(#clip1)" clip-rule="nonzero">
<path style=" stroke:none;fill-rule:nonzero;fill:rgb(10.398865%,10.096741%,8.599854%);fill-opacity:1;" d="M 54.0625 55.507812 C 54.453125 55.457031 54.84375 55.390625 55.234375 55.355469 C 58.453125 55.085938 61.671875 54.847656 64.886719 54.542969 C 67.378906 54.308594 69.867188 54.023438 72.347656 53.699219 C 74.339844 53.441406 76.316406 53.097656 78.300781 52.785156 C 80.023438 52.515625 81.757812 52.292969 83.464844 51.953125 C 86.84375 51.273438 90.21875 50.566406 93.578125 49.800781 C 99.308594 48.492188 104.953125 46.863281 110.5 44.898438 C 115.457031 43.140625 120.300781 41.109375 125.054688 38.851562 C 129.757812 36.613281 134.328125 34.140625 138.734375 31.359375 C 140.511719 30.238281 142.273438 29.085938 144.140625 27.886719 C 144.351562 28.613281 144.542969 29.285156 144.75 30.007812 C 144.492188 30.203125 144.269531 30.390625 144.027344 30.550781 C 140.664062 32.816406 137.160156 34.84375 133.59375 36.765625 C 127.960938 39.800781 122.097656 42.308594 116.085938 44.457031 C 112.347656 45.792969 108.5625 47.003906 104.710938 47.988281 C 102.421875 48.574219 100.15625 49.246094 97.859375 49.804688 C 94.128906 50.71875 90.363281 51.484375 86.578125 52.125 C 83.851562 52.589844 81.128906 53.066406 78.398438 53.480469 C 75.371094 53.9375 72.335938 54.355469 69.300781 54.738281 C 66.394531 55.109375 63.476562 55.429688 60.5625 55.738281 C 59.125 55.890625 57.675781 55.976562 56.234375 56.089844 C 56.078125 55.8125 55.949219 55.84375 55.839844 56.121094 C 55.175781 56.175781 54.515625 56.230469 53.851562 56.285156 C 53.699219 56 53.570312 56.046875 53.460938 56.316406 C 52.082031 56.4375 50.707031 56.585938 49.324219 56.675781 C 47.582031 56.785156 45.832031 56.863281 44.085938 56.925781 C 41.511719 57.019531 38.9375 57.101562 36.363281 57.15625 C 33.984375 57.210938 31.609375 57.234375 29.234375 57.242188 C 28.347656 57.242188 27.460938 57.160156 26.507812 57.113281 C 26.414062 56.84375 26.324219 56.578125 26.234375 56.324219 C 26.582031 56.03125 26.925781 56.15625 27.234375 56.15625 C 31.664062 56.125 36.09375 56.148438 40.519531 56.066406 C 43.886719 56.003906 47.246094 55.8125 50.609375 55.675781 C 51.5 55.640625 52.386719 55.589844 53.277344 55.542969 C 53.640625 55.789062 53.75 55.785156 54.0625 55.507812 "/>
</g>
<path style=" stroke:none;fill-rule:nonzero;fill:rgb(73.448181%,14.94751%,24.142456%);fill-opacity:1;" d="M 134.917969 30.921875 C 133.878906 28.085938 132.835938 25.246094 131.71875 22.195312 C 130.097656 26.773438 128.550781 31.144531 127.003906 35.507812 C 125.121094 36.398438 123.296875 37.265625 121.234375 38.246094 C 122.078125 35.730469 122.914062 33.488281 123.722656 31.234375 C 124.546875 28.921875 125.382812 26.621094 126.207031 24.308594 C 127.019531 22.039062 127.824219 19.765625 128.636719 17.476562 C 130.871094 17.476562 133.046875 17.476562 135.34375 17.476562 C 136.621094 21.074219 137.917969 24.726562 139.203125 28.351562 C 138.40625 29.113281 135.820312 30.667969 134.917969 30.921875 "/>
<path style=" stroke:none;fill-rule:nonzero;fill:rgb(19.981384%,29.977417%,50.256348%);fill-opacity:1;" d="M 143.316406 53.300781 C 143.019531 52.6875 142.671875 52.097656 142.4375 51.464844 C 140.910156 47.328125 139.402344 43.179688 137.898438 39.03125 C 137.6875 38.453125 137.515625 37.863281 137.316406 37.257812 C 138.707031 36.4375 140.03125 35.660156 141.371094 34.875 C 141.753906 35.0625 141.804688 35.449219 141.914062 35.769531 C 143.324219 39.777344 144.722656 43.789062 146.128906 47.796875 C 146.644531 49.273438 147.195312 50.742188 147.703125 52.226562 C 147.816406 52.554688 147.820312 52.921875 147.875 53.269531 C 146.355469 53.277344 144.835938 53.289062 143.316406 53.300781 "/>
<path style=" stroke:none;fill-rule:nonzero;fill:rgb(20.124817%,29.972839%,50.248718%);fill-opacity:1;" d="M 154.011719 33.871094 C 154.011719 40.464844 154.011719 46.933594 154.011719 53.492188 C 153.367188 53.582031 152.714844 53.523438 152.070312 53.535156 C 151.445312 53.542969 150.820312 53.535156 150.140625 53.535156 C 150.140625 46.992188 150.140625 40.5 150.140625 33.925781 C 150.757812 33.808594 151.40625 33.886719 152.050781 33.871094 C 152.675781 33.859375 153.300781 33.871094 154.011719 33.871094 "/>
<path style=" stroke:none;fill-rule:nonzero;fill:rgb(72.979736%,15.054321%,24.165344%);fill-opacity:1;" d="M 38.792969 21.605469 C 38.925781 20.921875 39.070312 20.242188 39.179688 19.554688 C 39.269531 18.992188 39.3125 18.417969 39.390625 17.851562 C 39.414062 17.664062 39.484375 17.488281 39.53125 17.304688 C 41.796875 17 44.039062 17.210938 46.261719 17.648438 C 48.949219 18.179688 51.464844 19.1875 53.886719 20.441406 C 53.941406 20.472656 53.976562 20.535156 54.03125 20.59375 C 54.03125 22.679688 54.03125 24.785156 54.03125 26.890625 C 53.046875 26.078125 52.125 25.226562 51.113281 24.5 C 48.921875 22.929688 46.480469 21.953125 43.800781 21.566406 C 42.355469 21.355469 40.925781 21.308594 39.484375 21.570312 C 39.261719 21.613281 39.023438 21.59375 38.792969 21.605469 "/>
<path style=" stroke:none;fill-rule:nonzero;fill:rgb(10.096741%,9.786987%,8.328247%);fill-opacity:1;" d="M 155.507812 23.042969 C 155.8125 23.042969 156.160156 23.042969 156.589844 23.042969 C 156.542969 23.289062 156.519531 23.472656 156.472656 23.648438 C 156.429688 23.804688 156.363281 23.953125 156.308594 24.105469 C 155.921875 24.347656 155.535156 24.585938 155.085938 24.867188 C 155.5 26.222656 156.554688 27.148438 157.199219 28.421875 C 156.933594 28.664062 156.65625 28.910156 156.3125 29.222656 C 155.519531 28.546875 154.789062 27.941406 154.078125 27.308594 C 153.367188 26.671875 152.683594 26.003906 151.933594 25.304688 C 151.027344 25.660156 150.222656 26.199219 149.410156 26.792969 C 149.804688 27.648438 150.175781 28.445312 150.5625 29.285156 C 150.304688 29.519531 150.097656 29.710938 149.835938 29.949219 C 148.996094 29.082031 148.199219 28.261719 147.382812 27.417969 C 146.851562 26.539062 146.296875 25.617188 145.730469 24.683594 C 145.8125 24.285156 146.074219 24.078125 146.558594 23.933594 C 147.203125 24.503906 147.882812 25.101562 148.515625 25.65625 C 149.253906 25.011719 149.914062 24.425781 150.628906 23.800781 C 150.503906 23.398438 150.445312 23.046875 150.289062 22.742188 C 149.734375 21.660156 149.136719 20.597656 148.566406 19.519531 C 148.386719 19.175781 148.238281 18.816406 148.042969 18.394531 C 148.378906 18.15625 148.652344 17.957031 149 17.707031 C 149.90625 18.679688 150.75 19.589844 151.671875 20.578125 C 152.0625 20.3125 152.421875 20.066406 152.78125 19.820312 C 152.761719 19.777344 152.738281 19.734375 152.722656 19.691406 C 153.066406 19.675781 153.410156 19.65625 153.738281 19.636719 C 154.035156 20.074219 153.765625 20.378906 153.652344 20.6875 C 153.292969 20.941406 152.949219 21.183594 152.554688 21.460938 C 152.753906 21.605469 152.882812 21.699219 153.007812 21.789062 C 153.960938 21.367188 154.886719 20.960938 155.800781 20.554688 C 155.960938 20.703125 156.054688 20.789062 156.136719 20.863281 C 156.136719 20.957031 156.15625 21.027344 156.136719 21.082031 C 155.820312 21.832031 155.261719 22.394531 154.699219 22.953125 C 154.46875 23.183594 154.183594 23.414062 154.5625 23.867188 C 154.847656 23.617188 155.132812 23.371094 155.507812 23.042969 "/>
<path style=" stroke:none;fill-rule:nonzero;fill:rgb(20.4422%,30.279541%,50.645447%);fill-opacity:1;" d="M 120.742188 53.269531 C 119.121094 53.269531 117.578125 53.269531 115.960938 53.269531 C 115.960938 53.105469 115.917969 52.941406 115.964844 52.808594 C 116.769531 50.527344 117.578125 48.25 118.394531 45.964844 C 120.265625 45.222656 122.097656 44.496094 124.140625 43.6875 C 122.953125 47.027344 121.851562 50.144531 120.742188 53.269531 "/>
<path style=" stroke:none;fill-rule:nonzero;fill:rgb(20.874023%,30.708313%,50.700378%);fill-opacity:1;" d="M 114.136719 47.480469 C 114.136719 49.472656 114.136719 51.335938 114.136719 53.25 C 112.722656 53.25 111.324219 53.25 109.871094 53.25 C 109.871094 51.808594 109.871094 50.371094 109.871094 48.835938 C 111.234375 48.402344 112.644531 47.953125 114.136719 47.480469 "/>
<path style=" stroke:none;fill-rule:nonzero;fill:rgb(21.44165%,31.492615%,51.53656%);fill-opacity:1;" d="M 94.953125 53.480469 C 94.953125 53.230469 94.953125 53.039062 94.953125 52.738281 C 96.28125 52.425781 97.628906 52.109375 99.015625 51.785156 C 99.175781 52.339844 99.082031 52.886719 99.09375 53.480469 C 97.714844 53.480469 96.386719 53.480469 94.953125 53.480469 "/>
<path style=" stroke:none;fill-rule:nonzero;fill:rgb(7.913208%,7.484436%,6.442261%);fill-opacity:1;" d="M 39.414062 16.820312 C 39.339844 16.773438 39.207031 16.726562 39.203125 16.675781 C 39.183594 16.203125 39.171875 15.730469 39.1875 15.257812 C 39.191406 15.1875 39.359375 15.125 39.449219 15.058594 C 39.4375 15.644531 39.425781 16.230469 39.414062 16.820312 "/>
<path style=" stroke:none;fill-rule:nonzero;fill:rgb(12.413025%,12.034607%,10.562134%);fill-opacity:1;" d="M 54.0625 55.507812 C 53.75 55.785156 53.640625 55.789062 53.277344 55.542969 C 53.527344 55.273438 53.789062 55.304688 54.0625 55.507812 "/>
<path style=" stroke:none;fill-rule:nonzero;fill:rgb(72.250366%,11.914062%,20.19043%);fill-opacity:1;" d="M 79.933594 49.964844 C 80.148438 49.953125 80.257812 50.042969 80.238281 50.265625 C 79.917969 50.390625 79.835938 50.265625 79.933594 49.964844 "/>
<path style=" stroke:none;fill-rule:nonzero;fill:rgb(12.413025%,12.034607%,10.562134%);fill-opacity:1;" d="M 55.839844 56.121094 C 55.949219 55.84375 56.078125 55.8125 56.234375 56.089844 C 56.117188 56.296875 55.980469 56.246094 55.839844 56.121094 "/>
<path style=" stroke:none;fill-rule:nonzero;fill:rgb(12.413025%,12.034607%,10.562134%);fill-opacity:1;" d="M 53.460938 56.316406 C 53.570312 56.046875 53.699219 56 53.851562 56.285156 C 53.738281 56.5 53.605469 56.496094 53.460938 56.316406 "/>
<path style=" stroke:none;fill-rule:nonzero;fill:rgb(29.804993%,30.171204%,29.100037%);fill-opacity:1;" d="M 36.976562 9.445312 C 37 9.273438 37.023438 9.101562 37.046875 8.929688 C 37.085938 8.933594 37.125 8.933594 37.164062 8.9375 C 37.175781 9.117188 37.191406 9.296875 37.207031 9.476562 C 37.128906 9.464844 37.050781 9.457031 36.976562 9.445312 "/>
<path style=" stroke:none;fill-rule:nonzero;fill:rgb(24.604797%,24.429321%,23.283386%);fill-opacity:1;" d="M 1.234375 23.589844 C 1.128906 23.585938 1.019531 23.585938 0.914062 23.585938 C 1.035156 23.445312 1.160156 23.308594 1.28125 23.167969 L 1.3125 23.203125 C 1.285156 23.332031 1.261719 23.460938 1.234375 23.589844 "/>
<path style=" stroke:none;fill-rule:nonzero;fill:rgb(72.250366%,11.914062%,20.19043%);fill-opacity:1;" d="M 80.015625 30.3125 C 80.070312 30.339844 80.125 30.367188 80.234375 30.421875 C 80.125 30.457031 80.054688 30.480469 79.988281 30.503906 C 79.996094 30.4375 80.003906 30.375 80.015625 30.3125 "/>
<path style=" stroke:none;fill-rule:nonzero;fill:rgb(24.604797%,24.429321%,23.283386%);fill-opacity:1;" d="M 1.28125 23.167969 C 1.3125 23.121094 1.339844 23.074219 1.371094 23.027344 C 1.390625 23.039062 1.410156 23.046875 1.429688 23.058594 C 1.390625 23.105469 1.351562 23.15625 1.3125 23.203125 L 1.28125 23.167969 "/>
<path style=" stroke:none;fill-rule:nonzero;fill:rgb(72.616577%,15.167236%,24.105835%);fill-opacity:1;" d="M 32.859375 24.410156 C 32.636719 22.820312 33.125 21.460938 34.207031 20.308594 C 35.003906 19.457031 35.828125 18.632812 36.640625 17.796875 C 37.082031 17.730469 37.527344 17.660156 37.972656 17.59375 C 38.078125 18.507812 37.894531 19.375 37.609375 20.238281 C 37.421875 20.8125 37.328125 21.414062 37.179688 22 C 37.160156 22.074219 37.054688 22.125 36.988281 22.1875 C 36.859375 22.195312 36.710938 22.167969 36.601562 22.21875 C 35.460938 22.75 34.289062 23.230469 33.351562 24.117188 C 33.21875 24.246094 33.027344 24.3125 32.859375 24.410156 "/>
<path style=" stroke:none;fill-rule:nonzero;fill:rgb(19.113159%,18.353271%,17.123413%);fill-opacity:1;" d="M 27.5 12.023438 C 27.554688 12.066406 27.613281 12.109375 27.667969 12.152344 C 27.628906 12.175781 27.589844 12.203125 27.546875 12.226562 C 27.53125 12.160156 27.515625 12.089844 27.5 12.023438 "/>
</g>
</svg>
