<?xml version="1.0" encoding="UTF-8"?>
<svg xmlns="http://www.w3.org/2000/svg" xmlns:xlink="http://www.w3.org/1999/xlink" width="176pt" height="58.21pt" viewBox="0 0 176 58.21" version="1.1">
<defs>
<clipPath id="clip1">
  <path d="M 0 16 L 65 16 L 65 58.210938 L 0 58.210938 Z M 0 16 "/>
</clipPath>
</defs>
<g id="surface1">
<g clip-path="url(#clip1)" clip-rule="nonzero">
<path style=" stroke:none;fill-rule:nonzero;fill:rgb(89.599609%,11.520386%,14.378357%);fill-opacity:1;" d="M 3.457031 16.214844 L 20.753906 16.214844 C 22.449219 16.214844 23.726562 16.753906 24.230469 19.160156 C 24.789062 21.839844 24.558594 23.703125 21.542969 23.914062 L 16.113281 24.304688 C 20.113281 49.558594 43.480469 57.789062 56.203125 30.589844 C 58.308594 26.085938 59 25.265625 61.304688 25.839844 C 64.433594 26.617188 64.859375 28.222656 63.371094 32.761719 C 52.367188 66.292969 15.398438 69.65625 8.144531 24.875 L 3.730469 25.195312 C 0.140625 25.453125 0 22.425781 0 20.738281 C 0 17.410156 1.238281 16.214844 3.457031 16.214844 "/>
</g>
<path style=" stroke:none;fill-rule:nonzero;fill:rgb(89.599609%,11.520386%,14.378357%);fill-opacity:1;" d="M 66.34375 0 C 69.890625 0 72.765625 2.875 72.765625 6.421875 C 72.765625 9.964844 69.890625 12.839844 66.34375 12.839844 C 62.800781 12.839844 59.925781 9.964844 59.925781 6.421875 C 59.925781 2.875 62.800781 0 66.34375 0 "/>
<path style=" stroke:none;fill-rule:nonzero;fill:rgb(89.599609%,11.520386%,14.378357%);fill-opacity:1;" d="M 100.402344 30.113281 C 100.382812 30.339844 100.355469 30.566406 100.316406 30.785156 C 100.277344 31.007812 100.230469 31.21875 100.171875 31.417969 C 100.109375 31.617188 100.042969 31.785156 99.96875 31.925781 C 99.839844 32.164062 99.660156 32.316406 99.433594 32.386719 C 99.207031 32.457031 98.910156 32.492188 98.542969 32.492188 L 93.609375 32.492188 L 93.609375 49.378906 C 93.609375 49.648438 93.585938 49.851562 93.53125 49.984375 C 93.476562 50.121094 93.386719 50.242188 93.253906 50.351562 C 92.929688 50.585938 92.234375 50.707031 91.167969 50.707031 C 90.058594 50.707031 89.351562 50.585938 89.050781 50.351562 C 88.910156 50.242188 88.8125 50.121094 88.757812 49.984375 C 88.703125 49.851562 88.675781 49.648438 88.675781 49.378906 L 88.675781 32.492188 L 83.179688 32.492188 C 82.898438 32.492188 82.683594 32.480469 82.539062 32.453125 C 82.394531 32.425781 82.277344 32.386719 82.191406 32.332031 C 82.050781 32.246094 81.960938 32.132812 81.917969 32 C 81.875 31.863281 81.851562 31.664062 81.851562 31.394531 C 81.851562 31.199219 81.863281 30.984375 81.882812 30.753906 C 81.90625 30.523438 81.933594 30.296875 81.972656 30.074219 C 82.011719 29.855469 82.058594 29.644531 82.117188 29.453125 C 82.175781 29.257812 82.246094 29.089844 82.320312 28.949219 C 82.449219 28.714844 82.628906 28.558594 82.855469 28.488281 C 83.082031 28.417969 83.378906 28.382812 83.742188 28.382812 L 99.109375 28.382812 C 99.390625 28.382812 99.605469 28.398438 99.757812 28.425781 C 99.910156 28.453125 100.027344 28.492188 100.113281 28.546875 C 100.242188 28.632812 100.328125 28.742188 100.371094 28.878906 C 100.414062 29.011719 100.4375 29.207031 100.4375 29.46875 C 100.4375 29.671875 100.425781 29.886719 100.402344 30.113281 "/>
<path style=" stroke:none;fill-rule:nonzero;fill:rgb(89.599609%,11.520386%,14.378357%);fill-opacity:1;" d="M 121.417969 46.394531 C 121.078125 47.339844 120.542969 48.15625 119.816406 48.847656 C 119.089844 49.535156 118.15625 50.074219 117.023438 50.464844 C 115.894531 50.851562 114.535156 51.046875 112.949219 51.046875 C 111.363281 51.046875 110.007812 50.851562 108.871094 50.464844 C 107.742188 50.074219 106.8125 49.535156 106.082031 48.847656 C 105.355469 48.15625 104.820312 47.339844 104.480469 46.394531 C 104.144531 45.453125 103.972656 44.425781 103.972656 43.3125 L 103.972656 29.582031 C 103.972656 29.3125 104 29.105469 104.054688 28.964844 C 104.105469 28.824219 104.203125 28.707031 104.34375 28.609375 C 104.644531 28.375 105.351562 28.253906 106.464844 28.253906 C 107.53125 28.253906 108.226562 28.375 108.550781 28.609375 C 108.679688 28.707031 108.769531 28.824219 108.824219 28.964844 C 108.878906 29.105469 108.90625 29.3125 108.90625 29.582031 L 108.90625 43.25 C 108.90625 43.789062 108.980469 44.28125 109.132812 44.730469 C 109.28125 45.175781 109.519531 45.558594 109.84375 45.878906 C 110.167969 46.195312 110.585938 46.441406 111.097656 46.613281 C 111.609375 46.785156 112.226562 46.871094 112.949219 46.871094 C 113.671875 46.871094 114.289062 46.785156 114.800781 46.613281 C 115.3125 46.441406 115.730469 46.195312 116.054688 45.878906 C 116.378906 45.558594 116.613281 45.175781 116.765625 44.730469 C 116.917969 44.28125 116.992188 43.789062 116.992188 43.25 L 116.992188 29.582031 C 116.992188 29.3125 117.019531 29.105469 117.074219 28.964844 C 117.128906 28.824219 117.226562 28.707031 117.363281 28.609375 C 117.667969 28.375 118.371094 28.253906 119.484375 28.253906 C 120.550781 28.253906 121.246094 28.375 121.570312 28.609375 C 121.699219 28.707031 121.789062 28.824219 121.847656 28.964844 C 121.898438 29.105469 121.925781 29.3125 121.925781 29.582031 L 121.925781 43.3125 C 121.925781 44.425781 121.757812 45.453125 121.417969 46.394531 "/>
<path style=" stroke:none;fill-rule:nonzero;fill:rgb(89.599609%,11.520386%,14.378357%);fill-opacity:1;" d="M 132.070312 49.984375 C 132.011719 50.121094 131.914062 50.242188 131.785156 50.351562 C 131.484375 50.585938 130.789062 50.707031 129.699219 50.707031 C 128.589844 50.707031 127.882812 50.585938 127.582031 50.351562 C 127.449219 50.242188 127.355469 50.121094 127.296875 49.984375 C 127.238281 49.851562 127.210938 49.648438 127.210938 49.378906 L 127.210938 29.582031 C 127.210938 29.3125 127.238281 29.105469 127.296875 28.964844 C 127.355469 28.824219 127.449219 28.707031 127.582031 28.609375 C 127.882812 28.375 128.589844 28.253906 129.699219 28.253906 C 130.789062 28.253906 131.484375 28.375 131.785156 28.609375 C 131.914062 28.707031 132.011719 28.824219 132.070312 28.964844 C 132.128906 29.105469 132.15625 29.3125 132.15625 29.582031 L 132.15625 49.378906 C 132.15625 49.648438 132.128906 49.851562 132.070312 49.984375 "/>
<path style=" stroke:none;fill-rule:nonzero;fill:rgb(13.101196%,18.269348%,33.685303%);fill-opacity:1;" d="M 155.140625 29.726562 C 155.109375 29.851562 155.050781 30.015625 154.964844 30.21875 C 154.875 30.402344 154.777344 30.585938 154.671875 30.769531 C 154.5625 30.953125 154.40625 31.042969 154.203125 31.042969 C 154.03125 31.042969 153.871094 31.011719 153.726562 30.949219 C 153.578125 30.882812 153.402344 30.808594 153.199219 30.722656 C 152.953125 30.613281 152.691406 30.53125 152.425781 30.46875 C 152.152344 30.410156 151.851562 30.382812 151.519531 30.382812 C 150.96875 30.382812 150.523438 30.46875 150.191406 30.648438 C 149.855469 30.828125 149.597656 31.066406 149.40625 31.367188 C 149.21875 31.671875 149.09375 32.027344 149.027344 32.4375 C 148.960938 32.847656 148.929688 33.277344 148.929688 33.730469 L 148.929688 35.878906 L 152.601562 35.878906 C 152.773438 35.878906 152.902344 35.882812 152.988281 35.890625 C 153.074219 35.894531 153.144531 35.925781 153.199219 35.976562 C 153.253906 36.03125 153.289062 36.09375 153.304688 36.164062 C 153.320312 36.234375 153.328125 36.359375 153.328125 36.542969 C 153.328125 36.824219 153.304688 37.074219 153.25 37.296875 C 153.195312 37.515625 153.136719 37.6875 153.070312 37.804688 C 152.972656 37.96875 152.863281 38.070312 152.738281 38.121094 C 152.613281 38.167969 152.429688 38.195312 152.179688 38.195312 L 148.929688 38.195312 L 148.929688 49.53125 C 148.929688 49.726562 148.917969 49.863281 148.898438 49.945312 C 148.875 50.027344 148.820312 50.109375 148.734375 50.195312 C 148.671875 50.261719 148.539062 50.320312 148.339844 50.375 C 148.140625 50.429688 147.851562 50.453125 147.472656 50.453125 C 147.140625 50.453125 146.878906 50.433594 146.6875 50.390625 C 146.5 50.347656 146.375 50.292969 146.308594 50.226562 C 146.222656 50.164062 146.167969 50.082031 146.148438 49.984375 C 146.125 49.886719 146.113281 49.75 146.113281 49.566406 L 146.113281 38.195312 L 144.253906 38.195312 C 144.09375 38.195312 143.96875 38.191406 143.875 38.183594 C 143.78125 38.179688 143.710938 38.152344 143.65625 38.097656 C 143.601562 38.042969 143.566406 37.980469 143.550781 37.910156 C 143.535156 37.839844 143.527344 37.714844 143.527344 37.53125 C 143.527344 36.96875 143.628906 36.53125 143.835938 36.21875 C 143.921875 36.082031 144.023438 35.988281 144.140625 35.945312 C 144.261719 35.902344 144.441406 35.878906 144.691406 35.878906 L 146.113281 35.878906 L 146.113281 33.503906 C 146.113281 32.714844 146.214844 31.984375 146.414062 31.3125 C 146.613281 30.636719 146.925781 30.054688 147.34375 29.5625 C 147.765625 29.074219 148.300781 28.691406 148.945312 28.414062 C 149.59375 28.140625 150.359375 28.003906 151.242188 28.003906 C 151.855469 28.003906 152.382812 28.042969 152.820312 28.125 C 153.257812 28.203125 153.613281 28.292969 153.894531 28.390625 C 154.1875 28.5 154.417969 28.597656 154.589844 28.691406 C 154.761719 28.78125 154.894531 28.867188 154.980469 28.941406 C 155.066406 29.015625 155.121094 29.089844 155.148438 29.160156 C 155.175781 29.230469 155.1875 29.296875 155.1875 29.359375 C 155.1875 29.480469 155.171875 29.601562 155.140625 29.726562 "/>
<path style=" stroke:none;fill-rule:nonzero;fill:rgb(13.101196%,18.269348%,33.685303%);fill-opacity:1;" d="M 159.4375 49.960938 C 159.414062 50.054688 159.359375 50.132812 159.273438 50.195312 C 159.199219 50.261719 159.0625 50.320312 158.871094 50.375 C 158.675781 50.429688 158.390625 50.453125 158.011719 50.453125 C 157.679688 50.453125 157.417969 50.433594 157.230469 50.390625 C 157.039062 50.347656 156.914062 50.292969 156.847656 50.226562 C 156.761719 50.164062 156.707031 50.082031 156.6875 49.984375 C 156.664062 49.886719 156.652344 49.75 156.652344 49.566406 L 156.652344 29.328125 C 156.652344 28.910156 156.730469 28.628906 156.882812 28.488281 C 156.945312 28.421875 157.066406 28.359375 157.242188 28.292969 C 157.421875 28.230469 157.679688 28.164062 158.011719 28.101562 C 158.335938 28.035156 158.589844 28.003906 158.773438 28.003906 C 158.871094 28.003906 158.964844 28.007812 159.054688 28.011719 C 159.148438 28.015625 159.222656 28.035156 159.273438 28.066406 C 159.359375 28.132812 159.414062 28.214844 159.4375 28.3125 C 159.457031 28.40625 159.46875 28.546875 159.46875 28.730469 L 159.46875 49.53125 C 159.46875 49.726562 159.457031 49.871094 159.4375 49.960938 "/>
<path style=" stroke:none;fill-rule:nonzero;fill:rgb(13.101196%,18.269348%,33.685303%);fill-opacity:1;" d="M 166.789062 56.964844 C 166.789062 56.964844 165.839844 56.964844 165.105469 56.964844 C 164.371094 56.964844 164.757812 56.175781 164.757812 56.175781 L 167.78125 49.371094 L 161.828125 37.109375 C 161.742188 36.925781 161.683594 36.792969 161.644531 36.707031 C 161.605469 36.621094 161.589844 36.511719 161.589844 36.382812 C 161.589844 36.316406 161.609375 36.246094 161.652344 36.171875 C 161.695312 36.097656 161.773438 36.027344 161.886719 35.960938 C 162 35.898438 162.152344 35.847656 162.347656 35.808594 C 162.542969 35.769531 162.785156 35.75 163.074219 35.75 C 163.527344 35.75 163.871094 35.792969 164.105469 35.871094 C 164.335938 35.953125 164.503906 36.113281 164.613281 36.351562 L 169.175781 46.085938 L 173.089844 36.480469 C 173.195312 36.175781 173.367188 35.980469 173.597656 35.890625 C 173.828125 35.796875 174.199219 35.75 174.707031 35.75 C 175.234375 35.75 175.582031 35.804688 175.75 35.914062 C 175.914062 36.019531 176 36.144531 176 36.285156 C 176 36.414062 175.980469 36.539062 175.9375 36.65625 C 175.890625 36.777344 175.828125 36.925781 175.742188 37.109375 L 169.417969 52.25 C 169.226562 52.722656 167.632812 56.1875 167.488281 56.464844 C 167.25 56.933594 166.789062 56.964844 166.789062 56.964844 "/>
</g>
</svg>
