<svg xmlns="http://www.w3.org/2000/svg" width="176pt" height="77.613" viewBox="0 0 176 58.21"><defs><clipPath id="a"><path d="M0 16h65v42.21H0Zm0 0"/></clipPath></defs><g clip-path="url(#a)"><path d="M3.457 16.215h17.297c1.695 0 2.973.539 3.476 2.945.56 2.68.329 4.543-2.687 4.754l-5.43.39c4 25.255 27.367 33.485 40.09 6.286 2.106-4.504 2.797-5.324 5.102-4.75 3.129.777 3.554 2.383 2.066 6.922-11.004 33.531-47.973 36.894-55.226-7.887l-4.415.32C.14 25.453 0 22.425 0 20.738c0-3.328 1.238-4.523 3.457-4.523" style="stroke:none;fill-rule:nonzero;fill:#e41d25;fill-opacity:1"/></g><path d="M66.344 0a6.42 6.42 0 1 1-6.418 6.422A6.42 6.42 0 0 1 66.344 0M100.402 30.113q-.029.342-.086.672-.058.335-.144.633-.093.298-.203.508a.9.9 0 0 1-.535.46q-.34.106-.891.106h-4.934V49.38c0 .27-.023.473-.078.605a.9.9 0 0 1-.277.368c-.324.234-1.02.355-2.086.355-1.11 0-1.816-.121-2.117-.355a.9.9 0 0 1-.293-.368q-.082-.2-.082-.605V32.492H83.18q-.424 0-.64-.039a1 1 0 0 1-.349-.121.6.6 0 0 1-.273-.332 2.1 2.1 0 0 1-.066-.605 7.7 7.7 0 0 1 .12-1.32q.059-.332.145-.622c.059-.195.13-.363.203-.504a.92.92 0 0 1 .535-.46q.341-.106.887-.106H99.11q.421 0 .649.043.228.04.355.12a.6.6 0 0 1 .258.333q.066.198.067.59 0 .305-.036.644M121.418 46.395a6.3 6.3 0 0 1-1.602 2.453c-.726.687-1.66 1.226-2.793 1.617q-1.694.581-4.074.582c-1.586 0-2.941-.195-4.078-.582q-1.693-.586-2.789-1.617a6.3 6.3 0 0 1-1.602-2.453c-.335-.942-.507-1.97-.507-3.083v-13.73q0-.406.082-.617a.74.74 0 0 1 .289-.356q.451-.353 2.12-.355 1.6.002 2.087.355a.8.8 0 0 1 .273.356q.082.212.082.617V43.25q-.001.808.227 1.48.224.669.71 1.149.487.475 1.255.734.767.258 1.851.258t1.852-.258q.767-.259 1.254-.734.484-.48.71-1.149a4.6 4.6 0 0 0 .227-1.48V29.582q0-.406.082-.617a.8.8 0 0 1 .29-.356c.304-.234 1.007-.355 2.12-.355q1.6.002 2.086.355a.84.84 0 0 1 .278.356q.077.212.078.617v13.73q.001 1.67-.508 3.083M132.07 49.984a1 1 0 0 1-.285.368c-.3.234-.996.355-2.086.355-1.11 0-1.816-.121-2.117-.355a1 1 0 0 1-.285-.368q-.087-.2-.086-.605V29.582q-.001-.406.086-.617a.83.83 0 0 1 .285-.356q.452-.353 2.117-.355 1.635.002 2.086.355a.86.86 0 0 1 .285.356q.087.212.086.617v19.797q.001.406-.086.605" style="stroke:none;fill-rule:nonzero;fill:#e41d25;fill-opacity:1"/><path d="M155.14 29.727q-.046.188-.175.492-.135.275-.293.55a.52.52 0 0 1-.469.274q-.259 0-.476-.094-.224-.098-.528-.226a4.4 4.4 0 0 0-.773-.254 4.3 4.3 0 0 0-.906-.086c-.551 0-.997.086-1.329.265-.336.18-.593.418-.785.72q-.28.455-.379 1.07-.098.614-.097 1.292v2.149h3.672q.257 0 .386.012a.32.32 0 0 1 .211.086q.082.082.106.187.023.104.023.379c0 .281-.023.531-.078.754q-.081.33-.18.508c-.097.164-.207.265-.332.316-.125.047-.308.074-.558.074h-3.25v11.336q-.001.293-.032.414a.6.6 0 0 1-.164.25q-.094.099-.394.18c-.2.055-.488.078-.867.078q-.498 0-.786-.062-.28-.065-.378-.164a.4.4 0 0 1-.16-.243 2 2 0 0 1-.036-.418v-11.37h-1.86q-.238 0-.378-.012a.3.3 0 0 1-.219-.086.4.4 0 0 1-.105-.188 2 2 0 0 1-.024-.379q0-.843.309-1.312a.63.63 0 0 1 .305-.274c.12-.043.3-.066.55-.066h1.422v-2.375q.001-1.185.301-2.191.301-1.013.93-1.75a4.35 4.35 0 0 1 1.601-1.149q.973-.41 2.297-.41.92-.001 1.578.121c.438.078.793.168 1.075.266a6 6 0 0 1 .695.3c.172.09.305.176.39.25q.128.113.168.22.041.105.04.198 0 .181-.047.368M159.438 49.96a.4.4 0 0 1-.165.235q-.113.099-.402.18c-.195.055-.48.078-.86.078a3.7 3.7 0 0 1-.78-.062q-.286-.065-.383-.164a.4.4 0 0 1-.16-.243 2 2 0 0 1-.036-.418V29.328q.001-.628.23-.84.095-.097.36-.195.271-.096.77-.191a4 4 0 0 1 .761-.098 6 6 0 0 1 .282.008.46.46 0 0 1 .218.054q.129.1.165.247.03.141.03.417v20.801q0 .294-.03.43M166.79 56.965h-1.685c-.734 0-.347-.79-.347-.79l3.023-6.804-5.953-12.262c-.086-.183-.144-.316-.183-.402a.8.8 0 0 1-.055-.324.4.4 0 0 1 .062-.211.63.63 0 0 1 .235-.211q.168-.094.46-.152.294-.06.727-.059.68.002 1.031.121.345.123.508.48l4.563 9.735 3.914-9.606q.16-.456.508-.59.346-.14 1.109-.14.79 0 1.043.164c.164.106.25.23.25.371q0 .195-.062.371-.069.18-.196.453l-6.324 15.141c-.191.473-1.785 3.938-1.93 4.215-.238.469-.699.5-.699.5" style="stroke:none;fill-rule:nonzero;fill:#212f56;fill-opacity:1"/></svg>