<?xml version="1.0" encoding="UTF-8"?>
<svg xmlns="http://www.w3.org/2000/svg" xmlns:xlink="http://www.w3.org/1999/xlink" width="176pt" height="50.12pt" viewBox="0 0 176 50.12" version="1.1">
<defs>
<clipPath id="clip1">
  <path d="M 91 0 L 139 0 L 139 50.121094 L 91 50.121094 Z M 91 0 "/>
</clipPath>
</defs>
<g id="surface1">
<path style=" stroke:none;fill-rule:nonzero;fill:rgb(16.766357%,20.423889%,53.408813%);fill-opacity:1;" d="M 159.8125 20.550781 C 153.839844 20.304688 148.980469 25.71875 148.980469 32.058594 C 148.980469 38.210938 153.472656 43.441406 159.257812 43.503906 C 165.285156 43.566406 170.023438 38.027344 169.964844 31.75 C 169.839844 25.78125 165.53125 20.671875 159.8125 20.550781 Z M 159.195312 49.472656 C 150.335938 49.410156 143.011719 41.84375 142.765625 32.425781 C 142.578125 22.765625 150.273438 14.703125 159.441406 14.703125 C 168.363281 14.765625 175.808594 22.273438 175.992188 31.6875 C 176.238281 41.410156 168.488281 49.597656 159.195312 49.472656 "/>
<g clip-path="url(#clip1)" clip-rule="nonzero">
<path style=" stroke:none;fill-rule:nonzero;fill:rgb(16.766357%,20.423889%,53.408813%);fill-opacity:1;" d="M 114.273438 50.089844 C 101.535156 49.535156 91.320312 38.828125 91.074219 25.472656 C 90.890625 11.566406 101.226562 -0.00390625 115.011719 -0.00390625 C 119.320312 -0.00390625 126.335938 0.242188 134.394531 8.734375 L 129.84375 13.535156 C 122.890625 6.765625 117.71875 6.273438 115.011719 6.398438 C 102.703125 6.765625 97.535156 17.597656 97.78125 25.289062 C 98.027344 37.042969 107.441406 43.566406 114.703125 43.8125 C 123.382812 44.058594 131.75 37.042969 131.871094 28.179688 L 115.441406 28.179688 L 115.441406 21.71875 L 138.886719 21.71875 C 139.996094 40.734375 127.074219 50.765625 114.273438 50.089844 "/>
</g>
<path style=" stroke:none;fill-rule:nonzero;fill:rgb(16.766357%,20.423889%,53.408813%);fill-opacity:1;" d="M 0 48.859375 L 0 0.183594 L 7.078125 0.183594 L 7.078125 48.859375 L 0 48.859375 "/>
<path style=" stroke:none;fill-rule:nonzero;fill:rgb(16.766357%,20.423889%,53.408813%);fill-opacity:1;" d="M 58.273438 49.472656 C 47.875 49.042969 42.460938 40.859375 42.214844 32.367188 C 41.660156 22.890625 49.042969 14.644531 58.582031 14.703125 C 60.859375 14.703125 63.074219 15.441406 64.367188 15.996094 L 66.828125 17.226562 L 66.828125 24.304688 L 65.78125 23.136719 C 64.980469 22.273438 61.230469 20.488281 58.152344 20.550781 C 52.429688 20.613281 48.429688 25.535156 48.304688 31.320312 C 48 38.027344 52.058594 43.195312 58.460938 43.566406 C 58.953125 43.566406 68.675781 43.195312 68.675781 31.875 L 68.675781 0.183594 L 75.074219 0.183594 L 75.074219 32.058594 C 75.074219 40.859375 68.367188 49.964844 58.273438 49.472656 "/>
<path style=" stroke:none;fill-rule:nonzero;fill:rgb(16.766357%,20.423889%,53.408813%);fill-opacity:1;" d="M 32 48.859375 L 32 31.195312 C 32 21.410156 27.199219 21.226562 24.675781 20.980469 C 21.351562 20.425781 16.859375 23.933594 16.859375 29.597656 L 16.859375 48.917969 L 10.707031 48.917969 L 10.707031 29.964844 C 10.707031 20.058594 17.84375 14.890625 24.859375 14.828125 C 28.246094 14.828125 38.398438 17.71875 38.398438 29.65625 L 38.398438 48.859375 L 32 48.859375 "/>
<path style=" stroke:none;fill-rule:nonzero;fill:rgb(16.766357%,20.423889%,53.408813%);fill-opacity:1;" d="M 79.996094 48.859375 L 79.996094 15.136719 L 86.460938 15.136719 L 86.460938 48.859375 Z M 79.199219 7.628906 C 79.503906 2.457031 86.765625 2.703125 86.644531 7.6875 C 86.460938 13.042969 78.890625 12.367188 79.199219 7.628906 "/>
</g>
</svg>
