<svg xmlns="http://www.w3.org/2000/svg" width="176pt" height="66.827" viewBox="0 0 176 50.12"><defs><clipPath id="a"><path d="M91 0h48v50.121H91Zm0 0"/></clipPath></defs><path d="M159.813 20.55c-5.973-.245-10.833 5.169-10.833 11.509 0 6.152 4.493 11.382 10.278 11.445 6.027.062 10.765-5.477 10.707-11.754-.125-5.969-4.434-11.078-10.153-11.2m-.618 28.923c-8.86-.063-16.183-7.63-16.43-17.047-.187-9.66 7.508-17.723 16.676-17.723 8.922.063 16.368 7.57 16.551 16.985.246 9.722-7.504 17.91-16.797 17.785" style="stroke:none;fill-rule:nonzero;fill:#2b3488;fill-opacity:1"/><g clip-path="url(#a)"><path d="M114.273 50.09c-12.738-.555-22.953-11.262-23.199-24.617-.183-13.907 10.153-25.477 23.938-25.477 4.308 0 11.324.246 19.383 8.738l-4.551 4.801c-6.953-6.77-12.125-7.262-14.832-7.137-12.309.368-17.477 11.2-17.23 18.891.245 11.754 9.66 18.277 16.921 18.524 8.68.246 17.047-6.77 17.168-15.633h-16.43v-6.461h23.446c1.11 19.015-11.813 29.047-24.614 28.37" style="stroke:none;fill-rule:nonzero;fill:#2b3488;fill-opacity:1"/></g><path d="M0 48.86V.183h7.078v48.675zM58.273 49.473c-10.398-.43-15.812-8.614-16.058-17.106-.555-9.476 6.828-17.722 16.367-17.664 2.277 0 4.492.738 5.785 1.293l2.461 1.23v7.079l-1.047-1.168c-.8-.864-4.55-2.649-7.629-2.586-5.722.062-9.722 4.984-9.847 10.77C48 38.026 52.059 43.194 58.46 43.565c.492 0 10.215-.37 10.215-11.691V.184h6.398v31.875c0 8.8-6.707 17.906-16.8 17.414M32 48.86V31.194c0-9.785-4.8-9.968-7.324-10.215-3.324-.554-7.817 2.954-7.817 8.618v19.32h-6.152V29.965c0-9.906 7.137-15.074 14.152-15.137 3.387 0 13.54 2.89 13.54 14.828V48.86zM79.996 48.86V15.136h6.465v33.722ZM79.2 7.628c.305-5.172 7.567-4.926 7.446.059-.184 5.355-7.754 4.68-7.446-.06" style="stroke:none;fill-rule:nonzero;fill:#2b3488;fill-opacity:1"/></svg>