<?xml version="1.0" encoding="UTF-8"?>
<svg xmlns="http://www.w3.org/2000/svg" xmlns:xlink="http://www.w3.org/1999/xlink" width="176pt" height="55.11pt" viewBox="0 0 176 55.11" version="1.1">
<defs>
<clipPath id="clip1">
  <path d="M 141 6 L 176 6 L 176 55.109375 L 141 55.109375 Z M 141 6 "/>
</clipPath>
</defs>
<g id="surface1">
<path style=" stroke:none;fill-rule:evenodd;fill:rgb(95.9198%,61.03363%,22.569275%);fill-opacity:1;" d="M 128.40625 14.046875 L 151.855469 14.046875 L 151.855469 0 C 151.855469 0 159.054688 12.003906 159.375 13.882812 C 160.101562 17.941406 156.769531 22.558594 149.546875 28.925781 C 143.367188 34.375 127.683594 42.246094 127.683594 42.246094 C 127.683594 42.246094 138.828125 23.285156 139.257812 21.699219 C 139.6875 20.117188 128.40625 14.046875 128.40625 14.046875 "/>
<g clip-path="url(#clip1)" clip-rule="nonzero">
<path style=" stroke:none;fill-rule:evenodd;fill:rgb(95.9198%,61.03363%,22.569275%);fill-opacity:1;" d="M 141.003906 37.894531 L 151.558594 55.109375 L 151.558594 41.816406 L 175.867188 41.816406 L 163.992188 34.296875 L 176 14.179688 L 164.289062 20.410156 C 164.289062 20.410156 163.429688 20.972656 163.269531 19.953125 C 163.136719 18.960938 165.3125 12.730469 162.839844 8.96875 C 161.148438 6.363281 156.472656 6.660156 155.75 7.222656 C 155.023438 7.816406 154.59375 10.421875 154.59375 10.421875 C 154.59375 10.421875 156.636719 8.671875 158.785156 8.96875 C 160.960938 9.265625 161.496094 11.816406 161.683594 14.179688 C 161.980469 17.644531 158.785156 22.425781 157.066406 24.734375 C 155.320312 27.042969 148.523438 34.566406 141.003906 37.894531 "/>
</g>
<path style=" stroke:none;fill-rule:evenodd;fill:rgb(15.789795%,20.149231%,46.444702%);fill-opacity:1;" d="M 9.75 37.410156 L 3.4375 37.410156 L 6.3125 22.480469 C 6.554688 21.324219 6.527344 20.570312 6.257812 20.167969 C 5.988281 19.765625 5.34375 19.578125 4.269531 19.578125 L 0 19.550781 L 0.886719 15.039062 L 7.414062 15.066406 C 9.804688 15.066406 11.414062 15.574219 12.246094 16.597656 C 13.078125 17.589844 13.242188 19.445312 12.730469 22.101562 L 9.75 37.410156 "/>
<path style=" stroke:none;fill-rule:evenodd;fill:rgb(15.789795%,20.149231%,46.444702%);fill-opacity:1;" d="M 25.085938 15.121094 L 22.613281 27.851562 L 16.035156 29.113281 L 18.746094 15.09375 L 25.085938 15.121094 "/>
<path style=" stroke:none;fill-rule:evenodd;fill:rgb(15.789795%,20.149231%,46.444702%);fill-opacity:1;" d="M 36.070312 15.148438 L 33.597656 27.875 L 27.019531 29.140625 L 29.730469 15.121094 L 36.070312 15.148438 "/>
<path style=" stroke:none;fill-rule:evenodd;fill:rgb(15.789795%,20.149231%,46.444702%);fill-opacity:1;" d="M 55.382812 37.546875 L 48.453125 37.546875 L 45.09375 26.398438 C 44.878906 26.480469 44.71875 26.535156 44.609375 26.617188 C 44.398438 26.855469 44.261719 27.125 44.207031 27.472656 L 42.246094 37.519531 L 35.960938 37.492188 L 37.144531 31.449219 C 37.65625 28.816406 38.515625 26.855469 39.75 25.59375 C 40.421875 24.894531 41.683594 24.117188 43.566406 23.203125 L 39.402344 15.148438 L 46.972656 15.171875 L 50.410156 24.894531 C 50.464844 24.894531 50.492188 24.894531 50.519531 24.894531 C 50.761719 24.816406 50.949219 24.464844 51.085938 23.824219 L 52.75 15.199219 L 59.035156 15.226562 L 57.824219 21.433594 C 57.449219 23.363281 56.644531 24.894531 55.382812 26.050781 C 54.414062 26.910156 53.179688 27.582031 51.648438 28.09375 C 52.183594 29.246094 52.964844 31.207031 54.011719 33.921875 C 54.359375 34.808594 54.816406 36.015625 55.382812 37.546875 "/>
<path style=" stroke:none;fill-rule:evenodd;fill:rgb(15.789795%,20.149231%,46.444702%);fill-opacity:1;" d="M 70.960938 37.601562 L 64.648438 37.574219 L 67.519531 22.640625 C 67.734375 21.511719 67.734375 20.761719 67.46875 20.355469 C 67.199219 19.953125 66.554688 19.742188 65.480469 19.742188 L 61.207031 19.742188 L 62.070312 15.226562 L 68.621094 15.253906 C 71.011719 15.253906 72.625 15.765625 73.457031 16.757812 C 74.289062 17.777344 74.449219 19.605469 73.941406 22.289062 L 70.960938 37.601562 "/>
<path style=" stroke:none;fill-rule:evenodd;fill:rgb(15.789795%,20.149231%,46.444702%);fill-opacity:1;" d="M 102.648438 25.273438 C 101.84375 29.382812 100.207031 32.550781 97.679688 34.78125 C 94.996094 37.195312 91.503906 38.378906 87.179688 38.378906 C 83.367188 38.351562 80.628906 37.167969 78.964844 34.808594 C 77.539062 32.765625 77.109375 30.242188 77.699219 27.234375 L 80.011719 15.28125 L 85.648438 15.28125 L 83.449219 26.695312 C 84.765625 26.695312 85.757812 26.425781 86.402344 25.863281 C 87.207031 25.136719 87.796875 23.847656 88.175781 21.941406 L 89.464844 15.308594 L 95.101562 15.335938 L 93.625 22.988281 C 93.0625 25.917969 91.53125 27.933594 89.03125 29.003906 C 87.53125 29.648438 85.515625 29.972656 82.992188 29.972656 C 82.828125 30.75 83.097656 31.503906 83.769531 32.28125 C 84.683594 33.355469 86.132812 33.894531 88.09375 33.894531 C 90.347656 33.921875 92.175781 33.300781 93.574219 32.039062 C 95.265625 30.507812 96.472656 27.957031 97.144531 24.386719 L 98.917969 15.335938 L 104.558594 15.363281 L 102.648438 25.273438 "/>
<path style=" stroke:none;fill-rule:evenodd;fill:rgb(15.789795%,20.149231%,46.444702%);fill-opacity:1;" d="M 115.597656 15.386719 L 113.152344 28.121094 L 106.570312 29.382812 L 109.285156 15.363281 L 115.597656 15.386719 "/>
</g>
</svg>
