<?xml version="1.0" encoding="UTF-8"?>
<svg xmlns="http://www.w3.org/2000/svg" xmlns:xlink="http://www.w3.org/1999/xlink" width="176pt" height="52.87pt" viewBox="0 0 176 52.87" version="1.1">
<defs>
<clipPath id="clip1">
  <path d="M 21 35 L 33 35 L 33 52.871094 L 21 52.871094 Z M 21 35 "/>
</clipPath>
</defs>
<g id="surface1">
<path style=" stroke:none;fill-rule:nonzero;fill:rgb(95.748901%,52.362061%,7.569885%);fill-opacity:1;" d="M 133.015625 -0.00390625 C 132.933594 0.171875 132.890625 0.390625 132.757812 0.511719 C 132.019531 1.175781 131.300781 1.867188 130.503906 2.453125 C 129.164062 3.4375 127.757812 4.324219 126.410156 5.289062 C 124.015625 7 121.621094 8.710938 119.269531 10.480469 C 116.660156 12.445312 114.089844 14.457031 111.527344 16.484375 C 110.265625 17.480469 109.054688 18.539062 107.84375 19.59375 C 105.96875 21.226562 104.066406 22.832031 102.265625 24.539062 C 100.257812 26.433594 98.316406 28.398438 96.40625 30.390625 C 95.03125 31.828125 93.707031 33.316406 92.449219 34.855469 C 90.773438 36.910156 89.148438 39.007812 87.558594 41.132812 C 85.90625 43.351562 84.417969 45.679688 83.035156 48.0625 C 81.570312 48.199219 58.761719 48.121094 58.046875 47.953125 C 58.292969 47.800781 58.472656 47.667969 58.667969 47.578125 C 60.386719 46.800781 62.101562 46.011719 63.835938 45.257812 C 65.882812 44.367188 67.964844 43.546875 70 42.628906 C 72.121094 41.675781 74.234375 40.695312 76.296875 39.625 C 79.058594 38.191406 81.792969 36.699219 84.40625 34.992188 C 87.058594 33.257812 89.734375 31.550781 92.347656 29.753906 C 94.820312 28.054688 97.234375 26.269531 99.648438 24.484375 C 101.570312 23.066406 103.476562 21.621094 105.355469 20.140625 C 106.339844 19.363281 107.253906 18.496094 108.191406 17.660156 C 108.355469 17.511719 108.46875 17.304688 108.617188 17.113281 C 107.730469 16.03125 106.460938 16.261719 105.347656 15.949219 C 105.347656 15.609375 105.648438 15.476562 105.847656 15.296875 C 106.671875 14.554688 107.488281 13.804688 108.359375 13.113281 C 109.085938 12.539062 109.296875 12.523438 110.253906 12.535156 C 110.355469 12.582031 110.5 12.621094 110.621094 12.699219 C 111.070312 12.992188 111.519531 12.929688 111.9375 12.660156 C 112.867188 12.0625 113.804688 11.472656 114.703125 10.824219 C 116.261719 9.695312 117.804688 8.546875 119.324219 7.375 C 120.414062 6.539062 121.453125 5.636719 122.527344 4.785156 C 123.78125 3.789062 125.046875 2.800781 126.324219 1.835938 C 127.429688 1 128.660156 0.429688 130.03125 0.183594 C 130.410156 0.179688 130.789062 0.183594 131.167969 0.160156 C 131.257812 0.15625 131.34375 0.0546875 131.429688 -0.00390625 C 131.960938 -0.00390625 132.488281 -0.00390625 133.015625 -0.00390625 "/>
<g clip-path="url(#clip1)" clip-rule="nonzero">
<path style=" stroke:none;fill-rule:nonzero;fill:rgb(38.28125%,76.507568%,19.360352%);fill-opacity:1;" d="M 25.671875 52.707031 C 24.929688 52.59375 24.308594 52.246094 23.773438 51.757812 C 23.773438 50.996094 23.773438 50.269531 23.773438 49.554688 C 24.566406 49.824219 25.308594 50.140625 26.082031 50.328125 C 26.789062 50.496094 27.523438 50.515625 28.242188 50.28125 C 29.433594 49.890625 30.085938 49.070312 30.109375 47.839844 C 30.128906 46.78125 30.113281 45.726562 30.113281 44.667969 C 30.113281 43.433594 30.109375 42.203125 30.105469 40.96875 C 30.105469 40.734375 30.113281 40.5 30.097656 40.265625 C 30.023438 39.171875 29.601562 38.625 28.539062 38.339844 C 27.703125 38.117188 26.867188 38.179688 26.054688 38.488281 C 25.4375 38.722656 25.160156 39.253906 25 39.8125 C 24.710938 40.835938 24.773438 41.890625 25.03125 42.914062 C 25.289062 43.949219 25.902344 44.285156 26.746094 44.40625 C 27.40625 44.503906 28.074219 44.546875 28.785156 44.621094 C 28.855469 44.949219 28.957031 45.308594 28.992188 45.675781 C 29.03125 46.046875 29 46.421875 29 46.859375 C 27.617188 46.871094 26.300781 46.976562 24.980469 46.554688 C 23.261719 46.007812 22.257812 44.84375 22.039062 43.125 C 21.851562 41.65625 21.84375 40.148438 22.34375 38.703125 C 22.769531 37.488281 23.390625 36.398438 24.640625 35.878906 C 25.738281 35.421875 26.859375 35.132812 28.105469 35.367188 C 29.058594 35.550781 29.980469 35.738281 30.785156 36.300781 C 31.953125 37.113281 32.589844 38.230469 32.738281 39.648438 C 33.046875 42.601562 32.859375 45.5625 32.855469 48.519531 C 32.855469 50.277344 32.070312 51.597656 30.011719 52.371094 C 29.742188 52.472656 29.472656 52.582031 29.207031 52.6875 C 28.972656 52.757812 28.667969 52.535156 28.503906 52.871094 C 27.742188 52.871094 26.976562 52.871094 26.214844 52.871094 C 26.105469 52.574219 25.863281 52.730469 25.671875 52.707031 "/>
</g>
<path style=" stroke:none;fill-rule:nonzero;fill:rgb(38.874817%,76.663208%,19.62738%);fill-opacity:1;" d="M 2.761719 30.355469 C 3.835938 30.476562 4.605469 30.855469 5.175781 31.578125 C 5.390625 31.847656 5.589844 32.136719 5.753906 32.445312 C 7.125 35.042969 8.484375 37.644531 9.851562 40.242188 C 9.902344 40.339844 9.996094 40.417969 10.160156 40.605469 C 10.160156 37.125 10.160156 33.765625 10.160156 30.355469 C 10.445312 30.335938 10.667969 30.316406 10.894531 30.304688 C 11.851562 30.257812 12.808594 30.210938 13.820312 30.164062 C 13.847656 30.355469 13.890625 30.519531 13.886719 30.679688 C 13.878906 35.203125 13.882812 39.726562 13.839844 44.25 C 13.828125 45.167969 13.742188 46.109375 13.160156 46.90625 C 12.65625 47.601562 11.855469 47.855469 11.003906 47.640625 C 9.832031 47.34375 9.09375 46.558594 8.554688 45.550781 C 7.335938 43.269531 6.136719 40.976562 4.925781 38.6875 C 4.546875 37.96875 4.160156 37.253906 3.714844 36.542969 C 3.628906 37.746094 3.652344 38.945312 3.652344 40.144531 C 3.648438 41.378906 3.652344 42.613281 3.652344 43.847656 C 3.652344 45.070312 3.652344 46.296875 3.652344 47.5625 C 2.453125 47.5625 1.324219 47.5625 0.113281 47.5625 C 0.113281 47.277344 0.117188 47.019531 0.113281 46.761719 C 0.0703125 42.894531 0.00390625 39.027344 0 35.15625 C 0 34.125 0.078125 33.074219 0.546875 32.097656 C 0.972656 31.207031 1.550781 30.535156 2.597656 30.410156 C 2.679688 30.398438 2.761719 30.355469 2.761719 30.355469 "/>
<path style=" stroke:none;fill-rule:nonzero;fill:rgb(95.767212%,52.351379%,7.83844%);fill-opacity:1;" d="M 102.53125 47.730469 C 102.480469 47.621094 102.378906 47.507812 102.378906 47.398438 C 102.371094 46.339844 102.3125 45.277344 102.398438 44.226562 C 102.636719 41.390625 102.460938 38.546875 102.566406 35.707031 C 102.605469 34.636719 102.699219 33.5625 103.238281 32.585938 C 103.78125 31.601562 104.558594 30.902344 105.613281 30.496094 C 106.863281 30.019531 108.167969 29.839844 109.476562 30 C 111.378906 30.226562 113.007812 30.980469 113.894531 32.828125 C 114.292969 33.648438 114.445312 34.539062 114.472656 35.4375 C 114.511719 36.640625 114.484375 37.847656 114.507812 39.050781 C 114.5625 41.625 114.628906 44.199219 114.691406 46.773438 C 114.695312 47.007812 114.691406 47.242188 114.691406 47.519531 C 114.535156 47.585938 114.386719 47.707031 114.234375 47.710938 C 113.179688 47.726562 112.128906 47.71875 110.976562 47.71875 C 110.929688 47.496094 110.855469 47.285156 110.855469 47.074219 C 110.835938 45.488281 110.832031 43.902344 110.824219 42.316406 C 110.824219 42.03125 110.824219 41.746094 110.824219 41.398438 C 109.566406 41.363281 108.378906 41.417969 107.171875 41.355469 C 107.171875 40.203125 107.171875 39.1875 107.171875 38.09375 C 108.3125 38.09375 109.445312 38.09375 110.636719 38.09375 C 110.636719 37.121094 110.71875 36.210938 110.613281 35.328125 C 110.511719 34.445312 110.003906 33.765625 108.964844 33.46875 C 108.917969 33.46875 108.742188 33.464844 108.566406 33.449219 C 107.472656 33.363281 106.816406 33.941406 106.394531 34.875 C 106.171875 35.355469 106.074219 35.859375 106.074219 36.394531 C 106.074219 40.125 106.0625 43.855469 106.054688 47.582031 C 105.992188 47.640625 105.9375 47.695312 105.878906 47.75 C 104.816406 47.75 103.761719 47.75 102.699219 47.75 C 102.675781 47.707031 102.652344 47.660156 102.628906 47.613281 C 102.597656 47.652344 102.5625 47.691406 102.53125 47.730469 "/>
<path style=" stroke:none;fill-rule:nonzero;fill:rgb(95.767212%,52.351379%,7.83844%);fill-opacity:1;" d="M 164.636719 42.664062 C 165.441406 42.601562 166.1875 42.539062 166.949219 42.480469 C 167.128906 43.140625 166.855469 43.640625 166.660156 44.136719 C 165.820312 46.289062 164.1875 47.414062 161.9375 47.769531 C 160.90625 47.933594 159.90625 47.851562 158.9375 47.550781 C 156.765625 46.882812 155.21875 45.535156 154.707031 43.238281 C 154.246094 41.171875 154.421875 39.195312 155.738281 37.421875 C 156.5625 36.3125 157.671875 35.675781 158.96875 35.335938 C 161.347656 34.714844 163.460938 35.21875 165.246094 36.933594 C 165.761719 37.421875 166.0625 38.050781 166.371094 38.746094 C 164.703125 40.472656 162.6875 41.671875 160.59375 42.855469 C 160.183594 42.332031 159.792969 41.832031 159.351562 41.269531 C 160.300781 40.390625 161.421875 39.8125 162.335938 38.96875 C 161.8125 38.386719 161.097656 38.453125 160.347656 38.210938 C 159.949219 38.375 159.398438 38.511719 158.960938 38.8125 C 157.773438 39.609375 157.3125 41.941406 158.015625 43.265625 C 158.589844 44.339844 159.515625 44.988281 160.71875 45.09375 C 161.695312 45.179688 162.519531 44.691406 163.238281 44.066406 C 163.722656 43.648438 164.148438 43.15625 164.636719 42.664062 "/>
<path style=" stroke:none;fill-rule:nonzero;fill:rgb(38.28125%,76.507568%,19.360352%);fill-opacity:1;" d="M 47.367188 38.777344 C 46.757812 39.710938 45.621094 40.550781 41.652344 43 C 41.261719 42.480469 40.867188 41.957031 40.421875 41.367188 C 41.46875 40.589844 42.484375 39.835938 43.609375 39 C 43.007812 38.800781 42.546875 38.625 42.078125 38.5 C 41.058594 38.234375 40.09375 38.609375 39.488281 39.46875 C 38.707031 40.59375 38.492188 41.839844 38.925781 43.117188 C 39.371094 44.425781 41.183594 45.835938 42.949219 45.046875 C 43.535156 44.785156 44.105469 44.492188 44.546875 44 C 44.902344 43.609375 45.289062 43.25 45.699219 42.839844 C 46.4375 42.773438 47.207031 42.710938 47.992188 42.640625 C 48.195312 43.371094 47.886719 43.941406 47.65625 44.46875 C 46.71875 46.601562 45.015625 47.726562 42.714844 47.925781 C 41.542969 48.03125 40.394531 47.914062 39.292969 47.429688 C 37.382812 46.585938 36.132812 45.226562 35.714844 43.136719 C 35.410156 41.605469 35.5 40.121094 36.128906 38.699219 C 36.902344 36.953125 38.316406 35.914062 40.113281 35.460938 C 42.066406 34.964844 43.917969 35.289062 45.589844 36.476562 C 46.402344 37.050781 46.929688 37.839844 47.367188 38.777344 "/>
<path style=" stroke:none;fill-rule:nonzero;fill:rgb(95.767212%,52.351379%,7.83844%);fill-opacity:1;" d="M 145.683594 47.640625 C 144.609375 47.839844 143.640625 47.433594 142.613281 47.625 C 142.59375 47.328125 142.5625 47.101562 142.5625 46.878906 C 142.554688 44.355469 142.558594 41.832031 142.550781 39.308594 C 142.550781 38.574219 142.695312 37.875 142.980469 37.191406 C 143.324219 36.363281 143.921875 35.769531 144.722656 35.4375 C 146.507812 34.695312 148.335938 34.621094 150.144531 35.375 C 151.363281 35.882812 152.046875 36.875 152.371094 38.113281 C 152.488281 38.558594 152.550781 39.03125 152.550781 39.492188 C 152.5625 42.074219 152.550781 44.65625 152.539062 47.238281 C 152.535156 47.429688 152.484375 47.621094 152.460938 47.796875 C 151.660156 47.945312 150.171875 47.933594 149.492188 47.761719 C 149.476562 47.5625 149.441406 47.335938 149.441406 47.113281 C 149.4375 44.5625 149.441406 42.007812 149.445312 39.457031 C 149.445312 38.980469 149.40625 38.527344 149.074219 38.144531 C 148.578125 37.570312 147.742188 37.328125 147 37.566406 C 146.210938 37.816406 145.753906 38.421875 145.710938 39.339844 C 145.683594 39.953125 145.699219 40.570312 145.695312 41.1875 C 145.691406 43.09375 145.6875 45 145.683594 46.90625 C 145.683594 47.109375 145.683594 47.3125 145.683594 47.640625 "/>
<path style=" stroke:none;fill-rule:nonzero;fill:rgb(38.478088%,76.615906%,20.350647%);fill-opacity:1;" d="M 104.125 26.269531 C 103.484375 27.097656 102.859375 27.941406 102.195312 28.753906 C 100.726562 30.554688 99.25 32.347656 97.882812 34.238281 C 96.691406 35.890625 95.570312 37.59375 94.648438 39.402344 C 93.675781 41.304688 92.804688 43.269531 92.273438 45.359375 C 92.046875 46.25 91.78125 47.132812 91.523438 48.054688 C 89.75 48.054688 87.976562 48.054688 86.148438 48.054688 C 86.488281 46.851562 87.058594 45.804688 87.667969 44.800781 C 89.046875 42.535156 90.664062 40.4375 92.320312 38.375 C 93.527344 36.871094 94.84375 35.464844 96.101562 34 C 97.988281 31.800781 100.003906 29.714844 102.097656 27.707031 C 102.722656 27.105469 103.4375 26.59375 104.109375 26.042969 C 104.113281 26.117188 104.121094 26.195312 104.125 26.269531 "/>
<path style=" stroke:none;fill-rule:nonzero;fill:rgb(38.478088%,76.615906%,20.350647%);fill-opacity:1;" d="M 50.042969 47.707031 C 50.042969 43.65625 50.042969 39.675781 50.042969 35.652344 C 50.683594 35.652344 51.292969 35.652344 52.070312 35.652344 C 52.53125 36.039062 53.109375 36.519531 53.742188 37.050781 C 53.859375 36.859375 53.96875 36.675781 54.082031 36.488281 C 54.40625 35.964844 54.839844 35.628906 55.492188 35.605469 C 55.863281 35.59375 56.230469 35.519531 56.632812 35.46875 C 56.714844 36.53125 56.800781 37.570312 56.890625 38.726562 C 56.78125 38.851562 56.628906 39.019531 56.539062 39.121094 C 55.988281 39.121094 55.609375 39.101562 55.226562 39.125 C 53.992188 39.195312 53.382812 39.816406 53.359375 41.054688 C 53.339844 42.082031 53.359375 43.109375 53.359375 44.136719 C 53.359375 45.308594 53.359375 46.476562 53.359375 47.707031 C 52.25 47.707031 51.183594 47.707031 50.042969 47.707031 "/>
<path style=" stroke:none;fill-rule:nonzero;fill:rgb(95.796204%,52.822876%,8.175659%);fill-opacity:1;" d="M 175.117188 35.8125 C 175.117188 36.585938 175.117188 37.257812 175.117188 37.957031 C 174.851562 38.167969 174.515625 38.035156 174.207031 38.050781 C 173.394531 38.09375 172.566406 37.957031 171.773438 38.226562 C 171.480469 38.328125 171.199219 38.46875 170.9375 38.582031 C 170.777344 39.355469 171.183594 39.800781 171.675781 40.117188 C 172.355469 40.554688 173.105469 40.882812 173.808594 41.289062 C 174.234375 41.535156 174.675781 41.789062 175.027344 42.125 C 176.027344 43.078125 176.441406 44.859375 175.363281 46.246094 C 174.824219 46.933594 174.128906 47.269531 173.296875 47.386719 C 173.066406 47.421875 172.828125 47.40625 172.59375 47.40625 C 171.246094 47.40625 169.902344 47.40625 168.496094 47.40625 C 168.496094 46.710938 168.496094 46.050781 168.496094 45.300781 C 168.917969 45.300781 169.351562 45.300781 169.777344 45.300781 C 170.542969 45.300781 171.304688 45.300781 172.066406 45.308594 C 172.679688 45.3125 173.160156 45.117188 173.34375 44.488281 C 173.246094 43.335938 172.425781 42.789062 171.53125 42.3125 C 170.945312 42.003906 170.308594 41.777344 169.753906 41.414062 C 168.480469 40.582031 168.105469 38.933594 168.800781 37.5625 C 169.367188 36.445312 170.308594 35.882812 171.519531 35.824219 C 172.6875 35.769531 173.859375 35.8125 175.117188 35.8125 "/>
<path style=" stroke:none;fill-rule:nonzero;fill:rgb(95.81604%,52.819824%,8.306885%);fill-opacity:1;" d="M 123.199219 47.703125 C 123.199219 43.652344 123.199219 39.671875 123.199219 35.707031 C 124.652344 35.324219 125.746094 35.796875 126.566406 37.144531 C 127.15625 35.507812 128.410156 35.410156 129.730469 35.441406 C 129.980469 36.628906 129.867188 38.164062 129.460938 38.898438 C 128.289062 38.929688 127.230469 39.332031 126.324219 40.230469 C 126.324219 42.6875 126.324219 45.167969 126.324219 47.703125 C 125.265625 47.703125 124.257812 47.703125 123.199219 47.703125 "/>
<path style=" stroke:none;fill-rule:nonzero;fill:rgb(95.748901%,52.362061%,7.569885%);fill-opacity:1;" d="M 134.070312 47.769531 C 133.226562 47.769531 132.378906 47.769531 131.4375 47.769531 C 131.519531 41.953125 131.597656 36.191406 131.675781 30.367188 C 132.460938 30.234375 133.269531 30.3125 134.078125 30.324219 C 134.136719 30.378906 134.199219 30.433594 134.257812 30.488281 C 134.265625 35.6875 134.269531 40.886719 134.273438 46.082031 C 134.273438 46.582031 134.265625 47.082031 134.257812 47.582031 C 134.195312 47.644531 134.132812 47.707031 134.070312 47.769531 "/>
<path style=" stroke:none;fill-rule:nonzero;fill:rgb(95.852661%,53.321838%,8.503723%);fill-opacity:1;" d="M 117.753906 35.636719 C 118.691406 35.636719 119.566406 35.636719 120.507812 35.636719 C 120.554688 35.828125 120.640625 36.015625 120.640625 36.199219 C 120.648438 40.011719 120.648438 43.824219 120.648438 47.683594 C 120.175781 47.859375 119.679688 47.746094 119.195312 47.765625 C 118.730469 47.78125 118.265625 47.769531 117.753906 47.769531 C 117.753906 43.714844 117.753906 39.710938 117.753906 35.636719 "/>
<path style=" stroke:none;fill-rule:nonzero;fill:rgb(38.28125%,76.528931%,19.810486%);fill-opacity:1;" d="M 16.402344 35.640625 C 17.339844 35.640625 18.210938 35.640625 19.140625 35.640625 C 19.152344 35.953125 19.175781 36.234375 19.175781 36.519531 C 19.179688 37.75 19.089844 38.988281 19.199219 40.207031 C 19.40625 42.484375 19.246094 44.761719 19.308594 47.039062 C 19.316406 47.242188 19.308594 47.445312 19.308594 47.695312 C 18.8125 47.835938 18.316406 47.75 17.832031 47.765625 C 17.371094 47.777344 16.90625 47.769531 16.402344 47.769531 C 16.402344 43.707031 16.402344 39.710938 16.402344 35.640625 "/>
<path style=" stroke:none;fill-rule:nonzero;fill:rgb(95.767212%,52.351379%,7.83844%);fill-opacity:1;" d="M 137.285156 47.601562 C 137.285156 43.515625 137.285156 39.515625 137.285156 35.480469 C 138.199219 35.480469 139.070312 35.480469 139.941406 35.480469 C 140.113281 36.164062 140.1875 44.097656 140.050781 47.53125 C 139.609375 47.671875 139.144531 47.582031 138.6875 47.597656 C 138.25 47.613281 137.8125 47.601562 137.285156 47.601562 "/>
<path style=" stroke:none;fill-rule:nonzero;fill:rgb(95.81604%,52.819824%,8.306885%);fill-opacity:1;" d="M 140.316406 32.738281 C 139.496094 33.578125 138.363281 33.757812 137.589844 33.179688 C 136.675781 32.496094 136.753906 31.355469 137.132812 30.757812 C 137.621094 29.976562 138.757812 29.691406 139.609375 30.121094 C 140.511719 30.574219 140.761719 31.488281 140.316406 32.738281 "/>
<path style=" stroke:none;fill-rule:nonzero;fill:rgb(95.796204%,52.822876%,8.175659%);fill-opacity:1;" d="M 119.765625 33.808594 C 118.339844 33.894531 117.519531 33.453125 117.335938 32.503906 C 117.113281 31.339844 117.605469 30.667969 118.980469 30.203125 C 120.078125 30.261719 120.828125 30.761719 121 31.820312 C 121.144531 32.730469 120.648438 33.375 119.765625 33.808594 "/>
<path style=" stroke:none;fill-rule:nonzero;fill:rgb(38.478088%,76.615906%,20.350647%);fill-opacity:1;" d="M 19.367188 33.875 C 19.105469 34.042969 18.886719 34.1875 18.667969 34.332031 C 17.210938 34.441406 16.328125 34.003906 16.183594 33.042969 C 16.015625 31.9375 16.371094 31.265625 17.363281 30.890625 C 18.359375 30.515625 19.28125 31.050781 19.839844 32.214844 C 19.863281 33 19.863281 33 19.367188 33.875 "/>
<path style=" stroke:none;fill-rule:nonzero;fill:rgb(57.447815%,83.659363%,42.87262%);fill-opacity:1;" d="M 104.125 26.269531 C 104.121094 26.195312 104.113281 26.117188 104.109375 26.042969 C 104.164062 25.992188 104.21875 25.941406 104.273438 25.890625 L 104.3125 25.925781 C 104.25 26.039062 104.1875 26.15625 104.125 26.269531 "/>
<path style=" stroke:none;fill-rule:nonzero;fill:rgb(57.447815%,83.659363%,42.87262%);fill-opacity:1;" d="M 104.46875 25.730469 C 104.496094 25.683594 104.523438 25.636719 104.554688 25.589844 C 104.523438 25.632812 104.492188 25.679688 104.464844 25.726562 C 104.464844 25.726562 104.46875 25.730469 104.46875 25.730469 "/>
<path style=" stroke:none;fill-rule:nonzero;fill:rgb(57.447815%,83.659363%,42.87262%);fill-opacity:1;" d="M 104.273438 25.890625 C 104.339844 25.835938 104.402344 25.78125 104.46875 25.730469 L 104.464844 25.726562 C 104.410156 25.792969 104.359375 25.859375 104.3125 25.925781 L 104.273438 25.890625 "/>
<path style=" stroke:none;fill-rule:nonzero;fill:rgb(96.069336%,48.18573%,7.858276%);fill-opacity:1;" d="M 134.257812 30.488281 C 134.199219 30.433594 134.136719 30.378906 134.078125 30.324219 C 134.136719 30.378906 134.199219 30.433594 134.257812 30.488281 "/>
</g>
</svg>
