<svg xmlns="http://www.w3.org/2000/svg" width="176pt" height="38.693" viewBox="0 0 176 29.02"><defs><clipPath id="a"><path d="M18 17h7v12.02h-7Zm0 0"/></clipPath></defs><path d="m169.176 21.727-3.903-2.254h-3.101c1.793 1.203 4.996 3.386 4.996 3.386l-4.996 3.286 2.879.136s2.523-1.644 3.719-2.418c.886.489 4.492 2.36 4.492 2.36l2.738-.004zl2.304.015 3.5-2.27h-2.652z" style="stroke:none;fill-rule:nonzero;fill:#f15030;fill-opacity:1"/><path d="m72.445 19.535-4.53 3.781-5.075-3.824-2.16-.02.062 6.727h2.383v-4.113s3.242 2.512 4.668 3.637c1.59-1.246 3.062-2.407 4.746-3.73v4.202h2.387l.011-6.66zM106.898 26.2s-2.949-1.575-4.43-2.345c1.5.028 2.63-.445 3.278-1.671v-1.125c-.058-1.258-2.16-1.586-2.16-1.586H93.93l.047 6.734h2.398V23.84s1.863.015 2.574.015c1.555.852 4.406 2.356 4.406 2.356zM54.941 24.793c-2.972.066-6.296-.074-9.132-.008-.04 0-.004 1.414-.004 1.414l8.62-.027s2.524.183 2.923-.723c.402-.91 1.097-3.422-2.317-3.422q-.628-.002-1.25-.004h-5.34V20.88h8.672c-.035-.512-.058-.89-.093-1.39-2.833 0-5.56.03-8.286-.012-1.12-.02-2.093.253-2.922.992v2.328c-.207 1.117 9.13.844 9.13.844z" style="stroke:none;fill-rule:nonzero;fill:#2a1414;fill-opacity:1"/><path d="m147.172 19.473.043 6.75h2.445v-4.45c2.496 1.32 8.754 4.45 8.754 4.45l1.762-.024v-6.726h-2.344l.008 4.472-8.668-4.472z" style="stroke:none;fill-rule:nonzero;fill:#f15030;fill-opacity:1"/><path d="M83.04 19.512c-1.993 2.195-3.95 4.355-6.08 6.707h2.735a976 976 0 0 1 2.02-2.352c.586.445.996.754 1.422 1.074h4.547c.554.524 1.027.965 1.375 1.29h2.793c-2.188-2.403-6.348-6.72-6.348-6.72zM115.738 26.21v-5.417h4.946s.007-1.36.011-1.3c.004.062-12.84-.063-12.832 0 .008.062 0 1.327 0 1.327s3.399.004 5.043.004v5.387z" style="stroke:none;fill-rule:nonzero;fill:#2a1414;fill-opacity:1"/><path d="m123.535 26.215 10.324-.047v-1.555l-7.91.012s-.027-3.457-.027-5.152h-2.387zM137.473 23.453l.12 2.711h2.458v-3.289c-1.41-.883-6.004-3.402-6.004-3.402h-3.035s4.527 2.793 6.46 3.98M139.477 21.734l1.238.692 4.941-2.953h-3.05z" style="stroke:none;fill-rule:nonzero;fill:#f15030;fill-opacity:1"/><path d="M96.36 20.926h6.757v1.472H96.36zM84.273 20.98c.735.825 1.391 1.567 2.137 2.403H82.22c.703-.82 1.324-1.547 2.054-2.403" style="stroke:none;fill-rule:evenodd;fill:#fff;fill-opacity:1"/><path d="M10.832 6.703c.328.219 30.344 10.555 30.344 10.555H8.52l5.168-4.73z" style="stroke:none;fill-rule:nonzero;fill:#2a1414;fill-opacity:1"/><path d="M0 3.324 16.602 8.68l4.18 4.617-12.094 3.96 4.945-5.167zM20.012 5.164c-.223.328 4.945-5.168 4.945-5.168V5.82z" style="stroke:none;fill-rule:nonzero;fill:#971634;fill-opacity:1"/><g clip-path="url(#a)"><path d="M18.582 17.258h6.266V29.02Zm0 0" style="stroke:none;fill-rule:nonzero;fill:#971634;fill-opacity:1"/></g><path d="m24.848 11.602 8.207-2.899.336-.117L49.477 2.91 36.39 12.31l-3.188-2.97-8.355 7.919z" style="stroke:none;fill-rule:nonzero;fill:#f2531b;fill-opacity:1"/></svg>