<?xml version="1.0" encoding="UTF-8"?>
<svg xmlns="http://www.w3.org/2000/svg" xmlns:xlink="http://www.w3.org/1999/xlink" width="176pt" height="32.12pt" viewBox="0 0 176 32.12" version="1.1">
<defs>
<clipPath id="clip1">
  <path d="M 50 1 L 82 1 L 82 32.121094 L 50 32.121094 Z M 50 1 "/>
</clipPath>
<clipPath id="clip2">
  <path d="M 0 1 L 32 1 L 32 32.121094 L 0 32.121094 Z M 0 1 "/>
</clipPath>
<clipPath id="clip3">
  <path d="M 136 7 L 155 7 L 155 32.121094 L 136 32.121094 Z M 136 7 "/>
</clipPath>
<clipPath id="clip4">
  <path d="M 148 7 L 176 7 L 176 32.121094 L 148 32.121094 Z M 148 7 "/>
</clipPath>
<clipPath id="clip5">
  <path d="M 109 7 L 139 7 L 139 32.121094 L 109 32.121094 Z M 109 7 "/>
</clipPath>
</defs>
<g id="surface1">
<path style=" stroke:none;fill-rule:nonzero;fill:rgb(28.237915%,63.925171%,87.692261%);fill-opacity:1;" d="M 145.429688 7.171875 L 158.878906 0.0117188 L 148.308594 0 Z M 145.429688 7.171875 "/>
<path style=" stroke:none;fill-rule:nonzero;fill:rgb(94.351196%,27.764893%,11.294556%);fill-opacity:1;" d="M 54.777344 7.683594 L 57.328125 1.167969 L 36.164062 1.167969 L 24.714844 31.820312 L 46.71875 31.820312 L 49.289062 25.242188 L 36.707031 25.242188 L 38.878906 19.773438 L 50.105469 19.773438 L 52.429688 13.695312 L 41.199219 13.695312 L 43.546875 7.683594 L 54.777344 7.683594 "/>
<g clip-path="url(#clip1)" clip-rule="nonzero">
<path style=" stroke:none;fill-rule:nonzero;fill:rgb(94.351196%,27.764893%,11.294556%);fill-opacity:1;" d="M 52.722656 25.246094 L 50.121094 31.851562 C 55.933594 32.480469 60.878906 31.804688 60.878906 31.804688 C 64.316406 31.480469 70.082031 30.355469 73.203125 22.875 L 81.878906 1.167969 L 71.949219 1.167969 L 64.359375 19.957031 C 64.359375 19.957031 63.144531 24.035156 58.808594 25.105469 C 57.265625 25.496094 54.433594 25.339844 52.722656 25.246094 "/>
</g>
<g clip-path="url(#clip2)" clip-rule="nonzero">
<path style=" stroke:none;fill-rule:nonzero;fill:rgb(94.351196%,27.764893%,11.294556%);fill-opacity:1;" d="M 2.601562 25.246094 L 0 31.851562 C 5.8125 32.480469 10.75 31.804688 10.75 31.804688 C 14.195312 31.480469 19.964844 30.355469 23.082031 22.875 L 31.761719 1.167969 L 21.828125 1.167969 L 14.234375 19.957031 C 14.234375 19.957031 13.023438 24.035156 8.683594 25.105469 C 7.140625 25.496094 4.308594 25.339844 2.601562 25.246094 "/>
</g>
<path style=" stroke:none;fill-rule:nonzero;fill:rgb(94.351196%,27.764893%,11.294556%);fill-opacity:1;" d="M 103.082031 1.167969 L 95.800781 20.835938 C 94.070312 25.234375 92.480469 25.457031 90.089844 25.457031 C 87.273438 25.457031 87.976562 23.144531 88.355469 21.789062 L 96.113281 1.167969 L 86.296875 1.167969 L 78.28125 22.71875 C 75.484375 30.402344 81.851562 32 84.996094 32 L 90.148438 32 C 92.964844 32 101.824219 31.238281 104.527344 24 L 112.988281 1.167969 L 103.082031 1.167969 "/>
<g clip-path="url(#clip3)" clip-rule="nonzero">
<path style=" stroke:none;fill-rule:nonzero;fill:rgb(94.351196%,27.764893%,11.294556%);fill-opacity:1;" d="M 136.050781 32.113281 L 144.976562 32.113281 L 154.035156 7.726562 L 145.148438 7.726562 L 136.050781 32.113281 "/>
</g>
<g clip-path="url(#clip4)" clip-rule="nonzero">
<path style=" stroke:none;fill-rule:nonzero;fill:rgb(94.351196%,27.764893%,11.294556%);fill-opacity:1;" d="M 174.105469 7.726562 C 169.316406 7.726562 166.519531 10.46875 165.082031 12.234375 L 166.867188 7.726562 L 157.984375 7.726562 L 148.882812 32.113281 L 157.804688 32.113281 L 162.140625 20.570312 C 164.363281 15.382812 169.117188 15.042969 169.953125 15.042969 L 173.328125 15.042969 L 176 7.726562 L 174.105469 7.726562 "/>
</g>
<g clip-path="url(#clip5)" clip-rule="nonzero">
<path style=" stroke:none;fill-rule:nonzero;fill:rgb(94.351196%,27.764893%,11.294556%);fill-opacity:1;" d="M 126.742188 23.34375 C 126.742188 23.34375 125.570312 26.96875 120.515625 26.96875 C 119.761719 26.96875 118.691406 26.523438 118.859375 25.140625 C 119.050781 23.617188 120.046875 23.03125 121.289062 22.761719 L 127.371094 21.617188 Z M 120.035156 18.347656 C 114.371094 18.953125 109.835938 21.539062 109.242188 26.382812 C 108.941406 28.792969 110.136719 32.089844 116.496094 32.089844 C 116.496094 32.089844 121.269531 32.28125 124.234375 30.246094 L 123.535156 32.113281 L 132.246094 32.113281 L 138.226562 15.738281 L 138.539062 14.890625 C 139.371094 12.667969 139.335938 7.722656 128.828125 7.507812 C 124.402344 7.414062 117.160156 8.269531 112.875 15.746094 L 121.566406 15.746094 C 121.566406 15.746094 122.804688 12.542969 126.792969 12.542969 C 126.792969 12.542969 129.289062 12.421875 129.484375 14.074219 C 129.484375 14.074219 129.765625 16.484375 126.105469 17.375 C 123.976562 17.898438 120.035156 18.347656 120.035156 18.347656 "/>
</g>
</g>
</svg>
