<svg xmlns="http://www.w3.org/2000/svg" width="199.64" height="59pt" viewBox="0 0 149.73 59"><defs><clipPath id="a"><path d="M0 54h149.73v5H0Zm0 0"/></clipPath><clipPath id="b"><path d="M0 32h149.73v6H0Zm0 0"/></clipPath></defs><g clip-path="url(#a)"><path d="M2.855 59c-.167-.078-.332-.187-.511-.223-1.52-.316-2.211-1.132-2.219-2.644-.004-.461 0-.918 0-1.32.375-.41.71-.63 1.2-.27.21.34.312.715.222 1.176-.125.613.164 1.113.734 1.347.446.184.938.266 1.418.356.254.047.524.008.79.008h77.984q31.441.007 62.882.008c.524 0 1.06.003 1.567-.098.898-.18 1.21-.59 1.254-1.496.015-.328.004-.657.004-.942.625-.422.625-.422 1.332-.097 0 .71.07 1.468-.02 2.207-.12 1.02-.914 1.449-1.8 1.734-.239.078-.47.168-.708.254z" style="stroke:none;fill-rule:nonzero;fill:#3583af;fill-opacity:1"/></g><path d="M0 15.953c.418-.262.691-.488 1.004-.625 2.945-1.3 5.86-2.664 8.848-3.848 2.468-.976 4.996-1.82 7.543-2.574 2.574-.761 5.183-1.41 7.808-1.972 2.27-.489 4.574-.836 6.875-1.157 1.621-.226 3.262-.336 4.899-.437a83 83 0 0 1 4.82-.172c2.758-.012 5.504.227 8.246.512 5.41.566 10.645 1.847 15.797 3.547 2.707.894 5.437 1.738 8.242 2.27 1.383.26 2.79.378 4.184.57 2.488.34 4.992.203 7.484.163 1.54-.023 3.074-.222 4.61-.347.847-.07 1.699-.137 2.546-.23 1.754-.2 3.516-.391 5.266-.637 1.492-.207 2.976-.465 4.46-.727 2.966-.527 5.938-1.016 8.888-1.633 4.363-.91 8.722-1.836 13.046-2.902 6.27-1.543 12.504-3.215 18.754-4.836.985-.254 1.965-.527 2.95-.785.68-.18.695-.176 1.457.004-.157.414-.52.59-.864.754-2.3 1.12-4.601 2.254-6.925 3.328a148 148 0 0 1-6.04 2.66 1004 1004 0 0 1-12.41 5.023 97 97 0 0 1-5.36 1.953 304 304 0 0 1-8.812 2.813 223 223 0 0 1-8.8 2.477c-4 1.027-8.02 1.968-12.036 2.925-1.91.457-3.824.914-5.75 1.297-2.312.461-4.636.852-6.96 1.254a40.6 40.6 0 0 1-7.844.578c-2.266-.05-4.504-.347-6.723-.828-4.512-.976-8.805-2.601-13.008-4.457a80.7 80.7 0 0 0-12.922-4.445c-2.89-.73-5.812-1.336-8.82-1.36-1.445-.015-2.89-.183-4.328-.117-2.293.102-4.582.29-6.863.54-2.57.28-5.133.652-7.696 1.015-1.293.187-2.578.46-3.867.672-.504.086-1.031.222-1.699-.266" style="stroke:none;fill-rule:nonzero;fill:#3583af;fill-opacity:1"/><g clip-path="url(#b)"><path d="M1.582 37.184H.434q-.345-1.448-.028-2.778c.168-.703.746-1.16 1.438-1.375.46-.148.957-.21 1.445-.254.492-.047.988-.023 1.48-.023h140.47c.624 0 1.253-.004 1.874.027 1.426.074 2.73 1.035 2.61 2.719-.032.45-.004.906-.004 1.469-.473.035-.84.062-1.293.097-.074-.394-.156-.703-.184-1.011-.027-.325-.008-.653-.008-.867-.394-.696-.914-.907-1.547-.91-.332 0-.66-.005-.988-.005H46.785c-14.21.004-28.43.004-42.64.012-.426 0-.864.008-1.27.11-.887.218-1.187.636-1.223 1.535-.015.386-.043.77-.07 1.254" style="stroke:none;fill-rule:nonzero;fill:#3583af;fill-opacity:1"/></g><path d="M23.863 38.55c.328.927.36 1.825.004 2.774-.957.215-1.933.438-3.023.684.035-.621.062-1.137.09-1.653-.637-.222-8.735-.312-10.778-.101-.375 1.148-.34 2.39-.535 3.598.328.304.707.18 1.047.183 3.16.012 6.316-.004 9.477.016.918.008 1.835.101 2.64.683.434.508.652 1.121.578 1.805-.183 1.66-.312 3.332-.62 4.969-.356 1.906-1.372 2.71-3.286 2.722q-5.97.047-11.941.004c-1.926-.011-2.672-.828-2.645-2.742.004-.164-.008-.332.024-.492.058-.32.144-.633.23-.996.977-.211 1.953-.422 3.047-.66-.059.683-.11 1.254-.156 1.808.726.22 9.8.297 11.644.098.387-1.266.402-2.621.66-4.059-.488-.023-.84-.054-1.187-.054-3.227-.008-6.45-.008-9.672-.02-.39-.004-.79-.039-1.168-.12-1.281-.286-1.79-.88-1.813-2.192-.011-.653.07-1.313.172-1.957a58 58 0 0 1 .575-3.184c.257-1.238 1.082-1.926 2.289-2.133a11.7 11.7 0 0 1 2.054-.187c3.059-.02 6.118-.016 9.176-.004.484.004.973.101 1.461.164.684.094 1.246.39 1.656 1.047M130.754 45.121c.422.024.742.055 1.059.055 2.23.004 4.46.011 6.69-.004.556-.004 1.106-.086 1.657-.14.594-.063 1.008-.41 1.117-.958.188-.96.305-1.933.395-2.906.047-.52-.262-.875-.781-.973-.418-.082-.84-.152-1.262-.152-2.395-.016-4.79-.012-7.184-.008-.32.004-.64.031-1.02.047-.335 1.672-.488 3.313-.671 5.04m7.707 2.887c2.156 2.094 4.219 4.094 6.394 6.21h-5.113c-1.793-2.03-3.656-4.144-5.554-6.292h-3.793c-.47 2.054-.524 4.156-.918 6.27-1.082.148-2.18.03-3.399.074.234-2.934.695-5.73 1.047-8.543.352-2.782.758-5.559 1.148-8.395h.965c4.242 0 8.48-.012 12.723.016.676.004 1.363.152 2.023.32.79.207 1.23.797 1.203 1.602-.046 1.308-.167 2.613-.292 3.917-.063.649-.192 1.293-.317 1.934-.3 1.574-1.308 2.488-2.887 2.602-.879.062-1.761.101-2.644.156-.149.012-.293.062-.586.129M103.168 40.617c-.094 0-.188-.004-.281-.004-.75 1.145-1.52 2.282-2.246 3.442-.739 1.175-1.61 2.277-2.309 3.68 2.406 0 4.637.003 6.863-.008.145 0 .29-.102.54-.192-.868-2.34-1.72-4.629-2.567-6.918m-1.344-3.246h3.54c2.308 5.55 4.59 11.145 6.937 16.863h-3.985c-.453-1.125-.953-2.359-1.425-3.539-.774-.23-8.965-.3-10.493-.105-.773 1.172-1.578 2.402-2.386 3.629h-3.489zM70.887 54.21h-3.465c.11-2.378.59-4.655.848-6.948.261-2.305.609-4.598.925-6.934-.86-.246-1.68-.098-2.488-.121-.82-.031-1.644-.008-2.469-.008h-2.504c.141-1.004.27-1.898.399-2.82h18.515c-.105.918-.203 1.781-.304 2.687-.817.266-1.64.098-2.446.125-.851.032-1.707.008-2.562.008h-2.563c-.632 4.703-1.253 9.332-1.886 14.012M36.508 43.918l6.582-6.563h4.168c-3.156 3.063-6.235 6.051-9.465 9.18-.543 2.371-.625 5-1.11 7.64-1.124.231-2.312-.034-3.566.16.332-2.538.66-5.054.996-7.612-2.347-3.106-4.703-6.215-7.09-9.371h4.762c1.55 2.16 3.117 4.332 4.723 6.566M51.77 51.3h12.164c-.121.993-.239 1.91-.348 2.817-.746.176-14.188.235-15.66.063 0-.399-.043-.817.008-1.223.214-1.586.472-3.168.687-4.754.176-1.266.309-2.535.477-3.8.215-1.653.445-3.305.672-4.958.09-.675.187-1.351.289-2.062h3.5c-.243 2.32-.606 4.597-.922 6.883-.325 2.289-.57 4.593-.867 7.035M118.129 37.36h3.531c-.695 5.632-1.476 11.21-2.219 16.847h-3.539c.743-5.602 1.48-11.191 2.227-16.848" style="stroke:none;fill-rule:nonzero;fill:#3583af;fill-opacity:1"/></svg>