<svg xmlns="http://www.w3.org/2000/svg" width="176pt" height="43.1pt" viewBox="0 0 176 43.1"><defs><clipPath id="a"><path d="M47 10h129v33.102H47Zm0 0"/></clipPath></defs><g clip-path="url(#a)"><path d="M92.195 25.11c-5.039-.044-5.941.742-6.87 5.585l-2.122 12.121h-6.176l3.996-22.504 5.004-1.171-.062 2.515c.496-1.011 1.512-2.383 7.7-2.46zM47.027 42.816h6.621l2.114-11.847h8.61l2.593-5.77H56.738l1.215-6.672h11.738l1.055-5.808H52.348Zm20.848 0h6.133l3.965-22.5H71.84Zm32.098.286c4.144 0 8.328-1.504 8.328-7.23 0-3.575-1.828-5.161-5.281-6.704-2.07-.934-3.29-1.504-3.29-2.516 0-1.3.653-1.953 2.235-1.953 2.234 0 3.937.57 5.156 1.219l3.168-4.79c-1.746-1.019-4.305-1.75-7.836-1.75-4.023 0-8.734 1.384-8.734 7.517 0 3.328 1.87 4.875 4.996 6.335 3.047 1.38 3.738 1.747 3.738 2.926 0 1.543-.933 1.907-2.273 1.907-2.887 0-5.078-1.055-6.54-1.989l-3.128 4.711c2.191 1.258 5.156 2.317 9.46 2.317m50-.286h6.132l3.97-22.5h-6.134ZM72.262 17.715h6.218l1.239-6.836-6.485 1.473Zm82.093 0h6.223l1.238-6.836-6.488 1.473Zm4.766 25.101h6.176l2.125-12.12c.941-4.919 1.848-5.653 7.105-5.587L176 19.191c-6.41.04-7.437 1.442-7.941 2.465l.062-2.515-5.004 1.172Zm-10.66 0h-6.356l-.546-4.855-.032-.305h-9.543l-2.468 5.16h-6.278l13.926-28.476 7.219-1.621Zm-13.953-10.785-.004.004h6.45l-1.2-10.285-.578.328Zm-14.024-6.789h4.832l.977-5.36h-4.875l1.11-6.312-5.133 1.203-1.692 5.11h-3.613l-.934 5.36h3.196l-1.793 9.788c-1.23 6.63-.008 8.461 6.539 7.961 1.18-.09 2.039-.3 2.683-.562l1.442-5.375c-.61.172-1.383.332-2.297.386-2.27.133-2.543-.437-2.156-2.437z" style="stroke:none;fill-rule:nonzero;fill:#c41b32;fill-opacity:1"/></g><path d="M28.945 10.402H19.48l1.48-8.156L30.833.004zM14.36 21.782 3.145 42.815h10.507l5.72-12.093 1.28-.735 1.465 12.828H32.66l-3.87-24.312ZM0 12.718l2.816 6.219 42.258-3.524 1.469-2.695z" style="stroke:none;fill-rule:nonzero;fill:#9da4a6;fill-opacity:1"/></svg>