<?xml version="1.0" encoding="UTF-8"?>
<svg xmlns="http://www.w3.org/2000/svg" xmlns:xlink="http://www.w3.org/1999/xlink" width="176pt" height="29.23pt" viewBox="0 0 176 29.23" version="1.1">
<g id="surface1">
<path style=" stroke:none;fill-rule:evenodd;fill:rgb(6.266785%,5.734253%,5.047607%);fill-opacity:1;" d="M 22.300781 6.011719 C 24.054688 4.820312 25.773438 2.078125 24.621094 1.023438 C 23.976562 0.421875 22.910156 0.675781 21.820312 1.132812 C 20.777344 1.574219 19.410156 2.679688 18.414062 4.28125 C 17.765625 5.351562 17.367188 6.644531 16.941406 8.113281 C 18.007812 7.925781 20.429688 7.296875 22.300781 6.011719 Z M 11.230469 13.355469 C 9.492188 12.679688 7.917969 12.011719 5.660156 12.066406 C 3.539062 12.113281 1.707031 12.730469 1.707031 14.664062 C 1.707031 15.878906 3.722656 17.191406 6.378906 17.191406 C 9.492188 17.191406 10.953125 15.664062 12.503906 13.84375 C 12.121094 13.699219 11.460938 13.441406 11.230469 13.355469 Z M 11.90625 21.980469 C 10.382812 22.628906 9.113281 23.726562 8.300781 25.121094 C 7.648438 26.246094 7.796875 27.480469 8.421875 27.972656 C 9.464844 28.820312 10.648438 28.5 11.71875 28.007812 C 13.347656 27.253906 15.046875 25.878906 16.105469 22.699219 C 16.105469 22.699219 16.660156 20.890625 16.660156 20.867188 C 14.070312 21.15625 12.835938 21.585938 11.90625 21.980469 Z M 33.046875 12.902344 C 30.886719 11.824219 28.667969 11.890625 28.03125 11.890625 C 26.160156 11.890625 24.066406 12.328125 22.40625 13.714844 C 20.171875 15.589844 19.421875 18.605469 18.882812 20.277344 C 20.097656 20.15625 22.339844 19.589844 22.8125 19.445312 C 23.820312 19.128906 23.933594 19.113281 24.613281 18.824219 C 24.78125 18.757812 24.945312 18.691406 25.113281 18.613281 C 26.097656 18.183594 26.425781 17.871094 26.449219 17.863281 C 26.582031 17.765625 26.734375 17.699219 26.90625 17.699219 C 27.339844 17.699219 27.691406 18.054688 27.691406 18.488281 C 27.691406 18.917969 27.339844 19.269531 26.90625 19.269531 C 26.515625 19.269531 25.046875 19.375 24.304688 20.15625 C 23.84375 20.636719 23.707031 21.0625 23.671875 21.457031 C 23.65625 21.71875 23.746094 21.910156 23.660156 21.929688 C 23.617188 21.945312 23.582031 21.871094 23.5625 21.769531 C 23.546875 21.679688 23.3125 20.316406 24.367188 19.265625 C 23.4375 19.628906 22.496094 19.875 21.996094 20.003906 C 21.226562 20.210938 19.464844 20.535156 18.78125 20.59375 C 18.742188 20.738281 17.941406 23.078125 17.941406 23.078125 C 16.265625 28.101562 12.421875 28.960938 11.441406 29.148438 C 10.265625 29.363281 8.957031 29.179688 8.089844 28.320312 C 7.648438 27.875 7.492188 27.269531 7.492188 26.652344 C 7.492188 26.238281 7.582031 25.800781 7.765625 25.355469 C 8.210938 24.292969 8.8125 23.65625 9.230469 23.289062 C 10.171875 22.460938 11.402344 21.578125 13.933594 21 C 14.941406 20.761719 16.265625 20.601562 16.757812 20.542969 C 17.617188 17.902344 18.957031 15.445312 20.640625 13.78125 C 18.925781 14.449219 17.707031 14.617188 16.675781 14.65625 C 15.828125 14.675781 15.050781 14.589844 14.226562 14.371094 C 12.433594 16.644531 9.597656 18.242188 5.917969 17.910156 C 2.980469 17.636719 0 16.476562 0 14.472656 C 0 12.429688 3.042969 11.699219 5.660156 11.699219 C 7.816406 11.699219 9.609375 12.367188 11.339844 13.039062 C 11.726562 13.191406 12.394531 13.457031 12.710938 13.558594 C 13.871094 12.011719 14.355469 10.671875 14.925781 8.773438 C 10.664062 9.011719 6.925781 8.425781 5.074219 7.441406 C 4.390625 7.078125 4.117188 6.636719 4.117188 6.414062 C 4.117188 6.363281 4.15625 6.332031 4.207031 6.332031 C 4.246094 6.332031 4.285156 6.363281 4.285156 6.414062 C 4.285156 6.605469 4.675781 7.0625 5.460938 7.382812 C 7.386719 8.1875 10.785156 8.761719 15.027344 8.371094 C 15.121094 8.019531 15.394531 7.09375 15.65625 6.253906 C 16.621094 3.089844 19.492188 0.566406 22.191406 0.109375 C 23.484375 -0.113281 24.636719 0 25.253906 0.625 C 25.589844 0.976562 25.820312 1.488281 25.773438 2.078125 C 25.640625 3.675781 24.390625 5.34375 22.953125 6.460938 C 21.359375 7.699219 18.71875 8.371094 16.808594 8.601562 C 16.277344 10.339844 15.628906 12.480469 14.453125 14.089844 C 15.472656 14.347656 16.289062 14.320312 16.675781 14.3125 C 17.941406 14.300781 19.402344 13.984375 21.371094 13.140625 C 22.5625 12.230469 25.113281 10.96875 28.113281 11.269531 C 31.132812 11.578125 33.023438 12.703125 33.105469 12.757812 C 33.210938 12.824219 33.28125 12.910156 33.269531 12.949219 C 33.234375 12.996094 33.179688 12.96875 33.046875 12.902344 Z M 43.878906 14.023438 C 44.679688 14.410156 45.246094 14.828125 45.609375 15.246094 C 45.945312 15.675781 46.132812 16.210938 46.132812 16.824219 C 46.132812 17.574219 45.847656 18.210938 45.273438 18.707031 C 44.703125 19.199219 44 19.445312 43.136719 19.445312 C 42.304688 19.445312 41.589844 19.21875 41.019531 18.746094 C 40.441406 18.292969 40.160156 17.710938 40.152344 17.03125 C 40.160156 16.980469 40.164062 16.890625 40.171875 16.761719 L 41.546875 16.773438 C 41.558594 17.195312 41.714844 17.546875 41.996094 17.800781 C 42.292969 18.058594 42.652344 18.1875 43.117188 18.1875 C 43.5625 18.195312 43.972656 18.058594 44.277344 17.800781 C 44.582031 17.527344 44.722656 17.195312 44.722656 16.824219 C 44.722656 16.453125 44.582031 16.121094 44.285156 15.839844 C 43.972656 15.566406 43.417969 15.246094 42.632812 14.90625 C 41.808594 14.527344 41.21875 14.171875 40.886719 13.792969 C 40.542969 13.417969 40.390625 12.949219 40.390625 12.375 C 40.390625 11.621094 40.664062 11.007812 41.199219 10.507812 C 41.761719 10.039062 42.480469 9.789062 43.332031 9.789062 C 44.066406 9.789062 44.683594 10.019531 45.21875 10.464844 C 45.773438 10.894531 46.023438 11.441406 46.023438 12.039062 L 46.023438 12.25 L 44.65625 12.25 C 44.65625 11.882812 44.53125 11.582031 44.269531 11.367188 C 44.03125 11.15625 43.683594 11.070312 43.226562 11.070312 C 42.796875 11.070312 42.449219 11.167969 42.183594 11.398438 C 41.90625 11.640625 41.769531 11.9375 41.769531 12.28125 C 41.769531 12.769531 42.105469 13.175781 42.761719 13.488281 Z M 59.988281 19.335938 L 58.605469 19.335938 L 58.621094 11.167969 L 56.046875 11.167969 L 56.046875 9.917969 L 62.5625 9.917969 L 62.5625 11.167969 L 59.988281 11.167969 Z M 75.472656 11.132812 L 74.40625 15.363281 L 76.460938 15.363281 Z M 76.746094 16.625 L 74.085938 16.621094 L 73.402344 19.328125 L 71.976562 19.328125 L 74.550781 9.917969 L 76.53125 9.917969 L 78.957031 19.328125 L 77.394531 19.328125 Z M 93.234375 12.679688 C 93.234375 11.683594 92.636719 11.167969 91.449219 11.167969 L 90.210938 11.167969 L 90.210938 14.125 L 91.460938 14.125 C 92.644531 14.125 93.234375 13.640625 93.234375 12.679688 Z M 93.574219 19.328125 L 91.398438 15.40625 L 90.210938 15.40625 L 90.210938 19.328125 L 88.824219 19.328125 L 88.824219 9.917969 L 91.695312 9.917969 C 92.585938 9.917969 93.300781 10.15625 93.828125 10.644531 C 94.351562 11.15625 94.617188 11.804688 94.605469 12.648438 C 94.605469 13.300781 94.449219 13.847656 94.101562 14.28125 C 93.773438 14.707031 93.304688 14.984375 92.707031 15.109375 L 95.183594 19.328125 Z M 107.21875 13.777344 L 110.050781 13.789062 L 110.050781 15.046875 L 107.21875 15.046875 L 107.21875 19.335938 L 105.847656 19.335938 L 105.847656 9.917969 L 110.746094 9.917969 L 110.753906 11.167969 L 107.21875 11.167969 Z M 121.289062 9.917969 L 122.652344 9.917969 L 122.652344 18.089844 L 127.53125 18.089844 L 127.53125 19.328125 L 121.289062 19.328125 Z M 140.785156 19.335938 L 139.414062 19.335938 L 139.414062 14.921875 L 136.722656 9.917969 L 138.261719 9.917969 L 140.097656 13.511719 L 141.996094 9.917969 L 143.519531 9.917969 L 140.785156 14.921875 Z M 153.609375 9.917969 L 159.277344 9.917969 L 159.277344 11.167969 L 154.992188 11.167969 L 154.992188 13.800781 L 158.703125 13.800781 L 158.703125 15.046875 L 154.992188 15.046875 L 154.992188 18.089844 L 159.429688 18.074219 L 159.429688 19.328125 L 153.609375 19.328125 Z M 172.261719 11.167969 L 171.007812 11.167969 L 171.007812 14.125 L 172.28125 14.125 C 173.449219 14.125 174.054688 13.640625 174.054688 12.679688 C 174.054688 11.683594 173.449219 11.167969 172.261719 11.167969 Z M 173.527344 15.109375 L 176 19.328125 L 174.394531 19.328125 L 172.226562 15.40625 L 171.007812 15.40625 L 171.015625 19.328125 L 169.640625 19.328125 L 169.648438 9.917969 L 172.519531 9.917969 C 173.417969 9.917969 174.117188 10.15625 174.640625 10.644531 C 175.164062 11.15625 175.441406 11.8125 175.441406 12.648438 C 175.441406 13.300781 175.261719 13.847656 174.917969 14.28125 C 174.597656 14.707031 174.117188 14.984375 173.527344 15.109375 "/>
</g>
</svg>
