<svg xmlns="http://www.w3.org/2000/svg" width="161.573" height="59pt" viewBox="0 0 121.18 59"><defs><clipPath id="a"><path d="M48.246 51.418h5.531V59h-5.53Zm0 0"/></clipPath><clipPath id="b"><path d="M88.09 0H116v43.738H88.09Zm0 0"/></clipPath><clipPath id="c"><path d="M88 25h33.176v21H88Zm0 0"/></clipPath></defs><path d="M2.457 51.625h1.23l2.563 7.273H4.918l-.512-1.949H1.742l-.617 1.95H0zm-.406 4.3h2.047l-1.024-3.07zM16.902 51.625h1.125v6.145h3.38v1.128h-4.505zM34.316 51.625h1.125l2.563 7.273h-1.23l-.618-1.949h-2.558l-.72 1.95h-1.124zm-.41 4.3h1.946l-1.024-3.07z" style="stroke:none;fill-rule:nonzero;fill:#a81a2e;fill-opacity:1"/><g clip-path="url(#a)"><path d="M49.371 56.438c0 .308 0 .511.102.718.105.207.207.309.308.512.203.102.41.207.617.207.204.102.407.102.614.102.203 0 .41 0 .613-.102.207-.105.309-.105.41-.207.102-.102.203-.203.309-.41 0-.102.101-.203.101-.41 0-.203-.101-.41-.207-.614-.101-.101-.203-.203-.406-.203-.207-.105-.512-.207-.82-.308-.309-.102-.719-.203-1.13-.309a4.6 4.6 0 0 1-.714-.309c-.207-.203-.309-.304-.41-.511a.78.78 0 0 1-.207-.512c-.102-.102-.102-.305-.102-.512 0-.41.102-.715.207-.922.102-.304.305-.511.512-.714.203-.207.512-.309.816-.41.309 0 .516-.106.82-.106.41 0 .72.105 1.028.207.305 0 .512.207.816.41.207.203.41.41.512.715.106.309.207.617.207 1.027h-1.129c-.101-.515-.203-.82-.511-1.027q-.306-.305-.922-.305c-.102 0-.305 0-.407.102-.207 0-.308 0-.414.101l-.304.309c0 .102-.102.305-.102.41 0 .309.102.512.203.613.203.208.309.31.617.41h.305c.102.102.309.102.512.204.207.105.41.105.617.207.203 0 .305.101.406.101.207.102.41.203.617.309.102.102.204.309.41.41.102.203.102.41.204.512 0 .203.101.41.101.613 0 .41-.101.719-.304 1.024-.106.308-.309.511-.512.718a2.6 2.6 0 0 1-.922.41c-.207.102-.617.102-.926.102-.304 0-.715 0-1.023-.102-.305-.101-.613-.308-.922-.511-.203-.207-.41-.41-.512-.82-.203-.31-.203-.72-.203-1.13z" style="stroke:none;fill-rule:nonzero;fill:#a81a2e;fill-opacity:1"/></g><path d="M64.531 51.625h1.23v3.277l2.868-3.277h1.433l-2.558 2.867 2.766 4.406h-1.434l-2.152-3.484-.922 1.023v2.461h-1.23zM83.07 51.625h1.23l2.56 7.273h-1.227l-.613-1.949h-2.665l-.617 1.95h-1.125zm-.41 4.3h2.05l-1.022-3.07z" style="stroke:none;fill-rule:nonzero;fill:#a81a2e;fill-opacity:1"/><g clip-path="url(#b)"><path d="M103.148-.102c2.254 1.946 6.352 11.985-3.277 27.86-3.484 5.738-8.605 12.906-11.574 15.469-.207.203-.102.304.512-.106 2.968-1.738 19.254-15.156 22.945-20.687 2.047-3.278 7.68-12.09.816-17.825-4.812-3.996-9.422-4.71-9.422-4.71" style="stroke:none;fill-rule:nonzero;fill:#a81a2e;fill-opacity:1"/></g><g clip-path="url(#c)"><path d="M115.645 25.094c-.102 3.793-6.043 11.062-16.801 15.98-5.223 2.356-9.422 4.098-10.242 4.406-.715.305-.407.41.308.305 1.945-.203 7.067-1.226 9.219-1.844 6.555-1.535 17.617-4.3 21.715-8.5 2.867-3.074.207-6.761-.715-7.683-.82-.922-3.484-3.074-3.484-2.664" style="stroke:none;fill-rule:nonzero;fill:#a81a2e;fill-opacity:1"/></g><path d="M116.156 43.43c-.304-.41-.511 3.996-13.316 4.097-7.375 0-13.418-.41-14.442-.308-.203.105-.41.207.102.308 1.023.41 5.633 1.23 7.172 1.535 3.586.72 14.441 3.075 19.05 2.254 4.508-.816 3.278-4.097 3.075-4.609-.516-1.227-1.332-2.867-1.64-3.277" style="stroke:none;fill-rule:nonzero;fill:#a81a2e;fill-opacity:1"/><path d="M40.664 41.793v-8.297c0-2.355-.41-4.61-1.637-6.453-.718-.82-1.539-1.64-2.664-2.152-1.129-.512-2.562-.82-4.304-.82-2.766 0-5.528.82-7.375 1.949l-.204.203 1.125 3.175.207-.207c1.536-1.023 3.586-1.636 5.633-1.636h.102c1.129 0 1.95.203 2.562.511.922.512 1.434 1.23 1.743 2.047.304.82.41 1.742.41 2.356v.207c-4.203 0-7.48.719-9.73 2.152-1.231.715-2.052 1.637-2.665 2.766q-.924 1.533-.922 3.687c0 1.637.614 3.278 1.739 4.61 1.23 1.226 2.972 2.047 5.328 2.047 2.968 0 5.328-1.434 6.656-3.075l.309 2.563h4.097v-.309c-.308-1.535-.41-3.379-.41-5.324m-4.508-.922c-.304.922-.922 1.738-1.738 2.457-.922.613-2.05 1.129-3.484 1.129q-1.385 0-2.457-.926c-.618-.613-1.024-1.433-1.024-2.761a4.03 4.03 0 0 1 .715-2.36c.719-.922 1.844-1.535 3.176-1.945 1.433-.309 3.074-.512 4.61-.512h.41v3.688c0 .308-.102.714-.208 1.23M54.492 37.285c-.613 1.742-1.125 3.485-1.637 5.121-.41-1.636-1.023-3.379-1.64-5.12l-4.403-12.704h-4.816l8.606 22.844H54.8l8.808-22.844H58.9zM85.223 28.988c-.715-1.843-1.946-3.175-3.278-3.894-1.332-.715-2.765-1.024-3.894-1.024-1.84 0-3.48.512-4.711 1.332-1.125.72-1.945 1.54-2.457 2.356l-.207-3.176h-4.094v.207c.203 1.844.203 3.688.203 6.043v16.594h4.508V33.699c0-.613.102-1.332.305-1.742.308-1.125 1.027-2.148 1.843-2.867.922-.715 2.051-1.23 3.278-1.23.926 0 1.64.206 2.254.515.922.512 1.539 1.332 1.949 2.355.41 1.024.613 2.25.613 3.586v13.11h4.508v-13.52c0-1.949-.309-3.586-.82-4.918M20.59 43.941c-.309-1.535-.82-3.379-1.332-5.632-.41-1.743-.922-3.176-1.742-4.301-.614-1.028-1.536-1.742-2.559-2.254 1.434-.613 2.867-1.535 3.89-2.867 1.024-1.434 1.743-3.176 1.743-5.328 0-2.664-.922-4.914-2.563-6.454-1.023-.82-2.254-1.535-3.789-1.945-1.535-.512-3.383-.719-5.531-.719-2.867 0-5.84.309-7.988.72H.512v32.265h4.61v-13.93h3.585c.922 0 1.742.102 2.355.41 1.024.305 1.844.922 2.458 1.84.617.922 1.023 2.152 1.433 3.793.41 1.945.82 3.688 1.129 5.02.203.613.309 1.226.512 1.636.101.512.308.82.41 1.13l.101.1h4.813l-.203-.41c-.309-.511-.719-1.636-1.125-3.074M5.12 18.54c.309-.102.82-.203 1.332-.203.715-.102 1.535-.102 2.457-.102 2.153 0 3.895.41 5.121 1.332.617.512 1.13 1.125 1.438 1.84.304.617.511 1.54.511 2.563 0 1.742-.617 3.176-1.843 4.199-1.13 1.023-2.867 1.64-5.02 1.64H5.121z" style="stroke:none;fill-rule:nonzero;fill:#100f0d;fill-opacity:1"/></svg>