<?xml version="1.0" encoding="UTF-8"?>
<svg xmlns="http://www.w3.org/2000/svg" xmlns:xlink="http://www.w3.org/1999/xlink" width="121.18pt" height="59pt" viewBox="0 0 121.18 59" version="1.1">
<defs>
<clipPath id="clip1">
  <path d="M 48.246094 51.417969 L 53.777344 51.417969 L 53.777344 59 L 48.246094 59 Z M 48.246094 51.417969 "/>
</clipPath>
<clipPath id="clip2">
  <path d="M 88.089844 0 L 116 0 L 116 43.738281 L 88.089844 43.738281 Z M 88.089844 0 "/>
</clipPath>
<clipPath id="clip3">
  <path d="M 88 25 L 121.175781 25 L 121.175781 46 L 88 46 Z M 88 25 "/>
</clipPath>
</defs>
<g id="surface1">
<path style=" stroke:none;fill-rule:nonzero;fill:rgb(65.707397%,10.203552%,17.852783%);fill-opacity:1;" d="M 2.457031 51.625 L 3.6875 51.625 L 6.25 58.898438 L 4.917969 58.898438 L 4.40625 56.949219 L 1.742188 56.949219 L 1.125 58.898438 L 0 58.898438 L 2.457031 51.625 M 2.050781 55.925781 L 4.097656 55.925781 L 3.074219 52.855469 L 2.050781 55.925781 "/>
<path style=" stroke:none;fill-rule:nonzero;fill:rgb(65.707397%,10.203552%,17.852783%);fill-opacity:1;" d="M 16.902344 51.625 L 18.027344 51.625 L 18.027344 57.769531 L 21.40625 57.769531 L 21.40625 58.898438 L 16.902344 58.898438 L 16.902344 51.625 "/>
<path style=" stroke:none;fill-rule:nonzero;fill:rgb(65.707397%,10.203552%,17.852783%);fill-opacity:1;" d="M 34.316406 51.625 L 35.441406 51.625 L 38.003906 58.898438 L 36.773438 58.898438 L 36.15625 56.949219 L 33.597656 56.949219 L 32.878906 58.898438 L 31.753906 58.898438 L 34.316406 51.625 M 33.90625 55.925781 L 35.851562 55.925781 L 34.828125 52.855469 L 33.90625 55.925781 "/>
<g clip-path="url(#clip1)" clip-rule="nonzero">
<path style=" stroke:none;fill-rule:nonzero;fill:rgb(65.707397%,10.203552%,17.852783%);fill-opacity:1;" d="M 49.371094 56.4375 C 49.371094 56.746094 49.371094 56.949219 49.472656 57.15625 C 49.578125 57.363281 49.679688 57.464844 49.78125 57.667969 C 49.984375 57.769531 50.191406 57.875 50.398438 57.875 C 50.601562 57.976562 50.804688 57.976562 51.011719 57.976562 C 51.214844 57.976562 51.421875 57.976562 51.625 57.875 C 51.832031 57.769531 51.933594 57.769531 52.035156 57.667969 C 52.136719 57.566406 52.238281 57.464844 52.34375 57.257812 C 52.34375 57.15625 52.445312 57.054688 52.445312 56.847656 C 52.445312 56.644531 52.34375 56.4375 52.238281 56.234375 C 52.136719 56.132812 52.035156 56.03125 51.832031 56.03125 C 51.625 55.925781 51.320312 55.824219 51.011719 55.722656 C 50.703125 55.621094 50.292969 55.519531 49.882812 55.414062 C 49.578125 55.3125 49.371094 55.210938 49.167969 55.105469 C 48.960938 54.902344 48.859375 54.800781 48.757812 54.59375 C 48.65625 54.492188 48.550781 54.289062 48.550781 54.082031 C 48.449219 53.980469 48.449219 53.777344 48.449219 53.570312 C 48.449219 53.160156 48.550781 52.855469 48.65625 52.648438 C 48.757812 52.34375 48.960938 52.136719 49.167969 51.933594 C 49.371094 51.726562 49.679688 51.625 49.984375 51.523438 C 50.292969 51.523438 50.5 51.417969 50.804688 51.417969 C 51.214844 51.417969 51.523438 51.523438 51.832031 51.625 C 52.136719 51.625 52.34375 51.832031 52.648438 52.035156 C 52.855469 52.238281 53.058594 52.445312 53.160156 52.75 C 53.265625 53.058594 53.367188 53.367188 53.367188 53.777344 L 52.238281 53.777344 C 52.136719 53.261719 52.035156 52.957031 51.726562 52.75 C 51.523438 52.546875 51.214844 52.445312 50.804688 52.445312 C 50.703125 52.445312 50.5 52.445312 50.398438 52.546875 C 50.191406 52.546875 50.089844 52.546875 49.984375 52.648438 C 49.882812 52.75 49.78125 52.855469 49.679688 52.957031 C 49.679688 53.058594 49.578125 53.261719 49.578125 53.367188 C 49.578125 53.675781 49.679688 53.878906 49.78125 53.980469 C 49.984375 54.1875 50.089844 54.289062 50.398438 54.390625 C 50.398438 54.390625 50.5 54.390625 50.703125 54.390625 C 50.804688 54.492188 51.011719 54.492188 51.214844 54.59375 C 51.421875 54.699219 51.625 54.699219 51.832031 54.800781 C 52.035156 54.800781 52.136719 54.902344 52.238281 54.902344 C 52.445312 55.003906 52.648438 55.105469 52.855469 55.210938 C 52.957031 55.3125 53.058594 55.519531 53.265625 55.621094 C 53.367188 55.824219 53.367188 56.03125 53.46875 56.132812 C 53.46875 56.335938 53.570312 56.542969 53.570312 56.746094 C 53.570312 57.15625 53.46875 57.464844 53.265625 57.769531 C 53.160156 58.078125 52.957031 58.28125 52.753906 58.488281 C 52.445312 58.691406 52.238281 58.796875 51.832031 58.898438 C 51.625 59 51.214844 59 50.90625 59 C 50.601562 59 50.191406 59 49.882812 58.898438 C 49.578125 58.796875 49.269531 58.589844 48.960938 58.386719 C 48.757812 58.179688 48.550781 57.976562 48.449219 57.566406 C 48.246094 57.257812 48.246094 56.847656 48.246094 56.4375 L 49.371094 56.4375 "/>
</g>
<path style=" stroke:none;fill-rule:nonzero;fill:rgb(65.707397%,10.203552%,17.852783%);fill-opacity:1;" d="M 64.53125 51.625 L 65.761719 51.625 L 65.761719 54.902344 L 68.628906 51.625 L 70.0625 51.625 L 67.503906 54.492188 L 70.269531 58.898438 L 68.835938 58.898438 L 66.683594 55.414062 L 65.761719 56.4375 L 65.761719 58.898438 L 64.53125 58.898438 L 64.53125 51.625 "/>
<path style=" stroke:none;fill-rule:nonzero;fill:rgb(65.707397%,10.203552%,17.852783%);fill-opacity:1;" d="M 83.070312 51.625 L 84.300781 51.625 L 86.859375 58.898438 L 85.632812 58.898438 L 85.019531 56.949219 L 82.355469 56.949219 L 81.738281 58.898438 L 80.613281 58.898438 L 83.070312 51.625 M 82.660156 55.925781 L 84.710938 55.925781 L 83.6875 52.855469 L 82.660156 55.925781 "/>
<g clip-path="url(#clip2)" clip-rule="nonzero">
<path style=" stroke:none;fill-rule:nonzero;fill:rgb(65.707397%,10.203552%,17.852783%);fill-opacity:1;" d="M 103.148438 -0.101562 C 105.402344 1.84375 109.5 11.882812 99.871094 27.757812 C 96.386719 33.496094 91.265625 40.664062 88.296875 43.226562 C 88.089844 43.429688 88.195312 43.53125 88.808594 43.121094 C 91.777344 41.382812 108.0625 27.964844 111.753906 22.433594 C 113.800781 19.15625 119.433594 10.34375 112.570312 4.609375 C 107.757812 0.613281 103.148438 -0.101562 103.148438 -0.101562 "/>
</g>
<g clip-path="url(#clip3)" clip-rule="nonzero">
<path style=" stroke:none;fill-rule:nonzero;fill:rgb(65.707397%,10.203552%,17.852783%);fill-opacity:1;" d="M 115.644531 25.09375 C 115.542969 28.886719 109.601562 36.15625 98.84375 41.074219 C 93.621094 43.429688 89.421875 45.171875 88.601562 45.480469 C 87.886719 45.785156 88.195312 45.890625 88.910156 45.785156 C 90.855469 45.582031 95.976562 44.558594 98.128906 43.941406 C 104.683594 42.40625 115.746094 39.640625 119.84375 35.441406 C 122.710938 32.367188 120.050781 28.679688 119.128906 27.757812 C 118.308594 26.835938 115.644531 24.683594 115.644531 25.09375 "/>
</g>
<path style=" stroke:none;fill-rule:nonzero;fill:rgb(65.707397%,10.203552%,17.852783%);fill-opacity:1;" d="M 116.15625 43.429688 C 115.851562 43.019531 115.644531 47.425781 102.839844 47.527344 C 95.464844 47.527344 89.421875 47.117188 88.398438 47.21875 C 88.195312 47.324219 87.988281 47.425781 88.5 47.527344 C 89.523438 47.9375 94.132812 48.757812 95.671875 49.0625 C 99.257812 49.78125 110.113281 52.136719 114.722656 51.316406 C 119.230469 50.5 118 47.21875 117.796875 46.707031 C 117.28125 45.480469 116.464844 43.839844 116.15625 43.429688 "/>
<path style=" stroke:none;fill-rule:nonzero;fill:rgb(6.459045%,5.915833%,5.220032%);fill-opacity:1;" d="M 40.664062 41.792969 L 40.664062 33.496094 C 40.664062 31.140625 40.253906 28.886719 39.027344 27.042969 C 38.308594 26.222656 37.488281 25.402344 36.363281 24.890625 C 35.234375 24.378906 33.800781 24.070312 32.058594 24.070312 C 29.292969 24.070312 26.53125 24.890625 24.683594 26.019531 L 24.480469 26.222656 L 25.605469 29.398438 L 25.8125 29.191406 C 27.347656 28.167969 29.398438 27.554688 31.445312 27.554688 C 31.546875 27.554688 31.546875 27.554688 31.546875 27.554688 C 32.675781 27.554688 33.496094 27.757812 34.109375 28.066406 C 35.03125 28.578125 35.542969 29.296875 35.851562 30.113281 C 36.15625 30.933594 36.261719 31.855469 36.261719 32.46875 L 36.261719 32.675781 C 32.058594 32.675781 28.78125 33.394531 26.53125 34.828125 C 25.300781 35.542969 24.480469 36.464844 23.867188 37.59375 C 23.25 38.617188 22.945312 39.84375 22.945312 41.28125 C 22.945312 42.917969 23.558594 44.558594 24.683594 45.890625 C 25.914062 47.117188 27.65625 47.9375 30.011719 47.9375 C 32.980469 47.9375 35.339844 46.503906 36.667969 44.863281 L 36.976562 47.425781 L 41.074219 47.425781 L 41.074219 47.117188 C 40.765625 45.582031 40.664062 43.738281 40.664062 41.792969 M 36.15625 40.871094 C 35.851562 41.792969 35.234375 42.609375 34.417969 43.328125 C 33.496094 43.941406 32.367188 44.457031 30.933594 44.457031 C 30.011719 44.457031 29.191406 44.148438 28.476562 43.53125 C 27.859375 42.917969 27.453125 42.097656 27.453125 40.769531 C 27.453125 39.742188 27.757812 39.027344 28.167969 38.410156 C 28.886719 37.488281 30.011719 36.875 31.34375 36.464844 C 32.777344 36.15625 34.417969 35.953125 35.953125 35.953125 C 36.054688 35.953125 36.261719 35.953125 36.363281 35.953125 L 36.363281 39.640625 C 36.363281 39.949219 36.261719 40.355469 36.15625 40.871094 "/>
<path style=" stroke:none;fill-rule:nonzero;fill:rgb(6.459045%,5.915833%,5.220032%);fill-opacity:1;" d="M 54.492188 37.285156 C 53.878906 39.027344 53.367188 40.769531 52.855469 42.40625 C 52.445312 40.769531 51.832031 39.027344 51.214844 37.285156 L 46.8125 24.582031 L 41.996094 24.582031 L 50.601562 47.425781 L 54.800781 47.425781 L 63.609375 24.582031 L 58.898438 24.582031 L 54.492188 37.285156 "/>
<path style=" stroke:none;fill-rule:nonzero;fill:rgb(6.459045%,5.915833%,5.220032%);fill-opacity:1;" d="M 85.222656 28.988281 C 84.507812 27.144531 83.277344 25.8125 81.945312 25.09375 C 80.613281 24.378906 79.179688 24.070312 78.050781 24.070312 C 76.210938 24.070312 74.570312 24.582031 73.339844 25.402344 C 72.214844 26.121094 71.394531 26.941406 70.882812 27.757812 L 70.675781 24.582031 L 66.582031 24.582031 L 66.582031 24.789062 C 66.785156 26.632812 66.785156 28.476562 66.785156 30.832031 L 66.785156 47.425781 L 71.292969 47.425781 L 71.292969 33.699219 C 71.292969 33.085938 71.394531 32.367188 71.597656 31.957031 C 71.90625 30.832031 72.625 29.808594 73.441406 29.089844 C 74.363281 28.375 75.492188 27.859375 76.71875 27.859375 C 77.644531 27.859375 78.359375 28.066406 78.972656 28.375 C 79.894531 28.886719 80.511719 29.707031 80.921875 30.730469 C 81.332031 31.753906 81.535156 32.980469 81.535156 34.316406 L 81.535156 47.425781 L 86.042969 47.425781 L 86.042969 33.90625 C 86.042969 31.957031 85.734375 30.320312 85.222656 28.988281 "/>
<path style=" stroke:none;fill-rule:nonzero;fill:rgb(6.459045%,5.915833%,5.220032%);fill-opacity:1;" d="M 20.589844 43.941406 C 20.28125 42.40625 19.769531 40.5625 19.257812 38.308594 C 18.847656 36.566406 18.335938 35.132812 17.515625 34.007812 C 16.902344 32.980469 15.980469 32.265625 14.957031 31.753906 C 16.390625 31.140625 17.824219 30.21875 18.847656 28.886719 C 19.871094 27.453125 20.589844 25.710938 20.589844 23.558594 C 20.589844 20.894531 19.667969 18.644531 18.027344 17.105469 C 17.003906 16.285156 15.773438 15.570312 14.238281 15.160156 C 12.703125 14.648438 10.855469 14.441406 8.707031 14.441406 C 5.839844 14.441406 2.867188 14.75 0.71875 15.160156 L 0.511719 15.160156 L 0.511719 47.425781 L 5.121094 47.425781 L 5.121094 33.496094 L 8.707031 33.496094 C 9.628906 33.496094 10.449219 33.597656 11.0625 33.90625 C 12.085938 34.210938 12.90625 34.828125 13.519531 35.746094 C 14.136719 36.667969 14.542969 37.898438 14.953125 39.539062 C 15.363281 41.484375 15.773438 43.226562 16.082031 44.558594 C 16.285156 45.171875 16.390625 45.785156 16.59375 46.195312 C 16.695312 46.707031 16.902344 47.015625 17.003906 47.324219 L 17.105469 47.425781 L 21.917969 47.425781 L 21.714844 47.015625 C 21.40625 46.503906 20.996094 45.378906 20.589844 43.941406 M 5.121094 18.539062 C 5.429688 18.4375 5.941406 18.335938 6.453125 18.335938 C 7.167969 18.234375 7.988281 18.234375 8.910156 18.234375 C 11.0625 18.234375 12.804688 18.644531 14.03125 19.566406 C 14.648438 20.078125 15.160156 20.691406 15.46875 21.40625 C 15.773438 22.023438 15.980469 22.945312 15.980469 23.96875 C 15.980469 25.710938 15.363281 27.144531 14.136719 28.167969 C 13.007812 29.191406 11.269531 29.808594 9.117188 29.808594 L 5.121094 29.808594 L 5.121094 18.539062 "/>
</g>
</svg>
