<?xml version="1.0" encoding="UTF-8"?>
<svg xmlns="http://www.w3.org/2000/svg" xmlns:xlink="http://www.w3.org/1999/xlink" width="142.84pt" height="59pt" viewBox="0 0 142.84 59" version="1.1">
<defs>
<clipPath id="clip1">
  <path d="M 1 7 L 50 7 L 50 57 L 1 57 Z M 1 7 "/>
</clipPath>
<clipPath id="clip2">
  <path d="M 49.164062 31.992188 C 49.164062 18.691406 38.382812 7.910156 25.082031 7.910156 C 11.78125 7.910156 1 18.691406 1 31.992188 C 1 45.292969 11.78125 56.074219 25.082031 56.074219 C 38.382812 56.074219 49.164062 45.292969 49.164062 31.992188 Z M 49.164062 31.992188 "/>
</clipPath>
<clipPath id="clip3">
  <path d="M 49.164062 31.992188 C 49.164062 18.691406 38.382812 7.910156 25.082031 7.910156 C 11.78125 7.910156 1 18.691406 1 31.992188 C 1 45.292969 11.78125 56.074219 25.082031 56.074219 C 38.382812 56.074219 49.164062 45.292969 49.164062 31.992188 "/>
</clipPath>
<radialGradient id="radial0" gradientUnits="userSpaceOnUse" cx="0" cy="0" fx="0" fy="0" r="24.0818" gradientTransform="matrix(1,0,0,1,25.0815,31.9922)">
<stop offset="0" style="stop-color:rgb(100%,100%,100%);stop-opacity:1;"/>
<stop offset="0.0625" style="stop-color:rgb(100%,100%,100%);stop-opacity:1;"/>
<stop offset="0.0898438" style="stop-color:rgb(99.867249%,99.957275%,99.990845%);stop-opacity:1;"/>
<stop offset="0.09375" style="stop-color:rgb(99.606323%,99.873352%,99.97406%);stop-opacity:1;"/>
<stop offset="0.148438" style="stop-color:rgb(99.331665%,99.784851%,99.957275%);stop-opacity:1;"/>
<stop offset="0.199219" style="stop-color:rgb(99.005127%,99.679565%,99.937439%);stop-opacity:1;"/>
<stop offset="0.246094" style="stop-color:rgb(98.699951%,99.580383%,99.917603%);stop-opacity:1;"/>
<stop offset="0.257812" style="stop-color:rgb(98.420715%,99.491882%,99.900818%);stop-opacity:1;"/>
<stop offset="0.277344" style="stop-color:rgb(98.130798%,99.398804%,99.882507%);stop-opacity:1;"/>
<stop offset="0.285156" style="stop-color:rgb(97.865295%,99.313354%,99.865723%);stop-opacity:1;"/>
<stop offset="0.292969" style="stop-color:rgb(97.599792%,99.227905%,99.848938%);stop-opacity:1;"/>
<stop offset="0.300781" style="stop-color:rgb(97.33429%,99.142456%,99.832153%);stop-opacity:1;"/>
<stop offset="0.308594" style="stop-color:rgb(97.070312%,99.057007%,99.815369%);stop-opacity:1;"/>
<stop offset="0.316406" style="stop-color:rgb(96.841431%,98.983765%,99.801636%);stop-opacity:1;"/>
<stop offset="0.320312" style="stop-color:rgb(96.612549%,98.910522%,99.786377%);stop-opacity:1;"/>
<stop offset="0.324219" style="stop-color:rgb(96.347046%,98.825073%,99.769592%);stop-opacity:1;"/>
<stop offset="0.328125" style="stop-color:rgb(96.047974%,98.728943%,99.751282%);stop-opacity:1;"/>
<stop offset="0.335938" style="stop-color:rgb(95.748901%,98.632812%,99.732971%);stop-opacity:1;"/>
<stop offset="0.34375" style="stop-color:rgb(95.483398%,98.547363%,99.716187%);stop-opacity:1;"/>
<stop offset="0.351562" style="stop-color:rgb(95.217896%,98.461914%,99.699402%);stop-opacity:1;"/>
<stop offset="0.359375" style="stop-color:rgb(94.91272%,98.362732%,99.679565%);stop-opacity:1;"/>
<stop offset="0.367188" style="stop-color:rgb(94.606018%,98.265076%,99.661255%);stop-opacity:1;"/>
<stop offset="0.371094" style="stop-color:rgb(94.340515%,98.179626%,99.64447%);stop-opacity:1;"/>
<stop offset="0.375" style="stop-color:rgb(94.05365%,98.086548%,99.62616%);stop-opacity:1;"/>
<stop offset="0.382812" style="stop-color:rgb(93.765259%,97.993469%,99.607849%);stop-opacity:1;"/>
<stop offset="0.390625" style="stop-color:rgb(93.499756%,97.90802%,99.591064%);stop-opacity:1;"/>
<stop offset="0.398438" style="stop-color:rgb(93.234253%,97.824097%,99.57428%);stop-opacity:1;"/>
<stop offset="0.40625" style="stop-color:rgb(92.91687%,97.721863%,99.554443%);stop-opacity:1;"/>
<stop offset="0.414062" style="stop-color:rgb(92.599487%,97.619629%,99.534607%);stop-opacity:1;"/>
<stop offset="0.417969" style="stop-color:rgb(92.333984%,97.53418%,99.517822%);stop-opacity:1;"/>
<stop offset="0.421875" style="stop-color:rgb(92.0578%,97.445679%,99.501038%);stop-opacity:1;"/>
<stop offset="0.429688" style="stop-color:rgb(91.781616%,97.355652%,99.484253%);stop-opacity:1;"/>
<stop offset="0.4375" style="stop-color:rgb(91.516113%,97.270203%,99.467468%);stop-opacity:1;"/>
<stop offset="0.445312" style="stop-color:rgb(91.256714%,97.187805%,99.450684%);stop-opacity:1;"/>
<stop offset="0.449219" style="stop-color:rgb(90.995789%,97.103882%,99.435425%);stop-opacity:1;"/>
<stop offset="0.453125" style="stop-color:rgb(90.730286%,97.018433%,99.41864%);stop-opacity:1;"/>
<stop offset="0.457031" style="stop-color:rgb(90.463257%,96.932983%,99.401855%);stop-opacity:1;"/>
<stop offset="0.464844" style="stop-color:rgb(90.196228%,96.846008%,99.385071%);stop-opacity:1;"/>
<stop offset="0.472656" style="stop-color:rgb(89.927673%,96.760559%,99.368286%);stop-opacity:1;"/>
<stop offset="0.480469" style="stop-color:rgb(89.657593%,96.673584%,99.351501%);stop-opacity:1;"/>
<stop offset="0.484375" style="stop-color:rgb(89.393616%,96.588135%,99.334717%);stop-opacity:1;"/>
<stop offset="0.488281" style="stop-color:rgb(89.068604%,96.484375%,99.313354%);stop-opacity:1;"/>
<stop offset="0.496094" style="stop-color:rgb(88.742065%,96.379089%,99.293518%);stop-opacity:1;"/>
<stop offset="0.503906" style="stop-color:rgb(88.543701%,96.315002%,99.281311%);stop-opacity:1;"/>
<stop offset="0.507812" style="stop-color:rgb(88.41095%,96.272278%,99.272156%);stop-opacity:1;"/>
<stop offset="0.511719" style="stop-color:rgb(88.265991%,96.224976%,99.263%);stop-opacity:1;"/>
<stop offset="0.515625" style="stop-color:rgb(88.05542%,96.157837%,99.250793%);stop-opacity:1;"/>
<stop offset="0.519531" style="stop-color:rgb(87.789917%,96.072388%,99.234009%);stop-opacity:1;"/>
<stop offset="0.523438" style="stop-color:rgb(87.539673%,95.991516%,99.217224%);stop-opacity:1;"/>
<stop offset="0.527344" style="stop-color:rgb(87.356567%,95.933533%,99.206543%);stop-opacity:1;"/>
<stop offset="0.53125" style="stop-color:rgb(87.223816%,95.890808%,99.198914%);stop-opacity:1;"/>
<stop offset="0.535156" style="stop-color:rgb(87.072754%,95.84198%,99.188232%);stop-opacity:1;"/>
<stop offset="0.539062" style="stop-color:rgb(86.856079%,95.77179%,99.1745%);stop-opacity:1;"/>
<stop offset="0.542969" style="stop-color:rgb(86.590576%,95.68634%,99.157715%);stop-opacity:1;"/>
<stop offset="0.546875" style="stop-color:rgb(86.346436%,95.608521%,99.142456%);stop-opacity:1;"/>
<stop offset="0.550781" style="stop-color:rgb(86.167908%,95.550537%,99.131775%);stop-opacity:1;"/>
<stop offset="0.554688" style="stop-color:rgb(86.035156%,95.507812%,99.124146%);stop-opacity:1;"/>
<stop offset="0.558594" style="stop-color:rgb(85.879517%,95.457458%,99.113464%);stop-opacity:1;"/>
<stop offset="0.5625" style="stop-color:rgb(85.656738%,95.385742%,99.099731%);stop-opacity:1;"/>
<stop offset="0.566406" style="stop-color:rgb(85.391235%,95.301819%,99.082947%);stop-opacity:1;"/>
<stop offset="0.570312" style="stop-color:rgb(85.125732%,95.21637%,99.066162%);stop-opacity:1;"/>
<stop offset="0.574219" style="stop-color:rgb(84.860229%,95.13092%,99.049377%);stop-opacity:1;"/>
<stop offset="0.578125" style="stop-color:rgb(84.594727%,95.045471%,99.032593%);stop-opacity:1;"/>
<stop offset="0.582031" style="stop-color:rgb(84.359741%,94.969177%,99.01886%);stop-opacity:1;"/>
<stop offset="0.585938" style="stop-color:rgb(84.190369%,94.914246%,99.008179%);stop-opacity:1;"/>
<stop offset="0.589844" style="stop-color:rgb(84.057617%,94.871521%,98.999023%);stop-opacity:1;"/>
<stop offset="0.59375" style="stop-color:rgb(83.924866%,94.828796%,98.991394%);stop-opacity:1;"/>
<stop offset="0.597656" style="stop-color:rgb(83.792114%,94.786072%,98.983765%);stop-opacity:1;"/>
<stop offset="0.601562" style="stop-color:rgb(83.659363%,94.743347%,98.974609%);stop-opacity:1;"/>
<stop offset="0.605469" style="stop-color:rgb(83.526611%,94.702148%,98.96698%);stop-opacity:1;"/>
<stop offset="0.609375" style="stop-color:rgb(83.39386%,94.659424%,98.957825%);stop-opacity:1;"/>
<stop offset="0.613281" style="stop-color:rgb(83.261108%,94.616699%,98.950195%);stop-opacity:1;"/>
<stop offset="0.617188" style="stop-color:rgb(83.091736%,94.561768%,98.939514%);stop-opacity:1;"/>
<stop offset="0.621094" style="stop-color:rgb(82.853699%,94.485474%,98.924255%);stop-opacity:1;"/>
<stop offset="0.625" style="stop-color:rgb(82.588196%,94.400024%,98.907471%);stop-opacity:1;"/>
<stop offset="0.628906" style="stop-color:rgb(82.298279%,94.306946%,98.88916%);stop-opacity:1;"/>
<stop offset="0.636719" style="stop-color:rgb(82.006836%,94.212341%,98.87085%);stop-opacity:1;"/>
<stop offset="0.644531" style="stop-color:rgb(81.741333%,94.126892%,98.854065%);stop-opacity:1;"/>
<stop offset="0.652344" style="stop-color:rgb(81.47583%,94.041443%,98.83728%);stop-opacity:1;"/>
<stop offset="0.660156" style="stop-color:rgb(81.211853%,93.95752%,98.820496%);stop-opacity:1;"/>
<stop offset="0.667969" style="stop-color:rgb(80.94635%,93.87207%,98.805237%);stop-opacity:1;"/>
<stop offset="0.675781" style="stop-color:rgb(80.69458%,93.791199%,98.788452%);stop-opacity:1;"/>
<stop offset="0.679688" style="stop-color:rgb(80.44281%,93.710327%,98.773193%);stop-opacity:1;"/>
<stop offset="0.683594" style="stop-color:rgb(80.178833%,93.624878%,98.756409%);stop-opacity:1;"/>
<stop offset="0.6875" style="stop-color:rgb(79.902649%,93.536377%,98.739624%);stop-opacity:1;"/>
<stop offset="0.695312" style="stop-color:rgb(79.624939%,93.44635%,98.721313%);stop-opacity:1;"/>
<stop offset="0.703125" style="stop-color:rgb(79.359436%,93.360901%,98.704529%);stop-opacity:1;"/>
<stop offset="0.710938" style="stop-color:rgb(79.100037%,93.278503%,98.68927%);stop-opacity:1;"/>
<stop offset="0.714844" style="stop-color:rgb(78.840637%,93.19458%,98.672485%);stop-opacity:1;"/>
<stop offset="0.71875" style="stop-color:rgb(78.575134%,93.109131%,98.655701%);stop-opacity:1;"/>
<stop offset="0.722656" style="stop-color:rgb(78.308105%,93.023682%,98.638916%);stop-opacity:1;"/>
<stop offset="0.730469" style="stop-color:rgb(78.039551%,92.936707%,98.622131%);stop-opacity:1;"/>
<stop offset="0.738281" style="stop-color:rgb(77.774048%,92.851257%,98.605347%);stop-opacity:1;"/>
<stop offset="0.746094" style="stop-color:rgb(77.508545%,92.765808%,98.588562%);stop-opacity:1;"/>
<stop offset="0.753906" style="stop-color:rgb(77.310181%,92.701721%,98.576355%);stop-opacity:1;"/>
<stop offset="0.757812" style="stop-color:rgb(77.177429%,92.658997%,98.568726%);stop-opacity:1;"/>
<stop offset="0.761719" style="stop-color:rgb(77.044678%,92.616272%,98.55957%);stop-opacity:1;"/>
<stop offset="0.765625" style="stop-color:rgb(76.913452%,92.575073%,98.551941%);stop-opacity:1;"/>
<stop offset="0.769531" style="stop-color:rgb(76.780701%,92.532349%,98.542786%);stop-opacity:1;"/>
<stop offset="0.773438" style="stop-color:rgb(76.647949%,92.489624%,98.535156%);stop-opacity:1;"/>
<stop offset="0.777344" style="stop-color:rgb(76.502991%,92.442322%,98.526001%);stop-opacity:1;"/>
<stop offset="0.78125" style="stop-color:rgb(76.292419%,92.375183%,98.512268%);stop-opacity:1;"/>
<stop offset="0.785156" style="stop-color:rgb(76.026917%,92.289734%,98.495483%);stop-opacity:1;"/>
<stop offset="0.789062" style="stop-color:rgb(75.776672%,92.208862%,98.480225%);stop-opacity:1;"/>
<stop offset="0.792969" style="stop-color:rgb(75.592041%,92.149353%,98.469543%);stop-opacity:1;"/>
<stop offset="0.796875" style="stop-color:rgb(75.45929%,92.106628%,98.460388%);stop-opacity:1;"/>
<stop offset="0.800781" style="stop-color:rgb(75.326538%,92.063904%,98.452759%);stop-opacity:1;"/>
<stop offset="0.804688" style="stop-color:rgb(75.193787%,92.021179%,98.443604%);stop-opacity:1;"/>
<stop offset="0.808594" style="stop-color:rgb(75.061035%,91.978455%,98.435974%);stop-opacity:1;"/>
<stop offset="0.8125" style="stop-color:rgb(74.928284%,91.93573%,98.426819%);stop-opacity:1;"/>
<stop offset="0.816406" style="stop-color:rgb(74.729919%,91.871643%,98.414612%);stop-opacity:1;"/>
<stop offset="0.824219" style="stop-color:rgb(74.507141%,91.801453%,98.400879%);stop-opacity:1;"/>
<stop offset="0.828125" style="stop-color:rgb(74.284363%,91.729736%,98.387146%);stop-opacity:1;"/>
<stop offset="0.832031" style="stop-color:rgb(74.020386%,91.644287%,98.370361%);stop-opacity:1;"/>
<stop offset="0.835938" style="stop-color:rgb(73.71521%,91.546631%,98.350525%);stop-opacity:1;"/>
<stop offset="0.84375" style="stop-color:rgb(73.408508%,91.447449%,98.332214%);stop-opacity:1;"/>
<stop offset="0.851562" style="stop-color:rgb(73.143005%,91.362%,98.31543%);stop-opacity:1;"/>
<stop offset="0.859375" style="stop-color:rgb(72.879028%,91.27655%,98.298645%);stop-opacity:1;"/>
<stop offset="0.867188" style="stop-color:rgb(72.57843%,91.18042%,98.280334%);stop-opacity:1;"/>
<stop offset="0.875" style="stop-color:rgb(72.277832%,91.08429%,98.260498%);stop-opacity:1;"/>
<stop offset="0.878906" style="stop-color:rgb(72.012329%,90.99884%,98.243713%);stop-opacity:1;"/>
<stop offset="0.882812" style="stop-color:rgb(71.784973%,90.925598%,98.22998%);stop-opacity:1;"/>
<stop offset="0.886719" style="stop-color:rgb(71.624756%,90.873718%,98.220825%);stop-opacity:1;"/>
<stop offset="0.890625" style="stop-color:rgb(71.492004%,90.830994%,98.21167%);stop-opacity:1;"/>
<stop offset="0.894531" style="stop-color:rgb(71.359253%,90.788269%,98.204041%);stop-opacity:1;"/>
<stop offset="0.898438" style="stop-color:rgb(71.226501%,90.745544%,98.194885%);stop-opacity:1;"/>
<stop offset="0.902344" style="stop-color:rgb(71.09375%,90.70282%,98.187256%);stop-opacity:1;"/>
<stop offset="0.90625" style="stop-color:rgb(70.960999%,90.660095%,98.178101%);stop-opacity:1;"/>
<stop offset="0.910156" style="stop-color:rgb(70.762634%,90.596008%,98.165894%);stop-opacity:1;"/>
<stop offset="0.917969" style="stop-color:rgb(70.516968%,90.518188%,98.150635%);stop-opacity:1;"/>
<stop offset="0.921875" style="stop-color:rgb(70.271301%,90.438843%,98.135376%);stop-opacity:1;"/>
<stop offset="0.925781" style="stop-color:rgb(70.005798%,90.353394%,98.118591%);stop-opacity:1;"/>
<stop offset="0.929688" style="stop-color:rgb(69.723511%,90.261841%,98.100281%);stop-opacity:1;"/>
<stop offset="0.9375" style="stop-color:rgb(69.441223%,90.171814%,98.083496%);stop-opacity:1;"/>
<stop offset="0.945312" style="stop-color:rgb(69.242859%,90.107727%,98.071289%);stop-opacity:1;"/>
<stop offset="0.949219" style="stop-color:rgb(69.110107%,90.065002%,98.062134%);stop-opacity:1;"/>
<stop offset="0.953125" style="stop-color:rgb(68.977356%,90.022278%,98.054504%);stop-opacity:1;"/>
<stop offset="0.957031" style="stop-color:rgb(68.777466%,89.958191%,98.042297%);stop-opacity:1;"/>
<stop offset="0.964844" style="stop-color:rgb(68.513489%,89.872742%,98.025513%);stop-opacity:1;"/>
<stop offset="0.972656" style="stop-color:rgb(68.315125%,89.808655%,98.013306%);stop-opacity:1;"/>
<stop offset="0.976562" style="stop-color:rgb(68.182373%,89.76593%,98.00415%);stop-opacity:1;"/>
<stop offset="0.980469" style="stop-color:rgb(67.982483%,89.701843%,97.991943%);stop-opacity:1;"/>
<stop offset="0.988281" style="stop-color:rgb(67.720032%,89.61792%,97.975159%);stop-opacity:1;"/>
<stop offset="0.992188" style="stop-color:rgb(67.457581%,89.533997%,97.958374%);stop-opacity:1;"/>
<stop offset="0.996094" style="stop-color:rgb(67.192078%,89.448547%,97.941589%);stop-opacity:1;"/>
<stop offset="1" style="stop-color:rgb(67.059326%,89.405823%,97.93396%);stop-opacity:1;"/>
</radialGradient>
<clipPath id="clip4">
  <path d="M 131 18 L 142.839844 18 L 142.839844 33 L 131 33 Z M 131 18 "/>
</clipPath>
</defs>
<g id="surface1">
<g clip-path="url(#clip1)" clip-rule="nonzero">
<g clip-path="url(#clip2)" clip-rule="nonzero">
<g clip-path="url(#clip3)" clip-rule="nonzero">
<path style=" stroke:none;fill-rule:nonzero;fill:url(#radial0);" d="M 1 7.910156 L 1 56.074219 L 49.164062 56.074219 L 49.164062 7.910156 Z M 1 7.910156 "/>
</g>
</g>
</g>
<path style="fill:none;stroke-width:20;stroke-linecap:butt;stroke-linejoin:miter;stroke:rgb(17.123413%,18.829346%,53.697205%);stroke-opacity:1;stroke-miterlimit:4;" d="M 491.640625 270.078125 C 491.640625 403.085938 383.828125 510.898438 250.820312 510.898438 C 117.8125 510.898438 10 403.085938 10 270.078125 C 10 137.070312 117.8125 29.257812 250.820312 29.257812 C 383.828125 29.257812 491.640625 137.070312 491.640625 270.078125 Z M 491.640625 270.078125 " transform="matrix(0.1,0,0,-0.1,0,59)"/>
<path style=" stroke:none;fill-rule:nonzero;fill:rgb(12.31842%,40.594482%,19.564819%);fill-opacity:1;" d="M 25.5 0 C 25.5 4.539062 9.894531 9.03125 6.894531 25.320312 C 5.996094 30.179688 6.226562 33.203125 7.347656 36.492188 C 9.859375 43.867188 14.199219 46.960938 13.832031 50.109375 C 13.460938 53.257812 11.515625 56.5 11.515625 56.5 L 12.996094 56.40625 L 11.886719 59 C 11.886719 59 16.945312 56.683594 16.515625 50.015625 C 16.085938 43.347656 5.945312 37.605469 8.457031 24.824219 C 10.972656 12.039062 28 6.667969 25.5 0 "/>
<path style=" stroke:none;fill-rule:nonzero;fill:rgb(14.796448%,28.962708%,62.889099%);fill-opacity:1;" d="M 9.414062 22.457031 C 9.425781 22.175781 5.539062 32.371094 14.613281 43.855469 C 14.613281 43.855469 16.652344 45.523438 17.117188 38.667969 C 18.503906 43.300781 18.875 42.558594 19.988281 42.558594 C 21.097656 42.558594 22.117188 23.417969 45.460938 19.960938 C 25.914062 19.496094 19.710938 35.519531 19.339844 38.390625 C 16.46875 36.078125 17.976562 32.285156 19.710938 30.890625 C 18.78125 29.871094 18.78125 29.871094 18.78125 29.871094 C 18.78125 29.871094 16.746094 31.621094 16.652344 32.648438 C 16.558594 33.675781 15.078125 30.335938 15.078125 30.335938 L 13.597656 31.261719 C 13.597656 31.261719 15.726562 33.761719 15.632812 34.503906 C 15.542969 35.242188 14.613281 40.707031 14.613281 40.707031 C 14.613281 40.707031 8.933594 33.75 9.414062 22.457031 "/>
<path style=" stroke:none;fill-rule:nonzero;fill:rgb(88.653564%,11.486816%,14.503479%);fill-opacity:1;" d="M 24.546875 4.957031 C 24.546875 4.957031 16.570312 10.328125 16.324219 18.097656 C 16.027344 27.460938 23.261719 27.730469 23.066406 36.167969 C 22.878906 44.136719 15.378906 52.933594 15.378906 52.933594 C 15.378906 52.933594 25.75 47.007812 25.75 35.613281 C 25.75 30.519531 18.617188 25.332031 19.082031 17.921875 C 19.527344 10.804688 24.546875 4.957031 24.546875 4.957031 "/>
<path style=" stroke:none;fill-rule:nonzero;fill:rgb(98.439026%,77.557373%,3.630066%);fill-opacity:1;" d="M 31.15625 23.007812 C 31.121094 22.738281 31.101562 22.460938 31.101562 22.183594 C 31.101562 18.652344 33.964844 15.792969 37.492188 15.792969 C 40.140625 15.792969 42.410156 17.402344 43.382812 19.695312 C 36.84375 20.332031 34.34375 21.164062 31.15625 23.007812 "/>
<path style=" stroke:none;fill-rule:nonzero;fill:rgb(14.81781%,29.327393%,63.032532%);fill-opacity:1;" d="M 55.195312 22.933594 C 55.234375 23.132812 55.269531 23.328125 55.300781 23.511719 C 55.335938 23.699219 55.382812 23.878906 55.441406 24.058594 C 55.503906 24.238281 55.574219 24.421875 55.660156 24.617188 C 55.746094 24.808594 55.863281 25.015625 56.007812 25.242188 C 56.101562 25.386719 56.238281 25.578125 56.425781 25.808594 C 56.613281 26.039062 56.851562 26.269531 57.152344 26.496094 C 57.449219 26.71875 57.808594 26.914062 58.226562 27.082031 C 58.644531 27.246094 59.132812 27.328125 59.6875 27.328125 C 60.152344 27.328125 60.546875 27.265625 60.871094 27.140625 C 61.195312 27.015625 61.464844 26.855469 61.675781 26.664062 C 61.886719 26.472656 62.039062 26.261719 62.132812 26.035156 C 62.226562 25.8125 62.273438 25.59375 62.273438 25.382812 C 62.273438 25.023438 62.171875 24.707031 61.972656 24.4375 C 61.777344 24.164062 61.53125 23.925781 61.238281 23.71875 C 60.945312 23.515625 60.628906 23.335938 60.285156 23.183594 C 59.941406 23.03125 59.621094 22.894531 59.332031 22.777344 C 58.773438 22.550781 58.214844 22.308594 57.660156 22.050781 C 57.101562 21.792969 56.605469 21.480469 56.167969 21.117188 C 55.730469 20.753906 55.371094 20.3125 55.09375 19.792969 C 54.816406 19.277344 54.675781 18.652344 54.675781 17.925781 C 54.675781 17.355469 54.769531 16.792969 54.957031 16.246094 C 55.140625 15.695312 55.433594 15.199219 55.839844 14.761719 C 56.242188 14.324219 56.757812 13.972656 57.382812 13.710938 C 58.003906 13.445312 58.753906 13.3125 59.628906 13.3125 C 60.09375 13.3125 60.519531 13.34375 60.910156 13.402344 C 61.300781 13.460938 61.660156 13.539062 61.984375 13.640625 C 62.308594 13.738281 62.605469 13.847656 62.878906 13.96875 C 63.152344 14.085938 63.398438 14.199219 63.625 14.304688 L 63.863281 17.664062 L 63.105469 17.664062 C 63.082031 17.492188 63.042969 17.308594 62.996094 17.109375 C 62.953125 16.910156 62.878906 16.699219 62.78125 16.472656 C 62.679688 16.246094 62.539062 16.011719 62.363281 15.769531 C 62.183594 15.523438 61.949219 15.28125 61.65625 15.042969 C 61.230469 14.699219 60.808594 14.457031 60.382812 14.316406 C 59.960938 14.175781 59.570312 14.105469 59.210938 14.105469 C 58.628906 14.105469 58.128906 14.253906 57.710938 14.542969 C 57.289062 14.835938 57.082031 15.234375 57.082031 15.738281 C 57.082031 16.03125 57.160156 16.289062 57.3125 16.523438 C 57.464844 16.753906 57.675781 16.972656 57.949219 17.179688 C 58.21875 17.386719 58.542969 17.582031 58.921875 17.765625 C 59.300781 17.953125 59.71875 18.144531 60.183594 18.34375 C 60.488281 18.476562 60.789062 18.605469 61.089844 18.738281 C 61.386719 18.871094 61.6875 19.011719 61.992188 19.15625 C 62.179688 19.25 62.429688 19.390625 62.75 19.574219 C 63.066406 19.761719 63.378906 20.011719 63.683594 20.332031 C 63.988281 20.648438 64.25 21.039062 64.46875 21.503906 C 64.6875 21.96875 64.796875 22.523438 64.796875 23.171875 C 64.796875 23.785156 64.683594 24.382812 64.460938 24.972656 C 64.234375 25.5625 63.886719 26.09375 63.414062 26.5625 C 62.945312 27.035156 62.351562 27.414062 61.636719 27.699219 C 60.921875 27.980469 60.070312 28.125 59.089844 28.125 C 58.164062 28.125 57.339844 28.003906 56.613281 27.765625 C 55.894531 27.527344 55.21875 27.277344 54.597656 27.011719 L 54.476562 22.933594 L 55.195312 22.933594 "/>
<path style=" stroke:none;fill-rule:nonzero;fill:rgb(14.81781%,29.327393%,63.032532%);fill-opacity:1;" d="M 67.660156 16.472656 C 67.300781 16.089844 67.125 15.644531 67.125 15.140625 C 67.125 14.890625 67.171875 14.652344 67.273438 14.425781 C 67.371094 14.199219 67.503906 14.003906 67.667969 13.839844 C 67.835938 13.671875 68.03125 13.539062 68.257812 13.441406 C 68.480469 13.34375 68.726562 13.292969 68.992188 13.292969 C 69.242188 13.292969 69.480469 13.34375 69.710938 13.441406 C 69.933594 13.539062 70.128906 13.671875 70.292969 13.839844 C 70.460938 14.003906 70.59375 14.199219 70.691406 14.425781 C 70.792969 14.652344 70.84375 14.890625 70.84375 15.140625 C 70.84375 15.40625 70.792969 15.652344 70.691406 15.878906 C 70.59375 16.101562 70.460938 16.296875 70.292969 16.464844 C 70.128906 16.628906 69.933594 16.761719 69.710938 16.859375 C 69.480469 16.960938 69.242188 17.011719 68.992188 17.011719 C 68.488281 17.011719 68.042969 16.832031 67.660156 16.472656 Z M 67.859375 18.183594 C 68.21875 18.183594 68.507812 18.179688 68.734375 18.171875 C 68.960938 18.167969 69.171875 18.160156 69.371094 18.152344 C 69.570312 18.148438 69.78125 18.140625 70.007812 18.132812 C 70.230469 18.128906 70.523438 18.109375 70.882812 18.085938 L 70.84375 19.613281 L 70.84375 25.9375 L 70.882812 27.191406 L 72.234375 27.191406 L 72.234375 27.765625 L 65.773438 27.765625 L 65.773438 27.191406 L 67.101562 27.191406 L 67.144531 25.957031 L 67.144531 20.191406 L 67.101562 18.761719 L 65.773438 18.761719 L 65.773438 18.183594 L 67.859375 18.183594 "/>
<path style=" stroke:none;fill-rule:nonzero;fill:rgb(14.81781%,29.327393%,63.032532%);fill-opacity:1;" d="M 74.722656 13.730469 C 75.070312 13.730469 75.363281 13.726562 75.601562 13.71875 C 75.84375 13.714844 76.074219 13.703125 76.300781 13.691406 C 76.527344 13.675781 76.765625 13.664062 77.011719 13.648438 C 77.257812 13.636719 77.558594 13.617188 77.917969 13.589844 L 77.882812 15.023438 L 77.882812 25.839844 L 77.917969 27.191406 L 79.253906 27.191406 L 79.253906 27.765625 L 72.789062 27.765625 L 72.789062 27.191406 L 74.101562 27.191406 L 74.144531 25.839844 L 74.144531 15.578125 L 74.101562 14.304688 L 72.789062 14.304688 L 72.789062 13.730469 L 74.722656 13.730469 "/>
<path style=" stroke:none;fill-rule:nonzero;fill:rgb(14.81781%,29.327393%,63.032532%);fill-opacity:1;" d="M 81.796875 13.730469 C 82.128906 13.730469 82.410156 13.726562 82.644531 13.71875 C 82.875 13.714844 83.097656 13.707031 83.320312 13.699219 C 83.535156 13.691406 83.773438 13.679688 84.023438 13.660156 C 84.277344 13.640625 84.582031 13.617188 84.9375 13.589844 L 84.898438 15.199219 L 84.898438 22.496094 L 85.59375 22.496094 L 87.484375 19.496094 L 87.921875 18.738281 L 86.269531 18.738281 L 86.269531 18.164062 L 90.46875 18.164062 L 90.46875 18.738281 L 88.914062 18.738281 L 88.359375 19.496094 L 87.800781 20.390625 L 91.121094 25.976562 L 91.898438 27.191406 L 92.671875 27.191406 L 92.671875 27.765625 L 86.667969 27.765625 L 86.667969 27.191406 L 87.441406 27.191406 L 86.789062 25.957031 L 85.21875 23.171875 L 84.898438 23.171875 L 84.898438 25.9375 L 84.9375 27.191406 L 86.011719 27.191406 L 86.011719 27.765625 L 79.847656 27.765625 L 79.847656 27.191406 L 81.179688 27.191406 L 81.21875 25.957031 L 81.21875 15.539062 L 81.179688 14.304688 L 79.847656 14.304688 L 79.847656 13.730469 L 81.796875 13.730469 "/>
<path style=" stroke:none;fill-rule:nonzero;fill:rgb(14.81781%,29.327393%,63.032532%);fill-opacity:1;" d="M 115.222656 13.730469 L 119.238281 13.730469 L 119.238281 14.304688 L 117.90625 14.304688 L 117.289062 16.015625 L 113.371094 28.242188 L 112.574219 28.242188 L 108.761719 15.757812 L 105.003906 28.242188 L 104.1875 28.242188 L 100.03125 15.757812 L 99.472656 14.304688 L 98.203125 14.304688 L 98.203125 13.730469 L 105.519531 13.730469 L 105.519531 14.304688 L 103.808594 14.304688 L 104.246094 15.757812 L 106.253906 21.820312 L 108.480469 14.304688 L 106.851562 14.304688 L 106.851562 13.730469 L 114.066406 13.730469 L 114.066406 14.304688 L 112.496094 14.304688 L 114.742188 21.820312 L 116.59375 16.015625 L 117.050781 14.304688 L 115.222656 14.304688 L 115.222656 13.730469 "/>
<path style=" stroke:none;fill-rule:nonzero;fill:rgb(14.81781%,29.327393%,63.032532%);fill-opacity:1;" d="M 126.15625 22.019531 C 125.789062 22.128906 125.480469 22.222656 125.230469 22.308594 C 124.980469 22.394531 124.769531 22.492188 124.597656 22.597656 C 124.429688 22.703125 124.285156 22.824219 124.175781 22.957031 C 124.0625 23.089844 123.96875 23.253906 123.890625 23.453125 C 123.78125 23.71875 123.71875 24 123.691406 24.296875 C 123.664062 24.59375 123.648438 24.839844 123.648438 25.023438 C 123.648438 25.195312 123.664062 25.390625 123.691406 25.609375 C 123.71875 25.828125 123.765625 26.035156 123.839844 26.226562 C 123.910156 26.417969 124.015625 26.582031 124.152344 26.714844 C 124.292969 26.84375 124.480469 26.910156 124.71875 26.910156 C 124.929688 26.910156 125.136719 26.84375 125.347656 26.703125 C 125.558594 26.5625 125.730469 26.363281 125.859375 26.097656 C 125.9375 25.9375 125.996094 25.75 126.035156 25.53125 C 126.078125 25.3125 126.105469 25.078125 126.128906 24.835938 C 126.144531 24.589844 126.160156 24.347656 126.164062 24.109375 C 126.175781 23.871094 126.175781 23.65625 126.175781 23.472656 C 126.175781 23.21875 126.175781 22.976562 126.175781 22.734375 C 126.175781 22.496094 126.171875 22.257812 126.15625 22.019531 Z M 129.695312 25.144531 C 129.695312 25.449219 129.699219 25.71875 129.703125 25.957031 C 129.714844 26.195312 129.742188 26.40625 129.796875 26.585938 C 129.847656 26.761719 129.9375 26.898438 130.0625 26.992188 C 130.1875 27.085938 130.371094 27.132812 130.609375 27.132812 C 130.6875 27.132812 130.769531 27.128906 130.851562 27.121094 C 130.929688 27.113281 131.007812 27.105469 131.089844 27.089844 L 131.089844 27.667969 C 130.359375 27.773438 129.789062 27.839844 129.378906 27.867188 C 128.96875 27.894531 128.667969 27.90625 128.480469 27.90625 C 127.808594 27.90625 127.308594 27.808594 126.980469 27.617188 C 126.65625 27.425781 126.414062 27.058594 126.257812 26.515625 C 126.164062 26.660156 126.050781 26.816406 125.917969 26.980469 C 125.785156 27.148438 125.605469 27.304688 125.382812 27.449219 C 125.15625 27.59375 124.871094 27.71875 124.535156 27.816406 C 124.199219 27.917969 123.78125 27.964844 123.292969 27.964844 C 122.179688 27.964844 121.339844 27.71875 120.769531 27.230469 C 120.195312 26.738281 119.910156 25.996094 119.910156 25.003906 C 119.910156 24.832031 119.9375 24.570312 119.992188 24.21875 C 120.046875 23.867188 120.203125 23.527344 120.472656 23.195312 C 120.628906 22.996094 120.8125 22.828125 121.019531 22.695312 C 121.222656 22.566406 121.46875 22.449219 121.753906 22.347656 C 122.035156 22.25 122.367188 22.160156 122.746094 22.082031 C 123.125 22 123.5625 21.90625 124.066406 21.800781 L 126.136719 21.386719 C 126.121094 21.121094 126.117188 20.863281 126.117188 20.617188 C 126.117188 20.375 126.105469 20.125 126.074219 19.875 C 126.074219 19.765625 126.066406 19.636719 126.046875 19.484375 C 126.027344 19.332031 125.980469 19.183594 125.898438 19.039062 C 125.820312 18.894531 125.703125 18.765625 125.554688 18.660156 C 125.402344 18.554688 125.1875 18.5 124.914062 18.5 C 124.648438 18.5 124.441406 18.554688 124.292969 18.660156 C 124.144531 18.765625 124.027344 18.894531 123.945312 19.039062 C 123.867188 19.183594 123.820312 19.335938 123.800781 19.496094 C 123.777344 19.65625 123.765625 19.789062 123.75 19.894531 C 123.738281 20.027344 123.714844 20.175781 123.683594 20.339844 C 123.648438 20.507812 123.582031 20.660156 123.480469 20.796875 C 123.382812 20.9375 123.230469 21.054688 123.023438 21.15625 C 122.816406 21.253906 122.539062 21.304688 122.179688 21.304688 C 121.636719 21.304688 121.269531 21.210938 121.074219 21.015625 C 120.886719 20.824219 120.785156 20.582031 120.785156 20.289062 C 120.785156 20.105469 120.835938 19.886719 120.929688 19.636719 C 121.019531 19.382812 121.140625 19.164062 121.285156 18.976562 C 121.496094 18.699219 121.769531 18.484375 122.109375 18.332031 C 122.449219 18.179688 122.808594 18.066406 123.183594 17.992188 C 123.5625 17.921875 123.949219 17.878906 124.347656 17.863281 C 124.742188 17.851562 125.109375 17.84375 125.453125 17.84375 C 125.664062 17.84375 125.949219 17.851562 126.308594 17.863281 C 126.664062 17.878906 127.03125 17.929688 127.40625 18.023438 C 127.78125 18.117188 128.144531 18.265625 128.496094 18.472656 C 128.847656 18.675781 129.128906 18.964844 129.339844 19.335938 C 129.523438 19.679688 129.628906 20.078125 129.65625 20.53125 C 129.683594 20.980469 129.695312 21.425781 129.695312 21.863281 L 129.695312 25.144531 "/>
<g clip-path="url(#clip4)" clip-rule="nonzero">
<path style=" stroke:none;fill-rule:nonzero;fill:rgb(14.81781%,29.327393%,63.032532%);fill-opacity:1;" d="M 142.839844 18.164062 L 142.839844 18.738281 L 141.546875 18.738281 L 141.027344 19.894531 C 140.5625 21.074219 140.105469 22.246094 139.648438 23.414062 C 139.1875 24.578125 138.730469 25.746094 138.265625 26.910156 C 138.117188 27.257812 137.976562 27.597656 137.828125 27.9375 C 137.683594 28.273438 137.527344 28.613281 137.371094 28.960938 C 137.144531 29.4375 136.925781 29.871094 136.714844 30.261719 C 136.503906 30.652344 136.273438 30.988281 136.027344 31.265625 C 135.78125 31.542969 135.507812 31.765625 135.191406 31.921875 C 134.882812 32.082031 134.515625 32.160156 134.089844 32.160156 C 133.414062 32.160156 132.855469 31.964844 132.421875 31.574219 C 131.980469 31.183594 131.765625 30.652344 131.765625 29.972656 C 131.765625 29.417969 131.921875 28.992188 132.230469 28.703125 C 132.542969 28.410156 132.890625 28.265625 133.273438 28.265625 C 133.714844 28.265625 134.054688 28.40625 134.300781 28.691406 C 134.542969 28.976562 134.664062 29.308594 134.664062 29.695312 C 134.664062 29.84375 134.652344 29.953125 134.628906 30.03125 C 134.601562 30.113281 134.570312 30.191406 134.535156 30.261719 C 134.503906 30.335938 134.476562 30.40625 134.445312 30.46875 C 134.421875 30.535156 134.40625 30.617188 134.40625 30.710938 C 134.40625 30.722656 134.410156 30.75 134.417969 30.789062 C 134.425781 30.828125 134.441406 30.871094 134.46875 30.917969 C 134.492188 30.964844 134.535156 31.003906 134.597656 31.039062 C 134.65625 31.070312 134.738281 31.089844 134.847656 31.089844 C 135.148438 31.089844 135.40625 30.945312 135.609375 30.660156 C 135.816406 30.375 136.046875 30.007812 136.296875 29.554688 L 136.972656 28.222656 L 133.214844 19.933594 L 132.617188 18.738281 L 131.285156 18.738281 L 131.285156 18.164062 L 138.207031 18.164062 L 138.207031 18.738281 L 136.796875 18.738281 L 137.269531 19.933594 C 137.441406 20.316406 137.589844 20.644531 137.710938 20.90625 C 137.828125 21.171875 137.941406 21.433594 138.046875 21.691406 C 138.152344 21.953125 138.265625 22.234375 138.386719 22.539062 C 138.503906 22.84375 138.644531 23.21875 138.804688 23.671875 L 140.253906 19.894531 L 140.671875 18.738281 L 139.300781 18.738281 L 139.300781 18.164062 L 142.839844 18.164062 "/>
</g>
<path style=" stroke:none;fill-rule:nonzero;fill:rgb(14.81781%,29.327393%,63.032532%);fill-opacity:1;" d="M 58.894531 38.785156 L 57.402344 42.742188 L 60.285156 42.742188 Z M 61.117188 33.535156 L 65.492188 45.128906 L 66.328125 47.195312 L 67.859375 47.195312 L 67.859375 47.773438 L 59.804688 47.773438 L 59.804688 47.195312 L 61.753906 47.195312 L 61.097656 45.148438 L 60.503906 43.398438 L 57.160156 43.398438 L 56.546875 45.089844 C 56.46875 45.300781 56.398438 45.480469 56.347656 45.625 C 56.292969 45.773438 56.242188 45.921875 56.199219 46.074219 C 56.152344 46.226562 56.105469 46.390625 56.058594 46.558594 C 56.011719 46.734375 55.957031 46.945312 55.890625 47.195312 L 57.777344 47.195312 L 57.777344 47.773438 L 53.421875 47.773438 L 53.421875 47.195312 L 54.855469 47.195312 C 54.976562 46.945312 55.074219 46.734375 55.15625 46.558594 C 55.234375 46.390625 55.300781 46.230469 55.363281 46.09375 C 55.421875 45.953125 55.480469 45.808594 55.542969 45.65625 C 55.601562 45.503906 55.671875 45.316406 55.75 45.089844 L 60.085938 33.535156 L 61.117188 33.535156 "/>
<path style=" stroke:none;fill-rule:nonzero;fill:rgb(14.81781%,29.327393%,63.032532%);fill-opacity:1;" d="M 70.144531 36.480469 C 69.789062 36.09375 69.609375 35.652344 69.609375 35.148438 C 69.609375 34.894531 69.660156 34.65625 69.757812 34.429688 C 69.855469 34.207031 69.988281 34.011719 70.15625 33.84375 C 70.320312 33.679688 70.519531 33.546875 70.742188 33.449219 C 70.96875 33.347656 71.214844 33.296875 71.476562 33.296875 C 71.730469 33.296875 71.96875 33.347656 72.195312 33.449219 C 72.417969 33.546875 72.613281 33.679688 72.78125 33.84375 C 72.945312 34.011719 73.078125 34.207031 73.175781 34.429688 C 73.277344 34.65625 73.328125 34.894531 73.328125 35.148438 C 73.328125 35.414062 73.277344 35.65625 73.175781 35.882812 C 73.078125 36.109375 72.945312 36.304688 72.78125 36.46875 C 72.613281 36.636719 72.417969 36.769531 72.195312 36.867188 C 71.96875 36.96875 71.730469 37.015625 71.476562 37.015625 C 70.972656 37.015625 70.53125 36.835938 70.144531 36.480469 Z M 70.34375 38.191406 C 70.703125 38.191406 70.992188 38.1875 71.21875 38.179688 C 71.445312 38.171875 71.65625 38.167969 71.855469 38.160156 C 72.054688 38.152344 72.265625 38.148438 72.492188 38.140625 C 72.71875 38.132812 73.007812 38.117188 73.367188 38.089844 L 73.328125 39.621094 L 73.328125 45.945312 L 73.367188 47.195312 L 74.71875 47.195312 L 74.71875 47.773438 L 68.257812 47.773438 L 68.257812 47.195312 L 69.589844 47.195312 L 69.628906 45.964844 L 69.628906 40.199219 L 69.589844 38.765625 L 68.257812 38.765625 L 68.257812 38.191406 L 70.34375 38.191406 "/>
<path style=" stroke:none;fill-rule:nonzero;fill:rgb(14.81781%,29.327393%,63.032532%);fill-opacity:1;" d="M 80.445312 47.195312 L 81.898438 47.195312 L 81.898438 47.773438 L 75.316406 47.773438 L 75.316406 47.195312 L 76.628906 47.195312 L 76.667969 45.90625 L 76.667969 40.613281 L 76.628906 38.746094 L 75.316406 38.746094 L 75.316406 38.167969 L 76.648438 38.167969 C 77.085938 38.15625 77.445312 38.148438 77.730469 38.140625 C 78.015625 38.132812 78.285156 38.128906 78.535156 38.121094 C 78.789062 38.113281 79.046875 38.105469 79.3125 38.101562 C 79.578125 38.09375 79.90625 38.082031 80.304688 38.070312 L 80.304688 40.039062 C 80.371094 39.867188 80.464844 39.65625 80.585938 39.402344 C 80.703125 39.152344 80.867188 38.90625 81.070312 38.667969 C 81.277344 38.429688 81.53125 38.226562 81.835938 38.058594 C 82.140625 37.894531 82.511719 37.8125 82.949219 37.8125 C 83.191406 37.8125 83.425781 37.847656 83.664062 37.921875 C 83.90625 37.992188 84.121094 38.109375 84.3125 38.269531 C 84.503906 38.429688 84.664062 38.632812 84.789062 38.886719 C 84.914062 39.136719 84.976562 39.441406 84.976562 39.800781 C 84.976562 40.304688 84.839844 40.71875 84.5625 41.042969 C 84.28125 41.367188 83.910156 41.53125 83.449219 41.53125 C 82.996094 41.53125 82.640625 41.390625 82.375 41.113281 C 82.109375 40.835938 81.976562 40.523438 81.976562 40.175781 C 81.976562 40.007812 81.996094 39.859375 82.035156 39.742188 C 82.078125 39.621094 82.09375 39.476562 82.09375 39.304688 C 82.09375 39.199219 82.078125 39.105469 82.035156 39.023438 C 81.996094 38.945312 81.921875 38.90625 81.816406 38.90625 C 81.710938 38.90625 81.609375 38.953125 81.519531 39.042969 C 81.425781 39.136719 81.339844 39.257812 81.261719 39.402344 C 80.863281 40.066406 80.625 40.722656 80.542969 41.371094 C 80.464844 42.019531 80.417969 42.625 80.40625 43.179688 L 80.40625 45.925781 L 80.445312 47.195312 "/>
<path style=" stroke:none;fill-rule:nonzero;fill:rgb(14.81781%,29.327393%,63.032532%);fill-opacity:1;" d="M 87.148438 33.734375 C 87.496094 33.734375 87.789062 33.730469 88.027344 33.726562 C 88.265625 33.71875 88.5 33.710938 88.726562 33.695312 C 88.957031 33.683594 89.191406 33.667969 89.4375 33.65625 C 89.683594 33.644531 89.988281 33.625 90.347656 33.597656 L 90.304688 35.027344 L 90.304688 45.84375 L 90.347656 47.195312 L 91.679688 47.195312 L 91.679688 47.773438 L 85.21875 47.773438 L 85.21875 47.195312 L 86.527344 47.195312 L 86.570312 45.84375 L 86.570312 35.585938 L 86.527344 34.3125 L 85.21875 34.3125 L 85.21875 33.734375 L 87.148438 33.734375 "/>
<path style=" stroke:none;fill-rule:nonzero;fill:rgb(14.81781%,29.327393%,63.032532%);fill-opacity:1;" d="M 94.164062 36.480469 C 93.804688 36.09375 93.628906 35.652344 93.628906 35.148438 C 93.628906 34.894531 93.675781 34.65625 93.777344 34.429688 C 93.878906 34.207031 94.007812 34.011719 94.171875 33.84375 C 94.339844 33.679688 94.535156 33.546875 94.761719 33.449219 C 94.984375 33.347656 95.230469 33.296875 95.496094 33.296875 C 95.746094 33.296875 95.984375 33.347656 96.214844 33.449219 C 96.4375 33.546875 96.632812 33.679688 96.796875 33.84375 C 96.964844 34.011719 97.097656 34.207031 97.199219 34.429688 C 97.296875 34.65625 97.34375 34.894531 97.34375 35.148438 C 97.34375 35.414062 97.296875 35.65625 97.199219 35.882812 C 97.097656 36.109375 96.964844 36.304688 96.796875 36.46875 C 96.632812 36.636719 96.4375 36.769531 96.214844 36.867188 C 95.984375 36.96875 95.746094 37.015625 95.496094 37.015625 C 94.992188 37.015625 94.546875 36.835938 94.164062 36.480469 Z M 94.363281 38.191406 C 94.71875 38.191406 95.011719 38.1875 95.238281 38.179688 C 95.464844 38.171875 95.675781 38.167969 95.875 38.160156 C 96.074219 38.152344 96.285156 38.148438 96.511719 38.140625 C 96.734375 38.132812 97.027344 38.117188 97.386719 38.089844 L 97.34375 39.621094 L 97.34375 45.945312 L 97.386719 47.195312 L 98.738281 47.195312 L 98.738281 47.773438 L 92.277344 47.773438 L 92.277344 47.195312 L 93.605469 47.195312 L 93.648438 45.964844 L 93.648438 40.199219 L 93.605469 38.765625 L 92.277344 38.765625 L 92.277344 38.191406 L 94.363281 38.191406 "/>
<path style=" stroke:none;fill-rule:nonzero;fill:rgb(14.81781%,29.327393%,63.032532%);fill-opacity:1;" d="M 111.125 47.195312 L 112.457031 47.195312 L 112.457031 47.773438 L 106.175781 47.773438 L 106.175781 47.195312 L 107.308594 47.195312 L 107.347656 46.003906 L 107.347656 41.511719 C 107.347656 41.207031 107.34375 40.949219 107.339844 40.746094 C 107.328125 40.539062 107.320312 40.367188 107.308594 40.226562 C 107.296875 40.089844 107.277344 39.972656 107.261719 39.878906 C 107.238281 39.785156 107.21875 39.695312 107.1875 39.601562 C 107.121094 39.414062 107.050781 39.269531 106.964844 39.164062 C 106.878906 39.058594 106.785156 38.980469 106.695312 38.933594 C 106.605469 38.890625 106.519531 38.863281 106.4375 38.855469 C 106.359375 38.847656 106.308594 38.84375 106.28125 38.84375 C 105.949219 38.84375 105.621094 39.003906 105.292969 39.324219 C 105.097656 39.507812 104.941406 39.71875 104.828125 39.949219 C 104.71875 40.179688 104.632812 40.417969 104.570312 40.664062 C 104.515625 40.910156 104.476562 41.160156 104.453125 41.410156 C 104.433594 41.664062 104.417969 41.90625 104.402344 42.148438 L 104.402344 46.042969 L 104.441406 47.195312 L 105.578125 47.195312 L 105.578125 47.773438 L 99.335938 47.773438 L 99.335938 47.195312 L 100.628906 47.195312 L 100.664062 46.023438 L 100.664062 40.117188 L 100.628906 38.765625 L 99.335938 38.765625 L 99.335938 38.167969 L 101.304688 38.167969 C 101.675781 38.167969 101.984375 38.167969 102.238281 38.167969 C 102.488281 38.167969 102.722656 38.164062 102.933594 38.148438 C 103.144531 38.136719 103.359375 38.121094 103.578125 38.101562 C 103.800781 38.082031 104.0625 38.058594 104.363281 38.03125 L 104.402344 39.679688 C 104.535156 39.46875 104.6875 39.253906 104.859375 39.035156 C 105.035156 38.816406 105.246094 38.621094 105.496094 38.449219 C 105.75 38.277344 106.058594 38.136719 106.425781 38.03125 C 106.785156 37.925781 107.234375 37.871094 107.765625 37.871094 C 108.148438 37.871094 108.570312 37.921875 109.027344 38.019531 C 109.484375 38.121094 109.863281 38.289062 110.171875 38.527344 C 110.410156 38.714844 110.589844 38.925781 110.707031 39.164062 C 110.824219 39.402344 110.914062 39.652344 110.976562 39.910156 C 111.035156 40.167969 111.066406 40.421875 111.074219 40.675781 C 111.082031 40.925781 111.085938 41.164062 111.085938 41.390625 L 111.085938 46.023438 L 111.125 47.195312 "/>
<path style=" stroke:none;fill-rule:nonzero;fill:rgb(14.81781%,29.327393%,63.032532%);fill-opacity:1;" d="M 119.835938 41.847656 C 119.847656 41.464844 119.851562 41.0625 119.84375 40.644531 C 119.839844 40.226562 119.78125 39.832031 119.675781 39.460938 C 119.609375 39.238281 119.527344 39.0625 119.4375 38.933594 C 119.34375 38.808594 119.253906 38.71875 119.167969 38.667969 C 119.082031 38.613281 119.003906 38.585938 118.929688 38.578125 C 118.855469 38.570312 118.800781 38.566406 118.761719 38.566406 C 118.722656 38.566406 118.660156 38.574219 118.582031 38.585938 C 118.503906 38.601562 118.414062 38.636719 118.320312 38.695312 C 118.230469 38.757812 118.136719 38.847656 118.046875 38.972656 C 117.949219 39.101562 117.871094 39.269531 117.808594 39.480469 C 117.699219 39.839844 117.636719 40.226562 117.617188 40.644531 C 117.597656 41.0625 117.589844 41.464844 117.589844 41.847656 Z M 123.828125 45.109375 C 123.65625 45.414062 123.460938 45.746094 123.234375 46.101562 C 123.007812 46.460938 122.710938 46.789062 122.339844 47.085938 C 121.96875 47.386719 121.511719 47.632812 120.96875 47.832031 C 120.425781 48.03125 119.746094 48.132812 118.9375 48.132812 C 117.933594 48.132812 117.078125 47.980469 116.386719 47.671875 C 115.6875 47.367188 115.121094 46.972656 114.683594 46.480469 C 114.246094 45.988281 113.933594 45.4375 113.738281 44.820312 C 113.546875 44.203125 113.449219 43.585938 113.449219 42.960938 C 113.449219 42.339844 113.554688 41.722656 113.761719 41.113281 C 113.964844 40.503906 114.285156 39.957031 114.726562 39.472656 C 115.160156 38.988281 115.726562 38.597656 116.414062 38.300781 C 117.105469 38 117.933594 37.851562 118.898438 37.851562 C 119.140625 37.851562 119.410156 37.863281 119.726562 37.890625 C 120.035156 37.917969 120.359375 37.976562 120.699219 38.070312 C 121.035156 38.164062 121.382812 38.296875 121.730469 38.46875 C 122.085938 38.640625 122.410156 38.871094 122.71875 39.164062 C 123.007812 39.441406 123.234375 39.71875 123.394531 40 C 123.554688 40.277344 123.675781 40.558594 123.761719 40.84375 C 123.847656 41.128906 123.902344 41.410156 123.929688 41.691406 C 123.957031 41.96875 123.976562 42.238281 123.988281 42.503906 L 117.589844 42.503906 C 117.589844 42.980469 117.597656 43.449219 117.617188 43.90625 C 117.636719 44.363281 117.699219 44.804688 117.808594 45.226562 C 117.832031 45.320312 117.882812 45.476562 117.953125 45.695312 C 118.027344 45.914062 118.148438 46.132812 118.320312 46.351562 C 118.492188 46.570312 118.722656 46.761719 119.011719 46.929688 C 119.292969 47.09375 119.660156 47.175781 120.109375 47.175781 C 120.550781 47.175781 120.9375 47.089844 121.273438 46.917969 C 121.613281 46.746094 121.90625 46.535156 122.160156 46.292969 C 122.410156 46.046875 122.621094 45.789062 122.796875 45.515625 C 122.96875 45.246094 123.113281 45.011719 123.234375 44.808594 L 123.828125 45.109375 "/>
<path style=" stroke:none;fill-rule:nonzero;fill:rgb(14.81781%,29.327393%,63.032532%);fill-opacity:1;" d="M 128.78125 44.574219 C 128.566406 44.492188 128.355469 44.414062 128.144531 44.332031 C 127.933594 44.253906 127.726562 44.167969 127.527344 44.074219 C 127.394531 44.007812 127.222656 43.914062 127.011719 43.785156 C 126.800781 43.660156 126.59375 43.484375 126.394531 43.261719 C 126.195312 43.035156 126.023438 42.75 125.878906 42.40625 C 125.730469 42.058594 125.660156 41.636719 125.660156 41.132812 C 125.660156 40.136719 125.988281 39.351562 126.652344 38.777344 C 127.316406 38.199219 128.25 37.910156 129.457031 37.910156 C 130.054688 37.910156 130.601562 37.96875 131.097656 38.089844 C 131.59375 38.210938 132.121094 38.347656 132.679688 38.507812 L 132.679688 41.03125 L 131.964844 41.03125 C 131.9375 40.847656 131.875 40.605469 131.78125 40.308594 C 131.6875 40.007812 131.492188 39.699219 131.1875 39.382812 C 131.003906 39.183594 130.738281 38.996094 130.402344 38.828125 C 130.0625 38.652344 129.675781 38.566406 129.238281 38.566406 C 128.984375 38.566406 128.777344 38.597656 128.609375 38.65625 C 128.445312 38.714844 128.3125 38.789062 128.214844 38.875 C 128.113281 38.960938 128.039062 39.054688 127.996094 39.152344 C 127.949219 39.253906 127.925781 39.34375 127.925781 39.421875 C 127.925781 39.648438 128.007812 39.816406 128.175781 39.929688 C 128.339844 40.042969 128.480469 40.132812 128.601562 40.199219 C 128.683594 40.238281 128.757812 40.269531 128.828125 40.296875 C 128.902344 40.324219 128.992188 40.355469 129.101562 40.398438 C 129.203125 40.4375 129.34375 40.488281 129.519531 40.554688 C 129.6875 40.621094 129.921875 40.707031 130.214844 40.816406 C 130.636719 40.972656 131.046875 41.140625 131.445312 41.320312 C 131.84375 41.5 132.191406 41.71875 132.496094 41.976562 C 132.804688 42.234375 133.046875 42.558594 133.226562 42.941406 C 133.402344 43.328125 133.492188 43.808594 133.492188 44.394531 C 133.492188 44.566406 133.476562 44.773438 133.441406 45.019531 C 133.410156 45.265625 133.339844 45.527344 133.234375 45.804688 C 132.929688 46.574219 132.421875 47.148438 131.714844 47.523438 C 131.003906 47.902344 130.152344 48.09375 129.15625 48.09375 C 128.441406 48.09375 127.8125 48.019531 127.269531 47.871094 C 126.726562 47.726562 126.203125 47.5625 125.699219 47.375 L 125.699219 44.195312 L 126.375 44.195312 C 126.441406 44.605469 126.527344 44.996094 126.632812 45.367188 C 126.738281 45.738281 126.964844 46.109375 127.3125 46.480469 C 127.574219 46.757812 127.882812 46.976562 128.234375 47.136719 C 128.585938 47.296875 128.992188 47.375 129.457031 47.375 C 130.015625 47.375 130.449219 47.257812 130.769531 47.019531 C 131.089844 46.78125 131.246094 46.492188 131.246094 46.164062 C 131.246094 45.988281 131.210938 45.84375 131.136719 45.726562 C 131.0625 45.605469 130.972656 45.503906 130.859375 45.417969 C 130.746094 45.332031 130.628906 45.261719 130.5 45.210938 C 130.375 45.15625 130.257812 45.109375 130.152344 45.070312 L 128.78125 44.574219 "/>
</g>
</svg>
