<svg xmlns="http://www.w3.org/2000/svg" width="176pt" height="72.413" viewBox="0 0 176 54.31"><defs><clipPath id="a"><path d="M74 29h33v25.309H74Zm0 0"/></clipPath></defs><path d="M168.766 0c.16.07.32.176.488.203 1.976.309 3.305 1.492 4.25 3.168 1.176 2.078 1.531 4.34 1.523 6.75h-4.832c-.066-.246-.129-.523-.215-.797-.101-.308-.187-.629-.343-.906-.457-.797-1.39-1.156-2.196-.887-.718.246-1.132 1.102-.964 2.043.183 1.012.84 1.692 1.671 2.2.723.445 1.473.855 2.239 1.226 2.996 1.46 4.601 3.863 4.937 7.16.309 3.07.211 6.094-1.047 8.973-1.214 2.777-3.46 4.207-6.414 4.148-1.898-.035-3.293-.996-4.37-2.46-1.74-2.356-2.384-5.051-2.388-8.106 1.567 0 3.09-.02 4.614.027.16.004.344.371.457.602.324.668.527 1.41.945 2.008.445.632 1.168.777 1.945.55.743-.21 1.149-.68 1.325-1.422.304-1.277-.137-2.28-1.153-3.003a15 15 0 0 0-2.386-1.352c-3.184-1.453-4.895-3.941-5.262-7.379-.297-2.726-.293-5.445.7-8.047.956-2.523 2.577-4.32 5.483-4.531.07-.004.137-.11.204-.168zM112.05 0q.582.154 1.169.3c2.433.618 3.906 2.317 4.886 4.49 1.168 2.585 1.493 5.331 1.43 8.198h-4.867c-.074-.61-.125-1.226-.238-1.828-.094-.512-.215-1.031-.414-1.508-.399-.949-1-1.757-2.141-1.754-1.098.004-1.672.868-1.887 1.747-.414 1.707-.832 3.457-.87 5.199-.055 2.61.179 5.226.382 7.832.047.62.371 1.265.715 1.808.93 1.473 2.68 1.465 3.453-.086.473-.941.617-2.05.883-3.09.078-.308.058-.64.094-1.015h5.128c-.152 1.492-.234 2.98-.464 4.445-.383 2.434-1.227 4.692-2.91 6.555-2.348 2.605-6.07 2.719-8.547.23-1.926-1.933-2.829-4.398-3.336-7-1.125-5.804-1.157-11.597.472-17.328.309-1.09.805-2.144 1.313-3.164C107.34 1.953 108.945.527 111.26 0zM0 39.977c.133-.414.262-.832.402-1.247.57-1.687 1.97-2.601 3.883-2.539 1.73.051 2.883.848 3.285 2.282.024.086.004.183.004.289-.629.172-1.023.105-1.422-.567-.933-1.566-3.57-1.25-4.386.473-.567 1.203-.496 2.434.039 3.617.441.977 1.308 1.309 2.34 1.3 1.027-.007 1.812-.456 2.136-1.42.254-.743.649-.892 1.399-.642-.121 1.137-.64 2.016-1.637 2.598C3.609 45.535.715 44.2.219 41.45c-.043-.234-.145-.457-.219-.683zM63.828 20.688h-3.09v-6.09h8.36v.925c0 4.825-.02 9.649.02 14.473.007.906-.298 1.395-1.153 1.664-2.137.676-4.281 1.13-6.555 1.055-3.52-.117-5.941-1.79-7.433-4.903-1.18-2.46-1.633-5.105-1.891-7.789-.406-4.238-.445-8.445 1.09-12.52.75-1.987 1.75-3.796 3.398-5.206C59.52-.227 66.45.398 68.227 5.39c.613 1.718 1.023 4.336.757 5.918H63.91c-.101-.59-.168-1.137-.297-1.672-.27-1.153-.957-1.93-2.152-2.149-1.184-.215-1.93.457-2.512 1.352-.96 1.476-1.36 3.148-1.312 4.867.066 2.645.18 5.297.496 7.922.125 1.047.789 2.055 1.316 3.023.758 1.399 2.051 1.598 3.485 1.336.57-.101.93-.34.906-1.035-.047-1.379-.012-2.754-.012-4.265M33.68 8.398v6.188c1.418-.137 3.035.46 3.89-1.05.782-1.384.684-2.97-.168-4.31-.906-1.421-2.422-.628-3.722-.828m-.024 24.028h-5.218V.984c.53 0 1.074-.007 1.613.004 2.558.043 5.12-.027 7.664.176 2.469.2 3.965 1.77 4.57 4.113.8 3.102.832 6.243-.039 9.325-.316 1.113-1.082 2.101-1.695 3.246 1.804 1.195 2.113 3.32 2.183 5.535.059 1.863.04 3.734.157 5.597.05.88.351 1.743.511 2.614.047.246.008.508.008.82h-5.336c-.082-1.496-.168-2.988-.238-4.484-.063-1.309-.031-2.625-.184-3.922-.23-2.012-.847-2.492-2.902-2.492h-1.094zM150.414 14.598c1.363-.153 2.86.394 3.899-.942.75-.965.632-3.52-.153-4.5-1.043-1.304-2.453-.547-3.746-.773zm6.863 3.214c1.856 1.235 2.168 3.36 2.235 5.57.062 1.997.05 4 .152 5.993.04.719.32 1.422.477 2.137.058.273.07.558.109.902h-5.402q-.125-2.341-.239-4.684c-.058-1.242-.023-2.492-.18-3.722-.253-2.031-.85-2.492-2.902-2.492h-1.09v10.882h-5.222V1.066c.195-.027.41-.082.625-.078 2.95.055 5.902-.004 8.84.219 2.199.168 3.632 1.582 4.25 3.691.992 3.383 1 6.801-.059 10.16-.3.958-1.016 1.782-1.594 2.755" style="stroke:none;fill-rule:nonzero;fill:#333493;fill-opacity:1"/><g clip-path="url(#a)"><path d="M79.617 42.422c.461.918.895 1.773 1.348 2.668l-2.684 1.32c.461.918.88 1.758 1.305 2.61.918-.458 1.758-.88 2.644-1.325.504.907.993 1.782 1.493 2.68l2.437-1.305c-.422-.906-.8-1.722-1.207-2.601.879-.477 1.703-.926 2.582-1.407-.457-.902-.875-1.726-1.293-2.542-.937.445-1.762.835-2.613 1.242-.465-.899-.895-1.735-1.344-2.606-.918.434-1.765.836-2.668 1.266M102 32.504c1.504.851 3.008 1.703 4.648 2.637-6.43 9.87-16.156 15.007-26.742 19.168-1.976-4.145-3.91-8.207-5.89-12.364 8.453-2.215 15.78-6.261 21.66-12.734.347.133.644.25.945.367q2.69 1.466 5.379 2.926" style="stroke:none;fill-rule:nonzero;fill:#ed2725;fill-opacity:1"/></g><path d="M141.914 12.773v7.418h-6.367v4.836h7.805v7.383h-13.043V1.04h12.789v7.312h-7.559v4.421zM8.969 11.555l-.227-.012c-.476 3.352-.949 6.7-1.43 10.098h3.153zm8.215 20.875h-5.196l-.629-4.032H6.316c-.195 1.317-.394 2.637-.597 4.008H.629C2.496 21.95 4.355 11.516 6.219 1.04h5.336c1.87 10.43 3.742 20.879 5.629 31.39M95.543 21.64c-.52-3.48-1.023-6.843-1.523-10.206l-.192.011c-.48 3.383-.957 6.762-1.445 10.196zM102 32.505q-2.69-1.46-5.379-2.926c-.062-.379-.129-.762-.2-1.191h-5.023q-.302 1.972-.617 4.039h-5.078c1.867-10.489 3.727-20.922 5.59-31.39h5.324c.547 3.003 1.094 6.019 1.637 9.038q1.93 10.724 3.836 21.453c.055.313-.059.653-.09.977M71.79 32.39V1.04h5.187v23.972h7.011v7.379zM25.59 32.418h-5.055V1.031h5.055zM127.941 32.434h-5.043V1.035h5.043zM43.785 20.95v-6.165h7.403v6.164zM26.281 36.492v7.883h-1.156v-5.727q-.11-.02-.215-.043c-.328.899-.66 1.797-.984 2.696-.29.8-.528 1.625-.883 2.394-.14.309-.527.692-.809.696-.285.004-.722-.36-.84-.66-.683-1.762-1.292-3.555-2.07-5.329v5.993h-1.12v-7.868c1.433-.402 1.57-.328 2.07 1.075.613 1.714 1.234 3.425 1.956 5.43.477-1.337.864-2.43 1.254-3.52.23-.645.47-1.29.703-1.938.489-1.363.485-1.363 2.094-1.082M168.668 35.762c.984-.293 1.617-.02 2.168.894 1.156 1.922 2.45 3.766 3.867 5.606v-6.535H176v8.687c-.895.203-1.54.07-2.09-.836-1.183-1.957-2.512-3.828-3.926-5.957v6.785h-1.316zM109.277 43.398c1.606-.183 3.403.61 4.43-1.199.813-1.43.856-3.004-.066-4.386-1.082-1.622-2.813-.903-4.364-1.047zm-1.37 1.086V35.73c1.57 0 3.148-.18 4.667.043 2.254.332 3.446 2.633 2.957 5.282-.422 2.304-1.781 3.425-4.156 3.43zM159.445 40.059c-.004 2.113 1.215 3.496 3.11 3.523 1.949.027 3.25-1.367 3.257-3.488.004-2.09-1.246-3.5-3.125-3.524-1.957-.027-3.234 1.348-3.242 3.489m3.203 4.644c-2.816.004-4.562-1.766-4.566-4.625 0-2.851 1.758-4.633 4.566-4.633 2.727.008 4.52 1.817 4.54 4.582.023 2.825-1.774 4.672-4.54 4.676M45.621 41.11v-.946h3.746c0 1.219.016 2.387-.015 3.559-.008.238-.2.472-.305.71-.215-.18-.434-.355-.645-.538-.074-.063-.129-.141-.191-.211-2.102 1.242-3.918 1.273-5.27.097-1.41-1.226-1.824-3.46-.984-5.332.727-1.625 2.25-2.433 4.184-2.222 1.672.183 2.71 1.066 3.082 2.902-.57-.277-1.137-.367-1.328-.68-.618-1.027-1.532-1.289-2.594-1.215-1.074.078-1.828.676-2.207 1.684-.422 1.121-.395 2.258.09 3.344.511 1.152 1.836 1.633 3.273 1.265 1.09-.277 1.664-1.09 1.64-2.418zM56.613 42.605v-6.164h1.168v7.891c-.828.281-1.383.09-1.87-.691a58 58 0 0 0-3.727-5.313v6.067H51.09v-7.918c.785-.239 1.406-.168 1.914.695.879 1.492 1.879 2.914 2.836 4.363.187.29.398.559.773 1.07M69.074 36.434v.984h-4.883v2.34h4.477v1.07h-4.469v2.52h4.989c.027.398.042.672.058.91-.117.082-.168.152-.219.152-1.996.004-3.988.004-6.062.004v-7.98zM15.617 40.39c-.004-1.902-1.133-3.16-2.847-3.171-1.762-.012-2.926 1.265-2.922 3.207.004 1.898 1.129 3.144 2.859 3.156 1.785.016 2.922-1.227 2.91-3.191m-7 .012c-.004-2.582 1.606-4.222 4.133-4.215 2.512.008 4.16 1.684 4.16 4.227.004 2.504-1.707 4.234-4.18 4.227-2.53-.008-4.109-1.633-4.113-4.239M124.691 40.734l-1.3-3.613c-.5 1.3-.926 2.414-1.383 3.613zm2.844 3.63c-1.125.417-1.61-.063-1.844-1.005-.117-.472-.32-.918-.488-1.386h-3.64c-.192.48-.465.968-.583 1.492-.214.937-.734 1.226-1.718.914.203-.535.402-1.074.613-1.61.867-2.183 1.723-4.37 2.637-6.53.11-.262.543-.528.832-.536.34-.008.902.176 1 .426 1.101 2.715 2.129 5.465 3.191 8.234M141.953 40.715h2.68c-.426-1.184-.817-2.262-1.29-3.582-.519 1.332-.937 2.41-1.39 3.582m5.527 3.66c-1.085.371-1.664-.012-1.828-1.055-.175-1.14-.808-1.465-1.957-1.406-2.117.11-2.156.02-2.918 1.977-.34.879-.937.547-1.625.554 1.145-2.867 2.239-5.66 3.399-8.422.09-.214.637-.324.972-.328.258-.004.68.172.758.375 1.098 2.758 2.14 5.532 3.2 8.305M29.36 40.023c.921 0 1.738.016 2.554-.003.84-.016 1.273-.516 1.285-1.31.012-.823-.496-1.26-1.297-1.296-.836-.035-1.68-.008-2.543-.008zm-.044 1.149v3.21h-1.16V36.45c1.5 0 2.965-.07 4.422.024 1.082.066 1.824.984 1.883 2.05.062 1.207-.574 2.23-1.695 2.414-1.086.176-2.203.16-3.45.235M127.023 35.766c1.082-.336 1.59.023 1.907 1.054.61 1.996 1.367 3.95 2.148 6.16.207-.5.348-.796.457-1.105.598-1.7 1.266-3.375 1.758-5.102.293-1.023.793-1.328 1.86-.996q-.21.571-.43 1.153c-.88 2.289-1.77 4.578-2.633 6.875-.184.492-.426.707-.992.703s-.786-.215-.973-.715c-1.012-2.688-2.066-5.36-3.102-8.027M38.672 41.086c-.402-1.129-.762-2.129-1.203-3.367-.489 1.289-.867 2.297-1.27 3.367zm2.531 3.27c-2.031.472-1.387-1.489-2.258-2.235-.203 0-.566.043-.914-.008-1.52-.234-2.648.063-2.992 1.828-.055.282-.742.442-1.137.66-.07-.085-.14-.175-.21-.261.46-1.172.917-2.344 1.386-3.516.492-1.246 1.012-2.484 1.484-3.738.18-.48.383-.734.965-.738.594-.004.782.265.961.742.809 2.176 1.653 4.34 2.48 6.508.087.234.15.48.235.757M146.309 36.867v-1.152h7.46V36.8h-3.054v7.613h-1.344v-7.547zM155.16 35.715h1.281v8.703h-1.28zM137.828 44.457h-1.215v-8.73h1.215zM60.848 44.398h-1.086v-7.957h1.086zM116.7 38.832c.374-.656.644-1.121.91-1.586q-.155.016-.31.031c-.198-.457-.398-.918-.663-1.535h1.543c.32 1.844-.008 2.649-1.48 3.09" style="stroke:none;fill-rule:nonzero;fill:#333493;fill-opacity:1"/></svg>