<?xml version="1.0" encoding="UTF-8"?>
<svg xmlns="http://www.w3.org/2000/svg" xmlns:xlink="http://www.w3.org/1999/xlink" width="176pt" height="54.31pt" viewBox="0 0 176 54.31" version="1.1">
<defs>
<clipPath id="clip1">
  <path d="M 74 29 L 107 29 L 107 54.308594 L 74 54.308594 Z M 74 29 "/>
</clipPath>
</defs>
<g id="surface1">
<path style=" stroke:none;fill-rule:nonzero;fill:rgb(20.144653%,20.471191%,57.743835%);fill-opacity:1;" d="M 168.765625 0 C 168.925781 0.0703125 169.085938 0.175781 169.253906 0.203125 C 171.230469 0.511719 172.558594 1.695312 173.503906 3.371094 C 174.679688 5.449219 175.035156 7.710938 175.027344 10.121094 C 173.390625 10.121094 171.824219 10.121094 170.195312 10.121094 C 170.128906 9.875 170.066406 9.597656 169.980469 9.324219 C 169.878906 9.015625 169.792969 8.695312 169.636719 8.417969 C 169.179688 7.621094 168.246094 7.261719 167.441406 7.53125 C 166.722656 7.777344 166.308594 8.632812 166.476562 9.574219 C 166.660156 10.585938 167.316406 11.265625 168.148438 11.773438 C 168.871094 12.21875 169.621094 12.628906 170.386719 13 C 173.382812 14.460938 174.988281 16.863281 175.324219 20.160156 C 175.632812 23.230469 175.535156 26.253906 174.277344 29.132812 C 173.0625 31.910156 170.816406 33.339844 167.863281 33.28125 C 165.964844 33.246094 164.570312 32.285156 163.492188 30.820312 C 161.753906 28.464844 161.109375 25.769531 161.105469 22.714844 C 162.671875 22.714844 164.195312 22.695312 165.71875 22.742188 C 165.878906 22.746094 166.0625 23.113281 166.175781 23.34375 C 166.5 24.011719 166.703125 24.753906 167.121094 25.351562 C 167.566406 25.984375 168.289062 26.128906 169.066406 25.902344 C 169.808594 25.691406 170.214844 25.222656 170.390625 24.480469 C 170.695312 23.203125 170.253906 22.199219 169.238281 21.476562 C 168.492188 20.949219 167.679688 20.503906 166.851562 20.125 C 163.667969 18.671875 161.957031 16.183594 161.589844 12.746094 C 161.292969 10.019531 161.296875 7.300781 162.289062 4.699219 C 163.246094 2.175781 164.867188 0.378906 167.773438 0.167969 C 167.84375 0.164062 167.910156 0.0585938 167.976562 0 C 168.238281 0 168.503906 0 168.765625 0 "/>
<path style=" stroke:none;fill-rule:nonzero;fill:rgb(20.144653%,20.471191%,57.743835%);fill-opacity:1;" d="M 112.050781 0 C 112.4375 0.101562 112.828125 0.203125 113.21875 0.300781 C 115.652344 0.917969 117.125 2.617188 118.105469 4.789062 C 119.273438 7.375 119.597656 10.121094 119.535156 12.988281 C 117.902344 12.988281 116.3125 12.988281 114.667969 12.988281 C 114.59375 12.378906 114.542969 11.761719 114.429688 11.160156 C 114.335938 10.648438 114.214844 10.128906 114.015625 9.652344 C 113.617188 8.703125 113.015625 7.894531 111.875 7.898438 C 110.777344 7.902344 110.203125 8.765625 109.988281 9.644531 C 109.574219 11.351562 109.15625 13.101562 109.117188 14.84375 C 109.0625 17.453125 109.296875 20.070312 109.5 22.675781 C 109.546875 23.296875 109.871094 23.941406 110.214844 24.484375 C 111.144531 25.957031 112.894531 25.949219 113.667969 24.398438 C 114.140625 23.457031 114.285156 22.347656 114.550781 21.308594 C 114.628906 21 114.609375 20.667969 114.644531 20.292969 C 116.304688 20.292969 117.933594 20.292969 119.773438 20.292969 C 119.621094 21.785156 119.539062 23.273438 119.308594 24.738281 C 118.925781 27.171875 118.082031 29.429688 116.398438 31.292969 C 114.050781 33.898438 110.328125 34.011719 107.851562 31.523438 C 105.925781 29.589844 105.023438 27.125 104.515625 24.523438 C 103.390625 18.71875 103.359375 12.925781 104.988281 7.195312 C 105.296875 6.105469 105.792969 5.050781 106.300781 4.03125 C 107.339844 1.953125 108.945312 0.527344 111.261719 0 C 111.523438 0 111.789062 0 112.050781 0 "/>
<path style=" stroke:none;fill-rule:nonzero;fill:rgb(20.144653%,20.471191%,57.743835%);fill-opacity:1;" d="M 0 39.976562 C 0.132812 39.5625 0.261719 39.144531 0.402344 38.730469 C 0.972656 37.042969 2.371094 36.128906 4.285156 36.191406 C 6.015625 36.242188 7.167969 37.039062 7.570312 38.472656 C 7.59375 38.558594 7.574219 38.65625 7.574219 38.761719 C 6.945312 38.933594 6.550781 38.867188 6.152344 38.195312 C 5.21875 36.628906 2.582031 36.945312 1.765625 38.667969 C 1.199219 39.871094 1.269531 41.101562 1.804688 42.285156 C 2.246094 43.261719 3.113281 43.59375 4.144531 43.585938 C 5.171875 43.578125 5.957031 43.128906 6.28125 42.164062 C 6.535156 41.421875 6.929688 41.273438 7.679688 41.523438 C 7.558594 42.660156 7.039062 43.539062 6.042969 44.121094 C 3.609375 45.535156 0.714844 44.199219 0.21875 41.449219 C 0.175781 41.214844 0.0742188 40.992188 0 40.765625 C 0 40.503906 0 40.238281 0 39.976562 "/>
<path style=" stroke:none;fill-rule:nonzero;fill:rgb(20.144653%,20.471191%,57.743835%);fill-opacity:1;" d="M 63.828125 20.6875 C 62.75 20.6875 61.773438 20.6875 60.738281 20.6875 C 60.738281 18.636719 60.738281 16.652344 60.738281 14.597656 C 63.480469 14.597656 66.21875 14.597656 69.097656 14.597656 C 69.097656 14.894531 69.097656 15.207031 69.097656 15.523438 C 69.097656 20.347656 69.078125 25.171875 69.117188 29.996094 C 69.125 30.902344 68.820312 31.390625 67.964844 31.660156 C 65.828125 32.335938 63.683594 32.789062 61.410156 32.714844 C 57.890625 32.597656 55.46875 30.925781 53.976562 27.8125 C 52.796875 25.351562 52.34375 22.707031 52.085938 20.023438 C 51.679688 15.785156 51.640625 11.578125 53.175781 7.503906 C 53.925781 5.515625 54.925781 3.707031 56.574219 2.296875 C 59.519531 -0.226562 66.449219 0.398438 68.226562 5.390625 C 68.839844 7.109375 69.25 9.726562 68.984375 11.308594 C 67.304688 11.308594 65.613281 11.308594 63.910156 11.308594 C 63.808594 10.71875 63.742188 10.171875 63.613281 9.636719 C 63.34375 8.484375 62.65625 7.707031 61.460938 7.488281 C 60.277344 7.273438 59.53125 7.945312 58.949219 8.839844 C 57.988281 10.316406 57.589844 11.988281 57.636719 13.707031 C 57.703125 16.351562 57.816406 19.003906 58.132812 21.628906 C 58.257812 22.675781 58.921875 23.683594 59.449219 24.652344 C 60.207031 26.050781 61.5 26.25 62.933594 25.988281 C 63.503906 25.886719 63.863281 25.648438 63.839844 24.953125 C 63.792969 23.574219 63.828125 22.199219 63.828125 20.6875 "/>
<path style=" stroke:none;fill-rule:nonzero;fill:rgb(20.144653%,20.471191%,57.743835%);fill-opacity:1;" d="M 33.679688 8.398438 C 33.679688 10.511719 33.679688 12.511719 33.679688 14.585938 C 35.097656 14.449219 36.714844 15.046875 37.570312 13.535156 C 38.351562 12.152344 38.253906 10.566406 37.402344 9.226562 C 36.496094 7.804688 34.980469 8.597656 33.679688 8.398438 Z M 33.65625 32.425781 C 31.816406 32.425781 30.152344 32.425781 28.4375 32.425781 C 28.4375 21.964844 28.4375 11.546875 28.4375 0.984375 C 28.96875 0.984375 29.511719 0.976562 30.050781 0.988281 C 32.609375 1.03125 35.171875 0.960938 37.714844 1.164062 C 40.183594 1.363281 41.679688 2.933594 42.285156 5.277344 C 43.085938 8.378906 43.117188 11.519531 42.246094 14.601562 C 41.929688 15.714844 41.164062 16.703125 40.550781 17.847656 C 42.355469 19.042969 42.664062 21.167969 42.734375 23.382812 C 42.792969 25.246094 42.773438 27.117188 42.890625 28.980469 C 42.941406 29.859375 43.242188 30.722656 43.402344 31.59375 C 43.449219 31.839844 43.410156 32.101562 43.410156 32.414062 C 41.652344 32.414062 39.925781 32.414062 38.074219 32.414062 C 37.992188 30.917969 37.90625 29.425781 37.835938 27.929688 C 37.773438 26.621094 37.804688 25.304688 37.652344 24.007812 C 37.421875 21.996094 36.804688 21.515625 34.75 21.515625 C 34.425781 21.515625 34.101562 21.515625 33.65625 21.515625 C 33.65625 25.15625 33.65625 28.742188 33.65625 32.425781 "/>
<path style=" stroke:none;fill-rule:nonzero;fill:rgb(20.144653%,20.471191%,57.743835%);fill-opacity:1;" d="M 150.414062 14.597656 C 151.777344 14.445312 153.273438 14.992188 154.3125 13.65625 C 155.0625 12.691406 154.945312 10.136719 154.160156 9.15625 C 153.117188 7.851562 151.707031 8.609375 150.414062 8.382812 C 150.414062 10.519531 150.414062 12.480469 150.414062 14.597656 Z M 157.277344 17.8125 C 159.132812 19.046875 159.445312 21.171875 159.511719 23.382812 C 159.574219 25.378906 159.5625 27.382812 159.664062 29.375 C 159.703125 30.09375 159.984375 30.796875 160.140625 31.511719 C 160.199219 31.785156 160.210938 32.070312 160.25 32.414062 C 158.425781 32.414062 156.703125 32.414062 154.847656 32.414062 C 154.765625 30.851562 154.683594 29.292969 154.609375 27.730469 C 154.550781 26.488281 154.585938 25.238281 154.429688 24.007812 C 154.175781 21.976562 153.578125 21.515625 151.527344 21.515625 C 151.203125 21.515625 150.878906 21.515625 150.4375 21.515625 C 150.4375 25.15625 150.4375 28.742188 150.4375 32.398438 C 148.636719 32.398438 146.953125 32.398438 145.214844 32.398438 C 145.214844 21.964844 145.214844 11.550781 145.214844 1.066406 C 145.410156 1.039062 145.625 0.984375 145.839844 0.988281 C 148.789062 1.042969 151.742188 0.984375 154.679688 1.207031 C 156.878906 1.375 158.3125 2.789062 158.929688 4.898438 C 159.921875 8.28125 159.929688 11.699219 158.871094 15.058594 C 158.570312 16.015625 157.855469 16.839844 157.277344 17.8125 "/>
<g clip-path="url(#clip1)" clip-rule="nonzero">
<path style=" stroke:none;fill-rule:nonzero;fill:rgb(92.948914%,15.188599%,14.428711%);fill-opacity:1;" d="M 79.617188 42.421875 C 80.078125 43.339844 80.511719 44.195312 80.964844 45.089844 C 80.03125 45.550781 79.1875 45.964844 78.28125 46.410156 C 78.742188 47.328125 79.160156 48.167969 79.585938 49.019531 C 80.503906 48.5625 81.34375 48.140625 82.230469 47.695312 C 82.734375 48.601562 83.222656 49.476562 83.722656 50.375 C 84.582031 49.914062 85.347656 49.503906 86.160156 49.070312 C 85.738281 48.164062 85.359375 47.347656 84.953125 46.46875 C 85.832031 45.992188 86.65625 45.542969 87.535156 45.0625 C 87.078125 44.160156 86.660156 43.335938 86.242188 42.519531 C 85.304688 42.964844 84.480469 43.355469 83.628906 43.761719 C 83.164062 42.863281 82.734375 42.027344 82.285156 41.15625 C 81.367188 41.589844 80.519531 41.992188 79.617188 42.421875 Z M 102 32.503906 C 103.503906 33.355469 105.007812 34.207031 106.648438 35.140625 C 100.21875 45.011719 90.492188 50.148438 79.90625 54.308594 C 77.929688 50.164062 75.996094 46.101562 74.015625 41.945312 C 82.46875 39.730469 89.796875 35.683594 95.675781 29.210938 C 96.023438 29.34375 96.320312 29.460938 96.621094 29.578125 C 98.414062 30.554688 100.207031 31.53125 102 32.503906 "/>
</g>
<path style=" stroke:none;fill-rule:nonzero;fill:rgb(20.144653%,20.471191%,57.743835%);fill-opacity:1;" d="M 141.914062 12.773438 C 141.914062 15.339844 141.914062 17.722656 141.914062 20.191406 C 139.78125 20.191406 137.695312 20.191406 135.546875 20.191406 C 135.546875 21.824219 135.546875 23.382812 135.546875 25.027344 C 138.140625 25.027344 140.714844 25.027344 143.351562 25.027344 C 143.351562 27.527344 143.351562 29.941406 143.351562 32.410156 C 139.019531 32.410156 134.699219 32.410156 130.308594 32.410156 C 130.308594 21.976562 130.308594 11.535156 130.308594 1.039062 C 134.5625 1.039062 138.804688 1.039062 143.097656 1.039062 C 143.097656 3.464844 143.097656 5.847656 143.097656 8.351562 C 140.597656 8.351562 138.097656 8.351562 135.539062 8.351562 C 135.539062 9.871094 135.539062 11.269531 135.539062 12.773438 C 137.632812 12.773438 139.742188 12.773438 141.914062 12.773438 "/>
<path style=" stroke:none;fill-rule:nonzero;fill:rgb(20.144653%,20.471191%,57.743835%);fill-opacity:1;" d="M 8.96875 11.554688 C 8.890625 11.550781 8.816406 11.546875 8.742188 11.542969 C 8.265625 14.894531 7.792969 18.242188 7.3125 21.640625 C 8.375 21.640625 9.378906 21.640625 10.464844 21.640625 C 9.960938 18.238281 9.464844 14.894531 8.96875 11.554688 Z M 17.183594 32.429688 C 15.390625 32.429688 13.726562 32.429688 11.988281 32.429688 C 11.78125 31.101562 11.574219 29.78125 11.359375 28.398438 C 9.699219 28.398438 8.039062 28.398438 6.316406 28.398438 C 6.121094 29.714844 5.921875 31.035156 5.71875 32.40625 C 4.027344 32.40625 2.371094 32.40625 0.628906 32.40625 C 2.496094 21.949219 4.355469 11.515625 6.21875 1.039062 C 7.992188 1.039062 9.71875 1.039062 11.554688 1.039062 C 13.425781 11.46875 15.296875 21.917969 17.183594 32.429688 "/>
<path style=" stroke:none;fill-rule:nonzero;fill:rgb(20.144653%,20.471191%,57.743835%);fill-opacity:1;" d="M 95.542969 21.640625 C 95.023438 18.160156 94.519531 14.796875 94.019531 11.433594 C 93.957031 11.4375 93.890625 11.441406 93.828125 11.445312 C 93.347656 14.828125 92.871094 18.207031 92.382812 21.640625 C 93.441406 21.640625 94.441406 21.640625 95.542969 21.640625 Z M 102 32.503906 C 100.207031 31.53125 98.414062 30.554688 96.621094 29.578125 C 96.558594 29.199219 96.492188 28.816406 96.421875 28.386719 C 94.765625 28.386719 93.136719 28.386719 91.398438 28.386719 C 91.195312 29.703125 90.992188 31.046875 90.78125 32.425781 C 89.078125 32.425781 87.417969 32.425781 85.703125 32.425781 C 87.570312 21.9375 89.429688 11.503906 91.292969 1.035156 C 93.078125 1.035156 94.804688 1.035156 96.617188 1.035156 C 97.164062 4.039062 97.710938 7.054688 98.253906 10.074219 C 99.539062 17.222656 100.820312 24.375 102.089844 31.527344 C 102.144531 31.839844 102.03125 32.179688 102 32.503906 "/>
<path style=" stroke:none;fill-rule:nonzero;fill:rgb(20.144653%,20.471191%,57.743835%);fill-opacity:1;" d="M 71.789062 32.390625 C 71.789062 21.921875 71.789062 11.507812 71.789062 1.039062 C 73.519531 1.039062 75.203125 1.039062 76.976562 1.039062 C 76.976562 9.035156 76.976562 16.984375 76.976562 25.011719 C 79.347656 25.011719 81.628906 25.011719 83.988281 25.011719 C 83.988281 27.492188 83.988281 29.902344 83.988281 32.390625 C 79.976562 32.390625 75.933594 32.390625 71.789062 32.390625 "/>
<path style=" stroke:none;fill-rule:nonzero;fill:rgb(20.144653%,20.471191%,57.743835%);fill-opacity:1;" d="M 25.589844 32.417969 C 23.898438 32.417969 22.242188 32.417969 20.535156 32.417969 C 20.535156 21.953125 20.535156 11.515625 20.535156 1.03125 C 22.21875 1.03125 23.875 1.03125 25.589844 1.03125 C 25.589844 11.492188 25.589844 21.929688 25.589844 32.417969 "/>
<path style=" stroke:none;fill-rule:nonzero;fill:rgb(20.144653%,20.471191%,57.743835%);fill-opacity:1;" d="M 127.941406 32.433594 C 126.226562 32.433594 124.597656 32.433594 122.898438 32.433594 C 122.898438 21.957031 122.898438 11.523438 122.898438 1.035156 C 124.570312 1.035156 126.226562 1.035156 127.941406 1.035156 C 127.941406 11.480469 127.941406 21.917969 127.941406 32.433594 "/>
<path style=" stroke:none;fill-rule:nonzero;fill:rgb(20.144653%,20.471191%,57.743835%);fill-opacity:1;" d="M 43.785156 20.949219 C 43.785156 18.878906 43.785156 16.863281 43.785156 14.785156 C 46.253906 14.785156 48.6875 14.785156 51.1875 14.785156 C 51.1875 16.832031 51.1875 18.871094 51.1875 20.949219 C 48.703125 20.949219 46.265625 20.949219 43.785156 20.949219 "/>
<path style=" stroke:none;fill-rule:nonzero;fill:rgb(20.144653%,20.471191%,57.743835%);fill-opacity:1;" d="M 26.28125 36.492188 C 26.28125 39.089844 26.28125 41.699219 26.28125 44.375 C 25.898438 44.375 25.554688 44.375 25.125 44.375 C 25.125 42.464844 25.125 40.558594 25.125 38.648438 C 25.050781 38.632812 24.980469 38.621094 24.910156 38.605469 C 24.582031 39.503906 24.25 40.402344 23.925781 41.300781 C 23.636719 42.101562 23.398438 42.925781 23.042969 43.695312 C 22.902344 44.003906 22.515625 44.386719 22.234375 44.390625 C 21.949219 44.394531 21.511719 44.03125 21.394531 43.730469 C 20.710938 41.96875 20.101562 40.175781 19.324219 38.402344 C 19.324219 40.382812 19.324219 42.367188 19.324219 44.394531 C 18.894531 44.394531 18.582031 44.394531 18.203125 44.394531 C 18.203125 41.753906 18.203125 39.144531 18.203125 36.527344 C 19.636719 36.125 19.773438 36.199219 20.273438 37.601562 C 20.886719 39.316406 21.507812 41.027344 22.230469 43.03125 C 22.707031 41.695312 23.09375 40.601562 23.484375 39.511719 C 23.714844 38.867188 23.953125 38.222656 24.1875 37.574219 C 24.675781 36.210938 24.671875 36.210938 26.28125 36.492188 "/>
<path style=" stroke:none;fill-rule:nonzero;fill:rgb(20.144653%,20.471191%,57.743835%);fill-opacity:1;" d="M 168.667969 35.761719 C 169.652344 35.46875 170.285156 35.742188 170.835938 36.65625 C 171.992188 38.578125 173.285156 40.421875 174.703125 42.261719 C 174.703125 40.101562 174.703125 37.941406 174.703125 35.726562 C 175.199219 35.726562 175.574219 35.726562 176 35.726562 C 176 38.613281 176 41.484375 176 44.414062 C 175.105469 44.617188 174.460938 44.484375 173.910156 43.578125 C 172.726562 41.621094 171.398438 39.75 169.984375 37.621094 C 169.984375 40.015625 169.984375 42.175781 169.984375 44.40625 C 169.496094 44.40625 169.121094 44.40625 168.667969 44.40625 C 168.667969 41.550781 168.667969 38.660156 168.667969 35.761719 "/>
<path style=" stroke:none;fill-rule:nonzero;fill:rgb(20.144653%,20.471191%,57.743835%);fill-opacity:1;" d="M 109.277344 43.398438 C 110.882812 43.214844 112.679688 44.007812 113.707031 42.199219 C 114.519531 40.769531 114.5625 39.195312 113.640625 37.8125 C 112.558594 36.191406 110.828125 36.910156 109.277344 36.765625 C 109.277344 39 109.277344 41.117188 109.277344 43.398438 Z M 107.90625 44.484375 C 107.90625 41.539062 107.90625 38.671875 107.90625 35.730469 C 109.476562 35.730469 111.054688 35.550781 112.574219 35.773438 C 114.828125 36.105469 116.019531 38.40625 115.53125 41.054688 C 115.109375 43.359375 113.75 44.480469 111.375 44.484375 C 110.234375 44.484375 109.09375 44.484375 107.90625 44.484375 "/>
<path style=" stroke:none;fill-rule:nonzero;fill:rgb(20.144653%,20.471191%,57.743835%);fill-opacity:1;" d="M 159.445312 40.058594 C 159.441406 42.171875 160.660156 43.554688 162.554688 43.582031 C 164.503906 43.609375 165.804688 42.214844 165.8125 40.09375 C 165.816406 38.003906 164.566406 36.59375 162.6875 36.570312 C 160.730469 36.542969 159.453125 37.917969 159.445312 40.058594 Z M 162.648438 44.703125 C 159.832031 44.707031 158.085938 42.9375 158.082031 40.078125 C 158.082031 37.226562 159.839844 35.445312 162.648438 35.445312 C 165.375 35.453125 167.167969 37.261719 167.1875 40.027344 C 167.210938 42.851562 165.414062 44.699219 162.648438 44.703125 "/>
<path style=" stroke:none;fill-rule:nonzero;fill:rgb(20.144653%,20.471191%,57.743835%);fill-opacity:1;" d="M 45.621094 41.109375 C 45.621094 40.742188 45.621094 40.472656 45.621094 40.164062 C 46.863281 40.164062 48.0625 40.164062 49.367188 40.164062 C 49.367188 41.382812 49.382812 42.550781 49.351562 43.722656 C 49.34375 43.960938 49.152344 44.195312 49.046875 44.433594 C 48.832031 44.253906 48.613281 44.078125 48.402344 43.894531 C 48.328125 43.832031 48.273438 43.753906 48.210938 43.683594 C 46.109375 44.925781 44.292969 44.957031 42.941406 43.78125 C 41.53125 42.554688 41.117188 40.320312 41.957031 38.449219 C 42.683594 36.824219 44.207031 36.015625 46.140625 36.226562 C 47.8125 36.410156 48.851562 37.292969 49.222656 39.128906 C 48.652344 38.851562 48.085938 38.761719 47.894531 38.449219 C 47.277344 37.421875 46.363281 37.160156 45.300781 37.234375 C 44.226562 37.3125 43.472656 37.910156 43.09375 38.917969 C 42.671875 40.039062 42.699219 41.175781 43.183594 42.261719 C 43.695312 43.414062 45.019531 43.894531 46.457031 43.527344 C 47.546875 43.25 48.121094 42.4375 48.097656 41.109375 C 47.296875 41.109375 46.492188 41.109375 45.621094 41.109375 "/>
<path style=" stroke:none;fill-rule:nonzero;fill:rgb(20.144653%,20.471191%,57.743835%);fill-opacity:1;" d="M 56.613281 42.605469 C 56.613281 40.382812 56.613281 38.441406 56.613281 36.441406 C 57.054688 36.441406 57.394531 36.441406 57.78125 36.441406 C 57.78125 39.078125 57.78125 41.6875 57.78125 44.332031 C 56.953125 44.613281 56.398438 44.421875 55.910156 43.640625 C 54.777344 41.820312 53.550781 40.0625 52.183594 38.328125 C 52.183594 40.335938 52.183594 42.34375 52.183594 44.394531 C 51.777344 44.394531 51.464844 44.394531 51.089844 44.394531 C 51.089844 41.75 51.089844 39.140625 51.089844 36.476562 C 51.875 36.238281 52.496094 36.308594 53.003906 37.171875 C 53.882812 38.664062 54.882812 40.085938 55.839844 41.535156 C 56.027344 41.824219 56.238281 42.09375 56.613281 42.605469 "/>
<path style=" stroke:none;fill-rule:nonzero;fill:rgb(20.144653%,20.471191%,57.743835%);fill-opacity:1;" d="M 69.074219 36.433594 C 69.074219 36.785156 69.074219 37.070312 69.074219 37.417969 C 67.4375 37.417969 65.84375 37.417969 64.191406 37.417969 C 64.191406 38.222656 64.191406 38.953125 64.191406 39.757812 C 65.683594 39.757812 67.144531 39.757812 68.667969 39.757812 C 68.667969 40.136719 68.667969 40.445312 68.667969 40.828125 C 67.191406 40.828125 65.726562 40.828125 64.199219 40.828125 C 64.199219 41.675781 64.199219 42.449219 64.199219 43.347656 C 65.824219 43.347656 67.472656 43.347656 69.1875 43.347656 C 69.214844 43.746094 69.230469 44.019531 69.246094 44.257812 C 69.128906 44.339844 69.078125 44.410156 69.027344 44.410156 C 67.03125 44.414062 65.039062 44.414062 62.964844 44.414062 C 62.964844 41.753906 62.964844 39.121094 62.964844 36.433594 C 64.976562 36.433594 66.996094 36.433594 69.074219 36.433594 "/>
<path style=" stroke:none;fill-rule:nonzero;fill:rgb(20.144653%,20.471191%,57.743835%);fill-opacity:1;" d="M 15.617188 40.390625 C 15.613281 38.488281 14.484375 37.230469 12.769531 37.21875 C 11.007812 37.207031 9.84375 38.484375 9.847656 40.425781 C 9.851562 42.324219 10.976562 43.570312 12.707031 43.582031 C 14.492188 43.597656 15.628906 42.355469 15.617188 40.390625 Z M 8.617188 40.402344 C 8.613281 37.820312 10.222656 36.179688 12.75 36.1875 C 15.261719 36.195312 16.910156 37.871094 16.910156 40.414062 C 16.914062 42.917969 15.203125 44.648438 12.730469 44.640625 C 10.199219 44.632812 8.621094 43.007812 8.617188 40.402344 "/>
<path style=" stroke:none;fill-rule:nonzero;fill:rgb(20.144653%,20.471191%,57.743835%);fill-opacity:1;" d="M 124.691406 40.734375 C 124.261719 39.539062 123.855469 38.410156 123.390625 37.121094 C 122.890625 38.421875 122.464844 39.535156 122.007812 40.734375 C 122.945312 40.734375 123.769531 40.734375 124.691406 40.734375 Z M 127.535156 44.363281 C 126.410156 44.78125 125.925781 44.300781 125.691406 43.359375 C 125.574219 42.886719 125.371094 42.441406 125.203125 41.972656 C 123.992188 41.972656 122.816406 41.972656 121.5625 41.972656 C 121.371094 42.453125 121.097656 42.941406 120.980469 43.464844 C 120.765625 44.402344 120.246094 44.691406 119.261719 44.378906 C 119.464844 43.84375 119.664062 43.304688 119.875 42.769531 C 120.742188 40.585938 121.597656 38.398438 122.511719 36.238281 C 122.621094 35.976562 123.054688 35.710938 123.34375 35.703125 C 123.683594 35.695312 124.246094 35.878906 124.34375 36.128906 C 125.445312 38.84375 126.472656 41.59375 127.535156 44.363281 "/>
<path style=" stroke:none;fill-rule:nonzero;fill:rgb(20.144653%,20.471191%,57.743835%);fill-opacity:1;" d="M 141.953125 40.714844 C 142.882812 40.714844 143.707031 40.714844 144.632812 40.714844 C 144.207031 39.53125 143.816406 38.453125 143.34375 37.132812 C 142.824219 38.464844 142.40625 39.542969 141.953125 40.714844 Z M 147.480469 44.375 C 146.394531 44.746094 145.816406 44.363281 145.652344 43.320312 C 145.476562 42.179688 144.84375 41.855469 143.695312 41.914062 C 141.578125 42.023438 141.539062 41.933594 140.777344 43.890625 C 140.4375 44.769531 139.839844 44.4375 139.152344 44.445312 C 140.296875 41.578125 141.390625 38.785156 142.550781 36.023438 C 142.640625 35.808594 143.1875 35.699219 143.523438 35.695312 C 143.78125 35.691406 144.203125 35.867188 144.28125 36.070312 C 145.378906 38.828125 146.421875 41.601562 147.480469 44.375 "/>
<path style=" stroke:none;fill-rule:nonzero;fill:rgb(20.144653%,20.471191%,57.743835%);fill-opacity:1;" d="M 29.359375 40.023438 C 30.28125 40.023438 31.097656 40.039062 31.914062 40.019531 C 32.753906 40.003906 33.1875 39.503906 33.199219 38.710938 C 33.210938 37.886719 32.703125 37.449219 31.902344 37.414062 C 31.066406 37.378906 30.222656 37.40625 29.359375 37.40625 C 29.359375 38.316406 29.359375 39.121094 29.359375 40.023438 Z M 29.316406 41.171875 C 29.316406 42.253906 29.316406 43.289062 29.316406 44.382812 C 28.894531 44.382812 28.550781 44.382812 28.15625 44.382812 C 28.15625 41.730469 28.15625 39.097656 28.15625 36.449219 C 29.65625 36.449219 31.121094 36.378906 32.578125 36.472656 C 33.660156 36.539062 34.402344 37.457031 34.460938 38.523438 C 34.523438 39.730469 33.886719 40.753906 32.765625 40.9375 C 31.679688 41.113281 30.5625 41.097656 29.316406 41.171875 "/>
<path style=" stroke:none;fill-rule:nonzero;fill:rgb(20.144653%,20.471191%,57.743835%);fill-opacity:1;" d="M 127.023438 35.765625 C 128.105469 35.429688 128.613281 35.789062 128.929688 36.820312 C 129.539062 38.816406 130.296875 40.769531 131.078125 42.980469 C 131.285156 42.480469 131.425781 42.183594 131.535156 41.875 C 132.132812 40.175781 132.800781 38.5 133.292969 36.773438 C 133.585938 35.75 134.085938 35.445312 135.152344 35.777344 C 135.011719 36.15625 134.871094 36.542969 134.722656 36.929688 C 133.84375 39.21875 132.953125 41.507812 132.089844 43.804688 C 131.90625 44.296875 131.664062 44.511719 131.097656 44.507812 C 130.53125 44.503906 130.3125 44.292969 130.125 43.792969 C 129.113281 41.105469 128.058594 38.433594 127.023438 35.765625 "/>
<path style=" stroke:none;fill-rule:nonzero;fill:rgb(20.144653%,20.471191%,57.743835%);fill-opacity:1;" d="M 38.671875 41.085938 C 38.269531 39.957031 37.910156 38.957031 37.46875 37.71875 C 36.980469 39.007812 36.601562 40.015625 36.199219 41.085938 C 37.070312 41.085938 37.785156 41.085938 38.671875 41.085938 Z M 41.203125 44.355469 C 39.171875 44.828125 39.816406 42.867188 38.945312 42.121094 C 38.742188 42.121094 38.378906 42.164062 38.03125 42.113281 C 36.511719 41.878906 35.382812 42.175781 35.039062 43.941406 C 34.984375 44.222656 34.296875 44.382812 33.902344 44.601562 C 33.832031 44.515625 33.761719 44.425781 33.691406 44.339844 C 34.152344 43.167969 34.609375 41.996094 35.078125 40.824219 C 35.570312 39.578125 36.089844 38.339844 36.5625 37.085938 C 36.742188 36.605469 36.945312 36.351562 37.527344 36.347656 C 38.121094 36.34375 38.308594 36.613281 38.488281 37.089844 C 39.296875 39.265625 40.140625 41.429688 40.96875 43.597656 C 41.054688 43.832031 41.117188 44.078125 41.203125 44.355469 "/>
<path style=" stroke:none;fill-rule:nonzero;fill:rgb(20.144653%,20.471191%,57.743835%);fill-opacity:1;" d="M 146.308594 36.867188 C 146.308594 36.386719 146.308594 36.074219 146.308594 35.714844 C 148.800781 35.714844 151.242188 35.714844 153.769531 35.714844 C 153.769531 36.027344 153.769531 36.359375 153.769531 36.800781 C 152.773438 36.800781 151.777344 36.800781 150.714844 36.800781 C 150.714844 39.382812 150.714844 41.863281 150.714844 44.414062 C 150.246094 44.414062 149.847656 44.414062 149.371094 44.414062 C 149.371094 41.925781 149.371094 39.445312 149.371094 36.867188 C 148.339844 36.867188 147.375 36.867188 146.308594 36.867188 "/>
<path style=" stroke:none;fill-rule:nonzero;fill:rgb(20.144653%,20.471191%,57.743835%);fill-opacity:1;" d="M 155.160156 35.714844 C 155.625 35.714844 156.007812 35.714844 156.441406 35.714844 C 156.441406 38.625 156.441406 41.484375 156.441406 44.417969 C 156.015625 44.417969 155.609375 44.417969 155.160156 44.417969 C 155.160156 41.535156 155.160156 38.664062 155.160156 35.714844 "/>
<path style=" stroke:none;fill-rule:nonzero;fill:rgb(20.144653%,20.471191%,57.743835%);fill-opacity:1;" d="M 137.828125 44.457031 C 137.40625 44.457031 137.050781 44.457031 136.613281 44.457031 C 136.613281 41.550781 136.613281 38.667969 136.613281 35.726562 C 136.996094 35.726562 137.375 35.726562 137.828125 35.726562 C 137.828125 38.601562 137.828125 41.488281 137.828125 44.457031 "/>
<path style=" stroke:none;fill-rule:nonzero;fill:rgb(20.144653%,20.471191%,57.743835%);fill-opacity:1;" d="M 60.847656 44.398438 C 60.457031 44.398438 60.144531 44.398438 59.761719 44.398438 C 59.761719 41.746094 59.761719 39.121094 59.761719 36.441406 C 60.121094 36.441406 60.460938 36.441406 60.847656 36.441406 C 60.847656 39.082031 60.847656 41.6875 60.847656 44.398438 "/>
<path style=" stroke:none;fill-rule:nonzero;fill:rgb(20.144653%,20.471191%,57.743835%);fill-opacity:1;" d="M 116.699219 38.832031 C 117.074219 38.175781 117.34375 37.710938 117.609375 37.246094 C 117.507812 37.257812 117.402344 37.265625 117.300781 37.277344 C 117.101562 36.820312 116.902344 36.359375 116.636719 35.742188 C 117.324219 35.742188 117.753906 35.742188 118.179688 35.742188 C 118.5 37.585938 118.171875 38.390625 116.699219 38.832031 "/>
</g>
</svg>
