<?xml version="1.0" encoding="UTF-8"?>
<svg xmlns="http://www.w3.org/2000/svg" xmlns:xlink="http://www.w3.org/1999/xlink" width="176pt" height="38.17pt" viewBox="0 0 176 38.17" version="1.1">
<defs>
<clipPath id="clip1">
  <path d="M 111 27 L 120 27 L 120 38.171875 L 111 38.171875 Z M 111 27 "/>
</clipPath>
</defs>
<g id="surface1">
<path style=" stroke:none;fill-rule:nonzero;fill:rgb(89.685059%,12.950134%,14.137268%);fill-opacity:1;" d="M 131.507812 9.890625 C 131.261719 9.890625 130.960938 10.039062 130.8125 10.285156 C 130.617188 10.582031 130.417969 10.929688 130.171875 11.226562 C 129.578125 12.117188 128.984375 12.957031 128.390625 13.796875 C 128.242188 13.996094 128.242188 14.242188 128.34375 14.4375 C 128.835938 15.082031 129.332031 15.773438 129.875 16.464844 C 130.074219 16.714844 130.269531 17.011719 130.46875 17.257812 C 130.617188 17.457031 130.910156 17.503906 131.210938 17.40625 C 135.5625 15.578125 139.269531 13.5 139.21875 11.96875 C 139.167969 10.484375 135.5625 9.941406 131.507812 9.890625 "/>
<path style=" stroke:none;fill-rule:nonzero;fill:rgb(89.685059%,12.950134%,14.137268%);fill-opacity:1;" d="M 116.476562 6.183594 C 116.675781 6.234375 116.871094 6.332031 117.117188 6.382812 C 117.714844 6.578125 118.304688 6.824219 118.851562 7.023438 C 118.996094 7.074219 119.195312 7.023438 119.394531 6.875 C 120.085938 6.332031 120.828125 5.738281 121.566406 5.144531 C 121.863281 4.945312 122.113281 4.699219 122.410156 4.503906 C 122.605469 4.355469 122.707031 4.105469 122.707031 3.957031 C 122.160156 1.4375 121.371094 -0.34375 120.234375 0.0546875 C 119.097656 0.398438 117.714844 2.820312 116.425781 5.738281 C 116.230469 5.9375 116.277344 6.132812 116.476562 6.183594 "/>
<path style=" stroke:none;fill-rule:nonzero;fill:rgb(89.685059%,12.950134%,14.137268%);fill-opacity:1;" d="M 106.242188 21.410156 C 106.441406 21.113281 106.640625 20.867188 106.835938 20.570312 C 107.382812 19.777344 107.925781 19.035156 108.46875 18.296875 C 108.617188 18.097656 108.664062 17.898438 108.566406 17.75 C 108.320312 17.207031 108.074219 16.613281 107.824219 16.019531 C 107.726562 15.824219 107.679688 15.578125 107.578125 15.378906 C 107.527344 15.230469 107.332031 15.179688 107.132812 15.28125 C 104.265625 16.714844 101.894531 18.195312 101.597656 19.382812 C 101.25 20.621094 103.078125 21.3125 105.601562 21.757812 C 105.847656 21.757812 106.097656 21.65625 106.242188 21.410156 "/>
<g clip-path="url(#clip1)" clip-rule="nonzero">
<path style=" stroke:none;fill-rule:nonzero;fill:rgb(89.685059%,12.950134%,14.137268%);fill-opacity:1;" d="M 119.296875 29.074219 C 118.996094 28.875 118.75 28.726562 118.453125 28.53125 C 117.714844 28.035156 117.019531 27.539062 116.378906 27.09375 C 116.230469 26.996094 115.980469 26.996094 115.734375 27.144531 C 114.945312 27.789062 114.105469 28.429688 113.265625 29.023438 C 112.96875 29.269531 112.621094 29.46875 112.324219 29.714844 C 112.078125 29.863281 111.929688 30.160156 111.980469 30.457031 C 112.226562 34.609375 112.917969 38.21875 114.398438 38.167969 C 115.933594 38.121094 117.8125 34.3125 119.492188 29.765625 C 119.542969 29.46875 119.492188 29.171875 119.296875 29.074219 "/>
</g>
<path style=" stroke:none;fill-rule:nonzero;fill:rgb(23.013306%,57.876587%,76.615906%);fill-opacity:1;" d="M 127.601562 18.9375 C 125.179688 19.878906 123.398438 20.222656 122.953125 19.480469 C 122.558594 18.839844 123.253906 17.355469 124.585938 15.578125 C 124.785156 15.28125 126.8125 12.5625 127.601562 11.421875 C 130.914062 6.578125 134.027344 1.339844 132.644531 0.597656 C 131.457031 0.00390625 127.402344 2.671875 123.449219 5.6875 C 123.253906 5.835938 123.152344 6.085938 123.152344 6.234375 C 123.398438 7.914062 123.300781 9.347656 122.511719 9.988281 C 121.769531 10.582031 120.632812 10.386719 119.347656 9.742188 C 119.148438 9.644531 117.417969 8.851562 116.773438 8.554688 C 113.511719 7.222656 109.953125 6.132812 108.667969 7.46875 C 107.578125 8.605469 108.269531 11.226562 109.359375 13.945312 C 109.410156 14.09375 109.605469 14.144531 109.804688 14.042969 C 111.585938 13.253906 112.96875 12.855469 113.265625 13.449219 C 113.511719 13.945312 112.867188 15.132812 111.730469 16.664062 C 111.484375 16.960938 109.210938 19.976562 108.320312 21.3125 C 105.15625 25.808594 101.992188 30.753906 102.734375 32.039062 C 103.425781 33.273438 107.382812 30.851562 111.484375 27.835938 C 111.683594 27.6875 111.832031 27.390625 111.832031 27.144531 C 111.78125 24.921875 112.027344 23.238281 112.867188 22.644531 C 113.609375 22.054688 114.746094 22.449219 116.03125 23.386719 C 116.230469 23.535156 118.210938 24.921875 119.050781 25.464844 C 123.597656 28.382812 129.777344 31.644531 131.703125 29.566406 C 133.335938 27.835938 131.015625 23.140625 128.394531 18.988281 C 128.144531 18.890625 127.898438 18.839844 127.601562 18.9375 "/>
<path style=" stroke:none;fill-rule:nonzero;fill:rgb(89.685059%,12.950134%,14.137268%);fill-opacity:1;" d="M 159.933594 29.46875 L 173.230469 29.46875 L 173.824219 24.871094 L 165.472656 24.871094 C 165.371094 24.871094 165.320312 24.820312 165.269531 24.773438 C 165.222656 24.722656 165.171875 24.625 165.222656 24.523438 L 165.617188 21.359375 C 165.617188 21.210938 165.765625 21.113281 165.914062 21.113281 L 172.933594 21.113281 L 173.480469 16.8125 L 166.558594 16.8125 C 166.457031 16.8125 166.40625 16.761719 166.359375 16.714844 C 166.308594 16.664062 166.261719 16.566406 166.308594 16.464844 L 166.65625 13.597656 C 166.65625 13.449219 166.804688 13.351562 166.953125 13.351562 L 175.40625 13.351562 L 176 8.753906 L 162.699219 8.753906 L 159.933594 29.46875 "/>
<path style=" stroke:none;fill-rule:nonzero;fill:rgb(89.685059%,12.950134%,14.137268%);fill-opacity:1;" d="M 139.859375 22.792969 C 139.710938 24.476562 140.15625 26.007812 141.195312 27.144531 C 142.527344 28.628906 144.65625 29.417969 147.375 29.417969 L 147.867188 29.417969 C 152.21875 29.417969 154.890625 27.492188 155.335938 23.929688 C 155.679688 21.164062 154.148438 18.742188 151.328125 17.601562 C 150.835938 17.40625 150.191406 17.109375 149.5 16.8125 C 148.609375 16.464844 147.722656 16.070312 147.128906 15.824219 C 146.238281 15.476562 145.691406 14.933594 145.691406 14.292969 C 145.691406 13.996094 145.84375 13.648438 146.089844 13.402344 C 146.433594 13.054688 147.175781 12.660156 148.660156 12.710938 C 149.945312 12.710938 151.675781 12.957031 151.824219 14.6875 C 151.824219 14.785156 151.824219 14.933594 151.871094 15.03125 L 155.925781 15.03125 C 156.074219 13.300781 155.632812 11.820312 154.640625 10.683594 C 153.453125 9.347656 151.574219 8.65625 149.152344 8.65625 L 148.90625 8.65625 C 144.902344 8.65625 142.035156 10.582031 141.640625 13.5 C 141.292969 16.019531 142.480469 18.097656 144.855469 19.136719 C 145.398438 19.382812 145.988281 19.628906 146.585938 19.925781 C 147.671875 20.421875 148.757812 20.914062 149.746094 21.3125 C 150.488281 21.609375 150.933594 22.152344 150.984375 22.894531 C 151.03125 23.585938 150.6875 24.328125 150.144531 24.722656 C 149.402344 25.21875 148.808594 25.21875 147.722656 25.21875 C 146.832031 25.167969 146.585938 25.167969 146.335938 25.117188 L 146.238281 25.117188 C 144.804688 24.871094 144.359375 23.585938 144.308594 22.792969 L 139.859375 22.792969 "/>
<path style=" stroke:none;fill-rule:nonzero;fill:rgb(89.685059%,12.950134%,14.137268%);fill-opacity:1;" d="M 90.914062 18 L 86.910156 18 C 86.8125 18 86.761719 17.949219 86.714844 17.898438 C 86.664062 17.851562 86.613281 17.75 86.664062 17.652344 L 87.207031 13.550781 C 87.207031 13.402344 87.355469 13.300781 87.503906 13.300781 L 91.410156 13.300781 C 92.003906 13.300781 92.597656 13.550781 93.042969 14.042969 C 93.4375 14.488281 93.636719 15.132812 93.535156 15.726562 C 93.289062 17.011719 92.203125 18 90.914062 18 Z M 93.089844 21.804688 C 95.761719 21.015625 97.691406 18.742188 98.035156 16.019531 C 98.230469 14.242188 97.691406 12.460938 96.453125 11.078125 C 95.117188 9.59375 93.238281 8.703125 91.214844 8.703125 L 83.15625 8.703125 L 80.484375 29.417969 L 85.082031 29.417969 L 85.972656 22.347656 C 85.972656 22.199219 86.121094 22.101562 86.269531 22.101562 L 87.800781 22.101562 C 87.902344 22.101562 88 22.152344 88.046875 22.25 L 91.214844 29.417969 L 96.007812 29.417969 L 92.84375 22.152344 C 92.792969 22.054688 92.792969 22.003906 92.84375 21.90625 C 92.945312 21.90625 92.992188 21.804688 93.089844 21.804688 "/>
<path style=" stroke:none;fill-rule:nonzero;fill:rgb(89.685059%,12.950134%,14.137268%);fill-opacity:1;" d="M 26.351562 29.46875 L 30.949219 29.46875 L 33.617188 8.703125 L 29.019531 8.703125 L 26.351562 29.46875 "/>
<path style=" stroke:none;fill-rule:nonzero;fill:rgb(89.685059%,12.950134%,14.137268%);fill-opacity:1;" d="M 71.980469 17.011719 L 71.4375 21.261719 C 71.191406 23.289062 69.460938 24.820312 67.382812 24.820312 L 64.8125 24.820312 C 64.714844 24.820312 64.664062 24.773438 64.613281 24.722656 C 64.566406 24.671875 64.515625 24.574219 64.566406 24.476562 L 65.949219 13.550781 C 65.949219 13.402344 66.097656 13.300781 66.246094 13.300781 L 68.769531 13.300781 C 69.707031 13.300781 70.597656 13.699219 71.238281 14.390625 C 71.832031 15.132812 72.082031 16.070312 71.980469 17.011719 Z M 74.847656 11.175781 C 73.464844 9.59375 71.488281 8.703125 69.410156 8.703125 L 61.945312 8.703125 L 59.277344 29.417969 L 68.472656 29.417969 C 72.179688 29.417969 75.34375 26.652344 75.835938 22.941406 L 76.628906 16.863281 C 76.875 14.835938 76.234375 12.757812 74.847656 11.175781 "/>
<path style=" stroke:none;fill-rule:nonzero;fill:rgb(89.685059%,12.950134%,14.137268%);fill-opacity:1;" d="M 48.746094 29.46875 L 53.492188 29.46875 L 56.160156 8.753906 L 51.5625 8.753906 L 50.03125 20.667969 C 50.03125 20.816406 49.929688 20.914062 49.78125 20.914062 C 49.636719 20.964844 49.535156 20.867188 49.488281 20.765625 L 44.195312 8.703125 L 39.453125 8.703125 L 36.78125 29.417969 L 41.378906 29.417969 L 42.910156 17.503906 C 42.910156 17.355469 43.011719 17.257812 43.160156 17.257812 C 43.308594 17.257812 43.40625 17.308594 43.457031 17.40625 L 48.746094 29.46875 "/>
<path style=" stroke:none;fill-rule:nonzero;fill:rgb(89.685059%,12.950134%,14.137268%);fill-opacity:1;" d="M 13.003906 29.417969 L 17.746094 29.417969 L 24.222656 8.753906 L 19.628906 8.753906 L 16.414062 18.988281 C 16.363281 19.136719 16.214844 19.183594 16.117188 19.183594 C 15.96875 19.183594 15.871094 19.085938 15.871094 18.9375 L 14.386719 8.753906 L 9.886719 8.753906 L 6.328125 18.988281 C 6.277344 19.136719 6.128906 19.183594 6.03125 19.183594 C 5.882812 19.183594 5.785156 19.085938 5.785156 18.9375 L 4.597656 8.753906 L 0 8.753906 L 2.375 29.417969 L 7.117188 29.417969 L 10.875 18.492188 C 10.925781 18.34375 11.023438 18.246094 11.171875 18.296875 C 11.320312 18.296875 11.421875 18.394531 11.421875 18.542969 L 13.003906 29.417969 "/>
</g>
</svg>
