<svg xmlns="http://www.w3.org/2000/svg" width="176pt" height="45.2pt" viewBox="0 0 176 45.2"><defs><clipPath id="a"><path d="M90 15h25v30.2H90Zm0 0"/></clipPath></defs><path d="M176 2.348c-.39-.02-.777-.051-1.168-.051Q92.414 2.292 9.988 2.293H8.781C8.605 1.547 8.676.84 8.723.086c.246-.023.46-.047.675-.055.25-.008.504-.004.754-.004h164.676c.39 0 .781-.015 1.172-.027zM13.422 18.352c1.617.043 3.117.132 4.598-.204.859-.195 1.5-.73 1.93-1.496.202-.363.382-.746.538-1.132.742-1.844 1.317-3.739 1.586-5.711.11-.793.137-1.614.074-2.41-.062-.84-.484-1.227-1.32-1.391-1.328-.254-2.66-.098-4.035-.133-1.121 4.156-2.227 8.242-3.371 12.477M9.34 33.562h4.469c1.703 0 2.84-.835 3.515-2.363q.17-.38.313-.777a35 35 0 0 0 1.62-6.223c.098-.633.184-1.277.173-1.914-.02-1.223-.575-1.902-1.762-2.226a5.5 5.5 0 0 0-1.234-.192c-1.137-.023-2.27-.008-3.43-.008zM0 34.364c.078-.234.152-.465.258-.781H3.19l7.461-27.691H7.867c.028-.516.055-.938.082-1.403.25-.031.438-.078.621-.078 3.715.004 7.43-.008 11.145.027 1.648.016 3.285.211 4.863.754 2.504.868 3.738 2.594 3.719 5.243-.027 3.554-2.098 6.5-5.457 7.656-.918.316-1.899.445-2.848.66q-.292.073-.586.145l-.011.214c.218.059.44.11.652.18.867.297 1.781.508 2.59.918 1.445.727 2.43 1.938 2.703 3.535.62 3.645-.238 6.832-3.246 9.207-1.727 1.36-3.77 1.895-5.926 2.063-.473.035-.95.039-1.422.039-4.777.004-9.55.004-14.328 0-.14 0-.277-.012-.418-.02z" style="stroke:none;fill-rule:nonzero;fill:#412825;fill-opacity:1"/><g clip-path="url(#a)"><path d="M106.48 19.324c.028-1.504-.554-2.039-1.757-1.949-.633.05-1.145.309-1.477.832-.266.422-.527.867-.672 1.336a191 191 0 0 0-1.52 5.305 6 6 0 0 0-.199 1.484c-.015.719.364 1.137 1.063 1.293 1.016.227 1.824-.113 2.344-1.012.195-.336.379-.691.496-1.058a170 170 0 0 0 1.375-4.563c.18-.64.273-1.305.347-1.668m-8.238 24.7c2.535-.122 4.762-.95 6.633-2.669.672-.613 1.164-1.347 1.355-2.257.215-.993-.125-1.649-1.082-1.957a6.7 6.7 0 0 0-1.64-.286c-1.363-.078-2.735-.074-4.098-.156a23 23 0 0 1-2.652-.308c-.43-.075-.762.004-1.086.257-1.305 1.028-1.887 2.383-1.82 4.028.054 1.488.972 2.676 2.418 3.054.636.168 1.312.2 1.972.293m-3.293-8.211c-.043-.114-.043-.145-.058-.165-1.938-2.03-2.032-4.843-.176-7.011.52-.61 1.172-1.11 1.773-1.649.203-.183.438-.336.64-.492-.206-.637-.491-1.223-.581-1.836-.25-1.797.234-3.445 1.293-4.894 2.156-2.957 5.48-4.086 8.953-3.309 1.441.324 2.48 1.23 3.227 2.484.14.235.273.473.488.848.101-.41.144-.7.25-.965.316-.8.605-1.617 1.008-2.375a2.03 2.03 0 0 1 1.59-1.11c.726-.097 1.265.223 1.492.923.265.828.093 1.61-.395 2.304-.406.586-1.066.704-1.7.364-.218-.114-.433-.242-.624-.356-.52.184-.625.61-.734 1.004-.223.805-.368 1.633-.618 2.43-.277.875-.55 1.77-.972 2.578-1.395 2.68-3.676 4.035-6.664 4.242-1.91.133-3.664-.277-5.188-1.527-.726.336-1.273.832-1.629 1.52-.472.902-.226 1.613.758 1.894.852.242 1.746.367 2.629.433 1.59.114 3.184.133 4.77.211.53.028 1.058.086 1.582.184 1.71.312 2.585 1.3 2.687 3.031.152 2.649-.684 4.969-2.496 6.887-3.129 3.305-7 4.3-11.395 3.453-.566-.11-1.129-.344-1.636-.621-2.473-1.367-3-4.57-1.063-6.64.543-.579 1.27-.981 1.934-1.438.246-.172.55-.262.855-.403" style="stroke:none;fill-rule:nonzero;fill:#412825;fill-opacity:1"/></g><path d="M136.738 24.668c.032-3.461.2-6.855.23-10.422-1.413 1.988-5.886 9.781-5.988 10.422zm5.844 8.887h2.793c-.035.539-.066.972-.102 1.449H133.5c.043-.473.086-.918.133-1.45h2.785c.066-2.433.129-4.784.191-7.19h-6.77c-.331.546-.698 1.136-1.054 1.73q-1.072 1.8-2.137 3.601c-.085.145-.175.285-.25.438-.43.902-.128 1.398.864 1.422.41.008.82 0 1.316 0-.062.539-.113.972-.172 1.449h-6.64c.035-.445.07-.875.109-1.34.176-.055.324-.113.48-.148.91-.2 1.66-.68 2.22-1.407a24 24 0 0 0 1.671-2.402c4.742-7.96 9.469-15.93 14.2-23.898.382-.645.773-1.286 1.167-1.95h1.465c-.129 9.88-.375 19.735-.496 29.696M77.824 35.016h-4.969c.743-2.864 1.56-5.63 2.329-8.41.773-2.794 1.554-5.583 2.367-8.489h-2.61c.067-.472.118-.84.168-1.183 2.649-.211 5.223-.418 7.86-.63-.512 1.759-1.012 3.462-1.508 5.165q.047.03.102.058c.128-.156.246-.32.378-.472.891-1.035 1.72-2.137 2.692-3.086 1.191-1.168 2.633-1.864 4.383-1.727 1.734.133 2.851 1.258 2.808 3a9 9 0 0 1-.363 2.219c-.938 3.273-1.926 6.531-2.883 9.797a11 11 0 0 0-.316 1.387c-.04.257.023.53.039.77.64.323 1.047.019 1.418-.333.86-.816 1.492-1.8 2.027-2.852.266-.52.512-1.043.79-1.609.23.11.421.203.593.281.02.098.055.157.039.2-.578 1.558-1.352 3.007-2.469 4.246-1.226 1.359-2.734 2.093-4.594 2.027-1.789-.062-2.847-1.273-2.574-3.055.168-1.074.446-2.133.746-3.175.762-2.657 1.57-5.297 2.348-7.95.195-.668.34-1.351.496-2.03.074-.333.102-.688-.2-.935-.32-.257-.706-.21-1.023-.02-.476.286-.957.587-1.351.97-2.18 2.136-3.692 4.652-4.438 7.644-.64 2.57-1.41 5.11-2.125 7.664-.043.16-.093.313-.16.528M86.957 38.762c0 .695 0 1.355.004 2.02-.582.179-84.367.261-86.047.073v-2.093zM35.453 25.797c1.973.398 3.645.148 4.906-1.36 1.34-1.597 1.684-3.53 1.657-5.558 0-.11-.047-.219-.07-.324-.157-.668-.571-1.051-1.243-1.192-.71-.144-1.355-.008-1.855.5-.368.371-.715.793-.953 1.254-1.083 2.09-1.704 4.344-2.442 6.68m-.293 1.152c-.52 1.774-.988 3.438-1.219 5.153-.046.351.012.726.082 1.078.106.539.45.93.985 1.027a5.8 5.8 0 0 0 1.574.086c1.34-.133 2.512-.719 3.61-1.465 1.257-.86 2.304-1.937 3.261-3.113.176-.215.352-.434.57-.7.188.172.364.329.512.465-.012.11 0 .176-.027.211-1.305 1.797-2.758 3.45-4.656 4.649-1.954 1.234-4.055 1.676-6.329 1.074-2.156-.566-3.515-1.965-4.171-4.07-.48-1.54-.407-3.11.011-4.633 1.29-4.7 4.086-8.133 8.668-9.973a7.33 7.33 0 0 1 4.446-.336c2.285.524 3.582 2.364 3.363 4.696-.235 2.488-1.54 4.203-3.785 5.21-1.778.797-3.657.973-5.578.774-.41-.043-.825-.082-1.317-.133M167.387 38.879v2.101h-54.184v-2.074c.57-.176 53.238-.21 54.184-.027M51.977 35.008H46.93c1.601-5.63 3.18-11.192 4.793-16.867H49.32v-1.203c2.64-.211 5.22-.415 7.907-.633-.434 1.578-.864 3.14-1.297 4.699q.082.051.164.098c.16-.227.316-.457.484-.68.77-.992 1.492-2.024 2.328-2.953.414-.461.989-.836 1.563-1.078 1.125-.47 2.082.007 2.43 1.175.32 1.09.222 2.172-.481 3.106-.242.324-.59.605-.95.793-.816.426-1.5.203-2.015-.567-.21-.32-.433-.625-.617-.882-.758-.02-1.137.406-1.504.828-.871.996-1.484 2.152-2.043 3.343-.91 1.934-1.39 4.004-1.977 6.043-.453 1.579-.886 3.165-1.335 4.778M163.34 18.137h-2.528c.047-.453.086-.801.13-1.196 2.617-.21 5.206-.421 7.898-.636l-1.352 4.86c.032.019.059.038.09.058.125-.153.262-.297.379-.457.664-.895 1.277-1.836 2-2.684.5-.582 1.086-1.148 1.746-1.531 1.399-.817 2.746-.102 2.91 1.508.063.62-.043 1.285-.191 1.894-.168.672-.64 1.168-1.266 1.492-.844.438-1.574.239-2.097-.55-.215-.317-.438-.625-.63-.907-.827.047-1.253.54-1.652 1.043a14.3 14.3 0 0 0-2.351 4.317c-.617 1.824-1.13 3.68-1.672 5.527-.399 1.363-.774 2.734-1.172 4.133h-5.043c1.594-5.606 3.172-11.145 4.8-16.871M151.879 18.145h-2.598c.035-.45.063-.825.09-1.22 2.676-.214 5.305-.421 8.02-.636l-.977 3.484c-1.11 3.95-2.223 7.895-3.32 11.844-.156.555-.36 1.121-.184 1.688.434.398.848.23 1.16-.047.438-.383.868-.801 1.176-1.285.606-.938 1.121-1.93 1.672-2.899.137-.242.258-.488.414-.789l.691.383c-.773 1.863-1.636 3.602-3 5.043-1.25 1.324-2.804 1.867-4.62 1.668-1.454-.16-2.383-1.082-2.356-2.543.016-.906.187-1.832.433-2.711 1.02-3.68 2.09-7.352 3.141-11.023.082-.29.156-.579.258-.957M71.59 28.242c.289.184.469.297.687.438-.765 1.812-1.605 3.535-2.93 4.968-1.238 1.332-2.777 1.91-4.597 1.739-1.469-.137-2.398-1-2.426-2.469a8.8 8.8 0 0 1 .332-2.469c.875-3.199 1.809-6.383 2.723-9.574.242-.852.48-1.707.738-2.621-.855-.258-1.703.008-2.574-.195l.062-1.13 8.008-.644c-.062.266-.11.524-.18.777q-1.994 7.085-3.988 14.168c-.132.485-.257.973-.312 1.47-.028.241.05.612.219.722.175.117.558.082.765-.04.352-.206.711-.48.93-.812.719-1.093 1.379-2.226 2.047-3.347.172-.282.3-.586.496-.98M73.555 8.574c-.024.953-.461 2.031-1.504 2.801-1.317.973-2.88.555-3.543-.93-.68-1.527-.047-3.707 1.347-4.625 1.122-.738 2.399-.488 3.153.621.37.547.55 1.153.547 2.133M153.992 9.059c-.008-1.051.324-1.977 1.04-2.75.652-.704 1.437-1.079 2.402-.836.964.242 1.511.96 1.726 1.875.344 1.453.02 2.77-1.11 3.82-.679.633-1.488.906-2.39.621-.945-.3-1.398-1.059-1.601-1.98-.051-.243-.047-.5-.067-.75" style="stroke:none;fill-rule:nonzero;fill:#412825;fill-opacity:1"/></svg>