<svg xmlns="http://www.w3.org/2000/svg" width="176pt" height="50.813" viewBox="0 0 176 38.11"><defs><clipPath id="a"><path d="M10 19h28v19.11H10Zm0 0"/></clipPath></defs><path d="M7.531 18.441c13.137-.386 21.59-5.609 26.125-10.066-1.613-2.23-3.765-4.305-6.453-5.84-4.535 9.297-12.758 14.367-19.672 15.75z" style="stroke:none;fill-rule:nonzero;fill:#284da4;fill-opacity:1"/><path d="M34.348 9.45c-3.844 3.765-9.989 7.378-16.907 8.835v.156h19.903c0-2.539-1-5.84-2.996-8.992" style="stroke:none;fill-rule:nonzero;fill:#40a2ca;fill-opacity:1"/><path d="M0 18.824c9.988 0 20.21-5.531 26.125-16.828A19.86 19.86 0 0 0 17.367 0c0 5.223-2.23 17.29-17.367 18.672z" style="stroke:none;fill-rule:nonzero;fill:#27296e;fill-opacity:1"/><path d="M29.047 19.668c-13.14.387-20.824 5.996-25.36 10.453 1.614 2.227 2.997 3.918 5.688 5.453 4.531-9.297 12.754-14.367 19.672-15.75z" style="stroke:none;fill-rule:nonzero;fill:#f46e16;fill-opacity:1"/><path d="M2.996 29.043c3.844-3.762 9.223-7.762 16.137-9.219v-.156L0 20.055c0 2.535 1 5.84 2.996 8.988" style="stroke:none;fill-rule:nonzero;fill:#efee0e;fill-opacity:1"/><g clip-path="url(#a)"><path d="M37.344 19.668c-9.989 0-20.977 5.148-26.895 16.445 2.535 1.23 5.457 1.996 8.762 1.996 0-5.222 2.996-16.902 18.133-18.285z" style="stroke:none;fill-rule:nonzero;fill:#ed1d24;fill-opacity:1"/></g><path d="M46.504 28.332h-1.598v-3.254h1.598a1.61 1.61 0 0 1 1.598 1.625c0 .906-.723 1.629-1.598 1.629m-1.598-7.082h1.477c.765 0 1.398.582 1.398 1.305 0 .722-.633 1.308-1.398 1.308h-1.477Zm4.227 3.441v-.058c1.273-.324 2.043-1.23 2.043-2.403 0-1.503-1.336-2.52-3.766-2.52h-6.363v.556c.46 0 .863.414.863 1.078v6.898c0 .66-.402 1.074-.863 1.074v.555h6.871c2.52 0 3.902-.922 3.902-2.644 0-1.32-1.105-2.336-2.687-2.536M57.953 27.457c0 .152-.629.754-1.152.754-.524 0-1.184-.262-1.168-.969.015-.597.55-.8 1.168-.984.398-.121.828-.23 1.152-.445Zm3.043.848v-3.383c0-2.074-1.582-2.86-4.101-2.86-1 0-2.399.293-3.23.555l-.153 2.074h.57l.168-.355c.367-.766 1.2-.965 1.953-.98 1.227-.016 1.75.554 1.75 1.214v.274c-.812.34-2.258.601-3.273.691-.907.078-1.86.77-1.86 2.063 0 1.441 1.059 2.472 2.457 2.472 1.137 0 2.153-.675 2.723-1.367h.137l.078 1.168a25 25 0 0 1 3.441 0v-.555c-.46 0-.66-.351-.66-1.011M66.48 28.242v-7.484c0-.63.047-1.524.11-2.168l-.063-.031c-1.289.539-2.64.847-4.023 1.015v.555c.46 0 .98.488.98 1.152v6.961c0 .66-.398 1.074-.859 1.074v.555a48 48 0 0 1 4.719 0v-.555c-.461 0-.864-.414-.864-1.074M76.809 28.195l-1.536-3.304 1.66-1.723c.153-.152.368-.352.524-.352v-.554h-4.121v.554c.676 0 .984.262.984.602 0 .152-.11.383-.34.672l-1.289 1.57h-.46v-4.902c0-.664.046-1.582.105-2.23-1.305.554-2.688.878-4.086 1.046v.555c.46 0 .98.488.98 1.152v6.961c0 .66-.398 1.074-.859 1.074v.555a48 48 0 0 1 4.719 0v-.555c-.461 0-.86-.414-.86-1.074v-1.785h.399l1.105 2.54c.125.288.309.628.493.874a29 29 0 0 1 3.675 0v-.555c-.234.016-.832-.554-1.093-1.12M83.926 27.457c0 .152-.633.754-1.153.754-.523 0-1.183-.262-1.168-.969.012-.597.551-.8 1.168-.984.399-.121.829-.23 1.153-.445Zm3.043.848v-3.383c0-2.074-1.582-2.86-4.106-2.86-.996 0-2.394.293-3.226.555l-.153 2.074h.567l.168-.355c.37-.766 1.199-.965 1.953-.98 1.23-.016 1.754.554 1.754 1.214v.274c-.817.34-2.262.601-3.274.691-.906.078-1.859.77-1.859 2.063 0 1.441 1.059 2.472 2.457 2.472 1.137 0 2.152-.675 2.719-1.367h.14l.075 1.168a25 25 0 0 1 3.445 0v-.555c-.461 0-.66-.351-.66-1.011M97.785 28.242v-3.351c0-1.875-1.21-2.63-2.394-2.63-1.079 0-2 .65-2.493.985.016-.508.047-1.058.094-1.52l-.168-.109c-1.246.508-2.566.817-3.906.969v.555c.465 0 .984.488.984 1.152v3.95c0 .66-.398 1.073-.859 1.073v.555a46 46 0 0 1 4.625 0v-.555c-.371 0-.77-.414-.77-1.074v-3.305c.23-.246.602-.582 1.047-.644.399-.063.844.23.844.812v3.137c0 .66-.398 1.074-.766 1.074v.555a46 46 0 0 1 4.625 0v-.555c-.464 0-.863-.414-.863-1.074M111.297 19.71v.54c.46 0 .86.414.86 1.074v2.524h-4.06v-2.524c0-.66.4-1.074.864-1.074v-.54c-1.57.08-3.137.08-4.719 0v.54c.461 0 .86.414.86 1.074v6.918c0 .66-.399 1.074-.86 1.074v.555a48 48 0 0 1 4.719 0v-.555c-.465 0-.863-.414-.863-1.074v-3.164h4.058v3.164c0 .66-.398 1.074-.86 1.074v.555a48 48 0 0 1 4.716 0v-.555c-.461 0-.86-.414-.86-1.074v-6.918c0-.66.399-1.074.86-1.074v-.54a48 48 0 0 1-4.715 0M121.637 28.703c-.782 0-1.41-.785-1.41-2.535 0-1.86.628-2.54 1.41-2.54.785 0 1.414.68 1.414 2.54 0 1.766-.63 2.535-1.414 2.535m0-6.441c-2.028 0-2.672.449-3.457 1.215-.692.675-1.09 1.582-1.09 2.734 0 1.125.398 2.031 1.09 2.707.785.77 1.43 1.215 3.457 1.215s2.675-.445 3.46-1.215c.688-.676 1.09-1.582 1.09-2.734 0-1.125-.402-2.032-1.09-2.707-.784-.766-1.433-1.215-3.46-1.215M131.148 28.242v-7.484c0-.63.047-1.524.11-2.168l-.063-.031c-1.289.539-2.64.847-4.023 1.015v.555c.46 0 .98.488.98 1.152v6.961c0 .66-.398 1.074-.859 1.074v.555a48 48 0 0 1 4.719 0v-.555c-.461 0-.864-.414-.864-1.074M136.688 28.262v-4.473c0-.629.046-1.523.109-2.168l-.078-.031c-1.278.523-2.645.848-4.012 1.015v.555c.461 0 .984.492.984 1.152v3.95c0 .66-.402 1.074-.859 1.074v.555a48 48 0 0 1 4.719 0v-.555c-.461 0-.863-.414-.863-1.074M135.059 21.531c1 0 1.796-.601 1.796-1.336 0-.738-.796-1.34-1.796-1.34s-1.797.602-1.797 1.34c0 .735.797 1.336 1.797 1.336M143.344 28.336c-.707 0-1.278-.688-1.278-2.273 0-1.676.57-2.274 1.278-2.274.707 0 1.273.277 1.273 2.273 0 1.922-.566 2.274-1.273 2.274m4.27-.074v-7.485c0-.632.046-1.492.093-2.136l-.078-.063c-1.29.54-2.625.848-3.996 1.016v.55c.465 0 .984.497.984 1.157l.016 1.687c-.555-.476-1.2-.734-2.457-.734-1.817 0-3.383 1.766-3.383 3.918 0 2.148 1.477 3.902 3.289 3.902a2.81 2.81 0 0 0 2.336-1.199h.215v1.016a32 32 0 0 1 3.844 0v-.555c-.461 0-.864-.414-.864-1.074M154.594 27.477c0 .152-.633.753-1.156.753-.52 0-1.18-.261-1.168-.968.015-.598.554-.801 1.167-.985.403-.12.833-.23 1.157-.445Zm3.039.843v-3.379c0-2.074-1.582-2.859-4.102-2.859-1 0-2.394.293-3.226.555l-.153 2.074h.567l.168-.352c.37-.77 1.199-.968 1.953-.988 1.23-.012 1.754.555 1.754 1.215v.277c-.817.34-2.262.602-3.278.692-.906.078-1.855.77-1.855 2.058 0 1.45 1.059 2.477 2.457 2.477 1.137 0 2.152-.676 2.719-1.367h.14l.078 1.168a25 25 0 0 1 3.442 0v-.555c-.461 0-.664-.352-.664-1.016M164.215 22.281v.57c.457 0 .875.43.707 1.075l-.879 3.32-.094-.016-.922-3.378c-.168-.645.203-1.016.66-1.016v-.555a48 48 0 0 1-4.714 0v.555c.46 0 .644.508.859 1.137l1.86 5.5h1.769c-.2.742-.77 1.34-1.707 1.34-.555 0-1.168-.477-1.352-1.106h-.449v2.121c.387.43.984.75 1.692.75 1.77 0 2.953-1.012 3.445-2.797l1.597-5.808c.168-.63.551-1.137 1.012-1.137v-.555a26 26 0 0 1-3.484 0M173.559 24.941c-1.016-.214-1.985-.246-1.985-.785 0-.597.461-.86 1.367-.86.754 0 1.598.31 2.028 1.044l.172.293h.566l-.215-1.996c-.828-.262-1.89-.555-2.89-.555-2.52 0-3.93.844-3.93 2.922 0 1.183 1.273 1.75 2.441 1.965 1.043.199 1.985.218 1.985.754 0 .414-.262.968-1.493.953-.753-.016-1.77-.278-2.214-1.246l-.23-.489h-.509l-.136 2.149c.859.508 1.937.922 3.379.922 2.52 0 4.105-1.274 4.105-2.86 0-1.472-1.262-1.965-2.441-2.21" style="stroke:none;fill-rule:nonzero;fill:#27296e;fill-opacity:1"/></svg>