<?xml version="1.0" encoding="UTF-8"?>
<svg xmlns="http://www.w3.org/2000/svg" xmlns:xlink="http://www.w3.org/1999/xlink" width="176pt" height="41.12pt" viewBox="0 0 176 41.12" version="1.1">
<defs>
<clipPath id="clip1">
  <path d="M 150 36 L 155 36 L 155 41.121094 L 150 41.121094 Z M 150 36 "/>
</clipPath>
</defs>
<g id="surface1">
<path style=" stroke:none;fill-rule:nonzero;fill:rgb(13.336182%,17.814636%,37.557983%);fill-opacity:1;" d="M 27.746094 38.527344 L 34.738281 33.839844 L 37.335938 33.839844 L 44.757812 38.527344 L 42.019531 38.527344 L 39.929688 37.085938 L 32.289062 37.085938 L 30.269531 38.527344 Z M 33.011719 36.578125 L 39.136719 36.578125 L 37.261719 35.28125 C 36.683594 34.921875 36.253906 34.5625 35.964844 34.273438 C 35.75 34.5625 35.386719 34.851562 34.957031 35.136719 Z M 48 38.527344 L 48 33.839844 L 50.378906 33.839844 L 50.378906 38.527344 Z M 55.570312 38.527344 L 55.570312 33.839844 L 63.570312 33.839844 C 65.15625 33.839844 66.378906 33.914062 67.246094 33.984375 C 68.109375 34.058594 68.757812 34.199219 69.261719 34.417969 C 69.765625 34.632812 69.984375 34.851562 69.984375 35.136719 C 69.984375 35.5 69.550781 35.785156 68.757812 36.003906 C 67.894531 36.21875 66.667969 36.363281 64.9375 36.433594 C 65.585938 36.507812 66.089844 36.578125 66.378906 36.652344 C 67.101562 36.796875 67.75 37.011719 68.398438 37.300781 L 71.570312 38.597656 L 68.542969 38.597656 L 66.089844 37.515625 C 65.371094 37.226562 64.792969 37.011719 64.359375 36.867188 C 63.929688 36.722656 63.496094 36.578125 63.136719 36.578125 C 62.777344 36.507812 62.414062 36.507812 62.054688 36.433594 C 61.765625 36.433594 61.335938 36.433594 60.6875 36.433594 L 57.875 36.433594 L 57.875 38.527344 Z M 57.945312 35.859375 L 63.136719 35.859375 C 64.21875 35.859375 65.082031 35.859375 65.730469 35.785156 C 66.378906 35.714844 66.8125 35.640625 67.171875 35.5 C 67.460938 35.355469 67.675781 35.210938 67.675781 35.066406 C 67.675781 34.851562 67.390625 34.632812 66.738281 34.488281 C 66.089844 34.34375 65.15625 34.273438 63.785156 34.273438 L 58.019531 34.273438 L 58.019531 35.859375 Z M 74.597656 38.527344 L 74.597656 33.839844 L 76.972656 33.839844 L 76.972656 38.019531 L 85.910156 38.019531 L 85.910156 38.597656 L 74.597656 38.597656 Z M 90.09375 38.527344 L 90.09375 33.839844 L 92.46875 33.839844 L 92.46875 38.527344 Z M 97.585938 38.527344 L 97.585938 33.839844 L 100.039062 33.839844 L 109.550781 37.515625 L 109.550781 33.839844 L 111.859375 33.839844 L 111.859375 38.527344 L 109.40625 38.527344 L 99.894531 34.851562 L 99.894531 38.527344 Z M 116.902344 38.527344 L 116.902344 33.839844 L 130.019531 33.839844 L 130.019531 34.417969 L 119.355469 34.417969 L 119.355469 35.859375 L 129.371094 35.859375 L 129.371094 36.433594 L 119.355469 36.433594 L 119.355469 38.019531 L 130.453125 38.019531 L 130.453125 38.597656 L 116.902344 38.597656 Z M 133.839844 37.011719 L 136.074219 36.941406 C 136.144531 37.15625 136.433594 37.371094 136.796875 37.515625 C 137.15625 37.660156 137.804688 37.804688 138.597656 37.875 C 139.390625 37.949219 140.328125 38.019531 141.40625 38.019531 C 142.34375 38.019531 143.136719 38.019531 143.859375 37.949219 C 144.578125 37.875 145.085938 37.804688 145.445312 37.660156 C 145.804688 37.515625 145.949219 37.371094 145.949219 37.226562 C 145.949219 37.085938 145.804688 36.941406 145.445312 36.867188 C 145.085938 36.722656 144.578125 36.652344 143.785156 36.578125 C 143.28125 36.507812 142.199219 36.433594 140.542969 36.363281 C 138.886719 36.292969 137.730469 36.148438 137.011719 36.074219 C 136.144531 35.929688 135.496094 35.785156 135.066406 35.640625 C 134.632812 35.5 134.417969 35.28125 134.417969 35.066406 C 134.417969 34.851562 134.703125 34.632812 135.210938 34.417969 C 135.714844 34.199219 136.507812 34.058594 137.515625 33.914062 C 138.523438 33.839844 139.605469 33.769531 140.832031 33.769531 C 142.199219 33.769531 143.355469 33.839844 144.363281 33.914062 C 145.371094 34.058594 146.164062 34.199219 146.742188 34.417969 C 147.316406 34.632812 147.605469 34.851562 147.605469 35.136719 L 145.300781 35.210938 C 145.15625 34.921875 144.722656 34.707031 144.074219 34.5625 C 143.355469 34.417969 142.34375 34.34375 140.902344 34.34375 C 139.460938 34.34375 138.382812 34.417969 137.730469 34.5625 C 137.085938 34.707031 136.722656 34.851562 136.722656 35.066406 C 136.722656 35.210938 136.9375 35.355469 137.445312 35.5 C 137.875 35.640625 139.101562 35.714844 141.046875 35.859375 C 142.992188 36.003906 144.363281 36.074219 145.085938 36.148438 C 146.164062 36.292969 146.886719 36.433594 147.390625 36.652344 C 147.894531 36.867188 148.109375 37.085938 148.109375 37.300781 C 148.109375 37.515625 147.820312 37.804688 147.316406 38.019531 C 146.742188 38.238281 145.949219 38.382812 144.9375 38.527344 C 143.929688 38.667969 142.777344 38.742188 141.480469 38.742188 C 139.820312 38.742188 138.453125 38.667969 137.371094 38.527344 C 136.289062 38.382812 135.425781 38.238281 134.777344 37.949219 C 134.199219 37.589844 133.839844 37.300781 133.839844 37.011719 "/>
<path style=" stroke:none;fill-rule:nonzero;fill:rgb(13.336182%,17.814636%,37.557983%);fill-opacity:1;" d="M 9.511719 11.640625 C 9.296875 12.722656 10.378906 12.578125 11.171875 12.578125 C 15.0625 12.578125 18.089844 10.707031 18.089844 6.523438 C 18.089844 3.640625 16.433594 2.488281 13.695312 2.488281 C 12.179688 2.488281 11.820312 3.066406 11.460938 4.507812 Z M 0 24.613281 L 0.144531 23.96875 C 2.449219 23.96875 3.097656 23.246094 3.675781 21.011719 L 7.855469 5.371094 C 8.433594 3.210938 8.289062 2.199219 5.695312 2.054688 L 5.835938 1.40625 L 14.847656 1.40625 C 18.378906 1.40625 21.839844 2.417969 21.839844 6.597656 C 21.839844 11.640625 16.863281 13.515625 12.613281 13.515625 C 11.890625 13.515625 9.65625 13.300781 9.152344 13.589844 C 9.082031 13.660156 9.007812 13.730469 9.007812 13.875 L 6.992188 21.445312 C 6.488281 23.605469 7.929688 23.894531 9.875 23.894531 L 9.730469 24.542969 L 0 24.542969 L 0 24.613281 "/>
<path style=" stroke:none;fill-rule:nonzero;fill:rgb(13.336182%,17.814636%,37.557983%);fill-opacity:1;" d="M 133.910156 21.15625 C 132.902344 22.378906 130.957031 24.6875 128.9375 24.6875 C 125.984375 24.6875 128.363281 19.714844 128.722656 18.632812 C 127.210938 20.867188 124.542969 24.6875 121.082031 24.6875 C 116.832031 24.6875 118.058594 19.210938 118.921875 17.046875 C 120.289062 13.730469 124.039062 8.976562 128.289062 9.261719 C 129.589844 9.261719 130.667969 9.769531 130.957031 10.921875 L 131.390625 9.550781 L 134.128906 9.550781 C 132.902344 13.445312 131.390625 17.40625 130.453125 21.300781 C 130.382812 21.589844 130.164062 22.164062 130.523438 22.453125 C 131.679688 23.316406 134.058594 19.859375 134.128906 19.28125 Z M 128.289062 10.128906 C 123.894531 10.128906 120.9375 17.625 120.9375 20.652344 C 120.9375 21.515625 121.589844 22.742188 122.742188 22.742188 C 125.625 22.742188 128.578125 17.335938 129.371094 15.390625 C 129.949219 14.019531 131.246094 10.128906 128.289062 10.128906 "/>
<path style=" stroke:none;fill-rule:nonzero;fill:rgb(13.336182%,17.814636%,37.557983%);fill-opacity:1;" d="M 33.011719 21.15625 C 32 22.378906 30.054688 24.6875 28.035156 24.6875 C 25.082031 24.6875 27.460938 19.714844 27.820312 18.632812 C 26.304688 20.867188 23.640625 24.6875 20.179688 24.6875 C 15.929688 24.6875 17.152344 19.210938 18.019531 17.046875 C 19.386719 13.730469 23.136719 8.976562 27.386719 9.261719 C 28.683594 9.261719 29.765625 9.769531 30.054688 10.921875 L 30.488281 9.550781 L 33.226562 9.550781 C 32 13.445312 30.488281 17.40625 29.550781 21.300781 C 29.476562 21.589844 29.261719 22.164062 29.621094 22.453125 C 30.777344 23.316406 33.152344 19.785156 33.226562 19.28125 Z M 27.460938 10.128906 C 23.0625 10.128906 20.109375 17.625 20.109375 20.652344 C 20.109375 21.515625 20.757812 22.742188 21.910156 22.742188 C 24.792969 22.742188 27.746094 17.335938 28.539062 15.390625 C 29.117188 14.019531 30.414062 10.128906 27.460938 10.128906 "/>
<path style=" stroke:none;fill-rule:nonzero;fill:rgb(13.336182%,17.814636%,37.557983%);fill-opacity:1;" d="M 168.21875 21.15625 C 167.210938 22.378906 165.265625 24.6875 163.246094 24.6875 C 160.289062 24.6875 162.671875 19.714844 163.03125 18.632812 C 161.515625 20.867188 158.851562 24.6875 155.390625 24.6875 C 151.136719 24.6875 152.363281 19.210938 153.230469 17.046875 C 154.597656 13.730469 158.347656 8.976562 162.597656 9.261719 C 163.894531 9.261719 164.976562 9.769531 165.265625 10.921875 L 165.695312 9.550781 L 168.4375 9.550781 C 167.210938 13.445312 165.695312 17.40625 164.761719 21.300781 C 164.6875 21.589844 164.472656 22.164062 164.832031 22.453125 C 165.984375 23.316406 168.363281 19.785156 168.4375 19.28125 Z M 162.597656 10.128906 C 158.199219 10.128906 155.246094 17.625 155.246094 20.652344 C 155.246094 21.515625 155.894531 22.742188 157.046875 22.742188 C 159.929688 22.742188 162.886719 17.335938 163.679688 15.390625 C 164.328125 14.09375 165.554688 10.128906 162.597656 10.128906 "/>
<path style=" stroke:none;fill-rule:nonzero;fill:rgb(13.336182%,17.814636%,37.557983%);fill-opacity:1;" d="M 146.886719 9.910156 C 149.335938 9.40625 151.136719 7.246094 152.363281 5.226562 L 153.085938 5.226562 L 151.859375 9.480469 L 154.597656 9.480469 L 154.382812 10.5625 L 151.644531 10.5625 C 150.703125 14.09375 149.554688 17.695312 148.832031 21.226562 C 148.542969 22.597656 149.265625 23.101562 150.34375 22.019531 C 150.777344 21.660156 152.003906 20.003906 152.578125 19.136719 L 152.4375 20.578125 C 151.28125 22.164062 149.625 24.472656 147.390625 24.472656 C 145.445312 24.472656 145.730469 22.453125 146.09375 21.15625 L 148.902344 10.5625 L 146.308594 10.5625 L 146.886719 9.910156 "/>
<path style=" stroke:none;fill-rule:nonzero;fill:rgb(13.336182%,17.814636%,37.557983%);fill-opacity:1;" d="M 146.382812 10.632812 L 145.730469 14.019531 L 145.085938 14.019531 C 144.867188 12.148438 144.144531 9.910156 141.550781 9.910156 C 140.976562 9.910156 140.472656 10.054688 140.039062 10.488281 C 138.234375 12.003906 140.761719 14.597656 141.910156 15.964844 C 143.929688 18.273438 145.371094 21.011719 142.632812 23.390625 C 140.902344 24.902344 138.453125 24.976562 136.289062 24.398438 C 135.714844 24.253906 134.34375 23.679688 134.058594 24.542969 L 133.335938 24.542969 L 133.839844 21.082031 L 134.128906 19.210938 L 134.777344 19.210938 C 134.851562 21.15625 135.644531 23.820312 138.382812 23.820312 C 139.246094 23.820312 139.96875 23.535156 140.472656 23.03125 C 142.488281 21.082031 140.542969 18.707031 139.101562 17.046875 C 137.371094 15.03125 135.425781 12.289062 137.949219 10.054688 C 140.761719 7.679688 143.859375 9.839844 146.886719 9.910156 L 146.382812 10.632812 "/>
<path style=" stroke:none;fill-rule:nonzero;fill:rgb(13.336182%,17.814636%,37.557983%);fill-opacity:1;" d="M 168.4375 19.425781 L 172.542969 4.21875 C 172.976562 2.5625 172.398438 2.128906 170.597656 2.054688 L 170.671875 1.480469 C 172.109375 1.335938 173.554688 1.117188 174.992188 0.832031 C 175.859375 0.6875 176.148438 0.6875 175.933594 1.625 L 170.8125 20.21875 C 170.671875 20.722656 170.019531 22.597656 171.03125 22.597656 C 172.039062 22.597656 173.121094 20.9375 173.625 20.292969 L 174.128906 20.796875 C 173.191406 22.164062 171.101562 24.613281 169.230469 24.613281 C 167.28125 24.613281 167.5 22.597656 167.929688 21.011719 L 168.4375 19.425781 "/>
<path style=" stroke:none;fill-rule:nonzero;fill:rgb(13.336182%,17.814636%,37.557983%);fill-opacity:1;" d="M 103.066406 19.355469 L 103.066406 19.136719 C 100.253906 22.453125 97.730469 24.832031 93.117188 24.832031 C 87.496094 24.832031 83.820312 21.300781 83.820312 15.679688 C 83.820312 7.316406 93.046875 -0.683594 101.40625 1.839844 C 102.5625 2.199219 103.714844 2.921875 104.433594 1.550781 L 105.082031 1.550781 L 103.785156 8.253906 L 103.136719 8.253906 C 103.136719 4.941406 102.34375 2.417969 98.453125 2.417969 C 93.839844 2.417969 90.09375 6.742188 88.578125 10.777344 C 86.847656 15.605469 87.28125 23.460938 94.054688 23.460938 C 97.875 23.460938 101.480469 20.578125 103.355469 17.40625 C 104.363281 13.300781 108.613281 8.976562 113.011719 8.976562 C 116.253906 8.976562 118.417969 11.066406 118.417969 14.308594 C 118.417969 19.28125 113.441406 24.6875 108.398438 24.6875 C 105.15625 24.6875 103.066406 22.527344 103.066406 19.355469 Z M 112.722656 9.839844 C 107.316406 9.839844 102.777344 23.75 108.6875 23.75 C 114.164062 23.75 118.5625 9.839844 112.722656 9.839844 "/>
<path style=" stroke:none;fill-rule:nonzero;fill:rgb(13.336182%,17.814636%,37.557983%);fill-opacity:1;" d="M 78.273438 20.796875 C 76.542969 22.742188 74.234375 24.613281 71.496094 24.613281 C 68.972656 24.613281 67.246094 23.171875 66.738281 20.796875 C 65.660156 22.378906 63.496094 24.613281 61.40625 24.613281 C 58.957031 24.613281 59.964844 21.371094 60.398438 20.074219 L 62.488281 12.652344 C 62.632812 12.003906 62.992188 10.992188 62.128906 10.632812 L 58.378906 10.632812 L 57.011719 17.046875 C 55.929688 22.378906 54.847656 26.199219 53.695312 28.433594 C 52.613281 30.667969 51.242188 31.75 49.730469 31.75 C 47.28125 31.75 46.917969 28.507812 48.867188 28.507812 C 50.957031 28.507812 49.082031 30.8125 50.089844 30.8125 C 51.964844 30.8125 52.542969 26.707031 52.757812 25.480469 L 55.570312 10.632812 L 53.839844 10.632812 L 54.128906 9.550781 L 55.714844 9.550781 C 56.289062 8.039062 56.792969 5.949219 58.019531 3.929688 C 59.964844 0.832031 62.992188 -1.621094 66.308594 1.335938 C 67.171875 2.128906 67.894531 3.714844 66.882812 4.722656 C 65.296875 6.238281 62.847656 3.859375 64.578125 2.273438 C 64.648438 2.054688 64.507812 1.839844 64.359375 1.769531 C 60.46875 -0.972656 59.242188 5.949219 58.453125 9.550781 L 62.273438 9.550781 C 63.855469 9.550781 64.21875 9.335938 65.226562 9.121094 C 66.164062 8.902344 66.164062 9.191406 65.949219 9.984375 L 62.777344 20.433594 C 62.703125 20.722656 62.34375 21.589844 62.703125 22.453125 C 63.714844 23.605469 65.875 20.652344 66.234375 20.21875 C 66.59375 18.488281 66.523438 18.488281 66.738281 17.550781 C 67.460938 13.082031 71.570312 9.046875 76.253906 9.046875 C 77.765625 9.046875 79.570312 9.769531 79.570312 11.496094 C 79.570312 14.597656 75.101562 13.371094 76.902344 11.066406 C 77.550781 10.199219 77.191406 9.984375 76.179688 9.984375 C 69.984375 9.984375 66.59375 23.246094 72.578125 23.246094 C 74.667969 23.246094 76.398438 21.804688 77.695312 20.363281 L 78.273438 20.796875 "/>
<path style=" stroke:none;fill-rule:nonzero;fill:rgb(13.336182%,17.814636%,37.557983%);fill-opacity:1;" d="M 49.800781 3.570312 C 49.800781 1.40625 53.117188 1.335938 53.117188 3.570312 C 53.117188 5.804688 49.800781 5.730469 49.800781 3.570312 "/>
<path style=" stroke:none;fill-rule:nonzero;fill:rgb(13.336182%,17.814636%,37.557983%);fill-opacity:1;" d="M 46.34375 10.417969 L 46.488281 9.839844 C 48 9.695312 49.515625 9.40625 50.957031 9.121094 C 51.894531 8.902344 51.894531 9.191406 51.675781 9.984375 L 48.578125 20.433594 C 48.433594 21.011719 48.144531 21.949219 48.503906 22.453125 C 49.296875 23.605469 51.460938 20.652344 51.75 20.21875 L 52.253906 20.722656 C 51.171875 22.308594 49.226562 24.6875 47.136719 24.6875 C 44.683594 24.6875 45.695312 21.445312 46.128906 20.148438 L 48.21875 12.722656 C 48.792969 10.921875 48.21875 10.417969 46.34375 10.417969 "/>
<path style=" stroke:none;fill-rule:nonzero;fill:rgb(13.336182%,17.814636%,37.557983%);fill-opacity:1;" d="M 32.863281 19.136719 C 32.792969 14.164062 37.40625 8.976562 42.453125 8.976562 C 43.894531 8.976562 45.695312 9.695312 45.695312 11.425781 C 45.695312 14.523438 41.296875 13.300781 43.101562 10.992188 C 43.75 10.128906 43.386719 9.910156 42.378906 9.910156 C 36.324219 9.910156 32.9375 23.171875 38.847656 23.171875 C 40.867188 23.171875 42.59375 21.730469 43.894531 20.292969 L 44.398438 20.867188 C 42.667969 22.8125 40.433594 24.6875 37.695312 24.6875 C 34.882812 24.6875 33.226562 22.886719 32.9375 20.148438 L 32.863281 19.136719 "/>
<g clip-path="url(#clip1)" clip-rule="nonzero">
<path style=" stroke:none;fill-rule:nonzero;fill:rgb(13.336182%,17.814636%,37.557983%);fill-opacity:1;" d="M 152.507812 36.867188 C 151.425781 36.867188 150.488281 37.734375 150.488281 38.886719 C 150.488281 39.96875 151.355469 40.902344 152.507812 40.902344 C 153.589844 40.902344 154.523438 40.039062 154.523438 38.886719 C 154.523438 37.804688 153.660156 36.867188 152.507812 36.867188 Z M 154.742188 38.886719 C 154.742188 40.109375 153.730469 41.121094 152.507812 41.121094 C 151.28125 41.121094 150.273438 40.109375 150.273438 38.886719 C 150.273438 37.660156 151.28125 36.652344 152.507812 36.652344 C 153.804688 36.652344 154.742188 37.660156 154.742188 38.886719 "/>
</g>
<path style=" stroke:none;fill-rule:nonzero;fill:rgb(13.336182%,17.814636%,37.557983%);fill-opacity:1;" d="M 152.003906 38.667969 L 152.578125 38.667969 C 152.722656 38.667969 152.796875 38.667969 152.867188 38.597656 C 152.9375 38.597656 153.011719 38.527344 153.011719 38.453125 C 153.085938 38.382812 153.085938 38.308594 153.085938 38.238281 C 153.085938 38.09375 153.011719 38.019531 152.9375 37.949219 C 152.867188 37.875 152.722656 37.804688 152.578125 37.804688 L 151.929688 37.804688 L 151.929688 38.667969 Z M 151.714844 40.109375 L 151.714844 37.515625 L 152.652344 37.515625 C 152.867188 37.515625 153.011719 37.515625 153.085938 37.589844 C 153.15625 37.660156 153.230469 37.734375 153.300781 37.804688 C 153.371094 37.949219 153.371094 38.019531 153.371094 38.164062 C 153.371094 38.382812 153.300781 38.527344 153.230469 38.667969 C 153.15625 38.8125 153.011719 38.886719 152.796875 38.886719 C 152.867188 38.957031 152.9375 38.957031 152.9375 39.03125 C 153.011719 39.101562 153.085938 39.246094 153.15625 39.390625 L 153.515625 40.109375 L 153.15625 40.109375 L 152.867188 39.605469 C 152.722656 39.390625 152.652344 39.246094 152.652344 39.175781 C 152.578125 39.101562 152.507812 39.03125 152.507812 39.03125 C 152.4375 39.03125 152.363281 38.957031 152.289062 38.957031 L 152.003906 38.957031 L 152.003906 40.109375 L 151.714844 40.109375 "/>
</g>
</svg>
