<svg xmlns="http://www.w3.org/2000/svg" width="176pt" height="54.827" viewBox="0 0 176 41.12"><defs><clipPath id="a"><path d="M150 36h5v5.121h-5Zm0 0"/></clipPath></defs><path d="m27.746 38.527 6.992-4.687h2.598l7.422 4.687H42.02l-2.09-1.441h-7.64l-2.02 1.441Zm5.266-1.949h6.125l-1.875-1.297a7.3 7.3 0 0 1-1.297-1.008c-.215.29-.578.579-1.008.864ZM48 38.528V33.84h2.379v4.687Zm7.57 0V33.84h8c1.586 0 2.809.074 3.676.144.863.075 1.512.215 2.016.434.504.215.722.434.722.719 0 .363-.433.648-1.226.867-.863.215-2.09.36-3.82.43.648.074 1.152.144 1.44.218.724.145 1.372.36 2.02.649l3.172 1.297h-3.027l-2.453-1.082a32 32 0 0 0-1.73-.649c-.43-.144-.864-.289-1.223-.289-.36-.07-.723-.07-1.082-.144h-4.18v2.093Zm2.375-2.669h5.192c1.082 0 1.945 0 2.593-.074.649-.07 1.082-.144 1.442-.285.289-.145.504-.29.504-.434 0-.214-.285-.433-.938-.578-.648-.144-1.582-.215-2.953-.215H58.02v1.586Zm16.653 2.668V33.84h2.375v4.18h8.937v.578H74.598Zm15.496 0V33.84h2.375v4.687Zm7.492 0V33.84h2.453l9.512 3.676V33.84h2.308v4.687h-2.453l-9.511-3.675v3.675Zm19.316 0V33.84h13.118v.578h-10.665v1.441h10.016v.575h-10.016v1.586h11.098v.578h-13.55Zm16.938-1.515 2.234-.07c.07.214.36.43.723.574.36.144 1.008.289 1.8.359.794.074 1.731.145 2.81.145.937 0 1.73 0 2.452-.07.72-.075 1.227-.145 1.586-.29.36-.144.504-.289.504-.433 0-.141-.144-.286-.504-.36-.36-.144-.867-.215-1.66-.289q-.757-.107-3.242-.215c-1.656-.07-2.813-.215-3.531-.289q-1.3-.216-1.946-.433c-.433-.141-.648-.36-.648-.575s.285-.433.793-.648c.504-.219 1.297-.36 2.305-.504a44 44 0 0 1 3.316-.144c1.367 0 2.523.07 3.531.144 1.008.145 1.801.285 2.38.504.573.215.862.434.862.719l-2.304.074c-.145-.29-.578-.504-1.227-.648-.719-.145-1.73-.22-3.172-.22-1.441 0-2.52.075-3.172.22-.644.144-1.007.289-1.007.503 0 .145.214.29.722.434.43.14 1.657.215 3.602.36 1.945.144 3.316.214 4.039.288 1.078.145 1.8.286 2.305.504.504.215.718.434.718.649s-.289.504-.793.719c-.574.218-1.367.363-2.379.507q-1.511.213-3.457.215-2.488-.002-4.109-.215c-1.082-.144-1.945-.289-2.594-.578-.578-.36-.937-.648-.937-.937M9.512 11.64c-.215 1.083.867.938 1.66.938 3.89 0 6.918-1.871 6.918-6.055 0-2.882-1.656-4.035-4.395-4.035-1.515 0-1.875.578-2.234 2.02ZM0 24.614l.145-.644c2.304 0 2.953-.723 3.53-2.957l4.18-15.64c.579-2.161.434-3.173-2.16-3.317l.14-.649h9.013c3.53 0 6.992 1.012 6.992 5.192 0 5.043-4.977 6.918-9.227 6.918-.722 0-2.957-.215-3.46.074-.071.07-.145.14-.145.285l-2.016 7.57c-.504 2.16.938 2.45 2.883 2.45l-.145.648H0zM133.91 21.156c-1.008 1.223-2.953 3.532-4.972 3.532-2.954 0-.575-4.973-.215-6.055-1.512 2.234-4.18 6.055-7.641 6.055-4.25 0-3.023-5.477-2.16-7.641 1.367-3.317 5.117-8.07 9.367-7.785 1.3 0 2.379.508 2.668 1.66l.434-1.371h2.738c-1.227 3.894-2.738 7.855-3.676 11.75-.07.289-.289.863.07 1.152 1.157.863 3.536-2.594 3.606-3.172Zm-5.62-11.027c-4.395 0-7.352 7.496-7.352 10.523 0 .864.652 2.09 1.804 2.09 2.883 0 5.836-5.406 6.63-7.351.577-1.371 1.874-5.262-1.083-5.262M33.012 21.156c-1.012 1.223-2.957 3.532-4.977 3.532-2.953 0-.574-4.973-.215-6.055-1.515 2.234-4.18 6.055-7.64 6.055-4.25 0-3.028-5.477-2.16-7.641 1.367-3.317 5.117-8.07 9.367-7.785 1.297 0 2.379.508 2.668 1.66l.433-1.371h2.739C32 13.445 30.488 17.406 29.55 21.3c-.074.289-.29.863.07 1.152 1.156.863 3.531-2.668 3.606-3.172ZM27.46 10.13c-4.398 0-7.352 7.496-7.352 10.523 0 .864.649 2.09 1.801 2.09 2.883 0 5.836-5.406 6.63-7.351.577-1.371 1.874-5.262-1.08-5.262M168.219 21.156c-1.008 1.223-2.953 3.532-4.973 3.532-2.957 0-.574-4.973-.215-6.055-1.515 2.234-4.18 6.055-7.64 6.055-4.254 0-3.028-5.477-2.16-7.641 1.367-3.317 5.117-8.07 9.367-7.785 1.297 0 2.379.508 2.668 1.66l.43-1.371h2.742c-1.227 3.894-2.743 7.855-3.676 11.75-.075.289-.29.863.07 1.152 1.152.863 3.531-2.668 3.606-3.172Zm-5.621-11.027c-4.399 0-7.352 7.496-7.352 10.523 0 .864.649 2.09 1.8 2.09 2.884 0 5.84-5.406 6.634-7.351.648-1.297 1.875-5.262-1.082-5.262" style="stroke:none;fill-rule:nonzero;fill:#222d60;fill-opacity:1"/><path d="M146.887 9.91c2.449-.504 4.25-2.664 5.476-4.683h.723l-1.227 4.253h2.739l-.215 1.082h-2.738c-.942 3.532-2.09 7.133-2.813 10.665-.289 1.37.434 1.875 1.512.793.433-.36 1.66-2.016 2.234-2.883l-.14 1.441c-1.157 1.586-2.813 3.895-5.047 3.895-1.946 0-1.66-2.02-1.297-3.317l2.808-10.593h-2.593z" style="stroke:none;fill-rule:nonzero;fill:#222d60;fill-opacity:1"/><path d="m146.383 10.633-.653 3.387h-.644c-.219-1.872-.941-4.11-3.535-4.11-.574 0-1.078.145-1.512.578-1.805 1.516.723 4.11 1.871 5.477 2.02 2.308 3.461 5.047.723 7.426-1.73 1.511-4.18 1.586-6.344 1.007-.574-.144-1.945-.718-2.23.145h-.723l.504-3.461.289-1.871h.648c.075 1.945.868 4.61 3.606 4.61.863 0 1.586-.286 2.09-.79 2.015-1.949.07-4.324-1.371-5.984-1.73-2.016-3.676-4.758-1.153-6.992 2.813-2.375 5.91-.215 8.938-.145zM168.438 19.426l4.105-15.207c.434-1.657-.145-2.09-1.945-2.164l.074-.575a46 46 0 0 0 4.32-.648c.867-.144 1.156-.144.942.793l-5.121 18.594c-.141.504-.793 2.379.218 2.379 1.008 0 2.09-1.66 2.594-2.305l.504.504c-.938 1.367-3.027 3.816-4.899 3.816-1.949 0-1.73-2.015-1.3-3.601zM103.066 19.355v-.218c-2.812 3.316-5.336 5.695-9.949 5.695-5.62 0-9.297-3.531-9.297-9.152 0-8.364 9.227-16.364 17.586-13.84 1.156.36 2.309 1.082 3.028-.29h.648l-1.297 6.704h-.648c0-3.313-.793-5.836-4.684-5.836-4.613 0-8.36 4.324-9.875 8.36-1.73 4.827-1.297 12.683 5.477 12.683 3.82 0 7.425-2.883 9.3-6.055 1.008-4.105 5.258-8.43 9.657-8.43 3.242 0 5.406 2.09 5.406 5.333 0 4.972-4.977 10.379-10.02 10.379-3.242 0-5.332-2.16-5.332-5.333m9.657-9.515c-5.407 0-9.946 13.91-4.035 13.91 5.476 0 9.874-13.91 4.035-13.91M78.273 20.797c-1.73 1.945-4.039 3.816-6.777 3.816-2.523 0-4.25-1.441-4.758-3.816-1.078 1.582-3.242 3.816-5.332 3.816-2.449 0-1.441-3.242-1.008-4.539l2.09-7.422c.145-.648.504-1.66-.36-2.02h-3.75l-1.366 6.415c-1.082 5.332-2.164 9.152-3.317 11.387-1.082 2.234-2.453 3.316-3.965 3.316-2.449 0-2.812-3.242-.863-3.242 2.09 0 .215 2.305 1.223 2.305 1.875 0 2.453-4.106 2.668-5.333l2.812-14.847h-1.73l.289-1.082h1.586c.574-1.512 1.078-3.602 2.305-5.621 1.945-3.098 4.972-5.551 8.289-2.594.863.793 1.586 2.379.574 3.387-1.586 1.515-4.035-.864-2.305-2.45.07-.218-.07-.433-.219-.503-3.89-2.743-5.117 4.18-5.906 7.78h3.82c1.582 0 1.946-.214 2.954-.429.937-.219.937.07.722.863l-3.172 10.45c-.074.289-.433 1.156-.074 2.02 1.012 1.151 3.172-1.802 3.531-2.235.36-1.73.29-1.73.504-2.668.723-4.469 4.832-8.504 9.516-8.504 1.512 0 3.316.723 3.316 2.45 0 3.1-4.468 1.874-2.668-.43.649-.868.29-1.083-.722-1.083-6.196 0-9.586 13.262-3.602 13.262 2.09 0 3.82-1.441 5.117-2.883zM49.8 3.57c0-2.164 3.317-2.234 3.317 0s-3.316 2.16-3.316 0" style="stroke:none;fill-rule:nonzero;fill:#222d60;fill-opacity:1"/><path d="m46.344 10.418.144-.578c1.512-.145 3.028-.434 4.469-.719.938-.219.938.07.719.863l-3.098 10.45c-.144.578-.433 1.515-.074 2.02.793 1.151 2.957-1.802 3.246-2.235l.504.504c-1.082 1.586-3.027 3.965-5.117 3.965-2.453 0-1.442-3.243-1.008-4.54l2.09-7.425c.574-1.801 0-2.305-1.875-2.305M32.863 19.137c-.07-4.973 4.543-10.16 9.59-10.16 1.442 0 3.242.718 3.242 2.449 0 3.097-4.398 1.875-2.593-.434.648-.863.285-1.082-.723-1.082-6.055 0-9.441 13.262-3.531 13.262 2.02 0 3.746-1.442 5.047-2.879l.503.574c-1.73 1.945-3.964 3.82-6.703 3.82-2.812 0-4.468-1.8-4.757-4.539z" style="stroke:none;fill-rule:nonzero;fill:#222d60;fill-opacity:1"/><g clip-path="url(#a)"><path d="M152.508 36.867c-1.082 0-2.02.867-2.02 2.02 0 1.082.867 2.015 2.02 2.015a2.01 2.01 0 0 0 2.015-2.015c0-1.082-.863-2.02-2.015-2.02m2.234 2.02a2.25 2.25 0 0 1-2.234 2.234 2.247 2.247 0 0 1-2.235-2.234 2.244 2.244 0 0 1 2.235-2.235c1.297 0 2.234 1.008 2.234 2.235" style="stroke:none;fill-rule:nonzero;fill:#222d60;fill-opacity:1"/></g><path d="M152.004 38.668h.574c.145 0 .219 0 .29-.07.07 0 .144-.07.144-.145.074-.07.074-.144.074-.215 0-.144-.074-.218-.149-.289a.53.53 0 0 0-.359-.144h-.648v.863Zm-.29 1.441v-2.593h.938c.215 0 .36 0 .434.074l.215.215c.07.144.07.215.07.36 0 .218-.07.362-.14.503q-.113.218-.434.219c.07.07.14.07.14.144.075.07.149.215.22.36l.359.718h-.36l-.289-.504q-.216-.322-.215-.43l-.144-.144c-.07 0-.145-.074-.219-.074h-.285v1.152z" style="stroke:none;fill-rule:nonzero;fill:#222d60;fill-opacity:1"/></svg>