<svg xmlns="http://www.w3.org/2000/svg" width="176pt" height="37.027" viewBox="0 0 176 27.77"><defs><clipPath id="a"><path d="M0 0h36v27.77H0Zm0 0"/></clipPath><clipPath id="b"><path d="M126 9h20v18.77h-20Zm0 0"/></clipPath><clipPath id="c"><path d="M148 9h19v18.77h-19Zm0 0"/></clipPath><clipPath id="d"><path d="M73 9h18v18.77H73Zm0 0"/></clipPath><clipPath id="e"><path d="M41 9h22v18.77H41Zm0 0"/></clipPath><clipPath id="f"><path d="M99 9h15v18.77H99Zm0 0"/></clipPath><clipPath id="g"><path d="M116 9h8v18.77h-8Zm0 0"/></clipPath><clipPath id="h"><path d="M63 9h8v18.77h-8Zm0 0"/></clipPath><clipPath id="i"><path d="M169 9h7v18.77h-7Zm0 0"/></clipPath><clipPath id="j"><path d="M22 15h14v12.77H22Zm0 0"/></clipPath></defs><g clip-path="url(#a)"><path d="M35.531 0c0 .121.008.242.008.36v13.527a1 1 0 0 1-.043.05c-.008.004-.02.012-.027.012q-4.431.011-8.864.016c-.054 0-.105-.008-.199-.016.551-1.926 1.102-3.836 1.657-5.773h-.918l-2.024 5.789h-4.59v1.215c1.332.027 2.664-.004 4.032.015-.067.172-.122.32-.176.47-1.047 2.663-2.18 5.292-3.469 7.855-.469.93-.988 1.832-1.688 2.617-.574.644-1.238 1.16-2.09 1.375-.261.066-.53.093-.8.125-.16.02-.324.008-.488.008H0l.66-1.282c.067-.008.133-.02.195-.023 1.227-.047 2.454-.07 3.676-.145 1.246-.074 2.489-.215 3.692-.574.605-.18 1.183-.422 1.707-.777.386-.262.687-.598.965-.965 1.558-2.078 3.035-4.211 4.285-6.488.687-1.258 1.324-2.54 1.996-3.805q2.861-5.353 5.722-10.707c.454-.852.883-1.715 1.32-2.578.052-.09.067-.2.098-.301z" style="stroke:none;fill-rule:nonzero;fill:#6c1821;fill-opacity:1"/></g><g clip-path="url(#b)"><path d="M126.723 27.77q.007-.196.007-.391V9.199c.262-.074 5.45-.105 6.555-.039l5.695 9.602c.016-.008.036-.012.051-.016-.02-.219-.047-.433-.058-.652-.04-.594-.098-1.192-.102-1.785-.012-2.305-.008-4.606-.012-6.91 0-.075.012-.149.016-.235h6.406c.008.082.024.152.024.227v18.28c0 .032-.004.067-.004.099h-6.586q-1.228-2.071-2.457-4.141l-3.047-5.152c-.055-.09-.117-.172-.172-.258.043.832.121 1.64.125 2.453.02 2.367.008 4.73.012 7.098z" style="stroke:none;fill-rule:nonzero;fill:#6c1821;fill-opacity:1"/></g><g clip-path="url(#c)"><path d="M155.395 22.07c.054.012.093.028.136.028.762-.016 1.516-.102 2.235-.368.98-.363 1.597-1.054 1.832-2.074q.271-1.196-.004-2.386-.376-1.564-1.895-2.102c-.664-.234-1.351-.3-2.047-.305-.086 0-.168.016-.257.024zm-6.641 5.7q-.002-.178-.004-.36V9.172c.098-.008.18-.024.262-.024 1.922-.003 3.843-.015 5.765.008 1.317.016 2.625.094 3.926.305 2.984.48 5.25 2.008 6.754 4.637.543.953.844 1.992.973 3.082.175 1.52.078 3.011-.442 4.46-.687 1.926-1.953 3.38-3.656 4.485-1.086.703-2.277 1.105-3.543 1.316a22 22 0 0 1-2.976.274c-.118.004-.231.035-.344.055z" style="stroke:none;fill-rule:nonzero;fill:#6c1821;fill-opacity:1"/></g><g clip-path="url(#d)"><path d="M80.21 13.96c-.07.63-.042 3.403.048 3.661.508-.027 1.027-.02 1.543-.09.676-.09 1.16-.465 1.351-1.148.04-.145.067-.297.075-.445.035-.993-.348-1.797-1.508-1.965-.489-.07-.992-.012-1.508-.012m-6.55 13.81a11 11 0 0 1-.008-.356V9.145h.352c2.703 0 5.406-.008 8.11.003 1.253.008 2.491.141 3.679.575 1.07.394 1.992 1.004 2.684 1.93.566.769.875 1.64 1.007 2.577.121.852.125 1.707-.054 2.56-.223 1.062-.711 1.972-1.582 2.648-.48.375-1.032.593-1.63.703-.062.011-.124.027-.198.043 0 .14.093.222.156.316l4.605 7.02q.082.125.153.25H83.44c-.007-.02-.011-.043-.02-.063-1.034-1.957-2.07-3.91-3.105-5.867-.023-.043-.066-.074-.136-.149v6.079z" style="stroke:none;fill-rule:nonzero;fill:#6c1821;fill-opacity:1"/></g><g clip-path="url(#e)"><path d="M51.766 14.809c-.036-.004-.067-.008-.102-.008-.125 2.125-.812 4.125-1.32 6.164.41.062 2.535.047 2.761-.02-.214-.816-.437-1.633-.648-2.449-.297-1.156-.586-2.312-.648-3.512-.004-.058-.028-.117-.043-.175M41.46 27.769c.652-1.828 1.309-3.656 1.957-5.48q2.295-6.438 4.59-12.871.042-.115.097-.254h7.426c.04.106.094.219.133.34 2.106 6.02 4.211 12.035 6.313 18.055l.082.21h-7.235c-.039-.21-.07-.421-.12-.628-.138-.567-.286-1.13-.43-1.707h-5.06q-.293 1.176-.581 2.336z" style="stroke:none;fill-rule:nonzero;fill:#6c1821;fill-opacity:1"/></g><g clip-path="url(#f)"><path d="M103.582 27.77c.004-.106.016-.215.016-.325V15.25c-1.239-.023-2.457.004-3.7-.016V9.16h14.09v6.07c-.406.024-.812.008-1.222.008-.403.004-.805 0-1.207 0h-1.246c-.012.098-.024.172-.024.246v12.188q.001.048.008.098z" style="stroke:none;fill-rule:nonzero;fill:#6c1821;fill-opacity:1"/></g><g clip-path="url(#g)"><path d="M116.293 27.77c.008-.141.02-.282.02-.418V9.164h6.757q.026.1.04.207c.003.086 0 .172 0 .262v17.719c0 .136.019.277.027.418z" style="stroke:none;fill-rule:nonzero;fill:#6c1821;fill-opacity:1"/></g><g clip-path="url(#h)"><path d="M63.23 27.77V9.203c.243-.07 6.278-.09 6.782-.023v18.59z" style="stroke:none;fill-rule:nonzero;fill:#6c1821;fill-opacity:1"/></g><g clip-path="url(#i)"><path d="M169.223 27.77c-.004-.11-.004-.215-.004-.325v-18.3h6.426c.117 0 .238-.012.355-.016v18.64z" style="stroke:none;fill-rule:nonzero;fill:#6c1821;fill-opacity:1"/></g><g clip-path="url(#j)"><path d="M26.02 15.2h9.457l.03.03q.015.012.016.024l.012 12.086c0 .086-.008.172-.012.277-.09.012-.171.028-.253.028q-5.296.001-10.59-.004c-.164 0-.328 0-.485-.032-.82-.156-1.3-.691-1.441-1.55-.117-.723-.035-1.43.101-2.133.286-1.422.77-2.781 1.293-4.125.575-1.485 1.192-2.953 1.793-4.43.02-.05.043-.098.079-.172" style="stroke:none;fill-rule:nonzero;fill:#6c1821;fill-opacity:1"/></g></svg>