<?xml version="1.0" encoding="UTF-8"?>
<svg xmlns="http://www.w3.org/2000/svg" xmlns:xlink="http://www.w3.org/1999/xlink" width="176pt" height="24.59pt" viewBox="0 0 176 24.59" version="1.1">
<defs>
<clipPath id="clip1">
  <path d="M 0 12 L 25 12 L 25 24 L 0 24 Z M 0 12 "/>
</clipPath>
<clipPath id="clip2">
  <path d="M 42.527344 23.515625 C 42.527344 23.515625 13.804688 3.640625 0 17.105469 C 16.679688 12.789062 33.167969 28.773438 42.527344 23.515625 Z M 42.527344 23.515625 "/>
</clipPath>
<clipPath id="clip3">
  <path d="M 5 12 L 25 12 L 25 24 L 5 24 Z M 5 12 "/>
</clipPath>
<clipPath id="clip4">
  <path d="M 42.527344 23.515625 C 42.527344 23.515625 13.804688 3.640625 0 17.105469 C 16.679688 12.789062 33.167969 28.773438 42.527344 23.515625 Z M 42.527344 23.515625 "/>
</clipPath>
<clipPath id="clip5">
  <path d="M 5 12 L 26 12 L 26 24 L 5 24 Z M 5 12 "/>
</clipPath>
<clipPath id="clip6">
  <path d="M 42.527344 23.515625 C 42.527344 23.515625 13.804688 3.640625 0 17.105469 C 16.679688 12.789062 33.167969 28.773438 42.527344 23.515625 Z M 42.527344 23.515625 "/>
</clipPath>
<clipPath id="clip7">
  <path d="M 6 12 L 26 12 L 26 24 L 6 24 Z M 6 12 "/>
</clipPath>
<clipPath id="clip8">
  <path d="M 42.527344 23.515625 C 42.527344 23.515625 13.804688 3.640625 0 17.105469 C 16.679688 12.789062 33.167969 28.773438 42.527344 23.515625 Z M 42.527344 23.515625 "/>
</clipPath>
<clipPath id="clip9">
  <path d="M 6 12 L 26 12 L 26 24.589844 L 6 24.589844 Z M 6 12 "/>
</clipPath>
<clipPath id="clip10">
  <path d="M 42.527344 23.515625 C 42.527344 23.515625 13.804688 3.640625 0 17.105469 C 16.679688 12.789062 33.167969 28.773438 42.527344 23.515625 Z M 42.527344 23.515625 "/>
</clipPath>
<clipPath id="clip11">
  <path d="M 6 12 L 27 12 L 27 24.589844 L 6 24.589844 Z M 6 12 "/>
</clipPath>
<clipPath id="clip12">
  <path d="M 42.527344 23.515625 C 42.527344 23.515625 13.804688 3.640625 0 17.105469 C 16.679688 12.789062 33.167969 28.773438 42.527344 23.515625 Z M 42.527344 23.515625 "/>
</clipPath>
<clipPath id="clip13">
  <path d="M 7 12 L 27 12 L 27 24.589844 L 7 24.589844 Z M 7 12 "/>
</clipPath>
<clipPath id="clip14">
  <path d="M 42.527344 23.515625 C 42.527344 23.515625 13.804688 3.640625 0 17.105469 C 16.679688 12.789062 33.167969 28.773438 42.527344 23.515625 Z M 42.527344 23.515625 "/>
</clipPath>
<clipPath id="clip15">
  <path d="M 7 12 L 28 12 L 28 24.589844 L 7 24.589844 Z M 7 12 "/>
</clipPath>
<clipPath id="clip16">
  <path d="M 42.527344 23.515625 C 42.527344 23.515625 13.804688 3.640625 0 17.105469 C 16.679688 12.789062 33.167969 28.773438 42.527344 23.515625 Z M 42.527344 23.515625 "/>
</clipPath>
<clipPath id="clip17">
  <path d="M 7 12 L 43 12 L 43 24.589844 L 7 24.589844 Z M 7 12 "/>
</clipPath>
<clipPath id="clip18">
  <path d="M 42.527344 23.515625 C 42.527344 23.515625 13.804688 3.640625 0 17.105469 C 16.679688 12.789062 33.167969 28.773438 42.527344 23.515625 Z M 42.527344 23.515625 "/>
</clipPath>
<clipPath id="clip19">
  <path d="M 8 5 L 30 5 L 30 16 L 8 16 Z M 8 5 "/>
</clipPath>
<clipPath id="clip20">
  <path d="M 45.246094 15.433594 C 45.246094 15.433594 19.882812 -2.113281 7.695312 9.773438 C 22.421875 5.960938 36.980469 20.078125 45.246094 15.433594 Z M 45.246094 15.433594 "/>
</clipPath>
<clipPath id="clip21">
  <path d="M 12 5 L 30 5 L 30 16 L 12 16 Z M 12 5 "/>
</clipPath>
<clipPath id="clip22">
  <path d="M 45.246094 15.433594 C 45.246094 15.433594 19.882812 -2.113281 7.695312 9.773438 C 22.421875 5.960938 36.980469 20.078125 45.246094 15.433594 Z M 45.246094 15.433594 "/>
</clipPath>
<clipPath id="clip23">
  <path d="M 12 5 L 31 5 L 31 16 L 12 16 Z M 12 5 "/>
</clipPath>
<clipPath id="clip24">
  <path d="M 45.246094 15.433594 C 45.246094 15.433594 19.882812 -2.113281 7.695312 9.773438 C 22.421875 5.960938 36.980469 20.078125 45.246094 15.433594 Z M 45.246094 15.433594 "/>
</clipPath>
<clipPath id="clip25">
  <path d="M 13 5 L 31 5 L 31 16 L 13 16 Z M 13 5 "/>
</clipPath>
<clipPath id="clip26">
  <path d="M 45.246094 15.433594 C 45.246094 15.433594 19.882812 -2.113281 7.695312 9.773438 C 22.421875 5.960938 36.980469 20.078125 45.246094 15.433594 Z M 45.246094 15.433594 "/>
</clipPath>
<clipPath id="clip27">
  <path d="M 13 5 L 31 5 L 31 17 L 13 17 Z M 13 5 "/>
</clipPath>
<clipPath id="clip28">
  <path d="M 45.246094 15.433594 C 45.246094 15.433594 19.882812 -2.113281 7.695312 9.773438 C 22.421875 5.960938 36.980469 20.078125 45.246094 15.433594 Z M 45.246094 15.433594 "/>
</clipPath>
<clipPath id="clip29">
  <path d="M 13 5 L 32 5 L 32 17 L 13 17 Z M 13 5 "/>
</clipPath>
<clipPath id="clip30">
  <path d="M 45.246094 15.433594 C 45.246094 15.433594 19.882812 -2.113281 7.695312 9.773438 C 22.421875 5.960938 36.980469 20.078125 45.246094 15.433594 Z M 45.246094 15.433594 "/>
</clipPath>
<clipPath id="clip31">
  <path d="M 14 5 L 32 5 L 32 17 L 14 17 Z M 14 5 "/>
</clipPath>
<clipPath id="clip32">
  <path d="M 45.246094 15.433594 C 45.246094 15.433594 19.882812 -2.113281 7.695312 9.773438 C 22.421875 5.960938 36.980469 20.078125 45.246094 15.433594 Z M 45.246094 15.433594 "/>
</clipPath>
<clipPath id="clip33">
  <path d="M 14 5 L 45 5 L 45 17 L 14 17 Z M 14 5 "/>
</clipPath>
<clipPath id="clip34">
  <path d="M 45.246094 15.433594 C 45.246094 15.433594 19.882812 -2.113281 7.695312 9.773438 C 22.421875 5.960938 36.980469 20.078125 45.246094 15.433594 Z M 45.246094 15.433594 "/>
</clipPath>
<clipPath id="clip35">
  <path d="M 15 0 L 35 0 L 35 9 L 15 9 Z M 15 0 "/>
</clipPath>
<clipPath id="clip36">
  <path d="M 48.84375 8.859375 C 48.84375 8.859375 25.902344 -7.015625 14.875 3.738281 C 28.195312 0.289062 41.363281 13.058594 48.84375 8.859375 Z M 48.84375 8.859375 "/>
</clipPath>
<clipPath id="clip37">
  <path d="M 19 0 L 35 0 L 35 9 L 19 9 Z M 19 0 "/>
</clipPath>
<clipPath id="clip38">
  <path d="M 48.84375 8.859375 C 48.84375 8.859375 25.902344 -7.015625 14.875 3.738281 C 28.195312 0.289062 41.363281 13.058594 48.84375 8.859375 Z M 48.84375 8.859375 "/>
</clipPath>
<clipPath id="clip39">
  <path d="M 19 0 L 36 0 L 36 9 L 19 9 Z M 19 0 "/>
</clipPath>
<clipPath id="clip40">
  <path d="M 48.84375 8.859375 C 48.84375 8.859375 25.902344 -7.015625 14.875 3.738281 C 28.195312 0.289062 41.363281 13.058594 48.84375 8.859375 Z M 48.84375 8.859375 "/>
</clipPath>
<clipPath id="clip41">
  <path d="M 19 0 L 36 0 L 36 10 L 19 10 Z M 19 0 "/>
</clipPath>
<clipPath id="clip42">
  <path d="M 48.84375 8.859375 C 48.84375 8.859375 25.902344 -7.015625 14.875 3.738281 C 28.195312 0.289062 41.363281 13.058594 48.84375 8.859375 Z M 48.84375 8.859375 "/>
</clipPath>
<clipPath id="clip43">
  <path d="M 20 0 L 36 0 L 36 10 L 20 10 Z M 20 0 "/>
</clipPath>
<clipPath id="clip44">
  <path d="M 48.84375 8.859375 C 48.84375 8.859375 25.902344 -7.015625 14.875 3.738281 C 28.195312 0.289062 41.363281 13.058594 48.84375 8.859375 Z M 48.84375 8.859375 "/>
</clipPath>
<clipPath id="clip45">
  <path d="M 20 0 L 37 0 L 37 10 L 20 10 Z M 20 0 "/>
</clipPath>
<clipPath id="clip46">
  <path d="M 48.84375 8.859375 C 48.84375 8.859375 25.902344 -7.015625 14.875 3.738281 C 28.195312 0.289062 41.363281 13.058594 48.84375 8.859375 Z M 48.84375 8.859375 "/>
</clipPath>
<clipPath id="clip47">
  <path d="M 20 0 L 49 0 L 49 10 L 20 10 Z M 20 0 "/>
</clipPath>
<clipPath id="clip48">
  <path d="M 48.84375 8.859375 C 48.84375 8.859375 25.902344 -7.015625 14.875 3.738281 C 28.195312 0.289062 41.363281 13.058594 48.84375 8.859375 Z M 48.84375 8.859375 "/>
</clipPath>
</defs>
<g id="surface1">
<g clip-path="url(#clip1)" clip-rule="nonzero">
<g clip-path="url(#clip2)" clip-rule="evenodd">
<path style=" stroke:none;fill-rule:evenodd;fill:rgb(59.674072%,83.839417%,87.164307%);fill-opacity:1;" d="M 23.949219 4 L 24.96875 4.894531 L 5.5 23.300781 L 0 17.421875 L 0 4 L 23.949219 4 "/>
</g>
</g>
<g clip-path="url(#clip3)" clip-rule="nonzero">
<g clip-path="url(#clip4)" clip-rule="evenodd">
<path style=" stroke:none;fill-rule:evenodd;fill:rgb(59.674072%,83.839417%,87.164307%);fill-opacity:1;" d="M 24.96875 4.714844 L 24.996094 4.746094 L 5.527344 23.242188 L 5.5 23.210938 L 24.96875 4.714844 "/>
</g>
</g>
<g clip-path="url(#clip5)" clip-rule="nonzero">
<g clip-path="url(#clip6)" clip-rule="evenodd">
<path style=" stroke:none;fill-rule:evenodd;fill:rgb(59.306335%,83.847046%,87.130737%);fill-opacity:1;" d="M 24.996094 4.746094 L 25.027344 4.773438 L 5.554688 23.269531 L 5.527344 23.242188 L 24.996094 4.746094 "/>
<path style=" stroke:none;fill-rule:evenodd;fill:rgb(58.934021%,83.439636%,87.225342%);fill-opacity:1;" d="M 25.027344 4.773438 L 25.054688 4.804688 L 5.585938 23.300781 L 5.554688 23.269531 L 25.027344 4.773438 "/>
<path style=" stroke:none;fill-rule:evenodd;fill:rgb(58.613586%,83.460999%,87.213135%);fill-opacity:1;" d="M 25.054688 4.804688 L 25.085938 4.835938 L 5.613281 23.332031 L 5.585938 23.300781 L 25.054688 4.804688 "/>
<path style=" stroke:none;fill-rule:evenodd;fill:rgb(58.244324%,83.483887%,86.735535%);fill-opacity:1;" d="M 25.085938 4.835938 L 25.113281 4.867188 L 5.644531 23.363281 L 5.613281 23.332031 L 25.085938 4.835938 "/>
<path style=" stroke:none;fill-rule:evenodd;fill:rgb(57.946777%,83.505249%,86.721802%);fill-opacity:1;" d="M 25.113281 4.867188 L 25.144531 4.898438 L 5.671875 23.394531 L 5.644531 23.363281 L 25.113281 4.867188 "/>
<path style=" stroke:none;fill-rule:evenodd;fill:rgb(57.597351%,83.123779%,86.825562%);fill-opacity:1;" d="M 25.144531 4.898438 L 25.171875 4.929688 L 5.703125 23.425781 L 5.671875 23.394531 L 25.144531 4.898438 "/>
<path style=" stroke:none;fill-rule:evenodd;fill:rgb(57.254028%,83.129883%,86.830139%);fill-opacity:1;" d="M 25.171875 4.929688 L 25.203125 4.960938 L 5.730469 23.457031 L 5.703125 23.425781 L 25.171875 4.929688 "/>
<path style=" stroke:none;fill-rule:evenodd;fill:rgb(56.933594%,83.145142%,86.817932%);fill-opacity:1;" d="M 25.203125 4.960938 L 25.230469 4.988281 L 5.761719 23.484375 L 5.730469 23.457031 L 25.203125 4.960938 "/>
<path style=" stroke:none;fill-rule:evenodd;fill:rgb(56.613159%,83.164978%,86.808777%);fill-opacity:1;" d="M 25.230469 4.988281 L 25.261719 5.019531 L 5.789062 23.515625 L 5.761719 23.484375 L 25.230469 4.988281 "/>
<path style=" stroke:none;fill-rule:evenodd;fill:rgb(56.214905%,82.749939%,86.408997%);fill-opacity:1;" d="M 25.261719 5.019531 L 25.289062 5.050781 L 5.820312 23.546875 L 5.789062 23.515625 L 25.261719 5.019531 "/>
<path style=" stroke:none;fill-rule:evenodd;fill:rgb(55.895996%,82.76062%,86.413574%);fill-opacity:1;" d="M 25.289062 5.050781 L 25.320312 5.082031 L 5.847656 23.578125 L 5.820312 23.546875 L 25.289062 5.050781 "/>
<path style=" stroke:none;fill-rule:evenodd;fill:rgb(55.549622%,82.769775%,86.401367%);fill-opacity:1;" d="M 25.320312 5.082031 L 25.347656 5.113281 L 5.875 23.609375 L 5.847656 23.578125 L 25.320312 5.082031 "/>
<path style=" stroke:none;fill-rule:evenodd;fill:rgb(55.204773%,82.783508%,86.393738%);fill-opacity:1;" d="M 25.347656 5.113281 L 25.378906 5.144531 L 5.90625 23.640625 L 5.875 23.609375 L 25.347656 5.113281 "/>
<path style=" stroke:none;fill-rule:evenodd;fill:rgb(54.859924%,82.366943%,86.514282%);fill-opacity:1;" d="M 25.378906 5.144531 L 25.40625 5.175781 L 5.933594 23.671875 L 5.90625 23.640625 L 25.378906 5.144531 "/>
<path style=" stroke:none;fill-rule:evenodd;fill:rgb(54.51355%,82.373047%,86.520386%);fill-opacity:1;" d="M 25.40625 5.175781 L 25.433594 5.203125 L 5.964844 23.699219 L 5.933594 23.671875 L 25.40625 5.175781 "/>
<path style=" stroke:none;fill-rule:evenodd;fill:rgb(54.069519%,82.385254%,85.980225%);fill-opacity:1;" d="M 25.433594 5.203125 L 25.464844 5.234375 L 5.992188 23.730469 L 5.964844 23.699219 L 25.433594 5.203125 "/>
<path style=" stroke:none;fill-rule:evenodd;fill:rgb(53.723145%,82.403564%,85.975647%);fill-opacity:1;" d="M 25.464844 5.234375 L 25.492188 5.265625 L 6.023438 23.761719 L 5.992188 23.730469 L 25.464844 5.234375 "/>
</g>
</g>
<g clip-path="url(#clip7)" clip-rule="nonzero">
<g clip-path="url(#clip8)" clip-rule="evenodd">
<path style=" stroke:none;fill-rule:evenodd;fill:rgb(53.379822%,81.980896%,86.11145%);fill-opacity:1;" d="M 25.492188 5.265625 L 25.523438 5.296875 L 6.050781 23.792969 L 6.023438 23.761719 L 25.492188 5.265625 "/>
<path style=" stroke:none;fill-rule:evenodd;fill:rgb(53.057861%,82.002258%,86.103821%);fill-opacity:1;" d="M 25.523438 5.296875 L 25.550781 5.328125 L 6.082031 23.824219 L 6.050781 23.792969 L 25.523438 5.296875 "/>
<path style=" stroke:none;fill-rule:evenodd;fill:rgb(52.757263%,82.034302%,86.100769%);fill-opacity:1;" d="M 25.550781 5.328125 L 25.582031 5.359375 L 6.109375 23.855469 L 6.082031 23.824219 L 25.550781 5.328125 "/>
<path style=" stroke:none;fill-rule:evenodd;fill:rgb(52.435303%,82.058716%,86.096191%);fill-opacity:1;" d="M 25.582031 5.359375 L 25.609375 5.386719 L 6.140625 23.882812 L 6.109375 23.855469 L 25.582031 5.359375 "/>
<path style=" stroke:none;fill-rule:evenodd;fill:rgb(52.018738%,81.646729%,85.704041%);fill-opacity:1;" d="M 25.609375 5.386719 L 25.640625 5.417969 L 6.167969 23.914062 L 6.140625 23.882812 L 25.609375 5.386719 "/>
<path style=" stroke:none;fill-rule:evenodd;fill:rgb(51.670837%,81.658936%,85.696411%);fill-opacity:1;" d="M 25.640625 5.417969 L 25.667969 5.449219 L 6.199219 23.945312 L 6.167969 23.914062 L 25.640625 5.417969 "/>
<path style=" stroke:none;fill-rule:evenodd;fill:rgb(51.322937%,81.671143%,85.708618%);fill-opacity:1;" d="M 25.667969 5.449219 L 25.699219 5.480469 L 6.226562 23.976562 L 6.199219 23.945312 L 25.667969 5.449219 "/>
</g>
</g>
<g clip-path="url(#clip9)" clip-rule="nonzero">
<g clip-path="url(#clip10)" clip-rule="evenodd">
<path style=" stroke:none;fill-rule:evenodd;fill:rgb(50.984192%,81.245422%,85.801697%);fill-opacity:1;" d="M 25.699219 5.480469 L 25.726562 5.511719 L 6.253906 24.007812 L 6.226562 23.976562 L 25.699219 5.480469 "/>
<path style=" stroke:none;fill-rule:evenodd;fill:rgb(50.636292%,81.248474%,85.78949%);fill-opacity:1;" d="M 25.726562 5.511719 L 25.753906 5.542969 L 6.285156 24.039062 L 6.253906 24.007812 L 25.726562 5.511719 "/>
<path style=" stroke:none;fill-rule:evenodd;fill:rgb(50.360107%,81.27594%,85.783386%);fill-opacity:1;" d="M 25.753906 5.542969 L 25.785156 5.574219 L 6.3125 24.070312 L 6.285156 24.039062 L 25.753906 5.542969 "/>
<path style=" stroke:none;fill-rule:evenodd;fill:rgb(49.960327%,81.321716%,85.359192%);fill-opacity:1;" d="M 25.785156 5.574219 L 25.8125 5.601562 L 6.34375 24.097656 L 6.3125 24.070312 L 25.785156 5.574219 "/>
<path style=" stroke:none;fill-rule:evenodd;fill:rgb(49.598694%,80.879211%,85.40802%);fill-opacity:1;" d="M 25.8125 5.601562 L 25.84375 5.632812 L 6.371094 24.128906 L 6.34375 24.097656 L 25.8125 5.601562 "/>
<path style=" stroke:none;fill-rule:evenodd;fill:rgb(49.201965%,80.867004%,85.415649%);fill-opacity:1;" d="M 25.84375 5.632812 L 25.871094 5.664062 L 6.402344 24.160156 L 6.371094 24.128906 L 25.84375 5.632812 "/>
<path style=" stroke:none;fill-rule:evenodd;fill:rgb(48.999023%,80.911255%,85.406494%);fill-opacity:1;" d="M 25.871094 5.664062 L 25.902344 5.695312 L 6.429688 24.191406 L 6.402344 24.160156 L 25.871094 5.664062 "/>
<path style=" stroke:none;fill-rule:evenodd;fill:rgb(48.796082%,80.957031%,85.398865%);fill-opacity:1;" d="M 25.902344 5.695312 L 25.929688 5.726562 L 6.460938 24.222656 L 6.429688 24.191406 L 25.902344 5.695312 "/>
<path style=" stroke:none;fill-rule:evenodd;fill:rgb(48.243713%,80.450439%,85.437012%);fill-opacity:1;" d="M 25.929688 5.726562 L 25.960938 5.757812 L 6.488281 24.253906 L 6.460938 24.222656 L 25.929688 5.726562 "/>
<path style=" stroke:none;fill-rule:evenodd;fill:rgb(48.036194%,80.54657%,85.021973%);fill-opacity:1;" d="M 25.960938 5.757812 L 25.988281 5.789062 L 6.519531 24.285156 L 6.488281 24.253906 L 25.960938 5.757812 "/>
</g>
</g>
<g clip-path="url(#clip11)" clip-rule="nonzero">
<g clip-path="url(#clip12)" clip-rule="evenodd">
<path style=" stroke:none;fill-rule:evenodd;fill:rgb(47.637939%,80.522156%,85.005188%);fill-opacity:1;" d="M 25.988281 5.789062 L 26.019531 5.816406 L 6.546875 24.3125 L 6.519531 24.285156 L 25.988281 5.789062 "/>
<path style=" stroke:none;fill-rule:evenodd;fill:rgb(47.436523%,80.558777%,84.994507%);fill-opacity:1;" d="M 26.019531 5.816406 L 26.046875 5.847656 L 6.574219 24.34375 L 6.546875 24.3125 L 26.019531 5.816406 "/>
<path style=" stroke:none;fill-rule:evenodd;fill:rgb(46.882629%,80.09491%,85.03418%);fill-opacity:1;" d="M 26.046875 5.847656 L 26.074219 5.878906 L 6.605469 24.375 L 6.574219 24.34375 L 26.046875 5.847656 "/>
<path style=" stroke:none;fill-rule:evenodd;fill:rgb(46.487427%,80.059814%,85.015869%);fill-opacity:1;" d="M 26.074219 5.878906 L 26.105469 5.910156 L 6.632812 24.40625 L 6.605469 24.375 L 26.074219 5.878906 "/>
<path style=" stroke:none;fill-rule:evenodd;fill:rgb(46.284485%,80.079651%,84.994507%);fill-opacity:1;" d="M 26.105469 5.910156 L 26.132812 5.941406 L 6.664062 24.4375 L 6.632812 24.40625 L 26.105469 5.910156 "/>
<path style=" stroke:none;fill-rule:evenodd;fill:rgb(45.881653%,80.093384%,84.532166%);fill-opacity:1;" d="M 26.132812 5.941406 L 26.164062 5.972656 L 6.691406 24.46875 L 6.664062 24.4375 L 26.132812 5.941406 "/>
<path style=" stroke:none;fill-rule:evenodd;fill:rgb(45.527649%,79.626465%,84.599304%);fill-opacity:1;" d="M 26.164062 5.972656 L 26.191406 6 L 6.722656 24.496094 L 6.691406 24.46875 L 26.164062 5.972656 "/>
<path style=" stroke:none;fill-rule:evenodd;fill:rgb(45.133972%,79.588318%,84.580994%);fill-opacity:1;" d="M 26.191406 6 L 26.222656 6.03125 L 6.75 24.527344 L 6.722656 24.496094 L 26.191406 6 "/>
<path style=" stroke:none;fill-rule:evenodd;fill:rgb(44.932556%,79.60968%,84.561157%);fill-opacity:1;" d="M 26.222656 6.03125 L 26.25 6.0625 L 6.78125 24.558594 L 6.75 24.527344 L 26.222656 6.03125 "/>
<path style=" stroke:none;fill-rule:evenodd;fill:rgb(44.534302%,79.576111%,84.545898%);fill-opacity:1;" d="M 26.25 6.0625 L 26.28125 6.09375 L 6.808594 24.589844 L 6.78125 24.558594 L 26.25 6.0625 "/>
<path style=" stroke:none;fill-rule:evenodd;fill:rgb(44.371033%,79.223633%,84.712219%);fill-opacity:1;" d="M 26.28125 6.09375 L 26.308594 6.125 L 6.835938 24.621094 L 6.808594 24.589844 L 26.28125 6.09375 "/>
<path style=" stroke:none;fill-rule:evenodd;fill:rgb(43.972778%,79.203796%,84.182739%);fill-opacity:1;" d="M 26.308594 6.125 L 26.339844 6.15625 L 6.867188 24.652344 L 6.835938 24.621094 L 26.308594 6.125 "/>
<path style=" stroke:none;fill-rule:evenodd;fill:rgb(43.771362%,79.229736%,84.169006%);fill-opacity:1;" d="M 26.339844 6.15625 L 26.367188 6.1875 L 6.894531 24.683594 L 6.867188 24.652344 L 26.339844 6.15625 "/>
<path style=" stroke:none;fill-rule:evenodd;fill:rgb(43.373108%,79.202271%,84.173584%);fill-opacity:1;" d="M 26.367188 6.1875 L 26.394531 6.214844 L 6.925781 24.710938 L 6.894531 24.683594 L 26.367188 6.1875 "/>
<path style=" stroke:none;fill-rule:evenodd;fill:rgb(43.211365%,78.848267%,84.339905%);fill-opacity:1;" d="M 26.394531 6.214844 L 26.425781 6.246094 L 6.953125 24.742188 L 6.925781 24.710938 L 26.394531 6.214844 "/>
<path style=" stroke:none;fill-rule:evenodd;fill:rgb(42.814636%,78.813171%,84.321594%);fill-opacity:1;" d="M 26.425781 6.246094 L 26.453125 6.277344 L 6.984375 24.773438 L 6.953125 24.742188 L 26.425781 6.246094 "/>
<path style=" stroke:none;fill-rule:evenodd;fill:rgb(42.611694%,78.837585%,84.326172%);fill-opacity:1;" d="M 26.453125 6.277344 L 26.484375 6.308594 L 7.011719 24.804688 L 6.984375 24.773438 L 26.453125 6.277344 "/>
</g>
</g>
<g clip-path="url(#clip13)" clip-rule="nonzero">
<g clip-path="url(#clip14)" clip-rule="evenodd">
<path style=" stroke:none;fill-rule:evenodd;fill:rgb(42.253113%,78.456116%,83.970642%);fill-opacity:1;" d="M 26.484375 6.308594 L 26.511719 6.339844 L 7.042969 24.835938 L 7.011719 24.804688 L 26.484375 6.308594 "/>
<path style=" stroke:none;fill-rule:evenodd;fill:rgb(41.856384%,78.422546%,83.973694%);fill-opacity:1;" d="M 26.511719 6.339844 L 26.542969 6.371094 L 7.070312 24.867188 L 7.042969 24.835938 L 26.511719 6.339844 "/>
<path style=" stroke:none;fill-rule:evenodd;fill:rgb(41.651917%,78.448486%,83.978271%);fill-opacity:1;" d="M 26.542969 6.371094 L 26.570312 6.398438 L 7.101562 24.894531 L 7.070312 24.867188 L 26.542969 6.371094 "/>
<path style=" stroke:none;fill-rule:evenodd;fill:rgb(41.447449%,78.474426%,83.964539%);fill-opacity:1;" d="M 26.570312 6.398438 L 26.601562 6.429688 L 7.128906 24.925781 L 7.101562 24.894531 L 26.570312 6.398438 "/>
<path style=" stroke:none;fill-rule:evenodd;fill:rgb(41.094971%,78.065491%,84.144592%);fill-opacity:1;" d="M 26.601562 6.429688 L 26.628906 6.460938 L 7.15625 24.957031 L 7.128906 24.925781 L 26.601562 6.429688 "/>
<path style=" stroke:none;fill-rule:evenodd;fill:rgb(40.892029%,78.086853%,84.147644%);fill-opacity:1;" d="M 26.628906 6.460938 L 26.65625 6.492188 L 7.1875 24.988281 L 7.15625 24.957031 L 26.628906 6.460938 "/>
<path style=" stroke:none;fill-rule:evenodd;fill:rgb(40.490723%,78.086853%,83.638%);fill-opacity:1;" d="M 26.65625 6.492188 L 26.6875 6.523438 L 7.214844 25.019531 L 7.1875 24.988281 L 26.65625 6.492188 "/>
<path style=" stroke:none;fill-rule:evenodd;fill:rgb(40.286255%,78.111267%,83.644104%);fill-opacity:1;" d="M 26.6875 6.523438 L 26.71875 6.554688 L 7.246094 25.050781 L 7.214844 25.019531 L 26.6875 6.523438 "/>
<path style=" stroke:none;fill-rule:evenodd;fill:rgb(39.933777%,77.706909%,83.822632%);fill-opacity:1;" d="M 26.71875 6.554688 L 26.746094 6.585938 L 7.273438 25.082031 L 7.246094 25.050781 L 26.71875 6.554688 "/>
<path style=" stroke:none;fill-rule:evenodd;fill:rgb(39.537048%,77.661133%,83.802795%);fill-opacity:1;" d="M 26.746094 6.585938 L 26.773438 6.613281 L 7.304688 25.109375 L 7.273438 25.082031 L 26.746094 6.585938 "/>
<path style=" stroke:none;fill-rule:evenodd;fill:rgb(39.334106%,77.676392%,83.804321%);fill-opacity:1;" d="M 26.773438 6.613281 L 26.804688 6.644531 L 7.332031 25.140625 L 7.304688 25.109375 L 26.773438 6.613281 "/>
<path style=" stroke:none;fill-rule:evenodd;fill:rgb(39.13269%,77.69165%,83.802795%);fill-opacity:1;" d="M 26.804688 6.644531 L 26.832031 6.675781 L 7.363281 25.171875 L 7.332031 25.140625 L 26.804688 6.644531 "/>
<path style=" stroke:none;fill-rule:evenodd;fill:rgb(38.780212%,77.285767%,83.403015%);fill-opacity:1;" d="M 26.832031 6.675781 L 26.863281 6.707031 L 7.390625 25.203125 L 7.363281 25.171875 L 26.832031 6.675781 "/>
<path style=" stroke:none;fill-rule:evenodd;fill:rgb(38.577271%,77.29187%,83.398438%);fill-opacity:1;" d="M 26.863281 6.707031 L 26.890625 6.738281 L 7.421875 25.234375 L 7.390625 25.203125 L 26.863281 6.707031 "/>
<path style=" stroke:none;fill-rule:evenodd;fill:rgb(38.374329%,77.301025%,83.396912%);fill-opacity:1;" d="M 26.890625 6.738281 L 26.921875 6.769531 L 7.449219 25.265625 L 7.421875 25.234375 L 26.890625 6.738281 "/>
<path style=" stroke:none;fill-rule:evenodd;fill:rgb(38.172913%,77.308655%,83.39386%);fill-opacity:1;" d="M 26.921875 6.769531 L 26.949219 6.800781 L 7.480469 25.296875 L 7.449219 25.265625 L 26.921875 6.769531 "/>
<path style=" stroke:none;fill-rule:evenodd;fill:rgb(37.826538%,76.882935%,83.52356%);fill-opacity:1;" d="M 26.949219 6.800781 L 26.976562 6.828125 L 7.507812 25.324219 L 7.480469 25.296875 L 26.949219 6.800781 "/>
</g>
</g>
<g clip-path="url(#clip15)" clip-rule="nonzero">
<g clip-path="url(#clip16)" clip-rule="evenodd">
<path style=" stroke:none;fill-rule:evenodd;fill:rgb(37.626648%,76.887512%,83.517456%);fill-opacity:1;" d="M 26.976562 6.828125 L 27.007812 6.859375 L 7.539062 25.355469 L 7.507812 25.324219 L 26.976562 6.828125 "/>
<path style=" stroke:none;fill-rule:evenodd;fill:rgb(37.419128%,76.91803%,83.006287%);fill-opacity:1;" d="M 27.007812 6.859375 L 27.035156 6.890625 L 7.566406 25.386719 L 7.539062 25.355469 L 27.007812 6.859375 "/>
<path style=" stroke:none;fill-rule:evenodd;fill:rgb(37.216187%,76.91803%,83.000183%);fill-opacity:1;" d="M 27.035156 6.890625 L 27.066406 6.921875 L 7.59375 25.417969 L 7.566406 25.386719 L 27.035156 6.890625 "/>
<path style=" stroke:none;fill-rule:evenodd;fill:rgb(36.869812%,76.501465%,83.114624%);fill-opacity:1;" d="M 27.066406 6.921875 L 27.09375 6.953125 L 7.625 25.449219 L 7.59375 25.417969 L 27.066406 6.921875 "/>
<path style=" stroke:none;fill-rule:evenodd;fill:rgb(36.668396%,76.499939%,83.108521%);fill-opacity:1;" d="M 27.09375 6.953125 L 27.125 6.984375 L 7.652344 25.480469 L 7.625 25.449219 L 27.09375 6.953125 "/>
</g>
</g>
<g clip-path="url(#clip17)" clip-rule="nonzero">
<g clip-path="url(#clip18)" clip-rule="evenodd">
<path style=" stroke:none;fill-rule:evenodd;fill:rgb(36.668396%,76.499939%,83.108521%);fill-opacity:1;" d="M 27.359375 6.984375 L 43 23.199219 L 43 29 L 10.78125 29 L 7.769531 25.59375 L 27.359375 6.984375 "/>
</g>
</g>
<g clip-path="url(#clip19)" clip-rule="nonzero">
<g clip-path="url(#clip20)" clip-rule="evenodd">
<path style=" stroke:none;fill-rule:evenodd;fill:rgb(59.674072%,83.839417%,87.164307%);fill-opacity:1;" d="M 28.878906 -2 L 29.761719 -1.128906 L 12.683594 15.210938 L 8 10.089844 L 8 -2 L 28.878906 -2 "/>
</g>
</g>
<g clip-path="url(#clip21)" clip-rule="nonzero">
<g clip-path="url(#clip22)" clip-rule="evenodd">
<path style=" stroke:none;fill-rule:evenodd;fill:rgb(59.674072%,83.839417%,87.164307%);fill-opacity:1;" d="M 29.761719 -1.183594 L 29.785156 -1.15625 L 12.554688 15.210938 L 12.53125 15.183594 L 29.761719 -1.183594 "/>
<path style=" stroke:none;fill-rule:evenodd;fill:rgb(59.306335%,83.847046%,87.130737%);fill-opacity:1;" d="M 29.785156 -1.15625 L 29.8125 -1.132812 L 12.582031 15.238281 L 12.554688 15.210938 L 29.785156 -1.15625 "/>
<path style=" stroke:none;fill-rule:evenodd;fill:rgb(58.934021%,83.439636%,87.225342%);fill-opacity:1;" d="M 29.8125 -1.132812 L 29.839844 -1.105469 L 12.605469 15.265625 L 12.582031 15.238281 L 29.8125 -1.132812 "/>
<path style=" stroke:none;fill-rule:evenodd;fill:rgb(58.613586%,83.460999%,87.213135%);fill-opacity:1;" d="M 29.839844 -1.105469 L 29.863281 -1.078125 L 12.632812 15.289062 L 12.605469 15.265625 L 29.839844 -1.105469 "/>
<path style=" stroke:none;fill-rule:evenodd;fill:rgb(58.244324%,83.483887%,86.735535%);fill-opacity:1;" d="M 29.863281 -1.078125 L 29.890625 -1.050781 L 12.660156 15.316406 L 12.632812 15.289062 L 29.863281 -1.078125 "/>
<path style=" stroke:none;fill-rule:evenodd;fill:rgb(57.946777%,83.505249%,86.721802%);fill-opacity:1;" d="M 29.890625 -1.050781 L 29.914062 -1.023438 L 12.683594 15.34375 L 12.660156 15.316406 L 29.890625 -1.050781 "/>
<path style=" stroke:none;fill-rule:evenodd;fill:rgb(57.597351%,83.123779%,86.825562%);fill-opacity:1;" d="M 29.914062 -1.023438 L 29.941406 -0.996094 L 12.710938 15.371094 L 12.683594 15.34375 L 29.914062 -1.023438 "/>
<path style=" stroke:none;fill-rule:evenodd;fill:rgb(57.254028%,83.129883%,86.830139%);fill-opacity:1;" d="M 29.941406 -0.996094 L 29.964844 -0.96875 L 12.734375 15.398438 L 12.710938 15.371094 L 29.941406 -0.996094 "/>
<path style=" stroke:none;fill-rule:evenodd;fill:rgb(56.933594%,83.145142%,86.817932%);fill-opacity:1;" d="M 29.964844 -0.96875 L 29.992188 -0.941406 L 12.761719 15.425781 L 12.734375 15.398438 L 29.964844 -0.96875 "/>
</g>
</g>
<g clip-path="url(#clip23)" clip-rule="nonzero">
<g clip-path="url(#clip24)" clip-rule="evenodd">
<path style=" stroke:none;fill-rule:evenodd;fill:rgb(56.613159%,83.164978%,86.808777%);fill-opacity:1;" d="M 29.992188 -0.941406 L 30.019531 -0.914062 L 12.785156 15.453125 L 12.761719 15.425781 L 29.992188 -0.941406 "/>
<path style=" stroke:none;fill-rule:evenodd;fill:rgb(56.214905%,82.749939%,86.408997%);fill-opacity:1;" d="M 30.019531 -0.914062 L 30.042969 -0.886719 L 12.8125 15.480469 L 12.785156 15.453125 L 30.019531 -0.914062 "/>
<path style=" stroke:none;fill-rule:evenodd;fill:rgb(55.895996%,82.76062%,86.413574%);fill-opacity:1;" d="M 30.042969 -0.886719 L 30.070312 -0.859375 L 12.839844 15.507812 L 12.8125 15.480469 L 30.042969 -0.886719 "/>
<path style=" stroke:none;fill-rule:evenodd;fill:rgb(55.549622%,82.769775%,86.401367%);fill-opacity:1;" d="M 30.070312 -0.859375 L 30.09375 -0.832031 L 12.863281 15.535156 L 12.839844 15.507812 L 30.070312 -0.859375 "/>
<path style=" stroke:none;fill-rule:evenodd;fill:rgb(55.204773%,82.783508%,86.393738%);fill-opacity:1;" d="M 30.09375 -0.832031 L 30.121094 -0.804688 L 12.890625 15.5625 L 12.863281 15.535156 L 30.09375 -0.832031 "/>
<path style=" stroke:none;fill-rule:evenodd;fill:rgb(54.859924%,82.366943%,86.514282%);fill-opacity:1;" d="M 30.121094 -0.804688 L 30.148438 -0.777344 L 12.914062 15.589844 L 12.890625 15.5625 L 30.121094 -0.804688 "/>
<path style=" stroke:none;fill-rule:evenodd;fill:rgb(54.51355%,82.373047%,86.520386%);fill-opacity:1;" d="M 30.148438 -0.777344 L 30.171875 -0.753906 L 12.941406 15.617188 L 12.914062 15.589844 L 30.148438 -0.777344 "/>
<path style=" stroke:none;fill-rule:evenodd;fill:rgb(54.069519%,82.385254%,85.980225%);fill-opacity:1;" d="M 30.171875 -0.753906 L 30.199219 -0.726562 L 12.96875 15.644531 L 12.941406 15.617188 L 30.171875 -0.753906 "/>
<path style=" stroke:none;fill-rule:evenodd;fill:rgb(53.723145%,82.403564%,85.975647%);fill-opacity:1;" d="M 30.199219 -0.726562 L 30.222656 -0.699219 L 12.992188 15.671875 L 12.96875 15.644531 L 30.199219 -0.726562 "/>
<path style=" stroke:none;fill-rule:evenodd;fill:rgb(53.379822%,81.980896%,86.11145%);fill-opacity:1;" d="M 30.222656 -0.699219 L 30.25 -0.671875 L 13.019531 15.695312 L 12.992188 15.671875 L 30.222656 -0.699219 "/>
</g>
</g>
<g clip-path="url(#clip25)" clip-rule="nonzero">
<g clip-path="url(#clip26)" clip-rule="evenodd">
<path style=" stroke:none;fill-rule:evenodd;fill:rgb(53.057861%,82.002258%,86.103821%);fill-opacity:1;" d="M 30.25 -0.671875 L 30.273438 -0.644531 L 13.042969 15.722656 L 13.019531 15.695312 L 30.25 -0.671875 "/>
<path style=" stroke:none;fill-rule:evenodd;fill:rgb(52.757263%,82.034302%,86.100769%);fill-opacity:1;" d="M 30.273438 -0.644531 L 30.300781 -0.617188 L 13.070312 15.75 L 13.042969 15.722656 L 30.273438 -0.644531 "/>
<path style=" stroke:none;fill-rule:evenodd;fill:rgb(52.435303%,82.058716%,86.096191%);fill-opacity:1;" d="M 30.300781 -0.617188 L 30.328125 -0.589844 L 13.097656 15.777344 L 13.070312 15.75 L 30.300781 -0.617188 "/>
<path style=" stroke:none;fill-rule:evenodd;fill:rgb(52.018738%,81.646729%,85.704041%);fill-opacity:1;" d="M 30.328125 -0.589844 L 30.351562 -0.5625 L 13.121094 15.804688 L 13.097656 15.777344 L 30.328125 -0.589844 "/>
<path style=" stroke:none;fill-rule:evenodd;fill:rgb(51.670837%,81.658936%,85.696411%);fill-opacity:1;" d="M 30.351562 -0.5625 L 30.378906 -0.535156 L 13.148438 15.832031 L 13.121094 15.804688 L 30.351562 -0.5625 "/>
<path style=" stroke:none;fill-rule:evenodd;fill:rgb(51.322937%,81.671143%,85.708618%);fill-opacity:1;" d="M 30.378906 -0.535156 L 30.402344 -0.507812 L 13.171875 15.859375 L 13.148438 15.832031 L 30.378906 -0.535156 "/>
<path style=" stroke:none;fill-rule:evenodd;fill:rgb(50.984192%,81.245422%,85.801697%);fill-opacity:1;" d="M 30.402344 -0.507812 L 30.429688 -0.480469 L 13.199219 15.886719 L 13.171875 15.859375 L 30.402344 -0.507812 "/>
<path style=" stroke:none;fill-rule:evenodd;fill:rgb(50.636292%,81.248474%,85.78949%);fill-opacity:1;" d="M 30.429688 -0.480469 L 30.457031 -0.453125 L 13.222656 15.914062 L 13.199219 15.886719 L 30.429688 -0.480469 "/>
<path style=" stroke:none;fill-rule:evenodd;fill:rgb(50.360107%,81.27594%,85.783386%);fill-opacity:1;" d="M 30.457031 -0.453125 L 30.480469 -0.425781 L 13.25 15.941406 L 13.222656 15.914062 L 30.457031 -0.453125 "/>
<path style=" stroke:none;fill-rule:evenodd;fill:rgb(49.960327%,81.321716%,85.359192%);fill-opacity:1;" d="M 30.480469 -0.425781 L 30.507812 -0.398438 L 13.277344 15.96875 L 13.25 15.941406 L 30.480469 -0.425781 "/>
<path style=" stroke:none;fill-rule:evenodd;fill:rgb(49.598694%,80.879211%,85.40802%);fill-opacity:1;" d="M 30.507812 -0.398438 L 30.53125 -0.371094 L 13.300781 15.996094 L 13.277344 15.96875 L 30.507812 -0.398438 "/>
</g>
</g>
<g clip-path="url(#clip27)" clip-rule="nonzero">
<g clip-path="url(#clip28)" clip-rule="evenodd">
<path style=" stroke:none;fill-rule:evenodd;fill:rgb(49.201965%,80.867004%,85.415649%);fill-opacity:1;" d="M 30.53125 -0.371094 L 30.558594 -0.347656 L 13.328125 16.023438 L 13.300781 15.996094 L 30.53125 -0.371094 "/>
<path style=" stroke:none;fill-rule:evenodd;fill:rgb(48.999023%,80.911255%,85.406494%);fill-opacity:1;" d="M 30.558594 -0.347656 L 30.582031 -0.320312 L 13.351562 16.050781 L 13.328125 16.023438 L 30.558594 -0.347656 "/>
<path style=" stroke:none;fill-rule:evenodd;fill:rgb(48.796082%,80.957031%,85.398865%);fill-opacity:1;" d="M 30.582031 -0.320312 L 30.609375 -0.292969 L 13.378906 16.074219 L 13.351562 16.050781 L 30.582031 -0.320312 "/>
<path style=" stroke:none;fill-rule:evenodd;fill:rgb(48.243713%,80.450439%,85.437012%);fill-opacity:1;" d="M 30.609375 -0.292969 L 30.636719 -0.265625 L 13.40625 16.101562 L 13.378906 16.074219 L 30.609375 -0.292969 "/>
<path style=" stroke:none;fill-rule:evenodd;fill:rgb(48.036194%,80.54657%,85.021973%);fill-opacity:1;" d="M 30.636719 -0.265625 L 30.660156 -0.238281 L 13.429688 16.128906 L 13.40625 16.101562 L 30.636719 -0.265625 "/>
<path style=" stroke:none;fill-rule:evenodd;fill:rgb(47.637939%,80.522156%,85.005188%);fill-opacity:1;" d="M 30.660156 -0.238281 L 30.6875 -0.210938 L 13.457031 16.15625 L 13.429688 16.128906 L 30.660156 -0.238281 "/>
<path style=" stroke:none;fill-rule:evenodd;fill:rgb(47.436523%,80.558777%,84.994507%);fill-opacity:1;" d="M 30.6875 -0.210938 L 30.710938 -0.183594 L 13.480469 16.183594 L 13.457031 16.15625 L 30.6875 -0.210938 "/>
<path style=" stroke:none;fill-rule:evenodd;fill:rgb(46.882629%,80.09491%,85.03418%);fill-opacity:1;" d="M 30.710938 -0.183594 L 30.738281 -0.15625 L 13.507812 16.210938 L 13.480469 16.183594 L 30.710938 -0.183594 "/>
<path style=" stroke:none;fill-rule:evenodd;fill:rgb(46.487427%,80.059814%,85.015869%);fill-opacity:1;" d="M 30.738281 -0.15625 L 30.765625 -0.128906 L 13.53125 16.238281 L 13.507812 16.210938 L 30.738281 -0.15625 "/>
<path style=" stroke:none;fill-rule:evenodd;fill:rgb(46.284485%,80.079651%,84.994507%);fill-opacity:1;" d="M 30.765625 -0.128906 L 30.789062 -0.101562 L 13.558594 16.265625 L 13.53125 16.238281 L 30.765625 -0.128906 "/>
<path style=" stroke:none;fill-rule:evenodd;fill:rgb(45.881653%,80.093384%,84.532166%);fill-opacity:1;" d="M 30.789062 -0.101562 L 30.816406 -0.0742188 L 13.585938 16.292969 L 13.558594 16.265625 L 30.789062 -0.101562 "/>
<path style=" stroke:none;fill-rule:evenodd;fill:rgb(45.527649%,79.626465%,84.599304%);fill-opacity:1;" d="M 30.816406 -0.0742188 L 30.839844 -0.046875 L 13.609375 16.320312 L 13.585938 16.292969 L 30.816406 -0.0742188 "/>
<path style=" stroke:none;fill-rule:evenodd;fill:rgb(45.133972%,79.588318%,84.580994%);fill-opacity:1;" d="M 30.839844 -0.046875 L 30.867188 -0.0195312 L 13.636719 16.347656 L 13.609375 16.320312 L 30.839844 -0.046875 "/>
<path style=" stroke:none;fill-rule:evenodd;fill:rgb(44.932556%,79.60968%,84.561157%);fill-opacity:1;" d="M 30.867188 -0.0195312 L 30.890625 0.0078125 L 13.660156 16.375 L 13.636719 16.347656 L 30.867188 -0.0195312 "/>
<path style=" stroke:none;fill-rule:evenodd;fill:rgb(44.534302%,79.576111%,84.545898%);fill-opacity:1;" d="M 30.890625 0.0078125 L 30.917969 0.03125 L 13.6875 16.402344 L 13.660156 16.375 L 30.890625 0.0078125 "/>
<path style=" stroke:none;fill-rule:evenodd;fill:rgb(44.371033%,79.223633%,84.712219%);fill-opacity:1;" d="M 30.917969 0.03125 L 30.945312 0.0585938 L 13.714844 16.429688 L 13.6875 16.402344 L 30.917969 0.03125 "/>
<path style=" stroke:none;fill-rule:evenodd;fill:rgb(43.972778%,79.203796%,84.182739%);fill-opacity:1;" d="M 30.945312 0.0585938 L 30.96875 0.0859375 L 13.738281 16.457031 L 13.714844 16.429688 L 30.945312 0.0585938 "/>
<path style=" stroke:none;fill-rule:evenodd;fill:rgb(43.771362%,79.229736%,84.169006%);fill-opacity:1;" d="M 30.96875 0.0859375 L 30.996094 0.113281 L 13.765625 16.480469 L 13.738281 16.457031 L 30.96875 0.0859375 "/>
</g>
</g>
<g clip-path="url(#clip29)" clip-rule="nonzero">
<g clip-path="url(#clip30)" clip-rule="evenodd">
<path style=" stroke:none;fill-rule:evenodd;fill:rgb(43.373108%,79.202271%,84.173584%);fill-opacity:1;" d="M 30.996094 0.113281 L 31.019531 0.140625 L 13.789062 16.507812 L 13.765625 16.480469 L 30.996094 0.113281 "/>
<path style=" stroke:none;fill-rule:evenodd;fill:rgb(43.211365%,78.848267%,84.339905%);fill-opacity:1;" d="M 31.019531 0.140625 L 31.046875 0.167969 L 13.816406 16.535156 L 13.789062 16.507812 L 31.019531 0.140625 "/>
<path style=" stroke:none;fill-rule:evenodd;fill:rgb(42.814636%,78.813171%,84.321594%);fill-opacity:1;" d="M 31.046875 0.167969 L 31.074219 0.195312 L 13.84375 16.5625 L 13.816406 16.535156 L 31.046875 0.167969 "/>
<path style=" stroke:none;fill-rule:evenodd;fill:rgb(42.611694%,78.837585%,84.326172%);fill-opacity:1;" d="M 31.074219 0.195312 L 31.097656 0.222656 L 13.867188 16.589844 L 13.84375 16.5625 L 31.074219 0.195312 "/>
<path style=" stroke:none;fill-rule:evenodd;fill:rgb(42.253113%,78.456116%,83.970642%);fill-opacity:1;" d="M 31.097656 0.222656 L 31.125 0.25 L 13.894531 16.617188 L 13.867188 16.589844 L 31.097656 0.222656 "/>
<path style=" stroke:none;fill-rule:evenodd;fill:rgb(41.856384%,78.422546%,83.973694%);fill-opacity:1;" d="M 31.125 0.25 L 31.148438 0.277344 L 13.917969 16.644531 L 13.894531 16.617188 L 31.125 0.25 "/>
<path style=" stroke:none;fill-rule:evenodd;fill:rgb(41.651917%,78.448486%,83.978271%);fill-opacity:1;" d="M 31.148438 0.277344 L 31.175781 0.304688 L 13.945312 16.671875 L 13.917969 16.644531 L 31.148438 0.277344 "/>
<path style=" stroke:none;fill-rule:evenodd;fill:rgb(41.447449%,78.474426%,83.964539%);fill-opacity:1;" d="M 31.175781 0.304688 L 31.199219 0.332031 L 13.96875 16.699219 L 13.945312 16.671875 L 31.175781 0.304688 "/>
<path style=" stroke:none;fill-rule:evenodd;fill:rgb(41.094971%,78.065491%,84.144592%);fill-opacity:1;" d="M 31.199219 0.332031 L 31.226562 0.359375 L 13.996094 16.726562 L 13.96875 16.699219 L 31.199219 0.332031 "/>
<path style=" stroke:none;fill-rule:evenodd;fill:rgb(40.892029%,78.086853%,84.147644%);fill-opacity:1;" d="M 31.226562 0.359375 L 31.253906 0.386719 L 14.023438 16.753906 L 13.996094 16.726562 L 31.226562 0.359375 "/>
</g>
</g>
<g clip-path="url(#clip31)" clip-rule="nonzero">
<g clip-path="url(#clip32)" clip-rule="evenodd">
<path style=" stroke:none;fill-rule:evenodd;fill:rgb(40.490723%,78.086853%,83.638%);fill-opacity:1;" d="M 31.253906 0.386719 L 31.277344 0.414062 L 14.046875 16.78125 L 14.023438 16.753906 L 31.253906 0.386719 "/>
<path style=" stroke:none;fill-rule:evenodd;fill:rgb(40.286255%,78.111267%,83.644104%);fill-opacity:1;" d="M 31.277344 0.414062 L 31.304688 0.4375 L 14.074219 16.808594 L 14.046875 16.78125 L 31.277344 0.414062 "/>
<path style=" stroke:none;fill-rule:evenodd;fill:rgb(39.933777%,77.706909%,83.822632%);fill-opacity:1;" d="M 31.304688 0.4375 L 31.328125 0.464844 L 14.097656 16.835938 L 14.074219 16.808594 L 31.304688 0.4375 "/>
<path style=" stroke:none;fill-rule:evenodd;fill:rgb(39.537048%,77.661133%,83.802795%);fill-opacity:1;" d="M 31.328125 0.464844 L 31.355469 0.492188 L 14.125 16.859375 L 14.097656 16.835938 L 31.328125 0.464844 "/>
<path style=" stroke:none;fill-rule:evenodd;fill:rgb(39.334106%,77.676392%,83.804321%);fill-opacity:1;" d="M 31.355469 0.492188 L 31.382812 0.519531 L 14.152344 16.886719 L 14.125 16.859375 L 31.355469 0.492188 "/>
<path style=" stroke:none;fill-rule:evenodd;fill:rgb(39.13269%,77.69165%,83.802795%);fill-opacity:1;" d="M 31.382812 0.519531 L 31.40625 0.546875 L 14.175781 16.914062 L 14.152344 16.886719 L 31.382812 0.519531 "/>
<path style=" stroke:none;fill-rule:evenodd;fill:rgb(38.780212%,77.285767%,83.403015%);fill-opacity:1;" d="M 31.40625 0.546875 L 31.433594 0.574219 L 14.203125 16.941406 L 14.175781 16.914062 L 31.40625 0.546875 "/>
<path style=" stroke:none;fill-rule:evenodd;fill:rgb(38.577271%,77.29187%,83.398438%);fill-opacity:1;" d="M 31.433594 0.574219 L 31.457031 0.601562 L 14.226562 16.96875 L 14.203125 16.941406 L 31.433594 0.574219 "/>
<path style=" stroke:none;fill-rule:evenodd;fill:rgb(38.374329%,77.301025%,83.396912%);fill-opacity:1;" d="M 31.457031 0.601562 L 31.484375 0.628906 L 14.253906 16.996094 L 14.226562 16.96875 L 31.457031 0.601562 "/>
<path style=" stroke:none;fill-rule:evenodd;fill:rgb(38.172913%,77.308655%,83.39386%);fill-opacity:1;" d="M 31.484375 0.628906 L 31.507812 0.65625 L 14.277344 17.023438 L 14.253906 16.996094 L 31.484375 0.628906 "/>
<path style=" stroke:none;fill-rule:evenodd;fill:rgb(37.826538%,76.882935%,83.52356%);fill-opacity:1;" d="M 31.507812 0.65625 L 31.535156 0.683594 L 14.304688 17.050781 L 14.277344 17.023438 L 31.507812 0.65625 "/>
<path style=" stroke:none;fill-rule:evenodd;fill:rgb(37.626648%,76.887512%,83.517456%);fill-opacity:1;" d="M 31.535156 0.683594 L 31.5625 0.710938 L 14.332031 17.078125 L 14.304688 17.050781 L 31.535156 0.683594 "/>
<path style=" stroke:none;fill-rule:evenodd;fill:rgb(37.419128%,76.91803%,83.006287%);fill-opacity:1;" d="M 31.5625 0.710938 L 31.585938 0.738281 L 14.355469 17.105469 L 14.332031 17.078125 L 31.5625 0.710938 "/>
<path style=" stroke:none;fill-rule:evenodd;fill:rgb(37.216187%,76.91803%,83.000183%);fill-opacity:1;" d="M 31.585938 0.738281 L 31.613281 0.765625 L 14.382812 17.132812 L 14.355469 17.105469 L 31.585938 0.738281 "/>
<path style=" stroke:none;fill-rule:evenodd;fill:rgb(36.869812%,76.501465%,83.114624%);fill-opacity:1;" d="M 31.613281 0.765625 L 31.636719 0.792969 L 14.40625 17.160156 L 14.382812 17.132812 L 31.613281 0.765625 "/>
<path style=" stroke:none;fill-rule:evenodd;fill:rgb(36.668396%,76.499939%,83.108521%);fill-opacity:1;" d="M 31.636719 0.792969 L 31.664062 0.816406 L 14.433594 17.1875 L 14.40625 17.160156 L 31.636719 0.792969 "/>
</g>
</g>
<g clip-path="url(#clip33)" clip-rule="nonzero">
<g clip-path="url(#clip34)" clip-rule="evenodd">
<path style=" stroke:none;fill-rule:evenodd;fill:rgb(36.668396%,76.499939%,83.108521%);fill-opacity:1;" d="M 31.539062 0.816406 L 45 15.117188 L 45 20 L 17.179688 20 L 14.371094 17.148438 L 31.539062 0.816406 "/>
</g>
</g>
<g clip-path="url(#clip35)" clip-rule="nonzero">
<g clip-path="url(#clip36)" clip-rule="evenodd">
<path style=" stroke:none;fill-rule:evenodd;fill:rgb(59.674072%,83.839417%,87.164307%);fill-opacity:1;" d="M 34.0625 -7 L 34.847656 -6.179688 L 19.296875 8.648438 L 15 4.054688 L 15 -7 L 34.0625 -7 "/>
</g>
</g>
<g clip-path="url(#clip37)" clip-rule="nonzero">
<g clip-path="url(#clip38)" clip-rule="evenodd">
<path style=" stroke:none;fill-rule:evenodd;fill:rgb(59.674072%,83.839417%,87.164307%);fill-opacity:1;" d="M 34.847656 -6.191406 L 34.871094 -6.164062 L 19.257812 8.667969 L 19.234375 8.644531 L 34.847656 -6.191406 "/>
<path style=" stroke:none;fill-rule:evenodd;fill:rgb(59.306335%,83.847046%,87.130737%);fill-opacity:1;" d="M 34.871094 -6.164062 L 34.894531 -6.140625 L 19.28125 8.691406 L 19.257812 8.667969 L 34.871094 -6.164062 "/>
<path style=" stroke:none;fill-rule:evenodd;fill:rgb(58.934021%,83.439636%,87.225342%);fill-opacity:1;" d="M 34.894531 -6.140625 L 34.917969 -6.117188 L 19.304688 8.71875 L 19.28125 8.691406 L 34.894531 -6.140625 "/>
<path style=" stroke:none;fill-rule:evenodd;fill:rgb(58.613586%,83.460999%,87.213135%);fill-opacity:1;" d="M 34.917969 -6.117188 L 34.941406 -6.089844 L 19.328125 8.742188 L 19.304688 8.71875 L 34.917969 -6.117188 "/>
<path style=" stroke:none;fill-rule:evenodd;fill:rgb(58.244324%,83.483887%,86.735535%);fill-opacity:1;" d="M 34.941406 -6.089844 L 34.964844 -6.066406 L 19.351562 8.765625 L 19.328125 8.742188 L 34.941406 -6.089844 "/>
<path style=" stroke:none;fill-rule:evenodd;fill:rgb(57.946777%,83.505249%,86.721802%);fill-opacity:1;" d="M 34.964844 -6.066406 L 34.988281 -6.042969 L 19.375 8.789062 L 19.351562 8.765625 L 34.964844 -6.066406 "/>
</g>
</g>
<g clip-path="url(#clip39)" clip-rule="nonzero">
<g clip-path="url(#clip40)" clip-rule="evenodd">
<path style=" stroke:none;fill-rule:evenodd;fill:rgb(57.597351%,83.123779%,86.825562%);fill-opacity:1;" d="M 34.988281 -6.042969 L 35.011719 -6.019531 L 19.398438 8.816406 L 19.375 8.789062 L 34.988281 -6.042969 "/>
<path style=" stroke:none;fill-rule:evenodd;fill:rgb(57.254028%,83.129883%,86.830139%);fill-opacity:1;" d="M 35.011719 -6.019531 L 35.035156 -5.992188 L 19.417969 8.839844 L 19.398438 8.816406 L 35.011719 -6.019531 "/>
<path style=" stroke:none;fill-rule:evenodd;fill:rgb(56.933594%,83.145142%,86.817932%);fill-opacity:1;" d="M 35.035156 -5.992188 L 35.058594 -5.96875 L 19.441406 8.863281 L 19.417969 8.839844 L 35.035156 -5.992188 "/>
<path style=" stroke:none;fill-rule:evenodd;fill:rgb(56.613159%,83.164978%,86.808777%);fill-opacity:1;" d="M 35.058594 -5.96875 L 35.082031 -5.945312 L 19.464844 8.890625 L 19.441406 8.863281 L 35.058594 -5.96875 "/>
<path style=" stroke:none;fill-rule:evenodd;fill:rgb(56.214905%,82.749939%,86.408997%);fill-opacity:1;" d="M 35.082031 -5.945312 L 35.105469 -5.921875 L 19.488281 8.914062 L 19.464844 8.890625 L 35.082031 -5.945312 "/>
<path style=" stroke:none;fill-rule:evenodd;fill:rgb(55.895996%,82.76062%,86.413574%);fill-opacity:1;" d="M 35.105469 -5.921875 L 35.128906 -5.894531 L 19.511719 8.9375 L 19.488281 8.914062 L 35.105469 -5.921875 "/>
<path style=" stroke:none;fill-rule:evenodd;fill:rgb(55.549622%,82.769775%,86.401367%);fill-opacity:1;" d="M 35.128906 -5.894531 L 35.152344 -5.871094 L 19.535156 8.960938 L 19.511719 8.9375 L 35.128906 -5.894531 "/>
<path style=" stroke:none;fill-rule:evenodd;fill:rgb(55.204773%,82.783508%,86.393738%);fill-opacity:1;" d="M 35.152344 -5.871094 L 35.175781 -5.847656 L 19.558594 8.988281 L 19.535156 8.960938 L 35.152344 -5.871094 "/>
</g>
</g>
<g clip-path="url(#clip41)" clip-rule="nonzero">
<g clip-path="url(#clip42)" clip-rule="evenodd">
<path style=" stroke:none;fill-rule:evenodd;fill:rgb(54.859924%,82.366943%,86.514282%);fill-opacity:1;" d="M 35.175781 -5.847656 L 35.199219 -5.820312 L 19.582031 9.011719 L 19.558594 8.988281 L 35.175781 -5.847656 "/>
<path style=" stroke:none;fill-rule:evenodd;fill:rgb(54.51355%,82.373047%,86.520386%);fill-opacity:1;" d="M 35.199219 -5.820312 L 35.222656 -5.796875 L 19.605469 9.035156 L 19.582031 9.011719 L 35.199219 -5.820312 "/>
<path style=" stroke:none;fill-rule:evenodd;fill:rgb(54.069519%,82.385254%,85.980225%);fill-opacity:1;" d="M 35.222656 -5.796875 L 35.242188 -5.773438 L 19.628906 9.058594 L 19.605469 9.035156 L 35.222656 -5.796875 "/>
<path style=" stroke:none;fill-rule:evenodd;fill:rgb(53.723145%,82.403564%,85.975647%);fill-opacity:1;" d="M 35.242188 -5.773438 L 35.269531 -5.75 L 19.652344 9.085938 L 19.628906 9.058594 L 35.242188 -5.773438 "/>
<path style=" stroke:none;fill-rule:evenodd;fill:rgb(53.379822%,81.980896%,86.11145%);fill-opacity:1;" d="M 35.269531 -5.75 L 35.289062 -5.722656 L 19.675781 9.109375 L 19.652344 9.085938 L 35.269531 -5.75 "/>
<path style=" stroke:none;fill-rule:evenodd;fill:rgb(53.057861%,82.002258%,86.103821%);fill-opacity:1;" d="M 35.289062 -5.722656 L 35.3125 -5.699219 L 19.699219 9.132812 L 19.675781 9.109375 L 35.289062 -5.722656 "/>
<path style=" stroke:none;fill-rule:evenodd;fill:rgb(52.757263%,82.034302%,86.100769%);fill-opacity:1;" d="M 35.3125 -5.699219 L 35.335938 -5.675781 L 19.722656 9.15625 L 19.699219 9.132812 L 35.3125 -5.699219 "/>
<path style=" stroke:none;fill-rule:evenodd;fill:rgb(52.435303%,82.058716%,86.096191%);fill-opacity:1;" d="M 35.335938 -5.675781 L 35.359375 -5.652344 L 19.746094 9.183594 L 19.722656 9.15625 L 35.335938 -5.675781 "/>
<path style=" stroke:none;fill-rule:evenodd;fill:rgb(52.018738%,81.646729%,85.704041%);fill-opacity:1;" d="M 35.359375 -5.652344 L 35.382812 -5.625 L 19.769531 9.207031 L 19.746094 9.183594 L 35.359375 -5.652344 "/>
<path style=" stroke:none;fill-rule:evenodd;fill:rgb(51.670837%,81.658936%,85.696411%);fill-opacity:1;" d="M 35.382812 -5.625 L 35.40625 -5.601562 L 19.792969 9.230469 L 19.769531 9.207031 L 35.382812 -5.625 "/>
<path style=" stroke:none;fill-rule:evenodd;fill:rgb(51.322937%,81.671143%,85.708618%);fill-opacity:1;" d="M 35.40625 -5.601562 L 35.429688 -5.578125 L 19.816406 9.257812 L 19.792969 9.230469 L 35.40625 -5.601562 "/>
<path style=" stroke:none;fill-rule:evenodd;fill:rgb(50.984192%,81.245422%,85.801697%);fill-opacity:1;" d="M 35.429688 -5.578125 L 35.453125 -5.554688 L 19.839844 9.28125 L 19.816406 9.257812 L 35.429688 -5.578125 "/>
<path style=" stroke:none;fill-rule:evenodd;fill:rgb(50.636292%,81.248474%,85.78949%);fill-opacity:1;" d="M 35.453125 -5.554688 L 35.476562 -5.527344 L 19.863281 9.304688 L 19.839844 9.28125 L 35.453125 -5.554688 "/>
<path style=" stroke:none;fill-rule:evenodd;fill:rgb(50.360107%,81.27594%,85.783386%);fill-opacity:1;" d="M 35.476562 -5.527344 L 35.5 -5.503906 L 19.886719 9.328125 L 19.863281 9.304688 L 35.476562 -5.527344 "/>
<path style=" stroke:none;fill-rule:evenodd;fill:rgb(49.960327%,81.321716%,85.359192%);fill-opacity:1;" d="M 35.5 -5.503906 L 35.523438 -5.480469 L 19.910156 9.355469 L 19.886719 9.328125 L 35.5 -5.503906 "/>
<path style=" stroke:none;fill-rule:evenodd;fill:rgb(49.598694%,80.879211%,85.40802%);fill-opacity:1;" d="M 35.523438 -5.480469 L 35.546875 -5.453125 L 19.929688 9.378906 L 19.910156 9.355469 L 35.523438 -5.480469 "/>
<path style=" stroke:none;fill-rule:evenodd;fill:rgb(49.201965%,80.867004%,85.415649%);fill-opacity:1;" d="M 35.546875 -5.453125 L 35.570312 -5.429688 L 19.957031 9.402344 L 19.929688 9.378906 L 35.546875 -5.453125 "/>
<path style=" stroke:none;fill-rule:evenodd;fill:rgb(48.999023%,80.911255%,85.406494%);fill-opacity:1;" d="M 35.570312 -5.429688 L 35.59375 -5.40625 L 19.976562 9.425781 L 19.957031 9.402344 L 35.570312 -5.429688 "/>
<path style=" stroke:none;fill-rule:evenodd;fill:rgb(48.796082%,80.957031%,85.398865%);fill-opacity:1;" d="M 35.59375 -5.40625 L 35.617188 -5.382812 L 20 9.453125 L 19.976562 9.425781 L 35.59375 -5.40625 "/>
</g>
</g>
<g clip-path="url(#clip43)" clip-rule="nonzero">
<g clip-path="url(#clip44)" clip-rule="evenodd">
<path style=" stroke:none;fill-rule:evenodd;fill:rgb(48.243713%,80.450439%,85.437012%);fill-opacity:1;" d="M 35.617188 -5.382812 L 35.640625 -5.355469 L 20.023438 9.476562 L 20 9.453125 L 35.617188 -5.382812 "/>
<path style=" stroke:none;fill-rule:evenodd;fill:rgb(48.036194%,80.54657%,85.021973%);fill-opacity:1;" d="M 35.640625 -5.355469 L 35.664062 -5.332031 L 20.046875 9.5 L 20.023438 9.476562 L 35.640625 -5.355469 "/>
<path style=" stroke:none;fill-rule:evenodd;fill:rgb(47.637939%,80.522156%,85.005188%);fill-opacity:1;" d="M 35.664062 -5.332031 L 35.6875 -5.308594 L 20.070312 9.527344 L 20.046875 9.5 L 35.664062 -5.332031 "/>
<path style=" stroke:none;fill-rule:evenodd;fill:rgb(47.436523%,80.558777%,84.994507%);fill-opacity:1;" d="M 35.6875 -5.308594 L 35.710938 -5.285156 L 20.09375 9.550781 L 20.070312 9.527344 L 35.6875 -5.308594 "/>
<path style=" stroke:none;fill-rule:evenodd;fill:rgb(46.882629%,80.09491%,85.03418%);fill-opacity:1;" d="M 35.710938 -5.285156 L 35.734375 -5.257812 L 20.117188 9.574219 L 20.09375 9.550781 L 35.710938 -5.285156 "/>
<path style=" stroke:none;fill-rule:evenodd;fill:rgb(46.487427%,80.059814%,85.015869%);fill-opacity:1;" d="M 35.734375 -5.257812 L 35.757812 -5.234375 L 20.140625 9.597656 L 20.117188 9.574219 L 35.734375 -5.257812 "/>
<path style=" stroke:none;fill-rule:evenodd;fill:rgb(46.284485%,80.079651%,84.994507%);fill-opacity:1;" d="M 35.757812 -5.234375 L 35.78125 -5.210938 L 20.164062 9.625 L 20.140625 9.597656 L 35.757812 -5.234375 "/>
<path style=" stroke:none;fill-rule:evenodd;fill:rgb(45.881653%,80.093384%,84.532166%);fill-opacity:1;" d="M 35.78125 -5.210938 L 35.800781 -5.183594 L 20.1875 9.648438 L 20.164062 9.625 L 35.78125 -5.210938 "/>
<path style=" stroke:none;fill-rule:evenodd;fill:rgb(45.527649%,79.626465%,84.599304%);fill-opacity:1;" d="M 35.800781 -5.183594 L 35.824219 -5.160156 L 20.210938 9.671875 L 20.1875 9.648438 L 35.800781 -5.183594 "/>
<path style=" stroke:none;fill-rule:evenodd;fill:rgb(45.133972%,79.588318%,84.580994%);fill-opacity:1;" d="M 35.824219 -5.160156 L 35.847656 -5.136719 L 20.234375 9.695312 L 20.210938 9.671875 L 35.824219 -5.160156 "/>
<path style=" stroke:none;fill-rule:evenodd;fill:rgb(44.932556%,79.60968%,84.561157%);fill-opacity:1;" d="M 35.847656 -5.136719 L 35.871094 -5.113281 L 20.257812 9.722656 L 20.234375 9.695312 L 35.847656 -5.136719 "/>
<path style=" stroke:none;fill-rule:evenodd;fill:rgb(44.534302%,79.576111%,84.545898%);fill-opacity:1;" d="M 35.871094 -5.113281 L 35.894531 -5.085938 L 20.28125 9.746094 L 20.257812 9.722656 L 35.871094 -5.113281 "/>
<path style=" stroke:none;fill-rule:evenodd;fill:rgb(44.371033%,79.223633%,84.712219%);fill-opacity:1;" d="M 35.894531 -5.085938 L 35.917969 -5.0625 L 20.304688 9.769531 L 20.28125 9.746094 L 35.894531 -5.085938 "/>
<path style=" stroke:none;fill-rule:evenodd;fill:rgb(43.972778%,79.203796%,84.182739%);fill-opacity:1;" d="M 35.917969 -5.0625 L 35.941406 -5.039062 L 20.328125 9.792969 L 20.304688 9.769531 L 35.917969 -5.0625 "/>
<path style=" stroke:none;fill-rule:evenodd;fill:rgb(43.771362%,79.229736%,84.169006%);fill-opacity:1;" d="M 35.941406 -5.039062 L 35.964844 -5.015625 L 20.351562 9.820312 L 20.328125 9.792969 L 35.941406 -5.039062 "/>
<path style=" stroke:none;fill-rule:evenodd;fill:rgb(43.373108%,79.202271%,84.173584%);fill-opacity:1;" d="M 35.964844 -5.015625 L 35.988281 -4.988281 L 20.375 9.84375 L 20.351562 9.820312 L 35.964844 -5.015625 "/>
</g>
</g>
<g clip-path="url(#clip45)" clip-rule="nonzero">
<g clip-path="url(#clip46)" clip-rule="evenodd">
<path style=" stroke:none;fill-rule:evenodd;fill:rgb(43.211365%,78.848267%,84.339905%);fill-opacity:1;" d="M 35.988281 -4.988281 L 36.011719 -4.964844 L 20.398438 9.867188 L 20.375 9.84375 L 35.988281 -4.988281 "/>
<path style=" stroke:none;fill-rule:evenodd;fill:rgb(42.814636%,78.813171%,84.321594%);fill-opacity:1;" d="M 36.011719 -4.964844 L 36.035156 -4.941406 L 20.417969 9.894531 L 20.398438 9.867188 L 36.011719 -4.964844 "/>
<path style=" stroke:none;fill-rule:evenodd;fill:rgb(42.611694%,78.837585%,84.326172%);fill-opacity:1;" d="M 36.035156 -4.941406 L 36.058594 -4.917969 L 20.445312 9.917969 L 20.417969 9.894531 L 36.035156 -4.941406 "/>
<path style=" stroke:none;fill-rule:evenodd;fill:rgb(42.253113%,78.456116%,83.970642%);fill-opacity:1;" d="M 36.058594 -4.917969 L 36.082031 -4.890625 L 20.46875 9.941406 L 20.445312 9.917969 L 36.058594 -4.917969 "/>
<path style=" stroke:none;fill-rule:evenodd;fill:rgb(41.856384%,78.422546%,83.973694%);fill-opacity:1;" d="M 36.082031 -4.890625 L 36.105469 -4.867188 L 20.488281 9.964844 L 20.46875 9.941406 L 36.082031 -4.890625 "/>
<path style=" stroke:none;fill-rule:evenodd;fill:rgb(41.651917%,78.448486%,83.978271%);fill-opacity:1;" d="M 36.105469 -4.867188 L 36.128906 -4.84375 L 20.511719 9.992188 L 20.488281 9.964844 L 36.105469 -4.867188 "/>
<path style=" stroke:none;fill-rule:evenodd;fill:rgb(41.447449%,78.474426%,83.964539%);fill-opacity:1;" d="M 36.128906 -4.84375 L 36.152344 -4.816406 L 20.535156 10.015625 L 20.511719 9.992188 L 36.128906 -4.84375 "/>
<path style=" stroke:none;fill-rule:evenodd;fill:rgb(41.094971%,78.065491%,84.144592%);fill-opacity:1;" d="M 36.152344 -4.816406 L 36.175781 -4.792969 L 20.558594 10.039062 L 20.535156 10.015625 L 36.152344 -4.816406 "/>
<path style=" stroke:none;fill-rule:evenodd;fill:rgb(40.892029%,78.086853%,84.147644%);fill-opacity:1;" d="M 36.175781 -4.792969 L 36.199219 -4.769531 L 20.582031 10.0625 L 20.558594 10.039062 L 36.175781 -4.792969 "/>
<path style=" stroke:none;fill-rule:evenodd;fill:rgb(40.490723%,78.086853%,83.638%);fill-opacity:1;" d="M 36.199219 -4.769531 L 36.222656 -4.746094 L 20.605469 10.089844 L 20.582031 10.0625 L 36.199219 -4.769531 "/>
<path style=" stroke:none;fill-rule:evenodd;fill:rgb(40.286255%,78.111267%,83.644104%);fill-opacity:1;" d="M 36.222656 -4.746094 L 36.246094 -4.71875 L 20.628906 10.113281 L 20.605469 10.089844 L 36.222656 -4.746094 "/>
<path style=" stroke:none;fill-rule:evenodd;fill:rgb(39.933777%,77.706909%,83.822632%);fill-opacity:1;" d="M 36.246094 -4.71875 L 36.269531 -4.695312 L 20.652344 10.136719 L 20.628906 10.113281 L 36.246094 -4.71875 "/>
<path style=" stroke:none;fill-rule:evenodd;fill:rgb(39.537048%,77.661133%,83.802795%);fill-opacity:1;" d="M 36.269531 -4.695312 L 36.289062 -4.671875 L 20.675781 10.164062 L 20.652344 10.136719 L 36.269531 -4.695312 "/>
<path style=" stroke:none;fill-rule:evenodd;fill:rgb(39.334106%,77.676392%,83.804321%);fill-opacity:1;" d="M 36.289062 -4.671875 L 36.316406 -4.648438 L 20.699219 10.1875 L 20.675781 10.164062 L 36.289062 -4.671875 "/>
<path style=" stroke:none;fill-rule:evenodd;fill:rgb(39.13269%,77.69165%,83.802795%);fill-opacity:1;" d="M 36.316406 -4.648438 L 36.339844 -4.621094 L 20.722656 10.210938 L 20.699219 10.1875 L 36.316406 -4.648438 "/>
<path style=" stroke:none;fill-rule:evenodd;fill:rgb(38.780212%,77.285767%,83.403015%);fill-opacity:1;" d="M 36.339844 -4.621094 L 36.359375 -4.597656 L 20.746094 10.234375 L 20.722656 10.210938 L 36.339844 -4.621094 "/>
<path style=" stroke:none;fill-rule:evenodd;fill:rgb(38.577271%,77.29187%,83.398438%);fill-opacity:1;" d="M 36.359375 -4.597656 L 36.382812 -4.574219 L 20.769531 10.261719 L 20.746094 10.234375 L 36.359375 -4.597656 "/>
<path style=" stroke:none;fill-rule:evenodd;fill:rgb(38.374329%,77.301025%,83.396912%);fill-opacity:1;" d="M 36.382812 -4.574219 L 36.40625 -4.546875 L 20.792969 10.285156 L 20.769531 10.261719 L 36.382812 -4.574219 "/>
<path style=" stroke:none;fill-rule:evenodd;fill:rgb(38.172913%,77.308655%,83.39386%);fill-opacity:1;" d="M 36.40625 -4.546875 L 36.429688 -4.523438 L 20.816406 10.308594 L 20.792969 10.285156 L 36.40625 -4.546875 "/>
<path style=" stroke:none;fill-rule:evenodd;fill:rgb(37.826538%,76.882935%,83.52356%);fill-opacity:1;" d="M 36.429688 -4.523438 L 36.453125 -4.5 L 20.839844 10.332031 L 20.816406 10.308594 L 36.429688 -4.523438 "/>
<path style=" stroke:none;fill-rule:evenodd;fill:rgb(37.626648%,76.887512%,83.517456%);fill-opacity:1;" d="M 36.453125 -4.5 L 36.476562 -4.476562 L 20.863281 10.359375 L 20.839844 10.332031 L 36.453125 -4.5 "/>
<path style=" stroke:none;fill-rule:evenodd;fill:rgb(37.419128%,76.91803%,83.006287%);fill-opacity:1;" d="M 36.476562 -4.476562 L 36.5 -4.449219 L 20.886719 10.382812 L 20.863281 10.359375 L 36.476562 -4.476562 "/>
<path style=" stroke:none;fill-rule:evenodd;fill:rgb(37.216187%,76.91803%,83.000183%);fill-opacity:1;" d="M 36.5 -4.449219 L 36.523438 -4.425781 L 20.910156 10.40625 L 20.886719 10.382812 L 36.5 -4.449219 "/>
<path style=" stroke:none;fill-rule:evenodd;fill:rgb(36.869812%,76.501465%,83.114624%);fill-opacity:1;" d="M 36.523438 -4.425781 L 36.546875 -4.402344 L 20.933594 10.429688 L 20.910156 10.40625 L 36.523438 -4.425781 "/>
<path style=" stroke:none;fill-rule:evenodd;fill:rgb(36.668396%,76.499939%,83.108521%);fill-opacity:1;" d="M 36.546875 -4.402344 L 36.570312 -4.378906 L 20.957031 10.457031 L 20.933594 10.429688 L 36.546875 -4.402344 "/>
</g>
</g>
<g clip-path="url(#clip47)" clip-rule="nonzero">
<g clip-path="url(#clip48)" clip-rule="evenodd">
<path style=" stroke:none;fill-rule:evenodd;fill:rgb(36.668396%,76.499939%,83.108521%);fill-opacity:1;" d="M 36.648438 -4.378906 L 49 8.539062 L 49 13 L 23.425781 13 L 20.996094 10.429688 L 36.648438 -4.378906 "/>
</g>
</g>
<path style=" stroke:none;fill-rule:nonzero;fill:rgb(6.266785%,5.734253%,5.047607%);fill-opacity:1;" d="M 63.640625 15.765625 L 62.578125 13.808594 C 62.273438 13.261719 61.96875 12.574219 61.714844 12.027344 L 61.664062 12.027344 C 61.414062 12.574219 61.160156 13.273438 60.882812 13.808594 L 59.867188 15.765625 Z M 59.3125 17.328125 L 58.097656 19.695312 L 54.097656 19.695312 L 59.3125 10.46875 L 64.375 10.46875 L 69.664062 19.695312 L 65.511719 19.695312 L 64.195312 17.328125 L 59.3125 17.328125 "/>
<path style=" stroke:none;fill-rule:nonzero;fill:rgb(6.266785%,5.734253%,5.047607%);fill-opacity:1;" d="M 71.941406 10.46875 L 82.367188 10.46875 L 82.367188 12.179688 L 75.8125 12.179688 L 75.8125 14.289062 L 81.9375 14.289062 L 81.9375 15.984375 L 75.8125 15.984375 L 75.8125 19.695312 L 71.941406 19.695312 L 71.941406 10.46875 "/>
<path style=" stroke:none;fill-rule:nonzero;fill:rgb(6.266785%,5.734253%,5.047607%);fill-opacity:1;" d="M 89.097656 14.5625 L 90.617188 14.5625 C 92.539062 14.5625 93.679688 14.039062 93.679688 13.234375 C 93.679688 12.382812 92.613281 11.960938 90.84375 11.945312 C 89.90625 11.945312 89.375 11.988281 89.097656 12.015625 Z M 85.277344 10.589844 C 86.515625 10.480469 88.363281 10.398438 90.414062 10.398438 C 92.945312 10.398438 94.714844 10.605469 95.929688 11.125 C 96.941406 11.5625 97.5 12.207031 97.5 13.054688 C 97.5 14.234375 95.957031 15.039062 94.488281 15.328125 L 94.488281 15.367188 C 95.675781 15.628906 96.335938 16.246094 96.765625 17.09375 C 97.296875 18.132812 97.828125 19.339844 98.15625 19.695312 L 94.210938 19.695312 C 93.929688 19.433594 93.527344 18.683594 93.019531 17.546875 C 92.566406 16.394531 91.832031 16.082031 90.261719 16.066406 L 89.097656 16.066406 L 89.097656 19.695312 L 85.277344 19.695312 L 85.277344 10.589844 "/>
<path style=" stroke:none;fill-rule:nonzero;fill:rgb(6.266785%,5.734253%,5.047607%);fill-opacity:1;" d="M 104.15625 10.46875 L 104.15625 19.695312 L 100.28125 19.695312 L 100.28125 10.46875 L 104.15625 10.46875 "/>
<path style=" stroke:none;fill-rule:nonzero;fill:rgb(6.266785%,5.734253%,5.047607%);fill-opacity:1;" d="M 119.035156 15.054688 C 119.035156 13.371094 117.566406 11.972656 114.933594 11.972656 C 112.304688 11.972656 110.785156 13.371094 110.785156 15.09375 C 110.757812 16.847656 112.328125 18.1875 114.910156 18.1875 C 117.515625 18.1875 119.035156 16.859375 119.035156 15.054688 Z M 122.070312 21.285156 C 119.640625 20.898438 117.617188 20.503906 115.339844 19.984375 C 114.960938 19.902344 114.554688 19.859375 114.152344 19.847656 C 110.304688 19.707031 106.710938 18.175781 106.710938 15.164062 C 106.710938 12.398438 109.949219 10.316406 115.035156 10.316406 C 120.25 10.316406 123.109375 12.453125 123.109375 14.972656 C 123.109375 17.066406 121.3125 18.546875 119.058594 19.09375 L 119.058594 19.148438 C 120.375 19.351562 121.84375 19.515625 123.183594 19.667969 L 122.070312 21.285156 "/>
<path style=" stroke:none;fill-rule:nonzero;fill:rgb(6.266785%,5.734253%,5.047607%);fill-opacity:1;" d="M 129.511719 10.46875 L 129.511719 19.695312 L 125.640625 19.695312 L 125.640625 10.46875 L 129.511719 10.46875 "/>
<path style=" stroke:none;fill-rule:nonzero;fill:rgb(6.266785%,5.734253%,5.047607%);fill-opacity:1;" d="M 136.34375 19.695312 L 136.34375 15.917969 L 130.953125 10.46875 L 135.355469 10.46875 L 137.105469 12.6875 C 137.636719 13.355469 137.988281 13.847656 138.421875 14.453125 L 138.46875 14.453125 C 138.851562 13.875 139.253906 13.34375 139.761719 12.6875 L 141.480469 10.46875 L 145.808594 10.46875 L 140.191406 15.847656 L 140.191406 19.695312 L 136.34375 19.695312 "/>
<path style=" stroke:none;fill-rule:nonzero;fill:rgb(6.266785%,5.734253%,5.047607%);fill-opacity:1;" d="M 153.628906 15.765625 L 152.566406 13.808594 C 152.261719 13.261719 151.960938 12.574219 151.707031 12.027344 L 151.65625 12.027344 C 151.402344 12.574219 151.148438 13.273438 150.871094 13.808594 L 149.859375 15.765625 Z M 149.300781 17.328125 L 148.085938 19.695312 L 144.089844 19.695312 L 149.300781 10.46875 L 154.363281 10.46875 L 159.652344 19.695312 L 155.503906 19.695312 L 154.1875 17.328125 L 149.300781 17.328125 "/>
<path style=" stroke:none;fill-rule:nonzero;fill:rgb(6.266785%,5.734253%,5.047607%);fill-opacity:1;" d="M 165.800781 10.46875 L 165.800781 14.011719 L 172.152344 14.011719 L 172.152344 10.46875 L 176 10.46875 L 176 19.695312 L 172.152344 19.695312 L 172.152344 15.835938 L 165.800781 15.835938 L 165.800781 19.695312 L 161.929688 19.695312 L 161.929688 10.46875 L 165.800781 10.46875 "/>
</g>
</svg>
