<?xml version="1.0" encoding="UTF-8"?>
<svg xmlns="http://www.w3.org/2000/svg" xmlns:xlink="http://www.w3.org/1999/xlink" width="176pt" height="55.94pt" viewBox="0 0 176 55.94" version="1.1">
<defs>
<clipPath id="clip1">
  <path d="M 85.679688 33.292969 L 151.351562 33.292969 L 151.351562 55.941406 L 85.679688 55.941406 Z M 85.679688 33.292969 "/>
</clipPath>
<clipPath id="clip2">
  <path d="M 149 53 L 152 53 L 152 55.941406 L 149 55.941406 Z M 149 53 "/>
</clipPath>
<clipPath id="clip3">
  <path d="M 124 51 L 130 51 L 130 55.941406 L 124 55.941406 Z M 124 51 "/>
</clipPath>
</defs>
<g id="surface1">
<path style=" stroke:none;fill-rule:evenodd;fill:rgb(58.053589%,8.825684%,19.969177%);fill-opacity:1;" d="M 60.394531 30.65625 L 62.03125 19.921875 L 52.9375 30.65625 L 48.207031 30.65625 L 61.03125 16.375 L 66.214844 16.375 L 64.667969 30.65625 L 60.394531 30.65625 "/>
<path style=" stroke:none;fill-rule:evenodd;fill:rgb(58.053589%,8.825684%,19.969177%);fill-opacity:1;" d="M 5.640625 30.472656 L 9.550781 30.472656 L 12.007812 25.652344 L 14.644531 25.652344 L 15.28125 25.5625 L 15.917969 25.46875 L 16.554688 25.289062 L 17.097656 25.105469 L 18.371094 24.558594 L 18.917969 24.289062 L 19.375 23.921875 L 19.917969 23.558594 L 20.375 23.105469 L 20.738281 22.652344 L 20.917969 22.378906 L 21.101562 22.195312 L 21.285156 21.832031 L 21.375 21.558594 L 21.648438 21.011719 L 21.921875 20.375 L 22.011719 19.738281 L 22.011719 19.46875 L 22.101562 19.195312 L 22.011719 18.921875 L 22.011719 18.738281 L 21.921875 18.464844 L 21.921875 18.285156 L 21.738281 17.921875 L 21.464844 17.558594 L 21.285156 17.464844 L 21.101562 17.285156 L 20.375 16.921875 L 19.828125 16.828125 L 19.375 16.738281 L 18.828125 16.648438 L 18.28125 16.554688 L 12.644531 16.554688 L 5.640625 30.472656 M 15.097656 19.101562 L 16.28125 19.101562 L 16.734375 19.195312 L 17.007812 19.195312 L 17.191406 19.285156 L 17.371094 19.285156 L 17.464844 19.375 L 17.644531 19.46875 L 17.644531 19.558594 L 17.828125 19.648438 L 17.917969 19.832031 L 17.917969 20.558594 L 17.828125 20.738281 L 17.828125 20.921875 L 17.734375 21.105469 L 17.644531 21.375 L 17.464844 21.558594 L 17.371094 21.832031 L 17.097656 22.011719 L 16.734375 22.378906 L 16.554688 22.46875 L 16.28125 22.648438 L 15.734375 22.832031 L 15.460938 22.832031 L 14.917969 22.921875 L 14.644531 22.921875 L 14.371094 23.015625 L 13.28125 23.015625 L 15.097656 19.101562 "/>
<path style=" stroke:none;fill-rule:nonzero;fill:rgb(58.053589%,8.825684%,19.969177%);fill-opacity:1;" d="M 15.191406 18.921875 L 16.28125 18.921875 L 16.28125 19.375 L 15.191406 19.375 L 15.191406 18.921875 "/>
<path style=" stroke:none;fill-rule:evenodd;fill:rgb(58.053589%,8.825684%,19.969177%);fill-opacity:1;" d="M 16.28125 18.921875 L 16.734375 19.011719 L 17.097656 19.011719 L 17.191406 19.101562 L 17.371094 19.101562 L 17.644531 19.195312 L 17.644531 19.285156 L 17.828125 19.464844 L 17.917969 19.558594 L 18.101562 19.921875 L 18.101562 20.558594 L 18.007812 20.832031 L 17.644531 20.738281 L 17.734375 20.558594 L 17.734375 20.011719 L 17.644531 19.921875 L 17.644531 19.648438 L 17.464844 19.648438 L 17.371094 19.558594 L 17.28125 19.558594 L 17.097656 19.464844 L 17.007812 19.464844 L 16.828125 19.375 L 16.734375 19.375 L 16.28125 19.285156 L 16.28125 18.921875 "/>
<path style=" stroke:none;fill-rule:evenodd;fill:rgb(58.053589%,8.825684%,19.969177%);fill-opacity:1;" d="M 18.007812 20.832031 L 18.007812 21.011719 L 17.644531 21.742188 L 17.464844 21.921875 L 17.28125 22.195312 L 17.007812 22.378906 L 16.828125 22.46875 L 16.644531 22.648438 L 16.371094 22.742188 L 16.097656 22.921875 L 15.828125 22.921875 L 15.460938 23.015625 L 14.917969 23.105469 L 14.644531 23.105469 L 14.371094 23.195312 L 14.28125 22.832031 L 14.644531 22.832031 L 14.917969 22.742188 L 15.371094 22.648438 L 15.644531 22.648438 L 16.191406 22.46875 L 16.371094 22.378906 L 16.644531 22.195312 L 16.828125 22.011719 L 17.007812 21.921875 L 17.191406 21.742188 L 17.371094 21.46875 L 17.464844 21.285156 L 17.644531 21.011719 L 17.644531 20.738281 L 18.007812 20.832031 "/>
<path style=" stroke:none;fill-rule:evenodd;fill:rgb(58.053589%,8.825684%,19.969177%);fill-opacity:1;" d="M 18.007812 20.832031 L 17.644531 20.738281 L 18.007812 20.832031 "/>
<path style=" stroke:none;fill-rule:nonzero;fill:rgb(58.053589%,8.825684%,19.969177%);fill-opacity:1;" d="M 13.28125 22.832031 L 14.371094 22.832031 L 14.371094 23.195312 L 13.28125 23.195312 L 13.28125 22.832031 "/>
<path style=" stroke:none;fill-rule:evenodd;fill:rgb(58.053589%,8.825684%,19.969177%);fill-opacity:1;" d="M 14.371094 23.195312 L 14.371094 22.832031 L 14.28125 22.832031 L 14.371094 23.195312 "/>
<path style=" stroke:none;fill-rule:evenodd;fill:rgb(58.053589%,8.825684%,19.969177%);fill-opacity:1;" d="M 13.097656 22.921875 L 13.460938 23.105469 L 15.371094 19.195312 L 15.007812 19.101562 L 13.097656 22.921875 "/>
<path style=" stroke:none;fill-rule:evenodd;fill:rgb(58.053589%,8.825684%,19.969177%);fill-opacity:1;" d="M 13.28125 23.195312 L 13.007812 23.195312 L 13.097656 22.921875 L 13.460938 23.105469 L 13.28125 22.832031 L 13.28125 23.195312 "/>
<path style=" stroke:none;fill-rule:evenodd;fill:rgb(58.053589%,8.825684%,19.969177%);fill-opacity:1;" d="M 15.007812 19.101562 L 15.097656 18.921875 L 15.097656 19.285156 L 15.371094 19.195312 L 15.007812 19.101562 "/>
<path style=" stroke:none;fill-rule:nonzero;fill:rgb(58.053589%,8.825684%,19.969177%);fill-opacity:1;" d="M 5.730469 30.289062 L 9.550781 30.289062 L 9.550781 30.65625 L 5.730469 30.65625 L 5.730469 30.289062 "/>
<path style=" stroke:none;fill-rule:evenodd;fill:rgb(58.053589%,8.825684%,19.969177%);fill-opacity:1;" d="M 9.367188 30.472656 L 9.730469 30.5625 L 12.097656 25.742188 L 11.824219 25.5625 L 9.367188 30.472656 "/>
<path style=" stroke:none;fill-rule:evenodd;fill:rgb(58.053589%,8.825684%,19.969177%);fill-opacity:1;" d="M 9.550781 30.65625 L 9.640625 30.65625 L 9.730469 30.5625 L 9.367188 30.472656 L 9.550781 30.289062 L 9.550781 30.65625 "/>
<path style=" stroke:none;fill-rule:nonzero;fill:rgb(58.053589%,8.825684%,19.969177%);fill-opacity:1;" d="M 12.007812 25.46875 L 13.917969 25.46875 L 13.917969 25.742188 L 12.007812 25.742188 L 12.007812 25.46875 "/>
<path style=" stroke:none;fill-rule:evenodd;fill:rgb(58.053589%,8.825684%,19.969177%);fill-opacity:1;" d="M 11.824219 25.5625 L 11.824219 25.46875 L 12.007812 25.46875 L 12.007812 25.742188 L 12.097656 25.742188 L 11.824219 25.5625 "/>
<path style=" stroke:none;fill-rule:evenodd;fill:rgb(58.053589%,8.825684%,19.969177%);fill-opacity:1;" d="M 13.917969 25.46875 L 14.644531 25.46875 L 15.28125 25.378906 L 15.828125 25.195312 L 16.554688 25.105469 L 17.644531 24.742188 L 18.28125 24.46875 L 18.738281 24.195312 L 19.554688 23.652344 L 19.738281 23.378906 L 20.191406 23.015625 L 20.648438 22.558594 L 20.738281 22.285156 L 21.101562 21.742188 L 21.285156 21.558594 L 21.464844 20.921875 L 21.738281 20.285156 L 22.011719 20.375 L 21.828125 21.105469 L 21.375 22.015625 L 21.285156 22.285156 L 21.011719 22.46875 L 20.828125 22.742188 L 20.464844 23.195312 L 20.011719 23.652344 L 19.738281 23.832031 L 19.464844 24.105469 L 19.011719 24.46875 L 18.464844 24.742188 L 17.828125 25.015625 L 17.191406 25.195312 L 16.644531 25.46875 L 15.917969 25.652344 L 15.28125 25.742188 L 14.007812 25.742188 L 13.917969 25.46875 "/>
<path style=" stroke:none;fill-rule:evenodd;fill:rgb(58.053589%,8.825684%,19.969177%);fill-opacity:1;" d="M 13.917969 25.742188 L 14.007812 25.742188 L 13.917969 25.46875 L 13.917969 25.742188 "/>
<path style=" stroke:none;fill-rule:evenodd;fill:rgb(58.053589%,8.825684%,19.969177%);fill-opacity:1;" d="M 21.738281 20.285156 L 21.828125 19.738281 L 21.828125 19.46875 L 21.921875 19.195312 L 21.828125 18.921875 L 21.828125 18.558594 L 21.738281 18.285156 L 21.648438 18.195312 L 21.554688 18.011719 L 21.375 17.738281 L 21.191406 17.558594 L 21.011719 17.464844 L 20.648438 17.285156 L 20.28125 17.101562 L 19.828125 17.011719 L 19.28125 16.921875 L 18.828125 16.828125 L 18.28125 16.738281 L 16.554688 16.738281 L 16.554688 16.375 L 17.644531 16.375 L 18.28125 16.464844 L 18.917969 16.464844 L 19.375 16.554688 L 19.917969 16.648438 L 21.285156 17.191406 L 21.375 17.285156 L 21.554688 17.464844 L 21.828125 17.828125 L 22.011719 18.195312 L 22.101562 18.464844 L 22.195312 18.648438 L 22.195312 18.921875 L 22.285156 19.195312 L 22.195312 19.558594 L 22.195312 19.832031 L 22.011719 20.375 L 21.738281 20.285156 "/>
<path style=" stroke:none;fill-rule:evenodd;fill:rgb(58.053589%,8.825684%,19.969177%);fill-opacity:1;" d="M 22.011719 20.375 L 22.011719 20.46875 L 22.011719 20.375 L 21.738281 20.285156 L 22.011719 20.375 "/>
<path style=" stroke:none;fill-rule:nonzero;fill:rgb(58.053589%,8.825684%,19.969177%);fill-opacity:1;" d="M 12.644531 16.375 L 16.554688 16.375 L 16.554688 16.738281 L 12.644531 16.738281 L 12.644531 16.375 "/>
<path style=" stroke:none;fill-rule:evenodd;fill:rgb(58.053589%,8.825684%,19.969177%);fill-opacity:1;" d="M 12.824219 16.554688 L 12.460938 16.464844 L 5.457031 30.472656 L 5.820312 30.5625 L 12.824219 16.554688 "/>
<path style=" stroke:none;fill-rule:evenodd;fill:rgb(58.053589%,8.825684%,19.969177%);fill-opacity:1;" d="M 12.644531 16.375 L 12.460938 16.375 L 12.460938 16.464844 L 12.824219 16.554688 L 12.644531 16.738281 L 12.644531 16.375 "/>
<path style=" stroke:none;fill-rule:evenodd;fill:rgb(58.053589%,8.825684%,19.969177%);fill-opacity:1;" d="M 5.457031 30.472656 L 5.367188 30.65625 L 5.640625 30.65625 L 5.640625 30.289062 L 5.820312 30.5625 L 5.457031 30.472656 "/>
<path style=" stroke:none;fill-rule:evenodd;fill:rgb(58.053589%,8.825684%,19.969177%);fill-opacity:1;" d="M 18.28125 30.472656 L 22.195312 30.472656 L 24.832031 25.015625 L 26.285156 25.015625 L 26.648438 25.105469 L 26.742188 25.105469 L 26.832031 25.195312 L 26.921875 25.378906 L 26.921875 25.5625 L 27.015625 25.742188 L 27.015625 26.925781 L 26.832031 30.472656 L 30.652344 30.472656 L 30.742188 26.199219 L 30.835938 25.832031 L 30.835938 25.46875 L 30.742188 25.015625 L 30.5625 24.289062 L 30.378906 24.105469 L 30.378906 24.015625 L 30.199219 23.832031 L 30.105469 23.832031 L 29.925781 23.742188 L 29.742188 23.742188 L 29.742188 23.652344 L 30.199219 23.558594 L 30.5625 23.558594 L 31.015625 23.46875 L 31.46875 23.289062 L 31.835938 23.195312 L 32.199219 23.105469 L 32.5625 22.921875 L 33.015625 22.742188 L 33.289062 22.46875 L 33.652344 22.285156 L 33.925781 21.921875 L 34.019531 21.832031 L 34.472656 21.378906 L 34.652344 20.921875 L 34.835938 20.558594 L 35.019531 20.105469 L 35.109375 19.46875 L 35.109375 18.464844 L 35.019531 18.285156 L 34.925781 18.011719 L 34.835938 17.921875 L 34.652344 17.558594 L 34.5625 17.464844 L 34.109375 17.195312 L 33.382812 16.828125 L 32.925781 16.738281 L 32.378906 16.648438 L 31.925781 16.558594 L 25.195312 16.558594 L 18.28125 30.472656 M 27.652344 19.101562 L 29.558594 19.101562 L 29.925781 19.195312 L 30.289062 19.195312 L 30.5625 19.375 L 30.742188 19.558594 L 30.835938 19.648438 L 30.925781 19.738281 L 30.925781 19.832031 L 31.015625 20.011719 L 31.015625 20.195312 L 30.925781 20.558594 L 30.742188 21.105469 L 30.652344 21.285156 L 30.46875 21.375 L 30.105469 21.742188 L 29.925781 21.832031 L 29.742188 22.011719 L 29.195312 22.105469 L 28.652344 22.285156 L 28.105469 22.285156 L 27.46875 22.378906 L 26.105469 22.378906 L 27.652344 19.101562 "/>
<path style=" stroke:none;fill-rule:nonzero;fill:rgb(58.053589%,8.825684%,19.969177%);fill-opacity:1;" d="M 27.652344 18.921875 L 29.558594 18.921875 L 29.558594 19.375 L 27.652344 19.375 L 27.652344 18.921875 "/>
<path style=" stroke:none;fill-rule:evenodd;fill:rgb(58.053589%,8.825684%,19.969177%);fill-opacity:1;" d="M 29.558594 18.921875 L 29.925781 19.011719 L 30.105469 19.011719 L 30.289062 19.101562 L 30.652344 19.195312 L 30.925781 19.375 L 31.015625 19.558594 L 31.105469 19.648438 L 31.105469 19.832031 L 31.199219 19.921875 L 31.199219 20.285156 L 31.105469 20.648438 L 30.742188 20.558594 L 30.835938 20.195312 L 30.835938 20.011719 L 30.742188 19.921875 L 30.742188 19.738281 L 30.652344 19.648438 L 30.46875 19.558594 L 30.199219 19.464844 L 30.015625 19.464844 L 29.925781 19.375 L 29.558594 19.285156 L 29.558594 18.921875 "/>
<path style=" stroke:none;fill-rule:evenodd;fill:rgb(58.053589%,8.825684%,19.969177%);fill-opacity:1;" d="M 31.105469 20.738281 L 31.015625 20.921875 L 30.925781 21.195312 L 30.378906 21.742188 L 30.199219 21.832031 L 30.015625 22.011719 L 29.742188 22.105469 L 29.289062 22.285156 L 29.015625 22.378906 L 28.652344 22.378906 L 28.378906 22.46875 L 27.46875 22.46875 L 27.46875 22.195312 L 28.105469 22.195312 L 28.378906 22.105469 L 28.652344 22.011719 L 29.105469 22.011719 L 29.652344 21.832031 L 29.832031 21.742188 L 30.015625 21.558594 L 30.199219 21.46875 L 30.289062 21.375 L 30.46875 21.195312 L 30.5625 21.011719 L 30.652344 20.738281 L 30.742188 20.558594 L 31.105469 20.738281 "/>
<path style=" stroke:none;fill-rule:evenodd;fill:rgb(58.053589%,8.825684%,19.969177%);fill-opacity:1;" d="M 31.105469 20.648438 L 31.105469 20.738281 L 30.742188 20.558594 L 31.105469 20.648438 "/>
<path style=" stroke:none;fill-rule:nonzero;fill:rgb(58.053589%,8.825684%,19.969177%);fill-opacity:1;" d="M 26.105469 22.195312 L 27.46875 22.195312 L 27.46875 22.558594 L 26.105469 22.558594 L 26.105469 22.195312 "/>
<path style=" stroke:none;fill-rule:evenodd;fill:rgb(58.053589%,8.825684%,19.969177%);fill-opacity:1;" d="M 26.011719 22.285156 L 26.285156 22.378906 L 27.832031 19.195312 L 27.558594 19.101562 L 26.011719 22.285156 "/>
<path style=" stroke:none;fill-rule:evenodd;fill:rgb(58.053589%,8.825684%,19.969177%);fill-opacity:1;" d="M 26.105469 22.46875 L 25.921875 22.46875 L 26.011719 22.285156 L 26.285156 22.378906 L 26.105469 22.195312 L 26.105469 22.46875 "/>
<path style=" stroke:none;fill-rule:evenodd;fill:rgb(58.053589%,8.825684%,19.969177%);fill-opacity:1;" d="M 27.558594 19.101562 L 27.558594 18.921875 L 27.652344 18.921875 L 27.652344 19.285156 L 27.832031 19.195312 L 27.558594 19.101562 "/>
<path style=" stroke:none;fill-rule:nonzero;fill:rgb(58.053589%,8.825684%,19.969177%);fill-opacity:1;" d="M 18.28125 30.289062 L 22.195312 30.289062 L 22.195312 30.65625 L 18.28125 30.65625 L 18.28125 30.289062 "/>
<path style=" stroke:none;fill-rule:evenodd;fill:rgb(58.053589%,8.825684%,19.969177%);fill-opacity:1;" d="M 22.011719 30.472656 L 22.285156 30.5625 L 25.011719 25.105469 L 24.648438 24.925781 L 22.011719 30.472656 "/>
<path style=" stroke:none;fill-rule:evenodd;fill:rgb(58.053589%,8.825684%,19.969177%);fill-opacity:1;" d="M 22.195312 30.65625 L 22.285156 30.65625 L 22.285156 30.5625 L 22.011719 30.472656 L 22.195312 30.289062 L 22.195312 30.65625 "/>
<path style=" stroke:none;fill-rule:nonzero;fill:rgb(58.053589%,8.825684%,19.969177%);fill-opacity:1;" d="M 24.832031 24.832031 L 25.285156 24.832031 L 25.285156 25.105469 L 24.832031 25.105469 L 24.832031 24.832031 "/>
<path style=" stroke:none;fill-rule:evenodd;fill:rgb(58.053589%,8.825684%,19.969177%);fill-opacity:1;" d="M 24.648438 24.925781 L 24.738281 24.832031 L 24.832031 24.832031 L 24.832031 25.105469 L 25.011719 25.105469 L 24.648438 24.925781 "/>
<path style=" stroke:none;fill-rule:evenodd;fill:rgb(58.053589%,8.825684%,19.969177%);fill-opacity:1;" d="M 25.285156 24.832031 L 26.285156 24.832031 L 26.742188 24.925781 L 27.105469 25.289062 L 27.105469 25.46875 L 27.195312 25.652344 L 27.195312 26.925781 L 26.832031 26.925781 L 26.832031 25.46875 L 26.742188 25.378906 L 26.648438 25.378906 L 26.558594 25.289062 L 26.285156 25.195312 L 25.832031 25.105469 L 25.285156 25.105469 L 25.285156 24.832031 "/>
<path style=" stroke:none;fill-rule:evenodd;fill:rgb(58.053589%,8.825684%,19.969177%);fill-opacity:1;" d="M 27.195312 26.925781 L 26.832031 26.925781 L 26.648438 30.472656 L 26.921875 30.472656 L 27.195312 26.925781 "/>
<path style=" stroke:none;fill-rule:nonzero;fill:rgb(58.053589%,8.825684%,19.969177%);fill-opacity:1;" d="M 26.832031 30.289062 L 30.652344 30.289062 L 30.652344 30.65625 L 26.832031 30.65625 L 26.832031 30.289062 "/>
<path style=" stroke:none;fill-rule:evenodd;fill:rgb(58.053589%,8.825684%,19.969177%);fill-opacity:1;" d="M 26.648438 30.472656 L 26.648438 30.65625 L 26.832031 30.65625 L 26.832031 30.289062 L 26.921875 30.472656 L 26.648438 30.472656 "/>
<path style=" stroke:none;fill-rule:evenodd;fill:rgb(58.053589%,8.825684%,19.969177%);fill-opacity:1;" d="M 30.46875 30.472656 L 30.835938 30.5625 L 30.925781 26.199219 L 30.5625 26.199219 L 30.46875 30.472656 "/>
<path style=" stroke:none;fill-rule:evenodd;fill:rgb(58.053589%,8.825684%,19.969177%);fill-opacity:1;" d="M 30.652344 30.65625 L 30.835938 30.65625 L 30.835938 30.5625 L 30.46875 30.472656 L 30.652344 30.289062 L 30.652344 30.65625 "/>
<path style=" stroke:none;fill-rule:evenodd;fill:rgb(58.053589%,8.825684%,19.969177%);fill-opacity:1;" d="M 30.5625 26.199219 L 30.652344 25.832031 L 30.652344 25.46875 L 30.5625 25.105469 L 30.5625 24.652344 L 30.378906 24.378906 L 30.289062 24.289062 L 30.289062 24.195312 L 30.199219 24.195312 L 30.105469 24.015625 L 30.015625 23.921875 L 29.925781 23.832031 L 29.742188 23.832031 L 29.742188 23.558594 L 29.925781 23.558594 L 30.199219 23.652344 L 30.378906 23.742188 L 30.46875 23.832031 L 30.5625 23.921875 L 30.652344 24.015625 L 30.835938 24.558594 L 30.925781 25.015625 L 30.925781 25.46875 L 31.015625 25.832031 L 30.925781 26.199219 L 30.5625 26.199219 "/>
<path style=" stroke:none;fill-rule:evenodd;fill:rgb(58.053589%,8.825684%,19.969177%);fill-opacity:1;" d="M 29.558594 23.652344 L 29.925781 23.742188 L 29.558594 23.652344 "/>
<path style=" stroke:none;fill-rule:evenodd;fill:rgb(58.053589%,8.825684%,19.969177%);fill-opacity:1;" d="M 29.742188 23.832031 L 29.558594 23.832031 L 29.558594 23.652344 L 29.925781 23.742188 L 29.742188 23.558594 L 29.742188 23.832031 "/>
<path style=" stroke:none;fill-rule:evenodd;fill:rgb(58.053589%,8.825684%,19.969177%);fill-opacity:1;" d="M 29.742188 23.46875 L 30.105469 23.378906 L 30.5625 23.378906 L 31.015625 23.285156 L 31.742188 23.105469 L 32.199219 22.921875 L 32.5625 22.742188 L 32.835938 22.558594 L 33.199219 22.378906 L 33.5625 22.105469 L 33.746094 21.832031 L 33.925781 21.648438 L 34.019531 21.558594 L 34.289062 21.285156 L 34.5625 20.832031 L 34.65625 20.46875 L 34.835938 20.011719 L 35.109375 20.105469 L 35.019531 20.558594 L 34.835938 21.011719 L 34.5625 21.375 L 34.382812 21.742188 L 34.199219 21.921875 L 34.019531 22.011719 L 33.746094 22.378906 L 33.382812 22.648438 L 33.015625 22.832031 L 32.652344 23.105469 L 32.289062 23.195312 L 31.835938 23.378906 L 31.46875 23.46875 L 31.105469 23.652344 L 30.652344 23.742188 L 30.199219 23.742188 L 29.742188 23.832031 L 29.742188 23.46875 "/>
<path style=" stroke:none;fill-rule:evenodd;fill:rgb(58.053589%,8.825684%,19.969177%);fill-opacity:1;" d="M 29.558594 23.652344 L 29.652344 23.46875 L 29.742188 23.46875 L 29.742188 23.832031 L 29.925781 23.742188 L 29.558594 23.652344 "/>
<path style=" stroke:none;fill-rule:evenodd;fill:rgb(58.053589%,8.825684%,19.969177%);fill-opacity:1;" d="M 34.835938 20.101562 L 34.925781 19.46875 L 34.925781 18.464844 L 34.835938 18.285156 L 34.746094 18.195312 L 34.746094 18.011719 L 34.5625 17.828125 L 34.5625 17.738281 L 34.382812 17.558594 L 34.019531 17.375 L 33.746094 17.191406 L 33.289062 17.011719 L 32.835938 16.921875 L 32.378906 16.828125 L 31.925781 16.738281 L 29.832031 16.738281 L 29.832031 16.375 L 30.835938 16.375 L 31.46875 16.464844 L 32.472656 16.464844 L 32.925781 16.554688 L 33.472656 16.738281 L 33.835938 16.828125 L 34.199219 17.011719 L 34.5625 17.285156 L 34.746094 17.464844 L 34.925781 17.648438 L 35.199219 18.195312 L 35.289062 18.464844 L 35.289062 19.558594 L 35.109375 20.101562 L 34.835938 20.101562 "/>
<path style=" stroke:none;fill-rule:evenodd;fill:rgb(58.053589%,8.825684%,19.969177%);fill-opacity:1;" d="M 35.109375 20.101562 L 35.109375 20.195312 L 35.109375 20.101562 L 34.835938 20.101562 L 34.835938 20.011719 L 35.109375 20.101562 "/>
<path style=" stroke:none;fill-rule:nonzero;fill:rgb(58.053589%,8.825684%,19.969177%);fill-opacity:1;" d="M 25.195312 16.375 L 29.832031 16.375 L 29.832031 16.738281 L 25.195312 16.738281 L 25.195312 16.375 "/>
<path style=" stroke:none;fill-rule:evenodd;fill:rgb(58.053589%,8.825684%,19.969177%);fill-opacity:1;" d="M 25.285156 16.554688 L 25.011719 16.464844 L 18.101562 30.472656 L 18.464844 30.5625 L 25.285156 16.554688 "/>
<path style=" stroke:none;fill-rule:evenodd;fill:rgb(58.053589%,8.825684%,19.969177%);fill-opacity:1;" d="M 25.195312 16.375 L 25.011719 16.375 L 25.011719 16.464844 L 25.285156 16.554688 L 25.195312 16.738281 L 25.195312 16.375 "/>
<path style=" stroke:none;fill-rule:evenodd;fill:rgb(58.053589%,8.825684%,19.969177%);fill-opacity:1;" d="M 18.101562 30.472656 L 18.007812 30.65625 L 18.28125 30.65625 L 18.28125 30.289062 L 18.464844 30.5625 L 18.101562 30.472656 "/>
<path style=" stroke:none;fill-rule:evenodd;fill:rgb(58.053589%,8.825684%,19.969177%);fill-opacity:1;" d="M 93.046875 30.472656 L 98.050781 30.472656 L 105.417969 19.558594 L 105.507812 19.558594 L 102.144531 30.472656 L 107.238281 30.472656 L 117.242188 16.464844 L 113.332031 16.464844 L 106.234375 27.289062 L 106.144531 27.289062 L 109.421875 16.464844 L 104.507812 16.464844 L 97.230469 27.289062 L 97.140625 27.289062 L 100.597656 16.464844 L 96.777344 16.464844 L 93.046875 30.472656 "/>
<path style=" stroke:none;fill-rule:nonzero;fill:rgb(58.053589%,8.825684%,19.969177%);fill-opacity:1;" d="M 93.046875 30.289062 L 98.050781 30.289062 L 98.050781 30.65625 L 93.046875 30.65625 L 93.046875 30.289062 "/>
<path style=" stroke:none;fill-rule:evenodd;fill:rgb(58.053589%,8.825684%,19.969177%);fill-opacity:1;" d="M 97.960938 30.382812 L 98.140625 30.65625 L 105.601562 19.648438 L 105.234375 19.46875 L 97.960938 30.382812 "/>
<path style=" stroke:none;fill-rule:evenodd;fill:rgb(58.053589%,8.825684%,19.969177%);fill-opacity:1;" d="M 98.050781 30.65625 L 98.140625 30.65625 L 97.960938 30.382812 L 98.050781 30.289062 L 98.050781 30.65625 "/>
<path style=" stroke:none;fill-rule:nonzero;fill:rgb(58.053589%,8.825684%,19.969177%);fill-opacity:1;" d="M 105.417969 19.375 L 105.507812 19.375 L 105.507812 19.648438 L 105.417969 19.648438 L 105.417969 19.375 "/>
<path style=" stroke:none;fill-rule:evenodd;fill:rgb(58.053589%,8.825684%,19.969177%);fill-opacity:1;" d="M 105.234375 19.46875 L 105.328125 19.285156 L 105.417969 19.285156 L 105.417969 19.648438 L 105.601562 19.648438 L 105.234375 19.46875 "/>
<path style=" stroke:none;fill-rule:evenodd;fill:rgb(58.053589%,8.825684%,19.969177%);fill-opacity:1;" d="M 105.691406 19.558594 L 105.234375 19.46875 L 101.960938 30.472656 L 102.324219 30.5625 L 105.691406 19.558594 "/>
<path style=" stroke:none;fill-rule:evenodd;fill:rgb(58.053589%,8.825684%,19.969177%);fill-opacity:1;" d="M 105.507812 19.285156 L 105.691406 19.285156 L 105.691406 19.558594 L 105.234375 19.46875 L 105.507812 19.648438 L 105.507812 19.285156 "/>
<path style=" stroke:none;fill-rule:nonzero;fill:rgb(58.053589%,8.825684%,19.969177%);fill-opacity:1;" d="M 102.144531 30.289062 L 107.238281 30.289062 L 107.238281 30.65625 L 102.144531 30.65625 L 102.144531 30.289062 "/>
<path style=" stroke:none;fill-rule:evenodd;fill:rgb(58.053589%,8.825684%,19.969177%);fill-opacity:1;" d="M 101.960938 30.472656 L 101.960938 30.65625 L 102.144531 30.65625 L 102.144531 30.289062 L 102.324219 30.5625 L 101.960938 30.472656 "/>
<path style=" stroke:none;fill-rule:evenodd;fill:rgb(58.053589%,8.825684%,19.969177%);fill-opacity:1;" d="M 107.054688 30.382812 L 107.328125 30.65625 L 117.332031 16.648438 L 117.0625 16.464844 L 107.054688 30.382812 "/>
<path style=" stroke:none;fill-rule:evenodd;fill:rgb(58.053589%,8.825684%,19.969177%);fill-opacity:1;" d="M 107.238281 30.65625 L 107.328125 30.65625 L 107.054688 30.382812 L 107.238281 30.289062 L 107.238281 30.65625 "/>
<path style=" stroke:none;fill-rule:nonzero;fill:rgb(58.053589%,8.825684%,19.969177%);fill-opacity:1;" d="M 113.332031 16.375 L 117.242188 16.375 L 117.242188 16.648438 L 113.332031 16.648438 L 113.332031 16.375 "/>
<path style=" stroke:none;fill-rule:evenodd;fill:rgb(58.053589%,8.825684%,19.969177%);fill-opacity:1;" d="M 117.332031 16.648438 L 117.605469 16.375 L 117.242188 16.375 L 117.242188 16.648438 L 117.0625 16.464844 L 117.332031 16.648438 "/>
<path style=" stroke:none;fill-rule:evenodd;fill:rgb(58.053589%,8.825684%,19.969177%);fill-opacity:1;" d="M 113.421875 16.554688 L 113.148438 16.464844 L 106.054688 27.199219 L 106.328125 27.378906 L 113.421875 16.554688 "/>
<path style=" stroke:none;fill-rule:evenodd;fill:rgb(58.053589%,8.825684%,19.969177%);fill-opacity:1;" d="M 113.332031 16.375 L 113.238281 16.375 L 113.148438 16.464844 L 113.421875 16.554688 L 113.332031 16.648438 L 113.332031 16.375 "/>
<path style=" stroke:none;fill-rule:nonzero;fill:rgb(58.053589%,8.825684%,19.969177%);fill-opacity:1;" d="M 106.144531 27.105469 L 106.234375 27.105469 L 106.234375 27.472656 L 106.144531 27.472656 L 106.144531 27.105469 "/>
<path style=" stroke:none;fill-rule:evenodd;fill:rgb(58.053589%,8.825684%,19.969177%);fill-opacity:1;" d="M 106.328125 27.378906 L 106.328125 27.472656 L 106.234375 27.472656 L 106.234375 27.105469 L 106.054688 27.199219 L 106.328125 27.378906 "/>
<path style=" stroke:none;fill-rule:evenodd;fill:rgb(58.053589%,8.825684%,19.969177%);fill-opacity:1;" d="M 105.964844 27.199219 L 106.328125 27.378906 L 109.601562 16.554688 L 109.238281 16.464844 L 105.964844 27.199219 "/>
<path style=" stroke:none;fill-rule:evenodd;fill:rgb(58.053589%,8.825684%,19.969177%);fill-opacity:1;" d="M 106.144531 27.472656 L 105.964844 27.472656 L 105.964844 27.199219 L 106.328125 27.378906 L 106.144531 27.105469 L 106.144531 27.472656 "/>
<path style=" stroke:none;fill-rule:nonzero;fill:rgb(58.053589%,8.825684%,19.969177%);fill-opacity:1;" d="M 104.507812 16.375 L 109.421875 16.375 L 109.421875 16.648438 L 104.507812 16.648438 L 104.507812 16.375 "/>
<path style=" stroke:none;fill-rule:evenodd;fill:rgb(58.053589%,8.825684%,19.969177%);fill-opacity:1;" d="M 109.601562 16.554688 L 109.601562 16.375 L 109.421875 16.375 L 109.421875 16.648438 L 109.238281 16.464844 L 109.601562 16.554688 "/>
<path style=" stroke:none;fill-rule:evenodd;fill:rgb(58.053589%,8.825684%,19.969177%);fill-opacity:1;" d="M 104.601562 16.554688 L 104.324219 16.464844 L 97.050781 27.199219 L 97.324219 27.378906 L 104.601562 16.554688 "/>
<path style=" stroke:none;fill-rule:evenodd;fill:rgb(58.053589%,8.825684%,19.969177%);fill-opacity:1;" d="M 104.507812 16.375 L 104.324219 16.375 L 104.324219 16.464844 L 104.601562 16.554688 L 104.507812 16.648438 L 104.507812 16.375 "/>
<path style=" stroke:none;fill-rule:nonzero;fill:rgb(58.053589%,8.825684%,19.969177%);fill-opacity:1;" d="M 97.140625 27.105469 L 97.230469 27.105469 L 97.230469 27.472656 L 97.140625 27.472656 L 97.140625 27.105469 "/>
<path style=" stroke:none;fill-rule:evenodd;fill:rgb(58.053589%,8.825684%,19.969177%);fill-opacity:1;" d="M 97.324219 27.378906 L 97.324219 27.472656 L 97.230469 27.472656 L 97.230469 27.105469 L 97.050781 27.199219 L 97.324219 27.378906 "/>
<path style=" stroke:none;fill-rule:evenodd;fill:rgb(58.053589%,8.825684%,19.969177%);fill-opacity:1;" d="M 96.960938 27.199219 L 97.324219 27.378906 L 100.6875 16.554688 L 100.414062 16.464844 L 96.960938 27.199219 "/>
<path style=" stroke:none;fill-rule:evenodd;fill:rgb(58.053589%,8.825684%,19.969177%);fill-opacity:1;" d="M 97.140625 27.472656 L 96.960938 27.472656 L 96.960938 27.199219 L 97.324219 27.378906 L 97.140625 27.105469 L 97.140625 27.472656 "/>
<path style=" stroke:none;fill-rule:nonzero;fill:rgb(58.053589%,8.825684%,19.969177%);fill-opacity:1;" d="M 96.777344 16.375 L 100.597656 16.375 L 100.597656 16.648438 L 96.777344 16.648438 L 96.777344 16.375 "/>
<path style=" stroke:none;fill-rule:evenodd;fill:rgb(58.053589%,8.825684%,19.969177%);fill-opacity:1;" d="M 100.6875 16.554688 L 100.777344 16.375 L 100.597656 16.375 L 100.597656 16.648438 L 100.414062 16.464844 L 100.6875 16.554688 "/>
<path style=" stroke:none;fill-rule:evenodd;fill:rgb(58.053589%,8.825684%,19.969177%);fill-opacity:1;" d="M 96.960938 16.554688 L 96.59375 16.464844 L 92.867188 30.472656 L 93.230469 30.5625 L 96.960938 16.554688 "/>
<path style=" stroke:none;fill-rule:evenodd;fill:rgb(58.053589%,8.825684%,19.969177%);fill-opacity:1;" d="M 96.777344 16.375 L 96.59375 16.375 L 96.59375 16.464844 L 96.960938 16.554688 L 96.777344 16.648438 L 96.777344 16.375 "/>
<path style=" stroke:none;fill-rule:evenodd;fill:rgb(58.053589%,8.825684%,19.969177%);fill-opacity:1;" d="M 92.867188 30.472656 L 92.777344 30.65625 L 93.046875 30.65625 L 93.046875 30.289062 L 93.230469 30.5625 L 92.867188 30.472656 "/>
<path style=" stroke:none;fill-rule:evenodd;fill:rgb(58.053589%,8.825684%,19.969177%);fill-opacity:1;" d="M 111.96875 30.472656 L 115.878906 30.472656 L 122.699219 16.464844 L 118.789062 16.464844 L 111.96875 30.472656 "/>
<path style=" stroke:none;fill-rule:nonzero;fill:rgb(58.053589%,8.825684%,19.969177%);fill-opacity:1;" d="M 111.96875 30.289062 L 115.878906 30.289062 L 115.878906 30.65625 L 111.96875 30.65625 L 111.96875 30.289062 "/>
<path style=" stroke:none;fill-rule:evenodd;fill:rgb(58.053589%,8.825684%,19.969177%);fill-opacity:1;" d="M 115.695312 30.382812 L 115.96875 30.5625 L 122.882812 16.554688 L 122.609375 16.464844 L 115.695312 30.382812 "/>
<path style=" stroke:none;fill-rule:evenodd;fill:rgb(58.053589%,8.825684%,19.969177%);fill-opacity:1;" d="M 115.878906 30.65625 L 115.96875 30.65625 L 115.96875 30.5625 L 115.695312 30.382812 L 115.878906 30.289062 L 115.878906 30.65625 "/>
<path style=" stroke:none;fill-rule:nonzero;fill:rgb(58.053589%,8.825684%,19.969177%);fill-opacity:1;" d="M 118.789062 16.375 L 122.699219 16.375 L 122.699219 16.648438 L 118.789062 16.648438 L 118.789062 16.375 "/>
<path style=" stroke:none;fill-rule:evenodd;fill:rgb(58.053589%,8.825684%,19.969177%);fill-opacity:1;" d="M 122.882812 16.554688 L 122.972656 16.375 L 122.699219 16.375 L 122.699219 16.648438 L 122.609375 16.464844 L 122.882812 16.554688 "/>
<path style=" stroke:none;fill-rule:evenodd;fill:rgb(58.053589%,8.825684%,19.969177%);fill-opacity:1;" d="M 118.972656 16.554688 L 118.695312 16.464844 L 111.875 30.382812 L 112.148438 30.5625 L 118.972656 16.554688 "/>
<path style=" stroke:none;fill-rule:evenodd;fill:rgb(58.053589%,8.825684%,19.969177%);fill-opacity:1;" d="M 118.789062 16.375 L 118.695312 16.375 L 118.695312 16.464844 L 118.972656 16.554688 L 118.789062 16.648438 L 118.789062 16.375 "/>
<path style=" stroke:none;fill-rule:evenodd;fill:rgb(58.053589%,8.825684%,19.969177%);fill-opacity:1;" d="M 111.875 30.382812 L 111.695312 30.65625 L 111.96875 30.65625 L 111.96875 30.289062 L 112.148438 30.5625 L 111.875 30.382812 "/>
<path style=" stroke:none;fill-rule:evenodd;fill:rgb(58.053589%,8.825684%,19.969177%);fill-opacity:1;" d="M 117.96875 30.472656 L 121.609375 30.472656 L 126.339844 20.742188 L 126.703125 30.472656 L 131.613281 30.472656 L 138.527344 16.464844 L 134.796875 16.464844 L 130.066406 26.199219 L 129.703125 16.464844 L 124.882812 16.464844 L 117.96875 30.472656 "/>
<path style=" stroke:none;fill-rule:nonzero;fill:rgb(58.053589%,8.825684%,19.969177%);fill-opacity:1;" d="M 117.96875 30.289062 L 121.609375 30.289062 L 121.609375 30.65625 L 117.96875 30.65625 L 117.96875 30.289062 "/>
<path style=" stroke:none;fill-rule:evenodd;fill:rgb(58.053589%,8.825684%,19.969177%);fill-opacity:1;" d="M 121.425781 30.382812 L 121.789062 30.5625 L 126.429688 20.921875 L 126.066406 20.742188 L 121.425781 30.382812 "/>
<path style=" stroke:none;fill-rule:evenodd;fill:rgb(58.053589%,8.825684%,19.969177%);fill-opacity:1;" d="M 121.609375 30.65625 L 121.789062 30.65625 L 121.789062 30.5625 L 121.425781 30.382812 L 121.609375 30.289062 L 121.609375 30.65625 "/>
<path style=" stroke:none;fill-rule:evenodd;fill:rgb(58.053589%,8.825684%,19.969177%);fill-opacity:1;" d="M 126.066406 20.738281 L 126.15625 20.648438 L 126.339844 20.648438 L 126.339844 21.011719 L 126.429688 20.921875 L 126.066406 20.738281 "/>
<path style=" stroke:none;fill-rule:evenodd;fill:rgb(58.053589%,8.825684%,19.969177%);fill-opacity:1;" d="M 126.519531 20.738281 L 126.15625 20.738281 L 126.519531 30.472656 L 126.882812 30.472656 L 126.519531 20.738281 "/>
<path style=" stroke:none;fill-rule:evenodd;fill:rgb(58.053589%,8.825684%,19.969177%);fill-opacity:1;" d="M 126.339844 20.648438 L 126.519531 20.648438 L 126.519531 20.738281 L 126.15625 20.738281 L 126.339844 21.011719 L 126.339844 20.648438 "/>
<path style=" stroke:none;fill-rule:nonzero;fill:rgb(58.053589%,8.825684%,19.969177%);fill-opacity:1;" d="M 126.703125 30.289062 L 131.613281 30.289062 L 131.613281 30.65625 L 126.703125 30.65625 L 126.703125 30.289062 "/>
<path style=" stroke:none;fill-rule:evenodd;fill:rgb(58.053589%,8.825684%,19.969177%);fill-opacity:1;" d="M 126.519531 30.472656 L 126.519531 30.65625 L 126.703125 30.65625 L 126.703125 30.289062 L 126.882812 30.472656 L 126.519531 30.472656 "/>
<path style=" stroke:none;fill-rule:evenodd;fill:rgb(58.053589%,8.825684%,19.969177%);fill-opacity:1;" d="M 131.339844 30.382812 L 131.703125 30.5625 L 138.617188 16.554688 L 138.34375 16.464844 L 131.339844 30.382812 "/>
<path style=" stroke:none;fill-rule:evenodd;fill:rgb(58.053589%,8.825684%,19.969177%);fill-opacity:1;" d="M 131.613281 30.65625 L 131.703125 30.65625 L 131.703125 30.5625 L 131.339844 30.382812 L 131.613281 30.289062 L 131.613281 30.65625 "/>
<path style=" stroke:none;fill-rule:nonzero;fill:rgb(58.053589%,8.825684%,19.969177%);fill-opacity:1;" d="M 134.796875 16.375 L 138.527344 16.375 L 138.527344 16.648438 L 134.796875 16.648438 L 134.796875 16.375 "/>
<path style=" stroke:none;fill-rule:evenodd;fill:rgb(58.053589%,8.825684%,19.969177%);fill-opacity:1;" d="M 138.617188 16.554688 L 138.707031 16.375 L 138.527344 16.375 L 138.527344 16.648438 L 138.34375 16.464844 L 138.617188 16.554688 "/>
<path style=" stroke:none;fill-rule:evenodd;fill:rgb(58.053589%,8.825684%,19.969177%);fill-opacity:1;" d="M 134.886719 16.554688 L 134.613281 16.464844 L 129.886719 26.105469 L 130.25 26.289062 L 134.886719 16.554688 "/>
<path style=" stroke:none;fill-rule:evenodd;fill:rgb(58.053589%,8.825684%,19.969177%);fill-opacity:1;" d="M 134.796875 16.375 L 134.707031 16.375 L 134.613281 16.464844 L 134.886719 16.554688 L 134.796875 16.648438 L 134.796875 16.375 "/>
<path style=" stroke:none;fill-rule:evenodd;fill:rgb(58.053589%,8.825684%,19.969177%);fill-opacity:1;" d="M 130.25 26.289062 L 130.25 26.378906 L 130.066406 26.378906 L 130.066406 26.015625 L 129.886719 26.105469 L 130.25 26.289062 "/>
<path style=" stroke:none;fill-rule:evenodd;fill:rgb(58.053589%,8.825684%,19.969177%);fill-opacity:1;" d="M 129.886719 26.199219 L 130.15625 26.199219 L 129.886719 16.464844 L 129.519531 16.464844 L 129.886719 26.199219 "/>
<path style=" stroke:none;fill-rule:evenodd;fill:rgb(58.053589%,8.825684%,19.969177%);fill-opacity:1;" d="M 130.066406 26.378906 L 129.886719 26.378906 L 129.886719 26.199219 L 130.15625 26.199219 L 130.066406 26.015625 L 130.066406 26.378906 "/>
<path style=" stroke:none;fill-rule:nonzero;fill:rgb(58.053589%,8.825684%,19.969177%);fill-opacity:1;" d="M 124.882812 16.375 L 129.703125 16.375 L 129.703125 16.648438 L 124.882812 16.648438 L 124.882812 16.375 "/>
<path style=" stroke:none;fill-rule:evenodd;fill:rgb(58.053589%,8.825684%,19.969177%);fill-opacity:1;" d="M 129.886719 16.464844 L 129.886719 16.375 L 129.703125 16.375 L 129.703125 16.648438 L 129.519531 16.464844 L 129.886719 16.464844 "/>
<path style=" stroke:none;fill-rule:evenodd;fill:rgb(58.053589%,8.825684%,19.969177%);fill-opacity:1;" d="M 124.972656 16.554688 L 124.699219 16.464844 L 117.789062 30.382812 L 118.0625 30.5625 L 124.972656 16.554688 "/>
<path style=" stroke:none;fill-rule:evenodd;fill:rgb(58.053589%,8.825684%,19.969177%);fill-opacity:1;" d="M 124.882812 16.375 L 124.699219 16.375 L 124.699219 16.464844 L 124.972656 16.554688 L 124.882812 16.648438 L 124.882812 16.375 "/>
<path style=" stroke:none;fill-rule:evenodd;fill:rgb(58.053589%,8.825684%,19.969177%);fill-opacity:1;" d="M 117.789062 30.382812 L 117.695312 30.65625 L 117.96875 30.65625 L 117.96875 30.289062 L 118.0625 30.5625 L 117.789062 30.382812 "/>
<path style=" stroke:none;fill-rule:evenodd;fill:rgb(58.053589%,8.825684%,19.969177%);fill-opacity:1;" d="M 153.078125 17.011719 L 151.988281 16.648438 L 151.441406 16.554688 L 150.894531 16.464844 L 150.261719 16.464844 L 149.714844 16.375 L 149.078125 16.285156 L 147.804688 16.285156 L 147.167969 16.375 L 146.53125 16.375 L 146.074219 16.464844 L 145.4375 16.464844 L 144.894531 16.648438 L 144.4375 16.738281 L 143.894531 16.921875 L 142.984375 17.191406 L 142.074219 17.558594 L 141.617188 17.828125 L 141.164062 18.011719 L 140.800781 18.285156 L 140.4375 18.464844 L 140.074219 18.828125 L 139.710938 19.011719 L 139.4375 19.375 L 139.070312 19.648438 L 138.800781 20.011719 L 138.527344 20.285156 L 138.253906 20.738281 L 137.980469 21.011719 L 137.527344 21.742188 L 137.34375 22.195312 L 137.160156 22.558594 L 136.890625 23.378906 L 136.617188 24.289062 L 136.433594 24.925781 L 136.34375 25.289062 L 136.34375 26.832031 L 136.433594 27.199219 L 136.433594 27.46875 L 136.523438 27.742188 L 136.707031 28.015625 L 136.800781 28.199219 L 136.890625 28.472656 L 137.070312 28.742188 L 137.4375 29.109375 L 137.617188 29.378906 L 137.800781 29.472656 L 138.070312 29.652344 L 138.34375 29.925781 L 138.617188 30.015625 L 138.890625 30.109375 L 139.164062 30.289062 L 139.800781 30.472656 L 140.617188 30.652344 L 141.347656 30.652344 L 141.800781 30.746094 L 142.164062 30.746094 L 143.347656 30.652344 L 143.984375 30.652344 L 145.4375 30.472656 L 146.167969 30.382812 L 146.4375 30.382812 L 146.804688 30.289062 L 147.441406 30.109375 L 151.261719 22.378906 L 147.53125 22.378906 L 144.804688 27.742188 L 144.4375 27.835938 L 143.984375 27.925781 L 143.621094 27.925781 L 143.257812 28.015625 L 142.800781 27.925781 L 142.527344 27.925781 L 142.164062 27.835938 L 141.890625 27.742188 L 141.527344 27.652344 L 141.347656 27.46875 L 141.074219 27.289062 L 140.980469 27.199219 L 140.890625 27.105469 L 140.800781 26.925781 L 140.710938 26.832031 L 140.617188 26.742188 L 140.617188 26.5625 L 140.4375 26.289062 L 140.347656 25.925781 L 140.347656 25.195312 L 140.4375 24.742188 L 140.617188 24.378906 L 140.710938 23.832031 L 140.890625 23.285156 L 141.074219 22.832031 L 141.253906 22.648438 L 141.347656 22.378906 L 142.074219 21.46875 L 143.257812 20.285156 L 144.347656 19.738281 L 144.804688 19.558594 L 145.164062 19.464844 L 145.4375 19.285156 L 145.804688 19.195312 L 146.074219 19.101562 L 146.4375 19.101562 L 146.714844 19.011719 L 148.078125 19.011719 L 148.621094 19.101562 L 149.167969 19.101562 L 149.714844 19.195312 L 150.167969 19.285156 L 151.53125 19.832031 L 153.078125 17.011719 "/>
<path style=" stroke:none;fill-rule:evenodd;fill:rgb(58.053589%,8.825684%,19.969177%);fill-opacity:1;" d="M 153.078125 17.101562 L 151.988281 16.828125 L 150.894531 16.648438 L 149.714844 16.464844 L 148.441406 16.464844 L 148.441406 16.101562 L 149.714844 16.191406 L 150.988281 16.375 L 152.078125 16.554688 L 153.171875 16.828125 L 153.078125 17.101562 "/>
<path style=" stroke:none;fill-rule:evenodd;fill:rgb(58.053589%,8.825684%,19.969177%);fill-opacity:1;" d="M 148.441406 16.464844 L 147.257812 16.464844 L 146.074219 16.554688 L 144.984375 16.828125 L 143.894531 17.011719 L 143.074219 17.375 L 142.164062 17.738281 L 141.253906 18.191406 L 140.527344 18.648438 L 139.800781 19.195312 L 139.164062 19.832031 L 138.707031 20.46875 L 138.160156 21.105469 L 137.707031 21.832031 L 137.253906 22.648438 L 137.070312 23.378906 L 136.796875 24.289062 L 136.433594 24.195312 L 136.707031 23.285156 L 136.980469 22.46875 L 137.34375 21.648438 L 137.800781 20.921875 L 138.4375 20.195312 L 138.890625 19.558594 L 139.617188 18.921875 L 140.253906 18.375 L 141.074219 17.921875 L 141.980469 17.464844 L 142.800781 17.011719 L 144.800781 16.464844 L 145.984375 16.285156 L 147.167969 16.191406 L 148.441406 16.101562 L 148.441406 16.464844 "/>
<path style=" stroke:none;fill-rule:evenodd;fill:rgb(58.053589%,8.825684%,19.969177%);fill-opacity:1;" d="M 136.796875 24.195312 L 136.523438 25.652344 L 136.523438 26.835938 L 136.617188 27.378906 L 136.796875 27.925781 L 137.34375 28.835938 L 137.707031 29.199219 L 138.160156 29.5625 L 138.707031 29.925781 L 139.253906 30.109375 L 140.527344 30.472656 L 141.347656 30.5625 L 142.164062 30.5625 L 142.164062 30.925781 L 141.253906 30.835938 L 140.4375 30.746094 L 139.800781 30.65625 L 139.070312 30.472656 L 138.527344 30.199219 L 137.980469 29.925781 L 137.433594 29.472656 L 136.707031 28.5625 L 136.433594 28.109375 L 136.253906 27.472656 L 136.160156 26.925781 L 136.160156 25.5625 L 136.433594 24.195312 L 136.796875 24.195312 "/>
<path style=" stroke:none;fill-rule:evenodd;fill:rgb(58.053589%,8.825684%,19.969177%);fill-opacity:1;" d="M 136.433594 24.195312 L 136.796875 24.195312 L 136.796875 24.289062 L 136.433594 24.195312 "/>
<path style=" stroke:none;fill-rule:evenodd;fill:rgb(58.053589%,8.825684%,19.969177%);fill-opacity:1;" d="M 142.164062 30.5625 L 143.347656 30.5625 L 144.710938 30.382812 L 146.167969 30.199219 L 147.4375 30.019531 L 147.4375 30.289062 L 146.167969 30.5625 L 144.710938 30.746094 L 143.347656 30.835938 L 142.164062 30.925781 L 142.164062 30.5625 "/>
<path style=" stroke:none;fill-rule:evenodd;fill:rgb(58.053589%,8.825684%,19.969177%);fill-opacity:1;" d="M 147.257812 30.019531 L 147.53125 30.199219 L 151.441406 22.378906 L 151.078125 22.285156 L 147.257812 30.019531 "/>
<path style=" stroke:none;fill-rule:evenodd;fill:rgb(58.053589%,8.825684%,19.969177%);fill-opacity:1;" d="M 147.4375 30.289062 L 147.53125 30.289062 L 147.53125 30.199219 L 147.257812 30.019531 L 147.4375 30.019531 L 147.4375 30.289062 "/>
<path style=" stroke:none;fill-rule:nonzero;fill:rgb(58.053589%,8.825684%,19.969177%);fill-opacity:1;" d="M 147.53125 22.195312 L 151.261719 22.195312 L 151.261719 22.558594 L 147.53125 22.558594 L 147.53125 22.195312 "/>
<path style=" stroke:none;fill-rule:evenodd;fill:rgb(58.053589%,8.825684%,19.969177%);fill-opacity:1;" d="M 151.441406 22.378906 L 151.53125 22.195312 L 151.261719 22.195312 L 151.261719 22.46875 L 151.078125 22.285156 L 151.441406 22.378906 "/>
<path style=" stroke:none;fill-rule:evenodd;fill:rgb(58.053589%,8.825684%,19.969177%);fill-opacity:1;" d="M 147.714844 22.378906 L 147.347656 22.285156 L 144.621094 27.652344 L 144.894531 27.835938 L 147.714844 22.378906 "/>
<path style=" stroke:none;fill-rule:evenodd;fill:rgb(58.053589%,8.825684%,19.969177%);fill-opacity:1;" d="M 147.53125 22.195312 L 147.4375 22.195312 L 147.347656 22.285156 L 147.714844 22.378906 L 147.53125 22.46875 L 147.53125 22.195312 "/>
<path style=" stroke:none;fill-rule:evenodd;fill:rgb(58.053589%,8.825684%,19.969177%);fill-opacity:1;" d="M 144.800781 27.925781 L 143.984375 28.109375 L 143.257812 28.109375 L 143.164062 27.835938 L 143.894531 27.742188 L 144.710938 27.5625 L 144.800781 27.925781 "/>
<path style=" stroke:none;fill-rule:evenodd;fill:rgb(58.053589%,8.825684%,19.969177%);fill-opacity:1;" d="M 144.894531 27.835938 L 144.894531 27.925781 L 144.800781 27.925781 L 144.710938 27.5625 L 144.621094 27.652344 L 144.894531 27.835938 "/>
<path style=" stroke:none;fill-rule:evenodd;fill:rgb(58.053589%,8.825684%,19.969177%);fill-opacity:1;" d="M 143.257812 28.109375 L 142.4375 28.109375 L 141.800781 27.925781 L 141.164062 27.5625 L 140.800781 27.199219 L 140.347656 26.652344 L 140.253906 26.015625 L 140.253906 25.105469 L 140.347656 24.289062 L 140.710938 24.378906 L 140.527344 25.195312 L 140.527344 25.925781 L 140.710938 26.46875 L 140.980469 27.015625 L 141.347656 27.378906 L 141.980469 27.5625 L 142.527344 27.742188 L 143.257812 27.835938 L 143.257812 28.109375 "/>
<path style=" stroke:none;fill-rule:evenodd;fill:rgb(58.053589%,8.825684%,19.969177%);fill-opacity:1;" d="M 143.257812 28.109375 L 143.257812 27.835938 L 143.164062 27.835938 L 143.257812 28.109375 "/>
<path style=" stroke:none;fill-rule:evenodd;fill:rgb(58.053589%,8.825684%,19.969177%);fill-opacity:1;" d="M 140.34375 24.289062 L 140.710938 23.195312 L 141.253906 22.285156 L 141.890625 21.378906 L 142.253906 20.921875 L 142.617188 20.558594 L 143.164062 20.195312 L 143.710938 19.921875 L 144.800781 19.375 L 146.074219 18.921875 L 147.4375 18.832031 L 147.4375 19.195312 L 146.164062 19.285156 L 144.894531 19.648438 L 143.894531 20.195312 L 143.347656 20.46875 L 142.890625 20.742188 L 142.164062 21.648438 L 141.527344 22.46875 L 140.980469 23.378906 L 140.710938 24.46875 L 140.34375 24.289062 "/>
<path style=" stroke:none;fill-rule:evenodd;fill:rgb(58.053589%,8.825684%,19.969177%);fill-opacity:1;" d="M 140.34375 24.289062 L 140.710938 24.46875 L 140.710938 24.378906 L 140.34375 24.289062 "/>
<path style=" stroke:none;fill-rule:evenodd;fill:rgb(58.053589%,8.825684%,19.969177%);fill-opacity:1;" d="M 147.4375 18.828125 L 148.621094 18.921875 L 149.714844 19.011719 L 150.714844 19.285156 L 151.625 19.648438 L 151.441406 20.011719 L 150.53125 19.648438 L 149.621094 19.375 L 148.621094 19.195312 L 147.4375 19.195312 L 147.4375 18.828125 "/>
<path style=" stroke:none;fill-rule:evenodd;fill:rgb(58.053589%,8.825684%,19.969177%);fill-opacity:1;" d="M 151.351562 19.738281 L 151.625 19.921875 L 153.261719 17.101562 L 152.988281 16.921875 L 151.351562 19.738281 "/>
<path style=" stroke:none;fill-rule:evenodd;fill:rgb(58.053589%,8.825684%,19.969177%);fill-opacity:1;" d="M 151.441406 20.011719 L 151.625 20.011719 L 151.625 19.921875 L 151.351562 19.738281 L 151.625 19.648438 L 151.441406 20.011719 "/>
<path style=" stroke:none;fill-rule:evenodd;fill:rgb(58.053589%,8.825684%,19.969177%);fill-opacity:1;" d="M 153.261719 17.101562 L 153.351562 16.921875 L 153.171875 16.828125 L 153.078125 17.101562 L 152.988281 16.921875 L 153.261719 17.101562 "/>
<path style=" stroke:none;fill-rule:evenodd;fill:rgb(58.053589%,8.825684%,19.969177%);fill-opacity:1;" d="M 166.175781 16.921875 L 165.8125 16.738281 L 165.449219 16.648438 L 164.902344 16.464844 L 164.355469 16.464844 L 163.8125 16.375 L 163.175781 16.375 L 162.539062 16.285156 L 161.265625 16.285156 L 160.628906 16.375 L 160.082031 16.464844 L 159.445312 16.464844 L 158.898438 16.648438 L 158.265625 16.828125 L 157.71875 17.011719 L 157.082031 17.285156 L 156.898438 17.375 L 156.628906 17.558594 L 156.171875 17.921875 L 155.625 18.285156 L 155.535156 18.464844 L 155.078125 18.921875 L 154.535156 19.738281 L 154.441406 20.011719 L 154.261719 20.285156 L 153.988281 21.375 L 153.988281 22.46875 L 154.078125 22.742188 L 154.261719 22.921875 L 154.351562 23.195312 L 154.535156 23.285156 L 154.625 23.378906 L 154.71875 23.46875 L 155.078125 23.832031 L 155.535156 24.105469 L 156.082031 24.289062 L 156.988281 24.652344 L 157.355469 24.832031 L 157.808594 25.105469 L 157.898438 25.195312 L 157.992188 25.378906 L 158.171875 25.46875 L 158.265625 25.652344 L 158.265625 25.742188 L 158.355469 25.925781 L 158.355469 26.105469 L 158.265625 26.289062 L 158.082031 26.832031 L 157.898438 27.015625 L 157.808594 27.199219 L 157.535156 27.378906 L 157.355469 27.46875 L 157.082031 27.5625 L 156.535156 27.742188 L 156.355469 27.835938 L 156.082031 27.835938 L 155.71875 27.925781 L 155.261719 27.925781 L 154.808594 28.015625 L 154.261719 27.925781 L 153.808594 27.925781 L 153.261719 27.835938 L 152.808594 27.742188 L 152.441406 27.652344 L 151.988281 27.5625 L 151.625 27.378906 L 151.53125 27.289062 L 151.351562 27.199219 L 149.714844 30.015625 L 150.167969 30.199219 L 150.625 30.289062 L 151.167969 30.382812 L 151.714844 30.5625 L 152.261719 30.652344 L 152.808594 30.652344 L 153.441406 30.746094 L 154.625 30.746094 L 155.261719 30.652344 L 155.898438 30.652344 L 156.535156 30.5625 L 157.808594 30.199219 L 158.535156 30.015625 L 159.082031 29.746094 L 159.355469 29.5625 L 159.628906 29.472656 L 160.71875 28.742188 L 161.082031 28.199219 L 161.539062 27.742188 L 162.085938 26.925781 L 162.175781 26.5625 L 162.355469 26.199219 L 162.445312 25.832031 L 162.445312 25.46875 L 162.539062 25.289062 L 162.539062 24.46875 L 162.445312 24.195312 L 162.445312 23.921875 L 162.355469 23.742188 L 162.175781 23.46875 L 161.8125 23.105469 L 161.71875 22.921875 L 161.539062 22.832031 L 161.082031 22.46875 L 160.539062 22.285156 L 160.175781 22.011719 L 159.71875 21.832031 L 159.265625 21.648438 L 158.898438 21.46875 L 158.71875 21.375 L 158.628906 21.285156 L 158.445312 21.195312 L 158.355469 21.011719 L 158.265625 20.921875 L 158.265625 20.375 L 158.535156 19.832031 L 158.628906 19.738281 L 158.992188 19.46875 L 159.355469 19.285156 L 159.808594 19.101562 L 160.355469 19.101562 L 160.902344 19.011719 L 161.902344 19.011719 L 162.445312 19.101562 L 162.902344 19.101562 L 163.175781 19.195312 L 163.628906 19.285156 L 163.992188 19.46875 L 164.449219 19.648438 L 166.175781 16.921875 "/>
<path style=" stroke:none;fill-rule:evenodd;fill:rgb(58.053589%,8.825684%,19.969177%);fill-opacity:1;" d="M 166.085938 17.011719 L 165.722656 16.921875 L 165.359375 16.828125 L 164.355469 16.554688 L 163.175781 16.464844 L 161.8125 16.464844 L 161.8125 16.101562 L 163.175781 16.191406 L 164.449219 16.285156 L 165.449219 16.464844 L 165.8125 16.648438 L 166.269531 16.738281 L 166.085938 17.011719 "/>
<path style=" stroke:none;fill-rule:evenodd;fill:rgb(58.053589%,8.825684%,19.969177%);fill-opacity:1;" d="M 161.8125 16.464844 L 160.71875 16.464844 L 159.445312 16.648438 L 158.265625 17.011719 L 157.808594 17.191406 L 157.171875 17.375 L 156.261719 18.011719 L 155.808594 18.375 L 155.445312 18.828125 L 154.71875 19.832031 L 154.171875 21.105469 L 153.898438 20.921875 L 154.351562 19.648438 L 155.171875 18.648438 L 155.535156 18.191406 L 155.988281 17.738281 L 156.988281 17.101562 L 157.628906 16.921875 L 158.171875 16.648438 L 159.355469 16.375 L 160.628906 16.191406 L 161.8125 16.101562 L 161.8125 16.464844 "/>
<path style=" stroke:none;fill-rule:evenodd;fill:rgb(58.053589%,8.825684%,19.969177%);fill-opacity:1;" d="M 154.261719 21.011719 L 154.171875 21.648438 L 154.171875 22.195312 L 154.261719 22.648438 L 154.535156 23.105469 L 154.808594 23.378906 L 155.171875 23.652344 L 156.171875 24.195312 L 157.082031 24.558594 L 157.808594 24.925781 L 158.171875 25.195312 L 158.445312 25.5625 L 158.535156 25.925781 L 158.535156 26.289062 L 158.082031 26.289062 L 158.171875 25.925781 L 158.082031 25.742188 L 157.71875 25.195312 L 156.898438 24.832031 L 155.898438 24.46875 L 154.988281 23.921875 L 154.535156 23.652344 L 154.261719 23.285156 L 153.988281 22.832031 L 153.808594 22.285156 L 153.808594 21.648438 L 153.898438 20.921875 L 154.261719 21.011719 "/>
<path style=" stroke:none;fill-rule:evenodd;fill:rgb(58.053589%,8.825684%,19.969177%);fill-opacity:1;" d="M 153.898438 20.921875 L 154.261719 21.011719 L 154.171875 21.105469 L 153.898438 20.921875 "/>
<path style=" stroke:none;fill-rule:evenodd;fill:rgb(58.053589%,8.825684%,19.969177%);fill-opacity:1;" d="M 158.445312 26.378906 L 158.171875 26.835938 L 157.808594 27.289062 L 157.445312 27.5625 L 156.898438 27.835938 L 156.355469 28.015625 L 155.71875 28.109375 L 154.808594 28.109375 L 154.808594 27.835938 L 155.625 27.742188 L 156.261719 27.652344 L 156.71875 27.5625 L 157.171875 27.378906 L 157.628906 27.015625 L 157.898438 26.742188 L 158.082031 26.199219 L 158.445312 26.378906 "/>
<path style=" stroke:none;fill-rule:evenodd;fill:rgb(58.053589%,8.825684%,19.969177%);fill-opacity:1;" d="M 158.535156 26.289062 L 158.445312 26.378906 L 158.082031 26.199219 L 158.082031 26.289062 L 158.535156 26.289062 "/>
<path style=" stroke:none;fill-rule:evenodd;fill:rgb(58.053589%,8.825684%,19.969177%);fill-opacity:1;" d="M 154.808594 28.109375 L 153.808594 28.109375 L 152.714844 27.925781 L 151.894531 27.652344 L 151.53125 27.472656 L 151.261719 27.289062 L 151.441406 27.015625 L 151.714844 27.199219 L 152.078125 27.378906 L 152.808594 27.5625 L 153.808594 27.742188 L 154.808594 27.835938 L 154.808594 28.109375 "/>
<path style=" stroke:none;fill-rule:evenodd;fill:rgb(58.053589%,8.825684%,19.969177%);fill-opacity:1;" d="M 151.53125 27.289062 L 151.167969 27.105469 L 149.441406 29.925781 L 149.804688 30.109375 L 151.53125 27.289062 "/>
<path style=" stroke:none;fill-rule:evenodd;fill:rgb(58.053589%,8.825684%,19.969177%);fill-opacity:1;" d="M 151.441406 27.015625 L 151.261719 26.925781 L 151.167969 27.105469 L 151.53125 27.289062 L 151.261719 27.289062 L 151.441406 27.015625 "/>
<path style=" stroke:none;fill-rule:evenodd;fill:rgb(58.053589%,8.825684%,19.969177%);fill-opacity:1;" d="M 149.714844 29.835938 L 151.714844 30.382812 L 152.804688 30.472656 L 153.988281 30.5625 L 153.988281 30.925781 L 152.804688 30.835938 L 151.625 30.65625 L 150.53125 30.472656 L 149.621094 30.199219 L 149.714844 29.835938 "/>
<path style=" stroke:none;fill-rule:evenodd;fill:rgb(58.053589%,8.825684%,19.969177%);fill-opacity:1;" d="M 149.441406 29.925781 L 149.351562 30.109375 L 149.621094 30.199219 L 149.714844 29.835938 L 149.804688 30.109375 L 149.441406 29.925781 "/>
<path style=" stroke:none;fill-rule:evenodd;fill:rgb(58.053589%,8.825684%,19.969177%);fill-opacity:1;" d="M 153.988281 30.5625 L 155.261719 30.5625 L 156.535156 30.382812 L 157.808594 30.019531 L 158.445312 29.925781 L 158.992188 29.5625 L 159.535156 29.289062 L 159.992188 28.925781 L 160.992188 28.109375 L 161.445312 27.652344 L 161.71875 27.105469 L 162.265625 25.832031 L 162.539062 25.925781 L 162.355469 26.652344 L 161.992188 27.289062 L 161.71875 27.835938 L 161.175781 28.378906 L 160.265625 29.199219 L 159.171875 29.925781 L 158.535156 30.199219 L 157.898438 30.382812 L 156.625 30.65625 L 155.261719 30.835938 L 153.988281 30.925781 L 153.988281 30.5625 "/>
<path style=" stroke:none;fill-rule:evenodd;fill:rgb(58.053589%,8.825684%,19.969177%);fill-opacity:1;" d="M 162.265625 25.832031 L 162.355469 25.105469 L 162.355469 24.558594 L 162.265625 24.015625 L 162.085938 23.652344 L 161.71875 23.195312 L 161.355469 22.921875 L 160.902344 22.652344 L 160.445312 22.46875 L 159.535156 22.015625 L 158.71875 21.558594 L 158.445312 21.378906 L 158.171875 21.105469 L 158.082031 20.742188 L 158.082031 20.285156 L 158.445312 20.375 L 158.445312 20.742188 L 158.628906 21.105469 L 158.898438 21.378906 L 159.71875 21.742188 L 160.628906 22.195312 L 161.082031 22.378906 L 161.628906 22.652344 L 161.902344 23.015625 L 162.355469 23.378906 L 162.539062 23.832031 L 162.722656 24.46875 L 162.722656 25.105469 L 162.539062 25.925781 L 162.265625 25.832031 "/>
<path style=" stroke:none;fill-rule:evenodd;fill:rgb(58.053589%,8.825684%,19.969177%);fill-opacity:1;" d="M 162.539062 25.925781 L 162.265625 25.832031 L 162.539062 25.925781 "/>
<path style=" stroke:none;fill-rule:evenodd;fill:rgb(58.053589%,8.825684%,19.969177%);fill-opacity:1;" d="M 158.082031 20.285156 L 158.265625 19.921875 L 158.535156 19.558594 L 158.898438 19.285156 L 159.355469 19.101562 L 160.355469 18.921875 L 161.445312 18.832031 L 161.445312 19.195312 L 160.355469 19.285156 L 159.355469 19.46875 L 159.082031 19.648438 L 158.71875 19.832031 L 158.628906 20.101562 L 158.445312 20.46875 L 158.082031 20.285156 "/>
<path style=" stroke:none;fill-rule:evenodd;fill:rgb(58.053589%,8.825684%,19.969177%);fill-opacity:1;" d="M 158.082031 20.285156 L 158.445312 20.46875 L 158.445312 20.375 L 158.082031 20.285156 "/>
<path style=" stroke:none;fill-rule:evenodd;fill:rgb(58.053589%,8.825684%,19.969177%);fill-opacity:1;" d="M 161.445312 18.828125 L 162.445312 18.921875 L 163.265625 19.011719 L 164.539062 19.558594 L 164.355469 19.832031 L 163.175781 19.464844 L 162.355469 19.285156 L 161.445312 19.195312 L 161.445312 18.828125 "/>
<path style=" stroke:none;fill-rule:evenodd;fill:rgb(58.053589%,8.825684%,19.969177%);fill-opacity:1;" d="M 164.355469 19.558594 L 164.632812 19.832031 L 166.269531 17.011719 L 165.996094 16.828125 L 164.355469 19.558594 "/>
<path style=" stroke:none;fill-rule:evenodd;fill:rgb(58.053589%,8.825684%,19.969177%);fill-opacity:1;" d="M 164.355469 19.832031 L 164.539062 19.921875 L 164.632812 19.832031 L 164.355469 19.558594 L 164.539062 19.558594 L 164.355469 19.832031 "/>
<path style=" stroke:none;fill-rule:evenodd;fill:rgb(58.053589%,8.825684%,19.969177%);fill-opacity:1;" d="M 166.269531 17.011719 L 166.449219 16.828125 L 166.269531 16.738281 L 166.085938 17.011719 L 165.996094 16.828125 L 166.269531 17.011719 "/>
<path style=" stroke:none;fill-rule:evenodd;fill:rgb(58.053589%,8.825684%,19.969177%);fill-opacity:1;" d="M 74.765625 30.472656 L 85.226562 30.472656 L 86.589844 27.835938 L 79.859375 27.835938 L 81.40625 24.652344 L 87.5 24.652344 L 88.863281 22.015625 L 82.769531 22.015625 L 84.226562 19.101562 L 90.59375 19.101562 L 91.957031 16.464844 L 81.679688 16.464844 L 74.765625 30.472656 "/>
<path style=" stroke:none;fill-rule:nonzero;fill:rgb(58.053589%,8.825684%,19.969177%);fill-opacity:1;" d="M 74.765625 30.289062 L 85.226562 30.289062 L 85.226562 30.65625 L 74.765625 30.65625 L 74.765625 30.289062 "/>
<path style=" stroke:none;fill-rule:evenodd;fill:rgb(58.053589%,8.825684%,19.969177%);fill-opacity:1;" d="M 85.042969 30.382812 L 85.40625 30.5625 L 86.679688 27.925781 L 86.40625 27.742188 L 85.042969 30.382812 "/>
<path style=" stroke:none;fill-rule:evenodd;fill:rgb(58.053589%,8.825684%,19.969177%);fill-opacity:1;" d="M 85.226562 30.65625 L 85.40625 30.65625 L 85.40625 30.5625 L 85.042969 30.382812 L 85.226562 30.289062 L 85.226562 30.65625 "/>
<path style=" stroke:none;fill-rule:nonzero;fill:rgb(58.053589%,8.825684%,19.969177%);fill-opacity:1;" d="M 79.859375 27.652344 L 86.589844 27.652344 L 86.589844 28.015625 L 79.859375 28.015625 L 79.859375 27.652344 "/>
<path style=" stroke:none;fill-rule:evenodd;fill:rgb(58.053589%,8.825684%,19.969177%);fill-opacity:1;" d="M 86.679688 27.925781 L 86.773438 27.652344 L 86.589844 27.652344 L 86.589844 28.015625 L 86.40625 27.742188 L 86.679688 27.925781 "/>
<path style=" stroke:none;fill-rule:evenodd;fill:rgb(58.053589%,8.825684%,19.969177%);fill-opacity:1;" d="M 79.675781 27.742188 L 80.042969 27.925781 L 81.585938 24.742188 L 81.222656 24.558594 L 79.675781 27.742188 "/>
<path style=" stroke:none;fill-rule:evenodd;fill:rgb(58.053589%,8.825684%,19.969177%);fill-opacity:1;" d="M 79.859375 28.015625 L 79.675781 28.015625 L 79.675781 27.742188 L 80.042969 27.925781 L 79.859375 27.652344 L 79.859375 28.015625 "/>
<path style=" stroke:none;fill-rule:nonzero;fill:rgb(58.053589%,8.825684%,19.969177%);fill-opacity:1;" d="M 81.40625 24.46875 L 87.5 24.46875 L 87.5 24.832031 L 81.40625 24.832031 L 81.40625 24.46875 "/>
<path style=" stroke:none;fill-rule:evenodd;fill:rgb(58.053589%,8.825684%,19.969177%);fill-opacity:1;" d="M 81.222656 24.558594 L 81.316406 24.46875 L 81.40625 24.46875 L 81.40625 24.832031 L 81.585938 24.742188 L 81.222656 24.558594 "/>
<path style=" stroke:none;fill-rule:evenodd;fill:rgb(58.053589%,8.825684%,19.969177%);fill-opacity:1;" d="M 87.410156 24.558594 L 87.679688 24.742188 L 88.957031 22.105469 L 88.679688 21.921875 L 87.410156 24.558594 "/>
<path style=" stroke:none;fill-rule:evenodd;fill:rgb(58.053589%,8.825684%,19.969177%);fill-opacity:1;" d="M 87.5 24.832031 L 87.679688 24.832031 L 87.679688 24.742188 L 87.410156 24.558594 L 87.5 24.46875 L 87.5 24.832031 "/>
<path style=" stroke:none;fill-rule:nonzero;fill:rgb(58.053589%,8.825684%,19.969177%);fill-opacity:1;" d="M 82.769531 21.832031 L 88.863281 21.832031 L 88.863281 22.195312 L 82.769531 22.195312 L 82.769531 21.832031 "/>
<path style=" stroke:none;fill-rule:evenodd;fill:rgb(58.053589%,8.825684%,19.969177%);fill-opacity:1;" d="M 88.957031 22.105469 L 89.136719 21.832031 L 88.863281 21.832031 L 88.863281 22.195312 L 88.683594 21.921875 L 88.957031 22.105469 "/>
<path style=" stroke:none;fill-rule:evenodd;fill:rgb(58.053589%,8.825684%,19.969177%);fill-opacity:1;" d="M 82.589844 21.921875 L 82.859375 22.105469 L 84.316406 19.195312 L 84.042969 19.011719 L 82.589844 21.921875 "/>
<path style=" stroke:none;fill-rule:evenodd;fill:rgb(58.053589%,8.825684%,19.969177%);fill-opacity:1;" d="M 82.769531 22.195312 L 82.496094 22.195312 L 82.589844 21.921875 L 82.859375 22.105469 L 82.769531 21.832031 L 82.769531 22.195312 "/>
<path style=" stroke:none;fill-rule:nonzero;fill:rgb(58.053589%,8.825684%,19.969177%);fill-opacity:1;" d="M 84.226562 18.921875 L 90.59375 18.921875 L 90.59375 19.375 L 84.226562 19.375 L 84.226562 18.921875 "/>
<path style=" stroke:none;fill-rule:evenodd;fill:rgb(58.053589%,8.825684%,19.969177%);fill-opacity:1;" d="M 84.042969 19.011719 L 84.132812 18.921875 L 84.226562 18.921875 L 84.226562 19.285156 L 84.316406 19.195312 L 84.042969 19.011719 "/>
<path style=" stroke:none;fill-rule:evenodd;fill:rgb(58.053589%,8.825684%,19.969177%);fill-opacity:1;" d="M 90.410156 19.011719 L 90.773438 19.195312 L 92.046875 16.554688 L 91.773438 16.464844 L 90.410156 19.011719 "/>
<path style=" stroke:none;fill-rule:evenodd;fill:rgb(58.053589%,8.825684%,19.969177%);fill-opacity:1;" d="M 90.59375 19.285156 L 90.773438 19.285156 L 90.773438 19.195312 L 90.410156 19.011719 L 90.59375 18.921875 L 90.59375 19.285156 "/>
<path style=" stroke:none;fill-rule:nonzero;fill:rgb(58.053589%,8.825684%,19.969177%);fill-opacity:1;" d="M 81.679688 16.285156 L 91.957031 16.285156 L 91.957031 16.648438 L 81.679688 16.648438 L 81.679688 16.285156 "/>
<path style=" stroke:none;fill-rule:evenodd;fill:rgb(58.053589%,8.825684%,19.969177%);fill-opacity:1;" d="M 92.046875 16.554688 L 92.140625 16.285156 L 91.957031 16.285156 L 91.957031 16.648438 L 91.773438 16.375 L 92.046875 16.554688 "/>
<path style=" stroke:none;fill-rule:evenodd;fill:rgb(58.053589%,8.825684%,19.969177%);fill-opacity:1;" d="M 81.859375 16.554688 L 81.496094 16.375 L 74.585938 30.382812 L 74.855469 30.5625 L 81.859375 16.554688 "/>
<path style=" stroke:none;fill-rule:evenodd;fill:rgb(58.053589%,8.825684%,19.969177%);fill-opacity:1;" d="M 81.679688 16.285156 L 81.585938 16.285156 L 81.496094 16.375 L 81.859375 16.554688 L 81.679688 16.648438 L 81.679688 16.285156 "/>
<path style=" stroke:none;fill-rule:evenodd;fill:rgb(58.053589%,8.825684%,19.969177%);fill-opacity:1;" d="M 74.585938 30.382812 L 74.492188 30.65625 L 74.765625 30.65625 L 74.765625 30.289062 L 74.855469 30.5625 L 74.585938 30.382812 "/>
<path style=" stroke:none;fill-rule:evenodd;fill:rgb(58.053589%,8.825684%,19.969177%);fill-opacity:1;" d="M 32.015625 30.472656 L 35.925781 30.472656 L 42.75 16.464844 L 38.839844 16.464844 L 32.015625 30.472656 "/>
<path style=" stroke:none;fill-rule:nonzero;fill:rgb(58.053589%,8.825684%,19.969177%);fill-opacity:1;" d="M 32.015625 30.289062 L 35.925781 30.289062 L 35.925781 30.65625 L 32.015625 30.65625 L 32.015625 30.289062 "/>
<path style=" stroke:none;fill-rule:evenodd;fill:rgb(58.053589%,8.825684%,19.969177%);fill-opacity:1;" d="M 35.746094 30.382812 L 36.019531 30.5625 L 42.839844 16.554688 L 42.566406 16.375 L 35.746094 30.382812 "/>
<path style=" stroke:none;fill-rule:evenodd;fill:rgb(58.053589%,8.825684%,19.969177%);fill-opacity:1;" d="M 35.925781 30.65625 L 36.019531 30.65625 L 36.019531 30.5625 L 35.746094 30.382812 L 35.925781 30.289062 L 35.925781 30.65625 "/>
<path style=" stroke:none;fill-rule:nonzero;fill:rgb(58.053589%,8.825684%,19.969177%);fill-opacity:1;" d="M 38.839844 16.285156 L 42.75 16.285156 L 42.75 16.648438 L 38.839844 16.648438 L 38.839844 16.285156 "/>
<path style=" stroke:none;fill-rule:evenodd;fill:rgb(58.053589%,8.825684%,19.969177%);fill-opacity:1;" d="M 42.839844 16.554688 L 43.023438 16.285156 L 42.75 16.285156 L 42.75 16.648438 L 42.566406 16.375 L 42.839844 16.554688 "/>
<path style=" stroke:none;fill-rule:evenodd;fill:rgb(58.053589%,8.825684%,19.969177%);fill-opacity:1;" d="M 38.929688 16.554688 L 38.65625 16.375 L 31.835938 30.382812 L 32.105469 30.5625 L 38.929688 16.554688 "/>
<path style=" stroke:none;fill-rule:evenodd;fill:rgb(58.053589%,8.825684%,19.969177%);fill-opacity:1;" d="M 38.839844 16.285156 L 38.65625 16.285156 L 38.65625 16.375 L 38.929688 16.554688 L 38.839844 16.648438 L 38.839844 16.285156 "/>
<path style=" stroke:none;fill-rule:evenodd;fill:rgb(58.053589%,8.825684%,19.969177%);fill-opacity:1;" d="M 31.835938 30.382812 L 31.742188 30.65625 L 32.015625 30.65625 L 32.015625 30.289062 L 32.105469 30.5625 L 31.835938 30.382812 "/>
<path style=" stroke:none;fill-rule:evenodd;fill:rgb(58.053589%,8.825684%,19.969177%);fill-opacity:1;" d="M 58.484375 16.464844 L 54.300781 16.464844 L 45.75 27.015625 L 47.570312 16.464844 L 43.75 16.464844 L 41.839844 30.472656 L 46.570312 30.472656 L 58.484375 16.464844 "/>
<path style=" stroke:none;fill-rule:nonzero;fill:rgb(58.053589%,8.825684%,19.969177%);fill-opacity:1;" d="M 54.300781 16.285156 L 58.484375 16.285156 L 58.484375 16.648438 L 54.300781 16.648438 L 54.300781 16.285156 "/>
<path style=" stroke:none;fill-rule:evenodd;fill:rgb(58.053589%,8.825684%,19.969177%);fill-opacity:1;" d="M 54.390625 16.554688 L 54.117188 16.375 L 45.570312 26.925781 L 45.933594 27.199219 L 54.390625 16.554688 "/>
<path style=" stroke:none;fill-rule:evenodd;fill:rgb(58.053589%,8.825684%,19.969177%);fill-opacity:1;" d="M 54.300781 16.285156 L 54.210938 16.285156 L 54.117188 16.375 L 54.390625 16.554688 L 54.300781 16.648438 L 54.300781 16.285156 "/>
<path style=" stroke:none;fill-rule:evenodd;fill:rgb(58.053589%,8.825684%,19.969177%);fill-opacity:1;" d="M 45.933594 27.199219 L 45.933594 27.289062 L 45.75 27.289062 L 45.75 26.925781 L 45.570312 26.925781 L 45.933594 27.199219 "/>
<path style=" stroke:none;fill-rule:evenodd;fill:rgb(58.053589%,8.825684%,19.969177%);fill-opacity:1;" d="M 45.476562 27.015625 L 45.84375 27.105469 L 47.753906 16.464844 L 47.480469 16.464844 L 45.476562 27.015625 "/>
<path style=" stroke:none;fill-rule:evenodd;fill:rgb(58.053589%,8.825684%,19.969177%);fill-opacity:1;" d="M 45.75 27.289062 L 45.476562 27.289062 L 45.476562 27.015625 L 45.84375 27.105469 L 45.75 26.925781 L 45.75 27.289062 "/>
<path style=" stroke:none;fill-rule:nonzero;fill:rgb(58.053589%,8.825684%,19.969177%);fill-opacity:1;" d="M 43.75 16.285156 L 47.570312 16.285156 L 47.570312 16.648438 L 43.75 16.648438 L 43.75 16.285156 "/>
<path style=" stroke:none;fill-rule:evenodd;fill:rgb(58.053589%,8.825684%,19.969177%);fill-opacity:1;" d="M 47.753906 16.464844 L 47.753906 16.285156 L 47.570312 16.285156 L 47.570312 16.648438 L 47.480469 16.464844 L 47.753906 16.464844 "/>
<path style=" stroke:none;fill-rule:evenodd;fill:rgb(58.053589%,8.825684%,19.969177%);fill-opacity:1;" d="M 43.839844 16.464844 L 43.566406 16.464844 L 41.65625 30.472656 L 42.023438 30.472656 L 43.839844 16.464844 "/>
<path style=" stroke:none;fill-rule:evenodd;fill:rgb(58.053589%,8.825684%,19.969177%);fill-opacity:1;" d="M 43.75 16.285156 L 43.566406 16.285156 L 43.566406 16.464844 L 43.839844 16.464844 L 43.75 16.648438 L 43.75 16.285156 "/>
<path style=" stroke:none;fill-rule:nonzero;fill:rgb(58.053589%,8.825684%,19.969177%);fill-opacity:1;" d="M 41.839844 30.289062 L 46.570312 30.289062 L 46.570312 30.65625 L 41.839844 30.65625 L 41.839844 30.289062 "/>
<path style=" stroke:none;fill-rule:evenodd;fill:rgb(58.053589%,8.825684%,19.969177%);fill-opacity:1;" d="M 41.65625 30.472656 L 41.65625 30.65625 L 41.839844 30.65625 L 41.839844 30.289062 L 42.023438 30.472656 L 41.65625 30.472656 "/>
<path style=" stroke:none;fill-rule:evenodd;fill:rgb(58.053589%,8.825684%,19.969177%);fill-opacity:1;" d="M 46.476562 30.382812 L 46.75 30.65625 L 58.574219 16.554688 L 58.300781 16.375 L 46.476562 30.382812 "/>
<path style=" stroke:none;fill-rule:evenodd;fill:rgb(58.053589%,8.825684%,19.969177%);fill-opacity:1;" d="M 46.570312 30.65625 L 46.75 30.65625 L 46.476562 30.382812 L 46.570312 30.289062 L 46.570312 30.65625 "/>
<path style=" stroke:none;fill-rule:evenodd;fill:rgb(58.053589%,8.825684%,19.969177%);fill-opacity:1;" d="M 58.574219 16.554688 L 58.847656 16.285156 L 58.484375 16.285156 L 58.484375 16.648438 L 58.300781 16.375 L 58.574219 16.554688 "/>
<path style=" stroke:none;fill-rule:evenodd;fill:rgb(58.053589%,8.825684%,19.969177%);fill-opacity:1;" d="M 65.671875 30.472656 L 69.582031 30.472656 L 75.128906 19.285156 L 78.769531 19.285156 L 80.132812 16.464844 L 69.035156 16.464844 L 67.582031 19.285156 L 71.21875 19.285156 L 65.671875 30.472656 "/>
<path style=" stroke:none;fill-rule:nonzero;fill:rgb(58.053589%,8.825684%,19.969177%);fill-opacity:1;" d="M 65.671875 30.289062 L 69.582031 30.289062 L 69.582031 30.65625 L 65.671875 30.65625 L 65.671875 30.289062 "/>
<path style=" stroke:none;fill-rule:evenodd;fill:rgb(58.053589%,8.825684%,19.969177%);fill-opacity:1;" d="M 69.398438 30.382812 L 69.761719 30.5625 L 75.3125 19.375 L 74.949219 19.195312 L 69.398438 30.382812 "/>
<path style=" stroke:none;fill-rule:evenodd;fill:rgb(58.053589%,8.825684%,19.969177%);fill-opacity:1;" d="M 69.582031 30.65625 L 69.761719 30.65625 L 69.761719 30.5625 L 69.398438 30.382812 L 69.582031 30.289062 L 69.582031 30.65625 "/>
<path style=" stroke:none;fill-rule:nonzero;fill:rgb(58.053589%,8.825684%,19.969177%);fill-opacity:1;" d="M 75.128906 19.101562 L 78.769531 19.101562 L 78.769531 19.46875 L 75.128906 19.46875 L 75.128906 19.101562 "/>
<path style=" stroke:none;fill-rule:evenodd;fill:rgb(58.053589%,8.825684%,19.969177%);fill-opacity:1;" d="M 74.949219 19.195312 L 75.039062 19.101562 L 75.128906 19.101562 L 75.128906 19.46875 L 75.3125 19.375 L 74.949219 19.195312 "/>
<path style=" stroke:none;fill-rule:evenodd;fill:rgb(58.053589%,8.825684%,19.969177%);fill-opacity:1;" d="M 78.585938 19.195312 L 78.949219 19.375 L 80.3125 16.554688 L 79.949219 16.375 L 78.585938 19.195312 "/>
<path style=" stroke:none;fill-rule:evenodd;fill:rgb(58.053589%,8.825684%,19.969177%);fill-opacity:1;" d="M 78.769531 19.46875 L 78.949219 19.46875 L 78.949219 19.375 L 78.585938 19.195312 L 78.769531 19.101562 L 78.769531 19.46875 "/>
<path style=" stroke:none;fill-rule:nonzero;fill:rgb(58.053589%,8.825684%,19.969177%);fill-opacity:1;" d="M 69.035156 16.285156 L 80.222656 16.285156 L 80.222656 16.648438 L 69.035156 16.648438 L 69.035156 16.285156 "/>
<path style=" stroke:none;fill-rule:evenodd;fill:rgb(58.053589%,8.825684%,19.969177%);fill-opacity:1;" d="M 80.3125 16.554688 L 80.496094 16.285156 L 80.132812 16.285156 L 80.132812 16.648438 L 79.949219 16.375 L 80.3125 16.554688 "/>
<path style=" stroke:none;fill-rule:evenodd;fill:rgb(58.053589%,8.825684%,19.969177%);fill-opacity:1;" d="M 69.125 16.554688 L 68.761719 16.375 L 67.398438 19.195312 L 67.761719 19.375 L 69.125 16.554688 "/>
<path style=" stroke:none;fill-rule:evenodd;fill:rgb(58.053589%,8.825684%,19.969177%);fill-opacity:1;" d="M 69.035156 16.285156 L 68.851562 16.285156 L 68.761719 16.375 L 69.125 16.554688 L 69.035156 16.648438 L 69.035156 16.285156 "/>
<path style=" stroke:none;fill-rule:nonzero;fill:rgb(58.053589%,8.825684%,19.969177%);fill-opacity:1;" d="M 67.582031 19.101562 L 71.21875 19.101562 L 71.21875 19.46875 L 67.582031 19.46875 L 67.582031 19.101562 "/>
<path style=" stroke:none;fill-rule:evenodd;fill:rgb(58.053589%,8.825684%,19.969177%);fill-opacity:1;" d="M 67.398438 19.195312 L 67.308594 19.46875 L 67.582031 19.46875 L 67.582031 19.101562 L 67.761719 19.375 L 67.398438 19.195312 "/>
<path style=" stroke:none;fill-rule:evenodd;fill:rgb(58.053589%,8.825684%,19.969177%);fill-opacity:1;" d="M 71.308594 19.375 L 71.035156 19.195312 L 65.488281 30.382812 L 65.761719 30.5625 L 71.308594 19.375 "/>
<path style=" stroke:none;fill-rule:evenodd;fill:rgb(58.053589%,8.825684%,19.969177%);fill-opacity:1;" d="M 71.21875 19.101562 L 71.492188 19.101562 L 71.308594 19.375 L 71.035156 19.195312 L 71.21875 19.46875 L 71.21875 19.101562 "/>
<path style=" stroke:none;fill-rule:evenodd;fill:rgb(58.053589%,8.825684%,19.969177%);fill-opacity:1;" d="M 65.488281 30.382812 L 65.398438 30.65625 L 65.671875 30.65625 L 65.671875 30.289062 L 65.761719 30.5625 L 65.488281 30.382812 "/>
<path style=" stroke:none;fill-rule:evenodd;fill:rgb(7.78656%,13.581848%,21.803284%);fill-opacity:1;" d="M 174.363281 2.09375 L 110.328125 2.09375 L 108.601562 0.183594 L 176 0.183594 L 174.363281 2.09375 "/>
<path style=" stroke:none;fill-rule:evenodd;fill:rgb(7.78656%,13.581848%,21.803284%);fill-opacity:1;" d="M 137.253906 6.824219 L 114.332031 6.734375 L 112.605469 4.730469 L 138.890625 4.730469 L 137.253906 6.824219 "/>
<path style=" stroke:none;fill-rule:evenodd;fill:rgb(7.78656%,13.581848%,21.803284%);fill-opacity:1;" d="M 113.421875 12.464844 L 112.878906 13.371094 L 84.953125 13.371094 L 84.40625 12.644531 L 83.859375 11.644531 L 89.320312 0.820312 L 89.773438 0.457031 L 90.410156 0.09375 L 103.234375 0.09375 L 103.78125 0.273438 L 104.234375 0.546875 L 113.785156 11.371094 L 113.421875 12.464844 "/>
<path style=" stroke:none;fill-rule:evenodd;fill:rgb(7.78656%,13.581848%,21.803284%);fill-opacity:1;" d="M 86.042969 12.007812 C 86.042969 11.371094 85.5 10.824219 84.863281 10.824219 C 84.132812 10.824219 83.589844 11.371094 83.589844 12.007812 C 83.589844 12.644531 84.132812 13.191406 84.863281 13.191406 C 85.5 13.191406 86.042969 12.644531 86.042969 12.007812 "/>
<path style=" stroke:none;fill-rule:evenodd;fill:rgb(7.78656%,13.581848%,21.803284%);fill-opacity:1;" d="M 113.96875 12.007812 C 113.96875 11.371094 113.421875 10.824219 112.785156 10.824219 C 112.148438 10.824219 111.601562 11.371094 111.601562 12.007812 C 111.601562 12.644531 112.148438 13.191406 112.785156 13.191406 C 113.421875 13.191406 113.96875 12.644531 113.96875 12.007812 "/>
<path style=" stroke:none;fill-rule:evenodd;fill:rgb(7.78656%,13.581848%,21.803284%);fill-opacity:1;" d="M 91.503906 1.183594 C 91.503906 0.546875 90.957031 0.00390625 90.320312 0.00390625 C 89.683594 0.00390625 89.136719 0.546875 89.136719 1.183594 C 89.136719 1.820312 89.683594 2.367188 90.320312 2.367188 C 90.957031 2.367188 91.503906 1.820312 91.503906 1.183594 "/>
<path style=" stroke:none;fill-rule:evenodd;fill:rgb(7.78656%,13.581848%,21.803284%);fill-opacity:1;" d="M 104.417969 1.183594 C 104.417969 0.546875 103.871094 0.00390625 103.234375 0.00390625 C 102.507812 0.00390625 101.960938 0.546875 101.960938 1.183594 C 101.960938 1.820312 102.507812 2.367188 103.234375 2.367188 C 103.871094 2.367188 104.417969 1.820312 104.417969 1.183594 "/>
<path style=" stroke:none;fill-rule:evenodd;fill:rgb(7.78656%,13.581848%,21.803284%);fill-opacity:1;" d="M 96.6875 44.660156 L 72.582031 44.660156 L 48.390625 44.753906 L 0 44.753906 L 1 42.75 L 23.832031 42.660156 L 92.230469 42.660156 L 96.6875 44.660156 "/>
<g clip-path="url(#clip1)" clip-rule="nonzero">
<path style=" stroke:none;fill-rule:evenodd;fill:rgb(7.78656%,13.581848%,21.803284%);fill-opacity:1;" d="M 150.804688 55.121094 L 150.351562 55.941406 L 127.609375 55.941406 L 126.976562 55.757812 L 126.15625 55.484375 L 105.871094 46.300781 L 85.679688 37.113281 L 85.953125 35.203125 L 86.40625 33.292969 L 131.976562 33.292969 L 133.160156 33.929688 L 134.25 34.476562 L 151.261719 53.847656 L 150.804688 55.121094 "/>
</g>
<path style=" stroke:none;fill-rule:evenodd;fill:rgb(7.78656%,13.581848%,21.803284%);fill-opacity:1;" d="M 87.679688 35.113281 C 87.679688 34.109375 86.863281 33.203125 85.863281 33.203125 C 84.863281 33.203125 84.042969 34.109375 84.042969 35.113281 C 84.042969 36.113281 84.863281 37.023438 85.863281 37.023438 C 86.863281 37.023438 87.679688 36.113281 87.679688 35.113281 "/>
<path style=" stroke:none;fill-rule:evenodd;fill:rgb(7.78656%,13.581848%,21.803284%);fill-opacity:1;" d="M 134.523438 35.65625 C 134.523438 34.292969 133.433594 33.203125 132.066406 33.203125 C 130.703125 33.203125 129.613281 34.292969 129.613281 35.65625 C 129.613281 37.023438 130.703125 38.113281 132.066406 38.113281 C 133.433594 38.113281 134.523438 37.023438 134.523438 35.65625 "/>
<g clip-path="url(#clip2)" clip-rule="nonzero">
<path style=" stroke:none;fill-rule:evenodd;fill:rgb(7.78656%,13.581848%,21.803284%);fill-opacity:1;" d="M 151.53125 54.574219 C 151.53125 53.9375 150.988281 53.394531 150.351562 53.394531 C 149.714844 53.394531 149.167969 53.9375 149.167969 54.574219 C 149.167969 55.210938 149.714844 55.757812 150.351562 55.757812 C 150.988281 55.757812 151.53125 55.210938 151.53125 54.574219 "/>
</g>
<g clip-path="url(#clip3)" clip-rule="nonzero">
<path style=" stroke:none;fill-rule:evenodd;fill:rgb(7.78656%,13.581848%,21.803284%);fill-opacity:1;" d="M 129.792969 53.394531 C 129.792969 52.121094 128.703125 51.027344 127.339844 51.027344 C 125.972656 51.027344 124.882812 52.121094 124.882812 53.394531 C 124.882812 54.667969 125.972656 55.757812 127.339844 55.757812 C 128.703125 55.757812 129.792969 54.667969 129.792969 53.394531 "/>
</g>
</g>
</svg>
