<svg xmlns="http://www.w3.org/2000/svg" width="176pt" height="55.413" viewBox="0 0 176 41.56"><defs><clipPath id="a"><path d="M100 31h9v10.559h-9Zm0 0"/></clipPath><clipPath id="b"><path d="M79 31h9v10.559h-9Zm0 0"/></clipPath></defs><path d="M8.117 21.527c.305 1.848.61 3.668.918 5.512-.105.04-.2.082-.297.113-1.672.508-2.672 1.63-2.992 3.34a3.77 3.77 0 0 0 .402 2.504C7 34.578 8.36 35.363 10.133 35.23c1.676-.128 2.875-1.05 3.512-2.632.257-.637.382-1.313.457-2 .093-.868.195-1.73.18-2.606a19.7 19.7 0 0 0-.579-4.379c-.488-1.957-1.265-3.789-2.234-5.554-.5-.91-.844-1.891-1.02-2.918-.097-.582-.183-1.176-.195-1.766-.02-.8.078-1.598.266-2.383a9.6 9.6 0 0 1 2.234-4.285c1.422-1.582 3.168-2.602 5.246-3.05a9.7 9.7 0 0 1 3.395-.126c2.394.328 4.39 1.414 6 3.196 1.168 1.293 1.918 2.812 2.27 4.527.183.887.218 1.777.187 2.672-.028.722-.364 2.191-.61 2.707-.262-.02-4.933-1.746-5.277-1.953.062-.34.129-.68.18-1.024.101-.719-.028-1.414-.32-2.07-.61-1.356-1.669-2.184-3.122-2.414-1.281-.2-2.441.137-3.418 1.035-.531.496-.926 1.074-1.14 1.77-.403 1.32-.207 2.554.59 3.683.511.727 1.167 1.309 1.91 1.813 1.246.847 2.55 1.582 3.96 2.117q2.012.76 4.133 1.133c1.211.215 2.43.359 3.664.445 2 .137 3.887.664 5.563 1.82 1.644 1.14 2.844 2.633 3.574 4.492q.579 1.47.664 3.051c.145 2.586-.629 4.871-2.262 6.852-1.527 1.847-3.504 2.957-5.863 3.367-.57.098-1.156.148-1.734.148-1.293 0-2.535-.277-3.73-.773-1.415-.586-2.598-1.488-3.618-2.617-.027-.035-.05-.078-.074-.11.164-.238 3.55-3.09 4.32-3.64.246.21.477.441.738.629 1.329.945 2.743 1.074 4.223.402a4.05 4.05 0 0 0 2.317-4.14c-.153-1.36-.836-2.422-2.032-3.13a4.24 4.24 0 0 0-2.066-.562c-.547-.012-1.09.102-1.613.266-.442.136-.875.312-1.293.507-1.047.489-2.067 1.024-3 1.707-.63.458-1.25.934-1.832 1.446-1.614 1.414-2.895 3.11-4.086 4.879-.59.883-1.22 1.73-2 2.457-1.563 1.457-3.391 2.363-5.512 2.625-2.7.332-5.156-.32-7.309-1.992C1.855 37.359.668 35.387.191 33.004A9 9 0 0 1 0 31.133c.023-1.418.297-2.793.895-4.094a9.8 9.8 0 0 1 2.492-3.324 9.7 9.7 0 0 1 4.316-2.18q.119-.024.238-.031c.047-.004.09.012.176.023" style="stroke:none;fill-rule:nonzero;fill:#298a55;fill-opacity:1"/><path d="M149.582 23.324c-.332.172-1.168.172-1.469.012-.062-.281-.066-16.305 0-16.68.469-.062.95-.035 1.465-.011.047.464.02.902.024 1.34.003.43 0 .855.058 1.3.149-.183.305-.37.445-.558.508-.672 1.165-1.168 1.887-1.582a7.5 7.5 0 0 1 2.48-.895 8 8 0 0 1 1.106-.113c.817-.024 1.629-.02 2.434.14.98.196 1.894.535 2.703 1.149.777.59 1.27 1.375 1.644 2.254.02.039.036.086.055.125.008.011.016.02.047.05.05-.058.101-.109.14-.171.266-.434.532-.871.86-1.27a5.84 5.84 0 0 1 2.262-1.7 7.2 7.2 0 0 1 2.953-.581c.375.004.746-.012 1.117.004 1.195.05 2.355.27 3.434.816 1.277.64 2.097 1.66 2.476 3.04.14.515.211 1.042.23 1.581.133 3.781.02 7.563.055 11.344.004.145-.023.293-.039.418-.324.148-1.105.152-1.46.008-.009-.14-.028-.297-.028-.457 0-3.328.012-6.657-.012-9.985-.004-.82-.054-1.648-.344-2.437-.347-.942-.921-1.688-1.777-2.215-.652-.406-1.371-.613-2.129-.727-.66-.097-1.324-.09-1.98-.05-1.09.066-2.14.3-3.086.882a4.64 4.64 0 0 0-1.977 2.407 5.5 5.5 0 0 0-.36 1.945c.005 3.375 0 6.75-.003 10.125 0 .172-.02.34-.023.488-.333.172-1.145.176-1.485.012-.008-.145-.02-.305-.02-.465-.003-3.504.005-7.008-.007-10.508-.004-.793-.098-1.578-.399-2.324a3.6 3.6 0 0 0-1.656-1.863c-.676-.371-1.394-.55-2.152-.652a10 10 0 0 0-1.914-.047c-1.547.093-2.934.601-4.035 1.742-.801.828-1.266 1.828-1.418 2.969a10 10 0 0 0-.079 1.355q-.004 4.66-.003 9.32c0 .16-.012.32-.02.465" style="stroke:none;fill-rule:nonzero;fill:#514e4f;fill-opacity:1"/><path d="M68.566 16.219h1.762c0 .11.02.199 0 .281-.57 2.535-1.941 4.5-4.183 5.836-1.38.824-2.883 1.273-4.473 1.48-.89.118-1.785.16-2.68.118-2.207-.11-4.3-.625-6.164-1.864-1.887-1.254-3.277-2.914-4.004-5.086-.25-.754-.437-1.52-.472-2.316-.028-.707-.086-1.418-.051-2.125.105-2.125.691-4.102 1.984-5.824a10.2 10.2 0 0 1 3.086-2.73c1.313-.766 2.73-1.212 4.234-1.43 1.079-.157 2.16-.18 3.239-.11 2.332.153 4.5.82 6.39 2.242.852.641 1.602 1.38 2.141 2.313.34.594.559 1.23.68 1.898.027.145.004.297.004.485-.582.066-1.157.031-1.758.023-.035-.137-.074-.254-.098-.379-.156-.785-.531-1.46-1.074-2.039-1.363-1.465-3.055-2.328-4.996-2.738-1.137-.242-2.285-.274-3.438-.2-1.258.083-2.48.372-3.625.934a8.7 8.7 0 0 0-2.851 2.258 8.8 8.8 0 0 0-1.516 2.61c-.293.789-.492 1.597-.535 2.445-.016.3-.055.601-.059.902-.03 2.113.61 4.008 1.891 5.68 1.379 1.8 3.21 2.851 5.43 3.254.968.175 1.941.242 2.918.191 2.03-.101 3.914-.672 5.562-1.898 1.285-.961 2.121-2.23 2.535-3.782.035-.132.075-.265.121-.43" style="stroke:none;fill-rule:nonzero;fill:#298a55;fill-opacity:1"/><path d="M124.758 15.098c0 .28-.035.632.008.976a7.4 7.4 0 0 0 .808 2.617c.606 1.114 1.43 2.032 2.496 2.715 1.227.785 2.594 1.117 4.028 1.203.875.055 1.742-.03 2.597-.203 1.852-.367 3.336-1.324 4.465-2.82.965-1.273 1.38-2.75 1.43-4.332.012-.379-.035-.766-.063-1.145a6.4 6.4 0 0 0-.422-1.898c-.406-1.063-1.039-1.961-1.859-2.746-.96-.922-2.098-1.492-3.379-1.785-.804-.188-1.629-.23-2.457-.227a9 9 0 0 0-2.234.293 7.1 7.1 0 0 0-2.7 1.336 8 8 0 0 0-1.199 1.211 6.9 6.9 0 0 0-1.254 2.43 6.5 6.5 0 0 0-.265 2.375m7.945-9.008c1.453.008 2.852.265 4.188.828a7.8 7.8 0 0 1 2.382 1.555c.59.566 1.137 1.16 1.57 1.859.583.945.962 1.965 1.145 3.05.106.634.172 1.27.14 1.911-.065 1.297-.284 2.566-.898 3.734-1.242 2.38-3.164 3.918-5.765 4.582-.54.137-1.098.203-1.649.262-.52.05-1.046.082-1.566.067-2.078-.07-4.02-.586-5.691-1.887-1.786-1.39-2.883-3.2-3.266-5.43-.148-.86-.152-1.738-.066-2.601.164-1.692.746-3.227 1.843-4.555.782-.945 1.696-1.723 2.782-2.29a8.5 8.5 0 0 1 2.738-.894c.7-.093 1.41-.129 2.113-.191" style="stroke:none;fill-rule:nonzero;fill:#514e4f;fill-opacity:1"/><path d="M92.691 20.422h-1.507c-.012-.164-.028-.309-.028-.457 0-2.352.004-4.7-.004-7.05a7.7 7.7 0 0 0-.359-2.337c-.422-1.328-1.316-2.191-2.613-2.656a8.3 8.3 0 0 0-2.598-.461c-.824-.02-1.652-.016-2.469.137-1.297.238-2.46.742-3.433 1.66-.848.797-1.43 1.746-1.664 2.883a8 8 0 0 0-.176 1.66c-.02 3.039-.008 6.078-.008 9.113v.438c-.289.113-1.137.12-1.504.02-.008-.157-.027-.329-.027-.497V.097c.297-.117 1.136-.132 1.511-.03.043.8.012 1.613.016 2.421.008.817.004 1.63.004 2.446v4.961c.078-.098.121-.13.145-.172 1.046-1.84 2.625-2.934 4.683-3.383 1.172-.258 2.36-.262 3.543-.184 1.149.078 2.277.301 3.336.809 1.559.754 2.531 1.957 2.895 3.66.175.813.25 1.633.254 2.457.015 2.293.003 4.586.003 6.879z" style="stroke:none;fill-rule:nonzero;fill:#298a55;fill-opacity:1"/><path d="M116.691 17.594c.309-.098 1.121-.102 1.461-.016 0 .106.024.223-.004.328-.253 1.024-.668 1.977-1.312 2.824-.797 1.06-1.828 1.81-3.023 2.348-.7.32-1.434.531-2.196.672a12.1 12.1 0 0 1-2.984.18c-1.188-.075-2.352-.282-3.457-.75a9.4 9.4 0 0 1-2.473-1.543 7.9 7.9 0 0 1-2.023-2.676 7.8 7.8 0 0 1-.637-2.059c-.102-.64-.176-1.289-.152-1.941.058-1.43.308-2.82.96-4.11.63-1.253 1.547-2.253 2.688-3.058 1.106-.777 2.336-1.254 3.656-1.488.59-.106 1.192-.196 1.797-.176.7.02 1.399-.024 2.09.078.984.145 1.938.39 2.844.8a8.9 8.9 0 0 1 1.82 1.09c.977.762 1.742 1.676 2.086 2.891.078.285.164.578.11.922-.489.035-.958.02-1.426.012-.094-.313-.164-.606-.274-.883-.258-.652-.683-1.184-1.215-1.629a8.4 8.4 0 0 0-1.347-.93c-.664-.37-1.375-.617-2.11-.804-.996-.25-2.007-.262-3.015-.203-1.282.074-2.5.418-3.602 1.097a7.2 7.2 0 0 0-2.351 2.34c-.598.938-.942 1.969-1.09 3.063-.2 1.425-.063 2.812.52 4.132.652 1.489 1.652 2.688 3.077 3.497.79.445 1.633.73 2.528.867.68.105 1.36.18 2.047.144 1.386-.066 2.722-.332 3.949-1.011.847-.465 1.574-1.079 2.133-1.868a5.1 5.1 0 0 0 .812-1.726c.035-.145.078-.29.113-.414" style="stroke:none;fill-rule:nonzero;fill:#514e4f;fill-opacity:1"/><g clip-path="url(#a)"><path d="M107.473 35.172c-.012 0-.028-.004-.04-.004 0-.14.008-.281-.003-.418-.102-1.207-.72-1.992-1.801-2.309a4.12 4.12 0 0 0-2.477.008c-.93.297-1.507.918-1.73 1.875a3.9 3.9 0 0 0-.055 1.32c.137 1.11.719 1.868 1.805 2.208.703.222 1.422.234 2.137.086 1.007-.211 1.73-.782 2.015-1.805.086-.313.102-.64.149-.961m-.028-2.309v-.968c.207-.012.383-.024.582-.04.012.133.032.223.032.313 0 2.059.007 4.117-.008 6.176a5.2 5.2 0 0 1-.156 1.203c-.23.89-.817 1.473-1.684 1.762a4.2 4.2 0 0 1-.95.21c-.777.067-1.558.07-2.323-.128-.383-.098-.75-.25-1.063-.5-.57-.461-.812-1.082-.86-1.832h.567c.031.132.07.261.102.398.156.676.574 1.113 1.226 1.3.98.278 1.973.317 2.957.013.969-.297 1.524-1.024 1.567-2.036.015-.437 0-.879 0-1.37-.09.07-.149.097-.188.144-.605.703-1.406 1.012-2.3 1.09-.555.05-1.118.043-1.665-.09-1.55-.383-2.46-1.477-2.543-3.164a3.9 3.9 0 0 1 .203-1.512c.395-1.133 1.22-1.789 2.364-2.047a5.4 5.4 0 0 1 2.285.008c.719.152 1.324.492 1.777 1.09.028-.008.051-.012.078-.02" style="stroke:none;fill-rule:nonzero;fill:#999797;fill-opacity:1"/></g><path d="M78.992 32.16h-.57c-.031-.203-.059-.383-.09-.566-.168-.907-.727-1.465-1.598-1.703a5.4 5.4 0 0 0-2.07-.18c-.289.031-.582.043-.863.105a3.7 3.7 0 0 0-.817.293c-.828.418-1 1.375-.77 2.07.11.34.345.59.665.731.348.156.71.297 1.078.383 1.066.25 2.137.465 3.2.707q.411.096.788.273c.965.45 1.395 1.274 1.258 2.332-.133 1.047-.719 1.715-1.7 2.051-.952.328-1.94.364-2.929.254a6 6 0 0 1-1.324-.289c-1.14-.383-1.797-1.195-1.984-2.383-.036-.207-.047-.418-.063-.625-.004-.054.02-.11.031-.18.09-.011.172-.027.25-.027.09 0 .18.012.297.024.012.11.028.21.031.312.055 1.281.622 2.055 1.856 2.39 1.16.313 2.344.337 3.508-.023.25-.074.492-.21.71-.359.65-.441.852-1.234.66-1.988-.081-.317-.284-.555-.546-.746-.336-.243-.719-.38-1.117-.465q-1.45-.316-2.899-.625c-.57-.121-1.129-.274-1.62-.606-.415-.285-.688-.664-.774-1.156-.156-.887-.04-1.703.676-2.328.414-.363.925-.547 1.457-.629 1.066-.172 2.132-.18 3.183.11.617.171 1.168.46 1.551 1.003.273.39.426.825.488 1.293.02.168.028.344.047.547" style="stroke:none;fill-rule:nonzero;fill:#999797;fill-opacity:1"/><g clip-path="url(#b)"><path d="M83.555 38.371v-.016c.187-.011.375-.007.558-.03.934-.13 1.668-.571 2.09-1.438.442-.914.469-1.867.14-2.813-.284-.832-.85-1.406-1.706-1.656a3.76 3.76 0 0 0-1.93-.059c-.82.196-1.422.668-1.785 1.426-.399.836-.414 1.711-.176 2.586.281 1.016.942 1.664 1.98 1.895.27.058.551.07.829.105m-2.953-.672v3.606h-.579c-.054-.774-.015-1.547-.023-2.325-.008-.789-.004-1.582-.004-2.37v-4.665c.215-.11.39-.101.606-.008v1.055c.074-.043.109-.054.128-.078.512-.7 1.223-1.066 2.06-1.18.647-.09 1.296-.097 1.937.082 1.16.332 1.906 1.086 2.242 2.23.27.903.25 1.821-.055 2.712-.344 1.008-1.031 1.699-2.062 2.012a4.46 4.46 0 0 1-2.579.011c-.597-.176-1.101-.492-1.484-.992-.031-.047-.055-.102-.082-.152q-.052.032-.105.062" style="stroke:none;fill-rule:nonzero;fill:#999797;fill-opacity:1"/></g><path d="M139.445 34.848c.325.07 5.84.066 6.13 0 .003-.032.019-.067.015-.098-.16-.941-.653-1.66-1.488-2.117-.711-.387-1.48-.438-2.266-.305-1.238.211-2.156 1.106-2.39 2.324-.008.063 0 .133 0 .196m6.79.629h-2.298c-.753 0-1.511-.004-2.265 0-.742.003-1.484-.024-2.227.015-.078.281.012.516.075.746a2.83 2.83 0 0 0 2.523 2.086c.477.043.95.043 1.426-.054.957-.2 1.601-.754 1.945-1.665q.069-.176.137-.359c.008-.02.027-.035.054-.07h.532c-.024.129-.035.242-.067.347-.36 1.254-1.16 2.043-2.441 2.325-.86.187-1.715.175-2.543-.137-1.274-.48-2.016-1.406-2.242-2.746a3.9 3.9 0 0 1 .11-1.797c.339-1.121 1.066-1.898 2.183-2.27 1.004-.328 2.023-.343 3.004.082 1.21.524 1.879 1.473 2.043 2.782.027.215.03.433.05.715M117.96 30.145c-.769 1.687-1.5 3.3-2.241 4.937.12.023.195.05.27.055.952.05 3.906.015 4.21-.055-.738-1.629-1.472-3.25-2.238-4.937m4.606 8.578c-.132.011-.222.02-.312.023-.129.004-.254 0-.387 0-.46-1.008-.906-1.988-1.355-2.98h-5.102l-.676 1.48q-.34.739-.675 1.484h-.649c.047-.265 4.07-9.066 4.297-9.402h.543c1.434 3.117 2.867 6.242 4.316 9.395" style="stroke:none;fill-rule:nonzero;fill:#999797;fill-opacity:1"/><path d="M152.36 34.117h-.563c-.02-.148-.035-.285-.055-.418-.14-.844-.484-1.21-1.32-1.351-.774-.13-1.55-.13-2.32.058a2.2 2.2 0 0 0-.543.23c-.375.216-.543.563-.532.993s.22.746.614.941c.363.176.754.215 1.144.262.715.094 1.434.172 2.145.29.312.054.629.163.922.3.457.215.691.61.75 1.101.027.22.039.442.02.66-.056.696-.45 1.149-1.067 1.434-.426.2-.887.281-1.352.317a7.3 7.3 0 0 1-2.113-.114q-.105-.024-.203-.054c-.957-.243-1.473-.88-1.633-1.828-.024-.137-.04-.278-.059-.415-.004-.03.016-.066.028-.125h.543c.039.211.07.403.113.594.137.63.516 1.031 1.137 1.188.93.238 1.867.23 2.8.047.223-.047.446-.141.645-.258.578-.336.773-1.137.434-1.711a.8.8 0 0 0-.485-.375c-.36-.098-.719-.2-1.086-.254-.629-.094-1.27-.145-1.898-.238a4.7 4.7 0 0 1-1.012-.254c-.617-.246-.937-.723-.969-1.403-.039-.87.282-1.422 1.09-1.75.32-.129.664-.214 1.008-.254.766-.085 1.531-.101 2.285.094.86.227 1.375.809 1.488 1.692.028.191.028.386.043.601M131.645 31.875h.554v.93c.098-.07.149-.094.184-.133.508-.582 1.176-.867 1.922-.953.644-.074 1.3-.074 1.937.097 1.125.293 1.746 1.016 1.852 2.164q.047.558.047 1.114c.007 1.07.004 2.14.004 3.21v.41h-.594c-.008-.144-.02-.276-.02-.413v-3.7c0-.347-.015-.695-.133-1.03a1.71 1.71 0 0 0-.988-1.063c-.55-.23-1.125-.285-1.71-.227a4.3 4.3 0 0 0-.887.172c-.86.266-1.336.887-1.516 1.746a4 4 0 0 0-.074.832c-.012 1.094-.004 2.188-.004 3.282v.406h-.574c-.008-.09-.032-.192-.032-.29q-.006-3.122 0-6.245c0-.09.016-.18.032-.309" style="stroke:none;fill-rule:nonzero;fill:#989797;fill-opacity:1"/><path d="M93.543 31.875h.535v.922c.09-.063.133-.078.156-.11.496-.558 1.13-.863 1.852-.957.754-.093 1.508-.09 2.246.149.969.316 1.477 1.004 1.621 1.984.04.266.05.532.05.801q.006 1.812.005 3.629c-.004.137-.016.273-.02.434h-.57c-.008-.145-.016-.282-.016-.418-.004-1.266 0-2.536-.004-3.805 0-.16 0-.328-.023-.488q-.194-1.344-1.523-1.645c-.801-.18-1.59-.156-2.36.149-.652.257-1.066.746-1.254 1.406a3.8 3.8 0 0 0-.14.96c-.012 1.141-.004 2.282-.004 3.423v.41h-.555c-.07-.32-.07-6.508.004-6.844" style="stroke:none;fill-rule:nonzero;fill:#999797;fill-opacity:1"/><path d="M124.887 38.727h-.547c-.074-.266-.09-6.414-.02-6.817.168-.086.348-.066.559-.008v.97c.527-.599 1.144-1 1.918-1.15.336-.062 1.027-.05 1.336.048v.523c-.11 0-.207.012-.309 0-1.539-.2-2.578.703-2.86 2.168-.062.316-.07.644-.073.969-.012.965-.004 1.933-.004 2.898z" style="stroke:none;fill-rule:nonzero;fill:#989697;fill-opacity:1"/><path d="M88.395 38.73h-.524c-.078-.27-.09-6.468-.016-6.847h.54c.011.324.023.629.039.984.242-.222.43-.437.66-.597.242-.168.515-.317.797-.418.265-.094.562-.137.847-.16.285-.024.575.007.89.015v.598c-.116-.008-.218-.008-.316-.02-1.332-.148-2.285.528-2.687 1.672-.164.469-.207.953-.21 1.441v2.93c0 .125-.013.25-.02.402" style="stroke:none;fill-rule:nonzero;fill:#989797;fill-opacity:1"/><path d="M128.895 38.734h-.512c-.02-.02-.031-.027-.035-.039-.008-.004-.02-.015-.02-.027-.008-.066-.02-.137-.02-.207 0-2.996.005-5.996.005-8.996 0-.031.015-.063.035-.125h.539c.008.144.023.289.023.433q.005 3.854.004 7.707v.872c-.004.113-.012.23-.02.382" style="stroke:none;fill-rule:nonzero;fill:#989696;fill-opacity:1"/><path d="M92.406 31.887v6.836h-.515c-.016-.086-.04-.172-.04-.262q-.005-3.153 0-6.313c0-.078.016-.156.028-.261zM122.672 31.883h.527v6.836h-.52c-.011-.082-.034-.168-.034-.258q-.006-3.154 0-6.309c0-.082.015-.16.027-.27M130.527 38.734h-.472l-.043-.039c-.004-.011-.016-.02-.016-.03-.008-.09-.02-.185-.02-.278q-.001-3.19.004-6.38c0-.03.02-.066.04-.12h.507z" style="stroke:none;fill-rule:nonzero;fill:#999797;fill-opacity:1"/><path d="M92.672 21.93v1.41c-.074.035-.133.086-.195.09q-.504.017-1.008.011c-.09 0-.176-.046-.281-.074a9 9 0 0 1-.004-1.433c.5-.032.972-.02 1.488-.004" style="stroke:none;fill-rule:nonzero;fill:#514e4f;fill-opacity:1"/><path d="M92.39 31.02h-.48c-.07-.266-.086-1.22-.023-1.684.152-.008.32-.012.472-.02.082.293.098 1.243.032 1.704M123.176 31.016h-.512V29.34h.488c.082.246.098 1.273.024 1.676M130.05 29.328h.434c.082.277.094 1.328.016 1.688h-.46c-.099-.309-.09-1.418.01-1.688" style="stroke:none;fill-rule:nonzero;fill:#989697;fill-opacity:1"/></svg>