<svg xmlns="http://www.w3.org/2000/svg" width="197.24" height="59pt" viewBox="0 0 147.93 59"><defs><clipPath id="a"><path d="M62 3h85.93v37H62Zm0 0"/></clipPath></defs><path d="M113.398 0c1.72.324 7.032 1.379 8.75 1.688.118.023.235.062.395.105-.66.816-1.367 1.543-2.082 2.266-4.602 4.625-9.64 8.738-14.86 12.636-7.113 5.313-14.542 10.13-22.394 14.278-5.777 3.05-11.723 5.699-18.012 7.53a57 57 0 0 1-4.199 1.048l-.191.086c-.024.207-.184.254-.344.312-.328.11-.66.098-.996.098-.59.008-1.184.004-1.774.07-.308.035-.675.137-.921-.207 1.32-.207 2.644-.379 3.953-.668 4.21-.949 8.18-2.527 12.007-4.492 6.762-3.473 12.856-7.922 18.665-12.79 4.375-3.667 8.52-7.581 12.52-11.647" style="stroke:none;fill-rule:nonzero;fill:#d51c2d;fill-opacity:1"/><path d="M56.77 39.914c1.34-.144 2.707.059 4.03-.277.419.082.833.004 1.243-.04 1.285-.132 2.566-.277 3.848-.417l.195.023c.043.106-.05.168-.133.203-.273.114-.566.137-.851.188-.766.136-1.528.293-2.297.402-2.508.395-5.016.75-7.543 1-4.035.402-8.09.621-12.145.738-4.133.118-8.265.13-12.402.055q-7.906-.149-15.805-.613c-4.82-.285-9.64-.621-14.453-1.055-.152-.012-.305-.016-.457-.023V33.98c3.629.75 7.27 1.442 10.926 2.06q5.861.995 11.758 1.788 5.853.788 11.73 1.328 5.29.487 10.598.711c3.34.145 6.683.164 10.027.121.578-.008 1.156-.047 1.73-.074" style="stroke:none;fill-rule:nonzero;fill:#aa1b2c;fill-opacity:1"/><g clip-path="url(#a)"><path d="M133.996 3.129c.867.059 2.953.266 3.117.277 3.996.364 5.39.438 9.387.79.438.038.98.093 1.43.132-.438.36-.313.262-.438.36-5.703 4.351-11.722 8.218-17.926 11.816-10.808 6.262-22.086 11.523-33.882 15.644-8.914 3.114-18.012 5.524-27.332 7.055-1.844.3-3.688.61-5.547.793q1.365-.314 2.73-.629c.133-.031.262-.078.387-.117v-.04l-.031-.03c1.191-.23 2.386-.45 3.574-.692 7.144-1.468 14.012-3.797 20.68-6.734 10.085-4.445 19.44-10.152 28.375-16.578" style="stroke:none;fill-rule:nonzero;fill:#d51c2d;fill-opacity:1"/></g><path d="M89.078 59h-2.027c-.313-.082-.621-.156-.93-.246-3.082-.89-4.957-3.68-4.785-7.117.164-3.375 2.906-6.188 6.203-6.364q.227-.01.45-.011c3.55 0 6.288 2.277 6.808 5.691.61 3.984-1.945 7.438-5.55 7.977zm-.988-12.352c-.395 0-.797.043-1.195.137-2.415.563-4.008 2.684-4.036 5.34.04.367.063.734.121 1.098.454 2.68 2.75 4.425 5.165 4.425.949 0 1.921-.273 2.804-.867 2.004-1.351 2.625-3.355 2.281-5.687a5.195 5.195 0 0 0-5.14-4.446M107.723 58.793c-.258 0-.512-.004-.762-.02-.125-.007-.266-.18-.36-.304-1.117-1.489-2.238-2.973-3.331-4.473-.2-.273-.407-.379-.727-.379h-.035q-.736.017-1.485.016c-.59 0-1.187-.004-1.804-.004v5.133h-1.504V45.527l.09-.047c2.152.016 4.3.016 6.449.067.48.012.973.16 1.43.324 1.687.606 2.578 1.957 2.527 3.766-.05 1.691-1.078 2.988-2.805 3.527-.23.07-.469.129-.773.215 1.363 1.812 2.68 3.566 4.058 5.41-.343 0-.664.004-.968.004m-5.828-11.91c-.747 0-1.493.012-2.239.012-.144 0-.289.011-.453.02V52c0 .07.012.145.024.258.863 0 1.71.015 2.55.015.645 0 1.282-.011 1.918-.043.59-.027 1.211-.242 1.739-.523.925-.488 1.312-1.352 1.25-2.387-.067-1.02-.594-1.75-1.54-2.101a5.3 5.3 0 0 0-1.613-.313 57 57 0 0 0-1.636-.023M23.414 58.8c-.46 0-.84-.179-1.203-.655-2.527-3.29-5.113-6.532-7.68-9.793-.086-.106-.176-.204-.344-.399v10.813H12.73V45.465c.239 0 .47-.012.696-.012q.24 0 .48.027c.164.02.34.176.453.32a3897 3897 0 0 1 6.184 7.86c.617.785 1.234 1.567 1.93 2.445V45.492h1.445v13.25c-.18.035-.348.059-.504.059M31.098 58.805c-.36 0-.72-.004-1.075-.004q-.54-.005-1.074-.004-.408-.001-.816.004h-.02c-.343 0-.418-.133-.418-.457.012-2.086.008-4.176.008-6.262 0-2.043.008-4.086-.008-6.129-.004-.36.086-.5.446-.5a.1.1 0 0 1 .039.004q.627.012 1.254.012h.574c.187 0 .379-.004.566-.004.922 0 1.844.015 2.758.101 2.625.25 4.645 1.551 5.605 4.079.961 2.53.586 4.937-1.269 6.988-1.324 1.469-3.078 2.09-5.023 2.152-.516.016-1.032.02-1.547.02M29.742 46.89c-.16 0-.324.004-.496.004v10.453c.836 0 1.656.03 2.465.03.484 0 .965-.01 1.45-.046 2.671-.191 4.542-2.246 4.683-5.023.133-2.59-1.653-4.903-4.23-5.286-.731-.109-1.477-.12-2.227-.12h-.5589999999999999c-.281 0-.562 0-.844-.008-.078 0-.16-.004-.242-.004M9.637 58.762H0V45.496h9.547v1.356H1.488v4.53H8.7v1.38H1.461v.828c0 1.09.02 2.183-.012 3.273-.012.43.094.575.535.575H2q1.726-.017 3.45-.016c1.202 0 2.405.004 3.605.004h.582zM52.246 58.758h-9.629V45.484h9.54v1.364h-8.055v4.535h7.21v1.379H44.11c-.015.187-.035.32-.035.453-.004 1.246.016 2.492-.008 3.734-.007.39.121.48.48.48h.017q1.717-.006 3.433-.007c1.223 0 2.445.004 3.668.004h.582zM55.383 58.8q-.037 0-.078-.003a7 7 0 0 0-.414-.012c-.223 0-.457.008-.723.008.703-1.563 1.363-3.027 2.027-4.492 1.278-2.824 2.567-5.64 3.825-8.469.167-.375.375-.441.75-.48q.11-.012.203-.012c.535 0 .804.265 1.047.812 1.812 4.094 3.675 8.168 5.52 12.25.05.106.085.22.147.391-.273 0-.535.004-.789.004-.21 0-.418-.004-.625-.02-.117-.011-.265-.18-.324-.312q-.645-1.4-1.25-2.817c-.11-.257-.242-.367-.535-.367h-.008q-1.623.007-3.246.008c-1.086 0-2.168-.004-3.254-.008h-.004c-.293 0-.418.114-.527.371-.398.93-.84 1.844-1.234 2.774-.11.265-.254.375-.508.375m5.539-11.645c-1.027 2.297-2.016 4.496-3.016 6.735h6.012zM73.918 58.898q-.035-.002-.078-.003c-.18-.008-.32-.012-.43-.012h-.062c-.434 0-.328-.016-.649-.762-1.75-4.074-3.484-8.152-5.222-12.23-.051-.121-.094-.25-.16-.426.288 0 .566-.008.831-.008.215 0 .422.004.63.023.136.016.296.23.363.387 1.273 3.059 2.53 6.125 3.796 9.184.247.594.497 1.183.778 1.863.472-1.133.91-2.176 1.344-3.219 1.078-2.61 2.16-5.215 3.23-7.824.11-.27.234-.418.516-.418q.04-.001.086.004.209.017.425.016c.235 0 .477-.008.746-.008-.062.18-.101.32-.16.453-1.773 4.164-3.554 8.324-5.32 12.488-.144.344-.312.489-.664.492M144.688 58.82c-.555 0-.958-.27-1.333-.8-1.07-1.5-2.238-2.934-3.347-4.403-.196-.254-.395-.355-.711-.355h-.02q-.865.012-1.742.011c-.7 0-1.406-.003-2.129-.003v5.484h-.98V45.449c.414.02.828.024 1.242.024.473 0 .945-.008 1.418-.016q.709-.019 1.418-.02c1.02 0 2.039.043 3.055.223 1 .176 1.879.66 2.504 1.508 1.25 1.687.777 4.172-1.047 5.207-.63.355-1.352.55-2.075.836 1.383 1.797 2.813 3.644 4.278 5.547-.125.023-.156.027-.188.031a2 2 0 0 1-.344.031m-9.214-12.375-.051.032v5.863c.973 0 1.937.012 2.898.012q1.15.002 2.285-.032c.493-.011.997-.203 1.454-.402 1.222-.543 1.832-1.68 1.664-2.992-.16-1.227-1.004-2.219-2.414-2.348-1.934-.176-3.891-.101-5.836-.133M125.727 58.813c-.426 0-.497-.157-.79-.801-.382-.856-.785-1.7-1.156-2.559-.117-.273-.261-.387-.57-.387h-.008q-1.762.007-3.523.008-1.764 0-3.528-.011h-.004c-.316 0-.453.128-.57.394-.379.875-.777 1.734-1.168 2.602-.265.582-.34.75-.719.75-.152 0-.351-.028-.632-.063.386-.848.761-1.676 1.144-2.508q2.395-5.175 4.79-10.351c.179-.387.355-.555.663-.555.11 0 .23.02.371.055.137.035.266.23.336.379q2.061 4.441 4.117 8.89c.622 1.344 1.243 2.696 1.875 4.067l-.093.05c-.227.024-.399.04-.535.04m-6.04-12.32c-1.19 2.616-2.328 5.1-3.488 7.644h6.965c-1.16-2.559-2.297-5.051-3.477-7.645M129.355 58.77h.926V45.496h-.926Zm0 0" style="stroke:none;fill-rule:nonzero;fill:#1b3051;fill-opacity:1"/></svg>