<?xml version="1.0" encoding="UTF-8"?>
<svg xmlns="http://www.w3.org/2000/svg" xmlns:xlink="http://www.w3.org/1999/xlink" width="176pt" height="45.76pt" viewBox="0 0 176 45.76" version="1.1">
<defs>
<clipPath id="clip1">
  <path d="M 0 0 L 76 0 L 76 45.761719 L 0 45.761719 Z M 0 0 "/>
</clipPath>
<clipPath id="clip2">
  <path d="M 58 38 L 76 38 L 76 45.761719 L 58 45.761719 Z M 58 38 "/>
</clipPath>
<clipPath id="clip3">
  <path d="M 74 38 L 85 38 L 85 45.761719 L 74 45.761719 Z M 74 38 "/>
</clipPath>
<clipPath id="clip4">
  <path d="M 82 38 L 101 38 L 101 45.761719 L 82 45.761719 Z M 82 38 "/>
</clipPath>
<clipPath id="clip5">
  <path d="M 103 38 L 114 38 L 114 45.761719 L 103 45.761719 Z M 103 38 "/>
</clipPath>
<clipPath id="clip6">
  <path d="M 111 38 L 131 38 L 131 45.761719 L 111 45.761719 Z M 111 38 "/>
</clipPath>
<clipPath id="clip7">
  <path d="M 128 38 L 147 38 L 147 45.761719 L 128 45.761719 Z M 128 38 "/>
</clipPath>
<clipPath id="clip8">
  <path d="M 144 38 L 156 38 L 156 45.761719 L 144 45.761719 Z M 144 38 "/>
</clipPath>
<clipPath id="clip9">
  <path d="M 152 38 L 170 38 L 170 45.761719 L 152 45.761719 Z M 152 38 "/>
</clipPath>
</defs>
<g id="surface1">
<g clip-path="url(#clip1)" clip-rule="nonzero">
<path style=" stroke:none;fill-rule:nonzero;fill:rgb(77.667236%,11.038208%,17.991638%);fill-opacity:1;" d="M 40.167969 20.320312 C 39.609375 20.914062 39.183594 21.621094 38.714844 22.285156 C 37.722656 23.824219 36.757812 25.402344 36.132812 27.132812 C 35.148438 29.679688 34.171875 32.230469 33.15625 34.765625 C 32.5 36.46875 31.773438 38.148438 31.160156 39.867188 C 31.488281 39.40625 31.71875 38.894531 31.96875 38.394531 C 32.570312 37.222656 33.210938 36.070312 33.835938 34.910156 C 34.792969 33.167969 35.726562 31.40625 36.75 29.699219 C 38.484375 26.820312 39.910156 23.726562 40.703125 20.449219 C 40.523438 20.40625 40.347656 20.363281 40.167969 20.320312 Z M 39.066406 19.953125 C 37.445312 21.265625 35.808594 22.589844 34.445312 24.179688 C 33.433594 25.242188 32.601562 26.460938 31.730469 27.636719 C 30.683594 29.136719 29.515625 30.550781 28.429688 32.023438 C 27.304688 33.511719 26.117188 34.953125 25.019531 36.460938 C 25.683594 35.9375 26.15625 35.226562 26.742188 34.625 C 28.046875 33.25 29.402344 31.925781 30.699219 30.539062 C 31.996094 29.335938 33.230469 28.066406 34.507812 26.839844 C 35.113281 26.308594 35.621094 25.679688 36.148438 25.074219 C 37.070312 23.984375 37.933594 22.847656 38.71875 21.65625 C 39.042969 21.15625 39.417969 20.683594 39.691406 20.144531 C 39.53125 19.996094 39.289062 19.753906 39.066406 19.953125 M 65.820312 8.355469 C 64.042969 8.945312 62.269531 9.546875 60.484375 10.101562 C 58.757812 10.644531 57.03125 11.199219 55.269531 11.628906 C 51.917969 12.449219 48.710938 13.789062 45.683594 15.4375 C 45.71875 15.613281 45.757812 15.792969 45.796875 15.96875 C 46.976562 15.851562 48.132812 15.5625 49.285156 15.289062 C 52.277344 14.535156 55.183594 13.429688 57.914062 11.988281 C 59.277344 11.371094 60.664062 10.8125 62.042969 10.238281 C 63.773438 9.53125 65.484375 8.777344 67.21875 8.074219 C 67.519531 7.941406 67.878906 7.875 68.085938 7.59375 C 67.335938 7.863281 66.582031 8.121094 65.820312 8.355469 M 66.246094 0.199219 C 66.527344 -0.0195312 66.90625 0.015625 67.242188 0.0078125 C 69.953125 0.0195312 72.664062 -0.0273438 75.371094 0.0117188 C 75.179688 0.429688 74.921875 0.816406 74.664062 1.203125 C 71.871094 5.535156 69.078125 9.867188 66.292969 14.203125 C 66.152344 14.21875 66.019531 14.234375 65.886719 14.246094 C 63.59375 14.390625 61.304688 14.597656 59.011719 14.699219 C 58.238281 14.734375 57.46875 14.8125 56.695312 14.835938 C 53.828125 14.894531 50.964844 15.203125 48.160156 15.800781 C 47.445312 15.960938 46.71875 16.085938 46.035156 16.363281 C 46.019531 16.539062 46.003906 16.714844 45.988281 16.890625 C 49.769531 17.191406 53.582031 16.859375 57.292969 16.109375 C 59.207031 15.738281 61.140625 15.453125 63.058594 15.109375 C 63.988281 14.964844 64.90625 14.742188 65.847656 14.675781 C 65.84375 14.730469 65.832031 14.839844 65.828125 14.898438 C 64.9375 16.355469 63.957031 17.757812 63.070312 19.21875 L 63.125 19.257812 C 62.9375 19.257812 62.746094 19.265625 62.558594 19.261719 C 60.761719 19.074219 59 18.652344 57.226562 18.324219 C 53.558594 17.5 49.789062 17.214844 46.039062 17.285156 C 45.996094 17.441406 45.957031 17.59375 45.914062 17.75 C 46.773438 18.148438 47.703125 18.359375 48.613281 18.59375 C 50.390625 19.042969 52.203125 19.332031 54.023438 19.492188 C 56.625 19.683594 59.238281 19.679688 61.839844 19.894531 C 62.03125 19.910156 62.222656 19.917969 62.417969 19.929688 C 62.433594 20.023438 62.433594 20.113281 62.410156 20.207031 C 61.726562 21.316406 60.988281 22.386719 60.316406 23.5 C 59.007812 22.988281 57.714844 22.441406 56.457031 21.8125 C 55.316406 21.269531 54.183594 20.710938 52.992188 20.292969 C 50.636719 19.484375 48.269531 18.652344 45.808594 18.226562 C 45.761719 18.398438 45.71875 18.570312 45.675781 18.742188 C 48.191406 20.28125 50.875 21.566406 53.699219 22.433594 C 54.84375 22.765625 56.007812 23.035156 57.152344 23.363281 C 58 23.609375 58.863281 23.789062 59.691406 24.097656 C 59.738281 24.117188 59.832031 24.15625 59.875 24.175781 C 59.148438 25.238281 58.476562 26.339844 57.757812 27.410156 C 56.539062 26.585938 55.40625 25.644531 54.277344 24.703125 C 53.675781 24.207031 53.105469 23.667969 52.46875 23.21875 C 50.21875 21.625 47.847656 20.1875 45.332031 19.0625 C 45.238281 19.207031 45.148438 19.351562 45.058594 19.496094 C 47.132812 21.707031 49.511719 23.648438 52.160156 25.132812 C 53.914062 26.039062 55.613281 27.039062 57.308594 28.050781 C 56.835938 28.820312 56.363281 29.671875 56.394531 30.605469 C 56.433594 31.476562 57.050781 32.207031 57.765625 32.652344 C 58.480469 33.148438 59.308594 33.433594 60.101562 33.78125 C 58.921875 33.757812 57.742188 33.71875 56.5625 33.664062 C 55.640625 32.480469 54.648438 31.359375 53.753906 30.15625 C 52.675781 28.757812 51.675781 27.296875 50.636719 25.871094 C 49.644531 24.546875 48.515625 23.335938 47.34375 22.179688 C 46.460938 21.324219 45.617188 20.417969 44.59375 19.730469 C 44.496094 19.867188 44.394531 20.007812 44.316406 20.160156 C 44.429688 20.621094 44.761719 20.988281 44.988281 21.398438 C 46.496094 23.9375 48.332031 26.296875 50.539062 28.269531 C 51.75 29.289062 52.804688 30.472656 53.933594 31.574219 C 54.597656 32.269531 55.347656 32.894531 55.925781 33.664062 C 53.984375 33.585938 52.046875 33.710938 50.105469 33.792969 C 50.039062 33.640625 49.96875 33.492188 49.902344 33.34375 C 49.3125 31.894531 48.765625 30.425781 48.277344 28.941406 C 47.667969 27.183594 46.925781 25.472656 46.039062 23.839844 C 45.394531 22.632812 44.632812 21.496094 43.882812 20.351562 C 43.695312 20.390625 43.503906 20.429688 43.316406 20.46875 C 43.394531 21.210938 43.597656 21.933594 43.796875 22.652344 C 44.40625 24.816406 45.234375 26.929688 46.34375 28.886719 C 46.910156 29.863281 47.625 30.746094 48.109375 31.765625 C 48.429688 32.441406 48.898438 33.050781 49.121094 33.769531 C 49.441406 33.859375 49.777344 33.824219 50.105469 33.851562 C 49.5625 33.96875 49 33.832031 48.457031 33.933594 C 47.363281 34.003906 46.28125 34.171875 45.191406 34.273438 C 45.074219 34.273438 44.960938 34.277344 44.84375 34.28125 C 44.558594 32.203125 44.710938 30.097656 44.460938 28.015625 C 44.273438 26.296875 43.914062 24.601562 43.492188 22.925781 C 43.296875 22.183594 43.074219 21.449219 42.898438 20.703125 C 42.660156 20.699219 42.421875 20.691406 42.183594 20.691406 C 42.039062 23.519531 41.984375 26.394531 42.652344 29.167969 C 42.875 30.152344 43.277344 31.089844 43.492188 32.078125 C 43.640625 32.765625 43.847656 33.441406 43.917969 34.144531 C 43.921875 34.230469 43.929688 34.40625 43.933594 34.492188 C 43.007812 34.605469 42.089844 34.777344 41.183594 35.007812 C 40.601562 35.152344 40.03125 35.351562 39.4375 35.464844 C 39.804688 33.5 40.273438 31.550781 40.804688 29.625 C 41.210938 28.253906 41.390625 26.828125 41.542969 25.414062 C 41.707031 23.839844 41.769531 22.257812 41.765625 20.679688 C 41.558594 20.6875 41.355469 20.699219 41.148438 20.707031 C 40.453125 22.4375 39.890625 24.226562 39.527344 26.058594 C 38.988281 28.554688 39.050781 31.117188 38.863281 33.648438 C 38.804688 34.289062 38.808594 34.9375 38.691406 35.574219 C 38.683594 35.613281 38.660156 35.695312 38.648438 35.734375 C 37.320312 36.164062 35.96875 36.675781 34.890625 37.59375 C 34.308594 38.082031 33.917969 38.886719 34.128906 39.648438 C 34.382812 40.417969 34.984375 41.015625 35.625 41.488281 C 36.851562 42.382812 38.261719 42.992188 39.691406 43.492188 C 41.660156 44.15625 43.71875 44.554688 45.792969 44.699219 C 47.613281 44.847656 49.445312 44.914062 51.277344 44.863281 C 49 45.351562 46.679688 45.640625 44.351562 45.738281 C 40.867188 45.878906 37.3125 45.339844 34.132812 43.871094 C 32.425781 43.019531 30.808594 41.996094 29.253906 40.894531 C 27.902344 39.914062 26.5625 38.921875 25.199219 37.964844 C 23.65625 36.988281 22.03125 36.140625 20.382812 35.363281 C 17.457031 34.019531 14.351562 33.109375 11.210938 32.441406 C 7.507812 31.667969 3.742188 31.21875 0 30.675781 C 0.332031 30.613281 0.671875 30.597656 1.011719 30.609375 C 7.929688 30.71875 14.882812 30.195312 21.652344 28.722656 C 22.175781 28.601562 22.71875 28.546875 23.210938 28.324219 C 24.203125 27.867188 25.183594 27.386719 26.152344 26.875 C 26.511719 26.671875 26.867188 26.457031 27.261719 26.328125 C 26.875 26.71875 26.378906 26.976562 25.953125 27.320312 C 25.421875 27.742188 24.886719 28.15625 24.339844 28.554688 C 23.269531 29.328125 22.234375 30.152344 21.175781 30.941406 C 20.671875 31.328125 20.140625 31.6875 19.675781 32.125 C 20.394531 31.757812 21.070312 31.308594 21.761719 30.898438 C 24.230469 29.410156 26.617188 27.792969 29.132812 26.375 C 30.972656 25.308594 32.90625 24.378906 34.613281 23.09375 C 36.097656 21.980469 37.542969 20.808594 38.882812 19.519531 C 38.789062 19.394531 38.695312 19.265625 38.601562 19.140625 C 40.714844 17.75 42.8125 16.328125 44.917969 14.921875 C 45.171875 15.003906 45.453125 15.136719 45.714844 15 C 48.296875 13.871094 50.753906 12.445312 53.011719 10.75 C 55.78125 8.628906 58.507812 6.453125 61.328125 4.402344 C 62.347656 3.597656 63.433594 2.882812 64.433594 2.054688 C 63.402344 2.570312 62.441406 3.210938 61.464844 3.824219 C 61.246094 3.957031 60.992188 4.019531 60.75 4.085938 C 60.949219 3.898438 61.164062 3.730469 61.390625 3.578125 C 63.011719 2.457031 64.628906 1.332031 66.246094 0.199219 "/>
</g>
<path style=" stroke:none;fill-rule:nonzero;fill:rgb(77.667236%,11.038208%,17.991638%);fill-opacity:1;" d="M 124.660156 25.425781 C 126.097656 25.394531 127.53125 25.40625 128.96875 25.40625 C 128.761719 25.773438 128.574219 26.191406 128.214844 26.433594 C 126.828125 26.464844 125.4375 26.449219 124.050781 26.433594 C 124.230469 26.085938 124.445312 25.753906 124.660156 25.425781 "/>
<path style=" stroke:none;fill-rule:nonzero;fill:rgb(77.667236%,11.038208%,17.991638%);fill-opacity:1;" d="M 135.742188 27.070312 C 138.433594 27.074219 141.128906 27.089844 143.816406 27.082031 C 143.917969 26.894531 144.015625 26.710938 144.113281 26.523438 C 143.359375 26.296875 142.566406 26.378906 141.792969 26.363281 C 140.242188 26.371094 138.691406 26.359375 137.140625 26.371094 C 136.59375 26.375 136.117188 26.699219 135.742188 27.070312 Z M 132.070312 26.160156 C 132.738281 25.6875 133.550781 25.421875 134.371094 25.417969 C 138.808594 25.414062 143.25 25.421875 147.691406 25.429688 C 148.230469 25.441406 148.871094 25.527344 149.164062 26.046875 C 148.972656 26.398438 148.753906 26.738281 148.535156 27.074219 C 149.023438 27.082031 149.515625 27.085938 150.007812 27.097656 C 149.789062 27.488281 149.546875 27.859375 149.304688 28.234375 C 148.824219 28.253906 148.339844 28.199219 147.863281 28.277344 C 147.328125 28.703125 147.214844 29.640625 146.4375 29.738281 C 144.710938 29.808594 142.980469 29.726562 141.257812 29.785156 C 140.867188 29.800781 140.367188 29.972656 140.355469 30.433594 C 141.746094 30.609375 143.15625 30.371094 144.550781 30.570312 C 144.890625 30.625 145.261719 30.664062 145.546875 30.882812 C 145.757812 31.039062 145.914062 31.320312 145.828125 31.585938 C 145.703125 31.996094 145.445312 32.347656 145.238281 32.71875 C 144.972656 33.152344 144.75 33.636719 144.34375 33.960938 C 143.949219 34.269531 143.421875 34.285156 142.945312 34.292969 C 140.292969 34.285156 137.644531 34.296875 134.992188 34.285156 C 134.628906 34.261719 134.160156 34.242188 133.957031 33.886719 C 133.761719 33.5 134.117188 33.15625 134.292969 32.839844 C 134.457031 32.617188 134.566406 32.234375 134.902344 32.25 C 136.320312 32.246094 137.734375 32.226562 139.152344 32.257812 C 138.984375 32.578125 138.828125 32.90625 138.691406 33.238281 C 139.148438 33.3125 139.707031 33.457031 140.097656 33.117188 C 140.429688 32.71875 140.738281 32.261719 140.796875 31.730469 C 140.105469 31.515625 139.375 31.628906 138.664062 31.601562 C 137.769531 31.578125 136.851562 31.703125 135.984375 31.421875 C 135.617188 31.324219 135.371094 30.890625 135.519531 30.53125 C 135.714844 30.042969 136.027344 29.609375 136.40625 29.25 C 136.761719 28.898438 137.289062 28.863281 137.761719 28.851562 C 139.472656 28.851562 141.183594 28.84375 142.894531 28.839844 C 142.980469 28.675781 143.0625 28.511719 143.144531 28.34375 C 141.890625 28.269531 140.636719 28.316406 139.378906 28.308594 C 137.941406 28.304688 136.503906 28.300781 135.0625 28.320312 C 133.914062 30.183594 132.746094 32.039062 131.613281 33.914062 C 131.496094 34.109375 131.328125 34.339844 131.070312 34.292969 C 129.65625 34.261719 128.238281 34.34375 126.828125 34.246094 C 126.964844 33.871094 127.207031 33.550781 127.417969 33.214844 C 128.472656 31.554688 129.523438 29.894531 130.578125 28.230469 C 130.199219 28.226562 129.820312 28.222656 129.441406 28.207031 C 129.609375 27.808594 129.835938 27.4375 130.058594 27.066406 C 130.429688 27.074219 130.804688 27.078125 131.175781 27.066406 C 131.46875 26.757812 131.71875 26.40625 132.070312 26.160156 "/>
<path style=" stroke:none;fill-rule:nonzero;fill:rgb(77.667236%,11.038208%,17.991638%);fill-opacity:1;" d="M 83.742188 27.433594 C 84.324219 27.113281 85.003906 27.074219 85.65625 27.070312 C 87.917969 27.0625 90.179688 27.070312 92.445312 27.078125 C 92.882812 27.078125 93.34375 27.128906 93.722656 27.367188 C 93.945312 27.511719 94.121094 27.804688 94.015625 28.070312 C 93.84375 28.53125 93.582031 28.945312 93.390625 29.394531 C 93.105469 30.035156 92.554688 30.523438 91.921875 30.800781 C 92.007812 31.078125 92.132812 31.390625 92.003906 31.675781 C 91.773438 32.167969 91.453125 32.613281 91.160156 33.070312 C 90.960938 33.398438 90.703125 33.707031 90.34375 33.863281 C 89.804688 34.136719 89.1875 34.085938 88.605469 34.085938 C 85.953125 34.089844 83.300781 34.082031 80.648438 34.097656 C 80.375 34.09375 80.070312 34.09375 79.855469 33.90625 C 79.714844 33.792969 79.664062 33.597656 79.722656 33.429688 C 79.859375 32.945312 80.15625 32.527344 80.4375 32.117188 C 81.984375 32.109375 83.535156 32.105469 85.082031 32.105469 C 84.957031 32.375 84.789062 32.636719 84.746094 32.9375 C 84.894531 33.132812 85.167969 33.121094 85.390625 33.144531 C 85.839844 33.175781 86.390625 33.097656 86.636719 32.664062 C 86.855469 32.285156 87.117188 31.921875 87.25 31.5 C 87.246094 31.238281 86.964844 31.117188 86.742188 31.082031 C 86.148438 31.007812 85.546875 31.054688 84.949219 31.042969 C 85.113281 30.71875 85.292969 30.402344 85.480469 30.089844 C 86.273438 29.996094 87.082031 30.089844 87.875 29.972656 C 88.554688 29.75 88.835938 29.023438 89.179688 28.464844 C 88.839844 28.125 88.324219 28.21875 87.894531 28.246094 C 87.5 28.390625 87.335938 28.824219 87.074219 29.117188 C 85.5 29.164062 83.929688 29.136719 82.359375 29.128906 C 82.730469 28.507812 83.058594 27.777344 83.742188 27.433594 "/>
<path style=" stroke:none;fill-rule:nonzero;fill:rgb(77.667236%,11.038208%,17.991638%);fill-opacity:1;" d="M 117.308594 27.066406 C 121.140625 27.101562 124.96875 27.046875 128.800781 27.101562 C 128.613281 27.507812 128.363281 27.882812 128.097656 28.242188 C 127.835938 28.238281 127.570312 28.242188 127.308594 28.253906 C 126.957031 28.617188 126.78125 29.105469 126.441406 29.476562 C 126.214844 29.738281 125.84375 29.753906 125.519531 29.765625 C 123.941406 29.777344 122.363281 29.753906 120.785156 29.78125 C 120.351562 29.78125 119.890625 30.011719 119.78125 30.464844 C 121.101562 30.53125 122.421875 30.460938 123.738281 30.519531 C 124.285156 30.539062 124.800781 30.753906 125.261719 31.042969 C 125.277344 31.324219 125.328125 31.628906 125.183594 31.890625 C 124.917969 32.386719 124.617188 32.867188 124.328125 33.347656 C 124.148438 33.664062 123.902344 33.957031 123.566406 34.109375 C 123.09375 34.351562 122.550781 34.273438 122.042969 34.285156 C 120.363281 34.296875 118.6875 34.277344 117.007812 34.304688 C 116.800781 34.695312 116.554688 35.207031 116.050781 35.242188 C 115.046875 35.269531 114.035156 35.253906 113.03125 35.253906 C 113.050781 34.941406 113.128906 34.636719 113.277344 34.367188 C 113.195312 34.191406 113.058594 34.023438 113.050781 33.820312 C 113.230469 33.4375 113.503906 33.109375 113.710938 32.738281 C 113.847656 32.539062 113.953125 32.214844 114.257812 32.246094 C 115.597656 32.25 116.941406 32.222656 118.28125 32.265625 C 118.121094 32.597656 117.980469 32.9375 117.898438 33.296875 C 118.355469 33.308594 118.816406 33.355469 119.269531 33.285156 C 119.449219 33.273438 119.558594 33.109375 119.667969 32.988281 C 119.890625 32.6875 120.09375 32.371094 120.226562 32.023438 C 120.28125 31.78125 120.019531 31.613281 119.808594 31.621094 C 118.179688 31.515625 116.519531 31.789062 114.921875 31.375 C 114.910156 31.128906 114.839844 30.851562 114.996094 30.632812 C 115.277344 30.199219 115.554688 29.761719 115.84375 29.328125 C 116.117188 28.914062 116.660156 28.851562 117.117188 28.84375 C 118.867188 28.84375 120.613281 28.847656 122.363281 28.84375 C 122.441406 28.675781 122.519531 28.511719 122.601562 28.347656 C 120.589844 28.246094 118.574219 28.351562 116.5625 28.285156 C 116.761719 27.851562 117.019531 27.445312 117.308594 27.066406 "/>
<path style=" stroke:none;fill-rule:nonzero;fill:rgb(77.667236%,11.038208%,17.991638%);fill-opacity:1;" d="M 67.351562 27.097656 C 72.253906 27.09375 77.152344 27.074219 82.054688 27.105469 C 81.917969 27.476562 81.746094 27.835938 81.523438 28.164062 C 81.085938 28.21875 80.644531 28.207031 80.207031 28.21875 C 79.679688 29.160156 79.085938 30.0625 78.523438 30.984375 C 78.113281 31.75 77.398438 32.507812 76.453125 32.433594 C 74.882812 32.425781 73.308594 32.4375 71.738281 32.417969 C 71.863281 32.167969 71.945312 31.875 72.171875 31.695312 C 72.441406 31.59375 72.757812 31.613281 73.003906 31.445312 C 73.214844 31.265625 73.335938 31.007812 73.480469 30.773438 C 73.972656 29.914062 74.558594 29.105469 75 28.214844 C 74.304688 28.199219 73.609375 28.199219 72.917969 28.21875 C 72.214844 29.453125 71.511719 30.6875 70.792969 31.917969 C 70.601562 32.234375 70.429688 32.632812 70.589844 32.996094 C 70.714844 33.128906 70.914062 33.125 71.085938 33.136719 C 73.167969 33.164062 75.253906 33.121094 77.339844 33.167969 C 77.617188 33.171875 77.984375 33.328125 77.996094 33.648438 C 77.867188 34.136719 77.589844 34.570312 77.402344 35.035156 C 75.828125 35.019531 74.253906 35.035156 72.679688 35.035156 C 72.808594 34.71875 72.882812 34.382812 72.902344 34.039062 C 72.625 34.007812 72.347656 33.980469 72.066406 33.976562 C 70.25 33.984375 68.433594 33.984375 66.613281 33.972656 C 66.1875 33.96875 65.710938 33.828125 65.46875 33.453125 C 65.253906 33.070312 65.398438 32.609375 65.589844 32.25 C 66.285156 30.898438 67.117188 29.621094 67.78125 28.25 C 67.367188 28.230469 66.957031 28.226562 66.542969 28.230469 C 66.78125 27.832031 67.019531 27.425781 67.351562 27.097656 "/>
<path style=" stroke:none;fill-rule:nonzero;fill:rgb(77.667236%,11.038208%,17.991638%);fill-opacity:1;" d="M 95.890625 27.144531 C 96.976562 27.070312 98.0625 27.121094 99.148438 27.105469 C 100.40625 27.121094 101.671875 27.070312 102.929688 27.148438 C 102.730469 27.488281 102.507812 27.816406 102.28125 28.140625 C 101.847656 28.148438 101.40625 28.121094 100.976562 28.21875 C 100.570312 28.8125 100.25 29.460938 99.867188 30.070312 C 99.253906 31.074219 98.640625 32.078125 98.066406 33.109375 C 97.847656 33.527344 97.609375 33.941406 97.277344 34.28125 C 95.722656 34.296875 94.167969 34.292969 92.617188 34.277344 C 92.886719 33.675781 93.292969 33.152344 93.597656 32.570312 C 93.847656 32.082031 94.242188 31.65625 94.347656 31.101562 C 93.875 31.039062 93.398438 31.035156 92.925781 31.046875 C 93.070312 30.710938 93.246094 30.390625 93.441406 30.082031 C 94.007812 30.074219 94.578125 30.070312 95.140625 30.007812 C 95.527344 29.414062 95.925781 28.828125 96.238281 28.191406 C 95.945312 28.167969 95.65625 28.148438 95.363281 28.132812 C 95.519531 27.792969 95.699219 27.464844 95.890625 27.144531 "/>
<path style=" stroke:none;fill-rule:nonzero;fill:rgb(77.667236%,11.038208%,17.991638%);fill-opacity:1;" d="M 105.71875 27.125 C 107.074219 27.085938 108.429688 27.109375 109.789062 27.105469 C 110.78125 27.109375 111.773438 27.078125 112.765625 27.140625 C 112.53125 27.476562 112.339844 27.851562 112.027344 28.125 C 111.589844 28.246094 111.019531 27.976562 110.664062 28.355469 C 110.117188 29.066406 109.6875 29.863281 109.089844 30.535156 C 108.722656 30.933594 108.167969 31.101562 107.640625 31.074219 C 107.292969 31.558594 106.949219 32.039062 106.609375 32.527344 C 106.472656 32.699219 106.425781 32.914062 106.445312 33.128906 C 107.136719 33.230469 107.835938 33.160156 108.53125 33.207031 C 108.394531 33.507812 108.296875 33.832031 108.085938 34.089844 C 107.347656 34.179688 106.597656 34.109375 105.855469 34.128906 C 104.785156 34.117188 103.710938 34.128906 102.640625 34.121094 C 102.347656 34.101562 102.011719 34.097656 101.796875 33.875 C 101.558594 33.527344 101.589844 33.054688 101.769531 32.691406 C 102.042969 32.171875 102.433594 31.714844 102.644531 31.160156 C 102.355469 31.003906 102.023438 31.039062 101.710938 31.046875 C 101.839844 30.703125 102.023438 30.386719 102.222656 30.078125 C 102.953125 30.058594 103.695312 30.097656 104.425781 29.984375 C 104.769531 29.945312 104.992188 29.65625 105.1875 29.402344 C 105.480469 29 105.785156 28.605469 106.085938 28.203125 C 105.769531 28.175781 105.457031 28.152344 105.144531 28.136719 C 105.324219 27.792969 105.519531 27.457031 105.71875 27.125 "/>
<path style=" stroke:none;fill-rule:nonzero;fill:rgb(77.667236%,11.038208%,17.991638%);fill-opacity:1;" d="M 160.527344 28.21875 C 160.152344 28.777344 159.878906 29.410156 159.398438 29.898438 C 159.101562 30.210938 158.65625 30.3125 158.238281 30.316406 C 156.898438 30.328125 155.554688 30.277344 154.210938 30.335938 C 153.796875 30.328125 153.511719 30.851562 153.71875 31.203125 C 153.890625 31.441406 154.191406 31.542969 154.480469 31.53125 C 156.089844 31.527344 157.695312 31.535156 159.304688 31.527344 C 159.726562 31.523438 160.222656 31.433594 160.453125 31.039062 C 160.789062 30.476562 161.113281 29.90625 161.4375 29.335938 C 161.625 28.980469 161.910156 28.632812 161.832031 28.203125 C 161.398438 28.1875 160.960938 28.175781 160.527344 28.21875 Z M 152.714844 28.074219 C 152.890625 27.734375 153.0625 27.386719 153.320312 27.097656 C 160.617188 27.089844 167.917969 27.089844 175.21875 27.089844 C 175.476562 27.101562 175.738281 27.117188 176 27.128906 C 175.796875 27.457031 175.59375 27.789062 175.417969 28.132812 C 174.890625 28.242188 174.164062 28.054688 173.832031 28.601562 C 172.6875 30.476562 171.546875 32.355469 170.410156 34.238281 C 169.960938 34.320312 169.503906 34.289062 169.054688 34.289062 C 167.964844 34.28125 166.875 34.3125 165.785156 34.265625 C 166.585938 32.800781 167.488281 31.394531 168.292969 29.929688 C 168.589844 29.378906 169.085938 28.886719 169.0625 28.21875 C 168.460938 28.199219 167.855469 28.164062 167.253906 28.210938 C 166.863281 28.230469 166.632812 28.597656 166.441406 28.886719 C 165.421875 30.550781 164.40625 32.214844 163.394531 33.882812 C 163.269531 34.0625 163.148438 34.335938 162.882812 34.289062 C 161.4375 34.285156 159.996094 34.304688 158.554688 34.269531 C 158.78125 33.785156 159.109375 33.351562 159.296875 32.84375 C 159.007812 32.574219 158.605469 32.566406 158.234375 32.566406 C 155.671875 32.566406 153.109375 32.566406 150.546875 32.566406 C 149.949219 32.574219 149.320312 32.496094 148.800781 32.175781 C 148.550781 32.015625 148.441406 31.703125 148.46875 31.417969 C 148.492188 30.96875 148.78125 30.601562 148.980469 30.214844 C 149.183594 29.847656 149.46875 29.425781 149.929688 29.394531 C 151.445312 29.328125 152.964844 29.445312 154.480469 29.367188 C 154.996094 29.371094 155.488281 28.910156 155.523438 28.410156 C 155.203125 28.160156 154.777344 28.199219 154.398438 28.195312 C 153.890625 28.207031 153.367188 28.140625 152.871094 28.285156 C 152.816406 28.214844 152.765625 28.144531 152.714844 28.074219 "/>
<g clip-path="url(#clip2)" clip-rule="nonzero">
<path style=" stroke:none;fill-rule:nonzero;fill:rgb(77.667236%,11.038208%,17.991638%);fill-opacity:1;" d="M 66.617188 42.914062 C 67.203125 42.96875 67.792969 42.972656 68.378906 42.917969 C 68.707031 41.980469 69.1875 41.101562 69.476562 40.148438 C 68.519531 41.066406 67.550781 41.972656 66.617188 42.914062 Z M 65.042969 38.871094 C 65.351562 38.789062 65.671875 38.824219 65.988281 38.820312 C 68.609375 38.816406 71.230469 38.832031 73.855469 38.824219 C 74.308594 38.8125 74.765625 38.816406 75.21875 38.855469 C 75 39.667969 74.679688 40.449219 74.421875 41.253906 C 73.941406 42.664062 73.488281 44.085938 72.992188 45.492188 C 72.949219 45.730469 72.695312 45.679688 72.519531 45.6875 C 70.757812 45.691406 69.003906 45.710938 67.246094 45.667969 C 67.355469 45.339844 67.460938 45.011719 67.554688 44.683594 C 66.761719 44.671875 65.96875 44.652344 65.179688 44.671875 C 64.390625 44.605469 64.179688 45.730469 63.398438 45.6875 C 61.753906 45.691406 60.109375 45.710938 58.460938 45.667969 C 58.808594 45.167969 59.261719 44.757812 59.679688 44.320312 C 61.21875 42.730469 62.765625 41.148438 64.300781 39.5625 C 64.539062 39.320312 64.757812 39.054688 65.042969 38.871094 "/>
</g>
<g clip-path="url(#clip3)" clip-rule="nonzero">
<path style=" stroke:none;fill-rule:nonzero;fill:rgb(77.667236%,11.038208%,17.991638%);fill-opacity:1;" d="M 78.425781 38.878906 C 80.53125 38.867188 82.628906 38.855469 84.730469 38.882812 C 83.304688 41.167969 81.863281 43.441406 80.394531 45.699219 C 78.3125 45.675781 76.226562 45.707031 74.144531 45.675781 C 74.753906 44.566406 75.484375 43.53125 76.148438 42.457031 C 76.894531 41.257812 77.695312 40.089844 78.425781 38.878906 "/>
</g>
<g clip-path="url(#clip4)" clip-rule="nonzero">
<path style=" stroke:none;fill-rule:nonzero;fill:rgb(77.667236%,11.038208%,17.991638%);fill-opacity:1;" d="M 91.679688 40.898438 C 91.429688 41.367188 91.167969 41.832031 90.941406 42.3125 C 91.574219 42.304688 92.289062 42.464844 92.851562 42.097656 C 93.121094 41.84375 93.464844 41.496094 93.351562 41.09375 C 92.871094 40.714844 92.230469 40.933594 91.679688 40.898438 Z M 86.878906 38.878906 C 90.792969 38.851562 94.707031 38.878906 98.621094 38.859375 C 99.210938 38.824219 99.976562 39.136719 100.007812 39.8125 C 99.964844 40.519531 99.46875 41.074219 99.128906 41.664062 C 98.722656 42.28125 98.410156 43.011719 97.761719 43.425781 C 97.382812 43.691406 96.910156 43.734375 96.46875 43.808594 C 97.082031 44.410156 97.730469 44.976562 98.257812 45.664062 C 96.320312 45.714844 94.382812 45.683594 92.445312 45.691406 C 92.28125 45.691406 92.09375 45.699219 91.988281 45.546875 C 91.382812 44.835938 90.847656 44.0625 90.304688 43.300781 C 89.742188 44.050781 89.351562 44.910156 88.800781 45.671875 C 86.734375 45.710938 84.664062 45.691406 82.59375 45.675781 C 83.945312 43.359375 85.480469 41.164062 86.878906 38.878906 "/>
</g>
<g clip-path="url(#clip5)" clip-rule="nonzero">
<path style=" stroke:none;fill-rule:nonzero;fill:rgb(77.667236%,11.038208%,17.991638%);fill-opacity:1;" d="M 107.542969 39.09375 C 107.65625 38.839844 107.9375 38.804688 108.1875 38.816406 C 110.097656 38.839844 112.007812 38.789062 113.914062 38.851562 C 112.933594 40.453125 111.921875 42.035156 110.921875 43.625 C 110.464844 44.300781 110.085938 45.03125 109.589844 45.679688 C 107.503906 45.691406 105.417969 45.707031 103.335938 45.675781 C 104.671875 43.441406 106.144531 41.289062 107.542969 39.09375 "/>
</g>
<g clip-path="url(#clip6)" clip-rule="nonzero">
<path style=" stroke:none;fill-rule:nonzero;fill:rgb(77.667236%,11.038208%,17.991638%);fill-opacity:1;" d="M 115.714844 39.214844 C 115.835938 39.039062 115.964844 38.796875 116.21875 38.828125 C 117.886719 38.808594 119.558594 38.824219 121.226562 38.820312 C 121.410156 38.839844 121.675781 38.792969 121.773438 38.996094 C 122.277344 39.808594 122.75 40.648438 123.292969 41.4375 C 123.867188 40.644531 124.320312 39.769531 124.867188 38.957031 C 124.984375 38.777344 125.242188 38.839844 125.429688 38.816406 C 127.066406 38.835938 128.707031 38.792969 130.347656 38.847656 C 128.902344 41.148438 127.390625 43.402344 125.949219 45.703125 C 124.183594 45.683594 122.417969 45.707031 120.652344 45.695312 C 120.042969 44.746094 119.421875 43.804688 118.804688 42.863281 C 118.21875 43.832031 117.570312 44.765625 116.9375 45.707031 C 115.226562 45.6875 113.515625 45.695312 111.804688 45.699219 C 112.0625 45.085938 112.464844 44.554688 112.792969 43.980469 C 113.75 42.382812 114.753906 40.8125 115.714844 39.214844 "/>
</g>
<g clip-path="url(#clip7)" clip-rule="nonzero">
<path style=" stroke:none;fill-rule:nonzero;fill:rgb(77.667236%,11.038208%,17.991638%);fill-opacity:1;" d="M 137.636719 40.921875 C 137.347656 41.417969 137.074219 41.921875 136.796875 42.421875 C 136.492188 43.003906 136.128906 43.554688 135.886719 44.167969 C 136.425781 44.183594 137.035156 44.28125 137.5 43.941406 C 138.046875 43.585938 138.285156 42.960938 138.566406 42.402344 C 138.785156 41.980469 139.125 41.539062 138.96875 41.035156 C 138.546875 40.851562 138.082031 40.875 137.636719 40.921875 Z M 132.617188 38.859375 C 133.4375 38.765625 134.265625 38.851562 135.085938 38.824219 C 138.035156 38.832031 140.980469 38.816406 143.933594 38.820312 C 144.589844 38.84375 145.269531 38.84375 145.890625 39.089844 C 146.152344 39.179688 146.378906 39.4375 146.335938 39.726562 C 146.28125 40.039062 146.089844 40.300781 145.933594 40.566406 C 145.261719 41.679688 144.59375 42.796875 143.925781 43.910156 C 143.375 44.988281 142.203125 45.71875 140.988281 45.691406 C 136.753906 45.695312 132.519531 45.703125 128.28125 45.671875 C 128.617188 44.996094 129.070312 44.390625 129.460938 43.746094 C 130.503906 42.113281 131.539062 40.472656 132.617188 38.859375 "/>
</g>
<g clip-path="url(#clip8)" clip-rule="nonzero">
<path style=" stroke:none;fill-rule:nonzero;fill:rgb(77.667236%,11.038208%,17.991638%);fill-opacity:1;" d="M 148.910156 39.339844 C 149.066406 39.109375 149.230469 38.777344 149.5625 38.820312 C 151.535156 38.835938 153.503906 38.792969 155.476562 38.851562 C 155.046875 39.703125 154.480469 40.472656 153.96875 41.277344 C 153.179688 42.582031 152.320312 43.847656 151.515625 45.144531 C 151.394531 45.332031 151.265625 45.507812 151.128906 45.683594 C 149.046875 45.6875 146.964844 45.707031 144.882812 45.671875 C 146.164062 43.523438 147.613281 41.480469 148.910156 39.339844 "/>
</g>
<g clip-path="url(#clip9)" clip-rule="nonzero">
<path style=" stroke:none;fill-rule:nonzero;fill:rgb(77.667236%,11.038208%,17.991638%);fill-opacity:1;" d="M 160.855469 42.917969 C 161.429688 42.9375 162.007812 42.960938 162.585938 42.925781 C 162.980469 42 163.378906 41.078125 163.769531 40.15625 C 162.753906 41.027344 161.8125 41.980469 160.855469 42.917969 Z M 159.128906 39.019531 C 159.296875 38.859375 159.53125 38.8125 159.757812 38.816406 C 162.167969 38.820312 164.578125 38.820312 166.992188 38.820312 C 167.800781 38.828125 168.613281 38.796875 169.421875 38.855469 C 168.71875 41.15625 167.921875 43.429688 167.164062 45.714844 C 165.261719 45.710938 163.355469 45.695312 161.449219 45.703125 C 161.578125 45.367188 161.699219 45.03125 161.808594 44.691406 C 160.898438 44.675781 159.988281 44.640625 159.078125 44.699219 C 158.609375 44.90625 158.355469 45.386719 157.953125 45.683594 C 156.179688 45.707031 154.398438 45.695312 152.625 45.691406 C 152.964844 45.136719 153.496094 44.742188 153.933594 44.265625 C 155.664062 42.515625 157.40625 40.777344 159.128906 39.019531 "/>
</g>
<path style=" stroke:none;fill-rule:nonzero;fill:rgb(94.102478%,55.549622%,7.182312%);fill-opacity:1;" d="M 61.464844 3.824219 C 62.441406 3.210938 63.402344 2.570312 64.433594 2.054688 C 63.433594 2.882812 62.347656 3.597656 61.328125 4.402344 C 58.507812 6.453125 55.78125 8.628906 53.011719 10.75 C 50.753906 12.445312 48.296875 13.871094 45.714844 15 C 45.453125 15.136719 45.171875 15.003906 44.917969 14.921875 C 46.207031 13.882812 47.667969 13.078125 48.996094 12.085938 C 49.421875 11.757812 49.898438 11.5 50.339844 11.195312 C 52.054688 10.058594 53.695312 8.804688 55.449219 7.722656 C 56.296875 7.1875 57.019531 6.46875 57.886719 5.957031 C 58.5 5.570312 59.0625 5.101562 59.6875 4.734375 C 60.046875 4.523438 60.34375 4.207031 60.75 4.085938 C 60.992188 4.019531 61.246094 3.957031 61.464844 3.824219 "/>
<path style=" stroke:none;fill-rule:nonzero;fill:rgb(94.102478%,55.549622%,7.182312%);fill-opacity:1;" d="M 65.820312 8.355469 C 66.582031 8.121094 67.335938 7.863281 68.085938 7.59375 C 67.878906 7.875 67.519531 7.941406 67.21875 8.074219 C 65.484375 8.777344 63.773438 9.53125 62.042969 10.238281 C 60.664062 10.8125 59.277344 11.371094 57.914062 11.988281 C 55.183594 13.429688 52.277344 14.535156 49.285156 15.289062 C 48.132812 15.5625 46.976562 15.851562 45.796875 15.96875 C 45.757812 15.792969 45.71875 15.613281 45.683594 15.4375 C 48.710938 13.789062 51.917969 12.449219 55.269531 11.628906 C 57.03125 11.199219 58.757812 10.644531 60.484375 10.101562 C 62.269531 9.546875 64.042969 8.945312 65.820312 8.355469 "/>
<path style=" stroke:none;fill-rule:nonzero;fill:rgb(94.102478%,55.549622%,7.182312%);fill-opacity:1;" d="M 59.011719 14.699219 C 61.304688 14.597656 63.59375 14.390625 65.886719 14.246094 C 65.984375 14.242188 66.179688 14.230469 66.28125 14.226562 C 66.144531 14.460938 66.011719 14.699219 65.824219 14.898438 C 65.832031 14.839844 65.84375 14.730469 65.847656 14.675781 C 64.90625 14.742188 63.988281 14.964844 63.058594 15.109375 C 61.140625 15.453125 59.207031 15.738281 57.292969 16.109375 C 53.582031 16.863281 49.769531 17.191406 45.988281 16.890625 C 46.003906 16.714844 46.019531 16.539062 46.035156 16.363281 C 46.71875 16.085938 47.445312 15.960938 48.160156 15.800781 C 50.964844 15.203125 53.828125 14.894531 56.695312 14.835938 C 57.46875 14.8125 58.238281 14.734375 59.011719 14.699219 "/>
<path style=" stroke:none;fill-rule:nonzero;fill:rgb(94.102478%,55.549622%,7.182312%);fill-opacity:1;" d="M 46.039062 17.285156 C 49.789062 17.214844 53.558594 17.5 57.226562 18.324219 C 59 18.652344 60.761719 19.074219 62.558594 19.261719 C 62.71875 19.277344 62.878906 19.285156 63.039062 19.292969 C 62.890625 19.535156 62.742188 19.777344 62.578125 20.011719 C 62.378906 19.824219 62.082031 19.933594 61.839844 19.894531 C 59.238281 19.679688 56.625 19.683594 54.023438 19.492188 C 52.203125 19.332031 50.390625 19.042969 48.613281 18.59375 C 47.703125 18.359375 46.773438 18.148438 45.914062 17.75 C 45.957031 17.59375 45.996094 17.441406 46.039062 17.285156 "/>
<path style=" stroke:none;fill-rule:nonzero;fill:rgb(94.102478%,55.549622%,7.182312%);fill-opacity:1;" d="M 45.808594 18.226562 C 48.269531 18.652344 50.636719 19.484375 52.992188 20.292969 C 54.183594 20.710938 55.316406 21.269531 56.457031 21.8125 C 57.714844 22.441406 59.007812 22.988281 60.316406 23.5 C 60.191406 23.734375 60.050781 23.957031 59.894531 24.164062 C 59.84375 24.148438 59.742188 24.113281 59.691406 24.097656 C 58.863281 23.789062 58 23.609375 57.152344 23.363281 C 56.007812 23.035156 54.84375 22.765625 53.699219 22.433594 C 50.875 21.566406 48.191406 20.28125 45.675781 18.742188 C 45.71875 18.570312 45.761719 18.398438 45.808594 18.226562 "/>
<path style=" stroke:none;fill-rule:nonzero;fill:rgb(94.102478%,55.549622%,7.182312%);fill-opacity:1;" d="M 45.058594 19.496094 C 45.148438 19.351562 45.238281 19.207031 45.332031 19.0625 C 47.847656 20.1875 50.21875 21.625 52.46875 23.21875 C 53.105469 23.667969 53.675781 24.207031 54.277344 24.703125 C 55.40625 25.644531 56.539062 26.585938 57.757812 27.410156 C 57.640625 27.644531 57.492188 27.863281 57.308594 28.050781 C 55.613281 27.039062 53.914062 26.039062 52.160156 25.132812 C 49.511719 23.648438 47.132812 21.707031 45.058594 19.496094 "/>
<path style=" stroke:none;fill-rule:nonzero;fill:rgb(94.102478%,55.549622%,7.182312%);fill-opacity:1;" d="M 36.703125 20.359375 C 37.339844 19.957031 37.945312 19.507812 38.601562 19.140625 C 38.695312 19.265625 38.789062 19.394531 38.882812 19.519531 C 37.542969 20.808594 36.097656 21.980469 34.613281 23.09375 C 32.90625 24.378906 30.972656 25.308594 29.132812 26.375 C 26.617188 27.792969 24.230469 29.410156 21.761719 30.898438 C 21.070312 31.308594 20.394531 31.757812 19.675781 32.125 C 20.140625 31.6875 20.671875 31.328125 21.175781 30.941406 C 22.234375 30.152344 23.269531 29.328125 24.339844 28.554688 C 24.886719 28.15625 25.421875 27.742188 25.953125 27.320312 C 26.378906 26.976562 26.875 26.71875 27.261719 26.328125 C 27.519531 26.050781 27.851562 25.867188 28.183594 25.699219 C 29.191406 25.183594 30.132812 24.554688 31.09375 23.960938 C 31.816406 23.566406 32.476562 23.078125 33.171875 22.636719 C 34.367188 21.910156 35.523438 21.113281 36.703125 20.359375 "/>
<path style=" stroke:none;fill-rule:nonzero;fill:rgb(94.102478%,55.549622%,7.182312%);fill-opacity:1;" d="M 44.316406 20.160156 C 44.394531 20.007812 44.496094 19.867188 44.59375 19.730469 C 45.617188 20.417969 46.460938 21.324219 47.34375 22.179688 C 48.515625 23.335938 49.644531 24.546875 50.636719 25.871094 C 51.675781 27.296875 52.675781 28.757812 53.753906 30.15625 C 54.648438 31.359375 55.640625 32.480469 56.5625 33.664062 C 56.351562 33.664062 56.136719 33.664062 55.925781 33.664062 C 55.347656 32.894531 54.597656 32.269531 53.933594 31.574219 C 52.804688 30.472656 51.75 29.289062 50.539062 28.269531 C 48.332031 26.296875 46.496094 23.9375 44.988281 21.398438 C 44.761719 20.988281 44.429688 20.621094 44.316406 20.160156 "/>
<path style=" stroke:none;fill-rule:nonzero;fill:rgb(94.102478%,55.549622%,7.182312%);fill-opacity:1;" d="M 39.066406 19.953125 C 39.289062 19.753906 39.53125 19.996094 39.691406 20.144531 C 39.417969 20.683594 39.042969 21.15625 38.71875 21.65625 C 37.933594 22.847656 37.070312 23.984375 36.148438 25.074219 C 35.621094 25.679688 35.113281 26.308594 34.507812 26.839844 C 33.230469 28.066406 31.996094 29.335938 30.699219 30.539062 C 29.402344 31.925781 28.046875 33.25 26.742188 34.625 C 26.15625 35.226562 25.683594 35.9375 25.019531 36.460938 C 26.117188 34.953125 27.304688 33.511719 28.429688 32.023438 C 29.515625 30.550781 30.683594 29.136719 31.730469 27.636719 C 32.601562 26.460938 33.433594 25.242188 34.445312 24.179688 C 35.808594 22.589844 37.445312 21.265625 39.066406 19.953125 "/>
<path style=" stroke:none;fill-rule:nonzero;fill:rgb(94.102478%,55.549622%,7.182312%);fill-opacity:1;" d="M 40.167969 20.320312 C 40.347656 20.363281 40.523438 20.40625 40.703125 20.449219 C 39.910156 23.726562 38.484375 26.820312 36.75 29.699219 C 35.726562 31.40625 34.792969 33.167969 33.835938 34.910156 C 33.210938 36.070312 32.570312 37.222656 31.96875 38.394531 C 31.71875 38.894531 31.488281 39.40625 31.160156 39.867188 C 31.773438 38.148438 32.5 36.46875 33.15625 34.765625 C 34.171875 32.230469 35.148438 29.679688 36.132812 27.132812 C 36.757812 25.402344 37.722656 23.824219 38.714844 22.285156 C 39.183594 21.621094 39.609375 20.914062 40.167969 20.320312 "/>
<path style=" stroke:none;fill-rule:nonzero;fill:rgb(94.102478%,55.549622%,7.182312%);fill-opacity:1;" d="M 43.316406 20.46875 C 43.503906 20.429688 43.695312 20.390625 43.882812 20.351562 C 44.632812 21.496094 45.394531 22.632812 46.039062 23.839844 C 46.925781 25.472656 47.667969 27.183594 48.277344 28.941406 C 48.765625 30.425781 49.3125 31.894531 49.902344 33.34375 C 49.96875 33.511719 50.039062 33.683594 50.105469 33.851562 C 49.777344 33.824219 49.441406 33.859375 49.121094 33.769531 C 48.898438 33.050781 48.429688 32.441406 48.109375 31.765625 C 47.621094 30.746094 46.910156 29.863281 46.34375 28.886719 C 45.234375 26.929688 44.40625 24.816406 43.796875 22.652344 C 43.597656 21.933594 43.394531 21.210938 43.316406 20.46875 "/>
<path style=" stroke:none;fill-rule:nonzero;fill:rgb(94.102478%,55.549622%,7.182312%);fill-opacity:1;" d="M 39.527344 26.058594 C 39.890625 24.226562 40.453125 22.4375 41.148438 20.707031 C 41.355469 20.699219 41.558594 20.6875 41.765625 20.679688 C 41.769531 22.257812 41.707031 23.839844 41.542969 25.414062 C 41.390625 26.828125 41.210938 28.253906 40.804688 29.625 C 40.273438 31.550781 39.804688 33.5 39.4375 35.464844 C 39.183594 35.582031 38.925781 35.683594 38.660156 35.769531 L 38.691406 35.574219 C 38.808594 34.9375 38.804688 34.289062 38.863281 33.648438 C 39.050781 31.117188 38.988281 28.554688 39.527344 26.058594 "/>
<path style=" stroke:none;fill-rule:nonzero;fill:rgb(94.102478%,55.549622%,7.182312%);fill-opacity:1;" d="M 42.183594 20.691406 C 42.421875 20.691406 42.660156 20.699219 42.898438 20.703125 C 43.074219 21.449219 43.296875 22.183594 43.492188 22.925781 C 43.914062 24.601562 44.273438 26.296875 44.460938 28.015625 C 44.710938 30.097656 44.558594 32.203125 44.84375 34.28125 C 44.960938 34.277344 45.074219 34.273438 45.191406 34.273438 C 44.796875 34.433594 44.375 34.464844 43.957031 34.496094 C 43.945312 34.375 43.929688 34.261719 43.917969 34.144531 C 43.847656 33.441406 43.640625 32.765625 43.492188 32.078125 C 43.277344 31.089844 42.875 30.152344 42.652344 29.167969 C 41.984375 26.394531 42.039062 23.519531 42.183594 20.691406 "/>
</g>
</svg>
