<svg xmlns="http://www.w3.org/2000/svg" width="176pt" height="61.013" viewBox="0 0 176 45.76"><defs><clipPath id="a"><path d="M0 0h76v45.762H0Zm0 0"/></clipPath><clipPath id="b"><path d="M58 38h18v7.762H58Zm0 0"/></clipPath><clipPath id="c"><path d="M74 38h11v7.762H74Zm0 0"/></clipPath><clipPath id="d"><path d="M82 38h19v7.762H82Zm0 0"/></clipPath><clipPath id="e"><path d="M103 38h11v7.762h-11Zm0 0"/></clipPath><clipPath id="f"><path d="M111 38h20v7.762h-20Zm0 0"/></clipPath><clipPath id="g"><path d="M128 38h19v7.762h-19Zm0 0"/></clipPath><clipPath id="h"><path d="M144 38h12v7.762h-12Zm0 0"/></clipPath><clipPath id="i"><path d="M152 38h18v7.762h-18Zm0 0"/></clipPath></defs><g clip-path="url(#a)"><path d="M40.168 20.32c-.559.594-.984 1.301-1.453 1.965-.992 1.54-1.957 3.117-2.582 4.848-.985 2.547-1.961 5.097-2.977 7.633-.656 1.703-1.383 3.382-1.996 5.101.328-.46.559-.972.809-1.472.601-1.172 1.242-2.325 1.867-3.485.957-1.742 1.89-3.504 2.914-5.21 1.734-2.88 3.16-5.973 3.953-9.25zm-1.102-.367c-1.62 1.313-3.257 2.637-4.62 4.227-1.012 1.062-1.844 2.28-2.716 3.457-1.046 1.5-2.214 2.914-3.3 4.386-1.125 1.489-2.313 2.93-3.41 4.438.664-.523 1.136-1.234 1.722-1.836 1.305-1.375 2.66-2.7 3.957-4.086 1.297-1.203 2.531-2.473 3.809-3.7.605-.53 1.113-1.16 1.64-1.765a36 36 0 0 0 2.57-3.418c.325-.5.7-.972.973-1.511-.16-.149-.402-.391-.625-.192M65.82 8.355c-1.777.59-3.55 1.192-5.336 1.747-1.726.543-3.453 1.097-5.214 1.527-3.352.82-6.56 2.16-9.586 3.809.035.175.074.355.113.53 1.18-.116 2.336-.405 3.488-.679a38.8 38.8 0 0 0 8.63-3.3c1.362-.618 2.75-1.177 4.128-1.75 1.73-.708 3.441-1.462 5.176-2.165.3-.133.66-.199.867-.48-.75.27-1.504.527-2.266.761M66.246.2c.281-.219.66-.183.996-.191 2.711.012 5.422-.035 8.13.004-.192.418-.45.804-.708 1.191q-4.192 6.497-8.371 13-.208.025-.406.043c-2.293.145-4.582.352-6.875.453-.774.035-1.543.114-2.317.137a45.4 45.4 0 0 0-8.535.965c-.715.16-1.441.285-2.125.562l-.047.528c3.782.3 7.594-.032 11.305-.782 1.914-.37 3.848-.656 5.766-1 .93-.144 1.847-.367 2.789-.433-.004.054-.016.164-.02.222-.89 1.457-1.871 2.86-2.758 4.32l.055.04c-.187 0-.379.008-.566.004-1.797-.188-3.559-.61-5.332-.938-3.668-.824-7.438-1.11-11.188-1.039q-.062.233-.125.465c.86.398 1.79.61 2.7.844 1.777.449 3.59.738 5.41.898 2.601.192 5.214.188 7.816.403.191.015.383.023.578.035a.7.7 0 0 1-.008.277c-.683 1.11-1.422 2.18-2.094 3.293a46 46 0 0 1-3.859-1.687c-1.14-.543-2.273-1.102-3.465-1.52-2.355-.809-4.722-1.64-7.183-2.066q-.07.257-.133.515c2.515 1.54 5.199 2.824 8.023 3.692 1.145.332 2.309.601 3.453.93.848.245 1.711.425 2.54.734.046.02.14.058.183.078-.727 1.062-1.398 2.164-2.117 3.234-1.219-.824-2.352-1.765-3.48-2.707-.602-.496-1.173-1.035-1.81-1.484-2.25-1.594-4.62-3.032-7.136-4.157q-.14.218-.273.434c2.074 2.211 4.453 4.152 7.101 5.637 1.754.906 3.453 1.906 5.149 2.918-.473.77-.946 1.62-.914 2.554.039.872.656 1.602 1.37 2.047.715.496 1.544.782 2.337 1.13q-1.77-.036-3.54-.118c-.921-1.184-1.914-2.305-2.808-3.508-1.078-1.398-2.078-2.86-3.117-4.285-.992-1.324-2.121-2.535-3.293-3.691-.883-.856-1.727-1.762-2.75-2.45-.098.137-.2.278-.278.43.114.461.446.828.672 1.238 1.508 2.54 3.344 4.899 5.551 6.872 1.211 1.02 2.266 2.203 3.395 3.304.664.696 1.414 1.32 1.992 2.09-1.942-.078-3.88.047-5.82.129q-.102-.227-.204-.45a68 68 0 0 1-1.625-4.402 34 34 0 0 0-2.238-5.101c-.644-1.207-1.406-2.344-2.156-3.488l-.567.117c.079.742.282 1.465.48 2.183.61 2.164 1.438 4.278 2.548 6.235.566.976 1.281 1.86 1.765 2.879.32.675.79 1.285 1.012 2.004.32.09.656.054.984.082-.542.117-1.105-.02-1.648.082-1.094.07-2.176.238-3.266.34-.117 0-.23.003-.347.007-.285-2.078-.133-4.183-.383-6.265-.188-1.72-.547-3.414-.969-5.09-.195-.742-.418-1.477-.594-2.223-.238-.004-.476-.012-.714-.012-.145 2.829-.2 5.704.468 8.477.223.984.625 1.922.84 2.91.149.688.356 1.363.426 2.067l.016.347q-1.39.17-2.75.516c-.582.144-1.153.344-1.746.457a71 71 0 0 1 1.367-5.84c.406-1.371.586-2.797.738-4.21.164-1.575.227-3.157.223-4.735-.207.008-.41.02-.618.027-.695 1.73-1.257 3.52-1.62 5.352-.54 2.496-.477 5.058-.665 7.59-.058.64-.054 1.288-.172 1.925a2 2 0 0 1-.043.16c-1.328.43-2.68.942-3.757 1.86-.582.488-.973 1.293-.762 2.054.254.77.855 1.368 1.496 1.84 1.227.895 2.637 1.504 4.066 2.004a24.4 24.4 0 0 0 6.102 1.207c1.82.149 3.652.215 5.484.164a41.3 41.3 0 0 1-6.925.875c-3.485.14-7.04-.398-10.22-1.867-1.706-.851-3.323-1.875-4.878-2.976-1.352-.98-2.692-1.973-4.055-2.93-1.543-.977-3.168-1.824-4.816-2.602-2.926-1.343-6.031-2.254-9.172-2.922C7.508 31.668 3.742 31.22 0 30.676a4.6 4.6 0 0 1 1.012-.067c6.918.11 13.87-.414 20.64-1.886.524-.121 1.067-.176 1.559-.399a60 60 0 0 0 2.941-1.449c.36-.203.715-.418 1.11-.547-.387.39-.883.649-1.309.992q-.794.635-1.613 1.235c-1.07.773-2.106 1.597-3.164 2.386-.504.387-1.035.747-1.5 1.184.719-.367 1.394-.816 2.086-1.227 2.468-1.488 4.855-3.105 7.37-4.523 1.84-1.066 3.774-1.996 5.481-3.281 1.485-1.114 2.93-2.285 4.27-3.574q-.141-.19-.281-.38c2.113-1.39 4.21-2.812 6.316-4.218.254.082.535.215.797.078a36.5 36.5 0 0 0 7.297-4.25c2.77-2.121 5.496-4.297 8.316-6.348 1.02-.804 2.106-1.52 3.106-2.347-1.032.515-1.993 1.156-2.97 1.77-.218.132-.472.195-.714.26q.3-.28.64-.507A984 984 0 0 0 66.247.2" style="stroke:none;fill-rule:nonzero;fill:#c61c2e;fill-opacity:1"/></g><path d="M124.66 25.426c1.438-.031 2.871-.02 4.309-.02-.207.367-.395.785-.754 1.028-1.387.03-2.778.015-4.164 0 .18-.348.394-.68.61-1.008M135.742 27.07c2.692.004 5.387.02 8.074.012q.152-.279.297-.559c-.754-.226-1.547-.144-2.32-.16-1.55.008-3.102-.004-4.652.008-.547.004-1.024.328-1.399.7m-3.672-.91a4.05 4.05 0 0 1 2.301-.742c4.438-.004 8.879.004 13.32.012.54.011 1.18.097 1.473.617-.191.351-.41.691-.629 1.027.488.008.98.012 1.473.024-.219.39-.461.761-.703 1.136-.48.02-.965-.035-1.442.043-.535.426-.648 1.364-1.425 1.461-1.727.07-3.458-.011-5.18.047-.39.016-.89.188-.903.649 1.391.175 2.801-.063 4.196.136.34.055.71.094.996.313.21.156.367.437.281.703-.125.41-.383.762-.59 1.133-.265.433-.488.918-.894 1.242-.395.309-.922.324-1.399.332-2.652-.008-5.3.004-7.953-.008-.363-.023-.832-.043-1.035-.398-.195-.387.16-.73.336-1.047.164-.223.273-.606.61-.59 1.417-.004 2.831-.023 4.25.008q-.255.481-.462.98c.457.075 1.016.219 1.407-.12.332-.4.64-.856.699-1.388-.692-.214-1.422-.101-2.133-.128-.894-.024-1.812.101-2.68-.18-.367-.098-.613-.531-.464-.89a3.65 3.65 0 0 1 .886-1.282c.356-.352.883-.387 1.356-.398 1.71 0 3.422-.008 5.133-.012q.127-.245.25-.496c-1.254-.074-2.508-.028-3.766-.035-1.438-.004-2.875-.008-4.316.011-1.149 1.864-2.317 3.72-3.45 5.594-.117.195-.285.426-.543.379-1.414-.031-2.832.05-4.242-.047.137-.375.379-.695.59-1.031 1.055-1.66 2.105-3.32 3.16-4.985-.379-.003-.758-.007-1.137-.023.168-.398.395-.77.618-1.14.37.007.746.011 1.117 0 .293-.31.543-.66.894-.907M83.742 27.434c.582-.32 1.262-.36 1.914-.364 2.262-.008 4.524 0 6.79.008.437 0 .898.05 1.277.29.222.144.398.437.293.702-.172.461-.434.875-.625 1.325-.286.64-.836 1.128-1.47 1.406.087.277.212.59.083.875-.23.492-.55.937-.844 1.394-.2.328-.457.637-.816.793-.54.274-1.156.223-1.739.223-2.652.004-5.304-.004-7.957.012-.273-.004-.578-.004-.793-.192a.43.43 0 0 1-.132-.476c.136-.485.433-.903.715-1.313 1.546-.008 3.097-.012 4.644-.012-.125.27-.293.532-.336.833.149.195.422.183.645.207.449.03 1-.047 1.246-.48.218-.38.48-.743.613-1.165-.004-.262-.285-.383-.508-.418-.594-.074-1.195-.027-1.793-.039.164-.324.344-.64.531-.953.793-.094 1.602 0 2.395-.117.68-.223.96-.95 1.305-1.508-.34-.34-.856-.246-1.285-.219-.395.145-.56.578-.82.871-1.575.047-3.145.02-4.716.012.371-.621.7-1.352 1.383-1.695M117.309 27.066c3.832.036 7.66-.02 11.492.036a6.6 6.6 0 0 1-.703 1.14c-.262-.004-.528 0-.79.012-.351.363-.527.851-.867 1.223-.226.261-.597.277-.921.289-1.579.011-3.157-.012-4.735.015-.433 0-.894.23-1.004.684 1.32.066 2.64-.004 3.957.055.547.02 1.063.234 1.524.523.015.281.066.586-.078.848-.266.496-.567.976-.856 1.457-.18.316-.426.609-.762.761-.472.243-1.015.164-1.523.176-1.68.012-3.356-.008-5.035.02-.207.39-.453.902-.957.937-1.004.028-2.016.012-3.02.012.02-.313.098-.617.246-.887-.082-.176-.218-.344-.226-.547.18-.383.453-.71.66-1.082.137-.199.242-.523.547-.492 1.34.004 2.683-.023 4.023.02-.16.332-.3.672-.383 1.03.457.013.918.06 1.372-.01.18-.013.289-.177.398-.298.223-.3.426-.617.559-.965.054-.242-.207-.41-.418-.402-1.63-.105-3.29.168-4.887-.246-.012-.246-.082-.523.074-.742.281-.434.559-.871.848-1.305.273-.414.816-.476 1.273-.484 1.75 0 3.496.004 5.246 0q.117-.251.239-.496c-2.012-.102-4.028.004-6.04-.063.2-.433.458-.84.747-1.219M67.352 27.098c4.902-.004 9.8-.024 14.703.007-.137.372-.309.73-.532 1.06-.437.054-.878.042-1.316.054-.527.941-1.121 1.843-1.684 2.765-.41.766-1.125 1.524-2.07 1.45-1.57-.008-3.144.004-4.715-.016.125-.25.207-.543.434-.723.27-.101.586-.082.832-.25.21-.18.332-.437.476-.672.493-.859 1.079-1.668 1.52-2.558a41 41 0 0 0-2.082.004c-.703 1.234-1.406 2.468-2.125 3.699-.191.316-.363.715-.203 1.078.125.133.324.129.496.14 2.082.028 4.168-.015 6.254.032.277.004.644.16.656.48-.129.489-.406.922-.594 1.387-1.574-.015-3.148 0-4.722 0 .129-.316.203-.652.222-.996a9 9 0 0 0-.836-.062q-2.723.011-5.453-.004c-.425-.004-.902-.145-1.144-.52-.215-.383-.07-.844.12-1.203.696-1.352 1.528-2.629 2.192-4-.414-.02-.824-.023-1.238-.02.238-.398.477-.804.809-1.132M95.89 27.145c1.087-.075 2.172-.024 3.258-.04 1.258.016 2.524-.035 3.782.043-.2.34-.422.668-.649.993-.433.007-.875-.02-1.304.078-.407.593-.727 1.242-1.11 1.851a88 88 0 0 0-1.8 3.04c-.22.417-.458.831-.79 1.171-1.554.016-3.109.012-4.66-.004.27-.601.676-1.125.98-1.707.25-.488.645-.914.75-1.468a9 9 0 0 0-1.421-.055c.144-.336.32-.656.515-.965.567-.008 1.137-.012 1.7-.074.386-.594.785-1.18 1.097-1.817a33 33 0 0 0-.875-.058c.157-.34.336-.668.528-.988M105.719 27.125c1.355-.04 2.71-.016 4.07-.02.992.004 1.984-.027 2.977.036-.235.336-.426.71-.739.984-.437.121-1.007-.148-1.363.23-.547.711-.977 1.508-1.574 2.18-.367.399-.922.567-1.45.54-.347.484-.69.964-1.03 1.452a.83.83 0 0 0-.165.602c.692.101 1.39.031 2.086.078-.136.3-.234.625-.445.883-.738.09-1.488.02-2.23.039-1.07-.012-2.145 0-3.215-.008-.293-.02-.63-.023-.844-.246-.238-.348-.207-.82-.027-1.184.273-.52.664-.976.875-1.53-.29-.157-.622-.122-.934-.114.129-.344.312-.66.512-.969.73-.02 1.472.02 2.203-.094.344-.039.566-.328.761-.582.293-.402.598-.797.899-1.199a26 26 0 0 0-.941-.066c.18-.344.375-.68.574-1.012M160.527 28.219c-.375.558-.648 1.191-1.129 1.68-.296.312-.742.413-1.16.417-1.34.012-2.683-.039-4.027.02-.414-.008-.7.516-.492.867.172.238.472.34.761.328 1.61-.004 3.215.004 4.825-.004.422-.004.918-.093 1.148-.488.336-.562.66-1.133.984-1.703.188-.356.473-.703.395-1.133a10 10 0 0 0-1.305.016m-7.812-.145c.176-.34.347-.687.605-.976q10.947-.01 21.899-.008.388.02.781.039c-.203.328-.406.66-.582 1.004-.527.11-1.254-.078-1.586.469a1351 1351 0 0 0-3.422 5.636c-.45.082-.906.051-1.355.051-1.09-.008-2.18.023-3.27-.023.8-1.465 1.703-2.871 2.508-4.336.297-.551.793-1.043.77-1.711-.602-.02-1.208-.055-1.81-.008-.39.02-.62.387-.812.676a1312 1312 0 0 0-3.046 4.996c-.125.18-.247.453-.512.406-1.446-.004-2.887.016-4.328-.02.226-.484.554-.917.742-1.425-.29-.27-.692-.278-1.063-.278h-7.687c-.598.008-1.227-.07-1.746-.39-.25-.16-.36-.473-.332-.758.023-.45.312-.816.511-1.203.204-.367.489-.79.95-.82 1.515-.067 3.035.05 4.55-.028.516.004 1.008-.457 1.043-.957-.32-.25-.746-.21-1.125-.215-.507.012-1.03-.054-1.527.09q-.081-.105-.156-.21" style="stroke:none;fill-rule:nonzero;fill:#c61c2e;fill-opacity:1"/><g clip-path="url(#b)"><path d="M66.617 42.914a9.5 9.5 0 0 0 1.762.004c.328-.938.808-1.816 1.098-2.77-.957.918-1.926 1.825-2.86 2.766m-1.574-4.043c.309-.082.629-.047.945-.05 2.621-.005 5.242.011 7.867.003.454-.011.91-.008 1.364.031-.219.813-.54 1.594-.797 2.399-.48 1.41-.934 2.832-1.43 4.238-.043.238-.297.188-.472.196-1.762.003-3.516.023-5.274-.02q.167-.492.309-.984c-.793-.012-1.586-.032-2.375-.012-.79-.067-1 1.058-1.782 1.016-1.644.003-3.289.023-4.937-.02.348-.5.8-.91 1.219-1.348 1.539-1.59 3.086-3.172 4.62-4.757.24-.243.458-.508.743-.692" style="stroke:none;fill-rule:nonzero;fill:#c61c2e;fill-opacity:1"/></g><g clip-path="url(#c)"><path d="M78.426 38.879c2.105-.012 4.203-.024 6.304.004a427 427 0 0 1-4.335 6.816c-2.082-.023-4.168.008-6.25-.023.609-1.11 1.34-2.145 2.003-3.219.747-1.2 1.547-2.367 2.278-3.578" style="stroke:none;fill-rule:nonzero;fill:#c61c2e;fill-opacity:1"/></g><g clip-path="url(#d)"><path d="M91.68 40.898c-.25.47-.512.934-.739 1.414.633-.007 1.348.153 1.91-.214.27-.254.614-.602.5-1.004-.48-.38-1.12-.16-1.671-.196m-4.801-2.02c3.914-.026 7.828 0 11.742-.019.59-.035 1.356.278 1.387.953-.043.708-.54 1.262-.88 1.852-.405.617-.718 1.348-1.366 1.762-.38.265-.852.308-1.293.383.613.601 1.261 1.168 1.789 1.855-1.938.05-3.875.02-5.813.027-.164 0-.351.008-.457-.144-.605-.711-1.14-1.484-1.683-2.246-.563.75-.953 1.61-1.504 2.37-2.067.04-4.137.02-6.207.005 1.351-2.317 2.886-4.512 4.285-6.797" style="stroke:none;fill-rule:nonzero;fill:#c61c2e;fill-opacity:1"/></g><g clip-path="url(#e)"><path d="M107.543 39.094c.113-.254.394-.29.644-.278 1.91.024 3.82-.027 5.727.036-.98 1.601-1.992 3.183-2.992 4.773-.457.676-.836 1.406-1.332 2.055-2.086.011-4.172.027-6.254-.004 1.336-2.235 2.809-4.387 4.207-6.582" style="stroke:none;fill-rule:nonzero;fill:#c61c2e;fill-opacity:1"/></g><g clip-path="url(#f)"><path d="M115.715 39.215c.12-.176.25-.418.504-.387 1.668-.02 3.34-.004 5.008-.008.183.02.449-.027.546.176.504.813.977 1.652 1.52 2.441.574-.792 1.027-1.667 1.574-2.48.117-.18.375-.117.563-.14 1.636.019 3.277-.024 4.918.03-1.446 2.301-2.957 4.555-4.399 6.856-1.765-.02-3.531.004-5.297-.008-.609-.949-1.23-1.89-1.847-2.832-.586.969-1.235 1.903-1.868 2.844-1.71-.02-3.421-.012-5.132-.008.257-.613.66-1.144.988-1.719.957-1.597 1.96-3.167 2.922-4.765" style="stroke:none;fill-rule:nonzero;fill:#c61c2e;fill-opacity:1"/></g><g clip-path="url(#g)"><path d="M137.637 40.922c-.29.496-.563 1-.84 1.5-.305.582-.668 1.133-.91 1.746.539.016 1.148.113 1.613-.227.547-.355.785-.98 1.066-1.539.22-.422.559-.863.403-1.367-.422-.183-.887-.16-1.332-.113m-5.02-2.063c.82-.093 1.649-.007 2.469-.035 2.95.008 5.894-.008 8.848-.004.656.024 1.336.024 1.957.27.261.09.488.347.445.637-.055.312-.246.574-.402.84q-1.007 1.671-2.008 3.343c-.551 1.078-1.723 1.809-2.938 1.781-4.234.004-8.468.012-12.707-.02.336-.675.79-1.28 1.18-1.925 1.043-1.633 2.078-3.273 3.156-4.887" style="stroke:none;fill-rule:nonzero;fill:#c61c2e;fill-opacity:1"/></g><g clip-path="url(#h)"><path d="M148.91 39.34c.156-.23.32-.563.653-.52 1.972.016 3.94-.027 5.914.032-.43.851-.997 1.62-1.508 2.425-.79 1.305-1.649 2.57-2.453 3.868-.121.187-.25.363-.387.539-2.082.004-4.164.023-6.246-.012 1.281-2.149 2.73-4.192 4.027-6.332" style="stroke:none;fill-rule:nonzero;fill:#c61c2e;fill-opacity:1"/></g><g clip-path="url(#i)"><path d="M160.855 42.918c.575.02 1.153.043 1.73.008.395-.926.794-1.848 1.185-2.77-1.016.871-1.958 1.824-2.915 2.762m-1.726-3.898c.168-.16.402-.208.629-.204q3.614.005 7.234.004c.809.008 1.621-.023 2.43.035-.703 2.301-1.5 4.575-2.258 6.86-1.902-.004-3.809-.02-5.715-.012q.195-.503.36-1.012c-.91-.015-1.82-.05-2.73.008-.47.207-.724.688-1.126.985-1.773.023-3.555.011-5.328.007.34-.554.871-.949 1.309-1.425 1.73-1.75 3.472-3.489 5.195-5.246" style="stroke:none;fill-rule:nonzero;fill:#c61c2e;fill-opacity:1"/></g><path d="M61.465 3.824c.976-.613 1.937-1.254 2.969-1.77-1 .829-2.086 1.544-3.106 2.348-2.82 2.051-5.547 4.227-8.316 6.348A36.5 36.5 0 0 1 45.715 15c-.262.137-.543.004-.797-.078 1.289-1.04 2.75-1.844 4.078-2.836.426-.328.902-.586 1.344-.89 1.715-1.137 3.355-2.391 5.11-3.473.847-.535 1.57-1.254 2.437-1.766.613-.387 1.175-.855 1.8-1.223.36-.21.657-.527 1.063-.648.242-.066.496-.129.715-.262M65.82 8.355a51 51 0 0 0 2.266-.761c-.207.281-.566.347-.867.48-1.735.703-3.446 1.457-5.176 2.164-1.379.575-2.766 1.133-4.129 1.75a38.8 38.8 0 0 1-8.629 3.301c-1.152.274-2.308.563-3.488.68a26 26 0 0 1-.113-.531c3.027-1.649 6.234-2.989 9.586-3.81 1.761-.429 3.488-.983 5.214-1.526 1.786-.555 3.559-1.157 5.336-1.747M59.012 14.7c2.293-.102 4.582-.31 6.875-.454.097-.004.293-.016.394-.02-.136.235-.27.473-.457.672.008-.058.02-.168.024-.222-.942.066-1.86.289-2.79.433-1.917.344-3.851.63-5.765 1-3.711.754-7.523 1.082-11.305.782l.047-.528c.684-.277 1.41-.402 2.125-.562a45.4 45.4 0 0 1 8.535-.965c.774-.024 1.543-.102 2.317-.137M46.04 17.285c3.75-.07 7.519.215 11.187 1.04 1.773.327 3.535.75 5.332.937q.24.02.48.031c-.148.242-.297.484-.46.719-.2-.188-.497-.078-.74-.117-2.6-.215-5.214-.211-7.816-.403-1.82-.16-3.632-.449-5.41-.898-.91-.235-1.84-.446-2.699-.844q.063-.233.125-.465M45.809 18.227c2.46.425 4.828 1.257 7.183 2.066 1.192.418 2.324.977 3.465 1.52a46 46 0 0 0 3.86 1.687 5 5 0 0 1-.422.664l-.204-.066c-.828-.309-1.691-.489-2.539-.735-1.144-.328-2.308-.597-3.453-.93-2.824-.867-5.508-2.152-8.023-3.69q.063-.26.133-.516M45.059 19.496q.134-.216.273-.433c2.516 1.125 4.887 2.562 7.137 4.156.636.449 1.207.988 1.808 1.484 1.13.942 2.262 1.883 3.48 2.707a2.5 2.5 0 0 1-.448.64c-1.696-1.01-3.395-2.01-5.149-2.917-2.648-1.485-5.027-3.426-7.101-5.637M36.703 20.36c.637-.403 1.242-.852 1.899-1.22l.28.38c-1.339 1.289-2.784 2.46-4.269 3.574-1.707 1.285-3.64 2.215-5.48 3.281-2.516 1.418-4.903 3.035-7.371 4.523-.692.41-1.367.86-2.086 1.227.465-.437.996-.797 1.5-1.184 1.058-.789 2.094-1.613 3.164-2.386a49 49 0 0 0 1.613-1.235c.426-.343.922-.601 1.309-.992.258-.277.59-.46.922-.629 1.007-.515 1.949-1.144 2.91-1.738.722-.395 1.383-.883 2.078-1.324 1.195-.727 2.351-1.524 3.531-2.278M44.316 20.16c.079-.152.18-.293.278-.43 1.023.688 1.867 1.594 2.75 2.45 1.172 1.156 2.3 2.367 3.293 3.691 1.039 1.426 2.039 2.887 3.117 4.285.894 1.203 1.887 2.324 2.809 3.508h-.637c-.578-.77-1.328-1.394-1.992-2.09-1.13-1.101-2.184-2.285-3.395-3.304-2.207-1.973-4.043-4.332-5.55-6.872-.227-.41-.56-.777-.673-1.238M39.066 19.953c.223-.2.465.043.625.192-.273.539-.648 1.011-.972 1.511a36 36 0 0 1-2.57 3.418c-.528.606-1.036 1.235-1.641 1.766-1.278 1.226-2.512 2.496-3.809 3.7-1.297 1.386-2.652 2.71-3.957 4.085-.586.602-1.058 1.313-1.722 1.836 1.097-1.508 2.285-2.95 3.41-4.438 1.086-1.472 2.254-2.886 3.3-4.386.872-1.176 1.704-2.395 2.715-3.457 1.364-1.59 3-2.914 4.621-4.227M40.168 20.32l.535.13c-.793 3.277-2.219 6.37-3.953 9.25-1.023 1.706-1.957 3.468-2.914 5.21-.625 1.16-1.266 2.313-1.867 3.485-.25.5-.48 1.011-.809 1.472.613-1.719 1.34-3.398 1.996-5.101 1.016-2.536 1.992-5.086 2.977-7.633.625-1.73 1.59-3.309 2.582-4.848.469-.664.894-1.37 1.453-1.965M43.316 20.469c.188-.04.38-.078.567-.117.75 1.144 1.512 2.28 2.156 3.488a34 34 0 0 1 2.238 5.101 68 68 0 0 0 1.625 4.403c.067.168.137.34.203.508-.328-.028-.664.007-.984-.082-.223-.72-.691-1.329-1.012-2.004-.488-1.02-1.199-1.903-1.765-2.88-1.11-1.956-1.938-4.07-2.547-6.234-.2-.718-.402-1.441-.48-2.183M39.527 26.059c.364-1.832.926-3.622 1.621-5.352.207-.008.41-.02.618-.027a45 45 0 0 1-.223 4.734c-.152 1.414-.332 2.84-.738 4.211-.532 1.926-1 3.875-1.367 5.84a7 7 0 0 1-.778.305l.031-.196c.118-.636.114-1.285.172-1.926.188-2.53.125-5.093.664-7.59M42.184 20.691c.238 0 .476.008.714.012.176.746.399 1.48.594 2.223.422 1.676.781 3.37.969 5.09.25 2.082.098 4.187.383 6.265.117-.004.23-.008.347-.008-.394.16-.816.192-1.234.223-.012-.121-.027-.234-.039-.351-.07-.704-.277-1.38-.426-2.067-.215-.988-.617-1.926-.84-2.91-.668-2.773-.613-5.648-.468-8.477" style="stroke:none;fill-rule:nonzero;fill:#f08e12;fill-opacity:1"/></svg>