<svg xmlns="http://www.w3.org/2000/svg" width="158.72" height="79.627" viewBox="0 0 119.04 59.72"><defs><clipPath id="a"><path d="M0 11h119.04v48.719H0Zm0 0"/></clipPath></defs><path d="M45.363 30.55c1.532 0 2.278.75 2.278 3.766 0 8.395-2.649 11.207-4.88 11.207-1.406 0-2.152-1.12-2.484-2.152l-.406.203c.086-1.156 1.652-10.043 1.984-11.902.622-.371 3.055-1.121 3.508-1.121m-17.058-.655h.172c.66 0 3.136.707 3.136 1.242 0 .332-2.636 10.957-2.843 12.363-.082.535-2.48 1.273-4.301 1.273-.992 0-1.45-.496-1.45-2.437 0-2.688 1.72-12.297 5.286-12.441m31.351-.25c1.239 0 1.446.992 1.446 2.027 0 3.183-1.407 4.012-5.954 5.914.122-2.316 1.614-7.941 4.508-7.941m52.274-.739c-.207 0-.91.282-3.227.653-2.437.375-2.766.128-2.766.543 0 .332.204.328 1.32.328 1.571 0 1.731.086 1.731 1.285 0 3.598-3.093 14.383-3.093 14.879 0 .207.156.25.449.25.207 0 .46-.285 1.617-.492.91-.164 1.074-.09 1.156-.793.082-.743 1.363-7.727 2.356-12.274.082-.375 1.691-2.148 3.015-2.148 1.407 0 1.989.574 2.32 1.855l.66-.12c.333-.622.95-2.114.95-2.692 0-.125-.246-.367-.621-.7-.246-.203-.574-.335-1.524-.335-1.53 0-.992.296-4.464 2.777 0-.453.445-2.485.445-2.735 0-.164-.16-.28-.324-.28m-69.91 0c-.29 0-1.57.492-3.227.739-2.48.375-2.852.164-2.852.535 0 .496 2.766.004 2.766.87 0 5.044-3.887 25.962-3.887 27.122 0 .289.086.578.25.824 1.2-.328 2.364-.824 3.563-.945v-.328c-.293-.043-.59-.547-.59-1.993 0-1.117 1-7.394 1.328-9.628.582.414 1.246.742 1.7.742.62 0 3.093-.739 5.949-2.106 1.363-.66 3.843-6.328 3.843-12.324 0-2.687-.742-3.508-2.562-3.508-1.364 0-1.649.528-6.239 2.059 0-.66.208-1.531.208-1.82 0-.122-.043-.239-.25-.239m19.16-.25c-3.223 0-6.778 3.387-7.438 5-1.613 3.969-2.113 7.07-2.113 9.18 0 2.727 1.488 4.008 3.64 4.008 2.891 0 2.977-.782 7.731-3.758 0-.332.004-.5-.121-.5-.332 0-2.856 2.187-5.129 2.187-2.191 0-2.895-2.058-2.895-4.086 0-.703.047-1.453.172-2.195 2.11-.953 4.172-1.945 7.395-3.683.539-.29 1.406-2.645 1.406-4.008 0-1.406-.664-2.145-2.648-2.145m-26.746-.5c-.207 0-1.614.414-2.07 1.239-1.282 0-.915-.489-3.145-.489-1.739 0-5.54 2.43-6.242 3.88-3.059 6.284-3.18 8.972-3.18 11.41 0 2.234.45 2.648 1.273 2.648 2.07 0 5.34-1.653 7.614-2.399 0 .457-.122.907-.122 1.32 0 .829.286 1.079.743 1.079.453 0 .992.004 4.922-1.485.992-.37 1.449-.457 1.449-.707a.2.2 0 0 0-.207-.207c-.125 0-1.867.578-2.528.578-.66 0-.949-.453-.949-1.98 0-2.855 2.856-14.223 2.856-14.387 0-.207-.125-.5-.414-.5m60.16-4.715.086.086c-.54 3.926-1.66 11.493-1.743 11.989-.039.25-.203.328-2.765.328-1.945 0-2.527 0-2.527-.164 0-.207 4.84-7.61 6.949-12.239m10.031-2.062c-1.402 0-1.695 1.07-1.695 2.312 0 .579.289.91.828.91 1.281 0 1.98-1.074 1.98-2.23 0-.867-.16-.992-1.113-.992m-87.914-.914c-2.441 0-4.633.203-7.984 2.148-5.375 3.14-8.102 9.348-8.102 16.38 0 5.042 2.066 8.015 8.059 8.015 4.093 0 7.03-1.528 10.171-2.934l-.035-.746c-2.187.95-5.297 2.274-7.86 2.274-4.343 0-6.948-3.473-6.948-8.559 0-11.29 6.62-15.586 11.086-15.586 2.027 0 5.957 1.45 5.957 2.645 0 .168-.047.746-.13 1.82h.458c.578-3.348 1.11-2.852 1.11-3.594 0-.578-2.184-1.863-5.782-1.863m85.363-2.48c-.246 0-1.523.253-1.523.542 0 .414.414.371.414 1.239 0 .703-.91 1.113-2.649 1.113h-7.07c-11.738 0-16.996 6.82-16.996 11.328 0 1.488.543 2.523 1.578 2.523.95 0 1.895-.62 1.895-1.03 0-.665-1.067-1.657-1.067-3.641 0-3.68 4.79-8.352 15.54-8.352 2.07 0 2.234.164 2.234.414 0 .332-4.547 9.098-9.094 15.05-2.316 3.02-7.113 8.188-9.965 8.188-1.613 0-2.605-.379-3.02-1.828-.288-1.074-.41-1.36-.78-1.36-.294 0-2.114.704-2.114 1.45 0 1.941 1.281 3.387 3.266 3.387 5.25 0 9.632-5.043 14.015-10.086.871-.043 1.614-.086 3.27-.086 2.48 0 2.687.043 2.687.25 0 .453-1.164 7.977-1.164 8.887 0 .125.832 1.035 1.078 1.035.746 0 4.043-1.043 6.059-1.63.012 1.145.309 1.466 1.242 1.466.785 0 1.695-.371 3.598-1.157 2.355-.949 2.687-.992 2.687-1.242 0-.12-.039-.25-.164-.25-.164 0-1.695.75-2.687.75-1.117 0-1.45-.457-1.45-2.316 0-2.234 2.407-12.813 2.407-13.309 0-.293-.13-.414-.25-.414-.332 0-1.2.246-3.02.574-2.933.54-3.058.536-3.058.743s.12.25 1.406.25c1.527 0 1.687.246 1.687 1.32 0 1.363-2.004 10.734-2.343 13.05-.57.063-1.157.102-1.813.102-1.652 0-1.816-.297-1.816-3.23 0-5.043 1.36-13.309 2.515-20.008 2.688 0 5.086-1.281 5.086-2.602 0-.828-.25-1.12-.62-1.12" style="stroke:none;fill-rule:nonzero;fill:#2e4ba5;fill-opacity:1"/><g clip-path="url(#a)"><path d="M453.633 291.692c15.312 0 22.773-7.5 22.773-37.656 0-83.945-26.484-112.07-48.789-112.07-14.062 0-21.523 11.21-24.844 21.523l-4.062-2.031c.86 11.562 16.523 100.43 19.844 119.023 6.21 3.711 30.547 11.211 35.078 11.211Zm-170.586 6.563h1.719c6.601 0 31.367-7.07 31.367-12.422 0-3.32-26.367-109.57-28.438-123.633-.82-5.352-24.804-12.734-43.007-12.734-9.922 0-14.493 4.96-14.493 24.375 0 26.875 17.188 122.968 52.852 124.414Zm313.516 2.5c12.382 0 14.453-9.922 14.453-20.274 0-31.836-14.063-40.117-59.532-59.14 1.211 23.164 16.133 79.414 45.078 79.414Zm522.734 7.382c-2.07 0-9.102-2.812-32.266-6.523-24.375-3.75-27.656-1.289-27.656-5.43 0-3.32 2.031-3.28 13.203-3.28 15.703 0 17.305-.86 17.305-12.852 0-35.977-30.938-143.829-30.938-148.79 0-2.07 1.563-2.5 4.493-2.5 2.07 0 4.609 2.852 16.171 4.922 9.102 1.641 10.743.899 11.563 7.93.82 7.422 13.633 77.266 23.555 122.734.82 3.75 16.914 21.485 30.156 21.485 14.062 0 19.883-5.742 23.203-18.555l6.601 1.211c3.32 6.211 9.493 21.133 9.493 26.914 0 1.25-2.461 3.672-6.211 6.992-2.461 2.032-5.742 3.36-15.235 3.36-15.312 0-9.921-2.97-44.648-27.774 0 4.531 4.453 24.844 4.453 27.344 0 1.64-1.601 2.813-3.242 2.813Zm-699.102 0c-2.89 0-15.703-4.921-32.265-7.382-24.805-3.75-28.516-1.64-28.516-5.352 0-4.96 27.656-.039 27.656-8.71 0-50.43-38.867-259.61-38.867-271.212 0-2.89.86-5.781 2.5-8.242 11.992 3.281 23.633 8.242 35.625 9.453v3.281c-2.93.43-5.898 5.47-5.898 19.922 0 11.172 10 73.946 13.28 96.29 5.821-4.141 12.462-7.423 16.993-7.423 6.211 0 30.938 7.383 59.492 21.055 13.633 6.602 38.438 63.281 38.438 123.242 0 26.875-7.422 35.078-25.625 35.078-13.633 0-16.485-5.273-62.383-20.585 0 6.601 2.07 15.312 2.07 18.203 0 1.21-.43 2.382-2.5 2.382Zm191.602 2.5c-32.227 0-67.774-33.867-74.375-50-16.133-39.687-21.133-70.703-21.133-91.796 0-27.266 14.883-40.079 36.406-40.079 28.907 0 29.766 7.813 77.305 37.579 0 3.32.04 5-1.21 5-3.321 0-28.556-21.875-51.29-21.875-21.914 0-28.945 20.586-28.945 40.859 0 7.031.468 14.531 1.718 21.953 21.094 9.531 41.72 19.453 73.946 36.836 5.39 2.89 14.062 26.445 14.062 40.078 0 14.063-6.64 21.445-26.484 21.445Zm-267.461 5c-2.07 0-16.133-4.14-20.703-12.382-12.813 0-9.14 4.882-31.445 4.882-17.383 0-55.391-24.296-62.422-38.789-30.586-62.851-31.797-89.726-31.797-114.101 0-22.344 4.492-26.485 12.734-26.485 20.703 0 53.399 16.524 76.133 23.985 0-4.57-1.211-9.063-1.211-13.203 0-8.282 2.852-10.782 7.422-10.782 4.531 0 9.922-.039 49.219 14.844 9.921 3.711 14.492 4.57 14.492 7.07 0 1.212-.86 2.07-2.07 2.07-1.25 0-18.672-5.78-25.274-5.78-6.601 0-9.492 4.53-9.492 19.804 0 28.555 28.555 142.227 28.555 143.867 0 2.07-1.25 5-4.141 5Zm601.602 47.149.859-.86c-5.39-39.257-16.602-114.921-17.422-119.882-.39-2.5-2.031-3.282-27.656-3.282-19.453 0-25.274 0-25.274 1.641 0 2.07 48.399 76.094 69.492 122.383Zm100.312 20.625c-14.023 0-16.953-10.703-16.953-23.125 0-5.781 2.89-9.102 8.281-9.102 12.813 0 19.805 10.743 19.805 22.305 0 8.672-1.602 9.922-11.133 9.922Zm-879.14 9.14c-24.415 0-46.329-2.03-79.844-21.484C33.516 339.661 6.25 277.591 6.25 207.278c0-50.43 20.664-80.156 80.586-80.156 40.937 0 70.312 15.273 101.719 29.336l-.352 7.46c-21.875-9.491-52.969-22.734-78.594-22.734-43.437 0-69.492 34.727-69.492 85.586 0 112.89 66.211 155.86 110.86 155.86 20.273 0 59.57-14.493 59.57-26.446 0-1.68-.469-7.46-1.29-18.203h4.571c5.781 33.477 11.094 28.516 11.094 35.938 0 5.781-21.836 18.633-57.813 18.633Zm853.632 24.805c-2.46 0-15.234-2.539-15.234-5.43 0-4.14 4.14-3.71 4.14-12.382 0-7.031-9.101-11.133-26.484-11.133h-70.703c-117.383 0-169.961-68.203-169.961-113.281 0-14.883 5.43-25.235 15.781-25.235 9.492 0 18.946 6.211 18.946 10.313 0 6.64-10.664 16.562-10.664 36.406 0 36.797 47.89 83.516 155.39 83.516 20.703 0 22.344-1.64 22.344-4.14 0-3.321-45.469-90.978-90.938-150.509-23.164-30.195-71.132-81.875-99.648-81.875-16.133 0-26.055 3.79-30.195 18.281-2.891 10.743-4.102 13.594-7.813 13.594-2.93 0-21.133-7.031-21.133-14.492 0-19.414 12.813-33.867 32.657-33.867 52.5 0 96.328 50.43 140.156 100.86 8.71.429 16.133.859 32.695.859 24.805 0 26.875-.43 26.875-2.5 0-4.532-11.64-79.766-11.64-88.868 0-1.25 8.32-10.351 10.78-10.351 7.462 0 40.43 10.43 60.587 16.289.117-11.445 3.086-14.649 12.422-14.649 7.851 0 16.953 3.711 35.976 11.563 23.555 9.492 26.875 9.922 26.875 12.422 0 1.21-.39 2.5-1.64 2.5-1.641 0-16.954-7.5-26.876-7.5-11.171 0-14.492 4.57-14.492 23.164 0 22.344 24.063 128.125 24.063 133.086 0 2.93-1.29 4.14-2.5 4.14-3.32 0-11.992-2.46-30.196-5.742-29.335-5.39-30.585-5.351-30.585-7.422s1.21-2.5 14.062-2.5c15.274 0 16.875-2.46 16.875-13.203 0-13.632-20.039-107.343-23.437-130.507-5.704-.626-11.563-1.016-18.125-1.016-16.524 0-18.164 2.969-18.164 32.305 0 50.43 13.593 133.086 25.156 200.078 26.875 0 50.86 12.812 50.86 26.015 0 8.282-2.5 11.211-6.212 11.211Zm0 0" style="fill:none;stroke-width:12.5;stroke-linecap:butt;stroke-linejoin:miter;stroke:#2e4ba5;stroke-opacity:1;stroke-miterlimit:3.8637" transform="matrix(.1 0 0 -.1 0 59.72)"/></g><path d="M46.79.176c.16.105.335.265.519.367.21.137.363.3.586.5.539.375 1.136.812 1.652 1.273.555.372.937.825 1.52 1.176 1.23.856 2.269 1.899 3.273 3.012.347.426.855.715 1.238 1.176.125.03.152.222.262.324.328.422.574.867.715 1.39.039.145.101.293.152.43.078.387.27.715.371 1.086.367.836.606 1.727 1.192 2.473.398.762 1.097 1.406 1.71 2.02.04.077.04.132-.023.19-.059.079-.215.016-.215.157-.082.063-.176.305-.32.215-.063.16-.324.105-.309.308-.07.059-.199.122-.191.239.023.074.129.043.191.082.047-.098.078-.262.215-.262.04.07.133.063.176.047.016-.145.172-.137.285-.129.137.027.102-.254.262-.156.054.078.129.199.238.199.07-.027.047-.113.016-.152-.07-.086-.16-.13-.168-.215.082.008.183-.008.168-.114-.024-.07.093-.046.113-.015.062.066.031.351.191.215.008-.063.055-.11.133-.086.137.144.223-.094.348-.117 0-.106.176-.036.129-.168-.145-.055-.422.214-.453-.082.09-.063.191.035.238-.094-.055-.117.062-.23.191-.145.078.043.047-.11.024-.133-.024-.03-.047-.082-.024-.113.032-.008.094-.062.153-.039-.008.024.015.055.047.04.054.015.093-.016.109-.063-.07 0-.047-.078-.024-.11.024-.015.024-.035.024-.066.137-.078.137.223.238.066.2-.015.113.254.262.215.035.07.059-.027.105.024.04-.032.016-.082.024-.13-.106-.062-.094-.167-.2-.175-.023-.078.16.074.106-.086-.074-.102-.168.102-.273 0-.024-.04-.094-.055-.07-.105.167.09.128-.293.261-.063.082.031.113.137.238.121.043-.008.075-.047.106-.082-.024-.031-.043-.086-.024-.11-.09-.023-.191.009-.273-.062-.031-.144.105-.215.215-.238.281-.207.636-.254.996-.281.14.058.293.152.453.082.5-.23.895-.551 1.39-.782.102 0 .22 0 .262.09-.043.102-.144.2-.199.278-.254.238-.574.422-.89.57-.11.16-.293.367-.407.559-.23.398-.41.847-.61 1.214-.05.422-.327.746-.343 1.176-.031.047-.023.113-.094.153a.65.65 0 0 1-.058.347c-.18 1.227.71 2.051 1.258 2.973.722.86 1.59 1.805 2.558 2.488-.062.008.254.262.54.356.859.843 1.644 1.613 2.28 2.582.122.289.176.597.407.843.008.016-.008.032-.016.04.508.644.754 1.39 1.121 2.081.094.508.418.977.57 1.477.126.215.184.469.325.652.113.286.297.559.343.844.223.238.184.625.372.89.128.419.168.864.39 1.239.086.27.008.61.153.848a.16.16 0 0 0-.024.105c.055.04.031.223.07.285-.046.399.079 1.02.063 1.43.047.129-.125.082-.168.066-.023-.289-.246-.488-.262-.78-.062-.079-.164-.11-.133-.216.04-.015.07-.054.11-.093-.016-.13-.133-.207-.2-.344-.199-.024.024-.348-.171-.395-.23-.168-.246-.406-.344-.644-.207-.094.039-.332-.133-.461.07.16-.144.383.024.484-.059.278.183.469.039.754.046.098.175.223.07.328.047.047.09.117.039.172-.055.113-.195.098-.3.129.023-.055-.106-.055-.048-.129.016-.101-.113-.078-.129-.172-.101-.176.032-.484-.191-.566-.031-.078-.023-.172-.023-.262-.133.008-.196-.07-.262-.168.016-.086-.078-.062-.047-.156.121-.008.2-.137.309-.168-.11-.309-.223-.606-.262-.938-.07-.125-.04-.277-.133-.39-.246.265.023.62-.059.937-.015.254.145.543-.07.774-.015.015-.031.031-.039.047-.062.254.262.668-.129.738-.07-.184-.133-.383-.203-.547-.043-.2-.152-.39-.281-.535-.11.137-.246-.031-.371-.07-.008-.176-.223-.254-.254-.43-.113-.164-.313-.262-.223-.477.063-.047.238.016.18-.133-.047-.144.265-.05.129-.238-.078-.027-.04-.113-.086-.152.031-.3-.067-.578 0-.867-.082-.055-.098-.133-.09-.215.121-.016.047-.149.066-.215-.05-.016-.144-.055-.105-.133-.047-.09.094-.105 0-.176-.094-.109.086-.214-.024-.3-.054-.153.192-.239.04-.368-.118.114-.223.329-.149.493.156.023-.02.183 0 .28-.05.032.024.134-.066.134-.055.175.023.43-.063.566-.12.055.192-.066 0 .324-.078.192-.047.446-.023.653-.098.007.144-.082-.024.191-.039.016-.152.156-.129.195-.062.075-.117.051-.191.024-.016-.219-.23-.348-.238-.563.082-.086.414-.023.261-.261-.171-.079.051-.278-.117-.368.016-.039-.031-.14.047-.109q.036-.023 0-.047h-.047c.016-.152-.031-.43.047-.535-.078-.055-.117-.164-.133-.262.18-.101-.12-.379.133-.37-.101-.192.184-.247.082-.438-.097-.047-.144-.153-.144-.262.183.016.109-.191.132-.297-.132-.055 0-.23-.132-.262-.246.215.07.575-.2.758.016.156-.144.238-.086.41-.058.075-.152.16-.082.262-.023.035.047.09.016.152-.164.094-.031.301-.195.391-.051.133-.098.469-.059.477.067.16-.07.253-.18.347-.043.008-.066.067-.128.043-.047-.035-.047-.09-.063-.152.14-.04.2-.278.148-.285a.32.32 0 0 1 .13-.32c.07-.317-.223-.618 0-.872.07-.273-.247-.613.109-.781.113-.086.074-.277.176-.383-.176-.054.023-.426-.192-.285a.36.36 0 0 1-.117.32.65.65 0 0 1-.063.371c-.05-.015-.09.024-.105.067-.016.3-.324.402-.238.762.039.086-.07.054-.07.125-.13.222.214.312 0 .5.015.082-.051.136-.06.222-.148.059-.163-.18-.237-.261.011-.086-.04-.157.035-.18.101-.121 0-.328.093-.453-.07-.082-.136-.16-.109-.282.023-.062.14-.109.04-.171-.04-.032-.048-.067-.04-.114.031.016.04-.023.063-.039.015-.183.046-.238.175-.347.207.015.024-.297.239-.282.14-.054.015-.164.023-.238-.144-.078.191-.355-.09-.394-.133.078-.101.293-.11.453-.023.101-.128-.008-.151.093.058.176-.079.262-.192.348-.254.008.043.328-.18.406-.05.024-.097.09-.144.13-.063.155.137.452-.094.417-.105-.11-.082-.254-.191-.347-.016-.07.015-.118.062-.153-.023-.11-.054-.308.117-.324.043-.086-.101-.094-.046-.176-.055-.039-.118.024-.157.07-.015.098-.015.208-.105.274-.094.047-.094-.066-.133-.106-.09-.183.11-.421-.152-.523.062-.102.175-.16.129-.324-.02-.035-.067-.016-.106-.024-.11.063-.086.278-.238.286-.14-.047-.168-.153-.238-.262.03-.098.19-.059.19-.192.095-.054.247-.062.263-.199-.032-.344.453-.36.367-.738.039-.04.156-.031.11-.129-.095.055-.376-.031-.348.2a1.1 1.1 0 0 0-.215.39c-.16.078-.207.176-.367.3.007.07 0 .137-.063.176-.098 0-.184-.039-.285-.023-.106-.121-.305-.313-.043-.39.297.038.098-.368.344-.415.101.008.101-.078.175-.133.016-.05-.02-.09-.066-.105-.176-.055-.133.168-.324.09-.055.223-.223.316-.285.515-.153.118-.262-.046-.43-.082-.074.02-.176-.023-.238-.109-.008-.047 0-.086.047-.11.046-.007.109.016.144-.019.016-.125-.207-.023-.262-.086-.05.016-.09.094-.168.063-.093-.11.207-.239-.023-.301.117-.078.016-.176.11-.238-.032-.047-.087-.016-.133-.024-.09.078-.145.278-.282.238.035-.105-.093-.093-.125-.152-.183.09-.222-.172-.414-.11.016-.19-.492-.238-.215-.366.106-.055.055-.215.13-.309-.083-.062-.071.094-.153.094-.137.074-.27-.04-.348-.133-.09-.055-.027-.176-.105-.238-.11.062-.207.062-.309 0-.062-.067-.183-.137-.105-.239.09-.12.246-.113.367-.175-.113-.317-.262.152-.438-.063-.07.07-.168.14-.253.11-.13-.086-.247-.169-.2-.333.032-.039.114.016.106-.058-.09-.031-.207.02-.297-.047-.094-.07-.164-.164-.133-.277-.176-.133-.406-.168-.46-.414-.032-.047-.106 0-.145-.047-.184-.11.12-.547-.286-.43-.054-.031-.128-.086-.128-.156.046-.035-.047-.067-.063-.106-.125-.039-.176-.14-.238-.215-.102-.253-.477-.37-.461-.652-.192.027-.121-.23-.324-.18-.153-.113-.11-.132-.176-.238-.04-.098.008-.265-.145-.273-.156-.22-.414-.285-.547-.547-.207.129-.398.316-.347.605-.098.094-.008.54.023.547-.105.223.024.461-.113.668a.76.76 0 0 1-.063.39c.118.317-.222.595-.046.93-.036.094.015.293-.13.356-.199-.125-.363.055-.562-.07a.34.34 0 0 1-.238.132c-.145-.132-.121-.433-.438-.347-.023.07-.129.168-.191.062-.086.07-.16-.031-.262 0-.066-.101-.105-.324-.261-.133-.06-.02-.075.07-.13.07-.109-.253-.515-.015-.476-.39-.078-.07-.031-.183-.039-.285.04-.04.14-.04.133-.129-.086-.07-.149.043-.227.043.008.094-.074.164-.168.133-.09-.016-.16-.102-.261-.133.007-.113-.09-.105-.153-.043.008.074-.12.082-.176.043-.039-.016-.07-.05-.109-.082.086-.133-.144-.176-.082-.309-.234-.078-.492-.093-.691-.238-.141.117-.157-.098-.239-.129-.015-.133.16-.062.145-.195-.102-.082-.125-.16-.254-.215-.145.04-.238.023-.352-.066.012-.125-.046-.18.043-.301-.191-.102.118-.3-.105-.356-.008-.09-.063-.222-.176-.144-.086.015-.18-.008-.172-.129-.113-.191.117-.3.04-.5.07-.125.3-.102.331-.2.024-.132.176-.07.239-.171-.07-.043-.164-.09-.239-.043-.164.074-.308.246-.476.082-.102-.137-.239-.207-.239-.383.106-.023.168-.125.215-.223-.03-.023-.047-.054-.093-.039-.008.063-.055.153-.121.086.03-.109-.094-.086-.118-.18.094-.136.078-.312.223-.429-.063-.082-.16-.176-.09-.285.055-.098.067-.23.152-.297-.023-.125.016-.254.176-.262.246-.125.5-.015.739-.176.167-.078.238.207.39.043.156.118.254-.097.324.157.11-.07.239-.164.391-.157.055.07.047.211.172.22.008-.063.058-.11.129-.087.047.047.054.13.129.153.015-.047-.028-.262.11-.153.054.301.468-.246.284.215-.023.023-.054.047-.047.086.016.043.063.016.094.023.059-.363.496-.109.496-.5.211-.03.23-.253.371-.37-.008-.137-.175-.239-.117-.407-.375-.176-.543-.523-.644-.914-.254-.191-.63-.285-.606-.652 0-.18-.16-.34-.285-.43-.078-.125-.246-.238-.309-.348.078-.062-.039-.093-.015-.152.015-.14-.008-.34-.2-.348-.16-.007-.015-.3-.238-.308a.19.19 0 0 1-.082-.258c.074-.031.031-.125.024-.172-.078-.043-.235.008-.239-.105.028-.168.035-.301-.07-.438-.07-.016-.184.043-.191-.062-.141-.184.375-.422-.07-.368-.032-.07-.118-.039-.13-.109-.171-.238.235-.3.067-.484-.09.03-.192.152-.285.047-.075-.086-.028-.278-.082-.372.27-.027.136-.335.406-.367.031-.039.086-.062.094-.11-.27-.12-.278.31-.5.31-.032.039-.086.007-.133.015-.082-.07-.106-.2-.067-.3.153-.024.239-.216.368-.282q.215-.107.261-.324c-.191-.2-.34.207-.562.191-.059.063-.145.078-.215.11-.105-.094.008-.192.039-.278.117.047.07-.093.11-.133.128-.238.613-.12.519-.52-.074-.046-.191-.116-.258 0-.133.153-.308.29-.516.298-.054-.051-.156-.035-.175-.106-.032-.148.144-.168.21-.261.212-.024.356-.293.587-.301.039-.098-.047-.168-.13-.106-.187.168-.476.082-.667.239-.086.007-.14-.063-.219-.07-.035-.094-.035-.262.086-.278a.26.26 0 0 0 .215-.07c.023-.059-.098-.274.07-.192 0 .047.055.07.082.11.149.054.195-.125.262-.2-.008-.046.062-.117-.024-.148-.246.031-.437.191-.691.191-.098-.058 0-.16 0-.234.148-.055.27-.086.371-.195.066-.024.145.07.191-.024-.007-.05 0-.12.07-.129.075.008.153.079.24.024.065-.117-.024-.145-.095-.2l-.086-.085c-.382 0-.726.308-1.105.132-.055-.132.094-.085.133-.156.113-.105.336.094.43-.129.152.09.238-.191.351 0 .133-.015.191-.054.324-.062.13-.145.285-.238.324-.461-.203-.008-.418-.168-.609-.016-.152-.054-.223.094-.367.063-.156.176-.395.152-.633.152-.031-.039-.098-.082-.039-.129.164-.133.434 0 .562-.215.141-.195.653.168.524-.261-.277-.047-.629-.176-.89 0-.157.007-.356-.086-.477.039-.14-.11-.387.113-.453-.125-.086-.2.129-.2.214-.285.184.109.336-.016.52.023.039-.031.047-.066.039-.105-.312-.247-.758-.094-1.105-.133.015-.176-.262-.082-.192-.262.11-.008.23-.098.324 0 .2-.027.352.047.543.023.149.079.27.016.414.11.38-.133-.015.312.325.277.285-.086.492.067.785.09.031-.129.168-.031.254-.047-.063-.082.136-.328-.04-.281-.078.023-.117.137-.199.129-.039-.055-.007-.137-.086-.168-.085-.008-.078.078-.152.105-.086.008-.14-.058-.215-.066-.18-.207.352-.2.043-.371 0-.215-.484.008-.367-.344.086-.176.438.098.3-.238-.179-.246-.444-.07-.69-.157-.047-.105-.262-.043-.325-.144-.078-.137-.176-.008-.261-.113-.114.113-.262-.032-.368 0-.164-.211-.523-.024-.699-.239-.262-.148-.531-.07-.824-.148-.031-.082-.152-.129-.106-.238.082-.063.23.007.344.015.2.063.43-.047.586.176.313.055.66.04.938.195.27-.23.46.25.773.176.117.074.277.031.418.047.035-.039.016-.11.023-.156-.203-.254-.586-.254-.847-.453-.2-.024-.39-.04-.543-.153-.125-.062-.278-.062-.41-.093-.106-.13-.313.093-.352-.106-.207.016-.332-.047-.476-.191-.157-.032-.286-.11-.454-.11-.093.047-.199.04-.308.063q-.002-.093-.086-.149c-.336 0-.215-.382-.39-.543.062-.14.124 0 .198 0 .094.122.317.016.41.176.09 0 .137.121.22.145.187.093.417.093.585.238.239.055.461.125.653.285.117-.16.246.031.386 0 .243.137.551.152.758.324.117-.054.41.121.395-.062-.063-.063-.04-.223-.18-.192-.152-.261-.52-.101-.621-.394-.2.07-.328-.16-.547-.106-.059-.093-.184-.015-.258-.07-.164-.262-.5-.137-.633-.43-.253.07-.343-.316-.582-.093-.175-.043-.324-.176-.546-.13-.086.063-.086.216-.215.2-.063-.031-.047-.16-.153-.152-.023-.246-.27-.356-.386-.547.023-.047.078-.024.109-.063.191.047.559-.105.668.133.184.055.3.207.5.152.121.086.3.094.414.149.168.137.344.082.523.223.06-.024.145-.079.215-.024.086.129.239.09.325.215.175.074.375.09.52.238.155-.039.214.145.37.176.168.008.29.176.477.086-.18-.172-.364-.469-.692-.418-.11-.02-.054-.2-.203-.168-.129-.078-.281-.336-.472-.309-.442.157-.547-.535-1-.343-.208-.153-.34-.39-.649-.39-.168-.317-.605-.056-.719-.395-.277.03-.238-.274-.476-.344.015-.149-.203-.14-.156-.301-.051-.031-.04-.086-.04-.129.055-.023.086-.055.157-.023.078.09.316-.157.324.082.105.03.23.101.258.222.164.032.293.211.453.172a.5.5 0 0 0 .308 0c-.199-.156-.398-.402-.652-.453-.07-.039-.2-.101-.191-.156-.102-.113-.317-.16-.356-.32-.215-.188-.312-.477-.558-.653.043-.117-.196-.277.043-.308.101.015.164-.016.238 0-.223-.16-.242-.43-.477-.516-.12-.055-.035-.254-.152-.309.008-.058-.04-.238.11-.238.144.063.374 0 .43.18" style="stroke:none;fill-rule:nonzero;fill:#fff;fill-opacity:1"/><path d="M49.895 7.219c.007.047 0 .086-.047.11-.223.07-.418-.224-.61 0A.4.4 0 0 1 49 7.202c-.05-.246.176-.066.285-.152.192-.024.399-.086.5.133.047-.008.055.066.11.035M51.129 7.375c.062.074-.031.137-.086.2-.113-.063-.32.112-.39-.071-.075.078-.122-.055-.192-.047-.117 0-.238.016-.328-.039-.04-.012-.02-.09-.024-.129.176-.023.375.031.567.04.047-.048.047-.145.156-.11a.37.37 0 0 0 .297.156M62.54 14.95c-.099 0-.153-.09-.192-.153.054-.184.07.082.168.039-.008.043.093.066.023.113M58.742 16.902c-.09-.101-.144.09-.234 0 .074-.125.328-.015.32-.222.016.09-.008.168-.086.222M58.422 17.203c-.063-.008-.063-.117-.094-.172.047 0 .086-.008.117-.047-.008.078.098.172-.023.22" style="stroke:none;fill-rule:nonzero;fill:#fff;fill-opacity:1"/><path d="M46.664.207c.164.11.34.27.523.367.208.14.36.301.583.5.539.375 1.136.813 1.652 1.274.55.37.937.824 1.52 1.175 1.226.852 2.265 1.899 3.269 3.012.348.422.855.715 1.238 1.172.121.031.153.223.262.324.328.422.574.867.71 1.39.04.145.102.294.157.43.078.383.27.715.367 1.083.371.836.606 1.726 1.192 2.472.398.762 1.097 1.406 1.71 2.02.04.078.04.129-.023.191-.058.078-.215.016-.215.153-.082.062-.175.308-.32.214-.062.164-.324.11-.309.309-.07.062-.199.125-.19.238.023.078.128.047.19.086.047-.101.079-.262.215-.262.04.07.133.063.176.047.016-.148.172-.14.285-.132.137.03.102-.254.262-.153.055.078.129.2.238.2.067-.032.047-.114.016-.153-.07-.086-.16-.133-.168-.215.082.008.184-.008.168-.117-.024-.07.09-.047.113-.016.063.07.031.356.192.215.007-.058.054-.105.132-.082.137.145.223-.094.344-.117 0-.105.18-.039.133-.168-.148-.055-.422.215-.453-.086.09-.058.191.04.238-.09-.055-.117.059-.23.191-.148.075.047.047-.106.024-.13-.023-.03-.047-.085-.023-.116.03-.008.09-.059.152-.035-.008.023.015.05.047.035.054.015.09-.012.105-.059-.066 0-.043-.078-.023-.11.023-.015.023-.038.023-.07.14-.074.14.227.238.07.2-.015.118.255.262.216.04.07.063-.032.11.023.039-.031.015-.082.023-.129-.11-.062-.094-.172-.203-.18-.02-.074.164.079.11-.082-.079-.101-.169.098-.278 0-.024-.039-.09-.054-.066-.109.167.094.128-.289.257-.059.086.032.117.137.239.122.046-.008.078-.047.109-.086-.023-.028-.047-.082-.023-.106-.094-.023-.192.008-.278-.062-.031-.145.11-.215.215-.239.285-.207.637-.254 1-.28.137.058.29.151.453.081.496-.23.89-.55 1.387-.781.101 0 .219 0 .262.09-.043.101-.145.199-.2.277-.254.238-.574.422-.89.57-.106.16-.293.368-.406.559-.231.398-.407.844-.606 1.215-.055.422-.332.742-.348 1.172-.03.047-.023.117-.09.156a.6.6 0 0 1-.062.344c-.176 1.23.715 2.05 1.258 2.972.722.86 1.59 1.805 2.558 2.489-.062.007.254.257.536.351.863.844 1.644 1.613 2.28 2.582.126.29.18.598.407.844.012.016-.008.031-.012.04.504.644.75 1.386 1.118 2.077.093.508.418.977.57 1.477.121.215.183.468.324.652.113.285.297.559.344.844.222.238.183.62.367.89.133.415.172.86.395 1.239.082.265.007.605.152.843-.016.032-.031.067-.024.106.055.039.032.223.07.285-.046.399.075 1.02.06 1.43.046.129-.122.082-.169.066-.023-.289-.246-.492-.261-.781-.059-.078-.16-.11-.13-.215.04-.016.071-.055.106-.094-.011-.129-.129-.207-.199-.343-.2-.024.023-.348-.168-.395-.23-.168-.246-.406-.344-.644-.207-.09.035-.329-.132-.461.07.164-.145.386.023.484-.059.277.184.469.039.754.047.098.176.223.07.328.043.047.09.117.035.172-.05.113-.19.098-.296.129.023-.055-.11-.055-.047-.13.015-.1-.114-.077-.13-.171-.1-.176.028-.48-.19-.566-.032-.078-.024-.168-.024-.262-.133.008-.195-.07-.262-.168.016-.086-.078-.063-.047-.152.121-.008.2-.141.309-.172-.11-.305-.223-.606-.262-.938-.07-.12-.039-.273-.133-.39-.242.27.024.62-.058.937-.016.254.144.547-.07.777q-.026.022-.04.043c-.062.254.262.668-.128.739-.07-.184-.133-.383-.2-.543a1.26 1.26 0 0 0-.285-.54c-.11.137-.246-.03-.37-.07-.009-.175-.22-.254-.25-.43-.118-.16-.317-.261-.224-.476.059-.047.239.016.176-.129-.047-.144.27-.054.13-.238-.075-.031-.04-.117-.083-.152.031-.301-.07-.579 0-.872-.086-.05-.101-.128-.094-.214.125-.012.047-.145.07-.215-.054-.016-.148-.051-.109-.13-.047-.093.094-.108 0-.175-.09-.11.086-.215-.023-.3-.05-.153.191-.239.039-.368-.113.113-.223.328-.145.492.153.02-.023.184 0 .282-.054.03.024.132-.07.132-.055.176.023.43-.062.567-.122.054.191-.07 0 .324-.075.191-.043.445-.02.652-.102.008.145-.086-.023.192-.04.015-.157.152-.133.191-.063.078-.114.055-.192.024-.015-.215-.23-.344-.238-.559.086-.086.414-.023.262-.262-.168-.078.055-.277-.113-.37.011-.04-.032-.138.043-.106q.034-.024 0-.047h-.043c.011-.152-.032-.43.043-.54-.075-.05-.114-.16-.13-.257.176-.102-.124-.379.13-.371-.098-.192.183-.246.085-.438-.101-.047-.144-.152-.144-.261.183.015.105-.192.129-.297-.13-.055 0-.23-.13-.262-.245.215.067.574-.202.758.015.156-.145.238-.082.41-.063.074-.153.16-.086.258-.024.039.047.094.015.156-.16.09-.03.297-.191.39-.055.13-.102.47-.062.477.07.16-.067.254-.176.344-.047.008-.07.07-.13.047-.046-.04-.046-.09-.062-.152.137-.04.2-.278.145-.286a.31.31 0 0 1 .133-.32c.066-.316-.223-.617 0-.871.066-.273-.246-.613.105-.781.117-.086.078-.278.176-.383-.176-.055.023-.422-.191-.285a.37.37 0 0 1-.114.32.65.65 0 0 1-.062.371c-.055-.015-.094.024-.11.07-.011.297-.32.399-.234.758.035.086-.07.055-.07.125-.133.223.215.313 0 .496.015.086-.055.141-.063.223-.144.063-.16-.176-.238-.258.016-.086-.04-.156.039-.18.102-.12 0-.328.094-.453-.07-.082-.14-.16-.11-.28.024-.063.137-.11.04-.173-.04-.03-.047-.066-.04-.113.032.016.04-.023.063-.039.015-.184.047-.238.176-.344.207.016.023-.3.238-.285.137-.055.016-.16.023-.238-.144-.078.192-.352-.093-.39-.13.073-.098.288-.106.452-.023.098-.133-.008-.156.09.062.176-.074.262-.192.348-.253.008.047.328-.175.406-.055.023-.098.09-.145.129-.062.156.137.453-.094.414-.105-.105-.082-.25-.191-.344-.016-.07.016-.117.063-.152-.024-.11-.055-.309.113-.324.047-.086-.098-.09-.047-.176-.05-.04-.113.023-.152.07-.016.098-.016.207-.106.274-.094.047-.094-.067-.133-.106-.09-.183.11-.422-.152-.523.062-.098.176-.16.129-.32-.024-.04-.067-.016-.106-.024-.109.059-.086.273-.238.281-.14-.043-.168-.152-.238-.258.031-.101.191-.062.191-.195.094-.05.246-.058.262-.2-.031-.343.453-.358.367-.733.04-.04.156-.032.11-.133-.094.054-.38-.032-.348.199a1.1 1.1 0 0 0-.215.394c-.16.075-.207.176-.367.297.008.07 0 .141-.063.176-.097 0-.183-.035-.285-.02-.105-.124-.305-.316-.043-.394.297.04.098-.367.344-.414.102.008.102-.074.176-.129.015-.055-.024-.094-.067-.11-.18-.054-.132.169-.324.094-.055.223-.223.313-.285.516-.152.113-.258-.047-.43-.086-.074.024-.176-.023-.238-.11-.008-.042 0-.081.047-.105.047-.008.11.016.144-.023.016-.121-.207-.024-.257-.086-.055.016-.094.094-.172.062-.09-.105.21-.238-.024-.3.117-.075.016-.176.11-.239-.032-.043-.086-.011-.13-.02-.093.075-.148.274-.284.24.039-.11-.094-.095-.125-.157-.184.094-.223-.168-.414-.106.015-.191-.489-.238-.215-.37.109-.051.054-.216.132-.305-.085-.063-.07.09-.156.09-.136.078-.27-.04-.344-.13-.093-.054-.03-.175-.109-.238q-.158.094-.305 0c-.062-.07-.183-.136-.109-.238.094-.121.246-.113.371-.176-.117-.316-.262.153-.437-.062-.07.07-.172.136-.254.11-.133-.087-.246-.173-.2-.333.028-.039.114.016.106-.062-.09-.032-.207.023-.3-.043-.09-.07-.161-.164-.13-.278-.175-.133-.406-.168-.46-.414-.032-.047-.11 0-.145-.047-.184-.11.12-.547-.285-.43-.055-.03-.13-.085-.13-.156.044-.035-.046-.066-.062-.105-.125-.04-.176-.137-.238-.215-.102-.254-.477-.367-.461-.652-.191.031-.121-.23-.324-.176-.153-.117-.11-.133-.176-.238-.039-.102.008-.27-.145-.278-.156-.215-.414-.285-.546-.547-.207.133-.399.317-.344.61-.102.09-.008.535.023.543-.11.222.024.46-.117.668a.8.8 0 0 1-.058.39c.113.317-.227.594-.047.93-.04.094.015.293-.133.356-.2-.125-.36.05-.559-.07a.33.33 0 0 1-.238.128c-.145-.129-.125-.43-.438-.344-.023.07-.132.168-.19.063-.087.066-.165-.031-.263 0-.07-.102-.109-.324-.261-.133-.063-.023-.078.07-.13.07-.109-.254-.515-.015-.476-.39-.078-.07-.031-.184-.039-.285.04-.04.137-.04.129-.13-.082-.07-.145.044-.223.044.008.093-.074.164-.168.132-.09-.015-.16-.101-.261-.132.007-.114-.09-.106-.153-.043.008.074-.12.082-.175.043-.04-.016-.07-.051-.11-.082.086-.133-.144-.176-.082-.309-.23-.078-.492-.09-.691-.238-.14.117-.157-.098-.239-.13-.015-.132.16-.062.145-.19-.098-.087-.121-.165-.254-.215-.144.035-.238.023-.352-.07.016-.126-.046-.177.047-.302-.195-.097.114-.296-.109-.351-.008-.094-.062-.223-.176-.145-.086.012-.176-.007-.168-.132-.117-.192.114-.301.035-.5.07-.122.301-.098.332-.2.024-.129.176-.07.239-.168-.07-.046-.16-.093-.239-.046-.16.078-.308.246-.476.085-.098-.14-.238-.207-.238-.382.109-.024.168-.125.214-.227-.03-.02-.046-.05-.09-.035-.007.059-.054.152-.124.082.03-.105-.09-.082-.114-.176.09-.137.075-.316.223-.43-.063-.085-.164-.175-.094-.285.055-.097.07-.23.153-.297-.02-.125.015-.253.18-.261.245-.125.495-.016.734-.176.172-.078.238.207.394.043.153.117.25-.098.32.156.11-.07.239-.164.391-.156.055.07.047.207.172.215.008-.059.059-.106.129-.082.047.047.055.129.129.152.015-.047-.028-.262.11-.152.054.297.468-.246.284.215-.023.023-.054.046-.047.082.016.047.063.015.09.023.063-.36.5-.105.5-.496.207-.031.23-.254.371-.371-.007-.137-.18-.238-.117-.406-.375-.176-.543-.524-.644-.914-.254-.192-.63-.286-.606-.653 0-.176-.16-.336-.285-.43-.078-.12-.246-.238-.309-.343.079-.063-.039-.094-.011-.156.011-.137-.008-.336-.203-.344-.16-.008-.016-.301-.239-.309-.082-.047-.136-.152-.082-.262.078-.03.032-.12.024-.168-.078-.046-.23.008-.239-.105.032-.172.04-.3-.07-.441-.07-.012-.183.046-.191-.059-.14-.184.375-.422-.07-.371-.032-.066-.114-.035-.13-.106-.167-.238.239-.3.07-.484-.093.031-.194.152-.284.047-.078-.086-.032-.277-.086-.371.27-.027.14-.336.406-.367.031-.04.086-.063.094-.106-.27-.125-.278.305-.5.305-.032.039-.086.008-.13.016a.27.27 0 0 1-.07-.297c.153-.024.239-.22.368-.286a.44.44 0 0 0 .261-.324c-.191-.199-.336.207-.558.192-.063.062-.149.078-.215.11-.11-.095.008-.192.039-.278.113.047.066-.09.105-.13.13-.237.614-.124.524-.523-.078-.046-.191-.113-.262 0-.133.153-.308.293-.515.301-.055-.055-.153-.039-.176-.11-.031-.144.144-.167.215-.26.207-.024.351-.29.582-.298.039-.101-.043-.172-.13-.11-.183.169-.476.087-.667.24-.086.007-.137-.063-.215-.071-.04-.09-.04-.258.086-.274a.26.26 0 0 0 .215-.07c.02-.062-.102-.277.066-.191 0 .046.055.066.086.105.145.055.191-.121.262-.2-.008-.046.058-.112-.024-.144-.246.032-.437.192-.691.192-.102-.063 0-.16 0-.239.145-.054.27-.085.367-.19.07-.024.149.07.192-.024-.008-.055 0-.121.07-.13.078.009.152.075.238.024.07-.117-.023-.148-.094-.203-.023-.02-.05-.05-.082-.082-.386 0-.73.305-1.105.129-.055-.129.09-.082.129-.152.117-.11.34.09.43-.133.156.094.238-.192.355 0 .129-.012.191-.051.32-.059.133-.148.285-.238.325-.46-.2-.009-.415-.169-.606-.016-.156-.055-.227.09-.371.062-.152.176-.39.152-.629.152-.031-.039-.102-.085-.039-.128.164-.133.43 0 .562-.22.137-.19.653.173.52-.257-.277-.047-.629-.18-.89 0-.153.008-.352-.086-.477.035-.137-.105-.383.117-.453-.121-.082-.2.133-.2.218-.285.184.11.336-.016.52.023.039-.03.047-.07.039-.105-.316-.246-.762-.094-1.105-.133.015-.176-.262-.082-.192-.262.106-.008.23-.097.32 0 .2-.027.356.047.547.024.145.078.27.015.414.11.375-.134-.015.312.325.276.28-.085.488.067.78.09.032-.129.169-.03.255-.047-.063-.082.136-.328-.04-.28-.077.023-.113.136-.199.128-.039-.055-.007-.137-.085-.168-.082-.008-.075.074-.153.106-.086.007-.136-.059-.215-.067-.175-.207.356-.199.047-.37 0-.216-.484.007-.37-.345.085-.175.437.098.3-.238-.176-.246-.445-.07-.691-.152-.047-.11-.262-.047-.32-.149-.079-.136-.177-.008-.263-.113-.117.113-.261-.031-.367 0-.164-.207-.523-.023-.699-.238-.262-.149-.531-.07-.824-.149-.027-.082-.152-.129-.106-.234.082-.063.23.008.344.012.2.062.43-.043.586.18.313.05.66.038.934.19.27-.23.46.255.777.176.117.079.277.032.414.047.04-.039.016-.109.024-.152-.2-.254-.583-.254-.844-.453-.2-.024-.395-.04-.547-.156-.121-.059-.277-.059-.406-.09-.11-.133-.317.09-.352-.11-.207.016-.332-.046-.476-.191-.157-.031-.286-.11-.454-.11-.093.048-.199.04-.308.063 0-.062-.031-.105-.086-.144-.336 0-.211-.383-.39-.547.062-.137.124 0 .198 0 .094.125.317.015.41.176.09 0 .137.125.223.148.184.09.414.09.582.238.239.055.461.121.653.282.117-.16.246.03.382 0 .247.14.555.156.762.324.113-.055.406.125.39-.063-.058-.058-.038-.222-.175-.191-.152-.262-.523-.098-.621-.39-.2.07-.332-.161-.547-.11-.062-.09-.184-.016-.262-.067-.16-.261-.496-.14-.629-.43-.253.067-.343-.316-.582-.093-.175-.047-.324-.176-.546-.129-.083.059-.083.215-.215.2-.063-.032-.047-.165-.153-.157-.023-.242-.27-.352-.382-.543.02-.047.074-.023.105-.062.191.046.563-.106.668.132.184.051.3.207.5.153.121.082.3.09.414.144.168.14.344.086.523.223.06-.024.145-.074.215-.024.082.133.239.094.32.215.18.078.38.094.524.239.152-.04.215.148.367.18.172.003.293.175.477.081-.176-.168-.36-.468-.692-.414-.105-.023-.05-.199-.199-.168-.129-.078-.281-.34-.476-.308-.438.152-.543-.535-.996-.344-.208-.156-.34-.395-.645-.395-.172-.312-.61-.05-.723-.39-.277.031-.238-.278-.476-.344.015-.148-.2-.14-.153-.3-.054-.032-.039-.087-.039-.13.055-.023.086-.054.153-.023.078.09.316-.156.324.082.105.031.23.102.262.223.16.03.289.207.449.171a.6.6 0 0 0 .308 0c-.199-.156-.398-.402-.652-.453-.07-.039-.2-.101-.191-.156-.102-.113-.317-.16-.352-.32-.215-.184-.316-.477-.562-.653.047-.117-.192-.277.047-.308.097.015.16-.016.238 0-.223-.16-.246-.43-.477-.516-.125-.05-.039-.254-.152-.304.008-.063-.04-.239.105-.239.149.063.375 0 .43.176" style="stroke:none;fill-rule:nonzero;fill:#2e4ba5;fill-opacity:1"/><path d="M49.766 7.25c.007.043 0 .082-.047.105-.223.07-.414-.222-.606 0a.4.4 0 0 1-.238-.12c-.05-.247.176-.07.285-.157.192-.023.399-.082.5.133.047-.008.055.066.106.039M51.004 7.402c.062.078-.031.137-.086.2-.113-.063-.32.113-.39-.07-.079.077-.122-.052-.192-.048-.117 0-.238.016-.332-.035-.04-.015-.016-.094-.024-.133.18-.023.38.032.57.04.048-.047.048-.145.153-.106.078.09.168.152.3.152M62.406 14.973c-.101 0-.152-.094-.191-.153.05-.183.066.082.168.035-.008.047.09.07.023.118M58.613 16.922c-.093-.098-.148.094-.238 0 .078-.121.328-.016.32-.223.016.094-.008.172-.082.223M58.29 17.223c-.063-.008-.063-.118-.09-.168.042 0 .081-.008.112-.047-.007.078.102.168-.023.215" style="stroke:none;fill-rule:nonzero;fill:#2e4ba5;fill-opacity:1"/></svg>