<?xml version="1.0" encoding="UTF-8"?>
<svg xmlns="http://www.w3.org/2000/svg" xmlns:xlink="http://www.w3.org/1999/xlink" width="176pt" height="35.03pt" viewBox="0 0 176 35.03" version="1.1">
<defs>
<clipPath id="clip1">
  <path d="M 152 17 L 176 17 L 176 35.03125 L 152 35.03125 Z M 152 17 "/>
</clipPath>
</defs>
<g id="surface1">
<path style=" stroke:none;fill-rule:nonzero;fill:rgb(58.119202%,63.28125%,83.079529%);fill-opacity:1;" d="M 169.523438 17.515625 L 176 17.515625 C 172.570312 15.785156 169.789062 13.003906 168.0625 9.578125 C 165.230469 3.917969 159.761719 0.679688 152.636719 0.00390625 L 152.8125 0.488281 C 157.730469 2.472656 161.144531 5.597656 163.125 10.015625 C 164.507812 13.082031 166.738281 15.675781 169.523438 17.515625 "/>
<g clip-path="url(#clip1)" clip-rule="nonzero">
<path style=" stroke:none;fill-rule:nonzero;fill:rgb(14.909363%,19.726562%,43.87207%);fill-opacity:1;" d="M 169.523438 17.515625 L 176 17.515625 C 172.570312 19.246094 169.789062 22.027344 168.0625 25.457031 C 165.230469 31.113281 159.761719 34.351562 152.636719 35.03125 L 152.8125 34.542969 C 157.730469 32.5625 161.144531 29.433594 163.125 25.015625 C 164.507812 21.949219 166.738281 19.355469 169.523438 17.515625 "/>
</g>
<path style=" stroke:none;fill-rule:nonzero;fill:rgb(58.119202%,63.28125%,83.079529%);fill-opacity:1;" d="M 152.652344 5.664062 C 153.816406 10 155.40625 13.617188 156.773438 15.378906 C 157.480469 16.289062 158.40625 17.027344 159.492188 17.515625 L 164.570312 17.515625 C 162.179688 16.445312 160.246094 14.511719 159.195312 12.125 C 157.9375 9.214844 155.578125 6.886719 152.652344 5.664062 "/>
<path style=" stroke:none;fill-rule:nonzero;fill:rgb(14.909363%,19.726562%,43.87207%);fill-opacity:1;" d="M 152.652344 29.355469 C 153.816406 25.015625 155.40625 21.398438 156.773438 19.636719 C 157.480469 18.726562 158.40625 17.988281 159.492188 17.5 L 164.570312 17.5 C 162.179688 18.570312 160.246094 20.503906 159.195312 22.894531 C 157.9375 25.816406 155.578125 28.128906 152.652344 29.355469 "/>
<path style=" stroke:none;fill-rule:nonzero;fill:rgb(14.909363%,19.726562%,43.87207%);fill-opacity:1;" d="M 43.816406 25.785156 L 44.367188 22.878906 L 30.292969 22.878906 L 30.292969 19.199219 L 41.503906 19.199219 C 41.503906 19.199219 41.519531 19.199219 41.519531 19.183594 L 41.519531 15.800781 L 30.292969 15.800781 L 30.292969 12.125 L 42.917969 12.125 C 43.234375 12.125 43.484375 11.902344 43.53125 11.605469 L 44.019531 8.742188 L 26.945312 8.742188 C 26.632812 8.742188 26.363281 8.996094 26.363281 9.324219 L 26.363281 26.273438 L 43.25 26.273438 C 43.53125 26.273438 43.769531 26.070312 43.816406 25.785156 "/>
<path style=" stroke:none;fill-rule:nonzero;fill:rgb(14.909363%,19.726562%,43.87207%);fill-opacity:1;" d="M 91.058594 25.785156 L 91.609375 22.878906 L 77.554688 22.878906 L 77.554688 19.199219 L 88.761719 19.199219 C 88.761719 19.199219 88.777344 19.199219 88.777344 19.183594 L 88.777344 15.800781 L 77.554688 15.800781 L 77.554688 12.125 L 90.175781 12.125 C 90.492188 12.125 90.742188 11.902344 90.789062 11.605469 L 91.277344 8.742188 L 74.1875 8.742188 C 73.875 8.742188 73.605469 8.996094 73.605469 9.324219 L 73.605469 26.273438 L 90.492188 26.273438 C 90.773438 26.273438 91.011719 26.070312 91.058594 25.785156 "/>
<path style=" stroke:none;fill-rule:nonzero;fill:rgb(14.909363%,19.726562%,43.87207%);fill-opacity:1;" d="M 124.308594 13.933594 L 136.617188 25.816406 C 136.933594 26.117188 137.324219 26.273438 137.765625 26.273438 L 140.609375 26.273438 L 140.609375 8.710938 L 137.402344 8.710938 C 137.058594 8.710938 136.789062 8.980469 136.789062 9.324219 L 136.789062 20.597656 L 124.890625 9.136719 C 124.59375 8.855469 124.214844 8.710938 123.804688 8.710938 L 120.378906 8.710938 L 120.378906 26.273438 L 124.277344 26.273438 L 124.308594 13.933594 "/>
<path style=" stroke:none;fill-rule:nonzero;fill:rgb(14.909363%,19.726562%,43.87207%);fill-opacity:1;" d="M 5.988281 23.050781 C 6.179688 22.6875 6.539062 22.46875 6.949219 22.46875 L 16.445312 22.46875 L 18.125 25.722656 C 18.300781 26.070312 18.660156 26.273438 19.039062 26.273438 L 22.890625 26.273438 L 14.070312 9.433594 C 13.835938 8.996094 13.394531 8.726562 12.890625 8.726562 L 9.195312 8.726562 L 0 26.289062 L 4.324219 26.289062 Z M 11.382812 12.769531 L 14.667969 19.074219 L 8.082031 19.074219 Z M 11.382812 12.769531 "/>
<path style=" stroke:none;fill-rule:nonzero;fill:rgb(14.909363%,19.726562%,43.87207%);fill-opacity:1;" d="M 99.972656 23.050781 C 100.160156 22.6875 100.523438 22.46875 100.929688 22.46875 L 110.410156 22.46875 L 112.09375 25.722656 C 112.265625 26.070312 112.628906 26.273438 113.003906 26.273438 L 116.855469 26.273438 L 108.035156 9.433594 C 107.800781 8.996094 107.359375 8.726562 106.855469 8.726562 L 103.164062 8.726562 L 93.964844 26.273438 L 98.289062 26.273438 Z M 105.347656 12.769531 L 108.632812 19.074219 L 102.046875 19.074219 Z M 105.347656 12.769531 "/>
<path style=" stroke:none;fill-rule:nonzero;fill:rgb(14.909363%,19.726562%,43.87207%);fill-opacity:1;" d="M 68.292969 24.054688 L 68.292969 16.304688 L 60.90625 16.304688 L 60.90625 19.152344 C 60.90625 19.449219 61.15625 19.703125 61.453125 19.703125 L 64.363281 19.703125 L 64.363281 22.011719 C 63.355469 22.734375 60.933594 23.222656 58.40625 23.222656 C 54.316406 23.222656 51.738281 21.023438 51.785156 17.484375 C 51.832031 13.980469 54.394531 11.792969 58.4375 11.792969 C 61.25 11.792969 63.765625 12.4375 66.046875 13.726562 L 67.789062 10.441406 C 63.027344 8.066406 58.859375 8.210938 58.4375 8.210938 C 52.164062 8.210938 47.777344 12.03125 47.777344 17.5 C 47.777344 23.082031 51.960938 26.824219 58.183594 26.824219 C 64.929688 26.808594 68.292969 24.054688 68.292969 24.054688 "/>
</g>
</svg>
