<svg xmlns="http://www.w3.org/2000/svg" width="176pt" height="54.573" viewBox="0 0 176 40.93"><defs><clipPath id="a"><path d="M33 23h17v17.93H33Zm0 0"/></clipPath><clipPath id="b"><path d="M7 24h11v16.93H7Zm0 0"/></clipPath><clipPath id="c"><path d="M64 24h8v16.93h-8Zm0 0"/></clipPath><clipPath id="d"><path d="M73 28h10v12.93H73Zm0 0"/></clipPath><clipPath id="e"><path d="M96 34h17v6.93H96Zm0 0"/></clipPath><clipPath id="f"><path d="M0 38h7v2.93H0Zm0 0"/></clipPath></defs><path d="M7.645 4.957q-.099.001-.196-.004c-.98 2.305-1.96 4.61-2.98 6.996h6.094C9.559 9.551 8.602 7.254 7.645 4.957M0 18.777c.578-1.14 1.207-2.257 1.719-3.43C3.625 10.962 5.489 6.56 7.363 2.16c.364-.848.301-.953-.687-1.547C7.25.586 7.828.555 8.492.523c2.54 6.114 5.067 12.192 7.64 18.387H13.2c-.105-.25-.246-.547-.355-.851-.531-1.446-1.078-2.883-1.567-4.34-.183-.547-.476-.735-1.039-.723-1.816.027-3.636.031-5.453-.004-.601-.012-.914.219-1.113.77-.527 1.445-1.086 2.875-1.633 4.312-.105.281-.215.567-.332.871H0z" style="stroke:none;fill-rule:nonzero;fill:#494d51;fill-opacity:1"/><path d="M132.844 23.309c-4.75-6.254-9.5-12.508-14.324-18.864.332-.039.539-.086.746-.086 4.363-.004 8.726 0 13.093-.007.446-.004.79.125 1.133.421 6.996 6.102 14.004 12.192 21.008 18.29.082.07.145.167.215.253-2.88.004-5.754.012-8.633.008-4.41 0-8.824-.012-13.238-.015" style="stroke:none;fill-rule:nonzero;fill:#d8193a;fill-opacity:1"/><path d="M132.844 23.309c4.414.003 8.828.015 13.238.015 2.879.004 5.754-.004 8.633-.008.332.036.664.102.992.102 2.488.008 4.977.02 7.465-.012a3.2 3.2 0 0 0 1.348-.336 126 126 0 0 0 5.007-2.726c.61-.356 1.098-.371 1.696 0 1.449.898 2.93 1.746 4.394 2.617.14.082.266.187.383.437-.29.02-.574.059-.863.063-2.63.016-5.258 0-7.887.05a9.8 9.8 0 0 0-2.309.313c-3.457.903-3.437.938-6.34 3.04-5.097 3.69-10.214 7.355-15.312 11.038-.5.364-1.008.543-1.629.535-2.547-.027-5.09-.011-7.637-.011-.265 0-.535-.031-.988-.055 3.613-4.98 7.13-9.828 10.645-14.676a5 5 0 0 1-.102-.203h-.879c-2.937 0-5.875.004-8.808-.012-.352 0-.7-.113-1.047-.171" style="stroke:none;fill-rule:nonzero;fill:#8e989d;fill-opacity:1"/><g clip-path="url(#a)"><path d="M40.242 30.379h-5.71v-2.172h5.741v-4.656h2.188v4.594h5.676v2.187h-5.563v8.066h6.746v2.332c-.582.22-14.91.286-16.039.06v-2.368h6.961z" style="stroke:none;fill-rule:nonzero;fill:#494d51;fill-opacity:1"/></g><path d="M76.992 11.555c-1.347.558-2.656.953-3.683 1.91a2.8 2.8 0 0 0-.516.652c-.512.883-.352 2.102.336 2.801.648.652 1.445.723 2.469.203.246-.129.472-.293.718-.426.54-.297.786-.71.75-1.36-.054-.972-.011-1.952-.015-2.933 0-.238-.031-.476-.059-.847m.004 5.523c-.473.348-.828.613-1.187.871-.317.227-.63.473-.97.664-1.359.758-3 .492-3.89-.613-.96-1.2-.965-3.09.153-4.152.734-.7 1.636-1.258 2.543-1.735 1.058-.554 2.199-.953 3.355-1.441a4.9 4.9 0 0 0-.242-2.383c-.336-.937-1.34-1.406-2.414-1.187-.828.168-1.551.863-1.367 1.89.015.082.011.168.007.254-.027.902-.5 1.399-1.254 1.316-.703-.078-1.117-.742-.96-1.582.19-1.02.835-1.722 1.722-2.148 1.703-.824 3.469-.816 5.203-.102.793.329 1.309.97 1.418 1.844.082.637.125 1.281.133 1.922.02 1.625.008 3.246.012 4.871 0 .281-.035.574.035.836.094.356.18.813.434 1.004.367.273.71-.11 1.011-.363.14-.121.297-.23.582-.278-.054.22-.039.512-.175.649-.551.547-1.086 1.16-1.747 1.535-1.117.64-2.03.145-2.304-1.11-.028-.132-.047-.269-.098-.562" style="stroke:none;fill-rule:nonzero;fill:#494d51;fill-opacity:1"/><g clip-path="url(#b)"><path d="M13.469 38.582h4.105v1.867c-3.234.031-6.488.012-9.804.012v-1.836h3.996c.058-3.895.12-7.672.18-11.566H7.77v-2.32c3.25-.028 6.5-.016 9.832-.005v2.258h-4.133z" style="stroke:none;fill-rule:nonzero;fill:#494d51;fill-opacity:1"/></g><g clip-path="url(#c)"><path d="M66.406 31.402h3.543c0-1.226.012-2.418-.008-3.609-.007-.39-.27-.605-.664-.613a93 93 0 0 0-2.093-.02c-.461.004-.762.242-.77.707-.02 1.14-.008 2.281-.008 3.535m1.153-5.62c.218-.571.453-1.063 1.097-1.079.688-.015.961.469 1.133 1.059.215.035.406.062.594.097.805.16 1.215.594 1.316 1.41.035.274.035.56.035.836v9.739c-.004.336 0 .676-.046 1.004-.192 1.363-1.282 2.12-2.61 1.77-.27-.071-.562-.364-.66-.626-.047-.125.293-.508.527-.605.555-.23.895-.567.899-1.176.02-1.738.027-3.473.035-5.203.004-.11-.047-.215-.09-.375h-3.332v7.883h-1.363c-.125-1.278-.04-2.555-.055-3.825-.016-1.285-.004-2.57-.004-3.89-.238-.11-.453-.207-.676-.309v-.8l.676-.387c0-.871 0-1.735.004-2.602 0-.336 0-.672.035-1.004.145-1.285.653-1.77 1.934-1.863.164-.012.332-.031.55-.055" style="stroke:none;fill-rule:nonzero;fill:#494d51;fill-opacity:1"/></g><path d="M103.355 10.344c.23-1.645-.816-3.024-2.316-3.133-1.625-.121-3.066 1.324-3.05 3.133zm2.829.86h-8.297c.054.632.054 1.179.148 1.71.223 1.285.82 2.371 1.856 3.188 1.949 1.543 4.46 1.003 5.593-1.196q.186-.365.38-.73l.187-.012c.047.195.148.402.125.59-.293 1.98-2.149 3.973-3.989 4.312-2.07.38-4.23-.57-5.257-2.5-1.368-2.582-1.325-5.242.101-7.785 1.153-2.05 3.59-2.972 5.871-2.386 2.196.566 3.493 2.671 3.282 4.808M54.008 18.773h-2.25V1.688c-.352-.036-.617-.083-.887-.086-.976-.016-1.957.003-2.937-.028-.875-.027-1.598.203-2.051 1.02-.055.105-.196.16-.383.304-.21-.753.04-1.37.148-2.07h14.688c.035.656.074 1.281.11 1.906l-.184.118c-.168-.13-.383-.23-.492-.399-.438-.644-1.02-.883-1.793-.86-1.254.044-2.508.012-3.887.012v3.067c-.012.418-.031.84-.031 1.258q-.03 6.42-.051 12.843" style="stroke:none;fill-rule:nonzero;fill:#494d51;fill-opacity:1"/><g clip-path="url(#d)"><path d="M74.45 40.582h-1.282c-.02-.328-.055-.625-.055-.922q-.005-4.324-.004-8.648v-.25c.055-1.961.707-2.735 2.715-2.621.559.03 1.117.004 1.68.011 1.644.024 2.262.567 2.316 2.192.07 2.125.07 4.254.102 6.379.008.308.004.617.008.925.023 1.254.386 1.704 1.601 1.97.137.027.305.019.403.093.14.11.32.281.312.422-.004.148-.176.36-.324.422-1.637.715-3.742-.598-3.774-2.38-.043-2.292-.015-4.59-.02-6.886-.003-1.32-.425-1.746-1.745-1.75-.25 0-.508.02-.75.074-.852.2-1.11.524-1.113 1.407-.008 2.8-.004 5.597-.012 8.398-.004.355-.035.715-.059 1.164" style="stroke:none;fill-rule:nonzero;fill:#494d51;fill-opacity:1"/></g><path d="M2.95 31.715c-.848-.063-1.505-.113-2.184-.168-.118-1.113-.145-2.09.507-3.031.942-1.356 1.793-2.774 2.633-4.196.324-.554.7-.824 1.344-.734.32.047.648.008 1.137.008l-2.953 5.808h3.054c-1.199 1.93-2.293 3.688-3.5 5.625h3.344v2.075H.777c-.125-1.149-.23-2.223.61-3.184.547-.621.968-1.352 1.562-2.203M81.605 6.883c.602-.395 4.926-.434 5.856-.008-.356.11-.563.176-.77.238-.632.192-.863.543-.75 1.196.04.246.114.492.211.722q1.279 3.06 2.575 6.114c.058.144.164.273.304.503.156-.316.278-.523.371-.742q1.225-2.994 2.442-5.988a7 7 0 0 0 .172-.473c.285-.902.144-1.144-.774-1.355-.148-.035-.289-.102-.566-.203.23-.145.347-.27.476-.29 1.063-.152 3.067-.027 3.567.231-.07.086-.121.219-.196.234-.898.168-1.261.864-1.566 1.602-1.164 2.82-2.32 5.645-3.48 8.465-.192.469-.36.945-.586 1.39-.114.227-.332.399-.504.594-.196-.207-.465-.379-.57-.625-.614-1.379-1.188-2.777-1.778-4.168-.75-1.78-1.516-3.554-2.25-5.343-.379-.922-.883-1.688-1.953-1.883-.066-.012-.117-.106-.23-.211M109.852 4.484c-.008-.64.027-1.289-.036-1.925-.074-.739-.398-.95-1.136-.88-.184.02-.371.016-.555.005-.031-.004-.059-.086-.086-.137.379-.445 2.11-1.234 3.484-1.55.274 6.237.547 12.448.825 18.726h-2.301c-.027-.36-.074-.684-.074-1.008-.02-4.004-.024-8.008-.04-12.012 0-.36-.05-.723-.078-1.082a.2.2 0 0 0-.003-.137M64.605 18.727h-2.152v-1.118c.008-2.52.016-5.035.02-7.554 0-.282 0-.563-.024-.84-.078-.953-.414-1.235-1.347-1.145a.87.87 0 0 1-.582-.125c1.238-.828 2.601-1.277 4.125-1.867v2.563c.062.015.12.027.183.043.219-.309.399-.653.664-.914.496-.48.977-1.032 1.578-1.34 1.067-.551 2.114.043 2.305 1.254-.645.03-1.281.054-1.918.093-1.453.094-2.762 1.47-2.773 2.942-.024 2.324-.02 4.644-.032 6.969 0 .328-.027.656-.047 1.039M26.371 7.8c1.281-.698 2.645-1.195 4.168-1.714V8.62c.055.024.113.043.168.066.18-.265.355-.53.543-.789.48-.664 1.016-1.277 1.82-1.558 1.07-.371 1.93.113 2.215 1.332-.617.023-1.215.047-1.816.066-1.547.047-2.887 1.418-2.899 2.985-.015 2.32-.02 4.644-.027 6.964v1h-2.156c-.016-.355-.043-.68-.043-1.007 0-2.543.008-5.09.011-7.633q0-.21-.003-.422c-.047-1.418-.239-1.59-1.696-1.508-.07.004-.144-.066-.215-.097z" style="stroke:none;fill-rule:nonzero;fill:#494d51;fill-opacity:1"/><g clip-path="url(#e)"><path d="M111.34 34.898h-6.098v4.196h7.363v1.32c-.609.223-14.75.266-15.664.035v-1.336h6.746v-4.152l-5.605-.059c.324-.054.648-.156.973-.156q5.655-.018 11.308 0c.325 0 .653.098.977.152" style="stroke:none;fill-rule:nonzero;fill:#494d51;fill-opacity:1"/></g><path d="M103.79 25.605c.257-.285.515-.574.769-.859q.38.44.754.887c-.028.058-.051.117-.079.176q.539 0 1.07.003c1.426 0 2.852-.015 4.274.004 1.297.016 1.746.493 1.75 1.793q.004.756-.004 1.512c0 .422-.191.703-.633.73-.476.032-.617-.292-.64-.699-.02-.277-.024-.558-.059-.836-.113-.859-.387-1.12-1.25-1.125-1.62-.011-3.242.004-4.863.004-1.817 0-3.633-.011-5.45-.008-.952.004-1.234.27-1.335 1.223-.031.305.015.637-.09.91-.086.215-.363.52-.524.504-.242-.027-.636-.289-.648-.472-.055-.86-.074-1.735.043-2.582.086-.63.664-.938 1.496-.95 1.48-.02 2.961-.008 4.442-.008q.498-.004.996-.003-.01-.102-.02-.204M23.14 18.941h-2.074c-.02-.43-.05-.812-.05-1.191-.008-2.434-.004-4.867-.008-7.3a22 22 0 0 0-.04-1.009c-.038-.64-.238-1.148-.98-1.254-.129-.019-.238-.175-.363-.269.61-.598 2.715-1.414 3.516-1.356zM111.34 34.898c-.324-.054-.653-.152-.977-.152q-5.655-.018-11.308 0c-.325 0-.649.102-.973.156-.598-.332-.195-.82-.254-1.312h13.723c-.016.484.344.953-.211 1.308" style="stroke:none;fill-rule:nonzero;fill:#494d51;fill-opacity:1"/><g clip-path="url(#f)"><path d="M6.363 38.371v2.2H.777v-2.2z" style="stroke:none;fill-rule:nonzero;fill:#494d51;fill-opacity:1"/></g><path d="M75.695 25.648c.32-.261.649-.73.965-.722.328.008.645.48.965.75q-.04.094-.074.187h2.164c.222.004.469-.043.66.04.164.074.379.3.367.445-.015.195-.183.445-.36.547-.171.097-.433.054-.655.054-2.094.004-4.192.004-6.286.004q-.208-.001-.418-.008c-.382-.015-.652-.14-.628-.593.027-.418.3-.489.636-.489.617.004 1.23 0 1.844 0h.832zM110.195 31.05c-.105.134-.246.462-.48.552-.235.09-.692.054-.824-.11a17.3 17.3 0 0 1-1.594-2.246c-.113-.191.027-.7.219-.86.199-.167.773-.226.886-.085.637.765 1.184 1.605 1.758 2.422.028.039.016.109.035.328M102.21 28.879c-.058.23-.054.36-.112.445-.528.754-1.032 1.524-1.614 2.235-.25.304-.714.296-.976 0-.184-.215-.352-.68-.242-.868.46-.793 1-1.546 1.582-2.253.136-.172.586-.22.824-.133.238.082.39.402.539.574M23.477 1.434c-.008.722-.633 1.343-1.344 1.336-.719-.004-1.328-.622-1.328-1.348 0-.75.574-1.313 1.336-1.313.754.004 1.343.59 1.336 1.325M68.645 36.07h-1.016v-1.804h1.016zM67.566 30.305v-2.149c.352-.015.688-.031 1.082-.047v2.196z" style="stroke:none;fill-rule:nonzero;fill:#494d51;fill-opacity:1"/></svg>