<?xml version="1.0" encoding="UTF-8"?>
<svg xmlns="http://www.w3.org/2000/svg" xmlns:xlink="http://www.w3.org/1999/xlink" width="176pt" height="34.93pt" viewBox="0 0 176 34.93" version="1.1">
<defs>
<clipPath id="clip1">
  <path d="M 0 0 L 39 0 L 39 34.929688 L 0 34.929688 Z M 0 0 "/>
</clipPath>
</defs>
<g id="surface1">
<g clip-path="url(#clip1)" clip-rule="nonzero">
<path style=" stroke:none;fill-rule:evenodd;fill:rgb(91.921997%,11.312866%,15.168762%);fill-opacity:1;" d="M 0 0 L 28.109375 0 L 38.320312 34.929688 L 9.902344 34.929688 L 0 0 "/>
</g>
<path style=" stroke:none;fill-rule:evenodd;fill:rgb(100%,100%,100%);fill-opacity:1;" d="M 10.347656 11.386719 C 14.75 10.421875 17.328125 12.457031 18.277344 15.246094 C 13.355469 10.707031 6.585938 15.121094 8.832031 19.945312 C 10.496094 17.15625 13.542969 15.714844 17.070312 16.429688 C 9.347656 18.28125 10.089844 25.570312 14.664062 26.605469 C 13.332031 23.890625 13.960938 20.746094 17.378906 18.316406 C 13.851562 23.753906 19.414062 29.476562 24.542969 26.199219 C 20.398438 25.222656 18.007812 21.226562 18.980469 19.203125 C 21.078125 25.53125 29.808594 24.238281 29.636719 18.464844 C 27.785156 20.316406 23.359375 21.054688 20.621094 18.6875 C 27.503906 20.460938 31.425781 13.605469 26.640625 9.953125 C 26.628906 13.46875 24.53125 16.527344 21.238281 16.789062 C 27.15625 13.023438 23.742188 6.03125 18.351562 6.957031 C 20.84375 8.894531 21.707031 13.125 20.289062 15.292969 C 20.484375 9.015625 13.246094 6.207031 10.347656 11.386719 "/>
<path style=" stroke:none;fill-rule:evenodd;fill:rgb(91.921997%,11.312866%,15.168762%);fill-opacity:1;" d="M 47.769531 21.855469 L 50.738281 14.828125 L 45.632812 14.828125 L 44.511719 17.476562 L 46.84375 17.476562 L 45.980469 19.539062 C 45.558594 19.699219 45.191406 19.820312 44.84375 19.90625 C 44.511719 19.980469 44.191406 20.019531 43.90625 20.019531 C 42.957031 20.019531 42.390625 19.660156 42.195312 18.933594 C 41.996094 18.207031 42.195312 17.15625 42.761719 15.800781 C 43.351562 14.417969 44.042969 13.320312 44.867188 12.507812 C 45.683594 11.691406 46.496094 11.296875 47.3125 11.296875 C 47.828125 11.296875 48.175781 11.460938 48.335938 11.792969 C 48.496094 12.113281 48.484375 12.617188 48.296875 13.308594 L 51.417969 13.308594 C 52.046875 11.71875 52.132812 10.507812 51.691406 9.683594 C 51.503906 9.351562 51.234375 9.078125 50.875 8.882812 C 50.355469 8.597656 49.65625 8.449219 48.753906 8.449219 C 46.816406 8.449219 45.054688 9.089844 43.476562 10.386719 C 41.882812 11.679688 40.589844 13.53125 39.578125 15.921875 C 38.960938 17.390625 38.628906 18.636719 38.605469 19.636719 L 38.605469 19.90625 C 38.617188 20.363281 38.703125 20.769531 38.851562 21.128906 C 39.34375 22.277344 40.566406 22.855469 42.527344 22.855469 C 43.277344 22.855469 44.082031 22.769531 44.945312 22.609375 C 45.820312 22.449219 46.757812 22.1875 47.769531 21.855469 "/>
<path style=" stroke:none;fill-rule:evenodd;fill:rgb(91.921997%,11.312866%,15.168762%);fill-opacity:1;" d="M 108.84375 13.789062 C 108.671875 13.039062 108.117188 12.667969 107.179688 12.667969 C 106.660156 12.667969 106.140625 12.816406 105.601562 13.113281 C 105.058594 13.40625 104.476562 13.863281 103.847656 14.46875 C 104.019531 14.074219 104.144531 13.753906 104.230469 13.507812 C 104.328125 13.257812 104.378906 13.050781 104.402344 12.902344 L 101.515625 12.902344 C 101.46875 13.113281 101.394531 13.347656 101.296875 13.617188 C 101.195312 13.902344 101.085938 14.195312 100.9375 14.53125 L 98.359375 20.648438 L 97.53125 22.621094 L 100.421875 22.621094 L 102.441406 17.8125 C 102.824219 16.910156 103.230469 16.230469 103.652344 15.777344 C 104.082031 15.320312 104.527344 15.085938 104.996094 15.085938 C 105.390625 15.085938 105.613281 15.257812 105.648438 15.601562 C 105.6875 15.9375 105.550781 16.480469 105.242188 17.21875 L 102.972656 22.621094 L 105.859375 22.621094 L 108.1875 17.082031 C 108.792969 15.640625 109.015625 14.542969 108.84375 13.789062 "/>
<path style=" stroke:none;fill-rule:evenodd;fill:rgb(91.921997%,11.312866%,15.168762%);fill-opacity:1;" d="M 61.964844 19.917969 C 61.914062 19.402344 62.074219 18.675781 62.46875 17.738281 C 62.863281 16.824219 63.308594 16.097656 63.8125 15.578125 C 63.902344 15.492188 63.984375 15.40625 64.085938 15.320312 C 64.492188 14.972656 64.898438 14.800781 65.304688 14.800781 C 65.824219 14.800781 66.121094 15.074219 66.179688 15.589844 C 66.257812 16.109375 66.09375 16.835938 65.714844 17.75 C 65.316406 18.6875 64.875 19.402344 64.355469 19.917969 C 64.269531 20.019531 64.171875 20.105469 64.085938 20.179688 C 63.664062 20.523438 63.246094 20.695312 62.816406 20.695312 C 62.308594 20.695312 62.027344 20.4375 61.964844 19.917969 Z M 65.898438 21.558594 C 66.96875 20.746094 67.847656 19.585938 68.523438 18.082031 C 68.5625 17.984375 68.609375 17.871094 68.660156 17.773438 C 69.363281 16.109375 69.511719 14.828125 69.09375 13.960938 C 68.96875 13.679688 68.773438 13.433594 68.523438 13.246094 C 68.007812 12.839844 67.242188 12.644531 66.242188 12.644531 C 65.476562 12.644531 64.75 12.765625 64.085938 13 C 63.445312 13.210938 62.839844 13.53125 62.285156 13.960938 C 61.136719 14.839844 60.210938 16.109375 59.507812 17.75 C 59.375 18.09375 59.25 18.402344 59.152344 18.710938 C 58.769531 19.933594 58.730469 20.882812 59.066406 21.574219 C 59.089844 21.621094 59.125 21.683594 59.152344 21.734375 C 59.605469 22.484375 60.53125 22.855469 61.953125 22.855469 C 62.703125 22.855469 63.417969 22.746094 64.085938 22.523438 C 64.726562 22.300781 65.332031 21.980469 65.898438 21.558594 "/>
<path style=" stroke:none;fill-rule:evenodd;fill:rgb(91.921997%,11.312866%,15.168762%);fill-opacity:1;" d="M 92.144531 19.671875 C 92.339844 19.203125 92.648438 18.871094 93.070312 18.6875 C 93.203125 18.625 93.363281 18.574219 93.5625 18.527344 C 93.957031 18.441406 94.476562 18.402344 95.105469 18.402344 L 95.042969 18.550781 C 94.734375 19.265625 94.386719 19.808594 93.992188 20.167969 C 93.859375 20.289062 93.710938 20.386719 93.5625 20.460938 C 93.277344 20.621094 92.980469 20.695312 92.660156 20.695312 C 92.351562 20.695312 92.167969 20.609375 92.070312 20.425781 C 91.984375 20.253906 92.007812 19.992188 92.144531 19.671875 Z M 92.390625 22.421875 C 92.796875 22.226562 93.179688 21.953125 93.5625 21.609375 C 93.710938 21.472656 93.847656 21.339844 93.992188 21.179688 C 93.882812 21.4375 93.796875 21.671875 93.722656 21.917969 C 93.660156 22.117188 93.597656 22.3125 93.5625 22.523438 C 93.550781 22.546875 93.550781 22.582031 93.539062 22.621094 L 96.226562 22.621094 C 96.25 22.449219 96.289062 22.277344 96.351562 22.089844 C 96.410156 21.894531 96.511719 21.644531 96.644531 21.339844 L 98.359375 17.242188 L 98.71875 16.390625 C 99.25 15.148438 99.335938 14.210938 98.976562 13.59375 C 98.828125 13.359375 98.632812 13.171875 98.359375 13.023438 C 97.929688 12.792969 97.3125 12.667969 96.523438 12.667969 C 95.351562 12.667969 94.375 12.863281 93.5625 13.273438 C 93.449219 13.332031 93.339844 13.394531 93.230469 13.457031 C 92.351562 13.988281 91.6875 14.789062 91.230469 15.863281 L 93.894531 15.863281 C 94.078125 15.503906 94.316406 15.234375 94.574219 15.046875 C 94.832031 14.875 95.140625 14.789062 95.488281 14.789062 C 95.882812 14.789062 96.113281 14.914062 96.203125 15.160156 C 96.289062 15.40625 96.238281 15.777344 96.027344 16.269531 C 96.015625 16.292969 95.992188 16.34375 95.96875 16.390625 C 95.941406 16.441406 95.929688 16.480469 95.917969 16.503906 C 95.042969 16.515625 94.253906 16.578125 93.5625 16.6875 C 92.699219 16.835938 91.984375 17.058594 91.402344 17.34375 C 90.800781 17.648438 90.28125 18.082031 89.851562 18.613281 C 89.53125 19.019531 89.257812 19.476562 89.035156 20.007812 C 88.652344 20.90625 88.605469 21.597656 88.875 22.101562 C 89.058594 22.421875 89.394531 22.644531 89.851562 22.757812 C 90.070312 22.804688 90.332031 22.832031 90.625 22.832031 C 91.257812 22.832031 91.847656 22.695312 92.390625 22.421875 "/>
<path style=" stroke:none;fill-rule:evenodd;fill:rgb(91.921997%,11.312866%,15.168762%);fill-opacity:1;" d="M 154.835938 18.550781 C 154.527344 19.265625 154.183594 19.808594 153.785156 20.167969 C 153.652344 20.289062 153.503906 20.386719 153.355469 20.460938 C 153.070312 20.621094 152.777344 20.695312 152.453125 20.695312 C 152.148438 20.695312 151.960938 20.609375 151.863281 20.425781 C 151.777344 20.253906 151.800781 19.992188 151.9375 19.671875 C 152.132812 19.203125 152.441406 18.871094 152.863281 18.6875 C 152.996094 18.625 153.15625 18.574219 153.355469 18.527344 C 153.75 18.441406 154.269531 18.402344 154.898438 18.402344 Z M 156.144531 22.089844 C 156.203125 21.894531 156.304688 21.644531 156.4375 21.339844 L 157.980469 17.664062 L 158.511719 16.390625 C 159.042969 15.148438 159.128906 14.210938 158.769531 13.59375 C 158.597656 13.308594 158.339844 13.085938 157.980469 12.9375 C 157.5625 12.753906 157.007812 12.667969 156.316406 12.667969 C 155.144531 12.667969 154.167969 12.863281 153.355469 13.273438 C 153.242188 13.332031 153.132812 13.394531 153.023438 13.457031 C 152.148438 13.988281 151.480469 14.789062 151.023438 15.863281 L 153.6875 15.863281 C 153.871094 15.503906 154.109375 15.234375 154.367188 15.046875 C 154.625 14.875 154.933594 14.789062 155.277344 14.789062 C 155.675781 14.789062 155.90625 14.914062 155.996094 15.160156 C 156.082031 15.40625 156.03125 15.777344 155.820312 16.269531 C 155.808594 16.292969 155.785156 16.34375 155.761719 16.390625 C 155.734375 16.441406 155.722656 16.480469 155.710938 16.503906 C 154.835938 16.515625 154.046875 16.578125 153.355469 16.6875 C 152.492188 16.835938 151.777344 17.058594 151.195312 17.34375 C 150.789062 17.550781 150.433594 17.796875 150.113281 18.105469 C 149.582031 18.601562 149.148438 19.242188 148.828125 20.007812 C 148.445312 20.90625 148.398438 21.597656 148.667969 22.101562 C 148.914062 22.535156 149.398438 22.769531 150.113281 22.816406 C 150.210938 22.832031 150.308594 22.832031 150.421875 22.832031 C 151.050781 22.832031 151.640625 22.695312 152.183594 22.421875 C 152.589844 22.226562 152.972656 21.953125 153.355469 21.609375 C 153.503906 21.472656 153.640625 21.339844 153.785156 21.179688 C 153.675781 21.4375 153.589844 21.671875 153.515625 21.917969 C 153.453125 22.117188 153.390625 22.3125 153.355469 22.523438 C 153.34375 22.546875 153.34375 22.582031 153.332031 22.621094 L 156.019531 22.621094 C 156.042969 22.449219 156.082031 22.277344 156.144531 22.089844 "/>
<path style=" stroke:none;fill-rule:evenodd;fill:rgb(91.921997%,11.312866%,15.168762%);fill-opacity:1;" d="M 143.203125 16.269531 L 142.144531 22.621094 L 145.117188 22.621094 L 150.113281 15.269531 L 151.726562 12.902344 L 149.273438 12.902344 L 145.425781 18.773438 L 146.472656 12.902344 L 143.292969 12.902344 L 139.308594 18.773438 L 140.429688 12.902344 L 137.507812 12.902344 L 136.71875 17.636719 L 135.890625 22.621094 L 138.886719 22.621094 L 143.203125 16.269531 "/>
<path style=" stroke:none;fill-rule:evenodd;fill:rgb(91.921997%,11.312866%,15.168762%);fill-opacity:1;" d="M 134.707031 12.925781 L 131.820312 12.925781 C 131.773438 13.113281 131.699219 13.332031 131.613281 13.605469 C 131.511719 13.875 131.390625 14.195312 131.242188 14.554688 L 129.15625 19.488281 L 127.824219 22.632812 L 130.710938 22.632812 L 132.300781 18.859375 C 132.769531 17.738281 133.25 16.972656 133.71875 16.527344 C 134.203125 16.085938 134.792969 15.863281 135.507812 15.863281 C 135.621094 15.863281 135.730469 15.863281 135.84375 15.875 C 135.953125 15.886719 136.078125 15.898438 136.1875 15.921875 L 136.71875 14.664062 L 137.542969 12.691406 C 137.507812 12.679688 137.46875 12.679688 137.421875 12.667969 C 137.371094 12.667969 137.296875 12.667969 137.210938 12.667969 C 137.050781 12.667969 136.878906 12.679688 136.71875 12.71875 C 136.371094 12.777344 136.027344 12.902344 135.695312 13.113281 C 135.199219 13.394531 134.695312 13.863281 134.164062 14.492188 C 134.289062 14.195312 134.386719 13.914062 134.484375 13.65625 C 134.582031 13.382812 134.65625 13.136719 134.707031 12.925781 "/>
<path style=" stroke:none;fill-rule:evenodd;fill:rgb(91.921997%,11.312866%,15.168762%);fill-opacity:1;" d="M 123.484375 22.621094 L 126.382812 22.621094 L 129.15625 16.046875 L 130.476562 12.902344 L 127.578125 12.902344 L 124.136719 21.078125 L 123.484375 22.621094 "/>
<path style=" stroke:none;fill-rule:evenodd;fill:rgb(91.921997%,11.312866%,15.168762%);fill-opacity:1;" d="M 131.054688 11.519531 L 132.253906 8.671875 L 129.355469 8.671875 L 129.15625 9.164062 L 128.15625 11.519531 L 131.054688 11.519531 "/>
<path style=" stroke:none;fill-rule:evenodd;fill:rgb(91.921997%,11.312866%,15.168762%);fill-opacity:1;" d="M 156.96875 26.285156 L 159.84375 26.285156 C 160.261719 25.628906 160.65625 25.027344 161.027344 24.445312 C 161.398438 23.890625 161.691406 23.460938 161.890625 23.175781 L 167.882812 14.972656 L 169.414062 12.890625 L 166.75 12.890625 L 162.691406 18.734375 L 163.519531 12.890625 L 160.472656 12.890625 L 159.621094 22.671875 L 157.980469 24.902344 L 156.96875 26.285156 "/>
<path style=" stroke:none;fill-rule:evenodd;fill:rgb(91.921997%,11.312866%,15.168762%);fill-opacity:1;" d="M 175.777344 13.382812 C 175.445312 12.851562 174.703125 12.59375 173.570312 12.59375 C 172.3125 12.59375 171.261719 12.851562 170.398438 13.382812 C 169.535156 13.914062 168.882812 14.703125 168.453125 15.726562 C 168.265625 16.160156 168.167969 16.554688 168.144531 16.898438 C 168.117188 17.230469 168.179688 17.515625 168.316406 17.710938 C 168.5625 18.09375 169.15625 18.425781 170.105469 18.710938 C 170.386719 18.796875 170.609375 18.871094 170.757812 18.921875 C 171.105469 19.03125 171.3125 19.15625 171.386719 19.277344 C 171.460938 19.414062 171.449219 19.585938 171.351562 19.820312 C 171.226562 20.105469 171.054688 20.316406 170.808594 20.460938 C 170.574219 20.609375 170.289062 20.671875 169.957031 20.671875 C 169.523438 20.671875 169.265625 20.574219 169.167969 20.363281 C 169.066406 20.15625 169.128906 19.808594 169.328125 19.328125 L 169.363281 19.230469 L 166.847656 19.230469 L 166.824219 19.265625 C 166.304688 20.5 166.21875 21.414062 166.5625 21.992188 C 166.800781 22.375 167.242188 22.632812 167.882812 22.757812 C 168.21875 22.816406 168.585938 22.855469 169.007812 22.855469 C 170.300781 22.855469 171.398438 22.570312 172.300781 22.015625 C 173.199219 21.460938 173.878906 20.636719 174.335938 19.550781 C 174.546875 19.042969 174.644531 18.613281 174.617188 18.253906 C 174.582031 17.886719 174.433594 17.5625 174.148438 17.292969 C 173.988281 17.121094 173.53125 16.898438 172.792969 16.625 C 172.523438 16.515625 172.3125 16.429688 172.152344 16.367188 C 171.707031 16.195312 171.449219 16.035156 171.363281 15.898438 C 171.277344 15.761719 171.277344 15.589844 171.375 15.367188 C 171.472656 15.132812 171.609375 14.960938 171.792969 14.839844 C 171.980469 14.714844 172.1875 14.640625 172.421875 14.640625 C 172.816406 14.640625 173.050781 14.726562 173.140625 14.898438 C 173.226562 15.074219 173.1875 15.355469 173.015625 15.777344 L 175.628906 15.777344 C 175.851562 15.222656 175.988281 14.726562 176 14.320312 L 176 14.125 C 175.988281 13.839844 175.914062 13.59375 175.777344 13.382812 "/>
<path style=" stroke:none;fill-rule:evenodd;fill:rgb(91.921997%,11.312866%,15.168762%);fill-opacity:1;" d="M 84.015625 22.621094 L 86.914062 22.621094 L 89.851562 15.628906 L 90.996094 12.902344 L 88.097656 12.902344 L 85.421875 19.289062 L 84.015625 22.621094 "/>
<path style=" stroke:none;fill-rule:evenodd;fill:rgb(91.921997%,11.312866%,15.168762%);fill-opacity:1;" d="M 78.945312 17.550781 C 79.304688 16.726562 79.710938 16.070312 80.167969 15.617188 C 80.265625 15.515625 80.351562 15.441406 80.453125 15.367188 C 80.820312 15.074219 81.191406 14.914062 81.574219 14.914062 C 82.03125 14.914062 82.277344 15.148438 82.339844 15.601562 C 82.386719 16.058594 82.238281 16.714844 81.894531 17.539062 C 81.550781 18.351562 81.15625 18.980469 80.710938 19.4375 C 80.625 19.523438 80.539062 19.597656 80.453125 19.671875 C 80.082031 19.96875 79.710938 20.117188 79.339844 20.117188 C 78.898438 20.117188 78.625 19.882812 78.566406 19.425781 C 78.492188 18.96875 78.625 18.339844 78.945312 17.550781 Z M 75.457031 19.203125 C 75.285156 19.917969 75.285156 20.550781 75.433594 21.066406 C 75.433594 21.089844 75.445312 21.117188 75.457031 21.140625 C 75.703125 21.929688 76.308594 22.324219 77.257812 22.324219 C 77.789062 22.324219 78.316406 22.1875 78.871094 21.90625 C 79.378906 21.644531 79.910156 21.25 80.453125 20.734375 C 80.488281 20.695312 80.527344 20.660156 80.574219 20.621094 L 80.453125 20.917969 L 80.117188 21.707031 C 79.675781 22.757812 79.269531 23.460938 78.898438 23.828125 C 78.515625 24.1875 78.046875 24.371094 77.46875 24.371094 C 77.074219 24.371094 76.8125 24.273438 76.714844 24.0625 C 76.617188 23.855469 76.652344 23.535156 76.824219 23.101562 L 73.867188 23.101562 L 73.828125 23.1875 C 73.371094 24.285156 73.347656 25.101562 73.753906 25.65625 C 74.074219 26.074219 74.644531 26.332031 75.457031 26.433594 C 75.703125 26.457031 75.988281 26.480469 76.28125 26.480469 C 77.898438 26.480469 79.269531 26.074219 80.367188 25.273438 C 80.390625 25.246094 80.414062 25.222656 80.453125 25.210938 C 81.511719 24.410156 82.402344 23.175781 83.089844 21.511719 L 85.421875 15.996094 L 86.175781 14.195312 C 86.222656 14.074219 86.308594 13.890625 86.421875 13.667969 C 86.53125 13.433594 86.667969 13.171875 86.816406 12.890625 L 83.84375 12.890625 C 83.707031 13.125 83.585938 13.359375 83.484375 13.554688 C 83.375 13.753906 83.289062 13.9375 83.214844 14.097656 C 83.089844 13.617188 82.882812 13.257812 82.574219 13.011719 C 82.265625 12.765625 81.859375 12.644531 81.363281 12.644531 C 81.054688 12.644531 80.746094 12.691406 80.453125 12.777344 C 79.761719 12.976562 79.082031 13.394531 78.390625 14.035156 C 77.40625 14.960938 76.589844 16.195312 75.949219 17.710938 C 75.714844 18.253906 75.554688 18.75 75.457031 19.203125 "/>
<path style=" stroke:none;fill-rule:evenodd;fill:rgb(91.921997%,11.312866%,15.168762%);fill-opacity:1;" d="M 91.578125 11.519531 L 92.773438 8.671875 L 89.875 8.671875 L 89.851562 8.734375 L 88.679688 11.519531 L 91.578125 11.519531 "/>
<path style=" stroke:none;fill-rule:evenodd;fill:rgb(91.921997%,11.312866%,15.168762%);fill-opacity:1;" d="M 119.722656 14.53125 L 121.546875 12 L 120.855469 17.070312 L 117.894531 17.070312 Z M 120.386719 20.09375 L 120.003906 22.621094 L 123.359375 22.621094 L 124.136719 15.023438 L 124.777344 8.671875 L 121.4375 8.671875 L 119.722656 10.953125 L 110.914062 22.621094 L 113.925781 22.621094 L 115.714844 20.09375 L 120.386719 20.09375 "/>
<path style=" stroke:none;fill-rule:evenodd;fill:rgb(91.921997%,11.312866%,15.168762%);fill-opacity:1;" d="M 54.082031 16.492188 C 54.316406 15.949219 54.613281 15.527344 54.96875 15.234375 C 55.144531 15.085938 55.316406 14.984375 55.515625 14.914062 C 55.710938 14.828125 55.933594 14.789062 56.167969 14.789062 C 56.574219 14.789062 56.832031 14.9375 56.929688 15.222656 C 57.03125 15.503906 56.96875 15.921875 56.746094 16.464844 L 56.683594 16.601562 L 54.03125 16.601562 Z M 50.554688 17.847656 C 49.828125 19.597656 49.617188 20.882812 49.9375 21.695312 C 50.097656 22.117188 50.417969 22.421875 50.875 22.632812 C 51.308594 22.816406 51.863281 22.917969 52.539062 22.917969 C 53.640625 22.917969 54.625 22.671875 55.515625 22.203125 C 55.625 22.140625 55.734375 22.078125 55.847656 22.003906 C 56.808594 21.398438 57.535156 20.550781 58.042969 19.453125 L 55.402344 19.453125 C 55.179688 19.882812 54.921875 20.203125 54.613281 20.425781 C 54.316406 20.648438 53.984375 20.757812 53.625 20.757812 C 53.167969 20.757812 52.898438 20.597656 52.8125 20.289062 C 52.726562 19.96875 52.8125 19.5 53.082031 18.859375 L 53.167969 18.636719 L 58.410156 18.636719 L 58.574219 18.253906 C 58.820312 17.675781 59.015625 17.132812 59.152344 16.652344 C 59.484375 15.554688 59.558594 14.691406 59.386719 14.050781 C 59.335938 13.851562 59.261719 13.667969 59.152344 13.519531 C 58.78125 12.9375 58.089844 12.644531 57.066406 12.644531 C 56.523438 12.644531 56.007812 12.71875 55.515625 12.851562 C 54.722656 13.0625 53.984375 13.445312 53.292969 13.988281 C 52.34375 14.753906 51.542969 15.8125 50.875 17.144531 C 50.765625 17.367188 50.667969 17.601562 50.554688 17.847656 "/>
<path style=" stroke:none;fill-rule:evenodd;fill:rgb(91.921997%,11.312866%,15.168762%);fill-opacity:1;" d="M 67.722656 22.632812 L 70.609375 22.632812 L 72.1875 18.859375 C 72.667969 17.738281 73.136719 16.972656 73.617188 16.527344 C 74.085938 16.085938 74.679688 15.863281 75.40625 15.863281 L 75.457031 15.863281 C 75.542969 15.863281 75.628906 15.875 75.726562 15.875 C 75.839844 15.886719 75.960938 15.898438 76.085938 15.921875 L 77.441406 12.691406 C 77.40625 12.679688 77.355469 12.679688 77.308594 12.667969 C 77.257812 12.667969 77.195312 12.667969 77.097656 12.667969 C 76.578125 12.667969 76.074219 12.816406 75.578125 13.113281 C 75.542969 13.136719 75.492188 13.160156 75.457031 13.1875 C 75 13.480469 74.53125 13.914062 74.050781 14.492188 C 74.171875 14.195312 74.285156 13.914062 74.371094 13.65625 C 74.46875 13.382812 74.542969 13.136719 74.59375 12.925781 L 71.707031 12.925781 C 71.65625 13.113281 71.597656 13.332031 71.496094 13.605469 C 71.398438 13.875 71.277344 14.195312 71.128906 14.554688 L 68.523438 20.734375 L 67.722656 22.632812 "/>
</g>
</svg>
