<svg xmlns="http://www.w3.org/2000/svg" width="176pt" height="30.587" viewBox="0 0 176 22.94"><defs><clipPath id="a"><path d="M0 0h24v22.941H0Zm0 0"/></clipPath></defs><g clip-path="url(#a)"><path d="M12.129 16.324c0-.773.332-.883 1.105-.441a51 51 0 0 0 2.645 1.433c0-.441.441-.773 1.215-.55.77.218 1.543.328 1.543.328s-.442-.992-.66-1.434c-.332-.77 0-1.21.328-1.32 0 0-.442-.332-.77-.55-.664-.442-.555-.997.11-1.216.882-.441 2.093-.883 2.093-.883-.328-.218-.77-.77-.328-1.543.438-.66 1.211-1.656 1.211-1.656h-2.094c-.773 0-.992-.66-.992-1.101 0 0-1.215.882-2.097 1.433-.77.551-1.434 0-1.325-.883.223-1.32.332-2.867.332-2.867-.441.442-1.21.332-1.652-.328-.55-1.105-1.102-2.426-1.102-2.426s-.554 1.32-1.105 2.426c-.328.66-1.102.77-1.543.441 0 0 .11 1.543.332 2.868.11.77-.55 1.32-1.324.77-.883-.552-2.207-1.434-2.207-1.434 0 .441-.219.992-.992 1.101H2.758s.77.996 1.21 1.656c.442.66 0 1.325-.327 1.543 0 0 1.101.551 2.093.883.66.332.883.774.11 1.215-.219.219-.77.55-.77.55.438.11.77.552.438 1.321-.219.442-.66 1.434-.66 1.434s.773-.219 1.543-.328c.773-.223 1.105.218 1.214.55 0 0 1.325-.773 2.649-1.433.66-.442 1.101-.223 1.101.441V18.2c0 1.102-.222 2.203-.55 2.867-4.965-.55-9.153-4.523-9.153-9.816 0-5.402 4.52-9.812 10.145-9.812 5.62 0 10.144 4.41 10.144 9.812 0 5.074-3.968 9.266-9.043 9.816v1.32c5.953-.55 10.586-5.292 10.586-11.136 0-6.285-5.293-11.246-11.797-11.246C5.293.004 0 4.964 0 11.14c0 5.402 4.082 9.925 9.484 10.918.883.218 1.434.328 1.985.882.55-1.105.66-3.308.66-4.523z" style="stroke:none;fill-rule:nonzero;fill:#ed1a2b;fill-opacity:1"/></g><path d="M62.086 10.59h1.21c3.2 0 3.86-.55 3.86-2.098 0-1.543-1.433-1.762-3.527-1.762h-1.543Zm-2.648 6.504V5.187h5.843c3.09 0 4.524 1.32 4.633 2.977 0 .77-.11 1.543-.66 2.094s-.774.773-1.766 1.324l4.41 5.625h-3.195l-3.973-5.074h-2.644v4.96zM37.383 12.355h4.082l-2.098-4.742Zm-4.078 4.739 5.18-11.907h3.199l5.183 11.907h-3.199l-1.434-3.196h-5.511l-1.434 3.196zM50.508 5.188h2.754v11.906h-2.754zM91.75 16.656c-1.324.551-2.977.77-4.965.77-2.312 0-4.187-.551-5.512-1.653q-1.985-1.657-1.984-4.632c0-1.985.66-3.641 1.984-4.633 1.325-1.102 3.2-1.653 5.735-1.653 1.543 0 3.086.11 4.742.442V7.28c-1.766-.55-3.418-.773-4.633-.773-1.543 0-2.644.441-3.527 1.215-.774.77-1.215 1.984-1.215 3.418 0 1.433.441 2.535 1.324 3.418.883.773 2.094 1.214 3.64 1.214 1.434 0 2.977-.332 4.411-.882zM99.36 12.355h4.078l-1.985-4.742Zm-4.192 4.739 5.184-11.907h3.199l5.18 11.907h-3.196l-1.433-3.196h-5.516l-1.434 3.196zM133.766 12.355h4.078l-2.094-4.742Zm-4.082 4.739 5.183-11.907h3.2l5.18 11.907h-3.196l-1.434-3.196h-5.515l-1.434 3.196zM167.617 5.188l-5.18 11.906h1.985l1.433-3.196h5.512l1.434 3.196H176l-5.184-11.907Zm.883 2.425 2.098 4.742h-4.082ZM112.703 17.094V5.187h3.195l7.5 8.489V5.188h2.317v11.906h-2.977l-7.718-8.93v8.93zM149.863 15.441h2.098c1.434 0 2.535-.332 3.309-1.101.77-.774 1.101-1.766 1.101-3.309 0-1.105-.332-2.097-.883-2.867-.441-.55-.883-.883-1.433-1.105-.551-.22-1.325-.329-2.426-.329h-1.652v8.711Zm-2.758 1.653V5.187h5.739c2.094 0 3.636.551 4.742 1.434 1.101.992 1.652 2.426 1.652 4.188 0 1.984-.55 3.53-1.765 4.523-1.211 1.102-2.754 1.652-4.852 1.652h-5.516z" style="stroke:none;fill-rule:nonzero;fill:#2a2521;fill-opacity:1"/></svg>