<?xml version="1.0" encoding="UTF-8"?>
<svg xmlns="http://www.w3.org/2000/svg" xmlns:xlink="http://www.w3.org/1999/xlink" width="176pt" height="50.77pt" viewBox="0 0 176 50.77" version="1.1">
<defs>
<clipPath id="clip1">
  <path d="M 148 43 L 156 43 L 156 50.769531 L 148 50.769531 Z M 148 43 "/>
</clipPath>
<clipPath id="clip2">
  <path d="M 0 42 L 112 42 L 112 50.769531 L 0 50.769531 Z M 0 42 "/>
</clipPath>
</defs>
<g id="surface1">
<path style=" stroke:none;fill-rule:nonzero;fill:rgb(13.204956%,18.682861%,37.097168%);fill-opacity:1;" d="M 15.382812 24.824219 L 19.894531 10.789062 L 24.402344 24.824219 Z M 40.691406 39.402344 L 67.597656 39.402344 L 67.597656 32.402344 L 52.351562 32.402344 L 66.597656 18.074219 L 66.597656 11.078125 L 41.691406 11.078125 L 41.691406 18.074219 L 55.019531 18.074219 L 40.691406 32.402344 Z M 70.234375 11.078125 L 79.59375 11.078125 L 79.59375 27.40625 C 79.59375 29.03125 79.464844 30.449219 80.773438 31.683594 C 81.917969 32.761719 83.679688 33.125 85.300781 32.703125 C 86.324219 32.4375 87.292969 31.855469 88.011719 30.945312 C 88.730469 30.035156 89.199219 28.796875 89.230469 27.207031 L 89.230469 11.078125 L 98.589844 11.078125 L 98.589844 39.402344 L 89.449219 39.402344 L 89.449219 35.59375 C 88.75 36.898438 87.636719 37.976562 86.289062 38.789062 C 84.945312 39.601562 83.371094 40.144531 81.746094 40.378906 C 80.121094 40.609375 78.449219 40.53125 76.90625 40.09375 C 75.367188 39.65625 73.957031 38.867188 72.859375 37.675781 C 70.644531 35.261719 70.226562 31.777344 70.234375 29.820312 Z M 101.597656 -0.00390625 L 110.957031 -0.00390625 L 110.957031 39.402344 L 101.597656 39.402344 Z M 14.699219 -0.00390625 L 0.121094 39.402344 L 10.699219 39.402344 L 12.867188 32.652344 L 26.917969 32.652344 L 29.089844 39.402344 L 39.667969 39.402344 L 25.089844 -0.00390625 L 14.699219 -0.00390625 "/>
<path style=" stroke:none;fill-rule:nonzero;fill:rgb(56.889343%,9.819031%,50.244141%);fill-opacity:1;" d="M 154.625 33.753906 L 161.074219 33.753906 L 161.074219 37.734375 L 163.363281 37.734375 L 163.363281 39.386719 L 154.625 39.386719 L 154.625 33.753906 "/>
<path style=" stroke:none;fill-rule:nonzero;fill:rgb(77.108765%,10.296631%,58.435059%);fill-opacity:1;" d="M 145.75 30.230469 L 154.90625 30.230469 L 154.90625 37.535156 L 151.222656 37.535156 L 151.222656 39.386719 L 145.75 39.386719 L 145.75 30.230469 "/>
<path style=" stroke:none;fill-rule:nonzero;fill:rgb(56.796265%,67.778015%,80.999756%);fill-opacity:1;" d="M 157.792969 45.398438 L 155.503906 45.398438 L 155.503906 43.308594 L 152.121094 43.308594 L 152.121094 41.8125 L 157.792969 41.8125 L 157.792969 45.398438 "/>
<path style=" stroke:none;fill-rule:nonzero;fill:rgb(42.253113%,79.589844%,69.758606%);fill-opacity:1;" d="M 159.382812 41.8125 L 151.222656 41.8125 L 151.222656 37.535156 L 154.90625 37.535156 L 154.90625 39.386719 L 159.382812 39.386719 L 159.382812 41.8125 "/>
<g clip-path="url(#clip1)" clip-rule="nonzero">
<path style=" stroke:none;fill-rule:nonzero;fill:rgb(94.056702%,24.255371%,11.885071%);fill-opacity:1;" d="M 155.503906 43.308594 L 155.503906 50.769531 L 148.039062 50.769531 L 148.039062 43.308594 L 155.503906 43.308594 "/>
</g>
<path style=" stroke:none;fill-rule:nonzero;fill:rgb(96.850586%,61.18927%,5.741882%);fill-opacity:1;" d="M 159.484375 26.691406 L 167.839844 26.691406 L 167.839844 37.039062 L 161.070312 37.039062 L 161.070312 33.753906 L 154.90625 33.753906 L 154.90625 32.261719 L 159.484375 32.261719 L 159.484375 26.691406 "/>
<path style=" stroke:none;fill-rule:nonzero;fill:rgb(56.889343%,9.819031%,50.244141%);fill-opacity:1;" d="M 163.363281 37.734375 L 161.070312 37.734375 L 161.070312 33.753906 L 154.90625 33.753906 L 154.90625 39.386719 L 163.363281 39.386719 L 163.363281 37.734375 "/>
<path style=" stroke:none;fill-rule:nonzero;fill:rgb(92.980957%,11.471558%,14.03656%);fill-opacity:1;" d="M 163.363281 39.386719 L 159.382812 39.386719 L 159.382812 39.914062 L 163.363281 39.914062 Z M 163.363281 37.039062 L 161.074219 37.039062 L 161.074219 37.734375 L 163.363281 37.734375 L 163.363281 37.039062 "/>
<path style=" stroke:none;fill-rule:nonzero;fill:rgb(56.796265%,67.778015%,80.999756%);fill-opacity:1;" d="M 163.363281 38.28125 L 163.363281 37.039062 L 167.839844 37.039062 L 167.839844 38.28125 L 163.363281 38.28125 "/>
<path style=" stroke:none;fill-rule:nonzero;fill:rgb(77.700806%,84.487915%,85.797119%);fill-opacity:1;" d="M 167.839844 30.917969 L 167.839844 35.796875 L 169.449219 35.796875 L 169.449219 30.917969 L 167.839844 30.917969 "/>
<path style=" stroke:none;fill-rule:nonzero;fill:rgb(21.347046%,49.432373%,74.385071%);fill-opacity:1;" d="M 161.109375 19.964844 L 161.109375 26.691406 L 167.839844 26.691406 L 167.839844 30.917969 L 169.449219 30.917969 L 169.449219 31.980469 L 170.835938 31.980469 L 170.835938 24.148438 L 170.25 24.148438 L 170.25 22.132812 L 170.835938 22.132812 L 170.835938 19.964844 L 161.109375 19.964844 "/>
<path style=" stroke:none;fill-rule:nonzero;fill:rgb(14.828491%,28.060913%,62.597656%);fill-opacity:1;" d="M 154.90625 24.703125 L 154.90625 32.261719 L 159.484375 32.261719 L 159.484375 26.691406 L 161.109375 26.691406 L 161.109375 24.703125 L 154.90625 24.703125 "/>
<path style=" stroke:none;fill-rule:nonzero;fill:rgb(80.860901%,93.119812%,84.344482%);fill-opacity:1;" d="M 154.90625 18.496094 L 144.027344 18.496094 L 144.027344 24.722656 L 143.460938 24.722656 L 143.460938 30.230469 L 154.90625 30.230469 L 154.90625 18.496094 "/>
<path style=" stroke:none;fill-rule:nonzero;fill:rgb(22.644043%,45.231628%,47.203064%);fill-opacity:1;" d="M 144.027344 24.722656 L 136.402344 24.722656 L 136.402344 21.671875 L 136.855469 21.671875 L 136.855469 18.496094 L 144.027344 18.496094 L 144.027344 24.722656 "/>
<path style=" stroke:none;fill-rule:nonzero;fill:rgb(97.654724%,67.036438%,4.6875%);fill-opacity:1;" d="M 125.835938 21.671875 L 125.835938 17.636719 L 136.855469 17.636719 L 136.855469 21.671875 L 125.835938 21.671875 "/>
<path style=" stroke:none;fill-rule:nonzero;fill:rgb(38.241577%,76.852417%,85.3302%);fill-opacity:1;" d="M 129.683594 5.125 L 146.621094 5.125 L 146.621094 18.496094 L 136.855469 18.496094 L 136.855469 17.636719 L 129.683594 17.636719 L 129.683594 5.125 "/>
<path style=" stroke:none;fill-rule:nonzero;fill:rgb(29.386902%,29.101562%,65.113831%);fill-opacity:1;" d="M 154.90625 13.785156 L 159.710938 13.785156 L 159.710938 7.917969 L 151.894531 7.917969 L 151.894531 4.257812 L 144.078125 4.257812 L 144.078125 5.125 L 146.621094 5.125 L 146.621094 18.496094 L 154.90625 18.496094 L 154.90625 13.785156 "/>
<path style=" stroke:none;fill-rule:nonzero;fill:rgb(28.526306%,69.587708%,22.428894%);fill-opacity:1;" d="M 138.183594 0.597656 L 138.183594 7.855469 L 144.078125 7.855469 L 144.078125 0.597656 L 138.183594 0.597656 "/>
<path style=" stroke:none;fill-rule:nonzero;fill:rgb(76.611328%,89.146423%,31.738281%);fill-opacity:1;" d="M 156.199219 0.90625 L 156.199219 7.917969 L 151.894531 7.917969 L 151.894531 0.90625 L 156.199219 0.90625 "/>
<path style=" stroke:none;fill-rule:nonzero;fill:rgb(69.458008%,88.374329%,61.656189%);fill-opacity:1;" d="M 154.90625 24.703125 L 161.109375 24.703125 L 161.109375 17.222656 L 159.710938 17.222656 L 159.710938 13.785156 L 154.90625 13.785156 L 154.90625 24.703125 "/>
<path style=" stroke:none;fill-rule:nonzero;fill:rgb(56.274414%,84.802246%,73.945618%);fill-opacity:1;" d="M 165.730469 7.917969 L 165.730469 17.222656 L 159.710938 17.222656 L 159.710938 7.917969 L 165.730469 7.917969 "/>
<path style=" stroke:none;fill-rule:nonzero;fill:rgb(29.386902%,29.101562%,65.113831%);fill-opacity:1;" d="M 159.710938 4.941406 L 159.710938 7.136719 L 157.113281 7.136719 L 157.113281 4.941406 L 159.710938 4.941406 "/>
<path style=" stroke:none;fill-rule:nonzero;fill:rgb(92.869568%,9.005737%,21.446228%);fill-opacity:1;" d="M 170.25 24.148438 L 170.25 22.132812 L 173.769531 22.132812 L 173.769531 24.148438 L 170.25 24.148438 "/>
<path style=" stroke:none;fill-rule:nonzero;fill:rgb(56.886292%,83.694458%,47.23053%);fill-opacity:1;" d="M 175.183594 22.132812 L 175.183594 19.300781 L 170.835938 19.300781 L 170.835938 22.132812 L 175.183594 22.132812 "/>
<path style=" stroke:none;fill-rule:nonzero;fill:rgb(57.046509%,78.363037%,83.839417%);fill-opacity:1;" d="M 176 18.183594 L 171.109375 18.183594 L 171.109375 17.242188 L 168.105469 17.242188 L 168.105469 19.964844 L 170.835938 19.964844 L 170.835938 19.300781 L 175.183594 19.300781 L 175.183594 19.964844 L 176 19.964844 L 176 18.183594 "/>
<path style=" stroke:none;fill-rule:nonzero;fill:rgb(97.711182%,84.866333%,2.061462%);fill-opacity:1;" d="M 171.109375 18.183594 L 171.109375 15.566406 L 176 15.566406 L 176 18.183594 L 171.109375 18.183594 "/>
<path style=" stroke:none;fill-rule:nonzero;fill:rgb(93.986511%,93.417358%,7.99408%);fill-opacity:1;" d="M 168.105469 17.242188 L 169.179688 17.242188 L 169.179688 9.648438 L 165.730469 9.648438 L 165.730469 17.222656 L 161.109375 17.222656 L 161.109375 19.964844 L 168.105469 19.964844 L 168.105469 17.242188 "/>
<path style=" stroke:none;fill-rule:nonzero;fill:rgb(93.777466%,16.719055%,59.14917%);fill-opacity:1;" d="M 171.109375 17.242188 L 169.179688 17.242188 L 169.179688 11.0625 L 173.039062 11.0625 L 173.039062 12.953125 L 172.183594 12.953125 L 172.183594 15.566406 L 171.109375 15.566406 L 171.109375 17.242188 "/>
<path style=" stroke:none;fill-rule:nonzero;fill:rgb(41.091919%,12.937927%,47.63031%);fill-opacity:1;" d="M 175.613281 12.953125 L 175.613281 15.566406 L 172.183594 15.566406 L 172.183594 12.953125 L 175.613281 12.953125 "/>
<g clip-path="url(#clip2)" clip-rule="nonzero">
<path style=" stroke:none;fill-rule:nonzero;fill:rgb(26.725769%,65.748596%,80.258179%);fill-opacity:1;" d="M 5.460938 50.082031 L 5.460938 44.925781 L 6.335938 44.925781 L 6.335938 50.082031 Z M 5.460938 43.972656 L 5.460938 42.964844 L 6.335938 42.964844 L 6.335938 43.972656 Z M 7.667969 50.082031 L 7.667969 44.925781 L 8.453125 44.925781 L 8.453125 45.660156 C 8.832031 45.09375 9.378906 44.808594 10.09375 44.808594 C 10.40625 44.808594 10.691406 44.867188 10.949219 44.976562 C 11.210938 45.089844 11.40625 45.234375 11.535156 45.417969 C 11.664062 45.597656 11.753906 45.8125 11.808594 46.0625 C 11.839844 46.222656 11.855469 46.507812 11.855469 46.914062 L 11.855469 50.082031 L 10.980469 50.082031 L 10.980469 46.945312 C 10.980469 46.589844 10.949219 46.324219 10.878906 46.144531 C 10.8125 45.972656 10.691406 45.828125 10.519531 45.726562 C 10.34375 45.621094 10.144531 45.566406 9.910156 45.566406 C 9.535156 45.566406 9.214844 45.6875 8.945312 45.921875 C 8.675781 46.160156 8.539062 46.605469 8.539062 47.265625 L 8.539062 50.082031 Z M 13.195312 50.082031 L 13.195312 42.964844 L 14.070312 42.964844 L 14.070312 45.519531 C 14.476562 45.046875 14.992188 44.808594 15.613281 44.808594 C 15.996094 44.808594 16.328125 44.886719 16.609375 45.035156 C 16.890625 45.183594 17.09375 45.394531 17.214844 45.660156 C 17.335938 45.925781 17.394531 46.3125 17.394531 46.8125 L 17.394531 50.082031 L 16.519531 50.082031 L 16.519531 46.8125 C 16.519531 46.378906 16.425781 46.0625 16.238281 45.863281 C 16.046875 45.664062 15.78125 45.5625 15.433594 45.5625 C 15.175781 45.5625 14.929688 45.628906 14.703125 45.765625 C 14.472656 45.898438 14.3125 46.082031 14.214844 46.3125 C 14.117188 46.539062 14.070312 46.859375 14.070312 47.261719 L 14.070312 50.082031 Z M 22.015625 47.492188 C 21.699219 47.625 21.222656 47.734375 20.589844 47.824219 C 20.230469 47.875 19.976562 47.933594 19.828125 48 C 19.679688 48.0625 19.5625 48.15625 19.484375 48.285156 C 19.402344 48.410156 19.359375 48.546875 19.359375 48.699219 C 19.359375 48.933594 19.449219 49.125 19.625 49.28125 C 19.800781 49.433594 20.058594 49.511719 20.398438 49.511719 C 20.734375 49.511719 21.035156 49.441406 21.296875 49.292969 C 21.558594 49.144531 21.753906 48.945312 21.875 48.6875 C 21.96875 48.492188 22.015625 48.199219 22.015625 47.816406 Z M 22.089844 49.445312 C 21.765625 49.722656 21.453125 49.914062 21.15625 50.027344 C 20.855469 50.140625 20.535156 50.199219 20.191406 50.199219 C 19.625 50.199219 19.191406 50.058594 18.886719 49.785156 C 18.582031 49.507812 18.429688 49.152344 18.429688 48.722656 C 18.429688 48.46875 18.484375 48.238281 18.601562 48.03125 C 18.714844 47.820312 18.867188 47.65625 19.050781 47.527344 C 19.238281 47.402344 19.449219 47.308594 19.683594 47.242188 C 19.851562 47.195312 20.109375 47.152344 20.457031 47.109375 C 21.164062 47.027344 21.683594 46.925781 22.015625 46.808594 C 22.019531 46.691406 22.023438 46.613281 22.023438 46.582031 C 22.023438 46.226562 21.9375 45.972656 21.773438 45.828125 C 21.550781 45.632812 21.21875 45.535156 20.777344 45.535156 C 20.367188 45.535156 20.066406 45.605469 19.867188 45.75 C 19.671875 45.894531 19.527344 46.148438 19.433594 46.515625 L 18.582031 46.398438 C 18.65625 46.03125 18.785156 45.734375 18.964844 45.511719 C 19.140625 45.285156 19.398438 45.113281 19.734375 44.992188 C 20.070312 44.871094 20.460938 44.808594 20.90625 44.808594 C 21.347656 44.808594 21.703125 44.863281 21.976562 44.964844 C 22.253906 45.070312 22.453125 45.199219 22.585938 45.355469 C 22.714844 45.515625 22.804688 45.710938 22.855469 45.949219 C 22.886719 46.101562 22.902344 46.367188 22.902344 46.757812 L 22.902344 47.921875 C 22.902344 48.734375 22.917969 49.25 22.957031 49.460938 C 22.992188 49.675781 23.066406 49.882812 23.175781 50.082031 L 22.265625 50.082031 C 22.175781 49.902344 22.113281 49.6875 22.089844 49.445312 Z M 23.90625 48.542969 L 24.769531 48.40625 C 24.816406 48.753906 24.953125 49.019531 25.175781 49.203125 C 25.394531 49.386719 25.707031 49.480469 26.105469 49.480469 C 26.507812 49.480469 26.804688 49.398438 26.996094 49.234375 C 27.191406 49.070312 27.289062 48.878906 27.289062 48.660156 C 27.289062 48.460938 27.203125 48.308594 27.03125 48.191406 C 26.910156 48.113281 26.613281 48.015625 26.136719 47.898438 C 25.5 47.734375 25.050781 47.597656 24.804688 47.476562 C 24.558594 47.359375 24.371094 47.195312 24.242188 46.988281 C 24.113281 46.777344 24.050781 46.546875 24.050781 46.296875 C 24.050781 46.066406 24.101562 45.851562 24.210938 45.65625 C 24.3125 45.460938 24.457031 45.296875 24.636719 45.167969 C 24.773438 45.070312 24.960938 44.984375 25.195312 44.914062 C 25.429688 44.84375 25.679688 44.808594 25.949219 44.808594 C 26.351562 44.808594 26.707031 44.871094 27.015625 44.984375 C 27.320312 45.101562 27.546875 45.257812 27.691406 45.457031 C 27.839844 45.65625 27.9375 45.921875 27.992188 46.257812 L 27.140625 46.375 C 27.097656 46.109375 26.984375 45.902344 26.800781 45.753906 C 26.613281 45.601562 26.351562 45.527344 26.011719 45.527344 C 25.609375 45.527344 25.324219 45.59375 25.152344 45.726562 C 24.980469 45.859375 24.894531 46.015625 24.894531 46.191406 C 24.894531 46.308594 24.933594 46.410156 25.003906 46.5 C 25.074219 46.59375 25.183594 46.671875 25.339844 46.734375 C 25.425781 46.765625 25.683594 46.839844 26.109375 46.957031 C 26.726562 47.121094 27.160156 47.253906 27.402344 47.359375 C 27.648438 47.464844 27.839844 47.621094 27.976562 47.820312 C 28.117188 48.019531 28.1875 48.269531 28.1875 48.566406 C 28.1875 48.859375 28.101562 49.132812 27.933594 49.390625 C 27.761719 49.648438 27.515625 49.847656 27.195312 49.988281 C 26.878906 50.128906 26.515625 50.199219 26.109375 50.199219 C 25.4375 50.199219 24.929688 50.058594 24.578125 49.78125 C 24.226562 49.503906 24.003906 49.089844 23.90625 48.542969 Z M 32.824219 47.160156 L 35.238281 47.160156 L 34.492188 45.1875 C 34.269531 44.589844 34.097656 44.097656 33.988281 43.710938 C 33.898438 44.167969 33.769531 44.621094 33.605469 45.074219 Z M 30.769531 50.082031 L 33.503906 42.964844 L 34.519531 42.964844 L 37.429688 50.082031 L 36.355469 50.082031 L 35.527344 47.925781 L 32.550781 47.925781 L 31.769531 50.082031 Z M 39.671875 44.285156 L 40.320312 42.925781 L 41.464844 42.925781 L 40.398438 44.285156 Z M 38.730469 47.007812 L 41.609375 47.007812 C 41.570312 46.574219 41.460938 46.25 41.28125 46.035156 C 41 45.699219 40.640625 45.527344 40.199219 45.527344 C 39.796875 45.527344 39.457031 45.664062 39.183594 45.929688 C 38.910156 46.199219 38.761719 46.558594 38.730469 47.007812 Z M 41.597656 48.421875 L 42.503906 48.53125 C 42.359375 49.0625 42.097656 49.472656 41.710938 49.761719 C 41.328125 50.050781 40.835938 50.199219 40.234375 50.199219 C 39.480469 50.199219 38.882812 49.964844 38.445312 49.503906 C 38 49.039062 37.78125 48.386719 37.78125 47.546875 C 37.78125 46.679688 38.003906 46.007812 38.449219 45.527344 C 38.898438 45.050781 39.476562 44.808594 40.1875 44.808594 C 40.878906 44.808594 41.441406 45.042969 41.878906 45.515625 C 42.3125 45.984375 42.53125 46.644531 42.53125 47.492188 C 42.53125 47.546875 42.53125 47.625 42.527344 47.726562 L 38.683594 47.726562 C 38.714844 48.292969 38.875 48.726562 39.164062 49.027344 C 39.453125 49.328125 39.808594 49.480469 40.242188 49.480469 C 40.558594 49.480469 40.835938 49.394531 41.0625 49.226562 C 41.289062 49.058594 41.46875 48.792969 41.597656 48.421875 Z M 43.59375 50.082031 L 43.59375 44.925781 L 44.378906 44.925781 L 44.378906 45.707031 C 44.578125 45.34375 44.761719 45.101562 44.933594 44.984375 C 45.101562 44.871094 45.289062 44.808594 45.492188 44.808594 C 45.789062 44.808594 46.085938 44.902344 46.390625 45.089844 L 46.089844 45.902344 C 45.878906 45.773438 45.664062 45.710938 45.449219 45.710938 C 45.257812 45.710938 45.089844 45.769531 44.933594 45.886719 C 44.78125 46 44.675781 46.160156 44.609375 46.363281 C 44.511719 46.671875 44.464844 47.011719 44.464844 47.382812 L 44.464844 50.082031 Z M 47.570312 47.007812 L 50.449219 47.007812 C 50.410156 46.574219 50.300781 46.25 50.121094 46.035156 C 49.84375 45.699219 49.480469 45.527344 49.039062 45.527344 C 48.636719 45.527344 48.296875 45.664062 48.027344 45.929688 C 47.753906 46.199219 47.601562 46.558594 47.570312 47.007812 Z M 50.441406 48.421875 L 51.34375 48.53125 C 51.199219 49.0625 50.9375 49.472656 50.550781 49.761719 C 50.167969 50.050781 49.675781 50.199219 49.078125 50.199219 C 48.324219 50.199219 47.722656 49.964844 47.285156 49.503906 C 46.839844 49.039062 46.621094 48.386719 46.621094 47.546875 C 46.621094 46.679688 46.84375 46.007812 47.289062 45.527344 C 47.738281 45.050781 48.316406 44.808594 49.027344 44.808594 C 49.71875 44.808594 50.28125 45.042969 50.71875 45.515625 C 51.15625 45.984375 51.371094 46.644531 51.371094 47.492188 C 51.371094 47.546875 51.371094 47.625 51.367188 47.726562 L 47.523438 47.726562 C 47.554688 48.292969 47.714844 48.726562 48.003906 49.027344 C 48.292969 49.328125 48.652344 49.480469 49.082031 49.480469 C 49.402344 49.480469 49.675781 49.394531 49.902344 49.226562 C 50.128906 49.058594 50.308594 48.792969 50.441406 48.421875 Z M 55.730469 47.492188 C 55.414062 47.625 54.9375 47.734375 54.304688 47.824219 C 53.945312 47.875 53.691406 47.933594 53.542969 48 C 53.394531 48.0625 53.277344 48.15625 53.199219 48.285156 C 53.117188 48.410156 53.078125 48.546875 53.078125 48.699219 C 53.078125 48.933594 53.164062 49.125 53.34375 49.28125 C 53.519531 49.433594 53.777344 49.511719 54.113281 49.511719 C 54.453125 49.511719 54.75 49.441406 55.015625 49.292969 C 55.273438 49.144531 55.46875 48.945312 55.59375 48.6875 C 55.6875 48.492188 55.730469 48.199219 55.730469 47.816406 Z M 55.804688 49.445312 C 55.480469 49.722656 55.167969 49.914062 54.871094 50.027344 C 54.570312 50.140625 54.25 50.199219 53.90625 50.199219 C 53.339844 50.199219 52.90625 50.058594 52.601562 49.785156 C 52.296875 49.507812 52.144531 49.152344 52.144531 48.722656 C 52.144531 48.46875 52.203125 48.238281 52.316406 48.03125 C 52.433594 47.820312 52.582031 47.65625 52.769531 47.527344 C 52.957031 47.402344 53.164062 47.308594 53.398438 47.242188 C 53.570312 47.195312 53.828125 47.152344 54.171875 47.109375 C 54.878906 47.027344 55.398438 46.925781 55.730469 46.808594 C 55.734375 46.691406 55.738281 46.613281 55.738281 46.582031 C 55.738281 46.226562 55.65625 45.972656 55.488281 45.828125 C 55.265625 45.632812 54.933594 45.535156 54.496094 45.535156 C 54.085938 45.535156 53.78125 45.605469 53.582031 45.75 C 53.386719 45.894531 53.242188 46.148438 53.148438 46.515625 L 52.296875 46.398438 C 52.375 46.03125 52.5 45.734375 52.679688 45.511719 C 52.855469 45.285156 53.113281 45.113281 53.449219 44.992188 C 53.785156 44.871094 54.175781 44.808594 54.621094 44.808594 C 55.0625 44.808594 55.417969 44.863281 55.691406 44.964844 C 55.96875 45.070312 56.171875 45.199219 56.300781 45.355469 C 56.429688 45.515625 56.519531 45.710938 56.574219 45.949219 C 56.601562 46.101562 56.617188 46.367188 56.617188 46.757812 L 56.617188 47.921875 C 56.617188 48.734375 56.632812 49.25 56.671875 49.460938 C 56.707031 49.675781 56.78125 49.882812 56.894531 50.082031 L 55.980469 50.082031 C 55.890625 49.902344 55.832031 49.6875 55.804688 49.445312 Z M 57.621094 48.542969 L 58.484375 48.40625 C 58.53125 48.753906 58.667969 49.019531 58.890625 49.203125 C 59.109375 49.386719 59.421875 49.480469 59.820312 49.480469 C 60.222656 49.480469 60.519531 49.398438 60.714844 49.234375 C 60.90625 49.070312 61.003906 48.878906 61.003906 48.660156 C 61.003906 48.460938 60.917969 48.308594 60.746094 48.191406 C 60.628906 48.113281 60.328125 48.015625 59.851562 47.898438 C 59.214844 47.734375 58.769531 47.597656 58.523438 47.476562 C 58.273438 47.359375 58.085938 47.195312 57.957031 46.988281 C 57.832031 46.777344 57.765625 46.546875 57.765625 46.296875 C 57.765625 46.066406 57.820312 45.851562 57.925781 45.65625 C 58.03125 45.460938 58.171875 45.296875 58.355469 45.167969 C 58.488281 45.070312 58.675781 44.984375 58.910156 44.914062 C 59.144531 44.84375 59.394531 44.808594 59.664062 44.808594 C 60.070312 44.808594 60.421875 44.871094 60.730469 44.984375 C 61.035156 45.101562 61.261719 45.257812 61.40625 45.457031 C 61.554688 45.65625 61.652344 45.921875 61.707031 46.257812 L 60.855469 46.375 C 60.816406 46.109375 60.703125 45.902344 60.515625 45.753906 C 60.332031 45.601562 60.066406 45.527344 59.726562 45.527344 C 59.328125 45.527344 59.039062 45.59375 58.867188 45.726562 C 58.699219 45.859375 58.609375 46.015625 58.609375 46.191406 C 58.609375 46.308594 58.648438 46.410156 58.71875 46.5 C 58.789062 46.59375 58.902344 46.671875 59.054688 46.734375 C 59.140625 46.765625 59.398438 46.839844 59.824219 46.957031 C 60.445312 47.121094 60.875 47.253906 61.117188 47.359375 C 61.363281 47.464844 61.554688 47.621094 61.695312 47.820312 C 61.832031 48.019531 61.902344 48.269531 61.902344 48.566406 C 61.902344 48.859375 61.816406 49.132812 61.648438 49.390625 C 61.476562 49.648438 61.230469 49.847656 60.914062 49.988281 C 60.59375 50.128906 60.230469 50.199219 59.824219 50.199219 C 59.15625 50.199219 58.644531 50.058594 58.292969 49.78125 C 57.941406 49.503906 57.71875 49.089844 57.621094 48.542969 Z M 66.71875 49.242188 L 68.488281 49.242188 C 68.792969 49.242188 69.007812 49.230469 69.132812 49.207031 C 69.347656 49.167969 69.53125 49.105469 69.675781 49.011719 C 69.820312 48.925781 69.941406 48.792969 70.035156 48.617188 C 70.128906 48.445312 70.175781 48.246094 70.175781 48.019531 C 70.175781 47.753906 70.105469 47.523438 69.972656 47.328125 C 69.835938 47.132812 69.648438 46.992188 69.40625 46.914062 C 69.164062 46.835938 68.816406 46.796875 68.363281 46.796875 L 66.71875 46.796875 Z M 66.71875 45.957031 L 68.257812 45.957031 C 68.675781 45.957031 68.972656 45.925781 69.15625 45.875 C 69.394531 45.800781 69.574219 45.683594 69.695312 45.519531 C 69.816406 45.351562 69.878906 45.144531 69.878906 44.898438 C 69.878906 44.660156 69.824219 44.453125 69.710938 44.273438 C 69.59375 44.09375 69.433594 43.972656 69.222656 43.90625 C 69.015625 43.839844 68.652344 43.804688 68.140625 43.804688 L 66.71875 43.804688 Z M 65.777344 50.082031 L 65.777344 42.964844 L 68.445312 42.964844 C 68.988281 42.964844 69.425781 43.039062 69.753906 43.179688 C 70.085938 43.324219 70.339844 43.546875 70.527344 43.847656 C 70.710938 44.144531 70.804688 44.457031 70.804688 44.785156 C 70.804688 45.089844 70.722656 45.375 70.558594 45.644531 C 70.394531 45.914062 70.144531 46.128906 69.808594 46.296875 C 70.242188 46.421875 70.570312 46.636719 70.804688 46.941406 C 71.035156 47.246094 71.152344 47.605469 71.152344 48.019531 C 71.152344 48.351562 71.082031 48.660156 70.9375 48.949219 C 70.796875 49.234375 70.625 49.457031 70.417969 49.609375 C 70.210938 49.765625 69.949219 49.882812 69.640625 49.960938 C 69.328125 50.042969 68.945312 50.082031 68.488281 50.082031 Z M 72.328125 50.082031 L 72.328125 44.925781 L 73.109375 44.925781 L 73.109375 45.707031 C 73.3125 45.34375 73.496094 45.101562 73.667969 44.984375 C 73.835938 44.871094 74.023438 44.808594 74.226562 44.808594 C 74.523438 44.808594 74.820312 44.902344 75.125 45.089844 L 74.824219 45.902344 C 74.613281 45.773438 74.398438 45.710938 74.183594 45.710938 C 73.992188 45.710938 73.824219 45.769531 73.667969 45.886719 C 73.519531 46 73.410156 46.160156 73.34375 46.363281 C 73.246094 46.671875 73.199219 47.011719 73.199219 47.382812 L 73.199219 50.082031 Z M 78.9375 47.492188 C 78.621094 47.625 78.144531 47.734375 77.511719 47.824219 C 77.152344 47.875 76.898438 47.933594 76.75 48 C 76.597656 48.0625 76.484375 48.15625 76.402344 48.285156 C 76.324219 48.410156 76.28125 48.546875 76.28125 48.699219 C 76.28125 48.933594 76.371094 49.125 76.546875 49.28125 C 76.722656 49.433594 76.980469 49.511719 77.320312 49.511719 C 77.65625 49.511719 77.957031 49.441406 78.21875 49.292969 C 78.480469 49.144531 78.675781 48.945312 78.796875 48.6875 C 78.890625 48.492188 78.9375 48.199219 78.9375 47.816406 Z M 79.011719 49.445312 C 78.683594 49.722656 78.375 49.914062 78.074219 50.027344 C 77.777344 50.140625 77.453125 50.199219 77.113281 50.199219 C 76.542969 50.199219 76.109375 50.058594 75.804688 49.785156 C 75.503906 49.507812 75.351562 49.152344 75.351562 48.722656 C 75.351562 48.46875 75.40625 48.238281 75.523438 48.03125 C 75.636719 47.820312 75.789062 47.65625 75.972656 47.527344 C 76.160156 47.402344 76.367188 47.308594 76.601562 47.242188 C 76.773438 47.195312 77.03125 47.152344 77.378906 47.109375 C 78.085938 47.027344 78.605469 46.925781 78.9375 46.808594 C 78.941406 46.691406 78.941406 46.613281 78.941406 46.582031 C 78.941406 46.226562 78.859375 45.972656 78.695312 45.828125 C 78.472656 45.632812 78.140625 45.535156 77.699219 45.535156 C 77.289062 45.535156 76.984375 45.605469 76.789062 45.75 C 76.59375 45.894531 76.449219 46.148438 76.355469 46.515625 L 75.5 46.398438 C 75.578125 46.03125 75.707031 45.734375 75.882812 45.511719 C 76.0625 45.285156 76.320312 45.113281 76.65625 44.992188 C 76.992188 44.871094 77.382812 44.808594 77.824219 44.808594 C 78.265625 44.808594 78.621094 44.863281 78.898438 44.964844 C 79.171875 45.070312 79.375 45.199219 79.507812 45.355469 C 79.636719 45.515625 79.722656 45.710938 79.777344 45.949219 C 79.804688 46.101562 79.820312 46.367188 79.820312 46.757812 L 79.820312 47.921875 C 79.820312 48.734375 79.839844 49.25 79.878906 49.460938 C 79.914062 49.675781 79.988281 49.882812 80.097656 50.082031 L 79.183594 50.082031 C 79.09375 49.902344 79.035156 49.6875 79.011719 49.445312 Z M 80.828125 48.542969 L 81.691406 48.40625 C 81.738281 48.753906 81.875 49.019531 82.09375 49.203125 C 82.316406 49.386719 82.625 49.480469 83.027344 49.480469 C 83.425781 49.480469 83.726562 49.398438 83.917969 49.234375 C 84.113281 49.070312 84.210938 48.878906 84.210938 48.660156 C 84.210938 48.460938 84.125 48.308594 83.953125 48.191406 C 83.832031 48.113281 83.535156 48.015625 83.058594 47.898438 C 82.417969 47.734375 81.972656 47.597656 81.726562 47.476562 C 81.480469 47.359375 81.289062 47.195312 81.164062 46.988281 C 81.035156 46.777344 80.96875 46.546875 80.96875 46.296875 C 80.96875 46.066406 81.023438 45.851562 81.128906 45.65625 C 81.234375 45.460938 81.378906 45.296875 81.558594 45.167969 C 81.695312 45.070312 81.878906 44.984375 82.113281 44.914062 C 82.347656 44.84375 82.601562 44.808594 82.871094 44.808594 C 83.273438 44.808594 83.628906 44.871094 83.933594 44.984375 C 84.242188 45.101562 84.46875 45.257812 84.613281 45.457031 C 84.757812 45.65625 84.859375 45.921875 84.914062 46.257812 L 84.058594 46.375 C 84.019531 46.109375 83.90625 45.902344 83.722656 45.753906 C 83.535156 45.601562 83.273438 45.527344 82.933594 45.527344 C 82.53125 45.527344 82.246094 45.59375 82.074219 45.726562 C 81.902344 45.859375 81.816406 46.015625 81.816406 46.191406 C 81.816406 46.308594 81.851562 46.410156 81.921875 46.5 C 81.996094 46.59375 82.105469 46.671875 82.257812 46.734375 C 82.347656 46.765625 82.601562 46.839844 83.03125 46.957031 C 83.648438 47.121094 84.078125 47.253906 84.324219 47.359375 C 84.566406 47.464844 84.761719 47.621094 84.898438 47.820312 C 85.039062 48.019531 85.109375 48.269531 85.109375 48.566406 C 85.109375 48.859375 85.023438 49.132812 84.851562 49.390625 C 84.683594 49.648438 84.4375 49.847656 84.117188 49.988281 C 83.796875 50.128906 83.433594 50.199219 83.03125 50.199219 C 82.359375 50.199219 81.847656 50.058594 81.496094 49.78125 C 81.148438 49.503906 80.921875 49.089844 80.828125 48.542969 Z M 86.152344 50.082031 L 86.152344 44.925781 L 87.027344 44.925781 L 87.027344 50.082031 Z M 86.152344 43.972656 L 86.152344 42.964844 L 87.027344 42.964844 L 87.027344 43.972656 Z M 88.335938 50.082031 L 88.335938 42.964844 L 89.210938 42.964844 L 89.210938 50.082031 Z M 91.222656 47.007812 L 94.101562 47.007812 C 94.066406 46.574219 93.953125 46.25 93.773438 46.035156 C 93.496094 45.699219 93.132812 45.527344 92.691406 45.527344 C 92.289062 45.527344 91.953125 45.664062 91.679688 45.929688 C 91.40625 46.199219 91.253906 46.558594 91.222656 47.007812 Z M 94.09375 48.421875 L 94.996094 48.53125 C 94.851562 49.0625 94.589844 49.472656 94.207031 49.761719 C 93.820312 50.050781 93.328125 50.199219 92.730469 50.199219 C 91.976562 50.199219 91.378906 49.964844 90.9375 49.503906 C 90.492188 49.039062 90.273438 48.386719 90.273438 47.546875 C 90.273438 46.679688 90.496094 46.007812 90.941406 45.527344 C 91.390625 45.050781 91.96875 44.808594 92.679688 44.808594 C 93.371094 44.808594 93.933594 45.042969 94.371094 45.515625 C 94.804688 45.984375 95.027344 46.644531 95.027344 47.492188 C 95.027344 47.546875 95.023438 47.625 95.019531 47.726562 L 91.175781 47.726562 C 91.207031 48.292969 91.367188 48.726562 91.65625 49.027344 C 91.945312 49.328125 92.300781 49.480469 92.734375 49.480469 C 93.054688 49.480469 93.328125 49.394531 93.554688 49.226562 C 93.78125 49.058594 93.960938 48.792969 94.09375 48.421875 Z M 96.097656 50.082031 L 96.097656 44.925781 L 96.972656 44.925781 L 96.972656 50.082031 Z M 96.097656 43.972656 L 96.097656 42.964844 L 96.972656 42.964844 L 96.972656 43.972656 Z M 98.292969 50.082031 L 98.292969 44.925781 L 99.078125 44.925781 L 99.078125 45.707031 C 99.28125 45.34375 99.464844 45.101562 99.636719 44.984375 C 99.804688 44.871094 99.992188 44.808594 100.195312 44.808594 C 100.492188 44.808594 100.789062 44.902344 101.09375 45.089844 L 100.792969 45.902344 C 100.578125 45.773438 100.367188 45.710938 100.152344 45.710938 C 99.960938 45.710938 99.789062 45.769531 99.636719 45.886719 C 99.484375 46 99.378906 46.160156 99.3125 46.363281 C 99.214844 46.671875 99.167969 47.011719 99.167969 47.382812 L 99.167969 50.082031 Z M 104.90625 47.492188 C 104.585938 47.625 104.113281 47.734375 103.476562 47.824219 C 103.117188 47.875 102.863281 47.933594 102.714844 48 C 102.566406 48.0625 102.449219 48.15625 102.371094 48.285156 C 102.289062 48.410156 102.25 48.546875 102.25 48.699219 C 102.25 48.933594 102.339844 49.125 102.515625 49.28125 C 102.6875 49.433594 102.949219 49.511719 103.289062 49.511719 C 103.625 49.511719 103.925781 49.441406 104.1875 49.292969 C 104.449219 49.144531 104.640625 48.945312 104.765625 48.6875 C 104.859375 48.492188 104.90625 48.199219 104.90625 47.816406 Z M 104.976562 49.445312 C 104.652344 49.722656 104.339844 49.914062 104.042969 50.027344 C 103.742188 50.140625 103.421875 50.199219 103.078125 50.199219 C 102.511719 50.199219 102.078125 50.058594 101.773438 49.785156 C 101.46875 49.507812 101.316406 49.152344 101.316406 48.722656 C 101.316406 48.46875 101.375 48.238281 101.488281 48.03125 C 101.605469 47.820312 101.757812 47.65625 101.941406 47.527344 C 102.128906 47.402344 102.335938 47.308594 102.570312 47.242188 C 102.742188 47.195312 103 47.152344 103.347656 47.109375 C 104.050781 47.027344 104.570312 46.925781 104.90625 46.808594 C 104.90625 46.691406 104.910156 46.613281 104.910156 46.582031 C 104.910156 46.226562 104.828125 45.972656 104.660156 45.828125 C 104.4375 45.632812 104.105469 45.535156 103.667969 45.535156 C 103.257812 45.535156 102.953125 45.605469 102.757812 45.75 C 102.5625 45.894531 102.414062 46.148438 102.320312 46.515625 L 101.46875 46.398438 C 101.546875 46.03125 101.675781 45.734375 101.851562 45.511719 C 102.027344 45.285156 102.285156 45.113281 102.625 44.992188 C 102.960938 44.871094 103.351562 44.808594 103.792969 44.808594 C 104.234375 44.808594 104.589844 44.863281 104.863281 44.964844 C 105.140625 45.070312 105.34375 45.199219 105.472656 45.355469 C 105.601562 45.515625 105.691406 45.710938 105.746094 45.949219 C 105.773438 46.101562 105.789062 46.367188 105.789062 46.757812 L 105.789062 47.921875 C 105.789062 48.734375 105.808594 49.25 105.84375 49.460938 C 105.882812 49.675781 105.953125 49.882812 106.066406 50.082031 L 105.152344 50.082031 C 105.0625 49.902344 105.003906 49.6875 104.976562 49.445312 Z M 106.792969 48.542969 L 107.65625 48.40625 C 107.707031 48.753906 107.839844 49.019531 108.0625 49.203125 C 108.285156 49.386719 108.59375 49.480469 108.992188 49.480469 C 109.394531 49.480469 109.691406 49.398438 109.886719 49.234375 C 110.082031 49.070312 110.179688 48.878906 110.179688 48.660156 C 110.179688 48.460938 110.09375 48.308594 109.917969 48.191406 C 109.800781 48.113281 109.503906 48.015625 109.027344 47.898438 C 108.386719 47.734375 107.941406 47.597656 107.695312 47.476562 C 107.445312 47.359375 107.257812 47.195312 107.132812 46.988281 C 107.003906 46.777344 106.9375 46.546875 106.9375 46.296875 C 106.9375 46.066406 106.992188 45.851562 107.097656 45.65625 C 107.203125 45.460938 107.347656 45.296875 107.527344 45.167969 C 107.664062 45.070312 107.847656 44.984375 108.082031 44.914062 C 108.316406 44.84375 108.566406 44.808594 108.835938 44.808594 C 109.242188 44.808594 109.597656 44.871094 109.902344 44.984375 C 110.210938 45.101562 110.433594 45.257812 110.582031 45.457031 C 110.726562 45.65625 110.824219 45.921875 110.882812 46.257812 L 110.027344 46.375 C 109.988281 46.109375 109.875 45.902344 109.6875 45.753906 C 109.503906 45.601562 109.238281 45.527344 108.898438 45.527344 C 108.5 45.527344 108.214844 45.59375 108.042969 45.726562 C 107.867188 45.859375 107.785156 46.015625 107.785156 46.191406 C 107.785156 46.308594 107.820312 46.410156 107.890625 46.5 C 107.960938 46.59375 108.074219 46.671875 108.226562 46.734375 C 108.3125 46.765625 108.570312 46.839844 108.996094 46.957031 C 109.617188 47.121094 110.046875 47.253906 110.289062 47.359375 C 110.535156 47.464844 110.726562 47.621094 110.867188 47.820312 C 111.007812 48.019531 111.074219 48.269531 111.074219 48.566406 C 111.074219 48.859375 110.988281 49.132812 110.820312 49.390625 C 110.648438 49.648438 110.402344 49.847656 110.085938 49.988281 C 109.765625 50.128906 109.402344 50.199219 108.996094 50.199219 C 108.328125 50.199219 107.816406 50.058594 107.464844 49.78125 C 107.113281 49.503906 106.890625 49.089844 106.792969 48.542969 Z M 0 50.082031 L 0 42.964844 L 0.941406 42.964844 L 0.941406 49.242188 L 4.449219 49.242188 L 4.449219 50.082031 L 0 50.082031 "/>
</g>
</g>
</svg>
