<svg xmlns="http://www.w3.org/2000/svg" width="176pt" height="34.72" viewBox="0 0 176 26.04"><defs><clipPath id="a"><path d="M0 0h37v26.04H0Zm0 0"/></clipPath></defs><g clip-path="url(#a)"><path d="M20.191 24.965c-1.18.668-2.437.969-3.742 1.047-4.152.25-7.703-1.254-10.867-3.805-2.227-1.797-3.984-3.965-4.988-6.676-.664-1.793-.89-3.625-.051-5.418 1.387-2.96 5.836-5.754 10.25-2.386 1.07.816 2.004 1.812 2.973 2.699.18-.516-.465-1.973-1.352-2.926-.816-.871-1.851-1.34-3.012-1.586q.004-.116.008-.226c.371-.063.738-.145 1.113-.184.329-.031.618-.012.934-.277.238-.196.738-.172 1.098-.11 1.414.238 2.601.977 3.734 1.809.219.164.434.332.727.554.086-.488.125-.933.238-1.359.808-3.059 2.598-5.203 5.758-5.973 2.18-.527 5.996.309 7.367 2.735.777 1.379 1.082 2.875 1.219 4.422.136 1.57.109 3.172.414 4.707.527 2.664 2.14 4.668 4.336 6.218.168.118.336.223.562.372-.762.695-1.629.937-2.594.847-1.382-.137-2.558-.773-3.629-1.613-2.488-1.953-4.183-4.438-5.066-7.492-.219-.762-.625-1.492-1.062-2.164-.73-1.125-1.711-1.457-3.008-1.157-2 .465-3.055 2.243-2.45 4.2.626 2.02 1.915 3.578 3.547 4.87 2.727 2.16 5.875 3.446 9.184 4.403.102.031.203.07.41.145-.586.214-1.086.39-1.578.578-.516.191-1.035.383-1.543.593-1.851.762-3.695 1.543-5.55 2.286-.274.105-.669.125-.93.007-3.86-1.714-6.446-4.652-8.02-8.523-.437-1.066-.988-2.023-2.047-2.562-1.105-.567-2.219-.543-3.219.226-.953.738-1.19 1.785-1 2.922.235 1.379 1 2.48 1.97 3.437 2.71 2.692 5.917 4.5 9.667 5.305.067.016.13.035.2.055" style="stroke:none;fill-rule:nonzero;fill:#a59763;fill-opacity:1"/></g><path d="M44.648 13.02 42.79 6.477h-.055q.13 1.67.13 2.597v3.946H40.69V3.938h3.266l1.895 6.445h.05l1.856-6.445h3.273v9.082h-2.254V9.035c0-.207.004-.433.008-.687.008-.254.035-.871.086-1.86h-.055l-1.832 6.532zM57.605 9.305l-.39-1.492a39 39 0 0 1-.332-1.286 17 17 0 0 1-.258-1.132q-.059.32-.223 1.046-.163.726-.73 2.864Zm.958 3.715-.45-1.704h-2.949l-.46 1.704h-2.696l2.965-9.122h3.273l3 9.122zM70.871 13.02h-3.215L64.34 6.62h-.059c.078 1.004.121 1.774.121 2.305v4.094h-2.175V3.938h3.203l3.304 6.308h.04a36 36 0 0 1-.087-2.203V3.938h2.184zM77.996 8.371q0-1.249-.492-1.851-.492-.6-1.5-.602h-.715v5.086h.547q1.12.001 1.64-.649.521-.646.52-1.984m2.547-.086c0 1.516-.414 2.684-1.25 3.504q-1.253 1.23-3.52 1.23h-2.937V3.939h3.144q2.185-.002 3.375 1.117 1.189 1.12 1.188 3.23M86.79 9.305l-.395-1.492c-.09-.333-.2-.758-.332-1.286a24 24 0 0 1-.258-1.132q-.054.32-.22 1.046c-.108.485-.355 1.438-.73 2.864Zm.952 3.715-.445-1.704h-2.95l-.46 1.704H81.19l2.961-9.122h3.274l3 9.122zM93.863 7.867h.461q1.285 0 1.285-1.137 0-.937-1.261-.937h-.485Zm0 1.848v3.305H91.41V3.938h2.973q3.703 0 3.703 2.683.001 1.574-1.54 2.441l2.645 3.958h-2.78l-1.927-3.305zM100.02 13.02V3.938h2.464v9.082zM113.094 13.02h-3.219l-3.316-6.399h-.055q.117 1.507.117 2.305v4.094h-2.176V3.938h3.207l3.305 6.308h.035a39 39 0 0 1-.086-2.203V3.938h2.188zM122.977 9.305l-.391-1.492a39 39 0 0 1-.332-1.286 17 17 0 0 1-.258-1.132c-.039.214-.11.562-.223 1.046q-.163.726-.726 2.864Zm.957 3.715-.45-1.704h-2.949l-.46 1.704h-2.696l2.965-9.122h3.273l3 9.122zM127.598 13.02V3.938h2.465v9.082zM134.48 7.867h.461q1.285 0 1.286-1.137-.001-.937-1.262-.937h-.485Zm0 1.848v3.305h-2.453V3.938h2.977q3.702 0 3.7 2.683 0 1.574-1.54 2.441l2.649 3.958h-2.786l-1.925-3.305zM140.637 13.02V3.938h2.453v7.097h3.5v1.985zM148.04 13.02V3.938h2.468v9.082zM161.117 13.02h-3.219l-3.316-6.399h-.055q.117 1.507.118 2.305v4.094h-2.176V3.938h3.207l3.304 6.308h.036a39 39 0 0 1-.086-2.203V3.938h2.187zM168.473 13.02h-5.395V3.938h5.395v1.968h-2.942v1.43h2.723v1.969h-2.723v1.715h2.942zM176 10.262q-.001.843-.43 1.5-.426.654-1.234 1.015-.81.364-1.895.364-.908.001-1.523-.125a5.7 5.7 0 0 1-1.277-.446v-2.187c.464.242.953.43 1.457.562q.759.204 1.39.203.549 0 .805-.187a.59.59 0 0 0 .152-.816 1.2 1.2 0 0 0-.332-.282c-.148-.097-.55-.289-1.207-.586-.594-.27-1.035-.527-1.332-.78a2.4 2.4 0 0 1-.66-.872c-.14-.324-.215-.71-.215-1.16 0-.836.309-1.488.914-1.957q.914-.703 2.512-.703 1.408 0 2.875.652l-.754 1.895q-1.274-.581-2.195-.582-.48-.002-.696.168a.5.5 0 0 0-.218.414q-.002.27.277.48.276.211 1.5.77 1.172.528 1.629 1.132.457.609.457 1.528" style="stroke:none;fill-rule:nonzero;fill:#244a94;fill-opacity:1"/></svg>