<?xml version="1.0" encoding="UTF-8"?>
<svg xmlns="http://www.w3.org/2000/svg" xmlns:xlink="http://www.w3.org/1999/xlink" width="150.85pt" height="59pt" viewBox="0 0 150.85 59" version="1.1">
<defs>
<clipPath id="clip1">
  <path d="M 146 46 L 150.851562 46 L 150.851562 54 L 146 54 Z M 146 46 "/>
</clipPath>
</defs>
<g id="surface1">
<path style=" stroke:none;fill-rule:nonzero;fill:rgb(20.549011%,38.949585%,72.05658%);fill-opacity:1;" d="M 24.640625 12.929688 C 23.589844 13.480469 17.722656 20.453125 16.851562 22.191406 C 18.035156 22.476562 23.554688 22.277344 24.625 21.90625 C 24.863281 21.027344 24.875 13.824219 24.640625 12.929688 Z M 30.296875 0 C 30.527344 0.179688 30.761719 0.355469 31.109375 0.625 C 31.109375 0.925781 31.140625 1.3125 31.101562 1.695312 C 30.957031 3.164062 30.792969 4.632812 30.632812 6.101562 C 30.53125 7.015625 30.390625 7.925781 30.332031 8.84375 C 30.226562 10.417969 30.15625 11.996094 30.105469 13.570312 C 30.023438 16.066406 29.96875 18.566406 29.902344 21.0625 C 29.894531 21.453125 29.902344 21.847656 29.902344 22.308594 C 30.246094 22.476562 30.566406 22.632812 30.882812 22.789062 C 31.203125 22.949219 31.546875 23.082031 31.84375 23.28125 C 32.972656 24.058594 33.039062 25.460938 31.917969 26.253906 C 31.382812 26.632812 30.691406 26.796875 29.882812 27.136719 C 29.851562 27.28125 29.726562 27.617188 29.710938 27.960938 C 29.628906 29.601562 29.542969 31.242188 29.519531 32.886719 C 29.488281 34.855469 29.5 36.832031 29.527344 38.804688 C 29.550781 40.59375 28.8125 40.964844 27.136719 40.558594 C 26.175781 40.328125 25.476562 39.707031 25.226562 38.746094 C 25.003906 37.894531 24.839844 37.007812 24.820312 36.128906 C 24.761719 33.566406 24.792969 31 24.789062 28.433594 C 24.785156 28.082031 24.785156 27.730469 24.785156 27.410156 C 23.902344 27.214844 15.097656 27.570312 12.183594 27.894531 C 11.769531 28.550781 11.332031 29.277344 10.859375 29.980469 C 9.242188 32.378906 7.644531 34.792969 5.96875 37.148438 C 5.382812 37.964844 4.613281 38.660156 3.859375 39.339844 C 3.488281 39.675781 2.964844 39.84375 2.609375 40.039062 C 1.84375 39.816406 1.589844 39.351562 1.675781 38.789062 C 1.769531 38.152344 1.894531 37.476562 2.1875 36.914062 C 3.015625 35.34375 3.941406 33.832031 4.816406 32.285156 C 5.355469 31.34375 5.882812 30.398438 6.386719 29.4375 C 6.5625 29.101562 6.664062 28.726562 6.8125 28.332031 C 6.230469 28.195312 5.761719 28.082031 5.351562 27.984375 C 4.019531 26.261719 4.335938 24.769531 6.179688 23.789062 C 7.183594 23.257812 8.257812 22.988281 9.386719 22.90625 C 9.746094 22.878906 10.105469 22.867188 10.527344 22.84375 C 10.894531 22.355469 11.269531 21.863281 11.636719 21.367188 C 14.699219 17.210938 17.746094 13.042969 20.824219 8.902344 C 22.730469 6.34375 24.800781 3.917969 27.015625 1.617188 C 27.558594 1.054688 28.148438 0.539062 28.71875 0 C 29.246094 0 29.769531 0 30.296875 0 "/>
<path style=" stroke:none;fill-rule:nonzero;fill:rgb(20.549011%,38.949585%,72.05658%);fill-opacity:1;" d="M 98.300781 36.125 C 99.171875 36.714844 100.070312 36.628906 100.925781 36.414062 C 101.871094 36.179688 102.8125 35.851562 103.703125 35.441406 C 106.070312 34.351562 108.222656 32.882812 110.332031 31.375 C 111.480469 30.554688 112.515625 29.585938 113.335938 28.410156 C 114.691406 26.472656 113.691406 25.640625 111.894531 25.480469 C 109.769531 25.292969 107.796875 25.753906 105.996094 26.96875 C 103.890625 28.394531 102.007812 30.082031 100.257812 31.910156 C 99.613281 32.585938 99.140625 33.445312 98.671875 34.269531 C 98.367188 34.800781 98.210938 35.417969 98.300781 36.125 Z M 100.664062 25.800781 C 101.367188 25.621094 101.9375 25.5625 102.421875 25.332031 C 104.019531 24.5625 105.601562 23.757812 107.160156 22.914062 C 108.902344 21.972656 110.644531 21.042969 112.605469 20.644531 C 113.828125 20.398438 115.03125 20.484375 116.160156 21.0625 C 118.054688 22.035156 118.917969 23.921875 118.464844 26.03125 C 118.191406 27.304688 117.613281 28.445312 116.953125 29.550781 C 115.152344 32.566406 112.5625 34.75 109.597656 36.546875 C 106.203125 38.601562 102.570312 39.996094 98.652344 40.582031 C 97.199219 40.796875 95.707031 40.851562 94.234375 40.832031 C 93.507812 40.824219 92.765625 40.53125 92.070312 40.265625 C 91.285156 39.960938 90.9375 39.28125 90.925781 38.460938 C 90.921875 38.039062 90.980469 37.609375 91.058594 37.195312 C 91.53125 34.722656 92.515625 32.417969 93.449219 30.101562 C 96.128906 23.4375 99.34375 17.035156 102.796875 10.742188 C 104.261719 8.074219 106.097656 5.679688 108.058594 3.371094 C 108.679688 2.640625 109.464844 2.085938 110.378906 1.738281 C 111.246094 1.410156 112.054688 1.585938 112.511719 2.238281 C 112.9375 2.847656 113.226562 3.710938 112.550781 4.601562 C 110.664062 7.089844 108.769531 9.578125 106.996094 12.144531 C 104.863281 15.234375 102.949219 18.460938 101.550781 21.960938 C 101.085938 23.121094 100.746094 24.308594 100.664062 25.800781 "/>
<path style=" stroke:none;fill-rule:nonzero;fill:rgb(20.549011%,38.949585%,72.05658%);fill-opacity:1;" d="M 83.097656 26.535156 C 82.65625 26.738281 82.347656 26.828125 82.101562 27.003906 C 81.542969 27.410156 80.984375 27.824219 80.484375 28.296875 C 78.292969 30.335938 76.15625 32.433594 73.9375 34.4375 C 72.601562 35.648438 71.171875 36.765625 69.730469 37.851562 C 68.796875 38.554688 67.707031 38.898438 66.507812 38.917969 C 64.71875 38.953125 63.394531 38.144531 62.480469 36.683594 C 61.398438 34.957031 61.078125 33.027344 61.234375 31.011719 C 61.515625 27.367188 63.210938 24.296875 65.207031 21.371094 C 65.589844 20.808594 66.261719 20.378906 66.886719 20.050781 C 68.300781 19.308594 69.445312 20.339844 69.570312 21.625 C 69.683594 22.785156 69.347656 23.84375 68.792969 24.835938 C 68.328125 25.667969 67.808594 26.46875 67.324219 27.289062 C 66.742188 28.289062 66.199219 29.3125 66.160156 30.503906 C 66.140625 31.117188 66.15625 31.753906 66.28125 32.351562 C 66.445312 33.140625 67.0625 33.460938 67.855469 33.242188 C 69.261719 32.855469 70.382812 31.976562 71.433594 31.03125 C 73.125 29.519531 74.769531 27.957031 76.429688 26.40625 C 78.449219 24.527344 80.445312 22.617188 82.496094 20.769531 C 82.996094 20.316406 83.636719 19.988281 84.261719 19.726562 C 85.480469 19.214844 87.132812 19.867188 87.859375 21.375 C 88.019531 21.707031 88.070312 22.148438 88.027344 22.519531 C 87.816406 24.28125 87.507812 26.03125 87.328125 27.792969 C 87.207031 28.996094 87.210938 30.21875 87.214844 31.429688 C 87.21875 32.347656 87.316406 33.265625 87.363281 34.183594 C 87.421875 35.398438 87.5 36.613281 87.53125 37.828125 C 87.558594 38.972656 86.734375 39.578125 85.648438 39.1875 C 85.230469 39.035156 84.816406 38.761719 84.515625 38.433594 C 83.648438 37.484375 83.164062 36.382812 83.191406 35.039062 C 83.242188 32.605469 83.203125 30.171875 83.191406 27.738281 C 83.1875 27.394531 83.136719 27.050781 83.097656 26.535156 "/>
<path style=" stroke:none;fill-rule:nonzero;fill:rgb(20.549011%,38.949585%,72.05658%);fill-opacity:1;" d="M 127.058594 33.09375 C 127.277344 33.726562 127.695312 33.851562 128.1875 33.65625 C 128.855469 33.390625 129.53125 33.113281 130.144531 32.746094 C 131.695312 31.820312 133.214844 30.832031 134.746094 29.875 C 134.96875 29.734375 135.199219 29.605469 135.4375 29.492188 C 136.148438 29.148438 136.84375 29.152344 137.476562 29.660156 C 138.5 30.480469 139.503906 31.328125 140.527344 32.15625 C 141.445312 32.898438 142.355469 33.65625 143.3125 34.347656 C 144.640625 35.308594 146.117188 35.925781 147.804688 35.984375 C 148.441406 36.488281 148.855469 37.15625 149.089844 37.914062 C 149.386719 38.878906 148.9375 39.574219 147.9375 39.65625 C 147.324219 39.710938 146.675781 39.691406 146.085938 39.535156 C 143.507812 38.859375 141.203125 37.609375 139.085938 36.007812 C 138.796875 35.789062 138.5 35.578125 138.242188 35.328125 C 136.585938 33.714844 134.40625 33.933594 132.679688 34.949219 C 131.863281 35.429688 131.121094 36.042969 130.371094 36.628906 C 129.042969 37.664062 127.707031 38.679688 126.039062 39.113281 C 124.824219 39.429688 123.601562 39.648438 122.34375 39.308594 C 121.335938 39.039062 120.765625 38.484375 120.765625 37.445312 C 120.765625 36.640625 120.867188 35.78125 121.152344 35.035156 C 122.402344 31.769531 124.214844 28.867188 126.929688 26.582031 C 128.3125 25.417969 129.605469 24.152344 131.011719 23.019531 C 132.292969 21.984375 133.714844 21.136719 135.269531 20.566406 C 136.132812 20.253906 137.019531 19.972656 137.917969 19.8125 C 140.351562 19.382812 142.195312 20.949219 142.265625 23.429688 C 142.285156 24.230469 142.1875 25.003906 141.859375 25.738281 C 141.601562 26.324219 141.234375 26.8125 140.6875 27.164062 C 139.671875 27.824219 139.152344 27.800781 138.207031 27.027344 C 137.878906 26.757812 137.53125 26.503906 137.21875 26.214844 C 136.59375 25.648438 135.886719 25.585938 135.101562 25.78125 C 133.847656 26.085938 132.8125 26.78125 131.855469 27.589844 C 130.730469 28.546875 129.617188 29.523438 128.566406 30.558594 C 127.84375 31.273438 127.257812 32.113281 127.058594 33.09375 "/>
<path style=" stroke:none;fill-rule:nonzero;fill:rgb(95.063782%,80.387878%,5.477905%);fill-opacity:1;" d="M 18.320312 49.015625 C 18.320312 48.351562 18.320312 47.738281 18.320312 47.152344 C 19.121094 46.949219 104.664062 46.886719 106.160156 47.078125 C 106.042969 47.84375 105.550781 48.417969 105.277344 49.046875 C 104.269531 49.242188 19.167969 49.214844 18.320312 49.015625 "/>
<path style=" stroke:none;fill-rule:nonzero;fill:rgb(95.063782%,80.387878%,5.477905%);fill-opacity:1;" d="M 104.457031 50.808594 C 104.085938 51.589844 103.796875 52.199219 103.53125 52.765625 C 102.742188 52.960938 19.589844 53.011719 18.398438 52.828125 C 18.117188 52.21875 18.253906 51.574219 18.3125 50.8125 C 18.667969 50.789062 19.015625 50.738281 19.359375 50.738281 C 22.023438 50.730469 24.6875 50.734375 27.351562 50.734375 C 52.515625 50.734375 77.675781 50.734375 102.839844 50.734375 C 103.316406 50.734375 103.789062 50.777344 104.457031 50.808594 "/>
<path style=" stroke:none;fill-rule:nonzero;fill:rgb(20.549011%,38.949585%,72.05658%);fill-opacity:1;" d="M 45.582031 22.769531 C 46.054688 22.667969 46.414062 22.644531 46.734375 22.519531 C 48.410156 21.847656 50.085938 21.167969 51.746094 20.460938 C 53.261719 19.816406 54.792969 19.222656 56.445312 19.050781 C 57.09375 18.984375 57.765625 18.960938 58.40625 19.054688 C 59.28125 19.179688 59.59375 19.609375 59.6875 20.542969 C 59.777344 21.386719 59.628906 21.742188 58.777344 22.070312 C 57.738281 22.46875 56.667969 22.808594 55.585938 23.074219 C 51.371094 24.117188 48.007812 26.5 45.234375 29.734375 C 43.59375 31.652344 42.125 33.722656 40.578125 35.722656 C 39.925781 36.5625 39.136719 37.246094 38.21875 37.785156 C 37.625 38.132812 36.960938 38.351562 36.347656 37.988281 C 35.691406 37.597656 35.554688 36.867188 35.648438 36.15625 C 35.722656 35.578125 35.886719 35 36.078125 34.445312 C 37.242188 31.128906 38.464844 27.832031 39.585938 24.503906 C 40.035156 23.171875 40.328125 21.78125 40.59375 20.398438 C 40.828125 19.175781 41.414062 18.1875 42.273438 17.34375 C 43.164062 16.464844 44.089844 16.605469 44.683594 17.6875 C 45.214844 18.65625 45.480469 19.695312 45.5 20.800781 C 45.507812 21.417969 45.546875 22.03125 45.582031 22.769531 "/>
<path style=" stroke:none;fill-rule:nonzero;fill:rgb(83.792114%,11.807251%,14.675903%);fill-opacity:1;" d="M 16.757812 50.699219 C 14.796875 51.4375 12.835938 52.175781 10.863281 52.914062 C 10.144531 54.960938 9.441406 56.96875 8.734375 58.976562 C 8.675781 58.984375 8.613281 58.992188 8.550781 59 C 7.773438 56.996094 6.992188 54.988281 6.183594 52.90625 C 4.214844 52.136719 2.207031 51.351562 0 50.488281 C 2.207031 49.660156 4.210938 48.90625 6.230469 48.144531 C 6.96875 46.117188 7.691406 44.113281 8.5 41.878906 C 9.433594 44.035156 10.007812 46.078125 10.835938 48.136719 C 12.773438 48.902344 14.777344 49.695312 16.777344 50.488281 C 16.769531 50.558594 16.765625 50.628906 16.757812 50.699219 "/>
<path style=" stroke:none;fill-rule:nonzero;fill:rgb(83.792114%,11.807251%,14.675903%);fill-opacity:1;" d="M 139.09375 52.945312 C 138.585938 52.945312 138.230469 52.945312 137.75 52.945312 C 137.15625 51.894531 136.535156 50.792969 135.914062 49.695312 C 135.859375 49.699219 135.804688 49.703125 135.75 49.707031 C 135.636719 50.753906 135.523438 51.800781 135.402344 52.90625 C 134.929688 52.90625 134.523438 52.90625 133.996094 52.90625 C 134.121094 50.9375 134.28125 49.003906 134.566406 47.03125 C 135.03125 47.03125 135.410156 47.03125 135.894531 47.03125 C 136.484375 48.128906 137.101562 49.269531 137.714844 50.410156 C 137.78125 50.398438 137.847656 50.386719 137.914062 50.375 C 138.019531 49.285156 138.125 48.199219 138.238281 47.046875 C 138.714844 47.046875 139.121094 47.046875 139.648438 47.046875 C 139.550781 49 139.332031 50.925781 139.09375 52.945312 "/>
<path style=" stroke:none;fill-rule:nonzero;fill:rgb(83.792114%,11.807251%,14.675903%);fill-opacity:1;" d="M 111.308594 50.648438 C 111.855469 50.730469 112.289062 50.8125 112.753906 50.570312 C 112.644531 49.988281 112.542969 49.445312 112.441406 48.898438 C 112.382812 48.894531 112.324219 48.894531 112.265625 48.894531 C 111.960938 49.457031 111.652344 50.019531 111.308594 50.648438 Z M 111.742188 47.003906 C 112.441406 47.003906 113.027344 47.003906 113.726562 47.003906 C 114.078125 48.992188 114.429688 50.972656 114.796875 53.042969 C 114.222656 53.042969 113.71875 53.042969 113.171875 53.042969 C 113.085938 52.703125 113.003906 52.394531 112.910156 52.035156 C 112.160156 51.835938 111.394531 51.9375 110.597656 51.984375 C 110.386719 52.332031 110.183594 52.667969 109.949219 53.054688 C 109.457031 53.054688 108.945312 53.054688 108.289062 53.054688 C 109.464844 50.996094 110.59375 49.019531 111.742188 47.003906 "/>
<path style=" stroke:none;fill-rule:nonzero;fill:rgb(83.792114%,11.807251%,14.675903%);fill-opacity:1;" d="M 122.394531 48.597656 C 121.984375 48.277344 121.546875 48.167969 121.003906 48.488281 C 121.003906 48.945312 121.003906 49.414062 121.003906 49.878906 C 122.3125 49.992188 122.609375 49.710938 122.394531 48.597656 Z M 120.875 51.226562 C 120.75 51.898438 120.667969 52.339844 120.566406 52.882812 C 120.121094 52.90625 119.691406 52.925781 119.109375 52.957031 C 119.304688 50.933594 119.488281 49.023438 119.683594 47.042969 C 120.75 46.878906 121.757812 46.871094 122.75 47.070312 C 123.433594 47.207031 123.921875 47.667969 124.050781 48.394531 C 124.199219 49.234375 123.960938 49.957031 123.285156 50.5 C 123.0625 50.679688 122.796875 50.808594 122.460938 51.015625 C 122.867188 51.628906 123.257812 52.214844 123.652344 52.816406 C 122.265625 53.207031 122.144531 53.164062 121.441406 52.0625 C 121.304688 51.84375 121.152344 51.636719 120.875 51.226562 "/>
<g clip-path="url(#clip1)" clip-rule="nonzero">
<path style=" stroke:none;fill-rule:nonzero;fill:rgb(83.792114%,11.807251%,14.675903%);fill-opacity:1;" d="M 150.847656 48.65625 C 150.335938 48.65625 149.917969 48.65625 149.433594 48.65625 C 149.289062 48.523438 149.101562 48.34375 148.859375 48.121094 C 148.640625 48.21875 148.421875 48.3125 148.210938 48.40625 C 148.242188 48.585938 148.226562 48.726562 148.285156 48.769531 C 148.734375 49.085938 149.1875 49.402344 149.660156 49.6875 C 150.511719 50.199219 150.824219 50.773438 150.523438 51.648438 C 150.382812 52.050781 150.078125 52.476562 149.730469 52.71875 C 148.90625 53.285156 147.972656 53.234375 147.09375 52.835938 C 146.414062 52.53125 146.230469 51.902344 146.273438 51.058594 C 146.726562 51.03125 147.160156 51.003906 147.621094 50.976562 C 147.808594 51.242188 147.972656 51.476562 148.128906 51.695312 C 148.609375 51.820312 148.9375 51.714844 149.089844 51.109375 C 148.882812 50.9375 148.65625 50.71875 148.394531 50.554688 C 148.058594 50.347656 147.679688 50.21875 147.351562 50 C 146.464844 49.410156 146.355469 48.402344 147.070312 47.628906 C 147.746094 46.894531 148.976562 46.632812 149.890625 47.03125 C 150.535156 47.316406 150.796875 47.835938 150.847656 48.65625 "/>
</g>
<path style=" stroke:none;fill-rule:nonzero;fill:rgb(83.792114%,11.807251%,14.675903%);fill-opacity:1;" d="M 141.109375 52.976562 C 141.3125 50.925781 141.496094 49.035156 141.691406 47.042969 C 142.785156 46.921875 143.847656 46.949219 144.953125 47.015625 C 144.953125 47.4375 144.953125 47.804688 144.953125 48.246094 C 144.3125 48.296875 143.734375 48.34375 143.101562 48.394531 C 143.085938 48.648438 143.070312 48.855469 143.050781 49.136719 C 143.613281 49.1875 144.125 49.230469 144.703125 49.285156 C 144.703125 49.691406 144.703125 50.058594 144.703125 50.53125 C 144.097656 50.5625 143.554688 50.59375 142.910156 50.628906 C 142.855469 50.925781 142.804688 51.222656 142.738281 51.59375 C 143.386719 51.640625 143.929688 51.679688 144.582031 51.730469 C 144.558594 52.117188 144.539062 52.457031 144.511719 52.878906 C 143.382812 53.03125 142.316406 52.925781 141.109375 52.976562 "/>
<path style=" stroke:none;fill-rule:nonzero;fill:rgb(83.792114%,11.807251%,14.675903%);fill-opacity:1;" d="M 125.519531 52.902344 C 125.722656 50.894531 125.910156 49.011719 126.109375 47.046875 C 126.609375 47.023438 127.050781 47.003906 127.628906 46.976562 C 127.492188 48.546875 127.367188 50.023438 127.230469 51.59375 C 127.8125 51.636719 128.324219 51.671875 128.835938 51.707031 C 129.132812 52.105469 128.90625 52.464844 128.828125 52.902344 C 127.738281 52.902344 126.679688 52.902344 125.519531 52.902344 "/>
<path style=" stroke:none;fill-rule:nonzero;fill:rgb(83.792114%,11.807251%,14.675903%);fill-opacity:1;" d="M 130.992188 47.019531 C 131.566406 47.019531 131.980469 47.019531 132.503906 47.019531 C 132.40625 48.96875 132.167969 50.867188 131.933594 52.882812 C 131.457031 52.90625 130.996094 52.929688 130.414062 52.957031 C 130.613281 50.929688 130.796875 49.023438 130.992188 47.019531 "/>
<path style=" stroke:none;fill-rule:nonzero;fill:rgb(83.792114%,11.807251%,14.675903%);fill-opacity:1;" d="M 117.117188 52.929688 C 116.585938 52.929688 116.167969 52.929688 115.625 52.929688 C 115.71875 50.945312 115.933594 49.015625 116.1875 47.03125 C 116.691406 47.03125 117.132812 47.03125 117.6875 47.03125 C 117.496094 48.988281 117.3125 50.898438 117.117188 52.929688 "/>
</g>
</svg>
