<svg xmlns="http://www.w3.org/2000/svg" width="176pt" height="54.613" viewBox="0 0 176 40.96"><defs><clipPath id="a"><path d="M122 0h54v40.96h-54Zm0 0"/></clipPath></defs><path d="M4.559 33.316H1.254l6.785-10.175h4.914V33.34H9.746V31.3H5.805z" style="stroke:none;fill-rule:nonzero;fill:#d91e25;fill-opacity:1"/><path d="M9.969 25.633v3.242H7.395l1.93-3.223z" style="stroke:none;fill-rule:nonzero;fill:#fff;fill-opacity:1"/><path d="M41.484 33.273h-3.308l6.785-10.175h4.918v10.199h-3.207v-2.04h-3.945z" style="stroke:none;fill-rule:nonzero;fill:#d91e25;fill-opacity:1"/><path d="M46.895 25.59v3.242h-2.579l1.93-3.223z" style="stroke:none;fill-rule:nonzero;fill:#fff;fill-opacity:1"/><path d="M14.902 33.297h3.028l2.636-10.133H17.41zM98.492 33.172h3.028l2.64-10.137h-3.152zM32.469 25.977s.125-2.446-2.192-2.856l-7.43-.023-2.706 10.199h3.175l1.036-3.734h.453l3.148 3.734h3.606l-3.063-4.145s3.692.387 3.973-3.175m-4.512 1.566-3.145.023.551-2.242 2.528-.047v.024c.023 0 .043-.012.066-.012.68 0 1.227.504 1.227 1.129s-.547 1.125-1.227 1.125M97.45 25.914s.128-2.45-2.192-2.855l-7.426-.024-2.71 10.2h3.175l1.039-3.735h.445l3.156 3.734h3.606l-3.066-4.144s3.695.387 3.972-3.176m-4.513 1.566-3.14.02.547-2.234 2.527-.055v.031c.024-.004.047-.015.067-.015.675 0 1.226.503 1.226 1.125 0 .625-.55 1.128-1.227 1.128M51.89 33.297l2.383-10.133h3.352l-1.824 7.453h4.597l-.586 2.68zM73.406 23.535s-10.851-3.16-11.883 5.242c0 0-.449 7.7 9.66 3.653l1.126-4.59-3.551-.008-.73 3.023s-3.188 1.204-3.09-1.777c0 0-.067-4.367 7.757-3.012zM76.145 23.121h2.703l1.03-1.223h3.669l-.742 1.254h2.867l-.547 2.16-6.566.032-.29 1.386 5.989.125-.485 2.192-5.957-.067-.289 1.543h6.278l-.676 2.676h-9.496zM106.68 22.992h9.789l-.602 2.414h-6.828l-.387 1.45h5.883l-.387 2.234-5.964.086-.387 1.402h6.652l-.43 2.633h-9.789zM115.75 7.496h2.188l-1.739 8.66h-2.183zM112.422 7.535h2.129l-1.68 8.664H95.066l-.546 2.703h-7.856l.16-1.738h5.86l.16-.965h-3.446l.934-4.894h5.637l-.422 2.894h2.484l.578-2.894h2.579l.414-3.77h2.449l-.418 3.672h2.222l-.289 2.992h5.57l.192-1.156h-3.125l.129-1.738h3.348z" style="stroke:none;fill-rule:nonzero;fill:#d91e25;fill-opacity:1"/><path d="M100.605 12.98h2.672l-.097 1.157h-2.739zM92.102 13.043h1.453l-.196 1.156h-1.515z" style="stroke:none;fill-rule:nonzero;fill:#fff;fill-opacity:1"/><path d="M109.105 8.922h2.25l-.32 1.738h-2.316zM26.016 11.152h2.254l-.32 1.739h-2.317zM29.773 17.078h2.254l-.32 1.738h-2.316zM83.129 7.496h2.48l-.644 3.766h2.61l-.938 4.894H76.012l.453-1.996h2.703l.578-2.898h2.738l.582-3.766" style="stroke:none;fill-rule:nonzero;fill:#d91e25;fill-opacity:1"/><path d="M82.098 13h2.578l-.196 1.16h-2.605z" style="stroke:none;fill-rule:nonzero;fill:#fff;fill-opacity:1"/><path d="M71.375 16.242h-2.25l1.8-8.664h2.16zM37.727 16.223h-2.254l1.8-8.664h2.16zM21.895 16.156H19.64l1.804-8.66h2.157zM69.938 7.496l-1.774 8.66h-7.309l-.546 2.707h-7.375l.324-1.742h5.379l.191-.965h-3.312l.964-4.894h5.473l-.52 2.898h4.739l.32-1.16h-2.058l.382-1.738h2l.934-3.766z" style="stroke:none;fill-rule:nonzero;fill:#d91e25;fill-opacity:1"/><path d="M58.035 13.203h1.45l-.196 1.16h-1.512z" style="stroke:none;fill-rule:nonzero;fill:#fff;fill-opacity:1"/><path d="m63.262 18.816.324-1.738h2.187l-.351 1.738zM43.148 11.27h5.149l-.512 2.804h2.805l.703-2.804h2.223l-1.059 4.894h-7.41l.098-.738h-2.993z" style="stroke:none;fill-rule:nonzero;fill:#d91e25;fill-opacity:1"/><path d="M44.406 13.11h1.414l-.129 1.027h-1.48z" style="stroke:none;fill-rule:nonzero;fill:#fff;fill-opacity:1"/><path d="M.996 11.297h5.152l-.511 2.8h2.8l.708-2.8h2.222l-1.062 4.89H2.898l.094-.742H0z" style="stroke:none;fill-rule:nonzero;fill:#d91e25;fill-opacity:1"/><path d="M2.703 12.89h1.418l-.129 1.032h-1.48z" style="stroke:none;fill-rule:nonzero;fill:#fff;fill-opacity:1"/><path d="m48.3 10.305.333-1.739h-4.754l-.43 1.739zM6.14 10.25l.329-1.738h-4.75l-.43 1.738zM9.938 18.785l.32-1.758H5.656l-.418 1.758zM51.898 18.816l.32-1.738h-4.605l-.418 1.738zM36 7.496l-1.742 8.66h-7.242l-.551 2.707h-4.957l.258-1.742h2.8l.645-2.96h7.082L32.555 13H30.3l.254-1.738h2.578L34 7.496zM17.29 11.828l2.062-.043-.817 4.125-2.105.04-.688 2.835-4.894.13.3-1.935h2.88l.554-2.746h2.32zM17.012 10.648h2.48l.45-2.058h.288l.067-.742-1.836-.063-.453 2.094-.836.094z" style="stroke:none;fill-rule:nonzero;fill:#d91e25;fill-opacity:1"/><path d="m108.203 13.043.961-4.281-.445.031-1 4.281.418-.031" style="stroke:none;fill-rule:nonzero;fill:#fff;fill-opacity:1"/><g clip-path="url(#a)"><path d="m144.46 39.195 1.04-.25c3.813-.586 6.348-3.144 6.348-3.144 1.433-1.078 6.43-6.285 6.43-6.285 8.117-9.172 16.402-7.532 16.402-7.532s-3.04 19.895-30.22 17.211M125.54 13.54s2.558-5.371 10.91-9.219c0 0 4.765 2.211 8.198 6.078 0 0 6.957 7.434 8.293 8.114 0 0-2.796 2.023-14.476-9.067 0 0-7.168 5.559-7.516 10.559h43.633l.047 1h-43.762s.344 4.34 7 10.543c0 0 9.746-8.492 15.117-9.3l.297.003s-3.562 3.043-5.926 5.719c0 0-6.613 6.894-11.421 8.55 0 0-17.739-7.558-10.395-22.98m49.01 5.688s-8.284 1.68-16.405-7.7c0 0-4.989-5.324-6.426-6.422 0 0-2.535-2.617-6.352-3.214l-1.035-.254c27.176-2.746 30.219 17.59 30.219 17.59M149.146.004c-14.833 0-26.856 9.168-26.856 20.476 0 11.313 12.023 20.48 26.856 20.48 14.832 0 26.855-9.167 26.855-20.48C176 9.172 163.977.004 149.145.004" style="stroke:none;fill-rule:nonzero;fill:#d91e25;fill-opacity:1"/></g></svg>