<?xml version="1.0" encoding="UTF-8"?>
<svg xmlns="http://www.w3.org/2000/svg" xmlns:xlink="http://www.w3.org/1999/xlink" width="176pt" height="40.96pt" viewBox="0 0 176 40.96" version="1.1">
<defs>
<clipPath id="clip1">
  <path d="M 122 0 L 176 0 L 176 40.960938 L 122 40.960938 Z M 122 0 "/>
</clipPath>
</defs>
<g id="surface1">
<path style=" stroke:none;fill-rule:nonzero;fill:rgb(85.072327%,11.758423%,14.666748%);fill-opacity:1;" d="M 4.558594 33.316406 L 1.253906 33.316406 L 8.039062 23.140625 L 12.953125 23.140625 L 12.953125 33.339844 L 9.746094 33.339844 L 9.746094 31.300781 L 5.804688 31.300781 L 4.558594 33.316406 "/>
<path style=" stroke:none;fill-rule:nonzero;fill:rgb(100%,100%,100%);fill-opacity:1;" d="M 9.96875 25.632812 L 9.96875 28.875 L 7.394531 28.875 L 9.324219 25.652344 L 9.96875 25.632812 "/>
<path style=" stroke:none;fill-rule:nonzero;fill:rgb(85.072327%,11.758423%,14.666748%);fill-opacity:1;" d="M 41.484375 33.273438 L 38.175781 33.273438 L 44.960938 23.097656 L 49.878906 23.097656 L 49.878906 33.296875 L 46.671875 33.296875 L 46.671875 31.257812 L 42.726562 31.257812 L 41.484375 33.273438 "/>
<path style=" stroke:none;fill-rule:nonzero;fill:rgb(100%,100%,100%);fill-opacity:1;" d="M 46.894531 25.589844 L 46.894531 28.832031 L 44.316406 28.832031 L 46.246094 25.609375 L 46.894531 25.589844 "/>
<path style=" stroke:none;fill-rule:nonzero;fill:rgb(85.072327%,11.758423%,14.666748%);fill-opacity:1;" d="M 14.902344 33.296875 L 17.929688 33.296875 L 20.566406 23.164062 L 17.410156 23.164062 L 14.902344 33.296875 "/>
<path style=" stroke:none;fill-rule:nonzero;fill:rgb(85.072327%,11.758423%,14.666748%);fill-opacity:1;" d="M 98.492188 33.171875 L 101.519531 33.171875 L 104.160156 23.035156 L 101.007812 23.035156 L 98.492188 33.171875 "/>
<path style=" stroke:none;fill-rule:nonzero;fill:rgb(85.072327%,11.758423%,14.666748%);fill-opacity:1;" d="M 32.46875 25.976562 C 32.46875 25.976562 32.59375 23.53125 30.277344 23.121094 L 22.847656 23.097656 L 20.140625 33.296875 L 23.316406 33.296875 L 24.351562 29.5625 L 24.804688 29.5625 L 27.953125 33.296875 L 31.558594 33.296875 L 28.496094 29.152344 C 28.496094 29.152344 32.1875 29.539062 32.46875 25.976562 Z M 27.957031 27.542969 L 24.8125 27.566406 L 25.363281 25.324219 L 27.890625 25.277344 L 27.890625 25.300781 C 27.914062 25.300781 27.933594 25.289062 27.957031 25.289062 C 28.636719 25.289062 29.183594 25.792969 29.183594 26.417969 C 29.183594 27.042969 28.636719 27.542969 27.957031 27.542969 "/>
<path style=" stroke:none;fill-rule:nonzero;fill:rgb(85.072327%,11.758423%,14.666748%);fill-opacity:1;" d="M 97.449219 25.914062 C 97.449219 25.914062 97.578125 23.464844 95.257812 23.058594 L 87.832031 23.035156 L 85.121094 33.234375 L 88.296875 33.234375 L 89.335938 29.5 L 89.78125 29.5 L 92.9375 33.234375 L 96.542969 33.234375 L 93.476562 29.089844 C 93.476562 29.089844 97.171875 29.476562 97.449219 25.914062 Z M 92.9375 27.480469 L 89.796875 27.5 L 90.34375 25.265625 L 92.871094 25.210938 L 92.871094 25.242188 C 92.894531 25.238281 92.917969 25.226562 92.9375 25.226562 C 93.613281 25.226562 94.164062 25.730469 94.164062 26.351562 C 94.164062 26.976562 93.613281 27.480469 92.9375 27.480469 "/>
<path style=" stroke:none;fill-rule:nonzero;fill:rgb(85.072327%,11.758423%,14.666748%);fill-opacity:1;" d="M 51.890625 33.296875 L 54.273438 23.164062 L 57.625 23.164062 L 55.800781 30.617188 L 60.398438 30.617188 L 59.8125 33.296875 L 51.890625 33.296875 "/>
<path style=" stroke:none;fill-rule:nonzero;fill:rgb(85.072327%,11.758423%,14.666748%);fill-opacity:1;" d="M 73.40625 23.535156 C 73.40625 23.535156 62.554688 20.375 61.523438 28.777344 C 61.523438 28.777344 61.074219 36.476562 71.183594 32.429688 L 72.308594 27.839844 L 68.757812 27.832031 L 68.027344 30.855469 C 68.027344 30.855469 64.839844 32.058594 64.9375 29.078125 C 64.9375 29.078125 64.871094 24.710938 72.695312 26.066406 L 73.40625 23.535156 "/>
<path style=" stroke:none;fill-rule:nonzero;fill:rgb(85.072327%,11.758423%,14.666748%);fill-opacity:1;" d="M 76.144531 23.121094 L 78.847656 23.121094 L 79.878906 21.898438 L 83.546875 21.898438 L 82.804688 23.152344 L 85.671875 23.152344 L 85.125 25.3125 L 78.558594 25.34375 L 78.269531 26.730469 L 84.257812 26.855469 L 83.773438 29.046875 L 77.816406 28.980469 L 77.527344 30.523438 L 83.804688 30.523438 L 83.128906 33.199219 L 73.632812 33.199219 L 76.144531 23.121094 "/>
<path style=" stroke:none;fill-rule:nonzero;fill:rgb(85.072327%,11.758423%,14.666748%);fill-opacity:1;" d="M 106.679688 22.992188 L 116.46875 22.992188 L 115.867188 25.40625 L 109.039062 25.40625 L 108.652344 26.855469 L 114.535156 26.855469 L 114.148438 29.089844 L 108.183594 29.175781 L 107.796875 30.578125 L 114.449219 30.578125 L 114.019531 33.210938 L 104.230469 33.210938 L 106.679688 22.992188 "/>
<path style=" stroke:none;fill-rule:nonzero;fill:rgb(85.072327%,11.758423%,14.666748%);fill-opacity:1;" d="M 115.75 7.496094 L 117.9375 7.496094 L 116.199219 16.15625 L 114.015625 16.15625 L 115.75 7.496094 "/>
<path style=" stroke:none;fill-rule:nonzero;fill:rgb(85.072327%,11.758423%,14.666748%);fill-opacity:1;" d="M 112.421875 7.535156 L 114.550781 7.535156 L 112.871094 16.199219 L 95.066406 16.199219 L 94.519531 18.902344 L 86.664062 18.902344 L 86.824219 17.164062 L 92.683594 17.164062 L 92.84375 16.199219 L 89.398438 16.199219 L 90.332031 11.304688 L 95.96875 11.304688 L 95.546875 14.199219 L 98.03125 14.199219 L 98.609375 11.304688 L 101.1875 11.304688 L 101.601562 7.535156 L 104.050781 7.535156 L 103.632812 11.207031 L 105.855469 11.207031 L 105.566406 14.199219 L 111.136719 14.199219 L 111.328125 13.042969 L 108.203125 13.042969 L 108.332031 11.304688 L 111.679688 11.304688 L 112.421875 7.535156 "/>
<path style=" stroke:none;fill-rule:nonzero;fill:rgb(100%,100%,100%);fill-opacity:1;" d="M 100.605469 12.980469 L 103.277344 12.980469 L 103.179688 14.136719 L 100.441406 14.136719 L 100.605469 12.980469 "/>
<path style=" stroke:none;fill-rule:nonzero;fill:rgb(100%,100%,100%);fill-opacity:1;" d="M 92.101562 13.042969 L 93.554688 13.042969 L 93.359375 14.199219 L 91.84375 14.199219 L 92.101562 13.042969 "/>
<path style=" stroke:none;fill-rule:nonzero;fill:rgb(85.072327%,11.758423%,14.666748%);fill-opacity:1;" d="M 109.105469 8.921875 L 111.355469 8.921875 L 111.035156 10.660156 L 108.71875 10.660156 L 109.105469 8.921875 "/>
<path style=" stroke:none;fill-rule:nonzero;fill:rgb(85.072327%,11.758423%,14.666748%);fill-opacity:1;" d="M 26.015625 11.152344 L 28.269531 11.152344 L 27.949219 12.890625 L 25.632812 12.890625 L 26.015625 11.152344 "/>
<path style=" stroke:none;fill-rule:nonzero;fill:rgb(85.072327%,11.758423%,14.666748%);fill-opacity:1;" d="M 29.773438 17.078125 L 32.027344 17.078125 L 31.707031 18.816406 L 29.390625 18.816406 L 29.773438 17.078125 "/>
<path style=" stroke:none;fill-rule:nonzero;fill:rgb(85.072327%,11.758423%,14.666748%);fill-opacity:1;" d="M 83.128906 7.496094 L 85.609375 7.496094 L 84.964844 11.261719 L 87.574219 11.261719 L 86.636719 16.15625 L 76.011719 16.15625 L 76.464844 14.160156 L 79.167969 14.160156 L 79.746094 11.261719 L 82.484375 11.261719 L 83.066406 7.496094 "/>
<path style=" stroke:none;fill-rule:nonzero;fill:rgb(100%,100%,100%);fill-opacity:1;" d="M 82.097656 13 L 84.675781 13 L 84.480469 14.160156 L 81.875 14.160156 L 82.097656 13 "/>
<path style=" stroke:none;fill-rule:nonzero;fill:rgb(85.072327%,11.758423%,14.666748%);fill-opacity:1;" d="M 71.375 16.242188 L 69.125 16.242188 L 70.925781 7.578125 L 73.085938 7.578125 L 71.375 16.242188 "/>
<path style=" stroke:none;fill-rule:nonzero;fill:rgb(85.072327%,11.758423%,14.666748%);fill-opacity:1;" d="M 37.726562 16.222656 L 35.472656 16.222656 L 37.273438 7.558594 L 39.433594 7.558594 L 37.726562 16.222656 "/>
<path style=" stroke:none;fill-rule:nonzero;fill:rgb(85.072327%,11.758423%,14.666748%);fill-opacity:1;" d="M 21.894531 16.15625 L 19.640625 16.15625 L 21.445312 7.496094 L 23.601562 7.496094 L 21.894531 16.15625 "/>
<path style=" stroke:none;fill-rule:nonzero;fill:rgb(85.072327%,11.758423%,14.666748%);fill-opacity:1;" d="M 69.9375 7.496094 L 68.164062 16.15625 L 60.855469 16.15625 L 60.308594 18.863281 L 52.933594 18.863281 L 53.257812 17.121094 L 58.636719 17.121094 L 58.828125 16.15625 L 55.515625 16.15625 L 56.480469 11.261719 L 61.953125 11.261719 L 61.433594 14.160156 L 66.171875 14.160156 L 66.492188 13 L 64.433594 13 L 64.816406 11.261719 L 66.816406 11.261719 L 67.75 7.496094 L 69.9375 7.496094 "/>
<path style=" stroke:none;fill-rule:nonzero;fill:rgb(100%,100%,100%);fill-opacity:1;" d="M 58.035156 13.203125 L 59.484375 13.203125 L 59.289062 14.363281 L 57.777344 14.363281 L 58.035156 13.203125 "/>
<path style=" stroke:none;fill-rule:nonzero;fill:rgb(85.072327%,11.758423%,14.666748%);fill-opacity:1;" d="M 63.261719 18.816406 L 63.585938 17.078125 L 65.773438 17.078125 L 65.421875 18.816406 L 63.261719 18.816406 "/>
<path style=" stroke:none;fill-rule:nonzero;fill:rgb(85.072327%,11.758423%,14.666748%);fill-opacity:1;" d="M 43.148438 11.269531 L 48.296875 11.269531 L 47.785156 14.074219 L 50.589844 14.074219 L 51.292969 11.269531 L 53.515625 11.269531 L 52.457031 16.164062 L 45.046875 16.164062 L 45.144531 15.425781 L 42.152344 15.425781 L 43.148438 11.269531 "/>
<path style=" stroke:none;fill-rule:nonzero;fill:rgb(100%,100%,100%);fill-opacity:1;" d="M 44.40625 13.109375 L 45.820312 13.109375 L 45.691406 14.136719 L 44.210938 14.136719 L 44.40625 13.109375 "/>
<path style=" stroke:none;fill-rule:nonzero;fill:rgb(85.072327%,11.758423%,14.666748%);fill-opacity:1;" d="M 0.996094 11.296875 L 6.148438 11.296875 L 5.636719 14.097656 L 8.4375 14.097656 L 9.144531 11.296875 L 11.367188 11.296875 L 10.304688 16.1875 L 2.898438 16.1875 L 2.992188 15.445312 L 0 15.445312 L 0.996094 11.296875 "/>
<path style=" stroke:none;fill-rule:nonzero;fill:rgb(100%,100%,100%);fill-opacity:1;" d="M 2.703125 12.890625 L 4.121094 12.890625 L 3.992188 13.921875 L 2.511719 13.921875 L 2.703125 12.890625 "/>
<path style=" stroke:none;fill-rule:nonzero;fill:rgb(85.072327%,11.758423%,14.666748%);fill-opacity:1;" d="M 48.300781 10.304688 L 48.632812 8.566406 L 43.878906 8.566406 L 43.449219 10.304688 L 48.300781 10.304688 "/>
<path style=" stroke:none;fill-rule:nonzero;fill:rgb(85.072327%,11.758423%,14.666748%);fill-opacity:1;" d="M 6.140625 10.25 L 6.46875 8.511719 L 1.71875 8.511719 L 1.289062 10.25 L 6.140625 10.25 "/>
<path style=" stroke:none;fill-rule:nonzero;fill:rgb(85.072327%,11.758423%,14.666748%);fill-opacity:1;" d="M 9.9375 18.785156 L 10.257812 17.027344 L 5.65625 17.027344 L 5.238281 18.785156 L 9.9375 18.785156 "/>
<path style=" stroke:none;fill-rule:nonzero;fill:rgb(85.072327%,11.758423%,14.666748%);fill-opacity:1;" d="M 51.898438 18.816406 L 52.21875 17.078125 L 47.613281 17.078125 L 47.195312 18.816406 L 51.898438 18.816406 "/>
<path style=" stroke:none;fill-rule:nonzero;fill:rgb(85.072327%,11.758423%,14.666748%);fill-opacity:1;" d="M 36 7.496094 L 34.257812 16.15625 L 27.015625 16.15625 L 26.464844 18.863281 L 21.507812 18.863281 L 21.765625 17.121094 L 24.566406 17.121094 L 25.210938 14.160156 L 32.292969 14.160156 L 32.554688 13 L 30.300781 13 L 30.554688 11.261719 L 33.132812 11.261719 L 34 7.496094 L 36 7.496094 "/>
<path style=" stroke:none;fill-rule:nonzero;fill:rgb(85.072327%,11.758423%,14.666748%);fill-opacity:1;" d="M 17.289062 11.828125 L 19.351562 11.785156 L 18.535156 15.910156 L 16.429688 15.949219 L 15.742188 18.785156 L 10.847656 18.914062 L 11.148438 16.980469 L 14.027344 16.980469 L 14.582031 14.234375 L 16.902344 14.234375 L 17.289062 11.828125 "/>
<path style=" stroke:none;fill-rule:nonzero;fill:rgb(85.072327%,11.758423%,14.666748%);fill-opacity:1;" d="M 17.011719 10.648438 L 19.492188 10.648438 L 19.941406 8.589844 L 20.230469 8.589844 L 20.296875 7.847656 L 18.460938 7.785156 L 18.007812 9.878906 L 17.171875 9.972656 L 17.011719 10.648438 "/>
<path style=" stroke:none;fill-rule:nonzero;fill:rgb(100%,100%,100%);fill-opacity:1;" d="M 108.203125 13.042969 L 109.164062 8.761719 L 108.71875 8.792969 L 107.71875 13.074219 L 108.136719 13.042969 "/>
<g clip-path="url(#clip1)" clip-rule="nonzero">
<path style=" stroke:none;fill-rule:nonzero;fill:rgb(85.072327%,11.758423%,14.666748%);fill-opacity:1;" d="M 144.460938 39.195312 L 145.5 38.945312 C 149.3125 38.359375 151.847656 35.800781 151.847656 35.800781 C 153.28125 34.722656 158.277344 29.515625 158.277344 29.515625 C 166.394531 20.34375 174.679688 21.984375 174.679688 21.984375 C 174.679688 21.984375 171.640625 41.878906 144.460938 39.195312 Z M 125.539062 13.539062 C 125.539062 13.539062 128.097656 8.167969 136.449219 4.320312 C 136.449219 4.320312 141.214844 6.53125 144.648438 10.398438 C 144.648438 10.398438 151.605469 17.832031 152.941406 18.511719 C 152.941406 18.511719 150.144531 20.535156 138.464844 9.445312 C 138.464844 9.445312 131.296875 15.003906 130.949219 20.003906 L 174.582031 20.003906 L 174.628906 21.003906 L 130.867188 21.003906 C 130.867188 21.003906 131.210938 25.34375 137.867188 31.546875 C 137.867188 31.546875 147.613281 23.054688 152.984375 22.246094 L 153.28125 22.25 C 153.28125 22.25 149.71875 25.292969 147.355469 27.96875 C 147.355469 27.96875 140.742188 34.863281 135.933594 36.519531 C 135.933594 36.519531 118.195312 28.960938 125.539062 13.539062 Z M 174.550781 19.226562 C 174.550781 19.226562 166.265625 20.90625 158.144531 11.527344 C 158.144531 11.527344 153.15625 6.203125 151.71875 5.105469 C 151.71875 5.105469 149.183594 2.488281 145.367188 1.890625 L 144.332031 1.636719 C 171.507812 -1.109375 174.550781 19.226562 174.550781 19.226562 Z M 149.144531 0.00390625 C 134.3125 0.00390625 122.289062 9.171875 122.289062 20.480469 C 122.289062 31.792969 134.3125 40.960938 149.144531 40.960938 C 163.976562 40.960938 176 31.792969 176 20.480469 C 176 9.171875 163.976562 0.00390625 149.144531 0.00390625 "/>
</g>
</g>
</svg>
