<svg xmlns="http://www.w3.org/2000/svg" xml:space="preserve" id="Layer_1" x="0" y="0" version="1.1" viewBox="0 0 176 59"><style>.st0{fill:#da0e29}</style><path d="M52.8 29.1c1.7-.9 2.7-2.7 2.7-4.9 0-4.8-3.5-6.4-9.6-6.4H35.3v16.3h5.2v-3.4H46c.8 0 1.6 0 2.3-.1 1 .9 1.8 2.5 2.1 3.5h5.4c-.5-1.8-1.7-3.9-3-5m-6.6-2.2h-5.7v-5.4h5.7c2.8 0 4.3.5 4.3 2.6 0 2.2-1.5 2.8-4.3 2.8M31.1 17.8h-5.2v16.3h5.2zM73.2 17.8H68v16.3h5.2zM131.7 17.8h-5.2v16.3h5.2zM112.9 17.8h-10.3v16.3h10.3c6.1 0 10.5-2.7 10.5-8.2 0-5.4-4.5-8.1-10.5-8.1m-.7 12.4h-4.5v-8.5h4.5c3.9 0 6 1.4 6 4.3 0 2.8-2.1 4.2-6 4.2M93.3 25.2c-3.1-3.5-6.9-6-11.5-7.4h-4.4v16.3h5V23c4.8 1.5 9.2 6.4 11.3 11h4.6V17.8h-5zM8.3 17.8C4.8 21.6 0 28.2 0 34.1h5.2q0-1.35.3-2.7h11.8q.3 1.35.3 2.7h5.2c0-5.9-4.8-12.4-8.3-16.3zM6.7 28c1.3-2.8 3.1-5.3 4.7-7.2 1.6 1.9 3.5 4.4 4.7 7.2zM149.3 17.8H143c-3.4 3.9-8.3 10.4-8.3 16.3h5.2q0-1.35.3-2.7H152q.3 1.35.3 2.7h5.2c.1-5.9-4.8-12.5-8.2-16.3M141.4 28c1.3-2.8 3.1-5.3 4.7-7.2 1.6 1.9 3.5 4.4 4.7 7.2z" class="st0"/><linearGradient id="SVGID_1_" x1="191.127" x2="148.373" y1="1.739" y2="59.898" gradientTransform="matrix(1 0 0 -1 0 59.89)" gradientUnits="userSpaceOnUse"><stop offset=".18" style="stop-color:#fed9a0"/><stop offset=".312" style="stop-color:#ecc890"/><stop offset=".574" style="stop-color:#bf9a66"/><stop offset=".746" style="stop-color:#9e7947"/></linearGradient><path d="M175.9 28.1c.4-3.2-.3-5.9-1-7.7-.5-1.3-.8-2.3-1.1-3.2-1.5-4.1-1.7-4.9-2.7-9l-.3-1.4-1.3-.4c-4-1.3-4.7-1.6-8.7-3.4-.9-.4-1.9-.8-3.1-1.4-1.4-.6-3.6-1.5-6.3-1.6-4.1-.2-7.9 1.5-11.6 4.9h.1c-.9.8-1.9 1.8-2.8 2.9 0 0 0 .1.2-.1 1.3-1 5.4-4.9 16.7.2 5.5 2.5 10.9 4.7 10.9 4.7s1.7 5.5 3.7 11.2c4.1 11.7-.2 15.5-1.3 16.6-.2.2-.1.2-.1.2 1.6-1.2 2.9-2.4 4-3.5 2.6-2.8 4.2-5.8 4.7-9" style="fill:url(#SVGID_1_)"/><path d="m170.7 6.8-1.3-.4c-4-1.3-4.7-1.6-8.7-3.4-.9-.4-1.9-.8-3.1-1.4-1.4-.6-3.6-1.5-6.3-1.6-4.1-.2-7.9 1.5-11.6 4.9h.1c-.9.8-1.9 1.8-2.8 2.9 0 0 0 .1.2-.1 1.3-1 5.4-4.9 16.7.2 5.5 2.5 10.9 4.7 10.9 4.7z" style="fill:#fed9a0"/></svg>