<?xml version="1.0" encoding="utf-8"?>
<!-- Generator: Adobe Illustrator 28.0.0, SVG Export Plug-In . SVG Version: 6.00 Build 0)  -->
<svg version="1.1" id="Layer_1" xmlns="http://www.w3.org/2000/svg" xmlns:xlink="http://www.w3.org/1999/xlink" x="0px" y="0px"
	 viewBox="0 0 176 59" style="enable-background:new 0 0 176 59;" xml:space="preserve">
<style type="text/css">
	.st0{fill:#DA0E29;}
	.st1{fill:url(#SVGID_1_);}
	.st2{fill:#FED9A0;}
</style>
<g>
	<path class="st0" d="M52.8,29.1c1.7-0.9,2.7-2.7,2.7-4.9c0-4.8-3.5-6.4-9.6-6.4H35.3v16.3h5.2v-3.4H46c0.8,0,1.6,0,2.3-0.1    c1,0.9,1.8,2.5,2.1,3.5h5.4C55.3,32.3,54.1,30.2,52.8,29.1z M46.2,26.9h-5.7v-5.4h5.7c2.8,0,4.3,0.5,4.3,2.6    C50.5,26.3,49,26.9,46.2,26.9z"/>
	<path class="st0" d="M31.1,17.8h-5.2v16.3h5.2V17.8z"/>
	<path class="st0" d="M73.2,17.8H68v16.3h5.2V17.8z"/>
	<path class="st0" d="M131.7,17.8h-5.2v16.3h5.2V17.8z"/>
	<path class="st0" d="M112.9,17.8h-10.3v16.3h10.3c6.1,0,10.5-2.7,10.5-8.2C123.4,20.5,118.9,17.8,112.9,17.8z M112.2,30.2h-4.5    v-8.5h4.5c3.9,0,6,1.4,6,4.3C118.2,28.8,116.1,30.2,112.2,30.2z"/>
	<path class="st0" d="M93.3,25.2c-3.1-3.5-6.9-6-11.5-7.4h-4.4v16.3h5V23c4.8,1.5,9.2,6.4,11.3,11h4.6V17.8h-5L93.3,25.2L93.3,25.2z    "/>
	<path class="st0" d="M8.3,17.8C4.8,21.6,0,28.2,0,34.1h5.2c0-0.9,0.1-1.8,0.3-2.7h11.8c0.2,0.9,0.3,1.8,0.3,2.7h5.2    c0-5.9-4.8-12.4-8.3-16.3H8.3z M6.7,28c1.3-2.8,3.1-5.3,4.7-7.2c1.6,1.9,3.5,4.4,4.7,7.2H6.7z"/>
	<path class="st0" d="M149.3,17.8H143c-3.4,3.9-8.3,10.4-8.3,16.3h5.2c0-0.9,0.1-1.8,0.3-2.7H152c0.2,0.9,0.3,1.8,0.3,2.7h5.2    C157.6,28.2,152.7,21.6,149.3,17.8z M141.4,28c1.3-2.8,3.1-5.3,4.7-7.2c1.6,1.9,3.5,4.4,4.7,7.2H141.4z"/>
	
		<linearGradient id="SVGID_1_" gradientUnits="userSpaceOnUse" x1="191.1272" y1="1.7391" x2="148.373" y2="59.8985" gradientTransform="matrix(1 0 0 -1 0 59.8898)">
		<stop  offset="0.1805" style="stop-color:#FED9A0"/>
		<stop  offset="0.3124" style="stop-color:#ECC890"/>
		<stop  offset="0.5738" style="stop-color:#BF9A66"/>
		<stop  offset="0.7464" style="stop-color:#9E7947"/>
	</linearGradient>
	<path class="st1" d="M175.9,28.1c0.4-3.2-0.3-5.9-1-7.7c-0.5-1.3-0.8-2.3-1.1-3.2c-1.5-4.1-1.7-4.9-2.7-9l-0.3-1.4l-1.3-0.4    c-4-1.3-4.7-1.6-8.7-3.4c-0.9-0.4-1.9-0.8-3.1-1.4c-1.4-0.6-3.6-1.5-6.3-1.6c-4.1-0.2-7.9,1.5-11.6,4.9l0.1,0    c-0.9,0.8-1.9,1.8-2.8,2.9c0,0,0,0.1,0.2-0.1c1.3-1,5.4-4.9,16.7,0.2c5.5,2.5,10.9,4.7,10.9,4.7s1.7,5.5,3.7,11.2    c4.1,11.7-0.2,15.5-1.3,16.6c-0.2,0.2-0.1,0.2-0.1,0.2c1.6-1.2,2.9-2.4,4-3.5C173.8,34.3,175.4,31.3,175.9,28.1z"/>
	<path class="st2" d="M170.7,6.8l-1.3-0.4c-4-1.3-4.7-1.6-8.7-3.4c-0.9-0.4-1.9-0.8-3.1-1.4c-1.4-0.6-3.6-1.5-6.3-1.6    c-4.1-0.2-7.9,1.5-11.6,4.9l0.1,0c-0.9,0.8-1.9,1.8-2.8,2.9c0,0,0,0.1,0.2-0.1c1.3-1,5.4-4.9,16.7,0.2c5.5,2.5,10.9,4.7,10.9,4.7    L170.7,6.8z"/>
</g>
</svg>
