<svg xmlns="http://www.w3.org/2000/svg" width="229.08" height="59pt" viewBox="0 0 171.81 59"><defs><clipPath id="a"><path d="M147 17h24.809v11H147Zm0 0"/></clipPath><clipPath id="b"><path d="M147 3h24.809v8H147Zm0 0"/></clipPath><clipPath id="c"><path d="M160 10h11.809v7H160Zm0 0"/></clipPath></defs><path d="M30.629 19.602c-5.754-.032-9.977 4.203-9.922 9.859.035 3.543 2.129 5.375 5.598 4.691 3.785-.742 7.07-2.5 9.636-5.441.532-.606.996-1.3 1.336-2.031 1.028-2.211.438-4.239-1.597-5.567-1.555-1.011-3.266-1.578-5.051-1.511M41.793 35.05c-.785.754-1.559 1.52-2.363 2.254-7.633 6.965-16.575 9.64-26.727 7.883-2.101-.364-4.187-1.344-6.058-2.422C2.816 40.566.598 37.102.18 32.707-.81 22.32 2.215 13.328 10.57 6.828c18.184-14.14 42.508-4.965 47.922 15.106 4.75 17.62-7.851 35.562-26.039 36.96-8.437.653-15.828-1.75-22.297-7.136-.574-.48-1.133-1.008-1.586-1.598-.226-.293-.402-.933-.238-1.144.246-.325.805-.575 1.227-.563.539.012 1.07.313 1.605.48 8.25 2.606 15.977 1.528 23.102-3.398 3.086-2.129 5.53-4.902 7.398-8.156.336-.594.426-1.328.629-1.996q-.25-.167-.5-.332" style="stroke:none;fill-rule:nonzero;fill:#f57f16;fill-opacity:1"/><path d="M74.8 3.547h4.352c-.14.816-.273 1.574-.453 2.598h4.711c.754 0 1.508-.016 2.258.011 2.617.094 3.656 1.074 3.691 3.688.051 4.14.016 8.285.02 12.43v2.242l4.273.195c-.316 1.133-.597 2.125-.914 3.262-2.004 0-3.925.058-5.84-.028-.953-.043-1.617-.703-1.812-1.656a12.6 12.6 0 0 1-.258-2.422c-.027-4.02-.004-8.035-.016-12.05-.007-1.993-.28-2.258-2.296-2.282-1.567-.02-3.13-.004-4.895-.004-1.816 6.137-3.617 12.239-5.441 18.403h-4.551c1.777-6.164 3.5-12.157 5.293-18.368H67.14l.976-3.433h5.738c.329-.895.606-1.649.946-2.586M140.734 42.953c1.989 0 3.778.02 5.567-.008 1.887-.027 2.855-.789 3.05-2.336.208-1.648-.75-3.14-2.464-3.414a14.6 14.6 0 0 0-4.082-.058c-1.09.136-1.965.886-2.051 2.11-.086 1.163-.02 2.335-.02 3.706m9.25 2.836c1.828 3.012 3.606 5.938 5.637 9.29-1.95 0-3.473.093-4.973-.06-.449-.042-.902-.722-1.226-1.195-1.418-2.054-2.66-4.238-4.219-6.172-1.183-1.472-2.293-1.636-4.375-1.359v8.664h-4.766c-.046-.426-.144-.902-.144-1.375-.012-5.078-.016-10.16 0-15.238.008-2.606 1.129-4.395 3.668-4.668 3.137-.332 6.398-.446 9.5.043 3.762.593 5.766 4.312 4.902 8.004-.476 2.05-1.406 2.996-4.004 4.066M91.137 43.836c2.02.031 3.66-1.402 3.691-3.223.027-1.816-1.566-3.277-3.605-3.304-2.04-.028-3.66 1.382-3.684 3.207-.027 1.816 1.566 3.289 3.598 3.32m-7.91 9.363 2.25-3.066c6.488 1.5 7.949.965 9.078-3.414-.465.187-.825.308-1.16.468-3.653 1.727-8.204.27-9.868-3.16-1.836-3.797-.277-8.117 3.602-9.976 5.64-2.696 11.219.129 12.36 6.289.542 2.937.507 5.879-.497 8.722-2.316 6.56-10.55 8.766-15.765 4.137M115.16 46.14c-.972-2.269-1.812-4.218-2.832-6.59-1.035 2.454-1.883 4.454-2.781 6.59zm8.645 8.887h-4.918c-.649-1.55-1.293-3.101-1.985-4.757-2.734 0-5.422-.04-8.105.042-.402.012-.953.528-1.145.946-.547 1.187-.941 2.441-1.422 3.734h-5.039c.079-.367.094-.722.223-1.023 2.531-5.938 5.063-11.875 7.621-17.797.781-1.813 1.828-2.465 3.613-2.41 1.301.035 2.313.566 2.852 1.785 2.777 6.305 5.54 12.617 8.297 18.933.047.102.008.239.008.547M114.156 24.605h4.063v3.332c-2.305 0-4.66.145-6.989-.058-1.296-.11-1.68-1.352-1.683-2.578q-.01-4.234-.008-8.469v-2.203h-5.918c-1.25 4.312-2.531 8.738-3.844 13.262h-4.656c1.29-4.457 2.54-8.77 3.863-13.336H93.93V10.94c.683-.035 1.289-.093 1.902-.093a8145 8145 0 0 1 19.54-.004c2.808.004 3.25.547 2.78 3.574h-3.996zM128 13.168c-1.406 1.207-2.156.285-3.035-1.078l.18 2.484h2.789c.02-.445.039-.8.066-1.406m-.066 5.293c-2.621-.445-2.797-.371-2.786 1.113 1.649-.207 1.649-.207 2.786 2.031zm.117-6.797c0-.73-.024-1.457.008-2.184.043-1.195-.657-1.468-1.668-1.425-1.141.05-1.516.613-1.22 1.777 1.934-.844 2.099.813 2.88 1.832m-3.086 10.637v5.586h-3.485V25.18c0-1.754.02-3.512-.007-5.27-.008-.484-.016-1.047-.25-1.433-.993-1.633-.77-2.356-.075-4.028.477-1.152.5-2.804.04-3.96-.754-1.891-.876-3.188.394-4.618.621-.703 1.152-1.48 1.856-2.394.648 0 1.457-.012 2.261.003.305.008.848.028.875.141.36 1.524 1.594.973 2.528 1.121 1.562.254 2.378 1.117 2.468 2.824.078 1.504.035 3.012.035 4.52v15.871h-3.472v-2.672c-2.324.25-2.227-1.668-2.762-3.039-.137.02-.27.035-.406.055" style="stroke:none;fill-rule:nonzero;fill:#211717;fill-opacity:1"/><g clip-path="url(#a)"><path d="M171.809 24.656v3.29h-24.395v-3.188h10.059v-3.965h-9.52v-3.34h23.29v3.254h-9.348v3.95z" style="stroke:none;fill-rule:nonzero;fill:#211717;fill-opacity:1"/></g><path d="M145.16 27.875c-.55.105-.73.164-.914.172-3.484.144-4.047-.395-4.05-3.879-.005-2.574.007-5.145-.008-7.715-.004-.687.09-1.457-.184-2.039-.242-.504-.938-1.09-1.43-1.094-.508 0-1.172.575-1.476 1.07-.262.422-.137 1.098-.137 1.66-.012 3.387 0 6.774-.012 10.16 0 .548-.062 1.095-.101 1.743h-3.559c-.059-.512-.168-.984-.168-1.465-.016-4.261-.027-8.527 0-12.793.016-3.047.785-3.797 3.777-3.804 1.317-.004 2.63-.016 3.946 0 2.277.03 3.191.875 3.234 3.183.063 3.074 0 6.149.031 9.219.008.934-.172 1.812.766 2.68.52.476.215 1.855.285 2.902M131.66 55.004h-4.832c-.058-.492-.168-.969-.168-1.445-.012-5.707-.02-11.41 0-17.118.004-1.949.762-2.707 2.535-2.683 1.633.02 2.41.734 2.45 2.41.05 2.004.015 4.012.015 6.02z" style="stroke:none;fill-rule:nonzero;fill:#211717;fill-opacity:1"/><g clip-path="url(#b)"><path d="M171.547 10.465h-3.766c-.027-2.05-1.43-2.121-3.058-2.086-3.575.074-7.145.016-10.715.023-2.016.004-2.016.016-2.5 2.059h-3.871c0-1.074-.114-2.125.027-3.14.2-1.415 1.203-2.204 2.805-2.274 1.687-.07 3.386.035 5.07-.059a3.5 3.5 0 0 0 1.793-.668c1.52-1.152 3.078-1.136 4.621.063.442.34 1.067.574 1.625.605 1.438.086 2.883.02 4.32.035 2.84.024 3.79 1.008 3.766 3.903-.004.484-.07.969-.117 1.539" style="stroke:none;fill-rule:nonzero;fill:#211717;fill-opacity:1"/></g><path d="M95.328 7.047V3.59c.613-.043 1.156-.113 1.7-.113 5.695-.008 11.39-.012 17.085 0 2.723.003 3.215.648 2.692 3.57zM132.46 8.254V5.02c.774 0 1.442-.012 2.11 0 .766.015 1.371-.106 1.996-.723 1.243-1.219 3.008-1.074 4.442.031.445.344 1.05.617 1.605.664 2.34.196 2.664.57 2.38 3.262zM147.707 15.957v-3.164c.684-.105 1.3-.148 1.89-.309 1.016-.27 2.29-.32 2.97-.972 1.78-1.711 3.777-1.098 5.78-1.11-.57 3.438-5.23 5.875-10.64 5.555" style="stroke:none;fill-rule:nonzero;fill:#211717;fill-opacity:1"/><g clip-path="url(#c)"><path d="M171.41 13.25v2.547c-3.863 1.172-9.097-1.426-10.496-5.336 1.844-.043 3.484-.527 5.258.785 1.367 1.016 3.285 1.293 5.238 2.004" style="stroke:none;fill-rule:nonzero;fill:#211717;fill-opacity:1"/></g></svg>