<?xml version="1.0" encoding="UTF-8"?>
<svg xmlns="http://www.w3.org/2000/svg" xmlns:xlink="http://www.w3.org/1999/xlink" width="138.42pt" height="59pt" viewBox="0 0 138.42 59" version="1.1">
<defs>
<clipPath id="clip1">
  <path d="M 97 0 L 138.421875 0 L 138.421875 11 L 97 11 Z M 97 0 "/>
</clipPath>
</defs>
<g id="surface1">
<path style=" stroke:none;fill-rule:nonzero;fill:rgb(8.334351%,45.431519%,75.915527%);fill-opacity:1;" d="M 128.539062 18.707031 C 128.226562 18.664062 127.941406 18.601562 127.675781 18.574219 C 127.410156 18.511719 127.089844 18.484375 126.789062 18.449219 C 126.449219 18.421875 126.097656 18.40625 125.722656 18.398438 C 125.3125 18.351562 124.835938 18.351562 124.25 18.351562 C 123.539062 18.351562 122.8125 18.421875 122.082031 18.539062 C 121.320312 18.671875 120.660156 18.910156 120.074219 19.238281 C 119.480469 19.578125 119.011719 20.039062 118.636719 20.597656 C 118.238281 21.175781 118.0625 21.886719 118.0625 22.746094 C 118.0625 24.035156 118.949219 25.191406 120.59375 26.195312 L 123.210938 27.765625 C 123.894531 28.148438 124.320312 28.472656 124.480469 28.707031 C 124.691406 28.964844 124.765625 29.183594 124.78125 29.433594 C 124.765625 29.835938 124.691406 30.125 124.542969 30.382812 C 124.390625 30.632812 124.160156 30.828125 123.921875 30.96875 C 123.628906 31.121094 123.324219 31.253906 122.972656 31.316406 C 122.589844 31.386719 122.207031 31.429688 121.789062 31.429688 C 121.550781 31.429688 121.230469 31.429688 120.859375 31.40625 C 120.503906 31.386719 120.105469 31.367188 119.6875 31.34375 C 119.277344 31.316406 118.859375 31.28125 118.476562 31.253906 C 118.0625 31.210938 117.707031 31.164062 117.351562 31.136719 L 117.144531 31.136719 C 116.792969 31.121094 116.398438 31.367188 116.347656 31.742188 L 116.167969 32.691406 L 116.167969 32.824219 C 116.167969 33.03125 116.242188 33.234375 116.4375 33.339844 C 116.550781 33.429688 116.703125 33.488281 116.84375 33.535156 C 117.199219 33.605469 117.570312 33.675781 117.945312 33.714844 C 118.371094 33.765625 118.769531 33.828125 119.1875 33.84375 C 119.597656 33.875 119.96875 33.890625 120.367188 33.917969 C 120.75 33.933594 121.105469 33.933594 121.40625 33.933594 L 121.433594 33.933594 C 122.234375 33.933594 123.007812 33.875 123.769531 33.714844 C 124.542969 33.5625 125.226562 33.296875 125.828125 32.921875 C 126.433594 32.558594 126.914062 32.070312 127.296875 31.476562 C 127.648438 30.835938 127.855469 30.074219 127.855469 29.183594 C 127.855469 28.546875 127.648438 27.941406 127.269531 27.390625 C 126.894531 26.832031 126.183594 26.238281 125.191406 25.613281 L 122.589844 24.0625 C 122.101562 23.75 121.730469 23.484375 121.460938 23.234375 C 121.230469 22.996094 121.140625 22.792969 121.140625 22.507812 C 121.140625 22.171875 121.214844 21.929688 121.371094 21.734375 C 121.523438 21.53125 121.746094 21.371094 122.011719 21.238281 C 122.277344 21.113281 122.5625 21.015625 122.917969 20.980469 C 123.253906 20.925781 123.59375 20.890625 123.894531 20.890625 C 124.691406 20.890625 125.476562 20.910156 126.230469 20.953125 C 126.984375 21 127.605469 21.042969 128.09375 21.105469 L 128.210938 21.105469 C 128.601562 21.132812 129.007812 20.839844 129.042969 20.441406 L 129.203125 19.550781 L 129.203125 19.402344 C 129.203125 19.046875 128.894531 18.753906 128.539062 18.707031 Z M 111.90625 29.984375 C 111.136719 30.453125 110.46875 30.808594 109.863281 31.050781 C 109.246094 31.296875 108.605469 31.429688 107.964844 31.429688 C 107.34375 31.429688 106.8125 31.253906 106.367188 30.878906 C 105.960938 30.542969 105.71875 29.921875 105.71875 28.917969 C 105.71875 28.738281 105.746094 28.546875 105.765625 28.339844 C 105.78125 28.128906 105.808594 27.941406 105.851562 27.746094 L 106.367188 24.992188 C 106.636719 23.617188 107.113281 22.597656 107.851562 21.902344 C 108.589844 21.21875 109.652344 20.863281 111.109375 20.863281 C 111.714844 20.863281 112.230469 20.890625 112.644531 20.953125 C 112.972656 20.980469 113.292969 21.042969 113.59375 21.089844 Z M 116.933594 19.640625 C 116.933594 19.238281 116.578125 19.046875 116.195312 18.972656 C 115.460938 18.796875 114.660156 18.664062 113.773438 18.53125 C 112.867188 18.421875 111.996094 18.351562 111.109375 18.351562 C 110.222656 18.351562 109.359375 18.46875 108.535156 18.671875 C 107.699219 18.886719 106.9375 19.238281 106.253906 19.730469 C 105.539062 20.21875 104.945312 20.882812 104.449219 21.683594 C 103.96875 22.480469 103.589844 23.484375 103.367188 24.65625 L 102.851562 27.300781 C 102.726562 27.863281 102.65625 28.410156 102.65625 28.964844 C 102.65625 29.789062 102.789062 30.542969 103.054688 31.164062 C 103.296875 31.804688 103.632812 32.335938 104.058594 32.734375 C 104.503906 33.144531 105.007812 33.445312 105.585938 33.652344 C 106.164062 33.84375 106.757812 33.933594 107.40625 33.933594 L 107.433594 33.933594 C 107.910156 33.933594 108.355469 33.917969 108.765625 33.84375 C 109.15625 33.765625 109.535156 33.675781 109.917969 33.535156 C 110.289062 33.402344 110.648438 33.222656 111.019531 33.03125 C 111.226562 32.914062 111.445312 32.78125 111.695312 32.632812 L 111.640625 32.851562 L 111.640625 33.054688 C 111.640625 33.222656 111.695312 33.386719 111.785156 33.519531 C 111.90625 33.714844 112.140625 33.757812 112.351562 33.757812 L 113.507812 33.757812 C 113.710938 33.757812 113.933594 33.667969 114.09375 33.535156 C 114.242188 33.402344 114.375 33.222656 114.394531 33.03125 L 116.878906 19.914062 C 116.933594 19.828125 116.933594 19.738281 116.933594 19.640625 Z M 98.910156 24.835938 L 91.824219 24.835938 C 91.957031 24.300781 92.136719 23.839844 92.375 23.378906 C 92.640625 22.90625 92.933594 22.480469 93.316406 22.089844 C 93.6875 21.726562 94.113281 21.445312 94.59375 21.246094 C 95.09375 21.042969 95.625 20.953125 96.21875 20.953125 C 98.21875 20.980469 99.03125 21.734375 99.058594 23.503906 C 99.058594 23.910156 99.015625 24.355469 98.910156 24.835938 Z M 100.746094 19.890625 C 100.277344 19.402344 99.707031 19.046875 99.03125 18.761719 C 98.324219 18.492188 97.523438 18.351562 96.601562 18.351562 C 94.507812 18.351562 92.730469 18.929688 91.398438 20.109375 C 90.046875 21.28125 89.160156 22.996094 88.71875 25.171875 L 88.34375 27.019531 C 88.203125 27.632812 88.140625 28.207031 88.140625 28.738281 C 88.140625 29.671875 88.316406 30.480469 88.671875 31.164062 C 89 31.8125 89.472656 32.347656 90.03125 32.761719 C 90.582031 33.179688 91.21875 33.472656 91.929688 33.667969 C 92.640625 33.84375 93.351562 33.933594 94.089844 33.933594 C 95.09375 33.933594 95.953125 33.890625 96.722656 33.828125 C 97.488281 33.738281 98.304688 33.625 99.175781 33.488281 C 99.441406 33.445312 99.65625 33.386719 99.832031 33.222656 C 99.972656 33.074219 100.035156 32.878906 100.082031 32.648438 L 100.257812 31.742188 L 100.257812 31.582031 C 100.257812 31.449219 100.1875 31.273438 100.0625 31.183594 C 99.921875 31.078125 99.773438 31.058594 99.617188 31.050781 L 99.460938 31.050781 C 98.75 31.148438 97.96875 31.226562 97.0625 31.316406 C 96.175781 31.386719 95.304688 31.429688 94.46875 31.429688 C 93.40625 31.429688 92.550781 31.226562 91.984375 30.808594 C 91.425781 30.410156 91.132812 29.804688 91.132812 28.855469 C 91.132812 28.605469 91.132812 28.367188 91.183594 28.101562 C 91.203125 27.851562 91.273438 27.585938 91.335938 27.300781 L 91.398438 27.167969 L 100.835938 27.167969 C 101.074219 27.167969 101.324219 27.097656 101.484375 26.902344 C 101.609375 26.753906 101.679688 26.566406 101.726562 26.371094 L 101.964844 25.242188 C 102.078125 24.65625 102.125 24.105469 102.125 23.589844 C 102.125 22.863281 102.015625 22.199219 101.785156 21.546875 C 101.570312 20.910156 101.234375 20.359375 100.746094 19.890625 Z M 86.214844 19.640625 C 85.832031 19.238281 85.34375 18.929688 84.765625 18.691406 C 84.1875 18.484375 83.496094 18.351562 82.679688 18.351562 C 81.703125 18.351562 80.816406 18.492188 80.085938 18.753906 C 79.5 18.9375 78.949219 19.179688 78.398438 19.445312 L 78.417969 19.382812 L 78.417969 19.238281 C 78.417969 19.089844 78.34375 18.910156 78.257812 18.78125 C 78.132812 18.621094 77.902344 18.539062 77.707031 18.539062 L 76.304688 18.539062 C 76.089844 18.539062 75.859375 18.621094 75.710938 18.761719 C 75.558594 18.910156 75.414062 19.089844 75.382812 19.285156 L 72.804688 32.921875 L 72.804688 33.054688 C 72.804688 33.222656 72.867188 33.386719 72.957031 33.5 C 73.074219 33.675781 73.285156 33.757812 73.488281 33.757812 L 74.910156 33.757812 C 75.132812 33.757812 75.328125 33.675781 75.503906 33.535156 C 75.683594 33.402344 75.824219 33.222656 75.859375 33.03125 L 77.972656 21.886719 C 78.84375 21.515625 79.527344 21.265625 80.105469 21.132812 C 80.707031 21.015625 81.257812 20.953125 81.808594 20.953125 C 82.8125 20.9375 83.476562 21.132812 83.746094 21.398438 C 84.027344 21.710938 84.207031 22.128906 84.207031 22.714844 C 84.207031 22.90625 84.1875 23.128906 84.171875 23.378906 C 84.144531 23.636719 84.117188 23.882812 84.054688 24.152344 L 82.574219 32.898438 L 82.574219 33.03125 C 82.574219 33.222656 82.609375 33.429688 82.769531 33.5625 C 82.925781 33.675781 83.105469 33.738281 83.300781 33.738281 L 84.675781 33.738281 C 84.882812 33.738281 85.09375 33.652344 85.273438 33.5 C 85.449219 33.386719 85.566406 33.207031 85.628906 33.003906 L 87.136719 24.222656 C 87.222656 23.707031 87.277344 23.21875 87.277344 22.746094 C 87.277344 22.136719 87.191406 21.574219 87.011719 21.042969 C 86.851562 20.511719 86.570312 20.039062 86.214844 19.640625 Z M 70.425781 17.136719 L 71.980469 17.136719 C 72.15625 17.136719 72.335938 17.109375 72.484375 16.984375 C 72.574219 16.914062 72.734375 16.808594 72.867188 16.664062 L 75.773438 14.222656 C 75.914062 14.117188 76.019531 13.984375 76.019531 13.78125 C 76.019531 13.453125 75.664062 13.363281 75.46875 13.34375 L 73.550781 13.34375 C 73.355469 13.363281 73.175781 13.390625 73.019531 13.496094 C 72.910156 13.585938 72.804688 13.691406 72.628906 13.824219 L 70.179688 16.222656 C 70.050781 16.355469 69.9375 16.488281 69.910156 16.710938 C 69.910156 16.984375 70.230469 17.136719 70.425781 17.136719 Z M 72.070312 18.539062 L 70.695312 18.539062 C 70.46875 18.539062 70.265625 18.621094 70.089844 18.761719 C 69.910156 18.910156 69.785156 19.089844 69.734375 19.285156 L 67.167969 32.921875 L 67.167969 33.054688 C 67.167969 33.234375 67.210938 33.445312 67.371094 33.582031 C 67.503906 33.714844 67.699219 33.757812 67.878906 33.757812 L 69.273438 33.757812 C 69.492188 33.757812 69.699219 33.675781 69.875 33.535156 C 70.050781 33.402344 70.160156 33.222656 70.230469 33.03125 L 72.804688 19.382812 L 72.804688 19.238281 C 72.804688 19.046875 72.734375 18.867188 72.574219 18.734375 C 72.453125 18.601562 72.246094 18.539062 72.070312 18.539062 Z M 67.789062 14.589844 C 67.789062 14.410156 67.746094 14.25 67.609375 14.089844 C 67.476562 13.96875 67.28125 13.941406 67.125 13.941406 L 65.613281 13.941406 C 65.167969 13.894531 64.769531 14.207031 64.726562 14.667969 L 61.265625 32.921875 L 61.265625 33.054688 C 61.265625 33.234375 61.308594 33.429688 61.441406 33.5625 C 61.574219 33.695312 61.753906 33.757812 61.929688 33.757812 L 63.4375 33.757812 C 63.644531 33.757812 63.882812 33.667969 64.015625 33.519531 C 64.175781 33.386719 64.28125 33.222656 64.328125 33.03125 L 67.789062 14.738281 Z M 57.78125 24.300781 C 57.757812 24.550781 57.738281 24.796875 57.667969 25.082031 L 57.292969 27.105469 C 57.179688 27.765625 57.003906 28.324219 56.734375 28.855469 C 56.46875 29.363281 56.15625 29.789062 55.757812 30.160156 C 55.402344 30.542969 54.960938 30.828125 54.472656 31.03125 C 53.980469 31.253906 53.429688 31.359375 52.828125 31.359375 C 51.71875 31.359375 51.007812 31.121094 50.59375 30.71875 C 50.164062 30.292969 49.945312 29.65625 49.945312 28.738281 C 49.945312 28.296875 49.988281 27.789062 50.121094 27.214844 L 50.476562 25.191406 C 50.742188 23.855469 51.230469 22.835938 52.011719 22.0625 C 52.765625 21.328125 53.714844 20.953125 54.914062 20.953125 C 56.027344 20.953125 56.734375 21.195312 57.160156 21.621094 C 57.578125 22.046875 57.800781 22.703125 57.800781 23.617188 C 57.800781 23.839844 57.800781 24.082031 57.78125 24.300781 Z M 59.46875 19.859375 C 58.980469 19.382812 58.378906 19.019531 57.710938 18.753906 C 57.003906 18.492188 56.183594 18.351562 55.269531 18.351562 C 50.917969 18.335938 48.195312 20.644531 47.394531 25.082031 L 47.011719 27.105469 C 46.96875 27.375 46.953125 27.632812 46.921875 27.878906 C 46.878906 28.121094 46.878906 28.367188 46.878906 28.632812 C 46.878906 29.40625 47.011719 30.125 47.234375 30.765625 C 47.484375 31.414062 47.839844 31.980469 48.300781 32.453125 C 48.789062 32.921875 49.363281 33.296875 50.03125 33.5625 C 50.742188 33.808594 51.542969 33.933594 52.429688 33.933594 C 53.582031 33.933594 54.632812 33.785156 55.535156 33.472656 C 56.425781 33.144531 57.222656 32.703125 57.871094 32.113281 C 58.511719 31.535156 59.042969 30.828125 59.445312 30.011719 C 59.867188 29.167969 60.152344 28.253906 60.359375 27.214844 L 60.730469 25.191406 C 60.777344 24.921875 60.800781 24.683594 60.847656 24.417969 C 60.863281 24.152344 60.863281 23.902344 60.863281 23.636719 C 60.863281 22.882812 60.777344 22.171875 60.535156 21.53125 C 60.285156 20.882812 59.929688 20.316406 59.46875 19.859375 Z M 47.8125 20.289062 L 47.988281 19.152344 L 48.015625 19.132812 L 48.015625 19 C 48.015625 18.824219 47.925781 18.621094 47.769531 18.492188 C 47.617188 18.398438 47.4375 18.351562 47.21875 18.351562 L 47.171875 18.351562 C 46.480469 18.351562 45.769531 18.441406 45.058594 18.601562 C 44.480469 18.734375 43.90625 19 43.285156 19.382812 L 43.285156 19.238281 C 43.285156 19.046875 43.238281 18.867188 43.105469 18.734375 C 42.972656 18.601562 42.777344 18.539062 42.601562 18.539062 L 41.242188 18.539062 C 41.019531 18.539062 40.824219 18.621094 40.621094 18.761719 C 40.488281 18.910156 40.355469 19.089844 40.308594 19.285156 L 37.734375 32.921875 L 37.734375 33.054688 C 37.734375 33.234375 37.777344 33.429688 37.9375 33.5625 C 38.074219 33.695312 38.25 33.757812 38.425781 33.757812 L 39.847656 33.757812 C 40.085938 33.757812 40.265625 33.675781 40.445312 33.535156 C 40.621094 33.402344 40.753906 33.222656 40.796875 33.03125 L 42.886719 21.949219 C 43.550781 21.574219 44.15625 21.328125 44.6875 21.175781 C 45.265625 21.015625 45.949219 20.953125 46.746094 20.953125 L 46.835938 20.953125 C 47.304688 20.980469 47.722656 20.730469 47.8125 20.289062 Z M 34.449219 24.835938 L 27.390625 24.835938 C 27.507812 24.300781 27.683594 23.839844 27.921875 23.378906 C 28.171875 22.90625 28.484375 22.480469 28.855469 22.089844 C 29.238281 21.726562 29.65625 21.445312 30.144531 21.246094 C 30.632812 21.042969 31.164062 20.953125 31.769531 20.953125 C 33.765625 20.980469 34.566406 21.734375 34.609375 23.503906 C 34.609375 23.910156 34.566406 24.355469 34.449219 24.835938 Z M 36.316406 19.890625 C 35.824219 19.402344 35.25 19.027344 34.566406 18.761719 C 33.871094 18.492188 33.074219 18.351562 32.140625 18.351562 C 30.035156 18.351562 28.277344 18.929688 26.949219 20.109375 C 25.597656 21.28125 24.683594 22.996094 24.238281 25.171875 L 23.867188 27.019531 C 23.75 27.632812 23.6875 28.207031 23.6875 28.738281 C 23.6875 29.679688 23.867188 30.480469 24.222656 31.164062 C 24.550781 31.8125 24.992188 32.347656 25.570312 32.761719 C 26.148438 33.179688 26.769531 33.472656 27.480469 33.667969 C 28.171875 33.84375 28.902344 33.933594 29.609375 33.933594 L 29.636719 33.933594 C 30.632812 33.933594 31.476562 33.890625 32.273438 33.808594 C 33.027344 33.738281 33.855469 33.625 34.714844 33.488281 C 34.980469 33.445312 35.203125 33.386719 35.382812 33.222656 C 35.515625 33.074219 35.585938 32.878906 35.632812 32.648438 L 35.808594 31.742188 L 35.808594 31.582031 C 35.808594 31.449219 35.734375 31.273438 35.605469 31.183594 C 35.46875 31.078125 35.320312 31.058594 35.160156 31.050781 L 34.980469 31.050781 C 34.296875 31.148438 33.5 31.226562 32.613281 31.316406 C 31.722656 31.386719 30.855469 31.429688 30.011719 31.429688 C 28.925781 31.429688 28.101562 31.226562 27.523438 30.808594 C 26.972656 30.410156 26.679688 29.804688 26.679688 28.855469 C 26.679688 28.605469 26.679688 28.367188 26.726562 28.085938 C 26.75 27.851562 26.796875 27.585938 26.902344 27.300781 L 26.929688 27.167969 L 36.359375 27.167969 C 36.625 27.167969 36.875 27.097656 37.023438 26.902344 C 37.15625 26.753906 37.230469 26.566406 37.273438 26.371094 L 37.496094 25.242188 C 37.601562 24.65625 37.671875 24.105469 37.671875 23.589844 C 37.671875 22.863281 37.558594 22.199219 37.335938 21.546875 C 37.140625 20.910156 36.757812 20.351562 36.316406 19.890625 Z M 12.902344 24.726562 L 16.558594 18.132812 C 16.71875 17.847656 17.046875 17.800781 17.269531 17.820312 C 17.714844 17.847656 17.757812 18.132812 17.757812 18.132812 L 18.539062 24.726562 Z M 20.046875 16.292969 C 19.84375 16.007812 19.621094 15.777344 19.355469 15.628906 C 19.089844 15.449219 18.777344 15.316406 18.496094 15.273438 C 18.183594 15.210938 17.890625 15.183594 17.625 15.183594 C 17.3125 15.183594 17.03125 15.210938 16.691406 15.289062 C 16.363281 15.359375 16.027344 15.46875 15.714844 15.628906 C 15.40625 15.777344 15.09375 16 14.828125 16.277344 C 14.542969 16.558594 14.277344 16.933594 14.074219 17.359375 L 5.574219 32.761719 C 5.53125 32.871094 5.503906 33.003906 5.503906 33.136719 C 5.503906 33.3125 5.550781 33.488281 5.710938 33.589844 C 5.84375 33.714844 5.992188 33.757812 6.171875 33.757812 L 7.929688 33.757812 C 8.105469 33.757812 8.285156 33.695312 8.433594 33.589844 C 8.566406 33.488281 8.699219 33.359375 8.773438 33.207031 L 11.675781 27.214844 L 18.734375 27.214844 L 19.445312 33.117188 C 19.445312 33.269531 19.515625 33.410156 19.605469 33.519531 C 19.710938 33.675781 19.914062 33.757812 20.09375 33.757812 L 21.824219 33.757812 C 22.019531 33.757812 22.242188 33.695312 22.375 33.535156 C 22.535156 33.402344 22.597656 33.191406 22.597656 32.984375 L 22.597656 32.851562 L 20.402344 17.421875 C 20.359375 16.976562 20.226562 16.601562 20.046875 16.292969 "/>
<path style=" stroke:none;fill-rule:nonzero;fill:rgb(53.359985%,55.058289%,55.456543%);fill-opacity:1;" d="M 7.414062 44.722656 L 11.082031 38.109375 C 11.214844 37.839844 11.585938 37.796875 11.792969 37.804688 C 12.234375 37.824219 12.28125 38.109375 12.28125 38.109375 L 13.050781 44.722656 Z M 14.5625 36.285156 C 14.382812 36.003906 14.144531 35.765625 13.878906 35.601562 C 13.609375 35.425781 13.320312 35.3125 13.007812 35.25 C 12.695312 35.203125 12.414062 35.175781 12.121094 35.175781 C 11.835938 35.175781 11.542969 35.203125 11.214844 35.265625 C 10.878906 35.339844 10.546875 35.453125 10.238281 35.621094 C 9.898438 35.765625 9.617188 36.003906 9.324219 36.269531 C 9.054688 36.554688 8.816406 36.910156 8.566406 37.335938 L 0.0898438 52.738281 C 0.0429688 52.855469 0 52.980469 0 53.125 C 0 53.292969 0.0703125 53.476562 0.203125 53.582031 C 0.339844 53.691406 0.515625 53.734375 0.664062 53.734375 L 2.441406 53.734375 C 2.621094 53.734375 2.796875 53.671875 2.957031 53.582031 C 3.089844 53.476562 3.222656 53.34375 3.285156 53.203125 L 6.214844 47.210938 L 13.273438 47.210938 L 13.941406 53.113281 C 13.984375 53.246094 14.027344 53.386719 14.117188 53.511719 C 14.230469 53.671875 14.429688 53.734375 14.605469 53.734375 L 16.335938 53.734375 C 16.558594 53.734375 16.761719 53.691406 16.914062 53.539062 C 17.046875 53.378906 17.089844 53.183594 17.089844 52.960938 L 17.089844 52.847656 L 14.917969 37.398438 C 14.871094 36.953125 14.738281 36.597656 14.5625 36.285156 Z M 83.546875 39.199219 L 82.164062 39.199219 C 81.984375 39.199219 81.808594 39.269531 81.632812 39.378906 C 81.507812 39.511719 81.390625 39.660156 81.328125 39.824219 L 78.878906 53.050781 L 78.878906 53.183594 C 78.878906 53.511719 79.128906 53.734375 79.464844 53.734375 L 80.832031 53.734375 C 81.035156 53.734375 81.214844 53.671875 81.363281 53.554688 C 81.527344 53.425781 81.613281 53.292969 81.65625 53.113281 L 84.117188 39.882812 L 84.117188 39.761719 C 84.117188 39.421875 83.878906 39.199219 83.546875 39.199219 Z M 51.898438 45.058594 L 51.898438 45.105469 L 44.527344 45.105469 C 44.660156 44.5 44.863281 43.949219 45.105469 43.445312 C 45.371094 42.949219 45.710938 42.503906 46.082031 42.113281 C 46.464844 41.75 46.90625 41.4375 47.394531 41.242188 C 47.902344 41.035156 48.460938 40.929688 49.082031 40.929688 C 51.125 40.949219 52.03125 41.792969 52.054688 43.640625 C 52.054688 44.054688 52.011719 44.546875 51.898438 45.058594 Z M 53.523438 40.089844 C 53.078125 39.625 52.5 39.269531 51.835938 39.023438 C 51.167969 38.738281 50.386719 38.625 49.457031 38.625 C 47.367188 38.625 45.679688 39.183594 44.347656 40.335938 C 43.019531 41.492188 42.128906 43.167969 41.6875 45.308594 L 41.332031 47.171875 C 41.199219 47.769531 41.152344 48.34375 41.152344 48.859375 C 41.152344 49.785156 41.3125 50.566406 41.640625 51.210938 C 41.980469 51.851562 42.421875 52.386719 42.972656 52.785156 C 43.507812 53.203125 44.128906 53.476562 44.839844 53.65625 C 45.53125 53.832031 46.214844 53.921875 46.921875 53.921875 L 46.953125 53.921875 C 47.945312 53.921875 48.789062 53.894531 49.570312 53.804688 C 50.34375 53.734375 51.140625 53.628906 52.011719 53.476562 C 52.277344 53.433594 52.457031 53.378906 52.605469 53.246094 C 52.695312 53.125 52.765625 52.960938 52.8125 52.757812 L 52.988281 51.851562 L 53.007812 51.835938 L 53.007812 51.71875 C 53.007812 51.453125 52.765625 51.320312 52.472656 51.320312 L 52.324219 51.320312 C 51.628906 51.410156 50.832031 51.496094 49.945312 51.566406 C 49.035156 51.648438 48.167969 51.695312 47.324219 51.695312 C 46.242188 51.695312 45.371094 51.46875 44.777344 51.035156 C 44.171875 50.625 43.859375 49.945312 43.859375 48.96875 C 43.859375 48.71875 43.859375 48.476562 43.90625 48.214844 C 43.929688 47.945312 43.996094 47.679688 44.082031 47.386719 L 44.15625 47.164062 L 53.671875 47.164062 C 53.921875 47.164062 54.113281 47.085938 54.25 46.945312 C 54.339844 46.816406 54.410156 46.660156 54.453125 46.464844 L 54.675781 45.328125 C 54.808594 44.765625 54.851562 44.21875 54.851562 43.703125 C 54.871094 43 54.738281 42.351562 54.542969 41.714844 C 54.320312 41.09375 53.980469 40.550781 53.523438 40.089844 Z M 68.367188 39.867188 C 67.992188 39.46875 67.523438 39.15625 66.972656 38.933594 C 66.394531 38.710938 65.730469 38.625 64.949219 38.625 C 63.972656 38.625 63.109375 38.738281 62.375 39.003906 C 61.734375 39.21875 61.113281 39.484375 60.492188 39.796875 L 60.535156 39.484375 L 60.535156 39.359375 C 60.535156 39.21875 60.492188 39.09375 60.402344 38.996094 C 60.3125 38.863281 60.152344 38.800781 59.957031 38.800781 L 58.554688 38.800781 C 58.378906 38.800781 58.199219 38.863281 58.046875 38.996094 C 57.914062 39.109375 57.800781 39.261719 57.757812 39.441406 L 55.207031 53.050781 L 55.207031 53.183594 C 55.207031 53.316406 55.253906 53.449219 55.316406 53.554688 C 55.429688 53.691406 55.582031 53.734375 55.742188 53.734375 L 57.179688 53.734375 C 57.355469 53.734375 57.535156 53.671875 57.695312 53.554688 C 57.84375 53.425781 57.933594 53.273438 58.003906 53.113281 L 60.109375 41.90625 C 60.996094 41.507812 61.753906 41.261719 62.328125 41.128906 C 62.933594 40.992188 63.511719 40.929688 64.058594 40.929688 C 65.109375 40.929688 65.773438 41.128906 66.101562 41.4375 C 66.441406 41.757812 66.589844 42.203125 66.589844 42.824219 C 66.589844 43.035156 66.574219 43.265625 66.546875 43.523438 C 66.527344 43.789062 66.5 44.039062 66.457031 44.277344 L 64.796875 53.050781 L 64.796875 53.183594 C 64.796875 53.511719 65.035156 53.734375 65.375 53.734375 L 66.75 53.734375 C 66.945312 53.734375 67.125 53.671875 67.28125 53.554688 C 67.433594 53.433594 67.523438 53.292969 67.59375 53.113281 L 69.253906 44.324219 C 69.34375 43.816406 69.378906 43.328125 69.378906 42.859375 C 69.378906 42.28125 69.316406 41.730469 69.140625 41.214844 C 68.960938 40.691406 68.695312 40.238281 68.367188 39.867188 Z M 97.683594 39.867188 C 97.3125 39.46875 96.839844 39.15625 96.28125 38.933594 C 95.714844 38.710938 95.039062 38.625 94.265625 38.625 C 93.261719 38.625 92.402344 38.738281 91.691406 39.003906 C 91.042969 39.21875 90.421875 39.484375 89.800781 39.796875 L 89.851562 39.484375 L 89.851562 39.359375 C 89.851562 39.226562 89.800781 39.09375 89.710938 38.996094 C 89.621094 38.863281 89.445312 38.800781 89.269531 38.800781 L 87.871094 38.800781 C 87.667969 38.800781 87.492188 38.863281 87.367188 38.996094 C 87.222656 39.109375 87.136719 39.269531 87.074219 39.441406 L 84.5 53.050781 L 84.5 53.183594 C 84.5 53.316406 84.5625 53.449219 84.632812 53.554688 C 84.738281 53.691406 84.882812 53.734375 85.078125 53.734375 L 86.496094 53.734375 C 86.675781 53.734375 86.851562 53.671875 87.011719 53.554688 C 87.136719 53.433594 87.253906 53.292969 87.316406 53.113281 L 89.425781 41.90625 C 90.332031 41.527344 91.042969 41.261719 91.648438 41.128906 C 92.25 40.992188 92.820312 40.929688 93.351562 40.929688 C 94.417969 40.929688 95.09375 41.128906 95.417969 41.4375 C 95.746094 41.757812 95.90625 42.203125 95.925781 42.824219 C 95.925781 43.035156 95.90625 43.265625 95.890625 43.523438 C 95.835938 43.789062 95.820312 44.039062 95.777344 44.277344 L 94.089844 53.050781 L 94.089844 53.183594 C 94.089844 53.511719 94.355469 53.734375 94.683594 53.734375 L 96.085938 53.734375 C 96.265625 53.734375 96.441406 53.671875 96.601562 53.554688 C 96.722656 53.433594 96.867188 53.292969 96.902344 53.113281 L 98.570312 44.324219 C 98.675781 43.816406 98.707031 43.328125 98.707031 42.859375 C 98.707031 42.28125 98.644531 41.730469 98.464844 41.214844 C 98.304688 40.691406 98.023438 40.238281 97.683594 39.867188 Z M 125.722656 39.527344 C 125.742188 39.21875 125.492188 39.003906 125.191406 38.960938 C 124.871094 38.914062 124.585938 38.863281 124.320312 38.820312 C 124.035156 38.773438 123.742188 38.738281 123.414062 38.710938 C 123.09375 38.683594 122.738281 38.652344 122.367188 38.640625 C 121.941406 38.625 121.496094 38.625 120.929688 38.625 C 120.21875 38.625 119.480469 38.683594 118.746094 38.800781 C 118.035156 38.933594 117.378906 39.15625 116.792969 39.484375 C 116.242188 39.804688 115.777344 40.246094 115.425781 40.78125 C 115.039062 41.347656 114.863281 42.039062 114.863281 42.859375 C 114.863281 44.101562 115.707031 45.21875 117.308594 46.199219 L 119.949219 47.785156 C 120.609375 48.167969 121.054688 48.496094 121.257812 48.742188 C 121.480469 49.027344 121.566406 49.296875 121.566406 49.5625 C 121.566406 49.960938 121.480469 50.296875 121.320312 50.546875 C 121.140625 50.832031 120.929688 51.054688 120.636719 51.203125 C 120.34375 51.382812 120.039062 51.496094 119.632812 51.566406 C 119.261719 51.648438 118.859375 51.695312 118.441406 51.695312 C 118.210938 51.695312 117.882812 51.675781 117.527344 51.648438 C 117.144531 51.648438 116.753906 51.628906 116.347656 51.605469 C 115.929688 51.566406 115.511719 51.542969 115.132812 51.496094 C 114.714844 51.453125 114.359375 51.425781 114.003906 51.390625 L 113.824219 51.390625 C 113.472656 51.382812 113.203125 51.566406 113.132812 51.894531 L 112.957031 52.847656 L 112.957031 52.945312 C 112.957031 53.113281 113.027344 53.273438 113.152344 53.363281 C 113.265625 53.425781 113.398438 53.476562 113.558594 53.539062 C 113.886719 53.582031 114.242188 53.65625 114.640625 53.71875 C 115.039062 53.761719 115.441406 53.804688 115.84375 53.832031 C 116.242188 53.851562 116.640625 53.894531 117.023438 53.914062 C 117.410156 53.914062 117.769531 53.921875 118.089844 53.921875 C 118.859375 53.921875 119.632812 53.851562 120.414062 53.691406 C 121.167969 53.554688 121.835938 53.292969 122.410156 52.9375 C 123.007812 52.582031 123.476562 52.09375 123.832031 51.515625 C 124.1875 50.9375 124.363281 50.183594 124.363281 49.304688 C 124.363281 48.699219 124.160156 48.125 123.804688 47.589844 C 123.449219 47.03125 122.765625 46.464844 121.761719 45.859375 L 119.171875 44.289062 C 118.65625 43.976562 118.28125 43.703125 118.035156 43.445312 C 117.769531 43.195312 117.660156 42.949219 117.660156 42.644531 C 117.660156 42.28125 117.75 41.996094 117.929688 41.777344 C 118.105469 41.550781 118.328125 41.375 118.621094 41.242188 C 118.886719 41.109375 119.1875 41.003906 119.542969 40.957031 C 119.898438 40.90625 120.234375 40.886719 120.546875 40.886719 C 121.347656 40.886719 122.117188 40.90625 122.882812 40.949219 C 123.628906 40.992188 124.25 41.046875 124.765625 41.09375 L 124.871094 41.09375 C 125.226562 41.109375 125.519531 40.886719 125.582031 40.53125 L 125.722656 39.660156 L 125.582031 39.625 L 125.722656 39.625 Z M 108.675781 50.183594 C 107.894531 50.671875 107.203125 51.035156 106.582031 51.292969 C 105.921875 51.558594 105.300781 51.695312 104.628906 51.695312 C 103.96875 51.695312 103.410156 51.496094 102.941406 51.097656 C 102.496094 50.742188 102.257812 50.058594 102.257812 49.054688 C 102.257812 48.851562 102.285156 48.65625 102.285156 48.453125 C 102.300781 48.230469 102.316406 48.035156 102.371094 47.855469 L 102.878906 45.105469 C 103.171875 43.703125 103.652344 42.644531 104.433594 41.925781 C 105.1875 41.214844 106.296875 40.859375 107.761719 40.859375 C 108.355469 40.859375 108.890625 40.886719 109.316406 40.929688 L 109.332031 40.796875 L 109.332031 40.929688 C 109.6875 40.976562 110.042969 41.035156 110.398438 41.09375 Z M 113.441406 39.777344 C 113.441406 39.46875 113.203125 39.289062 112.847656 39.242188 C 112.085938 39.039062 111.285156 38.90625 110.398438 38.773438 C 109.511719 38.667969 108.621094 38.625 107.761719 38.625 C 106.898438 38.625 106.03125 38.710938 105.230469 38.914062 C 104.414062 39.128906 103.652344 39.46875 102.992188 39.972656 C 102.300781 40.445312 101.699219 41.082031 101.234375 41.863281 C 100.746094 42.644531 100.363281 43.640625 100.152344 44.8125 L 99.636719 47.441406 C 99.503906 48.007812 99.460938 48.539062 99.460938 49.074219 C 99.460938 49.898438 99.566406 50.625 99.816406 51.25 C 100.082031 51.851562 100.417969 52.359375 100.808594 52.757812 C 101.234375 53.140625 101.75 53.449219 102.300781 53.644531 C 102.851562 53.824219 103.453125 53.921875 104.09375 53.921875 C 104.5625 53.921875 104.980469 53.894531 105.40625 53.824219 C 105.78125 53.761719 106.164062 53.671875 106.546875 53.539062 C 106.898438 53.386719 107.253906 53.230469 107.609375 53.023438 C 107.894531 52.875 108.203125 52.695312 108.535156 52.472656 L 108.445312 53.007812 L 108.445312 53.183594 C 108.445312 53.316406 108.472656 53.46875 108.535156 53.566406 C 108.648438 53.691406 108.800781 53.734375 109.003906 53.734375 L 110.15625 53.734375 C 110.335938 53.734375 110.515625 53.671875 110.664062 53.554688 C 110.808594 53.425781 110.914062 53.273438 110.933594 53.113281 L 113.417969 40 C 113.441406 39.953125 113.441406 39.867188 113.441406 39.777344 Z M 75.773438 41.046875 L 78.773438 41.046875 C 78.96875 41.046875 79.128906 40.976562 79.285156 40.84375 C 79.410156 40.726562 79.527344 40.59375 79.570312 40.417969 L 79.75 39.484375 L 79.75 39.359375 C 79.75 39.023438 79.5 38.800781 79.144531 38.800781 L 76.199219 38.800781 L 76.597656 36.5625 L 76.597656 36.464844 C 76.597656 36.179688 76.394531 35.976562 76.128906 35.976562 L 76.039062 35.976562 L 74.492188 36.179688 C 74.085938 36.226562 73.800781 36.464844 73.757812 36.820312 L 73.402344 38.800781 L 71.492188 38.863281 C 71.316406 38.84375 71.136719 38.90625 70.976562 39.023438 C 70.871094 39.128906 70.765625 39.261719 70.710938 39.441406 L 70.585938 40.160156 L 70.585938 40.265625 C 70.558594 40.578125 70.824219 40.78125 71.15625 40.796875 L 72.984375 41.019531 L 71.242188 50.191406 C 71.207031 50.414062 71.15625 50.609375 71.15625 50.742188 C 71.136719 50.902344 71.117188 51.082031 71.117188 51.257812 C 71.117188 52.207031 71.472656 52.9375 72.183594 53.335938 C 72.84375 53.734375 73.695312 53.921875 74.671875 53.921875 C 74.957031 53.921875 75.265625 53.914062 75.574219 53.894531 C 75.914062 53.867188 76.214844 53.824219 76.535156 53.804688 C 76.746094 53.761719 76.90625 53.691406 77.015625 53.582031 C 77.101562 53.492188 77.191406 53.378906 77.21875 53.246094 L 77.398438 52.269531 L 77.398438 52.144531 C 77.421875 51.984375 77.371094 51.835938 77.191406 51.789062 C 77.101562 51.761719 77.015625 51.738281 76.863281 51.738281 L 75.113281 51.738281 C 74.671875 51.738281 74.332031 51.695312 74.171875 51.613281 C 74.023438 51.558594 73.933594 51.410156 73.933594 51.027344 C 73.933594 50.851562 73.960938 50.582031 73.996094 50.269531 Z M 27.300781 40.929688 C 27.746094 40.949219 28.085938 40.753906 28.144531 40.371094 L 28.347656 39.242188 L 28.347656 39.128906 C 28.347656 38.800781 28.058594 38.625 27.703125 38.625 L 27.640625 38.625 C 26.949219 38.625 26.261719 38.695312 25.550781 38.863281 C 24.933594 39.003906 24.265625 39.304688 23.554688 39.796875 L 23.617188 39.484375 L 23.617188 39.359375 C 23.617188 39.023438 23.394531 38.800781 23.066406 38.800781 L 21.707031 38.800781 C 21.53125 38.800781 21.351562 38.863281 21.203125 39.003906 C 21.070312 39.109375 20.953125 39.261719 20.910156 39.441406 L 18.335938 53.050781 L 18.335938 53.183594 C 18.335938 53.511719 18.585938 53.734375 18.914062 53.734375 L 20.3125 53.734375 C 20.511719 53.734375 20.6875 53.671875 20.820312 53.554688 C 20.996094 53.425781 21.085938 53.292969 21.15625 53.113281 L 23.246094 41.96875 C 23.910156 41.597656 24.550781 41.332031 25.109375 41.171875 C 25.703125 41.019531 26.414062 40.929688 27.238281 40.929688 Z M 84.917969 35.898438 L 84.917969 35.78125 C 84.917969 35.445312 84.675781 35.222656 84.347656 35.222656 L 82.875 35.222656 C 82.679688 35.203125 82.503906 35.292969 82.34375 35.402344 C 82.191406 35.53125 82.074219 35.667969 82.058594 35.84375 L 81.898438 37.027344 L 81.898438 37.132812 C 81.898438 37.484375 82.148438 37.691406 82.503906 37.691406 L 83.964844 37.691406 C 84.171875 37.691406 84.320312 37.621094 84.472656 37.496094 C 84.632812 37.398438 84.738281 37.226562 84.789062 37.050781 M 36.117188 51.410156 C 35.914062 51.453125 35.675781 51.496094 35.425781 51.515625 C 35.117188 51.558594 34.832031 51.605469 34.539062 51.628906 C 34.226562 51.648438 33.960938 51.648438 33.675781 51.675781 C 33.410156 51.695312 33.164062 51.695312 32.941406 51.695312 C 31.875 51.695312 31.074219 51.496094 30.589844 51.140625 C 30.125 50.769531 29.859375 50.121094 29.859375 49.125 C 29.859375 48.859375 29.878906 48.566406 29.902344 48.257812 C 29.921875 47.945312 29.992188 47.609375 30.054688 47.253906 L 30.410156 45.308594 C 30.71875 43.746094 31.253906 42.636719 31.988281 41.925781 C 32.71875 41.214844 33.738281 40.859375 35.054688 40.859375 C 35.648438 40.859375 36.226562 40.886719 36.800781 40.949219 C 37.289062 40.992188 37.71875 41.0625 38.046875 41.128906 Z M 40.445312 39.242188 C 39.800781 39.085938 39.023438 38.953125 38.089844 38.820312 C 37.15625 38.683594 36.269531 38.625 35.410156 38.625 C 34.316406 38.625 33.339844 38.730469 32.480469 38.960938 C 31.609375 39.199219 30.855469 39.574219 30.214844 40.113281 C 29.566406 40.636719 29.03125 41.332031 28.589844 42.175781 C 28.171875 43.019531 27.835938 44.039062 27.59375 45.257812 L 27.238281 47.210938 C 27.105469 47.855469 27.0625 48.453125 27.0625 49.027344 C 27.0625 49.871094 27.167969 50.609375 27.460938 51.230469 C 27.746094 51.851562 28.128906 52.359375 28.617188 52.765625 C 29.105469 53.15625 29.699219 53.46875 30.367188 53.644531 C 31.03125 53.824219 31.769531 53.921875 32.539062 53.921875 C 32.761719 53.921875 33.011719 53.914062 33.324219 53.894531 C 33.605469 53.851562 33.917969 53.824219 34.226562 53.804688 C 34.566406 53.761719 34.847656 53.71875 35.140625 53.671875 C 35.339844 53.644531 35.496094 53.628906 35.648438 53.582031 L 35.648438 53.71875 C 35.515625 54.3125 35.382812 54.808594 35.203125 55.199219 C 35.054688 55.601562 34.832031 55.910156 34.539062 56.160156 C 34.226562 56.378906 33.871094 56.558594 33.457031 56.648438 C 33.011719 56.753906 32.480469 56.804688 31.855469 56.804688 C 31.476562 56.804688 31.03125 56.796875 30.613281 56.761719 C 30.144531 56.753906 29.699219 56.707031 29.257812 56.691406 C 28.8125 56.664062 28.394531 56.628906 28.011719 56.605469 C 27.613281 56.558594 27.300781 56.53125 27.0625 56.496094 L 26.949219 56.496094 C 26.796875 56.496094 26.636719 56.53125 26.503906 56.621094 C 26.351562 56.691406 26.28125 56.851562 26.21875 57.019531 L 26.058594 57.800781 L 26.058594 57.828125 C 26.042969 57.890625 26.058594 57.917969 26.042969 57.953125 C 26.058594 58.246094 26.308594 58.421875 26.636719 58.511719 C 27.035156 58.617188 27.65625 58.734375 28.527344 58.839844 C 29.390625 58.957031 30.367188 59 31.476562 59 C 32.523438 59 33.429688 58.910156 34.226562 58.75 C 34.980469 58.601562 35.675781 58.308594 36.226562 57.890625 C 36.800781 57.472656 37.273438 56.929688 37.628906 56.21875 C 38 55.519531 38.269531 54.648438 38.445312 53.601562 L 41.066406 39.980469 L 41.066406 39.972656 C 41.066406 39.953125 41.066406 39.9375 41.066406 39.9375 C 41.066406 39.882812 41.089844 39.839844 41.089844 39.796875 C 41.089844 39.484375 40.824219 39.289062 40.445312 39.242188 "/>
<g clip-path="url(#clip1)" clip-rule="nonzero">
<path style=" stroke:none;fill-rule:nonzero;fill:rgb(8.334351%,45.431519%,75.915527%);fill-opacity:1;" d="M 116.878906 7.296875 C 111.160156 8.285156 103.589844 8.949219 97.773438 10.714844 C 102.316406 10.671875 106.964844 10.65625 111.714844 10.65625 C 114.535156 10.65625 117.308594 10.65625 120.058594 10.679688 C 122.4375 10.679688 124.765625 10.699219 126.96875 10.742188 C 130.871094 10.769531 134.691406 10.832031 138.421875 10.921875 C 138.1875 9.5625 137.175781 7.992188 133.980469 7.992188 L 132.132812 7.964844 L 132.132812 7.972656 C 132.648438 9.191406 131.378906 9.972656 130.269531 9.367188 C 129.691406 9.074219 129.382812 8.460938 130.199219 7.839844 C 131.023438 7.210938 132.382812 6.277344 133.066406 5.878906 C 135.347656 4.511719 135.257812 2.203125 131.976562 1.953125 C 124.144531 1.304688 110.023438 0.445312 104.894531 0 C 108.472656 2.308594 113.507812 2.929688 118.121094 4.511719 C 121.105469 5.53125 119.570312 6.835938 116.878906 7.296875 "/>
</g>
</g>
</svg>
