<svg xmlns="http://www.w3.org/2000/svg" width="184.56" height="59pt" viewBox="0 0 138.42 59"><defs><clipPath id="a"><path d="M97 0h41.422v11H97Zm0 0"/></clipPath></defs><path d="M128.54 18.707c-.313-.043-.599-.105-.864-.133-.266-.062-.586-.09-.887-.125a18 18 0 0 0-1.066-.05c-.41-.047-.887-.047-1.473-.047-.71 0-1.437.07-2.168.187a6.3 6.3 0 0 0-2.008.7c-.594.34-1.062.8-1.437 1.359-.399.578-.575 1.289-.575 2.148 0 1.29.887 2.445 2.532 3.45l2.617 1.57c.684.382 1.11.707 1.27.941.21.258.285.477.3.727-.015.402-.09.691-.238.949a1.8 1.8 0 0 1-.621.586 3.3 3.3 0 0 1-.95.347c-.382.07-.765.114-1.183.114-.238 0-.559 0-.93-.024-.355-.02-.754-.039-1.171-.062-.41-.028-.829-.063-1.211-.09-.415-.043-.77-.09-1.125-.117h-.207c-.352-.016-.747.23-.797.605l-.18.95v.132c0 .207.074.41.27.516.113.09.265.148.406.195.355.07.726.14 1.101.18.426.05.825.113 1.243.129.41.031.78.047 1.18.074.382.016.737.016 1.038.016h.028c.8 0 1.574-.059 2.336-.22a6.1 6.1 0 0 0 2.058-.792 4.5 4.5 0 0 0 1.469-1.445c.351-.641.558-1.403.558-2.293 0-.637-.207-1.243-.585-1.793-.375-.559-1.086-1.153-2.079-1.778l-2.601-1.55c-.488-.313-.86-.579-1.13-.829-.23-.238-.32-.441-.32-.726 0-.336.075-.578.231-.774.152-.203.375-.363.64-.496a2.7 2.7 0 0 1 .907-.258 6 6 0 0 1 .977-.09c.796 0 1.582.02 2.335.063.754.047 1.375.09 1.864.152h.117c.39.028.797-.265.832-.664l.16-.89v-.149c0-.355-.308-.648-.664-.695m-16.634 11.277c-.77.47-1.437.825-2.043 1.067a5.1 5.1 0 0 1-1.898.379c-.621 0-1.153-.176-1.598-.551-.406-.336-.648-.957-.648-1.961 0-.18.027-.371.047-.578a4 4 0 0 1 .086-.594l.515-2.754c.27-1.375.746-2.394 1.485-3.09.738-.683 1.8-1.039 3.257-1.039.606 0 1.121.028 1.536.09.328.027.648.09.949.137Zm5.028-10.343c0-.403-.356-.594-.739-.668-.734-.176-1.535-.309-2.422-.442-.906-.11-1.777-.18-2.664-.18-.886 0-1.75.118-2.574.32a6.7 6.7 0 0 0-2.281 1.06c-.715.488-1.309 1.152-1.805 1.953-.48.796-.86 1.8-1.082 2.972l-.515 2.645a7.6 7.6 0 0 0-.196 1.664c0 .824.133 1.578.399 2.2.242.64.578 1.17 1.004 1.57.445.41.949.71 1.527.917a5.7 5.7 0 0 0 1.82.282h.028c.476 0 .921-.016 1.332-.09.39-.078.77-.168 1.152-.309.371-.133.73-.312 1.102-.504.207-.117.425-.25.675-.398l-.054.219v.203c0 .168.054.332.144.465.121.195.356.238.567.238h1.156c.203 0 .426-.09.586-.223.148-.133.281-.312.3-.504l2.485-13.117c.055-.086.055-.176.055-.273M98.91 24.836h-7.086c.133-.535.313-.996.551-1.457.266-.473.559-.899.941-1.29a4 4 0 0 1 1.278-.843c.5-.203 1.031-.293 1.625-.293 2 .027 2.812.781 2.84 2.55 0 .407-.043.852-.149 1.333m1.836-4.945c-.469-.489-1.039-.844-1.715-1.13-.707-.269-1.508-.41-2.43-.41-2.093 0-3.87.579-5.203 1.758-1.351 1.172-2.238 2.887-2.68 5.063l-.374 1.848a7.7 7.7 0 0 0-.203 1.718q-.001 1.4.53 2.426a4.54 4.54 0 0 0 1.36 1.598c.551.418 1.188.71 1.899.906.71.176 1.422.266 2.16.266 1.004 0 1.863-.043 2.633-.106q1.147-.135 2.453-.34c.265-.043.48-.101.656-.265.14-.149.203-.344.25-.575l.176-.906v-.16a.53.53 0 0 0-.195-.398c-.141-.106-.29-.125-.446-.133h-.156c-.711.097-1.492.176-2.398.265-.887.07-1.758.114-2.594.114-1.063 0-1.918-.203-2.485-.621-.558-.399-.851-1.004-.851-1.954 0-.25 0-.488.05-.753.02-.25.09-.516.153-.801l.062-.133h9.438c.238 0 .488-.07.648-.266.125-.148.196-.336.243-.53l.238-1.13c.113-.586.16-1.137.16-1.652 0-.727-.11-1.39-.34-2.043a4 4 0 0 0-1.039-1.656m-14.531-.25c-.383-.403-.871-.711-1.45-.95a6.2 6.2 0 0 0-2.085-.34c-.977 0-1.864.141-2.594.403a12.4 12.4 0 0 0-1.688.691l.02-.062v-.145a.9.9 0 0 0-.16-.457c-.125-.16-.356-.242-.551-.242h-1.402a.9.9 0 0 0-.594.223c-.152.148-.297.328-.328.523l-2.578 13.637v.133c0 .168.062.332.152.445.117.176.328.258.531.258h1.422a.93.93 0 0 0 .594-.223c.18-.133.32-.312.355-.504l2.114-11.144c.87-.371 1.554-.621 2.132-.754a9 9 0 0 1 1.704-.18c1.004-.015 1.668.18 1.937.445.281.313.461.73.461 1.317 0 .191-.02.414-.035.664a6 6 0 0 1-.117.773l-1.48 8.746v.133c0 .192.034.399.195.532a.9.9 0 0 0 .53.175h1.376a.94.94 0 0 0 .597-.238.9.9 0 0 0 .356-.496l1.508-8.781a9 9 0 0 0 .14-1.477c0-.61-.086-1.172-.265-1.703a3.7 3.7 0 0 0-.797-1.402m-15.79-2.504h1.555c.176 0 .356-.028.504-.153.09-.07.25-.175.383-.32l2.906-2.441c.141-.106.247-.239.247-.442 0-.328-.356-.418-.551-.437H73.55c-.196.02-.375.047-.531.152-.11.09-.215.195-.391.328l-2.45 2.399c-.128.132-.242.265-.269.488 0 .273.32.426.516.426m1.645 1.402h-1.375a.96.96 0 0 0-.605.223c-.18.148-.305.328-.356.523l-2.566 13.637v.133c0 .18.043.39.203.527.133.133.328.176.508.176h1.394a.96.96 0 0 0 .602-.223c.176-.133.285-.312.355-.504l2.575-13.648v-.145a.63.63 0 0 0-.23-.504c-.122-.132-.329-.195-.505-.195m-4.28-3.95a.72.72 0 0 0-.18-.5c-.133-.12-.329-.148-.485-.148h-1.512a.8.8 0 0 0-.886.727l-3.461 18.254v.133c0 .18.043.375.175.508a.7.7 0 0 0 .489.195h1.508c.207 0 .445-.09.578-.238a.9.9 0 0 0 .312-.489l3.461-18.293ZM57.78 24.302c-.023.25-.043.496-.113.781l-.375 2.023a6 6 0 0 1-.559 1.75 4.7 4.7 0 0 1-.976 1.305 3.6 3.6 0 0 1-1.285.871c-.493.223-1.043.328-1.645.328-1.11 0-1.82-.238-2.234-.64-.43-.426-.649-1.063-.649-1.98 0-.442.043-.95.176-1.524l.356-2.024c.265-1.336.753-2.355 1.535-3.128.754-.735 1.703-1.11 2.902-1.11 1.113 0 1.82.242 2.246.668.418.426.64 1.082.64 1.996 0 .223 0 .465-.019.684m1.688-4.442c-.489-.476-1.09-.84-1.758-1.105-.707-.262-1.527-.402-2.441-.402-4.352-.016-7.075 2.293-7.875 6.73l-.383 2.023c-.043.27-.059.528-.09.774-.043.242-.043.488-.043.754 0 .773.133 1.492.355 2.133a4.9 4.9 0 0 0 1.067 1.687 5.3 5.3 0 0 0 1.73 1.11q1.067.37 2.399.37c1.152 0 2.203-.148 3.105-.46.89-.328 1.688-.77 2.336-1.36a7 7 0 0 0 1.574-2.101c.422-.844.707-1.758.914-2.797l.371-2.024c.047-.27.07-.507.118-.773.015-.266.015-.516.015-.781 0-.754-.086-1.465-.328-2.106a4.7 4.7 0 0 0-1.066-1.672m-11.657.43.176-1.137.028-.02V19a.69.69 0 0 0-.246-.508 1 1 0 0 0-.551-.14h-.047c-.692 0-1.402.09-2.113.25-.579.132-1.153.398-1.774.78v-.144c0-.191-.047-.37-.18-.504a.73.73 0 0 0-.503-.195h-1.36c-.222 0-.418.082-.62.223-.134.148-.267.328-.313.523l-2.575 13.637v.133c0 .18.043.375.203.508a.7.7 0 0 0 .489.195h1.422a.92.92 0 0 0 .597-.223.9.9 0 0 0 .352-.504l2.09-11.082a8.4 8.4 0 0 1 1.8-.773c.579-.16 1.262-.223 2.06-.223h.089c.469.027.887-.223.977-.664M34.45 24.836h-7.058c.117-.535.293-.996.53-1.457.25-.473.563-.899.934-1.29.383-.362.801-.644 1.29-.843.488-.203 1.02-.293 1.625-.293 1.996.027 2.796.781 2.84 2.55 0 .407-.044.852-.16 1.333m1.867-4.945a5 5 0 0 0-1.75-1.13c-.695-.269-1.492-.41-2.425-.41-2.106 0-3.864.579-5.192 1.758-1.351 1.172-2.265 2.887-2.71 5.063l-.372 1.848a9 9 0 0 0-.18 1.718c0 .942.18 1.742.536 2.426a4.3 4.3 0 0 0 1.347 1.598c.578.418 1.2.71 1.91.906a8.7 8.7 0 0 0 2.13.266h.027c.996 0 1.84-.043 2.636-.125.754-.07 1.582-.184 2.442-.32.265-.044.488-.102.668-.266.133-.149.203-.344.25-.575l.176-.906v-.16a.52.52 0 0 0-.204-.398c-.136-.106-.285-.125-.445-.133h-.18c-.683.097-1.48.176-2.367.265-.89.07-1.758.114-2.601.114-1.086 0-1.91-.203-2.489-.621-.55-.399-.843-1.004-.843-1.954 0-.25 0-.488.047-.77.023-.233.07-.5.175-.784l.028-.133h9.43c.265 0 .515-.07.663-.266.133-.148.207-.336.25-.53l.223-1.13c.106-.586.176-1.137.176-1.652 0-.727-.113-1.39-.336-2.043-.195-.637-.578-1.195-1.02-1.656m-23.414 4.836 3.657-6.594c.16-.285.488-.332.71-.313.446.028.489.313.489.313l.781 6.594Zm7.145-8.434c-.203-.285-.426-.516-.692-.664a2.2 2.2 0 0 0-.859-.356 4.5 4.5 0 0 0-.871-.09c-.312 0-.594.028-.934.106-.328.07-.664.18-.976.34a3.1 3.1 0 0 0-.887.648c-.285.282-.55.657-.754 1.082l-8.5 15.403a1 1 0 0 0-.07.375c0 .175.047.351.207.453a.63.63 0 0 0 .46.168H7.93a.9.9 0 0 0 .504-.168c.132-.102.265-.23.34-.383l2.902-5.992h7.058l.711 5.902c0 .153.07.293.16.403.106.156.31.238.489.238h1.73c.196 0 .418-.063.551-.223.16-.133.223-.344.223-.55v-.133l-2.196-15.43a2.75 2.75 0 0 0-.355-1.129" style="stroke:none;fill-rule:nonzero;fill:#1574c2;fill-opacity:1"/><path d="m7.414 44.723 3.668-6.614c.133-.27.504-.312.711-.304.441.02.488.304.488.304l.77 6.614Zm7.149-8.438a2.2 2.2 0 0 0-.684-.683 2.5 2.5 0 0 0-.871-.352 6 6 0 0 0-.887-.074c-.285 0-.578.027-.906.09a3.7 3.7 0 0 0-.977.355c-.34.145-.62.383-.914.649-.27.285-.508.64-.758 1.066L.09 52.738c-.047.117-.09.242-.09.387 0 .168.07.352.203.457a.75.75 0 0 0 .461.152h1.777c.18 0 .356-.062.516-.152.133-.105.266-.238.328-.379l2.93-5.992h7.058l.668 5.902c.043.133.086.274.176.399.113.16.313.222.488.222h1.73c.224 0 .427-.043.58-.195.132-.16.175-.355.175-.578v-.113l-2.172-15.45c-.047-.445-.18-.8-.355-1.113M83.547 39.2h-1.383c-.18 0-.355.07-.531.18a1.4 1.4 0 0 0-.305.445l-2.45 13.227v.133c0 .328.25.55.587.55h1.367a.84.84 0 0 0 .531-.18.75.75 0 0 0 .293-.44l2.461-13.231v-.121c0-.34-.238-.563-.57-.563m-31.649 5.86v.046h-7.37a7.6 7.6 0 0 1 .577-1.66c.266-.496.606-.941.977-1.332a4.2 4.2 0 0 1 1.313-.87 4.4 4.4 0 0 1 1.687-.313c2.043.02 2.95.863 2.973 2.71 0 .415-.043.907-.157 1.419m1.625-4.97c-.445-.464-1.023-.82-1.687-1.066-.668-.285-1.45-.398-2.379-.398-2.09 0-3.777.559-5.11 1.71-1.327 1.157-2.218 2.833-2.66 4.974l-.355 1.863a7.8 7.8 0 0 0-.18 1.687c0 .926.16 1.707.489 2.352.34.64.78 1.176 1.332 1.574.535.418 1.156.692 1.867.871a8.4 8.4 0 0 0 2.082.266h.031c.992 0 1.836-.027 2.617-.117a30 30 0 0 0 2.442-.328c.265-.043.445-.098.593-.23q.136-.184.208-.49l.175-.905.02-.016v-.117c0-.266-.242-.399-.535-.399h-.149a49 49 0 0 1-2.379.246c-.91.082-1.777.13-2.62.13-1.083 0-1.954-.227-2.548-.66-.605-.411-.918-1.09-.918-2.067 0-.25 0-.492.047-.754.024-.27.09-.535.176-.828l.074-.223h9.516c.25 0 .441-.078.578-.219.09-.129.16-.285.203-.48l.223-1.137a7 7 0 0 0 .176-1.625c.02-.703-.114-1.351-.309-1.988a4.4 4.4 0 0 0-1.02-1.625m14.844-.222a3.9 3.9 0 0 0-1.394-.933c-.578-.223-1.243-.309-2.024-.309-.976 0-1.84.113-2.574.379-.64.215-1.262.48-1.883.793l.043-.313v-.125a.52.52 0 0 0-.133-.363c-.09-.133-.25-.195-.445-.195h-1.402a.77.77 0 0 0-.508.195.86.86 0 0 0-.29.445l-2.55 13.61v.133a.75.75 0 0 0 .11.37.52.52 0 0 0 .425.18h1.438a.88.88 0 0 0 .515-.18c.149-.128.239-.28.309-.44l2.105-11.208c.887-.398 1.645-.644 2.22-.777a8 8 0 0 1 1.73-.2c1.05 0 1.714.2 2.043.508.34.32.488.766.488 1.387q-.001.315-.043.7a7 7 0 0 1-.09.753l-1.66 8.774v.133c0 .328.238.55.578.55h1.375a.87.87 0 0 0 .531-.18 1 1 0 0 0 .313-.44l1.66-8.79a8.4 8.4 0 0 0 .125-1.465c0-.578-.063-1.129-.238-1.644a4 4 0 0 0-.774-1.348m29.317 0a3.8 3.8 0 0 0-1.403-.933c-.566-.223-1.242-.309-2.015-.309-1.004 0-1.864.113-2.575.379-.648.215-1.27.48-1.89.793l.05-.313v-.125a.54.54 0 0 0-.14-.363c-.09-.133-.266-.195-.441-.195H87.87a.67.67 0 0 0-.504.195.96.96 0 0 0-.293.445L84.5 53.051v.133a.7.7 0 0 0 .133.37c.105.137.25.18.445.18h1.418a.87.87 0 0 0 .516-.18c.125-.12.242-.261.304-.44l2.11-11.208c.906-.379 1.617-.644 2.222-.777a7.7 7.7 0 0 1 1.704-.2c1.066 0 1.742.2 2.066.508.328.32.488.766.508 1.387 0 .211-.02.442-.035.7-.055.265-.07.515-.114.753l-1.687 8.774v.133c0 .328.265.55.594.55h1.402a.87.87 0 0 0 .516-.18c.12-.12.265-.261.3-.44l1.668-8.79c.106-.508.137-.996.137-1.465 0-.578-.062-1.129-.242-1.644a3.5 3.5 0 0 0-.781-1.348m28.039-.34c.02-.308-.23-.523-.532-.566-.32-.047-.605-.098-.87-.14a11 11 0 0 0-.907-.11c-.32-.027-.676-.059-1.047-.07-.426-.016-.87-.016-1.437-.016-.711 0-1.45.059-2.184.176a6.4 6.4 0 0 0-1.953.683c-.55.32-1.016.762-1.367 1.297-.387.567-.563 1.258-.563 2.078 0 1.243.844 2.36 2.446 3.34l2.64 1.586c.66.383 1.106.711 1.309.957.222.285.308.555.308.82 0 .399-.086.735-.246.985-.18.285-.39.508-.683.656-.293.18-.598.293-1.004.363a5.5 5.5 0 0 1-1.192.13c-.23 0-.558-.02-.914-.048-.382 0-.773-.02-1.18-.043-.417-.039-.835-.062-1.214-.109-.418-.043-.774-.07-1.13-.105h-.179c-.351-.008-.62.175-.691.504l-.176.953v.097c0 .168.07.328.195.418.114.063.246.114.407.176.328.043.683.117 1.082.18.398.043.8.086 1.203.113.398.02.797.063 1.18.082.386 0 .746.008 1.066.008.77 0 1.543-.07 2.324-.23a5.7 5.7 0 0 0 1.996-.755 4.16 4.16 0 0 0 1.422-1.421c.356-.578.531-1.332.531-2.211 0-.606-.203-1.18-.558-1.715-.356-.559-1.04-1.125-2.043-1.73l-2.59-1.57c-.516-.313-.89-.587-1.137-.845-.265-.25-.375-.496-.375-.8 0-.364.09-.649.27-.868.175-.226.398-.402.691-.535a2.9 2.9 0 0 1 .922-.285c.355-.05.691-.07 1.004-.07a42 42 0 0 1 4.219.207h.105a.67.67 0 0 0 .711-.563l.14-.87-.14-.036h.14Zm-17.047 10.657c-.781.488-1.473.851-2.094 1.109-.66.266-1.281.402-1.953.402-.66 0-1.219-.199-1.688-.597-.445-.356-.683-1.04-.683-2.043 0-.203.027-.399.027-.602.016-.223.031-.418.086-.598l.508-2.75c.293-1.402.773-2.46 1.555-3.18q1.13-1.065 3.328-1.066c.593 0 1.129.028 1.554.07l.016-.132v.133c.356.047.711.105 1.066.164Zm4.765-10.407c0-.308-.238-.488-.593-.535-.762-.203-1.563-.336-2.45-.469a22 22 0 0 0-2.636-.148c-.864 0-1.73.086-2.532.29-.816.214-1.578.554-2.238 1.058a6 6 0 0 0-1.758 1.89c-.488.782-.87 1.778-1.082 2.95l-.515 2.628a7 7 0 0 0-.176 1.633c0 .824.105 1.551.355 2.176.266.602.602 1.11.993 1.508.425.383.941.691 1.492.887.55.18 1.152.277 1.793.277.469 0 .886-.027 1.312-.098a7 7 0 0 0 1.14-.285 10 10 0 0 0 1.063-.516c.286-.148.594-.328.926-.55l-.09.535v.176a.76.76 0 0 0 .09.382c.113.125.266.168.469.168h1.152c.18 0 .36-.062.508-.18.145-.128.25-.28.27-.44L113.418 40c.023-.047.023-.133.023-.223m-37.668 1.27h3c.196 0 .356-.07.512-.203.125-.117.242-.25.285-.426l.18-.934v-.125c0-.336-.25-.558-.605-.558h-2.946l.399-2.239v-.097c0-.285-.203-.488-.47-.488h-.089l-1.547.203c-.406.047-.691.285-.734.64l-.356 1.98-1.91.063a.74.74 0 0 0-.515.16c-.106.106-.211.239-.266.418l-.125.72v.105c-.027.312.238.515.57.53l1.828.224-1.742 9.171c-.035.223-.086.418-.086.551-.02.16-.039.34-.039.516 0 .949.356 1.68 1.067 2.078.66.398 1.511.586 2.488.586.285 0 .594-.008.902-.027.34-.028.64-.07.961-.09.211-.043.371-.114.48-.223a.7.7 0 0 0 .204-.336l.18-.976v-.125c.023-.16-.028-.31-.208-.356a1 1 0 0 0-.328-.05h-1.75c-.441 0-.781-.044-.941-.126-.149-.054-.238-.203-.238-.586 0-.175.027-.445.062-.757Zm-48.472-.117c.445.02.785-.176.844-.559l.203-1.129v-.113c0-.328-.29-.504-.645-.504h-.062c-.692 0-1.38.07-2.09.238-.617.14-1.285.442-1.996.934l.062-.313v-.125c0-.336-.222-.558-.55-.558h-1.36a.73.73 0 0 0-.504.203.82.82 0 0 0-.293.437l-2.574 13.61v.133c0 .328.25.55.578.55h1.398c.2 0 .375-.062.508-.18a.9.9 0 0 0 .336-.44l2.09-11.145a9 9 0 0 1 1.863-.797c.594-.152 1.305-.242 2.13-.242Zm57.617-5.032v-.117c0-.336-.242-.558-.57-.558h-1.473c-.195-.02-.371.07-.531.18-.153.128-.27.265-.285.44l-.16 1.184v.106c0 .351.25.558.605.558h1.46a.75.75 0 0 0 .509-.195.77.77 0 0 0 .316-.445M36.117 51.41a5 5 0 0 1-.691.105c-.309.043-.594.09-.887.113-.312.02-.578.02-.863.047-.266.02-.512.02-.735.02-1.066 0-1.867-.2-2.351-.555-.465-.371-.73-1.02-.73-2.016 0-.266.019-.559.042-.867.02-.313.09-.649.153-1.004l.355-1.945c.309-1.563.844-2.672 1.578-3.383q1.093-1.067 3.067-1.067c.593 0 1.172.028 1.746.09.488.043.918.114 1.246.18Zm4.328-12.169c-.644-.156-1.422-.289-2.355-.422a18.4 18.4 0 0 0-2.68-.195c-1.094 0-2.07.105-2.93.336-.87.238-1.625.613-2.265 1.152-.649.524-1.184 1.219-1.625 2.063-.418.844-.754 1.863-.996 3.082l-.356 1.953a9 9 0 0 0-.175 1.816c0 .844.105 1.582.398 2.203a4.3 4.3 0 0 0 1.156 1.536c.488.39 1.082.703 1.75.879a8.4 8.4 0 0 0 2.172.277c.223 0 .473-.008.785-.027.281-.043.594-.07.903-.09.34-.043.62-.086.914-.133.199-.027.355-.043.507-.09v.137c-.132.593-.265 1.09-.445 1.48a2.25 2.25 0 0 1-.664.961 3 3 0 0 1-1.082.488q-.666.158-1.602.157c-.378 0-.824-.008-1.242-.043-.468-.008-.914-.055-1.355-.07-.445-.028-.863-.063-1.246-.087-.399-.046-.711-.074-.95-.109h-.113a.8.8 0 0 0-.445.125c-.152.07-.223.23-.285.399l-.16.78v.028c-.016.063 0 .09-.016.125.016.293.266.469.594.559.398.105 1.02.222 1.89.328.864.117 1.84.16 2.95.16 1.046 0 1.953-.09 2.75-.25.753-.148 1.449-.441 2-.86a4.5 4.5 0 0 0 1.402-1.671c.371-.7.64-1.57.816-2.617l2.621-13.622v-.042c0-.055.024-.098.024-.141 0-.313-.266-.508-.645-.555" style="stroke:none;fill-rule:nonzero;fill:#888c8d;fill-opacity:1"/><g clip-path="url(#a)"><path d="M116.879 7.297c-5.719.988-13.29 1.652-19.106 3.418 4.543-.043 9.192-.059 13.942-.059 2.82 0 5.594 0 8.344.024 2.379 0 4.707.02 6.91.062q5.855.043 11.453.18c-.234-1.36-1.246-2.93-4.442-2.93l-1.847-.027v.008c.515 1.218-.754 2-1.863 1.394-.579-.293-.887-.906-.07-1.527.823-.63 2.183-1.563 2.866-1.961 2.282-1.367 2.192-3.676-1.09-3.926C124.146 1.305 110.024.445 104.896 0c3.578 2.309 8.613 2.93 13.226 4.512 2.984 1.02 1.45 2.324-1.242 2.785" style="stroke:none;fill-rule:nonzero;fill:#1574c2;fill-opacity:1"/></g></svg>