<?xml version="1.0" encoding="UTF-8"?>
<svg xmlns="http://www.w3.org/2000/svg" xmlns:xlink="http://www.w3.org/1999/xlink" width="82.93pt" height="59pt" viewBox="0 0 82.93 59" version="1.1">
<defs>
<clipPath id="clip1">
  <path d="M 0 50 L 82.929688 50 L 82.929688 59 L 0 59 Z M 0 50 "/>
</clipPath>
</defs>
<g id="surface1">
<path style=" stroke:none;fill-rule:nonzero;fill:rgb(81.555176%,13.996887%,14.399719%);fill-opacity:1;" d="M 25.984375 27.019531 C 25.984375 27.019531 24.558594 26.625 23.9375 25.839844 L 18.277344 25.839844 C 15.804688 25.839844 15.078125 25.371094 14.292969 24.613281 L 12.652344 24.613281 L 12.988281 24.992188 C 14.144531 26.273438 15.300781 27.019531 17.84375 27.019531 Z M 23.515625 24.160156 C 23.515625 24.160156 22.089844 23.769531 21.46875 22.984375 L 15.808594 22.984375 C 12.871094 22.984375 12.398438 22.324219 11.363281 21.308594 L 29.539062 21.308594 C 29.617188 20.90625 29.71875 20.515625 29.835938 20.128906 L 8.738281 20.128906 L 10.515625 22.136719 C 11.675781 23.417969 12.832031 24.160156 15.375 24.160156 Z M 32.265625 31.546875 L 23.214844 31.546875 C 20.746094 31.546875 20.015625 31.082031 19.230469 30.324219 L 17.589844 30.324219 L 17.925781 30.703125 C 19.082031 31.984375 20.238281 32.726562 22.78125 32.726562 L 33.449219 32.726562 C 33.027344 32.363281 32.632812 31.96875 32.265625 31.546875 Z M 28.453125 29.871094 C 28.453125 29.871094 27.027344 29.480469 26.40625 28.695312 L 20.746094 28.695312 C 18.273438 28.695312 17.546875 28.222656 16.761719 27.46875 L 15.121094 27.46875 L 15.457031 27.847656 C 16.613281 29.128906 17.769531 29.871094 20.3125 29.871094 Z M 59.425781 31.546875 L 50.375 31.546875 C 50.007812 31.96875 49.613281 32.363281 49.191406 32.726562 L 59.859375 32.726562 C 62.398438 32.726562 63.558594 31.984375 64.714844 30.703125 L 65.046875 30.324219 L 63.40625 30.324219 C 62.621094 31.082031 61.894531 31.546875 59.425781 31.546875 Z M 61.894531 28.695312 L 56.234375 28.695312 C 55.613281 29.480469 54.1875 29.871094 54.1875 29.871094 L 62.328125 29.871094 C 64.867188 29.871094 66.027344 29.128906 67.183594 27.847656 L 67.519531 27.46875 L 65.878906 27.46875 C 65.09375 28.222656 64.363281 28.695312 61.894531 28.695312 Z M 64.363281 25.839844 L 58.703125 25.839844 C 58.082031 26.625 56.65625 27.019531 56.65625 27.019531 L 64.796875 27.019531 C 67.339844 27.019531 68.496094 26.273438 69.652344 24.992188 L 69.988281 24.613281 L 68.347656 24.613281 C 67.5625 25.371094 66.832031 25.839844 64.363281 25.839844 Z M 52.800781 20.128906 C 52.921875 20.515625 53.023438 20.90625 53.101562 21.308594 L 71.273438 21.308594 C 70.242188 22.324219 69.765625 22.984375 66.832031 22.984375 L 61.171875 22.984375 C 60.550781 23.769531 59.125 24.160156 59.125 24.160156 L 67.265625 24.160156 C 69.808594 24.160156 70.964844 23.417969 72.121094 22.136719 L 73.902344 20.128906 Z M 34.632812 11.085938 C 34.632812 11.085938 34.730469 10.398438 34.042969 10.078125 C 33.597656 9.871094 33.101562 9.546875 32.816406 9.210938 C 32.527344 8.875 32.320312 8.445312 32.316406 7.714844 C 32.316406 6.960938 32.535156 6.476562 32.8125 6.167969 C 33.085938 5.859375 33.460938 5.675781 34.058594 5.667969 C 34.859375 5.667969 35.355469 6.164062 36.25 6.851562 C 36.972656 7.410156 38.519531 7.523438 38.628906 6.515625 C 37.367188 6.546875 36.550781 5.894531 36.121094 5.476562 C 35.640625 4.933594 34.910156 4.496094 34.042969 4.503906 C 33.203125 4.5 32.464844 4.820312 31.949219 5.40625 C 31.433594 5.992188 31.167969 6.773438 31.167969 7.714844 C 31.164062 8.679688 31.515625 9.40625 31.976562 9.929688 C 32.4375 10.460938 33.324219 10.972656 34.632812 11.085938 Z M 35.507812 10.523438 C 35.816406 10.390625 36.128906 10.261719 36.445312 10.148438 C 35.984375 8.71875 35.054688 9.132812 34.898438 9.605469 C 34.898438 9.605469 35.320312 9.75 35.507812 10.523438 Z M 36.484375 8.757812 C 36.484375 8.757812 36.972656 8.765625 37.332031 9.859375 C 37.671875 9.765625 38.015625 9.675781 38.363281 9.605469 C 37.882812 8.195312 36.933594 7.90625 36.484375 8.757812 Z M 38.820312 5.710938 C 39.65625 5.367188 40.171875 4.230469 39.621094 3.324219 C 39.464844 3.082031 39.160156 2.980469 38.886719 3.089844 C 38.582031 3.214844 38.433594 3.566406 38.558594 3.871094 C 38.644531 4.082031 38.835938 4.21875 39.046875 4.242188 C 39.046875 4.242188 39.003906 4.539062 38.433594 4.769531 C 37.867188 5 37.628906 4.820312 37.628906 4.820312 C 37.761719 4.652344 37.804688 4.425781 37.71875 4.214844 C 37.59375 3.90625 37.246094 3.757812 36.9375 3.882812 C 36.664062 3.996094 36.519531 4.28125 36.578125 4.5625 C 36.816406 5.597656 37.980469 6.050781 38.820312 5.710938 Z M 47.671875 12.8125 L 47.671875 11.507812 C 45.769531 10.507812 43.609375 9.941406 41.320312 9.941406 C 39.027344 9.941406 36.871094 10.507812 34.96875 11.507812 L 34.96875 12.8125 C 36.832031 11.71875 39.003906 11.089844 41.320312 11.089844 C 43.636719 11.089844 45.804688 11.71875 47.671875 12.8125 Z M 41.320312 3.71875 C 40.796875 3.71875 40.375 4.140625 40.375 4.664062 C 40.375 5.1875 40.796875 5.609375 41.320312 5.609375 C 41.839844 5.609375 42.265625 5.1875 42.265625 4.664062 C 42.265625 4.140625 41.839844 3.71875 41.320312 3.71875 Z M 40.144531 3.613281 L 41.320312 2.761719 L 42.492188 3.613281 L 42.046875 2.234375 L 43.21875 1.378906 L 41.769531 1.378906 L 41.320312 0 L 40.871094 1.378906 L 39.417969 1.378906 L 40.59375 2.234375 Z M 42.285156 9.332031 C 42.652344 9.355469 43.015625 9.394531 43.375 9.445312 C 43.707031 8.140625 44.378906 7.980469 44.378906 7.980469 C 43.824219 7.015625 42.703125 7.539062 42.285156 9.332031 Z M 41.320312 6.273438 L 41.320312 6.277344 C 40.820312 6.753906 40.585938 7.460938 40.585938 7.460938 C 40.917969 7.707031 41.320312 8.527344 41.320312 8.527344 C 41.320312 8.527344 41.722656 7.707031 42.054688 7.460938 C 42.054688 7.460938 41.820312 6.753906 41.320312 6.277344 Z M 39.265625 9.445312 C 39.625 9.394531 39.988281 9.355469 40.355469 9.332031 C 39.9375 7.539062 38.8125 7.015625 38.261719 7.980469 C 38.261719 7.980469 38.933594 8.140625 39.265625 9.445312 Z M 47.742188 9.605469 C 47.585938 9.132812 46.65625 8.71875 46.195312 10.148438 C 46.511719 10.261719 46.824219 10.390625 47.128906 10.523438 C 47.320312 9.75 47.742188 9.605469 47.742188 9.605469 Z M 46.390625 6.851562 C 47.285156 6.164062 47.78125 5.667969 48.582031 5.667969 C 49.179688 5.675781 49.550781 5.859375 49.832031 6.167969 C 50.105469 6.476562 50.324219 6.960938 50.324219 7.714844 C 50.320312 8.445312 50.109375 8.875 49.824219 9.210938 C 49.539062 9.546875 49.042969 9.871094 48.597656 10.078125 C 47.910156 10.398438 48.003906 11.085938 48.003906 11.085938 C 49.316406 10.972656 50.203125 10.460938 50.660156 9.929688 C 51.121094 9.40625 51.476562 8.679688 51.472656 7.714844 C 51.472656 6.773438 51.203125 5.992188 50.6875 5.40625 C 50.175781 4.820312 49.4375 4.5 48.597656 4.503906 C 47.730469 4.496094 47 4.933594 46.519531 5.476562 C 46.085938 5.894531 45.273438 6.546875 44.011719 6.515625 C 44.125 7.523438 45.667969 7.410156 46.390625 6.851562 Z M 46.15625 8.757812 C 45.707031 7.90625 44.757812 8.195312 44.277344 9.605469 C 44.625 9.675781 44.96875 9.765625 45.304688 9.859375 C 45.667969 8.765625 46.15625 8.757812 46.15625 8.757812 Z M 43.019531 3.324219 C 42.464844 4.230469 42.984375 5.367188 43.820312 5.710938 C 44.660156 6.050781 45.824219 5.597656 46.0625 4.5625 C 46.121094 4.28125 45.972656 3.996094 45.703125 3.882812 C 45.394531 3.757812 45.046875 3.90625 44.921875 4.214844 C 44.832031 4.425781 44.878906 4.652344 45.011719 4.820312 C 45.011719 4.820312 44.773438 5 44.203125 4.769531 C 43.636719 4.539062 43.59375 4.242188 43.59375 4.242188 C 43.804688 4.21875 43.996094 4.082031 44.082031 3.871094 C 44.207031 3.566406 44.058594 3.214844 43.753906 3.089844 C 43.480469 2.980469 43.171875 3.082031 43.019531 3.324219 Z M 30.4375 20.128906 L 39.828125 26.953125 L 40.828125 26.222656 L 34.066406 21.308594 L 37.765625 21.308594 L 38.148438 20.128906 L 31.6875 20.128906 C 33.019531 16.507812 36.339844 13.839844 40.316406 13.453125 L 40.710938 12.238281 C 35.894531 12.492188 31.867188 15.722656 30.4375 20.128906 L 30.441406 20.128906 Z M 50.71875 19.554688 L 51.996094 19.554688 C 50.34375 15.269531 46.1875 12.222656 41.320312 12.222656 L 37.730469 23.261719 L 38.738281 23.988281 L 41.320312 16.039062 L 42.460938 19.554688 L 43.703125 19.554688 L 41.707031 13.417969 C 45.738281 13.566406 49.183594 16.046875 50.71875 19.554688 Z M 52.761719 23.664062 C 52.761719 22.429688 52.5625 21.242188 52.203125 20.128906 L 40.59375 20.128906 L 40.214844 21.308594 L 48.574219 21.308594 L 45.582031 23.480469 L 45.964844 24.660156 L 51.191406 20.863281 C 51.445312 21.753906 51.582031 22.695312 51.582031 23.664062 C 51.582031 26.710938 50.246094 29.449219 48.132812 31.332031 L 48.527344 32.546875 C 51.109375 30.449219 52.761719 27.25 52.761719 23.664062 Z M 43.984375 26.097656 L 43.601562 24.921875 L 36.835938 29.835938 L 37.980469 26.316406 L 36.976562 25.589844 L 34.984375 31.726562 C 32.59375 29.84375 31.058594 26.933594 31.058594 23.664062 C 31.058594 22.90625 31.140625 22.171875 31.296875 21.464844 L 30.265625 20.710938 C 30.015625 21.65625 29.878906 22.644531 29.878906 23.664062 C 29.878906 27.46875 31.738281 30.839844 34.59375 32.917969 Z M 43.21875 21.882812 L 45.800781 29.835938 L 42.808594 27.660156 L 41.808594 28.386719 L 47.03125 32.183594 C 45.398438 33.28125 43.433594 33.925781 41.320312 33.925781 C 39.425781 33.925781 37.65625 33.410156 36.132812 32.511719 L 35.097656 33.265625 C 36.890625 34.425781 39.023438 35.105469 41.320312 35.105469 C 43.832031 35.105469 46.15625 34.292969 48.042969 32.917969 L 48.046875 32.917969 L 44.457031 21.882812 L 43.21875 21.882812 "/>
<path style=" stroke:none;fill-rule:nonzero;fill:rgb(81.555176%,13.996887%,14.399719%);fill-opacity:1;" d="M 52.171875 41.585938 C 51.691406 41.585938 51.378906 41.746094 50.792969 42.414062 C 50.632812 41.878906 50.152344 41.585938 49.566406 41.585938 C 49.097656 41.585938 48.71875 41.738281 48.242188 42.335938 L 48.242188 41.652344 L 47.089844 41.652344 L 47.089844 46.058594 L 48.242188 46.058594 C 48.242188 46.058594 48.242188 44.246094 48.242188 42.851562 C 48.378906 42.773438 48.671875 42.632812 49.046875 42.632812 C 49.574219 42.632812 49.699219 43.015625 49.699219 43.246094 L 49.699219 46.058594 L 50.851562 46.058594 L 50.851562 42.875 C 51.011719 42.777344 51.304688 42.632812 51.652344 42.632812 C 52.179688 42.632812 52.382812 43.015625 52.382812 43.246094 L 52.382812 46.058594 L 53.535156 46.058594 L 53.535156 42.8125 C 53.535156 42.019531 52.890625 41.585938 52.171875 41.585938 Z M 39.589844 40.023438 C 39.21875 40.023438 38.921875 40.253906 38.921875 40.535156 C 38.921875 40.816406 39.21875 41.046875 39.589844 41.046875 C 39.957031 41.046875 40.257812 40.816406 40.257812 40.535156 C 40.257812 40.253906 39.957031 40.023438 39.589844 40.023438 Z M 56.714844 45.203125 C 56.285156 45.203125 55.894531 44.800781 55.894531 43.898438 C 55.894531 42.929688 56.410156 42.539062 56.949219 42.539062 C 57.144531 42.539062 57.371094 42.59375 57.535156 42.636719 L 57.535156 44.996094 C 57.367188 45.085938 57.078125 45.203125 56.714844 45.203125 Z M 56.878906 41.570312 C 55.714844 41.570312 54.660156 42.25 54.660156 43.957031 C 54.660156 45.136719 55.117188 46.175781 56.285156 46.175781 C 57.035156 46.175781 57.355469 45.761719 57.535156 45.507812 L 57.535156 46.058594 L 58.683594 46.058594 L 58.683594 41.859375 C 58.683594 41.859375 57.65625 41.570312 56.878906 41.570312 Z M 35.550781 45.203125 C 35.121094 45.203125 34.730469 44.800781 34.730469 43.898438 C 34.730469 42.929688 35.246094 42.539062 35.785156 42.539062 C 35.980469 42.539062 36.207031 42.59375 36.371094 42.636719 L 36.371094 44.996094 C 36.203125 45.085938 35.917969 45.203125 35.550781 45.203125 Z M 35.71875 41.570312 C 34.550781 41.570312 33.496094 42.25 33.496094 43.957031 C 33.496094 45.136719 33.953125 46.175781 35.121094 46.175781 C 35.871094 46.175781 36.191406 45.761719 36.371094 45.507812 L 36.371094 46.058594 L 37.519531 46.058594 L 37.523438 41.859375 C 37.523438 41.859375 36.496094 41.570312 35.71875 41.570312 Z M 25.742188 45.203125 C 25.3125 45.203125 24.921875 44.800781 24.921875 43.898438 C 24.921875 42.929688 25.4375 42.539062 25.976562 42.539062 C 26.171875 42.539062 26.394531 42.59375 26.558594 42.636719 L 26.558594 44.996094 C 26.394531 45.085938 26.105469 45.203125 25.742188 45.203125 Z M 25.90625 41.570312 C 24.742188 41.570312 23.6875 42.25 23.6875 43.957031 C 23.6875 45.136719 24.144531 46.175781 25.3125 46.175781 C 26.0625 46.175781 26.382812 45.761719 26.558594 45.507812 L 26.558594 46.058594 L 27.710938 46.058594 L 27.710938 41.859375 C 27.710938 41.859375 26.683594 41.570312 25.90625 41.570312 Z M 21.875 41.652344 L 20.917969 44.882812 L 19.902344 41.652344 L 18.613281 41.652344 L 20.339844 46.386719 L 20.300781 46.492188 C 20.054688 47.027344 19.472656 47.21875 19.085938 47.15625 L 19.167969 47.984375 C 19.167969 47.984375 19.402344 48.035156 19.738281 48.035156 C 20.507812 48.035156 21.121094 47.679688 21.476562 46.738281 L 23.167969 41.652344 Z M 30.652344 46.023438 L 30.597656 45.21875 C 30.347656 45.261719 30.15625 45.175781 30.15625 44.921875 L 30.15625 40.003906 L 29.003906 40.003906 L 29.003906 45.136719 C 29.003906 45.730469 29.335938 46.175781 29.933594 46.175781 C 30.445312 46.175781 30.652344 46.023438 30.652344 46.023438 Z M 39.011719 46.058594 L 40.164062 46.058594 C 40.164062 46.058594 40.164062 42.777344 40.164062 41.652344 L 39.011719 41.652344 Z M 42.722656 42.242188 L 42.722656 41.652344 L 41.625 41.652344 L 41.625 46.058594 L 42.777344 46.058594 C 42.777344 46.058594 42.777344 44.027344 42.777344 43.171875 C 43.007812 43.019531 43.527344 42.71875 43.941406 42.871094 L 44.0625 41.667969 C 43.652344 41.414062 43.125 41.609375 42.722656 42.242188 Z M 61.292969 42.242188 L 61.292969 41.652344 L 60.195312 41.652344 L 60.195312 46.058594 L 61.34375 46.058594 C 61.34375 46.058594 61.34375 44.027344 61.34375 43.171875 C 61.574219 43.019531 62.097656 42.71875 62.507812 42.871094 L 62.628906 41.667969 C 62.222656 41.414062 61.695312 41.609375 61.292969 42.242188 Z M 70.78125 45.257812 C 70.101562 45.257812 69.757812 44.640625 69.757812 43.882812 C 69.757812 43.125 70.101562 42.511719 70.78125 42.511719 C 71.417969 42.511719 71.75 42.699219 71.75 42.699219 L 72.015625 42.027344 C 72.015625 42.027344 71.484375 41.585938 70.691406 41.585938 C 69.722656 41.585938 68.496094 41.964844 68.496094 43.882812 C 68.496094 45.804688 69.722656 46.179688 70.691406 46.179688 C 71.484375 46.179688 72.015625 45.742188 72.015625 45.742188 L 71.75 45.070312 C 71.75 45.070312 71.417969 45.257812 70.78125 45.257812 Z M 65.445312 42.511719 C 64.765625 42.511719 64.507812 43.125 64.507812 43.882812 C 64.507812 44.640625 64.765625 45.257812 65.445312 45.257812 C 66.121094 45.257812 66.378906 44.640625 66.378906 43.882812 C 66.378906 43.125 66.121094 42.511719 65.445312 42.511719 Z M 67.640625 43.882812 C 67.640625 45.804688 66.414062 46.179688 65.441406 46.179688 C 64.472656 46.179688 63.246094 45.804688 63.246094 43.882812 C 63.246094 41.964844 64.472656 41.585938 65.441406 41.585938 C 66.414062 41.585938 67.640625 41.964844 67.640625 43.882812 Z M 11.632812 42.242188 L 11.632812 41.652344 L 10.535156 41.652344 L 10.535156 46.058594 L 11.6875 46.058594 C 11.6875 46.058594 11.6875 44.027344 11.6875 43.171875 C 11.917969 43.019531 12.4375 42.71875 12.851562 42.871094 L 12.972656 41.667969 C 12.5625 41.414062 12.039062 41.609375 11.632812 42.242188 Z M 15.785156 42.511719 C 15.105469 42.511719 14.847656 43.125 14.847656 43.882812 C 14.847656 44.640625 15.105469 45.257812 15.785156 45.257812 C 16.464844 45.257812 16.722656 44.640625 16.722656 43.882812 C 16.722656 43.125 16.464844 42.511719 15.785156 42.511719 Z M 17.984375 43.882812 C 17.984375 45.804688 16.757812 46.179688 15.785156 46.179688 C 14.8125 46.179688 13.589844 45.804688 13.589844 43.882812 C 13.589844 41.964844 14.8125 41.585938 15.785156 41.585938 C 16.757812 41.585938 17.984375 41.964844 17.984375 43.882812 "/>
<g clip-path="url(#clip1)" clip-rule="nonzero">
<path style=" stroke:none;fill-rule:nonzero;fill:rgb(81.555176%,13.996887%,14.399719%);fill-opacity:1;" d="M 62.503906 56.246094 L 58.921875 56.246094 C 59.699219 55.285156 61.011719 54.386719 61.511719 54.386719 C 61.777344 54.386719 62.195312 54.613281 62.648438 55.5625 C 62.917969 56.191406 62.78125 56.246094 62.503906 56.246094 Z M 61.875 53.574219 C 60.734375 53.574219 59.597656 54.699219 59.003906 55.398438 L 59.003906 51.488281 C 59.003906 50.714844 59.050781 50.347656 59.050781 50.347656 C 59.050781 50.347656 58.167969 50.332031 57.703125 50.585938 L 57.703125 55.710938 C 57.703125 56.152344 57.59375 56.234375 57.535156 56.246094 L 56.742188 56.246094 C 56.710938 56.585938 56.992188 57.097656 57.460938 57.097656 L 62.351562 57.097656 C 62.917969 57.097656 63.339844 56.875 63.515625 56.761719 C 64.101562 56.316406 64.148438 56.1875 63.957031 55.601562 C 63.765625 55.015625 63.160156 53.574219 61.875 53.574219 Z M 74.414062 56.246094 L 70.832031 56.246094 C 71.609375 55.285156 72.921875 54.386719 73.421875 54.386719 C 73.6875 54.386719 74.105469 54.613281 74.558594 55.5625 C 74.828125 56.191406 74.691406 56.246094 74.414062 56.246094 Z M 66.738281 56.246094 C 66.238281 56.246094 65.859375 55.855469 65.859375 55.269531 C 65.859375 54.6875 66.066406 54.320312 66.140625 54.1875 C 66.140625 54.1875 67.304688 54.199219 67.410156 56.246094 Z M 79.199219 55.007812 C 80.007812 54.984375 80.714844 54.445312 80.714844 53.3125 L 80.714844 51.488281 C 80.714844 50.714844 80.761719 50.347656 80.761719 50.347656 C 80.761719 50.347656 79.878906 50.332031 79.414062 50.585938 L 79.414062 53.355469 C 79.414062 53.863281 79.394531 54.15625 79.070312 54.15625 C 78.914062 54.15625 78.847656 54.085938 78.78125 53.984375 C 78.347656 52.980469 77.90625 52.644531 76.984375 52.644531 C 76.410156 52.644531 75.867188 52.910156 75.867188 52.910156 C 75.734375 52.96875 75.867188 53.429688 76.1875 53.761719 C 76.292969 53.871094 76.339844 53.839844 76.453125 53.742188 C 76.566406 53.648438 77.042969 53.25 77.203125 53.582031 C 77.320312 53.820312 78.011719 55.707031 78.683594 56.246094 L 76.550781 56.246094 C 76.207031 56.246094 76.054688 56.1875 75.867188 55.601562 C 75.675781 55.015625 75.070312 53.574219 73.785156 53.574219 C 72.644531 53.574219 71.507812 54.699219 70.910156 55.398438 L 70.910156 51.488281 C 70.910156 50.714844 70.960938 50.347656 70.960938 50.347656 C 70.960938 50.347656 70.078125 50.332031 69.613281 50.585938 L 69.613281 55.710938 C 69.613281 56.152344 69.503906 56.234375 69.445312 56.246094 L 68.652344 56.246094 C 68.667969 56.105469 68.675781 55.957031 68.675781 55.804688 C 68.675781 54.234375 67.75 53.574219 66.785156 53.574219 C 65.992188 53.574219 64.652344 54.394531 64.652344 55.476562 C 64.652344 56.5625 65.53125 57.097656 66.089844 57.097656 L 67.410156 57.097656 C 67.382812 57.667969 67.289062 57.851562 67.03125 58.023438 C 66.699219 58.246094 65.554688 58.28125 65.238281 58.234375 C 65.238281 58.234375 65.296875 59 66.285156 59 C 67.050781 59 68.054688 58.367188 68.476562 57.097656 L 74.261719 57.097656 C 74.828125 57.097656 75.253906 56.875 75.425781 56.761719 C 75.765625 57.023438 76.132812 57.097656 76.566406 57.097656 L 80.109375 57.097656 C 80.414062 57.097656 80.695312 56.683594 80.792969 56.246094 L 80.359375 56.246094 C 79.964844 56.039062 79.53125 55.664062 79.199219 55.007812 Z M 20.269531 56.339844 C 19.59375 56.339844 19.226562 55.832031 19.226562 55.230469 C 19.226562 54.632812 19.488281 54.183594 19.488281 54.183594 C 20.503906 54.246094 20.777344 55.046875 20.777344 55.351562 C 20.777344 55.566406 20.769531 55.753906 20.894531 56.042969 C 20.769531 56.191406 20.566406 56.339844 20.269531 56.339844 Z M 48.476562 56.339844 C 47.800781 56.339844 47.429688 55.832031 47.429688 55.230469 C 47.429688 54.632812 47.691406 54.183594 47.691406 54.183594 C 48.707031 54.246094 48.984375 55.046875 48.984375 55.351562 C 48.984375 55.566406 48.972656 55.753906 49.097656 56.042969 C 48.972656 56.191406 48.773438 56.339844 48.476562 56.339844 Z M 31.519531 56.066406 C 31.316406 56.25 30.65625 56.304688 30.390625 56.136719 C 30.121094 55.96875 29.882812 55.363281 30.078125 55.109375 C 30.265625 54.871094 31 54.496094 31.519531 54.300781 Z M 51.347656 50.585938 L 51.347656 55.441406 C 51.347656 55.953125 51.324219 56.246094 51.003906 56.246094 C 50.679688 56.246094 50.261719 56.125 50.261719 55.445312 C 50.261719 54.769531 49.785156 53.550781 48.308594 53.550781 C 46.707031 53.550781 46.167969 55.230469 46.167969 55.769531 C 46.167969 55.988281 46.089844 56.261719 45.777344 56.261719 C 45.511719 56.261719 45.257812 56.058594 45.085938 55.757812 C 45.105469 55.644531 45.113281 55.527344 45.113281 55.398438 L 45.113281 51.488281 C 45.113281 50.714844 45.160156 50.347656 45.160156 50.347656 C 45.160156 50.347656 44.28125 50.332031 43.8125 50.585938 L 43.8125 55.441406 C 43.8125 55.953125 43.792969 56.246094 43.46875 56.246094 C 43.136719 56.246094 42.929688 56.148438 42.792969 55.835938 C 42.652344 55.527344 42.390625 55.019531 42.109375 54.71875 C 41.835938 54.417969 41.375 54.1875 40.703125 54.1875 L 38.433594 54.1875 C 37.808594 54.1875 37.578125 53.992188 37.578125 53.992188 C 37.476562 53.9375 37.855469 53.21875 38.167969 52.78125 C 38.476562 52.34375 38.871094 51.996094 39.25 51.996094 C 39.574219 51.996094 39.726562 52.238281 39.726562 52.238281 C 39.816406 52.167969 40 51.925781 40 51.652344 C 40 51.375 39.769531 51.015625 39.320312 51.015625 C 38.871094 51.015625 38.132812 51.386719 37.441406 52.4375 C 37.011719 53.082031 36.550781 54.292969 36.550781 54.292969 C 36.402344 54.570312 37.058594 54.855469 37.058594 54.855469 C 37.476562 55.03125 37.992188 55.03125 38.167969 55.03125 L 40.09375 55.03125 C 41.132812 55.03125 41.464844 56.023438 41.464844 56.023438 C 41.5 56.195312 41.453125 56.246094 41.121094 56.246094 L 36.578125 56.246094 C 35.917969 56.246094 35.476562 56.078125 35.476562 55.398438 L 35.476562 54.660156 C 35.476562 53.886719 35.527344 53.519531 35.527344 53.519531 C 35.527344 53.519531 34.675781 53.503906 34.210938 53.761719 L 34.210938 55.617188 C 34.210938 56.207031 34.074219 56.25 33.75 56.25 L 33.132812 56.25 C 32.851562 56.25 32.789062 56.179688 32.789062 55.660156 L 32.789062 53.707031 C 32.789062 52.9375 32.839844 52.566406 32.839844 52.566406 C 32.839844 52.566406 31.988281 52.550781 31.519531 52.804688 L 31.519531 53.714844 C 30.058594 54.109375 28.910156 55.023438 28.910156 55.023438 C 28.671875 55.207031 28.800781 55.925781 29.078125 56.445312 C 29.363281 56.96875 30.09375 57.066406 30.234375 57.066406 C 30.742188 57.066406 31.300781 56.742188 31.597656 56.5 C 31.742188 56.871094 32.070312 57.050781 32.554688 57.050781 L 34.003906 57.050781 C 34.59375 57.050781 34.90625 56.714844 34.90625 56.714844 C 34.90625 56.714844 35.21875 57.097656 36.480469 57.097656 L 41.339844 57.097656 C 41.914062 57.097656 42.261719 56.796875 42.261719 56.796875 C 42.503906 56.957031 42.820312 57.097656 43.546875 57.097656 C 43.925781 57.097656 44.285156 56.980469 44.5625 56.75 C 45.6875 57.464844 46.503906 56.832031 46.722656 56.632812 C 47.125 57.046875 47.863281 57.046875 48.03125 57.046875 C 48.199219 57.046875 49.0625 56.96875 49.355469 56.492188 C 49.355469 56.492188 49.816406 57.097656 51.078125 57.097656 C 51.910156 57.097656 52.648438 56.554688 52.648438 55.398438 L 52.648438 51.488281 C 52.648438 50.714844 52.695312 50.347656 52.695312 50.347656 C 52.695312 50.347656 51.8125 50.332031 51.347656 50.585938 Z M 81.582031 50.585938 L 81.582031 55.710938 C 81.582031 57.042969 81.484375 57.363281 81.484375 57.363281 C 82.015625 57.316406 82.882812 56.980469 82.882812 55.824219 L 82.882812 51.488281 C 82.882812 50.714844 82.933594 50.347656 82.933594 50.347656 C 82.933594 50.347656 82.050781 50.332031 81.582031 50.585938 Z M 53.492188 50.585938 L 53.492188 55.710938 C 53.492188 57.042969 53.394531 57.363281 53.394531 57.363281 C 53.925781 57.316406 54.792969 56.980469 54.792969 55.824219 L 54.792969 51.488281 C 54.792969 50.714844 54.839844 50.347656 54.839844 50.347656 C 54.839844 50.347656 53.957031 50.332031 53.492188 50.585938 Z M 33.757812 57.851562 C 33.355469 57.851562 33.03125 58.097656 33.03125 58.40625 C 33.03125 58.710938 33.355469 58.960938 33.757812 58.960938 C 34.15625 58.960938 34.480469 58.710938 34.480469 58.40625 C 34.480469 58.097656 34.15625 57.851562 33.757812 57.851562 Z M 35.507812 57.636719 C 35.109375 57.636719 34.785156 57.886719 34.785156 58.191406 C 34.785156 58.496094 35.109375 58.746094 35.507812 58.746094 C 35.90625 58.746094 36.230469 58.496094 36.230469 58.191406 C 36.230469 57.886719 35.90625 57.636719 35.507812 57.636719 Z M 30.414062 52.144531 C 30.8125 52.144531 31.136719 51.894531 31.136719 51.589844 C 31.136719 51.285156 30.8125 51.039062 30.414062 51.039062 C 30.015625 51.039062 29.691406 51.285156 29.691406 51.589844 C 29.691406 51.894531 30.015625 52.144531 30.414062 52.144531 Z M 77.097656 51.929688 C 77.5 51.929688 77.820312 51.683594 77.820312 51.378906 C 77.820312 51.074219 77.5 50.824219 77.097656 50.824219 C 76.699219 50.824219 76.375 51.074219 76.375 51.378906 C 76.375 51.683594 76.699219 51.929688 77.097656 51.929688 Z M 32.167969 51.929688 C 32.566406 51.929688 32.890625 51.683594 32.890625 51.378906 C 32.890625 51.074219 32.566406 50.824219 32.167969 50.824219 C 31.765625 50.824219 31.441406 51.074219 31.441406 51.378906 C 31.441406 51.683594 31.765625 51.929688 32.167969 51.929688 Z M 2.734375 56.066406 C 2.53125 56.25 1.871094 56.304688 1.601562 56.136719 C 1.335938 55.96875 1.097656 55.363281 1.292969 55.109375 C 1.480469 54.871094 2.214844 54.496094 2.734375 54.300781 Z M 5.21875 57.050781 C 5.808594 57.050781 6.121094 56.714844 6.121094 56.714844 C 6.121094 56.714844 6.433594 57.097656 7.695312 57.097656 C 8.597656 57.097656 9.4375 56.554688 9.4375 55.398438 L 9.4375 53.707031 C 9.4375 52.9375 9.484375 52.566406 9.484375 52.566406 C 9.484375 52.566406 8.601562 52.550781 8.136719 52.804688 L 8.136719 55.441406 C 8.136719 55.953125 8.113281 56.246094 7.792969 56.246094 C 7.132812 56.246094 6.691406 56.078125 6.691406 55.398438 L 6.691406 54.660156 C 6.691406 53.886719 6.742188 53.519531 6.742188 53.519531 C 6.742188 53.519531 5.890625 53.503906 5.421875 53.761719 L 5.421875 55.617188 C 5.421875 56.207031 5.289062 56.25 4.964844 56.25 L 4.347656 56.25 C 4.066406 56.25 4.003906 56.179688 4.003906 55.660156 L 4.003906 53.707031 C 4.003906 52.9375 4.054688 52.566406 4.054688 52.566406 C 4.054688 52.566406 3.203125 52.550781 2.734375 52.804688 L 2.734375 53.714844 C 1.273438 54.109375 0.125 55.023438 0.125 55.023438 C -0.113281 55.207031 0.0117188 55.925781 0.292969 56.445312 C 0.578125 56.96875 1.308594 57.066406 1.449219 57.066406 C 1.957031 57.066406 2.519531 56.742188 2.8125 56.5 C 2.957031 56.871094 3.285156 57.050781 3.769531 57.050781 Z M 15.441406 55.480469 C 15.007812 54.984375 14.667969 54.25 14.347656 53.320312 L 15.40625 53.320312 C 16.144531 53.320312 16.195312 54.246094 15.761719 55.046875 C 15.679688 55.195312 15.574219 55.34375 15.441406 55.480469 Z M 23.140625 50.585938 L 23.140625 55.441406 C 23.140625 55.953125 23.121094 56.246094 22.796875 56.246094 C 22.472656 56.246094 22.054688 56.125 22.054688 55.445312 C 22.054688 54.769531 21.578125 53.550781 20.101562 53.550781 C 18.503906 53.550781 17.964844 55.230469 17.964844 55.769531 C 17.964844 56.105469 17.917969 56.261719 17.132812 56.261719 C 16.636719 56.261719 16.226562 56.128906 15.875 55.878906 C 16.710938 55.050781 17.03125 54.542969 17.238281 54.042969 C 17.46875 53.492188 17.363281 52.566406 16.132812 52.566406 L 13.636719 52.566406 L 12.777344 53 C 13.222656 54.226562 13.679688 55.34375 14.453125 56.097656 C 14.136719 56.207031 13.777344 56.277344 13.359375 56.277344 C 12.636719 56.277344 12.296875 56.105469 12.136719 55.9375 C 12.109375 55.308594 11.949219 54.558594 11.691406 53.574219 C 11.691406 53.574219 11.054688 53.511719 10.453125 53.914062 C 10.683594 54.773438 11.40625 57.605469 10.664062 57.914062 C 9.921875 58.21875 8.820312 58.132812 8.820312 58.132812 C 8.859375 58.792969 9.328125 58.984375 9.71875 58.984375 C 10.113281 58.984375 11.066406 58.792969 11.703125 57.753906 C 11.867188 57.484375 11.980469 57.210938 12.054688 56.921875 C 12.621094 57.132812 13.988281 57.183594 15.050781 56.5625 C 15.578125 56.878906 16.226562 57.0625 17.054688 57.0625 C 18.144531 57.0625 18.515625 56.632812 18.515625 56.632812 C 18.917969 57.046875 19.65625 57.046875 19.824219 57.046875 C 19.996094 57.046875 20.855469 56.96875 21.148438 56.492188 C 21.148438 56.492188 21.609375 57.097656 22.871094 57.097656 C 23.703125 57.097656 24.441406 56.554688 24.441406 55.398438 L 24.441406 51.488281 C 24.441406 50.714844 24.488281 50.347656 24.488281 50.347656 C 24.488281 50.347656 23.605469 50.332031 23.140625 50.585938 Z M 7.617188 57.851562 C 7.214844 57.851562 6.890625 58.097656 6.890625 58.40625 C 6.890625 58.710938 7.214844 58.960938 7.617188 58.960938 C 8.015625 58.960938 8.339844 58.710938 8.339844 58.40625 C 8.339844 58.097656 8.015625 57.851562 7.617188 57.851562 Z M 3.710938 57.851562 C 3.3125 57.851562 2.988281 58.097656 2.988281 58.40625 C 2.988281 58.710938 3.3125 58.960938 3.710938 58.960938 C 4.113281 58.960938 4.4375 58.710938 4.4375 58.40625 C 4.4375 58.097656 4.113281 57.851562 3.710938 57.851562 Z M 5.464844 57.636719 C 5.0625 57.636719 4.738281 57.886719 4.738281 58.191406 C 4.738281 58.496094 5.0625 58.746094 5.464844 58.746094 C 5.863281 58.746094 6.1875 58.496094 6.1875 58.191406 C 6.1875 57.886719 5.863281 57.636719 5.464844 57.636719 Z M 1.628906 52.144531 C 2.03125 52.144531 2.355469 51.894531 2.355469 51.589844 C 2.355469 51.285156 2.03125 51.039062 1.628906 51.039062 C 1.230469 51.039062 0.90625 51.285156 0.90625 51.589844 C 0.90625 51.894531 1.230469 52.144531 1.628906 52.144531 Z M 3.382812 51.929688 C 3.78125 51.929688 4.105469 51.683594 4.105469 51.378906 C 4.105469 51.074219 3.78125 50.824219 3.382812 50.824219 C 2.980469 50.824219 2.65625 51.074219 2.65625 51.378906 C 2.65625 51.683594 2.980469 51.929688 3.382812 51.929688 Z M 15.164062 51.796875 C 15.5625 51.796875 15.886719 51.550781 15.886719 51.242188 C 15.886719 50.9375 15.5625 50.6875 15.164062 50.6875 C 14.761719 50.6875 14.4375 50.9375 14.4375 51.242188 C 14.4375 51.550781 14.761719 51.796875 15.164062 51.796875 Z M 25.285156 50.585938 L 25.285156 55.710938 C 25.285156 57.042969 25.1875 57.363281 25.1875 57.363281 C 25.71875 57.316406 26.585938 56.980469 26.585938 55.824219 L 26.585938 51.488281 C 26.585938 50.714844 26.632812 50.347656 26.632812 50.347656 C 26.632812 50.347656 25.75 50.332031 25.285156 50.585938 "/>
</g>
</g>
</svg>
