<svg xmlns="http://www.w3.org/2000/svg" width="176pt" height="57.24" viewBox="0 0 176 42.93"><defs><clipPath id="a"><path d="M170 34h6v8.93h-6Zm0 0"/></clipPath><clipPath id="b"><path d="M89 34h11v8.93H89Zm0 0"/></clipPath><clipPath id="c"><path d="M63 34h8v8.93h-8Zm0 0"/></clipPath><clipPath id="d"><path d="M156 34h7v8.93h-7Zm0 0"/></clipPath><clipPath id="e"><path d="M121 34h7v8.93h-7Zm0 0"/></clipPath><clipPath id="f"><path d="M108 34h7v8.93h-7Zm0 0"/></clipPath><clipPath id="g"><path d="M140 34h7v8.93h-7Zm0 0"/></clipPath><clipPath id="h"><path d="M99 34h8v8.93h-8Zm0 0"/></clipPath><clipPath id="i"><path d="M163 34h7v8.93h-7Zm0 0"/></clipPath><clipPath id="j"><path d="M130 34h7v8.93h-7Zm0 0"/></clipPath><clipPath id="k"><path d="M80 34h8v8.93h-8Zm0 0"/></clipPath><clipPath id="l"><path d="M49 34h8v8.93h-8Zm0 0"/></clipPath><clipPath id="m"><path d="M73 34h8v8.93h-8Zm0 0"/></clipPath><clipPath id="n"><path d="M57 34h6v8.93h-6Zm0 0"/></clipPath><clipPath id="o"><path d="M115 34h5v8.93h-5Zm0 0"/></clipPath><clipPath id="p"><path d="M147 34h6v8.93h-6Zm0 0"/></clipPath><clipPath id="q"><path d="M71 34h2v8.93h-2Zm0 0"/></clipPath><clipPath id="r"><path d="M137 34h2v8.93h-2Zm0 0"/></clipPath><clipPath id="s"><path d="M153 34h2v8.93h-2Zm0 0"/></clipPath><clipPath id="t"><path d="M0 0h42v42.93H0Zm0 0"/></clipPath></defs><g clip-path="url(#a)"><path d="M176 41.2c-1.121 1.612-2.293 2.058-3.973 1.503-1.097-.363-1.687-1.18-1.722-2.453.222-.031.457-.066.675-.098.684 1.582 1.711 2.141 3.075 1.715.62-.195 1.117-.625 1.011-1.254-.07-.433-.48-.945-.879-1.156-.652-.348-1.425-.465-2.136-.715-1.067-.367-1.621-1.156-1.543-2.12.078-1.028.754-1.743 1.855-1.977 1.817-.383 3.13.457 3.38 2.246-.25.043-.505.086-.747.125-.578-1.36-1.312-1.774-2.539-1.473-.559.137-.977.434-1.031 1.059-.059.636.312.98.87 1.16.477.156.958.304 1.446.418.996.238 1.805.715 2.258 1.68z" style="stroke:none;fill-rule:nonzero;fill:#e01d25;fill-opacity:1"/></g><path d="M122.387 26.617h-4.985C116.2 20.597 115 14.61 113.785 8.555l-.789-.078c-1.191 6.07-2.379 12.082-3.566 18.136h-5.356c-1.508-8.441-3.02-16.89-4.543-25.41h4.27c1.062 7.059 2.133 14.152 3.199 21.242l.203.012c1.469-7.082 2.934-14.164 4.406-21.273h3.551q2.294 10.224 4.586 20.441.105-.002.211-.004l3.5-20.43h3.531c-1.539 8.504-3.066 16.954-4.601 25.426M135.906 4.418l-.23-.023c-1.028 3.964-2.055 7.93-3.074 11.886h6.304zm3.778 14.957h-7.875c-.621 2.379-1.254 4.797-1.895 7.242h-3.894c2.546-8.512 5.074-16.953 7.613-25.43h4.738l7.305 25.422h-4.145a4447 4447 0 0 0-1.847-7.234M93.254 16.324c-1.043-4.113-2.047-8.058-3.047-12q-.093.008-.191.016l-3.094 11.984zM84.25 26.617h-3.898l7.605-25.422h4.75c2.426 8.442 4.848 16.883 7.297 25.41h-4.14c-.606-2.378-1.216-4.75-1.84-7.207h-7.891c-.613 2.352-1.246 4.77-1.883 7.22" style="stroke:none;fill-rule:nonzero;fill:#e01d25;fill-opacity:1"/><g clip-path="url(#b)"><path d="M89.797 34.742c.363-.02.605-.031.941-.047.457 2.192.907 4.356 1.356 6.524.058.008.11.011.164.02.55-2.157 1.097-4.317 1.656-6.5h1.152c.528 2.124 1.063 4.28 1.66 6.699.532-2.376 1.008-4.524 1.493-6.7h.91l-1.953 7.953c-.281.024-.547.043-.918.07-.574-2.284-1.145-4.538-1.711-6.796-.055-.004-.11-.004-.16-.008-.567 2.242-1.13 4.484-1.703 6.75h-.989c-.62-2.605-1.242-5.223-1.898-7.965" style="stroke:none;fill-rule:nonzero;fill:#e01d25;fill-opacity:1"/></g><g clip-path="url(#c)"><path d="M64.738 35.602v2.597c.953 0 1.867.063 2.77-.015.75-.067 1.094-.618 1.078-1.352-.02-.723-.43-1.168-1.129-1.215-.879-.058-1.766-.015-2.719-.015m-.02 7.105h-.906v-7.98c1.293 0 2.543-.059 3.79.015 1.168.074 1.785.7 1.933 1.73.168 1.173-.312 2-1.418 2.446l-.297.117c.754 1.168 1.512 2.34 2.36 3.649h-1.22c-.362-.614-.8-1.262-1.144-1.957-.62-1.27-1.55-1.86-3.097-1.45z" style="stroke:none;fill-rule:nonzero;fill:#e01d25;fill-opacity:1"/></g><g clip-path="url(#d)"><path d="M157.238 42.707h-.843v-7.965l.89-.047 3.656 6.028c.063-.008.121-.012.18-.02v-5.96h.899v7.944h-.965c-1.203-1.984-2.422-4-3.645-6.015q-.085.026-.172.05z" style="stroke:none;fill-rule:nonzero;fill:#e01d25;fill-opacity:1"/></g><g clip-path="url(#e)"><path d="M122.078 41.902c1.328-.207 2.82.442 3.586-1.02.766-1.452.828-3.058-.105-4.468-.864-1.297-2.258-.656-3.48-.77zm-.918.809v-7.973c1.11 0 2.168-.039 3.219.008 1.187.055 1.973.738 2.367 1.828.55 1.5.535 3.016-.094 4.492-.43 1.012-1.218 1.594-2.328 1.637-1.027.035-2.058.008-3.164.008" style="stroke:none;fill-rule:nonzero;fill:#e01d25;fill-opacity:1"/></g><path d="M77.672 30.582c.258-.297.36-.488.523-.578.13-.07.325-.02.493-.02 9.91 0 19.816 0 29.726.004.246 0 .492.024.773.035v.559z" style="stroke:none;fill-rule:nonzero;fill:#e01d25;fill-opacity:1"/><g clip-path="url(#f)"><path d="M109.023 38.313c1.012-.047 1.985-.028 2.93-.16.656-.094.953-.641.934-1.305-.02-.63-.32-1.137-.953-1.188-.954-.082-1.918-.023-2.91-.023zm5.473 4.398h-1.219c-.406-.684-.804-1.383-1.222-2.07-.907-1.489-1.133-1.594-3.04-1.407v3.43c-.331.031-.566.055-.874.086v-7.992c1.351 0 2.66-.067 3.957.02 1.043.07 1.601.726 1.726 1.73.14 1.113-.273 1.922-1.203 2.336-.195.086-.394.156-.496.195.766 1.184 1.512 2.34 2.371 3.672" style="stroke:none;fill-rule:nonzero;fill:#e01d25;fill-opacity:1"/></g><g clip-path="url(#g)"><path d="M141.43 35.613v2.7c.992-.047 1.933-.032 2.86-.145.66-.086.995-.61.991-1.262 0-.691-.34-1.222-1.062-1.277-.906-.063-1.82-.016-2.79-.016m-.918-.867c1.343 0 2.625-.07 3.894.02 1.153.082 1.676.699 1.82 1.832.137 1.078-.343 1.882-1.378 2.304l-.442.184c.367.453.754.855 1.055 1.316.453.7.844 1.438 1.344 2.305-.434.016-.743.031-1.11.047-.445-.746-.875-1.492-1.328-2.223-.86-1.386-1.23-1.547-2.965-1.261v3.41l-.89.066z" style="stroke:none;fill-rule:nonzero;fill:#e01d25;fill-opacity:1"/></g><path d="M148.121 30.04c.012.175.02.331.031.542h-31.12c-.012-.176-.016-.332-.028-.543z" style="stroke:none;fill-rule:nonzero;fill:#e01d25;fill-opacity:1"/><g clip-path="url(#h)"><path d="M105.922 38.668c-.215-.684-.328-1.453-.684-2.086-.87-1.539-3.183-1.5-4.004.063-.691 1.332-.718 2.75-.027 4.105.422.836 1.164 1.285 2.11 1.27.945-.02 1.687-.477 2.058-1.34.258-.602.355-1.274.547-2.012m.988.148c-.262.817-.394 1.696-.8 2.426-1.223 2.207-4.383 2.219-5.653.035-.934-1.613-.902-3.312-.086-4.965.582-1.18 1.621-1.757 2.926-1.738 1.332.016 2.387.625 2.93 1.86.32.726.449 1.53.683 2.382" style="stroke:none;fill-rule:nonzero;fill:#e01d25;fill-opacity:1"/></g><g clip-path="url(#i)"><path d="M164.723 35.594v2.535h3.945v.902h-3.938v2.797h4.336c.036.313.059.543.094.852h-5.344v-7.918h5.114c.011.25.023.488.043.832z" style="stroke:none;fill-rule:nonzero;fill:#e01d25;fill-opacity:1"/></g><g clip-path="url(#j)"><path d="M133.371 35.879c-.059.004-.113.012-.172.02-.367 1.148-.734 2.3-1.129 3.523h2.473zm3.383 6.832h-1.035l-.844-2.332h-3.117c-.254.734-.512 1.492-.793 2.305h-.957c.937-2.704 1.847-5.325 2.758-7.957h1.05c.961 2.617 1.93 5.246 2.938 7.984" style="stroke:none;fill-rule:nonzero;fill:#e01d25;fill-opacity:1"/></g><g clip-path="url(#k)"><path d="M85.137 39.445c-.43-1.28-.82-2.445-1.278-3.8-.441 1.382-.82 2.554-1.218 3.8zm-1.801-4.715h1.059l2.933 7.97h-1.043c-.281-.778-.558-1.555-.844-2.345H82.34l-.797 2.344h-.961c.934-2.695 1.836-5.316 2.754-7.969" style="stroke:none;fill-rule:nonzero;fill:#e01d25;fill-opacity:1"/></g><g clip-path="url(#l)"><path d="M53.2 35.621c-.446 1.379-.821 2.55-1.223 3.805h2.472c-.406-1.235-.793-2.406-1.25-3.805m3.464 7.094h-1.043l-.406-1.145c-.14-.394-.281-.785-.445-1.25h-3.09c-.282.825-.54 1.582-.809 2.38h-.957l2.758-7.973h1.05c.965 2.617 1.934 5.25 2.942 7.988" style="stroke:none;fill-rule:nonzero;fill:#e01d25;fill-opacity:1"/></g><g clip-path="url(#m)"><path d="M79.93 36.875c-.285.078-.524.14-.809.215-.394-.887-.879-1.64-1.992-1.63-1.05.009-1.832.505-2.184 1.493-.39 1.086-.402 2.192-.082 3.293.32 1.094 1.082 1.727 2.075 1.777.94.047 1.664-.496 2.113-1.586.054-.124.101-.253.176-.44l.789.226c-.223 1.457-1.102 2.418-2.36 2.629-1.5.25-2.785-.356-3.41-1.676-.71-1.512-.766-3.078-.137-4.625a3.18 3.18 0 0 1 3.196-1.98c1.347.097 2.191.816 2.625 2.304" style="stroke:none;fill-rule:nonzero;fill:#e01d25;fill-opacity:1"/></g><g clip-path="url(#n)"><path d="M62.395 34.754v.86h-3.848v2.542h3.281v.907h-3.332v3.624h-.91v-7.933z" style="stroke:none;fill-rule:nonzero;fill:#e01d25;fill-opacity:1"/></g><g clip-path="url(#o)"><path d="M116.3 41.855h3.54c.015.301.031.532.05.833h-4.437v-7.95c.266-.011.504-.027.848-.043z" style="stroke:none;fill-rule:nonzero;fill:#e01d25;fill-opacity:1"/></g><g clip-path="url(#p)"><path d="M148.7 41.848h3.542v.847h-4.398v-7.957h.855z" style="stroke:none;fill-rule:nonzero;fill:#e01d25;fill-opacity:1"/></g><g clip-path="url(#q)"><path d="M71.328 34.738h.836v7.946h-.836z" style="stroke:none;fill-rule:nonzero;fill:#e01d25;fill-opacity:1"/></g><g clip-path="url(#r)"><path d="M137.824 34.738c.258-.011.473-.023.766-.039v7.985c-.235.015-.469.03-.766.054z" style="stroke:none;fill-rule:nonzero;fill:#e01d25;fill-opacity:1"/></g><g clip-path="url(#s)"><path d="M154.523 42.707h-.78V34.75h.78z" style="stroke:none;fill-rule:nonzero;fill:#e01d25;fill-opacity:1"/></g><path d="M114.879 29.656c-.399.309-.633.492-.918.715l.363 1.41-1.215-.84c-.43.274-.84.532-1.382.875l.464-1.64c-.175-.098-.421-.227-.664-.356.035-.05.075-.101.11-.148.234-.031.472-.067.746-.102l.644-1.925c.254.746.453 1.32.657 1.914.355.027.683.054 1.195.097" style="stroke:none;fill-rule:nonzero;fill:#e01d25;fill-opacity:1"/><path d="M51.125 13.953c-.203.285-.531.36-.828.473-2.184.851-4.371 1.691-6.555 2.539-3.355 1.297-6.71 2.59-10.066 3.89-3.707 1.434-7.406 2.872-11.11 4.305-2.117.82-4.23 1.64-6.351 2.438-.844.32-1.715.539-2.63.53-1.042-.01-1.894-.46-2.62-1.163-.98-.95-1.942-1.918-2.902-2.89-.153-.157-.266-.16-.446-.06-.433.25-.879.47-1.316.715-.145.082-.246.09-.367-.035-.102-.101-.227-.183-.372-.297l1.34-.773c1.047-.602 2.094-1.195 3.137-1.8.16-.095.274-.09.426.015.723.504 1.457.992 2.18 1.496.968.68 2.035.805 3.168.566 1.37-.285 2.66-.832 3.964-1.32 3.887-1.45 7.766-2.902 11.649-4.355l12.629-4.735c.699-.265 1.402-.515 2.164-.55.742-.032 1.414.132 1.996.624.07.059.215.067.316.047.485-.082.961-.207 1.446-.273.43-.063.851-.027 1.148.363z" style="stroke:none;fill-rule:nonzero;fill:#e11d25;fill-opacity:1"/><g clip-path="url(#t)"><path d="M0 19.996c.02-.113.05-.226.059-.344a20.5 20.5 0 0 1 2.132-7.965c2.215-4.437 5.575-7.714 10.07-9.812A19.9 19.9 0 0 1 17.665.25a20.3 20.3 0 0 1 6.094-.031c5.176.761 9.457 3.16 12.879 7.101 1.277 1.47 2.304 3.11 3.125 4.875.02.047.035.094.066.168-.156.075-.308.149-.469.219-.148.07-.3.133-.476.211-.172-.348-.34-.688-.516-1.023-1.637-3.125-3.93-5.649-6.89-7.567-2.258-1.465-4.711-2.433-7.364-2.855-5.148-.82-9.93.187-14.261 3.109-3.575 2.406-6.086 5.672-7.579 9.707a19.4 19.4 0 0 0-1.18 7.89c.31 5.536 2.509 10.192 6.595 13.938 2.25 2.063 4.867 3.496 7.8 4.332 2.282.649 4.602.871 6.965.676 3.813-.316 7.246-1.633 10.285-3.95 3.117-2.37 5.348-5.413 6.696-9.093a19.3 19.3 0 0 0 1.183-6.145c.008-.19.059-.289.274-.269.214.023.433.02.648.027.04.004.078.02.148.035-.015.38-.027.762-.054 1.137a21.1 21.1 0 0 1-1.738 6.91 20.8 20.8 0 0 1-4.305 6.313 20.7 20.7 0 0 1-6.871 4.613 20.6 20.6 0 0 1-5.383 1.41q-2.78.34-5.547-.078a20.4 20.4 0 0 1-6.687-2.219c-3.598-1.945-6.399-4.707-8.407-8.265C1.332 29.004.5 26.406.16 23.652c-.05-.414-.07-.828-.105-1.242-.008-.09-.035-.18-.055-.27z" style="stroke:none;fill-rule:nonzero;fill:#e11d25;fill-opacity:1"/></g></svg>