<?xml version="1.0" encoding="UTF-8"?>
<svg xmlns="http://www.w3.org/2000/svg" xmlns:xlink="http://www.w3.org/1999/xlink" width="176pt" height="42.93pt" viewBox="0 0 176 42.93" version="1.1">
<defs>
<clipPath id="clip1">
  <path d="M 170 34 L 176 34 L 176 42.929688 L 170 42.929688 Z M 170 34 "/>
</clipPath>
<clipPath id="clip2">
  <path d="M 89 34 L 100 34 L 100 42.929688 L 89 42.929688 Z M 89 34 "/>
</clipPath>
<clipPath id="clip3">
  <path d="M 63 34 L 71 34 L 71 42.929688 L 63 42.929688 Z M 63 34 "/>
</clipPath>
<clipPath id="clip4">
  <path d="M 156 34 L 163 34 L 163 42.929688 L 156 42.929688 Z M 156 34 "/>
</clipPath>
<clipPath id="clip5">
  <path d="M 121 34 L 128 34 L 128 42.929688 L 121 42.929688 Z M 121 34 "/>
</clipPath>
<clipPath id="clip6">
  <path d="M 108 34 L 115 34 L 115 42.929688 L 108 42.929688 Z M 108 34 "/>
</clipPath>
<clipPath id="clip7">
  <path d="M 140 34 L 147 34 L 147 42.929688 L 140 42.929688 Z M 140 34 "/>
</clipPath>
<clipPath id="clip8">
  <path d="M 99 34 L 107 34 L 107 42.929688 L 99 42.929688 Z M 99 34 "/>
</clipPath>
<clipPath id="clip9">
  <path d="M 163 34 L 170 34 L 170 42.929688 L 163 42.929688 Z M 163 34 "/>
</clipPath>
<clipPath id="clip10">
  <path d="M 130 34 L 137 34 L 137 42.929688 L 130 42.929688 Z M 130 34 "/>
</clipPath>
<clipPath id="clip11">
  <path d="M 80 34 L 88 34 L 88 42.929688 L 80 42.929688 Z M 80 34 "/>
</clipPath>
<clipPath id="clip12">
  <path d="M 49 34 L 57 34 L 57 42.929688 L 49 42.929688 Z M 49 34 "/>
</clipPath>
<clipPath id="clip13">
  <path d="M 73 34 L 81 34 L 81 42.929688 L 73 42.929688 Z M 73 34 "/>
</clipPath>
<clipPath id="clip14">
  <path d="M 57 34 L 63 34 L 63 42.929688 L 57 42.929688 Z M 57 34 "/>
</clipPath>
<clipPath id="clip15">
  <path d="M 115 34 L 120 34 L 120 42.929688 L 115 42.929688 Z M 115 34 "/>
</clipPath>
<clipPath id="clip16">
  <path d="M 147 34 L 153 34 L 153 42.929688 L 147 42.929688 Z M 147 34 "/>
</clipPath>
<clipPath id="clip17">
  <path d="M 71 34 L 73 34 L 73 42.929688 L 71 42.929688 Z M 71 34 "/>
</clipPath>
<clipPath id="clip18">
  <path d="M 137 34 L 139 34 L 139 42.929688 L 137 42.929688 Z M 137 34 "/>
</clipPath>
<clipPath id="clip19">
  <path d="M 153 34 L 155 34 L 155 42.929688 L 153 42.929688 Z M 153 34 "/>
</clipPath>
<clipPath id="clip20">
  <path d="M 0 0 L 42 0 L 42 42.929688 L 0 42.929688 Z M 0 0 "/>
</clipPath>
</defs>
<g id="surface1">
<g clip-path="url(#clip1)" clip-rule="nonzero">
<path style=" stroke:none;fill-rule:nonzero;fill:rgb(87.825012%,11.503601%,14.492798%);fill-opacity:1;" d="M 176 41.199219 C 174.878906 42.8125 173.707031 43.257812 172.027344 42.703125 C 170.929688 42.339844 170.339844 41.523438 170.304688 40.25 C 170.527344 40.21875 170.761719 40.183594 170.980469 40.152344 C 171.664062 41.734375 172.691406 42.292969 174.054688 41.867188 C 174.675781 41.671875 175.171875 41.242188 175.066406 40.613281 C 174.996094 40.179688 174.585938 39.667969 174.1875 39.457031 C 173.535156 39.109375 172.761719 38.992188 172.050781 38.742188 C 170.984375 38.375 170.429688 37.585938 170.507812 36.621094 C 170.585938 35.59375 171.261719 34.878906 172.363281 34.644531 C 174.179688 34.261719 175.492188 35.101562 175.742188 36.890625 C 175.492188 36.933594 175.238281 36.976562 174.996094 37.015625 C 174.417969 35.65625 173.683594 35.242188 172.457031 35.542969 C 171.898438 35.679688 171.480469 35.976562 171.425781 36.601562 C 171.367188 37.238281 171.738281 37.582031 172.296875 37.761719 C 172.773438 37.917969 173.253906 38.066406 173.742188 38.179688 C 174.738281 38.417969 175.546875 38.894531 176 39.859375 C 176 40.304688 176 40.75 176 41.199219 "/>
</g>
<path style=" stroke:none;fill-rule:nonzero;fill:rgb(87.825012%,11.503601%,14.492798%);fill-opacity:1;" d="M 122.386719 26.617188 C 120.691406 26.617188 119.085938 26.617188 117.402344 26.617188 C 116.199219 20.597656 115 14.609375 113.785156 8.554688 C 113.546875 8.53125 113.3125 8.507812 112.996094 8.476562 C 111.804688 14.546875 110.617188 20.558594 109.429688 26.613281 C 107.648438 26.613281 105.925781 26.613281 104.074219 26.613281 C 102.566406 18.171875 101.054688 9.722656 99.53125 1.203125 C 100.964844 1.203125 102.316406 1.203125 103.800781 1.203125 C 104.863281 8.261719 105.933594 15.355469 107 22.445312 C 107.066406 22.449219 107.136719 22.453125 107.203125 22.457031 C 108.671875 15.375 110.136719 8.292969 111.609375 1.183594 C 112.804688 1.183594 113.9375 1.183594 115.160156 1.183594 C 116.6875 8 118.21875 14.8125 119.746094 21.625 C 119.816406 21.625 119.886719 21.621094 119.957031 21.621094 C 121.121094 14.824219 122.285156 8.027344 123.457031 1.191406 C 124.652344 1.191406 125.78125 1.191406 126.988281 1.191406 C 125.449219 9.695312 123.921875 18.144531 122.386719 26.617188 "/>
<path style=" stroke:none;fill-rule:nonzero;fill:rgb(87.825012%,11.503601%,14.492798%);fill-opacity:1;" d="M 135.90625 4.417969 C 135.828125 4.410156 135.753906 4.402344 135.675781 4.394531 C 134.648438 8.359375 133.621094 12.324219 132.601562 16.28125 C 134.726562 16.28125 136.765625 16.28125 138.90625 16.28125 C 137.882812 12.234375 136.894531 8.328125 135.90625 4.417969 Z M 139.683594 19.375 C 137.046875 19.375 134.484375 19.375 131.808594 19.375 C 131.1875 21.753906 130.554688 24.171875 129.914062 26.617188 C 128.613281 26.617188 127.367188 26.617188 126.019531 26.617188 C 128.566406 18.105469 131.09375 9.664062 133.632812 1.1875 C 135.183594 1.1875 136.714844 1.1875 138.371094 1.1875 C 140.789062 9.605469 143.222656 18.070312 145.675781 26.609375 C 144.257812 26.609375 142.929688 26.609375 141.53125 26.609375 C 140.925781 24.230469 140.320312 21.859375 139.683594 19.375 "/>
<path style=" stroke:none;fill-rule:nonzero;fill:rgb(87.825012%,11.503601%,14.492798%);fill-opacity:1;" d="M 93.253906 16.324219 C 92.210938 12.210938 91.207031 8.265625 90.207031 4.324219 C 90.144531 4.328125 90.082031 4.335938 90.015625 4.339844 C 88.988281 8.320312 87.960938 12.300781 86.921875 16.324219 C 89.0625 16.324219 91.089844 16.324219 93.253906 16.324219 Z M 84.25 26.617188 C 82.90625 26.617188 81.6875 26.617188 80.351562 26.617188 C 82.898438 18.109375 85.421875 9.671875 87.957031 1.195312 C 89.542969 1.195312 91.09375 1.195312 92.707031 1.195312 C 95.132812 9.636719 97.554688 18.078125 100.003906 26.605469 C 98.582031 26.605469 97.257812 26.605469 95.863281 26.605469 C 95.257812 24.226562 94.648438 21.855469 94.023438 19.398438 C 91.414062 19.398438 88.832031 19.398438 86.132812 19.398438 C 85.519531 21.75 84.886719 24.167969 84.25 26.617188 "/>
<g clip-path="url(#clip2)" clip-rule="nonzero">
<path style=" stroke:none;fill-rule:nonzero;fill:rgb(87.825012%,11.503601%,14.492798%);fill-opacity:1;" d="M 89.796875 34.742188 C 90.160156 34.722656 90.402344 34.710938 90.738281 34.695312 C 91.195312 36.886719 91.644531 39.050781 92.09375 41.21875 C 92.152344 41.226562 92.203125 41.230469 92.257812 41.238281 C 92.808594 39.082031 93.355469 36.921875 93.914062 34.738281 C 94.292969 34.738281 94.617188 34.738281 95.066406 34.738281 C 95.59375 36.863281 96.128906 39.019531 96.726562 41.4375 C 97.257812 39.0625 97.734375 36.914062 98.21875 34.738281 C 98.511719 34.738281 98.75 34.738281 99.128906 34.738281 C 98.472656 37.410156 97.832031 40.019531 97.175781 42.691406 C 96.894531 42.714844 96.628906 42.734375 96.257812 42.761719 C 95.683594 40.476562 95.113281 38.222656 94.546875 35.964844 C 94.492188 35.960938 94.4375 35.960938 94.386719 35.957031 C 93.820312 38.199219 93.257812 40.441406 92.683594 42.707031 C 92.347656 42.707031 92.078125 42.707031 91.695312 42.707031 C 91.074219 40.101562 90.453125 37.484375 89.796875 34.742188 "/>
</g>
<g clip-path="url(#clip3)" clip-rule="nonzero">
<path style=" stroke:none;fill-rule:nonzero;fill:rgb(87.825012%,11.503601%,14.492798%);fill-opacity:1;" d="M 64.738281 35.601562 C 64.738281 36.519531 64.738281 37.347656 64.738281 38.199219 C 65.691406 38.199219 66.605469 38.261719 67.507812 38.183594 C 68.257812 38.117188 68.601562 37.566406 68.585938 36.832031 C 68.566406 36.109375 68.15625 35.664062 67.457031 35.617188 C 66.578125 35.558594 65.691406 35.601562 64.738281 35.601562 Z M 64.71875 42.707031 C 64.359375 42.707031 64.121094 42.707031 63.8125 42.707031 C 63.8125 40.042969 63.8125 37.410156 63.8125 34.726562 C 65.105469 34.726562 66.355469 34.667969 67.601562 34.742188 C 68.769531 34.816406 69.386719 35.441406 69.535156 36.472656 C 69.703125 37.644531 69.222656 38.472656 68.117188 38.917969 C 67.988281 38.96875 67.859375 39.019531 67.820312 39.035156 C 68.574219 40.203125 69.332031 41.375 70.179688 42.683594 C 69.675781 42.683594 69.363281 42.683594 68.960938 42.683594 C 68.597656 42.070312 68.160156 41.421875 67.816406 40.726562 C 67.195312 39.457031 66.265625 38.867188 64.71875 39.277344 C 64.71875 40.363281 64.71875 41.519531 64.71875 42.707031 "/>
</g>
<g clip-path="url(#clip4)" clip-rule="nonzero">
<path style=" stroke:none;fill-rule:nonzero;fill:rgb(87.825012%,11.503601%,14.492798%);fill-opacity:1;" d="M 157.238281 42.707031 C 156.894531 42.707031 156.679688 42.707031 156.394531 42.707031 C 156.394531 40.058594 156.394531 37.449219 156.394531 34.742188 C 156.6875 34.726562 156.976562 34.710938 157.285156 34.695312 C 158.519531 36.730469 159.730469 38.726562 160.941406 40.722656 C 161.003906 40.714844 161.0625 40.710938 161.121094 40.703125 C 161.121094 38.726562 161.121094 36.75 161.121094 34.742188 C 161.496094 34.742188 161.734375 34.742188 162.019531 34.742188 C 162.019531 37.398438 162.019531 40.011719 162.019531 42.6875 C 161.703125 42.6875 161.414062 42.6875 161.054688 42.6875 C 159.851562 40.703125 158.632812 38.6875 157.410156 36.671875 C 157.351562 36.6875 157.296875 36.707031 157.238281 36.722656 C 157.238281 38.683594 157.238281 40.648438 157.238281 42.707031 "/>
</g>
<g clip-path="url(#clip5)" clip-rule="nonzero">
<path style=" stroke:none;fill-rule:nonzero;fill:rgb(87.825012%,11.503601%,14.492798%);fill-opacity:1;" d="M 122.078125 41.902344 C 123.40625 41.695312 124.898438 42.34375 125.664062 40.882812 C 126.429688 39.429688 126.492188 37.824219 125.558594 36.414062 C 124.695312 35.117188 123.300781 35.757812 122.078125 35.644531 C 122.078125 37.746094 122.078125 39.742188 122.078125 41.902344 Z M 121.160156 42.710938 C 121.160156 40 121.160156 37.386719 121.160156 34.738281 C 122.269531 34.738281 123.328125 34.699219 124.378906 34.746094 C 125.566406 34.800781 126.351562 35.484375 126.746094 36.574219 C 127.296875 38.074219 127.28125 39.589844 126.652344 41.066406 C 126.222656 42.078125 125.433594 42.660156 124.324219 42.703125 C 123.296875 42.738281 122.265625 42.710938 121.160156 42.710938 "/>
</g>
<path style=" stroke:none;fill-rule:nonzero;fill:rgb(87.825012%,11.503601%,14.492798%);fill-opacity:1;" d="M 77.671875 30.582031 C 77.929688 30.285156 78.03125 30.09375 78.195312 30.003906 C 78.324219 29.933594 78.519531 29.984375 78.6875 29.984375 C 88.597656 29.984375 98.503906 29.984375 108.414062 29.988281 C 108.660156 29.988281 108.90625 30.011719 109.1875 30.023438 C 109.1875 30.222656 109.1875 30.375 109.1875 30.582031 C 98.773438 30.582031 88.375 30.582031 77.671875 30.582031 "/>
<g clip-path="url(#clip6)" clip-rule="nonzero">
<path style=" stroke:none;fill-rule:nonzero;fill:rgb(87.825012%,11.503601%,14.492798%);fill-opacity:1;" d="M 109.023438 38.3125 C 110.035156 38.265625 111.007812 38.285156 111.953125 38.152344 C 112.609375 38.058594 112.90625 37.511719 112.886719 36.847656 C 112.867188 36.21875 112.566406 35.710938 111.933594 35.660156 C 110.980469 35.578125 110.015625 35.636719 109.023438 35.636719 C 109.023438 36.511719 109.023438 37.335938 109.023438 38.3125 Z M 114.496094 42.710938 C 113.929688 42.710938 113.628906 42.710938 113.277344 42.710938 C 112.871094 42.027344 112.472656 41.328125 112.054688 40.640625 C 111.148438 39.152344 110.921875 39.046875 109.015625 39.234375 C 109.015625 40.347656 109.015625 41.476562 109.015625 42.664062 C 108.683594 42.695312 108.449219 42.71875 108.140625 42.75 C 108.140625 40.054688 108.140625 37.425781 108.140625 34.757812 C 109.492188 34.757812 110.800781 34.691406 112.097656 34.777344 C 113.140625 34.847656 113.699219 35.503906 113.824219 36.507812 C 113.964844 37.621094 113.550781 38.429688 112.621094 38.84375 C 112.425781 38.929688 112.226562 39 112.125 39.039062 C 112.890625 40.222656 113.636719 41.378906 114.496094 42.710938 "/>
</g>
<g clip-path="url(#clip7)" clip-rule="nonzero">
<path style=" stroke:none;fill-rule:nonzero;fill:rgb(87.825012%,11.503601%,14.492798%);fill-opacity:1;" d="M 141.429688 35.613281 C 141.429688 36.484375 141.429688 37.328125 141.429688 38.3125 C 142.421875 38.265625 143.363281 38.28125 144.289062 38.167969 C 144.949219 38.082031 145.285156 37.558594 145.28125 36.90625 C 145.28125 36.214844 144.941406 35.683594 144.21875 35.628906 C 143.3125 35.566406 142.398438 35.613281 141.429688 35.613281 Z M 140.511719 34.746094 C 141.855469 34.746094 143.136719 34.675781 144.40625 34.765625 C 145.558594 34.847656 146.082031 35.464844 146.226562 36.597656 C 146.363281 37.675781 145.882812 38.480469 144.847656 38.902344 C 144.699219 38.964844 144.554688 39.023438 144.40625 39.085938 C 144.773438 39.539062 145.160156 39.941406 145.460938 40.402344 C 145.914062 41.101562 146.304688 41.839844 146.804688 42.707031 C 146.371094 42.722656 146.0625 42.738281 145.695312 42.753906 C 145.25 42.007812 144.820312 41.261719 144.367188 40.53125 C 143.507812 39.144531 143.136719 38.984375 141.402344 39.269531 C 141.402344 40.367188 141.402344 41.476562 141.402344 42.679688 C 141.082031 42.703125 140.824219 42.722656 140.511719 42.746094 C 140.511719 40.0625 140.511719 37.449219 140.511719 34.746094 "/>
</g>
<path style=" stroke:none;fill-rule:nonzero;fill:rgb(87.825012%,11.503601%,14.492798%);fill-opacity:1;" d="M 148.121094 30.039062 C 148.132812 30.214844 148.140625 30.371094 148.152344 30.582031 C 137.777344 30.582031 127.429688 30.582031 117.03125 30.582031 C 117.019531 30.40625 117.015625 30.25 117.003906 30.039062 C 127.382812 30.039062 137.726562 30.039062 148.121094 30.039062 "/>
<g clip-path="url(#clip8)" clip-rule="nonzero">
<path style=" stroke:none;fill-rule:nonzero;fill:rgb(87.825012%,11.503601%,14.492798%);fill-opacity:1;" d="M 105.921875 38.667969 C 105.707031 37.984375 105.59375 37.214844 105.238281 36.582031 C 104.367188 35.042969 102.054688 35.082031 101.234375 36.644531 C 100.542969 37.976562 100.515625 39.394531 101.207031 40.75 C 101.628906 41.585938 102.371094 42.035156 103.316406 42.019531 C 104.261719 42 105.003906 41.542969 105.375 40.679688 C 105.632812 40.078125 105.730469 39.40625 105.921875 38.667969 Z M 106.910156 38.816406 C 106.648438 39.632812 106.515625 40.511719 106.109375 41.242188 C 104.886719 43.449219 101.726562 43.460938 100.457031 41.277344 C 99.523438 39.664062 99.554688 37.964844 100.371094 36.3125 C 100.953125 35.132812 101.992188 34.554688 103.296875 34.574219 C 104.628906 34.589844 105.683594 35.199219 106.226562 36.433594 C 106.546875 37.160156 106.675781 37.964844 106.910156 38.816406 "/>
</g>
<g clip-path="url(#clip9)" clip-rule="nonzero">
<path style=" stroke:none;fill-rule:nonzero;fill:rgb(87.825012%,11.503601%,14.492798%);fill-opacity:1;" d="M 164.722656 35.59375 C 164.722656 36.464844 164.722656 37.234375 164.722656 38.128906 C 166.042969 38.128906 167.335938 38.128906 168.667969 38.128906 C 168.667969 38.484375 168.667969 38.71875 168.667969 39.03125 C 167.34375 39.03125 166.070312 39.03125 164.730469 39.03125 C 164.730469 39.988281 164.730469 40.863281 164.730469 41.828125 C 166.183594 41.828125 167.59375 41.828125 169.066406 41.828125 C 169.101562 42.140625 169.125 42.371094 169.160156 42.679688 C 167.355469 42.679688 165.613281 42.679688 163.816406 42.679688 C 163.816406 40.050781 163.816406 37.4375 163.816406 34.761719 C 165.496094 34.761719 167.183594 34.761719 168.929688 34.761719 C 168.941406 35.011719 168.953125 35.25 168.972656 35.59375 C 167.535156 35.59375 166.15625 35.59375 164.722656 35.59375 "/>
</g>
<g clip-path="url(#clip10)" clip-rule="nonzero">
<path style=" stroke:none;fill-rule:nonzero;fill:rgb(87.825012%,11.503601%,14.492798%);fill-opacity:1;" d="M 133.371094 35.878906 C 133.3125 35.882812 133.257812 35.890625 133.199219 35.898438 C 132.832031 37.046875 132.464844 38.199219 132.070312 39.421875 C 132.917969 39.421875 133.671875 39.421875 134.542969 39.421875 C 134.132812 38.179688 133.75 37.027344 133.371094 35.878906 Z M 136.753906 42.710938 C 136.3125 42.710938 136.042969 42.710938 135.71875 42.710938 C 135.441406 41.941406 135.167969 41.1875 134.875 40.378906 C 133.863281 40.378906 132.84375 40.378906 131.757812 40.378906 C 131.503906 41.113281 131.246094 41.871094 130.964844 42.683594 C 130.679688 42.683594 130.394531 42.683594 130.007812 42.683594 C 130.945312 39.980469 131.855469 37.359375 132.765625 34.726562 C 133.132812 34.726562 133.429688 34.726562 133.816406 34.726562 C 134.777344 37.34375 135.746094 39.972656 136.753906 42.710938 "/>
</g>
<g clip-path="url(#clip11)" clip-rule="nonzero">
<path style=" stroke:none;fill-rule:nonzero;fill:rgb(87.825012%,11.503601%,14.492798%);fill-opacity:1;" d="M 85.136719 39.445312 C 84.707031 38.164062 84.316406 37 83.859375 35.644531 C 83.417969 37.027344 83.039062 38.199219 82.640625 39.445312 C 83.496094 39.445312 84.238281 39.445312 85.136719 39.445312 Z M 83.335938 34.730469 C 83.746094 34.730469 84.042969 34.730469 84.394531 34.730469 C 85.367188 37.371094 86.332031 39.996094 87.328125 42.699219 C 86.933594 42.699219 86.640625 42.699219 86.285156 42.699219 C 86.003906 41.921875 85.726562 41.144531 85.441406 40.355469 C 84.394531 40.355469 83.402344 40.355469 82.339844 40.355469 C 82.074219 41.132812 81.808594 41.914062 81.542969 42.699219 C 81.226562 42.699219 80.960938 42.699219 80.582031 42.699219 C 81.515625 40.003906 82.417969 37.382812 83.335938 34.730469 "/>
</g>
<g clip-path="url(#clip12)" clip-rule="nonzero">
<path style=" stroke:none;fill-rule:nonzero;fill:rgb(87.825012%,11.503601%,14.492798%);fill-opacity:1;" d="M 53.199219 35.621094 C 52.753906 37 52.378906 38.171875 51.976562 39.425781 C 52.824219 39.425781 53.578125 39.425781 54.449219 39.425781 C 54.042969 38.191406 53.65625 37.019531 53.199219 35.621094 Z M 56.664062 42.714844 C 56.253906 42.714844 55.980469 42.714844 55.621094 42.714844 C 55.488281 42.339844 55.351562 41.953125 55.214844 41.570312 C 55.074219 41.175781 54.933594 40.785156 54.769531 40.320312 C 54.238281 40.320312 53.714844 40.320312 53.1875 40.320312 C 52.691406 40.320312 52.195312 40.320312 51.679688 40.320312 C 51.398438 41.144531 51.140625 41.902344 50.871094 42.699219 C 50.582031 42.699219 50.316406 42.699219 49.914062 42.699219 C 50.847656 40 51.757812 37.367188 52.671875 34.726562 C 53.039062 34.726562 53.339844 34.726562 53.722656 34.726562 C 54.6875 37.34375 55.65625 39.976562 56.664062 42.714844 "/>
</g>
<g clip-path="url(#clip13)" clip-rule="nonzero">
<path style=" stroke:none;fill-rule:nonzero;fill:rgb(87.825012%,11.503601%,14.492798%);fill-opacity:1;" d="M 79.929688 36.875 C 79.644531 36.953125 79.40625 37.015625 79.121094 37.089844 C 78.726562 36.203125 78.242188 35.449219 77.128906 35.460938 C 76.078125 35.46875 75.296875 35.964844 74.945312 36.953125 C 74.554688 38.039062 74.542969 39.144531 74.863281 40.246094 C 75.183594 41.339844 75.945312 41.972656 76.9375 42.023438 C 77.878906 42.070312 78.601562 41.527344 79.050781 40.4375 C 79.105469 40.3125 79.152344 40.183594 79.226562 39.996094 C 79.511719 40.078125 79.765625 40.152344 80.015625 40.222656 C 79.792969 41.679688 78.914062 42.640625 77.65625 42.851562 C 76.15625 43.101562 74.871094 42.496094 74.246094 41.175781 C 73.535156 39.664062 73.480469 38.097656 74.109375 36.550781 C 74.640625 35.234375 75.941406 34.472656 77.304688 34.570312 C 78.652344 34.667969 79.496094 35.386719 79.929688 36.875 "/>
</g>
<g clip-path="url(#clip14)" clip-rule="nonzero">
<path style=" stroke:none;fill-rule:nonzero;fill:rgb(87.825012%,11.503601%,14.492798%);fill-opacity:1;" d="M 62.394531 34.753906 C 62.394531 35.027344 62.394531 35.28125 62.394531 35.613281 C 61.097656 35.613281 59.851562 35.613281 58.546875 35.613281 C 58.546875 36.472656 58.546875 37.261719 58.546875 38.15625 C 59.628906 38.15625 60.703125 38.15625 61.828125 38.15625 C 61.828125 38.488281 61.828125 38.71875 61.828125 39.0625 C 60.734375 39.0625 59.660156 39.0625 58.496094 39.0625 C 58.496094 40.324219 58.496094 41.480469 58.496094 42.6875 C 58.140625 42.6875 57.882812 42.6875 57.585938 42.6875 C 57.585938 40.03125 57.585938 37.421875 57.585938 34.753906 C 59.195312 34.753906 60.761719 34.753906 62.394531 34.753906 "/>
</g>
<g clip-path="url(#clip15)" clip-rule="nonzero">
<path style=" stroke:none;fill-rule:nonzero;fill:rgb(87.825012%,11.503601%,14.492798%);fill-opacity:1;" d="M 116.300781 41.855469 C 117.5625 41.855469 118.667969 41.855469 119.839844 41.855469 C 119.855469 42.15625 119.871094 42.386719 119.890625 42.6875 C 118.390625 42.6875 116.957031 42.6875 115.453125 42.6875 C 115.453125 40.046875 115.453125 37.421875 115.453125 34.738281 C 115.71875 34.726562 115.957031 34.710938 116.300781 34.695312 C 116.300781 37.070312 116.300781 39.394531 116.300781 41.855469 "/>
</g>
<g clip-path="url(#clip16)" clip-rule="nonzero">
<path style=" stroke:none;fill-rule:nonzero;fill:rgb(87.825012%,11.503601%,14.492798%);fill-opacity:1;" d="M 148.699219 41.847656 C 149.933594 41.847656 151.0625 41.847656 152.242188 41.847656 C 152.242188 42.171875 152.242188 42.40625 152.242188 42.695312 C 150.777344 42.695312 149.347656 42.695312 147.84375 42.695312 C 147.84375 40.03125 147.84375 37.40625 147.84375 34.738281 C 148.125 34.738281 148.359375 34.738281 148.699219 34.738281 C 148.699219 37.101562 148.699219 39.429688 148.699219 41.847656 "/>
</g>
<g clip-path="url(#clip17)" clip-rule="nonzero">
<path style=" stroke:none;fill-rule:nonzero;fill:rgb(87.825012%,11.503601%,14.492798%);fill-opacity:1;" d="M 71.328125 34.738281 C 71.613281 34.738281 71.855469 34.738281 72.164062 34.738281 C 72.164062 37.367188 72.164062 39.996094 72.164062 42.683594 C 71.898438 42.683594 71.640625 42.683594 71.328125 42.683594 C 71.328125 40.039062 71.328125 37.40625 71.328125 34.738281 "/>
</g>
<g clip-path="url(#clip18)" clip-rule="nonzero">
<path style=" stroke:none;fill-rule:nonzero;fill:rgb(87.825012%,11.503601%,14.492798%);fill-opacity:1;" d="M 137.824219 34.738281 C 138.082031 34.726562 138.296875 34.714844 138.589844 34.699219 C 138.589844 37.359375 138.589844 39.988281 138.589844 42.683594 C 138.355469 42.699219 138.121094 42.714844 137.824219 42.738281 C 137.824219 40.0625 137.824219 37.453125 137.824219 34.738281 "/>
</g>
<g clip-path="url(#clip19)" clip-rule="nonzero">
<path style=" stroke:none;fill-rule:nonzero;fill:rgb(87.825012%,11.503601%,14.492798%);fill-opacity:1;" d="M 154.523438 42.707031 C 154.242188 42.707031 154.027344 42.707031 153.742188 42.707031 C 153.742188 40.058594 153.742188 37.429688 153.742188 34.75 C 154.003906 34.75 154.238281 34.75 154.523438 34.75 C 154.523438 37.386719 154.523438 39.996094 154.523438 42.707031 "/>
</g>
<path style=" stroke:none;fill-rule:nonzero;fill:rgb(87.825012%,11.503601%,14.492798%);fill-opacity:1;" d="M 114.878906 29.65625 C 114.480469 29.964844 114.246094 30.148438 113.960938 30.371094 C 114.0625 30.769531 114.171875 31.183594 114.324219 31.78125 C 113.828125 31.4375 113.476562 31.195312 113.109375 30.941406 C 112.679688 31.214844 112.269531 31.472656 111.726562 31.816406 C 111.894531 31.222656 112.019531 30.777344 112.191406 30.175781 C 112.015625 30.078125 111.769531 29.949219 111.527344 29.820312 C 111.5625 29.769531 111.601562 29.71875 111.636719 29.671875 C 111.871094 29.640625 112.109375 29.605469 112.382812 29.570312 C 112.578125 28.984375 112.769531 28.414062 113.027344 27.644531 C 113.28125 28.390625 113.480469 28.964844 113.683594 29.558594 C 114.039062 29.585938 114.367188 29.613281 114.878906 29.65625 "/>
<path style=" stroke:none;fill-rule:nonzero;fill:rgb(88.381958%,11.437988%,14.44397%);fill-opacity:1;" d="M 51.125 13.953125 C 50.921875 14.238281 50.59375 14.3125 50.296875 14.425781 C 48.113281 15.277344 45.925781 16.117188 43.742188 16.964844 C 40.386719 18.261719 37.03125 19.554688 33.675781 20.855469 C 29.96875 22.289062 26.269531 23.726562 22.566406 25.160156 C 20.449219 25.980469 18.335938 26.800781 16.214844 27.597656 C 15.371094 27.917969 14.5 28.136719 13.585938 28.128906 C 12.542969 28.117188 11.691406 27.667969 10.964844 26.964844 C 9.984375 26.015625 9.023438 25.046875 8.0625 24.074219 C 7.910156 23.917969 7.796875 23.914062 7.617188 24.015625 C 7.183594 24.265625 6.738281 24.484375 6.300781 24.730469 C 6.15625 24.8125 6.054688 24.820312 5.933594 24.695312 C 5.832031 24.59375 5.707031 24.511719 5.5625 24.398438 C 6.03125 24.128906 6.46875 23.875 6.902344 23.625 C 7.949219 23.023438 8.996094 22.429688 10.039062 21.824219 C 10.199219 21.730469 10.3125 21.734375 10.464844 21.839844 C 11.1875 22.34375 11.921875 22.832031 12.644531 23.335938 C 13.613281 24.015625 14.679688 24.140625 15.8125 23.902344 C 17.183594 23.617188 18.472656 23.070312 19.777344 22.582031 C 23.664062 21.132812 27.542969 19.679688 31.425781 18.226562 C 35.636719 16.648438 39.84375 15.070312 44.054688 13.492188 C 44.753906 13.226562 45.457031 12.976562 46.21875 12.941406 C 46.960938 12.910156 47.632812 13.074219 48.214844 13.566406 C 48.285156 13.625 48.429688 13.632812 48.53125 13.613281 C 49.015625 13.53125 49.492188 13.40625 49.976562 13.339844 C 50.40625 13.277344 50.828125 13.3125 51.125 13.703125 C 51.125 13.789062 51.125 13.871094 51.125 13.953125 "/>
<g clip-path="url(#clip20)" clip-rule="nonzero">
<path style=" stroke:none;fill-rule:nonzero;fill:rgb(88.381958%,11.437988%,14.44397%);fill-opacity:1;" d="M 0 19.996094 C 0.0195312 19.882812 0.0507812 19.769531 0.0585938 19.652344 C 0.234375 16.855469 0.9375 14.195312 2.191406 11.6875 C 4.40625 7.25 7.765625 3.972656 12.261719 1.875 C 13.984375 1.070312 15.792969 0.539062 17.664062 0.25 C 19.691406 -0.0625 21.726562 -0.0820312 23.757812 0.21875 C 28.933594 0.980469 33.214844 3.378906 36.636719 7.320312 C 37.914062 8.789062 38.941406 10.429688 39.761719 12.195312 C 39.78125 12.242188 39.796875 12.289062 39.828125 12.363281 C 39.671875 12.4375 39.519531 12.511719 39.359375 12.582031 C 39.210938 12.652344 39.058594 12.714844 38.882812 12.792969 C 38.710938 12.445312 38.542969 12.105469 38.367188 11.769531 C 36.730469 8.644531 34.4375 6.121094 31.476562 4.203125 C 29.21875 2.738281 26.765625 1.769531 24.113281 1.347656 C 18.964844 0.527344 14.183594 1.535156 9.851562 4.457031 C 6.277344 6.863281 3.765625 10.128906 2.273438 14.164062 C 1.332031 16.707031 0.941406 19.34375 1.09375 22.054688 C 1.402344 27.589844 3.601562 32.246094 7.6875 35.992188 C 9.9375 38.054688 12.554688 39.488281 15.488281 40.324219 C 17.769531 40.972656 20.089844 41.195312 22.453125 41 C 26.265625 40.683594 29.699219 39.367188 32.738281 37.050781 C 35.855469 34.679688 38.085938 31.636719 39.433594 27.957031 C 40.160156 25.976562 40.558594 23.925781 40.617188 21.8125 C 40.625 21.621094 40.675781 21.523438 40.890625 21.542969 C 41.105469 21.566406 41.324219 21.5625 41.539062 21.570312 C 41.578125 21.574219 41.617188 21.589844 41.6875 21.605469 C 41.671875 21.984375 41.660156 22.367188 41.632812 22.742188 C 41.441406 25.144531 40.867188 27.449219 39.894531 29.652344 C 38.847656 32.019531 37.414062 34.128906 35.589844 35.964844 C 33.609375 37.960938 31.324219 39.503906 28.71875 40.578125 C 26.988281 41.292969 25.191406 41.761719 23.335938 41.988281 C 21.484375 42.214844 19.632812 42.1875 17.789062 41.910156 C 15.433594 41.554688 13.199219 40.824219 11.101562 39.691406 C 7.503906 37.746094 4.703125 34.984375 2.695312 31.425781 C 1.332031 29.003906 0.5 26.40625 0.160156 23.652344 C 0.109375 23.238281 0.0898438 22.824219 0.0546875 22.410156 C 0.046875 22.320312 0.0195312 22.230469 0 22.140625 C 0 21.425781 0 20.710938 0 19.996094 "/>
</g>
</g>
</svg>
