<?xml version="1.0" encoding="UTF-8"?>
<svg xmlns="http://www.w3.org/2000/svg" xmlns:xlink="http://www.w3.org/1999/xlink" width="141.33pt" height="59pt" viewBox="0 0 141.33 59" version="1.1">
<defs>
<clipPath id="clip1">
  <path d="M 66 0 L 141.328125 0 L 141.328125 34 L 66 34 Z M 66 0 "/>
</clipPath>
</defs>
<g id="surface1">
<g clip-path="url(#clip1)" clip-rule="nonzero">
<path style=" stroke:none;fill-rule:nonzero;fill:rgb(12.04834%,39.889526%,23.484802%);fill-opacity:1;" d="M 116.53125 0 C 116.777344 0.347656 117.023438 0.703125 117.273438 1.046875 C 117.867188 1.859375 118.457031 2.671875 119.054688 3.480469 C 119.722656 4.390625 120.394531 5.296875 121.0625 6.207031 C 121.523438 6.835938 121.980469 7.464844 122.4375 8.09375 C 122.894531 8.714844 123.347656 9.332031 123.800781 9.949219 C 124.269531 10.585938 124.738281 11.222656 125.203125 11.859375 C 125.933594 12.851562 126.660156 13.84375 127.386719 14.835938 C 127.953125 15.609375 128.519531 16.386719 129.085938 17.160156 C 129.496094 17.726562 129.914062 18.289062 130.324219 18.851562 C 130.808594 19.507812 131.285156 20.164062 131.765625 20.820312 C 132.214844 21.429688 132.660156 22.039062 133.109375 22.648438 C 133.574219 23.285156 134.042969 23.921875 134.511719 24.558594 C 135.050781 25.296875 135.59375 26.03125 136.136719 26.769531 C 136.601562 27.40625 137.0625 28.046875 137.53125 28.683594 C 137.984375 29.304688 138.441406 29.921875 138.894531 30.539062 C 139.46875 31.324219 140.039062 32.105469 140.613281 32.890625 C 140.789062 33.128906 140.964844 33.363281 141.136719 33.597656 C 141.195312 33.679688 141.257812 33.761719 141.3125 33.847656 C 141.324219 33.859375 141.324219 33.882812 141.328125 33.902344 C 141.253906 33.945312 141.171875 33.925781 141.09375 33.925781 C 137.972656 33.925781 134.851562 33.925781 131.730469 33.925781 C 131.628906 33.925781 131.523438 33.921875 131.425781 33.921875 C 130.832031 33.921875 130.257812 33.820312 129.6875 33.675781 C 128.523438 33.378906 127.46875 32.851562 126.523438 32.113281 C 125.953125 31.667969 125.457031 31.140625 125.027344 30.554688 C 124.300781 29.550781 123.5625 28.550781 122.832031 27.546875 C 122.148438 26.609375 121.46875 25.664062 120.78125 24.726562 C 119.996094 23.648438 119.203125 22.578125 118.417969 21.503906 C 117.738281 20.574219 117.066406 19.640625 116.390625 18.710938 C 115.851562 17.972656 115.304688 17.238281 114.765625 16.5 C 114.269531 15.824219 113.78125 15.148438 113.289062 14.472656 C 112.558594 13.472656 111.820312 12.472656 111.089844 11.46875 C 110.40625 10.527344 109.726562 9.585938 109.042969 8.644531 C 108.328125 7.667969 107.613281 6.699219 106.898438 5.722656 C 106.398438 5.039062 105.902344 4.355469 105.40625 3.671875 C 104.886719 2.960938 104.367188 2.25 103.847656 1.539062 C 103.835938 1.519531 103.8125 1.511719 103.796875 1.496094 C 103.710938 1.484375 103.675781 1.550781 103.636719 1.601562 C 103.429688 1.882812 103.226562 2.167969 103.019531 2.449219 C 102.378906 3.324219 101.738281 4.199219 101.101562 5.074219 C 100.621094 5.730469 100.144531 6.386719 99.664062 7.042969 C 99.035156 7.898438 98.410156 8.757812 97.78125 9.613281 C 97.277344 10.304688 96.769531 10.996094 96.261719 11.6875 C 95.65625 12.515625 95.050781 13.34375 94.445312 14.175781 C 93.964844 14.832031 93.484375 15.488281 93.007812 16.144531 C 92.378906 17 91.753906 17.855469 91.125 18.710938 C 90.644531 19.367188 90.167969 20.023438 89.6875 20.679688 C 89.054688 21.546875 88.417969 22.410156 87.785156 23.273438 C 87.320312 23.910156 86.851562 24.550781 86.386719 25.1875 C 85.746094 26.0625 85.105469 26.9375 84.46875 27.8125 C 83.988281 28.46875 83.511719 29.125 83.03125 29.78125 C 82.46875 30.546875 81.910156 31.308594 81.351562 32.078125 C 80.945312 32.632812 80.539062 33.1875 80.132812 33.742188 C 80.09375 33.796875 80.046875 33.847656 80.015625 33.890625 C 79.992188 33.902344 79.980469 33.910156 79.972656 33.914062 C 79.960938 33.917969 79.949219 33.921875 79.9375 33.921875 C 75.390625 33.921875 70.84375 33.925781 66.296875 33.925781 C 66.277344 33.925781 66.253906 33.917969 66.230469 33.914062 C 66.222656 33.910156 66.214844 33.902344 66.191406 33.890625 C 66.4375 33.550781 66.679688 33.214844 66.925781 32.878906 C 67.398438 32.230469 67.875 31.585938 68.347656 30.9375 C 69.074219 29.945312 69.804688 28.957031 70.53125 27.964844 C 71.03125 27.28125 71.523438 26.59375 72.023438 25.910156 C 72.621094 25.089844 73.226562 24.273438 73.828125 23.453125 C 74.289062 22.824219 74.746094 22.195312 75.207031 21.566406 C 75.664062 20.9375 76.125 20.308594 76.585938 19.679688 C 77.085938 18.996094 77.585938 18.316406 78.085938 17.632812 C 78.699219 16.792969 79.3125 15.957031 79.925781 15.117188 C 80.398438 14.472656 80.871094 13.824219 81.34375 13.175781 C 81.976562 12.3125 82.609375 11.445312 83.246094 10.582031 C 83.710938 9.945312 84.175781 9.304688 84.644531 8.667969 C 85.28125 7.792969 85.921875 6.921875 86.5625 6.046875 C 87.035156 5.398438 87.511719 4.753906 87.980469 4.105469 C 88.386719 3.546875 88.78125 2.980469 89.269531 2.492188 C 89.546875 2.214844 89.84375 1.949219 90.164062 1.71875 C 90.964844 1.132812 91.828125 0.679688 92.78125 0.402344 C 93.179688 0.285156 93.582031 0.179688 93.996094 0.125 C 94.199219 0.101562 94.402344 0.078125 94.601562 0.0546875 C 94.628906 0.0546875 94.652344 0.0195312 94.675781 0 C 101.960938 0 109.246094 0 116.53125 0 "/>
</g>
<path style=" stroke:none;fill-rule:nonzero;fill:rgb(12.04834%,39.889526%,23.484802%);fill-opacity:1;" d="M 85.988281 0 C 86 0.0742188 85.949219 0.125 85.910156 0.179688 C 85.480469 0.789062 85.050781 1.398438 84.617188 2.003906 C 84.199219 2.589844 83.777344 3.179688 83.355469 3.765625 C 82.726562 4.644531 82.105469 5.535156 81.460938 6.402344 C 81.054688 6.949219 80.550781 7.40625 80 7.808594 C 79.34375 8.28125 78.636719 8.648438 77.878906 8.921875 C 77.421875 9.085938 76.953125 9.210938 76.476562 9.289062 C 75.917969 9.378906 75.355469 9.421875 74.792969 9.421875 C 68.289062 9.417969 61.785156 9.417969 55.28125 9.421875 C 55.148438 9.421875 55.011719 9.402344 54.863281 9.445312 C 54.855469 9.503906 54.84375 9.558594 54.84375 9.609375 C 54.839844 9.710938 54.84375 9.8125 54.84375 9.914062 C 54.84375 17.773438 54.84375 25.632812 54.84375 33.492188 C 54.84375 33.625 54.835938 33.757812 54.832031 33.871094 C 54.804688 33.898438 54.796875 33.90625 54.789062 33.914062 C 54.78125 33.917969 54.769531 33.921875 54.757812 33.921875 C 50.980469 33.921875 47.203125 33.921875 43.410156 33.921875 C 43.398438 33.867188 43.378906 33.816406 43.378906 33.761719 C 43.371094 33.660156 43.375 33.558594 43.375 33.457031 C 43.375 25.597656 43.375 17.738281 43.375 9.882812 C 43.375 9.746094 43.375 9.609375 43.375 9.460938 C 43.3125 9.445312 43.261719 9.425781 43.210938 9.421875 C 43.097656 9.414062 42.984375 9.417969 42.871094 9.417969 C 33.832031 9.417969 24.796875 9.417969 15.757812 9.417969 C 15.625 9.417969 15.488281 9.433594 15.34375 9.398438 C 15.339844 9.277344 15.332031 9.167969 15.332031 9.054688 C 15.328125 7.859375 15.332031 6.660156 15.332031 5.460938 C 15.332031 3.765625 15.332031 2.070312 15.332031 0.371094 C 15.332031 0.25 15.335938 0.125 15.339844 0 C 38.890625 0 62.441406 0 85.988281 0 "/>
<path style=" stroke:none;fill-rule:nonzero;fill:rgb(12.04834%,39.889526%,23.484802%);fill-opacity:1;" d="M 11.539062 0 C 11.53125 0.125 11.523438 0.246094 11.523438 0.371094 C 11.523438 8.65625 11.523438 16.945312 11.527344 25.230469 C 11.527344 25.683594 11.496094 26.136719 11.453125 26.582031 C 11.386719 27.199219 11.230469 27.800781 11.007812 28.378906 C 10.769531 29.003906 10.449219 29.585938 10.042969 30.121094 C 9.53125 30.792969 8.914062 31.347656 8.195312 31.792969 C 7.429688 32.269531 6.597656 32.574219 5.71875 32.761719 C 5.0625 32.90625 4.398438 33.035156 3.738281 33.167969 C 3.042969 33.3125 2.347656 33.449219 1.65625 33.589844 C 1.171875 33.691406 0.6875 33.800781 0.203125 33.90625 C 0.152344 33.914062 0.09375 33.90625 0.0273438 33.90625 C 0.015625 33.855469 0.00390625 33.8125 0.00390625 33.773438 C 0 33.667969 0.00390625 33.566406 0.00390625 33.464844 C 0.00390625 25.144531 0.00390625 16.824219 0.00390625 8.503906 C 0.00390625 8.257812 -0.0195312 8.007812 0.0585938 7.765625 C 0.0703125 7.734375 0.0625 7.699219 0.0664062 7.664062 C 0.0859375 7.027344 0.246094 6.417969 0.449219 5.816406 C 0.679688 5.117188 1.027344 4.46875 1.46875 3.878906 C 2.039062 3.121094 2.738281 2.507812 3.570312 2.042969 C 4.273438 1.652344 5.019531 1.375 5.8125 1.214844 C 6.75 1.027344 7.679688 0.820312 8.617188 0.628906 C 9.445312 0.457031 10.273438 0.296875 11.097656 0.128906 C 11.210938 0.105469 11.316406 0.078125 11.425781 0.046875 C 11.445312 0.0429688 11.457031 0.015625 11.46875 0 C 11.492188 0 11.515625 0 11.539062 0 "/>
<path style=" stroke:none;fill-rule:nonzero;fill:rgb(74.554443%,12.521362%,14.135742%);fill-opacity:1;" d="M 107.828125 21.332031 C 107.824219 21.355469 107.828125 21.382812 107.816406 21.398438 C 104.765625 25.570312 101.714844 29.742188 98.679688 33.886719 C 98.640625 33.910156 98.628906 33.917969 98.617188 33.921875 C 98.609375 33.921875 98.597656 33.925781 98.585938 33.925781 C 98.496094 33.925781 98.40625 33.929688 98.316406 33.929688 C 93.859375 33.929688 89.402344 33.929688 84.949219 33.929688 C 84.925781 33.929688 84.90625 33.917969 84.882812 33.910156 C 84.875 33.910156 84.867188 33.898438 84.847656 33.882812 C 84.949219 33.734375 85.054688 33.589844 85.160156 33.445312 C 85.9375 32.378906 86.71875 31.308594 87.496094 30.246094 C 88.105469 29.417969 88.71875 28.59375 89.324219 27.765625 C 89.894531 26.988281 90.457031 26.214844 91.023438 25.4375 C 91.292969 25.066406 91.566406 24.6875 91.851562 24.324219 C 92.195312 23.890625 92.59375 23.507812 93.023438 23.15625 C 93.582031 22.691406 94.207031 22.328125 94.863281 22.027344 C 95.453125 21.757812 96.066406 21.570312 96.695312 21.4375 C 97.238281 21.324219 97.789062 21.292969 98.34375 21.292969 C 101.421875 21.292969 104.496094 21.289062 107.570312 21.292969 C 107.65625 21.292969 107.753906 21.261719 107.828125 21.332031 "/>
<path style=" stroke:none;fill-rule:nonzero;fill:rgb(12.04834%,39.889526%,23.484802%);fill-opacity:1;" d="M 66.628906 52.105469 C 66.925781 51.527344 67.15625 50.941406 67.394531 50.363281 C 67.632812 49.789062 67.867188 49.21875 68.105469 48.644531 C 68.347656 48.0625 68.585938 47.476562 68.828125 46.894531 C 69.070312 46.3125 69.3125 45.730469 69.550781 45.144531 C 69.789062 44.574219 70.019531 43.996094 70.257812 43.425781 C 70.5 42.847656 70.738281 42.265625 71 41.628906 C 71.492188 42.84375 71.945312 44 72.402344 45.15625 C 72.859375 46.308594 73.3125 47.460938 73.773438 48.613281 C 74.234375 49.773438 74.699219 50.933594 75.15625 52.085938 C 75.25 52.105469 75.265625 52.046875 75.285156 51.996094 C 75.484375 51.507812 75.683594 51.015625 75.878906 50.523438 C 76.265625 49.5625 76.648438 48.597656 77.03125 47.636719 C 77.515625 46.429688 77.992188 45.226562 78.472656 44.023438 C 78.707031 43.4375 78.941406 42.851562 79.179688 42.269531 C 79.195312 42.226562 79.21875 42.1875 79.234375 42.160156 C 79.257812 42.148438 79.265625 42.140625 79.277344 42.136719 C 79.285156 42.132812 79.296875 42.128906 79.308594 42.128906 C 80.269531 42.128906 81.230469 42.125 82.191406 42.125 C 82.214844 42.125 82.238281 42.128906 82.257812 42.132812 C 82.269531 42.136719 82.277344 42.148438 82.289062 42.160156 C 82.277344 42.210938 82.265625 42.261719 82.246094 42.3125 C 79.972656 47.84375 77.695312 53.375 75.417969 58.910156 C 75.40625 58.9375 75.386719 58.964844 75.363281 59 C 73.894531 55.40625 72.425781 51.820312 70.957031 48.234375 C 70.953125 48.226562 70.9375 48.21875 70.929688 48.214844 C 70.917969 48.210938 70.90625 48.207031 70.886719 48.203125 C 70.378906 49.390625 69.871094 50.578125 69.367188 51.769531 C 68.859375 52.972656 68.359375 54.179688 67.84375 55.382812 C 67.335938 56.570312 66.84375 57.765625 66.332031 58.945312 C 66.296875 58.941406 66.28125 58.941406 66.277344 58.9375 C 66.257812 58.90625 66.238281 58.878906 66.226562 58.847656 C 63.972656 53.296875 61.722656 47.742188 59.472656 42.191406 C 59.46875 42.179688 59.476562 42.167969 59.484375 42.152344 C 59.511719 42.144531 59.539062 42.128906 59.570312 42.125 C 60.0625 42.105469 62.355469 42.121094 62.605469 42.148438 C 63.269531 43.800781 63.933594 45.464844 64.597656 47.125 C 65.261719 48.785156 65.925781 50.449219 66.628906 52.105469 "/>
<path style=" stroke:none;fill-rule:nonzero;fill:rgb(12.04834%,39.889526%,23.484802%);fill-opacity:1;" d="M 46.285156 49.65625 C 46.402344 49.664062 46.476562 49.667969 46.554688 49.671875 C 47.007812 49.671875 47.460938 49.675781 47.910156 49.667969 C 48.179688 49.667969 48.449219 49.660156 48.71875 49.617188 C 49.023438 49.570312 49.320312 49.503906 49.601562 49.390625 C 50.234375 49.136719 50.679688 48.691406 50.890625 48.039062 C 51.058594 47.53125 51.078125 46.996094 50.957031 46.472656 C 50.796875 45.765625 50.394531 45.234375 49.738281 44.894531 C 49.222656 44.628906 48.671875 44.539062 48.105469 44.515625 C 47.566406 44.492188 47.023438 44.511719 46.480469 44.511719 C 46.425781 44.511719 46.363281 44.5 46.308594 44.554688 C 46.304688 44.574219 46.285156 44.605469 46.285156 44.636719 C 46.285156 46.296875 46.285156 47.957031 46.285156 49.65625 Z M 50.945312 51.609375 C 51.203125 52.027344 51.507812 52.386719 51.78125 52.773438 C 52.042969 53.152344 52.320312 53.523438 52.59375 53.898438 C 52.875 54.28125 53.160156 54.65625 53.441406 55.039062 C 53.714844 55.414062 53.984375 55.789062 54.257812 56.164062 C 54.535156 56.546875 54.820312 56.925781 55.09375 57.308594 C 55.363281 57.6875 55.664062 58.039062 55.90625 58.445312 C 55.863281 58.453125 55.832031 58.46875 55.800781 58.46875 C 54.71875 58.46875 53.632812 58.46875 52.539062 58.46875 C 52.207031 58.046875 51.902344 57.613281 51.585938 57.1875 C 51.269531 56.765625 50.957031 56.335938 50.640625 55.910156 C 50.332031 55.492188 50.023438 55.074219 49.714844 54.65625 C 49.398438 54.230469 49.082031 53.804688 48.769531 53.378906 C 48.460938 52.949219 48.15625 52.515625 47.835938 52.113281 C 47.507812 52.082031 46.597656 52.082031 46.3125 52.117188 C 46.300781 52.164062 46.285156 52.21875 46.285156 52.269531 C 46.28125 52.699219 46.28125 53.128906 46.28125 53.558594 C 46.28125 55.074219 46.28125 56.585938 46.28125 58.101562 C 46.28125 58.210938 46.277344 58.324219 46.273438 58.421875 C 46.25 58.441406 46.242188 58.449219 46.234375 58.457031 C 46.222656 58.460938 46.210938 58.464844 46.203125 58.464844 C 46.109375 58.46875 46.019531 58.46875 45.929688 58.46875 C 45.09375 58.46875 44.257812 58.46875 43.445312 58.46875 C 43.367188 58.417969 43.378906 58.359375 43.375 58.300781 C 43.375 58.210938 43.375 58.121094 43.375 58.03125 C 43.375 52.875 43.375 47.722656 43.375 42.570312 C 43.375 42.433594 43.382812 42.300781 43.382812 42.152344 C 43.433594 42.140625 43.476562 42.125 43.519531 42.125 C 45.246094 42.128906 46.976562 42.128906 48.707031 42.132812 C 49.273438 42.136719 49.824219 42.253906 50.367188 42.398438 C 51.019531 42.574219 51.621094 42.84375 52.175781 43.21875 C 53.050781 43.824219 53.667969 44.617188 53.972656 45.644531 C 54.082031 46 54.164062 46.363281 54.160156 46.738281 C 54.160156 46.976562 54.160156 47.214844 54.164062 47.453125 C 54.167969 47.96875 54.035156 48.457031 53.84375 48.925781 C 53.460938 49.882812 52.796875 50.601562 51.917969 51.125 C 51.664062 51.277344 51.398438 51.398438 51.121094 51.5 C 51.0625 51.519531 51.011719 51.566406 50.945312 51.609375 "/>
<path style=" stroke:none;fill-rule:nonzero;fill:rgb(12.04834%,39.889526%,23.484802%);fill-opacity:1;" d="M 17.335938 47.46875 C 17.261719 47.59375 17.210938 47.667969 17.175781 47.746094 C 16.914062 48.308594 16.65625 48.871094 16.394531 49.433594 C 15.980469 50.320312 15.558594 51.207031 15.144531 52.09375 C 15.097656 52.183594 15.0625 52.277344 15.023438 52.371094 C 15.007812 52.410156 14.980469 52.453125 15.027344 52.492188 C 15.351562 52.535156 17.839844 52.550781 19.554688 52.519531 C 19.609375 52.519531 19.664062 52.511719 19.722656 52.503906 C 19.707031 52.351562 19.640625 52.238281 19.582031 52.117188 C 19.03125 50.980469 18.476562 49.847656 17.925781 48.714844 C 17.734375 48.320312 17.550781 47.921875 17.335938 47.46875 Z M 22.457031 58.441406 C 22.292969 58.167969 22.191406 57.855469 22.050781 57.558594 C 21.910156 57.265625 21.789062 56.960938 21.65625 56.664062 C 21.527344 56.375 21.398438 56.085938 21.269531 55.800781 C 21.136719 55.5 21.007812 55.199219 20.878906 54.902344 C 20.75 54.847656 20.625 54.871094 20.503906 54.871094 C 18.410156 54.867188 16.316406 54.867188 14.226562 54.867188 C 14.113281 54.867188 14 54.867188 13.878906 54.867188 C 13.828125 54.953125 13.78125 55.027344 13.742188 55.105469 C 13.566406 55.488281 13.398438 55.867188 13.222656 56.246094 C 12.964844 56.796875 12.703125 57.347656 12.445312 57.898438 C 12.355469 58.082031 12.277344 58.265625 12.195312 58.441406 C 11.902344 58.476562 9.417969 58.480469 9.066406 58.449219 C 9.03125 58.402344 9.066406 58.363281 9.082031 58.328125 C 9.390625 57.699219 9.699219 57.070312 10.007812 56.445312 C 10.46875 55.5 10.929688 54.558594 11.390625 53.617188 C 11.824219 52.734375 12.253906 51.851562 12.683594 50.96875 C 13.15625 49.996094 13.632812 49.023438 14.109375 48.046875 C 14.554688 47.136719 14.996094 46.222656 15.441406 45.308594 C 15.902344 44.367188 16.363281 43.425781 16.824219 42.480469 C 16.957031 42.207031 17.085938 41.929688 17.21875 41.65625 C 17.238281 41.609375 17.25 41.542969 17.335938 41.53125 C 17.363281 41.582031 17.402344 41.636719 17.429688 41.695312 C 18.132812 43.109375 18.835938 44.523438 19.535156 45.941406 C 20.257812 47.398438 20.972656 48.855469 21.691406 50.3125 C 22.464844 51.882812 23.238281 53.449219 24.011719 55.019531 C 24.523438 56.0625 25.035156 57.105469 25.546875 58.148438 C 25.589844 58.238281 25.660156 58.320312 25.648438 58.4375 C 25.613281 58.445312 25.582031 58.464844 25.550781 58.464844 C 25.070312 58.492188 22.691406 58.472656 22.457031 58.441406 "/>
<path style=" stroke:none;fill-rule:nonzero;fill:rgb(12.04834%,39.889526%,23.484802%);fill-opacity:1;" d="M 94.179688 52.496094 C 94.15625 52.433594 94.144531 52.386719 94.125 52.347656 C 93.898438 51.871094 93.667969 51.394531 93.4375 50.917969 C 93.152344 50.328125 92.871094 49.738281 92.585938 49.152344 C 92.339844 48.644531 92.089844 48.140625 91.839844 47.636719 C 91.816406 47.589844 91.773438 47.550781 91.726562 47.496094 C 90.949219 49.171875 90.175781 50.824219 89.402344 52.480469 C 89.449219 52.5 89.476562 52.515625 89.511719 52.519531 C 89.878906 52.539062 93.9375 52.519531 94.179688 52.496094 Z M 95.300781 54.894531 C 94.988281 54.863281 88.832031 54.855469 88.328125 54.882812 C 88.296875 54.925781 88.25 54.976562 88.222656 55.03125 C 87.96875 55.574219 87.71875 56.117188 87.464844 56.660156 C 87.1875 57.25 86.90625 57.84375 86.625 58.445312 C 86.566406 58.453125 86.511719 58.46875 86.457031 58.46875 C 85.507812 58.46875 84.558594 58.46875 83.609375 58.46875 C 83.578125 58.46875 83.542969 58.457031 83.515625 58.453125 C 83.46875 58.355469 83.542969 58.296875 83.574219 58.234375 C 84.089844 57.167969 84.609375 56.101562 85.128906 55.039062 C 85.59375 54.082031 86.0625 53.132812 86.527344 52.179688 C 86.96875 51.277344 87.40625 50.375 87.847656 49.46875 C 88.3125 48.515625 88.78125 47.566406 89.242188 46.609375 C 89.660156 45.761719 90.074219 44.90625 90.488281 44.054688 C 90.867188 43.273438 91.25 42.492188 91.632812 41.710938 C 91.660156 41.652344 91.695312 41.59375 91.722656 41.539062 C 91.808594 41.527344 91.820312 41.59375 91.84375 41.640625 C 92.066406 42.09375 92.285156 42.554688 92.507812 43.011719 C 92.785156 43.578125 93.066406 44.144531 93.34375 44.710938 C 93.921875 45.886719 94.496094 47.0625 95.070312 48.238281 C 95.476562 49.070312 95.882812 49.902344 96.289062 50.730469 C 96.765625 51.707031 97.238281 52.679688 97.714844 53.652344 C 98.152344 54.554688 98.59375 55.457031 99.03125 56.363281 C 99.339844 56.992188 99.644531 57.617188 99.953125 58.25 C 99.980469 58.308594 100.003906 58.371094 100.027344 58.429688 C 99.996094 58.449219 99.976562 58.464844 99.957031 58.464844 C 98.972656 58.46875 97.988281 58.46875 97.003906 58.464844 C 96.972656 58.464844 96.941406 58.453125 96.886719 58.4375 C 96.34375 57.273438 95.847656 56.074219 95.300781 54.894531 "/>
<path style=" stroke:none;fill-rule:nonzero;fill:rgb(12.04834%,39.889526%,23.484802%);fill-opacity:1;" d="M 131.441406 46.453125 C 131.078125 46.167969 130.734375 45.894531 130.386719 45.628906 C 129.796875 45.183594 129.148438 44.84375 128.449219 44.601562 C 127.8125 44.386719 127.152344 44.308594 126.480469 44.375 C 126.039062 44.417969 125.625 44.546875 125.257812 44.816406 C 125.058594 44.960938 124.902344 45.140625 124.804688 45.355469 C 124.511719 45.972656 124.488281 46.59375 124.867188 47.195312 C 125.0625 47.503906 125.339844 47.738281 125.660156 47.914062 C 125.894531 48.046875 126.140625 48.167969 126.386719 48.277344 C 127.316406 48.683594 128.253906 49.070312 129.179688 49.488281 C 129.746094 49.746094 130.269531 50.074219 130.757812 50.46875 C 131.273438 50.890625 131.675781 51.394531 131.953125 52 C 132.132812 52.382812 132.234375 52.78125 132.28125 53.199219 C 132.300781 53.402344 132.335938 53.601562 132.332031 53.804688 C 132.300781 54.738281 132.054688 55.605469 131.523438 56.378906 C 131.152344 56.914062 130.683594 57.351562 130.140625 57.707031 C 129.4375 58.164062 128.664062 58.433594 127.851562 58.597656 C 127.566406 58.65625 127.273438 58.699219 126.980469 58.691406 C 126.710938 58.683594 126.4375 58.6875 126.164062 58.691406 C 125.585938 58.699219 125.023438 58.582031 124.464844 58.449219 C 123.746094 58.273438 123.074219 57.988281 122.433594 57.625 C 122.140625 57.457031 121.863281 57.261719 121.605469 57.054688 C 121.597656 57.039062 121.59375 57.027344 121.585938 57.015625 C 121.582031 57.007812 121.574219 56.996094 121.574219 56.984375 C 121.574219 56.023438 121.574219 55.0625 121.574219 54.105469 C 121.574219 54.082031 121.585938 54.0625 121.59375 54.039062 C 121.640625 54.003906 121.675781 54.035156 121.707031 54.0625 C 122.183594 54.460938 122.683594 54.832031 123.210938 55.160156 C 123.789062 55.515625 124.410156 55.792969 125.070312 55.957031 C 125.472656 56.054688 125.886719 56.132812 126.304688 56.121094 C 126.519531 56.117188 126.734375 56.121094 126.949219 56.121094 C 127.351562 56.117188 127.734375 56.03125 128.109375 55.90625 C 128.464844 55.78125 128.785156 55.59375 129.039062 55.308594 C 129.246094 55.078125 129.378906 54.804688 129.4375 54.5 C 129.460938 54.378906 129.488281 54.257812 129.492188 54.136719 C 129.511719 53.480469 129.261719 52.953125 128.726562 52.5625 C 128.523438 52.417969 128.3125 52.28125 128.089844 52.175781 C 127.628906 51.960938 127.164062 51.757812 126.703125 51.542969 C 125.988281 51.214844 125.273438 50.882812 124.558594 50.546875 C 124.070312 50.324219 123.625 50.035156 123.214844 49.699219 C 122.515625 49.121094 122.046875 48.390625 121.847656 47.496094 C 121.734375 47 121.726562 46.488281 121.78125 45.980469 C 121.84375 45.363281 122.003906 44.765625 122.3125 44.214844 C 122.566406 43.769531 122.886719 43.382812 123.285156 43.054688 C 123.894531 42.558594 124.589844 42.257812 125.339844 42.066406 C 126.113281 41.863281 126.902344 41.824219 127.691406 41.878906 C 128.46875 41.9375 129.222656 42.132812 129.9375 42.460938 C 130.335938 42.644531 130.71875 42.859375 131.074219 43.125 C 131.199219 43.21875 131.320312 43.320312 131.425781 43.402344 C 131.441406 43.4375 131.445312 43.449219 131.449219 43.460938 C 131.453125 43.46875 131.460938 43.480469 131.460938 43.488281 C 131.464844 44.453125 131.464844 45.410156 131.464844 46.371094 C 131.464844 46.394531 131.453125 46.414062 131.441406 46.453125 "/>
<path style=" stroke:none;fill-rule:nonzero;fill:rgb(12.04834%,39.889526%,23.484802%);fill-opacity:1;" d="M 102.152344 42.164062 C 102.195312 42.144531 102.214844 42.128906 102.234375 42.128906 C 103.296875 42.128906 104.359375 42.128906 105.429688 42.128906 C 105.480469 42.191406 105.539062 42.246094 105.582031 42.308594 C 106.128906 43.097656 106.671875 43.890625 107.214844 44.679688 C 107.933594 45.722656 108.644531 46.765625 109.363281 47.804688 C 109.472656 47.964844 109.585938 48.117188 109.699219 48.273438 C 109.796875 48.273438 109.828125 48.191406 109.867188 48.128906 C 110.28125 47.511719 110.691406 46.890625 111.105469 46.269531 C 111.988281 44.929688 112.871094 43.59375 113.757812 42.257812 C 113.78125 42.222656 113.8125 42.1875 113.824219 42.164062 C 113.851562 42.148438 113.859375 42.140625 113.871094 42.136719 C 113.882812 42.132812 113.894531 42.128906 113.902344 42.128906 C 114.921875 42.128906 115.941406 42.125 116.957031 42.125 C 117.015625 42.125 117.070312 42.128906 117.128906 42.128906 C 117.136719 42.128906 117.148438 42.132812 117.160156 42.136719 C 117.167969 42.144531 117.175781 42.152344 117.1875 42.15625 C 117.1875 42.179688 117.199219 42.207031 117.191406 42.21875 C 115.183594 45.164062 113.175781 48.113281 111.15625 51.074219 C 111.15625 52.296875 111.15625 53.527344 111.15625 54.757812 C 111.15625 55.980469 111.15625 57.199219 111.15625 58.425781 C 111.089844 58.441406 111.050781 58.464844 111.007812 58.464844 C 110.09375 58.46875 109.175781 58.46875 108.261719 58.464844 C 108.238281 58.464844 108.214844 58.453125 108.175781 58.445312 C 108.164062 58.402344 108.140625 58.351562 108.136719 58.296875 C 108.128906 58.207031 108.132812 58.117188 108.132812 58.027344 C 108.132812 55.832031 108.132812 53.640625 108.132812 51.449219 C 108.132812 51.324219 108.132812 51.199219 108.132812 51.070312 C 107.46875 50.074219 106.804688 49.078125 106.136719 48.085938 C 105.476562 47.101562 104.8125 46.117188 104.152344 45.136719 C 103.484375 44.148438 102.808594 43.164062 102.152344 42.164062 "/>
<path style=" stroke:none;fill-rule:nonzero;fill:rgb(12.04834%,39.889526%,23.484802%);fill-opacity:1;" d="M 34.996094 58.4375 C 34.730469 58.476562 32.515625 58.488281 32.015625 58.453125 C 31.957031 58.417969 31.964844 58.359375 31.964844 58.304688 C 31.960938 58.214844 31.964844 58.125 31.964844 58.03125 C 31.964844 52.878906 31.960938 47.722656 31.964844 42.570312 C 31.964844 42.4375 31.96875 42.300781 31.96875 42.191406 C 32.027344 42.113281 32.085938 42.125 32.140625 42.125 C 33.042969 42.125 33.949219 42.125 34.851562 42.125 C 34.898438 42.125 34.941406 42.132812 34.976562 42.136719 C 34.992188 42.167969 35.011719 42.1875 35.011719 42.207031 C 35.015625 47.585938 35.019531 52.96875 35.019531 58.347656 C 35.019531 58.378906 35.003906 58.410156 34.996094 58.4375 "/>
</g>
</svg>
