<svg xmlns="http://www.w3.org/2000/svg" width="176pt" height="65.813" viewBox="0 0 176 49.36"><defs><clipPath id="a"><path d="M34 21h28v28.36H34Zm0 0"/></clipPath><clipPath id="b"><path d="M76 21h29v28.36H76Zm0 0"/></clipPath><clipPath id="c"><path d="M148 21h28v28.36h-28Zm0 0"/></clipPath></defs><path d="M139.992 7.063a2.09 2.09 0 0 1 2.73 1.132 2.089 2.089 0 0 1-3.859 1.598 2.09 2.09 0 0 1 1.13-2.73M142.352 17.93c.046.078.164.066.187-.024l.219-1.097c.015-.086.125-.11.172-.04l.672.899c.054.066.171.031.18-.066l.015-1.114c0-.047.023-.078.058-.093a.083.083 0 0 1 .106.027l.805.773c.07.063.18.004.168-.082l-.16-1.11c-.012-.085.081-.144.148-.093l.937.621c.078.047.172-.031.145-.113l-.395-1.242c-.007-.02-.011-.031-.023-.04l-2.832-3.132c-.024-.035-.07-.04-.102-.008a2.2 2.2 0 0 1-.5.285 2 2 0 0 1-.558.153.06.06 0 0 0-.059.078l.203 4.218.02.04zM139.227.055c-.04-.082-.16-.067-.18.02l-.227 1.1c-.011.087-.12.106-.172.04l-.671-.895c-.051-.07-.172-.035-.176.059l-.02 1.117c0 .04-.023.078-.058.094-.036.012-.078 0-.11-.024l-.797-.777c-.074-.062-.18-.004-.171.082l.16 1.11c.011.078-.078.14-.153.093l-.93-.625c-.077-.043-.167.031-.148.117l.399 1.243q.01.024.015.039l2.84 3.132c.02.032.07.036.094.012q.216-.182.504-.3.273-.112.558-.141c.043 0 .075-.04.067-.074l-.215-4.223c.004-.012-.004-.024-.012-.043zM149.73 7.43c.075-.047.06-.164-.027-.184l-1.105-.223c-.082-.02-.106-.12-.043-.171l.898-.672a.094.094 0 0 0-.055-.172l-1.117-.02c-.043-.004-.078-.027-.09-.062q-.022-.054.02-.11l.777-.8c.063-.067.012-.176-.082-.16l-1.113.152a.095.095 0 0 1-.094-.145l.625-.941c.047-.074-.023-.172-.11-.149l-1.245.403c-.012.004-.024.015-.04.02l-3.132 2.831c-.024.024-.031.07-.012.098a2.1 2.1 0 0 1 .3.504c.071.184.13.371.142.559.007.039.043.066.082.066l4.218-.207q.02-.01.04-.02zM131.852 10.55c-.079.044-.059.165.027.184l1.101.227c.083.02.106.121.04.168l-.899.676c-.066.054-.031.172.063.168l1.117.023c.047 0 .074.024.086.063.015.035.015.074-.02.105l-.773.805c-.067.066-.008.172.078.16l1.11-.156c.081-.008.14.078.093.148l-.617.938c-.051.074.023.171.11.152l1.237-.402a.1.1 0 0 0 .043-.016l3.145-2.84a.08.08 0 0 0-.004-.098 2.3 2.3 0 0 1-.293-.5 2.3 2.3 0 0 1-.148-.562.066.066 0 0 0-.067-.066l-4.226.218c-.016.004-.028.004-.043.012zM148.21 14.207c.095.031.161-.066.118-.148l-.625-.938c-.047-.062.008-.16.098-.144l1.101.16c.09.008.157-.106.086-.172l-.773-.805c-.035-.027-.04-.066-.024-.101.024-.032.043-.063.094-.059l1.117-.023c.086.003.125-.11.047-.172l-.887-.672c-.07-.051-.046-.156.04-.176l1.101-.219c.086-.023.106-.144.02-.183l-1.157-.602c-.015.004-.03-.008-.046-.012l-4.211-.214c-.036 0-.07.03-.075.07-.02.187-.078.371-.144.562a2.6 2.6 0 0 1-.297.496c-.027.032-.027.075.008.102l3.133 2.828c.004.008.023.012.035.024zM133.363 3.777c-.09-.03-.16.067-.11.145l.63.937c.039.075-.012.164-.106.149l-1.101-.156c-.086-.012-.149.097-.086.168l.777.804c.035.031.031.067.016.102-.004.035-.043.062-.082.058l-1.121.024c-.094.004-.125.113-.055.172l.89.672c.07.05.044.156-.038.171l-1.098.223c-.09.024-.11.145-.027.18l1.164.601c.015.012.03.008.035.012l4.215.215c.043 0 .078-.031.078-.066.023-.188.078-.372.148-.567q.121-.269.301-.496c.02-.027.016-.078-.016-.094L134.641 4.2c-.004-.008-.02-.011-.036-.023zM146 1.566c.031-.086-.066-.156-.14-.113l-.938.625c-.074.047-.164-.012-.152-.094l.152-1.105a.094.094 0 0 0-.152-.09l-.805.777c-.035.036-.07.04-.11.024s-.058-.04-.054-.086l-.024-1.121c.004-.094-.12-.13-.18-.055l-.667.887a.093.093 0 0 1-.172-.031l-.223-1.106c-.023-.09-.14-.11-.183-.023l-.598 1.16c-.004.02-.012.031-.008.043l-.215 4.219c-.011.03.024.07.067.074.18.023.37.07.554.14.184.086.36.18.504.297.031.024.074.02.098-.011l2.824-3.13c.016-.007.02-.015.031-.034zM135.574 16.418c-.031.086.067.156.149.113l.933-.625c.07-.043.164.012.153.098l-.16 1.101c-.004.098.097.157.163.086l.81-.777a.09.09 0 0 1 .097-.02c.039.016.066.044.062.086l.02 1.122c.004.09.125.125.18.054l.664-.886a.103.103 0 0 1 .183.027l.215 1.11c.023.09.14.109.184.023l.597-1.16c0-.02.008-.032.008-.043l.219-4.215a.08.08 0 0 0-.063-.082 2.3 2.3 0 0 1-.558-.137 2.4 2.4 0 0 1-.508-.297c-.027-.027-.07-.023-.102.008l-2.832 3.129a.1.1 0 0 1-.015.039zM25.883 39.195c0-3.351-2.563-6.379-8.406-6.379H4.176V45.09h13.746c5.066 0 7.96-2.164 7.96-5.895M4.177 29.137H16.53c3.84 0 7.457-1.836 7.457-6.219 0-2.969-1.945-5.945-7.011-5.945H4.176ZM30.055 39.52c0 5.351-4.172 9.41-12.578 9.41H0V13.133h16.531c8.684 0 11.633 5.137 11.633 9.465 0 4.593-2.336 6.918-4.953 8.054 3.117.973 6.844 3.516 6.844 8.868" style="stroke:none;fill-rule:nonzero;fill:#455cc7;fill-opacity:1"/><g clip-path="url(#a)"><path d="M38.57 33.246h18.926c-.777-4.594-4.117-8.11-9.46-8.11-5.345 0-8.684 3.516-9.466 8.11m17.871 7.895h4.563c-1.95 4.867-6.066 8.218-12.691 8.218-8.516 0-14.083-6.218-14.083-13.949s5.29-13.95 13.805-13.95S61.84 27.68 61.84 35.41v1.621H38.516c.613 4.813 4.23 8.653 9.851 8.653 3.899 0 6.57-1.84 8.074-4.543" style="stroke:none;fill-rule:nonzero;fill:#455cc7;fill-opacity:1"/></g><path d="M71.137 48.926H66.96V11.078h4.176z" style="stroke:none;fill-rule:nonzero;fill:#455cc7;fill-opacity:1"/><g clip-path="url(#b)"><path d="M100.305 35.41c0-5.57-3.453-10.273-9.63-10.273-6.183 0-9.855 4.703-9.855 10.273s3.672 10.274 9.856 10.274c6.176 0 9.629-4.704 9.629-10.274m-.223-9.137v-4.378h4.176v27.03h-4.176v-4.323c-2.059 2.921-5.344 4.757-9.965 4.757-8.129 0-13.472-6.218-13.472-13.949s5.343-13.95 13.472-13.95c4.621 0 7.906 1.892 9.965 4.813" style="stroke:none;fill-rule:nonzero;fill:#455cc7;fill-opacity:1"/></g><path d="m134.813 21.895-10.852 27.03h-4.898l-10.91-27.03h4.562l8.797 22.707 8.738-22.707zM138.71 21.895h4.173v27.03h-4.172z" style="stroke:none;fill-rule:nonzero;fill:#455cc7;fill-opacity:1"/><g clip-path="url(#c)"><path d="M172.05 35.41c0-5.57-3.452-10.273-9.632-10.273s-9.852 4.703-9.852 10.273 3.672 10.274 9.852 10.274 9.633-4.704 9.633-10.274m-.227-9.137v-4.378H176v27.03h-4.176v-4.323c-2.058 2.921-5.344 4.757-9.96 4.757-8.13 0-13.47-6.218-13.47-13.949s5.34-13.95 13.47-13.95c4.616 0 7.902 1.892 9.96 4.813" style="stroke:none;fill-rule:nonzero;fill:#455cc7;fill-opacity:1"/></g></svg>