<?xml version="1.0" encoding="UTF-8"?>
<svg xmlns="http://www.w3.org/2000/svg" xmlns:xlink="http://www.w3.org/1999/xlink" width="176.25pt" height="14.93pt" viewBox="0 0 176.25 14.93" version="1.1">
<defs>
<clipPath id="clip1">
  <path d="M 0 0 L 12 0 L 12 14.929688 L 0 14.929688 Z M 0 0 "/>
</clipPath>
<clipPath id="clip2">
  <path d="M 12 0 L 28 0 L 28 14.929688 L 12 14.929688 Z M 12 0 "/>
</clipPath>
<clipPath id="clip3">
  <path d="M 27 0 L 41 0 L 41 14.929688 L 27 14.929688 Z M 27 0 "/>
</clipPath>
<clipPath id="clip4">
  <path d="M 27 0 L 42 0 L 42 14.929688 L 27 14.929688 Z M 27 0 "/>
</clipPath>
<clipPath id="clip5">
  <path d="M 41 0 L 54 0 L 54 14.929688 L 41 14.929688 Z M 41 0 "/>
</clipPath>
<clipPath id="clip6">
  <path d="M 52 0 L 67 0 L 67 14.929688 L 52 14.929688 Z M 52 0 "/>
</clipPath>
<clipPath id="clip7">
  <path d="M 66 0 L 80 0 L 80 14.929688 L 66 14.929688 Z M 66 0 "/>
</clipPath>
<clipPath id="clip8">
  <path d="M 66 0 L 81 0 L 81 14.929688 L 66 14.929688 Z M 66 0 "/>
</clipPath>
<clipPath id="clip9">
  <path d="M 84 0 L 98 0 L 98 14.929688 L 84 14.929688 Z M 84 0 "/>
</clipPath>
<clipPath id="clip10">
  <path d="M 98 0 L 106 0 L 106 14.929688 L 98 14.929688 Z M 98 0 "/>
</clipPath>
<clipPath id="clip11">
  <path d="M 105 0 L 120 0 L 120 14.929688 L 105 14.929688 Z M 105 0 "/>
</clipPath>
<clipPath id="clip12">
  <path d="M 119 0 L 132 0 L 132 14.929688 L 119 14.929688 Z M 119 0 "/>
</clipPath>
<clipPath id="clip13">
  <path d="M 132 0 L 140 0 L 140 14.929688 L 132 14.929688 Z M 132 0 "/>
</clipPath>
<clipPath id="clip14">
  <path d="M 139 0 L 153 0 L 153 14.929688 L 139 14.929688 Z M 139 0 "/>
</clipPath>
<clipPath id="clip15">
  <path d="M 139 0 L 154 0 L 154 14.929688 L 139 14.929688 Z M 139 0 "/>
</clipPath>
<clipPath id="clip16">
  <path d="M 153 0 L 166 0 L 166 14.929688 L 153 14.929688 Z M 153 0 "/>
</clipPath>
<clipPath id="clip17">
  <path d="M 167 0 L 176.25 0 L 176.25 14.929688 L 167 14.929688 Z M 167 0 "/>
</clipPath>
</defs>
<g id="surface1">
<g clip-path="url(#clip1)" clip-rule="nonzero">
<path style=" stroke:none;fill-rule:nonzero;fill:rgb(97.570801%,81.152344%,2.987671%);fill-opacity:1;" d="M 4.847656 6.757812 C 5.734375 6.757812 6.386719 6.648438 6.808594 6.425781 C 7.230469 6.207031 7.554688 5.894531 7.78125 5.496094 C 8.003906 5.09375 8.117188 4.585938 8.117188 3.964844 C 8.117188 3.34375 8.003906 2.835938 7.785156 2.4375 C 7.5625 2.042969 7.246094 1.742188 6.832031 1.535156 C 6.421875 1.328125 5.757812 1.226562 4.847656 1.234375 Z M 4.847656 7.5625 L 4.847656 12.0625 L 4.835938 12.582031 C 4.835938 12.953125 4.921875 13.234375 5.09375 13.425781 C 5.265625 13.613281 5.519531 13.707031 5.859375 13.707031 C 6.359375 13.707031 6.820312 13.585938 7.242188 13.339844 C 7.664062 13.097656 7.984375 12.742188 8.210938 12.277344 C 8.433594 11.808594 8.546875 11.292969 8.546875 10.71875 C 8.546875 10.0625 8.410156 9.476562 8.136719 8.957031 C 7.859375 8.433594 7.480469 8.070312 7 7.863281 C 6.519531 7.65625 5.800781 7.558594 4.847656 7.5625 Z M 8.257812 7.035156 C 9.460938 7.347656 10.308594 7.722656 10.796875 8.164062 C 11.496094 8.792969 11.84375 9.605469 11.84375 10.605469 C 11.84375 11.660156 11.460938 12.53125 10.691406 13.222656 C 9.75 14.054688 8.378906 14.472656 6.582031 14.472656 L 0.125 14.472656 L 0.125 14.089844 C 0.710938 14.089844 1.109375 14.03125 1.320312 13.910156 C 1.527344 13.789062 1.675781 13.632812 1.761719 13.4375 C 1.84375 13.246094 1.886719 12.769531 1.886719 12.011719 L 1.886719 2.910156 C 1.886719 2.152344 1.84375 1.671875 1.761719 1.476562 C 1.675781 1.28125 1.527344 1.125 1.316406 1.007812 C 1.101562 0.890625 0.707031 0.832031 0.125 0.832031 L 0.125 0.449219 L 6.214844 0.449219 C 7.667969 0.449219 8.699219 0.589844 9.304688 0.875 C 9.914062 1.164062 10.390625 1.589844 10.738281 2.160156 C 11.089844 2.726562 11.265625 3.332031 11.265625 3.976562 C 11.265625 4.652344 11.042969 5.253906 10.597656 5.78125 C 10.15625 6.308594 9.375 6.726562 8.257812 7.035156 "/>
<path style=" stroke:none;fill-rule:nonzero;fill:rgb(6.266785%,5.734253%,5.047607%);fill-opacity:1;" d="M 4.972656 1.359375 L 4.972656 6.632812 C 5.769531 6.621094 6.367188 6.515625 6.75 6.316406 C 7.148438 6.109375 7.457031 5.8125 7.671875 5.433594 C 7.882812 5.054688 7.992188 4.558594 7.992188 3.964844 C 7.992188 3.367188 7.886719 2.875 7.675781 2.5 C 7.464844 2.128906 7.164062 1.839844 6.777344 1.644531 C 6.402344 1.457031 5.796875 1.359375 4.972656 1.359375 Z M 4.847656 6.882812 L 4.722656 6.882812 L 4.722656 1.109375 L 4.84375 1.109375 C 5.796875 1.101562 6.457031 1.203125 6.890625 1.421875 C 7.324219 1.640625 7.660156 1.960938 7.894531 2.378906 C 8.125 2.792969 8.242188 3.324219 8.242188 3.964844 C 8.242188 4.601562 8.121094 5.140625 7.886719 5.554688 C 7.652344 5.976562 7.308594 6.304688 6.867188 6.535156 C 6.429688 6.765625 5.75 6.882812 4.847656 6.882812 Z M 4.972656 7.6875 L 4.960938 12.582031 C 4.960938 12.917969 5.039062 13.175781 5.1875 13.339844 C 5.332031 13.5 5.558594 13.582031 5.859375 13.582031 C 6.332031 13.582031 6.777344 13.464844 7.175781 13.234375 C 7.574219 13.003906 7.886719 12.660156 8.097656 12.222656 C 8.3125 11.777344 8.421875 11.269531 8.421875 10.71875 C 8.421875 10.085938 8.289062 9.515625 8.023438 9.011719 C 7.765625 8.523438 7.402344 8.171875 6.953125 7.980469 C 6.511719 7.789062 5.84375 7.691406 4.972656 7.6875 Z M 5.859375 13.832031 C 5.484375 13.832031 5.199219 13.722656 5.003906 13.507812 C 4.808594 13.296875 4.710938 12.984375 4.710938 12.582031 L 4.722656 12.0625 L 4.722656 7.441406 L 4.84375 7.4375 C 4.875 7.4375 4.90625 7.4375 4.9375 7.4375 C 5.863281 7.4375 6.574219 7.542969 7.050781 7.75 C 7.554688 7.96875 7.957031 8.351562 8.246094 8.898438 C 8.527344 9.433594 8.671875 10.046875 8.671875 10.71875 C 8.671875 11.308594 8.554688 11.851562 8.324219 12.328125 C 8.085938 12.816406 7.746094 13.191406 7.304688 13.449219 C 6.863281 13.703125 6.378906 13.832031 5.859375 13.832031 Z M 0.25 14.347656 L 6.582031 14.347656 C 8.339844 14.347656 9.695312 13.9375 10.609375 13.128906 C 11.347656 12.46875 11.71875 11.617188 11.71875 10.605469 C 11.71875 9.648438 11.382812 8.855469 10.710938 8.257812 C 10.242188 7.832031 9.40625 7.460938 8.226562 7.15625 L 7.773438 7.039062 L 8.222656 6.914062 C 9.3125 6.613281 10.078125 6.203125 10.503906 5.699219 C 10.925781 5.199219 11.140625 4.617188 11.140625 3.976562 C 11.140625 3.359375 10.96875 2.769531 10.632812 2.226562 C 10.296875 1.679688 9.832031 1.265625 9.253906 0.988281 C 8.667969 0.710938 7.644531 0.574219 6.214844 0.574219 L 0.25 0.574219 L 0.25 0.707031 C 0.789062 0.714844 1.15625 0.777344 1.375 0.898438 C 1.613281 1.027344 1.78125 1.207031 1.875 1.429688 C 1.964844 1.640625 2.011719 2.125 2.011719 2.910156 L 2.011719 12.011719 C 2.011719 12.796875 1.964844 13.277344 1.875 13.488281 C 1.78125 13.707031 1.613281 13.882812 1.382812 14.019531 C 1.167969 14.140625 0.796875 14.207031 0.25 14.214844 Z M 6.582031 14.597656 L 0 14.597656 L 0 13.964844 L 0.125 13.964844 C 0.824219 13.964844 1.125 13.875 1.257812 13.800781 C 1.445312 13.695312 1.570312 13.558594 1.644531 13.390625 C 1.699219 13.269531 1.761719 12.929688 1.761719 12.011719 L 1.761719 2.910156 C 1.761719 1.988281 1.699219 1.648438 1.644531 1.527344 C 1.570312 1.355469 1.445312 1.21875 1.253906 1.117188 C 1.0625 1.007812 0.683594 0.957031 0.125 0.957031 L 0 0.957031 L 0 0.324219 L 6.214844 0.324219 C 7.703125 0.324219 8.730469 0.46875 9.359375 0.765625 C 9.984375 1.058594 10.484375 1.507812 10.847656 2.09375 C 11.207031 2.679688 11.390625 3.3125 11.390625 3.976562 C 11.390625 4.675781 11.15625 5.3125 10.695312 5.859375 C 10.296875 6.335938 9.628906 6.730469 8.707031 7.03125 C 9.710938 7.324219 10.4375 7.671875 10.878906 8.070312 C 11.601562 8.722656 11.96875 9.574219 11.96875 10.605469 C 11.96875 11.691406 11.570312 12.605469 10.777344 13.316406 C 9.8125 14.167969 8.402344 14.597656 6.582031 14.597656 "/>
</g>
<g clip-path="url(#clip2)" clip-rule="nonzero">
<path style=" stroke:none;fill-rule:nonzero;fill:rgb(97.570801%,81.152344%,2.987671%);fill-opacity:1;" d="M 17.765625 7.730469 L 17.765625 12.074219 C 17.765625 12.792969 17.800781 13.238281 17.875 13.417969 C 17.945312 13.597656 18.085938 13.753906 18.296875 13.890625 C 18.503906 14.023438 18.789062 14.089844 19.144531 14.089844 L 19.566406 14.089844 L 19.566406 14.472656 L 12.921875 14.472656 L 12.921875 14.089844 L 13.34375 14.089844 C 13.714844 14.089844 14.007812 14.019531 14.234375 13.875 C 14.398438 13.777344 14.523438 13.613281 14.609375 13.378906 C 14.675781 13.210938 14.710938 12.777344 14.710938 12.074219 L 14.710938 2.847656 C 14.710938 2.128906 14.675781 1.683594 14.609375 1.503906 C 14.539062 1.324219 14.402344 1.167969 14.191406 1.03125 C 13.984375 0.898438 13.699219 0.832031 13.34375 0.832031 L 12.921875 0.832031 L 12.921875 0.449219 L 19.566406 0.449219 L 19.566406 0.832031 L 19.144531 0.832031 C 18.773438 0.832031 18.476562 0.902344 18.253906 1.046875 C 18.089844 1.144531 17.964844 1.308594 17.867188 1.542969 C 17.800781 1.710938 17.765625 2.144531 17.765625 2.847656 L 17.765625 6.820312 L 22.253906 6.820312 L 22.253906 2.847656 C 22.253906 2.128906 22.21875 1.683594 22.152344 1.503906 C 22.082031 1.324219 21.941406 1.167969 21.730469 1.03125 C 21.515625 0.898438 21.230469 0.832031 20.875 0.832031 L 20.464844 0.832031 L 20.464844 0.449219 L 27.097656 0.449219 L 27.097656 0.832031 L 26.683594 0.832031 C 26.308594 0.832031 26.015625 0.902344 25.796875 1.046875 C 25.632812 1.144531 25.503906 1.308594 25.410156 1.542969 C 25.34375 1.710938 25.308594 2.144531 25.308594 2.847656 L 25.308594 12.074219 C 25.308594 12.792969 25.34375 13.238281 25.410156 13.417969 C 25.480469 13.597656 25.621094 13.753906 25.832031 13.890625 C 26.042969 14.023438 26.328125 14.089844 26.683594 14.089844 L 27.097656 14.089844 L 27.097656 14.472656 L 20.464844 14.472656 L 20.464844 14.089844 L 20.875 14.089844 C 21.25 14.089844 21.546875 14.019531 21.765625 13.875 C 21.929688 13.777344 22.058594 13.613281 22.152344 13.378906 C 22.21875 13.210938 22.253906 12.777344 22.253906 12.074219 L 22.253906 7.730469 L 17.765625 7.730469 "/>
<path style=" stroke:none;fill-rule:nonzero;fill:rgb(6.266785%,5.734253%,5.047607%);fill-opacity:1;" d="M 20.589844 14.347656 L 26.972656 14.347656 L 26.972656 14.214844 L 26.683594 14.214844 C 26.308594 14.214844 25.996094 14.140625 25.765625 13.996094 C 25.53125 13.847656 25.371094 13.667969 25.292969 13.464844 C 25.21875 13.265625 25.183594 12.824219 25.183594 12.074219 L 25.183594 2.847656 C 25.183594 1.878906 25.246094 1.613281 25.296875 1.496094 C 25.398438 1.238281 25.546875 1.050781 25.730469 0.941406 C 25.964844 0.785156 26.285156 0.707031 26.683594 0.707031 L 26.972656 0.707031 L 26.972656 0.574219 L 20.589844 0.574219 L 20.589844 0.707031 L 20.875 0.707031 C 21.253906 0.707031 21.5625 0.78125 21.796875 0.925781 C 22.03125 1.074219 22.191406 1.253906 22.269531 1.457031 C 22.34375 1.65625 22.378906 2.109375 22.378906 2.847656 L 22.378906 6.945312 L 17.640625 6.945312 L 17.640625 2.847656 C 17.640625 1.878906 17.707031 1.613281 17.753906 1.496094 C 17.855469 1.238281 18.003906 1.050781 18.191406 0.941406 C 18.429688 0.785156 18.753906 0.707031 19.144531 0.707031 L 19.441406 0.707031 L 19.441406 0.574219 L 13.046875 0.574219 L 13.046875 0.707031 L 13.34375 0.707031 C 13.722656 0.707031 14.03125 0.78125 14.257812 0.925781 C 14.488281 1.074219 14.648438 1.253906 14.726562 1.457031 C 14.800781 1.65625 14.835938 2.097656 14.835938 2.847656 L 14.835938 12.074219 C 14.835938 13.042969 14.773438 13.308594 14.722656 13.425781 C 14.628906 13.679688 14.484375 13.871094 14.296875 13.980469 C 14.058594 14.136719 13.734375 14.214844 13.34375 14.214844 L 13.046875 14.214844 L 13.046875 14.347656 L 19.441406 14.347656 L 19.441406 14.214844 L 19.144531 14.214844 C 18.765625 14.214844 18.457031 14.140625 18.226562 13.996094 C 17.996094 13.847656 17.839844 13.667969 17.757812 13.464844 C 17.679688 13.269531 17.640625 12.8125 17.640625 12.074219 L 17.640625 7.605469 L 22.378906 7.605469 L 22.378906 12.074219 C 22.378906 13.039062 22.316406 13.308594 22.265625 13.425781 C 22.164062 13.683594 22.015625 13.871094 21.832031 13.980469 C 21.597656 14.136719 21.273438 14.214844 20.875 14.214844 L 20.589844 14.214844 Z M 27.222656 14.597656 L 20.339844 14.597656 L 20.339844 13.964844 L 20.875 13.964844 C 21.222656 13.964844 21.5 13.898438 21.699219 13.769531 C 21.839844 13.683594 21.953125 13.539062 22.035156 13.332031 C 22.078125 13.226562 22.128906 12.925781 22.128906 12.074219 L 22.128906 7.855469 L 17.890625 7.855469 L 17.890625 12.074219 C 17.890625 12.941406 17.945312 13.257812 17.988281 13.371094 C 18.050781 13.527344 18.175781 13.664062 18.363281 13.785156 C 18.550781 13.90625 18.8125 13.964844 19.144531 13.964844 L 19.691406 13.964844 L 19.691406 14.597656 L 12.796875 14.597656 L 12.796875 13.964844 L 13.34375 13.964844 C 13.6875 13.964844 13.964844 13.898438 14.167969 13.769531 C 14.308594 13.683594 14.414062 13.539062 14.492188 13.335938 C 14.535156 13.226562 14.585938 12.925781 14.585938 12.074219 L 14.585938 2.847656 C 14.585938 1.976562 14.535156 1.660156 14.492188 1.546875 C 14.433594 1.394531 14.308594 1.257812 14.125 1.136719 C 13.9375 1.015625 13.675781 0.957031 13.34375 0.957031 L 12.796875 0.957031 L 12.796875 0.324219 L 19.691406 0.324219 L 19.691406 0.957031 L 19.144531 0.957031 C 18.800781 0.957031 18.523438 1.023438 18.320312 1.152344 C 18.179688 1.238281 18.070312 1.382812 17.984375 1.589844 C 17.941406 1.695312 17.890625 1.996094 17.890625 2.847656 L 17.890625 6.695312 L 22.128906 6.695312 L 22.128906 2.847656 C 22.128906 1.976562 22.078125 1.660156 22.035156 1.546875 C 21.976562 1.394531 21.851562 1.257812 21.660156 1.136719 C 21.46875 1.015625 21.207031 0.957031 20.875 0.957031 L 20.339844 0.957031 L 20.339844 0.324219 L 27.222656 0.324219 L 27.222656 0.957031 L 26.683594 0.957031 C 26.335938 0.957031 26.058594 1.019531 25.863281 1.152344 C 25.722656 1.238281 25.609375 1.382812 25.527344 1.589844 C 25.484375 1.695312 25.433594 1.996094 25.433594 2.847656 L 25.433594 12.074219 C 25.433594 12.945312 25.484375 13.261719 25.527344 13.375 C 25.585938 13.527344 25.710938 13.664062 25.898438 13.785156 C 26.089844 13.90625 26.355469 13.964844 26.683594 13.964844 L 27.222656 13.964844 L 27.222656 14.597656 "/>
</g>
<g clip-path="url(#clip3)" clip-rule="nonzero">
<path style=" stroke:none;fill-rule:nonzero;fill:rgb(97.570801%,81.152344%,2.987671%);fill-opacity:1;" d="M 27.894531 0.449219 L 34.453125 0.449219 L 34.453125 0.832031 L 34.125 0.832031 C 33.628906 0.832031 33.292969 0.886719 33.105469 1 C 32.921875 1.113281 32.792969 1.273438 32.714844 1.472656 C 32.636719 1.671875 32.597656 2.171875 32.597656 2.972656 L 32.597656 9.839844 C 32.597656 11.09375 32.683594 11.925781 32.855469 12.332031 C 33.027344 12.738281 33.308594 13.078125 33.703125 13.347656 C 34.09375 13.617188 34.59375 13.75 35.191406 13.75 C 35.878906 13.75 36.464844 13.578125 36.949219 13.238281 C 37.433594 12.894531 37.792969 12.425781 38.035156 11.824219 C 38.277344 11.226562 38.394531 10.179688 38.394531 8.691406 L 38.394531 2.972656 C 38.394531 2.34375 38.335938 1.894531 38.21875 1.625 C 38.097656 1.359375 37.949219 1.171875 37.769531 1.066406 C 37.488281 0.910156 37.089844 0.832031 36.578125 0.832031 L 36.578125 0.449219 L 40.972656 0.449219 L 40.972656 0.832031 L 40.710938 0.832031 C 40.355469 0.832031 40.058594 0.910156 39.820312 1.066406 C 39.582031 1.226562 39.410156 1.464844 39.304688 1.78125 C 39.222656 2.003906 39.183594 2.398438 39.183594 2.972656 L 39.183594 8.296875 C 39.183594 9.945312 39.085938 11.136719 38.886719 11.867188 C 38.691406 12.597656 38.210938 13.269531 37.449219 13.882812 C 36.6875 14.496094 35.648438 14.804688 34.332031 14.804688 C 33.230469 14.804688 32.382812 14.644531 31.78125 14.320312 C 30.964844 13.878906 30.386719 13.3125 30.046875 12.621094 C 29.710938 11.933594 29.542969 11.003906 29.542969 9.839844 L 29.542969 2.972656 C 29.542969 2.164062 29.503906 1.664062 29.421875 1.464844 C 29.339844 1.269531 29.199219 1.113281 29 0.996094 C 28.800781 0.878906 28.429688 0.824219 27.894531 0.832031 L 27.894531 0.449219 "/>
</g>
<g clip-path="url(#clip4)" clip-rule="nonzero">
<path style=" stroke:none;fill-rule:nonzero;fill:rgb(6.266785%,5.734253%,5.047607%);fill-opacity:1;" d="M 28.019531 0.703125 C 28.515625 0.707031 28.855469 0.769531 29.0625 0.886719 C 29.285156 1.019531 29.445312 1.199219 29.535156 1.417969 C 29.625 1.632812 29.667969 2.140625 29.667969 2.972656 L 29.667969 9.839844 C 29.667969 10.980469 29.832031 11.898438 30.160156 12.566406 C 30.484375 13.230469 31.050781 13.78125 31.839844 14.207031 C 32.417969 14.519531 33.257812 14.679688 34.332031 14.679688 C 35.613281 14.679688 36.636719 14.378906 37.371094 13.789062 C 38.109375 13.195312 38.578125 12.535156 38.765625 11.835938 C 38.960938 11.117188 39.058594 9.925781 39.058594 8.296875 L 39.058594 2.972656 C 39.058594 2.378906 39.101562 1.976562 39.1875 1.738281 C 39.300781 1.398438 39.492188 1.136719 39.75 0.964844 C 40.007812 0.792969 40.332031 0.707031 40.710938 0.707031 L 40.847656 0.707031 L 40.847656 0.574219 L 36.703125 0.574219 L 36.703125 0.707031 C 37.175781 0.71875 37.554688 0.804688 37.832031 0.960938 C 38.035156 1.078125 38.203125 1.285156 38.332031 1.574219 C 38.460938 1.863281 38.519531 2.320312 38.519531 2.972656 L 38.519531 8.691406 C 38.519531 10.210938 38.398438 11.253906 38.152344 11.871094 C 37.902344 12.492188 37.523438 12.984375 37.019531 13.339844 C 36.515625 13.695312 35.902344 13.875 35.191406 13.875 C 34.570312 13.875 34.042969 13.730469 33.632812 13.449219 C 33.21875 13.167969 32.917969 12.808594 32.738281 12.382812 C 32.558594 11.953125 32.472656 11.125 32.472656 9.839844 L 32.472656 2.972656 C 32.472656 2.148438 32.511719 1.644531 32.597656 1.425781 C 32.683594 1.199219 32.835938 1.023438 33.042969 0.894531 C 33.246094 0.765625 33.601562 0.707031 34.125 0.707031 L 34.328125 0.707031 L 34.328125 0.574219 L 28.019531 0.574219 Z M 34.332031 14.929688 C 33.214844 14.929688 32.335938 14.761719 31.722656 14.429688 C 30.882812 13.976562 30.285156 13.386719 29.9375 12.675781 C 29.59375 11.972656 29.417969 11.019531 29.417969 9.839844 L 29.417969 2.972656 C 29.417969 1.992188 29.355469 1.636719 29.304688 1.511719 C 29.234375 1.34375 29.113281 1.207031 28.9375 1.105469 C 28.8125 1.03125 28.53125 0.945312 27.894531 0.957031 L 27.769531 0.957031 L 27.769531 0.324219 L 34.578125 0.324219 L 34.578125 0.957031 L 34.125 0.957031 C 33.539062 0.957031 33.285156 1.039062 33.171875 1.105469 C 33.011719 1.207031 32.898438 1.339844 32.832031 1.515625 C 32.78125 1.644531 32.722656 2 32.722656 2.972656 L 32.722656 9.839844 C 32.722656 11.070312 32.804688 11.894531 32.96875 12.285156 C 33.132812 12.667969 33.402344 12.988281 33.773438 13.242188 C 34.144531 13.496094 34.621094 13.625 35.191406 13.625 C 35.847656 13.625 36.414062 13.460938 36.878906 13.136719 C 37.339844 12.808594 37.6875 12.351562 37.917969 11.78125 C 38.152344 11.199219 38.269531 10.160156 38.269531 8.691406 L 38.269531 2.972656 C 38.269531 2.363281 38.214844 1.929688 38.105469 1.675781 C 37.996094 1.433594 37.863281 1.265625 37.707031 1.175781 C 37.445312 1.03125 37.066406 0.957031 36.578125 0.957031 L 36.453125 0.957031 L 36.453125 0.324219 L 41.097656 0.324219 L 41.097656 0.957031 L 40.710938 0.957031 C 40.382812 0.957031 40.105469 1.027344 39.890625 1.171875 C 39.675781 1.316406 39.523438 1.527344 39.421875 1.820312 C 39.347656 2.03125 39.308594 2.417969 39.308594 2.972656 L 39.308594 8.296875 C 39.308594 9.949219 39.207031 11.160156 39.007812 11.898438 C 38.804688 12.652344 38.308594 13.355469 37.527344 13.980469 C 36.746094 14.609375 35.671875 14.929688 34.332031 14.929688 "/>
</g>
<g clip-path="url(#clip5)" clip-rule="nonzero">
<path style=" stroke:none;fill-rule:nonzero;fill:rgb(97.570801%,81.152344%,2.987671%);fill-opacity:1;" d="M 53.40625 0.449219 L 53.40625 4.242188 L 53.066406 4.242188 C 52.867188 3.367188 52.644531 2.738281 52.402344 2.355469 C 52.160156 1.972656 51.824219 1.667969 51.398438 1.441406 C 51.160156 1.316406 50.746094 1.253906 50.152344 1.253906 L 49.207031 1.253906 L 49.207031 12.074219 C 49.207031 12.792969 49.242188 13.238281 49.316406 13.417969 C 49.386719 13.597656 49.527344 13.753906 49.738281 13.890625 C 49.945312 14.023438 50.230469 14.089844 50.59375 14.089844 L 51.015625 14.089844 L 51.015625 14.472656 L 44.363281 14.472656 L 44.363281 14.089844 L 44.785156 14.089844 C 45.152344 14.089844 45.449219 14.019531 45.675781 13.875 C 45.839844 13.777344 45.964844 13.613281 46.058594 13.378906 C 46.128906 13.210938 46.164062 12.777344 46.164062 12.074219 L 46.164062 1.253906 L 45.246094 1.253906 C 44.390625 1.253906 43.769531 1.453125 43.378906 1.855469 C 42.835938 2.414062 42.492188 3.210938 42.347656 4.242188 L 41.992188 4.242188 L 41.992188 0.449219 L 53.40625 0.449219 "/>
<path style=" stroke:none;fill-rule:nonzero;fill:rgb(6.266785%,5.734253%,5.047607%);fill-opacity:1;" d="M 44.488281 14.347656 L 50.890625 14.347656 L 50.890625 14.214844 L 50.59375 14.214844 C 50.210938 14.214844 49.898438 14.140625 49.667969 13.996094 C 49.4375 13.847656 49.28125 13.667969 49.199219 13.464844 C 49.121094 13.269531 49.082031 12.8125 49.082031 12.074219 L 49.082031 1.128906 L 50.152344 1.128906 C 50.773438 1.128906 51.199219 1.195312 51.457031 1.328125 C 51.902344 1.566406 52.253906 1.890625 52.507812 2.289062 C 52.75 2.667969 52.96875 3.28125 53.167969 4.117188 L 53.28125 4.117188 L 53.28125 0.574219 L 42.117188 0.574219 L 42.117188 4.117188 L 42.242188 4.117188 C 42.398438 3.113281 42.75 2.324219 43.289062 1.765625 C 43.699219 1.34375 44.359375 1.128906 45.246094 1.128906 L 46.289062 1.128906 L 46.289062 12.074219 C 46.289062 13.042969 46.222656 13.308594 46.175781 13.425781 C 46.070312 13.683594 45.925781 13.871094 45.738281 13.980469 C 45.5 14.136719 45.175781 14.214844 44.785156 14.214844 L 44.488281 14.214844 Z M 51.140625 14.597656 L 44.238281 14.597656 L 44.238281 13.964844 L 44.785156 13.964844 C 45.128906 13.964844 45.40625 13.898438 45.605469 13.769531 C 45.75 13.683594 45.859375 13.539062 45.945312 13.332031 C 45.988281 13.226562 46.039062 12.925781 46.039062 12.074219 L 46.039062 1.378906 L 45.246094 1.378906 C 44.429688 1.378906 43.832031 1.566406 43.46875 1.941406 C 42.949219 2.476562 42.613281 3.257812 42.472656 4.261719 L 42.457031 4.367188 L 41.867188 4.367188 L 41.867188 0.324219 L 53.53125 0.324219 L 53.53125 4.367188 L 52.96875 4.367188 L 52.945312 4.273438 C 52.75 3.414062 52.53125 2.792969 52.296875 2.421875 C 52.066406 2.0625 51.746094 1.765625 51.339844 1.550781 C 51.125 1.4375 50.722656 1.378906 50.152344 1.378906 L 49.332031 1.378906 L 49.332031 12.074219 C 49.332031 12.941406 49.386719 13.257812 49.429688 13.371094 C 49.492188 13.527344 49.617188 13.664062 49.804688 13.785156 C 49.992188 13.90625 50.257812 13.964844 50.59375 13.964844 L 51.140625 13.964844 L 51.140625 14.597656 "/>
</g>
<g clip-path="url(#clip6)" clip-rule="nonzero">
<path style=" stroke:none;fill-rule:nonzero;fill:rgb(97.570801%,81.152344%,2.987671%);fill-opacity:1;" d="M 60.335938 9.714844 L 58.445312 4.886719 L 56.496094 9.714844 Z M 60.65625 10.480469 L 56.167969 10.480469 L 55.632812 11.847656 C 55.460938 12.300781 55.371094 12.675781 55.371094 12.972656 C 55.371094 13.367188 55.515625 13.65625 55.804688 13.84375 C 55.972656 13.953125 56.386719 14.035156 57.050781 14.089844 L 57.050781 14.472656 L 52.824219 14.472656 L 52.824219 14.089844 C 53.28125 14.015625 53.65625 13.804688 53.949219 13.464844 C 54.242188 13.125 54.605469 12.417969 55.035156 11.351562 L 59.578125 0.15625 L 59.757812 0.15625 L 64.339844 11.660156 C 64.777344 12.75 65.132812 13.4375 65.414062 13.71875 C 65.628906 13.933594 65.925781 14.054688 66.316406 14.089844 L 66.316406 14.472656 L 60.167969 14.472656 L 60.167969 14.089844 L 60.421875 14.089844 C 60.914062 14.089844 61.261719 14.015625 61.460938 13.863281 C 61.597656 13.753906 61.667969 13.59375 61.667969 13.386719 C 61.667969 13.261719 61.648438 13.136719 61.613281 13.003906 C 61.597656 12.941406 61.503906 12.683594 61.332031 12.230469 L 60.65625 10.480469 "/>
<path style=" stroke:none;fill-rule:nonzero;fill:rgb(6.266785%,5.734253%,5.047607%);fill-opacity:1;" d="M 56.679688 9.589844 L 60.15625 9.589844 L 58.445312 5.222656 Z M 60.519531 9.839844 L 56.3125 9.839844 L 58.445312 4.546875 Z M 60.292969 14.347656 L 66.191406 14.347656 L 66.191406 14.203125 C 65.828125 14.152344 65.539062 14.019531 65.328125 13.808594 C 65.03125 13.507812 64.667969 12.824219 64.222656 11.707031 L 59.664062 0.28125 L 55.152344 11.398438 C 54.710938 12.488281 54.347656 13.191406 54.042969 13.546875 C 53.753906 13.882812 53.386719 14.101562 52.949219 14.195312 L 52.949219 14.347656 L 56.925781 14.347656 L 56.925781 14.207031 C 56.292969 14.148438 55.914062 14.066406 55.734375 13.949219 C 55.410156 13.738281 55.246094 13.410156 55.246094 12.972656 C 55.246094 12.664062 55.339844 12.269531 55.519531 11.800781 L 56.082031 10.355469 L 60.742188 10.355469 L 61.449219 12.183594 C 61.683594 12.796875 61.722656 12.933594 61.734375 12.980469 C 61.773438 13.113281 61.792969 13.253906 61.792969 13.386719 C 61.792969 13.632812 61.707031 13.824219 61.539062 13.960938 C 61.3125 14.132812 60.949219 14.214844 60.421875 14.214844 L 60.292969 14.214844 Z M 66.441406 14.597656 L 60.042969 14.597656 L 60.042969 13.964844 L 60.421875 13.964844 C 60.886719 13.964844 61.210938 13.898438 61.386719 13.765625 C 61.492188 13.679688 61.542969 13.554688 61.542969 13.386719 C 61.542969 13.277344 61.527344 13.160156 61.492188 13.039062 C 61.484375 13 61.4375 12.859375 61.214844 12.273438 L 60.570312 10.605469 L 56.253906 10.605469 L 55.75 11.890625 C 55.582031 12.328125 55.496094 12.695312 55.496094 12.972656 C 55.496094 13.324219 55.621094 13.574219 55.871094 13.738281 C 55.972656 13.804688 56.265625 13.898438 57.058594 13.964844 L 57.175781 13.976562 L 57.175781 14.597656 L 52.699219 14.597656 L 52.699219 13.984375 L 52.804688 13.96875 C 53.226562 13.898438 53.582031 13.699219 53.851562 13.382812 C 54.136719 13.054688 54.496094 12.355469 54.917969 11.304688 L 59.496094 0.03125 L 59.84375 0.03125 L 64.453125 11.613281 C 64.882812 12.683594 65.234375 13.363281 65.503906 13.632812 C 65.695312 13.820312 65.96875 13.933594 66.328125 13.964844 L 66.441406 13.976562 L 66.441406 14.597656 "/>
</g>
<g clip-path="url(#clip7)" clip-rule="nonzero">
<path style=" stroke:none;fill-rule:nonzero;fill:rgb(97.570801%,81.152344%,2.987671%);fill-opacity:1;" d="M 71.308594 0.449219 L 77.574219 9.148438 L 77.574219 3.117188 C 77.574219 2.273438 77.464844 1.707031 77.246094 1.410156 C 76.949219 1.007812 76.445312 0.816406 75.738281 0.832031 L 75.738281 0.449219 L 79.9375 0.449219 L 79.9375 0.832031 C 79.398438 0.90625 79.039062 1.003906 78.855469 1.125 C 78.671875 1.246094 78.527344 1.441406 78.421875 1.714844 C 78.320312 1.988281 78.269531 2.453125 78.269531 3.117188 L 78.269531 14.792969 L 77.949219 14.792969 L 69.359375 3.117188 L 69.359375 12.03125 C 69.359375 12.839844 69.527344 13.382812 69.859375 13.667969 C 70.195312 13.949219 70.578125 14.089844 71.007812 14.089844 L 71.308594 14.089844 L 71.308594 14.472656 L 66.800781 14.472656 L 66.800781 14.089844 C 67.5 14.085938 67.988281 13.925781 68.261719 13.617188 C 68.539062 13.304688 68.675781 12.777344 68.675781 12.03125 L 68.675781 2.132812 L 68.402344 1.761719 C 68.136719 1.390625 67.898438 1.144531 67.691406 1.027344 C 67.484375 0.910156 67.1875 0.84375 66.800781 0.832031 L 66.800781 0.449219 L 71.308594 0.449219 "/>
</g>
<g clip-path="url(#clip8)" clip-rule="nonzero">
<path style=" stroke:none;fill-rule:nonzero;fill:rgb(6.266785%,5.734253%,5.047607%);fill-opacity:1;" d="M 78.015625 14.667969 L 78.144531 14.667969 L 78.144531 3.117188 C 78.144531 2.433594 78.199219 1.960938 78.308594 1.671875 C 78.417969 1.375 78.582031 1.15625 78.785156 1.019531 C 78.976562 0.898438 79.3125 0.800781 79.8125 0.722656 L 79.8125 0.574219 L 75.863281 0.574219 L 75.863281 0.703125 C 76.542969 0.714844 77.042969 0.925781 77.347656 1.335938 C 77.585938 1.65625 77.699219 2.238281 77.699219 3.117188 L 77.699219 9.535156 L 71.242188 0.574219 L 66.925781 0.574219 L 66.925781 0.710938 C 67.277344 0.734375 67.550781 0.800781 67.753906 0.917969 C 67.976562 1.046875 68.222656 1.296875 68.503906 1.6875 L 68.800781 2.09375 L 68.800781 12.03125 C 68.800781 12.816406 68.65625 13.359375 68.355469 13.699219 C 68.074219 14.015625 67.59375 14.1875 66.925781 14.214844 L 66.925781 14.347656 L 71.183594 14.347656 L 71.183594 14.214844 L 71.007812 14.214844 C 70.546875 14.214844 70.136719 14.0625 69.78125 13.761719 C 69.414062 13.453125 69.234375 12.886719 69.234375 12.03125 L 69.234375 2.734375 Z M 78.394531 14.917969 L 77.886719 14.917969 L 77.851562 14.867188 L 69.484375 3.496094 L 69.484375 12.03125 C 69.484375 12.796875 69.636719 13.316406 69.941406 13.570312 C 70.25 13.832031 70.609375 13.964844 71.007812 13.964844 L 71.433594 13.964844 L 71.433594 14.597656 L 66.675781 14.597656 L 66.675781 13.96875 L 66.800781 13.964844 C 67.460938 13.960938 67.921875 13.8125 68.167969 13.53125 C 68.421875 13.246094 68.550781 12.742188 68.550781 12.03125 L 68.550781 2.175781 L 68.300781 1.835938 C 68.046875 1.476562 67.820312 1.242188 67.628906 1.136719 C 67.441406 1.027344 67.164062 0.96875 66.796875 0.957031 L 66.675781 0.949219 L 66.675781 0.324219 L 71.371094 0.324219 L 71.410156 0.375 L 77.449219 8.757812 L 77.449219 3.117188 C 77.449219 2.304688 77.347656 1.757812 77.148438 1.484375 C 76.875 1.121094 76.414062 0.949219 75.742188 0.957031 L 75.613281 0.957031 L 75.613281 0.324219 L 80.0625 0.324219 L 80.0625 0.9375 L 79.953125 0.953125 C 79.3125 1.042969 79.039062 1.152344 78.921875 1.230469 C 78.761719 1.335938 78.632812 1.511719 78.539062 1.757812 C 78.445312 2.015625 78.394531 2.472656 78.394531 3.117188 L 78.394531 14.917969 "/>
</g>
<g clip-path="url(#clip9)" clip-rule="nonzero">
<path style=" stroke:none;fill-rule:nonzero;fill:rgb(92.138672%,40.827942%,11.009216%);fill-opacity:1;" d="M 91.789062 9.714844 L 89.894531 4.886719 L 87.949219 9.714844 Z M 92.105469 10.480469 L 87.617188 10.480469 L 87.085938 11.847656 C 86.910156 12.300781 86.824219 12.675781 86.824219 12.972656 C 86.824219 13.367188 86.964844 13.65625 87.253906 13.84375 C 87.421875 13.953125 87.835938 14.035156 88.5 14.089844 L 88.5 14.472656 L 84.273438 14.472656 L 84.273438 14.089844 C 84.730469 14.015625 85.105469 13.804688 85.398438 13.464844 C 85.691406 13.125 86.054688 12.417969 86.484375 11.351562 L 91.03125 0.15625 L 91.207031 0.15625 L 95.789062 11.660156 C 96.226562 12.75 96.585938 13.4375 96.867188 13.71875 C 97.078125 13.933594 97.378906 14.054688 97.765625 14.089844 L 97.765625 14.472656 L 91.617188 14.472656 L 91.617188 14.089844 L 91.871094 14.089844 C 92.363281 14.089844 92.710938 14.015625 92.910156 13.863281 C 93.050781 13.753906 93.117188 13.59375 93.117188 13.386719 C 93.117188 13.261719 93.097656 13.136719 93.0625 13.003906 C 93.050781 12.941406 92.957031 12.683594 92.78125 12.230469 L 92.105469 10.480469 "/>
<path style=" stroke:none;fill-rule:nonzero;fill:rgb(6.266785%,5.734253%,5.047607%);fill-opacity:1;" d="M 88.132812 9.589844 L 91.605469 9.589844 L 89.894531 5.222656 Z M 91.972656 9.839844 L 87.761719 9.839844 L 89.898438 4.546875 Z M 91.742188 14.347656 L 97.640625 14.347656 L 97.640625 14.203125 C 97.277344 14.152344 96.988281 14.019531 96.777344 13.808594 C 96.480469 13.507812 96.121094 12.820312 95.671875 11.707031 L 91.113281 0.28125 L 86.601562 11.398438 C 86.160156 12.488281 85.800781 13.191406 85.492188 13.546875 C 85.203125 13.882812 84.835938 14.101562 84.398438 14.195312 L 84.398438 14.347656 L 88.375 14.347656 L 88.375 14.207031 C 87.746094 14.148438 87.363281 14.066406 87.183594 13.949219 C 86.863281 13.738281 86.699219 13.410156 86.699219 12.972656 C 86.699219 12.664062 86.789062 12.269531 86.96875 11.800781 L 87.535156 10.355469 L 92.191406 10.355469 L 92.898438 12.183594 C 93.132812 12.796875 93.175781 12.933594 93.183594 12.980469 C 93.222656 13.113281 93.242188 13.253906 93.242188 13.386719 C 93.242188 13.632812 93.15625 13.828125 92.988281 13.960938 C 92.765625 14.132812 92.398438 14.214844 91.871094 14.214844 L 91.742188 14.214844 Z M 97.890625 14.597656 L 91.492188 14.597656 L 91.492188 13.964844 L 91.871094 13.964844 C 92.335938 13.964844 92.660156 13.898438 92.835938 13.765625 C 92.941406 13.679688 92.992188 13.554688 92.992188 13.386719 C 92.992188 13.277344 92.976562 13.160156 92.941406 13.039062 C 92.933594 13 92.890625 12.859375 92.664062 12.273438 L 92.019531 10.605469 L 87.703125 10.605469 L 87.203125 11.890625 C 87.03125 12.328125 86.949219 12.695312 86.949219 12.972656 C 86.949219 13.324219 87.070312 13.574219 87.320312 13.738281 C 87.425781 13.804688 87.714844 13.898438 88.511719 13.964844 L 88.625 13.976562 L 88.625 14.597656 L 84.148438 14.597656 L 84.148438 13.984375 L 84.253906 13.96875 C 84.675781 13.898438 85.03125 13.699219 85.304688 13.382812 C 85.589844 13.054688 85.945312 12.355469 86.371094 11.304688 L 90.945312 0.03125 L 91.292969 0.03125 L 95.90625 11.613281 C 96.332031 12.683594 96.6875 13.359375 96.957031 13.632812 C 97.144531 13.820312 97.421875 13.933594 97.777344 13.964844 L 97.890625 13.976562 L 97.890625 14.597656 "/>
</g>
<g clip-path="url(#clip10)" clip-rule="nonzero">
<path style=" stroke:none;fill-rule:nonzero;fill:rgb(92.138672%,40.827942%,11.009216%);fill-opacity:1;" d="M 105.007812 14.089844 L 105.007812 14.472656 L 98.363281 14.472656 L 98.363281 14.089844 L 98.785156 14.089844 C 99.15625 14.089844 99.453125 14.019531 99.675781 13.875 C 99.839844 13.777344 99.964844 13.613281 100.050781 13.378906 C 100.121094 13.210938 100.152344 12.777344 100.152344 12.074219 L 100.152344 2.847656 C 100.152344 2.128906 100.121094 1.683594 100.050781 1.503906 C 99.980469 1.324219 99.84375 1.167969 99.636719 1.03125 C 99.425781 0.898438 99.144531 0.832031 98.785156 0.832031 L 98.363281 0.832031 L 98.363281 0.449219 L 105.007812 0.449219 L 105.007812 0.832031 L 104.585938 0.832031 C 104.21875 0.832031 103.921875 0.902344 103.695312 1.046875 C 103.53125 1.144531 103.40625 1.308594 103.3125 1.542969 C 103.242188 1.710938 103.210938 2.144531 103.210938 2.847656 L 103.210938 12.074219 C 103.210938 12.792969 103.242188 13.238281 103.316406 13.417969 C 103.386719 13.597656 103.527344 13.753906 103.738281 13.890625 C 103.945312 14.023438 104.230469 14.089844 104.585938 14.089844 L 105.007812 14.089844 "/>
<path style=" stroke:none;fill-rule:nonzero;fill:rgb(6.266785%,5.734253%,5.047607%);fill-opacity:1;" d="M 98.488281 14.347656 L 104.882812 14.347656 L 104.882812 14.214844 L 104.585938 14.214844 C 104.207031 14.214844 103.898438 14.140625 103.671875 13.996094 C 103.4375 13.847656 103.28125 13.667969 103.199219 13.464844 C 103.148438 13.339844 103.085938 13.0625 103.085938 12.074219 L 103.085938 2.847656 C 103.085938 1.878906 103.148438 1.613281 103.195312 1.496094 C 103.300781 1.238281 103.445312 1.050781 103.632812 0.941406 C 103.871094 0.785156 104.195312 0.707031 104.585938 0.707031 L 104.882812 0.707031 L 104.882812 0.574219 L 98.488281 0.574219 L 98.488281 0.707031 L 98.785156 0.707031 C 99.164062 0.707031 99.472656 0.78125 99.703125 0.925781 C 99.933594 1.074219 100.089844 1.253906 100.167969 1.457031 C 100.242188 1.652344 100.277344 2.109375 100.277344 2.847656 L 100.277344 12.074219 C 100.277344 13.042969 100.214844 13.308594 100.167969 13.425781 C 100.070312 13.683594 99.925781 13.871094 99.742188 13.980469 C 99.5 14.136719 99.179688 14.214844 98.785156 14.214844 L 98.488281 14.214844 Z M 105.132812 14.597656 L 98.238281 14.597656 L 98.238281 13.964844 L 98.785156 13.964844 C 99.128906 13.964844 99.40625 13.898438 99.609375 13.769531 C 99.75 13.683594 99.855469 13.539062 99.933594 13.332031 C 99.976562 13.226562 100.027344 12.925781 100.027344 12.074219 L 100.027344 2.847656 C 100.027344 1.976562 99.976562 1.660156 99.933594 1.546875 C 99.875 1.394531 99.753906 1.257812 99.566406 1.136719 C 99.378906 1.015625 99.117188 0.957031 98.785156 0.957031 L 98.238281 0.957031 L 98.238281 0.324219 L 105.132812 0.324219 L 105.132812 0.957031 L 104.585938 0.957031 C 104.242188 0.957031 103.96875 1.023438 103.765625 1.152344 C 103.621094 1.238281 103.511719 1.382812 103.429688 1.589844 C 103.386719 1.695312 103.335938 1.996094 103.335938 2.847656 L 103.335938 12.074219 C 103.335938 12.945312 103.386719 13.261719 103.433594 13.371094 C 103.492188 13.527344 103.617188 13.664062 103.804688 13.785156 C 103.992188 13.90625 104.257812 13.964844 104.585938 13.964844 L 105.132812 13.964844 L 105.132812 14.597656 "/>
</g>
<g clip-path="url(#clip11)" clip-rule="nonzero">
<path style=" stroke:none;fill-rule:nonzero;fill:rgb(92.138672%,40.827942%,11.009216%);fill-opacity:1;" d="M 110.542969 1.203125 L 110.542969 7.347656 L 111.078125 7.347656 C 111.945312 7.347656 112.597656 7.257812 113.027344 7.082031 C 113.457031 6.90625 113.796875 6.589844 114.042969 6.132812 C 114.289062 5.671875 114.414062 5.074219 114.414062 4.335938 C 114.414062 3.269531 114.1875 2.480469 113.734375 1.96875 C 113.28125 1.457031 112.550781 1.203125 111.546875 1.203125 Z M 110.542969 8.082031 L 110.542969 12.011719 C 110.542969 12.769531 110.585938 13.25 110.671875 13.445312 C 110.753906 13.640625 110.902344 13.796875 111.117188 13.914062 C 111.328125 14.03125 111.726562 14.089844 112.304688 14.089844 L 112.304688 14.472656 L 105.804688 14.472656 L 105.804688 14.089844 C 106.390625 14.089844 106.789062 14.03125 106.996094 13.910156 C 107.207031 13.789062 107.355469 13.632812 107.4375 13.4375 C 107.523438 13.246094 107.566406 12.769531 107.566406 12.011719 L 107.566406 2.910156 C 107.566406 2.152344 107.523438 1.671875 107.4375 1.476562 C 107.355469 1.28125 107.207031 1.125 106.992188 1.007812 C 106.78125 0.890625 106.386719 0.832031 105.804688 0.832031 L 105.804688 0.449219 L 111.707031 0.449219 C 113.242188 0.449219 114.367188 0.566406 115.078125 0.800781 C 115.789062 1.035156 116.371094 1.464844 116.820312 2.097656 C 117.269531 2.726562 117.496094 3.46875 117.496094 4.316406 C 117.496094 5.351562 117.15625 6.207031 116.484375 6.882812 C 116.054688 7.308594 115.449219 7.628906 114.675781 7.84375 L 117.730469 12.589844 C 118.128906 13.207031 118.414062 13.589844 118.582031 13.738281 C 118.839844 13.953125 119.136719 14.070312 119.472656 14.089844 L 119.472656 14.472656 L 115.472656 14.472656 L 111.378906 8.082031 L 110.542969 8.082031 "/>
<path style=" stroke:none;fill-rule:nonzero;fill:rgb(6.266785%,5.734253%,5.047607%);fill-opacity:1;" d="M 110.667969 7.222656 L 111.078125 7.222656 C 111.925781 7.222656 112.566406 7.136719 112.980469 6.96875 C 113.382812 6.804688 113.703125 6.503906 113.933594 6.074219 C 114.167969 5.632812 114.289062 5.050781 114.289062 4.335938 C 114.289062 3.304688 114.070312 2.535156 113.640625 2.050781 C 113.214844 1.570312 112.511719 1.328125 111.546875 1.328125 L 110.667969 1.328125 Z M 111.078125 7.472656 L 110.417969 7.472656 L 110.417969 1.078125 L 111.546875 1.078125 C 112.585938 1.078125 113.351562 1.347656 113.828125 1.886719 C 114.300781 2.417969 114.539062 3.242188 114.539062 4.335938 C 114.539062 5.09375 114.40625 5.714844 114.152344 6.191406 C 113.894531 6.671875 113.53125 7.011719 113.074219 7.199219 C 112.628906 7.378906 111.960938 7.472656 111.078125 7.472656 Z M 115.539062 14.347656 L 119.347656 14.347656 L 119.347656 14.203125 C 119.03125 14.164062 118.746094 14.039062 118.503906 13.835938 C 118.320312 13.671875 118.035156 13.289062 117.625 12.660156 L 114.480469 7.769531 L 114.644531 7.722656 C 115.394531 7.515625 115.980469 7.203125 116.394531 6.792969 C 117.042969 6.144531 117.371094 5.3125 117.371094 4.316406 C 117.371094 3.5 117.152344 2.777344 116.71875 2.167969 C 116.285156 1.5625 115.722656 1.140625 115.039062 0.917969 C 114.34375 0.6875 113.222656 0.574219 111.707031 0.574219 L 105.929688 0.574219 L 105.929688 0.707031 C 106.46875 0.714844 106.835938 0.777344 107.054688 0.898438 C 107.289062 1.027344 107.460938 1.207031 107.554688 1.429688 C 107.644531 1.644531 107.691406 2.128906 107.691406 2.910156 L 107.691406 12.011719 C 107.691406 12.792969 107.644531 13.277344 107.554688 13.488281 C 107.460938 13.707031 107.292969 13.882812 107.0625 14.019531 C 106.847656 14.140625 106.476562 14.207031 105.929688 14.214844 L 105.929688 14.347656 L 112.179688 14.347656 L 112.179688 14.214844 C 111.640625 14.207031 111.273438 14.144531 111.054688 14.023438 C 110.820312 13.894531 110.648438 13.714844 110.554688 13.492188 C 110.464844 13.28125 110.417969 12.796875 110.417969 12.011719 L 110.417969 7.957031 L 111.445312 7.957031 L 111.484375 8.015625 Z M 119.597656 14.597656 L 115.402344 14.597656 L 115.367188 14.542969 L 111.308594 8.207031 L 110.667969 8.207031 L 110.667969 12.011719 C 110.667969 12.933594 110.730469 13.273438 110.785156 13.394531 C 110.859375 13.566406 110.988281 13.703125 111.175781 13.804688 C 111.367188 13.914062 111.75 13.964844 112.304688 13.964844 L 112.429688 13.964844 L 112.429688 14.597656 L 105.679688 14.597656 L 105.679688 13.964844 L 105.804688 13.964844 C 106.503906 13.964844 106.804688 13.875 106.9375 13.800781 C 107.121094 13.695312 107.25 13.554688 107.324219 13.390625 C 107.378906 13.265625 107.441406 12.929688 107.441406 12.011719 L 107.441406 2.910156 C 107.441406 1.992188 107.378906 1.652344 107.324219 1.527344 C 107.25 1.355469 107.121094 1.21875 106.933594 1.117188 C 106.738281 1.007812 106.359375 0.957031 105.804688 0.957031 L 105.679688 0.957031 L 105.679688 0.324219 L 111.707031 0.324219 C 113.246094 0.324219 114.394531 0.441406 115.117188 0.679688 C 115.851562 0.921875 116.460938 1.375 116.921875 2.023438 C 117.386719 2.675781 117.621094 3.445312 117.621094 4.316406 C 117.621094 5.378906 117.269531 6.273438 116.570312 6.96875 C 116.15625 7.378906 115.585938 7.699219 114.871094 7.917969 L 117.835938 12.523438 C 118.226562 13.125 118.507812 13.503906 118.664062 13.648438 C 118.898438 13.839844 119.167969 13.949219 119.480469 13.964844 L 119.597656 13.972656 L 119.597656 14.597656 "/>
</g>
<g clip-path="url(#clip12)" clip-rule="nonzero">
<path style=" stroke:none;fill-rule:nonzero;fill:rgb(92.138672%,40.827942%,11.009216%);fill-opacity:1;" d="M 131.417969 9.550781 L 130.9375 14.472656 L 119.660156 14.472656 L 119.660156 14.089844 L 120.082031 14.089844 C 120.449219 14.089844 120.746094 14.019531 120.972656 13.875 C 121.132812 13.777344 121.257812 13.613281 121.347656 13.378906 C 121.414062 13.210938 121.449219 12.777344 121.449219 12.074219 L 121.449219 2.847656 C 121.449219 2.128906 121.414062 1.683594 121.347656 1.503906 C 121.277344 1.324219 121.140625 1.167969 120.929688 1.03125 C 120.71875 0.898438 120.4375 0.832031 120.082031 0.832031 L 119.660156 0.832031 L 119.660156 0.449219 L 126.433594 0.449219 L 126.433594 0.832031 L 125.882812 0.832031 C 125.511719 0.832031 125.214844 0.902344 124.992188 1.046875 C 124.828125 1.144531 124.699219 1.308594 124.605469 1.542969 C 124.539062 1.710938 124.503906 2.144531 124.503906 2.847656 L 124.503906 11.785156 C 124.503906 12.5 124.539062 12.957031 124.617188 13.15625 C 124.691406 13.351562 124.839844 13.5 125.058594 13.59375 C 125.210938 13.65625 125.589844 13.6875 126.1875 13.6875 L 127.246094 13.6875 C 127.921875 13.6875 128.484375 13.558594 128.933594 13.292969 C 129.386719 13.03125 129.773438 12.617188 130.101562 12.054688 C 130.429688 11.488281 130.738281 10.652344 131.03125 9.550781 L 131.417969 9.550781 "/>
<path style=" stroke:none;fill-rule:nonzero;fill:rgb(6.266785%,5.734253%,5.047607%);fill-opacity:1;" d="M 119.785156 14.347656 L 130.824219 14.347656 L 131.28125 9.675781 L 131.128906 9.675781 C 130.84375 10.738281 130.53125 11.558594 130.210938 12.117188 C 129.871094 12.699219 129.464844 13.132812 128.996094 13.402344 C 128.53125 13.675781 127.941406 13.8125 127.246094 13.8125 L 126.1875 13.8125 C 125.566406 13.8125 125.183594 13.78125 125.011719 13.710938 C 124.757812 13.597656 124.585938 13.429688 124.5 13.199219 C 124.417969 12.988281 124.378906 12.523438 124.378906 11.785156 L 124.378906 2.847656 C 124.378906 1.878906 124.441406 1.613281 124.492188 1.496094 C 124.59375 1.238281 124.742188 1.050781 124.929688 0.941406 C 125.167969 0.785156 125.488281 0.707031 125.882812 0.707031 L 126.308594 0.707031 L 126.308594 0.574219 L 119.785156 0.574219 L 119.785156 0.707031 L 120.082031 0.707031 C 120.460938 0.707031 120.769531 0.78125 120.996094 0.925781 C 121.226562 1.074219 121.386719 1.253906 121.464844 1.457031 C 121.539062 1.652344 121.574219 2.109375 121.574219 2.847656 L 121.574219 12.074219 C 121.574219 13.042969 121.511719 13.308594 121.460938 13.425781 C 121.367188 13.683594 121.222656 13.871094 121.035156 13.980469 C 120.796875 14.136719 120.472656 14.214844 120.082031 14.214844 L 119.785156 14.214844 Z M 131.054688 14.597656 L 119.535156 14.597656 L 119.535156 13.964844 L 120.082031 13.964844 C 120.425781 13.964844 120.699219 13.898438 120.902344 13.769531 C 121.042969 13.683594 121.152344 13.539062 121.230469 13.332031 C 121.273438 13.226562 121.324219 12.925781 121.324219 12.074219 L 121.324219 2.847656 C 121.324219 1.976562 121.273438 1.660156 121.230469 1.546875 C 121.171875 1.394531 121.046875 1.257812 120.863281 1.136719 C 120.675781 1.015625 120.410156 0.957031 120.082031 0.957031 L 119.535156 0.957031 L 119.535156 0.324219 L 126.558594 0.324219 L 126.558594 0.957031 L 125.882812 0.957031 C 125.539062 0.957031 125.261719 1.023438 125.058594 1.152344 C 124.917969 1.238281 124.804688 1.382812 124.722656 1.589844 C 124.679688 1.695312 124.628906 1.996094 124.628906 2.847656 L 124.628906 11.785156 C 124.628906 12.65625 124.6875 12.984375 124.734375 13.109375 C 124.796875 13.277344 124.917969 13.398438 125.105469 13.480469 C 125.199219 13.515625 125.464844 13.5625 126.1875 13.5625 L 127.246094 13.5625 C 127.898438 13.5625 128.445312 13.4375 128.871094 13.1875 C 129.300781 12.9375 129.679688 12.535156 129.992188 11.992188 C 130.3125 11.4375 130.625 10.605469 130.910156 9.519531 L 130.9375 9.425781 L 131.554688 9.425781 L 131.054688 14.597656 "/>
</g>
<g clip-path="url(#clip13)" clip-rule="nonzero">
<path style=" stroke:none;fill-rule:nonzero;fill:rgb(92.138672%,40.827942%,11.009216%);fill-opacity:1;" d="M 139.128906 14.089844 L 139.128906 14.472656 L 132.484375 14.472656 L 132.484375 14.089844 L 132.90625 14.089844 C 133.273438 14.089844 133.570312 14.019531 133.796875 13.875 C 133.960938 13.777344 134.085938 13.613281 134.171875 13.378906 C 134.238281 13.210938 134.273438 12.777344 134.273438 12.074219 L 134.273438 2.847656 C 134.273438 2.128906 134.238281 1.683594 134.171875 1.503906 C 134.105469 1.324219 133.964844 1.167969 133.753906 1.03125 C 133.546875 0.898438 133.265625 0.832031 132.90625 0.832031 L 132.484375 0.832031 L 132.484375 0.449219 L 139.128906 0.449219 L 139.128906 0.832031 L 138.707031 0.832031 C 138.339844 0.832031 138.039062 0.902344 137.816406 1.046875 C 137.652344 1.144531 137.527344 1.308594 137.433594 1.542969 C 137.363281 1.710938 137.328125 2.144531 137.328125 2.847656 L 137.328125 12.074219 C 137.328125 12.792969 137.363281 13.238281 137.4375 13.417969 C 137.507812 13.597656 137.648438 13.753906 137.859375 13.890625 C 138.066406 14.023438 138.351562 14.089844 138.707031 14.089844 L 139.128906 14.089844 "/>
<path style=" stroke:none;fill-rule:nonzero;fill:rgb(6.266785%,5.734253%,5.047607%);fill-opacity:1;" d="M 132.609375 14.347656 L 139.003906 14.347656 L 139.003906 14.214844 L 138.707031 14.214844 C 138.328125 14.214844 138.019531 14.140625 137.789062 13.996094 C 137.5625 13.847656 137.402344 13.667969 137.320312 13.464844 C 137.242188 13.269531 137.203125 12.8125 137.203125 12.074219 L 137.203125 2.847656 C 137.203125 1.878906 137.269531 1.613281 137.316406 1.496094 C 137.421875 1.238281 137.566406 1.050781 137.753906 0.941406 C 137.992188 0.785156 138.3125 0.707031 138.707031 0.707031 L 139.003906 0.707031 L 139.003906 0.574219 L 132.609375 0.574219 L 132.609375 0.707031 L 132.90625 0.707031 C 133.285156 0.707031 133.59375 0.78125 133.820312 0.925781 C 134.054688 1.074219 134.210938 1.253906 134.289062 1.457031 C 134.363281 1.65625 134.398438 2.109375 134.398438 2.847656 L 134.398438 12.074219 C 134.398438 12.796875 134.363281 13.242188 134.285156 13.425781 C 134.191406 13.679688 134.050781 13.871094 133.859375 13.980469 C 133.621094 14.136719 133.300781 14.214844 132.90625 14.214844 L 132.609375 14.214844 Z M 139.253906 14.597656 L 132.359375 14.597656 L 132.359375 13.964844 L 132.90625 13.964844 C 133.25 13.964844 133.527344 13.898438 133.730469 13.769531 C 133.871094 13.683594 133.980469 13.539062 134.054688 13.335938 C 134.101562 13.226562 134.148438 12.921875 134.148438 12.074219 L 134.148438 2.847656 C 134.148438 1.980469 134.097656 1.660156 134.054688 1.546875 C 133.996094 1.394531 133.871094 1.257812 133.6875 1.136719 C 133.5 1.015625 133.238281 0.957031 132.90625 0.957031 L 132.359375 0.957031 L 132.359375 0.324219 L 139.253906 0.324219 L 139.253906 0.957031 L 138.707031 0.957031 C 138.363281 0.957031 138.085938 1.023438 137.882812 1.152344 C 137.742188 1.238281 137.632812 1.378906 137.550781 1.589844 C 137.503906 1.695312 137.453125 1.996094 137.453125 2.847656 L 137.453125 12.074219 C 137.453125 12.941406 137.507812 13.257812 137.554688 13.371094 C 137.613281 13.527344 137.738281 13.664062 137.925781 13.785156 C 138.113281 13.90625 138.375 13.964844 138.707031 13.964844 L 139.253906 13.964844 L 139.253906 14.597656 "/>
</g>
<g clip-path="url(#clip14)" clip-rule="nonzero">
<path style=" stroke:none;fill-rule:nonzero;fill:rgb(92.138672%,40.827942%,11.009216%);fill-opacity:1;" d="M 144.347656 0.449219 L 150.613281 9.148438 L 150.613281 3.117188 C 150.613281 2.273438 150.503906 1.707031 150.285156 1.410156 C 149.984375 1.007812 149.484375 0.816406 148.777344 0.832031 L 148.777344 0.449219 L 152.976562 0.449219 L 152.976562 0.832031 C 152.4375 0.90625 152.078125 1.003906 151.894531 1.125 C 151.710938 1.246094 151.566406 1.441406 151.460938 1.714844 C 151.359375 1.988281 151.308594 2.453125 151.308594 3.117188 L 151.308594 14.792969 L 150.988281 14.792969 L 142.398438 3.117188 L 142.398438 12.03125 C 142.398438 12.839844 142.5625 13.382812 142.898438 13.667969 C 143.234375 13.949219 143.617188 14.089844 144.046875 14.089844 L 144.347656 14.089844 L 144.347656 14.472656 L 139.839844 14.472656 L 139.839844 14.089844 C 140.539062 14.085938 141.027344 13.925781 141.300781 13.617188 C 141.574219 13.304688 141.714844 12.777344 141.714844 12.03125 L 141.714844 2.132812 L 141.441406 1.761719 C 141.175781 1.390625 140.9375 1.144531 140.730469 1.027344 C 140.523438 0.910156 140.226562 0.84375 139.839844 0.832031 L 139.839844 0.449219 L 144.347656 0.449219 "/>
</g>
<g clip-path="url(#clip15)" clip-rule="nonzero">
<path style=" stroke:none;fill-rule:nonzero;fill:rgb(6.266785%,5.734253%,5.047607%);fill-opacity:1;" d="M 151.054688 14.667969 L 151.183594 14.667969 L 151.183594 3.117188 C 151.183594 2.433594 151.234375 1.960938 151.34375 1.671875 C 151.457031 1.375 151.617188 1.15625 151.824219 1.019531 C 152.015625 0.898438 152.351562 0.800781 152.851562 0.722656 L 152.851562 0.574219 L 148.902344 0.574219 L 148.902344 0.703125 C 149.582031 0.714844 150.082031 0.925781 150.386719 1.335938 C 150.625 1.65625 150.738281 2.238281 150.738281 3.117188 L 150.738281 9.535156 L 144.28125 0.574219 L 139.964844 0.574219 L 139.964844 0.710938 C 140.316406 0.734375 140.589844 0.800781 140.792969 0.917969 C 141.015625 1.046875 141.261719 1.296875 141.542969 1.6875 L 141.839844 2.09375 L 141.839844 12.03125 C 141.839844 12.816406 141.691406 13.359375 141.394531 13.699219 C 141.113281 14.015625 140.632812 14.1875 139.964844 14.214844 L 139.964844 14.347656 L 144.222656 14.347656 L 144.222656 14.214844 L 144.046875 14.214844 C 143.585938 14.214844 143.175781 14.0625 142.816406 13.761719 C 142.449219 13.453125 142.273438 12.886719 142.273438 12.03125 L 142.273438 2.734375 Z M 151.433594 14.917969 L 150.925781 14.917969 L 150.890625 14.867188 L 142.523438 3.496094 L 142.523438 12.03125 C 142.523438 12.796875 142.675781 13.316406 142.980469 13.570312 C 143.289062 13.832031 143.648438 13.964844 144.046875 13.964844 L 144.472656 13.964844 L 144.472656 14.597656 L 139.714844 14.597656 L 139.714844 13.96875 L 139.839844 13.964844 C 140.496094 13.960938 140.957031 13.8125 141.207031 13.53125 C 141.460938 13.246094 141.589844 12.742188 141.589844 12.03125 L 141.589844 2.175781 L 141.34375 1.835938 C 141.085938 1.476562 140.855469 1.242188 140.667969 1.136719 C 140.480469 1.027344 140.199219 0.96875 139.835938 0.957031 L 139.714844 0.949219 L 139.714844 0.324219 L 144.410156 0.324219 L 144.449219 0.375 L 150.488281 8.757812 L 150.488281 3.117188 C 150.488281 2.304688 150.386719 1.757812 150.1875 1.484375 C 149.921875 1.132812 149.472656 0.953125 148.847656 0.953125 C 148.824219 0.953125 148.804688 0.953125 148.78125 0.957031 L 148.652344 0.957031 L 148.652344 0.324219 L 153.101562 0.324219 L 153.101562 0.9375 L 152.992188 0.953125 C 152.351562 1.042969 152.078125 1.152344 151.960938 1.230469 C 151.800781 1.335938 151.671875 1.511719 151.578125 1.757812 C 151.480469 2.015625 151.433594 2.472656 151.433594 3.117188 L 151.433594 14.917969 "/>
</g>
<g clip-path="url(#clip16)" clip-rule="nonzero">
<path style=" stroke:none;fill-rule:nonzero;fill:rgb(92.138672%,40.827942%,11.009216%);fill-opacity:1;" d="M 158.652344 1.253906 L 158.652344 6.964844 L 158.90625 6.964844 C 159.710938 6.964844 160.296875 6.683594 160.65625 6.125 C 161.019531 5.566406 161.25 4.742188 161.351562 3.652344 L 161.707031 3.652344 L 161.707031 11 L 161.351562 11 C 161.273438 10.199219 161.117188 9.542969 160.878906 9.03125 C 160.636719 8.523438 160.355469 8.179688 160.039062 8.003906 C 159.722656 7.828125 159.257812 7.738281 158.652344 7.738281 L 158.652344 11.691406 C 158.652344 12.464844 158.683594 12.9375 158.742188 13.109375 C 158.800781 13.28125 158.910156 13.421875 159.074219 13.53125 C 159.234375 13.644531 159.5 13.699219 159.859375 13.699219 L 160.621094 13.699219 C 161.808594 13.699219 162.757812 13.394531 163.472656 12.789062 C 164.1875 12.179688 164.699219 11.257812 165.015625 10.015625 L 165.359375 10.015625 L 164.789062 14.472656 L 153.808594 14.472656 L 153.808594 14.089844 L 154.230469 14.089844 C 154.597656 14.089844 154.894531 14.019531 155.121094 13.875 C 155.28125 13.777344 155.40625 13.613281 155.496094 13.378906 C 155.5625 13.210938 155.597656 12.777344 155.597656 12.074219 L 155.597656 2.847656 C 155.597656 2.210938 155.582031 1.824219 155.550781 1.679688 C 155.488281 1.4375 155.371094 1.25 155.203125 1.121094 C 154.96875 0.925781 154.644531 0.832031 154.230469 0.832031 L 153.808594 0.832031 L 153.808594 0.449219 L 164.441406 0.449219 L 164.441406 4.59375 L 164.085938 4.59375 C 163.90625 3.582031 163.648438 2.855469 163.324219 2.414062 C 162.996094 1.972656 162.53125 1.648438 161.933594 1.441406 C 161.582031 1.316406 160.925781 1.253906 159.964844 1.253906 L 158.652344 1.253906 "/>
<path style=" stroke:none;fill-rule:nonzero;fill:rgb(6.266785%,5.734253%,5.047607%);fill-opacity:1;" d="M 153.933594 14.347656 L 164.679688 14.347656 L 165.21875 10.140625 L 165.109375 10.140625 C 164.789062 11.355469 164.265625 12.277344 163.554688 12.882812 C 162.820312 13.507812 161.832031 13.824219 160.621094 13.824219 L 159.859375 13.824219 C 159.46875 13.824219 159.1875 13.761719 159.003906 13.636719 C 158.820312 13.511719 158.691406 13.347656 158.621094 13.148438 C 158.582031 13.03125 158.527344 12.75 158.527344 11.691406 L 158.527344 7.613281 L 158.652344 7.613281 C 159.277344 7.613281 159.765625 7.707031 160.101562 7.894531 C 160.4375 8.082031 160.738281 8.445312 160.992188 8.980469 C 161.226562 9.476562 161.382812 10.113281 161.464844 10.875 L 161.582031 10.875 L 161.582031 3.777344 L 161.464844 3.777344 C 161.355469 4.828125 161.121094 5.640625 160.761719 6.195312 C 160.378906 6.789062 159.753906 7.089844 158.90625 7.089844 L 158.527344 7.089844 L 158.527344 1.128906 L 159.964844 1.128906 C 160.949219 1.128906 161.605469 1.191406 161.972656 1.324219 C 162.59375 1.535156 163.082031 1.878906 163.425781 2.339844 C 163.75 2.777344 164.007812 3.496094 164.191406 4.46875 L 164.316406 4.46875 L 164.316406 0.574219 L 153.933594 0.574219 L 153.933594 0.707031 L 154.230469 0.707031 C 154.671875 0.707031 155.023438 0.8125 155.285156 1.023438 C 155.472656 1.167969 155.605469 1.378906 155.671875 1.648438 C 155.707031 1.808594 155.722656 2.199219 155.722656 2.847656 L 155.722656 12.074219 C 155.722656 12.796875 155.6875 13.242188 155.609375 13.425781 C 155.515625 13.679688 155.371094 13.871094 155.183594 13.980469 C 154.945312 14.136719 154.621094 14.214844 154.230469 14.214844 L 153.933594 14.214844 Z M 164.898438 14.597656 L 153.683594 14.597656 L 153.683594 13.964844 L 154.230469 13.964844 C 154.574219 13.964844 154.851562 13.898438 155.054688 13.769531 C 155.191406 13.683594 155.300781 13.539062 155.378906 13.335938 C 155.421875 13.226562 155.472656 12.921875 155.472656 12.074219 L 155.472656 2.847656 C 155.472656 2.070312 155.449219 1.796875 155.429688 1.703125 C 155.375 1.496094 155.273438 1.332031 155.128906 1.21875 C 154.914062 1.042969 154.613281 0.957031 154.230469 0.957031 L 153.683594 0.957031 L 153.683594 0.324219 L 164.566406 0.324219 L 164.566406 4.71875 L 163.980469 4.71875 L 163.964844 4.617188 C 163.785156 3.628906 163.539062 2.914062 163.222656 2.488281 C 162.910156 2.070312 162.464844 1.757812 161.890625 1.558594 C 161.554688 1.4375 160.90625 1.378906 159.964844 1.378906 L 158.777344 1.378906 L 158.777344 6.839844 L 158.90625 6.839844 C 159.671875 6.839844 160.210938 6.582031 160.554688 6.058594 C 160.902344 5.519531 161.128906 4.707031 161.226562 3.644531 L 161.234375 3.527344 L 161.832031 3.527344 L 161.832031 11.125 L 161.234375 11.125 L 161.226562 11.011719 C 161.152344 10.226562 160.996094 9.578125 160.765625 9.085938 C 160.535156 8.601562 160.269531 8.273438 159.980469 8.113281 C 159.703125 7.960938 159.300781 7.878906 158.777344 7.867188 L 158.777344 11.691406 C 158.777344 12.632812 158.820312 12.960938 158.859375 13.066406 C 158.910156 13.214844 159.003906 13.332031 159.144531 13.429688 C 159.285156 13.523438 159.527344 13.574219 159.859375 13.574219 L 160.621094 13.574219 C 161.769531 13.574219 162.703125 13.277344 163.390625 12.691406 C 164.082031 12.105469 164.589844 11.195312 164.894531 9.984375 L 164.914062 9.890625 L 165.503906 9.890625 L 165.484375 10.03125 L 164.898438 14.597656 "/>
</g>
<g clip-path="url(#clip17)" clip-rule="nonzero">
<path style=" stroke:none;fill-rule:nonzero;fill:rgb(92.138672%,40.827942%,11.009216%);fill-opacity:1;" d="M 175.234375 0.125 L 175.339844 4.800781 L 174.953125 4.800781 C 174.773438 3.628906 174.328125 2.6875 173.617188 1.972656 C 172.910156 1.257812 172.144531 0.902344 171.320312 0.902344 C 170.683594 0.902344 170.179688 1.089844 169.804688 1.464844 C 169.433594 1.84375 169.246094 2.273438 169.246094 2.765625 C 169.246094 3.074219 169.3125 3.351562 169.445312 3.59375 C 169.625 3.917969 169.917969 4.238281 170.316406 4.554688 C 170.609375 4.78125 171.289062 5.183594 172.351562 5.765625 C 173.835938 6.570312 174.839844 7.332031 175.355469 8.050781 C 175.867188 8.765625 176.125 9.589844 176.125 10.511719 C 176.125 11.683594 175.710938 12.691406 174.882812 13.539062 C 174.054688 14.382812 173.003906 14.804688 171.730469 14.804688 C 171.332031 14.804688 170.953125 14.761719 170.597656 14.671875 C 170.242188 14.582031 169.796875 14.410156 169.257812 14.164062 C 168.957031 14.027344 168.710938 13.957031 168.519531 13.957031 C 168.355469 13.957031 168.183594 14.027344 168.003906 14.164062 C 167.820312 14.300781 167.675781 14.511719 167.5625 14.792969 L 167.214844 14.792969 L 167.214844 9.5 L 167.5625 9.5 C 167.835938 10.988281 168.367188 12.125 169.148438 12.90625 C 169.933594 13.6875 170.777344 14.082031 171.683594 14.082031 C 172.382812 14.082031 172.941406 13.871094 173.355469 13.449219 C 173.769531 13.027344 173.980469 12.539062 173.980469 11.980469 C 173.980469 11.648438 173.898438 11.328125 173.742188 11.019531 C 173.582031 10.707031 173.339844 10.414062 173.015625 10.132812 C 172.6875 9.855469 172.113281 9.492188 171.289062 9.042969 C 170.136719 8.414062 169.304688 7.882812 168.800781 7.441406 C 168.292969 7 167.902344 6.503906 167.632812 5.960938 C 167.359375 5.414062 167.226562 4.816406 167.226562 4.160156 C 167.226562 3.042969 167.597656 2.09375 168.339844 1.304688 C 169.082031 0.519531 170.019531 0.125 171.148438 0.125 C 171.5625 0.125 171.960938 0.183594 172.351562 0.292969 C 172.644531 0.375 173 0.527344 173.421875 0.753906 C 173.84375 0.976562 174.140625 1.089844 174.308594 1.089844 C 174.46875 1.089844 174.597656 1.035156 174.691406 0.921875 C 174.785156 0.8125 174.871094 0.546875 174.953125 0.125 L 175.234375 0.125 "/>
<path style=" stroke:none;fill-rule:nonzero;fill:rgb(6.266785%,5.734253%,5.047607%);fill-opacity:1;" d="M 168.519531 13.832031 C 168.730469 13.832031 168.988281 13.902344 169.308594 14.050781 C 169.839844 14.292969 170.28125 14.460938 170.628906 14.550781 C 170.972656 14.636719 171.34375 14.679688 171.730469 14.679688 C 172.964844 14.679688 173.996094 14.265625 174.796875 13.449219 C 175.59375 12.632812 176 11.644531 176 10.511719 C 176 9.617188 175.75 8.816406 175.253906 8.121094 C 174.75 7.425781 173.753906 6.667969 172.289062 5.875 C 171.210938 5.285156 170.539062 4.886719 170.238281 4.652344 C 169.828125 4.324219 169.523438 3.988281 169.335938 3.652344 C 169.195312 3.390625 169.121094 3.09375 169.121094 2.765625 C 169.121094 2.246094 169.324219 1.777344 169.71875 1.378906 C 170.109375 0.980469 170.648438 0.777344 171.320312 0.777344 C 172.175781 0.777344 172.976562 1.148438 173.707031 1.886719 C 174.410156 2.59375 174.863281 3.53125 175.0625 4.675781 L 175.210938 4.675781 L 175.113281 0.25 L 175.058594 0.25 C 174.976562 0.644531 174.890625 0.882812 174.785156 1.003906 C 174.667969 1.144531 174.507812 1.214844 174.308594 1.214844 C 174.117188 1.214844 173.808594 1.097656 173.363281 0.863281 C 172.953125 0.644531 172.601562 0.492188 172.316406 0.414062 C 171.941406 0.304688 171.550781 0.25 171.148438 0.25 C 170.0625 0.25 169.144531 0.636719 168.429688 1.390625 C 167.714844 2.152344 167.351562 3.082031 167.351562 4.160156 C 167.351562 4.792969 167.480469 5.378906 167.742188 5.90625 C 168.007812 6.433594 168.390625 6.917969 168.882812 7.34375 C 169.375 7.777344 170.207031 8.3125 171.351562 8.933594 C 172.179688 9.382812 172.765625 9.753906 173.097656 10.039062 C 173.429688 10.328125 173.6875 10.636719 173.851562 10.960938 C 174.019531 11.289062 174.105469 11.632812 174.105469 11.980469 C 174.105469 12.570312 173.882812 13.09375 173.445312 13.539062 C 173.007812 13.980469 172.414062 14.207031 171.683594 14.207031 C 170.746094 14.207031 169.867188 13.796875 169.0625 12.996094 C 168.28125 12.214844 167.742188 11.082031 167.460938 9.625 L 167.339844 9.625 L 167.339844 14.667969 L 167.480469 14.667969 C 167.597656 14.40625 167.746094 14.203125 167.925781 14.0625 C 168.128906 13.910156 168.328125 13.832031 168.519531 13.832031 Z M 171.730469 14.929688 C 171.324219 14.929688 170.933594 14.882812 170.566406 14.792969 C 170.207031 14.699219 169.746094 14.527344 169.203125 14.277344 C 168.925781 14.148438 168.691406 14.082031 168.519531 14.082031 C 168.382812 14.082031 168.234375 14.144531 168.078125 14.261719 C 167.917969 14.386719 167.78125 14.582031 167.679688 14.839844 L 167.648438 14.917969 L 167.089844 14.917969 L 167.089844 9.375 L 167.667969 9.375 L 167.6875 9.476562 C 167.953125 10.933594 168.476562 12.058594 169.238281 12.816406 C 169.992188 13.574219 170.816406 13.957031 171.683594 13.957031 C 172.347656 13.957031 172.878906 13.757812 173.269531 13.363281 C 173.65625 12.96875 173.855469 12.503906 173.855469 11.980469 C 173.855469 11.671875 173.777344 11.367188 173.628906 11.074219 C 173.476562 10.78125 173.242188 10.496094 172.933594 10.230469 C 172.613281 9.957031 172.042969 9.59375 171.230469 9.152344 C 170.070312 8.523438 169.226562 7.976562 168.71875 7.535156 C 168.199219 7.085938 167.800781 6.574219 167.519531 6.015625 C 167.242188 5.457031 167.101562 4.832031 167.101562 4.160156 C 167.101562 3.015625 167.484375 2.027344 168.25 1.21875 C 169.015625 0.410156 169.988281 0 171.148438 0 C 171.570312 0 171.984375 0.0585938 172.382812 0.171875 C 172.6875 0.257812 173.054688 0.417969 173.480469 0.640625 C 173.980469 0.90625 174.207031 0.964844 174.308594 0.964844 C 174.433594 0.964844 174.527344 0.925781 174.597656 0.84375 C 174.640625 0.789062 174.730469 0.625 174.832031 0.101562 L 174.851562 0 L 175.355469 0 L 175.464844 4.925781 L 174.847656 4.925781 L 174.832031 4.820312 C 174.652344 3.679688 174.214844 2.75 173.53125 2.0625 C 172.847656 1.375 172.105469 1.027344 171.320312 1.027344 C 170.710938 1.027344 170.246094 1.199219 169.894531 1.554688 C 169.542969 1.910156 169.371094 2.304688 169.371094 2.765625 C 169.371094 3.050781 169.433594 3.308594 169.554688 3.53125 C 169.726562 3.839844 170.007812 4.148438 170.394531 4.457031 C 170.679688 4.675781 171.359375 5.082031 172.410156 5.65625 C 173.902344 6.464844 174.929688 7.246094 175.457031 7.976562 C 175.984375 8.710938 176.25 9.566406 176.25 10.511719 C 176.25 11.710938 175.820312 12.761719 174.972656 13.625 C 174.125 14.492188 173.035156 14.929688 171.730469 14.929688 "/>
</g>
</g>
</svg>
