<svg xmlns="http://www.w3.org/2000/svg" width="235" height="19.907" viewBox="0 0 176.25 14.93"><defs><clipPath id="a"><path d="M0 0h12v14.93H0Zm0 0"/></clipPath><clipPath id="b"><path d="M12 0h16v14.93H12Zm0 0"/></clipPath><clipPath id="c"><path d="M27 0h14v14.93H27Zm0 0"/></clipPath><clipPath id="d"><path d="M27 0h15v14.93H27Zm0 0"/></clipPath><clipPath id="e"><path d="M41 0h13v14.93H41Zm0 0"/></clipPath><clipPath id="f"><path d="M52 0h15v14.93H52Zm0 0"/></clipPath><clipPath id="g"><path d="M66 0h14v14.93H66Zm0 0"/></clipPath><clipPath id="h"><path d="M66 0h15v14.93H66Zm0 0"/></clipPath><clipPath id="i"><path d="M84 0h14v14.93H84Zm0 0"/></clipPath><clipPath id="j"><path d="M98 0h8v14.93h-8Zm0 0"/></clipPath><clipPath id="k"><path d="M105 0h15v14.93h-15Zm0 0"/></clipPath><clipPath id="l"><path d="M119 0h13v14.93h-13Zm0 0"/></clipPath><clipPath id="m"><path d="M132 0h8v14.93h-8Zm0 0"/></clipPath><clipPath id="n"><path d="M139 0h14v14.93h-14Zm0 0"/></clipPath><clipPath id="o"><path d="M139 0h15v14.93h-15Zm0 0"/></clipPath><clipPath id="p"><path d="M153 0h13v14.93h-13Zm0 0"/></clipPath><clipPath id="q"><path d="M167 0h9.25v14.93H167Zm0 0"/></clipPath></defs><g clip-path="url(#a)"><path d="M4.848 6.758q1.329 0 1.96-.332.634-.33.973-.93.335-.601.336-1.531-.002-.932-.332-1.527a2.2 2.2 0 0 0-.953-.903q-.617-.311-1.984-.3Zm0 .805v4.5l-.012.519q0 .556.258.844.257.28.765.281.75.001 1.383-.367c.422-.242.742-.598.969-1.063.223-.468.336-.984.336-1.558q0-.983-.41-1.762Q7.72 8.173 7 7.863c-.48-.207-1.2-.304-2.152-.3m3.41-.528q1.805.468 2.539 1.13 1.049.941 1.047 2.44.001 1.581-1.153 2.618-1.412 1.249-4.109 1.25H.125v-.383q.879 0 1.195-.18.312-.18.442-.473.124-.287.125-1.425V2.91q-.001-1.139-.125-1.433a1 1 0 0 0-.446-.47Q.996.834.125.833V.449h6.09q2.18-.002 3.09.426c.61.29 1.086.715 1.433 1.285q.528.85.528 1.817 0 1.013-.668 1.804-.664.792-2.34 1.254" style="stroke:none;fill-rule:nonzero;fill:#f9cf08;fill-opacity:1"/><path d="M4.973 1.36v5.273c.797-.012 1.394-.117 1.777-.317a2.2 2.2 0 0 0 .922-.882c.21-.38.32-.875.32-1.47 0-.597-.105-1.089-.316-1.464a2.1 2.1 0 0 0-.899-.855c-.375-.188-.98-.286-1.804-.286m-.125 5.523h-.125V1.109h.12c.954-.007 1.614.094 2.048.313q.651.33 1.004.957.346.623.347 1.586c0 .637-.12 1.176-.355 1.59-.235.422-.578.75-1.02.98-.437.23-1.117.348-2.02.348m.125.805-.012 4.894c0 .336.078.594.226.758.145.16.372.242.672.242.473 0 .918-.117 1.317-.348s.71-.574.922-1.011c.214-.446.324-.953.324-1.504q0-.95-.399-1.707c-.257-.489-.62-.84-1.07-1.032-.441-.19-1.11-.289-1.98-.293m.886 6.144q-.562-.002-.855-.324c-.195-.211-.293-.524-.293-.926l.012-.52v-4.62l.12-.005h.095c.925 0 1.636.106 2.113.313.504.219.906.602 1.195 1.148.281.536.426 1.149.426 1.82a3.7 3.7 0 0 1-.348 1.61 2.56 2.56 0 0 1-1.02 1.121 2.86 2.86 0 0 1-1.445.383m-5.609.516h6.332c1.758 0 3.113-.41 4.027-1.22.739-.66 1.11-1.51 1.11-2.523 0-.957-.336-1.75-1.008-2.347-.469-.426-1.305-.797-2.484-1.102l-.454-.117.45-.125c1.09-.3 1.855-.71 2.28-1.215.423-.5.638-1.082.638-1.722 0-.618-.172-1.207-.508-1.75-.336-.547-.801-.961-1.38-1.239C8.669.711 7.646.574 6.216.574H.25v.133c.54.008.906.07 1.125.191q.358.196.5.532c.09.21.137.695.137 1.48v9.102c0 .785-.047 1.265-.137 1.476a1.15 1.15 0 0 1-.492.532c-.215.12-.586.187-1.133.195Zm6.332.25H0v-.633h.125c.7 0 1-.09 1.133-.164a.87.87 0 0 0 .387-.41c.054-.121.117-.461.117-1.38v-9.1c0-.923-.063-1.263-.117-1.384a.83.83 0 0 0-.391-.41c-.191-.11-.57-.16-1.129-.16H0V.324h6.215c1.488 0 2.515.145 3.144.442a3.45 3.45 0 0 1 1.489 1.328c.359.586.543 1.219.543 1.883 0 .699-.235 1.336-.696 1.882-.398.477-1.066.871-1.988 1.172q1.508.44 2.172 1.04c.723.652 1.09 1.503 1.09 2.534 0 1.086-.399 2-1.192 2.711-.964.852-2.375 1.282-4.195 1.282" style="stroke:none;fill-rule:nonzero;fill:#100f0d;fill-opacity:1"/></g><g clip-path="url(#b)"><path d="M17.766 7.73v4.344c0 .719.035 1.164.109 1.344q.105.269.422.473.312.199.848.199h.421v.383h-6.644v-.383h.422c.37 0 .664-.07.89-.215q.247-.146.375-.496.101-.251.102-1.305V2.848c0-.72-.035-1.164-.102-1.344q-.103-.269-.418-.473-.312-.2-.847-.199h-.422V.449h6.644v.383h-.421q-.557-.001-.891.215c-.164.098-.29.262-.387.496q-.1.251-.101 1.305V6.82h4.488V2.848c0-.72-.035-1.164-.102-1.344q-.105-.269-.422-.473-.322-.2-.855-.199h-.41V.449h6.633v.383h-.414c-.375 0-.668.07-.887.215q-.246.146-.387.496-.1.251-.101 1.305v9.226c0 .719.035 1.164.101 1.344q.105.269.422.473.317.199.852.199h.414v.383h-6.633v-.383h.41q.563.001.89-.215.248-.146.387-.496.101-.251.102-1.305V7.73z" style="stroke:none;fill-rule:nonzero;fill:#f9cf08;fill-opacity:1"/><path d="M20.59 14.348h6.383v-.133h-.29c-.374 0-.687-.074-.917-.219-.235-.148-.395-.328-.473-.531-.074-.2-.11-.64-.11-1.39V2.847c0-.97.063-1.235.114-1.352.101-.258.25-.445.433-.555q.354-.234.954-.234h.289V.574H20.59v.133h.285q.57 0 .922.219c.234.148.394.328.473.531.074.2.109.652.109 1.39v4.098H17.64V2.848c0-.97.066-1.235.113-1.352.101-.258.25-.445.437-.555.239-.156.563-.234.954-.234h.296V.574h-6.394v.133h.297c.379 0 .687.074.914.219.23.148.39.328.469.531.074.2.109.64.109 1.39v9.227c0 .969-.063 1.235-.113 1.352-.094.254-.239.445-.426.554-.238.157-.563.235-.953.235h-.297v.133h6.394v-.133h-.296q-.572 0-.918-.219a1.16 1.16 0 0 1-.47-.531c-.077-.195-.116-.652-.116-1.39v-4.47h4.738v4.47c0 .964-.063 1.234-.113 1.35-.102.259-.25.446-.434.555-.234.157-.559.235-.957.235h-.285Zm6.633.25H20.34v-.633h.535q.524-.002.824-.195.212-.127.336-.438c.043-.105.094-.406.094-1.258V7.855H17.89v4.22c0 .866.054 1.183.097 1.296q.094.233.375.414.283.18.782.18h.546v.633h-6.894v-.633h.547q.517-.002.824-.195.209-.129.324-.434c.043-.11.094-.41.094-1.262V2.848c0-.871-.05-1.188-.094-1.301-.058-.152-.183-.29-.367-.41q-.282-.18-.781-.18h-.547V.324h6.894v.633h-.546c-.344 0-.622.066-.825.195q-.209.128-.336.438c-.043.105-.093.406-.093 1.258v3.847h4.238V2.848c0-.871-.05-1.188-.094-1.301q-.087-.229-.375-.41-.287-.18-.785-.18h-.535V.324h6.883v.633h-.54c-.347 0-.624.063-.82.195q-.212.128-.336.438c-.043.105-.093.406-.093 1.258v9.226c0 .871.05 1.188.093 1.301q.09.229.371.41c.192.121.457.18.786.18h.539z" style="stroke:none;fill-rule:nonzero;fill:#100f0d;fill-opacity:1"/></g><g clip-path="url(#c)"><path d="M27.895.45h6.558v.382h-.328c-.496 0-.832.055-1.02.168a.95.95 0 0 0-.39.473q-.117.299-.117 1.5V9.84q0 1.882.257 2.492t.848 1.016c.39.27.89.402 1.488.402q1.032-.001 1.758-.512c.485-.343.844-.812 1.086-1.414.242-.597.36-1.644.36-3.133V2.973q-.001-.944-.176-1.348-.18-.4-.45-.559c-.28-.156-.68-.234-1.19-.234V.449h4.394v.383h-.262q-.534 0-.89.234-.358.24-.516.715c-.082.223-.121.617-.121 1.192v5.324q0 2.473-.297 3.57-.294 1.096-1.438 2.016-1.142.92-3.117.922-1.651.001-2.55-.485-1.225-.662-1.735-1.699c-.336-.687-.504-1.617-.504-2.781V2.973c0-.809-.04-1.309-.121-1.508A.98.98 0 0 0 29 .996Q28.699.82 27.895.832z" style="stroke:none;fill-rule:nonzero;fill:#f9cf08;fill-opacity:1"/></g><g clip-path="url(#d)"><path d="M28.02.703c.496.004.835.067 1.043.184.222.133.382.312.472.531.09.215.133.723.133 1.555V9.84c0 1.14.164 2.058.492 2.726.324.664.89 1.215 1.68 1.641.578.313 1.418.473 2.492.473 1.281 0 2.305-.301 3.04-.89.737-.595 1.206-1.255 1.394-1.954.195-.719.293-1.91.293-3.54V2.974c0-.594.043-.996.129-1.235.113-.34.304-.601.562-.773s.582-.258.96-.258h.138V.574h-4.145v.133q.712.019 1.129.254.306.177.5.613c.129.29.188.746.188 1.399V8.69c0 1.52-.122 2.563-.368 3.18q-.376.933-1.132 1.469c-.504.355-1.118.535-1.829.535-.62 0-1.148-.145-1.558-.426a2.4 2.4 0 0 1-.895-1.066c-.18-.43-.265-1.258-.265-2.543V2.973c0-.825.039-1.328.125-1.547.086-.227.238-.403.445-.531.203-.13.559-.188 1.082-.188h.203V.574H28.02Zm6.312 14.227c-1.117 0-1.996-.168-2.61-.5-.84-.453-1.437-1.043-1.785-1.754-.343-.703-.519-1.656-.519-2.836V2.973c0-.98-.063-1.336-.113-1.461a.84.84 0 0 0-.367-.407c-.125-.074-.407-.16-1.043-.148h-.125V.324h6.808v.633h-.453c-.586 0-.84.082-.953.148a.8.8 0 0 0-.34.41c-.05.13-.11.485-.11 1.458V9.84c0 1.23.083 2.055.247 2.445q.247.575.804.957c.372.254.848.383 1.418.383.657 0 1.223-.164 1.688-.488.46-.328.809-.785 1.039-1.356.234-.582.352-1.62.352-3.09V2.973q0-.915-.165-1.297-.164-.364-.398-.5-.394-.218-1.129-.219h-.125V.324h4.645v.633h-.387c-.328 0-.606.07-.82.215-.215.144-.368.355-.47.648q-.11.318-.112 1.153v5.324c0 1.652-.102 2.863-.301 3.601-.203.754-.7 1.457-1.48 2.082-.782.63-1.856.95-3.196.95" style="stroke:none;fill-rule:nonzero;fill:#100f0d;fill-opacity:1"/></g><g clip-path="url(#e)"><path d="M53.406.45v3.792h-.34q-.299-1.312-.664-1.887a2.6 2.6 0 0 0-1.004-.914q-.356-.187-1.246-.187h-.945v10.82c0 .719.035 1.164.11 1.344q.105.269.421.473.31.199.856.199h.422v.383h-6.653v-.383h.422q.55.001.89-.215c.165-.098.29-.262.384-.496q.105-.251.105-1.305V1.254h-.918q-1.282 0-1.867.601-.815.84-1.031 2.387h-.356V.45z" style="stroke:none;fill-rule:nonzero;fill:#f9cf08;fill-opacity:1"/><path d="M44.488 14.348h6.403v-.133h-.297c-.383 0-.696-.074-.926-.219a1.16 1.16 0 0 1-.469-.531c-.078-.195-.117-.652-.117-1.39V1.128h1.07c.621 0 1.047.066 1.305.2.445.237.797.562 1.05.96.243.379.462.992.661 1.828h.113V.574H42.117v3.543h.125c.156-1.004.508-1.793 1.047-2.351.41-.422 1.07-.637 1.957-.637h1.043v10.945c0 .969-.066 1.235-.113 1.352q-.157.389-.438.554c-.238.157-.562.235-.953.235h-.297Zm6.653.25h-6.903v-.633h.547c.344 0 .621-.067.82-.195.145-.086.254-.23.34-.438.043-.105.094-.406.094-1.258V1.38h-.793c-.816 0-1.414.187-1.777.562-.52.536-.856 1.317-.996 2.32l-.016.106h-.59V.324h11.664v4.043h-.562l-.024-.094c-.195-.859-.414-1.48-.648-1.851a2.5 2.5 0 0 0-.957-.871c-.215-.113-.617-.172-1.188-.172h-.82v10.695c0 .867.055 1.184.098 1.297q.093.233.375.414c.187.121.453.18.789.18h.547z" style="stroke:none;fill-rule:nonzero;fill:#100f0d;fill-opacity:1"/></g><g clip-path="url(#f)"><path d="m60.336 9.715-1.89-4.828-1.95 4.828Zm.32.765h-4.488l-.535 1.368c-.172.453-.262.828-.262 1.125q0 .59.434.87.251.165 1.246.247v.383h-4.227v-.383a1.83 1.83 0 0 0 1.125-.625c.293-.34.656-1.047 1.086-2.113L59.578.156h.18L64.34 11.66q.654 1.635 1.074 2.059c.215.215.512.336.902.37v.384h-6.148v-.383h.254q.74.001 1.039-.227.206-.166.207-.476-.001-.186-.055-.383-.023-.094-.281-.774z" style="stroke:none;fill-rule:nonzero;fill:#f9cf08;fill-opacity:1"/><path d="M56.68 9.59h3.476l-1.71-4.367Zm3.84.25h-4.208l2.133-5.293Zm-.227 4.508h5.898v-.145q-.546-.076-.863-.394c-.297-.301-.66-.985-1.105-2.102L59.664.281l-4.512 11.117c-.441 1.09-.804 1.793-1.109 2.149a1.95 1.95 0 0 1-1.094.648v.153h3.977v-.141c-.633-.059-1.012-.14-1.192-.258-.324-.21-.488-.539-.488-.976 0-.309.094-.703.274-1.172l.562-1.446h4.66l.707 1.829c.235.613.274.75.285.796.04.133.059.274.059.407q-.001.369-.254.574c-.227.172-.59.254-1.117.254h-.129Zm6.148.25h-6.398v-.633h.379q.7 0 .965-.2.157-.127.156-.378 0-.166-.05-.348c-.009-.039-.056-.18-.278-.766l-.645-1.668h-4.316l-.504 1.286c-.168.437-.254.804-.254 1.082 0 .351.125.601.375.765.102.067.395.16 1.188.227l.117.012v.62h-4.477v-.613l.106-.015c.422-.07.777-.27 1.047-.586.285-.328.644-1.028 1.066-2.078L59.496.03h.348l4.61 11.582c.429 1.07.78 1.75 1.05 2.02q.286.282.824.332l.113.012z" style="stroke:none;fill-rule:nonzero;fill:#100f0d;fill-opacity:1"/></g><g clip-path="url(#g)"><path d="m71.309.45 6.265 8.698v-6.03c0-.845-.11-1.411-.328-1.708Q76.8.808 75.738.832V.449h4.2v.383q-.809.111-1.083.293-.275.18-.433.59-.153.408-.152 1.402v11.676h-.32L69.36 3.117v8.914c0 .809.167 1.352.5 1.637a1.74 1.74 0 0 0 1.148.422h.3v.383h-4.507v-.383q1.05-.008 1.46-.473.416-.467.415-1.586V2.133l-.274-.371q-.4-.557-.71-.735Q67.38.851 66.8.832V.449z" style="stroke:none;fill-rule:nonzero;fill:#f9cf08;fill-opacity:1"/></g><g clip-path="url(#h)"><path d="M78.016 14.668h.129V3.118c0-.684.054-1.157.164-1.446.109-.297.273-.516.476-.652.192-.122.528-.22 1.028-.297V.574h-3.95v.13c.68.01 1.18.222 1.485.632.238.32.351.902.351 1.781v6.418L71.242.575h-4.316V.71q.525.033.828.207c.223.129.469.379.75.77l.297.406v9.937c0 .785-.145 1.328-.446 1.668-.28.317-.761.489-1.43.516v.133h4.259v-.133h-.176q-.692 0-1.227-.453c-.367-.309-.547-.875-.547-1.73V2.733Zm.379.25h-.508l-.035-.05-8.368-11.372v8.535c0 .766.153 1.285.457 1.54a1.6 1.6 0 0 0 1.067.394h.426v.633h-4.758v-.63l.125-.003c.66-.004 1.12-.152 1.367-.434.254-.285.383-.789.383-1.5V2.176l-.25-.34q-.383-.54-.672-.7-.282-.162-.832-.179l-.121-.008V.324h4.695l.04.051 6.038 8.383v-5.64q0-1.221-.3-1.634c-.274-.363-.735-.535-1.407-.527h-.129V.324h4.45v.613l-.11.016c-.64.09-.914.2-1.031.277q-.242.159-.383.528c-.094.258-.144.715-.144 1.36z" style="stroke:none;fill-rule:nonzero;fill:#100f0d;fill-opacity:1"/></g><g clip-path="url(#i)"><path d="m91.79 9.715-1.895-4.828-1.946 4.828Zm.315.765h-4.488l-.531 1.368q-.263.68-.262 1.125c0 .394.14.683.43.87q.251.165 1.246.247v.383h-4.227v-.383a1.83 1.83 0 0 0 1.125-.625c.293-.34.657-1.047 1.086-2.113L91.031.156h.176l4.582 11.504q.657 1.635 1.078 2.059.317.32.899.37v.384h-6.149v-.383h.254q.739.001 1.04-.227.208-.166.206-.476-.001-.186-.055-.383-.017-.094-.28-.774z" style="stroke:none;fill-rule:nonzero;fill:#eb681c;fill-opacity:1"/><path d="M88.133 9.59h3.472l-1.71-4.367Zm3.84.25h-4.211l2.136-5.293Zm-.23 4.508h5.898v-.145q-.547-.076-.864-.394c-.297-.301-.656-.989-1.105-2.102L91.113.281l-4.511 11.117c-.442 1.09-.801 1.793-1.11 2.149a1.95 1.95 0 0 1-1.094.648v.153h3.977v-.141c-.629-.059-1.012-.14-1.191-.258-.32-.21-.485-.539-.485-.976 0-.309.09-.703.27-1.172l.566-1.446h4.656l.707 1.829c.235.613.278.75.286.796.039.133.058.274.058.407 0 .246-.086.441-.254.574-.222.172-.59.254-1.117.254h-.129Zm6.148.25h-6.399v-.633h.38c.464 0 .788-.067.964-.2q.157-.127.156-.378.001-.166-.05-.348c-.008-.039-.051-.18-.278-.766l-.644-1.668h-4.317l-.5 1.286c-.172.437-.254.804-.254 1.082 0 .351.121.601.371.765.106.067.395.16 1.192.227l.113.012v.62h-4.477v-.613l.106-.015c.422-.07.777-.27 1.05-.586.286-.328.641-1.028 1.067-2.078L90.945.03h.348l4.613 11.582c.426 1.07.781 1.746 1.051 2.02.188.187.465.3.82.332l.114.012z" style="stroke:none;fill-rule:nonzero;fill:#100f0d;fill-opacity:1"/></g><g clip-path="url(#j)"><path d="M105.008 14.09v.383h-6.645v-.383h.422q.557.001.89-.215.247-.146.376-.496c.07-.168.101-.602.101-1.305V2.848c0-.72-.03-1.164-.101-1.344q-.104-.269-.414-.473c-.211-.133-.492-.199-.852-.199h-.422V.449h6.645v.383h-.422q-.55-.001-.89.215-.246.146-.383.496-.103.251-.102 1.305v9.226c0 .719.031 1.164.105 1.344q.105.269.422.473.312.199.848.199z" style="stroke:none;fill-rule:nonzero;fill:#eb681c;fill-opacity:1"/><path d="M98.488 14.348h6.395v-.133h-.297c-.379 0-.688-.074-.914-.219-.234-.148-.39-.328-.473-.531-.05-.125-.113-.402-.113-1.39V2.847c0-.97.062-1.235.11-1.352q.157-.389.437-.555c.238-.156.562-.234.953-.234h.297V.574h-6.395v.133h.297q.571 0 .918.219c.23.148.387.328.465.531.074.195.11.652.11 1.39v9.227c0 .969-.063 1.235-.11 1.352q-.149.389-.426.554-.364.235-.957.235h-.297Zm6.645.25h-6.895v-.633h.547q.518-.002.824-.195c.141-.086.246-.23.325-.438.043-.105.093-.406.093-1.258V2.848c0-.871-.05-1.188-.093-1.301q-.087-.229-.368-.41t-.78-.18h-.548V.324h6.895v.633h-.547q-.516 0-.82.195c-.145.086-.254.23-.336.438-.043.105-.094.406-.094 1.258v9.226c0 .871.05 1.188.098 1.297q.088.233.37.414c.188.121.454.18.782.18h.547z" style="stroke:none;fill-rule:nonzero;fill:#100f0d;fill-opacity:1"/></g><g clip-path="url(#k)"><path d="M110.543 1.203v6.145h.535c.867 0 1.52-.09 1.95-.266q.645-.263 1.015-.95.37-.69.371-1.796 0-1.6-.68-2.367t-2.187-.766Zm0 6.879v3.93q0 1.139.129 1.433.123.293.445.47c.211.116.61.175 1.188.175v.383h-6.5v-.383q.88 0 1.191-.18a1 1 0 0 0 .442-.473q.128-.287.128-1.425V2.91q0-1.139-.129-1.433a.96.96 0 0 0-.445-.47q-.314-.174-1.187-.175V.449h5.902q2.303 0 3.371.352 1.067.35 1.742 1.297.676.945.676 2.218c0 1.036-.34 1.891-1.012 2.567q-.647.639-1.808.96l3.054 4.747q.6.926.852 1.148.387.322.89.352v.383h-4l-4.093-6.391z" style="stroke:none;fill-rule:nonzero;fill:#eb681c;fill-opacity:1"/><path d="M110.668 7.223h.41c.848 0 1.488-.086 1.902-.254.403-.164.723-.465.954-.895.234-.441.355-1.023.355-1.738 0-1.031-.219-1.8-.648-2.285-.426-.48-1.13-.723-2.094-.723h-.879Zm.41.25h-.66V1.078h1.129c1.039 0 1.805.27 2.281.809.473.531.711 1.355.711 2.449 0 .758-.133 1.379-.387 1.855-.257.48-.62.82-1.078 1.008-.445.18-1.113.274-1.996.274m4.461 6.875h3.809v-.145a1.6 1.6 0 0 1-.844-.367c-.184-.164-.469-.547-.879-1.176l-3.145-4.89.165-.047c.75-.207 1.335-.52 1.75-.93.648-.648.976-1.48.976-2.477 0-.816-.219-1.539-.652-2.148a3.3 3.3 0 0 0-1.68-1.25c-.695-.23-1.816-.344-3.332-.344h-5.777v.133c.539.008.906.07 1.125.191.234.13.406.309.5.532.09.215.136.699.136 1.48v9.102c0 .781-.046 1.265-.136 1.476a1.15 1.15 0 0 1-.493.532c-.214.12-.585.187-1.132.195v.133h6.25v-.133c-.54-.008-.907-.07-1.125-.192a1.1 1.1 0 0 1-.5-.53c-.09-.212-.137-.696-.137-1.481V7.957h1.027l.04.059Zm4.059.25h-4.196l-.035-.055-4.058-6.336h-.641v3.805c0 .922.062 1.261.117 1.383a.84.84 0 0 0 .39.41c.192.11.575.16 1.13.16h.125v.633h-6.75v-.633h.125c.699 0 1-.09 1.132-.164a.9.9 0 0 0 .387-.41c.055-.125.117-.461.117-1.38v-9.1c0-.919-.062-1.259-.117-1.384a.84.84 0 0 0-.39-.41c-.196-.11-.575-.16-1.13-.16h-.124V.324h6.027c1.54 0 2.688.117 3.41.356a3.54 3.54 0 0 1 1.805 1.343c.465.653.7 1.422.7 2.293 0 1.063-.352 1.957-1.052 2.653-.414.41-.984.73-1.699.949l2.965 4.605c.39.602.672.98.828 1.125.234.192.504.301.816.317l.118.008z" style="stroke:none;fill-rule:nonzero;fill:#100f0d;fill-opacity:1"/></g><g clip-path="url(#l)"><path d="m131.418 9.55-.48 4.923H119.66v-.383h.422q.55.001.89-.215.24-.146.376-.496.1-.251.101-1.305V2.848c0-.72-.035-1.164-.101-1.344q-.103-.269-.418-.473-.316-.2-.848-.199h-.422V.449h6.774v.383h-.551q-.557-.001-.89.215-.247.146-.388.496-.1.251-.101 1.305v8.937q-.002 1.072.113 1.371a.77.77 0 0 0 .442.438q.23.093 1.129.094h1.058q1.013.001 1.688-.395.678-.394 1.168-1.238.49-.851.93-2.504z" style="stroke:none;fill-rule:nonzero;fill:#eb681c;fill-opacity:1"/><path d="M119.785 14.348h11.04l.456-4.672h-.152c-.285 1.062-.598 1.883-.918 2.441-.34.582-.746 1.016-1.215 1.285-.465.274-1.055.41-1.75.41h-1.058c-.622 0-1.004-.03-1.176-.101q-.382-.167-.512-.512c-.082-.21-.121-.676-.121-1.414V2.848c0-.97.062-1.235.113-1.352q.154-.389.438-.555.359-.234.953-.234h.426V.574h-6.524v.133h.297c.379 0 .688.074.914.219.23.148.39.328.469.531.074.195.11.652.11 1.39v9.227c0 .969-.063 1.235-.114 1.352q-.142.389-.426.554c-.238.157-.562.235-.953.235h-.297Zm11.27.25h-11.52v-.633h.547q.516-.002.82-.195.211-.127.328-.438c.043-.105.094-.406.094-1.258V2.848c0-.871-.05-1.188-.094-1.301-.058-.152-.183-.29-.367-.41-.187-.121-.453-.18-.781-.18h-.547V.324h7.024v.633h-.676q-.518 0-.824.195-.212.128-.336.438c-.043.105-.094.406-.094 1.258v8.937c0 .871.058 1.2.105 1.324q.093.25.371.371c.094.036.36.082 1.082.082h1.06c.651 0 1.198-.124 1.624-.374.43-.25.809-.653 1.121-1.196.32-.555.633-1.387.918-2.472l.028-.094h.617z" style="stroke:none;fill-rule:nonzero;fill:#100f0d;fill-opacity:1"/></g><g clip-path="url(#m)"><path d="M139.129 14.09v.383h-6.645v-.383h.422q.55.001.89-.215.247-.146.376-.496.1-.251.101-1.305V2.848c0-.72-.035-1.164-.101-1.344q-.101-.269-.418-.473-.31-.2-.848-.199h-.422V.449h6.645v.383h-.422c-.367 0-.668.07-.89.215q-.245.146-.383.496-.105.251-.106 1.305v9.226c0 .719.035 1.164.11 1.344q.105.269.421.473c.207.132.493.199.848.199z" style="stroke:none;fill-rule:nonzero;fill:#eb681c;fill-opacity:1"/><path d="M132.61 14.348h6.394v-.133h-.297q-.57 0-.918-.219c-.226-.148-.387-.328-.469-.531-.078-.195-.117-.652-.117-1.39V2.847c0-.97.067-1.235.113-1.352q.157-.389.438-.555c.238-.156.559-.234.953-.234h.297V.574h-6.395v.133h.297c.38 0 .688.074.914.219.235.148.39.328.47.531.073.2.108.652.108 1.39v9.227c0 .723-.035 1.168-.113 1.352-.094.254-.234.445-.426.554q-.359.235-.953.235h-.297Zm6.644.25h-6.895v-.633h.547q.518-.002.824-.195.212-.129.325-.434c.047-.11.093-.414.093-1.262V2.848c0-.868-.05-1.188-.093-1.301q-.09-.229-.368-.41-.282-.18-.78-.18h-.548V.324h6.895v.633h-.547q-.518 0-.824.195c-.14.086-.25.227-.332.438-.047.105-.098.406-.098 1.258v9.226c0 .867.055 1.184.102 1.297q.088.233.37.414t.782.18h.547z" style="stroke:none;fill-rule:nonzero;fill:#100f0d;fill-opacity:1"/></g><g clip-path="url(#n)"><path d="m144.348.45 6.265 8.698v-6.03c0-.845-.11-1.411-.328-1.708-.3-.402-.8-.594-1.508-.578V.449h4.2v.383q-.809.111-1.082.293-.276.18-.434.59-.152.408-.152 1.402v11.676h-.32l-8.59-11.676v8.914c0 .809.163 1.352.5 1.637a1.74 1.74 0 0 0 1.148.422h.3v.383h-4.507v-.383q1.05-.008 1.46-.473c.274-.312.415-.84.415-1.586V2.133l-.274-.371q-.4-.557-.71-.735-.311-.176-.891-.195V.449z" style="stroke:none;fill-rule:nonzero;fill:#eb681c;fill-opacity:1"/></g><g clip-path="url(#o)"><path d="M151.055 14.668h.129V3.118c0-.684.05-1.157.16-1.446q.17-.447.48-.652c.192-.122.528-.22 1.028-.297V.574h-3.95v.13c.68.01 1.18.222 1.485.632.238.32.351.902.351 1.781v6.418l-6.457-8.96h-4.316V.71q.525.033.828.207c.223.129.469.379.75.77l.297.406v9.937c0 .785-.149 1.328-.445 1.668-.282.317-.762.489-1.43.516v.133h4.258v-.133h-.176q-.692 0-1.23-.453c-.368-.309-.544-.875-.544-1.73V2.733Zm.379.25h-.508l-.035-.05-8.368-11.372v8.535c0 .766.153 1.285.457 1.54a1.6 1.6 0 0 0 1.067.394h.426v.633h-4.758v-.63l.125-.003c.656-.004 1.117-.152 1.367-.434.254-.285.383-.789.383-1.5V2.176l-.246-.34c-.258-.36-.489-.594-.676-.7-.188-.109-.469-.167-.832-.179l-.121-.008V.324h4.695l.04.051 6.038 8.383v-5.64q0-1.221-.3-1.634-.4-.528-1.34-.53c-.024 0-.043 0-.067.003h-.129V.324h4.45v.613l-.11.016c-.64.09-.914.2-1.031.277q-.242.159-.383.528c-.098.258-.144.715-.144 1.36z" style="stroke:none;fill-rule:nonzero;fill:#100f0d;fill-opacity:1"/></g><g clip-path="url(#p)"><path d="M158.652 1.254v5.71h.254q1.209 0 1.75-.839.544-.838.696-2.473h.355V11h-.355q-.117-1.2-.473-1.969-.364-.762-.84-1.027t-1.387-.266v3.953q.002 1.16.09 1.418a.8.8 0 0 0 .332.422c.16.114.426.168.785.168h.762q1.78 0 2.852-.91c.714-.61 1.226-1.531 1.543-2.773h.343l-.57 4.457h-10.98v-.383h.421q.552.001.891-.215.24-.146.375-.496.1-.251.102-1.305V2.848q0-.954-.047-1.168a1 1 0 0 0-.348-.559q-.35-.29-.973-.289h-.421V.449h10.632v4.145h-.355c-.18-1.012-.438-1.739-.762-2.18q-.493-.662-1.39-.973-.528-.187-1.97-.187z" style="stroke:none;fill-rule:nonzero;fill:#eb681c;fill-opacity:1"/><path d="M153.934 14.348h10.746l.539-4.207h-.11c-.32 1.214-.843 2.136-1.554 2.742-.735.625-1.723.941-2.934.941h-.762c-.39 0-.672-.062-.855-.187a.98.98 0 0 1-.383-.489c-.039-.117-.094-.398-.094-1.457V7.613h.125c.625 0 1.114.094 1.45.282s.636.55.89 1.085c.235.497.39 1.133.473 1.895h.117V3.777h-.117c-.11 1.051-.344 1.864-.703 2.418-.383.594-1.008.895-1.856.895h-.379V1.129h1.438c.984 0 1.64.062 2.008.195.62.211 1.109.555 1.453 1.016.324.437.582 1.156.765 2.129h.125V.574h-10.382v.133h.296q.663 0 1.055.316c.188.145.32.356.387.625.035.16.05.551.05 1.2v9.226c0 .723-.035 1.168-.113 1.352-.093.254-.238.445-.425.554-.239.157-.563.235-.954.235h-.296Zm10.964.25h-11.214v-.633h.546c.344 0 .622-.067.825-.195q.205-.129.324-.434c.043-.11.094-.414.094-1.262V2.848c0-.778-.024-1.051-.043-1.145a.9.9 0 0 0-.301-.484q-.323-.263-.899-.262h-.546V.324h10.882V4.72h-.586l-.015-.102c-.18-.988-.426-1.703-.742-2.129q-.47-.628-1.332-.93c-.336-.12-.985-.18-1.926-.18h-1.188V6.84h.13c.765 0 1.304-.258 1.648-.781.347-.54.574-1.352.672-2.414l.007-.118h.598v7.598h-.598l-.007-.113c-.075-.785-.23-1.434-.461-1.926-.23-.484-.496-.813-.786-.973q-.417-.228-1.203-.246v3.824c0 .942.043 1.27.082 1.375.051.149.145.266.286.364.14.093.382.144.714.144h.762c1.149 0 2.082-.297 2.77-.883.691-.586 1.199-1.496 1.504-2.707l.02-.093h.589l-.02.14z" style="stroke:none;fill-rule:nonzero;fill:#100f0d;fill-opacity:1"/></g><g clip-path="url(#q)"><path d="m175.234.125.106 4.676h-.387q-.27-1.757-1.336-2.828-1.06-1.071-2.297-1.07-.953 0-1.515.562c-.371.379-.559.808-.559 1.3q0 .465.2.829c.179.324.472.644.87.96q.44.34 2.036 1.212c1.484.804 2.488 1.566 3.003 2.285.512.715.77 1.539.77 2.46q0 1.758-1.242 3.028-1.243 1.266-3.153 1.266-.598.001-1.132-.133c-.356-.09-.801-.262-1.34-.508q-.452-.206-.738-.207-.247 0-.516.207c-.184.137-.328.348-.441.629h-.348V9.5h.347q.413 2.233 1.586 3.406c.786.781 1.63 1.176 2.536 1.176q1.05 0 1.671-.633.624-.632.625-1.469c0-.332-.082-.652-.238-.96-.16-.313-.402-.606-.726-.887q-.492-.416-1.727-1.09c-1.152-.629-1.984-1.16-2.488-1.602a4.8 4.8 0 0 1-1.168-1.48 3.96 3.96 0 0 1-.406-1.8c0-1.118.37-2.067 1.113-2.856q1.114-1.179 2.808-1.18c.415 0 .813.059 1.204.168q.438.122 1.07.46.634.337.887.337a.47.47 0 0 0 .382-.168q.14-.164.262-.797z" style="stroke:none;fill-rule:nonzero;fill:#eb681c;fill-opacity:1"/><path d="M168.52 13.832c.21 0 .468.07.789.219q.797.364 1.32.5c.344.086.715.129 1.101.129 1.235 0 2.266-.414 3.067-1.23.797-.817 1.203-1.805 1.203-2.938 0-.895-.25-1.696-.746-2.39-.504-.696-1.5-1.454-2.965-2.247-1.078-.59-1.75-.988-2.05-1.223-.41-.328-.716-.664-.903-1a1.85 1.85 0 0 1-.215-.886c0-.52.203-.989.598-1.387.39-.399.93-.602 1.601-.602.856 0 1.657.371 2.387 1.11.703.707 1.156 1.644 1.356 2.789h.148L175.113.25h-.054c-.082.395-.168.633-.274.754a.59.59 0 0 1-.476.21c-.192 0-.5-.116-.946-.35q-.617-.331-1.047-.45a4.2 4.2 0 0 0-1.168-.164c-1.085 0-2.003.387-2.718 1.14-.715.762-1.078 1.692-1.078 2.77 0 .633.128 1.219.39 1.746a4.7 4.7 0 0 0 1.14 1.438c.493.433 1.325.968 2.47 1.59.828.449 1.414.82 1.746 1.105.332.29.59.598.754.922.168.328.253.672.253 1.02 0 .59-.222 1.113-.66 1.558-.437.441-1.03.668-1.761.668-.938 0-1.817-.41-2.621-1.21-.782-.782-1.32-1.915-1.602-3.372h-.121v5.043h.14a1.56 1.56 0 0 1 .446-.605q.305-.23.594-.231m3.21 1.098q-.61-.001-1.164-.137a8.6 8.6 0 0 1-1.363-.516c-.277-.129-.512-.195-.683-.195-.137 0-.286.063-.442.18-.16.125-.297.32-.398.578l-.032.078h-.558V9.375h.578l.02.102c.265 1.457.789 2.582 1.55 3.34.754.757 1.578 1.14 2.446 1.14q.998-.001 1.586-.594c.386-.394.585-.86.585-1.383 0-.308-.078-.613-.226-.906a2.9 2.9 0 0 0-.695-.844c-.32-.273-.891-.636-1.704-1.078-1.16-.629-2.003-1.175-2.511-1.617-.52-.45-.918-.96-1.2-1.52a4.1 4.1 0 0 1-.417-1.855c0-1.144.382-2.133 1.148-2.941C169.016.41 169.988 0 171.148 0q.635.001 1.235.172c.304.086.672.246 1.097.469.5.265.727.324.829.324.125 0 .218-.04.289-.121.043-.055.132-.219.234-.742l.02-.102h.503l.11 4.926h-.617l-.016-.106c-.18-1.14-.617-2.07-1.3-2.758-.684-.687-1.427-1.035-2.212-1.035-.61 0-1.074.172-1.425.528-.352.355-.524.75-.524 1.21q.001.431.184.766.259.463.84.926c.285.219.964.625 2.015 1.2 1.492.808 2.52 1.59 3.047 2.32.527.734.793 1.59.793 2.535 0 1.199-.43 2.25-1.277 3.113-.848.867-1.938 1.305-3.243 1.305" style="stroke:none;fill-rule:nonzero;fill:#100f0d;fill-opacity:1"/></g></svg>