<svg xmlns="http://www.w3.org/2000/svg" width="232.96" height="59pt" viewBox="0 0 174.72 59"><defs><clipPath id="a"><path d="M147 13h27.719v35H147Zm0 0"/></clipPath></defs><path d="M5.676 0h6.734v6.734H5.676Zm0 13.54h6.734v36.085c0 5.61-4.094 9.375-9.773 9.375H0v-6.34h1.91c2.313 0 3.766-1.058 3.766-3.566zM44.36 32.816v-5.543c0-8.652-6.41-14.132-13.801-14.132-6.473 0-13.801 4.226-13.801 17.234 0 13.734 7.988 17.035 14.86 17.035 4.484 0 8.777-1.586 12.077-5.414l-4.882-4.156c-1.985 2.043-4.754 3.23-7.329 3.23-4.625 0-7.992-2.773-7.992-8.254Zm-20.868-5.543c.133-5.085 3.106-7.793 7.067-7.793 3.964 0 6.867 2.707 7.062 7.793zM49.7 3.367h6.734V13.54h4.882v5.149h-4.882v19.476c0 1.852.722 2.512 2.367 2.512h2.515v6.34h-3.5c-4.691 0-8.117-2.977-8.117-8.254V18.688h-3.375v-5.149H49.7zM83.04 6.34c5.151 0 7.593 3.105 7.593 6.734 0 3.696-2.442 6.739-7.594 6.739h-10.3V6.34ZM65.604 47.016h19.81c7.07 0 13.073-5.22 13.073-13.34 0-4.754-2.508-9.64-7.656-10.832v-.13c5.48-2.444 6.934-6.206 6.934-10.1C97.766 5.218 93.008 0 83.832 0H65.605Zm18.098-20.868c5.281 0 7.652 3.368 7.652 7.063 0 3.7-2.37 7.066-7.652 7.066H72.738V26.148zM102.36 0h6.734v38.363c0 1.52.86 2.313 2.515 2.313h2.309v6.34h-2.973c-4.89 0-8.586-2.114-8.586-8.125zM116.754 13.54h6.734v19.937c0 4.558 2.84 7.199 6.676 7.199 3.762 0 6.598-2.64 6.598-7.2V13.54h6.734v33.477h-6.734v-3.57h-.13c-2.112 2.644-5.152 3.964-8.652 3.964-5.28 0-11.226-4.027-11.226-11.62z" style="stroke:none;fill-rule:nonzero;fill:#253a73;fill-opacity:1"/><g clip-path="url(#a)"><path d="M174.719 32.816v-5.543c0-8.652-6.403-14.132-13.801-14.132-6.473 0-13.805 4.226-13.805 17.234 0 13.734 7.996 17.035 14.86 17.035 4.496 0 8.785-1.586 12.086-5.414l-4.887-4.156c-1.984 2.043-4.75 3.234-7.328 3.234-4.621 0-7.992-2.777-7.992-8.258Zm-20.867-5.543c.136-5.085 3.101-7.793 7.066-7.793 3.96 0 6.867 2.707 7.07 7.793z" style="stroke:none;fill-rule:nonzero;fill:#253a73;fill-opacity:1"/></g></svg>