<?xml version="1.0" encoding="UTF-8"?>
<svg xmlns="http://www.w3.org/2000/svg" xmlns:xlink="http://www.w3.org/1999/xlink" width="174.72pt" height="59pt" viewBox="0 0 174.72 59" version="1.1">
<defs>
<clipPath id="clip1">
  <path d="M 147 13 L 174.71875 13 L 174.71875 48 L 147 48 Z M 147 13 "/>
</clipPath>
</defs>
<g id="surface1">
<path style=" stroke:none;fill-rule:nonzero;fill:rgb(14.39209%,22.709656%,45.210266%);fill-opacity:1;" d="M 5.675781 0 L 12.410156 0 L 12.410156 6.734375 L 5.675781 6.734375 Z M 5.675781 13.539062 L 12.410156 13.539062 L 12.410156 49.625 C 12.410156 55.234375 8.316406 59 2.636719 59 L 0 59 L 0 52.660156 L 1.910156 52.660156 C 4.222656 52.660156 5.675781 51.601562 5.675781 49.09375 L 5.675781 13.539062 "/>
<path style=" stroke:none;fill-rule:nonzero;fill:rgb(14.39209%,22.709656%,45.210266%);fill-opacity:1;" d="M 44.359375 32.816406 L 44.359375 27.273438 C 44.359375 18.621094 37.949219 13.140625 30.558594 13.140625 C 24.085938 13.140625 16.757812 17.367188 16.757812 30.375 C 16.757812 44.109375 24.746094 47.410156 31.617188 47.410156 C 36.101562 47.410156 40.394531 45.824219 43.695312 41.996094 L 38.8125 37.839844 C 36.828125 39.882812 34.058594 41.070312 31.484375 41.070312 C 26.859375 41.070312 23.492188 38.296875 23.492188 32.816406 Z M 23.492188 27.273438 C 23.625 22.1875 26.597656 19.480469 30.558594 19.480469 C 34.523438 19.480469 37.425781 22.1875 37.621094 27.273438 L 23.492188 27.273438 "/>
<path style=" stroke:none;fill-rule:nonzero;fill:rgb(14.39209%,22.709656%,45.210266%);fill-opacity:1;" d="M 49.699219 3.367188 L 56.433594 3.367188 L 56.433594 13.539062 L 61.316406 13.539062 L 61.316406 18.6875 L 56.433594 18.6875 L 56.433594 38.164062 C 56.433594 40.015625 57.15625 40.675781 58.800781 40.675781 L 61.316406 40.675781 L 61.316406 47.015625 L 57.816406 47.015625 C 53.125 47.015625 49.699219 44.039062 49.699219 38.761719 L 49.699219 18.6875 L 46.324219 18.6875 L 46.324219 13.539062 L 49.699219 13.539062 L 49.699219 3.367188 "/>
<path style=" stroke:none;fill-rule:nonzero;fill:rgb(14.39209%,22.709656%,45.210266%);fill-opacity:1;" d="M 83.039062 6.339844 C 88.191406 6.339844 90.632812 9.445312 90.632812 13.074219 C 90.632812 16.769531 88.191406 19.8125 83.039062 19.8125 L 72.738281 19.8125 L 72.738281 6.339844 Z M 65.605469 47.015625 L 85.414062 47.015625 C 92.484375 47.015625 98.488281 41.796875 98.488281 33.675781 C 98.488281 28.921875 95.980469 24.035156 90.832031 22.84375 L 90.832031 22.714844 C 96.3125 20.269531 97.765625 16.507812 97.765625 12.613281 C 97.765625 5.21875 93.007812 0 83.832031 0 L 65.605469 0 Z M 83.703125 26.148438 C 88.984375 26.148438 91.355469 29.515625 91.355469 33.210938 C 91.355469 36.910156 88.984375 40.277344 83.703125 40.277344 L 72.738281 40.277344 L 72.738281 26.148438 L 83.703125 26.148438 "/>
<path style=" stroke:none;fill-rule:nonzero;fill:rgb(14.39209%,22.709656%,45.210266%);fill-opacity:1;" d="M 102.359375 0 L 109.09375 0 L 109.09375 38.363281 C 109.09375 39.882812 109.953125 40.675781 111.609375 40.675781 L 113.917969 40.675781 L 113.917969 47.015625 L 110.945312 47.015625 C 106.054688 47.015625 102.359375 44.902344 102.359375 38.890625 L 102.359375 0 "/>
<path style=" stroke:none;fill-rule:nonzero;fill:rgb(14.39209%,22.709656%,45.210266%);fill-opacity:1;" d="M 116.753906 13.539062 L 123.488281 13.539062 L 123.488281 33.476562 C 123.488281 38.035156 126.328125 40.675781 130.164062 40.675781 C 133.925781 40.675781 136.761719 38.035156 136.761719 33.476562 L 136.761719 13.539062 L 143.496094 13.539062 L 143.496094 47.015625 L 136.761719 47.015625 L 136.761719 43.445312 L 136.632812 43.445312 C 134.519531 46.089844 131.480469 47.410156 127.980469 47.410156 C 122.699219 47.410156 116.753906 43.382812 116.753906 35.789062 L 116.753906 13.539062 "/>
<g clip-path="url(#clip1)" clip-rule="nonzero">
<path style=" stroke:none;fill-rule:nonzero;fill:rgb(14.39209%,22.709656%,45.210266%);fill-opacity:1;" d="M 174.71875 32.816406 L 174.71875 27.273438 C 174.71875 18.621094 168.316406 13.140625 160.917969 13.140625 C 154.445312 13.140625 147.113281 17.367188 147.113281 30.375 C 147.113281 44.109375 155.109375 47.410156 161.972656 47.410156 C 166.46875 47.410156 170.757812 45.824219 174.058594 41.996094 L 169.171875 37.839844 C 167.1875 39.882812 164.421875 41.074219 161.84375 41.074219 C 157.222656 41.074219 153.851562 38.296875 153.851562 32.816406 Z M 153.851562 27.273438 C 153.988281 22.1875 156.953125 19.480469 160.917969 19.480469 C 164.878906 19.480469 167.785156 22.1875 167.988281 27.273438 L 153.851562 27.273438 "/>
</g>
</g>
</svg>
