<?xml version="1.0" encoding="UTF-8"?>
<svg xmlns="http://www.w3.org/2000/svg" xmlns:xlink="http://www.w3.org/1999/xlink" width="176pt" height="40.19pt" viewBox="0 0 176 40.19" version="1.1">
<defs>
<clipPath id="clip1">
  <path d="M 0 0 L 33 0 L 33 40.191406 L 0 40.191406 Z M 0 0 "/>
</clipPath>
</defs>
<g id="surface1">
<path style=" stroke:none;fill-rule:nonzero;fill:rgb(14.697266%,50.343323%,22.840881%);fill-opacity:1;" d="M 39.234375 14.636719 L 26.886719 14.636719 L 29.414062 9.023438 L 41.765625 9.023438 L 39.234375 14.636719 "/>
<path style=" stroke:none;fill-rule:nonzero;fill:rgb(88.586426%,11.444092%,14.457703%);fill-opacity:1;" d="M 34.839844 24.054688 L 22.492188 24.054688 L 25.019531 18.441406 L 37.367188 18.441406 L 34.839844 24.054688 "/>
<path style=" stroke:none;fill-rule:nonzero;fill:rgb(25.152588%,48.873901%,78.527832%);fill-opacity:1;" d="M 30.445312 33.472656 L 8.886719 33.472656 L 11.414062 27.859375 L 32.972656 27.859375 L 30.445312 33.472656 "/>
<g clip-path="url(#clip1)" clip-rule="nonzero">
<path style=" stroke:none;fill-rule:nonzero;fill:rgb(97.587585%,82.139587%,3.733826%);fill-opacity:1;" d="M 0 39.769531 C 0 39.769531 6.90625 24.28125 12.140625 19.050781 C 17.371094 13.816406 26.582031 8.898438 29.929688 3.25 C 31.742188 0.1875 32.230469 0.00390625 32.230469 0.00390625 C 32.230469 0.00390625 33.90625 12.5625 26.371094 21.769531 C 18.835938 30.980469 9.417969 35.585938 4.394531 34.75 C 2.300781 39.351562 1.675781 40.191406 1.675781 40.191406 L 0 39.769531 "/>
</g>
<path style=" stroke:none;fill-rule:nonzero;fill:rgb(14.38446%,27.66571%,54.8172%);fill-opacity:1;" d="M 41.277344 33.492188 L 41.277344 17.863281 L 42.984375 17.863281 L 42.984375 20.234375 C 43.421875 19.125 43.824219 18.394531 44.195312 18.039062 C 44.5625 17.6875 44.96875 17.511719 45.414062 17.511719 C 46.054688 17.511719 46.703125 17.792969 47.367188 18.363281 L 46.710938 20.820312 C 46.246094 20.4375 45.78125 20.246094 45.320312 20.246094 C 44.902344 20.246094 44.53125 20.421875 44.199219 20.769531 C 43.867188 21.117188 43.632812 21.601562 43.492188 22.21875 C 43.28125 23.160156 43.175781 24.191406 43.175781 25.308594 L 43.175781 33.492188 L 41.277344 33.492188 "/>
<path style=" stroke:none;fill-rule:nonzero;fill:rgb(14.38446%,27.66571%,54.8172%);fill-opacity:1;" d="M 48.507812 33.492188 L 48.507812 17.863281 L 50.40625 17.863281 L 50.40625 33.492188 Z M 48.507812 14.964844 L 48.507812 11.917969 L 50.40625 11.917969 L 50.40625 14.964844 L 48.507812 14.964844 "/>
<path style=" stroke:none;fill-rule:nonzero;fill:rgb(14.38446%,27.66571%,54.8172%);fill-opacity:1;" d="M 57.445312 31.121094 L 57.71875 33.464844 C 57.1875 33.621094 56.707031 33.699219 56.285156 33.699219 C 55.59375 33.699219 55.058594 33.546875 54.679688 33.242188 C 54.300781 32.9375 54.035156 32.539062 53.878906 32.042969 C 53.722656 31.546875 53.648438 30.503906 53.648438 28.914062 L 53.648438 19.921875 L 52.253906 19.921875 L 52.253906 17.863281 L 53.648438 17.863281 L 53.648438 13.992188 L 55.535156 12.402344 L 55.535156 17.863281 L 57.445312 17.863281 L 57.445312 19.921875 L 55.535156 19.921875 L 55.535156 29.0625 C 55.535156 29.816406 55.570312 30.304688 55.636719 30.519531 C 55.703125 30.734375 55.8125 30.90625 55.964844 31.035156 C 56.113281 31.164062 56.332031 31.226562 56.613281 31.226562 C 56.824219 31.226562 57.101562 31.191406 57.445312 31.121094 "/>
<path style=" stroke:none;fill-rule:nonzero;fill:rgb(14.38446%,27.66571%,54.8172%);fill-opacity:1;" d="M 59.28125 33.492188 L 59.28125 17.863281 L 60.992188 17.863281 L 60.992188 20.234375 C 61.429688 19.125 61.832031 18.394531 62.203125 18.039062 C 62.570312 17.6875 62.976562 17.511719 63.421875 17.511719 C 64.058594 17.511719 64.710938 17.792969 65.371094 18.363281 L 64.71875 20.820312 C 64.253906 20.4375 63.789062 20.246094 63.324219 20.246094 C 62.910156 20.246094 62.535156 20.421875 62.207031 20.769531 C 61.875 21.117188 61.640625 21.601562 61.5 22.21875 C 61.289062 23.160156 61.183594 24.191406 61.183594 25.308594 L 61.183594 33.492188 L 59.28125 33.492188 "/>
<path style=" stroke:none;fill-rule:nonzero;fill:rgb(14.38446%,27.66571%,54.8172%);fill-opacity:1;" d="M 67.9375 24.175781 L 74.195312 24.175781 C 74.113281 22.863281 73.871094 21.875 73.480469 21.21875 C 72.875 20.199219 72.089844 19.6875 71.125 19.6875 C 70.253906 19.6875 69.519531 20.09375 68.925781 20.910156 C 68.328125 21.722656 68 22.8125 67.9375 24.175781 Z M 74.175781 28.460938 L 76.140625 28.796875 C 75.828125 30.398438 75.253906 31.636719 74.417969 32.519531 C 73.582031 33.402344 72.511719 33.84375 71.210938 33.84375 C 69.570312 33.84375 68.269531 33.140625 67.308594 31.734375 C 66.347656 30.324219 65.867188 28.351562 65.867188 25.808594 C 65.867188 23.179688 66.355469 21.140625 67.324219 19.6875 C 68.296875 18.234375 69.554688 17.511719 71.105469 17.511719 C 72.601562 17.511719 73.828125 18.222656 74.777344 19.644531 C 75.726562 21.066406 76.203125 23.066406 76.203125 25.648438 C 76.203125 25.804688 76.199219 26.039062 76.191406 26.355469 L 67.832031 26.355469 C 67.902344 28.070312 68.25 29.386719 68.878906 30.300781 C 69.503906 31.210938 70.285156 31.667969 71.21875 31.667969 C 71.917969 31.667969 72.511719 31.414062 73.003906 30.902344 C 73.496094 30.390625 73.886719 29.578125 74.175781 28.460938 "/>
<path style=" stroke:none;fill-rule:nonzero;fill:rgb(14.38446%,27.66571%,54.8172%);fill-opacity:1;" d="M 85.679688 25.648438 C 84.992188 26.039062 83.957031 26.375 82.578125 26.648438 C 81.796875 26.804688 81.242188 26.984375 80.917969 27.179688 C 80.597656 27.375 80.347656 27.664062 80.171875 28.039062 C 79.996094 28.417969 79.90625 28.835938 79.90625 29.296875 C 79.90625 30.003906 80.097656 30.59375 80.480469 31.0625 C 80.867188 31.535156 81.425781 31.769531 82.164062 31.769531 C 82.898438 31.769531 83.546875 31.546875 84.117188 31.101562 C 84.6875 30.65625 85.105469 30.042969 85.375 29.269531 C 85.578125 28.671875 85.679688 27.789062 85.679688 26.621094 Z M 85.839844 31.5625 C 85.136719 32.398438 84.457031 32.988281 83.808594 33.332031 C 83.15625 33.675781 82.457031 33.84375 81.710938 33.84375 C 80.480469 33.84375 79.535156 33.425781 78.871094 32.585938 C 78.210938 31.75 77.878906 30.675781 77.878906 29.371094 C 77.878906 28.605469 78.003906 27.90625 78.253906 27.273438 C 78.503906 26.640625 78.832031 26.132812 79.238281 25.75 C 79.640625 25.367188 80.097656 25.078125 80.601562 24.882812 C 80.976562 24.746094 81.539062 24.613281 82.292969 24.484375 C 83.828125 24.230469 84.957031 23.925781 85.679688 23.574219 C 85.6875 23.210938 85.691406 22.980469 85.691406 22.882812 C 85.691406 21.800781 85.511719 21.042969 85.152344 20.601562 C 84.667969 20.003906 83.945312 19.703125 82.988281 19.703125 C 82.09375 19.703125 81.4375 19.921875 81.011719 20.359375 C 80.585938 20.792969 80.269531 21.566406 80.066406 22.675781 L 78.207031 22.324219 C 78.375 21.214844 78.65625 20.320312 79.042969 19.636719 C 79.429688 18.953125 79.988281 18.429688 80.71875 18.0625 C 81.453125 17.695312 82.300781 17.511719 83.265625 17.511719 C 84.21875 17.511719 84.996094 17.667969 85.597656 17.980469 C 86.195312 18.296875 86.632812 18.691406 86.914062 19.164062 C 87.195312 19.640625 87.394531 20.242188 87.507812 20.96875 C 87.570312 21.417969 87.601562 22.234375 87.601562 23.410156 L 87.601562 26.945312 C 87.601562 29.40625 87.640625 30.964844 87.722656 31.617188 C 87.804688 32.269531 87.964844 32.894531 88.203125 33.492188 L 86.21875 33.492188 C 86.023438 32.941406 85.894531 32.300781 85.839844 31.5625 "/>
<path style=" stroke:none;fill-rule:nonzero;fill:rgb(14.38446%,27.66571%,54.8172%);fill-opacity:1;" d="M 90.546875 33.492188 L 90.546875 17.863281 L 92.257812 17.863281 L 92.257812 20.085938 C 93.078125 18.367188 94.269531 17.511719 95.824219 17.511719 C 96.5 17.511719 97.121094 17.679688 97.6875 18.019531 C 98.253906 18.355469 98.675781 18.800781 98.960938 19.351562 C 99.238281 19.898438 99.4375 20.550781 99.550781 21.308594 C 99.621094 21.796875 99.65625 22.65625 99.65625 23.882812 L 99.65625 33.492188 L 97.753906 33.492188 L 97.753906 23.984375 C 97.753906 22.90625 97.679688 22.097656 97.535156 21.566406 C 97.386719 21.03125 97.125 20.601562 96.746094 20.285156 C 96.371094 19.964844 95.929688 19.804688 95.421875 19.804688 C 94.613281 19.804688 93.914062 20.164062 93.328125 20.878906 C 92.738281 21.597656 92.445312 22.957031 92.445312 24.957031 L 92.445312 33.492188 L 90.546875 33.492188 "/>
<path style=" stroke:none;fill-rule:nonzero;fill:rgb(14.38446%,27.66571%,54.8172%);fill-opacity:1;" d="M 110.390625 24.632812 L 115.636719 24.632812 L 114.019531 18.65625 C 113.527344 16.84375 113.164062 15.351562 112.925781 14.183594 C 112.726562 15.566406 112.449219 16.941406 112.089844 18.304688 Z M 105.925781 33.492188 L 111.867188 11.917969 L 114.074219 11.917969 L 120.40625 33.492188 L 118.074219 33.492188 L 116.269531 26.957031 L 109.800781 26.957031 L 108.101562 33.492188 L 105.925781 33.492188 "/>
<path style=" stroke:none;fill-rule:nonzero;fill:rgb(14.38446%,27.66571%,54.8172%);fill-opacity:1;" d="M 121.8125 33.492188 L 121.8125 17.863281 L 123.710938 17.863281 L 123.710938 33.492188 Z M 121.8125 14.964844 L 121.8125 11.917969 L 123.710938 11.917969 L 123.710938 14.964844 L 121.8125 14.964844 "/>
<path style=" stroke:none;fill-rule:nonzero;fill:rgb(14.38446%,27.66571%,54.8172%);fill-opacity:1;" d="M 126.582031 33.492188 L 126.582031 17.863281 L 128.289062 17.863281 L 128.289062 20.234375 C 128.726562 19.125 129.128906 18.394531 129.5 18.039062 C 129.867188 17.6875 130.277344 17.511719 130.71875 17.511719 C 131.359375 17.511719 132.011719 17.792969 132.671875 18.363281 L 132.015625 20.820312 C 131.554688 20.4375 131.089844 20.246094 130.625 20.246094 C 130.210938 20.246094 129.835938 20.421875 129.503906 20.769531 C 129.175781 21.117188 128.9375 21.601562 128.796875 22.21875 C 128.585938 23.160156 128.480469 24.191406 128.480469 25.308594 L 128.480469 33.492188 L 126.582031 33.492188 "/>
<path style=" stroke:none;fill-rule:nonzero;fill:rgb(14.38446%,27.66571%,54.8172%);fill-opacity:1;" d="M 133.757812 33.492188 L 133.757812 11.917969 L 135.65625 11.917969 L 135.65625 33.492188 L 133.757812 33.492188 "/>
<path style=" stroke:none;fill-rule:nonzero;fill:rgb(14.38446%,27.66571%,54.8172%);fill-opacity:1;" d="M 138.613281 33.492188 L 138.613281 17.863281 L 140.515625 17.863281 L 140.515625 33.492188 Z M 138.613281 14.964844 L 138.613281 11.917969 L 140.515625 11.917969 L 140.515625 14.964844 L 138.613281 14.964844 "/>
<path style=" stroke:none;fill-rule:nonzero;fill:rgb(14.38446%,27.66571%,54.8172%);fill-opacity:1;" d="M 143.40625 33.492188 L 143.40625 17.863281 L 145.117188 17.863281 L 145.117188 20.085938 C 145.941406 18.367188 147.128906 17.511719 148.683594 17.511719 C 149.359375 17.511719 149.980469 17.679688 150.546875 18.019531 C 151.113281 18.355469 151.535156 18.800781 151.820312 19.351562 C 152.101562 19.898438 152.296875 20.550781 152.410156 21.308594 C 152.480469 21.796875 152.515625 22.65625 152.515625 23.882812 L 152.515625 33.492188 L 150.613281 33.492188 L 150.613281 23.984375 C 150.613281 22.90625 150.542969 22.097656 150.394531 21.566406 C 150.246094 21.03125 149.984375 20.601562 149.609375 20.285156 C 149.230469 19.964844 148.789062 19.804688 148.28125 19.804688 C 147.472656 19.804688 146.773438 20.164062 146.1875 20.878906 C 145.601562 21.597656 145.304688 22.957031 145.304688 24.957031 L 145.304688 33.492188 L 143.40625 33.492188 "/>
<path style=" stroke:none;fill-rule:nonzero;fill:rgb(14.38446%,27.66571%,54.8172%);fill-opacity:1;" d="M 156.863281 24.175781 L 163.121094 24.175781 C 163.039062 22.863281 162.800781 21.875 162.40625 21.21875 C 161.800781 20.199219 161.015625 19.6875 160.050781 19.6875 C 159.179688 19.6875 158.445312 20.09375 157.851562 20.910156 C 157.257812 21.722656 156.925781 22.8125 156.863281 24.175781 Z M 163.101562 28.460938 L 165.066406 28.796875 C 164.753906 30.398438 164.183594 31.636719 163.34375 32.519531 C 162.507812 33.402344 161.4375 33.84375 160.136719 33.84375 C 158.496094 33.84375 157.195312 33.140625 156.234375 31.734375 C 155.273438 30.324219 154.796875 28.351562 154.796875 25.808594 C 154.796875 23.179688 155.28125 21.140625 156.253906 19.6875 C 157.222656 18.234375 158.480469 17.511719 160.03125 17.511719 C 161.527344 17.511719 162.753906 18.222656 163.703125 19.644531 C 164.652344 21.066406 165.128906 23.066406 165.128906 25.648438 C 165.128906 25.804688 165.125 26.039062 165.117188 26.355469 L 156.757812 26.355469 C 156.828125 28.070312 157.175781 29.386719 157.804688 30.300781 C 158.429688 31.210938 159.210938 31.667969 160.148438 31.667969 C 160.84375 31.667969 161.4375 31.414062 161.929688 30.902344 C 162.421875 30.390625 162.8125 29.578125 163.101562 28.460938 "/>
<path style=" stroke:none;fill-rule:nonzero;fill:rgb(14.38446%,27.66571%,54.8172%);fill-opacity:1;" d="M 166.691406 28.828125 L 168.570312 28.414062 C 168.675781 29.464844 168.96875 30.269531 169.449219 30.828125 C 169.933594 31.386719 170.605469 31.667969 171.472656 31.667969 C 172.34375 31.667969 172.992188 31.417969 173.414062 30.925781 C 173.835938 30.429688 174.046875 29.847656 174.046875 29.179688 C 174.046875 28.582031 173.859375 28.109375 173.488281 27.769531 C 173.226562 27.53125 172.578125 27.234375 171.546875 26.871094 C 170.152344 26.378906 169.1875 25.953125 168.648438 25.597656 C 168.109375 25.238281 167.703125 24.742188 167.425781 24.109375 C 167.144531 23.476562 167.007812 22.777344 167.007812 22.011719 C 167.007812 21.316406 167.121094 20.671875 167.351562 20.078125 C 167.578125 19.484375 167.890625 18.992188 168.285156 18.597656 C 168.578125 18.296875 168.980469 18.039062 169.492188 17.828125 C 170.003906 17.617188 170.550781 17.511719 171.132812 17.511719 C 172.015625 17.511719 172.785156 17.6875 173.449219 18.039062 C 174.117188 18.394531 174.605469 18.871094 174.921875 19.476562 C 175.238281 20.078125 175.457031 20.886719 175.578125 21.894531 L 173.71875 22.25 C 173.636719 21.445312 173.390625 20.816406 172.984375 20.367188 C 172.582031 19.914062 172.011719 19.6875 171.269531 19.6875 C 170.398438 19.6875 169.777344 19.890625 169.402344 20.292969 C 169.03125 20.695312 168.84375 21.164062 168.84375 21.703125 C 168.84375 22.046875 168.921875 22.355469 169.074219 22.632812 C 169.230469 22.917969 169.472656 23.152344 169.804688 23.339844 C 169.992188 23.4375 170.554688 23.660156 171.480469 24.015625 C 172.824219 24.515625 173.765625 24.925781 174.296875 25.242188 C 174.824219 25.5625 175.242188 26.027344 175.546875 26.632812 C 175.847656 27.242188 176 28 176 28.902344 C 176 29.785156 175.816406 30.617188 175.445312 31.394531 C 175.074219 32.175781 174.542969 32.777344 173.847656 33.207031 C 173.148438 33.632812 172.363281 33.84375 171.480469 33.84375 C 170.027344 33.84375 168.914062 33.421875 168.152344 32.578125 C 167.386719 31.734375 166.902344 30.484375 166.691406 28.828125 "/>
</g>
</svg>
