<svg xmlns="http://www.w3.org/2000/svg" width="176pt" height="51.707" viewBox="0 0 176 38.78"><defs><clipPath id="a"><path d="M137 0h39v38.781h-39Zm0 0"/></clipPath></defs><path d="M0 11.496h3.875c.063 1.043.023 2.07.031 3.094.008 1.035 0 2.07 0 3.11v6.191000000000001c-1.347.023-2.625.043-3.906.062zM35.852 23.879H32.71V11.5c1.129-.047 2.242-.012 3.426-.023 1.605 2.039 3.226 4.097 4.843 6.156l.141-.047v-6.063h3.07c.153.668.164 11.555.012 12.36h-2.61l-5.573-6.899c-.075 0-.102-.007-.122.004-.02.016-.046.043-.046.067zM74.426 17.574c.86 0 1.617.04 2.367-.015.375-.028.777-.16 1.094-.364.562-.367.773-.93.636-1.61-.16-.796-.625-1.331-1.414-1.48-.879-.164-1.773-.062-2.683-.043zm7.254 6.324h-3.328c-.098-.183-.211-.37-.305-.566-.445-.941-.953-1.844-1.645-2.629-.492-.558-1.074-.98-1.96-1.047-.063 1.399.019 2.785-.028 4.211H71.04c-.152-.601-.184-11.43-.023-12.344.18-.015.367-.043.558-.043 1.793-.003 3.59 0 5.383-.003.856 0 1.668.156 2.441.535 2.399 1.172 3.125 4.476.813 6.535-.395.348-.863.617-1.3.926.507.703 1.046 1.379 1.503 2.109.445.703.805 1.465 1.266 2.316M126.441 17.563c.934 0 1.746.046 2.547-.016.907-.067 1.528-.723 1.598-1.555.066-.816-.531-1.687-1.375-1.863-.926-.2-1.863-.098-2.77-.047zm.016 6.328h-3.375c-.031-.028-.055-.043-.07-.067-.02-.02-.043-.043-.043-.066q-.022-5.928-.031-11.863c0-.106.027-.215.046-.368.211-.02.399-.047.586-.047 1.793-.003 3.59 0 5.387-.003.856 0 1.668.156 2.441.523 2.274 1.078 3.118 4.21 1.079 6.297-.446.457-1.008.793-1.536 1.2.489.671 1.008 1.355 1.485 2.07.457.695.87 1.417 1.156 2.3-.582.098-1.11.04-1.629.051-.527.012-1.058 0-1.578 0-.355-.664-.664-1.293-1.016-1.895-.425-.73-.894-1.43-1.613-1.914-.46-.316-.555-.351-1.289-.398zM9.828 17.563c.883 0 1.715.042 2.543-.012.922-.067 1.547-.715 1.606-1.54.062-.894-.528-1.75-1.43-1.906-.899-.156-1.817-.093-2.719-.023zm4.453 1.917c1.137 1.336 2.067 2.723 2.746 4.399-.578.074-1.093.031-1.609.039-.531.008-1.063 0-1.637 0-.293-.55-.539-1.117-.87-1.625-.427-.652-.88-1.297-1.4-1.879a2.16 2.16 0 0 0-1.66-.746v4.227c-.59.007-1.14.02-1.687.023-.559.004-1.113 0-1.652 0-.184-.676-.211-11.488-.04-12.402.15-.012.31-.036.473-.036 1.848-.003 3.7-.02 5.547.008a6.4 6.4 0 0 1 1.653.254c1.601.48 2.574 1.602 2.84 3.223.261 1.61-.419 2.898-1.704 3.867-.289.219-.61.395-1 .648M97.96 17.684c0 1.773 1.5 3.234 3.302 3.214 1.804-.02 3.308-1.507 3.285-3.253-.024-1.73-1.488-3.137-3.281-3.149-1.86-.012-3.301 1.383-3.305 3.188m3.228-6.204c3.023-.007 5.55 1.918 6.257 4.715.868 3.434-1.465 7.02-4.965 7.582-2.59.418-4.773-.336-6.39-2.437-2.195-2.848-1.438-6.875 1.66-8.86 1.059-.683 2.23-1.03 3.438-1M23.23 19.05c1.403.223 2.332.208 2.88-.023-.301-1.257-1.098-3.215-1.516-3.652zm-.015-7.534h3.148c1.715 4.043 3.375 8.16 5.106 12.355-.602.086-1.149.04-1.692.047-.558.008-1.113 0-1.71 0-.337-.84-.649-1.637-.97-2.45h-4.753a522 522 0 0 0-.926 2.4h-3.281c.082-.263.129-.493.218-.708 1.45-3.492 2.907-6.98 4.36-10.469.16-.386.324-.77.5-1.175M55.484 19.055c1.047.215 1.973.133 3.024.129-.524-1.38-1-2.633-1.547-4.067-.523 1.399-.98 2.617-1.477 3.938m8.254 4.824h-3.422a525 525 0 0 1-.957-2.422h-4.738c-.309.781-.625 1.582-.953 2.418h-3.344c1.723-4.145 3.418-8.227 5.133-12.348h3.2zM109.727 11.516h3c.015.242.046.48.046.718.004 2.188 0 4.375.004 6.563 0 1.121.38 1.633 1.442 1.965.719.222 1.433.238 2.148-.016.945-.336 1.336-.875 1.336-1.894-.004-2.157-.016-4.317-.023-6.477-.004-.27 0-.543 0-.855h2.87c.016.25.048.464.048.683.004 2.188-.04 4.375.007 6.559.07 3.082-2.28 4.843-4.796 5.039-1.25.097-2.465-.04-3.59-.645-1.582-.855-2.504-2.18-2.555-3.972-.07-2.465-.02-4.934-.02-7.399 0-.078.043-.156.083-.27M93.383 14.383h-3.61v9.488H86.88c-.016-.293-.043-.59-.043-.887-.004-2.55 0-5.101-.004-7.652 0-.3-.027-.602-.043-.957h-3.723v-2.79c.614-.14 9.043-.187 10.325-.046.043.895.035 1.8-.008 2.844M64.883 23.875V11.609c.574-.171 2.625-.21 3.726-.074.145.606.18 11.32.036 12.34zM1.05 31.316v-.82c.65-.164 21.278-.234 23.25-.082v.902zM134.777 30.258v.812c-.02.024-.035.047-.054.067a.3.3 0 0 1-.075.035c-.023.012-.05.027-.078.027-7.515.004-15.035.008-22.55.008-.137 0-.278-.02-.47-.035v-.914zM84.633 34.016h-.778q-1.495-2.233-2.984-4.453c-.262 1.484-.117 2.945-.226 4.433h-.618v-5.832h.785l2.993 4.45c.293-.512.136-.989.16-1.438.031-.504.008-1.008.008-1.512v-1.488c.199-.016.406-.028.66-.047zM49.246 28.727v1.972c.719 0 1.387.024 2.055-.008.687-.03 1.054-.37 1.09-.93.03-.566-.286-.952-.985-1.019-.687-.066-1.386-.015-2.16-.015m-.726-.559c1.187 0 2.328-.04 3.464.016.61.027 1.055.535 1.184 1.144.145.664-.125 1.32-.703 1.664-.215.125-.457.203-.754.332.77.778 1.344 1.668 1.887 2.684-.325.015-.567.023-.848.039-.36-.543-.746-1.055-1.055-1.613-.55-.98-1.36-1.243-2.476-.977v2.512c-.25.031-.434.05-.586.07-.196-.191-.254-3.934-.113-5.871M107.707 32.414c-.074-.516-.398-.727-.785-.855-.426-.137-.867-.235-1.293-.36a6 6 0 0 1-.793-.281c-.55-.25-.898-.668-.906-1.297-.004-.617.316-1.086.851-1.348.887-.433 1.793-.398 2.664.067.477.254.707.695.793 1.3-.18.063-.37.13-.558.192-.086-.11-.153-.164-.188-.234-.426-.91-1.539-1.25-2.383-.727-.382.234-.437.426-.296 1.207.351.133.753.3 1.171.438.454.144.922.234 1.368.398.625.23 1.035.668 1.07 1.367.039.723-.309 1.278-.942 1.559-.996.441-2.023.426-2.972-.164-.5-.309-.727-.82-.778-1.457.211-.051.387-.094.606-.145.336 1.067 1.059 1.485 2.121 1.367.64-.074 1.148-.28 1.25-1.027M92.281 34.047v-5.89c1.38-.102 2.742 0 4.16-.063v.691H93.02v1.809c1.039.164 2.101-.004 3.203.097v.606H93.09c-.219.691-.106 1.324-.098 2.039 1.184.098 2.352 0 3.57.059.032.18.06.359.106.632-.77.004-1.492.016-2.207.02-.7.004-1.395 0-2.18 0M29.234 31.555h2.02c-.344-.926-.656-1.782-1.016-2.766-.36.984-.668 1.84-1.004 2.766m2.274.687h-2.492l-.707 1.762h-.766c.762-1.988 1.496-3.91 2.238-5.848h.903c.785 1.926 1.562 3.836 2.375 5.836-.317.024-.551.035-.817.055-.246-.602-.476-1.168-.734-1.805M61.406 33.375h2.867v.66c-1.183.02-2.37.016-3.609 0v-5.87h.742zM72.355 28.082v5.898c-.214.024-.425.047-.738.079-.039-.993-.015-1.934-.02-2.875-.003-.954 0-1.907 0-2.961.22-.043.442-.082.758-.141M40.766 33.996h-.641v-5.824h.64z" style="stroke:none;fill-rule:nonzero;fill:#1e284f;fill-opacity:1"/><g clip-path="url(#a)"><path d="m157.246 37.613.012.028c.222 0 .453.007.68 0 .292-.008.593-.004.882-.047a28 28 0 0 0 1.508-.266c.734-.156 1.461-.344 2.172-.586a18.7 18.7 0 0 0 4.77-2.465 18 18 0 0 0 1.882-1.55q.769-.719 1.45-1.52a19 19 0 0 0 1.668-2.316c.5-.809.921-1.66 1.285-2.543a19 19 0 0 0 .882-2.692c.172-.703.293-1.418.375-2.14.079-.664.13-1.332.118-2a20 20 0 0 0-.063-1.282c-.027-.441-.07-.882-.11-1.32a15 15 0 0 0-.32-1.977c-.074-.324-.164-.648-.32-.949-.027-.058-.066-.113-.101-.172-.043.016-.067.024-.086.036-.325.14-.668.23-1.008.32-.258.062-.512.14-.766.223a2 2 0 0 0-1 .68c-.086.105-.191.195-.293.296-.879-.008-1.562-.379-2.113-1.074.184-.16.352-.32.531-.465.313-.254.649-.457 1.04-.559a3.4 3.4 0 0 1 .882-.093c.707.008 1.414.03 2.117 0 .157-.008.313-.032.47-.047 0-.035.003-.051 0-.07-.157-.696-.442-1.34-.77-1.965a17.6 17.6 0 0 0-1.438-2.223 28 28 0 0 0-2.543-2.922c-.988-1-2.125-1.8-3.351-2.476a21 21 0 0 0-2.848-1.305 19 19 0 0 0-1.93-.606 16.4 16.4 0 0 0-2.812-.46c-.555-.04-1.11-.051-1.664-.047-.762.004-1.524.054-2.278.183-.543.09-1.082.172-1.617.293-.484.106-.965.25-1.437.39a16.9 16.9 0 0 0-4.528 2.114 18 18 0 0 0-2.316 1.82c-.707.66-1.367 1.36-1.969 2.121a18.5 18.5 0 0 0-1.59 2.325 18.6 18.6 0 0 0-1.207 2.539q-.432 1.113-.707 2.273a14 14 0 0 0-.328 1.88c-.043.433-.113.862-.129 1.296-.031.832-.055 1.664.024 2.496.046.496.093.992.168 1.484.109.766.285 1.524.5 2.266a18.167 18.167 0 0 0 3.402 6.422c.582.71 1.215 1.371 1.89 1.984.711.645 1.461 1.242 2.262 1.778a18 18 0 0 0 3.262 1.742c.953.383 1.934.68 2.95.867.339.063.683.105 1.026.16a.68.68 0 0 1 .458-.32c.113-.027.222-.04.335-.055.458-.062.915-.12 1.368-.183.394-.051.789-.11 1.18-.157a.7.7 0 0 1 .296.043c.156.051.266.254.25.426-.012.172-.12.285-.308.328-.051.012-.098.028-.145.04m-20.027-17.43v-1.816c.011-.047.035-.094.035-.14.05-.907.156-1.805.336-2.7.16-.82.37-1.632.64-2.425q.573-1.667 1.438-3.204a19 19 0 0 1 3.168-4.152c.426-.422.879-.816 1.336-1.203.98-.84 2.055-1.547 3.187-2.16a19.3 19.3 0 0 1 4.125-1.664c.453-.121.903-.239 1.364-.324.597-.11 1.203-.2 1.808-.274.38-.05.77-.058 1.153-.086.039-.004.078-.023.12-.035h1.438c.04.012.078.031.121.035.492.04.98.07 1.469.117.668.063 1.324.188 1.977.336 1.082.242 2.132.582 3.16 1.016 1 .418 1.965.914 2.879 1.496a19.38 19.38 0 0 1 8.511 11.996c.149.633.262 1.274.348 1.914.063.457.086.918.129 1.375.004.067.023.13.039.195v2.008q-.025.099-.04.196c-.054.507-.093 1.02-.155 1.523a16 16 0 0 1-.352 1.855 19 19 0 0 1-.93 2.817 19.4 19.4 0 0 1-1.906 3.476 19.3 19.3 0 0 1-2.43 2.868 19.4 19.4 0 0 1-2.613 2.144 18 18 0 0 1-3.117 1.738c-.562.247-1.129.477-1.707.668-.598.2-1.21.356-1.816.512-.614.156-1.239.258-1.864.332-.492.059-.992.086-1.488.125-.047.008-.094.028-.14.04h-1.743c-.058-.012-.117-.036-.176-.04-.496-.043-.996-.066-1.488-.129a19.2 19.2 0 0 1-6.515-2.078 19 19 0 0 1-2.165-1.351 20 20 0 0 1-1.8-1.465 20 20 0 0 1-2.446-2.707 20 20 0 0 1-2-3.332 18.7 18.7 0 0 1-1.168-3.13c-.125-.445-.238-.89-.32-1.34a31 31 0 0 1-.281-1.792c-.047-.367-.059-.742-.086-1.113 0-.04-.024-.078-.035-.121" style="stroke:none;fill-rule:nonzero;fill:#1e284f;fill-opacity:1"/></g><path d="M163.398 36.246c0-.078-.007-.14 0-.203.153-1.18.184-2.363.137-3.55a11 11 0 0 0-.117-1.126 11 11 0 0 0-.336-1.57c-.219-.75-.469-1.488-.82-2.192-.196-.39-.395-.773-.586-1.164-.043-.09-.074-.183-.125-.304h.215q.381.005.77.004c.82 0 1.624-.086 2.417-.282.61-.144 1.195-.355 1.774-.601.414-.176.828-.363 1.242-.547l.078-.027c.148.109.25.265.348.414.25.379.414.797.55 1.222q.265.811.371 1.657a7.832 7.832 0 0 1-.48 3.95c-.242.596-.586 1.128-.95 1.655a2.2 2.2 0 0 1-.64.598c-.766.48-1.52.968-2.316 1.39-.438.23-.875.446-1.34.614-.059.02-.117.039-.192.062" style="stroke:none;fill-rule:nonzero;fill:#1e284f;fill-opacity:1"/><path d="M160.73 37.07c.024-.129.04-.234.067-.336.11-.5.2-1 .254-1.507.062-.579.11-1.153.097-1.735a14 14 0 0 0-.14-1.715 12.2 12.2 0 0 0-.684-2.629 12.2 12.2 0 0 0-2.234-3.722 12.6 12.6 0 0 0-2.688-2.313c-.8-.523-1.601-1.054-2.386-1.597-.375-.258-.72-.555-1.067-.848a1.25 1.25 0 0 1-.41-.602c-.172-.55.16-1.152.723-1.273.347-.074.664.031.941.242.25.188.492.395.738.59.637.508 1.297.98 1.989 1.41.863.54 1.687 1.133 2.441 1.813a14.655 14.655 0 0 1 3.453 4.602c.39.823.703 1.683.934 2.57.152.593.262 1.19.351 1.796.043.313.07.63.082.942.024.449.04.894.032 1.34-.008.43-.055.859-.09 1.285-.024.25-.063.5-.094.75-.027.242-.176.375-.398.445-.387.121-.77.25-1.157.363-.172.051-.355.082-.535.114-.062.015-.133.011-.219.015M168.664 11.781v2.16c-.05-.015-.098-.023-.144-.039-.79-.308-1.602-.37-2.434-.257-.691.093-1.356.285-1.969.628-.297.172-.578.368-.8.625-.126.141-.231.301-.352.461-.5-.039-1.016-.082-1.528-.125q-.044.323.508 1.016c-.054.188-.172.355-.28.52-.294.449-.599.89-.821 1.382-.328.723-.614 1.461-.805 2.235a12.4 12.4 0 0 0-.324 1.879c-.031.343-.05.691-.07 1.035q-.008.081-.016.168c-.324-.145-1.844-1.567-2.152-2.012.043-.207.082-.43.132-.648.227-.985.54-1.946.942-2.868a13 13 0 0 1 1.847-3.07 9.6 9.6 0 0 1 1.778-1.691 7.9 7.9 0 0 1 3.097-1.387c.7-.148 1.41-.203 2.125-.152.415.027.825.09 1.266.14" style="stroke:none;fill-rule:nonzero;fill:#1e284f;fill-opacity:1"/><path d="M162.176 16.559c.125.086.242.156.351.238q.177.128.336.273c.352.317.77.477 1.227.547q.054.01.11.02c.019.004.034.015.062.031.008.09.023.18.023.273.012.606.043 1.211.133 1.809.074.488.176.969.402 1.414.18.36.442.64.77.863.281.192.562.387.793.641.094.102.176.215.277.344-.148.05-.27.097-.39.14-.551.2-1.106.391-1.672.535-.48.118-.961.204-1.453.25-.7.067-1.399.043-2.098.028a3.3 3.3 0 0 1-.871-.152c-.047-.016-.094-.043-.145-.067a4.5 4.5 0 0 1-.035-.793c.031-.836.168-1.656.379-2.46.223-.856.504-1.692.934-2.47.183-.335.398-.66.593-.988.086-.144.168-.293.274-.476" style="stroke:none;fill-rule:nonzero;fill:#1e284f;fill-opacity:1"/><path d="M169.773 20.18a1.6 1.6 0 0 1-.64.238c-.332.059-.664.07-1 .066a5 5 0 0 0-1.149.102c-.246.055-.48.144-.71.254-.18.082-.368.16-.555.238-.031.012-.07.016-.125.027-.07-.14-.145-.277-.207-.421-.211-.473-.383-.961-.422-1.48-.024-.294-.02-.583-.024-.872-.004-.164 0-.328 0-.508.168-.023.317-.039.465-.058.192-.024.387-.043.578-.082.442-.09.68-.372.75-.813a1.4 1.4 0 0 0 0-.469c-.066-.363-.28-.597-.605-.742a2.2 2.2 0 0 0-.828-.176c-.492-.007-.985-.004-1.477-.007-.125-.004-.246-.016-.383-.028.063-.23.211-.375.371-.504.266-.222.57-.375.887-.504a6.8 6.8 0 0 1 1.735-.433c.39-.047.78-.047 1.168.015.367.063.703.204.992.442a8 8 0 0 1 .472.41c.422.402.926.625 1.508.656.024 0 .047.012.09.02-.035.27-.07.531-.11.82-.16-.07-.3-.129-.437-.187a3.4 3.4 0 0 0-.804-.258 2.05 2.05 0 0 0-1.22.176.6.6 0 0 0-.124.082c-.215.18-.246.382-.098.617.05.074.11.14.149.199-.094.21-.204.406-.266.613-.2.645.223.992.703 1.051.594.07 1.11-.105 1.54-.527.007-.008.019-.012.042-.028.047.055.047.121.047.188a6.6 6.6 0 0 1-.234 1.7c-.02.066-.051.128-.079.183M166.988 23.203c.301.39.594.777.899 1.172-.063.05-.106.094-.157.133-.242.176-.511.293-.785.406-.937.395-1.925.633-2.922.824a11 11 0 0 1-1.628.192 3 3 0 0 1-.864-.075.6.6 0 0 1-.39-.27c-.262-.394-.536-.78-.801-1.17-.063-.087-.137-.165-.203-.247a.93.93 0 0 1 .457-.027c.742.101 1.48.132 2.226.093a8.2 8.2 0 0 0 2.254-.437c.528-.176 1.055-.344 1.582-.516.102-.031.207-.047.332-.078M146.57 17.973a.8.8 0 0 1-.472-.285c-.817-.926-1.559-1.903-2.184-2.961-.406-.684-.797-1.375-1.09-2.118a5 5 0 0 1-.324-1.16c-.031-.246-.023-.488.094-.719a.4.4 0 0 1 .062-.113c.211-.226.457-.394.781-.402a.51.51 0 0 1 .391.164c.145.144.246.32.32.512.11.293.215.59.305.89.192.614.36 1.235.555 1.844.254.805.554 1.594.953 2.34.144.265.309.52.457.781.117.203.23.406.277.637.047.215.035.414-.125.59M146.371 18.969a1.3 1.3 0 0 1-.492-.188c-.313-.176-.578-.402-.844-.636-.465-.41-.93-.813-1.383-1.235a23 23 0 0 1-1.675-1.773c-.395-.457-.793-.914-1.125-1.422a1.6 1.6 0 0 1-.235-.535c-.054-.27-.012-.52.156-.735a2.4 2.4 0 0 1 .387-.383c.324-.25.606-.214.89.118.15.172.27.363.384.562.296.535.578 1.074.87 1.613.454.844.962 1.66 1.555 2.41.286.36.606.696.91 1.036.176.191.368.367.489.601.094.176.156.356.113.567M147.117 17.121c-.082-.09-.168-.172-.238-.27-.23-.316-.41-.663-.586-1.011A19 19 0 0 1 145 12.52a8 8 0 0 1-.309-1.727 2.4 2.4 0 0 1 .086-.766c.098-.343.34-.52.672-.593.395-.086.613.02.813.375.144.265.203.554.23.851.051.59.082 1.18.121 1.77q.05.633.168 1.254c.14.734.375 1.437.574 2.152.07.258.137.512.133.781-.008.242-.117.403-.37.504" style="stroke:none;fill-rule:nonzero;fill:#1e284f;fill-opacity:1"/><path d="M168.234 23.027c-.02-.011-.035-.015-.043-.023-.336-.387-.77-.621-1.234-.817a5 5 0 0 1-.617-.324c-.203-.12-.36-.297-.5-.484.082-.149.215-.227.344-.297.199-.113.418-.172.64-.227.446-.105.899-.125 1.348-.168.516-.046 1.031-.058 1.535-.195.027-.004.063 0 .113 0-.015.606-.02 1.203.36 1.711-.063.09-.153.106-.227.149-.148.082-.3.164-.394.312a.7.7 0 0 0-.094.184.72.72 0 0 0 .707.93c.246-.005.414-.133.512-.352.082-.188.074-.383.05-.578-.004-.04-.035-.075-.058-.121-.074.039-.086.097-.098.16-.016.105-.023.21-.043.32-.039.227-.226.352-.457.32a.31.31 0 0 1-.266-.21c-.136-.337-.003-.602.27-.731a.77.77 0 0 1 .55-.07c.06.015.126.03.184.05.352.118.704.227 1.079.282-.036.367-.145.695-.38.976-.245.29-.57.434-.937.473a2.8 2.8 0 0 1-1.375-.188 1.3 1.3 0 0 1-.535-.406c-.176-.226-.227-.48-.121-.746.039-.098.117-.176.183-.262.051-.07.125-.125.168-.203.118-.199.004-.64-.187-.773-.363-.246-.79-.074-.89.386.07-.046.12-.085.171-.12.113-.075.227-.141.363-.141q.171-.001.258.133.158.217.047.464a.7.7 0 0 1-.074.13c-.113.152-.23.3-.352.456M146.48 20.063c-.07-.008-.117-.012-.167-.02a5.4 5.4 0 0 1-1.223-.43c-1.102-.515-2.125-1.152-3.121-1.84a18 18 0 0 1-1.528-1.148c-.293-.25-.543-.543-.683-.91a1.1 1.1 0 0 1-.043-.668c.082-.336.453-.664.86-.625.155.02.28.07.394.172.039.039.082.078.113.125.457.617.996 1.168 1.531 1.722a25 25 0 0 0 1.575 1.497c.57.492 1.148.964 1.785 1.367q.075.051.164.097a.6.6 0 0 1 .32.48c.004.052.012.098.023.18M148.766 16.254c-.286.105-.586.14-.875.223-.121-.215-.184-.434-.25-.645a18 18 0 0 1-.555-2.336 16 16 0 0 1-.172-1.387c-.035-.382-.039-.765-.039-1.152-.004-.316.05-.625.152-.926q.043-.117.102-.222a.77.77 0 0 1 .586-.407c.316-.043.601.008.82.266.125.14.188.312.203.5.035.375-.039.738-.133 1.098-.164.593-.25 1.199-.238 1.812.016.676.086 1.344.23 2.008.071.316.114.644.165.965.008.062.004.125.004.203M146.902 21.043c-.261.023-.511-.016-.761-.05a18 18 0 0 1-3.118-.747c-.64-.207-1.28-.422-1.89-.703-.313-.14-.613-.3-.871-.527a1.7 1.7 0 0 1-.274-.286c-.215-.293-.222-.605-.062-.925a1.7 1.7 0 0 1 .187-.285c.157-.184.348-.23.559-.114.183.106.355.235.527.364.68.515 1.41.949 2.16 1.347.938.5 1.907.922 2.887 1.32q.112.05.23.086c.247.079.395.235.426.52" style="stroke:none;fill-rule:nonzero;fill:#1e284f;fill-opacity:1"/><path d="M150.184 16.363c-.286-.031-.54-.078-.77-.199a.65.65 0 0 1-.27-.309c-.144-.28-.222-.59-.292-.894a8.4 8.4 0 0 1-.192-2.254c.02-.43.067-.855.195-1.27.086-.273.204-.527.407-.738.43-.445.953-.289 1.242.086.238.313.293.672.184 1.043-.06.192-.141.379-.231.559-.219.43-.465.851-.594 1.324-.11.414-.148.832-.05 1.254.09.39.203.777.304 1.168.02.066.04.133.067.23M147.617 21.918c-.207.027-.379.059-.554.074q-.981.075-1.965.04-.885-.023-1.77-.134a8.3 8.3 0 0 1-1.512-.316c-.296-.098-.578-.219-.816-.426-.328-.289-.316-.644-.129-.972a.29.29 0 0 1 .277-.16c.192 0 .364.054.536.12.3.118.601.254.914.36a13 13 0 0 0 1.898.484c.41.075.824.121 1.234.18.458.066.91.137 1.34.312.184.07.356.165.48.32.02.024.032.052.067.118M161.988 15.637c.27.023.512.043.758.062q.551.046 1.11.098c.515.047 1.03.035 1.55.031.149 0 .305.008.45.04.421.085.57.394.593.71a1 1 0 0 1-.043.371.57.57 0 0 1-.398.414 3.1 3.1 0 0 1-1.082.125 3.9 3.9 0 0 1-1.34-.297 3.1 3.1 0 0 1-1.598-1.554M151.25 20.426h-.145a14.5 14.5 0 0 1-2.32-.301c-.5-.11-.988-.242-1.445-.473a1.4 1.4 0 0 1-.469-.347c-.207-.239-.191-.489-.055-.715.075-.125.172-.238.278-.332.226-.207.492-.238.773-.13.207.079.367.22.543.345.328.23.653.468.992.683.36.227.75.395 1.164.48.43.09.63.356.684.79M170.328 17.57c.18.09.3.223.406.375.262.371.399.793.457 1.246.082.641.133 1.29.274 1.926q.137.615.285 1.23.025.101.043.196c-.023.012-.035.027-.043.027-.43-.043-.852-.117-1.215-.367a1 1 0 0 1-.363-.473 1.8 1.8 0 0 1-.117-.554 8 8 0 0 1 .097-1.621c.098-.621.192-1.246.168-1.88-.004-.03.004-.058.008-.105M148.605 22.691c-.246.125-.476.18-.71.215-.57.086-1.137.157-1.708.235-.574.078-1.144.164-1.718.238-.25.031-.504.058-.754.055-.414-.004-.703-.207-.844-.606a1.6 1.6 0 0 1-.117-.59c.082-.004.152-.008.226-.008.895.016 1.79.036 2.684.043.41.004.82.004 1.23-.02.266-.015.532-.015.793.017.336.043.637.175.918.421M151.293 18.922c.023.164-.047.305-.102.437-.078.075-.156.078-.238.055-.207-.062-.414-.117-.61-.195a5.7 5.7 0 0 1-1.202-.633c-.27-.188-.543-.363-.813-.55a2 2 0 0 1-.266-.24c-.148-.151-.171-.335-.09-.526.188-.422.579-.641 1.067-.528a.6.6 0 0 1 .316.227c.09.11.172.218.254.332.36.488.793.894 1.278 1.254.144.11.308.199.406.367M152.664 25.758c-.21-.008-.375-.113-.434-.285a.47.47 0 0 1 .18-.516.9.9 0 0 1 .403-.152c.277-.032.546-.075.824-.117q.762-.126 1.523-.25.604-.093 1.195-.184c.211-.035.38.047.458.246.035.09.054.195.05.293-.004.195-.11.316-.3.355-.223.043-.45.07-.672.106l-1.36.223-1.55.234zM153.668 26.746c-.047-.008-.137-.008-.215-.043-.266-.117-.324-.437-.133-.664.125-.152.297-.207.48-.238.641-.102 1.286-.2 1.927-.297.535-.086 1.07-.16 1.605-.246.441-.074.594.336.508.648-.043.153-.16.23-.32.258q-.979.147-1.958.305c-.55.082-1.097.172-1.644.254-.066.011-.137.015-.25.023M151.605 24.777c-.058-.015-.152-.02-.226-.058-.293-.149-.309-.551-.016-.746a.9.9 0 0 1 .364-.141c.546-.098 1.093-.176 1.64-.262q.99-.153 1.977-.3a.36.36 0 0 1 .37.171c.083.122.11.258.09.399-.027.207-.136.308-.363.344l-.578.086c-.39.062-.785.125-1.175.183-.579.09-1.157.184-1.735.274zM154.082 27.32c.012-.273.273-.468.55-.511q.616-.087 1.231-.184c.575-.09 1.145-.187 1.715-.281q.333-.053.672-.094a.38.38 0 0 1 .434.281c.035.114.05.23.011.352-.047.164-.129.246-.297.27q-.739.11-1.472.226c-.531.086-1.059.176-1.582.258-.227.035-.453.05-.672.097-.285.063-.586-.093-.59-.414M159.059 27.297c.257.172.308.383.261.625-.027.156-.12.258-.289.281-.43.067-.855.133-1.285.203-.473.074-.945.157-1.418.235q-.41.07-.82.132-.084.01-.168.008a.38.38 0 0 1-.387-.226.43.43 0 0 1 .055-.465.67.67 0 0 1 .449-.25l1.566-.246c.543-.086 1.082-.176 1.625-.258.141-.02.286-.027.41-.04M155.617 29.438c0-.25.168-.45.426-.504.195-.04.394-.07.594-.106l1.453-.246c.43-.07.86-.145 1.289-.21.152-.028.27.03.351.163a.61.61 0 0 1 .036.563c-.047.117-.153.164-.27.18-.223.035-.45.07-.672.109-.476.082-.957.168-1.433.25q-.632.106-1.27.207-.041.01-.094.008c-.254 0-.41-.157-.41-.415M146.5 25.234a.74.74 0 0 1-.387-.09c-.222-.136-.258-.382-.054-.55.109-.086.246-.16.382-.192.332-.07.672-.109 1.008-.16.535-.086 1.07-.164 1.606-.246q.345-.054.691-.101a.7.7 0 0 1 .371.03c.113.052.203.126.25.247.086.219.012.414-.215.484-.175.055-.367.074-.554.106q-.576.097-1.157.183l-1.53.235q-.206.03-.411.054M147.66 26.262c-.11-.028-.222-.04-.324-.082-.274-.11-.316-.395-.094-.586.156-.137.348-.18.54-.211q.96-.152 1.921-.297c.426-.063.848-.125 1.274-.176.207-.027.406.008.527.211.137.223.059.461-.184.555-.093.035-.195.05-.297.066l-1.957.305c-.421.066-.847.129-1.27.191-.042.004-.089.004-.132.008 0 .008-.004.012-.004.016M148.633 27.234c-.074-.02-.192-.035-.293-.082-.262-.113-.297-.394-.074-.574a.8.8 0 0 1 .265-.144 4 4 0 0 1 .496-.106 239 239 0 0 1 1.645-.254c.453-.066.906-.14 1.363-.195a.49.49 0 0 1 .52.27c.09.203.027.402-.176.488-.11.047-.23.07-.348.086-.617.097-1.23.187-1.847.28-.446.067-.883.138-1.329.204-.058.012-.125.016-.222.027M145.402 24.305c-.113-.024-.226-.032-.332-.075-.289-.117-.324-.414-.078-.609.192-.144.414-.176.64-.21l1.68-.259 1.325-.199a.8.8 0 0 1 .375.031.47.47 0 0 1 .265.278c.07.187-.011.383-.199.445-.148.05-.305.078-.46.102-.505.082-1.009.152-1.513.23q-.725.112-1.457.23c-.078.012-.16.012-.242.02q-.005.005-.004.016M153.926 23.242c-.586.09-1.184.18-1.781.274l-1.547.246c-.227.035-.41-.035-.489-.192a.47.47 0 0 1 .125-.582.67.67 0 0 1 .297-.148c.79-.13 1.578-.25 2.367-.371q.3-.047.598-.086c.305-.04.48.078.566.37.012.036.016.075.024.11.031.164-.008.258-.16.38M151.871 21.047c-.152.05-.3.121-.46.152-.438.086-.88.156-1.321.23-.297.048-.598.098-.899.134-.25.03-.5.058-.75.054-.496-.004-.859-.234-.96-.8-.016-.094-.036-.188-.032-.282q.007-.223.23-.254a.7.7 0 0 1 .223.008c.235.055.47.106.7.18a6.2 6.2 0 0 0 1.878.281c.27.004.543.02.81.05.206.028.405.079.581.192zM149.61 28.191c-.087-.027-.212-.043-.313-.097-.242-.125-.266-.403-.059-.574.153-.133.344-.18.54-.207q.849-.126 1.699-.247c.449-.062.898-.125 1.347-.18a.5.5 0 0 1 .328.052.44.44 0 0 1 .23.44c-.03.165-.144.274-.343.306-.445.066-.894.128-1.344.195q-.631.1-1.27.195c-.26.04-.523.074-.816.117M155.797 31.02c.14.011.273.046.383.148a.4.4 0 0 1 .113.414c-.043.152-.168.234-.32.258-.254.043-.508.078-.766.117-.418.059-.832.125-1.25.184-.441.066-.887.129-1.328.187a.67.67 0 0 1-.387-.066c-.262-.13-.297-.41-.07-.598a.87.87 0 0 1 .414-.176c.371-.062.746-.11 1.117-.164l1.219-.176zM150.79 29.86c.042-.22.194-.34.394-.395.171-.05.351-.082.535-.11q.726-.106 1.457-.207c.449-.062.898-.128 1.347-.183.184-.024.352.02.47.176.19.257.077.562-.235.62-.235.044-.473.075-.711.11-.652.098-1.305.2-1.961.293-.211.031-.422.066-.637.086a1 1 0 0 1-.297-.016c-.207-.039-.34-.156-.363-.375M155.809 30.402c-.063.274-.153.356-.395.391-.445.07-.894.145-1.344.21-.41.063-.824.11-1.234.169-.188.027-.371.066-.559.09-.18.023-.363.043-.539-.043-.281-.14-.308-.426-.054-.617a.7.7 0 0 1 .359-.153q.766-.116 1.531-.226c.38-.055.762-.114 1.14-.168.2-.028.4-.055.599-.07a.43.43 0 0 1 .406.199c.047.07.066.16.09.218M150.703 29.203c-.207.004-.348-.008-.476-.094-.2-.132-.223-.363-.055-.53a.78.78 0 0 1 .457-.212c.52-.082 1.047-.152 1.566-.23.5-.07.996-.145 1.493-.215a.76.76 0 0 1 .375.023.43.43 0 0 1 .25.242c.093.235-.012.454-.254.516a3 3 0 0 1-.356.063q-1.032.157-2.07.308c-.328.047-.66.09-.93.13M160.176 29.941c-.016.25-.13.387-.375.43q-1.109.183-2.219.371c-.21.035-.422.063-.633.094-.164.023-.304-.012-.406-.145a.43.43 0 0 1-.05-.449.53.53 0 0 1 .41-.324c.202-.04.41-.07.617-.105.351-.06.707-.118 1.058-.176l1.082-.176c.176-.027.332 0 .418.176.047.093.067.199.098.304M152.605 22.254c-.695.105-1.398.215-2.101.324-.274.043-.543.09-.82.133a1.4 1.4 0 0 1-.223.016.397.397 0 0 1-.395-.512c.067-.25.246-.383.485-.422.469-.078.933-.14 1.402-.211.422-.062.848-.125 1.27-.2.191-.03.328.04.433.196a.62.62 0 0 1 .106.445.28.28 0 0 1-.157.23M153.727 35.633c-.07-.016-.16-.024-.243-.055-.28-.101-.34-.422-.113-.621a.9.9 0 0 1 .43-.187 554 554 0 0 1 2.504-.38c.136-.023.273-.042.41-.066.234-.035.441.067.531.27.106.234-.016.492-.27.539-.335.058-.671.105-1.007.156q-.58.095-1.16.184l-1.008.152c-.02.004-.035.004-.074.008M153.965 36.754c-.094-.02-.192-.027-.278-.059-.289-.101-.351-.418-.12-.613a.9.9 0 0 1 .351-.168c.309-.066.621-.11.934-.156.285-.047.57-.086.859-.13.379-.058.758-.12 1.137-.175a1 1 0 0 1 .226-.008.444.444 0 0 1 .403.367c.03.188-.063.36-.247.415-.156.046-.32.062-.484.09l-1.621.257c-.344.051-.684.106-1.027.156-.043.008-.086.008-.133.008zM153.469 34.531c-.078-.023-.2-.043-.301-.101-.2-.121-.219-.364-.063-.535.122-.133.286-.192.454-.22.539-.09 1.082-.171 1.625-.253.437-.07.882-.137 1.324-.2.23-.03.445.09.515.294.086.246-.03.46-.285.515q-.136.028-.277.051c-.543.082-1.082.172-1.625.25-.414.066-.832.121-1.25.18zM153.188 33.422a.7.7 0 0 1-.348-.09.342.342 0 0 1-.098-.52.7.7 0 0 1 .442-.238c.218-.039.445-.07.668-.11q.96-.147 1.921-.296c.157-.023.313-.047.47-.055.206-.011.347.094.433.278.097.207.012.437-.207.504-.153.05-.309.066-.465.09q-.773.123-1.547.242c-.422.066-.848.128-1.27.195M160.117 30.602c.184-.016.301.062.363.207a.8.8 0 0 1 .06.273c0 .23-.114.352-.333.387q-.68.107-1.36.215-.755.116-1.511.226c-.207.035-.387-.055-.457-.215a.43.43 0 0 1 .152-.535.8.8 0 0 1 .328-.137q1.173-.191 2.344-.37c.145-.02.29-.036.414-.051M160.633 32.527l-.64.102q-.923.153-1.845.3c-.191.028-.386.063-.582.079-.214.012-.336-.063-.41-.207a.45.45 0 0 1 .09-.508.64.64 0 0 1 .352-.172q.901-.14 1.808-.277c.274-.04.543-.086.82-.13l.075-.01c.242-.032.367.019.449.183a.52.52 0 0 1-.062.593c-.008.012-.02.016-.055.047M157.938 34.086c-.266.008-.418-.137-.43-.375-.012-.27.144-.465.41-.5q.837-.116 1.668-.227c.242-.03.488-.07.73-.101.34-.043.532.144.489.488-.028.223-.07.332-.348.367-.691.094-1.387.196-2.078.293-.156.024-.313.04-.441.055M158.09 35.18c-.235.004-.375-.125-.387-.34-.016-.274.11-.45.379-.496.34-.059.684-.098 1.027-.145q.493-.07.993-.133.204-.03.41-.054c.125-.016.218.031.289.14a.56.56 0 0 1 .07.434.3.3 0 0 1-.273.25q-.44.058-.88.121l-1.476.211a1 1 0 0 1-.152.012M160.602 35.969c-.375.05-.747.105-1.122.156q-.445.063-.898.125c-.129.02-.262.043-.39.055-.149.02-.27-.055-.333-.196a.46.46 0 0 1 .387-.66c.332-.039.66-.09.992-.136l.953-.13q.103-.01.207-.027a.26.26 0 0 1 .286.133c.129.215.101.477-.082.68M169.969 17.895c-.442.453-.95.718-1.59.609-.441-.074-.633-.426-.469-.844.137-.36.406-.558.781-.601.22-.028.422.054.61.164.273.168.488.394.668.672M158.012 37.113c0-.285.117-.441.351-.488.239-.047.477-.074.711-.105.336-.047.676-.094 1.012-.133.184-.028.27.023.328.199.031.09.05.187.047.277-.012.223-.106.317-.32.348-.555.082-1.114.16-1.664.242-.239.031-.356-.016-.43-.183-.027-.063-.031-.133-.035-.157M152.227 18.34a.85.85 0 0 1-.512.32c-.91-.465-1.57-1.203-2.2-2.008.044-.011.06-.023.075-.023.45.055.89.14 1.215.492.308.336.664.617 1.035.883.137.098.254.219.387.336M170.648 16.742c-.312-.062-.585-.226-.945-.258.082.063.133.114.192.149.14.082.289.152.43.234.222.125.335.266.456.535-.105-.03-.187-.078-.273-.125-.188-.105-.371-.215-.563-.308a1.83 1.83 0 0 0-1.066-.168c-.184.027-.363.039-.547.05a.6.6 0 0 1-.207-.019c-.105-.023-.203-.074-.234-.191-.028-.114.03-.203.109-.27.082-.062.176-.129.273-.164.168-.059.348-.113.528-.133.594-.07 1.14.047 1.62.422q.073.061.138.133.043.054.09.113" style="stroke:none;fill-rule:nonzero;fill:#1e284f;fill-opacity:1"/></svg>