<svg xmlns="http://www.w3.org/2000/svg" width="176pt" height="36.16" viewBox="0 0 176 27.12"><defs><clipPath id="a"><path d="M0 14h140v13.121H0Zm0 0"/></clipPath><clipPath id="b"><path d="M150 6h26v12h-26Zm0 0"/></clipPath><clipPath id="c"><path d="M171.047 6.621c-2.094 1.98-6.496 3.742-8.59 4.512a157 157 0 0 1-5.941 2.094c-1.871.55-5.614 1.761-5.614 1.761 7.703 2.309 13.207 2.969 13.207 2.969s2.532-.766 6.606-2.969c2.2-1.101 3.191-1.761 3.96-2.531.333-.223 1.102-.992 1.212-1.984 0-.11.11-.22.11-.442v-.219c-.11-.109-.11-.218-.11-.218s0-.219-.11-.442c0-.109-.218-.66-.66-.988-.332-.223-.77-.773-2.422-1.32-.55-.223-1.543-.442-1.543-.442Zm0 0"/></clipPath><clipPath id="d"><path d="M171.047 6.621c-2.094 1.98-6.496 3.742-8.59 4.512a157 157 0 0 1-5.941 2.094c-1.871.55-5.614 1.761-5.614 1.761 7.703 2.309 13.207 2.969 13.207 2.969s2.532-.766 6.606-2.969c2.2-1.101 3.191-1.761 3.96-2.531.333-.223 1.102-.992 1.212-1.984 0-.11.11-.22.11-.442v-.219c-.11-.109-.11-.218-.11-.218s0-.219-.11-.442c0-.109-.218-.66-.66-.988-.332-.223-.77-.773-2.422-1.32-.55-.223-1.543-.442-1.543-.442z"/></clipPath><clipPath id="f"><path d="M152.898.02h9.301V.12h-9.3Zm-3.597.101h14.8V.22h-14.8Zm-3 .098h18.5V.32h-18.5Zm-2.7.101h21.797v.102h-21.796Zm-2.703.102h25V.52h-25Zm-2.597.098h28.097V.62h-28.097Zm-2.5.101h31.097V.72h-31.097Zm-2.5.098h34.097V.82h-34.097Zm-2.5.101h37v.102h-37Zm-2.5.102h39.898v.098h-39.898Zm-2.5.098h42.8v.101h-42.8Zm-2.403.101h45.5v.098h-45.5Zm-2.5.098h48.403v.101h-48.403Zm-2.398.101h51v.102h-51Zm-2.398.102H169.8v.098h-53.7Zm-2.5.098H170v.101h-56.398Zm-2.403.101h59v.098h-59Zm-2.5.098h61.7v.101h-61.7Zm-2.5.101h64.403v.102h-64.403Zm-2.097.102H170.8v.098h-66.7Zm0 .098H171v.101h-66.898Zm.296.101h66.704v.098h-66.704Zm.403.098h66.5v.101h-66.5Zm.3.101H171.5v.102h-66.398Zm.297.102h66.204v.098h-66.204Zm.403.098h65.898v.101h-65.898Zm.3.101h65.7v.098h-65.7Zm.399.098H172v.101h-65.5Zm.3.101h65.302v.102H106.8Zm.4.102h65v.098h-65Zm.402.098H172.3v.101h-64.7Zm.398.101h64.398v.098H108Zm.398.098H172.5v.101h-64.102Zm.403.101h63.8v.102h-63.8Zm.398.102h63.403v.098h-63.403Zm.403.098H172.8v.101h-63.2Zm.398.101h62.898v.098H110Zm.5.098H173v.101h-62.5Zm.398.101H173v.102h-62.102Zm.5.102h61.704v.098h-61.704Zm.403.098h61.398v.101h-61.398Zm.5.101h60.898v.098h-60.898Zm.5.098h60.5v.101h-60.5Zm.398.101h60.102v.102h-60.102Zm.5.102h59.7v.098h-59.7Zm.5.098H173.5v.101h-59.3Zm.5.101H173.5v.098h-58.8Zm.5.098h58.403v.101h-58.403Zm.602.101h57.898v.102h-57.898Zm.5.102h57.5v.098h-57.5Zm.597.098h56.903v.101h-56.903Zm.5.101h56.5v.098h-56.5Zm.602.098h56v.101h-56Zm.7.101H174v.102h-55.3Zm.6.102h54.802v.098H119.3Zm.7.098h54.102v.101H120Zm.8.101h53.4v.098h-53.4Zm.802.098H174.3v.101h-52.7Zm.898.101h51.8v.102h-51.8Zm1 .102h50.898v.098H123.5Zm1.102.098h49.796v.101h-49.796Zm1.199.101H174.5v.098h-48.7Zm1.5.098H174.5v.101h-47.2Zm1.8.101h45.5v.102h-45.5Zm2.297.102h32v.098h-32Zm36.204 0h7.097v.098h-7.097ZM135 6.52h25v.101h-25Zm34.7 0h5v.101h-5Zm-25.5.101h6v.098h-6Zm26.6 0h4v.098h-4Zm.5.098h3.5v.101h-3.5Zm.4.101h3.198v.102H171.7Zm.402.102h2.796v.098h-2.796Zm.398.098h2.5v.101h-2.5Zm.3.101h2.2v.098h-2.2Zm.302.098h2v.101h-2Zm.199.101h1.8v.102h-1.8Zm.3.102h1.598v.098h-1.597Zm.2.098h1.398v.101h-1.398Zm.199.101h1.3v.098H174Zm.2.098h1.1v.101h-1.1Zm.198.101h1v.102h-1Zm.102.102h.898v.098h-.898Zm.102.098h.898v.101h-.898Zm.097.101h.801v.098h-.8Zm.102.098h.699v.101h-.7Zm.199.101h.602v.102H175Zm.102.102h.5v.098h-.5Zm.097.098h.5v.101h-.5Zm0 .101h.602v.098h-.602Zm.102.098h.5v.101h-.5Zm.097.101h.403v.102h-.403Zm.102.102h.3v.098h-.3Zm.102.098h.296v.101h-.296Zm.097.101h.2v.2h-.2Zm.102.2h.097v.199h-.097Zm0 .199H176v.101h-.2Zm.097.101H176V10h-.102Zm0 0"/></clipPath><clipPath id="g"><path d="M175.996 9.926s0-.223-.11-.332c0-.219-.109-.328-.218-.551-.11-.11-.332-.328-.55-.66-.22-.11-.442-.328-.661-.551-1.102-.66-2.422-.988-3.633-1.21-1.87-.22-4.07-.22-4.289-.22-.664 0-5.176 0-6.273.11-5.067.113-11.336.113-12.989.113-16.84 0-24.214-.332-32.359-1.98C107.98 3.32 104.125 2 104.125 2c6.164-.219 41.938-1.758 48.43-1.871 4.293-.11 7.265-.219 9.687 0 1.32 0 2.422.113 3.852.441 1.32.22 2.531.551 3.191.77 1.434.55 2.754 1.32 3.305 2.203 0 0 .219.11.437.441.223.438.551.88.664.989.88 1.43 1.32 2.203 1.43 2.53.219.329.328.661.441.993a.7.7 0 0 1 .22.547c.109.332.109.664.218.773v.106h-.004Zm0 0"/></clipPath><linearGradient id="e" x1="0" x2="1.165" y1="0" y2="0" gradientTransform="scale(-23.6459 23.6459)rotate(29.253 -4.248 -14.127)" gradientUnits="userSpaceOnUse"><stop offset="0" style="stop-color:#262f6a;stop-opacity:1"/><stop offset=".004" style="stop-color:#272f6a;stop-opacity:1"/><stop offset=".008" style="stop-color:#27306b;stop-opacity:1"/><stop offset=".012" style="stop-color:#27306b;stop-opacity:1"/><stop offset=".016" style="stop-color:#27306b;stop-opacity:1"/><stop offset=".02" style="stop-color:#27306c;stop-opacity:1"/><stop offset=".023" style="stop-color:#27306c;stop-opacity:1"/><stop offset=".027" style="stop-color:#27316d;stop-opacity:1"/><stop offset=".031" style="stop-color:#27316d;stop-opacity:1"/><stop offset=".039" style="stop-color:#27316d;stop-opacity:1"/><stop offset=".043" style="stop-color:#27316e;stop-opacity:1"/><stop offset=".047" style="stop-color:#27316e;stop-opacity:1"/><stop offset=".051" style="stop-color:#27316f;stop-opacity:1"/><stop offset=".055" style="stop-color:#28326f;stop-opacity:1"/><stop offset=".063" style="stop-color:#283270;stop-opacity:1"/><stop offset=".07" style="stop-color:#283270;stop-opacity:1"/><stop offset=".074" style="stop-color:#283271;stop-opacity:1"/><stop offset=".078" style="stop-color:#283271;stop-opacity:1"/><stop offset=".086" style="stop-color:#283372;stop-opacity:1"/><stop offset=".09" style="stop-color:#283372;stop-opacity:1"/><stop offset=".094" style="stop-color:#283373;stop-opacity:1"/><stop offset=".098" style="stop-color:#283373;stop-opacity:1"/><stop offset=".102" style="stop-color:#283474;stop-opacity:1"/><stop offset=".105" style="stop-color:#283474;stop-opacity:1"/><stop offset=".109" style="stop-color:#283474;stop-opacity:1"/><stop offset=".117" style="stop-color:#283475;stop-opacity:1"/><stop offset=".125" style="stop-color:#283475;stop-opacity:1"/><stop offset=".129" style="stop-color:#283476;stop-opacity:1"/><stop offset=".133" style="stop-color:#283577;stop-opacity:1"/><stop offset=".141" style="stop-color:#283577;stop-opacity:1"/><stop offset=".148" style="stop-color:#283578;stop-opacity:1"/><stop offset=".152" style="stop-color:#293578;stop-opacity:1"/><stop offset=".156" style="stop-color:#293579;stop-opacity:1"/><stop offset=".16" style="stop-color:#293679;stop-opacity:1"/><stop offset=".164" style="stop-color:#29367a;stop-opacity:1"/><stop offset=".168" style="stop-color:#29367a;stop-opacity:1"/><stop offset=".172" style="stop-color:#29367b;stop-opacity:1"/><stop offset=".18" style="stop-color:#29367b;stop-opacity:1"/><stop offset=".188" style="stop-color:#29377c;stop-opacity:1"/><stop offset=".195" style="stop-color:#29377c;stop-opacity:1"/><stop offset=".203" style="stop-color:#29377d;stop-opacity:1"/><stop offset=".207" style="stop-color:#29387e;stop-opacity:1"/><stop offset=".211" style="stop-color:#29387e;stop-opacity:1"/><stop offset=".215" style="stop-color:#29387e;stop-opacity:1"/><stop offset=".219" style="stop-color:#29387f;stop-opacity:1"/><stop offset=".227" style="stop-color:#29397f;stop-opacity:1"/><stop offset=".234" style="stop-color:#293980;stop-opacity:1"/><stop offset=".238" style="stop-color:#293981;stop-opacity:1"/><stop offset=".242" style="stop-color:#293a81;stop-opacity:1"/><stop offset=".25" style="stop-color:#293a82;stop-opacity:1"/><stop offset=".258" style="stop-color:#293a82;stop-opacity:1"/><stop offset=".266" style="stop-color:#293a83;stop-opacity:1"/><stop offset=".273" style="stop-color:#293b84;stop-opacity:1"/><stop offset=".277" style="stop-color:#293b84;stop-opacity:1"/><stop offset=".281" style="stop-color:#293b85;stop-opacity:1"/><stop offset=".289" style="stop-color:#293c85;stop-opacity:1"/><stop offset=".293" style="stop-color:#293c86;stop-opacity:1"/><stop offset=".297" style="stop-color:#293c87;stop-opacity:1"/><stop offset=".305" style="stop-color:#293d87;stop-opacity:1"/><stop offset=".309" style="stop-color:#293d88;stop-opacity:1"/><stop offset=".313" style="stop-color:#293d89;stop-opacity:1"/><stop offset=".32" style="stop-color:#293d89;stop-opacity:1"/><stop offset=".328" style="stop-color:#293e89;stop-opacity:1"/><stop offset=".332" style="stop-color:#293e8a;stop-opacity:1"/><stop offset=".336" style="stop-color:#293e8a;stop-opacity:1"/><stop offset=".344" style="stop-color:#293f8b;stop-opacity:1"/><stop offset=".348" style="stop-color:#293f8b;stop-opacity:1"/><stop offset=".352" style="stop-color:#293f8c;stop-opacity:1"/><stop offset=".359" style="stop-color:#2a3f8c;stop-opacity:1"/><stop offset=".363" style="stop-color:#2a408d;stop-opacity:1"/><stop offset=".367" style="stop-color:#2b408d;stop-opacity:1"/><stop offset=".371" style="stop-color:#2b408e;stop-opacity:1"/><stop offset=".375" style="stop-color:#2b408e;stop-opacity:1"/><stop offset=".379" style="stop-color:#2b408e;stop-opacity:1"/><stop offset=".383" style="stop-color:#2b408f;stop-opacity:1"/><stop offset=".387" style="stop-color:#2c418f;stop-opacity:1"/><stop offset=".391" style="stop-color:#2c4190;stop-opacity:1"/><stop offset=".398" style="stop-color:#2c4190;stop-opacity:1"/><stop offset=".406" style="stop-color:#2c4290;stop-opacity:1"/><stop offset=".414" style="stop-color:#2d4291;stop-opacity:1"/><stop offset=".418" style="stop-color:#2e4292;stop-opacity:1"/><stop offset=".422" style="stop-color:#2e4292;stop-opacity:1"/><stop offset=".426" style="stop-color:#2e4393;stop-opacity:1"/><stop offset=".43" style="stop-color:#2e4393;stop-opacity:1"/><stop offset=".434" style="stop-color:#2e4393;stop-opacity:1"/><stop offset=".438" style="stop-color:#2f4394;stop-opacity:1"/><stop offset=".441" style="stop-color:#2f4394;stop-opacity:1"/><stop offset=".445" style="stop-color:#2f4495;stop-opacity:1"/><stop offset=".453" style="stop-color:#2f4495;stop-opacity:1"/><stop offset=".457" style="stop-color:#2f4496;stop-opacity:1"/><stop offset=".461" style="stop-color:#304596;stop-opacity:1"/><stop offset=".469" style="stop-color:#304596;stop-opacity:1"/><stop offset=".477" style="stop-color:#304597;stop-opacity:1"/><stop offset=".48" style="stop-color:#314597;stop-opacity:1"/><stop offset=".484" style="stop-color:#314697;stop-opacity:1"/><stop offset=".488" style="stop-color:#314698;stop-opacity:1"/><stop offset=".492" style="stop-color:#314698;stop-opacity:1"/><stop offset=".496" style="stop-color:#324698;stop-opacity:1"/><stop offset=".5" style="stop-color:#324799;stop-opacity:1"/><stop offset=".508" style="stop-color:#324799;stop-opacity:1"/><stop offset=".516" style="stop-color:#32479a;stop-opacity:1"/><stop offset=".523" style="stop-color:#33489a;stop-opacity:1"/><stop offset=".527" style="stop-color:#33489b;stop-opacity:1"/><stop offset=".531" style="stop-color:#33489b;stop-opacity:1"/><stop offset=".535" style="stop-color:#33499c;stop-opacity:1"/><stop offset=".539" style="stop-color:#33499c;stop-opacity:1"/><stop offset=".543" style="stop-color:#33499c;stop-opacity:1"/><stop offset=".547" style="stop-color:#344a9d;stop-opacity:1"/><stop offset=".551" style="stop-color:#344a9d;stop-opacity:1"/><stop offset=".555" style="stop-color:#344a9d;stop-opacity:1"/><stop offset=".563" style="stop-color:#354a9d;stop-opacity:1"/><stop offset=".57" style="stop-color:#354b9e;stop-opacity:1"/><stop offset=".578" style="stop-color:#354b9e;stop-opacity:1"/><stop offset=".582" style="stop-color:#364c9f;stop-opacity:1"/><stop offset=".586" style="stop-color:#364ca0;stop-opacity:1"/><stop offset=".59" style="stop-color:#364ca0;stop-opacity:1"/><stop offset=".594" style="stop-color:#364da0;stop-opacity:1"/><stop offset=".598" style="stop-color:#364da1;stop-opacity:1"/><stop offset=".602" style="stop-color:#374da1;stop-opacity:1"/><stop offset=".605" style="stop-color:#374da1;stop-opacity:1"/><stop offset=".609" style="stop-color:#384da1;stop-opacity:1"/><stop offset=".617" style="stop-color:#384da1;stop-opacity:1"/><stop offset=".621" style="stop-color:#384ea2;stop-opacity:1"/><stop offset=".625" style="stop-color:#384ea2;stop-opacity:1"/><stop offset=".629" style="stop-color:#384ea2;stop-opacity:1"/><stop offset=".633" style="stop-color:#394fa3;stop-opacity:1"/><stop offset=".637" style="stop-color:#394fa3;stop-opacity:1"/><stop offset=".641" style="stop-color:#394fa3;stop-opacity:1"/><stop offset=".645" style="stop-color:#3950a4;stop-opacity:1"/><stop offset=".648" style="stop-color:#3a50a4;stop-opacity:1"/><stop offset=".652" style="stop-color:#3a50a4;stop-opacity:1"/><stop offset=".656" style="stop-color:#3a50a5;stop-opacity:1"/><stop offset=".66" style="stop-color:#3a51a5;stop-opacity:1"/><stop offset=".664" style="stop-color:#3b51a5;stop-opacity:1"/><stop offset=".672" style="stop-color:#3b51a6;stop-opacity:1"/><stop offset=".68" style="stop-color:#3b52a6;stop-opacity:1"/><stop offset=".684" style="stop-color:#3c52a6;stop-opacity:1"/><stop offset=".688" style="stop-color:#3c52a6;stop-opacity:1"/><stop offset=".691" style="stop-color:#3c53a7;stop-opacity:1"/><stop offset=".695" style="stop-color:#3d53a7;stop-opacity:1"/><stop offset=".699" style="stop-color:#3d53a7;stop-opacity:1"/><stop offset=".703" style="stop-color:#3d53a8;stop-opacity:1"/><stop offset=".707" style="stop-color:#3d54a8;stop-opacity:1"/><stop offset=".711" style="stop-color:#3d54a8;stop-opacity:1"/><stop offset=".715" style="stop-color:#3d54a9;stop-opacity:1"/><stop offset=".719" style="stop-color:#3e55a9;stop-opacity:1"/><stop offset=".727" style="stop-color:#3e55a9;stop-opacity:1"/><stop offset=".734" style="stop-color:#3e55a9;stop-opacity:1"/><stop offset=".738" style="stop-color:#3f56aa;stop-opacity:1"/><stop offset=".742" style="stop-color:#3f56ab;stop-opacity:1"/><stop offset=".746" style="stop-color:#3f56ab;stop-opacity:1"/><stop offset=".75" style="stop-color:#4057ac;stop-opacity:1"/><stop offset=".754" style="stop-color:#4057ac;stop-opacity:1"/><stop offset=".758" style="stop-color:#4057ac;stop-opacity:1"/><stop offset=".762" style="stop-color:#4058ac;stop-opacity:1"/><stop offset=".766" style="stop-color:#4158ad;stop-opacity:1"/><stop offset=".77" style="stop-color:#4158ad;stop-opacity:1"/><stop offset=".773" style="stop-color:#4159ad;stop-opacity:1"/><stop offset=".777" style="stop-color:#4159ae;stop-opacity:1"/><stop offset=".781" style="stop-color:#4159ae;stop-opacity:1"/><stop offset=".785" style="stop-color:#415aae;stop-opacity:1"/><stop offset=".789" style="stop-color:#415aaf;stop-opacity:1"/><stop offset=".793" style="stop-color:#425aaf;stop-opacity:1"/><stop offset=".797" style="stop-color:#425baf;stop-opacity:1"/><stop offset=".801" style="stop-color:#425baf;stop-opacity:1"/><stop offset=".805" style="stop-color:#425bb0;stop-opacity:1"/><stop offset=".809" style="stop-color:#435cb0;stop-opacity:1"/><stop offset=".813" style="stop-color:#435cb0;stop-opacity:1"/><stop offset=".82" style="stop-color:#435cb1;stop-opacity:1"/><stop offset=".828" style="stop-color:#445db1;stop-opacity:1"/><stop offset=".836" style="stop-color:#445db1;stop-opacity:1"/><stop offset=".84" style="stop-color:#445eb2;stop-opacity:1"/><stop offset=".844" style="stop-color:#455eb2;stop-opacity:1"/><stop offset=".848" style="stop-color:#455eb3;stop-opacity:1"/><stop offset=".852" style="stop-color:#455fb3;stop-opacity:1"/><stop offset=".855" style="stop-color:#455fb3;stop-opacity:1"/><stop offset=".859" style="stop-color:#455fb4;stop-opacity:1"/><stop offset=".875" style="stop-color:#455fb4;stop-opacity:1"/><stop offset="1" style="stop-color:#455fb4;stop-opacity:1"/></linearGradient><linearGradient id="h" x1="-.416" x2=".988" y1="0" y2="0" gradientTransform="scale(50.4553 -50.4553)rotate(20.316 1.858 6.907)" gradientUnits="userSpaceOnUse"><stop offset="0" style="stop-color:#e11c2c;stop-opacity:1"/><stop offset=".25" style="stop-color:#e11c2c;stop-opacity:1"/><stop offset=".281" style="stop-color:#e11c2c;stop-opacity:1"/><stop offset=".297" style="stop-color:#e11c2c;stop-opacity:1"/><stop offset=".301" style="stop-color:#e21c2b;stop-opacity:1"/><stop offset=".305" style="stop-color:#e21c2b;stop-opacity:1"/><stop offset=".309" style="stop-color:#e21c2b;stop-opacity:1"/><stop offset=".313" style="stop-color:#e31c2a;stop-opacity:1"/><stop offset=".316" style="stop-color:#e31c2a;stop-opacity:1"/><stop offset=".32" style="stop-color:#e31c2a;stop-opacity:1"/><stop offset=".324" style="stop-color:#e31c2a;stop-opacity:1"/><stop offset=".328" style="stop-color:#e41c29;stop-opacity:1"/><stop offset=".332" style="stop-color:#e41c29;stop-opacity:1"/><stop offset=".336" style="stop-color:#e41c29;stop-opacity:1"/><stop offset=".34" style="stop-color:#e41c29;stop-opacity:1"/><stop offset=".344" style="stop-color:#e41c28;stop-opacity:1"/><stop offset=".352" style="stop-color:#e51c28;stop-opacity:1"/><stop offset=".359" style="stop-color:#e51c28;stop-opacity:1"/><stop offset=".363" style="stop-color:#e51c27;stop-opacity:1"/><stop offset=".367" style="stop-color:#e61c27;stop-opacity:1"/><stop offset=".375" style="stop-color:#e61c27;stop-opacity:1"/><stop offset=".379" style="stop-color:#e61c27;stop-opacity:1"/><stop offset=".383" style="stop-color:#e71c26;stop-opacity:1"/><stop offset=".391" style="stop-color:#e71c26;stop-opacity:1"/><stop offset=".398" style="stop-color:#e81c26;stop-opacity:1"/><stop offset=".402" style="stop-color:#e91c26;stop-opacity:1"/><stop offset=".406" style="stop-color:#e91c25;stop-opacity:1"/><stop offset=".414" style="stop-color:#e91c25;stop-opacity:1"/><stop offset=".422" style="stop-color:#ea1c25;stop-opacity:1"/><stop offset=".43" style="stop-color:#ea1c24;stop-opacity:1"/><stop offset=".438" style="stop-color:#ea1c24;stop-opacity:1"/><stop offset=".445" style="stop-color:#eb1c24;stop-opacity:1"/><stop offset=".453" style="stop-color:#eb1c24;stop-opacity:1"/><stop offset=".461" style="stop-color:#ec1c24;stop-opacity:1"/><stop offset=".469" style="stop-color:#ec1c24;stop-opacity:1"/><stop offset=".477" style="stop-color:#ed1c24;stop-opacity:1"/><stop offset=".484" style="stop-color:#ed1c24;stop-opacity:1"/><stop offset=".5" style="stop-color:#ed1c24;stop-opacity:1"/><stop offset=".625" style="stop-color:#ed1c24;stop-opacity:1"/><stop offset=".656" style="stop-color:#ed1c24;stop-opacity:1"/><stop offset=".664" style="stop-color:#ed1c24;stop-opacity:1"/><stop offset=".668" style="stop-color:#ed1c24;stop-opacity:1"/><stop offset=".672" style="stop-color:#ed1d24;stop-opacity:1"/><stop offset=".688" style="stop-color:#ed1d24;stop-opacity:1"/><stop offset=".703" style="stop-color:#ed1d24;stop-opacity:1"/><stop offset=".707" style="stop-color:#ed1e24;stop-opacity:1"/><stop offset=".711" style="stop-color:#ed1f24;stop-opacity:1"/><stop offset=".715" style="stop-color:#ed1f27;stop-opacity:1"/><stop offset=".719" style="stop-color:#ed202a;stop-opacity:1"/><stop offset=".723" style="stop-color:#ee212c;stop-opacity:1"/><stop offset=".727" style="stop-color:#ee232f;stop-opacity:1"/><stop offset=".73" style="stop-color:#ee2433;stop-opacity:1"/><stop offset=".734" style="stop-color:#ee2636;stop-opacity:1"/><stop offset=".738" style="stop-color:#ee283a;stop-opacity:1"/><stop offset=".742" style="stop-color:#ee2a3e;stop-opacity:1"/><stop offset=".746" style="stop-color:#ef2d42;stop-opacity:1"/><stop offset=".75" style="stop-color:#ef2f46;stop-opacity:1"/><stop offset=".754" style="stop-color:#ef334a;stop-opacity:1"/><stop offset=".758" style="stop-color:#f0364f;stop-opacity:1"/><stop offset=".762" style="stop-color:#f03a54;stop-opacity:1"/><stop offset=".766" style="stop-color:#f03e58;stop-opacity:1"/><stop offset=".77" style="stop-color:#f1425d;stop-opacity:1"/><stop offset=".773" style="stop-color:#f14663;stop-opacity:1"/><stop offset=".777" style="stop-color:#f14b68;stop-opacity:1"/><stop offset=".781" style="stop-color:#f2506d;stop-opacity:1"/><stop offset=".785" style="stop-color:#f25673;stop-opacity:1"/><stop offset=".789" style="stop-color:#f35c78;stop-opacity:1"/><stop offset=".793" style="stop-color:#f3627e;stop-opacity:1"/><stop offset=".797" style="stop-color:#f46984;stop-opacity:1"/><stop offset=".801" style="stop-color:#f4708a;stop-opacity:1"/><stop offset=".805" style="stop-color:#f57790;stop-opacity:1"/><stop offset=".809" style="stop-color:#f57d95;stop-opacity:1"/><stop offset=".813" style="stop-color:#f6839b;stop-opacity:1"/><stop offset=".816" style="stop-color:#f68aa1;stop-opacity:1"/><stop offset=".82" style="stop-color:#f792a7;stop-opacity:1"/><stop offset=".824" style="stop-color:#f798ad;stop-opacity:1"/><stop offset=".828" style="stop-color:#f89fb2;stop-opacity:1"/><stop offset=".832" style="stop-color:#f8a2b5;stop-opacity:1"/><stop offset=".836" style="stop-color:#f8a5b8;stop-opacity:1"/><stop offset=".84" style="stop-color:#f8a4b7;stop-opacity:1"/><stop offset=".844" style="stop-color:#f8a3b6;stop-opacity:1"/><stop offset=".848" style="stop-color:#f8a2b5;stop-opacity:1"/><stop offset=".852" style="stop-color:#f8a0b4;stop-opacity:1"/><stop offset=".855" style="stop-color:#f89fb3;stop-opacity:1"/><stop offset=".859" style="stop-color:#f89db2;stop-opacity:1"/><stop offset=".863" style="stop-color:#f68da3;stop-opacity:1"/><stop offset=".867" style="stop-color:#f57c94;stop-opacity:1"/><stop offset=".871" style="stop-color:#f46883;stop-opacity:1"/><stop offset=".875" style="stop-color:#f25573;stop-opacity:1"/><stop offset=".879" style="stop-color:#f14763;stop-opacity:1"/><stop offset=".883" style="stop-color:#f03954;stop-opacity:1"/><stop offset=".887" style="stop-color:#ef3047;stop-opacity:1"/><stop offset=".891" style="stop-color:#ee273b;stop-opacity:1"/><stop offset=".895" style="stop-color:#ee2331;stop-opacity:1"/><stop offset=".898" style="stop-color:#ed1e27;stop-opacity:1"/><stop offset=".902" style="stop-color:#ed1e26;stop-opacity:1"/><stop offset=".906" style="stop-color:#ed1d24;stop-opacity:1"/><stop offset=".938" style="stop-color:#ed1d24;stop-opacity:1"/><stop offset=".953" style="stop-color:#ed1d24;stop-opacity:1"/><stop offset=".961" style="stop-color:#ed1d24;stop-opacity:1"/><stop offset=".965" style="stop-color:#ed1d24;stop-opacity:1"/><stop offset=".969" style="stop-color:#ed1e24;stop-opacity:1"/><stop offset="1" style="stop-color:#ed1e24;stop-opacity:1"/></linearGradient></defs><g clip-path="url(#a)"><path d="M91.266 20.215c-.192 0-.371-.012-.563-.027v-4.133c.207-.028.399-.059.606-.059 1.312 0 2.285.531 2.285 2.02 0 1.464-.989 2.199-2.328 2.199m1.945.59c1.297 0 3.008-.973 3.008-2.86 0-2.258-2.344-2.98-4.215-2.98H87.68c.386.207.562.664.562 1.078v9.793c0 .41-.176.867-.562 1.062h3.586c-.383-.175-.563-.664-.563-1.062v-4.559c1.55 0 2.45 1.625 3.14 2.79.446.722 1.567 2.55 2.376 2.785.445.132.945.117 1.402.117.766 0 1.535-.086 2.274-.309-2.555 0-4.106-5.707-6.684-5.855m-7.492-5.84h-3.672c.293.148.605.531.605 1.078v9.793c0 .527-.312.926-.605 1.062h3.672c-.309-.136-.606-.53-.606-1.062v-9.793c0-.547.297-.93.606-1.078m-10.973 6.992a16 16 0 0 1-1.652-.074l1.816-4.645 1.68 4.645c-.606.074-1.223.074-1.844.074m5.887 4.008-4.016-11h-3.094c.25.133.442.398.442.68a.4.4 0 0 1-.031.144L69.98 25.98c-.144.372-.453.739-.808.918h2.402c-.133-.062-.281-.148-.281-.328 0-.07.047-.207.191-.558 0 0 1.051-2.653 1.153-2.922a21 21 0 0 1 2.14-.086c.75 0 1.516 0 2.254.086.117.308 1.094 2.98 1.094 2.98.086.22.117.34.117.41 0 .211-.105.297-.222.415h3.421a1.8 1.8 0 0 1-.808-.93m36.043-4.008a16 16 0 0 1-1.653-.074l1.817-4.645 1.68 4.645c-.61.074-1.227.074-1.844.074m5.883 4.008-4.012-11h-3.098c.254.133.446.398.446.68a.4.4 0 0 1-.032.144L111.91 25.98c-.144.372-.453.739-.808.918h2.406c-.137-.062-.281-.148-.281-.328 0-.07.043-.207.191-.558 0 0 1.047-2.653 1.148-2.922a21 21 0 0 1 2.141-.086c.75 0 1.52 0 2.254.086.117.308 1.094 2.98 1.094 2.98.074.22.117.34.117.41 0 .211-.106.297-.223.415h3.422a1.8 1.8 0 0 1-.812-.93m11.875-8.742c0-.989.898-1.414 1.77-1.414 1.089 0 2.269.707 2.741 1.695l-.132-2.227c-.766-.355-1.977-.472-2.817-.472-1.875 0-4.012.738-4.012 2.976 0 3.63 5.352 4.145 5.352 6.418 0 1.297-.887 1.813-2.078 1.813-1.563 0-2.82-1.075-3.422-2.461a10 10 0 0 0-.117 1.46q-.001.624.086 1.223c.972.664 2.535.887 3.687.887 2.211 0 4.38-1.035 4.38-3.527 0-3.438-5.438-4.012-5.438-6.371m-21.047-2.258h-2.332c.148.117.207.207.207.355 0 .117-.028.192-.086.383l-2.348 7.02-3.094-7.758-2.82 8.05-2.64-7.136c-.044-.133-.102-.293-.102-.414 0-.25.101-.383.25-.5h-3.524c.446.234.739.68.918 1.137l4.055 10.796h1.117l2.36-6.683 1.636 4.144c.207.528.77 1.977 1.137 2.313.16.121.457.223.754.223l3.629-10.766c.144-.442.457-.942.883-1.164m15.984 0c.18.117.254.223.254.398 0 .133-.148.399-.371.782 0 0-1.797 3.128-1.988 3.48l-2.274-3.598c-.707-1.105-1.281-1.21-2.433-1.21-.692 0-1.723.19-2.063.328 1.234 0 2.27 1.71 2.492 2.078l2.45 3.937v4.676c0 .367-.165.871-.516 1.062h3.508c-.371-.175-.532-.68-.532-1.062v-4.66l2.832-4.957c.266-.473.676-1.016 1.18-1.254Zm-82.355 2.258c0-.989.902-1.414 1.77-1.414 1.093 0 2.273.707 2.745 1.695l-.133-2.227c-.77-.355-1.976-.472-2.82-.472-1.871 0-4.012.738-4.012 2.976 0 3.63 5.356 4.145 5.356 6.418 0 1.297-.887 1.813-2.082 1.813-1.563 0-2.817-1.075-3.422-2.461a10 10 0 0 0-.117 1.46q0 .624.09 1.223c.972.664 2.535.887 3.687.887 2.195 0 4.379-1.035 4.379-3.527 0-3.438-5.441-4.012-5.441-6.371m17.906-2.258h-3.543c.27.133.547.531.547 1.078v4.012c-.649.058-1.531.101-2.535.101-1.036 0-1.918-.027-2.567-.101v-4.012c0-.547.266-.945.531-1.078h-3.539c.266.133.543.531.543 1.078v9.793c0 .527-.277.941-.543 1.062h3.54c-.266-.136-.532-.53-.532-1.062v-4.441c.649-.075 1.547-.102 2.567-.102 1 0 1.886.027 2.535.102v4.44c0 .528-.278.942-.547 1.063h3.543c-.266-.136-.531-.53-.531-1.062v-9.793c0-.547.265-.945.53-1.078m-38.332 0h-3.672c.297.148.605.531.605 1.078v9.793c0 .527-.308.926-.605 1.062h3.672c-.309-.136-.602-.53-.602-1.062v-9.793c0-.547.293-.93.602-1.078m-12.18 5.25c-.191 0-.37-.012-.562-.027v-4.133c.207-.028.398-.059.605-.059 1.313 0 2.285.531 2.285 2.02 0 1.464-.988 2.199-2.328 2.199m1.652.59c1.739 0 3.301-.973 3.301-2.86 0-2.258-2.343-2.98-4.215-2.98h-4.324c.383.207.563.664.563 1.078v9.793c0 .41-.176.867-.563 1.062h3.586c-.383-.175-.562-.664-.562-1.062v-4.559c1.55.016 2.156 1.625 2.847 2.79.442.722 1.563 2.55 2.375 2.785.442.132.942.117 1.403.117.765 0 1.53-.086 2.27-.309-2.743-.015-4.204-5.84-6.68-5.855m26.708-5.84h-3.672c.293.148.601.531.601 1.078v9.793c0 .527-.308.926-.601 1.062h3.672c-.31-.136-.606-.53-.606-1.062v-9.793c0-.547.297-.93.606-1.078m-14.97 0-.823 1.754c.527-.309 1.25-.383 1.855-.383h2.64v9.5c0 .41-.19.883-.59 1.062h3.645c-.382-.18-.59-.648-.59-1.062v-9.527c.989 0 2.137.043 2.829.058.578 0 1.566-.664 1.902-1.562-.691.148-1.414.16-2.125.16ZM4.603 25.863c-.516 0-1.075-.027-1.594-.133v-4.41c.414-.027.722-.027 1.062-.027 1.504 0 2.95.41 2.95 2.21 0 1.829-1.223 2.36-2.418 2.36m-1.594-9.82C3.41 16 3.555 16 3.778 16c1.413 0 2.519.469 2.519 2.121s-1.383 2.094-2.817 2.094h-.468v-4.172Zm3.496 4.602c1.18-.223 2.273-1.211 2.273-2.465 0-2.36-2.039-3.215-4.117-3.215H0c.383.207.547.664.547 1.078v9.793c0 .398-.16.871-.547 1.062h5.059c1.976 0 4.777-.68 4.777-3.363 0-1.875-1.637-2.906-3.332-2.89" style="stroke:none;fill-rule:nonzero;fill:#191d42;fill-opacity:1"/></g><g clip-path="url(#b)"><g clip-path="url(#c)"><g clip-path="url(#d)"><path d="M170.004-4.297 180.922 15.2l-24.027 13.457L145.977 9.16Zm0 0" style="stroke:none;fill-rule:nonzero;fill:url(#e)"/></g></g></g><g clip-path="url(#f)"><g clip-path="url(#g)"><path d="M112.79 33.328 100.901 1.215l66.434-24.598 11.89 32.113Zm0 0" style="stroke:none;fill-rule:nonzero;fill:url(#h)"/></g></g></svg>