<?xml version="1.0" encoding="UTF-8"?>
<svg xmlns="http://www.w3.org/2000/svg" xmlns:xlink="http://www.w3.org/1999/xlink" width="176pt" height="16.47pt" viewBox="0 0 176 16.47" version="1.1">
<defs>
<clipPath id="clip1">
  <path d="M 90 0 L 111 0 L 111 16.46875 L 90 16.46875 Z M 90 0 "/>
</clipPath>
<clipPath id="clip2">
  <path d="M 68 0 L 87 0 L 87 16.46875 L 68 16.46875 Z M 68 0 "/>
</clipPath>
<clipPath id="clip3">
  <path d="M 159 0 L 176 0 L 176 16.46875 L 159 16.46875 Z M 159 0 "/>
</clipPath>
<clipPath id="clip4">
  <path d="M 20 0 L 38 0 L 38 16.46875 L 20 16.46875 Z M 20 0 "/>
</clipPath>
<clipPath id="clip5">
  <path d="M 137 0 L 155 0 L 155 16.46875 L 137 16.46875 Z M 137 0 "/>
</clipPath>
<clipPath id="clip6">
  <path d="M 115 0 L 134 0 L 134 16.46875 L 115 16.46875 Z M 115 0 "/>
</clipPath>
<clipPath id="clip7">
  <path d="M 0 0 L 16 0 L 16 16.46875 L 0 16.46875 Z M 0 0 "/>
</clipPath>
<clipPath id="clip8">
  <path d="M 43 0 L 64 0 L 64 16.46875 L 43 16.46875 Z M 43 0 "/>
</clipPath>
</defs>
<g id="surface1">
<g clip-path="url(#clip1)" clip-rule="nonzero">
<path style=" stroke:none;fill-rule:nonzero;fill:rgb(12.767029%,21.79718%,39.994812%);fill-opacity:1;" d="M 100.308594 12.859375 C 101.902344 12.921875 103.304688 12.351562 104.507812 11.25 C 106.117188 9.777344 106.273438 7.386719 104.9375 5.765625 C 102.695312 3.046875 97.953125 2.882812 95.585938 5.886719 C 94.320312 7.496094 94.496094 9.597656 95.902344 11.070312 C 97.089844 12.316406 98.542969 12.910156 100.308594 12.859375 Z M 99.023438 16.46875 C 98.539062 16.347656 98.0625 16.210938 97.578125 16.097656 C 95.019531 15.503906 93 14.117188 91.554688 11.9375 C 90.140625 9.800781 90 6.445312 91.941406 3.941406 C 93.667969 1.714844 95.980469 0.453125 98.742188 0.113281 C 102.117188 -0.304688 105.199219 0.457031 107.761719 2.824219 C 110.425781 5.289062 110.988281 9.199219 109.074219 12.050781 C 107.695312 14.097656 105.769531 15.398438 103.394531 16.046875 C 102.882812 16.183594 102.375 16.328125 101.867188 16.46875 C 100.917969 16.46875 99.96875 16.46875 99.023438 16.46875 "/>
</g>
<g clip-path="url(#clip2)" clip-rule="nonzero">
<path style=" stroke:none;fill-rule:nonzero;fill:rgb(12.767029%,21.79718%,39.994812%);fill-opacity:1;" d="M 72.914062 4.085938 C 72.914062 7.035156 72.914062 9.898438 72.914062 12.753906 C 73.070312 12.796875 73.167969 12.84375 73.261719 12.84375 C 74.988281 12.84375 76.714844 12.882812 78.441406 12.820312 C 79.101562 12.796875 79.773438 12.597656 80.402344 12.378906 C 80.71875 12.265625 81.050781 11.976562 81.214844 11.675781 C 81.796875 10.597656 81.726562 8.65625 80.039062 8.003906 C 79.863281 7.9375 79.699219 7.835938 79.503906 7.734375 C 79.800781 7.382812 80.097656 7.105469 80.3125 6.769531 C 80.875 5.890625 80.546875 4.828125 79.582031 4.410156 C 79.214844 4.25 78.8125 4.101562 78.417969 4.082031 C 76.730469 4.011719 75.042969 3.984375 73.351562 3.953125 C 73.226562 3.949219 73.097656 4.027344 72.914062 4.085938 Z M 84.042969 7.457031 C 86.898438 9.167969 86.203125 12.933594 84.761719 14.515625 C 84.25 15.082031 83.589844 15.464844 82.859375 15.625 C 81.871094 15.839844 80.867188 16.074219 79.863281 16.089844 C 76.308594 16.140625 72.753906 16.105469 69.199219 16.101562 C 68.96875 16.101562 68.738281 16.066406 68.453125 16.042969 C 68.453125 10.84375 68.453125 5.679688 68.453125 0.457031 C 68.710938 0.441406 68.9375 0.410156 69.164062 0.410156 C 72.449219 0.410156 75.730469 0.414062 79.015625 0.410156 C 80.074219 0.410156 81.097656 0.582031 82.105469 0.902344 C 84.886719 1.792969 85.824219 5.03125 84.253906 7.148438 C 84.191406 7.230469 84.140625 7.316406 84.042969 7.457031 "/>
</g>
<g clip-path="url(#clip3)" clip-rule="nonzero">
<path style=" stroke:none;fill-rule:nonzero;fill:rgb(12.767029%,21.79718%,39.994812%);fill-opacity:1;" d="M 175.914062 12.851562 C 175.914062 14.015625 175.914062 15.011719 175.914062 16.0625 C 170.488281 16.0625 165.121094 16.0625 159.753906 16.0625 C 159.546875 15.320312 159.460938 3.042969 159.652344 0.597656 C 165.039062 0.597656 170.433594 0.597656 175.894531 0.597656 C 176.078125 1.035156 175.960938 1.542969 175.980469 2.035156 C 176 2.535156 175.984375 3.039062 175.984375 3.601562 C 174.96875 3.777344 173.996094 3.664062 173.03125 3.683594 C 172.019531 3.703125 171.003906 3.6875 169.984375 3.6875 C 169.007812 3.6875 168.023438 3.6875 167.042969 3.6875 C 166.066406 3.6875 165.09375 3.6875 164.058594 3.6875 C 163.910156 4.660156 163.972656 5.550781 164.011719 6.5 C 165.121094 6.667969 166.195312 6.558594 167.265625 6.578125 C 168.378906 6.597656 169.496094 6.582031 170.613281 6.582031 C 171.691406 6.582031 172.769531 6.582031 173.914062 6.582031 C 174.078125 7.699219 173.976562 8.761719 173.992188 9.910156 C 170.660156 9.910156 167.394531 9.910156 164.085938 9.910156 C 163.875 10.914062 163.972656 11.835938 163.988281 12.851562 C 167.984375 12.851562 171.894531 12.851562 175.914062 12.851562 "/>
</g>
<g clip-path="url(#clip4)" clip-rule="nonzero">
<path style=" stroke:none;fill-rule:nonzero;fill:rgb(12.767029%,21.79718%,39.994812%);fill-opacity:1;" d="M 37.277344 12.871094 C 37.277344 13.996094 37.277344 14.972656 37.277344 15.9375 C 36.496094 16.152344 23.695312 16.242188 21.15625 16.0625 C 20.96875 15.375 20.90625 2.066406 21.089844 0.558594 C 26.453125 0.558594 31.816406 0.558594 37.273438 0.558594 C 37.273438 1.566406 37.273438 2.566406 37.273438 3.664062 C 33.382812 3.664062 29.4375 3.664062 25.53125 3.664062 C 25.257812 4.40625 25.222656 5.160156 25.394531 6.535156 C 26.472656 6.636719 27.578125 6.566406 28.675781 6.582031 C 29.761719 6.59375 30.84375 6.582031 31.925781 6.582031 C 33.039062 6.582031 34.152344 6.582031 35.378906 6.582031 C 35.441406 7.691406 35.417969 8.75 35.386719 9.917969 C 32.042969 9.917969 28.742188 9.917969 25.410156 9.917969 C 25.175781 10.90625 25.347656 11.804688 25.285156 12.753906 C 26.3125 12.984375 27.285156 12.84375 28.25 12.867188 C 29.265625 12.890625 30.28125 12.871094 31.296875 12.871094 C 32.277344 12.871094 33.257812 12.871094 34.238281 12.871094 C 35.214844 12.871094 36.191406 12.871094 37.277344 12.871094 "/>
</g>
<g clip-path="url(#clip5)" clip-rule="nonzero">
<path style=" stroke:none;fill-rule:nonzero;fill:rgb(12.767029%,21.79718%,39.994812%);fill-opacity:1;" d="M 142.109375 16.15625 C 140.636719 16.15625 139.296875 16.15625 137.964844 16.15625 C 137.789062 15.335938 137.730469 2.738281 137.890625 0.613281 C 142.007812 3.203125 146.019531 5.835938 150.246094 8.492188 C 150.285156 7.027344 150.265625 5.722656 150.269531 4.421875 C 150.273438 3.140625 150.269531 1.863281 150.269531 0.523438 C 151.742188 0.523438 153.144531 0.523438 154.601562 0.523438 C 154.601562 5.667969 154.601562 10.792969 154.601562 16.058594 C 150.488281 13.449219 146.429688 10.871094 142.253906 8.222656 C 142.203125 8.570312 142.136719 8.8125 142.136719 9.058594 C 142.121094 11.054688 142.117188 13.050781 142.109375 15.046875 C 142.109375 15.378906 142.109375 15.714844 142.109375 16.15625 "/>
</g>
<g clip-path="url(#clip6)" clip-rule="nonzero">
<path style=" stroke:none;fill-rule:nonzero;fill:rgb(12.767029%,21.79718%,39.994812%);fill-opacity:1;" d="M 123.046875 7.578125 C 123.921875 7.578125 124.589844 7.589844 125.253906 7.574219 C 126.734375 7.535156 127.660156 5.832031 126.882812 4.558594 C 126.75 4.339844 126.527344 4.140625 126.300781 4.03125 C 125.972656 3.871094 125.601562 3.71875 125.246094 3.710938 C 123.421875 3.679688 121.597656 3.695312 119.675781 3.695312 C 119.503906 5.808594 119.621094 7.863281 119.601562 9.914062 C 119.578125 11.9375 119.597656 13.960938 119.597656 16.027344 C 118.199219 16.027344 116.824219 16.027344 115.449219 16.027344 C 115.269531 15.292969 115.242188 1.753906 115.425781 0.34375 C 115.902344 0.328125 116.394531 0.292969 116.890625 0.292969 C 119.699219 0.28125 122.511719 0.246094 125.320312 0.292969 C 126.257812 0.308594 127.21875 0.441406 128.113281 0.707031 C 130.574219 1.433594 131.96875 3.960938 131.355469 6.152344 C 131.152344 6.878906 130.769531 7.445312 130.175781 7.863281 C 129.683594 8.210938 129.144531 8.496094 128.519531 8.871094 C 130.058594 11.222656 131.601562 13.578125 133.203125 16.023438 C 131.597656 16.023438 130.121094 16.023438 128.621094 16.023438 C 126.792969 13.253906 124.976562 10.5 123.046875 7.578125 "/>
</g>
<g clip-path="url(#clip7)" clip-rule="nonzero">
<path style=" stroke:none;fill-rule:nonzero;fill:rgb(12.767029%,21.79718%,39.994812%);fill-opacity:1;" d="M 15.710938 0.648438 C 15.710938 1.667969 15.710938 2.605469 15.710938 3.546875 C 15.414062 3.800781 15.058594 3.691406 14.738281 3.691406 C 11.761719 3.699219 8.785156 3.695312 5.808594 3.695312 C 5.402344 3.695312 4.988281 3.675781 4.59375 3.742188 C 3.835938 3.859375 3.300781 4.53125 3.335938 5.230469 C 3.371094 5.910156 3.996094 6.515625 4.769531 6.527344 C 6.730469 6.546875 8.695312 6.503906 10.65625 6.554688 C 11.417969 6.574219 12.226562 6.65625 12.933594 6.917969 C 15.1875 7.757812 16.269531 9.734375 15.929688 12.175781 C 15.65625 14.167969 13.691406 15.851562 11.410156 16.015625 C 10.601562 16.070312 9.789062 16.039062 8.976562 16.039062 C 6.304688 16.042969 3.632812 16.042969 0.957031 16.042969 C 0.664062 16.042969 0.367188 16.011719 0.0117188 15.992188 C 0.0117188 14.964844 0.0117188 14 0.0117188 12.945312 C 0.320312 12.921875 0.613281 12.882812 0.90625 12.882812 C 4.1875 12.882812 7.46875 12.882812 10.746094 12.902344 C 11.398438 12.90625 11.960938 12.746094 12.351562 12.214844 C 12.714844 11.71875 12.828125 11.152344 12.507812 10.59375 C 12.160156 9.996094 11.628906 9.683594 10.921875 9.6875 C 9.804688 9.695312 8.691406 9.695312 7.574219 9.695312 C 6.625 9.695312 5.675781 9.730469 4.730469 9.6875 C 2.929688 9.601562 1.382812 8.917969 0.554688 7.265625 C -0.894531 4.355469 0.578125 1.242188 4.027344 0.664062 C 4.324219 0.613281 4.636719 0.621094 4.941406 0.621094 C 8.324219 0.617188 11.707031 0.617188 15.089844 0.617188 C 15.253906 0.617188 15.421875 0.636719 15.710938 0.648438 "/>
</g>
<g clip-path="url(#clip8)" clip-rule="nonzero">
<path style=" stroke:none;fill-rule:nonzero;fill:rgb(12.767029%,21.79718%,39.994812%);fill-opacity:1;" d="M 53.574219 7.753906 C 51.597656 10.621094 49.71875 13.34375 47.804688 16.121094 C 46.300781 16.121094 44.789062 16.121094 43.265625 16.121094 C 43.257812 16.109375 43.234375 16.082031 43.226562 16.054688 C 43.21875 16.023438 43.207031 15.984375 43.222656 15.960938 C 43.324219 15.785156 43.421875 15.609375 43.535156 15.441406 C 46.84375 10.464844 50.152344 5.488281 53.542969 0.390625 C 57.058594 5.671875 60.507812 10.851562 63.988281 16.15625 C 62.339844 16.15625 60.863281 16.15625 59.289062 16.15625 C 57.433594 13.425781 55.554688 10.667969 53.574219 7.753906 "/>
</g>
</g>
</svg>
