<svg xmlns="http://www.w3.org/2000/svg" width="176pt" height="21.96" viewBox="0 0 176 16.47"><defs><clipPath id="a"><path d="M90 0h21v16.469H90Zm0 0"/></clipPath><clipPath id="b"><path d="M68 0h19v16.469H68Zm0 0"/></clipPath><clipPath id="c"><path d="M159 0h17v16.469h-17Zm0 0"/></clipPath><clipPath id="d"><path d="M20 0h18v16.469H20Zm0 0"/></clipPath><clipPath id="e"><path d="M137 0h18v16.469h-18Zm0 0"/></clipPath><clipPath id="f"><path d="M115 0h19v16.469h-19Zm0 0"/></clipPath><clipPath id="g"><path d="M0 0h16v16.469H0Zm0 0"/></clipPath><clipPath id="h"><path d="M43 0h21v16.469H43Zm0 0"/></clipPath></defs><g clip-path="url(#a)"><path d="M100.309 12.86c1.593.062 2.996-.508 4.199-1.61 1.61-1.473 1.765-3.863.43-5.484-2.243-2.72-6.985-2.883-9.352.12-1.266 1.61-1.09 3.712.316 5.184 1.188 1.246 2.641 1.84 4.407 1.79m-1.286 3.609c-.484-.121-.96-.258-1.445-.371-2.558-.594-4.578-1.98-6.023-4.16C90.14 9.8 90 6.445 91.94 3.94c1.727-2.226 4.04-3.488 6.801-3.828 3.375-.418 6.457.344 9.02 2.711 2.664 2.465 3.226 6.375 1.312 9.227-1.379 2.047-3.304 3.347-5.68 3.996-.511.137-1.019.281-1.527.422z" style="stroke:none;fill-rule:nonzero;fill:#213866;fill-opacity:1"/></g><g clip-path="url(#b)"><path d="M72.914 4.086v8.668c.156.043.254.09.348.09 1.726 0 3.453.039 5.18-.024.66-.023 1.331-.222 1.96-.441.317-.113.649-.402.813-.703.582-1.078.512-3.02-1.176-3.672-.176-.066-.34-.168-.535-.27.297-.351.594-.629.808-.964.563-.88.235-1.942-.73-2.36-.367-.16-.77-.308-1.164-.328-1.688-.07-3.375-.098-5.066-.129-.125-.004-.254.074-.438.133m11.129 3.371c2.855 1.711 2.16 5.477.719 7.059a3.6 3.6 0 0 1-1.903 1.109c-.988.215-1.992.45-2.996.465-3.554.05-7.11.015-10.664.012-.23 0-.46-.036-.746-.059V.457c.258-.016.484-.047.711-.047 3.285 0 6.566.004 9.852 0 1.058 0 2.082.172 3.09.492 2.78.891 3.718 4.13 2.148 6.246-.063.082-.113.168-.211.309" style="stroke:none;fill-rule:nonzero;fill:#213866;fill-opacity:1"/></g><g clip-path="url(#c)"><path d="M175.914 12.852v3.21h-16.16c-.207-.742-.293-13.019-.102-15.464h16.243c.183.437.066.945.085 1.437.02.5.004 1.004.004 1.567-1.015.175-1.988.062-2.953.082-1.011.02-2.027.003-3.047.003h-5.925c-.149.973-.086 1.864-.047 2.813 1.11.168 2.183.059 3.254.078 1.113.02 2.23.004 3.347.004h3.301c.164 1.117.063 2.18.078 3.328h-9.906c-.211 1.004-.113 1.926-.098 2.942z" style="stroke:none;fill-rule:nonzero;fill:#213866;fill-opacity:1"/></g><g clip-path="url(#d)"><path d="M37.277 12.871v3.066c-.78.215-13.582.305-16.12.126-.188-.688-.25-13.997-.067-15.504h16.183v3.105H25.531c-.273.742-.308 1.496-.136 2.871 1.078.102 2.183.031 3.28.047 1.087.012 2.169 0 3.25 0h3.454c.062 1.11.039 2.168.008 3.336H25.41c-.234.988-.062 1.887-.125 2.836 1.027.23 2 .09 2.965.113 1.016.024 2.031.004 3.047.004h5.981" style="stroke:none;fill-rule:nonzero;fill:#213866;fill-opacity:1"/></g><g clip-path="url(#e)"><path d="M142.11 16.156h-4.145c-.176-.82-.235-13.418-.074-15.543 4.117 2.59 8.129 5.223 12.355 7.88.04-1.466.02-2.77.024-4.071.003-1.281 0-2.559 0-3.899h4.332V16.06c-4.114-2.61-8.172-5.188-12.348-7.836-.05.347-.117.59-.117.836-.016 1.996-.02 3.992-.028 5.988z" style="stroke:none;fill-rule:nonzero;fill:#213866;fill-opacity:1"/></g><g clip-path="url(#f)"><path d="M123.047 7.578c.875 0 1.543.012 2.207-.004 1.48-.039 2.406-1.742 1.629-3.015a1.46 1.46 0 0 0-.582-.528c-.328-.16-.7-.312-1.055-.32-1.824-.031-3.648-.016-5.57-.016-.172 2.114-.055 4.168-.074 6.22-.024 2.023-.004 4.046-.004 6.112h-4.149c-.18-.734-.207-14.273-.023-15.683.476-.016.969-.051 1.465-.051 2.808-.012 5.62-.047 8.43 0 .937.016 1.898.148 2.792.414 2.461.727 3.856 3.254 3.242 5.445-.203.727-.585 1.293-1.18 1.711-.491.348-1.03.633-1.655 1.008l4.683 7.152h-4.582c-1.828-2.77-3.644-5.523-5.574-8.445" style="stroke:none;fill-rule:nonzero;fill:#213866;fill-opacity:1"/></g><g clip-path="url(#g)"><path d="M15.71.648v2.899c-.296.254-.651.144-.972.144-2.976.008-5.953.004-8.93.004-.406 0-.82-.02-1.214.047-.758.117-1.293.79-1.258 1.488.035.68.66 1.286 1.434 1.297 1.96.02 3.925-.023 5.886.028.762.02 1.57.101 2.278.363 2.254.84 3.336 2.816 2.996 5.258-.274 1.992-2.239 3.676-4.52 3.84-.808.054-1.62.023-2.433.023q-4.007.005-8.02.004c-.293 0-.59-.031-.945-.05v-3.048c.308-.023.601-.062.894-.062 3.282 0 6.563 0 9.84.02.652.003 1.215-.157 1.606-.688.363-.496.476-1.063.156-1.621-.348-.598-.88-.91-1.586-.906-1.117.007-2.23.007-3.348.007-.949 0-1.898.035-2.844-.008-1.8-.085-3.347-.769-4.175-2.421-1.45-2.91.023-6.024 3.472-6.602.297-.05.61-.043.914-.043Q10.016.616 15.09.617c.164 0 .332.02.62.031" style="stroke:none;fill-rule:nonzero;fill:#213866;fill-opacity:1"/></g><g clip-path="url(#h)"><path d="m53.574 7.754-5.77 8.367h-4.538c-.008-.012-.032-.039-.04-.066-.007-.032-.019-.07-.003-.094.101-.176.199-.352.312-.52 3.309-4.976 6.617-9.953 10.008-15.05 3.516 5.28 6.965 10.46 10.445 15.765H59.29c-1.855-2.73-3.734-5.488-5.715-8.402" style="stroke:none;fill-rule:nonzero;fill:#213866;fill-opacity:1"/></g></svg>