<?xml version="1.0" encoding="UTF-8"?>
<svg xmlns="http://www.w3.org/2000/svg" xmlns:xlink="http://www.w3.org/1999/xlink" width="176pt" height="50.61pt" viewBox="0 0 176 50.61" version="1.1">
<defs>
<clipPath id="clip1">
  <path d="M 112 19 L 176 19 L 176 50.609375 L 112 50.609375 Z M 112 19 "/>
</clipPath>
<clipPath id="clip2">
  <path d="M 108 0 L 162 0 L 162 50.609375 L 108 50.609375 Z M 108 0 "/>
</clipPath>
<clipPath id="clip3">
  <path d="M 112 19 L 162 19 L 162 50.609375 L 112 50.609375 Z M 112 19 "/>
</clipPath>
<clipPath id="clip4">
  <path d="M 0 19 L 38 19 L 38 50.609375 L 0 50.609375 Z M 0 19 "/>
</clipPath>
<clipPath id="clip5">
  <path d="M 32 19 L 75 19 L 75 50.609375 L 32 50.609375 Z M 32 19 "/>
</clipPath>
<clipPath id="clip6">
  <path d="M 72 19 L 108 19 L 108 50.609375 L 72 50.609375 Z M 72 19 "/>
</clipPath>
</defs>
<g id="surface1">
<g clip-path="url(#clip1)" clip-rule="nonzero">
<path style=" stroke:none;fill-rule:nonzero;fill:rgb(15.797424%,20.960999%,48.233032%);fill-opacity:1;" d="M 112.222656 50.585938 L 162.671875 50.585938 L 176 19.425781 L 161.710938 19.425781 L 127.277344 38.574219 L 112.222656 50.585938 "/>
</g>
<g clip-path="url(#clip2)" clip-rule="nonzero">
<path style=" stroke:none;fill-rule:nonzero;fill:rgb(84.120178%,65.223694%,8.050537%);fill-opacity:1;" d="M 142.367188 31.566406 L 161.710938 19.425781 L 141.019531 19.425781 L 138.859375 0.00390625 L 128.605469 19.425781 L 108.464844 19.425781 L 122.300781 31.367188 L 112.222656 50.585938 L 130.882812 38.777344 L 144.476562 50.507812 L 142.367188 31.566406 "/>
</g>
<g clip-path="url(#clip3)" clip-rule="nonzero">
<path style=" stroke:none;fill-rule:nonzero;fill:rgb(97.691345%,86.717224%,1.982117%);fill-opacity:1;" d="M 112.222656 50.585938 L 130.882812 38.777344 L 144.484375 50.585938 L 142.378906 31.640625 L 161.710938 19.425781 C 161.707031 19.425781 131.476562 21.257812 112.222656 50.585938 "/>
</g>
<g clip-path="url(#clip4)" clip-rule="nonzero">
<path style=" stroke:none;fill-rule:nonzero;fill:rgb(15.797424%,20.960999%,48.233032%);fill-opacity:1;" d="M 17.695312 50.609375 L 0 50.609375 L 2.714844 44.210938 L 18.109375 44.210938 C 18.109375 44.210938 21.035156 43.914062 22.527344 41.8125 C 24.019531 39.714844 19.84375 38.714844 19.84375 38.714844 C 19.84375 38.714844 11.980469 36.515625 11.265625 36.3125 C 10.550781 36.113281 3.503906 34.113281 7.613281 26.316406 C 11.722656 18.519531 20.738281 19.421875 20.738281 19.421875 L 37.929688 19.421875 L 35.214844 25.816406 L 19.820312 25.816406 C 19.820312 25.816406 17.222656 25.816406 16.117188 27.71875 C 15.007812 29.617188 17.8125 30.316406 18.570312 30.414062 C 19.328125 30.515625 25.746094 32.117188 27.089844 32.714844 C 28.433594 33.3125 35 35.515625 31.472656 42.414062 C 28.347656 48.515625 23.894531 50.609375 17.695312 50.609375 "/>
</g>
<g clip-path="url(#clip5)" clip-rule="nonzero">
<path style=" stroke:none;fill-rule:nonzero;fill:rgb(15.797424%,20.960999%,48.233032%);fill-opacity:1;" d="M 44.933594 42.011719 L 41.285156 50.609375 L 32.089844 50.609375 L 45.328125 19.421875 L 54.527344 19.421875 L 49.222656 31.914062 L 63.421875 19.421875 L 74.917969 19.421875 L 58.859375 31.816406 L 65.078125 50.609375 L 54.382812 50.609375 L 50.601562 37.613281 L 44.933594 42.011719 "/>
</g>
<g clip-path="url(#clip6)" clip-rule="nonzero">
<path style=" stroke:none;fill-rule:nonzero;fill:rgb(15.797424%,20.960999%,48.233032%);fill-opacity:1;" d="M 107.808594 19.421875 L 96.910156 19.421875 L 85.253906 31.816406 L 85.414062 19.421875 L 75.71875 19.421875 L 77.371094 39.3125 L 72.578125 50.609375 L 81.773438 50.609375 L 86.570312 39.3125 L 107.808594 19.421875 "/>
</g>
</g>
</svg>
