<svg xmlns="http://www.w3.org/2000/svg" width="176pt" height="67.48" viewBox="0 0 176 50.61"><defs><clipPath id="a"><path d="M112 19h64v31.61h-64Zm0 0"/></clipPath><clipPath id="b"><path d="M108 0h54v50.61h-54Zm0 0"/></clipPath><clipPath id="c"><path d="M112 19h50v31.61h-50Zm0 0"/></clipPath><clipPath id="d"><path d="M0 19h38v31.61H0Zm0 0"/></clipPath><clipPath id="e"><path d="M32 19h43v31.61H32Zm0 0"/></clipPath><clipPath id="f"><path d="M72 19h36v31.61H72Zm0 0"/></clipPath></defs><g clip-path="url(#a)"><path d="M112.223 50.586h50.449L176 19.426h-14.29l-34.433 19.148z" style="stroke:none;fill-rule:nonzero;fill:#28357b;fill-opacity:1"/></g><g clip-path="url(#b)"><path d="m142.367 31.566 19.344-12.14H141.02L138.86.004l-10.255 19.422h-20.14L122.3 31.367l-10.078 19.219 18.66-11.809 13.594 11.73z" style="stroke:none;fill-rule:nonzero;fill:#d7a615;fill-opacity:1"/></g><g clip-path="url(#c)"><path d="m112.223 50.586 18.66-11.809 13.601 11.809-2.105-18.945 19.332-12.215c-.004 0-30.234 1.832-49.488 31.16" style="stroke:none;fill-rule:nonzero;fill:#f9dd05;fill-opacity:1"/></g><g clip-path="url(#d)"><path d="M17.695 50.61H0l2.715-6.4h15.394s2.926-.296 4.418-2.398c1.493-2.097-2.683-3.097-2.683-3.097s-7.864-2.2-8.578-2.403c-.715-.199-7.762-2.199-3.653-9.996 4.11-7.796 13.125-6.894 13.125-6.894H37.93l-2.715 6.394H19.82s-2.597 0-3.703 1.903c-1.11 1.898 1.695 2.597 2.453 2.695.758.102 7.176 1.703 8.52 2.3 1.344.599 7.91 2.802 4.383 9.7-3.125 6.102-7.578 8.195-13.778 8.195" style="stroke:none;fill-rule:nonzero;fill:#28357b;fill-opacity:1"/></g><g clip-path="url(#e)"><path d="m44.934 42.012-3.649 8.597H32.09l13.238-31.187h9.2l-5.305 12.492 14.199-12.492h11.496L58.859 31.816l6.22 18.793H54.382l-3.781-12.996z" style="stroke:none;fill-rule:nonzero;fill:#28357b;fill-opacity:1"/></g><g clip-path="url(#f)"><path d="M107.809 19.422H96.91L85.254 31.816l.16-12.394H75.72l1.652 19.89-4.793 11.297h9.195l4.797-11.297z" style="stroke:none;fill-rule:nonzero;fill:#28357b;fill-opacity:1"/></g></svg>