<?xml version="1.0" encoding="UTF-8"?>
<svg xmlns="http://www.w3.org/2000/svg" xmlns:xlink="http://www.w3.org/1999/xlink" width="176pt" height="27.35pt" viewBox="0 0 176 27.35" version="1.1">
<defs>
<clipPath id="clip1">
  <path d="M 154 19 L 162 19 L 162 27.351562 L 154 27.351562 Z M 154 19 "/>
</clipPath>
<clipPath id="clip2">
  <path d="M 24 11 L 40 11 L 40 27.351562 L 24 27.351562 Z M 24 11 "/>
</clipPath>
<clipPath id="clip3">
  <path d="M 110 11 L 126 11 L 126 27.351562 L 110 27.351562 Z M 110 11 "/>
</clipPath>
<clipPath id="clip4">
  <path d="M 127 11 L 142 11 L 142 27.351562 L 127 27.351562 Z M 127 11 "/>
</clipPath>
<clipPath id="clip5">
  <path d="M 58 11 L 74 11 L 74 27.351562 L 58 27.351562 Z M 58 11 "/>
</clipPath>
<clipPath id="clip6">
  <path d="M 93 7 L 109 7 L 109 27.351562 L 93 27.351562 Z M 93 7 "/>
</clipPath>
</defs>
<g id="surface1">
<path style=" stroke:none;fill-rule:nonzero;fill:rgb(30.171204%,68.440247%,90.223694%);fill-opacity:1;" d="M 161.117188 18.621094 C 155.265625 10.179688 154.335938 -1.847656 160.445312 0.234375 C 166.585938 2.34375 175.253906 8.613281 161.117188 18.621094 "/>
<path style=" stroke:none;fill-rule:nonzero;fill:rgb(16.345215%,30.61676%,64.265442%);fill-opacity:1;" d="M 161.117188 18.621094 C 155.328125 22.460938 147.429688 22.777344 148.324219 19.261719 C 149.253906 15.550781 153.027344 9.828125 161.117188 18.621094 "/>
<path style=" stroke:none;fill-rule:nonzero;fill:rgb(47.171021%,81.703186%,94.773865%);fill-opacity:1;" d="M 161.53125 19.292969 C 163.355469 22.394531 167.800781 23.644531 171.191406 20.347656 C 175.796875 15.871094 182.542969 6.117188 161.53125 19.292969 "/>
<g clip-path="url(#clip1)" clip-rule="nonzero">
<path style=" stroke:none;fill-rule:nonzero;fill:rgb(39.364624%,46.99707%,76.591492%);fill-opacity:1;" d="M 161.53125 19.292969 C 156.992188 22.332031 153.347656 27.222656 155.550781 27.191406 C 157.789062 27.128906 163.195312 24.121094 161.53125 19.292969 "/>
</g>
<path style=" stroke:none;fill-rule:nonzero;fill:rgb(16.479492%,30.596924%,64.701843%);fill-opacity:1;" d="M 0 7.144531 L 12.410156 7.144531 L 12.410156 10.53125 L 3.914062 10.53125 L 3.914062 15.613281 L 11.066406 15.613281 L 11.066406 19 L 3.914062 19 L 3.914062 27 L 0 27 L 0 7.144531 "/>
<path style=" stroke:none;fill-rule:nonzero;fill:rgb(16.479492%,30.596924%,64.701843%);fill-opacity:1;" d="M 14.539062 11.464844 L 18.25 11.464844 L 18.25 14.152344 C 18.25 14.734375 18.191406 15.230469 18.191406 15.230469 L 18.25 15.230469 C 18.949219 13.011719 20.789062 11.261719 23.183594 11.261719 C 23.535156 11.261719 23.886719 11.320312 23.886719 11.320312 L 23.886719 15.117188 C 23.886719 15.117188 23.476562 15.058594 22.980469 15.058594 C 21.34375 15.058594 19.476562 15.992188 18.746094 18.296875 C 18.511719 19.058594 18.425781 19.902344 18.425781 20.808594 L 18.425781 26.941406 L 14.539062 26.941406 L 14.539062 11.464844 "/>
<g clip-path="url(#clip2)" clip-rule="nonzero">
<path style=" stroke:none;fill-rule:nonzero;fill:rgb(16.479492%,30.596924%,64.701843%);fill-opacity:1;" d="M 35.566406 17.304688 C 35.507812 15.203125 34.191406 14.09375 32.5 14.09375 C 30.511719 14.09375 29.140625 15.320312 28.789062 17.304688 Z M 32.585938 11.085938 C 37.054688 11.085938 39.449219 14.328125 39.449219 18.445312 C 39.449219 18.910156 39.359375 19.933594 39.359375 19.933594 L 28.644531 19.933594 C 28.878906 22.648438 30.980469 24.050781 33.285156 24.050781 C 35.769531 24.050781 37.753906 22.355469 37.753906 22.355469 L 39.242188 25.128906 C 39.242188 25.128906 36.878906 27.351562 33.023438 27.351562 C 27.886719 27.351562 24.703125 23.640625 24.703125 19.230469 C 24.703125 14.445312 27.972656 11.085938 32.585938 11.085938 "/>
</g>
<g clip-path="url(#clip3)" clip-rule="nonzero">
<path style=" stroke:none;fill-rule:nonzero;fill:rgb(30.717468%,67.529297%,89.624023%);fill-opacity:1;" d="M 121.40625 17.304688 C 121.351562 15.203125 120.035156 14.09375 118.34375 14.09375 C 116.355469 14.09375 114.984375 15.320312 114.632812 17.304688 Z M 118.429688 11.085938 C 122.898438 11.085938 125.292969 14.328125 125.292969 18.445312 C 125.292969 18.910156 125.203125 19.933594 125.203125 19.933594 L 114.488281 19.933594 C 114.722656 22.648438 116.824219 24.050781 119.132812 24.050781 C 121.613281 24.050781 123.597656 22.355469 123.597656 22.355469 L 125.089844 25.128906 C 125.089844 25.128906 122.722656 27.351562 118.867188 27.351562 C 113.730469 27.351562 110.546875 23.640625 110.546875 19.230469 C 110.574219 14.445312 113.816406 11.085938 118.429688 11.085938 "/>
</g>
<g clip-path="url(#clip4)" clip-rule="nonzero">
<path style=" stroke:none;fill-rule:nonzero;fill:rgb(30.717468%,67.529297%,89.624023%);fill-opacity:1;" d="M 138.109375 17.304688 C 138.050781 15.203125 136.738281 14.09375 135.042969 14.09375 C 133.058594 14.09375 131.6875 15.320312 131.335938 17.304688 Z M 135.132812 11.085938 C 139.601562 11.085938 141.992188 14.328125 141.992188 18.445312 C 141.992188 18.910156 141.90625 19.933594 141.90625 19.933594 L 131.191406 19.933594 C 131.425781 22.648438 133.527344 24.050781 135.832031 24.050781 C 138.316406 24.050781 140.300781 22.355469 140.300781 22.355469 L 141.789062 25.128906 C 141.789062 25.128906 139.425781 27.351562 135.570312 27.351562 C 130.433594 27.351562 127.25 23.640625 127.25 19.230469 C 127.25 14.445312 130.488281 11.085938 135.132812 11.085938 "/>
</g>
<path style=" stroke:none;fill-rule:nonzero;fill:rgb(16.479492%,30.596924%,64.701843%);fill-opacity:1;" d="M 41.957031 11.464844 L 45.667969 11.464844 L 45.667969 13.246094 C 45.667969 13.832031 45.609375 14.296875 45.609375 14.296875 L 45.667969 14.296875 C 46.339844 12.984375 48.03125 11.085938 51.15625 11.085938 C 54.632812 11.085938 56.558594 12.894531 56.558594 16.984375 L 56.558594 26.96875 L 52.734375 26.96875 L 52.734375 17.800781 C 52.734375 15.902344 52.238281 14.648438 50.28125 14.648438 C 48.207031 14.648438 46.691406 15.960938 46.105469 17.800781 C 45.902344 18.445312 45.84375 19.144531 45.84375 19.875 L 45.84375 27 L 41.960938 27 L 41.960938 11.464844 L 41.957031 11.464844 "/>
<g clip-path="url(#clip5)" clip-rule="nonzero">
<path style=" stroke:none;fill-rule:nonzero;fill:rgb(16.479492%,30.596924%,64.701843%);fill-opacity:1;" d="M 66.863281 11.085938 C 70.925781 11.085938 72.820312 13.394531 72.820312 13.394531 L 71.128906 16.050781 C 71.128906 16.050781 69.523438 14.386719 67.070312 14.386719 C 64.207031 14.386719 62.367188 16.546875 62.367188 19.203125 C 62.367188 21.832031 64.265625 24.078125 67.214844 24.078125 C 69.84375 24.078125 71.769531 22.09375 71.769531 22.09375 L 73.261719 24.839844 C 73.261719 24.839844 71.039062 27.351562 66.867188 27.351562 C 61.726562 27.351562 58.457031 23.730469 58.457031 19.234375 C 58.457031 14.824219 61.726562 11.085938 66.863281 11.085938 "/>
</g>
<path style=" stroke:none;fill-rule:nonzero;fill:rgb(16.479492%,30.596924%,64.701843%);fill-opacity:1;" d="M 74.953125 7.144531 L 78.808594 7.144531 L 78.808594 12.867188 C 78.808594 13.625 78.75 14.179688 78.75 14.179688 L 78.808594 14.179688 C 79.566406 12.691406 81.464844 11.113281 84.152344 11.113281 C 87.597656 11.085938 89.554688 12.894531 89.554688 16.984375 L 89.554688 26.96875 L 85.726562 26.96875 L 85.726562 17.800781 C 85.726562 15.902344 85.230469 14.648438 83.277344 14.648438 C 81.230469 14.648438 79.65625 15.992188 79.070312 17.859375 C 78.894531 18.472656 78.835938 19.144531 78.835938 19.875 L 78.835938 27 L 74.953125 27 L 74.953125 7.144531 "/>
<g clip-path="url(#clip6)" clip-rule="nonzero">
<path style=" stroke:none;fill-rule:nonzero;fill:rgb(30.717468%,67.529297%,89.624023%);fill-opacity:1;" d="M 100.851562 24.078125 C 102.984375 24.078125 104.738281 22.355469 104.738281 19.261719 C 104.738281 16.3125 103.160156 14.386719 100.882812 14.386719 C 98.867188 14.386719 97 15.84375 97 19.292969 C 97 21.714844 98.253906 24.078125 100.851562 24.078125 Z M 93.261719 7.144531 L 97.117188 7.144531 L 97.117188 12.050781 C 97.117188 12.808594 97.054688 13.363281 97.054688 13.363281 L 97.117188 13.363281 C 97.117188 13.363281 98.488281 11.113281 101.757812 11.113281 C 105.964844 11.113281 108.621094 14.445312 108.621094 19.234375 C 108.621094 24.167969 105.613281 27.351562 101.496094 27.351562 C 98.285156 27.351562 96.882812 25.042969 96.882812 25.042969 L 96.851562 25.042969 C 96.851562 25.042969 96.910156 25.511719 96.910156 26.09375 L 96.910156 26.96875 L 93.261719 26.96875 L 93.261719 7.144531 "/>
</g>
</g>
</svg>
