<svg xmlns="http://www.w3.org/2000/svg" width="176pt" height="36.467" viewBox="0 0 176 27.35"><defs><clipPath id="a"><path d="M154 19h8v8.352h-8Zm0 0"/></clipPath><clipPath id="b"><path d="M24 11h16v16.352H24Zm0 0"/></clipPath><clipPath id="c"><path d="M110 11h16v16.352h-16Zm0 0"/></clipPath><clipPath id="d"><path d="M127 11h15v16.352h-15Zm0 0"/></clipPath><clipPath id="e"><path d="M58 11h16v16.352H58Zm0 0"/></clipPath><clipPath id="f"><path d="M93 7h16v20.352H93Zm0 0"/></clipPath></defs><path d="M161.117 18.621c-5.851-8.441-6.781-20.469-.672-18.387 6.14 2.11 14.809 8.38.672 18.387" style="stroke:none;fill-rule:nonzero;fill:#4dafe6;fill-opacity:1"/><path d="M161.117 18.621c-5.789 3.84-13.687 4.156-12.793.64.93-3.71 4.703-9.433 12.793-.64" style="stroke:none;fill-rule:nonzero;fill:#2a4ea4;fill-opacity:1"/><path d="M161.531 19.293c1.824 3.102 6.27 4.352 9.66 1.055 4.606-4.477 11.352-14.23-9.66-1.055" style="stroke:none;fill-rule:nonzero;fill:#78d0f2;fill-opacity:1"/><g clip-path="url(#a)"><path d="M161.531 19.293c-4.539 3.039-8.183 7.93-5.98 7.898 2.238-.062 7.644-3.07 5.98-7.898" style="stroke:none;fill-rule:nonzero;fill:#6478c3;fill-opacity:1"/></g><path d="M0 7.145h12.41v3.386H3.914v5.082h7.152V19H3.914v8H0zM14.54 11.465h3.71v2.687c0 .582-.059 1.078-.059 1.078h.059c.7-2.218 2.54-3.968 4.934-3.968.351 0 .703.058.703.058v3.797s-.41-.058-.907-.058c-1.636 0-3.503.933-4.234 3.238-.234.762-.32 1.605-.32 2.512v6.132h-3.887z" style="stroke:none;fill-rule:nonzero;fill:#2a4ea5;fill-opacity:1"/><g clip-path="url(#b)"><path d="M35.566 17.305c-.058-2.102-1.375-3.211-3.066-3.211-1.988 0-3.36 1.226-3.71 3.21Zm-2.98-6.22c4.469 0 6.863 3.243 6.863 7.36 0 .465-.09 1.489-.09 1.489H28.645c.234 2.714 2.335 4.117 4.64 4.117 2.485 0 4.469-1.696 4.469-1.696l1.488 2.774s-2.363 2.223-6.219 2.223c-5.136 0-8.32-3.711-8.32-8.122 0-4.785 3.27-8.144 7.883-8.144" style="stroke:none;fill-rule:nonzero;fill:#2a4ea5;fill-opacity:1"/></g><g clip-path="url(#c)"><path d="M121.406 17.305c-.054-2.102-1.37-3.211-3.062-3.211-1.989 0-3.36 1.226-3.711 3.21Zm-2.976-6.22c4.468 0 6.863 3.243 6.863 7.36 0 .465-.09 1.489-.09 1.489h-10.715c.235 2.714 2.336 4.117 4.645 4.117 2.48 0 4.465-1.696 4.465-1.696l1.492 2.774s-2.367 2.223-6.223 2.223c-5.137 0-8.32-3.711-8.32-8.122.027-4.785 3.27-8.144 7.883-8.144" style="stroke:none;fill-rule:nonzero;fill:#4eace5;fill-opacity:1"/></g><g clip-path="url(#d)"><path d="M138.11 17.305c-.06-2.102-1.372-3.211-3.067-3.211-1.984 0-3.356 1.226-3.707 3.21Zm-2.977-6.22c4.469 0 6.86 3.243 6.86 7.36 0 .465-.087 1.489-.087 1.489h-10.715c.235 2.714 2.336 4.117 4.641 4.117 2.484 0 4.469-1.696 4.469-1.696l1.488 2.774s-2.363 2.223-6.219 2.223c-5.136 0-8.32-3.711-8.32-8.122 0-4.785 3.238-8.144 7.883-8.144" style="stroke:none;fill-rule:nonzero;fill:#4eace5;fill-opacity:1"/></g><path d="M41.957 11.465h3.711v1.781c0 .586-.059 1.05-.059 1.05h.059c.672-1.312 2.363-3.21 5.488-3.21 3.477 0 5.403 1.809 5.403 5.898v9.985h-3.825V17.8c0-1.899-.496-3.153-2.453-3.153-2.074 0-3.59 1.313-4.176 3.153-.203.644-.261 1.344-.261 2.074V27H41.96V11.465z" style="stroke:none;fill-rule:nonzero;fill:#2a4ea5;fill-opacity:1"/><g clip-path="url(#e)"><path d="M66.863 11.086c4.063 0 5.957 2.309 5.957 2.309L71.13 16.05s-1.606-1.664-4.059-1.664c-2.863 0-4.703 2.16-4.703 4.816 0 2.629 1.899 4.875 4.848 4.875 2.629 0 4.555-1.984 4.555-1.984l1.492 2.746s-2.223 2.512-6.395 2.512c-5.14 0-8.41-3.622-8.41-8.118 0-4.41 3.27-8.148 8.406-8.148" style="stroke:none;fill-rule:nonzero;fill:#2a4ea5;fill-opacity:1"/></g><path d="M74.953 7.145h3.856v5.722c0 .758-.059 1.313-.059 1.313h.059c.757-1.489 2.656-3.067 5.343-3.067 3.446-.027 5.403 1.782 5.403 5.871v9.985h-3.828V17.8c0-1.899-.497-3.153-2.45-3.153-2.047 0-3.62 1.344-4.207 3.211-.175.614-.234 1.286-.234 2.016V27h-3.883z" style="stroke:none;fill-rule:nonzero;fill:#2a4ea5;fill-opacity:1"/><g clip-path="url(#f)"><path d="M100.852 24.078c2.132 0 3.886-1.723 3.886-4.816 0-2.95-1.578-4.875-3.855-4.875-2.016 0-3.883 1.457-3.883 4.906 0 2.422 1.254 4.785 3.852 4.785m-7.59-16.933h3.855v4.906c0 .758-.062 1.312-.062 1.312h.062s1.371-2.25 4.64-2.25c4.208 0 6.864 3.332 6.864 8.121 0 4.934-3.008 8.118-7.125 8.118-3.21 0-4.613-2.309-4.613-2.309h-.031s.058.469.058 1.05v.876h-3.648z" style="stroke:none;fill-rule:nonzero;fill:#4eace5;fill-opacity:1"/></g></svg>