<svg xmlns="http://www.w3.org/2000/svg" xmlns:xlink="http://www.w3.org/1999/xlink" width="187.44" height="59pt" viewBox="0 0 140.58 59"><defs><clipPath id="c"><path d="M139 27h1.578v14H139Zm0 0"/></clipPath><clipPath id="d"><path d="M64 19h1v2h-1Zm0 0"/></clipPath><clipPath id="e"><path d="M64.066 19.953c.016.078.082.113.153.129l.129-.129c-.141.012-.282 0-.282 0"/></clipPath><clipPath id="a"><path d="M0 0h4v2H0z"/></clipPath><pattern id="f" width="4" height="2" patternTransform="matrix(.96413 0 0 -.96413 -1.057 59.728)" patternUnits="userSpaceOnUse"><use xlink:href="#b"/></pattern><g id="b" clip-path="url(#a)"><path d="M0-1h2v4H0z" style="stroke:none;fill-rule:nonzero;fill:#100f0d;fill-opacity:1"/></g></defs><path d="M84.281 0h30.992L56.336 59H25.34z" style="stroke:none;fill-rule:nonzero;fill:#f8ec08;fill-opacity:1"/><path d="m3.621 33.895 5.422 9.949h1.574L4.945 33.449zM17.61 27.254c-.829 0-5.212.09-5.212 6.766 0 2.964 1.372 6.238 5.09 6.238 0 0 5.336.285 5.336-6.238s-4.383-6.766-5.215-6.766m0 12.117s-3.726.352-3.726-5.613c0-5.973 3.726-5.598 3.726-5.598s3.641-.332 3.641 5.606-3.64 5.605-3.64 5.605M26.223 27.523h1.355l3.164 6.497 3.242-6.497h1.102v.282l-3.746 7.46v4.766h-1.344v-4.86l-3.773-7.339zM43.715 27.523h-1.567L38.04 39.824v.207h1.176l1.398-4.312h4.414l1.426 4.312h1.371v-.324Zm-2.785 7.215 1.867-5.765 1.906 5.765ZM54.145 39.047V27.523h-1.391v12.508h6.637v-.984z" style="stroke:none;fill-rule:nonzero;fill:#211614;fill-opacity:1"/><path d="M3.215 25.836H0v14.2h1.375v-5.977h1.477c1.714 0 5.144-.473 5.144-4.313 0-4.062-4.375-3.91-4.781-3.91m-.219 7.258H1.402V26.77H3.02c.605 0 3.527-.122 3.457 3.28-.075 3.407-3.48 3.044-3.48 3.044M74.64 32.574s2.387-.71 2.278-3.351c-.106-2.641-2.106-3.414-4.45-3.414h-3.695V40.03h4.47s3.933.04 4.19-3.57c.262-3.61-2.792-3.887-2.792-3.887m-4.371-5.808q.006-.054.007-.055h2.301s2.817-.063 2.774 2.578-2.239 2.875-3.032 2.875h-2.05Zm5.593 9.425c-.093 2.965-2.715 2.965-4.402 2.973-.637.004-.992.004-1.191.004v-6.059h2.46c.344 0 3.227.024 3.133 3.082M86.043 34.457l5.074 9.39h1.578l-5.328-9.835z" style="stroke:none;fill-rule:nonzero;fill:#211614;fill-opacity:1"/><path d="M85.613 27.473h-2.629v12.566h1.395v-5.234h1.277c1.485 0 4.45-.418 4.45-3.844 0-3.734-4.137-3.488-4.493-3.488m.145 6.433h-1.356l-.004-5.504h1.38c.515 0 2.94-.105 2.94 2.856 0 2.855-2.96 2.648-2.96 2.648M95.785 27.625h1.438v7.328c0 1.524.261 2.625.789 3.293.523.676 1.324 1.012 2.492 1.012.605 0 1.125-.09 1.55-.266a2.4 2.4 0 0 0 1.032-.804q.394-.536.562-1.34.177-.803.176-1.895v-7.328h1.07v7.668c0 1.605-.367 2.832-1.093 3.68q-1.094 1.275-3.297 1.273c-1.48 0-2.91-.434-3.633-1.297s-1.086-2.086-1.086-3.656zM112.434 29.215h-.036V40.05h-1.175V27.625h1.48l6.516 10.227h.031V27.625h1.16v12.426h-1.23zM126.809 40.05V27.626h6.582v1h-5.2v4.488h4.7v1h-4.7v4.934h5.371v1.004z" style="stroke:none;fill-rule:nonzero;fill:#211614;fill-opacity:1"/><g clip-path="url(#c)"><path d="M139.176 27.625h1.398v12.426h-1.398z" style="stroke:none;fill-rule:nonzero;fill:#211614;fill-opacity:1"/></g><path d="M66.043 51.96v-4.898h-.668v5.32h2.898v-.421zM61.414 52.383l-1.254-2.328c.531-.18 1.035-.59 1.035-1.508 0-1.59-1.761-1.484-1.91-1.484H57.97v5.347h.676v-2.23h.785l1.183 2.203ZM59.23 49.8h-.578v-2.344h.586c.219 0 1.25-.043 1.25 1.215 0 1.215-1.258 1.129-1.258 1.129M77.754 47.738h-.016v4.61h-.5v-5.285h.766l2.637 4.351h.015v-4.352h.57v5.286h-.753zM85.54 52.348v-5.285h2.905v.425h-2.21v1.907h1.995v.425h-1.996v2.102h2.286v.426zM52.93 47.063h.703v5.285h-.703zM72.11 47.063h.703v5.285h-.704zM47.68 47.063h-.887l-1.746 5.23v.09h.594l.535-1.656h1.937l.52 1.656h.742v-.14Zm-1.348 3.187.832-2.574.805 2.574ZM95.3 48.055l-.632.152s-.234-.848-1.09-.89c-.86-.044-.922.824-.922.824s-.054.464.137.687.836.465 1.039.55c.293.122 1.59.446 1.438 1.68-.086.66-.34 1.372-1.653 1.407-1.605.043-1.883-1.195-1.883-1.195l.625-.2s.192.95 1.184 1.012c.996.066 1.219-.98 1.027-1.426-.187-.445-.465-.558-1.047-.761-.582-.2-1.578-.586-1.543-1.415.043-.984.61-1.46 1.563-1.535.988-.074 1.61.508 1.758 1.11M61.07 19.652s-.62.203-1.207 1.688c.25-.215.75-.375 1.207-.344s1.235.352 1.235.352 1.172.425 1.18-.23c.003-.653-.762-.548-.864-.524-.098.023-.887.32-1.344.222-.425-.093-.625-.718-.215-1.078.079-.07.102-.113.008-.086" style="stroke:none;fill-rule:nonzero;fill:#211614;fill-opacity:1"/><path d="M61.043 20.238c0 .309.355.438.789.387.434-.055.77-.281 1.211-.219.441.059.613.516.605.621.133-.25.352-.675.352-.675l-1.895-.555s-1.062-.242-1.062.441M75.516 19.613s.675.242 1.261 1.727c-.25-.215-.754-.375-1.207-.344-.457.031-1.234.352-1.234.352s-1.172.425-1.18-.23c-.008-.653.762-.548.86-.524.101.023.89.32 1.347.222.457-.101.676-.843.153-1.203" style="stroke:none;fill-rule:nonzero;fill:#211614;fill-opacity:1"/><path d="M75.598 20.238c0 .309-.356.438-.79.387-.433-.055-.769-.281-1.21-.219-.442.059-.614.516-.61.621l-.347-.675 1.894-.555s1.063-.242 1.063.441M61.422 19.547l.586-.836s.336-.473.972-.367c.641.11 2.73.676 3.91.86.856.132 1.505.093 1.505.093s1.289-.059 1.984-.203c.695-.149 3.426-.922 3.797-.785.37.14 1.152 1.28 1.152 1.28s-.441.009-.691.04c-.617.078-3.543 1.242-6.41 1.242s-5.774-1.418-6.805-1.324M68.582.23a.207.207 0 0 0-.203-.203.204.204 0 0 0-.203.203c0 .114.09.204.203.204.11 0 .203-.09.203-.204" style="stroke:none;fill-rule:nonzero;fill:#211614;fill-opacity:1"/><path d="M68.484 2.598h-.21V.324h.21zM68.484 5.215l-.109.113-.102-.113v-.746h.211z" style="stroke:none;fill-rule:nonzero;fill:#211614;fill-opacity:1"/><path d="M68.293.566s.273-.113.598.059.597.438 1.054.426c-.144.242-.597.336-.597.336s.172.09.222.172c.047.078.14.242.352.242-.172.152-.574.191-.7.082a1.12 1.12 0 0 0-.84-.336c-.05-.387-.089-.98-.089-.98M69.676 2.684c0 .128-.582.23-1.297.23-.719 0-1.297-.102-1.297-.23 0-.125.578-.227 1.297-.227.715 0 1.297.102 1.297.227M69.691 2.922c-.433.156-1.261.18-1.312.183-.055-.003-.883-.027-1.313-.183 0 0-.152.91-.312 1.176.402-.223.527-.414.527-.414l.149.586s.336-.254.449-.497c.223.36.445.528.492.559v.008s.004-.004.008-.004l.004.004v-.008c.047-.031.273-.2.496-.559.113.243.445.497.445.497l.153-.586s.12.191.527.414c-.16-.266-.313-1.176-.313-1.176M74.621 5.883s-.457.21-1.5.11c-1.043-.106-2.2-1.243-3.187-1.266-.926-.02-1.5.699-1.57.785-.067-.086-.641-.805-1.567-.785-.988.023-2.145 1.16-3.188 1.265-1.043.102-1.5-.11-1.5-.11s.797 1.407 2.094.716c-.082.12-.082.285-.808.394.007.235.457.828 1.75.11-.145.23-.457.437-.836.52.246.304.543.675 1.808-.18-.226.44-.781.636-.781.636s.418.442 1.355.156c.942-.28 1.094-.992 1.094-.992l.18.102s-.348.61-.348 1.14c0 .532.422.586.422.586l.324-.308v-.024.024l.328.308s.418-.054.418-.586c0-.53-.343-1.14-.343-1.14l.18-.102s.152.711 1.093.992c.938.286 1.352-.156 1.352-.156s-.551-.195-.782-.637c1.266.856 1.563.485 1.813.18-.379-.082-.692-.289-.836-.52 1.293.72 1.742.126 1.75-.109-.727-.11-.727-.273-.809-.394 1.297.691 2.094-.715 2.094-.715" style="stroke:none;fill-rule:nonzero;fill:#211614;fill-opacity:1"/><path d="M69.152 11.02c-.101-.52-.465-.739-.465-1.192 0-.45.383-.703.383-.703s-.367.059-.511.27c-.008-.223-.211-.372-.235-.387v-.004.004l-.004-.004v.004c-.023.015-.226.164-.234.387-.145-.211-.512-.27-.512-.27s.383.254.383.703c0 .453-.363.672-.465 1.192-.101.52.528.789.528.789l.304-.293.301.293s.633-.27.527-.79" style="stroke:none;fill-rule:nonzero;fill:#211614;fill-opacity:1"/><path d="M69.328 14.227c-.125-.63-.566-.895-.566-1.442 0-.543.465-.851.465-.851s-.446.074-.622.328c-.007-.27-.253-.45-.28-.469v-.004.004l-.005-.004v.004c-.027.02-.273.2-.285.469-.172-.254-.617-.328-.617-.328s.465.308.465.851c0 .547-.442.813-.567 1.442-.12.625.637.953.637.953l.371-.356.367.356s.762-.328.637-.953M58.402 8.023c-.113-.007-.457.97-.191 2.09.262 1.121.898 1.633.898 1.633s.84.457 1.102.82c-.07.817-.254 3.723-.254 3.723s.828.356 1.871.031c-.121-1.465-.367-3.652-.367-3.652s.074-.898-.11-1.254c-.183-.351-.597-.594-.597-.594s-.879-1.16-1.313-1.242c-.109.059-.039.414.313.93.355.515.285.765.285.765s-.535-.554-1.02-.605c-.195-.516-.437-.898-.437-.898s0-.938-.039-1.04c.031-.253.02-.699-.14-.707" style="stroke:none;fill-rule:nonzero;fill:#211614;fill-opacity:1"/><path d="M58.977 8.105c-.164-.05-.375.524-.254 1.383.074.32.386.989.386.989s.344.02.676.394c-.262-.457-.707-1.254-.707-1.254l-.039-.926s.11-.535-.062-.586" style="stroke:none;fill-rule:nonzero;fill:#211614;fill-opacity:1"/><path d="M59.383 8.426c-.113-.012-.242.285-.164 1.062.082-.05.254-.062.254-.062l.007-.715s.051-.262-.097-.285M59.777 8.832c-.113.012-.12.211-.12.344 0 .129-.012.332-.012.332l.222.172v-.598s0-.262-.09-.25M60.95 16.926c-.673 0-1.126-.184-1.145-.192a.115.115 0 0 1-.063-.152.115.115 0 0 1 .153-.062c.003 0 .43.171 1.054.171.614 0 .922-.171.926-.171a.12.12 0 0 1 .16.043.12.12 0 0 1-.043.16c-.015.007-.36.203-1.043.203M60.957 17.355c-.777 0-1.293-.183-1.316-.19a.115.115 0 0 1-.07-.15c.023-.058.09-.093.148-.07.004 0 .504.172 1.238.172.723 0 1.09-.172 1.094-.172a.116.116 0 0 1 .156.051.125.125 0 0 1-.05.16c-.02.008-.415.2-1.2.2M60.965 17.844c-.856 0-1.422-.18-1.445-.188a.117.117 0 1 1 .07-.223c.004 0 .562.176 1.375.176.805 0 1.215-.175 1.219-.18a.12.12 0 0 1 .152.06.117.117 0 0 1-.059.156c-.02.007-.453.199-1.312.199M78.242 8.023c.11-.007.453.97.192 2.09-.266 1.121-.899 1.633-.899 1.633s-.84.457-1.101.82c.07.817.25 3.723.25 3.723s-.829.356-1.868.031c.121-1.465.364-3.652.364-3.652s-.07-.898.11-1.254c.183-.351.597-.594.597-.594s.879-1.16 1.312-1.242c.114.059.043.414-.312.93-.356.515-.282.765-.282.765s.536-.554 1.02-.605c.191-.516.434-.898.434-.898s0-.938.039-1.04c-.028-.253-.02-.699.144-.707" style="stroke:none;fill-rule:nonzero;fill:#211614;fill-opacity:1"/><path d="M77.664 8.105c.164-.05.375.524.254 1.383-.07.32-.383.989-.383.989s-.344.02-.68.394c.262-.457.707-1.254.707-1.254l.043-.926s-.113-.535.06-.586" style="stroke:none;fill-rule:nonzero;fill:#211614;fill-opacity:1"/><path d="M77.262 8.426c.11-.012.242.285.16 1.062-.078-.05-.254-.062-.254-.062l-.008-.715s-.05-.262.102-.285M76.867 8.832c.11.012.121.211.121.344 0 .129.008.332.008.332l-.219.172v-.598s0-.262.09-.25M75.691 16.926c.676 0 1.125-.184 1.145-.192a.117.117 0 0 0 .066-.152.12.12 0 0 0-.156-.062c-.004 0-.43.171-1.055.171-.609 0-.921-.171-.925-.171a.12.12 0 0 0-.16.043.12.12 0 0 0 .042.16c.016.007.364.203 1.043.203M75.684 17.355c.777 0 1.296-.183 1.316-.19a.117.117 0 0 0 .074-.15.12.12 0 0 0-.152-.07c-.004 0-.504.172-1.238.172-.723 0-1.09-.172-1.094-.172a.116.116 0 0 0-.156.051.123.123 0 0 0 .054.16c.016.008.414.2 1.196.2M75.676 17.844c.855 0 1.426-.18 1.449-.188a.12.12 0 0 0 .074-.148.117.117 0 0 0-.148-.074c-.004 0-.559.175-1.375.175-.805 0-1.211-.175-1.215-.18a.12.12 0 0 0-.156.06c-.024.062 0 .128.058.156.02.007.453.199 1.313.199M72.695 8.297a5.4 5.4 0 0 1 .778 2.797c0 2.66-1.91 4.863-4.403 5.25.13-.68.735-1.059.735-1.059s-.727.11-1.016.504c-.016-.418-.418-.691-.46-.719v-.004h-.013000000000000001v.004c-.043.028-.445.301-.464.72-.286-.395-1.012-.505-1.012-.505s.613.383.738 1.07c-2.531-.355-4.48-2.574-4.48-5.261 0-1.028.285-1.985.78-2.797a6.15 6.15 0 0 0-1.866 4.414c0 3.43 2.808 6.21 6.273 6.21s6.274-2.78 6.274-6.21c0-1.727-.715-3.29-1.864-4.414" style="stroke:none;fill-rule:nonzero;fill:#211614;fill-opacity:1"/><g clip-path="url(#d)"><g clip-path="url(#e)"><path d="M64.066 20.082h.282v-.129h-.282Zm0 0" style="stroke:none;fill-rule:nonzero;fill:url(#f)"/></g></g><path d="m66.496 20.156.02.032c.02-.075.004-.145-.012-.153-.086.254-.227.188-.293.145a.4.4 0 0 1-.113.093c.039.043.117.118.199.114a.34.34 0 0 0 .152-.09q-.011-.026-.011-.027z" style="stroke:none;fill-rule:nonzero;fill:#f8ec08;fill-opacity:1"/><path d="M66.21 20.18c-.019-.016-.03-.028-.03-.028l-.11.09s.012.016.028.031a.4.4 0 0 0 .113-.093M66.496 20.156l-.058.114q0 .002.011.027a.25.25 0 0 0 .067-.11z" style="stroke:none;fill-rule:nonzero;fill:#f8ec08;fill-opacity:1"/><path d="m65.223 17.363.132-.02-.03-.152-.138.024zM66.637 17.305l-.035-.149-.133.02.031.152zM63.355 15.543c.13.02.399-.05.38-.145-.016-.097-.172-.308-.083-.355.086-.047.23-.05.215.14-.004.047-.004.063-.004.063s.211.008.184-.16c-.024-.168-.34-.203-.422-.14-.078.058-.176.1-.145.183.028.086.137.293.075.328-.063.031-.692-.453-.7-1.121l-.003.012c-.012.054-.036.34-.075.375.059.172.45.804.578.82M63.816 15.668c-.039-.07.043-.215.043-.215s-.234.14-.207.211c.024.07.137.29.364.18-.04.097-.055.187-.008.242.023.027.058.062.094.098l-.024.054q-.065-.007-.117-.008c.039.012.07.024.105.032-.066.207-.05.496.157.484.16-.008.21-.133.226-.234l.067.054s.18.13.359-.039c.18-.168.32-.418.32-.418l.188.02s-.02-.207.031-.281c-.098-.008-.187.011-.187.011l-.047.125s-.371.516-.442.516c-.031 0-.152-.082-.277-.187.367-.036.336-.375.262-.41-.078-.036-.41.117-.52.171-.055-.058-.086-.11-.086-.137.008-.113.297-.468.297-.468l-.172-.004s-.129.16-.207.324c-.058.012-.148 0-.219-.121m.786.46c.043.075-.07.102-.227.11a2 2 0 0 1-.129-.117c.106-.039.297-.094.356.008m-.387.168c.055.047.105.098.152.137.012.09.016.218-.07.21-.113-.074-.133-.238-.129-.355q.024.004.047.008M65.04 16.766c-.067.125.097.3.241.32.43-.027.438-.438.438-.438s-.078.024-.184.075c.004.242-.09.238-.09.238-.074.004-.199-.117-.242-.176-.039-.055.125-.27.25-.445.125-.176.223-.063.223-.063l.176-.144c-.383-.2-.747.508-.813.633M67.05 17.242l-.19.059s.011.047.023.113l.168-.168zM65.766 17.23l.113.286s.226.27.562.34l.168-.169c-.43-.066-.843-.457-.843-.457" style="stroke:none;fill-rule:nonzero;fill:#fff;fill-opacity:1"/><path d="M64.406 20.074c.094-.031.262-.16.262-.16l.234.238s.141-.093.192-.207c.047-.113-.004-.347-.125-.383-.117-.03-.25.258-.41.34a.6.6 0 0 1-.211.051l-.13.129c.071.012.145.004.188-.008m.492-.344c.067.024.106.22.067.258-.04.04-.195-.175-.195-.175s.058-.106.128-.083M66.18 20.152s.011.012.03.028c.036-.043.063-.09.063-.133-.117.086-.191.164-.37.09-.071-.051.085-.84.085-.84l-.152.125-.219.52s-.039-.614-.324-.618l-.016.25s.227.008.274.41c-.168.063-.434.13-.477.098.117.086.356.176.406.16.047-.015.332-.531.332-.531l-.05.434s-.004.148.152.171a.3.3 0 0 0 .184-.043c-.016-.015-.028-.03-.028-.03zM67.254 19.512l-.133.101.055.035s-.02.356-.055.598c-.125.11-.281.012-.281.012l-.024-.274-.078.063s-.015.055-.015.191c-.125.035-.184-.015-.207-.05a.23.23 0 0 1-.067.109c.02.039.055.098.133.113.11.024.184-.12.184-.12s-.028.175.214.148c.247-.024.27-.32.27-.32l.023-.384s.086-.015.11-.062c-.13-.035-.13-.16-.13-.16M67.477 19.637s.027.761-.032.84c.098-.067.168-.168.16-.297-.003-.13-.007-.676-.007-.676zM68.121 20.086s.215.227.211.254c-.004.031-.121.242-.398.203.074.082.203.187.257.18.051-.012.168-.22.196-.313.023-.094-.028-.285-.133-.457zM68.438 19.61l.054.882.13-.183-.052-.825zM68.914 19.734l-.02.227s.18.086.204.2c.027.112-.278.112-.352-.04-.027.113-.066.23.11.297.175.07.296-.066.324-.207.023-.145-.016-.3-.266-.477M70.648 19.941s.11-.234-.066-.378c-.078.058-.129.136-.129.136s.149.055.106.211h-.11v.176s.211-.082.242-.02c.028.067-.507.32-1.207.192l.286.21s.285.04.652-.09c.363-.124.453-.386.226-.437M71.012 19.512c-.133.011-.242.261-.168.394.082.133.246.211.34-.027.07-.035.12.273-.29.312.032.063.098.141.243.11.14-.028.238-.27.117-.531-.125-.262-.242-.258-.242-.258m0 .16c.054 0 .129.094.129.094-.364.195-.184-.094-.13-.094M71.926 19.223c-.102.058-.09.117-.09.117s.144.129.137.215c-.012.09-.285.164-.442-.11l-.015.149s.054.105.152.164c0 .105-.035.344-.309.262.02.043.141.152.227.156.078.004.168-.137.148-.39.04.01.086.015.133.003.23-.055.211-.414.059-.566M70.672 20.426l-.074-.059-.086.117.113.09.074-.101-.039-.032zM70.672 20.426l.039.031-.012.016.07.054.086-.117-.109-.09z" style="stroke:none;fill-rule:nonzero;fill:#f8ec08;fill-opacity:1"/><path d="m70.672 20.426-.012.015.04.032.01-.016zM71.973 19.969l.14.047.047-.13-.137-.042zM70.352 19.465l.125.074.082-.117-.125-.074zM68.008 17.168l-.094-.125-.113.074.09.125zM71.516 16.66l-.153-.02-.027.137.152.016zM66.66 17.871c.43-.035.395-.566.39-.625l-.167.168c.02.09.035.207.012.262a.64.64 0 0 1-.286.012l-.168.167c.07.016.141.024.22.016" style="stroke:none;fill-rule:nonzero;fill:#f8ec08;fill-opacity:1"/><path d="M68.875 17.75s.027.16.203.137c.176-.024.418-.192.637-.43l.05-.004s.032.274.184.277c.149 0 .207-.109.406-.085.094-.114.094-.22.094-.22s-.27-.003-.297-.222c-.023-.215-.058-.43-.058-.43l.078.016s-.016-.07.016-.094c-.094-.027-.141-.136-.16-.187-.11.105-.169.187-.169.187l.114.051s.054.57.125.613c.07.043.18.13.18.13s-.055.054-.122.042c-.066-.011-.297.11-.36-.066.087-.004.15-.082.15-.082l-.012-.102s-.215.082-.38-.008c-.163-.085-.23-.117-.312-.011-.078.101-.097.125-.047.199.04-.09.13-.133.22-.09.093.04.222.063.222.063s-.278.195-.399.25c-.125.054-.386.074-.304-.25-.059.043-.11.058-.11.058s.055.246-.105.262c-.156.016-.16-.063-.16-.063.007-.054.007-.113.011-.187 0 .226-.074.25-.183.25a.17.17 0 0 1-.125-.047.7.7 0 0 0 .043-.168s-.102.2-.266.191a.27.27 0 0 1-.195-.097c.039-.106.035-.207.035-.207s-.082.277-.34.265q.005-.033.004-.074c0-.355-.125-.324-.125-.324-.129-.02-.313.152-.316.277-.004.114.054.262.328.285q-.01.025-.02.055c-.172.106-.414-.05-.414-.05s.059.242.207.273c.113.023.25-.074.309-.278h.023a.3.3 0 0 0 .242-.105c.012.07.063.16.223.16a.22.22 0 0 0 .176-.07c.02.039.062.078.156.09.102.011.16-.024.195-.11.028.04.078.094.16.09.126-.012.188-.16.188-.16m-1.45-.078c-.347-.106-.21-.207-.109-.238.075-.024.145.09.145.246q-.017-.001-.035-.008M70.547 17.55s.101-.19.07-.359c-.031-.171-.21-.707-.183-.773 0 0-.067.184-.121.187.066.051.109.22.132.352.028.133.102.594.102.594M71.258 17.406c.199-.086.89-.343.738-.765-.074-.192-.312-.36-.312-.36l-.024.219s.274.098.281.133c.004.039-.09.34-.644.586-.2.047-.375.07-.375.07s.308.055.336.117M72.367 16.32a3 3 0 0 1-.148.137c-.012 0-.14.031-.16-.05-.02-.079.132-.2.308-.087q.028-.022.051-.047l-.031-.03c-.18-.13-.274-.184-.34-.138-.102.07-.063.329.058.457.125.133.239-.019.262-.03.008-.005.047-.052.106-.11a.2.2 0 0 0-.055-.067.2.2 0 0 0-.05-.035" style="stroke:none;fill-rule:nonzero;fill:#f8ec08;fill-opacity:1"/><path d="M72.418 16.273q-.023.024-.05.047.027.012.05.035.039.03.055.067c.011-.016.027-.027.043-.043a.4.4 0 0 0-.098-.106" style="stroke:none;fill-rule:nonzero;fill:#f8ec08;fill-opacity:1"/><path d="M72.79 15.898s.007.11-.103.086c-.109-.023-.218-.101-.214-.18-.067-.023-.157.216.148.286a4 4 0 0 0-.203.183q.063.05.098.106c.129-.133.308-.293.394-.262.004-.097-.02-.21-.02-.21zM72.203 16.816c.152.012.32.028.32.028s.157-.23-.007-.465c-.016.016-.032.027-.043.043.074.156-.153.324-.27.394M72.273 15.031l.008.2.742.71-.023-.148zM73.602 14.89c-.11-.066-.47-.378-.47-.378l-.027-.117s-.164.039-.203-.082c-.035.14 0 .25 0 .25l.125-.004s.47.363.489.394c.015.035.058.23-.207.223-.266-.004-.414-.13-.438-.172v.172s.156.09.336.133l-.008-.051a.2.2 0 0 1 .07.066c.063.008.126.016.188.004.25-.039.254-.367.145-.437M73.102 14.043l.003.184.762.566-.012-.117z" style="stroke:none;fill-rule:nonzero;fill:#f8ec08;fill-opacity:1"/><path d="M72.926 15.512c.094.11.23.234.344.129.101-.098.062-.235 0-.317a.3.3 0 0 1-.063-.015c.008.09-.012.265-.281.203" style="stroke:none;fill-rule:nonzero;fill:#f8ec08;fill-opacity:1"/><path d="m73.2 15.258.007.05q.03.011.063.016a.2.2 0 0 0-.07-.066M72.195 15.691c-.027.055-.004.09.016.137.016-.082.133-.246.133-.246s.015-.012-.059-.02c-.023.11-.078.118-.129.06-.05-.06.047-.063.047-.063l.04-.075c-.067-.023-.15-.027-.169.09-.023.117.121.117.121.117" style="stroke:none;fill-rule:nonzero;fill:#f8ec08;fill-opacity:1"/></svg>