<?xml version="1.0" encoding="UTF-8"?>
<svg xmlns="http://www.w3.org/2000/svg" xmlns:xlink="http://www.w3.org/1999/xlink" width="176pt" height="25.09pt" viewBox="0 0 176 25.09" version="1.1">
<defs>
<clipPath id="clip1">
  <path d="M 0 8 L 42 8 L 42 25.089844 L 0 25.089844 Z M 0 8 "/>
</clipPath>
</defs>
<g id="surface1">
<path style=" stroke:none;fill-rule:evenodd;fill:rgb(24.203491%,48.521423%,71.408081%);fill-opacity:1;" d="M 147.613281 19.199219 C 146.1875 19.820312 144.261719 19.582031 143.113281 20.441406 C 142.785156 20.6875 142.242188 21.238281 142.578125 21.816406 C 142.890625 22.359375 144.03125 22.363281 144.761719 22.1875 C 146.828125 21.679688 147.054688 21.09375 147.746094 19.234375 C 147.746094 19.222656 147.746094 19.210938 147.746094 19.199219 C 147.699219 19.199219 147.65625 19.199219 147.613281 19.199219 Z M 162.007812 13.160156 C 161.078125 16.949219 160.148438 20.746094 159.222656 24.535156 C 157.5 24.535156 155.777344 24.535156 154.054688 24.535156 C 155.015625 20.746094 155.980469 16.949219 156.941406 13.160156 C 158.628906 13.160156 160.316406 13.160156 162.007812 13.160156 Z M 146.808594 13.125 C 149.734375 13.078125 153.046875 13.121094 153.617188 15.507812 C 154.1875 17.882812 152.6875 20.253906 152.175781 22.253906 C 152.054688 22.734375 151.902344 23.398438 152.007812 23.898438 C 152.085938 24.1875 152.164062 24.480469 152.242188 24.769531 C 152.109375 24.769531 151.972656 24.769531 151.839844 24.769531 C 150.261719 24.714844 148.6875 24.800781 147.105469 24.742188 C 147.027344 24.261719 146.9375 23.820312 146.941406 23.226562 C 146.214844 23.59375 145.480469 24.074219 144.65625 24.335938 C 142.113281 25.136719 137.636719 24.957031 137.144531 22.554688 C 136.898438 21.363281 137.699219 20.320312 138.214844 19.804688 C 139.90625 18.113281 143.152344 18.140625 145.96875 17.554688 C 146.785156 17.363281 147.601562 17.175781 148.414062 16.984375 C 148.480469 16.703125 148.550781 16.210938 148.382812 15.980469 C 147.96875 15.398438 145.734375 15.59375 145.09375 15.878906 C 144.636719 16.082031 144.355469 16.578125 143.984375 16.886719 C 142.410156 16.75 140.832031 16.617188 139.257812 16.480469 C 139.738281 14.703125 142.148438 13.742188 144.121094 13.363281 C 145.015625 13.285156 145.910156 13.207031 146.808594 13.125 Z M 176 12.894531 C 175.632812 14.210938 175.261719 15.53125 174.894531 16.851562 C 173.449219 16.625 170.277344 16.183594 169.390625 17.253906 C 168.773438 19.679688 168.160156 22.109375 167.542969 24.535156 C 165.832031 24.535156 164.121094 24.535156 162.410156 24.535156 C 163.351562 20.746094 164.289062 16.949219 165.226562 13.160156 C 166.816406 13.160156 168.40625 13.160156 169.992188 13.160156 C 169.859375 13.753906 169.726562 14.347656 169.589844 14.9375 C 169.601562 14.9375 169.613281 14.9375 169.625 14.9375 C 169.625 14.917969 169.625 14.894531 169.625 14.871094 C 170.339844 14.320312 170.796875 13.585938 171.703125 13.195312 C 172.746094 12.738281 174.53125 12.890625 176 12.894531 Z M 158.015625 8.898438 C 159.714844 8.898438 161.414062 8.898438 163.113281 8.898438 C 163.113281 8.910156 163.113281 8.921875 163.113281 8.933594 C 162.855469 9.90625 162.601562 10.878906 162.34375 11.851562 C 160.652344 11.851562 158.964844 11.851562 157.273438 11.851562 C 157.273438 11.816406 157.273438 11.785156 157.273438 11.75 C 157.519531 10.800781 157.769531 9.847656 158.015625 8.898438 Z M 121.203125 15.339844 C 119.976562 15.871094 118.839844 16.214844 118.585938 17.691406 C 120.21875 17.679688 121.851562 17.667969 123.484375 17.65625 C 123.535156 15.90625 123.046875 15.300781 121.203125 15.339844 Z M 128.183594 19.769531 C 124.769531 19.769531 121.359375 19.769531 117.949219 19.769531 C 117.921875 21.652344 119.296875 22.554688 121.136719 21.851562 C 121.632812 21.660156 122.015625 21.117188 122.480469 20.980469 C 124.121094 21.136719 125.769531 21.292969 127.410156 21.449219 C 127.144531 21.726562 126.875 22.007812 126.605469 22.285156 C 126.292969 22.535156 125.980469 22.777344 125.664062 23.027344 C 124.960938 23.519531 124.007812 23.925781 123.113281 24.199219 C 122.199219 24.480469 121.246094 24.398438 120.160156 24.570312 C 115.960938 25.230469 111.925781 23.078125 112.980469 18.863281 C 113.839844 15.449219 116.402344 13.539062 119.964844 12.824219 C 122.628906 12.289062 126.1875 12.816406 127.445312 14.199219 C 128.1875 15.015625 128.835938 16.355469 128.519531 18.09375 C 128.40625 18.652344 128.296875 19.210938 128.183594 19.769531 Z M 132.511719 8.898438 C 134.222656 8.898438 135.933594 8.898438 137.644531 8.898438 C 136.339844 14.109375 135.027344 19.324219 133.71875 24.535156 C 132.019531 24.535156 130.320312 24.535156 128.617188 24.535156 C 128.617188 24.523438 128.617188 24.511719 128.617188 24.503906 C 129.914062 19.300781 131.214844 14.097656 132.511719 8.898438 Z M 103.21875 13.160156 C 103.476562 15.554688 103.730469 17.949219 103.988281 20.339844 C 103.988281 20.320312 103.988281 20.296875 103.988281 20.273438 C 105.464844 17.902344 106.941406 15.53125 108.417969 13.160156 C 110.117188 13.171875 111.820312 13.183594 113.519531 13.195312 C 113.496094 13.214844 113.476562 13.238281 113.453125 13.261719 C 110.65625 17.019531 107.859375 20.777344 105.0625 24.535156 C 103.96875 24.535156 102.871094 24.535156 101.773438 24.535156 C 101.453125 24.535156 100.753906 24.632812 100.566406 24.46875 C 99.683594 20.699219 98.796875 16.929688 97.914062 13.160156 C 99.683594 13.160156 101.449219 13.160156 103.21875 13.160156 Z M 82.34375 13.160156 C 84.058594 13.160156 85.769531 13.160156 87.480469 13.160156 C 87.042969 14.882812 86.605469 16.605469 86.171875 18.328125 C 85.996094 18.964844 85.644531 19.941406 86.339844 20.238281 C 86.757812 20.417969 87.511719 20.441406 87.984375 20.339844 C 89.964844 19.917969 89.953125 18.078125 90.46875 16.214844 C 90.722656 15.195312 90.980469 14.179688 91.238281 13.160156 C 92.949219 13.160156 94.660156 13.160156 96.371094 13.160156 C 95.433594 16.949219 94.492188 20.746094 93.554688 24.535156 C 91.964844 24.535156 90.378906 24.535156 88.789062 24.535156 C 88.789062 24.523438 88.789062 24.511719 88.789062 24.503906 C 88.921875 23.933594 89.054688 23.363281 89.191406 22.792969 C 89.179688 22.792969 89.167969 22.792969 89.15625 22.792969 C 89.113281 22.835938 89.070312 22.878906 89.023438 22.925781 C 88.023438 23.371094 87.339844 24.1875 86.105469 24.570312 C 85.566406 24.648438 85.03125 24.726562 84.492188 24.804688 C 79.617188 24.851562 80.066406 21.96875 81.070312 18.363281 C 81.496094 16.628906 81.921875 14.894531 82.34375 13.160156 Z M 71.105469 15.375 C 70.8125 15.441406 70.523438 15.507812 70.230469 15.578125 C 69.089844 16.042969 68.316406 16.980469 67.984375 18.261719 C 67.640625 19.585938 67.726562 21.027344 68.824219 21.480469 C 71.160156 22.453125 72.746094 20.109375 73.21875 18.527344 C 73.769531 16.679688 72.929688 15.34375 71.105469 15.375 Z M 71.472656 12.085938 C 75.347656 12.03125 78.085938 13.066406 78.722656 16.246094 C 78.921875 17.257812 78.714844 18.445312 78.417969 19.199219 C 77.019531 22.78125 72.472656 25.734375 66.976562 24.601562 C 65.992188 24.398438 65.242188 24.234375 64.527344 23.796875 C 62.449219 22.53125 61.777344 19.914062 62.949219 17.1875 C 63.761719 15.304688 65.542969 13.84375 67.414062 13.027344 C 68.183594 12.691406 69.03125 12.445312 69.929688 12.253906 C 70.445312 12.199219 70.960938 12.144531 71.472656 12.085938 Z M 45.667969 8.898438 C 47.4375 8.898438 49.203125 8.898438 50.96875 8.898438 C 52.527344 11.75 54.082031 14.605469 55.636719 17.457031 C 55.648438 17.457031 55.65625 17.457031 55.667969 17.457031 C 56.398438 14.605469 57.121094 11.75 57.851562 8.898438 C 59.605469 8.898438 61.363281 8.898438 63.117188 8.898438 C 61.820312 14.109375 60.523438 19.324219 59.226562 24.535156 C 57.425781 24.523438 55.625 24.511719 53.824219 24.503906 C 52.289062 21.660156 50.757812 18.820312 49.226562 15.980469 C 48.511719 18.832031 47.792969 21.683594 47.078125 24.535156 C 45.3125 24.535156 43.542969 24.535156 41.777344 24.535156 C 43.074219 19.324219 44.371094 14.109375 45.667969 8.898438 "/>
<g clip-path="url(#clip1)" clip-rule="nonzero">
<path style=" stroke:none;fill-rule:evenodd;fill:rgb(24.203491%,48.521423%,71.408081%);fill-opacity:1;" d="M 31.476562 8.515625 C 32.335938 8.550781 33.199219 8.582031 34.058594 8.617188 C 32.246094 9.8125 31.171875 11.042969 29.359375 12.242188 C 25.019531 15.648438 22.09375 18.65625 15.671875 19.992188 C 9.695312 21.335938 1.820312 16.964844 1.207031 12.441406 C 1.242188 12.453125 1.273438 12.464844 1.308594 12.476562 C 2.261719 13.746094 3.730469 15.027344 5.199219 15.765625 C 13.425781 19.636719 21.125 12.042969 26.273438 9.757812 C 27.230469 9.332031 28.300781 8.976562 29.425781 8.75 C 30.109375 8.671875 30.792969 8.59375 31.476562 8.515625 Z M 38.957031 8.414062 C 40.039062 8.398438 40.984375 8.480469 41.777344 8.75 C 40.0625 9.574219 38.863281 10.511719 37.515625 11.601562 C 31.648438 16.363281 27.085938 22.914062 18.320312 24.859375 C 11.109375 26.027344 4.503906 22.621094 1.878906 18.347656 C 1.320312 17.4375 -0.0273438 14.777344 0 13.179688 C 1.09375 15.144531 2.675781 16.929688 4.394531 18.28125 C 5.777344 19.367188 7.269531 20.140625 9.09375 20.832031 C 11.796875 21.851562 15.75 21.089844 18.085938 20.359375 C 25.078125 18.183594 28.890625 13.417969 34.460938 9.960938 C 35.996094 9.007812 36.914062 8.730469 38.957031 8.414062 "/>
</g>
<path style=" stroke:none;fill-rule:evenodd;fill:rgb(94.194031%,70.23468%,20.08667%);fill-opacity:1;" d="M 13.054688 0.0273438 C 13.964844 0.0078125 14.996094 -0.0625 15.769531 0.128906 C 16.441406 0.292969 17.144531 0.382812 17.75 0.628906 C 19.921875 1.523438 21.703125 2.808594 22.984375 4.589844 C 23.84375 5.789062 24.730469 7.265625 24.964844 9.054688 C 24.652344 9.191406 24.375 9.417969 24.09375 9.589844 C 23.492188 9.960938 22.894531 10.296875 22.316406 10.664062 C 21.179688 11.382812 19.972656 11.976562 18.824219 12.675781 C 18.347656 12.96875 17.832031 13.152344 17.316406 13.382812 C 16.90625 13.5625 16.460938 13.808594 16.039062 13.984375 C 15.238281 14.328125 14.363281 14.542969 13.488281 14.789062 C 12.992188 14.933594 12.457031 14.90625 11.945312 15.023438 C 11.699219 15.023438 11.453125 15.023438 11.207031 15.023438 C 10.757812 15.039062 10.152344 15.097656 9.699219 14.992188 C 9.5625 14.992188 9.429688 14.992188 9.292969 14.992188 C 8.859375 14.925781 8.421875 14.859375 7.988281 14.789062 C 6.410156 14.34375 5.453125 13.878906 4.292969 13.046875 C 4.027344 12.855469 3.785156 12.671875 3.523438 12.476562 C 3.566406 12.523438 2.785156 11.769531 2.785156 11.769531 C 2.785156 11.769531 2.785156 11.011719 2.785156 10.628906 C 2.859375 10.503906 2.777344 10.269531 2.820312 10.09375 C 2.875 9.691406 2.929688 9.289062 2.988281 8.886719 C 3.277344 7.761719 3.589844 6.683594 4.125 5.796875 C 5.449219 3.621094 7.257812 1.851562 9.699219 0.796875 C 10.328125 0.527344 11.035156 0.375 11.746094 0.195312 C 12.179688 0.136719 12.617188 0.0820312 13.054688 0.0273438 "/>
</g>
</svg>
