<svg xmlns="http://www.w3.org/2000/svg" width="176pt" height="33.453" viewBox="0 0 176 25.09"><defs><clipPath id="a"><path d="M0 8h42v17.09H0Zm0 0"/></clipPath></defs><path d="M147.613 19.2c-1.425.62-3.351.382-4.5 1.241-.328.247-.87.797-.535 1.375.313.543 1.453.547 2.184.372 2.066-.508 2.293-1.094 2.984-2.954V19.2zm14.395-6.04c-.93 3.79-1.86 7.586-2.785 11.375h-5.168c.96-3.789 1.925-7.586 2.886-11.375zm-15.2-.035c2.926-.047 6.239-.004 6.81 2.383.57 2.375-.93 4.746-1.442 6.746-.121.48-.274 1.144-.168 1.644l.234.872h-.402c-1.578-.055-3.153.03-4.735-.028-.078-.48-.167-.922-.164-1.515-.726.367-1.46.847-2.285 1.109-2.543.8-7.02.621-7.511-1.781-.247-1.192.554-2.235 1.07-2.75 1.691-1.692 4.937-1.664 7.754-2.25q1.226-.287 2.445-.57c.066-.282.137-.774-.031-1.005-.414-.582-2.649-.386-3.29-.101-.456.203-.738.7-1.109 1.008q-2.363-.204-4.726-.407c.48-1.777 2.89-2.738 4.863-3.117q1.342-.116 2.688-.238m29.192-.23q-.552 1.975-1.105 3.957c-1.446-.227-4.618-.668-5.504.402-.618 2.426-1.23 4.855-1.848 7.281h-5.133c.942-3.789 1.88-7.586 2.817-11.375h4.765q-.198.892-.402 1.777h.035v-.066c.715-.55 1.172-1.285 2.078-1.676 1.043-.457 2.828-.304 4.297-.3m-17.984-3.997h5.097v.036c-.258.972-.511 1.945-.77 2.918h-5.07v-.102q.372-1.426.743-2.852m-36.813 6.442c-1.226.531-2.363.875-2.617 2.351l4.898-.035c.051-1.75-.437-2.355-2.28-2.316m6.98 4.43H117.95c-.027 1.882 1.348 2.785 3.188 2.082.496-.192.879-.735 1.343-.872l4.93.47c-.265.277-.535.558-.805.835-.312.25-.625.492-.94.742-.704.493-1.657.899-2.552 1.172-.914.281-1.867.2-2.953.371-4.2.66-8.234-1.492-7.18-5.707.86-3.414 3.422-5.324 6.985-6.039 2.664-.535 6.222-.008 7.48 1.375.743.817 1.39 2.156 1.075 3.895-.114.558-.223 1.117-.336 1.676m4.329-10.872h5.133c-1.305 5.211-2.618 10.426-3.926 15.637h-5.102v-.031q1.947-7.805 3.895-15.606m-29.293 4.262c.258 2.395.511 4.79.77 7.18v-.067l4.429-7.113 5.102.035c-.024.02-.043.043-.067.067l-8.39 11.273h-3.29c-.32 0-1.02.098-1.207-.066-.882-3.77-1.77-7.54-2.652-11.309zm-20.875 0h5.136q-.657 2.584-1.308 5.168c-.176.637-.527 1.613.168 1.91.418.18 1.172.203 1.644.102 1.98-.422 1.97-2.262 2.485-4.125.254-1.02.511-2.035.77-3.055h5.132c-.937 3.79-1.879 7.586-2.816 11.375h-4.766v-.031q.199-.855.402-1.711h-.035l-.133.133c-1 .445-1.683 1.262-2.918 1.644l-1.613.235c-4.875.047-4.426-2.836-3.422-6.442q.64-2.6 1.274-5.203m-11.239 2.215c-.293.066-.582.133-.875.203-1.14.465-1.914 1.402-2.246 2.684-.343 1.324-.257 2.765.84 3.218 2.336.973 3.922-1.37 4.395-2.953.55-1.847-.29-3.183-2.114-3.152m.368-3.29c3.875-.054 6.613.981 7.25 4.161.199 1.012-.008 2.2-.305 2.953-1.398 3.582-5.945 6.535-11.441 5.403-.985-.204-1.735-.368-2.45-.805-2.078-1.266-2.75-3.883-1.578-6.61.813-1.882 2.594-3.343 4.465-4.16.77-.336 1.617-.582 2.516-.773q.773-.082 1.543-.168M45.668 8.899h5.3q2.338 4.28 4.669 8.559h.031c.73-2.852 1.453-5.707 2.184-8.559h5.265l-3.89 15.637q-2.702-.019-5.403-.031-2.301-4.265-4.597-8.524-1.075 4.278-2.149 8.555h-5.3z" style="stroke:none;fill-rule:evenodd;fill:#3e7cb6;fill-opacity:1"/><g clip-path="url(#a)"><path d="M31.477 8.516q1.29.05 2.582.101c-1.813 1.195-2.887 2.426-4.7 3.625-4.34 3.406-7.265 6.414-13.687 7.75-5.977 1.344-13.852-3.027-14.465-7.55l.102.035c.953 1.27 2.421 2.55 3.89 3.289 8.227 3.87 15.926-3.723 21.074-6.008a15.2 15.2 0 0 1 3.153-1.008zm7.48-.102c1.082-.016 2.027.066 2.82.336-1.715.824-2.914 1.762-4.261 2.852-5.868 4.761-10.43 11.312-19.196 13.257-7.21 1.168-13.816-2.238-16.441-6.511-.559-.91-1.906-3.57-1.879-5.168 1.094 1.965 2.676 3.75 4.395 5.101 1.382 1.086 2.875 1.86 4.699 2.551 2.703 1.02 6.656.258 8.992-.473 6.992-2.175 10.805-6.941 16.375-10.398 1.535-.953 2.453-1.23 4.496-1.547" style="stroke:none;fill-rule:evenodd;fill:#3e7cb6;fill-opacity:1"/></g><path d="M13.055.027c.91-.02 1.941-.09 2.715.102.671.164 1.375.254 1.98.5 2.172.894 3.953 2.18 5.234 3.96.86 1.2 1.746 2.677 1.98 4.466-.312.136-.589.363-.87.535-.602.37-1.2.707-1.778 1.074-1.136.719-2.343 1.313-3.492 2.012-.476.293-.992.476-1.508.707-.41.18-.855.426-1.277.601-.8.344-1.676.559-2.55.805-.497.145-1.032.117-1.544.234h-.738c-.45.016-1.055.075-1.508-.03h-.406q-.652-.1-1.305-.204c-1.578-.445-2.535-.91-3.695-1.742-.266-.192-.508-.375-.77-.57.043.046-.738-.707-.738-.707v-1.141c.074-.125-.008-.36.035-.535q.082-.604.168-1.207c.29-1.125.602-2.203 1.137-3.09 1.324-2.176 3.133-3.945 5.574-5 .63-.27 1.336-.422 2.047-.602q.652-.086 1.309-.168" style="stroke:none;fill-rule:evenodd;fill:#f0b333;fill-opacity:1"/></svg>