<svg xmlns="http://www.w3.org/2000/svg" width="176pt" height="64.44" viewBox="0 0 176 48.33"><defs><clipPath id="a"><path d="M122 0h54v48.328h-54Zm0 0"/></clipPath></defs><path d="M124.395 19.59c-1.063.695-1.887 1.71-2.387 3.035h-.082v-3.727h-6.754v21.239h6.957V29.62c0-2.656 1.797-5.035 5.238-5.035.797 0 1.512.125 2.258.309Zm-30.606 5.87c.121-2.776 1.426-4.573 3.305-5.67 1.879-1.067 4.324-1.474 6.734-1.474 5.024 0 9.875 1.102 9.875 7.106v9.266c0 1.792 0 3.753.82 5.425h-6.98c-.242-.652-.328-1.304-.406-1.996-1.797 1.875-4.453 2.606-6.985 2.606-4.039 0-7.218-2.04-7.218-6.403 0-6.902 7.507-6.37 12.324-7.347 1.183-.246 1.836-.657 1.836-1.961 0-1.594-1.918-2.207-3.348-2.207-1.918 0-3.14.86-3.469 2.656Zm8.98 10.978c3.305 0 4.407-1.876 4.243-6.243-.98.614-2.778.735-4.285 1.14-1.551.372-2.856 1.024-2.856 2.696 0 1.715 1.348 2.407 2.899 2.407m-38.813-3.325c0 1.067.45 1.844 1.145 2.375.656.492 1.597.735 2.578.735 1.351 0 3.273-.57 3.273-2.25 0-1.637-2.168-1.961-3.394-2.246-4.383-1.11-9.864-1.23-9.864-6.961 0-5.114 5.528-6.504 9.7-6.504 4.664 0 9.535 1.351 9.78 6.875H70.75c0-.903-.328-1.477-.902-1.844-.57-.367-1.348-.531-2.207-.531-1.149 0-2.989.125-2.989 1.597 0 2.004 4.664 2.371 7.86 3.067 4.297.86 5.398 3.969 5.398 5.73 0 5.688-5.398 7.57-10.187 7.57-5.035 0-10.192-1.68-10.395-7.613Zm-36.598-1.949c.125 2.914 1.805 4.844 4.758 4.844 1.684 0 3.328-.778 3.985-2.34h6.52c-1.27 4.926-5.825 7.059-10.587 7.059-6.93 0-11.652-4.184-11.652-11.325 0-6.523 5.215-11.199 11.488-11.199 7.633 0 11.45 5.746 11.121 12.961Zm8.657-3.894c-.121-2.38-1.801-4.348-4.145-4.348-2.46 0-4.101 1.765-4.512 4.348Zm-16.395 4c0 6.277-3.219 9.453-9.812 9.453C2.395 40.723 0 36.445 0 30.207v-1.215h6.867v2.59c0 1.844 1.02 2.863 2.824 2.863 1.688 0 2.63-.941 2.63-3.648v-18.68h7.3Zm72.895-7.575h-4.348v9.348c0 1.695.996 2.07 2.527 2.07.578 0 1.2-.082 1.82-.082v5.172c-1.285.043-2.566.207-3.85.207-6 0-7.528-1.738-7.528-7.574v-9.14h-3.563v-4.723h3.563v-6.746h7.031v6.746h4.348Zm-35.418 0h-4.344v9.348c0 1.695.992 2.07 2.523 2.07.582 0 1.2-.082 1.82-.082v5.172c-1.28.043-2.566.207-3.847.207-6 0-7.531-1.738-7.531-7.574v-9.14H42.16v-4.723h3.559v-6.746h7.035v6.746h4.344z" style="stroke:none;fill-rule:nonzero;fill:#171413;fill-opacity:1"/><g clip-path="url(#a)"><path d="m154.977-.004.91 14.563H176l-19.266 12.746 4.25 21.023L144.61 34.11l-22.047 11.446 13.149-18.02-12.469-12.976h20.176z" style="stroke:none;fill-rule:nonzero;fill:#f1471d;fill-opacity:1"/></g></svg>