<svg xmlns="http://www.w3.org/2000/svg" width="176pt" height="59pt" viewBox="0 0 176 59"><path d="M0 0h176v59H0z" style="fill:#b2db19;fill-opacity:1;stroke:none"/><path d="M29.984 42.691V14.195h6.793v28.496Zm0-31.07V4.828h6.793v6.793zM46.371 42.691h-6.797V14.195h6.574v5.258c2.137-3.062 5.153-5.86 9.262-5.86.766 0 1.153.055 1.59.165v6.41c-.55-.105-1.59-.105-1.973-.105-3.129 0-8.656 2.902-8.656 8.601zM65.965 37.11h4.441c4.75 0 8.16-1.547 8.16-5.63 0-2.687-1.441-5.734-7.695-5.734h-4.906Zm0-16.837h5.015c6.454 0 7.02-3.875 7.02-5.117 0-4.75-4.91-4.75-6.402-4.75h-5.633Zm-7.13 22.418V4.828H70.98c3.192 0 14.043 0 14.043 9.246 0 6.356-4.957 8.059-7.488 8.934 2.89.777 8.367 2.328 8.367 9.293 0 5.742-4.336 10.39-14.05 10.39zM97.754 30.523c-2.848 1.043-3.836 2.356-3.836 4.383 0 2.852 2.469 3.457 3.676 3.457 1.094 0 3.445-.386 6.191-3.18v-7.011c-.387.328-.55.383-1.754.82Zm7.348 12.168-.774-3.015c-1.637 1.48-4.328 3.613-8.598 3.613-5.101 0-8.714-3.281-8.714-7.832 0-2.96 1.043-6.41 7.34-8.55l8.167-2.739c1.153-.383 1.262-.441 1.262-1.258v-1.148c0-2.414-2.195-3.13-4.82-3.13-4.496 0-8.606 2.743-10.195 3.837V16.55c1.808-1.04 5.312-2.957 11.23-2.957 8.824 0 10.578 4.437 10.578 9.863v19.234zM14.367 30.523c-2.847 1.043-3.836 2.356-3.836 4.383 0 2.852 2.465 3.457 3.668 3.457 1.098 0 3.453-.386 6.196-3.18v-7.011c-.383.328-.551.383-1.754.82Zm7.336 12.168-.762-3.015c-1.64 1.48-4.332 3.613-8.601 3.613-5.094 0-8.715-3.281-8.715-7.832 0-2.96 1.04-6.41 7.348-8.55l8.16-2.739c1.152-.383 1.262-.441 1.262-1.258v-1.148c0-2.414-2.192-3.13-4.82-3.13-4.497 0-8.606 2.743-10.196 3.837V16.55c1.809-1.04 5.316-2.957 11.23-2.957 8.825 0 10.578 4.437 10.578 9.863v19.234zM113.375 42.691h6.797V4.828h-6.797zM125.82 19.348h-4.14v-5.153h4.14V4.828h6.797v9.367h5.153v5.153h-5.153v14.41c0 2.086.278 4 3.399 4 .824 0 1.422-.11 1.968-.215v5.148c-.87.11-1.804.223-3.175.223-7.563 0-8.989-3.785-8.989-8.77zM140.395 42.691V14.195h6.796v28.496Zm0-31.066V4.828h6.796v6.797zM171.824 21.867c-1.37-1.152-3.558-2.96-7.394-2.96-5.809 0-8.223 4.878-8.223 9.542 0 1.965.55 9.528 8.004 9.528 3.89 0 6.41-1.754 8.164-3.008v6.023c-1.367.719-4.437 2.297-9.262 2.297-9.699 0-13.754-7.281-13.754-14.84 0-7.898 4.442-14.855 14.086-14.855 4.657 0 7.176 1.418 8.38 2.086z" style="stroke:none;fill-rule:evenodd;fill:#10234e;fill-opacity:1"/></svg>