<svg xmlns="http://www.w3.org/2000/svg" width="179.613" height="59pt" viewBox="0 0 134.71 59"><defs><clipPath id="a"><path d="M83 28h51.71v24H83Zm0 0"/></clipPath></defs><g clip-path="url(#a)"><path d="M94.82 51.004a1 1 0 0 0 .278-.363c.062-.2.093-.407.082-.614V32.898h5.007q.459.01.899-.109a.9.9 0 0 0 .535-.465q.27-.587.352-1.234c.07-.414.113-.836.12-1.258a2 2 0 0 0-.066-.602.63.63 0 0 0-.265-.351 1.1 1.1 0 0 0-.348-.121 3.7 3.7 0 0 0-.66-.04H85.168a3.2 3.2 0 0 0-.898.106.92.92 0 0 0-.563.465 3.6 3.6 0 0 0-.352 1.082q-.124.69-.125 1.39.006.32.098.626a.62.62 0 0 0 .274.347c.316.137.66.192 1.003.164h5.575v17.118a1.14 1.14 0 0 0 .375.984q.457.346 2.152.348c1.129 0 1.828-.114 2.11-.336Zm24.54.113a7.7 7.7 0 0 0 2.812-1.64 6.36 6.36 0 0 0 1.64-2.465 9.2 9.2 0 0 0 .52-3.121V29.957a1.18 1.18 0 0 0-.352-.988q-.494-.346-2.113-.348-1.622 0-2.148.348a.8.8 0 0 0-.293.351 1.9 1.9 0 0 0-.114.637v13.871a5.3 5.3 0 0 1-.285 1.688 2.64 2.64 0 0 1-1.257 1.43 5.1 5.1 0 0 1-2.555.562 6 6 0 0 1-1.88-.266 3.3 3.3 0 0 1-1.272-.75 2.9 2.9 0 0 1-.731-1.168 4.6 4.6 0 0 1-.23-1.504V29.957a1.19 1.19 0 0 0-.348-.988c-.332-.23-1.035-.348-2.117-.348q-1.619 0-2.149.348a.8.8 0 0 0-.293.351 1.9 1.9 0 0 0-.066.637v13.926a9.1 9.1 0 0 0 .516 3.12c.335.946.89 1.798 1.62 2.49a7.6 7.6 0 0 0 2.813 1.62c2.7.785 5.567.785 8.27 0Zm14.972-.113c.125-.098.223-.223.29-.363q.1-.302.089-.614v-20.07a1.8 1.8 0 0 0-.09-.625.9.9 0 0 0-.289-.352q-.457-.346-2.113-.347-1.663.001-2.149.347a.9.9 0 0 0-.289.352q-.094.301-.07.625v20.082c-.04.36.09.715.348.973.3.23 1.02.347 2.148.347q1.692.001 2.125-.355" style="stroke:none;fill-rule:nonzero;fill:#d61e25;fill-opacity:1"/></g><path d="M3.48 16.43h17.547c1.735 0 3.016.562 3.52 2.988.562 2.719.351 4.61-2.719 4.82l-5.515.395c4.062 25.597 27.746 33.945 40.644 6.363 2.137-4.562 2.813-5.394 5.168-4.816 3.168.789 3.602 2.43 2.082 7.015-11.133 34-48.61 37.407-55.96-7.98l-4.462.316C.145 25.793 0 22.72 0 21.031c-.012-3.39 1.242-4.601 3.48-4.601M67.238 0a6.504 6.504 0 0 1 0 13.008c-3.59 0-6.5-2.914-6.5-6.504A6.5 6.5 0 0 1 67.238 0" style="stroke:none;fill-rule:nonzero;fill:#d61e25;fill-opacity:1"/></svg>