<svg xmlns="http://www.w3.org/2000/svg" width="176pt" height="39.8" viewBox="0 0 176 29.85"><defs><clipPath id="a"><path d="M42 1h21v28.852H42Zm0 0"/></clipPath></defs><path d="M2.863 14.313c0 1.218-.02 2.359.012 3.496.012.285.145.605.316.832.286.375.618.722.985 1.02.789.628 1.594.57 2.148-.102.278-.336.535-.723.68-1.13.543-1.55.469-3.14-.066-4.656-.512-1.453-1.793-1.824-3.016-.687-.402.375-.723.832-1.059 1.226M0 4.512c.91-.578 1.832-.403 2.863-.114v6.551c.438.04.559-.261.766-.426 1.496-1.195 3.258-1.332 4.766-.183.664.504 1.09 1.215 1.347 1.98.242.703.34 1.457.48 2.192.075.383.141.77.15 1.156.026 1.602-.192 3.172-.786 4.664-.348.867-.95 1.543-1.734 2.09-1.157.808-3.293.71-4.332-.399-.266-.28-.512-.582-.77-.87a3 3 0 0 0-.176.074c-.043.39-.09.78-.136 1.21-.817.524-1.622.446-2.438.008z" style="stroke:none;fill-rule:nonzero;fill:#7996d4;fill-opacity:1"/><path d="M176 20.266c-.05.066-.121.125-.145.199-.472 1.484-1.597 2.191-3.03 2.43-1.227.207-2.45.066-3.59-.5-.837-.418-1.04-1.258-.45-2.165.254.125.531.23.781.383.836.508 1.727.746 2.711.66 1.094-.097 1.688-.671 1.758-1.746.04-.574-.156-1.062-.633-1.375-.441-.289-.922-.52-1.394-.75-.88-.422-1.801-.754-2.488-1.5-1.247-1.359-.977-3.875.562-4.886 1.512-1 3.09-1.008 4.688-.239.777.371.925 1.024.453 1.965-.211-.078-.434-.156-.657-.238-.468-.176-.921-.426-1.406-.508-.45-.078-.937-.027-1.39.055-.598.113-1 .492-1.114 1.113-.125.684.04 1.297.625 1.703.453.317.965.551 1.457.813.172.09.367.14.547.215 1.223.5 2.274 1.187 2.715 2.527z" style="stroke:none;fill-rule:nonzero;fill:#a3a2a2;fill-opacity:1"/><path d="M91.535 14.652c-.32-.363-.605-.746-.945-1.066-1.23-1.168-2.66-.867-3.246.71-.586 1.575-.535 3.173-.004 4.759.082.258.25.496.414.718.262.348.629.547 1.062.61 1.028.14 2.63-1.149 2.715-2.188.004-.054.004-.113.004-.168zm.024-3.082V5.176c.98-.48 1.882-.395 2.867-.063.031.258.09.5.09.739.004 5.382.004 10.77 0 16.156 0 .191-.032.383-.055.633-.77.504-1.555.316-2.406.129l-.098-1.497c-.41.352-.754.657-1.11.942-.714.578-1.511.898-2.452.926-1.657.039-2.872-.672-3.594-2.121a7.5 7.5 0 0 1-.707-2.215c-.285-1.887-.285-3.774.367-5.614.332-.945.863-1.75 1.672-2.351 1.215-.899 3.297-.992 4.465-.016.27.227.558.434.96.746" style="stroke:none;fill-rule:nonzero;fill:#27439a;fill-opacity:1"/><path d="M140.727 20.145c.835-3.149 1.675-6.293 2.511-9.434.625-.363 1.219-.438 1.918-.004-.07.348-.12.723-.222 1.086q-1.466 5.104-2.938 10.207c-.195.68-.293.781-.976.777-.543 0-1.122.149-1.696-.285-.73-2.719-1.484-5.508-2.234-8.293q-.064-.001-.13.004c-.065.203-.14.402-.19.61-.602 2.378-1.196 4.757-1.797 7.132-.188.739-.286.82-1.016.84-.441.012-.887 0-1.414 0-.164-.351-.352-.66-.445-.992q-1.4-4.859-2.77-9.73c-.125-.446-.207-.903-.305-1.344.692-.461 1.286-.403 1.993-.04.843 3.11 1.703 6.274 2.558 9.442 1.035-3.125 1.711-6.312 2.555-9.422.617-.422 1.2-.344 1.879-.023.84 3.125 1.691 6.308 2.547 9.492z" style="stroke:none;fill-rule:nonzero;fill:#a3a2a2;fill-opacity:1"/><path d="M33.582 14.79c.895.198 3.484.167 4.066-.036.235-1.719-.355-2.516-2.093-2.824-1.508.425-2.106 1.277-1.973 2.86m.016 2.312c-.203.976.03 1.718.472 2.378.457.676 1.207.88 1.973.938.902.07 1.77-.125 2.613-.453.356-.14.723-.258 1.024-.363.433.218.375.55.383.847.05 1.559-.106 1.754-1.59 2.153-1.2.316-2.418.496-3.641.285-2.402-.414-3.656-1.711-4.133-4.2-.344-1.777-.304-3.55.184-5.296.324-1.157.941-2.145 1.906-2.871 1.125-.848 2.387-1.106 3.79-.899 1.429.215 2.5.906 3.222 2.137.46.781.636 1.668.738 2.55.07.606.05 1.227.012 1.84-.02.286-.18.563-.297.918-2.238.051-4.43-.003-6.656.036M25.36 9.984c.972-.191 1.812-.226 2.722.024.168 1.375.059 2.734.078 4.094.02 1.394.004 2.793.004 4.187v4.035c-.785.559-1.266.59-2.344.156-.047-.183-.12-.418-.16-.656-.035-.238-.027-.48-.043-.734-.48.406-.91.797-1.37 1.148-1.286.969-2.993.973-4.294.043-.527-.37-.86-.898-1.055-1.476-.222-.649-.43-1.344-.445-2.024-.05-2.68-.023-5.363-.023-8.047 0-.214.039-.433.058-.629.719-.34 1.703-.367 2.711-.062.028.285.082.605.082.93.008 2.12 0 4.246.012 6.367.004.387.062.777.148 1.156.243 1.067.43 1.246 1.504 1.543 1.024-.105 1.602-.852 2.153-1.582.18-.238.199-.633.203-.957.015-2.18.008-4.355.012-6.535 0-.3.027-.602.046-.98" style="stroke:none;fill-rule:nonzero;fill:#7996d4;fill-opacity:1"/><path d="M107.18 8.652c-.075-.007-.145-.02-.22-.027-.835 2.61-1.675 5.219-2.515 7.84.98.191 4.657.16 5.25-.04-.84-2.59-1.675-5.183-2.515-7.773m6.558 13.973c-.652.273-1.277.176-1.949.078-.68-1.32-.906-2.805-1.45-4.14-.644-.184-5.394-.227-6.405-.06-.676 1.317-.797 2.868-1.516 4.224h-1.61c-.363-.372-.18-.692-.078-1 .551-1.668 1.114-3.336 1.668-5.004q1.623-4.887 3.25-9.774c.07-.21.16-.414.254-.664.813-.394 1.633-.363 2.422-.078.469.875 5.371 15.711 5.414 16.418" style="stroke:none;fill-rule:nonzero;fill:#a3a1a2;fill-opacity:1"/><path d="M153.355 17.168c-1.226-.156-2.363-.133-3.449.27-1.172.433-1.668 1.914-1.039 3 .094.164.242.3.383.433.664.629 2.277.559 3.027-.121.391-.352.746-.738 1.078-1.07zm-.015-1.586c0-.746.078-1.363-.016-1.957-.183-1.16-1.172-1.746-2.515-1.648-.942.07-1.801.324-2.579.867-.199.14-.44.219-.66.32-.648-.351-.328-.89-.375-1.3.473-.833 1.282-1.044 2.043-1.29 1.102-.351 2.23-.469 3.375-.18 1.219.305 2.153.934 2.473 2.215.144.59.273 1.204.281 1.809.031 2.48.016 4.965.012 7.445 0 .246-.031.492-.05.727-.524.285-.997.246-1.548.05-.043-.347-.086-.699-.14-1.163-.313.226-.57.414-.825.605-1.171.895-2.476 1.098-3.875.7-1.246-.36-2.386-1.552-2.285-3.126.028-.418.016-.84.106-1.246.312-1.433 1.39-2.117 2.68-2.469.824-.222 1.699-.261 2.554-.351.406-.043.824-.008 1.344-.008M161.871 27.16c-.75.39-1.375.434-2.09-.043.5-1.402 1-2.808 1.473-4.14-.73-2.11-1.438-4.133-2.137-6.16-.687-2-1.375-3.997-2.062-6.004.699-.536 1.343-.493 2.101-.118 1.008 3.059 2.035 6.172 3.063 9.285 1.222-3.066 2.11-6.207 3.144-9.289.64-.336 1.235-.425 1.867-.011.055.601-.187 1.136-.367 1.683a725 725 0 0 1-1.636 4.918c-.446 1.317-.907 2.633-1.348 3.953s-.863 2.649-1.309 3.97c-.218.655-.465 1.308-.699 1.956" style="stroke:none;fill-rule:nonzero;fill:#a3a2a2;fill-opacity:1"/><path d="M15.5 4.547c.156.996.11 17.293-.059 17.926-.648.39-1.37.363-2.09.238-.535-.094-.73-.387-.761-.941-.012-.165-.004-.332-.004-.5V5.688c0-1.387.14-1.536 1.543-1.516.48.008 1.027-.152 1.371.375" style="stroke:none;fill-rule:nonzero;fill:#7996d4;fill-opacity:1"/><path d="M78.8 12.05c.446-.484.79-.882 1.157-1.253.676-.684 1.496-.805 2.395-.567.296.075.558.235.562.54.012.777-.023 1.554-.055 2.332-.004.093-.113.18-.203.32-.27-.059-.535-.121-.8-.176-.52-.105-1.016-.055-1.41.324-.735.703-1.348 1.438-1.31 2.582.067 1.84.02 3.684.02 5.528v.965c-.976.449-1.894.39-2.87.058V10.555c.827-.27 1.609-.332 2.429.074.027.457.05.867.086 1.422M70.29 10.758c.726-.535 2.085-.555 2.897-.043v11.86c-.824.515-2.097.503-2.898-.02z" style="stroke:none;fill-rule:nonzero;fill:#27439a;fill-opacity:1"/><path d="M123.547 22.605c-.664.254-1.176.227-1.758.063-.039-.203-.11-.41-.11-.621-.007-3.656-.003-7.317 0-10.973 0-.136.032-.27.051-.41.504-.406 1-.289 1.59-.02l.094 1.676c.45-.48.836-.902 1.234-1.316.711-.738 1.551-.914 2.528-.617.43.133.683.375.699.824.012.437.098.894-.305 1.332-.203-.05-.441-.086-.668-.172-.742-.281-1.39-.105-1.89.473-.473.547-.91 1.129-1.285 1.746-.165.258-.172.637-.172.965-.016 2.039-.008 4.074-.008 6.113z" style="stroke:none;fill-rule:nonzero;fill:#a4a2a2;fill-opacity:1"/><path d="M118 10.738c.008 3.977.004 7.926.004 11.856-.692.273-1.258.234-1.89.074-.04-.211-.106-.422-.106-.633-.008-3.605-.004-7.207 0-10.808 0-.165.043-.325.066-.497.602-.43 1.196-.39 1.926.008" style="stroke:none;fill-rule:nonzero;fill:#a4a2a3;fill-opacity:1"/><path d="M73.457 6.969c-.02.218-.02.441-.059.66-.09.476-.351.797-.843.926a3.23 3.23 0 0 1-1.649-.008c-.43-.11-.722-.387-.765-.79-.059-.546-.079-1.116.023-1.652.121-.64.86-.957 1.781-.882.95.078 1.34.355 1.461 1.074.04.219.035.445.051.672" style="stroke:none;fill-rule:nonzero;fill:#27439a;fill-opacity:1"/><path d="M115.816 6.906c.012-1.074.996-1.64 1.918-1.078.188.113.34.367.403.586.074.258.054.555.035.828-.047.668-.32.918-1.012.957-1.031.063-1.351-.25-1.344-1.293" style="stroke:none;fill-rule:nonzero;fill:#a4a2a3;fill-opacity:1"/><g clip-path="url(#a)"><path d="M55.348 29.852c-.118-.02-.235-.047-.356-.051a9 9 0 0 1-1.414-.153c-.39-.07-.781-.14-1.168-.234a10.5 10.5 0 0 1-2.105-.75q-.727-.352-1.407-.793a14 14 0 0 1-1.933-1.473 15.6 15.6 0 0 1-1.582-1.668 15.3 15.3 0 0 1-1.535-2.296c-.258-.48-.493-.97-.692-1.477a15 15 0 0 1-.492-1.398 14 14 0 0 1-.422-1.856 15 15 0 0 1-.129-1.187c-.031-.418-.05-.844-.047-1.262q0-.668.059-1.324c.043-.453.117-.907.188-1.356.097-.652.261-1.293.453-1.922q.312-1.042.765-2.027.363-.786.809-1.531c.351-.57.73-1.121 1.152-1.645.664-.816 1.41-1.55 2.266-2.168a9 9 0 0 1 1.754-1.004 6.7 6.7 0 0 1 1.644-.465 5.3 5.3 0 0 1 1.164-.03 4.6 4.6 0 0 1 2.239.792 5.8 5.8 0 0 1 1.574 1.598c.453.668.824 1.371 1.062 2.144.22.704.278 1.426.2 2.157q-.054.527-.13 1.054c-.035.25-.09.496-.132.746l-.188 1.086c-.015.102-.035.2-.05.309.042.008.074.016.109.02 1.078.035 2.059.378 2.969.953a7 7 0 0 1 1.957 1.828 5.7 5.7 0 0 1 .898 1.832 4.9 4.9 0 0 1 .145 1.719 6 6 0 0 1-.153.93 4.5 4.5 0 0 1-.879 1.757c-.433.535-.972.941-1.574 1.27a7.4 7.4 0 0 1-1.55.625 9 9 0 0 1-1.176.261c-.395.047-.79.11-1.184.153-.23.027-.465.035-.7.039-.366.004-.737.011-1.105 0a22 22 0 0 1-1.132-.075 19 19 0 0 1-1.141-.132 12 12 0 0 1-1.172-.22 34 34 0 0 1-1.637-.46c-.336-.098-.601-.309-.812-.613.039.008.066.008.086.015.246.086.492.149.75.18.25.035.5.074.75.102.148.02.297.023.449.035.531.043 1.066.039 1.602.023.394-.012.796-.039 1.19-.086a28 28 0 0 0 1.509-.222 11 11 0 0 0 1.87-.493c.77-.273 1.505-.629 2.145-1.144a4.1 4.1 0 0 0 1.32-1.797c.137-.371.176-.758.137-1.145a2.4 2.4 0 0 0-.375-1.035 3.9 3.9 0 0 0-1.02-1.066 6.3 6.3 0 0 0-1.702-.871 8.6 8.6 0 0 0-1.18-.305 6.8 6.8 0 0 0-1.668-.105 4.4 4.4 0 0 0-1.656.382c.02-.058.031-.101.05-.144.223-.55.45-1.102.669-1.66.21-.54.351-1.098.433-1.672a13 13 0 0 0 .13-1.578c.003-.301.019-.602.023-.903.003-.84-.313-1.546-.88-2.152a2.9 2.9 0 0 0-1.402-.848 2.7 2.7 0 0 0-.968-.078c-.743.07-1.387.38-1.985.809-.73.527-1.328 1.187-1.867 1.906-.426.567-.813 1.16-1.14 1.793a11.713 11.713 0 0 0-1.105 3.176c-.095.488-.161.984-.185 1.484-.011.348-.031.7-.023 1.047.008.32.039.64.07.957q.052.493.13.98c.038.247.097.489.151.727.137.57.313 1.133.524 1.68a13.4 13.4 0 0 0 1.187 2.363q.498.787 1.102 1.504c.406.48.848.934 1.32 1.352.559.496 1.153.933 1.778 1.34q.639.419 1.32.769c.445.23.898.438 1.371.602.422.148.844.285 1.277.398.45.121.907.195 1.367.266 1.137.164 2.278.156 3.418.129.458-.008.91-.036 1.368-.06.347-.019.695-.046 1.066-.073-.32.23-.64.418-.973.586a10 10 0 0 1-2.105.75c-.531.129-1.066.215-1.606.28-.21.028-.425.028-.636.048q-.194.02-.387.05z" style="stroke:none;fill-rule:nonzero;fill:#27439a;fill-opacity:1"/></g><path d="M59.926-.004c.058.02.117.043.18.05.753.09 1.433.364 2.027.845.46.37.797.843 1.027 1.39.16.375.266.77.317 1.176.058.492.07.988.015 1.48-.015.125-.02.254-.039.38-.047.335-.105.667-.144 1.003-.032.246-.036.496-.051.742-.004.032.012.063.02.102.093.008.179.024.265.027a5.2 5.2 0 0 1 1.527.27c.723.234 1.38.59 1.961 1.086.446.383.82.828 1.09 1.351.188.356.32.735.387 1.137.035.207.047.414.055.621.007.383-.102.739-.247 1.086-.265.653-.656 1.223-1.117 1.746a5.8 5.8 0 0 1-1.273 1.102c-.367.234-.758.41-1.184.512-.11.027-.222.039-.336.054q-.007-.01-.015-.027c.074-.106.144-.215.222-.313.336-.425.676-.843 1.008-1.27.215-.276.406-.577.531-.913.094-.246.153-.496.164-.762.024-.535-.136-1.027-.359-1.5a3.3 3.3 0 0 0-.754-1.062c-.371-.34-.8-.594-1.266-.79a6.4 6.4 0 0 0-.996-.316 7 7 0 0 0-1.293-.195c-.367-.02-.738-.024-1.105-.031-.098 0-.195.011-.29.02h-.124c.012-.048.012-.083.023-.11.149-.414.309-.828.45-1.246.132-.395.226-.801.261-1.22.047-.558.043-1.116.02-1.675a6.5 6.5 0 0 0-.262-1.66c-.144-.477-.351-.914-.719-1.262a1.86 1.86 0 0 0-.91-.465c-.43-.09-.86-.054-1.285.016-.43.07-.836.219-1.254.313-.25.058-.504.097-.758.144-.02 0-.039-.004-.078-.004.043-.062.074-.113.113-.16a4 4 0 0 1 1.2-1.02 5 5 0 0 1 1.699-.585c.086-.016.172-.02.258-.036.027-.004.05-.02.078-.03z" style="stroke:none;fill-rule:nonzero;fill:#27439a;fill-opacity:1"/></svg>