<?xml version="1.0" encoding="utf-8"?>
<!-- Generator: Adobe Illustrator 28.0.0, SVG Export Plug-In . SVG Version: 6.00 Build 0)  -->
<svg version="1.1" id="Layer_1" xmlns="http://www.w3.org/2000/svg" xmlns:xlink="http://www.w3.org/1999/xlink" x="0px" y="0px"
	 viewBox="0 0 176 59" style="enable-background:new 0 0 176 59;" xml:space="preserve">
<style type="text/css">
	.st0{fill:#D81E05;}
	.st1{fill:#FFC61E;}
</style>
<g>
	<g>
		<path class="st0" d="M18.4,25.4c-2.4,5.2-6.8,6.8-10,6.8c-4.7,0-9.2-2.9-8.3-8.4l1-7.7C2,10.4,7,8.1,11.8,8.1     c3.1,0,7.1,1.4,7.7,6.3l-6.7,2c-0.1-1.4-1-2-2-2c-1.1,0-2.2,0.6-2.4,2l-1.1,7.4c-0.1,1.2,0.7,2,1.7,2s2.2-0.6,2.9-2L18.4,25.4z"/>
		<path class="st0" d="M20.4,16.6c0.9-5.7,5.9-8.6,10.8-8.6c4.7,0,9,2.9,8.3,8.6L38.4,24c-0.7,5.5-5.9,8.2-10.7,8.2s-9-2.7-8.3-8.2     L20.4,16.6z M27.9,16.5l-1,7.6c-0.1,1.1,0.7,1.7,1.7,1.7s2.1-0.5,2.2-1.7l1-7.6c0.1-1.1-0.9-1.7-1.7-1.7     C29.2,14.7,28,15.5,27.9,16.5z"/>
		<path class="st0" d="M56,8.7L55.1,15c-2-0.7-5.6-0.4-5.9,2.2l-2.1,14.5h-7.6l2-14.6c0.9-6.3,5.1-9,10.7-9C53,8.1,54.1,8.2,56,8.7z     "/>
		<path class="st0" d="M68.5,24.8l3.6,3.7c-3.2,3.2-6.4,3.7-9.2,3.7c-4.7,0-9-3-8.3-8.7l1-6.7c0.9-5.8,5.9-8.9,10.8-8.9     c4.8,0,8.6,2.9,7.7,8.6c-0.9,5.5-6.8,7.7-12.1,6.4C61.6,26.5,66.3,26.8,68.5,24.8z M62.7,18.6c1.9,0.9,4.3,0.2,4.6-2.1     c0.1-1.1-0.4-2.1-1.7-2.1c-1.1,0-2.4,0.7-2.5,2.1L62.7,18.6z"/>
		<path class="st0" d="M76.9,9.9c2.6-1.1,5.8-1.9,8.8-1.9c5.6,0,10,2.4,9.2,8.8l-2.1,15h-7.6L87.3,17c0.2-1.6-0.9-2.1-2-2.1     c-0.5,0-1.1,0.1-1.6,0.2l-2.4,16.7h-7.6L76.9,9.9z"/>
		<path class="st0" d="M114.4,30.2c-3,1.1-6.4,2-9.9,2c-4.8,0-9.2-2.1-8.3-8.4l1.1-7.9c0.7-5.2,5.1-7.8,9.5-7.8c1,0,2,0.1,3,0.5     L111,0h7.7L114.4,30.2z M108.9,14.6c-0.4-0.1-0.9-0.2-1.5-0.2c-1.1,0-2.5,0.6-2.7,2l-1.1,8.1c-0.1,1.4,1,1.9,2.2,1.9     c0.5,0,1-0.1,1.5-0.2L108.9,14.6z"/>
		<path class="st0" d="M118.6,16.6c0.9-5.7,5.9-8.6,10.8-8.6c4.7,0,9,2.9,8.3,8.6l-1,7.3c-0.7,5.5-5.9,8.2-10.7,8.2s-9-2.7-8.3-8.2     L118.6,16.6z M126,16.5l-1,7.6c-0.1,1.1,0.7,1.7,1.7,1.7c1,0,2.1-0.5,2.2-1.7l1-7.6c0.1-1.1-0.9-1.7-1.7-1.7S126.1,15.5,126,16.5z     "/>
		<path class="st0" d="M140.9,9.9c2.6-1.1,5.8-1.9,8.8-1.9c5.6,0,10,2.4,9.2,8.8l-2.1,15h-7.6l2.1-14.9c0.2-1.6-0.9-2.1-2-2.1     c-0.5,0-1.1,0.1-1.6,0.2l-2.4,16.7h-7.6L140.9,9.9z"/>
	</g>
	<g>
		<path class="st1" d="M169.7,17.8c4,0,6.7,3.2,6.2,7.1c-0.6,4-4.2,7.3-8.2,7.3s-6.7-3.2-6.1-7.3C162.2,20.9,165.8,17.8,169.7,17.8z     "/>
	</g>
</g>
</svg>
