<svg xmlns="http://www.w3.org/2000/svg" width="176pt" height="40.9pt" viewBox="0 0 176 40.9"><defs><clipPath id="a"><path d="M0 0h52v40.898H0Zm0 0"/></clipPath><clipPath id="b"><path d="M10 0h2v2h-2Zm0 0"/></clipPath><clipPath id="c"><path d="m0-.004 12.828 40.902h39.129L25.98-.004Zm0 0"/></clipPath><clipPath id="d"><path d="M24 28h14v12.898H24Zm0 0"/></clipPath><clipPath id="e"><path d="m0-.004 12.828 40.902h39.129L25.98-.004Zm0 0"/></clipPath><clipPath id="f"><path d="M9 13h15v15H9Zm0 0"/></clipPath><clipPath id="g"><path d="m0-.004 12.828 40.902h39.129L25.98-.004Zm0 0"/></clipPath><clipPath id="h"><path d="M9 0h14v13H9Zm0 0"/></clipPath><clipPath id="i"><path d="m0-.004 12.828 40.902h39.129L25.98-.004Zm0 0"/></clipPath><clipPath id="j"><path d="M9 28h15v12.898H9Zm0 0"/></clipPath><clipPath id="k"><path d="m0-.004 12.828 40.902h39.129L25.98-.004Zm0 0"/></clipPath><clipPath id="l"><path d="M40 13h11v15H40Zm0 0"/></clipPath><clipPath id="m"><path d="m0-.004 12.828 40.902h39.129L25.98-.004Zm0 0"/></clipPath><clipPath id="n"><path d="M23 0h15v13H23Zm0 0"/></clipPath><clipPath id="o"><path d="m0-.004 12.828 40.902h39.129L25.98-.004Zm0 0"/></clipPath><clipPath id="p"><path d="M40 0h11v13H40Zm0 0"/></clipPath><clipPath id="q"><path d="m0-.004 12.828 40.902h39.129L25.98-.004Zm0 0"/></clipPath><clipPath id="r"><path d="M0 28h9v12.898H0Zm0 0"/></clipPath><clipPath id="s"><path d="m0-.004 12.828 40.902h39.129L25.98-.004Zm0 0"/></clipPath><clipPath id="t"><path d="M0 0h9v13H0Zm0 0"/></clipPath><clipPath id="u"><path d="m0-.004 12.828 40.902h39.129L25.98-.004Zm0 0"/></clipPath><clipPath id="v"><path d="M0 15h2v13H0Zm0 0"/></clipPath><clipPath id="w"><path d="m0-.004 12.828 40.902h39.129L25.98-.004Zm0 0"/></clipPath><clipPath id="x"><path d="M2 15h7v13H2Zm0 0"/></clipPath><clipPath id="y"><path d="m0-.004 12.828 40.902h39.129L25.98-.004Zm0 0"/></clipPath><clipPath id="z"><path d="M38 28h14v9H38Zm0 0"/></clipPath><clipPath id="A"><path d="m0-.004 12.828 40.902h39.129L25.98-.004Zm0 0"/></clipPath><clipPath id="B"><path d="M23 23h15v5H23Zm0 0"/></clipPath><clipPath id="C"><path d="m0-.004 12.828 40.902h39.129L25.98-.004Zm0 0"/></clipPath><clipPath id="D"><path d="M38 21h6v7h-6Zm0 0"/></clipPath><clipPath id="E"><path d="m0-.004 12.828 40.902h39.129L25.98-.004Zm0 0"/></clipPath><clipPath id="F"><path d="M47 21h5v7h-5Zm0 0"/></clipPath><clipPath id="G"><path d="m0-.004 12.828 40.902h39.129L25.98-.004Zm0 0"/></clipPath><clipPath id="H"><path d="M38 0h6v5h-6Zm0 0"/></clipPath><clipPath id="I"><path d="m0-.004 12.828 40.902h39.129L25.98-.004Zm0 0"/></clipPath><clipPath id="J"><path d="M47 0h5v5h-5Zm0 0"/></clipPath><clipPath id="K"><path d="m0-.004 12.828 40.902h39.129L25.98-.004Zm0 0"/></clipPath><clipPath id="L"><path d="M29 16h4v6h-4Zm0 0"/></clipPath><clipPath id="M"><path d="m0-.004 12.828 40.902h39.129L25.98-.004Zm0 0"/></clipPath><clipPath id="N"><path d="M4 0h4v6H4Zm0 0"/></clipPath><clipPath id="O"><path d="m0-.004 12.828 40.902h39.129L25.98-.004Zm0 0"/></clipPath><clipPath id="P"><path d="M14 38h8v2.898h-8Zm0 0"/></clipPath><clipPath id="Q"><path d="m0-.004 12.828 40.902h39.129L25.98-.004Zm0 0"/></clipPath><clipPath id="R"><path d="M0 13h2v3H0Zm0 0"/></clipPath><clipPath id="S"><path d="m0-.004 12.828 40.902h39.129L25.98-.004Zm0 0"/></clipPath><clipPath id="T"><path d="M2 13h7v2H2Zm0 0"/></clipPath><clipPath id="U"><path d="m0-.004 12.828 40.902h39.129L25.98-.004Zm0 0"/></clipPath><clipPath id="V"><path d="M23 4h6v5h-6Zm0 0"/></clipPath><clipPath id="W"><path d="m0-.004 12.828 40.902h39.129L25.98-.004Zm0 0"/></clipPath><clipPath id="X"><path d="M23 0h6v4h-6Zm0 0"/></clipPath><clipPath id="Y"><path d="m0-.004 12.828 40.902h39.129L25.98-.004Zm0 0"/></clipPath><clipPath id="Z"><path d="M44 37h3v3.898h-3Zm0 0"/></clipPath><clipPath id="aa"><path d="m0-.004 12.828 40.902h39.129L25.98-.004Zm0 0"/></clipPath><clipPath id="ab"><path d="M26 0h5v3h-5Zm0 0"/></clipPath><clipPath id="ac"><path d="m0-.004 12.828 40.902h39.129L25.98-.004Zm0 0"/></clipPath><clipPath id="ad"><path d="M31 15h5v3h-5Zm0 0"/></clipPath><clipPath id="ae"><path d="m0-.004 12.828 40.902h39.129L25.98-.004Zm0 0"/></clipPath><clipPath id="af"><path d="M26 15h4v3h-4Zm0 0"/></clipPath><clipPath id="ag"><path d="m0-.004 12.828 40.902h39.129L25.98-.004Zm0 0"/></clipPath><clipPath id="ah"><path d="M45 34h3v4h-3Zm0 0"/></clipPath><clipPath id="ai"><path d="m0-.004 12.828 40.902h39.129L25.98-.004Zm0 0"/></clipPath><clipPath id="aj"><path d="M43 34h3v4h-3Zm0 0"/></clipPath><clipPath id="ak"><path d="m0-.004 12.828 40.902h39.129L25.98-.004Zm0 0"/></clipPath><clipPath id="al"><path d="M41 35h3v3h-3Zm0 0"/></clipPath><clipPath id="am"><path d="m0-.004 12.828 40.902h39.129L25.98-.004Zm0 0"/></clipPath><clipPath id="an"><path d="M47 35h3v3h-3Zm0 0"/></clipPath><clipPath id="ao"><path d="m0-.004 12.828 40.902h39.129L25.98-.004Zm0 0"/></clipPath><clipPath id="ap"><path d="M38 36h3v2h-3Zm0 0"/></clipPath><clipPath id="aq"><path d="m0-.004 12.828 40.902h39.129L25.98-.004Zm0 0"/></clipPath><clipPath id="ar"><path d="M42 38h3v2.898h-3Zm0 0"/></clipPath><clipPath id="as"><path d="m0-.004 12.828 40.902h39.129L25.98-.004Zm0 0"/></clipPath><clipPath id="at"><path d="M50 36h2v2h-2Zm0 0"/></clipPath><clipPath id="au"><path d="m0-.004 12.828 40.902h39.129L25.98-.004Zm0 0"/></clipPath><clipPath id="av"><path d="M46 38h3v2.898h-3Zm0 0"/></clipPath><clipPath id="aw"><path d="m0-.004 12.828 40.902h39.129L25.98-.004Zm0 0"/></clipPath><clipPath id="ax"><path d="M39 35h3v3h-3Zm0 0"/></clipPath><clipPath id="ay"><path d="m0-.004 12.828 40.902h39.129L25.98-.004Zm0 0"/></clipPath><clipPath id="az"><path d="M48 35h4v3h-4Zm0 0"/></clipPath><clipPath id="aA"><path d="m0-.004 12.828 40.902h39.129L25.98-.004Zm0 0"/></clipPath><clipPath id="aB"><path d="M23 27h15v1H23Zm0 0"/></clipPath><clipPath id="aC"><path d="m0-.004 12.828 40.902h39.129L25.98-.004Zm0 0"/></clipPath><clipPath id="aD"><path d="M41 8h8v1h-8Zm0 0"/></clipPath><clipPath id="aE"><path d="m0-.004 12.828 40.902h39.129L25.98-.004Zm0 0"/></clipPath><clipPath id="aF"><path d="M2 13h7v3H2Zm0 0"/></clipPath><clipPath id="aG"><path d="m0-.004 12.828 40.902h39.129L25.98-.004Zm0 0"/></clipPath><clipPath id="aH"><path d="M24 34h1v6.898h-1Zm0 0"/></clipPath><clipPath id="aI"><path d="m0-.004 12.828 40.902h39.129L25.98-.004Zm0 0"/></clipPath><clipPath id="aJ"><path d="M0 14h2v2H0Zm0 0"/></clipPath><clipPath id="aK"><path d="m0-.004 12.828 40.902h39.129L25.98-.004Zm0 0"/></clipPath><clipPath id="aL"><path d="M2 15h7v1H2Zm0 0"/></clipPath><clipPath id="aM"><path d="m0-.004 12.828 40.902h39.129L25.98-.004Zm0 0"/></clipPath><clipPath id="aN"><path d="M39 35h3v2h-3Zm0 0"/></clipPath><clipPath id="aO"><path d="m0-.004 12.828 40.902h39.129L25.98-.004Zm0 0"/></clipPath><clipPath id="aP"><path d="M45 34h3v2h-3Zm0 0"/></clipPath><clipPath id="aQ"><path d="m0-.004 12.828 40.902h39.129L25.98-.004Zm0 0"/></clipPath><clipPath id="aR"><path d="M42 34h4v2h-4Zm0 0"/></clipPath><clipPath id="aS"><path d="m0-.004 12.828 40.902h39.129L25.98-.004Zm0 0"/></clipPath><clipPath id="aT"><path d="M49 35h3v2h-3Zm0 0"/></clipPath><clipPath id="aU"><path d="m0-.004 12.828 40.902h39.129L25.98-.004Zm0 0"/></clipPath><clipPath id="aV"><path d="M5 33h1v1H5Zm0 0"/></clipPath><clipPath id="aW"><path d="m0-.004 12.828 40.902h39.129L25.98-.004Zm0 0"/></clipPath><clipPath id="aX"><path d="M4 33h1v1H4Zm0 0"/></clipPath><clipPath id="aY"><path d="m0-.004 12.828 40.902h39.129L25.98-.004Zm0 0"/></clipPath><clipPath id="aZ"><path d="M7 33h2v1H7Zm0 0"/></clipPath><clipPath id="ba"><path d="m0-.004 12.828 40.902h39.129L25.98-.004Zm0 0"/></clipPath><clipPath id="bb"><path d="M6 33h2v1H6Zm0 0"/></clipPath><clipPath id="bc"><path d="m0-.004 12.828 40.902h39.129L25.98-.004Zm0 0"/></clipPath><clipPath id="bd"><path d="M38 36h2v1h-2Zm0 0"/></clipPath><clipPath id="be"><path d="m0-.004 12.828 40.902h39.129L25.98-.004Zm0 0"/></clipPath><clipPath id="bf"><path d="M41 35h2v1h-2Zm0 0"/></clipPath><clipPath id="bg"><path d="m0-.004 12.828 40.902h39.129L25.98-.004Zm0 0"/></clipPath><clipPath id="bh"><path d="M49 35h2v1h-2Zm0 0"/></clipPath><clipPath id="bi"><path d="m0-.004 12.828 40.902h39.129L25.98-.004Zm0 0"/></clipPath><clipPath id="bj"><path d="M16 4h1v1h-1Zm0 0"/></clipPath><clipPath id="bk"><path d="m0-.004 12.828 40.902h39.129L25.98-.004Zm0 0"/></clipPath><clipPath id="bl"><path d="M47 34h2v2h-2Zm0 0"/></clipPath><clipPath id="bm"><path d="m0-.004 12.828 40.902h39.129L25.98-.004Zm0 0"/></clipPath><clipPath id="bn"><path d="M51 32h1v2h-1Zm0 0"/></clipPath><clipPath id="bo"><path d="m0-.004 12.828 40.902h39.129L25.98-.004Zm0 0"/></clipPath><clipPath id="bp"><path d="M48 35h1v1h-1Zm0 0"/></clipPath><clipPath id="bq"><path d="m0-.004 12.828 40.902h39.129L25.98-.004Zm0 0"/></clipPath><clipPath id="br"><path d="M45 34h1v1h-1Zm0 0"/></clipPath><clipPath id="bs"><path d="m0-.004 12.828 40.902h39.129L25.98-.004Zm0 0"/></clipPath><clipPath id="bt"><path d="M38 36h1v1h-1Zm0 0"/></clipPath><clipPath id="bu"><path d="m0-.004 12.828 40.902h39.129L25.98-.004Zm0 0"/></clipPath><clipPath id="bv"><path d="M15 23h5v3h-5Zm0 0"/></clipPath><clipPath id="bw"><path d="m0-.004 12.828 40.902h39.129L25.98-.004Zm0 0"/></clipPath><clipPath id="bx"><path d="M17 18h1v5h-1Zm0 0"/></clipPath><clipPath id="by"><path d="m0-.004 12.828 40.902h39.129L25.98-.004Zm0 0"/></clipPath><clipPath id="bz"><path d="M13 7h6v4h-6Zm0 0"/></clipPath><clipPath id="bA"><path d="m0-.004 12.828 40.902h39.129L25.98-.004Zm0 0"/></clipPath><clipPath id="bB"><path d="M13 31h2v3h-2Zm0 0"/></clipPath><clipPath id="bC"><path d="m0-.004 12.828 40.902h39.129L25.98-.004Zm0 0"/></clipPath><clipPath id="bD"><path d="M44 20h3v2h-3Zm0 0"/></clipPath><clipPath id="bE"><path d="m0-.004 12.828 40.902h39.129L25.98-.004Zm0 0"/></clipPath><clipPath id="bF"><path d="M30 6h6v5h-6Zm0 0"/></clipPath><clipPath id="bG"><path d="m0-.004 12.828 40.902h39.129L25.98-.004Zm0 0"/></clipPath><clipPath id="bH"><path d="M47 9h2v3h-2Zm0 0"/></clipPath><clipPath id="bI"><path d="m0-.004 12.828 40.902h39.129L25.98-.004Zm0 0"/></clipPath><clipPath id="bJ"><path d="M42 9h2v3h-2Zm0 0"/></clipPath><clipPath id="bK"><path d="m0-.004 12.828 40.902h39.129L25.98-.004Zm0 0"/></clipPath><clipPath id="bL"><path d="M48 8h2v1h-2Zm0 0"/></clipPath><clipPath id="bM"><path d="m0-.004 12.828 40.902h39.129L25.98-.004Zm0 0"/></clipPath><clipPath id="bN"><path d="M0 39h4v1.898H0Zm0 0"/></clipPath><clipPath id="bO"><path d="m0-.004 12.828 40.902h39.129L25.98-.004Zm0 0"/></clipPath><clipPath id="bP"><path d="M1 37h1v2H1Zm0 0"/></clipPath><clipPath id="bQ"><path d="m0-.004 12.828 40.902h39.129L25.98-.004Zm0 0"/></clipPath><clipPath id="bR"><path d="M1 35h1v2H1Zm0 0"/></clipPath><clipPath id="bS"><path d="m0-.004 12.828 40.902h39.129L25.98-.004Zm0 0"/></clipPath><clipPath id="bT"><path d="M1 33h1v2H1Zm0 0"/></clipPath><clipPath id="bU"><path d="m0-.004 12.828 40.902h39.129L25.98-.004Zm0 0"/></clipPath><clipPath id="bV"><path d="M1 30h1v2H1Zm0 0"/></clipPath><clipPath id="bW"><path d="m0-.004 12.828 40.902h39.129L25.98-.004Zm0 0"/></clipPath><clipPath id="bX"><path d="M3 7h3v4H3Zm0 0"/></clipPath><clipPath id="bY"><path d="m0-.004 12.828 40.902h39.129L25.98-.004Zm0 0"/></clipPath><clipPath id="bZ"><path d="M0 6h2v2H0Zm0 0"/></clipPath><clipPath id="ca"><path d="m0-.004 12.828 40.902h39.129L25.98-.004Zm0 0"/></clipPath><clipPath id="cb"><path d="M1 8h3v3H1Zm0 0"/></clipPath><clipPath id="cc"><path d="m0-.004 12.828 40.902h39.129L25.98-.004Zm0 0"/></clipPath><clipPath id="cd"><path d="M0 8h2v3H0Zm0 0"/></clipPath><clipPath id="ce"><path d="m0-.004 12.828 40.902h39.129L25.98-.004Zm0 0"/></clipPath><clipPath id="cf"><path d="M1 6h3v3H1Zm0 0"/></clipPath><clipPath id="cg"><path d="m0-.004 12.828 40.902h39.129L25.98-.004Zm0 0"/></clipPath><clipPath id="ch"><path d="M3 6h2v1H3Zm0 0"/></clipPath><clipPath id="ci"><path d="m0-.004 12.828 40.902h39.129L25.98-.004Zm0 0"/></clipPath><clipPath id="cj"><path d="M1 7h1v3H1Zm0 0"/></clipPath><clipPath id="ck"><path d="m0-.004 12.828 40.902h39.129L25.98-.004Zm0 0"/></clipPath><clipPath id="cl"><path d="M4 6h1v2H4Zm0 0"/></clipPath><clipPath id="cm"><path d="m0-.004 12.828 40.902h39.129L25.98-.004Zm0 0"/></clipPath><clipPath id="cn"><path d="M3 10h1v1H3Zm0 0"/></clipPath><clipPath id="co"><path d="m0-.004 12.828 40.902h39.129L25.98-.004Zm0 0"/></clipPath><clipPath id="cp"><path d="M1 8h1v1H1Zm0 0"/></clipPath><clipPath id="cq"><path d="m0-.004 12.828 40.902h39.129L25.98-.004Zm0 0"/></clipPath><clipPath id="cr"><path d="M0 24h1v2H0Zm0 0"/></clipPath><clipPath id="cs"><path d="m0-.004 12.828 40.902h39.129L25.98-.004Zm0 0"/></clipPath><clipPath id="ct"><path d="M48 35h2v1h-2Zm0 0"/></clipPath><clipPath id="cu"><path d="m0-.004 12.828 40.902h39.129L25.98-.004Zm0 0"/></clipPath><clipPath id="cv"><path d="M48 35h1v1h-1Zm0 0"/></clipPath><clipPath id="cw"><path d="m0-.004 12.828 40.902h39.129L25.98-.004Zm0 0"/></clipPath><clipPath id="cx"><path d="M49 35h1v1h-1Zm0 0"/></clipPath><clipPath id="cy"><path d="m0-.004 12.828 40.902h39.129L25.98-.004Zm0 0"/></clipPath><clipPath id="cz"><path d="M41 35h1v1h-1Zm0 0"/></clipPath><clipPath id="cA"><path d="m0-.004 12.828 40.902h39.129L25.98-.004Zm0 0"/></clipPath><clipPath id="cB"><path d="M33 16h2v1h-2Zm0 0"/></clipPath><clipPath id="cC"><path d="m0-.004 12.828 40.902h39.129L25.98-.004Zm0 0"/></clipPath><clipPath id="cD"><path d="M27 16h2v1h-2Zm0 0"/></clipPath><clipPath id="cE"><path d="m0-.004 12.828 40.902h39.129L25.98-.004Zm0 0"/></clipPath><clipPath id="cF"><path d="M42 39h2v1h-2Zm0 0"/></clipPath><clipPath id="cG"><path d="m0-.004 12.828 40.902h39.129L25.98-.004Zm0 0"/></clipPath><clipPath id="cH"><path d="M47 39h1v1h-1Zm0 0"/></clipPath><clipPath id="cI"><path d="m0-.004 12.828 40.902h39.129L25.98-.004Zm0 0"/></clipPath><clipPath id="cJ"><path d="M18 18h2v2h-2Zm0 0"/></clipPath><clipPath id="cK"><path d="m0-.004 12.828 40.902h39.129L25.98-.004Zm0 0"/></clipPath><clipPath id="cL"><path d="M14 18h2v2h-2Zm0 0"/></clipPath><clipPath id="cM"><path d="m0-.004 12.828 40.902h39.129L25.98-.004Zm0 0"/></clipPath><clipPath id="cN"><path d="M0 40h3v.898H0Zm0 0"/></clipPath><clipPath id="cO"><path d="m0-.004 12.828 40.902h39.129L25.98-.004Zm0 0"/></clipPath><clipPath id="cP"><path d="M0 6h2v5H0Zm0 0"/></clipPath><clipPath id="cQ"><path d="m0-.004 12.828 40.902h39.129L25.98-.004Zm0 0"/></clipPath><clipPath id="cR"><path d="M1 6h5v5H1Zm0 0"/></clipPath><clipPath id="cS"><path d="m0-.004 12.828 40.902h39.129L25.98-.004Zm0 0"/></clipPath><clipPath id="cT"><path d="M1 8h1v1H1Zm0 0"/></clipPath><clipPath id="cU"><path d="m0-.004 12.828 40.902h39.129L25.98-.004Zm0 0"/></clipPath><clipPath id="cV"><path d="M0 7h1v3H0Zm0 0"/></clipPath><clipPath id="cW"><path d="m0-.004 12.828 40.902h39.129L25.98-.004Zm0 0"/></clipPath><clipPath id="cX"><path d="M0 9h1v1H0Zm0 0"/></clipPath><clipPath id="cY"><path d="m0-.004 12.828 40.902h39.129L25.98-.004Zm0 0"/></clipPath><clipPath id="cZ"><path d="M0 8h1v1H0Zm0 0"/></clipPath><clipPath id="da"><path d="m0-.004 12.828 40.902h39.129L25.98-.004Zm0 0"/></clipPath><clipPath id="db"><path d="M0 9h1v1H0Zm0 0"/></clipPath><clipPath id="dc"><path d="m0-.004 12.828 40.902h39.129L25.98-.004Zm0 0"/></clipPath><clipPath id="dd"><path d="M2 7h3v3H2Zm0 0"/></clipPath><clipPath id="de"><path d="m0-.004 12.828 40.902h39.129L25.98-.004Zm0 0"/></clipPath><clipPath id="df"><path d="M2 7h1v2H2Zm0 0"/></clipPath><clipPath id="dg"><path d="m0-.004 12.828 40.902h39.129L25.98-.004Zm0 0"/></clipPath><clipPath id="dh"><path d="M0 7h1v3H0Zm0 0"/></clipPath><clipPath id="di"><path d="m0-.004 12.828 40.902h39.129L25.98-.004Zm0 0"/></clipPath><clipPath id="dj"><path d="M0 9h1v1H0Zm0 0"/></clipPath><clipPath id="dk"><path d="m0-.004 12.828 40.902h39.129L25.98-.004Zm0 0"/></clipPath><clipPath id="dl"><path d="M2 7h3v3H2Zm0 0"/></clipPath><clipPath id="dm"><path d="m0-.004 12.828 40.902h39.129L25.98-.004Zm0 0"/></clipPath><clipPath id="dn"><path d="M4 9h1v1H4Zm0 0"/></clipPath><clipPath id="do"><path d="m0-.004 12.828 40.902h39.129L25.98-.004Zm0 0"/></clipPath><clipPath id="dp"><path d="M3 8h1v1H3Zm0 0"/></clipPath><clipPath id="dq"><path d="m0-.004 12.828 40.902h39.129L25.98-.004Zm0 0"/></clipPath></defs><g clip-path="url(#a)"><path d="m0-.004 12.828 40.902h39.129L25.98-.004z" style="stroke:none;fill-rule:nonzero;fill:#f0f0f0;fill-opacity:1"/></g><g clip-path="url(#b)"><g clip-path="url(#c)"><path d="M10.355-1.18c.075-.078.172-.144.215-.234.086-.191.14-.399.207-.598h.918q.103.614.207 1.235c-.007 1.183-.246 1.941-.754 2.316-.582-.773-.671-1.664-.636-2.59z" style="stroke:none;fill-rule:nonzero;fill:#f6ed0a;fill-opacity:1"/></g></g><g clip-path="url(#d)"><g clip-path="url(#e)"><path d="M32.156 34.395c-.238.003-.453.23-.441.46a.455.455 0 0 0 .433.415c.247.007.465-.196.465-.434a.46.46 0 0 0-.457-.441m-2.207.457a.467.467 0 0 0-.437-.47.48.48 0 0 0-.453.454c0 .227.175.41.414.43a.435.435 0 0 0 .476-.414m2.906 3.359h-3.992v.77h3.992zm-8.601-4.09c.016-.285.027-.574.043-.89-.676-1.211-.027-2.067 1.008-2.305 2.773-3.871 8.34-3.742 10.965-.028 1.32.52 1.632 1.227 1.082 2.22.023 1.1.058 2.1.062 3.1.012 1.782.004 3.567.004 5.352v.575c-.223.007-.39.023-.555.023-4.043 0-8.09 0-12.133-.004-.156 0-.312-.055-.472-.082.031-.164.09-.324.094-.488q.006-3.494-.004-6.989c0-.16-.059-.324-.094-.484" style="stroke:none;fill-rule:nonzero;fill:#3c3839;fill-opacity:1"/></g></g><g clip-path="url(#f)"><g clip-path="url(#g)"><path d="M19.086 24.523c-1.137-.894-3.445-.636-4.063.016 1.07.82 3.028.773 4.063-.016m-2.461-2.457c0-1.02.016-2.035-.008-3.054-.015-.782-.59-1.278-1.379-1.239-.715.036-1.242.63-1.218 1.368.011.441.234.777.55 1.05.36.309.746.59 1.125.875.356.274.668.575.93 1m.8-3.128-.081-.153v3.461q.023.002.047.004l.035-.195c.031-.012.078-.012.094-.035.382-.649 1-1.04 1.578-1.477a4 4 0 0 0 .75-.75c.445-.605.238-1.445-.418-1.848-.602-.367-1.48-.148-1.82.47-.087.16-.122.347-.184.523m5.735 8.578c-.137.011-.285.03-.433.027-2.23-.004-4.457.023-6.688-.027-2.574-.055-4.547-1.22-5.922-3.399-.023-.043-.043-.09-.097-.203l2-.984c-.204-.024-.305-.043-.41-.043-.579-.004-1.157 0-1.735-.004-.164 0-.348.035-.426-.235.547-.39 1.211-.562 1.766-.996H9.242l-.097-.441 1.55-.766-.023-.093H9.113c.028-.368.024-.688.082-1 .465-2.48 1.84-4.266 4.137-5.332.879-.41 1.816-.579 2.773-.586 2.247-.02 4.493-.008 6.739-.008.097 0 .199.02.289.027.097.387.125 13.418.027 14.063" style="stroke:none;fill-rule:nonzero;fill:#3c3839;fill-opacity:1"/></g></g><g clip-path="url(#h)"><g clip-path="url(#i)"><path d="M19.031 2.406c-.21.356-.215.524-.039.692.14.136.399.156.559.03.156-.12.242-.276.176-.483-.082-.247-.25-.31-.696-.239m-6.476.39c.203.372.328.458.57.403.2-.047.336-.23.324-.445-.008-.207-.105-.348-.316-.395-.278-.062-.414.04-.578.438m1.074 4.985c.023 1.407 1.207 2.328 2.848 2.254 1.023-.047 2.406-1.246 2.195-2.277-.5-.117-4.676-.102-5.043.023m-3.274-8.96q.078.063.157.128c-.035.926.054 1.817.636 2.59.508-.375.747-1.133.754-2.316 1.985.718 3.278 2.113 3.957 4.093.11.32.16.657.239.989q.006.158.02.312c.034.004.066.004.1.008q.034-.31.067-.621c.399-1.86 1.418-3.285 3.035-4.281.84-.516 1.77-.778 2.739-.899.164-.023.332-.004.535-.004.015.149.047.278.047.407 0 2.433.02 4.863-.008 7.296-.04 3.965-3.555 6.887-7.488 6.297-2.942-.445-5.457-3.023-5.473-6.351-.016-2.399-.004-4.797-.004-7.196 0-.132.016-.265.027-.453z" style="stroke:none;fill-rule:nonzero;fill:#3c3839;fill-opacity:1"/></g></g><g clip-path="url(#j)"><g clip-path="url(#k)"><path d="M13.883 33.605c.426.008.828-.375.836-.8.011-.422-.367-.817-.801-.828a.794.794 0 0 0-.816.793.804.804 0 0 0 .78.835m-4.746 8.461v-13.91c.394-.097 13.058-.136 13.914-.043-.164.309-13.203 13.399-13.914 13.953" style="stroke:none;fill-rule:nonzero;fill:#3c3839;fill-opacity:1"/></g></g><g clip-path="url(#l)"><g clip-path="url(#m)"><path d="M46.277 20.574c-.586-.035-1.129-.058-1.699.02.031.379.223.578.469.742h.781c.348-.309.348-.309.45-.762m-6.074-7.117h10.461c.059.39.027.773-.023 1.156-.293 2.336-1.036 4.535-1.953 6.684a46 46 0 0 1-3.008 5.844c-.067.113-.149.218-.262.386-.473-.832-.934-1.605-1.36-2.394-1.081-2.012-2.042-4.074-2.785-6.235-.53-1.546-.933-3.125-1.07-4.761-.016-.215 0-.434 0-.68" style="stroke:none;fill-rule:nonzero;fill:#3c3839;fill-opacity:1"/></g></g><g clip-path="url(#n)"><g clip-path="url(#o)"><path d="M35.906 9.684c-.715-.614-1.562-.829-2.383-1.168V6.57c-.277.016-.5.024-.789.04v1.906c-.828.355-1.656.578-2.324 1.152.059.074.094.137.145.172a7.3 7.3 0 0 0 1.879.879c.25.082.535.12.796.097.754-.07 1.446-.351 2.098-.718.188-.106.352-.25.578-.414M37.82-1.16v13.976c-.37.114-13.422.133-14 .012z" style="stroke:none;fill-rule:nonzero;fill:#3c3839;fill-opacity:1"/></g></g><g clip-path="url(#p)"><g clip-path="url(#q)"><path d="M43.594 9.352c-.508-.024-.914-.094-1.36.039.192.578.395 1.113.711 1.734.23-.637.418-1.148.649-1.773m4.37 1.84c.263-.672.477-1.223.72-1.848-.504-.008-.914-.098-1.387.066.219.574.422 1.121.668 1.781m-4.593-2.91c.363 0 .711.042 1.04.312q.41 2.095.831 4.285h-5.047c0-.191-.015-.371 0-.55.078-1.036.258-2.056.524-3.06.87-3.238 2.304-6.238 3.941-9.148.242-.422.496-.84.774-1.308.152.242.277.421.386.609 1.582 2.703 2.97 5.5 3.95 8.484.46 1.407.796 2.844.914 4.324.015.2.004.403.004.641h-4.95c-.05-.348.563-3.66.805-4.34.277-.199.61-.254.953-.25.484-.027.973-.058 1.457-.09.129-.007.258-.011.387-.02 0-.026-.004-.05-.004-.077h-7.711q-.005.04-.004.082z" style="stroke:none;fill-rule:nonzero;fill:#3c3839;fill-opacity:1"/></g></g><g clip-path="url(#r)"><g clip-path="url(#s)"><path d="M1.988 31.469c.008-.223-.21-.469-.425-.489a.46.46 0 0 0-.493.457c0 .25.188.442.442.45.258.008.468-.18.476-.418m-.71 2.527c.445.04.613-.031.69-.27.063-.187-.027-.402-.218-.511-.195-.113-.387-.098-.555.055-.183.167-.16.375.082.726m.277 2.25c.246-.098.441-.234.43-.512-.012-.265-.196-.41-.465-.472-.239.054-.442.164-.45.449-.008.297.16.465.485.535m-.078 2.129c.421-.16.546-.3.507-.543-.035-.207-.257-.418-.449-.41-.222.008-.383.117-.45.336-.077.258.02.418.392.617m-2.391 2.02c1.25 1.492 3.863 1.359 4.883-.036-1.45-1.406-3.582-1.328-4.883.036M.37 30.754c.281-.672.567-1.344.848-2.016.078-.183.164-.367.293-.66.894 1.914 1.574 3.797 2.168 5.715.593 1.914 1.047 3.863 1.215 5.93 1.21.039 2.41-.012 3.632.027v2.426H-5.5V39.73h3.648c.032-.41.055-.761.082-1.117.032-.097.067-.191.086-.289.2-.965.38-1.93.598-2.886.156-.68.36-1.344.54-2.012.089-.239.183-.469.26-.707.223-.657.438-1.313.657-1.965" style="stroke:none;fill-rule:nonzero;fill:#3b3838;fill-opacity:1"/></g></g><g clip-path="url(#t)"><g clip-path="url(#u)"><path d="M1.54.254C.8 1.41.823 4.96 1.55 5.789c.645-1.094.653-4.355-.01-5.535m-4.321 10.894c.101.067.136.106.18.118 1.304.37 2.609.742 3.917 1.101.137.04.305.031.446-.008 1.047-.285 2.09-.59 3.133-.886q.438-.13.882-.254-.007-.036-.015-.07zm4.078-2.117c.195-.441.074-.855-.098-1.265-.508-.922-1.3-1.29-2.187-1.02-.785.09-1.438 1.047-1.442 1.79-.004.866.66 1.757 1.578 1.886.23 0 .465 0 .696-.004.754-.18 1.277-.602 1.453-1.387M4.234 6.79c-.375-.148-.754-.21-1.144-.039-.8.203-1.27.73-1.383 1.547v.508c.11.867.602 1.386 1.523 1.617h.7c1.316-.195 2.148-1.973 1.02-3.14zM.383-.707Q.376-.882.375-1.059c0-.03.031-.062.066-.132.18.074.368.136.543.23.18.094.344.215.532.332.359-.207.691-.48 1.191-.558-.059.332-.105.601-.156.898.375-.207.687-.52 1.172-.527.047.515-.23.89-.465 1.328a25 25 0 0 1 .484-.043c.07.715-.398 1.187-.77 1.726Q4.366 4.86 5.759 7.52c.926 1.77 1.855 3.543 2.805 5.363H-5.5c.598-1.246 1.246-2.41 1.86-3.59q.92-1.765 1.84-3.523C-1.18 4.582-.556 3.395.065 2.21c-.187-.284-.382-.542-.539-.82-.156-.273-.3-.562-.234-.937.187.035.344.07.543.11C-.445.12-.7-.277-.691-.812c.378-.02.644.195.933.351q.135.119.27.238c.023-.015.047-.035.066-.05Q.483-.491.383-.707" style="stroke:none;fill-rule:nonzero;fill:#3c3839;fill-opacity:1"/></g></g><g clip-path="url(#v)"><g clip-path="url(#w)"><path d="M.207 24.586c-1.3-.836-3.332-.719-4.144.02.859.734 3.23.742 4.144-.02m1.387 2.934h-7.035c.027-.215.043-.391.07-.563.223-1.289.465-2.574.664-3.867.316-2.04.23-4.067-.164-6.086-.035-.184-.059-.367-.086-.555l.523-.472c.028.136.055.289.09.476.446.063.711-.219 1.004-.562.035.218.067.39.094.566.465.043.723-.258 1.02-.602.019.243.03.407.046.598.465.055.727-.23 1.012-.57.031.219.05.379.074.562.465.078.719-.226 1.024-.558.02.218.035.379.054.554.422.09.664-.199 1.004-.476-.11.719-.203 1.351-.3 1.992.59 1.148 1.312 2.266 1.187 3.723H.605c.094 2.008.61 3.875.989 5.84" style="stroke:none;fill-rule:nonzero;fill:#3c3839;fill-opacity:1"/></g></g><g clip-path="url(#x)"><g clip-path="url(#y)"><path d="M5.902 18.332c-.004-.238-.23-.453-.465-.437a.47.47 0 0 0-.421.43.466.466 0 0 0 .437.464c.234.004.453-.223.45-.457m2.633-3.195c.055.863-.168 1.687-.41 2.496-.262.879-.61 1.73-.918 2.59l-.133.398c.883 2.192 1.742 4.395 1.422 6.836-.394.117-5.57.129-6.055.016-.168-.825-.125-1.653.02-2.477.242-1.36.668-2.664 1.215-3.93.058-.14.105-.285.168-.445-.258-.676-.531-1.348-.762-2.039-.332-.98-.629-1.973-.687-3.02l.023-.417q3.059-.004 6.117-.008" style="stroke:none;fill-rule:nonzero;fill:#3c3839;fill-opacity:1"/></g></g><g clip-path="url(#z)"><g clip-path="url(#A)"><path d="M51.207 32.906c.238-.187.473-.367.734-.57.25.394.27.785.274 1.168.012 1.016 0 2.035-.004 3.05-.063 0-.129.005-.191.005-.165-.082-.32-.176-.489-.239-.484-.191-.972-.367-1.457-.55l-.82-.34q-.104-.043-.207-.078c-.23-.079-.461-.149-.692-.223a5 5 0 0 0-.226-.078q-.2-.069-.395-.137l-2.132-.809h-.008q-.164-.169-.32.008-1.184.451-2.36.903-.041.01-.082.027c-.336.102-.676.203-1.012.309q-.053.032-.105.062c-.649.258-1.293.512-1.938.77q-.52.2-1.035.394c-.031-.125-.09-.246-.09-.371q-.01-1.329 0-2.656c.004-.39.059-.778.27-1.2.305.212.59.403.879.602-.078-1.742-.067-1.875.234-2.48.68.285 1.11.859 1.645 1.441.015-.543.008-1.008.054-1.465.047-.453.164-.898.418-1.312.875.543 1.403 1.34 1.848 2.25.184-.594.336-1.172.54-1.73a5 5 0 0 1 .913-1.567c.762.992 1.184 2.086 1.379 3.316.281-.445.523-.867.805-1.258.285-.402.64-.742 1.07-.988.39.563.465.98.484 2.8.493-.6.957-1.16 1.684-1.515.293.707.293 1.418.215 2.137-.098.145-.13.285-.031.488.07-.078.105-.12.148-.164" style="stroke:none;fill-rule:nonzero;fill:#3c3839;fill-opacity:1"/></g></g><g clip-path="url(#B)"><g clip-path="url(#C)"><path d="M27.164 24.832a.53.53 0 0 0 .559-.527.56.56 0 0 0-.551-.594.587.587 0 0 0-.57.586.566.566 0 0 0 .562.535m2.441 0a.57.57 0 0 0 .56-.543.587.587 0 0 0-.58-.578c-.32.004-.558.27-.542.602.02.316.242.527.562.519m4.81 0a.533.533 0 0 0 .57-.516.547.547 0 0 0-.536-.605.58.58 0 0 0-.586.57c.004.293.25.54.551.551m-2.423 0a.57.57 0 0 0 .594-.559.6.6 0 0 0-.547-.562c-.316-.02-.574.238-.574.566a.53.53 0 0 0 .527.555m.36 1.422c-.668-.664-2.524-.637-3.079.012.692.648 2.313.683 3.079-.012m-8.508 1.238c-.035-.09-.098-.176-.098-.265a605 605 0 0 1 0-3.766c0-.066.02-.129.035-.227h14.02c.015.102.043.2.043.293.004 1.207.004 2.41-.004 3.618 0 .117-.07.238-.11.355-.156-.04-.316-.11-.472-.11q-6.469-.01-12.938 0c-.16 0-.32.067-.476.102" style="stroke:none;fill-rule:nonzero;fill:#3c3839;fill-opacity:1"/></g></g><g clip-path="url(#D)"><g clip-path="url(#E)"><path d="M42.965 27.52h-4.473c-.183-.497-.129-.97-.027-1.434.363-1.676 1.226-3.106 2.21-4.543.102.113.184.187.243.273.73 1.051 1.375 2.149 1.777 3.368.172.523.242 1.086.325 1.636.03.211-.032.434-.055.7" style="stroke:none;fill-rule:nonzero;fill:#e21d25;fill-opacity:1"/></g></g><g clip-path="url(#F)"><g clip-path="url(#G)"><path d="M50.227 21.57c.632.895 1.18 1.809 1.617 2.785.308.688.574 1.383.617 2.141.016.317.004.637.004.934-.438.152-4.008.172-4.512.039-.168-.602-.082-1.203.082-1.797.348-1.254.973-2.379 1.668-3.469.121-.187.25-.363.379-.543.02-.023.055-.035.145-.09" style="stroke:none;fill-rule:nonzero;fill:#e21d25;fill-opacity:1"/></g></g><g clip-path="url(#H)"><g clip-path="url(#I)"><path d="M38.477-1.172h4.425c.18.375.172.754.086 1.113-.14.61-.285 1.23-.52 1.805a14 14 0 0 1-1.738 3.04c-.09-.095-.175-.169-.234-.259-.867-1.289-1.644-2.617-2-4.156-.117-.5-.172-1-.02-1.543" style="stroke:none;fill-rule:nonzero;fill:#e21d25;fill-opacity:1"/></g></g><g clip-path="url(#J)"><g clip-path="url(#K)"><path d="M50.113 4.773c-.328-.523-.652-1.015-.949-1.527-.48-.824-.883-1.683-1.14-2.605a3.5 3.5 0 0 1-.051-1.825c1.449-.027 2.918-.007 4.402-.011.207.664.113 1.285-.059 1.886-.414 1.454-1.156 2.747-2.03 3.97-.016.027-.056.038-.173.112" style="stroke:none;fill-rule:nonzero;fill:#e21d25;fill-opacity:1"/></g></g><g clip-path="url(#L)"><g clip-path="url(#M)"><path d="M30.832 16.344c.816 1.426 1.535 2.82 1.738 4.422.055.41.035.562-.11.957h-3.358a3.64 3.64 0 0 1 .05-1.668c.317-1.262.86-2.426 1.528-3.535.027-.043.062-.075.152-.176" style="stroke:none;fill-rule:nonzero;fill:#3c3839;fill-opacity:1"/></g></g><g clip-path="url(#N)"><g clip-path="url(#O)"><path d="M6.246 5.05c-.828-2.015-1.605-3.984-1.45-6.214h2.927C8.164.063 7 3.91 6.246 5.05" style="stroke:none;fill-rule:nonzero;fill:#e21d25;fill-opacity:1"/></g></g><g clip-path="url(#P)"><g clip-path="url(#Q)"><path d="M16.922 39.406c.219.637.664.895 1.297.824.508-.058.836-.347.879-.824h-2.176m-2.344.242c.992-.628 1.996-1.171 3.164-1.347.54-.078 1.059.058 1.54.261.667.282 1.304.641 1.952.973.059.028.098.09.149.133-2.168 1.98-4.504 1.984-6.805-.02" style="stroke:none;fill-rule:nonzero;fill:#e21d25;fill-opacity:1"/></g></g><g clip-path="url(#R)"><g clip-path="url(#S)"><path d="M-5.145 15.031c-.304-.445-.312-.965-.398-1.465.387-.117 6.313-.152 6.992-.039-.012.137 0 .293-.043.422-.129.356-.043.778-.324 1.086-.16-.035-.316-.098-.477-.098a593 593 0 0 0-5.273 0c-.156 0-.316.063-.477.094" style="stroke:none;fill-rule:nonzero;fill:#3c3839;fill-opacity:1"/></g></g><g clip-path="url(#T)"><g clip-path="url(#U)"><path d="M2.406 13.496c.11-.023.223-.07.336-.07q2.725-.005 5.45-.004c.097 0 .199.023.34.035.042.504.038.988.007 1.477-1.016-.004-2.031.004-3.043-.004-1.008-.008-2.016.035-3.09-.035z" style="stroke:none;fill-rule:nonzero;fill:#524f4f;fill-opacity:1"/></g></g><g clip-path="url(#V)"><g clip-path="url(#W)"><path d="M24.969 6.355h1.347c-.41.493-.96.739-1.53 1.094.136.031.202.051.273.063q.122.014.261.02c-.28.425-.984.773-1.496.75-.105-.364-.125-3.329-.031-3.891.367-.098 3.758-.118 4.434-.016a25 25 0 0 1-3.258 1.98" style="stroke:none;fill-rule:nonzero;fill:#e21d25;fill-opacity:1"/></g></g><g clip-path="url(#X)"><g clip-path="url(#Y)"><path d="M23.773 3.383v-4.551h4.743c-2.493.656-4.051 2.164-4.743 4.55" style="stroke:none;fill-rule:nonzero;fill:#3c393a;fill-opacity:1"/></g></g><g clip-path="url(#Z)"><g clip-path="url(#aa)"><path d="M46.555 42.148h-2.223c-.012-.234-.062-.468-.039-.691.148-1.21.566-2.332 1.16-3.496.625 1.36 1.207 2.648 1.102 4.187" style="stroke:none;fill-rule:nonzero;fill:#3c3839;fill-opacity:1"/></g></g><g clip-path="url(#ab)"><g clip-path="url(#ac)"><path d="M27.977 1.96c.363.212.53.224.699.056.152-.149.168-.434.039-.606a.47.47 0 0 0-.55-.12c-.22.097-.259.241-.188.67m2.304-.26c-.699 1.359-3.004 1.48-3.875-.02.442-.676 1.067-1.035 1.887-1.055.879-.023 1.586.36 1.988 1.074" style="stroke:none;fill-rule:nonzero;fill:#3c3839;fill-opacity:1"/></g></g><g clip-path="url(#ad)"><g clip-path="url(#ae)"><path d="M33.156 16.563c.211.359.36.453.594.386a.46.46 0 0 0 .32-.465.44.44 0 0 0-.375-.414c-.27-.043-.398.07-.539.492m2.407-.051c-.84 1.445-3.102 1.414-3.876 0 .793-1.43 3.055-1.422 3.875 0" style="stroke:none;fill-rule:nonzero;fill:#3b3838;fill-opacity:1"/></g></g><g clip-path="url(#af)"><g clip-path="url(#ag)"><path d="M27.98 16.063a.456.456 0 0 0-.449.457c0 .246.211.449.461.445a.467.467 0 0 0 .453-.457.465.465 0 0 0-.465-.445m1.942.453c-.824 1.418-3.059 1.437-3.887-.004.875-1.48 3.117-1.371 3.887.004" style="stroke:none;fill-rule:nonzero;fill:#3c3839;fill-opacity:1"/></g></g><g clip-path="url(#ah)"><g clip-path="url(#ai)"><path d="M47.828 35.14c-.973.669-1.285 1.61-1.086 2.79h-.75c.488-1.223.5-2.407-.297-3.508.168-.18.32-.004.461.039.532.176 1.051.375 1.578.566q.048.054.094.114" style="stroke:none;fill-rule:nonzero;fill:#3c393a;fill-opacity:1"/></g></g><g clip-path="url(#aj)"><g clip-path="url(#ak)"><path d="M45.176 34.426c-.754 1.094-.824 2.254-.262 3.511h-.723c-.004-.074-.023-.156-.011-.23.16-.996-.176-1.793-.938-2.434-.07-.058-.113-.152-.168-.23.547-.195 1.094-.402 1.649-.582.14-.047.289-.215.453-.035" style="stroke:none;fill-rule:nonzero;fill:#3d3a3b;fill-opacity:1"/></g></g><g clip-path="url(#al)"><g clip-path="url(#am)"><path d="M42.836 35.242c-.215.914-.102 1.75.559 2.465.054.055.093.125.175.242h-.879c-.074-.969-.496-1.691-1.379-2.105q.247-.154.493-.309z" style="stroke:none;fill-rule:nonzero;fill:#3f3b3c;fill-opacity:1"/></g></g><g clip-path="url(#an)"><g clip-path="url(#ao)"><path d="M49.559 35.852c-.86.414-1.286 1.125-1.375 2.086h-.805c.219-.376.453-.739.64-1.126.196-.394.145-.828.11-1.253.004-.114.004-.227.008-.34q.46.158.922.312.25.16.5.32" style="stroke:none;fill-rule:nonzero;fill:#3f3b3c;fill-opacity:1"/></g></g><g clip-path="url(#ap)"><g clip-path="url(#aq)"><path d="M39.656 36.578c.203.453.41.906.621 1.371h-1.593c-.067-.398-.028-.781-.028-1.164.028-.039.059-.074.09-.113.172-.047.344-.078.512-.14.148-.055.277-.087.398.046" style="stroke:none;fill-rule:nonzero;fill:#3f3b3c;fill-opacity:1"/></g></g><g clip-path="url(#ar)"><g clip-path="url(#as)"><path d="M43.203 39.844c.227-.106.332-.207.25-.39-.07-.153-.21-.173-.344-.106-.066.03-.113.109-.191.195.105.113.191.203.285.3m-1.117-.313c.691-.824 1.695-.808 2.266.016-.372.836-1.868.832-2.266-.016" style="stroke:none;fill-rule:nonzero;fill:#3d3a3b;fill-opacity:1"/></g></g><g clip-path="url(#at)"><g clip-path="url(#au)"><path d="M52.223 36.77v1.18h-1.637c.215-.43.422-.845.633-1.263l.172-.218.632.176q.1.064.2.125" style="stroke:none;fill-rule:nonzero;fill:#3f3b3c;fill-opacity:1"/></g></g><g clip-path="url(#av)"><g clip-path="url(#aw)"><path d="M47.64 39.84c.255-.09.356-.23.227-.406-.054-.075-.238-.09-.351-.07-.063.007-.106.144-.168.241zm-1.132-.278c.64-.843 1.629-.851 2.273-.046-.433.851-1.566.886-2.273.047" style="stroke:none;fill-rule:nonzero;fill:#3c393a;fill-opacity:1"/></g></g><g clip-path="url(#ax)"><g clip-path="url(#ay)"><path d="M41.184 36.688c.086.48.379.847.757 1.25h-.597c-.356-.657-.82-1.215-1.559-1.485q.047-.089.094-.183c.383-.133.77-.262 1.156-.395z" style="stroke:none;fill-rule:nonzero;fill:#3f3c3d;fill-opacity:1"/></g></g><g clip-path="url(#az)"><g clip-path="url(#aA)"><path d="M51.09 36.457c-.723.27-1.184.813-1.555 1.488h-.605c.633-.605.902-1.285.843-2.086.063.004.122.004.184.008.313.133.629.254.934.395.078.039.132.133.199.195" style="stroke:none;fill-rule:nonzero;fill:#3f3b3c;fill-opacity:1"/></g></g><g clip-path="url(#aB)"><g clip-path="url(#aC)"><path d="M23.844 27.492c.156-.035.316-.101.476-.101q6.469-.012 12.938 0c.156 0 .316.07.472.109-.167.012-.335.027-.503.027q-6.44.006-12.88 0c-.167 0-.335-.023-.503-.035" style="stroke:none;fill-rule:nonzero;fill:#343031;fill-opacity:1"/></g></g><g clip-path="url(#aD)"><g clip-path="url(#aE)"><path d="M48.953 8.191c-.484.032-.973.063-1.457.09-.14-.035-.281-.105-.422-.105a184 184 0 0 0-3.281 0c-.14 0-.281.07-.422.105l-1.75-.105q-.001-.042.004-.082h7.328z" style="stroke:none;fill-rule:nonzero;fill:#5e5b5c;fill-opacity:1"/></g></g><g clip-path="url(#aF)"><g clip-path="url(#aG)"><path d="M2.406 13.496v1.399c1.074.07 2.082.027 3.09.035 1.012.008 2.027 0 3.043.004v.097q-2.801-.002-5.598.008c-.175 0-.347.07-.523.106l-.023.418c-.106-.688-.137-1.38.011-2.067" style="stroke:none;fill-rule:nonzero;fill:#e21d25;fill-opacity:1"/></g></g><g clip-path="url(#aH)"><g clip-path="url(#aI)"><path d="M24.254 34.121c.035.16.094.324.094.484q.01 3.494.004 6.989c-.004.164-.063.324-.094.488-.012-.117-.035-.234-.035-.352a2154 2154 0 0 1 0-7.105c0-.168.02-.336.03-.504" style="stroke:none;fill-rule:nonzero;fill:#2f2c2d;fill-opacity:1"/></g></g><g clip-path="url(#aJ)"><g clip-path="url(#aK)"><path d="M-5.145 15.031c.16-.031.32-.094.477-.094q2.637-.01 5.273 0c.16 0 .317.063.477.098-.555.008-1.113.02-1.672.024-1.332.004-2.668 0-4 0-.183 0-.37-.02-.555-.028" style="stroke:none;fill-rule:nonzero;fill:#292627;fill-opacity:1"/></g></g><g clip-path="url(#aL)"><g clip-path="url(#aM)"><path d="M2.418 15.145c.176-.036.348-.106.523-.106 1.864-.008 3.73-.008 5.598-.008q-.005.052-.004.106-3.058.004-6.117.008" style="stroke:none;fill-rule:nonzero;fill:#524f4f;fill-opacity:1"/></g></g><g clip-path="url(#aN)"><g clip-path="url(#aO)"><path d="m41.184 36.688-.149-.813c-.387.133-.773.262-1.156.395-.035-.028-.07-.06-.102-.086.645-.258 1.29-.512 1.938-.77a.3.3 0 0 0 .086.012q.005.054.004.11c-.164.1-.328.206-.492.308-.243.25-.047.57-.13.843" style="stroke:none;fill-rule:nonzero;fill:#b7b6b6;fill-opacity:1"/></g></g><g clip-path="url(#aP)"><g clip-path="url(#aQ)"><path d="M47.734 35.027c-.527-.191-1.047-.39-1.578-.566-.14-.043-.293-.219-.46-.04l-.094-.316 2.132.81z" style="stroke:none;fill-rule:nonzero;fill:#aba9aa;fill-opacity:1"/></g></g><g clip-path="url(#aR)"><g clip-path="url(#aS)"><path d="M45.176 34.426c-.164-.18-.313-.012-.453.035-.555.18-1.102.387-1.649.582-.054-.008-.105-.02-.16-.027q1.176-.451 2.36-.903-.053.16-.098.313" style="stroke:none;fill-rule:nonzero;fill:#acabab;fill-opacity:1"/></g></g><g clip-path="url(#aT)"><g clip-path="url(#aU)"><path d="M51.09 36.457c-.067-.062-.121-.156-.2-.195-.304-.14-.62-.262-.933-.395.04-.031.078-.066.117-.097.485.183.973.359 1.457.55.168.063.324.157.489.239a1 1 0 0 1 .003.086c-.203-.055-.406-.114-.632-.176l-.172.218z" style="stroke:none;fill-rule:nonzero;fill:#adabac;fill-opacity:1"/></g></g><g clip-path="url(#aV)"><g clip-path="url(#aW)"><path d="M5.52 33.871c-.043-.101-.102-.226-.145-.324.117-.238.277-.297.438-.192.085.055.156.223.14.329-.023.203-.191.246-.433.187" style="stroke:none;fill-rule:nonzero;fill:#f6ed0a;fill-opacity:1"/></g></g><g clip-path="url(#aX)"><g clip-path="url(#aY)"><path d="M4.207 33.605c.18-.316.363-.375.543-.214.18.164.129.355-.129.539q-.187-.148-.414-.325" style="stroke:none;fill-rule:nonzero;fill:#f6ed0a;fill-opacity:1"/></g></g><g clip-path="url(#aZ)"><g clip-path="url(#ba)"><path d="M7.766 33.355c.285-.093.43.016.55.286-.101.09-.21.195-.308.285-.332-.125-.328-.32-.242-.57" style="stroke:none;fill-rule:nonzero;fill:#f6ed0a;fill-opacity:1"/></g></g><g clip-path="url(#bb)"><g clip-path="url(#bc)"><path d="M6.406 33.617c.192-.144.29-.262.41-.289.07-.016.223.09.258.172.074.176.008.328-.246.414-.086-.062-.2-.144-.422-.297" style="stroke:none;fill-rule:nonzero;fill:#f6ed0a;fill-opacity:1"/></g></g><g clip-path="url(#bd)"><g clip-path="url(#be)"><path d="M39.777 36.184q.049.042.102.086-.047.094-.094.183a4 4 0 0 1-.129.125c-.12-.133-.25-.101-.398-.047-.168.063-.34.094-.512.14q-.005-.046-.004-.093.515-.195 1.035-.394" style="stroke:none;fill-rule:nonzero;fill:#aeacac;fill-opacity:1"/></g></g><g clip-path="url(#bf)"><g clip-path="url(#bg)"><path d="M41.805 35.535q.001-.054-.004-.11a.2.2 0 0 1 .02-.073c.335-.106.675-.207 1.011-.309q.005.1.004.2z" style="stroke:none;fill-rule:nonzero;fill:#a9a7a8;fill-opacity:1"/></g></g><g clip-path="url(#bh)"><g clip-path="url(#bi)"><path d="M50.074 35.77c-.039.03-.078.066-.117.097-.062-.004-.121-.004-.184-.008q-.107-.004-.214-.007-.25-.16-.5-.32.004-.056.007-.11c.063.004.125.004.188.008z" style="stroke:none;fill-rule:nonzero;fill:#b4b2b3;fill-opacity:1"/></g></g><g clip-path="url(#bj)"><g clip-path="url(#bk)"><path d="m16.285 4.004-.066.621c-.035-.004-.067-.004-.102-.008a8 8 0 0 1-.02-.312z" style="stroke:none;fill-rule:nonzero;fill:#9e9c9d;fill-opacity:1"/></g></g><g clip-path="url(#bl)"><g clip-path="url(#bm)"><path d="M47.734 35.027v-.113q.195.069.395.137c.004.031.004.058.004.09v-.004l-.121.117c-.063-.04-.121-.078-.184-.113z" style="stroke:none;fill-rule:nonzero;fill:#d3d2d3;fill-opacity:1"/></g></g><g clip-path="url(#bn)"><g clip-path="url(#bo)"><path d="M51.207 32.906c-.043.043-.078.086-.148.164-.098-.203-.067-.343.03-.488.04.11.075.215.118.324" style="stroke:none;fill-rule:nonzero;fill:#9d9b9b;fill-opacity:1"/></g></g><g clip-path="url(#bp)"><g clip-path="url(#bq)"><path d="M48.012 35.254c.039-.04.082-.078.12-.117a.3.3 0 0 1 .005.082c-.004.113-.004.226-.008.34z" style="stroke:none;fill-rule:nonzero;fill:#868485;fill-opacity:1"/></g></g><g clip-path="url(#br)"><g clip-path="url(#bs)"><path d="M45.273 34.113q.158-.176.32-.008-.156.001-.32.008" style="stroke:none;fill-rule:nonzero;fill:#aba9aa;fill-opacity:1"/></g></g><g clip-path="url(#bt)"><g clip-path="url(#bu)"><path d="M38.746 36.672c-.031.039-.062.074-.09.113.028-.039.059-.074.09-.113" style="stroke:none;fill-rule:nonzero;fill:#aeacac;fill-opacity:1"/></g></g><g clip-path="url(#bv)"><g clip-path="url(#bw)"><path d="M19.086 24.523c-1.035.79-2.992.836-4.063.016.618-.652 2.926-.91 4.063-.016" style="stroke:none;fill-rule:nonzero;fill:#e21d25;fill-opacity:1"/></g></g><g clip-path="url(#bx)"><g clip-path="url(#by)"><path d="M17.426 18.938v3.117l-.035.195q-.024-.002-.047-.004v-3.46c.039.07.062.112.082.151" style="stroke:none;fill-rule:nonzero;fill:#2b2728;fill-opacity:1"/></g></g><g clip-path="url(#bz)"><g clip-path="url(#bA)"><path d="M13.629 7.781c.367-.125 4.543-.14 5.043-.023.21 1.031-1.172 2.23-2.195 2.277-1.641.074-2.825-.848-2.848-2.254" style="stroke:none;fill-rule:nonzero;fill:#e21d25;fill-opacity:1"/></g></g><g clip-path="url(#bB)"><g clip-path="url(#bC)"><path d="M13.883 33.605a.804.804 0 0 1-.781-.835.794.794 0 0 1 .816-.793c.434.011.812.406.8.828-.007.425-.41.808-.835.8" style="stroke:none;fill-rule:nonzero;fill:#f6ed0a;fill-opacity:1"/></g></g><g clip-path="url(#bD)"><g clip-path="url(#bE)"><path d="M46.277 20.574c-.101.453-.101.453-.449.762h-.781c-.246-.164-.438-.363-.469-.742.57-.078 1.113-.055 1.7-.02" style="stroke:none;fill-rule:nonzero;fill:#514d4e;fill-opacity:1"/></g></g><g clip-path="url(#bF)"><g clip-path="url(#bG)"><path d="M35.906 9.684c-.226.164-.39.308-.578.414-.652.367-1.344.648-2.098.718a2.05 2.05 0 0 1-.796-.097 7.3 7.3 0 0 1-1.88-.88c-.05-.034-.085-.097-.144-.171.668-.574 1.496-.797 2.324-1.152V6.609c.29-.015.512-.023.79-.039v1.946c.82.34 1.667.554 2.382 1.168" style="stroke:none;fill-rule:nonzero;fill:#e21d25;fill-opacity:1"/></g></g><g clip-path="url(#bH)"><g clip-path="url(#bI)"><path d="M47.965 11.191c-.246-.66-.45-1.207-.668-1.78.473-.165.883-.075 1.387-.067-.243.625-.457 1.176-.72 1.847" style="stroke:none;fill-rule:nonzero;fill:#e21d25;fill-opacity:1"/></g></g><g clip-path="url(#bJ)"><g clip-path="url(#bK)"><path d="M43.594 9.352c-.23.625-.418 1.136-.649 1.773a12 12 0 0 1-.71-1.734c.445-.133.85-.063 1.359-.04" style="stroke:none;fill-rule:nonzero;fill:#e21d25;fill-opacity:1"/></g></g><g clip-path="url(#bL)"><g clip-path="url(#bM)"><path d="M48.953 8.191v-.097h.383c0 .027.004.05.004.078q-.194.01-.387.02" style="stroke:none;fill-rule:nonzero;fill:#5c5959;fill-opacity:1"/></g></g><g clip-path="url(#bN)"><g clip-path="url(#bO)"><path d="M.848 40.426c.492.219.894.222 1.351.008-.492-.286-.844-.29-1.351-.008m-1.762-.031c1.3-1.364 3.434-1.442 4.883-.036-1.02 1.395-3.633 1.528-4.883.036" style="stroke:none;fill-rule:nonzero;fill:#514e4f;fill-opacity:1"/></g></g><g clip-path="url(#bP)"><g clip-path="url(#bQ)"><path d="M1.477 38.375c-.372-.2-.47-.36-.391-.617.066-.219.226-.328.45-.336.19-.008.413.203.448.41.04.242-.086.383-.507.543" style="stroke:none;fill-rule:nonzero;fill:#f6ed0a;fill-opacity:1"/></g></g><g clip-path="url(#bR)"><g clip-path="url(#bS)"><path d="M1.555 36.246c-.325-.07-.492-.238-.485-.535.008-.285.211-.395.45-.45.27.063.453.208.464.473.012.278-.183.414-.43.512" style="stroke:none;fill-rule:nonzero;fill:#f6ed0a;fill-opacity:1"/></g></g><g clip-path="url(#bT)"><g clip-path="url(#bU)"><path d="M1.277 33.996c-.242-.351-.265-.559-.082-.726.168-.153.36-.168.555-.055.191.11.281.324.219.512-.078.238-.246.308-.692.27" style="stroke:none;fill-rule:nonzero;fill:#f6ed0a;fill-opacity:1"/></g></g><g clip-path="url(#bV)"><g clip-path="url(#bW)"><path d="M1.988 31.469c-.008.238-.218.426-.476.418a.443.443 0 0 1-.442-.45.46.46 0 0 1 .492-.457c.215.02.434.266.426.489" style="stroke:none;fill-rule:nonzero;fill:#f6ed0a;fill-opacity:1"/></g></g><g clip-path="url(#bX)"><g clip-path="url(#bY)"><path d="M4.95 7.281c1.128 1.168.296 2.946-1.02 3.14l-.215-.097c.078-.031.156-.07.238-.086.45-.07.777-.324 1.027-.683.45-.637.403-1.403-.125-2.176q.048-.051.094-.098" style="stroke:none;fill-rule:nonzero;fill:#bfbdbe;fill-opacity:1"/></g></g><g clip-path="url(#bZ)"><g clip-path="url(#ca)"><path d="M-.86 6.855c-.042-.035-.085-.074-.128-.109.886-.27 1.68.098 2.187 1.02-.039.039-.074.082-.113.12-.23-.449-.55-.82-1.047-.956-.285-.078-.598-.055-.898-.075" style="stroke:none;fill-rule:nonzero;fill:#b8b7b7;fill-opacity:1"/></g></g><g clip-path="url(#cb)"><g clip-path="url(#cc)"><path d="M3.23 10.422c-.921-.23-1.414-.75-1.523-1.617h.094a1 1 0 0 1 .086.039c.015.457.234.824.601 1.062.285.188.637.285.957.422q-.104.047-.215.094" style="stroke:none;fill-rule:nonzero;fill:#c1c0c0;fill-opacity:1"/></g></g><g clip-path="url(#cd)"><g clip-path="url(#ce)"><path d="M1.297 9.031c-.176.785-.7 1.207-1.453 1.387l-.211-.094c.047-.023.09-.058.137-.066.816-.149 1.253-.664 1.43-1.45q.045.112.097.223" style="stroke:none;fill-rule:nonzero;fill:#bbb9ba;fill-opacity:1"/></g></g><g clip-path="url(#cf)"><g clip-path="url(#cg)"><path d="M1.707 8.297c.113-.817.582-1.344 1.383-1.547.047.035.09.07.137.102-.73.207-1.239.617-1.34 1.414a.3.3 0 0 1-.086.03z" style="stroke:none;fill-rule:nonzero;fill:#bfbebe;fill-opacity:1"/></g></g><g clip-path="url(#ch)"><g clip-path="url(#ci)"><path d="M3.227 6.852c-.047-.032-.09-.067-.137-.102.39-.172.77-.11 1.144.04-.039.034-.082.062-.12.093a65 65 0 0 1-.887-.031" style="stroke:none;fill-rule:nonzero;fill:#bdbcbc;fill-opacity:1"/></g></g><g clip-path="url(#cj)"><g clip-path="url(#ck)"><path d="M1.297 9.031q-.052-.111-.098-.222-.056-.459-.113-.922.056-.061.113-.121c.172.41.293.824.098 1.265" style="stroke:none;fill-rule:nonzero;fill:#a8a6a7;fill-opacity:1"/></g></g><g clip-path="url(#cl)"><g clip-path="url(#cm)"><path d="M4.113 6.883c.04-.031.082-.059.121-.094l.715.492q-.046.047-.094.098z" style="stroke:none;fill-rule:nonzero;fill:#b3b2b2;fill-opacity:1"/></g></g><g clip-path="url(#cn)"><g clip-path="url(#co)"><path d="M3.23 10.422q.111-.047.215-.094.135-.005.27-.004l.215.098z" style="stroke:none;fill-rule:nonzero;fill:#e4e4e4;fill-opacity:1"/></g></g><g clip-path="url(#cp)"><g clip-path="url(#cq)"><path d="M1.707 8.297h.094v.508h-.094z" style="stroke:none;fill-rule:nonzero;fill:#d0cfd0;fill-opacity:1"/></g></g><g clip-path="url(#cr)"><g clip-path="url(#cs)"><path d="M.207 24.586c-.914.762-3.285.754-4.144.02.812-.739 2.843-.856 4.144-.02" style="stroke:none;fill-rule:nonzero;fill:#514e4f;fill-opacity:1"/></g></g><g clip-path="url(#ct)"><g clip-path="url(#cu)"><path d="M48.137 35.219a.3.3 0 0 0-.004-.082v.004l.222-.012c.23.074.461.144.692.223.012.02.016.043.02.07-.005.035-.005.074-.008.11q-.462-.154-.922-.313" style="stroke:none;fill-rule:nonzero;fill:#adacac;fill-opacity:1"/></g></g><g clip-path="url(#cv)"><g clip-path="url(#cw)"><path d="m48.355 35.129-.222.012c0-.032 0-.059-.004-.09q.113.035.226.078" style="stroke:none;fill-rule:nonzero;fill:#868485;fill-opacity:1"/></g></g><g clip-path="url(#cx)"><g clip-path="url(#cy)"><path d="M49.066 35.422a.2.2 0 0 0-.02-.07q.105.035.208.078c-.063-.004-.125-.004-.188-.008" style="stroke:none;fill-rule:nonzero;fill:#3f3b3c;fill-opacity:1"/></g></g><g clip-path="url(#cz)"><g clip-path="url(#cA)"><path d="M41.82 35.352a.2.2 0 0 0-.02.074.3.3 0 0 1-.085-.012q.053-.032.105-.062" style="stroke:none;fill-rule:nonzero;fill:#3f3b3c;fill-opacity:1"/></g></g><g clip-path="url(#cB)"><g clip-path="url(#cC)"><path d="M33.156 16.563c.14-.422.27-.536.54-.493.21.032.363.203.374.414a.46.46 0 0 1-.32.465c-.234.067-.383-.027-.594-.387" style="stroke:none;fill-rule:nonzero;fill:#f2f2f2;fill-opacity:1"/></g></g><g clip-path="url(#cD)"><g clip-path="url(#cE)"><path d="M27.98 16.063c.25 0 .461.203.465.445a.467.467 0 0 1-.453.457.454.454 0 0 1-.46-.445.456.456 0 0 1 .448-.457" style="stroke:none;fill-rule:nonzero;fill:#f0f0f0;fill-opacity:1"/></g></g><g clip-path="url(#cF)"><g clip-path="url(#cG)"><path d="M43.203 39.844c-.094-.098-.18-.188-.285-.301.078-.086.125-.164.191-.195.133-.067.274-.047.344.105.082.184-.023.285-.25.39" style="stroke:none;fill-rule:nonzero;fill:#adacac;fill-opacity:1"/></g></g><g clip-path="url(#cH)"><g clip-path="url(#cI)"><path d="m47.64 39.84-.292-.235c.062-.097.105-.234.168-.242.113-.02.297-.004.351.07.13.176.028.317-.226.407" style="stroke:none;fill-rule:nonzero;fill:#aba9a9;fill-opacity:1"/></g></g><g clip-path="url(#cJ)"><g clip-path="url(#cK)"><path d="M18.777 19.594c-.386-.145-.496-.278-.453-.551a.43.43 0 0 1 .41-.383c.23-.012.438.14.489.363.058.258-.055.403-.446.57" style="stroke:none;fill-rule:nonzero;fill:#433f40;fill-opacity:1"/></g></g><g clip-path="url(#cL)"><g clip-path="url(#cM)"><path d="M15.32 19.602c-.398-.18-.523-.336-.449-.586.066-.215.211-.352.445-.356.23 0 .38.133.45.348.082.242-.036.398-.446.594" style="stroke:none;fill-rule:nonzero;fill:#3f3b3c;fill-opacity:1"/></g></g><g clip-path="url(#cN)"><g clip-path="url(#cO)"><path d="M.848 40.426c.507-.281.859-.278 1.351.008-.457.214-.86.21-1.351-.008" style="stroke:none;fill-rule:nonzero;fill:#ededed;fill-opacity:1"/></g></g><g clip-path="url(#cP)"><g clip-path="url(#cQ)"><path d="M.555 8.406c-.086-.531-.41-.84-.922-.933-.485-.09-1.008.23-1.18.68-.195.5-.016.995.488 1.347.485.277.926.207 1.32-.187q.066-.054.13-.102l.074-.11c.027-.101.05-.203.078-.308zm-.922 1.918q-.135-.001-.27.004c-.222-.07-.46-.113-.668-.219-.633-.32-.957-.87-.953-1.558.008-.707.356-1.254 1.016-1.57.117-.06.254-.086.383-.126.3.02.613-.003.898.075.496.136.816.508 1.047.957q.056.463.113.922c-.176.785-.613 1.3-1.43 1.449-.046.008-.09.043-.136.066" style="stroke:none;fill-rule:nonzero;fill:#3b3838;fill-opacity:1"/></g></g><g clip-path="url(#cR)"><g clip-path="url(#cS)"><path d="m2.602 7.988-.094.2q-.013.126-.02.253c-.039.5.145.899.614 1.11.457.203.882.144 1.238-.239.105-.207.265-.402.305-.617.093-.5-.215-.972-.7-1.168-.492-.195-.925-.039-1.308.473Zm1.113 2.336q-.135-.001-.27.004c-.32-.137-.672-.234-.957-.422a1.28 1.28 0 0 1-.601-1.062v-.578c.101-.797.61-1.207 1.34-1.414q.44.018.886.03.374.252.742.497c.528.773.575 1.539.125 2.176-.25.36-.578.613-1.027.683-.082.016-.16.055-.238.086" style="stroke:none;fill-rule:nonzero;fill:#3b3838;fill-opacity:1"/></g></g><g clip-path="url(#cT)"><g clip-path="url(#cU)"><path d="M1.887 8.266v.578a1 1 0 0 0-.086-.04v-.507a.3.3 0 0 0 .086-.031" style="stroke:none;fill-rule:nonzero;fill:#3c3839;fill-opacity:1"/></g></g><g clip-path="url(#cV)"><g clip-path="url(#cW)"><path d="M-1.059 9.5c-.504-.352-.683-.848-.488-1.348.172-.449.695-.77 1.18-.68.512.094.836.403.922.934l-.012.387c-.027.105-.05.207-.078.309L.39 9.21q-.064.048-.13.101l-.03-.027q0-.035-.036-.035l-.03-.031c.046-.07.105-.137.14-.215C.543 8.46.32 7.87-.187 7.695c-.547-.191-1.098.086-1.247.637-.117.434.086.758.387 1.04z" style="stroke:none;fill-rule:nonzero;fill:#c2c1c1;fill-opacity:1"/></g></g><g clip-path="url(#cX)"><g clip-path="url(#cY)"><path d="m-1.059 9.5.012-.129c.434.203.844.172 1.211-.152l.031.031q0 .03.035.035l.032.027c-.395.395-.836.465-1.32.188" style="stroke:none;fill-rule:nonzero;fill:#c7c6c7;fill-opacity:1"/></g></g><g clip-path="url(#cZ)"><g clip-path="url(#da)"><path d="M.543 8.793" style="stroke:none;fill-rule:nonzero;fill:#dcdbdb;fill-opacity:1"/></g></g><g clip-path="url(#db)"><g clip-path="url(#dc)"><path d="M.39 9.21q.04-.056.075-.108z" style="stroke:none;fill-rule:nonzero;fill:#3e3b3b;fill-opacity:1"/></g></g><g clip-path="url(#dd)"><g clip-path="url(#de)"><path d="M2.637 8c.383-.512.816-.668 1.308-.473.485.196.793.668.7 1.168-.04.215-.2.41-.305.617l-.031-.015q.004-.052-.043-.074.07-.13.148-.266c.316-.547-.133-1.344-.89-1.324-.344.008-.598.203-.81.46q-.04-.046-.077-.093" style="stroke:none;fill-rule:nonzero;fill:#c0bfbf;fill-opacity:1"/><path d="M2.637 8q.035.047.078.094c-.027.148-.078.297-.086.445-.02.582.488 1.047 1.055.953.18-.031.347-.12.52-.183l.105-.012.03.015c-.355.383-.78.442-1.237.239-.47-.211-.653-.61-.614-1.11.004-.086.012-.168.02-.254l.094-.199z" style="stroke:none;fill-rule:nonzero;fill:#cac9ca;fill-opacity:1"/></g></g><g clip-path="url(#df)"><g clip-path="url(#dg)"><path d="m2.602 7.988-.094.2z" style="stroke:none;fill-rule:nonzero;fill:#3c393a;fill-opacity:1"/></g></g><g clip-path="url(#dh)"><g clip-path="url(#di)"><path d="M-.773 8.395c-.149.148-.09.277.035.406.375.144.379.144.586-.262-.094-.223-.196-.426-.504-.258-.04.04-.078.074-.117.114m.937.824c-.367.324-.777.355-1.21.152-.302-.281-.505-.605-.388-1.039.149-.55.7-.828 1.247-.637.507.176.73.766.492 1.309-.035.078-.094.144-.14.215" style="stroke:none;fill-rule:nonzero;fill:#3e3b3b;fill-opacity:1"/></g></g><g clip-path="url(#dj)"><g clip-path="url(#dk)"><path d="M.23 9.285Q.195 9.28.195 9.25q.036 0 .035.035" style="stroke:none;fill-rule:nonzero;fill:#f0f0f0;fill-opacity:1"/></g></g><g clip-path="url(#dl)"><g clip-path="url(#dm)"><path d="M3.426 8.273c-.196.082-.239.23-.188.422.34.32.453.297.696-.152-.094-.223-.192-.438-.508-.27m.777 1.036c-.172.062-.34.152-.52.183-.566.094-1.074-.37-1.054-.953.008-.148.059-.297.086-.445.21-.258.465-.453.808-.461.758-.02 1.207.777.891 1.324l-.148.266a1 1 0 0 1-.063.086" style="stroke:none;fill-rule:nonzero;fill:#3c393a;fill-opacity:1"/></g></g><g clip-path="url(#dn)"><g clip-path="url(#do)"><path d="M4.203 9.309a1 1 0 0 0 .063-.086q.046.022.043.074z" style="stroke:none;fill-rule:nonzero;fill:#e2e1e1;fill-opacity:1"/></g></g><g clip-path="url(#dp)"><g clip-path="url(#dq)"><path d="M3.426 8.273c.316-.168.414.047.508.27-.243.45-.356.473-.696.152q.052-.057.106-.11c.101.048.203.09.34.15.062-.305-.059-.352-.25-.329q-.007-.064-.008-.133" style="stroke:none;fill-rule:nonzero;fill:#a7a5a6;fill-opacity:1"/><path d="M3.344 8.586q-.052.051-.106.11c-.05-.192-.008-.34.188-.423q.001.07.008.133a4 4 0 0 0-.09.18" style="stroke:none;fill-rule:nonzero;fill:#d1d0d1;fill-opacity:1"/><path d="M3.344 8.586q.041-.09.09-.18c.191-.023.312.024.25.328-.137-.058-.239-.101-.34-.148" style="stroke:none;fill-rule:nonzero;fill:#3b3838;fill-opacity:1"/></g></g><path d="M65.34 13.707v10.02h3.953c4.012 0 6.562-1.524 6.562-5.164 0-3.36-2.55-4.856-6.562-4.856Zm3.953-1.617c4.977 0 8.617 1.992 8.617 6.473 0 4.851-3.61 6.78-8.617 6.78H65.34v8.06c0 .59-.156.714-.746.714h-.5c-.621 0-.746-.125-.746-.715V12.898c0-.683.125-.808.808-.808zM100.156 33.465c0 .527-.125.652-.652.652h-1.027c-.344 0-.563-.062-.715-.344l-9.555-14.277c-1.18-1.773-2.52-3.734-3.36-5.414.157 2.02.157 4.23.157 6.285v13.098c0 .527-.125.652-.684.652h-.468c-.559 0-.684-.125-.684-.652v-20.66c0-.621.094-.715.777-.715h.996c.496 0 .653.156 1.09.87l10.547 15.774c.684 1.028 1.43 2.461 2.02 3.578-.153-1.148-.246-2.984-.246-4.136V12.805c0-.59.125-.715.746-.715h.343c.59 0 .715.125.715.715zM119.66 22.887h6.227c.746 0 .777.093.777.87v8.4c0 .593-.094.78-.625.964-2.734 1.027-4.977 1.402-7.652 1.402-8.742 0-12.32-4.668-12.32-11.296 0-7.153 3.886-11.512 12.382-11.512 3.766 0 6.067.87 7.344 1.71.652.47.746 1.122.746 1.403 0 .34-.062.559-.406.402-1.68-.87-3.824-1.832-7.559-1.832-7.344 0-10.426 3.637-10.426 9.829 0 5.82 2.926 9.586 10.239 9.586 1.554 0 3.89-.126 6.316-1.122v-7.156h-4.324c-.902 0-1.434-.527-1.434-1.246 0-.371.157-.402.715-.402" style="stroke:none;fill-rule:nonzero;fill:#171514;fill-opacity:1"/><path d="M139.305 25.684h9.547l-4.758-11.579Zm10.246 1.71h-10.942l-2.507 6.122c-.22.507-.38.601-.95.601h-.668c-.472 0-.632-.191-.445-.633l8.883-21.25c.187-.476.316-.57.918-.57h.57c.606 0 .73.16.89.57l8.848 21.25c.16.442 0 .633-.414.633h-.824c-.539 0-.664-.094-.855-.633zM160.777 20.926v12.43c0 .667-.129.761-.761.761h-.38c-.667 0-.792-.094-.792-.762V20.102c0-.508.031-.668.41-.668 1.078 0 1.523.476 1.523 1.492m-1.015-8.406c.793 0 1.3.445 1.3 1.14 0 .668-.507 1.113-1.3 1.113-.7 0-1.203-.445-1.203-1.113 0-.695.504-1.14 1.203-1.14M168.895 27.3v6.055c0 .668-.125.762-.758.762h-.383c-.664 0-.793-.094-.793-.762V20.102c0-.508.031-.668.383-.668 1.078 0 1.55.476 1.55 1.492v1.586c.86-2.508 2.508-3.395 4.633-3.395 1.965 0 2.473.633 2.473 1.461 0 .473-.031.57-.445.473-.73-.156-1.172-.254-1.965-.254-3.11 0-4.63 2.476-4.695 6.504" style="stroke:none;fill-rule:nonzero;fill:#666868;fill-opacity:1"/></svg>