<?xml version="1.0" encoding="UTF-8"?>
<svg xmlns="http://www.w3.org/2000/svg" xmlns:xlink="http://www.w3.org/1999/xlink" width="176pt" height="29.09pt" viewBox="0 0 176 29.09" version="1.1">
<defs>
<clipPath id="clip1">
  <path d="M 2 0 L 37 0 L 37 29 L 2 29 Z M 2 0 "/>
</clipPath>
<clipPath id="clip2">
  <path d="M 36.851562 11.070312 C 37.007812 10.605469 36.851562 10.214844 36.230469 9.554688 C 35.605469 8.890625 34.554688 8.421875 34.554688 8.421875 C 34.554688 8.152344 33.230469 7.800781 33.230469 7.800781 C 33.230469 7.371094 32.800781 7.410156 32.53125 7.371094 C 32.257812 7.332031 32.488281 7.136719 31.75 7.214844 C 31.011719 7.292969 30.386719 7.097656 30.386719 7.097656 C 30.386719 7.097656 29.570312 7.332031 29.023438 6.867188 C 28.476562 6.398438 28.324219 6.828125 27.699219 6.789062 C 27.078125 6.75 26.453125 7.058594 26.453125 7.058594 C 26.453125 6.046875 25.984375 5.699219 26.140625 4.488281 C 26.296875 3.28125 26.570312 2.699219 25.867188 1.804688 C 25.167969 0.90625 24.117188 1.257812 24.117188 1.257812 C 23.339844 0.363281 22.402344 0.789062 22.402344 0.789062 C 22.402344 0.789062 21.859375 -0.0273438 21.429688 0.0117188 C 21 0.0507812 20.066406 0.0507812 20.066406 0.0507812 L 19.480469 0.441406 C 19.210938 0.128906 18.199219 0.246094 18.199219 0.246094 C 17.964844 -0.222656 17.496094 0.128906 16.988281 0.128906 C 16.484375 0.128906 16.054688 0.632812 15.742188 0.984375 C 15.433594 1.335938 15.042969 1.453125 14.691406 1.296875 C 14.339844 1.140625 13.679688 1.6875 13.679688 1.6875 C 13.679688 1.6875 13.679688 1.804688 13.015625 2.660156 C 12.355469 3.515625 12.785156 4.179688 12.394531 4.566406 C 12.003906 4.957031 11.613281 6.085938 11.613281 6.710938 C 11.613281 7.332031 11.613281 7.722656 11.148438 8.304688 C 10.679688 8.890625 10.796875 9.707031 10.796875 9.707031 C 10.136719 9.046875 9.355469 9.203125 9.355469 9.203125 C 9.355469 9.203125 9.238281 9.359375 8.5 8.8125 C 7.757812 8.269531 7.410156 8.421875 7.097656 8.421875 C 6.785156 8.421875 6.472656 8.8125 5.929688 8.460938 C 5.382812 8.113281 5.34375 8.539062 4.992188 8.539062 C 4.644531 8.539062 4.644531 8.8125 3.902344 9.554688 C 3.164062 10.292969 3.476562 10.488281 3.164062 10.839844 C 2.851562 11.1875 3.320312 11.421875 2.65625 11.890625 C 1.996094 12.355469 2.539062 13.058594 2.539062 14.070312 C 2.542969 15.082031 3.746094 15.980469 3.746094 15.980469 C 3.671875 16.757812 4.488281 17.109375 4.488281 17.109375 C 4.253906 17.730469 5.226562 18.160156 6.007812 18.511719 C 6.785156 18.859375 7.449219 19.445312 8.265625 19.914062 C 8.6875 20.152344 8.835938 20.433594 8.886719 20.648438 C 8.933594 20.652344 8.976562 20.644531 9.019531 20.632812 C 9.167969 20.589844 9.589844 20.734375 9.488281 20.910156 C 9.386719 21.085938 9.5625 20.984375 9.734375 21.128906 C 9.910156 21.277344 9.941406 21.246094 9.941406 21.507812 C 9.941406 21.773438 9.925781 21.890625 10.40625 21.949219 C 10.40625 21.949219 10.671875 21.902344 10.800781 21.992188 C 10.933594 22.078125 10.992188 22.121094 10.785156 22.269531 C 10.582031 22.414062 10.363281 22.605469 10.453125 22.898438 C 10.539062 23.1875 10.613281 23.421875 10.480469 23.699219 C 10.347656 23.976562 10.683594 24.707031 9.941406 24.679688 C 9.5625 24.664062 9.414062 24.601562 9.3125 24.539062 C 9.480469 25.734375 10.164062 25.683594 10.367188 26.027344 C 10.601562 26.417969 10.835938 26.535156 11.1875 26.535156 C 11.535156 26.535156 11.574219 26.574219 11.730469 26.84375 C 11.886719 27.117188 12.667969 27.703125 13.210938 27.703125 C 13.757812 27.703125 13.875 27.742188 14.148438 27.933594 C 14.417969 28.128906 15.121094 27.972656 15.820312 27.972656 C 16.523438 27.972656 16.5625 27.625 16.988281 27.507812 C 17.417969 27.390625 18.546875 27.507812 18.859375 27.273438 C 18.996094 27.171875 19.246094 27.054688 19.488281 26.957031 C 19.503906 26.882812 19.542969 26.792969 19.625 26.679688 C 19.625 26.679688 19.929688 26.488281 20.136719 26.519531 C 20.136719 26.519531 20.25 26.109375 20.660156 26.023438 C 21.070312 25.933594 20.980469 25.773438 20.980469 25.539062 C 20.980469 25.304688 21.1875 25.234375 21.417969 25.480469 C 21.652344 25.730469 21.859375 25.789062 22.179688 25.789062 C 22.5 25.789062 22.46875 25.480469 22.675781 25.527344 C 22.878906 25.570312 22.96875 25.539062 23.128906 25.773438 C 23.289062 26.007812 23.304688 26.257812 23.539062 26.386719 C 23.609375 26.429688 23.660156 26.472656 23.695312 26.515625 C 23.964844 26.546875 24.203125 26.59375 24.390625 26.648438 C 25.242188 26.914062 25.324219 26.882812 25.949219 26.882812 C 26.570312 26.882812 27.386719 26.765625 27.699219 26.574219 C 28.011719 26.378906 28.710938 26.300781 29.84375 25.949219 C 30.972656 25.597656 30.894531 24.273438 30.894531 24.273438 C 31.425781 24.117188 31.65625 23.75 31.757812 23.425781 C 31.691406 23.394531 31.628906 23.339844 31.570312 23.246094 C 31.292969 22.808594 30.824219 22.472656 31.511719 21.976562 C 31.511719 21.976562 31.175781 21.757812 31.101562 21.582031 C 31.03125 21.40625 30.519531 21.582031 31 21.011719 C 31.480469 20.441406 31.101562 20.441406 31.042969 20.195312 C 30.988281 19.949219 30.621094 19.707031 31.136719 19.390625 C 30.984375 19.195312 30.746094 19.179688 30.347656 19.054688 C 29.726562 18.859375 30.347656 18.746094 30.621094 18.589844 C 30.894531 18.433594 31.398438 18.316406 32.140625 18.199219 C 32.878906 18.082031 33.074219 17.578125 33.269531 17.34375 C 33.464844 17.109375 33.816406 16.71875 34.320312 16.058594 C 34.828125 15.394531 35.175781 15.238281 35.917969 14.421875 C 36.65625 13.601562 36.191406 13.527344 36.5 13.136719 C 36.8125 12.746094 36.421875 12.433594 36.8125 11.890625 C 37.203125 11.34375 36.851562 11.070312 36.851562 11.070312 "/>
</clipPath>
<radialGradient id="radial0" gradientUnits="userSpaceOnUse" cx="0" cy="0" fx="0" fy="0" r="15.7624" gradientTransform="matrix(1,0,0,1,19.6631,14.0172)">
<stop offset="0" style="stop-color:rgb(99.987793%,99.856567%,99.934387%);stop-opacity:1;"/>
<stop offset="0.00390625" style="stop-color:rgb(99.966431%,99.56665%,99.803162%);stop-opacity:1;"/>
<stop offset="0.0078125" style="stop-color:rgb(99.945068%,99.276733%,99.673462%);stop-opacity:1;"/>
<stop offset="0.0117188" style="stop-color:rgb(99.923706%,98.988342%,99.542236%);stop-opacity:1;"/>
<stop offset="0.015625" style="stop-color:rgb(99.89624%,98.605347%,99.327087%);stop-opacity:1;"/>
<stop offset="0.0195312" style="stop-color:rgb(99.859619%,98.123169%,99.020386%);stop-opacity:1;"/>
<stop offset="0.0234375" style="stop-color:rgb(99.824524%,97.636414%,98.709106%);stop-opacity:1;"/>
<stop offset="0.0273438" style="stop-color:rgb(99.787903%,97.149658%,98.397827%);stop-opacity:1;"/>
<stop offset="0.03125" style="stop-color:rgb(99.749756%,96.620178%,98.025513%);stop-opacity:1;"/>
<stop offset="0.0351562" style="stop-color:rgb(99.707031%,96.038818%,97.58606%);stop-opacity:1;"/>
<stop offset="0.0390625" style="stop-color:rgb(99.662781%,95.451355%,97.138977%);stop-opacity:1;"/>
<stop offset="0.0429688" style="stop-color:rgb(99.620056%,94.865417%,96.69342%);stop-opacity:1;"/>
<stop offset="0.046875" style="stop-color:rgb(99.580383%,94.320679%,96.304321%);stop-opacity:1;"/>
<stop offset="0.0507812" style="stop-color:rgb(99.543762%,93.823242%,95.983887%);stop-opacity:1;"/>
<stop offset="0.0546875" style="stop-color:rgb(99.507141%,93.339539%,95.677185%);stop-opacity:1;"/>
<stop offset="0.0585938" style="stop-color:rgb(99.472046%,92.854309%,95.372009%);stop-opacity:1;"/>
<stop offset="0.0625" style="stop-color:rgb(99.433899%,92.330933%,95.016479%);stop-opacity:1;"/>
<stop offset="0.0664062" style="stop-color:rgb(99.391174%,91.760254%,94.593811%);stop-opacity:1;"/>
<stop offset="0.0703125" style="stop-color:rgb(99.34845%,91.174316%,94.155884%);stop-opacity:1;"/>
<stop offset="0.0742188" style="stop-color:rgb(99.305725%,90.591431%,93.719482%);stop-opacity:1;"/>
<stop offset="0.078125" style="stop-color:rgb(99.261475%,90.007019%,93.283081%);stop-opacity:1;"/>
<stop offset="0.0820312" style="stop-color:rgb(99.21875%,89.424133%,92.849731%);stop-opacity:1;"/>
<stop offset="0.0859375" style="stop-color:rgb(99.176025%,88.839722%,92.416382%);stop-opacity:1;"/>
<stop offset="0.0898438" style="stop-color:rgb(99.133301%,88.258362%,91.986084%);stop-opacity:1;"/>
<stop offset="0.09375" style="stop-color:rgb(99.092102%,87.705994%,91.595459%);stop-opacity:1;"/>
<stop offset="0.0976562" style="stop-color:rgb(99.055481%,87.203979%,91.273499%);stop-opacity:1;"/>
<stop offset="0.101562" style="stop-color:rgb(99.01886%,86.720276%,90.975952%);stop-opacity:1;"/>
<stop offset="0.105469" style="stop-color:rgb(98.983765%,86.238098%,90.679932%);stop-opacity:1;"/>
<stop offset="0.109375" style="stop-color:rgb(98.947144%,85.75592%,90.359497%);stop-opacity:1;"/>
<stop offset="0.113281" style="stop-color:rgb(98.912048%,85.270691%,89.994812%);stop-opacity:1;"/>
<stop offset="0.117188" style="stop-color:rgb(98.875427%,84.785461%,89.611816%);stop-opacity:1;"/>
<stop offset="0.121094" style="stop-color:rgb(98.840332%,84.301758%,89.228821%);stop-opacity:1;"/>
<stop offset="0.125" style="stop-color:rgb(98.782349%,83.811951%,88.848877%);stop-opacity:1;"/>
<stop offset="0.128906" style="stop-color:rgb(98.678589%,83.311462%,88.465881%);stop-opacity:1;"/>
<stop offset="0.132812" style="stop-color:rgb(98.550415%,82.804871%,88.085938%);stop-opacity:1;"/>
<stop offset="0.136719" style="stop-color:rgb(98.423767%,82.299805%,87.704468%);stop-opacity:1;"/>
<stop offset="0.140625" style="stop-color:rgb(98.33374%,81.785583%,87.336731%);stop-opacity:1;"/>
<stop offset="0.144531" style="stop-color:rgb(98.332214%,81.245422%,86.99646%);stop-opacity:1;"/>
<stop offset="0.148438" style="stop-color:rgb(98.381042%,80.693054%,86.671448%);stop-opacity:1;"/>
<stop offset="0.152344" style="stop-color:rgb(98.429871%,80.137634%,86.346436%);stop-opacity:1;"/>
<stop offset="0.15625" style="stop-color:rgb(98.461914%,79.595947%,86.012268%);stop-opacity:1;"/>
<stop offset="0.160156" style="stop-color:rgb(98.454285%,79.090881%,85.655212%);stop-opacity:1;"/>
<stop offset="0.164062" style="stop-color:rgb(98.417664%,78.610229%,85.28595%);stop-opacity:1;"/>
<stop offset="0.167969" style="stop-color:rgb(98.382568%,78.128052%,84.915161%);stop-opacity:1;"/>
<stop offset="0.171875" style="stop-color:rgb(98.345947%,77.6474%,84.54895%);stop-opacity:1;"/>
<stop offset="0.175781" style="stop-color:rgb(98.310852%,77.168274%,84.181213%);stop-opacity:1;"/>
<stop offset="0.179688" style="stop-color:rgb(98.275757%,76.687622%,83.816528%);stop-opacity:1;"/>
<stop offset="0.183594" style="stop-color:rgb(98.239136%,76.20697%,83.450317%);stop-opacity:1;"/>
<stop offset="0.1875" style="stop-color:rgb(98.202515%,75.717163%,83.084106%);stop-opacity:1;"/>
<stop offset="0.191406" style="stop-color:rgb(98.162842%,75.178528%,82.695007%);stop-opacity:1;"/>
<stop offset="0.195312" style="stop-color:rgb(98.120117%,74.604797%,82.296753%);stop-opacity:1;"/>
<stop offset="0.199219" style="stop-color:rgb(98.077393%,74.029541%,81.895447%);stop-opacity:1;"/>
<stop offset="0.203125" style="stop-color:rgb(98.034668%,73.46344%,81.50177%);stop-opacity:1;"/>
<stop offset="0.207031" style="stop-color:rgb(97.996521%,72.947693%,81.12793%);stop-opacity:1;"/>
<stop offset="0.210938" style="stop-color:rgb(97.961426%,72.470093%,80.7724%);stop-opacity:1;"/>
<stop offset="0.214844" style="stop-color:rgb(97.926331%,71.992493%,80.41687%);stop-opacity:1;"/>
<stop offset="0.21875" style="stop-color:rgb(97.889709%,71.510315%,80.055237%);stop-opacity:1;"/>
<stop offset="0.222656" style="stop-color:rgb(97.850037%,70.980835%,79.637146%);stop-opacity:1;"/>
<stop offset="0.226562" style="stop-color:rgb(97.807312%,70.40863%,79.167175%);stop-opacity:1;"/>
<stop offset="0.230469" style="stop-color:rgb(97.764587%,69.837952%,78.69873%);stop-opacity:1;"/>
<stop offset="0.234375" style="stop-color:rgb(97.721863%,69.268799%,78.233337%);stop-opacity:1;"/>
<stop offset="0.238281" style="stop-color:rgb(97.636414%,68.739319%,77.789307%);stop-opacity:1;"/>
<stop offset="0.242188" style="stop-color:rgb(97.512817%,68.249512%,77.365112%);stop-opacity:1;"/>
<stop offset="0.246094" style="stop-color:rgb(97.389221%,67.76123%,76.940918%);stop-opacity:1;"/>
<stop offset="0.25" style="stop-color:rgb(97.264099%,67.271423%,76.519775%);stop-opacity:1;"/>
<stop offset="0.253906" style="stop-color:rgb(97.227478%,66.798401%,76.139832%);stop-opacity:1;"/>
<stop offset="0.257812" style="stop-color:rgb(97.280884%,66.340637%,75.799561%);stop-opacity:1;"/>
<stop offset="0.261719" style="stop-color:rgb(97.332764%,65.882874%,75.45929%);stop-opacity:1;"/>
<stop offset="0.265625" style="stop-color:rgb(97.386169%,65.423584%,75.12207%);stop-opacity:1;"/>
<stop offset="0.269531" style="stop-color:rgb(97.396851%,64.959717%,74.784851%);stop-opacity:1;"/>
<stop offset="0.273438" style="stop-color:rgb(97.364807%,64.48822%,74.449158%);stop-opacity:1;"/>
<stop offset="0.277344" style="stop-color:rgb(97.329712%,64.016724%,74.113464%);stop-opacity:1;"/>
<stop offset="0.28125" style="stop-color:rgb(97.294617%,63.545227%,73.780823%);stop-opacity:1;"/>
<stop offset="0.285156" style="stop-color:rgb(97.257996%,63.072205%,73.478699%);stop-opacity:1;"/>
<stop offset="0.289062" style="stop-color:rgb(97.2229%,62.600708%,73.217773%);stop-opacity:1;"/>
<stop offset="0.292969" style="stop-color:rgb(97.187805%,62.129211%,72.961426%);stop-opacity:1;"/>
<stop offset="0.296875" style="stop-color:rgb(97.151184%,61.657715%,72.705078%);stop-opacity:1;"/>
<stop offset="0.300781" style="stop-color:rgb(97.08252%,61.181641%,72.392273%);stop-opacity:1;"/>
<stop offset="0.304688" style="stop-color:rgb(96.969604%,60.702515%,72.0047%);stop-opacity:1;"/>
<stop offset="0.308594" style="stop-color:rgb(96.84906%,60.223389%,71.604919%);stop-opacity:1;"/>
<stop offset="0.3125" style="stop-color:rgb(96.72699%,59.745789%,71.208191%);stop-opacity:1;"/>
<stop offset="0.316406" style="stop-color:rgb(96.669006%,59.274292%,70.835876%);stop-opacity:1;"/>
<stop offset="0.320312" style="stop-color:rgb(96.697998%,58.815002%,70.503235%);stop-opacity:1;"/>
<stop offset="0.324219" style="stop-color:rgb(96.748352%,58.357239%,70.181274%);stop-opacity:1;"/>
<stop offset="0.328125" style="stop-color:rgb(96.798706%,57.901001%,69.859314%);stop-opacity:1;"/>
<stop offset="0.332031" style="stop-color:rgb(96.791077%,57.435608%,69.515991%);stop-opacity:1;"/>
<stop offset="0.335938" style="stop-color:rgb(96.699524%,56.964111%,69.137573%);stop-opacity:1;"/>
<stop offset="0.339844" style="stop-color:rgb(96.578979%,56.489563%,68.75%);stop-opacity:1;"/>
<stop offset="0.34375" style="stop-color:rgb(96.459961%,56.016541%,68.365479%);stop-opacity:1;"/>
<stop offset="0.347656" style="stop-color:rgb(96.363831%,55.54657%,68.003845%);stop-opacity:1;"/>
<stop offset="0.351562" style="stop-color:rgb(96.311951%,55.079651%,67.675781%);stop-opacity:1;"/>
<stop offset="0.355469" style="stop-color:rgb(96.276855%,54.614258%,67.366028%);stop-opacity:1;"/>
<stop offset="0.359375" style="stop-color:rgb(96.24176%,54.150391%,67.054749%);stop-opacity:1;"/>
<stop offset="0.363281" style="stop-color:rgb(96.206665%,53.686523%,66.746521%);stop-opacity:1;"/>
<stop offset="0.367188" style="stop-color:rgb(96.173096%,53.222656%,66.436768%);stop-opacity:1;"/>
<stop offset="0.371094" style="stop-color:rgb(96.138%,52.758789%,66.130066%);stop-opacity:1;"/>
<stop offset="0.375" style="stop-color:rgb(96.102905%,52.296448%,65.823364%);stop-opacity:1;"/>
<stop offset="0.378906" style="stop-color:rgb(96.089172%,51.835632%,65.518188%);stop-opacity:1;"/>
<stop offset="0.382812" style="stop-color:rgb(96.116638%,51.377869%,65.213013%);stop-opacity:1;"/>
<stop offset="0.386719" style="stop-color:rgb(96.165466%,50.921631%,64.907837%);stop-opacity:1;"/>
<stop offset="0.390625" style="stop-color:rgb(96.214294%,50.466919%,64.604187%);stop-opacity:1;"/>
<stop offset="0.394531" style="stop-color:rgb(96.246338%,50.010681%,64.28833%);stop-opacity:1;"/>
<stop offset="0.398438" style="stop-color:rgb(96.234131%,49.551392%,63.94043%);stop-opacity:1;"/>
<stop offset="0.402344" style="stop-color:rgb(96.200562%,49.092102%,63.575745%);stop-opacity:1;"/>
<stop offset="0.40625" style="stop-color:rgb(96.165466%,48.634338%,63.21106%);stop-opacity:1;"/>
<stop offset="0.410156" style="stop-color:rgb(96.130371%,48.193359%,62.85553%);stop-opacity:1;"/>
<stop offset="0.414062" style="stop-color:rgb(96.101379%,47.799683%,62.516785%);stop-opacity:1;"/>
<stop offset="0.417969" style="stop-color:rgb(96.072388%,47.436523%,62.190247%);stop-opacity:1;"/>
<stop offset="0.421875" style="stop-color:rgb(96.044922%,47.073364%,61.863708%);stop-opacity:1;"/>
<stop offset="0.425781" style="stop-color:rgb(96.01593%,46.696472%,61.5448%);stop-opacity:1;"/>
<stop offset="0.429688" style="stop-color:rgb(95.983887%,46.270752%,61.242676%);stop-opacity:1;"/>
<stop offset="0.433594" style="stop-color:rgb(95.948792%,45.809937%,60.955811%);stop-opacity:1;"/>
<stop offset="0.4375" style="stop-color:rgb(95.913696%,45.352173%,60.667419%);stop-opacity:1;"/>
<stop offset="0.441406" style="stop-color:rgb(95.878601%,44.90509%,60.379028%);stop-opacity:1;"/>
<stop offset="0.445312" style="stop-color:rgb(95.848083%,44.506836%,60.073853%);stop-opacity:1;"/>
<stop offset="0.449219" style="stop-color:rgb(95.820618%,44.145203%,59.757996%);stop-opacity:1;"/>
<stop offset="0.453125" style="stop-color:rgb(95.793152%,43.785095%,59.442139%);stop-opacity:1;"/>
<stop offset="0.457031" style="stop-color:rgb(95.758057%,43.417358%,59.126282%);stop-opacity:1;"/>
<stop offset="0.460938" style="stop-color:rgb(95.680237%,43.002319%,58.796692%);stop-opacity:1;"/>
<stop offset="0.464844" style="stop-color:rgb(95.562744%,42.544556%,58.459473%);stop-opacity:1;"/>
<stop offset="0.46875" style="stop-color:rgb(95.446777%,42.09137%,58.122253%);stop-opacity:1;"/>
<stop offset="0.472656" style="stop-color:rgb(95.330811%,41.638184%,57.788086%);stop-opacity:1;"/>
<stop offset="0.476562" style="stop-color:rgb(95.214844%,41.186523%,57.453918%);stop-opacity:1;"/>
<stop offset="0.480469" style="stop-color:rgb(95.100403%,40.734863%,57.124329%);stop-opacity:1;"/>
<stop offset="0.484375" style="stop-color:rgb(94.984436%,40.283203%,56.794739%);stop-opacity:1;"/>
<stop offset="0.488281" style="stop-color:rgb(94.871521%,39.834595%,56.466675%);stop-opacity:1;"/>
<stop offset="0.492188" style="stop-color:rgb(94.844055%,39.43634%,56.152344%);stop-opacity:1;"/>
<stop offset="0.496094" style="stop-color:rgb(94.898987%,39.082336%,55.85022%);stop-opacity:1;"/>
<stop offset="0.5" style="stop-color:rgb(94.952393%,38.728333%,55.548096%);stop-opacity:1;"/>
<stop offset="0.503906" style="stop-color:rgb(95.005798%,38.375854%,55.249023%);stop-opacity:1;"/>
<stop offset="0.507812" style="stop-color:rgb(95.014954%,37.976074%,54.937744%);stop-opacity:1;"/>
<stop offset="0.511719" style="stop-color:rgb(94.98291%,37.532043%,54.61731%);stop-opacity:1;"/>
<stop offset="0.515625" style="stop-color:rgb(94.947815%,37.084961%,54.295349%);stop-opacity:1;"/>
<stop offset="0.519531" style="stop-color:rgb(94.914246%,36.639404%,53.97644%);stop-opacity:1;"/>
<stop offset="0.523438" style="stop-color:rgb(94.848633%,36.238098%,53.674316%);stop-opacity:1;"/>
<stop offset="0.527344" style="stop-color:rgb(94.744873%,35.881042%,53.388977%);stop-opacity:1;"/>
<stop offset="0.53125" style="stop-color:rgb(94.638062%,35.528564%,53.106689%);stop-opacity:1;"/>
<stop offset="0.535156" style="stop-color:rgb(94.53125%,35.177612%,52.824402%);stop-opacity:1;"/>
<stop offset="0.539062" style="stop-color:rgb(94.458008%,34.828186%,52.545166%);stop-opacity:1;"/>
<stop offset="0.542969" style="stop-color:rgb(94.424438%,34.477234%,52.262878%);stop-opacity:1;"/>
<stop offset="0.546875" style="stop-color:rgb(94.396973%,34.127808%,51.980591%);stop-opacity:1;"/>
<stop offset="0.550781" style="stop-color:rgb(94.371033%,33.778381%,51.701355%);stop-opacity:1;"/>
<stop offset="0.554688" style="stop-color:rgb(94.343567%,33.428955%,51.423645%);stop-opacity:1;"/>
<stop offset="0.558594" style="stop-color:rgb(94.317627%,33.079529%,51.145935%);stop-opacity:1;"/>
<stop offset="0.5625" style="stop-color:rgb(94.290161%,32.731628%,50.869751%);stop-opacity:1;"/>
<stop offset="0.566406" style="stop-color:rgb(94.264221%,32.382202%,50.595093%);stop-opacity:1;"/>
<stop offset="0.570312" style="stop-color:rgb(94.239807%,32.066345%,50.331116%);stop-opacity:1;"/>
<stop offset="0.574219" style="stop-color:rgb(94.218445%,31.799316%,50.080872%);stop-opacity:1;"/>
<stop offset="0.578125" style="stop-color:rgb(94.200134%,31.542969%,49.835205%);stop-opacity:1;"/>
<stop offset="0.582031" style="stop-color:rgb(94.180298%,31.286621%,49.591064%);stop-opacity:1;"/>
<stop offset="0.585938" style="stop-color:rgb(94.134521%,31.033325%,49.331665%);stop-opacity:1;"/>
<stop offset="0.589844" style="stop-color:rgb(94.050598%,30.786133%,49.047852%);stop-opacity:1;"/>
<stop offset="0.59375" style="stop-color:rgb(93.954468%,30.540466%,48.756409%);stop-opacity:1;"/>
<stop offset="0.597656" style="stop-color:rgb(93.856812%,30.2948%,48.464966%);stop-opacity:1;"/>
<stop offset="0.601562" style="stop-color:rgb(93.782043%,30.046082%,48.190308%);stop-opacity:1;"/>
<stop offset="0.605469" style="stop-color:rgb(93.745422%,29.795837%,47.943115%);stop-opacity:1;"/>
<stop offset="0.609375" style="stop-color:rgb(93.725586%,29.542542%,47.706604%);stop-opacity:1;"/>
<stop offset="0.613281" style="stop-color:rgb(93.70575%,29.289246%,47.471619%);stop-opacity:1;"/>
<stop offset="0.617188" style="stop-color:rgb(93.70575%,29.013062%,47.229004%);stop-opacity:1;"/>
<stop offset="0.621094" style="stop-color:rgb(93.742371%,28.688049%,46.972656%);stop-opacity:1;"/>
<stop offset="0.625" style="stop-color:rgb(93.792725%,28.341675%,46.711731%);stop-opacity:1;"/>
<stop offset="0.628906" style="stop-color:rgb(93.843079%,27.9953%,46.453857%);stop-opacity:1;"/>
<stop offset="0.632812" style="stop-color:rgb(93.878174%,27.670288%,46.202087%);stop-opacity:1;"/>
<stop offset="0.636719" style="stop-color:rgb(93.876648%,27.394104%,45.96405%);stop-opacity:1;"/>
<stop offset="0.640625" style="stop-color:rgb(93.856812%,27.142334%,45.736694%);stop-opacity:1;"/>
<stop offset="0.644531" style="stop-color:rgb(93.836975%,26.89209%,45.509338%);stop-opacity:1;"/>
<stop offset="0.648438" style="stop-color:rgb(93.817139%,26.64032%,45.283508%);stop-opacity:1;"/>
<stop offset="0.652344" style="stop-color:rgb(93.798828%,26.391602%,45.057678%);stop-opacity:1;"/>
<stop offset="0.65625" style="stop-color:rgb(93.778992%,26.139832%,44.833374%);stop-opacity:1;"/>
<stop offset="0.660156" style="stop-color:rgb(93.759155%,25.889587%,44.610596%);stop-opacity:1;"/>
<stop offset="0.664062" style="stop-color:rgb(93.739319%,25.640869%,44.380188%);stop-opacity:1;"/>
<stop offset="0.667969" style="stop-color:rgb(93.719482%,25.396729%,44.12384%);stop-opacity:1;"/>
<stop offset="0.671875" style="stop-color:rgb(93.701172%,25.15564%,43.852234%);stop-opacity:1;"/>
<stop offset="0.675781" style="stop-color:rgb(93.681335%,24.913025%,43.582153%);stop-opacity:1;"/>
<stop offset="0.679688" style="stop-color:rgb(93.652344%,24.671936%,43.319702%);stop-opacity:1;"/>
<stop offset="0.683594" style="stop-color:rgb(93.585205%,24.429321%,43.087769%);stop-opacity:1;"/>
<stop offset="0.6875" style="stop-color:rgb(93.489075%,24.186707%,42.877197%);stop-opacity:1;"/>
<stop offset="0.691406" style="stop-color:rgb(93.39447%,23.945618%,42.668152%);stop-opacity:1;"/>
<stop offset="0.695312" style="stop-color:rgb(93.307495%,23.712158%,42.462158%);stop-opacity:1;"/>
<stop offset="0.699219" style="stop-color:rgb(93.260193%,23.522949%,42.263794%);stop-opacity:1;"/>
<stop offset="0.703125" style="stop-color:rgb(93.247986%,23.365784%,42.071533%);stop-opacity:1;"/>
<stop offset="0.707031" style="stop-color:rgb(93.235779%,23.210144%,41.880798%);stop-opacity:1;"/>
<stop offset="0.710938" style="stop-color:rgb(93.222046%,23.046875%,41.685486%);stop-opacity:1;"/>
<stop offset="0.714844" style="stop-color:rgb(93.206787%,22.843933%,41.455078%);stop-opacity:1;"/>
<stop offset="0.71875" style="stop-color:rgb(93.186951%,22.605896%,41.197205%);stop-opacity:1;"/>
<stop offset="0.722656" style="stop-color:rgb(93.16864%,22.367859%,40.939331%);stop-opacity:1;"/>
<stop offset="0.726562" style="stop-color:rgb(93.15033%,22.134399%,40.686035%);stop-opacity:1;"/>
<stop offset="0.730469" style="stop-color:rgb(93.135071%,21.942139%,40.46936%);stop-opacity:1;"/>
<stop offset="0.734375" style="stop-color:rgb(93.122864%,21.786499%,40.283203%);stop-opacity:1;"/>
<stop offset="0.738281" style="stop-color:rgb(93.109131%,21.632385%,40.098572%);stop-opacity:1;"/>
<stop offset="0.742188" style="stop-color:rgb(93.096924%,21.476746%,39.91394%);stop-opacity:1;"/>
<stop offset="0.746094" style="stop-color:rgb(93.081665%,21.27533%,39.72168%);stop-opacity:1;"/>
<stop offset="0.75" style="stop-color:rgb(93.061829%,21.032715%,39.52179%);stop-opacity:1;"/>
<stop offset="0.753906" style="stop-color:rgb(93.043518%,20.788574%,39.321899%);stop-opacity:1;"/>
<stop offset="0.757812" style="stop-color:rgb(93.023682%,20.547485%,39.123535%);stop-opacity:1;"/>
<stop offset="0.761719" style="stop-color:rgb(93.008423%,20.346069%,38.934326%);stop-opacity:1;"/>
<stop offset="0.765625" style="stop-color:rgb(92.996216%,20.19043%,38.754272%);stop-opacity:1;"/>
<stop offset="0.769531" style="stop-color:rgb(92.984009%,20.037842%,38.575745%);stop-opacity:1;"/>
<stop offset="0.773438" style="stop-color:rgb(92.970276%,19.883728%,38.397217%);stop-opacity:1;"/>
<stop offset="0.777344" style="stop-color:rgb(92.958069%,19.735718%,38.197327%);stop-opacity:1;"/>
<stop offset="0.78125" style="stop-color:rgb(92.945862%,19.589233%,37.976074%);stop-opacity:1;"/>
<stop offset="0.785156" style="stop-color:rgb(92.935181%,19.445801%,37.75177%);stop-opacity:1;"/>
<stop offset="0.789062" style="stop-color:rgb(92.922974%,19.300842%,37.528992%);stop-opacity:1;"/>
<stop offset="0.792969" style="stop-color:rgb(92.910767%,19.154358%,37.32605%);stop-opacity:1;"/>
<stop offset="0.796875" style="stop-color:rgb(92.89856%,19.00177%,37.147522%);stop-opacity:1;"/>
<stop offset="0.800781" style="stop-color:rgb(92.886353%,18.850708%,36.975098%);stop-opacity:1;"/>
<stop offset="0.804688" style="stop-color:rgb(92.87262%,18.69812%,36.801147%);stop-opacity:1;"/>
<stop offset="0.808594" style="stop-color:rgb(92.832947%,18.55011%,36.631775%);stop-opacity:1;"/>
<stop offset="0.8125" style="stop-color:rgb(92.756653%,18.405151%,36.46698%);stop-opacity:1;"/>
<stop offset="0.816406" style="stop-color:rgb(92.669678%,18.263245%,36.302185%);stop-opacity:1;"/>
<stop offset="0.820312" style="stop-color:rgb(92.584229%,18.119812%,36.13739%);stop-opacity:1;"/>
<stop offset="0.824219" style="stop-color:rgb(92.523193%,17.976379%,35.972595%);stop-opacity:1;"/>
<stop offset="0.828125" style="stop-color:rgb(92.498779%,17.825317%,35.804749%);stop-opacity:1;"/>
<stop offset="0.832031" style="stop-color:rgb(92.486572%,17.675781%,35.636902%);stop-opacity:1;"/>
<stop offset="0.835938" style="stop-color:rgb(92.474365%,17.526245%,35.470581%);stop-opacity:1;"/>
<stop offset="0.839844" style="stop-color:rgb(92.462158%,17.376709%,35.30426%);stop-opacity:1;"/>
<stop offset="0.84375" style="stop-color:rgb(92.449951%,17.225647%,35.137939%);stop-opacity:1;"/>
<stop offset="0.847656" style="stop-color:rgb(92.43927%,17.077637%,34.971619%);stop-opacity:1;"/>
<stop offset="0.851562" style="stop-color:rgb(92.427063%,16.928101%,34.806824%);stop-opacity:1;"/>
<stop offset="0.855469" style="stop-color:rgb(92.416382%,16.804504%,34.648132%);stop-opacity:1;"/>
<stop offset="0.859375" style="stop-color:rgb(92.408752%,16.723633%,34.494019%);stop-opacity:1;"/>
<stop offset="0.863281" style="stop-color:rgb(92.404175%,16.662598%,34.344482%);stop-opacity:1;"/>
<stop offset="0.867188" style="stop-color:rgb(92.398071%,16.601562%,34.19342%);stop-opacity:1;"/>
<stop offset="0.871094" style="stop-color:rgb(92.391968%,16.514587%,34.05304%);stop-opacity:1;"/>
<stop offset="0.875" style="stop-color:rgb(92.373657%,16.30249%,33.87146%);stop-opacity:1;"/>
<stop offset="0.882812" style="stop-color:rgb(92.355347%,16.067505%,33.699036%);stop-opacity:1;"/>
<stop offset="0.886719" style="stop-color:rgb(92.344666%,15.933228%,33.576965%);stop-opacity:1;"/>
<stop offset="0.890625" style="stop-color:rgb(92.337036%,15.844727%,33.43811%);stop-opacity:1;"/>
<stop offset="0.894531" style="stop-color:rgb(92.332458%,15.785217%,33.291626%);stop-opacity:1;"/>
<stop offset="0.898438" style="stop-color:rgb(92.326355%,15.724182%,33.143616%);stop-opacity:1;"/>
<stop offset="0.902344" style="stop-color:rgb(92.320251%,15.644836%,33.004761%);stop-opacity:1;"/>
<stop offset="0.90625" style="stop-color:rgb(92.30957%,15.518188%,32.881165%);stop-opacity:1;"/>
<stop offset="0.910156" style="stop-color:rgb(92.29126%,15.286255%,32.714844%);stop-opacity:1;"/>
<stop offset="0.917969" style="stop-color:rgb(92.269897%,15.029907%,32.499695%);stop-opacity:1;"/>
<stop offset="0.925781" style="stop-color:rgb(92.256165%,14.863586%,32.296753%);stop-opacity:1;"/>
<stop offset="0.933594" style="stop-color:rgb(92.250061%,14.781189%,32.104492%);stop-opacity:1;"/>
<stop offset="0.941406" style="stop-color:rgb(92.248535%,14.775085%,31.967163%);stop-opacity:1;"/>
<stop offset="0.945312" style="stop-color:rgb(92.248535%,14.793396%,31.878662%);stop-opacity:1;"/>
<stop offset="0.949219" style="stop-color:rgb(92.248535%,14.804077%,31.788635%);stop-opacity:1;"/>
<stop offset="0.953125" style="stop-color:rgb(92.245483%,14.770508%,31.694031%);stop-opacity:1;"/>
<stop offset="0.957031" style="stop-color:rgb(92.236328%,14.666748%,31.547546%);stop-opacity:1;"/>
<stop offset="0.964844" style="stop-color:rgb(92.225647%,14.526367%,31.376648%);stop-opacity:1;"/>
<stop offset="0.972656" style="stop-color:rgb(92.210388%,14.34021%,31.22406%);stop-opacity:1;"/>
<stop offset="0.984375" style="stop-color:rgb(92.201233%,14.24408%,31.056213%);stop-opacity:1;"/>
<stop offset="1" style="stop-color:rgb(92.202759%,14.26239%,30.967712%);stop-opacity:1;"/>
</radialGradient>
<clipPath id="clip3">
  <path d="M 19 25 L 24 25 L 24 29.089844 L 19 29.089844 Z M 19 25 "/>
</clipPath>
</defs>
<g id="surface1">
<path style=" stroke:none;fill-rule:evenodd;fill:rgb(11.779785%,14.601135%,31.152344%);fill-opacity:1;" d="M 50.523438 20.234375 L 50.242188 22.4375 C 50.242188 22.4375 49.644531 22.996094 47.246094 22.996094 C 45.46875 22.996094 41.503906 22.0625 40.816406 18.167969 C 40.128906 14.273438 42.976562 11.125 47.601562 11.125 C 47.601562 11.125 48.988281 11.023438 50.074219 11.460938 L 49.824219 13.320312 C 49.824219 13.320312 49.007812 12.878906 47.105469 12.878906 C 45.207031 12.878906 42.066406 14.21875 42.792969 18.300781 C 43.15625 20.328125 46.96875 22.851562 50.523438 20.234375 Z M 168.109375 22.765625 L 168.183594 20.304688 C 168.183594 20.304688 169.328125 22.277344 171.683594 22.277344 C 174.042969 22.277344 174.296875 20.144531 172.601562 18.976562 C 170.53125 17.550781 168.4375 16.675781 168.09375 14.730469 C 167.75 12.789062 170.964844 10.070312 175.441406 12.335938 L 174.90625 14.539062 C 174.90625 14.539062 174.171875 12.886719 172.386719 12.886719 C 170.601562 12.886719 169.289062 14.472656 171.585938 15.929688 C 173.878906 17.386719 175.664062 18.296875 175.960938 19.980469 C 176.257812 21.664062 174.8125 23.574219 172.042969 23.574219 C 169.589844 23.574219 168.109375 22.765625 168.109375 22.765625 Z M 160.675781 22.148438 C 160.675781 22.148438 160.609375 20.132812 160.546875 18.097656 C 160.96875 17.996094 161.507812 17.90625 162.09375 17.90625 C 163.398438 17.90625 164.058594 18.585938 164.058594 18.585938 L 165.125 16.675781 L 160.503906 16.675781 C 160.46875 15.503906 160.441406 14.5 160.4375 14.117188 C 160.421875 12.949219 161.144531 12.886719 161.144531 12.886719 C 161.199219 12.886719 161.460938 12.886719 162.511719 12.886719 C 164.136719 12.886719 165.191406 13.628906 165.191406 13.628906 L 166.171875 11.429688 L 157.957031 11.429688 C 158.507812 11.851562 158.515625 12.789062 158.515625 12.789062 C 158.515625 12.789062 158.539062 19.265625 158.539062 20.886719 C 158.539062 22.503906 158.085938 22.992188 158.085938 22.992188 L 166.109375 22.992188 L 166.9375 20.625 C 165.980469 21.890625 163.804688 22.019531 163.804688 22.019531 Z M 59.640625 11.460938 C 60.042969 11.945312 60.054688 12.917969 60.054688 12.917969 C 60.054688 12.917969 60.070312 14.527344 60.082031 16.351562 L 54.582031 16.351562 C 54.578125 14.96875 54.582031 13.679688 54.59375 13.175781 C 54.617188 11.882812 55.054688 11.460938 55.054688 11.460938 L 52.125 11.460938 C 52.527344 11.945312 52.539062 12.917969 52.539062 12.917969 C 52.539062 12.917969 52.582031 18.394531 52.585938 20.59375 C 52.59375 22.796875 52.113281 22.960938 52.113281 22.960938 L 54.882812 22.960938 C 54.519531 21.792969 54.59375 20.949219 54.59375 20.949219 C 54.59375 20.949219 54.585938 19.371094 54.582031 17.617188 L 60.089844 17.613281 C 60.09375 18.757812 60.101562 19.859375 60.101562 20.59375 C 60.109375 22.796875 59.628906 22.960938 59.628906 22.960938 L 62.398438 22.960938 C 62.035156 21.792969 62.109375 20.949219 62.109375 20.949219 C 62.109375 20.949219 62.082031 14.472656 62.109375 13.175781 C 62.136719 11.882812 62.570312 11.460938 62.570312 11.460938 Z M 136.902344 21.890625 L 133.246094 21.890625 C 133.21875 20.203125 133.121094 14.285156 133.144531 13.175781 C 133.171875 11.882812 133.605469 11.460938 133.605469 11.460938 L 130.675781 11.460938 C 131.082031 11.945312 131.09375 12.917969 131.09375 12.917969 C 131.09375 12.917969 131.136719 18.394531 131.140625 20.59375 C 131.144531 22.796875 130.664062 22.960938 130.664062 22.960938 L 138.96875 22.960938 L 139.863281 20.464844 C 138.648438 22.050781 136.902344 21.890625 136.902344 21.890625 Z M 127.855469 21.695312 L 123.796875 17.289062 C 125.46875 16.835938 126.5625 15.832031 126.183594 13.664062 C 125.800781 11.492188 122.253906 11.445312 122.253906 11.445312 L 118.105469 11.445312 C 118.507812 11.929688 118.523438 12.917969 118.523438 12.917969 C 118.523438 12.917969 118.5625 18.394531 118.570312 20.59375 C 118.578125 22.796875 118.097656 22.960938 118.097656 22.960938 L 120.867188 22.960938 C 120.503906 21.792969 120.574219 20.949219 120.574219 20.949219 C 120.574219 20.949219 120.550781 14.472656 120.574219 13.175781 C 120.574219 13.136719 120.578125 13.105469 120.582031 13.070312 C 121.609375 12.390625 123.601562 12.570312 123.890625 14.214844 C 124.363281 16.902344 121.296875 17.03125 121.296875 17.03125 C 121.296875 17.03125 124.742188 21.210938 125.511719 22.148438 C 126.28125 23.089844 126.96875 22.992188 126.96875 22.992188 L 129.863281 22.992188 C 128.511719 22.539062 127.851562 21.695312 127.855469 21.695312 Z M 103.871094 18.78125 L 105.78125 14.894531 C 105.78125 14.894531 106.652344 16.894531 107.460938 18.78125 Z M 110.722656 20.886719 L 105.957031 11.203125 C 105.957031 11.203125 101.609375 19.785156 101.078125 20.917969 C 100.546875 22.050781 99.808594 22.925781 99.808594 22.925781 L 103.183594 22.925781 C 102.335938 22.085938 102.757812 21.046875 102.757812 21.046875 L 103.25 20.042969 L 107.996094 20.042969 C 108.28125 20.714844 108.519531 21.296875 108.660156 21.664062 C 109.25 23.1875 110.324219 22.960938 110.324219 22.960938 L 112.457031 22.960938 C 111.363281 22.34375 110.722656 20.886719 110.722656 20.886719 Z M 85.535156 18.78125 L 87.445312 14.894531 C 87.445312 14.894531 88.320312 16.894531 89.128906 18.78125 Z M 92.386719 20.886719 L 87.621094 11.203125 C 87.621094 11.203125 83.277344 19.785156 82.742188 20.917969 C 82.210938 22.050781 81.472656 22.925781 81.472656 22.925781 L 84.847656 22.925781 C 84 22.085938 84.421875 21.046875 84.421875 21.046875 L 84.914062 20.042969 L 89.664062 20.042969 C 89.945312 20.714844 90.183594 21.296875 90.328125 21.664062 C 90.914062 23.1875 91.988281 22.960938 91.988281 22.960938 L 94.121094 22.960938 C 93.027344 22.34375 92.386719 20.886719 92.386719 20.886719 Z M 148.710938 14.183594 C 148.699219 16.425781 148.722656 20.949219 148.722656 20.949219 C 148.722656 20.949219 148.644531 21.792969 149.011719 22.960938 L 146.238281 22.960938 C 146.238281 22.960938 146.722656 22.796875 146.714844 20.59375 C 146.710938 18.390625 146.667969 12.917969 146.667969 12.917969 C 146.667969 12.917969 146.707031 11.882812 145.199219 11.460938 L 148.734375 11.460938 L 154.015625 17.746094 L 154.132812 12.984375 C 154.132812 12.984375 154.152344 12.011719 153.792969 11.429688 L 156.628906 11.429688 C 156.628906 11.429688 156.152344 11.621094 156.121094 13.4375 C 156.09375 15.25 156.050781 22.960938 156.050781 22.960938 Z M 72.800781 14.183594 C 72.792969 16.425781 72.8125 20.949219 72.8125 20.949219 C 72.8125 20.949219 72.738281 21.792969 73.101562 22.960938 L 70.332031 22.960938 C 70.332031 22.960938 70.8125 22.796875 70.804688 20.59375 C 70.800781 18.390625 70.757812 12.917969 70.757812 12.917969 C 70.757812 12.917969 70.796875 11.882812 69.289062 11.460938 L 72.828125 11.460938 L 78.105469 17.746094 L 78.222656 12.984375 C 78.222656 12.984375 78.242188 12.011719 77.886719 11.429688 L 80.71875 11.429688 C 80.71875 11.429688 80.242188 11.621094 80.214844 13.4375 C 80.183594 15.25 80.140625 22.960938 80.140625 22.960938 Z M 143.394531 22.960938 L 140.625 22.960938 C 140.625 22.960938 141.105469 22.796875 141.101562 20.59375 C 141.09375 18.390625 141.050781 12.917969 141.050781 12.917969 C 141.050781 12.917969 141.039062 11.945312 140.636719 11.460938 L 143.566406 11.460938 C 143.566406 11.460938 143.128906 11.882812 143.105469 13.175781 C 143.078125 14.472656 143.105469 20.949219 143.105469 20.949219 C 143.105469 20.949219 143.03125 21.792969 143.394531 22.960938 Z M 116.226562 22.960938 L 113.457031 22.960938 C 113.457031 22.960938 113.9375 22.796875 113.929688 20.59375 C 113.925781 18.390625 113.882812 12.917969 113.882812 12.917969 C 113.882812 12.917969 113.871094 11.945312 113.46875 11.460938 L 116.398438 11.460938 C 116.398438 11.460938 115.960938 11.882812 115.9375 13.175781 C 115.910156 14.472656 115.9375 20.949219 115.9375 20.949219 C 115.9375 20.949219 115.863281 21.792969 116.226562 22.960938 Z M 67.433594 22.960938 L 64.660156 22.960938 C 64.660156 22.960938 65.144531 22.796875 65.136719 20.59375 C 65.128906 18.390625 65.089844 12.917969 65.089844 12.917969 C 65.089844 12.917969 65.078125 11.945312 64.671875 11.460938 L 67.601562 11.460938 C 67.601562 11.460938 67.167969 11.882812 67.140625 13.175781 C 67.113281 14.472656 67.140625 20.949219 67.140625 20.949219 C 67.140625 20.949219 67.066406 21.792969 67.433594 22.960938 "/>
<path style=" stroke:none;fill-rule:evenodd;fill:rgb(92.262268%,11.434937%,15.112305%);fill-opacity:1;" d="M 2.007812 26.242188 C 3.113281 26.242188 4.011719 24.394531 4.011719 22.113281 C 4.011719 19.832031 3.113281 17.980469 2.007812 17.980469 C 0.898438 17.980469 0 19.832031 0 22.113281 C 0 24.394531 0.898438 26.242188 2.007812 26.242188 "/>
<path style=" stroke:none;fill-rule:evenodd;fill:rgb(91.275024%,91.571045%,91.551208%);fill-opacity:1;" d="M 1.675781 20.480469 L 1.789062 20.347656 L 1.4375 20.054688 C 1.402344 20.027344 1.351562 20.027344 1.320312 20.0625 L 0.75 20.644531 L 0.875 20.765625 L 1.386719 20.242188 L 1.675781 20.480469 "/>
<path style=" stroke:none;fill-rule:evenodd;fill:rgb(91.275024%,91.571045%,91.551208%);fill-opacity:1;" d="M 2.242188 20.480469 L 2.542969 20.230469 L 3.21875 20.675781 L 3.3125 20.53125 L 2.582031 20.050781 C 2.550781 20.027344 2.507812 20.03125 2.480469 20.054688 L 2.128906 20.347656 L 2.242188 20.480469 "/>
<path style=" stroke:none;fill-rule:evenodd;fill:rgb(91.275024%,91.571045%,91.551208%);fill-opacity:1;" d="M 3.058594 20.136719 L 3.152344 19.988281 L 2.582031 19.636719 C 2.550781 19.617188 2.507812 19.621094 2.480469 19.644531 L 2.128906 19.9375 L 2.242188 20.074219 L 2.542969 19.820312 L 3.058594 20.136719 "/>
<path style=" stroke:none;fill-rule:evenodd;fill:rgb(91.275024%,91.571045%,91.551208%);fill-opacity:1;" d="M 2.667969 21.691406 C 2.65625 21.546875 2.527344 21.378906 2.199219 21.378906 C 2.132812 21.378906 2.113281 21.351562 2.105469 21.34375 C 2.074219 21.304688 2.074219 21.234375 2.074219 21.1875 L 3.0625 21.1875 L 3.0625 21.011719 L 1.046875 21.011719 L 1.046875 21.1875 L 1.898438 21.1875 C 1.894531 21.261719 1.902344 21.371094 1.96875 21.453125 C 2.007812 21.5 2.074219 21.554688 2.199219 21.554688 C 2.394531 21.554688 2.488281 21.628906 2.492188 21.703125 C 2.496094 21.785156 2.414062 21.882812 2.246094 21.90625 C 1.761719 21.972656 1.460938 21.988281 1.140625 21.90625 L 1.097656 22.074219 C 1.445312 22.167969 1.765625 22.148438 2.269531 22.078125 C 2.546875 22.039062 2.675781 21.855469 2.667969 21.691406 "/>
<path style=" stroke:none;fill-rule:evenodd;fill:rgb(91.275024%,91.571045%,91.551208%);fill-opacity:1;" d="M 1.164062 22.898438 C 0.980469 22.859375 0.917969 22.796875 0.898438 22.773438 L 0.898438 22.652344 L 1.457031 22.453125 L 1.394531 22.289062 L 0.78125 22.507812 C 0.75 22.519531 0.722656 22.554688 0.722656 22.589844 L 0.722656 22.792969 C 0.722656 22.804688 0.726562 22.8125 0.730469 22.824219 C 0.738281 22.851562 0.804688 23.003906 1.132812 23.070312 C 1.367188 23.117188 1.441406 23.226562 1.441406 23.539062 C 1.441406 23.695312 1.425781 23.789062 1.40625 23.886719 C 1.398438 23.933594 1.390625 23.980469 1.382812 24.035156 L 0.914062 24.011719 C 0.929688 23.878906 0.941406 23.808594 0.941406 23.804688 C 0.953125 23.769531 0.964844 23.738281 0.96875 23.707031 L 1.292969 23.59375 L 1.238281 23.425781 L 0.984375 23.515625 C 0.972656 23.308594 0.894531 23.15625 0.890625 23.148438 L 0.734375 23.230469 C 0.738281 23.234375 0.875 23.492188 0.773438 23.757812 C 0.773438 23.761719 0.769531 23.765625 0.769531 23.773438 C 0.765625 23.792969 0.679688 24.300781 0.679688 25.042969 L 0.855469 25.042969 C 0.855469 24.875 0.859375 24.71875 0.867188 24.578125 C 0.941406 24.636719 1.046875 24.699219 1.191406 24.722656 L 1.21875 24.546875 C 0.992188 24.511719 0.890625 24.347656 0.886719 24.34375 L 0.882812 24.347656 C 0.886719 24.289062 0.890625 24.234375 0.894531 24.183594 L 1.371094 24.207031 C 1.367188 24.238281 1.367188 24.265625 1.367188 24.300781 L 1.367188 24.449219 C 1.371094 24.804688 1.375 25.464844 1.253906 25.632812 L 1.394531 25.738281 C 1.539062 25.539062 1.546875 25.015625 1.542969 24.449219 L 1.542969 24.296875 C 1.542969 24.121094 1.558594 24.023438 1.578125 23.917969 C 1.597656 23.816406 1.617188 23.710938 1.617188 23.539062 C 1.617188 23.253906 1.5625 22.976562 1.164062 22.898438 "/>
<path style=" stroke:none;fill-rule:evenodd;fill:rgb(91.275024%,91.571045%,91.551208%);fill-opacity:1;" d="M 1.675781 20.074219 L 1.789062 19.9375 L 1.46875 19.671875 L 1.46875 19.261719 C 1.582031 19.242188 1.679688 19.191406 1.753906 19.109375 C 1.9375 18.90625 1.90625 18.59375 1.90625 18.578125 L 1.730469 18.597656 C 1.734375 18.597656 1.753906 18.847656 1.621094 18.992188 C 1.582031 19.035156 1.53125 19.066406 1.46875 19.082031 L 1.46875 18.558594 L 1.292969 18.558594 L 1.292969 19.097656 C 1.203125 19.085938 1.128906 19.054688 1.070312 18.996094 C 0.976562 18.894531 0.9375 18.75 0.925781 18.636719 C 0.878906 18.699219 0.832031 18.765625 0.789062 18.835938 C 0.816406 18.933594 0.867188 19.035156 0.941406 19.117188 C 1.035156 19.210938 1.152344 19.261719 1.292969 19.269531 L 1.292969 19.675781 L 0.75 20.234375 L 0.875 20.359375 L 1.386719 19.832031 L 1.675781 20.074219 "/>
<path style=" stroke:none;fill-rule:evenodd;fill:rgb(91.275024%,91.571045%,91.551208%);fill-opacity:1;" d="M 2.917969 23.867188 C 2.980469 23.796875 3.007812 23.714844 2.980469 23.640625 C 2.949219 23.546875 2.832031 23.4375 2.460938 23.4375 C 2.304688 23.4375 2.179688 23.488281 2.089844 23.589844 C 1.933594 23.761719 1.949219 24.023438 1.949219 24.066406 L 1.878906 25.667969 L 2.054688 25.675781 L 2.125 24.070312 C 2.125 24.066406 2.125 24.058594 2.125 24.054688 C 2.125 24.054688 2.105469 23.832031 2.21875 23.703125 C 2.277344 23.640625 2.355469 23.613281 2.460938 23.613281 C 2.730469 23.613281 2.808594 23.671875 2.816406 23.695312 C 2.820312 23.707031 2.808594 23.734375 2.773438 23.761719 C 2.753906 23.78125 2.738281 23.804688 2.738281 23.832031 C 2.742188 23.894531 2.746094 25.132812 2.894531 25.8125 C 2.945312 25.761719 2.992188 25.707031 3.039062 25.648438 C 2.945312 25.109375 2.917969 24.261719 2.917969 23.867188 "/>
<path style=" stroke:none;fill-rule:evenodd;fill:rgb(91.275024%,91.571045%,91.551208%);fill-opacity:1;" d="M 2.785156 20.648438 L 1.996094 20.648438 L 1.996094 19.640625 C 1.996094 19.515625 2.078125 19.496094 2.105469 19.492188 C 2.097656 19.492188 2.828125 19.492188 2.828125 19.492188 L 2.828125 19.320312 L 2.695312 19.320312 L 2.695312 19.269531 C 2.835938 19.261719 2.957031 19.210938 3.046875 19.117188 C 3.132812 19.027344 3.179688 18.917969 3.210938 18.8125 C 3.164062 18.742188 3.117188 18.675781 3.070312 18.613281 C 3.058594 18.726562 3.019531 18.890625 2.921875 18.996094 C 2.863281 19.054688 2.789062 19.085938 2.695312 19.097656 L 2.695312 18.558594 L 2.519531 18.558594 L 2.519531 19.082031 C 2.460938 19.066406 2.410156 19.035156 2.367188 18.992188 C 2.238281 18.847656 2.257812 18.597656 2.257812 18.597656 L 2.082031 18.578125 C 2.082031 18.59375 2.054688 18.90625 2.238281 19.109375 C 2.3125 19.191406 2.40625 19.242188 2.519531 19.261719 L 2.519531 19.320312 L 2.097656 19.320312 C 1.996094 19.328125 1.820312 19.402344 1.820312 19.640625 L 1.820312 20.648438 L 1.292969 20.648438 L 1.292969 20.824219 L 2.785156 20.824219 L 2.785156 20.648438 "/>
<path style=" stroke:none;fill-rule:evenodd;fill:rgb(91.275024%,91.571045%,91.551208%);fill-opacity:1;" d="M 2.535156 22.386719 L 2.359375 22.386719 L 2.359375 22.867188 L 1.699219 23.136719 L 1.765625 23.300781 L 2.449219 23.019531 L 3.191406 23.285156 L 3.25 23.121094 L 2.535156 22.863281 L 2.535156 22.386719 "/>
<path style=" stroke:none;fill-rule:evenodd;fill:rgb(66.545105%,12.452698%,18.275452%);fill-opacity:1;" d="M 19.488281 26.957031 C 19.277344 27.042969 19.058594 27.144531 18.914062 27.234375 L 19.597656 27.234375 C 19.519531 27.152344 19.46875 27.070312 19.488281 26.957031 "/>
<g clip-path="url(#clip1)" clip-rule="nonzero">
<g clip-path="url(#clip2)" clip-rule="evenodd">
<path style=" stroke:none;fill-rule:nonzero;fill:url(#radial0);" d="M 1.996094 0 L 1.996094 28.128906 L 37.203125 28.128906 L 37.203125 0 Z M 1.996094 0 "/>
</g>
</g>
<path style=" stroke:none;fill-rule:evenodd;fill:rgb(66.545105%,12.452698%,18.275452%);fill-opacity:1;" d="M 14.4375 14.808594 C 14.4375 14.808594 13.816406 14.734375 13.660156 14.828125 C 13.503906 14.925781 13.113281 15.003906 12.941406 15.453125 C 12.765625 15.902344 12.570312 16.078125 12.101562 16.078125 C 11.632812 16.078125 11.070312 15.492188 11.070312 14.65625 C 11.070312 13.816406 11.769531 13.195312 12.277344 13.371094 C 12.785156 13.546875 12.859375 14.480469 14.4375 14.808594 "/>
<path style=" stroke:none;fill-rule:evenodd;fill:rgb(66.545105%,12.452698%,18.275452%);fill-opacity:1;" d="M 13.40625 17.226562 C 13.40625 17.226562 14.320312 16.992188 14.398438 17.515625 C 14.476562 18.042969 14.417969 18.121094 14.320312 18.589844 C 14.222656 19.054688 14.183594 19.601562 13.699219 19.835938 C 13.210938 20.066406 13.152344 19.71875 12.726562 19.40625 C 12.296875 19.09375 11.789062 18.765625 11.789062 18.765625 C 11.789062 18.765625 11.984375 18.394531 12.160156 18.238281 C 12.335938 18.082031 13.074219 17.382812 13.40625 17.226562 "/>
<path style=" stroke:none;fill-rule:evenodd;fill:rgb(66.545105%,12.452698%,18.275452%);fill-opacity:1;" d="M 16.25 16.71875 C 16.25 16.71875 15.644531 16.953125 15.566406 17.128906 C 15.488281 17.304688 15.160156 17.382812 15.0625 17.496094 C 14.964844 17.613281 14.867188 17.789062 14.671875 17.554688 C 14.476562 17.324219 14.554688 17.304688 14.769531 17.304688 C 14.769531 17.304688 14.945312 17.050781 15.121094 17.050781 C 15.296875 17.050781 15.546875 16.679688 16.25 16.71875 "/>
<path style=" stroke:none;fill-rule:evenodd;fill:rgb(66.545105%,12.452698%,18.275452%);fill-opacity:1;" d="M 17.925781 19.230469 C 17.925781 19.230469 17.671875 19.777344 17.964844 19.933594 C 18.253906 20.085938 18.585938 20.242188 18.371094 20.945312 C 18.15625 21.644531 17.574219 22.113281 17.144531 21.78125 C 16.71875 21.449219 16.445312 20.632812 16.601562 20.359375 C 16.757812 20.085938 17.535156 19.914062 17.925781 19.230469 "/>
<path style=" stroke:none;fill-rule:evenodd;fill:rgb(66.545105%,12.452698%,18.275452%);fill-opacity:1;" d="M 17.027344 18.492188 C 17.027344 18.492188 17.59375 18.511719 17.144531 18.746094 C 16.699219 18.976562 16.347656 18.878906 16.015625 18.375 C 15.683594 17.867188 15.664062 17.496094 16.425781 16.914062 C 17.183594 16.328125 16.910156 15.960938 17.417969 16 C 17.925781 16.039062 17.710938 15.628906 17.710938 15.628906 C 17.710938 15.628906 15.394531 15.21875 15.042969 15.21875 C 14.691406 15.21875 14.710938 15.0625 15.453125 15.0625 C 16.191406 15.0625 17.59375 15.042969 17.59375 15.042969 L 17.925781 14.695312 C 17.925781 14.695312 17.242188 14.226562 17.046875 13.914062 C 16.851562 13.601562 16.699219 13.46875 16.503906 13.410156 C 16.308594 13.351562 16.113281 12.863281 16.484375 13.058594 C 16.851562 13.253906 17.027344 13.214844 17.066406 13.507812 C 17.105469 13.796875 17.710938 14.109375 17.867188 14.246094 C 17.867188 14.246094 18.15625 14.128906 18.214844 14.597656 C 18.214844 14.597656 18.917969 14.519531 19.464844 14.695312 C 19.464844 14.695312 19.539062 14.050781 19.464844 13.660156 C 19.386719 13.273438 19.328125 13.019531 19.421875 12.726562 C 19.523438 12.433594 19.519531 12.222656 19.597656 12.746094 C 19.675781 13.273438 19.910156 13.527344 19.851562 14.070312 C 19.851562 14.070312 20.4375 12.921875 21.039062 12.453125 C 21.644531 11.988281 21.214844 12.609375 20.824219 12.882812 C 20.824219 12.882812 20.535156 13.449219 20.339844 13.738281 C 20.144531 14.03125 20.222656 14.558594 19.773438 14.753906 C 19.773438 14.753906 20.691406 14.925781 20.980469 15.335938 C 21.273438 15.746094 20.941406 15.921875 20.726562 15.746094 C 20.515625 15.570312 20.242188 15.121094 19.910156 15.121094 C 19.578125 15.121094 19.464844 15.121094 18.996094 15.003906 C 18.527344 14.886719 18.15625 15.003906 18.140625 15.140625 C 18.117188 15.277344 17.925781 15.453125 18.234375 15.492188 C 18.546875 15.53125 18.429688 15.589844 18.527344 15.785156 C 18.625 15.980469 18.703125 16.117188 18.46875 16.175781 C 18.234375 16.230469 18.023438 16.523438 17.808594 16.40625 L 17.652344 16.796875 C 17.652344 16.796875 17.925781 16.992188 17.925781 17.1875 C 17.925781 17.382812 17.964844 17.59375 17.984375 17.769531 C 18.003906 17.945312 17.90625 18.21875 17.632812 17.925781 C 17.359375 17.632812 17.320312 17.363281 17.4375 16.855469 C 17.554688 16.347656 17.378906 16.425781 17.183594 16.5625 C 16.988281 16.699219 16.640625 16.914062 16.503906 17.109375 C 16.367188 17.304688 16.015625 18.453125 17.027344 18.492188 "/>
<path style=" stroke:none;fill-rule:evenodd;fill:rgb(66.545105%,12.452698%,18.275452%);fill-opacity:1;" d="M 17.242188 12.394531 C 17.242188 12.394531 16.929688 11.949219 17.496094 12.316406 C 18.058594 12.6875 18.898438 13.972656 18.976562 14.246094 C 19.054688 14.519531 18.917969 14.480469 18.683594 14.265625 C 18.449219 14.050781 18.292969 14.03125 18.175781 13.582031 C 18.058594 13.136719 17.242188 12.394531 17.242188 12.394531 "/>
<path style=" stroke:none;fill-rule:evenodd;fill:rgb(66.545105%,12.452698%,18.275452%);fill-opacity:1;" d="M 19.871094 16.136719 C 19.871094 16.136719 20.125 16.175781 19.851562 16.289062 C 19.578125 16.40625 19.191406 16.484375 18.9375 16.347656 C 18.683594 16.210938 18.78125 15.921875 19.074219 16.039062 C 19.367188 16.152344 19.519531 16.269531 19.871094 16.136719 "/>
<path style=" stroke:none;fill-rule:evenodd;fill:rgb(66.545105%,12.452698%,18.275452%);fill-opacity:1;" d="M 19.34375 17.382812 C 19.34375 17.382812 19.25 17.652344 19.25 17.847656 C 19.25 18.042969 19.015625 18.199219 18.800781 18.277344 C 18.585938 18.355469 18.234375 18.707031 18.234375 18.707031 C 18.234375 18.707031 18.023438 18.746094 18.214844 18.042969 C 18.410156 17.34375 18.527344 17.304688 18.820312 17.128906 C 19.113281 16.953125 19.152344 16.914062 19.328125 17.050781 C 19.5 17.1875 19.34375 17.382812 19.34375 17.382812 "/>
<path style=" stroke:none;fill-rule:evenodd;fill:rgb(66.545105%,12.452698%,18.275452%);fill-opacity:1;" d="M 20.027344 17.246094 C 20.027344 17.246094 20.242188 18.121094 20.398438 18.355469 C 20.554688 18.589844 20.941406 18.839844 20.609375 19.230469 C 20.28125 19.621094 20.046875 19.582031 19.890625 19.484375 C 19.734375 19.386719 19.792969 19.289062 19.929688 19.054688 C 20.066406 18.820312 20.046875 18.820312 19.871094 18.277344 C 19.695312 17.730469 19.539062 17.265625 19.539062 16.972656 C 19.539062 16.679688 19.519531 16.464844 19.753906 16.523438 C 19.988281 16.582031 20.105469 16.386719 20.105469 16.386719 C 20.105469 16.386719 20.417969 16.210938 20.769531 16.640625 C 21.117188 17.070312 21.410156 17.304688 21.644531 17.671875 C 21.878906 18.042969 22.34375 18.355469 22.480469 18.570312 C 22.617188 18.78125 22.832031 18.957031 22.734375 19.328125 C 22.636719 19.699219 22.65625 19.835938 22.792969 20.28125 C 22.929688 20.730469 22.890625 21.082031 22.519531 21.375 C 22.152344 21.664062 21.664062 21.664062 21.46875 21.390625 C 21.273438 21.121094 21.097656 21.21875 20.824219 21.21875 C 20.554688 21.21875 20.261719 21.121094 20.476562 20.457031 C 20.691406 19.796875 20.535156 19.738281 20.84375 19.484375 C 21.15625 19.230469 21.351562 18.667969 21.351562 18.667969 C 21.351562 18.664062 21.449219 18.453125 21.644531 18.667969 C 21.839844 18.878906 22.09375 18.6875 21.839844 18.394531 C 21.585938 18.101562 20.726562 17.4375 20.476562 17.167969 C 20.222656 16.894531 19.929688 16.875 20.027344 17.246094 "/>
<path style=" stroke:none;fill-rule:evenodd;fill:rgb(66.545105%,12.452698%,18.275452%);fill-opacity:1;" d="M 21.742188 16.855469 C 21.742188 16.855469 22.285156 16.953125 22.636719 17.324219 C 22.988281 17.691406 23.609375 17.460938 23.863281 17.867188 C 23.863281 17.867188 24.527344 17.578125 25.207031 18.296875 C 25.207031 18.296875 25.382812 18.003906 25.65625 18.101562 C 25.925781 18.199219 26.707031 18.414062 26.707031 19.113281 C 26.707031 19.816406 27.195312 20.652344 25.925781 20.671875 C 24.660156 20.691406 24.621094 20.359375 24.816406 19.679688 C 25.011719 18.996094 24.46875 18.492188 24.46875 18.492188 C 24.46875 18.492188 24.039062 18.335938 23.589844 18.082031 C 23.144531 17.828125 22.851562 17.90625 22.675781 17.652344 C 22.5 17.402344 22.1875 17.011719 21.722656 16.933594 C 21.253906 16.855469 21.742188 16.855469 21.742188 16.855469 "/>
<path style=" stroke:none;fill-rule:evenodd;fill:rgb(66.545105%,12.452698%,18.275452%);fill-opacity:1;" d="M 21.820312 16.425781 C 21.820312 16.425781 21.390625 16.25 22.1875 16.269531 C 22.988281 16.289062 22.988281 16.445312 23.355469 16.289062 C 23.726562 16.136719 24.078125 16.445312 23.902344 16.621094 C 23.902344 16.621094 24.621094 16.679688 25.03125 16.972656 C 25.441406 17.265625 25.324219 17.246094 24.992188 17.34375 C 24.660156 17.4375 24.292969 17.578125 24 17.304688 C 23.707031 17.03125 23.667969 16.914062 23.339844 16.914062 C 23.007812 16.914062 22.890625 16.660156 22.636719 16.660156 C 22.382812 16.660156 21.820312 16.425781 21.820312 16.425781 "/>
<path style=" stroke:none;fill-rule:evenodd;fill:rgb(66.545105%,12.452698%,18.275452%);fill-opacity:1;" d="M 22.695312 15.511719 C 22.695312 15.511719 21.78125 15.414062 22.695312 15.296875 C 23.609375 15.179688 24.953125 15.316406 25.832031 15.472656 C 25.832031 15.472656 25.636719 15.121094 26.082031 14.792969 C 26.53125 14.460938 27 14.714844 27.136719 14.828125 C 27.136719 14.828125 27.699219 14.421875 28.089844 14.792969 C 28.476562 15.160156 28.050781 15.570312 28.050781 15.570312 C 28.050781 15.570312 28.050781 16.117188 27.894531 16.328125 C 27.738281 16.542969 27.328125 16.796875 26.882812 16.699219 C 26.433594 16.601562 26.53125 16.367188 26.53125 16.367188 C 26.53125 16.367188 25.949219 16.5625 25.867188 15.960938 C 25.867188 15.960938 25.246094 15.453125 22.695312 15.511719 "/>
<path style=" stroke:none;fill-rule:evenodd;fill:rgb(66.545105%,12.452698%,18.275452%);fill-opacity:1;" d="M 22.015625 14.617188 C 22.015625 14.617188 20.902344 14.792969 21.703125 14.578125 C 22.5 14.363281 23.179688 13.894531 23.726562 13.894531 C 24.273438 13.894531 24.507812 13.855469 24.527344 14.089844 C 24.542969 14.324219 24.542969 14.324219 24.175781 14.324219 C 23.804688 14.324219 23.179688 14.167969 22.015625 14.617188 "/>
<path style=" stroke:none;fill-rule:evenodd;fill:rgb(66.545105%,12.452698%,18.275452%);fill-opacity:1;" d="M 23.765625 13.390625 C 23.765625 13.390625 23.28125 13.3125 23.164062 13.449219 C 23.046875 13.582031 22.734375 13.640625 22.578125 13.738281 C 22.421875 13.835938 22.03125 14.011719 22.03125 14.011719 L 21.292969 14.34375 C 21.292969 14.34375 22.34375 13.679688 22.65625 13.292969 C 22.96875 12.902344 23.28125 12.765625 23.433594 12.765625 C 23.433594 12.765625 23.164062 12.550781 23.355469 12.164062 C 23.355469 12.164062 23.238281 11.890625 23.628906 11.519531 C 24.019531 11.148438 24 10.953125 24.507812 11.207031 C 25.011719 11.460938 25.285156 11.695312 25.128906 12.046875 C 24.972656 12.394531 25.304688 12.648438 24.992188 12.921875 C 24.679688 13.195312 24.972656 13.71875 23.765625 13.390625 "/>
<path style=" stroke:none;fill-rule:evenodd;fill:rgb(66.545105%,12.452698%,18.275452%);fill-opacity:1;" d="M 16.234375 10.878906 C 16.234375 10.878906 16.367188 11.460938 16.90625 12.191406 C 16.90625 12.191406 16.410156 12.175781 16.324219 12.394531 C 16.234375 12.617188 16.207031 12.671875 16 12.804688 C 15.796875 12.9375 15.359375 12.949219 15.09375 12.761719 C 14.832031 12.570312 14.847656 12.25 14.597656 12.074219 C 14.351562 11.898438 14.351562 11.710938 14.613281 11.445312 C 14.875 11.183594 14.496094 10.820312 15.269531 10.789062 C 16.042969 10.761719 16.191406 10.484375 16.234375 10.878906 "/>
<path style=" stroke:none;fill-rule:evenodd;fill:rgb(66.545105%,12.452698%,18.275452%);fill-opacity:1;" d="M 19.128906 10.847656 C 19.128906 10.847656 18.820312 10.496094 19.242188 10.335938 C 19.667969 10.175781 19.855469 9.722656 20.25 10.058594 C 20.644531 10.394531 20.835938 10.4375 20.761719 10.820312 C 20.691406 11.199219 20.980469 11.753906 20.398438 12 C 19.8125 12.25 19.375 12.382812 19.070312 12.015625 C 18.761719 11.652344 18.6875 10.992188 19.128906 10.847656 "/>
<path style=" stroke:none;fill-rule:evenodd;fill:rgb(66.545105%,12.452698%,18.275452%);fill-opacity:1;" d="M 34.109375 21.539062 C 34.109375 21.539062 33.921875 21.816406 33.671875 21.976562 C 33.425781 22.136719 33.292969 22.457031 33.03125 22.515625 C 32.769531 22.574219 33.175781 22.941406 32.695312 23.128906 C 32.214844 23.320312 31.847656 23.683594 31.570312 23.246094 C 31.292969 22.808594 30.824219 22.472656 31.511719 21.976562 C 31.511719 21.976562 31.175781 21.757812 31.101562 21.582031 C 31.03125 21.40625 30.519531 21.582031 31 21.011719 C 31.480469 20.441406 31.101562 20.441406 31.042969 20.195312 C 30.984375 19.945312 30.605469 19.699219 31.160156 19.378906 C 31.714844 19.054688 31.820312 18.835938 32.09375 19.054688 C 32.375 19.273438 32.636719 19.230469 32.679688 19.550781 C 32.679688 19.550781 33.585938 20.050781 33.933594 20.105469 C 34.285156 20.164062 34.449219 20.414062 34.375 20.664062 C 34.300781 20.910156 34.316406 21.011719 34.332031 21.1875 C 34.34375 21.363281 34.242188 21.40625 34.109375 21.539062 "/>
<g clip-path="url(#clip3)" clip-rule="nonzero">
<path style=" stroke:none;fill-rule:evenodd;fill:rgb(66.545105%,12.452698%,18.275452%);fill-opacity:1;" d="M 19.84375 27.46875 C 20.105469 27.746094 20.339844 28.109375 20.46875 28.125 C 20.601562 28.140625 20.910156 28.140625 21.070312 28.488281 C 21.230469 28.839844 21.449219 28.941406 21.753906 28.914062 C 22.0625 28.886719 22.542969 29.074219 23.011719 29.089844 C 23.480469 29.105469 23.550781 28.898438 23.289062 28.605469 C 23.027344 28.316406 23.320312 27.933594 23.261719 27.6875 C 23.203125 27.4375 23.375 27.132812 23.59375 26.898438 C 23.816406 26.664062 23.769531 26.519531 23.539062 26.386719 C 23.304688 26.253906 23.289062 26.007812 23.128906 25.773438 C 22.96875 25.539062 22.878906 25.570312 22.675781 25.527344 C 22.472656 25.480469 22.5 25.789062 22.179688 25.789062 C 21.859375 25.789062 21.652344 25.730469 21.417969 25.480469 C 21.1875 25.234375 20.980469 25.304688 20.980469 25.539062 C 20.980469 25.773438 21.070312 25.933594 20.660156 26.023438 C 20.25 26.109375 20.136719 26.519531 20.136719 26.519531 C 19.929688 26.488281 19.625 26.679688 19.625 26.679688 C 19.316406 27.117188 19.578125 27.191406 19.84375 27.46875 "/>
</g>
<path style=" stroke:none;fill-rule:evenodd;fill:rgb(66.545105%,12.452698%,18.275452%);fill-opacity:1;" d="M 9.941406 21.507812 C 9.941406 21.246094 9.910156 21.277344 9.734375 21.128906 C 9.5625 20.984375 9.386719 21.085938 9.488281 20.910156 C 9.589844 20.734375 9.167969 20.589844 9.019531 20.632812 C 8.875 20.675781 8.730469 20.648438 8.464844 20.53125 C 8.203125 20.414062 7.882812 20.398438 7.792969 20.824219 C 7.707031 21.246094 7.3125 21.21875 7.472656 21.554688 C 7.632812 21.890625 7.3125 22.050781 7.457031 22.296875 C 7.605469 22.546875 7.515625 22.824219 7.339844 23.101562 C 7.164062 23.378906 7.707031 23.683594 8.042969 23.683594 C 8.378906 23.683594 8.40625 23.714844 8.449219 23.960938 C 8.496094 24.210938 8.640625 24.371094 8.992188 24.402344 C 9.34375 24.429688 9.195312 24.648438 9.941406 24.679688 C 10.683594 24.707031 10.347656 23.976562 10.480469 23.699219 C 10.613281 23.421875 10.539062 23.1875 10.453125 22.898438 C 10.363281 22.605469 10.582031 22.414062 10.785156 22.269531 C 10.992188 22.121094 10.933594 22.078125 10.800781 21.992188 C 10.671875 21.902344 10.40625 21.949219 10.40625 21.949219 C 9.925781 21.890625 9.941406 21.773438 9.941406 21.507812 "/>
</g>
</svg>
