<?xml version="1.0" encoding="UTF-8"?>
<svg xmlns="http://www.w3.org/2000/svg" xmlns:xlink="http://www.w3.org/1999/xlink" width="176pt" height="35.45pt" viewBox="0 0 176 35.45" version="1.1">
<defs>
<clipPath id="clip1">
  <path d="M 0 0 L 36 0 L 36 35.449219 L 0 35.449219 Z M 0 0 "/>
</clipPath>
<clipPath id="clip2">
  <path d="M 96 12 L 116 12 L 116 35.449219 L 96 35.449219 Z M 96 12 "/>
</clipPath>
</defs>
<g id="surface1">
<g clip-path="url(#clip1)" clip-rule="nonzero">
<path style=" stroke:none;fill-rule:nonzero;fill:rgb(10.314941%,12.57019%,26.9104%);fill-opacity:1;" d="M 17.707031 34.140625 C 8.675781 34.140625 1.273438 26.738281 1.273438 17.710938 C 1.273438 8.644531 8.675781 1.277344 17.707031 1.277344 C 26.773438 1.277344 34.140625 8.644531 34.140625 17.710938 C 34.140625 26.738281 26.773438 34.140625 17.707031 34.140625 M 25.675781 25.359375 L 27.160156 23.941406 L 26.808594 23.941406 C 23.054688 23.941406 19.691406 22.703125 17.742188 20.613281 C 19.371094 19.621094 21.390625 19.160156 24.1875 19.160156 C 24.929688 19.160156 25.992188 19.230469 26.984375 19.339844 L 27.835938 18.523438 C 26.382812 18.347656 25.003906 18.277344 23.832031 18.277344 C 22.878906 18.277344 22.027344 18.3125 21.140625 18.382812 L 21.78125 17.601562 C 22.277344 17.566406 23.339844 17.53125 24.046875 17.53125 C 25.921875 17.53125 27.164062 17.601562 28.578125 17.816406 L 29.394531 17.035156 C 27.90625 16.789062 25.851562 16.648438 23.976562 16.648438 C 23.585938 16.648438 23.089844 16.648438 22.453125 16.683594 L 22.914062 15.902344 L 23.65625 15.902344 C 26.3125 15.902344 28.296875 16.042969 30.101562 16.363281 L 30.917969 15.585938 C 28.898438 15.230469 26.453125 15.019531 23.976562 15.019531 L 23.375 15.019531 L 23.761719 14.273438 L 24.4375 14.273438 C 27.019531 14.273438 29.359375 14.488281 31.625 14.910156 L 32.472656 14.097656 C 29.925781 13.601562 27.199219 13.355469 24.257812 13.355469 C 22.984375 13.355469 21.710938 13.425781 20.503906 13.53125 C 19.089844 16.578125 16.820312 18.347656 14.273438 18.3125 C 13.28125 18.277344 12.039062 17.851562 10.445312 17 L 8.960938 16.152344 L 9.417969 15.726562 L 12.855469 17.214844 L 13.597656 16.648438 L 6.65625 13.496094 L 5.59375 14.308594 L 3.117188 13.28125 L 3.152344 14.308594 C 6.480469 15.832031 7.863281 16.683594 11.367188 19.199219 C 15.9375 22.457031 20.007812 24.226562 25.675781 25.359375 M 17.707031 35.417969 C 27.515625 35.417969 35.414062 27.484375 35.414062 17.710938 C 35.414062 7.898438 27.515625 0.00390625 17.707031 0.00390625 C 7.933594 0.00390625 0 7.898438 0 17.710938 C 0 27.484375 7.933594 35.417969 17.707031 35.417969 "/>
</g>
<path style=" stroke:none;fill-rule:nonzero;fill:rgb(10.314941%,12.57019%,26.9104%);fill-opacity:1;" d="M 64.53125 5.398438 C 71.851562 5.398438 75.191406 8.90625 75.964844 13.929688 L 70.300781 13.929688 C 69.625 11.535156 68.007812 10.253906 64.53125 10.253906 C 60.214844 10.253906 58.359375 13.019531 58.359375 17.710938 C 58.359375 22.398438 60.214844 25.164062 64.53125 25.164062 C 68.007812 25.164062 69.625 23.882812 70.300781 21.488281 L 75.964844 21.488281 C 75.191406 26.511719 71.851562 30.019531 64.53125 30.019531 C 56 30.019531 52.695312 24.792969 52.695312 17.710938 C 52.695312 10.625 56 5.398438 64.53125 5.398438 "/>
<path style=" stroke:none;fill-rule:nonzero;fill:rgb(10.314941%,12.57019%,26.9104%);fill-opacity:1;" d="M 82.710938 10.253906 L 77.617188 10.253906 L 77.617188 5.90625 L 82.710938 5.90625 L 82.710938 10.253906 "/>
<path style=" stroke:none;fill-rule:nonzero;fill:rgb(10.314941%,12.57019%,26.9104%);fill-opacity:1;" d="M 82.710938 29.515625 L 77.617188 29.515625 L 77.617188 12.515625 L 82.710938 12.515625 L 82.710938 29.515625 "/>
<path style=" stroke:none;fill-rule:nonzero;fill:rgb(10.314941%,12.57019%,26.9104%);fill-opacity:1;" d="M 91.886719 16.664062 L 91.886719 23.273438 C 91.886719 25.09375 92.828125 25.566406 94.3125 25.566406 C 94.917969 25.566406 95.761719 25.46875 95.761719 25.46875 L 95.761719 29.546875 C 95.761719 29.546875 94.582031 29.816406 93.335938 29.816406 C 89.253906 29.816406 86.792969 27.960938 86.792969 23.847656 L 86.792969 16.664062 L 84.226562 16.664062 L 84.226562 12.515625 L 86.792969 12.515625 L 86.792969 7.558594 L 91.886719 7.558594 L 91.886719 12.515625 L 95.761719 12.515625 L 95.761719 16.664062 L 91.886719 16.664062 "/>
<g clip-path="url(#clip2)" clip-rule="nonzero">
<path style=" stroke:none;fill-rule:nonzero;fill:rgb(10.314941%,12.57019%,26.9104%);fill-opacity:1;" d="M 115.222656 12.515625 L 105.476562 35.449219 L 100.078125 35.449219 L 103.113281 28.773438 L 96.300781 12.515625 L 101.933594 12.515625 L 105.644531 22.734375 L 109.589844 12.515625 L 115.222656 12.515625 "/>
</g>
<path style=" stroke:none;fill-rule:nonzero;fill:rgb(10.314941%,12.57019%,26.9104%);fill-opacity:1;" d="M 131.78125 24.757812 L 131.78125 29.515625 L 116.167969 29.515625 L 116.167969 5.90625 L 121.632812 5.90625 L 121.632812 24.757812 L 131.78125 24.757812 "/>
<path style=" stroke:none;fill-rule:nonzero;fill:rgb(10.314941%,12.57019%,26.9104%);fill-opacity:1;" d="M 138.730469 10.253906 L 133.640625 10.253906 L 133.640625 5.90625 L 138.730469 5.90625 L 138.730469 10.253906 "/>
<path style=" stroke:none;fill-rule:nonzero;fill:rgb(10.314941%,12.57019%,26.9104%);fill-opacity:1;" d="M 138.730469 29.515625 L 133.640625 29.515625 L 133.640625 12.515625 L 138.730469 12.515625 L 138.730469 29.515625 "/>
<path style=" stroke:none;fill-rule:nonzero;fill:rgb(10.314941%,12.57019%,26.9104%);fill-opacity:1;" d="M 150.433594 12.007812 C 154.855469 12.007812 157.113281 13.964844 157.113281 19.566406 L 157.113281 29.515625 L 152.019531 29.515625 L 152.019531 19.800781 C 152.019531 17.539062 151.042969 16.527344 148.917969 16.527344 C 146.996094 16.527344 145.847656 17.539062 145.847656 19.800781 L 145.847656 29.515625 L 140.753906 29.515625 L 140.753906 12.515625 L 145.546875 12.515625 L 145.546875 14.472656 C 146.253906 13.15625 147.703125 12.007812 150.433594 12.007812 "/>
<path style=" stroke:none;fill-rule:nonzero;fill:rgb(10.314941%,12.57019%,26.9104%);fill-opacity:1;" d="M 163.859375 18.890625 C 164.195312 16.867188 165.175781 15.957031 167.363281 15.957031 C 169.859375 15.957031 170.605469 17.136719 170.804688 18.890625 Z M 176 20.980469 C 176 15.585938 173.539062 12.007812 167.363281 12.007812 C 160.789062 12.007812 158.730469 16.460938 158.730469 21.015625 C 158.730469 26.410156 161.226562 30.019531 167.636719 30.019531 C 172.695312 30.019531 175.359375 27.59375 175.664062 24.285156 L 170.636719 24.285156 C 170.335938 25.398438 169.558594 25.9375 167.636719 25.9375 C 165.105469 25.9375 164.027344 24.960938 163.789062 22.398438 L 175.933594 22.398438 C 176 21.925781 176 21.386719 176 20.980469 "/>
</g>
</svg>
