<svg xmlns="http://www.w3.org/2000/svg" width="176pt" height="47.267" viewBox="0 0 176 35.45"><defs><clipPath id="a"><path d="M0 0h36v35.45H0Zm0 0"/></clipPath><clipPath id="b"><path d="M96 12h20v23.45H96Zm0 0"/></clipPath></defs><g clip-path="url(#a)"><path d="M17.707 34.14c-9.031 0-16.434-7.402-16.434-16.43 0-9.065 7.403-16.433 16.434-16.433 9.066 0 16.434 7.368 16.434 16.434 0 9.027-7.368 16.43-16.434 16.43m7.969-8.782 1.484-1.418h-.351c-3.754 0-7.118-1.238-9.067-3.328 1.63-.992 3.649-1.453 6.445-1.453.743 0 1.805.07 2.797.18l.852-.817a33.195 33.195 0 0 0-6.695-.14l.64-.781c.496-.036 1.559-.07 2.266-.07 1.875 0 3.117.07 4.531.284l.817-.78c-1.489-.247-3.543-.388-5.418-.388-.391 0-.887 0-1.524.036l.461-.782h.742c2.657 0 4.64.141 6.446.461l.816-.777c-2.02-.356-4.465-.566-6.941-.566h-.602l.387-.747h.675c2.583 0 4.922.215 7.188.637l.848-.812c-2.547-.496-5.274-.743-8.215-.743-1.274 0-2.547.07-3.754.176-1.414 3.047-3.684 4.817-6.23 4.781-.993-.035-2.235-.46-3.829-1.312l-1.484-.848.457-.425 3.437 1.488.743-.567-6.942-3.152-1.062.813-2.477-1.028.035 1.028c3.328 1.523 4.711 2.375 8.215 4.89 4.57 3.258 8.64 5.028 14.309 6.16m-7.969 10.059c9.809 0 17.707-7.934 17.707-17.707A17.667 17.667 0 0 0 17.707.004C7.934.004 0 7.898 0 17.71c0 9.773 7.934 17.707 17.707 17.707" style="stroke:none;fill-rule:nonzero;fill:#1a2045;fill-opacity:1"/></g><path d="M64.531 5.398c7.32 0 10.66 3.508 11.434 8.532H70.3c-.676-2.395-2.293-3.676-5.77-3.676-4.316 0-6.172 2.766-6.172 7.457 0 4.687 1.856 7.453 6.172 7.453 3.477 0 5.094-1.281 5.77-3.676h5.664c-.774 5.024-4.113 8.532-11.434 8.532-8.531 0-11.836-5.227-11.836-12.31 0-7.085 3.305-12.312 11.836-12.312M82.71 10.254h-5.093V5.906h5.094zM82.71 29.516h-5.093v-17h5.094zM91.887 16.664v6.61c0 1.82.941 2.292 2.425 2.292.606 0 1.45-.097 1.45-.097v4.078s-1.18.27-2.426.27c-4.082 0-6.543-1.856-6.543-5.97v-7.183h-2.566v-4.148h2.566V7.559h5.094v4.957h3.875v4.148z" style="stroke:none;fill-rule:nonzero;fill:#1a2045;fill-opacity:1"/><g clip-path="url(#b)"><path d="m115.223 12.516-9.746 22.933h-5.399l3.035-6.676-6.812-16.257h5.633l3.71 10.218 3.946-10.218z" style="stroke:none;fill-rule:nonzero;fill:#1a2045;fill-opacity:1"/></g><path d="M131.781 24.758v4.758h-15.613V5.906h5.465v18.852zM138.73 10.254h-5.09V5.906h5.09zM138.73 29.516h-5.09v-17h5.09zM150.434 12.008c4.421 0 6.68 1.957 6.68 7.558v9.95h-5.094V19.8c0-2.262-.977-3.274-3.102-3.274-1.922 0-3.07 1.012-3.07 3.274v9.715h-5.094v-17h4.793v1.957c.707-1.317 2.156-2.465 4.887-2.465M163.86 18.89c.335-2.023 1.316-2.933 3.503-2.933 2.496 0 3.242 1.18 3.442 2.934ZM176 20.98c0-5.394-2.46-8.972-8.637-8.972-6.574 0-8.633 4.453-8.633 9.008 0 5.394 2.497 9.004 8.907 9.004 5.058 0 7.722-2.426 8.027-5.735h-5.027c-.301 1.113-1.078 1.652-3 1.652-2.532 0-3.61-.976-3.848-3.539h12.145c.066-.472.066-1.011.066-1.418" style="stroke:none;fill-rule:nonzero;fill:#1a2045;fill-opacity:1"/></svg>