<svg xmlns="http://www.w3.org/2000/svg" width="176pt" height="30.2pt" viewBox="0 0 176 30.2"><defs><clipPath id="a"><path d="M152 26h19v4.2h-19Zm0 0"/></clipPath><clipPath id="b"><path d="M145 21h28v9.2h-28Zm0 0"/></clipPath><clipPath id="c"><path d="M145 0h31v30.2h-31Zm0 0"/></clipPath></defs><g clip-path="url(#a)"><path d="M170.621 30.2c-.066-.134-.066-.266-.137-.337-.738-1.343-2.015-2.285-3.765-2.824-1.684-.469-3.7-.469-5.918-.066-2.356.402-4.707 1.343-6.996 2.62q-.504.307-1.008.606z" style="stroke:none;fill-rule:evenodd;fill:#3269bb;fill-opacity:1"/></g><g clip-path="url(#b)"><path d="M171.293 25.492c-.809-1.613-2.356-2.758-4.438-3.363-2.02-.54-4.507-.606-7.199-.067-2.758.54-5.648 1.614-8.34 3.16-2.086 1.212-3.898 2.555-5.515 4.106v.871h5.988c.672-.539 1.41-1.074 2.219-1.547 2.824-1.75 5.918-2.957 8.808-3.363 2.829-.336 5.25.066 6.864 1.145 1.21.941 1.949 2.218 2.086 3.765h.199l.066-.738c.133-1.48-.066-2.824-.738-3.969" style="stroke:none;fill-rule:evenodd;fill:#3269bb;fill-opacity:1"/></g><g clip-path="url(#c)"><path d="M145.8 8.074V.004H176v30.195h-3.969c.336-2.015.133-3.898.133-3.898-.332-2.961-2.016-4.91-4.906-5.719-3.094-.871-7.399-.27-11.77 1.617a33 33 0 0 0-6.187 3.563 26 26 0 0 0-3.5 3.093v-5.988a35 35 0 0 1 3.027-1.949c2.961-1.68 6.188-2.957 9.215-3.496 2.96-.606 5.719-.54 7.937.133 2.352.605 4.036 1.953 4.977 3.699.27.473.469 1.008.606 1.613l.269 1.078c-.066-1.883-1.012-3.836-1.012-3.836-1.273-2.554-3.699-4.035-7.195-4.37-1.746-.134-3.766 0-5.852.538-2.085.473-4.238 1.278-6.386 2.356a33 33 0 0 0-5.586 3.629v-4.91q.306-.198.605-.403c9.352-5.379 19.239-5.445 22.602-.133l.469.739c-.47-1.41-1.95-2.961-1.95-2.961-2.02-2.016-4.976-3.024-8.675-2.754-3.567.265-7.735 1.68-11.637 3.965-.473.27-.942.539-1.414.875v-3.7c7.265-3.765 14.863-4.238 18.832-1.074l.336.27c-.606-.875-2.219-1.75-2.219-1.75-4.305-2.285-10.895-1.278-16.95 2.02v-2.29q2.93-1.312 5.852-1.816c2.758-.469 5.246-.336 7.2.336l.738.27c-1.414-.872-2.824-1.008-2.824-1.008-3.364-.606-7.536.066-10.965 1.68v-.942c1.887-.672 3.77-1.074 5.515-1.14l1.48-.067c-3.632-.543-6.995.605-6.995.605" style="stroke:none;fill-rule:evenodd;fill:#3269bb;fill-opacity:1"/></g><path d="M145.8 20.18v1.683c12.11-10.023 27.778-7.875 30.2-7.468 0 0-16.41-4.305-30.2 5.785M145.8 14.664v1.48c11.637-7.804 25.29-5.917 27.579-5.515 0 0-14.395-3.77-27.578 4.035M171.766 7.332s-13.25-3.496-25.965 3.16v1.348c11.234-6.594 23.808-4.914 25.965-4.508" style="stroke:none;fill-rule:evenodd;fill:#fff;fill-opacity:1"/><path d="m11.75 16.07 3.406.832q-.784 2.206-2.605 3.274-1.823 1.071-4.625 1.07-3.463 0-5.696-1.832Q0 17.584 0 14.406q-.001-3.361 2.242-5.222c1.496-1.239 3.465-1.856 5.899-1.856 2.129 0 3.855.484 5.187 1.457.79.578 1.383 1.402 1.781 2.48l-3.48.641q-.306-1.044-1.285-1.648-.985-.61-2.38-.61-1.938.001-3.14 1.075c-.804.718-1.207 1.875-1.207 3.48 0 1.703.399 2.914 1.188 3.637q1.188 1.083 3.086 1.082 1.4.002 2.41-.688c.672-.457 1.156-1.183 1.449-2.164M19.844 16.14c0 .97.297 1.708.89 2.223q.89.774 2.196.774 1.305 0 2.191-.774c.586-.515.883-1.261.883-2.242 0-.953-.297-1.687-.883-2.203q-.885-.772-2.191-.77c-.871 0-1.602.254-2.196.77-.593.516-.89 1.254-.89 2.223m-3.418-.136c0-.856.273-1.688.82-2.488q.815-1.202 2.32-1.836 1.5-.635 3.352-.637 2.86 0 4.687 1.437 1.83 1.442 1.829 3.633-.002 2.216-1.848 3.668-1.844 1.455-4.645 1.457a9.1 9.1 0 0 1-3.304-.605q-1.577-.607-2.39-1.778c-.548-.78-.821-1.734-.821-2.851M34.3 15.977c0 1.093.282 1.906.845 2.425.558.524 1.246.79 2.05.79.774 0 1.422-.243 1.934-.723q.774-.721.773-2.364 0-1.533-.797-2.277c-.527-.496-1.187-.742-1.968-.742q-1.22 0-2.032.726-.803.732-.804 2.165M31 11.266h3.11v1.433q.607-.738 1.636-1.195a5.6 5.6 0 0 1 2.293-.461q2.191 0 3.727 1.332 1.53 1.334 1.53 3.71 0 2.444-1.542 3.798-1.546 1.354-3.738 1.355c-.696 0-1.328-.11-1.895-.32-.566-.215-1.16-.586-1.785-1.102v4.91H31zM51.95 16.336q-.642.166-2.032.39-1.389.234-1.816.45c-.434.242-.649.543-.649.914q-.001.54.52.933c.347.266.793.395 1.328.395a3.5 3.5 0 0 0 1.722-.457c.403-.234.668-.516.793-.856.09-.218.133-.64.133-1.257Zm-4.462-2.094-3.027-.422q.511-1.418 1.754-2.097c.832-.45 2.066-.68 3.703-.68q2.234 0 3.324.41c.727.274 1.238.617 1.535 1.04q.446.626.446 2.308l-.035 3.012q0 1.284.16 1.894.163.61.601 1.309h-3.3a9 9 0 0 1-.32-.762 4 4 0 0 0-.118-.3c-.57.425-1.18.75-1.828.964a6.7 6.7 0 0 1-2.078.32q-1.946 0-3.067-.82-1.12-.814-1.12-2.063c0-.554.167-1.043.507-1.476.34-.43.816-.762 1.43-.988q.92-.343 2.656-.606c1.555-.223 2.637-.437 3.238-.633v-.254q-.001-.745-.476-1.062-.476-.316-1.79-.316-.89 0-1.39.27c-.332.179-.602.5-.805.952M69.52 15.691l-2.399-4.996-2.351 4.996Zm6.464 5.325h-3.82l-1.52-3.055h-6.953l-1.437 3.055h-3.727l6.778-13.461h3.715zM76.879 21.016v-9.75h3.332v9.75Zm0-11.07V7.554h3.332v2.39zM85.875 21.016h-3.336v-9.75h3.098v1.386q.797-.982 1.43-1.297a3.24 3.24 0 0 1 1.44-.312c.763 0 1.493.164 2.2.488l-1.035 2.25q-.845-.422-1.567-.422c-.464 0-.863.098-1.187.297q-.485.3-.766 1.078-.276.786-.277 3.27zM91.191 21.016V7.555h3.336v13.46zM96.996 21.016v-9.75h3.336v9.75Zm0-11.07V7.554h3.336v2.39zM114.266 21.016h-3.332v-4.977c0-1.055-.075-1.734-.215-2.043a1.55 1.55 0 0 0-.696-.719q-.481-.258-1.156-.257-.867-.002-1.555.367t-.945.972q-.253.61-.254 2.243v4.414h-3.336v-9.75h3.098v1.433c1.102-1.101 2.484-1.656 4.152-1.656q1.107.002 2.02.309.914.31 1.383.785.468.48.652 1.082.183.608.184 1.738zM124.188 15.305q-.037-1.119-.747-1.703-.709-.581-1.73-.582-1.094-.001-1.809.613-.71.616-.699 1.672Zm-.188 2.61 3.32.429a4.46 4.46 0 0 1-2.02 2.156q-1.38.738-3.46.738c-2.192 0-3.817-.554-4.867-1.664q-1.244-1.331-1.246-3.36 0-2.424 1.636-3.796c1.094-.914 2.477-1.375 4.145-1.375 1.875 0 3.351.48 4.437 1.437 1.082.961 1.602 2.426 1.555 4.407h-8.355q.035 1.148.808 1.785c.516.422 1.152.637 1.922.637q.783 0 1.316-.332.533-.33.809-1.063M128.094 18.234l3.347-.394c.145.5.43.883.868 1.144q.65.387 1.828.387 1.29 0 1.945-.363.439-.258.438-.692a.6.6 0 0 0-.239-.484q-.246-.186-1.113-.344c-2.688-.457-4.395-.875-5.113-1.258-.996-.523-1.496-1.257-1.496-2.19q0-1.267 1.293-2.134 1.294-.862 4.011-.863 2.584 0 3.844.656c.84.434 1.414 1.078 1.734 1.926l-3.144.45a1.56 1.56 0 0 0-.77-.872q-.562-.305-1.605-.305c-.879 0-1.508.098-1.887.286q-.38.202-.379.523 0 .276.332.469c.301.172 1.336.414 3.114.726q2.663.468 3.722 1.145 1.044.69 1.043 1.922.001 1.34-1.445 2.304-1.452.966-4.285.965-2.578 0-4.078-.808-1.501-.809-1.965-2.196" style="stroke:none;fill-rule:nonzero;fill:#3269bb;fill-opacity:1"/></svg>