<?xml version="1.0" encoding="UTF-8"?>
<svg xmlns="http://www.w3.org/2000/svg" xmlns:xlink="http://www.w3.org/1999/xlink" width="176pt" height="32.31pt" viewBox="0 0 176 32.31" version="1.1">
<defs>
<clipPath id="clip1">
  <path d="M 27 0 L 61 0 L 61 32.308594 L 27 32.308594 Z M 27 0 "/>
</clipPath>
<clipPath id="clip2">
  <path d="M 0 0 L 31 0 L 31 32.308594 L 0 32.308594 Z M 0 0 "/>
</clipPath>
</defs>
<g id="surface1">
<path style=" stroke:none;fill-rule:nonzero;fill:rgb(14.807129%,29.53186%,62.039185%);fill-opacity:1;" d="M 155.074219 31.777344 L 149.585938 31.777344 L 149.585938 5.535156 L 133.164062 5.535156 L 133.164062 0.535156 L 155.074219 0.535156 "/>
<g clip-path="url(#clip1)" clip-rule="nonzero">
<path style=" stroke:none;fill-rule:nonzero;fill:rgb(14.807129%,29.53186%,62.039185%);fill-opacity:1;" d="M 54.492188 16.246094 L 54.492188 16.152344 C 54.492188 10.085938 50.117188 5.042969 43.878906 5.042969 C 37.667969 5.042969 33.34375 9.996094 33.34375 16.066406 L 33.34375 16.152344 C 33.34375 22.226562 37.714844 27.265625 43.964844 27.265625 C 50.164062 27.265625 54.492188 22.3125 54.492188 16.246094 M 27.574219 16.246094 L 27.574219 16.152344 C 27.574219 7.414062 34.367188 0.00390625 43.964844 0.00390625 C 53.550781 0.00390625 60.25 7.273438 60.25 16.066406 L 60.25 16.152344 C 60.25 24.902344 53.46875 32.308594 43.878906 32.308594 C 34.277344 32.308594 27.574219 25.03125 27.574219 16.246094 "/>
</g>
<path style=" stroke:none;fill-rule:nonzero;fill:rgb(14.807129%,29.53186%,62.039185%);fill-opacity:1;" d="M 76.585938 26.914062 C 80.335938 26.914062 82.613281 25.480469 82.613281 22.625 L 82.613281 22.535156 C 82.613281 19.859375 80.523438 18.339844 76.191406 18.339844 L 67.488281 18.339844 L 67.488281 26.914062 Z M 74.988281 13.703125 C 78.554688 13.703125 80.875 12.316406 80.875 9.464844 L 80.875 9.375 C 80.875 6.871094 78.957031 5.398438 75.386719 5.398438 L 67.488281 5.398438 L 67.488281 13.703125 Z M 62.089844 0.535156 L 76.097656 0.535156 C 79.714844 0.535156 82.441406 1.472656 84.269531 3.308594 C 85.644531 4.683594 86.363281 6.421875 86.363281 8.480469 L 86.363281 8.570312 C 86.363281 12.320312 84.269531 14.375 81.898438 15.535156 C 85.605469 16.777344 88.105469 18.875 88.105469 23.117188 L 88.105469 23.207031 C 88.105469 28.785156 83.503906 31.777344 76.546875 31.777344 L 62.089844 31.777344 "/>
<path style=" stroke:none;fill-rule:nonzero;fill:rgb(14.807129%,29.53186%,62.039185%);fill-opacity:1;" d="M 109.613281 19.371094 L 104.226562 6.871094 L 98.863281 19.371094 Z M 101.761719 0.3125 L 106.855469 0.3125 L 120.597656 31.777344 L 114.792969 31.777344 L 111.628906 24.238281 L 96.855469 24.238281 L 93.648438 31.777344 L 88.019531 31.777344 "/>
<path style=" stroke:none;fill-rule:nonzero;fill:rgb(14.807129%,29.53186%,62.039185%);fill-opacity:1;" d="M 123.144531 0.535156 L 128.628906 0.535156 L 128.628906 26.777344 L 145.058594 26.777344 L 145.058594 31.777344 L 123.144531 31.777344 "/>
<path style=" stroke:none;fill-rule:nonzero;fill:rgb(14.807129%,29.53186%,62.039185%);fill-opacity:1;" d="M 170.988281 5.535156 L 157.011719 5.535156 L 157.011719 0.535156 L 176 0.535156 "/>
<path style=" stroke:none;fill-rule:nonzero;fill:rgb(33.325195%,67.054749%,89.089966%);fill-opacity:1;" d="M 164.089844 12.453125 L 157.011719 12.453125 L 157.011719 7.457031 L 169.097656 7.457031 "/>
<g clip-path="url(#clip2)" clip-rule="nonzero">
<path style=" stroke:none;fill-rule:nonzero;fill:rgb(14.807129%,29.53186%,62.039185%);fill-opacity:1;" d="M 15.777344 5.535156 L 25.996094 5.535156 L 31 0.535156 L 15.84375 0.535156 C 6.535156 0.535156 0 7.683594 0 16.417969 L 0 16.515625 C 0 25.332031 6.664062 32.308594 15.621094 32.308594 C 21 32.308594 24.417969 30.425781 27.457031 27.488281 L 24.617188 23.363281 C 22.03125 25.820312 19.523438 27.355469 15.800781 27.355469 C 9.960938 27.355469 5.664062 22.4375 5.664062 16.417969 L 5.664062 16.335938 C 5.664062 10.371094 9.929688 5.523438 15.769531 5.523438 "/>
</g>
</g>
</svg>
