<svg xmlns="http://www.w3.org/2000/svg" width="176pt" height="63.427" viewBox="0 0 176 47.57"><defs><clipPath id="a"><path d="M0 0h40v47.57H0Zm0 0"/></clipPath><clipPath id="b"><path d="M31 33h34v14.57H31Zm0 0"/></clipPath></defs><g clip-path="url(#a)"><path d="M11.555 47.57 0 0l39.398 47.57z" style="stroke:none;fill-rule:evenodd;fill:#d71e25;fill-opacity:1"/></g><path d="m24.48.04 11.555 14.233H15.34L3.469.04zM38.348 16.625l11.558 14.234H29.211L17.336 16.625z" style="stroke:none;fill-rule:evenodd;fill:#36429d;fill-opacity:1"/><g clip-path="url(#b)"><path d="M52.531 33.21 64.09 47.446H43.395L31.52 33.211z" style="stroke:none;fill-rule:evenodd;fill:#36429d;fill-opacity:1"/></g><path d="m85.887 32.203-6.563 14.031H92.79l2.938-5.625h-4.145l-1.035 2.575h-5.18l3.453-7.657h4.836l-.867 2.575h3.453l2.938-5.899zM114.023 32.137l-5.695 14.097H95.035l6.735-14.03h3.625l-4.489 10.98h4.489l5.18-11.047zM117.824 37.898l4.66.067c1.036 0 1.899-.746 2.246-2.438h-5.699Zm-.863 2.575-1.383 2.847 5.18-.136c1.383-1.895.863-2.844-1.207-2.844Zm6.387 5.761h-12.95l6.215-14.097h12.95c-1.727 4.61-3.454 6.98-4.833 7.32.864 1.559.344 3.863-1.382 6.777M144.926 32.137l-5.524 14.234h-3.968l1.379-3.726h-5.524l-1.726 3.726h-3.454l5.871-14.234Zm-10.703 3.457-2.07 3.996h5.867l1.726-3.996zM147.516 32.137l-5.871 14.097h3.8l3.97-10.64h5.866L150.97 46.37h3.969l4.835-14.234zM176 32l-5.523 14.234h-3.97l1.38-3.726h-5.524l-1.726 3.726h-3.453L163.054 32Zm-10.703 3.527-2.07 3.93h5.87l1.723-3.93z" style="stroke:none;fill-rule:evenodd;fill:#36429d;fill-opacity:1"/></svg>