<svg xmlns="http://www.w3.org/2000/svg" width="224.613" height="59pt" viewBox="0 0 168.46 59"><defs><clipPath id="a"><path d="M69 18h99.46v23H69Zm0 0"/></clipPath></defs><path d="M33.766 12.785c4.488-2.508 4.578-2.105-1.188-5.27L29.27 5.704l-4.18 2.399-4.184 2.402 4.184 2.367c2.297 1.305 4.3 2.316 4.445 2.25s2.05-1.117 4.23-2.336m2.754 13.711 3.687-2.129v-9.543l-8.14 4.61v4.808c0 2.645.171 4.711.382 4.598.211-.117 2.04-1.172 4.07-2.344m-9.54-2.246v-4.738l-1.652-.825c-.91-.457-2.855-1.53-4.324-2.394l-2.668-1.566v9.593l3.941 2.309c2.168 1.273 4.114 2.324 4.32 2.336.212.012.383-2.11.383-4.715m19.637 11.832c2.055-1.133 3.86-2.262 4.012-2.504.305-.492-6.844-4.601-7.941-4.566-.387.011-2.391 1.02-4.458 2.234l-3.75 2.211 4.008 2.332c2.203 1.29 4.094 2.344 4.2 2.348s1.874-.918 3.93-2.055m-26.758-.117c2.098-1.195 3.746-2.395 3.66-2.668-.085-.27-1.847-1.406-3.914-2.527l-3.753-2.036-3.211 1.739c-5.692 3.078-5.614 2.695-1.094 5.328 2.195 1.281 4.105 2.328 4.242 2.332.14 0 1.973-.977 4.07-2.168m30.036 13.578 4.046-2.332v-9.598l-2.671 1.57c-1.47.86-3.415 1.938-4.325 2.395l-1.652.824v4.739c0 2.605.125 4.738.277 4.738s2.098-1.05 4.325-2.336m-9.688-2.395v-4.734l-3.754-2.133c-2.066-1.176-3.898-2.136-4.07-2.136s-.313 2.117-.313 4.703v4.707l3.942 2.152c2.168 1.18 3.996 2.152 4.066 2.16s.129-2.117.129-4.719m-17.273 2.395 4.046-2.332v-9.598l-2.671 1.57c-1.465.86-3.41 1.938-4.32 2.395l-1.653.824v4.739c0 2.605.023 4.882.102 4.754.105-.176 2.273-1.067 4.496-2.352m-9.692-2.371-.004-4.703-3.793-2.164c-2.09-1.188-4.03-2.16-4.32-2.16-.32 0-.523 1.761-.523 4.55v4.543l4.195 2.313c2.308 1.27 4.254 2.312 4.324 2.316.07.008.125-2.105.121-4.695m-5.726 7.39L0 50.22l.14-9.192.137-9.191 6.36-3.648 6.355-3.653.254-7.77.258-7.769 7.934-4.5L29.37 0l7.938 4.45 7.941 4.448.023 7.72.02 7.722 6.867 3.879 6.867 3.875v17.68l-1.398.968C55.649 52.113 43.329 59 42.859 59c-.214 0-3.222-1.602-6.687-3.562-3.461-1.958-6.54-3.56-6.832-3.56-.297 0-3.352 1.602-6.79 3.56-3.433 1.96-6.53 3.539-6.882 3.515-.352-.031-4.02-2.004-8.152-4.39" style="stroke:none;fill-rule:nonzero;fill:#d51e25;fill-opacity:1"/><g clip-path="url(#a)"><path d="m155.406 35.492 4.512-6.332-4.324-5.965h4.043l2.215 3.383 2.332-3.383h3.886l-4.242 5.825 4.633 6.472h-4.066l-2.543-3.808-2.57 3.808Zm-4.926 0v-1.84a4.85 4.85 0 0 1-1.796 1.551 5.1 5.1 0 0 1-2.348.567q-1.265.002-2.266-.547a3.24 3.24 0 0 1-1.449-1.524q-.445-.989-.445-2.722v-7.782h3.308v5.649q.001 2.594.184 3.18.182.585.668.925.479.342 1.223.344a2.63 2.63 0 0 0 1.52-.457q.672-.457.917-1.137c.168-.453.25-1.554.25-3.316v-5.188h3.309v12.297Zm-14.925 0V18.52h3.308v16.972Zm-12.125-6.148c0 1.218.297 2.152.882 2.8q.885.973 2.18.973t2.176-.972q.879-.973.879-2.825 0-1.805-.879-2.777-.88-.973-2.176-.973-1.295 0-2.18.973c-.585.648-.882 1.582-.882 2.8m-3.395-.176q.001-1.618.817-3.137a5.5 5.5 0 0 1 2.3-2.312c.993-.535 2.106-.801 3.328-.801q2.841 0 4.657 1.812 1.811 1.812 1.812 4.579 0 2.79-1.832 4.625t-4.613 1.836a7.3 7.3 0 0 1-3.277-.766c-1.043-.508-1.832-1.254-2.375-2.238q-.816-1.477-.817-3.598m-11.332-.078q0 1.956.774 2.863.766.91 1.902.91 1.213 0 2.047-.933.839-.93.84-2.762c0-1.27-.27-2.219-.801-2.836a2.57 2.57 0 0 0-2.028-.926c-.792 0-1.449.305-1.96.91q-.774.91-.774 2.774m-2.957 7.21 3.781.454c.063.43.207.73.438.89q.469.347 1.484.348 1.296-.001 1.946-.383.433-.252.656-.82.152-.408.152-1.496V33.5q-1.481 1.992-3.742 1.992-2.526 0-3.996-2.097-1.154-1.654-1.153-4.122c0-2.058.5-3.632 1.512-4.722 1.008-1.09 2.266-1.633 3.766-1.633 1.547 0 2.82.668 3.828 2.004v-1.727h3.098V34.23q.001 2.176-.368 3.254-.362 1.08-1.023 1.688-.654.615-1.762.96-1.102.347-2.785.348-3.181.001-4.512-1.07c-.886-.715-1.332-1.617-1.332-2.715 0-.11.004-.238.012-.394m-5.902-.808H96.53V23.195h3.078v1.75q.785-1.24 1.418-1.633a2.65 2.65 0 0 1 1.434-.394q1.13-.001 2.176.613l-1.024 2.836c-.558-.351-1.074-.531-1.554-.531q-.696 0-1.18.375c-.32.254-.574.703-.758 1.363q-.279.98-.277 4.121Zm-9.696-5.906q-.638.209-2.015.5c-.918.191-1.52.383-1.801.566q-.65.453-.648 1.145 0 .685.515 1.183c.348.329.785.497 1.32.497q.898 0 1.708-.579.601-.44.793-1.078c.082-.277.128-.804.128-1.586Zm-4.43-2.637-3.003-.535q.505-1.78 1.742-2.64 1.237-.856 3.676-.856c1.476 0 2.578.172 3.297.516q1.088.513 1.527 1.308c.297.528.441 1.5.441 2.91l-.035 3.797q-.002 1.624.16 2.39.16.774.594 1.653h-3.273a13 13 0 0 1-.32-.96 6 6 0 0 0-.118-.384 6 6 0 0 1-1.812 1.215 5.3 5.3 0 0 1-2.063.407q-1.933 0-3.047-1.032-1.113-1.03-1.113-2.605-.001-1.04.508-1.856c.336-.547.808-.96 1.418-1.25.61-.293 1.488-.543 2.633-.761q2.32-.428 3.218-.797v-.324q-.002-.936-.472-1.34-.47-.399-1.778-.399-.886 0-1.378.344-.497.339-.801 1.2m-4.995-.117-3.266.578c-.11-.64-.36-1.125-.746-1.445q-.585-.487-1.516-.488-1.235 0-1.972.84-.74.838-.739 2.808 0 2.186.75 3.09.749.902 2.008.902.945-.001 1.543-.523c.403-.356.684-.957.852-1.817l3.25.547q-.508 2.198-1.942 3.324-1.44 1.121-3.855 1.122c-1.828 0-3.29-.567-4.375-1.704q-1.634-1.699-1.633-4.71c0-2.032.547-3.61 1.637-4.743q1.64-1.694 4.43-1.695c1.523 0 2.738.32 3.636.969q1.347.965 1.938 2.945" style="stroke:none;fill-rule:nonzero;fill:#100f0d;fill-opacity:1"/></g></svg>