<svg xmlns="http://www.w3.org/2000/svg" width="176pt" height="59pt" viewBox="0 0 176 59"><path d="M0 0h176v59H0z" style="fill:#f0f9fb;fill-opacity:1;stroke:none"/><path d="M86.898 46.05V30.677h-2.12v11.156c0 2.457-.344 3.242-1.329 4.344-.945 1.058-2.308 1.476-3.863 1.476-2.797 0-4.656-1.765-4.621-5.918.043-5.015 5.039-9.43 5.039-9.43v-1.632h-5.797v1.633h3.816c-.113.136-5.18 4.578-5.18 10.117 0 2.844 1.09 6.973 6.372 6.973 2.195 0 4.601-1.094 5.789-3.356-.152 3.285 2.496 3.227 3.808 2.781v-1.433c-.714.195-1.914.347-1.914-1.336m8.965-11.093c0-1.855 1.227-2.875 3.957-2.875 1.59 0 3.371.414 4.317.871V31.02c-1.172-.418-2.766-.684-4.168-.684-3.297 0-6.29 1.441-6.29 4.773 0 5.907 9.446 4.352 9.446 9.399 0 1.668-1.07 3.125-4.215 3.125-1.781 0-3.828-.492-5.379-1.363v1.988c1.477.644 3.446 1.137 5.266 1.137 4.242 0 6.476-2.2 6.476-5.114 0-6.066-9.41-4.855-9.41-9.324m-32.347-1.55-.38-2.731H59.06v1.629h2.449v16.75h2.12v-11.38c0-5.296 2.614-5.405 4.509-5.405.379 0 .758.035 1.023.074V30.41a9 9 0 0 0-.984-.074c-2.121 0-3.75 1.137-4.66 3.07M46.69 47.633c-.574 0-2.394-.09-3.636-.281V37.238c0-3.468 1.535-5.273 5.039-5.273 3.562 0 5.265 2.574 5.265 7.652 0 4.852-1.402 8.016-6.668 8.016m1.594-17.297c-1.515 0-2.73.34-3.637.91-.722.453-1.367 1.098-1.707 1.703l-.265-2.273h-4.192v1.629h2.45v24.918h2.12v-8.246c1.137.23 2.426.418 3.676.418 6.29 0 8.79-3.942 8.79-9.813 0-5.496-2.422-9.246-7.235-9.246M9.02 29.286c2.609 0 4.296 1.523 4.964 3.694l1.844-.5c-.262-1.085-.871-2.218-1.523-2.914-1.262-1.347-3.086-2.043-5.262-2.043C3.433 27.523 0 31.785 0 38.395c0 6.914 3 11 9.129 11 2.219 0 4.59-.829 5.805-1.739V45.57c-1.57 1.2-3.805 1.907-5.454 1.907-5.304 0-7.32-3.649-7.32-9.125 0-5.914 2.66-9.067 6.86-9.067m24.636 19.648c0 3.449-.113 4.703-1.172 6.218-1.402 2.008-4.054 2.653-6.289 2.653-1.972 0-4.32-.418-5.683-1.098v-1.746c1.398.723 3.902 1.215 5.531 1.215 1.895 0 3.484-.57 4.469-1.82.797-1.024 1.023-1.864 1.023-4.743v-2.91c-1.25 2.047-3.484 2.692-5.719 2.692-1.898 0-3.675-.72-4.738-1.82-1.324-1.364-1.476-3.333-1.476-5.153V30.676h2.12v11.597c0 2.082.188 3.22 1.098 4.164.797.836 2.012 1.215 3.41 1.215 1.555 0 3.032-.418 3.98-1.476.985-1.102 1.325-2.504 1.325-4.89v-10.61h2.121z" style="stroke:none;fill-rule:nonzero;fill:#1d3c34;fill-opacity:1"/><path d="M94.602 53.727a.7.7 0 0 0-.403-.11c-.898 0-1.844 1-1.844 2.211 0 .59.27.883.72.883a.99.99 0 0 0 .773-.344c.191-.226.3-.554.382-.933Zm.277 2.53a2 2 0 0 0-.031.243c0 .121.066.172.191.172.117 0 .313-.07.406-.121l-.11.531c-.179.102-.42.176-.647.176-.293 0-.583-.133-.657-.446-.246.27-.672.481-1.16.481-.84 0-1.355-.582-1.355-1.45 0-1.41 1.16-2.78 2.726-2.78.278 0 .621.066.856.19l.457-.116Zm-6.098-.663c-.101.203-.219.539-.277.773.027-.27.016-.554-.008-.773l-.242-2.457h-.758l.098.89-.84 1.559a4.7 4.7 0 0 0-.328.781 8 8 0 0 0-.031-.765l-.29-2.465h-.804l.539 4.082h.62l1.235-2.25.254 2.25h.64l2.153-4.082h-.699Zm11.063-.774c-.125.578-.262 1.043-.48 1.356-.2.285-.512.476-.868.476-.191 0-.367-.05-.469-.152-.109-.105-.16-.258-.16-.437 0-.141.043-.368.102-.645l.488-2.281h-.824l-.488 2.261c-.06.29-.11.559-.11.766 0 .32.14.586.344.766s.512.332.902.332c.371 0 .89-.188 1.125-.434l-.074.348c-.078.36-.246.707-.488.949a1.1 1.1 0 0 1-.567.29 2 2 0 0 1-.257.023c-.41 0-.875-.11-1.211-.356l-.125.59c.343.219.812.316 1.234.328h.059c.746 0 1.53-.344 1.906-1.02.156-.28.226-.605.293-.917l.855-3.926h-.828Zm4.441-1.203c.336 0 .742.102 1 .235l.117-.563c-.25-.125-.715-.227-1.074-.227-1 0-1.734.512-1.734 1.262 0 .59.457.875.941 1.094.559.25.8.395.8.695 0 .348-.335.617-.933.617-.414 0-.875-.109-1.21-.355l-.126.59c.36.226.856.328 1.293.328 1.028 0 1.766-.48 1.766-1.305 0-.57-.395-.84-1.031-1.144-.438-.2-.715-.367-.715-.637 0-.328.351-.59.906-.59m-24.414-.48H78.47l-.125.597h.578l-.535 2.516a2 2 0 0 0-.063.438c0 .421.285.605.684.605.226 0 .469-.074.648-.176l.11-.531c-.094.05-.29.117-.407.117-.125 0-.191-.05-.191-.168 0-.05.016-.16.031-.242Zm-4.035.59a.74.74 0 0 0-.406-.11c-.899 0-1.84 1-1.84 2.211 0 .59.27.883.715.883.336 0 .59-.133.773-.344.195-.226.305-.554.387-.933Zm.277 2.53a2 2 0 0 0-.035.243c0 .121.07.172.195.172.118 0 .313-.07.403-.121l-.11.531a1.36 1.36 0 0 1-.648.176c-.293 0-.578-.133-.652-.446-.246.27-.676.481-1.164.481-.84 0-1.352-.582-1.352-1.45 0-1.41 1.16-2.78 2.723-2.78.277 0 .625.066.859.19l.453-.116Zm6.63-2.487v-.633h-1.118l-.129.597h.582l-.75 3.485h.824l.387-1.778c.125-.59.254-1.136.555-1.437a.86.86 0 0 1 .648-.254c.094 0 .219.02.262.027l.152-.683a1.5 1.5 0 0 0-.289-.032c-.52 0-.89.301-1.125.708m-2.582-1.875c0 .308-.312.593-.613.593a.387.387 0 0 1-.399-.394c0-.313.297-.586.606-.586.23 0 .406.156.406.387" style="stroke:none;fill-rule:nonzero;fill:#006f62;fill-opacity:1"/><path d="M116.5 6.027c-2.29.418-4.957 1.399-6.262 1.844-.523.18-1.836.7-1.836.7s.801-.614 1.41-1c1.372-.864 3.82-1.766 5.352-2.813C119.082 2.078 119.355 0 119.355 0s-2.054.297-4.53 1.898c-.923.598-2.59 1.696-3.864 3.235-3.02 3.648-6.168 5.312-8.04 6.683.227-.328.442-.668.661-1q.104-.153.207-.3c.137-.192.273-.383.418-.567q.047-.07.102-.133.17-.221.34-.437.033-.036.062-.078c.8-.992 1.652-1.946 2.426-2.961.086-.11.172-.223.25-.328 1.308-1.782 2.34-3.676 2.41-5.914-.02-.012.02.007 0 0-2.129.953-4.383 3.847-5.484 6.28-.766 1.692-1.126 4.227-2.286 5.735-.773.989-2.183 1.805-3.351 2.774.636-1.051.984-2.274 1.004-2.34 1.613-5.617-.688-7.938-.688-7.938s-1.515 1.188-1.336 4.825c.024.507.192 1.054.305 1.546.11.5.242.997.34 1.5.199 1.06.047 1.989-.63 2.848-.519.652-1.128 1.168-1.737 1.73-1.301 1.2-2.633 2.477-3.532 4.016-1.757 3.016-1.89 5.52-1.89 5.52h.941s.121-2.305 1.106-3.746c.812-1.118 2.261-1.446 3.632-1.301 2.735.297 6.157 1.926 10.145-.266-2.828-1.629-7.29-1.27-8.734-1.11-.2.024-.391.048-.582.075-.313.043-.63.09-.942.149-.488.085-.98.183-1.457.32-.133.039-.266.078-.398.125l-.094.035q-.141.054-.281.113-.123.054-.246.114l-.09.043q-.166.085-.325.183c.856-1.45 1.805-2.36 2.532-2.883 1.699-1.222 3.469-.738 6.719-.207 8.066 1.32 10.328-.535 10.328-.535s-2.157-1.496-7.211-1.648c-1.27-.04-3.153-.047-4.715.164-1.453.199-2.863.41-4.086 1l.219-.207.125-.102c0-.004.004-.004.004-.008.171-.136.398-.32.52-.425.577-.48 1.179-.934 1.784-1.383 1.703-1.262 3.48-2.367 4.91-2.367 2.711 0 4.676 1.386 7.223 1.675 3.07.348 4.922-.39 4.922-.39s-.816-1.434-4.563-2.18c-3.824-.766-6.347-.277-8.296.316.68-.418 3.437-2.625 6.324-3.398 2.047-.547 4.46-.098 6.36-.246 1.144-.102 2.589-.352 3.683-.73 2.289-.794 2.5-1.532 2.5-1.532s-1.989-.949-5.969-.215" style="stroke:none;fill-rule:nonzero;fill:#1d3c34;fill-opacity:1"/></svg>