<svg xmlns="http://www.w3.org/2000/svg" xml:space="preserve" id="Layer_1" x="0" y="0" version="1.1" viewBox="0 0 176 59"><style>.st2{fill:#ed1b2f}.st3{fill:#002052}</style><path id="polygon6238" d="M0 39.2h38.9L54.5.3H38.9z" style="fill:#0093d0"/><path id="path6240" d="M36.3 15.3a1.793 1.793 0 0 1 .8-3.4 1.793 1.793 0 0 1 .8 3.4v.5c.5.1 1.2.3 1.6.5h.7c2.2 0 3.8 1.5 3.8 3.5 0 1.3-1.1 2.4-2.4 2.4s-2.4-1.2-2.2-2.5c0 0-.1.4-.1 1v6.4c-.1.7-1 4.8-5.6 4.8s-5.5-4-5.6-4.8v-6.4c0-.5-.2-1-.2-1 .2 1.2-.9 2.5-2.2 2.5s-2.4-1.2-2.4-2.4c0-2 1.6-3.5 3.8-3.5h.7c.4-.2 1.1-.5 1.6-.5v-.5a1.793 1.793 0 0 1 .8-3.4 1.793 1.793 0 0 1 .8 3.4v.7c.2.1.3.1.5.2.3-.6.8-1.1 1.5-1.3v-.5a1.793 1.793 0 0 1 .8-3.4 1.793 1.793 0 0 1 .8 3.4v.5c.6.2 1.2.7 1.5 1.3.2-.1.3-.1.5-.2z" style="fill:#fff"/><path id="path6242" d="M43.2 19.8c0-1.7-1.1-3-3.5-3-1.5 0-3.4 1.3-3.4 4.6v4.9c.7-.5 1.6-.8 2.1-.8v-4.6c0-1.8 1.3-2.3 1.9-2.3-.3.3-.5.7-.5 1.2 0 .9.8 1.7 1.7 1.7s1.6-.7 1.7-1.7" class="st2"/><path id="path6244" d="M24 19.8c0-1.7 1.1-3 3.5-3 1.5 0 3.4 1.3 3.4 4.6v4.9c-.7-.5-1.6-.8-2.1-.8v-4.6c0-1.8-1.3-2.3-1.9-2.3.3.3.5.7.5 1.2 0 .9-.8 1.7-1.7 1.7-1 0-1.7-.7-1.7-1.7" class="st2"/><path id="path6246" d="M33.6 31.2c3.9 0 4.8-3.2 4.9-4.1V26c-1.2.3-2.3.9-3 1.9-.2-1.1-1-2.1-1.9-2.7-.9.6-1.6 1.6-1.9 2.7-.7-1-1.8-1.6-3-1.9v1.1c.1.8 1 4.1 4.9 4.1" class="st2"/><path id="path6248" d="M33.9 14v1.4c.7.1 1.2.5 1.5 1.1-.8.5-1.4 1.3-1.7 2.3-.3-1-.9-1.8-1.7-2.3.2-.5.8-1 1.5-1.1V14c-.5-.1-1-.6-1-1.2 0-.7.6-1.2 1.2-1.2.7 0 1.2.5 1.2 1.2-.1.5-.5 1-1 1.2" class="st2"/><path id="path6250" d="M30.4 14.9v1.4c1.7.3 2.9 2.1 2.9 3.8v4.6c-.8.5-1.6 1.4-1.8 2.2-.1-.1-.1-.2-.2-.2v-5.9c0-1.8-1-3.6-2.7-4.2 0 0 .5-.2 1.2-.2V15c-.5-.1-1-.6-1-1.2 0-.7.5-1.2 1.2-1.2s1.2.5 1.2 1.2c.2.5-.2 1-.8 1.1" class="st2"/><path id="path6252" d="M37.3 14.9v1.4c.7 0 1.2.2 1.2.2-1.7.6-2.7 2.4-2.7 4.2v5.9l-.2.2c-.2-.8-1-1.7-1.8-2.2V20c0-1.7 1.2-3.5 2.9-3.8v-1.5c-.5-.1-1-.6-1-1.2 0-.7.5-1.2 1.2-1.2s1.2.5 1.2 1.2c.2.8-.2 1.3-.8 1.4" class="st2"/><path id="path4787" d="M72.6 8.8h4.9v4.6h-4.9zm-6.8 7.4v-1h4.6v6.2h2.2v-6.2h4.8v.9h2.2V6.9h-7.1V3.2h-2.2v3.7h-6.8v9.3zm4.6-2.8h-4.6V8.8h4.6z" class="st3"/><g id="g4789" transform="matrix(2.17105 0 0 -2.17105 432.048 942.037)"><path id="path4791" d="M-140.1 432.4h1.1V431h3.5v-.9h-4.9v-1h3.9c-.1-1-.1-2.1-.2-3-.1-.8-.2-1.2-.4-1.5-.2-.2-.9-.3-1.7-.4-.1.4-.2.7-.4 1.1 1 .1 1.5 0 1.5.5.1.5.1 1.3.1 2.3h-2.9c-.2-2.7-1.3-3.4-2.4-4-.2.3-.5.5-.8.8 2.2 1 2.2 2.6 2.2 5.2h-2.1v.9h3.5z" class="st3"/></g><g id="g4793" transform="matrix(2.17105 0 0 -2.17105 566.88 964.353)"><path id="path4795" d="m-183.3 439.6.5.8c1-.5 2.2-1.1 2.8-1.5 0 0-.4-.5-.7-.8-.7.5-2 1.1-2.6 1.5m2.1-1.6v-.9h-2.3v-1.5h3.3v-.9h-7.6v.9h3.2v1.5h-2.2v.9zm-6.1-.1c-.2.2-.4.6-.6.8.7.3 2 .9 2.7 1.6 0 0 .6-.7.7-.7-.4-.3-2-1.3-2.8-1.7m2.7 4.7h1.1v-.9h3.1v-1.9h-1v1.1h-5.2v-1.1h-1v1.9h3z" class="st3"/></g><g id="g4797" transform="matrix(2.17105 0 0 -2.17105 319.4 971.963)"><path id="path4799" d="M-103.9 442h.5v.8h-1.5v.9h1.8v.7h-4.4v-.7h1.7v-.9h-1.5v-.7h1.5v-1.3h-1.9v-.8h4.6v.8h-1.9v1.3zl-.7-.3c.2-.2.5-.6.7-.8l.6.4c-.2.2-.5.5-.6.7m-4.1-4v.7h5.4v-.7h1v7.9h-7.3V438zm5.4 1.4h-5.4v5.6h5.4z" class="st3"/></g><g id="g4801" transform="matrix(2.17105 0 0 -2.17105 379.588 965.75)"><path id="path4803" d="M-123.3 440c-.3-.5-.5-.8-.7-1.1h-.8l.4.2c-.2.3-.5.8-.7.9zm.2 0h1.4v-3.6c0-.3-.2-.5-.6-.5h-.4l.5-1c.7.1 1 .2 1.2.3.2.2.3.3.3.8v4.6h-2.9v.7h3.6v.8h-3.6v1h-1v-1h-3.6v-.8h3.6v-.7h-2.9V435h.9v5h1.5l-.7-.3c.2-.2.4-.6.5-.8h-.9v-.7h1.5v-.6h-1.8v-.8h1.8v-1.5h.9v1.5h1.8v.8h-1.8v.6h1.6v.7h-.9c.2.2.5.6.6.8z" class="st3"/></g><g id="g4805" transform="matrix(2.17105 0 0 -2.17105 487.001 958.063)"><path id="path4807" d="m-157.7 437.6-.7-.1c.1-.5.2-.9.2-1.2l.7.2c0 .2-.2.8-.2 1.1m.4-1.6h-1.4v1.8h1.4zm.7-4c.3-.2.6-.3.8-.5.6.7 1.1 1.6 1.1 4.2v.2h.8l-.1-3.4c0-.6.1-.8.7-.8h.8c.3 0 .5.4.7 1.2-.2.1-.6.3-.8.5-.1-.4-.1-.7-.2-.8s-.1 0-.2 0-.1.1-.1.2c0 .9.1 4 .1 4h-2.6V435c0-1.4-.3-2.5-1-3m-1.1 3-.8-.1c.1-.5.2-1.1.2-1.5l.8.2c0 .4-.2 1.1-.2 1.4m-2.4 1v-.8h.6v-.2c0-1.2-.2-2.1-.7-2.8.2-.2.5-.5.8-.7.5.8.7 1.6.7 3.7h1.4v-2.3c0-.3-.2-.3-.9-.3.2-.3.2-.6.3-.9 1.1.1 1.5.4 1.5.8v6.1h-1.2c.1.3.2.8.2 1-.2.1-.8.2-.9.2 0-.3-.1-.8-.2-1.2h-1V436zm6.4 2.4v1.4h-1v-1.4h-1.5v-.8h4.1v.8z" class="st3"/></g><g id="g4809" transform="matrix(2.17105 0 0 -2.17105 588.1 1046.78)"><path id="path4811" d="M-190.2 466v4.8h-.4v-3.4l-3.1 3.4h-.2V466h.5v3.3l3.1-3.3zm-4 0-1.2 2.4c.5.2 1 .3 1 1.2s-.8 1.2-1.4 1.2h-1.7V466h.7v2.3h.6l1.2-2.3zm-1.8 2.7h-.8v1.6h.8c.5 0 .8-.4.8-.8s-.4-.8-.8-.8m-4.4-.4h2.4v.4h-2.4v1.6h2.4v.4h-3.1V466h3.1v.5h-2.4zm-2.1-2.3h.7v4.8h-.7v-2.1h-2.3v2.1h-.7V466h.7v2.3h2.3zm-4.7 4.3h1.4v.4h-3.6v-.4h1.5V466h.7zm-2.5-2.6v3.1h-.4v-3.2c0-.7-.6-1.2-1.2-1.2s-1.3.5-1.3 1.2v3.2h-.7v-3.2c0-.8.7-1.7 1.8-1.7 1.3.1 1.8 1.1 1.8 1.8m-4 .8c0 1.4-1.1 2.5-2.4 2.5s-2.4-1.1-2.4-2.5 1.1-2.5 2.4-2.5 2.4 1.1 2.4 2.5m-.8-.1c0-1.1-.8-2-1.7-2s-1.7.9-1.7 2 .8 2 1.7 2c1 .1 1.7-.9 1.7-2m-4.5 1.8v.6c-2.8.8-3-1.5-2.1-2.1.4-.2 1-.6 1.3-.9.8-.5-.1-2-1.8-.9v-.6c2.6-.9 3.4 1.2 2.2 2.2-.5.3-.8.6-1.2.8-.8.4-.4 1.6 1.6.9m-5.8-4.2h.8l-1.5 4.8h-.8l-1.5-4.8h.6l.4 1.5h1.4zm-.6 1.9h-1.2l.6 2.1zm-2.7-1.9h.2v4.8h-.4v-3.4l-3.1 3.4h-.2V466h.5v3.3c-.1.1 3-3.3 3-3.3m-5 0h.7v4.8h-.7zm-1.5 0h.7v4.8h-.7v-2.1h-2.3v2.1h-.7V466h.7v2.2h2.3zm-5 0c.6 0 1.2.1 1.5.2v.5q-.6-.3-1.2-.3c-2.7 0-2.5 4-.3 4 .8 0 1.2-.2 1.5-.2v.5c-.4.1-.8.2-1.5.2-3.4 0-3.2-4.9 0-4.9" class="st3"/></g></svg>