<?xml version="1.0" encoding="UTF-8"?>
<svg xmlns="http://www.w3.org/2000/svg" xmlns:xlink="http://www.w3.org/1999/xlink" width="176pt" height="39.18pt" viewBox="0 0 176 39.18" version="1.1">
<defs>
<clipPath id="clip1">
  <path d="M 0 0 L 28 0 L 28 39.179688 L 0 39.179688 Z M 0 0 "/>
</clipPath>
<clipPath id="clip2">
  <path d="M 56 9 L 82 9 L 82 39.179688 L 56 39.179688 Z M 56 9 "/>
</clipPath>
<clipPath id="clip3">
  <path d="M 29 9 L 55 9 L 55 39.179688 L 29 39.179688 Z M 29 9 "/>
</clipPath>
<clipPath id="clip4">
  <path d="M 101 9 L 131 9 L 131 39.179688 L 101 39.179688 Z M 101 9 "/>
</clipPath>
</defs>
<g id="surface1">
<path style=" stroke:none;fill-rule:nonzero;fill:rgb(22.360229%,58.755493%,70.429993%);fill-opacity:1;" d="M 138.152344 29.796875 C 138.796875 29.871094 139.363281 29.945312 139.957031 29.746094 C 139.957031 29.203125 139.957031 28.683594 139.957031 28.105469 C 139.339844 27.925781 138.769531 27.851562 138.152344 28.136719 C 138.152344 28.675781 138.152344 29.195312 138.152344 29.796875 Z M 149.183594 26.875 C 148.707031 26.589844 148.234375 26.539062 147.71875 26.675781 C 147.625 26.960938 147.546875 27.226562 147.453125 27.488281 C 147.316406 27.871094 147.074219 28.15625 146.714844 28.359375 C 145.582031 29 144.113281 28.449219 143.722656 27.210938 C 143.375 26.113281 143.433594 25 143.734375 23.910156 C 143.886719 23.351562 144.296875 22.941406 144.835938 22.714844 C 145.140625 22.589844 145.480469 22.554688 145.765625 22.488281 C 146.078125 22.566406 146.351562 22.636719 146.757812 22.734375 C 147.023438 23.125 147.347656 23.597656 147.742188 24.179688 C 148.148438 24.105469 148.648438 24.019531 149.144531 23.929688 C 149.046875 23.222656 148.796875 22.679688 148.445312 22.257812 C 146.761719 20.226562 143.300781 21.003906 142.328125 23.03125 C 141.652344 24.4375 141.617188 25.886719 142.007812 27.347656 C 142.140625 27.84375 142.449219 28.316406 142.769531 28.726562 C 143.738281 29.96875 145.101562 30.238281 146.539062 29.984375 C 147.992188 29.726562 149.289062 28.269531 149.183594 26.875 Z M 157.832031 25.574219 C 157.8125 25.570312 157.792969 25.566406 157.773438 25.5625 C 157.773438 25.367188 157.78125 25.171875 157.769531 24.976562 C 157.652344 23.238281 156.867188 21.957031 155.191406 21.328125 C 152.933594 20.472656 150.394531 21.726562 149.867188 24.144531 C 149.640625 25.183594 149.664062 26.226562 149.945312 27.277344 C 150.179688 28.15625 150.664062 28.820312 151.378906 29.355469 C 152.429688 30.144531 153.628906 30.191406 154.8125 29.925781 C 156.175781 29.621094 157.140625 28.738281 157.554688 27.378906 C 157.730469 26.800781 157.742188 26.175781 157.832031 25.574219 Z M 159.3125 21.28125 C 159.136719 22.265625 159.171875 29.199219 159.351562 29.808594 C 159.851562 29.867188 160.363281 29.964844 160.929688 29.699219 C 160.929688 29.417969 160.929688 29.144531 160.929688 28.867188 C 160.929688 27.695312 160.90625 26.523438 160.9375 25.351562 C 160.953125 24.71875 161.050781 24.085938 161.097656 23.585938 C 161.894531 22.683594 162.335938 22.5 163.167969 22.640625 C 163.664062 22.726562 163.96875 23.011719 164.050781 23.511719 C 164.089844 23.757812 164.085938 24.011719 164.085938 24.265625 C 164.09375 25.828125 164.089844 27.390625 164.097656 28.953125 C 164.097656 29.222656 164.125 29.496094 164.140625 29.777344 C 164.730469 29.894531 165.238281 29.933594 165.816406 29.734375 C 165.816406 29.445312 165.816406 29.171875 165.816406 28.898438 C 165.816406 27.554688 165.824219 26.214844 165.820312 24.875 C 165.8125 23.171875 166.78125 22.359375 168.382812 22.695312 C 168.910156 23.011719 169.097656 23.492188 169.09375 24.101562 C 169.082031 25.691406 169.089844 27.28125 169.097656 28.875 C 169.097656 29.171875 169.121094 29.46875 169.136719 29.746094 C 169.960938 29.914062 170.136719 29.90625 170.773438 29.707031 C 170.789062 29.585938 170.824219 29.453125 170.824219 29.316406 C 170.828125 27.558594 170.839844 25.796875 170.816406 24.039062 C 170.8125 23.601562 170.722656 23.152344 170.601562 22.726562 C 170.433594 22.144531 170.078125 21.714844 169.519531 21.414062 C 168.5 20.863281 167.046875 20.957031 166.089844 21.832031 C 165.894531 22.011719 165.699219 22.1875 165.476562 22.390625 C 165.015625 21.496094 164.285156 21.148438 163.398438 21.082031 C 162.492188 21.015625 161.703125 21.316406 161.011719 21.894531 C 160.957031 21.941406 160.882812 21.953125 160.839844 21.972656 C 160.746094 21.726562 160.664062 21.503906 160.578125 21.28125 C 160.121094 21.28125 159.738281 21.28125 159.3125 21.28125 Z M 131.085938 34.007812 C 131.496094 33.3125 131.921875 32.625 132.316406 31.921875 C 133.34375 30.105469 133.980469 28.140625 134.226562 26.082031 C 134.394531 24.652344 134.378906 23.195312 134.132812 21.75 C 133.777344 19.671875 133.105469 17.707031 132.214844 15.808594 C 132.097656 15.558594 131.949219 15.324219 131.8125 15.074219 C 140.300781 15.074219 148.773438 15.070312 157.246094 15.074219 C 160.121094 15.074219 162.996094 15.039062 165.871094 15.097656 C 168.058594 15.140625 170.097656 15.746094 171.921875 16.996094 C 173.347656 17.976562 174.332031 19.304688 174.96875 20.890625 C 175.4375 22.054688 175.75 23.265625 175.8125 24.53125 C 175.820312 24.675781 175.9375 24.816406 176 24.957031 C 176 27.976562 176 30.992188 176 34.011719 C 161.382812 34.007812 146.769531 34.007812 132.152344 34.003906 C 131.789062 34.003906 131.425781 33.992188 131.0625 33.988281 L 131.085938 34.007812 "/>
<g clip-path="url(#clip1)" clip-rule="nonzero">
<path style=" stroke:none;fill-rule:nonzero;fill:rgb(15.628052%,56.184387%,27.923584%);fill-opacity:1;" d="M 19.828125 24.148438 C 19.882812 21.679688 19.011719 19.421875 17.734375 17.851562 C 15.761719 15.433594 12.664062 14.765625 10.113281 16.371094 C 9.125 16.996094 8.347656 17.824219 7.757812 18.816406 C 6.300781 21.265625 6.011719 23.886719 6.609375 26.640625 C 7.011719 28.460938 7.847656 30.050781 9.257812 31.28125 C 11.246094 33.019531 13.71875 33.417969 16.117188 31.886719 C 16.855469 31.417969 17.46875 30.8125 17.980469 30.105469 C 19.273438 28.332031 19.855469 26.332031 19.828125 24.148438 Z M 0 23.28125 C 0.109375 22.632812 0.226562 21.984375 0.332031 21.335938 C 0.917969 17.71875 2.425781 14.585938 5.203125 12.140625 C 7.117188 10.457031 9.378906 9.554688 11.933594 9.605469 C 14.355469 9.65625 16.503906 10.566406 18.308594 12.1875 C 18.992188 12.800781 19.574219 13.523438 20.191406 14.203125 C 20.28125 14.304688 20.320312 14.453125 20.488281 14.519531 C 20.621094 12.882812 20.613281 11.308594 20.613281 9.738281 C 20.617188 8.117188 20.617188 6.5 20.617188 4.878906 C 20.617188 3.289062 20.617188 1.703125 20.617188 0.0625 C 22.839844 0.0625 25.007812 0.0625 27.203125 0.0625 C 27.195312 0.0546875 27.21875 0.0703125 27.234375 0.09375 C 27.253906 0.113281 27.28125 0.132812 27.28125 0.15625 C 27.296875 0.296875 27.3125 0.433594 27.3125 0.574219 C 27.316406 12.996094 27.316406 25.421875 27.316406 37.886719 C 25.085938 37.886719 22.898438 37.886719 20.617188 37.886719 C 20.617188 36.703125 20.617188 35.492188 20.617188 34.082031 C 20.34375 34.402344 20.199219 34.5625 20.066406 34.726562 C 18.726562 36.386719 17.152344 37.75 15.128906 38.480469 C 12.109375 39.578125 9.207031 39.265625 6.484375 37.542969 C 4.0625 36.007812 2.476562 33.785156 1.382812 31.179688 C 0.671875 29.496094 0.269531 27.738281 0.148438 25.914062 C 0.140625 25.761719 0.0507812 25.613281 0 25.460938 C 0 24.734375 0 24.007812 0 23.28125 "/>
</g>
<g clip-path="url(#clip2)" clip-rule="nonzero">
<path style=" stroke:none;fill-rule:nonzero;fill:rgb(15.628052%,56.184387%,27.923584%);fill-opacity:1;" d="M 74.152344 24.921875 C 73.648438 25.109375 73.210938 25.273438 72.765625 25.433594 C 71.308594 25.960938 69.769531 26.03125 68.261719 26.28125 C 66.859375 26.515625 65.558594 26.921875 64.550781 28.019531 C 62.957031 29.757812 63.253906 32.085938 65.269531 33.285156 C 66.339844 33.921875 67.496094 34.046875 68.730469 33.871094 C 72.835938 33.292969 74.761719 29.460938 74.753906 26.777344 C 74.75 26.132812 74.621094 25.511719 74.152344 24.921875 Z M 75.609375 37.871094 C 76.148438 37.140625 76.667969 36.394531 77.234375 35.683594 C 78.457031 34.144531 79.707031 32.621094 80.9375 31.085938 C 81.03125 30.96875 81.058594 30.796875 81.117188 30.648438 C 81.175781 30.59375 81.230469 30.535156 81.289062 30.480469 C 81.347656 30.421875 81.402344 30.367188 81.460938 30.3125 C 81.472656 30.296875 81.488281 30.28125 81.503906 30.265625 C 81.496094 30.289062 81.488281 30.308594 81.480469 30.332031 C 81.425781 30.390625 81.367188 30.445312 81.308594 30.5 C 81.25 30.554688 81.195312 30.609375 81.136719 30.664062 C 80.691406 31.03125 80.222656 31.375 79.800781 31.769531 C 78.316406 33.164062 76.75 34.464844 75.0625 35.613281 C 72.925781 37.070312 70.65625 38.25 68.097656 38.75 C 66.050781 39.152344 64 39.21875 61.980469 38.550781 C 59.425781 37.707031 57.910156 35.890625 57.226562 33.359375 C 56.78125 31.699219 56.722656 30.019531 57.140625 28.316406 C 57.675781 26.125 58.882812 24.496094 60.867188 23.421875 C 62.136719 22.738281 63.503906 22.339844 64.910156 22.144531 C 66.589844 21.910156 68.289062 21.792969 69.980469 21.644531 C 71.15625 21.539062 72.296875 21.300781 73.34375 20.742188 C 73.640625 20.582031 73.929688 20.402344 74.183594 20.195312 C 75.269531 19.304688 75.445312 17.78125 74.585938 16.671875 C 74.042969 15.980469 73.375 15.441406 72.542969 15.121094 C 70.199219 14.21875 67.957031 14.285156 65.902344 15.875 C 65.042969 16.542969 64.46875 17.421875 64.167969 18.472656 C 64.128906 18.609375 64.09375 18.742188 64.046875 18.871094 C 64.027344 18.921875 63.980469 18.957031 63.882812 19.082031 C 61.800781 19.039062 59.660156 18.996094 57.453125 18.953125 C 57.441406 17.328125 57.835938 15.859375 58.652344 14.496094 C 59.703125 12.734375 61.3125 11.664062 63.160156 10.929688 C 64.933594 10.226562 66.789062 9.878906 68.6875 9.707031 C 71.15625 9.484375 73.582031 9.722656 75.957031 10.398438 C 78.796875 11.210938 80.859375 12.890625 81.660156 15.847656 C 81.824219 16.457031 81.929688 17.105469 81.933594 17.738281 C 81.953125 24.160156 81.945312 30.582031 81.945312 37.003906 C 81.945312 37.273438 81.921875 37.546875 81.90625 37.851562 C 79.761719 37.851562 77.675781 37.851562 75.589844 37.851562 L 75.609375 37.871094 "/>
</g>
<g clip-path="url(#clip3)" clip-rule="nonzero">
<path style=" stroke:none;fill-rule:nonzero;fill:rgb(15.628052%,56.184387%,27.923584%);fill-opacity:1;" d="M 46.855469 24.863281 C 46.765625 24.863281 46.703125 24.84375 46.65625 24.863281 C 45.183594 25.492188 43.648438 25.828125 42.054688 26.003906 C 41.066406 26.109375 40.082031 26.347656 39.132812 26.648438 C 38.003906 27.003906 37.136719 27.742188 36.59375 28.820312 C 36.203125 29.59375 36.054688 30.394531 36.347656 31.242188 C 36.8125 32.582031 37.792969 33.335938 39.113281 33.667969 C 41.15625 34.183594 43 33.617188 44.609375 32.375 C 46.332031 31.046875 47.1875 29.191406 47.417969 27.054688 C 47.507812 26.261719 47.3125 25.511719 46.855469 24.863281 Z M 36.523438 19.078125 C 34.414062 19.039062 32.277344 19 30.125 18.960938 C 29.875 18.226562 30.128906 17.574219 30.261719 16.945312 C 30.859375 14.199219 32.597656 12.386719 35.082031 11.210938 C 36.480469 10.550781 37.964844 10.179688 39.480469 9.921875 C 40.410156 9.761719 41.355469 9.628906 42.296875 9.609375 C 43.355469 9.585938 44.421875 9.644531 45.46875 9.78125 C 46.515625 9.914062 47.554688 10.132812 48.574219 10.414062 C 50.65625 10.996094 52.398438 12.09375 53.496094 14.03125 C 54.125 15.140625 54.492188 16.328125 54.492188 17.613281 C 54.492188 24.09375 54.492188 30.570312 54.492188 37.046875 C 54.492188 37.292969 54.464844 37.539062 54.445312 37.886719 C 52.332031 37.90625 50.25 37.886719 48.050781 37.898438 C 50.105469 35.335938 52.109375 32.832031 54.113281 30.332031 C 54.085938 30.304688 54.058594 30.277344 54.03125 30.25 C 53.832031 30.425781 53.625 30.589844 53.433594 30.777344 C 51.601562 32.578125 49.660156 34.253906 47.523438 35.695312 C 45.40625 37.125 43.152344 38.253906 40.621094 38.761719 C 38.90625 39.105469 37.179688 39.175781 35.46875 38.804688 C 32.296875 38.113281 30.425781 36.074219 29.722656 32.96875 C 29.257812 30.917969 29.339844 28.875 30.195312 26.898438 C 30.828125 25.433594 31.847656 24.332031 33.214844 23.539062 C 34.535156 22.773438 35.984375 22.347656 37.480469 22.140625 C 39.132812 21.910156 40.800781 21.78125 42.464844 21.652344 C 43.535156 21.570312 44.578125 21.386719 45.539062 20.921875 C 46.082031 20.660156 46.617188 20.316406 47.039062 19.890625 C 47.945312 18.976562 47.972656 17.832031 47.230469 16.773438 C 46.59375 15.867188 45.738281 15.289062 44.695312 14.957031 C 42.804688 14.351562 40.964844 14.339844 39.207031 15.382812 C 37.898438 16.160156 37.019531 17.261719 36.671875 18.761719 C 36.652344 18.839844 36.605469 18.910156 36.523438 19.078125 "/>
</g>
<g clip-path="url(#clip4)" clip-rule="nonzero">
<path style=" stroke:none;fill-rule:nonzero;fill:rgb(15.628052%,56.184387%,27.923584%);fill-opacity:1;" d="M 108.578125 24.222656 C 108.515625 27.171875 109.816406 30 111.90625 31.6875 C 113.621094 33.074219 115.566406 33.546875 117.714844 33.035156 C 119.699219 32.558594 121.132812 31.308594 122.199219 29.632812 C 123.3125 27.890625 123.804688 25.964844 123.710938 23.902344 C 123.59375 21.222656 122.65625 18.910156 120.640625 17.078125 C 117.921875 14.613281 113.835938 14.671875 111.117188 17.589844 C 109.378906 19.453125 108.609375 21.703125 108.578125 24.222656 Z M 130.785156 23.773438 C 130.710938 28.753906 129.0625 32.585938 125.675781 35.621094 C 123.519531 37.550781 120.992188 38.691406 118.105469 39.054688 C 114.191406 39.546875 110.679688 38.574219 107.601562 36.15625 C 104.589844 33.792969 102.757812 30.679688 102.082031 26.890625 C 101.605469 24.222656 101.792969 21.605469 102.699219 19.070312 C 104.164062 14.980469 106.871094 12.007812 110.886719 10.269531 C 113.03125 9.34375 115.289062 9.027344 117.597656 9.238281 C 120.683594 9.519531 123.402344 10.714844 125.726562 12.792969 C 128.246094 15.050781 129.816406 17.847656 130.480469 21.144531 C 130.6875 22.148438 130.722656 23.1875 130.785156 23.773438 "/>
</g>
<path style=" stroke:none;fill-rule:nonzero;fill:rgb(15.628052%,56.184387%,27.923584%);fill-opacity:1;" d="M 83.941406 0.046875 C 86.128906 0.046875 88.324219 0.046875 90.519531 0.046875 C 90.660156 0.667969 90.6875 36.917969 90.542969 37.847656 C 88.355469 37.847656 86.160156 37.847656 83.96875 37.847656 C 83.816406 37.226562 83.785156 1.003906 83.941406 0.046875 "/>
<path style=" stroke:none;fill-rule:nonzero;fill:rgb(15.628052%,56.184387%,27.923584%);fill-opacity:1;" d="M 92.527344 37.867188 C 92.527344 25.28125 92.527344 12.699219 92.527344 0.128906 C 93.171875 -0.0234375 98.246094 -0.046875 99.164062 0.0976562 C 99.164062 12.664062 99.164062 25.234375 99.164062 37.867188 C 96.953125 37.867188 94.78125 37.867188 92.527344 37.867188 "/>
<path style=" stroke:none;fill-rule:nonzero;fill:rgb(13.729858%,12.159729%,12.548828%);fill-opacity:1;" d="M 131.0625 33.988281 C 131.058594 34.007812 131.054688 34.03125 131.046875 34.050781 C 131.0625 34.039062 131.074219 34.023438 131.085938 34.007812 L 131.0625 33.988281 "/>
<path style=" stroke:none;fill-rule:nonzero;fill:rgb(15.628052%,56.184387%,27.923584%);fill-opacity:1;" d="M 75.589844 37.851562 C 75.578125 37.878906 75.570312 37.902344 75.558594 37.925781 C 75.578125 37.910156 75.59375 37.890625 75.609375 37.871094 L 75.589844 37.851562 "/>
<path style=" stroke:none;fill-rule:nonzero;fill:rgb(22.360229%,58.755493%,70.429993%);fill-opacity:1;" d="M 156.140625 25.574219 C 156 26.191406 155.890625 26.816406 155.710938 27.421875 C 155.464844 28.242188 154.421875 28.683594 153.691406 28.621094 C 152.792969 28.546875 152.082031 28.191406 151.738281 27.296875 C 151.355469 26.304688 151.277344 25.285156 151.597656 24.265625 C 151.835938 23.492188 152.265625 22.832031 153.132812 22.648438 C 153.984375 22.46875 154.84375 22.5 155.398438 23.28125 C 155.695312 23.695312 155.851562 24.21875 156.007812 24.714844 C 156.085938 24.96875 156.019531 25.269531 156.019531 25.550781 C 156.0625 25.558594 156.101562 25.566406 156.140625 25.574219 "/>
</g>
</svg>
