<?xml version="1.0" encoding="UTF-8"?>
<svg xmlns="http://www.w3.org/2000/svg" xmlns:xlink="http://www.w3.org/1999/xlink" width="232pt" height="226pt" viewBox="0 0 232 226" version="1.1">
<g id="surface1">
<path style=" stroke:none;fill-rule:nonzero;fill:rgb(92.96875%,18.821716%,14.109802%);fill-opacity:1;" d="M 131.738281 31.507812 C 131.9375 31.484375 132.074219 31.441406 132.214844 31.386719 C 132.050781 31.425781 131.886719 31.460938 131.738281 31.507812 Z M 133.050781 30.824219 C 133.050781 30.839844 133.042969 30.84375 133.042969 30.851562 C 133.050781 30.847656 133.050781 30.847656 133.050781 30.84375 Z M 32.914062 220.421875 C 32.742188 220.527344 32.5625 220.609375 32.410156 220.734375 C 32.578125 220.617188 32.75 220.515625 32.914062 220.421875 Z M 29.15625 123.90625 L 30.105469 124.410156 L 29.15625 125.085938 C 30.796875 125.273438 31.15625 124.351562 31.976562 123.816406 C 30.761719 123.984375 30.527344 122.238281 29.15625 123.90625 Z M 107.121094 40.269531 C 107.109375 40.300781 107.097656 40.316406 107.097656 40.339844 C 107.125 40.324219 107.15625 40.300781 107.183594 40.289062 Z M 107.097656 40.339844 C 106.789062 40.519531 106.457031 40.6875 106.097656 40.84375 C 106.488281 40.722656 106.949219 40.679688 107.097656 40.339844 Z M 133.042969 30.851562 C 132.769531 31.03125 132.5625 31.25 132.214844 31.386719 C 132.582031 31.296875 132.9375 31.191406 133.042969 30.851562 Z M 134.140625 29.277344 L 132.265625 29.082031 L 132.414062 30.222656 Z M 135.179688 34.117188 L 135.085938 33.914062 L 133.621094 34.65625 L 133.914062 34.90625 Z M 133.21875 35.730469 L 133.070312 35.425781 L 131.671875 35.910156 L 131.808594 36.21875 Z M 120.835938 42.542969 L 119.882812 43.222656 L 120.664062 42.957031 Z M 133.9375 33.589844 L 132.621094 34.628906 L 133.707031 34.261719 C 133.972656 34.058594 134.238281 33.84375 133.9375 33.589844 Z M 135.792969 30.128906 C 134.757812 30.246094 134.820312 31.167969 133.828125 30.558594 C 133.476562 30.597656 133.246094 30.707031 133.050781 30.84375 C 133.121094 31.289062 135.480469 31.402344 135.792969 30.128906 Z M 154.136719 13.480469 C 153.972656 13.566406 153.914062 13.675781 153.875 13.800781 C 154.007812 13.71875 154.105469 13.609375 154.136719 13.480469 Z M 134.824219 28.804688 C 135.46875 28.515625 134.851562 28.429688 134.644531 28.289062 C 134.355469 28.542969 134.941406 28.125 134.824219 28.804688 Z M 146.335938 20.863281 L 146.242188 20.664062 L 144.773438 21.398438 L 145.074219 21.648438 Z M 153.363281 14.566406 C 153.957031 14.449219 153.804688 14.09375 153.875 13.800781 C 153.421875 14.070312 152.597656 14.09375 153.363281 14.566406 Z M 228.105469 147.761719 L 227.28125 146.953125 L 226.722656 148.09375 C 227.167969 147.902344 227.761719 147.390625 228.105469 147.761719 Z M 41.617188 109.738281 C 41.640625 109.722656 41.671875 109.703125 41.699219 109.6875 L 41.992188 109.375 Z M 144.371094 22.472656 L 144.230469 22.171875 L 142.824219 22.644531 L 142.964844 22.960938 Z M 148.898438 20.574219 L 148.652344 20.421875 L 147.648438 21 L 147.910156 21.152344 Z M 142.0625 26.925781 C 140.679688 27.035156 139.601562 28.238281 139.980469 29.050781 C 142.308594 28.257812 139.484375 27.570312 142.0625 26.925781 Z M 134.644531 28.289062 C 134.722656 28.222656 134.867188 28.09375 135.128906 27.875 C 134.515625 28.082031 134.5 28.199219 134.644531 28.289062 Z M 135.882812 33.515625 L 136.738281 32.632812 L 136.492188 32.488281 L 135.480469 33.421875 Z M 139.445312 29.46875 L 137.257812 30.574219 L 138.796875 30.042969 Z M 136.757812 34.402344 L 137.746094 33.832031 L 137.496094 33.675781 L 136.492188 34.253906 Z M 40.410156 208.578125 L 42.683594 207.308594 C 41.78125 207.234375 41.0625 208.109375 40.410156 208.578125 Z M 226.214844 167.195312 C 226.386719 166.863281 228.667969 162.722656 230.335938 159.761719 C 230.304688 159.792969 230.253906 159.804688 230.226562 159.820312 C 230.640625 158.230469 227.53125 158.914062 229.640625 156.726562 C 227.371094 152.824219 227.316406 149.375 224.328125 146.929688 L 225.585938 146.128906 C 225.507812 144.890625 224.738281 144.308594 224.28125 143.484375 L 223.726562 144.613281 C 222.890625 144.207031 223.511719 142.910156 223.402344 142.046875 C 220.933594 141.050781 218.015625 137.417969 216.667969 136.960938 C 215.824219 135.136719 214.417969 134.453125 214.359375 132.429688 L 214.53125 132.3125 C 208.273438 126.480469 203.597656 121.699219 196.160156 117.324219 C 196.226562 115.75 193.519531 115.226562 195.382812 113.929688 L 195.65625 114.0625 L 191.851562 110.808594 C 191.609375 111.296875 191.523438 111.847656 191.019531 111.804688 C 188.335938 107.667969 184.195312 103.714844 180.351562 100.125 L 180.472656 99.949219 C 183.421875 95.972656 187.140625 91.804688 191.039062 87.511719 C 191.042969 87.503906 191.070312 87.484375 191.078125 87.464844 L 191.71875 86.746094 C 196.496094 81.476562 201.476562 76.035156 205.550781 70.539062 C 218.480469 56.21875 231.375 40.78125 223.074219 26.746094 C 212.410156 19.882812 195.019531 9.660156 176.945312 17.019531 C 176.835938 16.746094 176.589844 16.539062 176.566406 16.308594 C 174.246094 20.382812 175.4375 13.976562 171.640625 14.8125 C 170.058594 13.703125 167.707031 13.675781 166.945312 12.40625 C 163.9375 15.667969 164.394531 10.335938 161.011719 11.601562 L 160.480469 13.191406 C 160.339844 11.710938 159.304688 13.003906 157.644531 12.523438 C 157.679688 12.976562 158.375 13.332031 157.734375 13.898438 C 156.136719 14.328125 157.816406 13.289062 156.492188 13.152344 C 155.828125 13.257812 155.707031 13.765625 155.328125 14.136719 C 155.46875 14.441406 155.449219 14.800781 155.96875 14.738281 C 155.023438 16.234375 153.90625 16.148438 152.375 17.144531 C 152.6875 17.039062 153.257812 16.726562 153.558594 16.972656 L 153.386719 17.394531 C 154.175781 16.765625 155.6875 18.496094 155.800781 17.15625 C 156.082031 17.0625 156.355469 16.925781 156.582031 16.894531 C 157.394531 14.121094 159.59375 16.96875 160.320312 17.015625 C 159.675781 17.054688 159.542969 17.53125 159.101562 17.691406 L 158.304688 17.132812 C 157.019531 18.265625 159.109375 17.335938 158.410156 18.15625 C 156.558594 18.429688 157.292969 20.066406 154.988281 19.324219 L 155.902344 18.183594 C 155.421875 18.707031 154.640625 18.96875 153.9375 18.621094 C 153.988281 18.554688 154.023438 18.480469 154.074219 18.394531 L 153.257812 19.085938 C 152.023438 19.152344 152.527344 18.273438 151.921875 18.125 C 150.734375 18.292969 150.039062 19.125 149.507812 19.542969 L 151.398438 19.730469 C 152.117188 21.722656 148.839844 20.835938 148.4375 22.742188 C 147.039062 23.21875 146.8125 21.519531 145.332031 22.625 C 144.847656 22.699219 145.101562 22.964844 145.042969 23.179688 C 145.597656 22.757812 146.167969 22.597656 146.886719 23.273438 L 146.339844 24.054688 C 142.527344 24.78125 145.929688 27.1875 142.542969 27.6875 C 142.730469 27.527344 142.664062 27.28125 142.722656 27.058594 C 142.300781 27.3125 141.566406 27.355469 142.101562 27.742188 C 142.09375 27.742188 142.085938 27.746094 142.085938 27.746094 C 142.101562 27.761719 142.121094 27.761719 142.140625 27.78125 C 142.160156 27.789062 142.171875 27.808594 142.210938 27.828125 C 142.222656 27.824219 142.222656 27.824219 142.238281 27.824219 C 142.890625 28.113281 143.574219 27.769531 144.210938 27.496094 C 144.304688 27.769531 144.355469 28.054688 144.804688 28 C 144.710938 28.167969 144.605469 28.300781 144.496094 28.433594 C 142.542969 29.152344 139.40625 29.964844 138.734375 31.601562 L 140.515625 31.441406 C 139.484375 31.683594 138.84375 32.414062 138.347656 32.800781 L 140.238281 32.984375 C 140.414062 33.453125 140.355469 33.753906 140.167969 33.988281 C 139.886719 34.066406 139.5625 34.035156 139.234375 33.785156 C 138.710938 34.199219 137.214844 34.480469 137.375 35.613281 C 137.394531 35.601562 137.417969 35.59375 137.4375 35.59375 C 137.375 35.71875 137.320312 35.839844 137.285156 35.996094 C 135.886719 36.472656 135.660156 34.785156 134.175781 35.875 C 133.6875 35.960938 133.9375 36.21875 133.886719 36.433594 C 134.429688 36.035156 134.984375 35.871094 135.679688 36.492188 L 132.777344 37.769531 L 132.640625 37.460938 C 132.980469 37.210938 133.304688 36.910156 133.609375 36.65625 L 132.621094 36.414062 L 132.351562 36.832031 L 132.320312 36.746094 C 131.492188 36.90625 130.96875 37.328125 130.683594 37.890625 L 129.269531 37.554688 C 128.945312 36.835938 130.59375 36.507812 129.796875 35.953125 C 127.902344 36.132812 130.183594 36.414062 129.347656 36.9375 C 127.519531 37.675781 127.542969 36.136719 127.15625 35.675781 C 126.160156 35.722656 127.726562 40.410156 128.625 43.660156 L 128.390625 43.738281 C 128.308594 43.175781 126.449219 43.449219 127.363281 42.664062 C 126.851562 42.730469 126.367188 43.246094 125.824219 42.839844 C 125.933594 42.695312 126 42.425781 126.507812 42.371094 L 126.28125 41.859375 C 123.789062 42.714844 125.441406 40.019531 124.847656 40.699219 L 123.949219 41.476562 L 123.160156 40.921875 C 123.136719 41.285156 122.40625 41.648438 122.703125 41.902344 C 123.214844 41.851562 123.273438 41.589844 123.390625 41.429688 L 124.796875 41.785156 L 124.035156 42.871094 C 123.84375 42.820312 123.472656 42.820312 123.546875 42.566406 L 121.984375 43.09375 L 123.394531 43.441406 L 123 44.160156 C 122.324219 45.003906 121.183594 44.84375 120.3125 44.613281 C 120.386719 44.484375 120.066406 44.0625 119.773438 43.738281 C 114.523438 41.902344 116.359375 42.25 112.992188 44.222656 L 114.679688 47.121094 C 113.871094 47.539062 112.875 47.703125 111.78125 47.730469 C 105.09375 41.5 97.246094 33.921875 88.597656 24.589844 C 83.992188 22.949219 82.414062 18.359375 77.742188 16.878906 C 77.574219 7.96875 67.960938 7.6875 61.785156 4.28125 C 51.949219 -1.925781 39.859375 1.804688 28.871094 5.070312 C 17.675781 8.019531 4.769531 14.152344 0.441406 27.285156 C -3.511719 54.652344 19.941406 66.5 32.90625 83.0625 C 38.101562 89.238281 44.152344 94.453125 50.648438 99.152344 C 49.910156 99.71875 49.355469 100.34375 49.058594 100.582031 C 49.929688 102.519531 43.257812 104.449219 44.578125 105.773438 C 43.75 105.9375 43.777344 106.394531 43.160156 106.609375 C 43.9375 106.539062 45.136719 105.988281 46.402344 105.546875 C 45.859375 106.113281 45.429688 106.589844 45.003906 107.035156 C 43.53125 107.421875 41.125 109.265625 41.859375 109.285156 C 42.121094 109.152344 42.359375 109.101562 42.597656 109.097656 C 42.332031 109.285156 42.035156 109.484375 41.699219 109.6875 L 41.460938 109.933594 C 41.164062 109.886719 40.820312 110.035156 40.308594 110.648438 L 40.632812 110.820312 L 40.539062 110.929688 L 41.125 111.238281 L 40.308594 111.828125 C 40.332031 111.835938 40.367188 111.835938 40.386719 111.835938 C 39.171875 112.460938 38.3125 113.507812 37.898438 113.84375 C 38.121094 114.320312 37.875 114.796875 37.40625 115.269531 L 37.234375 115.359375 L 37.34375 115.324219 C 35.875 116.730469 32.445312 118.046875 33.417969 119.027344 C 32.585938 119.195312 32.628906 119.648438 32 119.863281 C 33.386719 119.746094 36.066406 118.125 38.101562 118.246094 C 38.039062 118.511719 37.976562 118.777344 37.625 118.777344 C 37.324219 119.0625 36.484375 119.234375 36.507812 119.605469 L 36.46875 119.632812 C 36.429688 119.757812 36.359375 119.882812 36.277344 120.003906 L 34.734375 120.347656 C 33.847656 119.585938 29.777344 122.507812 30.699219 122.554688 C 31.855469 121.921875 32.773438 123.140625 33.191406 121.703125 L 34.207031 121.886719 C 33.433594 122.480469 32.71875 123.039062 32.535156 123.558594 C 32.316406 123.625 32.140625 123.710938 31.976562 123.816406 C 32.140625 123.800781 32.3125 123.742188 32.523438 123.636719 C 32.476562 123.777344 32.476562 123.90625 32.542969 124.042969 C 31.613281 124.464844 31.21875 125.058594 30.886719 125.644531 C 30.605469 125.742188 30.328125 125.808594 30.039062 125.851562 L 30.253906 125.535156 C 29.835938 125.800781 28.917969 125.757812 28.785156 126.269531 C 29.492188 126.089844 30.160156 125.921875 30.796875 125.785156 C 30.410156 126.472656 30.03125 127.136719 28.90625 127.519531 L 29.355469 127.722656 C 27.570312 130.929688 23.054688 132.46875 21.378906 135.527344 C 18.992188 136.574219 18.503906 139.097656 16.65625 140.558594 L 17.851562 140.730469 C 17.824219 140.75 17.789062 140.769531 17.753906 140.78125 L 18.207031 140.976562 C 16.417969 144.179688 11.902344 145.726562 10.226562 148.777344 C 7.832031 149.839844 7.347656 152.355469 5.496094 153.8125 L 8.386719 154.246094 C 7.839844 155.023438 7.253906 155.695312 6.15625 156.066406 C 7.539062 155.949219 9.003906 155.210938 10.4375 155.195312 L 8.269531 157.9375 L 13.09375 156.289062 L 11.46875 158.261719 L 14.339844 157.054688 C 16.96875 156.507812 15.125 158.789062 16.226562 159.230469 C 18.96875 158.542969 16.625 161.695312 19.613281 161.148438 L 17.894531 162.914062 L 18.667969 162.652344 C 20.03125 164.070312 16.902344 166.679688 16.78125 168.015625 L 16.226562 167.96875 C 14.992188 169.21875 16.625 169.25 17.015625 169.707031 C 17.335938 170.425781 16.042969 170.738281 15.566406 171.273438 L 17.257812 171.039062 C 16.277344 172.433594 15.589844 172.910156 14.304688 174.050781 L 15.085938 173.789062 C 15.292969 173.835938 15.648438 173.832031 15.589844 174.085938 C 15.566406 174.453125 14.949219 174.660156 14.632812 174.769531 L 14.871094 175.277344 C 14.554688 175.386719 12.207031 175.367188 12.308594 176.382812 C 13.863281 177.039062 12.78125 175.050781 14.089844 175.546875 C 14.113281 177.183594 10.515625 178.769531 9.613281 180.730469 C 8.457031 182.546875 9.632812 183.558594 6.839844 185.339844 C 6.398438 185.960938 5.257812 187.410156 6.710938 187.03125 L 3.695312 191.480469 C 6.570312 191.089844 4.195312 193.792969 5.253906 194.136719 C 8.769531 194.355469 5.894531 197.929688 9.289062 197.480469 C 8.945312 198.304688 7.839844 199.035156 8.582031 199.492188 C 10.089844 197.671875 10.960938 199.980469 12.953125 198.828125 C 13.449219 199.132812 12.972656 199.648438 12.636719 200.117188 L 14.96875 199.3125 C 16.0625 198.941406 16.277344 199.820312 16.933594 200.0625 L 15.929688 200.640625 L 17.71875 200.621094 C 17.433594 201.183594 16.820312 201.394531 16.492188 201.863281 C 17.511719 201.746094 17.902344 201.03125 18.59375 200.558594 C 20.226562 199.40625 22.9375 199.425781 24.429688 199.152344 L 22.886719 200.503906 L 27.152344 198.816406 C 27.222656 199.382812 26.632812 200.046875 25.605469 200.164062 L 25.933594 200.882812 C 27.4375 200.238281 28.410156 199.203125 30.128906 199.445312 C 29.632812 200.324219 28.835938 200.953125 28.042969 201.574219 C 28.898438 203.054688 28.0625 205.585938 26.757812 206.261719 L 28.945312 206.339844 L 28.417969 207.9375 C 30.449219 208.070312 30.898438 207.085938 32.457031 206.5625 C 31.496094 208.78125 34.574219 208.4375 35.351562 208.164062 C 37.621094 207.632812 39.738281 205.953125 42.371094 206.597656 C 44.742188 205.898438 44.4375 206.003906 46.152344 204.242188 L 46.960938 204.433594 C 47.21875 203.410156 49.625 203.171875 49.894531 202.964844 L 49.289062 202.808594 C 50.824219 202.648438 49.871094 201.328125 51.820312 201.703125 L 51.835938 201.710938 L 51.628906 202.023438 L 53.625 201.6875 C 54.085938 201.574219 54.457031 201.574219 54.773438 201.640625 C 52.398438 202.605469 48.839844 202.566406 47.671875 205.015625 L 49.304688 205.050781 C 48.539062 206.246094 46.707031 206.328125 45.144531 206.753906 C 47.261719 206.214844 49.128906 207.164062 50.40625 205.5 C 49.3125 207.046875 48.902344 208.136719 46.367188 208.882812 L 48.636719 208.339844 C 47.300781 209.257812 47.011719 210.609375 46.800781 211.722656 C 45.882812 211.570312 44.890625 211.429688 44.277344 212.789062 L 45.835938 212.257812 C 45.425781 216.523438 38.261719 214.597656 36.511719 218.265625 L 38.148438 218.300781 C 37.390625 219.503906 35.546875 219.585938 33.988281 220.015625 C 36.101562 219.472656 37.976562 220.417969 39.25 218.753906 C 38.15625 220.304688 37.746094 221.394531 35.210938 222.136719 L 37.492188 221.59375 C 36.109375 222.535156 35.839844 223.929688 35.632812 225.070312 C 39.574219 223.839844 42.535156 221.644531 44.335938 219.261719 C 46.90625 217.789062 49.765625 216.578125 51.007812 214.140625 C 50.234375 210.863281 57.699219 211.859375 58.828125 208.40625 C 56.933594 207.398438 60.128906 205.722656 58.207031 205.433594 C 58.78125 205.117188 59.117188 205.476562 59.671875 205.511719 C 59.296875 205.0625 62.84375 204.5625 61.398438 203.753906 C 67.894531 200.238281 71.285156 195.429688 77.441406 191.542969 C 82.546875 186.152344 90.0625 180.507812 96.835938 175.246094 C 101.664062 172.890625 112.808594 163.183594 125.675781 151.296875 C 127.753906 152.957031 129.597656 154.945312 132.164062 155.988281 C 131.34375 163.007812 139.460938 161.359375 141.082031 165.15625 L 141.632812 164.023438 C 142.042969 166.425781 143.980469 166.371094 145.4375 167.28125 L 145.042969 168.09375 C 150.476562 170.136719 151.210938 177.921875 158.042969 179.246094 C 163.023438 191.515625 177.234375 193.042969 185.972656 201.519531 C 190.148438 199.738281 193.019531 203.144531 196.496094 203.84375 C 196.800781 200.375 201.007812 204.238281 201.058594 203.058594 L 200.933594 202.597656 L 204.179688 203.78125 C 203.398438 202.1875 200.65625 202.464844 200.320312 200.289062 C 198.765625 198.09375 194.792969 198.378906 193.875 196.199219 C 194.078125 196.269531 194.414062 196.335938 194.460938 196.046875 L 194.015625 196.234375 C 193.953125 196.207031 193.898438 196.191406 193.855469 196.167969 C 193.714844 195.804688 193.65625 195.386719 193.6875 194.875 C 193.898438 195.261719 194.398438 195.558594 194.460938 196.046875 L 195.113281 195.773438 C 195.53125 198.40625 197.03125 197.433594 198.078125 197.929688 C 196.96875 196.644531 195.59375 195.625 194.363281 194.257812 L 194.25 193.121094 L 196.332031 193.132812 L 195.425781 190.683594 C 197.585938 190.929688 200.511719 192.761719 201.546875 195.277344 C 206.46875 194.46875 211.300781 198.828125 215.4375 201.046875 C 215.671875 200.566406 215.914062 200.070312 216.417969 200.125 L 217.121094 201.875 C 218.21875 201.402344 219.203125 203.296875 220.207031 203.378906 L 220.339844 202.039062 L 221.042969 202.378906 C 221.894531 201 221.046875 200.582031 220.972656 199.335938 L 224.03125 199.828125 C 223.90625 199.371094 223.425781 198.933594 223.882812 198.351562 C 224.257812 197.929688 224.742188 198.375 225.03125 198.511719 C 225 197.503906 224.65625 193.917969 223.949219 192.164062 C 224.789062 192.574219 225.179688 188.558594 226.855469 189.765625 L 226.667969 189.082031 L 228.347656 188.488281 C 228.332031 188.886719 228.527344 189.1875 228.234375 189.4375 L 228.511719 189.578125 L 228.90625 188.769531 L 228.621094 188.628906 C 231.910156 187.625 228.707031 185.257812 228.996094 183.589844 L 230.921875 183.929688 C 229.507812 181.835938 227.902344 180.855469 227.523438 178.0625 L 228.039062 177.707031 C 226.460938 177.746094 226.347656 175.480469 225.09375 174.46875 L 226.875 173.332031 L 226.566406 172.175781 L 226.054688 172.523438 C 227.371094 170.167969 224.648438 170.035156 225.277344 167.335938 C 225.496094 167.242188 225.804688 166.984375 226.214844 167.195312 Z M 46.953125 211.75 C 47.632812 211.539062 48.277344 211.289062 48.886719 211.023438 C 48.507812 211.984375 47.765625 211.886719 46.953125 211.75 Z M 128.8125 46.660156 L 129.171875 46.242188 C 129.179688 46.636719 129.085938 46.804688 128.8125 46.660156 Z M 139.886719 34.222656 C 139.578125 34.402344 139.15625 34.519531 138.734375 34.675781 C 138.757812 34.273438 138.671875 33.96875 139.886719 34.222656 Z M 139.679688 36.460938 C 139.417969 36.5 139.15625 36.515625 138.894531 36.503906 L 139.792969 36.195312 C 139.769531 36.277344 139.726562 36.367188 139.679688 36.460938 Z M 140.257812 36.03125 C 140.09375 35.890625 139.890625 35.828125 139.652344 35.8125 C 139.652344 35.722656 139.621094 35.609375 139.5625 35.453125 C 139.515625 35.140625 140.472656 35.296875 141.375 35.175781 Z M 143.574219 32.027344 C 143.316406 32.042969 143.042969 32.003906 142.785156 31.875 C 142.839844 31.804688 142.875 31.738281 142.914062 31.652344 L 142.105469 32.34375 C 140.933594 32.40625 141.324219 31.609375 140.839844 31.40625 L 141.5625 31.347656 C 141.308594 31.199219 140.953125 31.203125 140.859375 30.996094 C 141.195312 30.722656 141.546875 30.441406 141.898438 30.167969 C 142.09375 30.128906 142.273438 30.128906 142.398438 30.234375 L 142.238281 30.644531 C 142.707031 30.28125 143.421875 30.734375 143.953125 30.878906 C 143.457031 31.203125 143.222656 31.429688 144.144531 31.523438 C 143.949219 31.738281 143.769531 31.902344 143.574219 32.027344 Z M 142.445312 29.746094 C 143.078125 29.28125 143.734375 28.835938 144.4375 28.507812 C 143.859375 29.167969 143.207031 29.402344 142.445312 29.746094 Z M 146.722656 28.953125 C 146.484375 29.066406 146.210938 29.152344 145.929688 29.199219 C 146.167969 28.96875 146.433594 28.90625 146.722656 28.953125 Z M 145.785156 30.300781 L 145.449219 30.78125 L 144.835938 31.050781 Z M 144.648438 30.414062 C 144.703125 30.394531 144.753906 30.375 144.804688 30.359375 C 144.753906 30.394531 144.703125 30.429688 144.628906 30.472656 C 144.636719 30.453125 144.636719 30.4375 144.648438 30.414062 Z M 145.296875 32.679688 C 145.164062 32.742188 145 32.773438 144.796875 32.773438 C 145.144531 32.21875 145.347656 31.507812 146.078125 31.804688 C 145.894531 32.15625 145.625 32.441406 145.296875 32.679688 Z M 146.085938 30.507812 L 146.230469 30.339844 L 145.847656 30.246094 L 146.695312 29.589844 L 147.390625 29.941406 Z M 149.539062 23.1875 C 149.324219 22.316406 151.265625 23.414062 150.71875 22.199219 C 150.660156 21.734375 152.769531 22.292969 153.671875 21.511719 C 153.835938 21.28125 153.972656 21.054688 154.046875 20.820312 C 153.992188 21.132812 153.863281 21.347656 153.671875 21.511719 C 152.863281 22.597656 151.179688 23.507812 149.539062 23.1875 Z M 152.640625 25.648438 C 152.589844 25.597656 152.542969 25.542969 152.503906 25.496094 L 152.757812 25.519531 Z M 153.980469 22.816406 C 153.890625 23.125 153.730469 23.414062 153.0625 23.402344 L 153.980469 22.816406 C 154.089844 22.359375 154.023438 21.855469 155 22.148438 Z M 157.675781 21.992188 L 157.238281 22.328125 C 157.34375 22.214844 157.496094 22.101562 157.675781 21.992188 L 158.574219 21.28125 L 157.972656 21.140625 L 159.023438 20.296875 C 159.925781 20.976562 158.511719 21.460938 157.675781 21.992188 Z M 177.894531 183.164062 C 177.679688 183.324219 177.523438 183.542969 177.5 183.929688 C 174.242188 181.34375 170.292969 178.40625 167.785156 176.382812 C 168.824219 175.691406 166.824219 175.511719 166.738281 174.265625 C 168.304688 176.035156 170.207031 178.566406 172.960938 177.90625 C 171.515625 179.808594 174.539062 179.679688 174.660156 180.140625 L 175.058594 179.320312 C 176.800781 179.753906 177.058594 182.523438 177.894531 183.164062 C 178.335938 182.835938 179.035156 182.808594 179.429688 182.476562 C 178.710938 183.316406 178.253906 183.425781 177.894531 183.164062 Z M 191.183594 192.621094 C 190.097656 191.289062 188.195312 190.554688 187.902344 189.011719 C 186.605469 190.59375 186.226562 187.800781 184.792969 187.890625 L 184.523438 187.367188 C 184.992188 188.195312 187.691406 187.308594 186.757812 188.855469 C 187.644531 189.894531 191.6875 186.242188 190.128906 190.503906 L 190.4375 191.652344 C 190.820312 191.238281 191.15625 191.601562 191.578125 191.8125 Z M 193.847656 193.972656 C 193.847656 193.949219 193.847656 193.933594 193.855469 193.921875 L 193.878906 193.925781 C 193.871094 193.933594 193.855469 193.949219 193.847656 193.972656 Z M 34.816406 218.492188 L 33.550781 219.277344 L 34.644531 218.902344 Z M 142.914062 31.652344 L 143.273438 31.355469 C 143.085938 31.425781 142.988281 31.535156 142.914062 31.652344 Z M 133.886719 36.429688 C 133.796875 36.5 133.695312 36.574219 133.609375 36.652344 L 133.621094 36.652344 C 133.804688 36.601562 133.871094 36.515625 133.886719 36.429688 Z M 37.648438 212.445312 L 39.667969 212.945312 C 38.847656 213.113281 38.671875 213.519531 38.121094 214.296875 C 39.109375 214.078125 40.058594 213.40625 40.871094 213.597656 C 40.226562 214.167969 41.949219 214.402344 40.546875 214.886719 C 41.683594 215.800781 41.488281 213.390625 43.042969 212.855469 L 41.179688 213.492188 L 41.773438 212.8125 C 40.894531 212.878906 39.898438 211.449219 37.648438 212.445312 Z M 231.296875 156.542969 C 230.929688 157.109375 231.078125 157.824219 231.078125 158.464844 C 231.523438 157.691406 231.859375 157.109375 232 156.890625 Z M 231.082031 158.464844 C 230.851562 158.859375 230.597656 159.292969 230.335938 159.761719 C 230.953125 159.457031 231.070312 158.984375 231.082031 158.464844 Z M 42.855469 212.4375 C 43.277344 212.183594 44.511719 212.117188 44.277344 211.613281 L 42.714844 212.136719 Z M 45.972656 205.242188 L 44.707031 206.015625 L 45.800781 205.65625 Z M 119.476562 43.414062 C 119.382812 43.324219 119.367188 43.3125 119.476562 43.414062 Z M 44.074219 207.179688 C 43.898438 207.265625 43.722656 207.351562 43.566406 207.472656 C 43.738281 207.359375 43.902344 207.261719 44.074219 207.179688 Z M 45.257812 210.210938 L 47.765625 208.992188 L 43.394531 209.667969 Z M 40.410156 208.578125 L 39.964844 208.832031 C 40.121094 208.78125 40.265625 208.691406 40.410156 208.578125 Z M 26.070312 128.617188 L 27.171875 128.246094 L 29.109375 126.988281 Z M 144.789062 23.402344 C 144.957031 23.339844 145.023438 23.261719 145.042969 23.175781 C 144.945312 23.242188 144.855469 23.316406 144.761719 23.390625 Z M 142.976562 26.742188 C 142.820312 26.828125 142.753906 26.9375 142.722656 27.058594 C 142.863281 26.980469 142.964844 26.871094 142.976562 26.742188 Z M 119.476562 43.414062 C 119.542969 43.492188 119.644531 43.605469 119.769531 43.738281 C 119.777344 43.742188 119.800781 43.753906 119.820312 43.765625 C 119.636719 43.585938 119.527344 43.476562 119.476562 43.414062 Z M 215.898438 133.570312 C 215.605469 133.304688 215.324219 133.046875 215.039062 132.777344 C 215.152344 133.21875 215.328125 133.5625 215.898438 133.570312 Z M 142.839844 24.648438 C 143.609375 24.496094 144.191406 23.875 144.761719 23.390625 L 143.773438 23.148438 Z M 138.671875 31.738281 C 138.695312 31.691406 138.71875 31.640625 138.734375 31.597656 L 138.277344 31.640625 Z M 214.882812 132.082031 L 214.53125 132.3125 C 214.703125 132.464844 214.871094 132.628906 215.039062 132.777344 C 214.984375 132.550781 214.9375 132.3125 214.882812 132.082031 Z M 176.566406 16.308594 C 176.640625 16.183594 176.714844 16.039062 176.800781 15.878906 C 176.609375 16.039062 176.554688 16.167969 176.566406 16.308594 Z M 156.792969 17.761719 L 157.386719 17.089844 L 156.976562 16.988281 L 156.441406 17.765625 Z M 154.074219 18.394531 L 154.433594 18.097656 C 154.246094 18.164062 154.152344 18.28125 154.074219 18.394531 Z M 156.582031 16.894531 L 156.980469 16.988281 C 156.867188 16.890625 156.722656 16.867188 156.582031 16.894531 Z M 198.078125 197.925781 C 198.378906 198.273438 198.667969 198.636719 198.910156 199.027344 C 198.714844 198.398438 198.425781 198.09375 198.078125 197.925781 "/>
<path style=" stroke:none;fill-rule:nonzero;fill:rgb(100%,100%,100%);fill-opacity:1;" d="M 106.980469 62.546875 C 104.742188 62.960938 102.773438 65.054688 102.605469 67.21875 C 102.429688 69.386719 104.113281 70.796875 106.359375 70.375 C 108.609375 69.957031 110.566406 67.855469 110.746094 65.695312 C 110.910156 63.53125 109.234375 62.121094 106.980469 62.546875 "/>
<path style=" stroke:none;fill-rule:nonzero;fill:rgb(100%,100%,100%);fill-opacity:1;" d="M 122.839844 72.148438 C 121.910156 72.332031 120.824219 72.53125 116.652344 77.410156 C 117.675781 75.519531 118.007812 73.980469 116.75 73.132812 C 115.441406 72.242188 113.15625 72.929688 111.875 73.765625 C 111.085938 74.277344 111.074219 74.535156 110.933594 75.515625 C 110.828125 76.15625 110.234375 77.585938 109.832031 78.394531 L 108.5625 81.109375 C 103.746094 89.488281 101.066406 91.777344 100.269531 92.722656 C 99.464844 93.617188 98.789062 94.128906 98.320312 94.21875 C 97.964844 94.292969 97.820312 94.03125 97.851562 93.585938 C 97.910156 92.898438 98.15625 91.953125 98.707031 90.71875 C 99.625 88.636719 101.074219 85.550781 102.214844 83.480469 C 102.835938 82.246094 104.429688 79.335938 104.429688 79.335938 C 105.941406 75.964844 103.078125 74.78125 101.40625 75.035156 C 100.917969 75.109375 95.648438 75.722656 89.617188 76.75 C 92.914062 62.960938 92.636719 65.011719 96.066406 56.171875 C 97.734375 51.863281 97.542969 50.878906 96.136719 49.242188 C 94.722656 47.617188 94.984375 45.8125 93.378906 45.671875 C 89.644531 45.339844 76.738281 63.972656 66.34375 82.085938 C 61.457031 83.554688 56.554688 85.300781 52.039062 87.34375 C 49.042969 88.71875 49.617188 91.210938 49.882812 92.496094 C 50.261719 94.28125 52.207031 95.078125 53.753906 94.195312 C 56.097656 92.878906 58.78125 91.628906 61.652344 90.460938 C 61.5625 90.652344 61.535156 90.753906 61.5625 90.742188 C 57.628906 98.15625 53.210938 108.5 51.761719 113.097656 C 50.953125 115.667969 52.238281 117.957031 54.441406 118.964844 C 56.648438 119.96875 58.152344 118.902344 58.890625 115.464844 C 59.816406 111.171875 65.398438 97.898438 71.050781 87.171875 C 71.050781 87.171875 71.085938 87.128906 71.117188 87.0625 C 74.535156 85.96875 77.980469 84.988281 81.230469 84.128906 C 79.242188 92.570312 78.734375 96.066406 78.753906 98.972656 C 78.785156 101.832031 79.832031 105.171875 82.960938 104.71875 C 86.089844 104.261719 85.578125 101.332031 85.921875 98.605469 C 86.714844 92.371094 86.84375 89.667969 88.320312 82.53125 C 88.355469 82.519531 88.398438 82.4375 88.441406 82.3125 C 91.921875 81.507812 94.878906 80.875 96.953125 80.457031 C 96.664062 81.089844 96.332031 81.785156 95.976562 82.515625 C 94.605469 85.304688 93.125 88.734375 92.183594 91.210938 C 91.289062 93.6875 90.792969 95.636719 90.664062 97.289062 C 90.375 100.941406 91.921875 102.90625 94.660156 102.394531 C 96.710938 102.011719 99.84375 99.246094 103.371094 93.742188 C 102.964844 95.058594 102.722656 96.132812 102.699219 96.804688 C 102.59375 99.65625 104 102 108.605469 98.886719 C 109.0625 98.574219 109.125 98.113281 109.136719 97.210938 C 109.382812 94.128906 110.625 90.046875 113.375 85.875 C 115.523438 82.664062 117.03125 80.835938 119 79.996094 C 122.480469 78.480469 124.703125 78.957031 126.648438 76.59375 C 128.550781 74.300781 124.585938 71.824219 122.839844 72.148438 Z M 82.753906 78.03125 C 80.3125 78.519531 77.746094 79.085938 75.101562 79.722656 C 79.65625 71.609375 84.699219 63.464844 89.394531 57.074219 C 87.066406 62.8125 84.703125 70.511719 82.753906 78.03125 "/>
<path style=" stroke:none;fill-rule:nonzero;fill:rgb(100%,100%,100%);fill-opacity:1;" d="M 181.21875 122.320312 C 180.214844 123.957031 179.320312 125.324219 178.039062 126.730469 C 176.875 127.996094 175.957031 128.503906 175.457031 128.316406 C 174.128906 127.835938 174.882812 125.941406 176.242188 123.148438 C 176.890625 121.84375 177.78125 120.148438 178.601562 118.695312 C 179.769531 116.796875 180.011719 116.261719 180.097656 115.585938 C 180.21875 114.613281 179.605469 113.96875 177.800781 113.222656 C 176.648438 112.710938 176.550781 112.617188 176.082031 111.289062 C 175.429688 109.648438 174.035156 108.835938 172.324219 109.074219 C 169.734375 109.433594 165.667969 112.574219 162.070312 117.019531 C 160.753906 118.507812 156.28125 124.539062 155.730469 125.300781 L 155.027344 126.230469 C 153.078125 128.910156 152.527344 129.542969 151.664062 130.496094 C 150.804688 131.339844 150.109375 131.828125 149.632812 131.890625 C 149.28125 131.941406 149.136719 131.675781 149.203125 131.226562 C 149.289062 130.546875 149.582031 129.617188 150.195312 128.410156 C 151.207031 126.371094 152.804688 123.359375 154.039062 121.351562 C 154.71875 120.136719 155.886719 117.953125 155.976562 117.71875 L 156.640625 116.5625 C 158.339844 113.527344 155.738281 112.0625 153.789062 112.210938 C 153.023438 112.28125 151.742188 112.832031 151.117188 113.308594 C 150.605469 113.648438 150.535156 113.785156 150.390625 114.46875 C 150.222656 115.332031 149.058594 117.859375 147.859375 120.085938 C 146.347656 122.8125 144.707031 126.15625 143.644531 128.59375 C 142.644531 131.011719 142.050781 132.945312 141.839844 134.597656 C 141.375 138.222656 142.824219 140.273438 145.582031 139.886719 C 147.648438 139.601562 149.84375 137.636719 152.5625 134.511719 C 153.421875 133.511719 154.386719 132.164062 155.308594 130.746094 C 154.808594 134.789062 156.828125 137.585938 160.273438 137.101562 C 162.5625 136.785156 164.503906 135.101562 166.996094 132.359375 C 167.324219 132.035156 167.441406 131.898438 167.628906 131.875 C 167.804688 131.839844 167.960938 131.992188 167.976562 132.324219 L 168.097656 132.703125 C 168.441406 134.554688 169.828125 135.417969 171.832031 135.136719 C 174.300781 134.800781 177.007812 132.960938 179.980469 129.207031 C 182.371094 126.25 183.324219 124.085938 183.828125 122.742188 C 184.398438 121.199219 182.242188 120.644531 181.21875 122.320312 Z M 167.113281 127.289062 C 165.378906 129.59375 163.75 131.046875 162.808594 131.179688 C 162.226562 131.261719 161.894531 130.6875 162.003906 129.835938 C 162.269531 127.742188 165.667969 121.402344 168.207031 118.261719 C 169.925781 116.070312 171.746094 114.53125 172.554688 114.425781 C 173.207031 114.335938 173.453125 114.6875 173.335938 115.539062 C 173.101562 117.414062 169.464844 124.296875 167.113281 127.289062 "/>
<path style=" stroke:none;fill-rule:nonzero;fill:rgb(100%,100%,100%);fill-opacity:1;" d="M 157.628906 108.332031 C 159.875 107.914062 161.839844 105.816406 162.011719 103.65625 C 162.179688 101.488281 160.5 100.082031 158.253906 100.5 C 156 100.914062 154.046875 103.011719 153.863281 105.171875 C 153.699219 107.347656 155.386719 108.757812 157.628906 108.332031 "/>
<path style=" stroke:none;fill-rule:nonzero;fill:rgb(100%,100%,100%);fill-opacity:1;" d="M 124.652344 117.652344 C 124.335938 117.699219 124.019531 117.742188 123.691406 117.792969 C 127.003906 103.980469 126.722656 106.035156 130.152344 97.199219 C 131.824219 92.886719 131.632812 91.894531 130.214844 90.257812 C 128.8125 88.632812 129.058594 86.835938 127.460938 86.691406 C 123.742188 86.355469 110.875 104.90625 100.5 122.992188 C 95.625 124.457031 90.726562 126.222656 86.238281 128.351562 C 83.425781 129.675781 84 132.183594 84.269531 133.457031 C 84.640625 135.253906 86.476562 136.066406 87.914062 135.207031 C 90.238281 133.835938 92.921875 132.542969 95.796875 131.355469 C 95.667969 131.628906 87.90625 147.019531 85.84375 154.113281 C 85.089844 156.695312 86.328125 158.976562 88.535156 159.976562 C 90.734375 160.984375 92.238281 159.921875 92.976562 156.488281 C 93.898438 152.203125 101.285156 135.027344 105.316406 127.886719 C 108.726562 126.792969 112.148438 125.832031 115.328125 124.988281 C 115.324219 125.054688 112.855469 134.949219 112.839844 139.996094 C 112.835938 142.855469 113.914062 146.191406 117.039062 145.742188 C 120.179688 145.285156 119.660156 142.347656 120.007812 139.625 C 120.804688 133.386719 120.929688 130.6875 122.402344 123.558594 C 122.453125 123.53125 122.519531 123.410156 122.578125 123.21875 C 123.394531 123.019531 124.183594 122.839844 124.914062 122.679688 C 128.824219 121.828125 129.929688 121.863281 130.199219 118.800781 C 130.363281 116.902344 126 117.425781 124.652344 117.652344 Z M 123.472656 98.09375 C 121.15625 103.820312 118.800781 111.496094 116.847656 118.996094 C 114.453125 119.472656 111.894531 120.015625 109.242188 120.644531 C 113.792969 112.558594 118.800781 104.457031 123.472656 98.09375 "/>
<path style=" stroke:none;fill-rule:nonzero;fill:rgb(100%,100%,100%);fill-opacity:1;" d="M 129.613281 142.714844 C 127.589844 142.929688 123.179688 141.929688 122.453125 138.394531 C 122.183594 137.25 123.851562 134.183594 124.195312 133.660156 C 124.792969 132.734375 125.726562 133.28125 126.03125 133.742188 C 126.726562 134.761719 130.441406 138.089844 132.59375 135.941406 C 133.976562 134.554688 131.832031 132.734375 130.9375 131.261719 C 127.625 125.804688 132.09375 119.472656 133.503906 118.078125 C 136.558594 115.074219 138.714844 114.796875 140.230469 114.753906 C 144.578125 114.609375 146.078125 117.074219 145.75 118.527344 C 145.382812 120.128906 144.539062 121.066406 143.949219 121.695312 C 143.535156 122.160156 142.308594 122.28125 141.925781 121.722656 C 141.003906 120.371094 140.464844 118.554688 137.777344 119.640625 C 135.625 120.507812 135.5 123.441406 135.960938 124.878906 C 136.714844 127.171875 139.769531 128.894531 139.742188 132.203125 C 139.675781 140.738281 132.179688 142.445312 129.613281 142.714844 "/>
</g>
</svg>
