<?xml version="1.0" encoding="UTF-8"?>
<svg xmlns="http://www.w3.org/2000/svg" xmlns:xlink="http://www.w3.org/1999/xlink" width="176pt" height="47.7pt" viewBox="0 0 176 47.7" version="1.1">
<defs>
<clipPath id="clip1">
  <path d="M 0 0 L 48 0 L 48 47.699219 L 0 47.699219 Z M 0 0 "/>
</clipPath>
</defs>
<g id="surface1">
<g clip-path="url(#clip1)" clip-rule="nonzero">
<path style=" stroke:none;fill-rule:nonzero;fill:rgb(100%,100%,100%);fill-opacity:1;" d="M 0.621094 23.851562 C 0.621094 11.027344 11.023438 0.625 23.847656 0.625 C 36.671875 0.625 47.074219 11.027344 47.074219 23.851562 C 47.074219 36.679688 36.671875 47.078125 23.847656 47.078125 C 11.023438 47.078125 0.621094 36.679688 0.621094 23.851562 "/>
<path style=" stroke:none;fill-rule:nonzero;fill:rgb(12.866211%,11.170959%,11.180115%);fill-opacity:1;" d="M 23.847656 1.246094 C 11.382812 1.246094 1.242188 11.386719 1.242188 23.851562 C 1.242188 36.316406 11.382812 46.457031 23.847656 46.457031 C 36.308594 46.457031 46.449219 36.316406 46.449219 23.851562 C 46.449219 11.386719 36.308594 1.246094 23.847656 1.246094 Z M 23.847656 47.699219 C 10.695312 47.699219 0 37.003906 0 23.851562 C 0 10.707031 10.695312 0.00390625 23.847656 0.00390625 C 37 0.00390625 47.691406 10.707031 47.691406 23.851562 C 47.691406 37.003906 37 47.699219 23.847656 47.699219 "/>
</g>
<path style=" stroke:none;fill-rule:nonzero;fill:rgb(12.866211%,11.170959%,11.180115%);fill-opacity:1;" d="M 18.1875 20.882812 C 17.066406 20.894531 15.269531 21.074219 14.363281 21.097656 C 13.453125 21.125 12.765625 20.289062 13.054688 19.429688 C 13.351562 18.570312 14.355469 15.710938 17.707031 12.53125 C 21.398438 9.03125 24.851562 7.992188 25.417969 7.84375 C 25.988281 7.695312 26.796875 7.886719 27.375 8.34375 C 31.902344 11.960938 31.21875 15.453125 34.273438 18.34375 C 36.394531 20.347656 35.261719 23.203125 33.53125 24.496094 C 30.976562 26.410156 22.707031 29.707031 20.375 30.167969 C 18.621094 30.515625 17.410156 30.214844 17.109375 29.25 C 16.902344 28.570312 17.632812 26.132812 17.820312 24.585938 C 18.003906 23.113281 18.152344 21.128906 18.1875 20.882812 "/>
<path style=" stroke:none;fill-rule:evenodd;fill:rgb(91.677856%,12.130737%,15.875244%);fill-opacity:1;" d="M 26.507812 24.660156 C 27.234375 24.171875 27.84375 23.988281 27.835938 23.648438 C 27.828125 23.308594 27.109375 21.949219 25.394531 22.421875 C 23.679688 22.894531 22.421875 23.6875 21.582031 24.816406 C 21.582031 24.816406 22.089844 23.761719 22.765625 23.105469 C 23.445312 22.453125 23.664062 22.320312 23.664062 22.320312 C 23.664062 22.320312 22.460938 21.765625 21.484375 22.453125 C 20.515625 23.140625 19.957031 23.863281 19.707031 25.351562 C 19.460938 26.832031 19.828125 27.433594 20.179688 27.519531 C 20.527344 27.597656 21.398438 27.238281 21.847656 27.015625 C 22.304688 26.796875 25.785156 25.148438 26.507812 24.660156 "/>
<path style=" stroke:none;fill-rule:evenodd;fill:rgb(98.323059%,79.00238%,3.585815%);fill-opacity:1;" d="M 18.921875 20.832031 C 18.921875 20.832031 18.886719 22.523438 18.535156 24.53125 C 18.183594 26.546875 17.394531 28.972656 18.023438 29.378906 C 19.113281 30.082031 21.914062 29.097656 25.566406 27.539062 C 29.226562 25.984375 32.402344 24.824219 33.519531 23.4375 C 34.378906 22.375 34.789062 21.253906 34.390625 19.945312 C 34.097656 18.992188 32.511719 17.820312 32.136719 17.191406 C 31.761719 16.5625 29.316406 11.523438 28.070312 10.3125 C 26.824219 9.113281 26.457031 8.40625 25.007812 8.898438 C 23.570312 9.394531 20.03125 11.105469 17.65625 13.75 C 15.28125 16.386719 14.457031 17.957031 13.800781 19.777344 C 13.691406 20.085938 14.203125 20.566406 15.226562 20.410156 C 16.253906 20.253906 21.1875 20.023438 23.921875 20.492188 C 26.65625 20.96875 30.980469 21.3125 32.058594 21.042969 C 33.125 20.773438 33.601562 20.554688 32.941406 21.207031 C 31.933594 22.203125 30.472656 23.597656 25.035156 26.285156 C 23.882812 26.855469 19.851562 28.914062 19.070312 28.214844 C 18.488281 27.695312 18.992188 26.414062 19.355469 24.160156 C 19.632812 22.441406 19.785156 20.824219 19.785156 20.824219 L 18.921875 20.832031 "/>
<path style=" stroke:none;fill-rule:evenodd;fill:rgb(12.866211%,11.170959%,11.180115%);fill-opacity:1;" d="M 24.570312 14.09375 C 24.691406 13.859375 25.222656 13.089844 25.699219 12.976562 C 26.183594 12.863281 26.617188 13.132812 26.191406 13.480469 C 25.765625 13.824219 25.410156 13.871094 25.15625 14.035156 C 24.902344 14.199219 24.445312 14.332031 24.570312 14.09375 "/>
<path style=" stroke:none;fill-rule:evenodd;fill:rgb(98.323059%,79.00238%,3.585815%);fill-opacity:1;" d="M 27.8125 34.839844 C 27.8125 35.320312 27.300781 36.324219 25.4375 37.539062 C 24.820312 37.929688 23.363281 37.96875 21.914062 37.96875 L 21.664062 37.933594 C 21.214844 37.691406 20.992188 37.363281 20.992188 36.949219 C 20.992188 36.746094 21.070312 36.433594 21.214844 36.027344 C 21.363281 35.605469 21.4375 35.296875 21.4375 35.089844 L 21.363281 34.921875 L 21.289062 34.742188 C 21.289062 34.628906 21.648438 34.417969 22.359375 34.117188 C 23.085938 33.8125 23.570312 33.65625 23.820312 33.65625 C 24.53125 33.65625 25.347656 33.777344 26.273438 34.015625 C 27.296875 34.277344 27.8125 34.550781 27.8125 34.839844 "/>
<path style=" stroke:none;fill-rule:nonzero;fill:rgb(100%,100%,100%);fill-opacity:1;" d="M 24.855469 35.660156 C 24.570312 35.449219 24.265625 35.390625 23.636719 35.289062 C 23.457031 35.246094 23.179688 35.289062 23.152344 35.289062 C 23.203125 35.289062 23.128906 35.308594 22.921875 35.347656 C 22.84375 35.621094 22.800781 35.773438 22.800781 35.800781 C 22.800781 36.152344 23.039062 36.328125 23.496094 36.328125 C 23.730469 36.328125 23.996094 36.273438 24.289062 36.160156 C 24.589844 36.042969 24.785156 35.765625 24.855469 35.660156 "/>
<path style=" stroke:none;fill-rule:evenodd;fill:rgb(98.323059%,79.00238%,3.585815%);fill-opacity:1;" d="M 19.808594 36.238281 C 19.808594 36.492188 19.71875 37.035156 19.539062 37.867188 C 19.15625 37.9375 18.785156 37.921875 18.417969 37.992188 C 17.976562 38.074219 17.585938 38.113281 17.253906 38.113281 C 16.578125 38.113281 16.167969 37.949219 16.015625 37.621094 C 15.964844 37.316406 15.925781 36.394531 15.878906 36.082031 C 15.742188 35.753906 14.890625 35.804688 14.289062 36.046875 C 13.988281 36.175781 14.007812 36.507812 13.613281 36.9375 C 13.230469 37.371094 12.8125 37.875 12.300781 37.875 C 11.242188 37.875 10.734375 37.960938 10.503906 37.78125 C 10.519531 37.539062 10.488281 36.683594 10.734375 36.148438 C 10.964844 35.644531 11.082031 35.246094 11.082031 34.964844 L 11.007812 34.621094 L 10.957031 34.273438 C 10.957031 33.773438 11.542969 33.523438 12.722656 33.523438 C 13.378906 33.523438 13.824219 33.597656 14.058594 33.734375 C 14.191406 33.832031 14.273438 34.003906 14.300781 34.25 C 14.335938 34.539062 14.222656 34.859375 14.355469 34.988281 L 14.777344 34.8125 C 14.988281 34.636719 15.28125 34.359375 15.855469 34.285156 C 16.453125 34.210938 17.171875 33.996094 17.492188 33.996094 C 18.152344 33.996094 18.71875 34.382812 19.332031 34.496094 C 19.628906 34.914062 19.808594 35.722656 19.808594 36.238281 "/>
<path style=" stroke:none;fill-rule:evenodd;fill:rgb(98.323059%,79.00238%,3.585815%);fill-opacity:1;" d="M 37.699219 32.398438 C 37.480469 32.632812 36.828125 33.167969 35.742188 33.992188 C 34.746094 34.761719 34.21875 35.207031 34.152344 35.347656 C 34.46875 35.621094 34.96875 35.910156 35.664062 36.207031 C 36.277344 36.441406 36.898438 36.683594 37.523438 36.929688 C 37.511719 37.097656 37.128906 37.277344 36.382812 37.453125 C 35.722656 37.617188 35.175781 37.703125 34.746094 37.710938 C 34.46875 37.597656 33.921875 37.460938 33.109375 37.296875 C 32.515625 37.171875 31.921875 37.046875 31.324219 36.929688 C 31.078125 36.945312 30.875 37.058594 30.710938 37.265625 C 30.460938 37.597656 30.308594 37.78125 30.257812 37.824219 C 30.027344 38.015625 29.691406 38.105469 29.242188 38.089844 L 28.945312 38.089844 C 28.761719 37.886719 28.671875 37.738281 28.671875 37.632812 C 28.671875 37.527344 28.703125 37.371094 28.773438 37.164062 C 28.855469 36.949219 28.894531 36.789062 28.894531 36.683594 C 28.894531 36.570312 28.855469 36.40625 28.773438 36.183594 C 28.6875 35.949219 28.648438 35.777344 28.648438 35.667969 C 28.648438 35.457031 28.710938 35.242188 28.84375 35.042969 C 29.257812 34.949219 29.65625 34.566406 30.039062 33.902344 C 30.335938 33.316406 30.632812 32.726562 30.929688 32.140625 C 31.242188 31.515625 31.535156 31.1875 31.796875 31.160156 C 31.964844 31.148438 32.203125 31.128906 32.515625 31.101562 L 32.914062 30.855469 C 33.078125 30.699219 33.289062 30.621094 33.53125 30.621094 L 34.722656 30.621094 L 34.796875 30.726562 C 34.710938 30.871094 34.246094 31.488281 33.378906 32.578125 C 32.773438 33.359375 32.464844 33.976562 32.464844 34.4375 L 32.589844 34.683594 C 32.675781 34.640625 33.335938 34.21875 34.574219 33.414062 C 35.402344 32.878906 36.136719 32.488281 36.78125 32.242188 C 37.175781 32.277344 37.480469 32.332031 37.699219 32.398438 "/>
<path style=" stroke:none;fill-rule:nonzero;fill:rgb(6.266785%,5.734253%,5.047607%);fill-opacity:1;" d="M 60.855469 11.199219 L 67.132812 11.199219 L 72.40625 26.664062 L 72.472656 26.597656 C 72.214844 23.632812 71.730469 20.703125 71.730469 17.738281 L 71.730469 11.199219 L 78.070312 11.199219 L 78.070312 36.882812 L 71.730469 36.882812 L 66.808594 22.066406 L 66.746094 22.136719 C 66.910156 24.550781 67.199219 26.933594 67.199219 29.355469 L 67.199219 36.882812 L 60.855469 36.882812 L 60.855469 11.199219 "/>
<path style=" stroke:none;fill-rule:nonzero;fill:rgb(6.266785%,5.734253%,5.047607%);fill-opacity:1;" d="M 90.523438 30.851562 C 93.019531 30.851562 93.117188 25.644531 93.117188 24.039062 C 93.117188 22.4375 93.019531 17.226562 90.523438 17.226562 C 88.035156 17.226562 87.941406 22.4375 87.941406 24.039062 C 87.941406 25.644531 88.035156 30.851562 90.523438 30.851562 Z M 90.523438 10.757812 C 97.230469 10.757812 99.847656 17.773438 99.847656 24.039062 C 99.847656 30.308594 97.230469 37.328125 90.523438 37.328125 C 83.832031 37.328125 81.210938 30.308594 81.210938 24.039062 C 81.210938 17.773438 83.832031 10.757812 90.523438 10.757812 "/>
<path style=" stroke:none;fill-rule:nonzero;fill:rgb(6.266785%,5.734253%,5.047607%);fill-opacity:1;" d="M 120.234375 11.199219 L 114.960938 23.597656 L 120.847656 36.882812 L 113.761719 36.882812 L 109.652344 25.097656 L 109.683594 25.097656 L 109.621094 25.097656 L 109.621094 36.882812 L 103.019531 36.882812 L 103.019531 11.199219 L 109.621094 11.199219 L 109.621094 22.136719 L 109.652344 22.136719 L 113.277344 11.199219 L 120.234375 11.199219 "/>
<path style=" stroke:none;fill-rule:nonzero;fill:rgb(6.266785%,5.734253%,5.047607%);fill-opacity:1;" d="M 138.441406 28.128906 L 137.726562 22.167969 C 137.53125 20.570312 137.40625 18.933594 137.242188 17.335938 L 137.179688 17.335938 C 136.988281 18.933594 136.820312 20.570312 136.5625 22.167969 L 135.660156 28.128906 Z M 139.703125 36.882812 L 139.21875 33.578125 L 134.785156 33.578125 L 134.234375 36.882812 L 127.4375 36.882812 L 133.296875 11.199219 L 141.351562 11.199219 L 146.53125 36.882812 L 139.703125 36.882812 "/>
<path style=" stroke:none;fill-rule:nonzero;fill:rgb(6.266785%,5.734253%,5.047607%);fill-opacity:1;" d="M 148.699219 36.882812 L 155.300781 36.882812 L 155.300781 11.199219 L 148.699219 11.199219 L 148.699219 36.882812 "/>
<path style=" stroke:none;fill-rule:nonzero;fill:rgb(6.266785%,5.734253%,5.047607%);fill-opacity:1;" d="M 165.644531 23.089844 C 167.390625 23.089844 168.332031 21.488281 168.332031 19.820312 C 168.332031 17.570312 167.039062 16.617188 165.226562 16.714844 L 165.226562 23.050781 Z M 168.847656 36.882812 L 165.191406 26.183594 L 165.128906 26.253906 C 165.160156 27.515625 165.226562 28.777344 165.226562 30.03125 L 165.226562 36.882812 L 158.628906 36.882812 L 158.628906 11.199219 L 164.996094 11.199219 C 170.726562 11.199219 174.863281 12.96875 174.863281 19.75 C 174.863281 22.574219 173.703125 25.097656 171.082031 26.183594 L 176 36.882812 L 168.847656 36.882812 "/>
</g>
</svg>
