<svg xmlns="http://www.w3.org/2000/svg" width="199.92" height="59pt" viewBox="0 0 149.94 59"><defs><clipPath id="a"><path d="M88 14h61.941v45H88Zm0 0"/></clipPath></defs><path d="M72.793 36.988c1.691-1.234 2.328-3.097 2.48-7.23.16-4.485-.273-6.36-1.878-8.113-1.114-1.215-1.344-1.301-3.707-1.434-2.418-.137-3.754.133-4.27.648-.52.52-.414 1.368-.414 1.368v6.93c0 7.648-.074 7.386 2.402 8.308 1.7.629 4.172.414 5.387-.477m-3.54 7.602c-.894-.242-2.339-.856-3.206-1.363l-1.578-.922-.637.851c-.598.793-.875.852-4.008.852h-3.367V.289l1.344-.215c1.672-.265 4.847.211 5.61.844 1.39 1.156 1.593 2.266 1.593 8.703 0 3.438.094 6.25.21 6.25.118 0 .641-.297 1.161-.664 1.68-1.176 3.54-1.562 6.781-1.41 3.586.172 5.672 1.008 7.688 3.086 2.98 3.07 3.754 5.601 3.742 12.234-.004 4.094-.125 5.074-.871 7.184-1.04 2.953-2.41 4.742-4.184 6.297-1.773 1.554-3.11 1.71-4.375 1.914-1.804.289-3.707.672-5.902.078M44.677 24.086c-.364-2.297-.824-3.098-2.18-3.797-1.621-.84-4.633-.531-5.855.598-1.082.996-1.91 2.758-1.91 4.054v.903h10.222Zm-8.54 20.363c-4.366-1.18-6.882-3.37-9-7.844-1.109-2.343-1.257-7.199-1.32-7.699-.062-.5.223-5.093 1.227-7.144 2.613-5.324 7.047-8.02 13.207-8.024 3.434 0 4.746.332 7.305 1.864 3.656 2.18 5.34 5.91 5.34 11.812v3.418H34.652l.246 1.316c.305 1.618 1.305 3.637 2.211 4.457 2.672 2.418 8.22 2.188 11.602-.484.738-.578 1.504-.957 1.7-.832.679.418 2.128 3.707 2.128 4.824 0 1.469-1.535 2.899-4.203 3.926-2.836 1.094-8.918 1.297-12.2.41m-25.972.078C4.52 42.95.891 38.465.172 32.195c-1.281-11.27 4.625-18.441 15.2-18.457 5.679-.008 10.097 2.242 10.097 5.149 0 1.383-.801 3.441-1.594 4.101-.344.285-1.02.047-2.637-.914-4.351-2.594-8.918-1.965-10.96 1.508-.954 1.625-1.15 3.848-.993 5.645 0 0 .442 5.742 2.176 7.343 1.207 1.114 2.934 1.739 4.797 1.739 1.699 0 4.762-1.133 5.867-2.172 1.047-.985 1.547-.63 2.613 1.855 1.301 3.024.707 4.184-3.015 5.887-1.805.828-2.692.992-5.868 1.086-2.578.074-4.347-.059-5.69-.438" style="stroke:none;fill-rule:nonzero;fill:#4a64ab;fill-opacity:1"/><g clip-path="url(#a)"><path d="M138.238 38.398c3.086-2.238 3.801-11.55 1.13-14.726-2.25-2.672-5.833-2.656-8.165.039-1.289 1.488-1.691 3.176-1.683 7.008.007 3.117.128 3.824.902 5.343 1.57 3.094 5.254 4.196 7.816 2.336m-7.129 7.329c-4.379-.997-8.023-4.149-9.617-8.32-1-2.622-1.36-8.188-.719-11.11.575-2.613 2.329-5.922 4.055-7.656.754-.754 2.438-1.88 3.738-2.496 2.282-1.082 4.786-1.313 6.239-1.313 1.382.004 5.554.27 7.394 1.133 5.524 2.586 8.227 8.203 7.672 15.953-.629 8.863-5.367 13.715-13.77 14.113-1.71.082-3.882-.05-4.992-.304m-24.07-7.5.926-.606v-14.57l-1.488-.758c-3.215-1.64-6.93-.059-7.961 3.39-1.086 3.63-.45 9.844 1.203 11.735 1.465 1.676 5.344 2.105 7.32.809M93.598 58.16c-1.336-.453-2.836-1.23-3.328-1.722-1.465-1.47-1.141-3.723.902-6.305l.683-.867 1.735 1.101c2.031 1.29 5.008 2.23 7.047 2.227 4.726-.004 7.32-2.684 7.324-7.567l.004-1.695-1.871.98c-1.668.88-2.235.981-5.254.973-2.754-.012-3.73-.168-5.25-.844-4.426-1.972-6.86-6.91-6.86-13.925 0-4.957 1.497-9.836 3.774-12.29 1.363-1.28 1.375-1.28 2.992-2.124 1.55-.813 2.563-1.059 4.856-1.184 3.164-.176 4.703.18 6.718 1.55l1.282.868.996-.738c1.37-1.012 3.422-1.438 5.675-1.176l1.895.223-.145 15.894c-.152 16.856-.21 17.48-1.968 20.922-2.461 4.809-6.23 6.555-14.118 6.539-3.921-.008-5.039-.14-7.09-.84" style="stroke:none;fill-rule:nonzero;fill:#3b8c70;fill-opacity:1"/></g></svg>