<svg xmlns="http://www.w3.org/2000/svg" id="Layer_1" version="1.1" viewBox="0 0 179 56"><defs><style>.st0{fill:#fb0f0c}</style></defs><path d="M12.1 7c1.2 1.1 2.9 1.9 4.6 2 2.1.2 3.8-1 5.8-.8 2.3.1 3.6 1.8 5.3 2.9 1.8 1.2 4.6 2.5 6.8 2.1 1.3-.2 2.7.1 3.8.7 1.1.5 2 1.3 2.7 2.2.8 1 1.2 2.1 2.3 2.9.8.6 1.5.8 2.3 1.2 1.1.4 1.9 1.1 2.8 1.7s1.8.9 2.8 1.2c.6.2 1 .8.9 1.5 0 .6-.6 1-.7 1.5 0 .3-.1.6-.2.9-.3.7-.9 1.7-1.8 1.7-1.4 0-2.8.2-4.1.5-2.2.5-4.4 1.2-6.2 2.6-1 .8-1.7 1.8-2.4 2.9C34.7 38 32 41 29 43.4c-2 1.6-4.3 2.9-6.8 3.7-.5.2-2.4.8-2.9.5s-1-.7-1.4-1.1c-2.9-2.3-5.6-5.2-7.2-8.5 2.9-.9 5.7-2 8.4-3.1 2-.9 4.1-1.8 6-2.9.8-.5 2.8-1.5 3-2.6 0-.7-2.6-.8-3.2-1-2.6-.8-4.8-2.6-6.4-4.7-.7-1-1.1-1.8-2.4-2.2-1.8-.5-3.5.2-5.2.5-2.3.4-4.7.2-6.9-.6-.6-.2-4.9-2-3.7-3.2.5-.6 1.9.7 2.3.8.6.2 1.3.3 2 .4 1.2.2 2.5.3 3.7.2s3.1-.4 4-1.3c1-1 2.4-1.8 3.7-2.1 2.8-.8 5.3.4 7.2 2.5.8.8 2.8 2.8 4 1.6 1.3-1.4 3.6 0 4.8.8.5.4.8.3 1.3-.2.6-.5-.6-.8-.9-.9-.9-.2-1.7-.5-2.5-.9-1.6-.7-3-1.7-4.2-2.9-.8-.8-1.1-1.9-2-2.7-1.5-1.2-3.1-1-4.8-1.2-1.1-.1-2.2-.4-3.3-.8-1.6-.6-2.9-1.5-4-2.9-.6-.9-1.1-2.2.5-1.6m29.5 13.6c-.8 0-1.4.3-1.4.8s.6.8 1.4.8 1.4-.3 1.4-.8-.6-.8-1.4-.8" class="st0"/><path d="M12.1 36.9c-1.8-3.4-2.7-7.3-2.7-11.4s0-1.8.1-2.7H7.9c0 .9-.1 1.9-.1 2.8 0 4.2 1 8.3 2.7 11.8zM10.3 18.5c.7-2.6 1.9-5 3.4-7.1-.2 0-1.3-.9-1.3-.9-1.7 2.5-3 5.3-3.8 8.4 1-.1 1.7-.4 1.7-.4M33-.4c-7.3 0-13.8 3.2-18.4 8.2.8.4 1.7.5 1.7.5 4.1-4.3 9.9-7 16.2-7 12.8 0 23.2 10.8 23.2 24.2S45.3 49.7 32.5 49.7s-6.5-.7-9.4-2.1-2.1.6-2.7.7c3.7 2.2 8 3.5 12.7 3.5 14 0 25.3-11.7 25.3-26.1S47-.4 33-.4" class="st0"/><path d="M94.9 30.9v-.4h-.7l-.2.6h.6c.1 0 .2 0 .3-.2m1.8 2.1.9-3.2h3l-.2.7h-1.5l-.2.6h1.5l-.2.7h-1.5l-.2.6h1.5l-.2.7h-3Zm3.9 0 .9-3.2h3c.2 0 .4 0 .5.2s.2.3.1.5l-.6 2c-.1.3-.4.5-.8.5zm2.5-.8.4-1.4v-.2h-.7l-.5 1.9h.6c.1 0 .2 0 .3-.2Zm6.7-2.4c.2 0 .4 0 .5.2s.1.3.1.4v.3h-1.5v-.2h-.5c-.1 0-.2 0-.2.2v.2s.1.1.2.1l1 .4c.2 0 .4.2.5.3s.2.3.1.4v.5c-.2.3-.5.5-.9.5h-2.4c-.2 0-.4 0-.5-.2s-.1-.3-.1-.4v-.3h1.6v.2h.5c.1 0 .2 0 .3-.2V32s-.1 0-.2-.1l-1-.4q-.45-.15-.6-.3s-.1-.2 0-.4v-.4c.2-.3.5-.5.9-.5h2.4Zm.7 3.2.9-3.2h3l-.2.7h-1.5l-.2.6h1.5l-.2.7h-1.5l-.2.6h1.5l-.2.7h-3Zm3.7 0 2-3.2h2.2l.2 3.2h-1.4v-1.3h-1l-.8 1.3zm2.8-2.6-.4.7h.4zm2.5 2.6 2-3.2h2.2l.2 3.2h-1.4v-1.3h-1l-.8 1.3zm2.8-2.6-.4.7h.4zm2.2 2.6.9-3.2h1.5L126 33zm2.5 0 .9-3.2h3c.2 0 .4 0 .5.2s.2.3.1.4l-.2.7c0 .2-.2.3-.5.4.2.2.3.3.2.5l-.3 1h-1.5l.3-1v-.2h-.7l-.4 1.3h-1.5Zm2.8-2.1v-.4h-.7l-.2.6h.6c.1 0 .2 0 .3-.2m1.8 2.1.9-3.2h1.5l-.7 2.5h1.5l-.2.7zm3.9 0 .9-3.2h1.5L137 33zm2.5 0 .9-3.2h1.1l1 1.6.4-1.6h1l-.9 3.2h-1.2l-1-1.6-.4 1.6h-1Zm4.5 0 .9-3.2h3l-.2.7h-1.5l-.2.6h1.5l-.2.7h-1.5l-.2.6h1.5l-.2.7h-3Zm36.3-3.2v.7h-30.2c-.1 0-.2 0-.2.2v.2s.1.1.2.1l1 .4c.2 0 .4.2.5.3s.2.3.1.4v.5c-.2.3-.5.5-.9.5h-2.4c-.2 0-.4 0-.5-.2s-.1-.3-.1-.4v-.3h1.6v.2h.5c.1 0 .2 0 .3-.2V32s-.1 0-.2-.1l-1-.4q-.45-.15-.6-.3s-.1-.2 0-.4v-.4c.2-.3.5-.5.9-.5h31.1ZM64.9 33v-.7h27.4l.7-2.5h3c.2 0 .4 0 .5.2s.2.3.1.4l-.2.7c0 .2-.2.3-.5.4.2.2.3.3.2.5l-.3 1h-1.5l.3-1v-.2h-.7l-.4 1.3H64.8Zm7-8.2h-3.7l-.9 1.3h-3.4l6.2-7.7h3.6l1.8 7.7h-3.4zm-.2-1.6-.4-2.8-1.9 2.8zm7.1-4.8h3.3l-2.2 7.7h-3.3zm3.6 7.7 2.2-7.7h5.5c1 0 1.8 0 2.3.2.5.1.9.4 1.1.7s.3.8.1 1.2c-.1.4-.4.8-.7 1.1s-.8.6-1.3.8q-.45.15-1.2.3c.4 0 .6.2.8.3.1 0 .2.2.4.4s.3.4.3.5l1 2.2h-3.7l-1.1-2.3c-.1-.3-.3-.5-.4-.6-.2-.1-.5-.2-.8-.2h-.3l-.9 3.1zm4.6-4.6h1.4c.2 0 .5 0 .9-.1.2 0 .4-.1.6-.2s.3-.3.3-.4c0-.2 0-.4-.2-.6-.2-.1-.6-.2-1.2-.2h-1.5l-.4 1.6Zm14.1-3.1h4.9c1 0 1.7 0 2.3.3.5.2 1 .5 1.2.8.3.3.5.8.5 1.2 0 .5 0 1-.2 1.5-.2.8-.5 1.4-.9 1.9s-.9.8-1.4 1.1-1.1.5-1.7.6c-.8.1-1.4.2-2 .2h-4.9l2.2-7.7Zm2.8 1.7-1.2 4.2h.8c.7 0 1.2 0 1.5-.2q.45-.15.9-.6c.2-.3.5-.7.6-1.3.2-.8.2-1.4 0-1.7-.3-.3-.9-.5-1.7-.5h-.8Zm13.2-1.7h3.3l-1.2 4.2c-.2.9-.5 1.5-.9 2-.3.5-.9.8-1.6 1.2-.7.3-1.6.5-2.6.5s-1.9-.1-2.4-.3-.9-.5-1.1-.9-.3-.9-.1-1.5l3.2-.3c0 .3-.1.6 0 .8 0 .2.1.3.3.4h.5c.4 0 .7 0 .9-.3.2-.2.4-.5.5-1l1.3-4.7Zm5.6 0h3.3l-2.2 7.7h-3.3zm5.7 0h6.2c1 0 1.8.2 2.2.6s.6.8.4 1.4c-.1.5-.4.8-.9 1.2-.3.2-.8.4-1.3.5.7.1 1.2.4 1.5.7s.3.7.2 1.2c-.1.4-.3.8-.7 1.1-.3.3-.8.6-1.3.8-.3.1-.8.2-1.3.3-.8 0-1.3.1-1.5.1h-5.7l2.2-7.7Zm1.6 6h1.7c.6 0 1 0 1.3-.2.3-.1.4-.3.5-.6 0-.2 0-.4-.2-.5s-.6-.2-1.2-.2h-1.7l-.4 1.6Zm.9-3h1.4c.5 0 .9 0 1.1-.2.2-.1.4-.3.5-.5 0-.2 0-.4-.2-.5s-.5-.2-1-.2h-1.5l-.4 1.4Zm7.6.9c.4-1.3 1.1-2.2 2.3-2.9s2.6-1 4.3-1 3 .3 3.8 1 1 1.6.6 2.9c-.3.9-.7 1.6-1.3 2.2s-1.3 1-2.2 1.3-1.9.5-3.1.5-2.2-.1-2.9-.4-1.2-.7-1.5-1.3-.4-1.3 0-2.2Zm3.3 0c-.2.8-.2 1.3.1 1.7.3.3.8.5 1.5.5s1.3-.2 1.8-.5.8-.9 1.1-1.8c.2-.7.2-1.2-.2-1.6-.3-.3-.8-.5-1.5-.5s-1.2.2-1.7.5-.9.9-1.1 1.7m17.5-3.9h3.3l-1.3 4.6c-.1.5-.3.9-.7 1.3-.3.4-.7.8-1.2 1.1q-.75.45-1.5.6-1.05.3-2.4.3h-1.7c-.6 0-1.1-.2-1.5-.3s-.7-.4-.9-.7c-.3-.3-.4-.6-.5-.9v-1.3l1.3-4.6h3.3l-1.3 4.7c-.1.4 0 .7.2 1q.45.3 1.2.3c.75 0 1-.1 1.4-.3s.6-.6.8-1l1.3-4.7Zm4.8 0h10l-.5 1.9h-3.4l-1.6 5.8h-3.3l1.6-5.8h-3.4l.5-1.9Zm11.6 0h3.3l-2.2 7.7h-3.3z"/></svg>