<?xml version="1.0" encoding="UTF-8"?>
<svg id="Layer_1" xmlns="http://www.w3.org/2000/svg" version="1.1" viewBox="0 0 179 56">
  <!-- Generator: Adobe Illustrator 29.3.0, SVG Export Plug-In . SVG Version: 2.1.0 Build 146)  -->
  <defs>
    <style>
      .st0 {
        fill: #fb0f0c;
      }
    </style>
  </defs>
  <path class="st0" d="M12.1,7c1.2,1.1,2.9,1.9,4.6,2,2.1.2,3.8-1,5.8-.8,2.3.1,3.6,1.8,5.3,2.9,1.8,1.2,4.6,2.5,6.8,2.1,1.3-.2,2.7.1,3.8.7,1.1.5,2,1.3,2.7,2.2.8,1,1.2,2.1,2.3,2.9.8.6,1.5.8,2.3,1.2,1.1.4,1.9,1.1,2.8,1.7.9.6,1.8.9,2.8,1.2.6.2,1,.8.9,1.5,0,.6-.6,1-.7,1.5,0,.3-.1.6-.2.9-.3.7-.9,1.7-1.8,1.7-1.4,0-2.8.2-4.1.5-2.2.5-4.4,1.2-6.2,2.6-1,.8-1.7,1.8-2.4,2.9-2.1,3.3-4.8,6.3-7.8,8.7-2,1.6-4.3,2.9-6.8,3.7-.5.2-2.4.8-2.9.5-.5-.3-1-.7-1.4-1.1-2.9-2.3-5.6-5.2-7.2-8.5,2.9-.9,5.7-2,8.4-3.1,2-.9,4.1-1.8,6-2.9.8-.5,2.8-1.5,3-2.6,0-.7-2.6-.8-3.2-1-2.6-.8-4.8-2.6-6.4-4.7-.7-1-1.1-1.8-2.4-2.2-1.8-.5-3.5.2-5.2.5-2.3.4-4.7.2-6.9-.6-.6-.2-4.9-2-3.7-3.2.5-.6,1.9.7,2.3.8.6.2,1.3.3,2,.4,1.2.2,2.5.3,3.7.2,1.2-.1,3.1-.4,4-1.3,1-1,2.4-1.8,3.7-2.1,2.8-.8,5.3.4,7.2,2.5.8.8,2.8,2.8,4,1.6,1.3-1.4,3.6,0,4.8.8.5.4.8.3,1.3-.2.6-.5-.6-.8-.9-.9-.9-.2-1.7-.5-2.5-.9-1.6-.7-3-1.7-4.2-2.9-.8-.8-1.1-1.9-2-2.7-1.5-1.2-3.1-1-4.8-1.2-1.1-.1-2.2-.4-3.3-.8-1.6-.6-2.9-1.5-4-2.9-.6-.9-1.1-2.2.5-1.6M41.6,20.6c-.8,0-1.4.3-1.4.8s.6.8,1.4.8,1.4-.3,1.4-.8-.6-.8-1.4-.8Z"/>
  <g>
    <path class="st0" d="M12.1,36.9h0c-1.8-3.4-2.7-7.3-2.7-11.4s0-1.8.1-2.7c-.5,0-1.6,0-1.6,0,0,.9-.1,1.9-.1,2.8,0,4.2,1,8.3,2.7,11.8l1.6-.5Z"/>
    <path class="st0" d="M10.3,18.5h0c.7-2.6,1.9-5,3.4-7.1-.2,0-1.3-.9-1.3-.9-1.7,2.5-3,5.3-3.8,8.4,1-.1,1.7-.4,1.7-.4Z"/>
    <path class="st0" d="M33-.4c-7.3,0-13.8,3.2-18.4,8.2.8.4,1.7.5,1.7.5h0C20.4,4,26.2,1.3,32.5,1.3c12.8,0,23.2,10.8,23.2,24.2s-10.4,24.2-23.2,24.2-6.5-.7-9.4-2.1h0s-2.1.6-2.7.7c3.7,2.2,8,3.5,12.7,3.5,14,0,25.3-11.7,25.3-26.1S47-.4,33-.4Z"/>
  </g>
  <path d="M94.9,30.9v-.2c0,0,0-.1,0-.2,0,0,0,0-.2,0h-.5l-.2.6h.6c.1,0,.2,0,.3-.2h0ZM96.7,33l.9-3.2h3l-.2.7h-1.5l-.2.6h1.5l-.2.7h-1.5l-.2.6h1.5l-.2.7h-3ZM100.6,33l.9-3.2h3c.2,0,.4,0,.5.2.1.2.2.3.1.5l-.6,2c-.1.3-.4.5-.8.5h-3.1ZM103.1,32.2l.4-1.4c0,0,0-.1,0-.2,0,0,0,0-.2,0h-.5l-.5,1.9h.6c.1,0,.2,0,.3-.2h0ZM109.8,29.8c.2,0,.4,0,.5.2.1.2.1.3.1.4v.3h-1.5,0c0,0,0-.1,0-.2,0,0,0,0-.2,0h-.3c-.1,0-.2,0-.2.2,0,0,0,.1,0,.2,0,0,.1.1.2.1l1,.4c.2,0,.4.2.5.3.1.1.2.3.1.4v.5c-.2.3-.5.5-.9.5h-2.4c-.2,0-.4,0-.5-.2-.1-.2-.1-.3-.1-.4v-.3h1.6,0c0,.1,0,.2,0,.2,0,0,0,0,.2,0h.3c.1,0,.2,0,.3-.2,0,0,0-.1,0-.2,0,0-.1,0-.2-.1l-1-.4c-.3-.1-.5-.2-.6-.3,0,0-.1-.2,0-.4v-.4c.2-.3.5-.5.9-.5h2.4,0ZM110.5,33l.9-3.2h3l-.2.7h-1.5l-.2.6h1.5l-.2.7h-1.5l-.2.6h1.5l-.2.7h-3s0,0,0,0ZM114.2,33l2-3.2h2.2l.2,3.2h-1.4v-1.3h-1l-.8,1.3h-1.2ZM117,30.4l-.4.7h.4v-.7ZM119.5,33l2-3.2h2.2l.2,3.2h-1.4v-1.3h-1l-.8,1.3h-1.2ZM122.3,30.4l-.4.7h.4v-.7ZM124.5,33l.9-3.2h1.5l-.9,3.2h-1.5ZM127,33l.9-3.2h3c.2,0,.4,0,.5.2.1.2.2.3.1.4l-.2.7c0,.2-.2.3-.5.4.2.2.3.3.2.5l-.3,1h-1.5l.3-1s0,0,0-.2c0,0,0,0-.2,0h-.5l-.4,1.3h-1.5ZM129.8,30.9v-.2c0,0,0-.1,0-.2,0,0,0,0-.2,0h-.5l-.2.6h.6c.1,0,.2,0,.3-.2h0ZM131.6,33l.9-3.2h1.5l-.7,2.5h1.5l-.2.7h-3s0,0,0,0ZM135.5,33l.9-3.2h1.5l-.9,3.2h-1.5ZM138,33l.9-3.2h1.1l1,1.6.4-1.6h1l-.9,3.2h-1.2l-1-1.6-.4,1.6h-1ZM142.5,33l.9-3.2h3l-.2.7h-1.5l-.2.6h1.5l-.2.7h-1.5l-.2.6h1.5l-.2.7h-3s0,0,0,0ZM178.8,29.8v.7h-30.2c-.1,0-.2,0-.2.2,0,0,0,.1,0,.2,0,0,.1.1.2.1l1,.4c.2,0,.4.2.5.3.1.1.2.3.1.4v.5c-.2.3-.5.5-.9.5h-2.4c-.2,0-.4,0-.5-.2-.1-.2-.1-.3-.1-.4v-.3h1.6,0c0,.1,0,.2,0,.2,0,0,0,0,.2,0h.3c.1,0,.2,0,.3-.2,0,0,0-.1,0-.2,0,0-.1,0-.2-.1l-1-.4c-.3-.1-.5-.2-.6-.3,0,0-.1-.2,0-.4v-.4c.2-.3.5-.5.9-.5h31.1ZM64.9,33v-.7h27.4l.7-2.5h3c.2,0,.4,0,.5.2.1.2.2.3.1.4l-.2.7c0,.2-.2.3-.5.4.2.2.3.3.2.5l-.3,1h-1.5l.3-1s0,0,0-.2c0,0,0,0-.2,0h-.5l-.4,1.3h-28.7s0,0,0,0ZM71.9,24.8h-3.7l-.9,1.3h-3.4l6.2-7.7h3.6l1.8,7.7h-3.4l-.2-1.3ZM71.7,23.2l-.4-2.8-1.9,2.8h2.3ZM78.8,18.4h3.3l-2.2,7.7h-3.3l2.2-7.7ZM82.4,26.1l2.2-7.7h5.5c1,0,1.8,0,2.3.2.5.1.9.4,1.1.7.2.3.3.8.1,1.2-.1.4-.4.8-.7,1.1-.3.3-.8.6-1.3.8-.3.1-.7.2-1.2.3.4,0,.6.2.8.3.1,0,.2.2.4.4.2.2.3.4.3.5l1,2.2h-3.7l-1.1-2.3c-.1-.3-.3-.5-.4-.6-.2-.1-.5-.2-.8-.2h-.3l-.9,3.1h-3.3ZM87,21.5h1.4c.2,0,.5,0,.9-.1.2,0,.4-.1.6-.2.2-.1.3-.3.3-.4,0-.2,0-.4-.2-.6-.2-.1-.6-.2-1.2-.2h-1.5l-.4,1.6h0ZM101.1,18.4h4.9c1,0,1.7,0,2.3.3.5.2,1,.5,1.2.8.3.3.5.8.5,1.2,0,.5,0,1-.2,1.5-.2.8-.5,1.4-.9,1.9-.4.5-.9.8-1.4,1.1-.5.3-1.1.5-1.7.6-.8.1-1.4.2-2,.2h-4.9l2.2-7.7ZM103.9,20.1l-1.2,4.2h.8c.7,0,1.2,0,1.5-.2.3-.1.6-.3.9-.6.2-.3.5-.7.6-1.3.2-.8.2-1.4,0-1.7-.3-.3-.9-.5-1.7-.5h-.8ZM117.1,18.4h3.3l-1.2,4.2c-.2.9-.5,1.5-.9,2-.3.5-.9.8-1.6,1.2-.7.3-1.6.5-2.6.5s-1.9-.1-2.4-.3c-.5-.2-.9-.5-1.1-.9-.2-.4-.3-.9-.1-1.5l3.2-.3c0,.3-.1.6,0,.8,0,.2.1.3.3.4.1,0,.3,0,.5,0,.4,0,.7,0,.9-.3.2-.2.4-.5.5-1l1.3-4.7ZM122.7,18.4h3.3l-2.2,7.7h-3.3l2.2-7.7ZM128.4,18.4h6.2c1,0,1.8.2,2.2.6.4.4.6.8.4,1.4-.1.5-.4.8-.9,1.2-.3.2-.8.4-1.3.5.7.1,1.2.4,1.5.7.3.3.3.7.2,1.2-.1.4-.3.8-.7,1.1-.3.3-.8.6-1.3.8-.3.1-.8.2-1.3.3-.8,0-1.3.1-1.5.1h-5.7l2.2-7.7ZM130,24.4h1.7c.6,0,1,0,1.3-.2.3-.1.4-.3.5-.6,0-.2,0-.4-.2-.5-.2-.1-.6-.2-1.2-.2h-1.7l-.4,1.6ZM130.9,21.4h1.4c.5,0,.9,0,1.1-.2.2-.1.4-.3.5-.5,0-.2,0-.4-.2-.5-.2-.1-.5-.2-1-.2h-1.5l-.4,1.4ZM138.5,22.3c.4-1.3,1.1-2.2,2.3-2.9,1.2-.7,2.6-1,4.3-1s3,.3,3.8,1c.8.7,1,1.6.6,2.9-.3.9-.7,1.6-1.3,2.2-.6.6-1.3,1-2.2,1.3-.9.3-1.9.5-3.1.5s-2.2-.1-2.9-.4c-.7-.3-1.2-.7-1.5-1.3-.3-.6-.4-1.3,0-2.2h0ZM141.8,22.3c-.2.8-.2,1.3.1,1.7.3.3.8.5,1.5.5s1.3-.2,1.8-.5c.5-.3.8-.9,1.1-1.8.2-.7.2-1.2-.2-1.6-.3-.3-.8-.5-1.5-.5s-1.2.2-1.7.5c-.5.3-.9.9-1.1,1.7h0ZM159.3,18.4h3.3l-1.3,4.6c-.1.5-.3.9-.7,1.3-.3.4-.7.8-1.2,1.1-.5.3-1,.5-1.5.6-.7.2-1.5.3-2.4.3-.6,0-1.1,0-1.7,0-.6,0-1.1-.2-1.5-.3-.4-.1-.7-.4-.9-.7-.3-.3-.4-.6-.5-.9,0-.5,0-.9,0-1.3l1.3-4.6h3.3l-1.3,4.7c-.1.4,0,.7.2,1,.3.2.7.3,1.2.3s1-.1,1.4-.3c.4-.2.6-.6.8-1l1.3-4.7h0ZM164.1,18.4h10l-.5,1.9h-3.4l-1.6,5.8h-3.3l1.6-5.8h-3.4l.5-1.9ZM175.7,18.4h3.3l-2.2,7.7h-3.3l2.2-7.7Z"/>
</svg>