<svg xmlns="http://www.w3.org/2000/svg" width="185.853" height="59pt" viewBox="0 0 139.39 59"><defs><clipPath id="a"><path d="M80 0h59.39v59H80Zm0 0"/></clipPath></defs><g clip-path="url(#a)"><path d="M80.395 29.5c0-16.293 13.207-29.5 29.5-29.5 16.289 0 29.496 13.207 29.496 29.5S126.184 59 109.895 59c-16.293 0-29.5-13.207-29.5-29.5" style="stroke:none;fill-rule:nonzero;fill:#f47216;fill-opacity:1"/><path d="M80.395 29.5c0-16.293 13.207-29.5 29.5-29.5 16.289 0 29.496 13.207 29.496 29.5S126.184 59 109.895 59c-16.293 0-29.5-13.207-29.5-29.5M109.848.578C92.75.578 82.18 15.641 82.18 29.477c0 12.023 8.472 27.812 27.742 27.593 12.812-.144 25.637-10.574 25.637-27.593 0-14.485-10.07-23.899-20.352-23.899-10.289 0-16.227 9.414-16.227 10.86 0 0 .157.054.653-.215 1.957-2.899 6.086-9.543 15.281-9.493 5.797.036 18.688 3.915 18.688 22.747 0 15.57-12.895 25.785-26.438 25.71-16.656-.09-23.684-17.019-23.684-25.71C83.48 25.71 85 2.46 109.848.578m11.222 2.828c-1.886-.949-4.199-2.23-9.484-2.25-13.402-.043-26.621 10.36-26.73 28.32-.06 10.141 8.914 23.415 21.511 23.54 7.242.07 23.547-5.215 23.469-24.118-.05-12.675-9.195-17.964-14.922-17.964-4.203 0-7.473 2.554-9.488 6.086.508 1.085 2.969-.293 5.648-3.043.614.101.727.652.438 1.16-.29.504-1.086 7.46-5.36 8.328.004.015.145.219.145.219s3.766-.801 4.488-5.145c2.266.094 12.504 2.59 17.242 8.621 2.168 13.688-8.332 22.09-16.297 24.406-.87-1.523-.87-2.82-1.02-3.62-.144-.798-1.593-9.7-7.312-11.805-1.16.289-2.68 4.129-4.054 4.343 0 0-.438-.433 2.172-2.968.367-.356.289-.871.289-.871h-.653s.145-.793.438-1.012c.289-.223.937-1.16.289-1.953-.145-.18.504-1.02.36-2.54-.044-.503.202-1.378.288-1.882.22-1.23-.793-1.375-1.375-.727-.578.653-1.011 2.61-1.156 2.973-.144.363-1.016 2.101-1.09 2.535-.07.434-.937 4.926-1.082 5.29-.148.362-.797.362-.797.362s-.511-.726-.511-1.16c0-.363.703-1.168.87-1.668.29-.867 0-1.16-.359-.648-.363.504-.582 2.023-1.449 2.387-.36.152-1.437-.668-1.594-.29-.09.204-.656 1.45-.148 1.231.242-.102-.07-.434.8-.793.266-.117 1.083 1.879.723 2.387-.363.508-.796.144-.796.144s.144 1.45 0 1.668c-.145.215-.797.578-1.235.36-.433-.215-1.445-2.028-1.52-3.473-.023-.508 2.391-9.777 2.102-11.52-.062-.355.363 1.524.438.364.035-.653-.582-1.883-1.09-2.754-.262-.45-.653-.723-.653-.723v-.726s-1.378-.528-.433-7.024c.078-.512.73-.062.871-.504 3.84-12.246 13.543-14.777 20.207-14.777 1.156 0 4.055-.07 7.82 1.234M96.734 25.563c.364 1.453.149 3.554.434 3.62.293.079.293-1.011.582-.652.29.367.54.91.727.727.43-.434-.364-3.477-.22-3.766.141-.289.075-1.449.075-1.449l-.871-.36c-.293 0-.867 1.32-.727 1.88m3.332.218s.075.578 1.012.578c.445 0 1.524-.433 2.176-.941-.219-.363-1.95-1.105-2.317-1.086-1.304.074-2.05 1.738-1.519 1.738.363 0 .648-.289.648-.289" style="stroke:none;fill-rule:nonzero;fill:#100f0d;fill-opacity:1"/></g><path d="M47.422 34.621h5.36s-.321 6.168-4.38 6.168l-2.554.035s-1.024-.195-1.059-.707l-1.371 4.86h5.113s2.621-.258 3.324-2.399v2.399l3.739-.032 4-14.382H48.508zm3.414-16.289 1.375-4.762h6.965c4.824 0 3.644 3.867 3.644 3.867l-2.363 8.504h-5.34s1.66-6.296 1.95-7.48c0 0 .433-1.344-1.422-1.344h-2.028s-2.433.176-2.781 1.215M7.53 44.988l1.864-3.25 4.507-7.816 5.344-9.285 4.48-7.774 1.891-3.293h7.84l-.926 3.293-4.738 17.059-2.195 7.816-.907 3.25h-5.574l3.04-10.312h-4.4L11.72 44.988zm15.614-14.422 2.933-10.582-6.246 10.625 3.313-.039m1.55 14.418 1.864-3.25 4.488-7.816 5.387-9.285 4.46-7.774 1.887-3.293h7.86l-.903 3.293-2.195 7.774-2.602 9.285-2.16 7.816-.902 3.25h-5.594l3.02-10.312h-4.383l-6.04 10.312zm15.633-14.422 2.914-10.582L37.02 30.61zM1.09 13.57 0 17.43h7.922L0 44.988h6.121L13.77 17.43l6.117-.043L21 13.57z" style="stroke:none;fill-rule:nonzero;fill:#100f0d;fill-opacity:1"/></svg>