<?xml version="1.0" encoding="UTF-8"?>
<svg xmlns="http://www.w3.org/2000/svg" xmlns:xlink="http://www.w3.org/1999/xlink" width="139.39pt" height="59pt" viewBox="0 0 139.39 59" version="1.1">
<defs>
<clipPath id="clip1">
  <path d="M 80 0 L 139.390625 0 L 139.390625 59 L 80 59 Z M 80 0 "/>
</clipPath>
</defs>
<g id="surface1">
<g clip-path="url(#clip1)" clip-rule="nonzero">
<path style=" stroke:none;fill-rule:nonzero;fill:rgb(95.669556%,44.573975%,8.485413%);fill-opacity:1;" d="M 80.394531 29.5 C 80.394531 13.207031 93.601562 0 109.894531 0 C 126.183594 0 139.390625 13.207031 139.390625 29.5 C 139.390625 45.792969 126.183594 59 109.894531 59 C 93.601562 59 80.394531 45.792969 80.394531 29.5 "/>
<path style=" stroke:none;fill-rule:nonzero;fill:rgb(6.266785%,5.734253%,5.047607%);fill-opacity:1;" d="M 80.394531 29.5 C 80.394531 13.207031 93.601562 0 109.894531 0 C 126.183594 0 139.390625 13.207031 139.390625 29.5 C 139.390625 45.792969 126.183594 59 109.894531 59 C 93.601562 59 80.394531 45.792969 80.394531 29.5 M 109.847656 0.578125 C 92.75 0.578125 82.179688 15.640625 82.179688 29.476562 C 82.179688 41.5 90.652344 57.289062 109.921875 57.070312 C 122.734375 56.925781 135.558594 46.496094 135.558594 29.476562 C 135.558594 14.992188 125.488281 5.578125 115.207031 5.578125 C 104.917969 5.578125 98.980469 14.992188 98.980469 16.4375 C 98.980469 16.4375 99.136719 16.492188 99.632812 16.222656 C 101.589844 13.324219 105.71875 6.679688 114.914062 6.730469 C 120.710938 6.765625 133.601562 10.644531 133.601562 29.476562 C 133.601562 45.046875 120.707031 55.261719 107.164062 55.1875 C 90.507812 55.097656 83.480469 38.167969 83.480469 29.476562 C 83.480469 25.710938 85 2.460938 109.847656 0.578125 Z M 121.070312 3.40625 C 119.183594 2.457031 116.871094 1.175781 111.585938 1.15625 C 98.183594 1.113281 84.964844 11.515625 84.855469 29.476562 C 84.796875 39.617188 93.769531 52.890625 106.367188 53.015625 C 113.609375 53.085938 129.914062 47.800781 129.835938 28.898438 C 129.785156 16.222656 120.640625 10.933594 114.914062 10.933594 C 110.710938 10.933594 107.441406 13.488281 105.425781 17.019531 C 105.933594 18.105469 108.394531 16.726562 111.074219 13.976562 C 111.6875 14.078125 111.800781 14.628906 111.511719 15.136719 C 111.222656 15.640625 110.425781 22.597656 106.152344 23.464844 C 106.15625 23.480469 106.296875 23.683594 106.296875 23.683594 C 106.296875 23.683594 110.0625 22.882812 110.785156 18.539062 C 113.050781 18.632812 123.289062 21.128906 128.027344 27.160156 C 130.195312 40.847656 119.695312 49.25 111.730469 51.566406 C 110.859375 50.042969 110.859375 48.746094 110.710938 47.945312 C 110.566406 47.148438 109.117188 38.246094 103.398438 36.140625 C 102.238281 36.429688 100.71875 40.269531 99.34375 40.484375 C 99.34375 40.484375 98.90625 40.050781 101.515625 37.515625 C 101.882812 37.160156 101.804688 36.644531 101.804688 36.644531 L 101.152344 36.644531 C 101.152344 36.644531 101.296875 35.851562 101.589844 35.632812 C 101.878906 35.410156 102.527344 34.472656 101.878906 33.679688 C 101.734375 33.5 102.382812 32.660156 102.238281 31.140625 C 102.195312 30.636719 102.441406 29.761719 102.527344 29.257812 C 102.746094 28.027344 101.734375 27.882812 101.152344 28.53125 C 100.574219 29.183594 100.140625 31.140625 99.996094 31.503906 C 99.851562 31.867188 98.980469 33.605469 98.90625 34.039062 C 98.835938 34.472656 97.96875 38.964844 97.824219 39.328125 C 97.675781 39.691406 97.027344 39.691406 97.027344 39.691406 C 97.027344 39.691406 96.515625 38.964844 96.515625 38.53125 C 96.515625 38.167969 97.21875 37.363281 97.386719 36.863281 C 97.675781 35.996094 97.386719 35.703125 97.027344 36.214844 C 96.664062 36.71875 96.445312 38.238281 95.578125 38.601562 C 95.21875 38.753906 94.140625 37.933594 93.984375 38.3125 C 93.894531 38.515625 93.328125 39.761719 93.835938 39.542969 C 94.078125 39.441406 93.765625 39.109375 94.636719 38.75 C 94.902344 38.632812 95.71875 40.628906 95.359375 41.136719 C 94.996094 41.644531 94.5625 41.28125 94.5625 41.28125 C 94.5625 41.28125 94.707031 42.730469 94.5625 42.949219 C 94.417969 43.164062 93.765625 43.527344 93.328125 43.308594 C 92.894531 43.09375 91.882812 41.28125 91.808594 39.835938 C 91.785156 39.328125 94.199219 30.058594 93.910156 28.316406 C 93.847656 27.960938 94.273438 29.839844 94.347656 28.679688 C 94.382812 28.027344 93.765625 26.796875 93.257812 25.925781 C 92.996094 25.476562 92.605469 25.203125 92.605469 25.203125 L 92.605469 24.476562 C 92.605469 24.476562 91.226562 23.949219 92.171875 17.453125 C 92.25 16.941406 92.902344 17.390625 93.042969 16.949219 C 96.882812 4.703125 106.585938 2.171875 113.25 2.171875 C 114.40625 2.171875 117.304688 2.101562 121.070312 3.40625 Z M 96.734375 25.5625 C 97.097656 27.015625 96.882812 29.117188 97.167969 29.183594 C 97.460938 29.261719 97.460938 28.171875 97.75 28.53125 C 98.039062 28.898438 98.289062 29.441406 98.476562 29.257812 C 98.90625 28.824219 98.113281 25.78125 98.257812 25.492188 C 98.398438 25.203125 98.332031 24.042969 98.332031 24.042969 L 97.460938 23.683594 C 97.167969 23.683594 96.59375 25.003906 96.734375 25.5625 Z M 100.066406 25.78125 C 100.066406 25.78125 100.140625 26.359375 101.078125 26.359375 C 101.523438 26.359375 102.601562 25.925781 103.253906 25.417969 C 103.035156 25.054688 101.304688 24.3125 100.9375 24.332031 C 99.632812 24.40625 98.886719 26.070312 99.417969 26.070312 C 99.78125 26.070312 100.066406 25.78125 100.066406 25.78125 "/>
</g>
<path style=" stroke:none;fill-rule:nonzero;fill:rgb(6.266785%,5.734253%,5.047607%);fill-opacity:1;" d="M 47.421875 34.621094 L 52.78125 34.621094 C 52.78125 34.621094 52.460938 40.789062 48.402344 40.789062 L 45.847656 40.824219 C 45.847656 40.824219 44.824219 40.628906 44.789062 40.117188 L 43.417969 44.976562 L 48.53125 44.976562 C 48.53125 44.976562 51.152344 44.71875 51.855469 42.578125 L 51.855469 44.976562 L 55.59375 44.945312 L 59.59375 30.5625 L 48.507812 30.5625 L 47.421875 34.621094 M 50.835938 18.332031 L 52.210938 13.570312 C 52.210938 13.570312 54.734375 13.570312 59.175781 13.570312 C 64 13.570312 62.820312 17.4375 62.820312 17.4375 L 60.457031 25.941406 L 55.117188 25.941406 C 55.117188 25.941406 56.777344 19.644531 57.066406 18.460938 C 57.066406 18.460938 57.5 17.117188 55.644531 17.117188 L 53.617188 17.117188 C 53.617188 17.117188 51.183594 17.292969 50.835938 18.332031 M 7.53125 44.988281 L 9.394531 41.738281 L 13.902344 33.921875 L 19.246094 24.636719 L 23.726562 16.863281 L 25.617188 13.570312 L 33.457031 13.570312 L 32.53125 16.863281 L 27.792969 33.921875 L 25.597656 41.738281 L 24.691406 44.988281 L 19.117188 44.988281 L 22.15625 34.675781 L 17.757812 34.675781 L 11.71875 44.988281 L 7.53125 44.988281 M 23.144531 30.566406 L 26.078125 19.984375 L 19.832031 30.609375 L 23.144531 30.570312 M 24.695312 44.988281 L 26.558594 41.738281 L 31.046875 33.921875 L 36.433594 24.636719 L 40.894531 16.863281 L 42.78125 13.570312 L 50.640625 13.570312 L 49.738281 16.863281 L 47.542969 24.636719 L 44.941406 33.921875 L 42.78125 41.738281 L 41.878906 44.988281 L 36.285156 44.988281 L 39.304688 34.675781 L 34.921875 34.675781 L 28.882812 44.988281 L 24.695312 44.988281 M 40.328125 30.566406 L 43.242188 19.984375 L 37.019531 30.609375 L 40.328125 30.566406 M 1.089844 13.570312 L 0 17.429688 L 7.921875 17.429688 L 0 44.988281 L 6.121094 44.988281 L 13.769531 17.429688 L 19.886719 17.386719 L 21 13.570312 L 1.089844 13.570312 "/>
</g>
</svg>
