<svg xmlns="http://www.w3.org/2000/svg" width="176pt" height="63.08" viewBox="0 0 176 47.31"><defs><clipPath id="a"><path d="M0 0h53v47.309H0Zm0 0"/></clipPath></defs><g clip-path="url(#a)"><path d="M51.047 44.063c-.5.874-1.79 1.359-3.633 1.359-3.254 0-7.766-1.469-12.066-3.926-3.438-1.969-6.11-4.184-7.887-6.234q.408-.556.746-1.106h5.914l-3.004-5.144c.133-.258.25-.54.371-.817 2.84.532 6.164 1.801 9.383 3.64 3.55 2.032 6.563 4.493 8.48 6.927 1.739 2.21 2.356 4.144 1.696 5.3m-24.703 1.671c-3.145 0-6.078-.922-8.547-2.507.172-.098.348-.184.52-.282 3.402-1.945 6.195-4.218 8.148-6.453 1.953 2.203 4.723 4.442 8.101 6.371.157.09.32.172.477.258a15.75 15.75 0 0 1-8.7 2.613m-20.88-.16c-1.839 0-3.128-.558-3.628-1.433-.664-1.16-.047-3.168 1.695-5.38 1.914-2.433 4.926-4.894 8.48-6.925 3.216-1.836 6.544-3.113 9.384-3.645.148.352.308.684.472.997l-2.758 4.968h5.594q.34.551.762 1.114c-1.781 2.074-4.461 4.316-7.934 6.3-4.297 2.461-8.808 4.004-12.062 4.004ZM10.47 29.86c0-6.23 3.61-11.632 8.84-14.23.003 0 .007-.012.011-.016-.008.29-.02.575-.02.867 0 3.91.571 7.442 1.524 10.235-2.957.601-6.344 1.914-9.597 3.773-.243.14-.48.285-.72.43a16 16 0 0 1-.038-1.059m11.32 2.782 4.664-8.293 4.832 8.28Zm4.652-31.063c2.63 0 5.563 6.121 5.563 14.902 0 3.985-.61 7.403-1.516 9.97-.312-.04-.61-.055-.906-.071l-3.152-5.406-3.004 5.406c-.336.016-.68.039-1.04.082-.906-2.563-1.507-5.996-1.507-9.98 0-8.782 2.93-14.903 5.562-14.903m7.133 14.149c5.13 2.636 8.645 7.98 8.645 14.132q.001.468-.028.93c-.18-.105-.355-.215-.539-.32-3.25-1.86-6.632-3.168-9.59-3.766.95-2.793 1.52-6.32 1.52-10.223 0-.253-.012-.503-.02-.757q.006.005.012.004M50.59 37.785c-1.656-2.101-4.067-4.207-6.906-6.066.066-.61.113-1.23.113-1.86 0-7.074-4.234-13.18-10.297-15.918-.004 0-.008-.004-.012-.004C32.973 5.95 30.066.005 26.441.005c-3.613 0-6.515 5.906-7.043 13.855-.003 0-.007-.007-.011-.004-6.168 2.692-10.492 8.852-10.492 16.004 0 .676.05 1.34.128 1.996-2.765 1.836-5.109 3.91-6.73 5.97-2.191 2.78-2.84 5.327-1.828 7.097.562.984 1.887 2.23 5 2.23h.004c2.976 0 6.879-1.172 10.754-3.097a17.35 17.35 0 0 0 10.12 3.254c3.84 0 7.384-1.258 10.266-3.364 3.891 1.926 7.813 3.051 10.805 3.051 3.117 0 4.441-1.168 5-2.152 1.012-1.77.367-4.278-1.824-7.059" style="stroke:none;fill-rule:nonzero;fill:#3a7fad;fill-opacity:1"/></g><path d="M59.031 23.273h1.364q.938 1.302 2.472 2.286a12.5 12.5 0 0 0 3.39 1.507q1.854.521 3.86.52 1.447 0 2.567-.305 1.118-.304 1.738-.832.616-.527.617-1.195 0-1.067-1.535-1.91-.679-.4-1.973-.817c-.86-.273-2.176-.683-3.953-1.222q-2.665-.81-3.953-1.254a17.6 17.6 0 0 1-2.293-.961q-2.215-1.22-2.215-2.836 0-.857.68-1.613.685-.756 1.879-1.301 1.19-.546 2.836-.852a19.4 19.4 0 0 1 3.535-.304q1.388 0 2.465.105 1.073.105 2.27.305 1.19.2 1.937.3.75.1 1.172.098 1.172 0 1.601-.808h1.426v5.183h-1.34q-.898-1.218-2.316-2.133a11.8 11.8 0 0 0-3.133-1.414 12.6 12.6 0 0 0-3.527-.496q-1.938-.001-3.102.52-1.16.522-1.16 1.39 0 .797 1.172 1.442.661.338 2.578.906 1.922.568 3.668 1.066 1.748.5 3.472 1.075 1.728.574 2.793 1.16c.98.539 1.672 1.086 2.067 1.644q.597.843.597 1.79-.001 1.254-1.214 2.292-1.215 1.036-3.368 1.621c-1.433.391-3.007.586-4.71.586a22.4 22.4 0 0 1-3.145-.199 78 78 0 0 1-3.164-.527q-1.77-.328-2.367-.328c-.567 0-1.067.097-1.492.289q-.64.285-.832.742H59.03zM113.129 23.836l1.344.527q-4.389 4.453-13.641 4.453c-2.586 0-4.93-.226-7.023-.68-2.098-.452-3.875-1.073-5.34-1.866q-2.197-1.19-3.317-2.668-1.118-1.477-1.117-3.024.001-2.274 2.27-4.203c1.511-1.285 3.586-2.305 6.215-3.059q3.944-1.132 8.609-1.132c1.25 0 2.379.058 3.379.171 1.004.114 2.082.262 3.242.45 1.156.187 1.883.285 2.184.285.41 0 .75-.082 1.011-.242q.394-.241.395-.664h1.387l.722 5.3h-1.426q-.644-.949-1.761-1.722-1.118-.774-2.418-1.301c-.867-.356-1.84-.629-2.918-.836-1.082-.2-2.16-.3-3.242-.3q-3.154-.001-5.668.905-2.52.91-3.903 2.563-1.385 1.653-1.386 3.715.001 1.98 1.46 3.539t4.126 2.433c1.777.582 3.792.872 6.054.872q6.715 0 10.762-3.516M136.707 22.852l-5.777-6.293-5.29 6.293Zm-12.129 1.265-.812.973q-.745.891-.746 1.254 0 1.23 3.582 1.265v.762h-10.403v-.762q1.536-.023 2.73-.609 1.193-.585 2.301-1.91l10.829-12.906h1.234l12.898 14.09q.489.527 1 .804.514.276 1.164.387.651.11 1.758.144v.762h-13.152v-.762q1.769-.01 2.418-.191.651-.183.652-.629-.001-.469-.789-1.3l-1.344-1.372zM175.223 16.254h-1.387q-.252-1.396-1.535-1.977-1.278-.578-4.09-.578h-4.008v11.45q0 .996.352 1.519.352.521 1.215.73.862.211 2.566.211h.855v.762H153.29v-.762h1.086q2.046 0 2.984-.507.938-.511.938-1.954V13.7h-3.324c-1.989 0-3.47.172-4.434.528q-1.448.527-1.875 2.027h-1.387l.192-3.777h27.562zM64.184 38.281h6.312l-1.941-2.39q-.89-1.085-1.325-1.79a7.2 7.2 0 0 1-1 1.649Zm-5.368 3.54 7.149-8.622h2.652l7.617 8.621H73.43l-2.172-2.61h-7.785l-2.043 2.61zM78.621 41.82V33.2h2.465v8.62zM87.93 37.004h5.293c1.129 0 2.007-.055 2.644-.164q.951-.159 1.445-.516.498-.357.497-.773 0-.609-.961-1.008-.954-.392-3.028-.39h-5.89Zm-2.465 4.816V33.2h8.254c1.66 0 2.922.073 3.785.23q1.296.234 2.07.82c.516.395.774.824.774 1.3q.001.915-1.282 1.548-1.282.629-3.96.8.973.219 1.484.43 1.08.459 2.043 1.145l3.238 2.347h-3.098l-2.464-1.793a24 24 0 0 0-1.778-1.187q-.698-.416-1.25-.578a6.5 6.5 0 0 0-1.125-.23 16 16 0 0 0-1.37-.04H87.93v3.828zM104.105 41.82V33.2h2.465v7.605h9.168v1.015zM119.09 41.82V33.2h2.465v8.62zM125.871 41.82V33.2h2.527l9.778 6.769v-6.77h2.36v8.621h-2.528l-9.778-6.777v6.777zM144.727 41.82V33.2h13.457v1.015h-10.996v2.64h10.3v1.012h-10.3v2.938h11.43v1.015zM161.184 39.05l2.32-.093c.113.43.367.785.77 1.063.402.273 1.027.5 1.874.667q1.267.258 2.856.258c.937 0 1.77-.066 2.488-.195.719-.129 1.254-.309 1.606-.531q.527-.34.527-.739.001-.405-.508-.71-.51-.302-1.676-.508-.75-.135-3.312-.422-2.567-.282-3.594-.535c-.89-.22-1.55-.485-1.988-.805s-.652-.676-.652-1.074q0-.65.796-1.219.803-.567 2.336-.863c1.028-.196 2.164-.293 3.418-.293q2.071-.001 3.649.308 1.583.309 2.433.91.85.6.914 1.356l-2.363.086q-.188-.819-1.289-1.238-1.096-.416-3.242-.414c-1.492 0-2.574.125-3.258.379q-1.022.374-1.023.914 0 .461.726.765.71.299 3.715.613c2 .211 3.375.391 4.117.551q1.629.346 2.403.88c.515.355.773.76.773 1.226q0 .686-.852 1.297c-.566.406-1.382.718-2.445.945q-1.594.34-3.586.34-2.524 0-4.234-.344-1.706-.339-2.68-1.023c-.648-.457-.988-.977-1.02-1.551" style="stroke:none;fill-rule:nonzero;fill:#3a7fad;fill-opacity:1"/></svg>