<svg xmlns="http://www.w3.org/2000/svg" width="201.707" height="59pt" viewBox="0 0 151.28 59"><defs><clipPath id="a"><path d="M145 43h6.281v7H145Zm0 0"/></clipPath></defs><path d="M91.043 33.656h-.734c-.16-.343-.297-.625-.434-.91-.031.024-.066.043-.102.066v1.266c.47-.058.973.313 1.27-.422m-1.332 1.707q-.001.165.004.328l.633.133c.183.39.343.727.504 1.063.039-.012.074-.024.113-.035v-1.579c-.461.032-.86.063-1.254.09m1.258-3.547c-.93-.277-1.29-.199-1.188.297.215.043.446.09.63.13l.444.905c.04-.011.075-.023.114-.035zm6.394 6.442c.09-.735.176-1.473.278-2.301l.84.332c-.075.84-.094 1.68-.235 2.5-.117.711-.508.875-1.516.816-.734-.042-1.023-.261-1.066-.988-.05-1.004-.023-2.015-.031-3.023-.004-.383 0-.766 0-1.215h-1.14c-.15 1.851-.118 3.723-1.227 5.512-.317-.438-.582-.797-.922-1.266-.516 1.066-1.309 1.086-2.25 1.008l-.281-1.121c.359-.082.66-.153 1.039-.239l.191-.742h-.723c-.156-.402-.304-.793-.504-1.308-.254 1.261-.476 2.39-.703 3.515q-.119.013-.238.02c-.281-.344-.566-.688-.832-1.012l.488-3.125c-.625-.832-.699-.953 0-1.867v-3.066c.317-.079.59-.145.86-.211.109-.34.207-.645.316-.977h1.387c-.09.352-.164.625-.258.988.422.055.82.106 1.316.168v7.574q.124.013.254.032c.871-1.578.625-3.364.762-5.14h3.707c.176 1.698-.062 3.429.137 5.124zM80.34 33.129c-.41.031-.707.055-1.04.078-.038.516-.07.945-.097 1.383h1.656c-.386-.336-.644-.559-.918-.8.125-.208.235-.384.399-.661m2.308 1.492v-1.39h-1.703l.887.703c-.117.234-.219.437-.34.687zm-.046 1.168h-1.665c.38.324.637.547.86.738l-.29.692c.423-.032.731-.055 1.095-.078zm-3.516-.043c-.055.496-.098.926-.145 1.356h1.813c-.367-.32-.586-.508-.809-.704l.285-.652zm-1.742-2.441-.656-.895 2.14-2.933c.332.043.742.093 1.149.148.043.227.07.402.113.645h4.547v1.082c-1.614 0-3.168-.004-4.723.003-.676 0-.676.008-1.102.704h5.247v2.445c.289.094.523.172.808.27v.835l-.793.211c-.02.407-.039.79-.054 1.215.253.102.48.192.75.297v.805c-.196.05-.407.101-.684.175-.41 2.13-2.137 1.27-3.496 1.52-.121-.34-.227-.629-.336-.934.754-.363 1.621.2 2.45-.597h-5.18l.117-2.473c-.239-.074-.473-.144-.75-.23l-.04-.82c.301-.071.575-.137.922-.223l.188-1.32c-.223.027-.383.042-.617.07M65.742 35.477H61.79v-1.418c.379-.54.8-1.141 1.328-1.891l-1.945-.133v-1.297h2.766c.257-.441.484-.828.757-1.293.473.035.97.078 1.567.125l-.371 1.114h5.238v1.39h-6.117c-.453.66-.88 1.29-1.38 2.024h2.141l.133-1.387h1.43l.144 1.406h3.293v1.371h-3.367c0 .766.004 1.434 0 2.106-.011 1.613-.386 2.027-1.965 2.136-.386.028-.773.004-1.214.004-.079-.257-.16-.496-.22-.738-.05-.215-.073-.437-.116-.7a383 383 0 0 1 1.851-.1zM107.527 36.121v1.906h4.25v1.285h-10.093V38.06h4.246v-1.903h-2.66c-.067-.375-.114-.652-.172-.988-.293.09-.555.176-.871.273-.215-.363-.426-.718-.657-1.101 1.239-.711 2.438-1.395 3.637-2.082.281.246.594.512.996.86-.832.566-1.543 1.05-2.418 1.648h6.172q.042-.072.078-.137c-.875-.469-1.75-.938-2.7-1.445.243-.364.454-.672.728-1.086 1.296.66 2.554 1.293 3.894 1.972l-.66 1.2c-.332-.125-.617-.23-.945-.352-.04.41-.067.758-.106 1.203zM138.32 43.129v6.219h-1.36l-2.51-3.809q-.09.022-.184.04v3.78h-1.215v-6.203h1.297c.836 1.266 1.699 2.578 2.566 3.895.063-.02.125-.035.191-.055V43.13zM79.563 43.137h1.23v6.218h-1.336c-.824-1.246-1.66-2.515-2.496-3.785-.063.008-.121.02-.184.024v3.758h-1.23V43.18c.187-.032.398-.078.61-.09.19-.012.386.012.66.027.843 1.29 1.706 2.606 2.574 3.922.054-.02.113-.035.171-.055zM119.137 45.707c.675 0 1.316.016 1.957-.008.441-.015.73-.27.758-.726.03-.516-.29-.793-.762-.82-.637-.044-1.274-.012-1.953-.012zm4.39 3.672h-1.336c-.449-.61-.91-1.274-1.406-1.91-.527-.68-.637-.703-1.68-.598v2.469h-1.28V43.12c1.288 0 2.55-.039 3.808.016.887.039 1.437.57 1.578 1.332.156.87-.16 1.504-.969 1.926-.168.085-.347.152-.48.21.652.883 1.277 1.727 1.902 2.57-.043.067-.09.138-.137.204M88.324 48.598c-1.074.797-2.246 1.078-3.52.898-1.706-.246-2.777-1.598-2.722-3.375.05-1.742 1.148-2.957 2.852-3.156 1.699-.2 2.828.398 3.285 1.805-.367.085-.73.171-1.078.253-1.086-1.304-2.204-1.164-2.989-.558-.761.586-.91 2.254-.332 3.156.606.938 1.696 1.074 3.094.348.031-.102.094-.25.113-.403.012-.12-.035-.25-.066-.437-.45-.04-.89-.078-1.406-.117-.016-.293-.035-.567-.059-.91h2.828zM73.121 46.324c-.035-.02-.078-.035-.117-.05-.016-.196-.016-.391-.047-.583-.16-1.058-.809-1.636-1.836-1.64-1.031 0-1.695.55-1.828 1.625-.063.504-.05 1.054.09 1.535.387 1.305 2.207 1.71 3.058.672.348-.422.461-1.035.68-1.559m-1.996 3.219c-2.027.004-3.3-1.262-3.297-3.277.004-2.04 1.266-3.325 3.258-3.325 2.012 0 3.293 1.278 3.3 3.29.005 2.035-1.25 3.308-3.261 3.312M62.715 44.11v4.25c.937-.02 1.945.324 2.48-.587.551-.933.547-2.039.008-2.988-.527-.926-1.527-.629-2.488-.676m-1.371 5.261v-6.219c1.207 0 2.367-.004 3.523.004.125 0 .254.059.375.102 1.2.449 1.852 1.844 1.653 3.52-.184 1.55-.961 2.472-2.317 2.577-1.031.083-2.07.016-3.234.016" style="stroke:none;fill-rule:nonzero;fill:#231f20;fill-opacity:1"/><g clip-path="url(#a)"><path d="M145.86 47.445q.571-.091 1.05-.172c1.125 1.52 2.328 1.645 2.992.34-.047-.527-.46-.652-.875-.77-.558-.163-1.136-.28-1.683-.48-.88-.32-1.328-.976-1.281-1.754.046-.761.582-1.375 1.523-1.53.621-.106 1.293-.087 1.918.01.894.138 1.418.72 1.543 1.724h-1.25l-.418-.551c-.649-.442-1.5-.29-2.129.46.32.2.602.442.922.56.55.202 1.133.3 1.683.488.97.328 1.465 1.007 1.418 1.867-.043.86-.597 1.593-1.562 1.746a6.9 6.9 0 0 1-2.395-.055c-.902-.187-1.359-.898-1.457-1.883" style="stroke:none;fill-rule:nonzero;fill:#231f20;fill-opacity:1"/></g><path d="M95.047 43.145v6.214c-.395.02-.762.036-1.262.059v-2.707h-2.758v2.629H89.75v-6.203h1.262v2.383h2.707v-2.375zM139.902 43.125h4.871v.969h-3.543v1.445h3.254c.02.379.036.652.055 1.05h-3.297v1.743h3.606l.105 1.004h-5.05zM111.027 44.785c-.074.008-.148.02-.226.028-.2.671-.66 1.273-.625 2.015h1.66c-.3-.754-.555-1.398-.809-2.043m.637-1.66c.883 2.078 1.738 4.098 2.64 6.227h-1.39c-.191-.41-.394-.84-.617-1.313h-2.695c-.18.395-.375.828-.598 1.316h-1.375l2.55-6.23zM98.27 46.848h1.824c-.309-.766-.574-1.434-.84-2.098-.063.004-.121.004-.184.008-.254.664-.511 1.332-.8 2.09m-.41 1.175-.626 1.336h-1.359c.875-2.125 1.71-4.16 2.559-6.226h1.48c.856 2.012 1.727 4.058 2.64 6.21h-1.374c-.203-.41-.434-.863-.664-1.32zM103.285 31.875c-.043.285-.086.566-.137.914h-1.34v-2.246h4.028v-.922c.441-.062.879-.125 1.355-.191.168.351.317.664.52 1.082h3.96v2.273h-1.308c-.043-.3-.086-.578-.133-.91zM125.934 48.406h3.347v.953h-4.578v-6.168h1.23zM96.074 30.867h2.008v1.156h-5.48v-1.136c.597-.035 1.164-.063 1.812-.098-.152-.352-.273-.64-.434-1.012.43-.129.82-.246 1.31-.39.245.465.48.902.784 1.48M130.395 43.145h1.183v6.19h-1.183zM104.602 49.375h-1.196v-6.23h1.196zM116.316 49.375h-1.18v-6.242h1.18zM76.043 39.816c-.512-.183-.871-.308-1.3-.464l.972-3.88c.437.16.816.298 1.297.465-.325 1.293-.633 2.536-.969 3.88M61.121 38.3c.719-.804 1.45-1.624 2.223-2.484.386.297.738.57 1.176.91l-2.598 2.54c-.313-.375-.598-.72-.8-.965M68.016 36.988c.316-.343.597-.644.93-1.008.855.68 1.66 1.313 2.538 2.012-.347.395-.66.746-1.023 1.164-.836-.742-1.625-1.437-2.445-2.168M76.969 33.598c-.324.386-.59.707-.922 1.101-.527-.472-1.016-.918-1.559-1.406.293-.348.54-.637.844-.996.563.445 1.082.86 1.637 1.3M74.719 30.387c.36-.34.633-.602.945-.903.55.442 1.05.84 1.633 1.309-.305.355-.567.664-.899 1.05a326 326 0 0 1-1.68-1.456" style="stroke:none;fill-rule:nonzero;fill:#231f20;fill-opacity:1"/><path d="M19.3 34.86c-.034-.044-.077-.079-.097-.13a9 9 0 0 0-.8-1.328c-.079-.105-.133-.226-.2-.34-.02-.054.04-.14-.062-.16v.004c.035-.695-.043-1.394.054-2.093.04-.29.121-.567.157-.856.03-.238.12-.469.183-.7.16-.6.387-1.167.652-1.726.125-.261.286-.508.438-.758.176-.277.336-.57.547-.82.312-.371.656-.719 1-1.062.168-.168.367-.301.555-.446.28-.222.593-.39.906-.57.629-.36 1.242-.746 1.86-1.125.632-.39 1.265-.777 1.89-1.176a37 37 0 0 0 1.953-1.351c.66-.477 1.297-.977 1.926-1.489.164-.132.316-.273.476-.406.348-.297.696-.586 1.043-.883.223-.187.446-.386.664-.578.453-.289.867-.625 1.258-.988.203-.191.414-.371.61-.566q.884-.901 1.593-1.95c.512-.754.969-1.543 1.348-2.375.25-.539.469-1.097.68-1.652.261-.68.464-1.379.644-2.082.152-.59.3-1.176.39-1.774.087-.582.188-1.16.286-1.738.004-.023.023-.047.05-.113.028.07.048.105.055.144.028.13.051.258.082.387.145.625.325 1.246.426 1.88.09.523.168 1.05.207 1.581.051.715.11 1.43.09 2.145-.016.496-.078.988-.098 1.484-.011.36-.058.719-.12 1.074-.079.438-.145.88-.235 1.317-.148.71-.34 1.41-.566 2.105a28 28 0 0 1-.946 2.496c-.344.785-.722 1.551-1.117 2.309-.21.414-.457.812-.684 1.219-.043.07-.062.152-.093.234l.008-.008a1 1 0 0 0-.063.059c-.078.058-.148.12-.227.175-.355.25-.707.504-1.066.75-.344.239-.687.477-1.039.7-.55.347-1.11.687-1.668 1.027-.387.234-.777.469-1.172.688-.465.253-.933.488-1.402.734-.348.187-.692.387-1.04.57-.437.227-.878.442-1.316.664-.449.23-.89.469-1.34.692-.664.34-1.34.664-2.003 1.011q-.481.247-.926.547c-.352.242-.707.485-1.02.77-.656.586-1.238 1.238-1.687 2.008-.399.675-.758 1.363-.938 2.136-.027.114-.07.223-.105.332" style="stroke:none;fill-rule:nonzero;fill:#f47216;fill-opacity:1"/><path d="M38.574 28.012q.022-.007.043-.008c.063-.012.145.027.172-.067.219-.105.434-.218.652-.316.59-.262 1.149-.57 1.711-.883.575-.32 1.157-.629 1.696-1.015.105-.075.234-.121.34-.196.484-.347.972-.695 1.449-1.054.258-.196.511-.403.75-.621.504-.473 1.008-.946 1.488-1.438.578-.594 1.426-1.664 1.898-2.488q.212-.374.422-.742c.02-.032.055-.055.082-.079.032.09.075.075.149-.003-.063-.02-.098-.032-.137-.043q.119-.27.238-.54.146-.352.297-.699c.043-.09.102-.172.153-.261q.065.029.128.062l.024 1.797c-.031.125-.059.23-.086.332-.04.016-.082.031-.188.07.11.028.149.035.188.047.012.39-.066.774-.113 1.16-.082.649-.258 1.278-.422 1.907-.012.058-.063.109-.098.16-.039.015-.082.031-.191.066.11.031.144.043.183.05-.062.22-.109.442-.187.653-.328.84-.688 1.664-1.133 2.453a18 18 0 0 1-1.496 2.258c-.387.496-.82.957-1.234 1.43-.153.172-.301.348-.465.508a39 39 0 0 1-1.942 1.738c-1.023.848-2.11 1.594-3.215 2.324a5 5 0 0 1-.304.184c.023.027.039.043.054.062v.04c-.039 0-.074.003-.113.003-.09.02-.183.051-.273.051-.418 0-.809.172-1.227.188-.332.015-.668.09-.992.171-.172.04-.348.008-.504.059-.437.129-.887.14-1.332.215-.367.062-.75.066-1.121.125-.395.062-.785.098-1.184.113-.058.012-.14-.039-.175.055h-.114q-.086.005-.168.004-.58.023-1.16.058c-.02 0-.035.035-.055.055l-1.156.059c-.172.004-.343 0-.515 0a10 10 0 0 0-1.446.058h-.054c-.157 0-.313-.004-.47 0-.034.004-.073.035-.108.055a3.1 3.1 0 0 0-.762.059c-.164.03-.332.042-.496.082-.262.062-.528.12-.778.21-.207.075-.445.055-.617.227-.055.008-.117.004-.168.027q-.696.284-1.39.578c-.137.06-.278.114-.41.184q-.481.26-.958.535c-.41.239-.82.485-1.23.727-.188.105-.371.21-.559.316.016-.402.04-.8.043-1.199.004-.254-.023-.512-.035-.766.024-.007.063-.004.078-.02.114-.124.239-.25.332-.39.383-.566.864-1.05 1.332-1.543.438-.457.926-.87 1.418-1.273.364-.297.746-.555 1.137-.793.313-.192.645-.38 1.008-.496.219-.067.426-.176.656-.239.32-.085.633-.218.953-.316.363-.11.746-.172 1.102-.309.43-.164.87-.265 1.304-.414.079-.027.16-.039.243-.066.226-.082.449-.195.683-.246.387-.082.746-.234 1.121-.344.258-.074.512-.172.77-.262.25-.09.512-.136.762-.253.273-.133.59-.172.875-.286.527-.207 1.09-.312 1.59-.59.21.024.37-.113.546-.187.188-.078.387-.117.575-.207.445-.207.917-.355 1.378-.531.051-.016.098-.051.149-.067.062-.02.125-.03.187-.047q.031-.029.063-.062l-.004.004c.137-.016.285-.012.363-.16" style="stroke:none;fill-rule:nonzero;fill:#b4118e;fill-opacity:1"/><path d="M38.152 28.23c-.062.016-.125.028-.187.047-.05.016-.098.051-.149.067-.46.176-.933.324-1.379.531-.187.09-.386.129-.574.207-.175.074-.336.211-.547.188-.5.277-1.062.382-1.59.59-.285.113-.601.152-.874.285-.25.117-.512.164-.762.253-.258.09-.512.188-.77.262-.375.11-.734.262-1.12.344-.235.05-.458.164-.684.246-.082.027-.164.04-.243.066-.433.149-.875.25-1.304.414-.356.137-.739.2-1.102.31-.32.097-.633.23-.953.315-.23.063-.437.172-.656.239-.363.117-.695.304-1.008.496-.39.238-.773.496-1.137.793-.492.402-.98.816-1.418 1.273-.468.492-.949.977-1.332 1.543-.093.14-.218.266-.332.39-.015.016-.054.013-.078.02a9.5 9.5 0 0 0-.375-1.539c-.062-.187-.152-.363-.226-.55-.024-.051-.036-.106-.051-.16.035-.11.078-.22.105-.333.18-.773.54-1.46.938-2.136.449-.77 1.031-1.422 1.687-2.008.313-.285.668-.528 1.02-.77q.445-.3.926-.547c.664-.347 1.34-.671 2.003-1.011.45-.223.891-.461 1.34-.692.438-.222.88-.437 1.317-.664.347-.183.691-.383 1.039-.57.469-.246.937-.48 1.402-.734.395-.22.785-.454 1.172-.688q.84-.508 1.668-1.027c.352-.223.695-.461 1.039-.7.36-.246.711-.5 1.066-.75.079-.054.149-.117.227-.175q.03-.03.063-.059l-.008.008c.343-.238.695-.469 1.03-.719a25 25 0 0 0 2.364-2.047 18.6 18.6 0 0 0 2.559-3.11q.689-1.067 1.226-2.218c.391-.828.727-1.676.989-2.547.23-.77.398-1.558.593-2.34.016-.062.008-.128.043-.203.012.043.032.086.043.125.012.047.028.094.032.14.023.352.05.704.066 1.06.023.543.016 1.09.07 1.632.059.606.063 1.207.028 1.809-.043.664-.059 1.328-.137 1.996-.098.793-.211 1.582-.379 2.36a15.4 15.4 0 0 1-.695 2.312c-.168.422-.332.851-.528 1.262-.293.605-.593 1.207-.98 1.761-.297.422-.578.856-.879 1.27a12 12 0 0 1-1.258 1.488q-.604.615-1.226 1.219c-.176.172-.371.332-.559.496l-.207.188c-.125.042-.25.085-.29.234l.005-.004q-.031.034-.063.062" style="stroke:none;fill-rule:nonzero;fill:#ec0581;fill-opacity:1"/><path d="m33.14 41.09.286.058c.035.02.066.051.105.055.098.008.2.004.301.004q.263-.036.52-.066c.039.043.066.078.101.12q.459-.01.91.102c.117.032.258-.027.387-.043.023.035.047.067.086.121l.426-.066c.027.035.054.07.093.117h.243c.007.035.011.07.023.137.149-.07.305.05.438-.078l.171.058c.079.02.157.047.239.055.144.008.297.004.441.004q.24.034.48.062c.051.079.106.075.165.004.234.008.468.012.699.02.02.008.039.02.059.027.074 0 .152 0 .226.004.02.02.04.055.059.055q.406.006.804 0c.02 0 .04-.035.059-.055q.113-.005.227-.004.029-.017.058-.027c.234-.008.469-.012.7-.02.062.067.117.075.167-.007.04 0 .078-.004.117-.004.02-.008.036-.02.055-.028.227-.027.453-.05.68-.086.336-.05.672-.12 1.008-.164.586-.078 1.148-.246 1.71-.418a15.4 15.4 0 0 0 2.903-1.246c.707-.394 1.39-.828 2.027-1.328.485-.379.965-.766 1.485-1.18-.078.22-.137.403-.211.579-.38.906-.828 1.773-1.399 2.578-.36.504-.746.988-1.191 1.422-.371.355-.742.714-1.137 1.05-.281.239-.59.446-.894.66-.543.387-1.121.72-1.715 1.016-.703.352-1.426.656-2.168.926-.801.289-1.617.527-2.438.75-.476.125-.96.215-1.445.312-.582.118-1.168.235-1.758.336-.328.055-.66.082-.988.125-.473.055-.945.118-1.414.168-.278.028-.555.04-.828.067-.07.004-.14.039-.211.058-.074-.015-.149-.02-.219-.043-.48-.183-.965-.34-1.441-.53-.387-.157-.793-.278-1.192-.411-.308-.106-.617-.207-.926-.316-.73-.258-1.457-.528-2.191-.774-.566-.187-1.14-.348-1.71-.523-.395-.125-.782-.25-1.173-.375-.082-.024-.164-.043-.242-.067-.312-.101-.617-.215-.93-.304-.617-.18-1.238-.348-1.859-.524-.402-.113-.805-.234-1.211-.344q-.85-.222-1.707-.437c-.281-.07-.562-.125-.844-.203-.218-.063-.433-.145-.648-.223q.275-.167.55-.332a3.54 3.54 0 0 0 1.368-1.418c.02-.039.062-.066.094-.101.328-.004.652-.016.98-.02.04 0 .082.016.121.023h1.848c.117-.043.238-.027.363-.023.34.016.68.016 1.02.023.078.118.195.032.289.059.183.016.367.055.55.05.22 0 .442-.034.66-.05.157 0 .313-.004.47 0 .038.004.074.035.109.055.043.02.09.054.136.058.282.004.563 0 .844 0 .348-.02.692-.043 1.04-.062.034.039.062.074.1.12h.302c.078.04.16.11.238.106.148-.004.316.07.453-.047q.169.011.332.04c.168.035.352-.008.559-.024q.015.018.078.106c.246-.024.504-.051.761-.075l.102.125h.246c.004.036.008.067.016.114.168 0 .324.004.48 0 .028 0 .051-.035.078-.055.086.05.168.07.27.043.098-.027.203-.04.308-.059.036.047.063.082.102.13h.242c.16.167.336.136.524.058" style="stroke:none;fill-rule:nonzero;fill:#473e9d;fill-opacity:1"/><path d="M32.445 16.867c-.218.192-.441.39-.664.578-.347.297-.695.586-1.043.883-.16.133-.312.274-.476.406a42 42 0 0 1-1.926 1.489c-.64.468-1.285.925-1.953 1.351-.625.399-1.258.785-1.89 1.176-.618.379-1.231.766-1.86 1.125-.313.18-.625.348-.906.57-.188.145-.387.278-.555.446-.344.343-.688.691-1 1.062-.211.25-.371.543-.547.82-.152.25-.312.497-.437.758a10 10 0 0 0-.653 1.727c-.062.23-.152.46-.183.699-.036.29-.118.566-.157.855-.097.7-.02 1.399-.054 2.094-.047-.027-.11-.043-.141-.078-.29-.379-.582-.754-.86-1.144-.34-.477-.68-.961-1-1.457-.277-.434-.456-.91-.609-1.403-.097-.308-.047-.625-.14-.926.062-.382.058-.773.175-1.148a7.4 7.4 0 0 1 1.036-2.02c.675-.949 1.503-1.761 2.343-2.562.192-.188.41-.34.621-.508q.547-.433 1.094-.87.58-.469 1.152-.942c.258-.211.516-.426.766-.645.485-.422.977-.832 1.442-1.27a85 85 0 0 0 2.085-2.027c.454-.453.887-.93 1.301-1.418.867-1.015 1.684-2.07 2.34-3.234.254-.445.52-.887.746-1.344.266-.523.488-1.062.703-1.61.352-.894.598-1.812.82-2.741.087-.36.141-.727.196-1.09.082-.535.152-1.07.227-1.606.007-.039 0-.078.003-.117.059-.828.082-1.664.075-2.496-.004-.074.007-.145.015-.25.157.098.207.234.274.352.488.886.84 1.828 1.07 2.812.148.617.242 1.246.316 1.879.125 1.023.106 2.043.082 3.066-.007.5-.113 1-.148 1.5-.02.317-.066.625-.121.934-.078.477-.149.953-.242 1.426-.098.492-.223.98-.34 1.465a35 35 0 0 1-.766 2.73c-.074.234-.14.469-.21.703" style="stroke:none;fill-rule:nonzero;fill:#f8d208;fill-opacity:1"/><path d="M17.508 42.246c.215.078.43.16.648.223.282.078.563.133.844.203q.856.216 1.707.437c.406.11.809.23 1.211.344.621.176 1.242.344 1.86.524.312.09.617.203.929.304.078.024.16.043.242.067q.583.188 1.172.375c.57.175 1.145.336 1.711.523.734.246 1.461.516 2.191.774.309.109.618.21.926.316.399.133.805.254 1.192.41.476.191.96.348 1.441.531.07.024.145.028.219.043.39.117.777.242 1.172.344.476.121.953.242 1.437.332.43.086.867.14 1.3.191q.823.097 1.65.157c.331.023.671.02 1.007.011.488-.011.977-.02 1.461-.066a25 25 0 0 0 1.863-.258c1.07-.183 2.102-.504 3.133-.832.086-.027.18-.035.274-.05l-.004-.004c-.024.05-.04.105-.074.144-.641.715-1.336 1.371-2.137 1.898-.672.45-1.387.82-2.13 1.145a18 18 0 0 1-2.081.762c-.586.176-1.192.293-1.793.426-.36.082-.723.148-1.086.21-.227.04-.453.06-.68.083-.254-.004-.508-.008-.75.101q-.053-.001-.113.004c-.129-.074-.25-.082-.348.05-.093.009-.191.012-.285.016-.062-.086-.12-.09-.172.012a10 10 0 0 0-.347.04C35.05 52.022 35 52 34.957 52c-.07.008-.14.035-.21.05q-.23.018-.458.04c-.219-.07-.434-.082-.633.047h-.113c-.04-.047-.082-.043-.121.004q-.4.004-.805.015c-.031-.02-.058-.05-.09-.05H30.06c-.032 0-.063.03-.09.05q-.434-.01-.867-.015c-.063-.008-.122-.02-.184-.028h-.094a2 2 0 0 0-.133-.008h-.046a1 1 0 0 1-.063-.058c-.27-.027-.469-.215-.719-.3-.12-.04-.234-.11-.347-.173-.114-.054-.223-.11-.336-.164-.22-.113-.438-.23-.657-.34-.125-.062-.273-.097-.37-.187-.13-.117-.31-.133-.426-.242-.133-.121-.301-.172-.45-.266-.441-.281-.898-.543-1.347-.816a29 29 0 0 1-.926-.59q-.465-.303-.918-.625c-.258-.184-.512-.375-.77-.563-.265-.195-.539-.386-.808-.578l-.113-.058c.007-.086-.036-.122-.118-.118a.4.4 0 0 1-.054-.054l-.118-.059-.011-.098-.219-.074-.059-.058-.007-.098a5 5 0 0 1-.223-.078c-.027-.035-.05-.082-.086-.106-.297-.234-.617-.437-.895-.699l-.117-.058q.017-.128-.113-.114l-.059-.058-.113-.059c-.008-.191-.168-.184-.289-.23l-.059-.114-.117-.058c-.058-.125-.316-.348-.46-.407-.008-.03-.008-.082-.036-.097-.097-.07-.207-.13-.308-.192-.02-.02-.04-.035-.059-.054l-.059-.059c-.046-.094-.105-.176-.23-.172l-.059-.058c-.16-.149-.316-.301-.476-.45q-.183-.157-.367-.308c-.145-.125-.293-.246-.43-.375-.047-.05-.074-.125-.11-.188.442-.043.891-.062 1.329-.129.285-.046.562-.156.843-.234.063-.02.13-.027.192-.043" style="stroke:none;fill-rule:nonzero;fill:#3168bb;fill-opacity:1"/><path d="M15.145 42.652c.035.063.062.137.109.188.137.129.285.25.43.375.12.101.246.203.367.308.16.149.316.301.476.45l.059.058c.05.094.11.18.23.172l.059.059c.02.02.04.035.059.054.05.121.187.235.343.29.024.05.032.113.07.148.079.078.173.148.262.21.04.028.086.032.13.048l.116.058q.03.054.06.114a8 8 0 0 0 .288.23q.054.03.113.059l.059.058q-.017.13.113.114l.117.058c.278.262.598.465.895.7.035.023.059.07.086.105 0 .027.004.058.008.101q.105.034.222.075l.059.058c0 .028.004.055.008.098q.105.036.222.074l.118.059q.024.03.054.054c-.011.086.028.13.118.118q.054.03.113.058c.27.192.543.383.808.578.258.188.512.38.77.563.3.215.61.422.918.625q.457.303.926.59c.449.273.906.535 1.347.816.149.094.317.145.45.266.117.109.296.125.425.242.098.09.246.125.371.187.22.11.438.227.657.34.113.055.222.11.336.164.113.063.226.133.347.172.25.086.45.274.719.3q.03.03.063.06h.046c0 .078.032.124.118.117.113.05.218.113.332.16.547.215 1.086.449 1.644.637q.78.272 1.582.449c.582.133 1.176.226 1.766.312q1.014.158 2.035.274c.367.043.742.05 1.113.07l1.895.066q.544.022 1.09.043c.043.004.09.012.207.032-.114.054-.164.082-.215.105-.696.328-1.422.582-2.156.809-.723.226-1.457.425-2.204.558-.562.098-1.12.192-1.683.278-.227.035-.457.047-.684.062-.39.024-.785.043-1.176.067-.277.011-.55.046-.828.042a42 42 0 0 1-1.722-.058 20 20 0 0 1-1.367-.113c-.489-.059-.973-.164-1.465-.207-.535-.043-1.047-.192-1.575-.254-.28-.035-.558-.121-.835-.184q-.61-.136-1.22-.277c-.1-.024-.195-.07-.292-.102-.07-.023-.153-.035-.211-.078a88 88 0 0 1-1.55-1.137 41 41 0 0 1-1.313-1.027c-.293-.242-.567-.508-.852-.762l-.117-.117q-.054-.056-.113-.113c-.04-.04-.079-.074-.118-.113l-.058-.06q-.087-.088-.172-.17l-.059-.06q-.06-.059-.113-.117c-.02-.02-.04-.035-.059-.054l-.058-.059-.113-.113a7.214 7.214 0 0 0-.234-.23.4.4 0 0 0-.056-.06c-.039-.042-.078-.077-.117-.12l-.285-.286-.117-.117-.457-.515q-.035-.06-.063-.118v.004c-.039-.039-.078-.082-.117-.117-.02-.02-.035-.039-.054-.058l-.06-.114-.116-.117a1 1 0 0 0-.055-.059l-.117-.117c-.016-.035-.04-.074-.059-.113-.02-.02-.035-.04-.054-.059v.004l-.059-.117-.113-.058-.059-.114q.012-.129-.117-.117l-.059-.117q-.036-.112-.074-.219c-.043-.004-.07-.008-.098-.012v.004c-.039-.129-.043-.285-.23-.289q-.036-.117-.074-.222c-.043-.004-.07-.008-.098-.012l-.058-.113c-.028-.075-.051-.153-.075-.22-.043-.007-.07-.007-.097-.01a29 29 0 0 1-1.5-2.423c-.04-.117-.075-.238-.121-.351-.012-.028-.07-.035-.11-.051q-.036-.17-.074-.34c-.043-.004-.07-.008-.098-.008-.191-.379-.394-.75-.57-1.133-.187-.406-.352-.82-.527-1.23.062.02.129.031.183.066.473.297.973.528 1.496.711.23.078.48.11.723.14.254.036.512.048.77.067" style="stroke:none;fill-rule:nonzero;fill:#3e85cd;fill-opacity:1"/><path d="M29.969 52.156c.027-.02.058-.05.09-.05h2.468c.032 0 .059.03.09.05-.039.016-.078.051-.113.051-.809.004-1.613.004-2.422 0-.039 0-.078-.035-.113-.05" style="stroke:none;fill-rule:nonzero;fill:#3168bb;fill-opacity:1"/><path d="M37.91 41.668c-.144 0-.297.004-.441-.004-.082-.008-.16-.035-.239-.055.047-.02.094-.054.141-.054.188-.012.379.027.566.004-.007.035-.015.074-.027.109" style="stroke:none;fill-rule:nonzero;fill:#473e9d;fill-opacity:1"/><path d="M33.656 52.137c.2-.13.414-.117.633-.047-.016.02-.031.058-.05.058-.192 0-.387-.007-.583-.011M36.363 51.914c.242-.11.496-.105.75-.102a1.37 1.37 0 0 1-.75.102M35.902 51.969c.098-.133.22-.125.348-.051-.102.113-.227.062-.348.05M34.746 52.05c.07-.015.14-.042.211-.05.043 0 .094.023.14.035-.117.078-.183.078-.35.016" style="stroke:none;fill-rule:nonzero;fill:#3168bb;fill-opacity:1"/><path d="M38.555 41.734c-.059.07-.114.075-.164-.004.054-.074.113-.078.164.004M38.27 41.477c.003-.024.011-.051.02-.098h.214q-.117.048-.234.098M38.559 41.367c.082-.035.16-.066.242-.097-.035.144-.149.093-.242.097" style="stroke:none;fill-rule:nonzero;fill:#71329b;fill-opacity:1"/><path d="M35.445 51.996c.051-.101.11-.098.172-.012-.054.078-.113.078-.172.012" style="stroke:none;fill-rule:nonzero;fill:#3168bb;fill-opacity:1"/><path d="m19.758 39.82.144.043c-.078.078-.117.102-.152.004a.07.07 0 0 1 .008-.047" style="stroke:none;fill-rule:nonzero;fill:#473e9d;fill-opacity:1"/><path d="M28.809 52.223c-.086.007-.118-.04-.118-.118.043 0 .09.004.133.008q-.005.051-.015.11" style="stroke:none;fill-rule:nonzero;fill:#3168bb;fill-opacity:1"/><path d="M32.016 58.563c-5.903-1-11.754-4.833-15.243-9.282-.07-.144-.293-.14-.285-.293q-.03-.053-.058-.113a6 6 0 0 1-1.04-1.328c-1.253-1.785-2.398-3.777-3.23-5.879C9.602 37.633 4.72 35.328 0 36.426c5.5 2.969 4.914 6.55 8.219 12.344 3.203 5.687 9.238 9.562 15.094 9.933 1.972.45 4.726.29 6.957.156.234.02 2.785-.156 1.746-.297" style="stroke:none;fill-rule:nonzero;fill:#53b8eb;fill-opacity:1"/><path d="M28.918 52.113c.062.008.121.02.184.028-.067.015-.133.047-.184-.028" style="stroke:none;fill-rule:nonzero;fill:#3168bb;fill-opacity:1"/><path d="M18.14 32.902c.102.02.044.106.063.16q-.032-.076-.062-.16" style="stroke:none;fill-rule:nonzero;fill:#f8d208;fill-opacity:1"/><path d="M33.422 52.14c.039-.046.082-.05.121-.003-.04 0-.078.004-.121.004" style="stroke:none;fill-rule:nonzero;fill:#3168bb;fill-opacity:1"/><path d="M38.906 41.25" style="stroke:none;fill-rule:nonzero;fill:#71329b;fill-opacity:1"/><path d="M16.55 56.77c.02.02.04.03.06.046-.02-.015-.04-.027-.06-.046" style="stroke:none;fill-rule:nonzero;fill:#53b8eb;fill-opacity:1"/><path d="M13.242 44.379c.04.016.098.023.11.05.046.114.082.235.12.352-.038-.015-.097-.023-.109-.054-.05-.114-.082-.235-.12-.348M15.375 47.781c.188.004.191.16.23.29-.156-.036-.195-.16-.23-.29M13.07 44.031c.028 0 .055.004.098.008q.036.17.074.34c-.14-.078-.176-.203-.172-.348M15.605 48.066c.028.004.055.008.098.012l.074.219c-.027 0-.054-.004-.097-.008q-.034-.105-.075-.223M15.203 47.547c.027.004.055.008.098.012q.036.105.074.222a1 1 0 0 0-.098-.008q-.036-.11-.074-.226M14.973 47.203c.027.004.054.004.097.012.024.066.047.144.075.219-.028-.004-.055-.004-.098-.008z" style="stroke:none;fill-rule:nonzero;fill:#50abe4;fill-opacity:1"/><path d="M17.91 50.781q.088.084.176.172-.176.005-.176-.172M18.547 51.414q.085.083.172.172-.177.005-.172-.172" style="stroke:none;fill-rule:nonzero;fill:#55b7ea;fill-opacity:1"/><path d="M15.836 48.414q.129-.012.117.117c-.09.008-.125-.031-.117-.117" style="stroke:none;fill-rule:nonzero;fill:#50abe4;fill-opacity:1"/><path d="m16.125 48.703.059.117q-.129.013-.118-.117zM18.777 51.645l.118.113q-.129.016-.118-.113" style="stroke:none;fill-rule:nonzero;fill:#55b7ea;fill-opacity:1"/><path d="M16.7 49.453c.038.035.077.078.116.117-.086.008-.12-.035-.117-.117" style="stroke:none;fill-rule:nonzero;fill:#53b2e7;fill-opacity:1"/><path d="m19.008 51.871.117.117q-.135.018-.117-.117M17.336 50.2l.117.116c-.09.012-.125-.027-.117-.117M17.738 50.602c.04.043.078.078.117.12-.09.008-.125-.035-.117-.12M18.145 51.012l.113.113q-.13.011-.113-.113M16.297 48.988l.117.117c-.086.012-.125-.03-.117-.117M18.375 51.238q.054.06.113.117-.13.013-.113-.117" style="stroke:none;fill-rule:nonzero;fill:#55b7ea;fill-opacity:1"/><path d="M16.816 49.566q.03.06.063.118-.035-.06-.063-.118" style="stroke:none;fill-rule:nonzero;fill:#53b2e7;fill-opacity:1"/><path d="M16.125 48.703h-.059c-.02-.02-.035-.039-.054-.058q.054.03.113.058M15.145 47.434" style="stroke:none;fill-rule:nonzero;fill:#50abe4;fill-opacity:1"/><path d="M16.238 48.875c.02.04.043.078.059.113-.016-.035-.04-.074-.059-.113M16.586 49.281l.059.114zM16.184 48.816c.02.02.035.04.054.059-.02-.02-.035-.04-.054-.059M18.316 51.184c.02.02.04.035.059.054-.02-.02-.04-.035-.059-.054M18.488 51.355l.059.06zM18.086 50.953" style="stroke:none;fill-rule:nonzero;fill:#55b7ea;fill-opacity:1"/><path d="M36.313 21.996" style="stroke:none;fill-rule:nonzero;fill:#ecebeb;fill-opacity:1"/><path d="M38.152 28.23q.031-.029.063-.062-.031.034-.063.062" style="stroke:none;fill-rule:nonzero;fill:#e697d1;fill-opacity:1"/><path d="M22.469 40.398H20.62l.016-.101h1.816c.004.031.012.066.016.101M25.352 40.457c-.22.016-.442.05-.66.05-.184.005-.368-.034-.551-.05v-.059c.359 0 .714 0 1.074.004.047 0 .094.035.137.055M26.91 40.57c-.281 0-.562.004-.844 0-.046-.004-.093-.039-.136-.058.332-.067.664-.114.98.058M29.043 40.688c-.137.117-.305.042-.453.046-.078.004-.16-.066-.238-.105.195 0 .39-.004.585.004.036 0 .07.035.106.054M31.695 40.918c-.027.02-.05.055-.078.055-.156.004-.312 0-.48 0l-.016-.114c.192.02.39-.05.574.059M37.059 41.55c-.133.13-.29.009-.438.079-.012-.066-.016-.102-.023-.137.156.012.316-.035.46.059M33.14 41.09c-.187.078-.363.11-.523-.059.14 0 .278-.004.414.004.04 0 .07.035.11.055M33.832 41.207c-.102 0-.203.004-.3-.004-.04-.004-.071-.035-.106-.055.152-.12.281-.058.406.059M24.14 40.398v.059c-.093-.027-.21.059-.288-.059z" style="stroke:none;fill-rule:nonzero;fill:#473e9d;fill-opacity:1"/><path d="M24.676 36.715q0 .006 0 0m-.016-.004q.007.006.008.012-.001-.006-.008-.012m27.715-9.445c-.422.601-.91 1.148-1.418 1.68a.06.06 0 0 1-.031.034q-.024 0-.024.024a.1.1 0 0 1-.03.035q-.029 0-.028.023a.1.1 0 0 1-.032.032q-.023 0-.023.023a.06.06 0 0 1-.039.031q-.356.335-.719.668a.1.1 0 0 1-.031.032h-.016l-.004.015q-.021.023-.042.04-.786.65-1.63 1.222c-.003.027-.007.05-.015.094-.05 0-.102.008-.152.011l-.18.122q-.031.021-.063.05l-.05.016c0 .125-.094.094-.164.105l-.008.008c-.004.024-.012.051-.02.09q-.075.005-.152.016H47.5c-.023.02-.043.031-.066.047-.055.027-.11.05-.164.078q-.031.02-.055.043l-.063.023q-.022.018-.047.035-.033.018-.074.035-.011.018-.039.024l-.012.012a1 1 0 0 1-.058.043q-.03.009-.059.02c-.015.015-.035.026-.05.038-.024.008-.043.012-.063.02 0 .093-.055.105-.129.09a.1.1 0 0 0-.047.011q-.05.031-.101.055-.181.094-.356.184c-.008.027-.012.054-.02.097h-.163c-.133.063-.266.13-.395.192-.023.011-.047.027-.066.039q-.112.044-.223.086-.029.017-.05.035c-.02.008-.044.011-.063.02 0 .097-.059.105-.133.085q-.053.013-.102.02c-.035.015-.07.035-.105.05-.024.004-.043.012-.067.016-.02.012-.035.028-.054.04-.02.007-.04.01-.063.019l-.058.035.004.004a2 2 0 0 0-.016.16l-.047.012q-.024-.058-.055-.121-.059.017-.117.027-.022.018-.05.035c-.02.008-.044.012-.063.016-.02.011-.043.027-.063.039a.1.1 0 0 0-.054.015c-.024.012-.047.028-.07.04q-.135.043-.27.085c-.012.137-.113.086-.184.09-.02 0-.035 0-.05.012-.083.035-.16.07-.239.105-.09-.007-.148.059-.218.082-.079.032-.176.008-.243.09.02.032.035.063.055.094l-.05.027q-.031-.06-.055-.113c-.168.02-.313.125-.47.152-.202.036-.359.18-.566.18-.02 0-.039.04-.062.059q-.053.001-.113.008c-.118.039-.235.082-.356.12q-.168.053-.344.11c-.015-.008-.035-.004-.05.004l-.528.14c-.265.075-.535.145-.8.22v.038c-.04 0-.075.004-.114.004-.09.02-.183.051-.273.051-.418 0-.809.172-1.227.188-.332.015-.668.09-.992.171-.172.04-.348.008-.504.059-.437.129-.887.14-1.332.215-.367.062-.75.066-1.121.125-.395.062-.785.098-1.184.113-.058.012-.14-.039-.175.055h-.114q-.086.005-.168.004-.58.023-1.16.058c-.02 0-.035.035-.055.055l-1.156.059c-.172.004-.343 0-.515 0a10 10 0 0 0-1.446.058h-.054c-.157 0-.313-.004-.47 0-.034.004-.073.035-.108.055a3.1 3.1 0 0 0-.762.059c-.164.03-.332.042-.496.082-.262.062-.528.12-.778.21-.207.075-.445.055-.617.227h-.004.004c-.055.008-.117.004-.168.027q-.696.284-1.39.578c-.137.06-.278.114-.41.184q-.481.26-.958.535c-.41.239-.82.485-1.23.727-.188.105-.371.21-.559.316-.023.11-.039.223-.066.336-.035.137-.082.274-.121.41l.144.043c-.078.078-.117.102-.152.004q-.112.264-.23.528c.328-.004.652-.016.98-.02.04 0 .082.016.121.023l.016-.101h1.816c.004.031.012.066.016.101.117-.043.238-.027.363-.023.34.016.68.016 1.02.023h.289c.359 0 .714 0 1.074.004.047 0 .094.035.137.055.156 0 .312-.004.468 0 .04.004.075.035.11.055.332-.067.664-.114.98.058.348-.02.692-.043 1.04-.062.034.039.062.074.1.12h.302c.195 0 .39-.003.585.005.036 0 .07.035.106.054q.169.011.332.04c.168.035.352-.008.559-.024q.015.018.078.106c.246-.024.504-.051.761-.075l.102.125h.246c.192.02.39-.05.574.059.086.05.168.07.27.043.098-.027.203-.04.308-.059.036.047.063.082.102.13h.242c.14 0 .278-.005.414.003.04 0 .07.035.11.055q.139.03.285.058c.152-.12.281-.058.406.059q.263-.036.52-.066c.039.043.066.078.101.12q.459-.01.91.102c.117.032.258-.027.387-.043.023.035.047.067.086.121l.426-.066c.027.035.054.07.093.117h.243c.156.012.316-.035.46.059l.172.058c.047-.02.094-.054.141-.054.188-.012.379.027.566.004l.333-.082c.003-.024.011-.051.02-.098h.214l.055-.012c.082-.035.16-.066.242-.097.035-.008.07-.012.105-.02a1 1 0 0 0 .063-.043l.11-.023.058-.036q.03.006.054-.011-.001-.03.004-.047c.004-.04.012-.074.024-.145.047.043.066.067.09.086.039 0 .082.004.12.004l.11-.023c.004-.028.012-.051.02-.09l.25-.012.015-.012c.02-.011.043-.027.063-.039l.117-.023q.023-.016.047-.04l.066-.01q.03-.02.063-.04.029.001.05-.016c.024-.011.047-.027.067-.039q.14-.044.281-.09.023-.012.047-.03.035-.013.07-.02.024-.017.055-.04l.012-.16.043-.011q.03.051.058.11a.1.1 0 0 0 .047 0l.012-.005q.053-.029.105-.05c.024-.004.047-.012.067-.016 0-.098.062-.102.133-.09q.081-.019.164-.043a.06.06 0 0 1 .047-.023c.019-.008.042-.012.062-.02l.047-.039q.036-.011.066-.016c.012-.16.145-.07.215-.105l.016-.008a1 1 0 0 0 .062-.043l.055-.012a1 1 0 0 0 .098-.05l.015-.008q.036-.022.067-.04c.058-.023.113-.042.168-.066.004-.035.011-.07.023-.132.043.035.066.05.09.07.039-.02.078-.035.117-.055q.035-.024.07-.043h.024l.02-.011c.023-.016.046-.036.066-.051a1 1 0 0 0 .11-.028l.046-.035.121-.062.07-.047q.03.006.047-.012.052-.024.106-.055l.008-.007q.05-.025.101-.051l.016-.012q.032-.017.062-.039.087-.034.172-.074c.016-.016.031-.027.05-.043.04-.024.079-.043.118-.066l.07-.047q.083-.034.164-.075.031-.023.055-.043.03-.008.059-.02c0-.089.054-.105.125-.093q.029.005.05-.008c.02-.015.04-.035.063-.05a.1.1 0 0 0 .05-.016c-.003-.133.098-.094.169-.106l.004-.003a1 1 0 0 0 .101-.055l.012-.008.055-.047.066-.023q.01-.028.043-.032c.41-.269.828-.527 1.227-.816.468-.336.918-.7 1.37-1.059.15-.117.278-.253.415-.382a.3.3 0 0 1 .054-.051c.309-.309.618-.613.926-.922l.051-.059c.297-.304.578-.625.816-.976l.047-.063c.043-.054.082-.113.125-.168a.4.4 0 0 1 .051-.062l.063-.074a.04.04 0 0 1 .035-.035q.042-.088.086-.168c-.016-.079.007-.133.101-.125.024-.04.047-.075.067-.114q.021-.03.05-.058c.23-.383.477-.758.688-1.149.152-.281.238-.597.39-.879.215-.414.376-.843.504-1.289.047-.168.082-.347.137-.508.102-.289.215-.57.215-.882 0-.024.027-.047.035-.075.02-.078.035-.156.055-.238-.028 0-.055-.004-.094-.008l-.023-.195c.05-.012.09-.02.132-.027.032-.035.06-.067.098-.106-.012-.082-.027-.168-.039-.242.14-.2.14-.2-.039-.441" style="stroke:none;fill-rule:nonzero;fill:#672691;fill-opacity:1"/><path d="M24.66 36.707c.016.008.031.016-.004 0 .024.027.012.016.004 0" style="stroke:none;fill-rule:nonzero;fill:#62248d;fill-opacity:1"/><path d="M17.738 45.012c-.043-.016-.09-.02-.129-.047a2 2 0 0 1-.261-.211c-.04-.035-.047-.098-.07-.149.144.06.402.282.46.407M17.277 44.605c-.156-.054-.293-.167-.343-.289.101.063.21.121.308.192.028.015.028.066.035.097M18.203 45.414a8 8 0 0 1-.289-.23c.121.046.281.039.29.23M19.816 46.684q-.117-.04-.222-.075c-.004-.043-.008-.074-.008-.101q.11.041.223.078c.003.043.003.07.007.098M20.105 46.914q-.117-.036-.222-.074c-.004-.043-.008-.07-.008-.098l.219.074zM16.816 44.203c-.12.008-.18-.078-.23-.172.125-.004.184.078.23.172M20.395 47.145c-.09.011-.13-.032-.118-.118.082-.004.125.032.118.118M18.488 45.645q-.13.016-.113-.114.13-.014.113.114M18.316 45.473l-.113-.059q.054.03.113.059M17.855 45.07l-.117-.058zM20.223 46.973l-.118-.059zM18.605 45.703l-.117-.058zM17.914 45.184" style="stroke:none;fill-rule:nonzero;fill:#438bd0;fill-opacity:1"/><path d="M28.645 52.105a1 1 0 0 1-.063-.058q.03.03.063.058" style="stroke:none;fill-rule:nonzero;fill:#3168bb;fill-opacity:1"/><path d="m16.875 44.262-.059-.059zM18.375 45.531l-.059-.058zM19.875 46.742" style="stroke:none;fill-rule:nonzero;fill:#438bd0;fill-opacity:1"/></svg>