<?xml version="1.0" encoding="UTF-8"?>
<svg xmlns="http://www.w3.org/2000/svg" xmlns:xlink="http://www.w3.org/1999/xlink" width="172.52pt" height="59pt" viewBox="0 0 172.52 59" version="1.1">
<defs>
<clipPath id="clip1">
  <path d="M 18 12 L 172.519531 12 L 172.519531 19 L 18 19 Z M 18 12 "/>
</clipPath>
</defs>
<g id="surface1">
<path style=" stroke:none;fill-rule:nonzero;fill:rgb(100%,100%,100%);fill-opacity:1;" d="M 60.710938 54.671875 C 60.65625 54.503906 60.597656 54.339844 60.542969 54.171875 C 66.242188 50.175781 71.9375 46.175781 77.792969 42.070312 C 81.316406 47.796875 84.71875 53.332031 88.058594 58.761719 C 92.242188 59.171875 103.210938 59.035156 105.222656 58.496094 C 100.285156 50.070312 95.386719 41.703125 90.503906 33.367188 C 88.851562 33.367188 87.371094 33.367188 85.898438 33.367188 C 79.28125 37.972656 50.191406 57.414062 49.667969 58.839844 C 58.996094 58.839844 68.320312 58.839844 77.769531 58.839844 C 78.132812 57.96875 78.492188 57.148438 78.820312 56.316406 C 78.996094 55.875 79.125 55.417969 79.371094 54.671875 C 73.011719 54.671875 66.863281 54.671875 60.710938 54.671875 "/>
<path style=" stroke:none;fill-rule:nonzero;fill:rgb(100%,100%,100%);fill-opacity:1;" d="M 165.304688 33.304688 C 164.226562 33.304688 163.414062 33.304688 162.605469 33.304688 C 155.570312 33.304688 148.53125 33.445312 141.503906 33.253906 C 136.683594 33.125 132.828125 34.960938 129.480469 38.15625 C 126.753906 40.761719 124.652344 43.835938 123.5625 47.472656 C 123.070312 49.105469 122.738281 50.855469 122.726562 52.554688 C 122.699219 55.859375 124.300781 57.765625 127.484375 58.609375 C 128.273438 58.816406 129.109375 58.925781 129.929688 58.925781 C 137.539062 58.949219 145.152344 58.941406 152.769531 58.929688 C 153.328125 58.929688 153.890625 58.824219 154.535156 58.757812 C 155.097656 57.433594 155.625 56.175781 156.246094 54.703125 C 155.0625 54.703125 154.15625 54.703125 153.25 54.703125 C 148.78125 54.703125 144.3125 54.742188 139.84375 54.6875 C 137.425781 54.660156 136.378906 53.417969 137.179688 51.164062 C 138.441406 47.597656 139.90625 44.089844 141.523438 40.667969 C 142.601562 38.398438 144.605469 37.425781 147.222656 37.492188 C 151.769531 37.609375 156.324219 37.527344 160.878906 37.527344 C 161.691406 37.527344 162.503906 37.527344 163.425781 37.527344 C 164.058594 36.105469 164.613281 34.851562 165.304688 33.304688 "/>
<path style=" stroke:none;fill-rule:evenodd;fill:rgb(16.001892%,18.070984%,47.254944%);fill-opacity:1;" d="M 27.941406 42.703125 C 26.214844 42.796875 24.476562 42.722656 22.511719 42.722656 C 21.933594 44.066406 21.363281 45.386719 20.667969 47.007812 C 22.484375 47.007812 23.960938 46.96875 25.433594 47.015625 C 27.664062 47.082031 28.570312 48.351562 27.835938 50.453125 C 27.078125 52.632812 25.558594 54.269531 23.269531 54.53125 C 20.753906 54.820312 18.1875 54.597656 15.238281 54.597656 C 17.699219 48.738281 20.011719 43.222656 22.382812 37.585938 C 25.359375 37.585938 28.234375 37.542969 31.101562 37.625 C 31.582031 37.640625 32.042969 38.183594 32.449219 38.441406 C 32.347656 41.085938 30.804688 42.546875 27.941406 42.703125 Z M 44.214844 33.613281 C 43.296875 33.324219 42.273438 33.265625 41.296875 33.265625 C 31.699219 33.238281 22.097656 33.246094 12.496094 33.253906 C 11.765625 33.253906 11.03125 33.324219 10.382812 33.355469 C 7.941406 37.878906 0.140625 57 0 58.820312 C 0.320312 58.855469 0.640625 58.914062 0.964844 58.914062 C 10.8125 58.921875 20.664062 58.984375 30.511719 58.894531 C 34.875 58.859375 38.230469 56.667969 40.726562 53.199219 C 42.527344 50.699219 43.210938 47.992188 41.347656 44.992188 C 42.121094 44.476562 42.691406 44.140625 43.214844 43.746094 C 45.027344 42.375 46.582031 40.820312 47.007812 38.4375 C 47.421875 36.089844 46.503906 34.34375 44.214844 33.613281 "/>
<path style=" stroke:none;fill-rule:evenodd;fill:rgb(16.001892%,18.070984%,47.254944%);fill-opacity:1;" d="M 60.710938 54.671875 C 66.863281 54.671875 73.011719 54.671875 79.371094 54.671875 C 79.125 55.417969 78.996094 55.875 78.820312 56.316406 C 78.492188 57.148438 78.132812 57.96875 77.769531 58.839844 C 68.320312 58.839844 58.996094 58.839844 49.667969 58.839844 C 50.191406 57.414062 79.28125 37.972656 85.898438 33.367188 C 87.371094 33.367188 88.851562 33.367188 90.503906 33.367188 C 95.386719 41.703125 100.285156 50.070312 105.222656 58.496094 C 103.210938 59.035156 92.242188 59.171875 88.058594 58.761719 C 84.71875 53.332031 81.316406 47.796875 77.792969 42.070312 C 71.9375 46.175781 66.242188 50.175781 60.542969 54.171875 C 60.597656 54.339844 60.65625 54.503906 60.710938 54.671875 "/>
<path style=" stroke:none;fill-rule:evenodd;fill:rgb(16.001892%,18.070984%,47.254944%);fill-opacity:1;" d="M 165.304688 33.304688 C 164.613281 34.851562 164.058594 36.105469 163.425781 37.527344 C 162.503906 37.527344 161.691406 37.527344 160.878906 37.527344 C 156.324219 37.527344 151.769531 37.609375 147.222656 37.492188 C 144.605469 37.425781 142.601562 38.398438 141.523438 40.667969 C 139.90625 44.089844 138.441406 47.597656 137.179688 51.164062 C 136.378906 53.417969 137.425781 54.660156 139.84375 54.6875 C 144.3125 54.742188 148.78125 54.703125 153.25 54.703125 C 154.15625 54.703125 155.0625 54.703125 156.246094 54.703125 C 155.625 56.175781 155.097656 57.433594 154.535156 58.757812 C 153.890625 58.824219 153.328125 58.929688 152.769531 58.929688 C 145.152344 58.941406 137.539062 58.949219 129.929688 58.925781 C 129.109375 58.925781 128.273438 58.816406 127.484375 58.609375 C 124.300781 57.765625 122.699219 55.859375 122.726562 52.554688 C 122.738281 50.855469 123.070312 49.105469 123.5625 47.472656 C 124.652344 43.835938 126.753906 40.761719 129.480469 38.15625 C 132.828125 34.960938 136.683594 33.125 141.503906 33.253906 C 148.53125 33.445312 155.570312 33.304688 162.605469 33.304688 C 163.414062 33.304688 164.226562 33.304688 165.304688 33.304688 "/>
<g clip-path="url(#clip1)" clip-rule="nonzero">
<path style=" stroke:none;fill-rule:nonzero;fill:rgb(24.731445%,29.959106%,65.974426%);fill-opacity:1;" d="M 172.523438 12.949219 C 134.878906 14.546875 44.03125 20.179688 24.070312 14.929688 C 21.660156 15.90625 19.894531 16.792969 18.671875 17.597656 C 35.164062 19.695312 78.882812 19.105469 172.523438 12.949219 "/>
</g>
<path style=" stroke:none;fill-rule:nonzero;fill:rgb(24.731445%,29.959106%,65.974426%);fill-opacity:1;" d="M 51.011719 0 C 30.730469 5.203125 -1.773438 13.484375 15.042969 17.015625 C 17.269531 16.175781 19.828125 15.320312 22.585938 14.46875 C 15.890625 12.007812 22.28125 7.554688 51.011719 0 "/>
<path style=" stroke:none;fill-rule:nonzero;fill:rgb(14.237976%,15.917969%,40.077209%);fill-opacity:1;" d="M 47.457031 7.683594 C 39.800781 9.648438 30.414062 12.050781 22.585938 14.46875 C 23.027344 14.632812 23.515625 14.785156 24.070312 14.929688 C 29.050781 12.910156 36.683594 10.515625 47.457031 7.683594 "/>
<path style=" stroke:none;fill-rule:nonzero;fill:rgb(14.237976%,15.917969%,40.077209%);fill-opacity:1;" d="M 18.671875 17.597656 C 17.277344 17.421875 16.0625 17.226562 15.042969 17.015625 C -6.148438 25.003906 3.4375 31.519531 168.96875 20.632812 C 123.261719 22.574219 -0.851562 30.460938 18.671875 17.597656 "/>
</g>
</svg>
