<svg xmlns="http://www.w3.org/2000/svg" width="230.027" height="59pt" viewBox="0 0 172.52 59"><defs><clipPath id="a"><path d="M18 12h154.52v7H18Zm0 0"/></clipPath></defs><path d="M60.71 54.672q-.083-.25-.167-.5c5.7-3.996 11.395-7.996 17.25-12.102l10.266 16.692c4.183.41 15.152.273 17.164-.266-4.938-8.426-9.836-16.793-14.72-25.129h-4.605c-6.617 4.606-35.707 24.047-36.23 25.473H77.77c.363-.871.722-1.692 1.05-2.524.176-.441.305-.898.551-1.644zM165.305 33.305h-2.7c-7.035 0-14.074.14-21.101-.051-4.82-.129-8.676 1.707-12.024 4.902-2.726 2.606-4.828 5.68-5.917 9.317-.493 1.632-.825 3.382-.836 5.082-.028 3.304 1.574 5.21 4.757 6.054a9.7 9.7 0 0 0 2.446.317c7.61.023 15.222.015 22.84.004.558 0 1.12-.106 1.765-.172.563-1.324 1.09-2.582 1.711-4.055h-2.996c-4.469 0-8.937.04-13.406-.016-2.418-.027-3.465-1.269-2.664-3.523a112 112 0 0 1 4.343-10.496c1.079-2.27 3.082-3.242 5.7-3.176 4.547.117 9.101.035 13.656.035h2.547c.633-1.422 1.187-2.675 1.879-4.222" style="stroke:none;fill-rule:nonzero;fill:#fff;fill-opacity:1"/><path d="M27.941 42.703c-1.726.094-3.464.02-5.43.02-.577 1.343-1.148 2.664-1.843 4.285 1.816 0 3.293-.04 4.766.008 2.23.066 3.136 1.336 2.402 3.437-.758 2.18-2.277 3.817-4.566 4.078-2.516.29-5.082.067-8.032.067 2.461-5.86 4.774-11.375 7.145-17.012 2.976 0 5.851-.043 8.719.039.48.016.941.559 1.347.816-.101 2.645-1.644 4.106-4.508 4.262m16.274-9.09c-.918-.289-1.942-.347-2.918-.347-9.598-.028-19.2-.02-28.8-.012-.731 0-1.466.07-2.114.101C7.94 37.88.14 57 0 58.82c.32.035.64.094.965.094 9.848.008 19.7.07 29.547-.02 4.363-.035 7.718-2.226 10.215-5.695 1.8-2.5 2.484-5.207.62-8.207.774-.515 1.344-.851 1.868-1.246 1.812-1.371 3.367-2.926 3.793-5.309.414-2.347-.504-4.093-2.793-4.824M60.71 54.672h18.661c-.246.746-.375 1.203-.55 1.644-.329.832-.688 1.653-1.051 2.524H49.668c.523-1.426 29.613-20.867 36.23-25.473h4.606c4.883 8.336 9.781 16.703 14.719 25.13-2.012.538-12.98.675-17.164.265L77.793 42.07c-5.856 4.106-11.55 8.106-17.25 12.102q.084.25.168.5M165.305 33.305c-.692 1.547-1.246 2.8-1.88 4.222h-2.546c-4.555 0-9.11.082-13.656-.035-2.618-.066-4.621.906-5.7 3.176a112 112 0 0 0-4.343 10.496c-.801 2.254.246 3.496 2.664 3.523 4.469.055 8.937.016 13.406.016h2.996c-.621 1.473-1.148 2.73-1.71 4.055-.645.066-1.208.172-1.766.172-7.618.011-15.23.02-22.84-.004a9.7 9.7 0 0 1-2.446-.317c-3.183-.843-4.785-2.75-4.757-6.054.011-1.7.343-3.45.835-5.082 1.09-3.637 3.192-6.711 5.918-9.317 3.348-3.195 7.204-5.031 12.024-4.902 7.027.191 14.066.05 21.101.05z" style="stroke:none;fill-rule:evenodd;fill:#292e79;fill-opacity:1"/><g clip-path="url(#a)"><path d="M172.523 12.95C134.88 14.546 44.031 20.18 24.07 14.93c-2.41.976-4.175 1.863-5.398 2.668 16.492 2.097 60.21 1.507 153.851-4.649" style="stroke:none;fill-rule:nonzero;fill:#3f4ca8;fill-opacity:1"/></g><path d="M51.012 0C30.73 5.203-1.773 13.484 15.043 17.016c2.227-.84 4.785-1.696 7.543-2.547C15.89 12.008 22.28 7.555 51.012 0" style="stroke:none;fill-rule:nonzero;fill:#3f4ca8;fill-opacity:1"/><path d="M47.457 7.684c-7.656 1.964-17.043 4.367-24.871 6.785.441.164.93.316 1.484.46 4.98-2.019 12.614-4.413 23.387-7.245M18.672 17.598a48 48 0 0 1-3.629-.582C-6.148 25.004 3.438 31.52 168.969 20.633 123.262 22.574-.851 30.46 18.672 17.598" style="stroke:none;fill-rule:nonzero;fill:#242966;fill-opacity:1"/></svg>