<svg xmlns="http://www.w3.org/2000/svg" xml:space="preserve" id="Layer_1" x="0" y="0" version="1.1" viewBox="0 0 200 58.1"><style>.st0{fill:#006b5b}</style><path d="M196.911 14.12v7c0 .6-.4 1-.9 1.2-.9.4-1.9.6-3 .5h-5.6c-1 .1-2-.1-3-.5-.5-.2-.9-.7-.9-1.2v-5.2c0-.6.4-1.1.9-1.3.9-.4 1.9-.6 3-.5zm0-2.4h-9.6q-6.9 0-6.9 4.2v5.3q0 4.2 6.9 4.2h5.8q6.9 0 6.9-4.2V8.82c.1-.4-.1-.7-.4-.9s-.7-.2-1.1-.2-.8.1-1.2.2c-.3.2-.4.6-.4.9zm-18.5-2.9c.1-.4-.1-.7-.4-.9-.4-.2-.8-.2-1.2-.2s-.8 0-1.2.2c-.3.2-.4.6-.4.9v15.5c-.1.4.1.7.4.9.4.2.8.2 1.2.2s.8-.1 1.2-.2c.3-.2.4-.6.4-.9zm-18.5 14.1c-1 .1-2-.1-3-.5-.5-.2-.9-.7-.9-1.2v-1.4c0-.6.4-1.1.9-1.3.9-.4 1.9-.6 3-.5h10.3v3.1c0 .6-.4 1-.9 1.2-.9.4-1.9.6-3 .5h-6.4zm6.5 2.4q6.9 0 6.9-4.2v-5.2q0-4.2-6.9-4.2h-2.4c-.3 0-.6.1-.7.3-.1.3-.2.6-.2.9s0 .6.2.9c.2.2.4.3.7.3h2.3c1-.1 2 .1 3 .4.6.3.9.6.9 1.1h-10.4q-6.9 0-6.9 4.2v1.3q0 4.2 6.9 4.2zm-14.1-13.6c-1.6-.1-3.2.3-4.7 1-1 .7-1.6 1.9-1.6 3.2v8.4c-.1.4.1.7.4.9.4.2.8.2 1.2.2s.8-.1 1.2-.2c.3-.2.4-.6.4-.9v-8.4c0-.5.3-1 .7-1.3.8-.4 1.6-.5 2.5-.5h1.9c.4 0 .6-.1.7-.3.1-.3.2-.6.2-.9s0-.6-.2-.9c-.2-.2-.4-.3-.8-.3zm-24.2 4.2c0-.6.4-1.1.9-1.3.9-.4 1.9-.6 3-.5h5.4c1-.1 2 .1 3 .5.5.2.9.7.9 1.3v1.6h-13.2zm14.7 4q.6.15 1.2-.3c.2-.3.3-.6.3-1v-2.7c.1-1.3-.5-2.5-1.6-3.2-1.6-.8-3.4-1.2-5.2-1h-5.6q-6.9 0-6.9 4.2v5.3q0 4.2 6.9 4.2h2.9c.4 0 .6-.1.7-.3.1-.3.2-.6.2-.9s0-.6-.2-.9c-.1-.2-.3-.3-.7-.3h-2.8c-1 .1-2-.1-3-.5-.5-.2-.9-.7-.9-1.2v-1.2zm-20.1 5.3c.3-.2.4-.6.4-.9v-8.4c.1-1.3-.6-2.5-1.6-3.2-1.4-.8-3-1.1-4.6-1h-2.4c-1.6-.1-3.2.3-4.6 1.2-1.3-.9-2.9-1.3-4.5-1.2h-2.4c-1.6-.1-3.2.3-4.6 1-1.1.7-1.7 1.9-1.6 3.2v8.4c-.1.4.1.7.4.9.4.2.8.2 1.2.2s.8-.1 1.2-.2c.3-.2.4-.6.4-.9v-8.4c0-.5.3-1 .8-1.3.9-.4 1.9-.6 2.9-.5h1.4c.6 0 1.1 0 1.7.1.4.1.7.2 1.1.4q.3.15.6.6c.1.2.2.4.2.7v8.4c0 .3.1.7.4.9.4.2.8.3 1.2.2.4 0 .8-.1 1.2-.2.3-.2.4-.6.4-.9v-8.4c0-.2.1-.5.2-.7q.15-.3.6-.6c.3-.2.7-.3 1.1-.4.6-.1 1.1-.1 1.7-.1h1.4c1-.1 2 .1 2.9.5.5.2.8.7.8 1.3v8.4c-.1.4.1.7.4.9.4.2.8.2 1.2.2-.3.1.1 0 .5-.2m-28.8-7.2c.3 0 .6-.1.8-.3.1-.3.2-.6.2-1 0-.3 0-.7-.2-1-.2-.2-.5-.4-.8-.3h-15.7v-3.1c0-.6.4-1.1 1-1.3 1-.4 2-.6 3.1-.5h3.5c.3 0 .6-.1.7-.3.1-.3.2-.6.2-1 0-.3 0-.7-.2-1-.2-.2-.5-.4-.7-.3h-3.6c-4.8-.1-7.2 1.4-7.2 4.4v8.5q0 4.5 7.2 4.5h11.7c.3 0 .6-.1.8-.3.1-.3.2-.6.2-1 0-.3 0-.7-.2-1-.2-.2-.5-.4-.8-.3h-11.6c-1.1.1-2.1-.1-3.1-.6-.5-.2-.9-.7-1-1.3v-2.8zM175.811 39.12c0 1.1.5 2.1 1.5 2.6 1.4.7 2.9 1.1 4.4 1h5.4c.5 0 1 0 1.6.1.3 0 .7.1 1 .3.2.1.4.2.5.4s.1.3.1.5v.9c0 .2 0 .4-.1.5-.1.2-.3.3-.5.4-.3.1-.7.2-1 .2-.5.1-1.1.1-1.6.1h-10.3c-.3 0-.6.1-.7.3-.1.3-.2.6-.2.9s0 .6.2.9c.2.2.4.3.7.3h9.8c1 0 2.1-.1 3.1-.3.7-.1 1.5-.4 2.1-.7q.75-.45 1.2-1.2c.3-.5.4-1 .4-1.6v-.8c0-1.1-.5-2.1-1.5-2.7-1.5-.8-3.2-1.1-4.9-1h-5.3c-.7 0-1.5-.1-2.1-.3-.4-.1-.7-.5-.7-.9v-.6c0-.4.3-.7.7-.9.6-.3 1.3-.4 2-.3h3.3c.3 0 .6-.1.7-.3.1-.3.2-.6.2-.9s0-.6-.2-.9c-.2-.2-.4-.3-.7-.3h-3.3c-1.5-.1-3 .2-4.3 1-.9.6-1.5 1.6-1.5 2.7zm-17.8-.1c0-.6.4-1.1.9-1.3.9-.4 1.9-.6 3-.5h5.4c1-.1 2 .1 3 .5.5.2.9.7.9 1.3v1.6h-13.2zm14.8 4q.6.15 1.2-.3c.2-.3.3-.6.3-1v-2.8c.1-1.3-.5-2.5-1.6-3.2-1.6-.8-3.4-1.2-5.2-1h-5.6q-6.9 0-6.9 4.2v5.3q0 4.2 6.9 4.2h2.9c.4 0 .6-.1.7-.3.1-.3.2-.6.2-.9s0-.6-.2-.9c-.1-.2-.3-.3-.7-.3h-2.8c-1 .1-2-.1-3-.5-.5-.2-.9-.7-.9-1.2v-1.2zm-36.1 5.3c.3-.2.4-.6.4-.9v-8.4c0-.6.4-1.1.9-1.3.9-.4 1.9-.6 3-.5h5c1-.1 2 .1 3 .5.5.2.9.7.9 1.3v8.4c-.1.4.1.7.4.9.4.2.8.2 1.2.2s.8-.1 1.2-.2c.3-.2.4-.6.4-.9v-8.4q0-4.2-6.9-4.2h-5.3q-6.9 0-6.9 4.2v8.4c-.1.4.1.7.4.9.4.2.8.2 1.2.2.3.1.7 0 1.1-.2m-7.9-14.8c.4.3.9.4 1.5.4.5 0 1-.1 1.5-.4.3-.3.5-.7.4-1.1 0-.4-.1-.8-.4-1.1-.4-.3-.9-.4-1.5-.4-.5 0-1 .1-1.5.4-.3.3-.5.7-.4 1.1-.1.3.1.8.4 1.1m3 2.5c.1-.4-.1-.7-.4-.9-.4-.2-.8-.2-1.2-.2s-.8 0-1.2.2c-.3.2-.4.6-.4.9v11.4c-.1.4.1.7.4.9.4.2.8.2 1.2.2s.8-.1 1.2-.2c.3-.2.4-.6.4-.9zm-5.4-4c.1-.4-.1-.7-.4-.9-.4-.2-.8-.2-1.2-.2s-.8 0-1.2.2c-.3.2-.4.6-.4.9v15.5c-.1.4.1.7.4.9.4.2.8.2 1.2.2s.8-.1 1.2-.2c.3-.2.4-.6.4-.9zm-7.5 2.8c-1.6-.1-3.2.3-4.7 1-1.1.7-1.7 1.9-1.6 3.1v8.4c-.1.4.1.7.4.9.4.2.8.2 1.2.2s.8-.1 1.2-.2c.3-.2.4-.6.4-.9v-8.4c0-.5.3-1 .7-1.3.8-.4 1.6-.5 2.5-.5h1.9c.4 0 .6-.1.7-.3.1-.3.2-.6.2-.9s0-.6-.2-.9c-.1-.2-.3-.3-.7-.3zm-11.4-1.3c.4.3.9.4 1.5.4.5 0 1-.1 1.5-.4.3-.3.5-.7.4-1.1 0-.4-.1-.8-.4-1.1-.4-.3-.9-.4-1.5-.4-.5 0-1 .1-1.5.4-.3.3-.5.7-.4 1.1-.1.3.1.8.4 1.1m3 2.5c.1-.4-.1-.7-.4-.9-.4-.2-.8-.2-1.2-.2s-.8 0-1.2.2c-.3.2-.4.6-.4.9v11.4c-.1.4.1.7.4.9.4.2.8.2 1.2.2s.8-.1 1.2-.2c.3-.2.4-.6.4-.9zm-17.1-2.2 5.1 7.5h-10zm-1.2-2.7c-.3.1-.5.4-.7.6l-10 15.1c-.1.2-.2.3-.2.5s.1.4.2.5c.1.2.3.3.4.4l.6.3c.2.1.4.1.6.1s.4 0 .6-.1.3-.2.4-.4l2.7-4.2h13.5l2.9 4.2c.1.2.3.3.5.4s.4.1.6.1.4 0 .6-.1l.6-.3c.2-.1.3-.2.4-.4s.2-.3.2-.5-.1-.4-.2-.6l-10.6-15c-.2-.3-.4-.5-.7-.6-.4-.2-.8-.2-1.2-.2-.4-.1-.8 0-1.2.2M64.4 22.5c-.2-7.4-3.7-14.5-9.6-19.1-.8-.6-1.5-1.2-2.3-1.7 2.1 1.6 3.8 3.6 4.9 5.9 1.3 2.4 2.2 5.1 2.6 7.8.7 6.5-.8 13-4.3 18.5-2.8 4.6-7.7 8.3-12.5 10.7-6.4 3.1-15.6 4-21.5-.8-4.9-4-6.1-10.5-5.1-16.5.1-.8.3-1.6.5-2.4-9.2 9.4-7.6 23.4 1.6 29.6 7.4 5 17 4.6 24.7.6 4.7-2.4 8.9-5.8 12.3-9.9 5.1-6.3 8.8-14.4 8.7-22.7" class="st0"/><path d="m34.8 7.4 3.6-2 2.2-1.2c.9-.5 1.9-1 2.9-1.3.6-.2 1.7-.4 2.1.2 1.1 1.8-5.7 6.8-7.6 8.8l-2 23c-2.3 2.3-3.8 2.2-3.8 2.2-.8-12.6-4.6-18.5-4.6-18.5-3.9 2.1-5.9 7.9-5.9 7.9-5 14.5 11.1 20 24.3 11.1C56.7 30.9 59.1 12 49.4 4.4c-7.8-6.3-21.1-5.4-29-.9l14.3 3.9z" class="st0"/><path d="M24.2 13.8C21.1 10 14.4 7 14.4 7c-25.7 19.4-11.4 47.4.1 50.7-17.9-15-4.3-38.3 9.7-43.9" class="st0"/></svg>