<svg xmlns="http://www.w3.org/2000/svg" width="176pt" height="53.68" viewBox="0 0 176 40.26"><path d="M158.95 13.61v10.636c0 5.277 2.788 8.078 7.98 8.078 5.23 0 9.07-2.972 9.07-5.242 0-1.57-.7-2.484-1.484-2.484-.957 0-1.786.87-2.875.87-1.57 0-2.313-.87-2.313-2.616v-8.024c0-1.09.348-1.047 1.438-1.09l3.402-.129c1.48-.046 1.785-.132 1.785-1.746V9.945c0-1.18-.215-1.222-1.48-1.222h-4.84V6.719c0-2.617-.086-3.403-2.051-3.403-2.094 0-4.883 1.961-9.508 5.188-2.004 1.398-2.613 1.527-2.613 3.184 0 1.964.305 1.832 3.488 1.921m-6.63 7.5c1.7 0 2.442-.876 2.442-3.36 0-5.32-4.407-9.594-10.946-9.594-4.054 0-7.847 1.918-10.203 5.235-1.484 2.09-2.265 4.535-2.265 7.02 0 6.714 5.054 12 12.254 12 2.875 0 5.449-.794 7.671-2.278 1.832-1.219 2.747-2.613 2.747-3.703 0-1.356-.829-2.27-1.829-2.27-1.136 0-2.836 1.918-5.629 1.918-3.093 0-5.449-2.398-5.449-4.36 0-.523.39-.609 1.352-.609Zm-9.16-4.364h-.562c-1.223 0-1.618-.086-1.618-1.219 0-1.746 1.356-3.097 2.836-3.097 1.442 0 2.532 1.09 2.532 2.793 0 1.48-.352 1.523-2.746 1.523Zm-28.035 4.93c0 3.226-1.18 4.926-3.012 4.926-.695 0-1.175-.48-1.175-1.09 0-.828.304-1.657.304-2.442 0-2.793-2.094-4.882-5.101-4.882-2.922 0-5.059 2.18-5.059 5.449 0 5.234 4.664 8.945 12.164 8.945 6.367 0 10.426-2.535 11.992-7.418.961-2.969.57-8.285.832-15.742.086-2.227.086-2.922 1.528-3.75 1.043-.61 1.699-.918 1.699-2.488 0-2.528-2.703-3.184-8.813-3.184-6.058 0-8.894.875-8.894 3.621 0 1.484.785 1.785 1.879 2.27 1.48.609 1.656 1.043 1.656 3.53Zm-35.41 3.05c1.96 4.274 3.27 7.118 3.27 8.817 0 .96-.438 1.484-1.09 1.484-.961 0-.7-1.398-1.438-3.011-.656-1.446-1.922-2.23-3.488-2.23-2.137 0-4.059 1.874-4.059 4.366 0 3.535 2.793 6.11 7.242 6.11 4.27 0 7.325-2.274 9.852-6.805 2.527-4.633 3.664-10.3 5.715-15.84.914-2.394 1.222-3.27 3.008-3.965 1.308-.48 2.136-.828 2.136-2.488 0-1.785-1.57-2.66-4.968-2.66-3.668 0-5.54 1.004-5.54 2.617 0 1.309 1.743 1.79 1.743 2.879 0 .172-.172 1.223-.828 2.617-.567 1.266-1.047 1.918-1.832 1.918-.915 0-1.395-.652-1.918-1.965-.567-1.39-.872-2.308-.872-2.789 0-.785 1.438-.87 1.438-2.484 0-2.313-2.266-2.836-7.063-2.836-5.8 0-8.765 1.309-8.765 3.621 0 1.57 1.004 1.828 2.004 2.355 1.222.61 1.484 1.657 2.093 3.008Zm-8.418-.085c0-3.446-1.961-5.496-6.106-7.59-2.351-1.176-3.836-1.613-3.836-2.746 0-.653.61-1.18 1.31-1.18 1.394 0 2.093 1.223 3.269 2.27.785.699 1.527 1.046 2.398 1.046 1.527 0 2.531-1.003 2.531-2.53 0-2.79-2.574-5.755-4.23-5.755-.7 0-1.528.7-2.399.7-.914 0-2.226-.57-3.836-.57-5.015 0-8.941 3.577-8.941 7.679 0 3.137 1.961 5.84 5.711 7.715 1.922.96 3.316 1.18 3.316 2.617 0 .48-.48.957-1.18.957-.956 0-2.093-.738-3.445-2.18-.957-1-1.656-1.918-3.05-1.918-1.266 0-1.875.918-1.875 2.66 0 3.141 2.66 6.2 4.23 6.2.695 0 1.395-.528 2.047-.528.656 0 2.227.79 4.797.79 5.672 0 9.289-3.278 9.289-7.637m-33.84-1.965c0 3.012-.086 4.23-1.613 4.23-1.133 0-1.742-.87-1.742-2.574 0-1.785.828-2.789 2.222-2.789 1.004 0 1.133.086 1.133 1.133m.043-4.403c-1.437-.261-2.57-.39-3.488-.39-5.45 0-9.59 3.226-9.59 7.367 0 4.012 2.965 6.855 7.715 6.855 2.183 0 3.445-.53 4.972-1.62.438-.31.743-.657 1.133-.657.48 0 .918.742 1.746 1.527.739.707 1.614.922 2.836.922 4.227 0 7.324-2.886 7.324-4.976 0-.742-.437-1.309-1.308-1.528-1.266-.347-1.309-.957-1.309-4.144v-.652c0-1.442.133-3.141.133-5.059 0-5.102-3.664-7.805-10.598-7.805-6.671 0-10.902 2.703-10.902 5.668 0 1.656 1.176 2.836 2.703 2.836 1.438 0 2.574-.742 3.84-2.27 1-1.222 1.656-2.312 2.965-2.312 1.394 0 1.918 1.266 1.918 4.059 0 .652-.043 1.351-.09 2.18M20.973 21.11c1.703 0 2.445-.875 2.445-3.359 0-5.32-4.406-9.594-10.945-9.594-4.055 0-7.852 1.918-10.207 5.235C.786 15.48 0 17.926 0 20.41c0 6.714 5.059 12 12.254 12 2.879 0 5.453-.794 7.676-2.278 1.832-1.219 2.746-2.613 2.746-3.703 0-1.356-.828-2.27-1.832-2.27-1.133 0-2.836 1.918-5.625 1.918-3.098 0-5.45-2.398-5.45-4.36 0-.523.391-.609 1.352-.609Zm-9.157-4.363h-.566c-1.223 0-1.613-.086-1.613-1.219 0-1.746 1.351-3.097 2.836-3.097 1.437 0 2.527 1.09 2.527 2.793 0 1.48-.348 1.523-2.746 1.523z" style="stroke:none;fill-rule:evenodd;fill:#ed5a1e;fill-opacity:1"/></svg>