<?xml version="1.0" encoding="UTF-8"?>
<svg xmlns="http://www.w3.org/2000/svg" xmlns:xlink="http://www.w3.org/1999/xlink" width="176pt" height="49.79pt" viewBox="0 0 176 49.79" version="1.1">
<defs>
<clipPath id="clip1">
  <path d="M 82 24 L 101 24 L 101 49.789062 L 82 49.789062 Z M 82 24 "/>
</clipPath>
</defs>
<g id="surface1">
<path style=" stroke:none;fill-rule:nonzero;fill:rgb(22.154236%,20.736694%,21.089172%);fill-opacity:1;" d="M 61.304688 27.636719 C 61.304688 29.078125 61.304688 30.367188 61.304688 31.757812 C 60.171875 31.902344 59.054688 31.8125 57.945312 31.828125 C 56.820312 31.84375 55.691406 31.832031 54.566406 31.832031 C 53.445312 31.832031 52.320312 31.832031 51.210938 31.832031 C 51.023438 32.617188 50.976562 36.679688 51.132812 38.378906 C 52.371094 38.382812 53.625 38.386719 54.878906 38.390625 C 56.109375 38.394531 57.339844 38.390625 58.570312 38.390625 C 59.828125 38.390625 61.085938 38.390625 62.390625 38.390625 C 62.390625 39.8125 62.390625 41.136719 62.390625 42.457031 C 61.34375 42.675781 47.695312 42.621094 46.683594 42.386719 C 46.683594 33.933594 46.683594 25.46875 46.683594 17.007812 C 47.539062 16.835938 59.503906 16.765625 62.066406 16.917969 C 62.261719 17.613281 62.300781 19.664062 62.125 21.074219 C 60.324219 21.074219 58.507812 21.074219 56.691406 21.074219 C 54.863281 21.074219 53.035156 21.074219 51.21875 21.074219 C 51.015625 21.855469 50.960938 25.472656 51.113281 27.554688 C 51.925781 27.726562 52.765625 27.613281 53.59375 27.628906 C 54.4375 27.652344 55.28125 27.636719 56.128906 27.636719 C 56.972656 27.636719 57.816406 27.636719 58.660156 27.636719 C 59.5 27.636719 60.339844 27.636719 61.304688 27.636719 "/>
<path style=" stroke:none;fill-rule:nonzero;fill:rgb(21.984863%,20.565796%,20.918274%);fill-opacity:1;" d="M 16.03125 32.691406 C 14.71875 29.28125 13.4375 25.953125 12.058594 22.378906 C 11.539062 23.742188 11.125 24.847656 10.699219 25.945312 C 10.257812 27.089844 9.773438 28.214844 9.363281 29.367188 C 8.972656 30.457031 8.417969 31.5 8.195312 32.691406 C 10.84375 32.691406 13.386719 32.691406 16.03125 32.691406 Z M 9.835938 16.878906 C 10.183594 16.878906 10.5 16.878906 10.816406 16.878906 C 11.9375 16.878906 13.0625 16.878906 14.296875 16.878906 C 17.601562 25.382812 20.910156 33.894531 24.273438 42.550781 C 22.710938 42.59375 21.292969 42.664062 19.800781 42.421875 C 19.082031 40.570312 18.355469 38.714844 17.617188 36.820312 C 13.957031 36.820312 10.308594 36.820312 6.5625 36.820312 C 5.691406 38.597656 5.121094 40.554688 4.300781 42.425781 C 2.863281 42.742188 1.441406 42.511719 0 42.597656 C 0.140625 41.660156 5.558594 27.53125 9.835938 16.878906 "/>
<g clip-path="url(#clip1)" clip-rule="nonzero">
<path style=" stroke:none;fill-rule:nonzero;fill:rgb(21.984863%,20.565796%,20.918274%);fill-opacity:1;" d="M 86.578125 31.238281 C 86.578125 32.789062 86.585938 34.402344 86.574219 36.015625 C 86.570312 36.519531 86.800781 36.894531 87.125 37.226562 C 88.574219 38.710938 90.335938 39.144531 92.328125 38.695312 C 93.921875 38.339844 95.039062 37.363281 95.5625 35.835938 C 96.058594 34.375 96.042969 32.871094 95.390625 31.425781 C 95.117188 30.8125 94.714844 30.304688 94.195312 29.855469 C 92.417969 28.332031 88.277344 28.347656 86.578125 31.238281 Z M 82.363281 25.199219 C 82.515625 25.179688 82.683594 25.136719 82.851562 25.136719 C 83.96875 25.128906 85.085938 25.132812 86.300781 25.132812 C 86.300781 25.867188 86.300781 26.515625 86.300781 27.28125 C 86.53125 27.089844 86.644531 27.011719 86.742188 26.914062 C 88.226562 25.457031 90.023438 24.847656 92.085938 24.839844 C 95.007812 24.828125 97.21875 26.113281 98.824219 28.472656 C 99.683594 29.730469 100.121094 31.15625 100.296875 32.695312 C 100.589844 35.226562 100.054688 37.535156 98.507812 39.523438 C 96.390625 42.246094 93.585938 43.347656 90.136719 42.703125 C 89.042969 42.5 88.054688 42.113281 87.144531 41.492188 C 87 41.394531 86.839844 41.324219 86.566406 41.183594 C 86.566406 44.09375 86.566406 46.917969 86.566406 49.789062 C 85.113281 49.789062 83.757812 49.789062 82.40625 49.789062 C 82.234375 48.992188 82.191406 26.472656 82.363281 25.199219 "/>
</g>
<path style=" stroke:none;fill-rule:nonzero;fill:rgb(21.984863%,20.565796%,20.918274%);fill-opacity:1;" d="M 154.503906 32.226562 C 154.257812 30.242188 152.578125 28.816406 150.5625 28.703125 C 148.238281 28.570312 146.042969 30.164062 145.8125 32.226562 C 148.679688 32.226562 151.550781 32.226562 154.503906 32.226562 Z M 158.703125 35.453125 C 154.40625 35.453125 150.167969 35.453125 145.839844 35.453125 C 146.023438 36.582031 146.652344 37.304688 147.425781 37.902344 C 148.214844 38.515625 149.121094 38.839844 150.144531 38.894531 C 151.992188 38.988281 153.703125 38.648438 155.214844 37.523438 C 155.324219 37.441406 155.453125 37.390625 155.65625 37.28125 C 156.390625 38.222656 157.117188 39.148438 157.886719 40.125 C 157.671875 40.492188 157.34375 40.734375 157 40.96875 C 155.21875 42.183594 153.277344 42.871094 151.09375 42.875 C 149.820312 42.878906 148.574219 42.796875 147.355469 42.410156 C 143.800781 41.277344 141.527344 38.09375 141.398438 34.4375 C 141.335938 32.722656 141.550781 31.066406 142.375 29.550781 C 143.972656 26.609375 146.40625 24.953125 149.808594 24.855469 C 150.9375 24.820312 152.046875 24.882812 153.132812 25.25 C 155.085938 25.910156 156.5625 27.125 157.554688 28.925781 C 158.652344 30.914062 159.0625 33.191406 158.703125 35.453125 "/>
<path style=" stroke:none;fill-rule:nonzero;fill:rgb(21.984863%,20.565796%,20.918274%);fill-opacity:1;" d="M 119.621094 28.847656 C 117.171875 28.890625 115.730469 29.714844 114.90625 31.496094 C 114.242188 32.929688 114.238281 34.382812 114.777344 35.886719 C 115.660156 38.351562 118.582031 39.554688 121.023438 38.46875 C 122.683594 37.734375 123.476562 36.355469 123.800781 34.632812 C 124.265625 32.175781 122.546875 28.691406 119.621094 28.847656 Z M 119.1875 24.835938 C 122.769531 24.910156 125.546875 26.421875 127.269531 29.601562 C 129.53125 33.785156 128.148438 38.976562 123.96875 41.546875 C 120.230469 43.84375 115.289062 43.195312 112.3125 39.964844 C 110.621094 38.128906 109.847656 35.925781 109.949219 33.417969 C 110.054688 30.8125 111.113281 28.664062 113.070312 26.992188 C 114.8125 25.503906 116.859375 24.753906 119.1875 24.835938 "/>
<path style=" stroke:none;fill-rule:nonzero;fill:rgb(21.984863%,20.565796%,20.918274%);fill-opacity:1;" d="M 80.964844 42.429688 C 79.789062 42.667969 76.628906 42.625 75.636719 42.382812 C 74.382812 40.535156 73.101562 38.652344 71.742188 36.652344 C 70.355469 38.613281 69.027344 40.492188 67.714844 42.347656 C 66.707031 42.632812 63.78125 42.683594 62.703125 42.414062 C 64.890625 39.421875 67.054688 36.464844 69.25 33.464844 C 67.191406 30.714844 65.152344 27.996094 63.042969 25.183594 C 64.886719 25.183594 66.59375 25.183594 68.367188 25.183594 C 69.535156 26.898438 70.714844 28.628906 71.957031 30.445312 C 73.238281 28.625 74.460938 26.886719 75.679688 25.15625 C 77.304688 25.15625 78.882812 25.15625 80.613281 25.15625 C 79.605469 26.6875 78.539062 28.046875 77.523438 29.4375 C 76.511719 30.828125 75.492188 32.210938 74.417969 33.675781 C 76.578125 36.5625 78.734375 39.445312 80.964844 42.429688 "/>
<path style=" stroke:none;fill-rule:nonzero;fill:rgb(22.154236%,20.736694%,21.089172%);fill-opacity:1;" d="M 103.019531 15.65625 C 104.488281 15.65625 105.882812 15.65625 107.328125 15.65625 C 107.328125 24.609375 107.328125 33.523438 107.328125 42.554688 C 106.585938 42.566406 105.894531 42.578125 105.203125 42.585938 C 104.503906 42.589844 103.808594 42.585938 103.128906 42.585938 C 102.925781 41.644531 102.839844 18.882812 103.019531 15.65625 "/>
<path style=" stroke:none;fill-rule:nonzero;fill:rgb(22.154236%,20.736694%,21.089172%);fill-opacity:1;" d="M 130.980469 25.179688 C 132.308594 25.179688 133.628906 25.179688 135.042969 25.179688 C 135.042969 25.949219 135.042969 26.710938 135.042969 27.675781 C 135.945312 26.589844 136.734375 25.695312 137.917969 25.273438 C 139.085938 24.859375 140.230469 24.824219 141.472656 25.273438 C 141.375 26.722656 140.882812 28.070312 140.65625 29.527344 C 140.386719 29.5 140.1875 29.464844 139.992188 29.457031 C 139.15625 29.425781 138.300781 29.285156 137.484375 29.402344 C 136.550781 29.539062 135.859375 30.183594 135.300781 31.070312 C 135.300781 32.925781 135.300781 34.855469 135.300781 36.789062 C 135.300781 38.679688 135.300781 40.574219 135.300781 42.527344 C 133.832031 42.527344 132.441406 42.527344 131.019531 42.527344 C 131.019531 42.527344 130.992188 42.507812 130.96875 42.480469 C 130.945312 42.453125 130.917969 42.425781 130.917969 42.394531 C 130.90625 36.769531 130.894531 31.144531 130.890625 25.519531 C 130.890625 25.421875 130.9375 25.324219 130.980469 25.179688 "/>
<path style=" stroke:none;fill-rule:nonzero;fill:rgb(21.984863%,20.565796%,20.918274%);fill-opacity:1;" d="M 44.542969 25.300781 C 44.230469 26.730469 43.933594 28.117188 43.640625 29.472656 C 42.710938 29.417969 41.851562 29.332031 40.988281 29.328125 C 40.046875 29.320312 39.324219 29.839844 38.703125 30.480469 C 38.296875 30.902344 38.222656 31.460938 38.226562 32.050781 C 38.242188 35.144531 38.234375 38.242188 38.230469 41.335938 C 38.230469 41.679688 38.230469 42.027344 38.230469 42.339844 C 37.464844 42.628906 35.234375 42.6875 33.976562 42.464844 C 33.976562 36.726562 33.976562 30.980469 33.976562 25.183594 C 35.3125 25.183594 36.597656 25.183594 37.96875 25.183594 C 37.96875 25.980469 37.96875 26.742188 37.96875 27.75 C 39.703125 25.375 41.746094 24.421875 44.542969 25.300781 "/>
<path style=" stroke:none;fill-rule:nonzero;fill:rgb(22.322083%,20.909119%,21.260071%);fill-opacity:1;" d="M 30.003906 42.535156 C 28.585938 42.535156 27.226562 42.535156 25.871094 42.535156 C 25.839844 42.507812 25.804688 42.492188 25.785156 42.464844 C 25.761719 42.4375 25.742188 42.40625 25.738281 42.375 C 25.722656 42.238281 25.699219 42.097656 25.699219 41.957031 C 25.699219 36.402344 25.699219 30.847656 25.699219 25.308594 C 26.472656 25.085938 29.046875 25.066406 29.976562 25.261719 C 30.140625 26.027344 30.179688 41.273438 30.003906 42.535156 "/>
<path style=" stroke:none;fill-rule:nonzero;fill:rgb(17.687988%,20.158386%,43.415833%);fill-opacity:1;" d="M 158.78125 0.128906 C 158.101562 3.539062 157.421875 6.953125 156.726562 10.4375 C 151.890625 12.515625 147.046875 14.59375 142.234375 16.660156 C 147.730469 11.167969 153.230469 5.671875 158.78125 0.128906 "/>
<path style=" stroke:none;fill-rule:nonzero;fill:rgb(17.687988%,20.158386%,43.415833%);fill-opacity:1;" d="M 175.480469 16.648438 C 170.691406 14.597656 165.910156 12.546875 161.019531 10.453125 C 160.328125 7.019531 159.632812 3.550781 158.941406 0.101562 C 164.464844 5.628906 169.96875 11.136719 175.480469 16.648438 "/>
<path style=" stroke:none;fill-rule:nonzero;fill:rgb(94.883728%,73.922729%,15.426636%);fill-opacity:1;" d="M 162.109375 0.203125 C 162.417969 0.25 162.734375 0.265625 163.03125 0.347656 C 166.144531 1.210938 169.253906 2.082031 172.359375 2.953125 C 173.425781 3.253906 174.488281 3.554688 175.546875 3.867188 C 175.710938 3.914062 175.851562 4.03125 176 4.117188 C 176 5.472656 176 6.796875 176 8.207031 C 175.410156 7.941406 174.855469 7.765625 174.382812 7.464844 C 172.523438 6.28125 170.605469 5.214844 168.65625 4.183594 C 166.785156 3.191406 165.003906 2.03125 163.167969 0.96875 C 162.785156 0.746094 162.28125 0.710938 162.117188 0.199219 L 162.109375 0.203125 "/>
<path style=" stroke:none;fill-rule:nonzero;fill:rgb(94.883728%,73.922729%,15.426636%);fill-opacity:1;" d="M 155.949219 0.191406 C 155.496094 0.429688 155.03125 0.65625 154.589844 0.910156 C 154.167969 1.152344 153.773438 1.433594 153.355469 1.675781 C 152.753906 2.019531 152.136719 2.332031 151.53125 2.675781 C 149.875 3.625 148.222656 4.574219 146.574219 5.539062 C 145.285156 6.296875 144.015625 7.085938 142.722656 7.839844 C 142.507812 7.964844 142.226562 7.976562 141.894531 8.058594 C 141.894531 6.679688 141.894531 5.429688 141.894531 4.046875 C 143.382812 3.589844 144.921875 3.101562 146.472656 2.652344 C 148.0625 2.191406 149.675781 1.8125 151.257812 1.3125 C 152.78125 0.832031 154.335938 0.4375 155.875 0 C 155.898438 0.0664062 155.925781 0.128906 155.949219 0.191406 "/>
<path style=" stroke:none;fill-rule:nonzero;fill:rgb(22.154236%,20.736694%,21.089172%);fill-opacity:1;" d="M 30.992188 19.585938 C 30.972656 21.054688 29.886719 22.699219 27.945312 22.734375 C 26.125 22.765625 24.742188 21.496094 24.753906 19.542969 C 24.761719 17.648438 26.265625 16.542969 27.773438 16.492188 C 29.417969 16.4375 30.902344 17.757812 30.992188 19.585938 "/>
<path style=" stroke:none;fill-rule:nonzero;fill:rgb(68.681335%,68.110657%,68.252563%);fill-opacity:1;" d="M 162.117188 0.199219 C 162 0.179688 161.882812 0.164062 161.769531 0.148438 C 161.785156 0.105469 161.804688 0.0625 161.820312 0.0195312 C 161.917969 0.0820312 162.015625 0.144531 162.109375 0.203125 L 162.117188 0.199219 "/>
</g>
</svg>
