<svg xmlns="http://www.w3.org/2000/svg" width="176pt" height="43.893" viewBox="0 0 176 32.92"><defs><clipPath id="a"><path d="M87 8h16v24.922H87Zm0 0"/></clipPath></defs><path d="M170.969 1.988C170.78.16 168.832-.508 166.684.41a6.4 6.4 0 0 0-2.543 2c.097-.832-.137-1.566-.735-2-1.18-.855-3.328-.222-4.793 1.367-.508.559-2.175 2.57-2.261 5.524-.036 1.43.597 4.597 2.683 6.781 5.563-2.098 8.555-5.316 9.7-6.645 1.316-1.539 1.874-2.89 2.109-3.886.176-.781.148-1.34.125-1.563m-14.031 13.313c-.758 1.265-2.833 3.3-4.473 4.355-3.414 2.188-5.871 2.336-7.102 1.555a2 2 0 0 1-.386-.313c-.957-1.003-.793-2.793.324-4.257.547-.72 1.254-1.23 1.937-1.465-.535-.25-.894-.77-.968-1.504-.149-1.465.957-3.39 2.484-4.172 1.34-.684 4.234-1.367 6.355 1.8.832 1.231 1.578 2.981 1.828 4m18.875 2.011c-.633 2.036-2.747 3.95-5.278 4.344.406.633.594 1.418.496 2.285-.273 2.36-2.535 4.262-4.957 4.286-1.637.011-3.86-.696-5.426-3.168-1.402-2.196-1.601-5.688-1.503-6.743-1.711 1.75-2.782 3.454-3.29 4.633-1.14 2.668-1.578 5.922-1.55 7.45 0 0-.211.199-.41.238-.633-.114-1.18-.348-1.59-.711-.496-.446-.61-.867-.61-.867.758-3.79 1.961-6.149 3.766-8.844 2.418-3.637 6.156-5.883 10.59-7.238 3.203-.98 6.531-1.192 8.816.746 1.23 1.02 1.305 2.484.946 3.59" style="stroke:none;fill-rule:nonzero;fill:#75c92c;fill-opacity:1"/><path d="M168.734 7.438c1.317-1.54 1.875-2.891 2.11-3.887l.039-.16c-.274 1.105-2.61 3.96-5.836 6.394-3.356 2.52-5.266 3.79-6 4.285 5.55-2.086 8.543-5.304 9.687-6.632M152.465 19.645c1.64-1.055 3.715-3.09 4.472-4.36-1.464 1.39-3.625 3.465-7.34 5.106-1.835.78-3.636 1.082-4.234.793 1.23.796 3.688.648 7.102-1.54M175.813 17.313c.085-.274.148-.56.171-.86-.172 1.18-.968 2.61-2.234 3.39-1.117.696-2.41 1.157-3.875 1.032.234.223.422.41.66.77 2.531-.383 4.645-2.297 5.278-4.332" style="stroke:none;fill-rule:nonzero;fill:#40b63c;fill-opacity:1"/><path d="M159.492 16.07c-.012.012-.023.012-.023.024 0-.012.011-.024.023-.024" style="stroke:none;fill-rule:nonzero;fill:#f1ef1d;fill-opacity:1"/><path d="M159.469 16.082c-3.985 2.855-5.34 7.996-5.563 14.54.2-.036.41-.235.41-.235-.027-1.528.41-4.77 1.551-7.45.512-1.18 1.578-2.882 3.293-4.632.121-1.168.262-1.852.348-2.235-.028 0-.04.012-.04.012" style="stroke:none;fill-rule:nonzero;fill:#40b63c;fill-opacity:1"/><g clip-path="url(#a)"><path d="M98.996 20.277c-.484.809-1.344 1.602-2.41 1.84 0 0-2.012-.57-3.316-1.02-1.762-.609-2.582-1.75-2.582-3.6 0-2.93 2.347-4.27 4.53-4.27 2.177 0 4.509 1.363 4.509 4.257 0 1.18-.286 2.051-.73 2.793m.457 2.66c2.313-1.167 3.145-3.539 3.145-5.44 0-2.122-.649-3.798-1.903-5.028a4 4 0 0 0-.347-.313l1.988-3.312h-2.941l-1.27 2.12a9.4 9.4 0 0 0-2.918-.472c-1.852 0-3.7.66-5.066 1.813-1.082.922-2.371 2.558-2.371 5.191 0 4.57 3.44 5.688 6.765 6.781l1.852.582c1.972.586 3.168.946 3.168 2.496 0 .711-.25 1.317-.746 1.778-.77.734-2.125 1.129-3.614 1.043-1.304-.074-4.074-.336-4.422-3.18h-2.855c0 3.625 3.242 5.926 7.266 5.926 2.582 0 4.492-.734 5.773-1.977a4.92 4.92 0 0 0 1.54-3.625c.023-1.988-1.056-3.539-3.044-4.382" style="stroke:none;fill-rule:nonzero;fill:#246172;fill-opacity:1"/></g><path d="M65.938 10.965h2.93v14.48h-2.93zM65.766 7.352c0-.918.605-1.579 1.652-1.579 1.016 0 1.625.66 1.625 1.579 0 .968-.61 1.628-1.625 1.628-1.059-.015-1.652-.66-1.652-1.628M6.246 18.105l3.266-7.648 3.265 7.648ZM11.051 6.72H8.008L0 25.445h3.156l2.035-4.757h8.68l2.035 4.757h3.156zM54.563 6.719h-3.079v18.726h12.668v-2.582h-9.59zM123.246 11.215c-1.562.695-2.422 1.95-2.48 3.402-.164 3.39 2.43 4.184 5.91 4.668 2.765.387 4.355.797 4.281 2.188-.023.422-.371.953-.883 1.203-1.86.93-6.594.433-8.812-.946l-.61 2.473c1.34.867 3.352 1.379 5.266 1.465 2.07.098 4.172-.05 5.687-.77 1.477-.707 2.247-2.023 2.31-3.425.148-3.328-2.958-4.051-5.86-4.559-3.305-.57-4.508-.906-4.422-2.336.035-.668.656-1.105 1.152-1.254 1.8-.558 5.59-.187 7.813 1.031l.582-2.496c-2.89-1.453-7.278-1.824-9.934-.644M78.605 10.703c-3.214 0-5.378.461-6.382.746l-.114.04v13.956h2.97v-11.91c1.007-.234 1.8-.308 3.378-.308 2.422 0 4.047.609 4.047 3.574v8.633h2.93v-8.497c-.012-4.12-2.309-6.234-6.829-6.234M115.09 22.898c-.957.211-1.828.286-3.38.286-2.495 0-4.05-.594-4.05-3.551v-8.656h-2.93v8.52c0 4.124 2.297 6.222 6.82 6.222 3.028 0 4.919-.375 6.372-.746l.121-.024V10.977h-2.969v11.921zM42.629 10.703c-1.934 0-3.55.375-4.629 1.145-1.617 1.14-2.25 2.867-2.25 5.101v8.496h2.93v-8.632c0-1.055.215-1.813.586-2.344.668-.985 1.898-1.23 3.464-1.23.73 0 1.563.085 2.383.245l.586-2.468a15.3 15.3 0 0 0-3.07-.313M26.277 13.238c1.75 0 3.825.633 3.973 3.551h-7.91c.113-2.32 1.465-3.55 3.937-3.55m6.93 3.551c-.352-3.984-2.723-6.07-6.93-6.07-4.558 0-6.98 2.457-6.98 7.125v.734c0 4.668 2.672 7.129 7.71 7.129 2.052 0 4-.3 5.665-.871l-.621-2.457-.137.047c-.957.363-2.746.758-4.906.758-2.11 0-4.617-.668-4.68-3.801h10.914v-1.528c0-.382-.012-.73-.035-1.066" style="stroke:none;fill-rule:nonzero;fill:#246172;fill-opacity:1"/></svg>