<?xml version="1.0" encoding="UTF-8"?>
<svg xmlns="http://www.w3.org/2000/svg" xmlns:xlink="http://www.w3.org/1999/xlink" width="176pt" height="59pt" viewBox="0 0 176 59" version="1.1">
<g id="surface1">
<rect x="0" y="0" width="176" height="59" style="fill:rgb(85.169983%,11.747742%,14.659119%);fill-opacity:1;stroke:none;"/>
<path style=" stroke:none;fill-rule:nonzero;fill:rgb(100%,100%,100%);fill-opacity:1;" d="M 25.886719 14.59375 L 11.042969 14.59375 C 11.042969 14.59375 13.625 16.796875 13.554688 21.285156 L 13.625 39.269531 C 13.625 43.78125 15.429688 43.90625 15.429688 43.90625 L 30.054688 43.90625 C 33.367188 43.90625 34.519531 41.535156 34.519531 40.253906 L 34.570312 38.53125 C 34.570312 38.53125 33.519531 40.695312 29.152344 40.695312 C 28.453125 40.695312 23.046875 40.6875 22.277344 40.6875 C 20.105469 40.6875 20.273438 38.882812 20.078125 37.347656 L 20.078125 27.480469 C 20.078125 27.480469 21.585938 27.445312 23.289062 27.445312 C 23.863281 27.445312 24.480469 27.414062 25.125 27.414062 C 26.617188 27.414062 28.265625 27.554688 29.875 28.464844 C 29.875 28.464844 28.21875 24.464844 23.277344 24.464844 L 20.078125 24.464844 L 20.078125 21.304688 C 20.078125 21.304688 20.078125 18.546875 19.40625 17.734375 C 19.40625 17.734375 23.660156 17.75 23.949219 17.75 C 27.886719 17.75 30.925781 17.691406 34.085938 19.796875 C 34.085938 19.796875 33.480469 14.59375 25.886719 14.59375 "/>
<path style=" stroke:none;fill-rule:nonzero;fill:rgb(100%,100%,100%);fill-opacity:1;" d="M 49.054688 20.382812 C 44.308594 20.382812 43.101562 24.90625 43.101562 24.90625 C 43.101562 24.90625 42.992188 20.542969 39.171875 20.542969 L 35.4375 20.550781 C 35.4375 20.550781 37.601562 21.441406 37.601562 25.214844 L 37.59375 39.179688 C 37.59375 43.789062 39.453125 43.871094 39.453125 43.871094 L 45.617188 43.871094 C 45.453125 43.789062 43.253906 42.125 43.253906 39.140625 L 43.253906 26.75 C 43.324219 26.203125 44.257812 24.328125 46.910156 24.328125 C 48.417969 24.328125 50.074219 25.898438 50.039062 27.664062 L 50.027344 39.171875 C 50.027344 43.851562 51.863281 43.863281 51.863281 43.863281 L 58.046875 43.863281 C 58.046875 43.863281 55.683594 42.199219 55.683594 39.136719 L 55.671875 26.742188 C 55.902344 26.050781 56.710938 24.367188 59.042969 24.367188 C 60.90625 24.367188 62.464844 25.9375 62.421875 27.703125 C 62.421875 27.703125 62.414062 38.207031 62.421875 39.1875 C 62.445312 43.808594 64.191406 43.851562 64.25 43.851562 L 64.253906 43.851562 C 67.476562 43.851562 70.4375 43.863281 70.4375 43.863281 C 70.4375 43.863281 68.078125 42.234375 68.078125 39.175781 L 68.078125 26.597656 C 68.078125 21.71875 64.089844 20.417969 61.125 20.417969 C 57.1875 20.417969 56.011719 23.707031 55.511719 24.832031 C 54.632812 21.773438 51.566406 20.382812 49.054688 20.382812 "/>
<path style=" stroke:none;fill-rule:nonzero;fill:rgb(100%,100%,100%);fill-opacity:1;" d="M 74.808594 20.535156 L 71.074219 20.535156 C 71.074219 20.535156 73.214844 21.484375 73.214844 25.179688 L 73.203125 39.183594 L 73.203125 39.207031 C 73.203125 43.820312 75.050781 43.851562 75.089844 43.851562 L 75.09375 43.851562 C 78.3125 43.851562 81.253906 43.863281 81.253906 43.863281 C 81.253906 43.863281 78.882812 42.273438 78.882812 39.167969 L 78.863281 39.152344 L 78.871094 25.761719 C 78.871094 20.535156 76.128906 20.535156 74.808594 20.535156 "/>
<path style=" stroke:none;fill-rule:nonzero;fill:rgb(100%,100%,100%);fill-opacity:1;" d="M 85.875 20.511719 L 82.144531 20.519531 C 82.144531 20.519531 84.304688 21.40625 84.304688 25.179688 L 84.296875 39.160156 C 84.296875 43.777344 86.160156 43.851562 86.160156 43.851562 L 92.316406 43.851562 C 92.15625 43.777344 89.949219 42.113281 89.949219 39.128906 L 89.957031 27.675781 C 90.117188 26.640625 90.65625 25.839844 91.46875 25.3125 C 92.285156 24.78125 93.230469 24.519531 94.164062 24.519531 C 95.546875 24.519531 96.910156 25.09375 97.855469 26.25 L 97.855469 22.296875 C 97.855469 22.296875 97.261719 20.617188 94.703125 20.617188 C 90.835938 20.617188 89.890625 25.21875 89.890625 25.21875 C 89.578125 21.582031 88.605469 20.511719 85.875 20.511719 "/>
<path style=" stroke:none;fill-rule:nonzero;fill:rgb(100%,100%,100%);fill-opacity:1;" d="M 125.078125 15.199219 C 125.078125 15.199219 123.71875 17.550781 120.9375 19.835938 C 119.183594 21.277344 115.511719 23.050781 115.511719 23.050781 L 119.425781 23.117188 L 119.417969 39.347656 C 119.417969 43.851562 121.300781 43.851562 121.300781 43.851562 C 124.683594 43.851562 127.453125 43.863281 127.453125 43.863281 C 127.453125 43.863281 125.074219 42.269531 125.074219 39.304688 L 125.078125 23.132812 C 126.703125 23.140625 125.582031 23.140625 126.597656 23.140625 C 128.6875 23.140625 130.242188 24.054688 130.242188 24.054688 L 130.257812 20.535156 L 125.078125 20.535156 L 125.078125 15.199219 "/>
<path style=" stroke:none;fill-rule:nonzero;fill:rgb(100%,100%,100%);fill-opacity:1;" d="M 136.597656 33.351562 C 136.597656 33.351562 135.824219 22.585938 139.875 22.28125 C 139.96875 22.277344 140.058594 22.269531 140.144531 22.269531 C 143.324219 22.269531 142.539062 26.867188 141.539062 28.710938 C 139.984375 31.582031 137.957031 31.878906 136.597656 33.351562 M 140.292969 20.417969 L 140.226562 20.417969 C 133.847656 20.449219 130.464844 26.339844 130.464844 32.683594 C 130.464844 39.140625 134.613281 43.898438 140.664062 43.898438 C 145.6875 43.898438 147.269531 42.054688 147.269531 42.054688 L 147.289062 38.292969 C 145.894531 40.691406 144.089844 41.300781 142.601562 41.300781 C 141.445312 41.300781 140.488281 40.929688 140.074219 40.742188 C 137.335938 39.472656 136.988281 35.886719 136.988281 35.886719 C 139.160156 33.234375 141.871094 33.800781 145.324219 30.1875 C 149.851562 25.453125 146.503906 20.417969 140.292969 20.417969 "/>
<path style=" stroke:none;fill-rule:nonzero;fill:rgb(100%,100%,100%);fill-opacity:1;" d="M 76.019531 13.023438 C 74.433594 13.023438 73.144531 14.28125 73.144531 15.835938 C 73.144531 17.394531 74.433594 18.652344 76.019531 18.652344 C 77.609375 18.652344 78.894531 17.394531 78.894531 15.835938 C 78.894531 14.28125 77.609375 13.023438 76.019531 13.023438 "/>
<path style=" stroke:none;fill-rule:nonzero;fill:rgb(100%,100%,100%);fill-opacity:1;" d="M 104.277344 41.21875 C 102.867188 41.21875 101.863281 39.753906 101.863281 38.257812 C 101.863281 32.433594 106.636719 31.632812 107.90625 30.078125 L 107.917969 39.894531 C 107.355469 40.394531 106.78125 41.21875 104.277344 41.21875 M 106.332031 20.511719 C 102.777344 20.511719 100.542969 22.222656 100.542969 22.222656 L 100.542969 26.289062 C 100.542969 26.289062 101.816406 23.066406 105.03125 23.066406 C 108.160156 23.066406 108.394531 24.628906 108.375 25.40625 C 108.375 25.40625 108.691406 26.464844 107.90625 27.832031 C 106.472656 30.339844 95.324219 30.871094 97.035156 39.492188 C 97.714844 42.910156 99.992188 43.90625 102.855469 43.90625 C 105.636719 43.90625 107.3125 42.457031 108.011719 41.105469 C 108.425781 43.703125 109.738281 43.851562 109.738281 43.851562 C 112.957031 43.851562 115.898438 43.863281 115.898438 43.863281 C 115.898438 43.863281 113.5 42.273438 113.5 39.195312 L 113.5 26.085938 C 113.5 22.953125 110.023438 20.511719 106.332031 20.511719 "/>
<path style=" stroke:none;fill-rule:nonzero;fill:rgb(100%,100%,100%);fill-opacity:1;" d="M 156.828125 20.363281 C 153.136719 20.363281 149.777344 22.804688 149.84375 25.9375 C 149.902344 28.691406 151.0625 30.472656 153.316406 32.152344 C 154.203125 32.816406 155.269531 33.460938 156.492188 34.140625 C 158.285156 35.136719 158.9375 36.351562 158.957031 37.527344 C 158.992188 39.179688 157.523438 41.34375 154.382812 41.34375 C 151.171875 41.34375 149.886719 38.054688 149.886719 38.054688 L 149.886719 42.21875 C 149.886719 42.21875 152.210938 43.875 155.757812 43.875 C 159.96875 43.875 164.230469 40.667969 164.128906 36.210938 C 164.105469 34.644531 163.546875 33.304688 162.683594 32.15625 C 161.261719 30.242188 158.664062 28.90625 156.660156 27.667969 C 155.507812 26.964844 154.902344 25.703125 154.886719 25.257812 C 154.855469 24.480469 155.230469 22.902344 158.371094 22.902344 C 161.433594 22.902344 162.734375 26.121094 162.734375 26.121094 L 162.726562 22.21875 C 162.726562 22.21875 160.382812 20.363281 156.828125 20.363281 "/>
</g>
</svg>
