<svg xmlns="http://www.w3.org/2000/svg" width="141.4pt" height="59pt" viewBox="0 0 141.4 59"><defs><clipPath id="a"><path d="M105 0h36.398v28H105Zm0 0"/></clipPath></defs><path d="M107.98 28.828c7.618.715 10.489.77 13.985.735 3.344-.106 5.86.37 8.687-2.622 2.961-3.07 2.61-4.66.828-4.164-2.648.79-12.316 4.082-23.714 5.668-.512.07-.383.34.214.383" style="stroke:none;fill-rule:nonzero;fill:#c73645;fill-opacity:1"/><path d="M105.398 28.004c7.793-1.992 27.297-12.469 30.192-14.332 1.422-.89 3-.356.48 3.746-1.715 2.527-2.933 3.879-7.472 5.379-5.52 1.824-11.371 3.406-23 5.574-.602.113-.801-.168-.2-.367" style="stroke:none;fill-rule:nonzero;fill:#f8c515;fill-opacity:1"/><g clip-path="url(#a)"><path d="M106.18 27.45c6.793-2.38 21.597-10.173 26.644-13.27 3.625-2.211 6.434-3.84 7.535-6.614.586-1.578.91-2.921 1.04-4.023v-1.89C141.241.632 140.792.073 140.19 0h-.27c-.378.043-.8.254-1.241.64-2.844 2.766-16.227 16.805-33.352 26.676-.258.149-.3.485.852.133" style="stroke:none;fill-rule:nonzero;fill:#669f65;fill-opacity:1"/></g><path d="m0 42.309 1.7-1.211V26.539L0 25.33h13.098v2.91l-2.184-1.7H4.125v6.063h4.852l1.937-1.454v4.125L8.977 33.82H4.125v7.278h7.035l2.422-1.942.004 3.153zM21.836 40.61l.727.488c-.336.675-1.586 1.562-3.184 1.566-1.711 0-2.879-1.102-2.883-2.539v-8.977H14.07l4.852-3.398v2.43h3.64v.968h-3.64V41.34s.27.281.863.281c1.41 0 1.899-.84 2.05-1.012M23.29 42.309l1.698-1.211V27.27l-1.699-1.22 4.125-1.206v7.758l1.379-1.102c1.777-1.324 3.402-1.562 4.445-1.562 2.715 0 3.637 1.273 3.637 2.91v8.25l1.7 1.21h-4.126v-9.46c0-.535-.46-1.457-1.941-1.457-.89 0-2.192.25-3.531 1.32l-1.563 1.105v7.282l1.695 1.21zM52.402 29.938c4.344-.004 7.274 3.039 7.278 6.304 0 3.27-2.934 6.305-7.278 6.309-4.304.004-7.277-3.04-7.277-6.309-.004-3.265 2.973-6.304 7.277-6.304m4.368 6.304c0-2.535-1.137-5.336-4.368-5.336-3.191.004-4.367 2.801-4.367 5.336.004 2.535 1.176 5.34 4.367 5.34 3.23-.004 4.371-2.805 4.368-5.34M60.164 47.16l1.7-1.215V32.602l-1.7-1.211 4.125-1.211v1.457c1.137-1.473 3.41-1.7 4.856-1.7 3.562-.003 5.82 3.153 5.82 6.305 0 2.93-2.258 6.309-5.82 6.309-1.45.004-3.59-.29-4.856-1.696v5.09l1.457 1.215Zm4.125-14.07v6.308c.785 1.32 2.25 1.942 3.887 1.942 3.078-.004 3.883-2.844 3.879-5.098 0-2.254-.801-5.097-3.88-5.094-1.636 0-3.105.59-3.886 1.942M83.941 33.574v-2.668c1.114-.62 3.293-.968 4.856-.968 3.351 0 5.094 1.039 5.094 2.91v8.25l1.699 1.21h-4.125v-1.94l-4.613 1.94c-.403.169-1.043.243-1.454.243-1.71.004-3.152-1.211-3.156-3.153 0-2.367 2.707-4.367 5.828-4.367h3.395v-2.183c-.004-1.13-1.188-1.942-2.668-1.942-.82 0-1.445.16-2.004.586Zm.973 5.582c0 1.52.957 1.942 1.695 1.942.336 0 1.086-.317 1.461-.489l3.395-1.453v-3.152h-2.668c-2.344 0-3.887 1.207-3.883 3.152M105.781 29.938c3.403 0 4.121 1.792 4.121 2.91v8.25l1.7 1.21h-4.122v-9.46c0-.598-.472-1.457-2.425-1.457-.86 0-2.082-.028-3.645 1.21l-1.453 1.215v7.282l1.695 1.21h-5.82l1.7-1.21v-8.496l-1.7-1.211 4.125-1.211v2.422l1.211-1.028c2.004-1.527 3.719-1.637 4.613-1.637M39.059 42.309l1.699-1.211v-8.496l-1.7-1.211 4.126-1.211v10.918l1.699 1.21zM40.516 27.75c0-.535.597-.969 1.332-.969.738 0 1.336.434 1.336.969 0 .54-.598.973-1.336.973-.735 0-1.332-.434-1.332-.973M75.695 42.309l1.696-1.211v-8.496l-1.696-1.211 4.121-1.211v10.918l1.704 1.21zM77.152 27.75c0-.535.594-.969 1.332-.969s1.332.434 1.332.969c0 .54-.593.973-1.332.973-.738 0-1.332-.434-1.332-.973M51.703 51.406c.016-1.195.973-1.828 2.438-1.836 1.41-.011 2.48.313 2.46 1.723v.516c-.007.773-.308 1.402-1.41 1.507-1.437.114-1.87.121-2.996.02-.601-.121-.504-1.125-.492-1.469Zm.723 4.114 1.297 1c.195.128.433.285.43.687v1.074l-1.005.715h3.43l-1-.715v-1.14c0-.575-.07-.996-.61-1.399l-1.429-1.144c-.52-.368-.516-.422-.812-.625 0 0 1.16.07 1.707.05 2.199.043 3.207-.492 3.511-1.128.168-.36.242-.836.211-1.516-.039-.707-.09-.793-.27-1.125-.507-.926-2.034-1.258-3.745-1.258-1.575 0-3.278.527-3.79 1.715a2.5 2.5 0 0 0-.21.82c.007.813-.192 2.04.836 2.836zM73.578 53.996v4.285l-1 .715h3.43l-1-.715v-4.285h2.57v1.574h2.426l-.996-.715v-1.43h-4v-2.284c0-.57-.29-.715-.715-.715h-.715v-1.43l-2.43.715 1.004.715V51h1.426v2.426h-3.996v1.43l-1 .714h2.426v-1.574zM91.434 53.996l-1.004-.715v-1.426h-1.98c.003-.148 0-.304-.009-.476-.03-.707-.086-.793-.27-1.125-.507-.926-2.03-1.258-3.745-1.258-1.57 0-3.27.527-3.781 1.715-.114.25-.192.539-.22.82.016.813-.187 2.04.84 2.836l1.446 1.153 1.3 1c.196.128.434.285.427.687v1.074l-1 .715h3.43l-1-.715v-1.14c0-.575-.075-.996-.61-1.399l-1.43-1.144c-.52-.368-.52-.422-.812-.625 0 0 1.16.07 1.707.05 2.195.043 3.207-.492 3.507-1.128.063-.137.118-.29.153-.47h.62v1.571Zm-4.54-2.187c-.015.773-.312 1.402-1.414 1.507-1.437.114-1.875.121-3 .02-.597-.121-.503-1.125-.488-1.469v-.46c.016-1.196.973-1.829 2.434-1.837 1.414-.011 2.488.313 2.469 1.723zM106.176 53.973s1.156.07 1.707.05c2.199.043 3.207-.492 3.508-1.128.168-.36.242-.836.21-1.516-.035-.707-.085-.793-.269-1.125-.504-.926-2.031-1.258-3.746-1.258-1.574 0-3.273.527-3.785 1.715-.114.25-.192.539-.215.82.012.813-.191 2.04.84 2.836l3.148 2.524-4.57.394v1l-1 .715h3.426l-.996-.715v-.566l5.14-.434v-.57Zm-1.028-2.567c.016-1.195.977-1.828 2.438-1.836 1.414-.011 2.484.313 2.465 1.723v.516c-.012.773-.313 1.402-1.41 1.507-1.442.114-1.875.121-3 .02-.602-.121-.504-1.125-.493-1.469zM70.008 58.996l-1-.715v-1.285h-.715l-1.285.86v-2.899c-.043-1.684-2.113-1.809-4.422-1.52l1.852-2.44v-.571h-2.141v-1.43l-2.434.715 1.004.715V51h1.969l-2.188 2.863c-.332.453-.636.996-.636 1.707l.023 2.88-1.047.546h3.45l-.997-.715v-2.71c0-.602.223-.88.297-.993.121-.16.192-.266.239-.332.086-.117.226-.144.226-.144.367-.102 3.375-.508 3.375.964v3.075c0 .574.285.855.574.855.141 0 .285 0 .57-.144.286-.137.856-.57.856-.57v.714zM99.719 56.61c0-1.626-1.172-1.876-2.156-1.977.136-.047.48-.18.601-.227 1.29-.472 1.613-1.02 1.64-1.949v-.031h.571v1.57h2.43l-1-.715v-1.426H99.73c-.207-.722-.937-1.39-3.011-1.43v-1.429l-2.43.715 1 .715c-1.465 0-2.992.625-3.059 2.008-.058 1.324.915 1.96 2.223 2l-1.465.511c-.765.293-1.27.625-1.27 1.91v1.426l-1 .715h3.427l-1-.715v-1.3c0-.407-.075-.723.574-.946 0 0 2.34-.828 2.445-.863 1.152.086 2.125.152 2.125 1.426v1.683l-1 .715h3.43l-1-.715Zm-3.88-2.657c-1.6-.035-2.085-.285-2.085-1.555 0-1.25 1.48-1.414 2.277-1.43 1.946-.034 2.301.587 2.278 1.25-.012.43.004.848-.954 1.2-.183.07-.898.324-1.515.535" style="stroke:none;fill-rule:nonzero;fill:#c73645;fill-opacity:1"/></svg>