<svg xmlns="http://www.w3.org/2000/svg" width="176pt" height="59.36" viewBox="0 0 176 44.52"><defs><clipPath id="a"><path d="M0 16h136v28.52H0Zm0 0"/></clipPath></defs><g clip-path="url(#a)"><path d="M58.21 26.625a5.75 5.75 0 0 0-1.128-2.29 5.37 5.37 0 0 0-2.125-1.495 10.6 10.6 0 0 0-3.668-.543c-1.32 0-2.816.219-3.695.586a5.36 5.36 0 0 0-3.27 3.8c-.234.88-.426 1.774-.426 2.813v1.219c0 1.043.176 1.996.395 2.875a5.28 5.28 0 0 0 3.258 3.812c.879.368 2.406.586 3.754.586s2.816-.187 3.71-.586a5.33 5.33 0 0 0 3.227-3.855c.219-.879.395-1.805.395-2.817v-1.203a12 12 0 0 0-.438-2.902Zm-3.593 4.324c0 1.57-.234 2.672-.73 3.317-.485.644-1.352.968-2.555.968-.602 0-1.113-.074-1.539-.207a2.26 2.26 0 0 1-1.055-.687c-.293-.324-.484-.766-.601-1.32a9.3 9.3 0 0 1-.192-2.055v-1.688c0-1.539.25-2.64.762-3.285.516-.644 1.379-.969 2.625-.969 1.234 0 2.082.325 2.57.97.48.644.73 1.745.73 3.284v1.672Zm63.113-8.316a13.6 13.6 0 0 0-3.418-.352c-1.187 0-2.613.149-3.55.426a5.63 5.63 0 0 0-3.871 3.52 9 9 0 0 0-.528 3.226v1.027c0 2.434.496 4.239 1.496 5.383a6.45 6.45 0 0 0 4.782 1.89c2.05 0 3.328-.57 4.37-1.565v.66c0 1.597-.28 2.55-.94 3.37-.673.794-1.86 1.16-3.403 1.087a19.3 19.3 0 0 1-4.809-.778l-.675 3.078c.937.31 1.906.56 2.906.692.98.144 2.082.191 3.281.219 2.496.058 4.371-.672 5.692-2.024 1.32-1.347 1.894-3.254 1.894-5.719V23.836c-.894-.484-2.129-.922-3.227-1.203m-.718 8.183c0 1.352-.266 2.348-.778 2.98-.53.63-1.351.954-2.496.954a3.85 3.85 0 0 1-1.61-.293 2.2 2.2 0 0 1-.956-.852 3.8 3.8 0 0 1-.484-1.378c-.09-.622-.137-1.25-.13-1.88V29.32c0-1.554.294-2.652.88-3.312.585-.645 1.527-.985 2.785-.985.515 0 1.011.059 1.511.149.5.101.926.25 1.278.469ZM85.109 16.563c.809 0 1.426.175 1.793.511.364.34.54.867.54 1.469 0 .629-.176 1.145-.54 1.48-.367.336-.984.5-1.793.5-.804 0-1.437-.148-1.804-.5-.364-.335-.54-.851-.54-1.464 0-.618.176-1.145.54-1.47.367-.35 1-.526 1.804-.526m-1.992 21.074V22.62h4.063v15.016Zm-8.316-5.793L77 22.62h4.02l-4.415 15.016h-3.668l-2.609-9.094-2.582 9.094h-3.8L59.401 22.62h4.25l2.23 9.328 2.466-8.683h3.988l2.45 8.578ZM30.008 22.62v15.016H26.34l-.219-1.614a4.7 4.7 0 0 1-1.879 1.454c-.762.336-1.625.5-2.61.5a8.5 8.5 0 0 1-2.39-.309 4.44 4.44 0 0 1-2.844-2.61 6 6 0 0 1-.41-2.32V22.621h3.989v9.18q-.002 1.806.66 2.582c.441.512 1.113.762 2.156.762 1.129 0 1.98-.586 2.492-1.278.527-.73.586-2.199.586-3.488V22.62Zm12.32 3.356a15 15 0 0 0-.836-.16 6 6 0 0 0-1.012-.087c-1.277 0-2.199.32-2.757.997-.586.66-.72 1.378-.72 2.757v8.153h-4.327V22.62h3.86l.234 1.8a4.8 4.8 0 0 1 1.789-1.495 6 6 0 0 1 2.582-.512 6.6 6.6 0 0 1 1.964.324Zm47.578 11.66V22.62h3.668l.235 1.613c.468-.632 1.097-1.117 1.863-1.453a6.4 6.4 0 0 1 2.61-.5c.808 0 1.73.102 2.39.309a4.43 4.43 0 0 1 2.844 2.61c.296.66.414 1.425.414 2.32v10.117h-3.993v-9.164c0-1.22-.218-2.082-.66-2.598-.437-.512-1.097-.762-2.156-.762-1.129 0-1.976.586-2.492 1.278-.512.73-.586 2.183-.586 3.488v7.758Zm41.524-8.989c.773.102 1.816.25 2.343.512.516.266.954.645 1.262 1.027.293.368.528.793.66 1.262.149.469.207.953.207 1.438v.293c0 .851-.148 1.57-.468 2.183a3.86 3.86 0 0 1-1.32 1.469c-.56.379-1.645.676-2.454.852q-1.184.262-2.637.261a20 20 0 0 1-5.382-.804l.644-2.832c1.524.41 3.086.636 4.664.675.676 0 1.13 0 1.586-.047.41-.042.73-.175.965-.32.234-.148.441-.398.516-.633.058-.203.074-.32.074-.613 0-.441-.117-.75-.356-1.043-.218-.293-.672-.469-1.39-.57l-2.145-.293c-1.508-.192-3.047-.59-3.765-1.32a3.82 3.82 0 0 1-1.075-2.832v-.293c0-1.512.575-2.657 1.704-3.418a10.3 10.3 0 0 1 5.28-1.247 15.8 15.8 0 0 1 4.84.747l-.69 2.746a16.6 16.6 0 0 0-4.063-.532c-1.332 0-2.2.09-2.668.356-.469.293-.676.555-.676 1.172 0 .511.176.804.453 1.027.297.219.75.395 1.484.496l2.407.293ZM0 17.047h13.598l-.766 3.418H4.105v4.808h8.567l-.703 3.711H4.105v5.223h9.493l-.707 3.43H0z" style="stroke:none;fill-rule:evenodd;fill:#781a41;fill-opacity:1"/></g><path d="M150.23.063c-3.27-.442-4.925 1.378-7.214 3.05l-7.832 6.16 1.496.793h.011c1.97.965 4.696.645 6.543-.734l3.317-2.64 1.262-.997L154.117.68z" style="stroke:none;fill-rule:evenodd;fill:#82ccd3;fill-opacity:1"/><path d="m135.184 9.258 1.496.808h.011c1.97.965 4.696.645 6.543-.734l4.578-3.637z" style="stroke:none;fill-rule:evenodd;fill:#3e90ba;fill-opacity:1"/><path d="m163.605 3.86-4.195-.747s-2.93-.703-5.383 1.188c0 0-1.8 1.347-3.136 2.39L147.93 9.04l-6.852 5.441-.058.043 2.07 1.102c1.965.965 4.691.645 6.555-.734l6.128-4.856 7.832-6.16" style="stroke:none;fill-rule:evenodd;fill:#781a41;fill-opacity:1"/><path d="M171.703 14.523c-3.418-.996-4.46-.367-8.492.852l-.34.293-6.523 5.16a6.94 6.94 0 0 1-6.72.676c2.423 1.262 4.93.953 9.212-.379L176 15.844ZM161.656 9.04a16.2 16.2 0 0 1 3.168-2.14l-8.55 2.742-.5.394-6.13 4.84a6.63 6.63 0 0 1-6.554.75c3.02 1.656 7.668.438 11.57-.953l.235-.192 6.761-5.457m-10.765-2.332c1.336-1.043 3.136-2.39 3.136-2.39a6.2 6.2 0 0 1 1.426-.809l-7.629 2.203-1.273 1.012-3.301 2.625a6.64 6.64 0 0 1-6.559.734c1.676 1.012 4.27 1.23 8.188.07l2.668-.788.394-.309z" style="stroke:none;fill-rule:evenodd;fill:#c0bcb4;fill-opacity:1"/><path d="m172.848 7.41-4.547-.82c-2.715-.516-4.004.367-6.645 2.433l-6.761 5.457-7.333 5.926 2.051 1.098c1.965.969 4.887.703 6.746-.676l6.5-5.16z" style="stroke:none;fill-rule:evenodd;fill:#781a41;fill-opacity:1"/><path d="m154.66 14.672 15.797-5.281-7.246 5.984-15.664 5.031 7.113-5.722m-7.113-5.336 14.52-4.27-5.794 4.563-15.253 4.882z" style="stroke:none;fill-rule:evenodd;fill:#a11952;fill-opacity:1"/></svg>