<?xml version="1.0" encoding="UTF-8"?>
<svg xmlns="http://www.w3.org/2000/svg" xmlns:xlink="http://www.w3.org/1999/xlink" width="176pt" height="44.52pt" viewBox="0 0 176 44.52" version="1.1">
<defs>
<clipPath id="clip1">
  <path d="M 0 16 L 136 16 L 136 44.519531 L 0 44.519531 Z M 0 16 "/>
</clipPath>
</defs>
<g id="surface1">
<g clip-path="url(#clip1)" clip-rule="nonzero">
<path style=" stroke:none;fill-rule:evenodd;fill:rgb(47.224426%,10.00061%,25.469971%);fill-opacity:1;" d="M 58.210938 26.625 C 57.992188 25.742188 57.609375 24.980469 57.082031 24.335938 C 56.507812 23.671875 55.777344 23.15625 54.957031 22.839844 C 53.773438 22.445312 52.535156 22.261719 51.289062 22.296875 C 49.96875 22.296875 48.472656 22.515625 47.59375 22.882812 C 45.941406 23.53125 44.71875 24.953125 44.324219 26.683594 C 44.089844 27.5625 43.898438 28.457031 43.898438 29.496094 L 43.898438 30.714844 C 43.898438 31.757812 44.074219 32.710938 44.292969 33.589844 C 44.667969 35.328125 45.890625 36.761719 47.550781 37.402344 C 48.429688 37.769531 49.957031 37.988281 51.304688 37.988281 C 52.652344 37.988281 54.121094 37.800781 55.015625 37.402344 C 56.667969 36.738281 57.878906 35.289062 58.242188 33.546875 C 58.460938 32.667969 58.636719 31.742188 58.636719 30.730469 L 58.636719 29.527344 C 58.609375 28.542969 58.464844 27.570312 58.199219 26.625 Z M 54.617188 30.949219 C 54.617188 32.519531 54.382812 33.621094 53.886719 34.265625 C 53.402344 34.910156 52.535156 35.234375 51.332031 35.234375 C 50.730469 35.234375 50.21875 35.160156 49.792969 35.027344 C 49.367188 34.894531 49.015625 34.660156 48.738281 34.339844 C 48.445312 34.015625 48.253906 33.574219 48.136719 33.019531 C 47.996094 32.34375 47.933594 31.652344 47.945312 30.964844 L 47.945312 29.277344 C 47.945312 27.738281 48.195312 26.636719 48.707031 25.992188 C 49.222656 25.347656 50.085938 25.023438 51.332031 25.023438 C 52.566406 25.023438 53.414062 25.347656 53.902344 25.992188 C 54.382812 26.636719 54.632812 27.738281 54.632812 29.277344 L 54.632812 30.949219 Z M 117.730469 22.632812 C 116.609375 22.371094 115.460938 22.253906 114.3125 22.28125 C 113.125 22.28125 111.699219 22.429688 110.761719 22.707031 C 108.972656 23.171875 107.523438 24.488281 106.890625 26.226562 C 106.519531 27.261719 106.339844 28.355469 106.363281 29.453125 L 106.363281 30.480469 C 106.363281 32.914062 106.859375 34.71875 107.859375 35.863281 C 109.121094 37.128906 110.851562 37.8125 112.640625 37.753906 C 114.691406 37.753906 115.96875 37.183594 117.011719 36.1875 L 117.011719 36.847656 C 117.011719 38.445312 116.730469 39.398438 116.070312 40.21875 C 115.398438 41.011719 114.210938 41.378906 112.667969 41.304688 C 111.039062 41.25 109.421875 40.988281 107.859375 40.527344 L 107.183594 43.605469 C 108.121094 43.914062 109.089844 44.164062 110.089844 44.296875 C 111.070312 44.441406 112.171875 44.488281 113.371094 44.515625 C 115.867188 44.574219 117.742188 43.84375 119.0625 42.492188 C 120.382812 41.144531 120.957031 39.238281 120.957031 36.773438 L 120.957031 23.835938 C 120.0625 23.351562 118.828125 22.914062 117.730469 22.632812 Z M 117.011719 30.816406 C 117.011719 32.167969 116.746094 33.164062 116.234375 33.796875 C 115.703125 34.425781 114.882812 34.75 113.738281 34.75 C 113.1875 34.769531 112.636719 34.667969 112.128906 34.457031 C 111.730469 34.273438 111.398438 33.976562 111.171875 33.605469 C 110.921875 33.183594 110.757812 32.714844 110.6875 32.226562 C 110.597656 31.605469 110.550781 30.976562 110.558594 30.347656 L 110.558594 29.320312 C 110.558594 27.765625 110.851562 26.667969 111.4375 26.007812 C 112.023438 25.363281 112.964844 25.023438 114.222656 25.023438 C 114.738281 25.023438 115.234375 25.082031 115.734375 25.171875 C 116.234375 25.273438 116.660156 25.421875 117.011719 25.640625 Z M 85.109375 16.5625 C 85.917969 16.5625 86.535156 16.738281 86.902344 17.074219 C 87.265625 17.414062 87.441406 17.941406 87.441406 18.542969 C 87.441406 19.171875 87.265625 19.6875 86.902344 20.023438 C 86.535156 20.359375 85.917969 20.523438 85.109375 20.523438 C 84.304688 20.523438 83.671875 20.375 83.304688 20.023438 C 82.941406 19.6875 82.765625 19.171875 82.765625 18.558594 C 82.765625 17.941406 82.941406 17.414062 83.304688 17.089844 C 83.671875 16.738281 84.304688 16.5625 85.109375 16.5625 Z M 83.117188 37.636719 L 83.117188 22.621094 L 87.179688 22.621094 L 87.179688 37.636719 Z M 74.800781 31.84375 L 77 22.621094 L 81.019531 22.621094 L 76.605469 37.636719 L 72.9375 37.636719 L 70.328125 28.542969 L 67.746094 37.636719 L 63.945312 37.636719 L 59.402344 22.621094 L 63.652344 22.621094 L 65.882812 31.949219 L 68.347656 23.265625 L 72.335938 23.265625 L 74.785156 31.84375 Z M 30.007812 22.621094 L 30.007812 37.636719 L 26.339844 37.636719 L 26.121094 36.023438 C 25.636719 36.65625 25.007812 37.140625 24.242188 37.476562 C 23.480469 37.8125 22.617188 37.976562 21.632812 37.976562 C 20.828125 37.988281 20.019531 37.882812 19.242188 37.667969 C 17.945312 37.277344 16.898438 36.316406 16.398438 35.058594 C 16.109375 34.320312 15.96875 33.53125 15.988281 32.738281 L 15.988281 22.621094 L 19.976562 22.621094 L 19.976562 31.800781 C 19.976562 33.003906 20.195312 33.867188 20.636719 34.382812 C 21.078125 34.894531 21.75 35.144531 22.792969 35.144531 C 23.921875 35.144531 24.773438 34.558594 25.285156 33.867188 C 25.8125 33.136719 25.871094 31.667969 25.871094 30.378906 L 25.871094 22.621094 Z M 42.328125 25.976562 C 42.050781 25.914062 41.773438 25.863281 41.492188 25.816406 C 41.15625 25.757812 40.820312 25.730469 40.480469 25.730469 C 39.203125 25.730469 38.28125 26.050781 37.722656 26.726562 C 37.136719 27.386719 37.003906 28.105469 37.003906 29.484375 L 37.003906 37.636719 L 32.675781 37.636719 L 32.675781 22.621094 L 36.535156 22.621094 L 36.769531 24.421875 C 37.253906 23.761719 37.855469 23.265625 38.558594 22.925781 C 39.371094 22.566406 40.253906 22.390625 41.140625 22.414062 C 41.808594 22.421875 42.46875 22.53125 43.105469 22.738281 Z M 89.90625 37.636719 L 89.90625 22.621094 L 93.574219 22.621094 L 93.808594 24.234375 C 94.277344 23.601562 94.90625 23.117188 95.671875 22.78125 C 96.496094 22.433594 97.386719 22.265625 98.28125 22.28125 C 99.089844 22.28125 100.011719 22.382812 100.671875 22.589844 C 101.96875 22.980469 103.019531 23.941406 103.515625 25.199219 C 103.8125 25.859375 103.929688 26.625 103.929688 27.519531 L 103.929688 37.636719 L 99.9375 37.636719 L 99.9375 28.472656 C 99.9375 27.253906 99.71875 26.390625 99.277344 25.875 C 98.839844 25.363281 98.179688 25.113281 97.121094 25.113281 C 95.992188 25.113281 95.144531 25.699219 94.628906 26.390625 C 94.117188 27.121094 94.042969 28.574219 94.042969 29.878906 L 94.042969 37.636719 Z M 131.429688 28.648438 C 132.203125 28.75 133.246094 28.898438 133.773438 29.160156 C 134.289062 29.425781 134.726562 29.804688 135.035156 30.1875 C 135.328125 30.554688 135.5625 30.980469 135.695312 31.449219 C 135.84375 31.917969 135.902344 32.402344 135.902344 32.886719 L 135.902344 33.179688 C 135.902344 34.03125 135.753906 34.75 135.433594 35.363281 C 135.128906 35.960938 134.671875 36.464844 134.113281 36.832031 C 133.554688 37.210938 132.46875 37.507812 131.660156 37.683594 C 130.871094 37.859375 129.992188 37.945312 129.023438 37.945312 C 127.199219 37.925781 125.390625 37.652344 123.640625 37.140625 L 124.285156 34.308594 C 125.808594 34.71875 127.371094 34.945312 128.949219 34.984375 C 129.625 34.984375 130.078125 34.984375 130.535156 34.9375 C 130.945312 34.894531 131.265625 34.761719 131.5 34.617188 C 131.734375 34.46875 131.941406 34.21875 132.015625 33.984375 C 132.074219 33.78125 132.089844 33.664062 132.089844 33.371094 C 132.089844 32.929688 131.972656 32.621094 131.734375 32.328125 C 131.515625 32.035156 131.0625 31.859375 130.34375 31.757812 L 128.199219 31.464844 C 126.691406 31.273438 125.152344 30.875 124.433594 30.144531 C 123.699219 29.386719 123.3125 28.363281 123.359375 27.3125 L 123.359375 27.019531 C 123.359375 25.507812 123.933594 24.363281 125.0625 23.601562 C 126.679688 22.722656 128.503906 22.292969 130.34375 22.355469 C 131.984375 22.351562 133.617188 22.601562 135.183594 23.101562 L 134.492188 25.847656 C 133.164062 25.503906 131.800781 25.324219 130.429688 25.316406 C 129.097656 25.316406 128.230469 25.40625 127.761719 25.671875 C 127.292969 25.964844 127.085938 26.226562 127.085938 26.84375 C 127.085938 27.355469 127.261719 27.648438 127.539062 27.871094 C 127.835938 28.089844 128.289062 28.265625 129.023438 28.367188 L 131.429688 28.660156 Z M 0 17.046875 L 13.597656 17.046875 L 12.832031 20.464844 L 4.105469 20.464844 L 4.105469 25.273438 L 12.671875 25.273438 L 11.96875 28.984375 L 4.105469 28.984375 L 4.105469 34.207031 L 13.597656 34.207031 L 12.890625 37.636719 L 0 37.636719 L 0 17.046875 "/>
</g>
<path style=" stroke:none;fill-rule:evenodd;fill:rgb(51.010132%,80.097961%,82.614136%);fill-opacity:1;" d="M 150.230469 0.0625 C 146.960938 -0.378906 145.304688 1.441406 143.015625 3.113281 L 135.183594 9.273438 L 136.679688 10.066406 L 136.691406 10.066406 C 138.660156 11.03125 141.386719 10.710938 143.234375 9.332031 L 146.550781 6.691406 L 147.8125 5.695312 L 154.117188 0.679688 L 150.230469 0.0625 "/>
<path style=" stroke:none;fill-rule:evenodd;fill:rgb(24.452209%,56.454468%,73.062134%);fill-opacity:1;" d="M 135.183594 9.257812 L 136.679688 10.066406 L 136.691406 10.066406 C 138.660156 11.03125 141.386719 10.710938 143.234375 9.332031 L 147.8125 5.695312 L 135.183594 9.257812 "/>
<path style=" stroke:none;fill-rule:evenodd;fill:rgb(47.224426%,10.00061%,25.469971%);fill-opacity:1;" d="M 163.605469 3.859375 L 159.410156 3.113281 C 159.410156 3.113281 156.480469 2.410156 154.027344 4.300781 C 154.027344 4.300781 152.226562 5.648438 150.890625 6.691406 L 147.929688 9.039062 L 141.078125 14.480469 L 141.019531 14.523438 L 143.089844 15.625 C 145.054688 16.589844 147.78125 16.269531 149.644531 14.890625 L 155.773438 10.035156 L 163.605469 3.875 "/>
<path style=" stroke:none;fill-rule:evenodd;fill:rgb(75.15564%,73.670959%,70.532227%);fill-opacity:1;" d="M 171.703125 14.523438 C 168.285156 13.527344 167.242188 14.15625 163.210938 15.375 L 162.871094 15.667969 L 156.347656 20.828125 C 154.375 22.203125 151.835938 22.457031 149.628906 21.503906 C 152.050781 22.765625 154.558594 22.457031 158.839844 21.125 L 176 15.84375 Z M 161.65625 9.039062 C 162.625 8.203125 163.6875 7.484375 164.824219 6.898438 L 156.273438 9.640625 L 155.773438 10.035156 L 149.644531 14.875 C 147.746094 16.273438 145.25 16.554688 143.089844 15.625 C 146.109375 17.28125 150.757812 16.0625 154.660156 14.671875 L 154.894531 14.480469 L 161.65625 9.023438 M 150.890625 6.691406 C 152.226562 5.648438 154.027344 4.300781 154.027344 4.300781 C 154.5 3.949219 154.96875 3.683594 155.453125 3.492188 L 147.824219 5.695312 L 146.550781 6.707031 L 143.25 9.332031 C 141.347656 10.722656 138.855469 11.003906 136.691406 10.066406 C 138.367188 11.078125 140.960938 11.296875 144.878906 10.136719 L 147.546875 9.347656 L 147.941406 9.039062 L 150.890625 6.691406 "/>
<path style=" stroke:none;fill-rule:evenodd;fill:rgb(47.224426%,10.00061%,25.469971%);fill-opacity:1;" d="M 172.847656 7.410156 L 168.300781 6.589844 C 165.585938 6.074219 164.296875 6.957031 161.65625 9.023438 L 154.894531 14.480469 L 147.5625 20.40625 L 149.613281 21.503906 C 151.578125 22.472656 154.5 22.207031 156.359375 20.828125 L 162.859375 15.667969 L 172.847656 7.410156 "/>
<path style=" stroke:none;fill-rule:evenodd;fill:rgb(63.256836%,9.742737%,32.337952%);fill-opacity:1;" d="M 154.660156 14.671875 L 170.457031 9.390625 L 163.210938 15.375 L 147.546875 20.40625 L 154.660156 14.683594 M 147.546875 9.347656 L 162.066406 5.078125 L 156.273438 9.640625 L 141.019531 14.523438 L 147.546875 9.347656 "/>
</g>
</svg>
