<svg xmlns="http://www.w3.org/2000/svg" width="176pt" height="63.92" viewBox="0 0 176 47.94"><defs><clipPath id="a"><path d="M51 23h18v24.941H51Zm0 0"/></clipPath></defs><path d="M96.52 32.836c.039-1.172-.086-2.27-.563-3.336-.86-1.918-4.352-2.61-5.8-.367-1.102 1.71-1.09 5.691.07 7.39q.045.064.085.13c1.079 1.765 4.547 1.796 5.551-.403a7.3 7.3 0 0 0 .657-3.414m.007-6.902v-7.036c1.02-.222 1.942-.199 2.836-.097.914.101 1.742 1.078 1.844 2.02.027.253.02.511.02.769-.004 4.27 0 8.535-.016 12.805 0 .613-.043 1.234-.14 1.835-.512 3.125-2.72 4.583-5.485 5.364q-3.007.848-6.066-.102c-2.043-.633-3.407-1.953-4.09-3.87-1.118-3.138-1.22-6.38.004-9.497.937-2.395 2.601-4.176 5.375-4.516 2.238-.273 4.148.309 5.718 2.325M113.715 30.8c.05-2.327-1.684-3.343-3.309-3.265-1.761.082-2.894 1.356-2.898 3.266zm5.062 3.223h-11.261c-.121 1.797.554 3.102 1.816 3.66 1.309.579 3.004.333 3.988-.757.63-.696 1.32-.926 2.184-.864.953.067 1.933-.183 2.93.215-.512 2.254-1.817 3.82-3.801 4.813-1.754.875-3.645 1.12-5.563.793-3.418-.586-5.453-2.719-6.289-6.004-.543-2.121-.527-4.277.012-6.406.809-3.184 3.168-5.598 6.7-5.864 3.015-.226 5.612.414 7.554 2.856 1.16 1.46 1.523 3.23 1.719 5.031.078.754.011 1.524.011 2.527" style="stroke:none;fill-rule:nonzero;fill:#4c2b6c;fill-opacity:1"/><g clip-path="url(#a)"><path d="M68.566 24.043c-.625 1.867-1.148 3.414-1.664 4.965-1.55 4.625-3.082 9.254-4.668 13.863-.382 1.106-.93 2.156-1.457 3.207-.527 1.055-1.511 1.531-2.609 1.707-1.367.215-2.75.195-4.25.016-.117-1.23-.063-2.383-.02-3.59.852-.137 1.606-.219 2.344-.383 1.164-.262 1.465-.672 1.32-1.844-.066-.55-.238-1.101-.421-1.632-1.672-4.743-3.36-9.48-5.032-14.223-.214-.613-.37-1.246-.562-1.899.93-.402 1.758-.21 2.562-.242.766-.031 1.536-.008 2.43-.008 1.375 3.836 2.219 7.793 3.606 11.93.62-2.16 1.16-4.031 1.699-5.898.414-1.426.808-2.864 1.25-4.282.437-1.406.879-1.726 2.332-1.746.96-.007 1.922.036 3.14.059" style="stroke:none;fill-rule:nonzero;fill:#4c2b6c;fill-opacity:1"/></g><path d="M130.152 33.086c-1.336.32-2.578.602-3.808.918-.395.101-.774.273-1.14.457-.9.45-.907 1.285-.88 2.125.024.77.477 1.207 1.156 1.473 1.715.671 4.176-.485 4.614-2.243a6.3 6.3 0 0 0 .058-2.73m-9.922-4.688c.582-2.656 2.235-4.003 4.504-4.597 2.176-.57 4.387-.363 6.528.289 1.902.578 3.539 1.812 3.57 4.957.02 1.8.04 3.601-.016 5.402-.027.914-.113 1.856-.363 2.73-.5 1.758-1.582 3.13-3.285 3.86-2.32 1-4.746 1.242-7.23.691-3.297-.734-4.524-3.351-4.149-6.367.25-2.011 1.422-3.285 3.25-3.914 1.246-.433 2.574-.644 3.871-.93.653-.144 1.332-.175 1.957-.382.418-.137.828-.434 1.117-.766.442-.516.262-1.32-.379-1.539-1.535-.52-3.109-.84-4.515.332-.426.356-.84.531-1.387.508-.77-.035-1.547.015-2.316-.02-.336-.011-.664-.14-1.157-.254M78.906 33c-1.636.406-2.976.73-4.308 1.078-.344.09-.688.227-.989.41-.754.453-.953 1.172-.875 2 .079.785.465 1.336 1.23 1.606 1.661.586 3.93-.395 4.458-2.051.289-.902.312-1.89.484-3.043m-10.191-4.848c.601-2.605 2.394-3.886 4.824-4.418 1.938-.422 3.867-.234 5.781.25 2.711.68 4.012 2.621 3.942 4.965-.063 2.059-.004 4.117-.028 6.176-.027 1.996-.703 3.723-2.265 5.031-.313.262-.645.52-1.008.696-2.445 1.175-5.027 1.503-7.64.843-3.305-.832-4.204-2.906-4.063-5.949.097-2.117 1.144-3.422 3.012-4.234 1.335-.586 2.75-.793 4.171-1.016a17 17 0 0 0 2.243-.5c.582-.172.949-.57.925-1.254-.023-.715-.504-1.047-1.066-1.125-1.457-.207-2.98-.629-4.195.692-.067.074-.157.171-.243.18-.914.066-1.832.152-2.746.163-.535.004-1.152.215-1.644-.5" style="stroke:none;fill-rule:nonzero;fill:#4c2b6c;fill-opacity:1"/><path d="M.945 34.547c.555 0 1.121.016 1.68-.004 3.184-.102 6.367-.14 9.543-.336 3.012-.184 6.012-.57 9.023-.797 1.012-.078 2.063-.058 3.055.133 1.352.258 1.77.918 1.79 2.27a6.14 6.14 0 0 1-1.184 3.769c-3.282.168-6.446.32-9.606.5-1.687.094-3.379.191-5.062.367-1.93.203-3.852.512-5.782.735-.863.097-1.742.175-2.605.129-.938-.051-1.598-.614-1.688-1.52-.171-1.785-.28-3.594.836-5.246M4.613 25.059c.14-.032.285-.082.434-.09 3.906-.114 7.812-.192 11.719-.348 1.48-.058 2.949-.363 4.43-.437 2.261-.11 4.527-.153 6.788-.153.871 0 1.563.649 1.711 1.512.246 1.48-.191 2.848-.851 4.152-.246.489-.719.5-1.2.5-1.956.008-3.917-.03-5.87.067-1.993.101-3.981.34-5.97.515-1.429.13-2.863.23-4.288.391-1.371.152-2.739.363-4.11.547q-.075.012-.152.02c-2.332.14-3.707.081-3.543-3.137.066-1.258.242-2.434.902-3.54" style="stroke:none;fill-rule:nonzero;fill:#c0df14;fill-opacity:1"/><path d="M133.563 11.254c.171.77-.094 1.488.21 2.215 1.024 0 1.993.004 2.965 0 .203 0 .426.047.614-.016.367-.125.867-.21 1.05-.488.66-.996-.09-2.39-1.293-2.496-1.195-.102-2.336.082-3.547.785m.07-6.926v4.383c1.312-.168 2.469-.379 3.633-.453 1.972-.13 3.925 1.222 3.87 3.8-.058 2.778-.753 3.626-3.562 3.602-1.531-.012-3.058.14-4.605-.172-.867-.175-1.828.188-2.742.164-.797-.02-1.594-.238-2.68-.418-1.442.696-3.266.54-5.172.192-.219 1.14-.156 2.441-1.379 3.066-.863.438-1.785.781-2.851.399V17.1c.132-.093.203-.171.293-.203 1.242-.433 1.265-.441 1.285-1.718.02-1.39.004-2.782.004-4.172 0-.309-.028-.617.003-.926.106-1.102.551-1.504 1.696-1.543.25-.008.508.031.902.055v3.453c0 .965.281 1.308 1.215 1.41.36.04.723.027 1.082.008.246-.016.488-.086.867-.156.028-.903.067-1.762.074-2.621.024-1.95.317-2.22 2.329-2.06.398.645.128 1.38.19 2.075.036.36.009.719.013 1.082.015 1.422.34 1.738 1.71 1.692.91-.036 1.227-.286 1.27-1.18.047-1.078.016-2.164.02-3.242 0-.88-.004-1.754 0-2.63.007-1.94.304-2.214 2.535-2.097M40.586 28.586v13.016c-1.398.128-2.719.082-4.035.02-.207-.013-.496-.364-.57-.614-.102-.328-.04-.711-.04-1.07V24.039c0-.258-.02-.516.004-.77.258-2.726 1.422-4.328 4.625-4.5.867-.046 1.735-.007 2.547-.007.54 1.508.567 2.242.16 3.91-.71.062-1.46.133-2.375.215-.113.633-.226 1.25-.359 1.996 1.012.062 1.86.117 2.672.168.508 2.281-.04 3.035-2.63 3.535M49.914 41.598h-4.516c-.308-1.184-.351-21.141-.05-22.72a7.4 7.4 0 0 1 2.695-.015c.934.16 1.918 1.028 1.898 2.602-.066 6.164-.027 12.328-.027 18.492zM140.996 41.668c-1.242 0-2.316.004-3.39-.004-.352-.004-.704-.043-1.211-.078-.157-3.793-.051-7.535-.07-11.27-.02-3.757-.005-7.511-.005-11.296 1.02-.395 2-.297 2.938-.149 1.008.16 1.695 1.035 1.804 2.055.036.304.012.617.012.926q.006 9.197 0 18.39c0 .403-.043.805-.078 1.426M82.969 4.406v7.008c0 1.856.254 2.102 2.144 2.055.301-.008.598-.074.98-.121.06-.375.145-.711.16-1.051.028-.567.005-1.133.009-1.7.011-1.894.386-2.202 2.328-1.913.168.754.293 4.68.164 5.336-.207 1.09-.762 1.59-2.086 1.636-1.172.043-2.348-.058-3.621-.101-.043.218-.078.57-.192.894-.43 1.23-1.175 2.106-2.515 2.465-1.356.36-2.64.266-3.91-.27-1.04-.437-1.625-1.312-1.832-2.34-.32-1.6-.067-3.148.941-4.636.711.238 1.367.46 2.11.71-.16.52-.329.938-.407 1.372-.097.547-.199 1.117-.152 1.668.074.922.887 1.535 1.828 1.484.96-.05 1.492-.543 1.508-1.566.039-2.16.02-4.32.023-6.48 0-.872-.011-1.747 0-2.622.028-1.668.551-2.082 2.52-1.828M170.672 27.742h-2.461c-.012-.77-.027-1.472-.031-2.176-.004-1.132.039-2.27-.016-3.398-.039-.867-.543-1.254-1.437-1.254-.93 0-1.282.316-1.301 1.309-.031 1.39-.012 2.78-.012 4.172v1.312h-2.441a51 51 0 0 1-.008-6.18c.055-.918.61-1.632 1.43-2.078 1.28-.691 2.64-.933 4.011-.363.719.297 1.32.332 2.043.016a3.96 3.96 0 0 1 2.719-.165c2.07.594 2.535 1.32 2.738 3.247.188 1.773.04 3.582.04 5.437-.329.082-.567.184-.805.188-1.332.015-1.657-.282-1.684-1.598-.027-1.29.016-2.578-.02-3.863-.027-1.012-.457-1.418-1.402-1.43-.957-.012-1.32.289-1.347 1.266-.04 1.492-.012 2.984-.016 4.476zM159.95 23.46c-.13-.542-.2-1.046-.372-1.519-.223-.628-.676-1-1.394-.988-.704.012-1.157.336-1.41.977-.415 1.054-.364 2.105.066 3.133.242.578.71.843 1.34.859.644.012 1.101-.309 1.336-.86.21-.503.293-1.066.433-1.601m2.433-.233c-.196 1.496-.38 2.753-1.395 3.71-1.207 1.133-2.593 1.297-4.125.864-1.43-.403-2.195-1.387-2.574-2.774-.305-1.12-.285-2.215.02-3.328.476-1.746 1.707-2.781 3.52-2.91 1.858-.137 3.39.742 4.042 2.418.274.703.375 1.473.512 2.02M105.941 11.668c.696.242 1.356.477 2.094.734-.226.743-.465 1.36-.597 1.996-.254 1.274.374 2.293 1.468 2.48 1.145.196 1.946-.452 2.028-1.737.062-.973.015-1.953.02-2.934.003-.36-.024-.723.015-1.082.105-.992 1.129-1.625 2.039-1.215.219.102.453.469.449.711-.027 1.848-.043 3.7-.203 5.54-.125 1.429-1.05 2.35-2.422 2.671-.883.207-1.844.328-2.73.211-1.997-.258-3.262-1.828-3.254-3.863.007-1.239.234-2.438 1.093-3.512M153.473 21.793c-1.059.059-1.871.285-2.715-.496-.961-.899-2.309-.313-2.543.996-.098.547-.082 1.129-.05 1.691.1 1.754 1.44 2.485 2.862 1.477.871-.621 1.68-.555 2.598-.348-.613 1.961-2.062 3-4.023 2.938-1.872-.059-3.18-1.121-3.692-2.926-.363-1.277-.36-2.535.067-3.785.535-1.567 1.898-2.5 3.671-2.55 1.668-.052 3.118.8 3.743 2.218.074.176.047.394.082.785M94.559 13.11c.222-2.38-.047-2.774-2.254-2.672-.348.019-.7-.051-1.176-.09V8.28c1.328 0 2.555-.101 3.758.028 1.472.152 2.23 1.097 2.289 2.605.031.77.035 1.54 0 2.309-.067 1.449-.68 2.23-2.106 2.375-1.32.136-2.664.078-3.992.05-.566-.011-.797-.378-.73-.945.082-.703.55-1.152 1.343-1.21.664-.048 1.336.003 2-.052.282-.023.551-.207.868-.332M101.234 15.586h-2.343V12.16c0-1.953.015-3.906-.012-5.86-.027-1.769.344-2.12 2.297-1.921.074.402.222.84.226 1.277.02 3.035.016 6.067.008 9.098-.004.242-.101.484-.176.832M117.43 4.406c.254 1.317.246 9.903-.012 11.121-.04.036-.074.094-.117.098-2.164.215-2.215.168-2.219-2.047 0-2.46-.023-4.922 0-7.383.016-1.636.61-2.066 2.348-1.789M101.96 3.582h-3.897c.222-.934.308-1.805.644-2.57.55-1.242 1.996-1.332 3.121-.285-.187 1.328-1.148.242-1.668.527-.305.969-.27 1.074.434 1.164.3.043.62-.016.914.05.488.11.652.442.453 1.114M87.574 18.855c-.031-.168-.086-.359-.094-.558-.015-.402-.003-.805-.003-1.313h2.003c.649 2.008-.238 2.426-1.906 1.871" style="stroke:none;fill-rule:nonzero;fill:#4c2b6c;fill-opacity:1"/><path d="M127.129 16.957h1.832v1.906c-1.672.563-2.598.102-1.832-1.906M108.418 8.664c-.164-1.672.187-2.008 1.95-1.867v1.777c-.645.422-1.302.344-1.95.09M126.48 17.004v1.844c-.37.074-.703.18-1.039.203-.402.027-.859.043-1.027-.442-.16-.46-.043-.894.293-1.265.473-.528 1.035-.543 1.773-.34M86.906 16.941v2.043c-.336.032-.578.078-.824.07-.484-.019-1.086.134-1.238-.57-.14-.66.414-1.449 1.113-1.578.281-.05.586.02.95.035M142.914 27.703c.047-1.492.297-1.84 1.29-2 .491-.078.804.11.847.602.039.441.008.886.008 1.37a4.34 4.34 0 0 1-2.145.028" style="stroke:none;fill-rule:nonzero;fill:#4c2b6c;fill-opacity:1"/></svg>