<?xml version="1.0" encoding="UTF-8"?>
<svg xmlns="http://www.w3.org/2000/svg" xmlns:xlink="http://www.w3.org/1999/xlink" width="140.72pt" height="59pt" viewBox="0 0 140.72 59" version="1.1">
<defs>
<clipPath id="clip1">
  <path d="M 138 36 L 140.71875 36 L 140.71875 39 L 138 39 Z M 138 36 "/>
</clipPath>
</defs>
<g id="surface1">
<path style=" stroke:none;fill-rule:nonzero;fill:rgb(13.729858%,12.159729%,12.548828%);fill-opacity:1;" d="M 15.417969 59 C 6.917969 59.039062 -0.0195312 52.011719 0 43.546875 C 0.0195312 35.105469 6.890625 28.097656 15.496094 28.128906 C 24.007812 28.160156 30.90625 35.074219 30.875 43.628906 C 30.839844 52.238281 23.816406 59.058594 15.417969 59 "/>
<path style=" stroke:none;fill-rule:nonzero;fill:rgb(13.729858%,12.159729%,12.548828%);fill-opacity:1;" d="M 30.292969 15.925781 C 30.316406 16.078125 30.332031 16.339844 30.390625 16.589844 C 30.796875 18.351562 32.523438 19.109375 33.78125 18.875 C 35.214844 18.605469 36.335938 17.417969 36.34375 15.796875 C 36.347656 15.105469 36.125 14.460938 35.671875 13.917969 C 34.925781 13.027344 33.964844 12.601562 32.816406 12.800781 C 31.273438 13.066406 30.328125 14.285156 30.292969 15.925781 Z M 41.679688 23.457031 C 39.910156 23.457031 38.160156 23.457031 36.378906 23.457031 C 36.378906 22.847656 36.378906 22.246094 36.378906 21.617188 C 36.320312 21.644531 36.285156 21.648438 36.265625 21.664062 C 35.464844 22.480469 34.488281 23.003906 33.394531 23.269531 C 31.550781 23.71875 29.792969 23.480469 28.183594 22.4375 C 27.046875 21.699219 26.308594 20.632812 25.847656 19.371094 C 25.527344 18.5 25.339844 17.597656 25.308594 16.667969 C 25.292969 16.296875 25.25 15.925781 25.265625 15.558594 C 25.320312 14.089844 25.605469 12.675781 26.347656 11.386719 C 27.273438 9.785156 28.628906 8.753906 30.429688 8.328125 C 31.328125 8.113281 32.234375 8.125 33.148438 8.230469 C 33.878906 8.320312 34.570312 8.507812 35.230469 8.828125 C 35.878906 9.140625 36.410156 9.589844 36.863281 10.140625 C 36.894531 10.175781 36.921875 10.210938 36.988281 10.289062 C 37.175781 9.566406 37.246094 8.859375 37.429688 8.175781 C 38.851562 8.175781 40.253906 8.175781 41.679688 8.175781 C 41.679688 13.261719 41.679688 18.335938 41.679688 23.457031 "/>
<path style=" stroke:none;fill-rule:nonzero;fill:rgb(13.729858%,12.159729%,12.548828%);fill-opacity:1;" d="M 43.046875 46.746094 C 44.492188 46.78125 46.058594 45.582031 46.078125 43.703125 C 46.09375 41.875 44.507812 40.648438 43.097656 40.636719 C 41.550781 40.621094 40.089844 41.867188 40.078125 43.632812 C 40.066406 45.605469 41.578125 46.761719 43.046875 46.746094 Z M 46.734375 38.207031 C 46.875 37.476562 47.007812 36.789062 47.144531 36.066406 C 48.550781 36.054688 49.953125 36.066406 51.394531 36.0625 C 51.421875 36.429688 51.402344 36.785156 51.40625 37.136719 C 51.410156 37.496094 51.40625 37.851562 51.40625 38.210938 C 51.40625 38.582031 51.40625 38.953125 51.40625 39.324219 C 51.40625 39.683594 51.40625 40.039062 51.40625 40.398438 C 51.40625 40.757812 51.40625 41.117188 51.40625 41.472656 C 51.40625 41.832031 51.40625 42.191406 51.40625 42.550781 C 51.40625 42.917969 51.40625 43.289062 51.40625 43.660156 C 51.40625 44.019531 51.40625 44.378906 51.40625 44.734375 C 51.40625 45.09375 51.40625 45.453125 51.40625 45.8125 C 51.40625 46.167969 51.40625 46.527344 51.40625 46.886719 C 51.40625 47.246094 51.40625 47.601562 51.40625 47.960938 C 51.40625 48.332031 51.40625 48.703125 51.40625 49.074219 C 51.40625 49.433594 51.40625 49.789062 51.40625 50.148438 C 51.40625 50.507812 51.40625 50.863281 51.40625 51.195312 C 51.382812 51.230469 51.378906 51.242188 51.367188 51.25 C 51.359375 51.257812 51.347656 51.265625 51.335938 51.265625 C 49.644531 51.269531 47.953125 51.273438 46.257812 51.28125 C 46.214844 51.28125 46.167969 51.269531 46.09375 51.257812 C 46.09375 50.644531 46.09375 50.042969 46.09375 49.410156 C 45.847656 49.625 45.652344 49.828125 45.425781 49.996094 C 44.507812 50.675781 43.480469 51.144531 42.347656 51.246094 C 40.152344 51.445312 38.207031 50.882812 36.734375 49.136719 C 36.144531 48.4375 35.753906 47.628906 35.496094 46.757812 C 35.265625 45.988281 35.121094 45.203125 35.105469 44.398438 C 35.085938 43.644531 35.070312 42.894531 35.183594 42.144531 C 35.417969 40.597656 35.972656 39.191406 37.050781 38.039062 C 38.074219 36.945312 39.34375 36.3125 40.832031 36.128906 C 42.128906 35.96875 43.386719 36.097656 44.605469 36.570312 C 45.460938 36.898438 46.140625 37.449219 46.734375 38.207031 "/>
<path style=" stroke:none;fill-rule:nonzero;fill:rgb(13.729858%,12.159729%,12.548828%);fill-opacity:1;" d="M 95.390625 38.175781 C 95.609375 37.960938 95.78125 37.78125 95.960938 37.613281 C 96.84375 36.785156 97.894531 36.3125 99.085938 36.140625 C 99.472656 36.082031 99.871094 36.066406 100.265625 36.050781 C 101.382812 36.011719 102.371094 36.386719 103.257812 37.046875 C 104.519531 37.992188 105.242188 39.273438 105.574219 40.800781 C 105.699219 41.371094 105.738281 41.949219 105.738281 42.527344 C 105.738281 45.34375 105.738281 48.164062 105.738281 50.980469 C 105.738281 51.066406 105.730469 51.148438 105.726562 51.25 C 104.195312 51.25 102.679688 51.25 101.136719 51.25 C 101.128906 51.117188 101.121094 50.988281 101.121094 50.855469 C 101.121094 48.605469 101.121094 46.355469 101.121094 44.105469 C 101.121094 43.636719 101.066406 43.175781 100.910156 42.726562 C 100.605469 41.816406 99.722656 41.265625 98.894531 41.238281 C 98.304688 41.21875 97.742188 41.289062 97.222656 41.597656 C 96.585938 41.976562 96.226562 42.542969 96.085938 43.25 C 96.023438 43.5625 96.003906 43.886719 96.003906 44.207031 C 95.996094 46.40625 96 48.605469 96 50.804688 C 96 50.941406 96 51.078125 96 51.210938 C 95.714844 51.289062 91.636719 51.320312 90.488281 51.253906 C 90.476562 51.246094 90.46875 51.238281 90.460938 51.230469 C 90.453125 51.21875 90.445312 51.207031 90.445312 51.199219 C 90.445312 46.191406 90.441406 41.183594 90.441406 36.179688 C 90.441406 36.144531 90.457031 36.109375 90.46875 36.0625 C 91.953125 36.0625 93.433594 36.0625 94.949219 36.0625 C 95.144531 36.730469 95.207031 37.4375 95.390625 38.175781 "/>
<path style=" stroke:none;fill-rule:nonzero;fill:rgb(13.729858%,12.159729%,12.548828%);fill-opacity:1;" d="M 15.125 0.171875 C 15.125 1.59375 15.125 2.996094 15.125 4.4375 C 14.957031 4.445312 14.816406 4.453125 14.671875 4.453125 C 14.074219 4.445312 13.492188 4.515625 12.925781 4.722656 C 12.007812 5.058594 11.445312 5.707031 11.226562 6.65625 C 11.121094 7.121094 11.15625 7.589844 11.144531 8.050781 C 11.261719 8.152344 11.390625 8.113281 11.507812 8.113281 C 12.730469 8.113281 13.957031 8.113281 15.179688 8.113281 C 15.296875 8.113281 15.417969 8.113281 15.53125 8.113281 C 15.601562 8.425781 15.625 11.8125 15.566406 12.550781 C 15.117188 12.578125 14.667969 12.558594 14.214844 12.5625 C 13.757812 12.566406 13.300781 12.5625 12.84375 12.5625 C 12.390625 12.5625 11.933594 12.5625 11.441406 12.5625 C 11.441406 16.207031 11.441406 19.820312 11.441406 23.453125 C 9.554688 23.453125 7.707031 23.453125 5.820312 23.453125 C 5.820312 19.832031 5.820312 16.21875 5.820312 12.570312 C 5.261719 12.570312 4.734375 12.570312 4.21875 12.570312 C 4.15625 12.253906 4.148438 8.503906 4.207031 8.117188 C 4.726562 8.117188 5.253906 8.117188 5.816406 8.117188 C 5.816406 7.96875 5.8125 7.847656 5.816406 7.726562 C 5.839844 7.136719 5.824219 6.539062 5.894531 5.953125 C 6.054688 4.648438 6.554688 3.484375 7.441406 2.503906 C 8.464844 1.371094 9.761719 0.730469 11.222656 0.394531 C 11.871094 0.242188 12.53125 0.15625 13.199219 0.15625 C 13.757812 0.15625 14.3125 0.152344 14.867188 0.15625 C 14.953125 0.15625 15.035156 0.164062 15.125 0.171875 "/>
<path style=" stroke:none;fill-rule:nonzero;fill:rgb(13.729858%,12.159729%,12.548828%);fill-opacity:1;" d="M 112.710938 42.050781 C 114.175781 42.050781 115.609375 42.050781 117.046875 42.050781 C 117.128906 40.917969 116.125 39.871094 114.910156 39.867188 C 113.671875 39.863281 112.714844 40.839844 112.710938 42.050781 Z M 122.164062 44.960938 C 118.976562 44.960938 115.8125 44.960938 112.644531 44.960938 C 112.765625 45.71875 113.171875 46.269531 113.738281 46.691406 C 114.519531 47.273438 115.402344 47.492188 116.386719 47.363281 C 117.289062 47.242188 118.0625 46.890625 118.738281 46.300781 C 118.777344 46.269531 118.820312 46.246094 118.878906 46.210938 C 119.589844 47.199219 120.289062 48.179688 120.996094 49.167969 C 120.605469 49.558594 120.152344 49.835938 119.6875 50.09375 C 118.796875 50.585938 117.84375 50.890625 116.835938 51.0625 C 116.015625 51.207031 115.1875 51.246094 114.363281 51.179688 C 112.78125 51.0625 111.339844 50.539062 110.089844 49.527344 C 108.738281 48.433594 107.945312 47.003906 107.59375 45.320312 C 107.441406 44.59375 107.386719 43.855469 107.441406 43.113281 C 107.550781 41.648438 107.964844 40.285156 108.824219 39.078125 C 109.804688 37.703125 111.128906 36.832031 112.730469 36.367188 C 113.636719 36.105469 114.570312 36.011719 115.511719 36.078125 C 118.652344 36.300781 121.089844 38.230469 121.960938 41.210938 C 122.277344 42.300781 122.351562 43.414062 122.199219 44.539062 C 122.183594 44.660156 122.179688 44.785156 122.164062 44.960938 "/>
<path style=" stroke:none;fill-rule:nonzero;fill:rgb(13.729858%,12.159729%,12.548828%);fill-opacity:1;" d="M 23.214844 23.457031 C 21.347656 23.457031 19.5 23.457031 17.632812 23.457031 C 17.632812 15.691406 17.632812 7.9375 17.632812 0.167969 C 19.496094 0.167969 21.34375 0.167969 23.214844 0.167969 C 23.214844 7.933594 23.214844 15.6875 23.214844 23.457031 "/>
<path style=" stroke:none;fill-rule:nonzero;fill:rgb(13.729858%,12.159729%,12.548828%);fill-opacity:1;" d="M 74.050781 27.988281 C 75.90625 27.988281 77.730469 27.988281 79.574219 27.988281 C 79.574219 35.746094 79.574219 43.488281 79.574219 51.226562 C 79.5625 51.238281 79.554688 51.25 79.542969 51.257812 C 79.535156 51.265625 79.523438 51.269531 79.511719 51.269531 C 77.730469 51.273438 75.953125 51.277344 74.171875 51.28125 C 74.140625 51.28125 74.105469 51.265625 74.050781 51.25 C 74.050781 43.507812 74.050781 35.765625 74.050781 27.988281 "/>
<path style=" stroke:none;fill-rule:nonzero;fill:rgb(13.729858%,12.159729%,12.548828%);fill-opacity:1;" d="M 134.757812 37.972656 C 134.191406 38.988281 133.644531 39.972656 133.09375 40.964844 C 132.792969 40.773438 132.523438 40.597656 132.257812 40.425781 C 131.523438 39.960938 130.714844 39.726562 129.855469 39.640625 C 129.585938 39.609375 129.316406 39.648438 129.058594 39.738281 C 128.738281 39.851562 128.5 40.050781 128.34375 40.390625 C 128.34375 40.480469 128.34375 40.601562 128.34375 40.730469 C 128.46875 40.960938 128.691406 41.078125 128.917969 41.167969 C 129.394531 41.363281 129.882812 41.535156 130.371094 41.703125 C 131.1875 41.976562 132 42.257812 132.769531 42.660156 C 133.164062 42.867188 133.53125 43.113281 133.863281 43.410156 C 134.527344 43.988281 134.890625 44.738281 134.992188 45.59375 C 135.078125 46.328125 135.082031 47.066406 134.886719 47.796875 C 134.574219 48.972656 133.878906 49.839844 132.828125 50.429688 C 132.035156 50.875 131.167969 51.09375 130.269531 51.207031 C 129.601562 51.292969 128.9375 51.296875 128.269531 51.261719 C 126.449219 51.167969 124.800781 50.597656 123.363281 49.449219 C 123.238281 49.351562 123.117188 49.25 122.96875 49.125 C 123.675781 48.207031 124.402344 47.328125 125.117188 46.421875 C 125.308594 46.570312 125.472656 46.699219 125.640625 46.820312 C 126.507812 47.441406 127.480469 47.753906 128.542969 47.769531 C 128.785156 47.773438 129.039062 47.753906 129.277344 47.695312 C 129.6875 47.589844 130.039062 47.394531 130.09375 46.886719 C 130.089844 46.65625 129.949219 46.492188 129.738281 46.386719 C 129.574219 46.300781 129.410156 46.210938 129.238281 46.148438 C 128.578125 45.921875 127.90625 45.710938 127.246094 45.480469 C 126.554688 45.242188 125.898438 44.933594 125.300781 44.511719 C 124.410156 43.886719 123.785156 43.070312 123.5625 41.984375 C 123.457031 41.464844 123.433594 40.945312 123.503906 40.40625 C 123.574219 39.824219 123.730469 39.273438 123.992188 38.753906 C 124.363281 38.019531 124.925781 37.453125 125.621094 37.027344 C 126.378906 36.5625 127.207031 36.3125 128.089844 36.199219 C 128.667969 36.121094 129.246094 36.117188 129.824219 36.152344 C 131.421875 36.238281 132.886719 36.738281 134.222656 37.613281 C 134.394531 37.726562 134.566406 37.84375 134.757812 37.972656 "/>
<path style=" stroke:none;fill-rule:nonzero;fill:rgb(13.729858%,12.159729%,12.548828%);fill-opacity:1;" d="M 62.316406 8.109375 C 62.316406 9.960938 62.316406 11.777344 62.316406 13.589844 C 61.90625 13.589844 61.492188 13.570312 61.082031 13.59375 C 60.480469 13.625 59.914062 13.785156 59.40625 14.113281 C 58.675781 14.585938 58.246094 15.269531 58.027344 16.101562 C 57.878906 16.664062 57.824219 17.238281 57.820312 17.820312 C 57.816406 19.550781 57.820312 21.277344 57.820312 23.007812 C 57.820312 23.144531 57.820312 23.277344 57.820312 23.40625 C 57.5 23.46875 53.429688 23.492188 52.414062 23.441406 C 52.359375 23.082031 52.394531 22.714844 52.390625 22.347656 C 52.382812 21.992188 52.386719 21.632812 52.386719 21.273438 C 52.386719 20.902344 52.386719 20.53125 52.386719 20.160156 C 52.386719 19.804688 52.386719 19.445312 52.386719 19.085938 C 52.386719 18.71875 52.386719 18.347656 52.386719 17.976562 C 52.386719 17.617188 52.386719 17.257812 52.386719 16.902344 C 52.386719 16.53125 52.386719 16.160156 52.386719 15.789062 C 52.386719 15.429688 52.386719 15.070312 52.386719 14.714844 C 52.386719 14.34375 52.386719 13.972656 52.386719 13.601562 C 52.386719 13.242188 52.386719 12.886719 52.386719 12.527344 C 52.386719 12.15625 52.386719 11.785156 52.386719 11.414062 C 52.386719 11.054688 52.386719 10.699219 52.386719 10.339844 C 52.386719 9.96875 52.386719 9.597656 52.386719 9.226562 C 52.386719 8.871094 52.386719 8.515625 52.386719 8.160156 C 52.667969 8.101562 56.433594 8.085938 56.945312 8.140625 C 57.085938 8.832031 57.230469 9.535156 57.382812 10.273438 C 57.5625 10.0625 57.710938 9.878906 57.863281 9.707031 C 58.480469 9.011719 59.257812 8.578125 60.152344 8.351562 C 60.847656 8.175781 61.558594 8.125 62.316406 8.109375 "/>
<path style=" stroke:none;fill-rule:nonzero;fill:rgb(13.729858%,12.159729%,12.548828%);fill-opacity:1;" d="M 67.613281 51.25 C 65.785156 51.25 64.007812 51.25 62.21875 51.25 C 62.21875 46.183594 62.21875 41.136719 62.21875 36.089844 C 62.5 36.035156 66.347656 36.023438 66.757812 36.078125 C 66.898438 36.753906 67.035156 37.4375 67.1875 38.179688 C 67.839844 37.28125 68.632812 36.640625 69.664062 36.335938 C 70.441406 36.105469 71.3125 35.996094 72.089844 36.074219 C 72.089844 37.859375 72.089844 39.648438 72.089844 41.460938 C 71.902344 41.503906 71.710938 41.46875 71.519531 41.457031 C 69.78125 41.351562 68.285156 42.144531 67.816406 43.988281 C 67.71875 44.371094 67.65625 44.761719 67.65625 45.15625 C 67.644531 47.046875 67.628906 48.933594 67.613281 50.824219 C 67.613281 50.957031 67.613281 51.09375 67.613281 51.25 "/>
<path style=" stroke:none;fill-rule:nonzero;fill:rgb(13.729858%,12.159729%,12.548828%);fill-opacity:1;" d="M 53.964844 36.058594 C 55.867188 36.058594 57.730469 36.058594 59.585938 36.058594 C 59.601562 36.078125 59.609375 36.085938 59.617188 36.09375 C 59.625 36.101562 59.636719 36.113281 59.636719 36.125 C 59.640625 36.171875 59.644531 36.222656 59.644531 36.273438 C 59.644531 41.253906 59.644531 46.234375 59.644531 51.207031 C 59.359375 51.285156 54.945312 51.3125 54.015625 51.25 C 54.007812 51.242188 53.996094 51.234375 53.988281 51.222656 C 53.980469 51.214844 53.972656 51.203125 53.972656 51.191406 C 53.96875 51.09375 53.964844 50.996094 53.964844 50.894531 C 53.964844 45.964844 53.964844 41.035156 53.964844 36.058594 "/>
<path style=" stroke:none;fill-rule:nonzero;fill:rgb(13.729858%,12.159729%,12.548828%);fill-opacity:1;" d="M 49.878906 23.4375 C 47.96875 23.4375 46.105469 23.4375 44.230469 23.4375 C 44.230469 18.332031 44.230469 13.242188 44.230469 8.15625 C 44.527344 8.09375 48.867188 8.070312 49.820312 8.125 C 49.832031 8.132812 49.839844 8.140625 49.847656 8.148438 C 49.855469 8.160156 49.863281 8.167969 49.863281 8.179688 C 49.871094 8.253906 49.878906 8.328125 49.878906 8.402344 C 49.878906 13.40625 49.878906 18.410156 49.878906 23.4375 "/>
<path style=" stroke:none;fill-rule:nonzero;fill:rgb(13.729858%,12.159729%,12.548828%);fill-opacity:1;" d="M 87.859375 51.253906 C 85.960938 51.253906 84.109375 51.253906 82.261719 51.253906 C 82.203125 50.96875 82.195312 36.4375 82.253906 36.058594 C 84.101562 36.058594 85.949219 36.058594 87.804688 36.058594 C 87.808594 36.066406 87.816406 36.074219 87.824219 36.082031 C 87.835938 36.09375 87.847656 36.101562 87.847656 36.109375 C 87.855469 36.195312 87.859375 36.28125 87.859375 36.367188 C 87.859375 41.320312 87.859375 46.273438 87.859375 51.253906 "/>
<path style=" stroke:none;fill-rule:nonzero;fill:rgb(13.729858%,12.159729%,12.548828%);fill-opacity:1;" d="M 47.074219 0.00390625 C 48.753906 -0.0429688 50.277344 1.417969 50.246094 3.25 C 50.21875 4.972656 48.773438 6.425781 46.992188 6.398438 C 45.28125 6.375 43.828125 4.925781 43.839844 3.152344 C 43.851562 1.472656 45.300781 -0.0664062 47.074219 0.00390625 "/>
<path style=" stroke:none;fill-rule:nonzero;fill:rgb(13.729858%,12.159729%,12.548828%);fill-opacity:1;" d="M 85.085938 34.300781 C 83.371094 34.367188 81.898438 32.871094 81.886719 31.15625 C 81.878906 29.402344 83.351562 27.96875 85.039062 27.953125 C 86.625 27.933594 88.246094 29.199219 88.25 31.128906 C 88.257812 33.015625 86.683594 34.355469 85.085938 34.300781 "/>
<path style=" stroke:none;fill-rule:nonzero;fill:rgb(13.729858%,12.159729%,12.548828%);fill-opacity:1;" d="M 56.796875 34.300781 C 55.105469 34.359375 53.625 32.855469 53.621094 31.136719 C 53.621094 29.425781 55.082031 27.9375 56.828125 27.953125 C 58.527344 27.964844 59.988281 29.40625 59.984375 31.148438 C 59.976562 32.808594 58.566406 34.363281 56.796875 34.300781 "/>
<g clip-path="url(#clip1)" clip-rule="nonzero">
<path style=" stroke:none;fill-rule:nonzero;fill:rgb(13.729858%,12.159729%,12.548828%);fill-opacity:1;" d="M 140.289062 36.46875 C 140.433594 36.46875 140.554688 36.46875 140.664062 36.46875 C 140.730469 36.761719 140.746094 38.277344 140.691406 38.871094 C 140.628906 38.875 140.558594 38.886719 140.488281 38.890625 C 140.429688 38.890625 140.371094 38.882812 140.28125 38.871094 C 140.28125 38.355469 140.28125 37.855469 140.28125 37.277344 C 140.035156 37.703125 139.832031 38.050781 139.621094 38.414062 C 139.539062 38.417969 139.453125 38.425781 139.355469 38.433594 C 139.144531 38.074219 138.933594 37.714844 138.683594 37.289062 C 138.636719 37.855469 138.683594 38.347656 138.652344 38.867188 C 138.53125 38.867188 138.414062 38.867188 138.285156 38.867188 C 138.285156 38.070312 138.285156 37.28125 138.285156 36.464844 C 138.40625 36.457031 138.523438 36.453125 138.65625 36.445312 C 138.925781 36.921875 139.1875 37.390625 139.480469 37.910156 C 139.773438 37.390625 140.035156 36.921875 140.289062 36.46875 "/>
</g>
<path style=" stroke:none;fill-rule:nonzero;fill:rgb(13.729858%,12.159729%,12.548828%);fill-opacity:1;" d="M 136.8125 36.820312 C 136.574219 36.820312 136.367188 36.820312 136.148438 36.820312 C 136.148438 36.683594 136.148438 36.578125 136.148438 36.464844 C 136.742188 36.464844 137.316406 36.464844 137.90625 36.464844 C 137.914062 36.574219 137.921875 36.667969 137.929688 36.796875 C 137.808594 36.804688 137.703125 36.8125 137.597656 36.816406 C 137.496094 36.820312 137.398438 36.816406 137.285156 36.816406 C 137.195312 37.03125 137.253906 37.253906 137.242188 37.46875 C 137.234375 37.703125 137.242188 37.9375 137.242188 38.171875 C 137.242188 38.394531 137.242188 38.613281 137.242188 38.855469 C 137.164062 38.871094 137.097656 38.886719 137.027344 38.890625 C 136.96875 38.890625 136.910156 38.878906 136.8125 38.871094 C 136.8125 38.191406 136.8125 37.523438 136.8125 36.820312 "/>
</g>
</svg>
