<?xml version="1.0" encoding="UTF-8"?>
<svg xmlns="http://www.w3.org/2000/svg" xmlns:xlink="http://www.w3.org/1999/xlink" width="176pt" height="53.85pt" viewBox="0 0 176 53.85" version="1.1">
<defs>
<clipPath id="clip1">
  <path d="M 30 8 L 57 8 L 57 53.851562 L 30 53.851562 Z M 30 8 "/>
</clipPath>
<clipPath id="clip2">
  <path d="M 36 45 L 42 45 L 42 53.851562 L 36 53.851562 Z M 36 45 "/>
</clipPath>
</defs>
<g id="surface1">
<path style=" stroke:none;fill-rule:nonzero;fill:rgb(92.494202%,1.40686%,55.52063%);fill-opacity:1;" d="M 0.257812 27.585938 C 0.546875 23.894531 0.835938 20.207031 1.121094 16.515625 C 1.226562 15.105469 1.335938 13.699219 1.421875 12.285156 C 1.550781 10.195312 1.65625 8.101562 1.785156 6.007812 C 1.886719 4.351562 2 2.699219 2.121094 1.046875 C 2.136719 0.863281 2.234375 0.6875 2.285156 0.53125 C 3.402344 0.300781 21.09375 0.230469 23.417969 0.449219 C 23.535156 2.3125 22.96875 4.152344 23.199219 6.160156 C 18.53125 6.160156 14.058594 6.160156 9.484375 6.160156 C 9.296875 8.316406 9.121094 10.335938 8.929688 12.511719 C 10.320312 12.738281 11.671875 12.59375 13.015625 12.621094 C 14.382812 12.644531 15.753906 12.625 17.121094 12.625 C 18.488281 12.625 19.851562 12.625 21.277344 12.625 C 21.75 14.539062 20.9375 16.3125 21.167969 18.246094 C 16.882812 18.246094 12.792969 18.246094 8.621094 18.246094 C 8.023438 22.441406 8.082031 26.582031 7.5625 30.753906 C 6.316406 31.054688 5.054688 30.863281 3.808594 30.886719 C 2.539062 30.914062 1.269531 30.859375 0 30.84375 C 0 30.546875 0 30.253906 0 29.960938 C 0.5625 29.222656 0.210938 28.382812 0.257812 27.585938 "/>
<path style=" stroke:none;fill-rule:nonzero;fill:rgb(92.494202%,1.40686%,55.52063%);fill-opacity:1;" d="M 0.257812 27.585938 C 0.210938 28.382812 0.5625 29.222656 0 29.960938 C 0 29.179688 0 28.394531 0 27.613281 C 0.0859375 27.609375 0.171875 27.597656 0.257812 27.585938 "/>
<path style=" stroke:none;fill-rule:nonzero;fill:rgb(27.186584%,58.413696%,84.403992%);fill-opacity:1;" d="M 56.246094 29.164062 C 56.390625 26.824219 56.535156 24.511719 56.675781 22.242188 C 57.332031 21.898438 57.75 22.238281 58.105469 22.527344 C 60.195312 24.242188 62.644531 25.167969 65.234375 25.714844 C 67.4375 26.175781 69.667969 26.074219 71.851562 25.515625 C 72.738281 25.289062 73.375 24.671875 73.917969 23.863281 C 73.933594 23.675781 73.949219 23.4375 73.972656 23.195312 C 74.082031 22.003906 73.539062 21.21875 72.4375 20.835938 C 71.519531 20.519531 70.589844 20.230469 69.652344 19.996094 C 67.957031 19.570312 66.234375 19.261719 64.554688 18.789062 C 62.664062 18.261719 60.898438 17.460938 59.511719 15.984375 C 58.425781 14.828125 57.820312 13.496094 57.796875 11.910156 C 57.777344 10.253906 57.710938 8.617188 58.523438 7.054688 C 59.175781 5.800781 60.089844 4.8125 61.15625 3.957031 C 62.980469 2.5 65.101562 1.636719 67.382812 1.222656 C 70.082031 0.734375 72.792969 0.777344 75.523438 1.128906 C 77.757812 1.421875 79.90625 1.945312 82.144531 2.820312 C 82.015625 5.035156 81.882812 7.28125 81.757812 9.402344 C 81.058594 9.914062 80.710938 9.5 80.308594 9.234375 C 78.511719 8.042969 76.621094 7.027344 74.480469 6.621094 C 72.367188 6.21875 70.246094 6.113281 68.160156 6.789062 C 67.21875 7.097656 66.355469 7.539062 65.773438 8.519531 C 65.773438 8.976562 65.773438 9.507812 65.773438 10.058594 C 66.277344 11.035156 67.160156 11.507812 68.195312 11.742188 C 70.039062 12.15625 71.902344 12.511719 73.734375 12.964844 C 75.585938 13.421875 77.429688 13.988281 79.007812 15.0625 C 80.671875 16.195312 81.753906 17.722656 81.945312 19.875 C 82.128906 21.933594 81.875 23.847656 80.820312 25.601562 C 79.851562 27.21875 78.460938 28.453125 76.832031 29.394531 C 74.507812 30.734375 71.972656 31.355469 69.304688 31.425781 C 67.792969 31.464844 66.269531 31.503906 64.761719 31.40625 C 61.832031 31.21875 59.027344 30.507812 56.246094 29.164062 "/>
<g clip-path="url(#clip1)" clip-rule="nonzero">
<path style=" stroke:none;fill-rule:nonzero;fill:rgb(92.494202%,1.40686%,55.52063%);fill-opacity:1;" d="M 36.722656 53.46875 C 36.570312 53.578125 36.421875 53.691406 36.210938 53.851562 C 34.160156 52.53125 32.726562 50.566406 30.714844 49.058594 C 33.617188 43.054688 36.496094 37.09375 39.410156 31.070312 C 37.160156 23.730469 34.910156 16.382812 32.632812 8.9375 C 35.054688 8.9375 37.382812 8.9375 39.886719 8.9375 C 41.207031 13.546875 42.539062 18.199219 43.871094 22.851562 C 43.957031 22.863281 44.042969 22.875 44.128906 22.886719 C 46.019531 18.273438 47.910156 13.660156 49.785156 9.082031 C 50.910156 8.800781 55.363281 8.765625 56.882812 9.023438 C 56.777344 9.300781 56.691406 9.570312 56.574219 9.820312 C 54.167969 14.945312 51.753906 20.066406 49.359375 25.195312 C 46.691406 30.898438 44.042969 36.609375 41.386719 42.316406 C 40.808594 43.554688 40.226562 44.785156 39.644531 46.023438 C 39.019531 47.382812 38.394531 48.746094 37.773438 50.109375 C 37.351562 51.035156 36.921875 51.953125 36.539062 52.894531 C 36.480469 53.035156 36.65625 53.273438 36.722656 53.46875 "/>
</g>
<path style=" stroke:none;fill-rule:nonzero;fill:rgb(27.186584%,58.413696%,84.403992%);fill-opacity:1;" d="M 90.382812 25.292969 C 92.167969 27.296875 95.691406 27.183594 97.929688 25.171875 C 98.375 23.710938 98.390625 22.230469 98.261719 20.574219 C 96.988281 20.710938 95.800781 20.792969 94.625 20.976562 C 93.816406 21.101562 92.996094 21.277344 92.238281 21.578125 C 91.066406 22.042969 90.335938 22.902344 90.382812 24.257812 C 90.394531 24.597656 90.382812 24.9375 90.382812 25.292969 Z M 85.832031 14.664062 C 85.445312 12.832031 85.953125 11.117188 86.050781 9.210938 C 86.699219 9.070312 87.390625 8.890625 88.089844 8.78125 C 89.429688 8.574219 90.773438 8.394531 92.121094 8.230469 C 93.082031 8.117188 94.058594 7.929688 95.015625 7.992188 C 96.902344 8.109375 98.8125 8.222656 100.648438 8.625 C 102.863281 9.113281 104.773438 10.226562 105.570312 12.550781 C 106.085938 14.050781 106.027344 15.621094 105.855469 17.179688 C 105.820312 17.46875 105.699219 17.75 105.683594 18.035156 C 105.5625 20.125 105.484375 22.214844 105.34375 24.304688 C 105.195312 26.523438 104.988281 28.738281 104.804688 31.027344 C 102.429688 31.027344 100.199219 31.027344 97.816406 31.027344 C 97.773438 30.347656 97.734375 29.648438 97.6875 28.859375 C 96.984375 29.308594 96.355469 29.679688 95.761719 30.097656 C 94.570312 30.933594 93.21875 31.226562 91.8125 31.472656 C 90.539062 31.699219 89.320312 31.691406 88.0625 31.433594 C 85.714844 30.957031 83.355469 28.851562 83.109375 26.625 C 82.660156 22.578125 83.660156 19.800781 87.96875 18.011719 C 89.902344 17.207031 91.972656 16.855469 94.074219 16.734375 C 95.574219 16.648438 97.066406 16.460938 98.558594 16.316406 C 98.976562 15.320312 98.566406 14.113281 97.492188 13.746094 C 96.359375 13.359375 95.152344 13.109375 93.960938 12.976562 C 91.828125 12.738281 89.832031 13.453125 87.835938 14.066406 C 87.191406 14.261719 86.546875 14.453125 85.832031 14.664062 "/>
<path style=" stroke:none;fill-rule:nonzero;fill:rgb(27.186584%,58.413696%,84.403992%);fill-opacity:1;" d="M 137.902344 20.515625 C 136.101562 20.753906 134.511719 20.898438 132.949219 21.195312 C 132.210938 21.335938 131.445312 21.65625 130.84375 22.097656 C 129.917969 22.773438 129.585938 23.820312 129.78125 24.953125 C 129.964844 26.03125 130.871094 26.5 131.765625 26.652344 C 133.914062 27.019531 135.902344 26.535156 137.566406 25.136719 C 137.675781 23.613281 137.78125 22.179688 137.902344 20.515625 Z M 125.199219 14.554688 C 125.273438 12.671875 125.339844 11.035156 125.402344 9.433594 C 126.449219 8.652344 127.628906 8.777344 128.695312 8.566406 C 130.167969 8.273438 131.671875 8.101562 133.167969 7.996094 C 135.210938 7.851562 137.246094 8.121094 139.253906 8.46875 C 140.496094 8.683594 141.722656 9.007812 142.804688 9.726562 C 144.4375 10.804688 145.3125 12.320312 145.28125 14.253906 C 145.234375 17.222656 145.109375 20.195312 144.945312 23.160156 C 144.816406 25.535156 144.582031 27.90625 144.386719 30.277344 C 144.371094 30.464844 144.3125 30.652344 144.238281 30.988281 C 141.988281 31.246094 139.730469 31.0625 137.40625 31.113281 C 137.359375 30.28125 137.324219 29.613281 137.277344 28.816406 C 136.859375 29.082031 136.523438 29.257812 136.226562 29.488281 C 134.390625 30.917969 132.246094 31.582031 129.988281 31.660156 C 127.8125 31.738281 125.757812 31.210938 124.132812 29.535156 C 122.644531 28.003906 122.199219 26.160156 122.46875 24.160156 C 122.605469 23.125 123.011719 22.085938 123.492188 21.148438 C 124.253906 19.648438 125.632812 18.789062 127.148438 18.171875 C 129.285156 17.308594 131.503906 16.847656 133.808594 16.730469 C 135.210938 16.65625 136.605469 16.464844 138.019531 16.324219 C 138.347656 15.125 138.078125 14.417969 137.054688 13.808594 C 135.925781 13.132812 134.644531 13.078125 133.394531 12.96875 C 131.675781 12.816406 130.019531 13.257812 128.386719 13.75 C 127.550781 14.003906 126.726562 14.296875 125.886719 14.546875 C 125.683594 14.605469 125.449219 14.554688 125.199219 14.554688 "/>
<path style=" stroke:none;fill-rule:nonzero;fill:rgb(92.494202%,1.40686%,55.52063%);fill-opacity:1;" d="M 169.027344 44.953125 C 166.40625 44.417969 163.796875 43.835938 161.167969 43.355469 C 158.394531 42.847656 155.609375 42.402344 152.824219 41.988281 C 150.128906 41.582031 147.429688 41.242188 144.726562 40.890625 C 143.664062 40.753906 142.597656 40.65625 141.53125 40.570312 C 139.976562 40.441406 138.421875 40.335938 136.867188 40.238281 C 133.898438 40.054688 130.933594 39.878906 127.96875 39.707031 C 127.578125 39.683594 127.1875 39.683594 126.796875 39.683594 C 122.640625 39.679688 118.484375 39.601562 114.332031 39.695312 C 110.09375 39.796875 105.855469 40.015625 101.621094 40.285156 C 98.320312 40.492188 95.019531 40.792969 91.730469 41.160156 C 88.253906 41.546875 84.785156 42.027344 81.320312 42.523438 C 77.996094 43 74.675781 43.484375 71.375 44.082031 C 67.835938 44.722656 64.304688 45.441406 60.796875 46.238281 C 57.050781 47.085938 53.335938 48.058594 49.605469 48.976562 C 50.199219 47.214844 50.792969 45.457031 51.421875 43.589844 C 51 43.527344 50.722656 43.488281 50.449219 43.445312 C 51.996094 43.066406 53.527344 42.613281 55.09375 42.316406 C 59.535156 41.480469 63.988281 40.671875 68.449219 39.921875 C 71.613281 39.390625 74.792969 38.925781 77.976562 38.53125 C 80.441406 38.222656 82.925781 38.066406 85.398438 37.851562 C 88.503906 37.582031 91.609375 37.324219 94.714844 37.058594 C 94.859375 37.046875 95.007812 37.046875 95.152344 37.042969 C 101.015625 36.945312 106.871094 36.800781 112.734375 36.765625 C 115.5625 36.75 118.394531 36.886719 121.21875 37.058594 C 124.914062 37.289062 128.609375 37.53125 132.289062 37.933594 C 136.59375 38.402344 140.878906 39.027344 145.167969 39.621094 C 150.664062 40.378906 156.105469 41.457031 161.503906 42.738281 C 164.203125 43.382812 166.898438 44.039062 169.59375 44.691406 C 169.402344 44.777344 169.214844 44.867188 169.027344 44.953125 "/>
<path style=" stroke:none;fill-rule:nonzero;fill:rgb(27.186584%,58.413696%,84.403992%);fill-opacity:1;" d="M 118.257812 0 C 120.03125 0 121.804688 0.00390625 123.578125 0.00390625 C 124.195312 0.0546875 124.8125 0.109375 125.5625 0.171875 C 125.445312 1.933594 125.335938 3.554688 125.214844 5.335938 C 124.324219 5.175781 123.515625 5.09375 122.746094 4.875 C 121.636719 4.5625 120.609375 4.851562 119.617188 5.238281 C 118.53125 5.65625 118.019531 6.859375 118.144531 8.523438 C 119.867188 8.523438 121.605469 8.523438 123.515625 8.523438 C 123.425781 9.464844 123.324219 10.257812 123.285156 11.054688 C 123.246094 11.824219 123.277344 12.597656 123.277344 13.488281 C 121.460938 13.488281 119.816406 13.488281 118.285156 13.488281 C 117.652344 14.105469 117.730469 14.753906 117.703125 15.382812 C 117.601562 17.574219 117.507812 19.761719 117.367188 21.949219 C 117.199219 24.617188 116.992188 27.285156 116.785156 29.949219 C 116.757812 30.3125 116.648438 30.667969 116.589844 30.964844 C 114.15625 30.914062 111.890625 30.867188 109.515625 30.816406 C 109.515625 30.1875 109.488281 29.660156 109.523438 29.136719 C 109.582031 28.265625 109.691406 27.398438 109.765625 26.53125 C 109.953125 24.207031 110.140625 21.878906 110.3125 19.554688 C 110.4375 17.90625 110.53125 16.253906 110.632812 14.601562 C 110.648438 14.316406 110.636719 14.027344 110.636719 13.5625 C 109.664062 13.5625 108.765625 13.5625 107.796875 13.5625 C 107.589844 11.84375 107.734375 10.3125 108.097656 8.71875 C 108.917969 8.339844 109.875 8.714844 110.871094 8.449219 C 110.984375 7.917969 111.136719 7.363281 111.222656 6.800781 C 111.8125 2.933594 114.042969 0.507812 118.257812 0 "/>
<path style=" stroke:none;fill-rule:nonzero;fill:rgb(92.494202%,1.40686%,55.52063%);fill-opacity:1;" d="M 29.894531 31.140625 C 27.511719 31.515625 25.257812 31.40625 22.9375 31.25 C 22.9375 30.3125 22.898438 29.585938 22.945312 28.863281 C 23.117188 26.195312 23.304688 23.523438 23.511719 20.855469 C 23.765625 17.558594 24.058594 14.265625 24.308594 10.964844 C 24.445312 9.21875 24.523438 7.46875 24.640625 5.71875 C 24.753906 3.976562 24.882812 2.238281 25.011719 0.375 C 26.21875 0.261719 27.382812 0.328125 28.535156 0.316406 C 29.703125 0.304688 30.871094 0.316406 31.972656 0.316406 C 32.09375 0.476562 32.203125 0.558594 32.199219 0.628906 C 31.960938 3.777344 31.710938 6.929688 31.46875 10.078125 C 31.355469 11.535156 31.242188 12.988281 31.15625 14.445312 C 31.027344 16.585938 30.929688 18.726562 30.792969 20.867188 C 30.601562 23.925781 30.394531 26.988281 30.175781 30.046875 C 30.15625 30.375 30.011719 30.695312 29.894531 31.140625 "/>
<path style=" stroke:none;fill-rule:nonzero;fill:rgb(27.186584%,58.413696%,84.403992%);fill-opacity:1;" d="M 165.488281 31.058594 C 163 31.058594 160.679688 31.058594 158.214844 31.058594 C 158.308594 30.351562 158.425781 29.75 158.460938 29.140625 C 158.589844 26.90625 158.65625 24.664062 158.808594 22.433594 C 158.9375 20.59375 159.152344 18.761719 159.328125 16.929688 C 159.351562 16.6875 159.34375 16.441406 159.355469 16.195312 C 159.464844 14.058594 159.566406 11.917969 159.691406 9.78125 C 159.707031 9.503906 159.832031 9.234375 159.921875 8.90625 C 162.246094 8.90625 164.523438 8.90625 166.898438 8.90625 C 166.898438 9.835938 166.898438 10.730469 166.898438 11.726562 C 167.464844 11.660156 167.820312 11.273438 168.242188 10.980469 C 170.550781 9.367188 172.910156 8.398438 176 8.96875 C 175.933594 10.042969 175.882812 11.136719 175.796875 12.226562 C 175.714844 13.285156 175.59375 14.34375 175.476562 15.546875 C 174.902344 15.546875 174.363281 15.640625 173.871094 15.53125 C 171.351562 14.96875 168.957031 15.441406 166.503906 16.277344 C 166.472656 16.710938 166.445312 17.140625 166.414062 17.566406 C 166.230469 19.886719 166.042969 22.210938 165.863281 24.535156 C 165.832031 24.921875 165.851562 25.316406 165.828125 25.707031 C 165.722656 27.449219 165.605469 29.191406 165.488281 31.058594 "/>
<path style=" stroke:none;fill-rule:nonzero;fill:rgb(27.186584%,58.413696%,84.403992%);fill-opacity:1;" d="M 154.542969 30.910156 C 152.199219 30.910156 149.929688 30.910156 147.546875 30.910156 C 147.597656 29.523438 147.632812 28.085938 147.703125 26.652344 C 147.734375 26.023438 147.859375 25.402344 147.910156 24.777344 C 148.105469 22.453125 148.28125 20.128906 148.464844 17.808594 C 148.476562 17.660156 148.480469 17.515625 148.488281 17.371094 C 148.597656 15.132812 148.6875 12.898438 148.828125 10.664062 C 148.867188 9.996094 149.042969 9.339844 149.179688 8.554688 C 150.351562 8.554688 151.464844 8.554688 152.578125 8.554688 C 153.695312 8.554688 154.8125 8.554688 155.992188 8.554688 C 156.285156 9.683594 156.113281 10.746094 156.070312 11.796875 C 156.042969 12.472656 155.910156 13.144531 155.851562 13.820312 C 155.65625 16.140625 155.476562 18.460938 155.289062 20.785156 C 155.277344 20.929688 155.28125 21.078125 155.273438 21.222656 C 155.164062 23.460938 155.078125 25.695312 154.9375 27.929688 C 154.878906 28.84375 154.699219 29.75 154.542969 30.910156 "/>
<path style=" stroke:none;fill-rule:nonzero;fill:rgb(27.186584%,58.413696%,84.403992%);fill-opacity:1;" d="M 149.027344 5.429688 C 149.175781 3.625 149.316406 1.902344 149.460938 0.101562 C 151.957031 0.101562 154.375 0.101562 156.941406 0.101562 C 157.210938 1.882812 156.53125 3.601562 156.675781 5.308594 C 155.496094 5.632812 151.140625 5.699219 149.027344 5.429688 "/>
<path style=" stroke:none;fill-rule:nonzero;fill:rgb(73.127747%,7.017517%,45.005798%);fill-opacity:1;" d="M 50.449219 43.445312 C 50.722656 43.488281 51 43.527344 51.421875 43.589844 C 50.792969 45.457031 50.199219 47.214844 49.605469 48.976562 C 47.84375 49.492188 46.082031 50.007812 44.324219 50.519531 C 44.382812 50.191406 44.40625 49.851562 44.511719 49.539062 C 44.980469 48.171875 45.46875 46.8125 45.964844 45.457031 C 46.097656 45.097656 46.125 44.800781 45.730469 44.597656 C 47.300781 44.214844 48.875 43.832031 50.449219 43.445312 "/>
<path style=" stroke:none;fill-rule:nonzero;fill:rgb(64.785767%,8.360291%,39.080811%);fill-opacity:1;" d="M 45.730469 44.597656 C 46.125 44.800781 46.097656 45.097656 45.964844 45.457031 C 45.46875 46.8125 44.980469 48.171875 44.511719 49.539062 C 44.40625 49.851562 44.382812 50.191406 44.324219 50.519531 C 42.863281 51.027344 41.402344 51.535156 39.941406 52.042969 C 40.03125 51.628906 40.074219 51.203125 40.214844 50.808594 C 40.625 49.636719 41.085938 48.484375 41.503906 47.316406 C 41.699219 46.78125 41.917969 46.21875 41.316406 45.765625 C 42.785156 45.378906 44.257812 44.988281 45.730469 44.597656 "/>
<g clip-path="url(#clip2)" clip-rule="nonzero">
<path style=" stroke:none;fill-rule:nonzero;fill:rgb(53.781128%,8.320618%,31.047058%);fill-opacity:1;" d="M 41.316406 45.765625 C 41.917969 46.21875 41.699219 46.78125 41.503906 47.316406 C 41.085938 48.484375 40.625 49.636719 40.214844 50.808594 C 40.074219 51.203125 40.03125 51.628906 39.941406 52.042969 C 38.867188 52.519531 37.792969 52.992188 36.722656 53.46875 C 36.65625 53.273438 36.480469 53.035156 36.539062 52.894531 C 36.921875 51.953125 37.351562 51.035156 37.773438 50.109375 C 38.394531 48.746094 39.019531 47.382812 39.644531 46.023438 C 39.816406 46.042969 39.988281 46.0625 40.160156 46.082031 C 40.371094 46.011719 40.582031 45.9375 40.789062 45.867188 C 40.964844 45.832031 41.140625 45.800781 41.316406 45.765625 "/>
</g>
<path style=" stroke:none;fill-rule:nonzero;fill:rgb(92.494202%,1.40686%,55.52063%);fill-opacity:1;" d="M 40.789062 45.867188 C 40.582031 45.9375 40.371094 46.011719 40.160156 46.082031 C 40.371094 46.011719 40.582031 45.9375 40.789062 45.867188 "/>
</g>
</svg>
