<svg xmlns="http://www.w3.org/2000/svg" width="176pt" height="39" viewBox="0 0 176 29.25"><path d="M14.844 14.738c.062-.093.12-.191.183-.285q.058-.086.121-.168c.04-.055.102-.11.125-.172.004-.02.004-.02-.011-.031-.02-.031-.028-.062-.043-.086-.02-.043-.047-.078-.074-.117-.086-.113-.278-.426-.434-.66-.16-.235-.379-.598-.555-.828l-.195.324c-.129.223-.328.52-.45.691-.09.13-.23.313-.476.64.11.157.309.567.48.821.172.25.454.64.641.903.094-.114.16-.192.211-.274.055-.086.145-.191.188-.277.047-.082.117-.192.246-.422.011-.024.031-.04.043-.059M14.195 19.785c.055-.12.121-.48.16-.691.047-.219.06-.489.09-.719.032-.23-.011-.621-.035-.793a2.6 2.6 0 0 0-.137-.488 1 1 0 0 0-.21-.356c-.04.094-.047.149-.07.227-.032.086-.044.16-.079.258-.031.086-.094.304-.117.355-.035.074-.043.145-.078.285a4 4 0 0 0-.059.446c-.004.066.067.503.086.668.024.164.102.523.149.664.05.14.148.359.18.441.07-.066.07-.176.12-.297M12.23 18.59a6 6 0 0 1 .387-.477c.16-.168.23-.351.285-.523a3.7 3.7 0 0 0 .149-.652c.011-.172-.008-.247-.016-.31-.012-.105-.023-.136-.07-.089a7 7 0 0 0-.277.316 2.6 2.6 0 0 0-.34.52c-.063.148-.168.398-.2.57-.039.176-.074.442-.085.52-.004.074 0 .191.011.273.055-.02.102-.074.156-.148M11.113 17.371c.125-.086.301-.172.532-.418.234-.238.32-.39.445-.61.129-.222.156-.34.23-.464.07-.125.075-.152.016-.14-.082.015-.098.015-.316.148-.22.129-.461.398-.563.496-.102.094-.344.46-.402.582-.063.113-.223.457-.282.531-.058.078.012.059.114 0 .062-.043.09-.039.226-.125M10.27 16.047c-.239.055-.563.039-.747.031.059-.078.278-.238.457-.375.18-.133.442-.223.532-.265.09-.047.234-.118.34-.141.109-.027.117-.043.218-.063.106-.02.196-.011.352-.043a.44.44 0 0 1 .242.016c.035.012.05.031.02.063a.3.3 0 0 1-.075.054c-.02.012-.03.028-.058.043-.04.028-.07.059-.11.086-.039.024-.082.047-.12.074q-.154.105-.313.215c-.238.176-.508.246-.738.305M11.61 14.008c-.079-.063-.286-.106-.415-.13a2 2 0 0 0-.492-.077 6 6 0 0 1-.523-.02 2.2 2.2 0 0 0-.633.067c-.215.062-.457.125-.602.187-.101.04-.21.07-.355.137-.074.039-.172.039-.277.098-.11.062-.102.082-.07.085.03.008.155.055.241.063.121.008.383.074.68.098.297.027.61.02.86.011.257-.007.562-.035.956-.172.133-.07.18-.05.32-.097.141-.055.216-.09.446-.153-.07-.05-.059-.039-.137-.097M14.238 10.754a.7.7 0 0 0 .059-.262c.012-.129.05-.27.058-.398.012-.13.047-.375.047-.492.004-.184.008-.243.004-.36-.004-.133-.015-.59-.09-.87-.066-.282-.074-.434-.254-.692-.167.183-.21.539-.234.71-.027.176-.05.47-.058.766-.012.41.027.899.078 1.09.047.2.14.594.183.664.074.113.074.09.149-.031 0 0 .027-.043.058-.125M15.016 11.313a.4.4 0 0 1-.036-.16c0-.083-.015-.083.024-.216.035-.136.105-.457.152-.601.051-.145.172-.418.293-.531.117-.11.364-.438.559-.594 0 0-.086.598-.164.828a6 6 0 0 1-.258.684 1.85 1.85 0 0 1-.488.609c-.047.016-.07.012-.082-.02M16.102 12.012c.148-.063.363-.235.55-.387s.243-.227.36-.367c.11-.14.203-.375.258-.477.054-.105.14-.207.02-.156-.13.05-.134.074-.317.156-.188.078-.153.067-.5.36-.348.289-.555.68-.625.93 0 0 .105.003.254-.06M17.012 12.777c.144-.043.386-.218.633-.398.238-.184.367-.363.558-.621-.074.004-.203.02-.363.058-.164.04-.254.082-.39.149-.137.066-.204.133-.384.203-.152.07-.285.168-.414.27-.058.046-.117.085-.156.148-.035.055-.07.137-.098.203a.3.3 0 0 0-.039.121c-.007.063.051.043.094.031.063-.007.117-.027.176-.043.09-.03.238-.074.383-.12M20.047 13.969a.6.6 0 0 0-.25-.145c-.156-.05-.438-.117-.594-.164a2.6 2.6 0 0 0-.512-.074c-.183-.016-.285-.02-.535-.035a2.1 2.1 0 0 0-.593.074c-.211.059-.81.281-.95.324-.144.043-.043.11-.004.153.036.043.196.093.258.105.067.012.164.047.301.07.133.024.488.063.91.059s.711-.016 1.059-.047c.351-.035.73-.152.988-.242 0 0-.043-.047-.078-.078M18.879 15.734a4 4 0 0 0-.488-.257c-.164-.07-.414-.207-.641-.293-.227-.082-.453-.067-.582-.07-.133-.005-.258-.016-.402.015 0 0 .015.074.12.156.106.082.458.25.63.328.164.078.441.164.703.215.265.047.543.05.781.035 0 0-.04-.066-.121-.129M17.574 17.41c-.11-.176-.222-.363-.465-.617a3.5 3.5 0 0 0-.636-.531c-.141-.094-.262-.14-.368-.227-.117-.078-.09 0 .043.227.141.23.356.613.43.71.078.098.235.208.387.298.16.093.332.187.414.253.074.063.234.141.316.172a.8.8 0 0 0-.12-.285M16 18.008a1.4 1.4 0 0 0-.277-.664c-.106-.114-.051-.07-.18-.242-.129-.168-.281-.372-.422-.508-.086-.082-.094-.117-.094-.028 0 0 .004.176.008.235.02.168.05.43.227.883.183.453.476.851.754 1.168.066-.204.011-.563-.016-.844M11.82 12.902a6 6 0 0 1-.582-.418c-.246-.195-.406-.203-.574-.261-.172-.055-.605-.13-.648-.145-.047-.02-.04-.023-.133-.039-.059-.004-.078-.016-.184 0 0 0 .035.066.059.094.027.027.097.129.18.195.14.106.312.195.492.324.183.125.422.203.707.286.289.082.566.097.773.113.172-.004.02-.078-.09-.149M12.434 12.172a2.124 2.124 0 0 0-.504-.898c-.125-.126-.168-.18-.211-.22a1 1 0 0 0-.203-.167c-.059-.04-.192-.157-.34-.223-.149-.062-.207-.105-.418-.184-.207-.082-.164-.007-.121.07.039.075.148.302.261.512.118.208.172.262.282.383.113.125.277.246.418.352.136.101.297.176.406.238.11.055.3.18.441.242 0 0-.008-.09-.011-.105M12.953 11.195c-.008-.129-.035-.261-.055-.375-.015-.093-.05-.164-.085-.285-.032-.101-.106-.191-.149-.289a2.7 2.7 0 0 0-.312-.523c-.137-.184-.23-.328-.387-.485 0 0-.016.032 0 .13.02.093.062.312.125.519.062.199.148.449.265.703.122.258.364.62.59.863 0 0 .02-.129.008-.258M52.004 1.781l-17.922.028.04 25.375 2.437-1.207-.032-21.727 14.274-.023c0-.004 1.203-2.446 1.203-2.446" style="stroke:none;fill-rule:nonzero;fill:#271b17;fill-opacity:1"/><path d="m52.012 7.691-1.215-2.437-13.242.023.039 20.696 2.437 1.203-.008-9.145 9.782-.02-1.215-2.437-8.574.012-.004-1.027 8.578-.012 1.207-2.445-9.79.02L40 7.71zM56.203 1.543l.043 25.602 2.441-1.207-.035-23.192zM62.117 1.535l.04 25.602-2.438-1.203-.04-23.188zM87.145 1.496l.039 25.602 2.441-1.207-.035-23.192zM93.059 1.488l.039 25.602-2.442-1.203-.039-23.188zM78.695 18.043l-.027-15.324-2.441-1.207.023 16.09c0 2.359-.562 3.89-3.094 3.894-1.687.004-2.812-.848-3.949-2.14l-.918 2.523c1.168.976 2.36 2.066 5.184 2.058 2.82 0 5.226-2.027 5.222-5.894" style="stroke:none;fill-rule:nonzero;fill:#271b17;fill-opacity:1"/><path d="m82.164 18.012-.023-16.508-2.446 1.21.028 15.563c.004 4.336-3.075 6.688-6.32 6.692-3.243.008-4.907-1.489-5.825-2.332l-2.52.933c1.837 1.875 4.141 3.84 8.282 3.832 4.137-.004 8.832-2.738 8.824-9.39M5.668 23.309c-.055 0-1.953.156-2.242.257.125.188.644.766.918 1.02.27.258 1.07 1.012 1.347 1.234.04.024.028.004.063-.12.031-.126-.008-2.391-.086-2.391M8.254 21.547c-.117-.098-.637-.703-.727-.797-.086-.094-.68-.77-.71-.8-.028-.032-.083-.141-.13-.204 0 0 .086 2.024.118 2.074.027.047 1.285.067 1.695-.039 0 0-.125-.144-.246-.234M7.973 26.977s.37.199.445.285c.066.086.352.164.453.258 0 0 .043-.063.094-.16.039-.075.066-.153.117-.243.043-.074.086-.097.133-.234.047-.13.191-.442.242-.551.047-.105 1.086-2.133 1.172-2.297.082-.16.414-.765.504-.898 0 0-.04-.028-.086-.063-.055-.031-.3-.176-.379-.222-.074-.043-.031.011-.137-.086 0 0-.886 1.55-.933 1.644-.047.09-.172.313-.223.422-.059.113-.148.309-.18.36-.027.05-.957 1.417-1.008 1.495-.074.11-.109.141-.214.29M7.023 26.516a1 1 0 0 0 .23-.211c.102-.121 2.259-3.625 2.317-3.692.059-.062 0-.129-.066-.11-.066.028-2.758.34-2.86.415.024.074.004.25.024.387.02.136.219 2.75.258 2.87.058.184.004.18.097.34M6.012 18.883s-3.13 3.605-3.172 3.719c.035-.012-.043.093.074.039.121-.059 2.656-.676 2.711-.707.035-.036.367-2.735.387-3.051M2.285 21.227c.09-.125 1.586-1.579 1.746-1.77.157-.191.977-.969 1.582-1.719-.039-.117-.136-.406-.191-.578-.05-.164-.086-.262-.125-.43 0 0-.067.098-.094.145-.023.043-.121.14-.312.379-.196.234-1.137 1.18-1.461 1.555-.325.378-1.649 1.668-1.895 1.921 0 0 .024.102.067.188.043.082.175.285.3.55 0 0 .043.095.102.06 0 0 .191-.18.281-.301M1.137 19.3c.113-.07.62-.613.718-.702 0 0 1.465-1.45 1.848-1.801.39-.348.863-.926 1.277-1.34 0 0-.023-.684-.003-.84.023-.156.003-.398.011-.582 0-.187-.004-.191-.043-.23 0 0-.09-.051-.207-.106-.113-.054-1.406-.75-1.511-.797-.102-.047-.414-.152-.598-.246S.508 11.465.297 11.402c0 .07-.043.309-.063.477-.011.164-.078.371-.078.531.035.012.387.18.57.274.184.093 1.567.828 1.891.976.328.149 1.672.82 1.899.957-.067.031-.328.27-.457.363-.137.098-.883.918-1.13 1.153-.241.234-.609.57-.773.742C2 17.055.918 18.07.824 18.129c-.094.055-.191.148-.246.172.012.062.043.3.063.418.03.12.054.328.082.398.023.074.047.23.12.371a1.7 1.7 0 0 1 .294-.187" style="stroke:none;fill-rule:nonzero;fill:#271b17;fill-opacity:1"/><path d="M.445 14.086C.29 14.023.23 14 .008 13.94c0 0 .008.024-.004.18-.016.156.039.945.055 1.172.02.23.093.762.191 1.305 0 0 .121-.043.262-.145.14-.098.758-.59 1.023-.8.262-.212.766-.641.887-.731q.165-.124.164-.125c-.05-.012-.574-.129-.672-.168-.101-.04-.195-.05-.336-.125-.137-.074-.418-.164-.535-.227-.09-.043-.39-.117-.598-.191M5.21 12.203c-.003-.039.024-.168.036-.277.012-.106.024-.235.094-.414 0 0-.063-.028-.137-.051a86 86 0 0 1-1.812-.75c-.395-.172-1.985-.906-2.133-.992-.149-.09-.309-.14-.426-.207 0 0-.102.175-.137.254a2.7 2.7 0 0 0-.117.566s.442.129.473.148c.031.012 3.664 1.61 4.152 1.81 0 0 .012-.044.008-.087M5.559 10.094c-.067-.055-3.625-1.922-3.707-1.977s-.239-.097-.34-.168c0 0 .195-.105.3-.148.051-.016.165-.055.329-.09s2.734-.625 2.828-.64c.039-.005.074.1.082.128.011.035.386 1.176.453 1.418.059.246.367 1.406.363 1.45-.008.042.016.093-.02.14 0 0-.214-.055-.288-.113M3.164 6.09c.125-.043 2.184-.43 2.297-.457-.008-.067-.098-.524-.117-.668-.02-.14-.176-1.207-.215-1.336-.035-.094-.035-.121-.078-.149 0 0-.063 0-.102.016l-.176.145c-.109.101-.507.48-.757.718-.25.239-.723.848-.868 1.043-.152.196-.41.614-.539.82 0 0 .067-.019.145-.05.086-.043.336-.055.41-.082M7.71 7.613c.458-.433.845-.718 1.161-.898-.043-.047-.152-.059-.215-.078-.066-.016-2.05-.215-2.172-.227-.12-.012-.148.004-.238.004 0 0 .149.738.16.89.008.157.14 1.258.188 1.505.074-.09.656-.766 1.117-1.196M9.75 5.734c-.105-.086-3.55-2.722-3.617-2.8-.133-.149-.145-.122-.121.09.027.19.12.601.172.851.05.242.203.973.27 1.434 0 0 .245.035.378.062.137.031 2.805.504 3.027.5.051 0-.004-.047-.109-.137M11.707 5.133a35 35 0 0 0-.418-.406c-.144-.13-.601-.59-.836-.801-.242-.215-.914-.805-1.258-1.106C9 2.645 8 1.684 7.941 1.598c0 0-.035 0-.128.09-.098.085-.512.375-.56.406-.042.02-.05.039.017.086.062.05 3.195 2.812 3.324 2.918.129.101.379.285.398.297.035.03.031 0 .106-.02.07-.02.46-.117.664-.16 0 0-.035-.059-.055-.082M10.043 1.477c.09.109 1.793 1.77 1.953 1.925.16.157 1.274 1.285 1.34 1.336s.117.117.14.14c0 0 1.551-.062 1.747-.023.027-.074.136-.261.21-.39.075-.13.715-2.059.876-2.445l.554-1.348c.067-.168.09-.281.16-.367 0 0-.05-.043-.113-.055-.07-.02-.312-.043-.402-.074-.086-.024-.192-.028-.317-.055 0 0-.203.39-.238.488-.043.106-.55 1.274-.625 1.407-.078.132-.844 2.422-.96 2.593 0 0-.552-.652-.735-.836-.18-.183-1.899-1.843-2.2-2.148-.304-.305-.656-.637-.945-1.008 0 0-.062.024-.254.078-.195.063-.488.184-.62.227-.126.047-.071.094-.012.16.14.148.367.309.437.395" style="stroke:none;fill-rule:nonzero;fill:#271b17;fill-opacity:1"/><path d="M14.895-.031s-.137.008-.29.011c-.152 0-.343 0-.582.012-.238.02-.718.031-1.132.074-.305.032-.5.043-.91.164 0 0 .238.274.332.372.093.093.468.558.796.93.332.378.711.8.883 1.023 0 0 .774-2.09.903-2.586M16.7 5.238c.14.035.405.121.51.157.087.023.071-.012.126-.133.027-.063.105-.196.223-.364.12-.168.875-1.261 1.035-1.437.156-.176.312-.45.445-.625.133-.172.633-.758.711-.914a8 8 0 0 1 .344-.508s-.059-.043-.125-.082c-.07-.043-.242-.187-.41-.25-.168-.066-.485-.238-.696-.23 0 0-.175.343-.258.476a42 42 0 0 1-.625.98c-.109.165-1.355 2.25-1.421 2.372-.079.117-.204.308-.293.453 0 0 .297.07.433.105M18.797 5.836c.11-.027 1.851-.766 2-.809a.9.9 0 0 0 .332-.191c.039-.07.094-.164.094-.332s.12-2 .132-2.191c.008-.211.06-.348-.03-.25-.083.097-.595.773-.747.968-.156.196-.84 1.125-1.047 1.414-.203.282-.722 1.11-.914 1.422 0 0 .07 0 .18-.031M21.2 8.055c-.005-.075.034-1.516.042-1.703.012-.188.028-.153-.074-.133-.04.004-.117.035-.215.074-.078.027-.828.18-.976.215-.141.035-.422.05-.606.14.043.012.27.215.43.352.164.137.531.441.742.633.21.187.488.453.637.586.043.043.023-.086.02-.164M23.207 7.742c.211-.258 1.113-1.367 1.254-1.465.144-.097.344-.297.445-.379.106-.082.168-.136.117-.125-.046.012-.132.04-.261.059-.13.023-1.426.293-1.63.324-.206.035-.491.059-.792.153.004.078-.059.761-.059.933s-.039.688-.039.778-.027.378-.035.476c-.004.098-.016.3-.008.492-.004.035.02.02.094-.074.055-.098.703-.91.914-1.172M23.129 11.14c.047-.046.11-.128.18-.199.074-.07 2.222-2.437 2.328-2.53.105-.098.18-.208.203-.247.02-.023.164-.176.246-.238.078-.059-.02.023.445-.364a4 4 0 0 1-.144-.25c-.032-.062-.137-.18-.239-.343a1.7 1.7 0 0 0-.246-.324s-.101.074-.18.136c-.077.067-.613.707-.699.805-.09.094-.199.3-.277.394s-.723.754-.879.895c-.156.14-1.008 1.098-1.078 1.164-.074.063-.078.102-.172.184.035.054.051.254.078.367.024.117.114.59.168.77.07-.06.219-.165.266-.22M24.441 4.766c-.086-.106-.171-.239-.28-.364-.11-.129-.946-1.058-1.048-1.187-.097-.13-.324-.309-.402-.399-.078-.086-.066-.054-.106-.101-.027-.031-.054-.074-.082-.055-.035.027-.023.082-.03.149-.02.14-.016.195-.048.359-.03.133-.133 1.633-.136 1.754-.004.125-.028.39-.028.39s1.942-.261 2.012-.277c.105-.023.121-.023.297-.047 0 0-.067-.113-.149-.222M24.09 12.871c.078-.062 1.96-1.52 2.078-1.617.121-.098.418-.297.668-.508a8 8 0 0 1 .86-.605s-.009-.184-.063-.383c-.055-.203-.313-.86-.313-.86-.004 0-.156.141-.238.207-.078.067-2.887 2.52-3.113 2.711-.227.188-.594.528-.672.594-.078.067-.121.09-.11.184.012.062.012.277.028.414.015.14.055.406.027.547-.02.148-.023.468-.055.648.118.031 1.493.563 1.735.656.238.086.719.27.988.368.27.097.867.324 1.078.41s.664.281.91.367c.032-.098.043-.293.043-.524 0-.23-.015-.37-.027-.546 0 0-.11-.063-.23-.114-.122-.05-.817-.32-1.106-.414-.293-.094-2.656-.96-2.758-1.011-.101-.055-.062-.09-.008-.172.047-.07.165-.262.278-.352" style="stroke:none;fill-rule:nonzero;fill:#271b17;fill-opacity:1"/><path d="M28.05 13.348c.005-.121.005-.309.005-.477 0-.32-.051-.875-.067-1.133a5 5 0 0 1-.004-.363c.004-.137-.078-.031-.16.043-.086.066-1.812 1.406-1.863 1.46-.055.056-.203.118-.172.142.031.02.086.02.18.05.12.035 1.285.434 1.453.504.176.067.469.14.61.219.007-.11.011-.324.019-.445M27.43 17.762c-.078-.035-.242-.098-.383-.192-.14-.093-.348-.21-.508-.332-.16-.12-.762-.406-1.012-.543l-1.777-.937c-.172-.09-.488-.242-.734-.375v.297c-.008.11 0 .468 0 .566 0 .102.004.156.062.203a135 135 0 0 0 2.524 1.442c.168.086 1.437.82 1.507.855.102-.078.13-.187.2-.293.05-.078.125-.2.171-.3.043-.102.11-.208.149-.286 0 0-.113-.062-.2-.105M25.879 20.074c-.121-.113-1.899-1.363-2.223-1.62-.324-.255-.984-.727-1.027-.77-.055-.051-.094-.079-.102 0-.007.086-.023.187 0 .367.024.172.07.703.102.894.023.192.058.637.074.88.012.245.055.59.067.87 0 0 .218-.02.382-.023.16-.008 2.828-.277 3.032-.367 0 0-.18-.117-.305-.23M21.613 19.691a14 14 0 0 1-.02-.375c-.124.114-.179.184-.273.309-.097.121-.418.55-.593.734-.168.18-.461.457-.579.54-.113.085-.55.398-.613.44-.062.044-.035.075.031.087.075.015 1.618-.113 2.098-.172.043-.16-.039-1.438-.05-1.563M24.34 23.781c.195-.218.883-1.047.91-1.09.027-.046.527-.808.535-.859.012-.05.035-.05.024-.11-.157.048-2.91.34-3.29.372.012.09.075 2.926.114 3.039l.015.047.051-.02c.086-.098 1.45-1.156 1.64-1.379M21.227 22.488s-.348.028-.508.004c-.157-.02-2.352-.02-2.578.004 0 0 .105.106.218.25.114.149 2.973 2.887 3.047 2.988.067.102.2.098.25.09.055-.101-.05-.41-.062-.52-.04-.226-.285-2.64-.367-2.816M20.09 26.832a.7.7 0 0 0 .285-.152 10 10 0 0 0-.348-.399c-.21-.242-2.242-2.441-2.535-2.738-.285-.305-.375-.402-.605-.64 0 0-.114.046-.25.077-.137.032-.301.075-.38.098-.085.027-.12.02-.054.067.063.043 1.867 2.109 2.113 2.378.247.266.88.993.97 1.102.085.113.136.219.276.453.2-.058.364-.195.528-.246M16.258 25.738a30 30 0 0 1-1.047-1.18c-.426-.511-.754-.804-1.215-1.19-.219 0-1.117-.02-1.473-.071-.054.082-.09.16-.125.242-.035.074-1.168 2.344-1.253 2.512-.09.176-.399.754-.465.89-.059.137-.04.028-.172.227-.133.2-.262.45-.344.703.066.05.238.113.367.168.137.059.457.11.594.172.016-.07 1.809-3.668 1.938-3.938.124-.27.218-.304.347-.507 0 0 1.5 1.566 1.656 1.77.153.206.848 1.105 1.09 1.425.246.32.57.676.793 1.047 0 0 .531-.106.645-.153.117-.05.383-.109.472-.168-.105-.082-1.484-1.613-1.808-1.949" style="stroke:none;fill-rule:nonzero;fill:#271b17;fill-opacity:1"/><path d="M13.36 28.543s.05-.004.328 0c.238.004.25-.012.468-.012.219.004.508-.031.832-.105.32-.078.36-.078.61-.13.23-.046.254-.073.183-.171-.07-.102-.23-.316-.379-.516a6 6 0 0 0-.488-.574c-.226-.23-.68-.66-.848-.844-.16-.183-.324-.37-.464-.546-.055.046-.149.27-.227.398-.078.137-.21.457-.281.598-.063.14-.383.855-.508 1.101-.129.242-.16.399-.29.617l-.01.032.054.015c.07.008.148.067.316.074.133.004.473.075.703.063M115.04 27l-1.024-.535-.965.535-.024-12.488 1.028.511.965-.52zM136.523 18.332l2.551 8.629.953-.54.942.536 3.64-12.496-1.148.516-.863-.516-2.578 9.45-2.778-9.438-.719.511-.722-.511-2.746 9.449-2.606-9.438-.86.512-1.151-.512 3.683 12.489.941-.54.954.536zM158.941 26.926l-.007-4.985-4.371-7.496 1.394.512.797-.516 3.242 5.766 3.203-5.777.801.511 1.383-.515-4.324 7.512.007 4.984-1.082-.535zM171.04 27.086c-2.759.004-5.286-1.195-4.837-3.965l.977.484 1.054-.488c-.25 1.363 1.157 2.25 2.801 2.246 1.856 0 2.985-.777 2.98-1.843 0-2.957-7.519-1.485-7.527-5.891-.004-2.227 2.09-3.39 4.645-3.395 2.687 0 5.015 1.13 4.476 3.739l-1.011-.496-1.082.5c.261-1.293-.618-2.063-2.38-2.059-1.421 0-2.6.68-2.6 1.727.007 2.609 7.53 1.347 7.538 5.753.004 2.454-2.117 3.684-5.035 3.688M120.14 21.629l-.011-5.344 2.73-.008c1.2.004 2.121.98 2.22 2.2.003.043.023.113.023.308-.004.2-.032.383-.032.43-.16 1.46-1.164 2.414-2.37 2.41Zm4.696 1.203c1.187-.637 2.09-2.258 2.144-3.937-.007-.063.004-.399 0-.457-.148-2.43-1.878-3.95-4.058-3.946l-4.695.008.015 12.492h.004l.961-.535.941.535-.003-3.64 2.199-.008s.195 0 .523-.032l2.88 3.668.78-.539 1.77.54zM106.332 14.523l4.7 12.477-1.192-.523-.797.523-1.352-3.64-4.836.007-1.355 3.649-.8-.532-1.188.536 4.652-12.493 1.082.508Zm-2.918 7.13h3.707l-1.871-5.067ZM151.105 14.453l4.692 12.477-1.149-.532-.835.536-1.352-3.645-4.832.004-1.356 3.652-.835-.535-1.16.535 4.656-12.492 1.093.512Zm-2.921 7.129 3.707-.004L150 16.516Zm0 0" style="stroke:none;fill-rule:nonzero;fill:#271b17;fill-opacity:1"/></svg>