<?xml version="1.0" encoding="UTF-8"?>
<svg xmlns="http://www.w3.org/2000/svg" xmlns:xlink="http://www.w3.org/1999/xlink" width="176pt" height="33.16pt" viewBox="0 0 176 33.16" version="1.1">
<defs>
<clipPath id="clip1">
  <path d="M 127 0 L 176 0 L 176 33.160156 L 127 33.160156 Z M 127 0 "/>
</clipPath>
</defs>
<g id="surface1">
<g clip-path="url(#clip1)" clip-rule="nonzero">
<path style=" stroke:none;fill-rule:nonzero;fill:rgb(87.568665%,9.561157%,22.293091%);fill-opacity:1;" d="M 127.539062 33.160156 C 127.539062 33.160156 132.71875 32.515625 139.820312 25.617188 L 163.074219 -0.00390625 L 176 -0.00390625 L 165.164062 33.160156 L 127.539062 33.160156 "/>
</g>
<path style=" stroke:none;fill-rule:nonzero;fill:rgb(100%,100%,100%);fill-opacity:1;" d="M 167.660156 11.578125 C 167.816406 11.570312 162.882812 11.335938 161.304688 11.644531 C 159.714844 11.949219 158.222656 12.15625 156.765625 14.261719 C 155.304688 16.351562 153.984375 18.46875 153.113281 19.679688 C 150.371094 23.484375 150.371094 24.089844 147.324219 24.363281 C 145.691406 24.507812 145.257812 24.421875 144.847656 24.230469 C 144.339844 23.988281 144.101562 23.710938 143.398438 24.269531 C 142.59375 24.914062 141.484375 24.757812 141.515625 24.855469 L 164.769531 24.855469 C 164.769531 24.855469 165.898438 24.890625 166.296875 24.179688 L 165.714844 23.964844 C 165.714844 23.964844 165.589844 24.703125 163.277344 24.484375 C 160.96875 24.269531 157.953125 23.699219 157.953125 23.699219 L 165.109375 13.589844 C 165.554688 13.039062 166.164062 12.464844 166.742188 11.949219 C 166.742188 11.949219 163.851562 12.253906 162.636719 14.015625 C 161.398438 15.808594 155.917969 23.328125 155.917969 23.328125 L 155.542969 23.269531 L 162.546875 13.53125 C 162.550781 13.527344 163.574219 11.882812 167.660156 11.578125 M 143.78125 24.480469 C 143.78125 24.480469 143.960938 24.269531 144.109375 24.269531 C 144.273438 24.269531 144.417969 24.480469 144.417969 24.480469 L 143.78125 24.480469 "/>
<path style=" stroke:none;fill-rule:nonzero;fill:rgb(87.568665%,9.561157%,22.293091%);fill-opacity:1;" d="M 122.703125 24.535156 L 122.511719 26.4375 L 117.941406 26.441406 C 117.941406 26.441406 117.15625 26.332031 116.988281 26.925781 C 116.757812 27.65625 117.429688 27.558594 117.429688 27.558594 L 121.03125 27.582031 C 121.03125 27.582031 122.691406 28.109375 122.664062 29.765625 C 122.636719 31.320312 121.859375 32.476562 120.546875 32.488281 L 114.621094 32.488281 L 114.746094 30.675781 L 120.484375 30.675781 C 120.484375 30.675781 121.519531 29.890625 120.484375 29.40625 L 116.371094 29.40625 C 116.371094 29.40625 115.097656 29.324219 115.0625 27.558594 C 115.042969 26.097656 115.339844 25.730469 115.964844 25.210938 C 116.714844 24.5625 117.765625 24.5625 117.765625 24.5625 L 122.703125 24.535156 "/>
<path style=" stroke:none;fill-rule:nonzero;fill:rgb(87.568665%,9.561157%,22.293091%);fill-opacity:1;" d="M 9.757812 24.535156 L 9.5625 26.4375 L 5.007812 26.441406 C 5.007812 26.441406 4.21875 26.332031 4.054688 26.925781 C 3.820312 27.65625 4.484375 27.558594 4.484375 27.558594 L 8.09375 27.582031 C 8.09375 27.582031 9.753906 28.109375 9.71875 29.765625 C 9.691406 31.320312 8.921875 32.476562 7.605469 32.488281 L 1.6875 32.488281 L 1.804688 30.675781 L 7.554688 30.675781 C 7.554688 30.675781 8.574219 29.890625 7.554688 29.40625 L 3.441406 29.40625 C 3.441406 29.40625 2.152344 29.324219 2.125 27.558594 C 2.097656 26.097656 2.394531 25.730469 3.019531 25.210938 C 3.777344 24.5625 4.832031 24.5625 4.832031 24.5625 L 9.757812 24.535156 "/>
<path style=" stroke:none;fill-rule:nonzero;fill:rgb(87.568665%,9.561157%,22.293091%);fill-opacity:1;" d="M 114.570312 24.5 L 108.195312 24.5 L 107.5625 32.511719 L 114.171875 32.511719 L 114.304688 30.683594 L 109.6875 30.683594 L 109.753906 29.492188 L 114.210938 29.492188 L 114.304688 27.660156 L 109.886719 27.660156 L 109.984375 26.398438 L 114.472656 26.398438 L 114.570312 24.5 "/>
<path style=" stroke:none;fill-rule:nonzero;fill:rgb(87.568665%,9.561157%,22.293091%);fill-opacity:1;" d="M 107.230469 24.535156 L 106.664062 32.511719 L 104.707031 32.511719 L 101.515625 27.765625 L 101.179688 32.511719 L 99.226562 32.511719 L 99.859375 24.535156 L 101.777344 24.535156 L 104.9375 29.585938 L 105.339844 24.535156 L 107.230469 24.535156 "/>
<path style=" stroke:none;fill-rule:nonzero;fill:rgb(87.568665%,9.561157%,22.293091%);fill-opacity:1;" d="M 98.59375 24.535156 L 97.996094 32.511719 L 96.039062 32.511719 L 96.710938 24.535156 L 98.59375 24.535156 "/>
<path style=" stroke:none;fill-rule:nonzero;fill:rgb(87.568665%,9.561157%,22.293091%);fill-opacity:1;" d="M 92.148438 24.535156 L 91.71875 30.613281 L 95.503906 30.613281 L 95.28125 32.445312 L 89.625 32.445312 L 90.222656 24.535156 L 92.148438 24.535156 "/>
<path style=" stroke:none;fill-rule:nonzero;fill:rgb(87.568665%,9.561157%,22.293091%);fill-opacity:1;" d="M 81.75 24.535156 L 81.160156 32.476562 L 83.050781 32.476562 L 83.550781 26.53125 L 86.644531 26.53125 C 86.644531 26.53125 87.121094 26.46875 87 27.203125 C 86.902344 27.792969 86.5 27.660156 86.5 27.660156 L 84.085938 27.660156 L 86.730469 32.511719 L 88.960938 32.511719 L 87.066406 29.089844 C 87.066406 29.089844 88.9375 28.992188 88.9375 26.894531 C 88.9375 24.808594 87.402344 24.535156 86.902344 24.535156 L 81.75 24.535156 "/>
<path style=" stroke:none;fill-rule:nonzero;fill:rgb(87.568665%,9.561157%,22.293091%);fill-opacity:1;" d="M 74.613281 24.535156 L 72.652344 24.535156 L 68 32.476562 L 70.367188 32.476562 L 71.421875 30.71875 L 74.679688 30.71875 L 75.25 32.476562 L 77.433594 32.476562 Z M 72.226562 29.488281 L 73.519531 27.207031 L 74.285156 29.488281 Z M 72.226562 29.488281 "/>
<path style=" stroke:none;fill-rule:nonzero;fill:rgb(87.568665%,9.561157%,22.293091%);fill-opacity:1;" d="M 57.613281 24.535156 L 55.652344 24.535156 L 51.007812 32.476562 L 53.363281 32.476562 L 54.425781 30.71875 L 57.683594 30.71875 L 58.246094 32.476562 L 60.433594 32.476562 Z M 55.222656 29.488281 L 56.515625 27.207031 L 57.28125 29.488281 Z M 55.222656 29.488281 "/>
<path style=" stroke:none;fill-rule:nonzero;fill:rgb(87.568665%,9.561157%,22.293091%);fill-opacity:1;" d="M 80.460938 24.535156 L 79.863281 32.511719 L 77.902344 32.511719 L 78.5625 24.535156 L 80.460938 24.535156 "/>
<path style=" stroke:none;fill-rule:nonzero;fill:rgb(87.568665%,9.561157%,22.293091%);fill-opacity:1;" d="M 63.355469 24.535156 L 62.761719 32.511719 L 60.804688 32.511719 L 61.464844 24.535156 L 63.355469 24.535156 "/>
<path style=" stroke:none;fill-rule:nonzero;fill:rgb(87.568665%,9.561157%,22.293091%);fill-opacity:1;" d="M 24.03125 24.535156 L 22.070312 24.535156 L 17.417969 32.476562 L 19.777344 32.476562 L 20.84375 30.71875 L 24.09375 30.71875 L 24.65625 32.476562 L 26.855469 32.476562 Z M 21.640625 29.488281 L 22.929688 27.207031 L 23.691406 29.488281 Z M 21.640625 29.488281 "/>
<path style=" stroke:none;fill-rule:nonzero;fill:rgb(87.568665%,9.561157%,22.293091%);fill-opacity:1;" d="M 51.84375 24.535156 L 51.207031 32.476562 L 49.3125 32.476562 L 49.515625 29.558594 L 46.09375 29.558594 L 45.789062 32.476562 L 43.871094 32.476562 L 44.496094 24.535156 L 46.492188 24.535156 L 46.257812 27.726562 L 49.644531 27.726562 L 49.945312 24.535156 L 51.84375 24.535156 "/>
<path style=" stroke:none;fill-rule:nonzero;fill:rgb(87.568665%,9.561157%,22.293091%);fill-opacity:1;" d="M 18.277344 24.535156 L 17.648438 32.476562 L 15.757812 32.476562 L 15.949219 29.558594 L 12.53125 29.558594 L 12.234375 32.476562 L 10.316406 32.476562 L 10.9375 24.535156 L 12.929688 24.535156 L 12.695312 27.726562 L 16.089844 27.726562 L 16.382812 24.535156 L 18.277344 24.535156 "/>
<path style=" stroke:none;fill-rule:nonzero;fill:rgb(87.568665%,9.561157%,22.293091%);fill-opacity:1;" d="M 43.523438 24.535156 L 38.460938 24.535156 C 38.460938 24.535156 35.628906 24.644531 35.5 26.992188 C 35.367188 29.355469 35.402344 30.042969 35.402344 30.042969 C 35.402344 30.042969 35.339844 32.476562 37.59375 32.476562 L 43.035156 32.476562 L 43.238281 27.558594 L 39.457031 27.558594 L 39.386719 29.355469 L 41.277344 29.355469 L 41.175781 30.613281 L 37.863281 30.613281 C 37.863281 30.613281 37.289062 30.691406 37.289062 30.046875 C 37.289062 29.421875 37.429688 27.230469 37.429688 27.230469 C 37.429688 27.230469 37.429688 26.359375 38.683594 26.359375 L 43.371094 26.359375 L 43.523438 24.535156 "/>
<path style=" stroke:none;fill-rule:nonzero;fill:rgb(87.568665%,9.561157%,22.293091%);fill-opacity:1;" d="M 34.839844 24.5 L 34.304688 32.445312 L 32.28125 32.445312 L 29.121094 27.832031 L 28.789062 32.476562 L 26.800781 32.476562 L 27.425781 24.5 L 29.324219 24.5 L 32.523438 29.558594 L 32.992188 24.511719 L 34.839844 24.5 "/>
<path style=" stroke:none;fill-rule:nonzero;fill:rgb(87.568665%,9.561157%,22.293091%);fill-opacity:1;" d="M 22.167969 19.535156 C 21.789062 20.675781 23.257812 21.785156 23.878906 20.863281 C 26.21875 17.378906 25.902344 14.785156 25.902344 14.785156 C 25.902344 14.785156 22.46875 18.640625 22.167969 19.535156 "/>
<path style=" stroke:none;fill-rule:nonzero;fill:rgb(87.568665%,9.561157%,22.293091%);fill-opacity:1;" d="M 79.085938 15.332031 C 78.835938 15.84375 77.378906 16.097656 77.378906 16.097656 L 77.378906 14.261719 C 77.378906 14.261719 80.480469 13.183594 78.640625 12.613281 C 76.804688 12.046875 73.828125 14.011719 73.828125 14.011719 C 74.210938 14.890625 75.914062 14.640625 75.914062 14.640625 L 75.859375 16.28125 C 75.859375 16.28125 73.566406 16.609375 72.9375 16.609375 C 71.992188 16.609375 71.421875 17.113281 71.421875 17.550781 C 71.421875 18.003906 72.75 18.253906 72.75 18.253906 C 73.070312 17.738281 75.726562 17.550781 75.726562 17.550781 C 75.726562 17.550781 79.796875 16.992188 80.226562 16.472656 C 80.855469 15.714844 79.335938 14.832031 79.085938 15.332031 "/>
<path style=" stroke:none;fill-rule:nonzero;fill:rgb(87.568665%,9.561157%,22.293091%);fill-opacity:1;" d="M 12.007812 14.011719 C 10.664062 14.644531 9.453125 14.578125 9.453125 14.578125 L 9.832031 10.097656 L 11.941406 10.097656 C 14.058594 9.261719 12.074219 7.921875 12.074219 7.921875 L 8.105469 7.921875 C 7.339844 6.441406 6.472656 7.160156 6.050781 8.046875 C 5.476562 9.261719 7.140625 15.097656 7.140625 15.097656 C 7.140625 15.097656 6.121094 15.421875 5.285156 15.480469 C 4.453125 15.542969 0.34375 16.394531 0.09375 17.148438 C -0.425781 18.691406 1.3125 18.753906 2.273438 18.945312 C 3.234375 19.140625 13.289062 16.894531 13.867188 16.703125 C 14.453125 16.507812 15.09375 15.996094 15.023438 14.910156 C 14.957031 13.816406 12.632812 13.707031 12.007812 14.011719 "/>
<path style=" stroke:none;fill-rule:nonzero;fill:rgb(87.568665%,9.561157%,22.293091%);fill-opacity:1;" d="M 26.210938 9.496094 C 25.765625 6.035156 23.714844 7 23.714844 7 C 23.714844 7 22.488281 7.449219 23.398438 8.785156 C 25.316406 10.785156 26.210938 9.496094 26.210938 9.496094 "/>
<path style=" stroke:none;fill-rule:nonzero;fill:rgb(87.568665%,9.561157%,22.293091%);fill-opacity:1;" d="M 24.550781 13.863281 C 24.105469 10.394531 22.050781 11.355469 22.050781 11.355469 C 22.050781 11.355469 20.828125 11.804688 21.726562 13.152344 C 23.652344 15.140625 24.550781 13.863281 24.550781 13.863281 "/>
<path style=" stroke:none;fill-rule:nonzero;fill:rgb(87.568665%,9.561157%,22.293091%);fill-opacity:1;" d="M 38.003906 13.921875 C 37.304688 13.539062 36.019531 14.300781 36.019531 14.300781 C 36.019531 14.300781 36.59375 11.222656 35.953125 11.101562 C 35.320312 10.972656 32.816406 12.441406 32.757812 11.742188 C 32.695312 11.042969 36.28125 8.542969 36.28125 8.542969 C 36.28125 8.542969 36.714844 8.152344 36.148438 7.890625 C 34.867188 7.3125 30.320312 10.328125 30.054688 10.460938 C 29.804688 10.585938 29.738281 10.269531 29.738281 10.269531 C 29.738281 10.269531 33.203125 4.882812 33.453125 4.1875 C 33.714844 3.46875 32.941406 2.769531 31.789062 3.21875 C 30.632812 3.667969 31.34375 5.453125 31.34375 5.453125 C 31.65625 5.84375 29.863281 7.890625 29.863281 7.890625 C 29.863281 7.890625 27.882812 10.90625 27.816406 11.421875 C 27.75 11.929688 28.324219 12.769531 28.714844 12.257812 C 29.097656 11.742188 32.300781 11.042969 32.300781 11.042969 L 29.546875 15.523438 C 29.546875 15.523438 27.492188 15.589844 26.726562 15.972656 C 25.957031 16.351562 26.339844 17.191406 26.339844 17.191406 C 26.339844 17.191406 28.628906 16.910156 28.199219 17.378906 C 26.53125 19.238281 26.855469 20.707031 26.855469 20.707031 L 32.242188 19.941406 C 32.242188 19.941406 31.601562 22.898438 32.171875 22.828125 C 34.425781 22.574219 34.539062 19.878906 34.539062 19.878906 L 35.121094 19.238281 C 35.121094 19.238281 35.507812 16.351562 35.507812 15.777344 C 35.507812 15.199219 37.753906 15.523438 38.261719 15.394531 C 38.773438 15.265625 38.714844 14.300781 38.003906 13.921875 M 31.082031 14.371094 C 31.082031 14.371094 31.601562 14.550781 31.539062 14.945312 L 30.824219 14.945312 Z M 28.527344 18.730469 C 28.003906 18.574219 30.257812 16.15625 30.257812 16.15625 C 30.257812 16.15625 32.125 17.390625 32.050781 17.835938 C 31.910156 18.53125 29.605469 19.046875 28.527344 18.730469 M 32.480469 13.421875 C 32.273438 13.886719 32.121094 13.449219 31.910156 13.402344 C 31.277344 13.28125 32.171875 12.503906 32.171875 12.503906 C 32.171875 12.503906 32.839844 12.5625 32.480469 13.421875 M 33.207031 16.992188 C 32.761719 17.367188 31.859375 15.644531 33.207031 15.527344 C 33.207031 15.523438 34.28125 16.097656 33.207031 16.992188 M 33.714844 14.75 C 33.492188 15.160156 32.4375 13.28125 33.714844 13.085938 C 33.714844 13.085938 34.609375 13.085938 33.714844 14.75 "/>
<path style=" stroke:none;fill-rule:nonzero;fill:rgb(87.568665%,9.561157%,22.293091%);fill-opacity:1;" d="M 83.402344 4.554688 C 82.054688 5.515625 79.683594 5.96875 79.363281 5.90625 C 79.039062 5.832031 76.605469 3.53125 76.605469 3.53125 C 74.425781 3.140625 74.6875 4.363281 74.6875 4.8125 C 74.6875 5.261719 76.347656 6.796875 76.347656 6.796875 C 75.839844 7.246094 71.863281 7.695312 71.863281 7.695312 C 71.863281 7.695312 69.828125 7.191406 69.296875 7.695312 C 67.761719 9.175781 68.851562 11.734375 69.242188 12.1875 C 69.621094 12.621094 70.195312 11.734375 70.386719 11.472656 C 70.578125 11.226562 70.195312 9.558594 70.328125 9.230469 C 70.453125 8.917969 73.722656 8.210938 73.722656 8.210938 C 74.113281 11.289062 72.503906 11.667969 72.503906 11.667969 L 72.4375 12.117188 C 72.4375 12.117188 72.886719 12.5625 73.273438 12.1875 C 76.328125 9.136719 75 7.628906 75.324219 7.695312 C 75.648438 7.761719 78.535156 7.054688 78.535156 7.054688 C 78.535156 7.054688 82.441406 5.582031 82.628906 6.09375 C 83.003906 7.097656 81.027344 8.019531 81.027344 8.019531 C 81.347656 8.339844 82.570312 7.761719 82.570312 7.761719 C 82.570312 7.761719 84.683594 8.144531 85.195312 6.605469 C 85.53125 5.617188 83.933594 4.171875 83.402344 4.554688 "/>
<path style=" stroke:none;fill-rule:nonzero;fill:rgb(87.568665%,9.561157%,22.293091%);fill-opacity:1;" d="M 81.09375 9.683594 C 80.90625 9.945312 80.445312 9.808594 80.445312 9.808594 C 81.027344 8.917969 80.324219 7.246094 79.679688 7.246094 C 79.039062 7.246094 78.394531 9.746094 78.84375 10.835938 C 79.292969 11.925781 81.863281 11.472656 81.863281 11.472656 C 81.863281 11.472656 82.082031 11.242188 82.4375 10.578125 C 82.953125 9.628906 81.285156 9.429688 81.09375 9.683594 "/>
<path style=" stroke:none;fill-rule:nonzero;fill:rgb(87.568665%,9.561157%,22.293091%);fill-opacity:1;" d="M 100.480469 14.78125 L 100.097656 16.460938 C 99.640625 16.074219 97.445312 17.3125 97.445312 17.3125 C 97.445312 17.3125 96.929688 17.5 96.863281 17.105469 C 96.800781 16.71875 99.253906 14.464844 99.253906 13.753906 C 99.253906 13.035156 97.765625 13.425781 97.765625 13.425781 L 94.335938 17.503906 C 94.335938 17.503906 93.953125 18.476562 95.179688 18.789062 C 97.1875 19.308594 100.421875 17.363281 100.421875 17.363281 C 100.421875 17.363281 100.933594 18.722656 101.519531 18.472656 C 102.101562 18.207031 103.152344 17.296875 102.613281 16.015625 C 101.585938 13.554688 100.480469 14.78125 100.480469 14.78125 "/>
<path style=" stroke:none;fill-rule:nonzero;fill:rgb(87.568665%,9.561157%,22.293091%);fill-opacity:1;" d="M 94.722656 10.640625 C 95.1875 10.113281 94.402344 8.609375 93.085938 8.8125 C 91.78125 9 90.199219 12.234375 90.671875 12.855469 C 91.257812 13.652344 94.277344 11.167969 94.722656 10.640625 "/>
<path style=" stroke:none;fill-rule:nonzero;fill:rgb(87.568665%,9.561157%,22.293091%);fill-opacity:1;" d="M 102.933594 7.214844 C 100.703125 8.136719 102.476562 11.605469 102.796875 12.050781 C 103.117188 12.511719 104.53125 12.359375 104.691406 11.792969 C 105.085938 10.417969 104.4375 6.597656 102.933594 7.214844 "/>
<path style=" stroke:none;fill-rule:nonzero;fill:rgb(87.568665%,9.561157%,22.293091%);fill-opacity:1;" d="M 123.164062 3.878906 C 122.96875 4.0625 118.164062 5.738281 118.164062 5.738281 C 118.164062 5.738281 115.914062 5.097656 115.789062 6.765625 C 116.4375 8.8125 118.230469 7.472656 118.230469 7.472656 C 121.046875 5.421875 122.328125 5.613281 122.328125 5.613281 L 122.464844 16.890625 C 122.464844 16.890625 120.488281 18.742188 121.480469 20.101562 C 122.394531 21.316406 123.355469 20.101562 123.742188 19.644531 C 124.125 19.191406 124.382812 5.546875 124.382812 4.976562 C 124.378906 4.390625 123.355469 3.679688 123.164062 3.878906 "/>
<path style=" stroke:none;fill-rule:nonzero;fill:rgb(87.568665%,9.561157%,22.293091%);fill-opacity:1;" d="M 114.1875 10.996094 L 112.644531 11.058594 C 112.453125 12.085938 113.929688 12.460938 114.828125 12.085938 C 118.800781 10.414062 119.382812 9.136719 119.382812 9.136719 C 118.800781 8.050781 114.1875 10.996094 114.1875 10.996094 "/>
<path style=" stroke:none;fill-rule:nonzero;fill:rgb(87.568665%,9.561157%,22.293091%);fill-opacity:1;" d="M 117.515625 12.085938 C 116.6875 12.144531 112.976562 15.164062 112.976562 15.164062 C 113.21875 17.726562 116.109375 17.144531 116.75 16.894531 C 117.386719 16.632812 118.863281 13.625 119.121094 13.242188 C 119.382812 12.851562 118.351562 12.019531 117.515625 12.085938 M 116.300781 15.609375 C 115.34375 16.183594 114.441406 16.316406 114.316406 15.355469 C 114.316406 15.355469 116.75 13.179688 116.886719 13.492188 C 117.007812 13.816406 117.265625 15.027344 116.300781 15.609375 "/>
<path style=" stroke:none;fill-rule:nonzero;fill:rgb(87.568665%,9.561157%,22.293091%);fill-opacity:1;" d="M 61.972656 14.210938 C 61.972656 14.210938 61.953125 13.984375 61.710938 14.121094 C 60.691406 14.695312 61.199219 17.488281 59.378906 17.863281 C 57.160156 18.316406 56.335938 16.96875 56.136719 16.070312 C 55.902344 14.960938 57.402344 12.242188 57.65625 11.40625 C 57.914062 10.574219 55.957031 10.53125 55.957031 10.53125 C 56.792969 9.203125 57.511719 8.347656 58.351562 8.523438 L 58.410156 7.828125 L 57.832031 7.855469 C 57.832031 7.855469 57.949219 6.222656 56.136719 5.183594 C 55.136719 4.601562 54.085938 5.410156 54.027344 5.613281 C 53.433594 7.769531 56.222656 7.539062 56.203125 8.265625 C 56.179688 8.78125 53.34375 9.089844 52.816406 9.355469 C 52.433594 9.542969 52.386719 10.136719 52.75 10.347656 C 53.472656 10.746094 55.09375 9.4375 55.417969 9.136719 C 55.738281 9.082031 55.554688 9.519531 55.484375 9.742188 C 55.191406 10.703125 52.914062 13.320312 50.949219 16.882812 C 50.855469 17.058594 50.976562 17.726562 51.34375 17.421875 C 51.695312 17.132812 53.929688 13.128906 54.730469 12.390625 C 55.835938 11.378906 56.28125 11.855469 56.269531 12.160156 C 56.234375 13.046875 54.355469 17.128906 55.808594 18.625 C 56.855469 19.722656 60.925781 19.191406 61.910156 18.683594 C 62.136719 18.5625 62.5 18.082031 61.847656 17.484375 C 61.378906 17.050781 61.972656 14.210938 61.972656 14.210938 "/>
<path style=" stroke:none;fill-rule:nonzero;fill:rgb(87.568665%,9.561157%,22.293091%);fill-opacity:1;" d="M 50.441406 12.164062 C 50.320312 11.738281 51.515625 10.667969 50.984375 9.863281 C 50.804688 9.359375 49.710938 9.4375 49.710938 9.4375 C 49.710938 9.4375 50.734375 7.78125 50.925781 6.953125 C 51.117188 6.113281 49.628906 5.703125 49.628906 5.703125 C 47.273438 7.464844 44.566406 12.34375 44.566406 12.34375 C 44.566406 12.34375 44.84375 13.019531 45.03125 12.5 C 45.222656 11.992188 47.679688 10.539062 47.679688 10.539062 C 48.480469 11.917969 49.460938 10.773438 49.460938 10.773438 C 49.460938 10.773438 49.445312 11.699219 49.464844 11.945312 C 49.496094 12.113281 48.269531 11.460938 47.769531 11.527344 C 46.640625 11.652344 47.726562 12.773438 47.726562 12.773438 C 47.726562 13.148438 47.695312 13.328125 47.703125 13.484375 C 47.46875 13.667969 46.972656 13.550781 46.972656 13.550781 C 46.972656 13.550781 47.171875 11.628906 46.851562 11.59375 C 46.570312 11.5625 46.210938 12.214844 46.210938 12.214844 C 46.210938 12.214844 45.984375 13.421875 45.910156 14.238281 C 41.796875 15.089844 41.535156 15.679688 41.535156 15.679688 C 41.535156 15.679688 41.582031 16.339844 42.074219 16.582031 C 42.550781 16.820312 43.015625 16.949219 43.445312 16.285156 C 43.777344 15.785156 45.828125 14.898438 45.828125 14.898438 L 45.691406 18.5 C 45.691406 18.5 45.722656 19.707031 46.386719 19.425781 C 47.300781 19.066406 47.070312 14.878906 47.070312 14.878906 L 47.355469 14.914062 C 47.640625 16.871094 49.035156 16.742188 49.035156 16.742188 C 49.035156 16.742188 49.359375 17.25 49.226562 17.574219 C 49.101562 17.894531 48.28125 17.789062 48.28125 17.789062 C 48.691406 18.34375 48.976562 18.042969 49.246094 19.652344 C 49.335938 20.152344 50.386719 19.570312 50.554688 19.132812 C 50.71875 18.707031 50.40625 13.800781 50.40625 13.800781 C 52.222656 11.992188 50.515625 12.21875 50.441406 12.164062 M 49.035156 14.761719 C 48.90625 14.773438 48.804688 14.699219 48.804688 14.699219 C 48.804688 14.699219 48.707031 14.097656 48.867188 14.007812 C 49.035156 13.917969 49.101562 13.976562 49.101562 13.976562 C 49.101562 13.976562 49.15625 14.742188 49.035156 14.761719 "/>
</g>
</svg>
