<?xml version="1.0" encoding="UTF-8"?>
<svg xmlns="http://www.w3.org/2000/svg" xmlns:xlink="http://www.w3.org/1999/xlink" width="155.93pt" height="59pt" viewBox="0 0 155.93 59" version="1.1">
<defs>
<clipPath id="clip1">
  <path d="M 138 9 L 155.929688 9 L 155.929688 50 L 138 50 Z M 138 9 "/>
</clipPath>
</defs>
<g id="surface1">
<path style=" stroke:none;fill-rule:nonzero;fill:rgb(13.729858%,12.159729%,12.548828%);fill-opacity:1;" d="M 91.960938 59 C 91.210938 58.6875 90.464844 58.371094 89.617188 58.019531 C 89.617188 56.964844 89.617188 55.84375 89.617188 54.609375 C 89.949219 54.644531 90.25 54.640625 90.535156 54.710938 C 91.683594 54.996094 92.820312 55.375 93.980469 55.59375 C 96.390625 56.039062 98.023438 54.988281 98.558594 52.601562 C 98.796875 51.542969 98.863281 50.429688 98.867188 49.339844 C 98.890625 39.1875 98.882812 29.035156 98.882812 18.882812 C 98.882812 18.390625 98.882812 17.898438 98.882812 17.335938 C 100.183594 17.335938 101.34375 17.335938 102.640625 17.335938 C 102.640625 17.800781 102.640625 18.199219 102.640625 18.597656 C 102.640625 29.070312 102.640625 39.542969 102.644531 50.019531 C 102.644531 51.542969 102.386719 53.011719 101.917969 54.457031 C 101.238281 56.570312 99.855469 57.96875 97.773438 58.703125 C 97.566406 58.777344 97.375 58.898438 97.179688 59 C 95.441406 59 93.699219 59 91.960938 59 "/>
<path style=" stroke:none;fill-rule:nonzero;fill:rgb(13.729858%,12.159729%,12.548828%);fill-opacity:1;" d="M 38.027344 35.171875 C 36.457031 35.171875 35.035156 35.085938 33.628906 35.195312 C 32.035156 35.316406 30.425781 35.515625 28.960938 36.207031 C 28.148438 36.59375 27.304688 37.039062 26.671875 37.660156 C 24.949219 39.359375 25.3125 42.179688 27.371094 43.441406 C 27.984375 43.820312 28.683594 44.097656 29.382812 44.28125 C 32.207031 45.023438 35.082031 44.738281 38.027344 44.738281 C 38.027344 41.472656 38.027344 38.34375 38.027344 35.171875 Z M 38.011719 30.027344 C 38.011719 28.585938 38.144531 27.292969 37.984375 26.039062 C 37.660156 23.550781 36.101562 22.160156 33.597656 21.929688 C 32.125 21.796875 30.660156 21.878906 29.25 22.339844 C 27.515625 22.90625 25.804688 23.546875 24.082031 24.164062 C 23.617188 24.332031 23.160156 24.515625 22.574219 24.742188 C 22.574219 22.824219 22.574219 21.054688 22.574219 19.15625 C 24.203125 18.183594 26.035156 17.484375 27.945312 17.050781 C 29.542969 16.6875 31.179688 16.40625 32.816406 16.308594 C 34.929688 16.183594 37.023438 16.503906 38.953125 17.464844 C 42.023438 18.996094 43.410156 21.667969 43.851562 24.933594 C 43.953125 25.65625 43.957031 26.394531 43.957031 27.125 C 43.964844 33.945312 43.960938 40.765625 43.960938 47.585938 C 43.960938 47.945312 43.925781 48.300781 43.90625 48.726562 C 41.980469 49.265625 40.085938 49.820312 38.125 49.898438 C 35.566406 50.003906 32.996094 50.015625 30.441406 49.894531 C 28.085938 49.785156 25.859375 49.09375 23.84375 47.804688 C 17.832031 43.953125 18.492188 35.425781 24.527344 32.160156 C 26.324219 31.1875 28.257812 30.628906 30.273438 30.449219 C 32.410156 30.253906 34.558594 30.214844 36.707031 30.109375 C 37.109375 30.089844 37.511719 30.058594 38.011719 30.027344 "/>
<path style=" stroke:none;fill-rule:nonzero;fill:rgb(13.729858%,12.159729%,12.548828%);fill-opacity:1;" d="M 4.691406 22.214844 C 3.046875 22.214844 1.636719 22.214844 0.199219 22.214844 C -0.140625 21.320312 0.0664062 20.449219 0.0273438 19.601562 C -0.0078125 18.785156 0.0195312 17.96875 0.0195312 16.984375 C 1.585938 16.984375 3.066406 16.984375 4.691406 16.984375 C 4.691406 16.375 4.691406 15.933594 4.691406 15.488281 C 4.691406 13.796875 4.652344 12.101562 4.710938 10.414062 C 4.742188 9.414062 4.835938 8.398438 5.070312 7.429688 C 6.445312 1.753906 11.664062 -0.472656 16.082031 0.0820312 C 17.921875 0.316406 19.640625 0.863281 21.207031 2.015625 C 21.207031 3.859375 21.207031 5.71875 21.207031 7.667969 C 20.515625 7.617188 20.085938 7.179688 19.605469 6.890625 C 18.054688 5.945312 16.441406 5.28125 14.566406 5.40625 C 12.773438 5.527344 11.539062 6.394531 11.019531 8.117188 C 10.792969 8.855469 10.644531 9.640625 10.628906 10.40625 C 10.582031 12.417969 10.621094 14.429688 10.636719 16.441406 C 10.636719 16.566406 10.710938 16.691406 10.792969 16.945312 C 13.449219 16.945312 16.125 16.945312 18.957031 16.945312 C 18.523438 18.902344 17.394531 20.378906 16.839844 22.191406 C 14.824219 22.191406 12.828125 22.191406 10.683594 22.191406 C 10.667969 22.78125 10.640625 23.265625 10.640625 23.746094 C 10.636719 31.753906 10.640625 39.753906 10.632812 47.757812 C 10.632812 48.335938 10.558594 48.914062 10.507812 49.621094 C 8.804688 49.714844 7.21875 49.761719 5.628906 49.679688 C 5.027344 49.648438 4.742188 49.261719 4.707031 48.683594 C 4.683594 48.320312 4.691406 47.957031 4.691406 47.589844 C 4.691406 39.675781 4.691406 31.765625 4.691406 23.851562 C 4.691406 23.359375 4.691406 22.867188 4.691406 22.214844 "/>
<path style=" stroke:none;fill-rule:nonzero;fill:rgb(13.729858%,12.159729%,12.548828%);fill-opacity:1;" d="M 69.535156 18.910156 C 69.535156 21.058594 69.535156 23.226562 69.535156 25.617188 C 68.417969 24.84375 67.445312 24.199219 66.496094 23.515625 C 64.523438 22.089844 62.308594 21.511719 59.902344 21.644531 C 59.359375 21.671875 58.808594 21.773438 58.289062 21.929688 C 56.886719 22.347656 55.851562 23.152344 55.609375 24.714844 C 55.367188 26.300781 55.828125 27.652344 57.128906 28.574219 C 57.9375 29.144531 58.882812 29.550781 59.808594 29.917969 C 61.507812 30.589844 63.257812 31.140625 64.953125 31.816406 C 66.453125 32.414062 67.808594 33.265625 68.863281 34.527344 C 73.03125 39.496094 71.046875 47 64.960938 49.390625 C 62.453125 50.375 59.867188 50.421875 57.257812 50.105469 C 56.132812 49.964844 55.015625 49.667969 53.917969 49.363281 C 52.496094 48.960938 51.214844 48.265625 50.097656 47.28125 C 50.222656 46.175781 50.421875 45.097656 50.445312 44.015625 C 50.46875 42.984375 50.304688 41.949219 50.203125 40.644531 C 50.960938 41.148438 51.523438 41.5 52.066406 41.886719 C 52.882812 42.472656 53.644531 43.148438 54.503906 43.660156 C 56.804688 45.042969 59.300781 45.375 61.902344 44.742188 C 63.628906 44.320312 64.957031 43.371094 65.214844 41.503906 C 65.460938 39.683594 64.558594 38.289062 63.066406 37.363281 C 62.109375 36.765625 61.019531 36.363281 59.960938 35.941406 C 58.730469 35.449219 57.46875 35.046875 56.226562 34.578125 C 55.628906 34.351562 55.042969 34.085938 54.46875 33.804688 C 51.972656 32.585938 50.589844 30.566406 50.191406 27.832031 C 49.953125 26.195312 49.796875 24.566406 50.160156 22.925781 C 50.566406 21.097656 51.554688 19.65625 53.019531 18.535156 C 54.734375 17.21875 56.691406 16.496094 58.851562 16.410156 C 60.039062 16.363281 61.234375 16.367188 62.417969 16.449219 C 63.929688 16.554688 65.40625 16.878906 66.78125 17.546875 C 67.683594 17.984375 68.578125 18.433594 69.535156 18.910156 "/>
<path style=" stroke:none;fill-rule:nonzero;fill:rgb(13.729858%,12.159729%,12.548828%);fill-opacity:1;" d="M 74.34375 17.058594 C 75.996094 17.058594 77.585938 17.058594 79.226562 17.058594 C 79.507812 15.691406 79.316406 14.417969 79.339844 13.15625 C 79.363281 11.925781 79.34375 10.695312 79.34375 9.476562 C 80.304688 9.175781 83.109375 9.125 84.765625 9.394531 C 84.765625 11.824219 84.765625 14.28125 84.765625 16.753906 C 85.820312 17.109375 86.78125 16.910156 87.71875 16.945312 C 88.675781 16.976562 89.640625 16.953125 90.601562 16.953125 C 91.550781 16.953125 92.5 16.953125 93.566406 16.953125 C 92.78125 18.757812 92.074219 20.390625 91.308594 22.148438 C 89.328125 22.148438 87.328125 22.148438 85.277344 22.148438 C 85.019531 23.546875 85.171875 24.820312 85.144531 26.082031 C 85.117188 27.410156 85.136719 28.738281 85.136719 30.0625 C 85.136719 31.34375 85.136719 32.625 85.136719 33.90625 C 85.136719 35.1875 85.136719 36.46875 85.136719 37.753906 C 85.136719 39.03125 85.136719 40.316406 85.136719 41.59375 C 85.136719 42.921875 85.136719 44.25 85.136719 45.578125 C 85.136719 46.855469 85.136719 48.132812 85.136719 49.429688 C 84.167969 49.730469 83.253906 49.5625 82.355469 49.589844 C 81.445312 49.621094 80.535156 49.597656 79.527344 49.597656 C 79.289062 48.25 79.433594 46.976562 79.40625 45.714844 C 79.378906 44.390625 79.390625 43.0625 79.386719 41.734375 C 79.386719 40.453125 79.386719 39.171875 79.386719 37.890625 C 79.382812 36.609375 79.378906 35.328125 79.375 34.046875 C 79.371094 32.765625 79.371094 31.484375 79.367188 30.203125 C 79.367188 28.875 79.359375 27.546875 79.355469 26.222656 C 79.351562 24.949219 79.355469 23.675781 79.355469 22.261719 C 77.652344 22.261719 76.074219 22.261719 74.34375 22.261719 C 74.34375 20.507812 74.34375 18.890625 74.34375 17.058594 "/>
<g clip-path="url(#clip1)" clip-rule="nonzero">
<path style=" stroke:none;fill-rule:nonzero;fill:rgb(13.729858%,12.159729%,12.548828%);fill-opacity:1;" d="M 147.203125 49.324219 C 145.894531 49.324219 144.808594 49.324219 143.636719 49.324219 C 143.445312 47.699219 143.574219 46.109375 143.550781 44.527344 C 143.527344 42.96875 143.546875 41.414062 143.546875 39.859375 C 143.546875 38.257812 143.546875 36.65625 143.546875 35.054688 C 143.546875 33.453125 143.546875 31.851562 143.546875 30.25 C 143.546875 28.691406 143.546875 27.136719 143.546875 25.582031 C 143.546875 23.992188 143.546875 22.402344 143.546875 20.667969 C 141.953125 20.667969 140.511719 20.667969 138.96875 20.667969 C 138.96875 19.5 138.96875 18.476562 138.96875 17.339844 C 140.429688 17.152344 141.933594 17.355469 143.535156 17.203125 C 143.578125 14.519531 143.613281 11.925781 143.652344 9.289062 C 144.800781 8.980469 145.867188 9.105469 147.066406 9.199219 C 147.066406 11.851562 147.066406 14.441406 147.066406 17.195312 C 148.132812 17.214844 149.070312 17.242188 150.011719 17.25 C 150.972656 17.261719 151.933594 17.261719 152.894531 17.261719 C 153.851562 17.261719 154.804688 17.261719 155.933594 17.261719 C 155.273438 18.4375 154.703125 19.460938 154.058594 20.609375 C 151.863281 20.609375 149.636719 20.609375 147.359375 20.609375 C 147.0625 22.097656 147.242188 23.464844 147.210938 24.8125 C 147.179688 26.140625 147.203125 27.46875 147.203125 28.792969 C 147.203125 30.167969 147.203125 31.539062 147.203125 32.914062 C 147.203125 34.285156 147.203125 35.660156 147.203125 37.03125 C 147.203125 38.40625 147.203125 39.777344 147.203125 41.148438 C 147.203125 42.476562 147.203125 43.804688 147.203125 45.132812 C 147.203125 46.492188 147.203125 47.855469 147.203125 49.324219 "/>
</g>
<path style=" stroke:none;fill-rule:nonzero;fill:rgb(13.729858%,12.159729%,12.548828%);fill-opacity:1;" d="M 98.207031 9.308594 C 98.183594 7.761719 99.210938 6.664062 100.699219 6.636719 C 102.171875 6.605469 103.242188 7.710938 103.257812 9.265625 C 103.269531 10.804688 102.203125 11.953125 100.757812 11.957031 C 99.296875 11.960938 98.222656 10.84375 98.207031 9.308594 "/>
<path style=" stroke:none;fill-rule:nonzero;fill:rgb(13.729858%,12.159729%,12.548828%);fill-opacity:1;" d="M 112.664062 29.886719 C 112.714844 28.636719 113.144531 27.488281 113.742188 26.414062 C 115.546875 23.1875 118.144531 20.945312 121.855469 20.242188 C 126.988281 19.273438 131.378906 22.324219 132.320312 27.460938 C 132.46875 28.257812 132.527344 29.070312 132.636719 29.9375 C 130.757812 30.210938 113.664062 30.144531 112.664062 29.886719 Z M 131.785156 19.339844 C 128.699219 17.335938 126.796875 16.960938 125.660156 16.832031 C 122.835938 16.515625 120.148438 16.765625 117.53125 18.058594 C 113.726562 19.941406 111.0625 22.785156 109.628906 26.765625 C 108.125 30.949219 107.992188 35.199219 109.394531 39.414062 C 111.039062 44.378906 114.292969 47.804688 119.378906 49.355469 C 121.601562 50.03125 123.878906 50.078125 126.175781 49.949219 C 128.976562 49.785156 131.523438 48.835938 133.949219 47.484375 C 134.550781 47.152344 134.96875 46.65625 134.996094 45.972656 C 135.046875 44.800781 135.011719 43.628906 135.011719 42.296875 C 134.476562 42.675781 134.050781 42.941406 133.671875 43.257812 C 130.898438 45.566406 127.667969 46.464844 124.117188 46.410156 C 118.410156 46.324219 114.0625 42.882812 112.726562 37.332031 C 112.429688 36.109375 112.144531 34.855469 112.410156 33.519531 C 112.832031 33.5 113.1875 33.46875 113.546875 33.46875 C 116.246094 33.472656 118.945312 33.480469 121.644531 33.480469 C 126.085938 33.484375 130.523438 33.496094 134.964844 33.46875 C 136.507812 33.457031 136.882812 33.039062 136.691406 31.550781 C 136.453125 29.695312 136.191406 27.835938 135.820312 26.003906 C 135.449219 24.171875 134.726562 22.535156 133.609375 21.140625 L 132.144531 19.628906 C 132.027344 19.53125 131.914062 19.421875 131.785156 19.339844 "/>
<path style=" stroke:none;fill-rule:nonzero;fill:rgb(13.729858%,12.159729%,12.548828%);fill-opacity:1;" d="M 132.144531 19.628906 L 133.609375 21.140625 C 133.183594 20.601562 132.691406 20.097656 132.144531 19.628906 "/>
</g>
</svg>
