<svg xmlns="http://www.w3.org/2000/svg" width="176pt" height="45.8" viewBox="0 0 176 34.35"><defs><clipPath id="a"><path d="M20 6h19v28.352H20Zm0 0"/></clipPath></defs><path d="M11.715 4.418a5.68 5.68 0 0 0-4.008 1.52 4.9 4.9 0 0 0-1.652 3.808v1.078h3.53v4.219H6.044v14.14H1.785v-14.14H0v-4.219h1.785V9.746A8.93 8.93 0 0 1 4.77 3.004 9.93 9.93 0 0 1 11.715.172zM14.055.172h4.258v29.012h-4.258zM82.586 18.238A7.157 7.157 0 0 0 75.5 11.16a7.126 7.126 0 0 0-7.098 7.078 7.093 7.093 0 1 0 14.184 0m4.258 0C86.82 24.488 81.746 29.54 75.5 29.54c-6.246.016-11.32-5.035-11.34-11.277v-.02a10.91 10.91 0 0 1 3.324-7.996c4.383-4.426 11.524-4.46 15.95-.078q.04.042.082.078a10.92 10.92 0 0 1 3.328 7.992M103.43 16.477a5.32 5.32 0 0 0-10.633 0v12.707h-4.258V16.477a9.19 9.19 0 0 1 2.89-6.688c3.466-3.687 9.262-3.867 12.954-.402q.206.198.398.402 2.89 2.89 2.89 6.688v12.707h-4.241zM127.8 18.238a7.16 7.16 0 0 0-7.105-7.082 7.124 7.124 0 0 0-7.082 7.082 7.09 7.09 0 0 0 7.09 7.094 7.093 7.093 0 0 0 7.094-7.094Zm4.259 0c-.028 6.254-5.11 11.305-11.36 11.297-6.246.016-11.32-5.035-11.336-11.277v-.02a11.08 11.08 0 0 1 3.196-7.972c4.066-4.309 10.855-4.508 15.164-.442.027.024.05.047.078.074V.172h4.258zM134.352 7.258h4.27v21.926h-4.27z" style="stroke:none;fill-rule:nonzero;fill:#f9b80c;fill-opacity:1"/><g clip-path="url(#a)"><path d="m33.91 6.938-4.469 11.285-4.52-11.285h-4.843l6.945 17.703-4.218 9.71h4.816L38.738 6.939z" style="stroke:none;fill-rule:nonzero;fill:#f9b80c;fill-opacity:1"/></g><path d="M136.48-.004c1.2 0 2.168.973 2.168 2.168a2.169 2.169 0 1 1-2.168-2.168M59.656 10.309c-4.054-4.317-10.843-4.532-15.16-.477l-.129.125V.172H40.09v18.152a11.1 11.1 0 0 0 1.137 5.024l2.359.367c.078.012.156 0 .223-.04.8-.613 2.89-1.991 3.68-2.605v-.054c-.216-.067-1.61-.946-4.048-2.38-.492-.292-.57-.312-.109-.734.262-.246.54-.476.797-.726a1.4 1.4 0 0 1 .984-.414c1.29-.043 4.68 1.203 6.047 1.156.2-.016.387-.09.54-.215 1.015-.601 3.109-1.812 4.222-2.351.926-.45 3.203-1.68 4.125-.415.258.364.91 1.282-1.695 3.137-1.032.887-12.582 7.524-14.52 8.664a11.417 11.417 0 0 0 15.7-.34 10.96 10.96 0 0 0 3.363-8.039 11.3 11.3 0 0 0-3.239-8.05M141.672 27.23c.637 0 1.148.512 1.148 1.149s-.511 1.152-1.148 1.152a1.15 1.15 0 0 1-1.152-1.152c0-.637.515-1.149 1.152-1.149M148.656 29.559a4.625 4.625 0 0 1-3.273-7.891 4.645 4.645 0 0 1 6.554 0l.122.117-1.348 1.352-.125-.121a2.65 2.65 0 0 0-1.934-.797 2.714 2.714 0 1 0 0 5.43 2.63 2.63 0 0 0 1.934-.794l.113-.12 1.352 1.35-.121.122a4.48 4.48 0 0 1-3.274 1.352M156.996 22.219a2.715 2.715 0 0 0-2.707 2.715 2.71 2.71 0 0 0 2.715 2.707 2.707 2.707 0 0 0 2.707-2.715c0-.715-.285-1.403-.79-1.91a2.62 2.62 0 0 0-1.925-.797m0 7.34a4.62 4.62 0 0 1-4.617-4.63 4.6 4.6 0 0 1 1.351-3.261 4.623 4.623 0 0 1 6.54-.133 4.627 4.627 0 0 1 .132 6.54l-.132.132a4.47 4.47 0 0 1-3.274 1.352M174.102 29.082v-4.91a1.95 1.95 0 0 0-1.954-1.953 1.84 1.84 0 0 0-1.367.574 1.9 1.9 0 0 0-.566 1.379v4.91h-1.93v-4.91a1.88 1.88 0 0 0-.566-1.379 1.84 1.84 0 0 0-1.367-.574 1.9 1.9 0 0 0-1.38.574c-.374.36-.581.86-.57 1.379v4.91h-1.91v-4.91a3.853 3.853 0 0 1 5.563-3.461 4.1 4.1 0 0 1 1.02.738l.167.172.168-.172c.3-.297.649-.547 1.024-.734a3.864 3.864 0 0 1 5.171 1.762 3.9 3.9 0 0 1 .395 1.695v4.91z" style="stroke:none;fill-rule:nonzero;fill:#f9b80c;fill-opacity:1"/></svg>