<?xml version="1.0" encoding="UTF-8"?>
<svg xmlns="http://www.w3.org/2000/svg" xmlns:xlink="http://www.w3.org/1999/xlink" width="175pt" height="20.39pt" viewBox="0 0 175 20.39" version="1.1">
<defs>
<clipPath id="clip1">
  <path d="M 23 1 L 45 1 L 45 20.390625 L 23 20.390625 Z M 23 1 "/>
</clipPath>
<clipPath id="clip2">
  <path d="M 44 1 L 70 1 L 70 20.390625 L 44 20.390625 Z M 44 1 "/>
</clipPath>
<clipPath id="clip3">
  <path d="M 66 1 L 91 1 L 91 20.390625 L 66 20.390625 Z M 66 1 "/>
</clipPath>
<clipPath id="clip4">
  <path d="M 92 1 L 114 1 L 114 20.390625 L 92 20.390625 Z M 92 1 "/>
</clipPath>
<clipPath id="clip5">
  <path d="M 116 1 L 141 1 L 141 20.390625 L 116 20.390625 Z M 116 1 "/>
</clipPath>
<clipPath id="clip6">
  <path d="M 142 1 L 149 1 L 149 20.390625 L 142 20.390625 Z M 142 1 "/>
</clipPath>
<clipPath id="clip7">
  <path d="M 154 1 L 175 1 L 175 20.390625 L 154 20.390625 Z M 154 1 "/>
</clipPath>
<clipPath id="clip8">
  <path d="M 0 0 L 21 0 L 21 20.390625 L 0 20.390625 Z M 0 0 "/>
</clipPath>
</defs>
<g id="surface1">
<g clip-path="url(#clip1)" clip-rule="nonzero">
<path style=" stroke:none;fill-rule:nonzero;fill:rgb(17.701721%,26.164246%,48.095703%);fill-opacity:1;" d="M 32.964844 4.984375 L 30.203125 4.984375 L 30.203125 10.136719 L 33.316406 10.136719 C 36.527344 10.136719 38.183594 9.261719 38.183594 7.574219 C 38.183594 5.910156 36.730469 4.984375 32.964844 4.984375 Z M 37.734375 20.246094 L 32.261719 13.226562 L 30.203125 13.226562 L 30.203125 20.246094 L 23.925781 20.246094 L 23.925781 1.765625 L 33.265625 1.765625 C 40.09375 1.765625 44.460938 3.691406 44.460938 7.519531 C 44.460938 10.109375 41.949219 11.71875 38.535156 12.5625 L 44.5625 20.246094 L 37.734375 20.246094 "/>
</g>
<g clip-path="url(#clip2)" clip-rule="nonzero">
<path style=" stroke:none;fill-rule:nonzero;fill:rgb(17.701721%,26.164246%,48.095703%);fill-opacity:1;" d="M 60.183594 13.273438 L 60.183594 20.246094 L 53.90625 20.246094 L 53.90625 13.328125 L 44.867188 1.765625 L 51.796875 1.765625 L 54.507812 5.511719 C 55.664062 7.121094 56.820312 8.945312 57.121094 9.816406 C 57.472656 8.945312 58.625 7.042969 59.730469 5.511719 L 62.441406 1.765625 L 69.269531 1.765625 L 60.183594 13.273438 "/>
</g>
<g clip-path="url(#clip3)" clip-rule="nonzero">
<path style=" stroke:none;fill-rule:nonzero;fill:rgb(17.701721%,26.164246%,48.095703%);fill-opacity:1;" d="M 79.945312 11.113281 C 79.34375 9.6875 78.539062 7.546875 78.289062 6.625 C 78.039062 7.574219 77.335938 9.554688 76.683594 11.058594 L 75.730469 13.304688 L 80.902344 13.304688 Z M 83.910156 20.246094 L 82.253906 16.390625 L 74.371094 16.390625 L 72.71875 20.246094 L 66.289062 20.246094 L 75.277344 1.765625 L 81.402344 1.765625 L 90.386719 20.246094 L 83.910156 20.246094 "/>
</g>
<g clip-path="url(#clip4)" clip-rule="nonzero">
<path style=" stroke:none;fill-rule:nonzero;fill:rgb(17.701721%,26.164246%,48.095703%);fill-opacity:1;" d="M 107.460938 20.246094 L 100.984375 12.007812 C 100.082031 10.847656 98.976562 9.34375 98.324219 8.261719 C 98.375 9.398438 98.425781 11.296875 98.425781 12.457031 L 98.425781 20.246094 L 92.699219 20.246094 L 92.699219 1.765625 L 99.027344 1.765625 L 105.203125 9.875 C 106.058594 10.980469 107.3125 12.699219 107.964844 13.726562 C 107.914062 12.589844 107.765625 10.585938 107.765625 9.421875 L 107.765625 1.765625 L 113.488281 1.765625 L 113.488281 20.246094 L 107.460938 20.246094 "/>
</g>
<g clip-path="url(#clip5)" clip-rule="nonzero">
<path style=" stroke:none;fill-rule:nonzero;fill:rgb(17.701721%,26.164246%,48.095703%);fill-opacity:1;" d="M 129.78125 11.113281 C 129.179688 9.6875 128.378906 7.546875 128.125 6.625 C 127.871094 7.574219 127.171875 9.554688 126.519531 11.058594 L 125.5625 13.304688 L 130.734375 13.304688 Z M 133.75 20.246094 L 132.089844 16.390625 L 124.207031 16.390625 L 122.550781 20.246094 L 116.125 20.246094 L 125.109375 1.765625 L 131.238281 1.765625 L 140.226562 20.246094 L 133.75 20.246094 "/>
</g>
<g clip-path="url(#clip6)" clip-rule="nonzero">
<path style=" stroke:none;fill-rule:nonzero;fill:rgb(17.701721%,26.164246%,48.095703%);fill-opacity:1;" d="M 142.6875 1.761719 L 148.960938 1.761719 L 148.960938 20.242188 L 142.6875 20.242188 L 142.6875 1.761719 "/>
</g>
<g clip-path="url(#clip7)" clip-rule="nonzero">
<path style=" stroke:none;fill-rule:nonzero;fill:rgb(17.701721%,26.164246%,48.095703%);fill-opacity:1;" d="M 163.402344 4.984375 L 160.640625 4.984375 L 160.640625 10.136719 L 163.753906 10.136719 C 166.96875 10.136719 168.625 9.261719 168.625 7.574219 C 168.625 5.910156 167.167969 4.984375 163.402344 4.984375 Z M 168.171875 20.246094 L 162.699219 13.226562 L 160.640625 13.226562 L 160.640625 20.246094 L 154.363281 20.246094 L 154.363281 1.765625 L 163.703125 1.765625 C 170.53125 1.765625 174.898438 3.691406 174.898438 7.519531 C 174.898438 10.109375 172.390625 11.71875 168.976562 12.5625 L 175 20.246094 L 168.171875 20.246094 "/>
</g>
<g clip-path="url(#clip8)" clip-rule="nonzero">
<path style=" stroke:none;fill-rule:nonzero;fill:rgb(94.470215%,78.695679%,12.194824%);fill-opacity:1;" d="M 13.652344 1.105469 C 14.953125 1.542969 16.332031 1.875 17.734375 2.035156 L 18.710938 2.042969 L 18.742188 2.015625 C 19.328125 2.03125 19.757812 1.773438 20.328125 1.648438 C 20.390625 1.636719 20.535156 1.597656 20.597656 1.683594 C 20.628906 1.789062 20.582031 1.910156 20.460938 1.988281 C 19.761719 2.523438 18.933594 2.917969 18.148438 3.203125 L 18.148438 3.1875 C 17.890625 3.238281 17.617188 3.347656 17.347656 3.4375 C 16.386719 3.730469 15.285156 3.914062 14.25 3.835938 C 12.261719 3.734375 10.570312 3.023438 8.816406 3.109375 C 7.089844 3.007812 5.453125 3.667969 4.535156 4.96875 C 4.0625 5.648438 3.691406 6.363281 3.574219 7.152344 C 3.625 7.867188 4.628906 8.140625 5.003906 8.734375 C 5.21875 9.089844 5.324219 9.484375 5.488281 9.855469 C 5.90625 10.601562 6.316406 11.347656 6.828125 12.050781 L 6.816406 12.0625 C 7.117188 12.535156 7.59375 12.941406 8.15625 13.21875 C 8.890625 13.742188 9.535156 14.398438 9.921875 15.101562 L 9.902344 15.113281 C 10.332031 15.804688 10.574219 16.519531 10.910156 17.238281 C 11.0625 17.679688 11.226562 18.066406 11.355469 18.496094 C 11.398438 18.535156 11.398438 18.601562 11.425781 18.65625 C 11.542969 18.996094 11.644531 19.359375 11.789062 19.671875 C 11.726562 19.722656 11.835938 19.738281 11.824219 19.785156 C 11.832031 19.976562 12.019531 20.261719 11.769531 20.390625 C 11.40625 20.070312 11.21875 19.601562 11.023438 19.261719 C 10.597656 18.515625 10.105469 17.796875 9.582031 17.089844 L 9.597656 17.074219 C 9.273438 16.667969 8.917969 16.210938 8.546875 15.792969 C 6.988281 14.066406 4.699219 13.03125 3.027344 11.390625 L 3.011719 11.40625 C 2.867188 11.277344 2.777344 11.109375 2.664062 10.960938 L 2.671875 10.945312 C 2.46875 10.660156 2.347656 10.335938 2.152344 10.042969 L 2.164062 10.027344 C 1.644531 9.257812 1.148438 8.4375 0.8125 7.628906 C 0.742188 7.269531 0.621094 6.960938 0.59375 6.546875 L 0.550781 6.410156 C 0.574219 6.035156 -0.359375 5.816406 0.15625 5.09375 C 0.476562 4.746094 1.726562 4.320312 2.148438 3.664062 C 2.160156 3.566406 2.179688 3.453125 2.097656 3.363281 C 2.097656 3.292969 2.023438 3.21875 1.976562 3.148438 C 1.738281 2.855469 1.097656 3.085938 1.109375 2.652344 C 1.175781 2.648438 1.113281 2.59375 1.15625 2.566406 C 1.121094 2.355469 1.105469 2.210938 1.164062 2.03125 C 1.292969 1.675781 1.417969 1.269531 1.394531 0.910156 C 1.421875 0.773438 1.554688 0.695312 1.691406 0.640625 C 1.957031 0.574219 2.1875 0.539062 2.449219 0.503906 L 2.484375 0.53125 C 3.085938 0.480469 3.808594 0.523438 4.207031 1 C 4.382812 1.355469 4.246094 1.78125 4.148438 2.144531 C 4.117188 2.351562 3.890625 2.523438 3.945312 2.742188 C 4.023438 2.824219 4.1875 2.816406 4.292969 2.773438 C 5.203125 2.222656 6 1.457031 6.660156 0.683594 C 7.269531 0.113281 8.167969 -0.0859375 8.996094 0.0351562 C 10.671875 0.164062 12.085938 0.726562 13.648438 1.105469 L 13.652344 1.105469 "/>
</g>
<path style=" stroke:none;fill-rule:nonzero;fill:rgb(94.470215%,78.695679%,12.194824%);fill-opacity:1;" d="M 9.335938 4.128906 C 9.574219 4.441406 9.257812 4.71875 9.164062 4.996094 C 8.179688 6.472656 7.835938 8.144531 7.183594 9.722656 C 7.136719 9.777344 7.039062 9.796875 6.96875 9.773438 C 6.796875 9.648438 6.796875 9.445312 6.816406 9.265625 C 6.945312 7.550781 7.398438 5.945312 8.128906 4.410156 C 8.300781 4.167969 8.589844 3.890625 8.964844 3.945312 C 9.105469 3.976562 9.234375 4.027344 9.335938 4.128906 "/>
<path style=" stroke:none;fill-rule:nonzero;fill:rgb(94.470215%,78.695679%,12.194824%);fill-opacity:1;" d="M 11.925781 4.578125 C 12.050781 5.140625 11.648438 5.601562 11.46875 6.105469 C 10.511719 8.015625 9.363281 9.882812 8.796875 11.925781 C 8.769531 11.988281 8.734375 12.078125 8.65625 12.105469 C 8.574219 12.128906 8.507812 12.085938 8.488281 12.03125 C 8.296875 11.21875 8.515625 10.375 8.726562 9.605469 C 9.269531 7.890625 9.929688 6.136719 10.851562 4.542969 C 10.957031 4.464844 10.972656 4.394531 11.105469 4.355469 C 11.429688 4.324219 11.75 4.347656 11.925781 4.578125 "/>
<path style=" stroke:none;fill-rule:nonzero;fill:rgb(94.470215%,78.695679%,12.194824%);fill-opacity:1;" d="M 14.691406 4.671875 C 14.949219 4.867188 14.816406 5.234375 14.714844 5.460938 C 13.59375 7.941406 11.78125 10.082031 11.03125 12.6875 C 10.820312 13.238281 10.6875 13.808594 10.515625 14.363281 C 10.484375 14.464844 10.339844 14.464844 10.234375 14.441406 C 10.132812 14.207031 10.164062 13.90625 10.164062 13.652344 C 10.398438 11.558594 10.898438 9.527344 11.921875 7.707031 C 12.386719 6.796875 12.835938 5.980469 13.324219 5.09375 C 13.460938 4.839844 13.691406 4.613281 14.027344 4.53125 C 14.273438 4.515625 14.507812 4.574219 14.691406 4.671875 "/>
<path style=" stroke:none;fill-rule:nonzero;fill:rgb(94.470215%,78.695679%,12.194824%);fill-opacity:1;" d="M 17.761719 4.800781 C 17.941406 5.101562 17.769531 5.433594 17.6875 5.71875 C 16.972656 7.714844 15.640625 9.367188 14.570312 11.183594 C 13.652344 12.675781 13.054688 14.332031 12.445312 15.953125 C 12.230469 16.441406 12.15625 16.980469 11.898438 17.445312 C 11.878906 17.492188 11.8125 17.464844 11.769531 17.476562 C 11.609375 17.34375 11.632812 17.152344 11.59375 16.984375 C 11.714844 14.957031 12.496094 13.125 13.230469 11.292969 C 14.152344 9.25 15.382812 7.300781 16.222656 5.191406 C 16.339844 4.921875 16.570312 4.597656 16.925781 4.496094 C 17.28125 4.445312 17.550781 4.570312 17.761719 4.800781 "/>
</g>
</svg>
