<svg xmlns="http://www.w3.org/2000/svg" width="175pt" height="27.187" viewBox="0 0 175 20.39"><defs><clipPath id="a"><path d="M23 1h22v19.39H23Zm0 0"/></clipPath><clipPath id="b"><path d="M44 1h26v19.39H44Zm0 0"/></clipPath><clipPath id="c"><path d="M66 1h25v19.39H66Zm0 0"/></clipPath><clipPath id="d"><path d="M92 1h22v19.39H92Zm0 0"/></clipPath><clipPath id="e"><path d="M116 1h25v19.39h-25Zm0 0"/></clipPath><clipPath id="f"><path d="M142 1h7v19.39h-7Zm0 0"/></clipPath><clipPath id="g"><path d="M154 1h21v19.39h-21Zm0 0"/></clipPath><clipPath id="h"><path d="M0 0h21v20.39H0Zm0 0"/></clipPath></defs><g clip-path="url(#a)"><path d="M32.965 4.984h-2.762v5.153h3.113c3.211 0 4.868-.875 4.868-2.563 0-1.664-1.454-2.59-5.22-2.59m4.77 15.262-5.473-7.02h-2.059v7.02h-6.277V1.766h9.34c6.828 0 11.195 1.925 11.195 5.754 0 2.59-2.512 4.199-5.926 5.043l6.028 7.683z" style="stroke:none;fill-rule:nonzero;fill:#2d437b;fill-opacity:1"/></g><g clip-path="url(#b)"><path d="M60.184 13.273v6.973h-6.278v-6.918L44.867 1.766h6.93l2.71 3.746c1.157 1.61 2.313 3.433 2.614 4.304.352-.87 1.504-2.773 2.61-4.304l2.71-3.746h6.829z" style="stroke:none;fill-rule:nonzero;fill:#2d437b;fill-opacity:1"/></g><g clip-path="url(#c)"><path d="M79.945 11.113c-.601-1.425-1.406-3.566-1.656-4.488-.25.95-.953 2.93-1.605 4.434l-.954 2.246h5.172Zm3.965 9.133-1.656-3.855H74.37l-1.652 3.855h-6.43l8.988-18.48h6.125l8.985 18.48z" style="stroke:none;fill-rule:nonzero;fill:#2d437b;fill-opacity:1"/></g><g clip-path="url(#d)"><path d="m107.46 20.246-6.476-8.238c-.902-1.16-2.007-2.664-2.66-3.746.051 1.136.102 3.035.102 4.195v7.79h-5.727V1.765h6.328l6.176 8.109c.856 1.105 2.11 2.824 2.762 3.852-.05-1.137-.2-3.141-.2-4.305V1.766h5.723v18.48z" style="stroke:none;fill-rule:nonzero;fill:#2d437b;fill-opacity:1"/></g><g clip-path="url(#e)"><path d="M129.781 11.113c-.601-1.425-1.402-3.566-1.656-4.488-.254.95-.953 2.93-1.605 4.434l-.957 2.246h5.171Zm3.969 9.133-1.66-3.855h-7.883l-1.656 3.855h-6.426l8.984-18.48h6.13l8.988 18.48z" style="stroke:none;fill-rule:nonzero;fill:#2d437b;fill-opacity:1"/></g><g clip-path="url(#f)"><path d="M142.688 1.762h6.273v18.48h-6.274z" style="stroke:none;fill-rule:nonzero;fill:#2d437b;fill-opacity:1"/></g><g clip-path="url(#g)"><path d="M163.402 4.984h-2.761v5.153h3.113c3.215 0 4.871-.875 4.871-2.563 0-1.664-1.457-2.59-5.223-2.59m4.77 15.262-5.473-7.02h-2.058v7.02h-6.278V1.766h9.34c6.828 0 11.195 1.925 11.195 5.754 0 2.59-2.507 4.199-5.921 5.043L175 20.246z" style="stroke:none;fill-rule:nonzero;fill:#2d437b;fill-opacity:1"/></g><g clip-path="url(#h)"><path d="M13.652 1.105c1.301.438 2.68.77 4.082.93l.977.008.031-.027c.586.015 1.016-.243 1.586-.368.063-.011.207-.05.27.036.03.105-.016.226-.137.304-.7.535-1.527.93-2.313 1.215v-.015c-.257.05-.53.16-.8.25-.961.292-2.063.476-3.098.398-1.988-.102-3.68-.813-5.434-.727-1.726-.101-3.363.559-4.28 1.86-.473.68-.845 1.394-.962 2.183.051.715 1.055.989 1.43 1.582.215.356.32.75.484 1.121.418.747.828 1.493 1.34 2.196l-.012.011c.301.473.778.88 1.34 1.157.735.523 1.38 1.18 1.766 1.883l-.02.011c.43.692.672 1.407 1.008 2.125.152.442.317.828.445 1.258.043.04.043.106.07.16.118.34.22.703.364 1.016-.062.05.047.066.035.113.008.192.196.477-.054.606-.364-.32-.551-.79-.747-1.13a22 22 0 0 0-1.441-2.171l.016-.016c-.325-.406-.68-.863-1.051-1.281-1.559-1.727-3.848-2.762-5.52-4.402l-.015.015c-.145-.129-.235-.297-.348-.445l.008-.016c-.203-.285-.324-.61-.52-.902l.012-.016c-.52-.77-1.016-1.59-1.352-2.398-.07-.36-.19-.668-.218-1.082L.55 6.41c.023-.375-.91-.594-.395-1.316.32-.348 1.57-.774 1.992-1.43.012-.098.032-.21-.05-.3 0-.071-.075-.145-.121-.216-.239-.293-.88-.062-.868-.496.067-.004.004-.058.047-.086-.035-.21-.05-.355.008-.535.129-.355.254-.761.23-1.12.028-.138.16-.216.297-.27A7 7 0 0 1 2.45.504l.035.027C3.086.481 3.81.523 4.207 1c.176.355.04.781-.059 1.145-.03.207-.257.378-.203.597.078.082.243.074.348.031C5.203 2.223 6 1.457 6.66.683c.61-.57 1.508-.769 2.336-.648 1.676.13 3.09.692 4.652 1.07z" style="stroke:none;fill-rule:nonzero;fill:#f1c91f;fill-opacity:1"/></g><path d="M9.336 4.129c.238.312-.078.59-.172.867-.984 1.477-1.328 3.149-1.98 4.727-.047.054-.145.074-.215.05-.172-.125-.172-.328-.153-.507.13-1.715.582-3.32 1.313-4.856.172-.242.46-.52.836-.465.14.032.27.082.37.184M11.926 4.578c.125.563-.278 1.024-.457 1.527-.957 1.91-2.106 3.778-2.672 5.82-.027.063-.063.153-.14.18-.083.024-.15-.02-.169-.074-.191-.812.028-1.656.239-2.426.543-1.714 1.203-3.468 2.125-5.062.105-.078.12-.148.253-.188.325-.03.645-.007.82.223M14.691 4.672c.258.195.125.562.024.789-1.121 2.48-2.934 4.621-3.684 7.227-.21.55-.344 1.12-.515 1.675-.032.102-.176.102-.282.078-.101-.234-.07-.535-.07-.789.234-2.093.734-4.125 1.758-5.945.465-.91.914-1.727 1.402-2.613.137-.254.367-.48.703-.563.246-.015.48.043.664.14M17.762 4.8c.18.302.008.634-.075.919-.714 1.996-2.046 3.648-3.117 5.465-.918 1.492-1.515 3.148-2.125 4.77-.215.487-.289 1.026-.547 1.491-.02.047-.085.02-.128.032-.16-.133-.137-.325-.176-.493.12-2.027.902-3.859 1.636-5.691.922-2.043 2.153-3.992 2.993-6.102.117-.27.347-.593.703-.695a.9.9 0 0 1 .836.305" style="stroke:none;fill-rule:nonzero;fill:#f1c91f;fill-opacity:1"/></svg>