<svg xmlns="http://www.w3.org/2000/svg" width="176pt" height="35.187" viewBox="0 0 176 26.39"><defs><clipPath id="a"><path d="M0 0h34v26.39H0Zm0 0"/></clipPath></defs><g clip-path="url(#a)"><path d="M21.68 14.172c6.336-.223 10.183-2.906 10.183-6.067 0-3.37-4.191-6.101-11.332-6.101h-1.027L21.605 0l-3.12.012-5.153 1.992H5.125C2.242 2.004.641 2.71 0 4.09h16.867c4.649 0 7.774.703 7.774 3.91 0 3.457-3.758 4.129-7.774 4.129H9.293l6.715 7.21c5.683 5.99 11.012 7.052 17.629 7.052z" style="stroke:none;fill-rule:nonzero;fill:#de1c2c;fill-opacity:1"/></g><path d="M76.145 6.758c-5.782 0-9.614 3.015-9.614 7.41 0 4.39 3.832 7.36 9.614 7.36 5.785 0 9.617-2.97 9.617-7.36 0-4.395-3.832-7.41-9.617-7.41m0 13.273c-3.098 0-5.247-2.27-5.247-5.863 0-3.574 2.149-5.914 5.247-5.914 3.125 0 5.246 2.34 5.246 5.914 0 3.57-2.121 5.863-5.246 5.863M61.992 11.488c0-3.476-3.27-4.656-8.004-4.656-2.465 0-4.687.281-7.98.379v13.953h3.902V16.29h4.156000000000001l1.36 1.645c2.297 2.75 4.05 3.5 7.613 3.5h.488l-5.195-5.641c2.332-.656 3.66-2.012 3.66-4.305M49.91 8.566a30 30 0 0 1 3.637-.242c2.539 0 4.078 1.016 4.078 3.137 0 2.172-1.54 3.379-4.078 3.379H49.91zM131.344 7.121h3.906v14.043h-3.906zM155.137 7.121l-5.364 7.363-5.3-7.363h-4.586l6.832 9.215v4.828h3.902v-4.828l6.762-9.215zM171.656 21.164H176l-7.223-14.043h-4.492l-7.195 14.043h2.144l1.918-3.742h8.606Zm-9.664-5.383 3.488-6.797 3.446 6.797ZM113.434 10.352c0-1.11 1.316-2.145 3.976-2.145 4.442 0 6.735 1.711 6.735 1.711l.832-2.121s-3.274-1.04-7.372-1.04c-4.976 0-7.71 1.544-7.71 4.49 0 6.44 12.324 3.355 12.324 6.804 0 1.156-1.442 1.87-4.492 1.87-4.22 0-7.395-1.69-7.395-1.69v2.257s3.223 1.063 7.664 1.063c4.93 0 7.734-1.16 7.734-4.465 0-6.371-12.296-3.621-12.296-6.734M93.766 10.352c0-1.11 1.316-2.145 3.976-2.145 4.442 0 6.735 1.711 6.735 1.711l.828-2.121s-3.27-1.04-7.368-1.04c-4.98 0-7.71 1.544-7.71 4.49 0 6.44 12.324 3.355 12.324 6.804 0 1.156-1.442 1.87-4.492 1.87-4.223 0-7.395-1.69-7.395-1.69v2.257s3.223 1.063 7.664 1.063c4.93 0 7.734-1.16 7.734-4.465 0-6.371-12.296-3.621-12.296-6.734" style="stroke:none;fill-rule:nonzero;fill:#de1c2c;fill-opacity:1"/></svg>