<?xml version="1.0" encoding="UTF-8"?>
<svg xmlns="http://www.w3.org/2000/svg" xmlns:xlink="http://www.w3.org/1999/xlink" width="176pt" height="56.12pt" viewBox="0 0 176 56.12" version="1.1">
<defs>
<clipPath id="clip1">
  <path d="M 84 42 L 123 42 L 123 56.121094 L 84 56.121094 Z M 84 42 "/>
</clipPath>
<clipPath id="clip2">
  <path d="M 129 34 L 151 34 L 151 56.121094 L 129 56.121094 Z M 129 34 "/>
</clipPath>
<clipPath id="clip3">
  <path d="M 1 53 L 21 53 L 21 56.121094 L 1 56.121094 Z M 1 53 "/>
</clipPath>
<clipPath id="clip4">
  <path d="M 160 53 L 176 53 L 176 56.121094 L 160 56.121094 Z M 160 53 "/>
</clipPath>
</defs>
<g id="surface1">
<path style=" stroke:none;fill-rule:nonzero;fill:rgb(92.747498%,3.620911%,48.402405%);fill-opacity:1;" d="M 146.820312 7.945312 L 146.816406 7.941406 C 146.882812 8.039062 146.941406 8.132812 147.003906 8.230469 L 147 8.222656 C 147.09375 8.960938 147.40625 9.582031 147.945312 10.09375 L 147.941406 10.089844 C 148.007812 10.214844 148.070312 10.34375 148.132812 10.46875 L 148.132812 10.464844 C 148.195312 10.589844 148.257812 10.714844 148.320312 10.84375 L 148.316406 10.835938 C 148.382812 10.964844 148.445312 11.089844 148.507812 11.214844 L 148.507812 11.210938 C 148.550781 11.609375 148.679688 11.960938 149.066406 12.160156 L 149.058594 12.148438 C 149.125 12.277344 149.1875 12.402344 149.253906 12.53125 L 149.246094 12.523438 C 149.3125 12.648438 149.378906 12.777344 149.441406 12.90625 L 149.4375 12.894531 C 149.507812 13.027344 149.582031 13.15625 149.652344 13.289062 L 149.679688 13.375 C 149.792969 13.535156 149.90625 13.695312 150.019531 13.855469 C 151.378906 16.148438 152.738281 18.441406 154.160156 20.839844 C 158.269531 14.773438 162.390625 8.867188 166.242188 2.59375 C 168.613281 2.679688 171.089844 2.765625 173.65625 2.859375 C 173.6875 3.476562 173.71875 4.054688 173.746094 4.632812 C 173.667969 4.890625 173.589844 5.148438 173.503906 5.425781 C 171.757812 5.949219 170.457031 7.109375 169.378906 8.492188 C 167.851562 10.449219 166.398438 12.460938 164.960938 14.480469 C 162.8125 17.484375 160.703125 20.515625 158.585938 23.539062 C 158.074219 24.269531 157.578125 25.011719 157.070312 25.753906 C 157.46875 26.367188 157.839844 26.9375 158.210938 27.503906 C 161.039062 32.175781 163.867188 36.851562 166.707031 41.523438 C 168.175781 43.9375 169.660156 46.339844 171.164062 48.734375 C 171.511719 49.285156 171.941406 49.785156 172.355469 50.285156 C 173.011719 51.070312 173.839844 51.597656 174.863281 51.894531 C 174.886719 52.363281 174.910156 52.824219 174.933594 53.285156 C 174.902344 53.644531 174.878906 54 174.847656 54.40625 C 174.464844 54.40625 174.15625 54.40625 173.851562 54.40625 C 170.777344 54.40625 167.707031 54.421875 164.632812 54.398438 C 163.179688 54.390625 161.726562 54.308594 160.273438 54.257812 C 159.996094 53.894531 159.652344 53.566406 159.453125 53.164062 C 158.597656 51.4375 157.71875 49.71875 156.964844 47.949219 C 155.25 43.925781 152.816406 40.316406 150.554688 36.609375 C 150.207031 36.003906 149.859375 35.394531 149.46875 34.703125 C 149.277344 34.9375 149.15625 35.066406 149.058594 35.214844 C 147.230469 37.910156 145.394531 40.597656 143.597656 43.3125 C 142.933594 44.320312 142.289062 45.355469 141.773438 46.441406 C 140.722656 48.648438 139.773438 50.90625 138.761719 53.132812 C 138.574219 53.539062 138.273438 53.898438 138.042969 54.25 C 135.242188 54.5625 132.539062 54.3125 129.839844 54.429688 C 129.503906 54.40625 129.167969 54.382812 128.785156 54.355469 C 128.640625 53.53125 128.675781 52.738281 128.757812 51.898438 C 131.613281 50.941406 133.273438 48.652344 134.898438 46.363281 C 138.679688 41.035156 142.398438 35.664062 146.140625 30.304688 C 146.246094 30.152344 146.335938 29.988281 146.453125 29.792969 C 145.988281 29 145.527344 28.191406 145.050781 27.394531 C 142.160156 22.597656 139.28125 17.792969 136.367188 13.011719 C 135.542969 11.660156 134.605469 10.378906 133.722656 9.066406 C 133.65625 8.972656 133.589844 8.882812 133.527344 8.789062 L 133.527344 8.792969 C 133.570312 8.539062 133.570312 8.304688 133.265625 8.210938 C 133.074219 7.929688 132.910156 7.617188 132.683594 7.371094 C 132.144531 6.789062 131.691406 6.097656 130.902344 5.796875 C 130.566406 5.640625 130.230469 5.484375 129.828125 5.292969 C 129.828125 4.554688 129.828125 3.757812 129.828125 2.875 C 130.898438 2.621094 132 2.34375 133.109375 2.097656 C 136.046875 1.441406 138.980469 0.800781 141.917969 0.148438 C 141.996094 0.128906 142.0625 0.046875 142.136719 -0.00390625 C 142.261719 -0.00390625 142.386719 -0.00390625 142.511719 -0.00390625 C 142.828125 0.601562 143.144531 1.207031 143.460938 1.8125 C 143.519531 1.894531 143.582031 1.972656 143.640625 2.054688 L 143.636719 2.046875 C 143.699219 2.171875 143.765625 2.300781 143.828125 2.425781 L 143.824219 2.417969 C 143.890625 2.546875 143.953125 2.671875 144.019531 2.800781 L 144.011719 2.792969 C 144.070312 2.859375 144.132812 2.929688 144.191406 2.996094 L 144.1875 2.988281 C 144.179688 3.464844 144.355469 3.847656 144.765625 4.113281 L 144.757812 4.101562 C 144.824219 4.230469 144.886719 4.355469 144.953125 4.484375 L 144.945312 4.476562 C 145.007812 4.542969 145.066406 4.613281 145.125 4.679688 L 145.121094 4.675781 C 145.183594 4.800781 145.246094 4.929688 145.3125 5.054688 L 145.308594 5.050781 C 145.46875 5.90625 145.847656 6.65625 146.449219 7.289062 L 146.445312 7.28125 C 146.511719 7.410156 146.574219 7.535156 146.640625 7.660156 L 146.636719 7.65625 C 146.695312 7.75 146.757812 7.847656 146.820312 7.945312 "/>
<g clip-path="url(#clip1)" clip-rule="nonzero">
<path style=" stroke:none;fill-rule:nonzero;fill:rgb(12.988281%,17.182922%,34.916687%);fill-opacity:1;" d="M 121.410156 42.421875 C 121.78125 42.421875 122.152344 42.421875 122.5625 42.421875 C 122.585938 42.609375 122.628906 42.757812 122.621094 42.902344 C 122.445312 46.347656 122.261719 49.792969 122.078125 53.234375 C 122.027344 54.199219 121.980469 55.160156 121.929688 56.121094 C 109.578125 56.121094 97.230469 56.121094 84.882812 56.121094 C 84.886719 55.621094 84.886719 55.121094 84.890625 54.625 C 96.53125 54.625 108.175781 54.625 119.820312 54.625 C 120.066406 54.625 120.320312 54.640625 120.5625 54.605469 C 120.648438 54.59375 120.71875 54.453125 120.792969 54.375 C 120.996094 50.390625 121.203125 46.40625 121.410156 42.421875 "/>
</g>
<g clip-path="url(#clip2)" clip-rule="nonzero">
<path style=" stroke:none;fill-rule:nonzero;fill:rgb(13.124084%,17.572021%,35.476685%);fill-opacity:1;" d="M 150.554688 36.609375 C 150.429688 36.746094 150.292969 36.871094 150.191406 37.023438 C 148.273438 39.851562 146.359375 42.679688 144.453125 45.515625 C 143.691406 46.648438 143.070312 47.855469 142.539062 49.121094 C 141.671875 51.179688 140.707031 53.195312 139.761719 55.222656 C 139.609375 55.546875 139.351562 55.820312 139.140625 56.121094 C 136.023438 56.121094 132.90625 56.121094 129.785156 56.121094 C 129.804688 55.554688 129.824219 54.992188 129.839844 54.429688 C 132.539062 54.3125 135.242188 54.5625 138.042969 54.25 C 138.273438 53.898438 138.574219 53.539062 138.761719 53.132812 C 139.773438 50.90625 140.722656 48.648438 141.773438 46.441406 C 142.289062 45.355469 142.933594 44.320312 143.597656 43.3125 C 145.394531 40.597656 147.230469 37.910156 149.058594 35.214844 C 149.15625 35.066406 149.277344 34.9375 149.46875 34.703125 C 149.859375 35.394531 150.207031 36.003906 150.554688 36.609375 "/>
</g>
<g clip-path="url(#clip3)" clip-rule="nonzero">
<path style=" stroke:none;fill-rule:nonzero;fill:rgb(12.705994%,17.127991%,34.423828%);fill-opacity:1;" d="M 1.0625 56.121094 C 1.066406 55.554688 1.070312 54.992188 1.070312 54.425781 C 1.445312 54.421875 1.820312 54.40625 2.191406 54.40625 C 7.675781 54.40625 13.160156 54.40625 18.644531 54.40625 C 18.976562 54.40625 19.308594 54.40625 19.539062 54.40625 C 19.660156 54.265625 19.691406 54.242188 19.695312 54.21875 C 19.726562 53.941406 19.753906 53.664062 19.78125 53.386719 C 20.128906 53.488281 20.476562 53.59375 20.894531 53.71875 C 20.894531 54.535156 20.894531 55.328125 20.894531 56.121094 C 14.285156 56.121094 7.675781 56.121094 1.0625 56.121094 "/>
</g>
<g clip-path="url(#clip4)" clip-rule="nonzero">
<path style=" stroke:none;fill-rule:nonzero;fill:rgb(12.754822%,17.086792%,34.431458%);fill-opacity:1;" d="M 161.40625 56.121094 C 160.800781 55.640625 160.511719 54.964844 160.273438 54.257812 C 161.726562 54.308594 163.179688 54.390625 164.632812 54.398438 C 167.707031 54.421875 170.777344 54.40625 173.851562 54.40625 C 174.15625 54.40625 174.464844 54.40625 174.847656 54.40625 C 174.878906 54 174.902344 53.644531 174.933594 53.285156 C 175.273438 53.421875 175.617188 53.558594 176 53.714844 C 176 54.519531 176 55.320312 176 56.121094 C 171.136719 56.121094 166.269531 56.121094 161.40625 56.121094 "/>
</g>
<path style=" stroke:none;fill-rule:nonzero;fill:rgb(92.732239%,3.413391%,48.405457%);fill-opacity:1;" d="M 121.410156 42.421875 C 121.203125 46.40625 120.996094 50.390625 120.792969 54.375 C 120.417969 54.386719 120.046875 54.410156 119.675781 54.410156 C 108.4375 54.410156 97.203125 54.410156 85.96875 54.410156 C 85.59375 54.410156 85.222656 54.425781 84.847656 54.4375 C 84.511719 54.414062 84.175781 54.390625 83.789062 54.359375 C 83.789062 53.539062 83.789062 52.742188 83.789062 51.898438 C 84.351562 51.691406 84.929688 51.480469 85.507812 51.261719 C 86.699219 50.800781 87.3125 49.875 87.5 48.660156 C 87.609375 47.953125 87.695312 47.238281 87.695312 46.527344 C 87.703125 34.339844 87.695312 22.152344 87.671875 9.964844 C 87.671875 9.382812 87.527344 8.796875 87.453125 8.214844 C 87.402344 8.15625 87.351562 8.097656 87.304688 8.035156 L 87.316406 8.054688 C 87.078125 6.675781 86.117188 6.074219 84.875 5.777344 C 84.535156 5.628906 84.195312 5.480469 83.789062 5.308594 C 83.789062 4.5625 83.789062 3.765625 83.789062 2.960938 C 84.425781 2.804688 119.839844 2.757812 121.171875 2.933594 C 121.171875 3.496094 121.171875 4.078125 121.171875 4.660156 C 121.171875 8.011719 121.171875 11.363281 121.171875 14.761719 C 120.832031 14.78125 120.589844 14.808594 120.351562 14.808594 C 119.289062 14.8125 118.234375 14.804688 117.175781 14.816406 C 116.9375 14.820312 116.703125 14.894531 116.464844 14.9375 C 116.324219 14.898438 116.183594 14.859375 116.042969 14.820312 L 116.046875 14.84375 C 115.710938 14.050781 115.382812 13.253906 115.03125 12.46875 C 114.792969 11.933594 114.519531 11.414062 114.261719 10.886719 C 114.203125 10.746094 114.140625 10.605469 114.078125 10.46875 C 114.007812 10.410156 113.9375 10.355469 113.863281 10.296875 L 113.871094 10.304688 C 113.875 10.242188 113.90625 10.167969 113.878906 10.125 C 112.988281 8.742188 111.84375 7.710938 110.144531 7.480469 C 109.46875 7.390625 108.789062 7.300781 108.109375 7.296875 C 105.4375 7.273438 102.761719 7.28125 100.089844 7.285156 C 99.882812 7.285156 99.679688 7.335938 99.484375 7.359375 C 99.320312 10.648438 99.398438 24.625 99.585938 25.394531 C 99.921875 25.394531 100.257812 25.394531 100.597656 25.394531 C 103.261719 25.378906 105.933594 25.578125 108.71875 25.21875 C 108.820312 24.941406 108.988281 24.648438 109.03125 24.339844 C 109.179688 23.296875 109.261719 22.25 109.410156 21.207031 C 109.464844 20.824219 109.632812 20.453125 109.757812 20.039062 C 111.207031 20.039062 112.589844 20.039062 114.074219 20.039062 C 114.074219 20.628906 114.074219 21.179688 114.074219 21.730469 C 114.0625 26.222656 114.050781 30.714844 114.035156 35.285156 C 112.761719 35.308594 111.589844 35.332031 110.417969 35.355469 C 110.238281 35.328125 110.058594 35.300781 109.769531 35.257812 C 109.589844 34.484375 109.402344 33.691406 109.214844 32.894531 C 109.128906 31.941406 109.066406 30.984375 108.484375 30.144531 C 105.492188 29.601562 102.515625 29.816406 99.511719 29.761719 C 99.511719 36.542969 99.511719 43.222656 99.511719 49.9375 C 99.910156 49.9375 100.246094 49.9375 100.585938 49.9375 C 103.171875 49.9375 105.757812 49.929688 108.34375 49.9375 C 110.6875 49.941406 112.453125 48.925781 113.714844 46.96875 C 114.632812 45.542969 115.265625 43.996094 115.773438 42.390625 C 115.957031 41.804688 116.15625 41.222656 116.347656 40.648438 C 118.085938 40.648438 119.757812 40.648438 121.511719 40.648438 C 121.476562 41.269531 121.445312 41.847656 121.410156 42.421875 "/>
<path style=" stroke:none;fill-rule:nonzero;fill:rgb(92.732239%,3.424072%,48.364258%);fill-opacity:1;" d="M 19.78125 53.386719 C 19.753906 53.664062 19.726562 53.941406 19.695312 54.21875 C 19.691406 54.242188 19.660156 54.265625 19.539062 54.40625 C 19.308594 54.40625 18.976562 54.40625 18.644531 54.40625 C 13.160156 54.40625 7.675781 54.40625 2.191406 54.40625 C 1.820312 54.40625 1.445312 54.421875 1.070312 54.425781 C 0.734375 54.410156 0.402344 54.394531 0.00390625 54.375 C 0.00390625 53.570312 0.00390625 52.785156 0.00390625 51.90625 C 0.425781 51.761719 0.914062 51.601562 1.394531 51.421875 C 2.183594 51.121094 2.902344 50.722656 3.292969 49.914062 C 3.351562 49.796875 3.410156 49.679688 3.46875 49.566406 L 3.480469 49.539062 C 3.542969 49.441406 3.648438 49.347656 3.660156 49.242188 C 3.792969 48.167969 4.011719 47.09375 4.015625 46.019531 C 4.050781 38.488281 4.039062 30.957031 4.039062 23.425781 C 4.039062 19.351562 4.039062 15.273438 4.03125 11.195312 C 4.027344 10.171875 4.019531 9.148438 3.675781 8.164062 C 3.613281 8.117188 3.554688 8.074219 3.492188 8.03125 L 3.507812 8.042969 C 3.429688 7.753906 3.417969 7.425781 3.265625 7.183594 C 2.769531 6.375 2.007812 5.941406 1.085938 5.769531 C 0.746094 5.628906 0.410156 5.484375 0 5.308594 C 0 4.550781 0 3.730469 0 2.878906 C 6.582031 2.878906 13.121094 2.878906 19.773438 2.878906 C 19.773438 3.5 19.773438 4.082031 19.773438 4.664062 C 19.746094 4.875 19.71875 5.089844 19.683594 5.324219 C 19.308594 5.445312 18.953125 5.546875 18.605469 5.667969 C 17.167969 6.152344 16.210938 7.109375 15.894531 8.605469 C 15.753906 9.269531 15.695312 9.960938 15.691406 10.640625 C 15.664062 13.757812 15.667969 16.875 15.667969 19.992188 C 15.667969 28.878906 15.667969 37.765625 15.699219 46.652344 C 15.703125 47.507812 15.878906 48.375 16.058594 49.222656 C 16.171875 49.75 16.363281 50.296875 16.96875 50.515625 L 16.960938 50.5 C 16.996094 50.558594 17.035156 50.621094 17.074219 50.679688 C 17.601562 50.972656 18.121094 51.285156 18.664062 51.546875 C 18.988281 51.707031 19.351562 51.78125 19.78125 51.921875 C 19.78125 52.414062 19.78125 52.902344 19.78125 53.386719 "/>
<path style=" stroke:none;fill-rule:nonzero;fill:rgb(98.582458%,90.919495%,95.820618%);fill-opacity:1;" d="M 30.296875 4.59375 C 31.285156 4.75 32.230469 4.894531 33.175781 5.046875 C 34.757812 5.296875 35.617188 6.105469 35.859375 7.6875 C 35.992188 8.542969 36.0625 9.417969 36.066406 10.285156 C 36.082031 21.757812 36.082031 33.230469 36.078125 44.703125 C 36.078125 45.578125 36.070312 46.449219 36.007812 47.320312 C 35.882812 49.152344 35.097656 50.53125 33.246094 51.121094 C 33.011719 51.195312 32.789062 51.304688 32.539062 51.410156 C 32.539062 52.039062 32.539062 52.648438 32.539062 53.339844 C 32.917969 53.339844 33.253906 53.339844 33.589844 53.339844 C 39.886719 53.339844 46.183594 53.335938 52.480469 53.339844 C 54.539062 53.339844 56.585938 53.289062 58.625 52.976562 C 60.796875 52.640625 62.863281 52.042969 64.777344 50.929688 C 66.855469 49.71875 68.480469 48.078125 69.414062 45.851562 C 70.683594 42.824219 71.003906 39.65625 70.425781 36.429688 C 70.015625 34.132812 68.878906 32.171875 67.210938 30.546875 C 65.695312 29.074219 63.886719 28.050781 61.921875 27.292969 C 61.609375 27.171875 61.300781 27.042969 60.964844 26.90625 C 60.976562 26.640625 60.988281 26.433594 60.992188 26.324219 C 62.339844 25.5 63.648438 24.773438 64.871094 23.925781 C 66.671875 22.6875 68.042969 21.050781 69 19.074219 C 69.964844 17.089844 70.230469 14.984375 70.128906 12.808594 C 69.929688 8.554688 67.886719 5.382812 63.730469 3.863281 C 61.328125 2.988281 58.847656 2.625 56.320312 2.613281 C 47.808594 2.578125 39.296875 2.59375 30.785156 2.589844 C 30.636719 2.589844 30.488281 2.605469 30.296875 2.613281 C 30.296875 3.273438 30.296875 3.886719 30.296875 4.59375 Z M 33.34375 53.929688 C 32.914062 53.898438 32.484375 53.867188 31.996094 53.832031 C 31.996094 52.898438 31.996094 51.976562 31.996094 50.984375 C 32.824219 50.386719 34.121094 50.457031 34.871094 49.238281 C 34.953125 49.035156 35.117188 48.640625 35.285156 48.242188 C 35.585938 41.78125 35.464844 35.3125 35.484375 28.84375 C 35.507812 22.363281 35.488281 15.882812 35.488281 9.402344 C 35.488281 9.011719 35.21875 7.535156 35.109375 7.289062 C 34.972656 6.519531 34.515625 5.933594 33.789062 5.761719 C 32.894531 5.554688 31.957031 5.539062 31.039062 5.4375 C 30.609375 5.292969 30.175781 5.148438 29.769531 5.011719 C 29.597656 3.558594 29.644531 2.53125 29.9375 1.867188 C 30.203125 1.867188 30.507812 1.867188 30.8125 1.867188 C 38.785156 1.867188 46.761719 1.863281 54.738281 1.875 C 55.503906 1.875 56.269531 1.992188 57.035156 2.054688 C 57.773438 2.113281 58.503906 2.203125 59.242188 2.234375 C 60.539062 2.289062 61.785156 2.550781 63.015625 2.96875 C 64.203125 3.375 65.371094 3.8125 66.421875 4.507812 C 67.707031 5.363281 68.753906 6.441406 69.429688 7.839844 C 69.75 8.5 70 9.195312 70.28125 9.875 C 70.339844 10.074219 70.398438 10.269531 70.460938 10.46875 C 70.550781 11.488281 70.707031 12.507812 70.726562 13.53125 C 70.789062 17.191406 69.546875 20.347656 66.933594 22.9375 C 65.597656 24.265625 64.050781 25.296875 62.386719 26.164062 C 62.1875 26.265625 62.003906 26.394531 61.738281 26.558594 C 62.421875 26.859375 62.980469 27.121094 63.550781 27.351562 C 63.707031 27.414062 63.902344 27.382812 64.082031 27.390625 C 64.1875 27.535156 64.261719 27.746094 64.402344 27.816406 C 65.714844 28.453125 66.828125 29.328125 67.847656 30.367188 C 69.144531 31.683594 70.042969 33.222656 70.671875 34.9375 C 70.683594 34.964844 70.679688 35 70.6875 35.03125 C 70.785156 35.386719 70.882812 35.742188 70.980469 36.101562 C 71.335938 38.113281 71.335938 40.128906 71.046875 42.144531 C 70.785156 43.976562 70.253906 45.722656 69.304688 47.324219 C 67.679688 50.058594 65.195312 51.695312 62.265625 52.710938 C 59.621094 53.632812 56.867188 53.886719 54.085938 53.894531 C 47.515625 53.910156 40.945312 53.902344 34.371094 53.90625 C 34.03125 53.90625 33.6875 53.921875 33.34375 53.929688 "/>
<path style=" stroke:none;fill-rule:nonzero;fill:rgb(13.076782%,18.391418%,36.479187%);fill-opacity:1;" d="M 33.34375 53.929688 C 33.6875 53.921875 34.03125 53.90625 34.371094 53.90625 C 40.945312 53.902344 47.515625 53.910156 54.085938 53.894531 C 56.867188 53.886719 59.621094 53.632812 62.265625 52.710938 C 65.195312 51.695312 67.679688 50.058594 69.304688 47.324219 C 70.253906 45.722656 70.785156 43.976562 71.046875 42.144531 C 71.335938 40.128906 71.335938 38.113281 70.980469 36.101562 C 71.058594 36.101562 71.136719 36.101562 71.214844 36.101562 C 72.109375 38.21875 72.238281 40.441406 72.050781 42.695312 C 71.929688 44.15625 71.660156 45.59375 71.15625 46.972656 C 69.949219 50.273438 67.597656 52.457031 64.425781 53.828125 C 62.320312 54.742188 60.089844 55.152344 57.816406 55.316406 C 56.234375 55.429688 54.644531 55.46875 53.058594 55.472656 C 46.921875 55.492188 40.789062 55.480469 34.652344 55.480469 C 34.308594 55.480469 33.96875 55.507812 33.628906 55.519531 C 33.570312 55.492188 33.511719 55.484375 33.449219 55.496094 C 33.414062 54.972656 33.378906 54.453125 33.34375 53.929688 "/>
<path style=" stroke:none;fill-rule:nonzero;fill:rgb(13.230896%,17.495728%,35.539246%);fill-opacity:1;" d="M 16.96875 50.515625 C 16.363281 50.296875 16.171875 49.75 16.058594 49.222656 C 15.878906 48.375 15.703125 47.507812 15.699219 46.652344 C 15.667969 37.765625 15.667969 28.878906 15.667969 19.992188 C 15.667969 16.875 15.664062 13.757812 15.691406 10.640625 C 15.695312 9.960938 15.753906 9.269531 15.894531 8.605469 C 16.210938 7.109375 17.167969 6.152344 18.605469 5.667969 C 18.953125 5.546875 19.308594 5.445312 19.683594 5.324219 C 19.71875 5.089844 19.746094 4.875 19.773438 4.664062 C 20.109375 4.664062 20.445312 4.664062 20.832031 4.664062 C 20.832031 5.5 20.832031 6.269531 20.832031 7.125 C 20.527344 7.234375 20.1875 7.367188 19.839844 7.472656 C 17.96875 8.046875 17.03125 9.335938 16.941406 11.265625 C 16.882812 12.539062 16.800781 13.816406 16.796875 15.089844 C 16.789062 25.84375 16.792969 36.597656 16.804688 47.351562 C 16.808594 48.40625 16.914062 49.460938 16.96875 50.515625 "/>
<path style=" stroke:none;fill-rule:nonzero;fill:rgb(13.319397%,18.39447%,36.97052%);fill-opacity:1;" d="M 100.597656 25.394531 C 100.257812 25.394531 99.921875 25.394531 99.585938 25.394531 C 99.398438 24.625 99.320312 10.648438 99.484375 7.359375 C 99.679688 7.335938 99.882812 7.285156 100.089844 7.285156 C 102.761719 7.28125 105.4375 7.273438 108.109375 7.296875 C 108.789062 7.300781 109.46875 7.390625 110.144531 7.480469 C 111.84375 7.710938 112.988281 8.742188 113.878906 10.125 C 113.90625 10.167969 113.875 10.242188 113.871094 10.304688 C 113.757812 10.292969 113.609375 10.324219 113.539062 10.265625 C 112.4375 9.363281 111.105469 9.128906 109.773438 9.101562 C 106.757812 9.035156 103.738281 9.078125 100.65625 9.078125 C 100.632812 9.234375 100.585938 9.375 100.585938 9.519531 C 100.585938 14.808594 100.59375 20.101562 100.597656 25.394531 "/>
<path style=" stroke:none;fill-rule:nonzero;fill:rgb(13.237%,17.831421%,35.993958%);fill-opacity:1;" d="M 100.585938 49.9375 C 100.246094 49.9375 99.910156 49.9375 99.511719 49.9375 C 99.511719 43.222656 99.511719 36.542969 99.511719 29.761719 C 102.515625 29.816406 105.492188 29.601562 108.484375 30.144531 C 109.066406 30.984375 109.128906 31.941406 109.214844 32.894531 C 108.265625 31.890625 107.046875 31.617188 105.734375 31.613281 C 104.058594 31.609375 102.378906 31.613281 100.585938 31.613281 C 100.585938 37.753906 100.585938 43.84375 100.585938 49.9375 "/>
<path style=" stroke:none;fill-rule:nonzero;fill:rgb(13.319397%,18.39447%,36.97052%);fill-opacity:1;" d="M 64.082031 27.390625 C 63.902344 27.382812 63.707031 27.414062 63.550781 27.351562 C 62.980469 27.121094 62.421875 26.859375 61.738281 26.558594 C 62.003906 26.394531 62.1875 26.265625 62.386719 26.164062 C 64.050781 25.296875 65.597656 24.265625 66.933594 22.9375 C 69.546875 20.347656 70.789062 17.191406 70.726562 13.53125 C 70.707031 12.507812 70.550781 11.488281 70.460938 10.46875 C 70.519531 10.476562 70.578125 10.480469 70.636719 10.476562 C 71.632812 12.640625 71.773438 14.925781 71.492188 17.242188 C 70.996094 21.324219 68.75 24.292969 65.414062 26.535156 C 64.976562 26.832031 64.527344 27.105469 64.082031 27.390625 "/>
<path style=" stroke:none;fill-rule:nonzero;fill:rgb(13.153076%,17.936707%,35.969543%);fill-opacity:1;" d="M 110.417969 35.355469 C 111.589844 35.332031 112.761719 35.308594 114.035156 35.285156 C 114.050781 30.714844 114.0625 26.222656 114.074219 21.730469 C 114.40625 21.730469 114.742188 21.730469 115.125 21.730469 C 115.125 26.855469 115.125 31.90625 115.125 37.070312 C 114.410156 37.070312 113.707031 37.070312 113.003906 37.070312 C 112.324219 37.070312 111.644531 37.070312 110.910156 37.070312 C 110.738281 36.476562 110.578125 35.914062 110.417969 35.355469 "/>
<path style=" stroke:none;fill-rule:nonzero;fill:rgb(13.363647%,18.344116%,36.991882%);fill-opacity:1;" d="M 116.464844 14.9375 C 116.703125 14.894531 116.9375 14.820312 117.175781 14.816406 C 118.234375 14.804688 119.289062 14.8125 120.351562 14.808594 C 120.589844 14.808594 120.832031 14.78125 121.171875 14.761719 C 121.171875 11.363281 121.171875 8.011719 121.171875 4.660156 C 121.507812 4.660156 121.84375 4.660156 122.226562 4.660156 C 122.226562 8.664062 122.226562 12.59375 122.226562 16.644531 C 121.386719 16.648438 120.53125 16.65625 119.679688 16.660156 C 118.839844 16.664062 118.003906 16.660156 117.066406 16.660156 C 116.867188 16.085938 116.664062 15.511719 116.464844 14.9375 "/>
<path style=" stroke:none;fill-rule:nonzero;fill:rgb(11.924744%,19.219971%,35.115051%);fill-opacity:1;" d="M 84.847656 54.4375 C 85.222656 54.425781 85.59375 54.410156 85.96875 54.410156 C 97.203125 54.410156 108.4375 54.410156 119.675781 54.410156 C 120.046875 54.410156 120.417969 54.386719 120.792969 54.375 C 120.71875 54.453125 120.648438 54.59375 120.5625 54.605469 C 120.320312 54.640625 120.066406 54.625 119.820312 54.625 C 108.175781 54.625 96.53125 54.625 84.890625 54.625 C 84.875 54.5625 84.863281 54.5 84.847656 54.4375 "/>
<path style=" stroke:none;fill-rule:nonzero;fill:rgb(14.297485%,20.1828%,38.926697%);fill-opacity:1;" d="M 31.039062 5.4375 C 31.957031 5.539062 32.894531 5.554688 33.789062 5.761719 C 34.515625 5.933594 34.972656 6.519531 35.109375 7.289062 C 33.78125 7.085938 32.457031 6.878906 31.039062 6.660156 C 31.039062 6.222656 31.039062 5.828125 31.039062 5.4375 "/>
<path style=" stroke:none;fill-rule:nonzero;fill:rgb(13.363647%,18.344116%,36.991882%);fill-opacity:1;" d="M 84.875 5.777344 C 86.117188 6.074219 87.078125 6.675781 87.316406 8.054688 C 86.519531 7.75 85.726562 7.445312 84.875 7.121094 C 84.875 6.683594 84.875 6.230469 84.875 5.777344 "/>
<path style=" stroke:none;fill-rule:nonzero;fill:rgb(13.363647%,18.344116%,36.991882%);fill-opacity:1;" d="M 1.085938 5.769531 C 2.007812 5.941406 2.769531 6.375 3.265625 7.183594 C 3.417969 7.425781 3.429688 7.753906 3.507812 8.042969 C 2.71875 7.734375 1.929688 7.425781 1.085938 7.097656 C 1.085938 6.675781 1.085938 6.222656 1.085938 5.769531 "/>
<path style=" stroke:none;fill-rule:nonzero;fill:rgb(14.297485%,20.1828%,38.926697%);fill-opacity:1;" d="M 130.902344 5.796875 C 131.691406 6.097656 132.144531 6.789062 132.683594 7.371094 C 132.910156 7.617188 133.074219 7.929688 133.265625 8.210938 C 133.160156 8.222656 133.058594 8.234375 132.957031 8.242188 C 132.316406 7.847656 131.675781 7.453125 130.902344 6.972656 C 130.902344 6.695312 130.902344 6.246094 130.902344 5.796875 "/>
<path style=" stroke:none;fill-rule:nonzero;fill:rgb(43.037415%,25.569153%,51.464844%);fill-opacity:1;" d="M 71.214844 36.101562 C 71.136719 36.101562 71.058594 36.101562 70.980469 36.101562 C 70.882812 35.742188 70.785156 35.386719 70.6875 35.03125 C 70.863281 35.386719 71.039062 35.742188 71.214844 36.101562 "/>
<path style=" stroke:none;fill-rule:nonzero;fill:rgb(43.037415%,25.569153%,51.464844%);fill-opacity:1;" d="M 132.957031 8.242188 C 133.058594 8.234375 133.160156 8.222656 133.265625 8.210938 C 133.570312 8.304688 133.570312 8.539062 133.527344 8.792969 C 133.339844 8.609375 133.148438 8.425781 132.957031 8.242188 "/>
<path style=" stroke:none;fill-rule:nonzero;fill:rgb(43.037415%,25.569153%,51.464844%);fill-opacity:1;" d="M 70.636719 10.476562 C 70.578125 10.480469 70.519531 10.476562 70.460938 10.46875 C 70.398438 10.269531 70.339844 10.074219 70.28125 9.875 C 70.398438 10.074219 70.519531 10.277344 70.636719 10.476562 "/>
<path style=" stroke:none;fill-rule:nonzero;fill:rgb(16.996765%,22.471619%,41.722107%);fill-opacity:1;" d="M 114.078125 10.46875 C 114.140625 10.605469 114.203125 10.746094 114.261719 10.886719 C 114.125 10.75 113.984375 10.613281 113.847656 10.480469 C 113.925781 10.476562 114.003906 10.472656 114.078125 10.46875 "/>
<path style=" stroke:none;fill-rule:nonzero;fill:rgb(89.964294%,74.916077%,84.45282%);fill-opacity:1;" d="M 3.46875 49.566406 C 3.410156 49.679688 3.351562 49.796875 3.292969 49.914062 C 3.351562 49.796875 3.410156 49.679688 3.46875 49.566406 "/>
<path style=" stroke:none;fill-rule:nonzero;fill:rgb(43.037415%,25.569153%,51.464844%);fill-opacity:1;" d="M 133.527344 8.789062 C 133.589844 8.882812 133.65625 8.972656 133.722656 9.066406 C 133.65625 8.972656 133.589844 8.882812 133.527344 8.789062 "/>
<path style=" stroke:none;fill-rule:nonzero;fill:rgb(13.363647%,18.344116%,36.991882%);fill-opacity:1;" d="M 3.675781 8.164062 L 3.605469 8.171875 L 3.53125 8.167969 C 3.519531 8.121094 3.507812 8.074219 3.492188 8.03125 C 3.554688 8.074219 3.613281 8.117188 3.675781 8.164062 "/>
<path style=" stroke:none;fill-rule:nonzero;fill:rgb(13.363647%,18.344116%,36.991882%);fill-opacity:1;" d="M 116.046875 14.84375 L 116.042969 14.820312 L 116.03125 14.859375 Z M 116.046875 14.84375 "/>
<path style=" stroke:none;fill-rule:nonzero;fill:rgb(13.319397%,18.39447%,36.97052%);fill-opacity:1;" d="M 114.078125 10.46875 C 114.003906 10.472656 113.925781 10.476562 113.847656 10.480469 C 113.851562 10.417969 113.859375 10.359375 113.863281 10.296875 C 113.9375 10.355469 114.007812 10.410156 114.078125 10.46875 "/>
<path style=" stroke:none;fill-rule:nonzero;fill:rgb(13.230896%,17.495728%,35.539246%);fill-opacity:1;" d="M 17.074219 50.679688 C 17.035156 50.621094 16.996094 50.558594 16.960938 50.5 C 16.996094 50.558594 17.035156 50.621094 17.074219 50.679688 "/>
<path style=" stroke:none;fill-rule:nonzero;fill:rgb(13.363647%,18.344116%,36.991882%);fill-opacity:1;" d="M 87.304688 8.035156 C 87.351562 8.097656 87.402344 8.15625 87.453125 8.214844 C 87.402344 8.15625 87.351562 8.097656 87.304688 8.035156 "/>
<path style=" stroke:none;fill-rule:nonzero;fill:rgb(98.114014%,97.558594%,97.273254%);fill-opacity:1;" d="M 33.449219 55.496094 C 33.511719 55.484375 33.570312 55.492188 33.628906 55.519531 C 33.601562 55.566406 33.578125 55.613281 33.550781 55.660156 C 33.515625 55.605469 33.484375 55.550781 33.449219 55.496094 "/>
<path style=" stroke:none;fill-rule:nonzero;fill:rgb(13.169861%,17.523193%,35.48584%);fill-opacity:1;" d="M 158.210938 27.503906 C 157.839844 26.9375 157.46875 26.367188 157.070312 25.753906 C 157.578125 25.011719 158.074219 24.269531 158.585938 23.539062 C 160.703125 20.515625 162.8125 17.484375 164.960938 14.480469 C 166.398438 12.460938 167.851562 10.449219 169.378906 8.492188 C 170.457031 7.109375 171.757812 5.949219 173.503906 5.425781 C 173.589844 5.148438 173.667969 4.890625 173.746094 4.632812 C 174.082031 4.632812 174.414062 4.632812 174.789062 4.632812 C 174.789062 5.550781 174.789062 6.347656 174.789062 7.195312 C 172.464844 7.847656 170.996094 9.554688 169.667969 11.367188 C 167.226562 14.710938 164.855469 18.101562 162.460938 21.480469 C 161.035156 23.480469 159.625 25.496094 158.210938 27.503906 "/>
<path style=" stroke:none;fill-rule:nonzero;fill:rgb(43.037415%,25.569153%,51.464844%);fill-opacity:1;" d="M 146.449219 7.289062 C 145.847656 6.65625 145.46875 5.90625 145.308594 5.050781 C 145.851562 5.710938 146.28125 6.433594 146.449219 7.289062 "/>
<path style=" stroke:none;fill-rule:nonzero;fill:rgb(43.037415%,25.569153%,51.464844%);fill-opacity:1;" d="M 147.945312 10.09375 C 147.40625 9.582031 147.09375 8.960938 147 8.222656 C 147.480469 8.761719 147.820312 9.375 147.945312 10.09375 "/>
<path style=" stroke:none;fill-rule:nonzero;fill:rgb(43.037415%,25.569153%,51.464844%);fill-opacity:1;" d="M 144.765625 4.113281 C 144.355469 3.847656 144.179688 3.464844 144.1875 2.988281 C 144.546875 3.277344 144.746094 3.648438 144.765625 4.113281 "/>
<path style=" stroke:none;fill-rule:nonzero;fill:rgb(43.037415%,25.569153%,51.464844%);fill-opacity:1;" d="M 149.066406 12.160156 C 148.679688 11.960938 148.550781 11.609375 148.507812 11.210938 C 148.984375 11.351562 149.003906 11.769531 149.066406 12.160156 "/>
<path style=" stroke:none;fill-rule:nonzero;fill:rgb(43.037415%,25.569153%,51.464844%);fill-opacity:1;" d="M 150.019531 13.855469 C 149.90625 13.695312 149.792969 13.535156 149.679688 13.375 C 149.792969 13.535156 149.90625 13.695312 150.019531 13.855469 "/>
<path style=" stroke:none;fill-rule:nonzero;fill:rgb(43.037415%,25.569153%,51.464844%);fill-opacity:1;" d="M 143.828125 2.425781 C 143.765625 2.300781 143.699219 2.171875 143.636719 2.046875 C 143.699219 2.171875 143.765625 2.300781 143.828125 2.425781 "/>
<path style=" stroke:none;fill-rule:nonzero;fill:rgb(43.037415%,25.569153%,51.464844%);fill-opacity:1;" d="M 144.019531 2.800781 C 143.953125 2.671875 143.890625 2.546875 143.824219 2.417969 C 143.890625 2.546875 143.953125 2.671875 144.019531 2.800781 "/>
<path style=" stroke:none;fill-rule:nonzero;fill:rgb(43.037415%,25.569153%,51.464844%);fill-opacity:1;" d="M 148.507812 11.214844 C 148.445312 11.089844 148.382812 10.964844 148.316406 10.835938 C 148.382812 10.964844 148.445312 11.089844 148.507812 11.214844 "/>
<path style=" stroke:none;fill-rule:nonzero;fill:rgb(43.037415%,25.569153%,51.464844%);fill-opacity:1;" d="M 149.253906 12.53125 C 149.1875 12.402344 149.125 12.277344 149.058594 12.148438 C 149.125 12.277344 149.1875 12.402344 149.253906 12.53125 "/>
<path style=" stroke:none;fill-rule:nonzero;fill:rgb(43.037415%,25.569153%,51.464844%);fill-opacity:1;" d="M 149.441406 12.90625 C 149.378906 12.777344 149.3125 12.648438 149.246094 12.523438 C 149.3125 12.648438 149.378906 12.777344 149.441406 12.90625 "/>
<path style=" stroke:none;fill-rule:nonzero;fill:rgb(43.037415%,25.569153%,51.464844%);fill-opacity:1;" d="M 149.652344 13.289062 C 149.582031 13.15625 149.507812 13.027344 149.4375 12.894531 C 149.507812 13.027344 149.582031 13.15625 149.652344 13.289062 "/>
<path style=" stroke:none;fill-rule:nonzero;fill:rgb(43.037415%,25.569153%,51.464844%);fill-opacity:1;" d="M 148.320312 10.84375 C 148.257812 10.714844 148.195312 10.589844 148.132812 10.464844 C 148.195312 10.589844 148.257812 10.714844 148.320312 10.84375 "/>
<path style=" stroke:none;fill-rule:nonzero;fill:rgb(43.037415%,25.569153%,51.464844%);fill-opacity:1;" d="M 148.132812 10.46875 C 148.070312 10.34375 148.007812 10.214844 147.941406 10.089844 C 148.007812 10.214844 148.070312 10.34375 148.132812 10.46875 "/>
<path style=" stroke:none;fill-rule:nonzero;fill:rgb(43.037415%,25.569153%,51.464844%);fill-opacity:1;" d="M 146.640625 7.660156 C 146.574219 7.535156 146.511719 7.410156 146.445312 7.28125 C 146.511719 7.410156 146.574219 7.535156 146.640625 7.660156 "/>
<path style=" stroke:none;fill-rule:nonzero;fill:rgb(43.037415%,25.569153%,51.464844%);fill-opacity:1;" d="M 144.953125 4.484375 C 144.886719 4.355469 144.824219 4.230469 144.757812 4.101562 C 144.824219 4.230469 144.886719 4.355469 144.953125 4.484375 "/>
<path style=" stroke:none;fill-rule:nonzero;fill:rgb(43.037415%,25.569153%,51.464844%);fill-opacity:1;" d="M 145.3125 5.054688 C 145.246094 4.929688 145.183594 4.800781 145.121094 4.675781 C 145.183594 4.800781 145.246094 4.929688 145.3125 5.054688 "/>
<path style=" stroke:none;fill-rule:nonzero;fill:rgb(43.037415%,25.569153%,51.464844%);fill-opacity:1;" d="M 143.640625 2.054688 C 143.582031 1.972656 143.519531 1.894531 143.460938 1.8125 C 143.519531 1.894531 143.582031 1.972656 143.640625 2.054688 "/>
<path style=" stroke:none;fill-rule:nonzero;fill:rgb(43.037415%,25.569153%,51.464844%);fill-opacity:1;" d="M 144.191406 2.996094 C 144.132812 2.929688 144.070312 2.859375 144.011719 2.792969 C 144.070312 2.859375 144.132812 2.929688 144.191406 2.996094 "/>
<path style=" stroke:none;fill-rule:nonzero;fill:rgb(43.037415%,25.569153%,51.464844%);fill-opacity:1;" d="M 145.125 4.679688 C 145.066406 4.613281 145.007812 4.542969 144.945312 4.476562 C 145.007812 4.542969 145.066406 4.613281 145.125 4.679688 "/>
<path style=" stroke:none;fill-rule:nonzero;fill:rgb(43.037415%,25.569153%,51.464844%);fill-opacity:1;" d="M 146.820312 7.945312 C 146.757812 7.847656 146.695312 7.75 146.636719 7.65625 C 146.695312 7.75 146.757812 7.847656 146.820312 7.945312 "/>
<path style=" stroke:none;fill-rule:nonzero;fill:rgb(43.037415%,25.569153%,51.464844%);fill-opacity:1;" d="M 147.003906 8.230469 C 146.941406 8.132812 146.882812 8.039062 146.816406 7.941406 C 146.882812 8.039062 146.941406 8.132812 147.003906 8.230469 "/>
<path style=" stroke:none;fill-rule:nonzero;fill:rgb(92.747498%,3.631592%,48.361206%);fill-opacity:1;" d="M 45.640625 24.460938 C 45.839844 24.476562 45.988281 24.492188 46.136719 24.492188 C 47.972656 24.488281 49.8125 24.523438 51.648438 24.460938 C 52.601562 24.425781 53.574219 24.3125 54.5 24.074219 C 57.363281 23.339844 59.328125 21.578125 60.175781 18.710938 C 60.847656 16.441406 60.933594 14.109375 60.484375 11.792969 C 60.070312 9.644531 58.925781 7.953125 56.9375 6.917969 C 55.625 6.234375 54.195312 5.890625 52.734375 5.839844 C 50.746094 5.769531 48.75 5.832031 46.757812 5.855469 C 46.394531 5.859375 46.03125 5.941406 45.640625 5.996094 C 45.640625 12.148438 45.640625 18.246094 45.640625 24.460938 Z M 45.632812 50.167969 C 46.328125 50.167969 46.917969 50.132812 47.503906 50.175781 C 50.027344 50.371094 52.542969 50.371094 55.035156 49.910156 C 57.074219 49.53125 58.886719 48.699219 60.199219 47 C 61.425781 45.414062 61.933594 43.566406 62.03125 41.613281 C 62.117188 39.964844 62.101562 38.308594 62.023438 36.660156 C 61.980469 35.707031 61.796875 34.742188 61.542969 33.820312 C 60.910156 31.535156 59.449219 29.828125 57.574219 28.449219 C 55.941406 27.25 54.121094 26.667969 52.078125 26.722656 C 50.179688 26.777344 48.277344 26.75 46.375 26.761719 C 46.136719 26.765625 45.898438 26.789062 45.632812 26.804688 C 45.632812 34.582031 45.632812 42.296875 45.632812 50.167969 Z M 30.296875 4.59375 C 30.296875 3.886719 30.296875 3.273438 30.296875 2.613281 C 30.488281 2.605469 30.636719 2.589844 30.785156 2.589844 C 39.296875 2.59375 47.808594 2.578125 56.320312 2.613281 C 58.847656 2.625 61.328125 2.988281 63.730469 3.863281 C 67.886719 5.382812 69.929688 8.554688 70.128906 12.808594 C 70.230469 14.984375 69.964844 17.089844 69 19.074219 C 68.042969 21.050781 66.671875 22.6875 64.871094 23.925781 C 63.648438 24.773438 62.339844 25.5 60.992188 26.324219 C 60.988281 26.433594 60.976562 26.640625 60.964844 26.90625 C 61.300781 27.042969 61.609375 27.171875 61.921875 27.292969 C 63.886719 28.050781 65.695312 29.074219 67.210938 30.546875 C 68.878906 32.171875 70.015625 34.132812 70.425781 36.429688 C 71.003906 39.65625 70.683594 42.824219 69.414062 45.851562 C 68.480469 48.078125 66.855469 49.71875 64.777344 50.929688 C 62.863281 52.042969 60.796875 52.640625 58.625 52.976562 C 56.585938 53.289062 54.539062 53.339844 52.480469 53.339844 C 46.183594 53.335938 39.886719 53.339844 33.589844 53.339844 C 33.253906 53.339844 32.917969 53.339844 32.539062 53.339844 C 32.539062 52.648438 32.539062 52.039062 32.539062 51.410156 C 32.789062 51.304688 33.011719 51.195312 33.246094 51.121094 C 35.097656 50.53125 35.882812 49.152344 36.007812 47.320312 C 36.070312 46.449219 36.078125 45.578125 36.078125 44.703125 C 36.082031 33.230469 36.082031 21.757812 36.066406 10.285156 C 36.0625 9.417969 35.992188 8.542969 35.859375 7.6875 C 35.617188 6.105469 34.757812 5.296875 33.175781 5.046875 C 32.230469 4.894531 31.285156 4.75 30.296875 4.59375 "/>
<path style=" stroke:none;fill-rule:nonzero;fill:rgb(98.356628%,92.739868%,96.310425%);fill-opacity:1;" d="M 59.433594 31.042969 L 59.449219 31.054688 C 59.382812 30.988281 59.316406 30.921875 59.25 30.855469 L 59.261719 30.863281 C 59.214844 30.800781 59.167969 30.734375 59.121094 30.671875 C 57.222656 28.453125 54.90625 27.15625 51.898438 27.289062 C 50.128906 27.367188 48.355469 27.363281 46.585938 27.394531 C 46.25 27.292969 46.125 27.402344 46.230469 27.75 C 46.242188 28.144531 46.253906 28.539062 46.265625 28.9375 C 46.234375 29.558594 46.179688 30.179688 46.179688 30.800781 C 46.179688 36.753906 46.1875 42.710938 46.195312 48.664062 C 46.195312 48.941406 46.195312 49.214844 46.195312 49.546875 C 46.417969 49.546875 46.566406 49.546875 46.714844 49.546875 C 46.824219 49.550781 46.9375 49.550781 47.050781 49.554688 C 48.671875 49.5625 50.289062 49.566406 51.910156 49.574219 C 53.679688 49.582031 55.382812 49.296875 57.046875 48.660156 C 58.503906 48.097656 59.535156 47.074219 60.289062 45.78125 C 61.070312 44.4375 61.402344 42.902344 61.464844 41.378906 C 61.554688 39.160156 61.640625 36.921875 61.128906 34.722656 C 60.839844 33.464844 60.425781 32.277344 59.640625 31.238281 C 59.570312 31.171875 59.503906 31.105469 59.433594 31.042969 Z M 45.632812 50.167969 C 45.632812 42.296875 45.632812 34.582031 45.632812 26.804688 C 45.898438 26.789062 46.136719 26.765625 46.375 26.761719 C 48.277344 26.75 50.179688 26.777344 52.078125 26.722656 C 54.121094 26.667969 55.941406 27.25 57.574219 28.449219 C 59.449219 29.828125 60.910156 31.535156 61.542969 33.820312 C 61.796875 34.742188 61.980469 35.707031 62.023438 36.660156 C 62.101562 38.308594 62.117188 39.964844 62.03125 41.613281 C 61.933594 43.566406 61.425781 45.414062 60.199219 47 C 58.886719 48.699219 57.074219 49.53125 55.035156 49.910156 C 52.542969 50.371094 50.027344 50.371094 47.503906 50.175781 C 46.917969 50.132812 46.328125 50.167969 45.632812 50.167969 "/>
<path style=" stroke:none;fill-rule:nonzero;fill:rgb(98.582458%,90.919495%,95.820618%);fill-opacity:1;" d="M 58.867188 9.527344 L 58.886719 9.542969 C 58.824219 9.414062 58.761719 9.289062 58.703125 9.160156 C 58.09375 8.292969 57.28125 7.695312 56.328125 7.261719 C 55 6.65625 53.585938 6.414062 52.152344 6.375 C 50.40625 6.332031 48.660156 6.402344 46.914062 6.4375 C 46.679688 6.441406 46.445312 6.507812 46.234375 6.542969 C 46.234375 12.367188 46.234375 18.125 46.234375 23.910156 C 46.535156 23.910156 46.78125 23.910156 47.027344 23.910156 C 49.042969 24.03125 51.054688 23.941406 53.054688 23.734375 C 53.835938 23.65625 54.609375 23.417969 55.359375 23.171875 C 56.5 22.800781 57.378906 22.03125 58.199219 21.175781 C 58.886719 20.457031 59.332031 19.574219 59.570312 18.683594 C 59.855469 17.605469 60.121094 16.476562 60.011719 15.316406 C 59.953125 14.699219 60.023438 14.070312 59.992188 13.449219 C 59.964844 12.871094 59.972656 12.257812 59.785156 11.722656 C 59.554688 11.046875 59.621094 10.25 59.03125 9.707031 C 58.976562 9.648438 58.921875 9.589844 58.867188 9.527344 Z M 45.640625 24.460938 C 45.640625 18.246094 45.640625 12.148438 45.640625 5.996094 C 46.03125 5.941406 46.394531 5.859375 46.757812 5.855469 C 48.75 5.832031 50.746094 5.769531 52.734375 5.839844 C 54.195312 5.890625 55.625 6.234375 56.9375 6.917969 C 58.925781 7.953125 60.070312 9.644531 60.484375 11.792969 C 60.933594 14.109375 60.847656 16.441406 60.175781 18.710938 C 59.328125 21.578125 57.363281 23.339844 54.5 24.074219 C 53.574219 24.3125 52.601562 24.425781 51.648438 24.460938 C 49.8125 24.523438 47.972656 24.488281 46.136719 24.492188 C 45.988281 24.492188 45.839844 24.476562 45.640625 24.460938 "/>
<path style=" stroke:none;fill-rule:nonzero;fill:rgb(16.996765%,22.471619%,41.722107%);fill-opacity:1;" d="M 58.847656 30.703125 C 57.859375 30.070312 56.882812 29.40625 55.710938 29.144531 C 55.140625 29.015625 54.558594 28.84375 53.980469 28.84375 C 51.753906 28.839844 49.523438 28.898438 47.292969 28.929688 C 47.222656 29.015625 47.152344 29.097656 47.082031 29.179688 C 47.054688 29.453125 47.007812 29.726562 47.007812 30 C 47 32.367188 47.003906 34.730469 47 37.097656 C 47 37.441406 46.972656 37.78125 46.960938 38.121094 C 46.527344 38.332031 46.722656 38.726562 46.722656 39.03125 C 46.707031 42.175781 46.714844 45.316406 46.710938 48.460938 C 46.710938 48.660156 46.683594 48.863281 46.667969 49.0625 C 46.621094 49.0625 46.578125 49.058594 46.53125 49.058594 C 46.53125 48.75 46.53125 48.445312 46.53125 48.136719 C 46.53125 42.101562 46.53125 36.0625 46.53125 30.027344 C 46.53125 29.777344 46.554688 29.523438 46.515625 29.28125 C 46.492188 29.15625 46.351562 29.050781 46.265625 28.9375 C 46.253906 28.539062 46.242188 28.144531 46.230469 27.75 C 46.347656 27.628906 46.46875 27.511719 46.585938 27.394531 C 48.355469 27.363281 50.128906 27.367188 51.898438 27.289062 C 54.90625 27.15625 57.222656 28.453125 59.121094 30.671875 C 59.03125 30.679688 58.941406 30.691406 58.847656 30.703125 "/>
<path style=" stroke:none;fill-rule:nonzero;fill:rgb(11.654663%,14.608765%,30.383301%);fill-opacity:1;" d="M 46.265625 28.9375 C 46.351562 29.050781 46.492188 29.15625 46.515625 29.28125 C 46.554688 29.523438 46.53125 29.777344 46.53125 30.027344 C 46.53125 36.0625 46.53125 42.101562 46.53125 48.136719 C 46.53125 48.445312 46.53125 48.75 46.53125 49.058594 C 46.578125 49.058594 46.621094 49.0625 46.667969 49.0625 C 46.683594 48.863281 46.710938 48.660156 46.710938 48.460938 C 46.714844 45.316406 46.707031 42.175781 46.722656 39.03125 C 46.722656 38.726562 46.527344 38.332031 46.960938 38.121094 C 46.972656 41.871094 46.988281 45.621094 47.003906 49.371094 C 46.90625 49.429688 46.8125 49.488281 46.714844 49.546875 C 46.566406 49.546875 46.417969 49.546875 46.195312 49.546875 C 46.195312 49.214844 46.195312 48.941406 46.195312 48.664062 C 46.1875 42.710938 46.179688 36.753906 46.179688 30.800781 C 46.179688 30.179688 46.234375 29.558594 46.265625 28.9375 "/>
<path style=" stroke:none;fill-rule:nonzero;fill:rgb(11.654663%,14.608765%,30.383301%);fill-opacity:1;" d="M 46.585938 27.394531 C 46.46875 27.511719 46.347656 27.628906 46.230469 27.75 C 46.125 27.402344 46.25 27.292969 46.585938 27.394531 "/>
<path style=" stroke:none;fill-rule:nonzero;fill:rgb(43.037415%,25.569153%,51.464844%);fill-opacity:1;" d="M 58.847656 30.703125 C 58.941406 30.691406 59.03125 30.679688 59.121094 30.671875 C 59.167969 30.734375 59.214844 30.800781 59.261719 30.863281 C 59.125 30.8125 58.988281 30.757812 58.847656 30.703125 "/>
<path style=" stroke:none;fill-rule:nonzero;fill:rgb(16.996765%,22.471619%,41.722107%);fill-opacity:1;" d="M 46.714844 49.546875 C 46.8125 49.488281 46.90625 49.429688 47.003906 49.371094 C 47.019531 49.433594 47.035156 49.492188 47.050781 49.554688 C 46.9375 49.550781 46.824219 49.550781 46.714844 49.546875 "/>
<path style=" stroke:none;fill-rule:nonzero;fill:rgb(43.037415%,25.569153%,51.464844%);fill-opacity:1;" d="M 59.449219 31.054688 C 59.382812 30.988281 59.316406 30.921875 59.25 30.855469 C 59.316406 30.921875 59.382812 30.988281 59.449219 31.054688 "/>
<path style=" stroke:none;fill-rule:nonzero;fill:rgb(43.037415%,25.569153%,51.464844%);fill-opacity:1;" d="M 59.640625 31.238281 C 59.570312 31.171875 59.503906 31.105469 59.433594 31.042969 C 59.503906 31.105469 59.570312 31.171875 59.640625 31.238281 "/>
<path style=" stroke:none;fill-rule:nonzero;fill:rgb(14.297485%,20.1828%,38.926697%);fill-opacity:1;" d="M 47.09375 8.414062 C 47.082031 9.160156 47.0625 9.90625 47.0625 10.652344 C 47.058594 14.730469 47.0625 18.808594 47.058594 22.886719 C 47.058594 23.226562 47.039062 23.570312 47.027344 23.910156 C 46.78125 23.910156 46.535156 23.910156 46.234375 23.910156 C 46.234375 18.125 46.234375 12.367188 46.234375 6.542969 C 46.445312 6.507812 46.679688 6.441406 46.914062 6.4375 C 48.660156 6.402344 50.40625 6.332031 52.152344 6.375 C 53.585938 6.414062 55 6.65625 56.328125 7.261719 C 57.28125 7.695312 58.09375 8.292969 58.703125 9.160156 C 58.695312 9.242188 58.691406 9.324219 58.6875 9.410156 C 56.773438 8.230469 54.632812 7.914062 52.453125 7.875 C 50.785156 7.847656 49.109375 7.964844 47.441406 8.03125 C 47.324219 8.035156 47.214844 8.160156 47.101562 8.230469 C 47.097656 8.292969 47.097656 8.351562 47.09375 8.414062 "/>
<path style=" stroke:none;fill-rule:nonzero;fill:rgb(43.037415%,25.569153%,51.464844%);fill-opacity:1;" d="M 58.6875 9.410156 C 58.691406 9.324219 58.695312 9.242188 58.703125 9.160156 C 58.761719 9.289062 58.824219 9.414062 58.886719 9.542969 C 58.820312 9.5 58.753906 9.453125 58.6875 9.410156 "/>
<path style=" stroke:none;fill-rule:nonzero;fill:rgb(43.037415%,25.569153%,51.464844%);fill-opacity:1;" d="M 59.03125 9.707031 C 58.976562 9.648438 58.921875 9.589844 58.867188 9.527344 C 58.921875 9.589844 58.976562 9.648438 59.03125 9.707031 "/>
<path style=" stroke:none;fill-rule:nonzero;fill:rgb(98.356628%,92.739868%,96.310425%);fill-opacity:1;" d="M 47.082031 29.179688 C 47.152344 29.097656 47.222656 29.015625 47.292969 28.929688 C 47.222656 29.015625 47.152344 29.097656 47.082031 29.179688 "/>
<path style=" stroke:none;fill-rule:nonzero;fill:rgb(98.582458%,90.919495%,95.820618%);fill-opacity:1;" d="M 47.09375 8.414062 C 47.097656 8.351562 47.097656 8.292969 47.101562 8.230469 C 47.144531 8.261719 47.1875 8.292969 47.230469 8.324219 C 47.183594 8.355469 47.140625 8.382812 47.09375 8.414062 "/>
</g>
</svg>
