<svg xmlns="http://www.w3.org/2000/svg" width="176pt" height="74.827" viewBox="0 0 176 56.12"><defs><clipPath id="a"><path d="M84 42h39v14.121H84Zm0 0"/></clipPath><clipPath id="b"><path d="M129 34h22v22.121h-22Zm0 0"/></clipPath><clipPath id="c"><path d="M1 53h20v3.121H1Zm0 0"/></clipPath><clipPath id="d"><path d="M160 53h16v3.121h-16Zm0 0"/></clipPath></defs><path d="m146.82 7.945-.004-.004c.067.098.125.192.188.29L147 8.222c.094.738.406 1.359.945 1.87l-.004-.003c.067.125.13.254.192.379v-.004q.094.187.187.379l-.004-.008q.1.192.192.379v-.004c.043.398.172.75.558.95l-.007-.013.195.383-.008-.008q.1.188.195.383l-.004-.011c.07.132.145.261.215.394l.028.086.34.48 4.14 6.985c4.11-6.067 8.23-11.973 12.082-18.246 2.371.086 4.848.172 7.414.265.031.618.063 1.196.09 1.774-.078.258-.156.515-.242.793-1.746.523-3.047 1.683-4.125 3.066-1.527 1.957-2.98 3.969-4.418 5.988-2.149 3.004-4.258 6.036-6.375 9.06-.512.73-1.008 1.472-1.516 2.214l1.14 1.75c2.83 4.672 5.657 9.348 8.497 14.02a596 596 0 0 0 4.457 7.21c.348.551.777 1.051 1.191 1.551.657.785 1.485 1.313 2.508 1.61l.07 1.39c-.03.36-.054.715-.085 1.121h-.996c-3.075 0-6.145.016-9.22-.008-1.452-.007-2.905-.09-4.359-.14-.277-.363-.62-.692-.82-1.094-.855-1.727-1.734-3.445-2.488-5.215-1.715-4.023-4.149-7.633-6.41-11.34-.348-.605-.696-1.214-1.086-1.906-.192.234-.313.363-.41.512-1.829 2.695-3.664 5.383-5.461 8.097-.664 1.008-1.309 2.043-1.825 3.13-1.05 2.206-2 4.464-3.011 6.69-.188.407-.489.766-.719 1.118-2.8.313-5.504.063-8.203.18l-1.055-.075c-.144-.824-.11-1.617-.027-2.457 2.855-.957 4.515-3.246 6.14-5.535 3.782-5.328 7.5-10.699 11.243-16.058.105-.153.195-.317.312-.512-.465-.793-.926-1.602-1.402-2.398-2.89-4.797-5.77-9.602-8.684-14.383-.824-1.352-1.762-2.633-2.644-3.946q-.101-.138-.196-.277v.004c.043-.254.043-.488-.261-.582-.192-.281-.356-.594-.582-.84-.54-.582-.993-1.273-1.782-1.574-.336-.156-.672-.313-1.074-.504V2.875c1.07-.254 2.172-.531 3.281-.777 2.938-.657 5.871-1.297 8.809-1.95.078-.02.144-.101.219-.152h.375l.949 1.817c.059.082.121.16.18.242l-.004-.008.191.379-.004-.008.196.383-.008-.008c.058.066.12.137.18.203l-.005-.008c-.007.477.168.86.579 1.125l-.008-.011.195.382-.008-.007q.093.1.18.203l-.004-.004c.063.125.125.254.191.379l-.003-.004c.16.855.539 1.605 1.14 2.238l-.004-.008.196.38-.004-.005q.088.142.183.29" style="stroke:none;fill-rule:nonzero;fill:#ed097b;fill-opacity:1"/><g clip-path="url(#a)"><path d="M121.41 42.422h1.153c.023.187.066.336.058.48-.176 3.446-.36 6.891-.543 10.332l-.148 2.887H84.883q.004-.751.008-1.496h34.93c.245 0 .5.016.742-.02.085-.011.156-.152.23-.23q.305-5.977.617-11.953" style="stroke:none;fill-rule:nonzero;fill:#212c59;fill-opacity:1"/></g><g clip-path="url(#b)"><path d="M150.555 36.61c-.125.136-.262.261-.364.413a2486 2486 0 0 0-5.738 8.493c-.762 1.132-1.383 2.34-1.914 3.605-.867 2.059-1.832 4.074-2.777 6.102-.153.324-.41.597-.621.898h-9.356q.031-.849.055-1.691c2.7-.117 5.402.133 8.203-.18.23-.352.531-.71.719-1.117 1.011-2.227 1.96-4.485 3.011-6.692.516-1.086 1.16-2.12 1.825-3.129 1.797-2.714 3.632-5.402 5.46-8.097.098-.149.22-.278.41-.512.391.692.739 1.3 1.087 1.906" style="stroke:none;fill-rule:nonzero;fill:#212d5a;fill-opacity:1"/></g><g clip-path="url(#c)"><path d="M1.063 56.121q.006-.848.007-1.695c.375-.004.75-.02 1.121-.02H19.54c.121-.14.152-.164.156-.187q.047-.417.086-.832c.348.101.696.207 1.114.332v2.402z" style="stroke:none;fill-rule:nonzero;fill:#202c58;fill-opacity:1"/></g><g clip-path="url(#d)"><path d="M161.406 56.121c-.605-.48-.894-1.156-1.133-1.863 1.454.05 2.907.133 4.36.14 3.074.024 6.144.008 9.219.008h.996c.03-.406.054-.761.086-1.12.34.136.683.273 1.066.429v2.406z" style="stroke:none;fill-rule:nonzero;fill:#212c58;fill-opacity:1"/></g><path d="M121.41 42.422q-.311 5.977-.617 11.953c-.375.012-.746.035-1.117.035H85.969c-.375 0-.746.016-1.121.028-.336-.024-.672-.047-1.059-.079V51.9c.563-.208 1.14-.419 1.719-.637 1.191-.461 1.805-1.387 1.992-2.602.11-.707.195-1.422.195-2.133q.012-18.281-.023-36.562c0-.582-.145-1.168-.219-1.75q-.076-.087-.148-.18l.011.02c-.238-1.38-1.199-1.98-2.441-2.278-.34-.148-.68-.297-1.086-.468V2.96c.637-.156 36.05-.203 37.383-.027v11.828c-.34.02-.582.047-.82.047-1.063.004-2.118-.004-3.176.007-.239.004-.473.079-.711.121l-.422-.117.004.024c-.336-.793-.664-1.59-1.016-2.375-.238-.535-.511-1.055-.77-1.582q-.088-.212-.183-.418-.104-.087-.215-.172l.008.008c.004-.063.035-.137.008-.18-.89-1.383-2.035-2.414-3.734-2.645-.676-.09-1.356-.18-2.036-.183-2.671-.024-5.347-.016-8.02-.012-.206 0-.41.05-.605.074-.164 3.29-.086 17.266.102 18.036h1.012c2.664-.016 5.336.183 8.12-.176.102-.278.27-.57.313-.88.149-1.042.23-2.089.38-3.132.054-.383.222-.754.347-1.168h4.316v1.691c-.011 4.493-.023 8.985-.039 13.555l-3.617.07-.648-.097c-.18-.774-.368-1.567-.555-2.363-.086-.954-.149-1.91-.73-2.75-2.993-.543-5.97-.329-8.973-.383v20.176h1.074c2.586 0 5.172-.008 7.758 0 2.344.003 4.11-1.012 5.37-2.97.919-1.425 1.552-2.972 2.06-4.577.183-.586.382-1.168.574-1.743h5.164c-.035.622-.067 1.2-.102 1.774M19.781 53.387q-.04.415-.086.832c-.004.023-.035.047-.156.187H2.191c-.37 0-.746.016-1.12.02l-1.067-.051v-2.469c.422-.144.91-.304 1.39-.484.79-.3 1.508-.7 1.899-1.508q.088-.176.176-.348l.011-.027c.063-.098.168-.191.18-.297.133-1.074.352-2.148.356-3.222.035-7.532.023-15.063.023-22.594 0-4.074 0-8.153-.008-12.23-.004-1.024-.011-2.048-.355-3.032a5 5 0 0 0-.184-.133l.016.012c-.078-.29-.09-.617-.242-.86-.496-.808-1.258-1.242-2.18-1.413C.746 5.629.41 5.484 0 5.309v-2.43h19.773v1.785c-.027.211-.054.426-.09.66-.374.121-.73.223-1.078.344-1.437.484-2.394 1.441-2.71 2.937-.141.665-.2 1.356-.204 2.036-.027 3.117-.023 6.234-.023 9.351 0 8.887 0 17.774.031 26.66.004.856.18 1.723.36 2.57.113.528.304 1.075.91 1.294l-.008-.016q.054.09.113.18c.528.293 1.047.605 1.59.867.324.16.688.234 1.117.375z" style="stroke:none;fill-rule:nonzero;fill:#ec097b;fill-opacity:1"/><path d="M30.297 4.594c.988.156 1.933.3 2.879.453 1.582.25 2.441 1.058 2.683 2.64.133.856.203 1.731.207 2.598.016 11.473.016 22.945.012 34.418 0 .875-.008 1.746-.07 2.617-.125 1.832-.91 3.211-2.762 3.801-.234.074-.457.184-.707.29v1.929h1.05c6.298 0 12.595-.004 18.891 0 2.06 0 4.106-.05 6.145-.363 2.172-.336 4.238-.934 6.152-2.047 2.078-1.211 3.703-2.852 4.637-5.078 1.27-3.028 1.59-6.196 1.012-9.422-.41-2.297-1.547-4.258-3.215-5.883-1.516-1.473-3.324-2.496-5.29-3.254-.312-.121-.62-.25-.956-.387.012-.265.023-.472.027-.582 1.348-.824 2.656-1.55 3.88-2.398 1.8-1.238 3.171-2.875 4.128-4.852.965-1.984 1.23-4.09 1.129-6.265-.2-4.254-2.242-7.426-6.399-8.946-2.402-.875-4.882-1.238-7.41-1.25-8.511-.035-17.023-.02-25.535-.023-.148 0-.297.015-.488.023zm3.047 49.336-1.348-.098v-2.848c.828-.597 2.125-.527 2.875-1.746.082-.203.246-.597.414-.996.3-6.46.18-12.93.2-19.398.023-6.48.003-12.961.003-19.442 0-.39-.27-1.867-.379-2.113-.136-.77-.593-1.355-1.32-1.527-.894-.207-1.832-.223-2.75-.324l-1.27-.426c-.171-1.453-.124-2.48.169-3.145h.875c7.972 0 15.949-.004 23.925.008.766 0 1.532.117 2.297.18.738.058 1.469.148 2.207.18 1.297.054 2.543.316 3.774.734 1.187.406 2.355.844 3.406 1.539 1.285.855 2.332 1.933 3.008 3.332.32.66.57 1.355.851 2.035.059.2.117.395.18.594.09 1.02.246 2.039.266 3.062.062 3.66-1.18 6.817-3.793 9.407-1.336 1.328-2.883 2.359-4.547 3.226-.2.102-.383.23-.649.395.684.3 1.242.562 1.813.793.156.062.351.03.531.039.106.144.18.355.32.425 1.313.637 2.426 1.512 3.446 2.551 1.297 1.317 2.195 2.856 2.824 4.57.012.028.008.063.016.094l.292 1.07c.356 2.012.356 4.028.067 6.044-.262 1.832-.793 3.578-1.742 5.18-1.625 2.734-4.11 4.37-7.04 5.386-2.644.922-5.398 1.176-8.18 1.184-6.57.015-13.14.007-19.714.011-.34 0-.684.016-1.027.024" style="stroke:none;fill-rule:nonzero;fill:#fbe8f4;fill-opacity:1"/><path d="M33.344 53.93c.343-.008.687-.024 1.027-.024 6.574-.004 13.145.004 19.715-.011 2.781-.008 5.535-.262 8.18-1.184 2.93-1.016 5.414-2.652 7.039-5.387.949-1.601 1.48-3.347 1.742-5.18.289-2.015.289-4.03-.067-6.042h.235c.894 2.117 1.023 4.34.836 6.593-.121 1.461-.39 2.899-.895 4.278-1.207 3.3-3.558 5.484-6.73 6.855-2.106.914-4.336 1.324-6.61 1.488a69 69 0 0 1-4.757.157c-6.137.02-12.27.007-18.407.007-.343 0-.683.028-1.023.04a.3.3 0 0 0-.18-.024z" style="stroke:none;fill-rule:nonzero;fill:#212f5d;fill-opacity:1"/><path d="M16.969 50.516c-.606-.22-.797-.766-.91-1.293-.18-.848-.356-1.715-.36-2.57-.031-8.887-.031-17.774-.031-26.66 0-3.118-.004-6.235.023-9.352.004-.68.063-1.371.204-2.036.316-1.496 1.273-2.453 2.71-2.937.348-.121.704-.223 1.079-.344.035-.234.062-.449.09-.66h1.058v2.461c-.305.11-.645.242-.992.348-1.871.574-2.809 1.863-2.899 3.793-.058 1.273-.14 2.55-.144 3.824q-.011 16.131.008 32.262c.004 1.054.11 2.109.164 3.164" style="stroke:none;fill-rule:nonzero;fill:#222d5b;fill-opacity:1"/><path d="M100.598 25.395h-1.012c-.188-.77-.266-14.747-.102-18.036.196-.023.399-.074.606-.074 2.672-.004 5.347-.012 8.02.012.68.004 1.359.094 2.035.183 1.699.23 2.843 1.262 3.734 2.645.027.043-.004.117-.008.18-.113-.012-.262.02-.332-.04-1.102-.902-2.434-1.136-3.766-1.163-3.015-.067-6.035-.024-9.117-.024-.023.156-.07.297-.07.442 0 5.289.008 10.582.012 15.875" style="stroke:none;fill-rule:nonzero;fill:#222f5e;fill-opacity:1"/><path d="M100.586 49.938h-1.074V29.762c3.004.054 5.98-.16 8.972.383.582.84.645 1.796.73 2.75-.948-1.004-2.167-1.278-3.48-1.282-1.675-.004-3.355 0-5.148 0z" style="stroke:none;fill-rule:nonzero;fill:#222d5c;fill-opacity:1"/><path d="M64.082 27.39c-.18-.007-.375.024-.531-.038-.57-.23-1.13-.493-1.813-.793.266-.164.45-.293.649-.395 1.664-.867 3.21-1.898 4.547-3.227 2.613-2.59 3.855-5.746 3.793-9.406-.02-1.023-.176-2.043-.266-3.062q.088.012.176.008c.996 2.164 1.136 4.449.855 6.765-.496 4.082-2.742 7.051-6.078 9.293-.437.297-.887.57-1.332.856" style="stroke:none;fill-rule:nonzero;fill:#222f5e;fill-opacity:1"/><path d="m110.418 35.355 3.617-.07c.016-4.57.028-9.062.04-13.555h1.05v15.34h-4.215c-.172-.593-.332-1.156-.492-1.715" style="stroke:none;fill-rule:nonzero;fill:#222e5c;fill-opacity:1"/><path d="M116.465 14.938c.238-.043.472-.118.71-.122 1.06-.011 2.114-.004 3.177-.007.238 0 .48-.028.82-.047V4.66h1.055v11.985c-.84.003-1.696.011-2.547.015-.84.004-1.676 0-2.614 0q-.3-.86-.601-1.723" style="stroke:none;fill-rule:nonzero;fill:#222f5e;fill-opacity:1"/><path d="M84.848 54.438c.375-.012.746-.028 1.12-.028h33.708c.37 0 .742-.023 1.117-.035-.074.078-.145.219-.23.23-.243.036-.497.02-.743.02H84.89q-.021-.093-.042-.187" style="stroke:none;fill-rule:nonzero;fill:#1e315a;fill-opacity:1"/><path d="M31.04 5.438c.917.101 1.855.117 2.75.324.726.172 1.183.758 1.32 1.527-1.329-.203-2.653-.41-4.07-.629z" style="stroke:none;fill-rule:nonzero;fill:#243363;fill-opacity:1"/><path d="M84.875 5.777c1.242.297 2.203.899 2.441 2.278-.796-.305-1.59-.61-2.441-.934zM1.086 5.77c.922.171 1.684.605 2.18 1.414.152.242.164.57.242.859-.79-.309-1.578-.617-2.422-.945z" style="stroke:none;fill-rule:nonzero;fill:#222f5e;fill-opacity:1"/><path d="M130.902 5.797c.79.3 1.243.992 1.782 1.574.226.246.39.559.582.84q-.157.019-.309.031c-.64-.394-1.281-.789-2.055-1.27z" style="stroke:none;fill-rule:nonzero;fill:#243363;fill-opacity:1"/><path d="M71.215 36.102h-.235q-.146-.539-.293-1.07.264.531.528 1.07M132.957 8.242q.151-.013.309-.031c.304.094.304.328.261.582a77 77 0 0 0-.57-.55M70.637 10.477a1 1 0 0 1-.176-.008c-.063-.2-.121-.395-.18-.594.117.2.239.402.356.602" style="stroke:none;fill-rule:nonzero;fill:#6e4183;fill-opacity:1"/><path d="M114.078 10.469q.095.205.184.418a40 40 0 0 0-.414-.407z" style="stroke:none;fill-rule:nonzero;fill:#2b396a;fill-opacity:1"/><path d="M3.469 49.566" style="stroke:none;fill-rule:nonzero;fill:#e5bfd7;fill-opacity:1"/><path d="M133.527 8.79q.096.138.196.276-.101-.138-.196-.277" style="stroke:none;fill-rule:nonzero;fill:#6e4183;fill-opacity:1"/><path d="m3.676 8.164-.07.008-.075-.004a1 1 0 0 0-.039-.137c.063.043.121.086.184.133M116.047 14.844l-.004-.024-.012.04ZM114.078 10.469l-.23.011c.004-.062.011-.12.015-.183q.111.085.215.172" style="stroke:none;fill-rule:nonzero;fill:#222f5e;fill-opacity:1"/><path d="M17.074 50.68" style="stroke:none;fill-rule:nonzero;fill:#222d5b;fill-opacity:1"/><path d="M87.305 8.035q.071.093.148.18-.076-.087-.148-.18" style="stroke:none;fill-rule:nonzero;fill:#222f5e;fill-opacity:1"/><path d="M33.45 55.496a.3.3 0 0 1 .179.024c-.027.046-.05.093-.078.14q-.051-.083-.102-.164" style="stroke:none;fill-rule:nonzero;fill:#faf9f8;fill-opacity:1"/><path d="M158.21 27.504a541 541 0 0 1-1.14-1.75c.508-.742 1.004-1.484 1.516-2.215 2.117-3.023 4.226-6.055 6.375-9.059 1.437-2.02 2.89-4.03 4.418-5.988 1.078-1.383 2.379-2.543 4.125-3.066.086-.278.164-.535.242-.793h1.043v2.562c-2.324.653-3.793 2.36-5.121 4.172-2.441 3.344-4.813 6.735-7.207 10.113-1.426 2-2.836 4.016-4.25 6.024" style="stroke:none;fill-rule:nonzero;fill:#222d5a;fill-opacity:1"/><path d="M146.45 7.29a4.35 4.35 0 0 1-1.141-2.24c.543.66.972 1.384 1.14 2.24M147.945 10.094A3.03 3.03 0 0 1 147 8.223c.48.539.82 1.152.945 1.87M144.766 4.113c-.41-.265-.586-.648-.578-1.125.359.29.558.66.578 1.125M149.066 12.16c-.386-.2-.515-.55-.558-.95.476.142.496.56.558.95M150.02 13.855l-.34-.48zM143.828 2.426c-.062-.125-.129-.254-.191-.38.062.126.129.255.191.38" style="stroke:none;fill-rule:nonzero;fill:#6e4183;fill-opacity:1"/><path d="M144.02 2.8q-.099-.19-.196-.382zM148.508 11.215q-.093-.186-.192-.38.1.194.192.38M149.254 12.531l-.195-.383zM149.652 13.29c-.07-.134-.144-.263-.214-.395.07.132.144.261.214.394M148.32 10.844c-.062-.13-.125-.254-.187-.38.062.126.125.25.187.38M148.133 10.469q-.093-.19-.192-.38.1.19.192.38M146.64 7.66c-.066-.125-.128-.25-.195-.379zM144.953 4.484l-.195-.382zM145.313 5.055q-.1-.19-.192-.38.093.19.191.38M143.64 2.055c-.058-.082-.12-.16-.18-.243.06.083.122.16.18.243M144.191 2.996c-.058-.066-.12-.137-.18-.203.06.066.122.137.18.203" style="stroke:none;fill-rule:nonzero;fill:#6e4183;fill-opacity:1"/><path d="M145.125 4.68q-.087-.102-.18-.203.093.1.18.203M146.82 7.945q-.095-.147-.183-.289.088.142.183.29M147.004 8.23c-.063-.097-.121-.19-.188-.289.067.098.125.192.188.29" style="stroke:none;fill-rule:nonzero;fill:#6e4183;fill-opacity:1"/><path d="M45.64 24.46c.2.017.348.032.497.032 1.836-.004 3.675.031 5.511-.031.954-.035 1.926-.148 2.852-.387 2.863-.734 4.828-2.496 5.676-5.363.672-2.27.758-4.602.308-6.918-.414-2.148-1.558-3.84-3.547-4.875-1.312-.684-2.742-1.027-4.203-1.078-1.988-.07-3.984-.008-5.976.015-.363.004-.727.086-1.117.141zm-.007 25.708c.695 0 1.285-.035 1.87.008 2.524.195 5.04.195 7.532-.266 2.04-.379 3.852-1.21 5.164-2.91 1.227-1.586 1.735-3.434 1.832-5.387.086-1.648.07-3.304-.008-4.953-.043-.953-.226-1.918-.48-2.84-.633-2.285-2.094-3.992-3.969-5.37-1.633-1.2-3.453-1.782-5.496-1.727-1.898.054-3.8.027-5.703.039-.238.004-.477.027-.742.043zM30.297 4.594v-1.98c.191-.009.34-.024.488-.024 8.512.004 17.024-.012 25.535.023 2.528.012 5.008.375 7.41 1.25 4.157 1.52 6.2 4.692 6.399 8.946.101 2.175-.164 4.28-1.129 6.265-.957 1.977-2.328 3.613-4.129 4.852-1.223.847-2.531 1.574-3.879 2.398-.004.11-.015.317-.027.582.336.137.644.266.957.387 1.965.758 3.773 1.781 5.289 3.254 1.668 1.625 2.805 3.586 3.215 5.883.578 3.226.258 6.394-1.012 9.422-.934 2.226-2.559 3.867-4.637 5.078-1.914 1.113-3.98 1.71-6.152 2.047-2.04.312-4.086.363-6.145.363-6.296-.004-12.593 0-18.89 0h-1.05v-1.93c.25-.105.472-.215.706-.289 1.852-.59 2.637-1.969 2.762-3.8.062-.872.07-1.743.07-2.618.004-11.473.004-22.945-.012-34.418a17.5 17.5 0 0 0-.207-2.597c-.242-1.583-1.101-2.391-2.683-2.641-.946-.152-1.89-.297-2.88-.453" style="stroke:none;fill-rule:nonzero;fill:#ed097b;fill-opacity:1"/><path d="m59.434 31.043.015.012-.199-.2.012.008c-.047-.062-.094-.129-.14-.191-1.9-2.219-4.216-3.516-7.224-3.383-1.77.078-3.543.074-5.312.106-.336-.102-.461.007-.356.355l.036 1.188c-.032.62-.086 1.242-.086 1.863 0 5.953.008 11.91.015 17.863v.883h.52c.11.004.222.004.336.008 1.62.008 3.238.011 4.86.02 1.769.007 3.472-.278 5.136-.915 1.457-.562 2.488-1.586 3.242-2.879.781-1.343 1.113-2.879 1.176-4.402.09-2.219.176-4.457-.336-6.656-.29-1.258-.703-2.446-1.488-3.485q-.104-.1-.207-.195M45.633 50.168V26.805c.265-.016.504-.04.742-.043 1.902-.012 3.805.015 5.703-.04 2.043-.054 3.863.528 5.496 1.727 1.875 1.38 3.336 3.086 3.969 5.371.254.922.437 1.887.48 2.84.079 1.649.094 3.305.008 4.953-.097 1.953-.605 3.801-1.832 5.387-1.312 1.7-3.125 2.531-5.164 2.91-2.492.461-5.008.461-7.531.266-.586-.043-1.176-.008-1.871-.008" style="stroke:none;fill-rule:nonzero;fill:#fbecf6;fill-opacity:1"/><path d="m58.867 9.527.02.016q-.095-.192-.184-.383c-.61-.867-1.422-1.465-2.375-1.898-1.328-.606-2.742-.848-4.176-.887-1.746-.043-3.492.027-5.238.063-.234.003-.469.07-.68.105V23.91h.793c2.016.121 4.028.031 6.028-.176.78-.078 1.554-.316 2.304-.562 1.141-.371 2.02-1.14 2.84-1.996.688-.719 1.133-1.602 1.371-2.492.285-1.079.551-2.207.442-3.368-.059-.617.011-1.246-.02-1.867-.027-.578-.02-1.191-.207-1.726-.23-.676-.164-1.473-.754-2.016zM45.641 24.461V5.996c.39-.055.754-.137 1.117-.14 1.992-.024 3.988-.086 5.976-.016 1.461.05 2.891.394 4.203 1.078 1.989 1.035 3.133 2.727 3.547 4.875.45 2.316.364 4.648-.308 6.918-.848 2.867-2.813 4.629-5.676 5.363-.926.238-1.898.352-2.852.387-1.836.062-3.675.027-5.511.031-.149 0-.297-.015-.496-.031" style="stroke:none;fill-rule:nonzero;fill:#fbe8f4;fill-opacity:1"/><path d="M58.848 30.703c-.989-.633-1.965-1.297-3.137-1.558-.57-.13-1.152-.301-1.73-.301-2.227-.004-4.458.054-6.688.086q-.105.128-.211.25c-.027.273-.074.547-.074.82-.008 2.367-.004 4.73-.008 7.098 0 .343-.027.683-.04 1.023-.433.211-.237.606-.237.91-.016 3.145-.008 6.285-.012 9.43 0 .2-.027.402-.043.602-.047 0-.09-.004-.137-.004V30.027c0-.25.024-.504-.015-.746-.024-.125-.164-.23-.25-.343l-.036-1.188q.179-.18.356-.355c1.77-.032 3.543-.028 5.312-.106 3.008-.133 5.325 1.164 7.223 3.383q-.134.013-.273.031" style="stroke:none;fill-rule:nonzero;fill:#2b396a;fill-opacity:1"/><path d="M46.266 28.938c.086.113.226.218.25.343.039.242.015.496.015.746V49.06c.047 0 .09.004.137.004.016-.2.043-.403.043-.602.004-3.145-.004-6.285.012-9.43 0-.304-.196-.699.238-.91q.019 5.625.043 11.25l-.29.176h-.519v-.883q-.014-8.931-.015-17.863c0-.621.054-1.242.086-1.863M46.586 27.395q-.177.174-.356.355c-.105-.348.02-.457.356-.355" style="stroke:none;fill-rule:nonzero;fill:#1e254d;fill-opacity:1"/><path d="M58.848 30.703q.139-.019.273-.031c.047.062.094.129.14.191q-.204-.076-.413-.16" style="stroke:none;fill-rule:nonzero;fill:#6e4183;fill-opacity:1"/><path d="m46.715 49.547.289-.176.047.184c-.114-.004-.227-.004-.336-.008" style="stroke:none;fill-rule:nonzero;fill:#2b396a;fill-opacity:1"/><path d="m59.45 31.055-.2-.2zM59.64 31.238q-.103-.1-.206-.195c.07.062.136.129.207.195" style="stroke:none;fill-rule:nonzero;fill:#6e4183;fill-opacity:1"/><path d="M47.094 8.414c-.012.746-.032 1.492-.032 2.238-.003 4.078 0 8.157-.003 12.235 0 .34-.02.683-.032 1.023h-.793V6.543c.211-.035.446-.102.68-.106 1.746-.035 3.492-.105 5.238-.062 1.434.04 2.848.281 4.176.887.953.433 1.766 1.031 2.375 1.898a5 5 0 0 0-.016.25c-1.914-1.18-4.054-1.496-6.234-1.535-1.668-.027-3.344.09-5.012.156-.117.004-.226.13-.34.2-.003.062-.003.12-.007.183" style="stroke:none;fill-rule:nonzero;fill:#243363;fill-opacity:1"/><path d="M58.688 9.41q.004-.128.015-.25c.059.13.121.254.184.383-.067-.043-.133-.09-.2-.133M59.031 9.707" style="stroke:none;fill-rule:nonzero;fill:#6e4183;fill-opacity:1"/><path d="M47.082 29.18" style="stroke:none;fill-rule:nonzero;fill:#fbecf6;fill-opacity:1"/><path d="M47.094 8.414c.004-.062.004-.121.008-.184l.128.094z" style="stroke:none;fill-rule:nonzero;fill:#fbe8f4;fill-opacity:1"/></svg>