<svg xmlns="http://www.w3.org/2000/svg" width="176pt" height="71.88" viewBox="0 0 176 53.91"><defs><clipPath id="a"><path d="M0 0h103v53.91H0Zm0 0"/></clipPath></defs><path d="m131.043 52.023 14.695-16.515-14.695-16.512h15.504l7.281 8.02 7.008-8.02H175.8l-14.625 16.445L176 52.023h-15.566l-7.215-8.09-7.145 8.09zM131.043 11.594h-16.645v7.402h16.645v11.156h-16.645v10.243h16.645v11.628h-28.879V-.004h28.879z" style="stroke:none;fill-rule:nonzero;fill:#929393;fill-opacity:1"/><g clip-path="url(#a)"><path d="M82.59 44.102c-4.492 0-7.281-4.184-7.281-8.555 0-4.668 2.425-9.16 7.28-9.16 5.032 0 7.04 4.492 7.04 9.16 0 4.43-2.125 8.555-7.04 8.555M39.305 30.309c.77-3.305 3.332-5.465 6.53-5.465 3.52 0 5.954 2.093 6.595 5.465zM89.985-.004V21.29h-.137c-2.696-3.102-6.067-4.18-9.977-4.18-8.008 0-14.039 5.446-16.156 12.645-2.418-7.934-8.645-12.793-17.88-12.793-7.5 0-13.42 3.367-16.515 8.852v-6.817h-15.5v-7.402h16.918V-.004H0v52.027h13.82v-21.87h13.774a20.8 20.8 0 0 0-.63 5.14c0 10.855 8.29 18.469 18.872 18.469 8.894 0 14.758-4.176 17.863-11.793H51.855c-1.601 2.289-2.82 2.968-6.02 2.968-3.714 0-6.917-3.242-6.917-7.082h24.117c1.043 8.622 7.758 16.055 16.973 16.055 3.976 0 7.613-1.957 9.84-5.258h.136v3.368h12.18V-.004z" style="stroke:none;fill-rule:nonzero;fill:#5d268f;fill-opacity:1"/></g></svg>