<?xml version="1.0" encoding="UTF-8"?>
<svg xmlns="http://www.w3.org/2000/svg" xmlns:xlink="http://www.w3.org/1999/xlink" width="133.65pt" height="59pt" viewBox="0 0 133.65 59" version="1.1">
<defs>
<clipPath id="clip1">
  <path d="M 115 30 L 133.648438 30 L 133.648438 59 L 115 59 Z M 115 30 "/>
</clipPath>
</defs>
<g id="surface1">
<path style=" stroke:none;fill-rule:nonzero;fill:rgb(93.823242%,32.594299%,10.630798%);fill-opacity:1;" d="M 13.988281 3.324219 C 12.976562 3.800781 12.027344 4.476562 11.394531 5.414062 C 10.621094 6.5 10.332031 7.855469 10.332031 9.167969 C 10.371094 11.046875 10.882812 12.886719 11.570312 14.621094 C 12.367188 16.65625 13.402344 18.585938 14.523438 20.457031 C 16.40625 23.558594 18.539062 26.5 20.796875 29.335938 C 22.917969 32.015625 25.160156 34.59375 27.472656 37.105469 C 28.101562 37.722656 28.632812 38.441406 29.316406 39 C 29.363281 38.425781 29.316406 37.851562 29.316406 37.277344 C 29.140625 32.074219 28.738281 26.871094 27.949219 21.722656 C 27.332031 17.835938 26.535156 13.945312 25.128906 10.257812 C 24.441406 8.496094 23.609375 6.769531 22.4375 5.277344 C 21.441406 4.03125 20.128906 2.9375 18.53125 2.597656 C 16.988281 2.238281 15.386719 2.652344 13.988281 3.324219 Z M 16.824219 0 L 17.953125 0 C 18.816406 0.078125 19.671875 0.289062 20.457031 0.667969 C 22.476562 1.628906 23.960938 3.417969 25.085938 5.308594 C 26.875 8.359375 27.941406 11.765625 28.785156 15.179688 C 29.90625 19.847656 30.550781 24.621094 30.988281 29.398438 C 31.425781 34.429688 31.652344 39.480469 31.605469 44.527344 C 30.480469 43.457031 29.40625 42.339844 28.335938 41.21875 C 24.351562 37.011719 20.546875 32.617188 17.089844 27.960938 C 14.714844 24.738281 12.488281 21.386719 10.703125 17.792969 C 9.574219 15.476562 8.605469 13.046875 8.210938 10.484375 C 7.921875 8.535156 8.011719 6.445312 8.949219 4.675781 C 9.792969 3.035156 11.308594 1.84375 12.964844 1.097656 C 14.1875 0.535156 15.480469 0.109375 16.824219 0 "/>
<path style=" stroke:none;fill-rule:nonzero;fill:rgb(93.823242%,32.594299%,10.630798%);fill-opacity:1;" d="M 53.863281 21.488281 C 54.519531 21.328125 55.242188 21.367188 55.855469 21.675781 C 56.5625 22.046875 57.144531 22.714844 57.316406 23.507812 C 57.441406 24.105469 57.40625 24.757812 57.113281 25.304688 C 56.777344 25.976562 56.171875 26.492188 55.480469 26.78125 C 54.550781 27.128906 53.433594 26.902344 52.730469 26.199219 C 51.757812 25.308594 51.59375 23.710938 52.320312 22.621094 C 52.6875 22.089844 53.226562 21.652344 53.863281 21.488281 "/>
<path style=" stroke:none;fill-rule:nonzero;fill:rgb(93.823242%,32.594299%,10.630798%);fill-opacity:1;" d="M 43.742188 23.597656 C 45.476562 22.921875 47.359375 22.734375 49.207031 22.75 C 49.207031 23.46875 49.207031 24.191406 49.207031 24.914062 C 47.679688 24.90625 46.042969 25.105469 44.777344 26.035156 C 43.363281 27.050781 42.5625 28.769531 42.46875 30.484375 C 42.386719 31.972656 42.445312 33.464844 42.429688 34.957031 C 44.699219 34.957031 46.964844 34.957031 49.230469 34.957031 C 49.230469 35.53125 49.230469 36.101562 49.230469 36.675781 C 46.964844 36.675781 44.699219 36.675781 42.429688 36.675781 C 42.429688 40.785156 42.429688 44.898438 42.429688 49.007812 C 41.007812 49.007812 39.589844 49.007812 38.167969 49.007812 C 38.167969 43.433594 38.167969 37.859375 38.167969 32.285156 C 38.191406 30.472656 38.554688 28.625 39.515625 27.066406 C 40.484375 25.476562 42.007812 24.25 43.742188 23.597656 "/>
<path style=" stroke:none;fill-rule:nonzero;fill:rgb(93.823242%,32.594299%,10.630798%);fill-opacity:1;" d="M 93.539062 24.464844 C 95.648438 23.089844 98.234375 22.722656 100.707031 22.75 C 100.707031 23.472656 100.707031 24.191406 100.707031 24.914062 C 99.160156 24.90625 97.507812 25.113281 96.230469 26.0625 C 94.78125 27.132812 93.996094 28.933594 93.945312 30.710938 C 93.910156 32.125 93.9375 33.539062 93.933594 34.957031 C 96.207031 34.957031 98.480469 34.957031 100.757812 34.957031 C 100.757812 35.527344 100.757812 36.101562 100.757812 36.675781 C 98.480469 36.675781 96.203125 36.667969 93.929688 36.679688 C 93.933594 40.789062 93.929688 44.898438 93.929688 49.007812 C 92.511719 49.007812 91.089844 49.007812 89.671875 49.007812 C 89.667969 44.199219 89.671875 39.390625 89.667969 34.578125 C 89.6875 32.851562 89.558594 31.089844 90.03125 29.40625 C 90.53125 27.398438 91.800781 25.59375 93.539062 24.464844 "/>
<path style=" stroke:none;fill-rule:nonzero;fill:rgb(93.823242%,32.594299%,10.630798%);fill-opacity:1;" d="M 104.097656 22.796875 C 105.507812 22.796875 106.921875 22.796875 108.332031 22.796875 C 108.335938 28.65625 108.324219 34.515625 108.339844 40.375 C 108.316406 42.089844 108.835938 43.875 110.085938 45.09375 C 111.128906 46.167969 112.648438 46.621094 114.113281 46.699219 C 114.113281 47.417969 114.113281 48.140625 114.113281 48.863281 C 111.980469 48.835938 109.785156 48.390625 107.980469 47.207031 C 106.660156 46.339844 105.578125 45.097656 104.945312 43.652344 C 104.398438 42.433594 104.148438 41.097656 104.097656 39.765625 C 104.097656 34.109375 104.097656 28.453125 104.097656 22.796875 "/>
<path style=" stroke:none;fill-rule:nonzero;fill:rgb(93.823242%,32.594299%,10.630798%);fill-opacity:1;" d="M 52.597656 30.449219 C 54.015625 30.445312 55.4375 30.445312 56.855469 30.449219 C 56.859375 36.601562 56.855469 42.753906 56.855469 48.90625 C 55.4375 48.910156 54.015625 48.90625 52.597656 48.910156 C 52.59375 42.753906 52.597656 36.601562 52.597656 30.449219 "/>
<g clip-path="url(#clip1)" clip-rule="nonzero">
<path style=" stroke:none;fill-rule:nonzero;fill:rgb(93.823242%,32.594299%,10.630798%);fill-opacity:1;" d="M 115.308594 30.472656 C 116.730469 30.472656 118.148438 30.472656 119.570312 30.472656 C 119.570312 33.238281 119.570312 36.003906 119.570312 38.769531 C 119.578125 40.097656 119.492188 41.449219 119.808594 42.753906 C 120.089844 43.988281 120.722656 45.207031 121.789062 45.9375 C 123.328125 47.015625 125.53125 47.023438 127.074219 45.941406 C 128.511719 44.984375 129.304688 43.261719 129.335938 41.558594 C 129.339844 37.863281 129.335938 34.167969 129.335938 30.472656 C 130.609375 30.46875 131.882812 30.476562 133.152344 30.46875 C 133.320312 30.46875 133.503906 30.449219 133.644531 30.570312 L 133.644531 49.492188 C 133.566406 50.574219 133.488281 51.667969 133.15625 52.710938 C 132.59375 54.625 131.316406 56.316406 129.621094 57.367188 C 127.773438 58.527344 125.554688 58.917969 123.40625 59 L 122.582031 59 C 122.582031 58.269531 122.582031 57.539062 122.582031 56.808594 C 124.171875 56.851562 125.882812 56.613281 127.164062 55.597656 C 128.523438 54.539062 129.265625 52.828125 129.34375 51.128906 C 129.382812 49.890625 129.34375 48.652344 129.363281 47.410156 C 128.40625 48.28125 127.125 48.691406 125.867188 48.894531 C 123.886719 49.175781 121.804688 48.996094 119.976562 48.140625 C 118.625 47.5 117.398438 46.507812 116.660156 45.1875 C 115.722656 43.546875 115.355469 41.636719 115.308594 39.765625 C 115.308594 36.667969 115.308594 33.570312 115.308594 30.472656 "/>
</g>
<path style=" stroke:none;fill-rule:nonzero;fill:rgb(93.823242%,32.594299%,10.630798%);fill-opacity:1;" d="M 66.085938 31.210938 C 67.421875 30.679688 68.878906 30.550781 70.308594 30.546875 C 70.328125 31.160156 70.34375 31.773438 70.335938 32.386719 C 69.714844 32.335938 69.136719 32.589844 68.550781 32.75 C 67.394531 33.109375 66.34375 33.855469 65.683594 34.882812 C 64.972656 35.929688 64.691406 37.214844 64.679688 38.46875 C 64.679688 41.957031 64.679688 45.445312 64.679688 48.933594 C 63.257812 48.933594 61.839844 48.933594 60.417969 48.933594 C 60.417969 45.910156 60.417969 42.886719 60.417969 39.863281 C 60.457031 38.144531 60.835938 36.402344 61.738281 34.921875 C 62.242188 34.066406 62.933594 33.339844 63.683594 32.699219 C 64.402344 32.082031 65.203125 31.550781 66.085938 31.210938 "/>
<path style=" stroke:none;fill-rule:nonzero;fill:rgb(93.823242%,32.594299%,10.630798%);fill-opacity:1;" d="M 76.894531 32.960938 C 75.988281 33.105469 75.199219 33.65625 74.59375 34.328125 C 73.570312 35.519531 73.136719 37.101562 72.964844 38.636719 C 76.160156 38.640625 79.363281 38.664062 82.558594 38.628906 C 82.359375 37.042969 82.046875 35.320312 80.859375 34.152344 C 79.855469 33.101562 78.300781 32.730469 76.894531 32.960938 Z M 70.324219 34.9375 C 71.984375 32.332031 75.058594 30.710938 78.140625 30.808594 C 79.796875 30.875 81.429688 31.378906 82.816406 32.285156 C 84.605469 33.4375 85.886719 35.308594 86.390625 37.371094 C 86.703125 38.535156 86.628906 39.742188 86.605469 40.933594 C 82.042969 40.933594 77.480469 40.933594 72.917969 40.9375 C 73.050781 41.953125 73.253906 42.976562 73.703125 43.90625 C 74.449219 45.449219 75.945312 46.644531 77.660156 46.886719 C 78.789062 47.042969 79.957031 46.988281 81.0625 46.699219 C 82.628906 46.289062 84.035156 45.4375 85.308594 44.457031 C 85.308594 44.894531 85.304688 45.332031 85.3125 45.773438 C 84.171875 46.871094 82.863281 47.839844 81.351562 48.359375 C 79.492188 49.011719 77.441406 49.074219 75.53125 48.597656 C 73.699219 48.121094 72.015625 47.046875 70.855469 45.542969 C 69.820312 44.195312 69.160156 42.558594 68.96875 40.867188 C 68.691406 38.8125 69.195312 36.671875 70.324219 34.9375 "/>
<path style=" stroke:none;fill-rule:nonzero;fill:rgb(93.823242%,32.594299%,10.630798%);fill-opacity:1;" d="M 4.507812 33.796875 C 3.640625 34.171875 2.953125 34.882812 2.515625 35.710938 C 2.085938 36.53125 1.753906 37.433594 1.75 38.375 C 1.734375 39.460938 2.214844 40.511719 2.953125 41.296875 C 3.730469 42.148438 4.722656 42.769531 5.742188 43.292969 C 8.324219 44.558594 11.136719 45.246094 13.945312 45.789062 C 16.816406 46.320312 19.71875 46.660156 22.625 46.882812 C 24.320312 47.003906 26.019531 47.121094 27.71875 47.121094 C 27.199219 46.511719 26.597656 45.980469 26.011719 45.4375 C 24.222656 43.765625 22.367188 42.160156 20.453125 40.632812 C 18.09375 38.761719 15.644531 36.980469 12.996094 35.535156 C 11.464844 34.71875 9.875 33.96875 8.167969 33.601562 C 6.964844 33.347656 5.65625 33.285156 4.507812 33.796875 Z M 4.222656 32.050781 C 5.945312 31.539062 7.789062 31.847656 9.46875 32.371094 C 11.636719 33.066406 13.65625 34.15625 15.589844 35.339844 C 19.789062 37.96875 23.613281 41.15625 27.265625 44.496094 C 28.761719 45.890625 30.253906 47.285156 31.65625 48.777344 C 29.007812 48.789062 26.363281 48.671875 23.722656 48.492188 C 19.058594 48.144531 14.386719 47.585938 9.863281 46.367188 C 7.359375 45.660156 4.839844 44.78125 2.726562 43.226562 C 1.324219 42.195312 0.144531 40.6875 0 38.898438 L 0 37.953125 C 0.117188 36.773438 0.558594 35.644531 1.132812 34.613281 C 1.800781 33.421875 2.894531 32.4375 4.222656 32.050781 "/>
<path style=" stroke:none;fill-rule:nonzero;fill:rgb(96.359253%,53.88031%,6.941223%);fill-opacity:1;" d="M 15.457031 5.5 C 14.378906 5.910156 13.414062 6.730469 13.023438 7.839844 C 12.542969 9.160156 12.726562 10.613281 13.070312 11.949219 C 13.691406 14.265625 14.816406 16.410156 16.027344 18.46875 C 17.828125 21.472656 19.910156 24.300781 22.097656 27.035156 C 23.648438 28.9375 25.214844 30.832031 26.90625 32.613281 C 26.839844 30.675781 26.625 28.742188 26.421875 26.816406 C 25.945312 22.671875 25.289062 18.535156 24.167969 14.511719 C 23.546875 12.347656 22.800781 10.195312 21.636719 8.261719 C 20.910156 7.097656 19.992188 5.96875 18.710938 5.40625 C 17.675781 4.949219 16.472656 5.050781 15.457031 5.5 Z M 13.988281 3.324219 C 15.386719 2.65625 16.988281 2.238281 18.53125 2.597656 C 20.128906 2.9375 21.4375 4.03125 22.4375 5.277344 C 23.609375 6.769531 24.441406 8.496094 25.128906 10.257812 C 26.535156 13.945312 27.332031 17.835938 27.949219 21.722656 C 28.738281 26.871094 29.140625 32.074219 29.316406 37.277344 C 29.316406 37.851562 29.363281 38.425781 29.316406 39 C 28.632812 38.441406 28.101562 37.722656 27.472656 37.105469 C 25.160156 34.59375 22.917969 32.015625 20.796875 29.335938 C 18.539062 26.5 16.40625 23.558594 14.523438 20.457031 C 13.402344 18.585938 12.367188 16.65625 11.570312 14.621094 C 10.882812 12.886719 10.371094 11.046875 10.332031 9.167969 C 10.332031 7.855469 10.621094 6.5 11.394531 5.414062 C 12.027344 4.476562 12.976562 3.800781 13.988281 3.324219 "/>
<path style=" stroke:none;fill-rule:nonzero;fill:rgb(96.359253%,53.88031%,6.941223%);fill-opacity:1;" d="M 5.496094 35.402344 C 4.917969 35.628906 4.4375 36.078125 4.132812 36.617188 C 3.703125 37.390625 3.472656 38.332031 3.75 39.195312 C 4.027344 40.050781 4.707031 40.707031 5.425781 41.210938 C 6.773438 42.125 8.324219 42.675781 9.875 43.132812 C 11.855469 43.703125 13.886719 44.082031 15.921875 44.382812 C 18.359375 44.722656 20.8125 44.996094 23.273438 45.074219 C 23.019531 44.773438 22.710938 44.527344 22.414062 44.269531 C 21.199219 43.21875 19.957031 42.195312 18.675781 41.21875 C 16.34375 39.441406 13.925781 37.742188 11.289062 36.449219 C 10.230469 35.941406 9.128906 35.5 7.976562 35.277344 C 7.15625 35.125 6.285156 35.089844 5.496094 35.402344 Z M 4.507812 33.796875 C 5.65625 33.285156 6.964844 33.347656 8.167969 33.601562 C 9.875 33.96875 11.460938 34.71875 12.992188 35.53125 C 15.644531 36.976562 18.09375 38.757812 20.453125 40.628906 C 22.367188 42.160156 24.222656 43.761719 26.011719 45.4375 C 26.597656 45.976562 27.199219 46.511719 27.71875 47.117188 C 26.019531 47.121094 24.320312 47.003906 22.625 46.882812 C 19.71875 46.65625 16.816406 46.320312 13.945312 45.785156 C 11.136719 45.242188 8.324219 44.558594 5.742188 43.289062 C 4.722656 42.769531 3.730469 42.148438 2.953125 41.292969 C 2.214844 40.511719 1.734375 39.457031 1.75 38.371094 C 1.753906 37.433594 2.085938 36.53125 2.515625 35.710938 C 2.953125 34.882812 3.640625 34.171875 4.507812 33.796875 "/>
<path style=" stroke:none;fill-rule:nonzero;fill:rgb(98.069763%,80.316162%,3.157043%);fill-opacity:1;" d="M 15.457031 5.5 C 16.472656 5.050781 17.675781 4.949219 18.710938 5.40625 C 19.992188 5.96875 20.914062 7.097656 21.636719 8.261719 C 22.800781 10.195312 23.546875 12.347656 24.167969 14.511719 C 25.289062 18.53125 25.945312 22.667969 26.421875 26.8125 C 26.625 28.742188 26.84375 30.675781 26.90625 32.613281 C 25.214844 30.832031 23.648438 28.9375 22.097656 27.03125 C 19.910156 24.300781 17.828125 21.472656 16.027344 18.46875 C 14.816406 16.410156 13.691406 14.265625 13.070312 11.949219 C 12.726562 10.613281 12.542969 9.160156 13.023438 7.835938 C 13.414062 6.730469 14.378906 5.910156 15.457031 5.5 "/>
<path style=" stroke:none;fill-rule:nonzero;fill:rgb(98.069763%,80.316162%,3.157043%);fill-opacity:1;" d="M 5.496094 35.402344 C 6.285156 35.089844 7.160156 35.125 7.976562 35.277344 C 9.132812 35.5 10.230469 35.941406 11.289062 36.453125 C 13.925781 37.746094 16.347656 39.441406 18.679688 41.21875 C 19.957031 42.195312 21.199219 43.21875 22.414062 44.269531 C 22.710938 44.53125 23.019531 44.773438 23.273438 45.074219 C 20.8125 44.996094 18.359375 44.722656 15.921875 44.382812 C 13.886719 44.082031 11.855469 43.707031 9.875 43.132812 C 8.324219 42.675781 6.773438 42.125 5.425781 41.214844 C 4.710938 40.707031 4.03125 40.050781 3.75 39.195312 C 3.472656 38.332031 3.703125 37.390625 4.132812 36.617188 C 4.4375 36.074219 4.917969 35.628906 5.496094 35.402344 "/>
</g>
</svg>
