<svg xmlns="http://www.w3.org/2000/svg" width="206.52" height="59pt" viewBox="0 0 154.89 59"><defs><clipPath id="a"><path d="M0 20h154.89v39H0Zm0 0"/></clipPath></defs><path d="m117.953 25.805-11.89-1.836 10.878-5.5a.36.36 0 0 0 .18-.43.35.35 0 0 0-.394-.242l-12.082 1.879 8.675-8.586a.357.357 0 0 0-.414-.57l-10.828 5.554 5.457-10.785a.355.355 0 0 0-.113-.45.347.347 0 0 0-.461.04l-8.566 8.664 2.011-12.059a.355.355 0 0 0-.242-.398.36.36 0 0 0-.43.176l-5.601 10.945L92.285.301a.358.358 0 0 0-.707 0l-1.867 11.898-5.55-10.988a.354.354 0 0 0-.43-.18.36.36 0 0 0-.243.399l2.004 12.215-8.68-8.88a.359.359 0 0 0-.574.414l5.649 11.024-11.059-5.719a.354.354 0 0 0-.457.106.36.36 0 0 0 .04.465l8.882 8.672-12.29-1.997a.36.36 0 0 0-.398.243.36.36 0 0 0 .18.43l11.047 5.542-12.184 1.86a.353.353 0 0 0-.3.379.354.354 0 0 0 .355.328h52.195c.188 0 .34-.14.356-.328a.353.353 0 0 0-.3-.38" style="stroke:none;fill-rule:nonzero;fill:#f68c15;fill-opacity:1"/><g clip-path="url(#a)"><path d="M38.77 20.055h-6.317a.357.357 0 0 0-.36.363v29.543a.36.36 0 0 0 .36.355h6.317a.362.362 0 0 0 .355-.355V20.418a.37.37 0 0 0-.105-.258.36.36 0 0 0-.25-.105m-10.028 0h-6.316a.4.4 0 0 0-.254.105.36.36 0 0 0-.102.258v29.543c0 .09.035.184.102.25.07.066.164.105.254.105h6.316a.362.362 0 0 0 .36-.355V20.418a.35.35 0 0 0-.106-.258.36.36 0 0 0-.254-.105m23.469 8.77c-3.61-.009-6.297 1.476-8.04 3.62-1.745 2.145-2.577 4.93-2.577 7.582-.004 3.25 1.011 5.946 2.945 7.817 1.93 1.867 4.742 2.886 8.258 2.883 2.773 0 5.351-.414 7.492-1.309a.36.36 0 0 0 .215-.398l-.832-4.278a.36.36 0 0 0-.168-.242.36.36 0 0 0-.297-.027c-1.672.566-3.367.847-5.496.847-2.723-.015-4.938-1.058-5.328-3.152h12.676c.171 0 .32-.121.351-.29.094-.476.223-1.444.223-2.554 0-2.574-.637-5.183-2.14-7.176-1.505-1.992-3.907-3.332-7.282-3.324m-3.867 8.313c.285-1.532 1.297-3.41 3.539-3.395 2.379 0 3.047 1.93 3.156 3.395Zm36.687-7.852h-5.484a.36.36 0 0 0-.356.328l-.129 1.57c-1.128-1.413-2.882-2.367-5.367-2.359a9.01 9.01 0 0 0-6.765 3.016c-1.743 1.933-2.817 4.707-2.817 8.062 0 2.98.918 5.54 2.504 7.364 1.586 1.816 3.848 2.886 6.461 2.882 2.09.004 3.926-.753 5.207-2.093v.406c-.039 3.617-2.05 4.957-4.922 5-2.332.004-4.492-.77-5.722-1.488a.37.37 0 0 0-.32-.02.36.36 0 0 0-.208.238l-1.242 4.82a.35.35 0 0 0 .172.403C67.961 58.457 71.555 59 74.301 59c3.039 0 5.379-.586 7.691-2.582 2.438-2.14 3.238-5.469 3.238-9.414V35.707c0-3.027.079-4.723.157-6.043a.34.34 0 0 0-.098-.266.35.35 0 0 0-.258-.113m-6.836 11.613c0 .524-.05 1.16-.187 1.598-.383 1.32-1.52 2.281-3.028 2.285-2.355-.008-3.734-2.101-3.753-5.043.02-3.597 1.714-5.418 3.796-5.422 1.575.012 2.622.977 3.063 2.528.066.332.11.715.11 1.062Zm61.047-6.699c-.37-1.258-.937-2.297-1.676-3.113-1.37-1.531-3.304-2.266-5.464-2.262-3.043 0-5.055 1.512-6.118 2.824l-.21-2.043a.36.36 0 0 0-.356-.32h-5.488a.38.38 0 0 0-.258.11.37.37 0 0 0-.098.265c.086 1.82.168 3.934.168 6.461v13.84a.367.367 0 0 0 .36.355h6.312a.367.367 0 0 0 .36-.355V38.242c-.004-.566.046-1.12.18-1.449.437-1.082 1.355-2.145 2.905-2.145 2.036.016 2.801 1.473 2.844 4.047v11.266c0 .09.035.184.102.25s.16.105.254.105h6.32c.094 0 .187-.039.254-.105a.38.38 0 0 0 .105-.25V37.953c0-1.258-.136-2.387-.39-3.387ZM94.91 28.512h-6.316a.35.35 0 0 0-.254.105.35.35 0 0 0-.106.25v21.07c0 .094.04.188.106.254.066.067.16.106.254.106h6.316c.094 0 .188-.04.254-.106a.36.36 0 0 0 .102-.254v-21.07a.35.35 0 0 0-.102-.25.35.35 0 0 0-.254-.105m59.883.879a.36.36 0 0 0-.254-.106h-4.168v-5.164a.36.36 0 0 0-.14-.289.35.35 0 0 0-.31-.059l-6.19 1.704a.355.355 0 0 0-.262.343v3.465h-2.727a.362.362 0 0 0-.36.355v4.395c0 .336.106.512.106.512a.36.36 0 0 0 .254.101h2.727v7.957c0 2.907.582 4.958 1.836 6.27 1.129 1.125 2.922 1.852 5.035 1.855 1.785-.003 3.336-.242 4.2-.562a.36.36 0 0 0 .237-.336l-.047-4.781a.36.36 0 0 0-.136-.278c-.082-.066-.196-.093-.297-.066-.563.121-.93.156-1.79.156-.87-.008-1.327-.234-1.648-.703-.324-.48-.488-1.312-.484-2.512v-7h4.164a.351.351 0 0 0 .355-.355v-4.652a.36.36 0 0 0-.101-.25M116.73 44.85v-7.367c0-2.527-.539-4.886-1.992-6.632-1.453-1.754-3.808-2.825-7.261-2.82-3.774 0-6.61 1.097-8.075 1.948a.36.36 0 0 0-.168.407l1.164 4.172c.032.109.11.195.215.238a.36.36 0 0 0 .32-.027c1.262-.778 3.434-1.497 5.422-1.493 2.887.047 3.27 1.282 3.336 2.262-3.476.043-6.39.691-8.492 2.027-2.172 1.375-3.441 3.54-3.433 6.383.007 3.524 2.613 6.813 6.93 6.82h.003c2.266 0 4.29-.777 5.692-2.257l.261 1.488a.36.36 0 0 0 .356.297h5.699c.11 0 .211-.05.281-.133.067-.086.09-.2.067-.305-.243-1.101-.328-3.035-.325-5.007m-6.824-2.29c0 .348-.043.692-.117.997-.352 1.109-1.566 2.058-2.93 2.054-1.293-.035-2.117-.617-2.144-2.054.012-1.067.523-1.704 1.5-2.18.902-.422 2.2-.625 3.691-.652Zm-90.941-5.078c0-2.527-.54-4.886-1.992-6.632-1.45-1.754-3.809-2.825-7.262-2.82-3.774 0-6.61 1.097-8.078 1.948a.36.36 0 0 0-.164.407l1.164 4.172c.031.109.11.195.215.238a.35.35 0 0 0 .316-.027c1.266-.778 3.438-1.497 5.426-1.493 2.887.047 3.27 1.282 3.336 2.262-3.477.043-6.39.691-8.492 2.027C1.262 38.941-.008 41.106 0 43.95c.008 3.524 2.613 6.813 6.93 6.82h.008c2.261 0 4.28-.777 5.687-2.257L12.887 50a.36.36 0 0 0 .355.297h5.7c.109 0 .21-.05.28-.133a.37.37 0 0 0 .067-.305c-.242-1.101-.324-3.035-.324-5.007Zm-6.824 5.078c0 .348-.043.692-.118.997-.355 1.109-1.566 2.058-2.933 2.054-1.29-.035-2.113-.617-2.14-2.054.01-1.067.523-1.704 1.5-2.18.902-.422 2.198-.625 3.69-.652z" style="stroke:none;fill-rule:nonzero;fill:#2d65b1;fill-opacity:1"/></g><path d="M103.36 26.54c.007-.142-.06-.231-.157-.243l-5.086-.785 4.656-2.356a.19.19 0 0 0 .094-.222.195.195 0 0 0-.207-.13l-5.172.81 3.715-3.68a.185.185 0 0 0 .02-.243.18.18 0 0 0-.235-.054l-4.64 2.379 2.336-4.618a.18.18 0 0 0-.059-.234.18.18 0 0 0-.238.02l-3.668 3.707.863-5.16a.186.186 0 0 0-.125-.208.18.18 0 0 0-.227.094l-2.398 4.684-.789-5.094a.19.19 0 0 0-.188-.16.19.19 0 0 0-.183.16l-.797 5.094-2.375-4.707a.194.194 0 0 0-.227-.094.195.195 0 0 0-.128.207l.859 5.227-3.715-3.801a.184.184 0 0 0-.238-.02.18.18 0 0 0-.059.235l2.414 4.722-4.734-2.449a.19.19 0 0 0-.238.055.194.194 0 0 0 .02.242l3.804 3.715-5.262-.852a.18.18 0 0 0-.207.125.19.19 0 0 0 .094.223l4.726 2.371-5.21.797c-.098.012-.169.101-.16.242z" style="stroke:none;fill-rule:nonzero;fill:#f8e90a;fill-opacity:1"/></svg>