<?xml version="1.0" encoding="UTF-8"?>
<svg xmlns="http://www.w3.org/2000/svg" xmlns:xlink="http://www.w3.org/1999/xlink" width="119.89pt" height="59pt" viewBox="0 0 119.89 59" version="1.1">
<defs>
<clipPath id="clip1">
  <path d="M 105 39 L 119.890625 39 L 119.890625 46 L 105 46 Z M 105 39 "/>
</clipPath>
<clipPath id="clip2">
  <path d="M 105 31 L 119.890625 31 L 119.890625 37 L 105 37 Z M 105 31 "/>
</clipPath>
<clipPath id="clip3">
  <path d="M 116 48 L 119.890625 48 L 119.890625 54 L 116 54 Z M 116 48 "/>
</clipPath>
</defs>
<g id="surface1">
<path style=" stroke:none;fill-rule:nonzero;fill:rgb(13.729858%,12.159729%,12.548828%);fill-opacity:1;" d="M 76.71875 42.019531 C 77.464844 42.804688 78.417969 43.15625 79.386719 43.476562 C 79.496094 43.515625 79.648438 43.496094 79.757812 43.449219 C 80.71875 43.046875 81.675781 42.632812 82.632812 42.222656 C 82.613281 42.15625 82.589844 42.085938 82.566406 42.019531 C 80.617188 42.019531 78.667969 42.019531 76.71875 42.019531 Z M 79.40625 37.53125 C 80.628906 37.53125 81.847656 37.53125 83.070312 37.527344 C 83.347656 37.527344 83.671875 37.59375 83.703125 37.148438 C 83.734375 36.65625 83.417969 36.65625 83.078125 36.65625 C 80.570312 36.65625 78.0625 36.65625 75.554688 36.652344 C 75.207031 36.652344 74.898438 36.660156 74.921875 37.140625 C 74.941406 37.585938 75.269531 37.527344 75.546875 37.527344 C 76.835938 37.53125 78.121094 37.53125 79.40625 37.53125 Z M 79.40625 34.910156 C 78.117188 34.910156 76.828125 34.910156 75.542969 34.910156 C 75.25 34.910156 74.945312 34.867188 74.921875 35.308594 C 74.898438 35.789062 75.203125 35.800781 75.550781 35.800781 C 78.0625 35.796875 80.574219 35.800781 83.085938 35.796875 C 83.371094 35.796875 83.679688 35.839844 83.707031 35.394531 C 83.730469 34.902344 83.414062 34.910156 83.074219 34.910156 C 81.851562 34.914062 80.628906 34.910156 79.40625 34.910156 Z M 83.601562 39.242188 C 83.820312 38.628906 83.699219 38.359375 83.039062 38.367188 C 81.015625 38.390625 78.992188 38.375 76.96875 38.375 C 76.421875 38.375 75.875 38.347656 75.332031 38.394531 C 75.1875 38.40625 74.980469 38.625 74.941406 38.785156 C 74.871094 39.058594 74.992188 39.289062 75.34375 39.28125 C 75.535156 39.273438 75.730469 39.285156 75.921875 39.285156 C 78.171875 39.285156 80.417969 39.285156 82.667969 39.28125 C 82.980469 39.28125 83.292969 39.257812 83.601562 39.242188 Z M 86.371094 44.753906 C 85.863281 45.949219 85.855469 45.976562 84.765625 45.765625 C 83.15625 45.453125 81.554688 45.074219 79.945312 44.761719 C 79.589844 44.691406 79.1875 44.71875 78.828125 44.800781 C 77.195312 45.160156 75.574219 45.570312 73.9375 45.925781 C 73.117188 46.105469 73.109375 46.074219 72.699219 45.128906 C 74.359375 44.792969 76.011719 44.464844 77.851562 44.09375 C 76.898438 43.476562 76.125 42.976562 75.289062 42.433594 C 74.667969 42.839844 74.015625 43.292969 73.339844 43.710938 C 72.648438 44.132812 72.636719 44.113281 71.988281 43.277344 C 73.460938 42.488281 74.832031 41.578125 76.023438 40.191406 C 75.484375 40.160156 75.128906 39.984375 74.832031 40.492188 C 74.734375 40.660156 74.28125 40.617188 73.921875 40.6875 C 73.921875 38.449219 73.921875 36.335938 73.921875 34.054688 C 74.460938 34.054688 74.992188 34.054688 75.523438 34.054688 C 76.105469 34.054688 76.6875 34.015625 77.265625 34.066406 C 77.9375 34.125 78.203125 33.824219 78.226562 33.121094 C 76.28125 33.121094 74.355469 33.121094 72.449219 33.121094 C 72.25 32.199219 72.25 32.167969 72.96875 32.167969 C 77.191406 32.15625 81.414062 32.167969 85.636719 32.15625 C 86.324219 32.152344 86.378906 32.480469 86.1875 33.121094 C 85.644531 33.121094 85.070312 33.121094 84.5 33.121094 C 83.113281 33.121094 81.726562 33.117188 80.34375 33.121094 C 79.585938 33.128906 79.585938 33.136719 79.34375 34.042969 C 81.121094 34.042969 82.875 34.042969 84.699219 34.042969 C 84.699219 36.210938 84.699219 38.289062 84.699219 40.429688 C 84.484375 40.453125 84.210938 40.570312 84.070312 40.480469 C 83.183594 39.910156 82.210938 40.191406 81.277344 40.152344 C 80.28125 40.109375 79.277344 40.179688 78.28125 40.128906 C 77.625 40.09375 77.160156 40.273438 76.851562 40.976562 C 77.101562 41.007812 77.332031 41.058594 77.5625 41.058594 C 79.6875 41.066406 81.816406 41.054688 83.941406 41.078125 C 84.191406 41.078125 84.570312 41.175781 84.660156 41.347656 C 84.839844 41.691406 84.65625 42.027344 84.304688 42.234375 C 83.371094 42.796875 82.433594 43.355469 81.417969 43.96875 C 83.054688 44.480469 84.730469 44.476562 86.371094 44.753906 "/>
<path style=" stroke:none;fill-rule:nonzero;fill:rgb(13.729858%,12.159729%,12.548828%);fill-opacity:1;" d="M 93.898438 38.753906 C 93.898438 37.445312 93.898438 36.214844 93.898438 34.988281 C 93.019531 34.988281 92.207031 34.988281 91.394531 34.988281 C 91.394531 36.277344 91.394531 37.484375 91.394531 38.753906 C 92.234375 38.753906 93.023438 38.753906 93.898438 38.753906 Z M 91.980469 45.519531 C 92.492188 45.519531 92.808594 45.5 93.121094 45.523438 C 93.6875 45.5625 93.964844 45.324219 93.964844 44.746094 C 93.957031 43.171875 93.960938 41.597656 93.960938 39.945312 C 93.089844 39.945312 92.277344 39.945312 91.355469 39.945312 C 91.328125 42.179688 91.453125 44.457031 90.15625 46.570312 C 89.871094 46.3125 89.621094 46.089844 89.339844 45.835938 C 90.328125 43.96875 90.390625 41.992188 90.296875 39.980469 C 89.984375 39.777344 89.414062 40.003906 89.433594 39.308594 C 89.457031 38.660156 89.976562 38.90625 90.328125 38.664062 C 90.328125 37.152344 90.328125 35.585938 90.328125 33.957031 C 90.839844 33.917969 91.277344 33.886719 91.796875 33.851562 C 91.929688 33.351562 92.070312 32.839844 92.230469 32.25 C 92.554688 32.300781 92.855469 32.347656 93.246094 32.40625 C 93.113281 32.902344 93.003906 33.324219 92.859375 33.851562 C 93.542969 33.851562 94.191406 33.851562 94.894531 33.851562 C 94.929688 34.195312 94.980469 34.441406 94.980469 34.683594 C 94.984375 38.066406 94.988281 41.445312 94.976562 44.828125 C 94.96875 46.273438 93.796875 47.046875 92.46875 46.449219 C 92.25 46.347656 92.179688 45.914062 91.980469 45.519531 "/>
<g clip-path="url(#clip1)" clip-rule="nonzero">
<path style=" stroke:none;fill-rule:nonzero;fill:rgb(13.729858%,12.159729%,12.548828%);fill-opacity:1;" d="M 105.511719 45.839844 C 105.511719 45.535156 105.511719 45.289062 105.511719 44.9375 C 107.660156 44.9375 109.800781 44.9375 112.015625 44.9375 C 112.015625 43.566406 112.015625 42.296875 112.015625 40.898438 C 111.003906 40.898438 110.019531 40.898438 109.035156 40.898438 C 108.457031 40.898438 107.875 40.886719 107.296875 40.898438 C 106.902344 40.902344 106.75 40.667969 106.839844 40.347656 C 106.890625 40.15625 107.105469 39.992188 107.277344 39.867188 C 107.363281 39.804688 107.527344 39.851562 107.65625 39.851562 C 111.035156 39.851562 114.417969 39.851562 117.796875 39.851562 C 118.015625 39.851562 118.234375 39.882812 118.441406 39.898438 C 118.609375 40.878906 118.609375 40.890625 117.75 40.894531 C 116.308594 40.902344 114.867188 40.898438 113.371094 40.898438 C 113.371094 42.261719 113.371094 43.527344 113.371094 44.875 C 115.539062 44.875 117.652344 44.875 119.742188 44.875 C 119.992188 45.847656 119.972656 45.910156 119.226562 45.910156 C 114.785156 45.917969 110.34375 45.910156 105.898438 45.90625 C 105.804688 45.90625 105.710938 45.875 105.511719 45.839844 "/>
</g>
<path style=" stroke:none;fill-rule:nonzero;fill:rgb(13.729858%,12.159729%,12.548828%);fill-opacity:1;" d="M 102.796875 41.871094 C 103.980469 42.265625 103.984375 42.265625 103.898438 43.316406 C 103.84375 43.957031 103.828125 44.609375 103.6875 45.234375 C 103.46875 46.183594 102.867188 46.449219 101.53125 46.304688 C 100.765625 46.222656 100.402344 45.832031 100.386719 44.910156 C 100.355469 43.238281 100.375 41.5625 100.375 39.886719 C 100.371094 39.535156 100.375 39.1875 100.375 38.769531 C 99.542969 38.769531 98.789062 38.769531 97.953125 38.769531 C 97.757812 41.476562 98.128906 44.335938 96.117188 46.769531 C 95.804688 46.421875 95.542969 46.128906 95.238281 45.789062 C 96.722656 44.0625 96.707031 41.96875 96.804688 39.90625 C 96.835938 39.328125 96.839844 38.746094 96.832031 38.167969 C 96.824219 37.761719 96.988281 37.585938 97.402344 37.589844 C 98.527344 37.597656 99.65625 37.613281 100.785156 37.582031 C 101.339844 37.566406 101.507812 37.785156 101.503906 38.316406 C 101.480469 40.152344 101.492188 41.988281 101.496094 43.828125 C 101.496094 44.050781 101.496094 44.277344 101.5 44.503906 C 101.503906 44.824219 101.589844 45.074219 101.972656 45.105469 C 102.382812 45.140625 102.578125 44.914062 102.621094 44.554688 C 102.671875 44.140625 102.667969 43.71875 102.695312 43.300781 C 102.722656 42.855469 102.757812 42.414062 102.796875 41.871094 "/>
<path style=" stroke:none;fill-rule:nonzero;fill:rgb(13.729858%,12.159729%,12.548828%);fill-opacity:1;" d="M 60.296875 37.078125 C 61.304688 36.730469 62.210938 36.398438 63.128906 36.113281 C 63.636719 35.957031 63.84375 35.699219 63.816406 35.144531 C 63.765625 34.1875 63.800781 33.222656 63.800781 32.203125 C 64.203125 32.179688 64.511719 32.164062 64.933594 32.140625 C 64.933594 33.171875 64.933594 34.152344 64.933594 35.410156 C 66.339844 34.507812 67.542969 33.734375 68.824219 32.910156 C 69.023438 33.125 69.25 33.375 69.578125 33.730469 C 68.769531 34.277344 68.042969 34.789062 67.292969 35.265625 C 66.804688 35.574219 66.285156 35.835938 65.773438 36.109375 C 65.039062 36.5 64.683594 37.375 65.078125 38.078125 C 65.222656 38.339844 65.605469 38.585938 65.90625 38.625 C 66.574219 38.707031 67.257812 38.679688 67.929688 38.644531 C 68.570312 38.613281 68.910156 38.21875 69.003906 37.597656 C 69.078125 37.121094 69.140625 36.648438 69.222656 36.070312 C 69.628906 36.214844 69.964844 36.339844 70.371094 36.488281 C 70.257812 37.105469 70.179688 37.675781 70.042969 38.230469 C 69.808594 39.195312 69.28125 39.65625 68.277344 39.714844 C 67.378906 39.765625 66.472656 39.761719 65.574219 39.722656 C 64.378906 39.667969 63.855469 39.09375 63.804688 37.882812 C 63.796875 37.65625 63.804688 37.4375 63.804688 37.105469 C 62.832031 37.460938 61.941406 37.785156 60.96875 38.140625 C 60.765625 37.820312 60.5625 37.503906 60.296875 37.078125 "/>
<path style=" stroke:none;fill-rule:nonzero;fill:rgb(13.729858%,12.159729%,12.548828%);fill-opacity:1;" d="M 56.207031 42.785156 C 56.09375 41.65625 56.09375 41.648438 57.03125 41.648438 C 58.542969 41.640625 60.058594 41.648438 61.570312 41.644531 C 61.886719 41.640625 62.199219 41.613281 62.5625 41.597656 C 62.582031 41.21875 62.601562 40.902344 62.609375 40.589844 C 62.632812 39.625 62.628906 39.625 63.769531 39.824219 C 63.796875 40.375 63.828125 40.941406 63.859375 41.613281 C 65.964844 41.613281 68.039062 41.613281 70.082031 41.613281 C 70.398438 42.691406 70.351562 42.765625 69.378906 42.769531 C 67.574219 42.777344 65.773438 42.773438 63.855469 42.773438 C 63.855469 43.988281 63.855469 45.160156 63.855469 46.300781 C 62.683594 46.609375 62.617188 46.566406 62.613281 45.558594 C 62.605469 44.664062 62.609375 43.769531 62.609375 42.785156 C 60.421875 42.785156 58.34375 42.785156 56.207031 42.785156 "/>
<g clip-path="url(#clip2)" clip-rule="nonzero">
<path style=" stroke:none;fill-rule:nonzero;fill:rgb(13.729858%,12.159729%,12.548828%);fill-opacity:1;" d="M 107.148438 36.601562 C 106.003906 36.675781 105.988281 36.675781 105.996094 35.695312 C 106.019531 33.636719 105.726562 33.988281 107.722656 33.960938 C 109.203125 33.941406 110.679688 33.957031 112.332031 33.957031 C 112.050781 33.402344 111.832031 32.96875 111.5625 32.4375 C 111.855469 32.277344 112.148438 32.117188 112.433594 31.960938 C 113.144531 32.664062 113.449219 33.21875 113.542969 33.992188 C 115.453125 33.992188 117.375 33.992188 119.351562 33.992188 C 119.351562 34.90625 119.351562 35.726562 119.351562 36.597656 C 118.964844 36.597656 118.632812 36.597656 118.25 36.597656 C 118.214844 36.078125 118.179688 35.609375 118.144531 35.09375 C 114.5 35.09375 110.910156 35.09375 107.273438 35.09375 C 107.230469 35.609375 107.191406 36.078125 107.148438 36.601562 "/>
</g>
<path style=" stroke:none;fill-rule:nonzero;fill:rgb(13.729858%,12.159729%,12.548828%);fill-opacity:1;" d="M 59.875 40.09375 C 59.425781 40.09375 59.113281 40.09375 58.691406 40.09375 C 58.691406 38.691406 58.691406 37.324219 58.691406 35.804688 C 57.949219 36.421875 57.34375 36.921875 56.648438 37.496094 C 56.425781 37.101562 56.246094 36.785156 56.023438 36.390625 C 57.726562 35.179688 59.097656 33.710938 60.179688 31.898438 C 60.542969 32.082031 60.84375 32.234375 61.246094 32.4375 C 60.9375 32.894531 60.699219 33.3125 60.398438 33.671875 C 60 34.144531 59.847656 34.644531 59.863281 35.265625 C 59.902344 36.835938 59.875 38.410156 59.875 40.09375 "/>
<path style=" stroke:none;fill-rule:nonzero;fill:rgb(13.729858%,12.159729%,12.548828%);fill-opacity:1;" d="M 99.027344 34.503906 C 100.46875 34.503906 101.90625 34.503906 103.425781 34.503906 C 103.457031 34.941406 103.480469 35.242188 103.507812 35.621094 C 100.824219 35.621094 98.207031 35.621094 95.542969 35.621094 C 95.542969 35.28125 95.542969 34.976562 95.542969 34.527344 C 96.746094 34.527344 97.902344 34.527344 99.054688 34.527344 L 99.027344 34.503906 "/>
<path style=" stroke:none;fill-rule:nonzero;fill:rgb(13.729858%,12.159729%,12.548828%);fill-opacity:1;" d="M 114.472656 36.558594 C 114.789062 36.277344 115.023438 36.070312 115.316406 35.808594 C 116.347656 36.761719 117.34375 37.6875 118.394531 38.660156 C 118.089844 38.941406 117.839844 39.167969 117.539062 39.4375 C 116.519531 38.476562 115.546875 37.566406 114.472656 36.558594 "/>
<path style=" stroke:none;fill-rule:nonzero;fill:rgb(13.729858%,12.159729%,12.548828%);fill-opacity:1;" d="M 110.101562 35.609375 C 110.335938 35.921875 110.519531 36.167969 110.753906 36.484375 C 109.679688 37.292969 108.65625 38.058594 107.539062 38.898438 C 107.300781 38.546875 107.074219 38.222656 106.800781 37.820312 C 107.910156 37.078125 108.945312 36.382812 110.101562 35.609375 "/>
<path style=" stroke:none;fill-rule:nonzero;fill:rgb(13.729858%,12.159729%,12.548828%);fill-opacity:1;" d="M 92.710938 40.847656 C 93.007812 41.679688 93.285156 42.457031 93.589844 43.296875 C 93.300781 43.429688 93.054688 43.546875 92.804688 43.664062 C 92.707031 43.554688 92.613281 43.496094 92.585938 43.417969 C 92.386719 42.878906 92.199219 42.332031 92.011719 41.789062 C 91.785156 41.121094 91.785156 41.117188 92.710938 40.847656 "/>
<path style=" stroke:none;fill-rule:nonzero;fill:rgb(13.729858%,12.159729%,12.548828%);fill-opacity:1;" d="M 99.054688 34.527344 C 98.742188 33.910156 98.433594 33.292969 98.097656 32.628906 C 98.417969 32.484375 98.699219 32.355469 99.050781 32.199219 C 99.390625 32.78125 99.703125 33.320312 100.050781 33.921875 C 99.667969 34.140625 99.347656 34.324219 99.027344 34.503906 L 99.054688 34.527344 "/>
<path style=" stroke:none;fill-rule:nonzero;fill:rgb(13.729858%,12.159729%,12.548828%);fill-opacity:1;" d="M 91.804688 36.089844 C 92.65625 35.675781 92.660156 35.671875 92.945312 36.308594 C 93.0625 36.574219 93.164062 36.84375 93.261719 37.109375 C 93.523438 37.832031 93.519531 37.832031 92.589844 38.058594 C 92.339844 37.429688 92.085938 36.789062 91.804688 36.089844 "/>
<path style=" stroke:none;fill-rule:nonzero;fill:rgb(6.266785%,5.734253%,5.047607%);fill-opacity:1;" d="M 58.714844 51.785156 C 58.566406 52.550781 58.085938 53.113281 57.226562 53.113281 C 56.125 53.113281 55.59375 52.160156 55.59375 50.957031 C 55.59375 49.792969 56.136719 48.753906 57.257812 48.753906 C 58.164062 48.753906 58.617188 49.386719 58.710938 50.09375 L 58.046875 50.09375 C 57.957031 49.71875 57.742188 49.386719 57.234375 49.386719 C 56.550781 49.386719 56.28125 50.125 56.28125 50.925781 C 56.28125 51.683594 56.523438 52.480469 57.253906 52.480469 C 57.769531 52.480469 57.957031 52.089844 58.046875 51.785156 L 58.714844 51.785156 "/>
<path style=" stroke:none;fill-rule:nonzero;fill:rgb(6.266785%,5.734253%,5.047607%);fill-opacity:1;" d="M 59.335938 48.816406 L 60 48.816406 L 60 50.507812 L 61.566406 50.507812 L 61.566406 48.816406 L 62.230469 48.816406 L 62.230469 53.058594 L 61.566406 53.058594 L 61.566406 51.167969 L 60 51.167969 L 60 53.058594 L 59.335938 53.058594 L 59.335938 48.816406 "/>
<path style=" stroke:none;fill-rule:nonzero;fill:rgb(6.266785%,5.734253%,5.047607%);fill-opacity:1;" d="M 63.789062 48.816406 L 63.789062 53.058594 L 63.125 53.058594 L 63.125 48.816406 L 63.789062 48.816406 "/>
<path style=" stroke:none;fill-rule:nonzero;fill:rgb(6.266785%,5.734253%,5.047607%);fill-opacity:1;" d="M 64.675781 53.058594 L 64.675781 48.816406 L 65.511719 48.816406 C 65.976562 49.78125 66.894531 51.632812 67.066406 52.09375 L 67.078125 52.09375 C 67.039062 51.617188 67.039062 50.90625 67.039062 50.207031 L 67.039062 48.816406 L 67.648438 48.816406 L 67.648438 53.058594 L 66.855469 53.058594 C 66.445312 52.199219 65.457031 50.121094 65.265625 49.636719 L 65.253906 49.636719 C 65.28125 50.046875 65.285156 50.863281 65.285156 51.625 L 65.285156 53.058594 L 64.675781 53.058594 "/>
<path style=" stroke:none;fill-rule:nonzero;fill:rgb(6.266785%,5.734253%,5.047607%);fill-opacity:1;" d="M 70.3125 51.316406 C 70.03125 50.347656 69.863281 49.769531 69.78125 49.40625 L 69.773438 49.40625 C 69.6875 49.804688 69.5 50.488281 69.273438 51.316406 Z M 69.128906 51.976562 L 68.816406 53.058594 L 68.160156 53.058594 L 69.382812 48.816406 L 70.214844 48.816406 L 71.488281 53.058594 L 70.789062 53.058594 L 70.460938 51.976562 L 69.128906 51.976562 "/>
<path style=" stroke:none;fill-rule:nonzero;fill:rgb(6.266785%,5.734253%,5.047607%);fill-opacity:1;" d="M 75.617188 51.175781 L 73.902344 51.175781 L 73.902344 52.398438 L 75.792969 52.398438 L 75.714844 53.058594 L 73.257812 53.058594 L 73.257812 48.816406 L 75.695312 48.816406 L 75.695312 49.472656 L 73.902344 49.472656 L 73.902344 50.515625 L 75.617188 50.515625 L 75.617188 51.175781 "/>
<path style=" stroke:none;fill-rule:nonzero;fill:rgb(6.266785%,5.734253%,5.047607%);fill-opacity:1;" d="M 78.519531 53.058594 L 77.695312 51.476562 L 77.691406 51.476562 L 76.859375 53.058594 L 76.136719 53.058594 L 77.320312 50.917969 L 76.171875 48.816406 L 76.945312 48.816406 L 77.722656 50.304688 L 77.726562 50.304688 L 78.527344 48.816406 L 79.238281 48.816406 L 78.085938 50.84375 L 79.289062 53.058594 L 78.519531 53.058594 "/>
<path style=" stroke:none;fill-rule:nonzero;fill:rgb(6.266785%,5.734253%,5.047607%);fill-opacity:1;" d="M 80.394531 50.777344 L 81.058594 50.777344 C 81.457031 50.777344 81.707031 50.570312 81.707031 50.117188 C 81.707031 49.652344 81.429688 49.457031 81.074219 49.457031 L 80.394531 49.457031 Z M 79.726562 48.816406 L 81.152344 48.816406 C 81.882812 48.816406 82.378906 49.304688 82.378906 50.101562 C 82.378906 50.988281 81.828125 51.417969 81.128906 51.417969 L 80.394531 51.417969 L 80.394531 53.058594 L 79.726562 53.058594 L 79.726562 48.816406 "/>
<path style=" stroke:none;fill-rule:nonzero;fill:rgb(6.266785%,5.734253%,5.047607%);fill-opacity:1;" d="M 83.636719 50.65625 L 84.320312 50.65625 C 84.78125 50.65625 84.96875 50.449219 84.96875 50.050781 C 84.96875 49.671875 84.761719 49.457031 84.351562 49.457031 L 83.636719 49.457031 Z M 83.636719 51.300781 L 83.636719 53.058594 L 82.984375 53.058594 L 82.984375 48.816406 L 84.480469 48.816406 C 85.238281 48.816406 85.644531 49.3125 85.644531 49.96875 C 85.644531 50.53125 85.382812 50.851562 85.097656 50.96875 C 85.3125 51.054688 85.574219 51.285156 85.574219 52.039062 L 85.574219 52.238281 C 85.574219 52.527344 85.570312 52.867188 85.621094 53.058594 L 84.988281 53.058594 C 84.925781 52.875 84.921875 52.550781 84.921875 52.117188 L 84.921875 52.046875 C 84.921875 51.535156 84.808594 51.300781 84.214844 51.300781 L 83.636719 51.300781 "/>
<path style=" stroke:none;fill-rule:nonzero;fill:rgb(6.266785%,5.734253%,5.047607%);fill-opacity:1;" d="M 88.726562 51.175781 L 87.011719 51.175781 L 87.011719 52.398438 L 88.902344 52.398438 L 88.820312 53.058594 L 86.363281 53.058594 L 86.363281 48.816406 L 88.804688 48.816406 L 88.804688 49.472656 L 87.011719 49.472656 L 87.011719 50.515625 L 88.726562 50.515625 L 88.726562 51.175781 "/>
<path style=" stroke:none;fill-rule:nonzero;fill:rgb(6.266785%,5.734253%,5.047607%);fill-opacity:1;" d="M 89.949219 51.835938 C 90.035156 52.289062 90.300781 52.507812 90.746094 52.507812 C 91.207031 52.507812 91.394531 52.273438 91.394531 51.929688 C 91.394531 51.558594 91.222656 51.378906 90.582031 51.199219 C 89.664062 50.9375 89.40625 50.542969 89.40625 49.960938 C 89.40625 49.257812 89.84375 48.753906 90.664062 48.753906 C 91.574219 48.753906 91.9375 49.351562 91.988281 49.949219 L 91.316406 49.949219 C 91.269531 49.648438 91.125 49.355469 90.648438 49.355469 C 90.292969 49.355469 90.089844 49.539062 90.089844 49.875 C 90.089844 50.203125 90.257812 50.335938 90.84375 50.503906 C 91.867188 50.792969 92.078125 51.257812 92.078125 51.839844 C 92.078125 52.582031 91.609375 53.113281 90.699219 53.113281 C 89.800781 53.113281 89.359375 52.566406 89.277344 51.835938 L 89.949219 51.835938 "/>
<path style=" stroke:none;fill-rule:nonzero;fill:rgb(6.266785%,5.734253%,5.047607%);fill-opacity:1;" d="M 93.183594 51.835938 C 93.273438 52.289062 93.539062 52.507812 93.984375 52.507812 C 94.441406 52.507812 94.632812 52.273438 94.632812 51.929688 C 94.632812 51.558594 94.460938 51.378906 93.820312 51.199219 C 92.898438 50.9375 92.644531 50.542969 92.644531 49.960938 C 92.644531 49.257812 93.078125 48.753906 93.902344 48.753906 C 94.808594 48.753906 95.171875 49.351562 95.222656 49.949219 L 94.550781 49.949219 C 94.507812 49.648438 94.359375 49.355469 93.882812 49.355469 C 93.53125 49.355469 93.324219 49.539062 93.324219 49.875 C 93.324219 50.203125 93.492188 50.335938 94.082031 50.503906 C 95.101562 50.792969 95.3125 51.257812 95.3125 51.839844 C 95.3125 52.582031 94.847656 53.113281 93.933594 53.113281 C 93.039062 53.113281 92.59375 52.566406 92.515625 51.835938 L 93.183594 51.835938 "/>
<path style=" stroke:none;fill-rule:nonzero;fill:rgb(6.266785%,5.734253%,5.047607%);fill-opacity:1;" d="M 99.015625 51.316406 C 98.734375 50.347656 98.566406 49.769531 98.484375 49.40625 L 98.476562 49.40625 C 98.390625 49.804688 98.203125 50.488281 97.976562 51.316406 Z M 97.832031 51.976562 L 97.519531 53.058594 L 96.863281 53.058594 L 98.085938 48.816406 L 98.914062 48.816406 L 100.191406 53.058594 L 99.492188 53.058594 L 99.164062 51.976562 L 97.832031 51.976562 "/>
<path style=" stroke:none;fill-rule:nonzero;fill:rgb(6.266785%,5.734253%,5.047607%);fill-opacity:1;" d="M 101.34375 48.816406 L 101.34375 53.058594 L 100.679688 53.058594 L 100.679688 48.816406 L 101.34375 48.816406 "/>
<path style=" stroke:none;fill-rule:nonzero;fill:rgb(6.266785%,5.734253%,5.047607%);fill-opacity:1;" d="M 102.882812 50.65625 L 103.566406 50.65625 C 104.027344 50.65625 104.21875 50.449219 104.21875 50.050781 C 104.21875 49.671875 104.007812 49.457031 103.597656 49.457031 L 102.882812 49.457031 Z M 102.882812 51.300781 L 102.882812 53.058594 L 102.230469 53.058594 L 102.230469 48.816406 L 103.726562 48.816406 C 104.484375 48.816406 104.890625 49.3125 104.890625 49.96875 C 104.890625 50.53125 104.628906 50.851562 104.34375 50.96875 C 104.558594 51.054688 104.820312 51.285156 104.820312 52.039062 L 104.820312 52.238281 C 104.820312 52.527344 104.816406 52.867188 104.867188 53.058594 L 104.234375 53.058594 C 104.171875 52.875 104.167969 52.550781 104.167969 52.117188 L 104.167969 52.046875 C 104.167969 51.535156 104.054688 51.300781 103.460938 51.300781 L 102.882812 51.300781 "/>
<path style=" stroke:none;fill-rule:nonzero;fill:rgb(6.266785%,5.734253%,5.047607%);fill-opacity:1;" d="M 105.609375 48.816406 L 106.273438 48.816406 L 106.273438 52.398438 L 108.066406 52.398438 L 107.984375 53.058594 L 105.609375 53.058594 L 105.609375 48.816406 "/>
<path style=" stroke:none;fill-rule:nonzero;fill:rgb(6.266785%,5.734253%,5.047607%);fill-opacity:1;" d="M 109.207031 48.816406 L 109.207031 53.058594 L 108.542969 53.058594 L 108.542969 48.816406 L 109.207031 48.816406 "/>
<path style=" stroke:none;fill-rule:nonzero;fill:rgb(6.266785%,5.734253%,5.047607%);fill-opacity:1;" d="M 110.09375 53.058594 L 110.09375 48.816406 L 110.933594 48.816406 C 111.394531 49.78125 112.3125 51.632812 112.488281 52.09375 L 112.496094 52.09375 C 112.457031 51.617188 112.460938 50.90625 112.460938 50.207031 L 112.460938 48.816406 L 113.066406 48.816406 L 113.066406 53.058594 L 112.277344 53.058594 C 111.867188 52.199219 110.875 50.121094 110.683594 49.636719 L 110.675781 49.636719 C 110.699219 50.046875 110.707031 50.863281 110.707031 51.625 L 110.707031 53.058594 L 110.09375 53.058594 "/>
<path style=" stroke:none;fill-rule:nonzero;fill:rgb(6.266785%,5.734253%,5.047607%);fill-opacity:1;" d="M 116.316406 51.175781 L 114.601562 51.175781 L 114.601562 52.398438 L 116.492188 52.398438 L 116.410156 53.058594 L 113.953125 53.058594 L 113.953125 48.816406 L 116.394531 48.816406 L 116.394531 49.472656 L 114.601562 49.472656 L 114.601562 50.515625 L 116.316406 50.515625 L 116.316406 51.175781 "/>
<g clip-path="url(#clip3)" clip-rule="nonzero">
<path style=" stroke:none;fill-rule:nonzero;fill:rgb(6.266785%,5.734253%,5.047607%);fill-opacity:1;" d="M 117.539062 51.835938 C 117.628906 52.289062 117.894531 52.507812 118.339844 52.507812 C 118.796875 52.507812 118.988281 52.273438 118.988281 51.929688 C 118.988281 51.558594 118.816406 51.378906 118.175781 51.199219 C 117.253906 50.9375 117 50.542969 117 49.960938 C 117 49.257812 117.4375 48.753906 118.257812 48.753906 C 119.164062 48.753906 119.527344 49.351562 119.578125 49.949219 L 118.90625 49.949219 C 118.863281 49.648438 118.714844 49.355469 118.238281 49.355469 C 117.886719 49.355469 117.679688 49.539062 117.679688 49.875 C 117.679688 50.203125 117.847656 50.335938 118.4375 50.503906 C 119.460938 50.792969 119.667969 51.257812 119.667969 51.839844 C 119.667969 52.582031 119.203125 53.113281 118.289062 53.113281 C 117.394531 53.113281 116.949219 52.566406 116.871094 51.835938 L 117.539062 51.835938 "/>
</g>
<path style=" stroke:none;fill-rule:nonzero;fill:rgb(15.869141%,25.366211%,58.760071%);fill-opacity:1;" d="M 23.753906 59 C 23.496094 58.972656 23.238281 58.941406 22.984375 58.921875 C 20.976562 58.773438 18.953125 58.746094 16.964844 58.449219 C 14.027344 58.011719 11.25 57.035156 8.792969 55.304688 C 7.371094 54.304688 6.191406 53.082031 5.605469 51.40625 C 4.9375 49.503906 5.175781 47.742188 6.609375 46.238281 C 7.082031 45.742188 7.664062 45.402344 8.308594 45.175781 C 8.433594 45.132812 8.558594 45.089844 8.734375 45.027344 C 8.589844 44.832031 8.472656 44.660156 8.34375 44.5 C 6.980469 42.808594 5.636719 41.09375 4.234375 39.429688 C 3.355469 38.394531 2.375 37.449219 1.210938 36.71875 C 0.898438 36.519531 0.554688 36.359375 0.175781 36.160156 C 0.339844 36.167969 0.472656 36.167969 0.605469 36.179688 C 3.128906 36.421875 5.265625 37.460938 7.085938 39.222656 C 8.867188 40.941406 10.65625 42.65625 12.519531 44.285156 C 14.796875 46.28125 17.363281 47.824219 20.277344 48.742188 C 22.234375 49.355469 24.246094 49.6875 26.285156 49.855469 C 28.679688 50.050781 31.078125 50.023438 33.476562 49.925781 C 33.726562 49.914062 33.976562 49.894531 34.238281 49.929688 C 33.78125 50.082031 33.320312 50.242188 32.859375 50.382812 C 31.015625 50.953125 29.132812 51.363281 27.214844 51.566406 C 25.195312 51.777344 23.175781 51.761719 21.164062 51.460938 C 17.808594 50.960938 14.742188 49.730469 11.953125 47.828125 C 11.355469 47.417969 10.765625 47.417969 10.140625 47.578125 C 8.753906 47.925781 7.976562 49.277344 8.285156 50.746094 C 8.53125 51.917969 9.226562 52.792969 10.144531 53.515625 C 12.042969 55.011719 14.234375 55.875 16.550781 56.457031 C 19.0625 57.089844 21.621094 57.421875 24.207031 57.5 C 26.46875 57.566406 28.734375 57.605469 30.996094 57.539062 C 33.234375 57.476562 35.472656 57.273438 37.710938 57.113281 C 38.785156 57.035156 39.859375 56.917969 40.941406 56.855469 C 40.320312 57.039062 39.695312 57.226562 39.070312 57.394531 C 37.046875 57.945312 34.996094 58.332031 32.917969 58.5625 C 31.300781 58.746094 29.675781 58.816406 28.050781 58.941406 C 27.910156 58.953125 27.769531 58.980469 27.628906 59 C 26.335938 59 25.042969 59 23.753906 59 "/>
<path style=" stroke:none;fill-rule:nonzero;fill:rgb(15.869141%,25.366211%,58.760071%);fill-opacity:1;" d="M 0 35.898438 C 0.574219 35.144531 1.226562 34.445312 1.988281 33.851562 C 4.128906 32.179688 6.480469 32.007812 8.941406 32.953125 C 9.960938 33.34375 10.921875 33.890625 11.90625 34.367188 C 13.113281 34.957031 14.363281 35.429688 15.695312 35.640625 C 16.394531 35.75 17.097656 35.773438 17.792969 35.621094 C 19.265625 35.304688 20.195312 34.304688 20.460938 32.816406 C 20.722656 31.351562 20.46875 29.925781 20.183594 28.496094 C 19.742188 26.265625 19.605469 24.027344 20.117188 21.785156 C 20.699219 19.230469 22.097656 17.222656 24.207031 15.6875 C 25.910156 14.449219 27.816406 13.640625 29.816406 13.03125 C 32.207031 12.300781 34.671875 11.929688 37.140625 11.554688 C 38.484375 11.351562 39.808594 10.980469 41.117188 10.59375 C 44 9.738281 46.6875 8.464844 49.09375 6.636719 C 51.425781 4.859375 53.285156 2.675781 54.691406 0.101562 C 54.710938 0.0625 54.734375 0.0273438 54.820312 0 C 54.761719 0.527344 54.710938 1.058594 54.640625 1.585938 C 54.421875 3.28125 54.019531 4.929688 53.363281 6.515625 C 51.855469 10.167969 49.257812 12.769531 45.695312 14.433594 C 43.882812 15.277344 41.988281 15.863281 40.023438 16.15625 C 38.15625 16.433594 36.273438 16.59375 34.402344 16.804688 C 32.515625 17.015625 30.632812 17.242188 28.816406 17.839844 C 27.296875 18.339844 25.945312 19.097656 25 20.445312 C 24.324219 21.414062 23.976562 22.507812 23.773438 23.65625 C 23.480469 25.304688 23.570312 26.953125 23.808594 28.601562 C 24.035156 30.152344 24.191406 31.699219 23.929688 33.261719 C 23.636719 34.992188 22.988281 36.53125 21.621094 37.699219 C 20.65625 38.527344 19.515625 38.96875 18.261719 39.09375 C 15.90625 39.324219 13.789062 38.59375 11.824219 37.371094 C 10.523438 36.5625 9.246094 35.71875 7.804688 35.167969 C 5.769531 34.386719 3.714844 34.164062 1.648438 35.039062 C 1.078125 35.28125 0.546875 35.613281 0 35.898438 "/>
<path style=" stroke:none;fill-rule:nonzero;fill:rgb(15.869141%,25.366211%,58.760071%);fill-opacity:1;" d="M 35.625 21.925781 C 36.316406 21.769531 37.007812 21.617188 37.695312 21.453125 C 40.5 20.789062 43.261719 19.988281 45.890625 18.792969 C 48.066406 17.808594 50.101562 16.582031 51.96875 15.089844 C 52.828125 14.40625 53.648438 13.675781 54.484375 12.96875 C 54.527344 12.933594 54.570312 12.902344 54.664062 12.902344 C 54.5 13.328125 54.347656 13.761719 54.171875 14.183594 C 53.375 16.109375 52.292969 17.847656 50.734375 19.257812 C 49.113281 20.722656 47.203125 21.605469 45.082031 22.054688 C 43.210938 22.453125 41.320312 22.546875 39.417969 22.394531 C 38.152344 22.296875 36.890625 22.152344 35.628906 22.027344 C 35.625 21.996094 35.625 21.960938 35.625 21.925781 "/>
<path style=" stroke:none;fill-rule:nonzero;fill:rgb(15.869141%,25.366211%,58.760071%);fill-opacity:1;" d="M 49.417969 32.570312 C 49.144531 33.355469 48.8125 34.035156 48.40625 34.671875 C 47.035156 36.828125 45.082031 38.15625 42.617188 38.777344 C 40.710938 39.257812 38.789062 39.253906 36.855469 38.949219 C 34.511719 38.578125 32.316406 37.792969 30.25 36.632812 C 30.199219 36.601562 30.152344 36.570312 30.105469 36.535156 C 30.101562 36.53125 30.105469 36.519531 30.105469 36.480469 C 30.398438 36.511719 30.6875 36.539062 30.980469 36.574219 C 33.019531 36.8125 35.066406 36.910156 37.121094 36.804688 C 40.839844 36.613281 44.378906 35.800781 47.589844 33.835938 C 48.140625 33.5 48.652344 33.105469 49.183594 32.738281 C 49.242188 32.699219 49.300781 32.65625 49.417969 32.570312 "/>
<path style=" stroke:none;fill-rule:nonzero;fill:rgb(15.869141%,25.366211%,58.760071%);fill-opacity:1;" d="M 52.269531 23.140625 C 52.097656 23.542969 51.945312 23.953125 51.753906 24.347656 C 50.742188 26.4375 49.304688 28.136719 47.242188 29.269531 C 45.933594 29.984375 44.53125 30.402344 43.054688 30.574219 C 40.519531 30.875 38.042969 30.539062 35.609375 29.828125 C 35.140625 29.691406 34.679688 29.53125 34.214844 29.347656 C 40.796875 28.917969 46.933594 27.242188 52.269531 23.140625 "/>
</g>
</svg>
