<?xml version="1.0" encoding="UTF-8"?>
<svg xmlns="http://www.w3.org/2000/svg" xmlns:xlink="http://www.w3.org/1999/xlink" width="176pt" height="27.98pt" viewBox="0 0 176 27.98" version="1.1">
<defs>
<clipPath id="clip1">
  <path d="M 51 0 L 81 0 L 81 27.980469 L 51 27.980469 Z M 51 0 "/>
</clipPath>
<clipPath id="clip2">
  <path d="M 31 7 L 37 7 L 37 27.980469 L 31 27.980469 Z M 31 7 "/>
</clipPath>
<clipPath id="clip3">
  <path d="M 41 7 L 55 7 L 55 27.980469 L 41 27.980469 Z M 41 7 "/>
</clipPath>
<clipPath id="clip4">
  <path d="M 122 0 L 143 0 L 143 27.980469 L 122 27.980469 Z M 122 0 "/>
</clipPath>
<clipPath id="clip5">
  <path d="M 155 7 L 176 7 L 176 27.980469 L 155 27.980469 Z M 155 7 "/>
</clipPath>
<clipPath id="clip6">
  <path d="M 146 7 L 152 7 L 152 27.980469 L 146 27.980469 Z M 146 7 "/>
</clipPath>
<clipPath id="clip7">
  <path d="M 97 7 L 118 7 L 118 27.980469 L 97 27.980469 Z M 97 7 "/>
</clipPath>
<clipPath id="clip8">
  <path d="M 0 0 L 29 0 L 29 27.980469 L 0 27.980469 Z M 0 0 "/>
</clipPath>
<clipPath id="clip9">
  <path d="M 83 7 L 97 7 L 97 27.980469 L 83 27.980469 Z M 83 7 "/>
</clipPath>
</defs>
<g id="surface1">
<g clip-path="url(#clip1)" clip-rule="nonzero">
<path style=" stroke:none;fill-rule:nonzero;fill:rgb(92.880249%,8.433533%,26.173401%);fill-opacity:1;" d="M 61.78125 16.417969 C 62.246094 15.167969 62.71875 13.910156 63.195312 12.644531 C 63.671875 11.375 64.113281 10.214844 64.511719 9.152344 C 64.914062 8.089844 65.269531 7.179688 65.578125 6.417969 C 65.886719 5.65625 66.109375 5.136719 66.238281 4.867188 C 66.367188 5.136719 66.585938 5.65625 66.898438 6.417969 C 67.207031 7.179688 67.5625 8.089844 67.964844 9.152344 C 68.363281 10.214844 68.800781 11.375 69.277344 12.644531 C 69.757812 13.910156 70.230469 15.167969 70.695312 16.417969 Z M 78.675781 22.460938 C 78.027344 20.746094 77.382812 19.042969 76.738281 17.355469 C 76.09375 15.671875 75.445312 14.042969 74.800781 12.480469 C 74.15625 10.914062 73.558594 9.464844 73.019531 8.132812 C 72.476562 6.800781 71.984375 5.636719 71.546875 4.640625 C 71.109375 3.648438 70.757812 2.878906 70.5 2.335938 C 69.929688 1.058594 69.683594 0.480469 69.683594 0.480469 L 62.808594 0.480469 C 62.808594 0.480469 62.542969 1.058594 61.976562 2.335938 C 61.71875 2.878906 61.367188 3.648438 60.929688 4.640625 C 60.488281 5.636719 60 6.800781 59.457031 8.132812 C 58.914062 9.464844 58.320312 10.914062 57.675781 12.480469 C 57.03125 14.042969 56.382812 15.671875 55.738281 17.355469 C 55.09375 19.042969 54.445312 20.746094 53.800781 22.460938 C 53.15625 24.175781 52.546875 25.835938 51.980469 27.4375 L 57.675781 27.4375 L 59.882812 21.480469 L 72.589844 21.480469 L 74.800781 27.4375 L 80.496094 27.4375 C 79.929688 25.835938 79.320312 24.175781 78.675781 22.460938 "/>
</g>
<path style=" stroke:none;fill-rule:nonzero;fill:rgb(92.880249%,8.433533%,26.173401%);fill-opacity:1;" d="M 34.175781 -0.00390625 C 33.355469 -0.00390625 32.648438 0.28125 32.058594 0.84375 C 31.46875 1.410156 31.171875 2.101562 31.171875 2.925781 C 31.171875 3.746094 31.46875 4.445312 32.058594 5.023438 C 32.648438 5.601562 33.355469 5.890625 34.175781 5.890625 C 35.023438 5.890625 35.742188 5.601562 36.335938 5.023438 C 36.925781 4.445312 37.222656 3.746094 37.222656 2.925781 C 37.222656 2.101562 36.925781 1.410156 36.335938 0.84375 C 35.742188 0.28125 35.023438 -0.00390625 34.175781 -0.00390625 "/>
<g clip-path="url(#clip2)" clip-rule="nonzero">
<path style=" stroke:none;fill-rule:nonzero;fill:rgb(92.880249%,8.433533%,26.173401%);fill-opacity:1;" d="M 31.5 27.441406 L 36.894531 27.441406 L 36.894531 7.273438 L 31.5 8.832031 L 31.5 27.441406 "/>
</g>
<g clip-path="url(#clip3)" clip-rule="nonzero">
<path style=" stroke:none;fill-rule:nonzero;fill:rgb(92.880249%,8.433533%,26.173401%);fill-opacity:1;" d="M 50.855469 11.609375 C 51.214844 11.609375 51.59375 11.632812 51.992188 11.683594 C 52.390625 11.738281 52.710938 11.777344 53.109375 11.894531 C 53.140625 11.90625 53.171875 11.914062 53.203125 11.925781 C 53.757812 10.570312 54.28125 9.304688 54.757812 8.132812 C 54.773438 8.085938 54.792969 8.042969 54.808594 8 C 54.269531 7.71875 53.484375 7.472656 52.359375 7.292969 C 51.714844 7.191406 51.035156 7.140625 50.316406 7.140625 C 49.132812 7.140625 48.042969 7.25 47.039062 7.464844 C 46.039062 7.683594 45.160156 7.929688 44.402344 8.199219 C 43.644531 8.46875 43.035156 8.730469 42.570312 8.988281 C 42.109375 9.246094 41.828125 9.410156 41.722656 9.488281 L 41.722656 27.441406 L 47.117188 27.441406 L 47.117188 12.457031 C 47.347656 12.328125 47.761719 12.152344 48.351562 11.933594 C 48.941406 11.71875 49.777344 11.609375 50.855469 11.609375 "/>
</g>
<g clip-path="url(#clip4)" clip-rule="nonzero">
<path style=" stroke:none;fill-rule:nonzero;fill:rgb(92.880249%,8.433533%,26.173401%);fill-opacity:1;" d="M 136.371094 20.0625 C 136.128906 20.820312 135.757812 21.484375 135.257812 22.046875 C 134.753906 22.613281 134.113281 23.050781 133.328125 23.355469 C 132.546875 23.664062 131.613281 23.820312 130.535156 23.820312 C 129.714844 23.820312 129.046875 23.78125 128.53125 23.703125 C 128.019531 23.625 127.683594 23.550781 127.53125 23.472656 L 127.53125 16.730469 C 127.53125 15.265625 127.902344 14.046875 128.648438 13.070312 C 129.394531 12.097656 130.511719 11.609375 132 11.609375 C 133.488281 11.609375 134.652344 12.152344 135.488281 13.246094 C 136.320312 14.335938 136.738281 15.78125 136.738281 17.578125 C 136.738281 18.476562 136.617188 19.304688 136.371094 20.0625 M 139.570312 9.757812 C 138.734375 8.9375 137.773438 8.3125 136.683594 7.890625 C 135.589844 7.464844 134.425781 7.253906 133.195312 7.253906 C 132.296875 7.253906 131.503906 7.363281 130.824219 7.582031 C 130.144531 7.800781 129.566406 8.058594 129.089844 8.351562 C 128.613281 8.648438 128.25 8.925781 127.992188 9.179688 C 127.734375 9.4375 127.582031 9.605469 127.53125 9.683594 L 127.53125 0.460938 L 122.136719 2.015625 L 122.136719 27.441406 C 122.289062 27.464844 122.59375 27.511719 123.042969 27.574219 C 123.492188 27.640625 124.050781 27.695312 124.71875 27.75 C 125.386719 27.800781 126.144531 27.851562 126.992188 27.902344 C 127.839844 27.953125 128.726562 27.980469 129.648438 27.980469 C 133.835938 27.980469 136.988281 27.011719 139.109375 25.070312 C 141.226562 23.132812 142.289062 20.441406 142.289062 17 C 142.289062 15.433594 142.042969 14.042969 141.554688 12.820312 C 141.066406 11.601562 140.40625 10.582031 139.570312 9.757812 "/>
</g>
<path style=" stroke:none;fill-rule:nonzero;fill:rgb(92.880249%,8.433533%,26.173401%);fill-opacity:1;" d="M 149.03125 -0.00390625 C 148.207031 -0.00390625 147.503906 0.28125 146.910156 0.84375 C 146.320312 1.410156 146.023438 2.101562 146.023438 2.925781 C 146.023438 3.746094 146.320312 4.445312 146.910156 5.023438 C 147.503906 5.601562 148.207031 5.890625 149.03125 5.890625 C 149.878906 5.890625 150.597656 5.601562 151.1875 5.023438 C 151.777344 4.445312 152.074219 3.746094 152.074219 2.925781 C 152.074219 2.101562 151.777344 1.410156 151.1875 0.84375 C 150.597656 0.28125 149.878906 -0.00390625 149.03125 -0.00390625 "/>
<g clip-path="url(#clip5)" clip-rule="nonzero">
<path style=" stroke:none;fill-rule:nonzero;fill:rgb(92.880249%,8.433533%,26.173401%);fill-opacity:1;" d="M 170.605469 18.3125 C 170.605469 19.773438 170.234375 20.996094 169.488281 21.96875 C 168.742188 22.945312 167.625 23.433594 166.136719 23.433594 C 164.644531 23.433594 163.484375 22.933594 162.648438 21.933594 C 161.8125 20.929688 161.398438 19.53125 161.398438 17.734375 C 161.398438 15.804688 161.847656 14.273438 162.746094 13.128906 C 163.644531 11.988281 165.019531 11.414062 166.867188 11.414062 C 168.101562 11.414062 168.992188 11.503906 169.546875 11.683594 C 170.097656 11.863281 170.453125 11.992188 170.605469 12.070312 Z M 175.152344 8.660156 C 174.714844 8.441406 174.125 8.222656 173.382812 8.007812 C 172.636719 7.789062 171.722656 7.589844 170.644531 7.410156 C 169.566406 7.230469 168.332031 7.140625 166.945312 7.140625 C 165.226562 7.140625 163.683594 7.402344 162.320312 7.929688 C 160.960938 8.457031 159.800781 9.195312 158.835938 10.144531 C 157.871094 11.09375 157.132812 12.242188 156.617188 13.589844 C 156.105469 14.941406 155.847656 16.421875 155.847656 18.042969 C 155.847656 19.632812 156.09375 21.039062 156.582031 22.261719 C 157.070312 23.480469 157.722656 24.5 158.546875 25.320312 C 159.367188 26.144531 160.332031 26.761719 161.4375 27.171875 C 162.539062 27.582031 163.710938 27.789062 164.941406 27.789062 C 165.816406 27.789062 166.59375 27.675781 167.273438 27.460938 C 167.953125 27.242188 168.53125 26.992188 169.007812 26.707031 C 169.480469 26.425781 169.855469 26.148438 170.125 25.878906 C 170.394531 25.609375 170.554688 25.4375 170.605469 25.359375 L 170.605469 27.4375 L 176 27.4375 L 176 9.105469 C 175.871094 9.027344 175.589844 8.878906 175.152344 8.660156 "/>
</g>
<g clip-path="url(#clip6)" clip-rule="nonzero">
<path style=" stroke:none;fill-rule:nonzero;fill:rgb(92.880249%,8.433533%,26.173401%);fill-opacity:1;" d="M 146.351562 27.441406 L 151.746094 27.441406 L 151.746094 7.273438 L 146.351562 8.832031 L 146.351562 27.441406 "/>
</g>
<g clip-path="url(#clip7)" clip-rule="nonzero">
<path style=" stroke:none;fill-rule:nonzero;fill:rgb(92.880249%,8.433533%,26.173401%);fill-opacity:1;" d="M 111.847656 18.3125 C 111.847656 19.773438 111.476562 20.996094 110.730469 21.96875 C 109.984375 22.945312 108.867188 23.433594 107.378906 23.433594 C 105.890625 23.433594 104.726562 22.933594 103.894531 21.933594 C 103.058594 20.929688 102.640625 19.53125 102.640625 17.734375 C 102.640625 15.804688 103.089844 14.273438 103.988281 13.128906 C 104.886719 11.988281 106.261719 11.414062 108.109375 11.414062 C 109.34375 11.414062 110.234375 11.503906 110.789062 11.683594 C 111.339844 11.863281 111.695312 11.992188 111.847656 12.070312 Z M 114.625 8.007812 C 113.878906 7.789062 112.964844 7.589844 111.886719 7.410156 C 110.808594 7.230469 109.574219 7.140625 108.1875 7.140625 C 106.46875 7.140625 104.925781 7.402344 103.566406 7.929688 C 102.203125 8.457031 101.042969 9.195312 100.078125 10.144531 C 99.113281 11.09375 98.375 12.242188 97.863281 13.589844 C 97.347656 14.941406 97.09375 16.421875 97.09375 18.042969 C 97.09375 19.632812 97.335938 21.039062 97.824219 22.261719 C 98.3125 23.480469 98.96875 24.5 99.789062 25.320312 C 100.609375 26.144531 101.574219 26.761719 102.679688 27.171875 C 103.78125 27.582031 104.953125 27.789062 106.1875 27.789062 C 107.058594 27.789062 107.835938 27.675781 108.515625 27.460938 C 109.195312 27.242188 109.773438 26.992188 110.25 26.707031 C 110.726562 26.425781 111.097656 26.148438 111.367188 25.878906 C 111.636719 25.609375 111.796875 25.4375 111.847656 25.359375 L 111.847656 27.4375 L 117.242188 27.4375 L 117.242188 9.105469 C 117.113281 9.027344 116.832031 8.878906 116.394531 8.660156 C 115.957031 8.441406 115.367188 8.222656 114.625 8.007812 "/>
</g>
<g clip-path="url(#clip8)" clip-rule="nonzero">
<path style=" stroke:none;fill-rule:nonzero;fill:rgb(92.880249%,8.433533%,26.173401%);fill-opacity:1;" d="M 9.800781 16.417969 C 10.265625 15.167969 10.738281 13.910156 11.214844 12.644531 C 11.695312 11.375 12.132812 10.214844 12.53125 9.152344 C 12.933594 8.089844 13.289062 7.179688 13.597656 6.417969 C 13.90625 5.65625 14.128906 5.136719 14.257812 4.867188 C 14.386719 5.136719 14.605469 5.65625 14.917969 6.417969 C 15.226562 7.179688 15.582031 8.089844 15.984375 9.152344 C 16.382812 10.214844 16.820312 11.375 17.300781 12.644531 C 17.777344 13.910156 18.25 15.167969 18.714844 16.417969 Z M 26.695312 22.460938 C 26.050781 20.746094 25.402344 19.042969 24.757812 17.355469 C 24.113281 15.671875 23.464844 14.042969 22.820312 12.480469 C 22.175781 10.914062 21.582031 9.464844 21.039062 8.132812 C 20.496094 6.800781 20.007812 5.636719 19.566406 4.640625 C 19.128906 3.648438 18.777344 2.878906 18.519531 2.335938 C 17.953125 1.058594 17.703125 0.480469 17.703125 0.480469 L 10.832031 0.480469 C 10.832031 0.480469 10.5625 1.058594 9.996094 2.335938 C 9.738281 2.878906 9.386719 3.648438 8.949219 4.640625 C 8.511719 5.636719 8.019531 6.800781 7.476562 8.132812 C 6.933594 9.464844 6.339844 10.914062 5.695312 12.480469 C 5.050781 14.042969 4.402344 15.671875 3.757812 17.355469 C 3.113281 19.042969 2.464844 20.746094 1.820312 22.460938 C 1.175781 24.175781 0.566406 25.835938 0 27.4375 L 5.695312 27.4375 L 7.902344 21.480469 L 20.613281 21.480469 L 22.820312 27.4375 L 28.515625 27.4375 C 27.949219 25.835938 27.339844 24.175781 26.695312 22.460938 "/>
</g>
<g clip-path="url(#clip9)" clip-rule="nonzero">
<path style=" stroke:none;fill-rule:nonzero;fill:rgb(92.880249%,8.433533%,26.173401%);fill-opacity:1;" d="M 92.582031 11.609375 C 92.941406 11.609375 93.320312 11.632812 93.71875 11.683594 C 94.113281 11.738281 94.433594 11.777344 94.835938 11.894531 C 94.867188 11.90625 94.894531 11.914062 94.925781 11.925781 C 95.484375 10.570312 96.003906 9.304688 96.480469 8.132812 C 96.5 8.085938 96.515625 8.042969 96.535156 8 C 95.992188 7.71875 95.207031 7.472656 94.082031 7.292969 C 93.441406 7.191406 92.757812 7.140625 92.039062 7.140625 C 90.859375 7.140625 89.765625 7.25 88.765625 7.464844 C 87.765625 7.683594 86.882812 7.929688 86.125 8.199219 C 85.367188 8.46875 84.757812 8.730469 84.296875 8.988281 C 83.835938 9.246094 83.550781 9.410156 83.449219 9.488281 L 83.449219 27.441406 L 88.84375 27.441406 L 88.84375 12.457031 C 89.074219 12.328125 89.484375 12.152344 90.078125 11.933594 C 90.667969 11.71875 91.503906 11.609375 92.582031 11.609375 "/>
</g>
</g>
</svg>
