<svg xmlns="http://www.w3.org/2000/svg" width="176pt" height="37.307" viewBox="0 0 176 27.98"><defs><clipPath id="a"><path d="M51 0h30v27.98H51Zm0 0"/></clipPath><clipPath id="b"><path d="M31 7h6v20.98h-6Zm0 0"/></clipPath><clipPath id="c"><path d="M41 7h14v20.98H41Zm0 0"/></clipPath><clipPath id="d"><path d="M122 0h21v27.98h-21Zm0 0"/></clipPath><clipPath id="e"><path d="M155 7h21v20.98h-21Zm0 0"/></clipPath><clipPath id="f"><path d="M146 7h6v20.98h-6Zm0 0"/></clipPath><clipPath id="g"><path d="M97 7h21v20.98H97Zm0 0"/></clipPath><clipPath id="h"><path d="M0 0h29v27.98H0Zm0 0"/></clipPath><clipPath id="i"><path d="M83 7h14v20.98H83Zm0 0"/></clipPath></defs><g clip-path="url(#a)"><path d="M61.781 16.418q.699-1.875 1.414-3.773c.477-1.27.918-2.43 1.317-3.493a130 130 0 0 1 1.066-2.734q.465-1.145.66-1.55.194.405.66 1.55.464 1.142 1.067 2.734c.398 1.063.836 2.223 1.312 3.493q.72 1.898 1.418 3.773Zm16.895 6.043q-.972-2.573-1.938-5.106a205 205 0 0 0-1.937-4.875c-.645-1.566-1.242-3.015-1.781-4.347a143 143 0 0 0-1.473-3.492A94 94 0 0 0 70.5 2.336C69.93 1.059 69.684.48 69.684.48h-6.875s-.266.579-.832 1.856c-.258.543-.61 1.312-1.047 2.305-.442.996-.93 2.16-1.473 3.492q-.815 1.998-1.781 4.347a205 205 0 0 0-1.938 4.875c-.644 1.688-1.293 3.391-1.937 5.106a272 272 0 0 0-1.82 4.977h5.695l2.207-5.958H72.59l2.21 5.958h5.696a272 272 0 0 0-1.82-4.977" style="stroke:none;fill-rule:nonzero;fill:#ed1643;fill-opacity:1"/></g><path d="M34.176-.004q-1.232.002-2.117.848a2.77 2.77 0 0 0-.887 2.082q.001 1.23.887 2.097a2.92 2.92 0 0 0 2.117.868q1.27 0 2.16-.868.886-.867.887-2.097-.001-1.235-.887-2.082-.89-.846-2.16-.848" style="stroke:none;fill-rule:nonzero;fill:#ed1643;fill-opacity:1"/><g clip-path="url(#b)"><path d="M31.5 27.441h5.395V7.273L31.5 8.832z" style="stroke:none;fill-rule:nonzero;fill:#ed1643;fill-opacity:1"/></g><g clip-path="url(#c)"><path d="M50.855 11.61q.54-.001 1.137.074c.399.054.719.093 1.117.21q.048.016.094.032c.555-1.356 1.078-2.621 1.555-3.793.015-.047.035-.09.05-.133-.538-.281-1.324-.527-2.449-.707a13 13 0 0 0-2.043-.152q-1.773 0-3.277.324-1.5.33-2.637.734-1.135.403-1.832.79c-.46.257-.742.421-.847.5V27.44h5.394V12.457c.23-.129.645-.305 1.235-.523q.885-.324 2.503-.325" style="stroke:none;fill-rule:nonzero;fill:#ed1643;fill-opacity:1"/></g><g clip-path="url(#d)"><path d="M136.371 20.063a5.45 5.45 0 0 1-1.113 1.984q-.754.85-1.93 1.308c-.781.31-1.715.465-2.793.465q-1.23 0-2.004-.117-.769-.115-1-.23V16.73q-.001-2.195 1.117-3.66 1.12-1.459 3.352-1.46c1.488 0 2.652.542 3.488 1.636q1.249 1.636 1.25 4.332.002 1.348-.367 2.485m3.2-10.305a8.4 8.4 0 0 0-2.887-1.867 9.5 9.5 0 0 0-3.489-.637c-.898 0-1.691.11-2.37.328q-1.02.33-1.735.77c-.477.296-.84.574-1.098.828q-.386.386-.46.504V.46l-5.395 1.555V27.44c.152.024.457.07.906.133.45.067 1.008.121 1.676.176q1.002.076 2.273.152 1.273.077 2.656.078 6.28.002 9.461-2.91 3.178-2.907 3.18-8.07-.001-2.347-.734-4.18-.732-1.827-1.985-3.062" style="stroke:none;fill-rule:nonzero;fill:#ed1643;fill-opacity:1"/></g><path d="M149.031-.004c-.824 0-1.527.285-2.12.848a2.77 2.77 0 0 0-.888 2.082q.001 1.23.887 2.097a2.93 2.93 0 0 0 2.121.868q1.272 0 2.156-.868.886-.867.887-2.097-.001-1.235-.887-2.082-.885-.846-2.156-.848" style="stroke:none;fill-rule:nonzero;fill:#ed1643;fill-opacity:1"/><g clip-path="url(#e)"><path d="M170.605 18.313c0 1.46-.37 2.683-1.117 3.656q-1.119 1.464-3.351 1.465-2.236 0-3.489-1.5-1.251-1.505-1.25-4.2c0-1.93.45-3.46 1.348-4.605.899-1.14 2.274-1.715 4.121-1.715 1.235 0 2.125.09 2.68.27.55.18.906.308 1.058.386Zm4.547-9.653q-.655-.329-1.77-.652-1.12-.328-2.737-.598-1.619-.27-3.7-.27-2.578-.001-4.625.79-2.039.79-3.484 2.215-1.446 1.423-2.219 3.445c-.512 1.351-.77 2.832-.77 4.453q.001 2.385.735 4.219c.488 1.218 1.14 2.238 1.965 3.058a7.9 7.9 0 0 0 2.89 1.852 10 10 0 0 0 3.504.617c.875 0 1.653-.113 2.332-.328q1.02-.328 1.735-.754.71-.423 1.117-.828.405-.404.48-.52v2.078H176V9.106q-.192-.117-.848-.445" style="stroke:none;fill-rule:nonzero;fill:#ed1643;fill-opacity:1"/></g><g clip-path="url(#f)"><path d="M146.352 27.441h5.394V7.273l-5.394 1.559z" style="stroke:none;fill-rule:nonzero;fill:#ed1643;fill-opacity:1"/></g><g clip-path="url(#g)"><path d="M111.848 18.313c0 1.46-.371 2.683-1.118 3.656q-1.119 1.464-3.351 1.465c-1.488 0-2.652-.5-3.484-1.5q-1.254-1.505-1.254-4.2c0-1.93.449-3.46 1.347-4.605.899-1.14 2.274-1.715 4.121-1.715 1.235 0 2.125.09 2.68.27.55.18.906.308 1.059.386Zm2.777-10.305q-1.12-.328-2.738-.598t-3.7-.27c-1.718 0-3.261.262-4.62.79-1.364.527-2.524 1.265-3.489 2.215q-1.447 1.423-2.215 3.445c-.515 1.351-.77 2.832-.77 4.453q0 2.385.731 4.219.734 1.828 1.965 3.058a7.9 7.9 0 0 0 2.89 1.852 10 10 0 0 0 3.508.617c.872 0 1.649-.113 2.329-.328q1.02-.328 1.734-.754.715-.423 1.117-.828.405-.404.48-.52v2.078h5.395V9.106q-.192-.117-.847-.445-.657-.329-1.77-.652" style="stroke:none;fill-rule:nonzero;fill:#ed1643;fill-opacity:1"/></g><g clip-path="url(#h)"><path d="M9.8 16.418q.7-1.875 1.415-3.773c.48-1.27.918-2.43 1.316-3.493q.604-1.592 1.067-2.734.463-1.145.66-1.55.192.405.66 1.55.463 1.142 1.066 2.734c.399 1.063.836 2.223 1.317 3.493q.715 1.898 1.414 3.773Zm16.895 6.043c-.644-1.715-1.293-3.418-1.937-5.106a205 205 0 0 0-1.938-4.875q-.966-2.349-1.78-4.347a129 129 0 0 0-1.474-3.492 94 94 0 0 0-1.046-2.305A251 251 0 0 1 17.703.48h-6.871s-.27.579-.836 1.856A94 94 0 0 0 8.95 4.64q-.657 1.494-1.472 3.492T5.695 12.48a205 205 0 0 0-1.937 4.875q-.969 2.533-1.938 5.106A272 272 0 0 0 0 27.438h5.695l2.207-5.958h12.711l2.207 5.958h5.696a272 272 0 0 0-1.82-4.977" style="stroke:none;fill-rule:nonzero;fill:#ed1643;fill-opacity:1"/></g><g clip-path="url(#i)"><path d="M92.582 11.61q.54-.001 1.137.074c.394.054.715.093 1.117.21l.09.032a892 892 0 0 0 1.554-3.793q.028-.07.055-.133c-.543-.281-1.328-.527-2.453-.707a13 13 0 0 0-2.043-.152q-1.772 0-3.273.324-1.502.33-2.641.734-1.137.403-1.828.79c-.461.257-.746.421-.848.5V27.44h5.395V12.457q.344-.195 1.234-.523.886-.324 2.504-.325" style="stroke:none;fill-rule:nonzero;fill:#ed1643;fill-opacity:1"/></g></svg>