<svg xmlns="http://www.w3.org/2000/svg" width="176pt" height="43.2" viewBox="0 0 176 32.4"><defs><clipPath id="a"><path d="M0 17h142v15.398H0Zm0 0"/></clipPath></defs><path d="M66.777 18.652c0-.109-.05-.195-.164-.195h-.004c-.093 0-.125.082-.152.156-.016.055-.031.102-.059.102h-.003c-.02 0-.036-.016-.036-.055 0-.035.02-.086.047-.137l-.097-.054a.34.34 0 0 0-.059.191c0 .106.055.188.16.188.102 0 .137-.082.156-.153.016-.058.028-.11.059-.11h.004c.023 0 .039.02.039.063a.3.3 0 0 1-.063.16l.098.067a.4.4 0 0 0 .074-.223m-.12.563c0 .078-.067.133-.145.133s-.14-.047-.14-.133c0-.078.066-.133.14-.133h.004c.074 0 .14.05.14.133m.124 0a.27.27 0 0 0-.27-.277.266.266 0 0 0-.265.277c0 .16.121.277.266.277h.004a.266.266 0 0 0 .265-.277m-.011 1.164v-.149h-.286q-.105-.001-.105-.085t.105-.086h.286v-.145h-.286c-.07 0-.105-.035-.105-.086q0-.088.105-.09h.286v-.144h-.336c-.121 0-.188.066-.188.176 0 .07.031.12.082.168a.16.16 0 0 0-.082.144c0 .074.04.117.082.148h-.07v.149Zm0 .281v-.144h-.7v.144Zm-.094.383c0 .047-.02.078-.059.078h-.004c-.043 0-.07-.035-.07-.098q.001-.052.02-.093h.023c.055 0 .09.047.09.113m.101.047a.2.2 0 0 0-.062-.156h.055v-.141h-.297c-.07 0-.13.016-.164.055a.25.25 0 0 0-.059.175c0 .086.016.141.04.196l.112-.035a.4.4 0 0 1-.027-.141q0-.11.094-.11h.008a.4.4 0 0 0-.02.126c0 .12.05.207.164.207.102 0 .156-.082.156-.176m-.007 1.055V22h-.286c-.07 0-.105-.035-.105-.09q0-.084.105-.086h.286v-.144h-.286c-.07 0-.105-.035-.105-.09q0-.082.105-.082h.286v-.149h-.336c-.121 0-.188.067-.188.172a.22.22 0 0 0 .082.172.16.16 0 0 0-.082.145c0 .07.04.117.082.152h-.07v.145Zm.156.738c0-.086-.04-.13-.145-.172l-.523-.195v.152l.347.113-.347.117v.153l.512-.2c.027.012.035.024.035.051 0 .02-.008.043-.02.059l.106.05a.25.25 0 0 0 .035-.128m-.27.476c0 .067-.058.121-.144.121s-.14-.054-.14-.12c0-.07.054-.126.14-.126s.144.055.144.125m.121-.039c0-.12-.093-.234-.265-.234s-.266.117-.266.234c0 .078.035.125.082.16h-.258v.145h.7v-.145h-.067a.2.2 0 0 0 .074-.16m-.172.992c0 .075-.046.125-.117.125h-.004c-.07 0-.117-.05-.117-.125 0-.07.047-.125.117-.125h.004c.067 0 .117.055.117.125m.32.02q0-.153-.07-.223-.063-.065-.203-.066h-.394v.148h.066a.2.2 0 0 0-.078.164c0 .118.086.227.238.227h.004c.153 0 .239-.105.239-.227a.2.2 0 0 0-.082-.168h.023q.14-.002.14.149a.33.33 0 0 1-.046.172l.11.05a.5.5 0 0 0 .054-.226m-.155.824v-.144h-.286c-.07 0-.105-.035-.105-.094q0-.084.105-.086h.286v-.145h-.332c-.118 0-.192.063-.192.172 0 .078.04.118.082.153h-.07v.144Zm0 .282v-.145h-.512v.145Zm-.57.007v-.156h-.13v.156Zm.581.305a.25.25 0 0 0-.094-.207l-.085.082c.03.035.054.07.054.117 0 .082-.066.133-.144.133s-.14-.05-.14-.125a.16.16 0 0 1 .054-.117l-.094-.09a.27.27 0 0 0-.086.207c0 .156.121.266.266.266h.004c.148 0 .265-.11.265-.266m-.105.617c0 .051-.02.082-.059.082h-.004c-.043 0-.07-.039-.07-.097q.001-.058.02-.098h.023c.055 0 .09.047.09.113m.101.047a.2.2 0 0 0-.062-.156h.055v-.14h-.297c-.07 0-.13.019-.164.058-.036.035-.059.09-.059.172 0 .086.016.14.04.199l.112-.035a.4.4 0 0 1-.027-.145c0-.07.031-.11.094-.11h.008a.4.4 0 0 0-.02.126c0 .125.05.207.164.207.102 0 .156-.078.156-.176m-.007.52v-.145h-.192c-.121 0-.18-.059-.18-.152v-.012h-.152c-.004.09.043.137.113.164h-.101v.145Zm.007.226a.2.2 0 0 0-.03-.117h-.114a.2.2 0 0 1 .015.074q.001.047-.05.047h-.22v-.121h-.12v.121h-.133v.145h.133v.062h.12v-.062h.247c.117 0 .152-.059.152-.149m-.007.742v-.144h-.7v.144Zm-.094.383c0 .047-.02.082-.059.082h-.004c-.043 0-.07-.039-.07-.101q.001-.054.02-.094h.023c.055 0 .09.047.09.113m.101.047c0-.074-.023-.121-.062-.156h.055v-.14h-.297c-.07 0-.13.015-.164.054-.036.035-.059.094-.059.172 0 .09.016.144.04.199l.112-.035a.4.4 0 0 1-.027-.14q0-.111.094-.11h.008a.4.4 0 0 0-.02.125c0 .12.05.207.164.207.102 0 .156-.082.156-.176m0 .57c0-.074-.039-.117-.082-.152h.075v-.145h-.512v.145h.285c.066 0 .105.04.105.094s-.039.086-.105.086h-.285v.148h.328c.121 0 .191-.066.191-.176m-.007.766v-.145h-.286c-.07 0-.105-.035-.105-.09q0-.088.105-.09h.286V29.2h-.332c-.118 0-.192.063-.192.176 0 .07.04.113.082.148h-.07v.145Zm-.094.379c0 .047-.02.078-.059.078h-.004c-.043 0-.07-.04-.07-.102q.001-.053.02-.09h.023c.055 0 .09.044.09.114m.101.043a.2.2 0 0 0-.062-.156h.055v-.141h-.297c-.07 0-.13.02-.164.059-.036.035-.059.093-.059.171 0 .086.016.141.04.2l.112-.04a.4.4 0 0 1-.027-.14c0-.07.031-.11.094-.11h.008a.4.4 0 0 0-.02.126c0 .12.05.207.164.207.102 0 .156-.078.156-.176m-.007 1.055V31h-.286c-.07 0-.105-.035-.105-.09q0-.084.105-.086h.286v-.144h-.286c-.07 0-.105-.032-.105-.086q0-.087.105-.086h.286v-.145h-.336c-.121 0-.188.063-.188.172 0 .07.031.125.082.168a.16.16 0 0 0-.082.145c0 .074.04.117.082.152h-.07v.145z" style="stroke:none;fill-rule:nonzero;fill:#46464a;fill-opacity:1"/><g clip-path="url(#a)"><path d="M113.39 27.852v1.117c0 1.61.95 2.242 2.489 2.242 1.25 0 2.785-.66 3.437-1.195l-.23 1.379c-1.078.492-2.309.949-3.606.949-2.738 0-4.218-1.164-4.218-3.817v-3.152c0-3.324 2.273-4.305 5.156-4.195 2.14.082 3.164 1.5 3.203 2.925.07 2.43-1.863 4.254-6.23 3.747m.005-1.028V24.59c-.004-1.383.886-2.367 2.293-2.367 1.019 0 1.945.144 1.898 2.168-.04 1.511-.89 2.902-4.191 2.433M66.94 17.687h-2.347c.402.153.722.497.71 1.067V31.55c0 .347.286.629.633.629h1.715V18.398c0-.39-.32-.71-.71-.71m19.77 7.551v4.711c-.45.645-1.125 1.098-1.938 1.121-2.273.078-2.566-2.816-2.566-4.367 0-3.066.86-4.324 2.523-4.25 1.715.078 1.98 1.457 1.98 2.785m1.277-7.55h-1.992c.402.152.723.496.715 1.066v3.652c-.445-.57-1.238-1.218-2.586-1.218-2.043 0-4.234 1.667-4.234 5.609 0 3.125 1.312 5.527 4.039 5.527.992 0 2.058-.433 2.855-1.215v.442c0 .347.285.629.63.629h1.425V18.516c0-.395-.418-.828-.852-.828M76.23 31.377c0 .442.36.802.801.802h1.328v-6.856c0-2.277-.652-4.043-3.504-4.043-1.054 0-2.34.535-2.89 1.485v-.72a.63.63 0 0 0-.63-.628h-2.151c.402.156.722.496.714 1.07v9.692h2.13v-7.14c0-1.384.57-1.892 1.288-2.196.875-.38 1.922-.293 2.47.355.448.54.444 1.32.444 2.324Zm31.297 0c0 .442.364.802.801.802h1.332v-6.856c0-2.277-.652-4.043-3.508-4.043-1.054 0-2.34.535-2.886 1.485v-.72a.63.63 0 0 0-.63-.628h-2.152c.399.156.72.496.711 1.07v9.692h2.13v-7.14c0-1.384.573-1.892 1.288-2.196.88-.38 1.922-.293 2.469.355.45.54.445 1.32.445 2.324ZM95.06 31.23c1.582-.027 2.367-1.3 2.367-4.437 0-3.133-.785-4.41-2.367-4.438s-2.473 1.235-2.473 4.438.89 4.469 2.473 4.437m-.051 1.075c-2.414 0-4.668-1.09-4.668-5.508 0-4.414 2.508-5.61 4.668-5.61 2.156 0 4.664 1.196 4.664 5.61 0 4.418-2.254 5.508-4.664 5.508m25.687-1.946.325 1.293c.968.465 2.109.692 2.988.692 2.32 0 4.004-1.344 4.004-3.262 0-1.496-1.375-2.52-2.926-3.09-1.398-.512-2.23-1.097-2.066-2.183.18-1.149 1.238-1.493 2.093-1.446 1.133.063 1.805.407 2.348.813l-.336-1.262a5.8 5.8 0 0 0-2.258-.598c-2.332-.12-3.93 1.004-3.93 2.922 0 1.742 1.243 2.547 2.653 3.106 1.453.574 2.496 1.16 2.324 2.367-.176 1.234-1.074 1.605-2.156 1.613-1.285.012-2.457-.558-3.063-.965m18.438-3.726v2.781c-.43 1.07-1.48 1.426-2.266 1.426-.937 0-1.765-.606-1.875-1.805-.058-.676.145-1.402.781-1.898.618-.489 1.707-.793 3.36-.504m0-2.137v1.125c-4.762-.324-6.403 1.36-6.309 3.793.059 1.43 1.14 2.93 3.281 2.93 1.227 0 2.317-.563 3.102-1.52v.727c0 .347.281.629.629.629h1.422v-7.184c0-2.652-1.48-3.816-4.215-3.816-1.3 0-2.238.351-3.066.75l-.235 1.379c.735-.563 1.653-1.004 2.903-1.004 1.539 0 2.488.586 2.488 2.191m-9.242 7.684h1.543V22.082a.666.666 0 0 0-.664-.664h-2.18c.402.156.722.496.715 1.07v9.106c0 .324.261.586.586.586M9.87 18.004a8.5 8.5 0 0 0-2.797-.473C2.996 17.531 0 20.133 0 24.973c0 4.511 2.203 7.425 6.828 7.425 1.477 0 2.754-.23 3.863-.617v-7.527H6.137l-.18 1.172a3.4 3.4 0 0 1 1.082-.113h1.32v5.671a4.7 4.7 0 0 1-1.484.176c-2.77-.12-4.383-1.64-4.383-6.164 0-4.523 2.149-6.219 4.805-6.219.984 0 2.16.22 2.992.63Zm36.29 7.234v4.711c-.446.645-1.126 1.098-1.938 1.121-2.27.078-2.567-2.816-2.567-4.367 0-3.066.86-4.324 2.524-4.25 1.715.078 1.98 1.457 1.98 2.785m1.28-7.55H45.45c.399.152.719.496.711 1.066v3.652c-.445-.57-1.234-1.218-2.586-1.218-2.039 0-4.234 1.667-4.234 5.609 0 3.125 1.312 5.527 4.043 5.527.988 0 2.054-.433 2.855-1.215v.442c0 .347.282.629.63.629h1.421V18.516c0-.395-.418-.828-.848-.828m-28.875 8.945v2.781c-.43 1.07-1.48 1.426-2.265 1.426-.938 0-1.77-.606-1.875-1.805-.063-.676.144-1.402.781-1.898.617-.489 1.707-.793 3.36-.504m0-2.137v1.125c-4.761-.324-6.402 1.36-6.308 3.793.055 1.43 1.137 2.93 3.281 2.93 1.227 0 2.316-.563 3.102-1.52v.727c0 .347.28.629.629.629h1.421v-7.184c0-2.652-1.48-3.816-4.218-3.816-1.297 0-2.239.351-3.063.75l-.234 1.379c.734-.563 1.648-1.004 2.902-1.004 1.54 0 2.488.586 2.488 2.191m3.07-3.078c.403.156.72.496.712 1.07v9.692h2.132v-6.856c-.003-1.383.63-2.176 1.348-2.48.52-.223 1.664-.457 2.434.027l-.23-1.379a3.1 3.1 0 0 0-3.055.496q-.287.236-.497.606v-.547a.634.634 0 0 0-.632-.629Zm9.954 6.656V22.22c0-.438-.36-.801-.8-.801h-2.044c.402.156.723.496.715 1.07v5.79c0 2.277.652 4.042 3.504 4.042 1.055 0 2.336-.539 2.887-1.488v.719c0 .347.285.629.628.629h1.442V21.418h-2.129v7.145c0 1.378-.574 1.886-1.29 2.195-.878.375-1.925.293-2.468-.356-.45-.539-.445-1.32-.445-2.328m24.55-1.441v2.781c-.425 1.07-1.476 1.426-2.261 1.426-.938 0-1.77-.606-1.875-1.805-.063-.676.144-1.402.781-1.898.617-.489 1.707-.793 3.356-.504m0-2.137v1.125c-4.757-.324-6.398 1.36-6.304 3.793.055 1.43 1.14 2.93 3.281 2.93 1.227 0 2.317-.563 3.102-1.52v.727c0 .347.285.629.629.629h1.422v-7.184c0-2.652-1.48-3.816-4.215-3.816-1.301 0-2.242.351-3.067.75l-.234 1.379c.734-.563 1.652-1.004 2.898-1.004 1.543 0 2.489.586 2.489 2.191" style="stroke:none;fill-rule:evenodd;fill:#46464a;fill-opacity:1"/></g><path d="M131.996 7.305h5.852s7.254.011 10.117.703c2.336.566 5.402 2.144 7.058 3.406 1.657 1.262 8.262 6.043 8.262 6.043s-.824.957-2.176.957c-.996 0-1.367-.379-1.648-.523l-7.512-5.403c-2.086-1.5-4.25-2.773-6.547-3.578-2.293-.8-4.722-1.129-7.34-1.129h-5.789Zm2.41 4.191h2.836c3.383-.023 5.215.121 7.953 1.125 2.504.918 4.66 2.441 6.809 3.98l4.574 3.282s.785.683 1.567.683c.953 0 1.601-.52 2.347-1.011l-6.129-4.489s-2.656-1.988-5.918-3.062c-3.617-1.195-9.605-.988-9.605-.988h-4.707Zm4.547 3.64H136.5l-.273-.48h3.101s5.817-.011 8.543.887c1.875.617 3.781 1.695 5.543 2.969s4.242 3.054 4.242 3.054c-.648.52-1.14 1.043-2.047 1.043-.714 0-1.433-.39-1.433-.39l-6.168-4.45c-1.664-1.199-3.574-2.042-5.613-2.386-1.141-.195-2.29-.2-3.442-.246" style="stroke:none;fill-rule:evenodd;fill:#338b9c;fill-opacity:1"/><path d="M166.16 8.215c-.668-.012-1.133-.059-1.738-.203a2.24 2.24 0 0 1-1.402-.996c-.364.738.62 1.625 1.097 1.968l4.82 3.434c.727.418 1.149.086 1.149.086s1.254-.66 1.914-.813 2.555-.218 2.797-.175 1.164.636 1.164.636c.285-2.132-1.098-2.332-1.98-2.464a33 33 0 0 0-2.09-.22l-1.61.438-.945-.722s1.914.152 2.422.175c.508.02.375-.199.133-.683-.243-.485-.793-.461-.793-.461ZM128.05.445h8.856s4.938.2 7.285.72c3.696.855 6.926 2.589 10.157 4.894l10.52 7.507c.874.649 2.023 1.063 2.956.555.406-.226.738-.512 1.086-.816l-12.078-8.692c-1.992-1.437-4.434-2.468-6.441-3.074C147.613.7 144.453 0 138.688 0h-10.891Zm10.981 3.223c5.781 0 9.317.629 12.028 1.656 2.062.785 3.808 1.895 5.574 3.164l9.578 6.875s-.414.414-.965.723c-.941.52-2.207.3-3.21-.461l-8.915-6.336c-2.707-1.922-5.34-3.531-8.605-4.43-2.399-.656-7.004-.714-7.004-.714h-7.332l-.274-.477z" style="stroke:none;fill-rule:evenodd;fill:#244685;fill-opacity:1"/></svg>