<svg xmlns="http://www.w3.org/2000/svg" width="135.52" height="59pt" viewBox="0 0 101.64 59"><defs><clipPath id="a"><path d="M90 37h11.64v9H90Zm0 0"/></clipPath><clipPath id="b"><path d="M45 48h56.64v9H45Zm0 0"/></clipPath></defs><path d="M86.977 39.57c.117-.234.222-.445.324-.656a10 10 0 0 0-.758-.437l-.012.136c-.117.235-.222.446-.32.657.219.14.453.289.754.437zM76.695 39.758c.121-.235.227-.45.325-.66a9 9 0 0 0-.758-.434l-.012.133c-.117.234-.223.445-.32.66.222.137.457.29.754.434z" style="stroke:none;fill-rule:nonzero;fill:#9a8a56;fill-opacity:1"/><g clip-path="url(#a)"><path d="M99.738 42.2c-.468.023-.832.038-1.789.027.524-.641 1.239-1.223 1.852-1.223.375 0 .84.254.945.75-.086.297-.539.422-1.008.445m.235-2.258c-.633 0-1.16.375-1.672.934.035-.11.043-.227.054-.395l.168-2.402.102-.191-.918.414c-.254.117-.277.222-.25.48l.277 2.793-.46.64c-.247 0-.712-.003-.973-.01l.004-.005c-.618 0-.52-.418-.457-.668l.117-.496-.371-.101c-.375.796-.574 1.296-1.18 1.296h-.441c-.465 0-.684-.292-1.2-1.136l-.046-.137-.73.547c.358.394.839.945 1.026 1.285-.625 1.148-2.156 1.816-2.93 1.816l.759.7c.175.156.293.199.453.199.578 0 1.93-1.11 2.152-2.484.184.175.398.222.742.222h.406c.43 0 .63-.207.813-.57.215.453.387.57.82.57h3.446c1.046 0 1.636-.984 1.636-1.832 0-.875-.691-1.469-1.347-1.469" style="stroke:none;fill-rule:nonzero;fill:#9a8a56;fill-opacity:1"/></g><path d="M95.797 43.922q-.002-.005-.004-.004l-.012.133c-.117.234-.222.445-.32.656.223.14.453.29.758.438h.004l.011-.137c.118-.23.223-.446.325-.656-.149-.094-.36-.223-.762-.434zM79.656 38.715c0 .16.399 2.469.5 3.351-.148.145-.285.149-.574.157l-.906.007c-.485.008-.723.04-.926-.445a.8.8 0 0 1 .281-.047h.25l.426-.902-.676.008c-.77.004-1.355-.586-2.336-.586-.215 0-.336 0-.52.027l-.609 1.082.399-.176c.074-.007.156-.007.297-.007.953 0 1.43.285 1.77.398-.239.219-.473.36-.704.5-.367.223-1.012.172-1.965.172-.379 0-.511 0-.668-.106.016-.093.028-.195.032-.296l.113-3.743.097-.187-.902.406c-.25.113-.277.207-.277.387 0 .16.367 2.496.46 3.363-.136.133-.277.137-.554.145l-.84.007c-.562.012-.61-.273-.332-1.195l-.37-.101c-.493 1.05-.642 1.296-1.216 1.296h-1.144c-.32 0-.555-.07-.696-.433h.43l.426-.902-.73.003c-.75.008-1.958-.586-2.754-.586-.126 0-.227.008-.352.032l-.61 1.078.395-.176c.078-.008.156-.008.3-.008.477 0 .868.059 1.192.133-1.242.559-2.031 1.746-2.031 3.031 0 1.543 1.3 2.309 2.48 2.309.622 0 1.215-.2 1.407-.426.12-.144.261-.379.562-.89-.34.187-1.258.304-1.64.304-1.102 0-2.23-.394-2.254-1.722.14-1.082 1.496-2.004 2.824-2.157.426 1.352.715 1.418 1.281 1.418h1.188c.418 0 .64-.23.816-.648.192.469.348.648.785.648h1.008c.227 0 .324-.035.39-.11a2.2 2.2 0 0 0 .333-.472c.293.535.574.582 1.015.582h1.008c.434 0 .727-.074 1.211-.582.313-.324.527-.543.703-.687.301.937.446 1.27.965 1.27h1.297c.23 0 .328-.032.394-.098.227-.223.555-.715.563-1.29l.07-3.742.102-.187-.906.406c-.25.113-.278.207-.278.387" style="stroke:none;fill-rule:nonzero;fill:#9a8a56;fill-opacity:1"/><path d="M66.133 44.129c.222.14.457.289.758.434l.011-.133c.118-.235.223-.446.325-.66a9 9 0 0 0-.762-.434l-.008.133c-.117.234-.227.449-.324.66M88.676 39.723l-.707.46c-.23.153-.239.223-.239.282 0 .21.43.808.73 1.746-.312.371-1.042.668-1.812.668-.691 0-1.277-.262-1.277-.883 0-.3.043-.71.258-1.203l-.34-.148c-.36.605-.5 1.125-.504 1.539-.012 1.023.559 1.738 1.824 1.738 1.524 0 2.235-.883 2.336-1.824.055-.524-.105-1.45-.297-2.176zM71.016 44.082c-.118.234-.223.45-.325.66.223.14.457.29.758.434l.012-.133c.117-.234.223-.445.32-.66a9 9 0 0 0-.754-.434zM94.645 43.785c0-.004-.004-.004-.004-.004l-.012.133c-.117.238-.223.445-.324.66.222.14.457.29.757.434h.008l.012-.133c.113-.234.219-.445.32-.656a9 9 0 0 0-.757-.438zM81.598 38.813l.441 4.183-.043.363c.43-.464.531-.578.547-1.082l.125-4.168.098-.187-.914.414c-.254.113-.286.223-.254.477M90.21 43.36c.43-.465.532-.583.548-1.083l.125-4.168.097-.187-.914.414c-.254.113-.285.219-.254.477l.438 4.183zM69.86 43.95c-.118.234-.223.445-.325.655.227.141.461.293.762.438l.008-.137c.117-.23.226-.445.324-.656a9 9 0 0 0-.758-.434z" style="stroke:none;fill-rule:nonzero;fill:#9a8a56;fill-opacity:1"/><g clip-path="url(#b)"><path d="M71.965 49.48v7.063h1.957V53.59h1.996c.555 0 .594-.16.719-1.004l-.242.078-2.473.04v-1.606c0-.325-.027-.461-.172-.641l-.219-.289h4.344l.27.176v-1.176H71.8Zm18.758 0v7.063h1.957v-7.375h-2.121Zm-6.875 4.149 1.144-2.531 1.145 2.53Zm2.554-4.176c-.37-.793-.734-.832-2.336-.113l.2.14.16.356-3.082 6.707h1.183l.875-1.93h3.176l.61 1.348c.39.879.785 1.004 2.523.18l-.242-.18Zm11.063 3.442h-1.176v-1.797c0-.325-.027-.461-.172-.641l-.219-.289h1.329c1.441 0 2.027.406 2.027 1.387 0 .824-.473 1.34-1.79 1.34m3.927 3.074c-.536-.832-1.164-1.785-1.621-2.371 1.02-.391 1.554-1.086 1.554-1.985 0-1.605-1.176-2.445-3.172-2.445h-3.984l.164.312v7.063h1.957v-2.57h1.617a45 45 0 0 1 1.278 2.16c.46.812.824.879 2.457 0Zm-49.344-2.676v1.09c0 .324.027.457.172.64l.125.16a4.2 4.2 0 0 1-1.586.31c-1.586 0-2.899-1.098-2.899-3.18 0-1.446.633-2.192 2.141-2.192 1.32 0 2.41.242 3.758.672l.058-1.328c-.593-.192-2.37-.442-3.27-.442-2.913 0-4.976 1.082-4.976 3.82 0 2.677 2.235 3.755 4.813 3.755 1.414 0 3.105-.516 3.613-.762V52.93l-2.187-.016Zm14.012 2.246.218-.285c.145-.184.172-.316.172-.64v-5.446h-2.117l.16.312v7.063h6.371v-1.176l-.265.172Zm-4.286-6.059v4.11c0 1.433-.566 2.047-2.132 2.047-1.664 0-2.168-.672-2.168-2.153v-4.316h-2.121l.164.312v4.407c0 1.91 1.433 2.75 3.808 2.75 2.723 0 3.469-1.336 3.469-3.047l.012-4.422H61.57z" style="stroke:none;fill-rule:nonzero;fill:#19181d;fill-opacity:1"/></g><path d="M51.004 0s-.145.988-.219 1.074c-.074.09-1.414 1.77-3.46 3.645-1.958 1.785-12.098 9.941-13.602 11.386-4.782 4.458-7.176 10.208-7.176 10.208.008-.004.484-.633 2.805-2.301 2.328-1.676 7.668-4.692 13.503-8.102 4.489-2.617 9.165-6.95 9.247-11.785.02-1.344-.313-2.727-1.098-4.125m-5.375 15.434c-4.11 2.644-9.996 6.004-13.918 8.148-6.43 3.512-7.906 7.3-8.457 9.84 1.465-1.738 10.3-5.738 16.906-8.399 7.574-3.05 11.692-6.52 11.774-11.976q.03-1.728-.59-3.633c-.13 1.688-2.438 3.91-5.715 6.02M28.875 30.945c-3.543 1.84-5.145 2.668-5.61 3.711 0 0-1.019 2.559-1.413 3.29-.395.726-1.13 1.226-1.774 1.195a26 26 0 0 0-2.238-.22c-1.531-.073-3.363.122-4.164.567-.64.352-1.649 1.625-1.649 1.625.633.414 1.336.035 1.336.035s-.332-.343-.312-.457c.008-.066.11-.164.273-.28.09.413.461.71.934.675.453-.035.86-.39.96-.84a.93.93 0 0 0-.128-.723c.527-.015.96.309.957.457-.004.239-.75 1.317-1.645 1.442.11.492 1.192.594 1.153.894-.02.133-.121.246-.258.356-.168.137.719.426 1.328.45 2.074.081 2.625-.68 3.352-1.657a.9.9 0 0 1 .722-.348c.555.004 4.219 2.238 8.086 2.297 3.637.055 6.332-1.71 6.91-3.793-.472.149-1.8.61-3.23.59-3.684-.055-5.16-1.828-5.16-1.828s1.996.785 4.375.82c5.925.09 7.011-4.723 7.418-6.308-.801.515-3.614 2.343-9.047 2.261-1.692-.027-2.653-.273-3.64-.718 1.913.019 4.062-.13 5.808-.485 6.468-1.324 10.668-4.32 11.574-9.035-4.645 1.988-11.25 4.125-14.918 6.027m-18.355 12c-.008.543.601.711.671.703l.145-.652s.633-.156 1.11-.25c.472-.094.796.606.796.606s1.117-.102 1.469-.79c-.043-.175-1.867-.078-2.215-.054-.344.023-.613-.242-1.168-.719 0 0-.797.352-.808 1.156M12.852 44a8 8 0 0 1-.559.234c-.113.047-.2.078-.25.086.055.024.812.477 1.773-.5 0 0 1.727.946 2.883 1.2-.297.933-2.71 2.761-4.234 4.187-2.461 2.305-5.133 8.828-7.54 9.668A6 6 0 0 0 5.989 59c3.172.047 4.785-2.984 5.32-3.73-.882 2.21-1.765 3.433-2.253 3.406a5.7 5.7 0 0 0 1.597.242c2.172.031 3.692-1.309 3.692-1.309l-1.875-.98s2.398.992 4.37 1.023c2.063.032 2.415-.855 2.415-.855l-2.328-1.309c.441.239 1.695.75 2.836.766 2.972.047 4.453-2.797 4.66-4.32-.176.312-1.031 1.66-2.281 1.507.132-.156.16-.492-.04-.671-.015-.02-.035-.032-.054-.047-.184-.121-1.629-1.578-2.715-2.485-.082.282-.113.414-.223.82-.207.766-.836 1.075-1.304 1.067-.703-.012-1.13-.652-1.235-.86.325.32.61.47.828.481.172-.234.301-.336.528-.402a.96.96 0 0 0 .41-.219c.039-.043.496-.496.504-1.02a.59.59 0 0 0-.336-.558c-.34-.172-.61-.176-.984-.184-.586-.004-.82-.039-.985-.207-.12-.125-.176-.187-.355-.191-.27-.004-.426.215-.426.215.035-.465.312-.754.707-.75.059 0 .121.015.184.03.187.056 2.226.59 2.628.782.239.113 2.504 1.91 2.504 1.91.457-.297.774-1.476.778-2.117.175-.09.496-.02.933.324.446.352 1.813 1.59 1.977 1.778-.266 2.16 1.078 6.379 3.148 6.41.309.004.535-.098.578-.117-.187-.082-.265-.266-.37-.637l-.356-1.5s.453.605 2.125 2.453c.898 1 1.715 1.242 2.265 1.254.63.008.934-.238.993-.305-.258-.011-.559-.242-.973-.761l-1.598-2.094c2.535 2.312 4.332 2.84 5.434 2.855.926.016 1.332-.332 1.332-.332l-5.348-4.812 6.344 3.531c.742-2.207-.887-3.617-1.781-4.125-.895-.508-4.254-2.375-4.254-2.375l3.422.734c1.52.317 2.418.82 2.402 1.196a1.7 1.7 0 0 0 .137-.653c-.016-3.718-5.836-3.52-5.836-3.52l1.351-.308c1.57-.332 2.438-.246 2.575.074a2.3 2.3 0 0 0-.07-.648c-.442-1.41-1.344-1.887-4.188-2.594l-3.984-.925c1.269 1.3 1.785 4.867.328 6.535-.012-.375-.18-.707-.399-.887-.238.941-.789 2.098-2.082 1.95.012-.052.113-.263-.242-.59-.723-.673-3.047-2.786-3.887-3.551-.043.285-.07.386-.168.8-.222.961-.957 1.356-1.492 1.336-.648-.02-1.164-.566-1.305-.793.399.313 1.125.438 1.192.383.031-.21.207-.383.328-.484.203-.172.555-.282.617-.703.078-.485-.32-.707-.59-.664-.652.12-1.394.261-1.554.273a.6.6 0 0 1-.41-.09c-.09-.055-.172-.105-.344-.09-.407.032-.535.403-.535.403-.145-.614.242-1.059.75-1.102.085-.008 2.363-.137 3.015-.125.414.004.77.05 1.016.168.562.355 1.738 1.207 1.98 1.422.469-1.066.344-3.078-.199-3.488-3.695-.739-7.809-.075-10.316-1.457-.34.175-1.368.68-1.664.816m6.601 1.281c.149.051 1.785.649 2.719 1.016-.379-.016-.797.004-1.23.023l-.61.024-.61-.067c-.41-.058-.343-.3-.675-.347-.399-.055-.606.289-.606.289 0-.649.547-1.098 1.012-.938m-3.21 4.356c.1-.008.937-.032 1.359-.028.296.004 1 .047.992.528 0 .086-.02.18-.051.273-.086-.215-.32-.32-.5-.32-.195-.004-1.121.277-1.418.273-.258 0-.3-.144-.484-.148-.387-.008-.52.34-.52.34-.121-.508.195-.875.621-.918M.734 56.785c-.199.016-.613-.027-.734-.086 0 0 .246 1.992 2.805 2.035 1.523.02 2.894-.972 3.922-2.566 1.136-1.773 3.117-4.824 3.32-5.086-1.168 1.316-6.594 4.887-9.313 5.703m38.305.297h.004z" style="stroke:none;fill-rule:nonzero;fill:#9a8a56;fill-opacity:1"/><path d="M5.86 58.645c1.808-.602 2.992-1.872 5.148-5.516 1.035-1.754 1.933-3.426 2.367-4.379-.258.227-.508.45-.73.66-1.02.953-2.114 2.707-3.168 4.403-1.243 1.996-2.43 3.902-3.618 4.832m1.538-5.125c-2.125 1.44-4.886 3.015-6.593 3.53l-.067.013a3 3 0 0 1-.363-.008c.3.215.836.3 1.242.308.965.028 2.028-.39 2.852-1.113.683-.602 1.843-1.656 2.906-2.676zM27.434 25.078c1.484-1.691 5.582-5.824 13.367-11.113 6.695-4.55 10.511-8.406 10.511-11.688 0-.465-.078-1.05-.175-1.476l-.016.074c-.062.297-.105.344-.137.383l-.035.039a35 35 0 0 1-3.453 3.625c-.941.863-3.7 3.133-6.621 5.539-3.047 2.508-6.2 5.102-6.973 5.848-3.3 3.074-5.468 6.808-6.468 8.765Zm23.902-14.644c-.898 1.992-3.766 4.074-5.57 5.234-4.137 2.664-10.09 6.059-13.934 8.156-5.613 3.067-7.387 6.328-8.094 8.762 1.086-1.426 5.285-5.41 12.383-8.477 7.418-3.203 14.965-7.675 15.285-12.96 0-.512.016-.61-.058-.735ZM23.726 34.41c.325-.07 1.133-.254 1.551-.332 1.227-.226 4.07-.883 7.235-1.98 7.203-2.508 8.445-4.043 10.61-6.567l.046-.054c-1.727.714-3.68 1.453-5.578 2.168-3.16 1.195-6.43 2.425-8.598 3.55h-.004c-3.027 1.57-4.62 2.395-5.261 3.215m-.078.102a2 2 0 0 0-.144.258c-.035.093-1.024 2.574-1.418 3.308-.32.586-.832 1.035-1.375 1.23l-.098.032c.528.203 1.813.394 2.36-.746.82-1.711.925-2.973.902-3.649-.008-.285-.187-.406-.223-.433zM28.46 56.535q-.726-.135-1.741-1.37c-.184-.227-.547-1-.63-1.02l.099.304c.273.805.652 1.555 1.109 2.086.418.48.86.727 1.305.735h.078a3 3 0 0 1-.137-.403l-.078-.328Zm1.52.125c.227.262.497.559.805.903.856.945 1.594 1.152 2.063 1.16q.204.001.355-.028a4 4 0 0 1-.555-.59l-.136-.18h-.004c-.54-.046-1.121-.28-1.742-.71q-.437-.305-.782-.55Zm2.938.18c1.723 1.254 2.98 1.566 3.785 1.578.379.004.656-.055.844-.117l-.89-.801v.004a4.2 4.2 0 0 1-.817.059q-1.272-.032-2.918-.72Zm5.187-.59.754.418c.48-2.074-1.359-3.246-1.75-3.469-.46-.261-1.586-.89-2.566-1.437l.004.004c.762.597 1.723 1.355 2.05 1.617.594.472 1.43 1.527 1.446 2.836Zm-.464-4.887c.379.133.757.297 1.035.5v-.074c-.02-.715-.281-1.32-.781-1.8-.958-.923-2.579-1.227-3.665-1.325l.004.043c1.118.375 2.946 1.172 3.407 2.652Zm-2.114-3.785q.75-.081 1.196.02c-.008-.02-.012-.043-.02-.063l-.012-.043c-.359-1.105-1.03-1.574-3.289-2.183h-.109c.914.59 1.871 1.441 2.234 2.265z" style="stroke:none;fill-rule:nonzero;fill:#aea174;fill-opacity:1"/></svg>