<?xml version="1.0" encoding="UTF-8"?>
<svg xmlns="http://www.w3.org/2000/svg" xmlns:xlink="http://www.w3.org/1999/xlink" width="101.64pt" height="59pt" viewBox="0 0 101.64 59" version="1.1">
<defs>
<clipPath id="clip1">
  <path d="M 90 37 L 101.640625 37 L 101.640625 46 L 90 46 Z M 90 37 "/>
</clipPath>
<clipPath id="clip2">
  <path d="M 45 48 L 101.640625 48 L 101.640625 57 L 45 57 Z M 45 48 "/>
</clipPath>
</defs>
<g id="surface1">
<path style=" stroke:none;fill-rule:nonzero;fill:rgb(60.388184%,54.258728%,33.529663%);fill-opacity:1;" d="M 86.976562 39.570312 C 87.09375 39.335938 87.199219 39.125 87.300781 38.914062 C 87.15625 38.820312 86.945312 38.691406 86.542969 38.476562 L 86.53125 38.613281 C 86.414062 38.847656 86.308594 39.058594 86.210938 39.269531 C 86.429688 39.410156 86.664062 39.558594 86.964844 39.707031 L 86.976562 39.570312 "/>
<path style=" stroke:none;fill-rule:nonzero;fill:rgb(60.388184%,54.258728%,33.529663%);fill-opacity:1;" d="M 76.695312 39.757812 C 76.816406 39.523438 76.921875 39.308594 77.019531 39.097656 C 76.875 39.003906 76.664062 38.875 76.261719 38.664062 L 76.25 38.796875 C 76.132812 39.03125 76.027344 39.242188 75.929688 39.457031 C 76.152344 39.59375 76.386719 39.746094 76.683594 39.890625 L 76.695312 39.757812 "/>
<g clip-path="url(#clip1)" clip-rule="nonzero">
<path style=" stroke:none;fill-rule:nonzero;fill:rgb(60.388184%,54.258728%,33.529663%);fill-opacity:1;" d="M 99.738281 42.199219 C 99.269531 42.222656 98.90625 42.238281 97.949219 42.226562 C 98.472656 41.585938 99.1875 41.003906 99.800781 41.003906 C 100.175781 41.003906 100.640625 41.257812 100.746094 41.753906 C 100.660156 42.050781 100.207031 42.175781 99.738281 42.199219 M 99.972656 39.941406 C 99.339844 39.941406 98.8125 40.316406 98.300781 40.875 C 98.335938 40.765625 98.34375 40.648438 98.355469 40.480469 L 98.523438 38.078125 L 98.625 37.886719 L 97.707031 38.300781 C 97.453125 38.417969 97.429688 38.523438 97.457031 38.78125 L 97.734375 41.574219 L 97.273438 42.214844 C 97.027344 42.214844 96.5625 42.210938 96.300781 42.203125 L 96.304688 42.199219 C 95.6875 42.199219 95.785156 41.78125 95.847656 41.53125 L 95.964844 41.035156 L 95.59375 40.933594 C 95.21875 41.730469 95.019531 42.230469 94.414062 42.230469 L 93.972656 42.230469 C 93.507812 42.230469 93.289062 41.9375 92.773438 41.09375 L 92.726562 40.957031 L 91.996094 41.503906 C 92.355469 41.898438 92.835938 42.449219 93.023438 42.789062 C 92.398438 43.9375 90.867188 44.605469 90.09375 44.605469 L 90.851562 45.304688 C 91.027344 45.460938 91.144531 45.503906 91.304688 45.503906 C 91.882812 45.503906 93.234375 44.394531 93.457031 43.019531 C 93.640625 43.195312 93.855469 43.242188 94.199219 43.242188 L 94.605469 43.242188 C 95.035156 43.242188 95.234375 43.035156 95.417969 42.671875 C 95.632812 43.125 95.804688 43.242188 96.238281 43.242188 L 99.683594 43.242188 C 100.730469 43.242188 101.320312 42.257812 101.320312 41.410156 C 101.320312 40.535156 100.628906 39.941406 99.972656 39.941406 "/>
</g>
<path style=" stroke:none;fill-rule:nonzero;fill:rgb(60.388184%,54.258728%,33.529663%);fill-opacity:1;" d="M 95.796875 43.921875 C 95.796875 43.917969 95.792969 43.917969 95.792969 43.917969 L 95.78125 44.050781 C 95.664062 44.285156 95.558594 44.496094 95.460938 44.707031 C 95.683594 44.847656 95.914062 44.996094 96.21875 45.144531 L 96.222656 45.144531 L 96.234375 45.007812 C 96.351562 44.777344 96.457031 44.5625 96.558594 44.351562 C 96.410156 44.257812 96.199219 44.128906 95.796875 43.917969 L 95.796875 43.921875 "/>
<path style=" stroke:none;fill-rule:nonzero;fill:rgb(60.388184%,54.258728%,33.529663%);fill-opacity:1;" d="M 79.65625 38.714844 C 79.65625 38.875 80.054688 41.183594 80.15625 42.066406 C 80.007812 42.210938 79.871094 42.214844 79.582031 42.222656 L 78.675781 42.230469 C 78.191406 42.238281 77.953125 42.269531 77.75 41.785156 C 77.839844 41.753906 77.929688 41.738281 78.03125 41.738281 L 78.28125 41.738281 L 78.707031 40.835938 L 78.03125 40.84375 C 77.261719 40.847656 76.675781 40.257812 75.695312 40.257812 C 75.480469 40.257812 75.359375 40.257812 75.175781 40.285156 L 74.566406 41.367188 L 74.964844 41.191406 C 75.039062 41.183594 75.121094 41.183594 75.261719 41.183594 C 76.214844 41.183594 76.691406 41.46875 77.03125 41.582031 C 76.792969 41.800781 76.558594 41.941406 76.328125 42.082031 C 75.960938 42.304688 75.316406 42.253906 74.363281 42.253906 C 73.984375 42.253906 73.851562 42.253906 73.695312 42.148438 C 73.710938 42.054688 73.722656 41.953125 73.726562 41.851562 L 73.839844 38.109375 L 73.9375 37.921875 L 73.035156 38.328125 C 72.785156 38.441406 72.757812 38.535156 72.757812 38.714844 C 72.757812 38.875 73.125 41.210938 73.21875 42.078125 C 73.082031 42.210938 72.941406 42.214844 72.664062 42.222656 L 71.824219 42.230469 C 71.261719 42.242188 71.214844 41.957031 71.492188 41.035156 L 71.121094 40.933594 C 70.628906 41.984375 70.480469 42.230469 69.90625 42.230469 L 68.761719 42.230469 C 68.441406 42.230469 68.207031 42.160156 68.066406 41.796875 L 68.496094 41.796875 L 68.921875 40.894531 L 68.191406 40.898438 C 67.441406 40.90625 66.234375 40.3125 65.4375 40.3125 C 65.3125 40.3125 65.210938 40.320312 65.085938 40.34375 L 64.476562 41.421875 L 64.871094 41.246094 C 64.949219 41.238281 65.027344 41.238281 65.171875 41.238281 C 65.648438 41.238281 66.039062 41.296875 66.363281 41.371094 C 65.121094 41.929688 64.332031 43.117188 64.332031 44.402344 C 64.332031 45.945312 65.632812 46.710938 66.8125 46.710938 C 67.433594 46.710938 68.027344 46.511719 68.21875 46.285156 C 68.339844 46.140625 68.480469 45.90625 68.78125 45.394531 C 68.441406 45.582031 67.523438 45.699219 67.140625 45.699219 C 66.039062 45.699219 64.910156 45.304688 64.886719 43.976562 C 65.027344 42.894531 66.382812 41.972656 67.710938 41.820312 C 68.136719 43.171875 68.425781 43.238281 68.992188 43.238281 L 70.179688 43.238281 C 70.597656 43.238281 70.820312 43.007812 70.996094 42.589844 C 71.1875 43.058594 71.34375 43.238281 71.78125 43.238281 L 72.789062 43.238281 C 73.015625 43.238281 73.113281 43.203125 73.179688 43.128906 C 73.28125 43.023438 73.40625 42.855469 73.511719 42.65625 C 73.804688 43.191406 74.085938 43.238281 74.527344 43.238281 L 75.535156 43.238281 C 75.96875 43.238281 76.261719 43.164062 76.746094 42.65625 C 77.058594 42.332031 77.273438 42.113281 77.449219 41.96875 C 77.75 42.90625 77.894531 43.238281 78.414062 43.238281 L 79.710938 43.238281 C 79.941406 43.238281 80.039062 43.207031 80.105469 43.140625 C 80.332031 42.917969 80.660156 42.425781 80.667969 41.851562 L 80.738281 38.109375 L 80.839844 37.921875 L 79.933594 38.328125 C 79.683594 38.441406 79.65625 38.535156 79.65625 38.714844 "/>
<path style=" stroke:none;fill-rule:nonzero;fill:rgb(60.388184%,54.258728%,33.529663%);fill-opacity:1;" d="M 66.132812 44.128906 C 66.355469 44.269531 66.589844 44.417969 66.890625 44.5625 L 66.902344 44.429688 C 67.019531 44.195312 67.125 43.984375 67.226562 43.769531 C 67.082031 43.675781 66.867188 43.546875 66.464844 43.335938 L 66.457031 43.46875 C 66.339844 43.703125 66.230469 43.917969 66.132812 44.128906 "/>
<path style=" stroke:none;fill-rule:nonzero;fill:rgb(60.388184%,54.258728%,33.529663%);fill-opacity:1;" d="M 88.675781 39.722656 L 87.96875 40.183594 C 87.738281 40.335938 87.730469 40.40625 87.730469 40.464844 C 87.730469 40.675781 88.160156 41.273438 88.460938 42.210938 C 88.148438 42.582031 87.417969 42.878906 86.648438 42.878906 C 85.957031 42.878906 85.371094 42.617188 85.371094 41.996094 C 85.371094 41.695312 85.414062 41.285156 85.628906 40.792969 L 85.289062 40.644531 C 84.929688 41.25 84.789062 41.769531 84.785156 42.183594 C 84.773438 43.207031 85.34375 43.921875 86.609375 43.921875 C 88.132812 43.921875 88.84375 43.039062 88.945312 42.097656 C 89 41.574219 88.839844 40.648438 88.648438 39.921875 L 88.675781 39.722656 "/>
<path style=" stroke:none;fill-rule:nonzero;fill:rgb(60.388184%,54.258728%,33.529663%);fill-opacity:1;" d="M 71.015625 44.082031 C 70.898438 44.316406 70.792969 44.53125 70.691406 44.742188 C 70.914062 44.882812 71.148438 45.03125 71.449219 45.175781 L 71.460938 45.042969 C 71.578125 44.808594 71.683594 44.597656 71.78125 44.382812 C 71.640625 44.289062 71.425781 44.160156 71.027344 43.949219 L 71.015625 44.082031 "/>
<path style=" stroke:none;fill-rule:nonzero;fill:rgb(60.388184%,54.258728%,33.529663%);fill-opacity:1;" d="M 94.644531 43.785156 C 94.644531 43.78125 94.640625 43.78125 94.640625 43.78125 L 94.628906 43.914062 C 94.511719 44.152344 94.40625 44.359375 94.304688 44.574219 C 94.527344 44.714844 94.761719 44.863281 95.0625 45.007812 L 95.070312 45.007812 L 95.082031 44.875 C 95.195312 44.640625 95.300781 44.429688 95.402344 44.21875 C 95.257812 44.121094 95.046875 43.996094 94.644531 43.78125 L 94.644531 43.785156 "/>
<path style=" stroke:none;fill-rule:nonzero;fill:rgb(60.388184%,54.258728%,33.529663%);fill-opacity:1;" d="M 81.597656 38.8125 L 82.039062 42.996094 L 81.996094 43.359375 C 82.425781 42.894531 82.527344 42.78125 82.542969 42.277344 L 82.667969 38.109375 L 82.765625 37.921875 L 81.851562 38.335938 C 81.597656 38.449219 81.566406 38.558594 81.597656 38.8125 "/>
<path style=" stroke:none;fill-rule:nonzero;fill:rgb(60.388184%,54.258728%,33.529663%);fill-opacity:1;" d="M 90.210938 43.359375 C 90.640625 42.894531 90.742188 42.777344 90.757812 42.277344 L 90.882812 38.109375 L 90.980469 37.921875 L 90.066406 38.335938 C 89.8125 38.449219 89.78125 38.554688 89.8125 38.8125 L 90.25 42.996094 L 90.210938 43.359375 "/>
<path style=" stroke:none;fill-rule:nonzero;fill:rgb(60.388184%,54.258728%,33.529663%);fill-opacity:1;" d="M 69.859375 43.949219 C 69.742188 44.183594 69.636719 44.394531 69.535156 44.605469 C 69.761719 44.746094 69.996094 44.898438 70.296875 45.042969 L 70.304688 44.90625 C 70.421875 44.675781 70.53125 44.460938 70.628906 44.25 C 70.484375 44.15625 70.273438 44.027344 69.871094 43.816406 L 69.859375 43.949219 "/>
<g clip-path="url(#clip2)" clip-rule="nonzero">
<path style=" stroke:none;fill-rule:nonzero;fill:rgb(9.667969%,9.591675%,11.51123%);fill-opacity:1;" d="M 71.964844 49.480469 L 71.964844 56.542969 L 73.921875 56.542969 L 73.921875 53.589844 L 75.917969 53.589844 C 76.472656 53.589844 76.511719 53.429688 76.636719 52.585938 L 76.394531 52.664062 L 73.921875 52.703125 L 73.921875 51.097656 C 73.921875 50.773438 73.894531 50.636719 73.75 50.457031 L 73.53125 50.167969 L 77.875 50.167969 L 78.144531 50.34375 L 78.144531 49.167969 L 71.800781 49.167969 Z M 90.722656 49.480469 L 90.722656 56.542969 L 92.679688 56.542969 L 92.679688 49.167969 L 90.558594 49.167969 Z M 83.847656 53.628906 L 84.992188 51.097656 L 86.136719 53.628906 Z M 86.402344 49.453125 C 86.03125 48.660156 85.667969 48.621094 84.066406 49.339844 L 84.265625 49.480469 L 84.425781 49.835938 L 81.34375 56.542969 L 82.527344 56.542969 L 83.402344 54.613281 L 86.578125 54.613281 L 87.1875 55.960938 C 87.578125 56.839844 87.972656 56.964844 89.710938 56.140625 L 89.46875 55.960938 Z M 97.464844 52.894531 L 96.289062 52.894531 L 96.289062 51.097656 C 96.289062 50.773438 96.261719 50.636719 96.117188 50.457031 L 95.898438 50.167969 L 97.226562 50.167969 C 98.667969 50.167969 99.253906 50.574219 99.253906 51.554688 C 99.253906 52.378906 98.78125 52.894531 97.464844 52.894531 M 101.390625 55.96875 C 100.855469 55.136719 100.226562 54.183594 99.769531 53.597656 C 100.789062 53.207031 101.324219 52.511719 101.324219 51.613281 C 101.324219 50.007812 100.148438 49.167969 98.152344 49.167969 L 94.167969 49.167969 L 94.332031 49.480469 L 94.332031 56.542969 L 96.289062 56.542969 L 96.289062 53.972656 L 97.90625 53.972656 C 98.347656 54.65625 98.847656 55.535156 99.183594 56.132812 C 99.644531 56.945312 100.007812 57.011719 101.640625 56.132812 Z M 52.046875 53.292969 L 52.046875 54.382812 C 52.046875 54.707031 52.074219 54.839844 52.21875 55.023438 L 52.34375 55.183594 C 51.832031 55.390625 51.289062 55.492188 50.757812 55.492188 C 49.171875 55.492188 47.859375 54.394531 47.859375 52.3125 C 47.859375 50.867188 48.492188 50.121094 50 50.121094 C 51.320312 50.121094 52.410156 50.363281 53.757812 50.792969 L 53.816406 49.464844 C 53.222656 49.273438 51.445312 49.023438 50.546875 49.023438 C 47.632812 49.023438 45.570312 50.105469 45.570312 52.84375 C 45.570312 55.519531 47.804688 56.597656 50.382812 56.597656 C 51.796875 56.597656 53.488281 56.082031 53.996094 55.835938 L 53.996094 52.929688 L 51.808594 52.914062 Z M 66.058594 55.539062 L 66.277344 55.253906 C 66.421875 55.070312 66.449219 54.9375 66.449219 54.613281 L 66.449219 49.167969 L 64.332031 49.167969 L 64.492188 49.480469 L 64.492188 56.542969 L 70.863281 56.542969 L 70.863281 55.367188 L 70.597656 55.539062 Z M 61.773438 49.480469 L 61.773438 53.589844 C 61.773438 55.023438 61.207031 55.636719 59.640625 55.636719 C 57.976562 55.636719 57.472656 54.964844 57.472656 53.484375 L 57.472656 49.167969 L 55.351562 49.167969 L 55.515625 49.480469 L 55.515625 53.886719 C 55.515625 55.796875 56.949219 56.636719 59.324219 56.636719 C 62.046875 56.636719 62.792969 55.300781 62.792969 53.589844 L 62.804688 49.167969 L 61.570312 49.167969 L 61.773438 49.480469 "/>
</g>
<path style=" stroke:none;fill-rule:nonzero;fill:rgb(60.388184%,54.258728%,33.529663%);fill-opacity:1;" d="M 51.003906 0 C 51.003906 0 50.859375 0.988281 50.785156 1.074219 C 50.710938 1.164062 49.371094 2.84375 47.324219 4.71875 C 45.367188 6.503906 35.226562 14.660156 33.722656 16.105469 C 28.941406 20.5625 26.546875 26.3125 26.546875 26.3125 C 26.554688 26.308594 27.03125 25.679688 29.351562 24.011719 C 31.679688 22.335938 37.019531 19.320312 42.855469 15.910156 C 47.34375 13.292969 52.019531 8.960938 52.101562 4.125 C 52.121094 2.78125 51.789062 1.398438 51.003906 0 M 45.628906 15.433594 C 41.519531 18.078125 35.632812 21.4375 31.710938 23.582031 C 25.28125 27.09375 23.804688 30.882812 23.253906 33.421875 C 24.71875 31.683594 33.554688 27.683594 40.160156 25.023438 C 47.734375 21.972656 51.851562 18.503906 51.933594 13.046875 C 51.953125 11.894531 51.757812 10.683594 51.34375 9.414062 C 51.214844 11.101562 48.90625 13.324219 45.628906 15.433594 M 28.875 30.945312 C 25.332031 32.785156 23.730469 33.613281 23.265625 34.65625 C 23.265625 34.65625 22.246094 37.214844 21.851562 37.945312 C 21.457031 38.671875 20.722656 39.171875 20.078125 39.140625 C 19.421875 39.050781 18.644531 38.960938 17.839844 38.921875 C 16.308594 38.847656 14.476562 39.042969 13.675781 39.488281 C 13.035156 39.839844 12.027344 41.113281 12.027344 41.113281 C 12.660156 41.527344 13.363281 41.148438 13.363281 41.148438 C 13.363281 41.148438 13.03125 40.804688 13.050781 40.691406 C 13.058594 40.625 13.160156 40.527344 13.324219 40.410156 C 13.414062 40.824219 13.785156 41.121094 14.257812 41.085938 C 14.710938 41.050781 15.117188 40.695312 15.21875 40.246094 C 15.277344 39.976562 15.222656 39.71875 15.089844 39.523438 C 15.617188 39.507812 16.050781 39.832031 16.046875 39.980469 C 16.042969 40.21875 15.296875 41.296875 14.402344 41.421875 C 14.511719 41.914062 15.59375 42.015625 15.554688 42.316406 C 15.535156 42.449219 15.433594 42.5625 15.296875 42.671875 C 15.128906 42.808594 16.015625 43.097656 16.625 43.121094 C 18.699219 43.203125 19.25 42.441406 19.976562 41.464844 C 20.144531 41.238281 20.433594 41.109375 20.699219 41.117188 C 21.253906 41.121094 24.917969 43.355469 28.785156 43.414062 C 32.421875 43.46875 35.117188 41.703125 35.695312 39.621094 C 35.222656 39.769531 33.894531 40.230469 32.464844 40.210938 C 28.78125 40.15625 27.304688 38.382812 27.304688 38.382812 C 27.304688 38.382812 29.300781 39.167969 31.679688 39.203125 C 37.605469 39.292969 38.691406 34.480469 39.097656 32.894531 C 38.296875 33.410156 35.484375 35.238281 30.050781 35.15625 C 28.359375 35.128906 27.398438 34.882812 26.410156 34.4375 C 28.324219 34.457031 30.472656 34.308594 32.21875 33.953125 C 38.6875 32.628906 42.886719 29.632812 43.792969 24.917969 C 39.148438 26.90625 32.542969 29.042969 28.875 30.945312 M 10.519531 42.945312 C 10.511719 43.488281 11.121094 43.65625 11.191406 43.648438 L 11.335938 42.996094 C 11.335938 42.996094 11.96875 42.839844 12.445312 42.746094 C 12.917969 42.652344 13.242188 43.351562 13.242188 43.351562 C 13.242188 43.351562 14.359375 43.25 14.710938 42.5625 C 14.667969 42.386719 12.84375 42.484375 12.496094 42.507812 C 12.152344 42.53125 11.882812 42.265625 11.328125 41.789062 C 11.328125 41.789062 10.53125 42.140625 10.519531 42.945312 M 12.851562 44 C 12.664062 44.085938 12.472656 44.167969 12.292969 44.234375 C 12.179688 44.28125 12.09375 44.3125 12.042969 44.320312 C 12.097656 44.34375 12.855469 44.796875 13.816406 43.820312 C 13.816406 43.820312 15.542969 44.765625 16.699219 45.019531 C 16.402344 45.953125 13.988281 47.78125 12.464844 49.207031 C 10.003906 51.511719 7.332031 58.035156 4.925781 58.875 C 5.296875 58.953125 5.710938 58.996094 5.988281 59 C 9.160156 59.046875 10.773438 56.015625 11.308594 55.269531 C 10.425781 57.480469 9.542969 58.703125 9.054688 58.675781 C 9.613281 58.847656 10.152344 58.910156 10.652344 58.917969 C 12.824219 58.949219 14.34375 57.609375 14.34375 57.609375 L 12.46875 56.628906 C 12.46875 56.628906 14.867188 57.621094 16.839844 57.652344 C 18.902344 57.683594 19.253906 56.796875 19.253906 56.796875 L 16.925781 55.488281 C 17.367188 55.726562 18.621094 56.238281 19.761719 56.253906 C 22.734375 56.300781 24.214844 53.457031 24.421875 51.933594 C 24.246094 52.246094 23.390625 53.59375 22.140625 53.441406 C 22.273438 53.285156 22.300781 52.949219 22.101562 52.769531 C 22.085938 52.75 22.066406 52.738281 22.046875 52.722656 C 21.863281 52.601562 20.417969 51.144531 19.332031 50.238281 C 19.25 50.519531 19.21875 50.652344 19.109375 51.058594 C 18.902344 51.824219 18.273438 52.132812 17.804688 52.125 C 17.101562 52.113281 16.675781 51.472656 16.570312 51.265625 C 16.894531 51.585938 17.179688 51.734375 17.398438 51.746094 C 17.570312 51.511719 17.699219 51.410156 17.925781 51.34375 C 18.058594 51.308594 18.210938 51.242188 18.335938 51.125 C 18.375 51.082031 18.832031 50.628906 18.839844 50.105469 C 18.84375 49.851562 18.71875 49.65625 18.503906 49.546875 C 18.164062 49.375 17.894531 49.371094 17.519531 49.363281 C 16.933594 49.359375 16.699219 49.324219 16.535156 49.15625 C 16.414062 49.03125 16.359375 48.96875 16.179688 48.964844 C 15.910156 48.960938 15.753906 49.179688 15.753906 49.179688 C 15.789062 48.714844 16.066406 48.425781 16.460938 48.429688 C 16.519531 48.429688 16.582031 48.445312 16.644531 48.460938 C 16.832031 48.515625 18.871094 49.050781 19.273438 49.242188 C 19.511719 49.355469 21.777344 51.152344 21.777344 51.152344 C 22.234375 50.855469 22.550781 49.675781 22.554688 49.035156 C 22.730469 48.945312 23.050781 49.015625 23.488281 49.359375 C 23.933594 49.710938 25.300781 50.949219 25.464844 51.136719 C 25.199219 53.296875 26.542969 57.515625 28.613281 57.546875 C 28.921875 57.550781 29.148438 57.449219 29.191406 57.429688 C 29.003906 57.347656 28.925781 57.164062 28.820312 56.792969 L 28.464844 55.292969 C 28.464844 55.292969 28.917969 55.898438 30.589844 57.746094 C 31.488281 58.746094 32.304688 58.988281 32.855469 59 C 33.484375 59.007812 33.789062 58.761719 33.847656 58.695312 C 33.589844 58.683594 33.289062 58.453125 32.875 57.933594 L 31.277344 55.839844 C 33.8125 58.152344 35.609375 58.679688 36.710938 58.695312 C 37.636719 58.710938 38.042969 58.363281 38.042969 58.363281 L 32.695312 53.550781 L 39.039062 57.082031 C 39.78125 54.875 38.152344 53.464844 37.257812 52.957031 C 36.363281 52.449219 33.003906 50.582031 33.003906 50.582031 L 36.425781 51.316406 C 37.945312 51.632812 38.84375 52.136719 38.828125 52.511719 C 38.929688 52.289062 38.964844 52.03125 38.964844 51.859375 C 38.949219 48.140625 33.128906 48.339844 33.128906 48.339844 L 34.480469 48.03125 C 36.050781 47.699219 36.917969 47.785156 37.054688 48.105469 C 37.0625 47.867188 37.03125 47.628906 36.984375 47.457031 C 36.542969 46.046875 35.640625 45.570312 32.796875 44.863281 L 28.8125 43.9375 C 30.082031 45.238281 30.597656 48.804688 29.140625 50.472656 C 29.128906 50.097656 28.960938 49.765625 28.742188 49.585938 C 28.503906 50.527344 27.953125 51.683594 26.660156 51.535156 C 26.671875 51.484375 26.773438 51.273438 26.417969 50.945312 C 25.695312 50.273438 23.371094 48.160156 22.53125 47.394531 C 22.488281 47.679688 22.460938 47.78125 22.363281 48.195312 C 22.140625 49.15625 21.40625 49.550781 20.871094 49.53125 C 20.222656 49.511719 19.707031 48.964844 19.566406 48.738281 C 19.964844 49.050781 20.691406 49.175781 20.757812 49.121094 C 20.789062 48.910156 20.964844 48.738281 21.085938 48.636719 C 21.289062 48.464844 21.640625 48.355469 21.703125 47.933594 C 21.78125 47.449219 21.382812 47.226562 21.113281 47.269531 C 20.460938 47.390625 19.71875 47.53125 19.558594 47.542969 C 19.34375 47.5625 19.242188 47.507812 19.148438 47.453125 C 19.058594 47.398438 18.976562 47.347656 18.804688 47.363281 C 18.398438 47.394531 18.269531 47.765625 18.269531 47.765625 C 18.125 47.152344 18.511719 46.707031 19.019531 46.664062 C 19.105469 46.65625 21.382812 46.527344 22.035156 46.539062 C 22.449219 46.542969 22.804688 46.589844 23.050781 46.707031 C 23.613281 47.0625 24.789062 47.914062 25.03125 48.128906 C 25.5 47.0625 25.375 45.050781 24.832031 44.640625 C 21.136719 43.902344 17.023438 44.566406 14.515625 43.183594 C 14.175781 43.359375 13.148438 43.863281 12.851562 44 M 19.453125 45.28125 C 19.601562 45.332031 21.238281 45.929688 22.171875 46.296875 C 21.792969 46.28125 21.375 46.300781 20.941406 46.320312 C 20.742188 46.328125 20.535156 46.335938 20.332031 46.34375 C 20.015625 46.308594 19.765625 46.28125 19.722656 46.277344 C 19.3125 46.21875 19.378906 45.976562 19.046875 45.929688 C 18.648438 45.875 18.441406 46.21875 18.441406 46.21875 C 18.441406 45.570312 18.988281 45.121094 19.453125 45.28125 M 16.242188 49.636719 C 16.34375 49.628906 17.179688 49.605469 17.601562 49.609375 C 17.898438 49.613281 18.601562 49.65625 18.59375 50.136719 C 18.59375 50.222656 18.574219 50.316406 18.542969 50.410156 C 18.457031 50.195312 18.222656 50.089844 18.042969 50.089844 C 17.847656 50.085938 16.921875 50.367188 16.625 50.363281 C 16.367188 50.363281 16.324219 50.21875 16.140625 50.214844 C 15.753906 50.207031 15.621094 50.554688 15.621094 50.554688 C 15.5 50.046875 15.816406 49.679688 16.242188 49.636719 M 0.734375 56.785156 C 0.535156 56.800781 0.121094 56.757812 0 56.699219 C 0 56.699219 0.246094 58.691406 2.804688 58.734375 C 4.328125 58.753906 5.699219 57.761719 6.726562 56.167969 C 7.863281 54.394531 9.84375 51.34375 10.046875 51.082031 C 8.878906 52.398438 3.453125 55.96875 0.734375 56.785156 M 39.039062 57.082031 L 39.042969 57.082031 L 39.039062 57.082031 "/>
<path style=" stroke:none;fill-rule:nonzero;fill:rgb(68.278503%,63.067627%,45.429993%);fill-opacity:1;" d="M 5.859375 58.644531 C 7.667969 58.042969 8.851562 56.773438 11.007812 53.128906 C 12.042969 51.375 12.941406 49.703125 13.375 48.75 C 13.117188 48.976562 12.867188 49.199219 12.644531 49.410156 C 11.625 50.363281 10.53125 52.117188 9.476562 53.8125 C 8.234375 55.808594 7.046875 57.714844 5.859375 58.644531 Z M 7.398438 53.519531 C 5.273438 54.960938 2.511719 56.535156 0.804688 57.050781 L 0.738281 57.0625 C 0.65625 57.066406 0.519531 57.066406 0.375 57.054688 C 0.675781 57.269531 1.210938 57.355469 1.617188 57.363281 C 2.582031 57.390625 3.644531 56.972656 4.46875 56.25 C 5.152344 55.648438 6.3125 54.59375 7.375 53.574219 L 7.398438 53.519531 "/>
<path style=" stroke:none;fill-rule:nonzero;fill:rgb(68.278503%,63.067627%,45.429993%);fill-opacity:1;" d="M 27.433594 25.078125 C 28.917969 23.386719 33.015625 19.253906 40.800781 13.964844 C 47.496094 9.414062 51.3125 5.558594 51.3125 2.277344 C 51.3125 1.8125 51.234375 1.226562 51.136719 0.800781 L 51.121094 0.875 C 51.058594 1.171875 51.015625 1.21875 50.984375 1.257812 L 50.949219 1.296875 C 50.378906 1.996094 49.164062 3.402344 47.496094 4.921875 C 46.554688 5.785156 43.796875 8.054688 40.875 10.460938 C 37.828125 12.96875 34.675781 15.5625 33.902344 16.308594 C 30.601562 19.382812 28.433594 23.117188 27.433594 25.074219 Z M 51.335938 10.433594 C 50.4375 12.425781 47.570312 14.507812 45.765625 15.667969 C 41.628906 18.332031 35.675781 21.726562 31.832031 23.824219 C 26.21875 26.890625 24.445312 30.152344 23.738281 32.585938 C 24.824219 31.160156 29.023438 27.175781 36.121094 24.109375 C 43.539062 20.90625 51.085938 16.433594 51.40625 11.148438 C 51.40625 10.636719 51.421875 10.539062 51.347656 10.414062 Z M 23.726562 34.410156 C 24.050781 34.339844 24.859375 34.15625 25.277344 34.078125 C 26.503906 33.851562 29.347656 33.195312 32.511719 32.097656 C 39.714844 29.589844 40.957031 28.054688 43.121094 25.53125 L 43.167969 25.476562 C 41.441406 26.191406 39.488281 26.929688 37.589844 27.644531 C 34.429688 28.839844 31.160156 30.070312 28.992188 31.195312 L 28.988281 31.195312 C 25.960938 32.765625 24.367188 33.589844 23.726562 34.410156 Z M 23.648438 34.511719 C 23.59375 34.597656 23.542969 34.683594 23.503906 34.769531 C 23.46875 34.863281 22.480469 37.34375 22.085938 38.078125 C 21.765625 38.664062 21.253906 39.113281 20.710938 39.308594 L 20.613281 39.339844 C 21.140625 39.542969 22.425781 39.734375 22.972656 38.59375 C 23.792969 36.882812 23.898438 35.621094 23.875 34.945312 C 23.867188 34.660156 23.6875 34.539062 23.652344 34.511719 L 23.648438 34.511719 "/>
<path style=" stroke:none;fill-rule:nonzero;fill:rgb(68.278503%,63.067627%,45.429993%);fill-opacity:1;" d="M 28.460938 56.535156 C 27.976562 56.445312 27.394531 55.988281 26.71875 55.164062 C 26.535156 54.9375 26.171875 54.164062 26.089844 54.144531 L 26.1875 54.449219 C 26.460938 55.253906 26.839844 56.003906 27.296875 56.535156 C 27.714844 57.015625 28.15625 57.261719 28.601562 57.269531 C 28.628906 57.269531 28.652344 57.269531 28.679688 57.269531 C 28.625 57.152344 28.585938 57.019531 28.542969 56.867188 L 28.464844 56.539062 Z M 29.980469 56.660156 C 30.207031 56.921875 30.476562 57.21875 30.785156 57.5625 C 31.640625 58.507812 32.378906 58.714844 32.847656 58.722656 C 32.984375 58.722656 33.101562 58.714844 33.203125 58.695312 C 33.03125 58.554688 32.851562 58.359375 32.648438 58.105469 L 32.511719 57.925781 L 32.507812 57.925781 C 31.96875 57.878906 31.386719 57.644531 30.765625 57.214844 C 30.472656 57.011719 30.214844 56.828125 29.984375 56.664062 Z M 32.917969 56.839844 C 34.640625 58.09375 35.898438 58.40625 36.703125 58.417969 C 37.082031 58.421875 37.359375 58.363281 37.546875 58.300781 L 36.65625 57.5 L 36.65625 57.503906 C 36.402344 57.546875 36.128906 57.570312 35.839844 57.5625 C 34.992188 57.542969 34.019531 57.300781 32.921875 56.84375 Z M 38.105469 56.25 L 38.859375 56.667969 C 39.339844 54.59375 37.5 53.421875 37.109375 53.199219 C 36.648438 52.9375 35.523438 52.308594 34.542969 51.761719 L 34.546875 51.765625 C 35.308594 52.363281 36.269531 53.121094 36.597656 53.382812 C 37.191406 53.855469 38.027344 54.910156 38.042969 56.21875 Z M 37.640625 51.363281 C 38.019531 51.496094 38.398438 51.660156 38.675781 51.863281 L 38.675781 51.789062 C 38.65625 51.074219 38.394531 50.46875 37.894531 49.988281 C 36.9375 49.066406 35.316406 48.761719 34.230469 48.664062 L 34.234375 48.707031 C 35.351562 49.082031 37.179688 49.878906 37.640625 51.359375 Z M 35.527344 47.578125 C 36.027344 47.523438 36.425781 47.53125 36.722656 47.597656 C 36.714844 47.578125 36.710938 47.554688 36.703125 47.535156 L 36.691406 47.492188 C 36.332031 46.386719 35.660156 45.917969 33.402344 45.308594 L 33.292969 45.308594 C 34.207031 45.898438 35.164062 46.75 35.527344 47.574219 L 35.527344 47.578125 "/>
</g>
</svg>
