<?xml version="1.0" encoding="UTF-8"?>
<svg xmlns="http://www.w3.org/2000/svg" xmlns:xlink="http://www.w3.org/1999/xlink" width="176pt" height="37.51pt" viewBox="0 0 176 37.51" version="1.1">
<defs>
<clipPath id="clip1">
  <path d="M 16.398438 0.0117188 L 20.5 0.0117188 L 20.5 0.109375 L 16.398438 0.109375 Z M 15.800781 0.109375 L 21.199219 0.109375 L 21.199219 0.210938 L 15.800781 0.210938 Z M 15.101562 0.210938 L 21.800781 0.210938 L 21.800781 0.308594 L 15.101562 0.308594 Z M 14.601562 0.308594 L 22.398438 0.308594 L 22.398438 0.410156 L 14.601562 0.410156 Z M 14.199219 0.410156 L 22.800781 0.410156 L 22.800781 0.511719 L 14.199219 0.511719 Z M 13.800781 0.511719 L 23.199219 0.511719 L 23.199219 0.609375 L 13.800781 0.609375 Z M 13.398438 0.609375 L 23.601562 0.609375 L 23.601562 0.710938 L 13.398438 0.710938 Z M 13 0.710938 L 23.898438 0.710938 L 23.898438 0.808594 L 13 0.808594 Z M 12.699219 0.808594 L 24.199219 0.808594 L 24.199219 0.910156 L 12.699219 0.910156 Z M 12.398438 0.910156 L 24.5 0.910156 L 24.5 1.011719 L 12.398438 1.011719 Z M 12.101562 1.011719 L 24.800781 1.011719 L 24.800781 1.109375 L 12.101562 1.109375 Z M 11.898438 1.109375 L 25.101562 1.109375 L 25.101562 1.210938 L 11.898438 1.210938 Z M 11.601562 1.210938 L 25.300781 1.210938 L 25.300781 1.308594 L 11.601562 1.308594 Z M 11.300781 1.308594 L 25.601562 1.308594 L 25.601562 1.410156 L 11.300781 1.410156 Z M 11.101562 1.410156 L 25.800781 1.410156 L 25.800781 1.511719 L 11.101562 1.511719 Z M 10.898438 1.511719 L 26 1.511719 L 26 1.609375 L 10.898438 1.609375 Z M 10.699219 1.609375 L 26.199219 1.609375 L 26.199219 1.710938 L 10.699219 1.710938 Z M 10.5 1.710938 L 26.398438 1.710938 L 26.398438 1.808594 L 10.5 1.808594 Z M 10.199219 1.808594 L 26.699219 1.808594 L 26.699219 1.910156 L 10.199219 1.910156 Z M 10 1.910156 L 26.898438 1.910156 L 26.898438 2.011719 L 10 2.011719 Z M 9.800781 2.011719 L 27.101562 2.011719 L 27.101562 2.109375 L 9.800781 2.109375 Z M 9.699219 2.109375 L 27.300781 2.109375 L 27.300781 2.210938 L 9.699219 2.210938 Z M 9.5 2.210938 L 27.398438 2.210938 L 27.398438 2.308594 L 9.5 2.308594 Z M 9.300781 2.308594 L 27.601562 2.308594 L 27.601562 2.410156 L 9.300781 2.410156 Z M 9.101562 2.410156 L 27.800781 2.410156 L 27.800781 2.511719 L 9.101562 2.511719 Z M 9 2.511719 L 27.898438 2.511719 L 27.898438 2.609375 L 9 2.609375 Z M 8.800781 2.609375 L 28.101562 2.609375 L 28.101562 2.710938 L 8.800781 2.710938 Z M 8.601562 2.710938 L 28.300781 2.710938 L 28.300781 2.808594 L 8.601562 2.808594 Z M 8.5 2.808594 L 28.5 2.808594 L 28.5 2.910156 L 8.5 2.910156 Z M 8.300781 2.910156 L 28.601562 2.910156 L 28.601562 3.011719 L 8.300781 3.011719 Z M 8.199219 3.011719 L 28.800781 3.011719 L 28.800781 3.109375 L 8.199219 3.109375 Z M 8 3.109375 L 28.898438 3.109375 L 28.898438 3.210938 L 8 3.210938 Z M 7.898438 3.210938 L 29 3.210938 L 29 3.308594 L 7.898438 3.308594 Z M 7.699219 3.308594 L 29.199219 3.308594 L 29.199219 3.410156 L 7.699219 3.410156 Z M 7.601562 3.410156 L 29.300781 3.410156 L 29.300781 3.511719 L 7.601562 3.511719 Z M 7.5 3.511719 L 29.398438 3.511719 L 29.398438 3.609375 L 7.5 3.609375 Z M 7.300781 3.609375 L 29.601562 3.609375 L 29.601562 3.710938 L 7.300781 3.710938 Z M 7.199219 3.710938 L 29.699219 3.710938 L 29.699219 3.808594 L 7.199219 3.808594 Z M 7 3.808594 L 29.898438 3.808594 L 29.898438 3.910156 L 7 3.910156 Z M 6.898438 3.910156 L 30 3.910156 L 30 4.011719 L 6.898438 4.011719 Z M 6.800781 4.011719 L 30.101562 4.011719 L 30.101562 4.109375 L 6.800781 4.109375 Z M 6.699219 4.109375 L 30.199219 4.109375 L 30.199219 4.210938 L 6.699219 4.210938 Z M 6.601562 4.210938 L 30.300781 4.210938 L 30.300781 4.308594 L 6.601562 4.308594 Z M 6.5 4.308594 L 30.5 4.308594 L 30.5 4.410156 L 6.5 4.410156 Z M 6.300781 4.410156 L 30.601562 4.410156 L 30.601562 4.511719 L 6.300781 4.511719 Z M 6.199219 4.511719 L 30.699219 4.511719 L 30.699219 4.609375 L 6.199219 4.609375 Z M 6.101562 4.609375 L 30.800781 4.609375 L 30.800781 4.710938 L 6.101562 4.710938 Z M 6 4.710938 L 30.898438 4.710938 L 30.898438 4.808594 L 6 4.808594 Z M 5.898438 4.808594 L 31 4.808594 L 31 4.910156 L 5.898438 4.910156 Z M 5.800781 4.910156 L 31.101562 4.910156 L 31.101562 5.011719 L 5.800781 5.011719 Z M 5.601562 5.011719 L 31.300781 5.011719 L 31.300781 5.109375 L 5.601562 5.109375 Z M 5.601562 5.109375 L 31.398438 5.109375 L 31.398438 5.210938 L 5.601562 5.210938 Z M 5.5 5.210938 L 31.5 5.210938 L 31.5 5.308594 L 5.5 5.308594 Z M 5.398438 5.308594 L 31.601562 5.308594 L 31.601562 5.410156 L 5.398438 5.410156 Z M 5.300781 5.410156 L 31.601562 5.410156 L 31.601562 5.511719 L 5.300781 5.511719 Z M 5.199219 5.511719 L 31.699219 5.511719 L 31.699219 5.609375 L 5.199219 5.609375 Z M 5.101562 5.609375 L 31.800781 5.609375 L 31.800781 5.710938 L 5.101562 5.710938 Z M 5 5.710938 L 31.898438 5.710938 L 31.898438 5.808594 L 5 5.808594 Z M 4.898438 5.808594 L 32 5.808594 L 32 5.910156 L 4.898438 5.910156 Z M 4.800781 5.910156 L 32.101562 5.910156 L 32.101562 6.011719 L 4.800781 6.011719 Z M 4.699219 6.011719 L 32.199219 6.011719 L 32.199219 6.109375 L 4.699219 6.109375 Z M 4.601562 6.109375 L 32.300781 6.109375 L 32.300781 6.210938 L 4.601562 6.210938 Z M 4.5 6.210938 L 32.398438 6.210938 L 32.398438 6.308594 L 4.5 6.308594 Z M 4.398438 6.308594 L 32.5 6.308594 L 32.5 6.410156 L 4.398438 6.410156 Z M 4.300781 6.410156 L 32.601562 6.410156 L 32.601562 6.511719 L 4.300781 6.511719 Z M 4.300781 6.511719 L 32.699219 6.511719 L 32.699219 6.609375 L 4.300781 6.609375 Z M 4.199219 6.609375 L 32.699219 6.609375 L 32.699219 6.710938 L 4.199219 6.710938 Z M 4.101562 6.710938 L 32.800781 6.710938 L 32.800781 6.808594 L 4.101562 6.808594 Z M 4 6.808594 L 32.898438 6.808594 L 32.898438 6.910156 L 4 6.910156 Z M 3.898438 6.910156 L 33 6.910156 L 33 7.011719 L 3.898438 7.011719 Z M 3.898438 7.011719 L 33.101562 7.011719 L 33.101562 7.109375 L 3.898438 7.109375 Z M 3.800781 7.109375 L 33.101562 7.109375 L 33.101562 7.210938 L 3.800781 7.210938 Z M 3.699219 7.210938 L 33.199219 7.210938 L 33.199219 7.308594 L 3.699219 7.308594 Z M 3.601562 7.308594 L 33.300781 7.308594 L 33.300781 7.410156 L 3.601562 7.410156 Z M 3.5 7.410156 L 33.398438 7.410156 L 33.398438 7.609375 L 3.5 7.609375 Z M 3.398438 7.609375 L 33.5 7.609375 L 33.5 7.710938 L 3.398438 7.710938 Z M 3.300781 7.710938 L 33.601562 7.710938 L 33.601562 7.808594 L 3.300781 7.808594 Z M 3.300781 7.808594 L 33.699219 7.808594 L 33.699219 7.910156 L 3.300781 7.910156 Z M 3.199219 7.910156 L 33.699219 7.910156 L 33.699219 8.011719 L 3.199219 8.011719 Z M 3.101562 8.011719 L 33.800781 8.011719 L 33.800781 8.109375 L 3.101562 8.109375 Z M 3.101562 8.109375 L 33.898438 8.109375 L 33.898438 8.210938 L 3.101562 8.210938 Z M 3 8.210938 L 33.898438 8.210938 L 33.898438 8.308594 L 3 8.308594 Z M 2.898438 8.308594 L 34 8.308594 L 34 8.511719 L 2.898438 8.511719 Z M 2.800781 8.511719 L 34.101562 8.511719 L 34.101562 8.609375 L 2.800781 8.609375 Z M 2.699219 8.609375 L 34.199219 8.609375 L 34.199219 8.808594 L 2.699219 8.808594 Z M 2.601562 8.808594 L 34.300781 8.808594 L 34.300781 8.910156 L 2.601562 8.910156 Z M 2.5 8.910156 L 34.398438 8.910156 L 34.398438 9.109375 L 2.5 9.109375 Z M 2.398438 9.109375 L 34.5 9.109375 L 34.5 9.308594 L 2.398438 9.308594 Z M 2.300781 9.308594 L 34.601562 9.308594 L 34.601562 9.410156 L 2.300781 9.410156 Z M 2.300781 9.410156 L 34.699219 9.410156 L 34.699219 9.511719 L 2.300781 9.511719 Z M 2.199219 9.511719 L 34.699219 9.511719 L 34.699219 9.609375 L 2.199219 9.609375 Z M 2.199219 9.609375 L 34.800781 9.609375 L 34.800781 9.710938 L 2.199219 9.710938 Z M 2.101562 9.710938 L 34.800781 9.710938 L 34.800781 9.808594 L 2.101562 9.808594 Z M 2.101562 9.808594 L 34.898438 9.808594 L 34.898438 9.910156 L 2.101562 9.910156 Z M 2 9.910156 L 34.898438 9.910156 L 34.898438 10.011719 L 2 10.011719 Z M 1.898438 10.011719 L 35 10.011719 L 35 10.210938 L 1.898438 10.210938 Z M 1.800781 10.210938 L 35.101562 10.210938 L 35.101562 10.410156 L 1.800781 10.410156 Z M 1.699219 10.410156 L 35.199219 10.410156 L 35.199219 10.609375 L 1.699219 10.609375 Z M 1.601562 10.609375 L 35.300781 10.609375 L 35.300781 10.808594 L 1.601562 10.808594 Z M 1.601562 10.808594 L 35.398438 10.808594 L 35.398438 10.910156 L 1.601562 10.910156 Z M 1.5 10.910156 L 35.398438 10.910156 L 35.398438 11.109375 L 1.5 11.109375 Z M 1.398438 11.109375 L 35.5 11.109375 L 35.5 11.308594 L 1.398438 11.308594 Z M 1.300781 11.308594 L 35.601562 11.308594 L 35.601562 11.410156 L 1.300781 11.410156 Z M 18.398438 11.410156 L 35.601562 11.410156 L 35.601562 11.511719 L 18.398438 11.511719 Z M 1.300781 11.410156 L 16.601562 11.410156 L 16.601562 11.511719 L 1.300781 11.511719 Z M 1.300781 11.511719 L 14.601562 11.511719 L 14.601562 11.609375 L 1.300781 11.609375 Z M 20.5 11.511719 L 35.601562 11.511719 L 35.601562 11.609375 L 20.5 11.609375 Z M 21.5 11.609375 L 35.699219 11.609375 L 35.699219 11.710938 L 21.5 11.710938 Z M 1.199219 11.609375 L 13.601562 11.609375 L 13.601562 11.710938 L 1.199219 11.710938 Z M 1.199219 11.710938 L 12.699219 11.710938 L 12.699219 11.808594 L 1.199219 11.808594 Z M 22.398438 11.710938 L 35.699219 11.710938 L 35.699219 11.808594 L 22.398438 11.808594 Z M 23.398438 11.808594 L 35.800781 11.808594 L 35.800781 11.910156 L 23.398438 11.910156 Z M 1.101562 11.808594 L 11.800781 11.808594 L 11.800781 11.910156 L 1.101562 11.910156 Z M 23.898438 11.910156 L 35.800781 11.910156 L 35.800781 12.011719 L 23.898438 12.011719 Z M 1.101562 11.910156 L 11.199219 11.910156 L 11.199219 12.011719 L 1.101562 12.011719 Z M 1.101562 12.011719 L 10.699219 12.011719 L 10.699219 12.109375 L 1.101562 12.109375 Z M 24.5 12.011719 L 35.800781 12.011719 L 35.800781 12.109375 L 24.5 12.109375 Z M 25 12.109375 L 35.898438 12.109375 L 35.898438 12.210938 L 25 12.210938 Z M 1 12.109375 L 10.101562 12.109375 L 10.101562 12.210938 L 1 12.210938 Z M 25.601562 12.210938 L 35.898438 12.210938 L 35.898438 12.308594 L 25.601562 12.308594 Z M 1 12.210938 L 9.601562 12.210938 L 9.601562 12.308594 L 1 12.308594 Z M 1 12.308594 L 9.101562 12.308594 L 9.101562 12.410156 L 1 12.410156 Z M 26.101562 12.308594 L 36 12.308594 L 36 12.410156 L 26.101562 12.410156 Z M 26.5 12.410156 L 36 12.410156 L 36 12.511719 L 26.5 12.511719 Z M 0.898438 12.410156 L 8.699219 12.410156 L 8.699219 12.511719 L 0.898438 12.511719 Z M 26.898438 12.511719 L 36 12.511719 L 36 12.609375 L 26.898438 12.609375 Z M 0.898438 12.511719 L 8.300781 12.511719 L 8.300781 12.609375 L 0.898438 12.609375 Z M 0.898438 12.609375 L 7.898438 12.609375 L 7.898438 12.710938 L 0.898438 12.710938 Z M 27.300781 12.609375 L 36.101562 12.609375 L 36.101562 12.710938 L 27.300781 12.710938 Z M 27.699219 12.710938 L 36.101562 12.710938 L 36.101562 12.808594 L 27.699219 12.808594 Z M 0.800781 12.710938 L 7.5 12.710938 L 7.5 12.808594 L 0.800781 12.808594 Z M 28.101562 12.808594 L 36.101562 12.808594 L 36.101562 12.910156 L 28.101562 12.910156 Z M 0.800781 12.808594 L 7.199219 12.808594 L 7.199219 12.910156 L 0.800781 12.910156 Z M 0.800781 12.910156 L 6.898438 12.910156 L 6.898438 13.011719 L 0.800781 13.011719 Z M 28.398438 12.910156 L 36.101562 12.910156 L 36.101562 13.011719 L 28.398438 13.011719 Z M 28.800781 13.011719 L 36.199219 13.011719 L 36.199219 13.109375 L 28.800781 13.109375 Z M 0.699219 13.011719 L 6.601562 13.011719 L 6.601562 13.109375 L 0.699219 13.109375 Z M 29.101562 13.109375 L 36.199219 13.109375 L 36.199219 13.210938 L 29.101562 13.210938 Z M 0.699219 13.109375 L 6.300781 13.109375 L 6.300781 13.210938 L 0.699219 13.210938 Z M 29.398438 13.210938 L 36.199219 13.210938 L 36.199219 13.308594 L 29.398438 13.308594 Z M 0.699219 13.210938 L 6.101562 13.210938 L 6.101562 13.308594 L 0.699219 13.308594 Z M 0.699219 13.308594 L 5.898438 13.308594 L 5.898438 13.410156 L 0.699219 13.410156 Z M 29.601562 13.308594 L 36.300781 13.308594 L 36.300781 13.410156 L 29.601562 13.410156 Z M 29.898438 13.410156 L 36.300781 13.410156 L 36.300781 13.511719 L 29.898438 13.511719 Z M 0.601562 13.410156 L 5.601562 13.410156 L 5.601562 13.511719 L 0.601562 13.511719 Z M 30.199219 13.511719 L 36.300781 13.511719 L 36.300781 13.609375 L 30.199219 13.609375 Z M 0.601562 13.511719 L 5.398438 13.511719 L 5.398438 13.609375 L 0.601562 13.609375 Z M 0.601562 13.609375 L 5.199219 13.609375 L 5.199219 13.710938 L 0.601562 13.710938 Z M 30.5 13.609375 L 36.398438 13.609375 L 36.398438 13.710938 L 30.5 13.710938 Z M 30.699219 13.710938 L 36.398438 13.710938 L 36.398438 13.808594 L 30.699219 13.808594 Z M 0.5 13.710938 L 4.898438 13.710938 L 4.898438 13.808594 L 0.5 13.808594 Z M 31 13.808594 L 36.398438 13.808594 L 36.398438 13.910156 L 31 13.910156 Z M 0.5 13.808594 L 4.699219 13.808594 L 4.699219 13.910156 L 0.5 13.910156 Z M 31.300781 13.910156 L 36.398438 13.910156 L 36.398438 14.011719 L 31.300781 14.011719 Z M 0.5 13.910156 L 4.5 13.910156 L 4.5 14.011719 L 0.5 14.011719 Z M 0.5 14.011719 L 4.300781 14.011719 L 4.300781 14.109375 L 0.5 14.109375 Z M 31.5 14.011719 L 36.5 14.011719 L 36.5 14.109375 L 31.5 14.109375 Z M 31.699219 14.109375 L 36.5 14.109375 L 36.5 14.210938 L 31.699219 14.210938 Z M 0.398438 14.109375 L 4.199219 14.109375 L 4.199219 14.210938 L 0.398438 14.210938 Z M 31.898438 14.210938 L 36.5 14.210938 L 36.5 14.308594 L 31.898438 14.308594 Z M 0.398438 14.210938 L 4 14.210938 L 4 14.308594 L 0.398438 14.308594 Z M 32.101562 14.308594 L 36.5 14.308594 L 36.5 14.410156 L 32.101562 14.410156 Z M 0.398438 14.308594 L 3.800781 14.308594 L 3.800781 14.410156 L 0.398438 14.410156 Z M 32.300781 14.410156 L 36.5 14.410156 L 36.5 14.511719 L 32.300781 14.511719 Z M 0.398438 14.410156 L 3.699219 14.410156 L 3.699219 14.511719 L 0.398438 14.511719 Z M 0.398438 14.511719 L 3.5 14.511719 L 3.5 14.609375 L 0.398438 14.609375 Z M 32.5 14.511719 L 36.601562 14.511719 L 36.601562 14.609375 L 32.5 14.609375 Z M 32.699219 14.609375 L 36.601562 14.609375 L 36.601562 14.710938 L 32.699219 14.710938 Z M 0.300781 14.609375 L 3.300781 14.609375 L 3.300781 14.710938 L 0.300781 14.710938 Z M 32.898438 14.710938 L 36.601562 14.710938 L 36.601562 14.808594 L 32.898438 14.808594 Z M 0.300781 14.710938 L 3.101562 14.710938 L 3.101562 14.808594 L 0.300781 14.808594 Z M 33.101562 14.808594 L 36.601562 14.808594 L 36.601562 14.910156 L 33.101562 14.910156 Z M 0.300781 14.808594 L 3 14.808594 L 3 14.910156 L 0.300781 14.910156 Z M 33.398438 14.910156 L 36.601562 14.910156 L 36.601562 15.011719 L 33.398438 15.011719 Z M 0.300781 14.910156 L 2.800781 14.910156 L 2.800781 15.011719 L 0.300781 15.011719 Z M 0.300781 15.011719 L 2.601562 15.011719 L 2.601562 15.109375 L 0.300781 15.109375 Z M 33.5 15.011719 L 36.699219 15.011719 L 36.699219 15.109375 L 33.5 15.109375 Z M 33.699219 15.109375 L 36.699219 15.109375 L 36.699219 15.210938 L 33.699219 15.210938 Z M 0.199219 15.109375 L 2.5 15.109375 L 2.5 15.210938 L 0.199219 15.210938 Z M 33.800781 15.210938 L 36.699219 15.210938 L 36.699219 15.308594 L 33.800781 15.308594 Z M 0.199219 15.210938 L 2.398438 15.210938 L 2.398438 15.308594 L 0.199219 15.308594 Z M 34 15.308594 L 36.699219 15.308594 L 36.699219 15.410156 L 34 15.410156 Z M 0.199219 15.308594 L 2.300781 15.308594 L 2.300781 15.410156 L 0.199219 15.410156 Z M 34.101562 15.410156 L 36.699219 15.410156 L 36.699219 15.511719 L 34.101562 15.511719 Z M 0.199219 15.410156 L 2.199219 15.410156 L 2.199219 15.511719 L 0.199219 15.511719 Z M 0.199219 15.511719 L 2 15.511719 L 2 15.609375 L 0.199219 15.609375 Z M 34.300781 15.511719 L 36.800781 15.511719 L 36.800781 15.609375 L 34.300781 15.609375 Z M 34.5 15.609375 L 36.800781 15.609375 L 36.800781 15.710938 L 34.5 15.710938 Z M 0.101562 15.609375 L 1.898438 15.609375 L 1.898438 15.710938 L 0.101562 15.710938 Z M 34.601562 15.710938 L 36.800781 15.710938 L 36.800781 15.808594 L 34.601562 15.808594 Z M 0.101562 15.710938 L 1.800781 15.710938 L 1.800781 15.808594 L 0.101562 15.808594 Z M 34.800781 15.808594 L 36.800781 15.808594 L 36.800781 15.910156 L 34.800781 15.910156 Z M 0.101562 15.808594 L 1.699219 15.808594 L 1.699219 15.910156 L 0.101562 15.910156 Z M 34.898438 15.910156 L 36.800781 15.910156 L 36.800781 16.011719 L 34.898438 16.011719 Z M 0.101562 15.910156 L 1.5 15.910156 L 1.5 16.011719 L 0.101562 16.011719 Z M 35.101562 16.011719 L 36.800781 16.011719 L 36.800781 16.109375 L 35.101562 16.109375 Z M 0.101562 16.011719 L 1.398438 16.011719 L 1.398438 16.109375 L 0.101562 16.109375 Z M 35.199219 16.109375 L 36.800781 16.109375 L 36.800781 16.210938 L 35.199219 16.210938 Z M 0.101562 16.109375 L 1.300781 16.109375 L 1.300781 16.210938 L 0.101562 16.210938 Z M 35.398438 16.210938 L 36.800781 16.210938 L 36.800781 16.308594 L 35.398438 16.308594 Z M 0.101562 16.210938 L 1.199219 16.210938 L 1.199219 16.308594 L 0.101562 16.308594 Z M 0.101562 16.308594 L 1.101562 16.308594 L 1.101562 16.410156 L 0.101562 16.410156 Z M 35.5 16.308594 L 36.898438 16.308594 L 36.898438 16.410156 L 35.5 16.410156 Z M 35.601562 16.410156 L 36.898438 16.410156 L 36.898438 16.511719 L 35.601562 16.511719 Z M 0 16.410156 L 1 16.410156 L 1 16.511719 L 0 16.511719 Z M 35.699219 16.511719 L 36.898438 16.511719 L 36.898438 16.609375 L 35.699219 16.609375 Z M 0 16.511719 L 0.898438 16.511719 L 0.898438 16.609375 L 0 16.609375 Z M 35.800781 16.609375 L 36.898438 16.609375 L 36.898438 16.710938 L 35.800781 16.710938 Z M 0 16.609375 L 0.800781 16.609375 L 0.800781 16.710938 L 0 16.710938 Z M 35.898438 16.710938 L 36.898438 16.710938 L 36.898438 16.808594 L 35.898438 16.808594 Z M 0 16.710938 L 0.699219 16.710938 L 0.699219 16.808594 L 0 16.808594 Z M 36.101562 16.808594 L 36.898438 16.808594 L 36.898438 16.910156 L 36.101562 16.910156 Z M 0 16.808594 L 0.601562 16.808594 L 0.601562 16.910156 L 0 16.910156 Z M 36.199219 16.910156 L 36.898438 16.910156 L 36.898438 17.011719 L 36.199219 17.011719 Z M 36.300781 17.011719 L 36.898438 17.011719 L 36.898438 17.109375 L 36.300781 17.109375 Z M 0 16.910156 L 0.5 16.910156 L 0.5 17.109375 L 0 17.109375 Z M 36.398438 17.109375 L 36.898438 17.109375 L 36.898438 17.210938 L 36.398438 17.210938 Z M 0 17.109375 L 0.398438 17.109375 L 0.398438 17.210938 L 0 17.210938 Z M 36.5 17.210938 L 37 17.210938 L 37 17.308594 L 36.5 17.308594 Z M 0 17.210938 L 0.300781 17.210938 L 0.300781 17.308594 L 0 17.308594 Z M 36.601562 17.308594 L 37 17.308594 L 37 17.410156 L 36.601562 17.410156 Z M 0 17.308594 L 0.199219 17.308594 L 0.199219 17.410156 L 0 17.410156 Z M 36.699219 17.410156 L 37 17.410156 L 37 17.511719 L 36.699219 17.511719 Z M 0 17.410156 L 0.101562 17.410156 L 0.101562 17.609375 L 0 17.609375 Z M 36.800781 17.511719 L 37 17.511719 L 37 17.609375 L 36.800781 17.609375 Z M 0.5 23.011719 L 0.601562 23.011719 L 0.601562 23.109375 L 0.5 23.109375 Z M 0.5 23.109375 L 0.699219 23.109375 L 0.699219 23.210938 L 0.5 23.210938 Z M 0.5 23.210938 L 0.800781 23.210938 L 0.800781 23.308594 L 0.5 23.308594 Z M 0.601562 23.308594 L 1 23.308594 L 1 23.410156 L 0.601562 23.410156 Z M 0.601562 23.410156 L 1.101562 23.410156 L 1.101562 23.511719 L 0.601562 23.511719 Z M 0.601562 23.511719 L 1.199219 23.511719 L 1.199219 23.609375 L 0.601562 23.609375 Z M 0.601562 23.609375 L 1.300781 23.609375 L 1.300781 23.710938 L 0.601562 23.710938 Z M 0.699219 23.710938 L 1.5 23.710938 L 1.5 23.808594 L 0.699219 23.808594 Z M 0.699219 23.808594 L 1.601562 23.808594 L 1.601562 23.910156 L 0.699219 23.910156 Z M 0.699219 23.910156 L 1.800781 23.910156 L 1.800781 24.011719 L 0.699219 24.011719 Z M 0.800781 24.011719 L 2 24.011719 L 2 24.109375 L 0.800781 24.109375 Z M 0.800781 24.109375 L 2.101562 24.109375 L 2.101562 24.210938 L 0.800781 24.210938 Z M 0.800781 24.210938 L 2.300781 24.210938 L 2.300781 24.308594 L 0.800781 24.308594 Z M 0.898438 24.308594 L 2.5 24.308594 L 2.5 24.410156 L 0.898438 24.410156 Z M 0.898438 24.410156 L 2.699219 24.410156 L 2.699219 24.511719 L 0.898438 24.511719 Z M 0.898438 24.511719 L 2.898438 24.511719 L 2.898438 24.609375 L 0.898438 24.609375 Z M 1 24.609375 L 3.101562 24.609375 L 3.101562 24.710938 L 1 24.710938 Z M 1 24.710938 L 3.300781 24.710938 L 3.300781 24.808594 L 1 24.808594 Z M 1.101562 24.808594 L 3.601562 24.808594 L 3.601562 24.910156 L 1.101562 24.910156 Z M 1.101562 24.910156 L 3.800781 24.910156 L 3.800781 25.011719 L 1.101562 25.011719 Z M 1.101562 25.011719 L 4.101562 25.011719 L 4.101562 25.109375 L 1.101562 25.109375 Z M 1.199219 25.109375 L 4.398438 25.109375 L 4.398438 25.210938 L 1.199219 25.210938 Z M 18.601562 25.210938 L 20.300781 25.210938 L 20.300781 25.308594 L 18.601562 25.308594 Z M 1.199219 25.210938 L 4.699219 25.210938 L 4.699219 25.308594 L 1.199219 25.308594 Z M 1.199219 25.308594 L 5 25.308594 L 5 25.410156 L 1.199219 25.410156 Z M 16.398438 25.308594 L 22.601562 25.308594 L 22.601562 25.410156 L 16.398438 25.410156 Z M 15.101562 25.410156 L 23.800781 25.410156 L 23.800781 25.511719 L 15.101562 25.511719 Z M 1.300781 25.410156 L 5.398438 25.410156 L 5.398438 25.511719 L 1.300781 25.511719 Z M 1.300781 25.511719 L 5.898438 25.511719 L 5.898438 25.609375 L 1.300781 25.609375 Z M 13.800781 25.511719 L 24.898438 25.511719 L 24.898438 25.609375 L 13.800781 25.609375 Z M 12.601562 25.609375 L 25.5 25.609375 L 25.5 25.710938 L 12.601562 25.710938 Z M 1.398438 25.609375 L 6.300781 25.609375 L 6.300781 25.710938 L 1.398438 25.710938 Z M 11.300781 25.710938 L 26.101562 25.710938 L 26.101562 25.808594 L 11.300781 25.808594 Z M 1.398438 25.710938 L 7.101562 25.710938 L 7.101562 25.808594 L 1.398438 25.808594 Z M 1.398438 25.808594 L 8.199219 25.808594 L 8.199219 25.910156 L 1.398438 25.910156 Z M 9.5 25.808594 L 26.800781 25.808594 L 26.800781 25.910156 L 9.5 25.910156 Z M 1.5 25.910156 L 27.199219 25.910156 L 27.199219 26.011719 L 1.5 26.011719 Z M 1.5 26.011719 L 27.601562 26.011719 L 27.601562 26.109375 L 1.5 26.109375 Z M 1.601562 26.109375 L 28 26.109375 L 28 26.210938 L 1.601562 26.210938 Z M 1.601562 26.210938 L 28.398438 26.210938 L 28.398438 26.308594 L 1.601562 26.308594 Z M 1.699219 26.308594 L 28.800781 26.308594 L 28.800781 26.410156 L 1.699219 26.410156 Z M 1.699219 26.410156 L 29.101562 26.410156 L 29.101562 26.511719 L 1.699219 26.511719 Z M 1.800781 26.511719 L 29.300781 26.511719 L 29.300781 26.609375 L 1.800781 26.609375 Z M 1.800781 26.609375 L 29.601562 26.609375 L 29.601562 26.710938 L 1.800781 26.710938 Z M 1.898438 26.710938 L 29.800781 26.710938 L 29.800781 26.808594 L 1.898438 26.808594 Z M 1.898438 26.808594 L 30.101562 26.808594 L 30.101562 26.910156 L 1.898438 26.910156 Z M 2 26.910156 L 30.300781 26.910156 L 30.300781 27.011719 L 2 27.011719 Z M 2 27.011719 L 30.5 27.011719 L 30.5 27.109375 L 2 27.109375 Z M 2.101562 27.109375 L 30.601562 27.109375 L 30.601562 27.210938 L 2.101562 27.210938 Z M 2.101562 27.210938 L 30.800781 27.210938 L 30.800781 27.308594 L 2.101562 27.308594 Z M 2.199219 27.308594 L 31 27.308594 L 31 27.410156 L 2.199219 27.410156 Z M 2.199219 27.410156 L 31.101562 27.410156 L 31.101562 27.511719 L 2.199219 27.511719 Z M 2.300781 27.511719 L 31.300781 27.511719 L 31.300781 27.609375 L 2.300781 27.609375 Z M 2.300781 27.609375 L 31.398438 27.609375 L 31.398438 27.710938 L 2.300781 27.710938 Z M 2.398438 27.710938 L 31.5 27.710938 L 31.5 27.808594 L 2.398438 27.808594 Z M 2.5 27.808594 L 31.601562 27.808594 L 31.601562 27.910156 L 2.5 27.910156 Z M 2.5 27.910156 L 31.699219 27.910156 L 31.699219 28.011719 L 2.5 28.011719 Z M 2.601562 28.011719 L 31.800781 28.011719 L 31.800781 28.109375 L 2.601562 28.109375 Z M 2.699219 28.109375 L 31.898438 28.109375 L 31.898438 28.308594 L 2.699219 28.308594 Z M 2.800781 28.308594 L 32 28.308594 L 32 28.410156 L 2.800781 28.410156 Z M 2.800781 28.410156 L 32.101562 28.410156 L 32.101562 28.511719 L 2.800781 28.511719 Z M 2.898438 28.511719 L 32.199219 28.511719 L 32.199219 28.609375 L 2.898438 28.609375 Z M 3 28.609375 L 32.199219 28.609375 L 32.199219 28.808594 L 3 28.808594 Z M 3.101562 28.808594 L 32.300781 28.808594 L 32.300781 28.910156 L 3.101562 28.910156 Z M 3.199219 28.910156 L 32.300781 28.910156 L 32.300781 29.109375 L 3.199219 29.109375 Z M 3.300781 29.109375 L 32.398438 29.109375 L 32.398438 29.210938 L 3.300781 29.210938 Z M 3.398438 29.210938 L 32.398438 29.210938 L 32.398438 29.308594 L 3.398438 29.308594 Z M 3.5 29.308594 L 32.398438 29.308594 L 32.398438 29.511719 L 3.5 29.511719 Z M 3.601562 29.511719 L 32.398438 29.511719 L 32.398438 29.609375 L 3.601562 29.609375 Z M 3.699219 29.609375 L 32.398438 29.609375 L 32.398438 29.808594 L 3.699219 29.808594 Z M 3.800781 29.808594 L 32.398438 29.808594 L 32.398438 29.910156 L 3.800781 29.910156 Z M 3.898438 29.910156 L 32.398438 29.910156 L 32.398438 30.011719 L 3.898438 30.011719 Z M 4 30.011719 L 32.300781 30.011719 L 32.300781 30.109375 L 4 30.109375 Z M 4.101562 30.109375 L 32.300781 30.109375 L 32.300781 30.308594 L 4.101562 30.308594 Z M 4.199219 30.308594 L 32.199219 30.308594 L 32.199219 30.410156 L 4.199219 30.410156 Z M 4.300781 30.410156 L 32.199219 30.410156 L 32.199219 30.511719 L 4.300781 30.511719 Z M 4.398438 30.511719 L 32.199219 30.511719 L 32.199219 30.609375 L 4.398438 30.609375 Z M 4.5 30.609375 L 32.101562 30.609375 L 32.101562 30.710938 L 4.5 30.710938 Z M 4.601562 30.710938 L 32.101562 30.710938 L 32.101562 30.808594 L 4.601562 30.808594 Z M 4.699219 30.808594 L 32 30.808594 L 32 31.011719 L 4.699219 31.011719 Z M 4.800781 31.011719 L 31.898438 31.011719 L 31.898438 31.109375 L 4.800781 31.109375 Z M 4.898438 31.109375 L 31.800781 31.109375 L 31.800781 31.210938 L 4.898438 31.210938 Z M 5 31.210938 L 31.800781 31.210938 L 31.800781 31.308594 L 5 31.308594 Z M 5.101562 31.308594 L 31.699219 31.308594 L 31.699219 31.410156 L 5.101562 31.410156 Z M 5.199219 31.410156 L 31.601562 31.410156 L 31.601562 31.511719 L 5.199219 31.511719 Z M 5.300781 31.511719 L 31.601562 31.511719 L 31.601562 31.609375 L 5.300781 31.609375 Z M 5.398438 31.609375 L 31.5 31.609375 L 31.5 31.710938 L 5.398438 31.710938 Z M 5.5 31.710938 L 31.398438 31.710938 L 31.398438 31.808594 L 5.5 31.808594 Z M 5.601562 31.808594 L 31.300781 31.808594 L 31.300781 31.910156 L 5.601562 31.910156 Z M 5.699219 31.910156 L 31.199219 31.910156 L 31.199219 32.011719 L 5.699219 32.011719 Z M 5.800781 32.011719 L 31.101562 32.011719 L 31.101562 32.109375 L 5.800781 32.109375 Z M 5.898438 32.109375 L 31 32.109375 L 31 32.210938 L 5.898438 32.210938 Z M 6.101562 32.210938 L 30.898438 32.210938 L 30.898438 32.308594 L 6.101562 32.308594 Z M 6.199219 32.308594 L 30.800781 32.308594 L 30.800781 32.410156 L 6.199219 32.410156 Z M 6.300781 32.410156 L 30.699219 32.410156 L 30.699219 32.511719 L 6.300781 32.511719 Z M 6.398438 32.511719 L 30.601562 32.511719 L 30.601562 32.609375 L 6.398438 32.609375 Z M 6.5 32.609375 L 30.5 32.609375 L 30.5 32.710938 L 6.5 32.710938 Z M 6.601562 32.710938 L 30.398438 32.710938 L 30.398438 32.808594 L 6.601562 32.808594 Z M 6.800781 32.808594 L 30.300781 32.808594 L 30.300781 32.910156 L 6.800781 32.910156 Z M 6.898438 32.910156 L 30.199219 32.910156 L 30.199219 33.011719 L 6.898438 33.011719 Z M 7 33.011719 L 30.101562 33.011719 L 30.101562 33.109375 L 7 33.109375 Z M 7.101562 33.109375 L 29.898438 33.109375 L 29.898438 33.210938 L 7.101562 33.210938 Z M 7.300781 33.210938 L 29.800781 33.210938 L 29.800781 33.308594 L 7.300781 33.308594 Z M 7.398438 33.308594 L 29.699219 33.308594 L 29.699219 33.410156 L 7.398438 33.410156 Z M 7.5 33.410156 L 29.5 33.410156 L 29.5 33.511719 L 7.5 33.511719 Z M 7.699219 33.511719 L 29.398438 33.511719 L 29.398438 33.609375 L 7.699219 33.609375 Z M 7.800781 33.609375 L 29.199219 33.609375 L 29.199219 33.710938 L 7.800781 33.710938 Z M 8 33.710938 L 29.101562 33.710938 L 29.101562 33.808594 L 8 33.808594 Z M 8.101562 33.808594 L 29 33.808594 L 29 33.910156 L 8.101562 33.910156 Z M 8.199219 33.910156 L 28.800781 33.910156 L 28.800781 34.011719 L 8.199219 34.011719 Z M 8.398438 34.011719 L 28.601562 34.011719 L 28.601562 34.109375 L 8.398438 34.109375 Z M 8.601562 34.109375 L 28.5 34.109375 L 28.5 34.210938 L 8.601562 34.210938 Z M 8.699219 34.210938 L 28.300781 34.210938 L 28.300781 34.308594 L 8.699219 34.308594 Z M 8.898438 34.308594 L 28.101562 34.308594 L 28.101562 34.410156 L 8.898438 34.410156 Z M 9.101562 34.410156 L 28 34.410156 L 28 34.511719 L 9.101562 34.511719 Z M 9.199219 34.511719 L 27.800781 34.511719 L 27.800781 34.609375 L 9.199219 34.609375 Z M 9.398438 34.609375 L 27.601562 34.609375 L 27.601562 34.710938 L 9.398438 34.710938 Z M 9.601562 34.710938 L 27.398438 34.710938 L 27.398438 34.808594 L 9.601562 34.808594 Z M 9.800781 34.808594 L 27.199219 34.808594 L 27.199219 34.910156 L 9.800781 34.910156 Z M 10 34.910156 L 27 34.910156 L 27 35.011719 L 10 35.011719 Z M 10.199219 35.011719 L 26.800781 35.011719 L 26.800781 35.109375 L 10.199219 35.109375 Z M 10.398438 35.109375 L 26.601562 35.109375 L 26.601562 35.210938 L 10.398438 35.210938 Z M 10.601562 35.210938 L 26.398438 35.210938 L 26.398438 35.308594 L 10.601562 35.308594 Z M 10.800781 35.308594 L 26.101562 35.308594 L 26.101562 35.410156 L 10.800781 35.410156 Z M 11 35.410156 L 25.898438 35.410156 L 25.898438 35.511719 L 11 35.511719 Z M 11.300781 35.511719 L 25.601562 35.511719 L 25.601562 35.609375 L 11.300781 35.609375 Z M 11.5 35.609375 L 25.398438 35.609375 L 25.398438 35.710938 L 11.5 35.710938 Z M 11.800781 35.710938 L 25.101562 35.710938 L 25.101562 35.808594 L 11.800781 35.808594 Z M 12 35.808594 L 24.898438 35.808594 L 24.898438 35.910156 L 12 35.910156 Z M 12.300781 35.910156 L 24.601562 35.910156 L 24.601562 36.011719 L 12.300781 36.011719 Z M 12.601562 36.011719 L 24.300781 36.011719 L 24.300781 36.109375 L 12.601562 36.109375 Z M 12.898438 36.109375 L 23.898438 36.109375 L 23.898438 36.210938 L 12.898438 36.210938 Z M 13.199219 36.210938 L 23.601562 36.210938 L 23.601562 36.308594 L 13.199219 36.308594 Z M 13.601562 36.308594 L 23.199219 36.308594 L 23.199219 36.410156 L 13.601562 36.410156 Z M 14 36.410156 L 22.800781 36.410156 L 22.800781 36.511719 L 14 36.511719 Z M 14.398438 36.511719 L 22.398438 36.511719 L 22.398438 36.609375 L 14.398438 36.609375 Z M 14.898438 36.609375 L 21.898438 36.609375 L 21.898438 36.710938 L 14.898438 36.710938 Z M 15.398438 36.710938 L 21.398438 36.710938 L 21.398438 36.808594 L 15.398438 36.808594 Z M 16.199219 36.808594 L 20.699219 36.808594 L 20.699219 36.910156 L 16.199219 36.910156 Z M 17.199219 36.910156 L 19.699219 36.910156 L 19.699219 37 L 17.199219 37 Z M 17.199219 36.910156 "/>
</clipPath>
<clipPath id="clip2">
  <path d="M 18.457031 36.957031 C 25.347656 36.957031 32.355469 32.546875 32.355469 29.503906 C 32.355469 26.886719 27.179688 25.304688 19.4375 25.304688 C 15.367188 25.304688 11.976562 25.925781 8.6875 25.925781 C 5.421875 25.925781 2.21875 24.71875 0.558594 23.09375 C 2.609375 31.066406 9.84375 36.957031 18.457031 36.957031 M 0 17.554688 C 1.175781 15.792969 3.535156 13.972656 7.101562 12.828125 C 9.699219 11.996094 13.574219 11.398438 17.511719 11.398438 C 25.59375 11.398438 33.335938 13.667969 36.914062 17.578125 C 36.445312 7.789062 28.359375 0 18.457031 0 C 8.5625 0 0.484375 7.777344 0 17.554688 "/>
</clipPath>
<radialGradient id="radial0" gradientUnits="userSpaceOnUse" cx="0" cy="0" fx="0" fy="0" r="18.4547" gradientTransform="matrix(1,0,0,-1,18.5,18.4417)">
<stop offset="0" style="stop-color:rgb(25.465393%,60.522461%,44.194031%);stop-opacity:1;"/>
<stop offset="0.015625" style="stop-color:rgb(25.323486%,60.388184%,44.194031%);stop-opacity:1;"/>
<stop offset="0.0273438" style="stop-color:rgb(25.184631%,60.250854%,44.10553%);stop-opacity:1;"/>
<stop offset="0.0390625" style="stop-color:rgb(25.056458%,60.206604%,44.00177%);stop-opacity:1;"/>
<stop offset="0.0664062" style="stop-color:rgb(24.855042%,60.112%,43.90564%);stop-opacity:1;"/>
<stop offset="0.078125" style="stop-color:rgb(24.703979%,59.942627%,43.713379%);stop-opacity:1;"/>
<stop offset="0.0898438" style="stop-color:rgb(24.490356%,59.727478%,43.612671%);stop-opacity:1;"/>
<stop offset="0.117188" style="stop-color:rgb(24.201965%,59.579468%,43.638611%);stop-opacity:1;"/>
<stop offset="0.128906" style="stop-color:rgb(24.034119%,59.365845%,43.441772%);stop-opacity:1;"/>
<stop offset="0.152344" style="stop-color:rgb(23.931885%,59.133911%,43.229675%);stop-opacity:1;"/>
<stop offset="0.164062" style="stop-color:rgb(23.762512%,59.056091%,43.214417%);stop-opacity:1;"/>
<stop offset="0.175781" style="stop-color:rgb(23.503113%,58.99353%,43.139648%);stop-opacity:1;"/>
<stop offset="0.199219" style="stop-color:rgb(23.292542%,58.868408%,43.025208%);stop-opacity:1;"/>
<stop offset="0.210938" style="stop-color:rgb(23.152161%,58.674622%,42.947388%);stop-opacity:1;"/>
<stop offset="0.222656" style="stop-color:rgb(22.990417%,58.503723%,42.880249%);stop-opacity:1;"/>
<stop offset="0.234375" style="stop-color:rgb(22.921753%,58.43811%,42.762756%);stop-opacity:1;"/>
<stop offset="0.257812" style="stop-color:rgb(22.740173%,58.309937%,42.678833%);stop-opacity:1;"/>
<stop offset="0.277344" style="stop-color:rgb(22.418213%,58.029175%,42.530823%);stop-opacity:1;"/>
<stop offset="0.296875" style="stop-color:rgb(22.207642%,57.85675%,42.382812%);stop-opacity:1;"/>
<stop offset="0.316406" style="stop-color:rgb(21.972656%,57.752991%,42.353821%);stop-opacity:1;"/>
<stop offset="0.335938" style="stop-color:rgb(21.806335%,57.521057%,42.172241%);stop-opacity:1;"/>
<stop offset="0.355469" style="stop-color:rgb(21.740723%,57.348633%,41.999817%);stop-opacity:1;"/>
<stop offset="0.363281" style="stop-color:rgb(21.566772%,57.296753%,42.01355%);stop-opacity:1;"/>
<stop offset="0.382812" style="stop-color:rgb(21.311951%,57.235718%,41.954041%);stop-opacity:1;"/>
<stop offset="0.398438" style="stop-color:rgb(21.096802%,57.090759%,41.790771%);stop-opacity:1;"/>
<stop offset="0.414062" style="stop-color:rgb(21.054077%,56.925964%,41.687012%);stop-opacity:1;"/>
<stop offset="0.421875" style="stop-color:rgb(20.97168%,56.800842%,41.676331%);stop-opacity:1;"/>
<stop offset="0.4375" style="stop-color:rgb(20.809937%,56.712341%,41.610718%);stop-opacity:1;"/>
<stop offset="0.453125" style="stop-color:rgb(20.573425%,56.578064%,41.467285%);stop-opacity:1;"/>
<stop offset="0.46875" style="stop-color:rgb(20.385742%,56.344604%,41.360474%);stop-opacity:1;"/>
<stop offset="0.484375" style="stop-color:rgb(20.373535%,56.214905%,41.270447%);stop-opacity:1;"/>
<stop offset="0.492188" style="stop-color:rgb(20.283508%,56.182861%,41.169739%);stop-opacity:1;"/>
<stop offset="0.507812" style="stop-color:rgb(20.094299%,56.103516%,41.110229%);stop-opacity:1;"/>
<stop offset="0.519531" style="stop-color:rgb(19.984436%,55.964661%,41.040039%);stop-opacity:1;"/>
<stop offset="0.53125" style="stop-color:rgb(19.987488%,55.79834%,40.960693%);stop-opacity:1;"/>
<stop offset="0.542969" style="stop-color:rgb(19.837952%,55.677795%,40.855408%);stop-opacity:1;"/>
<stop offset="0.570312" style="stop-color:rgb(19.639587%,55.560303%,40.715027%);stop-opacity:1;"/>
<stop offset="0.582031" style="stop-color:rgb(19.522095%,55.378723%,40.574646%);stop-opacity:1;"/>
<stop offset="0.59375" style="stop-color:rgb(19.361877%,55.192566%,40.428162%);stop-opacity:1;"/>
<stop offset="0.617188" style="stop-color:rgb(19.262695%,55.029297%,40.301514%);stop-opacity:1;"/>
<stop offset="0.640625" style="stop-color:rgb(19.168091%,54.930115%,40.206909%);stop-opacity:1;"/>
<stop offset="0.648438" style="stop-color:rgb(19.017029%,54.8172%,40.104675%);stop-opacity:1;"/>
<stop offset="0.667969" style="stop-color:rgb(18.93158%,54.664612%,40.003967%);stop-opacity:1;"/>
<stop offset="0.675781" style="stop-color:rgb(18.788147%,54.51355%,39.93988%);stop-opacity:1;"/>
<stop offset="0.695312" style="stop-color:rgb(18.592834%,54.402161%,39.831543%);stop-opacity:1;"/>
<stop offset="0.710938" style="stop-color:rgb(18.531799%,54.217529%,39.640808%);stop-opacity:1;"/>
<stop offset="0.726562" style="stop-color:rgb(18.525696%,54.017639%,39.509583%);stop-opacity:1;"/>
<stop offset="0.742188" style="stop-color:rgb(18.440247%,53.971863%,39.509583%);stop-opacity:1;"/>
<stop offset="0.75" style="stop-color:rgb(18.247986%,53.874207%,39.494324%);stop-opacity:1;"/>
<stop offset="0.765625" style="stop-color:rgb(18.141174%,53.713989%,39.376831%);stop-opacity:1;"/>
<stop offset="0.777344" style="stop-color:rgb(18.101501%,53.562927%,39.216614%);stop-opacity:1;"/>
<stop offset="0.804688" style="stop-color:rgb(17.915344%,53.370667%,39.093018%);stop-opacity:1;"/>
<stop offset="0.828125" style="stop-color:rgb(17.782593%,53.193665%,38.96637%);stop-opacity:1;"/>
<stop offset="0.835938" style="stop-color:rgb(17.811584%,53.094482%,38.827515%);stop-opacity:1;"/>
<stop offset="0.855469" style="stop-color:rgb(17.630005%,52.912903%,38.716125%);stop-opacity:1;"/>
<stop offset="0.871094" style="stop-color:rgb(17.428589%,52.76947%,38.659668%);stop-opacity:1;"/>
<stop offset="0.886719" style="stop-color:rgb(17.453003%,52.670288%,38.523865%);stop-opacity:1;"/>
<stop offset="1" style="stop-color:rgb(17.481995%,52.580261%,38.398743%);stop-opacity:1;"/>
</radialGradient>
<clipPath id="clip3">
  <path d="M 1 13 L 38 13 L 38 37.511719 L 1 37.511719 Z M 1 13 "/>
</clipPath>
<clipPath id="clip4">
  <path d="M 7.597656 14.953125 C 4 16.167969 1.15625 18.621094 1.15625 20.226562 C 1.15625 22.074219 4.894531 23.898438 8.765625 23.898438 C 11.285156 23.898438 14.152344 23.367188 18.839844 23.367188 C 30.019531 23.367188 34.121094 26.390625 34.121094 29.035156 C 34.121094 32.476562 29.417969 35.476562 24.882812 36.742188 L 24.847656 37.511719 C 33.429688 35.277344 37.757812 30.507812 37.757812 24.195312 C 37.757812 21.246094 36.679688 18.910156 33.753906 17.15625 C 30.085938 14.953125 23.902344 13.519531 17.738281 13.519531 C 14.246094 13.519531 10.464844 13.988281 7.597656 14.953125 "/>
</clipPath>
<clipPath id="clip5">
  <path d="M 7.597656 14.953125 C 4 16.167969 1.15625 18.621094 1.15625 20.226562 C 1.15625 22.074219 4.894531 23.898438 8.765625 23.898438 C 11.285156 23.898438 14.152344 23.367188 18.839844 23.367188 C 30.019531 23.367188 34.121094 26.390625 34.121094 29.035156 C 34.121094 32.476562 29.417969 35.476562 24.882812 36.742188 L 24.847656 37.511719 C 33.429688 35.277344 37.757812 30.507812 37.757812 24.195312 C 37.757812 21.246094 36.679688 18.910156 33.753906 17.15625 C 30.085938 14.953125 23.902344 13.519531 17.738281 13.519531 C 14.246094 13.519531 10.464844 13.988281 7.597656 14.953125 "/>
</clipPath>
<linearGradient id="linear0" gradientUnits="userSpaceOnUse" x1="-0.0869928" y1="0" x2="1.144729" y2="0" gradientTransform="matrix(30.72,17.7362,17.7362,-30.72,4.875,13.2542)">
<stop offset="0" style="stop-color:rgb(32.157898%,75.177002%,31.794739%);stop-opacity:1;"/>
<stop offset="0.0625" style="stop-color:rgb(32.157898%,75.177002%,31.794739%);stop-opacity:1;"/>
<stop offset="0.078125" style="stop-color:rgb(32.00531%,75.1297%,31.834412%);stop-opacity:1;"/>
<stop offset="0.09375" style="stop-color:rgb(31.732178%,75.047302%,31.906128%);stop-opacity:1;"/>
<stop offset="0.109375" style="stop-color:rgb(31.491089%,74.975586%,31.968689%);stop-opacity:1;"/>
<stop offset="0.125" style="stop-color:rgb(31.175232%,74.879456%,32.051086%);stop-opacity:1;"/>
<stop offset="0.132812" style="stop-color:rgb(30.895996%,74.795532%,32.124329%);stop-opacity:1;"/>
<stop offset="0.140625" style="stop-color:rgb(30.700684%,74.737549%,32.174683%);stop-opacity:1;"/>
<stop offset="0.15625" style="stop-color:rgb(30.421448%,74.653625%,32.247925%);stop-opacity:1;"/>
<stop offset="0.171875" style="stop-color:rgb(30.131531%,74.565125%,32.322693%);stop-opacity:1;"/>
<stop offset="0.1875" style="stop-color:rgb(29.908752%,74.497986%,32.380676%);stop-opacity:1;"/>
<stop offset="0.203125" style="stop-color:rgb(29.666138%,74.424744%,32.444763%);stop-opacity:1;"/>
<stop offset="0.21875" style="stop-color:rgb(29.470825%,74.36676%,32.495117%);stop-opacity:1;"/>
<stop offset="0.234375" style="stop-color:rgb(29.22821%,74.293518%,32.557678%);stop-opacity:1;"/>
<stop offset="0.25" style="stop-color:rgb(29.032898%,74.234009%,32.609558%);stop-opacity:1;"/>
<stop offset="0.257812" style="stop-color:rgb(28.948975%,74.209595%,32.63092%);stop-opacity:1;"/>
<stop offset="0.265625" style="stop-color:rgb(28.752136%,74.150085%,32.6828%);stop-opacity:1;"/>
<stop offset="0.28125" style="stop-color:rgb(28.4729%,74.066162%,32.754517%);stop-opacity:1;"/>
<stop offset="0.296875" style="stop-color:rgb(28.277588%,74.006653%,32.806396%);stop-opacity:1;"/>
<stop offset="0.304688" style="stop-color:rgb(28.193665%,73.982239%,32.827759%);stop-opacity:1;"/>
<stop offset="0.3125" style="stop-color:rgb(27.998352%,73.919678%,32.878113%);stop-opacity:1;"/>
<stop offset="0.328125" style="stop-color:rgb(27.870178%,73.764038%,32.904053%);stop-opacity:1;"/>
<stop offset="0.335937" style="stop-color:rgb(27.816772%,73.580933%,32.905579%);stop-opacity:1;"/>
<stop offset="0.34375" style="stop-color:rgb(27.6474%,73.41156%,32.940674%);stop-opacity:1;"/>
<stop offset="0.359375" style="stop-color:rgb(27.575684%,73.223877%,32.946777%);stop-opacity:1;"/>
<stop offset="0.367187" style="stop-color:rgb(27.467346%,73.074341%,32.966614%);stop-opacity:1;"/>
<stop offset="0.375" style="stop-color:rgb(27.288818%,72.947693%,33.007812%);stop-opacity:1;"/>
<stop offset="0.390625" style="stop-color:rgb(27.255249%,72.808838%,33.006287%);stop-opacity:1;"/>
<stop offset="0.40625" style="stop-color:rgb(27.153015%,72.601318%,33.02002%);stop-opacity:1;"/>
<stop offset="0.421875" style="stop-color:rgb(26.989746%,72.412109%,33.099365%);stop-opacity:1;"/>
<stop offset="0.4375" style="stop-color:rgb(26.776123%,72.238159%,33.285522%);stop-opacity:1;"/>
<stop offset="0.445312" style="stop-color:rgb(26.617432%,72.029114%,33.406067%);stop-opacity:1;"/>
<stop offset="0.453125" style="stop-color:rgb(26.651001%,71.855164%,33.381653%);stop-opacity:1;"/>
<stop offset="0.460937" style="stop-color:rgb(26.609802%,71.699524%,33.381653%);stop-opacity:1;"/>
<stop offset="0.46875" style="stop-color:rgb(26.431274%,71.577454%,33.448792%);stop-opacity:1;"/>
<stop offset="0.484375" style="stop-color:rgb(26.338196%,71.440125%,33.601379%);stop-opacity:1;"/>
<stop offset="0.492187" style="stop-color:rgb(26.24054%,71.321106%,33.731079%);stop-opacity:1;"/>
<stop offset="0.5" style="stop-color:rgb(26.055908%,71.220398%,33.773804%);stop-opacity:1;"/>
<stop offset="0.507812" style="stop-color:rgb(26.008606%,71.090698%,33.807373%);stop-opacity:1;"/>
<stop offset="0.515625" style="stop-color:rgb(26.017761%,71.028137%,33.938599%);stop-opacity:1;"/>
<stop offset="0.53125" style="stop-color:rgb(25.849915%,70.869446%,34.075928%);stop-opacity:1;"/>
<stop offset="0.539062" style="stop-color:rgb(25.701904%,70.661926%,34.098816%);stop-opacity:1;"/>
<stop offset="0.546875" style="stop-color:rgb(25.683594%,70.509338%,34.089661%);stop-opacity:1;"/>
<stop offset="0.5625" style="stop-color:rgb(25.531006%,70.288086%,34.112549%);stop-opacity:1;"/>
<stop offset="0.570312" style="stop-color:rgb(25.430298%,70.094299%,34.12323%);stop-opacity:1;"/>
<stop offset="0.578125" style="stop-color:rgb(25.358582%,69.961548%,34.199524%);stop-opacity:1;"/>
<stop offset="0.585937" style="stop-color:rgb(25.18158%,69.845581%,34.375%);stop-opacity:1;"/>
<stop offset="0.59375" style="stop-color:rgb(25.114441%,69.714355%,34.448242%);stop-opacity:1;"/>
<stop offset="0.609375" style="stop-color:rgb(25.154114%,69.561768%,34.422302%);stop-opacity:1;"/>
<stop offset="0.617187" style="stop-color:rgb(25.074768%,69.424438%,34.431458%);stop-opacity:1;"/>
<stop offset="0.625" style="stop-color:rgb(24.899292%,69.303894%,34.468079%);stop-opacity:1;"/>
<stop offset="0.640625" style="stop-color:rgb(24.839783%,69.178772%,34.603882%);stop-opacity:1;"/>
<stop offset="0.648437" style="stop-color:rgb(24.87793%,69.030762%,34.715271%);stop-opacity:1;"/>
<stop offset="0.65625" style="stop-color:rgb(24.905396%,68.92395%,34.700012%);stop-opacity:1;"/>
<stop offset="0.664062" style="stop-color:rgb(24.845886%,68.836975%,34.707642%);stop-opacity:1;"/>
<stop offset="0.671875" style="stop-color:rgb(24.681091%,68.676758%,34.736633%);stop-opacity:1;"/>
<stop offset="0.679687" style="stop-color:rgb(24.581909%,68.569946%,34.75647%);stop-opacity:1;"/>
<stop offset="0.683594" style="stop-color:rgb(24.417114%,68.139648%,34.829712%);stop-opacity:1;"/>
<stop offset="0.6875" style="stop-color:rgb(24.250793%,67.720032%,34.896851%);stop-opacity:1;"/>
<stop offset="0.691406" style="stop-color:rgb(24.102783%,67.510986%,35.047913%);stop-opacity:1;"/>
<stop offset="0.695312" style="stop-color:rgb(23.954773%,67.301941%,35.197449%);stop-opacity:1;"/>
<stop offset="0.699219" style="stop-color:rgb(23.725891%,66.877747%,35.324097%);stop-opacity:1;"/>
<stop offset="0.703125" style="stop-color:rgb(23.497009%,66.453552%,35.446167%);stop-opacity:1;"/>
<stop offset="0.707031" style="stop-color:rgb(23.268127%,66.238403%,35.668945%);stop-opacity:1;"/>
<stop offset="0.710937" style="stop-color:rgb(23.036194%,66.023254%,35.891724%);stop-opacity:1;"/>
<stop offset="0.714844" style="stop-color:rgb(22.840881%,65.812683%,35.951233%);stop-opacity:1;"/>
<stop offset="0.71875" style="stop-color:rgb(22.645569%,65.602112%,36.010742%);stop-opacity:1;"/>
<stop offset="0.722656" style="stop-color:rgb(22.561646%,65.209961%,36.051941%);stop-opacity:1;"/>
<stop offset="0.726562" style="stop-color:rgb(22.477722%,64.816284%,36.088562%);stop-opacity:1;"/>
<stop offset="0.730469" style="stop-color:rgb(22.254944%,64.602661%,36.248779%);stop-opacity:1;"/>
<stop offset="0.734375" style="stop-color:rgb(22.032166%,64.389038%,36.404419%);stop-opacity:1;"/>
<stop offset="0.738281" style="stop-color:rgb(21.878052%,63.980103%,36.387634%);stop-opacity:1;"/>
<stop offset="0.742187" style="stop-color:rgb(21.723938%,63.572693%,36.369324%);stop-opacity:1;"/>
<stop offset="0.746094" style="stop-color:rgb(21.54541%,63.287354%,36.502075%);stop-opacity:1;"/>
<stop offset="0.75" style="stop-color:rgb(21.365356%,63.002014%,36.633301%);stop-opacity:1;"/>
<stop offset="0.753906" style="stop-color:rgb(21.226501%,62.696838%,36.778259%);stop-opacity:1;"/>
<stop offset="0.757812" style="stop-color:rgb(21.086121%,62.390137%,36.921692%);stop-opacity:1;"/>
<stop offset="0.761719" style="stop-color:rgb(20.925903%,62.097168%,37.052917%);stop-opacity:1;"/>
<stop offset="0.765625" style="stop-color:rgb(20.76416%,61.802673%,37.182617%);stop-opacity:1;"/>
<stop offset="0.769531" style="stop-color:rgb(20.585632%,61.505127%,37.173462%);stop-opacity:1;"/>
<stop offset="0.773437" style="stop-color:rgb(20.407104%,61.206055%,37.162781%);stop-opacity:1;"/>
<stop offset="0.777344" style="stop-color:rgb(20.333862%,60.935974%,37.278748%);stop-opacity:1;"/>
<stop offset="0.78125" style="stop-color:rgb(20.262146%,60.665894%,37.391663%);stop-opacity:1;"/>
<stop offset="0.785156" style="stop-color:rgb(20.227051%,60.401917%,37.385559%);stop-opacity:1;"/>
<stop offset="0.789062" style="stop-color:rgb(20.193481%,60.137939%,37.376404%);stop-opacity:1;"/>
<stop offset="0.792969" style="stop-color:rgb(20.001221%,59.803772%,37.454224%);stop-opacity:1;"/>
<stop offset="0.796875" style="stop-color:rgb(19.810486%,59.469604%,37.527466%);stop-opacity:1;"/>
<stop offset="0.800781" style="stop-color:rgb(19.650269%,59.22699%,37.663269%);stop-opacity:1;"/>
<stop offset="0.804687" style="stop-color:rgb(19.490051%,58.984375%,37.794495%);stop-opacity:1;"/>
<stop offset="0.808594" style="stop-color:rgb(19.308472%,58.670044%,37.843323%);stop-opacity:1;"/>
<stop offset="0.8125" style="stop-color:rgb(19.125366%,58.354187%,37.889099%);stop-opacity:1;"/>
<stop offset="0.816406" style="stop-color:rgb(19.000244%,58.006287%,37.887573%);stop-opacity:1;"/>
<stop offset="0.820312" style="stop-color:rgb(18.876648%,57.659912%,37.884521%);stop-opacity:1;"/>
<stop offset="0.824219" style="stop-color:rgb(18.84613%,57.406616%,37.95166%);stop-opacity:1;"/>
<stop offset="0.828125" style="stop-color:rgb(18.812561%,57.151794%,38.015747%);stop-opacity:1;"/>
<stop offset="0.832031" style="stop-color:rgb(18.65387%,56.822205%,38.069153%);stop-opacity:1;"/>
<stop offset="0.835938" style="stop-color:rgb(18.495178%,56.491089%,38.121033%);stop-opacity:1;"/>
<stop offset="0.839844" style="stop-color:rgb(18.315125%,56.167603%,38.175964%);stop-opacity:1;"/>
<stop offset="0.84375" style="stop-color:rgb(18.136597%,55.84259%,38.227844%);stop-opacity:1;"/>
<stop offset="0.847656" style="stop-color:rgb(18.125916%,55.56488%,38.250732%);stop-opacity:1;"/>
<stop offset="0.851562" style="stop-color:rgb(18.113708%,55.285645%,38.272095%);stop-opacity:1;"/>
<stop offset="0.855469" style="stop-color:rgb(17.967224%,54.957581%,38.313293%);stop-opacity:1;"/>
<stop offset="0.859375" style="stop-color:rgb(17.823792%,54.629517%,38.35144%);stop-opacity:1;"/>
<stop offset="0.863281" style="stop-color:rgb(17.802429%,54.290771%,38.356018%);stop-opacity:1;"/>
<stop offset="0.867188" style="stop-color:rgb(17.781067%,53.952026%,38.360596%);stop-opacity:1;"/>
<stop offset="0.871094" style="stop-color:rgb(17.6651%,53.627014%,38.389587%);stop-opacity:1;"/>
<stop offset="0.875" style="stop-color:rgb(17.549133%,53.303528%,38.414001%);stop-opacity:1;"/>
<stop offset="0.878906" style="stop-color:rgb(17.515564%,52.941895%,38.407898%);stop-opacity:1;"/>
<stop offset="0.882812" style="stop-color:rgb(17.481995%,52.580261%,38.398743%);stop-opacity:1;"/>
<stop offset="0.890625" style="stop-color:rgb(17.481995%,52.580261%,38.398743%);stop-opacity:1;"/>
<stop offset="0.90625" style="stop-color:rgb(17.481995%,52.580261%,38.398743%);stop-opacity:1;"/>
<stop offset="0.9375" style="stop-color:rgb(17.481995%,52.580261%,38.398743%);stop-opacity:1;"/>
<stop offset="1" style="stop-color:rgb(17.481995%,52.580261%,38.398743%);stop-opacity:1;"/>
</linearGradient>
<clipPath id="clip6">
  <path d="M 2 14 L 32 14 L 32 23 L 2 23 Z M 2 14 "/>
</clipPath>
<clipPath id="clip7">
  <path d="M 7.511719 16.335938 C 4.828125 17.34375 2.59375 19.25 2.59375 20.253906 C 2.59375 21.28125 5.546875 22.464844 6.925781 22.464844 C 10.488281 19.597656 17.492188 16.445312 25.957031 16.445312 C 27.839844 16.445312 29.460938 16.738281 31.640625 17.210938 C 28.8125 15.796875 23.683594 14.664062 18.578125 14.664062 C 14.214844 14.664062 10.261719 15.304688 7.511719 16.335938 "/>
</clipPath>
<clipPath id="clip8">
  <path d="M 7.511719 16.335938 C 4.828125 17.34375 2.59375 19.25 2.59375 20.253906 C 2.59375 21.28125 5.546875 22.464844 6.925781 22.464844 C 10.488281 19.597656 17.492188 16.445312 25.957031 16.445312 C 27.839844 16.445312 29.460938 16.738281 31.640625 17.210938 C 28.8125 15.796875 23.683594 14.664062 18.578125 14.664062 C 14.214844 14.664062 10.261719 15.304688 7.511719 16.335938 "/>
</clipPath>
<linearGradient id="linear1" gradientUnits="userSpaceOnUse" x1="-0.349503" y1="0" x2="1.498478" y2="0" gradientTransform="matrix(3.34111,9.17965,6.89521,-2.76302,15.0938,13.3323)">
<stop offset="0" style="stop-color:rgb(71.765137%,89.198303%,63.531494%);stop-opacity:1;"/>
<stop offset="0.125" style="stop-color:rgb(71.765137%,89.198303%,63.531494%);stop-opacity:1;"/>
<stop offset="0.1875" style="stop-color:rgb(71.765137%,89.198303%,63.531494%);stop-opacity:1;"/>
<stop offset="0.195312" style="stop-color:rgb(71.624756%,89.147949%,63.418579%);stop-opacity:1;"/>
<stop offset="0.199219" style="stop-color:rgb(71.182251%,88.989258%,63.059998%);stop-opacity:1;"/>
<stop offset="0.203125" style="stop-color:rgb(70.880127%,88.882446%,62.815857%);stop-opacity:1;"/>
<stop offset="0.207031" style="stop-color:rgb(70.629883%,88.792419%,62.615967%);stop-opacity:1;"/>
<stop offset="0.210938" style="stop-color:rgb(70.378113%,88.703918%,62.414551%);stop-opacity:1;"/>
<stop offset="0.214844" style="stop-color:rgb(70.111084%,88.607788%,62.202454%);stop-opacity:1;"/>
<stop offset="0.21875" style="stop-color:rgb(69.844055%,88.513184%,61.988831%);stop-opacity:1;"/>
<stop offset="0.222656" style="stop-color:rgb(69.558716%,88.407898%,61.700439%);stop-opacity:1;"/>
<stop offset="0.226562" style="stop-color:rgb(69.271851%,88.304138%,61.410522%);stop-opacity:1;"/>
<stop offset="0.230469" style="stop-color:rgb(69.041443%,88.218689%,61.164856%);stop-opacity:1;"/>
<stop offset="0.234375" style="stop-color:rgb(68.809509%,88.13324%,60.916138%);stop-opacity:1;"/>
<stop offset="0.238281" style="stop-color:rgb(68.489075%,88.023376%,60.760498%);stop-opacity:1;"/>
<stop offset="0.242188" style="stop-color:rgb(68.167114%,87.913513%,60.603333%);stop-opacity:1;"/>
<stop offset="0.246094" style="stop-color:rgb(67.988586%,87.843323%,60.322571%);stop-opacity:1;"/>
<stop offset="0.25" style="stop-color:rgb(67.810059%,87.773132%,60.041809%);stop-opacity:1;"/>
<stop offset="0.257812" style="stop-color:rgb(67.631531%,87.710571%,59.902954%);stop-opacity:1;"/>
<stop offset="0.261719" style="stop-color:rgb(67.097473%,87.519836%,59.487915%);stop-opacity:1;"/>
<stop offset="0.265625" style="stop-color:rgb(66.740417%,87.394714%,59.211731%);stop-opacity:1;"/>
<stop offset="0.269531" style="stop-color:rgb(66.545105%,87.31842%,58.921814%);stop-opacity:1;"/>
<stop offset="0.273438" style="stop-color:rgb(66.348267%,87.240601%,58.630371%);stop-opacity:1;"/>
<stop offset="0.277344" style="stop-color:rgb(66.027832%,87.132263%,58.479309%);stop-opacity:1;"/>
<stop offset="0.28125" style="stop-color:rgb(65.705872%,87.0224%,58.325195%);stop-opacity:1;"/>
<stop offset="0.285156" style="stop-color:rgb(65.350342%,86.90033%,58.100891%);stop-opacity:1;"/>
<stop offset="0.289062" style="stop-color:rgb(64.993286%,86.775208%,57.876587%);stop-opacity:1;"/>
<stop offset="0.292969" style="stop-color:rgb(64.743042%,86.682129%,57.594299%);stop-opacity:1;"/>
<stop offset="0.296875" style="stop-color:rgb(64.492798%,86.58905%,57.313538%);stop-opacity:1;"/>
<stop offset="0.300781" style="stop-color:rgb(64.31427%,86.523438%,57.102966%);stop-opacity:1;"/>
<stop offset="0.304688" style="stop-color:rgb(64.135742%,86.456299%,56.890869%);stop-opacity:1;"/>
<stop offset="0.308594" style="stop-color:rgb(63.887024%,86.367798%,56.704712%);stop-opacity:1;"/>
<stop offset="0.3125" style="stop-color:rgb(63.63678%,86.279297%,56.517029%);stop-opacity:1;"/>
<stop offset="0.316406" style="stop-color:rgb(63.334656%,86.170959%,56.245422%);stop-opacity:1;"/>
<stop offset="0.320312" style="stop-color:rgb(63.031006%,86.061096%,55.975342%);stop-opacity:1;"/>
<stop offset="0.324219" style="stop-color:rgb(62.817383%,85.980225%,55.693054%);stop-opacity:1;"/>
<stop offset="0.328125" style="stop-color:rgb(62.602234%,85.899353%,55.412292%);stop-opacity:1;"/>
<stop offset="0.332031" style="stop-color:rgb(62.246704%,85.774231%,55.151367%);stop-opacity:1;"/>
<stop offset="0.335938" style="stop-color:rgb(61.889648%,85.647583%,54.888916%);stop-opacity:1;"/>
<stop offset="0.339844" style="stop-color:rgb(61.534119%,85.522461%,54.629517%);stop-opacity:1;"/>
<stop offset="0.34375" style="stop-color:rgb(61.177063%,85.397339%,54.370117%);stop-opacity:1;"/>
<stop offset="0.351562" style="stop-color:rgb(60.998535%,85.334778%,54.240417%);stop-opacity:1;"/>
<stop offset="0.355469" style="stop-color:rgb(60.481262%,85.153198%,53.866577%);stop-opacity:1;"/>
<stop offset="0.359375" style="stop-color:rgb(60.140991%,85.032654%,53.620911%);stop-opacity:1;"/>
<stop offset="0.363281" style="stop-color:rgb(59.927368%,84.951782%,53.347778%);stop-opacity:1;"/>
<stop offset="0.367188" style="stop-color:rgb(59.713745%,84.870911%,53.07312%);stop-opacity:1;"/>
<stop offset="0.371094" style="stop-color:rgb(59.410095%,84.762573%,52.812195%);stop-opacity:1;"/>
<stop offset="0.375" style="stop-color:rgb(59.106445%,84.654236%,52.55127%);stop-opacity:1;"/>
<stop offset="0.378906" style="stop-color:rgb(58.857727%,84.562683%,52.284241%);stop-opacity:1;"/>
<stop offset="0.382812" style="stop-color:rgb(58.609009%,84.47113%,52.017212%);stop-opacity:1;"/>
<stop offset="0.386719" style="stop-color:rgb(58.430481%,84.40094%,51.741028%);stop-opacity:1;"/>
<stop offset="0.390625" style="stop-color:rgb(58.251953%,84.33075%,51.464844%);stop-opacity:1;"/>
<stop offset="0.394531" style="stop-color:rgb(58.001709%,84.239197%,51.200867%);stop-opacity:1;"/>
<stop offset="0.398438" style="stop-color:rgb(57.751465%,84.147644%,50.93689%);stop-opacity:1;"/>
<stop offset="0.402344" style="stop-color:rgb(57.449341%,84.042358%,50.727844%);stop-opacity:1;"/>
<stop offset="0.40625" style="stop-color:rgb(57.147217%,83.937073%,50.517273%);stop-opacity:1;"/>
<stop offset="0.410156" style="stop-color:rgb(56.968689%,83.872986%,50.363159%);stop-opacity:1;"/>
<stop offset="0.414062" style="stop-color:rgb(56.790161%,83.808899%,50.209045%);stop-opacity:1;"/>
<stop offset="0.417969" style="stop-color:rgb(56.593323%,83.734131%,49.940491%);stop-opacity:1;"/>
<stop offset="0.421875" style="stop-color:rgb(56.394958%,83.657837%,49.671936%);stop-opacity:1;"/>
<stop offset="0.425781" style="stop-color:rgb(56.039429%,83.534241%,49.429321%);stop-opacity:1;"/>
<stop offset="0.429688" style="stop-color:rgb(55.683899%,83.410645%,49.188232%);stop-opacity:1;"/>
<stop offset="0.4375" style="stop-color:rgb(55.506897%,83.348083%,49.066162%);stop-opacity:1;"/>
<stop offset="0.441406" style="stop-color:rgb(55.149841%,83.216858%,48.690796%);stop-opacity:1;"/>
<stop offset="0.445312" style="stop-color:rgb(54.971313%,83.148193%,48.435974%);stop-opacity:1;"/>
<stop offset="0.449219" style="stop-color:rgb(54.649353%,83.035278%,48.191833%);stop-opacity:1;"/>
<stop offset="0.453125" style="stop-color:rgb(54.325867%,82.920837%,47.947693%);stop-opacity:1;"/>
<stop offset="0.457031" style="stop-color:rgb(54.095459%,82.835388%,47.689819%);stop-opacity:1;"/>
<stop offset="0.460938" style="stop-color:rgb(53.865051%,82.751465%,47.431946%);stop-opacity:1;"/>
<stop offset="0.464844" style="stop-color:rgb(53.578186%,82.652283%,47.27478%);stop-opacity:1;"/>
<stop offset="0.46875" style="stop-color:rgb(53.291321%,82.554626%,47.117615%);stop-opacity:1;"/>
<stop offset="0.472656" style="stop-color:rgb(53.025818%,82.463074%,46.940613%);stop-opacity:1;"/>
<stop offset="0.476563" style="stop-color:rgb(52.760315%,82.369995%,46.762085%);stop-opacity:1;"/>
<stop offset="0.480469" style="stop-color:rgb(52.581787%,82.304382%,46.560669%);stop-opacity:1;"/>
<stop offset="0.484375" style="stop-color:rgb(52.403259%,82.237244%,46.357727%);stop-opacity:1;"/>
<stop offset="0.488281" style="stop-color:rgb(52.1698%,82.156372%,46.205139%);stop-opacity:1;"/>
<stop offset="0.492188" style="stop-color:rgb(51.934814%,82.0755%,46.052551%);stop-opacity:1;"/>
<stop offset="0.496094" style="stop-color:rgb(51.615906%,81.964111%,45.81604%);stop-opacity:1;"/>
<stop offset="0.5" style="stop-color:rgb(51.296997%,81.851196%,45.579529%);stop-opacity:1;"/>
<stop offset="0.503906" style="stop-color:rgb(51.098633%,81.777954%,45.341492%);stop-opacity:1;"/>
<stop offset="0.507812" style="stop-color:rgb(50.900269%,81.703186%,45.100403%);stop-opacity:1;"/>
<stop offset="0.511719" style="stop-color:rgb(50.546265%,81.587219%,45.016479%);stop-opacity:1;"/>
<stop offset="0.515625" style="stop-color:rgb(50.192261%,81.472778%,44.932556%);stop-opacity:1;"/>
<stop offset="0.519531" style="stop-color:rgb(50.013733%,81.404114%,44.673157%);stop-opacity:1;"/>
<stop offset="0.523438" style="stop-color:rgb(49.835205%,81.335449%,44.416809%);stop-opacity:1;"/>
<stop offset="0.527344" style="stop-color:rgb(49.494934%,81.216431%,44.189453%);stop-opacity:1;"/>
<stop offset="0.53125" style="stop-color:rgb(49.153137%,81.097412%,43.963623%);stop-opacity:1;"/>
<stop offset="0.535156" style="stop-color:rgb(48.942566%,81.025696%,43.830872%);stop-opacity:1;"/>
<stop offset="0.539062" style="stop-color:rgb(48.730469%,80.952454%,43.699646%);stop-opacity:1;"/>
<stop offset="0.542969" style="stop-color:rgb(48.425293%,80.847168%,43.510437%);stop-opacity:1;"/>
<stop offset="0.546875" style="stop-color:rgb(48.118591%,80.741882%,43.319702%);stop-opacity:1;"/>
<stop offset="0.550781" style="stop-color:rgb(47.871399%,80.651855%,43.080139%);stop-opacity:1;"/>
<stop offset="0.554688" style="stop-color:rgb(47.624207%,80.561829%,42.83905%);stop-opacity:1;"/>
<stop offset="0.558594" style="stop-color:rgb(47.445679%,80.497742%,42.662048%);stop-opacity:1;"/>
<stop offset="0.5625" style="stop-color:rgb(47.267151%,80.432129%,42.483521%);stop-opacity:1;"/>
<stop offset="0.566406" style="stop-color:rgb(47.015381%,80.34668%,42.329407%);stop-opacity:1;"/>
<stop offset="0.570312" style="stop-color:rgb(46.762085%,80.258179%,42.175293%);stop-opacity:1;"/>
<stop offset="0.574219" style="stop-color:rgb(46.463013%,80.155945%,41.995239%);stop-opacity:1;"/>
<stop offset="0.578125" style="stop-color:rgb(46.162415%,80.052185%,41.81366%);stop-opacity:1;"/>
<stop offset="0.582031" style="stop-color:rgb(45.983887%,79.989624%,41.676331%);stop-opacity:1;"/>
<stop offset="0.585938" style="stop-color:rgb(45.805359%,79.927063%,41.537476%);stop-opacity:1;"/>
<stop offset="0.589844" style="stop-color:rgb(45.606995%,79.853821%,41.31012%);stop-opacity:1;"/>
<stop offset="0.59375" style="stop-color:rgb(45.407104%,79.780579%,41.082764%);stop-opacity:1;"/>
<stop offset="0.597656" style="stop-color:rgb(45.054626%,79.666138%,41.009521%);stop-opacity:1;"/>
<stop offset="0.601562" style="stop-color:rgb(44.700623%,79.550171%,40.936279%);stop-opacity:1;"/>
<stop offset="0.605469" style="stop-color:rgb(44.522095%,79.483032%,40.692139%);stop-opacity:1;"/>
<stop offset="0.609375" style="stop-color:rgb(44.343567%,79.414368%,40.444946%);stop-opacity:1;"/>
<stop offset="0.617188" style="stop-color:rgb(44.165039%,79.353333%,40.330505%);stop-opacity:1;"/>
<stop offset="0.621094" style="stop-color:rgb(43.663025%,79.185486%,40.139771%);stop-opacity:1;"/>
<stop offset="0.625" style="stop-color:rgb(43.338013%,79.0802%,40.066528%);stop-opacity:1;"/>
<stop offset="0.628906" style="stop-color:rgb(43.110657%,78.999329%,39.872742%);stop-opacity:1;"/>
<stop offset="0.632812" style="stop-color:rgb(42.881775%,78.918457%,39.678955%);stop-opacity:1;"/>
<stop offset="0.636719" style="stop-color:rgb(42.703247%,78.85437%,39.523315%);stop-opacity:1;"/>
<stop offset="0.640625" style="stop-color:rgb(42.524719%,78.790283%,39.369202%);stop-opacity:1;"/>
<stop offset="0.644531" style="stop-color:rgb(42.346191%,78.726196%,39.193726%);stop-opacity:1;"/>
<stop offset="0.648438" style="stop-color:rgb(42.167664%,78.662109%,39.019775%);stop-opacity:1;"/>
<stop offset="0.652344" style="stop-color:rgb(41.989136%,78.596497%,38.838196%);stop-opacity:1;"/>
<stop offset="0.65625" style="stop-color:rgb(41.810608%,78.53241%,38.656616%);stop-opacity:1;"/>
<stop offset="0.660156" style="stop-color:rgb(41.575623%,78.451538%,38.523865%);stop-opacity:1;"/>
<stop offset="0.664062" style="stop-color:rgb(41.339111%,78.372192%,38.389587%);stop-opacity:1;"/>
<stop offset="0.667969" style="stop-color:rgb(41.023254%,78.263855%,38.212585%);stop-opacity:1;"/>
<stop offset="0.671875" style="stop-color:rgb(40.705872%,78.155518%,38.035583%);stop-opacity:1;"/>
<stop offset="0.675781" style="stop-color:rgb(40.527344%,78.094482%,37.919617%);stop-opacity:1;"/>
<stop offset="0.679688" style="stop-color:rgb(40.348816%,78.031921%,37.802124%);stop-opacity:1;"/>
<stop offset="0.683594" style="stop-color:rgb(40.170288%,77.964783%,37.568665%);stop-opacity:1;"/>
<stop offset="0.6875" style="stop-color:rgb(39.99176%,77.897644%,37.336731%);stop-opacity:1;"/>
<stop offset="0.695312" style="stop-color:rgb(39.813232%,77.836609%,37.237549%);stop-opacity:1;"/>
<stop offset="0.699219" style="stop-color:rgb(39.457703%,77.709961%,36.914062%);stop-opacity:1;"/>
<stop offset="0.703125" style="stop-color:rgb(39.279175%,77.642822%,36.689758%);stop-opacity:1;"/>
<stop offset="0.707031" style="stop-color:rgb(39.100647%,77.581787%,36.569214%);stop-opacity:1;"/>
<stop offset="0.710938" style="stop-color:rgb(38.922119%,77.519226%,36.450195%);stop-opacity:1;"/>
<stop offset="0.714844" style="stop-color:rgb(38.615417%,77.415466%,36.282349%);stop-opacity:1;"/>
<stop offset="0.71875" style="stop-color:rgb(38.30719%,77.310181%,36.117554%);stop-opacity:1;"/>
<stop offset="0.722656" style="stop-color:rgb(38.061523%,77.227783%,35.986328%);stop-opacity:1;"/>
<stop offset="0.726562" style="stop-color:rgb(37.815857%,77.14386%,35.855103%);stop-opacity:1;"/>
<stop offset="0.734375" style="stop-color:rgb(37.731934%,77.114868%,35.810852%);stop-opacity:1;"/>
<stop offset="0.75" style="stop-color:rgb(37.64801%,77.087402%,35.766602%);stop-opacity:1;"/>
<stop offset="1" style="stop-color:rgb(37.64801%,77.087402%,35.766602%);stop-opacity:1;"/>
</linearGradient>
<clipPath id="clip9">
  <path d="M 6 1 L 31 1 L 31 14 L 6 14 Z M 6 1 "/>
</clipPath>
<clipPath id="clip10">
  <path d="M 6.074219 10.539062 C 6.074219 11.398438 6.253906 12.222656 6.578125 13.003906 C 6.75 12.945312 6.921875 12.886719 7.101562 12.828125 C 9.699219 11.996094 13.574219 11.398438 17.511719 11.398438 C 22.050781 11.398438 26.484375 12.117188 30.132812 13.4375 C 30.585938 12.53125 30.835938 11.554688 30.835938 10.539062 C 30.835938 5.730469 25.292969 1.832031 18.457031 1.832031 C 11.617188 1.832031 6.074219 5.730469 6.074219 10.539062 "/>
</clipPath>
<clipPath id="clip11">
  <path d="M 6.074219 10.539062 C 6.074219 11.398438 6.253906 12.222656 6.578125 13.003906 C 6.75 12.945312 6.921875 12.886719 7.101562 12.828125 C 9.699219 11.996094 13.574219 11.398438 17.511719 11.398438 C 22.050781 11.398438 26.484375 12.117188 30.132812 13.4375 C 30.585938 12.53125 30.835938 11.554688 30.835938 10.539062 C 30.835938 5.730469 25.292969 1.832031 18.457031 1.832031 C 11.617188 1.832031 6.074219 5.730469 6.074219 10.539062 "/>
</clipPath>
<linearGradient id="linear2" gradientUnits="userSpaceOnUse" x1="-0.00148579" y1="0" x2="1.001002" y2="0" gradientTransform="matrix(0,11.5763,11.5763,0,18.4063,1.8479)">
<stop offset="0" style="stop-color:rgb(100%,100%,100%);stop-opacity:1;"/>
<stop offset="0.015625" style="stop-color:rgb(99.82605%,99.943542%,99.987793%);stop-opacity:1;"/>
<stop offset="0.0195313" style="stop-color:rgb(99.401855%,99.798584%,99.810791%);stop-opacity:1;"/>
<stop offset="0.0234375" style="stop-color:rgb(99.153137%,99.711609%,99.64447%);stop-opacity:1;"/>
<stop offset="0.0273438" style="stop-color:rgb(98.86322%,99.607849%,99.433899%);stop-opacity:1;"/>
<stop offset="0.03125" style="stop-color:rgb(98.573303%,99.505615%,99.223328%);stop-opacity:1;"/>
<stop offset="0.0351563" style="stop-color:rgb(98.283386%,99.401855%,99.015808%);stop-opacity:1;"/>
<stop offset="0.0390625" style="stop-color:rgb(97.993469%,99.299622%,98.805237%);stop-opacity:1;"/>
<stop offset="0.0429688" style="stop-color:rgb(97.703552%,99.197388%,98.596191%);stop-opacity:1;"/>
<stop offset="0.046875" style="stop-color:rgb(97.412109%,99.093628%,98.388672%);stop-opacity:1;"/>
<stop offset="0.0507813" style="stop-color:rgb(97.186279%,98.944092%,98.152161%);stop-opacity:1;"/>
<stop offset="0.0546875" style="stop-color:rgb(96.961975%,98.794556%,97.918701%);stop-opacity:1;"/>
<stop offset="0.0625" style="stop-color:rgb(96.763611%,98.629761%,97.676086%);stop-opacity:1;"/>
<stop offset="0.0664063" style="stop-color:rgb(96.30127%,98.34137%,97.213745%);stop-opacity:1;"/>
<stop offset="0.0703125" style="stop-color:rgb(96.037292%,98.219299%,96.99707%);stop-opacity:1;"/>
<stop offset="0.0742188" style="stop-color:rgb(95.747375%,98.117065%,96.791077%);stop-opacity:1;"/>
<stop offset="0.078125" style="stop-color:rgb(95.455933%,98.014832%,96.586609%);stop-opacity:1;"/>
<stop offset="0.0820313" style="stop-color:rgb(95.101929%,97.891235%,96.380615%);stop-opacity:1;"/>
<stop offset="0.0859375" style="stop-color:rgb(94.746399%,97.769165%,96.173096%);stop-opacity:1;"/>
<stop offset="0.0898438" style="stop-color:rgb(94.360352%,97.636414%,95.96405%);stop-opacity:1;"/>
<stop offset="0.09375" style="stop-color:rgb(93.972778%,97.503662%,95.756531%);stop-opacity:1;"/>
<stop offset="0.0976563" style="stop-color:rgb(93.650818%,97.387695%,95.491028%);stop-opacity:1;"/>
<stop offset="0.101563" style="stop-color:rgb(93.325806%,97.271729%,95.227051%);stop-opacity:1;"/>
<stop offset="0.105469" style="stop-color:rgb(93.035889%,97.164917%,94.93103%);stop-opacity:1;"/>
<stop offset="0.109375" style="stop-color:rgb(92.745972%,97.058105%,94.636536%);stop-opacity:1;"/>
<stop offset="0.113281" style="stop-color:rgb(92.456055%,96.954346%,94.400024%);stop-opacity:1;"/>
<stop offset="0.117188" style="stop-color:rgb(92.166138%,96.850586%,94.165039%);stop-opacity:1;"/>
<stop offset="0.121094" style="stop-color:rgb(91.876221%,96.749878%,93.966675%);stop-opacity:1;"/>
<stop offset="0.125" style="stop-color:rgb(91.586304%,96.647644%,93.766785%);stop-opacity:1;"/>
<stop offset="0.128906" style="stop-color:rgb(91.235352%,96.472168%,93.487549%);stop-opacity:1;"/>
<stop offset="0.132813" style="stop-color:rgb(90.885925%,96.29364%,93.206787%);stop-opacity:1;"/>
<stop offset="0.136719" style="stop-color:rgb(90.4953%,96.066284%,92.874146%);stop-opacity:1;"/>
<stop offset="0.140625" style="stop-color:rgb(90.103149%,95.838928%,92.541504%);stop-opacity:1;"/>
<stop offset="0.144531" style="stop-color:rgb(89.767456%,95.629883%,92.21344%);stop-opacity:1;"/>
<stop offset="0.148438" style="stop-color:rgb(89.431763%,95.419312%,91.885376%);stop-opacity:1;"/>
<stop offset="0.152344" style="stop-color:rgb(89.137268%,95.225525%,91.560364%);stop-opacity:1;"/>
<stop offset="0.15625" style="stop-color:rgb(88.842773%,95.028687%,91.233826%);stop-opacity:1;"/>
<stop offset="0.160156" style="stop-color:rgb(88.551331%,94.885254%,90.982056%);stop-opacity:1;"/>
<stop offset="0.164063" style="stop-color:rgb(88.259888%,94.741821%,90.730286%);stop-opacity:1;"/>
<stop offset="0.167969" style="stop-color:rgb(87.971497%,94.642639%,90.538025%);stop-opacity:1;"/>
<stop offset="0.171875" style="stop-color:rgb(87.68158%,94.541931%,90.345764%);stop-opacity:1;"/>
<stop offset="0.175781" style="stop-color:rgb(87.391663%,94.439697%,90.107727%);stop-opacity:1;"/>
<stop offset="0.179688" style="stop-color:rgb(87.103271%,94.337463%,89.868164%);stop-opacity:1;"/>
<stop offset="0.183594" style="stop-color:rgb(86.813354%,94.233704%,89.587402%);stop-opacity:1;"/>
<stop offset="0.1875" style="stop-color:rgb(86.523438%,94.128418%,89.305115%);stop-opacity:1;"/>
<stop offset="0.191406" style="stop-color:rgb(86.235046%,94.026184%,89.068604%);stop-opacity:1;"/>
<stop offset="0.195313" style="stop-color:rgb(85.945129%,93.92395%,88.833618%);stop-opacity:1;"/>
<stop offset="0.199219" style="stop-color:rgb(85.656738%,93.824768%,88.645935%);stop-opacity:1;"/>
<stop offset="0.203125" style="stop-color:rgb(85.366821%,93.725586%,88.458252%);stop-opacity:1;"/>
<stop offset="0.207031" style="stop-color:rgb(85.076904%,93.585205%,88.253784%);stop-opacity:1;"/>
<stop offset="0.210938" style="stop-color:rgb(84.785461%,93.444824%,88.049316%);stop-opacity:1;"/>
<stop offset="0.214844" style="stop-color:rgb(84.492493%,93.258667%,87.826538%);stop-opacity:1;"/>
<stop offset="0.21875" style="stop-color:rgb(84.20105%,93.070984%,87.60376%);stop-opacity:1;"/>
<stop offset="0.222656" style="stop-color:rgb(83.866882%,92.907715%,87.358093%);stop-opacity:1;"/>
<stop offset="0.226563" style="stop-color:rgb(83.534241%,92.744446%,87.110901%);stop-opacity:1;"/>
<stop offset="0.230469" style="stop-color:rgb(83.149719%,92.611694%,86.836243%);stop-opacity:1;"/>
<stop offset="0.234375" style="stop-color:rgb(82.763672%,92.477417%,86.561584%);stop-opacity:1;"/>
<stop offset="0.238281" style="stop-color:rgb(82.417297%,92.358398%,86.323547%);stop-opacity:1;"/>
<stop offset="0.242188" style="stop-color:rgb(82.070923%,92.23938%,86.087036%);stop-opacity:1;"/>
<stop offset="0.246094" style="stop-color:rgb(81.782532%,92.140198%,85.905457%);stop-opacity:1;"/>
<stop offset="0.25" style="stop-color:rgb(81.494141%,92.042542%,85.723877%);stop-opacity:1;"/>
<stop offset="0.253906" style="stop-color:rgb(81.204224%,91.90979%,85.494995%);stop-opacity:1;"/>
<stop offset="0.257813" style="stop-color:rgb(80.914307%,91.777039%,85.266113%);stop-opacity:1;"/>
<stop offset="0.261719" style="stop-color:rgb(80.622864%,91.589355%,84.962463%);stop-opacity:1;"/>
<stop offset="0.265625" style="stop-color:rgb(80.331421%,91.400146%,84.658813%);stop-opacity:1;"/>
<stop offset="0.269531" style="stop-color:rgb(80.041504%,91.242981%,84.368896%);stop-opacity:1;"/>
<stop offset="0.273438" style="stop-color:rgb(79.751587%,91.085815%,84.080505%);stop-opacity:1;"/>
<stop offset="0.277344" style="stop-color:rgb(79.463196%,90.983582%,83.813477%);stop-opacity:1;"/>
<stop offset="0.28125" style="stop-color:rgb(79.173279%,90.881348%,83.546448%);stop-opacity:1;"/>
<stop offset="0.285156" style="stop-color:rgb(78.884888%,90.78064%,83.311462%);stop-opacity:1;"/>
<stop offset="0.289063" style="stop-color:rgb(78.596497%,90.681458%,83.076477%);stop-opacity:1;"/>
<stop offset="0.292969" style="stop-color:rgb(78.308105%,90.583801%,82.899475%);stop-opacity:1;"/>
<stop offset="0.296875" style="stop-color:rgb(78.018188%,90.484619%,82.723999%);stop-opacity:1;"/>
<stop offset="0.300781" style="stop-color:rgb(77.700806%,90.353394%,82.540894%);stop-opacity:1;"/>
<stop offset="0.304688" style="stop-color:rgb(77.381897%,90.222168%,82.354736%);stop-opacity:1;"/>
<stop offset="0.308594" style="stop-color:rgb(76.99585%,90.011597%,82.148743%);stop-opacity:1;"/>
<stop offset="0.3125" style="stop-color:rgb(76.608276%,89.801025%,81.941223%);stop-opacity:1;"/>
<stop offset="0.316406" style="stop-color:rgb(76.249695%,89.599609%,81.712341%);stop-opacity:1;"/>
<stop offset="0.320313" style="stop-color:rgb(75.891113%,89.396667%,81.481934%);stop-opacity:1;"/>
<stop offset="0.324219" style="stop-color:rgb(75.601196%,89.213562%,81.192017%);stop-opacity:1;"/>
<stop offset="0.328125" style="stop-color:rgb(75.312805%,89.031982%,80.9021%);stop-opacity:1;"/>
<stop offset="0.332031" style="stop-color:rgb(75.024414%,88.870239%,80.6427%);stop-opacity:1;"/>
<stop offset="0.335938" style="stop-color:rgb(74.734497%,88.708496%,80.381775%);stop-opacity:1;"/>
<stop offset="0.339844" style="stop-color:rgb(74.446106%,88.612366%,80.212402%);stop-opacity:1;"/>
<stop offset="0.34375" style="stop-color:rgb(74.159241%,88.516235%,80.04303%);stop-opacity:1;"/>
<stop offset="0.347656" style="stop-color:rgb(73.849487%,88.395691%,79.849243%);stop-opacity:1;"/>
<stop offset="0.351563" style="stop-color:rgb(73.539734%,88.273621%,79.655457%);stop-opacity:1;"/>
<stop offset="0.355469" style="stop-color:rgb(73.155212%,88.064575%,79.373169%);stop-opacity:1;"/>
<stop offset="0.359375" style="stop-color:rgb(72.770691%,87.854004%,79.089355%);stop-opacity:1;"/>
<stop offset="0.363281" style="stop-color:rgb(72.406006%,87.666321%,78.813171%);stop-opacity:1;"/>
<stop offset="0.367188" style="stop-color:rgb(72.041321%,87.478638%,78.538513%);stop-opacity:1;"/>
<stop offset="0.371094" style="stop-color:rgb(71.75293%,87.379456%,78.289795%);stop-opacity:1;"/>
<stop offset="0.375" style="stop-color:rgb(71.464539%,87.280273%,78.039551%);stop-opacity:1;"/>
<stop offset="0.378906" style="stop-color:rgb(71.160889%,87.164307%,77.786255%);stop-opacity:1;"/>
<stop offset="0.382813" style="stop-color:rgb(70.857239%,87.045288%,77.532959%);stop-opacity:1;"/>
<stop offset="0.386719" style="stop-color:rgb(70.474243%,86.839294%,77.258301%);stop-opacity:1;"/>
<stop offset="0.390625" style="stop-color:rgb(70.089722%,86.631775%,76.982117%);stop-opacity:1;"/>
<stop offset="0.394531" style="stop-color:rgb(69.721985%,86.430359%,76.708984%);stop-opacity:1;"/>
<stop offset="0.398438" style="stop-color:rgb(69.352722%,86.227417%,76.435852%);stop-opacity:1;"/>
<stop offset="0.402344" style="stop-color:rgb(69.065857%,86.051941%,76.16272%);stop-opacity:1;"/>
<stop offset="0.40625" style="stop-color:rgb(68.777466%,85.874939%,75.889587%);stop-opacity:1;"/>
<stop offset="0.410156" style="stop-color:rgb(68.481445%,85.696411%,75.619507%);stop-opacity:1;"/>
<stop offset="0.414063" style="stop-color:rgb(68.183899%,85.516357%,75.346375%);stop-opacity:1;"/>
<stop offset="0.417969" style="stop-color:rgb(67.802429%,85.313416%,75.079346%);stop-opacity:1;"/>
<stop offset="0.421875" style="stop-color:rgb(67.420959%,85.110474%,74.813843%);stop-opacity:1;"/>
<stop offset="0.425781" style="stop-color:rgb(67.047119%,84.916687%,74.551392%);stop-opacity:1;"/>
<stop offset="0.429688" style="stop-color:rgb(66.674805%,84.7229%,74.28894%);stop-opacity:1;"/>
<stop offset="0.433594" style="stop-color:rgb(66.387939%,84.62677%,74.050903%);stop-opacity:1;"/>
<stop offset="0.4375" style="stop-color:rgb(66.101074%,84.53064%,73.814392%);stop-opacity:1;"/>
<stop offset="0.441406" style="stop-color:rgb(65.809631%,84.428406%,73.582458%);stop-opacity:1;"/>
<stop offset="0.445313" style="stop-color:rgb(65.515137%,84.326172%,73.348999%);stop-opacity:1;"/>
<stop offset="0.449219" style="stop-color:rgb(65.135193%,84.129333%,73.171997%);stop-opacity:1;"/>
<stop offset="0.453125" style="stop-color:rgb(64.753723%,83.930969%,72.994995%);stop-opacity:1;"/>
<stop offset="0.457031" style="stop-color:rgb(64.378357%,83.738708%,72.816467%);stop-opacity:1;"/>
<stop offset="0.460938" style="stop-color:rgb(63.999939%,83.544922%,72.639465%);stop-opacity:1;"/>
<stop offset="0.464844" style="stop-color:rgb(63.7146%,83.448792%,72.407532%);stop-opacity:1;"/>
<stop offset="0.46875" style="stop-color:rgb(63.427734%,83.354187%,72.175598%);stop-opacity:1;"/>
<stop offset="0.472656" style="stop-color:rgb(63.142395%,83.258057%,71.94519%);stop-opacity:1;"/>
<stop offset="0.476563" style="stop-color:rgb(62.85553%,83.161926%,71.714783%);stop-opacity:1;"/>
<stop offset="0.480469" style="stop-color:rgb(62.571716%,82.995605%,71.539307%);stop-opacity:1;"/>
<stop offset="0.484375" style="stop-color:rgb(62.286377%,82.827759%,71.362305%);stop-opacity:1;"/>
<stop offset="0.488281" style="stop-color:rgb(62.004089%,82.662964%,71.188354%);stop-opacity:1;"/>
<stop offset="0.492188" style="stop-color:rgb(61.720276%,82.498169%,71.014404%);stop-opacity:1;"/>
<stop offset="0.496094" style="stop-color:rgb(61.436462%,82.330322%,70.762634%);stop-opacity:1;"/>
<stop offset="0.5" style="stop-color:rgb(61.152649%,82.159424%,70.509338%);stop-opacity:1;"/>
<stop offset="0.503906" style="stop-color:rgb(60.870361%,81.993103%,70.257568%);stop-opacity:1;"/>
<stop offset="0.507813" style="stop-color:rgb(60.588074%,81.82373%,70.005798%);stop-opacity:1;"/>
<stop offset="0.511719" style="stop-color:rgb(60.30426%,81.65741%,69.755554%);stop-opacity:1;"/>
<stop offset="0.515625" style="stop-color:rgb(60.021973%,81.489563%,69.50531%);stop-opacity:1;"/>
<stop offset="0.519531" style="stop-color:rgb(59.741211%,81.323242%,69.256592%);stop-opacity:1;"/>
<stop offset="0.523438" style="stop-color:rgb(59.457397%,81.156921%,69.007874%);stop-opacity:1;"/>
<stop offset="0.527344" style="stop-color:rgb(59.172058%,81.059265%,68.785095%);stop-opacity:1;"/>
<stop offset="0.53125" style="stop-color:rgb(58.886719%,80.960083%,68.562317%);stop-opacity:1;"/>
<stop offset="0.535156" style="stop-color:rgb(58.601379%,80.867004%,68.34259%);stop-opacity:1;"/>
<stop offset="0.539063" style="stop-color:rgb(58.31604%,80.773926%,68.121338%);stop-opacity:1;"/>
<stop offset="0.542969" style="stop-color:rgb(57.948303%,80.595398%,67.956543%);stop-opacity:1;"/>
<stop offset="0.546875" style="stop-color:rgb(57.579041%,80.415344%,67.791748%);stop-opacity:1;"/>
<stop offset="0.550781" style="stop-color:rgb(57.203674%,80.227661%,67.634583%);stop-opacity:1;"/>
<stop offset="0.554688" style="stop-color:rgb(56.826782%,80.038452%,67.475891%);stop-opacity:1;"/>
<stop offset="0.558594" style="stop-color:rgb(56.533813%,79.872131%,67.247009%);stop-opacity:1;"/>
<stop offset="0.5625" style="stop-color:rgb(56.240845%,79.705811%,67.015076%);stop-opacity:1;"/>
<stop offset="0.566406" style="stop-color:rgb(55.960083%,79.542542%,66.777039%);stop-opacity:1;"/>
<stop offset="0.570313" style="stop-color:rgb(55.680847%,79.380798%,66.539001%);stop-opacity:1;"/>
<stop offset="0.574219" style="stop-color:rgb(55.319214%,79.196167%,66.307068%);stop-opacity:1;"/>
<stop offset="0.578125" style="stop-color:rgb(54.957581%,79.01001%,66.073608%);stop-opacity:1;"/>
<stop offset="0.582031" style="stop-color:rgb(54.582214%,78.822327%,65.844727%);stop-opacity:1;"/>
<stop offset="0.585938" style="stop-color:rgb(54.206848%,78.633118%,65.617371%);stop-opacity:1;"/>
<stop offset="0.589844" style="stop-color:rgb(53.910828%,78.469849%,65.385437%);stop-opacity:1;"/>
<stop offset="0.59375" style="stop-color:rgb(53.614807%,78.303528%,65.151978%);stop-opacity:1;"/>
<stop offset="0.597656" style="stop-color:rgb(53.335571%,78.143311%,64.920044%);stop-opacity:1;"/>
<stop offset="0.601563" style="stop-color:rgb(53.056335%,77.984619%,64.68811%);stop-opacity:1;"/>
<stop offset="0.605469" style="stop-color:rgb(52.7771%,77.827454%,64.517212%);stop-opacity:1;"/>
<stop offset="0.609375" style="stop-color:rgb(52.497864%,77.671814%,64.347839%);stop-opacity:1;"/>
<stop offset="0.613281" style="stop-color:rgb(52.218628%,77.516174%,64.196777%);stop-opacity:1;"/>
<stop offset="0.617188" style="stop-color:rgb(51.940918%,77.360535%,64.042664%);stop-opacity:1;"/>
<stop offset="0.621094" style="stop-color:rgb(51.663208%,77.204895%,63.833618%);stop-opacity:1;"/>
<stop offset="0.625" style="stop-color:rgb(51.383972%,77.047729%,63.623047%);stop-opacity:1;"/>
<stop offset="0.628906" style="stop-color:rgb(51.106262%,76.890564%,63.397217%);stop-opacity:1;"/>
<stop offset="0.632813" style="stop-color:rgb(50.828552%,76.733398%,63.169861%);stop-opacity:1;"/>
<stop offset="0.636719" style="stop-color:rgb(50.550842%,76.579285%,63.000488%);stop-opacity:1;"/>
<stop offset="0.640625" style="stop-color:rgb(50.273132%,76.425171%,62.832642%);stop-opacity:1;"/>
<stop offset="0.644531" style="stop-color:rgb(49.995422%,76.272583%,62.684631%);stop-opacity:1;"/>
<stop offset="0.648438" style="stop-color:rgb(49.717712%,76.118469%,62.535095%);stop-opacity:1;"/>
<stop offset="0.652344" style="stop-color:rgb(49.372864%,75.947571%,62.341309%);stop-opacity:1;"/>
<stop offset="0.65625" style="stop-color:rgb(49.028015%,75.775146%,62.147522%);stop-opacity:1;"/>
<stop offset="0.660156" style="stop-color:rgb(48.657227%,75.595093%,61.935425%);stop-opacity:1;"/>
<stop offset="0.664063" style="stop-color:rgb(48.286438%,75.413513%,61.724854%);stop-opacity:1;"/>
<stop offset="0.667969" style="stop-color:rgb(47.979736%,75.253296%,61.509705%);stop-opacity:1;"/>
<stop offset="0.671875" style="stop-color:rgb(47.674561%,75.090027%,61.29303%);stop-opacity:1;"/>
<stop offset="0.675781" style="stop-color:rgb(47.398376%,74.938965%,61.076355%);stop-opacity:1;"/>
<stop offset="0.679688" style="stop-color:rgb(47.123718%,74.784851%,60.861206%);stop-opacity:1;"/>
<stop offset="0.683594" style="stop-color:rgb(46.852112%,74.589539%,60.630798%);stop-opacity:1;"/>
<stop offset="0.6875" style="stop-color:rgb(46.580505%,74.394226%,60.401917%);stop-opacity:1;"/>
<stop offset="0.691406" style="stop-color:rgb(46.313477%,74.177551%,60.166931%);stop-opacity:1;"/>
<stop offset="0.695313" style="stop-color:rgb(46.044922%,73.962402%,59.931946%);stop-opacity:1;"/>
<stop offset="0.699219" style="stop-color:rgb(45.713806%,73.770142%,59.674072%);stop-opacity:1;"/>
<stop offset="0.703125" style="stop-color:rgb(45.381165%,73.577881%,59.414673%);stop-opacity:1;"/>
<stop offset="0.707031" style="stop-color:rgb(45.013428%,73.400879%,59.143066%);stop-opacity:1;"/>
<stop offset="0.710938" style="stop-color:rgb(44.644165%,73.223877%,58.869934%);stop-opacity:1;"/>
<stop offset="0.714844" style="stop-color:rgb(44.282532%,73.008728%,58.631897%);stop-opacity:1;"/>
<stop offset="0.71875" style="stop-color:rgb(43.919373%,72.795105%,58.39386%);stop-opacity:1;"/>
<stop offset="0.722656" style="stop-color:rgb(43.560791%,72.558594%,58.177185%);stop-opacity:1;"/>
<stop offset="0.726563" style="stop-color:rgb(43.200684%,72.322083%,57.96051%);stop-opacity:1;"/>
<stop offset="0.730469" style="stop-color:rgb(42.892456%,72.140503%,57.752991%);stop-opacity:1;"/>
<stop offset="0.734375" style="stop-color:rgb(42.584229%,71.957397%,57.545471%);stop-opacity:1;"/>
<stop offset="0.738281" style="stop-color:rgb(42.311096%,71.810913%,57.344055%);stop-opacity:1;"/>
<stop offset="0.742188" style="stop-color:rgb(42.037964%,71.664429%,57.141113%);stop-opacity:1;"/>
<stop offset="0.746094" style="stop-color:rgb(41.766357%,71.520996%,56.941223%);stop-opacity:1;"/>
<stop offset="0.75" style="stop-color:rgb(41.494751%,71.374512%,56.741333%);stop-opacity:1;"/>
<stop offset="0.753906" style="stop-color:rgb(41.223145%,71.231079%,56.541443%);stop-opacity:1;"/>
<stop offset="0.757813" style="stop-color:rgb(40.950012%,71.086121%,56.343079%);stop-opacity:1;"/>
<stop offset="0.761719" style="stop-color:rgb(40.678406%,70.942688%,56.144714%);stop-opacity:1;"/>
<stop offset="0.765625" style="stop-color:rgb(40.408325%,70.799255%,55.947876%);stop-opacity:1;"/>
<stop offset="0.769531" style="stop-color:rgb(40.136719%,70.655823%,55.752563%);stop-opacity:1;"/>
<stop offset="0.773438" style="stop-color:rgb(39.865112%,70.513916%,55.557251%);stop-opacity:1;"/>
<stop offset="0.777344" style="stop-color:rgb(39.578247%,70.341492%,55.33905%);stop-opacity:1;"/>
<stop offset="0.78125" style="stop-color:rgb(39.291382%,70.169067%,55.12085%);stop-opacity:1;"/>
<stop offset="0.785156" style="stop-color:rgb(38.987732%,69.966125%,54.881287%);stop-opacity:1;"/>
<stop offset="0.789063" style="stop-color:rgb(38.685608%,69.763184%,54.640198%);stop-opacity:1;"/>
<stop offset="0.792969" style="stop-color:rgb(38.40332%,69.564819%,54.449463%);stop-opacity:1;"/>
<stop offset="0.796875" style="stop-color:rgb(38.119507%,69.363403%,54.255676%);stop-opacity:1;"/>
<stop offset="0.800781" style="stop-color:rgb(37.860107%,69.165039%,54.116821%);stop-opacity:1;"/>
<stop offset="0.804688" style="stop-color:rgb(37.602234%,68.966675%,53.97644%);stop-opacity:1;"/>
<stop offset="0.808594" style="stop-color:rgb(37.338257%,68.795776%,53.816223%);stop-opacity:1;"/>
<stop offset="0.8125" style="stop-color:rgb(37.07428%,68.626404%,53.65448%);stop-opacity:1;"/>
<stop offset="0.816406" style="stop-color:rgb(36.807251%,68.487549%,53.468323%);stop-opacity:1;"/>
<stop offset="0.820313" style="stop-color:rgb(36.540222%,68.35022%,53.282166%);stop-opacity:1;"/>
<stop offset="0.824219" style="stop-color:rgb(36.264038%,68.162537%,53.070068%);stop-opacity:1;"/>
<stop offset="0.828125" style="stop-color:rgb(35.986328%,67.973328%,52.857971%);stop-opacity:1;"/>
<stop offset="0.832031" style="stop-color:rgb(35.699463%,67.720032%,52.610779%);stop-opacity:1;"/>
<stop offset="0.835938" style="stop-color:rgb(35.412598%,67.46521%,52.363586%);stop-opacity:1;"/>
<stop offset="0.839844" style="stop-color:rgb(35.134888%,67.259216%,52.14386%);stop-opacity:1;"/>
<stop offset="0.84375" style="stop-color:rgb(34.858704%,67.051697%,51.924133%);stop-opacity:1;"/>
<stop offset="0.847656" style="stop-color:rgb(34.593201%,66.917419%,51.74408%);stop-opacity:1;"/>
<stop offset="0.851563" style="stop-color:rgb(34.326172%,66.781616%,51.564026%);stop-opacity:1;"/>
<stop offset="0.855469" style="stop-color:rgb(34.062195%,66.648865%,51.385498%);stop-opacity:1;"/>
<stop offset="0.859375" style="stop-color:rgb(33.798218%,66.516113%,51.20697%);stop-opacity:1;"/>
<stop offset="0.863281" style="stop-color:rgb(33.532715%,66.381836%,51.029968%);stop-opacity:1;"/>
<stop offset="0.867188" style="stop-color:rgb(33.267212%,66.249084%,50.852966%);stop-opacity:1;"/>
<stop offset="0.871094" style="stop-color:rgb(32.99408%,66.096497%,50.662231%);stop-opacity:1;"/>
<stop offset="0.875" style="stop-color:rgb(32.720947%,65.943909%,50.471497%);stop-opacity:1;"/>
<stop offset="0.878906" style="stop-color:rgb(32.429504%,65.7547%,50.253296%);stop-opacity:1;"/>
<stop offset="0.882813" style="stop-color:rgb(32.136536%,65.565491%,50.035095%);stop-opacity:1;"/>
<stop offset="0.886719" style="stop-color:rgb(31.887817%,65.383911%,49.824524%);stop-opacity:1;"/>
<stop offset="0.890625" style="stop-color:rgb(31.639099%,65.202332%,49.610901%);stop-opacity:1;"/>
<stop offset="0.894531" style="stop-color:rgb(31.478882%,65.037537%,49.409485%);stop-opacity:1;"/>
<stop offset="0.898438" style="stop-color:rgb(31.32019%,64.874268%,49.209595%);stop-opacity:1;"/>
<stop offset="0.902344" style="stop-color:rgb(31.130981%,64.720154%,49.01886%);stop-opacity:1;"/>
<stop offset="0.90625" style="stop-color:rgb(30.943298%,64.56604%,48.826599%);stop-opacity:1;"/>
<stop offset="0.910156" style="stop-color:rgb(30.680847%,64.437866%,48.658752%);stop-opacity:1;"/>
<stop offset="0.914063" style="stop-color:rgb(30.421448%,64.308167%,48.490906%);stop-opacity:1;"/>
<stop offset="0.917969" style="stop-color:rgb(30.175781%,64.172363%,48.309326%);stop-opacity:1;"/>
<stop offset="0.921875" style="stop-color:rgb(29.931641%,64.035034%,48.127747%);stop-opacity:1;"/>
<stop offset="0.925781" style="stop-color:rgb(29.737854%,63.873291%,47.904968%);stop-opacity:1;"/>
<stop offset="0.929688" style="stop-color:rgb(29.542542%,63.711548%,47.685242%);stop-opacity:1;"/>
<stop offset="0.933594" style="stop-color:rgb(29.327393%,63.546753%,47.4823%);stop-opacity:1;"/>
<stop offset="0.9375" style="stop-color:rgb(29.110718%,63.381958%,47.280884%);stop-opacity:1;"/>
<stop offset="0.941406" style="stop-color:rgb(28.826904%,63.201904%,47.138977%);stop-opacity:1;"/>
<stop offset="0.945313" style="stop-color:rgb(28.543091%,63.021851%,46.99707%);stop-opacity:1;"/>
<stop offset="0.949219" style="stop-color:rgb(28.277588%,62.8479%,46.841431%);stop-opacity:1;"/>
<stop offset="0.953125" style="stop-color:rgb(28.013611%,62.672424%,46.684265%);stop-opacity:1;"/>
<stop offset="0.957031" style="stop-color:rgb(27.82135%,62.513733%,46.469116%);stop-opacity:1;"/>
<stop offset="0.960938" style="stop-color:rgb(27.630615%,62.355042%,46.252441%);stop-opacity:1;"/>
<stop offset="0.964844" style="stop-color:rgb(27.442932%,62.187195%,46.034241%);stop-opacity:1;"/>
<stop offset="0.96875" style="stop-color:rgb(27.253723%,62.020874%,45.817566%);stop-opacity:1;"/>
<stop offset="0.972656" style="stop-color:rgb(27.076721%,61.810303%,45.59021%);stop-opacity:1;"/>
<stop offset="0.976563" style="stop-color:rgb(26.899719%,61.601257%,45.362854%);stop-opacity:1;"/>
<stop offset="0.980469" style="stop-color:rgb(26.707458%,61.39679%,45.140076%);stop-opacity:1;"/>
<stop offset="0.984375" style="stop-color:rgb(26.515198%,61.192322%,44.918823%);stop-opacity:1;"/>
<stop offset="0.988281" style="stop-color:rgb(26.237488%,61.018372%,44.725037%);stop-opacity:1;"/>
<stop offset="0.992188" style="stop-color:rgb(25.959778%,60.84137%,44.53125%);stop-opacity:1;"/>
<stop offset="0.996094" style="stop-color:rgb(25.720215%,60.690308%,44.361877%);stop-opacity:1;"/>
<stop offset="1" style="stop-color:rgb(25.479126%,60.536194%,44.194031%);stop-opacity:1;"/>
</linearGradient>
</defs>
<g id="surface1">
<g clip-path="url(#clip1)" clip-rule="nonzero">
<g clip-path="url(#clip2)" clip-rule="nonzero">
<path style=" stroke:none;fill-rule:nonzero;fill:url(#radial0);" d="M 0 36.957031 L 0 0.0117188 L 36.914062 0.0117188 L 36.914062 36.957031 Z M 0 36.957031 "/>
</g>
</g>
<g clip-path="url(#clip3)" clip-rule="nonzero">
<g clip-path="url(#clip4)" clip-rule="nonzero">
<g clip-path="url(#clip5)" clip-rule="nonzero">
<path style=" stroke:none;fill-rule:nonzero;fill:url(#linear0);" d="M -9.230469 31.511719 L 10.308594 -2.328125 L 48.148438 19.519531 L 28.609375 53.359375 Z M -9.230469 31.511719 "/>
</g>
</g>
</g>
<g clip-path="url(#clip6)" clip-rule="nonzero">
<g clip-path="url(#clip7)" clip-rule="nonzero">
<g clip-path="url(#clip8)" clip-rule="nonzero">
<path style=" stroke:none;fill-rule:nonzero;fill:url(#linear1);" d="M 0.117188 15.65625 L 27.941406 4.507812 L 34.117188 21.472656 L 6.289062 32.621094 Z M 0.117188 15.65625 "/>
</g>
</g>
</g>
<g clip-path="url(#clip9)" clip-rule="nonzero">
<g clip-path="url(#clip10)" clip-rule="nonzero">
<g clip-path="url(#clip11)" clip-rule="nonzero">
<path style=" stroke:none;fill-rule:nonzero;fill:url(#linear2);" d="M 6.074219 1.832031 L 30.835938 1.832031 L 30.835938 13.4375 L 6.074219 13.4375 Z M 6.074219 1.832031 "/>
</g>
</g>
</g>
<path style=" stroke:none;fill-rule:nonzero;fill:rgb(17.393494%,52.597046%,38.441467%);fill-opacity:1;" d="M 65.097656 13.390625 C 64.914062 14.046875 64.3125 14.28125 63.734375 14.125 C 62.605469 13.8125 61.269531 13.441406 59.511719 13.441406 C 54.605469 13.441406 52.636719 16.90625 52.636719 20.371094 C 52.636719 23.621094 54.710938 25.144531 57.046875 25.144531 C 58.75 25.144531 59.167969 24.722656 59.378906 23.777344 L 59.957031 21.207031 L 57.046875 21.207031 L 57.753906 17.746094 L 63.707031 17.746094 C 64.707031 17.746094 65.28125 18.425781 65.074219 19.425781 L 63.894531 25.144531 C 63.523438 26.953125 62.109375 28.292969 60.246094 28.554688 C 59.667969 28.632812 58.304688 28.765625 56.414062 28.765625 C 50.882812 28.765625 47.601562 25.644531 47.601562 20.710938 C 47.601562 14.464844 51.613281 9.824219 59.355469 9.824219 C 61.425781 9.824219 63.027344 10.03125 64.496094 10.375 C 65.152344 10.53125 65.78125 11.109375 65.464844 12.132812 Z M 78.582031 25.066406 C 79.078125 24.910156 79.578125 25.222656 79.472656 25.851562 L 79.261719 27.03125 C 79.132812 27.6875 78.84375 28.054688 78.214844 28.214844 C 76.847656 28.578125 75.300781 28.765625 74.042969 28.765625 C 69.503906 28.765625 67.144531 26.21875 67.144531 22.546875 C 67.144531 19.371094 69.242188 14.464844 75.351562 14.464844 C 78.949219 14.464844 81.675781 16.488281 81.675781 20.421875 C 81.675781 20.710938 81.625 21.183594 81.597656 21.3125 C 81.414062 22.285156 80.785156 22.992188 79.527344 22.992188 L 71.601562 22.992188 C 71.65625 24.460938 72.441406 25.617188 75.144531 25.617188 C 76.273438 25.617188 77.503906 25.40625 78.582031 25.066406 M 77.691406 20.316406 C 77.691406 18.847656 77.058594 17.617188 75.222656 17.617188 C 73.28125 17.617188 72.230469 19.003906 71.863281 20.316406 Z M 88.261719 14.78125 C 88.96875 14.78125 89.386719 15.253906 89.386719 15.832031 C 89.386719 15.882812 89.386719 15.960938 89.359375 16.09375 L 89.070312 17.589844 L 89.125 17.589844 C 89.886719 15.988281 91.40625 14.46875 93.347656 14.46875 C 94.109375 14.46875 95.105469 14.675781 95.105469 15.570312 C 95.105469 15.699219 95.078125 15.832031 95.054688 15.9375 L 94.605469 17.667969 C 94.449219 18.269531 93.976562 18.691406 93.164062 18.507812 C 92.929688 18.453125 92.535156 18.402344 92.089844 18.402344 C 90.09375 18.402344 88.914062 20.132812 88.574219 22.152344 L 87.550781 26.980469 C 87.339844 28.027344 86.710938 28.449219 85.664062 28.449219 L 82.515625 28.449219 L 84.640625 18.347656 C 84.875 17.167969 85.085938 16.015625 85.214844 14.78125 Z M 96.285156 18.347656 C 96.523438 17.167969 96.730469 16.015625 96.859375 14.78125 L 99.71875 14.78125 C 100.378906 14.78125 100.824219 15.253906 100.824219 15.832031 C 100.824219 15.933594 100.796875 16.066406 100.769531 16.171875 L 100.535156 17.246094 L 100.585938 17.246094 C 101.738281 15.515625 103.5 14.46875 105.414062 14.46875 C 107.015625 14.46875 108.640625 15.386719 109.007812 17.246094 C 110.160156 15.515625 111.921875 14.46875 113.886719 14.46875 C 115.984375 14.46875 118.136719 15.488281 118.136719 18.53125 C 118.136719 19.425781 118.03125 20.632812 117.820312 21.601562 L 116.691406 26.980469 C 116.484375 28.03125 115.855469 28.449219 114.804688 28.449219 L 111.683594 28.449219 L 113.046875 21.8125 C 113.203125 21.105469 113.308594 20.371094 113.308594 19.816406 C 113.308594 18.925781 112.890625 18.402344 111.789062 18.402344 C 109.820312 18.402344 109.296875 20.683594 108.980469 22.152344 L 107.960938 26.980469 C 107.722656 28.03125 107.117188 28.449219 106.070312 28.449219 L 102.921875 28.449219 L 104.285156 21.8125 C 104.441406 21.105469 104.546875 20.371094 104.546875 19.816406 C 104.546875 18.925781 104.128906 18.402344 103.027344 18.402344 C 101.058594 18.402344 100.535156 20.683594 100.21875 22.152344 L 99.199219 26.980469 C 98.960938 28.03125 98.355469 28.449219 97.308594 28.449219 L 94.160156 28.449219 Z M 128.363281 26.535156 L 128.3125 26.535156 C 127.289062 28.082031 125.453125 28.765625 123.59375 28.765625 C 120.785156 28.765625 119.15625 27.347656 119.15625 24.988281 C 119.15625 21.394531 122.515625 19.792969 126.6875 19.792969 C 127.628906 19.792969 128.574219 19.871094 129.230469 19.925781 C 129.28125 19.742188 129.28125 19.554688 129.28125 19.320312 C 129.28125 18.402344 128.363281 17.613281 126.816406 17.613281 C 125.191406 17.613281 123.878906 17.957031 122.332031 18.691406 L 122.804688 15.253906 C 124.191406 14.78125 125.6875 14.46875 127.8125 14.46875 C 131.066406 14.46875 133.742188 15.753906 133.742188 19.109375 C 133.742188 21.050781 132.796875 23.703125 132.300781 27.191406 C 132.195312 27.976562 131.695312 28.449219 130.855469 28.449219 L 128.152344 28.449219 Z M 125.191406 25.617188 C 127.183594 25.617188 128.441406 24.226562 128.785156 22.390625 C 128.390625 22.308594 127.8125 22.308594 127.523438 22.308594 C 125.269531 22.230469 123.617188 23.046875 123.617188 24.304688 C 123.617188 24.960938 124.140625 25.617188 125.191406 25.617188 M 137.074219 18.347656 C 137.308594 17.167969 137.519531 16.015625 137.648438 14.78125 L 140.71875 14.78125 C 141.402344 14.78125 141.847656 15.253906 141.847656 15.832031 C 141.847656 15.882812 141.847656 15.960938 141.820312 16.09375 L 141.664062 17.011719 L 141.714844 17.011719 C 143.078125 15.515625 144.601562 14.46875 146.910156 14.46875 C 149.742188 14.46875 151.238281 16.488281 151.238281 19.164062 C 151.238281 20.082031 151.160156 20.632812 150.871094 22.074219 L 149.902344 26.980469 C 149.691406 28.03125 149.0625 28.449219 148.011719 28.449219 L 144.734375 28.449219 L 146.042969 22.046875 C 146.175781 21.367188 146.359375 20.683594 146.359375 19.976562 C 146.359375 19.164062 145.835938 18.402344 144.523438 18.402344 C 142.527344 18.402344 141.351562 20.132812 141.007812 22.152344 L 139.984375 26.980469 C 139.75 28.03125 139.144531 28.449219 138.097656 28.449219 L 134.949219 28.449219 Z M 155.777344 14.78125 L 158.871094 14.78125 C 159.789062 14.78125 160.261719 15.410156 160.261719 16.066406 C 160.261719 16.171875 160.234375 16.355469 160.210938 16.488281 L 158.003906 26.980469 C 157.796875 28.027344 157.164062 28.449219 156.117188 28.449219 L 152.941406 28.449219 Z M 156.953125 9.089844 L 160.472656 9.089844 C 161.101562 9.089844 161.519531 9.484375 161.519531 10.058594 C 161.519531 10.136719 161.492188 10.296875 161.46875 10.425781 L 161.285156 11.292969 C 161.128906 12.054688 160.574219 12.550781 159.734375 12.550781 L 156.246094 12.550781 Z M 170.621094 26.535156 L 170.570312 26.535156 C 169.546875 28.082031 167.710938 28.765625 165.847656 28.765625 C 163.042969 28.765625 161.414062 27.347656 161.414062 24.988281 C 161.414062 21.394531 164.769531 19.792969 168.941406 19.792969 C 169.886719 19.792969 170.832031 19.871094 171.488281 19.925781 C 171.539062 19.742188 171.539062 19.554688 171.539062 19.320312 C 171.539062 18.402344 170.621094 17.613281 169.074219 17.613281 C 167.449219 17.613281 166.136719 17.957031 164.589844 18.691406 L 165.0625 15.253906 C 166.453125 14.78125 167.945312 14.46875 170.070312 14.46875 C 173.324219 14.46875 176 15.753906 176 19.109375 C 176 21.050781 175.054688 23.703125 174.554688 27.191406 C 174.453125 27.976562 173.953125 28.449219 173.113281 28.449219 L 170.410156 28.449219 Z M 167.449219 25.617188 C 169.441406 25.617188 170.699219 24.226562 171.042969 22.390625 C 170.648438 22.308594 170.070312 22.308594 169.78125 22.308594 C 167.527344 22.230469 165.871094 23.046875 165.871094 24.304688 C 165.871094 24.960938 166.398438 25.617188 167.449219 25.617188 "/>
</g>
</svg>
