<?xml version="1.0" encoding="UTF-8"?>
<svg xmlns="http://www.w3.org/2000/svg" xmlns:xlink="http://www.w3.org/1999/xlink" width="176pt" height="47.5pt" viewBox="0 0 176 47.5" version="1.1">
<defs>
<clipPath id="clip1">
  <path d="M 5 16 L 33 16 L 33 47.5 L 5 47.5 Z M 5 16 "/>
</clipPath>
</defs>
<g id="surface1">
<path style=" stroke:none;fill-rule:nonzero;fill:rgb(13.729858%,12.159729%,12.548828%);fill-opacity:1;" d="M 108.429688 45.226562 C 108.335938 44.945312 108.15625 44.664062 108.152344 44.386719 C 108.136719 39.625 108.140625 34.867188 108.140625 29.921875 C 109.167969 29.921875 110.09375 29.921875 111.175781 29.921875 C 113.089844 32.96875 115.054688 36.09375 117.019531 39.21875 C 117.144531 39.1875 117.269531 39.15625 117.394531 39.125 C 117.394531 36.136719 117.394531 33.144531 117.394531 29.949219 C 118.4375 29.949219 119.269531 29.949219 120.25 29.949219 C 120.304688 30.367188 120.40625 30.789062 120.40625 31.210938 C 120.417969 35.234375 120.429688 39.253906 120.398438 43.277344 C 120.394531 43.925781 120.1875 44.574219 120.074219 45.226562 C 119.179688 45.226562 118.28125 45.226562 117.386719 45.226562 C 115.40625 42.03125 113.421875 38.835938 111.441406 35.636719 C 111.292969 35.683594 111.144531 35.726562 111 35.769531 C 111 38.050781 111.027344 40.332031 110.984375 42.613281 C 110.96875 43.488281 110.777344 44.355469 110.667969 45.226562 C 109.921875 45.226562 109.175781 45.226562 108.429688 45.226562 "/>
<path style=" stroke:none;fill-rule:nonzero;fill:rgb(13.729858%,12.159729%,12.548828%);fill-opacity:1;" d="M 165.382812 36.144531 C 166.972656 36.144531 168.449219 36.25 169.902344 36.109375 C 171.070312 36 171.65625 35.15625 171.585938 34.125 C 171.511719 33.0625 170.855469 32.445312 169.875 32.375 C 168.414062 32.277344 166.941406 32.351562 165.382812 32.351562 C 165.382812 33.695312 165.382812 34.847656 165.382812 36.144531 Z M 162.171875 45.226562 C 162.171875 40.167969 162.171875 35.113281 162.171875 29.742188 C 165.488281 29.800781 168.664062 29.46875 171.820312 30.070312 C 173.460938 30.382812 174.382812 31.554688 174.660156 33.148438 C 174.960938 34.875 174.558594 36.425781 173.007812 37.460938 C 172.476562 37.816406 171.851562 38.039062 171.347656 38.28125 C 172.589844 40.023438 173.824219 41.679688 174.964844 43.398438 C 175.3125 43.921875 175.402344 44.613281 175.609375 45.226562 C 174.5625 45.226562 173.519531 45.226562 172.472656 45.226562 C 171.308594 43.515625 170.164062 41.785156 168.964844 40.101562 C 168.066406 38.835938 166.890625 38.289062 165.308594 38.957031 C 165.308594 41.089844 165.308594 43.15625 165.308594 45.226562 C 164.261719 45.226562 163.21875 45.226562 162.171875 45.226562 "/>
<path style=" stroke:none;fill-rule:nonzero;fill:rgb(13.729858%,12.159729%,12.548828%);fill-opacity:1;" d="M 93.878906 37.703125 C 93.933594 38.074219 93.957031 38.910156 94.191406 39.683594 C 94.644531 41.214844 95.640625 42.269531 97.269531 42.582031 C 99.816406 43.070312 101.742188 41.699219 102.28125 39.046875 C 102.984375 35.574219 101.769531 32.8125 99.28125 32.242188 C 99.136719 32.210938 98.988281 32.191406 98.84375 32.171875 C 95.800781 31.78125 93.914062 33.71875 93.878906 37.703125 Z M 95.890625 45.226562 C 91.335938 42.855469 89.8125 39.621094 90.980469 34.816406 C 91.71875 31.796875 94.050781 29.8125 97.15625 29.566406 C 100.996094 29.261719 103.730469 30.734375 104.960938 33.808594 C 105.914062 36.195312 105.859375 38.597656 104.992188 41 C 104.191406 43.226562 102.378906 44.332031 100.367188 45.226562 C 98.875 45.226562 97.382812 45.226562 95.890625 45.226562 "/>
<path style=" stroke:none;fill-rule:nonzero;fill:rgb(13.729858%,12.159729%,12.548828%);fill-opacity:1;" d="M 85.703125 37.511719 C 85.597656 36.664062 85.582031 35.984375 85.421875 35.34375 C 84.902344 33.28125 83.449219 32.144531 81.417969 32.136719 C 79.257812 32.125 77.617188 33.277344 77.28125 35.433594 C 77.0625 36.863281 77.113281 38.421875 77.449219 39.828125 C 77.90625 41.730469 79.542969 42.695312 81.503906 42.648438 C 83.378906 42.601562 84.695312 41.628906 85.277344 39.746094 C 85.515625 38.976562 85.585938 38.152344 85.703125 37.511719 Z M 78.871094 45.226562 C 78.300781 44.894531 77.722656 44.578125 77.167969 44.226562 C 74.441406 42.496094 73.792969 39.835938 73.910156 36.847656 C 74.023438 34.0625 75.011719 31.726562 77.554688 30.34375 C 82.640625 27.574219 88.40625 30.863281 88.773438 36.625 C 89.03125 40.65625 87.472656 43.523438 83.796875 45.226562 C 82.15625 45.226562 80.511719 45.226562 78.871094 45.226562 "/>
<path style=" stroke:none;fill-rule:nonzero;fill:rgb(13.729858%,12.159729%,12.548828%);fill-opacity:1;" d="M 148.753906 38.910156 C 148.015625 36.992188 147.40625 35.414062 146.800781 33.835938 C 146.640625 33.863281 146.480469 33.890625 146.316406 33.917969 C 145.765625 35.527344 145.210938 37.136719 144.601562 38.910156 C 146.113281 38.910156 147.273438 38.910156 148.753906 38.910156 Z M 139.332031 45.226562 C 139.390625 44.71875 139.34375 44.175781 139.523438 43.714844 C 141.207031 39.355469 142.925781 35.015625 144.644531 30.667969 C 144.746094 30.402344 144.925781 30.167969 145.113281 29.84375 C 146.074219 29.84375 147.023438 29.84375 147.941406 29.84375 C 148.089844 29.957031 148.261719 30.023438 148.3125 30.136719 C 150.230469 34.800781 152.140625 39.460938 154.027344 44.136719 C 154.15625 44.457031 154.089844 44.859375 154.109375 45.226562 C 153.214844 45.226562 152.320312 45.226562 151.425781 45.226562 C 150.835938 44.039062 150.246094 42.847656 149.667969 41.679688 C 147.585938 41.679688 145.597656 41.679688 143.605469 41.679688 C 143.046875 42.929688 142.53125 44.078125 142.019531 45.226562 C 141.121094 45.226562 140.226562 45.226562 139.332031 45.226562 "/>
<path style=" stroke:none;fill-rule:nonzero;fill:rgb(13.729858%,12.159729%,12.548828%);fill-opacity:1;" d="M 128.582031 45.226562 C 125.941406 44.046875 123.949219 42.3125 123.40625 39.289062 C 123.066406 37.40625 123.1875 35.574219 123.921875 33.808594 C 125.644531 29.660156 131.695312 28.007812 135.316406 30.699219 C 136.289062 31.421875 137.019531 32.34375 137.214844 33.882812 C 136.347656 34.082031 135.519531 34.269531 134.472656 34.511719 C 133.671875 32.78125 132.300781 31.90625 130.378906 32.160156 C 129.800781 32.234375 129.195312 32.371094 128.679688 32.628906 C 126.539062 33.703125 125.710938 37.105469 126.832031 40 C 127.6875 42.199219 129.859375 43.179688 132.367188 42.445312 C 133.003906 42.261719 133.59375 41.925781 134.246094 41.636719 C 134.398438 40.96875 134.539062 40.335938 134.710938 39.574219 C 135.570312 39.574219 136.425781 39.574219 137.425781 39.574219 C 137.425781 40.6875 137.425781 41.773438 137.425781 43.171875 C 136.222656 43.804688 134.863281 44.515625 133.511719 45.226562 C 131.867188 45.226562 130.226562 45.226562 128.582031 45.226562 "/>
<path style=" stroke:none;fill-rule:nonzero;fill:rgb(13.729858%,12.159729%,12.548828%);fill-opacity:1;" d="M 61.40625 45.226562 C 61.40625 40.199219 61.40625 35.175781 61.40625 30.0625 C 62.160156 30.011719 62.664062 29.949219 63.167969 29.949219 C 63.519531 29.953125 63.871094 30.042969 64.417969 30.125 C 64.417969 34.179688 64.417969 38.164062 64.417969 42.410156 C 67.027344 42.410156 69.433594 42.410156 72.152344 42.410156 C 72.152344 43.519531 72.152344 44.375 72.152344 45.226562 C 68.570312 45.226562 64.988281 45.226562 61.40625 45.226562 "/>
<path style=" stroke:none;fill-rule:nonzero;fill:rgb(13.729858%,12.159729%,12.548828%);fill-opacity:1;" d="M 156.351562 45.226562 C 156.273438 45.015625 156.125 44.804688 156.125 44.597656 C 156.113281 39.761719 156.113281 34.929688 156.113281 29.917969 C 157.074219 29.917969 157.917969 29.917969 159.035156 29.917969 C 159.035156 35.011719 159.035156 40.117188 159.035156 45.226562 C 158.140625 45.226562 157.246094 45.226562 156.351562 45.226562 "/>
<path style=" stroke:none;fill-rule:nonzero;fill:rgb(13.729858%,12.159729%,12.548828%);fill-opacity:1;" d="M 112.371094 0.496094 C 112.464844 1.359375 112.539062 2.082031 112.628906 2.921875 C 113.375 3.023438 114.089844 3.121094 114.933594 3.238281 C 114.980469 3.730469 115.027344 4.210938 115.109375 5 C 111.664062 5 108.355469 5 104.882812 5 C 104.882812 7.414062 104.882812 9.527344 104.882812 11.90625 C 107.957031 10.929688 110.90625 9.992188 114.058594 8.992188 C 114.058594 10.152344 114.058594 11.140625 114.058594 12.402344 C 111.109375 13.742188 108.011719 15.152344 104.933594 16.550781 C 104.933594 18.488281 104.933594 20.324219 104.933594 22.449219 C 108.167969 22.449219 111.257812 22.449219 114.460938 22.449219 C 114.53125 23.203125 114.574219 23.675781 114.648438 24.453125 C 109.792969 24.550781 105.085938 24.707031 100.703125 24.226562 C 99.375 22.894531 99.53125 21.582031 99.507812 20.332031 C 99.429688 16.457031 99.398438 12.578125 99.296875 8.707031 C 99.269531 7.597656 99.070312 6.492188 98.933594 5.230469 C 98.222656 5.230469 97.609375 5.230469 96.863281 5.230469 C 96.347656 11.570312 95.839844 17.855469 95.320312 24.296875 C 93.660156 24.296875 92.214844 24.296875 90.511719 24.296875 C 90.78125 17.890625 91.890625 11.605469 92.304688 5.144531 C 91.394531 5.03125 90.605469 4.933594 89.71875 4.820312 C 89.71875 4.179688 89.71875 3.632812 89.71875 2.921875 C 90.691406 2.921875 91.546875 2.921875 92.492188 2.921875 C 92.65625 2.078125 92.792969 1.367188 92.957031 0.527344 C 94.214844 0.527344 95.433594 0.527344 96.789062 0.527344 C 96.835938 1.3125 96.878906 2.03125 96.929688 2.921875 C 100.488281 2.921875 104.027344 2.921875 107.574219 2.921875 C 108.5625 0.988281 110.601562 1.191406 112.371094 0.496094 "/>
<path style=" stroke:none;fill-rule:nonzero;fill:rgb(13.729858%,12.159729%,12.548828%);fill-opacity:1;" d="M 62.589844 12.71875 C 61.832031 12.628906 61.183594 12.550781 60.457031 12.464844 C 60.457031 11.878906 60.457031 11.398438 60.457031 10.820312 C 61.257812 10.710938 61.96875 10.613281 62.964844 10.480469 C 62.964844 7.171875 62.964844 3.921875 62.964844 0.527344 C 64.714844 0.527344 66.164062 0.527344 67.933594 0.527344 C 67.933594 3.6875 67.933594 6.851562 67.933594 10.339844 C 71.105469 10.339844 73.980469 10.339844 76.851562 10.339844 C 79.675781 10.339844 82.496094 10.339844 85.480469 10.339844 C 85.519531 11.101562 85.550781 11.71875 85.59375 12.574219 C 83.609375 12.574219 81.777344 12.574219 79.535156 12.574219 C 81.355469 16.609375 83.023438 20.308594 84.792969 24.234375 C 82.976562 24.234375 81.328125 24.234375 79.425781 24.234375 C 77.597656 20.46875 75.71875 16.601562 73.828125 12.714844 C 71.945312 12.714844 70.113281 12.714844 68.234375 12.714844 C 68.234375 15.945312 68.234375 19.039062 68.234375 22.304688 C 69.457031 22.386719 70.542969 22.457031 71.820312 22.535156 C 71.980469 23.007812 72.152344 23.519531 72.304688 23.964844 C 72.050781 24.179688 71.949219 24.347656 71.835938 24.351562 C 69.902344 24.445312 67.96875 24.617188 66.039062 24.5625 C 63.804688 24.5 63.160156 23.761719 63.074219 21.542969 C 62.964844 18.785156 62.894531 16.03125 62.796875 13.273438 C 62.792969 13.136719 62.699219 13.003906 62.589844 12.71875 "/>
<path style=" stroke:none;fill-rule:nonzero;fill:rgb(13.729858%,12.159729%,12.548828%);fill-opacity:1;" d="M 123.65625 11.695312 C 125.210938 11.695312 126.585938 11.695312 128.078125 11.695312 C 128.230469 9.378906 128.1875 7.210938 128.054688 5.050781 C 126.425781 5.050781 125.109375 5.050781 123.65625 5.050781 C 123.65625 7.289062 123.65625 9.414062 123.65625 11.695312 Z M 118.3125 12.78125 C 118.699219 12.203125 119.019531 11.722656 119.523438 10.96875 C 119.523438 8.5625 119.523438 5.894531 119.523438 3.136719 C 120.433594 3.011719 121.148438 2.914062 122 2.796875 C 122.351562 2.058594 122.722656 1.273438 123.109375 0.449219 C 123.972656 0.449219 124.765625 0.449219 125.675781 0.449219 C 125.554688 1.210938 125.449219 1.851562 125.335938 2.550781 C 127.371094 3.097656 129.554688 2.132812 131.585938 3.289062 C 132.882812 5.941406 131.8125 8.847656 132.289062 11.613281 C 132.703125 11.953125 133.125 12.296875 133.703125 12.773438 C 133.160156 13.257812 132.75 13.628906 132.105469 14.207031 C 132.105469 17.148438 132.105469 20.332031 132.105469 23.605469 C 130.421875 24.765625 128.570312 24.359375 126.765625 24.382812 C 126.332031 22.90625 127.207031 22.773438 128.210938 22.839844 C 128.210938 19.78125 128.210938 16.847656 128.210938 13.832031 C 127.679688 13.894531 127.398438 13.925781 126.910156 13.984375 C 126.910156 15.867188 126.910156 17.703125 126.910156 19.664062 C 126.078125 19.664062 125.460938 19.664062 124.714844 19.664062 C 124.625 17.667969 124.539062 15.789062 124.441406 13.609375 C 123.5625 14.707031 123.585938 14.707031 123.574219 18.875 C 123.570312 20.570312 123.789062 22.3125 122.714844 24.144531 C 121.859375 24.203125 120.878906 24.273438 119.6875 24.355469 C 119.6875 20.839844 119.6875 17.582031 119.6875 14.570312 C 119.113281 13.824219 118.730469 13.328125 118.3125 12.78125 "/>
<path style=" stroke:none;fill-rule:nonzero;fill:rgb(13.729858%,12.159729%,12.548828%);fill-opacity:1;" d="M 137.90625 23.492188 C 136.199219 24.429688 136.199219 24.429688 134.324219 24.054688 C 134.324219 18.203125 134.324219 12.34375 134.324219 6.324219 C 137.238281 5.886719 139.9375 5.640625 142.671875 6.128906 C 143.941406 6.355469 144.652344 7.121094 144.765625 8.390625 C 144.84375 9.28125 144.871094 10.175781 144.863281 11.070312 C 144.851562 13.601562 144.78125 16.136719 144.785156 18.671875 C 144.785156 20.203125 144.566406 21.800781 145.890625 23.035156 C 146.089844 23.222656 145.992188 23.726562 146.058594 24.3125 C 144.410156 24.3125 142.910156 24.3125 141.101562 24.3125 C 140.941406 23.21875 140.667969 22.222656 140.671875 21.230469 C 140.683594 17.726562 140.789062 14.222656 140.851562 10.71875 C 140.867188 9.914062 140.855469 9.113281 140.855469 8.167969 C 139.847656 8.167969 139.066406 8.167969 138.128906 8.167969 C 138.085938 8.710938 137.992188 9.285156 137.996094 9.855469 C 138.03125 13.507812 138.105469 17.160156 138.125 20.8125 C 138.132812 21.757812 137.976562 22.699219 137.90625 23.492188 "/>
<path style=" stroke:none;fill-rule:nonzero;fill:rgb(13.729858%,12.159729%,12.548828%);fill-opacity:1;" d="M 165.390625 15.316406 C 165.390625 17.757812 165.390625 19.824219 165.390625 22.210938 C 168.800781 22.210938 172.117188 22.210938 175.53125 22.210938 C 175.53125 23.003906 175.53125 23.476562 175.53125 24.097656 C 167.03125 24.097656 158.644531 24.097656 150.136719 24.097656 C 150.136719 23.554688 150.136719 23.082031 150.136719 22.3125 C 153.488281 22.3125 156.800781 22.3125 160.214844 22.3125 C 160.214844 19.96875 160.214844 17.921875 160.214844 15.625 C 157.132812 15.625 154.117188 15.625 150.996094 15.625 C 150.914062 14.832031 150.855469 14.269531 150.777344 13.503906 C 158.703125 13.503906 166.492188 13.503906 174.46875 13.503906 C 174.511719 13.984375 174.558594 14.523438 174.628906 15.316406 C 171.511719 15.316406 168.566406 15.316406 165.390625 15.316406 "/>
<path style=" stroke:none;fill-rule:nonzero;fill:rgb(13.729858%,12.159729%,12.548828%);fill-opacity:1;" d="M 154.074219 4.609375 C 153.980469 5.851562 153.894531 7.015625 153.800781 8.316406 C 152.441406 8.316406 151.15625 8.316406 149.738281 8.316406 C 149.738281 6.347656 149.738281 4.460938 149.738281 2.398438 C 152.808594 2.398438 155.761719 2.398438 158.90625 2.398438 C 158.8125 1.675781 158.742188 1.152344 158.65625 0.492188 C 160.507812 0.492188 162.34375 0.492188 164.316406 0.492188 C 164.640625 0.957031 165.015625 1.496094 165.4375 2.109375 C 168.65625 2.609375 172.058594 1.792969 175.324219 2.816406 C 176.417969 4.652344 175.890625 6.464844 175.738281 8.34375 C 174.25 8.34375 172.878906 8.34375 171.390625 8.34375 C 171.289062 7.078125 171.203125 5.914062 171.101562 4.609375 C 165.421875 4.609375 159.8125 4.609375 154.074219 4.609375 "/>
<path style=" stroke:none;fill-rule:nonzero;fill:rgb(13.729858%,12.159729%,12.548828%);fill-opacity:1;" d="M 73.566406 7.96875 C 75.226562 5.285156 76.695312 2.914062 78.1875 0.507812 C 79.984375 0.507812 81.671875 0.507812 83.703125 0.507812 C 82.042969 3.140625 80.511719 5.570312 79 7.96875 C 77.265625 7.96875 75.660156 7.96875 73.566406 7.96875 "/>
<path style=" stroke:none;fill-rule:nonzero;fill:rgb(13.729858%,12.159729%,12.548828%);fill-opacity:1;" d="M 141.835938 2.632812 C 143.160156 2.691406 144.269531 2.738281 145.546875 2.792969 C 145.601562 3.398438 145.648438 3.933594 145.714844 4.675781 C 141.613281 4.675781 137.695312 4.675781 133.59375 4.675781 C 133.546875 4.191406 133.492188 3.644531 133.425781 2.90625 C 134.648438 2.839844 135.738281 2.777344 136.976562 2.707031 C 137.054688 2.003906 137.132812 1.316406 137.222656 0.527344 C 138.449219 0.527344 139.609375 0.527344 140.84375 0.527344 C 141.167969 1.21875 141.480469 1.875 141.835938 2.632812 "/>
<path style=" stroke:none;fill-rule:nonzero;fill:rgb(13.729858%,12.159729%,12.548828%);fill-opacity:1;" d="M 167.855469 11.960938 C 167.070312 10.289062 166.222656 8.488281 165.269531 6.464844 C 166.8125 6.464844 168.097656 6.464844 169.640625 6.464844 C 170.449219 8.128906 171.3125 9.902344 172.308594 11.960938 C 170.675781 11.960938 169.382812 11.960938 167.855469 11.960938 "/>
<path style=" stroke:none;fill-rule:nonzero;fill:rgb(13.729858%,12.159729%,12.548828%);fill-opacity:1;" d="M 156.253906 6.5 C 157.660156 6.5 158.875 6.5 160.386719 6.5 C 159.324219 8.476562 158.394531 10.207031 157.429688 12 C 156.203125 12 155.042969 12 153.480469 12 C 154.476562 10.027344 155.378906 8.234375 156.253906 6.5 "/>
<path style=" stroke:none;fill-rule:nonzero;fill:rgb(13.729858%,12.159729%,12.548828%);fill-opacity:1;" d="M 126.761719 9.992188 C 126.007812 9.992188 125.386719 9.992188 124.664062 9.992188 C 124.664062 8.679688 124.664062 7.519531 124.664062 6.191406 C 125.308594 6.125 125.9375 6.058594 126.761719 5.972656 C 126.761719 7.394531 126.761719 8.65625 126.761719 9.992188 "/>
<path style=" stroke:none;fill-rule:nonzero;fill:rgb(90.112305%,11.314392%,14.373779%);fill-opacity:1;" d="M 49.753906 14.601562 C 49.722656 14.707031 49.6875 14.816406 49.660156 14.921875 C 49.265625 16.382812 47.671875 17.832031 45.871094 17.855469 C 44.820312 17.871094 43.84375 17.617188 42.949219 17.089844 C 42.144531 16.621094 41.367188 16.101562 40.585938 15.59375 C 39.59375 14.957031 38.5625 14.402344 37.417969 14.074219 C 36.175781 13.71875 34.914062 13.65625 33.636719 13.792969 C 33.355469 13.820312 33.078125 13.859375 32.792969 13.871094 C 33.042969 13.621094 33.339844 13.453125 33.644531 13.292969 C 34.890625 12.636719 36.210938 12.464844 37.585938 12.730469 C 38.371094 12.882812 39.152344 13.078125 39.9375 13.238281 C 40.164062 13.285156 40.402344 13.289062 40.636719 13.285156 C 40.980469 13.277344 41.25 13.109375 41.386719 12.792969 C 41.480469 12.574219 41.527344 12.332031 41.578125 12.09375 C 41.589844 12.035156 41.539062 11.933594 41.488281 11.898438 C 41.3125 11.78125 41.128906 11.675781 40.941406 11.582031 C 40.757812 11.492188 40.652344 11.519531 40.503906 11.667969 C 40.351562 11.828125 40.210938 11.996094 40.0625 12.15625 C 40.039062 12.183594 39.996094 12.191406 39.964844 12.207031 C 39.953125 12.179688 39.9375 12.152344 39.933594 12.121094 C 39.847656 11.421875 40.261719 10.636719 40.875 10.367188 C 41.332031 10.171875 41.800781 10.210938 42.246094 10.40625 C 42.867188 10.671875 43.390625 11.058594 43.609375 11.738281 C 43.769531 12.242188 43.695312 12.738281 43.496094 13.210938 C 43.347656 13.558594 43.152344 13.890625 42.96875 14.222656 C 42.917969 14.320312 42.90625 14.378906 43.007812 14.441406 C 43.949219 15.003906 44.953125 15.308594 46.050781 15.097656 C 46.855469 14.949219 47.214844 14.417969 47.125 13.605469 C 47.109375 13.453125 47.074219 13.300781 47.03125 13.152344 C 46.941406 12.808594 46.769531 12.679688 46.410156 12.683594 C 46.027344 12.6875 45.671875 12.789062 45.355469 13.007812 C 45.210938 13.109375 45.066406 13.21875 44.921875 13.324219 C 44.878906 13.355469 44.832031 13.394531 44.78125 13.414062 C 44.5625 13.496094 44.519531 13.472656 44.460938 13.25 C 44.417969 13.085938 44.378906 12.917969 44.347656 12.75 C 44.285156 12.390625 44.351562 12.0625 44.5625 11.757812 C 44.78125 11.4375 44.996094 11.109375 45.1875 10.773438 C 45.320312 10.542969 45.308594 10.527344 45.082031 10.394531 C 44.777344 10.210938 44.480469 10.007812 44.101562 10.015625 C 44.007812 10.019531 44.015625 9.957031 44.0625 9.90625 C 44.386719 9.5625 44.714844 9.222656 45.148438 9.019531 C 45.351562 8.925781 45.566406 8.890625 45.789062 8.945312 C 46.007812 9 46.230469 9.050781 46.449219 9.113281 C 46.621094 9.164062 46.722656 9.292969 46.714844 9.476562 C 46.691406 10.054688 47.019531 10.453125 47.414062 10.804688 C 47.683594 11.046875 47.976562 11.265625 48.265625 11.492188 C 48.894531 11.988281 49.402344 12.574219 49.644531 13.359375 C 49.679688 13.464844 49.71875 13.570312 49.753906 13.675781 C 49.753906 13.984375 49.753906 14.292969 49.753906 14.601562 "/>
<g clip-path="url(#clip1)" clip-rule="nonzero">
<path style=" stroke:none;fill-rule:nonzero;fill:rgb(90.112305%,11.314392%,14.373779%);fill-opacity:1;" d="M 32.023438 46.839844 C 31.492188 46.949219 30.964844 47.066406 30.433594 47.160156 C 28.953125 47.421875 27.457031 47.535156 25.953125 47.492188 C 23.792969 47.429688 21.679688 47.09375 19.609375 46.464844 C 17.066406 45.695312 14.710938 44.550781 12.582031 42.953125 C 10.613281 41.476562 8.964844 39.710938 7.746094 37.558594 C 6.78125 35.859375 6.175781 34.039062 5.960938 32.097656 C 5.746094 30.140625 5.914062 28.210938 6.507812 26.328125 C 7.109375 24.425781 8.125 22.761719 9.511719 21.328125 C 11.324219 19.457031 13.492188 18.160156 15.96875 17.355469 C 17.425781 16.878906 18.921875 16.617188 20.457031 16.617188 C 21.945312 16.617188 23.382812 16.851562 24.714844 17.550781 C 26.125 18.292969 27.0625 19.417969 27.421875 20.984375 C 27.640625 21.933594 27.601562 22.886719 27.421875 23.835938 C 27.164062 25.203125 26.648438 26.472656 26.011719 27.703125 C 25.964844 27.796875 25.914062 27.890625 25.867188 27.984375 C 25.824219 28.074219 25.777344 28.070312 25.738281 27.980469 C 25.679688 27.839844 25.621094 27.699219 25.570312 27.550781 C 25.453125 27.234375 25.339844 26.914062 25.230469 26.589844 C 24.988281 25.859375 24.488281 25.429688 23.742188 25.273438 C 22.808594 25.074219 21.863281 25.035156 20.914062 25.164062 C 19.734375 25.328125 18.609375 25.679688 17.546875 26.222656 C 16.667969 26.671875 15.929688 27.300781 15.257812 28.011719 C 14.53125 28.789062 13.949219 29.660156 13.558594 30.65625 C 13.117188 31.769531 12.945312 32.921875 13.03125 34.109375 C 13.183594 36.226562 14.027344 38.070312 15.300781 39.730469 C 16.691406 41.546875 18.449219 42.917969 20.480469 43.953125 C 22.105469 44.777344 23.828125 45.34375 25.597656 45.765625 C 27.027344 46.101562 28.472656 46.34375 29.929688 46.519531 C 30.535156 46.589844 31.140625 46.65625 31.742188 46.726562 C 31.839844 46.738281 31.933594 46.757812 32.027344 46.773438 C 32.027344 46.796875 32.027344 46.816406 32.023438 46.839844 "/>
</g>
<path style=" stroke:none;fill-rule:nonzero;fill:rgb(90.112305%,11.314392%,14.373779%);fill-opacity:1;" d="M 4.738281 34.914062 C 4.5625 34.625 4.375 34.34375 4.210938 34.046875 C 3.464844 32.699219 3.042969 31.242188 2.789062 29.726562 C 2.574219 28.449219 2.507812 27.164062 2.601562 25.875 C 2.785156 23.386719 3.546875 21.101562 5.011719 19.0625 C 5.671875 18.144531 6.445312 17.328125 7.203125 16.492188 C 7.59375 16.058594 7.980469 15.617188 8.261719 15.101562 C 8.332031 14.972656 8.382812 14.835938 8.445312 14.703125 C 8.511719 14.570312 8.441406 14.542969 8.328125 14.566406 C 7.964844 14.636719 7.59375 14.691406 7.238281 14.796875 C 6.269531 15.089844 5.488281 15.675781 4.835938 16.429688 C 4.289062 17.0625 3.78125 17.726562 3.261719 18.378906 C 2.757812 19.003906 2.234375 19.613281 1.585938 20.097656 C 1.140625 20.429688 0.664062 20.699219 0.136719 20.878906 C 0.09375 20.894531 0.046875 20.890625 0 20.898438 C 0.0117188 20.847656 0.015625 20.789062 0.0390625 20.75 C 0.492188 20 0.949219 19.253906 1.40625 18.503906 C 2.03125 17.480469 2.640625 16.449219 3.28125 15.433594 C 3.980469 14.320312 4.867188 13.382812 6.007812 12.707031 C 6.929688 12.160156 7.929688 11.855469 8.988281 11.738281 C 10.132812 11.609375 11.273438 11.683594 12.40625 11.859375 C 13.511719 12.03125 14.613281 12.21875 15.722656 12.378906 C 16.371094 12.472656 17.027344 12.523438 17.679688 12.355469 C 18.339844 12.1875 18.757812 11.765625 18.972656 11.125 C 19.023438 10.972656 18.984375 10.90625 18.839844 10.851562 C 18.414062 10.695312 17.976562 10.609375 17.53125 10.617188 C 16.898438 10.625 16.265625 10.652344 15.632812 10.691406 C 14.289062 10.773438 12.960938 10.6875 11.667969 10.273438 C 10.5625 9.917969 9.546875 9.386719 8.59375 8.734375 C 8.582031 8.726562 8.578125 8.707031 8.558594 8.667969 C 8.660156 8.667969 8.753906 8.65625 8.84375 8.667969 C 9.625 8.769531 10.402344 8.863281 11.183594 8.976562 C 13.382812 9.289062 15.558594 9.230469 17.726562 8.699219 C 18.582031 8.488281 19.449219 8.304688 20.320312 8.160156 C 21.261719 8 22.210938 8.015625 23.132812 8.332031 C 23.785156 8.554688 24.355469 8.898438 24.695312 9.527344 C 24.992188 10.085938 24.988281 10.667969 24.804688 11.253906 C 24.507812 12.199219 23.902344 12.914062 23.050781 13.410156 C 22.128906 13.953125 21.121094 14.285156 20.09375 14.558594 C 18.566406 14.957031 17.023438 15.320312 15.511719 15.765625 C 13.332031 16.40625 11.371094 17.484375 9.601562 18.910156 C 8.414062 19.867188 7.378906 20.96875 6.554688 22.257812 C 5.855469 23.351562 5.347656 24.53125 5.011719 25.785156 C 4.644531 27.148438 4.488281 28.539062 4.46875 29.945312 C 4.449219 31.292969 4.535156 32.636719 4.6875 33.972656 C 4.722656 34.277344 4.765625 34.582031 4.804688 34.886719 C 4.78125 34.894531 4.761719 34.902344 4.738281 34.914062 "/>
<path style=" stroke:none;fill-rule:nonzero;fill:rgb(90.112305%,11.314392%,14.373779%);fill-opacity:1;" d="M 37.550781 22.597656 C 37.605469 22.5 37.65625 22.402344 37.710938 22.308594 C 38.019531 21.820312 38.136719 21.28125 38.164062 20.714844 C 38.171875 20.542969 38.109375 20.449219 37.976562 20.355469 C 37.199219 19.8125 36.328125 19.566406 35.386719 19.574219 C 34.789062 19.582031 34.191406 19.632812 33.59375 19.6875 C 32.648438 19.773438 31.703125 19.886719 30.757812 19.765625 C 29.3125 19.582031 28.042969 19.011719 27.035156 17.941406 C 26.277344 17.132812 25.875 16.148438 25.785156 15.050781 C 25.691406 13.929688 25.890625 12.855469 26.433594 11.855469 C 26.871094 11.054688 27.507812 10.4375 28.261719 9.941406 C 29.15625 9.351562 30.136719 8.9375 31.164062 8.664062 C 32.613281 8.28125 34.070312 7.9375 35.53125 7.59375 C 37.621094 7.09375 39.460938 6.105469 41.089844 4.71875 C 41.597656 4.285156 42.027344 3.777344 42.359375 3.191406 C 42.894531 2.253906 43.003906 1.269531 42.65625 0.242188 C 42.574219 0 42.574219 0 42.820312 -0.00390625 C 43.480469 -0.0117188 44.128906 0.046875 44.757812 0.277344 C 45.824219 0.660156 46.304688 1.5 46.082031 2.609375 C 45.941406 3.308594 45.601562 3.914062 45.183594 4.476562 C 44.371094 5.582031 43.335938 6.445312 42.195312 7.195312 C 40.789062 8.121094 39.253906 8.757812 37.652344 9.253906 C 36.578125 9.585938 35.5 9.917969 34.433594 10.28125 C 33.558594 10.578125 32.714844 10.949219 31.960938 11.503906 C 31.152344 12.101562 30.621094 12.878906 30.453125 13.882812 C 30.214844 15.292969 30.949219 16.515625 32.3125 16.953125 C 33.078125 17.203125 33.871094 17.222656 34.667969 17.195312 C 35.566406 17.167969 36.464844 17.074219 37.367188 17.167969 C 38.109375 17.246094 38.820312 17.421875 39.441406 17.859375 C 40.554688 18.632812 40.792969 19.96875 40.023438 21.082031 C 39.4375 21.925781 38.605469 22.390625 37.628906 22.625 C 37.613281 22.628906 37.597656 22.613281 37.550781 22.597656 "/>
<path style=" stroke:none;fill-rule:nonzero;fill:rgb(90.112305%,11.314392%,14.373779%);fill-opacity:1;" d="M 4.71875 5.167969 C 4.988281 5.203125 5.257812 5.238281 5.527344 5.273438 C 7.679688 5.574219 9.839844 5.796875 12.019531 5.742188 C 14.042969 5.691406 15.992188 5.269531 17.855469 4.488281 C 19.460938 3.816406 21.042969 3.085938 22.636719 2.386719 C 23.558594 1.984375 24.449219 1.511719 25.429688 1.265625 C 26.652344 0.957031 27.878906 0.867188 29.105469 1.226562 C 30.042969 1.503906 30.78125 2.042969 31.179688 2.960938 C 31.441406 3.558594 31.503906 4.195312 31.4375 4.84375 C 31.25 6.570312 30.195312 7.582031 28.660156 8.179688 C 28 8.4375 27.308594 8.507812 26.605469 8.328125 C 25.773438 8.117188 25.238281 7.582031 24.988281 6.773438 C 24.90625 6.503906 24.882812 6.21875 24.839844 5.9375 C 24.820312 5.816406 24.855469 5.765625 24.980469 5.847656 C 25.09375 5.921875 25.21875 5.988281 25.335938 6.054688 C 25.800781 6.320312 26.300781 6.304688 26.800781 6.21875 C 26.863281 6.210938 26.945312 6.128906 26.957031 6.070312 C 27.023438 5.683594 27.078125 5.300781 26.992188 4.910156 C 26.890625 4.441406 26.609375 4.195312 26.128906 4.1875 C 25.664062 4.183594 25.226562 4.320312 24.808594 4.496094 C 23.960938 4.859375 23.125 5.253906 22.277344 5.613281 C 20.25 6.46875 18.152344 7.066406 15.972656 7.378906 C 14.222656 7.625 12.46875 7.679688 10.710938 7.445312 C 8.578125 7.15625 6.582031 6.496094 4.78125 5.285156 C 4.757812 5.265625 4.730469 5.246094 4.707031 5.226562 C 4.710938 5.207031 4.714844 5.1875 4.71875 5.167969 "/>
</g>
</svg>
