<?xml version="1.0" encoding="UTF-8"?>
<svg xmlns="http://www.w3.org/2000/svg" xmlns:xlink="http://www.w3.org/1999/xlink" width="176pt" height="47.55pt" viewBox="0 0 176 47.55" version="1.1">
<defs>
<clipPath id="clip1">
  <path d="M 30 34 L 42 34 L 42 47.550781 L 30 47.550781 Z M 30 34 "/>
</clipPath>
</defs>
<g id="surface1">
<path style=" stroke:none;fill-rule:nonzero;fill:rgb(77.415466%,10.865784%,18.710327%);fill-opacity:1;" d="M 150.972656 31.191406 C 150.972656 31.933594 150.367188 32.535156 149.628906 32.535156 C 148.890625 32.535156 148.292969 31.933594 148.292969 31.191406 C 148.292969 30.453125 148.890625 29.847656 149.628906 29.847656 C 150.367188 29.847656 150.972656 30.453125 150.972656 31.191406 "/>
<path style=" stroke:none;fill-rule:nonzero;fill:rgb(77.415466%,10.865784%,18.710327%);fill-opacity:1;" d="M 150.972656 11.886719 C 150.972656 12.625 150.367188 13.226562 149.628906 13.226562 C 148.890625 13.226562 148.292969 12.625 148.292969 11.886719 C 148.292969 11.144531 148.890625 10.542969 149.628906 10.542969 C 150.367188 10.542969 150.972656 11.144531 150.972656 11.886719 "/>
<path style=" stroke:none;fill-rule:nonzero;fill:rgb(77.415466%,10.865784%,18.710327%);fill-opacity:1;" d="M 144.804688 29.671875 C 145.644531 29.671875 146.324219 30.351562 146.324219 31.1875 C 146.324219 32.027344 145.644531 32.710938 144.804688 32.710938 C 143.96875 32.710938 143.285156 32.027344 143.285156 31.1875 C 143.285156 30.351562 143.96875 29.671875 144.804688 29.671875 "/>
<path style=" stroke:none;fill-rule:nonzero;fill:rgb(77.415466%,10.865784%,18.710327%);fill-opacity:1;" d="M 144.804688 25.023438 C 145.546875 25.023438 146.144531 25.632812 146.144531 26.363281 C 146.144531 27.105469 145.546875 27.703125 144.804688 27.703125 C 144.066406 27.703125 143.464844 27.105469 143.464844 26.363281 C 143.464844 25.632812 144.066406 25.023438 144.804688 25.023438 "/>
<path style=" stroke:none;fill-rule:nonzero;fill:rgb(77.415466%,10.865784%,18.710327%);fill-opacity:1;" d="M 164.113281 25.023438 C 164.851562 25.023438 165.449219 25.632812 165.449219 26.363281 C 165.449219 27.105469 164.851562 27.703125 164.113281 27.703125 C 163.375 27.703125 162.769531 27.105469 162.769531 26.363281 C 162.769531 25.632812 163.375 25.023438 164.113281 25.023438 "/>
<path style=" stroke:none;fill-rule:nonzero;fill:rgb(77.415466%,10.865784%,18.710327%);fill-opacity:1;" d="M 144.804688 20.378906 C 145.449219 20.378906 145.964844 20.898438 145.964844 21.539062 C 145.964844 22.183594 145.449219 22.703125 144.804688 22.703125 C 144.164062 22.703125 143.644531 22.183594 143.644531 21.539062 C 143.644531 20.898438 144.164062 20.378906 144.804688 20.378906 "/>
<path style=" stroke:none;fill-rule:nonzero;fill:rgb(77.415466%,10.865784%,18.710327%);fill-opacity:1;" d="M 148.472656 26.363281 C 148.472656 27.007812 148.992188 27.523438 149.628906 27.523438 C 150.273438 27.523438 150.792969 27.007812 150.792969 26.363281 C 150.792969 25.726562 150.273438 25.207031 149.628906 25.207031 C 148.992188 25.207031 148.472656 25.726562 148.472656 26.363281 "/>
<path style=" stroke:none;fill-rule:nonzero;fill:rgb(77.415466%,10.865784%,18.710327%);fill-opacity:1;" d="M 158.125 26.363281 C 158.125 27.007812 158.648438 27.523438 159.285156 27.523438 C 159.925781 27.523438 160.445312 27.007812 160.445312 26.363281 C 160.445312 25.726562 159.925781 25.207031 159.285156 25.207031 C 158.648438 25.207031 158.125 25.726562 158.125 26.363281 "/>
<path style=" stroke:none;fill-rule:nonzero;fill:rgb(77.415466%,10.865784%,18.710327%);fill-opacity:1;" d="M 148.472656 16.710938 C 148.472656 17.355469 148.992188 17.875 149.628906 17.875 C 150.273438 17.875 150.792969 17.355469 150.792969 16.710938 C 150.792969 16.070312 150.273438 15.550781 149.628906 15.550781 C 148.992188 15.550781 148.472656 16.070312 148.472656 16.710938 "/>
<path style=" stroke:none;fill-rule:nonzero;fill:rgb(77.415466%,10.865784%,18.710327%);fill-opacity:1;" d="M 158.125 16.710938 C 158.125 17.355469 158.648438 17.875 159.285156 17.875 C 159.925781 17.875 160.445312 17.355469 160.445312 16.710938 C 160.445312 16.070312 159.925781 15.550781 159.285156 15.550781 C 158.648438 15.550781 158.125 16.070312 158.125 16.710938 "/>
<path style=" stroke:none;fill-rule:nonzero;fill:rgb(77.415466%,10.865784%,18.710327%);fill-opacity:1;" d="M 150.617188 21.539062 C 150.617188 20.992188 150.175781 20.558594 149.628906 20.558594 C 149.089844 20.558594 148.648438 20.996094 148.648438 21.539062 C 148.648438 22.082031 149.089844 22.519531 149.628906 22.519531 C 150.175781 22.519531 150.617188 22.082031 150.617188 21.539062 "/>
<path style=" stroke:none;fill-rule:nonzero;fill:rgb(77.415466%,10.865784%,18.710327%);fill-opacity:1;" d="M 138.105469 36.015625 C 138.105469 37.050781 138.945312 37.890625 139.976562 37.890625 C 141.011719 37.890625 141.851562 37.050781 141.851562 36.015625 C 141.851562 34.980469 141.011719 34.144531 139.976562 34.144531 C 138.945312 34.144531 138.105469 34.980469 138.105469 36.015625 "/>
<path style=" stroke:none;fill-rule:nonzero;fill:rgb(77.415466%,10.865784%,18.710327%);fill-opacity:1;" d="M 138.105469 26.363281 C 138.105469 27.402344 138.945312 28.242188 139.976562 28.242188 C 141.011719 28.242188 141.851562 27.402344 141.851562 26.363281 C 141.851562 25.328125 141.011719 24.492188 139.976562 24.492188 C 138.945312 24.492188 138.105469 25.328125 138.105469 26.363281 "/>
<path style=" stroke:none;fill-rule:nonzero;fill:rgb(77.415466%,10.865784%,18.710327%);fill-opacity:1;" d="M 138.105469 16.710938 C 138.105469 17.746094 138.945312 18.589844 139.976562 18.589844 C 141.011719 18.589844 141.851562 17.746094 141.851562 16.710938 C 141.851562 15.675781 141.011719 14.839844 139.976562 14.839844 C 138.945312 14.839844 138.105469 15.675781 138.105469 16.710938 "/>
<path style=" stroke:none;fill-rule:nonzero;fill:rgb(77.415466%,10.865784%,18.710327%);fill-opacity:1;" d="M 147.757812 36.015625 C 147.757812 37.050781 148.597656 37.890625 149.628906 37.890625 C 150.667969 37.890625 151.507812 37.050781 151.507812 36.015625 C 151.507812 34.980469 150.667969 34.144531 149.628906 34.144531 C 148.597656 34.144531 147.757812 34.980469 147.757812 36.015625 "/>
<path style=" stroke:none;fill-rule:nonzero;fill:rgb(77.415466%,10.865784%,18.710327%);fill-opacity:1;" d="M 157.410156 36.015625 C 157.410156 37.050781 158.25 37.890625 159.285156 37.890625 C 160.324219 37.890625 161.160156 37.050781 161.160156 36.015625 C 161.160156 34.980469 160.324219 34.144531 159.285156 34.144531 C 158.253906 34.144531 157.410156 34.980469 157.410156 36.015625 "/>
<path style=" stroke:none;fill-rule:nonzero;fill:rgb(77.415466%,10.865784%,18.710327%);fill-opacity:1;" d="M 155.617188 31.191406 C 155.617188 31.832031 155.097656 32.355469 154.457031 32.355469 C 153.820312 32.355469 153.296875 31.832031 153.296875 31.191406 C 153.296875 30.550781 153.820312 30.03125 154.457031 30.03125 C 155.097656 30.03125 155.617188 30.550781 155.617188 31.191406 "/>
<path style=" stroke:none;fill-rule:nonzero;fill:rgb(77.415466%,10.865784%,18.710327%);fill-opacity:1;" d="M 155.445312 26.363281 C 155.445312 26.90625 155.003906 27.347656 154.457031 27.347656 C 153.917969 27.347656 153.476562 26.90625 153.476562 26.363281 C 153.476562 25.820312 153.917969 25.382812 154.457031 25.382812 C 155 25.382812 155.445312 25.820312 155.445312 26.363281 "/>
<path style=" stroke:none;fill-rule:nonzero;fill:rgb(77.415466%,10.865784%,18.710327%);fill-opacity:1;" d="M 155.261719 21.539062 C 155.261719 21.09375 154.902344 20.734375 154.457031 20.734375 C 154.015625 20.734375 153.65625 21.097656 153.65625 21.539062 C 153.65625 21.980469 154.015625 22.339844 154.457031 22.339844 C 154.902344 22.339844 155.261719 21.980469 155.261719 21.539062 "/>
<path style=" stroke:none;fill-rule:nonzero;fill:rgb(77.415466%,10.865784%,18.710327%);fill-opacity:1;" d="M 151.148438 7.054688 C 151.148438 6.21875 150.472656 5.539062 149.628906 5.539062 C 148.796875 5.539062 148.117188 6.21875 148.117188 7.054688 C 148.117188 7.898438 148.796875 8.578125 149.628906 8.578125 C 150.472656 8.578125 151.148438 7.898438 151.148438 7.054688 "/>
<path style=" stroke:none;fill-rule:nonzero;fill:rgb(77.415466%,10.865784%,18.710327%);fill-opacity:1;" d="M 151.328125 2.230469 C 151.328125 1.296875 150.566406 0.535156 149.628906 0.535156 C 148.695312 0.535156 147.9375 1.296875 147.9375 2.230469 C 147.9375 3.167969 148.695312 3.929688 149.628906 3.929688 C 150.566406 3.929688 151.328125 3.167969 151.328125 2.230469 "/>
<path style=" stroke:none;fill-rule:nonzero;fill:rgb(77.415466%,10.865784%,18.710327%);fill-opacity:1;" d="M 167.421875 26.363281 C 167.421875 27.203125 168.101562 27.882812 168.9375 27.882812 C 169.777344 27.882812 170.453125 27.203125 170.453125 26.363281 C 170.453125 25.523438 169.777344 24.847656 168.9375 24.847656 C 168.101562 24.847656 167.421875 25.523438 167.421875 26.363281 "/>
<path style=" stroke:none;fill-rule:nonzero;fill:rgb(77.415466%,10.865784%,18.710327%);fill-opacity:1;" d="M 175.460938 26.363281 C 175.460938 25.429688 174.703125 24.667969 173.765625 24.667969 C 172.828125 24.667969 172.066406 25.429688 172.066406 26.363281 C 172.066406 27.296875 172.828125 28.0625 173.765625 28.0625 C 174.703125 28.0625 175.460938 27.300781 175.460938 26.363281 "/>
<path style=" stroke:none;fill-rule:nonzero;fill:rgb(77.415466%,10.865784%,18.710327%);fill-opacity:1;" d="M 165.632812 11.886719 C 165.632812 12.722656 164.953125 13.402344 164.113281 13.402344 C 163.273438 13.402344 162.59375 12.722656 162.59375 11.886719 C 162.59375 11.046875 163.273438 10.367188 164.113281 10.367188 C 164.953125 10.367188 165.632812 11.046875 165.632812 11.886719 "/>
<path style=" stroke:none;fill-rule:nonzero;fill:rgb(77.415466%,10.865784%,18.710327%);fill-opacity:1;" d="M 170.8125 7.054688 C 170.8125 8.09375 169.972656 8.9375 168.9375 8.9375 C 167.902344 8.9375 167.0625 8.09375 167.0625 7.054688 C 167.0625 6.023438 167.902344 5.183594 168.9375 5.183594 C 169.972656 5.183594 170.8125 6.023438 170.8125 7.054688 "/>
<path style=" stroke:none;fill-rule:nonzero;fill:rgb(77.415466%,10.865784%,18.710327%);fill-opacity:1;" d="M 176 2.230469 C 176 3.464844 174.996094 4.464844 173.765625 4.464844 C 172.53125 4.464844 171.53125 3.464844 171.53125 2.230469 C 171.53125 1 172.53125 0 173.765625 0 C 174.996094 0 176 1 176 2.230469 "/>
<path style=" stroke:none;fill-rule:nonzero;fill:rgb(77.415466%,10.865784%,18.710327%);fill-opacity:1;" d="M 12.328125 45.667969 C 12.390625 45.667969 15.371094 45.667969 15.429688 45.667969 C 15.429688 45.609375 15.429688 34.199219 15.429688 34.136719 C 15.371094 34.136719 12.390625 34.570312 12.328125 34.570312 C 12.328125 34.632812 12.328125 45.609375 12.328125 45.667969 "/>
<path style=" stroke:none;fill-rule:nonzero;fill:rgb(77.415466%,10.865784%,18.710327%);fill-opacity:1;" d="M 56.714844 34.144531 C 53.382812 34.144531 51.054688 36.550781 51.054688 39.988281 C 51.054688 43.667969 53.347656 45.945312 57.046875 45.945312 C 59.363281 45.945312 60.523438 45.304688 61.296875 44.878906 C 61.296875 44.878906 61.300781 44.875 61.304688 44.875 C 61.28125 44.828125 60.34375 42.988281 60.3125 42.933594 C 60.28125 42.949219 60.195312 42.996094 60.195312 42.996094 C 59.625 43.28125 58.765625 43.714844 57.328125 43.714844 C 55.0625 43.714844 54.453125 42.105469 54.347656 40.757812 L 54.34375 40.726562 C 54.34375 40.726562 61.585938 40.726562 61.648438 40.726562 C 61.675781 40.375 61.691406 40.019531 61.691406 39.6875 C 61.691406 37.898438 61.242188 36.476562 60.363281 35.527344 C 59.507812 34.609375 58.28125 34.144531 56.714844 34.144531 Z M 54.316406 38.875 C 54.320312 38.828125 54.332031 38.757812 54.347656 38.660156 C 54.574219 37.140625 55.367188 36.316406 56.671875 36.316406 C 57.941406 36.316406 58.65625 37.148438 58.679688 38.664062 L 58.683594 38.695312 L 54.316406 38.875 "/>
<path style=" stroke:none;fill-rule:nonzero;fill:rgb(77.415466%,10.865784%,18.710327%);fill-opacity:1;" d="M 69.109375 34.144531 C 65.773438 34.144531 63.449219 36.550781 63.449219 39.988281 C 63.449219 43.667969 65.746094 45.945312 69.441406 45.945312 C 71.761719 45.945312 72.921875 45.304688 73.691406 44.878906 C 73.691406 44.878906 73.695312 44.875 73.699219 44.875 C 73.675781 44.828125 72.734375 42.988281 72.710938 42.933594 C 72.671875 42.949219 72.589844 42.996094 72.589844 42.996094 C 72.019531 43.28125 71.160156 43.714844 69.722656 43.714844 C 67.453125 43.714844 66.847656 42.105469 66.742188 40.757812 L 66.734375 40.726562 C 66.734375 40.726562 73.980469 40.726562 74.042969 40.726562 C 74.074219 40.375 74.089844 40.019531 74.089844 39.6875 C 74.089844 37.898438 73.632812 36.476562 72.757812 35.527344 C 71.902344 34.609375 70.675781 34.144531 69.109375 34.144531 Z M 66.714844 38.875 C 66.71875 38.828125 66.722656 38.757812 66.742188 38.660156 C 66.96875 37.140625 67.761719 36.316406 69.0625 36.316406 C 70.332031 36.316406 71.050781 37.148438 71.074219 38.664062 L 71.078125 38.695312 L 66.714844 38.875 "/>
<path style=" stroke:none;fill-rule:nonzero;fill:rgb(77.415466%,10.865784%,18.710327%);fill-opacity:1;" d="M 89.53125 45.667969 C 89.589844 45.667969 92.546875 45.667969 92.605469 45.667969 C 92.605469 45.605469 92.605469 29.84375 92.605469 29.777344 C 92.546875 29.777344 89.589844 30.210938 89.53125 30.210938 C 89.53125 30.277344 89.53125 45.605469 89.53125 45.667969 "/>
<path style=" stroke:none;fill-rule:nonzero;fill:rgb(77.415466%,10.865784%,18.710327%);fill-opacity:1;" d="M 7.082031 45.667969 C 7.128906 45.667969 9.847656 45.667969 9.917969 45.667969 C 9.707031 44.722656 9.597656 43.605469 9.597656 42.359375 L 9.597656 38.292969 C 9.597656 35.386719 8.222656 34.144531 4.996094 34.144531 C 2.585938 34.144531 1.082031 35.140625 0.386719 35.746094 C 0.421875 35.792969 1.6875 37.382812 1.722656 37.4375 C 1.734375 37.425781 1.746094 37.414062 1.746094 37.414062 C 2.183594 37.101562 3.203125 36.378906 4.644531 36.378906 C 5.976562 36.378906 6.539062 37.003906 6.539062 38.132812 L 6.539062 38.667969 L 6.109375 38.667969 C 3.15625 38.667969 0 39.714844 0 42.65625 C 0 44.539062 1.382812 45.945312 3.441406 45.945312 C 5.074219 45.945312 6.121094 45.066406 6.597656 44.535156 L 6.710938 44.535156 Z M 6.539062 42.75 C 6.097656 43.21875 5.441406 43.757812 4.382812 43.757812 C 3.730469 43.757812 2.957031 43.296875 2.957031 42.398438 C 2.957031 41.167969 4.046875 40.4375 6.109375 40.4375 L 6.542969 40.4375 L 6.542969 42.75 "/>
<path style=" stroke:none;fill-rule:nonzero;fill:rgb(77.415466%,10.865784%,18.710327%);fill-opacity:1;" d="M 13.878906 29.433594 C 12.699219 29.433594 11.996094 30.105469 11.996094 31.238281 C 11.996094 32.367188 12.699219 33.050781 13.878906 33.050781 C 15.054688 33.050781 15.757812 32.367188 15.757812 31.238281 C 15.757812 30.105469 15.054688 29.433594 13.878906 29.433594 "/>
<g clip-path="url(#clip1)" clip-rule="nonzero">
<path style=" stroke:none;fill-rule:nonzero;fill:rgb(77.415466%,10.865784%,18.710327%);fill-opacity:1;" d="M 33.816406 42.132812 C 34.367188 42.269531 35.355469 42.269531 35.355469 42.269531 C 38.398438 42.269531 40.285156 40.71875 40.285156 38.214844 C 40.285156 37.949219 40.226562 37.453125 40.15625 37.179688 C 40.082031 36.914062 39.988281 36.652344 39.863281 36.417969 C 39.863281 36.417969 39.808594 36.3125 39.789062 36.285156 L 41.078125 36.285156 L 41.609375 34.378906 C 41.316406 34.226562 40.925781 34.144531 40.414062 34.144531 C 39.5625 34.144531 38.957031 34.574219 38.5625 35.007812 C 38.109375 34.710938 37.570312 34.492188 36.957031 34.335938 C 36.4375 34.207031 35.882812 34.144531 35.191406 34.144531 C 32.148438 34.144531 30.167969 35.699219 30.121094 38.132812 C 30.121094 38.152344 30.121094 38.214844 30.121094 38.214844 C 30.121094 39.914062 31.078125 40.921875 32.03125 41.484375 C 31.15625 42.472656 30.25 43.527344 30.25 44.511719 C 30.25 44.660156 30.261719 46.300781 32.980469 46.128906 C 33.960938 46.0625 35.695312 45.9375 36.660156 45.9375 C 38.550781 45.9375 38.269531 47.550781 38.269531 47.550781 L 40.914062 47.550781 C 41.972656 43.738281 39.390625 43.546875 38.121094 43.546875 C 36.847656 43.546875 34.332031 43.882812 33.886719 43.925781 C 33.445312 43.972656 32.886719 44.015625 32.886719 43.570312 C 32.886719 43.394531 33.027344 43.144531 33.210938 42.914062 Z M 35.214844 40.335938 C 33.890625 40.335938 33.101562 39.542969 33.101562 38.214844 C 33.101562 36.890625 33.890625 36.09375 35.214844 36.09375 C 36.535156 36.09375 37.324219 36.890625 37.324219 38.214844 C 37.324219 39.542969 36.535156 40.335938 35.214844 40.335938 "/>
</g>
<path style=" stroke:none;fill-rule:nonzero;fill:rgb(77.415466%,10.865784%,18.710327%);fill-opacity:1;" d="M 45.742188 34.179688 C 45.695312 34.179688 43.128906 34.855469 43.054688 34.855469 C 43.253906 35.738281 43.363281 36.371094 43.375 37.480469 C 43.375 40.714844 43.375 45.628906 43.375 45.667969 C 43.4375 45.667969 46.394531 45.667969 46.457031 45.667969 C 46.457031 45.609375 46.457031 38.410156 46.457031 38.410156 C 46.746094 37.894531 47.570312 36.824219 48.984375 36.824219 C 49.65625 36.824219 50.191406 37.007812 50.191406 37.007812 L 50.914062 34.4375 C 50.539062 34.238281 50.042969 34.144531 49.390625 34.144531 C 47.8125 34.144531 46.851562 35.28125 46.457031 35.957031 L 46.324219 35.957031 L 45.742188 34.179688 "/>
<path style=" stroke:none;fill-rule:nonzero;fill:rgb(77.415466%,10.865784%,18.710327%);fill-opacity:1;" d="M 20.695312 34.179688 C 20.648438 34.179688 18.082031 34.855469 18.003906 34.855469 C 18.207031 35.738281 18.3125 36.371094 18.328125 37.480469 C 18.328125 40.714844 18.328125 45.628906 18.328125 45.667969 C 18.390625 45.667969 21.347656 45.667969 21.40625 45.667969 C 21.40625 45.609375 21.40625 38.410156 21.40625 38.410156 C 21.695312 37.894531 22.523438 36.824219 23.941406 36.824219 C 24.605469 36.824219 25.144531 37.007812 25.144531 37.007812 L 25.863281 34.4375 C 25.492188 34.238281 24.996094 34.144531 24.34375 34.144531 C 22.765625 34.144531 21.804688 35.28125 21.40625 35.957031 L 21.277344 35.957031 L 20.695312 34.179688 "/>
<path style=" stroke:none;fill-rule:nonzero;fill:rgb(77.415466%,10.865784%,18.710327%);fill-opacity:1;" d="M 101.992188 45.667969 C 102.039062 45.667969 104.757812 45.667969 104.828125 45.667969 C 104.613281 44.722656 104.503906 43.605469 104.503906 42.359375 L 104.503906 38.292969 C 104.503906 35.386719 103.132812 34.144531 99.90625 34.144531 C 97.496094 34.144531 95.984375 35.140625 95.296875 35.746094 C 95.328125 35.792969 96.59375 37.382812 96.628906 37.4375 C 96.640625 37.425781 96.652344 37.417969 96.652344 37.417969 C 97.089844 37.105469 98.109375 36.382812 99.550781 36.382812 C 100.882812 36.382812 101.449219 37.003906 101.449219 38.132812 L 101.449219 38.667969 L 101.015625 38.667969 C 98.0625 38.667969 94.902344 39.714844 94.902344 42.65625 C 94.902344 44.539062 96.289062 45.945312 98.347656 45.945312 C 99.984375 45.945312 101.03125 45.070312 101.507812 44.535156 L 101.617188 44.535156 Z M 101.449219 42.75 C 101.007812 43.21875 100.351562 43.757812 99.289062 43.757812 C 98.632812 43.757812 97.867188 43.296875 97.867188 42.398438 C 97.867188 41.167969 98.957031 40.4375 101.019531 40.4375 L 101.449219 40.4375 L 101.449219 42.75 "/>
<path style=" stroke:none;fill-rule:nonzero;fill:rgb(77.415466%,10.865784%,18.710327%);fill-opacity:1;" d="M 76.1875 34.855469 C 76.402344 35.808594 76.515625 36.488281 76.515625 37.738281 C 76.515625 40.964844 76.515625 45.632812 76.515625 45.667969 C 76.574219 45.667969 79.53125 45.667969 79.59375 45.667969 C 79.59375 45.609375 79.59375 37.945312 79.59375 37.945312 C 80.316406 37.023438 81.164062 36.664062 81.984375 36.664062 C 83.082031 36.664062 83.550781 37.183594 83.550781 38.410156 C 83.550781 38.410156 83.550781 45.609375 83.550781 45.667969 C 83.613281 45.667969 86.566406 45.667969 86.628906 45.667969 C 86.628906 45.609375 86.628906 37.78125 86.628906 37.78125 C 86.628906 36.121094 86.039062 34.144531 83.214844 34.144531 C 81.824219 34.144531 80.605469 34.671875 79.59375 35.757812 L 79.464844 35.757812 L 78.945312 34.179688 C 78.902344 34.179688 76.261719 34.855469 76.1875 34.855469 "/>
<path style=" stroke:none;fill-rule:nonzero;fill:rgb(77.415466%,10.865784%,18.710327%);fill-opacity:1;" d="M 106.9375 34.855469 C 107.152344 35.808594 107.261719 36.488281 107.261719 37.738281 C 107.261719 40.964844 107.261719 45.632812 107.261719 45.667969 C 107.316406 45.667969 110.277344 45.667969 110.339844 45.667969 C 110.339844 45.609375 110.339844 37.945312 110.339844 37.945312 C 111.058594 37.023438 111.910156 36.664062 112.730469 36.664062 C 113.828125 36.664062 114.296875 37.183594 114.296875 38.410156 C 114.296875 38.410156 114.296875 45.609375 114.296875 45.667969 C 114.355469 45.667969 117.316406 45.667969 117.375 45.667969 C 117.375 45.609375 117.375 37.78125 117.375 37.78125 C 117.375 36.121094 116.78125 34.144531 113.960938 34.144531 C 112.574219 34.144531 111.351562 34.671875 110.339844 35.757812 L 110.214844 35.757812 L 109.691406 34.179688 C 109.648438 34.179688 107.007812 34.855469 106.9375 34.855469 "/>
<path style=" stroke:none;fill-rule:nonzero;fill:rgb(77.415466%,10.865784%,18.710327%);fill-opacity:1;" d="M 130.316406 42.476562 C 130.316406 42.476562 130.316406 29.914062 130.316406 29.851562 C 130.261719 29.851562 127.304688 30.285156 127.238281 30.285156 C 127.238281 30.34375 127.238281 34.964844 127.238281 34.964844 L 127.191406 34.929688 C 126.445312 34.40625 125.582031 34.144531 124.539062 34.144531 C 121.527344 34.144531 119.421875 36.585938 119.421875 40.082031 C 119.421875 43.769531 121.175781 45.972656 124.117188 45.972656 C 125.382812 45.972656 126.46875 45.503906 127.316406 44.535156 L 127.429688 44.535156 L 127.804688 45.667969 C 127.851562 45.667969 130.570312 45.667969 130.644531 45.667969 C 130.515625 45.113281 130.316406 43.980469 130.316406 42.476562 Z M 127.234375 37.261719 L 127.234375 42.398438 C 127.09375 42.59375 126.316406 43.550781 125.058594 43.550781 C 123.511719 43.550781 122.691406 42.351562 122.691406 40.082031 C 122.691406 37.804688 123.609375 36.5 125.199219 36.5 C 126.234375 36.5 126.835938 36.902344 127.234375 37.25 L 127.234375 37.261719 "/>
</g>
</svg>
