<svg xmlns="http://www.w3.org/2000/svg" width="176pt" height="75.427" viewBox="0 0 176 56.57"><defs><clipPath id="a"><path d="M84 17h40v39.57H84Zm0 0"/></clipPath><clipPath id="b"><path d="M0 17h37v39.57H0Zm0 0"/></clipPath></defs><g clip-path="url(#a)"><path d="M112.39 36.973c0-1.766-.003-3.528.005-5.293 0-.367-.016-.727-.329-.977-.66-.535-1.273-1.148-1.996-1.578-2.117-1.254-4.425-1.473-6.785-.95-2.023.45-3.71 1.481-4.98 3.169-1.395 1.847-1.934 3.93-1.801 6.207.14 2.527 1.2 4.61 3.11 6.25 1.491 1.277 3.257 1.941 5.19 2.14 2.59.27 4.907-.414 6.864-2.183.484-.438.762-.946.738-1.66-.05-1.707-.015-3.418-.015-5.125M102.298 56.57c-.559-.105-1.11-.242-1.672-.312-3.34-.426-6.305-1.7-8.875-3.875-3.582-3.024-5.613-6.946-6.45-11.504-.87-4.785-.257-9.406 1.985-13.727 2.66-5.125 6.848-8.351 12.559-9.386 3.547-.641 7.031-.332 10.261 1.453.758.422 1.454.965 2.278 1.523v-2.527c.722-.211 10.437-.238 11.273-.063.164.598.215 36.559.055 37.567-.613.203-10.36.23-11.281.004v-2.426c-.278.125-.434.168-.555.254-2.309 1.683-4.922 2.531-7.73 2.86-.176.019-.352.105-.528.16z" style="stroke:none;fill-rule:nonzero;fill:#49a4e0;fill-opacity:1"/></g><g clip-path="url(#b)"><path d="M18.016 56.57c-.47-.105-.934-.238-1.407-.308C7.992 55.016 1.184 48.027.141 39.355c-1.235-10.3 5.754-19.812 15.984-21.492 7.945-1.304 14.457 1.348 19.422 7.719.2.254.363.535.594.879a8141 8141 0 0 0-9.051 6.418c-.258-.39-.457-.707-.676-1.02-2.922-4.187-7.805-4.394-10.875-2.578-2.379 1.41-3.582 3.602-3.945 6.274-.239 1.742-.09 3.468.55 5.125 2.204 5.699 9.465 6.945 13.586 2.324.493-.55.899-1.176 1.395-1.84 2.98 2.113 5.957 4.223 8.984 6.371-.152.262-.261.477-.398.672-3.254 4.477-7.61 7.164-13.07 8.05-.5.083-.989.208-1.485.313z" style="stroke:none;fill-rule:nonzero;fill:#ed1d24;fill-opacity:1"/></g><path d="M138.816 0c.149.055.293.129.446.16 3.215.7 5.41 3.676 5.156 7-.242 3.203-2.89 5.852-6.059 6.063-3.355.222-6.297-1.953-6.988-5.172-.789-3.684 1.484-7.153 5.184-7.914.097-.02.187-.09.28-.137z" style="stroke:none;fill-rule:nonzero;fill:#ed1d24;fill-opacity:1"/><path d="M176 29.277q-.091-.012-.184-.02.013-.66.02-1.323c.004-3.25.012-6.504.016-9.754a.5.5 0 0 1 .148.015z" style="stroke:none;fill-rule:nonzero;fill:#d0cfd0;fill-opacity:1"/><path d="M78.648 55.832H67.285v-1q-.001-8.974.004-17.95c0-1.382-.137-2.745-.527-4.081-1.235-4.2-4.7-5.344-8.02-4.625-1.762.383-3.27 1.27-4.59 2.496-.37.348-.523.715-.523 1.23.023 2.977.012 5.953.012 8.93v15H42.219V1.066C42.785.86 51.82.77 53.602.97c.078 1.062.027 2.156.039 3.242.007 1.074 0 2.148 0 3.226V20.66c.18-.07.285-.086.351-.144 2.004-1.871 4.461-2.711 7.117-2.934 2.946-.246 5.832.16 8.563 1.352 4.183 1.824 6.785 5.05 8.129 9.351.586 1.875.886 3.805.89 5.778 0 6.972 0 13.949-.004 20.921 0 .27-.023.536-.039.848" style="stroke:none;fill-rule:nonzero;fill:#ed1d24;fill-opacity:1"/><path d="M175.852 18.18c-.004 3.25-.012 6.504-.016 9.754q-.007.661-.02 1.324c-1.812-.863-3.718-1.371-5.738-1.293-2.375.09-4.43.984-6.191 2.582-.469.422-.64.883-.64 1.515.023 7.551.015 15.102.015 22.653v1.113h-11.34v-37.7c.289-.023.555-.062.82-.062q4.79-.01 9.578-.003c.907.003.934.03.942.925.004.567 0 1.13 0 1.77.187-.098.273-.117.328-.168 1.633-1.668 3.715-2.426 5.93-2.856 1.832-.355 3.667-.3 5.488.141.289.07.562.203.844.305M143.883 55.84h-12.125c-.02-.371-.043-.692-.043-1.012-.004-10.523.015-21.047-.02-31.57-.007-2.649 1.922-5.055 4.645-5.672 2.683-.613 5.367.457 6.765 2.668.543.86.833 1.797.833 2.812.003 10.66.003 21.325 0 31.985 0 .238-.032.48-.055.789" style="stroke:none;fill-rule:nonzero;fill:#49a4e0;fill-opacity:1"/></svg>