<?xml version="1.0" encoding="UTF-8"?>
<svg xmlns="http://www.w3.org/2000/svg" xmlns:xlink="http://www.w3.org/1999/xlink" width="176pt" height="56.57pt" viewBox="0 0 176 56.57" version="1.1">
<defs>
<clipPath id="clip1">
  <path d="M 84 17 L 124 17 L 124 56.570312 L 84 56.570312 Z M 84 17 "/>
</clipPath>
<clipPath id="clip2">
  <path d="M 0 17 L 37 17 L 37 56.570312 L 0 56.570312 Z M 0 17 "/>
</clipPath>
</defs>
<g id="surface1">
<g clip-path="url(#clip1)" clip-rule="nonzero">
<path style=" stroke:none;fill-rule:nonzero;fill:rgb(28.735352%,64.373779%,87.918091%);fill-opacity:1;" d="M 112.390625 36.972656 C 112.390625 35.207031 112.386719 33.445312 112.394531 31.679688 C 112.394531 31.3125 112.378906 30.953125 112.066406 30.703125 C 111.40625 30.167969 110.792969 29.554688 110.070312 29.125 C 107.953125 27.871094 105.644531 27.652344 103.285156 28.175781 C 101.261719 28.625 99.574219 29.65625 98.304688 31.34375 C 96.910156 33.191406 96.371094 35.273438 96.503906 37.550781 C 96.644531 40.078125 97.703125 42.160156 99.613281 43.800781 C 101.105469 45.078125 102.871094 45.742188 104.804688 45.941406 C 107.394531 46.210938 109.710938 45.527344 111.667969 43.757812 C 112.152344 43.320312 112.429688 42.8125 112.40625 42.097656 C 112.355469 40.390625 112.390625 38.679688 112.390625 36.972656 Z M 102.296875 56.570312 C 101.738281 56.464844 101.1875 56.328125 100.625 56.257812 C 97.285156 55.832031 94.320312 54.558594 91.75 52.382812 C 88.167969 49.359375 86.136719 45.4375 85.300781 40.878906 C 84.429688 36.09375 85.042969 31.472656 87.285156 27.152344 C 89.945312 22.027344 94.132812 18.800781 99.84375 17.765625 C 103.390625 17.125 106.875 17.433594 110.105469 19.21875 C 110.863281 19.640625 111.558594 20.183594 112.382812 20.742188 C 112.382812 19.847656 112.382812 19.015625 112.382812 18.214844 C 113.105469 18.003906 122.820312 17.976562 123.65625 18.152344 C 123.820312 18.75 123.871094 54.710938 123.710938 55.71875 C 123.097656 55.921875 113.351562 55.949219 112.429688 55.722656 C 112.429688 54.972656 112.429688 54.191406 112.429688 53.296875 C 112.152344 53.421875 111.996094 53.464844 111.875 53.550781 C 109.566406 55.234375 106.953125 56.082031 104.144531 56.410156 C 103.96875 56.429688 103.792969 56.515625 103.617188 56.570312 C 103.175781 56.570312 102.734375 56.570312 102.296875 56.570312 "/>
</g>
<g clip-path="url(#clip2)" clip-rule="nonzero">
<path style=" stroke:none;fill-rule:nonzero;fill:rgb(92.980957%,11.471558%,14.03656%);fill-opacity:1;" d="M 18.015625 56.570312 C 17.546875 56.464844 17.082031 56.332031 16.609375 56.261719 C 7.992188 55.015625 1.183594 48.027344 0.140625 39.355469 C -1.09375 29.054688 5.894531 19.542969 16.125 17.863281 C 24.070312 16.558594 30.582031 19.210938 35.546875 25.582031 C 35.746094 25.835938 35.910156 26.117188 36.140625 26.460938 C 33.105469 28.609375 30.132812 30.71875 27.089844 32.878906 C 26.832031 32.488281 26.632812 32.171875 26.414062 31.859375 C 23.492188 27.671875 18.609375 27.464844 15.539062 29.28125 C 13.160156 30.691406 11.957031 32.882812 11.59375 35.554688 C 11.355469 37.296875 11.503906 39.023438 12.144531 40.679688 C 14.347656 46.378906 21.609375 47.625 25.730469 43.003906 C 26.222656 42.453125 26.628906 41.828125 27.125 41.164062 C 30.105469 43.277344 33.082031 45.386719 36.109375 47.535156 C 35.957031 47.796875 35.847656 48.011719 35.710938 48.207031 C 32.457031 52.683594 28.101562 55.371094 22.640625 56.257812 C 22.140625 56.339844 21.652344 56.464844 21.15625 56.570312 C 20.109375 56.570312 19.0625 56.570312 18.015625 56.570312 "/>
</g>
<path style=" stroke:none;fill-rule:nonzero;fill:rgb(92.980957%,11.471558%,14.03656%);fill-opacity:1;" d="M 138.816406 0 C 138.964844 0.0546875 139.109375 0.128906 139.261719 0.160156 C 142.476562 0.859375 144.671875 3.835938 144.417969 7.160156 C 144.175781 10.363281 141.527344 13.011719 138.359375 13.222656 C 135.003906 13.445312 132.0625 11.269531 131.371094 8.050781 C 130.582031 4.367188 132.855469 0.898438 136.554688 0.136719 C 136.652344 0.117188 136.742188 0.046875 136.835938 0 C 137.496094 0 138.15625 0 138.816406 0 "/>
<path style=" stroke:none;fill-rule:nonzero;fill:rgb(81.677246%,81.343079%,81.425476%);fill-opacity:1;" d="M 176 29.277344 C 175.9375 29.269531 175.878906 29.261719 175.816406 29.257812 C 175.824219 28.816406 175.832031 28.375 175.835938 27.933594 C 175.839844 24.683594 175.847656 21.429688 175.851562 18.179688 C 175.902344 18.175781 175.949219 18.183594 176 18.195312 C 176 21.890625 176 25.582031 176 29.277344 "/>
<path style=" stroke:none;fill-rule:nonzero;fill:rgb(92.980957%,11.471558%,14.03656%);fill-opacity:1;" d="M 78.648438 55.832031 C 74.859375 55.832031 71.128906 55.832031 67.285156 55.832031 C 67.285156 55.472656 67.285156 55.152344 67.285156 54.832031 C 67.285156 48.847656 67.285156 42.867188 67.289062 36.882812 C 67.289062 35.5 67.152344 34.136719 66.761719 32.800781 C 65.527344 28.601562 62.0625 27.457031 58.742188 28.175781 C 56.980469 28.558594 55.472656 29.445312 54.152344 30.671875 C 53.78125 31.019531 53.628906 31.386719 53.628906 31.902344 C 53.652344 34.878906 53.640625 37.855469 53.640625 40.832031 C 53.640625 45.492188 53.640625 50.152344 53.640625 54.808594 C 53.640625 55.132812 53.640625 55.457031 53.640625 55.832031 C 49.777344 55.832031 46.023438 55.832031 42.21875 55.832031 C 42.21875 37.542969 42.21875 19.304688 42.21875 1.066406 C 42.785156 0.859375 51.820312 0.769531 53.601562 0.96875 C 53.679688 2.03125 53.628906 3.125 53.640625 4.210938 C 53.648438 5.285156 53.640625 6.359375 53.640625 7.4375 C 53.640625 8.539062 53.640625 9.640625 53.640625 10.746094 C 53.640625 11.847656 53.640625 12.949219 53.640625 14.050781 C 53.640625 15.128906 53.640625 16.203125 53.640625 17.277344 C 53.640625 18.375 53.640625 19.476562 53.640625 20.660156 C 53.820312 20.589844 53.925781 20.574219 53.992188 20.515625 C 55.996094 18.644531 58.453125 17.804688 61.109375 17.582031 C 64.054688 17.335938 66.941406 17.742188 69.671875 18.933594 C 73.855469 20.757812 76.457031 23.984375 77.800781 28.285156 C 78.386719 30.160156 78.6875 32.089844 78.691406 34.0625 C 78.691406 41.035156 78.691406 48.011719 78.6875 54.984375 C 78.6875 55.253906 78.664062 55.519531 78.648438 55.832031 "/>
<path style=" stroke:none;fill-rule:nonzero;fill:rgb(28.735352%,64.373779%,87.918091%);fill-opacity:1;" d="M 175.851562 18.179688 C 175.847656 21.429688 175.839844 24.683594 175.835938 27.933594 C 175.832031 28.375 175.824219 28.816406 175.816406 29.257812 C 174.003906 28.394531 172.097656 27.886719 170.078125 27.964844 C 167.703125 28.054688 165.648438 28.949219 163.886719 30.546875 C 163.417969 30.96875 163.246094 31.429688 163.246094 32.0625 C 163.269531 39.613281 163.261719 47.164062 163.261719 54.714844 C 163.261719 55.066406 163.261719 55.414062 163.261719 55.828125 C 159.429688 55.828125 155.703125 55.828125 151.921875 55.828125 C 151.921875 43.253906 151.921875 30.730469 151.921875 18.128906 C 152.210938 18.105469 152.476562 18.066406 152.742188 18.066406 C 155.933594 18.058594 159.128906 18.058594 162.320312 18.0625 C 163.226562 18.066406 163.253906 18.09375 163.261719 18.988281 C 163.265625 19.554688 163.261719 20.117188 163.261719 20.757812 C 163.449219 20.660156 163.535156 20.640625 163.589844 20.589844 C 165.222656 18.921875 167.304688 18.164062 169.519531 17.734375 C 171.351562 17.378906 173.1875 17.433594 175.007812 17.875 C 175.296875 17.945312 175.570312 18.078125 175.851562 18.179688 "/>
<path style=" stroke:none;fill-rule:nonzero;fill:rgb(28.735352%,64.373779%,87.918091%);fill-opacity:1;" d="M 143.882812 55.839844 C 139.792969 55.839844 135.816406 55.839844 131.757812 55.839844 C 131.738281 55.46875 131.714844 55.148438 131.714844 54.828125 C 131.710938 44.304688 131.730469 33.78125 131.695312 23.257812 C 131.6875 20.609375 133.617188 18.203125 136.339844 17.585938 C 139.023438 16.972656 141.707031 18.042969 143.105469 20.253906 C 143.648438 21.113281 143.9375 22.050781 143.9375 23.066406 C 143.941406 33.726562 143.941406 44.390625 143.9375 55.050781 C 143.9375 55.289062 143.90625 55.53125 143.882812 55.839844 "/>
</g>
</svg>
