<?xml version="1.0" encoding="UTF-8"?>
<svg xmlns="http://www.w3.org/2000/svg" xmlns:xlink="http://www.w3.org/1999/xlink" width="176pt" height="32.02pt" viewBox="0 0 176 32.02" version="1.1">
<defs>
<clipPath id="clip1">
  <path d="M 0 10 L 33 10 L 33 32.019531 L 0 32.019531 Z M 0 10 "/>
</clipPath>
</defs>
<g id="surface1">
<path style=" stroke:none;fill-rule:nonzero;fill:rgb(95.507812%,90.365601%,3.555298%);fill-opacity:1;" d="M 6.398438 16.625 C 6.945312 17.140625 7.421875 17.730469 7.894531 18.3125 C 9.125 19.828125 10.394531 21.300781 11.847656 22.601562 C 13.652344 24.226562 15.769531 25.253906 18.140625 25.742188 C 18.707031 25.855469 19.292969 25.871094 19.871094 25.925781 C 20.304688 25.96875 20.738281 26.050781 21.171875 26.039062 C 23.601562 25.964844 25.863281 25.34375 27.78125 23.78125 C 29.097656 22.710938 30.132812 21.394531 30.773438 19.800781 C 30.839844 19.636719 30.84375 19.441406 30.878906 19.234375 C 30.496094 19.199219 30.410156 19.441406 30.292969 19.640625 C 30.136719 19.914062 30.011719 20.214844 29.816406 20.457031 C 29.0625 21.375 28.078125 21.871094 26.917969 22.128906 C 24.847656 22.585938 23.121094 21.925781 21.65625 20.535156 C 20.378906 19.324219 19.707031 17.789062 19.925781 16.015625 C 20.222656 13.636719 21.398438 11.820312 23.714844 10.929688 C 24.933594 10.460938 26.21875 10.394531 27.503906 10.710938 C 29.890625 11.292969 31.378906 12.816406 31.984375 15.171875 C 32.019531 15.316406 32.050781 15.460938 32.074219 15.613281 C 32.035156 14.085938 31.785156 12.613281 31.347656 11.222656 C 31.382812 11.34375 31.417969 11.460938 31.449219 11.582031 C 31.1875 11.15625 30.992188 10.820312 30.78125 10.492188 C 30.074219 9.40625 29.222656 8.464844 28.21875 7.628906 C 27.125 6.722656 25.949219 5.980469 24.667969 5.386719 C 23.804688 4.988281 22.898438 4.746094 21.972656 4.554688 C 20.816406 4.3125 19.644531 4.347656 18.484375 4.433594 C 17.242188 4.523438 16.042969 4.914062 15.019531 5.628906 C 13.957031 6.367188 13.285156 7.390625 13.3125 8.757812 C 13.332031 9.636719 13.171875 10.480469 12.945312 11.332031 C 12.53125 12.894531 10.808594 13.550781 9.503906 13.222656 C 8.71875 13.023438 8.007812 12.664062 7.28125 12.347656 C 6.4375 11.976562 5.625 11.519531 4.707031 11.378906 C 4.234375 11.304688 3.734375 11.277344 3.265625 11.355469 C 2.378906 11.5 1.535156 11.800781 0.824219 12.394531 C 0.734375 12.46875 0.613281 12.511719 0.4375 12.605469 C 0.585938 11.863281 0.792969 11.140625 1.050781 10.433594 C 0.738281 11.277344 0.492188 12.152344 0.324219 13.058594 C 1.191406 13.441406 2.007812 13.800781 2.820312 14.160156 C 4.167969 14.757812 5.339844 15.617188 6.398438 16.625 "/>
<g clip-path="url(#clip1)" clip-rule="nonzero">
<path style=" stroke:none;fill-rule:nonzero;fill:rgb(91.941833%,11.581421%,15.364075%);fill-opacity:1;" d="M 32.074219 15.613281 C 32.050781 15.460938 32.019531 15.316406 31.984375 15.171875 C 31.378906 12.816406 29.890625 11.292969 27.503906 10.710938 C 26.21875 10.394531 24.933594 10.460938 23.714844 10.929688 C 21.398438 11.820312 20.222656 13.636719 19.925781 16.015625 C 19.707031 17.789062 20.378906 19.324219 21.65625 20.535156 C 23.121094 21.925781 24.847656 22.585938 26.917969 22.128906 C 28.078125 21.871094 29.0625 21.375 29.816406 20.457031 C 30.011719 20.214844 30.136719 19.914062 30.292969 19.640625 C 30.410156 19.441406 30.496094 19.199219 30.878906 19.234375 C 30.84375 19.441406 30.839844 19.636719 30.773438 19.800781 C 30.132812 21.394531 29.097656 22.710938 27.78125 23.78125 C 25.863281 25.34375 23.601562 25.964844 21.171875 26.039062 C 20.738281 26.050781 20.304688 25.96875 19.871094 25.925781 C 19.292969 25.871094 18.707031 25.855469 18.140625 25.742188 C 15.769531 25.253906 13.652344 24.226562 11.847656 22.601562 C 10.394531 21.300781 9.125 19.828125 7.894531 18.3125 C 7.421875 17.730469 6.945312 17.140625 6.398438 16.625 C 5.339844 15.617188 4.167969 14.757812 2.820312 14.160156 C 2.007812 13.800781 1.191406 13.441406 0.324219 13.058594 C 0.320312 13.054688 0.316406 13.050781 0.308594 13.050781 C 0.296875 13.144531 0.289062 13.234375 0.277344 13.324219 C 0.230469 13.746094 0.191406 14.140625 0.125 14.53125 C 0.121094 14.550781 0.121094 14.570312 0.117188 14.589844 C -0.140625 16.179688 0.0664062 17.75 0.375 19.304688 C 0.691406 20.902344 1.28125 22.414062 2.09375 23.839844 C 2.113281 23.871094 2.132812 23.902344 2.148438 23.933594 C 2.257812 24.117188 2.363281 24.300781 2.476562 24.480469 C 2.492188 24.503906 2.503906 24.523438 2.519531 24.546875 C 2.636719 24.734375 2.761719 24.917969 2.886719 25.101562 C 2.917969 25.148438 2.949219 25.191406 2.980469 25.238281 C 3.074219 25.375 3.175781 25.507812 3.273438 25.640625 C 4 26.609375 4.828125 27.488281 5.769531 28.269531 C 5.878906 28.359375 5.984375 28.449219 6.09375 28.535156 C 6.109375 28.550781 6.125 28.5625 6.140625 28.574219 C 6.144531 28.578125 6.148438 28.582031 6.152344 28.582031 C 9.109375 30.875 12.484375 31.988281 16.207031 32.019531 C 16.230469 32.019531 16.257812 32.019531 16.28125 32.019531 C 16.40625 32.019531 16.527344 32.015625 16.652344 32.007812 C 17.296875 31.96875 17.945312 31.839844 18.589844 31.777344 C 18.976562 31.742188 19.351562 31.679688 19.726562 31.597656 C 20.589844 31.414062 21.421875 31.128906 22.234375 30.789062 C 22.265625 30.773438 22.296875 30.761719 22.332031 30.746094 C 22.363281 30.734375 22.394531 30.722656 22.425781 30.707031 C 22.46875 30.6875 22.511719 30.667969 22.554688 30.648438 C 22.621094 30.621094 22.683594 30.589844 22.746094 30.5625 C 22.832031 30.523438 22.917969 30.484375 23.003906 30.441406 C 23.007812 30.441406 23.011719 30.4375 23.019531 30.4375 C 25.320312 29.328125 27.261719 27.742188 28.839844 25.695312 C 30.152344 23.996094 31.054688 22.113281 31.601562 20.046875 C 31.855469 19.105469 31.972656 18.152344 32.085938 17.1875 C 32.144531 16.648438 32.148438 16.121094 32.074219 15.613281 "/>
</g>
<path style=" stroke:none;fill-rule:nonzero;fill:rgb(91.941833%,11.581421%,15.364075%);fill-opacity:1;" d="M 0.824219 12.394531 C 1.535156 11.800781 2.378906 11.5 3.265625 11.355469 C 3.734375 11.277344 4.234375 11.304688 4.707031 11.378906 C 5.625 11.519531 6.4375 11.976562 7.28125 12.347656 C 8.007812 12.664062 8.71875 13.023438 9.503906 13.222656 C 10.808594 13.550781 12.53125 12.894531 12.945312 11.332031 C 13.171875 10.480469 13.332031 9.636719 13.3125 8.757812 C 13.285156 7.390625 13.957031 6.367188 15.019531 5.628906 C 16.042969 4.914062 17.242188 4.523438 18.484375 4.433594 C 19.644531 4.347656 20.816406 4.3125 21.972656 4.554688 C 22.898438 4.746094 23.804688 4.988281 24.667969 5.386719 C 25.949219 5.980469 27.125 6.722656 28.21875 7.628906 C 29.222656 8.464844 30.074219 9.40625 30.78125 10.492188 C 30.992188 10.820312 31.1875 11.15625 31.449219 11.582031 C 31.417969 11.460938 31.382812 11.34375 31.347656 11.222656 C 29.75 5.582031 24.183594 0.425781 17.007812 0.0234375 C 16.890625 0.0195312 16.777344 0.0117188 16.660156 0.0078125 C 16.609375 0.0078125 16.558594 0.00390625 16.507812 0 C 16.371094 -0.00390625 16.230469 -0.00390625 16.09375 -0.00390625 C 16.007812 -0.00390625 15.921875 -0.00390625 15.835938 0 C 15.804688 0 15.773438 0 15.742188 0 C 10.191406 0.121094 5.433594 3.0625 2.679688 7.214844 C 2.015625 8.226562 1.464844 9.304688 1.050781 10.433594 C 0.792969 11.140625 0.585938 11.863281 0.4375 12.605469 C 0.613281 12.511719 0.734375 12.46875 0.824219 12.394531 "/>
<path style=" stroke:none;fill-rule:nonzero;fill:rgb(91.941833%,11.581421%,15.364075%);fill-opacity:1;" d="M 45.175781 9.722656 L 40.691406 9.722656 L 40.691406 8.101562 L 51.609375 8.101562 L 51.609375 9.722656 L 47.101562 9.722656 L 47.101562 22.851562 L 45.175781 22.851562 L 45.175781 9.722656 "/>
<path style=" stroke:none;fill-rule:nonzero;fill:rgb(91.941833%,11.581421%,15.364075%);fill-opacity:1;" d="M 52.921875 22.851562 L 52.921875 12.261719 L 54.847656 12.261719 L 54.847656 22.851562 Z M 55.066406 9.285156 C 55.089844 9.941406 54.605469 10.464844 53.839844 10.464844 C 53.160156 10.464844 52.679688 9.941406 52.679688 9.285156 C 52.679688 8.605469 53.183594 8.082031 53.882812 8.082031 C 54.605469 8.082031 55.066406 8.605469 55.066406 9.285156 "/>
<path style=" stroke:none;fill-rule:nonzero;fill:rgb(91.941833%,11.581421%,15.364075%);fill-opacity:1;" d="M 63.621094 17.445312 C 61.519531 17.402344 59.136719 17.777344 59.136719 19.832031 C 59.136719 21.078125 59.96875 21.671875 60.953125 21.671875 C 62.332031 21.671875 63.207031 20.796875 63.511719 19.898438 C 63.578125 19.703125 63.621094 19.480469 63.621094 19.285156 Z M 63.90625 22.851562 L 63.753906 21.515625 L 63.6875 21.515625 C 63.097656 22.347656 61.957031 23.09375 60.449219 23.09375 C 58.304688 23.09375 57.210938 21.582031 57.210938 20.050781 C 57.210938 17.492188 59.484375 16.089844 63.578125 16.113281 L 63.578125 15.894531 C 63.578125 15.019531 63.335938 13.441406 61.171875 13.441406 C 60.1875 13.441406 59.15625 13.75 58.414062 14.230469 L 57.976562 12.960938 C 58.851562 12.390625 60.121094 12.019531 61.457031 12.019531 C 64.695312 12.019531 65.480469 14.230469 65.480469 16.351562 L 65.480469 20.3125 C 65.480469 21.234375 65.527344 22.128906 65.65625 22.851562 L 63.90625 22.851562 "/>
<path style=" stroke:none;fill-rule:nonzero;fill:rgb(91.941833%,11.581421%,15.364075%);fill-opacity:1;" d="M 68.589844 15.128906 C 68.589844 14.035156 68.566406 13.136719 68.5 12.261719 L 70.207031 12.261719 L 70.316406 14.011719 L 70.359375 14.011719 C 70.886719 13.003906 72.109375 12.019531 73.863281 12.019531 C 75.328125 12.019531 77.601562 12.894531 77.601562 16.527344 L 77.601562 22.851562 L 75.679688 22.851562 L 75.679688 16.746094 C 75.679688 15.039062 75.042969 13.617188 73.226562 13.617188 C 71.957031 13.617188 70.972656 14.515625 70.644531 15.585938 C 70.558594 15.828125 70.515625 16.15625 70.515625 16.484375 L 70.515625 22.851562 L 68.589844 22.851562 L 68.589844 15.128906 "/>
<path style=" stroke:none;fill-rule:nonzero;fill:rgb(91.941833%,11.581421%,15.364075%);fill-opacity:1;" d="M 83.816406 8.101562 L 85.722656 8.101562 L 85.722656 17.972656 C 85.722656 21.890625 83.796875 23.09375 81.257812 23.09375 C 80.554688 23.09375 79.703125 22.941406 79.222656 22.742188 L 79.507812 21.1875 C 79.898438 21.34375 80.46875 21.472656 81.101562 21.472656 C 82.808594 21.472656 83.816406 20.707031 83.816406 17.820312 L 83.816406 8.101562 "/>
<path style=" stroke:none;fill-rule:nonzero;fill:rgb(91.941833%,11.581421%,15.364075%);fill-opacity:1;" d="M 88.828125 22.851562 L 88.828125 12.261719 L 90.753906 12.261719 L 90.753906 22.851562 Z M 90.972656 9.285156 C 90.992188 9.941406 90.511719 10.464844 89.746094 10.464844 C 89.070312 10.464844 88.585938 9.941406 88.585938 9.285156 C 88.585938 8.605469 89.089844 8.082031 89.789062 8.082031 C 90.511719 8.082031 90.972656 8.605469 90.972656 9.285156 "/>
<path style=" stroke:none;fill-rule:nonzero;fill:rgb(91.941833%,11.581421%,15.364075%);fill-opacity:1;" d="M 93.949219 15.128906 C 93.949219 14.035156 93.925781 13.136719 93.859375 12.261719 L 95.566406 12.261719 L 95.675781 14.011719 L 95.71875 14.011719 C 96.246094 13.003906 97.46875 12.019531 99.222656 12.019531 C 100.6875 12.019531 102.964844 12.894531 102.964844 16.527344 L 102.964844 22.851562 L 101.039062 22.851562 L 101.039062 16.746094 C 101.039062 15.039062 100.402344 13.617188 98.585938 13.617188 C 97.316406 13.617188 96.332031 14.515625 96.003906 15.585938 C 95.917969 15.828125 95.871094 16.15625 95.871094 16.484375 L 95.871094 22.851562 L 93.949219 22.851562 L 93.949219 15.128906 "/>
<path style=" stroke:none;fill-rule:nonzero;fill:rgb(91.941833%,11.581421%,15.364075%);fill-opacity:1;" d="M 118.015625 16.726562 L 116.570312 12.480469 C 116.242188 11.515625 116.023438 10.640625 115.808594 9.789062 L 115.761719 9.789062 C 115.542969 10.664062 115.304688 11.5625 115.019531 12.457031 L 113.574219 16.726562 Z M 113.179688 18.214844 L 111.648438 22.851562 L 109.679688 22.851562 L 114.691406 8.101562 L 116.988281 8.101562 L 122.019531 22.851562 L 119.984375 22.851562 L 118.410156 18.214844 L 113.179688 18.214844 "/>
<path style=" stroke:none;fill-rule:nonzero;fill:rgb(91.941833%,11.581421%,15.364075%);fill-opacity:1;" d="M 124.054688 22.851562 L 124.054688 12.261719 L 125.980469 12.261719 L 125.980469 22.851562 Z M 126.199219 9.285156 C 126.222656 9.941406 125.738281 10.464844 124.972656 10.464844 C 124.296875 10.464844 123.816406 9.941406 123.816406 9.285156 C 123.816406 8.605469 124.316406 8.082031 125.019531 8.082031 C 125.738281 8.082031 126.199219 8.605469 126.199219 9.285156 "/>
<path style=" stroke:none;fill-rule:nonzero;fill:rgb(91.941833%,11.581421%,15.364075%);fill-opacity:1;" d="M 129.175781 15.566406 C 129.175781 14.316406 129.152344 13.246094 129.089844 12.261719 L 130.773438 12.261719 L 130.839844 14.339844 L 130.925781 14.339844 C 131.40625 12.917969 132.566406 12.019531 133.859375 12.019531 C 134.078125 12.019531 134.230469 12.042969 134.40625 12.085938 L 134.40625 13.902344 C 134.207031 13.859375 134.011719 13.835938 133.75 13.835938 C 132.390625 13.835938 131.429688 14.863281 131.167969 16.308594 C 131.121094 16.570312 131.078125 16.878906 131.078125 17.207031 L 131.078125 22.851562 L 129.175781 22.851562 L 129.175781 15.566406 "/>
<path style=" stroke:none;fill-rule:nonzero;fill:rgb(91.941833%,11.581421%,15.364075%);fill-opacity:1;" d="M 136.417969 7.316406 L 138.34375 7.316406 L 138.34375 22.851562 L 136.417969 22.851562 L 136.417969 7.316406 "/>
<path style=" stroke:none;fill-rule:nonzero;fill:rgb(91.941833%,11.581421%,15.364075%);fill-opacity:1;" d="M 141.582031 22.851562 L 141.582031 12.261719 L 143.507812 12.261719 L 143.507812 22.851562 Z M 143.726562 9.285156 C 143.746094 9.941406 143.265625 10.464844 142.5 10.464844 C 141.820312 10.464844 141.339844 9.941406 141.339844 9.285156 C 141.339844 8.605469 141.84375 8.082031 142.542969 8.082031 C 143.265625 8.082031 143.726562 8.605469 143.726562 9.285156 "/>
<path style=" stroke:none;fill-rule:nonzero;fill:rgb(91.941833%,11.581421%,15.364075%);fill-opacity:1;" d="M 146.699219 15.128906 C 146.699219 14.035156 146.679688 13.136719 146.613281 12.261719 L 148.320312 12.261719 L 148.429688 14.011719 L 148.472656 14.011719 C 149 13.003906 150.226562 12.019531 151.976562 12.019531 C 153.441406 12.019531 155.71875 12.894531 155.71875 16.527344 L 155.71875 22.851562 L 153.789062 22.851562 L 153.789062 16.746094 C 153.789062 15.039062 153.15625 13.617188 151.339844 13.617188 C 150.070312 13.617188 149.085938 14.515625 148.757812 15.585938 C 148.671875 15.828125 148.628906 16.15625 148.628906 16.484375 L 148.628906 22.851562 L 146.699219 22.851562 L 146.699219 15.128906 "/>
<path style=" stroke:none;fill-rule:nonzero;fill:rgb(91.941833%,11.581421%,15.364075%);fill-opacity:1;" d="M 165.5625 16.527344 C 165.585938 15.300781 165.058594 13.398438 162.894531 13.398438 C 160.945312 13.398438 160.09375 15.191406 159.9375 16.527344 Z M 159.917969 17.90625 C 159.960938 20.511719 161.625 21.582031 163.550781 21.582031 C 164.929688 21.582031 165.761719 21.34375 166.480469 21.035156 L 166.808594 22.414062 C 166.132812 22.722656 164.972656 23.070312 163.285156 23.070312 C 160.027344 23.070312 158.078125 20.925781 158.078125 17.730469 C 158.078125 14.535156 159.960938 12.019531 163.046875 12.019531 C 166.503906 12.019531 167.421875 15.0625 167.421875 17.007812 C 167.421875 17.402344 167.378906 17.710938 167.359375 17.90625 L 159.917969 17.90625 "/>
<path style=" stroke:none;fill-rule:nonzero;fill:rgb(91.941833%,11.581421%,15.364075%);fill-opacity:1;" d="M 169.546875 20.882812 C 170.113281 21.253906 171.121094 21.648438 172.082031 21.648438 C 173.484375 21.648438 174.140625 20.949219 174.140625 20.074219 C 174.140625 19.152344 173.59375 18.652344 172.171875 18.125 C 170.265625 17.445312 169.371094 16.398438 169.371094 15.128906 C 169.371094 13.421875 170.746094 12.019531 173.023438 12.019531 C 174.097656 12.019531 175.035156 12.328125 175.628906 12.675781 L 175.148438 14.078125 C 174.730469 13.816406 173.964844 13.464844 172.980469 13.464844 C 171.84375 13.464844 171.207031 14.121094 171.207031 14.910156 C 171.207031 15.785156 171.84375 16.179688 173.222656 16.703125 C 175.058594 17.402344 176 18.324219 176 19.898438 C 176 21.757812 174.554688 23.070312 172.039062 23.070312 C 170.878906 23.070312 169.808594 22.785156 169.0625 22.347656 L 169.546875 20.882812 "/>
</g>
</svg>
