<svg xmlns="http://www.w3.org/2000/svg" width="176pt" height="36.4pt" viewBox="0 0 176 36.4"><defs><clipPath id="a"><path d="M115 21h12v15.398h-12Zm0 0"/></clipPath></defs><path d="M165.938 19.621c-.88 1.156-1.125 2.332-.961 3.711.585-1.176.976-2.297.96-3.71m-17.176 7.3c-1.336.067-2.614.317-3.961.915 1.52.113 2.812-.11 3.96-.914m6.843 1.688c-.796-.925-3.09-1.82-4.21-1.703.64.684 2.02 1.25 4.21 1.703m-5.16-1.379c-.742 1.157-1.039 2.418-1.183 3.82 1.355-1.01 1.886-2.769 1.183-3.82m14.575-8.132c-1.22-.2-4.653.77-5.72 1.55 2.114.13 3.9-.761 5.72-1.55m-17.301 3.746c.074 1.62 1.062 2.515 2.375 3.207.27-1.426-.68-2.703-2.375-3.207m15.941-8.758c-.105.055-.144.062-.148.078-.465 1.512.574 3.211 1.39 3.762.184.125.414.34.703.066a9.5 9.5 0 0 0-1.945-3.906m8.324 5.832c-1.136-1.195-3.183-1.605-5.12-1.016.898 1.356 3.226 1.746 5.12 1.016m-20.972 5.332c.687-.723.765-.973.597-1.734a9 9 0 0 0-.183-.723c-.422-1.348-1.543-2.074-3.07-1.93-.16.246-.352.54-.59.895 1.437.832 2.707 1.765 3.246 3.492m15.71-5.012c-.148.774-.117 1.004.321 1.418.3.282.664.492 1.004.73 1.437.997 2.906.915 4.387.118.21-.113.39-.285.617-.453l-.242-1.215c-2.141.3-4.168.402-6.086-.598m-14.554 6.125h2.61c.827-.004 1.59-.261 2.277-.695.898-.566 1.418-1.41 1.652-2.45-1.14-.316-1.93-.3-2.984-.007-1.223 1.082-2.32 2.055-3.555 3.152m-6.473 6.434c1.207-.11 1.828-.445 2.575-1.121.14-.692.285-1.363.414-2.043.12-.653.554-1.235.492-2-1.13.285-2.133.722-2.988 1.355-1.2.899-1.743 2.48-.493 3.809m22.153-15.035c.265.093.386.16.515.18.63.105 1.215-.044 1.758-.364 1.734-1.02 3.117-2.402 4.191-4.098.317-.503.598-1.039.692-1.703-.797-.062-1.465.184-2.09.532-.539.3-.992.68-1.16 1.343-.086.336-.32.649-.55.922-.958 1.16-1.93 2.305-3.356 3.188m-5.391-1.45c-.195-.019-.363-.015-.527-.054-1.067-.238-2.04.062-2.934.594-1.012.601-1.824 1.449-2.547 2.375-.027.035-.004.105-.004.164.864.886 1.34.972 2.414.449 1.153-.559 2.336-1.012 3.582-1.305.442-.105.887-.191 1.348-.293-.605-1.375-.61-1.379-1.332-1.93m4.02.645c.695-.977 1.316-1.95 1.773-3.031.457-1.07.332-2.73-1.121-3.535-.426-.235-.914-.356-1.332-.512-1.133.953-1.64 1.844-1.695 2.781.82 1.48 1.578 2.86 2.375 4.297m-2.7 8.07c.274-.492.09-1.023.125-1.539.223-1.058.446-2.117.688-3.254a10.9 10.9 0 0 0-3.176 2.141c-.469.45-.828.969-1.086 1.563-.523 1.222-.297 2.351.379 3.48a8.9 8.9 0 0 0 2.043-1.234c.406-.325.863-.614 1.027-1.157m-8.898 4.184c-1.149-.211-2.207-.68-3.293-1.234-.09.277-.18.507-.238.742-.286 1.133.004 1.75 1.05 2.277.582.29 1.207.426 1.848.348.781-.098 1.594-.078 2.281-.504.02-1.113-.199-1.395-1.117-1.496q-.265-.07-.531-.133m-9.715-2.348q.271-.075.535-.152c.547-.094 1.086-.207 1.633-.281.527-.067 1.063-.09 1.64-.14-.41-.59-.886-.923-1.55-.954-2.04-.094-3.973.281-5.742 1.332-.149.09-.266.23-.422.371.207.125.344.227.492.297.91.422 1.797.52 2.664-.137.211-.16.496-.226.75-.336m22.613-9.914c1.145-.91 2.133-1.953 2.91-3.328-1.269.617-2.539 1.984-3.07 3.164q-.135.211-.27.43.066.034.13.074.147-.17.3-.34m-14.25 7.192c-.945.37-1.59.886-2.09 1.675 1.043-.332 1.657-.796 2.133-1.632l.282-.176q-.035-.054-.075-.11c-.082.079-.168.16-.25.243m5.536-8.52c.164 0 .34.043.484-.008.965-.36 1.933-.445 2.996-.125.27-2.324.98-4.441 2.586-6.25 1.09.035 2.137.352 3.05 1.02.755.558 1.18 1.316 1.122 2.297-.02.273-.004.547-.004.875 1.117-.543 2.168-1.13 3.27-1.578 1.097-.446 2.245-.786 3.433-.93v1.008c-.266.527-.52 1.062-.805 1.586-.675 1.246-1.68 2.207-2.754 3.109l-1.777 1.484c1.824.883 3.543 1.774 3.512 4.106-.903.996-2.016 1.531-3.281 1.723-.875.128-1.723-.11-2.504-.489-.672-.324-1.301-.73-1.989-1.12-.636.675-1.015 1.546-1.48 2.355-.621 1.074-1.367 2.015-2.445 2.68-.805.5-1.707.609-2.586.792-.653-1.097-.825-2.027-.668-3.734-.645.664-1.063 1.445-1.875 1.765-.758.301-1.528.586-2.371.91.253.239.492.458.722.684.34.332.711.64 1 1.012.524.664.778 1.246.66 2.293-.539.371-1.187.512-1.828.676-.73.187-1.465.304-2.226.27-1.114-.052-1.953-.56-2.586-1.509-1.469 1.41-3.035 2.622-5.106 3.055-.746-.691-1.203-1.531-1.258-2.539-.058-1.035.637-1.734 1.305-2.477-1.937-.101-3.73-.484-5.414-1.46.399-.625.953-.989 1.55-1.282 1.184-.582 2.454-.855 3.767-.965.628-.05 1.257-.101 1.906-.156-.739-2-.91-2.816.207-4.437 1.746-.66 4.113.035 4.754 3.574.488.016.882-.258 1.308-.43.774-.308 1.532-.66 2.32-.91 1.208-.387 2.356-.203 3.446.527.035.137.078.293.113.415q.786-.925 1.606-1.895c-.082-.246-.32-.211-.536-.215-.667-.012-1.343.012-2.011-.031-1.297-.082-2.434-.527-3.29-1.621.696-1.106 1.466-2.153 2.462-3.016.105-.09.148-.25.222-.379l-.011.012c.058-.063.12-.121.18-.184l-.016.016c.187.074.343.094.351-.18l-.012.012c.172.055.325.063.348-.176l-.012.008.176-.18z" style="stroke:none;fill-rule:nonzero;fill:#418ad1;fill-opacity:1"/><path d="M148.379 10.566c-.008.059-.02.118-.027.18.238.113.468.29.718.328.871.133 1.754.297 2.63.309 1.472.015 2.94-.078 4.41-.13.175-.003.347-.026.64-.054-.617-.484-1.215-.719-1.848-.758-1.41-.086-2.828-.156-4.242-.148-.758 0-1.52.176-2.281.273m-8.164-4.386c.55 1.402 1.3 2.402 2.5 3.015 1.101.563 2.762.961 3.43.805-.188-.441-.325-.902-.57-1.293-1.223-1.926-3.173-2.332-5.36-2.527m6.863 2.105c.785-.781.777-1.668.395-2.512-.317-.699-.786-1.343-1.266-1.949-.582-.742-1.352-1.258-2.32-1.34-.828-.066-1.664-.113-2.492-.07-.454.027-.926.219-1.141.723-.207.484-.367.972-.29 1.543 2.763.465 5.317 1.277 7.114 3.605m-2.96 2.918c-.048-.086-.067-.14-.102-.18a1.3 1.3 0 0 0-.196-.156c-.949-.613-1.933-.687-3.02-.37-3.058.89-5.823 2.3-8.21 4.421-.488.434-.934.918-1.281 1.633.394.043.695.047.98.11 1.234.265 2.371-.028 3.445-.614.286-.156.582-.371.762-.633.348-.5.805-.84 1.3-1.152 1.985-1.262 4.017-2.434 6.321-3.059m5.46 4.102c.219.18.492.453.809.668 1.218.816 2.586.836 3.941.574 1.621-.317 3.106-1.02 4.492-1.914.239-.153.414-.406.61-.602-.36-.746-.711-1.367-1.403-1.8-1.398.124-2.836.328-4.273.367-1.434.039-2.871-.086-4.34-.141-.14.914-.02 1.816.164 2.848m4.18-12.586c-1.02 2.383-2.45 4.535-4.297 6.535.254 0 .367.016.473-.004 1.254-.227 2.492-.52 3.687-.973 1.45-.547 2.79-1.254 3.871-2.39 1.324-1.403 1.758-3.09 1.719-5.051-1.984.285-3.813.746-5.453 1.883m-8.414 14.715.023-4.504c-.086.05-.183.097-.265.164-1.11.886-2.223 1.765-3.317 2.668-1.11.922-1.816 2.097-2.058 3.523-.07.399-.047.824.007 1.227.168 1.234 1.028 1.98 1.97 2.718 1.726-.585 2.94-1.761 3.98-3.21-.07-.567-.145-1.145-.215-1.72a66 66 0 0 0-.125-.866m1.469-.301c.054.433-.122.922.328 1.379.199-.336.367-.61.53-.887.74-1.293.794-2.7.63-4.121-.047-.422-.281-.832-.469-1.23-.129-.282-.324-.524-.797-.465-.074.52-.152 1.054-.23 1.593-.043.121-.121.246-.121.371q-.018 1.426 0 2.844c0 .125.078.25.12.375a.3.3 0 0 0 .008.14m-2.665-4.871c-.46.16-.941.293-1.39.488-1.684.73-3.262 1.64-4.64 2.863q-.153.124-.305.254c.03.031.058.067.09.098.074-.059.148-.113.218-.172 2.14-.527 3.988-1.59 5.633-3.035.156-.14.27-.324.402-.488q.121-.034.242-.063-.024-.053-.054-.105zm3.688-3.024c.121-.039.266-.054.363-.129 1.504-1.097 2.395-2.625 3.137-4.484a11.4 11.4 0 0 0-2.316 2.46c-.473.673-.993 1.333-1.172 2.165-.04.023-.075.047-.028.016-.023.062-.004.015.016-.028m10.234 7.043c-.25.098-.511.176-.754.293-.996.485-1.976.996-3.082 1.23-1.797.38-3.48.235-5.015-1.034-1.676 3.25-4.024 5.855-7.168 7.726-.863-.488-1.68-1.012-2.352-1.73-1.312-1.418-1.55-3.016-.789-4.774.195-.453.445-.89.719-1.426-1.121.223-2.188.493-3.266.633-1.097.145-2.215.18-3.324.23-1.105.051-2.203-.074-3.41-.273.172-.355.285-.656.45-.926.964-1.55 2.347-2.664 3.866-3.62 2.078-1.31 4.332-2.227 6.645-3.02.074-.027.144-.067.273-.125-.398-.488-.797-.942-1.156-1.426-1.117-1.508-1.578-3.164-1.062-5.02.093-.343.253-.667.37-.957 3.223-1.554 6.942-1.933 9.727 3.364.496-.11.863-.457 1.238-.758.825-.668 1.61-1.379 2.418-2.055 1.204-1.004 2.47-1.89 4-2.332 1.403-.406 2.793-.343 4.165-.039.406 1.082-.5 4.098-1.473 5.348-1.172 1.508-2.719 2.5-4.543 3.305.25.183.379.324.539.39.535.23 1.078.438 1.621.645 1.398.535 2.688 1.234 3.492 2.562.309.508.492 1.09.742 1.66-.57.41-1.07.762-1.558 1.125-.121.09-.211.23-.32.344l.011-.012-.176.18.012-.008c-.176-.062-.316-.05-.347.176l.011-.012-.351.18.015-.016c-.058.063-.12.121-.18.184zM5.516 24.46c.687-1.632 1.238-3.257 1.972-4.898.125.16.192.215.215.282.559 1.527 1.11 3.05 1.676 4.617zm9.855 5.942c-.297-.359-.578-.761-.754-1.191-.37-.922-.676-1.871-1.004-2.816-1.035-3.008-2.07-6.016-3.12-9.075-.333-.113-.669-.23-.977-.336-.524.11-1.016.2-1.496.32-.504.126-.918.387-1.13.895-.94 2.278-1.89 4.555-2.831 6.836-.68 1.64-1.348 3.281-2.016 4.926-.184.441-.387.867-.898 1.074H0v1.008c.277-.016.555-.04.832-.04 1.227-.007 2.457 0 3.684-.007.21 0 .418-.055.644-.086v-.793c-.617-.219-1.422.238-1.883-.71.453-1.63 1.227-3.25 1.84-4.903H9.68c.082.219.156.394.218.574.575 1.621 1.153 3.238 1.711 4.863.239.692.707 1.032 1.426 1.059.11.004.223 0 .332 0 1.063 0 2.121.004 3.184-.004.187 0 .375-.031.652-.058a66 66 0 0 0-.035-.774c-1.176-.2-1.379-.258-1.797-.762M43.094 23.36c-.633.331-1.301.48-2.008.035-.164-2.27-.098-4.141.195-4.77.543 0 1.125-.023 1.7.012.414.02.73.289.956.617.883 1.285.47 3.414-.843 4.105m4.918 6.007c-.703-1.035-1.38-2.086-2.063-3.133-.402-.617-.797-1.238-1.18-1.84.665-.324 1.29-.562 1.836-.917.86-.563 1.551-1.297 1.653-2.387.12-1.336-.535-2.281-1.61-2.988-1.09-.72-2.328-.899-3.582-.922-2.175-.043-4.355-.016-6.53-.012-.188 0-.376.047-.587.074v.668c.766.098 1.399.332 1.77 1.043.008.09.027.2.031.309.04 3.43.078 6.86.105 10.289 0 .324-.101.652-.132.82-.446.777-1.114.817-1.778.942v.558c.66.18 6.188.18 6.918-.016l-.066-.761c-.79-.024-1.422-.188-1.727-.899-.297-1.754-.117-3.511-.175-5.316.218-.152.43-.297.69-.484.173.27.302.445.403.632.703 1.328 1.395 2.66 2.106 3.98.36.661.742 1.305 1.129 1.95.336.563.859.844 1.496.941 1.441.223 2.883.043 4.375.106.02-.27.035-.48.05-.734-1.546-.211-2.058-.317-3.132-1.903" style="stroke:none;fill-rule:nonzero;fill:#418ad1;fill-opacity:1"/><g clip-path="url(#a)"><path d="M122.23 24.61c-.027.94-.109 1.882-.218 2.816-.043.344-.196.695-.367 1.008-.422.77-.903.933-1.797.683-.489-.367-.637-.887-.657-1.46-.039-.997-.043-1.997.16-2.981.141-.707.481-1.293 1.122-1.653 1.527-.16 1.8.07 1.757 1.586m3.551-2.942c-1.246-.36-2.527-.426-3.804-.309-1.16.106-2.274.391-3.247 1.133-1.546 1.18-2.43 2.738-2.695 4.625-.176 1.262-.035 2.504.8 3.567.599.761 1.372 1.16 2.333.972.828-.164 1.57-.543 2.102-1.25.261-.351.55-.68.878-1.09.094.551.204 1.008.235 1.473.035.5.055 1.012-.02 1.504-.21 1.418-.687 2.184-2.031 2.535-.66.176-1.34.106-1.941-.234-.621-.352-1.204-.766-1.875-1.2-.352.704-.075 1.481-.168 2.18.617.727.773.817 1.593.824 1.473.016 2.856-.39 4.172-1.003 2.051-.954 3.18-2.493 3.114-4.852-.067-2.23-.024-4.465-.028-6.7-.004-.273 0-.546 0-.863.406-.164.758-.304 1.149-.464.007-.164.02-.352.03-.578-.14-.083-.21-.13-.284-.16a3 3 0 0 0-.313-.11" style="stroke:none;fill-rule:nonzero;fill:#418ad1;fill-opacity:1"/></g><path d="M113.922 31.02c-.375-.293-.442-.637-.426-1.016.031-.637.078-1.274.086-1.91.016-1.172.008-2.344.008-3.516 0-.504.035-1.008-.004-1.508-.07-.918-.356-1.828-1.84-1.738-1.086.063-2.039.48-2.93 1.078-.277.188-.55.387-.906.64v-1.616l-.441-.5c-.528.136-1.055.289-1.59.398a19 19 0 0 1-1.64.262c-.54.062-1.087.082-1.657.125l.05.86c.622.183 1.294-.169 1.813.394v8.289l.508.597h2.39c.391-.261.434-.582.438-.93.031-1.726.074-3.452.11-5.175.004-.223.004-.445.004-.578.449-.934.945-1.684 1.933-1.836.582.183.652.61.652 1.082.004 1.898.02 3.797.004 5.691-.004.762.211 1.367.934 1.703 1.152.286 2.328.16 3.492.176.188.004.375-.07.559-.133.066-.023.117-.105.238-.218-.082-.196-.176-.403-.27-.621zM57.48 27.117c-.023.774-.488 1.34-1.054 1.82-.168.141-.367.25-.625.422h-.66c-.078-.062-.16-.101-.203-.168-.102-.164-.227-.328-.266-.511-.317-1.489-.383-2.985.16-4.43.406-1.09.848-1.309 2.133-1.234l.523.566c0 1.195.028 2.363-.008 3.535m3.254 3.45c-.14-.856-.101-7.184.059-7.852.266-.098.57-.207.883-.317.035-.18.07-.363.105-.527-.105-.09-.164-.168-.234-.187-1.758-.5-3.55-.735-5.348-.317-1.52.352-2.883 1.035-3.75 2.43-1.261 2.031-1.265 4.219-.687 6.433.234.899.804 1.555 1.836 1.715.8.121 1.507-.027 2.093-.547.496-.441.91-.976 1.364-1.468.035-.035.093-.047.191-.09l.426.265v.293c-.024 1.055.203 1.38 1.234 1.48.996.099 2 .09 3 .118.215.008.43-.031.668-.055v-1.14c-.648-.207-1.293.113-1.84-.235M133.223 26.918c-.047 1.117-.743 1.824-1.641 2.348-.2.117-.473.097-.621.12-.512-.238-.645-.652-.676-1.011-.105-1.242-.215-2.496.102-3.734.332-1.286.87-1.688 2.226-1.645.528.297.617.777.63 1.246a38 38 0 0 1-.02 2.676m3.28 3.8c-.089-.226-.202-.378-.198-.53.03-2.477.078-4.95.125-7.477.336-.11.64-.207.968-.316v-.665c-1.82-.535-3.652-.777-5.503-.363-2.153.48-3.711 1.7-4.434 3.848-.512 1.523-.48 3.082-.16 4.613.191.93.68 1.77 1.738 2.055 1.047.281 1.922-.02 2.664-.746.36-.348.656-.754.984-1.133.055-.059.13-.098.22-.168.163.086.331.172.488.25-.13 1.309.109 1.707 1.414 1.84 1.12.117 2.265.027 3.441.027V30.72zM98.7 28.535c-.13.809-.442 1.39-1.102 1.969-.13.012-.239.023-.348.027-.11.004-.223-.008-.328-.011a1.17 1.17 0 0 1-.688-.895c-.246-1.309-.484-2.613-.222-3.953.09-.461.113-.934.199-1.395.105-.597.394-1.09 1.004-1.441h1.015c.582.36.606.988.63 1.543.058 1.387.058 2.777-.16 4.156m-.923-7.484c-1.492-.016-2.71.726-3.629 1.914-1.488 1.918-1.859 4.066-1.183 6.37.328 1.122 1.058 1.95 2.234 2.274.504.137 1.028.2 1.543.293 1.746.305 3.106-.394 4.153-1.726.867-1.11 1.246-2.406 1.222-3.828-.078-.692-.11-1.387-.242-2.067-.453-2.39-2.031-3.207-4.098-3.23M79.105 28.984c-.097.368-.246.746-.468 1.051-.547.746-1.403.633-1.774-.207-.09-.203-.199-.414-.215-.629-.117-1.629-.375-3.262.094-4.883.238-.82.274-.914 1.031-1.496h1.012c.582.414.613 1.035.633 1.598.055 1.527.082 3.066-.313 4.566m1.442-7.449c-2.074-1.05-4.2-.457-5.606 1.113-1.625 1.817-2.093 4.016-1.507 6.38.347 1.421 1.238 2.41 2.754 2.687.46.086.93.137 1.398.18 1.523.152 2.754-.399 3.723-1.57.972-1.169 1.37-2.52 1.363-4.024-.078-.692-.11-1.387-.246-2.067-.23-1.156-.758-2.132-1.88-2.699M89.914 30.863c-.855-.203-1.215-.71-1.316-1.441-.032-.219-.07-.438-.075-.656a816 816 0 0 1-.043-5.356c0-.191.04-.383.055-.531.3-.332.637-.414 1.02-.399.36.016.726.032 1.086 0 .289-.027.57-.132.812-.19.117-.407.156-.704-.18-.923-.878-.215-1.796.235-2.601-.433V18.48c-.258-.453-.578-.554-.926-.48-.48.102-.965.23-1.426.406-.554.207-.808.64-.789 1.242.016.442.004.883.004 1.25-.687.75-1.543.18-2.23.52-.258.309-.258.633.03 1.055.575.07 1.2.144 1.817.222.446.477.309 1.059.305 1.602-.02 1.808-.129 3.621-.074 5.426.039 1.312.66 1.992 2.047 2.18 1.136.156 2.199-.071 3.254-.407.425-.137.796-.39 1.078-.86l-.348-.421c-.578.25-1.082.469-1.5.648M30.668 21.969c-.39.355-.738.758-1.121 1.125-.125.113-.3.176-.477.273-.336-.805.2-1.71-.543-2.418-.777.18-1.574.403-2.382.535-.813.13-1.641.164-2.473.243v.902h1.285c.594.266.547.672.547 1.066q-.013 3.305-.02 6.61c0 .277-.011.562.028.836.054.386.277.703.68.73.773.059 1.55.09 2.25-.02.367-.378.39-.761.386-1.156 0-1.258.024-2.511.004-3.765-.012-.63.129-1.2.363-1.774.313-.761.797-1.25 1.625-1.328.453.172.887.336 1.32.504 1.145-.7 1.114-1.805 1.208-2.855-.168-.18-.301-.317-.438-.461-.914-.043-1.613.386-2.242.953M71.719 21.047c-.414.144-.84.32-1.184.582-.508.387-.96.844-1.406 1.3-.195.204-.352.419-.66.391-.551-.707.101-1.636-.524-2.379-.8.188-1.593.41-2.406.543-.812.13-1.64.164-2.492.243.004.324-.094.62.062.875.61.148 1.286-.207 1.778.398 0 .297.004.605 0 .91-.004 2.207-.016 4.41-.004 6.617 0 .375.094.75.148 1.137.957.422 1.875.184 2.684.219.508-.278.504-.676.504-1.07.004-1.368-.008-2.739.015-4.106.02-1.035.336-1.96 1.188-2.672l.762-.223 1.195.465c.516-.101.844-.382.984-.789.235-.675.485-1.363.32-2.039-.242-.457-.601-.531-.964-.402M21.98 25.871c.016-1.363.063-2.726.102-4.09.012-.332-.094-.597-.523-.851-1.473.472-3.098.718-4.75.77v.94c.336 0 .64-.023.937.008.285.032.567.118.89.192v1.168q-.003 3.177-.019 6.355c0 .426.004.84.344 1.239.332.27.781.39 1.262.394 1.03.012 2.062.008 3.093 0 .13 0 .262-.062.414-.101v-1.153c-.59-.156-1.23.133-1.753-.418 0-1.449-.016-2.953.003-4.453M19.262 20.105c1.89.102 2.933-1.074 2.593-2.984-.21-.2-.468-.441-.632-.59-1.125-.281-1.871.106-2.457.875-.778 1.016-.614 1.953.496 2.7" style="stroke:none;fill-rule:nonzero;fill:#418ad1;fill-opacity:1"/><path d="M166.477 16.957c-.797-1.437-1.555-2.816-2.375-4.297.054-.937.562-1.828 1.695-2.781.418.156.906.277 1.332.512 1.453.804 1.578 2.464 1.121 3.535-.457 1.082-1.078 2.054-1.773 3.031M163.777 25.027c-.164.543-.62.832-1.027 1.157a8.9 8.9 0 0 1-2.043 1.234c-.676-1.129-.902-2.258-.379-3.48a4.8 4.8 0 0 1 1.086-1.563c.91-.879 1.93-1.582 3.176-2.14-.242 1.136-.465 2.195-.688 3.253-.285.492-.097 1.028-.125 1.54M162.457 16.313c.723.55.727.554 1.332 1.93-.46.1-.906.187-1.348.292-1.246.293-2.43.746-3.582 1.305-1.074.523-1.55.437-2.414-.45 0-.058-.023-.128.004-.163.723-.926 1.535-1.774 2.547-2.375.895-.532 1.867-.832 2.934-.594.164.039.332.035.527.055M167.848 17.762c1.425-.883 2.398-2.028 3.355-3.188.23-.273.465-.586.55-.922.169-.664.622-1.043 1.161-1.343.625-.348 1.293-.594 2.09-.532-.094.664-.375 1.2-.691 1.703-1.075 1.696-2.458 3.079-4.192 4.098-.543.32-1.129.469-1.758.363-.129-.02-.25-.086-.515-.18M145.695 32.797c-1.25-1.328-.707-2.91.493-3.809.855-.633 1.859-1.07 2.988-1.355.062.765-.371 1.347-.492 2-.13.68-.274 1.351-.414 2.043-.747.676-1.368 1.012-2.575 1.12M152.168 26.363c1.234-1.097 2.332-2.07 3.555-3.152 1.054-.293 1.843-.309 2.984.008-.234 1.039-.754 1.883-1.652 2.449-.688.434-1.45.691-2.278.695zM155.41 29.344c.918.101 1.137.383 1.117 1.496-.687.426-1.5.406-2.28.504-.642.078-1.267-.059-1.849-.348-1.046-.527-1.335-1.144-1.05-2.277.058-.235.148-.465.238-.742 1.086.554 2.144 1.023 3.293 1.234.125.254.344.133.531.133M166.723 20.238c1.918 1 3.945.899 6.086.598.078.387.156.777.242 1.215-.227.168-.406.34-.617.453-1.48.797-2.95.879-4.387-.117-.34-.239-.703-.45-1.004-.73-.438-.415-.469-.645-.32-1.419M145.164 26.863c-.254.11-.539.176-.75.336-.867.656-1.754.559-2.664.137-.148-.07-.285-.172-.492-.297.156-.14.273-.281.422-.371 1.77-1.05 3.703-1.426 5.742-1.332.664.031 1.14.363 1.55.953-.577.05-1.113.074-1.64.14-.547.075-1.086.188-1.633.282-.191 0-.43-.16-.535.152M151.012 25.25c-.54-1.727-1.809-2.66-3.246-3.492.238-.356.43-.649.59-.895 1.527-.144 2.648.582 3.07 1.93.074.238.129.48.183.723.168.761.09 1.011-.597 1.734M171.984 19.918c-1.894.73-4.222.34-5.12-1.016 1.937-.59 3.984-.18 5.12 1.016M163.66 14.086a9.5 9.5 0 0 1 1.945 3.906c-.289.274-.52.059-.703-.066-.816-.551-1.855-2.25-1.39-3.762.004-.016.043-.023.148-.078" style="stroke:none;fill-rule:nonzero;fill:#ee219b;fill-opacity:1"/><path d="M147.719 22.844c1.695.504 2.644 1.781 2.375 3.207-1.313-.692-2.301-1.586-2.375-3.207M165.02 19.098c-1.82.789-3.606 1.68-5.72 1.55 1.067-.78 4.5-1.75 5.72-1.55M150.445 27.23c.703 1.051.172 2.81-1.183 3.82.144-1.402.441-2.663 1.183-3.82M155.605 28.61c-2.19-.454-3.57-1.02-4.21-1.704 1.12-.117 3.414.778 4.21 1.703M167.617 16.785c.531-1.18 1.801-2.547 3.07-3.164-.777 1.375-1.765 2.418-2.91 3.328q-.08-.082-.16-.164M148.762 26.922c-1.149.805-2.442 1.027-3.961.914 1.347-.598 2.625-.848 3.96-.914M165.938 19.621c.015 1.414-.375 2.535-.961 3.711-.165-1.379.082-2.555.96-3.71M153.57 24.184c-.476.836-1.09 1.3-2.132 1.632.5-.789 1.144-1.304 2.09-1.675z" style="stroke:none;fill-rule:nonzero;fill:#ee219b;fill-opacity:1"/><path d="M163.777 25.027c.028-.511-.16-1.047.125-1.539-.035.516.149 1.047-.125 1.54M167.617 16.785l.16.164q-.153.17-.3.34a2 2 0 0 0-.13-.074q.135-.219.27-.43M145.164 26.863c.106-.312.344-.152.535-.152q-.264.076-.535.152M155.41 29.344c-.187 0-.406.12-.531-.133q.265.063.531.133M153.527 24.14c.082-.081.168-.163.25-.242q.04.056.075.11l-.282.176z" style="stroke:none;fill-rule:nonzero;fill:#c34dad;fill-opacity:1"/><path d="M145.469 18.3c.07.575.144 1.153.215 1.72-1.04 1.449-2.254 2.625-3.98 3.21-.942-.738-1.802-1.484-1.97-2.718-.054-.403-.078-.828-.007-1.227.242-1.426.949-2.601 2.058-3.523 1.094-.903 2.207-1.782 3.317-2.668.082-.067.18-.114.265-.164l-.023 4.504c.02.293-.149.609.125.867M153.758 2.719c1.64-1.137 3.469-1.598 5.453-1.883.039 1.96-.395 3.648-1.719 5.05-1.082 1.137-2.422 1.844-3.87 2.391-1.196.453-2.435.746-3.688.973-.106.02-.22.004-.473.004 1.848-2 3.277-4.152 4.297-6.535M149.578 15.305c-.183-1.032-.305-1.934-.164-2.848 1.469.055 2.906.18 4.34.14 1.437-.038 2.875-.242 4.273-.367.692.434 1.043 1.055 1.403 1.801-.196.196-.371.45-.61.602-1.386.894-2.87 1.597-4.492 1.914-1.355.262-2.723.242-3.941-.574-.317-.215-.59-.489-.809-.668M144.117 11.203c-2.304.625-4.336 1.797-6.32 3.059-.496.312-.953.652-1.3 1.152-.18.262-.477.477-.763.633-1.074.586-2.21.879-3.445.613-.285-.062-.586-.066-.98-.11.347-.714.793-1.198 1.28-1.632 2.388-2.121 5.153-3.531 8.212-4.422 1.086-.316 2.07-.242 3.02.371q.106.07.195.156c.035.04.054.094.101.18M147.078 8.285c-1.797-2.328-4.351-3.14-7.113-3.605-.078-.57.082-1.059.289-1.543.215-.504.687-.696 1.14-.723.829-.043 1.665.004 2.493.07.968.082 1.738.598 2.32 1.34.48.606.95 1.25 1.266 1.95.382.843.39 1.73-.395 2.511M140.215 6.18c2.187.195 4.137.601 5.36 2.527.245.39.382.852.57 1.293-.668.156-2.329-.242-3.43-.805-1.2-.613-1.95-1.613-2.5-3.015M146.805 13.402l.23-1.593c.473-.059.668.183.797.464.188.399.422.809.469 1.23.164 1.423.11 2.829-.63 4.122-.187.117-.374.23-.542.336-.27-.273.078-.676-.316-.828a.3.3 0 0 1-.008-.14zM148.379 10.566c.762-.097 1.523-.273 2.281-.273 1.414-.008 2.832.062 4.242.148.633.04 1.23.274 1.848.758-.293.028-.465.051-.64.055-1.47.05-2.938.144-4.41.129-.876-.012-1.759-.176-2.63-.309-.25-.039-.48-.215-.718-.328.007-.062.02-.121.027-.18M138.117 15.613c1.38-1.222 2.957-2.133 4.64-2.863.45-.195.93-.328 1.391-.488l.008.008c-.133.164-.246.347-.402.488-1.645 1.445-3.492 2.508-5.633 3.035 0-.059-.004-.121-.004-.18M147.848 9.25c.18-.832.699-1.492 1.172-2.164a11.4 11.4 0 0 1 2.316-2.461c-.742 1.86-1.633 3.387-3.137 4.484-.097.075-.242.09-.363.13z" style="stroke:none;fill-rule:nonzero;fill:#ee219b;fill-opacity:1"/><path d="M146.805 13.402v3.59c-.043-.125-.121-.25-.121-.375q-.018-1.418 0-2.844c0-.125.078-.25.12-.37M146.813 17.133c.394.152.046.555.316.828.168-.106.355-.219.543-.336-.164.277-.332.55-.531.887-.45-.457-.274-.946-.328-1.38M145.469 18.3c-.274-.257-.106-.573-.125-.866q.066.433.125.867M138.117 15.613c0 .059.004.121.004.18-.07.059-.144.113-.219.172-.03-.031-.058-.067-.09-.098q.153-.13.305-.254" style="stroke:none;fill-rule:nonzero;fill:#c34dad;fill-opacity:1"/><path d="m144.148 12.262.196-.16q.03.053.054.105c-.082.02-.16.04-.242.063zM147.836 9.238c-.02.043-.04.09-.016.028-.047.03-.011.007.028-.016z" style="stroke:none;fill-rule:nonzero;fill:#ee219b;fill-opacity:1"/></svg>