<?xml version="1.0" encoding="UTF-8"?>
<svg xmlns="http://www.w3.org/2000/svg" xmlns:xlink="http://www.w3.org/1999/xlink" width="176pt" height="36.4pt" viewBox="0 0 176 36.4" version="1.1">
<defs>
<clipPath id="clip1">
  <path d="M 115 21 L 127 21 L 127 36.398438 L 115 36.398438 Z M 115 21 "/>
</clipPath>
</defs>
<g id="surface1">
<path style=" stroke:none;fill-rule:nonzero;fill:rgb(25.480652%,54.025269%,81.784058%);fill-opacity:1;" d="M 165.9375 19.621094 C 165.058594 20.777344 164.8125 21.953125 164.976562 23.332031 C 165.5625 22.15625 165.953125 21.035156 165.9375 19.621094 Z M 148.761719 26.921875 C 147.425781 26.988281 146.148438 27.238281 144.800781 27.835938 C 146.320312 27.949219 147.613281 27.726562 148.761719 26.921875 Z M 155.605469 28.609375 C 154.808594 27.683594 152.515625 26.789062 151.394531 26.90625 C 152.035156 27.589844 153.414062 28.15625 155.605469 28.609375 Z M 150.445312 27.230469 C 149.703125 28.386719 149.40625 29.648438 149.261719 31.050781 C 150.617188 30.039062 151.148438 28.28125 150.445312 27.230469 Z M 165.019531 19.097656 C 163.800781 18.898438 160.367188 19.867188 159.300781 20.648438 C 161.414062 20.777344 163.199219 19.886719 165.019531 19.097656 Z M 147.71875 22.84375 C 147.792969 24.464844 148.78125 25.359375 150.09375 26.050781 C 150.363281 24.625 149.414062 23.347656 147.71875 22.84375 Z M 163.660156 14.085938 C 163.554688 14.140625 163.515625 14.148438 163.511719 14.164062 C 163.046875 15.675781 164.085938 17.375 164.902344 17.925781 C 165.085938 18.050781 165.316406 18.265625 165.605469 17.992188 C 165.257812 16.542969 164.613281 15.234375 163.660156 14.085938 Z M 171.984375 19.917969 C 170.847656 18.722656 168.800781 18.3125 166.863281 18.902344 C 167.761719 20.257812 170.089844 20.648438 171.984375 19.917969 Z M 151.011719 25.25 C 151.699219 24.527344 151.777344 24.277344 151.609375 23.515625 C 151.554688 23.273438 151.5 23.03125 151.425781 22.792969 C 151.003906 21.445312 149.882812 20.71875 148.355469 20.863281 C 148.195312 21.109375 148.003906 21.402344 147.765625 21.757812 C 149.203125 22.589844 150.472656 23.523438 151.011719 25.25 Z M 166.722656 20.238281 C 166.574219 21.011719 166.605469 21.242188 167.042969 21.65625 C 167.34375 21.9375 167.707031 22.148438 168.046875 22.386719 C 169.484375 23.382812 170.953125 23.300781 172.433594 22.503906 C 172.644531 22.390625 172.824219 22.21875 173.050781 22.050781 C 172.964844 21.613281 172.886719 21.222656 172.808594 20.835938 C 170.667969 21.136719 168.640625 21.238281 166.722656 20.238281 Z M 152.167969 26.363281 C 153.109375 26.363281 153.941406 26.363281 154.777344 26.363281 C 155.605469 26.359375 156.367188 26.101562 157.054688 25.667969 C 157.953125 25.101562 158.472656 24.257812 158.707031 23.21875 C 157.566406 22.902344 156.777344 22.917969 155.722656 23.210938 C 154.5 24.292969 153.402344 25.265625 152.167969 26.363281 Z M 145.695312 32.796875 C 146.902344 32.6875 147.523438 32.351562 148.269531 31.675781 C 148.410156 30.984375 148.554688 30.3125 148.683594 29.632812 C 148.804688 28.980469 149.238281 28.398438 149.175781 27.632812 C 148.046875 27.917969 147.042969 28.355469 146.1875 28.988281 C 144.988281 29.886719 144.445312 31.46875 145.695312 32.796875 Z M 167.847656 17.761719 C 168.113281 17.855469 168.234375 17.921875 168.363281 17.941406 C 168.992188 18.046875 169.578125 17.898438 170.121094 17.578125 C 171.855469 16.558594 173.238281 15.175781 174.3125 13.480469 C 174.628906 12.976562 174.910156 12.441406 175.003906 11.777344 C 174.207031 11.714844 173.539062 11.960938 172.914062 12.308594 C 172.375 12.609375 171.921875 12.988281 171.753906 13.652344 C 171.667969 13.988281 171.433594 14.300781 171.203125 14.574219 C 170.246094 15.734375 169.273438 16.878906 167.847656 17.761719 Z M 162.457031 16.3125 C 162.261719 16.292969 162.09375 16.296875 161.929688 16.257812 C 160.863281 16.019531 159.890625 16.320312 158.996094 16.851562 C 157.984375 17.453125 157.171875 18.300781 156.449219 19.226562 C 156.421875 19.261719 156.445312 19.332031 156.445312 19.390625 C 157.308594 20.277344 157.785156 20.363281 158.859375 19.839844 C 160.011719 19.28125 161.195312 18.828125 162.441406 18.535156 C 162.882812 18.429688 163.328125 18.34375 163.789062 18.242188 C 163.183594 16.867188 163.179688 16.863281 162.457031 16.3125 Z M 166.476562 16.957031 C 167.171875 15.980469 167.792969 15.007812 168.25 13.925781 C 168.707031 12.855469 168.582031 11.195312 167.128906 10.390625 C 166.703125 10.15625 166.214844 10.035156 165.796875 9.878906 C 164.664062 10.832031 164.15625 11.722656 164.101562 12.660156 C 164.921875 14.140625 165.679688 15.519531 166.476562 16.957031 Z M 163.777344 25.027344 C 164.050781 24.535156 163.867188 24.003906 163.902344 23.488281 C 164.125 22.429688 164.347656 21.371094 164.589844 20.234375 C 163.34375 20.792969 162.324219 21.496094 161.414062 22.375 C 160.945312 22.824219 160.585938 23.34375 160.328125 23.9375 C 159.804688 25.160156 160.03125 26.289062 160.707031 27.417969 C 161.488281 27.078125 162.144531 26.667969 162.75 26.183594 C 163.15625 25.859375 163.613281 25.570312 163.777344 25.027344 Z M 154.878906 29.210938 C 153.730469 29 152.671875 28.53125 151.585938 27.976562 C 151.496094 28.253906 151.40625 28.484375 151.347656 28.71875 C 151.0625 29.851562 151.351562 30.46875 152.398438 30.996094 C 152.980469 31.285156 153.605469 31.421875 154.246094 31.34375 C 155.027344 31.246094 155.839844 31.265625 156.527344 30.839844 C 156.546875 29.726562 156.328125 29.445312 155.410156 29.34375 C 155.234375 29.296875 155.054688 29.253906 154.878906 29.210938 Z M 145.164062 26.863281 C 145.34375 26.8125 145.523438 26.761719 145.699219 26.710938 C 146.246094 26.617188 146.785156 26.503906 147.332031 26.429688 C 147.859375 26.363281 148.394531 26.339844 148.972656 26.289062 C 148.5625 25.699219 148.085938 25.367188 147.421875 25.335938 C 145.382812 25.242188 143.449219 25.617188 141.679688 26.667969 C 141.53125 26.757812 141.414062 26.898438 141.257812 27.039062 C 141.464844 27.164062 141.601562 27.265625 141.75 27.335938 C 142.660156 27.757812 143.546875 27.855469 144.414062 27.199219 C 144.625 27.039062 144.910156 26.972656 145.164062 26.863281 Z M 167.777344 16.949219 C 168.921875 16.039062 169.910156 14.996094 170.6875 13.621094 C 169.417969 14.238281 168.148438 15.605469 167.617188 16.785156 C 167.527344 16.925781 167.4375 17.070312 167.347656 17.214844 C 167.390625 17.238281 167.433594 17.261719 167.476562 17.289062 C 167.574219 17.175781 167.675781 17.0625 167.777344 16.949219 Z M 153.527344 24.140625 C 152.582031 24.511719 151.9375 25.027344 151.4375 25.816406 C 152.480469 25.484375 153.09375 25.019531 153.570312 24.183594 C 153.664062 24.125 153.757812 24.066406 153.851562 24.007812 C 153.828125 23.972656 153.804688 23.933594 153.777344 23.898438 C 153.695312 23.976562 153.609375 24.058594 153.527344 24.140625 Z M 159.0625 15.621094 C 159.226562 15.621094 159.402344 15.664062 159.546875 15.613281 C 160.511719 15.253906 161.480469 15.167969 162.542969 15.488281 C 162.8125 13.164062 163.523438 11.046875 165.128906 9.238281 C 166.21875 9.273438 167.265625 9.589844 168.179688 10.257812 C 168.933594 10.816406 169.359375 11.574219 169.300781 12.554688 C 169.28125 12.828125 169.296875 13.101562 169.296875 13.429688 C 170.414062 12.886719 171.464844 12.300781 172.566406 11.851562 C 173.664062 11.40625 174.8125 11.066406 176 10.921875 C 176 11.257812 176 11.59375 176 11.929688 C 175.734375 12.457031 175.480469 12.992188 175.195312 13.515625 C 174.519531 14.761719 173.515625 15.722656 172.441406 16.625 C 171.871094 17.101562 171.300781 17.578125 170.664062 18.109375 C 172.488281 18.992188 174.207031 19.882812 174.175781 22.214844 C 173.273438 23.210938 172.160156 23.746094 170.894531 23.9375 C 170.019531 24.066406 169.171875 23.828125 168.390625 23.449219 C 167.71875 23.125 167.089844 22.71875 166.402344 22.328125 C 165.765625 23.003906 165.386719 23.875 164.921875 24.683594 C 164.300781 25.757812 163.554688 26.699219 162.476562 27.363281 C 161.671875 27.863281 160.769531 27.972656 159.890625 28.15625 C 159.238281 27.058594 159.066406 26.128906 159.222656 24.421875 C 158.578125 25.085938 158.160156 25.867188 157.347656 26.1875 C 156.589844 26.488281 155.820312 26.773438 154.976562 27.097656 C 155.230469 27.335938 155.46875 27.554688 155.699219 27.78125 C 156.039062 28.113281 156.410156 28.421875 156.699219 28.792969 C 157.222656 29.457031 157.476562 30.039062 157.359375 31.085938 C 156.820312 31.457031 156.171875 31.597656 155.53125 31.761719 C 154.800781 31.949219 154.066406 32.066406 153.304688 32.03125 C 152.191406 31.980469 151.351562 31.472656 150.71875 30.523438 C 149.25 31.933594 147.683594 33.144531 145.613281 33.578125 C 144.867188 32.886719 144.410156 32.046875 144.355469 31.039062 C 144.296875 30.003906 144.992188 29.304688 145.660156 28.5625 C 143.722656 28.460938 141.929688 28.078125 140.246094 27.101562 C 140.644531 26.476562 141.199219 26.113281 141.796875 25.820312 C 142.980469 25.238281 144.25 24.964844 145.5625 24.855469 C 146.191406 24.804688 146.820312 24.753906 147.46875 24.699219 C 146.730469 22.699219 146.558594 21.882812 147.675781 20.261719 C 149.421875 19.601562 151.789062 20.296875 152.429688 23.835938 C 152.917969 23.851562 153.3125 23.578125 153.738281 23.40625 C 154.511719 23.097656 155.269531 22.746094 156.058594 22.496094 C 157.265625 22.109375 158.414062 22.292969 159.503906 23.023438 C 159.539062 23.160156 159.582031 23.316406 159.617188 23.4375 C 160.140625 22.820312 160.675781 22.191406 161.222656 21.542969 C 161.140625 21.296875 160.902344 21.332031 160.6875 21.328125 C 160.019531 21.316406 159.34375 21.339844 158.675781 21.296875 C 157.378906 21.214844 156.242188 20.769531 155.386719 19.675781 C 156.082031 18.570312 156.851562 17.523438 157.847656 16.660156 C 157.953125 16.570312 157.996094 16.410156 158.070312 16.28125 L 158.058594 16.292969 C 158.117188 16.230469 158.179688 16.171875 158.238281 16.109375 L 158.222656 16.125 C 158.410156 16.199219 158.566406 16.21875 158.574219 15.945312 L 158.5625 15.957031 C 158.734375 16.011719 158.886719 16.019531 158.910156 15.78125 L 158.898438 15.789062 C 158.957031 15.730469 159.015625 15.667969 159.074219 15.609375 L 159.0625 15.621094 "/>
<path style=" stroke:none;fill-rule:nonzero;fill:rgb(25.480652%,54.025269%,81.784058%);fill-opacity:1;" d="M 148.378906 10.566406 C 148.371094 10.625 148.359375 10.683594 148.351562 10.746094 C 148.589844 10.859375 148.820312 11.035156 149.070312 11.074219 C 149.941406 11.207031 150.824219 11.371094 151.699219 11.382812 C 153.171875 11.398438 154.640625 11.304688 156.109375 11.253906 C 156.285156 11.25 156.457031 11.226562 156.75 11.199219 C 156.132812 10.714844 155.535156 10.480469 154.902344 10.441406 C 153.492188 10.355469 152.074219 10.285156 150.660156 10.292969 C 149.902344 10.292969 149.140625 10.46875 148.378906 10.566406 Z M 140.214844 6.179688 C 140.765625 7.582031 141.515625 8.582031 142.714844 9.195312 C 143.816406 9.757812 145.476562 10.15625 146.144531 10 C 145.957031 9.558594 145.820312 9.097656 145.574219 8.707031 C 144.351562 6.78125 142.402344 6.375 140.214844 6.179688 Z M 147.078125 8.285156 C 147.863281 7.503906 147.855469 6.617188 147.472656 5.773438 C 147.15625 5.074219 146.6875 4.429688 146.207031 3.824219 C 145.625 3.082031 144.855469 2.566406 143.886719 2.484375 C 143.058594 2.417969 142.222656 2.371094 141.394531 2.414062 C 140.941406 2.441406 140.46875 2.632812 140.253906 3.136719 C 140.046875 3.621094 139.886719 4.109375 139.964844 4.679688 C 142.726562 5.144531 145.28125 5.957031 147.078125 8.285156 Z M 144.117188 11.203125 C 144.070312 11.117188 144.050781 11.0625 144.015625 11.023438 C 143.957031 10.964844 143.890625 10.914062 143.820312 10.867188 C 142.871094 10.253906 141.886719 10.179688 140.800781 10.496094 C 137.742188 11.386719 134.976562 12.796875 132.589844 14.917969 C 132.101562 15.351562 131.65625 15.835938 131.308594 16.550781 C 131.703125 16.59375 132.003906 16.597656 132.289062 16.660156 C 133.523438 16.925781 134.660156 16.632812 135.734375 16.046875 C 136.019531 15.890625 136.316406 15.675781 136.496094 15.414062 C 136.84375 14.914062 137.300781 14.574219 137.796875 14.261719 C 139.78125 13 141.8125 11.828125 144.117188 11.203125 Z M 149.578125 15.304688 C 149.796875 15.484375 150.070312 15.757812 150.386719 15.972656 C 151.605469 16.789062 152.972656 16.808594 154.328125 16.546875 C 155.949219 16.230469 157.433594 15.527344 158.820312 14.632812 C 159.058594 14.480469 159.234375 14.226562 159.429688 14.03125 C 159.070312 13.285156 158.71875 12.664062 158.027344 12.230469 C 156.628906 12.355469 155.191406 12.558594 153.753906 12.597656 C 152.320312 12.636719 150.882812 12.511719 149.414062 12.457031 C 149.273438 13.371094 149.394531 14.273438 149.578125 15.304688 Z M 153.757812 2.71875 C 152.738281 5.101562 151.308594 7.253906 149.460938 9.253906 C 149.714844 9.253906 149.828125 9.269531 149.933594 9.25 C 151.1875 9.023438 152.425781 8.730469 153.621094 8.277344 C 155.070312 7.730469 156.410156 7.023438 157.492188 5.886719 C 158.816406 4.484375 159.25 2.796875 159.210938 0.835938 C 157.226562 1.121094 155.398438 1.582031 153.757812 2.71875 Z M 145.34375 17.433594 C 145.351562 15.941406 145.359375 14.449219 145.367188 12.929688 C 145.28125 12.980469 145.183594 13.027344 145.101562 13.09375 C 143.992188 13.980469 142.878906 14.859375 141.785156 15.761719 C 140.675781 16.683594 139.96875 17.859375 139.726562 19.285156 C 139.65625 19.683594 139.679688 20.109375 139.734375 20.511719 C 139.902344 21.746094 140.761719 22.492188 141.703125 23.230469 C 143.429688 22.644531 144.644531 21.46875 145.683594 20.019531 C 145.613281 19.453125 145.539062 18.875 145.46875 18.300781 C 145.429688 18.011719 145.386719 17.722656 145.34375 17.433594 Z M 146.8125 17.132812 C 146.867188 17.566406 146.691406 18.054688 147.140625 18.511719 C 147.339844 18.175781 147.507812 17.902344 147.671875 17.625 C 148.410156 16.332031 148.464844 14.925781 148.300781 13.503906 C 148.253906 13.082031 148.019531 12.671875 147.832031 12.273438 C 147.703125 11.992188 147.507812 11.75 147.035156 11.808594 C 146.960938 12.328125 146.882812 12.863281 146.804688 13.402344 C 146.761719 13.523438 146.683594 13.648438 146.683594 13.773438 C 146.671875 14.722656 146.671875 15.671875 146.683594 16.617188 C 146.683594 16.742188 146.761719 16.867188 146.804688 16.992188 C 146.796875 17.039062 146.796875 17.085938 146.8125 17.132812 Z M 144.148438 12.261719 C 143.6875 12.421875 143.207031 12.554688 142.757812 12.75 C 141.074219 13.480469 139.496094 14.390625 138.117188 15.613281 C 138.015625 15.695312 137.914062 15.78125 137.8125 15.867188 C 137.84375 15.898438 137.871094 15.933594 137.902344 15.964844 C 137.976562 15.90625 138.050781 15.851562 138.121094 15.792969 C 140.261719 15.265625 142.109375 14.203125 143.753906 12.757812 C 143.910156 12.617188 144.023438 12.433594 144.15625 12.269531 C 144.238281 12.246094 144.316406 12.226562 144.398438 12.207031 C 144.382812 12.171875 144.363281 12.136719 144.34375 12.101562 C 144.277344 12.15625 144.214844 12.207031 144.148438 12.261719 Z M 147.835938 9.238281 C 147.957031 9.199219 148.101562 9.183594 148.199219 9.109375 C 149.703125 8.011719 150.59375 6.484375 151.335938 4.625 C 150.347656 5.40625 149.640625 6.207031 149.019531 7.085938 C 148.546875 7.757812 148.027344 8.417969 147.847656 9.25 C 147.808594 9.273438 147.773438 9.296875 147.820312 9.265625 C 147.796875 9.328125 147.816406 9.28125 147.835938 9.238281 Z M 158.070312 16.28125 C 157.820312 16.378906 157.558594 16.457031 157.316406 16.574219 C 156.320312 17.058594 155.339844 17.570312 154.234375 17.804688 C 152.4375 18.183594 150.753906 18.039062 149.21875 16.769531 C 147.542969 20.019531 145.195312 22.625 142.050781 24.496094 C 141.1875 24.007812 140.371094 23.484375 139.699219 22.765625 C 138.386719 21.347656 138.148438 19.75 138.910156 17.992188 C 139.105469 17.539062 139.355469 17.101562 139.628906 16.566406 C 138.507812 16.789062 137.441406 17.058594 136.363281 17.199219 C 135.265625 17.34375 134.148438 17.378906 133.039062 17.429688 C 131.933594 17.480469 130.835938 17.355469 129.628906 17.15625 C 129.800781 16.800781 129.914062 16.5 130.078125 16.230469 C 131.042969 14.679688 132.425781 13.566406 133.945312 12.609375 C 136.023438 11.300781 138.277344 10.382812 140.589844 9.589844 C 140.664062 9.5625 140.734375 9.523438 140.863281 9.464844 C 140.464844 8.976562 140.066406 8.523438 139.707031 8.039062 C 138.589844 6.53125 138.128906 4.875 138.644531 3.019531 C 138.738281 2.675781 138.898438 2.351562 139.015625 2.0625 C 142.238281 0.507812 145.957031 0.128906 148.742188 5.425781 C 149.238281 5.316406 149.605469 4.96875 149.980469 4.667969 C 150.804688 4 151.589844 3.289062 152.398438 2.613281 C 153.601562 1.609375 154.867188 0.722656 156.398438 0.28125 C 157.800781 -0.125 159.191406 -0.0625 160.5625 0.242188 C 160.96875 1.324219 160.0625 4.339844 159.089844 5.589844 C 157.917969 7.097656 156.371094 8.089844 154.546875 8.894531 C 154.796875 9.078125 154.925781 9.21875 155.085938 9.285156 C 155.621094 9.515625 156.164062 9.722656 156.707031 9.929688 C 158.105469 10.464844 159.394531 11.164062 160.199219 12.492188 C 160.507812 13 160.691406 13.582031 160.941406 14.152344 C 160.371094 14.5625 159.871094 14.914062 159.382812 15.277344 C 159.261719 15.367188 159.171875 15.507812 159.0625 15.621094 L 159.074219 15.609375 C 159.015625 15.667969 158.957031 15.730469 158.898438 15.789062 L 158.910156 15.78125 C 158.734375 15.71875 158.59375 15.730469 158.5625 15.957031 L 158.574219 15.945312 C 158.457031 16.003906 158.339844 16.066406 158.222656 16.125 L 158.238281 16.109375 C 158.179688 16.171875 158.117188 16.230469 158.058594 16.292969 L 158.070312 16.28125 "/>
<path style=" stroke:none;fill-rule:nonzero;fill:rgb(25.480652%,54.025269%,81.784058%);fill-opacity:1;" d="M 5.515625 24.460938 C 6.203125 22.828125 6.753906 21.203125 7.488281 19.5625 C 7.613281 19.722656 7.679688 19.777344 7.703125 19.84375 C 8.261719 21.371094 8.8125 22.894531 9.378906 24.460938 C 8.066406 24.460938 6.824219 24.460938 5.515625 24.460938 Z M 15.371094 30.402344 C 15.074219 30.042969 14.792969 29.640625 14.617188 29.210938 C 14.246094 28.289062 13.941406 27.339844 13.613281 26.394531 C 12.578125 23.386719 11.542969 20.378906 10.492188 17.320312 C 10.160156 17.207031 9.824219 17.089844 9.515625 16.984375 C 8.992188 17.09375 8.5 17.183594 8.019531 17.304688 C 7.515625 17.429688 7.101562 17.691406 6.890625 18.199219 C 5.949219 20.476562 5 22.753906 4.058594 25.035156 C 3.378906 26.675781 2.710938 28.316406 2.042969 29.960938 C 1.859375 30.402344 1.65625 30.828125 1.144531 31.035156 C 0.78125 31.035156 0.390625 31.035156 0 31.035156 C 0 31.371094 0 31.707031 0 32.042969 C 0.277344 32.027344 0.554688 32.003906 0.832031 32.003906 C 2.058594 31.996094 3.289062 32.003906 4.515625 31.996094 C 4.726562 31.996094 4.933594 31.941406 5.160156 31.910156 C 5.160156 31.597656 5.160156 31.359375 5.160156 31.117188 C 4.542969 30.898438 3.738281 31.355469 3.277344 30.40625 C 3.730469 28.777344 4.503906 27.15625 5.117188 25.503906 C 6.671875 25.503906 8.167969 25.503906 9.679688 25.503906 C 9.761719 25.722656 9.835938 25.898438 9.898438 26.078125 C 10.472656 27.699219 11.050781 29.316406 11.609375 30.941406 C 11.847656 31.632812 12.316406 31.972656 13.035156 32 C 13.144531 32.003906 13.257812 32 13.367188 32 C 14.429688 32 15.488281 32.003906 16.550781 31.996094 C 16.738281 31.996094 16.925781 31.964844 17.203125 31.9375 C 17.191406 31.644531 17.179688 31.390625 17.167969 31.164062 C 15.992188 30.964844 15.789062 30.90625 15.371094 30.402344 "/>
<path style=" stroke:none;fill-rule:nonzero;fill:rgb(25.480652%,54.025269%,81.784058%);fill-opacity:1;" d="M 43.09375 23.359375 C 42.460938 23.691406 41.792969 23.839844 41.085938 23.394531 C 40.921875 21.125 40.988281 19.253906 41.28125 18.625 C 41.824219 18.625 42.40625 18.601562 42.980469 18.636719 C 43.394531 18.65625 43.710938 18.925781 43.9375 19.253906 C 44.820312 20.539062 44.40625 22.667969 43.09375 23.359375 Z M 48.011719 29.367188 C 47.308594 28.332031 46.632812 27.28125 45.949219 26.234375 C 45.546875 25.617188 45.152344 24.996094 44.769531 24.394531 C 45.433594 24.070312 46.058594 23.832031 46.605469 23.476562 C 47.464844 22.914062 48.15625 22.179688 48.257812 21.089844 C 48.378906 19.753906 47.722656 18.808594 46.648438 18.101562 C 45.558594 17.382812 44.320312 17.203125 43.066406 17.179688 C 40.890625 17.136719 38.710938 17.164062 36.535156 17.167969 C 36.347656 17.167969 36.160156 17.214844 35.949219 17.242188 C 35.949219 17.496094 35.949219 17.699219 35.949219 17.910156 C 36.714844 18.007812 37.347656 18.242188 37.71875 18.953125 C 37.726562 19.042969 37.746094 19.152344 37.75 19.261719 C 37.789062 22.691406 37.828125 26.121094 37.855469 29.550781 C 37.855469 29.875 37.753906 30.203125 37.722656 30.371094 C 37.277344 31.148438 36.609375 31.1875 35.945312 31.3125 C 35.945312 31.523438 35.945312 31.699219 35.945312 31.871094 C 36.605469 32.050781 42.132812 32.050781 42.863281 31.855469 C 42.84375 31.617188 42.820312 31.367188 42.796875 31.09375 C 42.007812 31.070312 41.375 30.90625 41.070312 30.195312 C 40.773438 28.441406 40.953125 26.683594 40.894531 24.878906 C 41.113281 24.726562 41.324219 24.582031 41.585938 24.394531 C 41.757812 24.664062 41.886719 24.839844 41.988281 25.027344 C 42.691406 26.355469 43.382812 27.6875 44.09375 29.007812 C 44.453125 29.667969 44.835938 30.3125 45.222656 30.957031 C 45.558594 31.519531 46.082031 31.800781 46.71875 31.898438 C 48.160156 32.121094 49.601562 31.941406 51.09375 32.003906 C 51.113281 31.734375 51.128906 31.523438 51.144531 31.269531 C 49.597656 31.058594 49.085938 30.953125 48.011719 29.367188 "/>
<g clip-path="url(#clip1)" clip-rule="nonzero">
<path style=" stroke:none;fill-rule:nonzero;fill:rgb(25.480652%,54.025269%,81.784058%);fill-opacity:1;" d="M 122.230469 24.609375 C 122.203125 25.550781 122.121094 26.492188 122.011719 27.425781 C 121.96875 27.769531 121.816406 28.121094 121.644531 28.433594 C 121.222656 29.203125 120.742188 29.367188 119.847656 29.117188 C 119.359375 28.75 119.210938 28.230469 119.191406 27.65625 C 119.152344 26.660156 119.148438 25.660156 119.351562 24.675781 C 119.492188 23.96875 119.832031 23.382812 120.472656 23.023438 C 122 22.863281 122.273438 23.09375 122.230469 24.609375 Z M 125.78125 21.667969 C 124.535156 21.308594 123.253906 21.242188 121.976562 21.359375 C 120.816406 21.464844 119.703125 21.75 118.730469 22.492188 C 117.183594 23.671875 116.300781 25.230469 116.035156 27.117188 C 115.859375 28.378906 116 29.621094 116.835938 30.683594 C 117.433594 31.445312 118.207031 31.84375 119.167969 31.65625 C 119.996094 31.492188 120.738281 31.113281 121.269531 30.40625 C 121.53125 30.054688 121.820312 29.726562 122.148438 29.316406 C 122.242188 29.867188 122.351562 30.324219 122.382812 30.789062 C 122.417969 31.289062 122.4375 31.800781 122.363281 32.292969 C 122.152344 33.710938 121.675781 34.476562 120.332031 34.828125 C 119.671875 35.003906 118.992188 34.933594 118.390625 34.59375 C 117.769531 34.242188 117.1875 33.828125 116.515625 33.394531 C 116.164062 34.097656 116.441406 34.875 116.347656 35.574219 C 116.964844 36.300781 117.121094 36.390625 117.941406 36.398438 C 119.414062 36.414062 120.796875 36.007812 122.113281 35.394531 C 124.164062 34.441406 125.292969 32.902344 125.226562 30.542969 C 125.160156 28.3125 125.203125 26.078125 125.199219 23.84375 C 125.195312 23.570312 125.199219 23.296875 125.199219 22.980469 C 125.605469 22.816406 125.957031 22.675781 126.347656 22.515625 C 126.355469 22.351562 126.367188 22.164062 126.378906 21.9375 C 126.238281 21.855469 126.167969 21.808594 126.09375 21.777344 C 125.992188 21.734375 125.886719 21.699219 125.78125 21.667969 "/>
</g>
<path style=" stroke:none;fill-rule:nonzero;fill:rgb(25.480652%,54.025269%,81.784058%);fill-opacity:1;" d="M 113.921875 31.019531 C 113.546875 30.726562 113.480469 30.382812 113.496094 30.003906 C 113.527344 29.367188 113.574219 28.730469 113.582031 28.09375 C 113.597656 26.921875 113.589844 25.75 113.589844 24.578125 C 113.589844 24.074219 113.625 23.570312 113.585938 23.070312 C 113.515625 22.152344 113.230469 21.242188 111.746094 21.332031 C 110.660156 21.394531 109.707031 21.8125 108.816406 22.410156 C 108.539062 22.597656 108.265625 22.796875 107.910156 23.050781 C 107.910156 22.425781 107.910156 21.925781 107.910156 21.433594 C 107.765625 21.269531 107.640625 21.128906 107.46875 20.933594 C 106.941406 21.070312 106.414062 21.222656 105.878906 21.332031 C 105.335938 21.445312 104.789062 21.527344 104.238281 21.59375 C 103.699219 21.65625 103.152344 21.675781 102.582031 21.71875 C 102.601562 22.058594 102.617188 22.328125 102.632812 22.578125 C 103.253906 22.761719 103.925781 22.410156 104.445312 22.972656 C 104.445312 25.714844 104.445312 28.472656 104.445312 31.261719 C 104.621094 31.46875 104.796875 31.675781 104.953125 31.859375 C 105.816406 31.859375 106.617188 31.859375 107.34375 31.859375 C 107.734375 31.597656 107.777344 31.277344 107.78125 30.929688 C 107.8125 29.203125 107.855469 27.476562 107.890625 25.753906 C 107.894531 25.53125 107.894531 25.308594 107.894531 25.175781 C 108.34375 24.242188 108.839844 23.492188 109.828125 23.339844 C 110.410156 23.523438 110.480469 23.949219 110.480469 24.421875 C 110.484375 26.320312 110.5 28.21875 110.484375 30.113281 C 110.480469 30.875 110.695312 31.480469 111.417969 31.816406 C 112.570312 32.101562 113.746094 31.976562 114.910156 31.992188 C 115.097656 31.996094 115.285156 31.921875 115.46875 31.859375 C 115.535156 31.835938 115.585938 31.753906 115.707031 31.640625 C 115.625 31.445312 115.53125 31.238281 115.4375 31.019531 C 114.863281 31.019531 114.363281 31.019531 113.921875 31.019531 "/>
<path style=" stroke:none;fill-rule:nonzero;fill:rgb(25.480652%,54.025269%,81.784058%);fill-opacity:1;" d="M 57.480469 27.117188 C 57.457031 27.890625 56.992188 28.457031 56.425781 28.9375 C 56.257812 29.078125 56.058594 29.1875 55.800781 29.359375 C 55.578125 29.359375 55.355469 29.359375 55.140625 29.359375 C 55.0625 29.296875 54.980469 29.257812 54.9375 29.191406 C 54.835938 29.027344 54.710938 28.863281 54.671875 28.679688 C 54.355469 27.191406 54.289062 25.695312 54.832031 24.25 C 55.238281 23.160156 55.679688 22.941406 56.964844 23.015625 C 57.113281 23.175781 57.300781 23.378906 57.488281 23.582031 C 57.488281 24.777344 57.515625 25.945312 57.480469 27.117188 Z M 60.734375 30.566406 C 60.59375 29.710938 60.632812 23.382812 60.792969 22.714844 C 61.058594 22.617188 61.363281 22.507812 61.675781 22.398438 C 61.710938 22.21875 61.746094 22.035156 61.78125 21.871094 C 61.675781 21.78125 61.617188 21.703125 61.546875 21.683594 C 59.789062 21.183594 57.996094 20.949219 56.199219 21.367188 C 54.679688 21.71875 53.316406 22.402344 52.449219 23.796875 C 51.1875 25.828125 51.183594 28.015625 51.761719 30.230469 C 51.996094 31.128906 52.566406 31.785156 53.597656 31.945312 C 54.398438 32.066406 55.105469 31.917969 55.691406 31.398438 C 56.1875 30.957031 56.601562 30.421875 57.054688 29.929688 C 57.089844 29.894531 57.148438 29.882812 57.246094 29.839844 C 57.378906 29.921875 57.535156 30.019531 57.671875 30.105469 C 57.671875 30.234375 57.671875 30.316406 57.671875 30.398438 C 57.648438 31.453125 57.875 31.777344 58.90625 31.878906 C 59.902344 31.976562 60.90625 31.96875 61.90625 31.996094 C 62.121094 32.003906 62.335938 31.964844 62.574219 31.941406 C 62.574219 31.519531 62.574219 31.148438 62.574219 30.800781 C 61.925781 30.59375 61.28125 30.914062 60.734375 30.566406 "/>
<path style=" stroke:none;fill-rule:nonzero;fill:rgb(25.480652%,54.025269%,81.784058%);fill-opacity:1;" d="M 133.222656 26.917969 C 133.175781 28.035156 132.480469 28.742188 131.582031 29.265625 C 131.382812 29.382812 131.109375 29.363281 130.960938 29.386719 C 130.449219 29.148438 130.316406 28.734375 130.285156 28.375 C 130.179688 27.132812 130.070312 25.878906 130.386719 24.640625 C 130.71875 23.355469 131.257812 22.953125 132.613281 22.996094 C 133.140625 23.292969 133.230469 23.773438 133.242188 24.242188 C 133.265625 25.132812 133.261719 26.027344 133.222656 26.917969 Z M 136.503906 30.71875 C 136.414062 30.492188 136.300781 30.339844 136.304688 30.1875 C 136.335938 27.710938 136.382812 25.238281 136.429688 22.710938 C 136.765625 22.601562 137.070312 22.503906 137.398438 22.394531 C 137.398438 22.191406 137.398438 21.976562 137.398438 21.730469 C 135.578125 21.195312 133.746094 20.953125 131.894531 21.367188 C 129.742188 21.847656 128.183594 23.066406 127.460938 25.214844 C 126.949219 26.738281 126.980469 28.296875 127.300781 29.828125 C 127.492188 30.757812 127.980469 31.597656 129.039062 31.882812 C 130.085938 32.164062 130.960938 31.863281 131.703125 31.136719 C 132.0625 30.789062 132.359375 30.382812 132.6875 30.003906 C 132.742188 29.945312 132.816406 29.90625 132.90625 29.835938 C 133.070312 29.921875 133.238281 30.007812 133.394531 30.085938 C 133.265625 31.394531 133.503906 31.792969 134.808594 31.925781 C 135.929688 32.042969 137.074219 31.953125 138.25 31.953125 C 138.25 31.554688 138.25 31.179688 138.25 30.71875 C 137.644531 30.71875 137.070312 30.71875 136.503906 30.71875 "/>
<path style=" stroke:none;fill-rule:nonzero;fill:rgb(25.480652%,54.025269%,81.784058%);fill-opacity:1;" d="M 98.699219 28.535156 C 98.570312 29.34375 98.257812 29.925781 97.597656 30.503906 C 97.46875 30.515625 97.359375 30.527344 97.25 30.53125 C 97.140625 30.535156 97.027344 30.523438 96.921875 30.519531 C 96.527344 30.339844 96.304688 30.015625 96.234375 29.625 C 95.988281 28.316406 95.75 27.011719 96.011719 25.671875 C 96.101562 25.210938 96.125 24.738281 96.210938 24.277344 C 96.316406 23.679688 96.605469 23.1875 97.214844 22.835938 C 97.507812 22.835938 97.863281 22.835938 98.230469 22.835938 C 98.8125 23.195312 98.835938 23.824219 98.859375 24.378906 C 98.917969 25.765625 98.917969 27.15625 98.699219 28.535156 Z M 97.777344 21.050781 C 96.285156 21.035156 95.066406 21.777344 94.148438 22.964844 C 92.660156 24.882812 92.289062 27.03125 92.964844 29.335938 C 93.292969 30.457031 94.023438 31.285156 95.199219 31.609375 C 95.703125 31.746094 96.226562 31.808594 96.742188 31.902344 C 98.488281 32.207031 99.847656 31.507812 100.894531 30.175781 C 101.761719 29.066406 102.140625 27.769531 102.117188 26.347656 C 102.039062 25.65625 102.007812 24.960938 101.875 24.28125 C 101.421875 21.890625 99.84375 21.074219 97.777344 21.050781 "/>
<path style=" stroke:none;fill-rule:nonzero;fill:rgb(25.480652%,54.025269%,81.784058%);fill-opacity:1;" d="M 79.105469 28.984375 C 79.007812 29.351562 78.859375 29.730469 78.636719 30.035156 C 78.089844 30.78125 77.234375 30.667969 76.863281 29.828125 C 76.773438 29.625 76.664062 29.414062 76.648438 29.199219 C 76.53125 27.570312 76.273438 25.9375 76.742188 24.316406 C 76.980469 23.496094 77.015625 23.402344 77.773438 22.820312 C 78.09375 22.820312 78.453125 22.820312 78.785156 22.820312 C 79.367188 23.234375 79.398438 23.855469 79.417969 24.417969 C 79.472656 25.945312 79.5 27.484375 79.105469 28.984375 Z M 80.546875 21.535156 C 78.472656 20.484375 76.347656 21.078125 74.941406 22.648438 C 73.316406 24.464844 72.847656 26.664062 73.433594 29.027344 C 73.78125 30.449219 74.671875 31.4375 76.1875 31.714844 C 76.648438 31.800781 77.117188 31.851562 77.585938 31.894531 C 79.109375 32.046875 80.339844 31.496094 81.308594 30.324219 C 82.28125 29.15625 82.679688 27.804688 82.671875 26.300781 C 82.59375 25.609375 82.5625 24.914062 82.425781 24.234375 C 82.195312 23.078125 81.667969 22.101562 80.546875 21.535156 "/>
<path style=" stroke:none;fill-rule:nonzero;fill:rgb(25.480652%,54.025269%,81.784058%);fill-opacity:1;" d="M 89.914062 30.863281 C 89.058594 30.660156 88.699219 30.152344 88.597656 29.421875 C 88.566406 29.203125 88.527344 28.984375 88.523438 28.765625 C 88.503906 26.980469 88.488281 25.195312 88.480469 23.410156 C 88.480469 23.21875 88.519531 23.027344 88.535156 22.878906 C 88.835938 22.546875 89.171875 22.464844 89.554688 22.480469 C 89.914062 22.496094 90.28125 22.511719 90.640625 22.480469 C 90.929688 22.453125 91.210938 22.347656 91.453125 22.289062 C 91.570312 21.882812 91.609375 21.585938 91.273438 21.367188 C 90.394531 21.152344 89.476562 21.601562 88.671875 20.933594 C 88.671875 20.082031 88.671875 19.226562 88.671875 18.480469 C 88.414062 18.027344 88.09375 17.925781 87.746094 18 C 87.265625 18.101562 86.78125 18.230469 86.320312 18.40625 C 85.765625 18.613281 85.511719 19.046875 85.53125 19.648438 C 85.546875 20.089844 85.535156 20.53125 85.535156 20.898438 C 84.847656 21.648438 83.992188 21.078125 83.304688 21.417969 C 83.046875 21.726562 83.046875 22.050781 83.335938 22.472656 C 83.910156 22.542969 84.535156 22.617188 85.152344 22.695312 C 85.597656 23.171875 85.460938 23.753906 85.457031 24.296875 C 85.4375 26.105469 85.328125 27.917969 85.382812 29.722656 C 85.421875 31.035156 86.042969 31.714844 87.429688 31.902344 C 88.566406 32.058594 89.628906 31.832031 90.683594 31.496094 C 91.109375 31.359375 91.480469 31.105469 91.761719 30.636719 C 91.640625 30.492188 91.515625 30.339844 91.414062 30.214844 C 90.835938 30.464844 90.332031 30.683594 89.914062 30.863281 "/>
<path style=" stroke:none;fill-rule:nonzero;fill:rgb(25.480652%,54.025269%,81.784058%);fill-opacity:1;" d="M 30.667969 21.96875 C 30.277344 22.324219 29.929688 22.726562 29.546875 23.09375 C 29.421875 23.207031 29.246094 23.269531 29.070312 23.367188 C 28.734375 22.5625 29.269531 21.65625 28.527344 20.949219 C 27.75 21.128906 26.953125 21.351562 26.144531 21.484375 C 25.332031 21.613281 24.503906 21.648438 23.671875 21.726562 C 23.671875 22.03125 23.671875 22.300781 23.671875 22.628906 C 24.167969 22.628906 24.636719 22.628906 24.957031 22.628906 C 25.550781 22.894531 25.503906 23.300781 25.503906 23.695312 C 25.496094 25.898438 25.488281 28.101562 25.484375 30.304688 C 25.484375 30.582031 25.472656 30.867188 25.511719 31.140625 C 25.566406 31.527344 25.789062 31.84375 26.191406 31.871094 C 26.964844 31.929688 27.742188 31.960938 28.441406 31.851562 C 28.808594 31.472656 28.832031 31.089844 28.828125 30.695312 C 28.828125 29.4375 28.851562 28.183594 28.832031 26.929688 C 28.820312 26.300781 28.960938 25.730469 29.195312 25.15625 C 29.507812 24.394531 29.992188 23.90625 30.820312 23.828125 C 31.273438 24 31.707031 24.164062 32.140625 24.332031 C 33.285156 23.632812 33.253906 22.527344 33.347656 21.476562 C 33.179688 21.296875 33.046875 21.160156 32.910156 21.015625 C 31.996094 20.972656 31.296875 21.402344 30.667969 21.96875 "/>
<path style=" stroke:none;fill-rule:nonzero;fill:rgb(25.480652%,54.025269%,81.784058%);fill-opacity:1;" d="M 71.71875 21.046875 C 71.304688 21.191406 70.878906 21.367188 70.535156 21.628906 C 70.027344 22.015625 69.574219 22.472656 69.128906 22.929688 C 68.933594 23.132812 68.777344 23.347656 68.46875 23.320312 C 67.917969 22.613281 68.570312 21.683594 67.945312 20.941406 C 67.144531 21.128906 66.351562 21.351562 65.539062 21.484375 C 64.726562 21.613281 63.898438 21.648438 63.046875 21.726562 C 63.050781 22.050781 62.953125 22.347656 63.109375 22.601562 C 63.71875 22.75 64.394531 22.394531 64.886719 23 C 64.886719 23.296875 64.890625 23.605469 64.886719 23.910156 C 64.882812 26.117188 64.871094 28.320312 64.882812 30.527344 C 64.882812 30.902344 64.976562 31.277344 65.03125 31.664062 C 65.988281 32.085938 66.90625 31.847656 67.714844 31.882812 C 68.222656 31.605469 68.21875 31.207031 68.21875 30.8125 C 68.222656 29.445312 68.210938 28.074219 68.234375 26.707031 C 68.253906 25.671875 68.570312 24.746094 69.421875 24.035156 C 69.664062 23.964844 69.929688 23.886719 70.183594 23.8125 C 70.613281 23.980469 71.027344 24.140625 71.378906 24.277344 C 71.894531 24.175781 72.222656 23.894531 72.363281 23.488281 C 72.597656 22.8125 72.847656 22.125 72.683594 21.449219 C 72.441406 20.992188 72.082031 20.917969 71.71875 21.046875 "/>
<path style=" stroke:none;fill-rule:nonzero;fill:rgb(25.480652%,54.025269%,81.784058%);fill-opacity:1;" d="M 21.980469 25.871094 C 21.996094 24.507812 22.042969 23.144531 22.082031 21.78125 C 22.09375 21.449219 21.988281 21.183594 21.558594 20.929688 C 20.085938 21.402344 18.460938 21.648438 16.808594 21.699219 C 16.808594 22.039062 16.808594 22.308594 16.808594 22.640625 C 17.144531 22.640625 17.449219 22.617188 17.746094 22.648438 C 18.03125 22.679688 18.3125 22.765625 18.636719 22.839844 C 18.636719 23.285156 18.636719 23.648438 18.636719 24.007812 C 18.632812 26.125 18.628906 28.246094 18.617188 30.363281 C 18.617188 30.789062 18.621094 31.203125 18.960938 31.601562 C 19.292969 31.871094 19.742188 31.992188 20.222656 31.996094 C 21.253906 32.007812 22.285156 32.003906 23.316406 31.996094 C 23.445312 31.996094 23.578125 31.933594 23.730469 31.894531 C 23.730469 31.492188 23.730469 31.117188 23.730469 30.742188 C 23.140625 30.585938 22.5 30.875 21.976562 30.324219 C 21.976562 28.875 21.960938 27.371094 21.980469 25.871094 "/>
<path style=" stroke:none;fill-rule:nonzero;fill:rgb(25.480652%,54.025269%,81.784058%);fill-opacity:1;" d="M 19.261719 20.105469 C 21.152344 20.207031 22.195312 19.03125 21.855469 17.121094 C 21.644531 16.921875 21.386719 16.679688 21.222656 16.53125 C 20.097656 16.25 19.351562 16.636719 18.765625 17.40625 C 17.988281 18.421875 18.152344 19.359375 19.261719 20.105469 "/>
<path style=" stroke:none;fill-rule:nonzero;fill:rgb(93.508911%,12.890625%,60.713196%);fill-opacity:1;" d="M 166.476562 16.957031 C 165.679688 15.519531 164.921875 14.140625 164.101562 12.660156 C 164.15625 11.722656 164.664062 10.832031 165.796875 9.878906 C 166.214844 10.035156 166.703125 10.15625 167.128906 10.390625 C 168.582031 11.195312 168.707031 12.855469 168.25 13.925781 C 167.792969 15.007812 167.171875 15.980469 166.476562 16.957031 "/>
<path style=" stroke:none;fill-rule:nonzero;fill:rgb(93.508911%,12.890625%,60.713196%);fill-opacity:1;" d="M 163.777344 25.027344 C 163.613281 25.570312 163.15625 25.859375 162.75 26.183594 C 162.144531 26.667969 161.488281 27.078125 160.707031 27.417969 C 160.03125 26.289062 159.804688 25.160156 160.328125 23.9375 C 160.585938 23.34375 160.945312 22.824219 161.414062 22.375 C 162.324219 21.496094 163.34375 20.792969 164.589844 20.234375 C 164.347656 21.371094 164.125 22.429688 163.902344 23.488281 C 163.617188 23.980469 163.804688 24.515625 163.777344 25.027344 "/>
<path style=" stroke:none;fill-rule:nonzero;fill:rgb(93.508911%,12.890625%,60.713196%);fill-opacity:1;" d="M 162.457031 16.3125 C 163.179688 16.863281 163.183594 16.867188 163.789062 18.242188 C 163.328125 18.34375 162.882812 18.429688 162.441406 18.535156 C 161.195312 18.828125 160.011719 19.28125 158.859375 19.839844 C 157.785156 20.363281 157.308594 20.277344 156.445312 19.390625 C 156.445312 19.332031 156.421875 19.261719 156.449219 19.226562 C 157.171875 18.300781 157.984375 17.453125 158.996094 16.851562 C 159.890625 16.320312 160.863281 16.019531 161.929688 16.257812 C 162.09375 16.296875 162.261719 16.292969 162.457031 16.3125 "/>
<path style=" stroke:none;fill-rule:nonzero;fill:rgb(93.508911%,12.890625%,60.713196%);fill-opacity:1;" d="M 167.847656 17.761719 C 169.273438 16.878906 170.246094 15.734375 171.203125 14.574219 C 171.433594 14.300781 171.667969 13.988281 171.753906 13.652344 C 171.921875 12.988281 172.375 12.609375 172.914062 12.308594 C 173.539062 11.960938 174.207031 11.714844 175.003906 11.777344 C 174.910156 12.441406 174.628906 12.976562 174.3125 13.480469 C 173.238281 15.175781 171.855469 16.558594 170.121094 17.578125 C 169.578125 17.898438 168.992188 18.046875 168.363281 17.941406 C 168.234375 17.921875 168.113281 17.855469 167.847656 17.761719 "/>
<path style=" stroke:none;fill-rule:nonzero;fill:rgb(93.508911%,12.890625%,60.713196%);fill-opacity:1;" d="M 145.695312 32.796875 C 144.445312 31.46875 144.988281 29.886719 146.1875 28.988281 C 147.042969 28.355469 148.046875 27.917969 149.175781 27.632812 C 149.238281 28.398438 148.804688 28.980469 148.683594 29.632812 C 148.554688 30.3125 148.410156 30.984375 148.269531 31.675781 C 147.523438 32.351562 146.902344 32.6875 145.695312 32.796875 "/>
<path style=" stroke:none;fill-rule:nonzero;fill:rgb(93.508911%,12.890625%,60.713196%);fill-opacity:1;" d="M 152.167969 26.363281 C 153.402344 25.265625 154.5 24.292969 155.722656 23.210938 C 156.777344 22.917969 157.566406 22.902344 158.707031 23.21875 C 158.472656 24.257812 157.953125 25.101562 157.054688 25.667969 C 156.367188 26.101562 155.605469 26.359375 154.777344 26.363281 C 153.941406 26.363281 153.109375 26.363281 152.167969 26.363281 "/>
<path style=" stroke:none;fill-rule:nonzero;fill:rgb(93.508911%,12.890625%,60.713196%);fill-opacity:1;" d="M 155.410156 29.34375 C 156.328125 29.445312 156.546875 29.726562 156.527344 30.839844 C 155.839844 31.265625 155.027344 31.246094 154.246094 31.34375 C 153.605469 31.421875 152.980469 31.285156 152.398438 30.996094 C 151.351562 30.46875 151.0625 29.851562 151.347656 28.71875 C 151.40625 28.484375 151.496094 28.253906 151.585938 27.976562 C 152.671875 28.53125 153.730469 29 154.878906 29.210938 C 155.003906 29.464844 155.222656 29.34375 155.410156 29.34375 "/>
<path style=" stroke:none;fill-rule:nonzero;fill:rgb(93.508911%,12.890625%,60.713196%);fill-opacity:1;" d="M 166.722656 20.238281 C 168.640625 21.238281 170.667969 21.136719 172.808594 20.835938 C 172.886719 21.222656 172.964844 21.613281 173.050781 22.050781 C 172.824219 22.21875 172.644531 22.390625 172.433594 22.503906 C 170.953125 23.300781 169.484375 23.382812 168.046875 22.386719 C 167.707031 22.148438 167.34375 21.9375 167.042969 21.65625 C 166.605469 21.242188 166.574219 21.011719 166.722656 20.238281 "/>
<path style=" stroke:none;fill-rule:nonzero;fill:rgb(93.508911%,12.890625%,60.713196%);fill-opacity:1;" d="M 145.164062 26.863281 C 144.910156 26.972656 144.625 27.039062 144.414062 27.199219 C 143.546875 27.855469 142.660156 27.757812 141.75 27.335938 C 141.601562 27.265625 141.464844 27.164062 141.257812 27.039062 C 141.414062 26.898438 141.53125 26.757812 141.679688 26.667969 C 143.449219 25.617188 145.382812 25.242188 147.421875 25.335938 C 148.085938 25.367188 148.5625 25.699219 148.972656 26.289062 C 148.394531 26.339844 147.859375 26.363281 147.332031 26.429688 C 146.785156 26.503906 146.246094 26.617188 145.699219 26.710938 C 145.507812 26.710938 145.269531 26.550781 145.164062 26.863281 "/>
<path style=" stroke:none;fill-rule:nonzero;fill:rgb(93.508911%,12.890625%,60.713196%);fill-opacity:1;" d="M 151.011719 25.25 C 150.472656 23.523438 149.203125 22.589844 147.765625 21.757812 C 148.003906 21.402344 148.195312 21.109375 148.355469 20.863281 C 149.882812 20.71875 151.003906 21.445312 151.425781 22.792969 C 151.5 23.03125 151.554688 23.273438 151.609375 23.515625 C 151.777344 24.277344 151.699219 24.527344 151.011719 25.25 "/>
<path style=" stroke:none;fill-rule:nonzero;fill:rgb(93.508911%,12.890625%,60.713196%);fill-opacity:1;" d="M 171.984375 19.917969 C 170.089844 20.648438 167.761719 20.257812 166.863281 18.902344 C 168.800781 18.3125 170.847656 18.722656 171.984375 19.917969 "/>
<path style=" stroke:none;fill-rule:nonzero;fill:rgb(93.508911%,12.890625%,60.713196%);fill-opacity:1;" d="M 163.660156 14.085938 C 164.613281 15.234375 165.257812 16.542969 165.605469 17.992188 C 165.316406 18.265625 165.085938 18.050781 164.902344 17.925781 C 164.085938 17.375 163.046875 15.675781 163.511719 14.164062 C 163.515625 14.148438 163.554688 14.140625 163.660156 14.085938 "/>
<path style=" stroke:none;fill-rule:nonzero;fill:rgb(93.508911%,12.890625%,60.713196%);fill-opacity:1;" d="M 147.71875 22.84375 C 149.414062 23.347656 150.363281 24.625 150.09375 26.050781 C 148.78125 25.359375 147.792969 24.464844 147.71875 22.84375 "/>
<path style=" stroke:none;fill-rule:nonzero;fill:rgb(93.508911%,12.890625%,60.713196%);fill-opacity:1;" d="M 165.019531 19.097656 C 163.199219 19.886719 161.414062 20.777344 159.300781 20.648438 C 160.367188 19.867188 163.800781 18.898438 165.019531 19.097656 "/>
<path style=" stroke:none;fill-rule:nonzero;fill:rgb(93.508911%,12.890625%,60.713196%);fill-opacity:1;" d="M 150.445312 27.230469 C 151.148438 28.28125 150.617188 30.039062 149.261719 31.050781 C 149.40625 29.648438 149.703125 28.386719 150.445312 27.230469 "/>
<path style=" stroke:none;fill-rule:nonzero;fill:rgb(93.508911%,12.890625%,60.713196%);fill-opacity:1;" d="M 155.605469 28.609375 C 153.414062 28.15625 152.035156 27.589844 151.394531 26.90625 C 152.515625 26.789062 154.808594 27.683594 155.605469 28.609375 "/>
<path style=" stroke:none;fill-rule:nonzero;fill:rgb(93.508911%,12.890625%,60.713196%);fill-opacity:1;" d="M 167.617188 16.785156 C 168.148438 15.605469 169.417969 14.238281 170.6875 13.621094 C 169.910156 14.996094 168.921875 16.039062 167.777344 16.949219 C 167.722656 16.894531 167.671875 16.839844 167.617188 16.785156 "/>
<path style=" stroke:none;fill-rule:nonzero;fill:rgb(93.508911%,12.890625%,60.713196%);fill-opacity:1;" d="M 148.761719 26.921875 C 147.613281 27.726562 146.320312 27.949219 144.800781 27.835938 C 146.148438 27.238281 147.425781 26.988281 148.761719 26.921875 "/>
<path style=" stroke:none;fill-rule:nonzero;fill:rgb(93.508911%,12.890625%,60.713196%);fill-opacity:1;" d="M 165.9375 19.621094 C 165.953125 21.035156 165.5625 22.15625 164.976562 23.332031 C 164.8125 21.953125 165.058594 20.777344 165.9375 19.621094 "/>
<path style=" stroke:none;fill-rule:nonzero;fill:rgb(93.508911%,12.890625%,60.713196%);fill-opacity:1;" d="M 153.570312 24.183594 C 153.09375 25.019531 152.480469 25.484375 151.4375 25.816406 C 151.9375 25.027344 152.582031 24.511719 153.527344 24.140625 L 153.570312 24.183594 "/>
<path style=" stroke:none;fill-rule:nonzero;fill:rgb(76.535034%,30.049133%,67.990112%);fill-opacity:1;" d="M 163.777344 25.027344 C 163.804688 24.515625 163.617188 23.980469 163.902344 23.488281 C 163.867188 24.003906 164.050781 24.535156 163.777344 25.027344 "/>
<path style=" stroke:none;fill-rule:nonzero;fill:rgb(76.535034%,30.049133%,67.990112%);fill-opacity:1;" d="M 167.617188 16.785156 C 167.671875 16.839844 167.722656 16.894531 167.777344 16.949219 C 167.675781 17.0625 167.574219 17.175781 167.476562 17.289062 C 167.433594 17.261719 167.390625 17.238281 167.347656 17.214844 C 167.4375 17.070312 167.527344 16.925781 167.617188 16.785156 "/>
<path style=" stroke:none;fill-rule:nonzero;fill:rgb(76.535034%,30.049133%,67.990112%);fill-opacity:1;" d="M 145.164062 26.863281 C 145.269531 26.550781 145.507812 26.710938 145.699219 26.710938 C 145.523438 26.761719 145.34375 26.8125 145.164062 26.863281 "/>
<path style=" stroke:none;fill-rule:nonzero;fill:rgb(76.535034%,30.049133%,67.990112%);fill-opacity:1;" d="M 155.410156 29.34375 C 155.222656 29.34375 155.003906 29.464844 154.878906 29.210938 C 155.054688 29.253906 155.234375 29.296875 155.410156 29.34375 "/>
<path style=" stroke:none;fill-rule:nonzero;fill:rgb(76.535034%,30.049133%,67.990112%);fill-opacity:1;" d="M 153.527344 24.140625 C 153.609375 24.058594 153.695312 23.976562 153.777344 23.898438 C 153.804688 23.933594 153.828125 23.972656 153.851562 24.007812 C 153.757812 24.066406 153.664062 24.125 153.570312 24.183594 L 153.527344 24.140625 "/>
<path style=" stroke:none;fill-rule:nonzero;fill:rgb(93.508911%,12.890625%,60.713196%);fill-opacity:1;" d="M 145.46875 18.300781 C 145.539062 18.875 145.613281 19.453125 145.683594 20.019531 C 144.644531 21.46875 143.429688 22.644531 141.703125 23.230469 C 140.761719 22.492188 139.902344 21.746094 139.734375 20.511719 C 139.679688 20.109375 139.65625 19.683594 139.726562 19.285156 C 139.96875 17.859375 140.675781 16.683594 141.785156 15.761719 C 142.878906 14.859375 143.992188 13.980469 145.101562 13.09375 C 145.183594 13.027344 145.28125 12.980469 145.367188 12.929688 C 145.359375 14.449219 145.351562 15.941406 145.34375 17.433594 C 145.363281 17.726562 145.195312 18.042969 145.46875 18.300781 "/>
<path style=" stroke:none;fill-rule:nonzero;fill:rgb(93.508911%,12.890625%,60.713196%);fill-opacity:1;" d="M 153.757812 2.71875 C 155.398438 1.582031 157.226562 1.121094 159.210938 0.835938 C 159.25 2.796875 158.816406 4.484375 157.492188 5.886719 C 156.410156 7.023438 155.070312 7.730469 153.621094 8.277344 C 152.425781 8.730469 151.1875 9.023438 149.933594 9.25 C 149.828125 9.269531 149.714844 9.253906 149.460938 9.253906 C 151.308594 7.253906 152.738281 5.101562 153.757812 2.71875 "/>
<path style=" stroke:none;fill-rule:nonzero;fill:rgb(93.508911%,12.890625%,60.713196%);fill-opacity:1;" d="M 149.578125 15.304688 C 149.394531 14.273438 149.273438 13.371094 149.414062 12.457031 C 150.882812 12.511719 152.320312 12.636719 153.753906 12.597656 C 155.191406 12.558594 156.628906 12.355469 158.027344 12.230469 C 158.71875 12.664062 159.070312 13.285156 159.429688 14.03125 C 159.234375 14.226562 159.058594 14.480469 158.820312 14.632812 C 157.433594 15.527344 155.949219 16.230469 154.328125 16.546875 C 152.972656 16.808594 151.605469 16.789062 150.386719 15.972656 C 150.070312 15.757812 149.796875 15.484375 149.578125 15.304688 "/>
<path style=" stroke:none;fill-rule:nonzero;fill:rgb(93.508911%,12.890625%,60.713196%);fill-opacity:1;" d="M 144.117188 11.203125 C 141.8125 11.828125 139.78125 13 137.796875 14.261719 C 137.300781 14.574219 136.84375 14.914062 136.496094 15.414062 C 136.316406 15.675781 136.019531 15.890625 135.734375 16.046875 C 134.660156 16.632812 133.523438 16.925781 132.289062 16.660156 C 132.003906 16.597656 131.703125 16.59375 131.308594 16.550781 C 131.65625 15.835938 132.101562 15.351562 132.589844 14.917969 C 134.976562 12.796875 137.742188 11.386719 140.800781 10.496094 C 141.886719 10.179688 142.871094 10.253906 143.820312 10.867188 C 143.890625 10.914062 143.957031 10.964844 144.015625 11.023438 C 144.050781 11.0625 144.070312 11.117188 144.117188 11.203125 "/>
<path style=" stroke:none;fill-rule:nonzero;fill:rgb(93.508911%,12.890625%,60.713196%);fill-opacity:1;" d="M 147.078125 8.285156 C 145.28125 5.957031 142.726562 5.144531 139.964844 4.679688 C 139.886719 4.109375 140.046875 3.621094 140.253906 3.136719 C 140.46875 2.632812 140.941406 2.441406 141.394531 2.414062 C 142.222656 2.371094 143.058594 2.417969 143.886719 2.484375 C 144.855469 2.566406 145.625 3.082031 146.207031 3.824219 C 146.6875 4.429688 147.15625 5.074219 147.472656 5.773438 C 147.855469 6.617188 147.863281 7.503906 147.078125 8.285156 "/>
<path style=" stroke:none;fill-rule:nonzero;fill:rgb(93.508911%,12.890625%,60.713196%);fill-opacity:1;" d="M 140.214844 6.179688 C 142.402344 6.375 144.351562 6.78125 145.574219 8.707031 C 145.820312 9.097656 145.957031 9.558594 146.144531 10 C 145.476562 10.15625 143.816406 9.757812 142.714844 9.195312 C 141.515625 8.582031 140.765625 7.582031 140.214844 6.179688 "/>
<path style=" stroke:none;fill-rule:nonzero;fill:rgb(93.508911%,12.890625%,60.713196%);fill-opacity:1;" d="M 146.804688 13.402344 C 146.882812 12.863281 146.960938 12.328125 147.035156 11.808594 C 147.507812 11.75 147.703125 11.992188 147.832031 12.273438 C 148.019531 12.671875 148.253906 13.082031 148.300781 13.503906 C 148.464844 14.925781 148.410156 16.332031 147.671875 17.625 C 147.484375 17.742188 147.296875 17.855469 147.128906 17.960938 C 146.859375 17.6875 147.207031 17.285156 146.8125 17.132812 C 146.796875 17.085938 146.796875 17.039062 146.804688 16.992188 C 146.804688 15.796875 146.804688 14.597656 146.804688 13.402344 "/>
<path style=" stroke:none;fill-rule:nonzero;fill:rgb(93.508911%,12.890625%,60.713196%);fill-opacity:1;" d="M 148.378906 10.566406 C 149.140625 10.46875 149.902344 10.292969 150.660156 10.292969 C 152.074219 10.285156 153.492188 10.355469 154.902344 10.441406 C 155.535156 10.480469 156.132812 10.714844 156.75 11.199219 C 156.457031 11.226562 156.285156 11.25 156.109375 11.253906 C 154.640625 11.304688 153.171875 11.398438 151.699219 11.382812 C 150.824219 11.371094 149.941406 11.207031 149.070312 11.074219 C 148.820312 11.035156 148.589844 10.859375 148.351562 10.746094 C 148.359375 10.683594 148.371094 10.625 148.378906 10.566406 "/>
<path style=" stroke:none;fill-rule:nonzero;fill:rgb(93.508911%,12.890625%,60.713196%);fill-opacity:1;" d="M 138.117188 15.613281 C 139.496094 14.390625 141.074219 13.480469 142.757812 12.75 C 143.207031 12.554688 143.6875 12.421875 144.148438 12.261719 L 144.15625 12.269531 C 144.023438 12.433594 143.910156 12.617188 143.753906 12.757812 C 142.109375 14.203125 140.261719 15.265625 138.121094 15.792969 C 138.121094 15.734375 138.117188 15.671875 138.117188 15.613281 "/>
<path style=" stroke:none;fill-rule:nonzero;fill:rgb(93.508911%,12.890625%,60.713196%);fill-opacity:1;" d="M 147.847656 9.25 C 148.027344 8.417969 148.546875 7.757812 149.019531 7.085938 C 149.640625 6.207031 150.347656 5.40625 151.335938 4.625 C 150.59375 6.484375 149.703125 8.011719 148.199219 9.109375 C 148.101562 9.183594 147.957031 9.199219 147.835938 9.238281 L 147.847656 9.25 "/>
<path style=" stroke:none;fill-rule:nonzero;fill:rgb(76.535034%,30.049133%,67.990112%);fill-opacity:1;" d="M 146.804688 13.402344 C 146.804688 14.597656 146.804688 15.796875 146.804688 16.992188 C 146.761719 16.867188 146.683594 16.742188 146.683594 16.617188 C 146.671875 15.671875 146.671875 14.722656 146.683594 13.773438 C 146.683594 13.648438 146.761719 13.523438 146.804688 13.402344 "/>
<path style=" stroke:none;fill-rule:nonzero;fill:rgb(76.535034%,30.049133%,67.990112%);fill-opacity:1;" d="M 146.8125 17.132812 C 147.207031 17.285156 146.859375 17.6875 147.128906 17.960938 C 147.296875 17.855469 147.484375 17.742188 147.671875 17.625 C 147.507812 17.902344 147.339844 18.175781 147.140625 18.511719 C 146.691406 18.054688 146.867188 17.566406 146.8125 17.132812 "/>
<path style=" stroke:none;fill-rule:nonzero;fill:rgb(76.535034%,30.049133%,67.990112%);fill-opacity:1;" d="M 145.46875 18.300781 C 145.195312 18.042969 145.363281 17.726562 145.34375 17.433594 C 145.386719 17.722656 145.429688 18.011719 145.46875 18.300781 "/>
<path style=" stroke:none;fill-rule:nonzero;fill:rgb(76.535034%,30.049133%,67.990112%);fill-opacity:1;" d="M 138.117188 15.613281 C 138.117188 15.671875 138.121094 15.734375 138.121094 15.792969 C 138.050781 15.851562 137.976562 15.90625 137.902344 15.964844 C 137.871094 15.933594 137.84375 15.898438 137.8125 15.867188 C 137.914062 15.78125 138.015625 15.695312 138.117188 15.613281 "/>
<path style=" stroke:none;fill-rule:nonzero;fill:rgb(93.508911%,12.890625%,60.713196%);fill-opacity:1;" d="M 144.148438 12.261719 C 144.214844 12.207031 144.277344 12.15625 144.34375 12.101562 C 144.363281 12.136719 144.382812 12.171875 144.398438 12.207031 C 144.316406 12.226562 144.238281 12.246094 144.15625 12.269531 L 144.148438 12.261719 "/>
<path style=" stroke:none;fill-rule:nonzero;fill:rgb(93.508911%,12.890625%,60.713196%);fill-opacity:1;" d="M 147.835938 9.238281 C 147.816406 9.28125 147.796875 9.328125 147.820312 9.265625 C 147.773438 9.296875 147.808594 9.273438 147.847656 9.25 L 147.835938 9.238281 "/>
</g>
</svg>
