<?xml version="1.0" encoding="UTF-8"?>
<svg xmlns="http://www.w3.org/2000/svg" xmlns:xlink="http://www.w3.org/1999/xlink" width="163.65pt" height="59pt" viewBox="0 0 163.65 59" version="1.1">
<defs>
<clipPath id="clip1">
  <path d="M 106 0 L 163.648438 0 L 163.648438 59 L 106 59 Z M 106 0 "/>
</clipPath>
</defs>
<g id="surface1">
<path style=" stroke:none;fill-rule:nonzero;fill:rgb(31.561279%,15.446472%,50.196838%);fill-opacity:1;" d="M 40.660156 4.332031 C 40.660156 8.9375 40.660156 13.507812 40.660156 18.160156 C 40.40625 18.015625 40.234375 17.917969 40.066406 17.816406 C 39.089844 17.242188 38.117188 16.65625 37.132812 16.101562 C 35.324219 15.082031 33.398438 14.339844 31.421875 13.726562 C 30.34375 13.394531 29.242188 13.136719 28.125 12.949219 C 27.148438 12.785156 26.167969 12.664062 25.179688 12.570312 C 23.9375 12.449219 22.695312 12.464844 21.453125 12.515625 C 20.214844 12.566406 18.988281 12.773438 17.828125 13.246094 C 17.207031 13.496094 16.625 13.804688 16.132812 14.285156 C 15.367188 15.023438 15.089844 15.917969 15.179688 16.949219 C 15.253906 17.777344 15.574219 18.519531 16.167969 19.101562 C 16.667969 19.59375 17.265625 19.964844 17.910156 20.246094 C 19.066406 20.75 20.28125 21.082031 21.484375 21.4375 C 22.914062 21.855469 24.34375 22.257812 25.773438 22.683594 C 27.332031 23.148438 28.894531 23.605469 30.441406 24.109375 C 31.621094 24.492188 32.769531 24.964844 33.898438 25.488281 C 35.355469 26.160156 36.738281 26.953125 38.035156 27.894531 C 40.210938 29.476562 41.929688 31.445312 43.050781 33.90625 C 43.546875 34.992188 43.894531 36.136719 44.117188 37.3125 C 44.289062 38.226562 44.40625 39.148438 44.414062 40.082031 C 44.417969 40.496094 44.488281 40.914062 44.476562 41.332031 C 44.40625 43.542969 44.09375 45.710938 43.230469 47.769531 C 42.605469 49.253906 41.765625 50.601562 40.710938 51.824219 C 38.957031 53.855469 36.785156 55.292969 34.371094 56.386719 C 32.429688 57.265625 30.394531 57.863281 28.296875 58.261719 C 27.265625 58.460938 26.230469 58.644531 25.175781 58.726562 C 24.375 58.785156 23.570312 58.832031 22.773438 58.917969 C 21.515625 59.046875 20.257812 58.988281 19 58.976562 C 18.304688 58.96875 17.609375 58.878906 16.917969 58.824219 C 16.53125 58.792969 16.144531 58.757812 15.761719 58.722656 C 13.347656 58.496094 10.988281 58.015625 8.65625 57.375 C 7.09375 56.949219 5.578125 56.402344 4.09375 55.773438 C 3.132812 55.371094 2.195312 54.921875 1.3125 54.367188 C 1.238281 53.9375 1.242188 40.984375 1.328125 40.578125 C 1.457031 40.632812 1.59375 40.664062 1.703125 40.738281 C 2.949219 41.558594 4.257812 42.273438 5.609375 42.90625 C 7.574219 43.832031 9.589844 44.640625 11.699219 45.1875 C 12.808594 45.472656 13.921875 45.753906 15.042969 45.972656 C 15.878906 46.136719 16.726562 46.222656 17.574219 46.296875 C 18.515625 46.382812 19.460938 46.453125 20.402344 46.457031 C 21.175781 46.460938 21.945312 46.347656 22.71875 46.308594 C 23.652344 46.261719 24.558594 46.074219 25.457031 45.820312 C 26.347656 45.570312 27.191406 45.199219 27.890625 44.59375 C 28.625 43.960938 29.054688 43.152344 29.089844 42.160156 C 29.113281 41.4375 29.027344 40.738281 28.691406 40.082031 C 28.375 39.453125 27.90625 38.96875 27.320312 38.601562 C 26.125 37.851562 24.820312 37.359375 23.472656 36.976562 C 21.714844 36.476562 19.949219 35.988281 18.191406 35.484375 C 16.613281 35.03125 15.035156 34.582031 13.464844 34.097656 C 11.632812 33.535156 9.875 32.792969 8.195312 31.875 C 6.578125 30.988281 5.097656 29.914062 3.835938 28.5625 C 2.484375 27.109375 1.492188 25.4375 0.875 23.550781 C 0.492188 22.382812 0.25 21.191406 0.121094 19.96875 C -0.0195312 18.617188 -0.0429688 17.257812 0.0742188 15.917969 C 0.351562 12.703125 1.472656 9.792969 3.542969 7.289062 C 4.769531 5.804688 6.234375 4.585938 7.878906 3.585938 C 10.320312 2.101562 12.972656 1.171875 15.769531 0.628906 C 16.90625 0.40625 18.050781 0.21875 19.214844 0.160156 C 19.832031 0.128906 20.453125 0.09375 21.070312 0.0664062 C 21.582031 0.0390625 22.09375 -0.0078125 22.601562 0 C 23.503906 0.0117188 24.402344 0.0351562 25.300781 0.09375 C 26.289062 0.160156 27.277344 0.246094 28.257812 0.375 C 30.9375 0.726562 33.5625 1.328125 36.105469 2.253906 C 37.503906 2.765625 38.871094 3.363281 40.195312 4.054688 C 40.34375 4.132812 40.484375 4.226562 40.660156 4.332031 "/>
<g clip-path="url(#clip1)" clip-rule="nonzero">
<path style=" stroke:none;fill-rule:nonzero;fill:rgb(31.561279%,15.446472%,50.196838%);fill-opacity:1;" d="M 142.429688 58.039062 C 137.269531 58.039062 132.171875 58.039062 127.023438 58.039062 C 127.019531 57.84375 127.011719 57.664062 127.011719 57.484375 C 127.011719 51.117188 127.007812 44.757812 127.015625 38.394531 C 127.015625 38.003906 126.929688 37.675781 126.722656 37.34375 C 126.246094 36.5625 125.816406 35.75 125.367188 34.953125 C 124.746094 33.859375 124.121094 32.769531 123.503906 31.675781 C 123.023438 30.824219 122.554688 29.964844 122.070312 29.113281 C 121.476562 28.058594 120.871094 27.011719 120.273438 25.960938 C 119.824219 25.164062 119.378906 24.363281 118.925781 23.566406 C 118.308594 22.472656 117.683594 21.378906 117.0625 20.285156 C 116.582031 19.433594 116.113281 18.578125 115.632812 17.726562 C 115.035156 16.671875 114.429688 15.621094 113.835938 14.570312 C 113.382812 13.773438 112.9375 12.972656 112.484375 12.175781 C 111.863281 11.082031 111.242188 9.992188 110.621094 8.898438 C 110.148438 8.058594 109.683594 7.214844 109.210938 6.378906 C 108.605469 5.3125 107.996094 4.246094 107.394531 3.179688 C 106.988281 2.464844 106.597656 1.746094 106.210938 1.054688 C 106.234375 1 106.238281 0.980469 106.246094 0.972656 C 106.257812 0.960938 106.273438 0.949219 106.285156 0.945312 C 106.378906 0.941406 106.472656 0.929688 106.5625 0.929688 C 111.992188 0.929688 117.421875 0.929688 122.859375 0.929688 C 123.183594 1.5 123.496094 2.046875 123.804688 2.601562 C 124.605469 4.042969 125.402344 5.480469 126.195312 6.921875 C 126.789062 7.996094 127.367188 9.078125 127.960938 10.152344 C 128.6875 11.472656 129.425781 12.785156 130.15625 14.101562 C 130.511719 14.738281 130.859375 15.378906 131.210938 16.019531 C 132.015625 17.472656 132.820312 18.921875 133.621094 20.378906 C 134.011719 21.085938 134.394531 21.796875 134.785156 22.503906 C 134.886719 22.6875 135.003906 22.863281 135.144531 23.09375 C 135.269531 22.898438 135.367188 22.761719 135.449219 22.617188 C 136.1875 21.269531 136.925781 19.921875 137.667969 18.574219 C 138.496094 17.0625 139.328125 15.554688 140.164062 14.046875 C 141.039062 12.472656 141.921875 10.902344 142.792969 9.328125 C 143.207031 8.582031 143.605469 7.828125 144.019531 7.078125 C 144.597656 6.03125 145.183594 4.992188 145.765625 3.949219 C 146.117188 3.308594 146.46875 2.667969 146.820312 2.03125 C 147.015625 1.675781 147.207031 1.320312 147.40625 0.953125 C 152.804688 0.953125 158.195312 0.953125 163.652344 0.953125 C 163.546875 1.160156 163.472656 1.324219 163.382812 1.480469 C 162.824219 2.453125 162.269531 3.417969 161.707031 4.386719 C 161.054688 5.515625 160.394531 6.640625 159.746094 7.769531 C 159.21875 8.683594 158.699219 9.601562 158.171875 10.515625 C 157.644531 11.429688 157.113281 12.339844 156.585938 13.253906 C 156.066406 14.15625 155.550781 15.058594 155.03125 15.960938 C 154.507812 16.878906 153.984375 17.792969 153.457031 18.707031 C 152.917969 19.648438 152.371094 20.589844 151.828125 21.53125 C 151.300781 22.445312 150.769531 23.355469 150.242188 24.269531 C 149.707031 25.195312 149.179688 26.128906 148.644531 27.054688 C 147.859375 28.414062 147.070312 29.769531 146.289062 31.125 C 145.632812 32.269531 144.984375 33.417969 144.328125 34.5625 C 143.808594 35.464844 143.285156 36.359375 142.757812 37.257812 C 142.542969 37.625 142.421875 37.996094 142.421875 38.441406 C 142.433594 44.773438 142.429688 51.105469 142.429688 57.4375 C 142.429688 57.625 142.429688 57.808594 142.429688 58.039062 "/>
</g>
<path style=" stroke:none;fill-rule:nonzero;fill:rgb(34.765625%,75.987244%,31.661987%);fill-opacity:1;" d="M 85.964844 58.03125 C 87 58.109375 101.046875 58.074219 101.421875 57.992188 C 101.429688 57.921875 101.4375 57.847656 101.4375 57.769531 C 101.433594 38.851562 101.429688 19.933594 101.421875 1.015625 C 101.421875 1.003906 101.40625 0.988281 101.398438 0.980469 C 101.390625 0.96875 101.378906 0.957031 101.363281 0.945312 C 100.382812 0.871094 86.339844 0.90625 85.964844 0.988281 C 85.964844 19.988281 85.964844 38.992188 85.964844 58.03125 Z M 85.855469 29.226562 C 85.855469 19.785156 85.855469 10.34375 85.855469 0.925781 C 85.890625 0.890625 85.902344 0.878906 85.914062 0.871094 C 85.925781 0.859375 85.941406 0.847656 85.953125 0.847656 C 91.085938 0.84375 96.21875 0.839844 101.355469 0.835938 C 101.398438 0.835938 101.441406 0.855469 101.507812 0.875 C 101.507812 19.945312 101.507812 39.015625 101.507812 58.082031 C 101.136719 58.171875 87.261719 58.210938 85.933594 58.128906 C 85.921875 58.117188 85.910156 58.105469 85.898438 58.09375 C 85.890625 58.082031 85.878906 58.074219 85.875 58.058594 C 85.867188 58.03125 85.863281 58 85.859375 57.96875 C 85.855469 57.949219 85.859375 57.9375 85.859375 57.917969 C 85.855469 57.875 85.855469 57.828125 85.855469 57.78125 C 85.855469 48.492188 85.855469 39.203125 85.855469 29.914062 C 85.855469 29.882812 85.855469 29.851562 85.851562 29.820312 C 85.851562 29.804688 85.847656 29.789062 85.84375 29.777344 C 85.835938 29.761719 85.828125 29.75 85.792969 29.699219 C 78.664062 39.152344 71.539062 48.589844 64.414062 58.039062 C 58.503906 58.039062 52.59375 58.039062 46.632812 58.039062 C 46.691406 57.898438 46.714844 57.777344 46.78125 57.691406 C 47.65625 56.527344 48.535156 55.367188 49.410156 54.207031 C 50.519531 52.738281 51.621094 51.265625 52.730469 49.796875 C 53.542969 48.722656 54.355469 47.652344 55.167969 46.578125 C 56.148438 45.28125 57.128906 43.984375 58.105469 42.6875 C 59.027344 41.464844 59.945312 40.238281 60.867188 39.019531 C 61.472656 38.214844 62.078125 37.410156 62.683594 36.609375 C 63.605469 35.386719 64.527344 34.160156 65.449219 32.941406 C 66.261719 31.867188 67.078125 30.796875 67.890625 29.726562 C 67.9375 29.664062 67.964844 29.589844 68.019531 29.484375 C 60.871094 20.003906 53.710938 10.507812 46.539062 0.996094 C 46.738281 0.882812 46.925781 0.925781 47.105469 0.925781 C 51.289062 0.925781 55.476562 0.925781 59.660156 0.925781 C 61.09375 0.925781 62.523438 0.933594 63.957031 0.917969 C 64.273438 0.914062 64.46875 1.023438 64.652344 1.273438 C 65.605469 2.566406 66.570312 3.855469 67.539062 5.140625 C 68.554688 6.488281 69.582031 7.824219 70.597656 9.167969 C 71.535156 10.402344 72.464844 11.636719 73.394531 12.875 C 74.191406 13.9375 74.980469 15.007812 75.78125 16.070312 C 76.59375 17.144531 77.410156 18.214844 78.222656 19.285156 C 78.832031 20.089844 79.4375 20.890625 80.042969 21.695312 C 80.871094 22.792969 81.703125 23.890625 82.527344 24.992188 C 83.140625 25.808594 83.753906 26.625 84.363281 27.441406 C 84.761719 27.976562 85.160156 28.507812 85.558594 29.042969 C 85.621094 29.128906 85.679688 29.222656 85.738281 29.3125 C 85.777344 29.28125 85.816406 29.253906 85.855469 29.226562 "/>
<path style=" stroke:none;fill-rule:nonzero;fill:rgb(31.561279%,15.446472%,50.196838%);fill-opacity:1;" d="M 85.964844 58.03125 C 85.964844 38.992188 85.964844 19.988281 85.964844 0.988281 C 86.339844 0.90625 100.382812 0.871094 101.363281 0.945312 C 101.378906 0.957031 101.390625 0.96875 101.398438 0.980469 C 101.40625 0.988281 101.421875 1.003906 101.421875 1.015625 C 101.429688 19.933594 101.433594 38.851562 101.4375 57.769531 C 101.4375 57.847656 101.429688 57.921875 101.421875 57.992188 C 101.046875 58.074219 87 58.109375 85.964844 58.03125 "/>
</g>
</svg>
