<svg xmlns="http://www.w3.org/2000/svg" width="188.88" height="59pt" viewBox="0 0 141.66 59"><defs><clipPath id="a"><path d="M51 5h90.66v54H51Zm0 0"/></clipPath></defs><g clip-path="url(#a)"><path d="M140.484 17.234h-7.578c-.898 0-1.476.512-1.672 1.477l-2.566 15.348c-3.531 3.21-7.063 3.21-6.035-2.891l2.055-12.52c.19-.964-.196-1.48-1.094-1.48h-6.934c-.898 0-1.476.516-1.672 1.48l-2.308 13.676c-1.48 8.797 2.566 11.883 7.894 11.883 2.508 0 5.461-1.16 7-3.215-.96 6.293-6.355 11.559-15.344 7.774-.964-.387-1.609-.13-1.8.96l-1.09 5.782c-.195.836.129 1.476.836 1.797 10.144 5.074 25.172-1.543 27.61-15.797l3.855-22.86c.129-.902-.258-1.414-1.157-1.414m-30.824 1.864c.961-1.028.707-1.801-.45-1.801l-6.87-.063c-.707 0-1.348.258-1.863.836l-6.293 6.356 2.504-17.852c.128-1.027-.45-1.543-1.348-1.347l-6.934 1.218c-.836.196-1.414.707-1.543 1.606l-5.652 34.035c-.191.96.258 1.477 1.156 1.477h7.258c.898 0 1.477-.516 1.605-1.477l.836-5.074Zm-28.898-9.25c.129-.832-.063-1.477-.77-1.668-6.87-2.504-20.164-3.274-23.437 6.035-5.203 15.285 11.558 13.87 10.66 18.367-.645 2.824-7.192 2.824-12.332 1.285-.961-.324-1.668.125-1.86 1.156l-.964 5.84c-.192.836.062 1.414.836 1.672 6.87 2.633 20.933 3.211 23.824-6.422 4.75-15.925-10.985-13.226-9.89-18.558.64-2.953 5.136-3.594 9.89-2.567 1.86.383 3.082.125 3.21-.902z" style="stroke:none;fill-rule:nonzero;fill:#1f3b66;fill-opacity:1"/></g><path d="m38.895 20.316-3.598 21.707c-.192.961.258 1.473 1.156 1.473h6.938c.898 0 1.41-.512 1.605-1.473l3.852-23.246c.191-1.03-.32-1.48-1.285-1.285l-7.13 1.285c-.831.125-1.347.641-1.538 1.54m-3.79-11.75c.192-.965-.257-1.477-1.156-1.477h-7.898c-.899 0-1.41.512-1.606 1.476l-2.117 12.649h-3.66c-.898 0-1.477.515-1.672 1.476l-1.285 7.645c-.125.96.258 1.477 1.156 1.477h3.66l-1.734 10.273c-.191.96.258 1.477 1.156 1.477h7.899c.902 0 1.414-.516 1.605-1.477Zm-18.878.062c.191-1.027-.32-1.54-1.286-1.348l-8.09 1.414c-.835.192-1.413.703-1.476 1.602L.043 42.023c-.191.961.258 1.473 1.156 1.473h7.836c.899 0 1.41-.512 1.606-1.473z" style="stroke:none;fill-rule:nonzero;fill:#f78d17;fill-opacity:1"/><path d="M105.742 43.434c1.094 0 1.606-.707 1.223-1.735l-3.79-8.539c-.448-.898-1.222-.898-1.929-.129l-3.914 3.79c-.578.64-.773 1.347-.45 2.054l1.86 3.594c.324.644.774.965 1.477.965z" style="stroke:none;fill-rule:nonzero;fill:#1f3b66;fill-opacity:1"/><path d="M49.168 7.664s-.898.066-1.734.387c-3.786 1.605-3.914 5.137-3.594 5.46.383.321.64.063.898.063.899 0 1.797-.644 2.442-1.219.898-.835 1.476-1.8 1.797-3.02.128-.515.191-1.733.191-1.67" style="stroke:none;fill-rule:nonzero;fill:#f78d17;fill-opacity:1"/><path d="M49.168 5.867c-.898-1.926-2.441-3.273-4.172-4.43C43.97.73 42.875.153 41.59.024c-1.735-.191-2.633.77-2.184 2.38.196.64.516 1.218.903 1.796.191.258.578.77.77 1.028.448.578.32 0-.192-.836-.387-.641-1.032-1.54-1.157-2.504-.128-.899.383-1.477 1.348-1.414.64 0 1.285.195 1.863.515a13.5 13.5 0 0 1 4.11 2.953c.836.899 1.539 1.864 1.797 3.082.129.641.129 1.157 0 1.735-.258 1.219-.77 2.375-1.668 3.34-.578.64-1.606 1.156-2.25 1.218-.45.067-.64 0-.64.196 0 .254.128.32.382.32.644 0 1.223-.195 1.8-.45 2.055-1.155 3.981-4.816 2.696-7.515" style="stroke:none;fill-rule:nonzero;fill:#2a3648;fill-opacity:1"/><path d="M43.52 11.969c-.13 1.219.449 2.312.253 2.117-.449-.574-.578-1.219-.511-1.988.062-1.735 1.027-3.02 2.246-4.047.836-.578 1.219-.961 2.441-1.285.387-.063.836-.32.64.195-.062.191-.128.254-.51.383-1.864.449-3.083 1.476-4.048 3.082a4 4 0 0 0-.511 1.543" style="stroke:none;fill-rule:nonzero;fill:#2a3648;fill-opacity:1"/><path d="M52.828 4.71c-.129-.51-1.219-.253-1.348-.253-.835.125-1.476 1.152-1.285 1.668.258.191.516.77 1.094.707a1.304 1.304 0 0 0 1.156-1.156c0-.258-.129-.578.063-.836.129-.192.258-.192.32-.13" style="stroke:none;fill-rule:nonzero;fill:#f78d17;fill-opacity:1"/><path d="M45.379 9.785c.644.45 1.223 1.027 1.926 1.477.129.066.195.191.066.32-.129.195-.258.066-.387 0-.64-.512-1.218-1.027-1.605-1.797M46.727 8.566c.515.32.964.77 1.48 1.09.063.063.191.13.129.258-.066.129-.258.129-.324.063-.578-.383-1.028-.77-1.285-1.41M44.418 11.328c.512.32.96.77 1.477 1.09.062.062.19.129.128.258-.066.129-.257.129-.32.062-.578-.383-1.031-.832-1.285-1.41" style="stroke:none;fill-rule:nonzero;fill:#2a3648;fill-opacity:1"/></svg>