<?xml version="1.0" encoding="UTF-8"?>
<svg xmlns="http://www.w3.org/2000/svg" xmlns:xlink="http://www.w3.org/1999/xlink" width="176pt" height="24.84pt" viewBox="0 0 176 24.84" version="1.1">
<defs>
<clipPath id="clip1">
  <path d="M 35 16 L 42 16 L 42 24.839844 L 35 24.839844 Z M 35 16 "/>
</clipPath>
<clipPath id="clip2">
  <path d="M 45 16 L 48 16 L 48 24.839844 L 45 24.839844 Z M 45 16 "/>
</clipPath>
<clipPath id="clip3">
  <path d="M 50 16 L 60 16 L 60 24.839844 L 50 24.839844 Z M 50 16 "/>
</clipPath>
<clipPath id="clip4">
  <path d="M 62 16 L 70 16 L 70 24.839844 L 62 24.839844 Z M 62 16 "/>
</clipPath>
<clipPath id="clip5">
  <path d="M 72 16 L 79 16 L 79 24.839844 L 72 24.839844 Z M 72 16 "/>
</clipPath>
<clipPath id="clip6">
  <path d="M 80 16 L 88 16 L 88 24.839844 L 80 24.839844 Z M 80 16 "/>
</clipPath>
<clipPath id="clip7">
  <path d="M 89 16 L 97 16 L 97 24.839844 L 89 24.839844 Z M 89 16 "/>
</clipPath>
<clipPath id="clip8">
  <path d="M 98 16 L 106 16 L 106 24.839844 L 98 24.839844 Z M 98 16 "/>
</clipPath>
<clipPath id="clip9">
  <path d="M 112 16 L 120 16 L 120 24.839844 L 112 24.839844 Z M 112 16 "/>
</clipPath>
<clipPath id="clip10">
  <path d="M 122 16 L 125 16 L 125 24.839844 L 122 24.839844 Z M 122 16 "/>
</clipPath>
<clipPath id="clip11">
  <path d="M 128 16 L 135 16 L 135 24.839844 L 128 24.839844 Z M 128 16 "/>
</clipPath>
<clipPath id="clip12">
  <path d="M 137 16 L 144 16 L 144 24.839844 L 137 24.839844 Z M 137 16 "/>
</clipPath>
<clipPath id="clip13">
  <path d="M 146 16 L 148 16 L 148 24.839844 L 146 24.839844 Z M 146 16 "/>
</clipPath>
<clipPath id="clip14">
  <path d="M 151 16 L 158 16 L 158 24.839844 L 151 24.839844 Z M 151 16 "/>
</clipPath>
<clipPath id="clip15">
  <path d="M 161 16 L 167 16 L 167 24.839844 L 161 24.839844 Z M 161 16 "/>
</clipPath>
<clipPath id="clip16">
  <path d="M 169 16 L 176 16 L 176 24.839844 L 169 24.839844 Z M 169 16 "/>
</clipPath>
</defs>
<g id="surface1">
<path style=" stroke:none;fill-rule:nonzero;fill:rgb(15.609741%,29.057312%,64.183044%);fill-opacity:1;" d="M 49.507812 6.191406 C 49.101562 6.191406 48.785156 6.191406 48.382812 6.191406 C 48.382812 6.714844 48.382812 7.167969 48.382812 7.726562 C 48.808594 7.691406 49.148438 7.660156 49.507812 7.632812 C 49.507812 7.097656 49.507812 6.667969 49.507812 6.191406 Z M 64.132812 9.15625 C 64.675781 10.144531 65.402344 10.542969 66.339844 10.261719 C 66.71875 10.148438 67.277344 9.789062 67.308594 9.492188 C 67.425781 8.40625 67.355469 7.296875 67.355469 6.1875 C 66.933594 6.1875 66.628906 6.1875 66.316406 6.1875 C 66.757812 8.167969 66.734375 8.199219 64.132812 9.15625 Z M 46.382812 7.820312 C 46.253906 8.574219 46.082031 9.234375 46.070312 9.898438 C 46.066406 10.050781 46.609375 10.210938 47.007812 10.429688 C 47.453125 8.914062 47.320312 7.597656 47.195312 6.207031 C 45.949219 6.207031 44.769531 6.207031 43.558594 6.207031 C 43.496094 6.550781 43.441406 6.851562 43.375 7.222656 C 42.394531 7.273438 41.417969 7.328125 40.429688 7.382812 C 40.355469 8.117188 40.761719 8.175781 41.164062 8.199219 C 41.707031 8.226562 42.257812 8.175781 42.792969 8.246094 C 43.546875 8.351562 44 8.945312 43.855469 9.539062 C 43.703125 10.171875 42.976562 10.480469 42.222656 10.230469 C 42.359375 9.882812 42.5 9.53125 42.65625 9.136719 C 42.378906 8.988281 42.191406 8.84375 41.984375 8.785156 C 41.371094 8.621094 40.703125 8.617188 40.339844 9.167969 C 40.113281 9.511719 40.066406 10.089844 40.175781 10.503906 C 40.351562 11.160156 40.957031 11.398438 41.605469 11.351562 C 42.28125 11.300781 42.953125 11.175781 43.699219 11.074219 C 43.558594 11.707031 43.070312 11.941406 42.589844 11.933594 C 41.6875 11.917969 40.742188 11.898438 39.898438 11.628906 C 38.53125 11.1875 38.320312 9.914062 39.320312 8.875 C 39.398438 8.796875 39.464844 8.707031 39.414062 8.765625 C 39.261719 8.234375 38.933594 7.699219 39.082031 7.464844 C 39.292969 7.136719 39.839844 6.964844 40.277344 6.847656 C 40.621094 6.757812 41.019531 6.902344 41.382812 6.855469 C 41.648438 6.816406 41.898438 6.636719 42.152344 6.519531 C 42.121094 6.421875 42.089844 6.320312 42.054688 6.21875 C 40.464844 6.21875 38.871094 6.21875 37.15625 6.21875 C 37.15625 7.894531 37.15625 9.507812 37.15625 11.179688 C 36.679688 11.179688 36.332031 11.179688 35.941406 11.179688 C 35.699219 9.390625 36.15625 7.578125 35.617188 5.714844 C 35.636719 5.601562 35.648438 5.300781 35.742188 5.03125 C 35.902344 4.59375 36.011719 4.050781 36.332031 3.765625 C 37.597656 2.636719 40.867188 3.308594 41.757812 4.835938 C 41.34375 5.3125 41.019531 5.097656 40.632812 4.753906 C 39.445312 3.6875 38.1875 3.640625 37.003906 4.578125 C 36.890625 5.566406 36.992188 5.667969 38.074219 5.664062 C 46.660156 5.648438 55.246094 5.628906 63.832031 5.617188 C 65.289062 5.617188 66.75 5.652344 68.207031 5.683594 C 68.558594 5.6875 68.910156 5.75 69.277344 5.953125 C 69.074219 6.082031 68.867188 6.214844 68.582031 6.394531 C 68.582031 7.953125 68.582031 9.542969 68.582031 11.082031 C 68.441406 11.160156 68.382812 11.222656 68.347656 11.210938 C 66.886719 10.726562 65.238281 11.40625 63.839844 10.4375 C 63.070312 9.898438 62.601562 9.289062 62.757812 8.226562 C 63.113281 8.273438 63.441406 8.328125 63.765625 8.355469 C 64.585938 8.417969 65.125 8.019531 65.175781 7.328125 C 65.234375 6.554688 64.882812 6.1875 63.972656 6.152344 C 63.242188 6.121094 62.511719 6.144531 61.625 6.144531 C 61.625 7.925781 61.625 9.535156 61.625 11.1875 C 61.105469 11.1875 60.753906 11.1875 60.324219 11.1875 C 60.253906 10.113281 60.191406 9.09375 60.125 8.09375 C 59.144531 7.726562 59.109375 7.769531 58.804688 9.6875 C 58.488281 9.6875 58.164062 9.6875 57.800781 9.6875 C 57.550781 8.984375 57.921875 8.054688 57.027344 7.628906 C 56.167969 7.738281 55.945312 8.03125 55.859375 9.171875 C 55.816406 9.789062 55.824219 10.457031 56.441406 10.765625 C 56.949219 11.023438 57.5625 11.078125 58.128906 11.21875 C 57.644531 11.824219 56.230469 11.773438 55.375 11.121094 C 54.359375 10.347656 54.203125 8.765625 55.035156 7.648438 C 55.808594 6.613281 56.605469 6.644531 58.144531 7.683594 C 58.851562 7.441406 59.472656 7.230469 60.222656 6.976562 C 60.207031 6.816406 60.183594 6.523438 60.144531 6.015625 C 58.214844 6.015625 56.332031 5.984375 54.449219 6.027344 C 53.566406 6.046875 53.296875 6.363281 53.277344 7.277344 C 53.257812 8.25 53.308594 9.222656 53.328125 10.195312 C 53.332031 10.503906 53.328125 10.8125 53.328125 11.179688 C 52.90625 11.179688 52.578125 11.179688 52.125 11.179688 C 52.125 9.546875 52.125 7.933594 52.125 6.222656 C 51.683594 6.195312 51.359375 6.175781 50.890625 6.148438 C 50.890625 7.835938 50.890625 9.445312 50.890625 11.132812 C 50.40625 11.132812 50.03125 11.132812 49.527344 11.132812 C 49.527344 10.183594 49.527344 9.285156 49.527344 8.3125 C 49.136719 8.285156 48.867188 8.261719 48.488281 8.234375 C 48.40625 8.671875 48.328125 9.050781 48.269531 9.433594 C 48.09375 10.59375 47.28125 11.160156 46.117188 10.917969 C 45.144531 10.71875 44.625 9.757812 44.929688 8.71875 C 45.15625 7.933594 45.742188 7.628906 46.382812 7.820312 "/>
<path style=" stroke:none;fill-rule:nonzero;fill:rgb(15.609741%,29.057312%,64.183044%);fill-opacity:1;" d="M 104.726562 11.339844 C 105.25 11.582031 105.621094 11.753906 106.058594 11.957031 C 105.742188 12.4375 105.398438 12.667969 104.90625 12.355469 C 104.28125 11.953125 103.664062 11.53125 103.082031 11.074219 C 102.914062 10.945312 102.867188 10.660156 102.6875 10.277344 C 103.859375 10.429688 104.933594 11.0625 105.789062 10.015625 C 105.753906 9.0625 105.492188 8.785156 104.59375 8.738281 C 104.449219 8.734375 104.308594 8.742188 104.164062 8.738281 C 102.996094 8.726562 102.800781 8.480469 103.019531 7.070312 C 103.914062 6.953125 104.863281 6.824219 105.8125 6.699219 C 105.804688 6.617188 105.796875 6.535156 105.789062 6.449219 C 104.5 5.921875 103.171875 6.210938 101.679688 6.34375 C 101.679688 7.996094 101.679688 9.601562 101.679688 11.253906 C 101.183594 11.253906 100.855469 11.253906 100.386719 11.253906 C 100.386719 9.597656 100.386719 7.980469 100.386719 6.335938 C 99.914062 6.335938 99.585938 6.335938 99.113281 6.335938 C 99.113281 7.996094 99.113281 9.613281 99.113281 11.257812 C 98.605469 11.257812 98.246094 11.257812 97.789062 11.257812 C 97.789062 10.449219 97.8125 9.683594 97.78125 8.921875 C 97.746094 8.09375 97.578125 7.980469 96.570312 8.109375 C 96.484375 8.617188 96.394531 9.164062 96.285156 9.792969 C 95.984375 9.792969 95.640625 9.792969 95.269531 9.792969 C 94.96875 9.011719 95.546875 7.710938 93.984375 7.683594 C 93.484375 8.433594 93.113281 9.203125 93.425781 10.101562 C 93.785156 11.140625 94.8125 10.929688 95.605469 11.148438 C 95.242188 11.90625 94.277344 12 93.1875 11.414062 C 92.015625 10.78125 91.640625 9.121094 92.398438 7.886719 C 93.101562 6.734375 94.203125 6.71875 95.632812 7.746094 C 96.328125 7.503906 96.941406 7.289062 97.710938 7.019531 C 97.714844 6.941406 97.726562 6.679688 97.746094 6.296875 C 95.257812 6.296875 92.851562 6.296875 90.503906 6.296875 C 90.59375 6.910156 90.902344 7.582031 90.699219 8.003906 C 90.472656 8.464844 89.773438 8.695312 89.25 9.046875 C 89.71875 10.09375 90.199219 11.148438 91.660156 11.261719 C 91.628906 11.371094 91.597656 11.480469 91.570312 11.589844 C 91.160156 11.648438 90.707031 11.84375 90.351562 11.730469 C 89.800781 11.550781 89.253906 11.234375 88.824219 10.84375 C 88.21875 10.292969 87.714844 9.632812 87.195312 8.996094 C 87.089844 8.867188 87.105469 8.644531 87.054688 8.429688 C 87.917969 8.308594 88.96875 8.832031 89.363281 7.722656 C 89.503906 7.328125 89.257812 6.796875 89.183594 6.304688 C 88.046875 6.304688 87.113281 6.304688 86.027344 6.304688 C 86.027344 7.941406 86.027344 9.554688 86.027344 11.238281 C 85.546875 11.265625 85.21875 11.285156 84.78125 11.308594 C 84.746094 10.496094 84.710938 9.738281 84.675781 8.953125 C 84.351562 8.804688 84.039062 8.664062 83.546875 8.441406 C 84.03125 8.242188 84.328125 8.121094 84.660156 7.980469 C 84.660156 7.46875 84.660156 6.960938 84.660156 6.414062 C 84.347656 6.304688 84.046875 6.199219 83.6875 6.070312 C 84.269531 5.703125 118.089844 5.714844 120.601562 6.039062 C 120.410156 6.167969 120.257812 6.273438 120.027344 6.429688 C 120.027344 7.992188 120.027344 9.589844 120.027344 11.25 C 119.585938 11.25 119.234375 11.25 118.730469 11.25 C 118.730469 10.304688 118.730469 9.375 118.730469 8.449219 C 118.191406 8.339844 117.796875 8.257812 117.398438 8.179688 C 117.394531 8.082031 117.394531 7.988281 117.390625 7.894531 C 117.734375 7.839844 118.074219 7.789062 118.585938 7.710938 C 118.632812 7.347656 118.691406 6.898438 118.769531 6.304688 C 117.777344 6.304688 116.921875 6.304688 116.117188 6.304688 C 116.214844 6.894531 116.519531 7.542969 116.335938 7.988281 C 116.148438 8.429688 115.476562 8.671875 114.976562 9.035156 C 115.65625 9.84375 116.355469 10.667969 117.136719 11.589844 C 117 11.980469 116.574219 12.125 116.132812 11.847656 C 115.664062 11.550781 115.269531 11.121094 114.875 10.714844 C 114.347656 10.167969 113.847656 9.59375 113.355469 9.015625 C 113.253906 8.902344 113.226562 8.726562 113.117188 8.457031 C 113.535156 8.417969 113.863281 8.386719 114.1875 8.351562 C 114.8125 8.28125 115.230469 7.953125 115.203125 7.304688 C 115.179688 6.707031 114.878906 6.273438 114.1875 6.273438 C 111.878906 6.273438 109.566406 6.273438 107.273438 6.273438 C 107.128906 6.617188 107.019531 6.878906 106.914062 7.121094 C 106.027344 7.238281 105.167969 7.34375 104.316406 7.484375 C 104.242188 7.496094 104.214844 7.773438 104.117188 8.082031 C 104.734375 8.175781 105.28125 8.285156 105.828125 8.324219 C 106.511719 8.378906 107.085938 8.527344 107.199219 9.332031 C 107.308594 10.050781 106.964844 10.613281 106.183594 10.917969 C 105.765625 11.078125 105.320312 11.167969 104.726562 11.339844 "/>
<path style=" stroke:none;fill-rule:nonzero;fill:rgb(15.609741%,29.057312%,64.183044%);fill-opacity:1;" d="M 75.230469 9.136719 C 76.292969 8.292969 75.976562 7.269531 75.871094 6.1875 C 75.480469 6.167969 75.15625 6.152344 74.707031 6.128906 C 74.539062 7.53125 74.378906 8.851562 74.9375 10.128906 C 75.183594 10.695312 75.722656 10.847656 76.3125 10.765625 C 76.617188 10.726562 76.917969 10.640625 77.347656 10.546875 C 77.257812 11.125 76.933594 11.3125 76.5 11.398438 C 74.980469 11.710938 73.578125 10.726562 73.40625 9.183594 C 73.339844 8.589844 73.417969 7.980469 73.367188 7.386719 C 73.320312 6.871094 73.179688 6.367188 73.050781 5.6875 C 74.765625 5.683594 76.589844 5.558594 78.410156 5.734375 C 78.421875 5.832031 78.433594 5.929688 78.445312 6.027344 C 78.117188 6.105469 77.789062 6.1875 77.359375 6.296875 C 77.300781 6.890625 77.261719 7.570312 77.164062 8.234375 C 77.003906 9.3125 76.285156 9.683594 75.230469 9.136719 "/>
<path style=" stroke:none;fill-rule:nonzero;fill:rgb(15.609741%,29.057312%,64.183044%);fill-opacity:1;" d="M 79.984375 8.160156 C 80.375 7.9375 80.6875 7.835938 80.894531 7.625 C 81.105469 7.40625 81.40625 6.992188 81.324219 6.832031 C 81.171875 6.535156 80.804688 6.234375 80.480469 6.167969 C 80.125 6.097656 79.714844 6.289062 79.238281 6.382812 C 79.28125 5.808594 79.621094 5.636719 80.058594 5.554688 C 81.027344 5.375 82.296875 5.785156 82.617188 6.386719 C 82.921875 6.953125 82.785156 7.402344 82.023438 8.296875 C 82.15625 8.398438 82.285156 8.5 82.417969 8.597656 C 82.90625 8.953125 83.269531 9.386719 83.140625 10.039062 C 83.011719 10.699219 82.527344 11.050781 81.933594 11.257812 C 80.910156 11.617188 79.664062 11.273438 78.570312 10.324219 C 78.703125 10.101562 78.84375 9.871094 79.027344 9.5625 C 79.597656 10.113281 80.101562 10.722656 80.996094 10.414062 C 81.972656 9.511719 81.808594 9.058594 79.984375 8.160156 "/>
<path style=" stroke:none;fill-rule:nonzero;fill:rgb(15.609741%,29.057312%,64.183044%);fill-opacity:1;" d="M 113.109375 7.683594 C 112.503906 7.566406 112.058594 7.445312 111.605469 7.398438 C 110.300781 7.257812 109.429688 8.0625 109.648438 9.222656 C 109.710938 9.550781 109.941406 9.847656 110.113281 10.199219 C 111.417969 9.648438 110.636719 8.640625 110.832031 7.902344 C 111.488281 7.828125 111.730469 8.210938 111.828125 8.734375 C 111.980469 9.558594 111.601562 10.398438 110.957031 10.714844 C 110.195312 11.085938 109.148438 10.886719 108.585938 10.261719 C 108.023438 9.636719 107.949219 8.640625 108.414062 7.949219 C 109.183594 6.800781 111.765625 6.375 112.875 7.222656 C 112.949219 7.277344 112.972656 7.402344 113.109375 7.683594 "/>
<path style=" stroke:none;fill-rule:nonzero;fill:rgb(15.609741%,29.057312%,64.183044%);fill-opacity:1;" d="M 120.894531 12.753906 C 119.960938 13.222656 119.550781 12.601562 118.933594 12.210938 C 119.28125 12.089844 119.535156 12.003906 119.867188 11.886719 C 120.167969 12.136719 120.480469 12.402344 120.894531 12.753906 "/>
<path style=" stroke:none;fill-rule:nonzero;fill:rgb(15.609741%,29.057312%,64.183044%);fill-opacity:1;" d="M 16.84375 9.859375 C 16.925781 9.753906 17.007812 9.648438 17.085938 9.542969 C 17.359375 9.175781 17.632812 8.804688 17.902344 8.433594 C 17.929688 8.398438 17.949219 8.351562 17.972656 8.308594 C 18.199219 7.992188 18.425781 7.675781 18.660156 7.347656 C 18.589844 7.222656 18.53125 7.097656 18.460938 6.980469 C 18.082031 6.363281 17.699219 5.75 17.324219 5.132812 C 17.011719 4.625 16.699219 4.109375 16.476562 3.550781 C 16.40625 3.371094 16.347656 3.175781 16.332031 2.980469 C 16.289062 2.523438 16.484375 2.238281 16.859375 2.082031 C 16.941406 2.046875 17.027344 2.019531 17.109375 1.984375 C 17.15625 1.964844 17.203125 1.9375 17.269531 1.902344 C 17.210938 1.851562 17.171875 1.8125 17.128906 1.789062 C 16.9375 1.691406 16.757812 1.570312 16.554688 1.511719 C 15.824219 1.292969 15.171875 1.433594 14.644531 2 C 14.488281 2.167969 14.347656 2.351562 14.222656 2.539062 C 13.859375 3.097656 13.507812 3.667969 13.148438 4.230469 C 12.617188 5.054688 12.082031 5.875 11.550781 6.699219 C 11.507812 6.769531 11.46875 6.84375 11.425781 6.917969 C 11.457031 6.964844 11.484375 7.007812 11.511719 7.046875 C 11.746094 7.378906 11.976562 7.710938 12.210938 8.042969 C 12.320312 8.199219 12.425781 8.359375 12.535156 8.515625 C 12.757812 8.832031 12.980469 9.148438 13.207031 9.464844 C 13.246094 9.519531 13.296875 9.566406 13.34375 9.617188 C 13.367188 9.648438 13.394531 9.675781 13.417969 9.707031 C 13.984375 10.488281 14.546875 11.269531 15.109375 12.050781 C 15.140625 12.089844 15.171875 12.125 15.207031 12.164062 C 15.238281 12.125 15.265625 12.101562 15.285156 12.074219 C 15.527344 11.726562 15.769531 11.378906 16.015625 11.03125 C 16.289062 10.636719 16.566406 10.25 16.84375 9.859375 Z M 0 14.195312 C 0.136719 13.984375 0.269531 13.769531 0.40625 13.558594 C 0.996094 12.628906 1.582031 11.703125 2.171875 10.773438 C 2.902344 9.632812 3.636719 8.492188 4.367188 7.351562 C 4.886719 6.542969 5.398438 5.730469 5.917969 4.921875 C 6.160156 4.539062 6.40625 4.152344 6.652344 3.773438 C 6.710938 3.683594 6.792969 3.605469 6.863281 3.523438 C 7.355469 2.953125 8.402344 2.914062 8.925781 3.570312 C 9.238281 3.96875 9.535156 4.386719 9.835938 4.796875 C 10.03125 5.0625 10.222656 5.335938 10.421875 5.601562 C 10.453125 5.648438 10.5 5.6875 10.550781 5.742188 C 10.605469 5.683594 10.65625 5.636719 10.695312 5.582031 C 10.972656 5.15625 11.25 4.726562 11.523438 4.296875 C 12.171875 3.285156 12.816406 2.269531 13.464844 1.253906 C 13.542969 1.132812 13.636719 1.015625 13.726562 0.898438 C 14.132812 0.363281 14.695312 0.105469 15.339844 0.0234375 C 16.300781 -0.101562 17.132812 0.203125 17.875 0.800781 C 18.382812 1.210938 18.832031 1.675781 19.167969 2.242188 C 19.230469 2.347656 19.277344 2.460938 19.347656 2.59375 C 19.277344 2.597656 19.230469 2.601562 19.183594 2.605469 C 18.941406 2.617188 18.699219 2.617188 18.460938 2.644531 C 18.3125 2.660156 18.167969 2.703125 18.03125 2.757812 C 17.78125 2.859375 17.683594 3.066406 17.769531 3.324219 C 17.820312 3.472656 17.890625 3.617188 17.972656 3.75 C 18.382812 4.410156 18.796875 5.066406 19.214844 5.722656 C 19.285156 5.835938 19.367188 5.941406 19.445312 6.050781 C 19.46875 6.082031 19.484375 6.117188 19.515625 6.167969 C 19.648438 5.992188 19.757812 5.851562 19.859375 5.707031 C 20.316406 5.082031 20.761719 4.453125 21.222656 3.832031 C 21.347656 3.664062 21.496094 3.503906 21.660156 3.371094 C 22.179688 2.953125 22.964844 2.992188 23.441406 3.457031 C 23.613281 3.625 23.769531 3.816406 23.898438 4.019531 C 25.070312 5.859375 26.234375 7.707031 27.40625 9.550781 C 27.945312 10.402344 28.488281 11.253906 29.03125 12.105469 C 29.046875 12.128906 29.066406 12.152344 29.085938 12.175781 C 29.125 12.234375 29.164062 12.296875 29.203125 12.355469 C 29.242188 12.414062 29.277344 12.472656 29.316406 12.53125 C 29.367188 12.613281 29.417969 12.695312 29.46875 12.777344 C 29.488281 12.804688 29.507812 12.832031 29.523438 12.859375 C 29.585938 12.957031 29.648438 13.058594 29.710938 13.15625 C 29.714844 13.167969 29.722656 13.179688 29.730469 13.1875 C 29.761719 13.238281 29.792969 13.289062 29.828125 13.339844 C 29.84375 13.367188 29.863281 13.398438 29.882812 13.425781 C 29.914062 13.476562 29.945312 13.523438 29.976562 13.574219 C 30.03125 13.664062 30.089844 13.753906 30.148438 13.84375 C 30.160156 13.863281 30.171875 13.878906 30.183594 13.898438 C 30.242188 13.988281 30.296875 14.078125 30.355469 14.167969 C 30.359375 14.191406 30.363281 14.214844 30.375 14.253906 C 30.328125 14.242188 30.292969 14.242188 30.265625 14.226562 C 29.246094 13.679688 28.289062 13.050781 27.597656 12.097656 C 27.304688 11.6875 27.046875 11.25 26.777344 10.824219 C 25.746094 9.183594 24.714844 7.539062 23.683594 5.894531 C 23.542969 5.667969 23.386719 5.449219 23.25 5.21875 C 22.96875 4.738281 22.367188 4.71875 22.003906 5.078125 C 21.867188 5.214844 21.746094 5.367188 21.636719 5.523438 C 20.847656 6.640625 20.070312 7.761719 19.285156 8.878906 C 18.367188 10.179688 17.445312 11.472656 16.527344 12.769531 C 16.382812 12.96875 16.242188 13.171875 16.09375 13.382812 C 16.363281 13.84375 16.679688 14.253906 16.996094 14.664062 C 17.019531 14.707031 17.039062 14.753906 17.066406 14.792969 C 17.347656 15.199219 17.628906 15.609375 17.914062 16.015625 C 17.96875 16.089844 18.050781 16.148438 18.121094 16.214844 C 19.125 17.609375 20.128906 19 21.136719 20.394531 C 21.648438 21.101562 22.167969 21.808594 22.683594 22.515625 C 22.75 22.605469 22.808594 22.707031 22.886719 22.828125 C 22.820312 22.824219 22.78125 22.832031 22.75 22.816406 C 22.472656 22.707031 22.191406 22.609375 21.929688 22.476562 C 21.023438 22.019531 20.214844 21.425781 19.539062 20.667969 C 19.195312 20.285156 18.878906 19.878906 18.578125 19.460938 C 17.660156 18.179688 16.753906 16.894531 15.847656 15.609375 C 15.386719 14.953125 14.941406 14.285156 14.476562 13.632812 C 13.730469 12.578125 12.96875 11.535156 12.21875 10.480469 C 11.617188 9.636719 11.027344 8.78125 10.425781 7.929688 C 9.804688 7.050781 9.175781 6.171875 8.550781 5.292969 C 8.507812 5.234375 8.460938 5.175781 8.414062 5.117188 C 8.113281 4.726562 7.496094 4.738281 7.214844 5.113281 C 7.136719 5.21875 7.0625 5.320312 6.992188 5.429688 C 5.941406 7.101562 4.890625 8.773438 3.839844 10.445312 C 3.515625 10.957031 3.191406 11.464844 2.867188 11.972656 C 2.632812 12.351562 2.332031 12.671875 1.992188 12.957031 C 1.5 13.378906 0.984375 13.769531 0.40625 14.074219 C 0.277344 14.144531 0.136719 14.195312 0 14.253906 C 0 14.234375 0 14.214844 0 14.195312 "/>
<path style=" stroke:none;fill-rule:nonzero;fill:rgb(94.662476%,31.225586%,17.739868%);fill-opacity:1;" d="M 12.238281 16.304688 C 12.28125 16.246094 12.242188 16.199219 12.210938 16.15625 C 12.039062 15.898438 11.867188 15.636719 11.691406 15.378906 C 10.875 14.230469 10.058594 13.078125 9.242188 11.929688 C 8.84375 11.367188 8.449219 10.804688 8.050781 10.246094 C 8 10.175781 7.949219 10.113281 7.882812 10.03125 C 7.796875 10.132812 7.710938 10.210938 7.652344 10.304688 C 7.441406 10.636719 7.230469 10.976562 7.027344 11.3125 C 6.75 11.777344 6.460938 12.230469 6.132812 12.660156 C 5.644531 13.3125 4.984375 13.707031 4.226562 13.957031 C 3.625 14.15625 3.007812 14.261719 2.375 14.292969 C 1.964844 14.308594 1.554688 14.328125 1.144531 14.335938 C 0.921875 14.335938 0.703125 14.316406 0.480469 14.308594 C 0.480469 14.296875 0.476562 14.285156 0.472656 14.273438 C 0.523438 14.257812 0.574219 14.234375 0.625 14.222656 C 0.921875 14.164062 1.21875 14.113281 1.515625 14.046875 C 1.910156 13.953125 2.296875 13.839844 2.675781 13.683594 C 3.203125 13.460938 3.613281 13.09375 3.925781 12.625 C 4.320312 12.03125 4.707031 11.433594 5.089844 10.832031 C 5.628906 9.988281 6.160156 9.140625 6.695312 8.296875 C 6.933594 7.917969 7.179688 7.539062 7.425781 7.160156 C 7.46875 7.097656 7.523438 7.039062 7.582031 6.988281 C 7.699219 6.886719 7.8125 6.882812 7.933594 6.976562 C 8.011719 7.042969 8.089844 7.117188 8.148438 7.199219 C 8.488281 7.675781 8.820312 8.15625 9.15625 8.632812 C 9.96875 9.792969 10.78125 10.953125 11.589844 12.113281 C 12.359375 13.207031 13.125 14.300781 13.890625 15.394531 C 14.402344 16.125 14.910156 16.855469 15.421875 17.585938 C 15.90625 18.277344 16.398438 18.96875 16.886719 19.660156 C 17.105469 19.964844 17.320312 20.277344 17.558594 20.5625 C 17.933594 21.007812 18.425781 21.296875 18.929688 21.566406 C 19.605469 21.925781 20.320312 22.1875 21.054688 22.398438 C 21.46875 22.515625 21.886719 22.621094 22.300781 22.734375 C 22.398438 22.761719 22.488281 22.808594 22.582031 22.847656 C 22.582031 22.859375 22.578125 22.875 22.578125 22.886719 C 22.53125 22.886719 22.484375 22.890625 22.441406 22.886719 C 22.28125 22.882812 22.125 22.878906 21.964844 22.875 C 21.367188 22.867188 20.769531 22.835938 20.171875 22.761719 C 19.765625 22.710938 19.355469 22.667969 18.953125 22.59375 C 18.175781 22.445312 17.410156 22.242188 16.707031 21.859375 C 16.21875 21.59375 15.808594 21.25 15.511719 20.773438 C 15.421875 20.636719 15.308594 20.511719 15.191406 20.355469 C 15.113281 20.449219 15.054688 20.519531 15 20.59375 C 14.902344 20.722656 14.804688 20.855469 14.710938 20.988281 C 14.378906 21.445312 13.925781 21.753906 13.414062 21.976562 C 12.820312 22.238281 12.195312 22.410156 11.5625 22.554688 C 11.015625 22.679688 10.464844 22.773438 9.910156 22.828125 C 9.394531 22.878906 8.875 22.90625 8.355469 22.917969 C 8.117188 22.921875 7.875 22.867188 7.636719 22.84375 C 7.667969 22.78125 7.71875 22.746094 7.789062 22.753906 C 7.820312 22.765625 7.847656 22.785156 7.875 22.78125 C 8.039062 22.757812 8.199219 22.734375 8.355469 22.699219 C 9.003906 22.542969 9.632812 22.34375 10.25 22.09375 C 10.890625 21.839844 11.511719 21.546875 12.089844 21.167969 C 12.492188 20.898438 12.851562 20.589844 13.125 20.183594 C 13.414062 19.757812 13.710938 19.335938 14 18.914062 C 14.027344 18.878906 14.042969 18.835938 14.070312 18.78125 C 13.785156 18.355469 13.515625 17.917969 13.171875 17.53125 C 13.140625 17.554688 13.121094 17.570312 13.101562 17.585938 C 13.085938 17.515625 13.085938 17.433594 13.046875 17.375 C 12.824219 17.050781 12.589844 16.726562 12.355469 16.40625 C 12.328125 16.363281 12.277344 16.335938 12.238281 16.304688 "/>
<path style=" stroke:none;fill-rule:nonzero;fill:rgb(94.662476%,31.225586%,17.739868%);fill-opacity:1;" d="M 18.121094 16.214844 C 18.050781 16.148438 17.96875 16.089844 17.914062 16.015625 C 17.628906 15.609375 17.347656 15.199219 17.066406 14.792969 C 17.039062 14.753906 17.019531 14.707031 16.996094 14.664062 C 17.03125 14.628906 17.070312 14.601562 17.097656 14.5625 C 17.75 13.628906 18.398438 12.695312 19.050781 11.761719 C 19.714844 10.808594 20.375 9.859375 21.035156 8.910156 C 21.4375 8.332031 21.839844 7.757812 22.242188 7.179688 C 22.28125 7.128906 22.320312 7.078125 22.367188 7.03125 C 22.539062 6.867188 22.710938 6.867188 22.867188 7.050781 C 22.957031 7.15625 23.03125 7.273438 23.109375 7.390625 C 23.820312 8.484375 24.53125 9.582031 25.246094 10.675781 C 25.59375 11.214844 25.960938 11.746094 26.289062 12.300781 C 26.769531 13.113281 27.476562 13.613281 28.363281 13.875 C 28.777344 13.996094 29.203125 14.074219 29.621094 14.167969 C 29.761719 14.199219 29.902344 14.230469 30.042969 14.265625 C 30.078125 14.273438 30.113281 14.289062 30.164062 14.308594 C 30.136719 14.324219 30.125 14.332031 30.113281 14.335938 C 29.777344 14.347656 29.4375 14.367188 29.101562 14.363281 C 28.339844 14.355469 27.578125 14.304688 26.835938 14.128906 C 26.164062 13.972656 25.53125 13.726562 24.972656 13.308594 C 24.605469 13.03125 24.335938 12.675781 24.101562 12.285156 C 23.648438 11.53125 23.195312 10.777344 22.738281 10.023438 C 22.707031 9.96875 22.660156 9.929688 22.605469 9.863281 C 22.523438 9.96875 22.457031 10.046875 22.398438 10.128906 C 22.011719 10.679688 21.625 11.230469 21.234375 11.78125 C 20.550781 12.753906 19.863281 13.730469 19.175781 14.707031 C 18.855469 15.152344 18.539062 15.601562 18.222656 16.050781 C 18.1875 16.105469 18.15625 16.160156 18.121094 16.214844 "/>
<path style=" stroke:none;fill-rule:nonzero;fill:rgb(15.609741%,29.057312%,64.183044%);fill-opacity:1;" d="M 12.238281 16.304688 C 12.277344 16.335938 12.328125 16.363281 12.355469 16.40625 C 12.589844 16.726562 12.824219 17.050781 13.046875 17.375 C 13.085938 17.433594 13.085938 17.515625 13.101562 17.585938 C 13.019531 17.71875 12.9375 17.855469 12.84375 17.980469 C 12.40625 18.597656 11.960938 19.207031 11.523438 19.824219 C 11.175781 20.308594 10.796875 20.757812 10.351562 21.15625 C 9.65625 21.78125 8.902344 22.316406 8.027344 22.667969 C 7.957031 22.695312 7.886719 22.722656 7.8125 22.75 C 7.804688 22.753906 7.796875 22.753906 7.789062 22.753906 C 7.71875 22.746094 7.667969 22.78125 7.636719 22.84375 C 7.601562 22.835938 7.570312 22.832031 7.511719 22.824219 C 7.554688 22.753906 7.585938 22.695312 7.625 22.640625 C 8.183594 21.863281 8.742188 21.085938 9.304688 20.308594 C 10.148438 19.140625 10.988281 17.976562 11.832031 16.8125 C 11.960938 16.636719 12.101562 16.472656 12.238281 16.304688 "/>
<path style=" stroke:none;fill-rule:nonzero;fill:rgb(94.662476%,31.225586%,17.739868%);fill-opacity:1;" d="M 12.210938 8.042969 C 12.289062 8.074219 12.304688 8 12.332031 7.960938 C 12.453125 7.777344 12.578125 7.589844 12.695312 7.402344 C 13.183594 6.601562 13.675781 5.800781 14.164062 5 C 14.296875 4.789062 14.4375 4.585938 14.628906 4.425781 C 14.84375 4.242188 15.035156 4.230469 15.261719 4.394531 C 15.472656 4.542969 15.613281 4.757812 15.746094 4.96875 C 16.332031 5.878906 16.914062 6.792969 17.496094 7.707031 C 17.628906 7.914062 17.765625 8.121094 17.902344 8.335938 C 17.929688 8.324219 17.949219 8.316406 17.972656 8.308594 C 17.949219 8.351562 17.929688 8.398438 17.902344 8.433594 C 17.632812 8.804688 17.359375 9.175781 17.085938 9.542969 C 17.007812 9.648438 16.925781 9.753906 16.84375 9.859375 C 16.855469 9.824219 16.863281 9.792969 16.863281 9.789062 C 16.53125 9.261719 16.214844 8.757812 15.890625 8.253906 C 15.636719 7.851562 15.378906 7.457031 15.117188 7.058594 C 15.09375 7.019531 15.058594 6.984375 15.011719 6.929688 C 14.902344 7.101562 14.804688 7.253906 14.707031 7.40625 C 14.28125 8.070312 13.851562 8.738281 13.429688 9.40625 C 13.386719 9.46875 13.371094 9.546875 13.34375 9.617188 C 13.296875 9.566406 13.246094 9.519531 13.207031 9.464844 C 12.980469 9.148438 12.757812 8.832031 12.535156 8.515625 C 12.425781 8.359375 12.320312 8.199219 12.210938 8.042969 "/>
<path style=" stroke:none;fill-rule:nonzero;fill:rgb(52.653503%,51.791382%,52.005005%);fill-opacity:1;" d="M 8.027344 22.667969 C 7.957031 22.695312 7.886719 22.722656 7.8125 22.75 C 7.886719 22.722656 7.957031 22.695312 8.027344 22.667969 "/>
<g clip-path="url(#clip1)" clip-rule="nonzero">
<path style=" stroke:none;fill-rule:nonzero;fill:rgb(15.609741%,29.057312%,64.183044%);fill-opacity:1;" d="M 40.359375 16.332031 L 41.882812 16.332031 L 41.882812 24.742188 L 40.359375 24.742188 L 40.359375 21.390625 L 36.605469 21.390625 L 36.605469 24.742188 L 35.09375 24.742188 L 35.09375 16.332031 L 36.605469 16.332031 L 36.605469 19.84375 L 40.359375 19.84375 L 40.359375 16.332031 "/>
</g>
<g clip-path="url(#clip2)" clip-rule="nonzero">
<path style=" stroke:none;fill-rule:nonzero;fill:rgb(15.609741%,29.057312%,64.183044%);fill-opacity:1;" d="M 45.546875 16.332031 L 47.058594 16.332031 L 47.058594 24.742188 L 45.546875 24.742188 L 45.546875 16.332031 "/>
</g>
<g clip-path="url(#clip3)" clip-rule="nonzero">
<path style=" stroke:none;fill-rule:nonzero;fill:rgb(15.609741%,29.057312%,64.183044%);fill-opacity:1;" d="M 52.292969 16.332031 L 55.007812 21.179688 L 57.757812 16.332031 L 59.316406 16.332031 L 59.316406 24.742188 L 57.796875 24.742188 L 57.796875 18.84375 L 55.453125 23.082031 L 54.546875 23.082031 L 52.234375 18.84375 L 52.234375 24.742188 L 50.722656 24.742188 L 50.722656 16.332031 L 52.292969 16.332031 "/>
</g>
<g clip-path="url(#clip4)" clip-rule="nonzero">
<path style=" stroke:none;fill-rule:nonzero;fill:rgb(15.609741%,29.057312%,64.183044%);fill-opacity:1;" d="M 66.949219 21.476562 L 65.925781 18.125 L 64.890625 21.476562 Z M 66.757812 16.269531 L 69.492188 24.742188 L 67.8125 24.742188 L 67.234375 22.910156 L 64.601562 22.910156 L 64.027344 24.742188 L 62.347656 24.742188 L 65.082031 16.269531 L 66.757812 16.269531 "/>
</g>
<g clip-path="url(#clip5)" clip-rule="nonzero">
<path style=" stroke:none;fill-rule:nonzero;fill:rgb(15.609741%,29.057312%,64.183044%);fill-opacity:1;" d="M 74.042969 16.332031 L 74.042969 23.207031 L 78.09375 23.207031 L 78.09375 24.742188 L 72.53125 24.742188 L 72.53125 16.332031 L 74.042969 16.332031 "/>
</g>
<g clip-path="url(#clip6)" clip-rule="nonzero">
<path style=" stroke:none;fill-rule:nonzero;fill:rgb(15.609741%,29.057312%,64.183044%);fill-opacity:1;" d="M 85.25 21.476562 L 84.226562 18.125 L 83.191406 21.476562 Z M 85.058594 16.269531 L 87.792969 24.742188 L 86.113281 24.742188 L 85.535156 22.910156 L 82.90625 22.910156 L 82.328125 24.742188 L 80.648438 24.742188 L 83.382812 16.269531 L 85.058594 16.269531 "/>
</g>
<g clip-path="url(#clip7)" clip-rule="nonzero">
<path style=" stroke:none;fill-rule:nonzero;fill:rgb(15.609741%,29.057312%,64.183044%);fill-opacity:1;" d="M 92.59375 21.636719 L 89.808594 16.332031 L 91.648438 16.332031 L 93.367188 19.855469 L 95.09375 16.332031 L 96.945312 16.332031 L 94.121094 21.648438 L 94.121094 24.742188 L 92.59375 24.742188 L 92.59375 21.636719 "/>
</g>
<g clip-path="url(#clip8)" clip-rule="nonzero">
<path style=" stroke:none;fill-rule:nonzero;fill:rgb(15.609741%,29.057312%,64.183044%);fill-opacity:1;" d="M 103.320312 21.476562 L 102.300781 18.125 L 101.265625 21.476562 Z M 103.132812 16.269531 L 105.863281 24.742188 L 104.1875 24.742188 L 103.609375 22.910156 L 100.976562 22.910156 L 100.402344 24.742188 L 98.722656 24.742188 L 101.453125 16.269531 L 103.132812 16.269531 "/>
</g>
<g clip-path="url(#clip9)" clip-rule="nonzero">
<path style=" stroke:none;fill-rule:nonzero;fill:rgb(15.609741%,29.057312%,64.183044%);fill-opacity:1;" d="M 117.203125 21.476562 L 116.179688 18.125 L 115.144531 21.476562 Z M 117.015625 16.269531 L 119.746094 24.742188 L 118.066406 24.742188 L 117.488281 22.910156 L 114.855469 22.910156 L 114.28125 24.742188 L 112.601562 24.742188 L 115.335938 16.269531 L 117.015625 16.269531 "/>
</g>
<g clip-path="url(#clip10)" clip-rule="nonzero">
<path style=" stroke:none;fill-rule:nonzero;fill:rgb(15.609741%,29.057312%,64.183044%);fill-opacity:1;" d="M 122.90625 16.332031 L 124.414062 16.332031 L 124.414062 24.742188 L 122.90625 24.742188 L 122.90625 16.332031 "/>
</g>
<g clip-path="url(#clip11)" clip-rule="nonzero">
<path style=" stroke:none;fill-rule:nonzero;fill:rgb(15.609741%,29.057312%,64.183044%);fill-opacity:1;" d="M 129.59375 20.203125 L 131.578125 20.203125 C 132.15625 20.191406 132.710938 19.878906 132.710938 19.199219 L 132.710938 18.890625 C 132.710938 18.234375 132.242188 17.878906 131.558594 17.878906 L 129.59375 17.878906 Z M 132.730469 21.230469 L 134.449219 24.742188 L 132.800781 24.742188 L 131.3125 21.636719 L 129.59375 21.636719 L 129.59375 24.742188 L 128.082031 24.742188 L 128.082031 16.332031 L 131.65625 16.332031 C 133.207031 16.332031 134.230469 17.121094 134.230469 18.765625 L 134.230469 19.050781 C 134.230469 20.214844 133.625 20.933594 132.730469 21.230469 "/>
</g>
<g clip-path="url(#clip12)" clip-rule="nonzero">
<path style=" stroke:none;fill-rule:nonzero;fill:rgb(15.609741%,29.057312%,64.183044%);fill-opacity:1;" d="M 139.011719 16.332031 L 139.011719 23.207031 L 143.0625 23.207031 L 143.0625 24.742188 L 137.5 24.742188 L 137.5 16.332031 L 139.011719 16.332031 "/>
</g>
<g clip-path="url(#clip13)" clip-rule="nonzero">
<path style=" stroke:none;fill-rule:nonzero;fill:rgb(15.609741%,29.057312%,64.183044%);fill-opacity:1;" d="M 146.164062 16.332031 L 147.675781 16.332031 L 147.675781 24.742188 L 146.164062 24.742188 L 146.164062 16.332031 "/>
</g>
<g clip-path="url(#clip14)" clip-rule="nonzero">
<path style=" stroke:none;fill-rule:nonzero;fill:rgb(15.609741%,29.057312%,64.183044%);fill-opacity:1;" d="M 156.535156 16.332031 L 157.9375 16.332031 L 157.9375 24.742188 L 156.507812 24.742188 L 152.742188 18.792969 L 152.742188 24.742188 L 151.339844 24.742188 L 151.339844 16.332031 L 152.769531 16.332031 L 156.535156 22.242188 L 156.535156 16.332031 "/>
</g>
<g clip-path="url(#clip15)" clip-rule="nonzero">
<path style=" stroke:none;fill-rule:nonzero;fill:rgb(15.609741%,29.057312%,64.183044%);fill-opacity:1;" d="M 162.984375 21.214844 L 162.984375 23.207031 L 166.949219 23.207031 L 166.949219 24.742188 L 161.476562 24.742188 L 161.476562 16.332031 L 166.738281 16.332031 L 166.738281 17.878906 L 162.984375 17.878906 L 162.984375 19.71875 L 166.132812 19.71875 L 166.132812 21.214844 L 162.984375 21.214844 "/>
</g>
<g clip-path="url(#clip16)" clip-rule="nonzero">
<path style=" stroke:none;fill-rule:nonzero;fill:rgb(15.609741%,29.057312%,64.183044%);fill-opacity:1;" d="M 176 22.265625 C 176.011719 23.960938 174.6875 24.839844 173.128906 24.839844 C 172.007812 24.839844 170.726562 24.34375 169.988281 23.503906 L 170.585938 22.265625 C 171.300781 22.875 172.136719 23.304688 173.128906 23.304688 C 174.082031 23.304688 174.429688 22.910156 174.429688 22.34375 C 174.429688 21.773438 174.171875 21.5 172.78125 21.242188 C 170.964844 20.882812 170.15625 20.226562 170.148438 18.792969 C 170.128906 17.097656 171.527344 16.21875 172.980469 16.21875 C 174.070312 16.21875 174.925781 16.503906 175.882812 17.257812 L 175.3125 18.617188 C 174.449219 18 173.835938 17.777344 172.980469 17.777344 C 172.136719 17.777344 171.707031 18.199219 171.707031 18.765625 C 171.707031 19.3125 172.015625 19.582031 173.296875 19.78125 C 174.925781 20.042969 175.988281 20.636719 176 22.265625 "/>
</g>
</g>
</svg>
