<?xml version="1.0" encoding="UTF-8"?>
<svg xmlns="http://www.w3.org/2000/svg" xmlns:xlink="http://www.w3.org/1999/xlink" width="176pt" height="47.28pt" viewBox="0 0 176 47.28" version="1.1">
<defs>
<clipPath id="clip1">
  <path d="M 0 0 L 50 0 L 50 47.28125 L 0 47.28125 Z M 0 0 "/>
</clipPath>
</defs>
<g id="surface1">
<path style=" stroke:none;fill-rule:evenodd;fill:rgb(40.130615%,19.935608%,60.572815%);fill-opacity:1;" d="M 175.003906 22.820312 L 175.003906 8.613281 L 172.761719 8.613281 L 172.761719 17.894531 L 162.617188 9.125 C 162.234375 8.792969 161.703125 8.613281 161.148438 8.613281 L 158.589844 8.613281 L 158.589844 22.824219 L 160.867188 22.824219 L 160.867188 13.429688 L 171.070312 22.253906 C 171.484375 22.613281 172.015625 22.820312 172.601562 22.820312 L 175.003906 22.820312 "/>
<path style=" stroke:none;fill-rule:evenodd;fill:rgb(40.130615%,19.935608%,60.572815%);fill-opacity:1;" d="M 131.9375 20.558594 L 131.9375 8.617188 L 129.75 8.617188 C 128.5 8.617188 127.484375 9.628906 127.484375 10.882812 L 127.484375 22.820312 L 129.710938 22.820312 C 130.945312 22.800781 131.9375 21.796875 131.9375 20.558594 "/>
<path style=" stroke:none;fill-rule:evenodd;fill:rgb(40.130615%,19.935608%,60.572815%);fill-opacity:1;" d="M 139.496094 20.558594 L 139.496094 8.617188 L 137.308594 8.617188 C 136.058594 8.617188 135.042969 9.628906 135.042969 10.882812 L 135.042969 22.820312 L 137.269531 22.820312 C 138.503906 22.800781 139.496094 21.796875 139.496094 20.558594 "/>
<path style=" stroke:none;fill-rule:evenodd;fill:rgb(40.130615%,19.935608%,60.572815%);fill-opacity:1;" d="M 68.894531 8.613281 C 67.644531 8.613281 66.628906 9.628906 66.628906 10.878906 L 66.628906 14.644531 L 59.160156 14.644531 L 59.160156 8.613281 L 56.972656 8.613281 C 55.71875 8.613281 54.707031 9.628906 54.707031 10.878906 L 54.707031 22.824219 L 56.929688 22.820312 C 58.164062 22.820312 59.160156 21.792969 59.160156 20.554688 L 59.160156 16.886719 L 66.628906 16.886719 L 66.628906 22.824219 L 68.855469 22.820312 C 70.09375 22.820312 71.082031 21.792969 71.082031 20.554688 L 71.082031 8.613281 L 68.894531 8.613281 "/>
<path style=" stroke:none;fill-rule:evenodd;fill:rgb(40.130615%,19.935608%,60.572815%);fill-opacity:1;" d="M 77.050781 17.292969 L 79.230469 13.136719 L 81.414062 17.292969 Z M 84.316406 22.820312 L 89.3125 22.820312 L 82.445312 9.742188 C 82.066406 9.023438 81.3125 8.53125 80.441406 8.53125 C 79.570312 8.53125 78.816406 9.023438 78.4375 9.742188 L 71.570312 22.820312 L 74.148438 22.820312 L 76.027344 19.242188 L 82.4375 19.242188 L 84.316406 22.820312 "/>
<path style=" stroke:none;fill-rule:evenodd;fill:rgb(40.130615%,19.935608%,60.572815%);fill-opacity:1;" d="M 114.328125 17.292969 L 116.511719 13.136719 L 118.691406 17.292969 Z M 121.59375 22.820312 L 126.589844 22.820312 L 119.726562 9.742188 C 119.347656 9.023438 118.589844 8.53125 117.71875 8.53125 C 116.847656 8.53125 116.09375 9.023438 115.714844 9.742188 L 108.847656 22.820312 L 111.425781 22.820312 L 113.308594 19.242188 L 119.714844 19.242188 L 121.59375 22.820312 "/>
<path style=" stroke:none;fill-rule:evenodd;fill:rgb(40.130615%,19.935608%,60.572815%);fill-opacity:1;" d="M 145.46875 17.292969 L 147.648438 13.136719 L 149.828125 17.292969 Z M 152.730469 22.820312 L 157.726562 22.820312 L 150.863281 9.742188 C 150.484375 9.023438 149.730469 8.53125 148.855469 8.53125 C 147.984375 8.53125 147.230469 9.023438 146.851562 9.742188 L 139.980469 22.820312 L 142.5625 22.820312 L 144.445312 19.242188 L 150.855469 19.242188 L 152.730469 22.820312 "/>
<path style=" stroke:none;fill-rule:evenodd;fill:rgb(40.130615%,19.935608%,60.572815%);fill-opacity:1;" d="M 101.417969 9.394531 C 101.1875 8.886719 100.679688 8.53125 100.085938 8.53125 C 99.484375 8.53125 98.96875 8.894531 98.746094 9.414062 L 95.042969 17.949219 L 90.785156 9.835938 C 90.398438 9.097656 89.492188 8.617188 88.597656 8.617188 L 85.152344 8.613281 L 91.820312 21.320312 C 92.285156 22.210938 93.03125 22.820312 94.035156 22.820312 L 95.417969 22.820312 L 98.953125 14.671875 L 101.957031 21.320312 C 102.347656 22.1875 103.164062 22.820312 104.171875 22.820312 L 105.804688 22.820312 L 113.222656 8.613281 L 112.148438 8.613281 C 111.257812 8.613281 110.460938 9.097656 110.074219 9.835938 L 105.523438 18.496094 L 101.417969 9.394531 "/>
<path style=" stroke:none;fill-rule:evenodd;fill:rgb(40.130615%,19.935608%,60.572815%);fill-opacity:1;" d="M 92.617188 32.824219 C 92.617188 31.988281 92.382812 31.375 91.90625 30.988281 C 91.429688 30.597656 90.667969 30.402344 89.621094 30.402344 C 88.644531 30.402344 87.898438 30.609375 87.390625 31.023438 C 86.878906 31.4375 86.621094 32.035156 86.621094 32.824219 L 86.621094 39.351562 L 88.769531 39.351562 L 88.769531 34.609375 L 90.472656 34.609375 L 90.472656 39.351562 L 92.617188 39.351562 Z M 88.769531 33.425781 L 88.769531 32.464844 C 88.769531 32.09375 88.832031 31.832031 88.953125 31.683594 C 89.074219 31.53125 89.300781 31.457031 89.632812 31.457031 C 89.933594 31.457031 90.148438 31.53125 90.277344 31.683594 C 90.40625 31.835938 90.472656 32.097656 90.472656 32.464844 L 90.472656 33.425781 L 88.769531 33.425781 "/>
<path style=" stroke:none;fill-rule:evenodd;fill:rgb(40.130615%,19.935608%,60.572815%);fill-opacity:1;" d="M 95.605469 39.351562 L 97.753906 39.351562 L 97.753906 30.492188 L 95.605469 30.492188 L 95.605469 39.351562 "/>
<path style=" stroke:none;fill-rule:evenodd;fill:rgb(40.130615%,19.935608%,60.572815%);fill-opacity:1;" d="M 107.402344 38.367188 C 107.128906 38.367188 106.941406 38.328125 106.851562 38.253906 C 106.757812 38.175781 106.710938 38.03125 106.710938 37.824219 L 106.710938 35.984375 C 106.710938 35.59375 106.570312 35.261719 106.289062 34.996094 C 106.011719 34.734375 105.617188 34.574219 105.109375 34.523438 C 105.613281 34.398438 105.992188 34.171875 106.242188 33.847656 C 106.496094 33.523438 106.621094 33.097656 106.621094 32.566406 C 106.621094 31.863281 106.417969 31.34375 106.003906 31.003906 C 105.59375 30.664062 104.9375 30.492188 104.046875 30.492188 L 100.78125 30.492188 L 100.78125 39.351562 L 102.929688 39.351562 L 102.929688 35.257812 L 103.8125 35.257812 C 104.070312 35.257812 104.273438 35.316406 104.417969 35.429688 C 104.558594 35.542969 104.632812 35.714844 104.632812 35.941406 L 104.632812 37.488281 C 104.632812 38.148438 104.808594 38.621094 105.15625 38.914062 C 105.507812 39.207031 106.09375 39.351562 106.917969 39.351562 L 107.402344 39.351562 Z M 104.238281 33.894531 C 104.09375 34.089844 103.863281 34.183594 103.546875 34.183594 L 102.929688 34.183594 L 102.929688 31.476562 L 103.488281 31.476562 C 103.855469 31.476562 104.105469 31.574219 104.242188 31.761719 C 104.382812 31.953125 104.453125 32.316406 104.453125 32.859375 C 104.453125 33.355469 104.382812 33.699219 104.238281 33.894531 "/>
<path style=" stroke:none;fill-rule:evenodd;fill:rgb(40.130615%,19.935608%,60.572815%);fill-opacity:1;" d="M 114.796875 39.351562 L 112.101562 39.351562 C 111.277344 39.351562 110.648438 39.171875 110.214844 38.800781 C 109.777344 38.433594 109.5625 37.910156 109.5625 37.222656 L 109.5625 30.492188 L 111.707031 30.492188 L 111.707031 37.171875 C 111.707031 37.652344 111.8125 37.976562 112.023438 38.132812 C 112.230469 38.289062 112.527344 38.367188 112.90625 38.367188 L 114.796875 38.367188 L 114.796875 39.351562 "/>
<path style=" stroke:none;fill-rule:evenodd;fill:rgb(40.130615%,19.935608%,60.572815%);fill-opacity:1;" d="M 117.089844 39.351562 L 119.238281 39.351562 L 119.238281 30.492188 L 117.089844 30.492188 L 117.089844 39.351562 "/>
<path style=" stroke:none;fill-rule:evenodd;fill:rgb(40.130615%,19.935608%,60.572815%);fill-opacity:1;" d="M 127.996094 39.351562 L 125.847656 39.351562 L 125.847656 32.339844 C 125.847656 32.078125 125.765625 31.878906 125.597656 31.746094 C 125.429688 31.613281 125.160156 31.546875 124.800781 31.546875 L 124.414062 31.546875 L 124.414062 39.351562 L 122.269531 39.351562 L 122.269531 30.492188 L 123.96875 30.492188 L 124.210938 30.882812 C 124.402344 30.75 124.640625 30.652344 124.917969 30.585938 C 125.199219 30.523438 125.503906 30.492188 125.835938 30.492188 C 126.515625 30.492188 127.042969 30.652344 127.425781 30.964844 C 127.804688 31.28125 127.996094 31.714844 127.996094 32.269531 L 127.996094 39.351562 "/>
<path style=" stroke:none;fill-rule:evenodd;fill:rgb(40.130615%,19.935608%,60.572815%);fill-opacity:1;" d="M 135.828125 39.351562 L 133.371094 39.351562 C 132.464844 39.351562 131.785156 39.167969 131.324219 38.792969 C 130.867188 38.417969 130.636719 37.851562 130.636719 37.089844 L 130.636719 32.777344 C 130.636719 31.867188 130.835938 31.261719 131.234375 30.953125 C 131.628906 30.648438 132.371094 30.492188 133.449219 30.492188 L 135.558594 30.492188 L 135.558594 31.476562 L 134.015625 31.476562 C 133.546875 31.476562 133.222656 31.5625 133.046875 31.734375 C 132.871094 31.910156 132.785156 32.210938 132.785156 32.636719 L 132.785156 33.402344 L 135.335938 33.402344 L 135.335938 34.609375 L 132.785156 34.609375 L 132.785156 36.894531 C 132.785156 37.421875 132.890625 37.800781 133.105469 38.027344 C 133.320312 38.253906 133.691406 38.367188 134.222656 38.367188 L 135.828125 38.367188 L 135.828125 39.351562 "/>
<path style=" stroke:none;fill-rule:evenodd;fill:rgb(40.130615%,19.935608%,60.572815%);fill-opacity:1;" d="M 143.300781 36.996094 C 143.300781 37.816406 143.050781 38.4375 142.542969 38.859375 C 142.035156 39.277344 141.296875 39.488281 140.324219 39.488281 C 139.445312 39.488281 138.761719 39.296875 138.269531 38.917969 C 137.773438 38.535156 137.527344 37.988281 137.527344 37.273438 L 139.542969 37.273438 C 139.542969 37.566406 139.613281 37.792969 139.753906 37.953125 C 139.894531 38.109375 140.101562 38.191406 140.382812 38.191406 C 140.667969 38.191406 140.890625 38.121094 141.050781 37.984375 C 141.207031 37.84375 141.285156 37.652344 141.285156 37.402344 C 141.285156 37.140625 141.226562 36.902344 141.101562 36.691406 C 140.980469 36.484375 140.785156 36.269531 140.53125 36.050781 C 140.394531 35.929688 140.082031 35.683594 139.589844 35.316406 C 139.097656 34.949219 138.804688 34.734375 138.714844 34.664062 C 138.335938 34.351562 138.054688 34.023438 137.867188 33.691406 C 137.6875 33.355469 137.597656 32.992188 137.597656 32.605469 C 137.597656 31.941406 137.851562 31.40625 138.359375 31.003906 C 138.871094 30.605469 139.53125 30.402344 140.339844 30.402344 C 141.152344 30.402344 141.796875 30.597656 142.265625 30.988281 C 142.730469 31.378906 142.964844 31.914062 142.964844 32.597656 L 140.949219 32.597656 C 140.949219 32.304688 140.890625 32.082031 140.769531 31.929688 C 140.648438 31.777344 140.457031 31.703125 140.199219 31.703125 C 139.976562 31.703125 139.808594 31.761719 139.691406 31.878906 C 139.578125 31.996094 139.519531 32.15625 139.519531 32.363281 C 139.519531 32.523438 139.574219 32.683594 139.6875 32.839844 C 139.796875 32.996094 140.007812 33.1875 140.316406 33.417969 C 140.355469 33.449219 140.636719 33.648438 141.148438 34.015625 C 141.660156 34.378906 142.027344 34.660156 142.246094 34.847656 C 142.625 35.183594 142.894531 35.523438 143.058594 35.859375 C 143.222656 36.195312 143.300781 36.574219 143.300781 36.996094 "/>
<path style=" stroke:none;fill-rule:evenodd;fill:rgb(40.130615%,19.935608%,60.572815%);fill-opacity:1;" d="M 82.992188 34.066406 L 54.351562 35.21875 L 82.753906 36.375 L 82.753906 34.066406 L 82.992188 34.066406 "/>
<path style=" stroke:none;fill-rule:evenodd;fill:rgb(40.130615%,19.935608%,60.572815%);fill-opacity:1;" d="M 147.359375 34.066406 L 176 35.21875 L 147.601562 36.375 L 147.601562 34.066406 L 147.359375 34.066406 "/>
<path style=" stroke:none;fill-rule:evenodd;fill:rgb(40.130615%,19.935608%,60.572815%);fill-opacity:1;" d="M 144.953125 37.554688 C 144.40625 37.554688 143.96875 37.992188 143.96875 38.539062 C 143.96875 39.085938 144.40625 39.523438 144.953125 39.523438 C 145.5 39.523438 145.9375 39.085938 145.9375 38.539062 C 145.9375 37.992188 145.5 37.554688 144.953125 37.554688 Z M 144.71875 38.46875 L 144.71875 38.183594 L 144.914062 38.183594 C 145.058594 38.183594 145.132812 38.230469 145.132812 38.324219 C 145.132812 38.398438 145.082031 38.46875 144.9375 38.46875 Z M 145.417969 39.066406 L 145.296875 38.855469 C 145.191406 38.671875 145.160156 38.640625 145.070312 38.609375 L 145.070312 38.605469 C 145.246094 38.585938 145.355469 38.46875 145.355469 38.3125 C 145.355469 38.148438 145.246094 38.019531 145.023438 38.019531 L 144.507812 38.019531 L 144.507812 39.066406 L 144.71875 39.066406 L 144.71875 38.636719 L 144.757812 38.636719 C 144.851562 38.636719 144.886719 38.648438 144.929688 38.6875 C 144.972656 38.730469 145.035156 38.820312 145.070312 38.894531 L 145.15625 39.066406 Z M 144.953125 37.75 C 145.390625 37.75 145.746094 38.101562 145.746094 38.539062 C 145.746094 38.976562 145.390625 39.332031 144.953125 39.332031 C 144.515625 39.332031 144.160156 38.976562 144.160156 38.539062 C 144.160156 38.101562 144.515625 37.75 144.953125 37.75 "/>
<g clip-path="url(#clip1)" clip-rule="nonzero">
<path style=" stroke:none;fill-rule:evenodd;fill:rgb(100%,100%,100%);fill-opacity:1;" d="M 46.976562 16.738281 C 47 16.535156 47.023438 16.328125 47.023438 16.125 C 47.023438 15.355469 46.878906 14.589844 46.597656 13.886719 C 46.871094 13.417969 47.015625 12.90625 47.015625 12.371094 C 47.015625 12.078125 46.96875 11.777344 46.882812 11.480469 C 46.574219 10.429688 46.457031 9.398438 46.457031 8.941406 C 46.457031 8.871094 46.457031 8.816406 46.464844 8.773438 L 46.574219 7.867188 L 45.683594 8.0625 C 45.179688 8.171875 44.570312 7.824219 44.03125 7.519531 L 43.453125 7.210938 C 43.097656 7.046875 42.324219 6.695312 41.46875 6.773438 C 41.355469 5.941406 40.492188 4.546875 37.894531 4.316406 C 36.753906 4.214844 35.964844 3.960938 35.769531 3.808594 L 35.226562 3.398438 L 34.886719 3.902344 C 32.367188 1.582031 27.953125 0.113281 24.882812 0.0078125 C 23.769531 -0.03125 18.164062 -0.0273438 14.8125 3.496094 C 12.5 3.304688 6.804688 4.589844 3.113281 12.742188 C 2.945312 13.109375 2.636719 13.796875 3.0625 14.261719 C 3.191406 14.402344 3.40625 14.53125 3.742188 14.511719 C 3.582031 14.628906 3.429688 14.753906 3.292969 14.882812 C 0.738281 17.445312 0 20.117188 0 22.355469 C 0 24.914062 0.96875 26.90625 1.300781 27.519531 C 1.511719 27.902344 1.773438 28.320312 2.25 28.421875 C 2.574219 28.492188 2.859375 28.382812 3.097656 28.238281 C 2.605469 28.941406 2.496094 29.648438 2.496094 30.316406 C 2.496094 30.421875 2.5 30.527344 2.503906 30.628906 C 2.652344 34.398438 6.992188 38.714844 10.039062 40.15625 C 10.605469 40.414062 11.078125 40.628906 11.515625 40.320312 C 11.808594 40.105469 11.878906 39.769531 11.882812 39.496094 C 12.265625 40.902344 13.15625 41.960938 14.523438 42.5625 C 15.367188 42.9375 16.332031 43.144531 17.351562 43.363281 C 19.683594 43.859375 22.09375 44.375 23.664062 46.871094 C 23.871094 47.222656 24.148438 47.285156 24.34375 47.28125 C 24.5 47.273438 24.792969 47.207031 24.980469 46.828125 C 25.257812 46.226562 25.46875 45.632812 25.628906 45.042969 C 25.660156 45.15625 25.71875 45.265625 25.835938 45.367188 C 26.28125 45.753906 26.78125 45.402344 27.222656 45.09375 C 29.65625 43.382812 32.429688 42.585938 34.304688 42.136719 C 37.648438 41.332031 40.140625 40.363281 41.910156 39.175781 C 45.640625 36.675781 46.480469 33.535156 46.648438 31.882812 C 46.667969 31.6875 46.675781 31.492188 46.675781 31.300781 C 46.675781 30.125 46.300781 29.070312 45.59375 28.1875 C 45.601562 28.191406 45.609375 28.195312 45.617188 28.203125 C 46.285156 28.667969 46.855469 28.941406 47.605469 27.929688 C 48.308594 26.980469 49.074219 25.066406 49.074219 22.800781 C 49.074219 20.910156 48.53125 18.769531 46.976562 16.738281 "/>
</g>
<path style=" stroke:none;fill-rule:evenodd;fill:rgb(40.130615%,19.935608%,60.572815%);fill-opacity:1;" d="M 45.957031 27.570312 C 46.507812 27.957031 46.621094 28.027344 47.050781 27.445312 C 48.078125 26.0625 49.796875 21.207031 46.285156 16.832031 C 46.449219 15.746094 46.265625 14.625 45.832031 13.722656 C 45.570312 14.074219 45.214844 14.382812 44.792969 14.625 C 44.433594 14.070312 43.710938 13.789062 43.066406 13.765625 C 42.6875 13.753906 42.792969 13.90625 42.976562 13.984375 C 45.648438 15.101562 44.707031 18.214844 44.359375 18.875 C 44.007812 19.550781 44.085938 20.394531 44.085938 20.394531 C 43.253906 20.152344 42.503906 20.359375 41.832031 20.464844 C 40.507812 20.675781 39.621094 20.441406 38.933594 20.125 C 38.386719 19.875 37.523438 19.300781 37.390625 18.210938 C 37.367188 18.015625 37.238281 17.875 37.160156 18.242188 C 37.027344 18.875 37.121094 19.644531 37.574219 20.128906 C 37.078125 22.558594 32.308594 22.382812 32.308594 22.382812 C 32.03125 21.460938 30.328125 21.101562 29.585938 19.996094 C 29.582031 19.992188 29.578125 19.988281 29.578125 19.984375 C 29.503906 22.714844 28.394531 24.703125 27.875 25.386719 C 27.824219 25.445312 27.855469 25.515625 27.964844 25.5 C 28.691406 25.386719 29.667969 24.601562 30.113281 24.007812 C 30.234375 23.851562 30.363281 23.90625 30.378906 24.066406 C 31.160156 31.671875 28.257812 40.328125 26.691406 43.722656 C 26.273438 44.632812 25.816406 45.164062 26.816406 44.464844 C 29.25 42.753906 32.035156 41.90625 34.121094 41.40625 C 38.191406 40.425781 40.308594 39.347656 41.519531 38.539062 C 44.503906 36.539062 45.742188 33.945312 45.972656 31.71875 C 46.363281 27.828125 42.339844 26.675781 42.210938 26.601562 C 42.082031 26.527344 42.15625 26.445312 42.316406 26.4375 C 43.429688 26.386719 44.769531 26.746094 45.957031 27.570312 "/>
<path style=" stroke:none;fill-rule:evenodd;fill:rgb(81.22406%,10.702515%,58.013916%);fill-opacity:1;" d="M 6.390625 26.4375 C 6.550781 26.4375 6.636719 26.546875 6.5 26.601562 C 3.160156 27.894531 3.070312 29.328125 3.117188 30.503906 C 3.25 33.917969 7.390625 38.105469 10.28125 39.472656 C 10.996094 39.796875 11.269531 39.925781 11.195312 39.132812 C 11.148438 37.144531 12 35.730469 12.464844 35.171875 C 12.566406 35.046875 12.675781 35.035156 12.65625 35.183594 C 12.640625 35.328125 11.011719 40.226562 14.75 41.871094 C 17.386719 43.035156 21.734375 42.546875 24.179688 46.425781 C 24.269531 46.574219 24.308594 46.5625 24.371094 46.4375 C 26.65625 41.449219 24.351562 36.84375 23.972656 35.835938 C 25.132812 35.195312 26.222656 34.394531 26.9375 33.503906 C 27.503906 32.800781 27.722656 32.316406 27.863281 32.019531 C 28.027344 31.664062 27.972656 31.484375 27.675781 31.652344 C 25.832031 32.710938 22.03125 34.191406 16.601562 33.144531 C 16.601562 33.144531 15.113281 32.921875 15.332031 31.410156 C 15.390625 30.988281 15.605469 30.550781 15.777344 30.128906 C 15.835938 29.980469 16.035156 29.40625 15.84375 29.132812 C 15.65625 28.859375 15.535156 28.664062 15.648438 28.308594 C 15.730469 28.054688 16.09375 27.71875 16.675781 27.578125 C 17.179688 27.453125 18.046875 27.386719 18.761719 27.449219 C 18.957031 27.464844 19.15625 27.441406 19.269531 27.425781 C 19.464844 27.40625 19.59375 27.234375 19.53125 27.042969 C 19.484375 26.902344 19.378906 26.796875 19.21875 26.402344 C 19.097656 26.648438 18.964844 26.757812 18.644531 26.710938 C 18.320312 26.664062 17.671875 26.441406 17.074219 26.28125 C 16.480469 26.117188 16.097656 26.210938 15.753906 26.691406 C 15.414062 27.175781 15.421875 26.691406 15.457031 26.53125 C 15.503906 26.28125 15.867188 25.910156 15.90625 25.679688 C 15.9375 25.5 15.980469 25.246094 15.484375 24.894531 C 15.132812 24.644531 14.894531 24.445312 14.742188 24.292969 C 14.265625 23.8125 14.183594 23.316406 15.09375 22.542969 C 15.746094 21.984375 17.183594 20.503906 17.621094 19.59375 C 17.691406 19.453125 18.039062 18.886719 17.65625 18.320312 C 17.363281 17.882812 17.3125 17.796875 17.234375 17.648438 C 17.023438 17.238281 17.171875 16.878906 17.519531 16.335938 C 17.691406 16.070312 17.824219 15.75 18.183594 14.617188 C 18.617188 13.261719 19.433594 11.839844 20.492188 10.964844 C 20.9375 10.101562 20.652344 8.671875 22.433594 7.105469 C 23.847656 5.863281 28.679688 4.210938 34.425781 5.132812 C 34.609375 4.980469 34.757812 4.847656 34.875 4.738281 C 32.742188 2.410156 28.136719 0.667969 24.828125 0.554688 C 22.574219 0.476562 17.757812 0.949219 15.019531 4.078125 C 13.015625 3.726562 7.296875 4.898438 3.667969 12.910156 C 3.320312 13.679688 3.417969 13.894531 3.910156 13.714844 C 5.445312 13.171875 6.8125 13.148438 7.484375 13.308594 C 7.78125 13.382812 7.65625 13.488281 7.601562 13.496094 C 7.542969 13.507812 7.4375 13.542969 7.207031 13.582031 C 6.492188 13.714844 4.675781 14.34375 3.699219 15.253906 C -1.660156 20.636719 1.492188 26.484375 1.832031 27.109375 C 2.179688 27.742188 2.375 27.871094 2.914062 27.460938 C 3.40625 27.085938 4.625 26.449219 6.390625 26.4375 "/>
<path style=" stroke:none;fill-rule:evenodd;fill:rgb(81.22406%,10.702515%,58.013916%);fill-opacity:1;" d="M 17.691406 24.609375 C 17.53125 24.886719 17.210938 25.253906 16.476562 24.8125 C 15.847656 24.433594 15.683594 24.351562 15.335938 24.1875 C 15.261719 24.15625 15.203125 24.121094 15.226562 24.058594 C 15.25 24.007812 15.378906 23.980469 15.574219 24.019531 C 15.96875 24.089844 16.566406 24.25 16.695312 24.265625 C 16.824219 24.28125 17.214844 24.363281 17.375 24.207031 C 17.519531 24.070312 17.65625 23.996094 17.726562 24.109375 C 17.796875 24.21875 17.734375 24.53125 17.691406 24.609375 "/>
<path style=" stroke:none;fill-rule:evenodd;fill:rgb(93.283081%,50.210571%,36.434937%);fill-opacity:1;" d="M 45.789062 8.59375 C 45.730469 9.054688 45.875 10.351562 46.230469 11.5625 C 46.601562 12.835938 45.941406 13.964844 44.792969 14.625 C 44.433594 14.070312 43.710938 13.789062 43.066406 13.765625 C 42.6875 13.753906 42.792969 13.90625 42.976562 13.984375 C 45.648438 15.101562 44.707031 18.214844 44.359375 18.875 C 44.007812 19.550781 44.085938 20.394531 44.085938 20.394531 C 43.253906 20.152344 42.503906 20.359375 41.832031 20.464844 C 40.507812 20.675781 39.621094 20.441406 38.933594 20.125 C 38.386719 19.875 37.523438 19.300781 37.390625 18.210938 C 37.367188 18.015625 37.238281 17.875 37.160156 18.242188 C 37.027344 18.875 37.121094 19.644531 37.574219 20.128906 C 37.078125 22.558594 32.308594 22.382812 32.308594 22.382812 C 31.992188 21.332031 29.828125 21.015625 29.335938 19.488281 C 29.105469 18.765625 29.292969 18.011719 29.292969 18.011719 C 30.539062 18.3125 31.261719 17.710938 31.667969 17.207031 C 31.902344 16.914062 31.714844 16.902344 31.546875 17.007812 C 29.96875 18.007812 28.496094 17.007812 28.191406 15.601562 C 27.78125 14.0625 26.277344 13.550781 26.277344 13.550781 C 27.371094 12.863281 27.066406 11.671875 27.636719 10.664062 C 29.132812 8.015625 31.265625 8.808594 31.265625 8.808594 C 31.46875 9.4375 32.097656 9.890625 32.71875 10.078125 C 33.078125 10.1875 33.019531 10.007812 32.855469 9.890625 C 31.34375 8.800781 31.71875 7.066406 32.90625 6.253906 C 34.988281 4.839844 35.34375 4.226562 35.34375 4.226562 C 35.726562 4.515625 36.738281 4.765625 37.804688 4.859375 C 40.191406 5.074219 40.753906 6.316406 40.800781 6.789062 C 40.519531 6.9375 40.039062 7.386719 39.816406 8.097656 C 39.703125 8.460938 39.886719 8.402344 40.003906 8.242188 C 40.933594 6.96875 42.078125 7.207031 43.152344 7.699219 C 43.832031 8.011719 44.8125 8.804688 45.789062 8.59375 "/>
<path style=" stroke:none;fill-rule:evenodd;fill:rgb(40.130615%,19.935608%,60.572815%);fill-opacity:1;" d="M 31.265625 8.808594 C 31.46875 9.4375 32.097656 9.890625 32.71875 10.078125 C 32.890625 10.128906 32.96875 10.117188 32.980469 10.074219 C 32.964844 10.035156 32.949219 10 32.933594 9.960938 C 32.914062 9.9375 32.886719 9.914062 32.855469 9.890625 C 31.34375 8.800781 31.71875 7.066406 32.90625 6.253906 C 33.578125 5.800781 34.066406 5.425781 34.425781 5.132812 C 28.679688 4.210938 23.847656 5.863281 22.433594 7.105469 C 20.652344 8.671875 20.9375 10.101562 20.492188 10.964844 C 21.226562 10.417969 22.050781 10.0625 23.054688 9.839844 C 25.605469 9.273438 26.90625 10.199219 27.503906 10.9375 C 27.539062 10.84375 27.585938 10.753906 27.636719 10.664062 C 29.132812 8.015625 31.265625 8.808594 31.265625 8.808594 "/>
<path style=" stroke:none;fill-rule:evenodd;fill:rgb(40.130615%,19.935608%,60.572815%);fill-opacity:1;" d="M 34.851562 16.210938 C 34.867188 16.328125 34.917969 16.363281 35.011719 16.25 C 35.394531 15.753906 36.046875 14.984375 37.078125 14.535156 C 38.308594 14.003906 38.890625 13.203125 39.054688 12.414062 C 39.15625 11.9375 39.136719 11.132812 39.65625 10.523438 C 39.820312 10.328125 39.605469 10.324219 39.445312 10.394531 C 39.292969 10.460938 38.5 10.890625 38.089844 11.625 C 37.628906 11.316406 37.527344 10.773438 37.503906 10.445312 C 37.507812 10.347656 37.417969 10.296875 37.316406 10.425781 C 36.976562 10.867188 36.800781 11.382812 36.789062 11.730469 C 36.789062 11.730469 36.394531 11.566406 36.421875 10.921875 C 36.429688 10.8125 36.367188 10.867188 36.339844 10.902344 C 35.835938 11.484375 36.042969 12.132812 36.0625 12.222656 C 36.0625 12.222656 35.367188 12.03125 34.402344 12.121094 C 34.09375 11.535156 33.054688 11.609375 33.042969 12.285156 C 33.03125 12.898438 34.101562 13.113281 34.398438 12.535156 C 34.398438 12.535156 35.746094 12.363281 37.195312 13.257812 C 37.34375 13.351562 37.40625 13.4375 37.347656 13.523438 C 37.304688 13.585938 37.109375 13.523438 36.871094 13.425781 C 36.601562 13.320312 34.761719 12.667969 33.546875 13.703125 C 33.488281 13.753906 33.496094 13.816406 33.566406 13.816406 C 33.84375 13.828125 34.472656 13.894531 34.707031 14.238281 C 34.363281 14.421875 33.824219 14.785156 33.605469 15.757812 C 33.546875 16.011719 33.699219 16.007812 33.796875 15.886719 C 33.917969 15.746094 34.664062 15.070312 34.996094 15.027344 C 34.996094 15.027344 34.804688 15.523438 34.851562 16.210938 "/>
<path style=" stroke:none;fill-rule:evenodd;fill:rgb(81.22406%,10.702515%,58.013916%);fill-opacity:1;" d="M 22.472656 17.519531 C 21.996094 17.238281 21.363281 17.257812 21.238281 17.230469 C 21.113281 17.210938 21.089844 17.082031 21.277344 16.992188 C 21.53125 16.867188 22.011719 16.972656 22.03125 16.890625 C 22.042969 16.820312 21.933594 16.640625 21.570312 16.5 C 21.207031 16.363281 20.398438 16.394531 19.988281 16.460938 C 19.574219 16.53125 19.21875 16.167969 19.863281 15.625 C 20.507812 15.082031 21.421875 15.191406 21.773438 15.144531 C 22.121094 15.097656 21.972656 14.941406 21.882812 14.902344 C 21.789062 14.863281 21.308594 14.585938 20.46875 14.640625 C 19.632812 14.691406 18.910156 15.183594 18.464844 15.6875 C 18.226562 15.960938 18.121094 16.238281 18.078125 16.46875 C 18.035156 16.914062 18.386719 17.089844 18.761719 16.933594 C 18.953125 16.855469 19.070312 16.832031 19.21875 16.847656 C 19.402344 16.867188 19.511719 17.023438 19.445312 17.074219 C 19.355469 17.140625 19.25 17.246094 19.199219 17.484375 C 19.136719 17.753906 19.324219 17.964844 19.492188 18.234375 C 19.574219 18.367188 19.648438 18.46875 19.675781 18.570312 C 19.714844 18.714844 19.691406 18.773438 19.570312 18.871094 C 19.433594 18.976562 19.511719 19.164062 19.785156 19.085938 C 20.09375 19 20.265625 18.914062 20.5 18.714844 C 20.832031 18.4375 20.824219 18.253906 21.058594 18.023438 C 21.292969 17.792969 22.023438 17.792969 22.402344 17.84375 C 22.84375 17.90625 22.945312 17.800781 22.472656 17.519531 "/>
</g>
</svg>
