<?xml version="1.0" encoding="UTF-8"?>
<svg xmlns="http://www.w3.org/2000/svg" xmlns:xlink="http://www.w3.org/1999/xlink" width="176pt" height="57.62pt" viewBox="0 0 176 57.62" version="1.1">
<defs>
<clipPath id="clip1">
  <path d="M 0 21 L 33 21 L 33 57.621094 L 0 57.621094 Z M 0 21 "/>
</clipPath>
</defs>
<g id="surface1">
<g clip-path="url(#clip1)" clip-rule="nonzero">
<path style=" stroke:none;fill-rule:nonzero;fill:rgb(6.266785%,5.734253%,5.047607%);fill-opacity:1;" d="M 20.097656 22.554688 L 0 57.621094 L 6.792969 57.195312 L 12.402344 47.53125 L 24.171875 46.199219 L 26.335938 55.558594 L 32.851562 55.257812 L 25.25 21.621094 L 20.097656 22.554688 M 15.703125 41.523438 L 21.253906 30.835938 L 23.019531 40.59375 L 15.703125 41.523438 "/>
</g>
<path style=" stroke:none;fill-rule:nonzero;fill:rgb(6.266785%,5.734253%,5.047607%);fill-opacity:1;" d="M 39.511719 55.070312 L 45.710938 54.570312 L 51.480469 17.636719 L 45.390625 18.722656 L 39.511719 55.070312 "/>
<path style=" stroke:none;fill-rule:nonzero;fill:rgb(6.266785%,5.734253%,5.047607%);fill-opacity:1;" d="M 82.589844 20.0625 C 80.371094 12.972656 72.851562 14.699219 72.851562 14.699219 L 60.535156 16.585938 L 54.660156 54.183594 L 60.882812 53.78125 L 65.691406 21.878906 L 70.597656 21.183594 C 70.597656 21.183594 71.816406 21.003906 73.164062 21.277344 C 75.257812 21.65625 77.65625 23.105469 76.332031 27.847656 C 75.066406 34.210938 64.75 34.597656 64.75 34.597656 L 74.679688 52.636719 L 82.34375 52.09375 L 74.320312 38.273438 C 74.324219 38.273438 84.816406 33.980469 82.589844 20.0625 "/>
<path style=" stroke:none;fill-rule:nonzero;fill:rgb(6.266785%,5.734253%,5.047607%);fill-opacity:1;" d="M 121.363281 7.078125 C 121.363281 7.078125 118.519531 6.9375 115.132812 7.519531 C 111.757812 8.09375 104.613281 9.246094 104.613281 9.246094 L 99.378906 50.847656 L 110.296875 50.015625 C 110.296875 50.015625 121.785156 50.050781 127.878906 39.902344 C 128.945312 38.433594 135.921875 25.148438 129.859375 12.605469 C 129.859375 12.605469 126.371094 6.914062 121.363281 7.078125 M 118.644531 40.230469 C 114.558594 43.253906 107.105469 43.046875 107.105469 43.046875 L 110.3125 15.617188 C 110.3125 15.617188 115.105469 14.742188 116.023438 14.621094 C 116.949219 14.488281 119.003906 14.476562 120.171875 14.765625 C 124.496094 15.054688 125.34375 20.964844 125.34375 20.964844 C 125.34375 20.964844 127.800781 32.832031 118.644531 40.230469 "/>
<path style=" stroke:none;fill-rule:nonzero;fill:rgb(6.266785%,5.734253%,5.047607%);fill-opacity:1;" d="M 163.125 0.0390625 C 147.488281 -0.988281 140.65625 17.980469 140.058594 20.480469 C 134.699219 38.984375 145.875 47.765625 151.773438 48.429688 C 167.144531 49.988281 174.027344 32.425781 175.136719 26.675781 C 179.34375 5.703125 167.03125 0.269531 163.125 0.0390625 M 168.234375 27.6875 C 166.992188 33.21875 160.96875 42.355469 152.652344 40.171875 C 151.300781 40.050781 141.089844 34.597656 147.730469 18.148438 C 147.730469 18.148438 152.289062 7.5625 161.269531 8.464844 C 164.765625 8.757812 172 13.816406 168.234375 27.6875 "/>
</g>
</svg>
