<?xml version="1.0" encoding="UTF-8"?>
<svg xmlns="http://www.w3.org/2000/svg" xmlns:xlink="http://www.w3.org/1999/xlink" width="176pt" height="46pt" viewBox="0 0 176 46" version="1.1">
<g id="surface1">
<path style=" stroke:none;fill-rule:evenodd;fill:rgb(31.385803%,6.484985%,15.675354%);fill-opacity:1;" d="M 176 46 L 53 46 L 53 0 L 176 0 L 176 46 "/>
<path style=" stroke:none;fill-rule:evenodd;fill:rgb(61.683655%,8.610535%,36.553955%);fill-opacity:1;" d="M 53 46 L 0 46 L 0 0 L 53 0 L 53 46 "/>
<path style=" stroke:none;fill-rule:nonzero;fill:rgb(92.333984%,93.017578%,10.369873%);fill-opacity:1;" d="M 27.585938 8.949219 C 18.851562 8.949219 11.75 15.699219 11.75 23.996094 C 11.75 32.292969 18.851562 39.046875 27.585938 39.046875 C 36.320312 39.046875 43.425781 32.292969 43.425781 23.996094 C 43.425781 15.699219 36.320312 8.949219 27.585938 8.949219 Z M 27.585938 41.117188 C 17.710938 41.117188 9.675781 33.4375 9.675781 23.996094 C 9.675781 14.554688 17.710938 6.875 27.585938 6.875 C 37.460938 6.875 45.496094 14.554688 45.496094 23.996094 C 45.496094 33.4375 37.460938 41.117188 27.585938 41.117188 "/>
<path style=" stroke:none;fill-rule:evenodd;fill:rgb(92.333984%,93.017578%,10.369873%);fill-opacity:1;" d="M 28.324219 13.832031 C 29.257812 14.175781 29.972656 14.445312 30.820312 14.203125 C 30.703125 13.882812 30.605469 13.617188 30.507812 13.347656 C 30.773438 13.148438 30.992188 12.984375 31.269531 12.773438 C 30.007812 12.34375 29.328125 13.1875 28.324219 13.832031 Z M 32.8125 23.410156 C 33.191406 23.28125 33.488281 23.179688 33.929688 23.027344 C 33.363281 22.683594 32.984375 22.710938 32.640625 23.027344 C 32.367188 23.28125 32.277344 23.597656 32.421875 23.96875 C 32.578125 24.367188 32.875 24.597656 33.289062 24.605469 C 33.582031 24.613281 33.894531 24.5625 34.164062 24.449219 C 34.476562 24.320312 34.75 24.09375 35.046875 23.917969 C 35.105469 23.886719 35.195312 23.894531 35.347656 23.871094 C 35.488281 23.996094 35.671875 24.152344 35.941406 24.390625 C 35.550781 24.570312 35.273438 24.699219 34.945312 24.851562 C 35.335938 25.261719 35.671875 25.222656 35.988281 24.917969 C 36.300781 24.609375 36.320312 24.246094 36.078125 23.878906 C 35.804688 23.46875 35.273438 23.328125 34.75 23.578125 C 34.480469 23.707031 34.257812 23.941406 33.988281 24.078125 C 33.429688 24.367188 33.117188 24.203125 32.8125 23.410156 Z M 40.339844 18.453125 C 40.691406 18.414062 40.816406 18.671875 40.882812 18.925781 C 40.949219 19.171875 41.007812 19.46875 40.933594 19.699219 C 40.761719 20.242188 40.492188 20.726562 39.972656 21.070312 C 38.707031 21.914062 37.289062 22.3125 35.816406 22.574219 C 35.585938 22.613281 35.359375 22.695312 34.972656 22.796875 C 35.234375 22.9375 35.328125 23.03125 35.414062 23.027344 C 37.203125 22.933594 38.84375 22.378906 40.3125 21.363281 C 40.957031 20.917969 41.375 20.277344 41.425781 19.449219 C 41.5 18.285156 40.328125 17.40625 39.269531 17.832031 C 38.863281 17.992188 38.683594 18.285156 38.691406 18.71875 C 38.695312 19.167969 38.9375 19.433594 39.328125 19.570312 C 39.988281 19.804688 40.347656 19.398438 40.359375 18.425781 Z M 25.167969 20.53125 C 25.992188 20.992188 25.726562 21.878906 25.9375 22.59375 C 26.605469 22.9375 27.273438 22.796875 27.992188 22.671875 C 28.789062 21.039062 30.289062 20.652344 31.914062 20.589844 C 33.480469 20.53125 35.050781 20.578125 36.621094 20.730469 C 35.363281 20.730469 34.101562 20.6875 32.847656 20.742188 C 31.703125 20.796875 30.574219 20.945312 29.625 21.738281 C 28.488281 22.691406 28.507812 24.113281 29.765625 24.878906 C 30.425781 25.277344 31.167969 25.398438 31.980469 25.089844 C 31.800781 25.019531 31.628906 24.933594 31.445312 24.878906 C 31.007812 24.746094 30.535156 24.699219 30.136719 24.496094 C 29.101562 23.976562 28.980469 22.960938 29.8125 22.167969 C 30.652344 21.367188 31.710938 21.257812 32.792969 21.199219 C 34.207031 21.128906 35.621094 21.082031 37.03125 20.957031 C 37.785156 20.886719 38.523438 20.664062 39.109375 19.976562 C 38.875 19.816406 38.6875 19.703125 38.519531 19.566406 C 38.085938 19.207031 37.964844 18.730469 38.15625 18.222656 C 38.339844 17.742188 38.636719 17.371094 39.21875 17.300781 C 40.554688 17.132812 41.574219 17.554688 42.011719 18.582031 C 42.476562 19.675781 42.121094 21.078125 41.078125 21.863281 C 39.972656 22.699219 38.757812 23.34375 37.40625 23.695312 C 37.261719 23.734375 37.121094 23.785156 36.75 23.90625 C 37.121094 24.042969 37.308594 24.1875 37.457031 24.15625 C 37.902344 24.050781 38.332031 23.878906 38.765625 23.738281 C 39.769531 23.414062 40.570312 23.664062 41.148438 24.519531 C 42.109375 25.945312 42.058594 28.03125 39.746094 28.710938 C 38.839844 28.976562 37.863281 29.132812 36.921875 29.136719 C 32.9375 29.136719 28.953125 29.054688 24.96875 29.015625 C 22.976562 28.996094 20.980469 28.96875 18.992188 29.023438 C 18.28125 29.042969 17.542969 29.214844 16.886719 29.488281 C 16.101562 29.816406 15.640625 30.503906 15.644531 31.394531 C 15.644531 32.265625 16.167969 32.871094 16.917969 33.140625 C 17.585938 33.375 18.097656 33.800781 18.671875 34.160156 C 20.84375 35.515625 23.195312 35.714844 25.632812 35.144531 C 25.980469 35.0625 26.316406 34.789062 26.578125 34.527344 C 26.9375 34.160156 26.898438 33.472656 26.574219 33.160156 C 26.269531 32.863281 26.03125 32.9375 25.441406 33.527344 C 25.519531 33.71875 25.601562 33.921875 25.683594 34.128906 C 25.636719 34.179688 25.59375 34.265625 25.539062 34.277344 C 24.859375 34.394531 24.570312 34.226562 24.335938 33.59375 C 24.113281 32.984375 24.273438 32.363281 24.800781 32.085938 C 25.550781 31.695312 26.34375 31.59375 27.101562 32.070312 C 27.792969 32.503906 28.027344 33.152344 27.847656 33.953125 C 27.820312 34.082031 27.863281 34.222656 27.878906 34.457031 C 28.628906 33.292969 28.316406 32.015625 27.164062 31.597656 C 26.539062 31.371094 25.824219 31.390625 25.148438 31.296875 L 25.175781 31.324219 C 26.917969 30.5625 28.074219 31.078125 28.929688 32.960938 C 29.9375 32.207031 30.953125 31.449219 32 30.664062 C 31.910156 30.628906 31.820312 30.554688 31.730469 30.550781 C 27.71875 30.488281 23.703125 30.421875 19.691406 30.378906 C 19.082031 30.371094 18.476562 30.46875 17.871094 30.539062 C 17.417969 30.589844 17.03125 30.800781 16.984375 31.289062 C 16.933594 31.867188 17.34375 32.074219 17.914062 32.140625 C 18.121094 31.914062 18.34375 31.671875 18.585938 31.40625 C 18.683594 31.433594 18.832031 31.425781 18.886719 31.496094 C 19.292969 32.03125 19.230469 32.394531 18.699219 32.695312 C 17.84375 33.171875 16.550781 32.753906 16.144531 31.859375 C 15.867188 31.25 16.25 30.34375 16.957031 29.914062 C 17.570312 29.546875 18.242188 29.476562 18.945312 29.480469 C 23.765625 29.507812 28.589844 29.519531 33.410156 29.53125 C 34.898438 29.535156 36.390625 29.558594 37.878906 29.507812 C 38.867188 29.476562 39.855469 29.351562 40.726562 28.785156 C 41.941406 28 42.351562 27.089844 42.089844 25.667969 C 42.039062 25.40625 42.007812 25.140625 41.96875 24.878906 L 41.941406 24.902344 C 42.722656 25.738281 42.9375 27.269531 42.371094 28.269531 C 41.800781 29.273438 41 29.996094 39.816406 30.207031 C 38.847656 30.378906 37.878906 30.5625 36.820312 30.757812 C 36.988281 30.894531 37.136719 31.015625 37.285156 31.132812 C 38.199219 31.855469 38.425781 33.167969 37.789062 34.109375 C 37.523438 34.503906 37.195312 34.8125 36.660156 34.753906 L 36.6875 34.785156 C 36.734375 34.726562 36.777344 34.660156 36.832031 34.609375 C 38.078125 33.421875 37.839844 31.929688 36.269531 31.222656 C 34.8125 30.566406 33.328125 30.652344 31.964844 31.417969 C 31.144531 31.878906 30.429688 32.546875 29.71875 33.175781 C 29.234375 33.605469 28.835938 34.128906 28.398438 34.609375 C 27.40625 35.699219 26.160156 36.371094 24.71875 36.550781 C 21.925781 36.90625 19.296875 36.480469 17.046875 34.621094 C 16.664062 34.304688 16.257812 34.011719 15.914062 33.65625 C 15.121094 32.839844 14.902344 31.890625 15.347656 30.8125 C 15.40625 30.675781 15.441406 30.53125 15.507812 30.320312 C 15.132812 30.171875 14.78125 30.042969 14.441406 29.898438 C 12.984375 29.285156 12.246094 27.898438 12.550781 26.363281 C 12.722656 25.511719 13.65625 24.65625 14.660156 24.480469 C 14.992188 24.421875 15.335938 24.433594 15.699219 24.542969 C 15.304688 24.644531 14.863281 24.660156 14.535156 24.867188 C 14.128906 25.117188 13.726562 25.472656 13.488281 25.882812 C 13.277344 26.25 13.175781 26.761719 13.222656 27.191406 C 13.355469 28.382812 14.421875 29.238281 15.773438 29.160156 C 15.296875 28.910156 14.96875 28.765625 14.667969 28.578125 C 13.433594 27.820312 13.332031 26.257812 14.453125 25.402344 C 14.996094 24.984375 16.40625 25 16.957031 25.425781 C 17.425781 25.789062 17.394531 26.160156 16.800781 26.738281 C 16.496094 26.570312 16.175781 26.394531 15.871094 26.222656 C 15.210938 26.65625 15.136719 26.925781 15.5625 27.34375 C 15.996094 27.773438 16.535156 27.890625 17.140625 27.882812 C 19.476562 27.855469 21.8125 27.855469 24.148438 27.855469 C 27.980469 27.859375 31.8125 27.882812 35.640625 27.871094 C 36.324219 27.867188 37.019531 27.792969 37.683594 27.652344 C 38.058594 27.574219 38.390625 27.285156 38.695312 27.117188 C 38.671875 26.421875 38.328125 26.132812 37.859375 26.015625 C 37.378906 25.902344 36.878906 25.824219 36.386719 25.816406 C 33.859375 25.792969 31.332031 25.796875 28.804688 25.796875 C 28.632812 25.796875 28.460938 25.863281 28.226562 25.910156 C 28.433594 26.34375 28.765625 26.28125 29.042969 26.28125 C 31.113281 26.289062 33.179688 26.28125 35.25 26.28125 C 35.863281 26.28125 36.472656 26.296875 37.085938 26.300781 C 37.519531 26.304688 37.871094 26.453125 38.234375 26.929688 C 36.117188 26.507812 34.136719 26.796875 32.164062 26.722656 C 29.796875 26.632812 27.410156 26.679688 25.0625 26.417969 C 23.496094 26.242188 21.925781 25.785156 20.644531 24.707031 C 18.371094 22.789062 18.4375 19.570312 20.835938 17.824219 C 21.386719 17.425781 22.042969 17.175781 22.648438 16.855469 C 22.867188 16.738281 23.082031 16.621094 23.390625 16.453125 C 21.671875 16.101562 19.101562 18.234375 18.667969 20.238281 C 17.992188 23.359375 19.875 25.613281 23.976562 26.667969 C 21.996094 26.65625 20.105469 26.28125 18.773438 24.667969 C 16.699219 22.15625 17.285156 19.65625 19.230469 17.175781 C 17.65625 17.140625 16.519531 17.671875 15.605469 18.667969 C 15.398438 18.894531 15.324219 19.285156 15.292969 19.613281 C 15.261719 19.933594 15.449219 20.265625 15.808594 20.230469 C 16 20.214844 16.296875 19.933594 16.3125 19.75 C 16.351562 19.300781 16.488281 19.109375 16.941406 19.226562 C 17.121094 20.101562 16.941406 20.578125 16.28125 20.96875 C 15.722656 21.304688 14.980469 21.210938 14.476562 20.746094 C 13.925781 20.234375 13.769531 19.519531 14.1875 18.875 C 14.492188 18.40625 14.886719 17.964844 15.332031 17.628906 C 16.671875 16.613281 18.207031 16.066406 19.890625 15.9375 C 20.070312 15.921875 20.25 15.863281 20.703125 15.765625 C 20.28125 15.59375 20.097656 15.449219 19.929688 15.464844 C 17.824219 15.671875 15.898438 16.347656 14.359375 17.863281 C 13.746094 18.464844 13.382812 19.214844 13.613281 20.140625 C 13.847656 21.078125 14.457031 21.570312 15.441406 21.496094 C 15.929688 21.460938 16.410156 21.320312 16.894531 21.222656 L 16.867188 21.199219 C 16.273438 22.019531 15.441406 22 14.621094 21.734375 C 13.796875 21.464844 13.292969 20.871094 13.230469 19.953125 C 13.15625 18.886719 13.496094 17.941406 14.246094 17.242188 C 15.488281 16.085938 16.890625 15.164062 18.636719 14.921875 C 18.96875 14.875 19.285156 14.738281 19.609375 14.640625 C 19.609375 14.027344 19.609375 13.488281 19.609375 12.953125 C 19.675781 12.949219 19.742188 12.945312 19.804688 12.941406 C 19.820312 13.0625 19.835938 13.179688 19.851562 13.304688 C 19.984375 14.472656 20.476562 15.03125 21.621094 15.214844 C 22.820312 15.40625 24.003906 15.277344 25.113281 14.796875 C 26.230469 14.3125 27.308594 13.734375 28.398438 13.1875 C 28.671875 13.050781 28.925781 12.878906 29.199219 12.734375 C 30.261719 12.171875 31.320312 11.777344 32.402344 12.863281 C 32.371094 12.714844 32.386719 12.523438 32.300781 12.417969 C 31.710938 11.699219 30.910156 11.507812 29.910156 11.941406 C 29 12.335938 28.148438 12.863281 27.246094 13.28125 C 26.210938 13.761719 25.175781 14.273438 24.085938 14.589844 C 23.335938 14.808594 22.496094 14.757812 21.699219 14.742188 C 21.078125 14.730469 20.601562 14.394531 20.425781 13.761719 C 20.253906 13.160156 20.34375 12.625 20.90625 12.242188 C 21.339844 11.949219 21.769531 11.652344 22.25 11.320312 C 22.472656 11.625 22.621094 11.832031 22.785156 12.054688 C 22.53125 12.28125 22.308594 12.476562 22.128906 12.636719 C 22.007812 13.101562 22.363281 13.558594 22.816406 13.535156 C 23.15625 13.519531 23.492188 13.414062 23.828125 13.339844 C 25.195312 13.03125 26.335938 12.214844 27.597656 11.679688 C 28.4375 11.328125 29.289062 10.980469 30.164062 10.738281 C 30.625 10.609375 31.15625 10.652344 31.644531 10.71875 C 32.683594 10.863281 33.410156 11.40625 33.617188 12.5 C 33.652344 12.683594 33.683594 12.867188 33.714844 13.058594 C 34.453125 13.476562 35.238281 13.351562 35.988281 13.414062 C 36.976562 13.496094 37.734375 13.957031 38.324219 14.707031 C 38.992188 15.5625 38.8125 16.832031 37.976562 17.488281 C 37.355469 17.972656 36.734375 17.875 36.0625 17.125 C 36.410156 16.96875 36.726562 16.828125 37.125 16.652344 C 37.027344 16.425781 37 16.144531 36.855469 16.058594 C 35.988281 15.558594 35.046875 15.582031 34.085938 15.691406 C 34.421875 17.605469 34.144531 18.429688 33.039062 18.625 C 32.53125 18.710938 31.984375 18.617188 31.464844 18.53125 C 31.332031 18.507812 31.246094 18.203125 31.042969 17.867188 C 31.394531 17.914062 31.566406 17.914062 31.722656 17.964844 C 32.121094 18.09375 32.433594 18.003906 32.53125 17.585938 C 32.621094 17.1875 32.378906 16.90625 32.007812 16.824219 C 31.601562 16.738281 31.171875 16.667969 30.769531 16.71875 C 29.554688 16.859375 28.539062 17.46875 27.585938 18.199219 C 27.222656 18.476562 26.863281 18.804688 26.445312 18.949219 C 26.085938 19.070312 25.597656 19.078125 25.25 18.933594 C 24.433594 18.597656 24.425781 17.960938 25.164062 17.300781 L 25.140625 17.273438 C 25.125 17.382812 25.140625 17.511719 25.089844 17.605469 C 24.863281 18.03125 25.011719 18.375 25.375 18.582031 C 25.726562 18.78125 26.117188 18.753906 26.4375 18.460938 C 26.746094 18.179688 26.882812 17.855469 26.722656 17.433594 C 26.378906 16.5 25.140625 16.328125 24.492188 17.175781 C 24.238281 17.511719 24.164062 17.980469 23.914062 18.621094 C 23.613281 18.882812 23.09375 19.316406 22.585938 19.773438 C 22.183594 20.132812 22.085938 20.605469 22.113281 21.128906 C 22.140625 21.671875 22.332031 22.132812 22.867188 22.300781 C 23.429688 22.476562 23.929688 22.347656 24.242188 21.601562 C 24.007812 21.355469 23.738281 21.070312 23.410156 20.726562 C 23.457031 20.660156 23.542969 20.414062 23.660156 20.402344 C 23.902344 20.367188 24.277344 20.363281 24.394531 20.511719 C 24.691406 20.882812 24.992188 21.324219 25.078125 21.777344 C 25.261719 22.753906 24.640625 23.6875 23.648438 23.964844 C 23.050781 24.128906 22.410156 24.140625 21.585938 24.25 C 21.925781 24.425781 22.09375 24.574219 22.285156 24.605469 C 24.441406 24.976562 26.070312 22.992188 25.308594 20.941406 C 25.257812 20.800781 25.230469 20.648438 25.195312 20.503906 L 25.167969 20.53125 "/>
<path style=" stroke:none;fill-rule:evenodd;fill:rgb(92.333984%,93.017578%,10.369873%);fill-opacity:1;" d="M 34.65625 33.183594 C 35.125 33.332031 35.546875 33.757812 35.933594 33.207031 C 35.710938 32.4375 35.542969 32.199219 34.914062 32.273438 C 34.292969 32.34375 33.609375 32.492188 33.097656 32.832031 C 31.859375 33.644531 30.667969 34.542969 29.523438 35.488281 C 27.5625 37.105469 25.34375 37.605469 22.777344 37.214844 C 23.550781 37.109375 24.226562 36.996094 24.902344 36.933594 C 26.660156 36.769531 27.929688 35.746094 29.101562 34.558594 C 29.71875 33.933594 30.277344 33.25 30.914062 32.644531 C 32.203125 31.40625 33.777344 31.085938 35.484375 31.421875 C 35.910156 31.503906 36.347656 31.757812 36.683594 32.046875 C 37.257812 32.53125 37.292969 33.515625 36.84375 34.027344 C 36.40625 34.527344 35.214844 34.742188 34.710938 34.414062 C 34.410156 34.21875 34.394531 34.035156 34.65625 33.183594 "/>
<path style=" stroke:none;fill-rule:evenodd;fill:rgb(100%,100%,100%);fill-opacity:1;" d="M 88.332031 29.828125 C 87.910156 28.746094 87.910156 28.746094 88.566406 28.519531 C 88.742188 28.957031 88.921875 29.394531 89.105469 29.835938 C 89.75 29.460938 89.769531 29.359375 89.429688 28.179688 C 88.824219 28.007812 88.207031 27.9375 87.589844 28.28125 C 87.589844 28.785156 87.589844 29.261719 87.589844 29.785156 C 87.878906 29.800781 88.089844 29.8125 88.332031 29.828125 Z M 86.597656 30.683594 C 85.945312 30.242188 85.175781 31.085938 84.59375 30.339844 C 85.050781 29.460938 85.972656 30.105469 86.640625 29.632812 C 86.59375 29.136719 86.539062 28.585938 86.476562 27.917969 C 86.914062 27.777344 87.335938 27.640625 87.765625 27.503906 C 87.960938 27.109375 88.160156 26.710938 88.394531 26.230469 C 88.679688 26.410156 88.890625 26.542969 89.144531 26.703125 C 89.011719 26.980469 88.902344 27.210938 88.757812 27.515625 C 89.316406 27.605469 89.851562 27.695312 90.476562 27.796875 C 90.457031 29.507812 90.0625 31.167969 90.453125 32.820312 C 91.644531 32.546875 92.066406 31.957031 92.03125 30.746094 C 92.023438 30.367188 92 29.984375 91.996094 29.601562 C 91.992188 29.53125 92.042969 29.460938 92.109375 29.273438 C 93.023438 28.757812 94.007812 29.03125 95.097656 29.230469 C 95.097656 29.828125 95.101562 30.351562 95.097656 30.875 C 95.097656 31.140625 95.054688 31.410156 95.082031 31.671875 C 95.175781 32.613281 95.46875 32.878906 96.394531 32.886719 C 96.769531 32.890625 97.144531 32.886719 97.644531 32.886719 C 97.503906 33.136719 97.445312 33.390625 97.296875 33.460938 C 96.890625 33.65625 96.453125 33.84375 96.011719 33.90625 C 95.058594 34.046875 94.355469 33.496094 94.261719 32.53125 C 94.203125 31.925781 94.277344 31.308594 94.277344 30.699219 C 94.277344 29.773438 94.085938 29.628906 92.972656 29.796875 C 92.929688 30.089844 92.890625 30.417969 92.835938 30.742188 C 92.746094 31.269531 92.726562 31.824219 92.535156 32.308594 C 92.246094 33.042969 91.785156 33.648438 90.839844 33.578125 C 90.636719 33.558594 90.402344 33.636719 90.214844 33.734375 C 89.265625 34.226562 88.898438 34.191406 87.871094 33.382812 C 88.449219 33.316406 88.945312 33.257812 89.46875 33.199219 C 89.78125 32.292969 89.609375 31.421875 89.601562 30.421875 C 88.894531 30.46875 88.230469 30.515625 87.496094 30.566406 C 87.359375 31.039062 87.253906 31.484375 87.105469 31.910156 C 86.941406 32.378906 86.792969 32.863281 86.539062 33.28125 C 86.105469 34 85.683594 34.089844 84.722656 33.71875 C 85.183594 33.242188 85.679688 32.839844 86.035156 32.339844 C 86.375 31.851562 86.582031 31.269531 86.597656 30.683594 "/>
<path style=" stroke:none;fill-rule:evenodd;fill:rgb(100%,100%,100%);fill-opacity:1;" d="M 81.066406 26.265625 C 82.238281 26.765625 82.222656 27.015625 80.957031 28.011719 C 81.722656 28.050781 82.363281 28.082031 83.234375 28.125 C 82.28125 28.949219 81.347656 28.4375 80.453125 28.707031 C 80.398438 28.929688 80.332031 29.195312 80.230469 29.597656 C 81.046875 29.671875 81.738281 29.734375 82.484375 29.800781 C 82.144531 30.230469 82.144531 30.230469 80.382812 30.394531 C 80.335938 30.621094 80.28125 30.863281 80.222656 31.152344 C 81.449219 31.832031 82.816406 31.113281 84.078125 31.636719 C 83.847656 32.175781 83.503906 32.433594 83 32.417969 C 82.546875 32.402344 82.089844 32.328125 81.636719 32.269531 C 81.234375 32.21875 80.832031 32.152344 80.347656 32.078125 C 80.28125 32.757812 80.222656 33.308594 80.160156 33.933594 C 79.867188 33.933594 79.628906 33.933594 79.300781 33.933594 C 79.300781 33.332031 79.300781 32.78125 79.300781 32.207031 C 78.503906 31.957031 77.816406 32.0625 77.117188 32.296875 C 76.710938 32.433594 76.234375 32.65625 75.914062 32.015625 C 76.847656 31.054688 78.15625 31.734375 79.164062 31.234375 C 79.269531 30.480469 79.167969 30.324219 78.515625 30.292969 C 78.070312 30.273438 77.621094 30.289062 77.066406 30.289062 C 77.578125 29.261719 78.597656 29.964844 79.222656 29.460938 C 79.402344 29.019531 79.179688 28.734375 78.734375 28.695312 C 78.324219 28.65625 77.902344 28.730469 77.488281 28.796875 C 77.167969 28.851562 76.882812 28.898438 76.71875 28.460938 C 77.09375 27.691406 77.902344 28.277344 78.46875 27.96875 C 78.226562 27.703125 77.957031 27.484375 77.808594 27.207031 C 77.726562 27.054688 77.785156 26.65625 77.890625 26.609375 C 78.085938 26.523438 78.4375 26.519531 78.582031 26.644531 C 78.792969 26.832031 78.90625 27.148438 79.019531 27.429688 C 79.15625 27.785156 79.371094 28.089844 79.757812 28.003906 C 80.058594 27.9375 80.398438 27.734375 80.570312 27.484375 C 80.800781 27.160156 80.886719 26.730469 81.066406 26.265625 "/>
<path style=" stroke:none;fill-rule:evenodd;fill:rgb(100%,100%,100%);fill-opacity:1;" d="M 60.773438 30.347656 C 60.742188 29.585938 60.824219 29.4375 61.398438 29.402344 C 62.121094 29.359375 62.851562 29.386719 63.578125 29.367188 C 63.871094 29.359375 64.164062 29.324219 64.5 29.292969 C 64.5 28.96875 64.5 28.722656 64.5 28.363281 C 63.59375 28.410156 62.769531 28.441406 61.941406 28.507812 C 61.164062 28.570312 60.390625 28.667969 59.578125 28.757812 C 59.523438 28.078125 59.851562 27.851562 60.296875 27.808594 C 60.828125 27.761719 61.363281 27.78125 61.898438 27.777344 C 62.691406 27.773438 63.484375 27.777344 64.34375 27.777344 C 64.371094 27.285156 64.390625 26.925781 64.410156 26.558594 C 64.882812 26.160156 65.273438 26.398438 65.714844 26.648438 C 65.765625 26.929688 65.820312 27.222656 65.878906 27.554688 C 66.003906 27.605469 66.140625 27.707031 66.277344 27.710938 C 67.386719 27.726562 68.492188 27.71875 69.601562 27.730469 C 70.011719 27.734375 70.421875 27.78125 70.855469 27.808594 C 70.589844 28.605469 70.445312 28.730469 69.71875 28.667969 C 68.882812 28.59375 68.054688 28.445312 67.21875 28.363281 C 66.773438 28.320312 66.324219 28.355469 65.785156 28.355469 C 65.785156 28.683594 65.785156 28.957031 65.785156 29.253906 C 67.011719 29.617188 68.28125 29.058594 69.480469 29.648438 C 69.296875 30.101562 68.949219 30.082031 68.621094 30.085938 C 67.054688 30.09375 65.484375 30.070312 63.917969 30.113281 C 62.898438 30.140625 61.878906 30.261719 60.773438 30.347656 "/>
<path style=" stroke:none;fill-rule:evenodd;fill:rgb(100%,100%,100%);fill-opacity:1;" d="M 106.515625 31.195312 C 105.78125 31.25 105.050781 31.300781 104.195312 31.367188 C 104.164062 31.839844 104.132812 32.261719 104.097656 32.773438 C 104.550781 32.8125 104.882812 32.863281 105.214844 32.863281 C 106.363281 32.875 107.515625 32.855469 108.664062 32.867188 C 109.023438 32.871094 109.382812 32.9375 109.910156 32.992188 C 109.3125 33.902344 108.621094 33.96875 107.839844 33.894531 C 106.390625 33.753906 104.941406 33.609375 103.492188 33.550781 C 102 33.492188 100.507812 33.539062 99.035156 33.890625 C 98.824219 33.941406 98.574219 33.820312 98.253906 33.765625 C 98.644531 32.988281 99.214844 32.882812 99.84375 32.882812 C 100.835938 32.886719 101.824219 32.882812 102.84375 32.882812 C 102.9375 32.628906 103.046875 32.464844 103.0625 32.289062 C 103.121094 31.476562 102.882812 31.242188 102.082031 31.316406 C 101.816406 31.339844 101.550781 31.425781 101.285156 31.414062 C 101.089844 31.402344 100.898438 31.273438 100.570312 31.148438 C 100.878906 30.945312 101.058594 30.730469 101.242188 30.722656 C 102.769531 30.671875 104.300781 30.648438 105.828125 30.644531 C 106.066406 30.644531 106.308594 30.785156 106.546875 30.859375 C 106.535156 30.96875 106.523438 31.082031 106.515625 31.195312 "/>
<path style=" stroke:none;fill-rule:evenodd;fill:rgb(100%,100%,100%);fill-opacity:1;" d="M 67.898438 33.097656 C 67.898438 32.613281 67.898438 32.195312 67.898438 31.714844 C 66.050781 31.5 64.292969 31.398438 62.554688 31.773438 C 62.445312 33.003906 62.5625 33.113281 63.578125 33.085938 C 64.566406 33.058594 65.554688 33.09375 66.542969 33.097656 C 66.957031 33.101562 67.371094 33.097656 67.898438 33.097656 Z M 61.804688 34.023438 C 61.558594 33.199219 61.339844 32.519531 61.15625 31.832031 C 61.019531 31.300781 61.277344 30.964844 61.886719 30.945312 C 63.449219 30.890625 65.011719 30.867188 66.570312 30.851562 C 67.066406 30.84375 67.5625 30.867188 68.054688 30.910156 C 68.414062 30.945312 68.773438 31.039062 69.25 31.128906 C 69.039062 32.15625 68.988281 33.085938 68.578125 34.046875 C 67.402344 33.941406 66.273438 33.761719 65.148438 33.757812 C 64.027344 33.757812 62.90625 33.925781 61.804688 34.023438 "/>
<path style=" stroke:none;fill-rule:evenodd;fill:rgb(100%,100%,100%);fill-opacity:1;" d="M 104.710938 27.363281 C 105.519531 27.363281 106.320312 27.347656 107.121094 27.367188 C 108.238281 27.390625 108.539062 27.734375 108.429688 28.867188 C 108.382812 29.394531 108.273438 29.917969 108.1875 30.472656 C 107.488281 30.488281 107.601562 29.976562 107.53125 29.613281 C 107.453125 29.207031 107.398438 28.796875 107.320312 28.3125 C 106.691406 28.214844 106.136719 28.054688 105.578125 28.050781 C 104.007812 28.042969 102.4375 28.078125 100.871094 28.136719 C 100.117188 28.160156 99.855469 28.449219 99.785156 29.183594 C 99.753906 29.488281 99.785156 29.804688 99.734375 30.101562 C 99.699219 30.300781 99.558594 30.476562 99.453125 30.703125 C 98.746094 29.824219 98.664062 28.6875 99.222656 27.453125 C 99.769531 27.4375 100.371094 27.410156 100.976562 27.402344 C 101.550781 27.394531 102.121094 27.402344 102.71875 27.402344 C 103.035156 26.984375 103.035156 26.285156 103.738281 26.292969 C 104.382812 26.296875 104.429688 26.914062 104.710938 27.363281 "/>
<path style=" stroke:none;fill-rule:evenodd;fill:rgb(100%,100%,100%);fill-opacity:1;" d="M 75.144531 30.449219 C 75.144531 31.582031 75.144531 32.710938 75.144531 33.902344 C 74.804688 33.917969 74.601562 33.925781 74.308594 33.941406 C 74.308594 32.878906 74.308594 31.878906 74.308594 30.714844 C 73.777344 31.035156 73.390625 31.339844 72.953125 31.519531 C 72.511719 31.699219 72.019531 31.816406 71.542969 31.855469 C 71.238281 31.886719 70.957031 31.695312 71.042969 31.199219 C 72.46875 30.875 73.96875 30.585938 74.882812 29.085938 C 73.949219 28.644531 73.085938 29.136719 72.292969 29.050781 C 72.171875 28.511719 72.421875 28.292969 72.738281 28.28125 C 73.800781 28.246094 74.863281 28.269531 75.925781 28.277344 C 75.984375 28.277344 76.039062 28.371094 76.175781 28.5 C 76.039062 28.796875 75.886719 29.128906 75.699219 29.535156 C 76.011719 29.773438 76.355469 30.039062 76.738281 30.332031 C 76.257812 30.839844 75.792969 30.242188 75.144531 30.449219 "/>
<path style=" stroke:none;fill-rule:evenodd;fill:rgb(100%,100%,100%);fill-opacity:1;" d="M 90.84375 28.375 C 91.3125 27.355469 92.207031 27.945312 92.890625 27.597656 C 92.921875 27.515625 92.960938 27.324219 93.066406 27.183594 C 93.207031 26.988281 93.386719 26.703125 93.574219 26.683594 C 93.765625 26.664062 94.015625 26.894531 94.175781 27.070312 C 94.289062 27.195312 94.300781 27.414062 94.382812 27.667969 C 95.160156 27.710938 95.929688 27.753906 96.703125 27.796875 C 96.714844 27.878906 96.730469 27.957031 96.742188 28.035156 C 96.535156 28.144531 96.335938 28.335938 96.121094 28.34375 C 94.519531 28.417969 92.914062 28.457031 91.308594 28.5 C 91.203125 28.503906 91.097656 28.445312 90.84375 28.375 "/>
<path style=" stroke:none;fill-rule:evenodd;fill:rgb(100%,100%,100%);fill-opacity:1;" d="M 76.449219 27.453125 C 75.089844 27.851562 74.007812 27.71875 72.898438 27.449219 C 73.148438 26.710938 73.316406 26.539062 73.824219 26.667969 C 74.625 26.863281 75.410156 27.136719 76.449219 27.453125 "/>
<path style=" stroke:none;fill-rule:evenodd;fill:rgb(100%,100%,100%);fill-opacity:1;" d="M 100.273438 29.933594 C 101.054688 29.46875 101.75 29.023438 102.480469 28.644531 C 102.644531 28.558594 102.925781 28.707031 103.203125 28.757812 C 102.449219 29.945312 101.773438 30.210938 100.273438 29.933594 "/>
<path style=" stroke:none;fill-rule:evenodd;fill:rgb(100%,100%,100%);fill-opacity:1;" d="M 104.105469 29.183594 C 104.257812 28.660156 104.5 28.441406 104.828125 28.609375 C 105.515625 28.964844 106.167969 29.386719 106.792969 29.867188 C 105.746094 30.140625 104.898438 29.824219 104.105469 29.183594 "/>
<path style=" stroke:none;fill-rule:evenodd;fill:rgb(100%,100%,100%);fill-opacity:1;" d="M 88.863281 32.203125 C 88.492188 31.871094 88.125 31.542969 87.753906 31.210938 C 88.398438 30.542969 88.644531 30.730469 88.863281 32.203125 "/>
<path style=" stroke:none;fill-rule:nonzero;fill:rgb(100%,100%,100%);fill-opacity:1;" d="M 63.53125 15.433594 L 65.25 15.433594 L 65.25 20.851562 C 65.25 21.558594 65.1875 22.105469 65.066406 22.484375 C 64.898438 22.984375 64.59375 23.382812 64.152344 23.683594 C 63.714844 23.988281 63.132812 24.136719 62.414062 24.136719 C 61.570312 24.136719 60.917969 23.902344 60.464844 23.429688 C 60.007812 22.957031 59.78125 22.261719 59.777344 21.347656 L 61.402344 21.160156 C 61.421875 21.652344 61.496094 21.996094 61.621094 22.199219 C 61.804688 22.507812 62.089844 22.660156 62.472656 22.660156 C 62.855469 22.660156 63.128906 22.550781 63.289062 22.332031 C 63.449219 22.109375 63.53125 21.65625 63.53125 20.960938 L 63.53125 15.433594 "/>
<path style=" stroke:none;fill-rule:nonzero;fill:rgb(100%,100%,100%);fill-opacity:1;" d="M 67.078125 15.433594 L 68.804688 15.433594 L 68.804688 20.070312 C 68.804688 20.804688 68.828125 21.28125 68.871094 21.5 C 68.945312 21.847656 69.121094 22.128906 69.398438 22.34375 C 69.675781 22.554688 70.058594 22.660156 70.539062 22.660156 C 71.03125 22.660156 71.402344 22.558594 71.648438 22.359375 C 71.898438 22.160156 72.046875 21.914062 72.097656 21.621094 C 72.148438 21.332031 72.175781 20.84375 72.175781 20.167969 L 72.175781 15.433594 L 73.902344 15.433594 L 73.902344 19.929688 C 73.902344 20.957031 73.855469 21.683594 73.761719 22.105469 C 73.667969 22.53125 73.496094 22.890625 73.246094 23.179688 C 72.996094 23.472656 72.660156 23.707031 72.238281 23.878906 C 71.820312 24.050781 71.269531 24.136719 70.59375 24.136719 C 69.777344 24.136719 69.15625 24.042969 68.734375 23.855469 C 68.3125 23.664062 67.976562 23.421875 67.730469 23.117188 C 67.488281 22.816406 67.324219 22.5 67.246094 22.171875 C 67.136719 21.679688 67.078125 20.957031 67.078125 20 L 67.078125 15.433594 "/>
<path style=" stroke:none;fill-rule:nonzero;fill:rgb(100%,100%,100%);fill-opacity:1;" d="M 75.742188 23.992188 L 75.742188 15.433594 L 77.421875 15.433594 L 80.925781 21.148438 L 80.925781 15.433594 L 82.53125 15.433594 L 82.53125 23.992188 L 80.796875 23.992188 L 77.347656 18.410156 L 77.347656 23.992188 L 75.742188 23.992188 "/>
<path style=" stroke:none;fill-rule:nonzero;fill:rgb(100%,100%,100%);fill-opacity:1;" d="M 84.359375 23.992188 L 84.359375 15.433594 L 90.707031 15.433594 L 90.707031 16.882812 L 86.085938 16.882812 L 86.085938 18.777344 L 90.382812 18.777344 L 90.382812 20.21875 L 86.085938 20.21875 L 86.085938 22.550781 L 90.867188 22.550781 L 90.867188 23.992188 L 84.359375 23.992188 "/>
<path style=" stroke:none;fill-rule:nonzero;fill:rgb(100%,100%,100%);fill-opacity:1;" d="M 96.871094 20.605469 L 95.691406 17.429688 L 94.535156 20.605469 Z M 100.050781 23.992188 L 98.171875 23.992188 L 97.425781 22.046875 L 94.003906 22.046875 L 93.296875 23.992188 L 91.464844 23.992188 L 94.796875 15.433594 L 96.625 15.433594 L 100.050781 23.992188 "/>
<path style=" stroke:none;fill-rule:nonzero;fill:rgb(100%,100%,100%);fill-opacity:1;" d="M 102.398438 19.707031 C 102.398438 20.675781 102.621094 21.410156 103.070312 21.910156 C 103.519531 22.410156 104.085938 22.660156 104.773438 22.660156 C 105.464844 22.660156 106.027344 22.414062 106.472656 21.917969 C 106.910156 21.421875 107.132812 20.675781 107.132812 19.683594 C 107.132812 18.703125 106.917969 17.972656 106.488281 17.488281 C 106.058594 17.007812 105.488281 16.765625 104.773438 16.765625 C 104.0625 16.765625 103.488281 17.007812 103.054688 17.496094 C 102.617188 17.984375 102.398438 18.722656 102.398438 19.707031 Z M 100.617188 19.765625 C 100.617188 18.894531 100.746094 18.160156 101.007812 17.570312 C 101.203125 17.132812 101.46875 16.742188 101.808594 16.398438 C 102.144531 16.050781 102.511719 15.792969 102.910156 15.625 C 103.445312 15.402344 104.0625 15.289062 104.757812 15.289062 C 106.019531 15.289062 107.027344 15.679688 107.785156 16.460938 C 108.539062 17.242188 108.921875 18.332031 108.921875 19.722656 C 108.921875 21.105469 108.542969 22.1875 107.792969 22.96875 C 107.042969 23.746094 106.039062 24.136719 104.78125 24.136719 C 103.507812 24.136719 102.496094 23.75 101.746094 22.972656 C 100.992188 22.195312 100.617188 21.128906 100.617188 19.765625 "/>
<path style=" stroke:none;fill-rule:nonzero;fill:rgb(100%,100%,100%);fill-opacity:1;" d="M 117.683594 20.605469 L 116.503906 17.429688 L 115.347656 20.605469 Z M 120.863281 23.992188 L 118.984375 23.992188 L 118.238281 22.046875 L 114.816406 22.046875 L 114.109375 23.992188 L 112.277344 23.992188 L 115.609375 15.433594 L 117.4375 15.433594 L 120.863281 23.992188 "/>
<path style=" stroke:none;fill-rule:nonzero;fill:rgb(100%,100%,100%);fill-opacity:1;" d="M 121.730469 23.992188 L 121.730469 15.433594 L 123.457031 15.433594 L 123.457031 23.992188 L 121.730469 23.992188 "/>
<path style=" stroke:none;fill-rule:nonzero;fill:rgb(100%,100%,100%);fill-opacity:1;" d="M 126.835938 19.054688 L 128.113281 19.054688 C 128.945312 19.054688 129.460938 19.019531 129.667969 18.949219 C 129.875 18.878906 130.035156 18.757812 130.152344 18.585938 C 130.269531 18.414062 130.328125 18.199219 130.328125 17.945312 C 130.328125 17.65625 130.25 17.421875 130.097656 17.246094 C 129.941406 17.070312 129.726562 16.957031 129.445312 16.910156 C 129.304688 16.890625 128.886719 16.882812 128.1875 16.882812 L 126.835938 16.882812 Z M 125.109375 23.992188 L 125.109375 15.433594 L 128.746094 15.433594 C 129.660156 15.433594 130.324219 15.511719 130.738281 15.664062 C 131.152344 15.816406 131.484375 16.089844 131.734375 16.484375 C 131.984375 16.878906 132.109375 17.328125 132.109375 17.832031 C 132.109375 18.476562 131.921875 19.003906 131.542969 19.421875 C 131.164062 19.84375 130.601562 20.105469 129.847656 20.214844 C 130.222656 20.433594 130.53125 20.671875 130.773438 20.933594 C 131.019531 21.195312 131.347656 21.65625 131.757812 22.324219 L 132.804688 23.992188 L 130.734375 23.992188 L 129.488281 22.128906 C 129.042969 21.464844 128.738281 21.042969 128.574219 20.871094 C 128.414062 20.699219 128.238281 20.578125 128.058594 20.515625 C 127.875 20.453125 127.585938 20.417969 127.1875 20.417969 L 126.835938 20.417969 L 126.835938 23.992188 L 125.109375 23.992188 "/>
<path style=" stroke:none;fill-rule:nonzero;fill:rgb(100%,100%,100%);fill-opacity:1;" d="M 133.785156 23.992188 L 133.785156 15.503906 L 135.511719 15.503906 L 135.511719 22.550781 L 139.808594 22.550781 L 139.808594 23.992188 L 133.785156 23.992188 "/>
<path style=" stroke:none;fill-rule:nonzero;fill:rgb(100%,100%,100%);fill-opacity:1;" d="M 140.988281 23.992188 L 140.988281 15.433594 L 142.714844 15.433594 L 142.714844 23.992188 L 140.988281 23.992188 "/>
<path style=" stroke:none;fill-rule:nonzero;fill:rgb(100%,100%,100%);fill-opacity:1;" d="M 144.378906 23.992188 L 144.378906 15.433594 L 146.0625 15.433594 L 149.5625 21.148438 L 149.5625 15.433594 L 151.171875 15.433594 L 151.171875 23.992188 L 149.4375 23.992188 L 145.984375 18.410156 L 145.984375 23.992188 L 144.378906 23.992188 "/>
<path style=" stroke:none;fill-rule:nonzero;fill:rgb(100%,100%,100%);fill-opacity:1;" d="M 152.996094 23.992188 L 152.996094 15.433594 L 159.34375 15.433594 L 159.34375 16.882812 L 154.726562 16.882812 L 154.726562 18.777344 L 159.019531 18.777344 L 159.019531 20.21875 L 154.726562 20.21875 L 154.726562 22.550781 L 159.507812 22.550781 L 159.507812 23.992188 L 152.996094 23.992188 "/>
<path style=" stroke:none;fill-rule:nonzero;fill:rgb(100%,100%,100%);fill-opacity:1;" d="M 160.53125 21.207031 L 162.214844 21.042969 C 162.316406 21.609375 162.519531 22.023438 162.832031 22.285156 C 163.140625 22.550781 163.558594 22.683594 164.082031 22.683594 C 164.640625 22.683594 165.058594 22.566406 165.339844 22.332031 C 165.621094 22.09375 165.765625 21.820312 165.765625 21.503906 C 165.765625 21.300781 165.703125 21.128906 165.585938 20.988281 C 165.46875 20.847656 165.261719 20.722656 164.964844 20.617188 C 164.761719 20.546875 164.300781 20.421875 163.582031 20.242188 C 162.652344 20.015625 162.003906 19.730469 161.632812 19.398438 C 161.105469 18.925781 160.84375 18.351562 160.84375 17.675781 C 160.84375 17.238281 160.96875 16.832031 161.214844 16.453125 C 161.460938 16.074219 161.816406 15.785156 162.28125 15.585938 C 162.746094 15.386719 163.308594 15.289062 163.964844 15.289062 C 165.039062 15.289062 165.847656 15.523438 166.394531 15.992188 C 166.933594 16.464844 167.21875 17.09375 167.246094 17.878906 L 165.519531 17.957031 C 165.445312 17.515625 165.285156 17.199219 165.042969 17.007812 C 164.800781 16.8125 164.4375 16.71875 163.949219 16.71875 C 163.445312 16.71875 163.054688 16.820312 162.769531 17.027344 C 162.585938 17.160156 162.496094 17.335938 162.496094 17.558594 C 162.496094 17.761719 162.582031 17.933594 162.753906 18.078125 C 162.96875 18.261719 163.5 18.453125 164.339844 18.648438 C 165.179688 18.847656 165.804688 19.054688 166.203125 19.265625 C 166.609375 19.476562 166.921875 19.769531 167.152344 20.136719 C 167.378906 20.503906 167.492188 20.957031 167.492188 21.5 C 167.492188 21.988281 167.355469 22.449219 167.085938 22.878906 C 166.8125 23.304688 166.425781 23.621094 165.929688 23.832031 C 165.429688 24.039062 164.808594 24.144531 164.066406 24.144531 C 162.984375 24.144531 162.152344 23.894531 161.574219 23.394531 C 160.992188 22.894531 160.644531 22.164062 160.53125 21.207031 "/>
</g>
</svg>
