<svg xmlns="http://www.w3.org/2000/svg" width="176pt" height="46.067" viewBox="0 0 176 34.55"><defs><clipPath id="a"><path d="M0 0h35v34.55H0Zm0 0"/></clipPath></defs><g clip-path="url(#a)"><path d="M10.371 14.07c-.226.13-.469.258-.738.18-1.414-.242-2.824-.512-4.238-.77-.27-.027-.582-.164-.836 0-1.164.641-2.317 1.313-3.473 1.973 8.75 4.906 17.516 9.797 26.289 14.664.02-2.047.012-4.094.008-6.14-2-.372-4-.727-6-1.106a356 356 0 0 1 5.972-3.308c.043-1.989.008-3.985.02-5.977-3.082 1.754-6.148 3.523-9.238 5.262-.828-.485-1.668-.946-2.492-1.446 3.921-2.261 7.906-4.422 11.847-6.656-.004-2.098 0-4.203-.004-6.305-5.703 3.211-11.414 6.418-17.117 9.63M15.105.148c3.805-.5 7.774.293 11.079 2.254 3.53 2.063 6.289 5.41 7.609 9.282 1.41 4.066 1.215 8.66-.55 12.586-1.63 3.687-4.602 6.75-8.223 8.515-3.899 1.922-8.528 2.29-12.684 1.028-3.969-1.18-7.48-3.84-9.684-7.348-1.738-2.75-2.699-6-2.652-9.254-.023-4.426 1.805-8.805 4.895-11.961A17.37 17.37 0 0 1 15.105.148" style="stroke:none;fill-rule:nonzero;fill:#274394;fill-opacity:1"/></g><path d="M43.555 7.281q3.134-.005 6.273-.004c.02 2.356-.047 4.711.012 7.063 2.273.015 4.543-.012 6.816-.008.016-2.355.004-4.707.008-7.062 2.098-.004 4.2 0 6.297 0-.008 6.734.012 13.472.012 20.207-2.106-.004-4.207.011-6.309-.012v-8.156h-6.836v8.152c-2.094.031-4.191.02-6.285.004-.004-6.73.016-13.457.012-20.184M85.664 7.27q2.808-.006 5.621 0-.006 3.697.012 7.394c.746-.664 1.512-1.348 2.457-1.715 1.18-.457 2.492-.543 3.734-.324 1.278.238 2.461 1.047 3.035 2.227.57 1.105.665 2.378.665 3.601q.001 4.512-.004 9.024c-1.88.003-3.758 0-5.641 0-.008-2.66.016-5.325-.012-7.985-.031-.746-.05-1.617-.656-2.148-.914-.754-2.473-.512-3.082.52-.5.863-.484 1.902-.508 2.866.004 2.247-.012 4.489.012 6.735-1.879.027-3.758.008-5.633.012q-.006-10.104 0-20.207M139.988 19.758c1.48.023 2.961.012 4.442.008-.743-2.41-1.461-4.828-2.215-7.239-.785 2.399-1.48 4.82-2.227 7.23m-8.738 7.719c2.508-6.747 5.07-13.477 7.613-20.207q3.417-.006 6.832 0 3.803 10.1 7.602 20.207c-2.176.003-4.352-.004-6.531.003-.348-1.101-.676-2.21-.993-3.32-2.39-.027-4.78-.02-7.168-.012q-.49 1.665-.98 3.329c-2.125 0-4.25.003-6.375 0M155.152 7.27c1.875-.004 3.746 0 5.618-.004.03 1.273.015 2.55-.008 3.828h-5.594c-.027-1.278-.012-2.551-.016-3.824M73.566 21.5c-.636.23-1.39.434-1.71 1.09-.387.726.023 1.726.812 1.965 1.348.394 2.95-.153 3.71-1.348.47-.809.388-1.777.4-2.672-1.063.36-2.145.633-3.212.965m-.93-8.937a28 28 0 0 1 4.962.14c1.343.164 2.746.668 3.597 1.777.711.989 1.047 2.22 1.086 3.43.028 2.403-.031 4.805.028 7.207 0 .836.336 1.606.656 2.36q-2.635.006-5.27-.004c-.324-.54-.5-1.145-.605-1.754-.684.562-1.375 1.144-2.203 1.472-1.489.606-3.137.704-4.719.536-1.297-.149-2.602-.743-3.371-1.829-1.203-1.64-.918-4.28.773-5.484 1.293-.879 2.875-1.082 4.364-1.414 1.644-.328 3.289-.68 4.851-1.305-.055-.582-.105-1.328-.707-1.62-.941-.364-2.012-.259-2.957.03-.66.215-.984.868-1.242 1.457-1.797-.164-3.586-.37-5.375-.554.258-1.055.633-2.149 1.488-2.871 1.246-1.164 3.012-1.43 4.645-1.575M113.094 12.777c1.36-.351 2.851-.398 4.18.121a4.03 4.03 0 0 1 2.136 1.918c.547 1.059.676 2.278.676 3.454.004 3.07-.008 6.136.012 9.207-1.883.003-3.77 0-5.653.003q-.002-3.996-.015-7.992c-.028-.722-.04-1.55-.594-2.09-.91-.835-2.566-.566-3.168.512-.453.797-.457 1.746-.48 2.637 0 2.312-.016 4.621-.016 6.93-1.871-.004-3.746.015-5.621-.012q0-7.305.015-14.606c1.746-.011 3.489-.004 5.235-.007.004.78 0 1.558.004 2.335.902-1.023 1.933-2.042 3.289-2.41M171.777 12.813c1.375-.626 2.938-.184 4.223.46-.566 1.336-1.16 2.66-1.75 3.989-.871-.34-1.96-.657-2.777-.016-1.02.832-1.164 2.262-1.301 3.484-.14 2.247-.067 4.5-.082 6.747q-2.82 0-5.645.003c-.007-4.875 0-9.75-.004-14.625 1.75-.003 3.504 0 5.25 0 0 .774.012 1.547.016 2.325.55-.89 1.05-1.934 2.07-2.367M155.152 12.86c1.875-.02 3.75-.028 5.625-.005.024 4.875.004 9.75.008 14.625-1.879-.003-3.754 0-5.633-.003 0-4.872.004-9.743 0-14.618" style="stroke:none;fill-rule:nonzero;fill:#274394;fill-opacity:1"/></svg>