<?xml version="1.0" encoding="UTF-8"?>
<svg xmlns="http://www.w3.org/2000/svg" xmlns:xlink="http://www.w3.org/1999/xlink" width="176pt" height="43.26pt" viewBox="0 0 176 43.26" version="1.1">
<defs>
<clipPath id="clip1">
  <path d="M 2 30 L 24 30 L 24 43.261719 L 2 43.261719 Z M 2 30 "/>
</clipPath>
<clipPath id="clip2">
  <path d="M 24 30 L 46 30 L 46 43.261719 L 24 43.261719 Z M 24 30 "/>
</clipPath>
</defs>
<g id="surface1">
<path style=" stroke:none;fill-rule:nonzero;fill:rgb(90.34729%,11.286926%,14.352417%);fill-opacity:1;" d="M 15.0625 1.019531 C 17.199219 0.472656 19.390625 0.144531 21.589844 0 C 17.582031 0.351562 13.570312 1.453125 10.1875 3.675781 C 8.066406 5.078125 6.179688 6.980469 5.238281 9.375 C 4.472656 11.292969 4.4375 13.484375 5.167969 15.417969 C 6.027344 17.746094 7.800781 19.632812 9.8125 21.039062 C 11.503906 22.226562 13.402344 23.082031 15.355469 23.75 C 17.351562 24.414062 19.386719 25.050781 21.1875 26.160156 C 22.339844 26.871094 23.398438 27.804688 24.023438 29.019531 C 24.488281 28.117188 25.195312 27.359375 26 26.75 C 27.898438 25.324219 30.183594 24.578125 32.410156 23.84375 C 34.8125 23.050781 37.152344 21.964844 39.128906 20.367188 C 40.933594 18.917969 42.457031 17.015625 43.09375 14.765625 C 43.652344 12.855469 43.460938 10.761719 42.640625 8.960938 C 41.59375 6.644531 39.683594 4.824219 37.558594 3.480469 C 34.226562 1.386719 30.324219 0.328125 26.425781 0 C 30.210938 0.238281 33.976562 1.039062 37.46875 2.527344 C 39.707031 3.484375 41.835938 4.734375 43.65625 6.359375 C 45.160156 7.707031 46.453125 9.332031 47.238281 11.207031 C 47.847656 12.632812 48.128906 14.203125 48.027344 15.753906 C 47.925781 17.671875 47.269531 19.550781 46.199219 21.140625 C 44.765625 23.296875 42.683594 24.949219 40.457031 26.230469 C 39.101562 27.011719 37.671875 27.664062 36.210938 28.214844 C 34.078125 29.035156 31.96875 29.972656 30.09375 31.296875 C 28.257812 32.574219 26.660156 34.21875 25.558594 36.167969 C 24.832031 37.433594 24.332031 38.820312 24.023438 40.242188 C 23.460938 37.675781 22.195312 35.261719 20.359375 33.371094 C 18.121094 31.019531 15.171875 29.5 12.171875 28.351562 C 10.003906 27.535156 7.890625 26.542969 5.980469 25.21875 C 3.917969 23.792969 2.074219 21.941406 1.003906 19.644531 C -0.0859375 17.328125 -0.320312 14.59375 0.460938 12.148438 C 1.257812 9.605469 3 7.464844 5.042969 5.800781 C 7.953125 3.457031 11.457031 1.941406 15.0625 1.019531 "/>
<path style=" stroke:none;fill-rule:nonzero;fill:rgb(90.34729%,11.286926%,14.352417%);fill-opacity:1;" d="M 18.605469 1.015625 C 19.296875 0.882812 19.996094 0.742188 20.703125 0.703125 C 18.074219 1.027344 15.480469 1.863281 13.207031 3.242188 C 11.453125 4.328125 9.851562 5.808594 9.011719 7.726562 C 8.289062 9.34375 8.269531 11.246094 8.941406 12.878906 C 9.652344 14.644531 11.050781 16.042969 12.613281 17.082031 C 14.902344 18.589844 17.550781 19.460938 20.226562 19.980469 C 21.5625 20.230469 22.988281 20.515625 24.019531 21.472656 C 25.085938 20.488281 26.5625 20.214844 27.941406 19.953125 C 30.101562 19.53125 32.230469 18.863281 34.183594 17.824219 C 35.964844 16.863281 37.636719 15.558594 38.660156 13.78125 C 39.589844 12.203125 39.855469 10.242188 39.308594 8.484375 C 38.765625 6.683594 37.492188 5.191406 36.023438 4.058594 C 33.824219 2.378906 31.167969 1.386719 28.46875 0.867188 C 28.089844 0.785156 27.699219 0.746094 27.3125 0.707031 C 28.195312 0.746094 29.054688 0.933594 29.914062 1.117188 C 32.757812 1.761719 35.542969 2.894531 37.835938 4.722656 C 39.386719 5.964844 40.707031 7.582031 41.285156 9.503906 C 41.871094 11.394531 41.628906 13.515625 40.648438 15.234375 C 39.605469 17.097656 37.898438 18.480469 36.082031 19.542969 C 34.5625 20.429688 32.933594 21.105469 31.269531 21.65625 C 29.597656 22.21875 27.855469 22.574219 26.226562 23.265625 C 25.351562 23.640625 24.511719 24.195312 24.019531 25.039062 C 23.523438 24.1875 22.671875 23.628906 21.785156 23.257812 C 19.960938 22.488281 18.003906 22.125 16.152344 21.445312 C 13.609375 20.539062 11.109375 19.332031 9.132812 17.457031 C 7.789062 16.183594 6.761719 14.507812 6.511719 12.652344 C 6.257812 10.941406 6.667969 9.164062 7.558594 7.691406 C 8.441406 6.207031 9.726562 4.992188 11.148438 4.023438 C 13.386719 2.511719 15.96875 1.558594 18.605469 1.015625 "/>
<path style=" stroke:none;fill-rule:nonzero;fill:rgb(90.34729%,11.286926%,14.352417%);fill-opacity:1;" d="M 14.320312 3.464844 C 15.929688 2.457031 17.730469 1.765625 19.589844 1.394531 C 17.894531 1.8125 16.253906 2.511719 14.832031 3.539062 C 13.621094 4.433594 12.566406 5.625 12.097656 7.078125 C 11.65625 8.398438 11.808594 9.886719 12.453125 11.117188 C 13.347656 12.832031 14.957031 14.058594 16.660156 14.894531 C 19.519531 16.269531 22.777344 16.691406 25.917969 16.390625 C 28.554688 16.117188 31.199219 15.308594 33.339844 13.703125 C 34.6875 12.683594 35.832031 11.25 36.125 9.550781 C 36.402344 8.082031 35.949219 6.546875 35.066406 5.363281 C 33.855469 3.71875 32.042969 2.632812 30.164062 1.917969 C 29.601562 1.707031 29.027344 1.535156 28.449219 1.390625 C 29.976562 1.6875 31.464844 2.222656 32.84375 2.949219 C 34.523438 3.847656 36.085938 5.101562 37.003906 6.800781 C 37.71875 8.109375 37.929688 9.695312 37.507812 11.132812 C 37.050781 12.738281 35.917969 14.066406 34.617188 15.070312 C 32.898438 16.382812 30.859375 17.242188 28.761719 17.71875 C 27.597656 17.992188 26.394531 18.066406 25.230469 18.347656 C 24.773438 18.453125 24.347656 18.683594 24.027344 19.027344 C 23.296875 18.238281 22.148438 18.230469 21.164062 18.046875 C 18.679688 17.734375 16.226562 16.953125 14.128906 15.5625 C 12.722656 14.628906 11.453125 13.390625 10.789062 11.816406 C 10.183594 10.414062 10.183594 8.773438 10.78125 7.367188 C 11.476562 5.710938 12.828125 4.417969 14.320312 3.464844 "/>
<path style=" stroke:none;fill-rule:nonzero;fill:rgb(90.34729%,11.286926%,14.352417%);fill-opacity:1;" d="M 23.535156 2.644531 C 24.671875 2.519531 25.855469 2.84375 26.765625 3.542969 C 27.808594 4.332031 28.488281 5.582031 28.574219 6.890625 C 28.664062 8.042969 28.300781 9.230469 27.570312 10.132812 C 26.785156 11.121094 25.582031 11.761719 24.324219 11.835938 C 23.136719 11.921875 21.921875 11.507812 21.03125 10.71875 C 20.0625 9.878906 19.476562 8.617188 19.457031 7.335938 C 19.421875 6.121094 19.890625 4.898438 20.738281 4.023438 C 21.46875 3.257812 22.476562 2.757812 23.535156 2.644531 "/>
<path style=" stroke:none;fill-rule:nonzero;fill:rgb(90.34729%,11.286926%,14.352417%);fill-opacity:1;" d="M 128.394531 8.964844 C 128.394531 10.824219 128.394531 12.679688 128.394531 14.539062 C 129.816406 14.539062 131.242188 14.539062 132.667969 14.539062 C 132.667969 12.679688 132.667969 10.824219 132.667969 8.96875 C 131.242188 8.964844 129.816406 8.96875 128.394531 8.964844 Z M 128.84375 6.566406 C 129.054688 5.722656 129.1875 4.863281 129.335938 4.011719 C 130.242188 4.125 131.148438 4.242188 132.058594 4.359375 C 131.886719 5.097656 131.703125 5.832031 131.511719 6.566406 C 132.71875 6.566406 133.929688 6.566406 135.136719 6.566406 C 135.136719 12.914062 135.136719 19.257812 135.136719 25.605469 C 135.15625 26.75 134.109375 27.75 132.980469 27.75 C 132.121094 27.761719 131.269531 27.753906 130.414062 27.757812 C 130.203125 26.902344 129.992188 26.050781 129.785156 25.199219 C 130.554688 25.191406 131.328125 25.230469 132.097656 25.199219 C 132.4375 25.1875 132.703125 24.878906 132.664062 24.542969 C 132.671875 22 132.667969 19.457031 132.671875 16.914062 C 131.246094 16.914062 129.820312 16.914062 128.398438 16.914062 C 128.363281 20.675781 128.039062 24.539062 126.523438 28.023438 C 125.753906 27.46875 124.980469 26.910156 124.203125 26.359375 C 125.597656 23.425781 125.917969 20.125 125.921875 16.914062 C 125.363281 16.914062 124.808594 16.914062 124.253906 16.914062 C 124.253906 16.121094 124.253906 15.332031 124.253906 14.539062 C 124.808594 14.539062 125.367188 14.539062 125.921875 14.539062 C 125.921875 11.878906 125.921875 9.222656 125.921875 6.566406 C 126.894531 6.566406 127.867188 6.566406 128.84375 6.566406 "/>
<path style=" stroke:none;fill-rule:nonzero;fill:rgb(90.34729%,11.286926%,14.352417%);fill-opacity:1;" d="M 72.269531 10.734375 C 73.875 8.675781 75.441406 6.535156 76.429688 4.105469 C 77.214844 4.378906 77.996094 4.660156 78.777344 4.9375 C 78.558594 5.480469 78.324219 6.019531 78.070312 6.546875 C 82.414062 6.546875 86.753906 6.546875 91.09375 6.546875 C 91.09375 7.28125 91.09375 8.011719 91.09375 8.742188 C 86.34375 8.742188 81.589844 8.742188 76.839844 8.742188 C 76.089844 9.933594 75.265625 11.074219 74.390625 12.179688 C 73.683594 11.695312 72.976562 11.214844 72.269531 10.734375 "/>
<path style=" stroke:none;fill-rule:nonzero;fill:rgb(90.34729%,11.286926%,14.352417%);fill-opacity:1;" d="M 105.617188 13.21875 C 106.105469 14.117188 106.480469 15.074219 106.78125 16.046875 C 107.6875 16.046875 108.597656 16.046875 109.507812 16.046875 C 109.980469 15.128906 110.414062 14.191406 110.730469 13.207031 C 109.023438 13.21875 107.320312 13.210938 105.617188 13.21875 Z M 106.847656 4.34375 C 107.699219 4.34375 108.554688 4.34375 109.40625 4.34375 C 109.40625 5.082031 109.40625 5.816406 109.40625 6.554688 C 112.6875 6.554688 115.964844 6.554688 119.246094 6.554688 C 119.246094 7.335938 119.246094 8.113281 119.246094 8.894531 C 115.964844 8.894531 112.6875 8.894531 109.40625 8.894531 C 109.40625 9.566406 109.40625 10.234375 109.40625 10.90625 C 112.378906 10.90625 115.355469 10.90625 118.335938 10.90625 C 118.335938 15.421875 118.335938 19.9375 118.335938 24.453125 C 118.316406 25.023438 118.410156 25.621094 118.179688 26.160156 C 117.878906 26.914062 117.132812 27.492188 116.308594 27.5 C 115.429688 27.511719 114.550781 27.503906 113.671875 27.503906 C 113.476562 26.730469 113.277344 25.960938 113.082031 25.1875 C 113.800781 25.183594 114.523438 25.199219 115.242188 25.183594 C 115.496094 25.183594 115.753906 25.007812 115.804688 24.75 C 115.847656 24.507812 115.824219 24.257812 115.828125 24.011719 C 115.828125 20.410156 115.828125 16.804688 115.828125 13.199219 C 114.289062 13.195312 112.75 13.210938 111.214844 13.207031 C 111.800781 13.445312 112.386719 13.683594 112.972656 13.921875 C 112.683594 14.644531 112.367188 15.359375 112.003906 16.046875 C 112.8125 16.046875 113.617188 16.046875 114.429688 16.046875 C 114.429688 16.75 114.429688 17.449219 114.429688 18.152344 C 112.746094 18.152344 111.0625 18.152344 109.378906 18.152344 C 109.378906 18.753906 109.378906 19.359375 109.378906 19.960938 C 111.066406 19.964844 112.757812 19.964844 114.441406 19.960938 C 114.445312 20.652344 114.445312 21.347656 114.441406 22.039062 C 112.757812 22.039062 111.066406 22.039062 109.378906 22.039062 C 109.378906 23.667969 109.378906 25.300781 109.378906 26.933594 C 108.554688 26.933594 107.738281 26.933594 106.921875 26.933594 C 106.921875 25.300781 106.921875 23.667969 106.917969 22.039062 C 105.199219 22.039062 103.476562 22.039062 101.753906 22.039062 C 101.753906 21.347656 101.753906 20.652344 101.753906 19.964844 C 103.476562 19.960938 105.199219 19.964844 106.917969 19.960938 C 106.921875 19.359375 106.921875 18.753906 106.917969 18.152344 C 105.191406 18.152344 103.46875 18.152344 101.742188 18.152344 C 101.742188 17.449219 101.742188 16.75 101.742188 16.046875 C 102.636719 16.046875 103.53125 16.046875 104.425781 16.046875 C 104.195312 15.292969 103.863281 14.570312 103.453125 13.898438 C 104.066406 13.671875 104.6875 13.449219 105.304688 13.222656 C 103.675781 13.21875 102.050781 13.230469 100.421875 13.226562 C 100.421875 17.988281 100.421875 22.75 100.421875 27.507812 C 99.589844 27.507812 98.753906 27.507812 97.917969 27.507812 C 97.917969 21.976562 97.917969 16.441406 97.917969 10.910156 C 100.894531 10.910156 103.871094 10.910156 106.847656 10.910156 C 106.847656 10.238281 106.847656 9.570312 106.847656 8.898438 C 103.53125 8.898438 100.21875 8.898438 96.90625 8.898438 C 96.90625 8.117188 96.90625 7.335938 96.90625 6.554688 C 100.21875 6.554688 103.53125 6.554688 106.847656 6.554688 C 106.847656 5.816406 106.847656 5.082031 106.847656 4.34375 "/>
<path style=" stroke:none;fill-rule:nonzero;fill:rgb(90.34729%,11.286926%,14.352417%);fill-opacity:1;" d="M 139.894531 4.335938 C 140.878906 4.335938 141.863281 4.335938 142.847656 4.335938 C 142.851562 5.285156 142.847656 6.234375 142.851562 7.183594 C 144.339844 7.183594 145.828125 7.183594 147.320312 7.183594 C 147.320312 8.039062 147.320312 8.894531 147.320312 9.75 C 143.523438 9.746094 139.730469 9.75 135.933594 9.746094 C 135.933594 8.890625 135.933594 8.039062 135.933594 7.183594 C 137.257812 7.183594 138.574219 7.183594 139.894531 7.183594 C 139.894531 6.234375 139.894531 5.285156 139.894531 4.335938 "/>
<path style=" stroke:none;fill-rule:nonzero;fill:rgb(90.34729%,11.286926%,14.352417%);fill-opacity:1;" d="M 163.238281 4.300781 C 164.195312 4.300781 165.15625 4.300781 166.117188 4.300781 C 166.117188 5.046875 166.117188 5.792969 166.117188 6.539062 C 169.296875 6.539062 172.476562 6.539062 175.65625 6.539062 C 175.65625 8.472656 175.65625 10.410156 175.65625 12.34375 C 174.730469 12.34375 173.804688 12.347656 172.875 12.34375 C 172.875 11.265625 172.875 10.183594 172.875 9.101562 C 167.453125 9.097656 162.03125 9.097656 156.609375 9.101562 C 156.609375 10.183594 156.609375 11.261719 156.609375 12.34375 C 155.683594 12.347656 154.757812 12.347656 153.828125 12.34375 C 153.828125 10.410156 153.828125 8.472656 153.828125 6.539062 C 156.964844 6.539062 160.101562 6.539062 163.238281 6.539062 C 163.238281 5.792969 163.234375 5.046875 163.238281 4.300781 "/>
<path style=" stroke:none;fill-rule:nonzero;fill:rgb(90.34729%,11.286926%,14.352417%);fill-opacity:1;" d="M 69.140625 4.523438 C 70.71875 5.285156 72.226562 6.195312 73.65625 7.210938 C 73.164062 7.941406 72.675781 8.664062 72.1875 9.394531 C 70.742188 8.386719 69.265625 7.421875 67.703125 6.613281 C 68.179688 5.914062 68.660156 5.21875 69.140625 4.523438 "/>
<path style=" stroke:none;fill-rule:nonzero;fill:rgb(90.34729%,11.286926%,14.352417%);fill-opacity:1;" d="M 128.796875 10.09375 C 129.492188 9.929688 130.1875 9.765625 130.882812 9.597656 C 131.445312 10.84375 131.820312 12.164062 132.121094 13.496094 C 131.390625 13.726562 130.664062 13.957031 129.9375 14.191406 C 129.6875 12.792969 129.300781 11.417969 128.796875 10.09375 "/>
<path style=" stroke:none;fill-rule:nonzero;fill:rgb(90.34729%,11.286926%,14.352417%);fill-opacity:1;" d="M 158.765625 12.988281 C 159.917969 12.222656 160.820312 11.128906 161.472656 9.917969 C 162.355469 10.296875 163.242188 10.675781 164.132812 11.058594 C 163.402344 12.449219 162.398438 13.699219 161.175781 14.679688 C 159.320312 16.1875 157.027344 17.070312 154.691406 17.472656 C 154.273438 16.574219 153.863281 15.675781 153.445312 14.78125 C 155.304688 14.515625 157.191406 14.050781 158.765625 12.988281 "/>
<path style=" stroke:none;fill-rule:nonzero;fill:rgb(90.34729%,11.286926%,14.352417%);fill-opacity:1;" d="M 166.121094 10.078125 C 167.039062 10.078125 167.960938 10.078125 168.878906 10.078125 C 168.878906 10.910156 168.875 11.738281 168.878906 12.566406 C 168.855469 13.203125 169.4375 13.765625 170.070312 13.753906 C 171.933594 13.761719 173.796875 13.757812 175.65625 13.757812 C 175.65625 14.605469 175.65625 15.449219 175.65625 16.296875 C 173.410156 16.292969 171.164062 16.296875 168.914062 16.292969 C 167.488281 16.3125 166.121094 15.082031 166.128906 13.632812 C 166.121094 12.445312 166.121094 11.265625 166.121094 10.078125 "/>
<path style=" stroke:none;fill-rule:nonzero;fill:rgb(90.34729%,11.286926%,14.352417%);fill-opacity:1;" d="M 77.878906 18.5625 C 77.675781 20.007812 77.460938 21.453125 77.234375 22.894531 C 79.136719 22.894531 81.039062 22.894531 82.941406 22.894531 C 82.003906 21.941406 81.011719 21.046875 79.941406 20.25 C 80.441406 19.714844 80.9375 19.171875 81.4375 18.636719 C 82.578125 19.4375 83.648438 20.34375 84.652344 21.308594 C 84.195312 21.835938 83.738281 22.363281 83.28125 22.894531 C 84.453125 22.898438 85.625 22.894531 86.800781 22.894531 C 86.878906 21.453125 86.945312 20.007812 87.015625 18.5625 C 83.96875 18.5625 80.921875 18.5625 77.878906 18.5625 Z M 78.605469 12.296875 C 78.460938 13.699219 78.296875 15.097656 78.128906 16.496094 C 79.746094 16.496094 81.367188 16.492188 82.984375 16.5 C 83.101562 16.519531 83.191406 16.4375 83.289062 16.390625 C 83.121094 16.40625 83.023438 16.246094 82.90625 16.15625 C 82.101562 15.394531 81.242188 14.691406 80.367188 14.011719 C 80.878906 13.476562 81.394531 12.945312 81.90625 12.414062 C 82.898438 13.167969 83.851562 13.972656 84.761719 14.832031 C 84.289062 15.332031 83.839844 15.851562 83.351562 16.339844 C 83.332031 16.382812 83.285156 16.472656 83.261719 16.515625 C 84.554688 16.46875 85.847656 16.507812 87.140625 16.496094 C 87.214844 15.097656 87.28125 13.695312 87.355469 12.296875 C 84.4375 12.296875 81.523438 12.296875 78.605469 12.296875 M 75.5625 16.496094 C 75.835938 14.386719 76.109375 12.277344 76.277344 10.15625 C 80.882812 10.15625 85.484375 10.15625 90.085938 10.15625 C 89.96875 12.269531 89.851562 14.382812 89.742188 16.496094 C 90.242188 16.496094 90.75 16.496094 91.25 16.496094 C 91.246094 17.183594 91.25 17.871094 91.246094 18.5625 C 90.71875 18.5625 90.179688 18.5625 89.648438 18.5625 C 89.574219 20.003906 89.496094 21.449219 89.421875 22.894531 C 89.847656 22.894531 90.28125 22.894531 90.707031 22.894531 C 90.707031 23.601562 90.707031 24.304688 90.707031 25.007812 C 90.222656 25.007812 89.738281 25.007812 89.257812 25.007812 C 89.175781 25.800781 88.964844 26.636719 88.382812 27.222656 C 87.753906 27.863281 86.828125 28.070312 85.964844 28.113281 C 85.257812 28.136719 84.550781 28.121094 83.84375 28.125 C 83.699219 27.367188 83.550781 26.609375 83.402344 25.851562 C 84.019531 25.945312 84.632812 26.050781 85.257812 26.046875 C 85.636719 26.039062 86.054688 25.988281 86.335938 25.710938 C 86.53125 25.527344 86.59375 25.257812 86.65625 25.007812 C 82.542969 25.007812 78.433594 25.007812 74.324219 25.007812 C 74.691406 22.863281 74.988281 20.710938 75.300781 18.5625 C 74.769531 18.5625 74.234375 18.5625 73.703125 18.5625 C 73.699219 17.875 73.703125 17.1875 73.699219 16.5 C 74.324219 16.496094 74.941406 16.496094 75.5625 16.496094 "/>
<path style=" stroke:none;fill-rule:nonzero;fill:rgb(90.34729%,11.286926%,14.352417%);fill-opacity:1;" d="M 67.613281 11.054688 C 68.875 11.636719 70.058594 12.363281 71.226562 13.117188 C 71.710938 13.4375 72.195312 13.765625 72.648438 14.128906 C 72.167969 14.902344 71.6875 15.671875 71.207031 16.441406 C 69.621094 15.308594 67.992188 14.21875 66.261719 13.3125 C 66.714844 12.558594 67.164062 11.808594 67.613281 11.054688 "/>
<path style=" stroke:none;fill-rule:nonzero;fill:rgb(90.34729%,11.286926%,14.352417%);fill-opacity:1;" d="M 137.664062 11.605469 C 140.101562 11.601562 142.535156 11.613281 144.976562 11.597656 C 144.976562 15.914062 144.972656 20.234375 144.976562 24.546875 C 144.96875 24.753906 145.003906 25.035156 145.242188 25.097656 C 145.554688 25.15625 146.0625 25.203125 146.171875 24.804688 C 146.371094 23.992188 146.4375 23.152344 146.539062 22.320312 C 147.363281 22.542969 148.183594 22.765625 149.007812 22.988281 C 148.816406 24.027344 148.757812 25.121094 148.265625 26.074219 C 147.886719 26.828125 147.15625 27.445312 146.289062 27.5 C 145.527344 27.535156 144.757812 27.503906 143.992188 27.515625 C 143.289062 27.539062 142.652344 27.027344 142.402344 26.390625 C 142.226562 25.972656 142.273438 25.515625 142.269531 25.078125 C 142.269531 21.417969 142.269531 17.757812 142.269531 14.097656 C 141.585938 14.097656 140.898438 14.097656 140.21875 14.097656 C 140.207031 16.308594 140.273438 18.535156 140.007812 20.734375 C 139.714844 23.242188 139.066406 25.761719 137.703125 27.910156 C 136.96875 27.257812 136.238281 26.601562 135.507812 25.945312 C 136.46875 24.5625 136.945312 22.90625 137.25 21.261719 C 137.824219 18.078125 137.625 14.824219 137.664062 11.605469 "/>
<path style=" stroke:none;fill-rule:nonzero;fill:rgb(90.34729%,11.286926%,14.352417%);fill-opacity:1;" d="M 155.785156 18.046875 C 161.796875 18.046875 167.8125 18.046875 173.824219 18.046875 C 173.824219 18.925781 173.824219 19.808594 173.824219 20.6875 C 171.257812 20.691406 168.6875 20.6875 166.117188 20.6875 C 166.117188 21.992188 166.117188 23.296875 166.117188 24.605469 C 169.410156 24.605469 172.703125 24.605469 176 24.605469 C 176 25.496094 176 26.386719 176 27.277344 C 168.472656 27.277344 160.945312 27.277344 153.417969 27.277344 C 153.421875 26.386719 153.417969 25.496094 153.421875 24.605469 C 156.691406 24.605469 159.964844 24.605469 163.234375 24.605469 C 163.234375 23.308594 163.234375 22.011719 163.234375 20.714844 C 160.75 20.714844 158.265625 20.714844 155.78125 20.714844 C 155.78125 19.824219 155.78125 18.933594 155.785156 18.046875 "/>
<path style=" stroke:none;fill-rule:nonzero;fill:rgb(90.34729%,11.286926%,14.352417%);fill-opacity:1;" d="M 128.789062 18.847656 C 129.476562 18.628906 130.164062 18.414062 130.851562 18.195312 C 131.425781 19.566406 131.800781 21.003906 132.152344 22.441406 C 131.40625 22.644531 130.664062 22.84375 129.921875 23.042969 C 129.609375 21.628906 129.273438 20.214844 128.789062 18.847656 "/>
<path style=" stroke:none;fill-rule:nonzero;fill:rgb(90.34729%,11.286926%,14.352417%);fill-opacity:1;" d="M 68.40625 22.503906 C 69.132812 21.148438 69.828125 19.777344 70.402344 18.355469 C 71.242188 18.695312 72.082031 19.035156 72.925781 19.375 C 72.332031 20.953125 71.609375 22.476562 70.859375 23.988281 C 70.101562 25.457031 69.339844 26.933594 68.367188 28.277344 C 67.53125 27.792969 66.695312 27.300781 65.855469 26.8125 C 66.769531 25.414062 67.609375 23.96875 68.40625 22.503906 "/>
<g clip-path="url(#clip1)" clip-rule="nonzero">
<path style=" stroke:none;fill-rule:nonzero;fill:rgb(90.34729%,11.286926%,14.352417%);fill-opacity:1;" d="M 8.519531 30.664062 C 10.816406 30.230469 13.222656 30.671875 15.316406 31.675781 C 17.785156 32.855469 19.890625 34.738281 21.464844 36.96875 C 22.472656 38.40625 23.261719 40.007812 23.742188 41.699219 C 22.835938 40.359375 21.746094 39.148438 20.554688 38.058594 C 18.960938 36.609375 17.136719 35.355469 15.074219 34.679688 C 13.613281 34.226562 12.007812 34.070312 10.523438 34.515625 C 9.738281 34.753906 8.988281 35.203125 8.523438 35.894531 C 8.113281 36.484375 7.9375 37.257812 8.160156 37.949219 C 8.402344 38.714844 9.140625 39.300781 9.945312 39.328125 C 10.878906 39.382812 11.773438 38.667969 11.941406 37.753906 C 12.097656 36.972656 11.734375 36.140625 11.085938 35.691406 C 11.863281 36.011719 12.558594 36.554688 12.972656 37.292969 C 13.625 38.410156 13.617188 39.863281 12.980469 40.980469 C 12.480469 41.886719 11.59375 42.523438 10.640625 42.886719 C 9.339844 43.390625 7.875 43.34375 6.558594 42.941406 C 5.214844 42.523438 4.027344 41.617188 3.28125 40.421875 C 2.410156 39.039062 2.132812 37.289062 2.542969 35.707031 C 2.878906 34.367188 3.675781 33.160156 4.746094 32.296875 C 5.824219 31.414062 7.167969 30.925781 8.519531 30.664062 "/>
</g>
<g clip-path="url(#clip2)" clip-rule="nonzero">
<path style=" stroke:none;fill-rule:nonzero;fill:rgb(90.34729%,11.286926%,14.352417%);fill-opacity:1;" d="M 35.308594 30.765625 C 37.144531 30.34375 39.097656 30.414062 40.878906 31.03125 C 42.078125 31.417969 43.199219 32.089844 44.035156 33.042969 C 44.851562 33.960938 45.40625 35.113281 45.582031 36.335938 C 45.824219 37.972656 45.359375 39.707031 44.3125 40.996094 C 42.667969 43.0625 39.601562 43.828125 37.171875 42.8125 C 36.152344 42.386719 35.234375 41.613281 34.820312 40.566406 C 34.339844 39.402344 34.488281 37.988281 35.242188 36.972656 C 35.652344 36.386719 36.261719 35.96875 36.914062 35.695312 C 36.191406 36.191406 35.828125 37.179688 36.132812 38.015625 C 36.402344 38.8125 37.226562 39.386719 38.070312 39.332031 C 38.914062 39.296875 39.675781 38.648438 39.875 37.832031 C 40.078125 37.042969 39.785156 36.195312 39.246094 35.597656 C 38.546875 34.808594 37.492188 34.433594 36.46875 34.304688 C 34.9375 34.128906 33.375 34.429688 31.96875 35.042969 C 30.46875 35.683594 29.105469 36.621094 27.871094 37.683594 C 26.511719 38.867188 25.277344 40.203125 24.261719 41.695312 C 25.113281 38.710938 26.898438 36.027344 29.222656 33.976562 C 30.960938 32.453125 33.039062 31.273438 35.308594 30.765625 "/>
</g>
<path style=" stroke:none;fill-rule:nonzero;fill:rgb(90.34729%,11.286926%,14.352417%);fill-opacity:1;" d="M 103.058594 35.941406 C 102.609375 36.910156 102.160156 37.875 101.71875 38.847656 C 102.617188 38.847656 103.515625 38.847656 104.417969 38.847656 C 103.964844 37.875 103.511719 36.90625 103.058594 35.941406 Z M 103.058594 32.792969 C 104.597656 35.96875 106.136719 39.148438 107.675781 42.324219 C 107.144531 42.324219 106.613281 42.324219 106.085938 42.324219 C 105.734375 41.605469 105.386719 40.886719 105.039062 40.171875 C 103.726562 40.171875 102.410156 40.167969 101.097656 40.171875 C 100.746094 40.890625 100.394531 41.605469 100.050781 42.324219 C 99.511719 42.324219 98.972656 42.324219 98.4375 42.324219 C 99.976562 39.144531 101.519531 35.972656 103.058594 32.792969 "/>
<path style=" stroke:none;fill-rule:nonzero;fill:rgb(90.34729%,11.286926%,14.352417%);fill-opacity:1;" d="M 78.945312 38.84375 C 79.839844 38.84375 80.742188 38.84375 81.640625 38.84375 C 81.1875 37.875 80.730469 36.910156 80.28125 35.9375 C 79.835938 36.90625 79.386719 37.875 78.945312 38.84375 Z M 75.660156 42.324219 C 77.199219 39.148438 78.738281 35.972656 80.28125 32.796875 C 81.820312 35.972656 83.359375 39.148438 84.894531 42.324219 C 84.367188 42.324219 83.835938 42.324219 83.308594 42.324219 C 82.957031 41.605469 82.609375 40.886719 82.257812 40.171875 C 80.945312 40.175781 79.628906 40.167969 78.316406 40.175781 C 77.96875 40.890625 77.621094 41.609375 77.273438 42.324219 C 76.734375 42.324219 76.199219 42.324219 75.660156 42.324219 "/>
<path style=" stroke:none;fill-rule:nonzero;fill:rgb(90.34729%,11.286926%,14.352417%);fill-opacity:1;" d="M 126.164062 38.84375 C 127.0625 38.84375 127.960938 38.847656 128.859375 38.84375 C 128.402344 37.882812 127.972656 36.90625 127.488281 35.957031 C 127.050781 36.921875 126.605469 37.882812 126.164062 38.84375 Z M 122.882812 42.324219 C 124.421875 39.148438 125.957031 35.972656 127.496094 32.796875 C 129.039062 35.972656 130.578125 39.148438 132.117188 42.324219 C 131.585938 42.324219 131.054688 42.324219 130.523438 42.324219 C 130.179688 41.605469 129.828125 40.890625 129.484375 40.171875 C 128.167969 40.167969 126.855469 40.171875 125.539062 40.171875 C 125.1875 40.886719 124.839844 41.609375 124.492188 42.324219 C 123.953125 42.324219 123.417969 42.324219 122.882812 42.324219 "/>
<path style=" stroke:none;fill-rule:nonzero;fill:rgb(90.34729%,11.286926%,14.352417%);fill-opacity:1;" d="M 89.109375 32.953125 C 91.394531 35.0625 93.667969 37.183594 95.949219 39.304688 C 95.949219 37.328125 95.949219 35.355469 95.949219 33.378906 C 96.445312 33.378906 96.945312 33.378906 97.441406 33.378906 C 97.441406 36.488281 97.441406 39.597656 97.441406 42.703125 C 95.144531 40.589844 92.855469 38.46875 90.570312 36.347656 C 90.566406 38.339844 90.570312 40.332031 90.566406 42.324219 C 90.082031 42.324219 89.59375 42.324219 89.109375 42.324219 C 89.109375 39.199219 89.109375 36.074219 89.109375 32.953125 "/>
<path style=" stroke:none;fill-rule:nonzero;fill:rgb(90.34729%,11.286926%,14.352417%);fill-opacity:1;" d="M 108.613281 32.953125 C 110.894531 35.066406 113.171875 37.1875 115.449219 39.304688 C 115.449219 37.332031 115.449219 35.355469 115.449219 33.378906 C 115.941406 33.382812 116.4375 33.378906 116.933594 33.378906 C 116.933594 36.488281 116.9375 39.59375 116.933594 42.699219 C 114.640625 40.589844 112.355469 38.46875 110.066406 36.347656 C 110.066406 38.339844 110.066406 40.332031 110.066406 42.324219 C 109.578125 42.324219 109.097656 42.324219 108.613281 42.324219 C 108.609375 39.199219 108.609375 36.078125 108.613281 32.953125 "/>
<path style=" stroke:none;fill-rule:nonzero;fill:rgb(90.34729%,11.286926%,14.352417%);fill-opacity:1;" d="M 153.148438 32.953125 C 155.433594 35.0625 157.710938 37.1875 159.984375 39.304688 C 159.988281 37.328125 159.984375 35.355469 159.988281 33.378906 C 160.480469 33.378906 160.980469 33.378906 161.476562 33.378906 C 161.476562 36.488281 161.480469 39.59375 161.476562 42.703125 C 159.183594 40.589844 156.894531 38.46875 154.605469 36.351562 C 154.605469 38.34375 154.605469 40.332031 154.605469 42.324219 C 154.117188 42.324219 153.632812 42.324219 153.148438 42.324219 C 153.148438 39.199219 153.148438 36.078125 153.148438 32.953125 "/>
<path style=" stroke:none;fill-rule:nonzero;fill:rgb(90.34729%,11.286926%,14.352417%);fill-opacity:1;" d="M 170.945312 33.949219 C 171.800781 32.992188 173.320312 32.792969 174.4375 33.394531 C 174.988281 33.679688 175.417969 34.167969 175.679688 34.730469 C 175.242188 34.941406 174.808594 35.152344 174.371094 35.367188 C 174.003906 34.617188 172.960938 34.246094 172.234375 34.691406 C 171.914062 34.871094 171.742188 35.273438 171.855469 35.625 C 171.980469 36 172.300781 36.253906 172.617188 36.457031 C 173.339844 36.925781 174.21875 37.09375 174.90625 37.625 C 175.472656 38.03125 175.894531 38.65625 175.96875 39.355469 C 176.121094 40.582031 175.363281 41.835938 174.226562 42.300781 C 173.269531 42.6875 172.117188 42.65625 171.234375 42.097656 C 170.460938 41.597656 169.972656 40.738281 169.800781 39.84375 C 170.289062 39.75 170.773438 39.65625 171.261719 39.5625 C 171.402344 40.175781 171.800781 40.761719 172.410156 40.984375 C 173.152344 41.273438 174.113281 40.894531 174.375 40.125 C 174.550781 39.683594 174.355469 39.175781 174.007812 38.886719 C 173.441406 38.363281 172.664062 38.222656 172.015625 37.847656 C 171.363281 37.496094 170.757812 36.96875 170.5 36.253906 C 170.210938 35.476562 170.375 34.550781 170.945312 33.949219 "/>
<path style=" stroke:none;fill-rule:nonzero;fill:rgb(90.34729%,11.286926%,14.352417%);fill-opacity:1;" d="M 67.757812 33.378906 C 68.25 33.378906 68.738281 33.378906 69.230469 33.378906 C 69.230469 34.535156 69.230469 35.691406 69.230469 36.847656 C 70.5625 36.84375 71.898438 36.847656 73.230469 36.84375 C 73.230469 35.691406 73.230469 34.535156 73.230469 33.378906 C 73.722656 33.378906 74.214844 33.378906 74.703125 33.378906 C 74.703125 36.363281 74.703125 39.339844 74.703125 42.320312 C 74.210938 42.320312 73.722656 42.320312 73.230469 42.320312 C 73.230469 40.9375 73.230469 39.558594 73.230469 38.175781 C 71.898438 38.175781 70.5625 38.175781 69.230469 38.175781 C 69.230469 39.558594 69.230469 40.9375 69.230469 42.320312 C 68.738281 42.320312 68.25 42.320312 67.757812 42.320312 C 67.757812 39.34375 67.757812 36.363281 67.757812 33.378906 "/>
<path style=" stroke:none;fill-rule:nonzero;fill:rgb(90.34729%,11.286926%,14.352417%);fill-opacity:1;" d="M 85.855469 33.378906 C 86.34375 33.378906 86.835938 33.378906 87.324219 33.378906 C 87.324219 36.363281 87.324219 39.339844 87.324219 42.324219 C 86.835938 42.324219 86.34375 42.324219 85.855469 42.324219 C 85.855469 39.34375 85.851562 36.363281 85.855469 33.378906 "/>
<path style=" stroke:none;fill-rule:nonzero;fill:rgb(90.34729%,11.286926%,14.352417%);fill-opacity:1;" d="M 133.113281 42.324219 C 133.109375 39.34375 133.109375 36.363281 133.113281 33.378906 C 133.605469 33.378906 134.089844 33.378906 134.582031 33.378906 C 134.582031 36.363281 134.582031 39.34375 134.582031 42.324219 C 134.09375 42.324219 133.601562 42.324219 133.113281 42.324219 "/>
<path style=" stroke:none;fill-rule:nonzero;fill:rgb(90.34729%,11.286926%,14.352417%);fill-opacity:1;" d="M 136.472656 33.378906 C 137.585938 33.390625 138.699219 33.363281 139.8125 33.390625 C 141.136719 33.46875 142.28125 34.726562 142.136719 36.066406 C 142.101562 37.089844 141.351562 37.976562 140.398438 38.296875 C 141.328125 39.636719 142.265625 40.980469 143.195312 42.320312 C 142.625 42.324219 142.050781 42.320312 141.480469 42.324219 C 140.359375 40.65625 139.246094 38.988281 138.128906 37.320312 C 138.789062 37.269531 139.527344 37.464844 140.117188 37.082031 C 140.695312 36.738281 140.867188 35.917969 140.542969 35.347656 C 140.308594 34.9375 139.851562 34.65625 139.378906 34.648438 C 138.898438 34.636719 138.421875 34.648438 137.941406 34.644531 C 137.941406 37.203125 137.941406 39.761719 137.941406 42.320312 C 137.453125 42.320312 136.964844 42.320312 136.472656 42.320312 C 136.472656 39.34375 136.472656 36.363281 136.472656 33.378906 "/>
<path style=" stroke:none;fill-rule:nonzero;fill:rgb(90.34729%,11.286926%,14.352417%);fill-opacity:1;" d="M 144.324219 33.421875 C 144.816406 33.417969 145.308594 33.421875 145.804688 33.421875 C 145.804688 35.96875 145.804688 38.515625 145.804688 41.0625 C 146.78125 41.0625 147.765625 41.0625 148.746094 41.0625 C 148.746094 41.484375 148.746094 41.902344 148.746094 42.324219 C 147.273438 42.324219 145.800781 42.324219 144.328125 42.324219 C 144.324219 39.355469 144.324219 36.386719 144.324219 33.421875 "/>
<path style=" stroke:none;fill-rule:nonzero;fill:rgb(90.34729%,11.286926%,14.352417%);fill-opacity:1;" d="M 149.785156 42.324219 C 149.78125 39.34375 149.785156 36.363281 149.78125 33.378906 C 150.273438 33.378906 150.765625 33.378906 151.257812 33.378906 C 151.257812 36.363281 151.257812 39.34375 151.257812 42.324219 C 150.765625 42.324219 150.273438 42.324219 149.785156 42.324219 "/>
<path style=" stroke:none;fill-rule:nonzero;fill:rgb(90.34729%,11.286926%,14.352417%);fill-opacity:1;" d="M 163.363281 42.324219 C 163.363281 39.339844 163.363281 36.359375 163.363281 33.375 C 165.195312 33.375 167.03125 33.375 168.867188 33.375 C 168.867188 33.796875 168.867188 34.21875 168.867188 34.640625 C 167.527344 34.640625 166.1875 34.640625 164.847656 34.640625 C 164.847656 35.355469 164.847656 36.078125 164.847656 36.792969 C 166.148438 36.792969 167.453125 36.792969 168.753906 36.792969 C 168.753906 37.214844 168.753906 37.636719 168.753906 38.058594 C 167.453125 38.058594 166.148438 38.058594 164.847656 38.058594 C 164.847656 39.058594 164.847656 40.058594 164.847656 41.054688 C 166.1875 41.058594 167.527344 41.054688 168.867188 41.058594 C 168.867188 41.480469 168.867188 41.898438 168.867188 42.324219 C 167.03125 42.324219 165.195312 42.324219 163.363281 42.324219 "/>
</g>
</svg>
