<svg xmlns="http://www.w3.org/2000/svg" width="176pt" height="47.36" viewBox="0 0 176 35.52"><defs><clipPath id="a"><path d="M3 23h33v12.52H3Zm0 0"/></clipPath></defs><path d="M18.668 15.223c-.676.265-1.047 1.09-.793 1.773.223.695 1.035 1.121 1.734.902.766-.195 1.235-1.09.957-1.832-.242-.753-1.171-1.175-1.898-.843M17.82 5.39c.633-1.75 1.075-3.559 1.399-5.387.34 1.887.793 3.766 1.465 5.566.601 1.617 1.496 3.102 2.289 4.625.722 1.39 1.3 2.942 1.109 4.535a4.48 4.48 0 0 1-2.277 3.516c-.825.5-1.825.656-2.586 1.258-.367-.313-.82-.484-1.262-.656-.848-.328-1.703-.715-2.34-1.38-.98-.956-1.383-2.382-1.285-3.726.09-1.59.844-3.027 1.582-4.398.7-1.29 1.41-2.574 1.906-3.953" style="stroke:none;fill-rule:nonzero;fill:#e61d25;fill-opacity:1"/><path d="M0 12.625c1.688-.996 3.707-1.504 5.656-1.176 1.215.18 2.41.723 3.207 1.68.563.656.942 1.445 1.207 2.262.254.765.371 1.57.684 2.316a6.2 6.2 0 0 0 2.121 2.77c1.113.828 2.45 1.265 3.723 1.777 1.015.433 2.039 1.043 2.609 2.023.387-.668 1.004-1.164 1.66-1.554.883-.52 1.88-.793 2.809-1.207 1.191-.508 2.34-1.22 3.129-2.27.656-.851 1.047-1.875 1.28-2.914.325-1.36.868-2.746 1.946-3.687 1.172-1.024 2.79-1.34 4.305-1.282 1.441.059 2.84.535 4.082 1.262-.652.07-1.297.305-1.797.742-.656.535-1.008 1.348-1.223 2.149-.308 1.207-.632 2.422-1.187 3.539-.637 1.27-1.664 2.355-2.945 2.98-1.899.938-4.075 1.102-6.16 1.012-1.508-.082-3.079.094-4.422.828-.563.3-1.063.703-1.473 1.188-1.016-1.208-2.582-1.82-4.125-1.977-1.031-.125-2.07.012-3.106-.02-1.824-.039-3.699-.343-5.289-1.285-.984-.582-1.777-1.453-2.336-2.449-.523-.95-.847-1.988-1.132-3.031-.22-.863-.426-1.766-.989-2.48-.53-.7-1.37-1.114-2.234-1.196" style="stroke:none;fill-rule:nonzero;fill:#e61d25;fill-opacity:1"/><path d="M12.793 12.426c.371-.465.844-.84 1.312-1.2-.914 1.024-1.636 2.34-1.543 3.754.051 1.172.653 2.274 1.54 3.028 1.043.914 2.367 1.402 3.66 1.84.511.183 1.05.37 1.449.761.574-.547 1.379-.71 2.098-.988 1.46-.508 2.949-1.242 3.843-2.55a4.13 4.13 0 0 0 .54-3.485c-.258-.883-.758-1.68-1.391-2.344 1.172.774 2.094 1.965 2.437 3.34.309 1.223-.004 2.566-.781 3.55-1.098 1.407-2.785 2.157-4.414 2.763-.848.343-1.824.64-2.336 1.46-.45-.734-1.297-1.046-2.055-1.351-1.394-.524-2.82-1.086-3.953-2.09-.847-.73-1.484-1.746-1.605-2.871-.172-1.313.375-2.621 1.199-3.617" style="stroke:none;fill-rule:nonzero;fill:#e61d25;fill-opacity:1"/><g clip-path="url(#a)"><path d="M13.16 24.863c-.496.196-.953.532-1.207 1.008-.328.606-.226 1.422.262 1.914.55.574 1.488.723 2.187.352.547-.274.871-.973.61-1.551-.121-.328-.446-.492-.746-.613.172.16.363.37.28.625-.1.422-.675.562-1 .308-.316-.23-.32-.734-.054-1.008.38-.406.973-.484 1.5-.503 1.317-.04 2.692.304 3.738 1.125.028-.02.055-.047.082-.067-.25-.172-.433-.414-.671-.598-.75-.605-1.668-.988-2.61-1.16-.789-.133-1.62-.129-2.37.168m-.988-.707c2.473-.879 5.515-.02 7.043 2.149 1.695-2.422 5.297-3.211 7.867-1.77 1.176.66 2.055 1.746 2.652 2.934.664 1.293.973 2.73 1.532 4.066.34.805.77 1.63 1.504 2.14.765.516 1.69.688 2.585.833-1.964.914-4.21 1.195-6.351.887-1.723-.243-3.371-.997-4.64-2.188-1.052-.973-1.794-2.227-2.313-3.547-.301-.723-.469-1.515-.953-2.148a2.17 2.17 0 0 0-1.438-.875l.047-.157a6.1 6.1 0 0 1 4.2-1.046c.406.066.85.207 1.097.566.21.293.14.762-.184.945-.351.223-.925.016-.957-.425-.031-.235.149-.403.305-.547-.242.113-.52.21-.664.453-.336.48-.184 1.18.258 1.535.71.602 1.875.469 2.484-.215.496-.523.55-1.387.16-1.984-.355-.559-.972-.899-1.605-1.043-.926-.211-1.903-.094-2.801.207-.934.32-1.816.86-2.418 1.656-.133.059-.281.004-.418.016a2.28 2.28 0 0 0-1.844.918c-.484.64-.648 1.437-.953 2.16-.52 1.316-1.265 2.57-2.312 3.539-1.313 1.234-3.035 1.992-4.82 2.21-2.087.263-4.262-.019-6.169-.917 1.012-.156 2.094-.363 2.883-1.063.828-.785 1.219-1.886 1.594-2.933.441-1.305.832-2.653 1.594-3.817.71-1.133 1.758-2.09 3.035-2.539" style="stroke:none;fill-rule:nonzero;fill:#e61d25;fill-opacity:1"/></g><path d="M59.922 4.406c-.332.117-.684.211-.969.422-.691.488-1.094 1.297-1.258 2.11-.175.914-.082 1.917.426 2.714.516.817 1.531 1.223 2.473 1.188.82-.04 1.527-.606 1.906-1.309a4.3 4.3 0 0 0 .266-3.469c-.262-.726-.836-1.367-1.586-1.59-.407-.113-.848-.187-1.258-.066m-.258-1.152c1.715-.234 3.64.324 4.711 1.746.668.922.918 2.121.781 3.242-.156 1.156-.883 2.184-1.844 2.817-1.363.906-3.14 1.183-4.71.699a4.4 4.4 0 0 1-2.387-1.79c-.703-.991-.961-2.308-.578-3.472.55-1.75 2.234-3.004 4.027-3.242M78.934 3.34c1.472-.332 3.058-.188 4.425.469-.097.386-.402.668-.539 1.035-1.132-.504-2.465-.625-3.636-.188-.766.278-1.446.848-1.774 1.606-.535 1.273-.21 2.918.903 3.781.945.754 2.25.848 3.39.578.16-.883.024-1.781.067-2.676h1.886c.004 1.164 0 2.328 0 3.489-1.722.793-3.765.789-5.527.113-1.192-.457-2.313-1.285-2.836-2.485-.523-1.18-.29-2.582.371-3.66.734-1.117 1.996-1.773 3.27-2.062M96.465 4.457c-.676.117-1.246.578-1.61 1.148a4.16 4.16 0 0 0-.562 2.926c.129.735.523 1.446 1.164 1.844.625.387 1.402.621 2.133.43.652-.168 1.168-.668 1.492-1.242.488-.864.648-1.895.492-2.872-.12-.71-.457-1.421-1.054-1.851-.586-.43-1.356-.508-2.055-.383m-.246-1.203c1.3-.164 2.703.027 3.804.789a3.98 3.98 0 0 1 1.668 2.648c.18 1.157.04 2.43-.703 3.38-1.484 1.94-4.449 2.562-6.586 1.367-1.035-.583-1.855-1.583-2.125-2.75-.359-1.508.157-3.165 1.235-4.262.703-.739 1.699-1.121 2.707-1.172M113.512 4.309c1.851-1.325 4.437-1.54 6.468-.5-.09.386-.394.664-.527 1.035-1.574-.79-3.703-.594-4.933.734-1.192 1.285-.875 3.547.53 4.55.93.688 2.18.75 3.274.493.164-.883.035-1.781.078-2.676h1.887v3.57c-1.52.426-3.137.587-4.7.282-.859-.172-1.71-.496-2.401-1.05-1.06-.837-1.633-2.24-1.489-3.575.13-1.168.867-2.195 1.813-2.863M171.902 3.344c1.258-.336 2.653-.188 3.786.457-.192.383-.422.761-.81.976-.487-.359-1.112-.492-1.706-.445-.313.027-.652.133-.828.414-.203.32-.13.75.105 1.031.387.485.95.758 1.438 1.125.554.414 1.144.801 1.601 1.332.395.508.617 1.196.461 1.832-.148.57-.594 1.008-1.082 1.297-.722.422-1.57.606-2.402.625-.957.02-1.953-.203-2.719-.797.215-.355.508-.66.68-1.039.644.438 1.437.66 2.219.645.425-.012.906-.137 1.152-.516.3-.484.14-1.133-.238-1.523-.88-.926-2.184-1.328-2.985-2.336a1.83 1.83 0 0 1-.14-2.078c.32-.524.89-.836 1.468-1M46.703 3.316q.95-.004 1.895-.003c.004 1.082 0 2.167.004 3.25 1.32 0 2.636.003 3.957-.004.175-1.075.027-2.164.074-3.246q.944 0 1.887.003v8.524h-1.883c-.004-1.356 0-2.711-.004-4.067-1.309-.171-2.633-.02-3.95-.085-.195 1.378-.023 2.769-.081 4.152h-1.895q-.005-4.265-.004-8.524M66.137 3.309a1.88 1.88 0 0 1 1.84.562c1.554 1.738 2.937 3.633 4.574 5.297V3.313q.785.004 1.57.003v8.461c-.383.118-.8.172-1.172 0-.61-.277-.98-.867-1.414-1.347C70.246 8.96 69.055 7.406 67.7 6c-.004 1.93.004 3.86-.008 5.79-.511.108-1.035.034-1.554.046z" style="stroke:none;fill-rule:nonzero;fill:#100f0d;fill-opacity:1"/><path d="M84.98 3.313c.657-.004 1.313.007 1.973-.004.004 1.191 0 2.386 0 3.582 1.234-1.114 2.293-2.399 3.461-3.578.66.003 1.316 0 1.973 0-1.145 1.308-2.375 2.535-3.625 3.742 1.316 1.644 2.812 3.129 4.207 4.707-.79.004-1.61.312-2.371.02-.75-.434-1.118-1.259-1.637-1.91-.637-.778-1.344-1.493-2.004-2.25-.004 1.339 0 2.679 0 4.015l.125.09-.238.054.094.055c-.653.008-1.301 0-1.954.004-.004-2.844 0-5.684-.004-8.527M102.754 3.305c.648-.153 1.351.039 1.808.535 1.594 1.723 2.958 3.648 4.614 5.324 0-1.95-.004-3.902 0-5.851.523.003 1.047 0 1.57.003q-.006 4.23 0 8.461c-.422.13-.898.172-1.297-.062-.605-.352-.972-.973-1.445-1.477-1.23-1.41-2.387-2.886-3.684-4.242-.004 1.93.004 3.86-.004 5.79-.515.109-1.043.034-1.566.05.004-2.844 0-5.688.004-8.531M128.766 5.277c-.457 1.043-.946 2.075-1.313 3.157H130c-.39-1.063-.77-2.13-1.234-3.157m-.414-1.96q.742-.007 1.484 0c1.098 2.851 2.324 5.656 3.543 8.456-.68.16-1.375.028-2.066.063a39 39 0 0 1-.891-2.356c-1.125-.003-2.254 0-3.379-.003-.426.753-.7 1.582-1.078 2.363-.524 0-1.043-.004-1.563 0 1.309-2.848 2.543-5.727 3.95-8.524M133.79 3.313c.632.003 1.265 0 1.894 0 .004 2.843 0 5.683 0 8.527h-1.895c0-2.844-.004-5.684 0-8.527M139.14 4.445v2.856c.68.16 1.489.144 2.028-.356.637-.554.707-1.668.047-2.23-.567-.496-1.39-.45-2.074-.27m-1.902-1.129c1.356-.015 2.719-.101 4.067.075.75.113 1.566.324 2.058.945.551.742.5 1.828 0 2.582-.32.48-.82.809-1.343 1.035.71 1.324 1.742 2.45 2.382 3.809q-1.07.006-2.14 0c-.887-1.04-1.399-2.328-2.211-3.418a30 30 0 0 0-.836 0c-.168 1.133-.024 2.277-.07 3.418q-.956.006-1.91 0c.007-2.817 0-5.633.003-8.446M144.82 3.313h1.89v7.312c1.255.18 2.524.027 3.782.078v1.137h-5.668q-.005-4.264-.004-8.527M150.984 3.316q.95-.005 1.899 0c0 2.84-.004 5.68 0 8.524-.602.004-1.2-.02-1.797.027-.195-.043-.086-.297-.106-.43.012-2.707.004-5.417.004-8.12M154.438 3.309c.406-.086.847-.118 1.226.09.566.308.852.921 1.266 1.39 1.28 1.484 2.62 2.918 3.933 4.379V3.313h1.489q.001 4.265-.004 8.539c-.48.09-1.008.054-1.407-.25-.543-.403-.902-.993-1.355-1.48-1.188-1.38-2.344-2.786-3.574-4.126-.2 1.941-.024 3.895-.086 5.844h-1.488c0-2.844.003-5.688 0-8.531M163.914 3.313c1.73.003 3.457 0 5.188.003q-.006.563 0 1.133h-3.29q-.004 1.141 0 2.281c1.063.184 2.145.024 3.215.067q.001.579-.004 1.156c-1.07-.012-2.14-.004-3.21-.004-.004.895 0 1.785-.004 2.676 1.148.18 2.308.027 3.46.078 0 .379.004.758 0 1.137h-5.351q-.005-4.264-.004-8.527M77.254 30.313h6.492v-.973c-2.148-.004-4.293.012-6.441-.008-.118.316-.047.652-.051.98m-.012-3.086v.808h6.504v-.898c-2.168-.032-4.336.144-6.504.09m1.977-3.102c-.098.105-.196.215-.293.316-.574.516-1.23.926-1.84 1.399h2.457c-.035-.617.086-1.242-.027-1.856-.036-.261-.211.07-.297.141m1.98 1.71c.934-.038 1.871.095 2.797-.058-1.062-.449-1.98-1.18-2.726-2.05-.168.691-.04 1.406-.07 2.109m-1.427-5.957a44 44 0 0 0 5.301-.692c.207-.054.383.125.473.29.187.343.277.73.414 1.093-1.54.36-3.129.41-4.688.653-.18.246-.046.597-.062.886 1.96.188 3.941.032 5.91.082v1.297h-4.039c1.07 1.176 2.688 1.637 4.211 1.864-.176.511-.504.957-.672 1.472-.414-.12-.824-.25-1.23-.402v5.832q-.82.006-1.641 0c-.008-.2.023-.414-.05-.606-.118-.07-.266-.03-.395-.043-1.95.012-3.899-.003-5.848.008-.324 0-.187.434-.215.64-.543.005-1.09 0-1.637.005.184-1.922.032-3.852.075-5.774-.422.075-.805.274-1.223.348-.238-.445-.465-.898-.758-1.309 1.477-.492 3.028-.968 4.211-2.035-1.347-.004-2.691 0-4.039 0v-1.297h5.645c.078-.32.03-.652.02-.98-1.474.129-2.95.078-4.43.082-.09-.465-.266-.91-.336-1.379 1.664.129 3.34.082 5.003-.035M100.207 26.906v1.13h2.871a54 54 0 0 0 0-1.13zm.887-2.113c-.309.2-.461.543-.57.879 1.027.008 2.05.008 3.078 0-.153-.422-.461-.746-.696-1.121-.601-.086-1.285-.117-1.812.242m-.153-2.684c.008.38.008.758.008 1.137.742.004 1.485 0 2.223 0q.006-.569 0-1.137zm-1.563-2.761c.523-.004 1.047 0 1.57 0v1.382c.735.157 1.485.04 2.223.075.004-.485 0-.97.004-1.457h1.562c0 .46-.004.925 0 1.386.758.149 1.532.04 2.297.07q.005.612.004 1.223c-.75.004-1.504 0-2.254.004-.097.403-.043.813-.043 1.215.852.004 1.695 0 2.547.004v1.3c-.824.005-1.652-.003-2.477.005.547 1.058 1.688 1.574 2.727 2.027-.2.512-.555.941-.758 1.453-.73-.387-1.37-.91-2.043-1.383v2.688h-4.476c-.121.375-.07.77.082 1.12 1.554-.038 3.113.102 4.664-.07.414-.523.336-1.23.387-1.859.582.157 1.171.301 1.718.555-.16.719-.152 1.504-.562 2.14-.309.473-.899.63-1.43.657-1.558.12-3.133.172-4.691.05-.535-.062-1.149-.081-1.543-.5-.422-.425-.422-1.074-.38-1.632.063-.805.227-1.617.055-2.418-.374.191-.714.445-1.07.668-.445-.344-.71-.848-.988-1.317 1.098-.433 2.164-1.078 2.805-2.097-.653.09-1.305-.153-1.954-.02-.597.172-.699.895-1.164 1.235-.761-.43-1.355-1.114-2.16-1.48.29-.419.633-.79.914-1.212.836.344 1.532.93 2.293 1.399.004-.438 0-.872.004-1.309.692.004 1.39-.008 2.082.008.137-.371.043-.766.051-1.149-.605 0-1.219-.004-1.824 0-.031-.156-.067-.312-.094-.468-.273.203-.422.52-.68.734-.789-.473-1.37-1.238-2.246-1.574.309-.465.633-.957 1.149-1.215.605.484 1.234.984 2 1.172.539.14 1.105.12 1.652.05.125-.48.031-.972.047-1.46M140.613 19.496c.676-.16 1.367-.035 2.051-.066.184.343.41.672.524 1.047 1.75.007 3.5 0 5.25.003v3.094h-1.813c0-.547.004-1.09 0-1.633-3.04-.183-6.09-.023-9.137-.078v1.711h-1.718v-3.097c1.765.003 3.535.011 5.3-.008-.027-.371-.261-.668-.457-.973M117.242 21.941v3.086c.746 0 1.485.004 2.23 0 .005-1.027 0-2.058 0-3.086zm.418-2.43c.524 0 1.05-.003 1.574.005-.007.394-.113.777-.257 1.14.625.11 1.265.121 1.89.004-.055 3.211.313 6.422.125 9.63-.031.546-.105 1.218-.633 1.523-.644.351-1.414.234-2.113.203-.05-.47-.258-.907-.277-1.383.445.062.894.101 1.344.086.367-1.469.054-2.989.16-4.477-.715.012-1.434.004-2.153.004-.261 1.988-.207 4.102-1.14 5.934-.461-.274-.926-.54-1.325-.899.668-1.574.97-3.3.891-5.008a5 5 0 0 0-.887-.015q-.005-.616-.004-1.227.452-.006.903 0a795 795 0 0 1 0-4.316c.488-.016.984.078 1.469-.031.117-.016.152-.133.195-.23.11-.306.164-.626.238-.942M122.922 19.512c.574-.004 1.148 0 1.723 0 .203.508.476.996.59 1.539h2.632c-.004.46 0 .922 0 1.383q-3.38.005-6.754 0V21.05h2.309c-.102-.535-.324-1.031-.5-1.54" style="stroke:none;fill-rule:nonzero;fill:#100f0d;fill-opacity:1"/><path d="M140.055 22.262c.578.078 1.11.328 1.629.578-.563 1.09-1.496 1.965-2.59 2.512-.887.453-1.856.718-2.836.898-.23-.45-.465-.89-.742-1.305 1.328-.328 2.738-.668 3.773-1.617.324-.297.57-.672.766-1.066M117.398 22.52c.422-.02.825-.18 1.247-.176.238.676.5 1.343.675 2.039-.437.125-.882.242-1.34.258-.12-.723-.355-1.422-.582-2.121M142.84 22.422c.566-.14 1.156-.05 1.738-.063.031.59-.117 1.215.086 1.778 1.29.37 2.649.062 3.961.164.105.453.05.918.059 1.379-1.317-.032-2.633.129-3.946-.02-.675-.082-1.425-.316-1.781-.941-.39-.707-.266-1.547-.117-2.297M122.188 23.484c1.39-.172 2.796-.027 4.19-.082.009 1.957 0 3.91-.003 5.864-.008.5-.148 1.14.34 1.472.347-.504.355-1.144.347-1.734-.011-.543-.062-1.082-.093-1.625.476.082.902.32 1.379.418-.125.875.074 1.75.082 2.625 0 .496-.121 1.062-.57 1.351-.688.457-1.63.567-2.391.22-.563-.263-.781-.911-.836-1.485-.172-1.754.347-3.492.183-5.242-.046-.16.004-.434-.203-.473-.289-.043-.578 0-.863 0 .04 1.668.012 3.36-.387 4.988-.199.824-.515 1.63-1.011 2.32-.465-.285-.895-.628-1.313-.976.797-1.195 1.008-2.664 1.117-4.07.074-1.188.055-2.38.031-3.57M136.855 26.813c3.5-.176 7.008-.028 10.512-.083q-.005.692-.004 1.391h-4.285c-.172.746-.031 1.516-.066 2.27 1.945.172 3.894.02 5.843.074v1.387h-13.503v-1.387c1.894 0 3.793.004 5.695 0 .152-.746.027-1.512.066-2.262-1.398-.004-2.8 0-4.199-.004-.016-.46.074-.933-.059-1.387M117.398 27.21c.336-.12.692-.179 1.032-.3.62.613.66 1.531.875 2.324-.446.067-.868.25-1.32.274-.13-.781-.391-1.528-.587-2.297M95.844 27.133c.496.258.902.644 1.394.906-.457 1.445-.918 2.98-2.043 4.059-.3-.485-.832-.77-1.082-1.29.867-1.066 1.36-2.37 1.73-3.675" style="stroke:none;fill-rule:nonzero;fill:#100f0d;fill-opacity:1"/></svg>