<?xml version="1.0" encoding="UTF-8"?>
<svg xmlns="http://www.w3.org/2000/svg" xmlns:xlink="http://www.w3.org/1999/xlink" width="176pt" height="41.22pt" viewBox="0 0 176 41.22" version="1.1">
<defs>
<clipPath id="clip1">
  <path d="M 159 30 L 170 30 L 170 41.21875 L 159 41.21875 Z M 159 30 "/>
</clipPath>
</defs>
<g id="surface1">
<path style=" stroke:none;fill-rule:evenodd;fill:rgb(98.783875%,80.914307%,15.740967%);fill-opacity:1;" d="M 37.253906 19.085938 C 37.253906 29.132812 29.109375 37.277344 19.0625 37.277344 C 9.015625 37.277344 0.871094 29.132812 0.871094 19.085938 C 0.871094 9.039062 9.015625 0.890625 19.0625 0.890625 C 29.109375 0.890625 37.253906 9.039062 37.253906 19.085938 "/>
<path style=" stroke:none;fill-rule:evenodd;fill:rgb(90.641785%,17.687988%,17.202759%);fill-opacity:1;" d="M 19.0625 38.128906 C 24.15625 38.128906 28.941406 36.144531 32.542969 32.542969 C 36.144531 28.945312 38.125 24.15625 38.125 19.066406 C 38.125 13.972656 36.144531 9.1875 32.542969 5.585938 C 28.941406 1.984375 24.15625 0 19.0625 0 C 8.550781 0 0 8.554688 0 19.066406 C 0 24.15625 1.984375 28.945312 5.582031 32.542969 C 9.183594 36.144531 13.972656 38.128906 19.0625 38.128906 M 0.871094 19.066406 C 0.871094 14.207031 2.761719 9.636719 6.199219 6.199219 C 9.636719 2.765625 14.203125 0.871094 19.0625 0.871094 C 23.921875 0.871094 28.492188 2.765625 31.925781 6.199219 C 35.363281 9.636719 37.253906 14.207031 37.253906 19.066406 C 37.253906 29.097656 29.09375 37.257812 19.0625 37.257812 C 14.203125 37.257812 9.636719 35.363281 6.199219 31.929688 C 2.761719 28.492188 0.871094 23.925781 0.871094 19.066406 "/>
<path style=" stroke:none;fill-rule:evenodd;fill:rgb(26.911926%,55.358887%,20.640564%);fill-opacity:1;" d="M 28.519531 10.386719 L 19.300781 10.386719 C 18.582031 10.386719 17.703125 10.898438 17.34375 11.523438 L 13.300781 18.613281 L 14.347656 20.289062 L 15.496094 18.28125 C 15.496094 18.28125 16.199219 16.628906 18.296875 16.628906 C 20.398438 16.628906 25.066406 16.628906 25.066406 16.628906 C 25.785156 16.628906 26.664062 16.117188 27.019531 15.496094 L 30.433594 9.515625 C 30.433594 9.515625 29.238281 10.386719 28.519531 10.386719 "/>
<path style=" stroke:none;fill-rule:evenodd;fill:rgb(26.911926%,55.358887%,20.640564%);fill-opacity:1;" d="M 17.21875 25.691406 C 18.019531 25.691406 27.261719 25.691406 27.261719 25.691406 C 27.980469 25.691406 28.859375 25.171875 29.214844 24.546875 L 33.726562 16.628906 C 33.726562 16.628906 32.535156 17.5 31.816406 17.5 L 19.925781 17.5 C 19.210938 17.5 18.328125 18.011719 17.972656 18.632812 C 17.972656 18.632812 14.53125 24.609375 14.023438 25.496094 C 13.519531 26.382812 12.492188 26.625 12.09375 26.621094 C 10.484375 26.613281 8.9375 25.632812 8.9375 23.726562 C 8.9375 20.84375 13.363281 21.710938 13.363281 21.710938 L 11.042969 18.007812 C 11.042969 18.007812 6.035156 18.148438 6.035156 23.597656 C 6.035156 29.113281 11.660156 29.691406 11.660156 29.691406 L 31.050781 29.691406 L 32.832031 26.570312 C 32.832031 26.570312 17.472656 26.570312 16.714844 26.570312 C 16.175781 26.570312 16.046875 25.691406 17.21875 25.691406 "/>
<path style=" stroke:none;fill-rule:nonzero;fill:rgb(25.184631%,33.439636%,68.37616%);fill-opacity:1;" d="M 56.214844 16.207031 C 55.328125 20.4375 53.699219 22.726562 49.117188 22.726562 C 46.246094 22.726562 43.316406 21.570312 43.316406 18.351562 C 43.316406 17.609375 43.480469 16.886719 43.628906 16.164062 L 45.421875 7.640625 L 48.664062 7.640625 L 46.867188 16.164062 C 46.765625 16.640625 46.558594 17.546875 46.558594 18.023438 C 46.558594 18.765625 47.09375 20.003906 49.324219 20.003906 C 51.964844 20.003906 52.460938 18.597656 52.933594 16.371094 L 54.773438 7.640625 L 58.011719 7.640625 L 56.214844 16.207031 "/>
<path style=" stroke:none;fill-rule:nonzero;fill:rgb(25.184631%,33.439636%,68.37616%);fill-opacity:1;" d="M 57.496094 19.691406 L 67.339844 10.363281 L 59.785156 10.363281 L 60.386719 7.640625 L 72.023438 7.640625 L 71.488281 10.242188 L 61.5625 19.652344 L 69.878906 19.652344 L 69.34375 22.375 L 56.9375 22.375 L 57.496094 19.691406 "/>
<path style=" stroke:none;fill-rule:nonzero;fill:rgb(25.184631%,33.439636%,68.37616%);fill-opacity:1;" d="M 74.210938 7.640625 L 80.402344 7.640625 C 83.355469 7.640625 85.191406 8.28125 85.191406 11.085938 C 85.191406 12.757812 84.160156 14.308594 82.425781 14.511719 L 82.425781 14.554688 C 83.828125 14.925781 84.613281 16.125 84.613281 17.546875 C 84.613281 20.746094 81.929688 22.375 78.980469 22.375 L 71.117188 22.375 L 74.210938 7.640625 M 74.769531 19.859375 L 78.835938 19.859375 C 80.300781 19.859375 81.375 19.054688 81.375 17.484375 C 81.375 15.9375 79.992188 15.8125 78.8125 15.8125 L 75.636719 15.8125 Z M 76.089844 13.605469 L 79.765625 13.605469 C 80.941406 13.605469 81.949219 12.945312 81.949219 11.664062 C 81.949219 10.550781 81.289062 10.160156 80.238281 10.160156 L 76.8125 10.160156 L 76.089844 13.605469 "/>
<path style=" stroke:none;fill-rule:nonzero;fill:rgb(25.184631%,33.439636%,68.37616%);fill-opacity:1;" d="M 89.113281 7.640625 L 100.359375 7.640625 L 99.804688 10.363281 L 91.796875 10.363281 L 91.136719 13.523438 L 98.542969 13.523438 L 98.007812 16.039062 L 90.601562 16.039062 L 89.835938 19.652344 L 97.964844 19.652344 L 97.386719 22.375 L 86.019531 22.375 L 89.113281 7.640625 "/>
<path style=" stroke:none;fill-rule:nonzero;fill:rgb(25.184631%,33.439636%,68.37616%);fill-opacity:1;" d="M 102.855469 7.640625 L 106.097656 7.640625 L 104.816406 13.8125 L 104.859375 13.8125 L 111.546875 7.640625 L 115.839844 7.640625 L 108.761719 13.707031 L 113.28125 22.375 L 109.625 22.375 L 106.261719 15.75 L 104.011719 17.710938 L 103.042969 22.375 L 99.78125 22.375 L 102.855469 7.640625 "/>
<path style=" stroke:none;fill-rule:nonzero;fill:rgb(25.184631%,33.439636%,68.37616%);fill-opacity:1;" d="M 117.800781 7.640625 L 121.058594 7.640625 L 117.945312 22.375 L 114.683594 22.375 L 117.800781 7.640625 "/>
<path style=" stroke:none;fill-rule:nonzero;fill:rgb(25.184631%,33.439636%,68.37616%);fill-opacity:1;" d="M 124.050781 17.484375 C 123.949219 19.570312 125.371094 20.207031 127.230469 20.207031 C 128.527344 20.207031 130.035156 19.589844 130.035156 18.125 C 130.035156 16.679688 128.136719 16.390625 126.300781 15.832031 C 124.445312 15.257812 122.585938 14.410156 122.585938 11.871094 C 122.585938 8.589844 125.578125 7.289062 128.425781 7.289062 C 131.441406 7.289062 133.957031 8.632812 133.957031 12.035156 L 130.882812 12.035156 C 130.945312 10.386719 129.746094 9.808594 128.242188 9.808594 C 127.003906 9.808594 125.660156 10.28125 125.660156 11.644531 C 125.660156 13.109375 128.160156 13.480469 129.167969 13.730469 C 131.480469 14.328125 133.113281 15.214844 133.113281 17.855469 C 133.113281 21.386719 129.914062 22.726562 127.105469 22.726562 C 123.039062 22.726562 120.976562 21.035156 120.976562 17.484375 L 124.050781 17.484375 "/>
<path style=" stroke:none;fill-rule:nonzero;fill:rgb(25.184631%,33.439636%,68.37616%);fill-opacity:1;" d="M 139.984375 10.363281 L 135.363281 10.363281 L 135.9375 7.640625 L 148.238281 7.640625 L 147.664062 10.363281 L 143.246094 10.363281 L 140.726562 22.375 L 137.464844 22.375 L 139.984375 10.363281 "/>
<path style=" stroke:none;fill-rule:nonzero;fill:rgb(25.184631%,33.439636%,68.37616%);fill-opacity:1;" d="M 152.839844 7.640625 L 156.164062 7.640625 L 158.621094 22.375 L 155.402344 22.375 L 154.925781 19.09375 L 149.414062 19.09375 L 147.558594 22.375 L 144.132812 22.375 L 152.839844 7.640625 M 150.695312 16.679688 L 154.636719 16.679688 L 153.914062 10.820312 L 153.875 10.820312 L 150.695312 16.679688 "/>
<path style=" stroke:none;fill-rule:nonzero;fill:rgb(25.184631%,33.439636%,68.37616%);fill-opacity:1;" d="M 162.890625 7.640625 L 166.234375 7.640625 L 170.238281 18.125 L 170.28125 18.125 L 172.386719 7.640625 L 175.359375 7.640625 L 172.242188 22.375 L 169 22.375 L 164.957031 12.035156 L 164.914062 12.035156 L 162.808594 22.375 L 159.777344 22.375 L 162.890625 7.640625 "/>
<path style=" stroke:none;fill-rule:nonzero;fill:rgb(25.184631%,33.439636%,68.37616%);fill-opacity:1;" d="M 122.105469 33 C 122.378906 31.027344 124.046875 30.40625 125.820312 30.40625 C 127.21875 30.40625 129.113281 30.710938 129.082031 32.46875 C 129.082031 32.804688 129.007812 33.304688 128.914062 33.789062 L 128.21875 36.941406 C 128.140625 37.214844 128.113281 37.703125 128.113281 38.003906 C 128.113281 38.140625 128.140625 38.324219 128.1875 38.460938 L 126.035156 38.460938 L 126.035156 37.6875 C 125.441406 38.355469 124.519531 38.671875 123.640625 38.671875 C 121.925781 38.671875 121.089844 37.703125 121.089844 36.609375 C 121.089844 35.109375 122.226562 34.167969 124.09375 33.941406 C 126.125 33.699219 127.082031 33.804688 127.082031 32.804688 C 127.082031 32.03125 126.261719 31.847656 125.714844 31.847656 C 124.941406 31.847656 124.261719 32.210938 124.125 33 L 122.105469 33 M 126.65625 34.699219 C 126.109375 35.015625 125.457031 35.03125 124.835938 35.078125 C 124.015625 35.167969 123.242188 35.367188 123.242188 36.351562 C 123.242188 36.941406 123.804688 37.230469 124.425781 37.230469 C 125.761719 37.230469 126.199219 36.304688 126.441406 35.457031 L 126.65625 34.699219 "/>
<path style=" stroke:none;fill-rule:nonzero;fill:rgb(25.184631%,33.439636%,68.37616%);fill-opacity:1;" d="M 131.386719 30.621094 L 133.554688 30.621094 L 131.886719 38.460938 L 129.71875 38.460938 L 131.386719 30.621094 M 133.796875 29.40625 L 131.628906 29.40625 L 132.023438 27.632812 L 134.191406 27.632812 L 133.796875 29.40625 "/>
<path style=" stroke:none;fill-rule:nonzero;fill:rgb(25.184631%,33.439636%,68.37616%);fill-opacity:1;" d="M 135.285156 30.621094 L 137.332031 30.621094 L 137.011719 32.03125 L 137.042969 32.058594 C 137.527344 30.984375 138.589844 30.40625 139.742188 30.40625 C 139.96875 30.40625 140.183594 30.421875 140.410156 30.453125 L 139.96875 32.546875 C 139.667969 32.484375 139.363281 32.410156 139.058594 32.410156 C 137.40625 32.410156 136.816406 33.652344 136.527344 34.988281 L 135.800781 38.460938 L 133.644531 38.460938 L 135.285156 30.621094 "/>
<path style=" stroke:none;fill-rule:nonzero;fill:rgb(25.184631%,33.439636%,68.37616%);fill-opacity:1;" d="M 148.277344 38.460938 L 146.035156 38.460938 L 145.761719 32.957031 L 145.730469 32.957031 L 143.304688 38.460938 L 141.046875 38.460938 L 140.179688 30.621094 L 142.378906 30.621094 L 142.683594 36.140625 L 142.714844 36.140625 L 145.125 30.621094 L 147.308594 30.621094 L 147.550781 36.09375 L 147.582031 36.09375 L 150.097656 30.621094 L 152.375 30.621094 L 148.277344 38.460938 "/>
<path style=" stroke:none;fill-rule:nonzero;fill:rgb(25.184631%,33.439636%,68.37616%);fill-opacity:1;" d="M 152.996094 33 C 153.269531 31.027344 154.9375 30.40625 156.710938 30.40625 C 158.105469 30.40625 160.003906 30.710938 159.972656 32.46875 C 159.972656 32.804688 159.894531 33.304688 159.804688 33.789062 L 159.105469 36.941406 C 159.03125 37.214844 159 37.703125 159 38.003906 C 159 38.140625 159.03125 38.324219 159.078125 38.460938 L 156.921875 38.460938 L 156.921875 37.6875 C 156.332031 38.355469 155.40625 38.671875 154.527344 38.671875 C 152.8125 38.671875 151.980469 37.703125 151.980469 36.609375 C 151.980469 35.109375 153.117188 34.167969 154.980469 33.941406 C 157.015625 33.699219 157.96875 33.804688 157.96875 32.804688 C 157.96875 32.03125 157.148438 31.847656 156.605469 31.847656 C 155.832031 31.847656 155.148438 32.210938 155.011719 33 L 152.996094 33 M 157.542969 34.699219 C 157 35.015625 156.347656 35.03125 155.726562 35.078125 C 154.90625 35.167969 154.132812 35.367188 154.132812 36.351562 C 154.132812 36.941406 154.695312 37.230469 155.316406 37.230469 C 156.652344 37.230469 157.089844 36.304688 157.332031 35.457031 L 157.542969 34.699219 "/>
<g clip-path="url(#clip1)" clip-rule="nonzero">
<path style=" stroke:none;fill-rule:nonzero;fill:rgb(25.184631%,33.439636%,68.37616%);fill-opacity:1;" d="M 164.035156 39.566406 C 163.292969 40.917969 162.609375 41.21875 160.988281 41.21875 C 160.609375 41.21875 160.214844 41.160156 159.835938 41.144531 L 160.199219 39.355469 C 160.484375 39.355469 160.789062 39.445312 161.078125 39.445312 C 162.09375 39.445312 162.214844 38.792969 162.503906 38.382812 L 161.109375 30.621094 L 163.320312 30.621094 L 164.003906 36.230469 L 164.035156 36.230469 L 166.75 30.621094 L 169.023438 30.621094 L 164.035156 39.566406 "/>
</g>
<path style=" stroke:none;fill-rule:nonzero;fill:rgb(25.184631%,33.439636%,68.37616%);fill-opacity:1;" d="M 173.996094 32.910156 C 173.984375 32.242188 173.605469 31.847656 172.785156 31.847656 C 172.027344 31.847656 171.464844 32.058594 171.464844 32.621094 C 171.464844 32.96875 171.722656 33.183594 172.449219 33.410156 L 173.527344 33.757812 C 174.679688 34.136719 175.589844 34.683594 175.589844 36.003906 C 175.589844 37.945312 173.664062 38.671875 171.859375 38.671875 C 170.328125 38.671875 168.523438 38.066406 168.523438 36.230469 L 168.523438 35.910156 L 170.523438 35.910156 L 170.523438 36.167969 C 170.523438 36.882812 171.328125 37.230469 172.070312 37.230469 C 172.722656 37.230469 173.4375 37.003906 173.4375 36.289062 C 173.4375 35.746094 173.132812 35.578125 172.664062 35.425781 L 171.011719 34.894531 C 169.933594 34.546875 169.3125 34.121094 169.3125 32.894531 C 169.3125 31.042969 171.269531 30.40625 172.785156 30.40625 C 174.496094 30.40625 176.03125 30.894531 176 32.910156 L 173.996094 32.910156 "/>
</g>
</svg>
