<svg xmlns="http://www.w3.org/2000/svg" width="98.24pt" height="59pt" viewBox="0 0 98.24 59"><defs><clipPath id="a"><path d="M68 7h30.238v31H68Zm0 0"/></clipPath></defs><path d="M12.973 51.668c-.805-2.574-1.504-5.023-2.418-7.426a141 141 0 0 0-2.293 7.426zM0 58.508c.137-.211.316-.41.402-.64q3.544-9.6 7.075-19.196c.105-.285.222-.57.355-.91h5.535c.094.199.195.394.274.601 2.507 6.586 5.011 13.168 7.511 19.754.11.285.164.586.243.883H15.12c-.066-.988-.484-1.871-.777-2.793h-7.5c-.235.945-.465 1.871-.696 2.793H0zM81.762 50.883c.004 2.101 1.605 3.699 3.691 3.691 2.05-.015 3.629-1.625 3.625-3.699-.004-2.078-1.574-3.672-3.633-3.68-2.101-.011-3.683 1.578-3.683 3.688M81.766 59c-.176-.152-.332-.34-.532-.45-5.414-2.976-5.898-11.206-.867-14.796 2.395-1.711 5.422-1.797 7.914-.227.188.118.371.239.645.414.062-.402.11-.71.16-1.007.445-.184 3.535-.239 4.531-.079.035.165.106.356.106.547.004 5.137 0 10.278-.004 15.414 0 .063-.02.121-.028.184H89.02c-.036-.363.101-.754-.18-1.129L87.05 59zM60.719 50.926c.02-2.055-1.547-3.668-3.567-3.68-2.027-.012-3.62 1.578-3.625 3.621-.007 2.055 1.567 3.645 3.598 3.645 2.004 0 3.578-1.57 3.594-3.586M54.098 59c-.274-.187-.535-.41-.828-.562-5.036-2.54-5.72-8.555-3.25-12.262 1.882-2.832 5.437-4.297 8.796-3.598 3.47.719 6.059 3.332 6.676 6.738.703 3.887-1.21 7.579-4.797 9.274-.21.097-.383.27-.57.41zM25.328 59c-.113-.11-.207-.25-.34-.324-1.933-1.051-2.847-2.758-3.093-4.875a17 17 0 0 1-.102-1.961c-.012-2.703-.008-5.406-.004-8.113 0-.278.031-.559.055-.895h4.781c.023.305.07.598.07.895.004 2.742 0 5.488.008 8.234 0 .367.02.738.086 1.098.207 1.113.938 1.8 1.965 1.894 1.242.11 2.273-.41 2.633-1.465a6.4 6.4 0 0 0 .324-1.98c.035-2.602.012-5.203.016-7.805 0-.262.027-.523.046-.898 1.606-.055 3.165-.028 4.86-.012 0 5.453.004 10.832.008 16.207h-4.797l-.09-1.305c-.445.317-.762.528-1.067.758-.234.172-.457.363-.687.547z" style="stroke:none;fill-rule:nonzero;fill:#1e2f50;fill-opacity:1"/><g clip-path="url(#a)"><path d="M98.238 28.016c-.136.226-.324.441-.406.687-1.426 4.176-4.184 7.055-8.387 8.426-7.86 2.562-16.015-2.703-16.918-10.895-.449-4.097.825-7.632 3.66-10.613 1.204-1.262 1.458-2.95.641-4.406a3.64 3.64 0 0 0-4.332-1.676c-1.613.535-2.695 2.207-2.476 3.816.253 1.875 1.609 3.168 3.425 3.266.215.012.434.027.758.047-.367.594-.68 1.09-1 1.605-1.016.067-1.86-.332-2.644-.867-1.985-1.363-2.786-3.96-1.954-6.273.813-2.266 3.133-3.719 5.57-3.488a5.36 5.36 0 0 1 4.766 4.445c.309 1.832-.234 3.398-1.507 4.726-1.602 1.668-2.653 3.618-3.09 5.903-1.313 6.847 4 13.242 10.972 13.324 5.29.062 10.442-3.79 11.286-9.734.793-5.57-2.782-10.965-8.254-12.418a60 60 0 0 1-.832-.227v-1.64c.222.019.46.007.687.062 4.856 1.184 8.063 4.16 9.664 8.883.082.234.246.437.371.652z" style="stroke:none;fill-rule:nonzero;fill:#1e2f50;fill-opacity:1"/></g><path d="M67.133 59c.015-.328.047-.652.047-.98.004-4.727 0-9.454.007-14.184 0-.316.036-.637.06-1.008h4.507v2.203c.05.024.105.051.156.074 1.059-1.488 2.38-2.503 4.39-2.535.067 1.594.04 3.11.024 4.668-.351.07-.625.125-.902.184-2.055.418-3.152 1.629-3.246 3.723-.07 1.656-.043 3.312-.043 4.972 0 .961.027 1.922.039 2.883zM38.977 59l-.012-15.55c0-.18.035-.36.062-.606h4.446v2.261c.054.036.105.067.16.106 1.015-1.629 2.414-2.566 4.39-2.66v4.687c-.265.059-.52.117-.777.168-2.121.407-3.234 1.63-3.332 3.79-.07 1.593-.035 3.195-.035 4.792-.004 1.004.008 2.008.016 3.012zM84.89 21.094c.368-.598.669-1.098.993-1.621.773-.032 1.46.222 2.11.57 2.609 1.398 3.581 4.785 2.155 7.324-1.535 2.735-4.898 3.547-7.437 2.047-2.668-1.574-3.461-4.965-1.805-7.535.246-.375.547-.715.848-1.047 3.105-3.437 4.05-7.387 2.437-11.734-1.59-4.286-4.808-6.766-9.367-7.282-6.344-.714-11.89 3.946-12.398 10.301-.434 5.418 3.02 10.32 8.277 11.754.274.074.543.16.867.258v1.66c-.355-.055-.672-.082-.98-.16-5.781-1.414-9.828-6.477-9.953-12.438C60.477 5.52 67.215-.707 74.84.066c6.66.672 11.633 5.946 11.805 12.625.09 3.602-1.149 6.75-3.668 9.356-1.575 1.621-1.614 3.898-.067 5.371a3.67 3.67 0 0 0 4.328.523 3.66 3.66 0 0 0 1.742-3.996c-.351-1.547-1.734-2.715-3.332-2.812-.214-.016-.43-.024-.757-.04" style="stroke:none;fill-rule:nonzero;fill:#1e2f50;fill-opacity:1"/><path d="M86.332 18.582c.188-.523.363-.992.559-1.535.351.07.652.098.933.183 3.656 1.125 6.028 4.907 5.45 8.66-.614 3.95-3.852 6.778-7.766 6.79-3.278.011-6.125-1.848-7.371-4.805-1.254-2.98-.567-6.324 1.691-8.703 2.469-2.606 3.227-5.692 2.027-9.086-1.183-3.34-3.668-5.266-7.18-5.754-4.585-.637-8.987 2.738-9.644 7.328-.629 4.403 1.883 8.383 6.13 9.707.234.074.46.153.769.25l-.243 1.582c-.304-.043-.546-.047-.773-.11-4.852-1.292-8.094-5.905-7.687-10.929.41-5.031 4.328-9.05 9.336-9.566 4.289-.442 8.48 1.82 10.39 5.605 1.988 3.938 1.375 8.63-1.586 11.848-.906.98-1.703 2.008-1.96 3.344-.489 2.48.171 4.62 2.167 6.207 1.985 1.582 4.23 1.847 6.52.746 2.289-1.102 3.476-3.012 3.508-5.555.039-2.863-1.872-5.289-4.63-6-.19-.05-.378-.121-.64-.207" style="stroke:none;fill-rule:nonzero;fill:#1e2f50;fill-opacity:1"/><path d="m87.164 16.082.23-1.52c.329.055.59.07.836.141 4.805 1.324 8.036 5.922 7.625 10.856-.418 5.086-4.27 9.074-9.277 9.605-4.41.473-8.625-1.828-10.531-5.742-1.953-4.016-1.258-8.688 1.875-11.895 2.633-2.699 2.402-6.64.074-8.941-1.73-1.715-4.441-2.262-6.664-1.328-2.367.996-3.844 3.152-3.852 5.644-.007 3.004 1.864 5.403 4.778 6.13.137.034.27.085.508.163-.192.512-.368 1-.575 1.555-.351-.078-.671-.125-.972-.219-3.297-1.035-5.48-4.074-5.461-7.582.02-3.672 2.539-6.87 6.023-7.648 3.524-.785 7.055.73 8.739 3.754 1.773 3.183 1.265 6.945-1.29 9.578-4.257 4.383-2.964 11.523 2.551 14.082 3.598 1.668 7.989.637 10.442-2.45 2.53-3.187 2.582-7.581.148-10.773-1.172-1.539-2.695-2.547-4.527-3.11-.156-.05-.313-.093-.469-.148-.055-.02-.098-.07-.21-.152" style="stroke:none;fill-rule:nonzero;fill:#1e2f50;fill-opacity:1"/></svg>