<?xml version="1.0" encoding="UTF-8"?>
<svg xmlns="http://www.w3.org/2000/svg" xmlns:xlink="http://www.w3.org/1999/xlink" width="88.91pt" height="59pt" viewBox="0 0 88.91 59" version="1.1">
<defs>
<clipPath id="clip1">
  <path d="M 0 0 L 88.910156 0 L 88.910156 35 L 0 35 Z M 0 0 "/>
</clipPath>
</defs>
<g id="surface1">
<g clip-path="url(#clip1)" clip-rule="nonzero">
<path style=" stroke:none;fill-rule:nonzero;fill:rgb(13.699341%,25.996399%,11.71875%);fill-opacity:1;" d="M 30.808594 1.195312 C 34.867188 0.5625 38.976562 0.28125 43.082031 0.144531 C 44.027344 -0.00390625 44.988281 0.0234375 45.941406 0.0078125 C 47.898438 0.0273438 49.867188 -0.078125 51.816406 0.148438 C 64.269531 0.519531 76.714844 1.832031 88.90625 4.421875 C 86.988281 4.378906 85.082031 4.152344 83.164062 4.097656 C 74.867188 3.714844 66.519531 4.15625 58.332031 5.589844 C 57.191406 5.773438 56.09375 6.121094 54.984375 6.421875 C 51.863281 7.324219 48.753906 8.328125 45.851562 9.800781 C 44.425781 10.558594 42.984375 11.417969 41.988281 12.71875 C 41.699219 13.140625 41.320312 13.644531 41.492188 14.1875 C 41.738281 14.785156 42.386719 15.058594 42.953125 15.277344 C 44.734375 15.898438 46.632812 16.050781 48.5 16.230469 C 54.398438 16.820312 60.292969 17.441406 66.183594 18.144531 C 70.265625 18.652344 74.355469 19.132812 78.394531 19.917969 C 79.289062 20.132812 80.253906 20.242188 81.039062 20.765625 C 78.976562 21.128906 76.878906 21.28125 74.796875 21.53125 C 65.398438 22.527344 55.972656 23.21875 46.542969 23.832031 C 45.636719 23.925781 44.679688 24.050781 43.890625 24.554688 C 43.34375 24.898438 43.023438 25.636719 43.292969 26.25 C 43.550781 26.820312 44.09375 27.191406 44.625 27.484375 C 45.957031 28.191406 47.4375 28.554688 48.902344 28.894531 C 51.996094 29.5625 55.148438 29.925781 58.296875 30.230469 C 62.46875 30.628906 66.660156 30.851562 70.84375 31.050781 C 70.429688 31.5 69.820312 31.671875 69.257812 31.855469 C 67.566406 32.347656 65.816406 32.589844 64.078125 32.828125 C 59.207031 33.433594 54.304688 33.742188 49.40625 34.015625 C 45.839844 34.101562 42.265625 34.101562 38.703125 33.839844 C 36.195312 33.632812 33.664062 33.34375 31.261719 32.5625 C 30.144531 32.175781 29.011719 31.679688 28.195312 30.796875 C 27.648438 30.207031 27.363281 29.386719 27.464844 28.585938 C 27.605469 27.449219 28.234375 26.445312 28.921875 25.554688 C 29.65625 24.628906 30.746094 24.105469 31.808594 23.648438 C 23.515625 23.367188 15.214844 23.128906 6.949219 22.359375 C 5.234375 22.1875 3.519531 22 1.835938 21.636719 C 1.179688 21.46875 0.429688 21.339844 0 20.757812 C 0.753906 20.097656 1.757812 19.890625 2.699219 19.644531 C 4.882812 19.136719 7.101562 18.804688 9.320312 18.480469 C 14.195312 17.792969 19.09375 17.289062 23.988281 16.773438 C 21.398438 15.730469 18.777344 14.710938 16.40625 13.214844 C 15.328125 12.515625 14.253906 11.730469 13.550781 10.640625 C 13.074219 9.921875 12.9375 8.957031 13.324219 8.171875 C 13.78125 7.210938 14.664062 6.550781 15.535156 5.996094 C 17.269531 4.9375 19.1875 4.230469 21.109375 3.601562 C 24.285156 2.59375 27.539062 1.84375 30.808594 1.195312 "/>
</g>
<path style=" stroke:none;fill-rule:nonzero;fill:rgb(13.699341%,25.996399%,11.71875%);fill-opacity:1;" d="M 52.238281 40.960938 C 52.796875 40.960938 53.355469 40.953125 53.914062 40.972656 C 53.988281 43.023438 53.9375 45.074219 53.9375 47.125 C 53.363281 47.15625 52.789062 47.152344 52.21875 47.132812 C 52.195312 45.078125 52.152344 43.015625 52.238281 40.960938 "/>
<path style=" stroke:none;fill-rule:nonzero;fill:rgb(13.699341%,25.996399%,11.71875%);fill-opacity:1;" d="M 28.363281 41.082031 C 28.941406 40.964844 29.535156 40.980469 30.113281 41.074219 C 30.226562 42.121094 30.140625 43.179688 30.164062 44.234375 C 30.136719 45.234375 30.230469 46.242188 30.109375 47.238281 C 29.53125 47.328125 28.933594 47.363281 28.363281 47.21875 C 28.320312 45.175781 28.3125 43.128906 28.363281 41.082031 "/>
<path style=" stroke:none;fill-rule:nonzero;fill:rgb(13.699341%,25.996399%,11.71875%);fill-opacity:1;" d="M 31.429688 41.019531 C 32.59375 40.984375 33.761719 40.976562 34.925781 41.019531 C 35.15625 41.191406 34.992188 41.550781 35.042969 41.800781 C 33.847656 41.902344 32.640625 41.832031 31.441406 41.839844 C 31.429688 41.566406 31.425781 41.292969 31.429688 41.019531 "/>
<path style=" stroke:none;fill-rule:nonzero;fill:rgb(13.699341%,25.996399%,11.71875%);fill-opacity:1;" d="M 49.640625 41.097656 C 50.214844 41.027344 50.789062 41.03125 51.363281 41.085938 C 51.421875 42.839844 51.371094 44.597656 51.390625 46.355469 C 51.441406 46.832031 51.144531 47.390625 50.609375 47.371094 C 48 47.40625 45.386719 47.371094 42.773438 47.386719 C 42.578125 47.417969 42.277344 47.363281 42.191406 47.59375 C 42.101562 48.035156 42.175781 48.503906 42.039062 48.941406 C 41.476562 48.96875 40.90625 48.984375 40.34375 48.914062 C 40.289062 48.433594 40.3125 47.953125 40.289062 47.472656 C 39.734375 47.332031 38.894531 47.539062 38.652344 46.859375 C 38.507812 45.941406 38.621094 45.003906 38.585938 44.078125 C 38.535156 43.613281 38.796875 43.0625 39.320312 43.042969 C 40.25 43.003906 41.195312 42.960938 42.121094 43.089844 C 42.246094 44.144531 42.042969 45.222656 42.246094 46.273438 C 43.175781 46.339844 44.105469 46.289062 45.039062 46.304688 C 45.550781 46.292969 46.082031 46.363281 46.582031 46.214844 C 46.597656 45.507812 46.632812 44.792969 46.546875 44.089844 C 45.570312 43.96875 44.585938 44.101562 43.609375 44.003906 C 43.550781 43.667969 43.515625 43.320312 43.660156 43.003906 C 44.921875 43.019531 46.1875 42.984375 47.449219 43.015625 C 47.871094 43.007812 48.230469 43.359375 48.242188 43.78125 C 48.289062 44.5625 48.238281 45.347656 48.277344 46.132812 C 48.691406 46.308594 49.148438 46.242188 49.585938 46.214844 C 49.671875 44.511719 49.605469 42.800781 49.640625 41.097656 "/>
<path style=" stroke:none;fill-rule:nonzero;fill:rgb(13.699341%,25.996399%,11.71875%);fill-opacity:1;" d="M 57.375 43.964844 C 57.308594 44.6875 57.296875 45.417969 57.386719 46.140625 C 58.183594 46.167969 58.988281 46.175781 59.789062 46.140625 C 59.886719 45.417969 59.863281 44.6875 59.796875 43.96875 C 58.992188 43.886719 58.179688 43.894531 57.375 43.964844 Z M 55.636719 41.09375 C 56.210938 41.03125 56.785156 41.03125 57.359375 41.085938 C 57.382812 41.71875 57.339844 42.351562 57.417969 42.980469 C 58.511719 43.046875 59.609375 42.953125 60.707031 43.015625 C 61.167969 43.039062 61.53125 43.464844 61.492188 43.925781 C 61.492188 44.785156 61.515625 45.644531 61.480469 46.503906 C 61.480469 46.984375 61.035156 47.351562 60.5625 47.308594 C 58.753906 47.316406 56.941406 47.328125 55.132812 47.300781 C 54.847656 46.984375 54.625 46.613281 54.507812 46.199219 C 54.859375 46.074219 55.234375 46.074219 55.601562 46.039062 C 55.675781 44.394531 55.597656 42.742188 55.636719 41.09375 "/>
<path style=" stroke:none;fill-rule:nonzero;fill:rgb(13.699341%,25.996399%,11.71875%);fill-opacity:1;" d="M 68.894531 43.980469 C 68.859375 44.699219 68.84375 45.414062 68.90625 46.128906 C 69.703125 46.15625 70.523438 46.226562 71.3125 46.101562 C 71.449219 45.410156 71.355469 44.6875 71.347656 43.984375 C 70.535156 43.875 69.703125 43.878906 68.894531 43.980469 Z M 67.140625 41.0625 C 67.710938 41.042969 68.28125 41.035156 68.851562 41.085938 C 68.882812 41.714844 68.851562 42.34375 68.898438 42.972656 C 69.980469 43.054688 71.070312 42.96875 72.15625 43.015625 C 72.539062 43.019531 72.917969 43.300781 72.964844 43.695312 C 73.046875 44.511719 72.914062 45.335938 73.042969 46.144531 C 74.546875 46.164062 76.050781 46.199219 77.554688 46.144531 C 77.664062 45.425781 77.644531 44.691406 77.5625 43.972656 C 76.632812 43.84375 75.695312 43.976562 74.765625 43.894531 C 74.429688 43.714844 74.632812 43.238281 74.617188 42.933594 C 75.902344 42.867188 77.195312 42.90625 78.480469 42.90625 C 78.839844 42.886719 79.171875 43.148438 79.238281 43.5 C 79.371094 44.359375 79.179688 45.242188 79.363281 46.097656 C 79.796875 46.117188 80.246094 46.167969 80.675781 46.039062 C 80.714844 44.375 80.652344 42.714844 80.707031 41.054688 C 81.277344 41.035156 81.847656 41.03125 82.417969 41.054688 C 82.453125 42.773438 82.425781 44.488281 82.433594 46.203125 C 82.46875 46.628906 82.253906 47.160156 81.773438 47.207031 C 80.929688 47.273438 80.082031 47.214844 79.238281 47.234375 C 75.320312 47.21875 71.402344 47.269531 67.484375 47.265625 C 66.910156 47.265625 66.332031 47.230469 65.761719 47.328125 C 65.710938 47.804688 65.71875 48.285156 65.660156 48.761719 C 65.085938 48.851562 64.492188 48.867188 63.917969 48.75 C 63.886719 48.269531 63.890625 47.789062 63.8125 47.3125 C 63.316406 47.207031 62.613281 47.328125 62.375 46.753906 C 62.191406 46.035156 62.328125 45.273438 62.285156 44.535156 C 62.308594 44 62.144531 43.242188 62.738281 42.949219 C 63.289062 42.742188 63.898438 42.867188 64.476562 42.835938 C 64.949219 42.820312 65.605469 42.832031 65.785156 43.378906 C 65.976562 44.316406 65.777344 45.292969 65.949219 46.238281 C 66.3125 46.246094 66.679688 46.242188 67.039062 46.230469 C 67.234375 44.519531 67.039062 42.78125 67.140625 41.0625 "/>
<path style=" stroke:none;fill-rule:nonzero;fill:rgb(13.699341%,25.996399%,11.71875%);fill-opacity:1;" d="M 77.09375 41.085938 C 77.691406 41.035156 78.296875 41.023438 78.898438 41.101562 C 78.890625 41.363281 78.886719 41.628906 78.871094 41.890625 C 78.289062 41.914062 77.707031 41.90625 77.125 41.902344 C 77.09375 41.628906 77.085938 41.355469 77.09375 41.085938 "/>
<path style=" stroke:none;fill-rule:nonzero;fill:rgb(13.699341%,25.996399%,11.71875%);fill-opacity:1;" d="M 83.277344 41.035156 C 83.847656 41.003906 84.425781 41.007812 85 41.03125 C 85.019531 43.046875 85.03125 45.058594 84.992188 47.070312 C 84.421875 47.085938 83.855469 47.089844 83.285156 47.066406 C 83.246094 45.054688 83.265625 43.046875 83.277344 41.035156 "/>
<path style=" stroke:none;fill-rule:nonzero;fill:rgb(13.699341%,25.996399%,11.71875%);fill-opacity:1;" d="M 16.433594 41.246094 C 17.007812 41.160156 17.601562 41.136719 18.171875 41.261719 C 18.230469 43.304688 18.222656 45.359375 18.175781 47.40625 C 17.597656 47.527344 17 47.507812 16.421875 47.417969 C 16.320312 46.058594 16.402344 44.691406 16.375 43.332031 C 16.390625 42.636719 16.328125 41.933594 16.433594 41.246094 "/>
<path style=" stroke:none;fill-rule:nonzero;fill:rgb(13.699341%,25.996399%,11.71875%);fill-opacity:1;" d="M 26.003906 41.1875 C 26.578125 41.164062 27.152344 41.160156 27.722656 41.195312 C 27.738281 42.960938 27.738281 44.726562 27.726562 46.496094 C 27.75 46.945312 27.433594 47.398438 26.957031 47.40625 C 24.835938 47.5 22.703125 47.332031 20.585938 47.492188 C 20.539062 48.070312 20.5625 48.652344 20.53125 49.230469 C 19.972656 49.242188 19.410156 49.277344 18.859375 49.179688 C 18.726562 47.890625 18.832031 46.589844 18.800781 45.289062 C 18.808594 44.5625 18.761719 43.835938 18.84375 43.109375 C 19.394531 43.160156 20.054688 42.957031 20.535156 43.210938 C 20.585938 44.257812 20.535156 45.300781 20.554688 46.347656 C 21.125 46.417969 21.707031 46.425781 22.277344 46.328125 C 22.332031 45.996094 22.382812 45.652344 22.300781 45.320312 C 22.097656 45.074219 21.742188 45.039062 21.464844 44.90625 C 21.433594 44.320312 21.414062 43.726562 21.492188 43.140625 C 22.625 43.03125 23.777344 43.058594 24.910156 43.113281 C 24.945312 43.148438 25.023438 43.21875 25.058594 43.257812 C 25.128906 43.804688 25.085938 44.355469 25.070312 44.90625 C 24.816406 45.011719 24.546875 45.082031 24.3125 45.222656 C 24.078125 45.535156 24.214844 45.960938 24.269531 46.3125 C 24.832031 46.40625 25.410156 46.394531 25.972656 46.320312 C 26.007812 44.609375 25.949219 42.898438 26.003906 41.1875 "/>
<path style=" stroke:none;fill-rule:nonzero;fill:rgb(13.699341%,25.996399%,11.71875%);fill-opacity:1;" d="M 4.636719 41.421875 C 5.832031 41.417969 7.023438 41.390625 8.21875 41.4375 C 8.222656 41.699219 8.226562 41.964844 8.226562 42.226562 C 7.027344 42.277344 5.824219 42.25 4.625 42.242188 C 4.613281 41.96875 4.613281 41.695312 4.636719 41.421875 "/>
<path style=" stroke:none;fill-rule:nonzero;fill:rgb(13.699341%,25.996399%,11.71875%);fill-opacity:1;" d="M 11.964844 43.210938 C 11.921875 42.761719 12.425781 42.589844 12.789062 42.605469 C 13.664062 42.609375 14.546875 42.546875 15.417969 42.660156 C 15.507812 43.886719 15.433594 45.121094 15.460938 46.351562 C 15.445312 46.710938 15.511719 47.140625 15.234375 47.421875 C 14.96875 47.726562 14.527344 47.695312 14.160156 47.714844 C 11.292969 47.710938 8.425781 47.722656 5.554688 47.707031 C 5.070312 47.75 4.496094 47.5 4.476562 46.949219 C 4.433594 45.992188 4.457031 45.035156 4.464844 44.082031 C 4.445312 43.632812 4.808594 43.207031 5.269531 43.222656 C 6.246094 43.210938 7.230469 43.171875 8.207031 43.257812 C 8.332031 44.273438 8.199219 45.300781 8.289062 46.324219 C 8.585938 46.328125 8.886719 46.328125 9.1875 46.320312 C 9.257812 45.300781 9.152344 44.273438 9.25 43.253906 C 9.816406 43.179688 10.386719 43.160156 10.953125 43.222656 C 11.234375 43.230469 11.171875 43.589844 11.191406 43.78125 C 11.199219 44.621094 11.179688 45.46875 11.199219 46.3125 C 12.035156 46.34375 12.875 46.339844 13.710938 46.316406 C 13.722656 45.992188 13.722656 45.667969 13.714844 45.347656 C 13.15625 45.300781 12.433594 45.5 12.019531 45.015625 C 11.894531 44.425781 11.972656 43.808594 11.964844 43.210938 "/>
<path style=" stroke:none;fill-rule:nonzero;fill:rgb(13.699341%,25.996399%,11.71875%);fill-opacity:1;" d="M 31.59375 43.289062 C 31.773438 42.964844 32.179688 42.898438 32.523438 42.90625 C 33.121094 42.90625 33.71875 42.882812 34.316406 42.925781 C 34.660156 42.945312 34.972656 43.21875 35.03125 43.558594 C 35.152344 44.460938 34.949219 45.390625 35.164062 46.285156 C 35.46875 46.304688 35.773438 46.300781 36.074219 46.273438 C 36.273438 45.175781 36.089844 44.054688 36.21875 42.949219 C 36.785156 42.855469 37.363281 42.878906 37.933594 42.925781 C 38.097656 44.054688 37.96875 45.210938 38.007812 46.351562 C 38.066406 46.839844 37.742188 47.398438 37.203125 47.375 C 35.59375 47.398438 33.984375 47.386719 32.375 47.382812 C 31.988281 47.40625 31.570312 47.179688 31.503906 46.773438 C 31.398438 46.082031 31.480469 45.382812 31.453125 44.691406 C 31.472656 44.222656 31.378906 43.722656 31.59375 43.289062 "/>
<path style=" stroke:none;fill-rule:nonzero;fill:rgb(13.699341%,25.996399%,11.71875%);fill-opacity:1;" d="M 34.324219 48.210938 C 35.515625 48.214844 36.699219 48.1875 37.886719 48.226562 C 37.898438 48.488281 37.902344 48.75 37.90625 49.015625 C 36.703125 49.0625 35.5 49.035156 34.300781 49.03125 C 34.289062 48.757812 34.292969 48.480469 34.324219 48.210938 "/>
<path style=" stroke:none;fill-rule:nonzero;fill:rgb(13.699341%,25.996399%,11.71875%);fill-opacity:1;" d="M 15.132812 51.105469 C 15.6875 51.050781 16.246094 51.054688 16.800781 51.09375 C 16.984375 51.753906 16.871094 52.449219 16.902344 53.125 C 16.875 54.484375 16.953125 55.847656 16.855469 57.203125 C 16.277344 57.300781 15.679688 57.308594 15.101562 57.199219 C 15.035156 55.84375 15.089844 54.480469 15.070312 53.125 C 15.085938 52.449219 15.019531 51.769531 15.132812 51.105469 "/>
<path style=" stroke:none;fill-rule:nonzero;fill:rgb(13.699341%,25.996399%,11.71875%);fill-opacity:1;" d="M 32.5625 51.65625 C 33.160156 51.617188 33.757812 51.625 34.351562 51.652344 C 34.359375 51.921875 34.351562 52.1875 34.335938 52.457031 C 33.75 52.476562 33.167969 52.476562 32.582031 52.453125 C 32.570312 52.1875 32.566406 51.925781 32.5625 51.65625 "/>
<path style=" stroke:none;fill-rule:nonzero;fill:rgb(13.699341%,25.996399%,11.71875%);fill-opacity:1;" d="M 44.191406 51.664062 C 44.789062 51.617188 45.386719 51.628906 45.984375 51.644531 C 46 51.917969 45.996094 52.191406 45.960938 52.464844 C 45.375 52.46875 44.789062 52.480469 44.207031 52.445312 C 44.199219 52.183594 44.191406 51.921875 44.191406 51.664062 "/>
<path style=" stroke:none;fill-rule:nonzero;fill:rgb(13.699341%,25.996399%,11.71875%);fill-opacity:1;" d="M 22.46875 55.4375 C 22.464844 55.652344 22.460938 55.871094 22.46875 56.089844 C 23.015625 56.144531 23.570312 56.136719 24.121094 56.105469 C 24.148438 55.875 24.148438 55.644531 24.113281 55.417969 C 23.570312 55.355469 23.015625 55.34375 22.46875 55.4375 Z M 17.652344 52.820312 C 18.089844 52.75 18.535156 52.792969 18.976562 52.78125 C 19.117188 52.933594 19.257812 53.085938 19.40625 53.238281 C 19.511719 53.082031 19.621094 52.929688 19.726562 52.78125 C 21.636719 52.792969 23.542969 52.773438 25.453125 52.789062 C 25.675781 52.761719 25.933594 52.875 25.886719 53.144531 C 25.886719 54.492188 25.921875 55.847656 25.863281 57.199219 C 25.078125 57.3125 24.285156 57.234375 23.496094 57.257812 C 22.59375 57.238281 21.6875 57.304688 20.789062 57.210938 C 20.710938 56.3125 20.75 55.40625 20.761719 54.5 C 21.933594 54.46875 23.109375 54.53125 24.28125 54.460938 C 24.269531 54.289062 24.25 54.117188 24.226562 53.949219 C 22.882812 53.949219 21.535156 53.933594 20.191406 53.953125 C 19.789062 53.949219 19.371094 54.238281 19.351562 54.664062 C 19.292969 55.511719 19.382812 56.367188 19.296875 57.214844 C 18.710938 57.277344 18.105469 57.332031 17.527344 57.179688 C 17.484375 55.796875 17.484375 54.40625 17.519531 53.023438 C 17.550781 52.972656 17.617188 52.871094 17.652344 52.820312 "/>
<path style=" stroke:none;fill-rule:nonzero;fill:rgb(13.699341%,25.996399%,11.71875%);fill-opacity:1;" d="M 28.363281 53.882812 C 28.328125 54.605469 28.304688 55.335938 28.378906 56.058594 C 28.910156 56.085938 29.441406 56.082031 29.972656 56.066406 C 30.125 55.34375 30.039062 54.59375 30.003906 53.859375 C 29.457031 53.824219 28.90625 53.800781 28.363281 53.882812 Z M 26.804688 52.839844 C 28.457031 52.746094 30.117188 52.757812 31.765625 52.832031 C 31.878906 54.082031 31.792969 55.335938 31.820312 56.589844 C 31.789062 57.394531 31.910156 58.214844 31.707031 59 L 30.042969 59 C 29.992188 58.421875 30 57.839844 29.914062 57.265625 C 28.875 57.210938 27.835938 57.289062 26.800781 57.210938 C 26.742188 55.757812 26.71875 54.292969 26.804688 52.839844 "/>
<path style=" stroke:none;fill-rule:nonzero;fill:rgb(13.699341%,25.996399%,11.71875%);fill-opacity:1;" d="M 32.710938 52.8125 C 33.246094 52.75 33.789062 52.765625 34.324219 52.84375 C 34.433594 53.484375 34.375 54.136719 34.386719 54.78125 C 34.371094 55.585938 34.429688 56.394531 34.34375 57.199219 C 33.761719 57.277344 33.160156 57.304688 32.585938 57.179688 C 32.515625 55.976562 32.574219 54.773438 32.550781 53.570312 C 32.578125 53.316406 32.480469 52.996094 32.710938 52.8125 "/>
<path style=" stroke:none;fill-rule:nonzero;fill:rgb(13.699341%,25.996399%,11.71875%);fill-opacity:1;" d="M 40.097656 55.414062 C 39.84375 55.53125 39.980469 55.863281 39.957031 56.082031 C 40.519531 56.140625 41.09375 56.167969 41.652344 56.0625 C 41.652344 55.863281 41.652344 55.664062 41.648438 55.464844 C 41.144531 55.339844 40.613281 55.335938 40.097656 55.414062 Z M 38.414062 52.839844 C 39.3125 52.726562 40.21875 52.808594 41.121094 52.785156 C 41.859375 52.808594 42.601562 52.71875 43.332031 52.855469 C 43.425781 54.300781 43.4375 55.757812 43.355469 57.203125 C 42.566406 57.332031 41.765625 57.238281 40.96875 57.265625 C 40.074219 57.238281 39.175781 57.316406 38.285156 57.203125 C 38.203125 56.308594 38.234375 55.40625 38.257812 54.507812 C 39.429688 54.460938 40.605469 54.53125 41.777344 54.464844 C 41.761719 54.292969 41.746094 54.117188 41.726562 53.949219 C 40.609375 53.925781 39.492188 53.980469 38.375 53.914062 C 38.335938 53.554688 38.328125 53.191406 38.414062 52.839844 "/>
<path style=" stroke:none;fill-rule:nonzero;fill:rgb(13.699341%,25.996399%,11.71875%);fill-opacity:1;" d="M 44.175781 53.570312 C 44.214844 53.3125 44.078125 52.847656 44.453125 52.808594 C 44.964844 52.769531 45.503906 52.722656 46 52.898438 C 46.035156 54.3125 46.015625 55.722656 46.011719 57.132812 C 45.457031 57.359375 44.847656 57.230469 44.269531 57.234375 C 44.070312 56.03125 44.238281 54.789062 44.175781 53.570312 "/>
<path style=" stroke:none;fill-rule:nonzero;fill:rgb(13.699341%,25.996399%,11.71875%);fill-opacity:1;" d="M 59.78125 55.417969 C 59.753906 55.644531 59.753906 55.875 59.777344 56.101562 C 60.328125 56.136719 60.882812 56.144531 61.429688 56.085938 C 61.425781 55.878906 61.480469 55.65625 61.394531 55.460938 C 60.878906 55.28125 60.316406 55.390625 59.78125 55.417969 Z M 46.777344 52.902344 C 47.199219 52.671875 47.714844 52.824219 48.171875 52.789062 C 48.277344 52.9375 48.386719 53.085938 48.496094 53.238281 C 48.613281 53.085938 48.730469 52.941406 48.84375 52.792969 C 49.769531 52.808594 50.707031 52.707031 51.621094 52.855469 C 51.757812 53.894531 51.625 54.9375 51.710938 55.980469 C 52.027344 56.050781 52.355469 56.050781 52.675781 55.980469 C 52.757812 54.9375 52.609375 53.886719 52.75 52.851562 C 53.320312 52.757812 53.910156 52.738281 54.480469 52.855469 C 54.613281 53.886719 54.488281 54.925781 54.574219 55.960938 C 54.890625 56.058594 55.21875 56.050781 55.535156 55.976562 C 55.617188 54.9375 55.492188 53.886719 55.625 52.851562 C 57.058594 52.699219 58.511719 52.824219 59.953125 52.785156 C 61.007812 52.8125 62.066406 52.722656 63.117188 52.835938 C 63.226562 54.292969 63.21875 55.765625 63.152344 57.226562 C 62.089844 57.316406 61.019531 57.242188 59.953125 57.261719 C 59.324219 57.238281 58.683594 57.324219 58.0625 57.179688 C 58.035156 56.289062 58.046875 55.398438 58.054688 54.507812 C 59.230469 54.453125 60.410156 54.550781 61.585938 54.449219 C 61.570312 54.28125 61.554688 54.121094 61.539062 53.957031 C 60.183594 53.949219 58.828125 53.914062 57.476562 53.980469 C 57.335938 54.835938 57.480469 55.710938 57.386719 56.574219 C 57.332031 57 56.914062 57.292969 56.496094 57.257812 C 54.632812 57.261719 52.769531 57.257812 50.90625 57.257812 C 50.503906 57.28125 50.011719 57.132812 49.894531 56.695312 C 49.726562 55.839844 49.957031 54.945312 49.78125 54.09375 C 49.433594 53.867188 48.949219 53.964844 48.574219 54.089844 C 48.503906 55.125 48.613281 56.167969 48.507812 57.199219 C 47.925781 57.273438 47.328125 57.3125 46.75 57.175781 C 46.691406 56.074219 46.742188 54.976562 46.71875 53.875 C 46.730469 53.550781 46.6875 53.214844 46.777344 52.902344 "/>
<path style=" stroke:none;fill-rule:nonzero;fill:rgb(13.699341%,25.996399%,11.71875%);fill-opacity:1;" d="M 64.066406 52.855469 C 64.636719 52.746094 65.226562 52.753906 65.796875 52.851562 C 65.949219 53.914062 65.78125 54.992188 65.898438 56.054688 C 66.378906 56.082031 66.855469 56.082031 67.339844 56.070312 C 67.496094 55.019531 67.347656 53.949219 67.421875 52.894531 C 68.003906 52.71875 68.636719 52.734375 69.21875 52.886719 C 69.273438 53.925781 69.210938 54.964844 69.257812 56.003906 C 70.554688 56.125 71.867188 56.046875 73.171875 56.0625 C 73.175781 55.832031 73.175781 55.601562 73.179688 55.371094 C 72.140625 55.28125 71.097656 55.355469 70.0625 55.3125 C 69.953125 54.492188 69.964844 53.65625 70.058594 52.839844 C 71.609375 52.726562 73.175781 52.800781 74.734375 52.804688 C 74.742188 53.167969 74.742188 53.53125 74.734375 53.894531 C 73.78125 53.9375 72.828125 53.882812 71.875 53.929688 C 71.871094 54.097656 71.867188 54.261719 71.867188 54.425781 C 72.824219 54.460938 73.78125 54.414062 74.738281 54.457031 C 74.753906 55.117188 74.78125 55.777344 74.734375 56.4375 C 74.699219 56.835938 74.390625 57.234375 73.96875 57.246094 C 72.445312 57.300781 70.914062 57.195312 69.394531 57.292969 C 69.03125 57.675781 69.328125 58.320312 69.148438 58.800781 C 68.570312 58.847656 67.988281 58.871094 67.414062 58.777344 C 67.3125 58.292969 67.53125 57.71875 67.242188 57.292969 C 66.1875 57.167969 65.117188 57.359375 64.066406 57.191406 C 63.972656 55.75 63.96875 54.292969 64.066406 52.855469 "/>
<path style=" stroke:none;fill-rule:nonzero;fill:rgb(13.83667%,26.397705%,11.8927%);fill-opacity:1;" d="M 11.9375 41.257812 C 13.140625 41.164062 14.347656 41.203125 15.546875 41.234375 C 15.558594 41.507812 15.554688 41.785156 15.519531 42.0625 C 14.332031 42.058594 13.144531 42.082031 11.960938 42.046875 C 11.949219 41.785156 11.941406 41.519531 11.9375 41.257812 "/>
<path style=" stroke:none;fill-rule:nonzero;fill:rgb(13.83667%,26.397705%,11.8927%);fill-opacity:1;" d="M 46.566406 48.179688 C 47.164062 48.113281 47.765625 48.117188 48.363281 48.179688 C 48.367188 48.445312 48.359375 48.710938 48.339844 48.976562 C 47.757812 48.988281 47.175781 48.988281 46.59375 48.980469 C 46.574219 48.714844 46.566406 48.445312 46.566406 48.179688 "/>
<path style=" stroke:none;fill-rule:nonzero;fill:rgb(13.83667%,26.397705%,11.8927%);fill-opacity:1;" d="M 8.132812 48.480469 C 9.332031 48.417969 10.535156 48.417969 11.734375 48.480469 C 11.738281 48.75 11.738281 49.019531 11.726562 49.289062 C 10.53125 49.308594 9.339844 49.308594 8.144531 49.289062 C 8.128906 49.019531 8.125 48.75 8.132812 48.480469 "/>
</g>
</svg>
