<?xml version="1.0" encoding="UTF-8"?>
<svg xmlns="http://www.w3.org/2000/svg" xmlns:xlink="http://www.w3.org/1999/xlink" width="176pt" height="57.58pt" viewBox="0 0 176 57.58" version="1.1">
<defs>
<clipPath id="clip1">
  <path d="M 0 0 L 39 0 L 39 57.578125 L 0 57.578125 Z M 0 0 "/>
</clipPath>
</defs>
<g id="surface1">
<path style=" stroke:none;fill-rule:evenodd;fill:rgb(72.459412%,3.137207%,23.925781%);fill-opacity:1;" d="M 30.527344 36.023438 C 30.527344 35.304688 29.988281 34.691406 28.917969 34.171875 C 27.847656 33.648438 26.597656 33.253906 25.195312 32.972656 C 23.78125 32.683594 22.070312 32.421875 20.054688 32.195312 C 18.042969 31.953125 16.882812 31.820312 16.597656 31.777344 C 16.332031 32.078125 15.683594 32.785156 14.671875 33.898438 C 13.648438 35.003906 12.832031 35.992188 12.226562 36.84375 C 11.605469 37.695312 11.300781 38.375 11.300781 38.882812 C 11.300781 39.945312 11.882812 40.808594 13.039062 41.496094 C 14.199219 42.171875 15.703125 42.515625 17.550781 42.515625 C 18.796875 42.515625 20.476562 42.191406 22.582031 41.558594 C 24.695312 40.914062 26.550781 40.089844 28.140625 39.101562 C 29.734375 38.101562 30.527344 37.074219 30.527344 36.023438 Z M 113.113281 32.328125 C 113.085938 31.960938 112.914062 31.800781 112.585938 31.828125 C 111.96875 31.878906 111.15625 32.269531 110.15625 32.996094 C 109.167969 33.722656 108.171875 34.578125 107.179688 35.5625 C 106.183594 36.539062 105.417969 37.363281 104.871094 38.03125 C 105.226562 38.128906 105.535156 38.242188 105.816406 38.378906 C 106.089844 38.519531 106.441406 38.738281 106.875 39.023438 C 108.710938 37.667969 110.222656 36.363281 111.402344 35.085938 C 112.585938 33.816406 113.15625 32.894531 113.113281 32.328125 Z M 56.59375 30.277344 C 54.546875 30.859375 52.589844 31.558594 50.714844 32.371094 C 48.839844 33.179688 47.054688 34.164062 45.339844 35.320312 C 44.195312 36.0625 43.429688 36.78125 43.03125 37.464844 C 42.636719 38.164062 42.4375 39.117188 42.4375 40.351562 C 42.4375 41.191406 42.726562 41.609375 43.3125 41.609375 C 44.113281 41.609375 45.410156 40.902344 47.207031 39.5 C 48.992188 38.085938 50.804688 36.453125 52.652344 34.601562 C 54.5 32.75 55.816406 31.308594 56.59375 30.277344 Z M 44.765625 13.664062 C 44.765625 16.089844 43.902344 18.128906 42.160156 19.792969 C 40.421875 21.457031 38.261719 22.800781 35.675781 23.816406 C 33.085938 24.839844 30.304688 25.660156 27.316406 26.296875 C 24.328125 26.917969 21.941406 27.417969 20.132812 27.78125 L 19.074219 28.792969 C 21.550781 29.15625 23.484375 29.449219 24.871094 29.675781 C 26.265625 29.894531 27.972656 30.3125 30.019531 30.925781 C 32.0625 31.539062 33.78125 32.328125 35.15625 33.308594 C 36.542969 34.273438 37.230469 35.441406 37.230469 36.769531 C 37.230469 37.53125 36.996094 38.34375 36.511719 39.226562 C 36.03125 40.113281 35.316406 41.027344 34.371094 41.972656 C 34.257812 42.089844 34.136719 42.203125 34.019531 42.3125 C 35.628906 41.527344 37.128906 40.652344 38.390625 39.855469 C 38.363281 39.71875 38.339844 39.582031 38.316406 39.453125 C 38.316406 38.296875 38.355469 37.445312 38.425781 36.914062 C 38.832031 35.566406 39.816406 34.183594 41.390625 32.742188 C 42.96875 31.308594 44.855469 29.972656 47.042969 28.742188 C 49.234375 27.511719 51.351562 26.546875 53.390625 25.828125 C 55.4375 25.125 57.113281 24.769531 58.441406 24.769531 C 59.757812 24.769531 60.808594 25.457031 61.578125 26.839844 C 61.722656 27.136719 61.792969 27.328125 61.792969 27.394531 C 61.792969 27.683594 61.6875 27.921875 61.460938 28.132812 C 61.242188 28.332031 60.972656 28.492188 60.65625 28.617188 C 60.34375 28.742188 60.074219 28.835938 59.839844 28.914062 C 60.855469 29.390625 61.371094 30.125 61.371094 31.089844 C 61.371094 31.597656 61.179688 32.128906 60.808594 32.683594 C 60.441406 33.246094 59.839844 34.070312 58.980469 35.167969 C 58.125 36.253906 57.511719 37.113281 57.140625 37.734375 C 56.773438 38.363281 56.59375 39.003906 56.59375 39.679688 C 56.59375 40.207031 56.753906 40.617188 57.097656 40.921875 C 57.429688 41.226562 57.835938 41.390625 58.332031 41.390625 C 58.808594 41.390625 59.269531 41.292969 59.703125 41.105469 C 60.144531 40.921875 60.71875 40.570312 61.433594 40.042969 C 64.085938 38.089844 67.070312 35.632812 69.257812 33.15625 C 69.964844 32.359375 70.851562 31.082031 71.902344 29.332031 L 70.300781 29.398438 C 69.582031 29.429688 68.425781 29.617188 66.84375 29.976562 C 67.859375 28.113281 68.566406 26.839844 68.980469 26.171875 C 69.394531 25.492188 69.875 24.917969 70.441406 24.4375 C 70.992188 23.957031 71.710938 23.582031 72.589844 23.300781 C 73.460938 23.03125 74.632812 22.804688 76.089844 22.640625 C 77.308594 20.507812 78.261719 19.121094 78.933594 18.496094 C 79.605469 17.863281 80.492188 17.523438 81.589844 17.480469 C 82.726562 17.429688 83.300781 17.777344 83.332031 18.523438 C 83.34375 18.886719 83.046875 19.582031 82.414062 20.585938 C 81.792969 21.601562 81.476562 22.128906 81.460938 22.1875 C 82.183594 22.15625 83.242188 22.222656 84.640625 22.375 L 83.558594 24.449219 C 82.78125 26.085938 82.222656 27.152344 81.890625 27.652344 C 81.554688 28.152344 80.980469 28.539062 80.164062 28.816406 C 79.347656 29.105469 78.078125 29.277344 76.34375 29.351562 C 74.828125 31.636719 73.671875 33.695312 72.890625 35.539062 C 72.09375 37.378906 71.71875 38.804688 71.757812 39.820312 C 71.820312 41.449219 72.421875 42.246094 73.558594 42.195312 C 74.066406 42.175781 74.710938 41.960938 75.488281 41.5625 C 76.265625 41.167969 77.074219 40.675781 77.921875 40.078125 C 78.765625 39.492188 79.691406 38.800781 80.691406 38 C 81.097656 37.675781 81.441406 37.402344 81.71875 37.179688 C 81.859375 36.625 82.03125 36.0625 82.234375 35.492188 C 82.996094 33.367188 84.089844 31.554688 85.519531 30.039062 C 86.9375 28.539062 88.492188 27.699219 90.183594 27.535156 C 90.769531 27.476562 91.25 27.578125 91.648438 27.835938 C 92.046875 28.101562 92.273438 28.453125 92.3125 28.902344 C 92.371094 29.582031 92.015625 30.527344 91.261719 31.742188 C 90.511719 32.945312 89.578125 34.214844 88.484375 35.539062 C 87.382812 36.871094 86.496094 37.949219 85.824219 38.777344 C 85.589844 39.289062 85.496094 39.742188 85.53125 40.140625 C 85.601562 40.964844 85.929688 41.585938 86.5 42 C 87.078125 42.417969 87.839844 42.574219 88.785156 42.484375 C 89.738281 42.390625 90.738281 41.984375 91.796875 41.261719 C 92.832031 40.5625 94.265625 39.351562 96.105469 37.632812 C 96.296875 36.609375 96.613281 35.613281 97.050781 34.644531 C 98.097656 32.457031 99.296875 30.3125 100.636719 28.191406 C 101.984375 26.078125 103.375 24.113281 104.8125 22.296875 C 106.25 20.488281 107.785156 18.753906 109.421875 17.085938 C 111.050781 15.421875 112.8125 13.773438 114.710938 12.148438 C 115.613281 11.5 116.328125 11.148438 116.847656 11.101562 C 117.171875 11.074219 117.46875 11.191406 117.722656 11.4375 C 117.988281 11.683594 118.125 11.964844 118.148438 12.273438 C 118.214844 13.125 117.484375 14.710938 115.960938 17.035156 C 114.433594 19.359375 112.726562 21.710938 110.835938 24.09375 C 108.953125 26.464844 106.523438 29.410156 103.574219 32.917969 C 100.621094 36.425781 99.046875 38.308594 98.855469 38.546875 L 98.859375 39.945312 C 102.304688 36.359375 105.449219 33.210938 108.308594 30.515625 C 111.171875 27.816406 113.261719 26.410156 114.585938 26.296875 C 115.378906 26.230469 116.09375 26.535156 116.71875 27.210938 C 117.351562 27.890625 117.703125 28.777344 117.785156 29.867188 C 117.878906 31.046875 117.566406 32.1875 116.878906 33.296875 C 116.179688 34.417969 115.035156 35.570312 113.453125 36.777344 C 112.398438 37.527344 111.703125 38.011719 111.375 38.246094 C 111.046875 38.46875 110.71875 38.703125 110.382812 38.945312 C 110.046875 39.179688 109.34375 39.675781 108.289062 40.425781 C 108.925781 41.273438 109.476562 41.839844 109.941406 42.132812 C 110.414062 42.421875 110.953125 42.546875 111.570312 42.492188 C 112.289062 42.429688 113.023438 42.207031 113.769531 41.832031 C 114.507812 41.457031 115.261719 40.972656 116.019531 40.390625 C 116.78125 39.800781 117.480469 39.222656 118.121094 38.667969 C 118.757812 38.105469 119.464844 37.503906 120.238281 36.839844 C 120.191406 37.332031 120.207031 38.082031 120.28125 39.089844 C 119.207031 40.226562 118.058594 41.414062 116.847656 42.648438 C 115.636719 43.886719 114.421875 44.953125 113.210938 45.859375 C 111.996094 46.765625 110.839844 47.261719 109.726562 47.359375 C 108.941406 47.425781 108.195312 47.273438 107.484375 46.898438 C 106.773438 46.523438 106.105469 46.019531 105.476562 45.386719 C 104.84375 44.742188 104.261719 44.078125 103.730469 43.382812 C 103.195312 42.6875 102.691406 42.011719 102.195312 41.355469 C 101.59375 42.101562 101.152344 42.710938 100.859375 43.175781 C 100.566406 43.636719 100.234375 44.269531 99.867188 45.085938 C 99.394531 46.207031 98.859375 46.796875 98.273438 46.847656 C 97.101562 46.945312 96.320312 45.050781 95.921875 41.167969 C 95.90625 40.960938 95.894531 40.753906 95.886719 40.546875 C 95.167969 41.28125 94.328125 42.128906 93.367188 43.089844 C 92.152344 44.3125 90.953125 45.367188 89.769531 46.246094 C 88.59375 47.121094 87.496094 47.609375 86.5 47.707031 C 85.160156 47.835938 84.035156 47.363281 83.125 46.28125 C 82.226562 45.203125 81.621094 43.589844 81.335938 41.441406 C 81.296875 41.015625 81.285156 40.578125 81.296875 40.140625 C 80.753906 40.632812 80.171875 41.164062 79.554688 41.726562 C 78.457031 42.734375 77.324219 43.675781 76.175781 44.558594 C 75.019531 45.4375 73.894531 46.15625 72.796875 46.726562 C 71.699219 47.292969 70.644531 47.601562 69.632812 47.644531 C 68.65625 47.6875 67.871094 47.382812 67.273438 46.730469 C 66.683594 46.082031 66.367188 45.164062 66.324219 43.980469 C 66.25 42.144531 66.898438 39.722656 68.257812 36.734375 C 65.996094 38.839844 63.960938 40.777344 61.625 42.839844 C 60.207031 44.089844 58.800781 45.171875 57.421875 46.085938 C 56.042969 47.003906 54.859375 47.460938 53.894531 47.460938 C 53.285156 47.460938 52.753906 47.15625 52.300781 46.546875 C 51.851562 45.945312 51.625 45.296875 51.625 44.609375 C 51.625 43.824219 51.796875 42.878906 52.136719 41.792969 C 52.480469 40.703125 53.003906 39.425781 53.6875 37.945312 C 52.859375 38.6875 51.679688 39.75 50.144531 41.125 C 48.613281 42.488281 47.1875 43.664062 45.875 44.636719 C 44.546875 45.601562 43.546875 46.085938 42.859375 46.085938 C 42.140625 46.085938 41.457031 45.695312 40.796875 44.914062 C 40.148438 44.132812 39.605469 43.222656 39.164062 42.203125 L 39.125 42.109375 C 37.671875 42.949219 35.414062 44.164062 32.214844 45.660156 C 29.65625 46.855469 26.707031 47.515625 24.105469 47.882812 C 23.792969 47.988281 23.46875 48.09375 23.140625 48.195312 C 21.578125 48.683594 20.105469 49.039062 18.710938 49.265625 C 17.324219 49.507812 15.910156 49.621094 14.464844 49.621094 C 11.429688 49.621094 8.960938 48.996094 7.066406 47.738281 C 5.171875 46.480469 4.21875 44.855469 4.21875 42.859375 C 4.21875 41.890625 4.445312 40.871094 4.894531 39.820312 C 5.347656 38.757812 5.886719 37.75 6.507812 36.78125 C 7.136719 35.824219 7.914062 34.742188 8.835938 33.546875 C 9.769531 32.347656 10.425781 31.507812 10.808594 31.019531 C 9.179688 30.957031 7.929688 30.726562 7.058594 30.332031 C 6.183594 29.9375 5.738281 29.414062 5.738281 28.78125 C 5.738281 28.125 6.144531 27.585938 6.9375 27.125 C 7.734375 26.679688 8.71875 26.335938 9.878906 26.085938 C 11.035156 25.847656 12.148438 25.660156 13.199219 25.535156 C 14.257812 25.421875 15.074219 25.328125 15.644531 25.265625 C 16.324219 24.558594 17.207031 23.601562 18.304688 22.402344 C 19.417969 21.207031 20.519531 20.144531 21.636719 19.210938 C 22.746094 18.273438 23.867188 17.535156 25.007812 16.984375 C 26.136719 16.441406 27.304688 16.160156 28.515625 16.160156 C 28.898438 16.160156 29.09375 16.285156 29.09375 16.523438 C 29.09375 16.890625 28.621094 17.660156 27.679688 18.824219 C 26.734375 19.992188 25.292969 21.726562 23.339844 24.015625 C 26.246094 23.632812 28.464844 23.246094 29.996094 22.851562 C 31.523438 22.457031 33.179688 21.851562 34.988281 21.039062 C 36.386719 20.292969 37.546875 19.492188 38.457031 18.636719 C 39.371094 17.785156 39.824219 17.035156 39.824219 16.410156 C 39.824219 15.535156 39.34375 14.859375 38.371094 14.382812 C 37.398438 13.90625 36.039062 13.664062 34.300781 13.664062 C 31.070312 13.664062 27.925781 13.996094 24.839844 14.652344 C 21.765625 15.320312 18.464844 16.273438 14.957031 17.535156 C 15.417969 17.898438 15.644531 18.203125 15.644531 18.417969 C 15.644531 18.84375 15.378906 19.191406 14.839844 19.429688 C 14.308594 19.667969 13.421875 19.917969 12.195312 20.15625 C 10.96875 20.40625 9.996094 20.644531 9.289062 20.894531 C 8.925781 21.011719 8.355469 21.238281 7.585938 21.5625 C 6.820312 21.882812 6.113281 22.152344 5.484375 22.351562 C 4.855469 22.558594 4.316406 22.664062 3.875 22.664062 C 2.761719 22.664062 2.203125 22.125 2.203125 21.039062 C 2.203125 20.65625 2.273438 20.324219 2.398438 20.042969 C 2.535156 19.75 2.910156 19.128906 3.527344 18.148438 C 4.757812 16.171875 5.722656 14.769531 6.417969 13.925781 C 7.113281 13.082031 7.980469 12.375 8.992188 11.800781 C 10.015625 11.230469 11.488281 10.648438 13.421875 10.03125 C 21.058594 7.609375 27.699219 6.402344 33.339844 6.402344 C 35.675781 6.402344 37.703125 6.703125 39.402344 7.308594 C 41.101562 7.902344 42.417969 8.753906 43.351562 9.847656 C 44.292969 10.949219 44.765625 12.21875 44.765625 13.664062 Z M 96.359375 21.011719 C 96.410156 21.574219 96.34375 22.144531 96.179688 22.738281 C 96.003906 23.328125 95.753906 23.882812 95.421875 24.398438 C 95.089844 24.910156 94.6875 25.339844 94.226562 25.679688 C 93.769531 26.035156 93.304688 26.226562 92.828125 26.273438 C 92.148438 26.339844 91.589844 26.164062 91.160156 25.742188 C 90.726562 25.320312 90.472656 24.722656 90.40625 23.941406 C 90.347656 23.261719 90.523438 22.558594 90.933594 21.839844 C 91.34375 21.132812 91.878906 20.542969 92.539062 20.089844 C 93.210938 19.632812 93.871094 19.371094 94.539062 19.308594 C 95.035156 19.257812 95.449219 19.394531 95.78125 19.707031 C 96.117188 20.015625 96.3125 20.453125 96.359375 21.011719 "/>
<path style=" stroke:none;fill-rule:evenodd;fill:rgb(10.594177%,9.812927%,9.423828%);fill-opacity:1;" d="M 14.664062 25.375 L 12.832031 28.238281 C 12.832031 28.238281 12.179688 28.949219 11.96875 29.597656 C 11.761719 30.246094 11.214844 30.871094 10.445312 30.992188 C 10.429688 30.996094 10.417969 30.996094 10.40625 31 C 10.539062 31.007812 10.671875 31.011719 10.808594 31.019531 C 10.457031 31.46875 9.871094 32.21875 9.054688 33.265625 C 9.054688 33.28125 9.050781 33.300781 9.050781 33.320312 C 9.046875 33.773438 8.746094 34.035156 8.320312 34.222656 C 7.621094 35.152344 7.015625 36.007812 6.507812 36.78125 C 5.886719 37.75 5.347656 38.757812 4.894531 39.820312 C 4.445312 40.871094 4.21875 41.890625 4.21875 42.859375 C 4.21875 44.855469 5.171875 46.480469 7.066406 47.738281 C 7.632812 48.113281 8.246094 48.429688 8.910156 48.691406 C 11.28125 46.566406 13.53125 44.257812 14.496094 42.277344 L 14.5625 42.136719 C 14.003906 41.972656 13.496094 41.761719 13.039062 41.496094 C 11.878906 40.808594 11.300781 39.945312 11.300781 38.882812 C 11.300781 38.375 11.605469 37.695312 12.226562 36.84375 C 12.832031 35.992188 13.648438 35.003906 14.671875 33.898438 C 15.683594 32.785156 16.332031 32.078125 16.597656 31.777344 C 16.851562 31.816406 17.792969 31.925781 19.410156 32.117188 C 19.929688 31.289062 20.566406 30.273438 21.296875 29.121094 C 20.609375 29.019531 19.871094 28.910156 19.074219 28.792969 L 20.132812 27.78125 C 20.820312 27.644531 21.585938 27.488281 22.4375 27.3125 C 23.121094 26.222656 23.859375 25.054688 24.628906 23.839844 C 24.214844 23.898438 23.785156 23.957031 23.339844 24.015625 C 25.292969 21.726562 26.734375 19.992188 27.679688 18.824219 C 27.953125 18.492188 28.183594 18.1875 28.375 17.917969 L 28.917969 17.0625 C 29.035156 16.832031 29.09375 16.65625 29.09375 16.523438 C 29.09375 16.285156 28.898438 16.160156 28.515625 16.160156 C 27.304688 16.160156 26.136719 16.441406 25.007812 16.984375 C 23.867188 17.535156 22.746094 18.273438 21.636719 19.210938 C 20.519531 20.144531 19.417969 21.207031 18.304688 22.402344 C 17.207031 23.601562 16.324219 24.558594 15.644531 25.265625 C 15.375 25.292969 15.046875 25.332031 14.664062 25.375 Z M 26.445312 6.929688 L 20.882812 15.636719 C 22.238281 15.257812 23.558594 14.929688 24.839844 14.652344 C 26.863281 14.222656 28.914062 13.933594 30.996094 13.78125 C 32.742188 11.03125 34.355469 8.480469 35.609375 6.507812 C 34.890625 6.4375 34.132812 6.402344 33.339844 6.402344 C 31.1875 6.402344 28.886719 6.578125 26.445312 6.929688 "/>
<path style=" stroke:none;fill-rule:evenodd;fill:rgb(10.594177%,9.812927%,9.423828%);fill-opacity:1;" d="M 8.347656 35.605469 C 10.242188 36.230469 10.730469 38.886719 9.4375 41.535156 C 8.386719 43.6875 6.484375 45.171875 4.792969 45.324219 C 4.410156 44.578125 4.21875 43.757812 4.21875 42.859375 C 4.21875 41.890625 4.445312 40.871094 4.894531 39.820312 C 5.347656 38.757812 5.886719 37.75 6.507812 36.78125 C 6.777344 36.367188 7.074219 35.933594 7.402344 35.476562 C 7.730469 35.464844 8.046875 35.507812 8.347656 35.605469 "/>
<path style=" stroke:none;fill-rule:evenodd;fill:rgb(10.594177%,9.812927%,9.423828%);fill-opacity:1;" d="M 13.5625 34.476562 C 13.5625 34.476562 11.273438 36.152344 11.167969 36.335938 C 11.058594 36.519531 11.019531 36.917969 11.230469 36.949219 C 11.386719 36.96875 12.382812 36.351562 12.957031 35.875 C 13.109375 35.6875 13.269531 35.492188 13.4375 35.292969 C 13.582031 34.914062 13.5625 34.476562 13.5625 34.476562 "/>
<g clip-path="url(#clip1)" clip-rule="nonzero">
<path style=" stroke:none;fill-rule:evenodd;fill:rgb(100%,86.71875%,0%);fill-opacity:1;" d="M 38.144531 2.511719 C 38.144531 2.511719 35.9375 0.652344 34.0625 0.222656 C 32.183594 -0.210938 30.785156 0.132812 30.785156 0.132812 L 12.832031 28.238281 C 12.832031 28.238281 12.179688 28.949219 11.96875 29.597656 C 11.761719 30.246094 11.214844 30.871094 10.445312 30.992188 C 9.675781 31.113281 9.0625 32.632812 9.050781 33.320312 C 9.042969 34.003906 8.378906 34.246094 7.609375 34.457031 C 6.835938 34.667969 2.566406 35.953125 1.316406 40.871094 C 0.0625 45.785156 1.894531 52.347656 1.894531 52.347656 L 1.882812 53.355469 C 1.882812 53.355469 -0.136719 55.492188 0.0078125 56.476562 C 0.152344 57.464844 0.847656 57.578125 0.847656 57.578125 C 0.847656 57.578125 0.335938 56.734375 1.488281 55.140625 C 2.644531 53.542969 12.199219 46.984375 14.496094 42.277344 C 16.789062 37.574219 16.234375 37.308594 18.160156 34.132812 C 20.085938 30.957031 38.144531 2.511719 38.144531 2.511719 "/>
</g>
<path style=" stroke:none;fill-rule:evenodd;fill:rgb(30.589294%,16.868591%,8.616638%);fill-opacity:1;" d="M 8.347656 35.605469 C 10.242188 36.230469 10.730469 38.886719 9.4375 41.535156 C 7.347656 45.8125 2.605469 46.734375 1.921875 43 C 1.238281 39.265625 5.292969 34.597656 8.347656 35.605469 "/>
<path style=" stroke:none;fill-rule:evenodd;fill:rgb(72.459412%,3.137207%,23.925781%);fill-opacity:1;" d="M 35.898438 6.535156 L 32.351562 13.707031 C 29.800781 13.8125 27.300781 14.128906 24.839844 14.652344 C 23.136719 15.023438 21.363281 15.480469 19.527344 16.03125 L 22.898438 7.542969 C 26.695312 6.78125 30.175781 6.402344 33.339844 6.402344 C 34.238281 6.402344 35.09375 6.449219 35.898438 6.535156 "/>
<path style=" stroke:none;fill-rule:evenodd;fill:rgb(72.459412%,3.137207%,23.925781%);fill-opacity:1;" d="M 141.046875 31.984375 C 139.246094 32.480469 137.527344 33.070312 135.878906 33.761719 C 134.230469 34.453125 132.660156 35.289062 131.15625 36.269531 C 130.148438 36.902344 129.476562 37.507812 129.128906 38.09375 C 128.777344 38.6875 128.605469 39.5 128.605469 40.546875 C 128.605469 41.257812 128.859375 41.617188 129.375 41.617188 C 130.078125 41.617188 131.21875 41.015625 132.796875 39.824219 C 134.363281 38.621094 135.960938 37.234375 137.585938 35.660156 C 139.207031 34.085938 140.363281 32.859375 141.046875 31.984375 Z M 176 40.902344 C 175.722656 41.121094 174.960938 41.800781 173.714844 42.921875 C 172.476562 44.03125 171.402344 44.902344 170.5 45.511719 C 169.597656 46.132812 168.753906 46.453125 167.964844 46.484375 C 167.179688 46.515625 166.511719 46.230469 165.953125 45.621094 C 165.398438 45.011719 165.101562 44.253906 165.066406 43.34375 C 165.03125 42.492188 165.1875 41.632812 165.539062 40.769531 C 165.886719 39.910156 166.3125 39.121094 166.808594 38.425781 C 167.308594 37.726562 167.957031 36.871094 168.734375 35.871094 L 164.058594 37.089844 C 163.246094 38.035156 162.601562 38.742188 162.113281 39.226562 C 161.621094 39.722656 160.789062 40.496094 159.617188 41.5625 L 159.617188 41.527344 C 158.882812 42.027344 157.996094 42.621094 156.953125 43.304688 C 155.851562 44.039062 154.785156 44.648438 153.753906 45.125 C 152.730469 45.601562 151.816406 45.804688 151.035156 45.730469 C 149.988281 45.628906 149.183594 45.109375 148.628906 44.171875 C 148.117188 43.289062 147.867188 42.097656 147.902344 40.585938 C 147.148438 41.230469 146.335938 41.921875 145.46875 42.664062 C 144.222656 43.726562 142.988281 44.640625 141.777344 45.421875 C 140.5625 46.199219 139.527344 46.589844 138.675781 46.589844 C 138.140625 46.589844 137.671875 46.332031 137.273438 45.8125 C 136.878906 45.300781 136.679688 44.746094 136.679688 44.164062 C 136.679688 43.5 136.832031 42.695312 137.132812 41.769531 C 137.433594 40.84375 137.894531 39.757812 138.496094 38.5 C 137.765625 39.132812 136.726562 40.035156 135.378906 41.203125 C 134.035156 42.363281 132.78125 43.359375 131.625 44.1875 C 130.460938 45.007812 129.578125 45.421875 128.976562 45.421875 C 128.34375 45.421875 127.742188 45.089844 127.164062 44.421875 C 126.59375 43.757812 126.117188 42.988281 125.726562 42.121094 C 125.339844 41.242188 125.09375 40.464844 124.984375 39.78125 C 124.984375 38.800781 125.015625 38.078125 125.078125 37.625 C 125.4375 36.480469 126.300781 35.304688 127.6875 34.078125 C 129.074219 32.859375 130.726562 31.726562 132.65625 30.679688 C 134.578125 29.632812 136.441406 28.8125 138.234375 28.203125 C 140.03125 27.601562 141.507812 27.300781 142.671875 27.300781 C 143.828125 27.300781 144.757812 27.886719 145.429688 29.0625 C 145.554688 29.316406 145.621094 29.476562 145.621094 29.535156 C 145.621094 29.777344 145.523438 29.980469 145.324219 30.160156 C 145.136719 30.332031 144.898438 30.46875 144.621094 30.574219 C 144.34375 30.679688 144.105469 30.757812 143.898438 30.824219 C 144.796875 31.230469 145.246094 31.855469 145.246094 32.675781 C 145.246094 33.105469 145.078125 33.558594 144.757812 34.03125 C 144.429688 34.507812 143.898438 35.207031 143.148438 36.140625 C 142.394531 37.0625 141.855469 37.792969 141.53125 38.324219 C 141.203125 38.855469 141.046875 39.402344 141.046875 39.976562 C 141.046875 40.421875 141.1875 40.773438 141.492188 41.03125 C 141.78125 41.289062 142.140625 41.429688 142.574219 41.429688 C 142.996094 41.429688 143.398438 41.347656 143.78125 41.1875 C 144.167969 41.03125 144.675781 40.730469 145.300781 40.285156 C 145.882812 39.871094 146.945312 39.078125 148.484375 37.902344 C 148.722656 37.273438 149.03125 36.640625 149.414062 36 C 150.289062 34.53125 151.378906 33.339844 152.683594 32.425781 C 153.984375 31.515625 155.296875 31.121094 156.621094 31.246094 C 157.078125 31.289062 157.4375 31.4375 157.710938 31.691406 C 157.980469 31.945312 158.105469 32.242188 158.074219 32.582031 C 158.027344 33.097656 157.625 33.746094 156.878906 34.542969 C 156.136719 35.328125 155.246094 36.132812 154.222656 36.957031 C 153.191406 37.789062 152.363281 38.460938 151.730469 38.976562 C 151.480469 39.324219 151.347656 39.652344 151.320312 39.949219 C 151.265625 40.578125 151.429688 41.085938 151.8125 41.480469 C 152.203125 41.875 152.765625 42.105469 153.507812 42.175781 C 154.257812 42.25 155.082031 42.09375 155.992188 41.710938 C 157.828125 40.953125 159.601562 39.949219 160.964844 38.488281 C 161.179688 38.253906 161.492188 37.867188 161.894531 37.335938 C 161.472656 37.308594 161.175781 37.21875 161.023438 37.070312 C 160.867188 36.910156 160.78125 36.621094 160.761719 36.191406 C 160.734375 35.414062 161.023438 34.527344 161.621094 33.527344 C 162.226562 32.527344 162.9375 31.65625 163.742188 30.921875 C 164.550781 30.191406 165.203125 29.8125 165.730469 29.792969 C 165.933594 29.785156 166.128906 29.875 166.316406 30.0625 C 166.5 30.25 166.597656 30.46875 166.609375 30.703125 C 166.617188 30.941406 166.539062 31.257812 166.378906 31.660156 L 171.476562 30.757812 C 171.574219 30.75 171.699219 30.734375 171.847656 30.699219 C 171.996094 30.664062 172.066406 30.644531 172.066406 30.644531 C 172.535156 30.625 172.96875 30.882812 173.375 31.40625 C 173.777344 31.925781 173.992188 32.535156 174.019531 33.238281 C 174.039062 33.710938 173.882812 34.160156 173.539062 34.585938 C 173.195312 35.015625 172.613281 35.648438 171.789062 36.507812 C 170.96875 37.359375 170.347656 38.117188 169.925781 38.792969 C 169.507812 39.472656 169.3125 40.171875 169.339844 40.894531 C 169.371094 41.703125 169.785156 42.097656 170.578125 42.0625 C 170.976562 42.046875 171.40625 41.9375 171.867188 41.738281 C 172.335938 41.539062 172.84375 41.246094 173.398438 40.878906 C 173.953125 40.503906 174.421875 40.164062 174.808594 39.851562 C 175.199219 39.542969 175.570312 39.253906 175.925781 38.988281 Z M 162.269531 27.300781 C 162.230469 27.726562 162.101562 28.144531 161.894531 28.558594 C 161.679688 28.972656 161.410156 29.347656 161.085938 29.683594 C 160.757812 30.019531 160.394531 30.277344 159.988281 30.464844 C 159.589844 30.660156 159.203125 30.734375 158.828125 30.699219 C 158.296875 30.648438 157.890625 30.433594 157.617188 30.054688 C 157.34375 29.679688 157.230469 29.195312 157.28125 28.605469 C 157.328125 28.089844 157.5625 27.589844 157.976562 27.117188 C 158.386719 26.648438 158.882812 26.289062 159.453125 26.046875 C 160.027344 25.808594 160.574219 25.710938 161.097656 25.761719 C 161.484375 25.800781 161.785156 25.960938 162.003906 26.242188 C 162.21875 26.523438 162.308594 26.875 162.269531 27.300781 "/>
</g>
</svg>
