<svg xmlns="http://www.w3.org/2000/svg" width="176pt" height="76.773" viewBox="0 0 176 57.58"><defs><clipPath id="a"><path d="M0 0h39v57.578H0Zm0 0"/></clipPath></defs><path d="M30.527 36.023c0-.718-.539-1.332-1.609-1.851-1.07-.524-2.32-.918-3.723-1.2-1.414-.288-3.125-.55-5.14-.777-2.012-.242-3.172-.375-3.457-.418-.266.301-.914 1.008-1.926 2.121-1.024 1.106-1.84 2.094-2.445 2.946-.622.851-.926 1.531-.926 2.039 0 1.062.582 1.926 1.738 2.613 1.16.676 2.664 1.02 4.512 1.02 1.246 0 2.926-.325 5.031-.957 2.113-.645 3.969-1.47 5.559-2.457q2.388-1.501 2.386-3.079m82.586-3.695c-.027-.367-.199-.527-.527-.5-.617.05-1.43.442-2.43 1.168a27 27 0 0 0-2.976 2.566c-.996.977-1.762 1.801-2.309 2.47.356.097.664.21.945.347.274.14.625.36 1.059.644 1.836-1.355 3.348-2.66 4.527-3.937q1.776-1.906 1.711-2.758m-56.52-2.05a47 47 0 0 0-5.878 2.093 33 33 0 0 0-5.375 2.95c-1.145.742-1.91 1.46-2.309 2.144-.394.7-.593 1.652-.593 2.887q-.002 1.258.874 1.257c.801 0 2.098-.707 3.895-2.109q2.676-2.121 5.445-4.898 2.773-2.777 3.942-4.325M44.767 13.663c0 2.426-.864 4.465-2.606 6.129-1.738 1.664-3.898 3.008-6.484 4.023-2.59 1.024-5.371 1.844-8.36 2.48-2.988.622-5.375 1.122-7.183 1.485l-1.059 1.012q3.716.543 5.797.883c1.395.219 3.102.637 5.149 1.25 2.043.613 3.761 1.402 5.136 2.383 1.387.964 2.074 2.132 2.074 3.46 0 .762-.234 1.575-.718 2.458q-.722 1.328-2.14 2.746c-.114.117-.235.23-.352.34 1.609-.786 3.109-1.66 4.37-2.458-.027-.136-.05-.273-.074-.402 0-1.156.04-2.008.11-2.539.406-1.348 1.39-2.73 2.965-4.172 1.578-1.433 3.464-2.77 5.652-4 2.191-1.23 4.309-2.195 6.348-2.914 2.047-.703 3.722-1.058 5.05-1.058 1.317 0 2.368.687 3.137 2.07.145.297.215.488.215.555a.96.96 0 0 1-.332.738q-.329.298-.805.484c-.312.125-.582.219-.816.297 1.015.477 1.531 1.211 1.531 2.176 0 .508-.191 1.039-.562 1.594-.368.562-.97 1.386-1.829 2.484-.855 1.086-1.468 1.945-1.84 2.566-.367.63-.546 1.27-.546 1.946 0 .527.16.937.504 1.242.332.305.738.469 1.234.469.477 0 .938-.098 1.371-.286q.661-.273 1.73-1.062c2.653-1.953 5.637-4.41 7.825-6.887.707-.797 1.594-2.074 2.644-3.824l-1.601.066c-.719.032-1.875.22-3.457.579 1.015-1.864 1.722-3.137 2.136-3.805a7 7 0 0 1 1.461-1.735c.551-.48 1.27-.855 2.149-1.136.87-.27 2.043-.496 3.5-.66 1.219-2.133 2.172-3.52 2.844-4.145q1.008-.95 2.656-1.016c1.137-.05 1.71.297 1.742 1.043.012.364-.285 1.059-.918 2.063-.621 1.016-.937 1.543-.953 1.602.723-.032 1.781.035 3.18.187l-1.082 2.074q-1.169 2.454-1.668 3.203-.503.75-1.727 1.164c-.816.29-2.086.461-3.82.536-1.516 2.285-2.672 4.343-3.453 6.187-.797 1.84-1.172 3.266-1.133 4.281.062 1.63.664 2.426 1.8 2.375.508-.02 1.153-.234 1.93-.633a20 20 0 0 0 2.434-1.484A51 51 0 0 0 80.692 38l1.027-.82q.21-.832.515-1.688c.762-2.125 1.856-3.937 3.286-5.453 1.418-1.5 2.972-2.34 4.664-2.504.586-.058 1.066.043 1.464.3.399.267.625.618.665 1.067.058.68-.297 1.625-1.051 2.84-.75 1.203-1.684 2.473-2.778 3.797a475 475 0 0 0-2.66 3.238c-.234.512-.328.965-.293 1.364.07.824.399 1.445.969 1.859.578.418 1.34.574 2.285.484.953-.093 1.953-.5 3.012-1.222q1.551-1.05 4.308-3.63.288-1.535.946-2.987a63 63 0 0 1 3.586-6.454 71 71 0 0 1 4.176-5.894 67 67 0 0 1 4.609-5.211 82 82 0 0 1 5.289-4.938c.902-.648 1.617-1 2.137-1.046.324-.028.62.09.875.335.265.247.402.528.425.836q.099 1.277-2.187 4.762a98 98 0 0 1-5.125 7.059c-1.883 2.37-4.313 5.316-7.262 8.824a911 911 0 0 0-4.719 5.629l.004 1.398c3.446-3.586 6.59-6.734 9.45-9.43q4.293-4.048 6.277-4.218c.793-.067 1.508.238 2.133.914.633.68.984 1.566 1.066 2.656.094 1.18-.219 2.32-.906 3.43-.7 1.121-1.844 2.273-3.426 3.48-1.055.75-1.75 1.235-2.078 1.47-.328.222-.656.456-.992.698-.336.235-1.04.73-2.094 1.48q.956 1.27 1.652 1.708c.473.289 1.012.414 1.63.36q1.078-.097 2.199-.661c.738-.375 1.492-.86 2.25-1.441.761-.59 1.46-1.168 2.101-1.723.637-.563 1.344-1.164 2.117-1.828q-.07.738.043 2.25a266 266 0 0 1-3.433 3.558 31.5 31.5 0 0 1-3.637 3.211c-1.215.907-2.371 1.403-3.484 1.5a4 4 0 0 1-2.243-.46 8.3 8.3 0 0 1-2.007-1.512 21 21 0 0 1-1.747-2.004c-.535-.696-1.039-1.371-1.535-2.028-.601.747-1.043 1.356-1.336 1.82-.293.462-.625 1.095-.992 1.91-.472 1.122-1.008 1.712-1.594 1.763q-1.755.145-2.351-5.68a17 17 0 0 1-.035-.621q-1.078 1.101-2.52 2.543c-1.215 1.222-2.414 2.277-3.597 3.156-1.176.875-2.274 1.363-3.27 1.461q-2.01.195-3.375-1.426c-.898-1.078-1.504-2.691-1.79-4.84-.038-.425-.05-.863-.038-1.3q-.816.74-1.742 1.586a51 51 0 0 1-3.38 2.832 23.6 23.6 0 0 1-3.378 2.168c-1.098.566-2.152.875-3.164.918q-1.464.064-2.36-.915-.885-.973-.949-2.75c-.074-1.835.574-4.257 1.934-7.246-2.262 2.106-4.297 4.043-6.633 6.106a39 39 0 0 1-4.203 3.246c-1.379.918-2.563 1.375-3.527 1.375q-.915 0-1.594-.914-.675-.904-.676-1.938c0-.785.172-1.73.512-2.816.343-1.09.867-2.367 1.55-3.848-.828.742-2.007 1.805-3.542 3.18-1.532 1.363-2.958 2.54-4.27 3.512-1.328.965-2.328 1.449-3.016 1.449-.718 0-1.402-.39-2.062-1.172-.649-.781-1.192-1.691-1.633-2.71l-.039-.095c-1.453.84-3.71 2.055-6.91 3.551-2.559 1.195-5.508 1.856-8.11 2.223q-.47.158-.964.312a32 32 0 0 1-4.43 1.07c-1.387.243-2.8.356-4.246.356-3.035 0-5.504-.625-7.399-1.883C5.172 46.48 4.22 44.855 4.22 42.86c0-.968.226-1.988.676-3.039.453-1.062.992-2.07 1.613-3.039a54 54 0 0 1 2.328-3.234q1.4-1.798 1.973-2.527-2.445-.095-3.75-.688c-.875-.395-1.32-.918-1.32-1.55 0-.657.406-1.196 1.199-1.657.796-.445 1.78-.79 2.94-1.04a40 40 0 0 1 3.321-.55c1.059-.113 1.875-.207 2.446-.27a174 174 0 0 0 2.66-2.863 37 37 0 0 1 3.332-3.191c1.11-.938 2.23-1.676 3.37-2.227 1.13-.543 2.298-.824 3.509-.824.382 0 .578.125.578.363q-.001.553-1.414 2.301a274 274 0 0 1-4.34 5.192q4.36-.574 6.656-1.164c1.527-.395 3.184-1 4.992-1.813 1.399-.746 2.559-1.547 3.469-2.402.914-.852 1.367-1.602 1.367-2.227 0-.875-.48-1.55-1.453-2.027q-1.461-.717-4.07-.719c-3.23 0-6.375.332-9.461.988-3.074.668-6.375 1.621-9.883 2.883.461.363.688.668.688.883 0 .426-.266.773-.805 1.012-.531.238-1.418.488-2.645.726-1.226.25-2.199.489-2.906.739-.363.117-.934.343-1.703.668-.766.32-1.473.59-2.102.789-.629.207-1.168.312-1.609.312q-1.67.002-1.672-1.625c0-.383.07-.715.195-.996.137-.293.512-.914 1.13-1.895 1.23-1.976 2.195-3.378 2.89-4.222S7.98 12.375 8.992 11.8c1.024-.57 2.496-1.153 4.43-1.77C21.059 7.61 27.699 6.402 33.34 6.402c2.336 0 4.363.301 6.062.907 1.7.593 3.016 1.445 3.95 2.539.941 1.101 1.414 2.37 1.414 3.816m51.593 7.348c.051.562-.015 1.133-.18 1.726a6.5 6.5 0 0 1-.757 1.66 4.9 4.9 0 0 1-1.195 1.282c-.457.355-.922.547-1.399.593q-1.022.101-1.668-.53c-.433-.423-.687-1.02-.754-1.802q-.088-1.021.528-2.101a5.35 5.35 0 0 1 1.605-1.75c.672-.457 1.332-.719 2-.781.496-.051.91.086 1.242.398q.506.465.578 1.305" style="stroke:none;fill-rule:evenodd;fill:#b9083d;fill-opacity:1"/><path d="m14.664 25.375-1.832 2.863s-.652.711-.863 1.36c-.207.648-.754 1.273-1.524 1.394q-.022.004-.039.008.198.01.403.02-.529.675-1.754 2.246c0 .015-.004.035-.004.054-.004.453-.305.715-.73.903Q7.27 35.62 6.507 36.78a20.6 20.6 0 0 0-1.613 3.04c-.45 1.05-.676 2.07-.676 3.038 0 1.996.953 3.621 2.847 4.88q.85.56 1.844.952c2.371-2.125 4.621-4.433 5.586-6.414l.066-.14a7 7 0 0 1-1.523-.64c-1.16-.688-1.738-1.552-1.738-2.614 0-.508.304-1.188.926-2.04.605-.85 1.421-1.84 2.445-2.945 1.012-1.113 1.66-1.82 1.926-2.12.254.038 1.195.148 2.812.34.52-.829 1.156-1.845 1.887-2.997l-2.223-.328 1.059-1.012q1.029-.205 2.305-.468c.683-1.09 1.421-2.258 2.19-3.473q-.62.087-1.288.176a274 274 0 0 0 4.34-5.192c.273-.332.504-.637.695-.906l.543-.855c.117-.231.176-.407.176-.54 0-.238-.196-.363-.578-.363-1.211 0-2.38.281-3.508.824-1.14.551-2.262 1.29-3.371 2.227a37 37 0 0 0-3.332 3.191 174 174 0 0 1-2.66 2.864q-.406.042-.98.109M26.445 6.93l-5.562 8.707a69 69 0 0 1 3.957-.985 46 46 0 0 1 6.156-.87c1.746-2.75 3.36-5.302 4.613-7.274a23 23 0 0 0-2.27-.106c-2.151 0-4.452.176-6.894.528" style="stroke:none;fill-rule:evenodd;fill:#1b1918;fill-opacity:1"/><path d="M8.348 35.605c1.894.625 2.382 3.282 1.09 5.93-1.051 2.153-2.954 3.637-4.645 3.79a5.3 5.3 0 0 1-.574-2.466c0-.968.226-1.988.676-3.039.453-1.062.992-2.07 1.613-3.039q.404-.62.894-1.304.493-.019.946.128M13.563 34.477s-2.29 1.675-2.395 1.859c-.11.184-.148.582.062.613.157.02 1.153-.597 1.727-1.074q.229-.282.48-.582c.145-.379.126-.816.126-.816" style="stroke:none;fill-rule:evenodd;fill:#1b1918;fill-opacity:1"/><g clip-path="url(#a)"><path d="M38.145 2.512S35.937.652 34.062.222c-1.878-.433-3.277-.09-3.277-.09L12.832 28.239s-.652.711-.863 1.36c-.207.648-.754 1.273-1.524 1.394s-1.383 1.64-1.394 2.328c-.008.684-.672.926-1.442 1.137-.773.211-5.043 1.496-6.293 6.414-1.253 4.914.579 11.477.579 11.477l-.012 1.007s-2.02 2.137-1.875 3.122c.144.988.84 1.101.84 1.101s-.512-.844.64-2.437c1.157-1.598 10.711-8.157 13.008-12.864 2.293-4.703 1.738-4.968 3.664-8.144S38.145 2.512 38.145 2.512" style="stroke:none;fill-rule:evenodd;fill:#fd0;fill-opacity:1"/></g><path d="M8.348 35.605c1.894.625 2.382 3.282 1.09 5.93-2.09 4.278-6.833 5.2-7.516 1.465-.684-3.734 3.371-8.402 6.426-7.395" style="stroke:none;fill-rule:evenodd;fill:#4e2b16;fill-opacity:1"/><path d="m35.898 6.535-3.546 7.172a45 45 0 0 0-7.512.945 71 71 0 0 0-5.313 1.38l3.371-8.489q5.696-1.141 10.442-1.14c.898 0 1.754.046 2.558.132M141.047 31.984a43 43 0 0 0-5.168 1.778 29.6 29.6 0 0 0-4.723 2.508c-1.008.632-1.68 1.238-2.027 1.824-.352.593-.524 1.406-.524 2.453 0 .71.254 1.07.77 1.07.703 0 1.844-.601 3.422-1.793a56 56 0 0 0 4.789-4.164q2.433-2.361 3.46-3.676M176 40.902c-.277.22-1.04.899-2.285 2.02-1.238 1.11-2.313 1.98-3.215 2.59-.902.62-1.746.941-2.535.972q-1.175.05-2.012-.863-.833-.913-.887-2.277-.054-1.279.473-2.574c.348-.86.774-1.649 1.27-2.344.5-.7 1.148-1.555 1.925-2.555l-4.675 1.219c-.813.945-1.457 1.652-1.946 2.137-.492.496-1.324 1.27-2.496 2.336v-.036q-1.1.751-2.664 1.778a24 24 0 0 1-3.2 1.82c-1.023.477-1.937.68-2.718.605q-1.572-.151-2.406-1.558c-.512-.883-.762-2.074-.727-3.586q-1.132.965-2.433 2.078a35 35 0 0 1-3.692 2.758q-1.823 1.167-3.101 1.168-.803.001-1.403-.778c-.394-.511-.593-1.066-.593-1.648 0-.664.152-1.469.453-2.394.3-.926.762-2.012 1.363-3.27l-3.117 2.703a53 53 0 0 1-3.754 2.984c-1.164.82-2.047 1.235-2.648 1.235q-.948.001-1.813-1a9.5 9.5 0 0 1-1.437-2.3c-.387-.88-.633-1.657-.743-2.34 0-.981.032-1.704.094-2.157.36-1.145 1.223-2.32 2.61-3.547 1.386-1.219 3.039-2.351 4.968-3.398 1.922-1.047 3.785-1.867 5.578-2.477q2.694-.902 4.438-.902c1.156 0 2.086.586 2.758 1.762.125.253.191.414.191.472 0 .242-.098.445-.297.625a2.2 2.2 0 0 1-.703.414c-.277.106-.516.184-.723.25.899.406 1.348 1.031 1.348 1.852 0 .43-.168.883-.488 1.355-.328.477-.86 1.176-1.61 2.11q-1.13 1.385-1.617 2.183a3.1 3.1 0 0 0-.484 1.653c0 .445.14.796.445 1.054.29.258.649.399 1.082.399q.633-.001 1.207-.242.582-.236 1.52-.903.874-.62 3.183-2.383.357-.942.93-1.902 1.313-2.203 3.27-3.574 1.95-1.366 3.937-1.18c.457.043.816.192 1.09.445.27.254.394.551.363.891-.047.516-.449 1.164-1.195 1.961-.742.785-1.633 1.59-2.656 2.414-1.032.832-1.86 1.504-2.493 2.02-.25.347-.382.675-.41.972-.054.63.11 1.137.493 1.531q.584.591 1.695.696c.75.074 1.574-.082 2.484-.465 1.836-.758 3.61-1.762 4.973-3.223q.324-.352.93-1.152c-.422-.027-.72-.117-.872-.266-.156-.16-.242-.449-.261-.879q-.04-1.165.86-2.664c.605-1 1.315-1.87 2.12-2.605.809-.73 1.461-1.11 1.988-1.129q.306-.012.586.27a.97.97 0 0 1 .293.64q.011.355-.23.957l5.098-.902a2.4 2.4 0 0 0 .37-.059c.15-.035.22-.054.22-.054.468-.02.902.238 1.308.761q.603.78.645 1.832c.02.473-.137.922-.48 1.348-.345.43-.927 1.062-1.75 1.922q-1.231 1.275-1.864 2.285-.627 1.019-.586 2.102c.031.808.445 1.203 1.238 1.167q.598-.023 1.29-.324c.468-.199.976-.492 1.53-.86a21 21 0 0 0 1.41-1.026q.585-.464 1.118-.864Zm-13.73-13.601c-.04.426-.168.844-.375 1.258q-.323.621-.81 1.125a3.7 3.7 0 0 1-1.097.78c-.398.196-.785.27-1.16.235q-.798-.075-1.21-.644-.412-.564-.337-1.45c.047-.515.281-1.015.696-1.488.41-.469.906-.828 1.476-1.07.574-.238 1.121-.336 1.645-.285q.578.059.906.48.324.42.266 1.059" style="stroke:none;fill-rule:evenodd;fill:#b9083d;fill-opacity:1"/></svg>