<?xml version="1.0" encoding="UTF-8"?>
<svg xmlns="http://www.w3.org/2000/svg" xmlns:xlink="http://www.w3.org/1999/xlink" width="176pt" height="23.5pt" viewBox="0 0 176 23.5" version="1.1">
<defs>
<clipPath id="clip1">
  <path d="M 0 0 L 17 0 L 17 23.5 L 0 23.5 Z M 0 0 "/>
</clipPath>
<clipPath id="clip2">
  <path d="M 10 13 L 18 13 L 18 23.5 L 10 23.5 Z M 10 13 "/>
</clipPath>
<clipPath id="clip3">
  <path d="M 11 13 L 27 13 L 27 23.5 L 11 23.5 Z M 11 13 "/>
</clipPath>
<clipPath id="clip4">
  <path d="M 28 3 L 39 3 L 39 23.5 L 28 23.5 Z M 28 3 "/>
</clipPath>
<clipPath id="clip5">
  <path d="M 43 8 L 59 8 L 59 23.5 L 43 23.5 Z M 43 8 "/>
</clipPath>
</defs>
<g id="surface1">
<g clip-path="url(#clip1)" clip-rule="nonzero">
<path style=" stroke:none;fill-rule:nonzero;fill:rgb(15.985107%,34.815979%,66.333008%);fill-opacity:1;" d="M 14.9375 19.554688 C 14.9375 18.332031 13.425781 18.046875 13.425781 16.535156 C 13.425781 15.023438 16.628906 13.164062 16.628906 13.164062 L 16.710938 13.25 L 3.609375 0.00390625 L 0 0.00390625 L 0 23.5 L 10.320312 23.5 C 10.320312 23.5 14.9375 21.820312 14.9375 19.554688 "/>
</g>
<g clip-path="url(#clip2)" clip-rule="nonzero">
<path style=" stroke:none;fill-rule:nonzero;fill:rgb(96.624756%,90.097046%,15.322876%);fill-opacity:1;" d="M 10.335938 23.5 C 10.335938 23.5 14.953125 21.820312 14.953125 19.554688 C 14.953125 18.332031 13.441406 18.046875 13.441406 16.535156 C 13.441406 15.023438 16.644531 13.164062 16.644531 13.164062 L 17.183594 13.714844 C 17.183594 13.714844 15.457031 14.253906 15.457031 16.199219 C 15.457031 17.457031 17.636719 17.039062 17.636719 18.800781 C 17.636719 20.5625 11.847656 23.5 11.847656 23.5 L 10.335938 23.5 "/>
</g>
<path style=" stroke:none;fill-rule:nonzero;fill:rgb(100%,100%,100%);fill-opacity:1;" d="M 3.355469 4.863281 L 3.859375 6.675781 L 5.398438 7.453125 L 4.304688 7.671875 L 4.824219 9.652344 L 3.445312 7.949219 L 2.308594 8.648438 L 2.601562 7.257812 L 1.488281 5.457031 L 2.789062 6.140625 L 3.355469 4.863281 "/>
<path style=" stroke:none;fill-rule:nonzero;fill:rgb(100%,100%,100%);fill-opacity:1;" d="M 10.964844 9.316406 L 11.226562 10.253906 L 12.023438 10.65625 L 11.457031 10.769531 L 11.722656 11.792969 L 11.011719 10.910156 L 10.421875 11.273438 L 10.574219 10.554688 L 10 9.621094 L 10.671875 9.976562 L 10.964844 9.316406 "/>
<path style=" stroke:none;fill-rule:nonzero;fill:rgb(100%,100%,100%);fill-opacity:1;" d="M 8.023438 10.925781 L 8.359375 12.140625 L 9.394531 12.664062 L 8.660156 12.8125 L 9.007812 14.144531 L 8.082031 12.996094 L 7.316406 13.464844 L 7.515625 12.535156 L 6.769531 11.324219 L 7.640625 11.78125 L 8.023438 10.925781 "/>
<path style=" stroke:none;fill-rule:nonzero;fill:rgb(100%,100%,100%);fill-opacity:1;" d="M 4.027344 13.167969 L 4.472656 14.539062 L 5.910156 14.539062 L 4.746094 15.382812 L 5.191406 16.753906 L 4.027344 15.90625 L 2.863281 16.753906 L 3.308594 15.382812 L 2.144531 14.539062 L 3.582031 14.539062 L 4.027344 13.167969 "/>
<path style=" stroke:none;fill-rule:nonzero;fill:rgb(100%,100%,100%);fill-opacity:1;" d="M 11.132812 14.648438 L 11.25 15.496094 L 12.097656 15.605469 L 11.332031 15.980469 L 11.488281 16.824219 L 10.894531 16.207031 L 10.144531 16.617188 L 10.542969 15.863281 L 9.921875 15.273438 L 10.765625 15.421875 L 11.132812 14.648438 "/>
<g clip-path="url(#clip3)" clip-rule="nonzero">
<path style=" stroke:none;fill-rule:nonzero;fill:rgb(17.233276%,63.122559%,26.817322%);fill-opacity:1;" d="M 17.050781 13.59375 L 17.171875 13.714844 C 17.171875 13.714844 15.441406 14.253906 15.441406 16.199219 C 15.441406 17.457031 17.621094 17.039062 17.621094 18.800781 C 17.621094 20.5625 11.832031 23.5 11.832031 23.5 L 26.851562 23.5 L 17.050781 13.59375 "/>
</g>
<g clip-path="url(#clip4)" clip-rule="nonzero">
<path style=" stroke:none;fill-rule:nonzero;fill:rgb(7.514954%,6.950378%,6.367493%);fill-opacity:1;" d="M 37.855469 4.65625 C 37.53125 4.609375 37.164062 4.558594 36.761719 4.507812 C 36.359375 4.453125 35.996094 4.429688 35.671875 4.429688 C 35.445312 4.429688 35.210938 4.441406 34.960938 4.464844 C 34.714844 4.488281 34.519531 4.550781 34.378906 4.65625 C 34.308594 4.710938 34.246094 4.835938 34.1875 5.023438 C 34.132812 5.214844 34.085938 5.445312 34.050781 5.714844 C 34.015625 5.984375 33.988281 6.28125 33.976562 6.601562 C 33.960938 6.925781 33.957031 7.25 33.957031 7.582031 L 33.957031 8.890625 L 37.242188 8.890625 L 37.050781 9.925781 C 36.695312 9.945312 36.335938 9.96875 35.96875 9.996094 C 35.65625 10.015625 35.324219 10.035156 34.960938 10.054688 C 34.601562 10.074219 34.265625 10.09375 33.957031 10.113281 L 33.957031 23.5 L 30.246094 23.5 L 30.246094 10.113281 C 30.132812 10.113281 29.964844 10.109375 29.738281 10.105469 C 29.511719 10.101562 29.277344 10.097656 29.039062 10.097656 L 28.191406 10.097656 L 28.359375 9.386719 C 28.628906 9.320312 28.882812 9.261719 29.121094 9.214844 C 29.320312 9.167969 29.527344 9.121094 29.738281 9.082031 C 29.949219 9.039062 30.117188 9.011719 30.246094 9.003906 L 30.246094 7.40625 C 30.246094 6.855469 30.425781 6.320312 30.785156 5.796875 C 31.148438 5.277344 31.617188 4.808594 32.195312 4.394531 C 32.777344 3.980469 33.433594 3.648438 34.167969 3.398438 C 34.902344 3.148438 35.644531 3.019531 36.394531 3.019531 C 36.703125 3.019531 37.050781 3.03125 37.441406 3.054688 C 37.832031 3.082031 38.171875 3.105469 38.46875 3.136719 L 37.855469 4.65625 "/>
</g>
<path style=" stroke:none;fill-rule:nonzero;fill:rgb(7.514954%,6.950378%,6.367493%);fill-opacity:1;" d="M 43.324219 17.644531 L 39.613281 17.644531 L 39.613281 3.289062 L 43.324219 2.78125 L 43.324219 17.644531 "/>
<g clip-path="url(#clip5)" clip-rule="nonzero">
<path style=" stroke:none;fill-rule:nonzero;fill:rgb(7.514954%,6.950378%,6.367493%);fill-opacity:1;" d="M 49.234375 21.894531 C 48.570312 22.445312 47.910156 22.847656 47.253906 23.109375 C 46.597656 23.371094 45.929688 23.5 45.253906 23.5 C 44.898438 23.5 44.519531 23.480469 44.105469 23.445312 C 43.699219 23.40625 43.371094 23.359375 43.132812 23.300781 L 43.132812 22.460938 L 43.40625 22.460938 C 43.859375 22.460938 44.382812 22.378906 44.976562 22.207031 C 45.570312 22.035156 46.136719 21.789062 46.671875 21.46875 C 46.96875 21.296875 47.316406 21.074219 47.710938 20.792969 C 48.105469 20.511719 48.515625 20.207031 48.941406 19.875 C 49.363281 19.542969 49.777344 19.203125 50.179688 18.851562 C 50.582031 18.503906 50.945312 18.164062 51.269531 17.84375 C 50.761719 16.8125 50.261719 15.851562 49.765625 14.964844 C 49.273438 14.082031 48.8125 13.296875 48.390625 12.621094 C 47.964844 11.945312 47.585938 11.390625 47.253906 10.957031 C 46.921875 10.527344 46.65625 10.246094 46.460938 10.113281 C 46.277344 9.988281 46.085938 9.910156 45.886719 9.878906 C 45.691406 9.84375 45.535156 9.828125 45.421875 9.828125 L 45.316406 9.828125 L 45.316406 9.003906 C 45.46875 8.976562 45.671875 8.949219 45.917969 8.925781 C 46.167969 8.902344 46.425781 8.882812 46.691406 8.863281 C 46.960938 8.84375 47.222656 8.828125 47.476562 8.8125 C 47.730469 8.796875 47.945312 8.789062 48.113281 8.789062 C 48.480469 8.789062 48.8125 8.820312 49.109375 8.882812 C 49.40625 8.945312 49.652344 9.050781 49.851562 9.203125 C 50.105469 9.375 50.382812 9.652344 50.675781 10.042969 C 50.972656 10.429688 51.28125 10.898438 51.597656 11.441406 C 51.917969 11.984375 52.242188 12.59375 52.574219 13.261719 C 52.90625 13.929688 53.226562 14.632812 53.539062 15.371094 L 53.601562 15.371094 C 54.027344 14.917969 54.367188 14.484375 54.628906 14.078125 C 54.890625 13.671875 55.101562 13.269531 55.253906 12.871094 C 55.410156 12.472656 55.515625 12.074219 55.574219 11.675781 C 55.628906 11.277344 55.660156 10.855469 55.660156 10.410156 C 55.660156 10.289062 55.648438 10.15625 55.625 10.019531 C 55.605469 9.882812 55.582031 9.75 55.550781 9.621094 C 55.523438 9.496094 55.492188 9.378906 55.457031 9.273438 C 55.421875 9.167969 55.390625 9.09375 55.363281 9.046875 L 58.242188 8.707031 C 58.316406 8.839844 58.378906 9.035156 58.433594 9.296875 C 58.492188 9.554688 58.519531 9.804688 58.519531 10.042969 C 58.519531 10.667969 58.371094 11.300781 58.074219 11.9375 C 57.777344 12.578125 57.394531 13.214844 56.917969 13.851562 C 56.445312 14.484375 55.921875 15.113281 55.351562 15.738281 C 54.777344 16.367188 54.21875 16.976562 53.664062 17.574219 C 53.074219 18.1875 52.582031 18.703125 52.191406 19.117188 C 51.804688 19.527344 51.453125 19.886719 51.144531 20.1875 C 50.832031 20.492188 50.53125 20.773438 50.242188 21.035156 C 49.953125 21.292969 49.617188 21.582031 49.234375 21.894531 "/>
</g>
<path style=" stroke:none;fill-rule:nonzero;fill:rgb(7.514954%,6.950378%,6.367493%);fill-opacity:1;" d="M 70.070312 14.761719 C 70.070312 15.253906 69.917969 15.65625 69.613281 15.976562 C 69.308594 16.292969 68.953125 16.570312 68.542969 16.804688 C 68.332031 16.929688 68.105469 17.050781 67.867188 17.175781 C 67.625 17.300781 67.359375 17.40625 67.0625 17.503906 C 66.765625 17.597656 66.425781 17.671875 66.042969 17.730469 C 65.660156 17.785156 65.21875 17.816406 64.707031 17.816406 C 63.789062 17.816406 62.953125 17.75 62.195312 17.625 C 61.441406 17.496094 60.730469 17.289062 60.066406 17.003906 L 60.976562 15.371094 C 61.261719 15.484375 61.558594 15.613281 61.878906 15.753906 C 62.195312 15.898438 62.535156 16.027344 62.894531 16.144531 C 63.257812 16.265625 63.632812 16.363281 64.03125 16.445312 C 64.425781 16.523438 64.828125 16.566406 65.238281 16.566406 C 65.519531 16.566406 65.777344 16.550781 66.011719 16.523438 C 66.246094 16.492188 66.4375 16.441406 66.59375 16.367188 C 66.722656 16.300781 66.816406 16.179688 66.878906 16.003906 C 66.945312 15.828125 66.976562 15.617188 66.976562 15.371094 C 66.976562 15.085938 66.816406 14.863281 66.5 14.695312 C 66.179688 14.53125 65.78125 14.386719 65.300781 14.261719 C 64.820312 14.140625 64.304688 14.015625 63.753906 13.894531 C 63.203125 13.769531 62.6875 13.605469 62.207031 13.402344 C 61.726562 13.199219 61.328125 12.9375 61.011719 12.621094 C 60.691406 12.304688 60.53125 11.886719 60.53125 11.363281 C 60.53125 11.023438 60.6875 10.683594 61 10.347656 C 61.308594 10.011719 61.648438 9.734375 62.015625 9.515625 C 62.46875 9.242188 62.96875 9.039062 63.519531 8.90625 C 64.074219 8.773438 64.707031 8.707031 65.429688 8.707031 C 66.035156 8.707031 66.679688 8.730469 67.359375 8.777344 C 68.035156 8.824219 68.671875 8.875 69.265625 8.933594 L 68.863281 10.667969 C 68.566406 10.601562 68.242188 10.535156 67.898438 10.46875 C 67.550781 10.402344 67.210938 10.339844 66.871094 10.28125 C 66.53125 10.226562 66.203125 10.179688 65.882812 10.148438 C 65.566406 10.113281 65.28125 10.097656 65.027344 10.097656 C 64.699219 10.097656 64.453125 10.109375 64.285156 10.132812 C 64.113281 10.15625 63.980469 10.1875 63.882812 10.226562 C 63.796875 10.265625 63.730469 10.34375 63.679688 10.46875 C 63.628906 10.589844 63.605469 10.71875 63.605469 10.851562 C 63.605469 11.117188 63.765625 11.324219 64.082031 11.476562 C 64.402344 11.628906 64.800781 11.765625 65.28125 11.882812 C 65.761719 12 66.28125 12.125 66.839844 12.25 C 67.394531 12.378906 67.914062 12.542969 68.394531 12.742188 C 68.875 12.941406 69.277344 13.199219 69.59375 13.515625 C 69.910156 13.832031 70.070312 14.25 70.070312 14.761719 "/>
<path style=" stroke:none;fill-rule:nonzero;fill:rgb(7.514954%,6.950378%,6.367493%);fill-opacity:1;" d="M 76.027344 13.253906 C 76.027344 14.398438 76.230469 15.242188 76.640625 15.78125 C 77.050781 16.324219 77.734375 16.59375 78.695312 16.59375 C 79.0625 16.59375 79.410156 16.570312 79.734375 16.53125 C 80.058594 16.488281 80.328125 16.421875 80.539062 16.335938 C 80.679688 16.289062 80.804688 16.175781 80.910156 15.988281 C 81.015625 15.804688 81.109375 15.574219 81.1875 15.300781 C 81.265625 15.023438 81.320312 14.710938 81.355469 14.363281 C 81.390625 14.011719 81.410156 13.648438 81.410156 13.269531 C 81.410156 12.148438 81.199219 11.3125 80.785156 10.757812 C 80.367188 10.207031 79.691406 9.929688 78.761719 9.929688 C 78.40625 9.929688 78.058594 9.953125 77.722656 10 C 77.382812 10.046875 77.085938 10.121094 76.832031 10.226562 C 76.691406 10.28125 76.566406 10.402344 76.460938 10.582031 C 76.355469 10.761719 76.269531 10.988281 76.207031 11.265625 C 76.140625 11.539062 76.097656 11.847656 76.066406 12.1875 C 76.039062 12.527344 76.027344 12.882812 76.027344 13.253906 Z M 78.71875 17.816406 C 76.597656 17.816406 74.976562 17.429688 73.851562 16.65625 C 72.730469 15.886719 72.167969 14.753906 72.167969 13.269531 C 72.167969 12.566406 72.304688 11.933594 72.582031 11.371094 C 72.855469 10.808594 73.269531 10.328125 73.820312 9.933594 C 74.371094 9.542969 75.058594 9.238281 75.878906 9.027344 C 76.695312 8.8125 77.644531 8.707031 78.71875 8.707031 C 80.878906 8.707031 82.511719 9.097656 83.613281 9.886719 C 84.714844 10.671875 85.265625 11.789062 85.265625 13.238281 C 85.265625 13.949219 85.128906 14.585938 84.851562 15.152344 C 84.578125 15.714844 84.164062 16.191406 83.613281 16.585938 C 83.0625 16.980469 82.378906 17.28125 81.558594 17.496094 C 80.738281 17.707031 79.789062 17.816406 78.71875 17.816406 "/>
<path style=" stroke:none;fill-rule:nonzero;fill:rgb(7.514954%,6.950378%,6.367493%);fill-opacity:1;" d="M 92.261719 17.644531 L 88.550781 17.644531 L 88.550781 3.289062 L 92.261719 2.78125 L 92.261719 17.644531 "/>
<path style=" stroke:none;fill-rule:nonzero;fill:rgb(7.514954%,6.950378%,6.367493%);fill-opacity:1;" d="M 99.382812 13.253906 C 99.382812 14.398438 99.585938 15.242188 99.996094 15.78125 C 100.40625 16.324219 101.089844 16.59375 102.054688 16.59375 C 102.421875 16.59375 102.765625 16.570312 103.089844 16.53125 C 103.414062 16.488281 103.683594 16.421875 103.898438 16.335938 C 104.039062 16.289062 104.160156 16.175781 104.265625 15.988281 C 104.371094 15.804688 104.464844 15.574219 104.542969 15.300781 C 104.621094 15.023438 104.675781 14.710938 104.710938 14.363281 C 104.746094 14.011719 104.765625 13.648438 104.765625 13.269531 C 104.765625 12.148438 104.558594 11.3125 104.140625 10.757812 C 103.722656 10.207031 103.050781 9.929688 102.117188 9.929688 C 101.761719 9.929688 101.417969 9.953125 101.078125 10 C 100.738281 10.046875 100.441406 10.121094 100.1875 10.226562 C 100.046875 10.28125 99.921875 10.402344 99.816406 10.582031 C 99.710938 10.761719 99.625 10.988281 99.5625 11.265625 C 99.5 11.539062 99.453125 11.847656 99.425781 12.1875 C 99.394531 12.527344 99.382812 12.882812 99.382812 13.253906 Z M 102.074219 17.816406 C 99.953125 17.816406 98.332031 17.429688 97.210938 16.65625 C 96.085938 15.886719 95.523438 14.753906 95.523438 13.269531 C 95.523438 12.566406 95.664062 11.933594 95.9375 11.371094 C 96.214844 10.808594 96.628906 10.328125 97.175781 9.933594 C 97.730469 9.542969 98.414062 9.238281 99.234375 9.027344 C 100.054688 8.8125 101 8.707031 102.074219 8.707031 C 104.234375 8.707031 105.867188 9.097656 106.96875 9.886719 C 108.070312 10.671875 108.621094 11.789062 108.621094 13.238281 C 108.621094 13.949219 108.484375 14.585938 108.210938 15.152344 C 107.933594 15.714844 107.519531 16.191406 106.96875 16.585938 C 106.417969 16.980469 105.734375 17.28125 104.914062 17.496094 C 104.09375 17.707031 103.148438 17.816406 102.074219 17.816406 "/>
<path style=" stroke:none;fill-rule:nonzero;fill:rgb(7.514954%,6.950378%,6.367493%);fill-opacity:1;" d="M 119.855469 17.644531 L 119.855469 11.777344 C 119.855469 11.253906 119.738281 10.871094 119.507812 10.625 C 119.273438 10.378906 118.886719 10.253906 118.351562 10.253906 C 117.957031 10.253906 117.496094 10.328125 116.972656 10.476562 C 116.449219 10.621094 116 10.800781 115.617188 11.007812 L 115.617188 17.644531 L 111.90625 17.644531 L 111.90625 8.890625 L 115.214844 8.890625 L 115.53125 9.914062 L 115.574219 9.914062 C 115.828125 9.800781 116.128906 9.675781 116.476562 9.535156 C 116.820312 9.398438 117.191406 9.269531 117.589844 9.148438 C 117.984375 9.023438 118.398438 8.917969 118.828125 8.832031 C 119.257812 8.75 119.6875 8.707031 120.109375 8.707031 C 120.804688 8.707031 121.425781 8.816406 121.976562 9.03125 C 122.527344 9.25 122.941406 9.582031 123.226562 10.027344 C 123.492188 9.90625 123.820312 9.765625 124.199219 9.613281 C 124.582031 9.464844 124.992188 9.320312 125.429688 9.183594 C 125.867188 9.042969 126.3125 8.929688 126.765625 8.839844 C 127.21875 8.75 127.65625 8.707031 128.078125 8.707031 C 128.558594 8.707031 129.007812 8.761719 129.425781 8.867188 C 129.84375 8.976562 130.207031 9.140625 130.515625 9.351562 C 130.828125 9.566406 131.070312 9.832031 131.246094 10.15625 C 131.425781 10.476562 131.511719 10.855469 131.511719 11.292969 L 131.511719 17.644531 L 127.804688 17.644531 L 127.804688 11.777344 C 127.804688 11.253906 127.6875 10.871094 127.453125 10.625 C 127.222656 10.378906 126.835938 10.253906 126.300781 10.253906 C 125.902344 10.253906 125.445312 10.328125 124.921875 10.476562 C 124.398438 10.621094 123.945312 10.800781 123.566406 11.007812 L 123.566406 17.644531 L 119.855469 17.644531 "/>
<path style=" stroke:none;fill-rule:nonzero;fill:rgb(7.514954%,6.950378%,6.367493%);fill-opacity:1;" d="M 138.550781 13.253906 C 138.550781 14.398438 138.753906 15.242188 139.164062 15.78125 C 139.574219 16.324219 140.257812 16.59375 141.21875 16.59375 C 141.585938 16.59375 141.933594 16.570312 142.257812 16.53125 C 142.582031 16.488281 142.851562 16.421875 143.0625 16.335938 C 143.203125 16.289062 143.328125 16.175781 143.433594 15.988281 C 143.539062 15.804688 143.632812 15.574219 143.710938 15.300781 C 143.789062 15.023438 143.84375 14.710938 143.878906 14.363281 C 143.914062 14.011719 143.933594 13.648438 143.933594 13.269531 C 143.933594 12.148438 143.722656 11.3125 143.308594 10.757812 C 142.890625 10.207031 142.214844 9.929688 141.28125 9.929688 C 140.929688 9.929688 140.585938 9.953125 140.246094 10 C 139.90625 10.046875 139.609375 10.121094 139.355469 10.226562 C 139.214844 10.28125 139.089844 10.402344 138.984375 10.582031 C 138.878906 10.761719 138.792969 10.988281 138.730469 11.265625 C 138.664062 11.539062 138.621094 11.847656 138.589844 12.1875 C 138.5625 12.527344 138.550781 12.882812 138.550781 13.253906 Z M 141.242188 17.816406 C 139.121094 17.816406 137.5 17.429688 136.378906 16.65625 C 135.253906 15.886719 134.691406 14.753906 134.691406 13.269531 C 134.691406 12.566406 134.828125 11.933594 135.105469 11.371094 C 135.382812 10.808594 135.792969 10.328125 136.34375 9.933594 C 136.894531 9.542969 137.582031 9.238281 138.402344 9.027344 C 139.21875 8.8125 140.167969 8.707031 141.242188 8.707031 C 143.402344 8.707031 145.035156 9.097656 146.136719 9.886719 C 147.238281 10.671875 147.789062 11.789062 147.789062 13.238281 C 147.789062 13.949219 147.652344 14.585938 147.375 15.152344 C 147.101562 15.714844 146.6875 16.191406 146.136719 16.585938 C 145.585938 16.980469 144.898438 17.28125 144.082031 17.496094 C 143.261719 17.707031 142.3125 17.816406 141.242188 17.816406 "/>
<path style=" stroke:none;fill-rule:nonzero;fill:rgb(7.514954%,6.950378%,6.367493%);fill-opacity:1;" d="M 159.382812 17.644531 L 159.382812 11.777344 C 159.382812 11.253906 159.261719 10.871094 159.011719 10.625 C 158.765625 10.378906 158.34375 10.253906 157.75 10.253906 C 157.539062 10.253906 157.304688 10.273438 157.042969 10.3125 C 156.78125 10.347656 156.519531 10.402344 156.257812 10.476562 C 155.996094 10.546875 155.738281 10.628906 155.484375 10.71875 C 155.230469 10.808594 154.996094 10.902344 154.785156 11.007812 L 154.785156 17.644531 L 151.074219 17.644531 L 151.074219 8.890625 L 154.382812 8.890625 L 154.722656 9.914062 L 154.761719 9.914062 C 155.015625 9.800781 155.324219 9.675781 155.683594 9.535156 C 156.046875 9.398438 156.4375 9.269531 156.863281 9.148438 C 157.285156 9.023438 157.722656 8.917969 158.175781 8.832031 C 158.628906 8.75 159.074219 8.707031 159.511719 8.707031 C 160.003906 8.707031 160.46875 8.761719 160.898438 8.867188 C 161.328125 8.976562 161.707031 9.140625 162.03125 9.351562 C 162.359375 9.566406 162.617188 9.832031 162.804688 10.15625 C 162.996094 10.476562 163.09375 10.855469 163.09375 11.292969 L 163.09375 17.644531 L 159.382812 17.644531 "/>
<path style=" stroke:none;fill-rule:nonzero;fill:rgb(7.514954%,6.950378%,6.367493%);fill-opacity:1;" d="M 176 14.761719 C 176 15.253906 175.847656 15.65625 175.542969 15.976562 C 175.238281 16.292969 174.882812 16.570312 174.472656 16.804688 C 174.261719 16.929688 174.035156 17.050781 173.796875 17.175781 C 173.554688 17.300781 173.285156 17.40625 172.988281 17.503906 C 172.695312 17.597656 172.355469 17.671875 171.972656 17.730469 C 171.589844 17.785156 171.144531 17.816406 170.636719 17.816406 C 169.71875 17.816406 168.882812 17.75 168.125 17.625 C 167.371094 17.496094 166.660156 17.289062 165.996094 17.003906 L 166.90625 15.371094 C 167.191406 15.484375 167.488281 15.613281 167.808594 15.753906 C 168.125 15.898438 168.464844 16.027344 168.824219 16.144531 C 169.1875 16.265625 169.5625 16.363281 169.960938 16.445312 C 170.355469 16.523438 170.757812 16.566406 171.167969 16.566406 C 171.449219 16.566406 171.707031 16.550781 171.941406 16.523438 C 172.175781 16.492188 172.367188 16.441406 172.523438 16.367188 C 172.652344 16.300781 172.746094 16.179688 172.808594 16.003906 C 172.875 15.828125 172.90625 15.617188 172.90625 15.371094 C 172.90625 15.085938 172.746094 14.863281 172.429688 14.695312 C 172.109375 14.53125 171.710938 14.386719 171.230469 14.261719 C 170.75 14.140625 170.234375 14.015625 169.683594 13.894531 C 169.132812 13.769531 168.617188 13.605469 168.136719 13.402344 C 167.65625 13.199219 167.257812 12.9375 166.9375 12.621094 C 166.621094 12.304688 166.460938 11.886719 166.460938 11.363281 C 166.460938 11.023438 166.617188 10.683594 166.929688 10.347656 C 167.238281 10.011719 167.578125 9.734375 167.945312 9.515625 C 168.398438 9.242188 168.898438 9.039062 169.449219 8.90625 C 170.003906 8.773438 170.636719 8.707031 171.359375 8.707031 C 171.964844 8.707031 172.609375 8.730469 173.285156 8.777344 C 173.964844 8.824219 174.601562 8.875 175.195312 8.933594 L 174.792969 10.667969 C 174.496094 10.601562 174.175781 10.535156 173.828125 10.46875 C 173.480469 10.402344 173.140625 10.339844 172.800781 10.28125 C 172.460938 10.226562 172.132812 10.179688 171.8125 10.148438 C 171.496094 10.113281 171.210938 10.097656 170.957031 10.097656 C 170.628906 10.097656 170.382812 10.109375 170.214844 10.132812 C 170.042969 10.15625 169.910156 10.1875 169.8125 10.226562 C 169.726562 10.265625 169.660156 10.34375 169.609375 10.46875 C 169.558594 10.589844 169.535156 10.71875 169.535156 10.851562 C 169.535156 11.117188 169.695312 11.324219 170.011719 11.476562 C 170.328125 11.628906 170.730469 11.765625 171.210938 11.882812 C 171.691406 12 172.210938 12.125 172.769531 12.25 C 173.324219 12.378906 173.84375 12.542969 174.324219 12.742188 C 174.804688 12.941406 175.203125 13.199219 175.523438 13.515625 C 175.839844 13.832031 176 14.25 176 14.761719 "/>
</g>
</svg>
