<svg xmlns="http://www.w3.org/2000/svg" width="176pt" height="39.413" viewBox="0 0 176 29.56"><defs><clipPath id="a"><path d="M140 7h24v22.559h-24Zm0 0"/></clipPath></defs><path d="M4.242 2.074h5.344L5.344 23.891H0zM13.07 21.66h2.942q1.293 0 2.304-.281 1.002-.281 1.723-.774.716-.492 1.148-1.183c.286-.461.485-.957.586-1.488q.183-.92.059-1.704a2.55 2.55 0 0 0-.629-1.351q-.51-.569-1.441-.902t-2.38-.332H14.63Zm1.965-10.125h3.524q.854-.001 1.574-.265t1.277-.739q.55-.478.918-1.133.363-.654.516-1.437.168-.85-.004-1.559a2.5 2.5 0 0 0-.688-1.215c-.351-.34-.828-.605-1.441-.792q-.914-.282-2.242-.282H16.48Zm-3.52-9.46h9.36q1.892 0 3.387.398c.996.265 1.824.644 2.476 1.132q.981.733 1.41 1.762.43 1.028.184 2.29-.151.78-.45 1.437-.298.651-.792 1.234a7 7 0 0 1-1.246 1.113q-.751.534-1.79 1.063a6 6 0 0 1 1.618.816q.712.511 1.168 1.192c.3.453.512.957.625 1.508q.17.824-.012 1.761a6.04 6.04 0 0 1-1.05 2.39 7.9 7.9 0 0 1-2.055 1.938c-.832.551-1.79.985-2.864 1.305a12.3 12.3 0 0 1-3.472.477H7.273zM34.523 12.965q-.416 2.127-.093 3.75.322 1.628 1.172 2.723a5.44 5.44 0 0 0 2.128 1.667c.852.383 1.778.57 2.774.57.762 0 1.492-.132 2.207-.398a10 10 0 0 0 2.062-1.074 14 14 0 0 0 1.918-1.555q.92-.886 1.805-1.855l1.91 1.652a18 18 0 0 1-2.172 2.227 16.4 16.4 0 0 1-2.664 1.898q-1.436.825-3.03 1.32a11 11 0 0 1-3.259.493q-2.81-.001-5.023-.817-2.216-.817-3.653-2.316-1.436-1.496-1.988-3.605c-.367-1.407-.387-2.97-.05-4.68q.482-2.486 1.808-4.578a14.1 14.1 0 0 1 3.281-3.617q1.958-1.522 4.453-2.375 2.495-.85 5.301-.848c1.262 0 2.383.144 3.371.441q1.482.44 2.606 1.227A8 8 0 0 1 51.3 5.078c.531.719.969 1.512 1.308 2.371l-2.57 1.582a16 16 0 0 0-1.137-1.844 8 8 0 0 0-1.422-1.523 6.9 6.9 0 0 0-1.734-1.031 5.3 5.3 0 0 0-2.027-.383q-1.512 0-2.977.563a8.9 8.9 0 0 0-2.71 1.667q-1.256 1.109-2.177 2.73-.92 1.63-1.332 3.755" style="stroke:none;fill-rule:nonzero;fill:#4aaae4;fill-opacity:1"/><path d="M60.668 15.914h6.488l-1.328-6.96Zm9.16-14.101 4.203 22h-5.41l-1.113-5.883h-8.371l-4.399 5.883h-3.597l16.398-22zM81.805 2.398q.134-.503.46-.941.328-.433.778-.762A3.8 3.8 0 0 1 84.02.18a3.3 3.3 0 0 1 1.082-.184q.556.001.984.184.428.188.703.515.275.33.367.762.096.438-.043.941a2.7 2.7 0 0 1-.457.934 3.77 3.77 0 0 1-1.754 1.27 3.2 3.2 0 0 1-1.082.183c-.37 0-.699-.058-.984-.183a1.8 1.8 0 0 1-.703-.512 1.74 1.74 0 0 1-.367-.758 1.9 1.9 0 0 1 .039-.934m-1.407 6.07 5.286-1.363-4.473 16.708h-4.926zM90.234 23.813H85.31L89.66 7.578h4.926l-.324 1.207a11 11 0 0 1 2.156-1.336q1.108-.51 2.223-.511.668 0 1.203.175c.355.117.648.278.883.473q.35.294.496.687.146.398.023.848a2.4 2.4 0 0 1-.383.8 2.7 2.7 0 0 1-.625.614q-.363.252-.785.395c-.285.093-.57.14-.863.14-.39 0-.695-.058-.91-.183a3.7 3.7 0 0 1-.57-.403 6 6 0 0 0-.524-.402q-.269-.187-.742-.187-.232 0-.535.187a3.6 3.6 0 0 0-.633.504q-.328.316-.66.723c-.227.27-.442.543-.653.824zM106.918 7.273l1.64 9.817 6.891-9.918h.977l1.68 9.785 6.746-9.684h3.21l-11.792 16.91H114l-1.36-8.152-5.68 8.153h-2.42l-2.798-16.91zM135.809 15.426c-.524.203-1.067.433-1.621.695q-.84.397-1.555.875-.72.481-1.23 1.016-.515.538-.673 1.129a2.9 2.9 0 0 0-.109.882q.018.412.14.723.131.31.348.496a.76.76 0 0 0 .504.184c.395 0 .832-.125 1.32-.371a19 19 0 0 0 1.622-.942Zm2.71 8.387h-4.957l.348-1.293c-.332.222-.652.433-.969.628a6.6 6.6 0 0 1-1.011.512c-.36.149-.75.258-1.172.336-.426.078-.91.117-1.461.117q-1.125 0-1.934-.316c-.535-.215-.965-.508-1.281-.883a2.7 2.7 0 0 1-.61-1.336q-.129-.773.11-1.664a5 5 0 0 1 .805-1.691c.37-.496.812-.95 1.332-1.352a11 11 0 0 1 1.734-1.094 21 21 0 0 1 2.012-.882 34 34 0 0 1 2.14-.723q1.1-.328 2.176-.645l.57-.117.43-1.613q.21-.775.203-1.32t-.199-.891a1.1 1.1 0 0 0-.555-.496 2.2 2.2 0 0 0-.851-.152c-.39 0-.734.05-1.024.152q-.433.153-.75.418c-.21.18-.382.387-.515.613a3 3 0 0 0-.313.75c-.082.3-.191.598-.328.883a2.52 2.52 0 0 1-1.375 1.277q-.491.194-1.164.192-.52.002-.902-.16a1.5 1.5 0 0 1-.617-.434 1.4 1.4 0 0 1-.293-.664 1.9 1.9 0 0 1 .054-.824q.225-.843.989-1.563.765-.726 1.882-1.254c.747-.351 1.57-.629 2.48-.824a13.2 13.2 0 0 1 2.778-.293q1.746-.002 2.926.313 1.173.31 1.844.89.666.576.836 1.402.165.822-.106 1.833z" style="stroke:none;fill-rule:nonzero;fill:#2e3393;fill-opacity:1"/><g clip-path="url(#a)"><path d="M145.371 7.273h5.211l2.457 10.02 7.227-10.02h3.476L150.73 25.34q-.69.959-1.582 1.742-.89.779-1.851 1.328a10 10 0 0 1-1.926.848c-.64.203-1.25.3-1.82.3-.426 0-.817-.05-1.176-.16a2.7 2.7 0 0 1-.895-.441 1.57 1.57 0 0 1-.511-.676 1.36 1.36 0 0 1-.028-.84q.083-.299.278-.62a2.2 2.2 0 0 1 .523-.579c.223-.176.492-.316.813-.43a3.5 3.5 0 0 1 1.136-.167q.457 0 .684.152.228.147.398.328.176.177.368.324.194.153.547.153c.16 0 .347-.094.574-.278.218-.183.449-.41.683-.68q.351-.403.696-.867l.609-.832.934-1.293z" style="stroke:none;fill-rule:nonzero;fill:#2e3393;fill-opacity:1"/></g><path d="M164.46 19.273q.082 1.314.685 2.059c.394.5 1 .75 1.804.75a3.5 3.5 0 0 0 1.797-.496c.242-.152.45-.328.613-.531q.252-.301.34-.637.153-.573.059-1.027a2.1 2.1 0 0 0-.38-.82 3 3 0 0 0-.726-.676q-.447-.3-.976-.586a22 22 0 0 1-1.66-.918 6.3 6.3 0 0 1-1.41-1.141 3.76 3.76 0 0 1-.84-1.473c-.168-.547-.157-1.187.043-1.914q.272-1.024.93-1.875a6.3 6.3 0 0 1 1.597-1.453 8 8 0 0 1 2.11-.941 9 9 0 0 1 2.476-.336q1.195 0 2.05.219.863.217 1.454.628a3.4 3.4 0 0 1 .969 1.008q.367.598.605 1.336l-3.11 1.012q-.03-.776-.23-1.211-.206-.44-.488-.656a1.3 1.3 0 0 0-.61-.262 5 5 0 0 0-.578-.043q-.455 0-.894.102a3.3 3.3 0 0 0-.809.297 2.4 2.4 0 0 0-.633.468 1.5 1.5 0 0 0-.355.649c-.086.312-.082.605.008.87q.14.404.46.766.325.365.817.68.493.323 1.11.606a17 17 0 0 1 1.753.941q.846.524 1.426 1.176.58.656.824 1.465c.164.539.16 1.136-.02 1.796a6.9 6.9 0 0 1-.882 1.985 6.1 6.1 0 0 1-1.566 1.613q-.966.69-2.325 1.082-1.36.399-3.14.399c-1.008 0-1.832-.118-2.48-.348-.641-.227-1.16-.527-1.548-.898a3.9 3.9 0 0 1-.886-1.235 9 9 0 0 1-.48-1.351z" style="stroke:none;fill-rule:nonzero;fill:#2e3393;fill-opacity:1"/></svg>