<?xml version="1.0" encoding="UTF-8"?>
<svg xmlns="http://www.w3.org/2000/svg" xmlns:xlink="http://www.w3.org/1999/xlink" width="176pt" height="43.77pt" viewBox="0 0 176 43.77" version="1.1">
<defs>
<clipPath id="clip1">
  <path d="M 0 0 L 45 0 L 45 43.769531 L 0 43.769531 Z M 0 0 "/>
</clipPath>
<clipPath id="clip2">
  <path d="M 51 33 L 176 33 L 176 43.769531 L 51 43.769531 Z M 51 33 "/>
</clipPath>
</defs>
<g id="surface1">
<g clip-path="url(#clip1)" clip-rule="nonzero">
<path style=" stroke:none;fill-rule:evenodd;fill:rgb(16.598511%,60.960388%,25.436401%);fill-opacity:1;" d="M 10.835938 11.710938 C 10.835938 20.203125 20.167969 26.277344 14.976562 34.507812 C 11.238281 40.4375 3.371094 33.140625 7.933594 28.546875 C 8.574219 27.898438 9.636719 27.085938 10.621094 27.003906 C 10.347656 26.246094 8.46875 21.144531 8.34375 20.605469 C 4.570312 20.6875 -4.925781 29.703125 3.183594 40.078125 C 4.621094 41.921875 7.589844 43.59375 10.835938 43.59375 C 24.109375 43.59375 22.28125 27.4375 33.175781 27.4375 C 37.519531 27.4375 39.726562 33.332031 35.125 36.433594 C 32.5625 37.917969 30.757812 36.09375 29.488281 35.242188 L 24.933594 40.125 C 26.765625 42.855469 36.34375 47.289062 42.394531 38.933594 C 45.691406 34.378906 44.960938 28.382812 41.21875 23.734375 C 36.304688 17.632812 25.625 22.660156 19.375 16.1875 C 15.800781 12.488281 18.023438 7.15625 22.222656 7.15625 C 24.625 7.15625 27.25 9.894531 26.554688 12.898438 C 26.472656 13.246094 26.375 13.394531 26.34375 13.773438 C 27.5 14.0625 32.015625 15.289062 32.851562 15.289062 C 36.21875 0.832031 17.554688 -5.71875 11.917969 7.046875 C 11.390625 8.242188 10.835938 10.007812 10.835938 11.710938 "/>
</g>
<path style=" stroke:none;fill-rule:evenodd;fill:rgb(16.598511%,60.960388%,25.436401%);fill-opacity:1;" d="M 133.488281 5.640625 C 133.488281 7.226562 129.269531 8.59375 130.140625 9.023438 C 130.71875 9.308594 133.292969 7.808594 134.035156 7.378906 C 137.015625 5.648438 137.71875 7.214844 137.71875 4.988281 C 137.71875 2.640625 134.339844 2.710938 131.535156 2.710938 C 131.636719 3.917969 133.488281 5.207031 133.488281 5.640625 Z M 121.34375 2.277344 C 121.34375 4.054688 123.097656 4.375 122.464844 5.671875 C 121.605469 7.441406 119.390625 8.128906 119.390625 16.917969 C 118.078125 17.613281 116.304688 18.21875 114.726562 18.21875 C 114.164062 19.0625 114.195312 19.699219 114.429688 20.90625 C 114.761719 22.640625 117.339844 20.925781 119.175781 19.953125 C 119.175781 25.976562 121.449219 26.824219 121.449219 24.617188 C 121.449219 23.730469 121.085938 19.726562 120.910156 18.976562 L 122.425781 18.21875 C 122.433594 21.125 122.578125 20.660156 121.449219 21.253906 C 121.492188 21.757812 121.769531 22.078125 122.023438 22.417969 C 122.964844 23.691406 123.390625 23.136719 123.945312 22.992188 C 124.089844 23.613281 125.566406 26.894531 126.007812 26.894531 C 128.773438 26.894531 127.695312 17.695312 127.964844 14.644531 L 128.175781 12.363281 C 128.496094 12.578125 129.886719 13.667969 129.941406 13.847656 C 130.160156 14.527344 129.800781 14.875 129.800781 16.375 C 129.800781 18.042969 131.003906 17.035156 129.800781 19.300781 C 129.035156 20.742188 127.765625 25.050781 128.933594 25.050781 C 130.578125 25.050781 133.054688 18.519531 133.054688 17.566406 C 133.054688 17.171875 132.957031 17.308594 132.945312 16.808594 C 133.503906 16.515625 134.378906 15.667969 135.007812 15.617188 C 133.199219 23.378906 132.09375 26.894531 139.453125 26.894531 C 141.105469 26.894531 145.691406 26.117188 144.292969 23.574219 C 144.25 23.492188 141.828125 20.484375 141.039062 19.234375 C 140.855469 18.9375 140.855469 18.796875 140.429688 18.761719 C 140.445312 19.570312 143.253906 24.617188 139.347656 24.617188 C 135.0625 24.617188 135.117188 23.207031 136.730469 18.421875 C 137.804688 15.226562 138.777344 14.855469 138.046875 13.660156 C 137.613281 12.949219 135.5 12.164062 134.601562 13.257812 C 134.039062 13.945312 132.558594 15.429688 131.753906 15.613281 C 130.726562 14.925781 130.886719 14.660156 130.886719 13.769531 C 132.40625 13.769531 135.054688 10.425781 137.996094 10.890625 C 141.1875 11.390625 140.441406 7.808594 138.152344 7.808594 C 136.257812 7.808594 133.558594 10.953125 128.609375 10.953125 C 128.027344 10.953125 128.210938 10.207031 128.097656 9.730469 C 127.660156 7.902344 124.945312 5.585938 123.328125 8.597656 C 122.054688 10.964844 122.914062 11.058594 121.558594 11.058594 C 121.558594 6.417969 127.617188 7.5625 124.941406 4.316406 C 124.414062 3.675781 123.21875 3.496094 122.023438 2.355469 C 121.746094 2.09375 121.832031 2.050781 121.449219 1.949219 C 121.378906 2.082031 121.34375 2.066406 121.34375 2.277344 Z M 125.136719 9.433594 C 126.105469 9.433594 125.789062 13.121094 125.789062 14.421875 L 125.035156 14.65625 C 125.023438 12.246094 124.984375 11.820312 123.402344 11.0625 C 123.734375 10.4375 124.347656 9.433594 125.136719 9.433594 Z M 122.535156 15.617188 C 122.125 15.890625 121.574219 16.136719 121.019531 16.265625 C 121.019531 15.445312 121.183594 14.023438 121.34375 13.339844 C 121.777344 13.238281 121.863281 13.121094 122.425781 13.121094 C 122.652344 14.089844 122.535156 14.460938 122.535156 15.617188 Z M 124.269531 21.148438 C 124.269531 20.039062 124.34375 17.28125 125.253906 16.816406 C 125.496094 16.695312 125.46875 16.667969 125.789062 16.59375 C 125.789062 18.148438 126.179688 22.695312 125.214844 22.382812 C 124.90625 22.285156 124.269531 21.480469 124.269531 21.148438 "/>
<path style=" stroke:none;fill-rule:evenodd;fill:rgb(16.598511%,60.960388%,25.436401%);fill-opacity:1;" d="M 91.300781 8.023438 C 98.679688 8.023438 92.746094 3.667969 92.734375 3.664062 C 92.21875 3.503906 92.128906 3.824219 91.859375 4.132812 C 90.972656 5.152344 86.550781 7.109375 84.78125 7.6875 C 83.792969 8.007812 83.933594 7.816406 83.820312 8.242188 C 85.179688 8.242188 85.339844 8.527344 87.449219 8.183594 C 89.519531 7.832031 88.941406 7.769531 90.761719 7.808594 L 90.761719 8.027344 C 89.554688 8.050781 89.675781 8.917969 89.675781 10.519531 C 88.527344 11.128906 86.660156 11.992188 85.265625 12.722656 C 81.371094 14.773438 82.625 14.5 80.890625 13.339844 C 80.050781 14.925781 81.460938 18.074219 85.730469 17.3125 C 87.472656 17 87.707031 15.433594 89.242188 15.074219 C 89.222656 15.90625 88.503906 16.964844 88.097656 17.507812 C 86.074219 20.203125 84.550781 18.539062 84.363281 20.9375 C 84.28125 22.015625 84.742188 23.242188 85.339844 23.640625 C 85.921875 23.792969 87.742188 21.75 88.375 21.582031 C 88.375 23.152344 88.308594 26.160156 89.894531 27.21875 C 90.695312 26.683594 91.015625 25.535156 90.804688 24.136719 C 90.621094 22.898438 90.636719 21.429688 90.648438 20.058594 C 90.660156 18.0625 94.078125 15.898438 93.472656 14.640625 C 92.785156 14.714844 93.214844 15.171875 92.386719 15.722656 C 92.351562 14.054688 91.277344 14.375 91.804688 13.195312 C 92.1875 12.34375 92.960938 11.78125 93.796875 11.710938 C 94.222656 12.601562 94.503906 12.808594 94.503906 13.445312 C 94.511719 15.109375 93.117188 14.265625 93.75 17.398438 C 94.238281 19.816406 95.738281 18.757812 95.855469 17.351562 C 96.238281 17.351562 96.804688 17.449219 97.050781 17.566406 C 96.449219 20.15625 93.585938 22.191406 91.085938 22.773438 C 91.210938 24.285156 98.785156 23.503906 98.785156 18.542969 C 100.945312 19.992188 102.632812 26.316406 110.90625 24.917969 C 114.121094 24.375 106.722656 21.488281 105.21875 20.679688 C 101.742188 18.808594 101.769531 17.835938 99.21875 16.484375 C 99.21875 15.714844 99.882812 12.914062 100.085938 12.039062 C 100.429688 12.128906 101.972656 13.34375 102.691406 13.769531 C 104.183594 14.648438 106.894531 14.292969 104.921875 11.757812 C 103.980469 10.546875 103.335938 11.023438 102 10.339844 C 101.449219 10.058594 101.097656 9.746094 100.628906 9.433594 C 100.652344 8.320312 101.515625 5.683594 100.738281 3.792969 C 100.257812 2.628906 99.078125 1.726562 97.992188 2.785156 C 97.371094 3.390625 98.113281 5.496094 98.414062 6.554688 C 99 8.625 98.980469 8.015625 98.644531 10.59375 C 98.472656 11.898438 98.605469 12.0625 96.398438 13.230469 C 96.328125 12.351562 95.148438 11.683594 94.339844 11.496094 C 94.339844 10.585938 94.308594 10.847656 93.734375 10.472656 C 93.386719 10.246094 92.390625 8.96875 91.300781 8.023438 Z M 98.785156 4.878906 L 99.003906 4.878906 L 99.003906 5.207031 C 98.585938 4.917969 98.957031 5.207031 98.785156 4.878906 Z M 91.300781 8.023438 Z M 97.269531 15.941406 C 95.894531 15.941406 98.011719 13.457031 98.027344 13.445312 C 97.824219 14.511719 97.761719 15.941406 97.269531 15.941406 Z M 88.375 21.582031 L 88.375 21.582031 "/>
<path style=" stroke:none;fill-rule:evenodd;fill:rgb(16.598511%,60.960388%,25.436401%);fill-opacity:1;" d="M 60.070312 1.191406 L 60.179688 1.949219 C 61.027344 1.933594 60.597656 1.644531 61.371094 1.625 C 61.371094 2.414062 60.917969 4.886719 60.332031 5.246094 C 59.15625 5.960938 57.375 6.289062 55.839844 6.289062 C 55.863281 7.238281 57.941406 8.867188 58.445312 9 L 57.109375 9.941406 C 55.851562 10.53125 55.730469 9.808594 55.730469 11.496094 C 55.730469 12.433594 57.121094 12.714844 57.578125 13.339844 C 56.621094 13.84375 55.042969 14.964844 53.671875 14.964844 C 53.476562 14.964844 52.914062 14.527344 52.914062 15.832031 C 52.914062 16.863281 53.417969 16.769531 53.835938 16.972656 C 55.394531 17.726562 54.800781 17.566406 56.382812 16.808594 C 56.207031 17.558594 54.042969 20.695312 53.300781 21.640625 C 52.054688 23.226562 51.015625 24.347656 49.300781 25.5625 C 49.070312 25.722656 48.839844 25.804688 48.820312 26.054688 C 48.753906 26.824219 50.003906 25.824219 50.757812 25.714844 C 53.277344 25.355469 55.519531 22.035156 57.035156 19.953125 C 57.035156 22.429688 56.816406 24.246094 57.90625 26.132812 C 59.539062 28.964844 59.308594 26.242188 61.695312 26.242188 C 62.296875 26.242188 62.90625 30.390625 64.324219 29.3125 C 65.074219 28.738281 65.925781 26.109375 65.925781 24.617188 C 65.925781 21.933594 65.710938 21.359375 65.925781 18.761719 C 67.367188 19.816406 68.9375 25.484375 76.230469 25.484375 C 77.210938 25.484375 78.433594 23.957031 74.695312 22.464844 C 73.101562 21.828125 70.21875 20.164062 68.765625 19.175781 C 67.097656 18.035156 66.867188 17.683594 65.648438 16.113281 C 64.84375 15.078125 63.421875 14.160156 63.214844 13.878906 C 64.378906 13.320312 67.769531 14.375 67.769531 13.011719 C 67.769531 11.914062 65.296875 11.78125 64.496094 11.722656 C 63.769531 11.667969 63.769531 11.929688 63.539062 12.363281 L 62.78125 12.363281 L 65.09375 10.441406 C 66.726562 9.175781 65.019531 8.246094 63.648438 8.132812 C 63.902344 7.179688 66.6875 6.914062 66.6875 5.636719 C 66.6875 4.746094 64.925781 3.792969 63.976562 3.792969 C 63.707031 3.792969 63.503906 4.121094 63.109375 4.226562 C 63.148438 2.433594 64.945312 0 61.589844 0 C 60.742188 0 60.070312 0.863281 60.070312 1.191406 Z M 60.503906 14.964844 C 61.117188 14.964844 62.894531 15.621094 63.324219 16.265625 C 62.460938 16.246094 61.667969 15.804688 60.050781 17.117188 C 59.375 17.667969 56.578125 20.925781 58.769531 16.699219 C 59.34375 15.589844 59.636719 14.964844 60.503906 14.964844 Z M 58.550781 19.519531 C 60.445312 19.078125 58.609375 20.554688 62.167969 18.578125 C 62.636719 18.316406 62.953125 18.019531 63.082031 18.667969 C 63.507812 20.796875 62.917969 23.421875 62.890625 24.726562 C 61.625 24.695312 62.898438 23.597656 60.5625 24.136719 C 59.503906 24.316406 59.417969 24.171875 59.417969 22.988281 C 60.730469 22.878906 61.277344 22.210938 61.976562 22.078125 C 62.554688 21.96875 62.78125 22.160156 62.78125 21.582031 C 62.78125 21.238281 62.351562 20.0625 61.261719 20.0625 C 60.632812 20.0625 60.148438 20.796875 59.09375 20.820312 C 59.054688 20.351562 58.757812 19.828125 58.550781 19.519531 "/>
<path style=" stroke:none;fill-rule:evenodd;fill:rgb(16.598511%,60.960388%,25.436401%);fill-opacity:1;" d="M 159.300781 11.0625 C 159.300781 11.582031 158.230469 13.113281 157.816406 13.265625 C 157.390625 13.421875 156.371094 12.945312 156.371094 15.722656 C 156.371094 19.105469 162.730469 12.871094 162.507812 11.648438 C 162.460938 11.375 161.257812 8.628906 159.191406 8.457031 C 158.441406 9.578125 159.300781 10.070312 159.300781 11.0625 Z M 163.09375 20.820312 C 163.027344 21.636719 161.746094 22.890625 161.171875 23.453125 C 160.535156 24.078125 156.117188 24.835938 154.742188 24.835938 C 154.167969 25.5 154.511719 26.152344 154.980469 26.878906 C 156.019531 28.496094 157.757812 27.160156 160.1875 26.484375 C 168.269531 24.230469 169.207031 26.347656 172.105469 26.675781 C 175.101562 27.011719 173.40625 22.984375 169.492188 22.992188 C 167.914062 22.992188 165.730469 23.316406 165.046875 23.316406 C 165.570312 21.359375 170.136719 19.902344 167.605469 17.9375 C 164.453125 15.492188 165.472656 18.761719 160.601562 18.761719 C 160.921875 17.875 169.421875 15.28125 170.046875 14.101562 C 170.914062 12.453125 167.433594 11.765625 167.339844 11.363281 C 167.148438 10.578125 168.175781 10.550781 167.867188 9.21875 C 169.695312 10.1875 174.695312 9.519531 175.3125 8.640625 C 176.3125 7.203125 174.398438 5.957031 173.8125 5.222656 C 172.304688 3.316406 168.824219 4.773438 165.265625 4.773438 C 165.265625 1.378906 161.792969 0.964844 160.675781 0.464844 C 158.136719 -0.667969 161.324219 3.390625 161.605469 3.660156 C 162.351562 4.378906 162.097656 4.285156 162.011719 5.3125 C 160.777344 5.3125 156.738281 6.496094 156.261719 6.507812 C 154.894531 3.65625 154.148438 4.683594 154.230469 5.148438 C 154.34375 5.8125 155.144531 6.636719 153.183594 9.175781 C 152.628906 9.890625 152.515625 9.21875 152.1875 11.539062 C 151.734375 14.691406 153.949219 17.433594 156.40625 8.820312 C 157.171875 6.144531 157.695312 9.121094 161.171875 7.621094 C 163.105469 6.789062 169.878906 5.265625 171.335938 5.964844 C 171.214844 7.433594 167.828125 8.339844 167.324219 8.675781 C 166.007812 6.710938 162.695312 7.199219 164.203125 8.976562 C 165.160156 10.101562 163.742188 13.65625 165.804688 14.207031 C 165.578125 15.0625 160.984375 17.683594 159.945312 18.214844 C 157.257812 19.59375 159.277344 22.011719 161.273438 21.507812 C 161.921875 21.34375 162.433594 20.878906 163.09375 20.820312 Z M 163.09375 20.820312 L 163.09375 20.820312 "/>
<g clip-path="url(#clip2)" clip-rule="nonzero">
<path style=" stroke:none;fill-rule:evenodd;fill:rgb(16.598511%,60.960388%,25.436401%);fill-opacity:1;" d="M 143.25 33.835938 C 143.667969 33.835938 143.992188 33.84375 144.246094 34.03125 C 144.441406 34.175781 144.660156 34.59375 144.660156 34.917969 L 144.660156 41.425781 C 144.660156 42.410156 144.207031 42.707031 143.25 42.726562 L 143.25 43.269531 L 148.238281 43.269531 L 148.238281 42.726562 C 147.53125 42.667969 146.9375 42.523438 146.9375 41.75 L 146.9375 34.8125 C 146.9375 34.078125 147.488281 33.835938 148.238281 33.835938 L 148.238281 33.292969 L 143.25 33.292969 Z M 169.386719 35.785156 C 169.386719 37.402344 169.816406 38.054688 171.40625 38.863281 C 172.425781 39.378906 173.722656 39.601562 174.0625 40.769531 C 174.660156 42.855469 170.761719 44.066406 169.816406 40.015625 C 168.9375 40.015625 169.167969 39.890625 169.167969 42.945312 C 169.167969 43.359375 169.945312 43.601562 170.035156 42.511719 C 170.511719 42.636719 171.324219 43.875 173.730469 43.273438 C 174.875 42.988281 176 41.933594 176 40.667969 L 176 40.125 C 176 36.808594 171.121094 37.085938 171.121094 35.242188 C 171.121094 34.835938 171.066406 34.464844 171.609375 34.105469 C 172.777344 33.335938 174.386719 34.203125 174.808594 36.003906 L 175.457031 36.003906 L 175.351562 33.292969 L 174.699219 33.292969 C 174.640625 33.539062 174.613281 33.539062 174.589844 33.832031 C 172.195312 32.230469 169.382812 33.480469 169.382812 35.785156 Z M 51.289062 35.679688 C 51.289062 37.320312 51.699219 38.152344 53.457031 38.929688 C 54.453125 39.371094 56.058594 39.832031 56.058594 41.210938 C 56.058594 42.496094 54.53125 42.964844 53.453125 42.515625 C 52.898438 42.28125 52.652344 41.976562 52.324219 41.472656 C 51.636719 40.414062 52.09375 40.015625 51.394531 40.015625 C 51.144531 40.015625 51.070312 40.09375 51.070312 40.34375 C 51.070312 43.53125 50.828125 43.269531 51.828125 43.269531 C 51.839844 42.792969 51.902344 42.933594 51.9375 42.511719 C 52.34375 42.621094 53.46875 43.902344 55.644531 43.289062 C 57.550781 42.75 57.902344 41.542969 57.902344 39.910156 C 57.902344 36.886719 53.023438 37.222656 53.023438 35.027344 C 53.023438 33.144531 56.511719 33.640625 56.710938 36.003906 L 57.359375 36.003906 L 57.359375 33.292969 L 56.601562 33.292969 C 56.578125 33.585938 56.550781 33.589844 56.492188 33.835938 C 55.890625 33.433594 55.960938 33.351562 55.070312 33.195312 C 53.246094 32.875 51.285156 33.796875 51.285156 35.679688 Z M 58.660156 33.835938 C 59.550781 33.835938 59.964844 34.140625 59.964844 35.027344 L 59.964844 41.535156 C 59.964844 42.457031 59.496094 42.65625 58.660156 42.726562 L 58.660156 43.269531 L 63.648438 43.269531 L 63.648438 42.726562 C 61.832031 42.6875 62.238281 41.632812 62.238281 38.714844 C 63.871094 38.714844 65.589844 38.828125 66.675781 37.507812 C 67.507812 36.5 67.613281 33.292969 63.757812 33.292969 L 58.660156 33.292969 Z M 62.890625 37.957031 L 62.238281 37.957031 L 62.238281 34.375 C 62.238281 33.964844 62.492188 34.050781 63.109375 34.050781 C 65.332031 34.050781 65.367188 37.957031 62.890625 37.957031 Z M 159.949219 33.835938 C 160.527344 33.835938 160.953125 33.878906 161.148438 34.261719 C 161.492188 34.941406 161.4375 41.5 161.195312 42.128906 C 161.023438 42.574219 160.507812 42.714844 159.949219 42.726562 L 159.949219 43.269531 L 168.40625 43.269531 L 168.40625 40.339844 L 167.757812 40.339844 C 167.757812 41.613281 166.851562 42.511719 165.589844 42.511719 C 163.203125 42.511719 163.527344 41.703125 163.527344 38.496094 C 164.730469 38.496094 165.449219 38.800781 165.480469 40.125 L 166.132812 40.125 L 166.132812 36.113281 C 165.015625 36.113281 165.785156 36.527344 165.1875 37.230469 C 164.746094 37.75 164.160156 37.738281 163.527344 37.738281 L 163.527344 34.375 C 163.527344 33.886719 164.085938 34.050781 165.265625 34.050781 C 167.273438 34.050781 166.855469 36.003906 167.539062 36.003906 C 168.171875 36.003906 167.757812 34.523438 167.757812 33.292969 L 159.949219 33.292969 Z M 94.882812 38.496094 C 94.882812 40.550781 96.027344 42.539062 97.941406 43.140625 C 100.972656 44.089844 102.246094 42.449219 104.316406 42.402344 C 104.316406 40.144531 104.027344 39.609375 105.183594 39.582031 L 105.183594 38.929688 L 101.171875 38.929688 C 100.921875 38.929688 100.847656 39.007812 100.847656 39.257812 C 100.847656 39.894531 102.039062 39.292969 102.039062 40.449219 C 102.039062 42.035156 101.839844 42.617188 99.980469 42.617188 C 96.492188 42.617188 96.667969 33.941406 100.089844 33.941406 C 101.757812 33.941406 102.628906 34.777344 103.015625 36.4375 L 103.664062 36.4375 L 103.558594 33.183594 L 102.90625 33.183594 C 102.824219 33.535156 102.722656 33.660156 102.691406 34.050781 C 102.261719 33.761719 102.136719 33.621094 101.59375 33.414062 C 98.246094 32.125 94.882812 34.765625 94.882812 38.496094 Z M 83.167969 33.835938 C 84.035156 33.90625 84.578125 34.636719 84.578125 34.917969 L 84.578125 41.425781 C 84.578125 43.265625 83.277344 41.898438 83.277344 43.269531 L 86.746094 43.269531 C 86.746094 42.082031 86.398438 43.125 85.691406 42.160156 C 85.128906 41.394531 85.339844 37.03125 85.339844 35.785156 C 85.804688 36.097656 90.457031 41.796875 91.109375 42.59375 C 91.878906 43.539062 91.679688 43.484375 92.601562 43.484375 L 92.601562 35.679688 C 92.601562 34.519531 92.816406 33.925781 93.90625 33.835938 L 93.90625 33.292969 L 90.433594 33.292969 L 90.433594 33.835938 C 91.773438 33.863281 91.851562 34.851562 91.84375 36.21875 C 91.839844 37.484375 91.84375 38.75 91.84375 40.015625 L 89.058594 36.730469 L 86.660156 33.8125 C 86.40625 33.527344 86.417969 33.6875 86.3125 33.292969 L 83.167969 33.292969 Z M 148.671875 33.835938 C 149.464844 33.902344 150.1875 34.519531 150.1875 35.242188 C 150.1875 36.863281 150.273438 40.253906 150.070312 41.742188 C 149.988281 42.347656 149.605469 42.617188 148.886719 42.617188 L 148.886719 43.269531 L 152.25 43.269531 C 152.25 42.0625 151.644531 43.066406 151.125 42.007812 C 150.796875 41.335938 150.949219 36.832031 150.949219 35.894531 L 156.632812 42.574219 C 157.472656 43.640625 157.25 43.484375 158.105469 43.484375 C 158.105469 42.265625 157.96875 35.277344 158.3125 34.476562 C 158.722656 33.519531 159.40625 34.472656 159.40625 33.292969 L 156.046875 33.292969 L 156.046875 33.835938 C 157.371094 33.945312 157.347656 34.804688 157.347656 36.21875 C 157.34375 37.449219 157.347656 38.679688 157.347656 39.90625 C 156.832031 39.5625 154.3125 36.382812 153.800781 35.753906 C 153.515625 35.394531 152.007812 33.292969 151.597656 33.292969 L 148.671875 33.292969 Z M 108.761719 42.945312 L 108.761719 43.269531 L 112.230469 43.269531 C 112.230469 42.371094 112.109375 42.746094 111.53125 42.5625 C 110.484375 42.21875 111.414062 40.960938 111.472656 40.234375 L 114.726562 40.234375 C 114.863281 40.820312 115.269531 41.375 115.269531 42.078125 C 115.269531 43.054688 114.074219 41.96875 114.074219 43.269531 L 123.726562 43.269531 L 123.726562 42.726562 C 122.625 42.703125 122.316406 42.332031 122.316406 41.210938 L 122.316406 35.351562 C 122.316406 34.019531 122.808594 33.835938 123.726562 33.835938 L 123.726562 33.292969 L 118.738281 33.292969 L 118.738281 33.835938 C 119.910156 33.835938 120.148438 34.117188 120.148438 35.785156 L 120.148438 40.992188 C 120.148438 43.5625 118.25 42.539062 118.039062 42.34375 C 117.609375 41.953125 116.929688 40.011719 116.691406 39.351562 C 115.921875 37.230469 115.089844 35.175781 114.292969 33.074219 L 113.535156 33.074219 C 113.339844 33.90625 110.269531 41.640625 109.820312 42.160156 C 109.679688 42.324219 109.515625 42.433594 109.316406 42.523438 C 108.703125 42.804688 108.761719 42.523438 108.761719 42.945312 Z M 113.210938 36.113281 L 114.402344 39.363281 L 111.90625 39.363281 C 112.105469 38.867188 113.027344 36.371094 113.210938 36.113281 Z M 67.554688 33.835938 C 68.078125 33.835938 68.484375 33.855469 68.710938 34.195312 C 69.117188 34.804688 69.113281 41.652344 68.734375 42.28125 C 68.527344 42.621094 68.058594 42.714844 67.554688 42.726562 L 67.554688 43.269531 L 72.542969 43.269531 L 72.542969 42.726562 C 70.777344 42.6875 71.132812 41.445312 71.132812 38.824219 C 72.132812 38.84375 72.824219 40.164062 73.300781 40.882812 C 73.554688 41.265625 74.75 43.269531 75.144531 43.269531 L 82.734375 43.269531 L 82.734375 42.726562 C 81.632812 42.703125 81.328125 42.332031 81.328125 41.207031 L 81.328125 35.351562 C 81.328125 34.226562 81.582031 33.835938 82.734375 33.835938 L 82.734375 33.292969 L 77.746094 33.292969 L 77.746094 33.835938 C 78.925781 33.835938 79.15625 34.191406 79.15625 35.785156 C 79.15625 37.167969 79.242188 40.671875 79.050781 41.859375 C 78.878906 42.933594 77.488281 43.113281 76.507812 41.6875 C 76.285156 41.363281 76.167969 41.160156 75.9375 40.851562 C 75.597656 40.398438 74.164062 38.671875 74.058594 38.28125 C 77.269531 37.535156 76.964844 33.292969 73.085938 33.292969 L 67.554688 33.292969 Z M 71.78125 38.0625 L 71.132812 38.0625 L 71.132812 35.242188 C 71.132812 34.640625 71.242188 34.601562 71.242188 34.050781 C 73.074219 34.050781 73.734375 34.070312 73.734375 36.4375 C 73.734375 37.578125 72.863281 38.0625 71.785156 38.0625 Z M 124.160156 33.835938 C 124.699219 33.835938 125.464844 33.875 125.464844 34.703125 L 125.464844 41.75 C 125.464844 42.484375 124.886719 42.710938 124.160156 42.726562 L 124.160156 43.269531 L 129.148438 43.269531 L 129.148438 42.726562 C 127.359375 42.6875 127.738281 41.488281 127.738281 38.824219 C 128.738281 38.84375 129.222656 39.953125 129.816406 40.757812 C 130.09375 41.132812 131.339844 42.9375 131.429688 43.269531 L 142.921875 43.269531 C 142.921875 42.320312 142.820312 41.25 143.03125 40.339844 L 142.273438 40.339844 C 142.246094 41.492188 141.28125 42.511719 140.105469 42.511719 C 139.425781 42.511719 138.417969 42.632812 138.039062 41.863281 C 137.6875 41.140625 137.824219 36.410156 137.824219 35.351562 C 137.824219 34.226562 138.082031 33.835938 139.234375 33.835938 L 139.234375 33.292969 L 134.246094 33.292969 L 134.246094 33.835938 C 135.195312 33.835938 135.507812 34 135.621094 35.015625 C 135.730469 35.976562 135.765625 41.59375 135.464844 42.210938 C 135.1875 42.785156 134.371094 42.792969 133.847656 42.480469 C 133.351562 42.183594 133.027344 41.59375 132.710938 41.121094 C 132.03125 40.121094 131.105469 39.09375 130.5625 38.28125 C 131.875 38.171875 133.046875 36.96875 132.738281 35.351562 C 132.457031 33.878906 131.210938 33.292969 129.476562 33.292969 L 124.160156 33.292969 Z M 128.390625 38.0625 L 127.738281 38.0625 L 127.738281 34.8125 C 127.738281 34.4375 127.820312 34.390625 127.851562 34.050781 C 129.523438 34.050781 130.34375 34.046875 130.34375 36.328125 C 130.34375 37.472656 129.550781 38.0625 128.390625 38.0625 "/>
</g>
</g>
</svg>
