<svg xmlns="http://www.w3.org/2000/svg" width="201.973" height="59pt" viewBox="0 0 151.48 59"><defs><clipPath id="a"><path d="M101 1h50.48v58H101Zm0 0"/></clipPath></defs><path d="m141.121 3.727-.023.152-.032.164-.035.172-.043.152-.054.133-.043.11-.032.03-.023.032-.031.012-.035.011-.02-.011-.035-.02-.02-.035-.023-.043-.043-.121-.031-.14-.024-.165-.012-.172-.007-.164.007-.164.024-.14.031-.141.043-.121.043-.098.047-.086.055-.066.03-.024.032-.011.024-.008h.054l.032.02.023.023.023.02.043.077.032.086.023.122.008.117v.144zM140.031 3.672l-.011.152-.024.176-.031.16-.031.156-.043.141-.055.11-.047.062-.031.023h-.031l-.024-.011-.031-.024-.024-.031-.02-.043-.054-.11-.035-.14-.031-.164-.024-.164-.007-.176v-.148l.02-.157.023-.129.03-.132.044-.106.043-.09.054-.062.036-.024.02-.011.034-.012h.055l.02.012.035.023.02.031.042.067.035.097.02.11.023.12zM138.996 3.727v.164l-.012.16-.02.156-.023.152-.043.141-.043.11-.035.042-.02.032-.034.023-.043.02h-.032l-.035-.008-.031-.035-.023-.043-.043-.11-.043-.14-.043-.328-.024-.293v-.122l.012-.128.02-.133.023-.117.031-.098.047-.09.055-.055.031-.007.031-.012h.035l.032.012.035.02.031.022.043.067.043.086.035.11.02.116.023.145zM137.918 3.813l.008.152.023.152v.36l-.012.054-.019.067-.023.043-.024.054-.031.032-.043.035-.043.031-.055.012-.043-.012-.047-.012-.03-.031-.02-.043-.036-.055-.02-.066-.023-.066-.054-.305-.043-.305-.024-.129-.007-.12v-.13l.007-.11.024-.097.043-.078.023-.031.031-.035.036-.008.043-.012h.074l.035.02.031.011.055.067.043.074.043.098.035.12.02.122zM136.773 4l.024.14.008.153.011.152-.011.14v.067l-.008.067-.047.11-.02.042-.035.043-.043.031-.043.024-.054.011h-.043l-.035-.023-.032-.031-.03-.043-.036-.055-.02-.055-.011-.078-.067-.304-.043-.293-.011-.133-.008-.13v-.12l.008-.121.023-.098.031-.074.055-.055.035-.023.043-.008h.031l.043.008.035.011.032.024.054.055.055.074.031.097.035.122.024.128zM135.762 4.207l.02.152.023.153.007.14.012.141-.012.066v.067l-.019.062-.012.043-.031.059-.023.043-.043.031-.043.024-.055.019h-.047l-.031-.02-.043-.035-.031-.03-.024-.056-.02-.066-.035-.066-.066-.305-.062-.293-.024-.129-.012-.133-.007-.12v-.11l.02-.098.034-.086.032-.031.02-.024.034-.02.043-.01h.078l.032.01.03.02.055.055.055.078.043.098.047.11.031.128zM134.824 4.52l.02.152.023.156.012.14.008.141-.008.067v.062l-.024.055-.011.055-.031.054-.024.047-.043.031-.043.02-.055.023-.043-.011-.035-.012-.043-.031-.03-.043-.024-.043-.032-.067-.023-.066-.063-.305-.066-.293-.023-.132-.008-.13-.012-.12v-.118l.02-.101.035-.074.031-.036.023-.02.032-.023.043-.007h.078l.031.007.035.024.055.055.055.074.043.09.043.117.02.133zM133.844 4.836l.043.14.031.145.035.14.02.141.011.067v.066l-.011.063-.012.054-.008.047-.035.055-.031.031-.043.031-.043.024-.047.012-.043-.012-.031-.035-.043-.032-.035-.043-.032-.054-.035-.067-.105-.293-.09-.285-.043-.117-.031-.133-.024-.117-.012-.11.012-.109.024-.086.02-.035.023-.02.03-.034.032-.008.035-.012h.043l.031.012.036.008.066.043.063.066.054.086.055.11.043.12zM132.82 5.23l.051.13.047.14.043.145.043.14.012.121v.117l-.012.055-.024.043-.03.047-.032.043-.047.02-.043.011h-.031l-.043-.023-.035-.032-.043-.042-.031-.055-.036-.055-.129-.281-.109-.262-.055-.12-.043-.122-.035-.117-.008-.11-.011-.109.02-.086.011-.035.023-.031.02-.024.035-.02.031-.023h.078l.032.012.066.031.055.067.062.078.059.105.05.11zM131.848 5.645l.097.27.078.26.024.122v.121l-.012.055-.023.043-.02.043-.035.043-.031.023-.043.012h-.035l-.032-.024-.043-.031-.035-.035-.062-.11-.121-.261-.11-.262-.054-.117-.043-.11-.036-.12-.007-.11-.012-.098.012-.074.007-.043.024-.035.02-.02.035-.023.02-.012.034-.007h.032l.035.007.062.035.055.055.055.074.054.098.055.11zM130.879 6.219l.152.242.133.238.043.121.012.11.008.054-.008.043-.024.055-.02.043-.034.031-.032.024h-.035l-.031-.012-.043-.02-.047-.023-.086-.086-.172-.242-.164-.227-.066-.097-.067-.102-.054-.105-.043-.098-.024-.098-.007-.09.007-.03.012-.036.012-.031.035-.031.02-.024.03-.012.036-.011h.031l.067.023.066.043.074.066.067.079.074.097zM130.031 6.82l.153.239.129.242.042.117.024.11v.054l-.012.055-.012.043-.02.043-.034.035-.031.02h-.079l-.043-.02-.03-.035-.048-.043-.043-.043-.172-.239-.164-.218-.078-.11-.054-.097-.051-.11-.047-.097-.02-.098-.011-.078.011-.043v-.031l.02-.036.023-.03.032-.024.023-.008h.066l.063.008.078.043.066.066.075.078.078.098zM129.21 7.496l.165.227.145.23.05.121.035.106v.101l-.023.055-.02.043-.023.031-.031.024-.035.011-.086-.023-.043-.031-.043-.036-.043-.043-.188-.23-.175-.207-.075-.098-.078-.097-.054-.098-.051-.098-.024-.097-.02-.086.009-.035v-.032l.023-.03.02-.036.023-.02.031-.023h.035l.032-.012.066.024.063.031.156.133.086.097zM128.484 8.094l.184.207.164.219.055.109.043.11.011.054v.043l-.011.055-.024.043-.02.043-.034.023-.032.012h-.043L128.734 9l-.047-.035-.042-.031-.055-.032-.207-.199-.196-.207-.074-.086-.078-.086-.074-.086-.055-.101-.035-.086-.02-.086v-.078l.012-.032.02-.03.023-.024.031-.024.024-.007h.031l.078.007.063.024.09.054.086.067.086.086zM127.742 8.793l.172.195.164.207.067.11.035.097.007.055V9.5l-.007.043-.012.055-.023.03-.032.024-.035.012h-.031l-.043-.012-.043-.023-.055-.031-.047-.032-.207-.187-.183-.195-.074-.079-.079-.085-.062-.086-.059-.086-.043-.09-.02-.074V8.64l.013-.036.007-.03.012-.036.023-.02.032-.011.023-.02h.031l.067.008.074.024.078.043.074.066.086.074zM126.934 9.574l.207.176.187.195.074.098.055.102.012.05.011.055v.043l-.011.055-.024.047-.03.03-.032.012h-.078l-.055-.023-.055-.02-.054-.035-.227-.171-.219-.165-.097-.078-.086-.074-.078-.09-.067-.086-.055-.074-.03-.09v-.074l.011-.035.008-.031.023-.032.024-.023.03-.012.02-.008h.079l.078.02.086.031.086.055.097.066zM126.25 10.371l.238.14.219.165.086.078.066.098.024.043.008.043.011.054-.011.055-.008.043-.024.031-.035.024-.031.011h-.043l-.055-.011-.054-.024-.067-.02-.25-.12-.238-.13-.098-.054-.11-.067-.089-.066-.14-.14-.044-.075-.007-.047v-.062l.007-.043.012-.024.024-.03.03-.024.02-.012.067-.008h.09l.086.02.097.043zM125.684 11.277l.226.141.219.152.086.086.066.086.024.043.02.055v.101l-.013.043-.019.032-.031.023-.047.008h-.043l-.055-.008-.055-.012-.054-.023-.25-.129-.238-.133-.11-.05-.097-.067-.086-.066-.09-.067-.055-.074-.043-.078-.012-.031-.007-.043.007-.036.012-.03.012-.036.043-.043.035-.02.062-.011.079.012.097.02.098.034.11.055zM125.148 12.082l.133.066.13.063.128.066.121.078.098.086.078.086.031.055.012.043.012.055.007.054-.007.055-.024.035-.031.02-.047.023h-.098l-.062-.023-.067-.012-.285-.11-.257-.117-.122-.054-.109-.055-.11-.066-.085-.067-.078-.074-.043-.078-.02-.031v-.121l.02-.032.011-.035.032-.02.023-.023.074-.02h.09l.098.012.11.032.116.054zM124.715 13.129l.238.129.219.152.086.078.066.086.02.043.011.043.012.055-.023.086-.02.035-.035.02-.031.011h-.043l-.055-.012-.055-.007-.054-.024-.262-.12-.238-.13-.102-.054-.097-.055-.098-.067-.074-.066-.067-.074-.043-.067-.011-.043v-.066l.023-.062.02-.024.035-.023.02-.008.066-.012h.086l.086.02.097.047.11.043zM124.29 14.129l.25.11.237.12.102.063.074.078.031.043.024.043.012.055v.097l-.024.035-.031.02-.035.023-.043.012-.055-.012h-.055l-.054-.011-.274-.086-.258-.086-.109-.047-.11-.043-.097-.055-.09-.054-.062-.063-.055-.066-.023-.032-.012-.035v-.043l.012-.035.023-.062.02-.024.023-.02.066-.023h.172l.11.024.109.03zM123.875 15.273l.273.067.27.086.11.054.1.067.032.031.031.043.024.043.012.055v.047l-.024.043-.02.02-.035.023-.043.02h-.183l-.297-.044-.281-.05-.242-.048-.11-.043-.105-.042-.078-.055-.067-.055-.02-.031-.023-.035v-.11l.024-.03.007-.024.036-.02.066-.035.074-.02.098-.011.121.011.117.02zM123.527 16.32l.293.055.274.074.117.055.102.055.062.086.023.046.02.043v.055l-.012.031-.031.032-.031.023-.043.012-.055.011h-.133l-.304-.035-.282-.031-.132-.023-.122-.02-.117-.035-.11-.043-.085-.055-.066-.054-.024-.032-.02-.035-.011-.031v-.031l.012-.035.011-.032.02-.035.023-.02.063-.03.09-.024.097-.012h.11l.129.012zM123.32 17.277l.282.055.273.078.121.055.098.055.043.043.031.042.023.043.012.043v.055l-.012.031-.023.035-.043.02-.043.012-.055.011-.066.012-.063-.012-.304-.03-.285-.036-.13-.02-.12-.023-.121-.031-.098-.047-.086-.055-.078-.05-.02-.036-.023-.062v-.067l.012-.035.02-.031.022-.023.067-.032.086-.023.097-.008h.122l.12.008zM123.078 18.355l.293.036.274.054.12.043.11.063.031.035.035.031.032.043.011.055.012.047-.012.043-.02.03-.046.024-.043.02-.055.012h-.054l-.075.011-.304-.023-.285-.02h-.13l-.12-.023-.122-.02-.109-.046-.086-.032-.074-.054-.023-.032-.024-.035-.008-.031v-.074l.008-.035.023-.02.024-.023.055-.043.086-.036.097-.007.121-.012.118.012zM122.895 19.422l.128.012.153.011.133.024.129.031.12.043.098.055.043.03.035.048.02.043.023.043v.086l-.023.035-.031.031-.043.012-.059.02-.062.011h-.36l-.285-.02h-.117l-.121-.023-.121-.02-.098-.035-.086-.043-.074-.043-.024-.035-.023-.031-.012-.031v-.078l.012-.032.012-.035.023-.02.063-.042.078-.035.097-.02h.239zM122.809 20.469l.293.023.28.043.122.035.098.051.043.035.046.032.02.042.023.047.008.055-.008.031-.023.032-.031.035-.043.02-.059.01-.062.013-.067.007h-.597l-.122-.007-.128-.012-.122-.012-.109-.031-.086-.031-.078-.055-.031-.023-.012-.032-.02-.035v-.074l.008-.035.012-.02.023-.035.063-.043.078-.031.098-.024.12-.011zM122.762 21.648l.297.02.28.043.122.043.11.055.03.035.044.031.023.043.02.043v.09l-.02.031-.043.031-.047.012-.05.023-.055.012h-.371l-.293-.012h-.133l-.121-.011-.118-.024-.109-.031-.098-.031-.066-.055-.031-.023-.024-.032-.011-.035v-.074l.011-.035.012-.031.02-.024.066-.043.074-.031.219-.023h.262zM122.73 22.703l.286.012.27.031.109.035.097.055.043.031.035.031.032.047.011.043.012.051-.012.035-.02.031-.034.036-.032.02-.109.023-.066.011-.293.008h-.403l-.12-.008-.11-.023-.11-.02-.086-.047-.066-.043-.031-.023-.024-.031-.011-.031v-.079l.011-.03.012-.036.024-.02.05-.042.078-.036.098-.02.11-.01.12-.013zM122.71 23.695l.259.012.25.031.11.032.097.046.035.032.031.03.035.044.008.047.012.054-.012.032-.008.03-.035.036-.043.02-.043.011-.054.024-.067.012-.27.007h-.37l-.11-.008-.11-.011-.097-.024-.09-.03-.062-.056-.024-.023-.02-.031-.01-.032-.013-.035.012-.043v-.03l.02-.024.011-.032.055-.043.078-.035.086-.02.098-.023zM122.688 24.719l.261.011.25.032.11.031.097.055.031.023.036.043.02.043.023.047.011.043-.011.043-.024.031-.02.024-.042.02-.047.023-.055.011-.062.012-.274.008h-.262l-.109.011-.117-.011-.102-.008-.097-.035-.086-.031-.067-.043-.02-.036-.023-.02-.011-.034-.008-.043v-.032l.008-.035.011-.03.024-.024.055-.043.074-.043.086-.024.097-.008.11-.011zM122.719 25.719l.261.011.25.036.11.03.097.044.043.035.036.043.02.031.01.055.013.043v.047l-.024.031-.031.02-.086.046-.055.008-.054.012-.274.012h-.488l-.11-.024-.097-.02-.09-.034-.062-.043-.024-.032-.023-.035-.008-.031v-.067l.008-.03.011-.036.012-.02.055-.054.078-.031.086-.024.097-.012.122-.011zM122.719 26.844l.261.011.25.02.122.035.085.043.043.031.036.036.02.043.023.054.011.043-.011.043-.024.031-.02.024-.042.02-.047.023-.055.012-.062.011-.274.02h-.488l-.102-.012-.097-.02-.086-.035-.067-.043-.02-.03-.023-.036-.011-.031-.008-.032v-.035l.008-.03.011-.032.024-.035.054-.043.067-.032.086-.023.097-.023.122-.008zM122.762 27.89l.273.008.274.036.12.03.098.044.043.035.032.031.035.043.02.043v.09l-.02.031-.035.024-.043.03-.043.013-.067.011-.054.012-.293.02h-.274l-.129.011-.12-.011-.11-.012-.11-.02-.086-.035-.066-.043-.031-.031-.024-.035-.007-.031-.012-.032v-.035l.012-.031.007-.035.024-.02.054-.054.075-.032.097-.023.11-.02.12-.011zM122.871 28.902h.285l.262.032.117.035.102.043.043.031.03.035.032.043.024.043.011.043-.011.043-.024.035-.031.031-.031.024-.055.008-.055.011-.066.012-.293.024h-.273l-.122.007-.117-.007-.12-.012-.099-.024-.097-.03-.067-.044-.054-.055-.012-.035v-.11l.023-.03.008-.024.067-.054.078-.032.086-.023.11-.02zM122.926 29.86l.285.011.262.035.117.02.097.043.047.035.063.062.023.047.012.043-.012.032-.023.03-.063.048-.054.011-.055.008-.066.012-.293.023h-.504l-.098-.011-.074-.024-.078-.031-.055-.043-.012-.023-.02-.024-.01-.031v-.098l.022-.055.032-.03.066-.036.067-.02.097-.023.11-.012zM123.066 30.809h.254l.25.03.11.024.097.032.032.023.035.023.031.032.012.03.008.036v.031l-.02.024-.031.02-.078.023-.121.02-.258.011h-.371l-.09-.012h-.074l-.067-.02-.055-.023-.03-.031-.024-.043-.012-.047v-.05l.012-.047.023-.032.031-.023.055-.02.078-.011zM123.785 31.648h.09l.074.008.035.024.02.035.023.043.008.062v.055l-.008.043-.035.035-.031.02-.078.023h-.086l-.031.012h-.036l-.03-.012-.036-.023-.043-.043-.008-.043v-.098l.008-.043.012-.031.035-.024.02-.023.035-.02zM122.645 31.387l-.426-.242-.403-.27-.394-.297-.367-.324-.352-.352-.324-.367-.328-.406-.293-.41-.285-.45-.274-.456-.25-.47-.238-.488-.219-.511-.207-.516-.183-.523-.176-.532-.164-.546-.14-.543-.13-.555-.12-.547-.11-.555-.086-.554-.078-.555-.067-.547-.05-.531-.047-.547-.02-.523-.023-.512v-.992l.023-.477.02-.457v-.352l-.008-.316-.035-.281-.043-.238-.024-.11-.031-.101-.031-.086-.043-.075-.035-.066-.098-.098-.055-.043-.96-.632-.97-.621-.98-.59-.98-.586-1-.555-1.004-.547-1.024-.512-1.011-.5-1.036-.492-1.035-.457-1.047-.433-1.046-.414-1.055-.403-1.059-.37-1.066-.36-1.067-.328-1.07-.317-1.078-.281-1.066-.262-1.079-.242-1.078-.219-1.078-.195-1.09-.172-1.078-.144-1.078-.118-1.082-.097-1.066-.078-1.078-.043-1.067-.024h-1.066l-1.07.035-1.055.055h-.153l-.132-.012-.055-.011-.043-.012-.043-.02-.031-.035-.067-.062-.066-.102-.055-.105-.066-.153-.16-.414-.157-.425-.14-.45-.13-.445-.109-.457-.097-.457-.078-.457-.055-.45-.008-.085.008-.075.023-.078.032-.066.043-.055.132-.086.086-.02.711-.077.774-.043.828-.012.89.023.95.043 1 .075L87.89.25l1.09.145 1.132.171 1.168.196 1.196.23 1.234.25 1.25.293 1.273.317 1.297.347 1.309.383 1.308.402 1.329.438 1.316.469 1.332.488 1.316.523 1.309.555 1.297.59 1.285.61 1.262.644 1.23.672 1.211.699 1.188.73 1.144.762 1.098.785 1.058.828 1.024.84.195.215.164.2.14.171.11.152.078.141.055.133.02.121.011.117v.121l-.02.121-.034.141-.043.14-.11.348-.12.438-.087.394-.066.422-.063.438-.054.457-.043.48-.035.5-.024.512-.008.523v.543l.02.547.023.555.043.566.055.578.066.579.075.574.097.578.11.578.12.566.141.579.153.566.164.555.183.547.2.53.214.524.243.512.25.492.261.469.281.457.305.433.328.407.336.39z" style="stroke:none;fill-rule:nonzero;fill:#202b4d;fill-opacity:1"/><path d="m115.672 56.02.414-.352.402-.371.403-.367.406-.383.39-.402.38-.403.382-.418.719-.867.348-.45.34-.444.324-.47.316-.468.305-.48.285-.489.273-.5.258-.504.254-.511.227-.512.207-.535.195-.52.176-.547.164-.53.14-.56.122-.554.097-.555.074-.566.055-.567.035-.578.008-.578-.008-.578-.035-.586-.086-.61-.066-.308-.067-.293-.074-.281-.086-.285-.097-.262-.09-.25-.184-.445-.176-.371-.129-.274-.097-.172-.176-.304-.184-.297-.199-.293-.195-.285-.207-.282-.203-.285-.219-.262-.23-.27-.22-.26-.238-.25-.23-.255-.238-.25-.25-.238-.239-.238-.261-.23-.25-.24-.524-.448-.535-.422-.547-.414-.554-.414-.555-.395-.567-.379-.578-.37-.566-.36-.621-.383-.621-.36-.61-.347-.609-.328-.621-.317-.621-.304-.653-.305-.675-.293-.895-.36-.902-.359-.469-.164-.457-.175-.469-.153-.48-.152-.469-.153-.469-.128-.476-.133-.473-.121-.476-.118-.47-.097-.48-.102-.468-.074-.72-.133-.73-.129-.726-.14-.73-.133-.372-.055-.36-.055-.37-.042-.371-.032-.36-.035-.37-.02h-.74l-.339.012h-.445l-.426.008-.281.012-.11.012-.152-.012-.164-.02-.164-.023-.152-.02-.122-.035-.054-.012-.031-.011-.024-.02v-.012l-.258-.16-.254-.175-.238-.176-.23-.172-.446-.352-.425-.367-.805-.719-.395-.37-.39-.372-.075-.133-.054-.109v-.05l.008-.055.035-.047.074-.051.11-.067.132-.066.184-.066.273-.067.531-.097.547-.075.543-.066.559-.055.555-.02.566-.023.555.012.566.012.566.031.567.043.566.066.567.075.566.09.555.097.566.11.555.128.558.133.543.14.543.153.547.164.535.172.524.188.52.195.5.195.515.196.488.218.48.22.477.218.461.226.457.23.438.24.422.241.449.25.457.25.195.121.184.106.164.101.164.13.055.03.043.036.054.02.11.023h.109l.055-.012.043-.02.054-.023.043-.031.055-.031.043-.047.047-.055.043-.055.031-.062.02-.055.011-.066v-.133l-.011-.074-.02-.067-.031-.066-.035-.055-.043-.062-.043-.055-.11-.11-.066-.042-.055-.036-.062-.03-.68-.403-.672-.383-.664-.36-.668-.335-.672-.328-.656-.305-.664-.285-.652-.27-.657-.25-.64-.23-.645-.219-.64-.195-.633-.176-.621-.164-.621-.149-.61-.132-.597-.121-.59-.098-.59-.086-.574-.078-.567-.051-.558-.047-.555-.031-.531-.024h-.524l-.515.012-.512.024-.477.03-.48.044-.469.066-.445.067-.438.074-.379.078-.394.066-.195.032-.176.02-.153.01h-.152l-.043-.019-.043-.043-.054-.046-.141-.13-.176-.163-.39-.426-.461-.488-.457-.512-.415-.469-.347-.371-.219-.23-.293-.258-.023-.047-.008-.043v-.043l.008-.074.011-.067.047-.078.051-.066.078-.051.098-.055.133-.066.148-.067.2-.066.195-.074.39-.11.2-.043.39-.078.402-.062.239-.035.261-.032.297-.043.325-.035.34-.031.359-.023h.37l.38.011.492.032.5.035.512.043.535.054.543.067.547.062.554.078.567.098.578.098.574.097.578.121.59.13.586.144.578.152.59.153.578.171.574.188.578.184.57.187.563.195.57.184.555.195.543.207.547.207.531.207.524.207.5.22.504.218.488.219.469.226.457.219.437.238.11.047.105.043.102.031.105.024h.133l.11-.012.042-.023.043-.012.035-.02.086-.086.032-.078.023-.086v-.086l-.012-.09-.031-.097-.043-.086-.055-.098-.066-.09-.074-.074-.102-.078-.097-.055-.22-.105-.237-.11-.524-.242-.531-.25-.524-.25-.523-.238-.535-.23-.524-.227-.535-.207-.52-.219-.523-.195-.535-.2-.523-.195-.532-.171-.535-.176-.523-.176-.535-.152-.532-.153-.546-.152-.532-.129-.535-.133-.543-.129-.547-.109-.543-.11-.547-.097-.543-.098-.554-.086-.559-.078-.555-.078-.554-.062-.567-.055-1.132-.086-.579-.035-.578-.02-.457-.011-.468.011-.48.032-.478.043-.468.074-.469.09-.457.109-.45.117-.257.102-.242.097-.055.008-.066.012h-.051l-.067-.012-.054-.008-.067-.023-.066-.02-.063-.046-.109-.098-.133-.152-.16-.207-.176-.239-.183-.273-.188-.305-.195-.305-.184-.328-.187-.316-.176-.305-.152-.293-.13-.261-.109-.22-.074-.183-.023-.078-.02-.055v-.074l.031-.023.055-.032.086-.03.098-.036.261-.074.286-.078.293-.078.261-.051.184-.047.098-.008.242-.012.261-.023.27-.031.305-.024.328-.031.383-.031.422-.035.48-.02.523-.023.555.011.61.024.656.031.707.066.761.075.84.097.914.121.426.067.434.062.449.078.445.075.895.175.902.207.906.231.903.238.914.274.906.28.902.306.895.316.883.34.87.36.852.359.836.379.82.394.782.402.14.067.145.05.063.024.066.023h.055l.066.008.055-.008.054-.011.055-.024.086-.086.043-.066.035-.074.02-.098.011-.043-.011-.055-.012-.046-.02-.055-.066-.106-.098-.097-.109-.09-.117-.086-.121-.074-.133-.067-.281-.132-.352-.172-.355-.188-.328-.152-.707-.293-.711-.305-.72-.285-.73-.281-.726-.262-.723-.262-.726-.25-.72-.242-.296-.098-.434-.128-.468-.133-.36-.11-.152-.043-.2-.062-.226-.055-.262-.078-.273-.066-.281-.075-.297-.066-.293-.055-.336-.066-.426-.086-.469-.086-.5-.098-.468-.097-.438-.078-.336-.075-.23-.046-.239-.032-.347-.054-.45-.043-.488-.055-.492-.055-.476-.054-.407-.032-.304-.03-.368-.036-.382-.02-.403-.023-.402-.012-.828-.02-.852.012-.426.008-.414.024-.421.02-.415.034-.402.032-.394.043-.383.054-.367.055-.153.023-.12.008h-.099l-.054-.02-.09-.066-.098-.11L83.59 9l-.11-.164-.242-.371L83 8.03l-.238-.449-.219-.426-.195-.37-.145-.27-.062-.121-.055-.122-.055-.105-.035-.121-.012-.055.012-.054.024-.043.02-.055.046-.043.062-.035.079-.032.097-.03.13-.036.151-.031.176-.024.188-.02.39-.034.414-.032.383-.023.336-.012.262-.008h.14l.438-.023.523-.012h.586l.61.012h.59l.543.012.468.011.34.008.317.024.402.031.48.055.524.054.555.067.578.078.586.074.566.086.61.098.632.11.633.12.633.13.633.144.629.152.644.164.633.16.64.176.633.187.621.184.633.195.621.196.61.195.61.21.597.208.59.215.664.25.707.273.718.293.711.297.653.281.578.274.469.23.5.25.492.262.5.258.5.261.5.274.504.285.5.281.5.285.492.293.488.293.488.305.48.305.481.308.47.313.913.656.055.043.086.086.035.047.043.086.023.086v.152l-.011.098v.152l-.012.242-.012.239v.152l-.008.262-.011.492-.012.508-.012.351-.011.414v.414l.011.426.035.422.032.426.043.433.054.426.067.438.062.425.09.422.086.426.098.414.097.402.121.403.11.394.129.38.054.163.086.25.114.297.117.317.12.324.11.285.086.227.067.132.062.13.11.206.144.262.14.285.153.293.152.274.13.226.1.164.141.219.153.219.152.207.164.207.164.195.172.207.176.195.176.188.359.367.379.36.394.351.391.324.23.176.239.172.262.176.261.164.274.152.27.152.296.153.293.133.293.14.305.121.316.13.317.109.328.109.324.098.328.097.324.086.34.078.328.075.672.132.34.055.328.043.336.031.328.035.324.02.657.023h.312l.309-.011.304-.012.305-.031.293-.035.383-.032.37-.054.696-.11.328-.074.317-.066.304-.075.305-.09.281-.085.286-.098.28-.098.274-.101.524-.203.535-.207.195-.09.219-.098.215-.11.23-.116.469-.262.469-.297.457-.293.433-.293.207-.152.188-.145.172-.14.152-.13.066-.066.067-.031.043-.035.043-.012h.035l.031.024.035.023.032.055.078.14.086.172.074.188.066.195.13.402.1.352.141.469.11.457.097.468.075.457.054.47.043.456.024.457v.457l-.012.457-.031.45-.043.457-.067.445-.078.445-.086.438-.109.445-.117.438-.145.433-.14.426-.164.426-.172.425-.188.41-.195.415-.219.414-.219.406-.226.402-.242.39-.25.395-.258.38-.274.382-.285.38-.285.37-.293.36-.414.48-.422.48-.45.458-.456.437-.469.434-.488.425-.5.403-.504.39-.523.383-.532.371-.535.36-.547.336-.554.34-.567.316-.566.312-.567.297-.578.281-.574.286-.59.261-.578.25-.586.239-.59.242-.59.215-.578.207-.586.195-.578.2-.578.171-.578.164-.566.164-1.11.281-.555.133-.304.067-.516.097-.64.13-.7.12-.695.121-.61.098-.261.031-.219.012-.152.012-.098-.012-.031-.012-.012-.02-.011-.034v-.043l.011-.043.02-.035.035-.043zM140.738 9.84l-.097.008-.086.011-.078.032-.067.043-.055.066-.042.066-.032.079-.023.085-.012.055v.043l.024.086.042.09.055.086.078.066.098.063.098.043.109.023.098.012h.109l.098-.012.086-.031.035-.012.031-.023.031-.02.024-.035.023-.031.02-.043.011-.043v-.164l-.023-.055-.02-.055-.054-.109-.078-.098-.086-.086-.11-.066-.043-.031-.054-.024-.055-.011zM139.484 24.129l-.086.023h-.085l-.098-.023-.11-.043-.097-.055-.11-.062-.109-.102-.121-.097-.117-.11-.11-.129-.12-.129-.122-.152-.238-.305-.23-.34-.227-.347-.207-.352-.195-.336-.176-.316-.153-.293-.12-.262-.087-.219-.054-.152-.098-.293-.098-.297-.078-.304-.066-.293-.063-.282-.047-.297-.042-.292-.02-.282-.023-.285-.008-.273-.012-.27.012-.262v-.25l.02-.253.023-.239.031-.23.031-.215.035-.207.043-.2.043-.183.043-.172.055-.156.055-.14.054-.13.055-.109.055-.086.066-.078.055-.055.054-.03.055-.024.063.011.047.024.109.215.226.632 1.262 3.801.067.176.152.469.23.652.524 1.547.226.687.176.5.074.243.024.062.012.078v.078l.007.086-.007.153-.036.164-.02.054-.03.063-.047.066-.067.067-.062.066-.086.055zM147.266 19.531h-.09l-.063.012-.054.023-.036.024-.011.02v.035l.011.03.024.032.172.164.187.164.02.043.047.086.007.066.012.122.012.109-.012.172-.012.254-.007.25v.195l-.012.152.012.141.007.14.012.11.012.043.02.047.023.031.031.024.024.007h.074l.035-.007.074-.036.086-.066.09-.074.098-.086.175-.188.153-.195.105-.152.047-.067.117-.226.11-.22.09-.194.074-.2.078-.195.074-.207.066-.227.067-.253.008-.032v-.043l-.008-.03v-.036l-.035-.043-.043-.031-.055-.024-.055-.011-.054.011-.055.032-.066.035-.075.031-.086.035-.109.031-.238.055-.266.031-.25.035-.238.032-.184.011z" style="stroke:none;fill-rule:nonzero;fill:#202b4d;fill-opacity:1"/><g clip-path="url(#a)"><path d="m148.234 7.277-.132.078-.13.075-.144.066-.129.055-.12.043-.099.02h-.074l-.054-.087.03-.074.055-.098.09-.109.11-.11.105-.109.121-.097.121-.086.118-.067.109-.066.11-.031.097-.035.09-.008h.074l.078.043.02.062v.067l-.032.066-.054.078-.067.086-.086.074-.097.09ZM142.22 3.63l-.02.086-.023.098-.02.085-.035.09-.031.075-.067.078-.066.03-.074-.066-.031-.066-.024-.074-.023-.098-.008-.097v-.184l.02-.078.023-.078.02-.063.035-.066.085-.078.086-.032.079.043.054.098.02.133Zm6.777 4.324-.121.078-.129.074-.14.067-.133.055-.121.043-.106.03-.078-.01-.043-.087.031-.074.055-.098.09-.11.097-.109.118-.109.12-.098.122-.09.11-.062.116-.055.11-.043.097-.035.09-.011h.063l.066.023.043.066-.012.086-.03.067-.044.086-.152.152-.098.086Zm.645.969-.133.055-.14.054-.153.043-.133.031-.129.024-.11.012-.073-.012-.036-.066.024-.063.097-.133.098-.086.121-.097.13-.09.132-.074.129-.067.12-.043.118-.043.121-.023.098-.008.086.008.078.011.066.055.02.067-.02.062-.047.066-.05.067-.09.066-.086.063-.121.066Zm.422.894-.13.043-.14.032-.145.023-.128.02-.122.011-.097-.011-.067-.02-.03-.066.054-.086.078-.078.098-.075.117-.066.133-.074.129-.055.12-.043.122-.035.117-.02.11-.011h.097l.078.011.063.02.066.055.012.066-.078.11-.141.117-.098.046-.097.051Zm.035 1.438-.11.023-.078-.011-.074-.036-.121-.164-.055-.105-.02-.078.044-.098.054-.066.067-.067.086-.054.105-.051.121-.047.098-.031.09-.012.086.012.054.086.024.11-.012.077-.012.098-.035.098-.043.097-.062.086-.09.078Zm-31.825 22.8.407.602.36.598.312.598.285.613.238.61.207.616.164.614.133.62.098.618.054.621.031.613-.011.621-.031.61-.067.61-.11.609-.116.609-.165.598-.187.59-.203.59-.242.585-.274.567-.281.566-.316.559-.34.554-.36.532-.367.523-.402.523-.43.5-.433.493-.457.468-.47.47-.487.444-.352.305-.348.285-.36.282-.358.273-.36.262-.37.261-.372.239-.367.238-.371.23-.766.438-.379.207-.394.207-.391.184-.39.195-.395.176-.403.172-.39.175-.406.164-.414.164-.817.305-.828.293-.84.274-.836.261-.851.262-.86.238-.5.25.11.153.804.023.805.02.816.023.829.02.832.011.836.012h1.668l.84-.012.835-.02.828-.034.829-.043.828-.055.808-.074.805-.09.809-.11.445-.062.445-.066.438-.055.414-.055.37-.054.325-.055.273-.043.196-.031 1.23-.23 1.211-.25.586-.13.59-.144.578-.14.578-.153 1.133-.305.566-.176.555-.172.555-.175.555-.196.546-.195.543-.207.547-.207.531-.23.536-.231.535-.25.531-.25.535-.262.524-.281.535-.285.52-.293.523-.316.535-.317.523-.336.524-.347.531-.372.524-.37.523-.395.883-.684.828-.719.785-.73.738-.754.688-.762.652-.785.602-.804.543-.817.504-.828.445-.852.402-.847.348-.86.305-.875.242-.87.195-.884.129-.878.09-.895.031-.883-.031-.883-.09-.894-.14-.871-.196-.883-.262-.871-.316-.86-.379-.851-.45-.848-.5-.828-.566-.828-.62-.797-.7-.793-.75-.773-.828-.754-.219-.207-.219-.195-.39-.391-.184-.207-.176-.195-.175-.207-.153-.2-.152-.207-.14-.203-.141-.207-.133-.207-.117-.219-.219-.437-.098-.219-.109-.293-.195-.61-.09-.304-.063-.316-.066-.328-.066-.317-.043-.324-.032-.328-.035-.324-.02-.329-.011-.328v-.328l.012-.324.02-.316.034-.317.086-.61.067-.292.074-.297.086-.281.09-.262.109-.262.117-.25.121-.238.14-.23.153-.208.164-.195.176-.187.184-.16.207-.153.207-.133.078-.023.074.023.098.086.066.11.207.601.586 1.567.73 2.046.176.547.176.535.172.532.176.535.176.531.171.547.176.535.184.531.133.36.117.328.055.14.042.133.036.098.007.074.036.11.086.109.132.11.075.042.086.055.199.098.215.086.23.086.25.09.492.152.457.12.38.099.241.062.215.066.414.122.219.042.188.024h.074l.078-.035.02-.153-.012-.117-.032-.144-.03-.14-.055-.142-.055-.164-.067-.152-.078-.152-.148-.305-.09-.14-.074-.133-.086-.122-.09-.109-.074-.086-.078-.066-.293-.215-.446-.348-.425-.34-.188-.14-.14-.145-.165-.117-.171-.133-.176-.129-.172-.132-.164-.13-.145-.128-.14-.145-.043-.066-.032-.063-.046-.11v-.073l.066-.098.078-.055.086-.035.098-.031.11-.023.108-.008h.23l.24.03.226.032.219.055.175.043.317.078.28.074.263.067.261.09.25.085.25.11.274.129.281.164.309.164.257.164.114.074.105.078.098.074.078.09.074.098.067.105.054.121.043.133.024.14.02.173.011.187v.207l-.012.184-.02.164-.034.152-.032.176-.011.086-.008.098v.086l.008.09.035.183.043.164.031.078.098.051h.066l.152-.031.188-.043.062-.024.067-.02.097-.066.079-.066.043-.074.02-.098v-.11l-.02-.12-.055-.121-.024-.075-.02-.078-.023-.086-.007-.097-.024-.196-.012-.195.012-.406v-.348l-.012-.074-.03-.09-.036-.086-.055-.086-.062-.086-.067-.078-.078-.086-.074-.078-.34-.293-.293-.23-.14-.11-.14-.14-.067-.075-.032-.078-.011-.097.02-.098.054-.086.078-.055.117-.043.078-.011.075-.012.425.012h.438l.433-.012.426-.031.207-.024.207-.031.207-.043.196-.055.195-.066.195-.078.188-.074.172-.098.101-.195v-.188l-.012-.164-.011-.14-.031-.11-.047-.098-.051-.066-.133-.086-.074-.023-.09-.008-.086.008-.11.011-.23.043-.25.067-.129-.012-.129-.008-.12-.023-.11-.024-.219-.062-.097-.043-.098-.055-.188-.11-.183-.12-.196-.153-.207-.164-.218-.129-.305-.011-.184-.024-.187-.02-.172-.034-.352-.086-.16-.055-.152-.067-.156-.062-.14-.078-.142-.086-.132-.09-.118-.098-.12-.109-.11-.105-.11-.121-.097-.122-.086-.129-.09-.144-.074-.14-.066-.153-.063-.152-.047-.164-.05-.172-.036-.176-.02-.184-.023-.187-.011-.195-.008-.207.008-.208.011-.207.031-.226.036-.219.02-.25.034-.262.008-.132v-.13l-.008-.132-.023-.121-.031-.117-.055-.098-.078-.098-.098-.078-.12-.055-.063-.02-.079-.023-.085-.023h-.098l-.098-.008-.11.008-.073.035-.078.074-.079.09-.074.063-.043.066-.078.098-.098.09-.097.05-.067.024-.117.043-.12.023-.134.012h-.336l-.195-.023-.207-.032-.207-.066-.098-.031-.086-.047-.09-.043-.085-.055-.079-.055-.128-.128-.043-.075-.122-.164-.109-.133-.117-.097-.11-.098-.109-.086-.097-.078-.11-.098-.09-.12-.086-.13-.074-.132-.066-.153-.067-.16-.054-.164-.043-.176-.032-.175-.023-.184-.012-.184V8.52l.012-.184.035-.176.043-.164.066-.164.075-.164.097-.14.317-.403.578-.566.238-.207.426-.348.262-.285.074-.086.035-.078-.012-.063-.097-.097-.086-.024-.102-.023-.097-.008-.25-.012h-.262l-.25.012-.25.008-.524.035-.511.066-.524.074-.512.098-.523.121-.512.13-.511.151-.512.176-.492.188-.489.195-.492.215-.469.23-.457.239-.445.261-.23.141-.282.176-.328.218-.36.262-.401.293-.414.348-.22.187-.226.184-.23.207-.602.602-.347.378-.336.415-.317.414-.305.425-.285.434-.257.457-.254.46-.239.466-.218.48-.196.492-.183.489-.176.5-.164.515-.14.512-.141.523-.121.524-.11.531-.098.535-.085.532-.067.535-.066.543-.055.535-.043.547-.043.531-.023.547-.02.531-.012.535v1.067l.012.535.02.512.164 4.312.14 1.527.102.586.098.395.085.117.098.098.11.066.48.188.488.152.492.14.5.11.5.098.5.074.512.047.504.03.512.013.512-.012.5-.02.511-.046.504-.063.5-.078.5-.098.492-.11.489-.128.48-.14.469-.157.469-.172.457-.187.445-.196.437-.207.422-.218.414-.227.407-.242.39-.25.371-.262.36-.258.336-.285.328-.285.316-.293.281-.281.09-.078.11-.032.105.02.067.055.078.066.062.066.067.075.14.187.121.195.121.227.121.242.106.262.11.262.187.523.164.512.129.457.097.36.098.39.09.383.062.39.067.395.043.39.031.395.012.402.012.391-.012.406-.012.403-.031.39-.031.403-.055.394-.067.402-.074.395-.078.39-.098.391-.097.395-.121.379-.121.382-.13.38-.14.37-.152.372-.153.359-.164.371-.175.348-.184.351-.188.348-.195.324-.207.34-.207.316-.219.317-.566.761-.598.739-.633.71-.652.684-.687.657-.707.628-.73.614-.755.574-.77.559-.796.53-.817.513-.828.48-.851.469-.86.437-.882.414-.883.38-.895.37-.902.348-.914.328-.914.305-.926.281-.93.254-.926.25-.925.215-.926.199-.926.184-.914.164-.918.14-.914.121-.89.11-.895.086-.883.066-.066-.012-.11-.054-.054-.098v-.121l.035-.11.097-.117.075-.066.175-.14.23-.165.5-.37.513-.391.523-.438.535-.457.52-.488.535-.524.523-.558.512-.567.5-.597.492-.621.48-.645.458-.664.433-.684.403-.699.382-.719.348-.73.317-.738.273-.762.238-.766.196-.781.144-.785.098-.797.043-.793-.012-.797-.062-.805-.133-.808-.196-.805-.273-.808-.324-.793-.414-.797-.48-.793-.567-.785-.274-.34-.285-.324-.281-.317-.305-.305-.316-.292-.317-.286-.335-.273-.34-.262-.098-.062-.098-.035h-.086l-.066.023-.031.074v.11l.086.144.324.367ZM143.484 9.86l-.109.043-.121.043-.164.067-.074.031-.078.078v.11l.078.097.086.043.066.024.086.011h.078l.063.02.066.035.11.086.085.11.086.195.09.27.02.144.035.074.043.066.12.098.063.031.078.012h.075l.066-.012.23-.074.239-.066.23-.055.227-.043.23-.02.227-.023h.23l.23.023.227.032.23.054.11.032.106.046.12.051.22.11.12.078.11.074.105.078.122.086.109.098.11.109.12.11.118.128.109.133.09.129.086.133.074.129.066.133.055.128.043.133.031.13.024.132.023.129v.25l-.012.133-.023.117-.02.133-.043.117-.035.133-.054.12-.055.118-.063.121-.066.121-.078.11-.086.117-.176.218-.195.22-.219.195-.238.195-.074.066-.055.067-.055.109.008.098.066.074.086.066.067.024.183.043.121.02.086-.02.09-.012.086-.031.086-.024.164-.078.164-.086.153-.11.14-.128.145-.133.129-.14.12-.165.11-.16.098-.164.097-.176.075-.175.078-.172.054-.176.055-.164.055-.27.043-.253.031-.258.012-.254v-.25l-.012-.25-.02-.25-.042-.25-.047-.242-.051-.239-.078-.238-.074-.242-.09-.238-.098-.243-.098-.238-.12-.238-.063-.133-.102-.164-.117-.184-.144-.195-.16-.207-.165-.23-.187-.215-.184-.219-.195-.219-.402-.402-.207-.176-.2-.152-.183-.13-.086-.054-.086-.043-.09-.047-.074-.02-.078.013-.11.05-.129.102-.152.11-.273.214-.164.145-.196.16-.226.176-.22.164-.194.171-.121.09-.153.117-.195.122-.2.132-.335.207Zm2.32 2.278h-.218l-.207.011-.207.02-.184.043-.187.047-.172.05-.152.079-.157.086-.129.09-.12.105-.098.121-.086.133-.067.14-.054.141-.043.164-.012.176v.172l.023.187.043.172.055.176.078.184.098.164.105.175.121.153.145.152.14.14.165.134.171.117.196.097.195.09.207.063.219.054.219.024h.218l.11-.012.097-.012.098-.02.098-.023.195-.066.188-.086.164-.098.164-.12.14-.13.13-.14.12-.164.098-.164.074-.176.055-.184.035-.086.012-.097.008-.102.011-.097v-.098l-.011-.086v-.098l-.02-.086-.047-.187-.062-.164-.086-.16-.11-.157-.12-.14-.13-.13-.156-.12-.16-.11-.176-.097-.183-.078-.2-.063-.207-.055-.203-.035Zm0 .523-.14-.023-.152-.012-.157.012-.14.011-.153.02-.128.047-.145.043-.117.055-.121.054-.11.074-.097.079-.074.085-.055.098-.043.11-.035.109v.066l.02.184.034.129.043.133.067.132.074.118.078.132.098.13.11.12.109.11.12.11.118.097.14.086.133.074.14.066.142.055.14.035.156.02h.27l.144-.02.13-.047.12-.043.118-.054.109-.075.098-.078.09-.097.085-.098.067-.11.055-.12.042-.13.032-.14.011-.14v-.145l-.02-.129-.034-.133-.043-.129-.067-.11-.074-.108-.078-.11-.098-.086-.109-.086-.11-.078-.12-.074-.118-.066-.132-.043-.141-.055-.14-.031Zm.165.73-.153-.046-.144-.008h-.14l-.122.02-.105.042-.09.055-.074.078-.043.098-.012.098.012.109.043.098.074.097.09.098.105.09.133.062.14.067.141.03.153.024h.132l.13-.023.109-.043.09-.055.062-.074.047-.098.02-.097-.02-.11-.047-.101-.062-.094-.09-.102-.11-.085-.129-.075Zm-4.348-4.535-.11-.007-.085-.012h-.145l-.086.066-.054.141v.074l.097.09.09.02.098.011.11.024.109.02.085.042.098.043.086.035.098.012h.078l.074-.012.066-.043.067-.078.012-.074-.036-.078-.097-.086-.086-.055-.11-.043-.12-.035-.118-.031Zm8.606-5.074-.348.281-.36.286-.37.28-.391.298-.809.574-.828.602-.84.597-.816.602-.403.293-.39.293-.383.304-.36.297-.128.098-.121.062-.121.047-.11.02-.117-.012-.121-.02-.152-.054-.164-.078-.372-.196-.335-.183-.176-.078-.184-.074-.207-.055-.238-.043-.09-.012h-.086l-.078.012-.074.008-.078.035-.063.031-.066.043-.067.047-.097.11-.086.117-.078.132-.043.14-.055.177-.043.117-.031.066-.145.078-.14.063-.153.09-.066.05-.063.09-.023.075-.11.066-.109.012-.098-.024-.086-.054-.078-.086-.054-.121-.043-.13-.02-.14-.023-.164v-.164l.011-.164.02-.16.035-.157.043-.14.055-.13.066-.108.086-.079.067-.054.171-.164.262-.239.317-.28.347-.329.352-.328.336-.316.285-.27.25-.254.262-.281.27-.293.284-.305.293-.316.293-.328.309-.325.304-.316.153-.145.14-.128.141-.11.133-.097.117-.086.133-.067.11-.066.116-.043.22-.078.206-.063.207-.043.207-.066.23-.067.27-.066.317-.066.37-.063.415-.066.457-.067.512-.066.566-.063.219-.011.347-.012.426.012.457.02.219.023.219.03.195.048.164.054.074.032.067.03.11.067.054.098.012.098.042.097v.145l-.011.074-.02.066-.023.067-.086.129-.11.133-.085.105Zm-3.946-.5.317-.176.34-.152.347-.133.348-.129.351-.097.336-.098.34-.078.336-.066.316-.055.293-.031.274-.024.25-.008h.219l.183.008.153.035.109.032.066.054.012.067-.043.086-.09.109-.129.121-.164.129-.207.152-.226.153-.547.37-.61.415-.316.23-.336.227-.656.5-.414.328-.422.316-.438.317-.425.281-.207.145-.207.117-.196.11-.195.097-.184.078-.187.066-.164.043-.153.02-.085.012-.086-.012-.086-.02-.078-.023-.079-.043-.074-.043-.066-.043-.063-.055-.12-.11-.098-.12-.086-.106-.067-.09-.043-.117-.012-.066.012-.066.008-.067.023-.074.024-.078.043-.086.105-.164.133-.184.164-.195.196-.2.218-.195.25-.207.262-.207.281-.207.297-.207.305-.207.328-.195z" style="stroke:none;fill-rule:nonzero;fill:#202b4d;fill-opacity:1"/></g><path d="M11.102 40.09v-6.918l.011-.176.008-.172.035-.168.035-.164.043-.156.059-.16.062-.149.079-.148.09-.137.085-.14.106-.13.101-.124.114-.121.12-.122.134-.105.14-.113.137-.098.148-.094.149-.086.156-.09.16-.078.164-.07.176-.07.172-.051.176-.05.172-.055.183-.036.184-.03.191-.028.184-.02.191-.008h.48l.313.028.34.043.348.05v-3.992l-.305-.015-.262-.02-.234-.008-.2-.007-.218.007h-.227l-.207.02-.218.016-.211.027-.399.07-.191.043-.196.055-.19.05-.18.06-.176.062-.176.07-.164.078-.164.086-.16.09-.157.094-.148.097-.137.102-.14.113-.13.113-.124.122-.121.132-.114.13-.113.14-.106.148-.093.149-.09.16-.086.164-.078.164-.07.176-.06.183v-2.675h-4.16V40.09zM0 40.074h4.793v-18.68H0ZM31.113 26.129v13.937h4.75v-6.722l.008-.207.02-.192.015-.191.028-.176.027-.168.023-.156.036-.149.07-.27.078-.25.07-.23.078-.207.051-.12.07-.122.079-.125.097-.101.114-.114.113-.097.129-.098.148-.086.149-.078.156-.07.168-.07.164-.06.176-.054.172-.043.183-.035.176-.023.184-.02H39l.184.008.168.02.171.035.157.043.16.05.144.063.133.078.13.086.12.098.106.113.09.12.078.134.058.148.063.164.07.176.07.191.067.207.054.235.051.246.02.14.015.137.008.149v7.593h4.84v-8.933l-.02-.324-.023-.313-.035-.305-.047-.296-.059-.29-.062-.27-.078-.269-.086-.253-.106-.254-.105-.235-.121-.219-.13-.214-.14-.203-.156-.2-.168-.183-.172-.164-.183-.168-.2-.145-.21-.14-.227-.122-.234-.113-.247-.105-.25-.098-.273-.078-.277-.07-.297-.059-.305-.043-.324-.035-.328-.02-.34-.008h-.36l-.199.008-.203.02-.199.023-.398.055-.192.043-.203.035-.191.05-.184.056-.191.058-.184.063-.172.07-.183.078-.176.078-.164.086-.168.09-.164.094-.157.097-.156.102-.148.105-.282.227-.136.121-.246.246-.121.13-.114.14-.105.14-.094.137-.086.148-.09.149-.078.156V26.13zM68.266 23.664h4.609v-3.531h-4.61ZM68.266 40.074h4.609v-14.8h-4.61ZM79.074 40.09v-7.074l.008-.176.016-.176.027-.172.035-.168.05-.156.056-.164.07-.149.156-.296.094-.141.098-.129.113-.133.113-.129.121-.113.133-.113.129-.113.14-.106.149-.098.313-.172.156-.078.168-.078.164-.062.176-.063.171-.05.184-.051.367-.07.184-.028.191-.016.184-.011.191-.008.297.008.313.027.332.043.355.055v-4.078l-.305-.028-.27-.02-.226-.007h-.43l-.214.008-.219.02-.21.015-.208.027-.203.035-.2.035-.198.043-.192.051-.183.055-.184.062-.176.067-.172.07-.175.078-.157.09-.156.086-.156.094-.149.105-.14.106-.14.113-.13.121-.133.121-.113.14-.121.134-.102.144-.105.149-.098.148-.086.168-.086.164-.082.176-.066.172-.07.183V26.04h-4.157v14.05zM60.457 35.813l1.656 4.226h5.367l-7.378-18.676h-6.207L46.75 40.04h5.012l1.636-4.227zl-1.148-3.355h-4.727l2.363-7.094 2.364 7.094M17.36 30.129l.105-.043.12-.063.15-.05.156-.063.359-.12.41-.122.453-.113.496-.106.254-.05.262-.047.27-.043.27-.032.269-.027.277-.027.273-.016.278-.012h.27l.269.012.262.016.261.027.254.043.246.05.235.063.226.07.215.087.203.093.192.117.183.13.043.042.043.055.043.05.035.06.035.07.028.07.023.078.02.09.035.172.023.203.012.215.008.238-.348.035-.332.016-.316.02-.313.015-.582.008h-.586l-.582.008-.61.027-.323.027-.34.024-.348.047-.367.058-.332.063-.324.078-.313.098-.305.109-.296.133-.278.148-.27.156-.253.176-.242.192-.239.199-.207.21-.203.227-.183.227-.164.242-.149.254-.129.262-.113.27-.098.277-.07.289-.05.285-.028.297-.008.297.016.304.043.305.062.316.098.313.113.312.137.317.176.312.199.313.226.312.262.317.063.078.078.07.07.059.078.07.176.125.183.113.2.094.218.098.22.078.234.078.234.062.254.051.254.043.258.043.261.027.262.016.273.012.27.008h.2l.198-.008.192-.012.195-.016.192-.02.183-.023.18-.027.183-.035.176-.035.172-.043.168-.043.164-.05.168-.056.156-.058.164-.07.149-.063.226-.113.227-.13.219-.148.226-.168.227-.183.226-.207.227-.219.227-.234.05.27.055.234.059.203.043.156.046.164.059.219.035.12.043.134.043.129.063.132h4.593l-.086-.21-.062-.208-.063-.203-.043-.199-.035-.184-.023-.183-.027-.156-.028-.149-.027-.14-.016-.157-.02-.164-.015-.183-.008-.192-.008-.21-.011-.22-.008-.222-.106-5.98-.007-.235-.016-.219-.027-.218-.036-.207-.043-.22-.062-.226-.059-.238-.082-.258-.05-.133-.051-.129-.055-.12-.066-.133-.14-.243-.079-.125-.078-.113-.168-.219-.164-.199-.168-.183-.149-.157-.109-.105-.113-.094-.125-.105-.13-.086-.132-.098-.137-.086-.14-.086-.149-.078-.156-.082-.148-.066-.157-.07-.156-.063-.156-.051-.16-.055-.157-.043-.156-.035-.332-.058-.348-.07-.382-.063-.403-.051-.425-.055-.454-.035-.488-.023-.496-.012h-.324l-.313.012-.312.015-.305.028-.297.035-.289.035-.285.043-.281.05-.324.063-.399.086-.426.098-.445.113-.219.059-.199.062-.191.063-.176.066-.149.063-.12.07-.055.035-.043.035-.035.028-.024.03zl7.567 3.668v.566l-.008.239-.012.226-.023.215-.028.203-.035.191-.05.184-.055.164-.07.156-.036.07-.03.071-.048.063-.043.05-.101.106-.114.094-.253.175-.313.192-.16.097-.156.07-.157.06-.156.042-.156.035-.168.02-.172.008-.191.008-.203-.008-.227-.02-.234-.031-.243-.047-.125-.023-.113-.028-.101-.027-.098-.035-.094-.043-.082-.035-.066-.043-.055-.051-.094-.106-.078-.113-.082-.12-.058-.134-.051-.14-.035-.137-.028-.148-.008-.157.008-.133.028-.148.035-.148.05-.137.06-.149.07-.132.09-.13.085-.105.059-.05.07-.063.09-.05.094-.063.113-.051.129-.063.133-.05.148-.055.313-.102.168-.047.171-.03.176-.036.184-.027.172-.028.183-.007.262-.016.262-.012h.246l.234-.008h.235l.242-.007h.246l.254-.008" style="stroke:none;fill-rule:nonzero;fill:#202b4d;fill-opacity:1"/></svg>