<svg xmlns="http://www.w3.org/2000/svg" width="176pt" height="46.1pt" viewBox="0 0 176 46.1"><defs><clipPath id="a"><path d="M83 0h42v46.102H83Zm0 0"/></clipPath></defs><path d="M5.43 13.125.512 27.129c-.11.394-.223.793-.301 1.172a8 8 0 0 0-.18 1.137c-.035.386-.043.789-.015 1.164.027.37.093.71.226 1.12.133.407.328.88.574 1.294.254.414.57.77.938 1.054.367.297.785.524 1.289.703.5.18 1.086.301 1.582.368.492.058.887.058 1.281.058h11.317c.093-.004.187-.011.28-.039a1.1 1.1 0 0 0 .27-.14c.09-.06.184-.133.266-.227.086-.094.16-.215.219-.332.062-.121.113-.25.16-.375.41-1.242.809-2.484 1.102-3.406.296-.922.484-1.516.59-1.864.105-.347.124-.441.132-.527a.8.8 0 0 0-.008-.234.6.6 0 0 0-.086-.207.5.5 0 0 0-.168-.145.5.5 0 0 0-.19-.066c-.067-.016-.15-.016-.224-.024h-8.25c-.129 0-.261 0-.375-.023a1 1 0 0 1-.32-.149 1 1 0 0 1-.254-.207.9.9 0 0 1-.176-.308 1.8 1.8 0 0 1-.078-.434 2 2 0 0 1 .047-.5c.04-.195.106-.414.168-.633q2.064-6.059 4.117-12.129a.9.9 0 0 0 .035-.234.8.8 0 0 0-.066-.266.7.7 0 0 0-.148-.187.34.34 0 0 0-.18-.078c-.066-.016-.149-.016-.227-.02H6.395c-.063.004-.122.004-.188.02a2 2 0 0 0-.187.05c-.06.028-.122.063-.18.094a.8.8 0 0 0-.16.13.8.8 0 0 0-.149.171c-.039.067-.066.14-.101.215M26.379 18.8c-.067.009-.125.009-.2.028-.066.02-.14.047-.202.078-.059.035-.106.063-.145.102a.6.6 0 0 0-.121.129c-.035.043-.059.097-.086.152q-2.334 7.56-4.668 15.125c-.012.05-.02.106-.027.152 0 .055.008.102.02.149.015.047.038.09.081.133.04.039.094.078.14.105q.074.038.134.047c.039.008.078.012.12.02h7.137c.067 0 .133 0 .208-.02.066-.02.132-.055.195-.086a.36.36 0 0 0 .144-.133c.047-.066.086-.176.13-.281 1.593-5.043 3.19-10.082 4.784-15.133.016-.047.02-.094.028-.14a.5.5 0 0 0 0-.145.2.2 0 0 0-.047-.113.3.3 0 0 0-.086-.094c-.035-.027-.074-.04-.105-.055a.5.5 0 0 0-.11-.011H26.38zM55.184 26.387c2.05-7.114-8.23-11.801-17.66-5.047-4.536 3.242-6.11 9.62-1.383 12.504 2.398 1.465 4.808 1.804 8.12 1.277 4.212-.668 9.548-3.969 10.923-8.742Zm-7.43.687c-1.43 3.02-8.121 3.387-6.684-.633.434-1.218 2.063-2.324 3.758-2.464 1.883-.16 3.906 1.035 2.934 3.105zM30.95 10.813c2.655-.422 4.894.66 5.003 2.414.11 1.75-1.957 3.515-4.613 3.933-2.656.422-4.895-.656-5.004-2.41-.11-1.754 1.957-3.516 4.613-3.937M59.727 18.715q-2.437 7.766-4.868 15.531c-.02.102-.043.191-.035.281 0 .086.028.164.063.235a.4.4 0 0 0 .133.152q.076.06.16.078a.4.4 0 0 0 .125.016h7.086c.066 0 .14 0 .214-.016.07-.012.16-.039.227-.066a.5.5 0 0 0 .16-.094.6.6 0 0 0 .117-.145c.036-.054.055-.109.082-.16.895-3.03 1.782-6.062 2.676-9.097.063-.16.121-.313.23-.418.106-.102.266-.14.493-.188.226-.039.52-.082.91-.105a27 27 0 0 1 1.234-.055c.368-.012.625-.012.82.012.196.027.321.09.407.148a.6.6 0 0 1 .207.215c.055.086.11.207.137.387.023.18.023.414 0 .62-.028.2-.09.372-.176.626s-.192.601-.602 1.89c-.406 1.29-1.113 3.528-1.816 5.762q-.017.069-.027.149a1 1 0 0 0 0 .168q.01.076.062.16a.5.5 0 0 0 .125.133.36.36 0 0 0 .168.058c.055.008.094.016.133.016h7.266c.085 0 .175 0 .242-.02a.5.5 0 0 0 .183-.093c.055-.043.102-.09.14-.133a1 1 0 0 0 .083-.13c.836-2.75 1.676-5.5 2.512-8.253.05-.192.113-.387.172-.7.062-.316.113-.757.148-1.109a6 6 0 0 0 0-.968c-.027-.34-.082-.747-.14-1.067a3.6 3.6 0 0 0-.208-.758c-.086-.199-.203-.379-.347-.605a7 7 0 0 0-.516-.774 4 4 0 0 0-.727-.722 8 8 0 0 0-.953-.637 7.5 7.5 0 0 0-.89-.398 7 7 0 0 0-.934-.313c-.355-.09-.773-.148-1.418-.176a32 32 0 0 0-2.207-.004c-.715.024-1.277.07-1.785.137-.5.067-.95.156-1.356.25-.414.094-.785.192-1.18.3-.39.106-.788.212-1.202.274-.414.051-.848.051-1.16.028A3.4 3.4 0 0 1 63.18 19c-.223-.05-.48-.113-.711-.16a6 6 0 0 0-.692-.121q-.383-.038-.918-.04c-.351 0-.754.02-1.144.04zM151.96 18.426c-.046 0-.085.008-.132.015a.5.5 0 0 0-.129.051c-.039.028-.07.063-.105.094-.028.035-.055.066-.074.11a1 1 0 0 0-.051.124c-1.606 5.215-3.2 10.43-4.805 15.645-.004.047-.02.094-.02.148 0 .055.016.102.036.149.02.043.05.086.093.113.04.031.098.05.149.066.05.012.098.012.144.012h7.457c.07-.008.137-.008.196-.027a.4.4 0 0 0 .152-.094c.043-.039.074-.094.102-.14q.03-.069.047-.126c1.628-5.25 3.257-10.496 4.886-15.746a.4.4 0 0 0 .016-.101c0-.032 0-.067-.016-.106-.011-.031-.023-.074-.05-.097a.3.3 0 0 0-.102-.07.6.6 0 0 0-.125-.024c-.043-.008-.09-.008-.129-.008h-7.55zM156.691 10.55c2.657-.421 4.899.66 5.008 2.415.11 1.754-1.957 3.515-4.613 3.933-2.656.422-4.899-.66-5.008-2.41-.105-1.754 1.957-3.515 4.613-3.937M138.32 25.773c-.55 1.836-1.625 5.332-2.691 8.84-.008.028-.008.055-.008.094.008.04.02.086.047.125a.3.3 0 0 0 .113.094c.04.02.082.027.11.027.023.008.05.008.07.008h7.453c.04-.008.086-.008.125-.016.043-.004.074-.02.113-.03a.601.601 0 0 0 .25-.168c.032-.048.067-.095.094-.15 1.649-5.273 3.29-10.542 4.941-15.816a.6.6 0 0 0 .028-.195.26.26 0 0 0-.09-.14c-.04-.024-.078-.024-.117-.024-.91 0-1.82 0-2.426-.027-.602-.028-.902-.075-1.184-.133a8 8 0 0 1-.8-.211c-.266-.086-.547-.192-.793-.278a8 8 0 0 0-.79-.234c-.331-.086-.785-.2-1.175-.289a14 14 0 0 0-1.153-.207 23 23 0 0 0-1.55-.145 15 15 0 0 0-1.547 0c-.524.028-1.078.086-1.504.153-.43.058-.734.129-1.035.215s-.602.187-.895.3c-.297.114-.59.227-.886.368q-.45.208-.958.488c-.34.183-.707.398-1.082.668-.375.265-.761.594-1.148.933s-.773.7-1.14 1.086c-.376.391-.735.809-1.079 1.309a18 18 0 0 0-.945 1.605c-.281.528-.516 1-.707 1.434-.195.441-.356.844-.516 1.395-.16.562-.312 1.277-.386 1.878a7.7 7.7 0 0 0-.047 1.48c.027.392.086.677.144.938.063.258.114.489.176.688.059.2.113.379.188.547q.1.257.253.508.147.26.34.52c.133.175.282.347.414.487.133.149.246.262.395.375q.218.17.52.34a4 4 0 0 0 .703.313c.265.086.566.148.875.18.296.035.605.035.89.035.29 0 .559 0 .797-.028.238-.027.453-.086.707-.172a8.948 8.948 0 0 0 1.543-.695c.254-.148.54-.32.8-.496.263-.172.49-.344.716-.547.226-.2.453-.426.62-.621.177-.2.29-.367.407-.539.113-.176.234-.355.348-.555.113-.199.234-.422.32-.648.09-.227.14-.461.2-.688-.11.059-.223.121-.38.18-.152.063-.34.113-.62.2a7 7 0 0 1-.981.253 3 3 0 0 1-.856.027 1.7 1.7 0 0 1-.586-.164 2.1 2.1 0 0 1-.523-.343 1.6 1.6 0 0 1-.371-.5c-.09-.18-.13-.367-.149-.649-.02-.277-.02-.644.012-.96.027-.313.09-.567.14-.837.063-.265.122-.539.208-.82a9 9 0 0 1 .343-.898c.137-.325.313-.672.512-1.012.2-.348.43-.695.746-1.067a8 8 0 0 1 1.082-1.062c.364-.285.668-.46.97-.574.3-.113.589-.172.862-.207q.411-.044.786.008c.25.03.484.093.656.18.176.085.281.19.383.308.09.113.171.226.226.37.059.15.098.321.113.497.02.172.012.348 0 .52-.02.175-.046.347-.601 2.183zM162.566 18.426c-1.656 5.316-3.304 10.633-4.96 15.953a.8.8 0 0 0-.028.195c0 .067.02.14.059.2a.3.3 0 0 0 .152.124 1 1 0 0 0 .215.055c.059.008.101.008.14.008h6.938c.063 0 .113 0 .2-.02.081-.02.195-.054.292-.109a.76.76 0 0 0 .27-.227c.066-.093.105-.199.144-.312.739-2.543 1.473-5.094 2.207-7.64.075-.212.145-.426.235-.606.086-.18.191-.32.304-.45.114-.12.235-.226.348-.312q.171-.142.356-.242c.125-.074.257-.133.414-.188.152-.05.332-.105.511-.136.176-.035.348-.063.516-.063s.32.016.453.035c.133.028.234.051.367.098.125.047.29.102.442.156 1.289-1.562 2.57-3.125 3.859-4.683-.062-.164-.113-.325-.2-.492a2.2 2.2 0 0 0-.355-.497 3.3 3.3 0 0 0-.554-.464 3 3 0 0 0-.641-.329 5 5 0 0 0-.723-.214 6.4 6.4 0 0 0-1.066-.141 13 13 0 0 0-1.598.043c-.531.047-1.011.125-1.48.191-.469.067-.922.13-1.367.168-.45.04-.903.075-1.352.078-.445.008-.894 0-1.242-.03-.348-.036-.586-.087-1.04-.114-.46-.027-1.136-.027-1.812-.027z" style="stroke:none;fill-rule:evenodd;fill:#ed1c24;fill-opacity:1"/><g clip-path="url(#a)"><path d="M110.734 10.54c0 .296.274.823.157.855-.63-.051-.938-.653-.938-1.32 0-1.27 2.344-1.712 2.727-.083-.282-.14-.844-.312-1.168-.312-.375 0-.782.488-.782.855Zm-1.515 29.3c-.04-.274-.094-.613-.14-.961l.882-.059h.027c.48-.035 1.285-.152 2.637-.863.82-.434 1.965-1.59 2.488-2.336.844-1.203 1.29-2.703 1.29-4.246v-.074c0-.403-.04-.793-.098-1.176-.008-.027-.008-.059-.016-.086l-.004-.02a7.7 7.7 0 0 0-.668-2.062c-.941-1.945-2.754-3.305-4.8-3.855a8 8 0 0 0-1.297-.235l-.075-.004-.066-.008a7.45 7.45 0 0 0-3.664.641c-.113.055-.223.102-.32.156a7.6 7.6 0 0 0-2.344 1.84l-.016.02-.125-.059c-2.34-1.121-5.785-7.625-6.597-10.582-1.008-3.66-1.653-9.883-.829-13.676.125-.59.286-1.418.348-1.703-2.371-1.504-5.637.54-6.004 5.18-.594 7.48 3.992 15.297 9.34 19.945.777.676 1.371 1.11 1.797 1.442l1.148.836c-.168.32-.312.66-.433 1.007a25 25 0 0 1-2.446-1.62 48 48 0 0 1-2.222-1.743c-1.61-1.375-2.45-2.324-3.914-4.02-1.809-2.097-4.914-7.331-5.07-10.956-3.516-.47-5.7 6.167.878 12.222 4.262 3.93 7.059 5.11 12.461 7.375a7 7 0 0 0-.09.828l-.004.07c-.867.075-4.109-.96-5.027-1.292-8.46-3.07-10.43-6.746-11.414-7.782-1.383.985-1.61 3.813-.387 5.45 2.07 2.773 6.567 4.367 10.07 4.761 2.176.246 3.852.356 6.036.262l.804-.074q.078.564.23 1.094l-.116.027-.149.035h-.007c-4.602.941-8.247.738-12.649-.668-1.254-.402-2.875-1.363-3.082-1.476-.394.328-1.144 5.93 6.488 5.988 1.918.015 3.84-.36 5.489-.887 1.558-.5 2.972-1.11 4.546-1.715.157.293.325.574.516.848l-.219.2c-.047.054-.105.1-.168.151-1.054.903-3.652 2.004-4.996 2.438-3.004.969-4.324.816-7.312.469.363 3.965 4.808 3.484 7.336 2.492 2.554-1.012 4.254-2.918 6.133-4.805q.32.334.683.621c-.16.364-.34.664-.547.97-1.097 1.597-3.812 3.667-5.426 4.401-1.652.754-2.601.801-2.847.848.152 1.035 1.234 1.594 2.504 1.59 3.804-.035 6.273-4.902 6.968-6.305l.395-.789c.254.149.52.274.797.39l-.29.946c-.01.043-.027.086-.038.133v.008c-.168.52-.48 1.21-1 2.082-1.938 3.261-3.696 3.754-3.895 3.855.442.774 1.79.98 2.805.567 2.476-1 2.851-4.66 3.285-6.72l.106-.55q.396.105.816.164l.008.035c.453 4.282-1.465 6.344-1.586 6.543 1.316.227 2.46-.011 3.066-1.015.586-.97.309-2.602.16-3.785 1.336-.047 2.891-.5 3.907-.836 3.226-1.075 5.363-3.817 6.25-7.024.086-.308.218-.621.293-.95.515 0 1.09-.05 1.09-.698 0-.14-.13-.563-.196-.668-.2-.32-1.055-.864-1.055-1.75 0-.196.114-.516.157-.703.418-.032 1.011-.465 1.011-.934 0-.7-1.187-1.066-1.62-1.496-.426-.426-.958-1.5-.958-2.164 0-.399-.199-1.402.39-1.402.622 0 3.118 1.277 3.118-2.57-.976.468-1.683.78-2.664.015-1.148-.895-.195-3.988 1.965-3.988.465 0 .8.101 1.031.367.207.234.356.715.367 1.117.438-.29.75-.668 1.07-1.11.196-.265.567-1.28.567-1.695 0-.289-.144-.386-.125-.613.031-.367.54-.856-.102-1.266-.507-.32-1.507.274-3.222-.586-.23-.113-.477-.285-.676-.34.008-.433.152-.5.152-.933 0-.684-2.125-1.54-2.851-1.984-.508-.317-.973-.637-1.375-1.036-.563-.57-.832-1.03-.906-1.328a.84.84 0 0 0-.395-.093c-.64 0-1.121.488-1.25 1.011a2.6 2.6 0 0 0-.445-.386 4 4 0 0 0-.621-.34c-1.438-.614-2.395-.649-3.922-1.457-.567.382-1.04.996-.856 1.793-.718-.383-1.367-.317-2.14-.203-.47.07-1.957.277-2.34.25-.371 0-.895-.07-1.2-.13-.035.434-.234.79-.234 1.325 0 .527.16.86.235 1.015-.883 0-1.325.004-2.032.145a7.8 7.8 0 0 1-2.015.16c-.223.934-.254 1.402.246 2.324.18.332.586.934.762 1.11-.387.133-1.09.265-1.485.312 0 1.102.477 2.656.762 3.68.848 3.031 2.344 5.562 4.226 8.008.188.238.364.437.547.62.196-.187.336-.308.551-.468 1.762-1.371 3.438-1.95 5.84-1.95 1.144 0 2.547.407 3.328.802 1.055.535 1.668.953 2.457 1.75 1.121 1.12 1.817 2.46 2.207 4.023.813 3.172-.316 6.945-2.976 8.863-.465.332-.895.582-1.422.848-.84.422-2.36.816-3.551.855Zm10.242-28.285c-.098.441-.5 1.023-.7 1.402-.128-.094-.331-.367-.488-.527a2.8 2.8 0 0 1-.449-.64c.352 0 .621-.02.871-.067.352-.059.465-.149.766-.168" style="stroke:none;fill-rule:evenodd;fill:#ed1c24;fill-opacity:1"/></g></svg>