<?xml version="1.0" encoding="utf-8"?>
<!-- Generator: Adobe Illustrator 28.0.0, SVG Export Plug-In . SVG Version: 6.00 Build 0)  -->
<svg version="1.1" id="Layer_1" xmlns="http://www.w3.org/2000/svg" xmlns:xlink="http://www.w3.org/1999/xlink" x="0px" y="0px"
	 viewBox="0 0 176 59" style="enable-background:new 0 0 176 59;" xml:space="preserve">
<style type="text/css">
	.st0{fill:#D8233D;}
	.st1{fill:#FF6423;}
</style>
<g id="layer1">
	<g id="g4">
		<path id="path356-0-0" class="st0" d="M58.6,0h-4v12.7h4V0z M29,0v12.7h4v-2.7h6.2c0.7,0.8,1.2,1.7,1.6,2.7H45     c-0.5-1.3-0.9-2.6-2.2-3.9c0,0,2.1-1.1,2.1-4.1c0-4.5-5.6-4.7-6-4.7L29,0z M90.1,0h-8.5v12.7h4h5c3.6,0,7.3-1.9,7.3-6.4     C97.8,1.7,93.9,0,90.1,0L90.1,0z M7.9,0C3.8,4.4,1.4,9.3,1.4,12.7h4.1c0-0.7,0.1-1.4,0.2-2.1h9.2c0.2,0.7,0.3,1.4,0.3,2.1h4.1     c0-3.4-2.5-8.3-6.5-12.7L7.9,0z M21.7,0v12.7h4V0L21.7,0z M61.9,0v12.7h3.9V4.1c4.7,1.8,7.3,5.6,8.9,8.6h3.5V0h-3.9v5.8     c-2.4-2.7-5.4-4.7-8.9-5.8L61.9,0z M100.4,0v12.7h4V0L100.4,0z M113.2,0c-4.1,4.4-6.5,9.3-6.5,12.7h4.1c0-0.7,0.1-1.4,0.2-2.1h9.2     c0.2,0.7,0.3,1.4,0.3,2.1h4.1c0-3.4-2.5-8.3-6.5-12.7H113.2z M10.3,2.4c1.2,1.2,2.6,3.3,3.6,5.5H6.7C7.6,5.9,8.8,4.1,10.3,2.4z      M115.7,2.4c1.2,1.2,2.6,3.3,3.6,5.5H112C113,5.9,114.2,4.1,115.7,2.4L115.7,2.4z M33.1,2.9h3.5c2.8,0,4.3,0.1,4.3,2.2     c0,1.8-1.5,2.1-2.7,2.1h-5.2L33.1,2.9z M85.6,3h3.5c3.4,0,4.6,1.4,4.6,3.4c0,2.8-2.4,3.4-4.6,3.4h-3.5L85.6,3z"/>
		<path id="path5-4" class="st1" d="M141.2,45.8c7.4,0,11-1.9,11-7.4v-0.9c0-4.4-1.9-6.3-8.1-7.3l-3-0.5c-4.7-0.8-5.3-1.1-5.3-3.3     v-0.2c0-2.3,1.5-3.2,6.1-3.2h0.3c2.5,0,5.9,0.5,9.2,1.4V20c-3.1-1-6.3-1.5-9.5-1.6h-0.3c-7.2,0-10.9,2.2-10.9,7.5v0.9     c0,4.8,2.3,6.1,8,6.9l3,0.4c4.8,0.7,5.5,1.6,5.5,3.7v0.2c0,2.4-1.1,3.4-6.3,3.4h-0.3c-2.5,0-6-0.7-9.4-1.6v4.3     c2.9,0.8,7,1.6,9.6,1.6L141.2,45.8z"/>
		<path id="path5-6-2" class="st1" d="M165,45.8c7.4,0,11-1.9,11-7.4v-0.9c0-4.4-1.9-6.3-8.1-7.3l-3-0.5c-4.7-0.8-5.3-1.1-5.3-3.3     v-0.2c0-2.3,1.5-3.2,6.1-3.2h0.3c2.5,0,5.9,0.5,9.2,1.4V20c-3.1-1-6.3-1.5-9.5-1.6h-0.3c-7.2,0-10.9,2.2-10.9,7.5v0.9     c0,4.8,2.3,6.1,8,6.9l3,0.4c4.8,0.7,5.5,1.6,5.5,3.7v0.2c0,2.4-1.1,3.4-6.3,3.4h-0.3c-2.5,0-6-0.7-9.4-1.6v4.3     c2.9,0.8,7,1.6,9.6,1.6L165,45.8z"/>
		<path id="path3-1-3" class="st1" d="M100,18.7c-5.3,0-9,3.6-9,3.6V19h-4.9v26.3H91V26.6c3.2-2.7,7.3-3.9,11.4-3.2v-4.6     C101.6,18.7,100.8,18.7,100,18.7L100,18.7z"/>
		<path id="path2-5-8" class="st1" d="M61.9,22.3V19H57v34.3h4.9V44c2.6,1.1,5.5,1.6,8.3,1.6h0.4c7.6,0,10.9-3.1,10.9-11.4v-5.6     c0-6.9-2.7-9.9-9.2-9.9C65.5,18.7,61.9,22.3,61.9,22.3z M76.7,34.6c0,5.1-1.4,6.6-7.1,6.6c-5.1,0-7.6-1.5-7.6-1.5v-13     c0,0,4-3.6,8.5-3.6s6.3,1.5,6.3,6.4L76.7,34.6z"/>
		<path id="text1-9-9-7" class="st1" d="M12.3,34.2c3.8,0,7.2-0.1,11.5-0.5V29c0-7.3-2.5-10.5-10.9-10.5h-0.9     C3.3,18.5,0,22.2,0,29.9v4.6c0,7.7,3.7,11.3,12.7,11.3h0.7c3.2-0.1,6.4-0.6,9.5-1.6v-4.3c-3.3,0.9-6,1.6-8.9,1.6h-0.4     c-6.5,0-8.5-2-8.5-6.6V34C7.8,34.1,10.1,34.2,12.3,34.2z M12.6,22.9c4.8,0,6.3,1.6,6.3,6.3V30c-2.5,0.1-4.7,0.2-7,0.2     c-2.1,0-4.2,0-6.7-0.2v-0.7c0-4.6,2.1-6.6,6.7-6.6L12.6,22.9z"/>
		<path id="text1-9-9-5-4" class="st1" d="M116.1,34.2c3.8,0,7.2-0.1,11.5-0.5V29c0-7.3-2.5-10.5-10.9-10.5h-0.9     c-8.6,0-11.9,3.7-11.9,11.4v4.6c0,7.7,3.7,11.3,12.7,11.3h0.7c3.2-0.1,6.4-0.6,9.5-1.6v-4.3c-3.3,0.9-6,1.6-8.9,1.6h-0.4     c-6.5,0-8.5-2-8.5-6.6V34C111.6,34.1,113.9,34.2,116.1,34.2L116.1,34.2z M116.4,22.9c4.8,0,6.3,1.6,6.3,6.3V30     c-2.5,0.1-4.7,0.2-7,0.2c-2.1,0-4.2,0-6.7-0.2v-0.7c0-4.6,2.1-6.6,6.7-6.6L116.4,22.9z"/>
		<path id="path6-7-1-1-5-0-9" class="st1" d="M29.4,18.9c-2.9,0-3.5,0.5-3.5,0.5v4.2c0,0,0.6-0.4,2.6-0.4c2,0,3.9,0.6,5.7,4.3     l2.4,4.7l-2.8,5.6c-0.6,1.1-2,3.3-5.1,3.3c-1.9,0-2.7-0.4-2.7-0.4v4.3c0,0,0.8,0.5,3.7,0.5c4.3,0,6.8-1.5,9.3-6.9l2.9-6.3     l-2.9-6.3c-1.1-2.4-2-4.1-3.9-5.5C33.5,19.3,31.6,18.9,29.4,18.9z M50.4,18.9c-1.4,0-2.8,0-4.5,0.8c-1.7,0.8-3.5,2.4-5,5.1     l2.2,4.9c1.9-3.3,3.6-6.5,7.7-6.5c1,0,2,0.1,2.9,0.5v-4.3C52.7,19,51.6,18.9,50.4,18.9L50.4,18.9z M43.1,34.7l-2.2,5     c1.6,2.6,3.3,4.1,5,4.9s3.2,0.8,4.5,0.8c1.1,0,2.2-0.1,3.3-0.4v-4.4c-0.9,0.3-1.9,0.4-2.9,0.4C46.4,41.1,45.1,37.9,43.1,34.7z"/>
	</g>
</g>
</svg>
