<svg xmlns="http://www.w3.org/2000/svg" width="164.213" height="59pt" viewBox="0 0 123.16 59"><defs><clipPath id="a"><path d="M96 14h27.16v31H96Zm0 0"/></clipPath><clipPath id="b"><path d="M83 47h40.16v12H83Zm0 0"/></clipPath></defs><path d="M8.719 34.598q-.001-.278.097-.614L.027 35.586c.024.324.067.64.118.941l8.609-1.562a2 2 0 0 1-.035-.367" style="stroke:none;fill-rule:nonzero;fill:#d4088c;fill-opacity:1"/><path d="M12.8 44.063c1.65 0 3.497-.211 5.294-.536l8.629-1.57v-5.164L2.77 41.148c2.582 2.196 6.546 2.914 10.03 2.914" style="stroke:none;fill-rule:nonzero;fill:#339d88;fill-opacity:1"/><path d="M13.453 37.938c-2.48 0-3.781-1.043-4.36-2.06l-8.73 1.587a7.5 7.5 0 0 0 1.567 2.86l14.11-2.563a17 17 0 0 1-2.587.175" style="stroke:none;fill-rule:nonzero;fill:#f5a00e;fill-opacity:1"/><path d="m0 34.613 9.453-1.718c.711-.786 2.004-1.454 4.184-1.454 1.277 0 2.195.075 2.855.172l10.227-1.86v-3.265L.832 31.2c-.504.957-.809 2.086-.832 3.414" style="stroke:none;fill-rule:nonzero;fill:#63bc31;fill-opacity:1"/><path d="M12.34 26.059c-2.856 0-8.149.75-10.777 4.03l16.527-3.007s-1.856-1.023-5.75-1.023" style="stroke:none;fill-rule:nonzero;fill:#27883d;fill-opacity:1"/><path d="M20.469 15.875 1.519 19.32l3.211 4.7c1.668-1.024 5.008-2.504 7.887-2.504 2.875 0 5.473 1.574 5.473 3.8v1.766l8.348-1.52.277-.046c-.117-4.504-2.39-7.868-6.246-9.641" style="stroke:none;fill-rule:nonzero;fill:#a31582;fill-opacity:1"/><path d="M13.266 14.46c-8.258 0-12.34 3.993-12.34 3.993l17.797-3.238c-1.618-.492-3.446-.754-5.457-.754" style="stroke:none;fill-rule:nonzero;fill:#e73421;fill-opacity:1"/><path d="m18.09 37.387 8.629-1.57v-3.145l-8.63 1.57z" style="stroke:none;fill-rule:nonzero;fill:#499ddc;fill-opacity:1"/><path d="m18.09 33.266 8.629-1.57v-.966l-8.63 1.57z" style="stroke:none;fill-rule:nonzero;fill:#85752f;fill-opacity:1"/><path d="m93.316 0-8.742 1.59v8.797l8.742-1.59z" style="stroke:none;fill-rule:nonzero;fill:#334aa6;fill-opacity:1"/><g clip-path="url(#a)"><path d="M109.68 14.398c-8.278 0-12.371 4-12.371 4l3.816 5.579c1.672-1.024 5.02-2.512 7.902-2.512s5.489 1.582 5.489 3.812v1.77s-1.864-1.024-5.766-1.024c-3.906 0-12.367 1.395-12.367 8.739 0 7.347 7.066 9.3 12.832 9.3 1.652 0 3.504-.21 5.3-.539l8.645-1.57V25.836c0-7.066-5.207-11.438-13.48-11.438m4.836 22.973-1.844.34c-.688.125-1.606.215-2.809.215-3.625 0-4.742-2.235-4.742-3.348 0-1.117 1.117-3.164 4.93-3.164s4.465.652 4.465.652z" style="stroke:none;fill-rule:nonzero;fill:#334aa6;fill-opacity:1"/></g><path d="M84.574 15.191v28.352l8.742-1.59V13.602zM38.238 14.398l-7.46 1.356v27.789l7.46-1.36 1.282-.23V27.008c0-3.133 3.125-5.086 6.492-5.219 1.101-.043 2.304.098 3.293.32V14.48c-1.094-.195-1.813-.296-3.293-.25-4.18.13-6.563 2.848-7.774 4.977zM75.656 23.773c2.946-3.55 4.578-6.77 5.235-7.914L69.67 17.9c-1.769 2.722-5.03 6.515-7.886 8.706V5.735l-8.738 1.59v36.218l8.738-1.59v-6.988c1.086-.512 1.77-1.04 1.77-1.04l8.562 9.712 9.621-1.75-11.117-12.61a82 82 0 0 0 5.035-5.504" style="stroke:none;fill-rule:nonzero;fill:#334aa6;fill-opacity:1"/><g clip-path="url(#b)"><path d="m93.309 47.691 2.023-.37v4.449l-2.023.37Zm28.328 5.746.187-.863c.258-1.195.473-2.418.633-3.629l.215-1.613-1.965.36a48 48 0 0 1-.469 3.07l-.152.804-3.242-4.285-2.235.41 1.047 1.243-.32 1.48a46 46 0 0 0-.633 3.629l-.215 1.613 1.965-.36c.149-1.25.348-2.503.594-3.737l.16-.793 3.715 4.941 2.238-.41Zm-12.746-6.003c-1.805 0-2.942.644-3.403.968l.867 1.266c.586-.297 1.497-.648 2.329-.648 1.171 0 2.09.687 2.09 1.562v5.086l1.992-.363v-4.637c0-2.027-1.45-3.234-3.875-3.234m-19.864 5.543c0 .605-.52 1.074-1.277 1.336-.262.085-.41.109-.41.109l-.059-.34a52 52 0 0 0-1.527-6.758l-1.863.383c.59 1.992 1.175 4.45 1.515 6.648-.523-.144-1.14-.433-1.39-.554l-.942 1.261c.508.333 1.75.973 3.711.973 2.613 0 4.235-1.238 4.235-3.234v-5.469l-1.993.414ZM97.507 59l2.024-.367v-7.824l-2.023.37Zm2.743-11.555c-1.316 0-2.531.211-3.055.32V49.5c.64-.14 1.84-.371 2.856-.371.672 0 1.863.09 2.344.695.32.41.425 1 .312 1.762-.09.594-.273 1.215-.61 1.707-.234.344-.574.64-.878.875l1.074 1.492c.387-.285 1-.793 1.406-1.387.344-.5.617-1.21.77-2 .344-1.77.11-3.125-.656-3.816-.977-.879-2.653-1.012-3.563-1.012" style="stroke:none;fill-rule:nonzero;fill:#334aa6;fill-opacity:1"/></g></svg>