<?xml version="1.0" encoding="UTF-8"?>
<svg xmlns="http://www.w3.org/2000/svg" xmlns:xlink="http://www.w3.org/1999/xlink" width="237.3pt" height="89.17pt" viewBox="0 0 237.3 89.17" version="1.1">
<defs>
<clipPath id="clip1">
  <path d="M 149 15 L 222 15 L 222 89.171875 L 149 89.171875 Z M 149 15 "/>
</clipPath>
<clipPath id="clip2">
  <path d="M 183 0 L 237.300781 0 L 237.300781 47 L 183 47 Z M 183 0 "/>
</clipPath>
</defs>
<g id="surface1">
<path style=" stroke:none;fill-rule:nonzero;fill:rgb(15.41748%,22.889709%,48.835754%);fill-opacity:1;" d="M 137.828125 28.011719 L 0 28.011719 L 0 27.238281 L 137.828125 27.238281 L 137.828125 28.011719 "/>
<path style=" stroke:none;fill-rule:nonzero;fill:rgb(15.41748%,22.889709%,48.835754%);fill-opacity:1;" d="M 137.828125 77.703125 L 0 77.703125 L 0 76.929688 L 137.828125 76.929688 L 137.828125 77.703125 "/>
<g clip-path="url(#clip1)" clip-rule="nonzero">
<path style=" stroke:none;fill-rule:nonzero;fill:rgb(15.41748%,22.889709%,48.835754%);fill-opacity:1;" d="M 220.0625 63.460938 C 215.4375 77.464844 202.230469 87.605469 186.695312 87.605469 C 167.324219 87.605469 151.5625 71.84375 151.5625 52.472656 C 151.5625 33.097656 167.324219 17.339844 186.695312 17.339844 C 192.597656 17.339844 198.15625 18.804688 203.039062 21.386719 L 204.300781 20.277344 C 199.070312 17.410156 193.070312 15.773438 186.695312 15.773438 C 166.460938 15.773438 149.996094 32.234375 149.996094 52.472656 C 149.996094 72.707031 166.460938 89.171875 186.695312 89.171875 C 203.136719 89.171875 217.085938 78.308594 221.742188 63.382812 L 220.0625 63.460938 "/>
</g>
<path style=" stroke:none;fill-rule:nonzero;fill:rgb(29.266357%,65.740967%,88.693237%);fill-opacity:1;" d="M 163.183594 63.78125 C 184.371094 61.828125 205.359375 58.582031 226.058594 53.371094 C 225.734375 54.804688 225.414062 56.230469 225.097656 57.660156 C 198.621094 63.695312 180.15625 64.25 163.183594 63.78125 "/>
<path style=" stroke:none;fill-rule:nonzero;fill:rgb(29.266357%,65.740967%,88.693237%);fill-opacity:1;" d="M 166.550781 61.679688 C 186.394531 58.5625 206.714844 53.625 227.578125 46.566406 C 227.253906 48.027344 226.925781 49.492188 226.597656 50.957031 C 203.453125 58.230469 183.71875 61.480469 166.550781 61.679688 "/>
<path style=" stroke:none;fill-rule:nonzero;fill:rgb(46.875%,82.595825%,90.046692%);fill-opacity:1;" d="M 169.785156 59.441406 C 189.246094 54.589844 209.066406 47.796875 229.125 39.664062 C 228.796875 41.136719 228.46875 42.609375 228.136719 44.082031 C 206.890625 52.425781 187.230469 57.917969 169.785156 59.441406 "/>
<path style=" stroke:none;fill-rule:nonzero;fill:rgb(69.656372%,89.151001%,89.715576%);fill-opacity:1;" d="M 173.011719 56.796875 C 192.632812 50.832031 211.933594 41.863281 231.039062 31.117188 C 230.636719 32.921875 230.230469 34.730469 229.824219 36.535156 C 206.945312 47.894531 187.558594 55.171875 173.011719 56.796875 "/>
<path style=" stroke:none;fill-rule:nonzero;fill:rgb(46.875%,82.595825%,90.046692%);fill-opacity:1;" d="M 177.1875 53.996094 C 199.222656 43.339844 217.140625 32.296875 233.28125 21.085938 C 232.839844 23.078125 232.394531 25.066406 231.945312 27.054688 C 213.644531 38.738281 195.378906 48.417969 177.1875 53.996094 "/>
<path style=" stroke:none;fill-rule:nonzero;fill:rgb(29.266357%,65.740967%,88.693237%);fill-opacity:1;" d="M 180.394531 50.535156 C 202.066406 36.835938 220.863281 22.898438 236.0625 8.667969 C 235.519531 11.097656 234.976562 13.53125 234.433594 15.960938 C 216.453125 31.472656 198.050781 42.160156 180.394531 50.535156 "/>
<g clip-path="url(#clip2)" clip-rule="nonzero">
<path style=" stroke:none;fill-rule:nonzero;fill:rgb(29.266357%,65.740967%,88.693237%);fill-opacity:1;" d="M 237.300781 -0.00390625 C 235.257812 0.0507812 233.210938 0.101562 231.167969 0.15625 C 223.59375 9.421875 215.945312 17.4375 208.261719 24.757812 C 199.9375 32.691406 191.570312 39.804688 183.191406 46.804688 C 201.539062 34.421875 219.742188 20.558594 237.300781 -0.00390625 "/>
</g>
<path style=" stroke:none;fill-rule:nonzero;fill:rgb(15.41748%,22.889709%,48.835754%);fill-opacity:1;" d="M 17.984375 40.199219 L 9.714844 56.683594 L 26.203125 56.683594 Z M 8.144531 59.980469 L 3.90625 68.25 C 2.964844 70.1875 -0.488281 68.828125 0.453125 66.734375 L 16.257812 35.59375 C 16.570312 34.914062 17.304688 34.597656 17.984375 34.597656 C 18.664062 34.597656 19.292969 34.914062 19.660156 35.59375 L 35.414062 66.574219 C 36.773438 68.828125 32.898438 70.132812 31.90625 68.09375 L 27.824219 59.980469 L 8.144531 59.980469 "/>
<path style=" stroke:none;fill-rule:nonzero;fill:rgb(15.41748%,22.889709%,48.835754%);fill-opacity:1;" d="M 44.988281 65.164062 L 67.339844 65.164062 C 69.796875 65.164062 69.851562 68.617188 67.339844 68.773438 L 41.484375 68.773438 C 39.445312 68.773438 38.816406 67.152344 39.96875 65.738281 L 63.414062 38.890625 L 42.21875 38.890625 C 39.914062 38.890625 39.863281 35.59375 42.21875 35.433594 L 67.128906 35.433594 C 69.277344 35.433594 69.851562 37.058594 68.648438 38.574219 L 44.988281 65.164062 "/>
<path style=" stroke:none;fill-rule:nonzero;fill:rgb(15.41748%,22.889709%,48.835754%);fill-opacity:1;" d="M 89.371094 40.199219 L 81.105469 56.683594 L 97.589844 56.683594 Z M 79.535156 59.980469 L 75.296875 68.25 C 74.351562 70.1875 70.898438 68.828125 71.839844 66.734375 L 87.648438 35.59375 C 87.960938 34.914062 88.695312 34.597656 89.371094 34.597656 C 90.054688 34.597656 90.679688 34.914062 91.046875 35.59375 L 106.800781 66.574219 C 108.160156 68.828125 104.289062 70.132812 103.296875 68.09375 L 99.214844 59.980469 L 79.535156 59.980469 "/>
<path style=" stroke:none;fill-rule:nonzero;fill:rgb(15.41748%,22.889709%,48.835754%);fill-opacity:1;" d="M 114.183594 68.773438 C 112.769531 68.773438 112.191406 68.09375 112.191406 66.839844 L 112.191406 36.796875 C 112.191406 34.335938 116.066406 34.335938 116.066406 36.796875 L 116.066406 65.320312 L 135.640625 65.320312 C 138.308594 65.320312 138.308594 68.773438 135.640625 68.773438 L 114.183594 68.773438 "/>
</g>
</svg>
