<svg xmlns="http://www.w3.org/2000/svg" width="176pt" height="71.587" viewBox="0 0 176 53.69"><defs><clipPath id="a"><path d="M0 9h176v44.691H0Zm0 0"/></clipPath></defs><path d="M4.93 19.152q1.516-1.909 2.945-4.539 1.434-2.625 3.254-6.949.124-.305.379-.937 1.148-2.783 1.898-4.313c.395-.836.723-1.355.98-1.566.259-.203.606-.309 1.044-.309q.874-.001 1.226.742c.239.492.356 1.399.356 2.711v.621l-.215 10.184 1.633-5.34q.872-2.83 1.808-4.605.936-1.77 2.024-2.707l.707 2.886q-.646.896-1.485 2.84c-.562 1.297-1.316 3.258-2.27 5.89l-.015.024c-1.207 3.332-2.246 5-3.125 5q-.756.001-1.066-.566-.312-.562-.313-2.004v-.227l.242-12.234q-2.214 5.882-3.984 9.672-1.774 3.79-3.203 5.722H4.93zM27.375 15.645a2.2 2.2 0 0 1-.383-.606 1.7 1.7 0 0 1-.113-.61q0-.832.48-1.402a1.8 1.8 0 0 1 1.254-.644c-.152-.551-.343-.95-.582-1.203q-.352-.38-.922-.38-1.064 0-2.03 1.337-.969 1.331-.97 2.863c0 .559.121.988.36 1.297q.363.461 1.008.46.504.001 1.015-.296.515-.294.883-.816m2.645-1.086c.039.007.09.015.144.02.055.003.113.003.184.003q.392 0 1.582-.984l.023-.012v2.25q-.506.48-.953.691-.452.206-.98.207-.117 0-.286-.023c-.113-.02-.316-.05-.601-.102a4.34 4.34 0 0 1-1.645 1.73q-1.05.622-2.316.622-1.67 0-2.598-.93-.93-.93-.93-2.59 0-2.707 1.75-4.71 1.753-2.004 4.055-2.004 1.407-.002 2.309.789.907.792.906 1.953.001.521-.203.844a1.24 1.24 0 0 1-.594.488.94.94 0 0 1 .266.379q.087.228.086.554 0 .194-.051.387a3 3 0 0 1-.148.438" style="stroke:none;fill-rule:nonzero;fill:#100f0d;fill-opacity:1"/><path d="M31.02 16.531v-2.199c.898-.719 1.648-1.379 2.238-1.988q.885-.91 1.289-1.645a4 4 0 0 1-.399-.707 1.6 1.6 0 0 1-.12-.582c0-.433.124-.785.374-1.066.246-.278.563-.414.942-.414q.632 0 .976.422c.227.285.36.71.403 1.285q.074 0 .23-.012.569-.04.781-.04 1.117-.001 1.621.31.504.312.504.98c0 .188-.035.406-.113.66a6 6 0 0 1-.328.848l-1.43 2.984c-.043.086-.09.188-.152.305-.117.234-.176.367-.176.39a.6.6 0 0 0 .031.211q.035.07.098.07.239-.002 1.363-.695a21 21 0 0 0 2.317-1.683v2.277q-1.745 1.29-3.157 2.004-1.411.715-2.156.715-.762 0-1.172-.336-.41-.334-.41-.953c0-.422.293-1.207.887-2.356.074-.148.133-.265.176-.34l1.367-2.667c.059-.13.101-.23.125-.313a.6.6 0 0 0 .039-.207c0-.121-.04-.203-.11-.246q-.105-.07-.41-.07-.064-.002-.234.02-.17.015-.258.015a19.6 19.6 0 0 1-2.336 2.746 20.5 20.5 0 0 1-2.8 2.277" style="stroke:none;fill-rule:nonzero;fill:#100f0d;fill-opacity:1"/><path d="M45.227 15.367a1.5 1.5 0 0 0-.094.309c-.024.11-.035.21-.035.312q-.002.152.027.215.026.064.074.063c.16 0 .598-.223 1.305-.672q1.061-.669 2.226-1.63v2.278q-1.744 1.29-3.156 2.004-1.41.715-2.16.715-.592-.001-.922-.277-.328-.282-.328-.786 0-.293.102-.675.1-.386.34-1.059l.496-1.316c-.442.406-.825.742-1.16 1.011q-.499.407-.915.672v-2.203a102 102 0 0 0 2.496-2.187q.944-.86 1.008-1.012l1.29-3.176h-2l.66-1.683h1.984q.887-2.958 1.562-4.165.678-1.2 1.399-1.199.408 0 .64.297c.157.2.235.469.235.817 0 .402-.301 1.312-.899 2.718a52 52 0 0 0-.644 1.532h1.86l-.645 1.683h-1.875z" style="stroke:none;fill-rule:nonzero;fill:#100f0d;fill-opacity:1"/><path d="M48.273 16.531v-2.199a53 53 0 0 0 3.164-2.824l3.81-9.121q.503-1.214 1.007-1.801.499-.591 1.016-.59.419.001.664.277.246.282.246.762 0 1.173-.953 3.36c-.637 1.453-1.532 3.085-2.676 4.902l-2.051 5.11 4.2-3.313q1.076-.862 1.831-1.262.752-.399 1.282-.398.404 0 .71.222c.2.149.305.324.305.524q-.002.245-.344.965a7 7 0 0 0-.175.402l-1.746 3.82a7 7 0 0 1-.211.445q-.12.239-.122.254 0 .136.036.207.03.07.093.07.23 0 1.36-.702a23 23 0 0 0 2.324-1.676v2.277q-1.824 1.341-3.227 2.031-1.405.69-2.332.688-.555.001-.894-.25a.8.8 0 0 1-.344-.672q0-.265.102-.594c.066-.218.199-.543.39-.965l1.66-3.656c-1.492 1.074-3.109 2.371-4.847 3.899q-2.607 2.29-3.239 2.289a.65.65 0 0 1-.523-.266.95.95 0 0 1-.223-.633q0-.152.051-.34a3 3 0 0 1 .153-.418l.91-1.882q-.38.326-.727.593-.35.265-.68.465" style="stroke:none;fill-rule:nonzero;fill:#100f0d;fill-opacity:1"/><path d="M70.797 15.887a.3.3 0 0 1-.012.05q-.14.405-.14.645 0 .153.12.246a.5.5 0 0 0 .325.098q.45 0 1.148-.551.698-.55 1.418-1.5.201-2.303 1.07-3.82c.575-1.012 1.196-1.52 1.852-1.52q.404.001.645.277.241.282.242.762 0 .796-.387 1.82a11 11 0 0 1-1.094 2.114q.177.036.29.055.116.02.203.019.391.002 1.468-.898l.14-.114v2.266q-.52.48-.964.687-.44.211-.984.211-.406 0-.746-.09a3 3 0 0 1-.672-.265q-1.302 1.377-2.328 1.969-1.026.585-2.086.586-.873.002-1.325-.442c-.296-.293-.496-.785-.585-1.469a6.6 6.6 0 0 1-1.868 1.41c-.672.337-1.328.5-1.968.5-.59 0-1.047-.163-1.368-.5q-.48-.496-.48-1.41c0-.199.023-.425.07-.668q.07-.367.223-.886-.38.33-.73.594a7 7 0 0 1-.676.468v-2.203A72 72 0 0 0 64.05 12.2q.976-.893 1.05-1.07l.672-1.469h2.352l-2.82 6.012q-.115.24-.172.469a1.8 1.8 0 0 0-.055.39q0 .205.082.297.082.1.27.098.699-.001 1.66-.946.959-.937 2-2.636c.219-.356.48-.813.781-1.38q.874-1.605 1.52-1.605.368-.002.625.184.262.182.261.422.002.205-.039.41c-.023.14-.082.336-.164.59z" style="stroke:none;fill-rule:nonzero;fill:#100f0d;fill-opacity:1"/><path d="M79.867 14.04c1.121-.161 2.04-.446 2.746-.86q1.062-.62 1.063-1.293a.58.58 0 0 0-.192-.45q-.187-.168-.504-.167-.759-.001-1.707.8a4.9 4.9 0 0 0-1.406 1.97m7.047 2.202q-1.935 1.453-3.371 2.074-1.435.622-2.79.622-1.734-.001-2.632-.875t-.898-2.567q-.001-2.483 1.879-4.258Q80.98 9.46 83.5 9.461c.836 0 1.473.176 1.922.531q.673.53.672 1.516-.001 1.533-1.672 2.734-1.67 1.2-4.477 1.621.048.452.41.715.359.258.97.258 1.036-.001 2.472-.734c.957-.489 1.996-1.204 3.117-2.137z" style="stroke:none;fill-rule:nonzero;fill:#100f0d;fill-opacity:1"/><path d="M86.445 14.332a24 24 0 0 0 2.59-2.36c.762-.816 1.45-1.679 2.055-2.59q.089-1.416.52-2.148c.285-.492.675-.734 1.163-.734q.517 0 .817.328c.195.219.297.527.297.922q0 .446-.192.855-.188.41-.605.844c.043.672.074 1.227.094 1.656.023.43.03.805.03 1.125q.001 1.406-.202 2.372a5.6 5.6 0 0 1-.657 1.742q.85-.433 1.688-1.012.844-.584 1.766-1.367v2.277q-1.62 1.177-2.934 1.735c-.879.37-1.695.554-2.457.554h-.164a2.8 2.8 0 0 1-.734.293 3.6 3.6 0 0 1-.848.086q-.77-.001-1.188-.383-.417-.387-.418-1.12 0-.354.121-.462c.083-.07.25-.11.512-.11q.242 0 .723.099.479.093.719.093.885.002 1.367-1.164.48-1.165.48-3.328v-.305a12 12 0 0 1-1.8 2.141c-.723.684-1.633 1.402-2.739 2.164v-2.203z" style="stroke:none;fill-rule:nonzero;fill:#100f0d;fill-opacity:1"/><path d="M99.566 15.367a1.5 1.5 0 0 0-.093.309c-.024.11-.032.21-.032.312q0 .152.024.215.024.064.078.063.24 0 1.3-.672 1.068-.669 2.227-1.63v2.278q-1.745 1.29-3.156 2.004-1.412.715-2.156.715-.598-.001-.926-.277-.328-.282-.328-.786.001-.293.101-.675.102-.386.344-1.059l.492-1.316q-.657.608-1.156 1.011-.502.407-.918.672v-2.203a95 95 0 0 0 2.496-2.187q.944-.86 1.008-1.012l1.29-3.176h-1.997l.656-1.683h1.989q.884-2.958 1.562-4.165.673-1.2 1.399-1.199.406 0 .636.297c.156.2.235.469.235.817 0 .402-.297 1.312-.899 2.718a66 66 0 0 0-.644 1.532h1.859l-.644 1.683h-1.872z" style="stroke:none;fill-rule:nonzero;fill:#100f0d;fill-opacity:1"/><path d="M105.336 14.04q1.68-.24 2.746-.86 1.062-.62 1.063-1.293a.58.58 0 0 0-.192-.45q-.187-.168-.504-.167-.763-.001-1.707.8a4.9 4.9 0 0 0-1.406 1.97m7.047 2.202q-1.935 1.453-3.371 2.074-1.435.622-2.79.622-1.734-.001-2.632-.875t-.899-2.567q-.001-2.483 1.88-4.258 1.879-1.779 4.398-1.777c.836 0 1.472.176 1.922.531q.672.53.671 1.516 0 1.533-1.671 2.734-1.67 1.2-4.48 1.621.05.452.413.715.36.258.965.258 1.042-.001 2.477-.734c.957-.489 1.996-1.204 3.117-2.137z" style="stroke:none;fill-rule:nonzero;fill:#100f0d;fill-opacity:1"/><path d="M111.914 16.531v-2.199q1.355-1.076 2.242-1.988.885-.91 1.29-1.645a4 4 0 0 1-.4-.707 1.6 1.6 0 0 1-.12-.582c0-.433.125-.785.375-1.066q.37-.415.941-.414.632 0 .977.422c.226.285.36.71.402 1.285q.075 0 .227-.012.573-.04.785-.04 1.112-.001 1.62.31.505.312.505.98c0 .188-.035.406-.113.66a6 6 0 0 1-.329.848l-1.43 2.984-.152.305c-.117.234-.175.367-.175.39a.6.6 0 0 0 .03.211c.02.047.056.07.095.07q.244-.002 1.367-.695a21 21 0 0 0 2.316-1.683v2.277q-1.745 1.29-3.156 2.004-1.412.715-2.156.715-.762 0-1.172-.336-.41-.334-.41-.953 0-.633.882-2.356c.079-.148.137-.265.18-.34l1.367-2.667c.059-.13.102-.23.125-.313a.8.8 0 0 0 .04-.207c0-.121-.04-.203-.11-.246-.07-.047-.21-.07-.41-.07q-.065-.002-.234.02a3 3 0 0 1-.262.015 19.3 19.3 0 0 1-2.332 2.746q-1.26 1.23-2.805 2.277" style="stroke:none;fill-rule:nonzero;fill:#100f0d;fill-opacity:1"/><path d="M121.922 16.531v-2.199a76 76 0 0 0 2.457-2.133q.974-.89 1.05-1.07l.669-1.465h2.351l-1.91 4.047q2.888-2.326 4.48-3.3 1.595-.978 2.47-.977.387 0 .687.222.298.224.297.524 0 .24-.34.96c-.078.172-.137.305-.18.407l-1.742 3.82c-.063.137-.129.285-.211.445-.078.16-.121.243-.121.25a.6.6 0 0 0 .031.211q.035.07.098.07c.148 0 .605-.234 1.36-.702a22 22 0 0 0 2.32-1.676v2.277q-1.822 1.341-3.227 2.031-1.402.687-2.328.688-.555.002-.899-.254a.79.79 0 0 1-.34-.668c0-.18.036-.375.102-.598.066-.218.2-.539.39-.96l1.66-3.657c-1.495 1.074-3.108 2.371-4.847 3.899q-2.606 2.29-3.238 2.289a.66.66 0 0 1-.527-.266.95.95 0 0 1-.22-.633q-.001-.152.052-.34a2.6 2.6 0 0 1 .148-.418l.914-1.886c-.254.222-.496.418-.726.597q-.352.265-.68.465M148.91 11.016c1.121.125 2.153.39 3.086.797a8.6 8.6 0 0 1 2.457 1.582 144 144 0 0 1 1.922-6.391q1.09-3.351 1.09-3.691a.6.6 0 0 0-.05-.274q-.053-.082-.165-.082-1.101.001-3.574 2.281c-1.653 1.524-3.238 3.45-4.766 5.778m-6.605 7.77a74 74 0 0 1 1.386-3c.461-.938.922-1.829 1.387-2.684l-1.191.183c-.414.067-.844.133-1.29.211l.72-2.152q.761-.125 1.476-.215t1.422-.137q2.912-4.797 6.176-7.586t5.82-2.789q.997 0 1.484.414.488.422.489 1.266 0 .787-1.5 5.371-1.499 4.588-2.383 8.473.1.516.137.757.04.241.039.407 0 .72-.375 1.148-.37.434-1.004.434c-.399 0-.723-.157-.98-.465-.259-.305-.388-.715-.388-1.219q.001-.291.125-1.05l.028-.165q-1.241-1.428-2.77-2.125-1.533-.696-3.418-.695h-.215q-.72 1.337-1.406 2.738-.678 1.395-1.34 2.88zM164.852 8.129c-.395 0-.704-.102-.918-.309q-.318-.31-.32-.879-.001-.773.46-1.277.464-.506 1.172-.508.569 0 .879.305.31.303.309.86 0 .785-.45 1.296c-.3.344-.675.512-1.132.512m-4.872 7.34q-.38.33-.726.594a8 8 0 0 1-.676.468v-2.199a80 80 0 0 0 2.453-2.133q.974-.89 1.051-1.07l.672-1.465h2.351l-2.582 5.703-.316.695q0 .142.027.211.023.07.075.07.253-.002 1.39-.695a19.4 19.4 0 0 0 2.317-1.683v2.277q-1.822 1.355-3.227 2.035-1.404.685-2.34.684-.557 0-.875-.258a.85.85 0 0 1-.316-.691c0-.2.035-.453.101-.75.07-.301.16-.606.282-.918z" style="stroke:none;fill-rule:nonzero;fill:#100f0d;fill-opacity:1"/><path d="M165.547 16.531v-2.199q1.355-1.076 2.242-1.988.885-.91 1.29-1.645a4 4 0 0 1-.4-.707 1.6 1.6 0 0 1-.12-.582c0-.433.125-.785.375-1.066q.37-.415.941-.414.632 0 .977.422c.226.285.359.71.402 1.285.05 0 .129-.004.226-.012q.575-.04.786-.04c.742 0 1.285.102 1.62.31q.505.312.505.98.002.28-.114.66a6 6 0 0 1-.328.848l-1.43 2.984-.152.305c-.117.234-.176.367-.176.39a.6.6 0 0 0 .032.211c.02.047.054.07.093.07q.244-.002 1.368-.695A21 21 0 0 0 176 13.965v2.277q-1.745 1.29-3.156 2.004-1.413.715-2.156.715-.762 0-1.172-.336-.41-.334-.41-.953-.001-.633.882-2.356c.078-.148.137-.265.18-.34l1.363-2.667c.063-.13.106-.23.13-.313a.8.8 0 0 0 .038-.207q-.002-.181-.11-.246-.104-.07-.41-.07-.063-.002-.234.02a3 3 0 0 1-.261.015 19.3 19.3 0 0 1-2.332 2.746q-1.26 1.23-2.805 2.277" style="stroke:none;fill-rule:nonzero;fill:#100f0d;fill-opacity:1"/><g clip-path="url(#a)"><path d="M1747.89 287.798H455.196l747.032-274.296H0" style="fill:none;stroke-width:26.9914;stroke-linecap:butt;stroke-linejoin:miter;stroke:#ec154b;stroke-opacity:1;stroke-miterlimit:4" transform="matrix(.1 0 0 -.1 0 53.69)"/></g></svg>