<?xml version="1.0" encoding="UTF-8"?>
<svg xmlns="http://www.w3.org/2000/svg" xmlns:xlink="http://www.w3.org/1999/xlink" width="176pt" height="53.69pt" viewBox="0 0 176 53.69" version="1.1">
<defs>
<clipPath id="clip1">
  <path d="M 0 9 L 176 9 L 176 53.691406 L 0 53.691406 Z M 0 9 "/>
</clipPath>
</defs>
<g id="surface1">
<path style=" stroke:none;fill-rule:nonzero;fill:rgb(6.266785%,5.734253%,5.047607%);fill-opacity:1;" d="M 4.929688 19.152344 C 5.941406 17.878906 6.921875 16.367188 7.875 14.613281 C 8.832031 12.863281 9.914062 10.546875 11.128906 7.664062 C 11.210938 7.460938 11.339844 7.148438 11.507812 6.726562 C 12.273438 4.871094 12.90625 3.433594 13.40625 2.414062 C 13.800781 1.578125 14.128906 1.058594 14.386719 0.847656 C 14.644531 0.644531 14.992188 0.539062 15.429688 0.539062 C 16.011719 0.539062 16.421875 0.785156 16.65625 1.28125 C 16.894531 1.773438 17.011719 2.679688 17.011719 3.992188 L 17.011719 4.613281 L 16.796875 14.796875 L 18.429688 9.457031 C 19.011719 7.570312 19.613281 6.035156 20.238281 4.851562 C 20.863281 3.671875 21.535156 2.769531 22.261719 2.144531 L 22.96875 5.03125 C 22.539062 5.628906 22.042969 6.574219 21.484375 7.871094 C 20.921875 9.167969 20.167969 11.128906 19.214844 13.761719 L 19.199219 13.785156 C 17.992188 17.117188 16.953125 18.785156 16.074219 18.785156 C 15.570312 18.785156 15.214844 18.597656 15.007812 18.21875 C 14.800781 17.84375 14.695312 17.175781 14.695312 16.214844 L 14.695312 15.988281 L 14.9375 3.753906 C 13.460938 7.675781 12.132812 10.898438 10.953125 13.425781 C 9.769531 15.953125 8.703125 17.859375 7.75 19.148438 L 4.929688 19.148438 L 4.929688 19.152344 "/>
<path style=" stroke:none;fill-rule:nonzero;fill:rgb(6.266785%,5.734253%,5.047607%);fill-opacity:1;" d="M 27.375 15.644531 C 27.195312 15.4375 27.070312 15.234375 26.992188 15.039062 C 26.917969 14.84375 26.878906 14.644531 26.878906 14.429688 C 26.878906 13.875 27.039062 13.40625 27.359375 13.027344 C 27.679688 12.648438 28.097656 12.433594 28.613281 12.382812 C 28.460938 11.832031 28.269531 11.433594 28.03125 11.179688 C 27.796875 10.925781 27.488281 10.800781 27.109375 10.800781 C 26.398438 10.800781 25.722656 11.246094 25.078125 12.136719 C 24.433594 13.023438 24.109375 13.980469 24.109375 15 C 24.109375 15.558594 24.230469 15.988281 24.46875 16.296875 C 24.710938 16.605469 25.046875 16.757812 25.476562 16.757812 C 25.8125 16.757812 26.152344 16.660156 26.492188 16.460938 C 26.835938 16.265625 27.128906 15.992188 27.375 15.644531 Z M 30.019531 14.558594 C 30.058594 14.566406 30.109375 14.574219 30.164062 14.578125 C 30.21875 14.582031 30.277344 14.582031 30.347656 14.582031 C 30.609375 14.582031 31.136719 14.253906 31.929688 13.597656 L 31.953125 13.585938 L 31.953125 15.835938 C 31.617188 16.15625 31.296875 16.386719 31 16.527344 C 30.699219 16.664062 30.371094 16.734375 30.019531 16.734375 C 29.941406 16.734375 29.847656 16.726562 29.734375 16.710938 C 29.621094 16.691406 29.417969 16.660156 29.132812 16.609375 C 28.734375 17.351562 28.1875 17.929688 27.488281 18.339844 C 26.789062 18.753906 26.015625 18.960938 25.171875 18.960938 C 24.058594 18.960938 23.191406 18.652344 22.574219 18.03125 C 21.953125 17.410156 21.644531 16.546875 21.644531 15.441406 C 21.644531 13.636719 22.226562 12.066406 23.394531 10.730469 C 24.5625 9.394531 25.914062 8.726562 27.449219 8.726562 C 28.386719 8.726562 29.15625 8.988281 29.757812 9.515625 C 30.363281 10.042969 30.664062 10.695312 30.664062 11.46875 C 30.664062 11.816406 30.597656 12.097656 30.460938 12.3125 C 30.328125 12.527344 30.128906 12.691406 29.867188 12.800781 C 29.984375 12.902344 30.074219 13.027344 30.132812 13.179688 C 30.191406 13.332031 30.21875 13.515625 30.21875 13.734375 C 30.21875 13.863281 30.203125 13.992188 30.167969 14.121094 C 30.136719 14.253906 30.085938 14.398438 30.019531 14.558594 "/>
<path style=" stroke:none;fill-rule:nonzero;fill:rgb(6.266785%,5.734253%,5.047607%);fill-opacity:1;" d="M 31.019531 16.53125 L 31.019531 14.332031 C 31.917969 13.613281 32.667969 12.953125 33.257812 12.34375 C 33.847656 11.738281 34.277344 11.1875 34.546875 10.699219 C 34.363281 10.429688 34.230469 10.191406 34.148438 9.992188 C 34.070312 9.789062 34.027344 9.59375 34.027344 9.410156 C 34.027344 8.976562 34.152344 8.625 34.402344 8.34375 C 34.648438 8.066406 34.964844 7.929688 35.34375 7.929688 C 35.765625 7.929688 36.089844 8.070312 36.320312 8.351562 C 36.546875 8.636719 36.679688 9.0625 36.722656 9.636719 C 36.773438 9.636719 36.847656 9.632812 36.953125 9.625 C 37.332031 9.597656 37.59375 9.585938 37.734375 9.585938 C 38.476562 9.585938 39.019531 9.6875 39.355469 9.894531 C 39.691406 10.101562 39.859375 10.429688 39.859375 10.875 C 39.859375 11.0625 39.824219 11.28125 39.746094 11.535156 C 39.671875 11.789062 39.5625 12.070312 39.417969 12.382812 L 37.988281 15.367188 C 37.945312 15.453125 37.898438 15.554688 37.835938 15.671875 C 37.71875 15.90625 37.660156 16.039062 37.660156 16.0625 C 37.660156 16.15625 37.671875 16.226562 37.691406 16.273438 C 37.714844 16.320312 37.746094 16.34375 37.789062 16.34375 C 37.949219 16.34375 38.402344 16.109375 39.152344 15.648438 C 39.90625 15.183594 40.675781 14.621094 41.46875 13.964844 L 41.46875 16.242188 C 40.304688 17.101562 39.253906 17.769531 38.3125 18.246094 C 37.371094 18.722656 36.652344 18.960938 36.15625 18.960938 C 35.648438 18.960938 35.257812 18.847656 34.984375 18.625 C 34.710938 18.402344 34.574219 18.085938 34.574219 17.671875 C 34.574219 17.25 34.867188 16.464844 35.460938 15.316406 C 35.535156 15.167969 35.59375 15.050781 35.636719 14.976562 L 37.003906 12.308594 C 37.0625 12.179688 37.105469 12.078125 37.128906 11.996094 C 37.15625 11.917969 37.167969 11.847656 37.167969 11.789062 C 37.167969 11.667969 37.128906 11.585938 37.058594 11.542969 C 36.988281 11.496094 36.851562 11.472656 36.648438 11.472656 C 36.605469 11.472656 36.527344 11.476562 36.414062 11.492188 C 36.300781 11.503906 36.214844 11.507812 36.15625 11.507812 C 35.4375 12.523438 34.660156 13.4375 33.820312 14.253906 C 32.980469 15.074219 32.046875 15.832031 31.019531 16.53125 "/>
<path style=" stroke:none;fill-rule:nonzero;fill:rgb(6.266785%,5.734253%,5.047607%);fill-opacity:1;" d="M 45.226562 15.367188 C 45.183594 15.46875 45.152344 15.570312 45.132812 15.675781 C 45.109375 15.785156 45.097656 15.886719 45.097656 15.988281 C 45.097656 16.089844 45.105469 16.160156 45.125 16.203125 C 45.140625 16.246094 45.167969 16.265625 45.199219 16.265625 C 45.359375 16.265625 45.796875 16.042969 46.503906 15.59375 C 47.210938 15.148438 47.953125 14.605469 48.730469 13.964844 L 48.730469 16.242188 C 47.566406 17.101562 46.515625 17.769531 45.574219 18.246094 C 44.632812 18.722656 43.914062 18.960938 43.414062 18.960938 C 43.019531 18.960938 42.710938 18.867188 42.492188 18.683594 C 42.273438 18.496094 42.164062 18.234375 42.164062 17.898438 C 42.164062 17.703125 42.199219 17.476562 42.265625 17.222656 C 42.332031 16.964844 42.445312 16.613281 42.605469 16.164062 L 43.101562 14.847656 C 42.660156 15.253906 42.277344 15.589844 41.941406 15.859375 C 41.609375 16.128906 41.304688 16.355469 41.027344 16.53125 L 41.027344 14.328125 C 42.0625 13.445312 42.894531 12.714844 43.523438 12.140625 C 44.152344 11.566406 44.488281 11.230469 44.53125 11.128906 L 45.820312 7.953125 L 43.820312 7.953125 L 44.480469 6.269531 L 46.464844 6.269531 C 47.054688 4.296875 47.578125 2.910156 48.027344 2.105469 C 48.480469 1.304688 48.945312 0.90625 49.425781 0.90625 C 49.699219 0.90625 49.910156 1.003906 50.066406 1.203125 C 50.222656 1.402344 50.300781 1.671875 50.300781 2.019531 C 50.300781 2.421875 50 3.332031 49.402344 4.738281 C 49.121094 5.378906 48.910156 5.890625 48.757812 6.269531 L 50.617188 6.269531 L 49.972656 7.953125 L 48.097656 7.953125 L 45.226562 15.367188 "/>
<path style=" stroke:none;fill-rule:nonzero;fill:rgb(6.266785%,5.734253%,5.047607%);fill-opacity:1;" d="M 48.273438 16.53125 L 48.273438 14.332031 C 48.847656 13.859375 49.398438 13.386719 49.917969 12.921875 C 50.441406 12.453125 50.949219 11.980469 51.4375 11.507812 L 55.246094 2.386719 C 55.582031 1.578125 55.917969 0.976562 56.253906 0.585938 C 56.585938 0.191406 56.925781 -0.00390625 57.269531 -0.00390625 C 57.550781 -0.00390625 57.769531 0.0898438 57.933594 0.273438 C 58.097656 0.460938 58.179688 0.714844 58.179688 1.035156 C 58.179688 1.816406 57.863281 2.9375 57.226562 4.394531 C 56.589844 5.847656 55.695312 7.480469 54.550781 9.296875 L 52.5 14.40625 L 56.699219 11.09375 C 57.417969 10.519531 58.027344 10.097656 58.53125 9.832031 C 59.03125 9.566406 59.460938 9.433594 59.8125 9.433594 C 60.082031 9.433594 60.320312 9.507812 60.523438 9.65625 C 60.722656 9.804688 60.828125 9.980469 60.828125 10.179688 C 60.828125 10.34375 60.710938 10.664062 60.484375 11.144531 C 60.40625 11.3125 60.347656 11.445312 60.308594 11.546875 L 58.5625 15.367188 C 58.503906 15.503906 58.433594 15.652344 58.351562 15.8125 C 58.273438 15.972656 58.230469 16.054688 58.230469 16.066406 C 58.230469 16.15625 58.242188 16.226562 58.265625 16.273438 C 58.285156 16.320312 58.316406 16.34375 58.359375 16.34375 C 58.511719 16.34375 58.964844 16.109375 59.71875 15.640625 C 60.472656 15.171875 61.246094 14.613281 62.042969 13.964844 L 62.042969 16.242188 C 60.828125 17.136719 59.75 17.8125 58.816406 18.273438 C 57.878906 18.734375 57.101562 18.960938 56.484375 18.960938 C 56.113281 18.960938 55.816406 18.878906 55.589844 18.710938 C 55.359375 18.539062 55.246094 18.316406 55.246094 18.039062 C 55.246094 17.863281 55.28125 17.664062 55.347656 17.445312 C 55.414062 17.226562 55.546875 16.902344 55.738281 16.480469 L 57.398438 12.824219 C 55.90625 13.898438 54.289062 15.195312 52.550781 16.722656 C 50.8125 18.25 49.734375 19.011719 49.3125 19.011719 C 49.109375 19.011719 48.933594 18.925781 48.789062 18.746094 C 48.640625 18.570312 48.566406 18.359375 48.566406 18.113281 C 48.566406 18.011719 48.582031 17.898438 48.617188 17.773438 C 48.652344 17.648438 48.703125 17.507812 48.769531 17.355469 L 49.679688 15.472656 C 49.425781 15.691406 49.183594 15.886719 48.953125 16.066406 C 48.71875 16.242188 48.492188 16.398438 48.273438 16.53125 "/>
<path style=" stroke:none;fill-rule:nonzero;fill:rgb(6.266785%,5.734253%,5.047607%);fill-opacity:1;" d="M 70.796875 15.886719 C 70.796875 15.894531 70.792969 15.910156 70.785156 15.9375 C 70.691406 16.207031 70.644531 16.421875 70.644531 16.582031 C 70.644531 16.683594 70.683594 16.765625 70.765625 16.828125 C 70.84375 16.890625 70.953125 16.925781 71.089844 16.925781 C 71.390625 16.925781 71.773438 16.742188 72.238281 16.375 C 72.703125 16.007812 73.175781 15.507812 73.65625 14.875 C 73.789062 13.339844 74.148438 12.066406 74.726562 11.054688 C 75.300781 10.042969 75.921875 9.535156 76.578125 9.535156 C 76.847656 9.535156 77.0625 9.628906 77.222656 9.8125 C 77.382812 10 77.464844 10.253906 77.464844 10.574219 C 77.464844 11.105469 77.335938 11.710938 77.078125 12.394531 C 76.820312 13.078125 76.457031 13.78125 75.984375 14.507812 C 76.101562 14.53125 76.199219 14.550781 76.273438 14.5625 C 76.351562 14.578125 76.417969 14.582031 76.476562 14.582031 C 76.738281 14.582031 77.226562 14.285156 77.945312 13.683594 L 78.085938 13.570312 L 78.085938 15.835938 C 77.738281 16.15625 77.417969 16.386719 77.121094 16.523438 C 76.828125 16.664062 76.5 16.734375 76.136719 16.734375 C 75.867188 16.734375 75.617188 16.703125 75.390625 16.644531 C 75.160156 16.585938 74.9375 16.496094 74.71875 16.378906 C 73.851562 17.296875 73.074219 17.953125 72.390625 18.347656 C 71.707031 18.738281 71.011719 18.933594 70.304688 18.933594 C 69.722656 18.933594 69.28125 18.789062 68.980469 18.492188 C 68.683594 18.199219 68.484375 17.707031 68.394531 17.023438 C 67.820312 17.632812 67.199219 18.101562 66.527344 18.433594 C 65.855469 18.769531 65.199219 18.933594 64.558594 18.933594 C 63.96875 18.933594 63.511719 18.769531 63.191406 18.433594 C 62.871094 18.101562 62.710938 17.632812 62.710938 17.023438 C 62.710938 16.824219 62.734375 16.597656 62.78125 16.355469 C 62.828125 16.109375 62.902344 15.816406 63.003906 15.46875 C 62.75 15.6875 62.507812 15.886719 62.273438 16.0625 C 62.042969 16.242188 61.816406 16.398438 61.597656 16.53125 L 61.597656 14.328125 C 62.585938 13.503906 63.402344 12.792969 64.050781 12.199219 C 64.703125 11.605469 65.050781 11.246094 65.101562 11.128906 L 65.773438 9.660156 L 68.125 9.660156 L 65.304688 15.671875 C 65.226562 15.832031 65.171875 15.988281 65.132812 16.140625 C 65.097656 16.292969 65.078125 16.421875 65.078125 16.53125 C 65.078125 16.667969 65.105469 16.765625 65.160156 16.828125 C 65.214844 16.894531 65.304688 16.925781 65.429688 16.925781 C 65.894531 16.925781 66.449219 16.609375 67.089844 15.980469 C 67.730469 15.355469 68.394531 14.476562 69.089844 13.34375 C 69.308594 12.988281 69.570312 12.53125 69.871094 11.964844 C 70.453125 10.894531 70.960938 10.359375 71.390625 10.359375 C 71.636719 10.359375 71.84375 10.417969 72.015625 10.542969 C 72.191406 10.664062 72.277344 10.804688 72.277344 10.964844 C 72.277344 11.101562 72.265625 11.238281 72.238281 11.375 C 72.214844 11.515625 72.15625 11.710938 72.074219 11.964844 L 70.796875 15.886719 "/>
<path style=" stroke:none;fill-rule:nonzero;fill:rgb(6.266785%,5.734253%,5.047607%);fill-opacity:1;" d="M 79.867188 14.039062 C 80.988281 13.878906 81.90625 13.59375 82.613281 13.179688 C 83.320312 12.765625 83.675781 12.335938 83.675781 11.886719 C 83.675781 11.703125 83.613281 11.554688 83.484375 11.4375 C 83.359375 11.324219 83.191406 11.269531 82.980469 11.269531 C 82.472656 11.269531 81.90625 11.535156 81.273438 12.070312 C 80.640625 12.609375 80.171875 13.261719 79.867188 14.039062 Z M 86.914062 16.242188 C 85.625 17.210938 84.5 17.902344 83.542969 18.316406 C 82.585938 18.730469 81.65625 18.9375 80.753906 18.9375 C 79.597656 18.9375 78.71875 18.644531 78.121094 18.0625 C 77.523438 17.480469 77.222656 16.625 77.222656 15.496094 C 77.222656 13.839844 77.847656 12.421875 79.101562 11.238281 C 80.355469 10.050781 81.820312 9.460938 83.5 9.460938 C 84.335938 9.460938 84.972656 9.636719 85.421875 9.992188 C 85.871094 10.34375 86.09375 10.851562 86.09375 11.507812 C 86.09375 12.53125 85.535156 13.441406 84.421875 14.242188 C 83.308594 15.042969 81.816406 15.582031 79.945312 15.863281 C 79.976562 16.164062 80.113281 16.402344 80.355469 16.578125 C 80.59375 16.75 80.917969 16.835938 81.324219 16.835938 C 82.015625 16.835938 82.839844 16.589844 83.796875 16.101562 C 84.753906 15.613281 85.792969 14.898438 86.914062 13.964844 L 86.914062 16.242188 "/>
<path style=" stroke:none;fill-rule:nonzero;fill:rgb(6.266785%,5.734253%,5.047607%);fill-opacity:1;" d="M 86.445312 14.332031 C 87.410156 13.570312 88.269531 12.785156 89.035156 11.972656 C 89.796875 11.15625 90.484375 10.292969 91.089844 9.382812 C 91.148438 8.4375 91.324219 7.722656 91.609375 7.234375 C 91.894531 6.742188 92.285156 6.5 92.773438 6.5 C 93.117188 6.5 93.390625 6.609375 93.589844 6.828125 C 93.785156 7.046875 93.886719 7.355469 93.886719 7.75 C 93.886719 8.046875 93.824219 8.332031 93.695312 8.605469 C 93.570312 8.878906 93.367188 9.160156 93.089844 9.449219 C 93.132812 10.121094 93.164062 10.675781 93.183594 11.105469 C 93.207031 11.535156 93.214844 11.910156 93.214844 12.230469 C 93.214844 13.167969 93.148438 13.957031 93.011719 14.601562 C 92.878906 15.25 92.660156 15.828125 92.355469 16.34375 C 92.921875 16.054688 93.484375 15.71875 94.042969 15.332031 C 94.605469 14.941406 95.195312 14.488281 95.808594 13.964844 L 95.808594 16.242188 C 94.730469 17.027344 93.75 17.605469 92.875 17.976562 C 91.996094 18.347656 91.179688 18.53125 90.417969 18.53125 L 90.253906 18.53125 C 90.011719 18.667969 89.765625 18.765625 89.519531 18.824219 C 89.277344 18.882812 88.996094 18.910156 88.671875 18.910156 C 88.160156 18.910156 87.761719 18.78125 87.484375 18.527344 C 87.207031 18.269531 87.066406 17.894531 87.066406 17.40625 C 87.066406 17.171875 87.105469 17.015625 87.1875 16.945312 C 87.269531 16.875 87.4375 16.835938 87.699219 16.835938 C 87.859375 16.835938 88.101562 16.867188 88.421875 16.933594 C 88.742188 16.996094 88.980469 17.027344 89.140625 17.027344 C 89.730469 17.027344 90.1875 16.640625 90.507812 15.863281 C 90.828125 15.085938 90.988281 13.976562 90.988281 12.535156 L 90.988281 12.230469 C 90.507812 12.972656 89.90625 13.6875 89.1875 14.371094 C 88.464844 15.054688 87.554688 15.773438 86.449219 16.535156 L 86.449219 14.332031 L 86.445312 14.332031 "/>
<path style=" stroke:none;fill-rule:nonzero;fill:rgb(6.266785%,5.734253%,5.047607%);fill-opacity:1;" d="M 99.566406 15.367188 C 99.523438 15.46875 99.492188 15.570312 99.472656 15.675781 C 99.449219 15.785156 99.441406 15.886719 99.441406 15.988281 C 99.441406 16.089844 99.449219 16.160156 99.464844 16.203125 C 99.480469 16.246094 99.507812 16.265625 99.542969 16.265625 C 99.703125 16.265625 100.136719 16.042969 100.84375 15.59375 C 101.554688 15.148438 102.296875 14.605469 103.070312 13.964844 L 103.070312 16.242188 C 101.90625 17.101562 100.855469 17.769531 99.914062 18.246094 C 98.972656 18.722656 98.253906 18.960938 97.757812 18.960938 C 97.359375 18.960938 97.050781 18.867188 96.832031 18.683594 C 96.613281 18.496094 96.503906 18.234375 96.503906 17.898438 C 96.503906 17.703125 96.539062 17.476562 96.605469 17.222656 C 96.671875 16.964844 96.789062 16.613281 96.949219 16.164062 L 97.441406 14.847656 C 97.003906 15.253906 96.617188 15.589844 96.285156 15.859375 C 95.949219 16.128906 95.644531 16.355469 95.367188 16.53125 L 95.367188 14.328125 C 96.402344 13.445312 97.238281 12.714844 97.863281 12.140625 C 98.492188 11.566406 98.828125 11.230469 98.871094 11.128906 L 100.160156 7.953125 L 98.164062 7.953125 L 98.820312 6.269531 L 100.808594 6.269531 C 101.398438 4.296875 101.917969 2.910156 102.371094 2.105469 C 102.820312 1.304688 103.285156 0.90625 103.769531 0.90625 C 104.039062 0.90625 104.253906 1.003906 104.40625 1.203125 C 104.5625 1.402344 104.640625 1.671875 104.640625 2.019531 C 104.640625 2.421875 104.34375 3.332031 103.742188 4.738281 C 103.464844 5.378906 103.25 5.890625 103.097656 6.269531 L 104.957031 6.269531 L 104.3125 7.953125 L 102.441406 7.953125 L 99.566406 15.367188 "/>
<path style=" stroke:none;fill-rule:nonzero;fill:rgb(6.266785%,5.734253%,5.047607%);fill-opacity:1;" d="M 105.335938 14.039062 C 106.457031 13.878906 107.371094 13.59375 108.082031 13.179688 C 108.789062 12.765625 109.144531 12.335938 109.144531 11.886719 C 109.144531 11.703125 109.082031 11.554688 108.953125 11.4375 C 108.828125 11.324219 108.660156 11.269531 108.449219 11.269531 C 107.941406 11.269531 107.371094 11.535156 106.742188 12.070312 C 106.109375 12.609375 105.640625 13.261719 105.335938 14.039062 Z M 112.382812 16.242188 C 111.09375 17.210938 109.96875 17.902344 109.011719 18.316406 C 108.054688 18.730469 107.125 18.9375 106.222656 18.9375 C 105.066406 18.9375 104.1875 18.644531 103.589844 18.0625 C 102.992188 17.480469 102.691406 16.625 102.691406 15.496094 C 102.691406 13.839844 103.316406 12.421875 104.570312 11.238281 C 105.824219 10.050781 107.289062 9.460938 108.96875 9.460938 C 109.804688 9.460938 110.441406 9.636719 110.890625 9.992188 C 111.339844 10.34375 111.5625 10.851562 111.5625 11.507812 C 111.5625 12.53125 111.003906 13.441406 109.890625 14.242188 C 108.777344 15.042969 107.285156 15.582031 105.410156 15.863281 C 105.445312 16.164062 105.582031 16.402344 105.824219 16.578125 C 106.0625 16.75 106.386719 16.835938 106.789062 16.835938 C 107.484375 16.835938 108.308594 16.589844 109.265625 16.101562 C 110.222656 15.613281 111.261719 14.898438 112.382812 13.964844 L 112.382812 16.242188 "/>
<path style=" stroke:none;fill-rule:nonzero;fill:rgb(6.266785%,5.734253%,5.047607%);fill-opacity:1;" d="M 111.914062 16.53125 L 111.914062 14.332031 C 112.816406 13.613281 113.566406 12.953125 114.15625 12.34375 C 114.746094 11.738281 115.175781 11.1875 115.445312 10.699219 C 115.261719 10.429688 115.128906 10.191406 115.046875 9.992188 C 114.96875 9.789062 114.925781 9.59375 114.925781 9.410156 C 114.925781 8.976562 115.050781 8.625 115.300781 8.34375 C 115.546875 8.066406 115.863281 7.929688 116.242188 7.929688 C 116.664062 7.929688 116.988281 8.070312 117.21875 8.351562 C 117.445312 8.636719 117.578125 9.0625 117.621094 9.636719 C 117.671875 9.636719 117.746094 9.632812 117.847656 9.625 C 118.230469 9.597656 118.492188 9.585938 118.632812 9.585938 C 119.375 9.585938 119.914062 9.6875 120.253906 9.894531 C 120.589844 10.101562 120.757812 10.429688 120.757812 10.875 C 120.757812 11.0625 120.722656 11.28125 120.644531 11.535156 C 120.570312 11.789062 120.460938 12.070312 120.316406 12.382812 L 118.886719 15.367188 C 118.84375 15.453125 118.792969 15.554688 118.734375 15.671875 C 118.617188 15.90625 118.558594 16.039062 118.558594 16.0625 C 118.558594 16.15625 118.570312 16.226562 118.589844 16.273438 C 118.609375 16.320312 118.644531 16.34375 118.683594 16.34375 C 118.847656 16.34375 119.300781 16.109375 120.050781 15.648438 C 120.804688 15.183594 121.574219 14.621094 122.367188 13.964844 L 122.367188 16.242188 C 121.203125 17.101562 120.152344 17.769531 119.210938 18.246094 C 118.269531 18.722656 117.550781 18.960938 117.054688 18.960938 C 116.546875 18.960938 116.15625 18.847656 115.882812 18.625 C 115.609375 18.402344 115.472656 18.085938 115.472656 17.671875 C 115.472656 17.25 115.765625 16.464844 116.355469 15.316406 C 116.433594 15.167969 116.492188 15.050781 116.535156 14.976562 L 117.902344 12.308594 C 117.960938 12.179688 118.003906 12.078125 118.027344 11.996094 C 118.050781 11.917969 118.066406 11.847656 118.066406 11.789062 C 118.066406 11.667969 118.027344 11.585938 117.957031 11.542969 C 117.886719 11.496094 117.746094 11.472656 117.546875 11.472656 C 117.503906 11.472656 117.425781 11.476562 117.3125 11.492188 C 117.199219 11.503906 117.109375 11.507812 117.050781 11.507812 C 116.335938 12.523438 115.558594 13.4375 114.71875 14.253906 C 113.878906 15.074219 112.945312 15.832031 111.914062 16.53125 "/>
<path style=" stroke:none;fill-rule:nonzero;fill:rgb(6.266785%,5.734253%,5.047607%);fill-opacity:1;" d="M 121.921875 16.53125 L 121.921875 14.332031 C 122.910156 13.503906 123.730469 12.792969 124.378906 12.199219 C 125.027344 11.605469 125.378906 11.25 125.429688 11.128906 L 126.097656 9.664062 L 128.449219 9.664062 L 126.539062 13.710938 C 128.464844 12.160156 129.957031 11.058594 131.019531 10.410156 C 132.082031 9.757812 132.90625 9.433594 133.488281 9.433594 C 133.746094 9.433594 133.976562 9.507812 134.175781 9.65625 C 134.375 9.804688 134.472656 9.980469 134.472656 10.179688 C 134.472656 10.339844 134.359375 10.660156 134.132812 11.140625 C 134.054688 11.3125 133.996094 11.445312 133.953125 11.546875 L 132.210938 15.367188 C 132.148438 15.503906 132.082031 15.652344 132 15.8125 C 131.921875 15.972656 131.878906 16.054688 131.878906 16.0625 C 131.878906 16.15625 131.890625 16.226562 131.910156 16.273438 C 131.933594 16.320312 131.964844 16.34375 132.007812 16.34375 C 132.15625 16.34375 132.613281 16.109375 133.367188 15.640625 C 134.121094 15.171875 134.894531 14.613281 135.6875 13.964844 L 135.6875 16.242188 C 134.472656 17.136719 133.398438 17.8125 132.460938 18.273438 C 131.527344 18.730469 130.75 18.960938 130.132812 18.960938 C 129.761719 18.960938 129.464844 18.878906 129.234375 18.707031 C 129.007812 18.539062 128.894531 18.316406 128.894531 18.039062 C 128.894531 17.859375 128.929688 17.664062 128.996094 17.441406 C 129.0625 17.222656 129.195312 16.902344 129.386719 16.480469 L 131.046875 12.824219 C 129.550781 13.898438 127.9375 15.195312 126.199219 16.722656 C 124.460938 18.25 123.382812 19.011719 122.960938 19.011719 C 122.757812 19.011719 122.582031 18.925781 122.433594 18.746094 C 122.285156 18.570312 122.214844 18.359375 122.214844 18.113281 C 122.214844 18.011719 122.230469 17.898438 122.265625 17.773438 C 122.296875 17.644531 122.347656 17.507812 122.414062 17.355469 L 123.328125 15.46875 C 123.074219 15.691406 122.832031 15.886719 122.601562 16.066406 C 122.367188 16.242188 122.140625 16.398438 121.921875 16.53125 "/>
<path style=" stroke:none;fill-rule:nonzero;fill:rgb(6.266785%,5.734253%,5.047607%);fill-opacity:1;" d="M 148.910156 11.015625 C 150.03125 11.140625 151.0625 11.40625 151.996094 11.8125 C 152.933594 12.21875 153.753906 12.746094 154.453125 13.394531 C 155.007812 11.371094 155.648438 9.242188 156.375 7.003906 C 157.101562 4.769531 157.464844 3.539062 157.464844 3.3125 C 157.464844 3.183594 157.445312 3.09375 157.414062 3.039062 C 157.378906 2.984375 157.324219 2.957031 157.25 2.957031 C 156.515625 2.957031 155.324219 3.71875 153.675781 5.238281 C 152.023438 6.761719 150.4375 8.6875 148.910156 11.015625 Z M 142.304688 18.785156 C 142.769531 17.722656 143.230469 16.722656 143.691406 15.785156 C 144.152344 14.847656 144.613281 13.957031 145.078125 13.101562 C 144.695312 13.160156 144.300781 13.222656 143.886719 13.285156 C 143.472656 13.351562 143.042969 13.417969 142.597656 13.496094 L 143.316406 11.34375 C 143.824219 11.261719 144.316406 11.1875 144.792969 11.128906 C 145.269531 11.070312 145.742188 11.023438 146.214844 10.992188 C 148.15625 7.792969 150.214844 5.265625 152.390625 3.40625 C 154.566406 1.546875 156.507812 0.617188 158.210938 0.617188 C 158.875 0.617188 159.371094 0.753906 159.695312 1.03125 C 160.019531 1.3125 160.183594 1.734375 160.183594 2.296875 C 160.183594 2.820312 159.683594 4.613281 158.683594 7.667969 C 157.683594 10.726562 156.890625 13.550781 156.300781 16.140625 C 156.367188 16.484375 156.414062 16.738281 156.4375 16.898438 C 156.464844 17.058594 156.476562 17.195312 156.476562 17.304688 C 156.476562 17.785156 156.351562 18.167969 156.101562 18.453125 C 155.855469 18.742188 155.519531 18.886719 155.097656 18.886719 C 154.699219 18.886719 154.375 18.730469 154.117188 18.421875 C 153.859375 18.117188 153.730469 17.707031 153.730469 17.203125 C 153.730469 17.007812 153.773438 16.660156 153.855469 16.152344 C 153.867188 16.085938 153.875 16.03125 153.882812 15.988281 C 153.054688 15.035156 152.132812 14.328125 151.113281 13.863281 C 150.089844 13.398438 148.953125 13.167969 147.695312 13.167969 L 147.480469 13.167969 C 147 14.058594 146.53125 14.972656 146.074219 15.90625 C 145.621094 16.835938 145.175781 17.796875 144.734375 18.785156 L 142.304688 18.785156 "/>
<path style=" stroke:none;fill-rule:nonzero;fill:rgb(6.266785%,5.734253%,5.047607%);fill-opacity:1;" d="M 164.851562 8.128906 C 164.457031 8.128906 164.148438 8.027344 163.933594 7.820312 C 163.722656 7.613281 163.613281 7.320312 163.613281 6.941406 C 163.613281 6.425781 163.765625 6 164.074219 5.664062 C 164.382812 5.328125 164.773438 5.15625 165.246094 5.15625 C 165.625 5.15625 165.917969 5.257812 166.125 5.460938 C 166.332031 5.664062 166.433594 5.949219 166.433594 6.320312 C 166.433594 6.84375 166.285156 7.277344 165.984375 7.617188 C 165.683594 7.960938 165.308594 8.128906 164.851562 8.128906 Z M 159.980469 15.46875 C 159.726562 15.6875 159.484375 15.886719 159.253906 16.0625 C 159.019531 16.242188 158.796875 16.398438 158.578125 16.53125 L 158.578125 14.332031 C 159.5625 13.503906 160.382812 12.792969 161.03125 12.199219 C 161.679688 11.605469 162.03125 11.25 162.082031 11.128906 L 162.753906 9.664062 L 165.105469 9.664062 L 162.523438 15.367188 L 162.207031 16.0625 C 162.207031 16.15625 162.214844 16.226562 162.234375 16.273438 C 162.25 16.320312 162.273438 16.34375 162.308594 16.34375 C 162.476562 16.34375 162.941406 16.109375 163.699219 15.648438 C 164.460938 15.183594 165.230469 14.621094 166.015625 13.964844 L 166.015625 16.242188 C 164.800781 17.144531 163.726562 17.824219 162.789062 18.277344 C 161.851562 18.734375 161.074219 18.960938 160.449219 18.960938 C 160.078125 18.960938 159.785156 18.875 159.574219 18.703125 C 159.363281 18.53125 159.257812 18.300781 159.257812 18.011719 C 159.257812 17.8125 159.292969 17.558594 159.359375 17.261719 C 159.429688 16.960938 159.519531 16.65625 159.640625 16.34375 L 159.980469 15.46875 "/>
<path style=" stroke:none;fill-rule:nonzero;fill:rgb(6.266785%,5.734253%,5.047607%);fill-opacity:1;" d="M 165.546875 16.53125 L 165.546875 14.332031 C 166.449219 13.613281 167.199219 12.953125 167.789062 12.34375 C 168.378906 11.738281 168.808594 11.1875 169.078125 10.699219 C 168.894531 10.429688 168.761719 10.191406 168.679688 9.992188 C 168.601562 9.789062 168.558594 9.59375 168.558594 9.410156 C 168.558594 8.976562 168.683594 8.625 168.933594 8.34375 C 169.179688 8.066406 169.496094 7.929688 169.875 7.929688 C 170.296875 7.929688 170.621094 8.070312 170.851562 8.351562 C 171.078125 8.636719 171.210938 9.0625 171.253906 9.636719 C 171.304688 9.636719 171.382812 9.632812 171.480469 9.625 C 171.863281 9.597656 172.125 9.585938 172.265625 9.585938 C 173.007812 9.585938 173.550781 9.6875 173.886719 9.894531 C 174.222656 10.101562 174.390625 10.429688 174.390625 10.875 C 174.390625 11.0625 174.355469 11.28125 174.277344 11.535156 C 174.203125 11.789062 174.09375 12.070312 173.949219 12.382812 L 172.519531 15.367188 C 172.476562 15.453125 172.425781 15.554688 172.367188 15.671875 C 172.25 15.90625 172.191406 16.039062 172.191406 16.0625 C 172.191406 16.15625 172.203125 16.226562 172.222656 16.273438 C 172.242188 16.320312 172.277344 16.34375 172.316406 16.34375 C 172.480469 16.34375 172.933594 16.109375 173.683594 15.648438 C 174.4375 15.183594 175.207031 14.621094 176 13.964844 L 176 16.242188 C 174.835938 17.101562 173.785156 17.769531 172.84375 18.246094 C 171.902344 18.722656 171.183594 18.960938 170.6875 18.960938 C 170.179688 18.960938 169.789062 18.847656 169.515625 18.625 C 169.242188 18.402344 169.105469 18.085938 169.105469 17.671875 C 169.105469 17.25 169.398438 16.464844 169.988281 15.316406 C 170.066406 15.167969 170.125 15.050781 170.167969 14.976562 L 171.53125 12.308594 C 171.59375 12.179688 171.636719 12.078125 171.660156 11.996094 C 171.683594 11.917969 171.699219 11.847656 171.699219 11.789062 C 171.699219 11.667969 171.660156 11.585938 171.589844 11.542969 C 171.519531 11.496094 171.382812 11.472656 171.179688 11.472656 C 171.136719 11.472656 171.058594 11.476562 170.945312 11.492188 C 170.832031 11.503906 170.742188 11.507812 170.683594 11.507812 C 169.96875 12.523438 169.191406 13.4375 168.351562 14.253906 C 167.511719 15.074219 166.578125 15.832031 165.546875 16.53125 "/>
<g clip-path="url(#clip1)" clip-rule="nonzero">
<path style="fill:none;stroke-width:26.9914;stroke-linecap:butt;stroke-linejoin:miter;stroke:rgb(92.488098%,8.357239%,29.486084%);stroke-opacity:1;stroke-miterlimit:4;" d="M 1747.890625 287.798438 L 455.195312 287.798438 L 1202.226562 13.501563 L 0 13.501563 " transform="matrix(0.1,0,0,-0.1,0,53.69)"/>
</g>
</g>
</svg>
