<svg xmlns="http://www.w3.org/2000/svg" width="176pt" height="68.107" viewBox="0 0 176 51.08"><defs><clipPath id="a"><path d="M0 5h22v46.078H0Zm0 0"/></clipPath></defs><path d="M27.445 29.996v1.117q-.001 2.398 1.492 3.887c.993.992 2.52 1.492 4.579 1.492q1.118-.001 1.996-.347a6 6 0 0 0 1.547-.88 6.6 6.6 0 0 0 1.171-1.222q.503-.692.93-1.332h7.563q-.909 2.344-2.133 4.098a12 12 0 0 1-2.926 2.957q-1.706 1.197-3.969 1.785c-1.508.386-3.258.582-5.242.582q-2.77.001-5.031-.742c-1.512-.496-2.797-1.254-3.863-2.266q-1.596-1.517-2.477-3.754-.874-2.232-.875-5.215-.002-3.304 1.063-6.363 1.066-3.064 3.007-5.43 1.947-2.371 4.766-3.781c1.883-.941 3.992-1.41 6.336-1.41q2.875-.001 5.246.742c1.578.5 2.93 1.254 4.047 2.266 1.117 1.011 1.984 2.27 2.61 3.777.62 1.512.929 3.258.929 5.246 0 1.348-.14 2.79-.426 4.313H27.5a2.6 2.6 0 0 0-.055.48m13.285-7.375a5.3 5.3 0 0 0-.718-1.89c-.356-.567-.867-1.02-1.543-1.356q-1.013-.509-2.664-.508-1.595 0-2.82.48a7 7 0 0 0-2.13 1.278 7.3 7.3 0 0 0-1.52 1.863q-.609 1.067-1.038 2.235h12.621q0-1.062-.188-2.102M68.082 13.914l-1.172 5.059h-5.379l-2.82 13.683a8 8 0 0 0-.16.774 4 4 0 0 0-.055.504c0 .5.082.879.238 1.144q.24.404.614.613c.25.145.523.223.824.243.3.015.598.023.879.023.926 0 1.828-.05 2.719-.16l-1.282 5.805q-1.172.105-2.34.187c-.78.055-1.582.078-2.398.078a14.6 14.6 0 0 1-2.637-.238 7.1 7.1 0 0 1-2.34-.852 4.56 4.56 0 0 1-1.652-1.675q-.61-1.065-.559-2.77 0-.532.106-1.2c.07-.44.16-.913.266-1.41l3.09-14.75h-4.95l1.168-5.058h4.848l1.703-8.36h7.559l-1.704 8.36z" style="stroke:none;fill-rule:nonzero;fill:#a3a5a7;fill-opacity:1"/><path d="m88.445 13.914-1.172 5.059h-5.378L79.07 32.656q-.103.427-.156.774a4 4 0 0 0-.055.504q0 .748.239 1.144.239.404.613.613c.25.145.523.223.824.243q.45.023.88.023c.925 0 1.827-.05 2.714-.16l-1.277 5.805q-1.173.105-2.344.187c-.781.055-1.578.078-2.395.078a14.6 14.6 0 0 1-2.636-.238 7.1 7.1 0 0 1-2.34-.852 4.53 4.53 0 0 1-1.653-1.675q-.61-1.065-.558-2.77 0-.532.105-1.2c.07-.44.16-.913.266-1.41l3.09-14.75h-4.953l1.171-5.058h4.848l1.703-8.36h7.559l-1.703 8.36zM100.313 13.914l-5.856 27.527h-7.559L92.7 13.914zM113.133 13.914l-.852 3.887h.106q1.704-2.395 4.152-3.512 2.456-1.118 5.484-1.117c1.707 0 3.16.371 4.368 1.117q1.809 1.118 2.289 3.672a8.7 8.7 0 0 1 1.757-1.941 13 13 0 0 1 2.29-1.52c.816-.426 1.68-.754 2.582-.984q1.358-.344 2.687-.344 1.6-.002 3.117.426a8.3 8.3 0 0 1 2.692 1.277 6.16 6.16 0 0 1 1.86 2.184q.695 1.329.694 3.086-.001 1.278-.265 2.582-.268 1.305-.535 2.53l-3.407 16.184h-7.562l3.62-17.41a10 10 0 0 0 .216-1.968q-.001-1.224-.934-2.079-.93-.85-2.367-.851c-.996 0-1.89.238-2.691.719a7.9 7.9 0 0 0-2.075 1.812 10.7 10.7 0 0 0-1.464 2.422q-.587 1.331-.852 2.61l-3.09 14.745h-7.613l3.62-17.41c.142-.707.212-1.367.212-1.968q0-1.224-.93-2.079-.93-.85-2.37-.851c-.993 0-1.892.238-2.688.719a7.9 7.9 0 0 0-2.079 1.812 10.6 10.6 0 0 0-1.46 2.422 13.3 13.3 0 0 0-.856 2.61l-3.086 14.745h-7.508l5.7-27.527zM155.234 29.996v1.117q-.001 2.398 1.493 3.887c.992.992 2.52 1.492 4.578 1.492q1.118-.001 1.996-.347a6 6 0 0 0 1.547-.88 6.4 6.4 0 0 0 1.168-1.222c.34-.461.648-.906.933-1.332h7.559q-.904 2.344-2.13 4.098a11.9 11.9 0 0 1-2.929 2.957q-1.704 1.197-3.965 1.785-2.262.58-5.246.582c-1.843 0-3.523-.246-5.031-.742s-2.793-1.254-3.86-2.266q-1.598-1.517-2.476-3.754-.879-2.232-.879-5.215 0-3.304 1.067-6.363 1.063-3.064 3.007-5.43 1.944-2.371 4.766-3.781c1.883-.941 3.992-1.41 6.336-1.41 1.918 0 3.664.246 5.246.742q2.366.749 4.047 2.266 1.675 1.517 2.605 3.777c.621 1.512.934 3.258.934 5.246 0 1.348-.14 2.79-.426 4.313H155.29a2.6 2.6 0 0 0-.055.48m13.286-7.375a5.4 5.4 0 0 0-.72-1.89q-.533-.851-1.542-1.356-1.013-.509-2.664-.508c-1.067 0-2.004.16-2.82.48a7 7 0 0 0-2.13 1.278 7.2 7.2 0 0 0-1.519 1.863c-.41.711-.754 1.457-1.04 2.235h12.618c0-.707-.058-1.41-.183-2.102" style="stroke:none;fill-rule:nonzero;fill:#254ca3;fill-opacity:1"/><g clip-path="url(#a)"><path d="M14.004 5.555 6.867 39.953c-.105.356-.21.805-.32 1.356a9 9 0 0 1-.477 1.625 4.8 4.8 0 0 1-.8 1.355q-.48.563-1.278.563c-.46 0-.914-.012-1.355-.028q-.669-.03-1.36-.082L0 50.812q.906.055 1.836.16.932.106 1.836.106 2.558 0 4.262-.531 1.703-.533 2.875-1.598 1.17-1.063 1.863-2.715.69-1.652 1.172-3.832l7.719-36.847z" style="stroke:none;fill-rule:nonzero;fill:#a3a5a7;fill-opacity:1"/></g><path d="M165.242 5.113s-64.828 5.114-67.648 5.114a5.112 5.112 0 1 1 0-10.223c2.82 0 67.648 5.11 67.648 5.11" style="stroke:none;fill-rule:nonzero;fill:#f79510;fill-opacity:1"/></svg>