<svg xmlns="http://www.w3.org/2000/svg" width="176pt" height="45.5pt" viewBox="0 0 176 45.5"><defs><clipPath id="a"><path d="M0 0h46v45.5H0Zm0 0"/></clipPath></defs><path d="M54.824 12.945H65.31c3.96 0 6.304.746 6.304 5.106 0 2.527-.508 4.18-3.14 4.605v.211c2.953.188 3.46 1.969 3.46 4.469 0 4.894-2.288 5.562-6.519 5.562h-10.59Zm5.324 7.98h3.829c1.863 0 2.312-.32 2.312-1.913 0-1.2-.184-1.653-1.672-1.703h-4.469Zm0 7.61h4.016c1.73 0 2.445-.398 2.445-2.023 0-1.649-.609-1.887-2.34-1.887h-4.12zM79.219 20.953h8.511v3.7H79.22v3.882h9.258v4.363H73.898V12.945H88.29v4.364h-9.07zM100.254 22.973c2.289 0 2.207-.852 2.207-3.11 0-1.785-.45-2.289-2.207-2.289h-4.121v5.399Zm-9.445-10.028h10.27c4.605.078 6.862 1.063 6.862 6.04 0 3.324 0 5.265-3.777 6.144v.21c2.184.083 3.594 1.278 3.594 3.54v4.02h-5.32v-2.794c.05-1.492-.586-2.503-2.184-2.503h-4.121v5.296h-5.324zM123.477 12.945V26.75c0 5.348-1.594 6.309-7.184 6.309-5.531 0-6.676-1.305-6.676-6.868v-1.648h5.055v1.648c0 1.653.183 2.239 1.621 2.239 1.648 0 1.863-.426 1.863-1.68V12.945zM130.719 29.465l-.989 3.433h-5.53l5.987-19.953h8.086l6.067 19.953h-5.43l-1.035-3.433Zm3.617-12.531h-.055l-2.422 8.648h4.95zM152.656 25.902v6.996h-5.32v-6.996l-7.078-12.957h6.094l3.562 7.688h.188l3.671-7.688h6.172zM162.379 29.465l-.984 3.433h-5.536l5.989-19.953h8.086L176 32.898h-5.426l-1.039-3.433Zm3.617-12.531h-.055l-2.418 8.648h4.95z" style="stroke:none;fill-rule:nonzero;fill:#a7811e;fill-opacity:1"/><path d="M33.957 33.89c-.008 1.407 0 2.758 0 3.782 0 6.058-7.473 7.73-11.074 4.648-4.188 3.313-11.09 1.446-11.09-4.418 0 0 .008-1.593 0-4.097-2.508 0-4.2.03-4.2.03-5.863 0-7.73-6.858-4.413-11.042C.098 19.191 1.766 11.75 7.828 11.75c1.098 0 2.473-.027 3.996-.027 0-2.442.016-4.04.016-4.04 0-4.902 6.254-7.956 10.855-4.206 2.278-2.012 6.332-2.239 8.809-.461.648.453 1.488 1.46 1.375 1.379a6.05 6.05 0 0 1 1.09 3.52c0 1.046-.012 2.37 0 3.812 1.343.007 2.62 0 3.617 0 1.414 0 2.59.418 3.52 1.07-.083-.117.925.726 1.378 1.371 1.778 2.477 1.551 6.531-.464 8.809 3.753 4.601.699 10.914-4.204 10.914 0 0-1.539-.008-3.859 0m-4.23.965h-4.29c-.007 2.036 0 3.508 0 3.508 0 2.617 4.29 2.617 4.29-.078 0-.32.011-1.719 0-3.43m-9.387-.113h-4.281c-.012 2.117 0 3.621 0 3.621 0 2.617 4.28 2.617 4.28-.078 0-.336.005-1.707 0-3.543M11.027 15.97H7.324c-2.695 0-2.695 4.386-.074 4.386h3.762c0-1.484.015-3.007.015-4.386m-.039 13.793c-.004-1.34-.011-2.848-.011-4.293H7.324c-2.695 0-2.695 4.293-.074 4.293 0 0 1.574-.004 3.738 0m3.239-.032c0-2.597.003-5.261.003-6.94v-6.856h-1.398v13.828c.453 0 .93-.032 1.395-.032m18.8-.007v-3.485c0-2.218-.007-6.328 0-10.195-.449 0-.968.016-1.437.016.008 2.71 0 5.367 0 6.73 0 1.395.023 4.152.023 6.934.446 0 .985-.004 1.414 0m-.007 5.136c-.426.004-.961 0-1.415 0v3.489c0 4.902-7.945 4.902-7.945.14V25.395h-1.469v12.953c0 4.902-8.003 4.902-8.003.14v-3.761h-1.325v3.75c.028 5.875 7.684 8.136 10.067 3.62 2.258 4.583 10.09 2.243 10.09-3.812zM25.035 4.293c2.266-1.613 6.508-.652 6.508 2.934 0 .605.016 1.984.023 3.636.508 0 1.024-.004 1.516 0 .004-1.61.004-2.93 0-3.636C33.051.52 24.406.3 22.84 4.254l-.188-.266C20.52-.469 12.81 1.363 12.81 7.04v3.816h1.402V7.09c0-4.762 7.922-4.762 7.922.137 0 1.648.023 8.78.035 13.128.266-.003.484 0 .656 0h.848c0-5.207-.031-13.265-.031-13.265 0-1.274.566-2.207 1.394-2.797m-4.734 25.516c-.004-1.582.043-3.067.043-4.332-1.215.007-2.73 0-4.27 0 0 1.246.004 2.8 0 4.332 1.48.003 3.035 0 4.227 0m-.004-9.38c-.012-1.238.02-2.85.012-4.46-1.247 0-2.754-.004-4.348 0 .004 1.672-.016 3.183-.004 4.46 1.55 0 3.105.02 4.34 0m.039 12.575c-.004-.54 0-.91 0-1.473H7.125c-4.762 0-4.762-7.906.137-7.906.617 0 2.031-.043 3.738-.043v-1.07c0-.223 0 .218 0 0H7.125c-4.762 0-4.762-8.301.137-8.301 1.64 0 8.687-.04 13.043-.04-.004-.476 0-.972 0-1.433H9.797c-1.367 0-2.016-.332-2.703-.332-6.051 0-7.465 8.219-2.887 10.48-4.516 2.384-2.945 10.094 2.93 10.118h13.199M29.73 16.03c-1.55-.008-3.082 0-4.304 0 .008 1.555-.008 3.063 0 4.293 1.25 0 2.762-.008 4.304 0 0-1.195.004-2.762 0-4.293m5.192.028c.008 1.39 0 2.886 0 4.308 1.988.016 3.476 0 3.476 0 2.618 0 2.618-4.308-.078-4.308-.328 0-1.64.007-3.398 0M29.71 29.723c-.008-1.496 0-3.047 0-4.25-1.516 0-3.066.004-4.277 0 .003 1.238.007 2.73 0 4.25 1.23.004 2.746-.004 4.277 0m5.219.047c1.972.011 3.468 0 3.468 0 2.618 0 2.618-4.286-.078-4.286h-3.39c0 1.418.004 2.903 0 4.286m-5.157-6.18v-1.176c0-.125 0 .227 0 0H16.008c0 .281 0-.18 0 0 0 .211-.004.867 0 1.215 2.722 0 5.445-.004 6.816-.004 1.399 0 4.16-.043 6.95-.035m11.543-2.824c-.59.828-1.52 1.363-2.793 1.363h-3.632v1.566c1.578.004 2.91-.027 3.492-.027 4.902 0 4.902 7.926.14 7.926H25.422c-.004.39 0 .965 0 1.343 6.18-.003 13.152 0 13.152 0 5.672 0 7.676-7.746 3.219-9.878l-.137-.07c3.95-1.567 3.438-10.243-3.273-10.274-1.89-.008-7.91-.012-13 0 0 .515-.004 1.004 0 1.539 4.355.012 11.367 0 13 0 3.59 0 4.55 4.242 2.933 6.512m-21-9.875V7.289c0-2.691-4.336-2.691-4.336-.074v3.676c1.415.007 2.903-.012 4.336 0m9.41-.02V7.29c0-2.691-4.335-2.691-4.335-.074 0 0-.004 1.555 0 3.656 1.441 0 2.933-.008 4.336 0" style="stroke:none;fill-rule:nonzero;fill:#2a59ad;fill-opacity:1"/><g clip-path="url(#a)"><path d="M34.984 34.64c-.004 1.52 0 2.973 0 4.079 0 6.543-8.066 8.347-11.953 5.02-4.52 3.577-11.972 1.562-11.972-4.766 0 0 .011-1.723 0-4.426-2.707 0-4.532.031-4.532.031-6.328 0-8.343-7.402-4.765-11.922-3.328-3.886-1.528-11.918 5.02-11.918 1.183 0 2.667-.031 4.312-.031 0-2.633.015-4.363.015-4.363 0-5.29 6.754-8.586 11.723-4.535 2.457-2.176 6.836-2.418 9.508-.504.695.492 1.61 1.578 1.484 1.488.703 1.008 1.172 2.273 1.172 3.805 0 1.129-.008 2.558 0 4.113 1.457.008 2.836 0 3.91 0 1.528 0 2.793.45 3.797 1.156-.086-.125 1 .785 1.492 1.48 1.914 2.676 1.672 7.051-.504 9.512 4.051 4.965.754 11.782-4.535 11.782 0 0-1.664-.012-4.172 0m-1.925-1.706h5.511c5.676 0 6.649-7.832 2.196-9.965 3.953-1.567 4.328-10.23-2.383-10.258-.95-.008-5.301-.012-5.301-.012V7.223C33.051.512 24.391.883 22.82 4.836 20.687.383 12.805 1.359 12.805 7.03c0 0 .004 3.438 0 5.7H7.324c-6.05 0-7.215 7.855-2.636 10.113C.172 25.23 1.261 32.973 7.137 33h5.726v5.469c.028 5.875 7.7 6.965 10.086 2.445 2.258 4.582 10.067 3.418 10.067-2.633v-5.367z" style="stroke:none;fill-rule:nonzero;fill:#ba9b1b;fill-opacity:1"/></g><path d="M25.574 22.852a2.674 2.674 0 1 1-5.348-.005 2.674 2.674 0 0 1 5.348.005" style="stroke:none;fill-rule:nonzero;fill:#ba9b1b;fill-opacity:1"/></svg>