<?xml version="1.0" encoding="UTF-8"?>
<svg xmlns="http://www.w3.org/2000/svg" xmlns:xlink="http://www.w3.org/1999/xlink" width="144.27pt" height="59pt" viewBox="0 0 144.27 59" version="1.1">
<defs>
<clipPath id="clip1">
  <path d="M 138 22 L 144.269531 22 L 144.269531 30 L 138 30 Z M 138 22 "/>
</clipPath>
</defs>
<g id="surface1">
<path style=" stroke:none;fill-rule:nonzero;fill:rgb(25.248718%,62.464905%,80.522156%);fill-opacity:1;" d="M 13.816406 24.601562 C 14.355469 24.183594 14.996094 23.847656 15.152344 23.0625 C 14.902344 22.480469 14.542969 22.070312 13.914062 21.832031 C 13.238281 22.191406 12.648438 22.640625 12.421875 23.5 C 12.765625 23.90625 13.046875 24.339844 13.816406 24.601562 Z M 53.925781 28.316406 C 51.421875 29.398438 51.191406 29.390625 50.335938 28.242188 C 50.601562 27.597656 51.09375 27.898438 51.542969 27.933594 C 52.640625 28.019531 52.820312 27.871094 53.308594 26.621094 C 52.863281 26.308594 52.347656 26.175781 51.828125 26.160156 C 49.785156 26.101562 47.746094 25.777344 45.707031 26.109375 C 45.496094 26.144531 45.285156 26.15625 45.082031 26.207031 C 43.4375 26.59375 43.128906 27.15625 43.660156 28.773438 C 43.691406 28.871094 43.695312 28.980469 43.722656 29.171875 C 42.210938 29.535156 41.019531 29.003906 39.957031 27.988281 C 40.03125 27.875 40.050781 27.816406 40.082031 27.804688 C 40.667969 27.644531 41.503906 27.644531 41.289062 26.730469 C 41.101562 25.933594 40.308594 26.054688 39.695312 26.097656 C 38.128906 26.210938 37.539062 27.121094 37.980469 28.679688 C 38.023438 28.828125 38.046875 28.980469 38.09375 29.195312 C 36.5625 29.5 35.328125 29.042969 34.246094 27.960938 C 34.390625 27.851562 34.457031 27.753906 34.535156 27.746094 C 35.167969 27.6875 35.769531 27.527344 35.617188 26.734375 C 35.492188 26.089844 34.871094 26.089844 34.335938 26.082031 C 32.789062 26.058594 32.089844 26.789062 32.003906 28.511719 C 31.671875 28.730469 31.292969 28.65625 30.933594 28.664062 C 30.199219 28.679688 29.46875 28.667969 28.539062 28.667969 C 29.046875 27.765625 30.332031 27.738281 30.214844 26.613281 C 30.105469 26.371094 29.902344 26.207031 29.628906 26.171875 C 28.421875 26.027344 27.207031 26.046875 25.996094 26.109375 C 25.367188 26.140625 25.082031 26.523438 25.066406 27.121094 C 25.554688 27.574219 26.246094 27.210938 26.714844 27.609375 C 26.851562 28.085938 26.449219 28.269531 26.199219 28.488281 C 25.867188 28.78125 26.082031 29.171875 25.894531 29.5625 C 24.714844 29.332031 23.574219 29.019531 22.609375 28.132812 C 22.003906 28.605469 21.417969 29.039062 20.644531 29.085938 C 20.148438 29.117188 19.703125 29.03125 19.300781 28.753906 C 19.121094 28.628906 19.019531 28.429688 19.078125 28.207031 C 19.132812 27.980469 19.320312 27.832031 19.53125 27.828125 C 19.785156 27.820312 20.042969 27.921875 20.304688 27.945312 C 21.488281 28.042969 21.664062 27.914062 22.199219 26.59375 C 20.441406 25.917969 12.0625 25.859375 10.488281 26.546875 C 10.511719 27.441406 11.082031 27.910156 11.824219 28.179688 C 12.097656 30.132812 11.515625 34.375 10.519531 37.824219 C 12.328125 36.839844 13.496094 33.179688 14.738281 27.785156 C 15.480469 27.605469 16.253906 27.675781 17.097656 27.730469 C 17.097656 28.273438 16.542969 28.707031 16.929688 29.230469 C 17.332031 29.769531 17.859375 30.109375 18.503906 30.191406 C 19.339844 30.296875 20.195312 30.367188 21.011719 30.089844 C 21.585938 29.894531 22.128906 29.835938 22.703125 30.042969 C 23.46875 30.320312 24.289062 30.351562 25.046875 30.214844 C 26.460938 29.957031 27.835938 29.933594 29.25 30.210938 C 30.46875 30.449219 31.554688 30.121094 32.222656 28.875 C 34.167969 30.40625 36.191406 30.53125 38.324219 29.914062 C 38.726562 29.796875 39.132812 29.726562 39.558594 29.882812 C 41.222656 30.492188 42.867188 30.316406 44.597656 29.714844 C 44.773438 29.144531 44.757812 28.40625 45.46875 28.042969 C 46.070312 27.730469 46.609375 27.636719 48.21875 27.789062 C 48.082031 28.371094 47.890625 29 48.425781 29.496094 C 48.953125 29.988281 49.5625 30.242188 50.28125 30.246094 C 50.648438 30.246094 51.035156 30.308594 51.382812 30.226562 C 52.398438 29.992188 53.335938 29.746094 54.433594 30.117188 C 55.335938 30.421875 56.398438 30.261719 57.460938 30.308594 C 57.324219 31.101562 56.835938 31.59375 56.433594 32.125 C 52.964844 36.714844 48.984375 40.847656 44.929688 44.910156 C 41.210938 48.640625 37.398438 52.269531 33.285156 55.570312 C 31.847656 56.726562 30.328125 57.761719 28.667969 58.59375 C 27.664062 59.09375 26.671875 59.117188 25.613281 58.75 C 23.785156 58.121094 22.242188 57 20.757812 55.839844 C 16.726562 52.691406 12.960938 49.234375 9.476562 45.496094 C 6.574219 42.378906 3.601562 39.304688 1.375 35.628906 C 1.046875 35.089844 0.730469 34.539062 0.457031 33.972656 C -0.195312 32.601562 -0.144531 31.28125 0.574219 29.894531 C 1.675781 27.765625 3.171875 25.933594 4.683594 24.113281 C 9.203125 18.675781 14.253906 13.738281 19.367188 8.875 C 22.257812 6.125 25.222656 3.421875 28.648438 1.300781 C 28.738281 1.246094 28.828125 1.1875 28.910156 1.125 C 30.996094 -0.460938 33.054688 -0.273438 35.1875 1.089844 C 37.324219 2.453125 39.359375 3.949219 41.246094 5.632812 C 46.359375 10.191406 51.210938 15.011719 55.46875 20.402344 C 56.644531 21.894531 57.726562 23.441406 58.511719 25.1875 C 59.035156 26.359375 59.078125 27.484375 58.554688 28.683594 C 58.246094 29.394531 57.855469 29.679688 57.105469 29.507812 C 55.976562 29.253906 54.863281 28.964844 53.925781 28.316406 "/>
<path style=" stroke:none;fill-rule:nonzero;fill:rgb(25.248718%,62.464905%,80.522156%);fill-opacity:1;" d="M 69.101562 25.570312 C 69.074219 25.460938 69.046875 25.34375 69.015625 25.210938 C 68.980469 25.078125 68.953125 24.953125 68.921875 24.832031 C 68.894531 24.710938 68.867188 24.597656 68.84375 24.488281 C 68.824219 24.386719 68.808594 24.304688 68.800781 24.246094 L 68.78125 24.246094 C 68.769531 24.308594 68.753906 24.394531 68.734375 24.496094 C 68.714844 24.597656 68.691406 24.707031 68.664062 24.828125 C 68.632812 24.945312 68.605469 25.070312 68.570312 25.195312 C 68.539062 25.324219 68.511719 25.445312 68.484375 25.5625 L 68.160156 26.847656 L 69.417969 26.847656 Z M 70.082031 29.5 L 69.839844 28.53125 L 67.734375 28.53125 L 67.484375 29.5 L 65.046875 29.5 L 67.113281 22.71875 L 70.789062 22.71875 L 72.855469 29.5 L 70.082031 29.5 "/>
<path style=" stroke:none;fill-rule:nonzero;fill:rgb(25.248718%,62.464905%,80.522156%);fill-opacity:1;" d="M 78.292969 29.5 L 78.292969 22.71875 L 80.820312 22.71875 L 80.820312 29.5 L 78.292969 29.5 "/>
<path style=" stroke:none;fill-rule:nonzero;fill:rgb(25.248718%,62.464905%,80.522156%);fill-opacity:1;" d="M 90.808594 25.023438 C 90.808594 24.863281 90.777344 24.738281 90.714844 24.644531 C 90.648438 24.550781 90.570312 24.480469 90.472656 24.433594 C 90.378906 24.386719 90.269531 24.351562 90.152344 24.335938 C 90.03125 24.320312 89.917969 24.3125 89.808594 24.3125 L 89.339844 24.3125 L 89.339844 25.78125 L 89.878906 25.78125 C 89.984375 25.78125 90.09375 25.773438 90.203125 25.75 C 90.3125 25.726562 90.414062 25.6875 90.503906 25.632812 C 90.59375 25.578125 90.664062 25.503906 90.722656 25.402344 C 90.78125 25.304688 90.808594 25.175781 90.808594 25.023438 Z M 90.808594 29.5 L 89.992188 27.605469 C 89.949219 27.511719 89.90625 27.4375 89.863281 27.382812 C 89.824219 27.328125 89.78125 27.289062 89.742188 27.261719 C 89.707031 27.234375 89.667969 27.21875 89.628906 27.214844 C 89.589844 27.207031 89.550781 27.203125 89.511719 27.203125 L 89.339844 27.203125 L 89.339844 29.5 L 86.8125 29.5 L 86.8125 22.71875 L 90.058594 22.71875 C 90.273438 22.71875 90.5 22.722656 90.746094 22.738281 C 90.992188 22.75 91.238281 22.78125 91.476562 22.832031 C 91.71875 22.886719 91.949219 22.957031 92.167969 23.050781 C 92.390625 23.144531 92.585938 23.269531 92.753906 23.429688 C 92.925781 23.589844 93.058594 23.785156 93.15625 24.019531 C 93.257812 24.253906 93.308594 24.535156 93.308594 24.871094 C 93.308594 25.121094 93.269531 25.34375 93.1875 25.539062 C 93.105469 25.734375 93.007812 25.898438 92.886719 26.035156 C 92.761719 26.175781 92.628906 26.289062 92.484375 26.382812 C 92.34375 26.476562 92.210938 26.542969 92.085938 26.589844 C 92.175781 26.757812 92.296875 26.96875 92.449219 27.234375 C 92.597656 27.496094 92.753906 27.769531 92.917969 28.050781 C 93.082031 28.332031 93.238281 28.601562 93.394531 28.859375 C 93.546875 29.121094 93.671875 29.332031 93.769531 29.5 L 90.808594 29.5 "/>
<path style=" stroke:none;fill-rule:nonzero;fill:rgb(25.248718%,62.464905%,80.522156%);fill-opacity:1;" d="M 107.929688 29.5 L 104.449219 29.5 L 103.960938 26.136719 C 103.921875 25.886719 103.890625 25.636719 103.867188 25.390625 C 103.847656 25.140625 103.828125 24.945312 103.816406 24.8125 L 103.796875 24.8125 C 103.789062 24.882812 103.78125 24.96875 103.773438 25.070312 C 103.765625 25.175781 103.753906 25.285156 103.738281 25.402344 C 103.726562 25.523438 103.714844 25.644531 103.699219 25.773438 C 103.6875 25.902344 103.671875 26.023438 103.652344 26.136719 L 103.164062 29.5 L 99.675781 29.5 L 98.617188 22.71875 L 101.261719 22.71875 L 101.636719 26.570312 C 101.640625 26.679688 101.648438 26.796875 101.660156 26.921875 C 101.667969 27.046875 101.675781 27.164062 101.683594 27.28125 C 101.6875 27.398438 101.695312 27.503906 101.703125 27.601562 C 101.710938 27.703125 101.714844 27.78125 101.714844 27.839844 L 101.730469 27.839844 C 101.742188 27.691406 101.765625 27.5 101.792969 27.261719 C 101.824219 27.023438 101.855469 26.792969 101.886719 26.570312 L 102.421875 22.71875 L 105.554688 22.71875 L 106.09375 26.570312 C 106.125 26.8125 106.15625 27.054688 106.183594 27.296875 C 106.214844 27.535156 106.234375 27.71875 106.246094 27.839844 L 106.265625 27.839844 C 106.265625 27.78125 106.269531 27.699219 106.273438 27.597656 C 106.28125 27.496094 106.289062 27.386719 106.296875 27.265625 C 106.300781 27.148438 106.308594 27.027344 106.316406 26.90625 C 106.328125 26.785156 106.339844 26.671875 106.351562 26.570312 L 106.71875 22.71875 L 108.984375 22.71875 L 107.929688 29.5 "/>
<path style=" stroke:none;fill-rule:nonzero;fill:rgb(25.248718%,62.464905%,80.522156%);fill-opacity:1;" d="M 117.90625 25.570312 C 117.882812 25.460938 117.855469 25.34375 117.820312 25.210938 C 117.789062 25.078125 117.757812 24.953125 117.730469 24.832031 C 117.699219 24.710938 117.675781 24.597656 117.652344 24.488281 C 117.632812 24.386719 117.617188 24.304688 117.609375 24.246094 L 117.589844 24.246094 C 117.578125 24.308594 117.5625 24.394531 117.542969 24.496094 C 117.523438 24.597656 117.5 24.707031 117.472656 24.828125 C 117.441406 24.945312 117.410156 25.070312 117.378906 25.195312 C 117.347656 25.324219 117.316406 25.445312 117.292969 25.5625 L 116.96875 26.847656 L 118.226562 26.847656 Z M 118.886719 29.5 L 118.648438 28.53125 L 116.542969 28.53125 L 116.292969 29.5 L 113.855469 29.5 L 115.921875 22.71875 L 119.597656 22.71875 L 121.664062 29.5 L 118.886719 29.5 "/>
<path style=" stroke:none;fill-rule:nonzero;fill:rgb(25.248718%,62.464905%,80.522156%);fill-opacity:1;" d="M 131.492188 27.347656 L 131.492188 29.5 L 128.953125 29.5 L 128.953125 27.347656 L 126.582031 22.71875 L 129.464844 22.71875 L 130.433594 25.246094 L 131.25 22.71875 L 133.796875 22.71875 L 131.492188 27.347656 "/>
<g clip-path="url(#clip1)" clip-rule="nonzero">
<path style=" stroke:none;fill-rule:nonzero;fill:rgb(25.248718%,62.464905%,80.522156%);fill-opacity:1;" d="M 144.265625 27.097656 C 144.265625 27.535156 144.1875 27.910156 144.019531 28.230469 C 143.859375 28.550781 143.632812 28.816406 143.34375 29.03125 C 143.058594 29.242188 142.722656 29.398438 142.335938 29.503906 C 141.953125 29.609375 141.539062 29.664062 141.097656 29.664062 C 140.71875 29.664062 140.34375 29.644531 139.96875 29.605469 C 139.59375 29.566406 139.25 29.503906 138.9375 29.414062 L 139.289062 27.578125 C 139.464844 27.65625 139.667969 27.722656 139.898438 27.78125 C 140.136719 27.839844 140.394531 27.867188 140.675781 27.867188 C 140.769531 27.867188 140.867188 27.863281 140.960938 27.851562 C 141.058594 27.84375 141.144531 27.820312 141.222656 27.785156 C 141.300781 27.75 141.363281 27.703125 141.414062 27.644531 C 141.464844 27.589844 141.488281 27.511719 141.488281 27.414062 C 141.488281 27.300781 141.445312 27.210938 141.359375 27.152344 C 141.273438 27.089844 141.175781 27.039062 141.058594 26.992188 L 140.703125 26.859375 C 140.503906 26.78125 140.304688 26.695312 140.097656 26.597656 C 139.894531 26.503906 139.710938 26.382812 139.546875 26.234375 C 139.382812 26.085938 139.25 25.910156 139.144531 25.710938 C 139.042969 25.507812 138.992188 25.265625 138.992188 24.976562 C 138.992188 24.566406 139.070312 24.207031 139.222656 23.90625 C 139.378906 23.601562 139.589844 23.347656 139.855469 23.144531 C 140.128906 22.945312 140.441406 22.792969 140.804688 22.691406 C 141.164062 22.585938 141.554688 22.535156 141.972656 22.535156 C 142.316406 22.535156 142.671875 22.554688 143.035156 22.597656 C 143.402344 22.640625 143.742188 22.699219 144.054688 22.777344 L 143.710938 24.542969 C 143.550781 24.460938 143.351562 24.390625 143.109375 24.335938 C 142.867188 24.28125 142.621094 24.253906 142.363281 24.253906 C 142.121094 24.253906 141.957031 24.296875 141.875 24.375 C 141.792969 24.457031 141.75 24.535156 141.75 24.609375 C 141.75 24.765625 141.878906 24.886719 142.132812 24.976562 L 142.519531 25.121094 C 142.730469 25.195312 142.9375 25.289062 143.148438 25.394531 C 143.355469 25.5 143.542969 25.628906 143.710938 25.777344 C 143.875 25.929688 144.011719 26.109375 144.113281 26.324219 C 144.214844 26.539062 144.265625 26.796875 144.265625 27.097656 "/>
</g>
</g>
</svg>
