<?xml version="1.0" encoding="UTF-8"?>
<svg xmlns="http://www.w3.org/2000/svg" xmlns:xlink="http://www.w3.org/1999/xlink" width="177.52pt" height="20.7pt" viewBox="0 0 177.52 20.7" version="1.1">
<defs>
<clipPath id="clip1">
  <path d="M 9 0 L 31 0 L 31 20.699219 L 9 20.699219 Z M 9 0 "/>
</clipPath>
<clipPath id="clip2">
  <path d="M 31 0 L 55 0 L 55 20.699219 L 31 20.699219 Z M 31 0 "/>
</clipPath>
<clipPath id="clip3">
  <path d="M 61 0 L 83 0 L 83 20.699219 L 61 20.699219 Z M 61 0 "/>
</clipPath>
<clipPath id="clip4">
  <path d="M 84 0 L 95 0 L 95 20.699219 L 84 20.699219 Z M 84 0 "/>
</clipPath>
<clipPath id="clip5">
  <path d="M 93 5 L 108 5 L 108 20.699219 L 93 20.699219 Z M 93 5 "/>
</clipPath>
<clipPath id="clip6">
  <path d="M 106 0 L 117 0 L 117 20.699219 L 106 20.699219 Z M 106 0 "/>
</clipPath>
<clipPath id="clip7">
  <path d="M 115 0 L 126 0 L 126 20.699219 L 115 20.699219 Z M 115 0 "/>
</clipPath>
<clipPath id="clip8">
  <path d="M 124 5 L 143 5 L 143 20.699219 L 124 20.699219 Z M 124 5 "/>
</clipPath>
<clipPath id="clip9">
  <path d="M 143 5 L 161 5 L 161 20.699219 L 143 20.699219 Z M 143 5 "/>
</clipPath>
<clipPath id="clip10">
  <path d="M 161 5 L 177.519531 5 L 177.519531 20.699219 L 161 20.699219 Z M 161 5 "/>
</clipPath>
<clipPath id="clip11">
  <path d="M 0 0 L 21 0 L 21 20.699219 L 0 20.699219 Z M 0 0 "/>
</clipPath>
</defs>
<g id="surface1">
<g clip-path="url(#clip1)" clip-rule="nonzero">
<path style=" stroke:none;fill-rule:nonzero;fill:rgb(21.2677%,21.253967%,58.799744%);fill-opacity:1;" d="M 18.660156 8.523438 L 21.304688 8.523438 C 22.25 8.523438 22.945312 8.363281 23.382812 8.042969 C 23.824219 7.722656 24.109375 7.257812 24.242188 6.652344 C 24.363281 6.089844 24.273438 5.648438 23.972656 5.332031 C 23.667969 5.015625 23.058594 4.859375 22.136719 4.859375 L 19.457031 4.859375 Z M 17.015625 16.117188 L 20.113281 16.117188 C 21.160156 16.117188 21.933594 15.933594 22.441406 15.570312 C 22.953125 15.207031 23.273438 14.714844 23.40625 14.101562 C 23.527344 13.53125 23.417969 13.070312 23.066406 12.722656 C 22.71875 12.375 22.011719 12.203125 20.949219 12.203125 L 17.863281 12.203125 Z M 14.175781 0.941406 L 25.546875 0.941406 C 27.441406 0.941406 28.796875 1.402344 29.613281 2.328125 C 30.425781 3.25 30.683594 4.394531 30.390625 5.753906 C 30.144531 6.898438 29.566406 7.878906 28.667969 8.695312 C 28.066406 9.242188 27.265625 9.671875 26.269531 9.988281 C 27.609375 10.320312 28.523438 10.894531 29.011719 11.707031 C 29.503906 12.519531 29.613281 13.542969 29.347656 14.773438 C 29.128906 15.773438 28.699219 16.675781 28.050781 17.476562 C 27.402344 18.273438 26.617188 18.910156 25.695312 19.375 C 25.121094 19.664062 24.308594 19.875 23.25 20.007812 C 21.84375 20.183594 20.917969 20.269531 20.472656 20.269531 L 9.988281 20.269531 L 14.175781 0.941406 "/>
</g>
<g clip-path="url(#clip2)" clip-rule="nonzero">
<path style=" stroke:none;fill-rule:nonzero;fill:rgb(21.2677%,21.253967%,58.799744%);fill-opacity:1;" d="M 35.550781 0.941406 L 41.625 0.941406 L 40.160156 7.707031 L 46.796875 7.707031 L 48.261719 0.941406 L 54.363281 0.941406 L 50.171875 20.269531 L 44.070312 20.269531 L 45.765625 12.453125 L 39.128906 12.453125 L 37.433594 20.269531 L 31.359375 20.269531 L 35.550781 0.941406 "/>
</g>
<g clip-path="url(#clip3)" clip-rule="nonzero">
<path style=" stroke:none;fill-rule:nonzero;fill:rgb(21.2677%,21.253967%,58.799744%);fill-opacity:1;" d="M 75.789062 12.898438 L 75.125 5.953125 L 71.472656 12.898438 Z M 76.144531 17.082031 L 69.246094 17.082031 L 67.597656 20.269531 L 61.394531 20.269531 L 72.972656 0.941406 L 79.601562 0.941406 L 82.796875 20.269531 L 76.433594 20.269531 L 76.144531 17.082031 "/>
</g>
<g clip-path="url(#clip4)" clip-rule="nonzero">
<path style=" stroke:none;fill-rule:nonzero;fill:rgb(21.2677%,21.253967%,58.799744%);fill-opacity:1;" d="M 88.757812 0.941406 L 94.214844 0.941406 L 93.421875 4.59375 L 87.964844 4.59375 Z M 87.601562 6.269531 L 93.058594 6.269531 L 90.023438 20.269531 L 84.566406 20.269531 L 87.601562 6.269531 "/>
</g>
<g clip-path="url(#clip5)" clip-rule="nonzero">
<path style=" stroke:none;fill-rule:nonzero;fill:rgb(21.2677%,21.253967%,58.799744%);fill-opacity:1;" d="M 96.597656 6.269531 L 101.707031 6.269531 L 101.210938 8.5625 C 101.917969 7.570312 102.574219 6.886719 103.179688 6.511719 C 103.78125 6.140625 104.46875 5.953125 105.238281 5.953125 C 106.039062 5.953125 106.867188 6.199219 107.71875 6.691406 L 105.199219 10.515625 C 104.613281 10.25 104.132812 10.117188 103.757812 10.117188 C 103.042969 10.117188 102.425781 10.410156 101.90625 10.988281 C 101.164062 11.804688 100.550781 13.335938 100.066406 15.578125 L 99.046875 20.269531 L 93.566406 20.269531 L 96.597656 6.269531 "/>
</g>
<g clip-path="url(#clip6)" clip-rule="nonzero">
<path style=" stroke:none;fill-rule:nonzero;fill:rgb(21.2677%,21.253967%,58.799744%);fill-opacity:1;" d="M 110.988281 0.941406 L 116.460938 0.941406 L 112.269531 20.269531 L 106.796875 20.269531 L 110.988281 0.941406 "/>
</g>
<g clip-path="url(#clip7)" clip-rule="nonzero">
<path style=" stroke:none;fill-rule:nonzero;fill:rgb(21.2677%,21.253967%,58.799744%);fill-opacity:1;" d="M 120.144531 0.941406 L 125.601562 0.941406 L 124.8125 4.59375 L 119.355469 4.59375 Z M 118.992188 6.269531 L 124.449219 6.269531 L 121.414062 20.269531 L 115.957031 20.269531 L 118.992188 6.269531 "/>
</g>
<g clip-path="url(#clip8)" clip-rule="nonzero">
<path style=" stroke:none;fill-rule:nonzero;fill:rgb(21.2677%,21.253967%,58.799744%);fill-opacity:1;" d="M 127.933594 6.269531 L 133.015625 6.269531 L 132.523438 8.550781 C 133.484375 7.617188 134.398438 6.953125 135.261719 6.550781 C 136.125 6.152344 137.117188 5.953125 138.234375 5.953125 C 139.746094 5.953125 140.832031 6.394531 141.492188 7.277344 C 142.15625 8.160156 142.289062 9.523438 141.886719 11.371094 L 139.960938 20.269531 L 134.472656 20.269531 L 136.144531 12.570312 C 136.332031 11.691406 136.300781 11.070312 136.050781 10.707031 C 135.800781 10.339844 135.375 10.15625 134.777344 10.15625 C 134.113281 10.15625 133.523438 10.40625 133.007812 10.898438 C 132.488281 11.386719 132.09375 12.273438 131.816406 13.546875 L 130.359375 20.269531 L 124.898438 20.269531 L 127.933594 6.269531 "/>
</g>
<g clip-path="url(#clip9)" clip-rule="nonzero">
<path style=" stroke:none;fill-rule:nonzero;fill:rgb(21.2677%,21.253967%,58.799744%);fill-opacity:1;" d="M 155.261719 12.03125 C 155.378906 10.992188 155.253906 10.25 154.890625 9.800781 C 154.527344 9.355469 153.972656 9.128906 153.222656 9.128906 C 152.355469 9.128906 151.589844 9.46875 150.921875 10.144531 C 150.5 10.566406 150.152344 11.195312 149.882812 12.03125 Z M 160.253906 14.601562 L 149.3125 14.601562 C 149.226562 15.464844 149.324219 16.105469 149.605469 16.527344 C 150.003906 17.132812 150.625 17.4375 151.472656 17.4375 C 152.011719 17.4375 152.546875 17.304688 153.089844 17.039062 C 153.421875 16.875 153.800781 16.578125 154.230469 16.15625 L 159.503906 16.644531 C 158.375 18.050781 157.164062 19.058594 155.871094 19.671875 C 154.574219 20.28125 152.84375 20.589844 150.671875 20.589844 C 148.785156 20.589844 147.355469 20.324219 146.390625 19.800781 C 145.421875 19.28125 144.703125 18.449219 144.238281 17.3125 C 143.777344 16.171875 143.710938 14.835938 144.042969 13.296875 C 144.519531 11.105469 145.617188 9.335938 147.335938 7.984375 C 149.054688 6.628906 151.171875 5.953125 153.683594 5.953125 C 155.722656 5.953125 157.261719 6.257812 158.3125 6.863281 C 159.359375 7.46875 160.066406 8.347656 160.4375 9.5 C 160.800781 10.652344 160.785156 12.148438 160.386719 13.996094 L 160.253906 14.601562 "/>
</g>
<g clip-path="url(#clip10)" clip-rule="nonzero">
<path style=" stroke:none;fill-rule:nonzero;fill:rgb(21.2677%,21.253967%,58.799744%);fill-opacity:1;" d="M 161.410156 16.382812 L 166.9375 15.878906 C 167.023438 16.511719 167.238281 16.964844 167.578125 17.238281 C 167.925781 17.511719 168.429688 17.648438 169.101562 17.648438 C 169.835938 17.648438 170.433594 17.492188 170.902344 17.1875 C 171.265625 16.957031 171.484375 16.671875 171.558594 16.332031 C 171.644531 15.945312 171.5 15.644531 171.136719 15.4375 C 170.875 15.285156 170.132812 15.101562 168.910156 14.882812 C 167.085938 14.558594 165.835938 14.257812 165.15625 13.980469 C 164.476562 13.703125 163.960938 13.238281 163.597656 12.578125 C 163.234375 11.917969 163.144531 11.167969 163.328125 10.324219 C 163.527344 9.402344 163.972656 8.609375 164.660156 7.941406 C 165.351562 7.273438 166.210938 6.777344 167.238281 6.445312 C 168.265625 6.117188 169.585938 5.953125 171.195312 5.953125 C 172.890625 5.953125 174.117188 6.078125 174.871094 6.335938 C 175.625 6.589844 176.214844 6.984375 176.640625 7.519531 C 177.0625 8.058594 177.355469 8.78125 177.515625 9.699219 L 172.230469 10.199219 C 172.195312 9.75 172.042969 9.417969 171.777344 9.207031 C 171.40625 8.929688 170.917969 8.785156 170.3125 8.785156 C 169.695312 8.785156 169.222656 8.894531 168.894531 9.109375 C 168.566406 9.324219 168.367188 9.585938 168.300781 9.894531 C 168.226562 10.234375 168.351562 10.492188 168.671875 10.671875 C 168.988281 10.84375 169.730469 11.003906 170.898438 11.144531 C 172.671875 11.34375 173.960938 11.625 174.765625 11.988281 C 175.574219 12.347656 176.140625 12.859375 176.464844 13.527344 C 176.789062 14.195312 176.863281 14.929688 176.691406 15.726562 C 176.515625 16.535156 176.097656 17.320312 175.4375 18.085938 C 174.773438 18.847656 173.859375 19.457031 172.695312 19.910156 C 171.527344 20.359375 170.023438 20.589844 168.183594 20.589844 C 165.582031 20.589844 163.808594 20.222656 162.859375 19.492188 C 161.914062 18.765625 161.433594 17.726562 161.410156 16.382812 "/>
</g>
<path style=" stroke:none;fill-rule:nonzero;fill:rgb(96.495056%,79.328918%,3.170776%);fill-opacity:1;" d="M 14.453125 1.398438 L 13.113281 8.011719 L 19.253906 11.363281 L 12.417969 11.855469 L 11.257812 19.011719 L 8.542969 12.382812 L 1.515625 13.769531 L 6.847656 8.859375 L 3.488281 2.882812 L 9.671875 6.15625 L 14.453125 1.398438 "/>
<g clip-path="url(#clip11)" clip-rule="nonzero">
<path style=" stroke:none;fill-rule:nonzero;fill:rgb(21.2677%,21.253967%,58.799744%);fill-opacity:1;" d="M 8.828125 11.855469 L 11.066406 17.324219 L 12.019531 11.421875 L 17.65625 11.015625 L 12.59375 8.253906 L 13.699219 2.796875 L 9.757812 6.726562 L 4.660156 4.027344 L 7.429688 8.953125 L 3.03125 13 Z M 11.453125 20.699219 L 8.261719 12.90625 L 0 14.539062 L 6.269531 8.765625 L 2.320312 1.742188 L 9.589844 5.59375 L 15.207031 -0.00390625 L 13.632812 7.769531 L 20.851562 11.710938 L 12.816406 12.289062 L 11.453125 20.699219 "/>
</g>
</g>
</svg>
