<svg xmlns="http://www.w3.org/2000/svg" width="236.693" height="27.6" viewBox="0 0 177.52 20.7"><defs><clipPath id="a"><path d="M9 0h22v20.7H9Zm0 0"/></clipPath><clipPath id="b"><path d="M31 0h24v20.7H31Zm0 0"/></clipPath><clipPath id="c"><path d="M61 0h22v20.7H61Zm0 0"/></clipPath><clipPath id="d"><path d="M84 0h11v20.7H84Zm0 0"/></clipPath><clipPath id="e"><path d="M93 5h15v15.7H93Zm0 0"/></clipPath><clipPath id="f"><path d="M106 0h11v20.7h-11Zm0 0"/></clipPath><clipPath id="g"><path d="M115 0h11v20.7h-11Zm0 0"/></clipPath><clipPath id="h"><path d="M124 5h19v15.7h-19Zm0 0"/></clipPath><clipPath id="i"><path d="M143 5h18v15.7h-18Zm0 0"/></clipPath><clipPath id="j"><path d="M161 5h16.52v15.7H161Zm0 0"/></clipPath><clipPath id="k"><path d="M0 0h21v20.7H0Zm0 0"/></clipPath></defs><g clip-path="url(#a)"><path d="M18.66 8.523h2.645q1.42 0 2.078-.48.66-.481.86-1.39.18-.846-.27-1.321c-.305-.316-.914-.473-1.836-.473h-2.68Zm-1.644 7.594h3.097c1.047 0 1.82-.183 2.328-.547q.767-.546.965-1.468c.121-.57.012-1.032-.34-1.38q-.521-.52-2.117-.519h-3.086ZM14.176.941h11.37q2.842-.001 4.067 1.387c.813.922 1.07 2.067.778 3.426-.246 1.144-.825 2.125-1.723 2.941q-.904.82-2.398 1.293 2.01.5 2.742 1.719c.492.813.601 1.836.336 3.066a6.4 6.4 0 0 1-1.297 2.704 7.2 7.2 0 0 1-2.356 1.898c-.574.29-1.386.5-2.445.633q-2.11.263-2.777.262H9.988z" style="stroke:none;fill-rule:nonzero;fill:#363696;fill-opacity:1"/></g><g clip-path="url(#b)"><path d="M35.55.941h6.075L40.16 7.707h6.637L48.262.941h6.101L50.172 20.27H44.07l1.696-7.817h-6.637l-1.695 7.817h-6.075z" style="stroke:none;fill-rule:nonzero;fill:#363696;fill-opacity:1"/></g><g clip-path="url(#c)"><path d="m75.79 12.898-.665-6.945-3.652 6.945Zm.355 4.184h-6.899l-1.648 3.188h-6.203L72.973.94h6.629l3.195 19.329h-6.363z" style="stroke:none;fill-rule:nonzero;fill:#363696;fill-opacity:1"/></g><g clip-path="url(#d)"><path d="M88.758.941h5.457l-.793 3.653h-5.457ZM87.602 6.27h5.457l-3.036 14h-5.457z" style="stroke:none;fill-rule:nonzero;fill:#363696;fill-opacity:1"/></g><g clip-path="url(#e)"><path d="M96.598 6.27h5.109l-.496 2.293q1.06-1.489 1.969-2.051.903-.558 2.058-.559 1.203 0 2.48.738l-2.519 3.825q-.879-.399-1.441-.399-1.072.002-1.852.871-1.113 1.226-1.84 4.59l-1.02 4.692h-5.48z" style="stroke:none;fill-rule:nonzero;fill:#363696;fill-opacity:1"/></g><g clip-path="url(#f)"><path d="M110.988.941h5.473L112.27 20.27h-5.473z" style="stroke:none;fill-rule:nonzero;fill:#363696;fill-opacity:1"/></g><g clip-path="url(#g)"><path d="M120.145.941h5.457l-.79 3.653h-5.457Zm-1.153 5.329h5.457l-3.035 14h-5.457z" style="stroke:none;fill-rule:nonzero;fill:#363696;fill-opacity:1"/></g><g clip-path="url(#h)"><path d="M127.934 6.27h5.082l-.493 2.28c.961-.933 1.875-1.597 2.739-2q1.295-.597 2.972-.597 2.268 0 3.258 1.324.997 1.323.395 4.094l-1.926 8.899h-5.488l1.672-7.7q.28-1.319-.094-1.863-.376-.55-1.274-.55c-.664 0-1.254.25-1.77.741-.519.489-.913 1.375-1.19 2.649l-1.458 6.723h-5.46z" style="stroke:none;fill-rule:nonzero;fill:#363696;fill-opacity:1"/></g><g clip-path="url(#i)"><path d="M155.262 12.031q.174-1.558-.371-2.23-.544-.67-1.668-.672-1.3.001-2.301 1.016-.634.632-1.04 1.886Zm4.992 2.57h-10.941q-.13 1.295.292 1.926.597.91 1.868.91c.539 0 1.074-.132 1.617-.398q.497-.247 1.14-.883l5.274.489q-1.694 2.108-3.633 3.027c-1.297.61-3.027.918-5.2.918-1.886 0-3.316-.266-4.28-.79q-1.455-.78-2.153-2.488-.691-1.708-.195-4.015.715-3.286 3.293-5.313 2.58-2.031 6.348-2.03c2.039 0 3.578.304 4.629.91a4.56 4.56 0 0 1 2.125 2.636q.545 1.726-.051 4.496z" style="stroke:none;fill-rule:nonzero;fill:#363696;fill-opacity:1"/></g><g clip-path="url(#j)"><path d="m161.41 16.383 5.528-.504q.129.95.64 1.36c.348.273.852.41 1.524.41.734 0 1.332-.157 1.8-.462q.545-.345.657-.855c.086-.387-.059-.687-.422-.895q-.393-.227-2.227-.554-2.735-.486-3.754-.903a3.05 3.05 0 0 1-1.558-1.402q-.545-.989-.27-2.254.3-1.382 1.332-2.383c.692-.668 1.55-1.164 2.578-1.496q1.543-.492 3.957-.492 2.545-.002 3.676.383 1.131.38 1.77 1.184c.422.539.714 1.261.875 2.18l-5.286.5q-.053-.676-.453-.993c-.37-.277-.859-.422-1.464-.422q-.926.002-1.418.324-.494.323-.594.786-.11.508.37.777.476.26 2.227.473 2.66.299 3.868.843 1.212.538 1.699 1.54.485 1.002.226 2.199-.263 1.211-1.254 2.359-.996 1.144-2.742 1.824c-1.168.45-2.672.68-4.511.68q-3.901 0-5.325-1.098c-.945-.726-1.425-1.765-1.449-3.11" style="stroke:none;fill-rule:nonzero;fill:#363696;fill-opacity:1"/></g><path d="m14.453 1.398-1.34 6.614 6.14 3.351-6.835.492-1.16 7.157-2.715-6.63-7.027 1.388 5.332-4.91-3.36-5.977 6.184 3.273z" style="stroke:none;fill-rule:nonzero;fill:#f6ca08;fill-opacity:1"/><g clip-path="url(#k)"><path d="m8.828 11.855 2.238 5.47.954-5.903 5.636-.406-5.062-2.762 1.105-5.457-3.941 3.93-5.098-2.7 2.77 4.926L3.03 13Zm2.625 8.844-3.191-7.793L0 14.54l6.27-5.773-3.95-7.024 7.27 3.852 5.617-5.598-1.574 7.774 7.219 3.94-8.036.58z" style="stroke:none;fill-rule:nonzero;fill:#363696;fill-opacity:1"/></g></svg>