<svg xmlns="http://www.w3.org/2000/svg" width="176pt" height="66.213" viewBox="0 0 176 49.66"><defs><clipPath id="a"><path d="M0 0h58v49.66H0Zm0 0"/></clipPath><clipPath id="b"><path d="M4 2h54v47.66H4Zm0 0"/></clipPath><clipPath id="c"><path d="M11 26h43v23.66H11Zm0 0"/></clipPath><clipPath id="d"><path d="M18 42h34v7.66H18Zm0 0"/></clipPath><clipPath id="e"><path d="M55 0h36v49.66H55Zm0 0"/></clipPath><clipPath id="f"><path d="M91 0h45v49.66H91Zm0 0"/></clipPath><clipPath id="g"><path d="M134 0h42v49.66h-42Zm0 0"/></clipPath></defs><g clip-path="url(#a)"><path d="M0 49.66C22.918 40.277 36.188 29.02 57.367.871H42.891C26.664 33.887 0 49.661 0 49.661" style="stroke:none;fill-rule:nonzero;fill:#e7e810;fill-opacity:1"/></g><g clip-path="url(#b)"><path d="M4.262 49.66c10.75-2.68 26.789-8.847 50.156-25.062L57.84 2.48C32.57 37.73 4.262 49.66 4.262 49.66" style="stroke:none;fill-rule:nonzero;fill:#d71f25;fill-opacity:1"/></g><g clip-path="url(#c)"><path d="M11.484 49.66c10.364-1.34 25.52-4.777 40.118-8.98l2.203-14.328C36.59 39.207 11.485 49.66 11.485 49.66" style="stroke:none;fill-rule:nonzero;fill:#d71f25;fill-opacity:1"/></g><g clip-path="url(#d)"><path d="M18.512 49.66h31.48l1.207-7.105s-25.719 6.3-32.687 7.105" style="stroke:none;fill-rule:nonzero;fill:#d71f25;fill-opacity:1"/></g><path d="m45.348 9.016.406 7.351 2.734.406-2.734.407-.406 8.086-.407-8.086-2.734-.407 2.734-.406zM35.785 29.879l.356 6.41 2.386.352-2.386.355-.356 7.05-.351-7.05-2.387-.355 2.387-.352z" style="stroke:none;fill-rule:nonzero;fill:#fff;fill-opacity:1"/><g clip-path="url(#e)"><path d="M63.3.36h26.962l-1.227 7.156h-18.41l-2.18 13.734h17.106l-1.156 7.086H67.289l-3.266 20.746h-8.476z" style="stroke:none;fill-rule:nonzero;fill:#d71f25;fill-opacity:1"/></g><g clip-path="url(#f)"><path d="M100.7 42.215c1.675.215 3.487.289 5.37.289 6.598 0 11.82-2.094 15.25-6 3.715-4.047 5.493-9.832 5.293-16.191-.254-8.098-4.699-13.52-14.918-13.52-1.957 0-4.05.144-5.422.434ZM98.761 1.082c3.965-.723 8.3-1.086 12.867-1.086 7.828 0 14.05 2.027 18.086 5.856 3.426 3.039 5.816 7.593 6.027 14.316.285 9.18-3.222 17.566-9.222 22.625-5.508 4.629-12.622 6.578-22.625 6.578-5.145 0-9.938-.36-12.704-.723z" style="stroke:none;fill-rule:nonzero;fill:#d71f25;fill-opacity:1"/></g><g clip-path="url(#g)"><path d="M168.32.36h-10.582l-22.976 48.722h8.988l6.234-13.879H150l2.754-6.504 5.273-12.148c1.286-2.89 2.48-6.36 3.696-9.25h.144c.309 2.89.715 6.648 1.016 9.25l1.754 12.148h-8.68l-2.758 6.504h12.149l1.812 13.879H176z" style="stroke:none;fill-rule:nonzero;fill:#d71f25;fill-opacity:1"/></g></svg>