<svg xmlns="http://www.w3.org/2000/svg" width="176pt" height="56.16" viewBox="0 0 176 42.12"><defs><clipPath id="a"><path d="M129 0h47v42.121h-47Zm0 0"/></clipPath></defs><path d="M60.078 20.723h-4.57v9.832c0 1.789 1.047 2.175 2.66 2.175.605 0 1.258-.082 1.91-.082v5.442c-1.348.043-2.7.215-4.047.215-6.316 0-7.926-1.825-7.926-7.965v-9.617h-3.742v-4.97h3.742V8.657h7.403v7.098h4.57zM97.344 20.723H92.77v9.832c0 1.789 1.05 2.175 2.656 2.175.61 0 1.265-.082 1.918-.082v5.442c-1.352.043-2.703.215-4.051.215-6.313 0-7.926-1.825-7.926-7.965v-9.617h-3.742v-4.97h3.742V8.657h7.403v7.098h4.574zM20.648 28.688c0 6.609-3.386 9.949-10.324 9.949C2.52 38.637 0 34.14 0 27.574v-1.281h7.23v2.727c0 1.937 1.07 3.015 2.97 3.015 1.773 0 2.769-.992 2.769-3.844V8.535h7.68zM37.898 24.48c-.132-2.5-1.898-4.574-4.359-4.574-2.594 0-4.316 1.86-4.75 4.574Zm-9.109 4.102c.129 3.063 1.902 5.094 5.008 5.094 1.77 0 3.5-.82 4.191-2.461h6.856c-1.332 5.183-6.125 7.422-11.133 7.422-7.293 0-12.258-4.399-12.258-11.91 0-6.868 5.48-11.79 12.086-11.79 8.027 0 12.043 6.047 11.695 13.645zM67.297 30.633c0 1.117.469 1.937 1.203 2.496.688.516 1.68.773 2.715.773 1.422 0 3.441-.605 3.441-2.363 0-1.727-2.281-2.07-3.57-2.371-4.61-1.16-10.379-1.293-10.379-7.32 0-5.38 5.816-6.848 10.207-6.848 4.906 0 10.031 1.422 10.29 7.238h-6.759c0-.949-.347-1.554-.949-1.941-.601-.387-1.418-.559-2.324-.559-1.207 0-3.14.133-3.14 1.68 0 2.11 4.902 2.496 8.261 3.23 4.523.903 5.684 4.176 5.684 6.028 0 5.984-5.684 7.96-10.72 7.96-5.296 0-10.722-1.765-10.937-8.003zM108.129 34.129c3.48 0 4.64-1.973 4.469-6.566-1.032.64-2.922.769-4.508 1.199-1.633.386-3.004 1.074-3.004 2.836 0 1.8 1.414 2.53 3.043 2.53m-9.445-11.55c.132-2.923 1.504-4.813 3.48-5.97 1.973-1.117 4.55-1.547 7.082-1.547 5.281 0 10.39 1.16 10.39 7.477v9.746c0 1.887 0 3.95.864 5.711h-7.348c-.254-.687-.34-1.375-.425-2.105-1.891 1.976-4.684 2.746-7.344 2.746-4.25 0-7.602-2.145-7.602-6.739 0-7.261 7.903-6.699 12.973-7.73 1.238-.258 1.93-.688 1.93-2.063 0-1.675-2.016-2.32-3.524-2.32-2.015 0-3.305.902-3.648 2.793zM130.887 16.402c-1.117.73-1.985 1.801-2.512 3.192h-.086v-3.918h-7.105v22.347h7.32V26.957c0-2.797 1.887-5.297 5.508-5.297.84 0 1.593.13 2.375.324z" style="stroke:none;fill-rule:nonzero;fill:#211c1d;fill-opacity:1"/><g clip-path="url(#a)"><path d="m157.688.004.789 12.687H176l-16.781 11.11 3.699 18.32-14.27-12.39-19.207 9.968L140.895 24l-10.86-11.309h17.578z" style="stroke:none;fill-rule:evenodd;fill:#ee461d;fill-opacity:1"/></g></svg>