<?xml version="1.0" encoding="UTF-8"?>
<svg xmlns="http://www.w3.org/2000/svg" xmlns:xlink="http://www.w3.org/1999/xlink" width="176pt" height="35.48pt" viewBox="0 0 176 35.48" version="1.1">
<defs>
<clipPath id="clip1">
  <path d="M 0 0 L 52 0 L 52 35.480469 L 0 35.480469 Z M 0 0 "/>
</clipPath>
</defs>
<g id="surface1">
<g clip-path="url(#clip1)" clip-rule="nonzero">
<path style=" stroke:none;fill-rule:nonzero;fill:rgb(13.404846%,26.025391%,47.265625%);fill-opacity:1;" d="M 27.253906 31.78125 C 27.746094 32.394531 29.101562 33.917969 29.265625 35.480469 C 29.265625 35.480469 30.617188 33.671875 29.59375 31.125 C 29.59375 31.125 29.429688 30.507812 27.707031 28.742188 L 26.1875 30.550781 L 26.394531 30.714844 Z M 30.046875 24.589844 L 28.566406 22.867188 C 27.296875 24.34375 21.671875 30.550781 21.550781 31.164062 C 20.5625 33.671875 21.878906 35.480469 21.878906 35.480469 C 22.042969 33.917969 23.398438 32.394531 23.890625 31.78125 Z M 33.863281 20.074219 L 35.75 17.9375 L 36.734375 16.703125 L 39.976562 12.964844 C 39.976562 12.964844 41.660156 11.035156 44.121094 10.953125 C 45.476562 10.914062 46.914062 11.445312 48.308594 12.597656 C 47.734375 13.214844 46.75 13.996094 45.4375 14.28125 C 44.121094 14.488281 42.6875 14.15625 41.167969 13.007812 L 39.691406 14.734375 C 41.742188 16.210938 43.878906 16.828125 45.890625 16.5 C 48.96875 15.84375 50.652344 13.214844 50.734375 13.046875 L 51.226562 12.308594 L 50.570312 11.652344 C 48.515625 9.597656 46.300781 8.613281 44.003906 8.695312 C 42.199219 8.777344 40.71875 9.558594 39.691406 10.253906 C 39.652344 10.296875 39.242188 10.585938 39.199219 10.625 L 37.597656 8.941406 C 37.230469 8.445312 36.613281 7.710938 36.488281 7.296875 C 36.367188 6.925781 36.367188 6.636719 36.328125 6.394531 C 36.164062 5.734375 36.082031 4.585938 36.082031 4.585938 C 36.082031 4.585938 36.082031 4.335938 35.957031 4.007812 L 35.835938 3.597656 C 35.835938 3.597656 37.148438 3.023438 38.09375 3.066406 L 38.625 3.804688 L 38.667969 3.105469 L 38.667969 2.078125 C 38.667969 2.078125 38.585938 1.542969 38.09375 1.132812 C 37.722656 0.847656 37.558594 0.804688 37.066406 0.761719 C 36.492188 0.679688 36.410156 0.804688 35.960938 0.394531 C 35.546875 -0.140625 32.839844 -0.0585938 32.140625 0.1875 C 32.140625 0.1875 31.648438 0.3125 31.277344 1.210938 L 30.539062 3.597656 C 30.539062 3.597656 30.335938 4.378906 30.292969 5.527344 C 30.253906 6.183594 30.171875 7.378906 30.007812 7.828125 L 29.59375 9.226562 C 29.023438 10.621094 28.445312 11.320312 28.445312 11.320312 L 26.230469 13.910156 L 25.613281 14.648438 L 25 13.910156 L 25 13.871094 C 24.261719 13.007812 23.480469 12.183594 22.785156 11.324219 C 22.785156 11.324219 22.128906 10.582031 21.554688 9.105469 L 21.222656 7.832031 C 21.019531 7.417969 20.9375 6.597656 20.894531 5.527344 C 20.855469 4.378906 20.691406 3.597656 20.691406 3.597656 L 19.910156 1.214844 C 19.582031 0.3125 19.007812 0.1875 19.007812 0.1875 C 18.347656 -0.0585938 15.640625 -0.140625 15.230469 0.394531 C 14.78125 0.804688 14.65625 0.679688 14.082031 0.761719 C 13.632812 0.804688 13.464844 0.847656 13.097656 1.132812 C 12.5625 1.542969 12.523438 2.078125 12.523438 2.078125 L 12.523438 3.105469 L 12.5625 3.804688 L 13.097656 3.066406 C 14.042969 3.023438 15.355469 3.597656 15.355469 3.597656 L 15.1875 4.007812 C 15.105469 4.335938 15.105469 4.582031 15.105469 4.582031 C 15.105469 4.582031 15.023438 5.734375 14.902344 6.390625 C 14.820312 6.636719 14.777344 6.925781 14.695312 7.292969 C 14.488281 7.828125 13.503906 9.019531 13.257812 9.226562 L 11.984375 10.621094 C 11.039062 9.804688 9.359375 8.773438 7.226562 8.691406 C 4.886719 8.609375 2.707031 9.597656 0.613281 11.652344 L 0 12.308594 L 0.453125 13.046875 C 0.53125 13.210938 2.214844 15.839844 5.292969 16.5 C 7.304688 16.828125 9.441406 16.25 11.53125 14.773438 L 10.015625 13.046875 C 8.496094 14.152344 7.140625 14.484375 5.746094 14.277344 C 4.476562 13.992188 3.53125 13.210938 2.953125 12.59375 C 4.308594 11.445312 5.703125 10.910156 7.101562 10.949219 C 9.523438 11.035156 11.246094 12.960938 11.246094 12.960938 L 14.816406 17.195312 L 16.292969 15.507812 L 13.542969 12.261719 L 16.785156 8.195312 L 18.097656 6.511719 C 18.386719 8.15625 19.863281 10.988281 20.476562 11.976562 L 16.90625 16.207031 L 13.953125 19.742188 C 13.132812 20.558594 10.382812 23.316406 7.101562 25.121094 C 7.101562 25.121094 8.125 25.863281 9.480469 25.820312 C 10.300781 25.820312 11.160156 25.535156 12.066406 24.667969 C 12.476562 24.300781 12.96875 23.804688 13.503906 23.316406 C 13.503906 23.316406 13.257812 23.929688 13.871094 25.039062 C 14.28125 25.859375 15.0625 26.351562 16.128906 26.394531 C 17.769531 26.476562 18.960938 25.574219 19.824219 24.585938 L 18.632812 23.230469 C 18.632812 23.230469 17.566406 24.792969 16.210938 23.847656 C 15.757812 23.355469 15.757812 22.617188 15.757812 22.617188 C 15.757812 21.585938 19.984375 16.289062 20.808594 15.179688 L 21.914062 13.78125 L 24.132812 16.328125 L 24.175781 16.410156 L 21.382812 19.902344 L 22.613281 21.300781 L 25.609375 18.054688 L 29.222656 22.121094 L 31.601562 24.792969 C 32.421875 25.695312 33.53125 26.433594 35.050781 26.394531 C 36.117188 26.355469 36.9375 25.859375 37.386719 25.039062 C 37.964844 23.929688 37.675781 23.316406 37.675781 23.316406 C 38.207031 23.808594 38.742188 24.300781 39.113281 24.667969 C 41.492188 26.929688 44.121094 25.121094 44.121094 25.121094 C 40.835938 23.3125 38.085938 20.558594 37.304688 19.738281 L 36.402344 18.671875 L 34.554688 20.765625 C 35.460938 21.957031 35.417969 22.613281 35.417969 22.613281 C 35.417969 22.613281 35.460938 23.355469 34.96875 23.847656 C 33.695312 24.789062 32.507812 23.148438 32.507812 23.148438 C 30.660156 20.886719 28.894531 18.628906 27.046875 16.410156 L 27.085938 16.328125 L 28.441406 14.726562 L 29.261719 13.78125 L 31.972656 17.476562 L 33.695312 15.421875 L 30.699219 11.972656 C 31.3125 10.984375 32.792969 8.152344 33.078125 6.507812 L 34.390625 8.191406 L 37.636719 12.257812 L 36.980469 13 L 34.269531 16.207031 L 31.929688 18.914062 L 31.230469 19.78125 L 32.707031 21.464844 L 33.863281 20.074219 "/>
</g>
<path style=" stroke:none;fill-rule:nonzero;fill:rgb(13.404846%,26.025391%,47.265625%);fill-opacity:1;" d="M 23.519531 27.34375 L 24.996094 25.578125 L 19.25 18.882812 L 17.855469 20.6875 L 23.519531 27.34375 "/>
<path style=" stroke:none;fill-rule:nonzero;fill:rgb(13.404846%,26.025391%,47.265625%);fill-opacity:1;" d="M 172.058594 19.578125 C 171.816406 19.578125 171.691406 19.578125 171.691406 19.578125 L 167.464844 19.578125 L 171.648438 12.554688 Z M 169.886719 10.378906 L 160.199219 25.742188 L 163.808594 25.78125 L 165.820312 22.375 L 172.226562 22.375 L 172.429688 25.742188 L 176 25.78125 L 175.753906 22.824219 L 174.523438 9.226562 L 171.855469 9.226562 C 171.035156 9.226562 170.378906 9.636719 169.886719 10.378906 Z M 158.433594 10.992188 L 154.410156 25.742188 L 157.855469 25.742188 L 162.289062 9.226562 L 160.648438 9.226562 C 160.152344 9.226562 159.660156 9.433594 159.296875 9.761719 C 158.84375 10.089844 158.554688 10.5 158.433594 10.992188 Z M 141.851562 22.78125 L 143 18.46875 L 146.980469 18.46875 C 147.96875 18.46875 148.625 18.59375 148.992188 18.964844 C 149.324219 19.292969 149.402344 19.867188 149.199219 20.648438 C 148.992188 21.386719 148.625 21.921875 148.089844 22.25 C 147.515625 22.621094 146.777344 22.78125 145.875 22.78125 Z M 143.78125 15.636719 L 144.722656 12.101562 L 148.539062 12.101562 C 149.484375 12.101562 150.101562 12.265625 150.304688 12.511719 C 150.632812 12.800781 150.71875 13.253906 150.554688 13.867188 C 150.347656 14.441406 150.058594 14.894531 149.609375 15.183594 C 149.113281 15.511719 148.5 15.632812 147.640625 15.632812 L 143.78125 15.632812 Z M 141.769531 10.949219 L 137.746094 25.742188 L 145.296875 25.742188 C 147.1875 25.742188 148.785156 25.328125 150.101562 24.464844 C 151.375 23.5625 152.234375 22.328125 152.6875 20.726562 C 152.933594 19.742188 152.933594 18.917969 152.6875 18.347656 C 152.398438 17.6875 151.90625 17.195312 151.167969 16.824219 C 151.90625 16.539062 152.480469 16.085938 153.011719 15.550781 C 153.546875 14.933594 153.878906 14.277344 154.121094 13.414062 C 154.449219 12.101562 154.328125 11.074219 153.628906 10.332031 C 152.890625 9.59375 151.699219 9.226562 150.015625 9.226562 L 143.941406 9.226562 C 143.488281 9.226562 142.996094 9.429688 142.628906 9.71875 C 142.179688 10.089844 141.890625 10.5 141.769531 10.949219 Z M 127.320312 16.457031 L 128.46875 12.058594 L 132.65625 12.058594 C 133.4375 12.058594 133.972656 12.265625 134.21875 12.675781 C 134.585938 12.964844 134.628906 13.539062 134.425781 14.277344 C 134.21875 15.019531 133.890625 15.554688 133.398438 15.882812 C 132.863281 16.25 132.207031 16.457031 131.304688 16.457031 Z M 125.351562 10.949219 L 121.367188 25.742188 L 124.777344 25.742188 L 126.542969 19.332031 L 130.152344 19.332031 C 131.015625 19.332031 131.589844 19.496094 131.878906 19.867188 C 132.039062 20.277344 132.085938 20.933594 131.878906 21.878906 L 131.429688 23.683594 C 131.386719 23.851562 131.34375 24.21875 131.261719 24.714844 C 131.222656 25.085938 131.222656 25.453125 131.304688 25.742188 L 135.039062 25.742188 C 134.792969 25.578125 134.671875 25.207031 134.710938 24.632812 C 134.792969 24.46875 134.835938 24.21875 134.871094 24.015625 C 134.957031 23.765625 134.996094 23.605469 135.035156 23.359375 L 135.488281 21.429688 C 135.695312 20.277344 135.734375 19.453125 135.613281 18.960938 C 135.449219 18.46875 135.035156 18.058594 134.378906 17.855469 C 135.324219 17.523438 136.023438 17.074219 136.597656 16.457031 C 137.214844 15.757812 137.664062 14.894531 137.949219 13.867188 C 138.402344 12.347656 138.238281 11.15625 137.578125 10.417969 C 136.921875 9.597656 135.652344 9.226562 133.886719 9.226562 L 127.609375 9.226562 C 127.113281 9.226562 126.664062 9.386719 126.214844 9.71875 C 125.761719 10.046875 125.515625 10.457031 125.351562 10.949219 Z M 113.324219 12.058594 L 121.984375 12.058594 L 122.722656 9.226562 L 112.464844 9.226562 C 112.011719 9.226562 111.519531 9.390625 111.109375 9.71875 C 110.660156 10.050781 110.410156 10.460938 110.246094 10.949219 L 106.265625 25.699219 L 118.289062 25.699219 L 119.152344 22.660156 L 110.449219 22.660156 L 111.601562 18.429688 L 116.320312 18.429688 C 116.769531 18.429688 117.265625 18.308594 117.675781 17.9375 C 118.125 17.605469 118.371094 17.195312 118.496094 16.703125 L 118.824219 15.59375 L 112.382812 15.59375 Z M 94.238281 17.484375 C 94.6875 17.855469 95.636719 18.179688 97.195312 18.550781 L 97.566406 18.632812 L 97.648438 18.675781 C 100.398438 19.371094 101.585938 20.195312 101.300781 21.222656 C 101.136719 21.878906 100.726562 22.371094 100.109375 22.742188 C 99.492188 23.109375 98.671875 23.277344 97.6875 23.277344 C 96.578125 23.277344 95.800781 23.070312 95.265625 22.617188 C 94.773438 22.207031 94.527344 21.511719 94.691406 20.5625 L 91.324219 20.5625 C 90.914062 22.371094 91.203125 23.765625 92.144531 24.714844 C 92.964844 25.617188 94.484375 26.109375 96.617188 26.109375 C 98.753906 26.109375 100.519531 25.660156 101.953125 24.757812 C 103.308594 23.8125 104.296875 22.453125 104.746094 20.730469 C 104.953125 19.949219 104.953125 19.167969 104.828125 18.511719 C 104.050781 16.457031 100.96875 15.964844 99.085938 15.429688 C 97.316406 15.058594 96.535156 14.363281 96.824219 13.496094 C 96.988281 12.882812 97.359375 12.386719 97.933594 12.019531 C 98.425781 11.648438 99.164062 11.488281 100.148438 11.488281 C 101.136719 11.488281 101.832031 11.730469 102.324219 12.101562 C 102.570312 12.347656 102.695312 12.597656 102.773438 12.925781 C 102.898438 13.621094 103.351562 13.949219 104.089844 13.949219 L 105.976562 13.949219 C 106.386719 12.347656 106.183594 11.074219 105.320312 10.085938 C 104.539062 9.183594 103.144531 8.730469 101.175781 8.730469 C 99.082031 8.730469 97.398438 9.144531 96.042969 10.007812 C 94.730469 10.910156 93.867188 12.144531 93.417969 13.703125 C 93.210938 14.605469 93.171875 15.347656 93.292969 15.882812 C 93.375 16.578125 93.707031 17.113281 94.238281 17.484375 Z M 81.679688 18.632812 L 80.203125 25.742188 L 83.894531 25.742188 L 85.453125 18.222656 C 85.660156 17.152344 86.070312 16.332031 86.683594 15.839844 C 87.261719 15.347656 88.082031 15.101562 89.1875 15.101562 L 90.707031 15.101562 C 90.707031 15.101562 90.746094 13.621094 91.035156 12.882812 C 91.367188 11.898438 91.941406 11.199219 91.941406 11.199219 L 90.625 11.199219 C 89.640625 11.199219 88.695312 11.363281 87.753906 11.570312 C 86.769531 11.855469 85.949219 12.226562 85.128906 12.757812 C 84.347656 13.335938 83.609375 14.117188 82.992188 15.101562 C 82.417969 16.046875 81.96875 17.238281 81.679688 18.632812 Z M 75.234375 14.195312 C 77.082031 13.375 78.601562 12.597656 79.339844 12.144531 C 79.421875 11.730469 79.339844 11.320312 79.09375 10.949219 C 78.804688 10.582031 78.476562 10.417969 77.902344 10.417969 L 76.054688 10.378906 Z M 72.855469 25.742188 L 76.546875 25.742188 L 78.765625 15.058594 L 78.722656 15.140625 C 77.289062 15.757812 75.976562 16.292969 74.703125 16.703125 Z M 53.933594 25.742188 L 57.546875 25.742188 L 59.554688 22.371094 L 66 22.371094 L 66.164062 25.742188 L 69.777344 25.742188 L 69.203125 19.25 C 66.78125 19.621094 65.507812 19.578125 65.507812 19.578125 L 61.199219 19.578125 L 65.464844 12.554688 L 65.753906 18.429688 C 66.78125 18.308594 67.890625 18.019531 69.078125 17.648438 L 68.257812 9.226562 L 65.589844 9.226562 C 64.769531 9.226562 64.113281 9.636719 63.621094 10.378906 L 53.933594 25.742188 "/>
</g>
</svg>
