<svg xmlns="http://www.w3.org/2000/svg" width="176pt" height="47.307" viewBox="0 0 176 35.48"><defs><clipPath id="a"><path d="M0 0h52v35.48H0Zm0 0"/></clipPath></defs><g clip-path="url(#a)"><path d="M27.254 31.781c.492.614 1.848 2.137 2.012 3.7 0 0 1.351-1.81.328-4.356 0 0-.164-.617-1.887-2.383l-1.52 1.809.208.164Zm2.793-7.191-1.48-1.723c-1.27 1.477-6.895 7.684-7.016 8.297-.988 2.508.328 4.316.328 4.316.164-1.562 1.52-3.085 2.012-3.699Zm3.816-4.516 1.887-2.137.984-1.234 3.243-3.738s1.683-1.93 4.144-2.012c1.356-.039 2.793.492 4.188 1.645-.575.617-1.559 1.398-2.871 1.683-1.317.207-2.75-.125-4.27-1.273l-1.477 1.726c2.051 1.477 4.188 2.094 6.2 1.766 3.078-.656 4.761-3.285 4.843-3.453l.493-.738-.657-.657c-2.054-2.054-4.27-3.039-6.566-2.957-1.805.082-3.285.864-4.313 1.559-.039.043-.449.332-.492.371l-1.601-1.684c-.368-.496-.985-1.23-1.11-1.644-.12-.371-.12-.66-.16-.902-.164-.66-.246-1.81-.246-1.81s0-.25-.125-.577l-.121-.41s1.312-.575 2.258-.532l.531.739.043-.7V2.078s-.082-.535-.574-.945c-.371-.285-.535-.328-1.028-.371-.574-.082-.656.043-1.105-.367-.414-.536-3.121-.454-3.82-.208 0 0-.493.126-.864 1.024l-.738 2.387s-.203.78-.246 1.93c-.04.656-.121 1.85-.285 2.3l-.414 1.399c-.57 1.394-1.149 2.093-1.149 2.093l-2.215 2.59-.617.738L25 13.91v-.039c-.738-.863-1.52-1.687-2.215-2.547 0 0-.656-.742-1.23-2.219l-.332-1.273c-.203-.414-.285-1.234-.328-2.305a12.4 12.4 0 0 0-.204-1.93l-.78-2.382c-.329-.903-.903-1.027-.903-1.027-.66-.247-3.367-.329-3.778.207-.449.41-.574.285-1.148.367-.45.043-.617.086-.984.37-.536.411-.575.946-.575.946v1.027l.04.7.535-.739c.945-.043 2.257.532 2.257.532l-.168.41c-.082.328-.082.574-.082.574s-.082 1.152-.203 1.809c-.082.246-.125.535-.207.902-.207.535-1.191 1.727-1.437 1.934l-1.274 1.394c-.945-.816-2.625-1.848-4.757-1.93-2.34-.082-4.52.907-6.614 2.961L0 12.31l.453.738c.078.164 1.762 2.793 4.84 3.453 2.012.328 4.148-.25 6.238-1.727l-1.515-1.726c-1.52 1.105-2.875 1.437-4.27 1.23-1.27-.285-2.215-1.066-2.793-1.683 1.356-1.149 2.75-1.684 4.149-1.645 2.421.086 4.144 2.012 4.144 2.012l3.57 4.234 1.477-1.687-2.75-3.246 3.242-4.067 1.313-1.683c.289 1.644 1.765 4.476 2.379 5.465l-3.57 4.23-2.954 3.535c-.82.817-3.57 3.574-6.851 5.38 0 0 1.023.741 2.378.698.82 0 1.68-.285 2.586-1.152.41-.367.903-.863 1.438-1.352 0 0-.246.614.367 1.723.41.82 1.191 1.313 2.258 1.356 1.64.082 2.832-.82 3.695-1.81l-1.191-1.355s-1.067 1.563-2.422.618c-.453-.493-.453-1.23-.453-1.23 0-1.032 4.226-6.329 5.05-7.438l1.106-1.399 2.219 2.547.043.082-2.793 3.492 1.23 1.399 2.996-3.246 3.614 4.066 2.379 2.672c.82.902 1.93 1.64 3.449 1.602 1.066-.04 1.886-.536 2.336-1.356.578-1.11.289-1.723.289-1.723.531.493 1.066.985 1.437 1.352 2.38 2.262 5.008.453 5.008.453-3.285-1.808-6.035-4.562-6.816-5.383l-.903-1.066-1.847 2.094c.906 1.191.863 1.847.863 1.847s.043.742-.45 1.235c-1.273.941-2.46-.7-2.46-.7-1.848-2.261-3.613-4.52-5.461-6.738l.039-.082 1.355-1.601.82-.946 2.712 3.696 1.722-2.055-2.996-3.45c.613-.988 2.094-3.82 2.38-5.464L34.39 8.19l3.246 4.067-.657.742-2.71 3.207-2.34 2.707-.7.867 1.477 1.684z" style="stroke:none;fill-rule:nonzero;fill:#224279;fill-opacity:1"/></g><path d="m23.52 27.344 1.476-1.766-5.746-6.695-1.395 1.805zM172.059 19.578h-4.594l4.183-7.023Zm-2.172-9.2-9.688 15.364 3.61.04 2.011-3.407h6.407l.203 3.367 3.57.04-.246-2.958-1.23-13.597h-2.669c-.82 0-1.476.41-1.968 1.152m-11.453.614-4.024 14.75h3.445l4.434-16.515h-1.64c-.497 0-.989.207-1.352.535q-.68.492-.863 1.23m-16.582 11.79L143 18.468h3.98c.989 0 1.645.125 2.012.496.332.328.41.902.207 1.683-.207.739-.574 1.274-1.11 1.602-.573.371-1.312.531-2.214.531Zm1.93-7.145.94-3.535h3.817c.945 0 1.563.164 1.766.41q.494.434.25 1.355c-.207.574-.496 1.028-.946 1.317-.496.328-1.109.449-1.968.449h-3.86Zm-2.012-4.688-4.024 14.793h7.55c1.892 0 3.49-.414 4.806-1.277 1.273-.902 2.132-2.137 2.585-3.738.247-.985.247-1.809 0-2.38-.289-.66-.78-1.152-1.519-1.523.738-.285 1.312-.738 1.844-1.273.535-.617.867-1.274 1.11-2.137.327-1.312.206-2.34-.493-3.082-.738-.738-1.93-1.105-3.613-1.105h-6.075c-.453 0-.945.203-1.312.492q-.676.556-.86 1.23m-14.45 5.508 1.149-4.398h4.187c.781 0 1.317.207 1.563.617.367.289.41.863.207 1.601-.207.743-.535 1.278-1.028 1.606-.535.367-1.191.574-2.093.574Zm-1.968-5.508-3.985 14.793h3.41l1.766-6.41h3.61c.863 0 1.437.164 1.726.535.16.41.207 1.067 0 2.012l-.45 1.805c-.042.168-.085.535-.167 1.03-.04.372-.04.74.043 1.028h3.734c-.246-.164-.367-.535-.328-1.11.082-.163.125-.413.16-.616.086-.25.125-.41.164-.657l.453-1.93q.308-1.729.125-2.468c-.164-.492-.578-.902-1.234-1.106.945-.332 1.644-.78 2.219-1.398q.924-1.049 1.351-2.59c.453-1.52.29-2.71-.37-3.449-.657-.82-1.927-1.191-3.692-1.191h-6.278c-.496 0-.945.16-1.394.492-.453.328-.7.738-.863 1.23m-12.028 1.11h8.66l.739-2.832h-10.258c-.453 0-.945.164-1.356.492-.449.332-.699.742-.863 1.23l-3.98 14.75h12.023l.863-3.039h-8.703l1.153-4.23h4.718c.45 0 .946-.121 1.356-.492.449-.333.695-.743.82-1.235l.328-1.11h-6.441Zm-19.086 5.425c.45.371 1.399.696 2.957 1.067l.371.082.082.043c2.75.695 3.938 1.52 3.653 2.547-.164.656-.574 1.148-1.192 1.52-.617.366-1.437.534-2.421.534-1.11 0-1.887-.207-2.422-.66-.493-.41-.739-1.105-.575-2.055h-3.367c-.41 1.81-.12 3.204.82 4.153.82.902 2.34 1.394 4.473 1.394 2.137 0 3.903-.449 5.336-1.351a6.96 6.96 0 0 0 2.793-4.028 5.1 5.1 0 0 0 .082-2.218c-.777-2.055-3.86-2.547-5.742-3.082-1.77-.371-2.55-1.067-2.262-1.934.164-.613.535-1.11 1.11-1.476.492-.372 1.23-.532 2.214-.532.989 0 1.684.242 2.176.614.246.246.371.496.45.824.124.695.578 1.023 1.316 1.023h1.887c.41-1.601.207-2.875-.657-3.863-.78-.902-2.175-1.356-4.144-1.356-2.094 0-3.778.415-5.133 1.278-1.313.902-2.176 2.137-2.625 3.695-.207.902-.246 1.645-.125 2.18.082.695.414 1.23.945 1.601M81.68 18.633l-1.477 7.11h3.692l1.558-7.52c.207-1.07.617-1.891 1.23-2.383.579-.492 1.399-.738 2.504-.738h1.52s.04-1.48.328-2.22c.332-.984.906-1.683.906-1.683h-1.316c-.984 0-1.93.164-2.871.371a9.5 9.5 0 0 0-2.625 1.188 8.6 8.6 0 0 0-2.137 2.344c-.574.945-1.023 2.136-1.312 3.53m-6.446-4.438c1.848-.82 3.368-1.597 4.106-2.05.082-.415 0-.825-.246-1.196-.29-.367-.617-.531-1.192-.531l-1.847-.04Zm-2.379 11.547h3.692l2.219-10.683-.043.082c-1.434.617-2.746 1.152-4.02 1.562Zm-18.921 0h3.613l2.008-3.37H66l.164 3.37h3.613l-.574-6.492c-2.422.371-3.695.328-3.695.328h-4.309l4.266-7.023.289 5.875c1.027-.121 2.137-.41 3.324-.782l-.82-8.421H65.59c-.82 0-1.477.41-1.969 1.152z" style="stroke:none;fill-rule:nonzero;fill:#224279;fill-opacity:1"/></svg>