<?xml version="1.0" encoding="UTF-8"?>
<svg xmlns="http://www.w3.org/2000/svg" xmlns:xlink="http://www.w3.org/1999/xlink" width="176pt" height="45.76pt" viewBox="0 0 176 45.76" version="1.1">
<defs>
<clipPath id="clip1">
  <path d="M 131 38 L 137 38 L 137 45.761719 L 131 45.761719 Z M 131 38 "/>
</clipPath>
</defs>
<g id="surface1">
<path style=" stroke:none;fill-rule:nonzero;fill:rgb(83.332825%,29.911804%,16.033936%);fill-opacity:1;" d="M 14.808594 23.511719 C 13.691406 24.640625 14.023438 26.625 14.171875 27.183594 C 14.394531 28.03125 15.105469 29.640625 17.058594 28.914062 C 19.015625 28.1875 18.476562 26.320312 18.234375 25.761719 C 18.035156 25.3125 16.085938 22.214844 14.808594 23.511719 "/>
<path style=" stroke:none;fill-rule:nonzero;fill:rgb(83.332825%,29.911804%,16.033936%);fill-opacity:1;" d="M 18.296875 18.058594 C 16.941406 18.59375 17.015625 20.476562 17.460938 21.886719 C 17.90625 23.292969 18.773438 24.339844 20.464844 23.6875 C 22.152344 23.035156 21.5625 20.773438 20.996094 19.722656 C 20.441406 18.671875 19.355469 17.636719 18.296875 18.058594 "/>
<path style=" stroke:none;fill-rule:nonzero;fill:rgb(83.332825%,29.911804%,16.033936%);fill-opacity:1;" d="M 23.050781 14.449219 C 21.992188 14.804688 21.5625 16.21875 22.054688 18.460938 C 22.554688 20.695312 24.128906 21.1875 25.355469 20.710938 C 26.582031 20.242188 27.054688 18.273438 26.191406 16.515625 C 25.328125 14.761719 24.132812 14.085938 23.050781 14.449219 "/>
<path style=" stroke:none;fill-rule:nonzero;fill:rgb(83.332825%,29.911804%,16.033936%);fill-opacity:1;" d="M 28.421875 13.644531 C 27.421875 14.152344 27.832031 16.503906 28.191406 17.964844 C 28.542969 19.429688 29.125 21.523438 30.984375 20.921875 C 32.847656 20.320312 32.855469 18.167969 32.527344 17.265625 C 31.695312 15.03125 29.53125 13.074219 28.421875 13.644531 "/>
<path style=" stroke:none;fill-rule:nonzero;fill:rgb(83.332825%,29.911804%,16.033936%);fill-opacity:1;" d="M 35.648438 18.535156 C 34.28125 18.230469 33.859375 19.386719 33.671875 20.933594 C 33.484375 22.476562 34.136719 23.382812 35.300781 23.5625 C 36.464844 23.746094 37.0625 22.761719 37.285156 21.496094 C 37.511719 20.222656 36.804688 18.792969 35.648438 18.535156 "/>
<path style=" stroke:none;fill-rule:nonzero;fill:rgb(83.332825%,29.911804%,16.033936%);fill-opacity:1;" d="M 27.886719 36.035156 C 31.84375 33.300781 35.589844 30.9375 36.324219 28.769531 C 36.753906 27.5 36.183594 25.5625 31.015625 24.34375 C 29.535156 23.996094 28.175781 22.652344 26.996094 22.671875 C 24.722656 22.710938 23.542969 25.082031 22.808594 25.976562 C 21.265625 27.863281 18.097656 29.789062 18.695312 32.679688 C 19.171875 35.011719 24.28125 38.527344 27.886719 36.035156 "/>
<path style=" stroke:none;fill-rule:nonzero;fill:rgb(83.332825%,29.911804%,16.033936%);fill-opacity:1;" d="M 12.875 20.90625 C 12.875 20.507812 13.195312 20.183594 13.597656 20.183594 C 13.996094 20.183594 14.320312 20.507812 14.320312 20.90625 C 14.320312 21.304688 13.996094 21.628906 13.597656 21.628906 C 13.195312 21.628906 12.875 21.304688 12.875 20.90625 "/>
<path style=" stroke:none;fill-rule:nonzero;fill:rgb(83.332825%,29.911804%,16.033936%);fill-opacity:1;" d="M 15.707031 15.601562 C 15.707031 15.207031 16.03125 14.882812 16.429688 14.882812 C 16.828125 14.882812 17.152344 15.207031 17.152344 15.601562 C 17.152344 16.003906 16.828125 16.328125 16.429688 16.328125 C 16.03125 16.328125 15.707031 16.003906 15.707031 15.601562 "/>
<path style=" stroke:none;fill-rule:nonzero;fill:rgb(83.332825%,29.911804%,16.033936%);fill-opacity:1;" d="M 20.582031 12.53125 C 20.582031 12.132812 20.90625 11.808594 21.304688 11.808594 C 21.707031 11.808594 22.03125 12.132812 22.03125 12.53125 C 22.03125 12.929688 21.707031 13.253906 21.304688 13.253906 C 20.90625 13.253906 20.582031 12.929688 20.582031 12.53125 "/>
<path style=" stroke:none;fill-rule:nonzero;fill:rgb(83.332825%,29.911804%,16.033936%);fill-opacity:1;" d="M 26.671875 11.691406 C 26.671875 11.285156 26.992188 10.964844 27.394531 10.964844 C 27.792969 10.964844 28.117188 11.285156 28.117188 11.691406 C 28.117188 12.085938 27.792969 12.414062 27.394531 12.414062 C 26.992188 12.414062 26.671875 12.085938 26.671875 11.691406 "/>
<path style=" stroke:none;fill-rule:nonzero;fill:rgb(83.332825%,29.911804%,16.033936%);fill-opacity:1;" d="M 34.5625 16.386719 C 34.5625 15.988281 34.886719 15.664062 35.285156 15.664062 C 35.683594 15.664062 36.011719 15.988281 36.011719 16.386719 C 36.011719 16.785156 35.683594 17.109375 35.285156 17.109375 C 34.886719 17.109375 34.5625 16.785156 34.5625 16.386719 "/>
<path style=" stroke:none;fill-rule:nonzero;fill:rgb(46.864319%,7.292175%,17.03186%);fill-opacity:1;" d="M 130.882812 26.941406 L 131.175781 15.71875 C 131.179688 15.523438 131.15625 15.324219 130.859375 15.316406 C 130.613281 15.308594 129.914062 15.289062 128.945312 15.1875 C 126.738281 14.957031 125.261719 13.855469 122.578125 14.472656 C 120.953125 14.847656 119.628906 16.117188 119.457031 17.605469 C 119.441406 17.722656 119.433594 17.847656 119.433594 17.972656 C 119.445312 19.101562 120.101562 20.074219 121.011719 20.605469 C 121.035156 20.621094 121.058594 20.636719 121.078125 20.648438 C 121.53125 20.894531 122.042969 21.039062 122.589844 21.03125 C 123.183594 21.027344 123.761719 20.855469 124.257812 20.53125 C 124.488281 20.378906 124.890625 19.917969 124.804688 19.488281 C 124.757812 19.246094 124.570312 19.078125 124.300781 19.03125 C 123.734375 18.925781 123.386719 19.28125 123.105469 19.574219 C 122.710938 19.972656 122.175781 20.390625 121.402344 20.015625 C 120.636719 19.640625 120.191406 18.84375 120.183594 17.957031 C 120.183594 17.859375 120.1875 17.761719 120.199219 17.664062 C 120.332031 16.507812 121.285156 15.578125 122.5625 15.308594 C 124.199219 14.960938 126.222656 15.503906 127.179688 15.996094 C 127.59375 16.210938 128.230469 16.511719 127.675781 17.710938 C 123.859375 25.902344 121.136719 32.035156 115.230469 31.027344 C 113.488281 30.734375 112.285156 29.347656 112.285156 27.726562 C 112.285156 27.589844 112.296875 27.453125 112.3125 27.316406 C 112.460938 26.089844 113.210938 25.054688 114.339844 24.660156 C 115.46875 24.261719 116.140625 24.925781 116.621094 25.542969 C 116.964844 25.988281 117.394531 26.542969 118.191406 26.492188 C 118.578125 26.464844 118.859375 26.261719 118.964844 25.933594 C 119.152344 25.351562 118.671875 24.648438 118.371094 24.398438 C 117.734375 23.871094 116.964844 23.539062 116.144531 23.4375 C 115.382812 23.34375 114.648438 23.460938 113.984375 23.734375 C 113.953125 23.746094 113.917969 23.757812 113.886719 23.78125 C 112.539062 24.375 111.644531 25.628906 111.449219 27.195312 C 111.429688 27.367188 111.417969 27.539062 111.417969 27.710938 C 111.417969 29.796875 112.988281 31.757812 115.1875 32.132812 C 119.578125 32.878906 122.359375 30.195312 124.867188 25.867188 C 125.675781 24.476562 126.070312 24.136719 126.359375 24.136719 L 128.46875 24.136719 C 128.914062 24.136719 128.917969 24.117188 128.890625 25.65625 C 128.871094 26.1875 128.851562 26.542969 128.683594 26.976562 C 128.214844 28.179688 127.652344 27.574219 127.296875 28.488281 C 127.1875 28.765625 127.429688 28.726562 127.734375 28.726562 C 128.230469 28.726562 128.460938 28.691406 129.210938 28.695312 C 130.335938 28.695312 130.507812 28.769531 131.125 28.769531 C 131.585938 28.769531 131.796875 28.832031 131.851562 28.476562 C 132.019531 27.464844 130.886719 28.339844 130.882812 26.941406 M 128.996094 22.554688 C 128.945312 23.128906 129.007812 23.464844 128.453125 23.464844 L 127.171875 23.460938 C 126.863281 23.460938 126.324219 23.40625 126.589844 22.867188 C 126.894531 22.230469 127.914062 20.046875 128.542969 18.691406 C 128.871094 17.984375 129.351562 17.855469 129.335938 18.210938 C 129.316406 18.601562 129.144531 20.882812 128.996094 22.554688 "/>
<path style=" stroke:none;fill-rule:nonzero;fill:rgb(46.864319%,7.292175%,17.03186%);fill-opacity:1;" d="M 58.972656 18.507812 C 59.070312 18.03125 59.5 15.117188 55.320312 15.117188 C 55.074219 15.117188 53.40625 15.046875 52.269531 15.046875 C 50.046875 15.046875 48.328125 14.601562 45.882812 15.859375 C 44.394531 16.617188 43.421875 18.175781 43.617188 19.660156 C 43.636719 19.78125 43.660156 19.902344 43.691406 20.023438 C 43.976562 21.113281 44.851562 21.890625 45.863281 22.1875 C 45.890625 22.195312 45.914062 22.203125 45.9375 22.210938 C 46.433594 22.339844 46.96875 22.351562 47.5 22.214844 C 48.074219 22.066406 48.589844 21.757812 48.988281 21.320312 C 49.179688 21.117188 49.457031 20.570312 49.265625 20.175781 C 49.160156 19.953125 48.941406 19.835938 48.664062 19.855469 C 48.09375 19.890625 47.839844 20.324219 47.636719 20.675781 C 47.359375 21.160156 46.941406 21.691406 46.101562 21.519531 C 45.261719 21.34375 44.636719 20.679688 44.410156 19.824219 C 44.386719 19.726562 44.367188 19.632812 44.351562 19.535156 C 44.199219 18.382812 44.898438 17.246094 46.070312 16.671875 C 47.328125 16.050781 49.273438 15.753906 50.253906 16 C 50.726562 16.117188 51.195312 16.511719 50.894531 18.011719 L 49.15625 26.71875 C 48.773438 28.628906 47.410156 27.925781 47.28125 28.578125 C 47.226562 28.851562 47.386719 28.890625 47.78125 28.890625 C 48.140625 28.890625 48.601562 28.8125 49.011719 28.8125 C 49.863281 28.8125 50.527344 28.804688 53.074219 28.804688 C 55.859375 28.808594 57.726562 27.507812 58.246094 24.90625 C 58.597656 23.132812 58.378906 21.933594 56.417969 21.324219 L 56.425781 21.285156 C 57.730469 20.832031 58.726562 19.75 58.972656 18.507812 M 56.011719 25.089844 C 55.628906 27 54.683594 28.171875 53.011719 28.167969 C 51.355469 28.167969 51.054688 27.722656 51.429688 25.855469 L 51.871094 23.644531 C 52.074219 22.621094 52.210938 22.132812 53.214844 22.128906 C 56.019531 22.121094 56.25 23.90625 56.011719 25.089844 M 54.320312 21.246094 L 53.515625 21.246094 C 52.539062 21.164062 52.386719 21.085938 52.578125 20.121094 L 53.035156 17.832031 C 53.253906 16.710938 53.441406 15.960938 54.601562 15.960938 C 56.121094 15.964844 56.992188 17.191406 56.628906 19.003906 C 56.335938 20.460938 55.621094 21.246094 54.320312 21.246094 "/>
<path style=" stroke:none;fill-rule:nonzero;fill:rgb(46.864319%,7.292175%,17.03186%);fill-opacity:1;" d="M 61.488281 23.996094 C 61.179688 23.996094 61.140625 23.855469 61.011719 24.488281 C 60.675781 26.179688 61.410156 27.71875 62.898438 27.71875 C 63.902344 27.71875 64.691406 26.558594 64.953125 26.476562 C 65.117188 26.425781 65.265625 26.460938 65.222656 26.675781 C 65.121094 27.167969 63.5 28.960938 61.742188 28.960938 C 60.050781 28.957031 58.625 27.71875 59.164062 25.019531 C 59.617188 22.753906 61.21875 20.289062 63.421875 20.289062 C 65.710938 20.292969 66.1875 22.539062 65.980469 23.5625 C 65.894531 23.996094 65.792969 23.996094 65.6875 23.996094 Z M 63.792969 23.308594 C 64.085938 23.308594 64.21875 23.171875 64.292969 22.773438 C 64.441406 22.023438 64.199219 20.863281 63.121094 20.863281 C 62.097656 20.863281 61.488281 22.023438 61.308594 22.929688 C 61.246094 23.246094 61.375 23.304688 61.425781 23.304688 L 63.792969 23.308594 "/>
<path style=" stroke:none;fill-rule:nonzero;fill:rgb(46.864319%,7.292175%,17.03186%);fill-opacity:1;" d="M 72.464844 26.582031 C 72.265625 27.566406 72.234375 27.800781 72.679688 27.800781 C 72.886719 27.800781 73.089844 27.652344 73.207031 27.652344 C 73.328125 27.652344 73.476562 27.851562 73.417969 28.007812 C 73.273438 28.386719 72.140625 28.964844 71.523438 28.964844 C 70.722656 28.964844 70.640625 28.179688 70.65625 27.761719 C 69.804688 28.433594 68.6875 28.964844 67.75 28.964844 C 66.808594 28.964844 66.296875 28.195312 66.515625 27.113281 C 67 24.6875 69.53125 24.257812 71.199219 23.84375 C 71.246094 23.832031 71.304688 23.742188 71.328125 23.605469 C 71.5625 22.019531 71.4375 20.945312 70.308594 20.945312 C 69.660156 20.945312 69.199219 21.367188 69.195312 22.121094 C 69.191406 23.0625 68.207031 23.007812 68.085938 23.007812 C 67.949219 23.007812 67.46875 22.753906 67.542969 22.378906 C 67.890625 20.664062 69.925781 20.296875 71.125 20.296875 C 72.878906 20.296875 73.539062 21.203125 73.140625 23.191406 Z M 70.925781 25.222656 C 71.03125 24.6875 71.097656 24.511719 70.945312 24.511719 C 70.28125 24.511719 68.792969 25.179688 68.53125 26.5 C 68.46875 26.816406 68.285156 27.800781 69.179688 27.800781 C 69.554688 27.800781 70.453125 27.585938 70.542969 27.132812 L 70.925781 25.222656 "/>
<path style=" stroke:none;fill-rule:nonzero;fill:rgb(46.864319%,7.292175%,17.03186%);fill-opacity:1;" d="M 77.066406 26.703125 C 76.707031 28.515625 78.414062 27.617188 78.296875 28.496094 C 78.28125 28.613281 78.160156 28.828125 77.972656 28.828125 C 77.566406 28.828125 76.605469 28.753906 76.042969 28.753906 C 75.238281 28.75 74.730469 28.828125 74.304688 28.828125 C 74.082031 28.828125 74.03125 28.789062 74.054688 28.632812 C 74.171875 27.703125 74.910156 28.589844 75.183594 27.078125 L 76.054688 22.679688 C 76.242188 21.734375 74.910156 22.398438 75.203125 21.5 C 75.304688 21.195312 75.519531 21.140625 76.160156 20.988281 C 77.421875 20.683594 77.625 20.179688 77.832031 20.179688 C 78.035156 20.179688 78.476562 20.296875 78.425781 20.554688 L 77.996094 22.050781 C 78.953125 21.027344 79.523438 20.515625 79.941406 20.445312 C 80.488281 20.355469 81.269531 20.84375 81.238281 21.5625 C 81.210938 22.304688 81.132812 23.097656 80.019531 23.160156 C 79.207031 23.210938 79.75 22.453125 78.808594 22.429688 C 77.871094 22.40625 77.621094 23.925781 77.59375 24.082031 L 77.066406 26.703125 "/>
<path style=" stroke:none;fill-rule:nonzero;fill:rgb(46.864319%,7.292175%,17.03186%);fill-opacity:1;" d="M 90.179688 16.660156 C 90.414062 15.496094 89.160156 16.128906 89.277344 15.558594 C 89.339844 15.21875 89.582031 15.300781 90.761719 14.867188 C 91.386719 14.675781 91.738281 14.496094 91.957031 14.363281 C 92.234375 14.1875 92.277344 14.234375 92.421875 14.3125 C 92.570312 14.398438 92.398438 14.632812 92.175781 15.734375 L 90.46875 24.285156 L 93.335938 21.902344 C 93.660156 21.648438 93.613281 21.546875 93.625 21.472656 C 93.699219 21.117188 92.859375 21.214844 92.9375 20.820312 C 93.007812 20.460938 93.152344 20.523438 93.390625 20.523438 C 93.863281 20.523438 94.308594 20.605469 94.792969 20.605469 C 95.253906 20.605469 95.746094 20.527344 96.207031 20.527344 C 96.480469 20.527344 96.589844 20.585938 96.5625 20.722656 C 96.503906 21.019531 96.160156 21.097656 96.015625 21.136719 C 94.644531 21.511719 92.804688 23.007812 92.761719 23.242188 C 92.625 23.933594 93.78125 26.410156 94.386719 27.496094 C 94.75 28.144531 95.714844 27.777344 95.613281 28.527344 C 95.574219 28.863281 95.296875 28.84375 94.941406 28.84375 C 94.648438 28.84375 94.355469 28.835938 94.046875 28.835938 C 93.808594 28.835938 93.484375 28.839844 93.078125 28.839844 C 92.992188 28.839844 92.71875 28.917969 92.09375 27.339844 L 91.03125 24.644531 L 90.273438 25.25 L 89.917969 27.023438 C 89.644531 28.425781 91.023438 27.816406 90.875 28.582031 C 90.835938 28.78125 90.753906 28.839844 90.464844 28.839844 C 90.121094 28.839844 89.082031 28.828125 88.566406 28.828125 C 88.175781 28.828125 87.386719 28.835938 87.03125 28.835938 C 86.894531 28.835938 86.753906 28.839844 86.78125 28.640625 C 86.921875 27.613281 87.75 28.820312 88.121094 26.964844 L 90.179688 16.660156 "/>
<path style=" stroke:none;fill-rule:nonzero;fill:rgb(46.864319%,7.292175%,17.03186%);fill-opacity:1;" d="M 103.085938 22.769531 C 103.273438 21.824219 102.015625 22.378906 102.234375 21.511719 C 102.3125 21.203125 102.554688 21.179688 103.191406 21 C 104.132812 20.769531 104.601562 20.496094 104.875 20.328125 C 105.035156 20.222656 105.21875 20.210938 105.277344 20.265625 C 105.429688 20.394531 105.347656 20.546875 105.292969 20.804688 L 105.105469 21.675781 L 105.140625 21.675781 C 105.773438 20.804688 106.726562 20.316406 107.734375 20.316406 C 109.578125 20.320312 109.980469 22.070312 109.597656 23.984375 L 108.957031 27.175781 C 108.769531 28.136719 109.835938 27.847656 109.742188 28.554688 C 109.714844 28.792969 109.585938 28.847656 109.289062 28.847656 C 108.742188 28.847656 108.214844 28.773438 107.859375 28.769531 C 107.429688 28.769531 106.800781 28.847656 106.59375 28.847656 C 106.269531 28.847656 106.023438 28.949219 106.082031 28.59375 C 106.1875 27.957031 107 27.992188 107.113281 27.347656 L 107.785156 24 C 108.039062 22.71875 107.871094 21.597656 106.59375 21.597656 C 105.464844 21.597656 104.976562 22.34375 104.746094 23.488281 L 104.015625 27.023438 C 103.824219 27.851562 105.300781 27.6875 105.113281 28.550781 C 105.078125 28.726562 104.9375 28.84375 104.523438 28.84375 C 104.339844 28.84375 103.738281 28.765625 102.867188 28.765625 C 102.269531 28.765625 101.660156 28.84375 101.148438 28.84375 C 100.976562 28.84375 100.980469 28.726562 101 28.625 C 101.222656 27.542969 101.964844 28.335938 102.238281 26.847656 L 103.085938 22.769531 "/>
<path style=" stroke:none;fill-rule:nonzero;fill:rgb(46.864319%,7.292175%,17.03186%);fill-opacity:1;" d="M 147.09375 16.691406 C 147.324219 15.527344 146.070312 16.160156 146.1875 15.585938 C 146.253906 15.253906 146.492188 15.332031 147.675781 14.898438 C 148.296875 14.707031 148.644531 14.527344 148.867188 14.394531 C 149.148438 14.21875 149.34375 14.398438 149.3125 14.617188 C 149.28125 14.835938 149.308594 14.660156 149.160156 15.367188 L 146.902344 26.660156 C 146.550781 28.453125 147.863281 27.828125 147.78125 28.613281 C 147.765625 28.816406 147.664062 28.871094 147.375 28.871094 C 147.03125 28.871094 146.023438 28.863281 145.515625 28.863281 C 145.117188 28.863281 144.300781 28.867188 143.9375 28.867188 C 143.804688 28.867188 143.65625 28.867188 143.691406 28.667969 C 143.890625 27.613281 144.734375 28.59375 145.105469 26.742188 L 147.09375 16.691406 "/>
<path style=" stroke:none;fill-rule:nonzero;fill:rgb(46.864319%,7.292175%,17.03186%);fill-opacity:1;" d="M 140.5625 26.703125 C 140.199219 28.515625 141.910156 27.617188 141.789062 28.496094 C 141.777344 28.613281 141.65625 28.828125 141.472656 28.828125 C 141.058594 28.828125 140.066406 28.859375 139.503906 28.859375 C 138.699219 28.859375 138.222656 28.828125 137.792969 28.828125 C 137.574219 28.828125 137.523438 28.789062 137.546875 28.632812 C 137.664062 27.703125 138.40625 28.589844 138.675781 27.078125 L 139.550781 22.679688 C 139.738281 21.734375 138.40625 22.398438 138.699219 21.5 C 138.800781 21.195312 139.019531 21.140625 139.652344 20.988281 C 140.914062 20.683594 141.121094 20.179688 141.324219 20.179688 C 141.53125 20.179688 141.972656 20.296875 141.921875 20.554688 L 141.492188 22.050781 C 142.449219 21.027344 143.015625 20.515625 143.4375 20.445312 C 143.984375 20.355469 144.761719 20.84375 144.730469 21.5625 C 144.703125 22.304688 144.625 23.097656 143.515625 23.160156 C 142.703125 23.210938 143.246094 22.453125 142.304688 22.429688 C 141.367188 22.40625 141.117188 23.925781 141.085938 24.082031 L 140.5625 26.703125 "/>
<path style=" stroke:none;fill-rule:nonzero;fill:rgb(46.864319%,7.292175%,17.03186%);fill-opacity:1;" d="M 165.339844 24.050781 C 165.03125 24.050781 164.992188 23.914062 164.863281 24.539062 C 164.523438 26.234375 165.261719 27.777344 166.75 27.777344 C 167.753906 27.777344 168.546875 26.613281 168.804688 26.53125 C 168.972656 26.480469 169.113281 26.515625 169.074219 26.734375 C 168.976562 27.226562 167.355469 29.019531 165.597656 29.015625 C 163.902344 29.015625 162.476562 27.773438 163.015625 25.074219 C 163.472656 22.808594 165.070312 20.347656 167.273438 20.347656 C 169.566406 20.347656 170.039062 22.597656 169.835938 23.621094 C 169.746094 24.054688 169.644531 24.054688 169.539062 24.054688 Z M 167.644531 23.359375 C 167.933594 23.359375 168.070312 23.230469 168.144531 22.832031 C 168.292969 22.082031 168.050781 20.917969 166.972656 20.917969 C 165.949219 20.917969 165.339844 22.078125 165.15625 22.988281 C 165.097656 23.300781 165.226562 23.359375 165.28125 23.359375 L 167.644531 23.359375 "/>
<path style=" stroke:none;fill-rule:nonzero;fill:rgb(46.864319%,7.292175%,17.03186%);fill-opacity:1;" d="M 155.472656 22.796875 C 155.660156 21.851562 154.40625 22.410156 154.621094 21.542969 C 154.703125 21.230469 154.949219 21.210938 155.582031 21.03125 C 156.519531 20.796875 156.992188 20.527344 157.261719 20.355469 C 157.429688 20.25 157.605469 20.242188 157.667969 20.292969 C 157.820312 20.421875 157.734375 20.578125 157.683594 20.832031 L 157.496094 21.703125 L 157.53125 21.703125 C 158.164062 20.835938 159.113281 20.34375 160.121094 20.34375 C 161.96875 20.34375 162.371094 22.097656 161.988281 24.011719 L 161.351562 27.203125 C 161.15625 28.167969 162.226562 27.878906 162.132812 28.582031 C 162.101562 28.820312 161.972656 28.875 161.683594 28.875 C 161.136719 28.875 160.605469 28.796875 160.246094 28.796875 C 159.816406 28.796875 159.1875 28.875 158.980469 28.875 C 158.65625 28.875 158.414062 28.976562 158.472656 28.621094 C 158.574219 27.988281 159.390625 28.023438 159.503906 27.378906 L 160.171875 24.027344 C 160.429688 22.75 160.261719 21.625 158.980469 21.625 C 157.855469 21.621094 157.363281 22.371094 157.132812 23.511719 L 156.402344 27.050781 C 156.210938 27.878906 157.6875 27.714844 157.507812 28.578125 C 157.464844 28.753906 157.324219 28.875 156.914062 28.875 C 156.730469 28.875 156.128906 28.796875 155.261719 28.792969 C 154.660156 28.792969 154.046875 28.871094 153.535156 28.871094 C 153.363281 28.871094 153.367188 28.753906 153.390625 28.65625 C 153.613281 27.570312 154.351562 28.367188 154.632812 26.871094 L 155.472656 22.796875 "/>
<path style=" stroke:none;fill-rule:nonzero;fill:rgb(46.864319%,7.292175%,17.03186%);fill-opacity:1;" d="M 86.84375 22.433594 C 86.8125 22.59375 86.753906 22.628906 86.582031 22.628906 C 86.242188 22.628906 86.410156 20.914062 84.808594 20.914062 C 84.246094 20.914062 83.671875 21.210938 83.53125 21.917969 C 83.34375 22.84375 84.011719 22.945312 85.269531 23.574219 C 86.273438 24.089844 86.851562 24.699219 86.554688 26.195312 C 86.132812 28.304688 84.390625 28.972656 83.078125 28.972656 C 82.785156 28.972656 82.285156 28.765625 81.894531 28.695312 C 81.773438 28.671875 81.652344 28.667969 81.558594 28.722656 C 81.363281 28.84375 81.136719 28.871094 81.003906 28.769531 C 80.898438 28.691406 80.855469 28.648438 80.910156 28.375 L 81.394531 26.113281 C 81.464844 25.839844 81.597656 25.78125 81.769531 25.78125 C 82.058594 25.78125 81.714844 28.4375 83.558594 28.4375 C 84.277344 28.4375 84.898438 27.890625 85.066406 27.0625 C 85.222656 26.273438 84.355469 25.820312 82.992188 25.050781 C 82.144531 24.582031 81.855469 24.066406 82.09375 22.863281 C 82.46875 20.992188 83.957031 20.300781 85.390625 20.304688 C 85.460938 20.304688 85.707031 20.34375 86.109375 20.425781 C 86.246094 20.453125 86.34375 20.574219 86.542969 20.460938 C 86.976562 20.160156 87.117188 20.523438 87.101562 20.636719 L 86.84375 22.433594 "/>
<path style=" stroke:none;fill-rule:nonzero;fill:rgb(46.864319%,7.292175%,17.03186%);fill-opacity:1;" d="M 175.742188 22.433594 C 175.710938 22.59375 175.652344 22.628906 175.480469 22.628906 C 175.140625 22.628906 175.3125 20.914062 173.707031 20.914062 C 173.144531 20.914062 172.570312 21.210938 172.429688 21.917969 C 172.242188 22.84375 172.90625 22.945312 174.164062 23.574219 C 175.171875 24.089844 175.75 24.699219 175.453125 26.195312 C 175.03125 28.304688 173.289062 28.972656 171.976562 28.972656 C 171.683594 28.972656 171.183594 28.765625 170.792969 28.695312 C 170.671875 28.671875 170.546875 28.667969 170.453125 28.722656 C 170.257812 28.84375 170.035156 28.871094 169.898438 28.769531 C 169.796875 28.691406 169.753906 28.648438 169.8125 28.375 L 170.292969 26.113281 C 170.363281 25.839844 170.496094 25.78125 170.664062 25.78125 C 170.960938 25.78125 170.613281 28.4375 172.457031 28.4375 C 173.171875 28.4375 173.796875 27.890625 173.960938 27.0625 C 174.117188 26.273438 173.253906 25.820312 171.886719 25.050781 C 171.042969 24.582031 170.753906 24.066406 170.988281 22.863281 C 171.367188 20.992188 172.855469 20.300781 174.289062 20.304688 C 174.359375 20.304688 174.605469 20.34375 175.003906 20.425781 C 175.144531 20.453125 175.242188 20.574219 175.4375 20.460938 C 175.875 20.160156 176.015625 20.523438 175.996094 20.636719 L 175.742188 22.433594 "/>
<path style=" stroke:none;fill-rule:nonzero;fill:rgb(46.864319%,7.292175%,17.03186%);fill-opacity:1;" d="M 98.441406 22.730469 C 98.628906 21.78125 97.429688 22.453125 97.609375 21.511719 C 97.671875 21.195312 97.933594 21.179688 98.566406 21 C 99.578125 20.75 100.046875 20.453125 100.308594 20.289062 C 100.433594 20.203125 100.535156 20.214844 100.632812 20.296875 C 100.769531 20.414062 100.71875 20.519531 100.6875 20.695312 L 99.414062 27.011719 C 99.164062 28.269531 100.535156 27.542969 100.347656 28.585938 C 100.289062 28.902344 99.800781 28.84375 99.59375 28.84375 C 99.046875 28.84375 98.535156 28.816406 97.988281 28.816406 C 97.582031 28.816406 97.136719 28.84375 96.710938 28.84375 C 96.417969 28.84375 96.222656 28.902344 96.285156 28.566406 C 96.476562 27.597656 97.359375 28.226562 97.542969 27.324219 L 98.441406 22.730469 "/>
<path style=" stroke:none;fill-rule:nonzero;fill:rgb(46.864319%,7.292175%,17.03186%);fill-opacity:1;" d="M 99.023438 17.875 C 99.023438 17.261719 99.523438 16.761719 100.136719 16.761719 C 100.753906 16.761719 101.253906 17.261719 101.253906 17.875 C 101.253906 18.492188 100.753906 18.992188 100.136719 18.992188 C 99.523438 18.992188 99.023438 18.492188 99.023438 17.875 "/>
<path style=" stroke:none;fill-rule:nonzero;fill:rgb(46.864319%,7.292175%,17.03186%);fill-opacity:1;" d="M 134.738281 22.730469 C 134.929688 21.78125 133.730469 22.453125 133.910156 21.511719 C 133.96875 21.195312 134.230469 21.179688 134.863281 21 C 135.871094 20.75 136.34375 20.453125 136.601562 20.289062 C 136.730469 20.203125 136.835938 20.214844 136.929688 20.296875 C 137.066406 20.414062 137.019531 20.519531 136.984375 20.695312 L 135.710938 27.011719 C 135.460938 28.269531 136.835938 27.542969 136.644531 28.585938 C 136.585938 28.902344 136.101562 28.84375 135.894531 28.84375 C 135.347656 28.84375 134.835938 28.816406 134.285156 28.816406 C 133.878906 28.816406 133.433594 28.84375 133.007812 28.84375 C 132.71875 28.84375 132.519531 28.902344 132.582031 28.566406 C 132.769531 27.597656 133.65625 28.226562 133.839844 27.324219 L 134.738281 22.730469 "/>
<path style=" stroke:none;fill-rule:nonzero;fill:rgb(46.864319%,7.292175%,17.03186%);fill-opacity:1;" d="M 135.320312 17.875 C 135.320312 17.261719 135.816406 16.761719 136.433594 16.761719 C 137.050781 16.761719 137.546875 17.261719 137.546875 17.875 C 137.546875 18.492188 137.050781 18.992188 136.433594 18.992188 C 135.816406 18.992188 135.320312 18.492188 135.320312 17.875 "/>
<path style=" stroke:none;fill-rule:nonzero;fill:rgb(46.864319%,7.292175%,17.03186%);fill-opacity:1;" d="M 150.75 22.730469 C 150.9375 21.78125 149.738281 22.453125 149.917969 21.511719 C 149.976562 21.195312 150.238281 21.179688 150.871094 21 C 151.882812 20.75 152.351562 20.453125 152.613281 20.289062 C 152.738281 20.203125 152.84375 20.214844 152.941406 20.296875 C 153.074219 20.414062 153.027344 20.519531 152.996094 20.695312 L 151.722656 27.011719 C 151.472656 28.269531 152.84375 27.542969 152.652344 28.585938 C 152.597656 28.902344 152.109375 28.84375 151.902344 28.84375 C 151.355469 28.84375 150.84375 28.816406 150.296875 28.816406 C 149.886719 28.816406 149.445312 28.84375 149.015625 28.84375 C 148.726562 28.84375 148.527344 28.902344 148.59375 28.566406 C 148.78125 27.597656 149.667969 28.226562 149.847656 27.324219 L 150.75 22.730469 "/>
<path style=" stroke:none;fill-rule:nonzero;fill:rgb(46.864319%,7.292175%,17.03186%);fill-opacity:1;" d="M 151.324219 17.875 C 151.324219 17.261719 151.824219 16.761719 152.441406 16.761719 C 153.058594 16.761719 153.558594 17.261719 153.558594 17.875 C 153.558594 18.492188 153.058594 18.992188 152.441406 18.992188 C 151.824219 18.992188 151.324219 18.492188 151.324219 17.875 "/>
<path style=" stroke:none;fill-rule:nonzero;fill:rgb(83.332825%,29.911804%,16.033936%);fill-opacity:1;" d="M 55.421875 37.578125 C 55.421875 37.101562 55.726562 36.835938 56.136719 36.835938 C 56.550781 36.835938 56.851562 37.101562 56.851562 37.578125 L 56.851562 42.363281 L 58.550781 42.363281 C 59.035156 42.363281 59.246094 42.726562 59.234375 43.050781 C 59.21875 43.367188 58.96875 43.679688 58.550781 43.679688 L 56.167969 43.679688 C 55.699219 43.679688 55.421875 43.375 55.421875 42.898438 L 55.421875 37.578125 "/>
<path style=" stroke:none;fill-rule:nonzero;fill:rgb(83.332825%,29.911804%,16.033936%);fill-opacity:1;" d="M 60.730469 41.601562 C 60.828125 42.28125 61.390625 42.59375 62.027344 42.59375 C 62.734375 42.59375 63.21875 42.039062 63.582031 42.039062 C 63.878906 42.039062 64.144531 42.335938 64.144531 42.628906 C 64.144531 43.222656 62.925781 43.796875 61.90625 43.796875 C 60.359375 43.796875 59.328125 42.671875 59.328125 41.152344 C 59.328125 39.761719 60.34375 38.492188 61.789062 38.492188 C 63.277344 38.492188 64.257812 39.847656 64.257812 40.992188 C 64.257812 41.402344 64.078125 41.601562 63.660156 41.601562 Z M 62.886719 40.6875 C 62.808594 40.082031 62.425781 39.636719 61.789062 39.636719 C 61.179688 39.636719 60.769531 40.105469 60.703125 40.6875 L 62.886719 40.6875 "/>
<path style=" stroke:none;fill-rule:nonzero;fill:rgb(83.332825%,29.911804%,16.033936%);fill-opacity:1;" d="M 65.285156 39.808594 L 64.980469 39.808594 C 64.609375 39.808594 64.378906 39.578125 64.378906 39.210938 C 64.378906 38.863281 64.636719 38.609375 64.980469 38.609375 L 65.285156 38.609375 L 65.285156 37.789062 C 65.285156 37.328125 65.570312 37.023438 65.972656 37.023438 C 66.371094 37.023438 66.65625 37.332031 66.65625 37.789062 L 66.65625 38.609375 L 67.046875 38.609375 C 67.402344 38.609375 67.707031 38.769531 67.707031 39.210938 C 67.707031 39.636719 67.402344 39.808594 67.046875 39.808594 L 66.65625 39.808594 L 66.65625 42.976562 C 66.65625 43.433594 66.371094 43.738281 65.972656 43.738281 C 65.570312 43.738281 65.285156 43.433594 65.285156 42.976562 L 65.285156 39.808594 "/>
<path style=" stroke:none;fill-rule:nonzero;fill:rgb(83.332825%,29.911804%,16.033936%);fill-opacity:1;" d="M 71.046875 39.808594 L 70.742188 39.808594 C 70.367188 39.808594 70.136719 39.578125 70.136719 39.210938 C 70.136719 38.863281 70.398438 38.609375 70.742188 38.609375 L 71.046875 38.609375 L 71.046875 37.789062 C 71.046875 37.328125 71.332031 37.023438 71.730469 37.023438 C 72.132812 37.023438 72.417969 37.332031 72.417969 37.789062 L 72.417969 38.609375 L 72.808594 38.609375 C 73.160156 38.609375 73.46875 38.769531 73.46875 39.210938 C 73.46875 39.636719 73.160156 39.808594 72.808594 39.808594 L 72.417969 39.808594 L 72.417969 42.976562 C 72.417969 43.433594 72.132812 43.738281 71.730469 43.738281 C 71.332031 43.738281 71.046875 43.433594 71.046875 42.976562 L 71.046875 39.808594 "/>
<path style=" stroke:none;fill-rule:nonzero;fill:rgb(83.332825%,29.911804%,16.033936%);fill-opacity:1;" d="M 73.855469 37.101562 C 73.855469 36.640625 74.140625 36.339844 74.542969 36.339844 C 74.945312 36.339844 75.230469 36.640625 75.230469 37.101562 L 75.230469 38.96875 L 75.25 38.96875 C 75.535156 38.617188 76.070312 38.492188 76.496094 38.492188 C 77.574219 38.492188 78.378906 39.179688 78.378906 40.34375 L 78.378906 42.976562 C 78.378906 43.433594 78.09375 43.734375 77.691406 43.734375 C 77.289062 43.734375 77.003906 43.433594 77.003906 42.976562 L 77.003906 40.582031 C 77.003906 39.941406 76.601562 39.636719 76.109375 39.636719 C 75.542969 39.636719 75.230469 40.046875 75.230469 40.582031 L 75.230469 42.976562 C 75.230469 43.433594 74.945312 43.734375 74.542969 43.734375 C 74.140625 43.734375 73.855469 43.433594 73.855469 42.976562 L 73.855469 37.101562 "/>
<path style=" stroke:none;fill-rule:nonzero;fill:rgb(83.332825%,29.911804%,16.033936%);fill-opacity:1;" d="M 80.5 41.601562 C 80.59375 42.28125 81.160156 42.59375 81.796875 42.59375 C 82.503906 42.59375 82.992188 42.039062 83.351562 42.039062 C 83.648438 42.039062 83.917969 42.335938 83.917969 42.628906 C 83.917969 43.222656 82.695312 43.796875 81.675781 43.796875 C 80.128906 43.796875 79.097656 42.671875 79.097656 41.152344 C 79.097656 39.761719 80.109375 38.492188 81.5625 38.492188 C 83.046875 38.492188 84.03125 39.847656 84.03125 40.992188 C 84.03125 41.402344 83.847656 41.601562 83.429688 41.601562 Z M 82.65625 40.6875 C 82.582031 40.082031 82.199219 39.636719 81.5625 39.636719 C 80.949219 39.636719 80.539062 40.105469 80.472656 40.6875 L 82.65625 40.6875 "/>
<path style=" stroke:none;fill-rule:nonzero;fill:rgb(83.332825%,29.911804%,16.033936%);fill-opacity:1;" d="M 87.492188 37.605469 C 87.492188 37.148438 87.804688 36.890625 88.242188 36.890625 L 90.078125 36.890625 C 91.066406 36.890625 91.867188 37.558594 91.867188 38.570312 C 91.867188 39.238281 91.59375 39.6875 90.984375 39.972656 L 90.984375 39.988281 C 91.792969 40.105469 92.433594 40.78125 92.433594 41.613281 C 92.433594 42.957031 91.535156 43.679688 90.21875 43.679688 L 88.257812 43.679688 C 87.816406 43.679688 87.492188 43.402344 87.492188 42.957031 Z M 88.921875 39.578125 L 89.664062 39.578125 C 90.132812 39.578125 90.4375 39.300781 90.4375 38.824219 C 90.4375 38.378906 90.085938 38.148438 89.664062 38.148438 L 88.921875 38.148438 Z M 88.921875 42.421875 L 90.046875 42.421875 C 90.5625 42.421875 90.945312 42.128906 90.945312 41.59375 C 90.945312 41.144531 90.601562 40.839844 89.933594 40.839844 L 88.921875 40.839844 L 88.921875 42.421875 "/>
<path style=" stroke:none;fill-rule:nonzero;fill:rgb(83.332825%,29.911804%,16.033936%);fill-opacity:1;" d="M 94.289062 41.601562 C 94.382812 42.28125 94.945312 42.59375 95.585938 42.59375 C 96.289062 42.59375 96.777344 42.039062 97.136719 42.039062 C 97.433594 42.039062 97.703125 42.335938 97.703125 42.628906 C 97.703125 43.222656 96.480469 43.796875 95.460938 43.796875 C 93.914062 43.796875 92.886719 42.671875 92.886719 41.152344 C 92.886719 39.761719 93.898438 38.492188 95.347656 38.492188 C 96.835938 38.492188 97.816406 39.847656 97.816406 40.992188 C 97.816406 41.402344 97.636719 41.601562 97.21875 41.601562 Z M 96.445312 40.6875 C 96.367188 40.082031 95.984375 39.636719 95.347656 39.636719 C 94.734375 39.636719 94.328125 40.105469 94.261719 40.6875 L 96.445312 40.6875 "/>
<path style=" stroke:none;fill-rule:nonzero;fill:rgb(83.332825%,29.911804%,16.033936%);fill-opacity:1;" d="M 103.230469 42.839844 C 103.230469 43.195312 103.230469 43.738281 102.570312 43.738281 C 102.171875 43.738281 102.007812 43.519531 101.914062 43.15625 C 101.5625 43.574219 101.132812 43.796875 100.605469 43.796875 C 99.320312 43.796875 98.335938 42.699219 98.335938 41.152344 C 98.335938 39.648438 99.347656 38.492188 100.605469 38.492188 C 101.113281 38.492188 101.605469 38.691406 101.914062 39.121094 C 101.949219 38.789062 102.238281 38.550781 102.570312 38.550781 C 103.230469 38.550781 103.230469 39.09375 103.230469 39.445312 Z M 100.796875 42.539062 C 101.515625 42.539062 101.855469 41.8125 101.855469 41.152344 C 101.855469 40.496094 101.523438 39.753906 100.796875 39.753906 C 100.046875 39.753906 99.710938 40.496094 99.710938 41.152344 C 99.710938 41.8125 100.054688 42.539062 100.796875 42.539062 "/>
<path style=" stroke:none;fill-rule:nonzero;fill:rgb(83.332825%,29.911804%,16.033936%);fill-opacity:1;" d="M 104.261719 39.238281 C 104.261719 38.777344 104.617188 38.550781 104.964844 38.550781 C 105.328125 38.550781 105.632812 38.683594 105.632812 39.121094 L 105.648438 39.121094 C 105.910156 38.742188 106.1875 38.550781 106.613281 38.550781 C 106.949219 38.550781 107.28125 38.789062 107.28125 39.285156 C 107.28125 39.734375 106.871094 39.761719 106.464844 39.953125 C 106.050781 40.140625 105.632812 40.324219 105.632812 40.867188 L 105.632812 42.976562 C 105.632812 43.433594 105.347656 43.738281 104.945312 43.738281 C 104.546875 43.738281 104.261719 43.433594 104.261719 42.976562 L 104.261719 39.238281 "/>
<path style=" stroke:none;fill-rule:nonzero;fill:rgb(83.332825%,29.911804%,16.033936%);fill-opacity:1;" d="M 110.726562 39.808594 L 110.421875 39.808594 C 110.046875 39.808594 109.816406 39.578125 109.816406 39.210938 C 109.816406 38.863281 110.074219 38.609375 110.421875 38.609375 L 110.726562 38.609375 L 110.726562 37.789062 C 110.726562 37.328125 111.011719 37.023438 111.410156 37.023438 C 111.8125 37.023438 112.101562 37.332031 112.101562 37.789062 L 112.101562 38.609375 L 112.488281 38.609375 C 112.839844 38.609375 113.148438 38.769531 113.148438 39.210938 C 113.148438 39.636719 112.839844 39.808594 112.488281 39.808594 L 112.101562 39.808594 L 112.101562 42.976562 C 112.101562 43.433594 111.8125 43.738281 111.410156 43.738281 C 111.011719 43.738281 110.726562 43.433594 110.726562 42.976562 L 110.726562 39.808594 "/>
<path style=" stroke:none;fill-rule:nonzero;fill:rgb(83.332825%,29.911804%,16.033936%);fill-opacity:1;" d="M 118.117188 42.839844 C 118.117188 43.195312 118.117188 43.738281 117.460938 43.738281 C 117.058594 43.738281 116.894531 43.519531 116.800781 43.15625 C 116.445312 43.574219 116.019531 43.796875 115.492188 43.796875 C 114.203125 43.796875 113.222656 42.699219 113.222656 41.152344 C 113.222656 39.648438 114.234375 38.492188 115.492188 38.492188 C 116 38.492188 116.492188 38.691406 116.800781 39.121094 C 116.839844 38.789062 117.125 38.550781 117.460938 38.550781 C 118.117188 38.550781 118.117188 39.09375 118.117188 39.445312 Z M 115.6875 42.539062 C 116.398438 42.539062 116.742188 41.8125 116.742188 41.152344 C 116.742188 40.496094 116.410156 39.753906 115.6875 39.753906 C 114.933594 39.753906 114.597656 40.496094 114.597656 41.152344 C 114.597656 41.8125 114.9375 42.539062 115.6875 42.539062 "/>
<path style=" stroke:none;fill-rule:nonzero;fill:rgb(83.332825%,29.911804%,16.033936%);fill-opacity:1;" d="M 119.15625 37.101562 C 119.15625 36.640625 119.445312 36.339844 119.84375 36.339844 C 120.246094 36.339844 120.53125 36.640625 120.53125 37.101562 L 120.53125 40.304688 L 122.039062 38.847656 C 122.253906 38.636719 122.476562 38.550781 122.65625 38.550781 C 123 38.550781 123.238281 38.867188 123.238281 39.171875 C 123.238281 39.371094 123.171875 39.53125 122.972656 39.714844 L 121.753906 40.800781 L 123.363281 42.6875 C 123.488281 42.832031 123.535156 42.996094 123.535156 43.144531 C 123.535156 43.507812 123.246094 43.796875 122.886719 43.796875 C 122.636719 43.796875 122.449219 43.644531 122.226562 43.378906 L 120.550781 41.308594 L 120.53125 41.308594 L 120.53125 42.976562 C 120.53125 43.433594 120.246094 43.738281 119.84375 43.738281 C 119.445312 43.738281 119.15625 43.433594 119.15625 42.976562 L 119.15625 37.101562 "/>
<path style=" stroke:none;fill-rule:nonzero;fill:rgb(83.332825%,29.911804%,16.033936%);fill-opacity:1;" d="M 125.109375 41.601562 C 125.210938 42.28125 125.769531 42.59375 126.410156 42.59375 C 127.113281 42.59375 127.601562 42.039062 127.964844 42.039062 C 128.257812 42.039062 128.527344 42.335938 128.527344 42.628906 C 128.527344 43.222656 127.308594 43.796875 126.285156 43.796875 C 124.738281 43.796875 123.707031 42.671875 123.707031 41.152344 C 123.707031 39.761719 124.71875 38.492188 126.171875 38.492188 C 127.65625 38.492188 128.640625 39.847656 128.640625 40.992188 C 128.640625 41.402344 128.460938 41.601562 128.039062 41.601562 Z M 127.265625 40.6875 C 127.191406 40.082031 126.8125 39.636719 126.171875 39.636719 C 125.5625 39.636719 125.148438 40.105469 125.082031 40.6875 L 127.265625 40.6875 "/>
<g clip-path="url(#clip1)" clip-rule="nonzero">
<path style=" stroke:none;fill-rule:nonzero;fill:rgb(83.332825%,29.911804%,16.033936%);fill-opacity:1;" d="M 131.722656 39.492188 C 131.683594 39.390625 131.652344 39.285156 131.652344 39.140625 C 131.652344 38.796875 132.015625 38.550781 132.304688 38.550781 C 132.636719 38.550781 132.875 38.730469 132.988281 39.039062 L 133.9375 41.621094 L 134.941406 39.039062 C 135.0625 38.730469 135.296875 38.550781 135.628906 38.550781 C 135.917969 38.550781 136.277344 38.796875 136.277344 39.140625 C 136.277344 39.285156 136.261719 39.390625 136.214844 39.492188 L 133.917969 45.21875 C 133.800781 45.503906 133.589844 45.761719 133.265625 45.761719 C 132.796875 45.761719 132.550781 45.464844 132.550781 45.167969 C 132.550781 45.035156 132.589844 44.890625 132.636719 44.769531 L 133.238281 43.28125 L 131.722656 39.492188 "/>
</g>
<path style=" stroke:none;fill-rule:nonzero;fill:rgb(83.332825%,29.911804%,16.033936%);fill-opacity:1;" d="M 141.421875 41.152344 C 141.421875 42.585938 140.441406 43.796875 138.960938 43.796875 C 137.484375 43.796875 136.503906 42.585938 136.503906 41.152344 C 136.503906 39.761719 137.515625 38.492188 138.960938 38.492188 C 140.410156 38.492188 141.421875 39.761719 141.421875 41.152344 M 137.875 41.152344 C 137.875 41.8125 138.21875 42.535156 138.960938 42.535156 C 139.707031 42.535156 140.050781 41.8125 140.050781 41.152344 C 140.050781 40.496094 139.714844 39.753906 138.960938 39.753906 C 138.210938 39.753906 137.875 40.496094 137.875 41.152344 "/>
<path style=" stroke:none;fill-rule:nonzero;fill:rgb(83.332825%,29.911804%,16.033936%);fill-opacity:1;" d="M 142.191406 39.3125 C 142.191406 38.859375 142.480469 38.550781 142.878906 38.550781 C 143.277344 38.550781 143.566406 38.859375 143.566406 39.3125 L 143.566406 41.765625 C 143.566406 42.335938 143.996094 42.652344 144.453125 42.652344 C 144.910156 42.652344 145.339844 42.335938 145.339844 41.765625 L 145.339844 39.3125 C 145.339844 38.859375 145.625 38.550781 146.023438 38.550781 C 146.429688 38.550781 146.714844 38.859375 146.714844 39.3125 L 146.714844 41.792969 C 146.714844 43.015625 145.902344 43.796875 144.453125 43.796875 C 143.003906 43.796875 142.191406 43.015625 142.191406 41.792969 L 142.191406 39.3125 "/>
<path style=" stroke:none;fill-rule:nonzero;fill:rgb(83.332825%,29.911804%,16.033936%);fill-opacity:1;" d="M 150.765625 39.808594 L 150.460938 39.808594 C 150.089844 39.808594 149.859375 39.578125 149.859375 39.210938 C 149.859375 38.863281 150.117188 38.609375 150.460938 38.609375 L 150.765625 38.609375 L 150.765625 37.789062 C 150.765625 37.328125 151.054688 37.023438 151.453125 37.023438 C 151.855469 37.023438 152.140625 37.332031 152.140625 37.789062 L 152.140625 38.609375 L 152.53125 38.609375 C 152.882812 38.609375 153.191406 38.769531 153.191406 39.210938 C 153.191406 39.636719 152.882812 39.808594 152.53125 39.808594 L 152.140625 39.808594 L 152.140625 42.976562 C 152.140625 43.433594 151.855469 43.738281 151.453125 43.738281 C 151.054688 43.738281 150.765625 43.433594 150.765625 42.976562 L 150.765625 39.808594 "/>
<path style=" stroke:none;fill-rule:nonzero;fill:rgb(83.332825%,29.911804%,16.033936%);fill-opacity:1;" d="M 153.574219 37.101562 C 153.574219 36.640625 153.863281 36.339844 154.261719 36.339844 C 154.664062 36.339844 154.949219 36.640625 154.949219 37.101562 L 154.949219 38.96875 L 154.96875 38.96875 C 155.257812 38.617188 155.789062 38.492188 156.21875 38.492188 C 157.296875 38.492188 158.097656 39.179688 158.097656 40.34375 L 158.097656 42.976562 C 158.097656 43.433594 157.8125 43.734375 157.410156 43.734375 C 157.011719 43.734375 156.722656 43.433594 156.722656 42.976562 L 156.722656 40.582031 C 156.722656 39.941406 156.324219 39.636719 155.828125 39.636719 C 155.265625 39.636719 154.949219 40.046875 154.949219 40.582031 L 154.949219 42.976562 C 154.949219 43.433594 154.664062 43.734375 154.261719 43.734375 C 153.863281 43.734375 153.574219 43.433594 153.574219 42.976562 L 153.574219 37.101562 "/>
<path style=" stroke:none;fill-rule:nonzero;fill:rgb(83.332825%,29.911804%,16.033936%);fill-opacity:1;" d="M 160.226562 41.601562 C 160.316406 42.28125 160.878906 42.59375 161.519531 42.59375 C 162.226562 42.59375 162.714844 42.039062 163.074219 42.039062 C 163.367188 42.039062 163.636719 42.335938 163.636719 42.628906 C 163.636719 43.222656 162.414062 43.796875 161.394531 43.796875 C 159.851562 43.796875 158.816406 42.671875 158.816406 41.152344 C 158.816406 39.761719 159.832031 38.492188 161.28125 38.492188 C 162.769531 38.492188 163.75 39.847656 163.75 40.992188 C 163.75 41.402344 163.570312 41.601562 163.148438 41.601562 Z M 162.378906 40.6875 C 162.300781 40.082031 161.921875 39.636719 161.28125 39.636719 C 160.671875 39.636719 160.257812 40.105469 160.191406 40.6875 L 162.378906 40.6875 "/>
<path style=" stroke:none;fill-rule:nonzero;fill:rgb(83.332825%,29.911804%,16.033936%);fill-opacity:1;" d="M 164.5 39.238281 C 164.5 38.777344 164.863281 38.550781 165.207031 38.550781 C 165.570312 38.550781 165.875 38.683594 165.875 39.121094 L 165.894531 39.121094 C 166.148438 38.742188 166.425781 38.550781 166.855469 38.550781 C 167.1875 38.550781 167.519531 38.789062 167.519531 39.285156 C 167.519531 39.734375 167.113281 39.761719 166.703125 39.953125 C 166.296875 40.140625 165.875 40.324219 165.875 40.867188 L 165.875 42.976562 C 165.875 43.433594 165.585938 43.738281 165.1875 43.738281 C 164.785156 43.738281 164.5 43.433594 164.5 42.976562 L 164.5 39.238281 "/>
<path style=" stroke:none;fill-rule:nonzero;fill:rgb(83.332825%,29.911804%,16.033936%);fill-opacity:1;" d="M 168.988281 41.601562 C 169.089844 42.28125 169.648438 42.59375 170.285156 42.59375 C 170.996094 42.59375 171.480469 42.039062 171.84375 42.039062 C 172.140625 42.039062 172.40625 42.335938 172.40625 42.628906 C 172.40625 43.222656 171.1875 43.796875 170.164062 43.796875 C 168.617188 43.796875 167.589844 42.671875 167.589844 41.152344 C 167.589844 39.761719 168.597656 38.492188 170.050781 38.492188 C 171.535156 38.492188 172.519531 39.847656 172.519531 40.992188 C 172.519531 41.402344 172.339844 41.601562 171.917969 41.601562 Z M 171.144531 40.6875 C 171.070312 40.082031 170.6875 39.636719 170.050781 39.636719 C 169.4375 39.636719 169.027344 40.105469 168.960938 40.6875 L 171.144531 40.6875 "/>
<path style=" stroke:none;fill-rule:nonzero;fill:rgb(83.332825%,29.911804%,16.033936%);fill-opacity:1;" d="M 173.449219 43.054688 C 173.449219 42.640625 173.785156 42.304688 174.195312 42.304688 C 174.605469 42.304688 174.941406 42.640625 174.941406 43.054688 C 174.941406 43.460938 174.605469 43.796875 174.195312 43.796875 C 173.785156 43.796875 173.449219 43.460938 173.449219 43.054688 M 173.507812 37.425781 C 173.507812 37.023438 173.804688 36.773438 174.195312 36.773438 C 174.578125 36.773438 174.882812 37.03125 174.882812 37.425781 L 174.882812 41.097656 C 174.882812 41.484375 174.578125 41.746094 174.195312 41.746094 C 173.804688 41.746094 173.507812 41.496094 173.507812 41.097656 L 173.507812 37.425781 "/>
<path style=" stroke:none;fill-rule:nonzero;fill:rgb(46.864319%,7.292175%,17.03186%);fill-opacity:1;" d="M 34.25 33.726562 C 33.003906 34.628906 31.550781 35.566406 29.996094 36.632812 L 28.742188 37.492188 C 26.859375 38.792969 24.480469 38.972656 22.046875 37.996094 C 19.582031 37.007812 17.394531 35.03125 17 33.199219 C 16.757812 32.0625 16.816406 31.375 16.898438 30.503906 C 15.882812 30.703125 15.105469 30.480469 14.601562 30.21875 C 13.644531 29.722656 12.921875 28.726562 12.585938 27.425781 C 12.542969 27.265625 12.363281 26.324219 12.363281 25.394531 C 12.363281 24.71875 12.460938 23.9375 12.769531 23.191406 C 11.730469 22.695312 11.007812 21.632812 11.007812 20.402344 C 11.007812 18.699219 12.394531 17.3125 14.101562 17.3125 C 14.183594 17.3125 14.265625 17.316406 14.351562 17.324219 C 14.082031 16.875 13.925781 16.359375 13.925781 15.800781 C 13.925781 14.144531 15.273438 12.796875 16.929688 12.796875 C 17.289062 12.796875 17.636719 12.863281 17.953125 12.980469 C 17.964844 12.746094 18.003906 12.515625 18.0625 12.292969 C 14.71875 8.488281 10.164062 4.40625 5.113281 4.40625 L 1.214844 4.40625 L 12.089844 43.820312 L 41.734375 43.824219 C 39.230469 40.445312 36.671875 36.996094 34.25 33.726562 "/>
<path style=" stroke:none;fill-rule:nonzero;fill:rgb(83.332825%,29.911804%,16.033936%);fill-opacity:1;" d="M 18.980469 10.726562 C 19.644531 10.066406 20.566406 9.644531 21.601562 9.644531 C 21.628906 9.644531 21.65625 9.652344 21.683594 9.652344 C 18.273438 5.472656 13.089844 -0.00390625 7.234375 -0.00390625 C 7.234375 -0.00390625 2.597656 0 0 0 L 0.738281 2.683594 L 5.109375 2.683594 C 10.644531 2.683594 15.441406 6.789062 18.980469 10.726562 "/>
<path style=" stroke:none;fill-rule:nonzero;fill:rgb(83.332825%,29.911804%,16.033936%);fill-opacity:1;" d="M 37.433594 30.75 C 36.996094 31.40625 36.371094 32.039062 35.613281 32.671875 L 43.882812 43.824219 L 47.125 43.824219 C 43.988281 39.59375 40.621094 35.050781 37.433594 30.75 "/>
</g>
</svg>
