<svg xmlns="http://www.w3.org/2000/svg" width="176pt" height="61.013" viewBox="0 0 176 45.76"><defs><clipPath id="a"><path d="M131 38h6v7.762h-6Zm0 0"/></clipPath></defs><path d="M14.809 23.512c-1.118 1.129-.786 3.113-.637 3.672.223.847.933 2.457 2.887 1.73 1.957-.727 1.418-2.594 1.175-3.152-.199-.45-2.148-3.547-3.425-2.25M18.297 18.059c-1.356.535-1.281 2.418-.836 3.828.445 1.406 1.312 2.453 3.004 1.8 1.687-.652 1.098-2.914.531-3.964-.555-1.051-1.64-2.086-2.7-1.664M23.05 14.45c-1.058.355-1.488 1.769-.995 4.01.5 2.235 2.074 2.727 3.3 2.25 1.227-.468 1.7-2.437.836-4.194-.863-1.754-2.058-2.43-3.14-2.067M28.422 13.645c-1 .507-.59 2.859-.23 4.32.351 1.465.933 3.558 2.792 2.957 1.864-.602 1.871-2.754 1.543-3.656-.832-2.235-2.996-4.192-4.105-3.621M35.648 18.535c-1.367-.305-1.789.852-1.976 2.399-.188 1.543.465 2.449 1.629 2.628 1.164.184 1.761-.8 1.984-2.066.227-1.273-.48-2.703-1.637-2.96M27.887 36.035c3.957-2.734 7.703-5.097 8.437-7.265.43-1.27-.14-3.207-5.308-4.426-1.48-.348-2.84-1.692-4.02-1.672-2.273.039-3.453 2.41-4.187 3.305-1.543 1.886-4.711 3.812-4.114 6.703.477 2.332 5.586 5.847 9.192 3.355M12.875 20.906a.724.724 0 1 1 1.444.002.724.724 0 0 1-1.444-.002M15.707 15.602a.723.723 0 1 1 1.445.007.723.723 0 0 1-1.445-.007M20.582 12.531a.724.724 0 1 1 1.447.002.724.724 0 0 1-1.447-.002M26.672 11.691a.722.722 0 1 1 1.445 0 .724.724 0 0 1-1.445 0M34.563 16.387a.724.724 0 1 1 1.447.001.724.724 0 0 1-1.447-.001" style="stroke:none;fill-rule:nonzero;fill:#d44c29;fill-opacity:1"/><path d="m130.883 26.941.293-11.222c.004-.196-.02-.395-.317-.403-.246-.007-.945-.027-1.914-.129-2.207-.23-3.683-1.332-6.367-.714-1.625.375-2.95 1.644-3.121 3.132a3 3 0 0 0-.023.368c.011 1.129.668 2.101 1.578 2.632q.036.025.066.043c.453.247.965.391 1.512.383a3.1 3.1 0 0 0 1.668-.5c.23-.152.633-.613.547-1.043-.047-.242-.235-.41-.504-.457-.567-.105-.914.25-1.196.543-.394.399-.93.817-1.703.442-.765-.375-1.21-1.172-1.218-2.059q0-.146.015-.293c.133-1.156 1.086-2.086 2.364-2.355 1.636-.348 3.66.195 4.617.687.414.215 1.05.516.496 1.715-3.817 8.191-6.54 14.324-12.446 13.316-1.742-.293-2.945-1.68-2.945-3.3 0-.137.012-.274.028-.41.148-1.227.898-2.262 2.027-2.657 1.129-.398 1.8.266 2.281.883.344.445.774 1 1.57.95.387-.028.668-.231.774-.56.187-.581-.293-1.285-.594-1.535a4.3 4.3 0 0 0-2.226-.96 4.3 4.3 0 0 0-2.16.296c-.032.012-.067.024-.098.047-1.348.594-2.242 1.848-2.438 3.414q-.03.258-.031.516c0 2.086 1.57 4.047 3.77 4.422 4.39.746 7.171-1.938 9.68-6.266.808-1.39 1.202-1.73 1.491-1.73h2.11c.445 0 .449-.02.422 1.52-.02.53-.04.886-.207 1.32-.47 1.203-1.032.597-1.387 1.511-.11.278.133.239.437.239.496 0 .727-.036 1.477-.032 1.125 0 1.297.075 1.914.075.46 0 .672.062.727-.293.168-1.012-.965-.137-.97-1.536m-1.886-4.386c-.05.574.012.91-.543.91l-1.281-.004c-.309 0-.848-.055-.582-.594.305-.637 1.324-2.82 1.953-4.176.328-.707.809-.836.793-.48-.02.39-.191 2.672-.34 4.344M58.973 18.508c.097-.477.527-3.39-3.653-3.39-.246 0-1.914-.071-3.05-.071-2.223 0-3.942-.445-6.387.812-1.488.758-2.461 2.317-2.266 3.801q.029.181.074.363c.286 1.09 1.16 1.868 2.172 2.165q.04.01.075.023c.496.129 1.03.14 1.562.004a3.03 3.03 0 0 0 1.488-.895c.192-.203.469-.75.278-1.144-.106-.223-.325-.34-.602-.32-.57.035-.824.468-1.027.82-.278.484-.696 1.015-1.535.844-.84-.176-1.465-.84-1.692-1.696a4 4 0 0 1-.058-.289c-.153-1.152.546-2.289 1.718-2.863 1.258-.621 3.203-.918 4.184-.672.473.117.941.512.64 2.012l-1.738 8.707c-.383 1.91-1.746 1.207-1.875 1.86-.054.273.106.312.5.312.36 0 .82-.078 1.23-.078.852 0 1.516-.008 4.063-.008 2.785.004 4.653-1.297 5.172-3.899.352-1.773.133-2.972-1.828-3.582l.008-.039c1.304-.453 2.3-1.535 2.547-2.777m-2.961 6.582c-.383 1.91-1.328 3.082-3 3.078-1.657 0-1.957-.445-1.582-2.313l.441-2.21c.203-1.024.34-1.512 1.344-1.516 2.805-.008 3.035 1.777 2.797 2.96m-1.692-3.843h-.804c-.977-.082-1.13-.16-.938-1.125l.457-2.289c.219-1.121.406-1.871 1.567-1.871 1.52.004 2.39 1.23 2.027 3.043-.293 1.457-1.008 2.242-2.309 2.242M61.488 23.996c-.308 0-.347-.14-.476.492-.336 1.692.398 3.23 1.886 3.23 1.004 0 1.793-1.16 2.055-1.241.164-.051.313-.016.27.199-.102.492-1.723 2.285-3.48 2.285-1.692-.004-3.118-1.242-2.579-3.941.453-2.266 2.055-4.73 4.258-4.73 2.289.003 2.766 2.25 2.558 3.273-.085.433-.187.433-.293.433Zm2.305-.687c.293 0 .426-.137.5-.536.148-.75-.094-1.91-1.172-1.91-1.023 0-1.633 1.16-1.812 2.067-.063.316.066.375.117.375zM72.465 26.582c-.2.984-.23 1.219.215 1.219.207 0 .41-.149.527-.149.121 0 .27.2.211.356-.145.379-1.277.957-1.895.957-.8 0-.882-.785-.867-1.203-.851.672-1.969 1.203-2.906 1.203-.941 0-1.453-.77-1.234-1.852.484-2.425 3.015-2.855 4.683-3.27.047-.011.106-.1.13-.238.234-1.585.109-2.66-1.02-2.66-.649 0-1.11.422-1.114 1.176-.004.942-.988.887-1.11.887-.136 0-.616-.254-.542-.63.348-1.714 2.383-2.081 3.582-2.081 1.754 0 2.414.906 2.016 2.894Zm-1.54-1.36c.106-.535.173-.71.02-.71-.664 0-2.152.668-2.414 1.988-.062.316-.246 1.3.649 1.3.375 0 1.273-.214 1.363-.667zM77.066 26.703c-.359 1.813 1.348.914 1.23 1.793-.015.117-.136.332-.323.332-.407 0-1.368-.074-1.93-.074-.805-.004-1.313.074-1.738.074-.223 0-.274-.039-.25-.195.117-.93.855-.043 1.129-1.555l.87-4.398c.188-.946-1.144-.282-.85-1.18.1-.305.316-.36.956-.512 1.262-.304 1.465-.808 1.672-.808.203 0 .645.117.594.375l-.43 1.496c.957-1.024 1.527-1.535 1.945-1.606.547-.09 1.329.399 1.297 1.117-.027.743-.105 1.536-1.218 1.598-.813.05-.27-.707-1.211-.73-.938-.024-1.188 1.496-1.215 1.652zM90.18 16.66c.234-1.164-1.02-.531-.903-1.101.063-.34.305-.258 1.485-.692.625-.191.976-.37 1.195-.504.277-.175.32-.129.465-.05.148.085-.024.32-.246 1.421l-1.707 8.551 2.867-2.383c.324-.254.277-.355.289-.43.074-.355-.766-.257-.687-.652.07-.36.214-.297.453-.297.472 0 .918.082 1.402.082.46 0 .953-.078 1.414-.078.273 0 .383.059.356.196-.06.297-.403.375-.547.414-1.371.375-3.211 1.87-3.254 2.105-.137.692 1.02 3.168 1.625 4.254.363.649 1.328.281 1.226 1.031-.039.336-.316.317-.672.317-.293 0-.586-.008-.894-.008q-.359.002-.969.004c-.086 0-.36.078-.984-1.5l-1.063-2.695-.758.605-.355 1.773c-.273 1.403 1.105.793.957 1.559-.04.2-.121.258-.41.258-.344 0-1.383-.012-1.899-.012-.39 0-1.18.008-1.535.008-.136 0-.277.004-.25-.195.14-1.028.969.18 1.34-1.676zM103.086 22.77c.187-.946-1.07-.391-.852-1.258.079-.309.32-.332.957-.512.942-.23 1.41-.504 1.684-.672.16-.105.344-.117.402-.062.153.129.07.28.016.539l-.188.87h.036c.632-.87 1.586-1.359 2.593-1.359 1.844.004 2.246 1.754 1.864 3.668l-.641 3.192c-.187.96.879.672.785 1.379-.027.238-.156.293-.453.293-.547 0-1.074-.075-1.43-.078-.43 0-1.058.078-1.265.078-.324 0-.57.101-.512-.254.106-.637.918-.602 1.031-1.246l.672-3.348c.254-1.281.086-2.402-1.191-2.402-1.13 0-1.617.746-1.848 1.89l-.73 3.535c-.192.829 1.285.665 1.097 1.528-.035.176-.175.293-.59.293-.183 0-.785-.078-1.656-.078-.597 0-1.207.078-1.719.078-.171 0-.168-.117-.148-.219.223-1.082.965-.29 1.238-1.777zM147.094 16.691c.23-1.164-1.024-.53-.906-1.105.066-.332.304-.254 1.488-.688.62-.191.969-.37 1.191-.503.281-.176.477.003.446.222-.032.219-.004.043-.153.75l-2.258 11.293c-.351 1.793.961 1.168.88 1.953-.016.203-.118.258-.407.258-.344 0-1.352-.008-1.86-.008-.398 0-1.214.004-1.577.004-.133 0-.282 0-.247-.199.2-1.055 1.043-.074 1.414-1.926zM140.563 26.703c-.364 1.813 1.347.914 1.226 1.793-.012.117-.133.332-.316.332-.414 0-1.407.031-1.97.031-.804 0-1.28-.03-1.71-.03-.219 0-.27-.04-.246-.196.117-.93.86-.043 1.129-1.555l.875-4.398c.187-.946-1.145-.282-.852-1.18.102-.305.32-.36.953-.512 1.262-.304 1.47-.808 1.672-.808.207 0 .649.117.598.375l-.43 1.496c.957-1.024 1.524-1.535 1.946-1.606.546-.09 1.324.399 1.292 1.117-.027.743-.105 1.536-1.214 1.598-.813.05-.27-.707-1.211-.73-.938-.024-1.188 1.496-1.22 1.652zM165.34 24.05c-.309 0-.348-.136-.477.49-.34 1.694.399 3.237 1.887 3.237 1.004 0 1.797-1.164 2.055-1.246.168-.05.308-.015.27.203-.098.493-1.72 2.286-3.477 2.282-1.696 0-3.121-1.243-2.582-3.942.457-2.265 2.054-4.726 4.257-4.726 2.293 0 2.766 2.25 2.563 3.273-.09.434-.191.434-.297.434Zm2.305-.69c.289 0 .425-.13.5-.528.148-.75-.094-1.914-1.172-1.914-1.024 0-1.633 1.16-1.817 2.07-.058.313.07.371.125.371zM155.473 22.797c.187-.945-1.067-.387-.852-1.254.082-.313.328-.332.961-.512.938-.234 1.41-.504 1.68-.676.168-.105.343-.113.406-.062.152.129.066.285.016.539l-.188.871h.035c.633-.867 1.582-1.36 2.59-1.36 1.848 0 2.25 1.755 1.867 3.669l-.636 3.191c-.196.965.875.676.78 1.379-.03.238-.16.293-.448.293-.547 0-1.079-.078-1.438-.078-.43 0-1.059.078-1.266.078-.324 0-.566.102-.507-.254.101-.633.918-.598 1.03-1.242l.669-3.352c.258-1.277.09-2.402-1.192-2.402-1.125-.004-1.617.746-1.847 1.887l-.73 3.539c-.192.828 1.285.664 1.105 1.527-.043.176-.184.297-.594.297-.184 0-.785-.078-1.652-.082-.602 0-1.215.078-1.727.078-.172 0-.168-.117-.144-.215.222-1.086.96-.289 1.242-1.785zM86.844 22.434c-.031.16-.09.195-.262.195-.34 0-.172-1.715-1.773-1.715-.563 0-1.137.297-1.278 1.004-.187.926.48 1.027 1.739 1.656 1.003.516 1.582 1.125 1.285 2.621-.422 2.11-2.164 2.778-3.477 2.778-.293 0-.793-.207-1.183-.278-.122-.023-.243-.027-.336.028-.196.12-.422.148-.555.047-.106-.079-.149-.122-.094-.395l.485-2.262c.07-.273.203-.332.375-.332.289 0-.055 2.657 1.789 2.657.718 0 1.34-.547 1.507-1.375.157-.79-.71-1.243-2.074-2.012-.847-.469-1.137-.985-.898-2.188.375-1.87 1.863-2.562 3.297-2.558.07 0 .316.039.718.12.137.028.235.15.434.036.434-.3.574.062.559.176zM175.742 22.434c-.031.16-.09.195-.262.195-.34 0-.167-1.715-1.773-1.715-.562 0-1.137.297-1.277 1.004-.188.926.476 1.027 1.734 1.656 1.008.516 1.586 1.125 1.29 2.621-.423 2.11-2.165 2.778-3.477 2.778-.293 0-.793-.207-1.184-.278-.121-.023-.246-.027-.34.028-.195.12-.418.148-.555.047-.101-.079-.144-.122-.085-.395l.48-2.262c.07-.273.203-.332.371-.332.297 0-.05 2.657 1.793 2.657.715 0 1.34-.547 1.504-1.375.156-.79-.707-1.243-2.074-2.012-.844-.469-1.133-.985-.899-2.188.38-1.87 1.867-2.562 3.301-2.558.07 0 .316.039.715.12.14.028.238.15.434.036.437-.3.578.062.558.176zM98.441 22.73c.188-.949-1.011-.277-.832-1.218.063-.317.325-.332.957-.512 1.012-.25 1.48-.547 1.743-.71.125-.087.226-.075.324.007.137.117.086.223.055.398l-1.274 6.317c-.25 1.258 1.121.531.934 1.574-.059.316-.547.258-.754.258-.547 0-1.059-.028-1.606-.028-.406 0-.851.028-1.277.028-.293 0-.488.058-.426-.278.192-.968 1.074-.34 1.258-1.242zM99.023 17.875a1.115 1.115 0 1 1 2.231.004 1.115 1.115 0 0 1-2.23-.004M134.738 22.73c.192-.949-1.008-.277-.828-1.218.059-.317.32-.332.953-.512 1.008-.25 1.48-.547 1.739-.71.128-.087.234-.075.328.007.136.117.09.223.054.398l-1.273 6.317c-.25 1.258 1.125.531.934 1.574-.06.316-.543.258-.75.258-.547 0-1.06-.028-1.61-.028-.406 0-.851.028-1.277.028-.29 0-.488.058-.426-.278.188-.968 1.074-.34 1.258-1.242zM135.32 17.875a1.113 1.113 0 1 1 2.227 0 1.114 1.114 0 1 1-2.227 0M150.75 22.73c.188-.949-1.012-.277-.832-1.218.059-.317.32-.332.953-.512 1.012-.25 1.48-.547 1.742-.71.125-.087.23-.075.328.007.133.117.086.223.055.398l-1.273 6.317c-.25 1.258 1.12.531.93 1.574-.055.316-.544.258-.75.258-.548 0-1.06-.028-1.606-.028-.41 0-.852.028-1.281.028-.29 0-.489.058-.422-.278.187-.968 1.074-.34 1.254-1.242zM151.324 17.875a1.116 1.116 0 1 1 2.237.006 1.116 1.116 0 0 1-2.237-.006" style="stroke:none;fill-rule:nonzero;fill:#78132b;fill-opacity:1"/><path d="M55.422 37.578c0-.476.305-.742.715-.742.414 0 .715.266.715.742v4.785h1.699c.484 0 .695.364.683.688a.66.66 0 0 1-.683.629h-2.383c-.469 0-.746-.305-.746-.782zM60.73 41.602c.098.68.66.992 1.297.992.707 0 1.192-.555 1.555-.555.297 0 .563.297.563.59 0 .594-1.22 1.168-2.239 1.168-1.547 0-2.578-1.125-2.578-2.645 0-1.39 1.016-2.66 2.461-2.66 1.488 0 2.469 1.356 2.469 2.5 0 .41-.18.61-.598.61Zm2.157-.914c-.078-.606-.461-1.051-1.098-1.051-.61 0-1.02.468-1.086 1.05zM65.285 39.809h-.305c-.37 0-.601-.23-.601-.598 0-.348.258-.602.601-.602h.305v-.82c0-.46.285-.766.688-.766.398 0 .683.309.683.766v.82h.39c.356 0 .661.16.661.602 0 .426-.305.598-.66.598h-.39v3.168c0 .457-.286.761-.684.761-.403 0-.688-.304-.688-.761zM71.047 39.809h-.305c-.375 0-.605-.23-.605-.598 0-.348.261-.602.605-.602h.305v-.82c0-.46.285-.766.683-.766.403 0 .688.309.688.766v.82h.39c.352 0 .66.16.66.602 0 .426-.308.598-.66.598h-.39v3.168c0 .457-.285.761-.688.761-.398 0-.683-.304-.683-.761zM73.855 37.102c0-.461.286-.762.688-.762s.687.3.687.762v1.867h.02c.285-.352.82-.477 1.246-.477 1.078 0 1.883.688 1.883 1.852v2.633c0 .457-.285.757-.688.757s-.687-.3-.687-.757v-2.395c0-.64-.402-.945-.895-.945-.566 0-.879.41-.879.945v2.395c0 .457-.285.757-.687.757s-.688-.3-.688-.757zM80.5 41.602c.094.68.66.992 1.297.992.707 0 1.195-.555 1.555-.555.296 0 .566.297.566.59 0 .594-1.223 1.168-2.242 1.168-1.547 0-2.578-1.125-2.578-2.645 0-1.39 1.011-2.66 2.465-2.66 1.484 0 2.468 1.356 2.468 2.5 0 .41-.183.61-.601.61Zm2.156-.914c-.074-.606-.457-1.051-1.094-1.051-.613 0-1.023.468-1.09 1.05zM87.492 37.605c0-.457.313-.714.75-.714h1.836c.988 0 1.79.668 1.79 1.68 0 .667-.274 1.117-.884 1.402v.015c.809.117 1.45.793 1.45 1.625 0 1.344-.899 2.067-2.215 2.067h-1.961c-.442 0-.766-.278-.766-.723Zm1.43 1.973h.742c.469 0 .773-.277.773-.754 0-.445-.351-.676-.773-.676h-.742Zm0 2.844h1.125c.516 0 .898-.293.898-.828 0-.45-.343-.754-1.011-.754h-1.012zM94.29 41.602c.093.68.655.992 1.296.992.703 0 1.191-.555 1.55-.555.298 0 .567.297.567.59 0 .594-1.223 1.168-2.242 1.168-1.547 0-2.574-1.125-2.574-2.645 0-1.39 1.011-2.66 2.46-2.66 1.489 0 2.47 1.356 2.47 2.5 0 .41-.18.61-.598.61Zm2.155-.914c-.078-.606-.46-1.051-1.097-1.051-.614 0-1.02.468-1.086 1.05zM103.23 42.84c0 .355 0 .898-.66.898-.398 0-.562-.218-.656-.582-.352.418-.781.64-1.309.64-1.285 0-2.27-1.097-2.27-2.644 0-1.504 1.013-2.66 2.27-2.66.508 0 1 .2 1.31.63a.65.65 0 0 1 .655-.571c.66 0 .66.543.66.894Zm-2.433-.3c.719 0 1.058-.727 1.058-1.388 0-.656-.332-1.398-1.058-1.398-.75 0-1.086.742-1.086 1.398 0 .66.344 1.387 1.086 1.387M104.262 39.238c0-.46.355-.687.703-.687.363 0 .668.133.668.57h.015c.262-.379.54-.57.965-.57.336 0 .668.238.668.734 0 .45-.41.477-.816.668-.414.188-.832.371-.832.914v2.11c0 .457-.285.761-.688.761-.398 0-.683-.304-.683-.761zM110.727 39.809h-.305c-.375 0-.606-.23-.606-.598 0-.348.258-.602.606-.602h.305v-.82c0-.46.285-.766.683-.766.403 0 .692.309.692.766v.82h.386c.352 0 .66.16.66.602 0 .426-.308.598-.66.598h-.386v3.168c0 .457-.29.761-.692.761-.398 0-.683-.304-.683-.761zM118.117 42.84c0 .355 0 .898-.656.898-.402 0-.566-.218-.66-.582-.356.418-.781.64-1.309.64-1.289 0-2.27-1.097-2.27-2.644 0-1.504 1.012-2.66 2.27-2.66.508 0 1 .2 1.309.63a.653.653 0 0 1 .66-.571c.656 0 .656.543.656.894Zm-2.43-.3c.711 0 1.055-.727 1.055-1.388 0-.656-.332-1.398-1.055-1.398-.753 0-1.09.742-1.09 1.398 0 .66.34 1.387 1.09 1.387M119.156 37.102c0-.461.29-.762.688-.762.402 0 .687.3.687.762v3.203l1.508-1.457c.215-.211.438-.297.617-.297.344 0 .582.316.582.62 0 .2-.066.36-.265.544l-1.22 1.086 1.61 1.886a.7.7 0 0 1 .172.458c0 .363-.289.652-.648.652-.25 0-.438-.152-.66-.418l-1.676-2.07h-.02v1.668c0 .457-.285.761-.687.761-.399 0-.688-.304-.688-.761zM125.11 41.602c.1.68.66.992 1.3.992.703 0 1.192-.555 1.555-.555.293 0 .562.297.562.59 0 .594-1.218 1.168-2.242 1.168-1.547 0-2.578-1.125-2.578-2.645 0-1.39 1.012-2.66 2.465-2.66 1.484 0 2.469 1.356 2.469 2.5 0 .41-.18.61-.602.61Zm2.156-.914c-.075-.606-.454-1.051-1.094-1.051-.61 0-1.024.468-1.09 1.05z" style="stroke:none;fill-rule:nonzero;fill:#d44c29;fill-opacity:1"/><g clip-path="url(#a)"><path d="M131.723 39.492a.9.9 0 0 1-.07-.351c0-.344.363-.59.652-.59.332 0 .57.18.683.488l.95 2.582 1.003-2.582c.121-.309.356-.488.688-.488.289 0 .648.246.648.59 0 .144-.015.25-.062.351l-2.297 5.727c-.117.285-.328.543-.652.543-.47 0-.715-.297-.715-.594 0-.133.039-.277.086-.398l.601-1.489z" style="stroke:none;fill-rule:nonzero;fill:#d44c29;fill-opacity:1"/></g><path d="M141.422 41.152c0 1.434-.98 2.645-2.461 2.645-1.477 0-2.457-1.211-2.457-2.645 0-1.39 1.012-2.66 2.457-2.66 1.45 0 2.46 1.27 2.46 2.66m-3.546 0c0 .66.344 1.383 1.086 1.383.746 0 1.09-.722 1.09-1.383 0-.656-.336-1.398-1.09-1.398-.75 0-1.086.742-1.086 1.398M142.191 39.313c0-.454.29-.762.688-.762s.687.308.687.761v2.454c0 .57.43.886.887.886s.887-.316.887-.886v-2.453c0-.454.285-.762.683-.762.407 0 .692.308.692.761v2.481c0 1.223-.813 2.004-2.262 2.004s-2.262-.781-2.262-2.004zM150.766 39.809h-.305c-.371 0-.602-.23-.602-.598 0-.348.258-.602.602-.602h.305v-.82c0-.46.289-.766.687-.766.402 0 .688.309.688.766v.82h.39c.352 0 .66.16.66.602 0 .426-.308.598-.66.598h-.39v3.168c0 .457-.286.761-.688.761-.398 0-.687-.304-.687-.761zM153.574 37.102c0-.461.29-.762.688-.762.402 0 .687.3.687.762v1.867h.02c.289-.352.82-.477 1.25-.477 1.078 0 1.879.688 1.879 1.852v2.633c0 .457-.286.757-.688.757-.398 0-.687-.3-.687-.757v-2.395c0-.64-.399-.945-.895-.945-.562 0-.879.41-.879.945v2.395c0 .457-.285.757-.687.757-.399 0-.688-.3-.688-.757zM160.227 41.602c.09.68.652.992 1.293.992.707 0 1.195-.555 1.554-.555.293 0 .563.297.563.59 0 .594-1.223 1.168-2.242 1.168-1.543 0-2.579-1.125-2.579-2.645 0-1.39 1.016-2.66 2.465-2.66 1.489 0 2.469 1.356 2.469 2.5 0 .41-.18.61-.602.61Zm2.152-.914c-.078-.606-.457-1.051-1.098-1.051-.61 0-1.023.468-1.09 1.05zM164.5 39.238c0-.46.363-.687.707-.687.363 0 .668.133.668.57h.02c.253-.379.53-.57.96-.57.333 0 .665.238.665.734 0 .45-.407.477-.817.668-.406.188-.828.371-.828.914v2.11c0 .457-.29.761-.687.761-.403 0-.688-.304-.688-.761zM168.988 41.602c.102.68.66.992 1.297.992.711 0 1.195-.555 1.559-.555.297 0 .562.297.562.59 0 .594-1.219 1.168-2.242 1.168-1.547 0-2.574-1.125-2.574-2.645 0-1.39 1.008-2.66 2.46-2.66 1.485 0 2.47 1.356 2.47 2.5 0 .41-.18.61-.602.61Zm2.157-.914c-.075-.606-.458-1.051-1.094-1.051-.613 0-1.024.468-1.09 1.05zM173.45 43.055a.75.75 0 0 1 .745-.75.75.75 0 0 1 .746.75.75.75 0 0 1-.746.742.75.75 0 0 1-.746-.742m.059-5.63c0-.402.297-.652.687-.652.383 0 .688.258.688.653v3.672c0 .386-.305.648-.688.648-.39 0-.687-.25-.687-.648z" style="stroke:none;fill-rule:nonzero;fill:#d44c29;fill-opacity:1"/><path d="M34.25 33.727c-1.246.902-2.7 1.84-4.254 2.906l-1.254.86c-1.883 1.3-4.262 1.48-6.695.503-2.465-.988-4.652-2.965-5.047-4.797-.242-1.136-.184-1.824-.102-2.695-1.015.2-1.793-.024-2.296-.285-.957-.496-1.68-1.492-2.016-2.793a10 10 0 0 1-.223-2.031c0-.676.098-1.457.407-2.204a3.09 3.09 0 0 1-1.762-2.789 3.095 3.095 0 0 1 3.344-3.078 2.94 2.94 0 0 1-.426-1.523 3.007 3.007 0 0 1 3.004-3.004c.36 0 .707.066 1.023.183q.019-.352.11-.687c-3.344-3.805-7.899-7.887-12.95-7.887H1.215L12.09 43.82l29.644.004z" style="stroke:none;fill-rule:nonzero;fill:#78132b;fill-opacity:1"/><path d="M18.98 10.727a3.7 3.7 0 0 1 2.622-1.082c.027 0 .054.007.082.007-3.41-4.18-8.594-9.656-14.45-9.656C7.234-.004 2.598 0 0 0l.738 2.684H5.11c5.536 0 10.332 4.105 13.871 8.043M37.434 30.75c-.438.656-1.063 1.29-1.82 1.922l8.269 11.152h3.242c-3.137-4.23-6.504-8.773-9.691-13.074" style="stroke:none;fill-rule:nonzero;fill:#d44c29;fill-opacity:1"/></svg>