<?xml version="1.0" encoding="UTF-8"?>
<svg xmlns="http://www.w3.org/2000/svg" xmlns:xlink="http://www.w3.org/1999/xlink" width="176pt" height="39.35pt" viewBox="0 0 176 39.35" version="1.1">
<defs>
<clipPath id="clip1">
  <path d="M 0 19 L 38 19 L 38 39.351562 L 0 39.351562 Z M 0 19 "/>
</clipPath>
<clipPath id="clip2">
  <path d="M 159 33 L 176 33 L 176 39.351562 L 159 39.351562 Z M 159 33 "/>
</clipPath>
<clipPath id="clip3">
  <path d="M 58 25 L 75 25 L 75 39.351562 L 58 39.351562 Z M 58 25 "/>
</clipPath>
<clipPath id="clip4">
  <path d="M 91 29 L 109 29 L 109 39.351562 L 91 39.351562 Z M 91 29 "/>
</clipPath>
<clipPath id="clip5">
  <path d="M 132 30 L 143 30 L 143 39.351562 L 132 39.351562 Z M 132 30 "/>
</clipPath>
<clipPath id="clip6">
  <path d="M 125 25 L 133 25 L 133 39.351562 L 125 39.351562 Z M 125 25 "/>
</clipPath>
</defs>
<g id="surface1">
<path style=" stroke:none;fill-rule:nonzero;fill:rgb(23.239136%,24.809265%,27.542114%);fill-opacity:1;" d="M 91.871094 2.484375 L 76.890625 2.484375 C 76.679688 2.484375 76.46875 2.652344 76.46875 2.90625 L 76.46875 4.125 C 76.46875 4.335938 76.636719 4.546875 76.890625 4.546875 L 82.277344 4.546875 C 82.488281 4.546875 82.699219 4.714844 82.699219 4.964844 L 82.699219 17.507812 C 82.699219 17.71875 82.867188 17.929688 83.117188 17.929688 L 85.726562 17.929688 C 85.9375 17.929688 86.148438 17.761719 86.148438 17.507812 L 86.148438 4.925781 C 86.148438 4.714844 86.316406 4.503906 86.570312 4.503906 L 91.957031 4.503906 C 92.164062 4.503906 92.378906 4.335938 92.378906 4.082031 L 92.378906 2.90625 C 92.292969 2.652344 92.082031 2.484375 91.871094 2.484375 "/>
<path style=" stroke:none;fill-rule:nonzero;fill:rgb(23.239136%,24.809265%,27.542114%);fill-opacity:1;" d="M 69.988281 8.710938 L 65.148438 8.710938 C 61.90625 8.710938 61.65625 8.289062 61.65625 6.734375 C 61.65625 4.503906 62.789062 4.714844 66.328125 4.714844 C 66.367188 4.714844 74.785156 4.714844 74.785156 4.714844 C 74.996094 4.714844 75.164062 4.546875 75.164062 4.335938 L 75.164062 2.863281 C 75.164062 2.652344 74.996094 2.484375 74.785156 2.484375 L 64.726562 2.484375 C 60.6875 2.484375 58.457031 3.03125 58.457031 6.609375 C 58.457031 10.648438 60.601562 11.027344 66.707031 11.027344 L 69.398438 11.027344 C 71.882812 11.027344 72.511719 11.363281 72.511719 13.132812 C 72.511719 15.195312 71.714844 15.488281 68.851562 15.488281 L 58.582031 15.488281 C 58.371094 15.488281 58.203125 15.65625 58.203125 15.867188 L 58.203125 17.507812 C 58.203125 17.71875 58.371094 17.886719 58.582031 17.886719 L 69.652344 17.886719 C 72.722656 17.886719 75.710938 17.59375 75.710938 13.847656 L 75.710938 12.542969 C 75.753906 9.933594 73.902344 8.710938 69.988281 8.710938 "/>
<path style=" stroke:none;fill-rule:nonzero;fill:rgb(23.239136%,24.809265%,27.542114%);fill-opacity:1;" d="M 120.824219 11.488281 C 120.699219 11.320312 120.65625 11.195312 120.699219 11.109375 C 120.742188 11.070312 120.785156 10.941406 121.078125 10.859375 C 121.121094 10.859375 124.867188 9.890625 124.867188 6.777344 C 124.867188 5.554688 124.066406 4.378906 122.636719 3.492188 C 121.035156 2.527344 119.015625 2.484375 118.765625 2.484375 C 118.597656 2.484375 118.429688 2.441406 118.132812 2.441406 L 109.714844 2.441406 C 109.464844 2.441406 109.253906 2.652344 109.253906 2.90625 L 109.253906 17.382812 C 109.253906 17.59375 109.421875 17.800781 109.675781 17.800781 L 112.242188 17.800781 C 112.449219 17.800781 112.660156 17.632812 112.660156 17.382812 L 112.660156 4.964844 C 112.660156 4.589844 112.957031 4.460938 113.167969 4.460938 L 117.289062 4.460938 C 117.710938 4.460938 118.34375 4.503906 118.765625 4.503906 C 119.1875 4.546875 120.070312 4.671875 120.574219 4.925781 C 121.332031 5.304688 121.753906 5.933594 121.710938 6.691406 C 121.585938 8.5 119.605469 9.046875 118.554688 9.089844 C 117.964844 9.132812 117.375 9.132812 117.121094 9.132812 L 115.691406 9.132812 L 121.414062 17.296875 C 121.625 17.632812 122.046875 17.761719 122.46875 17.761719 L 125.75 17.761719 C 125.664062 17.84375 125.371094 17.464844 120.824219 11.488281 "/>
<path style=" stroke:none;fill-rule:nonzero;fill:rgb(23.239136%,24.809265%,27.542114%);fill-opacity:1;" d="M 169.226562 10.144531 C 169.140625 10.058594 169.140625 9.890625 169.226562 9.804688 C 169.226562 9.804688 174.863281 3.242188 174.90625 3.242188 C 174.988281 3.15625 175.03125 3.074219 175.03125 2.945312 C 175.03125 2.695312 174.820312 2.484375 174.570312 2.484375 L 172.464844 2.484375 C 172.003906 2.484375 171.496094 2.695312 171.285156 2.945312 L 167.328125 7.535156 C 167.289062 7.574219 167.203125 7.617188 167.121094 7.617188 C 167.035156 7.617188 166.953125 7.574219 166.910156 7.535156 L 162.953125 2.945312 C 162.742188 2.695312 162.238281 2.484375 161.773438 2.484375 L 159.714844 2.484375 C 159.460938 2.484375 159.25 2.695312 159.25 2.945312 C 159.25 3.074219 159.292969 3.15625 159.375 3.242188 L 165.015625 9.804688 C 165.101562 9.890625 165.101562 10.058594 165.015625 10.144531 L 158.238281 17.84375 L 161.269531 17.84375 C 161.941406 17.84375 162.238281 17.632812 162.449219 17.382812 L 166.824219 12.289062 C 166.867188 12.207031 166.992188 12.164062 167.078125 12.164062 C 167.160156 12.164062 167.246094 12.207031 167.328125 12.289062 L 171.707031 17.382812 C 171.917969 17.632812 172.210938 17.84375 172.886719 17.84375 L 175.957031 17.84375 L 169.226562 10.144531 "/>
<path style=" stroke:none;fill-rule:nonzero;fill:rgb(23.239136%,24.809265%,27.542114%);fill-opacity:1;" d="M 104.835938 17.886719 L 107.695312 17.886719 L 99.699219 2.820312 C 99.574219 2.609375 99.363281 2.484375 99.070312 2.484375 L 97.132812 2.484375 C 96.878906 2.484375 96.667969 2.609375 96.542969 2.820312 L 88.503906 17.886719 L 91.367188 17.886719 C 91.789062 17.886719 92.164062 17.632812 92.335938 17.296875 C 93.21875 15.488281 97.929688 5.976562 97.929688 5.976562 C 97.972656 5.894531 98.015625 5.851562 98.101562 5.851562 C 98.183594 5.851562 98.226562 5.894531 98.269531 5.933594 C 98.269531 5.933594 103.066406 15.699219 103.867188 17.296875 C 104.035156 17.632812 104.414062 17.886719 104.835938 17.886719 "/>
<path style=" stroke:none;fill-rule:nonzero;fill:rgb(23.239136%,24.809265%,27.542114%);fill-opacity:1;" d="M 140.816406 15.699219 L 130.589844 15.699219 C 130.378906 15.699219 130.167969 15.53125 130.167969 15.277344 L 130.167969 2.863281 C 130.167969 2.652344 130 2.484375 129.789062 2.484375 L 127.183594 2.484375 C 126.972656 2.484375 126.804688 2.652344 126.804688 2.863281 L 126.804688 17.214844 C 126.804688 17.59375 127.097656 17.886719 127.476562 17.886719 L 140.773438 17.886719 C 140.984375 17.886719 141.195312 17.71875 141.195312 17.464844 L 141.195312 16.078125 C 141.195312 15.867188 141.027344 15.699219 140.816406 15.699219 "/>
<path style=" stroke:none;fill-rule:nonzero;fill:rgb(23.239136%,24.809265%,27.542114%);fill-opacity:1;" d="M 157.523438 2.484375 L 154.914062 2.484375 C 154.703125 2.484375 154.535156 2.652344 154.535156 2.863281 L 154.535156 12.414062 C 154.535156 14.433594 152.769531 15.699219 149.90625 15.699219 C 147.046875 15.699219 145.277344 14.433594 145.277344 12.414062 L 145.277344 2.863281 C 145.277344 2.652344 145.109375 2.484375 144.898438 2.484375 L 142.289062 2.484375 C 142.078125 2.484375 141.910156 2.652344 141.910156 2.863281 L 141.910156 12.667969 C 141.910156 15.738281 145.277344 18.011719 149.90625 18.011719 C 154.535156 18.011719 157.902344 15.78125 157.902344 12.667969 L 157.902344 2.863281 C 157.902344 2.652344 157.734375 2.484375 157.523438 2.484375 "/>
<path style=" stroke:none;fill-rule:nonzero;fill:rgb(57.484436%,36.930847%,25.869751%);fill-opacity:1;" d="M 20.789062 16.792969 L 34.59375 2.988281 C 36.066406 1.640625 37.792969 0.546875 39.898438 0 L 26.050781 0 C 25.882812 0 25.714844 0 25.546875 0 C 25.460938 0 25.378906 0 25.292969 0 C 25.25 0 25.167969 0 25.125 0 C 24.703125 0.0429688 24.28125 0.128906 23.820312 0.210938 C 23.777344 0.210938 23.777344 0.210938 23.734375 0.210938 C 23.652344 0.210938 23.566406 0.253906 23.484375 0.253906 C 22.136719 0.589844 20.917969 1.222656 19.90625 2.0625 C 19.613281 2.273438 19.316406 2.527344 19.066406 2.820312 L 2.3125 19.695312 L 13.847656 19.695312 C 16.539062 19.695312 18.980469 18.601562 20.789062 16.792969 "/>
<g clip-path="url(#clip1)" clip-rule="nonzero">
<path style=" stroke:none;fill-rule:nonzero;fill:rgb(49.447632%,43.60199%,25.909424%);fill-opacity:1;" d="M 19.148438 22.558594 L 5.429688 36.277344 C 4 37.625 2.230469 38.71875 0 39.351562 L 13.847656 39.351562 C 14.015625 39.351562 14.183594 39.351562 14.351562 39.351562 C 14.433594 39.351562 14.519531 39.351562 14.601562 39.351562 C 14.644531 39.351562 14.730469 39.351562 14.773438 39.351562 C 15.191406 39.308594 15.613281 39.222656 16.078125 39.140625 C 16.117188 39.140625 16.117188 39.140625 16.160156 39.140625 C 16.246094 39.140625 16.328125 39.097656 16.414062 39.097656 C 17.761719 38.761719 18.980469 38.128906 19.988281 37.289062 C 20.285156 37.035156 20.578125 36.824219 20.832031 36.53125 L 37.625 19.738281 L 26.09375 19.738281 C 23.355469 19.695312 20.917969 20.789062 19.148438 22.558594 "/>
</g>
<path style=" stroke:none;fill-rule:nonzero;fill:rgb(57.484436%,36.930847%,25.869751%);fill-opacity:1;" d="M 43.390625 10.859375 L 43.390625 10.816406 C 43.390625 10.773438 43.429688 10.691406 43.472656 10.691406 C 44.988281 10.226562 49.367188 9.765625 49.367188 9.765625 C 49.367188 9.765625 44.988281 9.46875 43.472656 9.007812 C 43.429688 9.007812 43.390625 8.921875 43.390625 8.878906 L 43.390625 8.839844 C 43.558594 8.332031 44.988281 6.480469 44.988281 6.480469 L 42.675781 8.121094 L 42.632812 8.121094 C 42.546875 8.121094 42.507812 8.082031 42.507812 7.996094 C 42.042969 5.683594 41.707031 1.390625 41.707031 1.347656 C 41.707031 1.390625 41.410156 5.683594 40.90625 7.996094 C 40.90625 8.039062 40.824219 8.121094 40.78125 8.121094 L 40.738281 8.121094 L 38.421875 6.480469 C 38.421875 6.480469 39.8125 8.289062 40.023438 8.796875 L 40.023438 8.839844 C 40.023438 8.878906 39.980469 8.964844 39.9375 8.964844 C 38.421875 9.425781 34.003906 9.765625 34.003906 9.765625 C 34.003906 9.765625 38.382812 10.226562 39.898438 10.691406 C 39.9375 10.691406 39.980469 10.773438 39.980469 10.816406 L 39.980469 10.859375 C 39.8125 11.363281 38.382812 13.046875 38.382812 13.046875 L 40.738281 11.617188 L 40.78125 11.617188 C 40.863281 11.617188 40.90625 11.65625 40.90625 11.742188 C 41.371094 14.058594 41.664062 18.347656 41.664062 18.390625 C 41.664062 18.347656 42 14.058594 42.464844 11.742188 C 42.464844 11.699219 42.546875 11.617188 42.589844 11.617188 L 42.632812 11.617188 L 44.945312 13.046875 C 44.945312 13.046875 43.558594 11.363281 43.390625 10.859375 "/>
<path style=" stroke:none;fill-rule:nonzero;fill:rgb(23.239136%,24.809265%,27.542114%);fill-opacity:1;" d="M 159.714844 30.007812 L 160.554688 30.007812 C 160.808594 30.007812 161.019531 29.839844 161.019531 29.585938 L 161.019531 28.449219 C 161.019531 28.199219 161.230469 27.988281 161.5625 27.988281 L 164.175781 27.988281 C 164.425781 27.988281 164.554688 28.15625 164.46875 28.324219 C 164.46875 28.324219 164.425781 28.367188 164.425781 28.40625 C 162.996094 30.636719 161.902344 31.355469 159.839844 32.828125 L 161.523438 32.828125 C 162.363281 32.828125 162.363281 32.785156 163.417969 31.941406 C 164.59375 30.976562 165.730469 29.628906 166.234375 28.617188 C 166.402344 28.199219 166.488281 28.03125 166.953125 28.03125 L 167.710938 28.03125 C 167.960938 28.03125 168.171875 28.199219 168.171875 28.449219 L 168.171875 31.5625 C 168.171875 31.902344 168.300781 32.195312 168.550781 32.40625 C 168.847656 32.699219 169.265625 32.867188 169.730469 32.867188 C 169.898438 32.867188 170.066406 32.867188 170.191406 32.867188 C 170.863281 32.867188 171.582031 32.867188 172.253906 32.867188 C 172.84375 32.867188 173.433594 32.867188 174.023438 32.867188 C 174.273438 32.867188 174.570312 32.699219 174.652344 32.488281 L 174.988281 31.734375 L 170.316406 31.734375 C 170.109375 31.734375 169.9375 31.5625 169.9375 31.355469 L 169.9375 28.40625 C 169.9375 28.199219 170.148438 27.988281 170.402344 27.988281 L 173.433594 27.988281 C 173.6875 27.988281 173.855469 28.15625 173.855469 28.324219 L 173.855469 29.585938 C 173.855469 29.796875 174.0625 30.007812 174.316406 30.007812 L 175.15625 30.007812 C 175.410156 30.007812 175.621094 29.839844 175.621094 29.585938 L 175.621094 28.492188 C 175.621094 27.945312 175.410156 27.480469 174.949219 27.144531 C 174.652344 26.933594 174.230469 26.808594 173.769531 26.808594 L 169.394531 26.808594 C 169.140625 26.808594 168.847656 26.640625 168.71875 26.429688 L 168.425781 25.96875 C 168.339844 25.757812 168.046875 25.589844 167.792969 25.589844 L 166.742188 25.589844 C 166.488281 25.589844 166.363281 25.757812 166.488281 25.96875 L 166.742188 26.429688 C 166.867188 26.640625 166.742188 26.808594 166.488281 26.808594 L 161.230469 26.808594 C 160.808594 26.808594 160.34375 26.933594 159.964844 27.144531 C 159.585938 27.398438 159.335938 27.777344 159.335938 28.324219 L 159.335938 29.542969 C 159.25 29.796875 159.460938 30.007812 159.714844 30.007812 "/>
<g clip-path="url(#clip2)" clip-rule="nonzero">
<path style=" stroke:none;fill-rule:nonzero;fill:rgb(23.239136%,24.809265%,27.542114%);fill-opacity:1;" d="M 168.804688 38.257812 C 168.550781 38.257812 168.339844 38.085938 168.339844 37.835938 L 168.339844 35.226562 C 168.339844 35.015625 168.550781 34.804688 168.804688 34.804688 L 173.054688 34.804688 C 173.644531 34.804688 173.894531 34.679688 174.0625 34.214844 C 174.191406 33.878906 174.230469 33.667969 174.230469 33.667969 L 161.019531 33.667969 C 160.765625 33.667969 160.554688 33.878906 160.554688 34.089844 L 160.554688 34.382812 C 160.554688 34.59375 160.765625 34.804688 161.019531 34.804688 L 166.152344 34.804688 C 166.402344 34.804688 166.613281 35.015625 166.613281 35.226562 L 166.613281 37.835938 C 166.613281 38.046875 166.402344 38.257812 166.152344 38.257812 L 159.628906 38.257812 C 159.375 38.257812 159.164062 38.464844 159.164062 38.675781 L 159.164062 38.929688 C 159.164062 39.140625 159.375 39.351562 159.628906 39.351562 L 174.820312 39.351562 C 175.410156 39.351562 175.664062 39.222656 175.832031 38.761719 C 175.957031 38.425781 176 38.257812 176 38.257812 L 168.804688 38.257812 "/>
</g>
<g clip-path="url(#clip3)" clip-rule="nonzero">
<path style=" stroke:none;fill-rule:evenodd;fill:rgb(23.239136%,24.809265%,27.542114%);fill-opacity:1;" d="M 71.460938 30.089844 C 71.753906 30.089844 71.921875 29.839844 71.921875 29.628906 L 71.921875 27.230469 C 71.921875 27.019531 71.628906 26.851562 71.375 26.851562 L 61.402344 26.851562 C 61.148438 26.851562 60.898438 27.019531 60.898438 27.273438 L 60.898438 29.671875 C 60.898438 29.921875 61.148438 30.089844 61.402344 30.089844 Z M 67.839844 38.171875 L 74.871094 38.171875 C 74.871094 38.171875 74.742188 38.550781 74.660156 38.84375 C 74.574219 39.140625 74.449219 39.265625 74.195312 39.265625 L 58.539062 39.265625 C 58.289062 39.265625 58.078125 39.054688 58.078125 38.84375 L 58.078125 38.59375 C 58.078125 38.339844 58.289062 38.171875 58.539062 38.171875 L 64.980469 38.171875 C 65.230469 38.171875 65.441406 38.003906 65.441406 37.75 L 65.441406 36.574219 C 65.441406 36.320312 65.230469 36.152344 64.980469 36.152344 L 59.71875 36.152344 C 59.464844 36.152344 59.257812 35.941406 59.257812 35.730469 L 59.257812 35.476562 C 59.257812 35.226562 59.464844 35.058594 59.71875 35.058594 L 64.980469 35.058594 C 65.230469 35.058594 65.441406 34.847656 65.441406 34.636719 L 65.441406 33.753906 C 65.441406 33.5 65.230469 33.332031 64.980469 33.332031 L 61.65625 33.332031 C 61.402344 33.332031 61.105469 33.5 60.980469 33.710938 L 60.519531 34.34375 C 60.390625 34.511719 60.054688 34.679688 59.800781 34.679688 L 58.289062 34.679688 L 60.140625 31.902344 C 60.265625 31.691406 60.558594 31.523438 60.8125 31.523438 L 61.824219 31.523438 C 62.074219 31.523438 62.285156 31.691406 62.035156 32.027344 C 61.863281 32.320312 62.117188 32.28125 62.371094 32.28125 L 65.0625 32.28125 C 65.316406 32.28125 65.527344 32.070312 65.527344 31.859375 L 65.527344 31.394531 C 65.527344 31.1875 65.359375 31.058594 65.148438 31.015625 L 60.898438 31.015625 C 60.265625 31.015625 59.84375 30.847656 59.550781 30.597656 C 59.257812 30.300781 59.128906 29.921875 59.128906 29.5 L 59.128906 27.101562 C 59.128906 26.683594 59.339844 26.34375 59.636719 26.09375 C 59.972656 25.839844 60.390625 25.714844 60.855469 25.714844 L 71.921875 25.714844 C 72.386719 25.714844 72.808594 25.839844 73.144531 26.09375 C 73.4375 26.34375 73.648438 26.722656 73.648438 27.144531 L 73.648438 29.5 C 73.648438 29.964844 73.523438 30.34375 73.1875 30.636719 C 72.890625 30.933594 72.386719 31.101562 71.753906 31.101562 L 67.671875 31.101562 C 67.460938 31.144531 67.292969 31.269531 67.292969 31.480469 L 67.292969 31.941406 C 67.292969 32.195312 67.503906 32.363281 67.757812 32.363281 L 74.027344 32.363281 C 74.027344 32.363281 73.984375 32.53125 73.859375 32.867188 C 73.691406 33.289062 73.523438 33.417969 73.101562 33.457031 C 73.058594 33.457031 67.839844 33.457031 67.800781 33.457031 C 67.546875 33.457031 67.335938 33.667969 67.335938 33.878906 L 67.335938 34.761719 C 67.335938 34.972656 67.546875 35.183594 67.800781 35.183594 L 73.4375 35.183594 C 73.4375 35.183594 73.398438 35.351562 73.269531 35.6875 C 73.101562 36.109375 72.933594 36.234375 72.511719 36.277344 C 72.46875 36.277344 67.882812 36.277344 67.839844 36.277344 C 67.589844 36.277344 67.378906 36.488281 67.378906 36.699219 L 67.378906 37.878906 C 67.378906 38.128906 67.589844 38.296875 67.839844 38.296875 L 67.839844 38.171875 "/>
</g>
<path style=" stroke:none;fill-rule:nonzero;fill:rgb(23.239136%,24.809265%,27.542114%);fill-opacity:1;" d="M 70.617188 27.902344 L 62.117188 27.902344 C 61.78125 27.902344 61.527344 28.15625 61.527344 28.449219 C 61.527344 28.746094 61.78125 28.996094 62.117188 28.996094 L 70.617188 28.996094 C 70.957031 28.996094 71.207031 28.746094 71.207031 28.449219 C 71.207031 28.15625 70.957031 27.902344 70.617188 27.902344 "/>
<path style=" stroke:none;fill-rule:nonzero;fill:rgb(23.239136%,24.809265%,27.542114%);fill-opacity:1;" d="M 92.585938 30.511719 L 93.429688 30.511719 C 93.679688 30.511719 93.890625 30.34375 93.890625 30.089844 L 93.890625 28.535156 C 93.890625 28.324219 94.144531 28.15625 94.355469 28.15625 L 105.972656 28.15625 C 106.222656 28.15625 106.476562 28.324219 106.476562 28.535156 L 106.476562 30.089844 C 106.476562 30.300781 106.6875 30.511719 106.9375 30.511719 L 107.820312 30.511719 C 108.074219 30.511719 108.285156 30.34375 108.285156 30.089844 L 108.285156 28.449219 C 108.285156 28.070312 108.117188 27.734375 107.820312 27.480469 C 107.527344 27.230469 107.105469 27.0625 106.601562 27.0625 L 101.59375 27.0625 C 101.257812 26.722656 100.753906 25.96875 100.753906 25.96875 C 100.625 25.757812 100.332031 25.589844 100.078125 25.589844 L 98.984375 25.589844 C 98.859375 25.589844 98.730469 25.671875 98.730469 25.796875 C 98.730469 25.839844 98.730469 25.882812 98.773438 25.882812 C 99.027344 26.304688 99.320312 26.683594 99.320312 26.683594 C 99.449219 26.894531 99.363281 27.019531 99.109375 27.019531 L 94.144531 27.019531 C 93.511719 27.019531 93.050781 27.144531 92.714844 27.398438 C 92.335938 27.652344 92.164062 28.070312 92.164062 28.535156 L 92.164062 30.089844 C 92.164062 30.300781 92.378906 30.511719 92.585938 30.511719 "/>
<g clip-path="url(#clip4)" clip-rule="nonzero">
<path style=" stroke:none;fill-rule:nonzero;fill:rgb(23.239136%,24.809265%,27.542114%);fill-opacity:1;" d="M 107.105469 33.207031 L 101.679688 33.207031 C 101.425781 33.207031 101.214844 33.039062 101.214844 32.785156 L 101.214844 31.226562 C 101.214844 31.015625 101.382812 30.847656 101.59375 30.808594 L 104.707031 30.808594 C 105.296875 30.808594 105.550781 30.679688 105.71875 30.21875 C 105.84375 29.882812 105.886719 29.671875 105.886719 29.671875 L 94.984375 29.671875 C 94.734375 29.671875 94.523438 29.839844 94.523438 30.089844 L 94.523438 30.34375 C 94.523438 30.554688 94.734375 30.765625 94.984375 30.765625 L 98.984375 30.765625 C 99.234375 30.765625 99.449219 30.933594 99.449219 31.1875 L 99.449219 32.742188 C 99.449219 32.953125 99.234375 33.164062 98.984375 33.164062 L 92.335938 33.164062 C 92.082031 33.164062 91.871094 33.332031 91.871094 33.585938 L 91.871094 33.835938 C 91.871094 34.046875 92.082031 34.257812 92.335938 34.257812 L 98.984375 34.257812 C 99.234375 34.257812 99.449219 34.425781 99.449219 34.679688 L 99.449219 37.792969 C 99.449219 38.046875 99.28125 38.214844 98.941406 38.214844 L 96.839844 38.214844 L 97.257812 38.972656 C 97.425781 39.222656 97.636719 39.351562 97.929688 39.351562 L 99.53125 39.351562 C 99.953125 39.351562 100.371094 39.222656 100.667969 39.011719 C 101.003906 38.804688 101.214844 38.464844 101.214844 38.085938 L 101.214844 34.679688 C 101.214844 34.46875 101.425781 34.257812 101.679688 34.257812 L 107.484375 34.257812 C 108.074219 34.257812 108.328125 34.132812 108.496094 33.667969 C 108.621094 33.332031 108.664062 33.164062 108.664062 33.164062 L 107.105469 33.164062 L 107.105469 33.207031 "/>
</g>
<path style=" stroke:none;fill-rule:nonzero;fill:rgb(23.239136%,24.809265%,27.542114%);fill-opacity:1;" d="M 133.410156 28.871094 L 141.320312 28.871094 C 141.574219 28.871094 141.867188 28.785156 141.996094 28.449219 L 142.246094 27.777344 L 138.796875 27.777344 C 138.796875 27.777344 138.585938 27.777344 138.503906 27.691406 C 138.417969 27.609375 138.375 27.609375 138.335938 27.523438 C 137.953125 26.851562 137.617188 26.007812 137.617188 26.007812 C 137.535156 25.796875 137.238281 25.628906 136.988281 25.628906 L 136.0625 25.628906 C 136.0625 25.628906 135.851562 25.628906 135.808594 25.714844 C 135.765625 25.796875 135.808594 25.925781 135.851562 26.050781 C 136.105469 26.683594 136.398438 27.398438 136.398438 27.398438 C 136.480469 27.609375 136.355469 27.777344 136.105469 27.777344 L 133.410156 27.777344 C 133.15625 27.777344 132.945312 27.945312 132.945312 28.199219 L 132.945312 28.449219 C 132.945312 28.660156 133.15625 28.871094 133.410156 28.871094 "/>
<g clip-path="url(#clip5)" clip-rule="nonzero">
<path style=" stroke:none;fill-rule:nonzero;fill:rgb(23.239136%,24.809265%,27.542114%);fill-opacity:1;" d="M 142.332031 38.214844 L 140.605469 38.214844 C 140.355469 38.214844 140.1875 38.085938 140.1875 37.917969 L 140.1875 31.5625 C 140.1875 31.1875 140.019531 30.890625 139.722656 30.636719 C 139.429688 30.386719 139.007812 30.257812 138.503906 30.257812 L 135.597656 30.257812 C 135.179688 30.257812 134.800781 30.386719 134.546875 30.597656 C 134.253906 30.847656 134.082031 31.144531 134.082031 31.480469 L 134.082031 34.171875 C 134.082031 35.4375 133.957031 37.414062 132.777344 38.929688 C 132.652344 39.054688 132.398438 39.308594 132.398438 39.308594 C 132.398438 39.308594 132.863281 39.308594 133.03125 39.308594 L 134.292969 39.308594 C 134.378906 39.308594 134.460938 39.265625 134.503906 39.222656 C 135.261719 37.960938 135.765625 36.363281 135.765625 34.847656 L 135.765625 31.605469 C 135.765625 31.480469 135.976562 31.355469 136.105469 31.355469 L 138.207031 31.355469 C 138.417969 31.355469 138.542969 31.523438 138.542969 31.648438 L 138.542969 37.75 C 138.542969 38.257812 138.671875 38.59375 138.882812 38.84375 C 139.132812 39.183594 139.597656 39.308594 140.226562 39.308594 L 141.320312 39.308594 C 141.617188 39.308594 141.828125 39.183594 141.953125 38.929688 L 142.164062 38.550781 C 142.246094 38.425781 142.332031 38.214844 142.332031 38.214844 "/>
</g>
<g clip-path="url(#clip6)" clip-rule="nonzero">
<path style=" stroke:none;fill-rule:evenodd;fill:rgb(23.239136%,24.809265%,27.542114%);fill-opacity:1;" d="M 130.84375 28.367188 C 130.84375 28.15625 130.632812 28.03125 130.421875 28.03125 L 128.613281 28.03125 C 128.402344 28.03125 128.191406 28.15625 128.191406 28.324219 L 128.191406 31.691406 C 128.191406 31.941406 128.402344 32.113281 128.652344 32.113281 L 130.378906 32.113281 C 130.632812 32.113281 130.84375 31.902344 130.84375 31.691406 Z M 132.527344 28.03125 L 132.527344 38.296875 C 132.527344 38.632812 132.355469 38.886719 132.105469 39.054688 C 131.8125 39.265625 131.390625 39.351562 131.09375 39.351562 L 129.960938 39.351562 C 129.707031 39.351562 129.328125 39.265625 129.160156 38.972656 C 128.992188 38.675781 128.78125 38.257812 128.78125 38.257812 L 130.507812 38.257812 C 130.757812 38.257812 130.886719 38.085938 130.886719 37.917969 L 130.84375 33.457031 C 130.800781 33.289062 130.632812 33.164062 130.421875 33.164062 L 128.695312 33.164062 C 128.484375 33.164062 128.273438 33.289062 128.234375 33.5 C 128.191406 35.476562 127.980469 37.371094 127.476562 39.222656 C 127.433594 39.308594 127.351562 39.351562 127.265625 39.351562 C 127.140625 39.351562 125.707031 39.351562 125.707031 39.351562 C 125.707031 39.351562 125.792969 39.054688 125.878906 38.804688 C 126.464844 37.121094 126.59375 35.269531 126.632812 33.457031 C 126.632812 33.246094 126.632812 33.164062 126.464844 33.164062 L 126.128906 33.164062 C 125.878906 33.164062 125.707031 32.996094 125.664062 32.742188 C 125.582031 32.488281 125.496094 32.070312 125.496094 32.070312 L 126.464844 32.070312 C 126.675781 32.070312 126.632812 31.941406 126.632812 31.648438 L 126.632812 27.988281 C 126.632812 27.691406 126.761719 27.441406 127.011719 27.230469 C 127.265625 26.976562 127.601562 26.851562 127.9375 26.851562 L 128.527344 26.851562 C 128.570312 26.765625 128.695312 26.472656 128.695312 26.472656 C 128.695312 26.472656 128.863281 26.175781 128.992188 25.796875 C 129.03125 25.757812 129.074219 25.671875 129.117188 25.628906 C 129.199219 25.589844 129.328125 25.589844 129.328125 25.589844 L 130.296875 25.589844 C 130.546875 25.589844 130.675781 25.757812 130.589844 25.96875 C 130.589844 25.96875 130.464844 26.21875 130.339844 26.515625 C 130.296875 26.640625 130.253906 26.765625 130.167969 26.851562 L 130.925781 26.851562 C 131.304688 26.851562 131.683594 26.976562 131.980469 27.1875 C 132.273438 27.355469 132.441406 27.652344 132.527344 28.03125 "/>
</g>
<path style=" stroke:none;fill-rule:nonzero;fill:rgb(23.239136%,24.809265%,27.542114%);fill-opacity:1;" d="M 130.128906 29.542969 L 130.042969 29.25 C 130 29.039062 129.746094 28.828125 129.496094 28.828125 L 128.527344 28.828125 C 128.652344 29.5 128.820312 30.175781 128.992188 30.808594 L 129.03125 30.933594 C 129.074219 31.144531 129.328125 31.355469 129.578125 31.355469 L 130.546875 31.355469 L 130.128906 29.542969 "/>
<path style=" stroke:none;fill-rule:nonzero;fill:rgb(23.239136%,24.809265%,27.542114%);fill-opacity:1;" d="M 130.632812 36.65625 C 130.378906 35.816406 130.339844 35.519531 130.085938 34.511719 L 130 34.214844 C 129.960938 34.003906 129.707031 33.792969 129.453125 33.792969 L 128.484375 33.792969 C 128.570312 34.550781 128.695312 35.351562 128.90625 36.109375 C 128.90625 36.109375 128.949219 36.195312 128.949219 36.234375 C 129.074219 36.53125 129.242188 36.65625 129.496094 36.65625 L 130.632812 36.65625 "/>
</g>
</svg>
