<svg xmlns="http://www.w3.org/2000/svg" width="1166.2" height="877.72" viewBox="0 0 874.65 658.29"><defs><clipPath id="a"><path d="M0 657h4v1.29H0Zm0 0"/></clipPath><clipPath id="b"><path d="M867 45h7.648v11H867Zm0 0"/></clipPath><clipPath id="c"><path d="M862 26h12.648v13H862Zm0 0"/></clipPath></defs><g clip-path="url(#a)"><path d="M.844 657.977h2.23v.312H.844Zm-.844 0h.426v.312H0z" style="stroke:none;fill-rule:nonzero;fill:#393536;fill-opacity:1"/></g><path d="M1.328 656.445a.42.42 0 0 0-.203.36q0 .327.375.445.199.064.52.063.379.001.578-.125a.38.38 0 0 0 .195-.34c0-.22-.121-.38-.363-.47q-.21-.074-.485-.073-.417 0-.617.14m-.406.035q.075-.082.215-.175H.855v-.285h2.04q.426.001.671.101.457.193.457.727 0 .3-.164.5c-.105.132-.277.21-.507.226v-.312a.5.5 0 0 0 .234-.09q.124-.106.125-.328 0-.36-.305-.465-.181-.07-.644-.063a.67.67 0 0 1 .258.223.65.65 0 0 1 .082.344c0 .215-.09.39-.274.535-.183.14-.46.215-.84.215q-.562-.002-.879-.227-.316-.226-.316-.547 0-.216.129-.379M.832 655.555v-.293h.32a.8.8 0 0 1-.28-.278.6.6 0 0 1-.087-.324q0-.392.328-.527c.125-.051.297-.074.524-.074h1.437v.308h-1.41a.9.9 0 0 0-.332.055q-.21.081-.21.297c0 .07.01.133.026.18q.049.128.184.222a.6.6 0 0 0 .23.102q.12.021.336.02h1.176v.312zM2.617 653.168h.457v.355h-.457zM.953 651.406q.182-.195.633-.23v.297a.75.75 0 0 0-.344.125q-.136.1-.137.316 0 .293.352.422.228.082.563.082.333 0 .566-.117.229-.117.23-.367a.37.37 0 0 0-.144-.305.9.9 0 0 0-.39-.156v-.297q.445.048.652.254a.72.72 0 0 1 .207.527.65.65 0 0 1-.32.574q-.324.216-.805.215c-.395 0-.7-.074-.918-.234q-.329-.235-.328-.598c0-.207.058-.375.183-.508M2.547 649.715a1.6 1.6 0 0 0-.629-.117c-.211 0-.379.027-.512.086q-.31.128-.308.449 0 .28.261.41.263.129.637.129.358 0 .594-.129a.43.43 0 0 0 .238-.41.414.414 0 0 0-.281-.418m-1.492-.192c.195-.164.476-.25.851-.25q.541.001.895.22c.234.144.355.366.355.671q0 .377-.316.602-.31.222-.836.222-.569 0-.902-.234a.73.73 0 0 1-.332-.629.76.76 0 0 1 .285-.602M.832 648.91v-.305h.32a1.3 1.3 0 0 1-.242-.199.52.52 0 0 1-.125-.347.5.5 0 0 1 .13-.356.7.7 0 0 1 .222-.137.7.7 0 0 1-.266-.242.57.57 0 0 1-.086-.312q-.002-.369.324-.504a1.2 1.2 0 0 1 .473-.074h1.492v.32H1.52q-.228 0-.31.094a.3.3 0 0 0-.085.222q0 .182.148.317.152.129.497.129h1.304v.316H1.61a1 1 0 0 0-.332.043c-.101.047-.156.137-.156.266q0 .17.168.316.165.14.598.14h1.187v.313z" style="stroke:none;fill-rule:nonzero;fill:#393536;fill-opacity:1"/><path d="M755.633 9.363c15.773-9.71 24.023-6.527 37.351-2.922 7.578 2.051 13.493 3.442 22.016 1.403 0 0-7.719-2.086-17.816-4.82-20.489-5.544-32.051-3.481-41.551 6.34" style="stroke:none;fill-rule:nonzero;fill:#e5067d;fill-opacity:1"/><path d="M757.078 12.344c12.59-7.754 19.176-5.211 29.813-2.332 6.05 1.636 10.773 2.746 17.574 1.117 0 0-6.16-1.664-14.223-3.848-16.355-4.426-25.578-2.773-33.164 5.063" style="stroke:none;fill-rule:nonzero;fill:#99cd21;fill-opacity:1"/><path d="M758.438 15.316c10.046-6.191 15.3-4.16 23.792-1.863 4.829 1.309 8.598 2.192 14.028.89 0 0-4.918-1.327-11.356-3.07-13.05-3.53-20.414-2.214-26.465 4.043" style="stroke:none;fill-rule:nonzero;fill:#4496d8;fill-opacity:1"/><path d="M759.914 18.293c8.02-4.938 12.215-3.32 18.992-1.484 3.856 1.039 6.864 1.746 11.196.71 0 0-3.922-1.062-9.063-2.449-10.418-2.824-16.293-1.77-21.125 3.223" style="stroke:none;fill-rule:nonzero;fill:#254a9e;fill-opacity:1"/><path d="M733.863 29.496v4.598q.002.845.324 1.27.33.42 1.172.421.29 0 .614-.047c.215-.031.394-.082.543-.144l.047 2.89q-.41.145-1.036.254-.627.111-1.254.11-1.204 0-2.023-.305-.82-.3-1.312-.867a3.4 3.4 0 0 1-.711-1.356q-.222-.781-.22-1.75v-5.074h-1.925V26.56h1.902v-3.157h3.88v3.157h2.82v2.937zM746.2 31.184c0-.63-.196-1.164-.587-1.614q-.59-.674-1.773-.675-.576-.002-1.059.18a2.7 2.7 0 0 0-.843.495 2.5 2.5 0 0 0-.583.735q-.212.42-.238.879Zm3.64 1.52v.48c0 .16-.012.312-.024.457h-8.699q.048.508.301.918.256.41.652.71c.262.2.563.36.89.47q.496.165 1.024.167c.625 0 1.157-.113 1.59-.351.434-.23.785-.532 1.063-.903l2.746 1.739a5.6 5.6 0 0 1-2.23 1.89c-.923.438-1.997.664-3.216.664a7.7 7.7 0 0 1-2.554-.425 6.2 6.2 0 0 1-2.11-1.227 5.7 5.7 0 0 1-1.421-1.988q-.516-1.184-.516-2.7 0-1.47.504-2.664a6 6 0 0 1 1.375-2.023 6.1 6.1 0 0 1 2.047-1.29 7 7 0 0 1 2.554-.456q1.326 0 2.434.445c.738.301 1.371.727 1.902 1.29q.798.843 1.243 2.05c.296.8.445 1.719.445 2.746" style="stroke:none;fill-rule:nonzero;fill:#4496d8;fill-opacity:1"/><path d="M773.672 38.258q-1.665.757-3.832.758-1.976.002-3.653-.653a8.55 8.55 0 0 1-2.902-1.843 8.5 8.5 0 0 1-1.926-2.856c-.468-1.105-.699-2.328-.699-3.66q.002-2.052.707-3.711c.477-1.11 1.13-2.055 1.969-2.832a8.6 8.6 0 0 1 2.937-1.793c1.122-.422 2.336-.629 3.637-.629q1.809.002 3.555.637 1.748.643 2.832 1.867L773.5 26.34a3.47 3.47 0 0 0-1.516-1.18 5 5 0 0 0-1.93-.387 4.9 4.9 0 0 0-1.988.399 4.7 4.7 0 0 0-1.55 1.094 4.9 4.9 0 0 0-1.012 1.652 5.8 5.8 0 0 0-.363 2.086q0 1.155.363 2.117.356.967 1 1.652.638.687 1.527 1.075a4.9 4.9 0 0 0 1.953.382c.82 0 1.532-.156 2.145-.48a4.15 4.15 0 0 0 1.469-1.254l2.867 2.7a8.1 8.1 0 0 1-2.793 2.062M784.61 33.328h-.505q-.65 0-1.312.059c-.445.039-.836.12-1.18.23a2.2 2.2 0 0 0-.86.496q-.334.322-.335.856c0 .222.05.418.156.578q.159.241.399.383.24.144.55.207c.211.039.41.058.606.058.805 0 1.418-.218 1.844-.664q.635-.662.636-1.793Zm-7.255-5.133a6.9 6.9 0 0 1 2.47-1.515 8.4 8.4 0 0 1 2.878-.508c1.016 0 1.871.121 2.57.375q1.05.373 1.7 1.156.65.78.949 1.977c.203.793.3 1.738.3 2.832v6.047h-3.613V37.28h-.074c-.305.496-.762.883-1.383 1.157q-.927.41-2.011.41-.726-.001-1.493-.196a4.4 4.4 0 0 1-1.414-.625 3.44 3.44 0 0 1-1.047-1.156q-.41-.72-.41-1.781 0-1.305.715-2.102.71-.79 1.828-1.23a10 10 0 0 1 2.492-.574 25 25 0 0 1 2.676-.145v-.191c0-.594-.207-1.035-.625-1.313-.418-.281-.93-.426-1.543-.426a3.8 3.8 0 0 0-1.625.364 5.3 5.3 0 0 0-1.34.867zM843.879 31.184c0-.63-.2-1.164-.594-1.614-.394-.449-.98-.675-1.77-.675q-.578-.002-1.058.18a2.7 2.7 0 0 0-.844.495 2.4 2.4 0 0 0-.578.735 2.15 2.15 0 0 0-.242.879Zm3.637 1.52v.48q0 .24-.024.457h-8.699q.048.508.3.918t.65.71a3.2 3.2 0 0 0 1.917.637c.63 0 1.156-.113 1.594-.351q.644-.346 1.058-.903l2.747 1.739a5.57 5.57 0 0 1-2.23 1.89c-.923.438-1.993.664-3.22.664-.894 0-1.75-.144-2.55-.425a6.2 6.2 0 0 1-2.11-1.227 5.7 5.7 0 0 1-1.422-1.988q-.515-1.184-.515-2.7 0-1.47.504-2.664a6 6 0 0 1 1.375-2.023 6.1 6.1 0 0 1 2.047-1.29 7 7 0 0 1 2.55-.456q1.33 0 2.438.445c.738.301 1.375.727 1.902 1.29q.796.843 1.242 2.05c.297.8.446 1.719.446 2.746M856.309 33.328h-.504q-.65 0-1.313.059c-.441.039-.836.12-1.183.23a2.2 2.2 0 0 0-.852.496q-.34.322-.34.856c0 .222.055.418.156.578q.159.241.399.383.24.144.555.207c.207.039.41.058.601.058.805 0 1.418-.218 1.844-.664q.638-.662.637-1.793Zm-7.254-5.133a6.95 6.95 0 0 1 2.472-1.515 8.4 8.4 0 0 1 2.88-.508c1.015 0 1.866.121 2.566.375q1.048.373 1.699 1.156.649.78.953 1.977.3 1.19.3 2.832v6.047h-3.616V37.28h-.07c-.305.496-.77.883-1.384 1.157a4.95 4.95 0 0 1-2.015.41q-.722-.001-1.492-.196a4.4 4.4 0 0 1-1.41-.625 3.4 3.4 0 0 1-1.051-1.156c-.27-.48-.41-1.074-.41-1.781q0-1.305.714-2.102.709-.79 1.829-1.23a10 10 0 0 1 2.496-.574 25 25 0 0 1 2.675-.145v-.191c0-.594-.21-1.035-.629-1.313-.417-.281-.93-.426-1.539-.426-.562 0-1.109.121-1.628.364-.52.242-.97.53-1.336.867zM815.441 45.79l-1.57 4.23h3.102Zm3.305 9.034-.957-2.418h-4.77l-.906 2.418h-3.238l5.172-12.324h2.89l5.118 12.324zM845.434 54.824h-2.871l-1.708-5.394h-.035l-1.668 5.394h-2.875l-2.992-8.672h3.078l1.496 5.485h.055l1.55-5.485h2.872l1.601 5.485h.036l1.511-5.485h2.961zM854.242 51.047h-.367q-.466.001-.945.043a3.8 3.8 0 0 0-.856.164q-.371.121-.613.36a.82.82 0 0 0-.246.616c0 .165.035.301.113.418a.9.9 0 0 0 .285.278q.174.105.403.148c.148.031.297.043.433.043q.871 0 1.332-.48.462-.474.461-1.293Zm-5.238-3.707a5 5 0 0 1 1.785-1.098 6 6 0 0 1 2.078-.367q1.101 0 1.856.27.757.271 1.226.835.47.57.688 1.43c.144.57.218 1.254.218 2.043v4.371h-2.613v-.922h-.05q-.331.539-1 .836c-.45.196-.93.297-1.454.297-.351 0-.707-.05-1.082-.14a3.2 3.2 0 0 1-1.015-.454 2.4 2.4 0 0 1-.758-.836q-.298-.52-.297-1.289 0-.937.516-1.515.51-.57 1.32-.887a7.2 7.2 0 0 1 1.805-.418c.66-.07 1.304-.101 1.93-.101v-.141q.001-.644-.454-.95-.451-.303-1.11-.304-.616-.001-1.179.262-.568.262-.965.625z" style="stroke:none;fill-rule:nonzero;fill:#254a9e;fill-opacity:1"/><g clip-path="url(#b)"><path d="M873.078 48.715a3.1 3.1 0 0 0-.816-.559 2.24 2.24 0 0 0-.992-.226q-.398-.002-.743.156a.56.56 0 0 0-.34.539q0 .367.375.523.374.16 1.211.348.487.104.985.297c.328.129.629.297.894.504.266.21.485.465.645.766.164.304.246.66.246 1.082 0 .546-.11 1.003-.332 1.382q-.33.563-.86.914c-.355.23-.753.403-1.195.504a5.7 5.7 0 0 1-1.32.157c-.711 0-1.402-.11-2.082-.34q-1.02-.337-1.7-1l1.606-1.688q.381.419.938.696.556.28 1.183.28.346-.002.688-.167.34-.166.34-.582.002-.404-.418-.59-.418-.199-1.305-.402a6.5 6.5 0 0 1-.906-.282c-.301-.113-.57-.273-.809-.468a2.35 2.35 0 0 1-.586-.73q-.222-.434-.222-1.048 0-.782.328-1.328a2.8 2.8 0 0 1 .851-.898q.528-.347 1.16-.512a4.9 4.9 0 0 1 1.262-.168q.976 0 1.906.305a4.1 4.1 0 0 1 1.575.914z" style="stroke:none;fill-rule:nonzero;fill:#254a9e;fill-opacity:1"/></g><path d="M712.914 21.871a2.173 2.173 0 0 0-1.207-1.145 2.3 2.3 0 0 0-.879-.167q-.48-.002-.89.18a2.6 2.6 0 0 0-.723.468q-.315.29-.485.688c-.109.265-.168.543-.168.832q.002.891.653 1.53.65.636 1.613.638c.305 0 .602-.055.879-.168q.422-.17.723-.457a2.2 2.2 0 0 0 .484-.688c.117-.266.18-.55.18-.855 0-.309-.063-.59-.18-.856M708.852 34.695c0 .024-.004.047-.004.075 0 .023.004.05.004.078.02 1.007.394 1.875 1.136 2.597.754.742 1.696 1.11 2.817 1.11V26.559h-3.953z" style="stroke:none;fill-rule:nonzero;fill:#4496d8;fill-opacity:1"/><path d="M803.238 21.871a2.3 2.3 0 0 0-.48-.687 2.2 2.2 0 0 0-.727-.457 2.3 2.3 0 0 0-.879-.168c-.316 0-.617.058-.89.18a2.6 2.6 0 0 0-.723.468 2 2 0 0 0-.48.688 2.1 2.1 0 0 0-.168.832q-.001.891.648 1.53c.438.423.973.638 1.613.638a2.3 2.3 0 0 0 .88-.168c.284-.114.523-.266.726-.457.199-.196.36-.422.48-.688a2 2 0 0 0 .184-.855c0-.309-.063-.59-.184-.856M799.18 34.695c0 .024-.004.047-.004.075 0 .023.004.05.004.078q.024 1.512 1.133 2.597 1.134 1.111 2.82 1.11V26.559h-3.953zM825.46 42.77a1.6 1.6 0 0 0-.35-.497 1.6 1.6 0 0 0-.52-.332 1.7 1.7 0 0 0-.637-.12c-.234 0-.445.042-.644.132-.196.082-.371.2-.524.336a1.48 1.48 0 0 0-.469 1.098q0 .644.47 1.105c.316.309.702.461 1.167.461q.328-.002.637-.121a1.6 1.6 0 0 0 .52-.332 1.7 1.7 0 0 0 .35-.496q.13-.288.13-.617a1.5 1.5 0 0 0-.13-.617M822.523 52.031c0 .02-.003.035-.003.055q.002.03.003.059c.016.726.286 1.355.82 1.875.548.539 1.227.804 2.036.804v-8.672h-2.856z" style="stroke:none;fill-rule:nonzero;fill:#254a9e;fill-opacity:1"/><path d="M726.215 27.773a3.95 3.95 0 0 0-1.363-1.12q-.846-.435-2.047-.434-.627.002-1.184.168a5.4 5.4 0 0 0-1.023.437 3.3 3.3 0 0 0-.817.637 4.2 4.2 0 0 0-.57.758h-.047v-1.664h-3.828v8.195c0 1.047.383 1.945 1.14 2.691.762.746 1.708 1.114 2.833 1.114V32.05q.001-.503.132-.977c.012-.043.036-.082.047-.12.086-.263.2-.505.352-.712.176-.238.398-.43.664-.562.266-.14.57-.207.926-.207.351 0 .648.066.879.207.234.133.414.32.543.55q.193.352.277.81.084.455.086.964v6.55h3.972v-7.417q.001-.896-.226-1.785a4.5 4.5 0 0 0-.746-1.579M759.273 26.242a5 5 0 0 0-.468-.023c-.742 0-1.39.195-1.953.582q-.845.586-1.301 1.508h-.051V26.57h-3.805v8.118c0 .027-.004.054-.004.082 0 .03.004.054.004.085q.031 1.507 1.133 2.59 1.136 1.111 2.817 1.11v-6.153c0-.238.05-.52.148-.836.059-.199.148-.386.254-.566a2 2 0 0 1 .215-.324 2.65 2.65 0 0 1 .867-.696q.54-.29 1.336-.289c.16 0 .328.008.496.024q.252.023.516.094l.171-3.493a2 2 0 0 0-.375-.074" style="stroke:none;fill-rule:nonzero;fill:#4496d8;fill-opacity:1"/><path d="M797.77 26.242a5 5 0 0 0-.47-.023q-1.113 0-1.952.582-.844.586-1.301 1.508h-.05V26.57h-3.81v8.285000000000002c.028 1.004.403 1.868 1.137 2.59.754.742 1.7 1.11 2.82 1.11v-6.153c0-.238.047-.52.145-.836.059-.199.149-.386.254-.566a2.6 2.6 0 0 1 .215-.324 2.65 2.65 0 0 1 .867-.696c.363-.195.805-.289 1.336-.289.16 0 .328.008.496.024q.252.023.516.094l.168-3.493a2 2 0 0 0-.371-.074M832.68 45.93a3 3 0 0 0-.336-.02q-.802 0-1.41.422-.61.416-.942 1.086h-.035v-1.254h-2.746v5.863a.3.3 0 0 0-.008.059q.001.032.008.062.019 1.091.816 1.872c.547.539 1.227.804 2.035.804V50.38q0-.265.106-.606c.043-.144.11-.277.184-.41.05-.078.093-.16.156-.234q.233-.293.625-.504c.262-.137.586-.21.969-.21q.169.002.355.023c.121.007.242.03.375.066l.121-2.524a1.3 1.3 0 0 0-.273-.05M809.664 24.121c0-.016-.004-.027-.008-.043v.082q.007-.022.008-.039" style="stroke:none;fill-rule:nonzero;fill:#254a9e;fill-opacity:1"/><path d="M815.047 33.652q-.18.568-.543 1-.357.435-.89.703a2.8 2.8 0 0 1-1.231.262c-.45 0-.852-.09-1.203-.262a2.9 2.9 0 0 1-.903-.703 3.1 3.1 0 0 1-.582-.988 3.3 3.3 0 0 1-.203-1.129q.002-.58.203-1.133a3.1 3.1 0 0 1 .582-.992c.246-.285.547-.52.903-.695q.528-.268 1.203-.266c.465 0 .875.086 1.23.266q.534.265.89.687.364.422.544.977a3.7 3.7 0 0 1 0 2.273m3.59-3.539a6.3 6.3 0 0 0-1.13-2.011 5.3 5.3 0 0 0-1.784-1.375q-1.053-.509-2.352-.508-1.324-.001-2.242.508-.913.504-1.422 1.109h-.047v-3.758a3.5 3.5 0 0 0-.312-1.445 4 4 0 0 0-.844-1.203 4 4 0 0 0-1.258-.797 4.1 4.1 0 0 0-1.535-.293v18.219h3.637v-1.57h.05q.576.918 1.649 1.41a5.3 5.3 0 0 0 2.277.496q1.349.001 2.41-.532a5.5 5.5 0 0 0 1.793-1.41 6.1 6.1 0 0 0 1.121-2.035q.385-1.157.383-2.406.002-1.255-.394-2.399M829.719 33.652a2.795 2.795 0 0 1-1.434 1.703 2.8 2.8 0 0 1-1.226.262c-.45 0-.852-.09-1.204-.262a2.9 2.9 0 0 1-.906-.703 3.2 3.2 0 0 1-.578-.988 3.2 3.2 0 0 1-.203-1.129q-.001-.58.203-1.133.204-.557.578-.992c.25-.285.551-.52.906-.695q.529-.268 1.204-.266c.464 0 .875.086 1.226.266q.533.265.895.687c.238.282.422.606.539.977.12.367.183.742.183 1.133q0 .576-.183 1.14m3.593-3.539a6.2 6.2 0 0 0-1.132-2.011 5.3 5.3 0 0 0-1.785-1.375q-1.052-.509-2.348-.508c-.883 0-1.633.168-2.242.508q-.913.504-1.422 1.109h-.047v-3.758c-.008-.512-.11-1-.316-1.445a3.9 3.9 0 0 0-.84-1.203 4 4 0 0 0-1.258-.797 4.1 4.1 0 0 0-1.54-.293v18.219h3.641v-1.57h.047c.387.613.934 1.081 1.653 1.41.71.331 1.472.496 2.273.496q1.349.001 2.41-.532a5.45 5.45 0 0 0 1.793-1.41 6.1 6.1 0 0 0 1.121-2.035q.388-1.157.39-2.406 0-1.255-.398-2.399" style="stroke:none;fill-rule:nonzero;fill:#254a9e;fill-opacity:1"/><g clip-path="url(#c)"><path d="M873.887 29.352a4.4 4.4 0 0 0-.746-1.579 3.9 3.9 0 0 0-1.36-1.12q-.844-.435-2.047-.434c-.422 0-.812.058-1.183.168q-.555.175-1.024.433c-.312.18-.586.39-.82.64a4.2 4.2 0 0 0-.566.759h-.047v-1.664h-3.832v8.195c0 1.047.383 1.941 1.144 2.691.758.746 1.707 1.114 2.832 1.114V32.05q-.001-.503.133-.977c.012-.043.031-.082.047-.12.086-.259.2-.505.352-.712.175-.238.394-.43.66-.566q.403-.204.93-.203.526-.001.878.203c.23.137.414.324.543.554q.188.352.278.81c.054.308.082.624.082.964v6.55h3.976v-7.417q-.001-.896-.23-1.785" style="stroke:none;fill-rule:nonzero;fill:#254a9e;fill-opacity:1"/></g><path d="M864.945 46.152c-.554.418-.949 1.055-1.265 1.985l-1.117 3.586h-.047l-1.934-5.57h-3.172l3.625 8.53-.281.715q-.21.558-.504.864c-.2.203-.516.304-.957.304a3 3 0 0 1-.465-.043 4 4 0 0 1-.457-.113l-.316 2.403q.315.082.742.136.423.052.824.051c.547 0 1.024-.062 1.418-.187a3 3 0 0 0 1.047-.57c.297-.25.55-.548.766-.903q.322-.533.586-1.211l4.136-10.633c-1.168 0-2 .188-2.629.656" style="stroke:none;fill-rule:nonzero;fill:#254a9e;fill-opacity:1"/></svg>