<svg xmlns="http://www.w3.org/2000/svg" width="176pt" height="16.32" viewBox="0 0 176 12.24"><defs><clipPath id="a"><path d="M30 1h10v11.238H30Zm0 0"/></clipPath><clipPath id="b"><path d="M42 1h11v11.238H42Zm0 0"/></clipPath><clipPath id="c"><path d="M96 1h11v11.238H96Zm0 0"/></clipPath><clipPath id="d"><path d="M115 1h11v11.238h-11Zm0 0"/></clipPath><clipPath id="e"><path d="M56 1h8v11.238h-8Zm0 0"/></clipPath><clipPath id="f"><path d="M67 1h4v11.238h-4Zm0 0"/></clipPath><clipPath id="g"><path d="M73 1h10v11.238H73Zm0 0"/></clipPath><clipPath id="h"><path d="M85 1h10v11.238H85Zm0 0"/></clipPath><clipPath id="i"><path d="M129 1h4v11.238h-4Zm0 0"/></clipPath><clipPath id="j"><path d="M137 0h9v12.238h-9Zm0 0"/></clipPath></defs><path d="M12.555 7.617c-3.512 0-6.36-1.617-6.36-3.61h19.493l-.625 3.61z" style="stroke:none;fill-rule:nonzero;fill:#292827;fill-opacity:1"/><path d="M6.602 4.375c.347 1.594 2.933 2.879 5.953 2.879h12.199l.5-2.879Zm18.77 3.61H12.554c-3.774 0-6.727-1.747-6.727-3.977V3.64h20.293z" style="stroke:none;fill-rule:nonzero;fill:#856030;fill-opacity:1"/><path d="M6.727 3.973c-3.512 0-6.36-1.618-6.36-3.61h26.067l-.622 3.61z" style="stroke:none;fill-rule:nonzero;fill:#292827;fill-opacity:1"/><path d="M.773.73c.348 1.594 2.934 2.875 5.954 2.875h18.777L26 .73Zm25.348 3.61H6.727C2.953 4.34 0 2.594 0 .363v-.367h26.871z" style="stroke:none;fill-rule:nonzero;fill:#856030;fill-opacity:1"/><path d="M18.418 11.277c-3.516 0-6.363-1.613-6.363-3.609h12.89l-.625 3.61z" style="stroke:none;fill-rule:nonzero;fill:#292827;fill-opacity:1"/><path d="M12.46 8.035c.349 1.594 2.935 2.88 5.958 2.88h5.594l.5-2.88Zm12.169 3.61h-6.211c-3.773 0-6.73-1.747-6.73-3.977v-.367h13.69z" style="stroke:none;fill-rule:nonzero;fill:#856030;fill-opacity:1"/><path d="m150.938 7.66-.625-3.61h19.492c0 1.993-2.848 3.61-6.36 3.61z" style="stroke:none;fill-rule:nonzero;fill:#292827;fill-opacity:1"/><path d="m150.746 4.418.5 2.875h12.2c3.019 0 5.605-1.281 5.952-2.875Zm-.867-.734h20.293v.367c0 2.23-2.953 3.976-6.727 3.976H150.63z" style="stroke:none;fill-rule:nonzero;fill:#856030;fill-opacity:1"/><path d="m150.188 4.016-.625-3.61h26.07c0 1.992-2.848 3.61-6.36 3.61z" style="stroke:none;fill-rule:nonzero;fill:#292827;fill-opacity:1"/><path d="m150 .77.496 2.878h18.777c3.024 0 5.606-1.28 5.957-2.878Zm-.871-.73H176v.366c0 2.23-2.953 3.977-6.727 3.977h-19.39z" style="stroke:none;fill-rule:nonzero;fill:#856030;fill-opacity:1"/><path d="m151.68 11.32-.625-3.61h12.89c0 1.993-2.847 3.61-6.363 3.61z" style="stroke:none;fill-rule:nonzero;fill:#292827;fill-opacity:1"/><path d="m151.488 8.078.5 2.875h5.594c3.023 0 5.61-1.281 5.957-2.875Zm-.867-.734h13.691v.367c0 2.23-2.957 3.976-6.73 3.976h-6.21z" style="stroke:none;fill-rule:nonzero;fill:#856030;fill-opacity:1"/><g clip-path="url(#a)"><path d="M30.168 1.02h2.516v4.96h.05c.25-.433.516-.832.766-1.23l2.547-3.73h3.113l-3.715 4.777 3.914 6.441h-2.964l-2.747-4.843-.964 1.183v3.66h-2.516z" style="stroke:none;fill-rule:nonzero;fill:#856030;fill-opacity:1"/></g><g clip-path="url(#b)"><path d="m49.402 10.11-2.101-7.192-2.57 9.32h-2.442L45.72 1.02h3.328l3.48 11.218h-2.73l-4.324-.02.601-2.109z" style="stroke:none;fill-rule:nonzero;fill:#856030;fill-opacity:1"/></g><g clip-path="url(#c)"><path d="m103.457 10.11-2.102-7.192-2.57 9.32h-2.441l3.43-11.218h3.331l3.477 11.218h-2.73l-4.325-.02.602-2.109z" style="stroke:none;fill-rule:nonzero;fill:#856030;fill-opacity:1"/></g><g clip-path="url(#d)"><path d="m122.723 10.11-2.106-7.192-2.566 9.32h-2.442l3.43-11.218h3.328l3.48 11.218h-2.73l-4.324-.02.598-2.109z" style="stroke:none;fill-rule:nonzero;fill:#856030;fill-opacity:1"/></g><g clip-path="url(#e)"><path d="M56.523 1.02h2.547v9.09h4.461v2.128h-7.008z" style="stroke:none;fill-rule:nonzero;fill:#856030;fill-opacity:1"/></g><g clip-path="url(#f)"><path d="M70.074 1.02v11.218h-2.547V1.02z" style="stroke:none;fill-rule:nonzero;fill:#856030;fill-opacity:1"/></g><g clip-path="url(#g)"><path d="M76.934 3.148h-3.012V1.02h8.621v2.128H79.48v9.09h-2.546z" style="stroke:none;fill-rule:nonzero;fill:#856030;fill-opacity:1"/></g><g clip-path="url(#h)"><path d="M88.922 3.148h-3.016V1.02h8.625v2.128H91.47v9.09h-2.547z" style="stroke:none;fill-rule:nonzero;fill:#856030;fill-opacity:1"/></g><g clip-path="url(#i)"><path d="M132.426 1.02v11.218h-2.547V1.02z" style="stroke:none;fill-rule:nonzero;fill:#856030;fill-opacity:1"/></g><g clip-path="url(#j)"><path d="M139.633 5.996h1c1.262 0 2.012-.633 2.012-1.613 0-1.035-.7-1.551-1.864-1.567-.617 0-.965.051-1.148.082Zm-2.516-4.828c.817-.133 2.031-.234 3.38-.234 1.667 0 2.831.25 3.632.882.664.536 1.031 1.317 1.031 2.348 0 1.434-1.015 2.414-1.98 2.766v.05c.78.317 1.215 1.063 1.496 2.098.351 1.266.699 2.73.918 3.16h-2.598c-.184-.316-.45-1.23-.781-2.613-.3-1.398-.785-1.781-1.817-1.797h-.765v4.41h-2.516z" style="stroke:none;fill-rule:nonzero;fill:#856030;fill-opacity:1"/></g><path d="M30.36.254h2.515v4.96h.05c.25-.433.516-.831.766-1.234L36.238.254h3.114L35.64 5.03l3.91 6.442h-2.965L33.84 6.629l-.965 1.18v3.664h-2.516zM49.594 9.344l-2.102-7.196-2.57 9.325H42.48L45.91.253h3.328l3.48 11.22h-2.73l-4.324-.02.602-2.11zM103.648 9.344l-2.101-7.196-2.57 9.325h-2.442l3.43-11.22h3.332l3.476 11.22h-2.73l-4.324-.02.601-2.11zM122.914 9.344l-2.102-7.196-2.57 9.325h-2.441l3.43-11.22h3.328l3.48 11.22h-2.73l-4.325-.02.598-2.11zM56.715.254h2.547v9.09h4.46v2.129h-7.007zM70.266.254v11.219h-2.547V.253zM77.125 2.383h-3.012V.253h8.625v2.13h-3.066v9.09h-2.547zM89.113 2.383h-3.015V.253h8.625v2.13H91.66v9.09h-2.547zM132.613.254v11.219h-2.547V.253zM139.824 5.23h1c1.266 0 2.016-.632 2.016-1.617 0-1.031-.7-1.547-1.867-1.562-.618 0-.965.05-1.149.082ZM137.312.402c.813-.132 2.032-.234 3.375-.234 1.668 0 2.833.25 3.633.883.664.531 1.032 1.316 1.032 2.347 0 1.434-1.016 2.415-1.98 2.762v.05c.78.317 1.214 1.067 1.495 2.099.352 1.265.7 2.73.918 3.164h-2.597c-.184-.317-.45-1.23-.786-2.614-.297-1.398-.78-1.78-1.812-1.796h-.766v4.41h-2.512z" style="stroke:none;fill-rule:nonzero;fill:#292827;fill-opacity:1"/></svg>