<svg xmlns="http://www.w3.org/2000/svg" width="176pt" height="55.627" viewBox="0 0 176 41.72"><defs><clipPath id="a"><path d="M1 34h26v7.719H1Zm0 0"/></clipPath></defs><path d="M15.293 20.973q3.927.586 7.844 1.18c.425 1.05.808 2 1.234 3.046-.379.051-.64.113-.902.117-1.043.012-2.082-.02-3.125.016-2.309.078-4.621.188-6.938.438.328.02.66.035.989.066 2.18.203 4.378.187 6.535.664 1.125.246 2.277.375 3.418.559.535.09.984.28 1.21.847.731 1.844 1.481 3.68 2.258 5.602h-2.812c-3.438 0-6.856.187-10.266.68-2.297.332-4.547.785-6.765 1.457-2.313.699-4.477 1.675-6.47 3.039-.855.582-1.421.308-1.487-.723-.024-.395-.036-.82.086-1.188.593-1.77 1.234-3.527 1.87-5.328.356.672.669 1.254 1.005 1.89.617-.378.648-.788.402-1.273-.09-.18-.172-.37-.305-.515-.875-.965-.836-1.992-.289-3.094.516-1.035.977-2.098 1.469-3.144.168-.352.355-.7.566-1.11.293.668.547 1.254.809 1.852 1.012-.578 1.125-.961.613-1.817-.082-.136-.176-.265-.242-.41-.488-1.031-.07-2.117 1.027-2.527.703-.262 1.446-.426 2.27-.66.207-.438.183-.864-.375-1.219-.29-.184-.504-.484-.742-.719.383-1.062 1.582-.656 2.129-1.43-.051-.433-.434-.761-.657-1.164-.386-.69-.328-.894.399-1.12.34-.11.703-.157 1.043-.274.406-.14.535-.48.351-.86-.09-.175-.234-.324-.336-.496-.082-.136-.136-.289-.187-.394.144-.434.27-.84.414-1.234.11-.301.242-.59.379-.88.34-.718.738-1.413 1.015-2.156.235-.613.563-.918 1.239-.875.636.043 1.277.008 2.023.008.817 1.633 1.68 3.258 2.258 5.098-.18.371-.39.797-.594 1.223.188.496.606.585 1.055.675.379.075.742.239 1.25.407-.379.746-.715 1.406-1.106 2.183.657.266 1.336.543 1.997.813.222.75-.07 1.3-.48 1.816-.263.324-.575.508-1.024.523-1.075.04-2.149.137-3.223.208q-.414.029-.824.05-.004.076-.008.153" style="stroke:none;fill-rule:nonzero;fill:#c88726;fill-opacity:1"/><g clip-path="url(#a)"><path d="m7.602 41.719-5.649-1.73a20.2 20.2 0 0 1 4.004-2.313 31.3 31.3 0 0 1 5.68-1.852c1.707-.39 3.453-.594 5.183-.867 2.934-.465 5.89-.527 8.852-.465.195.004.39.02.598.149-.278.023-.555.066-.829.062-1.527-.027-3.02.277-4.523.461q-3.343.405-6.523 1.477c-1.82.617-3.625 1.328-4.985 2.761-.625.66-1.125 1.434-1.808 2.317" style="stroke:none;fill-rule:nonzero;fill:#c88726;fill-opacity:1"/></g><path d="M19.21 10.215c-.44-.945-.792-1.703-1.136-2.438C19.852 5.484 21.262 3.078 21.566 0c.672 1.25 1.223 2.336 1.825 3.395 2.066 3.632 4.793 6.68 8.195 9.109 1.879 1.344 3.262 3.082 3.984 5.27.489 1.484.72 3.023.356 4.601-.156.688-.211 1.402-.313 2.105a5 5 0 0 0-.246-.02c.031-.405.031-.815.102-1.21.324-1.828.015-3.574-.653-5.273-.8-2.04-2.285-3.524-3.957-4.875-1.894-1.54-3.562-3.317-5.172-5.153-1.433-1.633-2.55-3.472-3.69-5.437-.934 2.582-1.829 5.05-2.786 7.703M29.852 33.52l-1.399-3.06c1.418-1.94 2.867-3.929 4.32-5.917.836 1.59-.75 6.277-2.921 8.977M26.95 27l-.762-1.496c1.078-1.527 2.148-3.047 3.242-4.598.164.89.008 1.633-.758 3.114-.485.94-1.059 1.835-1.723 2.98M27.957 29.215c-.227-.422-.371-.692-.547-1.027l3.688-5.168c-.36 2.382-1.743 4.203-3.141 6.195M27.863 19.375c-.12 1.863-.941 3.352-2.191 4.73-.379-.453-.55-.855-.188-1.363.797-1.12 1.586-2.242 2.38-3.367M24.555 21.934c-.18-.43-.325-.782-.512-1.235l2.293-3.125c-.016 1.801-.645 3.13-1.781 4.36M22.844 18.328c.578-.777 1.136-1.531 1.73-2.324.324 1.129.13 1.73-1.113 3.488-.211-.398-.402-.762-.617-1.164M22.766 13.957c.144 1.113.254 2.043-.407 2.875-.875-.965-.957-1.453.407-2.875" style="stroke:none;fill-rule:nonzero;fill:#c88726;fill-opacity:1"/><path d="M22.805 8.457c-1.375-1.164-1.461-1.758-.313-2.59zM27.055 13.652c-1.344-1.086-1.426-1.882-.27-2.59zM29.258 13.152c.09.93.172 1.79.262 2.739-.61-.403-.907-.961-1.063-1.555-.164-.61.34-.879.8-1.184M24.93 12.434l.32 2.457c-1.36-1.059-1.457-1.887-.32-2.457M20.89 12.805c-1.39-1.203-1.453-1.723-.296-2.543.093.82.187 1.601.297 2.543M27.555 14.82q.205 1.262.406 2.489c-1.41-1.02-1.543-1.79-.406-2.489M31.395 15.102c.039.84.082 1.64.128 2.539-.656-.41-.992-.848-.98-1.52.008-.59.43-.773.852-1.02M24.2 8.629c.12.934.234 1.812.359 2.766-.25-.282-.493-.52-.696-.793-.613-.825-.75-1.356.336-1.973M29.988 17.246c.078.961.145 1.817.219 2.781-.246-.308-.441-.543-.625-.785-.691-.918-.656-1.12.406-1.996M32.934 22.543c-.903-.633-.903-.633-1.383-1.871.246-.266.531-.57.984-1.055-.058 1.168-.18 2.098.399 2.926M22.605 9.512c0 .531-.023.925.008 1.312.028.383.11.762.172 1.145-1.348-.867-1.453-1.676-.18-2.457" style="stroke:none;fill-rule:nonzero;fill:#c88726;fill-opacity:1"/><path d="M45.102 21.328q0 1.499.363 2.606.361 1.107.945 1.828.584.725 1.332 1.082.743.358 1.516.36.804-.001 1.449-.313.64-.309 1.121-.825a4.6 4.6 0 0 0 .785-1.164q.31-.654.438-1.34h1.324a7.7 7.7 0 0 1-.598 1.903 5.7 5.7 0 0 1-1.066 1.547c-.43.437-.938.785-1.512 1.039q-.868.38-1.941.379c-.832 0-1.582-.16-2.258-.485a4.74 4.74 0 0 1-1.719-1.398q-.713-.917-1.097-2.242-.387-1.326-.387-3.004 0-.86.164-1.7.165-.836.48-1.585.322-.75.786-1.383a5.3 5.3 0 0 1 1.066-1.098c.406-.308.852-.55 1.348-.726a4.8 4.8 0 0 1 1.597-.258c.73 0 1.38.101 1.95.312a4.7 4.7 0 0 1 1.488.864q.633.551 1.066 1.308c.285.508.508 1.063.66 1.668h-1.37c-.325-.984-.79-1.71-1.403-2.187s-1.41-.72-2.39-.72c-.606 0-1.16.153-1.669.45a4.3 4.3 0 0 0-1.308 1.207 5.8 5.8 0 0 0-.856 1.762 7.2 7.2 0 0 0-.304 2.113M61.977 22.727q-.27.315-.704.515a7 7 0 0 1-.925.363q-.499.165-1.004.313a5.5 5.5 0 0 0-.903.355c-.27.137-.488.301-.656.5q-.258.296-.258.743 0 .41.13.691.133.287.343.469c.145.12.3.21.48.265q.265.084.547.086.811 0 1.586-.527.773-.528 1.364-1.605Zm-5.504-1.57c.027-.466.144-.868.359-1.208q.318-.509.8-.836c.325-.218.68-.383 1.075-.488.395-.11.785-.164 1.18-.164q.648 0 1.258.152c.406.102.765.262 1.085.489q.475.338.762.87.289.528.29 1.278v4.965a.9.9 0 0 0 .183.55c.055.079.125.141.2.188q.115.072.25.074.163 0 .42-.093v1.144a9 9 0 0 1-.476.125q-.194.04-.422.04-.55-.002-.925-.442-.37-.44-.418-1.38-.417.587-.82.942a3.7 3.7 0 0 1-.801.559 2.8 2.8 0 0 1-.809.258 5 5 0 0 1-.832.062q-.541 0-1.016-.187-.475-.186-.82-.535a2.5 2.5 0 0 1-.55-.836 2.8 2.8 0 0 1-.204-1.094q0-.603.246-1.031a2.5 2.5 0 0 1 .649-.735c.265-.203.574-.375.918-.52.343-.14.695-.269 1.054-.378q.534-.164 1.055-.317.515-.15.918-.332.4-.181.648-.43a.8.8 0 0 0 .247-.597q-.001-.832-.559-1.195-.556-.363-1.559-.364a3.2 3.2 0 0 0-.742.082c-.226.055-.433.141-.613.262a1.5 1.5 0 0 0-.445.45c-.114.183-.192.41-.23.671zM66.223 18.629h1.285v1.476q.281-.434.617-.75.34-.31.703-.507.364-.199.723-.293a2.8 2.8 0 0 1 .703-.094c.437 0 .855.133 1.254.39q.591.392 1.078 1.34a3.3 3.3 0 0 1 1.293-1.34q.381-.212.773-.312.398-.098.766-.098c.398 0 .77.075 1.105.22.34.144.633.347.88.6q.364.389.57.91.199.53.199 1.13v6.754h-1.285v-6.356q0-.595-.153-.98a1.7 1.7 0 0 0-.406-.614 1.45 1.45 0 0 0-.562-.32 2.1 2.1 0 0 0-.61-.094q-.406.001-.816.196-.412.198-.735.543c-.214.226-.394.5-.53.812-.141.309-.212.649-.212 1.008v5.805h-1.285v-6.356c0-.398-.05-.722-.16-.98a1.8 1.8 0 0 0-.398-.614 1.4 1.4 0 0 0-.536-.32 1.8 1.8 0 0 0-.55-.094q-.51-.002-.954.254a2.8 2.8 0 0 0-.765.645 3 3 0 0 0-.52.863 2.5 2.5 0 0 0-.187.902v5.7h-1.285zM81.395 23.367c0 .508.054.98.16 1.426q.158.663.465 1.156c.199.328.449.59.742.781s.633.286 1.011.286q.58.001 1.028-.286c.3-.19.554-.453.761-.78q.311-.494.47-1.157.159-.666.16-1.426-.001-.756-.16-1.426a3.9 3.9 0 0 0-.47-1.171 2.5 2.5 0 0 0-.761-.79 1.86 1.86 0 0 0-1.028-.289q-.55-.001-.988.274a2.4 2.4 0 0 0-.738.754q-.306.478-.473 1.12-.169.645-.18 1.372Zm-1.305-8.504h1.305v5.14q.222-.344.515-.624.298-.281.625-.484.329-.206.668-.317a2 2 0 0 1 .656-.117c.602 0 1.125.129 1.579.387.449.257.828.605 1.128 1.05q.457.669.684 1.559.228.898.227 1.918a7.6 7.6 0 0 1-.23 1.906 4.9 4.9 0 0 1-.692 1.551q-.462.662-1.145 1.047-.68.387-1.578.387c-.465 0-.914-.141-1.352-.414q-.65-.41-1.085-1.223v1.426H80.09zM90.629 23.352q0 .75.183 1.418.184.661.532 1.16.35.491.847.777.497.288 1.118.29c.41 0 .785-.099 1.117-.29a2.7 2.7 0 0 0 .851-.777q.352-.499.54-1.16.191-.669.19-1.418.001-.749-.19-1.415a3.8 3.8 0 0 0-.54-1.164 2.7 2.7 0 0 0-.851-.793 2.2 2.2 0 0 0-1.117-.289q-.62.001-1.118.29a2.7 2.7 0 0 0-.847.792c-.23.332-.41.72-.531 1.165a5.4 5.4 0 0 0-.184 1.414m-1.285 0q0-1.008.261-1.899.258-.89.762-1.555.504-.666 1.242-1.05c.496-.258 1.059-.387 1.7-.387q.956 0 1.707.387.75.384 1.257 1.05c.336.446.594.961.774 1.555q.265.891.266 1.899-.001 1.013-.266 1.898a4.8 4.8 0 0 1-.774 1.55q-.509.663-1.257 1.044-.75.377-1.707.379c-.641 0-1.204-.13-1.7-.38a3.64 3.64 0 0 1-1.242-1.042 4.6 4.6 0 0 1-.762-1.551 6.6 6.6 0 0 1-.261-1.898M105.262 23.21a6.4 6.4 0 0 0-.184-1.37c-.11-.43-.266-.8-.469-1.121a2.4 2.4 0 0 0-.746-.754 1.85 1.85 0 0 0-1-.274c-.383 0-.718.098-1.015.29a2.5 2.5 0 0 0-.754.789 3.9 3.9 0 0 0-.469 1.171c-.11.446-.16.922-.16 1.426 0 .508.05.98.16 1.426q.158.663.469 1.156t.754.781c.297.192.632.286 1.015.286q.57.001 1.02-.286c.3-.19.55-.453.754-.78q.306-.494.465-1.157.159-.666.16-1.426Zm1.285 4.845h-1.285v-1.426c-.305.543-.672.95-1.11 1.223-.433.273-.879.414-1.34.414q-.896 0-1.578-.387a3.4 3.4 0 0 1-1.14-1.047c-.309-.437-.54-.957-.7-1.55a7.4 7.4 0 0 1-.234-1.907q-.002-1.02.23-1.918a5 5 0 0 1 .688-1.559q.452-.666 1.133-1.05.677-.387 1.562-.387.322 0 .66.117c.223.074.45.18.669.317q.325.203.628.484.298.28.532.625v-5.14h1.285zM110.02 18.629v9.426h-1.29v-9.426Zm0-3.766v1.621h-1.29v-1.62zM117.879 22.727q-.27.315-.7.515-.431.206-.929.363-.497.165-1 .313a5.4 5.4 0 0 0-.902.355c-.27.137-.489.301-.66.5q-.256.296-.254.743 0 .41.129.691a1.33 1.33 0 0 0 .82.734q.268.084.547.086.813 0 1.586-.527.775-.528 1.363-1.605Zm-5.5-1.57a2.5 2.5 0 0 1 .355-1.208c.215-.34.48-.617.805-.836q.481-.329 1.074-.488c.39-.11.785-.164 1.176-.164q.649 0 1.262.152c.402.102.765.262 1.082.489q.48.338.765.87.289.528.29 1.278v4.965q0 .148.046.289a.9.9 0 0 0 .133.262.7.7 0 0 0 .203.187c.075.047.16.074.246.074q.165 0 .422-.093v1.144a9 9 0 0 1-.472.125q-.194.04-.426.04a1.16 1.16 0 0 1-.922-.442q-.374-.44-.422-1.38-.416.587-.816.942-.403.359-.801.559a2.8 2.8 0 0 1-.809.258q-.41.063-.832.062-.543 0-1.015-.187-.474-.186-.825-.535a2.6 2.6 0 0 1-.55-.836 2.9 2.9 0 0 1-.203-1.094q0-.603.246-1.031c.168-.286.382-.528.648-.735.27-.203.574-.375.922-.52.344-.14.695-.269 1.05-.378q.54-.164 1.055-.317c.344-.101.653-.21.918-.332q.404-.181.649-.43a.8.8 0 0 0 .246-.597q0-.832-.555-1.195-.554-.363-1.562-.364-.399 0-.739.082-.344.081-.613.262a1.4 1.4 0 0 0-.445.45 1.7 1.7 0 0 0-.235.671zM129.34 16.215l-2.188 6.574h4.364Zm.91-1.281 4.438 13.12h-1.372l-1.355-4.015h-5.242l-1.356 4.016h-1.39l4.496-13.121zM135.828 18.629h1.305v1.426q.678-.845 1.472-1.22a3.7 3.7 0 0 1 1.614-.374q.62 0 1.105.195.49.189.828.559c.227.25.399.543.52.89.117.348.18.739.18 1.176v6.774h-1.29v-6.606c0-.64-.14-1.09-.425-1.36q-.424-.398-1.168-.398a2.7 2.7 0 0 0-1.11.227 3 3 0 0 0-.898.605 2.9 2.9 0 0 0-.606.86q-.222.481-.222 1.004v5.668h-1.305zM151.012 23.21a6.4 6.4 0 0 0-.184-1.37c-.11-.43-.266-.8-.469-1.121q-.304-.479-.742-.754a1.8 1.8 0 0 0-.984-.274q-.569-.001-1.055.286a2.8 2.8 0 0 0-.832.773q-.346.488-.547 1.152a5 5 0 0 0-.195 1.426c0 .504.062.98.195 1.426q.2.673.547 1.176.352.505.832.793.486.293 1.055.293.57.001 1.012-.286c.292-.19.539-.453.742-.78q.306-.494.465-1.157.159-.666.16-1.426Zm1.304 5.075q.001.967-.308 1.711-.312.744-.828 1.242a3.4 3.4 0 0 1-1.184.754 3.965 3.965 0 0 1-2.543.09 3.1 3.1 0 0 1-.996-.52 3.6 3.6 0 0 1-.809-.894 5.4 5.4 0 0 1-.593-1.293h1.297q.364.861.918 1.242.552.382 1.343.383.491 0 .93-.195a2.35 2.35 0 0 0 .758-.551q.323-.35.515-.836.195-.478.196-1.063v-1.64q-.463.768-1.114 1.16-.644.389-1.324.39a3.3 3.3 0 0 1-1.605-.39 3.8 3.8 0 0 1-1.219-1.062 5 5 0 0 1-.77-1.567 6.8 6.8 0 0 1-.265-1.914q.001-1.02.265-1.91.269-.892.754-1.543a3.6 3.6 0 0 1 1.18-1.035 3.14 3.14 0 0 1 2.164-.313q.328.066.66.239.334.17.66.468.321.296.614.742V18.63h1.304zM157.984 22.105l3.278 5.95h-1.508l-2.68-4.953-1.605 1.73v3.223h-1.305V14.863h1.305v8.125l4.148-4.36h1.578zM163.379 23.352q0 .75.184 1.418c.125.44.3.828.535 1.16q.345.491.843.777.498.288 1.118.29.62-.002 1.117-.29a2.7 2.7 0 0 0 .851-.777q.352-.499.54-1.16.191-.669.19-1.418.001-.749-.19-1.415a3.8 3.8 0 0 0-.54-1.164 2.7 2.7 0 0 0-.851-.793 2.2 2.2 0 0 0-1.117-.289q-.62.001-1.118.29a2.6 2.6 0 0 0-.843.792c-.235.332-.41.72-.536 1.165a5.4 5.4 0 0 0-.183 1.414m-1.285 0q0-1.008.261-1.899c.172-.594.43-1.11.762-1.555q.503-.666 1.246-1.05.74-.387 1.696-.387t1.707.387q.75.384 1.257 1.05c.336.446.594.961.774 1.555q.265.891.266 1.899-.001 1.013-.266 1.898a4.8 4.8 0 0 1-.774 1.55q-.509.663-1.257 1.044-.75.377-1.707.379c-.637 0-1.204-.13-1.696-.38a3.6 3.6 0 0 1-1.246-1.042 4.7 4.7 0 0 1-.762-1.551 6.6 6.6 0 0 1-.261-1.898M171.91 18.629h1.285l-.047 1.445q.406-.79.957-1.199a2.08 2.08 0 0 1 1.293-.414 1.8 1.8 0 0 1 .602.117v1.426q-.406-.157-.637-.156c-.343 0-.648.066-.914.207-.27.136-.496.324-.683.554a2.5 2.5 0 0 0-.426.809 3.1 3.1 0 0 0-.145.957v5.68h-1.285z" style="stroke:none;fill-rule:nonzero;fill:#45204e;fill-opacity:1"/></svg>