<?xml version="1.0" encoding="utf-8"?>
<!-- Generator: Adobe Illustrator 26.0.1, SVG Export Plug-In . SVG Version: 6.00 Build 0)  -->
<svg version="1.1" id="Layer_1" xmlns="http://www.w3.org/2000/svg" xmlns:xlink="http://www.w3.org/1999/xlink" x="0px" y="0px"
	 viewBox="0 0 179 56" style="enable-background:new 0 0 179 56;" xml:space="preserve">
<style type="text/css">
	.st0{fill:#007236;}
	.st1{fill:#939598;}
</style>
<g>
	<path class="st0" d="M10.4,8H2C1.3,8,0.8,7.8,0.4,7.2C0,6.7-0.1,6.1,0.1,5.4L1.5,0h32.1l-2.1,8H14.9l4.8,3.3l-6.6,24.5H5.7    C5,35.9,4.4,35.6,4,35c-0.4-0.5-0.5-1.2-0.3-1.9L10.4,8z M57.5,22c0,0.1-0.3,0.9-0.8,2.4H36.5c0,0.4,0.1,0.8,0.2,1.1    c0.5,2.3,2.4,3.4,5.5,3.4c2.4,0,4.7-0.8,7-2.4l2.6,3.8c0.3,0.5,0.4,1,0.1,1.6c-0.2,0.6-0.6,1.1-1.2,1.5c-3.1,2-6.7,2.9-10.9,2.9    c-4.9,0-8.4-1.3-10.7-4c-2.3-2.7-2.9-6.1-1.7-10.4c1.1-4.2,3.5-7.6,7.1-10.3c3.6-2.7,7.6-4,12-4c4.3,0,7.5,1.3,9.6,3.9    C58.2,14,58.7,17.5,57.5,22z M38.4,18c-0.1,0.1-0.9,0.3-2.5,0.6c-1.6,0.3-2.5,0.5-2.5,0.7h15.7c0.1-1.5-0.2-2.6-1-3.5    c-0.8-0.8-1.9-1.3-3.4-1.3C42.1,14.5,40,15.7,38.4,18z M83.1,28.6c0.6,0,1.1,0.2,1.4,0.7c0.3,0.4,0.4,1,0.2,1.6l-1.4,5H57.8    l1.5-5.7L74.2,17l9.7-1.7H66.2c-0.7,0-1.3-0.3-1.6-0.8c-0.4-0.5-0.5-1.1-0.3-1.8L65.5,8h24.8l-1.6,5.7L72,28.6H83.1z"/>
	<path class="st1" d="M99.6,36.6c-5.5,0-9.2-1.8-11-5.3l7.1-6.3c0.2,1.9,2,3.6,5.4,3.5c3,0,5-1.7,5.9-5.2l3.3-12.3l7.9-3.1h-15.8    c-1,0-1.8-0.4-2.3-1.1c-0.5-0.7-0.6-1.6-0.4-2.6l1.1-4.2h22.4l-6.1,22.6c-0.8,3.1-2,5.7-3.6,7.8c-1.6,2.1-3.6,3.6-5.9,4.7    C105.3,36.1,102.6,36.6,99.6,36.6z M152.3,22c0,0.1-0.3,0.9-0.8,2.4h-20.2c0,0.4,0.1,0.8,0.1,1.1c0.5,2.3,2.4,3.4,5.5,3.4    c2.4,0,4.7-0.8,7-2.4l2.6,3.8c0.3,0.5,0.4,1,0.2,1.6c-0.2,0.6-0.6,1.1-1.3,1.5c-3.1,2-6.7,2.9-10.9,2.9c-4.9,0-8.4-1.3-10.7-4    c-2.3-2.7-2.9-6.1-1.7-10.4c1.1-4.2,3.5-7.6,7.1-10.3c3.6-2.7,7.6-4,12-4c4.3,0,7.5,1.3,9.6,3.9C153,14,153.4,17.5,152.3,22z     M133.2,18c-0.1,0.1-0.9,0.3-2.5,0.6c-1.6,0.3-2.5,0.5-2.5,0.7h15.7c0.1-1.5-0.2-2.6-1-3.5c-0.8-0.8-1.9-1.3-3.4-1.3    C136.8,14.5,134.7,15.7,133.2,18z M175.4,27.8l-1.3,6.9c-1.9,1.1-4.4,1.6-7.2,1.6c-3.6,0-6.2-0.9-7.6-2.7c-1.5-1.8-1.8-4.4-0.8-7.9    l2.5-9.3h-4l1.9-7.3h10.6l-5.8-2.7l1.2-4.5h9.7l-0.7,2.6l-1.2,4.6h6.4l-1.9,7.3h-6.4l-2.5,9.2c-0.3,1-0.2,1.8,0.2,2.4    c0.4,0.5,1,0.9,1.9,0.8l0.9-0.1L175.4,27.8z"/>
</g>
</svg>
