<svg xmlns="http://www.w3.org/2000/svg" xml:space="preserve" viewBox="0 0 179 56"><path d="M10.4 8H2C1.3 8 .8 7.8.4 7.2q-.6-.75-.3-1.8L1.5 0h32.1l-2.1 8H14.9l4.8 3.3-6.6 24.5H5.7c-.7.1-1.3-.2-1.7-.8-.4-.5-.5-1.2-.3-1.9zm47.1 14c0 .1-.3.9-.8 2.4H36.5c0 .4.1.8.2 1.1.5 2.3 2.4 3.4 5.5 3.4 2.4 0 4.7-.8 7-2.4l2.6 3.8c.3.5.4 1 .1 1.6q-.3.9-1.2 1.5c-3.1 2-6.7 2.9-10.9 2.9-4.9 0-8.4-1.3-10.7-4s-2.9-6.1-1.7-10.4c1.1-4.2 3.5-7.6 7.1-10.3s7.6-4 12-4q6.45 0 9.6 3.9c2.1 2.5 2.6 6 1.4 10.5m-19.1-4c-.1.1-.9.3-2.5.6s-2.5.5-2.5.7h15.7c.1-1.5-.2-2.6-1-3.5-.8-.8-1.9-1.3-3.4-1.3-2.6 0-4.7 1.2-6.3 3.5m44.7 10.6c.6 0 1.1.2 1.4.7.3.4.4 1 .2 1.6l-1.4 5H57.8l1.5-5.7L74.2 17l9.7-1.7H66.2c-.7 0-1.3-.3-1.6-.8q-.6-.75-.3-1.8L65.5 8h24.8l-1.6 5.7L72 28.6z" style="fill:#007236"/><path d="M99.6 36.6c-5.5 0-9.2-1.8-11-5.3l7.1-6.3c.2 1.9 2 3.6 5.4 3.5 3 0 5-1.7 5.9-5.2l3.3-12.3 7.9-3.1h-15.8c-1 0-1.8-.4-2.3-1.1s-.6-1.6-.4-2.6l1.1-4.2h22.4l-6.1 22.6q-1.2 4.65-3.6 7.8c-1.6 2.1-3.6 3.6-5.9 4.7-2.3 1-5 1.5-8 1.5M152.3 22c0 .1-.3.9-.8 2.4h-20.2c0 .4.1.8.1 1.1.5 2.3 2.4 3.4 5.5 3.4 2.4 0 4.7-.8 7-2.4l2.6 3.8c.3.5.4 1 .2 1.6s-.6 1.1-1.3 1.5c-3.1 2-6.7 2.9-10.9 2.9-4.9 0-8.4-1.3-10.7-4s-2.9-6.1-1.7-10.4c1.1-4.2 3.5-7.6 7.1-10.3s7.6-4 12-4q6.45 0 9.6 3.9c2.2 2.5 2.6 6 1.5 10.5m-19.1-4c-.1.1-.9.3-2.5.6s-2.5.5-2.5.7h15.7c.1-1.5-.2-2.6-1-3.5-.8-.8-1.9-1.3-3.4-1.3-2.7 0-4.8 1.2-6.3 3.5m42.2 9.8-1.3 6.9c-1.9 1.1-4.4 1.6-7.2 1.6-3.6 0-6.2-.9-7.6-2.7-1.5-1.8-1.8-4.4-.8-7.9l2.5-9.3h-4l1.9-7.3h10.6l-5.8-2.7 1.2-4.5h9.7l-.7 2.6-1.2 4.6h6.4l-1.9 7.3h-6.4l-2.5 9.2c-.3 1-.2 1.8.2 2.4.4.5 1 .9 1.9.8l.9-.1z" style="fill:#939598"/></svg>