<?xml version="1.0" encoding="UTF-8"?>
<svg xmlns="http://www.w3.org/2000/svg" xmlns:xlink="http://www.w3.org/1999/xlink" width="176pt" height="44.14pt" viewBox="0 0 176 44.14" version="1.1">
<defs>
<clipPath id="clip1">
  <path d="M 0 0 L 36 0 L 36 44.140625 L 0 44.140625 Z M 0 0 "/>
</clipPath>
</defs>
<g id="surface1">
<g clip-path="url(#clip1)" clip-rule="nonzero">
<path style=" stroke:none;fill-rule:evenodd;fill:rgb(60.351562%,51.367188%,35.301208%);fill-opacity:1;" d="M 15.765625 22.066406 C 18.109375 18.769531 20.835938 19.425781 24.046875 19.796875 C 23.195312 18.886719 22.773438 17.738281 22.773438 16.503906 C 22.773438 13.664062 25.128906 11.363281 28.035156 11.363281 C 34.105469 11.363281 33.355469 18.234375 30.722656 18.234375 C 30.132812 18.234375 29.65625 17.820312 29.53125 17.328125 C 29.421875 16.921875 29.527344 16.445312 29.386719 16.0625 C 29.1875 15.523438 28.640625 15.128906 28.03125 15.128906 C 27.640625 15.128906 27.285156 15.285156 27.027344 15.535156 C 26.210938 16.324219 26.722656 17.898438 27.253906 18.707031 C 27.996094 19.824219 29.300781 20.546875 30.792969 20.53125 C 30.875 20.53125 30.957031 20.535156 31.039062 20.527344 C 35.199219 20.058594 36.425781 16.515625 35.367188 13.296875 C 34.910156 11.902344 33.304688 9.847656 31.503906 8.984375 C 34.824219 7.0625 35.84375 2.628906 35.726562 -0.00390625 L 0 22.066406 L 35.726562 44.140625 C 35.84375 41.507812 34.824219 37.074219 31.503906 35.148438 C 33.304688 34.289062 34.910156 32.234375 35.367188 30.835938 C 36.425781 27.621094 35.199219 24.078125 31.039062 23.609375 C 30.957031 23.601562 30.875 23.605469 30.792969 23.601562 C 29.300781 23.585938 27.996094 24.308594 27.253906 25.429688 C 26.722656 26.234375 26.210938 27.8125 27.027344 28.601562 C 27.285156 28.851562 27.640625 29.003906 28.03125 29.003906 C 28.640625 29.003906 29.1875 28.613281 29.386719 28.074219 C 29.527344 27.691406 29.421875 27.214844 29.53125 26.808594 C 29.65625 26.316406 30.132812 25.902344 30.722656 25.902344 C 33.355469 25.902344 34.105469 32.773438 28.035156 32.773438 C 25.128906 32.773438 22.773438 30.46875 22.773438 27.628906 C 22.773438 26.398438 23.195312 25.25 24.046875 24.339844 C 20.835938 24.710938 18.109375 25.367188 15.765625 22.066406 "/>
</g>
<path style=" stroke:none;fill-rule:nonzero;fill:rgb(7.446289%,13.719177%,38.035583%);fill-opacity:1;" d="M 54.785156 28.714844 C 53.75 29.136719 51.914062 29.179688 50.925781 28.886719 C 50.355469 28.714844 49.890625 28.453125 49.542969 28.066406 C 49.09375 27.554688 48.847656 26.832031 48.847656 25.882812 C 48.847656 22.761719 51.390625 22.066406 54.785156 22.066406 Z M 58.410156 30.367188 L 58.410156 19.097656 C 58.410156 18.957031 58.40625 18.820312 58.402344 18.683594 L 58.402344 18.671875 L 58.394531 18.53125 L 58.394531 18.511719 L 58.390625 18.484375 L 58.390625 18.472656 C 58.136719 14.519531 55.4375 13.164062 52.066406 13.164062 C 49.425781 13.164062 47.324219 14.015625 46.257812 15.058594 L 46.257812 17.160156 C 47.695312 16.386719 49.753906 15.648438 51.367188 15.648438 C 53.371094 15.648438 54.773438 16.253906 54.777344 18.472656 L 54.777344 18.683594 L 54.785156 19.773438 C 49.558594 20.285156 45.183594 21.230469 45.183594 25.757812 C 45.183594 29.070312 47.511719 31.363281 52.195312 31.363281 C 53.804688 31.363281 57.089844 31.074219 58.410156 30.367188 "/>
<path style=" stroke:none;fill-rule:nonzero;fill:rgb(7.446289%,13.719177%,38.035583%);fill-opacity:1;" d="M 126.46875 31.023438 L 126.46875 28.265625 C 126.15625 28.359375 125.90625 28.421875 125.566406 28.421875 C 124.253906 28.421875 123.722656 27.546875 123.722656 26.238281 L 123.722656 15.648438 L 126.46875 15.648438 L 126.46875 13.234375 L 123.722656 13.234375 L 123.722656 8.972656 L 119.917969 11.351562 L 119.917969 13.234375 L 117.898438 13.234375 L 117.898438 15.648438 L 119.917969 15.648438 L 119.917969 26.808594 C 119.917969 29.148438 121.226562 31.363281 124.535156 31.363281 C 125.441406 31.363281 126.128906 31.179688 126.46875 31.023438 "/>
<path style=" stroke:none;fill-rule:nonzero;fill:rgb(7.446289%,13.719177%,38.035583%);fill-opacity:1;" d="M 115.785156 26.015625 C 115.785156 23.960938 114.992188 22.199219 111.515625 20.828125 C 109.960938 20.207031 108.867188 19.488281 108.867188 18.054688 C 108.867188 16.816406 109.761719 15.738281 111.417969 15.738281 C 112.675781 15.738281 114.109375 16.558594 114.765625 17.25 L 114.765625 15.101562 C 112.519531 11.714844 104.964844 12.726562 104.964844 18.25 C 104.964844 20.078125 105.660156 21.902344 109.035156 23.175781 C 110.855469 23.863281 111.886719 24.546875 111.886719 26.046875 C 111.886719 29.261719 106.734375 28.875 104.949219 27.542969 L 104.964844 30.355469 C 106.019531 30.886719 107.347656 31.363281 109.433594 31.363281 C 113.335938 31.363281 115.785156 28.886719 115.785156 26.015625 "/>
<path style=" stroke:none;fill-rule:nonzero;fill:rgb(7.446289%,13.719177%,38.035583%);fill-opacity:1;" d="M 159.644531 30.886719 L 159.644531 18.464844 C 159.644531 15.671875 157.941406 13.164062 152.765625 13.164062 C 149.839844 13.164062 147.621094 13.644531 145.984375 14.417969 L 145.984375 30.886719 L 149.90625 30.886719 L 149.902344 16.121094 C 150.644531 15.832031 151.320312 15.636719 152.605469 15.636719 C 155.078125 15.636719 155.722656 17.117188 155.722656 18.53125 L 155.722656 30.886719 L 159.644531 30.886719 "/>
<path style=" stroke:none;fill-rule:nonzero;fill:rgb(7.446289%,13.719177%,38.035583%);fill-opacity:1;" d="M 79.128906 13.1875 C 74.738281 13.039062 72.429688 13.554688 70.632812 14.421875 L 70.632812 30.886719 L 74.546875 30.886719 L 74.546875 16.1875 C 75.445312 15.675781 77.617188 15.378906 79.128906 15.992188 L 79.128906 13.1875 "/>
<path style=" stroke:none;fill-rule:nonzero;fill:rgb(7.446289%,13.719177%,38.035583%);fill-opacity:1;" d="M 66.425781 30.886719 L 66.425781 13.246094 L 62.617188 13.246094 L 62.617188 30.886719 L 66.425781 30.886719 "/>
<path style=" stroke:none;fill-rule:nonzero;fill:rgb(7.446289%,13.719177%,38.035583%);fill-opacity:1;" d="M 98.1875 28.714844 C 97.152344 29.136719 95.3125 29.179688 94.328125 28.886719 C 93.757812 28.714844 93.289062 28.453125 92.945312 28.066406 C 92.492188 27.554688 92.25 26.832031 92.25 25.882812 C 92.25 22.761719 94.792969 22.066406 98.1875 22.066406 Z M 101.8125 30.367188 L 101.8125 19.097656 C 101.8125 18.957031 101.808594 18.820312 101.804688 18.683594 L 101.800781 18.671875 L 101.796875 18.53125 L 101.792969 18.519531 L 101.792969 18.484375 L 101.789062 18.472656 C 101.539062 14.519531 98.835938 13.164062 95.46875 13.164062 C 92.828125 13.164062 90.722656 14.015625 89.660156 15.058594 L 89.660156 17.160156 C 91.097656 16.386719 93.15625 15.648438 94.769531 15.648438 C 96.773438 15.648438 98.171875 16.253906 98.179688 18.472656 L 98.175781 18.472656 L 98.179688 18.492188 L 98.179688 18.683594 L 98.1875 19.773438 C 92.960938 20.285156 88.585938 21.230469 88.585938 25.757812 C 88.585938 29.070312 90.914062 31.363281 95.597656 31.363281 C 97.203125 31.363281 100.488281 31.074219 101.8125 30.367188 "/>
<path style=" stroke:none;fill-rule:nonzero;fill:rgb(7.446289%,13.719177%,38.035583%);fill-opacity:1;" d="M 138.152344 28.714844 C 137.117188 29.136719 135.277344 29.179688 134.292969 28.886719 C 133.722656 28.714844 133.253906 28.453125 132.910156 28.066406 C 132.457031 27.554688 132.214844 26.832031 132.214844 25.882812 C 132.214844 22.761719 134.757812 22.066406 138.152344 22.066406 Z M 141.777344 30.367188 L 141.777344 19.097656 C 141.777344 18.957031 141.773438 18.820312 141.765625 18.683594 L 141.765625 18.671875 L 141.761719 18.53125 L 141.757812 18.519531 L 141.757812 18.472656 C 141.503906 14.519531 138.800781 13.164062 135.433594 13.164062 C 132.792969 13.164062 130.6875 14.015625 129.621094 15.058594 L 129.621094 17.160156 C 131.0625 16.386719 133.121094 15.648438 134.734375 15.648438 C 136.738281 15.648438 138.136719 16.253906 138.144531 18.472656 L 138.144531 18.683594 L 138.152344 19.773438 C 132.925781 20.285156 128.550781 21.230469 128.550781 25.757812 C 128.550781 29.070312 130.878906 31.363281 135.5625 31.363281 C 137.167969 31.363281 140.453125 31.074219 141.777344 30.367188 "/>
<path style=" stroke:none;fill-rule:nonzero;fill:rgb(7.446289%,13.719177%,38.035583%);fill-opacity:1;" d="M 172.375 28.714844 C 171.339844 29.136719 169.503906 29.179688 168.519531 28.886719 C 167.949219 28.714844 167.480469 28.453125 167.136719 28.066406 C 166.683594 27.554688 166.4375 26.832031 166.4375 25.882812 C 166.4375 22.761719 168.980469 22.066406 172.375 22.066406 Z M 176 30.367188 L 176 19.097656 C 176 18.957031 175.996094 18.820312 175.992188 18.683594 L 175.992188 18.671875 L 175.984375 18.53125 L 175.984375 18.511719 L 175.980469 18.484375 L 175.980469 18.472656 C 175.726562 14.519531 173.027344 13.164062 169.65625 13.164062 C 167.015625 13.164062 164.914062 14.015625 163.847656 15.058594 L 163.847656 17.160156 C 165.285156 16.386719 167.34375 15.648438 168.957031 15.648438 C 170.960938 15.648438 172.363281 16.253906 172.367188 18.472656 L 172.367188 18.683594 L 172.375 19.773438 C 167.148438 20.285156 162.773438 21.230469 162.773438 25.757812 C 162.773438 29.070312 165.101562 31.363281 169.785156 31.363281 C 171.394531 31.363281 174.679688 31.074219 176 30.367188 "/>
<path style=" stroke:none;fill-rule:nonzero;fill:rgb(7.446289%,13.719177%,38.035583%);fill-opacity:1;" d="M 66.550781 9 C 66.550781 7.9375 65.671875 7.097656 64.523438 7.097656 C 63.398438 7.097656 62.488281 7.9375 62.488281 9 C 62.488281 10.03125 63.398438 10.875 64.523438 10.875 C 65.671875 10.875 66.550781 10.03125 66.550781 9 "/>
</g>
</svg>
