<svg xmlns="http://www.w3.org/2000/svg" width="176pt" height="52.36" viewBox="0 0 176 39.27"><defs><clipPath id="a"><path d="M91 31h6v8.27h-6Zm0 0"/></clipPath></defs><path d="M42.926 17.566V13.48H19.523v4.086zM19.34 5.914a3.13 3.13 0 0 0-3.133 3.137 3.13 3.13 0 0 0 3.133 3.129 3.133 3.133 0 0 0 0-6.266M27.129 5.84a3.133 3.133 0 1 0 .001 6.265 3.133 3.133 0 0 0-.001-6.265M34.766 5.84a3.13 3.13 0 0 0-3.133 3.129 3.13 3.13 0 1 0 6.262 0 3.133 3.133 0 0 0-3.13-3.13M42.707 5.84a3.133 3.133 0 0 0 0 6.266 3.132 3.132 0 0 0 0-6.266M31.871 5.98V.004h-1.734V5.98zM5.813 21.219H0v15.386h5.813V30.45l6.039 6.156h7.078l-8.04-8.773 6.583-6.613H11.39L5.813 26.91zM19.39 21.219h5.547v11.543h9.848v3.843H19.391zM49.484 29.988l2.922-8.77h9.39v15.387h-5.538V25.066l-4.004 11.54h-5.691l-3.852-11.54v11.54h-5.695V21.218h9.547z" style="stroke:none;fill-rule:evenodd;fill:#459cdc;fill-opacity:1"/><path d="M34.117 3.887V2.148h-5.98v1.739zM79.086 32.527h2.48c.786 0 1.61-.203 1.61-1.386 0-1.235-.89-1.332-1.422-1.332h-2.668Zm0 4.356h-1.074v-8.004h3.668c1.3 0 2.601.46 2.601 2.152 0 1.18-.597 1.614-1.105 1.914.457.192.91.395.949 1.508l.07 1.45c.008.445.067.613.395.8v.18h-1.313c-.152-.492-.183-1.703-.183-2.008 0-.656-.137-1.426-1.414-1.426h-2.594zM88.082 36.195c1.387 0 1.676-1.449 1.676-2.23s-.29-2.23-1.676-2.23c-1.394 0-1.68 1.449-1.68 2.23s.285 2.23 1.68 2.23m0-5.308c1.84 0 2.68 1.574 2.68 3.078s-.84 3.074-2.68 3.074c-1.844 0-2.684-1.57-2.684-3.074s.84-3.078 2.684-3.078" style="stroke:none;fill-rule:evenodd;fill:#459cdc;fill-opacity:1"/><g clip-path="url(#a)"><path d="M95.477 31.05h1.066c-.672 1.91-1.336 3.817-2.074 5.72-.914 2.363-1.016 2.5-2.262 2.5-.144 0-.254-.047-.41-.09v-.895c.121.05.32.106.59.106.504 0 .562-.145 1.023-1.352l-2.14-5.988h1.101l1.535 4.75h.024z" style="stroke:none;fill-rule:evenodd;fill:#459cdc;fill-opacity:1"/></g><path d="M100.906 33.906c-.152.125-.398.215-1.605.371-.469.067-1.23.207-1.23.946 0 .636.32 1.011 1.046 1.011.906 0 1.79-.59 1.79-1.367Zm-3.554-1.078c.043-1.394.957-1.941 2.386-1.941.457 0 2.137.133 2.137 1.629v3.351c0 .246.125.344.32.344.09 0 .211-.016.325-.04v.712c-.172.047-.31.113-.536.113-.855 0-.992-.45-1.02-.89-.378.41-.96.945-2.093.945-1.055 0-1.805-.68-1.805-1.684 0-.492.145-1.625 1.754-1.828l1.602-.2c.23-.019.508-.112.508-.694 0-.61-.446-.942-1.36-.942-1.101 0-1.261.676-1.328 1.125zM103.547 36.883v-8.004h.973v8.004zM110.285 35.957h2.078c1.387 0 2.29-1.102 2.29-3.121 0-2.016-.91-3.027-2.368-3.027h-2Zm-1.066-7.078h3.207c2.062 0 3.336 1.586 3.336 3.89 0 1.797-.778 4.114-3.38 4.114h-3.163zM120.777 36.883v-.848l-.023-.02c-.41.68-.91 1.036-1.832 1.036-.856 0-1.879-.414-1.879-1.809v-4.191h.973v3.87c0 .958.48 1.282 1.113 1.282 1.226 0 1.59-1.094 1.59-1.941V31.05h.969v5.832zM124.34 31.867v3.79c0 .456.387.456.586.456h.34v.77c-.352.035-.63.078-.727.078-.96 0-1.172-.543-1.172-1.25v-3.844h-.781v-.816h.781v-1.625h.973v1.625h.926v.816zM129.82 33.016c-.12-.782-.55-1.246-1.367-1.246-1.2 0-1.59 1.156-1.59 2.195 0 1 .246 2.238 1.578 2.238.657 0 1.215-.492 1.38-1.383h.945c-.106.922-.664 2.23-2.36 2.23-1.617 0-2.582-1.234-2.582-2.921 0-1.805.864-3.242 2.774-3.242 1.507 0 2.086 1.113 2.168 2.129zM136.438 36.883h-.973V33.07c0-.793-.223-1.3-1.149-1.3-.796 0-1.613.464-1.613 1.933v3.18h-.969v-8.004h.97v2.953h.023c.277-.367.757-.945 1.691-.945.894 0 2.02.363 2.02 2.031zM145.098 33.594l-1.168-3.52h-.02l-1.273 3.52Zm-2.79.96-.828 2.329h-1.101l2.976-8.004h1.215l2.868 8.004h-1.168l-.786-2.328zM148.324 29.996V28.88h.969v1.117Zm0 6.887V31.05h.969v5.832zM151.855 36.883h-.972V31.05h.918v.972h.015c.391-.683.899-1.136 1.63-1.136a.8.8 0 0 1 .25.031v1.016h-.36c-.906 0-1.48.71-1.48 1.562zM154.445 36.883v-8.004h.977v8.004zM156.895 29.996V28.88h.972v1.117Zm0 6.887V31.05h.972v5.832zM164.027 36.883h-.972v-3.59c0-1.016-.285-1.523-1.235-1.523-.55 0-1.527.351-1.527 1.933v3.18h-.969V31.05h.914v.828h.024c.215-.313.75-.992 1.746-.992.89 0 2.02.363 2.02 2.031zM169.438 33.508c-.06-.903-.434-1.738-1.614-1.738-.89 0-1.597.835-1.597 1.738Zm.925 1.547c-.035.28-.297 1.105-1.027 1.593-.266.18-.64.403-1.566.403-1.625 0-2.583-1.235-2.583-2.922 0-1.805.864-3.242 2.766-3.242 1.668 0 2.488 1.34 2.488 3.398h-4.214c0 1.215.558 1.918 1.671 1.918.918 0 1.457-.715 1.493-1.148zM174.879 32.715c-.012-.367-.145-.98-1.371-.98-.293 0-1.149.097-1.149.824 0 .476.301.59 1.051.78l.973.247c1.203.297 1.617.746 1.617 1.535 0 1.207-.98 1.93-2.281 1.93-2.285 0-2.45-1.34-2.489-2.04h.946c.031.458.164 1.192 1.531 1.192.695 0 1.324-.277 1.324-.926 0-.468-.32-.62-1.144-.836l-1.125-.277c-.813-.2-1.336-.613-1.336-1.418 0-1.281 1.047-1.86 2.18-1.86 2.066 0 2.21 1.54 2.21 1.829z" style="stroke:none;fill-rule:evenodd;fill:#459cdc;fill-opacity:1"/></svg>