<svg xmlns="http://www.w3.org/2000/svg" width="176pt" height="28.387" viewBox="0 0 176 21.29"><defs><clipPath id="a"><path d="M0 0h34v21.29H0Zm0 0"/></clipPath></defs><path d="M3.559 11.758a.85.85 0 0 0 .046.73c11.227.09 19 3.676 25.805 8.242.328-.003.512-.128.375-.535-2.043-1.914-7.004-4.949-6.914-5.402 1.004-.738 2.617-1 2.434-1.754-2.965-.976-6.485-1.5-10.508-1.601.816-1.176 1.617-2.133 2.265-3.63.313.294.653.485 1.008.618 1.028.011 1.317-.395 1.395-.918-.652 0-1.3-.004-1.953-.004q-.252-.064-.153-.414c1.727-.035 3.883.062 4.016-.442.008-.312-.71-.609-.43-.875.961-.242 1.621-.605 1.625-1.23-.398.195-.77.297-.941-.25.418-.434.61-.922.469-1.484q-.499.486-1.004.972c-.082-.68.11-1.695-.887-1.25-.687.754.434 1.461.262 2.125-.524 1.317-1.207 2.028-3.938 2.016-.77-.012-1.996-.676-1.949-1.149q-.304-.567.258-1.585l-.367.351-.059-.543c-.516.606-.715 1.102-.7 1.52-.073-.176.032.011-.484-.77-.816 1.988 2.25 2.184 2.825 2.7-1.32.183-2.63.054-3.938-.012q-.27.175-.21.539c.66.832 2.21.73 2.109 1.144-.625 1.153-1.536 1.633-2.504 2.305-.469.305-3.457.445-7.953.586" style="stroke:none;fill-rule:evenodd;fill:#1e66a3;fill-opacity:1"/><g clip-path="url(#a)"><path d="M16.742-.004c9.219 0 16.742 4.785 16.742 10.649s-7.523 10.644-16.742 10.644C7.52 21.29 0 16.508 0 10.645S7.52-.004 16.742-.004m1.09.992c8.434.133 14.734 4.59 14.023 9.922-.71 5.332-8.171 9.574-16.605 9.442-8.434-.133-14.734-4.59-14.023-9.922C1.937 5.098 9.395.855 17.832.988" style="stroke:none;fill-rule:evenodd;fill:#1e66a3;fill-opacity:1"/></g><path d="m51.586 7.324-3.52 3.63.606 4.241h-3.777l.25-3.734-1.633 3.734H40.02l3.328-7.87h3.492l-1.426 3.37 2.68-3.37zM56.27 8.875l-2.012 4.758q-.053.129.094.21a.85.85 0 0 0 .41.083q.621 0 .75-.293l2.011-4.758q.118-.28-.507-.281-.625 0-.746.281m5.023-.656L58.719 14.3q-.159.38-.867.636a4.6 4.6 0 0 1-1.567.258h-4.172c-.554 0-.996-.086-1.312-.254q-.48-.252-.317-.64l2.575-6.082q.158-.375.84-.633a4.3 4.3 0 0 1 1.542-.262h4.172c.57 0 1.024.09 1.348.262q.49.258.332.633M63.938 7.324h4.68l-.403 4.055 3.035-4.055h4.652l-3.328 7.871h-3.492l1.89-4.476-3.35 4.476h-2.06l.485-4.476-1.945 4.476h-3.493zM80.21 15.195l1.778-4.203-3.629 4.203h-3.492l3.328-7.87h3.102l-1.86 4.394 3.711-4.395h3.493l-3.329 7.871zM90.918 12.363l.91-3.441-2.004 3.441Zm-.684-5.039h4.54l-1.192 7.871h-3.418l.402-1.504h-1.511l-.871 1.504H84.77zM101.324 8.594l-.715 1.691h.625q.236.001.465-.086.234-.088.281-.195l.477-1.129q.04-.104-.14-.191a.9.9 0 0 0-.368-.09Zm-1.34 3.172-.914 2.16h.625q.236 0 .465-.086.235-.09.278-.195l.675-1.598q.047-.104-.136-.195a.85.85 0 0 0-.368-.086Zm-4.945 3.43 3.328-7.872h6.778q.626.002.953.215.328.21.199.516l-.945 2.23q-.103.247-.57.43a3.3 3.3 0 0 1-1.106.203q.58.049.898.25.321.2.215.445l-1.21 2.864q-.125.298-.63.507-.509.211-1.105.211zM110.781 15.195l1.781-4.203-3.628 4.203h-3.496l3.332-7.87h3.097l-1.855 4.394 3.707-4.395h3.492l-3.328 7.871zM121.492 12.363l.906-3.441-2 3.441Zm-.683-5.039h4.535l-1.192 7.871h-3.414l.403-1.504h-1.512l-.871 1.504h-3.414zM128.496 7.324h7.402l-.535 1.27h-1.957l-2.789 6.601h-3.492l2.79-6.601h-1.954zM140.707 8.594l-1.14 2.691h.624q.24 0 .47-.09c.155-.058.25-.125.276-.195l.899-2.121q.046-.107-.137-.195a.9.9 0 0 0-.367-.09Zm-6.285 6.601 3.328-7.87h6.36c.523 0 .93.081 1.23.237q.444.235.297.586l-1.48 3.497q-.154.368-.84.636c-.462.18-.965.27-1.524.27h-2.762l-1.117 2.644zM150.11 12.363l.91-3.441-2.004 3.441Zm-.684-5.039h4.535l-1.191 7.871h-3.415l.403-1.504h-1.512l-.871 1.504h-3.414zM157.559 7.324h3.492l-1.278 3.02h1.25l1.278-3.02h3.492l-3.328 7.871h-3.492l1.515-3.582h-1.25l-1.515 3.582h-3.493zM175.14 10.063h-3.492l.5-1.188q.123-.28-.503-.281-.628 0-.747.281l-2.011 4.758q-.052.129.093.21a.84.84 0 0 0 .407.083q.627 0 .75-.293l.73-1.727h3.492l-1.047 2.477q-.144.345-.921.578a6 6 0 0 1-1.743.234h-4.039q-.78 0-1.23-.234-.446-.234-.305-.578l2.664-6.293q.136-.316.7-.54a3.5 3.5 0 0 1 1.292-.226h4.25q.963.002 1.543.227.585.222.454.539z" style="stroke:none;fill-rule:nonzero;fill:#1e66a3;fill-opacity:1"/></svg>