<svg xmlns="http://www.w3.org/2000/svg" width="176pt" height="39.227" viewBox="0 0 176 29.42"><defs><clipPath id="a"><path d="M0 0h34v29.422H0Zm0 0"/></clipPath></defs><path d="m41.965 9.195-2.422 11.973h3.344l1.258-5.633 3.507 5.633h3.993l-4.211-6.66 4.148-5.313h-2.84l-4.324 5.25.984-5.25zM89.531 13.96c.668-.6 2.547-.39 1.696 1.263-.532 1.027-1.372 2.21-2.239 2.976-1.136 1-1.62-.054-1.25-1.328.367-1.254.883-2.098 1.793-2.91m1.617 3.4-.878 3.808h3.687l1.688-9.211c-1.254 0-2.54.164-3.79.04-1.351-.138-4.128-.184-6.234 2.675-1.32 1.785-2.16 4.39-.918 5.836 1.723 1.996 4.094-.11 6.445-3.149M149.102 13.96c.668-.6 2.55-.39 1.699 1.263-.531 1.027-1.375 2.21-2.242 2.976-1.133 1-1.618-.054-1.246-1.328.367-1.254.878-2.098 1.789-2.91m1.617 3.4-.88 3.808h3.688l1.692-9.211c-1.258 0-2.543.164-3.793.04-1.352-.138-4.125-.184-6.235 2.675-1.316 1.785-2.16 4.39-.914 5.836 1.723 1.996 4.09-.11 6.442-3.149M115.102 11.879h3.437l-1.926 9.176h-3.508Zm.738-3h3.441l-.469 1.797h-3.468z" style="stroke:none;fill-rule:evenodd;fill:#ea1d27;fill-opacity:1"/><g clip-path="url(#a)"><path d="M9.313 2.184C.969 6.492-2.13 15.277 1.495 22.3c3.625 7.02 13.328 9.222 21.672 4.918 8.344-4.309 11.973-13.16 8.617-20.117C28.425.148 17.656-2.121 9.313 2.184m0 4.035c-7.149 4.84-8.887 11.93-5.356 17.148 3.535 5.215 12.527 6.055 19.68 1.215 7.148-4.84 10.015-12.996 6.484-18.21-3.531-5.22-13.66-4.993-20.808-.153" style="stroke:none;fill-rule:evenodd;fill:#ea1d27;fill-opacity:1"/></g><path d="M25.988 5.188c.973-.922 1.41-.903 1.688.562.562 2.992-.758 5.32-3.242 7.172-2.157 1.344-4.504 2.223-7.125 2.418 7.753 5.617 10.605 10.363 18.66 6.824-.293 3.195-1.305 7.371-9.504 5.66-5.149-1.078-8.848-5.445-11.274-10.41-.379-.773-.68-1.477-1.254-.262-.652 1.383-.843 2.88-.992 4.32-.05.473.246.891.606 1.426.355.528.035.727-.735.692-1.382-.067-2.765.027-4.148.043-1.848-1.64-1.43-4.176-.605-6.567.894-2.578 2.296-4.949 3.328-7.472.242-.594-.036-.723-.563-.82-.59-.114-.504-.63.129-.997 1.86-1.062 3.809-1.773 6.137-1.941 1.203-.09 1.48.223.949 1.469-.578 1.347-1.125 2.707-1.688 4.058 3.38-1.847 6.88-3.566 9.633-6.175M64.129 12.082l-1.969 9.059h3.426l.758-3.145 2.261-2.723c.715-.859 1.008-.171.754 1.075l-1.03 4.793h3.507l1.418-6.18c.738-3.227-1.828-3.566-3.48-2.547-1.231.758-2.118 1.7-3.297 3.477l1.109-3.809zM74.395 11.914l2.02 9.137-3.228 3.144h3.532l9.297-12.28h-2.844l-4.004 5.343-1.16-5.344zM106.7 11.926l-2.388 4.012h3.47Zm-7.907 9.062 7-11.996h3.617l2.922 11.996h-3.547l-.836-3.23h-4.926l-1.691 3.156zM167.254 18.438c-.156.761-.313 1.515-.469 2.273 2.727.25 7.266 1.223 8.18-2.273.222-.84-.024-1.77-1.184-2.422-1.21-.743-2.168-1.426-1.77-2.121.52-.739 2.602-.286 3.505-.286.164-.57.324-1.12.484-1.687-1.926-.074-6.559-.79-7.277 1.805-.286 1.03.015 1.855 1.168 2.742.886.68 1.886 1.12 1.62 2.054-.366 1.274-1.84 1.149-4.257-.085M55.406 16.078c.45-1.848 1.95-2.566 2.434-1.863.601.879-.711 2.113-2.434 1.863m-.293 1.906c2.524.032 5.035-.785 6.082-3.41.934-2.34-1.922-2.84-4.054-2.52-2.274.34-4.555 2.098-5.395 4.708-.84 2.613.688 4.433 3.05 4.656 2.036.195 4.509-.23 6.138-1.004l.3-2.25c-3.925 2.023-6.152 1.648-6.12-.18M156.738 11.914l2.024 9.137-3.23 3.144h3.53l9.297-12.28h-2.84l-4.003 5.343-1.164-5.344zM129.71 11.91l.263 9.047h3.328l3.168-5.27.465 5.137h3.191l4.926-8.914h-2.317l-3.027 5.36-.527-5.36h-3.11l-3.023 5.66-.395-5.66zM120.453 11.91l-1.86 9.098h3.266l.48-2.203c.567-2.621 3.438-4.41 5.153-4.313l1.07-2.703c-1.46-.242-3.71.742-5.207 3.563-.246.46-.433.171-.296-.36l.804-3.082z" style="stroke:none;fill-rule:evenodd;fill:#ea1d27;fill-opacity:1"/></svg>