<?xml version="1.0" encoding="UTF-8"?>
<svg xmlns="http://www.w3.org/2000/svg" xmlns:xlink="http://www.w3.org/1999/xlink" width="176pt" height="25.47pt" viewBox="0 0 176 25.47" version="1.1">
<defs>
<clipPath id="clip1">
  <path d="M 0 18 L 20 18 L 20 25.46875 L 0 25.46875 Z M 0 18 "/>
</clipPath>
<clipPath id="clip2">
  <path d="M 160 13 L 169 13 L 169 25.46875 L 160 25.46875 Z M 160 13 "/>
</clipPath>
</defs>
<g id="surface1">
<path style=" stroke:none;fill-rule:nonzero;fill:rgb(15.956116%,17.138672%,40.968323%);fill-opacity:1;" d="M 24.34375 12.757812 C 24.273438 12.855469 24.203125 12.949219 24.132812 13.042969 C 24.117188 13.066406 24.109375 13.09375 24.109375 13.117188 C 24.082031 13.382812 24.039062 13.644531 23.964844 13.902344 C 23.839844 14.339844 23.632812 14.734375 23.332031 15.082031 C 23.070312 15.386719 22.753906 15.628906 22.414062 15.839844 C 22.011719 16.089844 21.582031 16.289062 21.152344 16.484375 C 20.789062 16.648438 20.425781 16.8125 20.078125 17.003906 C 19.769531 17.171875 19.476562 17.363281 19.214844 17.597656 C 18.929688 17.851562 18.699219 18.144531 18.535156 18.484375 C 18.414062 18.734375 18.332031 19 18.289062 19.273438 C 18.253906 19.484375 18.246094 19.699219 18.261719 19.914062 C 18.28125 20.191406 18.347656 20.457031 18.464844 20.714844 C 18.582031 20.972656 18.738281 21.203125 18.949219 21.398438 C 19.175781 21.613281 19.4375 21.765625 19.734375 21.859375 C 19.867188 21.90625 20 21.945312 20.140625 21.957031 C 20.261719 21.96875 20.382812 21.972656 20.503906 21.96875 C 20.910156 21.957031 21.296875 21.855469 21.644531 21.636719 C 21.820312 21.523438 21.960938 21.375 22.085938 21.210938 C 22.226562 21.015625 22.335938 20.808594 22.40625 20.578125 C 22.464844 20.386719 22.472656 20.195312 22.449219 20 C 22.425781 19.816406 22.378906 19.640625 22.300781 19.476562 C 22.222656 19.320312 22.117188 19.1875 21.957031 19.105469 C 21.636719 18.945312 21.230469 19.128906 21.175781 19.488281 C 21.15625 19.609375 21.160156 19.726562 21.167969 19.851562 C 21.179688 20.027344 21.191406 20.203125 21.148438 20.378906 C 21.109375 20.539062 21.027344 20.667969 20.898438 20.769531 C 20.742188 20.890625 20.566406 20.957031 20.363281 20.957031 C 20.183594 20.960938 20.019531 20.925781 19.867188 20.824219 C 19.785156 20.769531 19.71875 20.703125 19.660156 20.621094 C 19.554688 20.464844 19.496094 20.292969 19.464844 20.105469 C 19.449219 20.015625 19.4375 19.925781 19.4375 19.832031 C 19.433594 19.53125 19.476562 19.234375 19.613281 18.957031 C 19.832031 18.515625 20.167969 18.195312 20.613281 17.980469 C 20.859375 17.863281 21.125 17.789062 21.398438 17.75 C 21.59375 17.71875 21.789062 17.710938 21.988281 17.722656 C 22.519531 17.757812 22.980469 17.953125 23.363281 18.324219 C 23.738281 18.6875 23.960938 19.132812 24.074219 19.632812 C 24.144531 19.929688 24.160156 20.230469 24.136719 20.53125 C 24.105469 20.890625 24.015625 21.238281 23.855469 21.570312 C 23.710938 21.878906 23.523438 22.15625 23.289062 22.402344 C 22.964844 22.753906 22.578125 23.019531 22.144531 23.222656 C 21.828125 23.371094 21.492188 23.480469 21.148438 23.542969 C 20.925781 23.585938 20.699219 23.617188 20.472656 23.617188 C 20.339844 23.617188 20.203125 23.625 20.070312 23.613281 C 19.921875 23.605469 19.773438 23.589844 19.621094 23.566406 C 19.34375 23.519531 19.074219 23.441406 18.8125 23.335938 C 18.523438 23.21875 18.257812 23.066406 18.003906 22.890625 C 17.769531 22.726562 17.554688 22.542969 17.359375 22.339844 C 17.09375 22.0625 16.867188 21.757812 16.671875 21.421875 C 16.460938 21.058594 16.285156 20.671875 16.136719 20.277344 C 15.980469 19.863281 15.832031 19.449219 15.675781 19.03125 C 15.675781 19.023438 15.675781 19.015625 15.671875 19.007812 C 15.675781 18.878906 15.675781 18.746094 15.675781 18.613281 C 15.675781 17.117188 15.675781 15.625 15.675781 14.128906 C 15.675781 14.097656 15.675781 14.066406 15.675781 14.027344 C 15.855469 14.027344 16.027344 14.027344 16.195312 14.027344 C 16.296875 13.882812 16.398438 13.75 16.496094 13.613281 C 16.546875 13.542969 16.59375 13.472656 16.644531 13.402344 C 16.71875 13.292969 16.796875 13.1875 16.878906 13.085938 C 16.886719 13.074219 16.902344 13.066406 16.914062 13.058594 C 17.285156 13.058594 17.65625 13.058594 18.046875 13.058594 C 18.027344 13.03125 18.019531 13.007812 18.007812 12.992188 C 17.960938 12.925781 17.910156 12.859375 17.863281 12.792969 C 17.847656 12.769531 17.835938 12.742188 17.835938 12.714844 C 17.832031 12.425781 17.832031 12.140625 17.835938 11.851562 C 17.835938 11.84375 17.835938 11.835938 17.839844 11.820312 C 17.910156 11.804688 17.984375 11.808594 18.054688 11.820312 C 18.121094 11.921875 18.1875 12.015625 18.253906 12.117188 C 18.320312 12.128906 18.386719 12.125 18.460938 12.121094 C 18.46875 11.882812 18.464844 11.644531 18.464844 11.410156 C 18.402344 11.339844 18.34375 11.269531 18.285156 11.203125 C 18.257812 11.175781 18.246094 11.144531 18.246094 11.105469 C 18.246094 10.878906 18.246094 10.65625 18.246094 10.429688 C 18.25 10.40625 18.257812 10.382812 18.261719 10.355469 C 18.324219 10.355469 18.378906 10.355469 18.441406 10.355469 C 18.5 10.433594 18.5625 10.519531 18.621094 10.601562 C 18.679688 10.601562 18.734375 10.601562 18.792969 10.601562 C 18.796875 10.582031 18.796875 10.5625 18.796875 10.542969 C 18.796875 10.355469 18.796875 10.167969 18.796875 9.980469 C 18.796875 9.945312 18.792969 9.914062 18.769531 9.886719 C 18.738281 9.835938 18.707031 9.785156 18.675781 9.734375 C 18.675781 9.492188 18.675781 9.253906 18.675781 9.007812 C 18.730469 9.007812 18.785156 9.007812 18.847656 9.007812 C 18.898438 9.074219 18.953125 9.148438 19.011719 9.222656 C 19.054688 9.222656 19.097656 9.222656 19.144531 9.222656 C 19.160156 9.164062 19.167969 8.765625 19.152344 8.605469 C 19.066406 8.542969 18.972656 8.476562 18.886719 8.414062 C 18.871094 8.292969 18.875 7.871094 18.890625 7.8125 C 18.9375 7.8125 18.984375 7.8125 19.039062 7.8125 C 19.078125 7.859375 19.125 7.914062 19.175781 7.972656 C 19.214844 7.972656 19.261719 7.972656 19.308594 7.972656 C 19.355469 7.972656 19.402344 7.972656 19.449219 7.972656 C 19.46875 7.914062 19.46875 7.511719 19.457031 7.40625 C 19.429688 7.40625 19.402344 7.402344 19.371094 7.398438 C 19.332031 7.320312 19.296875 7.242188 19.300781 7.152344 C 19.308594 7.039062 19.304688 6.925781 19.304688 6.8125 C 19.304688 6.789062 19.304688 6.769531 19.304688 6.742188 C 19.347656 6.742188 19.386719 6.742188 19.4375 6.742188 C 19.46875 6.78125 19.503906 6.824219 19.535156 6.859375 C 19.65625 6.859375 19.757812 6.859375 19.859375 6.859375 C 19.878906 6.792969 19.875 6.363281 19.855469 6.296875 C 19.816406 6.296875 19.769531 6.296875 19.722656 6.296875 C 19.707031 6.242188 19.71875 6.195312 19.714844 6.148438 C 19.714844 6.105469 19.714844 6.0625 19.714844 6.007812 C 19.796875 6.007812 19.871094 6.007812 19.949219 6.007812 C 19.964844 5.921875 19.953125 5.84375 19.957031 5.761719 C 19.929688 5.757812 19.910156 5.753906 19.882812 5.746094 C 19.847656 5.65625 19.8125 5.5625 19.773438 5.464844 C 19.855469 5.464844 19.925781 5.464844 19.996094 5.464844 C 20.0625 5.460938 20.132812 5.46875 20.207031 5.457031 C 20.207031 5.320312 20.207031 5.183594 20.207031 5.042969 C 20.308594 5.042969 20.410156 5.039062 20.511719 5.039062 C 20.515625 4.976562 20.519531 4.921875 20.519531 4.863281 C 20.484375 4.863281 20.453125 4.863281 20.414062 4.863281 C 20.414062 4.808594 20.414062 4.761719 20.414062 4.714844 C 20.414062 4.667969 20.414062 4.621094 20.414062 4.566406 C 20.507812 4.566406 20.597656 4.566406 20.699219 4.566406 C 20.707031 4.472656 20.699219 4.386719 20.703125 4.300781 C 20.703125 4.214844 20.703125 4.128906 20.703125 4.050781 C 20.945312 3.847656 21.234375 3.867188 21.476562 4.050781 C 21.476562 4.214844 21.476562 4.382812 21.476562 4.5625 C 21.574219 4.5625 21.664062 4.5625 21.757812 4.5625 C 21.769531 4.664062 21.761719 4.757812 21.765625 4.855469 C 21.726562 4.859375 21.699219 4.863281 21.664062 4.867188 C 21.644531 4.917969 21.65625 4.972656 21.65625 5.035156 C 21.757812 5.046875 21.859375 5.035156 21.96875 5.042969 C 21.972656 5.179688 21.96875 5.316406 21.972656 5.460938 C 22.117188 5.460938 22.253906 5.460938 22.402344 5.460938 C 22.363281 5.5625 22.328125 5.65625 22.292969 5.75 C 22.269531 5.75 22.25 5.753906 22.222656 5.757812 C 22.222656 5.839844 22.222656 5.917969 22.222656 6.003906 C 22.300781 6.003906 22.375 6.003906 22.460938 6.003906 C 22.460938 6.058594 22.460938 6.105469 22.460938 6.152344 C 22.460938 6.195312 22.460938 6.238281 22.460938 6.289062 C 22.410156 6.292969 22.367188 6.296875 22.316406 6.296875 C 22.3125 6.484375 22.316406 6.667969 22.316406 6.863281 C 22.417969 6.863281 22.519531 6.863281 22.636719 6.863281 C 22.664062 6.824219 22.699219 6.777344 22.734375 6.730469 C 22.738281 6.734375 22.742188 6.738281 22.746094 6.742188 C 22.785156 6.742188 22.824219 6.742188 22.867188 6.742188 C 22.871094 6.765625 22.875 6.785156 22.875 6.804688 C 22.875 6.917969 22.867188 7.027344 22.875 7.136719 C 22.878906 7.234375 22.847656 7.316406 22.800781 7.402344 C 22.777344 7.402344 22.75 7.40625 22.722656 7.40625 C 22.707031 7.464844 22.703125 7.773438 22.714844 7.960938 C 22.761719 7.980469 22.8125 7.96875 22.859375 7.972656 C 22.90625 7.972656 22.957031 7.972656 23.003906 7.972656 C 23.046875 7.917969 23.09375 7.863281 23.136719 7.8125 C 23.1875 7.8125 23.238281 7.8125 23.285156 7.8125 C 23.300781 7.875 23.304688 8.285156 23.292969 8.414062 C 23.203125 8.476562 23.113281 8.542969 23.019531 8.609375 C 23.019531 8.8125 23.019531 9.011719 23.019531 9.214844 C 23.066406 9.230469 23.117188 9.222656 23.167969 9.222656 C 23.222656 9.152344 23.273438 9.078125 23.328125 9.007812 C 23.382812 9.007812 23.4375 9.007812 23.492188 9.007812 C 23.496094 9.023438 23.503906 9.039062 23.503906 9.054688 C 23.503906 9.28125 23.503906 9.507812 23.503906 9.730469 C 23.476562 9.773438 23.453125 9.816406 23.425781 9.855469 C 23.386719 9.90625 23.375 9.960938 23.375 10.023438 C 23.378906 10.191406 23.378906 10.363281 23.378906 10.53125 C 23.378906 10.550781 23.378906 10.574219 23.378906 10.597656 C 23.4375 10.597656 23.496094 10.597656 23.558594 10.597656 C 23.613281 10.523438 23.671875 10.441406 23.730469 10.355469 C 23.789062 10.355469 23.851562 10.355469 23.910156 10.355469 C 23.921875 10.421875 23.929688 10.984375 23.914062 11.171875 C 23.851562 11.246094 23.785156 11.328125 23.714844 11.410156 C 23.714844 11.644531 23.714844 11.878906 23.714844 12.117188 C 23.785156 12.117188 23.851562 12.117188 23.921875 12.117188 C 23.988281 12.019531 24.054688 11.917969 24.128906 11.8125 C 24.199219 11.816406 24.273438 11.820312 24.34375 11.824219 C 24.34375 12.136719 24.34375 12.449219 24.34375 12.757812 "/>
<path style=" stroke:none;fill-rule:nonzero;fill:rgb(15.956116%,17.138672%,40.968323%);fill-opacity:1;" d="M 8.667969 16.199219 C 8.527344 16.324219 8.378906 16.441406 8.242188 16.574219 C 7.980469 16.824219 7.765625 17.109375 7.574219 17.414062 C 7.375 17.730469 7.207031 18.066406 7.039062 18.402344 C 6.898438 18.679688 6.753906 18.957031 6.585938 19.21875 C 6.292969 19.6875 5.921875 20.074219 5.4375 20.347656 C 5.097656 20.539062 4.738281 20.675781 4.363281 20.757812 C 4.207031 20.792969 4.050781 20.820312 3.894531 20.828125 C 3.773438 20.835938 3.652344 20.855469 3.53125 20.851562 C 3.328125 20.84375 3.125 20.835938 2.925781 20.800781 C 2.644531 20.753906 2.375 20.679688 2.113281 20.574219 C 1.78125 20.433594 1.46875 20.261719 1.203125 20.011719 C 0.921875 19.746094 0.699219 19.4375 0.523438 19.089844 C 0.386719 18.816406 0.289062 18.527344 0.226562 18.226562 C 0.175781 17.980469 0.15625 17.730469 0.175781 17.480469 C 0.222656 16.941406 0.429688 16.472656 0.816406 16.085938 C 1.109375 15.792969 1.457031 15.597656 1.863281 15.496094 C 2.09375 15.4375 2.324219 15.425781 2.5625 15.441406 C 2.898438 15.46875 3.226562 15.546875 3.527344 15.710938 C 3.78125 15.84375 3.992188 16.019531 4.167969 16.242188 C 4.335938 16.457031 4.460938 16.691406 4.53125 16.957031 C 4.59375 17.1875 4.613281 17.421875 4.570312 17.660156 C 4.550781 17.765625 4.523438 17.871094 4.484375 17.972656 C 4.390625 18.210938 4.210938 18.359375 3.964844 18.414062 C 3.53125 18.503906 3.15625 18.199219 3.105469 17.828125 C 3.089844 17.710938 3.082031 17.59375 3.074219 17.476562 C 3.070312 17.382812 3.0625 17.289062 3.027344 17.203125 C 2.929688 16.96875 2.761719 16.816406 2.507812 16.785156 C 2.195312 16.742188 1.777344 16.949219 1.710938 17.371094 C 1.679688 17.554688 1.695312 17.734375 1.734375 17.910156 C 1.800781 18.203125 1.941406 18.457031 2.132812 18.6875 C 2.390625 19 2.710938 19.226562 3.09375 19.375 C 3.300781 19.457031 3.519531 19.5 3.742188 19.488281 C 4.191406 19.472656 4.59375 19.320312 4.945312 19.03125 C 5.1875 18.835938 5.375 18.597656 5.503906 18.3125 C 5.582031 18.144531 5.636719 17.964844 5.660156 17.777344 C 5.707031 17.445312 5.671875 17.121094 5.570312 16.800781 C 5.460938 16.453125 5.300781 16.132812 5.082031 15.84375 C 4.886719 15.589844 4.660156 15.371094 4.40625 15.179688 C 4.042969 14.910156 3.648438 14.703125 3.234375 14.519531 C 2.886719 14.363281 2.523438 14.25 2.15625 14.136719 C 1.8125 14.035156 1.472656 13.921875 1.148438 13.769531 C 0.882812 13.640625 0.636719 13.484375 0.429688 13.269531 C 0.359375 13.199219 0.285156 13.132812 0.246094 13.035156 C 0.230469 13 0.199219 12.976562 0.171875 12.945312 C 0.113281 12.882812 0.0585938 12.820312 0 12.757812 C 0 12.449219 0 12.136719 0 11.824219 C 0.0742188 11.800781 0.144531 11.816406 0.21875 11.8125 C 0.289062 11.917969 0.351562 12.015625 0.421875 12.117188 C 0.488281 12.117188 0.554688 12.117188 0.628906 12.117188 C 0.636719 11.882812 0.632812 11.644531 0.632812 11.414062 C 0.570312 11.339844 0.515625 11.273438 0.453125 11.207031 C 0.429688 11.179688 0.414062 11.152344 0.417969 11.113281 C 0.417969 10.875 0.417969 10.640625 0.417969 10.402344 C 0.417969 10.386719 0.421875 10.375 0.421875 10.359375 C 0.484375 10.34375 0.546875 10.351562 0.609375 10.351562 C 0.667969 10.433594 0.730469 10.519531 0.789062 10.601562 C 0.847656 10.601562 0.902344 10.601562 0.960938 10.601562 C 0.964844 10.582031 0.964844 10.558594 0.964844 10.539062 C 0.96875 10.355469 0.964844 10.171875 0.96875 9.984375 C 0.96875 9.945312 0.960938 9.914062 0.9375 9.882812 C 0.859375 9.785156 0.828125 9.679688 0.835938 9.554688 C 0.847656 9.398438 0.839844 9.246094 0.839844 9.09375 C 0.839844 9.066406 0.839844 9.042969 0.839844 9.011719 C 0.902344 9.011719 0.953125 9.011719 1.015625 9.011719 C 1.066406 9.078125 1.121094 9.148438 1.175781 9.222656 C 1.222656 9.222656 1.269531 9.222656 1.320312 9.222656 C 1.320312 9.015625 1.320312 8.816406 1.320312 8.605469 C 1.230469 8.542969 1.140625 8.476562 1.050781 8.414062 C 1.050781 8.214844 1.050781 8.019531 1.050781 7.816406 C 1.105469 7.816406 1.152344 7.816406 1.210938 7.816406 C 1.25 7.863281 1.292969 7.914062 1.339844 7.96875 C 1.433594 7.96875 1.527344 7.96875 1.621094 7.96875 C 1.636719 7.910156 1.640625 7.5625 1.628906 7.410156 C 1.601562 7.40625 1.574219 7.402344 1.539062 7.398438 C 1.503906 7.324219 1.46875 7.25 1.472656 7.15625 C 1.476562 7.042969 1.472656 6.929688 1.472656 6.816406 C 1.472656 6.792969 1.476562 6.769531 1.476562 6.742188 C 1.515625 6.742188 1.550781 6.742188 1.601562 6.742188 C 1.636719 6.777344 1.675781 6.816406 1.722656 6.863281 C 1.769531 6.863281 1.820312 6.863281 1.875 6.863281 C 1.925781 6.863281 1.972656 6.863281 2.027344 6.863281 C 2.054688 6.796875 2.039062 6.734375 2.039062 6.671875 C 2.042969 6.613281 2.042969 6.550781 2.039062 6.492188 C 2.039062 6.429688 2.046875 6.367188 2.03125 6.296875 C 1.984375 6.296875 1.941406 6.296875 1.886719 6.296875 C 1.878906 6.199219 1.886719 6.109375 1.882812 6.011719 C 1.960938 5.996094 2.039062 6.011719 2.117188 6 C 2.128906 5.921875 2.121094 5.84375 2.125 5.761719 C 2.097656 5.757812 2.078125 5.753906 2.050781 5.746094 C 2.015625 5.65625 1.980469 5.5625 1.941406 5.460938 C 2.089844 5.460938 2.230469 5.460938 2.371094 5.460938 C 2.371094 5.320312 2.371094 5.1875 2.371094 5.042969 C 2.480469 5.042969 2.582031 5.039062 2.691406 5.039062 C 2.6875 4.976562 2.683594 4.925781 2.679688 4.867188 C 2.644531 4.863281 2.617188 4.859375 2.585938 4.855469 C 2.585938 4.757812 2.585938 4.667969 2.585938 4.5625 C 2.679688 4.5625 2.773438 4.5625 2.875 4.5625 C 2.882812 4.46875 2.878906 4.382812 2.878906 4.296875 C 2.882812 4.210938 2.878906 4.125 2.878906 4.046875 C 3.085938 3.867188 3.390625 3.859375 3.644531 4.046875 C 3.644531 4.128906 3.644531 4.214844 3.644531 4.304688 C 3.644531 4.386719 3.644531 4.46875 3.644531 4.558594 C 3.742188 4.558594 3.832031 4.558594 3.917969 4.558594 C 3.9375 4.621094 3.9375 4.769531 3.925781 4.859375 C 3.894531 4.859375 3.863281 4.859375 3.828125 4.859375 C 3.816406 4.917969 3.824219 4.976562 3.824219 5.039062 C 3.929688 5.039062 4.027344 5.039062 4.132812 5.039062 C 4.144531 5.113281 4.136719 5.179688 4.136719 5.246094 C 4.140625 5.316406 4.136719 5.382812 4.136719 5.453125 C 4.21875 5.472656 4.289062 5.460938 4.359375 5.464844 C 4.425781 5.464844 4.492188 5.464844 4.570312 5.464844 C 4.53125 5.5625 4.496094 5.65625 4.460938 5.75 C 4.4375 5.753906 4.417969 5.753906 4.394531 5.757812 C 4.394531 5.839844 4.394531 5.917969 4.394531 6.003906 C 4.46875 6.003906 4.542969 6.003906 4.628906 6.003906 C 4.628906 6.058594 4.628906 6.105469 4.628906 6.152344 C 4.628906 6.195312 4.628906 6.238281 4.628906 6.289062 C 4.578125 6.292969 4.53125 6.296875 4.488281 6.296875 C 4.472656 6.359375 4.46875 6.75 4.480469 6.859375 C 4.582031 6.867188 4.683594 6.859375 4.796875 6.863281 C 4.832031 6.824219 4.867188 6.777344 4.898438 6.742188 C 4.953125 6.742188 4.992188 6.742188 5.035156 6.742188 C 5.039062 6.761719 5.042969 6.777344 5.042969 6.796875 C 5.042969 6.914062 5.039062 7.035156 5.042969 7.152344 C 5.046875 7.246094 5.011719 7.320312 4.976562 7.402344 C 4.945312 7.402344 4.921875 7.40625 4.894531 7.40625 C 4.878906 7.460938 4.875 7.863281 4.890625 7.96875 C 4.984375 7.96875 5.078125 7.96875 5.175781 7.96875 C 5.21875 7.917969 5.261719 7.863281 5.304688 7.8125 C 5.355469 7.8125 5.40625 7.8125 5.464844 7.8125 C 5.46875 8.015625 5.464844 8.210938 5.46875 8.410156 C 5.371094 8.476562 5.28125 8.542969 5.1875 8.609375 C 5.1875 8.8125 5.1875 9.011719 5.1875 9.21875 C 5.210938 9.222656 5.234375 9.222656 5.257812 9.222656 C 5.28125 9.226562 5.304688 9.222656 5.332031 9.222656 C 5.386719 9.152344 5.445312 9.082031 5.5 9.007812 C 5.554688 9.007812 5.605469 9.007812 5.65625 9.007812 C 5.675781 9.070312 5.683594 9.40625 5.671875 9.734375 C 5.632812 9.796875 5.589844 9.859375 5.550781 9.921875 C 5.550781 10.148438 5.550781 10.371094 5.550781 10.601562 C 5.609375 10.601562 5.667969 10.601562 5.726562 10.601562 C 5.785156 10.519531 5.84375 10.4375 5.902344 10.355469 C 5.960938 10.355469 6.019531 10.355469 6.085938 10.355469 C 6.089844 10.382812 6.097656 10.410156 6.097656 10.4375 C 6.097656 10.65625 6.097656 10.878906 6.097656 11.101562 C 6.097656 11.148438 6.082031 11.179688 6.054688 11.214844 C 6.003906 11.265625 5.960938 11.320312 5.914062 11.375 C 5.894531 11.398438 5.878906 11.421875 5.878906 11.453125 C 5.882812 11.671875 5.882812 11.890625 5.882812 12.109375 C 5.914062 12.132812 5.949219 12.121094 5.984375 12.125 C 6.015625 12.125 6.050781 12.125 6.089844 12.125 C 6.15625 12.023438 6.21875 11.925781 6.289062 11.820312 C 6.359375 11.800781 6.429688 11.816406 6.507812 11.8125 C 6.511719 11.84375 6.515625 11.863281 6.515625 11.882812 C 6.515625 12.152344 6.511719 12.421875 6.515625 12.691406 C 6.515625 12.738281 6.503906 12.773438 6.476562 12.808594 C 6.425781 12.867188 6.378906 12.933594 6.332031 13 C 6.324219 13.011719 6.316406 13.027344 6.308594 13.042969 C 6.3125 13.046875 6.3125 13.050781 6.316406 13.050781 C 6.316406 13.054688 6.320312 13.054688 6.324219 13.054688 C 6.332031 13.058594 6.34375 13.058594 6.355469 13.058594 C 6.710938 13.058594 7.074219 13.058594 7.429688 13.058594 C 7.445312 13.070312 7.460938 13.078125 7.472656 13.089844 C 7.492188 13.117188 7.507812 13.148438 7.527344 13.175781 C 7.65625 13.351562 7.78125 13.523438 7.910156 13.695312 C 7.992188 13.804688 8.074219 13.917969 8.15625 14.027344 C 8.25 14.027344 8.332031 14.027344 8.417969 14.027344 C 8.5 14.027344 8.582031 14.023438 8.667969 14.03125 C 8.667969 14.070312 8.667969 14.097656 8.667969 14.128906 C 8.667969 14.757812 8.667969 15.382812 8.667969 16.011719 C 8.667969 16.074219 8.667969 16.136719 8.667969 16.199219 "/>
<path style=" stroke:none;fill-rule:nonzero;fill:rgb(91.946411%,11.31134%,15.167236%);fill-opacity:1;" d="M 7.894531 12.015625 C 7.894531 12.011719 7.898438 12.011719 7.894531 12.015625 C 7.898438 12.007812 7.894531 12.011719 7.894531 12.015625 C 7.890625 12.015625 7.886719 12.019531 7.894531 12.015625 C 7.886719 12.019531 7.890625 12.015625 7.894531 12.015625 Z M 16.453125 12.015625 C 16.453125 12.015625 16.457031 12.019531 16.453125 12.015625 C 16.457031 12.019531 16.457031 12.015625 16.453125 12.015625 C 16.449219 12.011719 16.449219 12.007812 16.453125 12.015625 C 16.449219 12.011719 16.449219 12.011719 16.453125 12.015625 Z M 8.667969 16.199219 C 8.667969 16.136719 8.667969 16.074219 8.667969 16.011719 C 8.667969 15.382812 8.667969 14.757812 8.667969 14.128906 C 8.667969 14.097656 8.667969 14.070312 8.667969 14.03125 C 8.582031 14.023438 8.5 14.027344 8.417969 14.027344 C 8.332031 14.027344 8.25 14.027344 8.15625 14.027344 C 8.074219 13.917969 7.992188 13.804688 7.910156 13.695312 C 7.78125 13.523438 7.65625 13.351562 7.527344 13.175781 C 7.507812 13.148438 7.492188 13.117188 7.472656 13.089844 C 7.460938 13.078125 7.445312 13.070312 7.429688 13.058594 C 7.429688 13.050781 7.429688 13.035156 7.425781 13.03125 C 7.394531 13 7.398438 12.964844 7.40625 12.925781 C 7.464844 12.667969 7.523438 12.410156 7.585938 12.152344 C 7.621094 11.996094 7.65625 11.839844 7.6875 11.6875 C 7.691406 11.671875 7.699219 11.660156 7.703125 11.648438 C 7.710938 11.644531 7.714844 11.636719 7.71875 11.632812 C 7.761719 11.695312 7.808594 11.757812 7.851562 11.820312 C 7.90625 11.898438 7.957031 11.976562 8.011719 12.054688 C 8.152344 12.054688 8.289062 12.054688 8.433594 12.054688 C 8.4375 12.039062 8.445312 12.027344 8.445312 12.011719 C 8.445312 11.683594 8.445312 11.355469 8.445312 11.019531 C 8.304688 10.902344 8.160156 10.777344 8.011719 10.652344 C 8.101562 10.265625 8.191406 9.875 8.285156 9.476562 C 8.355469 9.527344 8.375 9.601562 8.421875 9.65625 C 8.46875 9.707031 8.503906 9.769531 8.546875 9.828125 C 8.675781 9.84375 8.800781 9.84375 8.925781 9.828125 C 8.941406 9.765625 8.945312 9.007812 8.933594 8.855469 C 8.832031 8.75 8.730469 8.644531 8.628906 8.535156 C 8.710938 8.195312 8.792969 7.847656 8.878906 7.484375 C 8.964844 7.601562 9.042969 7.703125 9.121094 7.808594 C 9.234375 7.8125 9.34375 7.816406 9.457031 7.796875 C 9.457031 7.496094 9.457031 7.203125 9.457031 6.898438 C 9.382812 6.898438 9.308594 6.898438 9.234375 6.898438 C 9.132812 6.804688 9.039062 6.710938 8.933594 6.613281 C 9 6.320312 9.078125 6.03125 9.148438 5.738281 C 9.207031 5.757812 9.226562 5.8125 9.261719 5.847656 C 9.296875 5.882812 9.324219 5.921875 9.355469 5.960938 C 9.542969 5.980469 9.71875 5.972656 9.894531 5.960938 C 9.910156 5.894531 9.914062 5.25 9.902344 5.128906 C 9.789062 5.050781 9.675781 4.972656 9.5625 4.894531 C 9.550781 4.816406 9.554688 4.238281 9.570312 4.167969 C 9.585938 4.171875 9.605469 4.175781 9.621094 4.183594 C 9.699219 4.222656 9.78125 4.261719 9.859375 4.304688 C 9.894531 4.324219 9.933594 4.332031 9.972656 4.332031 C 10.027344 4.328125 10.078125 4.332031 10.128906 4.332031 C 10.148438 4.273438 10.15625 3.632812 10.136719 3.511719 C 10.105469 3.507812 10.074219 3.503906 10.035156 3.5 C 10.035156 3.359375 10.035156 3.222656 10.035156 3.078125 C 10.121094 3.074219 10.207031 3.074219 10.300781 3.070312 C 10.28125 2.808594 10.261719 2.550781 10.238281 2.28125 C 10.351562 2.289062 10.453125 2.320312 10.554688 2.335938 C 10.65625 2.355469 10.761719 2.375 10.875 2.394531 C 10.875 2.148438 10.871094 1.914062 10.875 1.667969 C 10.953125 1.660156 11.03125 1.664062 11.105469 1.664062 C 11.179688 1.664062 11.253906 1.664062 11.328125 1.664062 C 11.351562 1.574219 11.347656 1.492188 11.339844 1.402344 C 11.285156 1.398438 11.234375 1.394531 11.179688 1.390625 C 11.179688 1.25 11.179688 1.113281 11.179688 0.972656 C 11.199219 0.96875 11.214844 0.964844 11.230469 0.964844 C 11.316406 0.960938 11.402344 0.964844 11.484375 0.960938 C 11.527344 0.960938 11.566406 0.957031 11.613281 0.949219 C 11.613281 0.695312 11.613281 0.449219 11.613281 0.207031 C 11.941406 -0.0703125 12.355469 -0.0742188 12.730469 0.203125 C 12.730469 0.445312 12.730469 0.695312 12.730469 0.949219 C 12.878906 0.976562 13.023438 0.953125 13.164062 0.96875 C 13.164062 1.109375 13.164062 1.246094 13.164062 1.386719 C 13.121094 1.40625 13.066406 1.386719 13.015625 1.402344 C 13.015625 1.488281 13.015625 1.570312 13.015625 1.660156 C 13.167969 1.667969 13.316406 1.660156 13.472656 1.667969 C 13.472656 1.910156 13.472656 2.144531 13.472656 2.390625 C 13.5 2.386719 13.519531 2.390625 13.539062 2.386719 C 13.710938 2.351562 13.882812 2.316406 14.054688 2.285156 C 14.070312 2.28125 14.082031 2.28125 14.101562 2.28125 C 14.082031 2.546875 14.0625 2.804688 14.042969 3.070312 C 14.132812 3.070312 14.21875 3.070312 14.296875 3.070312 C 14.316406 3.132812 14.320312 3.382812 14.304688 3.5 C 14.277344 3.503906 14.242188 3.507812 14.207031 3.511719 C 14.207031 3.78125 14.207031 4.050781 14.207031 4.316406 C 14.289062 4.34375 14.421875 4.335938 14.496094 4.296875 C 14.570312 4.261719 14.648438 4.222656 14.722656 4.183594 C 14.738281 4.175781 14.753906 4.171875 14.773438 4.164062 C 14.789062 4.226562 14.800781 4.757812 14.785156 4.894531 C 14.671875 4.972656 14.554688 5.050781 14.441406 5.132812 C 14.441406 5.40625 14.441406 5.679688 14.441406 5.957031 C 14.621094 5.972656 14.800781 5.980469 14.988281 5.960938 C 15.050781 5.886719 15.121094 5.808594 15.195312 5.722656 C 15.265625 6.023438 15.339844 6.3125 15.410156 6.613281 C 15.316406 6.707031 15.21875 6.800781 15.121094 6.894531 C 15.046875 6.894531 14.972656 6.894531 14.902344 6.894531 C 14.898438 6.902344 14.894531 6.902344 14.894531 6.90625 C 14.890625 6.90625 14.890625 6.910156 14.890625 6.914062 C 14.886719 7.191406 14.886719 7.472656 14.886719 7.75 C 14.886719 7.765625 14.886719 7.777344 14.890625 7.792969 C 15 7.820312 15.105469 7.808594 15.21875 7.808594 C 15.296875 7.707031 15.378906 7.601562 15.46875 7.488281 C 15.550781 7.847656 15.636719 8.191406 15.71875 8.542969 C 15.617188 8.640625 15.515625 8.738281 15.410156 8.839844 C 15.410156 9.164062 15.410156 9.492188 15.410156 9.816406 C 15.503906 9.84375 15.660156 9.847656 15.800781 9.824219 C 15.878906 9.714844 15.964844 9.597656 16.058594 9.464844 C 16.152344 9.871094 16.242188 10.257812 16.335938 10.652344 C 16.191406 10.773438 16.046875 10.894531 15.902344 11.015625 C 15.902344 11.363281 15.902344 11.703125 15.902344 12.042969 C 15.960938 12.0625 16.179688 12.070312 16.335938 12.054688 C 16.433594 11.914062 16.523438 11.765625 16.636719 11.609375 C 16.660156 11.714844 16.683594 11.808594 16.707031 11.898438 C 16.777344 12.214844 16.851562 12.53125 16.921875 12.847656 C 16.925781 12.867188 16.925781 12.894531 16.929688 12.917969 C 16.921875 12.921875 16.917969 12.925781 16.910156 12.933594 C 16.910156 12.9375 16.90625 12.9375 16.914062 12.933594 C 16.90625 12.9375 16.910156 12.9375 16.910156 12.933594 C 16.917969 12.925781 16.921875 12.921875 16.929688 12.917969 C 16.953125 12.949219 16.953125 12.984375 16.929688 13.015625 C 16.921875 13.03125 16.917969 13.042969 16.914062 13.058594 C 16.902344 13.066406 16.886719 13.074219 16.878906 13.085938 C 16.796875 13.1875 16.71875 13.292969 16.644531 13.402344 C 16.59375 13.472656 16.546875 13.542969 16.496094 13.613281 C 16.398438 13.75 16.296875 13.882812 16.195312 14.027344 C 16.027344 14.027344 15.855469 14.027344 15.675781 14.027344 C 15.675781 14.066406 15.675781 14.097656 15.675781 14.128906 C 15.675781 15.625 15.675781 17.117188 15.675781 18.613281 C 15.675781 18.746094 15.675781 18.878906 15.671875 19.007812 C 15.628906 18.894531 15.578125 18.78125 15.535156 18.667969 C 15.398438 18.304688 15.238281 17.957031 15.054688 17.617188 C 14.898438 17.332031 14.714844 17.066406 14.5 16.820312 C 14.15625 16.425781 13.753906 16.101562 13.292969 15.851562 C 12.941406 15.664062 12.570312 15.527344 12.179688 15.441406 C 12.046875 15.410156 11.914062 15.394531 11.78125 15.375 C 11.53125 15.335938 11.277344 15.335938 11.027344 15.347656 C 10.859375 15.351562 10.695312 15.375 10.53125 15.402344 C 10.308594 15.441406 10.089844 15.496094 9.875 15.566406 C 9.597656 15.664062 9.328125 15.78125 9.074219 15.9375 C 8.953125 16.015625 8.832031 16.097656 8.710938 16.175781 C 8.699219 16.183594 8.683594 16.191406 8.667969 16.199219 "/>
<path style=" stroke:none;fill-rule:nonzero;fill:rgb(34.117126%,32.917786%,33.216858%);fill-opacity:1;" d="M 7.71875 11.632812 C 7.714844 11.636719 7.710938 11.644531 7.703125 11.648438 C 7.707031 11.640625 7.707031 11.632812 7.707031 11.628906 C 7.710938 11.628906 7.714844 11.632812 7.71875 11.632812 "/>
<g clip-path="url(#clip1)" clip-rule="nonzero">
<path style=" stroke:none;fill-rule:nonzero;fill:rgb(15.956116%,17.138672%,40.968323%);fill-opacity:1;" d="M 0.980469 22.808594 C 1 22.820312 1.019531 22.824219 1.035156 22.835938 C 1.308594 23.035156 1.597656 23.199219 1.914062 23.320312 C 2.136719 23.410156 2.367188 23.472656 2.605469 23.507812 C 2.832031 23.542969 3.054688 23.558594 3.28125 23.546875 C 3.554688 23.535156 3.824219 23.496094 4.085938 23.4375 C 4.476562 23.347656 4.84375 23.210938 5.210938 23.058594 C 5.476562 22.949219 5.746094 22.835938 6.023438 22.753906 C 6.226562 22.695312 6.429688 22.644531 6.640625 22.632812 C 6.792969 22.625 6.941406 22.617188 7.09375 22.617188 C 7.4375 22.628906 7.761719 22.722656 8.066406 22.890625 C 8.28125 23.011719 8.484375 23.15625 8.683594 23.304688 C 8.835938 23.417969 8.996094 23.527344 9.152344 23.640625 C 9.230469 23.699219 9.320312 23.726562 9.410156 23.753906 C 9.71875 23.847656 10.039062 23.875 10.355469 23.851562 C 10.769531 23.820312 11.160156 23.710938 11.523438 23.507812 C 11.847656 23.332031 12.121094 23.097656 12.3125 22.773438 C 12.417969 22.59375 12.484375 22.402344 12.507812 22.195312 C 12.546875 21.8125 12.433594 21.472656 12.238281 21.148438 C 12.160156 21.023438 12.054688 20.921875 11.917969 20.867188 C 11.683594 20.769531 11.457031 20.792969 11.25 20.945312 C 11.113281 21.046875 11.027344 21.183594 10.992188 21.347656 C 10.964844 21.464844 10.976562 21.582031 11.007812 21.699219 C 11.03125 21.789062 11.054688 21.878906 11.050781 21.972656 C 11.046875 22.285156 10.898438 22.507812 10.628906 22.652344 C 10.492188 22.726562 10.347656 22.746094 10.195312 22.734375 C 10.054688 22.722656 9.929688 22.6875 9.8125 22.617188 C 9.636719 22.507812 9.53125 22.34375 9.457031 22.152344 C 9.398438 21.992188 9.371094 21.828125 9.363281 21.660156 C 9.339844 21.109375 9.480469 20.601562 9.769531 20.140625 C 10.074219 19.652344 10.496094 19.308594 11.042969 19.125 C 11.261719 19.054688 11.480469 19.011719 11.707031 18.984375 C 11.875 18.96875 12.042969 18.957031 12.210938 18.957031 C 12.425781 18.960938 12.636719 18.984375 12.847656 19.015625 C 13.078125 19.050781 13.292969 19.125 13.5 19.226562 C 13.742188 19.347656 13.957031 19.507812 14.15625 19.691406 C 14.476562 19.988281 14.738281 20.332031 14.96875 20.699219 C 15.226562 21.109375 15.46875 21.53125 15.722656 21.945312 C 15.96875 22.351562 16.222656 22.746094 16.519531 23.113281 C 16.898438 23.578125 17.328125 23.976562 17.851562 24.273438 C 18.222656 24.484375 18.617188 24.632812 19.035156 24.726562 C 19.15625 24.753906 19.28125 24.773438 19.414062 24.800781 C 19.390625 24.808594 19.371094 24.816406 19.351562 24.820312 C 19.097656 24.847656 18.84375 24.882812 18.585938 24.886719 C 18.507812 24.886719 18.429688 24.898438 18.351562 24.898438 C 18.121094 24.890625 17.890625 24.882812 17.664062 24.855469 C 17.390625 24.820312 17.117188 24.765625 16.855469 24.675781 C 16.460938 24.542969 16.101562 24.347656 15.777344 24.089844 C 15.476562 23.847656 15.226562 23.5625 15.007812 23.246094 C 14.707031 22.816406 14.480469 22.351562 14.296875 21.863281 C 14.234375 21.699219 14.179688 21.535156 14.121094 21.371094 C 14.097656 21.308594 14.070312 21.25 14.039062 21.191406 C 14.007812 21.136719 13.960938 21.097656 13.894531 21.09375 C 13.820312 21.089844 13.753906 21.136719 13.726562 21.207031 C 13.707031 21.265625 13.707031 21.324219 13.71875 21.382812 C 13.75 21.527344 13.785156 21.671875 13.808594 21.816406 C 13.847656 22.050781 13.863281 22.289062 13.84375 22.527344 C 13.828125 22.699219 13.800781 22.871094 13.757812 23.039062 C 13.675781 23.347656 13.542969 23.628906 13.359375 23.886719 C 13.035156 24.339844 12.609375 24.660156 12.109375 24.890625 C 11.839844 25.011719 11.5625 25.101562 11.277344 25.164062 C 11.105469 25.199219 10.933594 25.21875 10.761719 25.234375 C 10.566406 25.253906 10.371094 25.253906 10.175781 25.246094 C 10.03125 25.242188 9.882812 25.222656 9.734375 25.203125 C 9.507812 25.179688 9.285156 25.125 9.066406 25.054688 C 8.714844 24.949219 8.378906 24.800781 8.066406 24.609375 C 7.828125 24.464844 7.59375 24.320312 7.355469 24.175781 C 7.222656 24.097656 7.082031 24.039062 6.9375 23.996094 C 6.753906 23.941406 6.574219 23.941406 6.390625 23.988281 C 6.023438 24.082031 5.65625 24.179688 5.289062 24.269531 C 5.085938 24.320312 4.878906 24.367188 4.671875 24.402344 C 4.4375 24.441406 4.199219 24.453125 3.960938 24.4375 C 3.582031 24.410156 3.21875 24.328125 2.859375 24.203125 C 2.546875 24.09375 2.25 23.960938 1.972656 23.777344 C 1.726562 23.617188 1.503906 23.429688 1.3125 23.210938 C 1.207031 23.09375 1.109375 22.976562 1.011719 22.855469 C 1 22.839844 0.992188 22.824219 0.984375 22.808594 L 0.980469 22.808594 "/>
</g>
<path style=" stroke:none;fill-rule:nonzero;fill:rgb(15.956116%,17.138672%,40.968323%);fill-opacity:1;" d="M 4.84375 21.808594 C 4.859375 21.804688 4.871094 21.796875 4.886719 21.792969 C 5.148438 21.722656 5.410156 21.636719 5.660156 21.523438 C 6.03125 21.355469 6.363281 21.128906 6.644531 20.828125 C 6.851562 20.601562 7.03125 20.355469 7.183594 20.089844 C 7.3125 19.863281 7.4375 19.636719 7.554688 19.40625 C 7.6875 19.152344 7.808594 18.890625 7.9375 18.636719 C 8.109375 18.296875 8.300781 17.96875 8.535156 17.667969 C 8.808594 17.3125 9.136719 17.019531 9.53125 16.796875 C 9.816406 16.636719 10.121094 16.523438 10.445312 16.457031 C 10.765625 16.390625 11.09375 16.371094 11.421875 16.394531 C 12.191406 16.449219 12.863281 16.746094 13.449219 17.242188 C 13.71875 17.472656 13.957031 17.730469 14.15625 18.019531 C 14.25 18.160156 14.332031 18.308594 14.417969 18.453125 C 14.425781 18.46875 14.433594 18.484375 14.445312 18.515625 C 14.421875 18.503906 14.40625 18.5 14.398438 18.496094 C 14.164062 18.378906 13.925781 18.265625 13.675781 18.1875 C 13.433594 18.113281 13.191406 18.054688 12.9375 18.019531 C 12.738281 17.992188 12.539062 17.980469 12.339844 17.96875 C 12.128906 17.953125 11.917969 17.960938 11.707031 17.980469 C 11.253906 18.019531 10.816406 18.128906 10.394531 18.308594 C 10.1875 18.402344 10 18.527344 9.816406 18.660156 C 9.585938 18.828125 9.378906 19.015625 9.191406 19.222656 C 9.046875 19.382812 8.910156 19.550781 8.773438 19.71875 C 8.570312 19.976562 8.375 20.238281 8.167969 20.488281 C 7.832031 20.898438 7.433594 21.226562 6.949219 21.441406 C 6.660156 21.570312 6.355469 21.660156 6.042969 21.714844 C 5.828125 21.753906 5.605469 21.785156 5.386719 21.796875 C 5.238281 21.804688 5.085938 21.8125 4.9375 21.820312 C 4.90625 21.824219 4.875 21.820312 4.847656 21.820312 C 4.84375 21.816406 4.84375 21.8125 4.84375 21.808594 "/>
<path style=" stroke:none;fill-rule:nonzero;fill:rgb(34.117126%,32.917786%,33.216858%);fill-opacity:1;" d="M 0.984375 22.808594 C 0.980469 22.804688 0.980469 22.804688 0.976562 22.800781 C 0.980469 22.804688 0.980469 22.804688 0.980469 22.808594 L 0.984375 22.808594 "/>
<path style=" stroke:none;fill-rule:nonzero;fill:rgb(34.117126%,32.917786%,33.216858%);fill-opacity:1;" d="M 16.453125 12.015625 C 16.449219 12.011719 16.449219 12.011719 16.453125 12.015625 C 16.449219 12.007812 16.449219 12.011719 16.453125 12.015625 "/>
<path style=" stroke:none;fill-rule:nonzero;fill:rgb(34.117126%,32.917786%,33.216858%);fill-opacity:1;" d="M 16.929688 12.917969 C 16.921875 12.921875 16.917969 12.925781 16.910156 12.933594 C 16.917969 12.925781 16.921875 12.921875 16.929688 12.917969 "/>
<path style=" stroke:none;fill-rule:nonzero;fill:rgb(34.117126%,32.917786%,33.216858%);fill-opacity:1;" d="M 16.910156 12.933594 C 16.910156 12.9375 16.90625 12.9375 16.914062 12.933594 C 16.90625 12.9375 16.910156 12.9375 16.910156 12.933594 "/>
<path style=" stroke:none;fill-rule:nonzero;fill:rgb(15.257263%,16.712952%,39.328003%);fill-opacity:1;" d="M 33.230469 21.171875 C 32.328125 20.628906 31.617188 19.890625 31.097656 18.953125 C 30.578125 18.015625 30.316406 16.980469 30.316406 15.847656 C 30.316406 14.726562 30.578125 13.695312 31.097656 12.765625 C 31.617188 11.832031 32.328125 11.089844 33.230469 10.542969 C 34.132812 10 35.132812 9.726562 36.222656 9.726562 C 36.996094 9.726562 37.667969 9.828125 38.234375 10.03125 C 38.800781 10.238281 39.375 10.574219 39.957031 11.042969 C 40.078125 11.132812 40.160156 11.226562 40.199219 11.324219 C 40.242188 11.421875 40.261719 11.539062 40.261719 11.667969 C 40.261719 11.875 40.1875 12.042969 40.039062 12.175781 C 39.890625 12.308594 39.722656 12.375 39.527344 12.375 C 39.332031 12.375 39.15625 12.308594 38.992188 12.175781 C 38.574219 11.816406 38.164062 11.558594 37.769531 11.402344 C 37.371094 11.242188 36.855469 11.164062 36.222656 11.164062 C 35.425781 11.164062 34.695312 11.375 34.027344 11.792969 C 33.359375 12.210938 32.828125 12.777344 32.4375 13.5 C 32.042969 14.21875 31.847656 15 31.847656 15.847656 C 31.847656 16.703125 32.042969 17.488281 32.4375 18.203125 C 32.828125 18.917969 33.359375 19.484375 34.027344 19.902344 C 34.695312 20.320312 35.425781 20.527344 36.222656 20.527344 C 37.203125 20.527344 38.140625 20.191406 39.039062 19.519531 C 39.210938 19.394531 39.378906 19.335938 39.542969 19.335938 C 39.734375 19.335938 39.898438 19.402344 40.023438 19.542969 C 40.152344 19.679688 40.214844 19.859375 40.214844 20.085938 C 40.214844 20.296875 40.132812 20.488281 39.972656 20.652344 C 38.871094 21.539062 37.621094 21.980469 36.222656 21.980469 C 35.132812 21.980469 34.132812 21.710938 33.230469 21.171875 "/>
<path style=" stroke:none;fill-rule:nonzero;fill:rgb(15.257263%,16.712952%,39.328003%);fill-opacity:1;" d="M 47.167969 20.136719 C 47.582031 19.886719 47.90625 19.546875 48.140625 19.113281 C 48.375 18.679688 48.492188 18.191406 48.492188 17.652344 C 48.492188 17.109375 48.375 16.621094 48.140625 16.183594 C 47.90625 15.746094 47.582031 15.402344 47.167969 15.152344 C 46.757812 14.902344 46.292969 14.777344 45.785156 14.777344 C 45.273438 14.777344 44.8125 14.902344 44.402344 15.152344 C 43.988281 15.402344 43.660156 15.746094 43.421875 16.183594 C 43.179688 16.621094 43.0625 17.109375 43.0625 17.652344 C 43.0625 18.191406 43.179688 18.679688 43.421875 19.113281 C 43.660156 19.546875 43.988281 19.886719 44.402344 20.136719 C 44.8125 20.386719 45.273438 20.511719 45.785156 20.511719 C 46.292969 20.511719 46.757812 20.386719 47.167969 20.136719 Z M 47.917969 13.957031 C 48.554688 14.328125 49.0625 14.839844 49.433594 15.488281 C 49.804688 16.136719 49.992188 16.855469 49.992188 17.652344 L 49.992188 21.0625 C 49.992188 21.289062 49.917969 21.476562 49.769531 21.621094 C 49.621094 21.769531 49.4375 21.84375 49.210938 21.84375 C 48.988281 21.84375 48.800781 21.769531 48.652344 21.621094 C 48.507812 21.476562 48.433594 21.289062 48.433594 21.0625 L 48.433594 20.496094 C 48.074219 20.9375 47.640625 21.277344 47.132812 21.523438 C 46.621094 21.769531 46.070312 21.890625 45.480469 21.890625 C 44.746094 21.890625 44.078125 21.707031 43.480469 21.339844 C 42.886719 20.972656 42.417969 20.464844 42.074219 19.816406 C 41.734375 19.167969 41.5625 18.449219 41.5625 17.652344 C 41.5625 16.855469 41.746094 16.136719 42.113281 15.488281 C 42.480469 14.839844 42.988281 14.328125 43.636719 13.957031 C 44.28125 13.585938 45 13.398438 45.785156 13.398438 C 46.570312 13.398438 47.28125 13.585938 47.917969 13.957031 "/>
<path style=" stroke:none;fill-rule:nonzero;fill:rgb(15.257263%,16.712952%,39.328003%);fill-opacity:1;" d="M 63.265625 14.253906 C 63.808594 14.835938 64.082031 15.648438 64.082031 16.6875 L 64.082031 21.0625 C 64.082031 21.289062 64.011719 21.476562 63.867188 21.621094 C 63.726562 21.769531 63.539062 21.84375 63.304688 21.84375 C 63.078125 21.84375 62.894531 21.769531 62.746094 21.621094 C 62.597656 21.476562 62.523438 21.289062 62.523438 21.0625 L 62.523438 16.6875 C 62.523438 16.066406 62.367188 15.59375 62.054688 15.273438 C 61.746094 14.953125 61.328125 14.789062 60.808594 14.789062 C 60.277344 14.789062 59.84375 14.972656 59.5 15.34375 C 59.160156 15.710938 58.988281 16.179688 58.988281 16.75 L 58.988281 21.0625 C 58.988281 21.289062 58.917969 21.476562 58.773438 21.621094 C 58.632812 21.769531 58.441406 21.84375 58.207031 21.84375 C 57.984375 21.84375 57.796875 21.769531 57.648438 21.621094 C 57.503906 21.476562 57.429688 21.289062 57.429688 21.0625 L 57.429688 16.6875 C 57.429688 16.066406 57.273438 15.59375 56.960938 15.273438 C 56.648438 14.953125 56.234375 14.789062 55.714844 14.789062 C 55.171875 14.789062 54.730469 14.972656 54.390625 15.34375 C 54.050781 15.710938 53.878906 16.179688 53.878906 16.75 L 53.878906 21.0625 C 53.878906 21.289062 53.808594 21.476562 53.664062 21.621094 C 53.523438 21.769531 53.332031 21.84375 53.097656 21.84375 C 52.875 21.84375 52.6875 21.769531 52.539062 21.621094 C 52.390625 21.476562 52.316406 21.289062 52.316406 21.0625 L 52.316406 14.253906 C 52.316406 14.019531 52.390625 13.832031 52.539062 13.6875 C 52.6875 13.546875 52.875 13.476562 53.097656 13.476562 C 53.324219 13.476562 53.507812 13.542969 53.648438 13.679688 C 53.792969 13.820312 53.867188 14 53.878906 14.226562 C 54.144531 13.960938 54.460938 13.753906 54.828125 13.605469 C 55.195312 13.457031 55.59375 13.382812 56.019531 13.382812 C 56.539062 13.382812 57.007812 13.488281 57.421875 13.695312 C 57.832031 13.90625 58.171875 14.203125 58.4375 14.59375 C 58.742188 14.214844 59.125 13.917969 59.585938 13.703125 C 60.042969 13.488281 60.554688 13.382812 61.113281 13.382812 C 62.003906 13.382812 62.71875 13.671875 63.265625 14.253906 "/>
<path style=" stroke:none;fill-rule:nonzero;fill:rgb(15.257263%,16.712952%,39.328003%);fill-opacity:1;" d="M 72.261719 20.136719 C 72.675781 19.886719 73 19.542969 73.238281 19.105469 C 73.480469 18.667969 73.597656 18.175781 73.597656 17.636719 C 73.597656 17.097656 73.480469 16.609375 73.238281 16.175781 C 73 15.742188 72.675781 15.402344 72.261719 15.152344 C 71.847656 14.902344 71.386719 14.777344 70.875 14.777344 C 70.367188 14.777344 69.90625 14.902344 69.492188 15.152344 C 69.078125 15.402344 68.753906 15.742188 68.519531 16.175781 C 68.285156 16.609375 68.167969 17.097656 68.167969 17.636719 C 68.167969 18.175781 68.285156 18.667969 68.519531 19.105469 C 68.753906 19.542969 69.078125 19.886719 69.492188 20.136719 C 69.90625 20.386719 70.367188 20.511719 70.875 20.511719 C 71.386719 20.511719 71.847656 20.386719 72.261719 20.136719 Z M 73.179688 13.949219 C 73.777344 14.316406 74.246094 14.824219 74.585938 15.472656 C 74.929688 16.121094 75.097656 16.839844 75.097656 17.636719 C 75.097656 18.433594 74.914062 19.152344 74.546875 19.800781 C 74.179688 20.449219 73.671875 20.960938 73.027344 21.332031 C 72.378906 21.703125 71.660156 21.890625 70.875 21.890625 C 70.089844 21.890625 69.378906 21.703125 68.742188 21.332031 C 68.105469 20.960938 67.597656 20.449219 67.226562 19.800781 C 66.855469 19.152344 66.667969 18.433594 66.667969 17.636719 L 66.667969 10.660156 C 66.667969 10.425781 66.742188 10.238281 66.890625 10.09375 C 67.039062 9.953125 67.222656 9.878906 67.449219 9.878906 C 67.683594 9.878906 67.871094 9.953125 68.015625 10.09375 C 68.15625 10.238281 68.230469 10.425781 68.230469 10.660156 L 68.230469 14.789062 C 68.585938 14.351562 69.019531 14.011719 69.53125 13.765625 C 70.039062 13.519531 70.589844 13.398438 71.183594 13.398438 C 71.917969 13.398438 72.582031 13.582031 73.179688 13.949219 "/>
<path style=" stroke:none;fill-rule:nonzero;fill:rgb(15.257263%,16.712952%,39.328003%);fill-opacity:1;" d="M 82.617188 20.144531 C 83.03125 19.902344 83.351562 19.5625 83.582031 19.128906 C 83.8125 18.695312 83.925781 18.203125 83.925781 17.652344 C 83.925781 17.101562 83.8125 16.605469 83.582031 16.167969 C 83.351562 15.730469 83.03125 15.386719 82.617188 15.144531 C 82.207031 14.898438 81.738281 14.777344 81.21875 14.777344 C 80.699219 14.777344 80.230469 14.898438 79.820312 15.144531 C 79.40625 15.386719 79.082031 15.730469 78.847656 16.167969 C 78.613281 16.605469 78.496094 17.101562 78.496094 17.652344 C 78.496094 18.203125 78.613281 18.695312 78.847656 19.128906 C 79.082031 19.5625 79.40625 19.902344 79.820312 20.144531 C 80.230469 20.390625 80.699219 20.511719 81.21875 20.511719 C 81.738281 20.511719 82.207031 20.390625 82.617188 20.144531 Z M 79.03125 21.347656 C 78.390625 20.984375 77.890625 20.480469 77.53125 19.839844 C 77.175781 19.199219 76.996094 18.46875 76.996094 17.652344 C 76.996094 16.824219 77.175781 16.089844 77.53125 15.449219 C 77.890625 14.804688 78.390625 14.304688 79.03125 13.941406 C 79.671875 13.578125 80.402344 13.398438 81.21875 13.398438 C 82.023438 13.398438 82.746094 13.578125 83.382812 13.941406 C 84.023438 14.304688 84.519531 14.804688 84.882812 15.449219 C 85.246094 16.089844 85.425781 16.824219 85.425781 17.652344 C 85.425781 18.46875 85.246094 19.199219 84.890625 19.839844 C 84.535156 20.480469 84.035156 20.984375 83.398438 21.347656 C 82.761719 21.710938 82.035156 21.890625 81.21875 21.890625 C 80.402344 21.890625 79.671875 21.710938 79.03125 21.347656 "/>
<path style=" stroke:none;fill-rule:nonzero;fill:rgb(15.257263%,16.712952%,39.328003%);fill-opacity:1;" d="M 92.929688 20.136719 C 93.34375 19.886719 93.667969 19.542969 93.902344 19.105469 C 94.136719 18.667969 94.253906 18.175781 94.253906 17.636719 C 94.253906 17.097656 94.136719 16.609375 93.902344 16.175781 C 93.667969 15.742188 93.34375 15.402344 92.929688 15.152344 C 92.519531 14.902344 92.054688 14.777344 91.546875 14.777344 C 91.035156 14.777344 90.574219 14.902344 90.160156 15.152344 C 89.75 15.402344 89.421875 15.742188 89.183594 16.175781 C 88.941406 16.609375 88.824219 17.097656 88.824219 17.636719 C 88.824219 18.175781 88.941406 18.667969 89.183594 19.105469 C 89.421875 19.542969 89.75 19.886719 90.160156 20.136719 C 90.574219 20.386719 91.035156 20.511719 91.546875 20.511719 C 92.054688 20.511719 92.519531 20.386719 92.929688 20.136719 Z M 95.539062 10.09375 C 95.683594 10.238281 95.753906 10.425781 95.753906 10.660156 L 95.753906 17.636719 C 95.753906 18.433594 95.566406 19.152344 95.195312 19.800781 C 94.824219 20.449219 94.316406 20.960938 93.679688 21.332031 C 93.042969 21.703125 92.332031 21.890625 91.546875 21.890625 C 90.761719 21.890625 90.042969 21.703125 89.398438 21.332031 C 88.75 20.960938 88.242188 20.449219 87.875 19.800781 C 87.507812 19.152344 87.324219 18.433594 87.324219 17.636719 C 87.324219 16.839844 87.492188 16.121094 87.835938 15.472656 C 88.175781 14.824219 88.648438 14.316406 89.242188 13.949219 C 89.839844 13.582031 90.507812 13.398438 91.238281 13.398438 C 91.832031 13.398438 92.382812 13.519531 92.894531 13.765625 C 93.402344 14.011719 93.835938 14.351562 94.191406 14.789062 L 94.191406 10.660156 C 94.191406 10.425781 94.265625 10.238281 94.414062 10.09375 C 94.5625 9.953125 94.75 9.878906 94.972656 9.878906 C 95.207031 9.878906 95.398438 9.953125 95.539062 10.09375 "/>
<path style=" stroke:none;fill-rule:nonzero;fill:rgb(15.257263%,16.712952%,39.328003%);fill-opacity:1;" d="M 98.882812 21.605469 C 98.734375 21.460938 98.660156 21.273438 98.660156 21.046875 L 98.660156 14.238281 C 98.660156 14.003906 98.734375 13.816406 98.882812 13.671875 C 99.03125 13.53125 99.214844 13.460938 99.441406 13.460938 C 99.675781 13.460938 99.863281 13.53125 100.007812 13.671875 C 100.148438 13.816406 100.222656 14.003906 100.222656 14.238281 L 100.222656 21.046875 C 100.222656 21.273438 100.148438 21.460938 100.007812 21.605469 C 99.863281 21.753906 99.675781 21.828125 99.441406 21.828125 C 99.214844 21.828125 99.03125 21.753906 98.882812 21.605469 Z M 98.730469 11.800781 C 98.53125 11.601562 98.429688 11.363281 98.429688 11.089844 C 98.429688 10.8125 98.53125 10.574219 98.730469 10.378906 C 98.929688 10.175781 99.164062 10.078125 99.441406 10.078125 C 99.714844 10.078125 99.953125 10.175781 100.152344 10.378906 C 100.351562 10.574219 100.449219 10.8125 100.449219 11.089844 C 100.449219 11.363281 100.351562 11.601562 100.152344 11.800781 C 99.953125 12 99.714844 12.097656 99.441406 12.097656 C 99.164062 12.097656 98.929688 12 98.730469 11.800781 "/>
<path style=" stroke:none;fill-rule:nonzero;fill:rgb(15.257263%,16.712952%,39.328003%);fill-opacity:1;" d="M 108.308594 20.136719 C 108.71875 19.886719 109.042969 19.546875 109.277344 19.113281 C 109.511719 18.679688 109.628906 18.191406 109.628906 17.652344 C 109.628906 17.109375 109.511719 16.621094 109.277344 16.183594 C 109.042969 15.746094 108.71875 15.402344 108.308594 15.152344 C 107.894531 14.902344 107.433594 14.777344 106.921875 14.777344 C 106.410156 14.777344 105.949219 14.902344 105.539062 15.152344 C 105.125 15.402344 104.796875 15.746094 104.558594 16.183594 C 104.316406 16.621094 104.199219 17.109375 104.199219 17.652344 C 104.199219 18.191406 104.316406 18.679688 104.558594 19.113281 C 104.796875 19.546875 105.125 19.886719 105.539062 20.136719 C 105.949219 20.386719 106.410156 20.511719 106.921875 20.511719 C 107.433594 20.511719 107.894531 20.386719 108.308594 20.136719 Z M 109.058594 13.957031 C 109.695312 14.328125 110.199219 14.839844 110.570312 15.488281 C 110.941406 16.136719 111.128906 16.855469 111.128906 17.652344 L 111.128906 21.0625 C 111.128906 21.289062 111.054688 21.476562 110.90625 21.621094 C 110.761719 21.769531 110.574219 21.84375 110.347656 21.84375 C 110.125 21.84375 109.9375 21.769531 109.789062 21.621094 C 109.644531 21.476562 109.570312 21.289062 109.570312 21.0625 L 109.570312 20.496094 C 109.210938 20.9375 108.777344 21.277344 108.269531 21.523438 C 107.757812 21.769531 107.207031 21.890625 106.617188 21.890625 C 105.882812 21.890625 105.214844 21.707031 104.621094 21.339844 C 104.023438 20.972656 103.554688 20.464844 103.210938 19.816406 C 102.871094 19.167969 102.699219 18.449219 102.699219 17.652344 C 102.699219 16.855469 102.882812 16.136719 103.25 15.488281 C 103.617188 14.839844 104.125 14.328125 104.773438 13.957031 C 105.421875 13.585938 106.136719 13.398438 106.921875 13.398438 C 107.707031 13.398438 108.417969 13.585938 109.058594 13.957031 "/>
<path style=" stroke:none;fill-rule:nonzero;fill:rgb(15.257263%,16.712952%,39.328003%);fill-opacity:1;" d="M 119.4375 17.957031 L 124.515625 17.957031 L 121.976562 11.824219 Z M 127.117188 21.230469 C 127.117188 21.394531 127.058594 21.535156 126.941406 21.652344 C 126.824219 21.769531 126.683594 21.828125 126.519531 21.828125 C 126.257812 21.828125 126.066406 21.707031 125.953125 21.460938 L 124.929688 18.984375 L 119.007812 18.984375 L 117.984375 21.460938 C 117.902344 21.707031 117.71875 21.828125 117.433594 21.828125 C 117.257812 21.828125 117.117188 21.769531 117.011719 21.652344 C 116.90625 21.535156 116.851562 21.394531 116.851562 21.230469 C 116.851562 21.128906 116.867188 21.042969 116.898438 20.972656 L 121.394531 10.292969 C 121.507812 10.015625 121.703125 9.878906 121.976562 9.878906 C 122.253906 9.878906 122.441406 10.015625 122.542969 10.292969 L 127.058594 20.988281 C 127.097656 21.058594 127.117188 21.140625 127.117188 21.230469 "/>
<path style=" stroke:none;fill-rule:nonzero;fill:rgb(15.257263%,16.712952%,39.328003%);fill-opacity:1;" d="M 129.105469 21.660156 C 128.992188 21.546875 128.9375 21.40625 128.9375 21.230469 L 128.9375 14.054688 C 128.9375 13.882812 128.992188 13.738281 129.105469 13.628906 C 129.21875 13.515625 129.359375 13.460938 129.535156 13.460938 C 129.707031 13.460938 129.847656 13.515625 129.957031 13.628906 C 130.0625 13.738281 130.117188 13.882812 130.117188 14.054688 L 130.117188 21.230469 C 130.117188 21.40625 130.0625 21.546875 129.957031 21.660156 C 129.847656 21.773438 129.707031 21.828125 129.535156 21.828125 C 129.359375 21.828125 129.21875 21.773438 129.105469 21.660156 Z M 128.929688 11.625 C 128.773438 11.460938 128.691406 11.261719 128.691406 11.027344 C 128.691406 10.78125 128.773438 10.582031 128.9375 10.429688 C 129.101562 10.277344 129.300781 10.199219 129.535156 10.199219 C 129.757812 10.199219 129.953125 10.277344 130.117188 10.429688 C 130.277344 10.582031 130.359375 10.78125 130.359375 11.027344 C 130.359375 11.261719 130.277344 11.460938 130.117188 11.625 C 129.953125 11.789062 129.753906 11.867188 129.519531 11.867188 C 129.285156 11.867188 129.089844 11.789062 128.929688 11.625 "/>
<path style=" stroke:none;fill-rule:nonzero;fill:rgb(15.257263%,16.712952%,39.328003%);fill-opacity:1;" d="M 137.910156 13.535156 C 138.160156 13.648438 138.285156 13.804688 138.285156 14.011719 C 138.285156 14.070312 138.28125 14.117188 138.269531 14.148438 C 138.230469 14.292969 138.164062 14.386719 138.078125 14.4375 C 137.992188 14.488281 137.871094 14.515625 137.71875 14.515625 C 137.628906 14.515625 137.46875 14.503906 137.246094 14.484375 C 137.164062 14.476562 137.042969 14.46875 136.878906 14.46875 C 136.113281 14.46875 135.488281 14.671875 135.003906 15.082031 C 134.519531 15.488281 134.277344 16.019531 134.277344 16.671875 L 134.277344 21.246094 C 134.277344 21.429688 134.226562 21.574219 134.125 21.675781 C 134.023438 21.777344 133.878906 21.828125 133.695312 21.828125 C 133.511719 21.828125 133.371094 21.777344 133.269531 21.675781 C 133.164062 21.574219 133.113281 21.429688 133.113281 21.246094 L 133.113281 14.042969 C 133.113281 13.855469 133.164062 13.714844 133.269531 13.613281 C 133.371094 13.511719 133.511719 13.460938 133.695312 13.460938 C 133.878906 13.460938 134.023438 13.511719 134.125 13.613281 C 134.226562 13.714844 134.277344 13.855469 134.277344 14.042969 L 134.277344 14.714844 C 134.574219 14.285156 134.949219 13.953125 135.410156 13.71875 C 135.867188 13.484375 136.363281 13.367188 136.894531 13.367188 C 137.320312 13.367188 137.660156 13.421875 137.910156 13.535156 "/>
<path style=" stroke:none;fill-rule:nonzero;fill:rgb(15.257263%,16.712952%,39.328003%);fill-opacity:1;" d="M 149.667969 13.597656 C 149.761719 13.6875 149.808594 13.8125 149.808594 13.964844 C 149.808594 14.085938 149.785156 14.195312 149.746094 14.285156 L 147.359375 21.445312 C 147.316406 21.558594 147.25 21.652344 147.152344 21.722656 C 147.054688 21.792969 146.941406 21.828125 146.808594 21.828125 C 146.675781 21.828125 146.554688 21.792969 146.449219 21.722656 C 146.339844 21.652344 146.273438 21.558594 146.242188 21.445312 L 144.40625 15.355469 L 142.570312 21.445312 C 142.527344 21.570312 142.457031 21.664062 142.355469 21.730469 C 142.253906 21.796875 142.140625 21.828125 142.019531 21.828125 C 141.886719 21.828125 141.773438 21.792969 141.675781 21.722656 C 141.578125 21.652344 141.503906 21.558594 141.453125 21.445312 L 139.066406 14.285156 C 139.035156 14.164062 139.019531 14.054688 139.019531 13.964844 C 139.019531 13.628906 139.183594 13.460938 139.511719 13.460938 C 139.796875 13.460938 139.988281 13.605469 140.089844 13.902344 L 142.050781 19.871094 L 143.855469 13.917969 C 143.894531 13.777344 143.964844 13.664062 144.0625 13.582031 C 144.160156 13.5 144.285156 13.460938 144.4375 13.460938 C 144.589844 13.460938 144.714844 13.5 144.8125 13.582031 C 144.90625 13.664062 144.976562 13.777344 145.019531 13.917969 L 146.777344 19.839844 L 148.722656 13.902344 C 148.820312 13.605469 149.011719 13.460938 149.285156 13.460938 C 149.449219 13.460938 149.578125 13.503906 149.667969 13.597656 "/>
<path style=" stroke:none;fill-rule:nonzero;fill:rgb(15.257263%,16.712952%,39.328003%);fill-opacity:1;" d="M 156.433594 20.421875 C 156.898438 20.144531 157.269531 19.765625 157.539062 19.28125 C 157.8125 18.796875 157.945312 18.253906 157.945312 17.652344 C 157.945312 17.050781 157.8125 16.507812 157.539062 16.023438 C 157.269531 15.539062 156.898438 15.15625 156.433594 14.875 C 155.964844 14.59375 155.4375 14.453125 154.855469 14.453125 C 154.273438 14.453125 153.746094 14.59375 153.273438 14.875 C 152.796875 15.15625 152.425781 15.539062 152.15625 16.023438 C 151.886719 16.507812 151.75 17.050781 151.75 17.652344 C 151.75 18.253906 151.886719 18.796875 152.15625 19.28125 C 152.425781 19.765625 152.796875 20.144531 153.273438 20.421875 C 153.746094 20.695312 154.273438 20.835938 154.855469 20.835938 C 155.4375 20.835938 155.964844 20.695312 156.433594 20.421875 Z M 157.019531 13.941406 C 157.667969 14.3125 158.179688 14.828125 158.550781 15.480469 C 158.921875 16.132812 159.109375 16.855469 159.109375 17.652344 L 159.109375 21.246094 C 159.109375 21.410156 159.054688 21.546875 158.941406 21.660156 C 158.828125 21.773438 158.6875 21.828125 158.511719 21.828125 C 158.339844 21.828125 158.195312 21.773438 158.085938 21.667969 C 157.972656 21.5625 157.914062 21.421875 157.914062 21.246094 L 157.914062 20.328125 C 157.558594 20.820312 157.105469 21.203125 156.554688 21.484375 C 156.003906 21.765625 155.394531 21.90625 154.734375 21.90625 C 153.957031 21.90625 153.257812 21.71875 152.628906 21.347656 C 152.003906 20.976562 151.507812 20.464844 151.144531 19.816406 C 150.78125 19.167969 150.601562 18.449219 150.601562 17.652344 C 150.601562 16.855469 150.789062 16.132812 151.160156 15.480469 C 151.53125 14.828125 152.042969 14.3125 152.691406 13.941406 C 153.339844 13.570312 154.0625 13.382812 154.855469 13.382812 C 155.652344 13.382812 156.371094 13.570312 157.019531 13.941406 "/>
<g clip-path="url(#clip2)" clip-rule="nonzero">
<path style=" stroke:none;fill-rule:nonzero;fill:rgb(15.257263%,16.712952%,39.328003%);fill-opacity:1;" d="M 168.304688 13.949219 C 168.304688 14.042969 168.285156 14.132812 168.242188 14.226562 L 163.285156 25.117188 C 163.195312 25.351562 163.046875 25.46875 162.84375 25.46875 C 162.738281 25.46875 162.648438 25.449219 162.566406 25.410156 C 162.332031 25.316406 162.214844 25.164062 162.214844 24.949219 C 162.214844 24.859375 162.234375 24.765625 162.277344 24.675781 L 163.789062 21.324219 L 163.789062 21.308594 L 160.378906 14.238281 C 160.339844 14.160156 160.316406 14.066406 160.316406 13.964844 C 160.316406 13.75 160.429688 13.597656 160.652344 13.503906 C 160.734375 13.464844 160.828125 13.445312 160.929688 13.445312 C 161.144531 13.445312 161.296875 13.550781 161.390625 13.765625 L 164.371094 20.054688 L 167.21875 13.78125 C 167.320312 13.554688 167.472656 13.445312 167.675781 13.445312 C 167.769531 13.445312 167.859375 13.464844 167.953125 13.503906 C 168.1875 13.597656 168.304688 13.746094 168.304688 13.949219 "/>
</g>
<path style=" stroke:none;fill-rule:nonzero;fill:rgb(15.257263%,16.712952%,39.328003%);fill-opacity:1;" d="M 170.890625 21.585938 C 170.308594 21.371094 169.839844 21.070312 169.480469 20.679688 C 169.378906 20.558594 169.328125 20.441406 169.328125 20.328125 C 169.328125 20.15625 169.410156 20.003906 169.574219 19.871094 C 169.695312 19.777344 169.824219 19.730469 169.957031 19.730469 C 170.128906 19.730469 170.277344 19.804688 170.398438 19.945312 C 170.644531 20.230469 170.96875 20.453125 171.371094 20.605469 C 171.773438 20.757812 172.222656 20.835938 172.710938 20.835938 C 173.425781 20.835938 173.960938 20.710938 174.316406 20.46875 C 174.675781 20.222656 174.855469 19.902344 174.867188 19.503906 C 174.867188 19.136719 174.6875 18.832031 174.332031 18.585938 C 173.976562 18.339844 173.410156 18.15625 172.632812 18.035156 C 171.632812 17.871094 170.886719 17.589844 170.394531 17.183594 C 169.898438 16.78125 169.648438 16.296875 169.648438 15.722656 C 169.648438 14.980469 169.9375 14.402344 170.515625 13.996094 C 171.089844 13.585938 171.8125 13.382812 172.679688 13.382812 C 173.355469 13.382812 173.9375 13.5 174.4375 13.726562 C 174.9375 13.957031 175.34375 14.277344 175.648438 14.683594 C 175.730469 14.816406 175.769531 14.933594 175.769531 15.035156 C 175.769531 15.210938 175.6875 15.347656 175.523438 15.449219 C 175.453125 15.5 175.355469 15.527344 175.234375 15.527344 C 175.019531 15.527344 174.84375 15.449219 174.699219 15.296875 C 174.199219 14.726562 173.515625 14.4375 172.648438 14.4375 C 172.089844 14.4375 171.640625 14.554688 171.304688 14.785156 C 170.96875 15.011719 170.796875 15.300781 170.796875 15.648438 C 170.796875 16.015625 170.957031 16.308594 171.273438 16.527344 C 171.589844 16.746094 172.148438 16.921875 172.953125 17.054688 C 174.046875 17.238281 174.828125 17.539062 175.296875 17.949219 C 175.765625 18.363281 176 18.875 176 19.488281 C 176 19.957031 175.859375 20.375 175.578125 20.742188 C 175.300781 21.109375 174.90625 21.394531 174.410156 21.597656 C 173.910156 21.804688 173.34375 21.90625 172.710938 21.90625 C 172.078125 21.90625 171.472656 21.796875 170.890625 21.585938 "/>
</g>
</svg>
