<?xml version="1.0" encoding="UTF-8"?>
<svg xmlns="http://www.w3.org/2000/svg" xmlns:xlink="http://www.w3.org/1999/xlink" width="176pt" height="28.73pt" viewBox="0 0 176 28.73" version="1.1">
<defs>
<clipPath id="clip1">
  <path d="M 19 7 L 176 7 L 176 28.730469 L 19 28.730469 Z M 19 7 "/>
</clipPath>
</defs>
<g id="surface1">
<g clip-path="url(#clip1)" clip-rule="nonzero">
<path style=" stroke:none;fill-rule:nonzero;fill:rgb(14.839172%,26.864624%,55.351257%);fill-opacity:1;" d="M 154.078125 17.902344 L 154.375 17.902344 L 154.375 21.835938 C 154.222656 22.066406 153.664062 22.796875 152.691406 22.796875 C 151.429688 22.796875 150.628906 22 150.628906 20.671875 C 150.628906 18.480469 152.808594 17.902344 154.078125 17.902344 Z M 80.421875 17.902344 L 80.722656 17.902344 L 80.722656 21.835938 C 80.566406 22.066406 80.015625 22.796875 79.039062 22.796875 C 77.773438 22.796875 76.976562 22 76.976562 20.671875 C 76.976562 18.480469 79.15625 17.902344 80.421875 17.902344 Z M 40.496094 17.902344 L 40.796875 17.902344 L 40.796875 21.835938 C 40.644531 22.066406 40.089844 22.796875 39.113281 22.796875 C 37.847656 22.796875 37.050781 22 37.050781 20.671875 C 37.050781 18.480469 39.234375 17.902344 40.496094 17.902344 Z M 157.320312 12.644531 L 157.320312 13.164062 L 157.886719 13.351562 C 158.75 13.636719 158.761719 14.003906 159.050781 14.769531 L 161.710938 21.082031 C 161.996094 21.808594 162.371094 22.703125 162.371094 23.660156 C 162.371094 25.847656 160.167969 26.328125 158.925781 27.46875 C 158.773438 27.679688 158.640625 28.195312 158.59375 28.683594 C 158.75 28.703125 158.894531 28.730469 159.050781 28.730469 C 161.265625 28.730469 162.285156 26.351562 163.125 24.226562 L 165.535156 18.296875 C 166.15625 16.710938 167.183594 14.1875 167.691406 13.652344 C 167.84375 13.492188 168.09375 13.394531 168.289062 13.320312 L 168.761719 13.164062 L 168.761719 12.644531 L 164.257812 12.644531 L 164.257812 13.164062 L 165.421875 13.371094 C 165.6875 13.414062 166.101562 13.464844 166.101562 13.746094 C 166.101562 14.398438 163.863281 20.324219 163.597656 21.003906 L 161.0625 14.519531 C 160.957031 14.242188 160.84375 13.90625 160.84375 13.808594 C 160.84375 13.554688 161.222656 13.460938 161.550781 13.371094 L 162.417969 13.164062 L 162.417969 12.644531 Z M 131.714844 12.644531 L 131.714844 13.164062 L 132.375 13.320312 C 133.015625 13.488281 133.09375 14.03125 133.335938 14.753906 L 136.324219 23.613281 C 136.636719 23.566406 136.96875 23.308594 137.191406 23.09375 L 140.007812 15.746094 L 143.046875 23.613281 C 143.246094 23.546875 143.625 23.355469 143.847656 23.09375 L 146.710938 15.007812 C 147.089844 13.914062 147.261719 13.511719 147.859375 13.320312 L 148.363281 13.164062 L 148.363281 12.644531 L 144.050781 12.644531 L 144.050781 13.164062 L 144.792969 13.304688 C 145.546875 13.445312 145.785156 13.492188 145.785156 13.890625 C 145.785156 14.21875 145.613281 14.765625 145.546875 14.972656 L 143.863281 20.78125 L 143.816406 20.78125 L 140.777344 12.773438 C 140.597656 12.773438 140.300781 12.882812 140.148438 12.976562 L 137.207031 20.78125 L 137.175781 20.78125 L 135.285156 14.675781 C 135.222656 14.464844 135.128906 14.191406 135.128906 13.9375 C 135.128906 13.515625 135.300781 13.4375 135.898438 13.320312 L 136.703125 13.164062 L 136.703125 12.644531 Z M 43.738281 12.644531 L 43.738281 13.164062 L 44.320312 13.351562 C 45.1875 13.636719 45.183594 14.003906 45.46875 14.769531 L 48.128906 21.082031 C 48.417969 21.808594 48.789062 22.703125 48.789062 23.660156 C 48.789062 25.847656 46.605469 26.328125 45.359375 27.46875 C 45.207031 27.679688 45.074219 28.195312 45.03125 28.683594 C 45.1875 28.703125 45.316406 28.730469 45.46875 28.730469 C 47.6875 28.730469 48.703125 26.351562 49.546875 24.226562 L 51.96875 18.296875 C 52.59375 16.710938 53.617188 14.1875 54.125 13.652344 C 54.28125 13.492188 54.523438 13.394531 54.722656 13.320312 L 55.179688 13.164062 L 55.179688 12.644531 L 50.679688 12.644531 L 50.679688 13.164062 L 51.859375 13.371094 C 52.125 13.417969 52.519531 13.464844 52.519531 13.746094 C 52.519531 14.398438 50.285156 20.324219 50.019531 21.003906 L 47.484375 14.519531 C 47.371094 14.242188 47.265625 13.90625 47.265625 13.808594 C 47.265625 13.554688 47.640625 13.460938 47.972656 13.371094 L 48.839844 13.164062 L 48.839844 12.644531 Z M 172.695312 12.300781 C 170.765625 12.300781 169.152344 13.347656 169.152344 15.257812 C 169.152344 19.0625 174.078125 17.941406 174.078125 21.113281 C 174.078125 21.933594 173.488281 22.84375 172.488281 22.84375 C 170.714844 22.84375 169.960938 21.324219 169.515625 19.804688 L 168.917969 19.804688 C 168.917969 20.71875 169.007812 21.886719 169.34375 22.9375 C 169.9375 23.21875 170.71875 23.613281 172.160156 23.613281 C 174.265625 23.613281 176 22.554688 176 20.339844 C 176 16.613281 171.074219 17.378906 171.074219 14.722656 C 171.074219 13.699219 171.648438 13.070312 172.488281 13.070312 C 173.933594 13.070312 174.648438 14.742188 174.648438 15.792969 L 175.339844 15.792969 C 175.339844 14.558594 175.261719 13.816406 175.039062 12.976562 C 174.550781 12.675781 173.871094 12.300781 172.695312 12.300781 Z M 153.242188 12.300781 C 150.890625 12.300781 149.472656 13.867188 148.804688 14.800781 C 148.960938 15.222656 149.144531 15.449219 149.386719 15.730469 L 149.558594 15.730469 C 149.976562 14.867188 150.539062 13.402344 152.316406 13.402344 C 153.980469 13.402344 154.375 14.726562 154.375 16.265625 L 154.375 16.800781 C 152.425781 17.40625 148.585938 18.320312 148.585938 21.347656 C 148.585938 22.632812 149.695312 23.613281 151.339844 23.613281 C 153.066406 23.613281 153.886719 23.109375 154.597656 22.625 C 154.816406 23.109375 155.214844 23.613281 156.34375 23.613281 C 157.273438 23.613281 157.753906 23.242188 158.042969 23.03125 L 157.933594 22.703125 C 157.84375 22.75 157.746094 22.796875 157.523438 22.796875 C 156.300781 22.796875 156.3125 21.042969 156.3125 19.414062 L 156.3125 16.074219 C 156.3125 13.695312 155.769531 12.300781 153.242188 12.300781 Z M 127.261719 12.300781 C 126.640625 12.300781 125.15625 12.746094 124.050781 13.164062 L 124.222656 13.714844 L 124.425781 13.652344 C 124.601562 13.605469 124.769531 13.511719 124.945312 13.511719 C 125.566406 13.511719 125.574219 14.019531 125.574219 16.421875 L 125.574219 20.96875 C 125.574219 22.582031 125.378906 22.578125 124.601562 22.671875 L 124.066406 22.75 L 124.066406 23.253906 L 129.367188 23.253906 L 129.367188 22.75 L 128.847656 22.671875 C 127.671875 22.578125 127.511719 22.582031 127.511719 20.96875 L 127.511719 14.722656 C 127.511719 14.375 127.855469 13.808594 128.566406 13.808594 C 128.875 13.808594 130.082031 14.214844 130.390625 14.328125 C 130.902344 13.910156 131.199219 13.566406 131.507812 13.007812 C 131.222656 12.820312 130.511719 12.300781 129.824219 12.300781 C 128.695312 12.300781 127.746094 13.4375 127.417969 13.808594 C 127.417969 13.179688 127.351562 12.699219 127.261719 12.300781 Z M 121.832031 12.300781 C 121.050781 12.300781 119.027344 12.90625 118.382812 13.117188 L 118.476562 13.683594 L 118.964844 13.542969 C 119.011719 13.542969 119.152344 13.511719 119.265625 13.511719 C 119.886719 13.511719 119.894531 14.167969 119.894531 16.453125 L 119.894531 20.96875 C 119.894531 22.53125 119.695312 22.578125 118.917969 22.671875 L 118.382812 22.75 L 118.382812 23.253906 L 123.324219 23.253906 L 123.324219 22.75 L 122.820312 22.671875 C 122.003906 22.578125 121.832031 22.53125 121.832031 20.96875 Z M 88.859375 12.300781 C 88.082031 12.300781 86.070312 12.90625 85.429688 13.117188 L 85.523438 13.683594 L 86.011719 13.542969 C 86.054688 13.542969 86.199219 13.511719 86.308594 13.511719 C 86.929688 13.511719 86.941406 14.167969 86.941406 16.453125 L 86.941406 20.96875 C 86.941406 22.464844 86.738281 22.578125 85.964844 22.671875 L 85.429688 22.75 L 85.429688 23.253906 L 90.371094 23.253906 L 90.371094 22.75 L 89.867188 22.671875 C 89.046875 22.578125 88.859375 22.464844 88.859375 20.96875 L 88.859375 14.660156 C 89.257812 14.125 89.980469 13.402344 91.15625 13.402344 C 93.796875 13.402344 93.785156 15.660156 93.785156 17.855469 L 93.785156 20.96875 C 93.785156 22.464844 93.585938 22.578125 92.808594 22.671875 L 92.273438 22.75 L 92.273438 23.253906 L 97.230469 23.253906 L 97.230469 22.75 L 96.710938 22.671875 C 95.890625 22.578125 95.722656 22.464844 95.722656 20.96875 L 95.722656 17.507812 C 95.722656 14.824219 95.71875 12.300781 92.257812 12.300781 C 90.570312 12.300781 89.371094 13.289062 88.859375 13.777344 Z M 79.589844 12.300781 C 77.238281 12.300781 75.832031 13.867188 75.167969 14.800781 C 75.320312 15.222656 75.492188 15.449219 75.734375 15.730469 L 75.921875 15.730469 C 76.34375 14.867188 76.886719 13.402344 78.660156 13.402344 C 80.324219 13.402344 80.722656 14.726562 80.722656 16.265625 L 80.722656 16.800781 C 78.769531 17.40625 74.929688 18.320312 74.929688 21.347656 C 74.929688 22.632812 76.042969 23.613281 77.6875 23.613281 C 79.414062 23.613281 80.230469 23.109375 80.945312 22.625 C 81.164062 23.109375 81.574219 23.613281 82.707031 23.613281 C 83.636719 23.613281 84.101562 23.242188 84.390625 23.03125 L 84.28125 22.703125 C 84.191406 22.75 84.09375 22.796875 83.871094 22.796875 C 82.652344 22.796875 82.660156 21.042969 82.660156 19.414062 L 82.660156 16.074219 C 82.660156 13.695312 82.117188 12.300781 79.589844 12.300781 Z M 59.304688 12.300781 C 58.527344 12.300781 56.5 12.90625 55.855469 13.117188 L 55.953125 13.683594 L 56.441406 13.542969 C 56.484375 13.542969 56.644531 13.511719 56.753906 13.511719 C 57.378906 13.511719 57.367188 14.167969 57.367188 16.453125 L 57.367188 20.96875 C 57.367188 22.417969 57.167969 22.578125 56.390625 22.671875 L 55.855469 22.75 L 55.855469 23.253906 L 60.816406 23.253906 L 60.816406 22.75 L 60.292969 22.671875 C 59.476562 22.578125 59.304688 22.417969 59.304688 20.96875 L 59.304688 14.769531 C 59.636719 14.375 60.363281 13.402344 61.695312 13.402344 C 63.980469 13.402344 63.976562 15.734375 63.976562 16.640625 L 63.976562 20.96875 C 63.976562 22.417969 63.777344 22.578125 63.003906 22.671875 L 62.46875 22.75 L 62.46875 23.253906 L 67.410156 23.253906 L 67.410156 22.75 L 66.90625 22.671875 C 66.085938 22.578125 65.914062 22.417969 65.914062 20.96875 L 65.914062 17.683594 C 65.914062 15.695312 65.894531 15.265625 65.804688 14.519531 C 66.425781 13.847656 67.136719 13.402344 68.132812 13.402344 C 70.59375 13.402344 70.589844 15.609375 70.589844 17.726562 L 70.589844 20.96875 C 70.589844 22.417969 70.390625 22.578125 69.613281 22.671875 L 69.078125 22.75 L 69.078125 23.253906 L 74.019531 23.253906 L 74.019531 22.75 L 73.515625 22.671875 C 72.695312 22.578125 72.523438 22.417969 72.523438 20.96875 L 72.523438 17.179688 C 72.523438 14.871094 72.507812 12.300781 68.871094 12.300781 C 67.253906 12.300781 66.035156 13.34375 65.503906 13.808594 C 65.261719 13.136719 64.46875 12.300781 62.609375 12.300781 C 60.855469 12.300781 59.8125 13.375 59.304688 13.890625 Z M 39.679688 12.300781 C 37.328125 12.300781 35.90625 13.867188 35.238281 14.800781 C 35.398438 15.222656 35.5625 15.449219 35.808594 15.730469 L 35.996094 15.730469 C 36.417969 14.867188 36.957031 13.402344 38.734375 13.402344 C 40.398438 13.402344 40.796875 14.726562 40.796875 16.265625 L 40.796875 16.800781 C 38.84375 17.40625 35.019531 18.320312 35.019531 21.347656 C 35.019531 22.632812 36.117188 23.613281 37.757812 23.613281 C 39.488281 23.613281 40.320312 23.109375 41.03125 22.625 C 41.253906 23.109375 41.648438 23.613281 42.78125 23.613281 C 43.707031 23.613281 44.175781 23.242188 44.464844 23.03125 L 44.351562 22.703125 C 44.265625 22.75 44.179688 22.796875 43.960938 22.796875 C 42.738281 22.796875 42.730469 21.042969 42.730469 19.414062 L 42.730469 16.074219 C 42.730469 13.695312 42.207031 12.300781 39.679688 12.300781 Z M 109.964844 10.695312 L 111.992188 16.328125 C 111.285156 16.238281 110.578125 16.21875 109.871094 16.21875 C 109.207031 16.21875 108.519531 16.285156 107.855469 16.328125 Z M 110.890625 7.53125 L 110.246094 7.75 C 110.070312 8.195312 109.886719 8.671875 109.710938 9.136719 L 105.101562 20.925781 C 104.566406 22.277344 104.453125 22.53125 103.605469 22.671875 L 103.195312 22.75 L 103.195312 23.253906 L 107.855469 23.253906 L 107.855469 22.75 L 106.515625 22.558594 C 106.273438 22.535156 105.980469 22.46875 105.980469 22.023438 C 105.980469 21.84375 106.171875 21.199219 106.4375 20.449219 L 107.554688 17.226562 C 108.332031 17.085938 109.109375 16.988281 109.886719 16.988281 C 110.710938 16.988281 111.535156 17.0625 112.355469 17.226562 L 113.898438 21.632812 C 113.941406 21.796875 114.039062 21.960938 114.039062 22.121094 C 114.039062 22.375 113.746094 22.492188 113.347656 22.558594 L 112.355469 22.75 L 112.355469 23.253906 L 117.847656 23.253906 L 117.847656 22.75 L 116.96875 22.605469 C 116.394531 22.492188 116.167969 21.953125 115.832031 21.019531 Z M 28.207031 7.53125 C 24.703125 7.53125 19.925781 9.378906 19.925781 15.605469 C 19.925781 21.527344 23.921875 23.613281 28.160156 23.613281 C 30.308594 23.613281 32.117188 23.019531 32.738281 22.71875 C 33.269531 21.320312 33.503906 20.222656 33.636719 18.75 L 33.035156 18.625 C 32.351562 20.488281 31.796875 22.84375 28.109375 22.84375 C 24.074219 22.84375 22.257812 19.148438 22.257812 15.164062 C 22.257812 10.804688 24.550781 8.285156 28.191406 8.285156 C 31.980469 8.285156 32.265625 11.132812 32.488281 12.0625 L 33.085938 11.9375 C 33.085938 10.769531 32.9375 9.40625 32.738281 8.476562 C 32.160156 8.097656 30.46875 7.53125 28.207031 7.53125 Z M 120.617188 7.027344 C 119.886719 7.027344 119.375 7.636719 119.375 8.332031 C 119.375 9.007812 119.886719 9.640625 120.617188 9.640625 C 121.351562 9.640625 121.863281 9.007812 121.863281 8.332031 C 121.863281 7.636719 121.351562 7.027344 120.617188 7.027344 "/>
</g>
<path style=" stroke:none;fill-rule:nonzero;fill:rgb(14.839172%,26.864624%,55.351257%);fill-opacity:1;" d="M 4.488281 8.660156 L 0.824219 13.320312 C 0.824219 13.320312 0.00390625 14.304688 1.851562 15.492188 L 3.304688 13.617188 L 3.613281 13.84375 L 2.21875 15.785156 L 3.597656 16.777344 L 2.546875 18.113281 C 2.546875 18.113281 1.988281 18.859375 2.640625 19.648438 L 2.652344 19.6875 L 0.640625 22.4375 C 0.640625 22.4375 0.476562 22.652344 0.457031 22.746094 C 0.4375 22.835938 0.417969 22.917969 0.457031 22.949219 C 0.496094 22.972656 0.582031 23.015625 0.757812 22.847656 C 0.925781 22.671875 3.210938 20.425781 3.210938 20.425781 C 3.210938 20.425781 3.296875 20.253906 3.574219 20.394531 C 3.855469 20.535156 4.117188 20.699219 4.710938 20.214844 C 5.308594 19.730469 6.492188 18.007812 6.492188 18.007812 L 6.585938 18.019531 L 6.753906 20.328125 L 9.898438 20.335938 L 14.097656 23.496094 L 14.683594 23.46875 L 7.855469 18.101562 L 8.09375 17.855469 L 9.628906 19.042969 L 8.3125 8.679688 L 4.488281 8.660156 "/>
<path style=" stroke:none;fill-rule:nonzero;fill:rgb(24.546814%,59.848022%,22.506714%);fill-opacity:1;" d="M 11.628906 16.957031 L 9.976562 17.003906 L 10.324219 19.445312 C 11.53125 19.132812 12.636719 17.964844 12.636719 17.964844 Z M 12.71875 15.335938 L 11.914062 16.613281 L 12.9375 17.554688 C 13.65625 16.765625 13.914062 15.335938 13.914062 15.335938 Z M 5.003906 14.925781 L 3.542969 16.738281 C 4.636719 17.546875 5.273438 16.59375 5.273438 16.59375 C 5.960938 15.765625 5.003906 14.925781 5.003906 14.925781 Z M 9.570312 14.0625 L 9.929688 16.5625 L 11.613281 16.53125 L 12.464844 15.117188 L 11.550781 14.125 Z M 13.597656 12.425781 L 12.417969 12.472656 L 11.789062 13.839844 L 12.71875 14.894531 L 14.023438 14.894531 C 14.207031 13.421875 13.597656 12.425781 13.597656 12.425781 Z M 9.128906 11.023438 L 9.507812 13.621094 L 11.316406 13.714844 L 12.007812 12.285156 L 10.890625 11.039062 Z M 11.613281 9.90625 L 11.300781 10.851562 L 12.339844 12.0625 L 13.519531 12.03125 C 13.519531 12.03125 12.988281 10.585938 11.613281 9.90625 Z M 8.859375 8.917969 L 9.082031 10.566406 L 10.890625 10.617188 L 11.207031 9.65625 C 11.207031 9.65625 10.164062 8.925781 8.859375 8.917969 Z M 5.144531 3.34375 C 3.769531 3.328125 2.957031 3.453125 2.957031 3.453125 C 2.007812 3.578125 1.667969 3.847656 1.667969 3.847656 C 0.605469 4.507812 0.722656 6.128906 0.722656 6.128906 L 1.777344 6.097656 L 1.792969 6.273438 C 1.867188 6.957031 2.535156 6.949219 2.535156 6.949219 C 3.769531 6.835938 4.09375 7.011719 4.09375 7.011719 C 4.53125 7.097656 4.53125 7.484375 4.53125 7.484375 L 8.277344 7.453125 C 8.277344 7.453125 8.082031 4.605469 7.664062 3.988281 C 7.320312 3.488281 6.703125 3.40625 6.703125 3.40625 C 6.128906 3.359375 5.605469 3.351562 5.144531 3.34375 "/>
<path style=" stroke:none;fill-rule:nonzero;fill:rgb(77.001953%,10.931396%,18.377686%);fill-opacity:1;" d="M 6.925781 20.765625 C 6.839844 20.765625 6.808594 20.875 6.78125 20.957031 L 6.769531 23.171875 L 6.78125 23.238281 L 6.78125 23.253906 L 6.832031 23.285156 L 8.230469 23.300781 C 8.296875 23.300781 8.351562 23.25 8.375 23.191406 C 8.351562 22.984375 8.359375 22.78125 8.417969 22.578125 L 8.449219 22.578125 C 8.722656 22.960938 9.148438 23.179688 9.585938 23.300781 L 11.597656 23.332031 L 11.675781 23.285156 L 11.710938 23.160156 C 11.730469 22.921875 11.742188 22.667969 11.722656 22.433594 C 11.753906 22.359375 11.699219 22.304688 11.628906 22.277344 C 11.539062 22.242188 11.4375 22.28125 11.347656 22.277344 C 11.078125 22.253906 10.800781 22.171875 10.578125 22.007812 C 10.328125 21.835938 10.113281 21.59375 10.011719 21.300781 C 9.953125 21.164062 9.941406 21.023438 9.914062 20.875 L 9.851562 20.8125 Z M 6.46875 11.636719 L 8.214844 14.3125 C 8.214844 14.3125 8.722656 13.53125 8.089844 12.519531 C 8.089844 12.519531 7.53125 11.667969 6.46875 11.636719 Z M 6.3125 11.636719 C 5.148438 11.582031 4.675781 12.378906 4.675781 12.378906 C 4.097656 13.398438 4.707031 14.140625 4.707031 14.140625 Z M 5.839844 10.773438 L 6.027344 11.070312 L 6.734375 11.070312 L 6.894531 10.773438 Z M 5.382812 10.0625 L 5.632812 10.410156 L 7.113281 10.441406 L 7.351562 10.0625 Z M 4.863281 9.308594 L 5.113281 9.6875 L 7.648438 9.71875 L 7.835938 9.339844 Z M 5.082031 0.0078125 C 2.113281 0.0664062 0 2.117188 0 2.117188 L 1.84375 3.894531 C 2.671875 3.335938 6.1875 3.597656 6.1875 3.597656 C 7.464844 3.546875 7.585938 4.257812 7.585938 4.257812 C 7.871094 4.886719 8.152344 7.4375 8.152344 7.4375 L 4.390625 7.453125 C 4.136719 8.097656 4.484375 8.664062 4.484375 8.664062 L 9.804688 8.695312 L 9.882812 8.695312 C 10.058594 8.675781 10.410156 8.386719 10.578125 8.316406 C 10.929688 8.171875 11.277344 7.953125 11.503906 7.625 C 11.554688 7.546875 11.59375 7.472656 11.660156 7.40625 C 11.882812 7.183594 12.199219 7.074219 12.496094 7.058594 C 12.933594 7.03125 13.351562 7.234375 13.785156 7.261719 C 14.144531 7.289062 14.519531 7.242188 14.839844 7.058594 C 15.167969 6.867188 15.421875 6.5625 15.613281 6.207031 C 15.707031 6.027344 15.753906 5.804688 15.878906 5.640625 C 15.953125 5.542969 16.039062 5.457031 16.148438 5.40625 C 16.328125 5.324219 16.539062 5.324219 16.730469 5.375 C 17 5.535156 17.289062 5.664062 17.59375 5.707031 C 17.824219 5.734375 18.050781 5.714844 18.257812 5.609375 C 18.359375 5.558594 18.464844 5.46875 18.539062 5.375 C 18.644531 5.246094 18.6875 5.082031 18.726562 4.917969 L 18.996094 3.21875 C 19.019531 3.058594 19.074219 2.914062 19.121094 2.761719 C 19.179688 2.570312 19.210938 2.375 19.292969 2.195312 C 19.457031 1.859375 19.675781 1.5625 19.910156 1.28125 L 19.910156 1.234375 C 19.78125 1.203125 19.648438 1.214844 19.515625 1.21875 C 19.09375 1.234375 18.667969 1.304688 18.257812 1.394531 C 17.441406 1.578125 16.652344 1.910156 15.988281 2.464844 C 15.875 2.558594 15.769531 2.671875 15.660156 2.777344 L 15.535156 2.871094 C 15.007812 3 14.523438 3.320312 14.195312 3.785156 C 14.113281 3.894531 14.035156 4.007812 13.976562 4.132812 C 13.9375 4.199219 13.925781 4.273438 13.898438 4.351562 C 13.839844 4.503906 13.765625 4.652344 13.707031 4.808594 C 13.636719 4.984375 13.503906 5.140625 13.347656 5.234375 C 13.203125 5.3125 13.019531 5.339844 12.859375 5.359375 C 12.441406 5.417969 12.023438 5.410156 11.597656 5.375 C 11.179688 5.40625 10.746094 5.527344 10.386719 5.785156 C 10.257812 5.878906 10.136719 6 10.027344 6.128906 C 9.835938 6.347656 9.714844 6.628906 9.488281 6.808594 C 8.730469 7.40625 8.625 7.453125 8.4375 7.4375 L 8.40625 7.136719 L 11.582031 3.816406 L 11.519531 3.800781 C 10.769531 4.359375 10.527344 3.328125 10.527344 3.328125 C 10.214844 2.140625 9.144531 1.28125 9.144531 1.28125 C 7.605469 -0.128906 5.082031 0.0078125 5.082031 0.0078125 "/>
<path style=" stroke:none;fill-rule:nonzero;fill:rgb(14.839172%,26.864624%,55.351257%);fill-opacity:1;" d="M 3.195312 4.398438 C 3.195312 4.398438 2.601562 4.367188 2.550781 5.011719 L 3.902344 4.996094 C 3.902344 4.996094 3.835938 4.378906 3.195312 4.398438 Z M 4.894531 3.171875 C 3.660156 3.171875 2.949219 3.28125 2.941406 3.28125 C 1.964844 3.410156 1.59375 3.703125 1.574219 3.722656 C 1.117188 4.015625 0.855469 4.476562 0.722656 4.902344 C 0.589844 5.335938 0.566406 5.746094 0.566406 5.972656 C 0.566406 6.082031 0.566406 6.144531 0.566406 6.144531 L 0.582031 6.304688 L 1.636719 6.253906 L 1.652344 6.285156 C 1.691406 6.6875 1.917969 6.914062 2.125 7.011719 C 2.335938 7.113281 2.519531 7.105469 2.535156 7.105469 L 2.550781 7.105469 C 2.859375 7.078125 3.105469 7.074219 3.304688 7.074219 C 3.597656 7.074219 3.792969 7.101562 3.902344 7.121094 L 3.996094 7.152344 L 4.042969 7.152344 L 4.0625 7.167969 C 4.238281 7.207031 4.289062 7.285156 4.328125 7.359375 L 4.375 7.453125 L 4.375 7.484375 L 4.691406 7.484375 C 4.6875 7.46875 4.683594 7.34375 4.613281 7.199219 C 4.542969 7.0625 4.394531 6.910156 4.15625 6.855469 C 4.121094 6.839844 3.925781 6.746094 3.304688 6.742188 C 3.09375 6.742188 2.832031 6.761719 2.519531 6.789062 C 2.46875 6.789062 2.324219 6.753906 2.203125 6.679688 C 2.085938 6.605469 1.984375 6.492188 1.953125 6.253906 C 1.992188 6.257812 2 6.253906 2.078125 6.253906 C 2.324219 6.253906 2.730469 6.242188 3.117188 6.191406 C 3.308594 6.167969 3.492188 6.132812 3.652344 6.082031 C 3.8125 6.03125 3.945312 5.96875 4.042969 5.847656 L 3.808594 5.640625 C 3.785156 5.675781 3.691406 5.726562 3.558594 5.769531 C 3.152344 5.902344 2.433594 5.925781 2.078125 5.925781 C 1.9375 5.925781 1.855469 5.925781 1.855469 5.925781 L 0.882812 5.972656 C 0.882812 5.769531 0.902344 5.382812 1.023438 4.996094 C 1.144531 4.609375 1.363281 4.230469 1.746094 3.988281 L 1.761719 3.988281 C 1.78125 3.972656 2.117188 3.726562 2.992188 3.613281 L 3.117188 3.597656 C 3.367188 3.566406 3.984375 3.5 4.894531 3.5 C 5.410156 3.5 6.023438 3.527344 6.703125 3.582031 L 6.71875 3.582031 C 6.824219 3.59375 7.28125 3.703125 7.539062 4.085938 C 7.617188 4.195312 7.699219 4.480469 7.773438 4.824219 C 7.890625 5.339844 7.984375 6.007812 8.042969 6.539062 C 8.097656 7.066406 8.121094 7.453125 8.121094 7.453125 L 8.4375 7.4375 C 8.4375 7.433594 8.382812 6.714844 8.277344 5.925781 C 8.226562 5.527344 8.171875 5.105469 8.089844 4.746094 C 8.011719 4.382812 7.917969 4.089844 7.789062 3.894531 C 7.394531 3.324219 6.75 3.253906 6.734375 3.25 L 6.71875 3.25 C 6.03125 3.195312 5.414062 3.171875 4.894531 3.171875 "/>
</g>
</svg>
