<?xml version="1.0" encoding="UTF-8"?>
<svg xmlns="http://www.w3.org/2000/svg" xmlns:xlink="http://www.w3.org/1999/xlink" width="176pt" height="24.59pt" viewBox="0 0 176 24.59" version="1.1">
<defs>
<clipPath id="clip1">
  <path d="M 99 5 L 114 5 L 114 24.589844 L 99 24.589844 Z M 99 5 "/>
</clipPath>
<clipPath id="clip2">
  <path d="M 162 5 L 176 5 L 176 24.589844 L 162 24.589844 Z M 162 5 "/>
</clipPath>
</defs>
<g id="surface1">
<path style=" stroke:none;fill-rule:nonzero;fill:rgb(93.537903%,16.963196%,22.83783%);fill-opacity:1;" d="M 9.601562 10.152344 C 9.601562 9.277344 9.402344 8.601562 8.996094 8.132812 C 8.59375 7.664062 8.011719 7.429688 7.257812 7.429688 C 6.207031 7.429688 5.34375 7.960938 4.671875 9.019531 C 4 10.078125 3.660156 11.441406 3.660156 13.109375 C 3.660156 14.160156 3.835938 14.976562 4.1875 15.554688 C 4.542969 16.132812 5.039062 16.421875 5.679688 16.421875 C 6.617188 16.421875 7.507812 15.75 8.34375 14.414062 C 9.183594 13.078125 9.601562 11.65625 9.601562 10.152344 Z M 13.285156 8.953125 C 13.132812 9.769531 13.042969 10.507812 13.015625 11.167969 L 12.859375 15.167969 L 12.859375 15.664062 C 12.859375 16.386719 12.964844 16.882812 13.171875 17.15625 C 13.382812 17.429688 13.75 17.566406 14.28125 17.566406 L 14.515625 17.566406 L 14.4375 18.871094 C 13.785156 18.828125 13.246094 18.792969 12.816406 18.773438 C 12.386719 18.75 12.007812 18.738281 11.6875 18.738281 C 11.355469 18.738281 10.996094 18.75 10.597656 18.765625 C 10.203125 18.78125 9.785156 18.808594 9.34375 18.84375 L 9.929688 15.507812 L 9.472656 15.378906 C 8.628906 16.59375 7.710938 17.53125 6.71875 18.1875 C 5.722656 18.839844 4.730469 19.167969 3.738281 19.167969 C 2.550781 19.167969 1.628906 18.78125 0.976562 18.011719 C 0.324219 17.238281 0 16.136719 0 14.714844 C 0 13.445312 0.246094 12.226562 0.734375 11.050781 C 1.226562 9.878906 1.925781 8.839844 2.828125 7.9375 C 3.644531 7.121094 4.480469 6.527344 5.335938 6.160156 C 6.191406 5.789062 7.164062 5.605469 8.246094 5.605469 C 8.75 5.605469 9.265625 5.675781 9.792969 5.820312 C 10.316406 5.964844 10.871094 6.179688 11.453125 6.464844 C 11.453125 6.464844 13.433594 8.136719 13.285156 8.953125 "/>
<path style=" stroke:none;fill-rule:nonzero;fill:rgb(93.537903%,16.963196%,22.83783%);fill-opacity:1;" d="M 22.203125 0.00390625 L 22.019531 3.183594 L 18.175781 3.183594 L 18.359375 0.00390625 Z M 21.878906 5.984375 L 21.863281 6.085938 C 21.714844 7.042969 21.632812 7.703125 21.617188 8.066406 L 21.210938 15.703125 L 21.210938 16.070312 C 21.210938 16.632812 21.316406 17.027344 21.519531 17.253906 C 21.722656 17.480469 22.078125 17.59375 22.582031 17.59375 L 22.867188 17.59375 L 22.789062 18.871094 C 21.84375 18.816406 21.117188 18.78125 20.621094 18.765625 C 20.121094 18.75 19.707031 18.738281 19.375 18.738281 C 19.097656 18.738281 18.726562 18.75 18.261719 18.765625 C 17.796875 18.78125 17.066406 18.816406 16.066406 18.871094 L 16.117188 17.59375 C 16.699219 17.539062 17.085938 17.398438 17.277344 17.167969 C 17.46875 16.941406 17.589844 16.335938 17.640625 15.363281 L 17.957031 8.992188 L 17.957031 8.628906 C 17.957031 8.082031 17.851562 7.703125 17.640625 7.496094 C 17.433594 7.285156 17.050781 7.183594 16.496094 7.183594 L 16.351562 7.183594 L 16.40625 5.984375 L 21.878906 5.984375 "/>
<path style=" stroke:none;fill-rule:nonzero;fill:rgb(93.537903%,16.963196%,22.83783%);fill-opacity:1;" d="M 35.703125 10.035156 L 34.449219 10.035156 C 34.460938 9.976562 34.464844 9.914062 34.46875 9.851562 C 34.472656 9.792969 34.476562 9.730469 34.476562 9.671875 C 34.476562 9.339844 34.371094 9.074219 34.15625 8.875 C 33.945312 8.675781 33.660156 8.578125 33.304688 8.578125 C 32.480469 8.578125 31.714844 9.105469 31.011719 10.167969 C 30.308594 11.226562 29.921875 12.449219 29.851562 13.839844 L 29.746094 15.480469 L 29.746094 15.9375 C 29.746094 16.605469 29.878906 17.046875 30.144531 17.261719 C 30.410156 17.472656 31.007812 17.601562 31.9375 17.644531 L 31.859375 18.84375 C 31.179688 18.808594 30.523438 18.78125 29.890625 18.765625 C 29.257812 18.75 28.640625 18.738281 28.039062 18.738281 C 27.554688 18.738281 27.011719 18.75 26.417969 18.765625 C 25.824219 18.78125 25.199219 18.808594 24.546875 18.84375 L 24.625 17.65625 C 25.191406 17.570312 25.578125 17.375 25.785156 17.066406 C 25.996094 16.757812 26.125 16.070312 26.175781 15 L 26.488281 9.085938 L 26.488281 8.679688 C 26.488281 8.054688 26.390625 7.648438 26.195312 7.460938 C 26 7.277344 25.601562 7.183594 25.003906 7.183594 L 24.835938 7.183594 L 24.898438 5.984375 L 29.863281 5.984375 L 29.214844 10.179688 L 29.539062 10.308594 C 30.320312 8.683594 31.160156 7.488281 32.058594 6.714844 C 32.960938 5.941406 33.96875 5.554688 35.089844 5.554688 C 35.316406 5.554688 35.546875 5.570312 35.785156 5.605469 C 36.023438 5.640625 36.273438 5.695312 36.535156 5.773438 L 35.703125 10.035156 "/>
<path style=" stroke:none;fill-rule:nonzero;fill:rgb(93.537903%,16.963196%,22.83783%);fill-opacity:1;" d="M 54.140625 1.632812 L 54.058594 2.921875 L 53.90625 2.921875 C 53.210938 2.921875 52.753906 3.023438 52.535156 3.226562 C 52.320312 3.433594 52.175781 4.085938 52.105469 5.1875 L 51.921875 8.5625 C 52.082031 8.546875 52.203125 8.53125 52.292969 8.519531 C 52.386719 8.503906 52.449219 8.5 52.484375 8.5 L 58.492188 8.5 C 58.558594 8.5 58.648438 8.503906 58.75 8.519531 C 58.855469 8.53125 58.972656 8.546875 59.101562 8.5625 L 59.285156 5.070312 L 59.285156 4.378906 C 59.285156 3.800781 59.179688 3.414062 58.964844 3.226562 C 58.753906 3.039062 58.300781 2.933594 57.605469 2.910156 L 57.65625 1.632812 L 65.1875 1.632812 L 65.109375 2.910156 C 64.320312 2.925781 63.800781 3.050781 63.558594 3.28125 C 63.316406 3.511719 63.171875 4.058594 63.128906 4.929688 L 62.59375 15.429688 C 62.59375 15.480469 62.589844 15.554688 62.582031 15.652344 C 62.574219 15.746094 62.570312 15.816406 62.570312 15.859375 C 62.570312 16.503906 62.703125 16.945312 62.964844 17.183594 C 63.230469 17.421875 63.734375 17.539062 64.472656 17.539062 L 64.914062 17.539062 L 64.835938 18.871094 C 63.855469 18.828125 63.042969 18.792969 62.40625 18.773438 C 61.769531 18.75 61.226562 18.738281 60.785156 18.738281 C 60.347656 18.738281 59.820312 18.75 59.199219 18.773438 C 58.578125 18.792969 57.773438 18.828125 56.785156 18.871094 L 56.835938 17.539062 C 57.59375 17.523438 58.085938 17.402344 58.316406 17.175781 C 58.542969 16.949219 58.679688 16.40625 58.726562 15.546875 L 58.984375 10.257812 C 58.882812 10.273438 58.777344 10.289062 58.671875 10.296875 C 58.570312 10.304688 58.425781 10.308594 58.242188 10.308594 L 52.535156 10.308594 C 52.351562 10.308594 52.214844 10.304688 52.117188 10.296875 C 52.023438 10.289062 51.933594 10.273438 51.84375 10.257812 L 51.546875 15.558594 L 51.546875 15.964844 C 51.546875 16.582031 51.664062 16.992188 51.898438 17.203125 C 52.132812 17.410156 52.601562 17.523438 53.304688 17.539062 L 53.226562 18.871094 C 52.289062 18.828125 51.535156 18.792969 50.964844 18.773438 C 50.398438 18.75 49.917969 18.738281 49.527344 18.738281 C 49.101562 18.738281 48.59375 18.75 48.007812 18.773438 C 47.421875 18.792969 46.664062 18.828125 45.734375 18.871094 L 45.785156 17.539062 C 46.550781 17.523438 47.054688 17.402344 47.296875 17.183594 C 47.539062 16.960938 47.683594 16.40625 47.726562 15.519531 L 48.261719 5.136719 C 48.261719 5.066406 48.265625 4.976562 48.277344 4.871094 C 48.285156 4.761719 48.289062 4.6875 48.289062 4.65625 C 48.289062 3.976562 48.152344 3.519531 47.882812 3.28125 C 47.613281 3.039062 47.085938 2.921875 46.292969 2.921875 L 45.941406 2.921875 L 45.996094 1.632812 L 54.140625 1.632812 "/>
<path style=" stroke:none;fill-rule:nonzero;fill:rgb(93.537903%,16.963196%,22.83783%);fill-opacity:1;" d="M 77.085938 12.121094 C 77.085938 10.574219 76.835938 9.375 76.335938 8.519531 C 75.835938 7.664062 75.144531 7.234375 74.257812 7.234375 C 73.335938 7.234375 72.601562 7.703125 72.054688 8.636719 C 71.507812 9.570312 71.234375 10.839844 71.234375 12.445312 C 71.234375 14.035156 71.484375 15.273438 71.984375 16.160156 C 72.480469 17.046875 73.175781 17.488281 74.0625 17.488281 C 74.980469 17.488281 75.714844 17.003906 76.261719 16.035156 C 76.808594 15.066406 77.085938 13.761719 77.085938 12.121094 Z M 75.300781 5.554688 C 77.132812 5.554688 78.550781 6.027344 79.554688 6.980469 C 80.554688 7.929688 81.058594 9.269531 81.058594 11 C 81.058594 13.355469 80.277344 15.300781 78.71875 16.835938 C 77.160156 18.375 75.179688 19.144531 72.785156 19.144531 C 71.03125 19.144531 69.648438 18.636719 68.640625 17.625 C 67.632812 16.613281 67.128906 15.222656 67.128906 13.449219 C 67.128906 11.183594 67.902344 9.300781 69.441406 7.800781 C 70.984375 6.304688 72.9375 5.554688 75.300781 5.554688 "/>
<path style=" stroke:none;fill-rule:nonzero;fill:rgb(93.537903%,16.963196%,22.83783%);fill-opacity:1;" d="M 96.484375 15.558594 C 96.476562 15.691406 96.46875 15.808594 96.464844 15.917969 C 96.460938 16.027344 96.460938 16.121094 96.460938 16.199219 C 96.460938 16.695312 96.578125 17.050781 96.816406 17.265625 C 97.054688 17.484375 97.441406 17.59375 97.972656 17.59375 L 98.191406 17.59375 L 98.128906 18.871094 C 97.300781 18.828125 96.625 18.792969 96.101562 18.773438 C 95.574219 18.75 95.136719 18.738281 94.777344 18.738281 C 94.421875 18.738281 93.992188 18.75 93.480469 18.773438 C 92.972656 18.792969 92.3125 18.828125 91.496094 18.871094 L 91.546875 17.59375 C 92.363281 17.574219 92.808594 16.820312 92.875 15.324219 L 93.125 10.894531 L 93.125 10.308594 C 93.125 9.613281 93.003906 9.109375 92.765625 8.796875 C 92.527344 8.484375 92.148438 8.328125 91.625 8.328125 C 90.738281 8.328125 89.925781 8.847656 89.183594 9.878906 C 88.441406 10.914062 88.023438 12.175781 87.9375 13.671875 L 87.832031 15.703125 C 87.832031 15.753906 87.828125 15.867188 87.820312 16.042969 C 87.8125 16.214844 87.808594 16.367188 87.808594 16.5 C 87.808594 16.890625 87.894531 17.164062 88.070312 17.324219 C 88.242188 17.488281 88.546875 17.574219 88.980469 17.59375 L 88.929688 18.871094 C 88.164062 18.828125 87.523438 18.792969 87.007812 18.773438 C 86.488281 18.75 86.050781 18.738281 85.695312 18.738281 C 85.417969 18.738281 85.058594 18.75 84.621094 18.765625 C 84.183594 18.78125 83.539062 18.816406 82.6875 18.871094 L 82.738281 17.59375 C 83.320312 17.539062 83.707031 17.398438 83.898438 17.167969 C 84.089844 16.941406 84.210938 16.335938 84.261719 15.363281 L 84.578125 8.992188 L 84.578125 8.628906 C 84.578125 8.082031 84.472656 7.703125 84.261719 7.496094 C 84.054688 7.285156 83.671875 7.183594 83.117188 7.183594 L 82.972656 7.183594 L 83.027344 5.984375 L 87.964844 5.984375 L 87.402344 9.371094 L 87.78125 9.527344 C 88.589844 8.222656 89.460938 7.242188 90.394531 6.578125 C 91.328125 5.910156 92.316406 5.578125 93.359375 5.578125 C 94.425781 5.578125 95.261719 5.910156 95.867188 6.570312 C 96.46875 7.230469 96.773438 8.148438 96.773438 9.320312 C 96.773438 9.511719 96.769531 9.726562 96.757812 9.964844 C 96.75 10.203125 96.738281 10.453125 96.71875 10.714844 L 96.484375 15.558594 "/>
<g clip-path="url(#clip1)" clip-rule="nonzero">
<path style=" stroke:none;fill-rule:nonzero;fill:rgb(93.537903%,16.963196%,22.83783%);fill-opacity:1;" d="M 109.320312 9.984375 C 109.320312 9.175781 109.113281 8.546875 108.695312 8.101562 C 108.277344 7.652344 107.6875 7.429688 106.921875 7.429688 C 105.878906 7.429688 105.023438 7.941406 104.347656 8.96875 C 103.675781 9.992188 103.339844 11.292969 103.339844 12.863281 C 103.339844 13.871094 103.519531 14.65625 103.878906 15.222656 C 104.242188 15.785156 104.738281 16.070312 105.371094 16.070312 C 106.308594 16.070312 107.203125 15.421875 108.050781 14.128906 C 108.898438 12.832031 109.320312 11.453125 109.320312 9.984375 Z M 113.066406 8.640625 C 113.0625 9.472656 112.792969 10.296875 112.734375 11.15625 L 112.5 15.402344 C 112.492188 15.535156 112.476562 15.726562 112.460938 15.976562 C 112.296875 18.84375 111.808594 20.808594 111 21.867188 C 110.304688 22.777344 109.417969 23.460938 108.335938 23.914062 C 107.253906 24.363281 105.976562 24.589844 104.5 24.589844 C 103.648438 24.589844 102.828125 24.542969 102.035156 24.445312 C 101.246094 24.351562 100.480469 24.210938 99.742188 24.03125 L 100.539062 20.746094 C 100.539062 20.746094 101.828125 21.023438 101.828125 21.058594 C 101.828125 21.589844 102.125 22.023438 102.722656 22.363281 C 103.316406 22.699219 104.074219 22.871094 104.996094 22.871094 C 105.914062 22.871094 106.664062 22.652344 107.234375 22.21875 C 107.808594 21.785156 108.203125 21.140625 108.421875 20.289062 C 108.421875 20.265625 108.429688 20.210938 108.449219 20.132812 C 108.691406 18.789062 109.0625 17.246094 109.566406 15.507812 L 109.113281 15.324219 C 108.21875 16.472656 107.300781 17.328125 106.363281 17.894531 C 105.425781 18.457031 104.457031 18.738281 103.457031 18.738281 C 102.34375 18.738281 101.460938 18.367188 100.804688 17.617188 C 100.148438 16.871094 99.820312 15.867188 99.820312 14.609375 C 99.820312 13.574219 100.03125 12.511719 100.445312 11.421875 C 100.863281 10.332031 101.445312 9.308594 102.191406 8.355469 C 102.929688 7.441406 103.761719 6.746094 104.6875 6.269531 C 105.613281 5.792969 106.605469 5.554688 107.664062 5.554688 C 108.203125 5.554688 108.75 5.625 109.308594 5.761719 C 109.863281 5.902344 110.460938 6.117188 111.105469 6.414062 C 111.105469 6.414062 113.074219 6.964844 113.066406 8.640625 "/>
</g>
<path style=" stroke:none;fill-rule:nonzero;fill:rgb(93.537903%,16.963196%,22.83783%);fill-opacity:1;" d="M 121.359375 0.00390625 C 121.289062 0.515625 121.230469 1.207031 121.175781 2.074219 C 121.160156 2.335938 121.148438 2.527344 121.136719 2.648438 L 120.683594 10.714844 L 121.621094 10.714844 L 123.914062 8.863281 C 124.289062 8.566406 124.550781 8.324219 124.703125 8.125 C 124.855469 7.929688 124.929688 7.75 124.929688 7.585938 C 124.929688 7.449219 124.882812 7.328125 124.792969 7.234375 C 124.703125 7.140625 124.570312 7.074219 124.394531 7.039062 L 124.472656 5.984375 L 129.007812 5.984375 L 129.007812 6.113281 C 129.007812 6.738281 128.675781 7.394531 128.003906 8.074219 C 127.335938 8.757812 126.023438 9.722656 124.070312 10.972656 C 124.433594 11.191406 124.855469 11.636719 125.335938 12.316406 L 125.386719 12.394531 L 128.371094 16.65625 C 128.59375 16.984375 128.847656 17.234375 129.125 17.398438 C 129.402344 17.5625 129.703125 17.644531 130.023438 17.644531 L 130.101562 17.644531 L 130.023438 18.816406 C 129.574219 18.792969 129.164062 18.773438 128.800781 18.757812 C 128.433594 18.746094 128.105469 18.738281 127.808594 18.738281 C 127.558594 18.738281 127.261719 18.746094 126.917969 18.757812 C 126.574219 18.773438 126.191406 18.792969 125.765625 18.816406 C 125.035156 17.84375 124.320312 16.808594 123.628906 15.710938 C 122.933594 14.613281 122.261719 13.457031 121.621094 12.25 L 120.605469 12.25 L 120.449219 15.835938 C 120.449219 15.859375 120.445312 15.921875 120.433594 16.015625 C 120.425781 16.113281 120.421875 16.195312 120.421875 16.265625 C 120.421875 16.757812 120.511719 17.109375 120.695312 17.3125 C 120.878906 17.515625 121.195312 17.628906 121.648438 17.644531 L 121.570312 18.84375 C 120.976562 18.808594 120.429688 18.78125 119.921875 18.765625 C 119.410156 18.75 118.976562 18.738281 118.609375 18.738281 C 118.039062 18.738281 117.472656 18.75 116.910156 18.765625 C 116.351562 18.78125 115.785156 18.808594 115.210938 18.84375 L 115.300781 17.644531 C 115.890625 17.59375 116.285156 17.441406 116.480469 17.195312 C 116.675781 16.949219 116.796875 16.425781 116.839844 15.625 L 117.488281 3.390625 L 117.488281 3 C 117.488281 2.277344 117.371094 1.804688 117.132812 1.578125 C 116.894531 1.355469 116.429688 1.242188 115.746094 1.242188 L 115.808594 0.00390625 L 121.359375 0.00390625 "/>
<path style=" stroke:none;fill-rule:nonzero;fill:rgb(93.537903%,16.963196%,22.83783%);fill-opacity:1;" d="M 140.019531 12.121094 C 140.019531 10.574219 139.769531 9.375 139.269531 8.519531 C 138.769531 7.664062 138.078125 7.234375 137.191406 7.234375 C 136.269531 7.234375 135.535156 7.703125 134.988281 8.636719 C 134.441406 9.570312 134.167969 10.839844 134.167969 12.445312 C 134.167969 14.035156 134.417969 15.273438 134.917969 16.160156 C 135.417969 17.046875 136.109375 17.488281 136.996094 17.488281 C 137.917969 17.488281 138.648438 17.003906 139.199219 16.035156 C 139.746094 15.066406 140.019531 13.761719 140.019531 12.121094 Z M 138.234375 5.554688 C 140.066406 5.554688 141.484375 6.027344 142.488281 6.980469 C 143.492188 7.929688 143.992188 9.269531 143.992188 11 C 143.992188 13.355469 143.210938 15.300781 141.652344 16.835938 C 140.09375 18.375 138.117188 19.144531 135.71875 19.144531 C 133.964844 19.144531 132.582031 18.636719 131.574219 17.625 C 130.566406 16.613281 130.0625 15.222656 130.0625 13.449219 C 130.0625 11.183594 130.835938 9.300781 132.375 7.800781 C 133.917969 6.304688 135.871094 5.554688 138.234375 5.554688 "/>
<path style=" stroke:none;fill-rule:nonzero;fill:rgb(93.537903%,16.963196%,22.83783%);fill-opacity:1;" d="M 159.417969 15.558594 C 159.410156 15.691406 159.40625 15.808594 159.402344 15.917969 C 159.394531 16.027344 159.394531 16.121094 159.394531 16.199219 C 159.394531 16.695312 159.511719 17.050781 159.753906 17.265625 C 159.992188 17.484375 160.375 17.59375 160.90625 17.59375 L 161.125 17.59375 L 161.0625 18.871094 C 160.234375 18.828125 159.5625 18.792969 159.035156 18.773438 C 158.511719 18.75 158.070312 18.738281 157.714844 18.738281 C 157.355469 18.738281 156.925781 18.75 156.417969 18.773438 C 155.910156 18.792969 155.246094 18.828125 154.429688 18.871094 L 154.480469 17.59375 C 155.296875 17.574219 155.742188 16.820312 155.8125 15.324219 L 156.058594 10.894531 L 156.058594 10.308594 C 156.058594 9.613281 155.9375 9.109375 155.699219 8.796875 C 155.460938 8.484375 155.082031 8.328125 154.558594 8.328125 C 153.675781 8.328125 152.859375 8.847656 152.117188 9.878906 C 151.375 10.914062 150.957031 12.175781 150.871094 13.671875 L 150.769531 15.703125 C 150.769531 15.753906 150.765625 15.867188 150.753906 16.042969 C 150.746094 16.214844 150.742188 16.367188 150.742188 16.5 C 150.742188 16.890625 150.828125 17.164062 151.003906 17.324219 C 151.175781 17.488281 151.480469 17.574219 151.914062 17.59375 L 151.863281 18.871094 C 151.097656 18.828125 150.457031 18.792969 149.941406 18.773438 C 149.421875 18.75 148.988281 18.738281 148.632812 18.738281 C 148.351562 18.738281 147.996094 18.75 147.554688 18.765625 C 147.117188 18.78125 146.472656 18.816406 145.621094 18.871094 L 145.671875 17.59375 C 146.253906 17.539062 146.640625 17.398438 146.832031 17.167969 C 147.023438 16.941406 147.144531 16.335938 147.199219 15.363281 L 147.511719 8.992188 L 147.511719 8.628906 C 147.511719 8.082031 147.40625 7.703125 147.199219 7.496094 C 146.988281 7.285156 146.605469 7.183594 146.050781 7.183594 L 145.90625 7.183594 L 145.960938 5.984375 L 150.898438 5.984375 L 150.339844 9.371094 L 150.714844 9.527344 C 151.523438 8.222656 152.394531 7.242188 153.328125 6.578125 C 154.261719 5.910156 155.25 5.578125 156.292969 5.578125 C 157.359375 5.578125 158.195312 5.910156 158.800781 6.570312 C 159.40625 7.230469 159.707031 8.148438 159.707031 9.320312 C 159.707031 9.511719 159.703125 9.726562 159.695312 9.964844 C 159.683594 10.203125 159.671875 10.453125 159.65625 10.714844 L 159.417969 15.558594 "/>
<g clip-path="url(#clip2)" clip-rule="nonzero">
<path style=" stroke:none;fill-rule:nonzero;fill:rgb(93.537903%,16.963196%,22.83783%);fill-opacity:1;" d="M 172.253906 9.984375 C 172.253906 9.175781 172.046875 8.546875 171.628906 8.101562 C 171.210938 7.652344 170.621094 7.429688 169.855469 7.429688 C 168.816406 7.429688 167.957031 7.941406 167.285156 8.96875 C 166.609375 9.992188 166.273438 11.292969 166.273438 12.863281 C 166.273438 13.871094 166.453125 14.65625 166.8125 15.222656 C 167.175781 15.785156 167.671875 16.070312 168.304688 16.070312 C 169.246094 16.070312 170.136719 15.421875 170.984375 14.128906 C 171.832031 12.832031 172.253906 11.453125 172.253906 9.984375 Z M 176 8.640625 C 176 9.472656 175.730469 10.296875 175.667969 11.15625 L 175.433594 15.402344 C 175.425781 15.535156 175.410156 15.726562 175.394531 15.976562 C 175.230469 18.84375 174.742188 20.808594 173.933594 21.867188 C 173.242188 22.777344 172.351562 23.460938 171.269531 23.914062 C 170.1875 24.363281 168.910156 24.589844 167.433594 24.589844 C 166.582031 24.589844 165.761719 24.542969 164.96875 24.445312 C 164.179688 24.351562 163.414062 24.210938 162.675781 24.03125 L 163.472656 20.746094 C 163.472656 20.746094 164.761719 21.023438 164.761719 21.058594 C 164.761719 21.589844 165.058594 22.023438 165.65625 22.363281 C 166.25 22.699219 167.007812 22.871094 167.929688 22.871094 C 168.847656 22.871094 169.597656 22.652344 170.167969 22.21875 C 170.742188 21.785156 171.136719 21.140625 171.355469 20.289062 C 171.355469 20.265625 171.363281 20.210938 171.382812 20.132812 C 171.625 18.789062 172 17.246094 172.503906 15.507812 L 172.046875 15.324219 C 171.152344 16.472656 170.234375 17.328125 169.296875 17.894531 C 168.359375 18.457031 167.390625 18.738281 166.390625 18.738281 C 165.277344 18.738281 164.394531 18.367188 163.738281 17.617188 C 163.082031 16.871094 162.753906 15.867188 162.753906 14.609375 C 162.753906 13.574219 162.964844 12.511719 163.382812 11.421875 C 163.796875 10.332031 164.378906 9.308594 165.128906 8.355469 C 165.867188 7.441406 166.699219 6.746094 167.621094 6.269531 C 168.546875 5.792969 169.539062 5.554688 170.601562 5.554688 C 171.136719 5.554688 171.683594 5.625 172.242188 5.761719 C 172.796875 5.902344 173.398438 6.117188 174.039062 6.414062 C 174.039062 6.414062 176 7.078125 176 8.640625 "/>
</g>
</g>
</svg>
