<svg xmlns="http://www.w3.org/2000/svg" width="176pt" height="59.827" viewBox="0 0 176 44.87"><defs><clipPath id="a"><path d="M140 0h36v44.871h-36Zm0 0"/></clipPath></defs><g clip-path="url(#a)"><path d="M159.383 40.414s3.601 5.07 9.07 3.469 8.035-7.86 7.473-13.473c-.805-7.976-5.606-18.008-17.742-24.277-1.067-2.668-1.602-4.934-3.07-6.137 1.534 3.602 1.39 6.664.995 7.36-3.468 6.136-16.066 13.582-16.066 23.855 0 6.137 3.734 14.406 11.469 13.605 7.738-.8 7.87-4.402 7.87-4.402" style="stroke:none;fill-rule:nonzero;fill:#f5d50d;fill-opacity:1"/></g><path d="M159.508 35.672c-.008 0 .05-.082.09-.254a.94.94 0 0 0-.157-.738c-.191-.27-.629-.489-1.097-.375-.23.054-.465.187-.63.398-.034.055-.081.117-.109.164q-.043.101-.09.207c-.035.074-.03.14-.05.211-.02.067-.024.14-.02.219-.007.297.09.617.293.879.2.258.528.43.883.508.684.18 1.566-.207 1.879-.953.043-.106.094-.211.129-.313l.055-.297c.03-.094.007-.21.015-.312a1 1 0 0 0-.031-.32 1.94 1.94 0 0 0-.61-1.153c-.07-.09-.167-.145-.261-.211l-.145-.098s-.043-.027-.011-.011l-.043-.02-.09-.039-.36-.152c-.117-.04-.226-.047-.34-.075a1.1 1.1 0 0 0-.343-.039c-.125 0-.246-.007-.367 0-.243.051-.489.075-.715.188-.242.07-.442.234-.656.367-.18.176-.38.336-.508.567l-.114.156-.027.039c.024-.05 0 0 .004-.004l-.012.023-.043.102-.175.402c-.075.14-.07.262-.102.387-.023.129-.059.25-.07.379l-.004.41c0 .066-.008.137 0 .203l.039.203.074.407.152.39.079.192.113.18.226.355.293.304.145.153.18.12.347.247.414.203.399.14c.144.036.285.083.43.106.585.113 1.199.094 1.785-.054a4.12 4.12 0 0 0 2.75-2.293c.543-1.133.675-2.532.335-3.797-.167-.625-.46-1.239-.886-1.653-.098-.113-.223-.183-.332-.261l-.176-.09c-.05-.024-.16-.059-.238-.086a7 7 0 0 0-.985-.242c-1.37-.25-2.824-.211-4.332-.29-.383-.023-.765-.046-1.187-.144-.211-.055-.442-.113-.7-.293a1 1 0 0 1-.347-.434.9.9 0 0 1-.07-.289l-.004-.074c.015-.215.007-.078.011-.137l.012-.066a.8.8 0 0 1 .059-.16q.047-.1.105-.188c.067-.074.121-.125.184-.183.113-.086.23-.16.336-.207.215-.11.41-.168.605-.23.395-.114.77-.184 1.149-.25 1.5-.239 2.996-.317 4.402-.544.172-.03.344-.062.496-.101q.115-.03.207-.067l.063-.03c.02-.009 0 0 0 .007-.047.047-.075.094-.09.227.011.07-.02-.028.039.171l-.016-.03c-.004-.017-.027-.067-.008-.005.016.035.043.07.07.09.02.016 0 .004 0 .004 0-.004-.023-.016-.05-.023a2.5 2.5 0 0 0-.426-.118c-.668-.12-1.406-.164-2.129-.218-.726-.055-1.457-.102-2.195-.196a9 9 0 0 1-1.133-.21 2.7 2.7 0 0 1-.61-.235 1.3 1.3 0 0 1-.34-.266.82.82 0 0 1-.214-.578c0-.027 0-.035.004-.078.012-.066.031-.14.059-.207a.5.5 0 0 1 .085-.156l.086-.106c.118-.12.235-.195.34-.25.211-.109.41-.175.602-.222a8 8 0 0 1 1.105-.203c.719-.094 1.422-.141 2.114-.2.343-.027.687-.054 1.02-.093.327-.036.667-.082.913-.16.055-.016.11-.051.07-.024-.015.012-.015.02-.035.047a.4.4 0 0 0-.03.066c-.009.07-.017-.062-.013.18l-.007-.063c0 .07.035.157.09.204.054.054.03.015-.032.007a1.4 1.4 0 0 0-.187-.039 8 8 0 0 0-.953-.074c-.657-.023-1.325-.027-1.989-.062a9 9 0 0 1-1.012-.094 3.5 3.5 0 0 1-.53-.113c-.177-.063-.387-.118-.606-.368-.047-.078-.102-.156-.117-.25a1 1 0 0 1-.024-.14.4.4 0 0 1 .004-.09l.004-.031a.7.7 0 0 1 .062-.223 1 1 0 0 1 .13-.2c.202-.21.41-.273.59-.327.363-.098.69-.117 1.01-.133.634-.027 1.27.012 1.794-.05a1 1 0 0 0 .152-.032c.043-.008.02-.04-.039.086q-.007.02-.008.043c0 .008.02.164.008.082l-.012-.055c-.011-.058-.023-.027-.02-.012.036.047-.034-.023-.065-.047-.18-.136-.454-.257-.708-.367-.523-.238-1.054-.402-1.593-.742-.121-.082-.317-.219-.387-.508l-.008-.05a.5.5 0 0 1 0-.137.43.43 0 0 1 .145-.27c.172-.129.265-.113.347-.129.157-.015.262-.027.317-.05.035-.02.039-.02.062-.102.008-.062.008-.227.012-.352l.004-.39q.005-.388.016-.77.03-1.523.054-2.879c.04-1.808.07-3.382.098-4.68.066-2.597.101-4.077.101-4.077s.04 1.48.106 4.078c.027 1.297.059 2.87.094 4.68q.03 1.354.058 2.878.005.382.016.77l.004.39c0 .141.012.243-.012.442-.016.183-.16.441-.375.531-.2.086-.367.086-.48.106-.051 0-.098.03-.036-.004.024-.016.047-.07.051-.098.008-.012-.004-.05-.004-.035l.012.05c0-.023.024.044.14.106.407.246.97.426 1.508.649.278.117.551.218.848.421.082.079.14.086.258.258.05.07.09.16.09.176l.015.055c-.007-.063.016.11.008.136a.4.4 0 0 1-.015.098c-.102.27-.278.313-.375.356a1.5 1.5 0 0 1-.282.074c-.664.09-1.254.058-1.859.101-.293.02-.594.051-.836.125a.6.6 0 0 0-.23.118c-.004 0-.004.011 0-.004.011-.02.004-.063 0 .004 0 .015 0-.055-.02-.06-.008-.007.094.063.223.09q.189.054.414.079c.297.039.61.055.93.062.64.016 1.3.004 1.98.012.34.004.684.008 1.062.059.094.015.192.027.305.062.106.031.238.059.426.223.078.082.14.203.16.308l.012.063c-.004.262-.02.148-.031.242a.7.7 0 0 1-.06.121c-.038.067-.077.098-.12.14-.164.142-.274.169-.383.212-.406.129-.75.168-1.105.21-.352.044-.7.075-1.047.106-.692.063-1.387.121-2.067.211-.34.047-.675.106-.984.188a2 2 0 0 0-.399.148.4.4 0 0 0-.09.063c.012-.016-.019.023.02-.047a.12.12 0 0 0 .008-.082c-.004 0 0 .039-.004.054 0-.07-.016-.09-.02-.09.008.004.036.028.086.055.098.051.239.106.395.145.309.078.652.133.996.172.7.082 1.418.125 2.149.172.73.054 1.46.085 2.246.218.195.035.394.078.636.176.059.023.118.047.196.098.039.027.058.035.113.078.059.055.117.12.164.187.059.094.047.09.063.114l.011.03c.067.224.028.15.04.24-.005.233-.098.355-.2.472-.07.066-.16.137-.223.168-.062.031-.129.066-.187.09a3 3 0 0 1-.316.105c-.208.059-.399.094-.59.133-1.508.25-2.98.34-4.41.578a9 9 0 0 0-1.028.21 3 3 0 0 0-.433.157c-.067.028-.102.059-.137.082 0 .004-.02.016-.016.012a.2.2 0 0 0 .035-.066c.008-.016.004-.082 0-.04l-.011.07c0-.034-.016.126.004-.07v-.003l-.008-.02c-.012-.02-.016-.027 0-.008.043.035.176.09.324.121.297.075.656.106 1.008.13 1.437.085 2.949.054 4.453.335.379.074.75.164 1.133.293.093.035.156.055.273.106l.309.156c.183.12.375.25.515.41.61.61.93 1.355 1.13 2.102a6.52 6.52 0 0 1-.438 4.46c-.633 1.356-1.934 2.43-3.371 2.723a5.1 5.1 0 0 1-2.153.016c-.175-.035-.343-.094-.511-.14-.172-.06-.344-.134-.512-.204l-.445-.234-.645-.47-.176-.19-.351-.391-.27-.442-.133-.218-.09-.242-.171-.477-.082-.496-.04-.25c-.003-.082.004-.164.004-.246l.016-.496c.024-.164.074-.332.11-.496.042-.16.07-.344.14-.465l.188-.399.043-.097.039-.078.035-.051.144-.196c.168-.273.422-.476.653-.687.265-.164.52-.352.82-.434.281-.129.586-.156.883-.203.148-.008.297.004.445.008.145-.004.293.02.441.063.149.039.305.066.434.113l.356.168c.07.035.093.031.203.101l.172.13c.113.081.23.163.32.277.812.796.894 2.082.437 2.914-.445.922-1.496 1.324-2.32 1.074-.394-.106-.766-.317-.996-.64a1.6 1.6 0 0 1-.305-1.036c-.004-.168.059-.351.106-.496q.052-.106.097-.207c.047-.082.094-.133.141-.2.203-.234.477-.366.738-.413.528-.094.98.168 1.168.465a.96.96 0 0 1 .121.777c-.047.172-.109.246-.101.25" style="stroke:none;fill-rule:nonzero;fill:#32953d;fill-opacity:1"/><path d="M0 22.207V5.082h3.305v15.344h6.187l-.168 1.781zM19.746 14.816l-2.473-7.394-2.543 7.394Zm2.43 7.391-1.91-5.773-6.13.09-1.972 5.683h-2.098L16.512 5.23l3.215-.574 6 17.551zM39.824 13.59q0-1.559-.27-2.805-.269-1.242-.843-2.11a3.85 3.85 0 0 0-1.465-1.316q-.89-.456-2.113-.457a8.1 8.1 0 0 0-2 .235c-.621.152-1.11.375-1.465.66q-.538.428-.79 1.875-.25 1.449-.25 3.918 0 1.541.224 2.797c.148.836.394 1.554.742 2.164a3.66 3.66 0 0 0 1.379 1.402q.862.492 2.14.492 1.319-.001 2.172-.242a5 5 0 0 0 1.445-.648q.276-.189.48-.746c.138-.372.25-.825.345-1.364q.139-.81.203-1.8.065-.996.066-2.055m3.492 0q0 2.026-.511 3.66t-1.543 2.793q-1.03 1.165-2.57 1.785c-1.032.414-2.223.621-3.587.621q-2.099 0-3.601-.629-1.505-.633-2.465-1.793-.954-1.16-1.41-2.797c-.305-1.09-.453-2.304-.453-3.64q-.001-2.006.46-3.613c.313-1.07.79-1.985 1.442-2.739q.974-1.133 2.48-1.738c1-.402 2.192-.602 3.567-.602q2.057 0 3.594.602 1.529.605 2.554 1.738 1.021 1.132 1.532 2.739.51 1.607.511 3.613M58.102 22.45c-1.278 0-2.36-.216-3.254-.65a5.7 5.7 0 0 1-2.172-1.82c-.559-.78-.961-1.718-1.215-2.816q-.382-1.643-.383-3.648.001-1.617.371-2.887.373-1.274 1.016-2.23a7 7 0 0 1 1.484-1.626 8.3 8.3 0 0 1 1.781-1.085 8.7 8.7 0 0 1 1.926-.606 10.5 10.5 0 0 1 1.91-.184c.387 0 .79.012 1.22.036.425.027.839.058 1.241.101a23 23 0 0 1 1.98.309l-.612 2.433a8 8 0 0 0-.95-.234 42 42 0 0 0-1.308-.23 30 30 0 0 0-1.375-.188 11 11 0 0 0-1.121-.074q-.503 0-.895.031a4 4 0 0 0-.715.11 3 3 0 0 0-.613.23 4 4 0 0 0-.582.375c-.508.36-.856 1.039-1.031 2.043-.18 1-.27 2.254-.27 3.75q0 3.456 1.02 5.23c.68 1.18 1.777 1.774 3.289 1.774q1.282.001 2.676-.215c.925-.14 1.77-.344 2.523-.602v1.43c-.422.195-.875.375-1.363.527q-.735.235-1.504.391-.772.16-1.563.242t-1.511.082M70.137 12.457q-.131.112-.25.418a4.7 4.7 0 0 0-.215.727 8.3 8.3 0 0 0-.203 1.753l3.582-.168q-.053-.502-.164-1.039a4.4 4.4 0 0 0-.328-.984 2.4 2.4 0 0 0-.528-.742q-.316-.3-.761-.3-.317 0-.594.077a1.6 1.6 0 0 0-.54.258m1.539-1.93c.547 0 1.074.075 1.59.23.515.157.988.415 1.421.782q.653.545 1.122 1.465.473.92.718 2.297v.148a1.6 1.6 0 0 1-.402.371c-.164.11-.387.207-.656.285q-.412.123-1.004.223-.598.103-1.43.16l-3.605.278v.484q-.001 1.337.707 2.21.703.873 2.117.872.574.001 1.207-.121c.422-.078.82-.176 1.2-.285q.563-.169 1.038-.344.475-.18.715-.309l.277.836q-.519.393-1.168.809-.65.417-1.394.754a10 10 0 0 1-1.57.547q-.827.21-1.7.21-1.022.001-1.902-.304a3.75 3.75 0 0 1-1.523-.977c-.426-.445-.766-1.027-1.012-1.746q-.373-1.074-.371-2.617-.002-1.726.426-2.926.427-1.195 1.187-1.93a4.55 4.55 0 0 1 1.793-1.07 7.2 7.2 0 0 1 2.219-.332M86.668 22.207v-7.668c0-.684-.11-1.184-.324-1.508q-.327-.48-1.106-.48a3 3 0 0 0-.625.074q-.34.075-.687.215-.341.136-.676.312a5.5 5.5 0 0 0-.613.383v8.672h-3.25V10.766h2.898l.297 1.34h.035q.334-.223.809-.493.474-.27 1.031-.511.556-.24 1.152-.41.594-.165 1.168-.165.65 0 1.22.211.562.218.991.633.428.417.68 1.05.251.63.25 1.485v8.301zM93.613 12.348l-1.226-.41v-.688l3.523-2.488h.899l.035 2.004h3.476l-.148 1.265q-.394.07-.957.13c-.38.038-.742.066-1.086.093q-.615.054-1.266.11v6.425q0 .615.223 1.031c.148.282.457.418.93.418q.186 0 .5-.015c.21-.016.433-.032.66-.059q.345-.034.668-.082.328-.047.55-.082v.945q-.41.263-.949.532a10 10 0 0 1-1.14.48 9 9 0 0 1-1.22.344q-.614.129-1.175.129-.428 0-.84-.082a1.85 1.85 0 0 1-.738-.325 1.67 1.67 0 0 1-.523-.68c-.13-.288-.196-.671-.196-1.14zM109.234 13.348a6 6 0 0 0-.796-.211 4 4 0 0 0-.82-.086q-.277 0-.5.047-.225.044-.419.16a2 2 0 0 0-.39.297q-.196.181-.438.445v8.207h-3.25V10.766h2.918l.277 1.82h.02q.129-.204.316-.473.181-.27.399-.539.21-.27.445-.492.233-.223.473-.316c.285-.098.605-.164.969-.196q.537-.042 1.167-.043zM117.129 19.98a3 3 0 0 1-.035-.382 38.675 38.675 0 0 1-.066-1.855 66 66 0 0 1-.012-1.274q-1.19 0-1.793.14-.61.14-.754.344a.6.6 0 0 0-.117.277q-.047.206-.075.457c-.02.165-.03.34-.039.52q-.007.27-.008.492 0 .781.211 1.262.21.485.707.484c.356 0 .692-.043 1.016-.133a7 7 0 0 0 .965-.332m4.031.54q.406 0 1.133-.207v.78c-.176.16-.379.321-.613.473a5 5 0 0 1-1.578.688c-.286.07-.567.101-.836.101q-.445 0-.762-.128a2.1 2.1 0 0 1-.55-.325 1.9 1.9 0 0 1-.388-.453 5 5 0 0 1-.27-.504c-.273.188-.542.367-.808.547-.265.18-.547.34-.836.477a6 6 0 0 1-.922.332q-.482.129-1.074.129-1.335 0-2.11-.832-.77-.84-.769-2.528-.001-.889.23-1.562c.153-.445.403-.813.74-1.106q.513-.433 1.316-.668.808-.228 1.972-.27l1.961-.054v-1.664c0-.45-.117-.777-.36-.988q-.361-.321-1.234-.32-.614 0-1.422.148-.808.152-1.699.504l-.445-1.184a38 38 0 0 1 1.234-.508q.64-.247 1.301-.441c.438-.129.883-.23 1.336-.312a8 8 0 0 1 1.348-.118c.511 0 .965.043 1.363.137q.596.14 1 .473c.266.222.473.523.617.894.14.371.215.828.215 1.375v5.274c0 1.226.3 1.84.91 1.84M127.383 22.207h-3.25V3.449l3.25-.668z" style="stroke:none;fill-rule:nonzero;fill:#2ea84e;fill-opacity:1"/><path d="m56.41 34.473-2.469-7.395-2.546 7.395Zm2.434 7.39-1.914-5.777-6.13.094-1.968 5.683h-2.098l6.442-16.976 3.215-.575 6 17.551zM67.5 41.863h-3.254V30.422H67.5Zm-1.691-17.922 2.062 2.133-2.062 2.156-2.043-2.156zM77.77 33.004a6 6 0 0 0-.797-.215 4.4 4.4 0 0 0-.817-.082q-.28 0-.504.047-.223.046-.418.156a2.2 2.2 0 0 0-.39.297q-.194.187-.438.445v8.211h-3.25V30.422h2.918l.278 1.82h.02a13 13 0 0 1 .714-1.012c.14-.18.293-.343.445-.492q.234-.223.473-.316.429-.148.969-.195.537-.048 1.168-.047zM83.453 41.863h-3.25V23.105l3.25-.671zM90.363 41.863h-3.25V30.422h3.25Zm-1.691-17.922 2.062 2.133-2.062 2.156-2.043-2.156zM101.305 41.863v-7.672q0-1.019-.328-1.504-.321-.48-1.106-.48-.274-.001-.621.074a4 4 0 0 0-.687.211q-.342.141-.676.317-.336.177-.614.382v8.672h-3.25V30.422h2.895l.3 1.34h.036q.334-.229.808-.496c.317-.176.66-.348 1.032-.508q.556-.24 1.148-.41.599-.166 1.172-.168.65.002 1.219.215.563.21.992.632a3 3 0 0 1 .68 1.047q.248.633.25 1.489v8.3zM111.426 32.113c-.086.075-.168.211-.25.418a5 5 0 0 0-.215.723q-.093.42-.148.875c-.036.3-.055.598-.055.883l3.586-.168q-.058-.505-.168-1.04a4.5 4.5 0 0 0-.324-.988 2.5 2.5 0 0 0-.532-.742 1.09 1.09 0 0 0-.761-.297c-.211 0-.407.028-.594.075-.188.05-.363.136-.54.261m1.543-1.933q.816 0 1.586.234c.515.152.988.414 1.422.777q.65.55 1.125 1.47c.312.612.554 1.378.714 2.292v.149q-.145.205-.402.37c-.164.114-.387.212-.656.29q-.412.123-1.004.222a14 14 0 0 1-1.43.16l-3.601.278v.484q0 1.335.703 2.207.707.874 2.117.875c.387 0 .785-.039 1.207-.12q.631-.123 1.2-.29t1.038-.344q.475-.175.715-.304l.281.836q-.521.386-1.171.808a11 11 0 0 1-1.391.75q-.745.334-1.57.551-.827.21-1.7.21a5.8 5.8 0 0 1-1.906-.304 3.9 3.9 0 0 1-1.523-.976q-.638-.669-1.012-1.746-.37-1.078-.371-2.618-.001-1.73.426-2.925c.285-.801.683-1.442 1.191-1.934a4.6 4.6 0 0 1 1.79-1.066 7.2 7.2 0 0 1 2.222-.336M128.402 38.094q0 .965-.398 1.586a5 5 0 0 1-.938 1.09c-.187.16-.382.32-.593.48q-.316.244-.707.43a4.3 4.3 0 0 1-.891.297q-.504.11-1.172.109-1.208.001-2.2-.25a6.3 6.3 0 0 1-1.866-.809l.797-2.136q.374.222.789.504a9 9 0 0 0 .894.511q.473.23.992.387.521.159 1.059.16.37-.001.68-.055a1.2 1.2 0 0 0 .507-.207c.114-.086.196-.242.254-.472q.082-.343.082-.828 0-.556-.418-.88-.416-.326-1.05-.57-.628-.24-1.356-.48a6.3 6.3 0 0 1-1.355-.64 3.4 3.4 0 0 1-1.047-1.024q-.42-.62-.418-1.645-.002-.666.406-1.328.41-.656.89-1.086c.4-.36.837-.625 1.321-.797.484-.171 1.04-.261 1.672-.261q.796 0 1.691.093.89.094 1.668.204l-.351 2.265q-.388-.129-.844-.258a31 31 0 0 0-.902-.242 9 9 0 0 0-.864-.176 5 5 0 0 0-.75-.066q-.429 0-.652.047-.222.045-.352.121-.11.075-.175.316a2 2 0 0 0-.067.5q0 .522.418.82.418.294 1.051.528.629.233 1.363.484.734.248 1.368.641c.417.258.769.598 1.046 1.012.282.414.418.957.418 1.625" style="stroke:none;fill-rule:nonzero;fill:#f5d50d;fill-opacity:1"/></svg>