<?xml version="1.0" encoding="UTF-8"?>
<svg xmlns="http://www.w3.org/2000/svg" xmlns:xlink="http://www.w3.org/1999/xlink" width="176pt" height="54.02pt" viewBox="0 0 176 54.02" version="1.1">
<defs>
<clipPath id="clip1">
  <path d="M 31 23 L 176 23 L 176 54.019531 L 31 54.019531 Z M 31 23 "/>
</clipPath>
</defs>
<g id="surface1">
<g clip-path="url(#clip1)" clip-rule="nonzero">
<path style=" stroke:none;fill-rule:nonzero;fill:rgb(25.325012%,68.6203%,75.40741%);fill-opacity:1;" d="M 128.679688 46.628906 C 128.679688 48.515625 128.292969 49.957031 124.933594 49.957031 C 122.183594 49.957031 121.1875 48.882812 121.1875 46.609375 C 121.1875 45.125 122.058594 44.246094 124.3125 43.367188 C 125.761719 42.78125 127.191406 42.285156 128.679688 41.75 Z M 125.210938 30.347656 C 122.195312 30.347656 118.464844 30.832031 115.75 31.71875 C 115.648438 31.75 115.617188 31.828125 115.617188 31.941406 L 115.617188 35.714844 C 115.617188 36.265625 115.8125 36.53125 116.160156 36.53125 C 116.378906 36.539062 116.648438 36.402344 117.003906 36.253906 C 119.203125 35.292969 121.644531 34.84375 124.613281 34.84375 C 128.246094 34.84375 128.679688 35.429688 128.679688 36.648438 C 128.679688 37.667969 128.613281 37.699219 127.144531 38.09375 C 123.816406 39.039062 119.914062 39.910156 116.78125 41.652344 C 114.59375 42.867188 113.804688 45.027344 113.804688 47.332031 C 113.804688 52.324219 116.859375 54.003906 123.640625 54.003906 C 129.339844 54.003906 133.464844 53.273438 135.917969 52.285156 L 135.917969 37.152344 C 135.921875 31.476562 130.320312 30.347656 125.210938 30.347656 M 148.757812 30.851562 L 143.152344 30.851562 L 143.152344 53.488281 L 150.394531 53.488281 L 150.394531 32.671875 C 150.394531 31.222656 150.03125 30.851562 148.757812 30.851562 M 175.492188 30.730469 C 173.761719 30.496094 171.378906 30.332031 168.636719 30.332031 C 164.636719 30.351562 160.304688 30.707031 157.628906 31.683594 L 157.628906 53.488281 L 164.867188 53.488281 L 164.867188 38.097656 C 164.867188 36.597656 165.71875 35.519531 167.1875 35.300781 C 168.210938 35.140625 169.710938 35.074219 170.699219 35.085938 C 172.726562 35.109375 174.640625 35.292969 175.652344 35.582031 C 175.652344 35.582031 175.832031 35.625 175.925781 35.542969 L 176 35.324219 L 176 31.304688 C 176 30.9375 175.894531 30.789062 175.492188 30.730469 M 148.757812 23.601562 L 143.152344 23.601562 L 143.152344 28.507812 L 150.394531 28.507812 L 150.394531 25.300781 C 150.394531 23.78125 150.144531 23.601562 148.757812 23.601562 M 79.253906 30.851562 L 73.203125 30.851562 L 73.203125 49.03125 C 72.089844 49.433594 70.160156 49.558594 68.863281 49.558594 C 65.914062 49.558594 64.613281 48.445312 64.613281 46.589844 L 64.613281 32.058594 C 64.613281 31.394531 64.082031 30.855469 63.425781 30.855469 L 57.378906 30.855469 L 57.378906 46.121094 C 57.378906 51.605469 61.257812 54.011719 69.007812 54.011719 C 73.683594 54.011719 78.199219 53.246094 80.449219 52.234375 L 80.449219 32.058594 C 80.445312 31.382812 79.914062 30.851562 79.253906 30.851562 M 110.625 30.851562 L 103.3125 30.851562 C 102.671875 30.851562 102.191406 31.066406 101.839844 31.625 L 98.128906 37.125 L 97.976562 37.125 L 94.394531 31.625 C 94.042969 31.078125 93.589844 30.851562 92.945312 30.851562 L 84.878906 30.851562 L 92.90625 42 L 83.953125 53.488281 L 91.292969 53.488281 C 91.980469 53.488281 92.480469 53.175781 92.777344 52.71875 L 97.226562 46.074219 L 97.410156 46.074219 L 101.582031 52.464844 C 102.019531 53.230469 102.515625 53.488281 103.226562 53.488281 L 111.511719 53.488281 L 102.4375 41.535156 Z M 52.992188 48.433594 C 51.824219 48.511719 49.234375 48.652344 47.5625 48.664062 C 45.878906 48.664062 44.332031 48.605469 43.695312 48.539062 C 40.832031 48.238281 39.875 47.09375 39.875 44.183594 L 39.875 27.386719 C 39.875 25.851562 39.59375 25.339844 37.816406 25.339844 L 31.914062 25.339844 L 31.914062 45.71875 C 31.914062 51.605469 33.40625 54.019531 43.765625 54.019531 C 51.769531 54.019531 54.8125 53.613281 54.8125 53.613281 C 54.8125 53.613281 54.835938 50.851562 54.835938 49.789062 C 54.832031 48.386719 54.679688 48.316406 52.992188 48.433594 "/>
</g>
<path style=" stroke:none;fill-rule:nonzero;fill:rgb(25.325012%,68.6203%,75.40741%);fill-opacity:1;" d="M 18.03125 3.328125 L 4.042969 20.160156 C 3.894531 20.320312 3.84375 20.507812 3.90625 20.65625 C 3.972656 20.8125 4.117188 20.914062 4.316406 20.914062 L 25.941406 20.914062 C 26.132812 20.914062 26.269531 20.75 26.269531 20.566406 C 26.269531 20.375 26.179688 20.265625 25.992188 20.222656 C 25.214844 20.035156 20.96875 19.117188 17.917969 18.195312 C 16.027344 17.625 15.289062 16 15.785156 13.832031 C 16.324219 11.429688 18.628906 3.710938 18.640625 3.6875 C 18.691406 3.53125 18.65625 3.328125 18.488281 3.25 C 18.304688 3.152344 18.148438 3.199219 18.03125 3.328125 "/>
<path style=" stroke:none;fill-rule:nonzero;fill:rgb(25.325012%,68.6203%,75.40741%);fill-opacity:1;" d="M 15.238281 1.859375 C 7.847656 1.859375 1.859375 7.851562 1.859375 15.253906 C 1.859375 22.636719 7.847656 28.628906 15.238281 28.628906 C 22.625 28.628906 28.621094 22.636719 28.621094 15.253906 C 28.621094 7.792969 22.625 1.859375 15.238281 1.859375 M 15.238281 0 C 23.609375 0 30.421875 6.816406 30.421875 15.253906 C 30.421875 23.613281 23.609375 30.4375 15.238281 30.4375 C 6.8125 30.4375 0 23.613281 0 15.253906 C 0 6.820312 6.8125 0 15.238281 0 "/>
</g>
</svg>
