<svg xmlns="http://www.w3.org/2000/svg" width="176pt" height="72.027" viewBox="0 0 176 54.02"><defs><clipPath id="a"><path d="M31 23h145v31.02H31Zm0 0"/></clipPath></defs><g clip-path="url(#a)"><path d="M128.68 46.629c0 1.887-.387 3.328-3.746 3.328-2.75 0-3.746-1.074-3.746-3.348 0-1.484.87-2.363 3.124-3.242 1.45-.586 2.88-1.082 4.368-1.617Zm-3.47-16.281c-3.015 0-6.745.484-9.46 1.37-.102.032-.133.11-.133.223v3.774c0 .55.195.816.543.816.219.008.488-.129.844-.277 2.2-.961 4.64-1.41 7.61-1.41 3.632 0 4.066.586 4.066 1.804 0 1.02-.067 1.051-1.535 1.446-3.329.945-7.23 1.816-10.364 3.558-2.187 1.215-2.976 3.375-2.976 5.68 0 4.992 3.054 6.672 9.836 6.672 5.699 0 9.824-.73 12.277-1.719V37.152c.004-5.675-5.598-6.804-10.707-6.804m23.547.504h-5.606v22.636h7.243V32.672c0-1.45-.364-1.82-1.637-1.82m26.734-.122c-1.73-.234-4.113-.398-6.855-.398-4 .02-8.332.375-11.008 1.352v21.804h7.238v-15.39c0-1.5.852-2.578 2.32-2.797 1.024-.16 2.524-.227 3.512-.215 2.028.023 3.942.207 4.953.496 0 0 .18.043.274-.039l.074-.219v-4.02c0-.366-.105-.515-.508-.574m-26.734-7.128h-5.606v4.906h7.243V25.3c0-1.52-.25-1.7-1.637-1.7m-69.504 7.25h-6.05v18.18c-1.114.403-3.044.528-4.34.528-2.95 0-4.25-1.114-4.25-2.97V32.06c0-.664-.532-1.204-1.188-1.204h-6.047v15.266c0 5.484 3.879 7.89 11.629 7.89 4.676 0 9.191-.765 11.441-1.777V32.06a1.2 1.2 0 0 0-1.195-1.207m31.371 0h-7.312c-.641 0-1.122.214-1.473.773l-3.711 5.5h-.152l-3.582-5.5c-.352-.547-.805-.773-1.45-.773H84.88L92.906 42l-8.953 11.488h7.34c.687 0 1.187-.312 1.484-.77l4.45-6.644h.183l4.172 6.39c.438.766.934 1.024 1.645 1.024h8.285l-9.074-11.953ZM52.992 48.434c-1.168.078-3.758.218-5.43.23-1.683 0-3.23-.059-3.867-.125-2.863-.3-3.82-1.445-3.82-4.355V27.387c0-1.535-.281-2.047-2.059-2.047h-5.902v20.379c0 5.886 1.492 8.3 11.852 8.3 8.004 0 11.047-.406 11.047-.406s.023-2.761.023-3.824c-.004-1.402-.156-1.473-1.844-1.355" style="stroke:none;fill-rule:nonzero;fill:#41afc0;fill-opacity:1"/></g><path d="M18.031 3.328 4.043 20.16c-.148.16-.2.348-.137.496.067.157.211.258.41.258h21.625c.192 0 .329-.164.329-.348 0-.191-.09-.3-.278-.343-.777-.188-5.023-1.106-8.074-2.028-1.89-.57-2.629-2.195-2.133-4.363.54-2.402 2.844-10.121 2.856-10.144.05-.157.015-.36-.153-.438-.183-.098-.34-.05-.457.078" style="stroke:none;fill-rule:nonzero;fill:#41afc0;fill-opacity:1"/><path d="M15.238 1.86C7.848 1.86 1.86 7.851 1.86 15.253c0 7.383 5.989 13.375 13.38 13.375 7.386 0 13.382-5.992 13.382-13.375 0-7.461-5.996-13.395-13.383-13.395m0-1.859c8.371 0 15.184 6.816 15.184 15.254 0 8.36-6.813 15.184-15.184 15.184C6.813 30.438 0 23.613 0 15.254 0 6.82 6.813 0 15.238 0" style="stroke:none;fill-rule:nonzero;fill:#41afc0;fill-opacity:1"/></svg>