<?xml version="1.0" encoding="utf-8"?>
<!-- Generator: Adobe Illustrator 28.0.0, SVG Export Plug-In . SVG Version: 6.00 Build 0)  -->
<svg version="1.1" id="Layer_1" xmlns="http://www.w3.org/2000/svg" xmlns:xlink="http://www.w3.org/1999/xlink" x="0px" y="0px"
	 viewBox="0 0 176 59" style="enable-background:new 0 0 176 59;" xml:space="preserve">
<style type="text/css">
	.st0{fill:#05164D;}
</style>
<g>
	<path class="st0" d="M176,25.1v-9.5c0-4-2.3-5.4-6.6-5.4c-4.3,0-6.4,1.6-6.5,4.7h4.2c0.1-0.8,0.5-1.4,2.3-1.4    c1.6,0,2.3,0.5,2.3,1.3c0,0.7-0.4,0.9-1.5,1.1l-2.8,0.3c-3.7,0.4-5.4,2-5.4,4.8c0,2.6,1.6,4.6,5,4.6c2.3,0,3.7-0.7,4.9-2.2v1.8H176    L176,25.1z M171.9,19.5c0,1.6-1.5,2.8-3.8,2.8c-1.1,0-1.8-0.5-1.8-1.5c0-0.7,0.5-1.4,1.9-1.6l2.5-0.3c0.4-0.1,0.9-0.1,1.1-0.2    L171.9,19.5L171.9,19.5z M152.4,14.7c0-0.6,0.5-1.1,2-1.1c1.5,0,1.9,0.5,2.1,1.4h4.2c-0.2-3.1-2.3-4.7-6.3-4.7    c-4.3,0-6.3,2-6.3,4.8c0,2.9,1.8,4.1,5,4.5l1.5,0.2c1.5,0.2,2.1,0.5,2.1,1.3c0,0.8-0.7,1.2-2.4,1.2c-1.7,0-2.4-0.5-2.5-1.6h-4.3    c0.1,2.9,1.8,4.9,6.8,4.9c4.6,0,6.7-1.8,6.7-4.9c0-3-1.8-4.2-5.5-4.7l-1.5-0.2C152.7,15.7,152.4,15.3,152.4,14.7L152.4,14.7z     M142,25.1h4.3v-8.5c0-4.8-1.9-6.4-5.7-6.4c-2.3,0-3.6,1-4.2,2.1v-1.7h-4.1v14.5h4.3v-8.3c0-1.9,1-2.8,2.6-2.8    c1.8,0,2.6,0.9,2.6,2.8L142,25.1L142,25.1z M126.6,25.1h4v-9.5c0-4-2.3-5.4-6.6-5.4c-4.3,0-6.3,1.6-6.5,4.7h4.2    c0.1-0.8,0.5-1.4,2.3-1.4c1.6,0,2.3,0.5,2.3,1.3c0,0.7-0.4,0.9-1.5,1.1l-2.8,0.3c-3.7,0.4-5.4,2-5.4,4.8c0,2.6,1.6,4.6,5,4.6    c2.3,0,3.7-0.7,4.9-2.2L126.6,25.1L126.6,25.1z M126.5,19.5c0,1.6-1.5,2.8-3.8,2.8c-1.1,0-1.8-0.5-1.8-1.5c0-0.7,0.5-1.4,1.9-1.6    l2.5-0.3c0.4-0.1,0.9-0.1,1.1-0.2C126.5,18.6,126.5,19.5,126.5,19.5z M111.1,25.1h4.3v-8.5c0-4.8-1.9-6.4-5.6-6.4    c-2,0-3.2,0.8-4,1.8V5h-4.4v20.1h4.3v-8.3c0-1.9,1-2.8,2.6-2.8c1.8,0,2.6,0.9,2.6,2.8L111.1,25.1L111.1,25.1z M98.1,25.4    c1.1,0,2.1-0.2,2.1-0.2v-3.5c0,0-0.7,0.1-1.2,0.1c-1.3,0-2.1-0.4-2.1-2v-5.6h3.3v-3.5h-3.3V6.4h-4.3v4.2h-2.2v3.5h2.2v6.1    C92.6,23.8,94.7,25.4,98.1,25.4L98.1,25.4z M86.1,14.2h3.2v-3.5h-3.2v-0.6c0-1.3,0.7-1.7,2.1-1.7c0.5,0,1.1,0.1,1.1,0.1V4.9    c0,0-0.7-0.2-1.8-0.2c-3.5,0-5.7,1.9-5.7,5.4v0.5h-2.2v3.5h2.2v10.9h4.3L86.1,14.2L86.1,14.2z M74.3,25.1h4.1V10.7H74v8.3    c0,1.9-1,2.8-2.6,2.8c-1.8,0-2.6-0.9-2.6-2.8v-8.3h-4.3v8.5c0,4.8,1.9,6.4,5.6,6.4c2.3,0,3.5-1,4.1-2.1L74.3,25.1L74.3,25.1z     M50.3,25.1h13.3v-4.1h-8.6V5h-4.7V25.1z M30.2,15.1C30.2,6.7,23.4,0,15.1,0C6.8,0,0,6.7,0,15.1c0,8.3,6.8,15.1,15.1,15.1    C23.4,30.2,30.2,23.4,30.2,15.1z M29.1,15.1c0,7.7-6.3,14-14,14c-7.7,0-14-6.3-14-14c0-7.7,6.3-14,14-14    C22.8,1.1,29.1,7.4,29.1,15.1z M20.4,14.2c-0.3,0-0.8,0-1.3,0l0.4-0.7h0.6c2.3,0,4,0.1,5.5,0.4l0.7-0.7c-1.7-0.3-3.8-0.5-5.9-0.5    h-0.5l0.3-0.6h0.6c2.2,0,4.2,0.2,6.1,0.5l0.7-0.7c-2.2-0.4-4.5-0.6-7-0.6c-1.1,0-2.1,0.1-3.2,0.2c-1.2,2.6-3.1,4.1-5.3,4.1    c-0.8,0-1.9-0.4-3.3-1.1l-1.3-0.7L8,13.4l2.9,1.3l0.6-0.5l-5.9-2.7l-0.9,0.7l-2.1-0.9l0,0.9c2.8,1.3,4,2,7,4.2    c3.9,2.8,7.4,4.3,12.2,5.2l1.3-1.2h-0.3c-3.2,0-6.1-1.1-7.7-2.8c1.4-0.8,3.1-1.2,5.5-1.2c0.6,0,1.5,0.1,2.4,0.2l0.7-0.7    c-1.1-0.1-2.3-0.2-3.4-0.2c-0.8,0-1.5,0-2.3,0.1l0.5-0.7c0.6,0,1.3-0.1,1.9-0.1c1.6,0,2.7,0.1,3.9,0.2l0.7-0.7    C23.8,14.3,22,14.2,20.4,14.2z"/>
</g>
</svg>
