<svg xmlns="http://www.w3.org/2000/svg" xml:space="preserve" viewBox="0 0 176 59"><path d="M176 25.1v-9.5c0-4-2.3-5.4-6.6-5.4s-6.4 1.6-6.5 4.7h4.2c.1-.8.5-1.4 2.3-1.4 1.6 0 2.3.5 2.3 1.3 0 .7-.4.9-1.5 1.1l-2.8.3c-3.7.4-5.4 2-5.4 4.8 0 2.6 1.6 4.6 5 4.6 2.3 0 3.7-.7 4.9-2.2v1.8h4.1zm-4.1-5.6c0 1.6-1.5 2.8-3.8 2.8-1.1 0-1.8-.5-1.8-1.5 0-.7.5-1.4 1.9-1.6l2.5-.3c.4-.1.9-.1 1.1-.2zm-19.5-4.8c0-.6.5-1.1 2-1.1s1.9.5 2.1 1.4h4.2c-.2-3.1-2.3-4.7-6.3-4.7-4.3 0-6.3 2-6.3 4.8 0 2.9 1.8 4.1 5 4.5l1.5.2c1.5.2 2.1.5 2.1 1.3s-.7 1.2-2.4 1.2-2.4-.5-2.5-1.6h-4.3c.1 2.9 1.8 4.9 6.8 4.9 4.6 0 6.7-1.8 6.7-4.9 0-3-1.8-4.2-5.5-4.7l-1.5-.2c-1.3-.1-1.6-.5-1.6-1.1M142 25.1h4.3v-8.5c0-4.8-1.9-6.4-5.7-6.4-2.3 0-3.6 1-4.2 2.1v-1.7h-4.1v14.5h4.3v-8.3c0-1.9 1-2.8 2.6-2.8 1.8 0 2.6.9 2.6 2.8zm-15.4 0h4v-9.5c0-4-2.3-5.4-6.6-5.4s-6.3 1.6-6.5 4.7h4.2c.1-.8.5-1.4 2.3-1.4 1.6 0 2.3.5 2.3 1.3 0 .7-.4.9-1.5 1.1l-2.8.3c-3.7.4-5.4 2-5.4 4.8 0 2.6 1.6 4.6 5 4.6 2.3 0 3.7-.7 4.9-2.2zm-.1-5.6c0 1.6-1.5 2.8-3.8 2.8-1.1 0-1.8-.5-1.8-1.5 0-.7.5-1.4 1.9-1.6l2.5-.3c.4-.1.9-.1 1.1-.2.1-.1.1.8.1.8m-15.4 5.6h4.3v-8.5c0-4.8-1.9-6.4-5.6-6.4-2 0-3.2.8-4 1.8V5h-4.4v20.1h4.3v-8.3c0-1.9 1-2.8 2.6-2.8 1.8 0 2.6.9 2.6 2.8zm-13 .3c1.1 0 2.1-.2 2.1-.2v-3.5s-.7.1-1.2.1c-1.3 0-2.1-.4-2.1-2v-5.6h3.3v-3.5h-3.3V6.4h-4.3v4.2h-2.2v3.5h2.2v6.1c0 3.6 2.1 5.2 5.5 5.2m-12-11.2h3.2v-3.5h-3.2v-.6c0-1.3.7-1.7 2.1-1.7.5 0 1.1.1 1.1.1V4.9s-.7-.2-1.8-.2c-3.5 0-5.7 1.9-5.7 5.4v.5h-2.2v3.5h2.2V25h4.3zM74.3 25.1h4.1V10.7H74V19c0 1.9-1 2.8-2.6 2.8-1.8 0-2.6-.9-2.6-2.8v-8.3h-4.3v8.5c0 4.8 1.9 6.4 5.6 6.4 2.3 0 3.5-1 4.1-2.1zm-24 0h13.3V21H55V5h-4.7zm-20.1-10C30.2 6.7 23.4 0 15.1 0S0 6.7 0 15.1c0 8.3 6.8 15.1 15.1 15.1s15.1-6.8 15.1-15.1m-1.1 0c0 7.7-6.3 14-14 14s-14-6.3-14-14 6.3-14 14-14 14 6.3 14 14m-8.7-.9h-1.3l.4-.7h.6c2.3 0 4 .1 5.5.4l.7-.7c-1.7-.3-3.8-.5-5.9-.5h-.5l.3-.6h.6c2.2 0 4.2.2 6.1.5l.7-.7c-2.2-.4-4.5-.6-7-.6-1.1 0-2.1.1-3.2.2-1.2 2.6-3.1 4.1-5.3 4.1-.8 0-1.9-.4-3.3-1.1l-1.3-.7.5-.4 2.9 1.3.6-.5-5.9-2.7-.9.7-2.1-.9v.9c2.8 1.3 4 2 7 4.2 3.9 2.8 7.4 4.3 12.2 5.2l1.3-1.2h-.3c-3.2 0-6.1-1.1-7.7-2.8 1.4-.8 3.1-1.2 5.5-1.2.6 0 1.5.1 2.4.2l.7-.7c-1.1-.1-2.3-.2-3.4-.2-.8 0-1.5 0-2.3.1l.5-.7c.6 0 1.3-.1 1.9-.1 1.6 0 2.7.1 3.9.2l.7-.7c-1.2-.2-3-.3-4.6-.3" style="fill:#05164d"/></svg>