<?xml version="1.0" encoding="UTF-8"?>
<svg xmlns="http://www.w3.org/2000/svg" xmlns:xlink="http://www.w3.org/1999/xlink" width="176pt" height="32.76pt" viewBox="0 0 176 32.76" version="1.1">
<defs>
<clipPath id="clip1">
  <path d="M 22 18 L 36 18 L 36 32.761719 L 22 32.761719 Z M 22 18 "/>
</clipPath>
<clipPath id="clip2">
  <path d="M 7 18 L 21 18 L 21 32.761719 L 7 32.761719 Z M 7 18 "/>
</clipPath>
</defs>
<g id="surface1">
<path style=" stroke:none;fill-rule:nonzero;fill:rgb(32.096863%,68.67981%,90.168762%);fill-opacity:1;" d="M 122.570312 16.15625 C 126.496094 16.15625 130.203125 16.15625 134.121094 16.15625 C 134.121094 14.6875 134.121094 13.367188 134.121094 11.960938 C 130.152344 11.960938 126.445312 11.960938 122.570312 11.960938 C 122.570312 13.378906 122.570312 14.597656 122.570312 16.15625 Z M 134.125 21.101562 L 122.59375 21.101562 L 122.6875 26.902344 C 122.6875 26.902344 119.679688 26.902344 118.183594 26.902344 C 118.183594 20.472656 118.183594 14.109375 118.183594 7.566406 C 125.050781 7.566406 131.734375 7.566406 138.628906 7.566406 C 138.628906 14.003906 138.628906 20.320312 138.628906 26.910156 C 137.363281 26.910156 134.132812 26.910156 134.132812 26.910156 L 134.125 21.101562 "/>
<path style=" stroke:none;fill-rule:nonzero;fill:rgb(47.010803%,7.99408%,27.520752%);fill-opacity:1;" d="M 91.035156 7.34375 C 98.042969 7.34375 104.894531 7.34375 111.964844 7.34375 C 111.964844 13.964844 111.964844 20.480469 111.964844 27.179688 C 110.40625 27.179688 108.988281 27.179688 107.28125 27.179688 C 107.28125 22.132812 107.28125 17.222656 107.28125 12.136719 C 103.347656 12.136719 99.703125 12.136719 95.710938 12.136719 C 95.710938 17.222656 95.710938 22.128906 95.710938 27.191406 C 93.996094 27.191406 92.628906 27.191406 91.035156 27.191406 C 91.035156 20.648438 91.035156 14.128906 91.035156 7.34375 "/>
<path style=" stroke:none;fill-rule:nonzero;fill:rgb(47.010803%,7.99408%,27.520752%);fill-opacity:1;" d="M 53.636719 18.019531 C 55.25 18.019531 58.199219 18.019531 58.199219 18.019531 L 58.136719 22.195312 L 69.875 22.195312 C 69.875 22.195312 69.875 12.453125 69.875 7.425781 C 71.566406 7.425781 72.996094 7.425781 74.644531 7.425781 C 74.644531 13.976562 74.644531 20.5 74.644531 27.1875 C 67.582031 27.1875 60.683594 27.1875 53.636719 27.1875 C 53.636719 24.097656 53.636719 21.179688 53.636719 18.019531 "/>
<path style=" stroke:none;fill-rule:nonzero;fill:rgb(32.096863%,68.67981%,90.168762%);fill-opacity:1;" d="M 159.808594 26.988281 C 158.148438 26.988281 156.949219 26.988281 155.546875 26.988281 C 155.546875 20.496094 155.546875 14.1875 155.546875 7.628906 C 162.328125 7.628906 169.058594 7.628906 176 7.628906 C 176 10.394531 176 13.074219 176 16.007812 C 174.65625 16.007812 172.019531 16.007812 172.019531 16.007812 L 171.964844 11.984375 C 171.964844 11.984375 163.898438 11.984375 159.808594 11.984375 C 159.808594 16.964844 159.808594 21.804688 159.808594 26.988281 "/>
<path style=" stroke:none;fill-rule:nonzero;fill:rgb(47.010803%,7.99408%,27.520752%);fill-opacity:1;" d="M 80.515625 7.371094 C 82.152344 7.371094 83.523438 7.371094 85.054688 7.371094 C 85.054688 13.972656 85.054688 20.445312 85.054688 27.136719 C 83.597656 27.136719 82.175781 27.136719 80.515625 27.136719 C 80.515625 20.605469 80.515625 14.089844 80.515625 7.371094 "/>
<path style=" stroke:none;fill-rule:nonzero;fill:rgb(32.096863%,68.67981%,90.168762%);fill-opacity:1;" d="M 148.890625 27.003906 C 147.566406 27.003906 146.429688 27.003906 145.046875 27.003906 C 145.046875 20.492188 145.046875 14.128906 145.046875 7.574219 C 146.320312 7.574219 147.460938 7.574219 148.890625 7.574219 C 148.890625 13.960938 148.890625 20.324219 148.890625 27.003906 "/>
<path style=" stroke:none;fill-rule:nonzero;fill:rgb(47.010803%,7.99408%,27.520752%);fill-opacity:1;" d="M 23.660156 14.027344 C 23.40625 11.8125 23.167969 9.738281 22.898438 7.382812 C 23.609375 6.929688 24.570312 6.289062 25.5625 5.695312 C 28.984375 3.660156 32.460938 1.738281 36.328125 0.660156 C 37.984375 0.199219 39.628906 -0.417969 41.402344 0.390625 C 42.269531 0.78125 42.847656 1.207031 43.039062 2.207031 C 43.609375 5.175781 43.621094 8.117188 43.089844 11.105469 C 42.859375 12.390625 42.644531 13.640625 42.230469 14.894531 C 41.488281 17.148438 40.199219 18.859375 38.199219 20.121094 C 37.117188 20.804688 35.898438 21.003906 34.71875 21.203125 C 34.105469 21.304688 33.296875 20.90625 32.734375 20.511719 C 29.875 18.5 27.070312 16.414062 24.238281 14.363281 C 24.007812 14.195312 23.742188 14.074219 23.660156 14.027344 "/>
<g clip-path="url(#clip1)" clip-rule="nonzero">
<path style=" stroke:none;fill-rule:nonzero;fill:rgb(47.010803%,7.99408%,27.520752%);fill-opacity:1;" d="M 23.183594 27.234375 C 24.09375 27.132812 24.644531 27.070312 25.53125 26.96875 C 24.425781 26.09375 23.574219 25.417969 22.519531 24.578125 C 22.726562 22.589844 22.953125 20.445312 23.203125 18.09375 C 23.828125 18.296875 24.359375 18.4375 24.871094 18.636719 C 27.554688 19.683594 30.273438 20.660156 32.902344 21.832031 C 34.410156 22.503906 35.007812 24.070312 35.347656 25.554688 C 35.832031 27.65625 35.382812 29.625 33.773438 31.207031 C 32.035156 32.914062 30.441406 33.214844 28.265625 32.105469 C 26.902344 31.410156 25.609375 30.601562 24.773438 29.21875 C 24.40625 28.605469 23.878906 28.089844 23.183594 27.234375 "/>
</g>
<path style=" stroke:none;fill-rule:nonzero;fill:rgb(32.096863%,68.67981%,90.168762%);fill-opacity:1;" d="M 19.816406 14.027344 C 20.070312 11.8125 20.308594 9.738281 20.582031 7.382812 C 19.867188 6.929688 18.90625 6.289062 17.914062 5.695312 C 14.496094 3.660156 11.015625 1.738281 7.152344 0.660156 C 5.496094 0.199219 3.851562 -0.417969 2.074219 0.390625 C 1.210938 0.78125 0.632812 1.207031 0.441406 2.207031 C -0.132812 5.175781 -0.144531 8.117188 0.390625 11.105469 C 0.621094 12.390625 0.832031 13.640625 1.246094 14.894531 C 1.988281 17.148438 3.28125 18.859375 5.277344 20.121094 C 6.359375 20.804688 7.578125 21.003906 8.761719 21.203125 C 9.371094 21.304688 10.179688 20.90625 10.742188 20.511719 C 13.601562 18.5 16.410156 16.414062 19.242188 14.363281 C 19.472656 14.195312 19.734375 14.074219 19.816406 14.027344 "/>
<g clip-path="url(#clip2)" clip-rule="nonzero">
<path style=" stroke:none;fill-rule:nonzero;fill:rgb(32.096863%,68.67981%,90.168762%);fill-opacity:1;" d="M 20.296875 27.234375 C 19.386719 27.132812 18.832031 27.070312 17.945312 26.96875 C 19.050781 26.09375 19.902344 25.417969 20.960938 24.578125 C 20.75 22.589844 20.527344 20.445312 20.277344 18.09375 C 19.648438 18.296875 19.117188 18.4375 18.609375 18.636719 C 15.921875 19.683594 13.207031 20.660156 10.578125 21.832031 C 9.066406 22.503906 8.472656 24.070312 8.128906 25.554688 C 7.648438 27.65625 8.097656 29.625 9.707031 31.207031 C 11.445312 32.914062 13.035156 33.214844 15.214844 32.105469 C 16.574219 31.410156 17.871094 30.601562 18.703125 29.21875 C 19.074219 28.605469 19.601562 28.089844 20.296875 27.234375 "/>
</g>
</g>
</svg>
