<svg xmlns="http://www.w3.org/2000/svg" width="176pt" height="48.347" viewBox="0 0 176 36.26"><defs><clipPath id="a"><path d="M0 0h37v36.262H0Zm0 0"/></clipPath></defs><g clip-path="url(#a)"><path d="M18.133 1.11c-9.387 0-17.024 7.632-17.024 17.019s7.637 17.02 17.024 17.02c9.383 0 17.02-7.633 17.02-17.02s-7.637-17.02-17.02-17.02m0 35.152C8.133 36.262 0 28.125 0 18.129S8.133-.004 18.133-.004c9.996 0 18.129 8.137 18.129 18.133s-8.133 18.133-18.13 18.133" style="stroke:none;fill-rule:nonzero;fill:#bc9f4b;fill-opacity:1"/></g><path d="M25.348 21.738H9.378v-1.675l-5.597 2.574 5.598 2.578v-1.676h15.969z" style="stroke:none;fill-rule:nonzero;fill:#542626;fill-opacity:1"/><path d="m30.922 21.73-3.582-3.046h4.668v-1.805h-6.793l-7.238-6.29-8.598 4.688v-2.836l-5.125 4.891h5.125l8.273-4.512 4.778 4.059h-5.004v-1.676l-5.594 2.578 5.594 2.578v-1.675h7.125l5.191 4.41v.008h2.856V21.73z" style="stroke:none;fill-rule:nonzero;fill:#542626;fill-opacity:1"/><path d="M3.93 17.227c-.79 0 4.394-8.72 15.035-10.66-7.45 1.847-12.906 8.163-15.035 10.66M6.582 16.047s1.398-.817 2.484-.031c-1.082.648-2.484.03-2.484.03" style="stroke:none;fill-rule:nonzero;fill:#1e1c1a;fill-opacity:1"/><path d="M45.477 15.484h2.25v8.04h5.062v1.453h-7.312zM56.738 15.484v9.493h-2.25v-9.493zM61.547 23.723c.293.027.676.043 1.187.043 1.446 0 2.723-.422 2.723-1.594 0-1.098-1.242-1.547-2.797-1.547h-1.113Zm0-4.368h1.152c1.551 0 2.43-.562 2.43-1.363 0-.887-.879-1.297-2.305-1.297-.656 0-1.039.028-1.277.07Zm-2.23-3.742c.71-.113 2.011-.199 3.273-.199 1.66 0 2.683.156 3.527.606.766.351 1.278.972 1.278 1.773 0 .875-.711 1.676-2.047 2.059v.027c1.297.254 2.484 1.043 2.484 2.351 0 .844-.473 1.504-1.187 1.957-.875.59-2.32.887-4.57.887-1.243 0-2.192-.07-2.759-.129zM72.184 24.977V21.02l-3.891-5.536h2.559l1.48 2.438c.422.703.73 1.238 1.059 1.887h.039c.308-.606.656-1.196 1.078-1.887l1.48-2.438h2.54l-4.094 5.493v4zM84.305 20.977l-.97-2.336c-.237-.578-.437-1.227-.62-1.774h-.035c-.184.547-.368 1.211-.586 1.774l-.95 2.336Zm-3.528 1.308-1.058 2.692h-2.324l3.949-9.493h2.87l4 9.493h-2.41l-1.117-2.692zM89.938 24.977v-9.493h2.558l3.18 4.07a24.4 24.4 0 0 1 2.101 3.184h.035c-.144-1.27-.199-2.492-.199-3.945v-3.309h2.082v9.493h-2.32l-3.215-4.168c-.789-1.043-1.61-2.211-2.215-3.282l-.054.016c.093 1.223.109 2.477.109 4.039v3.395zM112.074 20.977l-.969-2.336c-.238-.578-.44-1.227-.62-1.774h-.04c-.183.547-.363 1.211-.586 1.774l-.949 2.336Zm-3.527 1.308-1.063 2.692h-2.32l3.95-9.493h2.866l4.004 9.493h-2.414l-1.113-2.692zM119.953 15.484v9.493h-2.25v-9.493zM124.762 19.809h1.332c1.515 0 2.469-.622 2.469-1.563 0-1.043-.954-1.523-2.415-1.523-.71 0-1.168.043-1.386.086Zm-2.23-4.196c.84-.113 2.1-.199 3.398-.199 1.773 0 2.98.227 3.8.762.676.437 1.063 1.097 1.063 1.902 0 1.223-1.078 2.055-2.23 2.379v.04c.875.253 1.406.917 1.718 1.831.383 1.184.711 2.281.969 2.649h-2.324c-.18-.282-.473-1.059-.82-2.239-.348-1.242-.934-1.636-2.211-1.664h-1.133v3.903h-2.23zM132.934 15.484h2.246v8.04h5.062v1.453h-7.308zM144.191 15.484v9.493h-2.246v-9.493zM146.77 24.977v-9.493h2.558l3.18 4.07a24 24 0 0 1 2.105 3.184h.035a34 34 0 0 1-.203-3.945v-3.309h2.086v9.493h-2.32l-3.219-4.168c-.785-1.043-1.61-2.211-2.21-3.282l-.055.016c.09 1.223.109 2.477.109 4.039v3.395zM166.02 20.766h-4.645v2.789h5.191v1.422h-7.437v-9.493h7.164v1.422h-4.918v2.45h4.645zM168.488 23.09c.73.324 1.828.605 2.98.605 1.442 0 2.247-.523 2.247-1.297 0-.718-.621-1.14-2.192-1.578-2.03-.562-3.328-1.39-3.328-2.758 0-1.55 1.684-2.73 4.352-2.73 1.332 0 2.32.223 2.96.477l-.55 1.394c-.437-.183-1.297-.45-2.45-.45-1.425 0-2.046.59-2.046 1.142 0 .73.715 1.07 2.36 1.562 2.136.617 3.179 1.45 3.179 2.816 0 1.52-1.5 2.844-4.68 2.844-1.297 0-2.648-.281-3.328-.594z" style="stroke:none;fill-rule:nonzero;fill:#191613;fill-opacity:1"/></svg>