<?xml version="1.0" encoding="UTF-8"?>
<svg xmlns="http://www.w3.org/2000/svg" xmlns:xlink="http://www.w3.org/1999/xlink" width="128.68pt" height="59pt" viewBox="0 0 128.68 59" version="1.1">
<defs>
<clipPath id="clip1">
  <path d="M 0 13 L 128.679688 13 L 128.679688 59 L 0 59 Z M 0 13 "/>
</clipPath>
</defs>
<g id="surface1">
<path style=" stroke:none;fill-rule:evenodd;fill:rgb(11.528015%,16.931152%,32.05719%);fill-opacity:1;" d="M 69.890625 6.414062 L 71.210938 0.015625 L 75.527344 0.015625 L 75.351562 1.066406 L 72.183594 1.066406 L 71.863281 2.691406 L 74.824219 2.691406 L 74.636719 3.710938 L 71.691406 3.710938 L 71.304688 5.398438 L 74.445312 5.398438 L 74.234375 6.414062 Z M 81.71875 0 L 81.464844 1.003906 L 78.535156 1.035156 C 77.976562 1.035156 77.609375 2.609375 78.039062 2.609375 L 80.429688 2.769531 C 81.941406 2.835938 80.730469 6.402344 79.1875 6.402344 L 75.796875 6.449219 L 76.050781 5.429688 L 79.1875 5.382812 C 79.90625 5.363281 80.460938 3.726562 79.824219 3.726562 C 78.933594 3.726562 78.375 3.660156 77.976562 3.660156 C 76.894531 3.660156 76.71875 3.039062 76.71875 1.925781 C 76.71875 1.019531 77.691406 0 78.675781 0 Z M 63.617188 0.015625 L 65.605469 0.015625 L 67.199219 5.398438 L 67.246094 5.398438 L 68.25 0.015625 L 69.460938 0.015625 L 68.121094 6.414062 L 66.101562 6.414062 L 64.574219 1.066406 L 64.527344 1.066406 L 63.488281 6.414062 L 62.296875 6.414062 Z M 60.59375 0.015625 L 61.800781 0.015625 L 60.480469 6.414062 L 59.273438 6.414062 Z M 55.179688 0.015625 L 53.828125 6.414062 L 57.996094 6.414062 L 58.207031 5.398438 L 55.277344 5.398438 L 56.390625 0.015625 Z M 51.535156 0.015625 C 54.082031 0.015625 53.636719 3.773438 51.613281 3.820312 C 53.015625 3.789062 52.296875 5.683594 52.140625 6.414062 L 50.929688 6.414062 L 51.117188 5.476562 C 51.261719 4.746094 51.3125 4.332031 50.308594 4.332031 L 48.730469 4.332031 L 48.269531 6.414062 L 47.078125 6.414062 L 48.429688 0.015625 Z M 51.117188 1.066406 L 49.402344 1.066406 L 48.941406 3.3125 L 50.707031 3.3125 C 51.484375 3.3125 51.980469 2.945312 52.042969 2.214844 C 52.105469 1.464844 52.042969 1.066406 51.117188 1.066406 Z M 45.40625 0.015625 L 46.582031 0.015625 L 45.246094 6.414062 L 44.035156 6.414062 Z M 40.359375 0.015625 L 42.125 0.015625 L 42.9375 6.414062 L 41.695312 6.414062 L 41.550781 5.253906 L 38.828125 5.253906 L 38.175781 6.414062 L 36.902344 6.414062 Z M 39.324219 4.332031 L 41.457031 4.332031 L 41.074219 0.941406 Z M 29.324219 0.015625 L 30.566406 0.015625 L 29.992188 2.644531 L 32.953125 2.644531 L 33.496094 0.015625 L 34.707031 0.015625 L 33.367188 6.414062 L 32.160156 6.414062 L 32.699219 3.675781 L 29.804688 3.675781 L 29.214844 6.414062 L 28.003906 6.414062 Z M 19.980469 0.015625 L 21.171875 0.015625 L 19.820312 6.414062 L 18.609375 6.414062 Z M 14.519531 0.015625 L 15.746094 0.015625 L 14.628906 5.398438 L 17.558594 5.398438 L 17.335938 6.414062 L 13.164062 6.414062 Z M 10.332031 0.015625 L 10.316406 0.015625 C 8.707031 0.015625 7.515625 0.699219 7.210938 2.417969 C 6.84375 4.441406 5.636719 6.414062 8.789062 6.414062 C 9.566406 6.414062 11.015625 6.304688 11.367188 5.8125 C 11.988281 4.886719 12.640625 2.851562 12.640625 2.179688 C 12.640625 0.558594 12.226562 0.015625 10.332031 0.015625 Z M 10.171875 0.988281 C 9.167969 0.988281 8.515625 1.59375 8.390625 2.324219 L 8.054688 3.996094 C 7.894531 4.839844 7.976562 5.398438 9.167969 5.398438 C 10.234375 5.398438 10.761719 5.160156 11.015625 4.15625 L 11.445312 2.484375 C 11.621094 1.257812 11.351562 0.988281 10.171875 0.988281 Z M 1.894531 3.34375 L 3.375 3.34375 C 4.1875 3.34375 4.570312 3.296875 4.839844 2.308594 C 4.96875 1.800781 5.015625 1.066406 3.886719 1.066406 L 2.339844 1.066406 Z M 1.6875 4.378906 L 1.210938 6.414062 L 0 6.414062 L 1.367188 0.015625 L 4.140625 0.015625 C 4.585938 0.015625 5.84375 0.285156 6.019531 0.941406 C 6.320312 1.992188 5.667969 3.566406 5.175781 3.886719 C 4.871094 4.074219 4.363281 4.378906 3.488281 4.378906 Z M 27.414062 0 L 27.160156 1.003906 L 24.230469 1.035156 C 23.671875 1.035156 23.308594 2.609375 23.738281 2.609375 L 26.125 2.769531 C 27.636719 2.835938 26.425781 6.402344 24.882812 6.402344 L 21.492188 6.449219 L 21.746094 5.429688 L 24.882812 5.382812 C 25.597656 5.363281 26.15625 3.726562 25.519531 3.726562 C 24.628906 3.726562 24.070312 3.660156 23.671875 3.660156 C 22.589844 3.660156 22.414062 3.039062 22.414062 1.925781 C 22.414062 1.019531 23.386719 0 24.375 0 L 27.414062 0 "/>
<g clip-path="url(#clip1)" clip-rule="nonzero">
<path style=" stroke:none;fill-rule:evenodd;fill:rgb(11.528015%,16.931152%,32.05719%);fill-opacity:1;" d="M 58.890625 13.597656 L 128.683594 13.597656 L 125.039062 27.574219 L 110.835938 27.574219 L 102.414062 59 L 86.75 59 L 95.171875 27.574219 L 80.429688 27.574219 C 82.054688 30.425781 82.929688 33.402344 82.722656 36.28125 C 82.023438 46.660156 76.226562 58.570312 58.492188 58.96875 L 57.585938 58.96875 L 57.550781 59 C 57.550781 59 57.550781 59 57.550781 58.96875 L 15.855469 58.96875 L 15.855469 59 L 0.191406 59 L 12.355469 13.613281 L 28.019531 13.613281 L 19.613281 44.992188 L 33.988281 44.992188 C 32.90625 42.15625 32.398438 39.164062 32.398438 36.28125 C 32.398438 25.710938 40.46875 13.613281 57.550781 13.613281 C 57.996094 13.613281 58.425781 13.613281 58.871094 13.644531 Z M 66.277344 39.289062 C 66.578125 38.273438 66.722656 37.285156 66.800781 36.28125 C 67.054688 32.492188 64.460938 28.210938 59.128906 27.574219 L 56.453125 27.574219 C 51.167969 28.210938 48.765625 32.492188 48.765625 36.28125 C 48.765625 37.316406 48.988281 38.605469 49.335938 39.65625 C 50.308594 42.285156 52.457031 44.5625 56.390625 44.992188 C 61.070312 45.164062 64.511719 44.132812 66.277344 39.289062 "/>
</g>
<path style=" stroke:none;fill-rule:evenodd;fill:rgb(11.528015%,16.931152%,32.05719%);fill-opacity:1;" d="M 66.339844 39.050781 L 66.164062 39.496094 L 57.28125 39.496094 L 59.972656 41.421875 C 60.988281 42.15625 61.054688 43.957031 60.542969 44.65625 L 55.46875 39.496094 L 49.335938 39.515625 L 49.242188 39.277344 C 51.34375 38.71875 53.382812 38.066406 55.226562 37.460938 L 59.859375 27.683594 C 60.351562 28.6875 61.675781 29.660156 60.71875 31.171875 L 57.121094 36.855469 C 59.253906 36.28125 59.78125 38.382812 60.351562 38.78125 C 60.800781 39.085938 62.011719 39.035156 62.695312 38.894531 C 63.410156 38.734375 62.742188 38.003906 63.347656 38.003906 C 66.292969 38.003906 65.160156 39.304688 65.957031 39.164062 C 66.070312 39.164062 66.226562 39.035156 66.339844 39.050781 "/>
<path style=" stroke:none;fill-rule:evenodd;fill:rgb(11.528015%,16.931152%,32.05719%);fill-opacity:1;" d="M 57.585938 58.96875 C 57.585938 59 57.585938 59 57.585938 58.96875 L 57.550781 58.96875 L 57.585938 58.96875 C 57.585938 59 57.585938 59 57.585938 58.96875 "/>
</g>
</svg>
