<svg xmlns="http://www.w3.org/2000/svg" width="139.9pt" height="59pt" viewBox="0 0 139.9 59"><defs><clipPath id="a"><path d="M104 12h35.898v19H104Zm0 0"/></clipPath></defs><path d="M117.145 11.012C107.152 9.152 96.969 5.21 88.605 0c1.102 9.781 21.243 11.652 28.54 11.012" style="stroke:none;fill-rule:evenodd;fill:#77253a;fill-opacity:1"/><path d="M101.656 14.633c4.332.117 16.465-1.442 19.668-2.824-8.91.558-13.66.707-18.844.23-5.175-.473-9.664-.355-16.78-2.52 1.925 4.383 10.35 5.114 15.956 5.114M93.629 22.164c.965 2.563 15.875-3.637 17.023-4.082 1.63-.637 14.125-5.98 15.36-6.113-1.801-.422-12.82 3.21-19.266 5.32-1.844.602-11.89 4.297-13.117 4.875" style="stroke:none;fill-rule:evenodd;fill:#c7193c;fill-opacity:1"/><path d="M57.113 11.496c-7.133-1.855-17.18-1.125-17.172 6.8.004 7.036 8.094 8.985 17.118 6.821l-.43-1.527c-.164-.59-.883-.75-1.656-.692-7.942 1.211-11.426-.808-11.453-4.601-.032-4.531 5.457-5.356 11.457-4.531.683.09 1.406-.055 1.617-.696z" style="stroke:none;fill-rule:evenodd;fill:#27408b;fill-opacity:1"/><g clip-path="url(#a)"><path d="M104.633 30.996c2.937-.914 9.992-5.555 17.484-9.781 6.406-3.613 13.004-6.856 17.781-5.371.036-11.711-34.543 14.168-35.265 15.152" style="stroke:none;fill-rule:evenodd;fill:#c7193c;fill-opacity:1"/></g><path d="M66.227 20.2h7.8l-3.89-6.548Zm15.109 5.452-9.527-14.797-3.332.004-9.536 14.793 3.282.004c.672 0 1.175-.738 1.515-1.308l1.078-1.801h10.602l1.074 1.8c.363.614.985 1.305 1.692 1.305zM23.922 20.2h7.8l-3.886-6.548Zm15.11 5.452-9.524-14.797-3.336.004-9.531 14.793 3.285.004c.664 0 1.172-.738 1.515-1.308l1.079-1.801H33.12l1.07 1.8c.36.614.98 1.305 1.7 1.305zM20.621 10.855H1.555L0 13.441l8.23.008v12.207h3.63l.007-12.18 5.77-.007c.879 0 1.691-.742 2.191-1.461z" style="stroke:none;fill-rule:evenodd;fill:#27408b;fill-opacity:1"/><path d="M135.2 11.969c-7.762-1-22.794 6.992-37.473 17.605C81.847 41.855 62.883 54.894 55.687 59c5.887-1.602 24.547-10.73 42.5-25.469C117.825 18.586 126.302 13.59 135.2 11.97M65.766 45.434c5.12.449 11.308-2.696 19.804-8.508 9.41-6.434 18.004-12.473 19.278-13.84-1.649.852-10.977 6.644-20.118 11.926-9.144 5.277-18.39 9.64-18.964 10.422" style="stroke:none;fill-rule:evenodd;fill:#c7193c;fill-opacity:1"/></svg>