<?xml version="1.0" encoding="UTF-8"?>
<svg xmlns="http://www.w3.org/2000/svg" xmlns:xlink="http://www.w3.org/1999/xlink" width="139.9pt" height="59pt" viewBox="0 0 139.9 59" version="1.1">
<defs>
<clipPath id="clip1">
  <path d="M 104 12 L 139.898438 12 L 139.898438 31 L 104 31 Z M 104 12 "/>
</clipPath>
</defs>
<g id="surface1">
<path style=" stroke:none;fill-rule:evenodd;fill:rgb(46.798706%,14.450073%,22.613525%);fill-opacity:1;" d="M 117.144531 11.011719 C 107.152344 9.152344 96.96875 5.210938 88.605469 0 C 89.707031 9.78125 109.847656 11.652344 117.144531 11.011719 "/>
<path style=" stroke:none;fill-rule:evenodd;fill:rgb(78.140259%,9.883118%,23.38562%);fill-opacity:1;" d="M 101.65625 14.632812 C 105.988281 14.75 118.121094 13.191406 121.324219 11.808594 C 112.414062 12.367188 107.664062 12.515625 102.480469 12.039062 C 97.304688 11.566406 92.816406 11.683594 85.699219 9.519531 C 87.625 13.902344 96.050781 14.632812 101.65625 14.632812 "/>
<path style=" stroke:none;fill-rule:evenodd;fill:rgb(78.140259%,9.883118%,23.38562%);fill-opacity:1;" d="M 93.628906 22.164062 C 94.59375 24.726562 109.503906 18.527344 110.652344 18.082031 C 112.28125 17.445312 124.777344 12.101562 126.011719 11.96875 C 124.210938 11.546875 113.191406 15.179688 106.746094 17.289062 C 104.902344 17.890625 94.855469 21.585938 93.628906 22.164062 "/>
<path style=" stroke:none;fill-rule:evenodd;fill:rgb(15.214539%,25.061035%,54.411316%);fill-opacity:1;" d="M 57.113281 11.496094 C 49.980469 9.640625 39.933594 10.371094 39.941406 18.296875 C 39.945312 25.332031 48.035156 27.28125 57.058594 25.117188 L 56.628906 23.589844 C 56.464844 23 55.746094 22.839844 54.972656 22.898438 C 47.03125 24.109375 43.546875 22.089844 43.519531 18.296875 C 43.488281 13.765625 48.976562 12.941406 54.976562 13.765625 C 55.660156 13.855469 56.382812 13.710938 56.59375 13.070312 L 57.113281 11.496094 "/>
<g clip-path="url(#clip1)" clip-rule="nonzero">
<path style=" stroke:none;fill-rule:evenodd;fill:rgb(78.140259%,9.883118%,23.38562%);fill-opacity:1;" d="M 104.632812 30.996094 C 107.570312 30.082031 114.625 25.441406 122.117188 21.214844 C 128.523438 17.601562 135.121094 14.359375 139.898438 15.84375 C 139.933594 4.132812 105.355469 30.011719 104.632812 30.996094 "/>
</g>
<path style=" stroke:none;fill-rule:evenodd;fill:rgb(15.214539%,25.061035%,54.411316%);fill-opacity:1;" d="M 66.226562 20.199219 L 74.027344 20.199219 L 70.136719 13.652344 Z M 81.335938 25.652344 L 71.808594 10.855469 L 68.476562 10.859375 L 58.941406 25.652344 L 62.222656 25.65625 C 62.894531 25.65625 63.398438 24.917969 63.738281 24.347656 L 64.816406 22.546875 L 75.417969 22.546875 L 76.492188 24.347656 C 76.855469 24.960938 77.476562 25.652344 78.183594 25.652344 L 81.335938 25.652344 "/>
<path style=" stroke:none;fill-rule:evenodd;fill:rgb(15.214539%,25.061035%,54.411316%);fill-opacity:1;" d="M 23.921875 20.199219 L 31.722656 20.199219 L 27.835938 13.652344 Z M 39.03125 25.652344 L 29.507812 10.855469 L 26.171875 10.859375 L 16.640625 25.652344 L 19.925781 25.65625 C 20.589844 25.65625 21.097656 24.917969 21.441406 24.347656 L 22.519531 22.546875 L 33.121094 22.546875 L 34.191406 24.347656 C 34.550781 24.960938 35.171875 25.652344 35.890625 25.652344 L 39.03125 25.652344 "/>
<path style=" stroke:none;fill-rule:evenodd;fill:rgb(15.214539%,25.061035%,54.411316%);fill-opacity:1;" d="M 20.621094 10.855469 L 1.554688 10.855469 L 0 13.441406 L 8.230469 13.449219 L 8.230469 25.65625 L 11.859375 25.65625 L 11.867188 13.476562 L 17.636719 13.46875 C 18.515625 13.46875 19.328125 12.726562 19.828125 12.007812 L 20.621094 10.855469 "/>
<path style=" stroke:none;fill-rule:evenodd;fill:rgb(78.140259%,9.883118%,23.38562%);fill-opacity:1;" d="M 135.199219 11.96875 C 127.4375 10.96875 112.40625 18.960938 97.726562 29.574219 C 81.847656 41.855469 62.882812 54.894531 55.6875 59 C 61.574219 57.398438 80.234375 48.269531 98.1875 33.53125 C 117.824219 18.585938 126.300781 13.589844 135.199219 11.96875 "/>
<path style=" stroke:none;fill-rule:evenodd;fill:rgb(78.140259%,9.883118%,23.38562%);fill-opacity:1;" d="M 65.765625 45.433594 C 70.886719 45.882812 77.074219 42.738281 85.570312 36.925781 C 94.980469 30.492188 103.574219 24.453125 104.847656 23.085938 C 103.199219 23.9375 93.871094 29.730469 84.730469 35.011719 C 75.585938 40.289062 66.339844 44.652344 65.765625 45.433594 "/>
</g>
</svg>
