<svg xmlns="http://www.w3.org/2000/svg" width="234.547" height="39.293" viewBox="0 0 175.91 29.47"><defs><clipPath id="a"><path d="M140 7h35.91v22H140Zm0 0"/></clipPath><clipPath id="b"><path d="M117 6h23v23.469h-23Zm0 0"/></clipPath><clipPath id="c"><path d="M94 6h23v23.469H94Zm0 0"/></clipPath></defs><path d="M0 20.855c.04-.543.078-1.09.113-1.632.028-.399.043-.801.075-1.2.03-.398.074-.796.109-1.21h6.648c-.02.269-.047.507-.058.746-.063 1.218-.117 2.437-.18 3.652-.031.547.23.93.672 1.2.644.394 1.36.495 2.098.452.87-.05 1.691-.261 2.347-.89.559-.54.903-1.22 1.082-1.957.297-1.246.547-2.504.79-3.766.343-1.809.663-3.621.988-5.434.109-.613.207-1.226.3-1.796.48 0 .922.007 1.368-.004.18-.004.285.07.386.21.82 1.141 1.676 2.258 2.461 3.426.297.438.633.493 1.102.422-.559-1.34-1.11-2.668-1.684-4.035.395-.027.758-.055 1.125-.078.715-.04 1.43-.082 2.149-.117.386-.02.539.168.46.543-.456 2.175-.902 4.351-1.374 6.523-.415 1.906-.829 3.817-1.305 5.707-.832 3.344-4.117 6.36-7.992 6.848-1.801.226-3.598.332-5.395-.016-2.02-.39-3.797-1.242-5.117-2.883-.578-.718-.98-1.53-1.117-2.46-.004-.044-.035-.083-.051-.126zM84.332 1.57c0-.734-.566-1.336-1.262-1.332-.68.004-1.238.594-1.238 1.32 0 .743.559 1.337 1.258 1.337.676 0 1.238-.598 1.242-1.325M83.359 0c.043.02.082.047.125.059.797.25 1.235.96 1.098 1.8a1.53 1.53 0 0 1-1.52 1.266c-.78-.008-1.398-.562-1.519-1.367-.113-.75.363-1.469 1.133-1.7.043-.015.086-.038.125-.058z" style="stroke:none;fill-rule:evenodd;fill:#ee2338;fill-opacity:1"/><g clip-path="url(#a)"><path d="M166.672 28.664c.402-2.062.805-4.098 1.203-6.133.41-2.11.848-4.215 1.223-6.328a7.6 7.6 0 0 0 .09-2.055c-.168-1.796-1.637-2.21-2.899-1.87-.832.226-1.476.738-2.035 1.367-1.121 1.257-1.809 2.753-2.215 4.367-.379 1.504-.656 3.035-.969 4.554q-.592 2.94-1.168 5.887c-.03.164-.082.235-.261.235-1.996-.008-3.989-.004-5.985-.008-.05 0-.105-.012-.176-.02.235-1.16.465-2.305.7-3.453.558-2.781 1.132-5.559 1.675-8.344.168-.867.31-1.742.211-2.633-.187-1.707-1.386-2.464-3.02-1.894-.948.332-1.66.984-2.265 1.758-1.105 1.414-1.758 3.039-2.113 4.781-.652 3.188-1.277 6.383-1.914 9.578-.016.07-.035.14-.059.219h-6.343c1.27-7.008 2.906-13.93 3.937-20.988h5.676l-.399 3.375c.016.011.036.023.051.035.082-.086.172-.168.246-.262 1.477-1.809 3.313-3.039 5.63-3.469 1.445-.27 2.894-.293 4.292.246 1.606.618 2.582 1.77 2.887 3.532.082-.09.144-.157.203-.23 1.566-1.95 3.55-3.208 6.04-3.602 1.179-.188 2.362-.2 3.515.16 1.937.61 2.98 1.996 3.343 3.949.22 1.168.16 2.348-.039 3.504-.464 2.683-.988 5.36-1.5 8.035-.351 1.828-.722 3.648-1.09 5.473-.011.074-.035.144-.054.234z" style="stroke:none;fill-rule:evenodd;fill:#ee2338;fill-opacity:1"/></g><path d="M66.156 23.25h10.645c.996 0 1.972-.11 2.879-.645.175.551.215 1.102.226 1.657.051 2.5-2.219 3.957-4.047 3.96-6.39.016-12.785.005-19.175.005-.055 0-.11-.004-.23-.012.179-.738.323-1.465.53-2.172.512-1.77 1.235-3.434 2.52-4.797.984-1.047 2.121-1.902 3.32-2.68 2.078-1.355 4.309-2.43 6.555-3.472 1.504-.7 2.906-1.555 4.074-2.754.617-.637 1.129-1.344 1.348-2.219.406-1.61-.649-3.434-2.32-3.914-1.88-.535-3.473.035-4.797 1.41-.907.95-1.368 2.113-1.512 3.426h-6.567c.016-.113.032-.23.055-.34.48-2.008 1.203-3.91 2.438-5.59.851-1.152 2.011-1.926 3.21-2.648 1.598-.961 3.356-1.383 5.204-1.512 1.8-.129 3.57.004 5.293.567 1.422.46 2.71 1.156 3.726 2.273 1.203 1.324 1.774 2.93 1.977 4.68.16 1.394-.012 2.746-.594 4.035-.414.922-1.086 1.64-1.789 2.34-1.863 1.855-4.094 3.187-6.379 4.433-1.941 1.059-3.914 2.063-5.871 3.102a2.6 2.6 0 0 0-.566.398c-.106.094-.149.254-.22.387q.031.041.067.082M37.59 15.45c-.13-.645-.192-1.24-.367-1.798-.375-1.21-1.145-2.066-2.43-2.336a4.56 4.56 0 0 0-2.969.344c-1.34.64-2.09 1.777-2.535 3.145-.07.207-.117.422-.176.644zm-1.516 6.66h6.707c-.133.331-.234.636-.37.921-1.65 3.367-4.31 5.364-8.044 5.813-2.613.312-5.187.043-7.652-.934-1.973-.777-3.317-2.207-4.102-4.152-.183-.453-.258-.977-.277-1.469-.14-3.137.25-6.203 1.465-9.105 1.324-3.157 3.804-5 7.094-5.72 2.152-.472 4.343-.519 6.507.036 2.32.598 4.243 1.793 5.524 3.871.797 1.293 1.113 2.7.98 4.219-.11 1.289-.168 2.582-.25 3.922h-.355c-4.754 0-9.504 0-14.254-.012-.27 0-.367.059-.395.34-.062.676-.07 1.34.09 2 .328 1.37 1.192 2.203 2.57 2.473.86.167 1.727.144 2.575-.075 1.125-.289 1.953-.902 2.187-2.129" style="stroke:none;fill-rule:evenodd;fill:#ee2338;fill-opacity:1"/><g clip-path="url(#b)"><path d="M133.242 15.688c-.043-.317-.074-.805-.176-1.274-.386-1.773-1.652-2.789-3.37-2.715-1.298.059-2.286.711-3.087 1.684-1.046 1.273-1.629 2.765-1.988 4.351-.297 1.317-.469 2.645-.172 3.985.57 2.582 2.7 3.195 4.406 2.652 1.055-.336 1.817-1.078 2.418-1.976 1.332-1.977 1.872-4.192 1.97-6.707m-2.472-8.825c1.882-.008 3.78.426 5.464 1.586 1.883 1.301 3.063 3.114 3.391 5.348.676 4.55-.46 8.621-3.691 11.976-2.008 2.086-4.532 3.207-7.41 3.528-1.817.203-3.61.097-5.333-.559-2.859-1.094-4.625-3.168-5.191-6.152-.887-4.664.91-10.602 5.684-13.711 2.109-1.379 4.433-2.016 7.086-2.016" style="stroke:none;fill-rule:evenodd;fill:#ee2338;fill-opacity:1"/></g><g clip-path="url(#c)"><path d="M115.902 20.594a7.8 7.8 0 0 1-.484 2.89c-.75 2.012-2.18 3.41-4.027 4.418a12.1 12.1 0 0 1-4.95 1.442c-1.046.078-2.101.152-3.152.117-1.922-.066-3.621-.809-5.11-2.004-2.488-1.996-3.597-4.617-3.48-7.789.082-2.164.473-4.254 1.414-6.215 1.801-3.754 4.778-5.96 8.88-6.625 2.175-.351 4.343-.277 6.468.379 3.082.957 5.035 3.367 5.336 6.582.035.395.047.797.066 1.207-.113.012-.183.024-.258.024-2.058.003-4.117 0-6.175.003-.176 0-.266-.023-.274-.238-.047-1.777-.863-2.734-2.633-2.945-2.093-.254-3.812.426-4.996 2.246-.511.789-.828 1.66-1.027 2.578-.277 1.3-.398 2.613-.254 3.938.23 2.113 1.774 3.582 3.895 3.742 1.054.082 1.988-.192 2.812-.844.852-.668 1.29-1.543 1.305-2.629v-.223c0-.011.004-.02.015-.054z" style="stroke:none;fill-rule:evenodd;fill:#ee2338;fill-opacity:1"/></g><path d="M54.582 7.3h4.395c-.235 1.286-.461 2.509-.692 3.763h-.305c-1.316 0-2.628.007-3.94-.004-.25-.004-.356.058-.419.308-.687 2.754-1.367 5.508-1.77 8.317-.12.843-.128 1.703-.152 2.558-.015.485.297.797.739.899.484.113.988.16 1.484.187.594.031 1.187.008 1.828.008-.3 1.61-.605 3.238-.918 4.898h-.309q-2.573-.029-5.14-.062c-1.113-.016-2.13-.317-3.016-1.004-.836-.648-1.25-1.5-1.3-2.547-.067-1.406.09-2.793.367-4.164.609-3.008 1.265-6.004 1.902-9.008.023-.117.047-.234.074-.383h-3.656c.328-1.285.648-2.53.973-3.808 1.074 0 2.125.004 3.18 0 .53 0 .394.058.519-.43.289-1.14.554-2.293.906-3.418.23-.742.691-1.375 1.3-1.887.462-.39 1.013-.492 1.59-.492 1.212.004 2.423.028 3.63.04.027 0 .054.011.109.023-.457 2.047-.91 4.093-1.379 6.207M82.86 28.219c.156-.95.304-1.867.46-2.782.22-1.285.446-2.566.657-3.851.027-.156.07-.223.242-.223 2.422.004 4.84 0 7.261 0 .04 0 .075.008.141.016-.39 2.281-.777 4.558-1.164 6.84zM15.176 7.84c.199-1.367.46-2.723.945-4.031.567-1.516 1.617-2.45 3.223-2.59 1.582-.14 3.176-.133 4.816-.192l-.36 1.657c-.312 1.457-.632 2.91-.945 4.363-.09.422-.453.644-.69.957-.024.031-.106.031-.157.027-1.117-.066-2.23-.133-3.39-.199.566-1.36 1.12-2.691 1.679-4.023-.563-.137-.727-.075-1.035.351Q17.995 5.9 16.734 7.645a.42.42 0 0 1-.39.199c-.383-.012-.762-.004-1.168-.004" style="stroke:none;fill-rule:evenodd;fill:#ee2338;fill-opacity:1"/><path d="M83.473 1.555c.18-.094.261-.278.203-.512-.055-.238-.25-.313-.461-.332-.227-.016-.453-.004-.703-.004 0 .57 0 1.082.004 1.59 0 .215.12.172.28.121v-.684c.438-.027.497.024.575.41.04.192.067.407.379.278-.09-.281-.176-.559-.277-.867m.859.015c-.004.727-.566 1.325-1.242 1.325-.7 0-1.258-.594-1.258-1.336 0-.727.559-1.317 1.238-1.32.696-.005 1.262.597 1.262 1.331M37.59 15.45h-8.477c.059-.223.106-.438.176-.645.445-1.367 1.195-2.504 2.535-3.145a4.56 4.56 0 0 1 2.969-.344c1.285.27 2.055 1.125 2.43 2.336.175.559.238 1.153.367 1.797M133.242 15.688c-.097 2.515-.637 4.73-1.969 6.707-.601.898-1.363 1.64-2.418 1.976-1.707.543-3.835-.07-4.406-2.652-.297-1.34-.125-2.668.172-3.985.36-1.586.942-3.078 1.988-4.351.801-.973 1.79-1.625 3.086-1.684 1.72-.074 2.985.942 3.371 2.715.102.469.133.957.176 1.274" style="stroke:none;fill-rule:evenodd;fill:#fff;fill-opacity:1"/><path d="M82.766 1.496c.445.031.66-.086.644-.305-.012-.18-.25-.351-.465-.289-.351.106-.074.387-.18.594m.707.059c.101.308.187.586.277.867-.312.129-.34-.086-.379-.277-.078-.387-.137-.438-.574-.41v.683c-.16.05-.281.094-.281-.121-.004-.508-.004-1.02-.004-1.59.25 0 .476-.012.703.004.21.02.406.094.46.332.06.234-.023.418-.202.512" style="stroke:none;fill-rule:evenodd;fill:#ee2338;fill-opacity:1"/><path d="M82.766 1.496c.105-.207-.172-.488.18-.594.214-.062.452.11.464.29.016.218-.2.335-.644.304" style="stroke:none;fill-rule:evenodd;fill:#fff;fill-opacity:1"/></svg>