<?xml version="1.0" encoding="UTF-8"?>
<svg xmlns="http://www.w3.org/2000/svg" xmlns:xlink="http://www.w3.org/1999/xlink" width="175.91pt" height="29.47pt" viewBox="0 0 175.91 29.47" version="1.1">
<defs>
<clipPath id="clip1">
  <path d="M 140 7 L 175.910156 7 L 175.910156 29 L 140 29 Z M 140 7 "/>
</clipPath>
<clipPath id="clip2">
  <path d="M 117 6 L 140 6 L 140 29.46875 L 117 29.46875 Z M 117 6 "/>
</clipPath>
<clipPath id="clip3">
  <path d="M 94 6 L 117 6 L 117 29.46875 L 94 29.46875 Z M 94 6 "/>
</clipPath>
</defs>
<g id="surface1">
<path style=" stroke:none;fill-rule:evenodd;fill:rgb(93.252563%,13.595581%,21.94519%);fill-opacity:1;" d="M 0 20.855469 C 0.0390625 20.3125 0.078125 19.765625 0.113281 19.222656 C 0.140625 18.824219 0.15625 18.421875 0.1875 18.023438 C 0.21875 17.625 0.261719 17.226562 0.296875 16.8125 C 2.503906 16.8125 4.703125 16.8125 6.945312 16.8125 C 6.925781 17.082031 6.898438 17.320312 6.886719 17.558594 C 6.824219 18.777344 6.769531 19.996094 6.707031 21.210938 C 6.675781 21.757812 6.9375 22.140625 7.378906 22.410156 C 8.023438 22.804688 8.738281 22.90625 9.476562 22.863281 C 10.347656 22.8125 11.167969 22.601562 11.824219 21.972656 C 12.382812 21.433594 12.726562 20.753906 12.90625 20.015625 C 13.203125 18.769531 13.453125 17.511719 13.695312 16.25 C 14.039062 14.441406 14.359375 12.628906 14.683594 10.816406 C 14.792969 10.203125 14.890625 9.589844 14.984375 9.019531 C 15.464844 9.019531 15.90625 9.027344 16.351562 9.015625 C 16.53125 9.011719 16.636719 9.085938 16.738281 9.226562 C 17.558594 10.367188 18.414062 11.484375 19.199219 12.652344 C 19.496094 13.089844 19.832031 13.144531 20.300781 13.074219 C 19.742188 11.734375 19.191406 10.40625 18.617188 9.039062 C 19.011719 9.011719 19.375 8.984375 19.742188 8.960938 C 20.457031 8.921875 21.171875 8.878906 21.890625 8.84375 C 22.277344 8.824219 22.429688 9.011719 22.351562 9.386719 C 21.894531 11.5625 21.449219 13.738281 20.976562 15.910156 C 20.5625 17.816406 20.148438 19.726562 19.671875 21.617188 C 18.839844 24.960938 15.554688 27.976562 11.679688 28.464844 C 9.878906 28.691406 8.082031 28.796875 6.285156 28.449219 C 4.265625 28.058594 2.488281 27.207031 1.167969 25.566406 C 0.589844 24.847656 0.1875 24.035156 0.0507812 23.105469 C 0.046875 23.0625 0.015625 23.023438 0 22.980469 C 0 22.273438 0 21.566406 0 20.855469 "/>
<path style=" stroke:none;fill-rule:evenodd;fill:rgb(93.252563%,13.595581%,21.94519%);fill-opacity:1;" d="M 84.332031 1.570312 C 84.332031 0.835938 83.765625 0.234375 83.070312 0.238281 C 82.390625 0.242188 81.832031 0.832031 81.832031 1.558594 C 81.832031 2.300781 82.390625 2.894531 83.089844 2.894531 C 83.765625 2.894531 84.328125 2.296875 84.332031 1.570312 Z M 83.359375 0 C 83.402344 0.0195312 83.441406 0.046875 83.484375 0.0585938 C 84.28125 0.308594 84.71875 1.019531 84.582031 1.859375 C 84.464844 2.585938 83.8125 3.132812 83.0625 3.125 C 82.28125 3.117188 81.664062 2.5625 81.542969 1.757812 C 81.429688 1.007812 81.90625 0.289062 82.675781 0.0585938 C 82.71875 0.0429688 82.761719 0.0195312 82.800781 0 C 82.988281 0 83.175781 0 83.359375 0 "/>
<g clip-path="url(#clip1)" clip-rule="nonzero">
<path style=" stroke:none;fill-rule:evenodd;fill:rgb(93.252563%,13.595581%,21.94519%);fill-opacity:1;" d="M 166.671875 28.664062 C 167.074219 26.601562 167.476562 24.566406 167.875 22.53125 C 168.285156 20.421875 168.722656 18.316406 169.097656 16.203125 C 169.21875 15.53125 169.253906 14.828125 169.1875 14.148438 C 169.019531 12.351562 167.550781 11.9375 166.289062 12.277344 C 165.457031 12.503906 164.8125 13.015625 164.253906 13.644531 C 163.132812 14.902344 162.445312 16.398438 162.039062 18.011719 C 161.660156 19.515625 161.382812 21.046875 161.070312 22.566406 C 160.675781 24.527344 160.285156 26.488281 159.902344 28.453125 C 159.871094 28.617188 159.820312 28.6875 159.640625 28.6875 C 157.644531 28.679688 155.652344 28.683594 153.65625 28.679688 C 153.605469 28.679688 153.550781 28.667969 153.480469 28.660156 C 153.714844 27.5 153.945312 26.355469 154.179688 25.207031 C 154.738281 22.425781 155.3125 19.648438 155.855469 16.863281 C 156.023438 15.996094 156.164062 15.121094 156.066406 14.230469 C 155.878906 12.523438 154.679688 11.765625 153.046875 12.335938 C 152.097656 12.667969 151.386719 13.320312 150.78125 14.09375 C 149.675781 15.507812 149.023438 17.132812 148.667969 18.875 C 148.015625 22.0625 147.390625 25.257812 146.753906 28.453125 C 146.738281 28.523438 146.71875 28.59375 146.695312 28.671875 C 144.582031 28.671875 142.476562 28.671875 140.351562 28.671875 C 141.621094 21.664062 143.257812 14.742188 144.289062 7.683594 C 146.164062 7.683594 148.039062 7.683594 149.964844 7.683594 C 149.832031 8.816406 149.699219 9.9375 149.566406 11.058594 C 149.582031 11.070312 149.601562 11.082031 149.617188 11.09375 C 149.699219 11.007812 149.789062 10.925781 149.863281 10.832031 C 151.339844 9.023438 153.175781 7.792969 155.492188 7.363281 C 156.9375 7.09375 158.386719 7.070312 159.785156 7.609375 C 161.390625 8.226562 162.367188 9.378906 162.671875 11.140625 C 162.753906 11.050781 162.816406 10.984375 162.875 10.910156 C 164.441406 8.960938 166.425781 7.703125 168.914062 7.308594 C 170.09375 7.121094 171.277344 7.109375 172.429688 7.46875 C 174.367188 8.078125 175.410156 9.464844 175.773438 11.417969 C 175.992188 12.585938 175.933594 13.765625 175.734375 14.921875 C 175.269531 17.605469 174.746094 20.28125 174.234375 22.957031 C 173.882812 24.785156 173.511719 26.605469 173.144531 28.429688 C 173.132812 28.503906 173.109375 28.574219 173.089844 28.664062 C 170.957031 28.664062 168.828125 28.664062 166.671875 28.664062 "/>
</g>
<path style=" stroke:none;fill-rule:evenodd;fill:rgb(93.252563%,13.595581%,21.94519%);fill-opacity:1;" d="M 66.15625 23.25 C 66.277344 23.25 66.394531 23.25 66.515625 23.25 C 69.945312 23.25 73.371094 23.25 76.800781 23.25 C 77.796875 23.25 78.773438 23.140625 79.679688 22.605469 C 79.855469 23.15625 79.894531 23.707031 79.90625 24.261719 C 79.957031 26.761719 77.6875 28.21875 75.859375 28.222656 C 69.46875 28.238281 63.074219 28.226562 56.683594 28.226562 C 56.628906 28.226562 56.574219 28.222656 56.453125 28.214844 C 56.632812 27.476562 56.777344 26.75 56.984375 26.042969 C 57.496094 24.273438 58.21875 22.609375 59.503906 21.246094 C 60.488281 20.199219 61.625 19.34375 62.824219 18.566406 C 64.902344 17.210938 67.132812 16.136719 69.378906 15.09375 C 70.882812 14.394531 72.285156 13.539062 73.453125 12.339844 C 74.070312 11.703125 74.582031 10.996094 74.800781 10.121094 C 75.207031 8.511719 74.152344 6.6875 72.480469 6.207031 C 70.601562 5.671875 69.007812 6.242188 67.683594 7.617188 C 66.777344 8.566406 66.316406 9.730469 66.171875 11.042969 C 63.992188 11.042969 61.816406 11.042969 59.605469 11.042969 C 59.621094 10.929688 59.636719 10.8125 59.660156 10.703125 C 60.140625 8.695312 60.863281 6.792969 62.097656 5.113281 C 62.949219 3.960938 64.109375 3.1875 65.308594 2.464844 C 66.90625 1.503906 68.664062 1.082031 70.511719 0.953125 C 72.3125 0.824219 74.082031 0.957031 75.804688 1.519531 C 77.226562 1.980469 78.515625 2.675781 79.53125 3.792969 C 80.734375 5.117188 81.304688 6.722656 81.507812 8.472656 C 81.667969 9.867188 81.496094 11.21875 80.914062 12.507812 C 80.5 13.429688 79.828125 14.148438 79.125 14.847656 C 77.261719 16.703125 75.03125 18.035156 72.746094 19.28125 C 70.804688 20.339844 68.832031 21.34375 66.875 22.382812 C 66.671875 22.488281 66.476562 22.625 66.308594 22.78125 C 66.203125 22.875 66.160156 23.035156 66.089844 23.167969 C 66.109375 23.195312 66.132812 23.222656 66.15625 23.25 "/>
<path style=" stroke:none;fill-rule:evenodd;fill:rgb(93.252563%,13.595581%,21.94519%);fill-opacity:1;" d="M 37.589844 15.449219 C 37.460938 14.804688 37.398438 14.210938 37.222656 13.652344 C 36.847656 12.441406 36.078125 11.585938 34.792969 11.316406 C 33.777344 11.101562 32.769531 11.207031 31.824219 11.660156 C 30.484375 12.300781 29.734375 13.4375 29.289062 14.804688 C 29.21875 15.011719 29.171875 15.226562 29.113281 15.449219 C 31.929688 15.449219 34.703125 15.449219 37.589844 15.449219 Z M 36.074219 22.109375 C 38.308594 22.109375 40.515625 22.109375 42.78125 22.109375 C 42.648438 22.441406 42.546875 22.746094 42.410156 23.03125 C 40.761719 26.398438 38.101562 28.394531 34.367188 28.84375 C 31.753906 29.15625 29.179688 28.886719 26.714844 27.910156 C 24.742188 27.132812 23.398438 25.703125 22.613281 23.757812 C 22.429688 23.304688 22.355469 22.78125 22.335938 22.289062 C 22.195312 19.152344 22.585938 16.085938 23.800781 13.183594 C 25.125 10.027344 27.605469 8.183594 30.894531 7.464844 C 33.046875 6.992188 35.238281 6.945312 37.402344 7.5 C 39.722656 8.097656 41.644531 9.292969 42.925781 11.371094 C 43.722656 12.664062 44.039062 14.070312 43.90625 15.589844 C 43.796875 16.878906 43.738281 18.171875 43.65625 19.511719 C 43.53125 19.511719 43.417969 19.511719 43.300781 19.511719 C 38.546875 19.511719 33.796875 19.511719 29.046875 19.5 C 28.777344 19.5 28.679688 19.558594 28.652344 19.839844 C 28.589844 20.515625 28.582031 21.179688 28.742188 21.839844 C 29.070312 23.210938 29.933594 24.042969 31.3125 24.3125 C 32.171875 24.480469 33.039062 24.457031 33.886719 24.238281 C 35.011719 23.949219 35.839844 23.335938 36.074219 22.109375 "/>
<g clip-path="url(#clip2)" clip-rule="nonzero">
<path style=" stroke:none;fill-rule:evenodd;fill:rgb(93.252563%,13.595581%,21.94519%);fill-opacity:1;" d="M 133.242188 15.6875 C 133.199219 15.371094 133.167969 14.882812 133.066406 14.414062 C 132.679688 12.640625 131.414062 11.625 129.695312 11.699219 C 128.398438 11.757812 127.410156 12.410156 126.609375 13.382812 C 125.5625 14.65625 124.980469 16.148438 124.621094 17.734375 C 124.324219 19.050781 124.152344 20.378906 124.449219 21.71875 C 125.019531 24.300781 127.148438 24.914062 128.855469 24.371094 C 129.910156 24.035156 130.671875 23.292969 131.273438 22.394531 C 132.605469 20.417969 133.144531 18.203125 133.242188 15.6875 Z M 130.769531 6.863281 C 132.652344 6.855469 134.550781 7.289062 136.234375 8.449219 C 138.117188 9.75 139.296875 11.5625 139.625 13.796875 C 140.300781 18.347656 139.164062 22.417969 135.933594 25.773438 C 133.925781 27.859375 131.402344 28.980469 128.523438 29.300781 C 126.707031 29.503906 124.914062 29.398438 123.191406 28.742188 C 120.332031 27.648438 118.566406 25.574219 118 22.589844 C 117.113281 17.925781 118.910156 11.988281 123.683594 8.878906 C 125.792969 7.5 128.117188 6.863281 130.769531 6.863281 "/>
</g>
<g clip-path="url(#clip3)" clip-rule="nonzero">
<path style=" stroke:none;fill-rule:evenodd;fill:rgb(93.252563%,13.595581%,21.94519%);fill-opacity:1;" d="M 115.902344 20.59375 C 115.921875 21.601562 115.761719 22.558594 115.417969 23.484375 C 114.667969 25.496094 113.238281 26.894531 111.390625 27.902344 C 109.847656 28.746094 108.1875 29.214844 106.441406 29.34375 C 105.394531 29.421875 104.339844 29.496094 103.289062 29.460938 C 101.367188 29.394531 99.667969 28.652344 98.179688 27.457031 C 95.691406 25.460938 94.582031 22.839844 94.699219 19.667969 C 94.78125 17.503906 95.171875 15.414062 96.113281 13.453125 C 97.914062 9.699219 100.890625 7.492188 104.992188 6.828125 C 107.167969 6.476562 109.335938 6.550781 111.460938 7.207031 C 114.542969 8.164062 116.496094 10.574219 116.796875 13.789062 C 116.832031 14.183594 116.84375 14.585938 116.863281 14.996094 C 116.75 15.007812 116.679688 15.019531 116.605469 15.019531 C 114.546875 15.023438 112.488281 15.019531 110.429688 15.023438 C 110.253906 15.023438 110.164062 15 110.15625 14.785156 C 110.109375 13.007812 109.292969 12.050781 107.523438 11.839844 C 105.429688 11.585938 103.710938 12.265625 102.527344 14.085938 C 102.015625 14.875 101.699219 15.746094 101.5 16.664062 C 101.222656 17.964844 101.101562 19.277344 101.246094 20.601562 C 101.476562 22.714844 103.019531 24.183594 105.140625 24.34375 C 106.195312 24.425781 107.128906 24.152344 107.953125 23.5 C 108.804688 22.832031 109.242188 21.957031 109.257812 20.871094 C 109.257812 20.796875 109.257812 20.722656 109.257812 20.648438 C 109.257812 20.636719 109.261719 20.628906 109.273438 20.59375 C 111.464844 20.59375 113.664062 20.59375 115.902344 20.59375 "/>
</g>
<path style=" stroke:none;fill-rule:evenodd;fill:rgb(93.252563%,13.595581%,21.94519%);fill-opacity:1;" d="M 54.582031 7.300781 C 56.070312 7.300781 57.511719 7.300781 58.976562 7.300781 C 58.742188 8.585938 58.515625 9.808594 58.285156 11.0625 C 58.179688 11.0625 58.078125 11.0625 57.980469 11.0625 C 56.664062 11.0625 55.351562 11.070312 54.039062 11.058594 C 53.789062 11.054688 53.683594 11.117188 53.621094 11.367188 C 52.933594 14.121094 52.253906 16.875 51.851562 19.683594 C 51.730469 20.527344 51.722656 21.386719 51.699219 22.242188 C 51.683594 22.726562 51.996094 23.039062 52.4375 23.140625 C 52.921875 23.253906 53.425781 23.300781 53.921875 23.328125 C 54.515625 23.359375 55.109375 23.335938 55.75 23.335938 C 55.449219 24.945312 55.144531 26.574219 54.832031 28.234375 C 54.722656 28.234375 54.621094 28.234375 54.523438 28.234375 C 52.808594 28.214844 51.09375 28.195312 49.382812 28.171875 C 48.269531 28.15625 47.253906 27.855469 46.367188 27.167969 C 45.53125 26.519531 45.117188 25.667969 45.066406 24.621094 C 45 23.214844 45.15625 21.828125 45.433594 20.457031 C 46.042969 17.449219 46.699219 14.453125 47.335938 11.449219 C 47.359375 11.332031 47.382812 11.214844 47.410156 11.066406 C 46.191406 11.066406 44.992188 11.066406 43.753906 11.066406 C 44.082031 9.78125 44.402344 8.535156 44.726562 7.257812 C 45.800781 7.257812 46.851562 7.261719 47.90625 7.257812 C 48.4375 7.257812 48.300781 7.316406 48.425781 6.828125 C 48.714844 5.6875 48.980469 4.535156 49.332031 3.410156 C 49.5625 2.667969 50.023438 2.035156 50.632812 1.523438 C 51.09375 1.132812 51.644531 1.03125 52.222656 1.03125 C 53.433594 1.035156 54.644531 1.058594 55.851562 1.070312 C 55.878906 1.070312 55.90625 1.082031 55.960938 1.09375 C 55.503906 3.140625 55.050781 5.1875 54.582031 7.300781 "/>
<path style=" stroke:none;fill-rule:evenodd;fill:rgb(93.252563%,13.595581%,21.94519%);fill-opacity:1;" d="M 82.859375 28.21875 C 83.015625 27.269531 83.164062 26.351562 83.320312 25.4375 C 83.539062 24.152344 83.765625 22.871094 83.976562 21.585938 C 84.003906 21.429688 84.046875 21.363281 84.21875 21.363281 C 86.640625 21.367188 89.058594 21.363281 91.480469 21.363281 C 91.519531 21.363281 91.554688 21.371094 91.621094 21.378906 C 91.230469 23.660156 90.84375 25.9375 90.457031 28.21875 C 87.917969 28.21875 85.40625 28.21875 82.859375 28.21875 "/>
<path style=" stroke:none;fill-rule:evenodd;fill:rgb(93.252563%,13.595581%,21.94519%);fill-opacity:1;" d="M 15.175781 7.839844 C 15.375 6.472656 15.636719 5.117188 16.121094 3.808594 C 16.6875 2.292969 17.738281 1.359375 19.34375 1.21875 C 20.925781 1.078125 22.519531 1.085938 24.160156 1.027344 C 24.027344 1.636719 23.914062 2.160156 23.800781 2.683594 C 23.488281 4.140625 23.167969 5.59375 22.855469 7.046875 C 22.765625 7.46875 22.402344 7.691406 22.164062 8.003906 C 22.140625 8.035156 22.058594 8.035156 22.007812 8.03125 C 20.890625 7.964844 19.777344 7.898438 18.617188 7.832031 C 19.183594 6.472656 19.738281 5.140625 20.296875 3.808594 C 19.734375 3.671875 19.570312 3.734375 19.261719 4.160156 C 18.417969 5.320312 17.574219 6.480469 16.734375 7.644531 C 16.632812 7.789062 16.519531 7.847656 16.34375 7.84375 C 15.960938 7.832031 15.582031 7.839844 15.175781 7.839844 "/>
<path style=" stroke:none;fill-rule:evenodd;fill:rgb(100%,100%,100%);fill-opacity:1;" d="M 83.472656 1.554688 C 83.652344 1.460938 83.734375 1.277344 83.675781 1.042969 C 83.621094 0.804688 83.425781 0.730469 83.214844 0.710938 C 82.988281 0.695312 82.761719 0.707031 82.511719 0.707031 C 82.511719 1.277344 82.511719 1.789062 82.515625 2.296875 C 82.515625 2.511719 82.636719 2.46875 82.796875 2.417969 C 82.796875 2.183594 82.796875 1.957031 82.796875 1.734375 C 83.234375 1.707031 83.292969 1.757812 83.371094 2.144531 C 83.410156 2.335938 83.4375 2.550781 83.75 2.421875 C 83.660156 2.140625 83.574219 1.863281 83.472656 1.554688 Z M 84.332031 1.570312 C 84.328125 2.296875 83.765625 2.894531 83.089844 2.894531 C 82.390625 2.894531 81.832031 2.300781 81.832031 1.558594 C 81.832031 0.832031 82.390625 0.242188 83.070312 0.238281 C 83.765625 0.234375 84.332031 0.835938 84.332031 1.570312 "/>
<path style=" stroke:none;fill-rule:evenodd;fill:rgb(100%,100%,100%);fill-opacity:1;" d="M 37.589844 15.449219 C 34.703125 15.449219 31.929688 15.449219 29.113281 15.449219 C 29.171875 15.226562 29.21875 15.011719 29.289062 14.804688 C 29.734375 13.4375 30.484375 12.300781 31.824219 11.660156 C 32.769531 11.207031 33.777344 11.101562 34.792969 11.316406 C 36.078125 11.585938 36.847656 12.441406 37.222656 13.652344 C 37.398438 14.210938 37.460938 14.804688 37.589844 15.449219 "/>
<path style=" stroke:none;fill-rule:evenodd;fill:rgb(100%,100%,100%);fill-opacity:1;" d="M 133.242188 15.6875 C 133.144531 18.203125 132.605469 20.417969 131.273438 22.394531 C 130.671875 23.292969 129.910156 24.035156 128.855469 24.371094 C 127.148438 24.914062 125.019531 24.300781 124.449219 21.71875 C 124.152344 20.378906 124.324219 19.050781 124.621094 17.734375 C 124.980469 16.148438 125.5625 14.65625 126.609375 13.382812 C 127.410156 12.410156 128.398438 11.757812 129.695312 11.699219 C 131.414062 11.625 132.679688 12.640625 133.066406 14.414062 C 133.167969 14.882812 133.199219 15.371094 133.242188 15.6875 "/>
<path style=" stroke:none;fill-rule:evenodd;fill:rgb(93.252563%,13.595581%,21.94519%);fill-opacity:1;" d="M 82.765625 1.496094 C 83.210938 1.527344 83.425781 1.410156 83.410156 1.191406 C 83.398438 1.011719 83.160156 0.839844 82.945312 0.902344 C 82.59375 1.007812 82.871094 1.289062 82.765625 1.496094 Z M 83.472656 1.554688 C 83.574219 1.863281 83.660156 2.140625 83.75 2.421875 C 83.4375 2.550781 83.410156 2.335938 83.371094 2.144531 C 83.292969 1.757812 83.234375 1.707031 82.796875 1.734375 C 82.796875 1.957031 82.796875 2.183594 82.796875 2.417969 C 82.636719 2.46875 82.515625 2.511719 82.515625 2.296875 C 82.511719 1.789062 82.511719 1.277344 82.511719 0.707031 C 82.761719 0.707031 82.988281 0.695312 83.214844 0.710938 C 83.425781 0.730469 83.621094 0.804688 83.675781 1.042969 C 83.734375 1.277344 83.652344 1.460938 83.472656 1.554688 "/>
<path style=" stroke:none;fill-rule:evenodd;fill:rgb(100%,100%,100%);fill-opacity:1;" d="M 82.765625 1.496094 C 82.871094 1.289062 82.59375 1.007812 82.945312 0.902344 C 83.160156 0.839844 83.398438 1.011719 83.410156 1.191406 C 83.425781 1.410156 83.210938 1.527344 82.765625 1.496094 "/>
</g>
</svg>
