<svg xmlns="http://www.w3.org/2000/svg" width="176pt" height="54.613" viewBox="0 0 176 40.96"><defs><clipPath id="a"><path d="M0 0h40v40.96H0Zm0 0"/></clipPath><clipPath id="b"><path d="M4.566 4.563c10.211-6.555 31.008-3.028 34.157 0 2.27 2.769-8.57 36.046-26.844 35.542C-1.797 38.72-.851 16.535 4.566 4.563m0 0"/></clipPath><clipPath id="c"><path d="M0 0h40v38H0Zm0 0"/></clipPath><clipPath id="d"><path d="M4.566 4.563c10.211-6.555 31.008-3.028 34.157 0 2.27 2.769-8.57 36.046-26.844 35.542C-1.797 38.72-.851 16.535 4.566 4.563m0 0"/></clipPath><clipPath id="e"><path d="M0 0h40v37H0Zm0 0"/></clipPath><clipPath id="f"><path d="M4.566 4.563c10.211-6.555 31.008-3.028 34.157 0 2.27 2.769-8.57 36.046-26.844 35.542C-1.797 38.72-.851 16.535 4.566 4.563m0 0"/></clipPath><clipPath id="g"><path d="M0 0h39v37H0Zm0 0"/></clipPath><clipPath id="h"><path d="M4.566 4.563c10.211-6.555 31.008-3.028 34.157 0 2.27 2.769-8.57 36.046-26.844 35.542C-1.797 38.72-.851 16.535 4.566 4.563m0 0"/></clipPath><clipPath id="i"><path d="M0 0h39v36H0Zm0 0"/></clipPath><clipPath id="j"><path d="M4.566 4.563c10.211-6.555 31.008-3.028 34.157 0 2.27 2.769-8.57 36.046-26.844 35.542C-1.797 38.72-.851 16.535 4.566 4.563m0 0"/></clipPath><clipPath id="k"><path d="M0 0h38v36H0Zm0 0"/></clipPath><clipPath id="l"><path d="M4.566 4.563c10.211-6.555 31.008-3.028 34.157 0 2.27 2.769-8.57 36.046-26.844 35.542C-1.797 38.72-.851 16.535 4.566 4.563m0 0"/></clipPath><clipPath id="m"><path d="M0 0h38v35H0Zm0 0"/></clipPath><clipPath id="n"><path d="M4.566 4.563c10.211-6.555 31.008-3.028 34.157 0 2.27 2.769-8.57 36.046-26.844 35.542C-1.797 38.72-.851 16.535 4.566 4.563m0 0"/></clipPath><clipPath id="o"><path d="M0 0h37v35H0Zm0 0"/></clipPath><clipPath id="p"><path d="M4.566 4.563c10.211-6.555 31.008-3.028 34.157 0 2.27 2.769-8.57 36.046-26.844 35.542C-1.797 38.72-.851 16.535 4.566 4.563m0 0"/></clipPath><clipPath id="q"><path d="M0 0h37v34H0Zm0 0"/></clipPath><clipPath id="r"><path d="M4.566 4.563c10.211-6.555 31.008-3.028 34.157 0 2.27 2.769-8.57 36.046-26.844 35.542C-1.797 38.72-.851 16.535 4.566 4.563m0 0"/></clipPath><clipPath id="s"><path d="M0 0h36v34H0Zm0 0"/></clipPath><clipPath id="t"><path d="M4.566 4.563c10.211-6.555 31.008-3.028 34.157 0 2.27 2.769-8.57 36.046-26.844 35.542C-1.797 38.72-.851 16.535 4.566 4.563m0 0"/></clipPath><clipPath id="u"><path d="M0 0h36v33H0Zm0 0"/></clipPath><clipPath id="v"><path d="M4.566 4.563c10.211-6.555 31.008-3.028 34.157 0 2.27 2.769-8.57 36.046-26.844 35.542C-1.797 38.72-.851 16.535 4.566 4.563m0 0"/></clipPath><clipPath id="w"><path d="M0 0h35v33H0Zm0 0"/></clipPath><clipPath id="x"><path d="M4.566 4.563c10.211-6.555 31.008-3.028 34.157 0 2.27 2.769-8.57 36.046-26.844 35.542C-1.797 38.72-.851 16.535 4.566 4.563m0 0"/></clipPath><clipPath id="y"><path d="M0 0h35v32H0Zm0 0"/></clipPath><clipPath id="z"><path d="M4.566 4.563c10.211-6.555 31.008-3.028 34.157 0 2.27 2.769-8.57 36.046-26.844 35.542C-1.797 38.72-.851 16.535 4.566 4.563m0 0"/></clipPath><clipPath id="A"><path d="M0 0h34v32H0Zm0 0"/></clipPath><clipPath id="B"><path d="M4.566 4.563c10.211-6.555 31.008-3.028 34.157 0 2.27 2.769-8.57 36.046-26.844 35.542C-1.797 38.72-.851 16.535 4.566 4.563m0 0"/></clipPath><clipPath id="C"><path d="M0 0h34v31H0Zm0 0"/></clipPath><clipPath id="D"><path d="M4.566 4.563c10.211-6.555 31.008-3.028 34.157 0 2.27 2.769-8.57 36.046-26.844 35.542C-1.797 38.72-.851 16.535 4.566 4.563m0 0"/></clipPath><clipPath id="E"><path d="M0 0h33v31H0Zm0 0"/></clipPath><clipPath id="F"><path d="M4.566 4.563c10.211-6.555 31.008-3.028 34.157 0 2.27 2.769-8.57 36.046-26.844 35.542C-1.797 38.72-.851 16.535 4.566 4.563m0 0"/></clipPath><clipPath id="G"><path d="M0 0h33v30H0Zm0 0"/></clipPath><clipPath id="H"><path d="M4.566 4.563c10.211-6.555 31.008-3.028 34.157 0 2.27 2.769-8.57 36.046-26.844 35.542C-1.797 38.72-.851 16.535 4.566 4.563m0 0"/></clipPath><clipPath id="I"><path d="M0 0h32v30H0Zm0 0"/></clipPath><clipPath id="J"><path d="M4.566 4.563c10.211-6.555 31.008-3.028 34.157 0 2.27 2.769-8.57 36.046-26.844 35.542C-1.797 38.72-.851 16.535 4.566 4.563m0 0"/></clipPath><clipPath id="K"><path d="M0 0h32v29H0Zm0 0"/></clipPath><clipPath id="L"><path d="M4.566 4.563c10.211-6.555 31.008-3.028 34.157 0 2.27 2.769-8.57 36.046-26.844 35.542C-1.797 38.72-.851 16.535 4.566 4.563m0 0"/></clipPath><clipPath id="M"><path d="M0 0h31v29H0Zm0 0"/></clipPath><clipPath id="N"><path d="M4.566 4.563c10.211-6.555 31.008-3.028 34.157 0 2.27 2.769-8.57 36.046-26.844 35.542C-1.797 38.72-.851 16.535 4.566 4.563m0 0"/></clipPath><clipPath id="O"><path d="M0 0h31v28H0Zm0 0"/></clipPath><clipPath id="P"><path d="M4.566 4.563c10.211-6.555 31.008-3.028 34.157 0 2.27 2.769-8.57 36.046-26.844 35.542C-1.797 38.72-.851 16.535 4.566 4.563m0 0"/></clipPath><clipPath id="Q"><path d="M0 0h30v28H0Zm0 0"/></clipPath><clipPath id="R"><path d="M4.566 4.563c10.211-6.555 31.008-3.028 34.157 0 2.27 2.769-8.57 36.046-26.844 35.542C-1.797 38.72-.851 16.535 4.566 4.563m0 0"/></clipPath><clipPath id="S"><path d="M0 0h30v27H0Zm0 0"/></clipPath><clipPath id="T"><path d="M4.566 4.563c10.211-6.555 31.008-3.028 34.157 0 2.27 2.769-8.57 36.046-26.844 35.542C-1.797 38.72-.851 16.535 4.566 4.563m0 0"/></clipPath><clipPath id="U"><path d="M0 0h29v27H0Zm0 0"/></clipPath><clipPath id="V"><path d="M4.566 4.563c10.211-6.555 31.008-3.028 34.157 0 2.27 2.769-8.57 36.046-26.844 35.542C-1.797 38.72-.851 16.535 4.566 4.563m0 0"/></clipPath><clipPath id="W"><path d="M0 0h29v26H0Zm0 0"/></clipPath><clipPath id="X"><path d="M4.566 4.563c10.211-6.555 31.008-3.028 34.157 0 2.27 2.769-8.57 36.046-26.844 35.542C-1.797 38.72-.851 16.535 4.566 4.563m0 0"/></clipPath><clipPath id="Y"><path d="M0 0h28v26H0Zm0 0"/></clipPath><clipPath id="Z"><path d="M4.566 4.563c10.211-6.555 31.008-3.028 34.157 0 2.27 2.769-8.57 36.046-26.844 35.542C-1.797 38.72-.851 16.535 4.566 4.563m0 0"/></clipPath><clipPath id="aa"><path d="M0 0h28v25H0Zm0 0"/></clipPath><clipPath id="ab"><path d="M4.566 4.563c10.211-6.555 31.008-3.028 34.157 0 2.27 2.769-8.57 36.046-26.844 35.542C-1.797 38.72-.851 16.535 4.566 4.563m0 0"/></clipPath><clipPath id="ac"><path d="M0 0h27v25H0Zm0 0"/></clipPath><clipPath id="ad"><path d="M4.566 4.563c10.211-6.555 31.008-3.028 34.157 0 2.27 2.769-8.57 36.046-26.844 35.542C-1.797 38.72-.851 16.535 4.566 4.563m0 0"/></clipPath><clipPath id="ae"><path d="M0 0h27v24H0Zm0 0"/></clipPath><clipPath id="af"><path d="M4.566 4.563c10.211-6.555 31.008-3.028 34.157 0 2.27 2.769-8.57 36.046-26.844 35.542C-1.797 38.72-.851 16.535 4.566 4.563m0 0"/></clipPath><clipPath id="ag"><path d="M0 0h26v24H0Zm0 0"/></clipPath><clipPath id="ah"><path d="M4.566 4.563c10.211-6.555 31.008-3.028 34.157 0 2.27 2.769-8.57 36.046-26.844 35.542C-1.797 38.72-.851 16.535 4.566 4.563m0 0"/></clipPath><clipPath id="ai"><path d="M0 0h26v23H0Zm0 0"/></clipPath><clipPath id="aj"><path d="M4.566 4.563c10.211-6.555 31.008-3.028 34.157 0 2.27 2.769-8.57 36.046-26.844 35.542C-1.797 38.72-.851 16.535 4.566 4.563m0 0"/></clipPath><clipPath id="ak"><path d="M0 0h25v23H0Zm0 0"/></clipPath><clipPath id="al"><path d="M4.566 4.563c10.211-6.555 31.008-3.028 34.157 0 2.27 2.769-8.57 36.046-26.844 35.542C-1.797 38.72-.851 16.535 4.566 4.563m0 0"/></clipPath><clipPath id="am"><path d="M0 0h25v22H0Zm0 0"/></clipPath><clipPath id="an"><path d="M4.566 4.563c10.211-6.555 31.008-3.028 34.157 0 2.27 2.769-8.57 36.046-26.844 35.542C-1.797 38.72-.851 16.535 4.566 4.563m0 0"/></clipPath><clipPath id="ao"><path d="M0 0h24v22H0Zm0 0"/></clipPath><clipPath id="ap"><path d="M4.566 4.563c10.211-6.555 31.008-3.028 34.157 0 2.27 2.769-8.57 36.046-26.844 35.542C-1.797 38.72-.851 16.535 4.566 4.563m0 0"/></clipPath><clipPath id="aq"><path d="M0 0h24v21H0Zm0 0"/></clipPath><clipPath id="ar"><path d="M4.566 4.563c10.211-6.555 31.008-3.028 34.157 0 2.27 2.769-8.57 36.046-26.844 35.542C-1.797 38.72-.851 16.535 4.566 4.563m0 0"/></clipPath><clipPath id="as"><path d="M0 0h23v21H0Zm0 0"/></clipPath><clipPath id="at"><path d="M4.566 4.563c10.211-6.555 31.008-3.028 34.157 0 2.27 2.769-8.57 36.046-26.844 35.542C-1.797 38.72-.851 16.535 4.566 4.563m0 0"/></clipPath><clipPath id="au"><path d="M0 0h23v20H0Zm0 0"/></clipPath><clipPath id="av"><path d="M4.566 4.563c10.211-6.555 31.008-3.028 34.157 0 2.27 2.769-8.57 36.046-26.844 35.542C-1.797 38.72-.851 16.535 4.566 4.563m0 0"/></clipPath><clipPath id="aw"><path d="M0 0h22v20H0Zm0 0"/></clipPath><clipPath id="ax"><path d="M4.566 4.563c10.211-6.555 31.008-3.028 34.157 0 2.27 2.769-8.57 36.046-26.844 35.542C-1.797 38.72-.851 16.535 4.566 4.563m0 0"/></clipPath><clipPath id="ay"><path d="M0 0h22v19H0Zm0 0"/></clipPath><clipPath id="az"><path d="M4.566 4.563c10.211-6.555 31.008-3.028 34.157 0 2.27 2.769-8.57 36.046-26.844 35.542C-1.797 38.72-.851 16.535 4.566 4.563m0 0"/></clipPath><clipPath id="aA"><path d="M0 0h21v19H0Zm0 0"/></clipPath><clipPath id="aB"><path d="M4.566 4.563c10.211-6.555 31.008-3.028 34.157 0 2.27 2.769-8.57 36.046-26.844 35.542C-1.797 38.72-.851 16.535 4.566 4.563m0 0"/></clipPath><clipPath id="aC"><path d="M1 0h20v18H1Zm0 0"/></clipPath><clipPath id="aD"><path d="M4.566 4.563c10.211-6.555 31.008-3.028 34.157 0 2.27 2.769-8.57 36.046-26.844 35.542C-1.797 38.72-.851 16.535 4.566 4.563m0 0"/></clipPath><clipPath id="aE"><path d="M1 0h19v18H1Zm0 0"/></clipPath><clipPath id="aF"><path d="M4.566 4.563c10.211-6.555 31.008-3.028 34.157 0 2.27 2.769-8.57 36.046-26.844 35.542C-1.797 38.72-.851 16.535 4.566 4.563m0 0"/></clipPath><clipPath id="aG"><path d="M2 0h18v17H2Zm0 0"/></clipPath><clipPath id="aH"><path d="M4.566 4.563c10.211-6.555 31.008-3.028 34.157 0 2.27 2.769-8.57 36.046-26.844 35.542C-1.797 38.72-.851 16.535 4.566 4.563m0 0"/></clipPath><clipPath id="aI"><path d="M2 0h17v17H2Zm0 0"/></clipPath><clipPath id="aJ"><path d="M4.566 4.563c10.211-6.555 31.008-3.028 34.157 0 2.27 2.769-8.57 36.046-26.844 35.542C-1.797 38.72-.851 16.535 4.566 4.563m0 0"/></clipPath><clipPath id="aK"><path d="M3 0h16v16H3Zm0 0"/></clipPath><clipPath id="aL"><path d="M4.566 4.563c10.211-6.555 31.008-3.028 34.157 0 2.27 2.769-8.57 36.046-26.844 35.542C-1.797 38.72-.851 16.535 4.566 4.563m0 0"/></clipPath><clipPath id="aM"><path d="M3 0h15v16H3Zm0 0"/></clipPath><clipPath id="aN"><path d="M4.566 4.563c10.211-6.555 31.008-3.028 34.157 0 2.27 2.769-8.57 36.046-26.844 35.542C-1.797 38.72-.851 16.535 4.566 4.563m0 0"/></clipPath><clipPath id="aO"><path d="M3 1h15v15H3Zm0 0"/></clipPath><clipPath id="aP"><path d="M4.566 4.563c10.211-6.555 31.008-3.028 34.157 0 2.27 2.769-8.57 36.046-26.844 35.542C-1.797 38.72-.851 16.535 4.566 4.563m0 0"/></clipPath><clipPath id="aQ"><path d="M4 1h14v14H4Zm0 0"/></clipPath><clipPath id="aR"><path d="M4.566 4.563c10.211-6.555 31.008-3.028 34.157 0 2.27 2.769-8.57 36.046-26.844 35.542C-1.797 38.72-.851 16.535 4.566 4.563m0 0"/></clipPath><clipPath id="aS"><path d="M4 1h13v14H4Zm0 0"/></clipPath><clipPath id="aT"><path d="M4.566 4.563c10.211-6.555 31.008-3.028 34.157 0 2.27 2.769-8.57 36.046-26.844 35.542C-1.797 38.72-.851 16.535 4.566 4.563m0 0"/></clipPath><clipPath id="aU"><path d="M4 2h13v13H4Zm0 0"/></clipPath><clipPath id="aV"><path d="M4.566 4.563c10.211-6.555 31.008-3.028 34.157 0 2.27 2.769-8.57 36.046-26.844 35.542C-1.797 38.72-.851 16.535 4.566 4.563m0 0"/></clipPath><clipPath id="aW"><path d="M5 2h12v12H5Zm0 0"/></clipPath><clipPath id="aX"><path d="M4.566 4.563c10.211-6.555 31.008-3.028 34.157 0 2.27 2.769-8.57 36.046-26.844 35.542C-1.797 38.72-.851 16.535 4.566 4.563m0 0"/></clipPath><clipPath id="aY"><path d="M5 2h11v12H5Zm0 0"/></clipPath><clipPath id="aZ"><path d="M4.566 4.563c10.211-6.555 31.008-3.028 34.157 0 2.27 2.769-8.57 36.046-26.844 35.542C-1.797 38.72-.851 16.535 4.566 4.563m0 0"/></clipPath><clipPath id="ba"><path d="M5 3h11v11H5Zm0 0"/></clipPath><clipPath id="bb"><path d="M4.566 4.563c10.211-6.555 31.008-3.028 34.157 0 2.27 2.769-8.57 36.046-26.844 35.542C-1.797 38.72-.851 16.535 4.566 4.563m0 0"/></clipPath><clipPath id="bc"><path d="M6 3h10v10H6Zm0 0"/></clipPath><clipPath id="bd"><path d="M4.566 4.563c10.211-6.555 31.008-3.028 34.157 0 2.27 2.769-8.57 36.046-26.844 35.542C-1.797 38.72-.851 16.535 4.566 4.563m0 0"/></clipPath><clipPath id="be"><path d="M6 3h9v10H6Zm0 0"/></clipPath><clipPath id="bf"><path d="M4.566 4.563c10.211-6.555 31.008-3.028 34.157 0 2.27 2.769-8.57 36.046-26.844 35.542C-1.797 38.72-.851 16.535 4.566 4.563m0 0"/></clipPath><clipPath id="bg"><path d="M6 4h9v9H6Zm0 0"/></clipPath><clipPath id="bh"><path d="M4.566 4.563c10.211-6.555 31.008-3.028 34.157 0 2.27 2.769-8.57 36.046-26.844 35.542C-1.797 38.72-.851 16.535 4.566 4.563m0 0"/></clipPath><clipPath id="bi"><path d="M7 4h8v8H7Zm0 0"/></clipPath><clipPath id="bj"><path d="M4.566 4.563c10.211-6.555 31.008-3.028 34.157 0 2.27 2.769-8.57 36.046-26.844 35.542C-1.797 38.72-.851 16.535 4.566 4.563m0 0"/></clipPath><clipPath id="bk"><path d="M7 4h7v8H7Zm0 0"/></clipPath><clipPath id="bl"><path d="M4.566 4.563c10.211-6.555 31.008-3.028 34.157 0 2.27 2.769-8.57 36.046-26.844 35.542C-1.797 38.72-.851 16.535 4.566 4.563m0 0"/></clipPath><clipPath id="bm"><path d="M7 5h7v7H7Zm0 0"/></clipPath><clipPath id="bn"><path d="M4.566 4.563c10.211-6.555 31.008-3.028 34.157 0 2.27 2.769-8.57 36.046-26.844 35.542C-1.797 38.72-.851 16.535 4.566 4.563m0 0"/></clipPath><clipPath id="bo"><path d="M8 5h6v6H8Zm0 0"/></clipPath><clipPath id="bp"><path d="M4.566 4.563c10.211-6.555 31.008-3.028 34.157 0 2.27 2.769-8.57 36.046-26.844 35.542C-1.797 38.72-.851 16.535 4.566 4.563m0 0"/></clipPath><clipPath id="bq"><path d="M8 5h5v6H8Zm0 0"/></clipPath><clipPath id="br"><path d="M4.566 4.563c10.211-6.555 31.008-3.028 34.157 0 2.27 2.769-8.57 36.046-26.844 35.542C-1.797 38.72-.851 16.535 4.566 4.563m0 0"/></clipPath><clipPath id="bs"><path d="M8 6h5v5H8Zm0 0"/></clipPath><clipPath id="bt"><path d="M4.566 4.563c10.211-6.555 31.008-3.028 34.157 0 2.27 2.769-8.57 36.046-26.844 35.542C-1.797 38.72-.851 16.535 4.566 4.563m0 0"/></clipPath><clipPath id="bu"><path d="M9 6h4v4H9Zm0 0"/></clipPath><clipPath id="bv"><path d="M4.566 4.563c10.211-6.555 31.008-3.028 34.157 0 2.27 2.769-8.57 36.046-26.844 35.542C-1.797 38.72-.851 16.535 4.566 4.563m0 0"/></clipPath><clipPath id="bw"><path d="M9 6h3v4H9Zm0 0"/></clipPath><clipPath id="bx"><path d="M4.566 4.563c10.211-6.555 31.008-3.028 34.157 0 2.27 2.769-8.57 36.046-26.844 35.542C-1.797 38.72-.851 16.535 4.566 4.563m0 0"/></clipPath><clipPath id="by"><path d="M9 7h3v3H9Zm0 0"/></clipPath><clipPath id="bz"><path d="M4.566 4.563c10.211-6.555 31.008-3.028 34.157 0 2.27 2.769-8.57 36.046-26.844 35.542C-1.797 38.72-.851 16.535 4.566 4.563m0 0"/></clipPath><clipPath id="bA"><path d="M10 7h2v2h-2Zm0 0"/></clipPath><clipPath id="bB"><path d="M4.566 4.563c10.211-6.555 31.008-3.028 34.157 0 2.27 2.769-8.57 36.046-26.844 35.542C-1.797 38.72-.851 16.535 4.566 4.563m0 0"/></clipPath><clipPath id="bC"><path d="M0 0h40v40.96H0Zm0 0"/></clipPath></defs><g clip-path="url(#a)"><g clip-path="url(#b)"><path d="M-1.797-2.055H40.93v42.727H-1.797z" style="stroke:none;fill-rule:nonzero;fill:#8d1a25;fill-opacity:1"/></g></g><g clip-path="url(#c)"><g clip-path="url(#d)"><path d="M33.414 26.004c-4.918 6.281-11.918 9.973-19.254 10.863a28.95 28.95 0 0 1-11.047-.793C1.301 35.586-.477 35-2.19 34.054h.203v-36.3h39.136v-1.066q.569 1.284.997 2.609c.57 1.765.972 3.578 1.199 5.414.89 7.336-1.012 15.016-5.93 21.293" style="stroke:none;fill-rule:nonzero;fill:#8d1a25;fill-opacity:1"/></g></g><g clip-path="url(#e)"><g clip-path="url(#f)"><path d="M33.152 25.8a28.46 28.46 0 0 1-19.035 10.735c-3.625.442-7.336.149-10.918-.82-1.789-.485-3.547-1.094-5.242-2.04h.055V-2.245H36.96v-.934c.187.848.644 1.707.926 2.578.562 1.747.933 3.54 1.152 5.352a28.47 28.47 0 0 1-5.887 21.05" style="stroke:none;fill-rule:nonzero;fill:#8e1a25;fill-opacity:1"/></g></g><g clip-path="url(#g)"><g clip-path="url(#h)"><path d="M32.89 25.598c-4.804 6.132-11.644 9.738-18.812 10.609a28.2 28.2 0 0 1-10.789-.77c-1.77-.48-3.508-1.171-5.184-2.007-.421-.211-.835-.32-1.25-.7h1.157V-2.246h38.57v-.8c.379.835.676 1.687.953 2.546a28.6 28.6 0 0 1 1.16 5.29c.867 7.17-1 14.67-5.804 20.808" style="stroke:none;fill-rule:nonzero;fill:#8f1a25;fill-opacity:1"/><path d="M32.629 25.39c-4.75 6.063-11.504 9.626-18.59 10.489a28 28 0 0 1-10.664-.762A27.5 27.5 0 0 1-1.75 33.18c-.414-.207-.824-.45-1.23-.637h.992v-34.79h38.191v-.667q.567 1.236.977 2.52c.55 1.703.949 3.453 1.164 5.222.863 7.086-.965 14.5-5.715 20.563" style="stroke:none;fill-rule:nonzero;fill:#901a25;fill-opacity:1"/></g></g><g clip-path="url(#i)"><g clip-path="url(#j)"><path d="M32.367 25.188A27.46 27.46 0 0 1 14 35.547a27.6 27.6 0 0 1-10.54-.75c-1.726-.469-3.42-1.14-5.062-1.957-.41-.203-.816-.297-1.218-.676h.832v-34.41h38.004v-.535c.375.816.636 1.644.906 2.488.543 1.684.91 3.414 1.121 5.164.852 7-.98 14.324-5.676 20.317" style="stroke:none;fill-rule:nonzero;fill:#911a25;fill-opacity:1"/></g></g><g clip-path="url(#k)"><g clip-path="url(#l)"><path d="M32.105 24.98c-4.632 5.918-11.23 9.399-18.148 10.239-3.457.422-6.996.18-10.41-.742a27.4 27.4 0 0 1-5-1.883c-.406-.203-.805-.43-1.203-.621h.668v-34.22h37.625v-.401c.379.804.664 1.625.933 2.457a27.2 27.2 0 0 1 1.125 5.101c.84 6.918-.953 14.153-5.59 20.07" style="stroke:none;fill-rule:nonzero;fill:#921a25;fill-opacity:1"/><path d="M31.844 24.777a26.82 26.82 0 0 1-17.926 10.114c-3.414.414-6.91.175-10.281-.735a27 27 0 0 1-4.942-1.906c-.398-.2-.797-.465-1.187-.652h.504V-2.246h37.246v-.27c.379.793.695 1.606.96 2.426a27.3 27.3 0 0 1 1.13 5.04c.832 6.831-.922 13.98-5.504 19.827" style="stroke:none;fill-rule:nonzero;fill:#931a25;fill-opacity:1"/></g></g><g clip-path="url(#m)"><g clip-path="url(#n)"><path d="M31.586 24.57c-4.523 5.778-10.961 9.168-17.707 9.989-3.375.41-6.828.175-10.156-.723-1.664-.453-3.301-1.043-4.88-1.832-.394-.195-.788-.406-1.175-.598h.344V-2.246H35.07v-.14c.375.788.63 1.59.89 2.398a26.6 26.6 0 0 1 1.087 4.976 26.5 26.5 0 0 1-5.461 19.582" style="stroke:none;fill-rule:nonzero;fill:#941a25;fill-opacity:1"/></g></g><g clip-path="url(#o)"><g clip-path="url(#p)"><path d="M31.324 24.367A26.14 26.14 0 0 1 13.84 34.23a26.4 26.4 0 0 1-10.031-.714c-1.645-.446-3.258-1.02-4.817-1.797-.781-.39-1.547-.88-2.297-1.258h1.317V-2.246h36.68v-.008c.378.777.656 1.567.913 2.367.52 1.606.891 3.25 1.094 4.918.809 6.664-.91 13.633-5.375 19.336" style="stroke:none;fill-rule:nonzero;fill:#951a26;fill-opacity:1"/><path d="M31.063 24.164c-4.41 5.629-10.684 8.938-17.266 9.738a26 26 0 0 1-9.902-.71 25.5 25.5 0 0 1-4.754-1.82c-.774-.384-1.528-.72-2.27-1.29h1.14V-2.246h35.923v-1.012c.187.375.347.754.515 1.137a26.3 26.3 0 0 1 1.938 7.191 25.84 25.84 0 0 1-5.324 19.094" style="stroke:none;fill-rule:nonzero;fill:#971a26;fill-opacity:1"/></g></g><g clip-path="url(#q)"><g clip-path="url(#r)"><path d="M30.8 23.957a25.48 25.48 0 0 1-17.042 9.613c-3.246.395-6.57.172-9.774-.699-1.605-.434-3.175-.992-4.699-1.75-.758-.379-1.504-.848-2.234-1.226h.96V-2.246h35.544v-.867c.191.37.383.746.547 1.125.328.758.632 1.527.882 2.308a26 26 0 0 1 1.063 4.79c.789 6.495-.895 13.292-5.246 18.847" style="stroke:none;fill-rule:nonzero;fill:#981a26;fill-opacity:1"/></g></g><g clip-path="url(#s)"><g clip-path="url(#t)"><path d="M30.54 23.754c-4.298 5.484-10.411 8.707-16.821 9.488a25.3 25.3 0 0 1-9.649-.691 25 25 0 0 1-4.636-1.778c-.75-.37-1.485-.691-2.207-1.257h.785V-2.246h35.355v-.719c.188.367.324.735.485 1.11.324.746.597 1.507.847 2.277a25.5 25.5 0 0 1 1.031 4.726 25.17 25.17 0 0 1-5.19 18.606" style="stroke:none;fill-rule:nonzero;fill:#991a26;fill-opacity:1"/><path d="M30.277 23.547A24.8 24.8 0 0 1 13.68 32.91a24.9 24.9 0 0 1-9.524-.68c-1.562-.421-3.093-.968-4.574-1.707-.738-.37-1.469-.816-2.18-1.195h.61V-2.246h34.976v-.574q.281.543.52 1.097a24.925 24.925 0 0 1 1.883 6.914c.77 6.325-.871 12.946-5.114 18.356" style="stroke:none;fill-rule:nonzero;fill:#9a1a26;fill-opacity:1"/></g></g><g clip-path="url(#u)"><g clip-path="url(#v)"><path d="M30.016 23.344a24.5 24.5 0 0 1-16.38 9.238 24.6 24.6 0 0 1-9.394-.672A24 24 0 0 1-.27 30.176c-.73-.363-1.449-.66-2.148-1.227h.43V-2.246H32.8v-.426c0 .356.3.715.457 1.082.316.727.574 1.465.816 2.215a24.5 24.5 0 0 1 1 4.605 24.5 24.5 0 0 1-5.058 18.114" style="stroke:none;fill-rule:nonzero;fill:#9b1a26;fill-opacity:1"/></g></g><g clip-path="url(#w)"><g clip-path="url(#x)"><path d="M29.754 23.14a24.18 24.18 0 0 1-16.156 9.114c-3.078.371-6.227.16-9.266-.664-1.52-.41-3.012-.945-4.453-1.664-.723-.36-1.43-.79-2.121-1.164h.254V-2.246h34.41v-.277c.187.351.336.707.492 1.062q.462 1.079.824 2.191c.477 1.48.809 3 .996 4.54a24.15 24.15 0 0 1-4.98 17.87" style="stroke:none;fill-rule:nonzero;fill:#9c1a26;fill-opacity:1"/><path d="M29.492 22.934a23.83 23.83 0 0 1-15.933 8.988c-3.036.371-6.145.16-9.141-.652a23.7 23.7 0 0 1-4.39-1.692c-.712-.351-1.41-.816-2.094-1.195h.078v-30.63h33.652v-1.16c1.512 2.716 2.414 5.68 2.781 8.716.739 6.074-.883 12.43-4.953 17.625" style="stroke:none;fill-rule:nonzero;fill:#9d1b26;fill-opacity:1"/></g></g><g clip-path="url(#y)"><g clip-path="url(#z)"><path d="M29.23 22.73a23.48 23.48 0 0 1-15.71 8.864 23.6 23.6 0 0 1-9.016-.645 23.2 23.2 0 0 1-4.328-1.648 23 23 0 0 1-2.063-1.18c-.34-.21-.672-.496-1-.683h.899V-2.247h33.273v-1c1.516 2.676 2.426 5.601 2.79 8.598A23.5 23.5 0 0 1 29.23 22.73" style="stroke:none;fill-rule:nonzero;fill:#9e1a26;fill-opacity:1"/></g></g><g clip-path="url(#A)"><g clip-path="url(#B)"><path d="M28.969 22.523a23.16 23.16 0 0 1-15.492 8.743 23.3 23.3 0 0 1-8.887-.637 23 23 0 0 1-4.27-1.625 23 23 0 0 1-2.03-1.121c-.333-.211-.661-.445-.985-.637h.707V-2.246H30.91v-.84a22.5 22.5 0 0 1 2.79 8.477c.718 5.902-.77 12.082-4.731 17.132" style="stroke:none;fill-rule:nonzero;fill:#9f1a26;fill-opacity:1"/><path d="M28.71 22.32a22.84 22.84 0 0 1-15.272 8.614c-2.91.355-5.887.152-8.758-.625a23 23 0 0 1-4.211-1.602c-.68-.34-1.348-.746-2.004-1.16-.328-.207-.653-.3-.969-.676h.516V-2.246h32.707v-.68C32.23-.32 33.066 2.52 33.422 5.43a22.85 22.85 0 0 1-4.711 16.89" style="stroke:none;fill-rule:nonzero;fill:#a01b26;fill-opacity:1"/></g></g><g clip-path="url(#C)"><g clip-path="url(#D)"><path d="M28.45 22.094C20.757 31.91 6.57 33.676-3.247 25.926h1.258V-2.246h32.332v-.516c1.511 2.563 2.355 5.356 2.703 8.223.695 5.734-.754 11.727-4.598 16.633" style="stroke:none;fill-rule:nonzero;fill:#a11b26;fill-opacity:1"/></g></g><g clip-path="url(#E)"><g clip-path="url(#F)"><path d="M28.188 21.926c-7.579 9.672-21.56 11.37-31.231 3.808h1.055v-27.98h32.14v-.356c1.325 2.528 2.274 5.293 2.618 8.122a22.23 22.23 0 0 1-4.583 16.406" style="stroke:none;fill-rule:nonzero;fill:#a21b26;fill-opacity:1"/><path d="M27.926 21.664C20.46 31.191 6.688 32.918-2.836 25.355h.848V-2.246h31.761v-.195c1.512 2.488 2.282 5.187 2.622 7.968.675 5.57-.739 11.371-4.47 16.137" style="stroke:none;fill-rule:nonzero;fill:#a31b26;fill-opacity:1"/></g></g><g clip-path="url(#G)"><g clip-path="url(#H)"><path d="M27.664 21.496C20.312 30.875 6.75 32.543-2.633 25.168h.645V-2.246h31.574v-.035a22.3 22.3 0 0 1 2.531 7.867 21.53 21.53 0 0 1-4.453 15.91" style="stroke:none;fill-rule:nonzero;fill:#a41b25;fill-opacity:1"/></g></g><g clip-path="url(#I)"><g clip-path="url(#J)"><path d="M27.402 21.324C20.164 30.562 6.81 32.164-2.43 24.98h.442V-2.246H28.64v-.77c.187.297.406.594.57.895a21.4 21.4 0 0 1 2.535 7.766c.656 5.398-.726 11.062-4.344 15.68" style="stroke:none;fill-rule:nonzero;fill:#a51b25;fill-opacity:1"/><path d="M27.14 21.063c-7.12 9.093-20.269 10.722-29.363 3.539h.235V-2.246h30.441v-.594c.188.293.352.586.516.883a20.8 20.8 0 0 1 2.468 7.613 20.8 20.8 0 0 1-4.296 15.407" style="stroke:none;fill-rule:nonzero;fill:#a61c25;fill-opacity:1"/></g></g><g clip-path="url(#K)"><g clip-path="url(#L)"><path d="M26.879 20.895C19.867 29.844 6.929 31.406-2.02 24.41h.032V-2.246h30.25v-.418c0 .285.3.574.465.867a20.6 20.6 0 0 1 2.406 7.512 20.53 20.53 0 0 1-4.254 15.18" style="stroke:none;fill-rule:nonzero;fill:#a71c25;fill-opacity:1"/></g></g><g clip-path="url(#M)"><g clip-path="url(#N)"><path d="M26.617 20.684C19.72 29.488 6.992 31.03-1.813 24.133c-.277-.215-.542-.477-.804-.668h.629V-2.246h29.304V-3.32c.38.547.739 1.11 1.059 1.683a20.3 20.3 0 0 1 2.398 7.387 20.2 20.2 0 0 1-4.156 14.934" style="stroke:none;fill-rule:nonzero;fill:#a81c25;fill-opacity:1"/><path d="M26.355 20.477c-6.78 8.66-19.304 10.175-27.964 3.39-.54-.426-1.055-.777-1.54-1.347h1.16V-2.246H27.13v-.883c.379.535.683 1.09 1 1.652a20 20 0 0 1 2.336 7.266 19.86 19.86 0 0 1-4.11 14.688" style="stroke:none;fill-rule:nonzero;fill:#a91c25;fill-opacity:1"/></g></g><g clip-path="url(#O)"><g clip-path="url(#P)"><path d="M26.094 20.273c-6.668 8.516-18.98 10.028-27.5 3.356-.532-.414-1.035-.918-1.512-1.297h.93V-2.246H26.75v-.695c.379.527.727 1.07 1.035 1.628a19.7 19.7 0 0 1 2.324 7.145c.606 4.977-.68 10.184-4.015 14.441" style="stroke:none;fill-rule:nonzero;fill:#aa1c25;fill-opacity:1"/></g></g><g clip-path="url(#Q)"><g clip-path="url(#R)"><path d="M25.836 20.066C19.277 28.441 7.172 29.953-1.2 23.395c-.524-.41-1.02-.875-1.488-1.25h.699V-2.246h28.55v-.508c.375.52.672 1.055.973 1.602a19.2 19.2 0 0 1 2.266 7.023 19.2 19.2 0 0 1-3.965 14.195" style="stroke:none;fill-rule:nonzero;fill:#ab1c25;fill-opacity:1"/><path d="M25.574 19.863c-6.445 8.227-18.34 9.645-26.57 3.2-.512-.403-1-.731-1.461-1.297h.469V-2.246h28.172v-.316c.378.507.71 1.035 1.007 1.57a19 19 0 0 1 2.254 6.902c.582 4.809-.648 9.84-3.87 13.953" style="stroke:none;fill-rule:nonzero;fill:#ac1c25;fill-opacity:1"/></g></g><g clip-path="url(#S)"><g clip-path="url(#T)"><path d="M25.313 19.66c-6.333 8.082-18.02 9.5-26.102 3.168-.508-.398-.984-.875-1.438-1.254h.239v-23.82h27.98v-.129c.38.5.66 1.016.953 1.543a18.7 18.7 0 0 1 2.192 6.781 18.55 18.55 0 0 1-3.825 13.711" style="stroke:none;fill-rule:nonzero;fill:#ae1d25;fill-opacity:1"/></g></g><g clip-path="url(#U)"><g clip-path="url(#V)"><path d="M25.05 19.453c-6.218 7.942-17.695 9.363-25.636 3.145-.992-.778-1.883-1.59-2.668-2.535h1.266v-22.31h27.605v.06c.375.492.7 1 .985 1.519a18.3 18.3 0 0 1 2.18 6.66c.562 4.637-.622 9.492-3.731 13.461" style="stroke:none;fill-rule:nonzero;fill:#af1d25;fill-opacity:1"/><path d="M24.79 19.25C18.683 27.043 7.413 28.453-.38 22.348c-.976-.762-1.851-1.72-2.621-2.473h1.012V-2.246h26.281v-1.16c.754.91 1.469 1.879 2.035 2.898a18 18 0 0 1 2.129 6.54c.555 4.554-.613 9.32-3.668 13.218" style="stroke:none;fill-rule:nonzero;fill:#b01d25;fill-opacity:1"/></g></g><g clip-path="url(#W)"><g clip-path="url(#X)"><path d="M24.527 19.043c-5.992 7.652-17.05 8.953-24.703 2.96-.957-.75-1.812-1.562-2.57-2.507h.758V-2.246h26.09v-.945c.757.89 1.414 1.843 1.968 2.843 1.106 2 1.801 4.184 2.075 6.418a17.54 17.54 0 0 1-3.618 12.973" style="stroke:none;fill-rule:nonzero;fill:#b11d25;fill-opacity:1"/></g></g><g clip-path="url(#Y)"><g clip-path="url(#Z)"><path d="M24.266 18.84c-5.88 7.504-16.73 8.797-24.239 2.918-.937-.738-1.777-1.504-2.52-2.45h.505V-2.245h25.902v-.73c.758.874 1.352 1.808 1.895 2.789a17.2 17.2 0 0 1 2.023 6.296 17.23 17.23 0 0 1-3.566 12.73" style="stroke:none;fill-rule:nonzero;fill:#b21d25;fill-opacity:1"/><path d="M24.004 18.633c-5.766 7.363-16.41 8.64-23.77 2.875-.921-.719-1.746-1.445-2.476-2.39h.254V-2.247h25.523v-.516c.758.86 1.387 1.774 1.922 2.739a16.9 16.9 0 0 1 2.012 6.175c.523 4.301-.582 8.801-3.465 12.48" style="stroke:none;fill-rule:nonzero;fill:#b31d25;fill-opacity:1"/></g></g><g clip-path="url(#aa)"><g clip-path="url(#ab)"><path d="M23.742 18.43C18.09 25.648 7.656 26.914.438 21.258c-.903-.703-1.711-1.574-2.426-2.328V-2.055h-.407c.356-.379.786-.867 1.165-1.273v1.082h24.578v-.3c.754.839 1.328 1.741 1.851 2.683a16.6 16.6 0 0 1 1.957 6.054 16.55 16.55 0 0 1-3.414 12.239" style="stroke:none;fill-rule:nonzero;fill:#b41d26;fill-opacity:1"/></g></g><g clip-path="url(#ac)"><g clip-path="url(#ad)"><path d="M23.48 18.227C17.941 25.297 7.715 26.539.645 21a16 16 0 0 1-2.38-2.293c-.347-.414-.675-.91-.98-1.289h.727V-1.867h-.145c.348-.38.715-.832 1.09-1.23v.85h24.2v-.085c.57.824 1.273 1.707 1.784 2.629a16.3 16.3 0 0 1 1.903 5.933c.5 4.133-.59 8.458-3.364 11.997" style="stroke:none;fill-rule:nonzero;fill:#b51d25;fill-opacity:1"/><path d="M23.219 18.02C17.793 24.95 7.777 26.156.848 20.727c-1.73-1.356-3.106-2.93-4.11-4.82h1.274V-.356h-.82c.285-.38.574-.872.913-1.305.34-.434.665-.817 1.043-1.207v.62h22.497V-3.28c.566.37.8.761 1.14 1.164A16 16 0 0 1 24.59.457a16 16 0 0 1 1.894 5.813c.493 4.05-.55 8.285-3.265 11.75" style="stroke:none;fill-rule:nonzero;fill:#b61d26;fill-opacity:1"/></g></g><g clip-path="url(#ae)"><g clip-path="url(#af)"><path d="M22.96 17.816c-5.315 6.786-15.124 7.95-21.91 2.637-1.695-1.332-3.038-2.848-4.023-4.738h.985V1.156h-1.309c.461-.754 1.067-1.781 1.73-2.629.333-.422.715-.78 1.094-1.164v.39h21.93v-.796c.379.363.762.746 1.098 1.14.672.79 1.265 1.637 1.758 2.524a15.7 15.7 0 0 1 1.847 5.692 15.56 15.56 0 0 1-3.2 11.503" style="stroke:none;fill-rule:nonzero;fill:#b71d26;fill-opacity:1"/></g></g><g clip-path="url(#ag)"><g clip-path="url(#ah)"><path d="M22.7 17.61c-5.204 6.64-14.802 7.769-21.442 2.566-1.66-1.301-2.977-2.758-3.942-4.649h.696V1.347H-3c.453-.945 1.031-1.765 1.68-2.593C-.672-2.074.094-2.801.848-3.457v1.21h20.418v-.558c.379.36.726.73 1.054 1.118.66.773 1.23 1.601 1.711 2.468a15.4 15.4 0 0 1 1.805 5.57 15.24 15.24 0 0 1-3.137 11.258" style="stroke:none;fill-rule:nonzero;fill:#b81d26;fill-opacity:1"/><path d="M22.438 17.406c-5.09 6.496-14.481 7.676-20.977 2.59-1.621-1.273-2.91-2.77-3.852-4.469h.403V1.535h-.715C-2.262.59-1.707-.207-1.07-1.02a15 15 0 0 1 2.11-2.183v.957h20.038v-.32c.379.351.692.714 1.012 1.093.64.758 1.191 1.567 1.66 2.414.941 1.7 1.531 3.551 1.762 5.45a14.9 14.9 0 0 1-3.075 11.015" style="stroke:none;fill-rule:nonzero;fill:#b91d26;fill-opacity:1"/></g></g><g clip-path="url(#ai)"><g clip-path="url(#aj)"><path d="M22.21 17.203c-4.976 6.352-14.175 7.492-20.526 2.516-1.586-1.242-2.864-2.867-3.786-4.383h.114V1.726h-.418C-1.973.782-1.446 0-.824-.796a14 14 0 0 1 2.05-2.152v.703h18.528V-3.31c6.238 4.977 7.433 14.16 2.457 20.512" style="stroke:none;fill-rule:nonzero;fill:#ba1d26;fill-opacity:1"/></g></g><g clip-path="url(#ak)"><g clip-path="url(#al)"><path d="M21.957 16.996c-4.863 6.207-13.855 7.297-20.062 2.434a14.4 14.4 0 0 1-3.696-4.352A13 13 0 0 1-2.91 12.5h.923V4.371h-1.117c.484-1.7 1.316-3.473 2.53-5.023a12.2 12.2 0 0 1 1.993-2.043v.449h18.148v-.8c6.051 4.862 7.254 13.835 2.391 20.042" style="stroke:none;fill-rule:nonzero;fill:#bc1e25;fill-opacity:1"/><path d="M21.61 16.793C16.86 22.855 8.116 23.91 2.054 19.16c-3.032-2.375-4.793-5.715-5.223-9.305h1.18V4.563h-.797c.473-1.704 1.273-3.446 2.457-4.961.594-.758 1.367-1.446 1.933-2.047v.199h17.583v-.54c6.238 4.75 7.171 13.516 2.421 19.579" style="stroke:none;fill-rule:nonzero;fill:#bd1e25;fill-opacity:1"/></g></g><g clip-path="url(#am)"><g clip-path="url(#an)"><path d="M21.355 16.586C16.72 22.504 8.18 23.543 2.262 18.91a13.58 13.58 0 0 1-5.11-9.074c-.418-3.461.45-7.078 2.766-10.04C.496-.94 1.227-1.604 1.793-2.19v-.055H19v-.277c6.047 4.636 6.992 13.191 2.355 19.109" style="stroke:none;fill-rule:nonzero;fill:#be1e25;fill-opacity:1"/></g></g><g clip-path="url(#ao)"><g clip-path="url(#ap)"><path d="M21.102 16.383c-4.524 5.773-12.856 6.789-18.63 2.265a13.24 13.24 0 0 1-4.988-8.855A13.25 13.25 0 0 1 .23.003a13.2 13.2 0 0 1 4.02-3.425v1.176h14.559v-.016c5.863 4.524 6.816 12.871 2.293 18.645" style="stroke:none;fill-rule:nonzero;fill:#bf1e25;fill-opacity:1"/><path d="M20.867 16.18c-4.41 5.629-12.547 6.617-18.176 2.207a12.92 12.92 0 0 1-4.87-8.633c-.4-3.29.48-6.73 2.687-9.547a12.55 12.55 0 0 1 3.933-3.34v.887h11.91v-1.156c.946.382 1.56.851 2.262 1.402 5.63 4.41 6.664 12.547 2.254 18.18" style="stroke:none;fill-rule:nonzero;fill:#c11e25;fill-opacity:1"/></g></g><g clip-path="url(#aq)"><g clip-path="url(#ar)"><path d="M20.605 15.973c-4.296 5.484-12.226 6.449-17.71 2.152a12.57 12.57 0 0 1-4.743-8.41c-.39-3.207.48-6.559 2.63-9.3C1.854-.958 3.116-2.048 4.628-2.84v.594h11.723v-.86c.757.376 1.445.829 2.132 1.368 5.485 4.297 6.418 12.226 2.121 17.71" style="stroke:none;fill-rule:nonzero;fill:#c21e25;fill-opacity:1"/></g></g><g clip-path="url(#as)"><g clip-path="url(#at)"><path d="M20.344 15.77C16.16 21.11 8.44 22.047 3.102 17.863-2.242 13.68-3.218 5.957.965.617 2.008-.719 3.305-1.777 4.629-2.55v.305h11.535v-.563c.754.368 1.426.809 2.094 1.332 5.34 4.184 6.273 11.903 2.086 17.247" style="stroke:none;fill-rule:nonzero;fill:#c31e25;fill-opacity:1"/><path d="M20.086 15.563c-4.07 5.199-11.586 6.109-16.781 2.039C-1.891 13.532-2.832 6.02 1.238.824A12.3 12.3 0 0 1 4.82-2.262v.016h9.075v-1.098c1.324.403 2.898 1.11 4.195 2.13 5.195 4.07 6.066 11.581 1.996 16.777" style="stroke:none;fill-rule:nonzero;fill:#c41e25;fill-opacity:1"/></g></g><g clip-path="url(#au)"><g clip-path="url(#av)"><path d="M19.824 15.36c-3.96 5.05-11.262 5.937-16.316 1.98C-1.543 13.383-2.387 6.078 1.57 1.027 3.547-1.5 6.332-2.984 9.355-3.343v1.097h4.352v-.777c1.512.394 2.863 1.078 4.129 2.07 5.05 3.957 5.945 11.262 1.988 16.312" style="stroke:none;fill-rule:nonzero;fill:#c51e25;fill-opacity:1"/></g></g><g clip-path="url(#aw)"><g clip-path="url(#ax)"><path d="M19.563 15.152c-3.844 4.91-10.942 5.774-15.848 1.926-4.91-3.844-5.77-10.937-1.926-15.848a11.25 11.25 0 0 1 7.524-4.242 11.24 11.24 0 0 1 8.324 2.32c4.906 3.844 5.77 10.938 1.925 15.844" style="stroke:none;fill-rule:nonzero;fill:#c61e25;fill-opacity:1"/><path d="M19.3 14.95c-3.73 4.76-10.616 5.6-15.382 1.866C-.844 13.086-1.68 6.2 2.051 1.438a10.93 10.93 0 0 1 7.304-4.122 10.93 10.93 0 0 1 8.075 2.25c4.765 3.735 5.601 10.622 1.87 15.383" style="stroke:none;fill-rule:nonzero;fill:#c81e25;fill-opacity:1"/></g></g><g clip-path="url(#ay)"><g clip-path="url(#az)"><path d="M19.04 14.746c-3.618 4.617-10.298 5.43-14.915 1.809C-.496 12.938-1.305 6.262 2.313 1.64a10.6 10.6 0 0 1 7.082-3.996c2.699-.325 5.523.375 7.832 2.183 4.62 3.621 5.43 10.297 1.812 14.918" style="stroke:none;fill-rule:nonzero;fill:#c91e25;fill-opacity:1"/></g></g><g clip-path="url(#aA)"><g clip-path="url(#aB)"><path d="M18.777 14.54c-3.504 4.476-9.972 5.26-14.449 1.757C-.145 12.789-.934 6.32 2.574 1.847 6.078-2.628 12.547-3.413 17.024.09c4.472 3.508 5.257 9.976 1.753 14.45" style="stroke:none;fill-rule:nonzero;fill:#ca1e25;fill-opacity:1"/><path d="M18.516 14.336c-3.391 4.328-9.653 5.09-13.985 1.7C.203 12.64-.559 6.382 2.836 2.05c3.39-4.332 9.652-5.09 13.98-1.7 4.332 3.395 5.094 9.653 1.7 13.985" style="stroke:none;fill-rule:nonzero;fill:#cb1e25;fill-opacity:1"/></g></g><g clip-path="url(#aC)"><g clip-path="url(#aD)"><path d="M18.254 14.129c-3.277 4.187-9.328 4.922-13.516 1.644a9.63 9.63 0 0 1-1.644-13.52c3.281-4.183 9.332-4.917 13.52-1.64 4.183 3.282 4.921 9.332 1.64 13.516" style="stroke:none;fill-rule:nonzero;fill:#cc1e25;fill-opacity:1"/></g></g><g clip-path="url(#aE)"><g clip-path="url(#aF)"><path d="M17.992 13.926c-3.164 4.043-9.008 4.75-13.05 1.586C.901 12.344.191 6.504 3.354 2.46 6.523-1.582 12.367-2.293 16.406.875a9.293 9.293 0 0 1 1.586 13.05" style="stroke:none;fill-rule:nonzero;fill:#cd1e25;fill-opacity:1"/><path d="M17.73 13.723c-3.05 3.894-8.687 4.582-12.582 1.527a8.967 8.967 0 0 1-1.53-12.586c3.054-3.894 8.687-4.582 12.585-1.527 3.899 3.05 4.582 8.687 1.527 12.586" style="stroke:none;fill-rule:nonzero;fill:#ce1e26;fill-opacity:1"/></g></g><g clip-path="url(#aG)"><g clip-path="url(#aH)"><path d="M17.469 13.516A8.632 8.632 0 1 1 3.882 2.87 8.632 8.632 0 0 1 17.47 13.516" style="stroke:none;fill-rule:nonzero;fill:#cf1e26;fill-opacity:1"/></g></g><g clip-path="url(#aI)"><g clip-path="url(#aJ)"><path d="M17.21 13.313c-2.827 3.609-8.046 4.242-11.651 1.414-3.61-2.829-4.246-8.043-1.418-11.653A8.3 8.3 0 0 1 15.793 1.66c3.61 2.824 4.242 8.043 1.418 11.653" style="stroke:none;fill-rule:nonzero;fill:#d01e26;fill-opacity:1"/><path d="M16.95 13.105a7.97 7.97 0 0 1-11.188 1.36A7.963 7.963 0 0 1 4.402 3.28a7.97 7.97 0 0 1 11.188-1.36c3.465 2.712 4.07 7.72 1.36 11.184" style="stroke:none;fill-rule:nonzero;fill:#d11e26;fill-opacity:1"/></g></g><g clip-path="url(#aK)"><g clip-path="url(#aL)"><path d="M16.688 12.902a7.64 7.64 0 0 1-10.723 1.301c-3.32-2.598-3.902-7.398-1.3-10.719a7.633 7.633 0 0 1 10.718-1.3c3.32 2.597 3.902 7.398 1.305 10.718" style="stroke:none;fill-rule:nonzero;fill:#d21e26;fill-opacity:1"/></g></g><g clip-path="url(#aM)"><g clip-path="url(#aN)"><path d="M16.426 12.695a7.303 7.303 0 0 1-10.254 1.246A7.303 7.303 0 0 1 4.926 3.688 7.307 7.307 0 0 1 15.18 2.44c3.175 2.489 3.734 7.082 1.246 10.254" style="stroke:none;fill-rule:nonzero;fill:#d31e26;fill-opacity:1"/></g></g><g clip-path="url(#aO)"><g clip-path="url(#aP)"><path d="M16.164 12.492a6.977 6.977 0 0 1-9.789 1.192 6.973 6.973 0 0 1-1.187-9.79 6.973 6.973 0 1 1 10.977 8.598" style="stroke:none;fill-rule:nonzero;fill:#d41e26;fill-opacity:1"/></g></g><g clip-path="url(#aQ)"><g clip-path="url(#aR)"><path d="M15.902 12.29a6.64 6.64 0 0 1-9.32 1.132 6.643 6.643 0 0 1-1.133-9.324 6.64 6.64 0 0 1 9.32-1.133 6.643 6.643 0 0 1 1.133 9.324" style="stroke:none;fill-rule:nonzero;fill:#d51e26;fill-opacity:1"/></g></g><g clip-path="url(#aS)"><g clip-path="url(#aT)"><path d="M15.64 12.082a6.31 6.31 0 0 1-8.855 1.078 6.31 6.31 0 0 1-1.074-8.855 6.305 6.305 0 0 1 8.855-1.078 6.31 6.31 0 0 1 1.075 8.855" style="stroke:none;fill-rule:nonzero;fill:#d61e26;fill-opacity:1"/></g></g><g clip-path="url(#aU)"><g clip-path="url(#aV)"><path d="M15.379 11.879a5.977 5.977 0 0 1-8.39 1.02 5.98 5.98 0 0 1-1.02-8.391 5.98 5.98 0 0 1 8.39-1.02 5.974 5.974 0 0 1 1.02 8.39" style="stroke:none;fill-rule:nonzero;fill:#d71e26;fill-opacity:1"/></g></g><g clip-path="url(#aW)"><g clip-path="url(#aX)"><path d="M15.117 11.672a5.64 5.64 0 0 1-7.922.965A5.65 5.65 0 0 1 6.23 4.71a5.65 5.65 0 0 1 7.926-.961 5.643 5.643 0 0 1 .961 7.922" style="stroke:none;fill-rule:nonzero;fill:#d81e26;fill-opacity:1"/></g></g><g clip-path="url(#aY)"><g clip-path="url(#aZ)"><path d="M14.855 11.469a5.313 5.313 0 0 1-8.363-6.551 5.317 5.317 0 0 1 7.461-.906 5.31 5.31 0 0 1 .902 7.457" style="stroke:none;fill-rule:nonzero;fill:#d91e26;fill-opacity:1"/></g></g><g clip-path="url(#ba)"><g clip-path="url(#bb)"><path d="M14.594 11.266a4.98 4.98 0 0 1-6.989.847 4.98 4.98 0 1 1 6.141-7.84 4.98 4.98 0 0 1 .848 6.993" style="stroke:none;fill-rule:nonzero;fill:#da1e26;fill-opacity:1"/></g></g><g clip-path="url(#bc)"><g clip-path="url(#bd)"><path d="M14.336 11.059a4.65 4.65 0 0 1-7.32-5.73 4.645 4.645 0 0 1 6.527-.794 4.65 4.65 0 0 1 .793 6.524" style="stroke:none;fill-rule:nonzero;fill:#db1e26;fill-opacity:1"/></g></g><g clip-path="url(#be)"><g clip-path="url(#bf)"><path d="M14.074 10.855a4.317 4.317 0 0 1-6.797-5.324 4.314 4.314 0 0 1 6.059-.734 4.314 4.314 0 0 1 .738 6.058" style="stroke:none;fill-rule:nonzero;fill:#dc1e26;fill-opacity:1"/></g></g><g clip-path="url(#bg)"><g clip-path="url(#bh)"><path d="M13.813 10.648a3.98 3.98 0 0 1-5.594.68 3.983 3.983 0 1 1 4.914-6.27 3.983 3.983 0 0 1 .68 5.59" style="stroke:none;fill-rule:nonzero;fill:#dd1e26;fill-opacity:1"/></g></g><g clip-path="url(#bi)"><g clip-path="url(#bj)"><path d="M13.55 10.445a3.654 3.654 0 0 1-5.128.621A3.65 3.65 0 0 1 7.8 5.941a3.65 3.65 0 0 1 5.125-.625 3.654 3.654 0 0 1 .625 5.13" style="stroke:none;fill-rule:nonzero;fill:#de1e26;fill-opacity:1"/></g></g><g clip-path="url(#bk)"><g clip-path="url(#bl)"><path d="M13.29 10.242a3.32 3.32 0 1 1-5.228-4.097 3.32 3.32 0 0 1 5.227 4.097" style="stroke:none;fill-rule:nonzero;fill:#de1e26;fill-opacity:1"/></g></g><g clip-path="url(#bm)"><g clip-path="url(#bn)"><path d="M13.027 10.035a2.99 2.99 0 0 1-4.195.512A2.99 2.99 0 0 1 12.52 5.84a2.99 2.99 0 0 1 .507 4.195" style="stroke:none;fill-rule:nonzero;fill:#df1e26;fill-opacity:1"/></g></g><g clip-path="url(#bo)"><g clip-path="url(#bp)"><path d="M12.766 9.832a2.655 2.655 0 1 1-4.181-3.277 2.655 2.655 0 0 1 4.18 3.277" style="stroke:none;fill-rule:nonzero;fill:#e01e26;fill-opacity:1"/></g></g><g clip-path="url(#bq)"><g clip-path="url(#br)"><path d="M12.504 9.625a2.324 2.324 0 1 1-3.66-2.864 2.324 2.324 0 0 1 3.66 2.864" style="stroke:none;fill-rule:nonzero;fill:#e11e26;fill-opacity:1"/></g></g><g clip-path="url(#bs)"><g clip-path="url(#bt)"><path d="M12.242 9.422a1.99 1.99 0 0 1-2.797.34 1.997 1.997 0 0 1-.34-2.797 1.99 1.99 0 0 1 2.797-.34 1.99 1.99 0 0 1 .34 2.797" style="stroke:none;fill-rule:nonzero;fill:#e21d26;fill-opacity:1"/></g></g><g clip-path="url(#bu)"><g clip-path="url(#bv)"><path d="M11.98 9.215a1.655 1.655 0 0 1-2.328.285 1.664 1.664 0 0 1-.285-2.332 1.663 1.663 0 0 1 2.332-.281c.723.566.848 1.61.281 2.328" style="stroke:none;fill-rule:nonzero;fill:#e31d26;fill-opacity:1"/></g></g><g clip-path="url(#bw)"><g clip-path="url(#bx)"><path d="M11.719 9.012c-.45.578-1.285.68-1.864.226a1.325 1.325 0 0 1-.226-1.863 1.326 1.326 0 0 1 1.863-.227c.578.454.68 1.286.227 1.864" style="stroke:none;fill-rule:nonzero;fill:#e41d26;fill-opacity:1"/></g></g><g clip-path="url(#by)"><g clip-path="url(#bz)"><path d="M11.46 8.809a.995.995 0 0 1-1.398.168.995.995 0 1 1 1.227-1.567c.434.34.508.965.172 1.399" style="stroke:none;fill-rule:nonzero;fill:#e51d26;fill-opacity:1"/></g></g><g clip-path="url(#bA)"><g clip-path="url(#bB)"><path d="M11.2 8.602a.665.665 0 0 1-1.048-.817.665.665 0 0 1 1.047.817" style="stroke:none;fill-rule:nonzero;fill:#e61d27;fill-opacity:1"/><path d="M10.938 8.398a.335.335 0 0 1-.47.055.333.333 0 0 1-.054-.465.33.33 0 0 1 .465-.054.33.33 0 0 1 .059.464" style="stroke:none;fill-rule:nonzero;fill:#e61d27;fill-opacity:1"/></g></g><g clip-path="url(#bC)"><path d="M11.934 39.254q.174.005.355.004c9.516 0 16.418-9.77 19.684-15.594 2.168-3.86 3.996-8.172 5.148-12.14 1.242-4.27 1.11-6.055.95-6.407-1.641-1.445-8.9-3.414-17.31-3.414-4.57 0-10.937.602-15.523 3.442C1.52 13.539.094 26.922 4.254 34.148c1.75 3.04 4.332 4.758 7.68 5.106m.355 1.707q-.216-.001-.434-.008l-.062-.004C7.855 40.551 4.824 38.547 2.777 35-1.75 27.133-.262 13.168 3.793 4.21l.102-.23.21-.136C9.055.672 15.895.004 20.762.004c7.828 0 16.324 1.805 18.55 3.941l.07.078c1.54 1.88-.87 10.141-3.984 16.715-1.828 3.852-4.914 9.352-9.253 13.672-4.368 4.348-9.032 6.55-13.856 6.55" style="stroke:none;fill-rule:nonzero;fill:#5b5c5e;fill-opacity:1"/></g><path d="M31.285 11.367H23.18l1.5-5.562s-6.84.34-7.88 4.21l-.366 1.352h-4.43c-3.277 0-5.043 5.293-5.043 5.293h8.05l-.07.258-.023.094q-.06.216-.117.433l-.055.2-.117.44-.02.063c-.164.614-.324 1.207-.472 1.766l-.035.133q-.085.3-.157.582H9.547c-3.277 0-5.043 5.297-5.043 5.297h8.016l-1.848 6.863s6.84-.34 7.879-4.21c.105-.392.23-.849.363-1.352-.96-.618-2.379-1.235-4.262-1.301h9.137c3.277 0 5.04-5.297 5.04-5.297h-8.141c.253-.938.496-1.844.714-2.645-.965-.629-2.386-1.254-4.293-1.324h9.137c3.277 0 5.04-5.293 5.04-5.293" style="stroke:none;fill-rule:nonzero;fill:#fff;fill-opacity:1"/><path d="M71.633 13.637H75L72.566 26.3h6.063l-.563 3.027h-9.43zM86.328 13.637l-2.996 15.691h-3.371l2.996-15.691zM91.734 16.66H87.57l.582-3.023H99.88l-.563 3.023h-4.21l-2.41 12.668h-3.372zM104.129 13.637l-1.73 9.015c-.122.535-.165 1.176-.165 1.871 0 1.25.77 2.23 2.293 2.23 1.754 0 2.926-1.183 3.489-4.081l1.73-9.035h3.371l-1.71 8.902c-.915 4.723-3.02 7.008-7.302 7.008-3.253 0-5.242-1.637-5.242-4.973 0-.672.094-1.46.235-2.203l1.66-8.734zM120.594 22.71l-.305-3.362c-.066-.86-.16-2.121-.23-3.067h-.047c-.399.946-.844 2.16-1.266 3.067l-1.566 3.363Zm-4.399 2.458-1.87 4.16h-3.583l7.676-15.691h4.328l1.852 15.691h-3.535l-.329-4.16zM126.117 29.328l2.996-15.691h3.953l2.082 5.984a59 59 0 0 1 1.43 5.36h.07c.07-1.516.282-3.344.723-5.637l1.078-5.707h3.137l-2.973 15.691h-3.484l-2.203-6.242c-.703-2.106-1.121-3.523-1.543-5.45l-.07.024c-.188 1.504-.563 3.738-1.032 6.192l-1.027 5.476zM147.621 13.637l-2.996 15.691h-3.371l2.996-15.691zM159.39 28.867c-.843.371-2.273.672-4.167.672-4.164 0-6.973-2.5-6.973-6.625 0-3.496 1.59-6.23 3.977-7.805 1.64-1.136 3.582-1.668 5.804-1.668 1.707 0 2.996.395 3.442.672l-.914 2.711c-.47-.234-1.496-.512-2.856-.512-1.355 0-2.644.418-3.601 1.208-1.336 1.062-2.18 2.847-2.18 5.023 0 2.48 1.406 4.148 4.191 4.148 1.102 0 2.2-.187 2.996-.511zM171.996 22.71l-.3-3.362c-.075-.86-.165-2.121-.235-3.067h-.047c-.398.946-.844 2.16-1.266 3.067l-1.566 3.363Zm-4.398 2.458-1.871 4.16h-3.582l7.675-15.691h4.332L176 29.328h-3.535l-.328-4.16zM49.32 26.563l.692-3.106q-.714.06-1.801.164-1.089.104-1.785.297a4.1 4.1 0 0 0-1.446.707q-.616.473-.804 1.328c-.145.64-.063 1.125.238 1.453q.451.492 1.535.492c.614 0 1.203-.128 1.758-.386a10 10 0 0 0 1.613-.95m-.347 1.57q-.277.17-.746.472a7.281 7.281 0 0 1-1.973.887q-.515.14-1.387.14-.72-.002-1.304-.26a2.6 2.6 0 0 1-.97-.735q-.366-.457-.5-1.137a3.5 3.5 0 0 1 .04-1.426q.258-1.166.949-1.98.686-.82 1.898-1.301 1.073-.428 2.438-.594a40 40 0 0 1 2.926-.246l.078-.363q.15-.663.031-1.067a1.08 1.08 0 0 0-.445-.625q-.321-.233-.848-.308a8 8 0 0 0-1.094-.074c-.449 0-.996.054-1.632.183-.641.13-1.293.363-1.957.555h-.114l.426-1.902c.383-.102.922-.204 1.621-.325q1.051-.18 2.035-.18 1.196.001 1.977.184.783.182 1.332.653.533.462.68 1.195c.101.484.074 1.086-.082 1.785l-1.7 7.664h-1.945zM55.395 29.328h-1.958l2.485-11.156h1.957Zm3.035-13.047h-2.227l.434-2.078h2.226zM66.45 20.063h-.102c-.137 0-.285-.024-.446-.032-.164-.011-.355.004-.586.004-.527 0-1.074.121-1.644.344-.567.219-1.133.555-1.692.992l-1.765 7.957h-1.953l2.484-11.156H62.7l-.367 1.64c.848-.609 1.566-1.05 2.148-1.3.59-.25 1.13-.383 1.63-.383q.3 0 .449.012c.097.011.207-.02.328.004z" style="stroke:none;fill-rule:nonzero;fill:#5b5c5e;fill-opacity:1"/></svg>