<?xml version="1.0" encoding="UTF-8"?>
<svg xmlns="http://www.w3.org/2000/svg" xmlns:xlink="http://www.w3.org/1999/xlink" width="176pt" height="46.38pt" viewBox="0 0 176 46.38" version="1.1">
<defs>
<clipPath id="clip1">
  <path d="M 0 0 L 53 0 L 53 46.378906 L 0 46.378906 Z M 0 0 "/>
</clipPath>
</defs>
<g id="surface1">
<g clip-path="url(#clip1)" clip-rule="nonzero">
<path style=" stroke:none;fill-rule:evenodd;fill:rgb(80.400085%,11.776733%,14.530945%);fill-opacity:1;" d="M 52.007812 0 L 45.21875 46.378906 L 0 46.378906 L 32.035156 0 L 52.007812 0 "/>
</g>
<path style=" stroke:none;fill-rule:evenodd;fill:rgb(100%,100%,100%);fill-opacity:1;" d="M 37.246094 11.023438 C 37.246094 11.980469 37.246094 20.488281 37.246094 20.488281 C 37.246094 20.488281 45.636719 20.488281 46.71875 20.488281 C 46.71875 21.449219 46.71875 26.84375 46.71875 27.800781 C 45.636719 27.800781 37.246094 27.800781 37.246094 27.800781 C 37.246094 27.800781 37.246094 36.308594 37.246094 37.390625 C 36.289062 37.390625 30.777344 37.390625 29.816406 37.390625 C 29.816406 36.308594 29.816406 27.800781 29.816406 27.800781 C 29.816406 27.800781 21.304688 27.800781 20.347656 27.800781 C 20.347656 26.84375 20.347656 21.449219 20.347656 20.488281 C 21.304688 20.488281 29.816406 20.488281 29.816406 20.488281 C 29.816406 20.488281 29.816406 11.980469 29.816406 11.023438 C 30.777344 11.023438 36.289062 11.023438 37.246094 11.023438 "/>
<path style=" stroke:none;fill-rule:evenodd;fill:rgb(80.400085%,11.776733%,14.530945%);fill-opacity:1;" d="M 70.414062 40.917969 C 65.035156 40.917969 59.917969 38.953125 59.917969 33.179688 L 66.476562 33.179688 C 66.609375 34.753906 67.660156 36.457031 70.542969 36.457031 C 73.167969 36.457031 74.347656 35.144531 74.347656 33.703125 C 74.347656 32.523438 73.824219 31.605469 70.9375 30.816406 L 66.609375 29.507812 C 64.640625 28.984375 60.445312 27.539062 60.445312 22.554688 C 60.445312 17.832031 64.640625 15.078125 70.542969 15.078125 C 76.050781 15.078125 80.511719 17.308594 80.511719 22.292969 L 74.085938 22.292969 C 73.824219 19.539062 71.59375 19.40625 70.542969 19.40625 C 68.578125 19.40625 67.132812 20.195312 67.132812 21.636719 C 67.132812 23.34375 68.183594 23.867188 70.28125 24.523438 L 74.742188 25.703125 C 77.234375 26.492188 81.167969 28.0625 81.167969 32.785156 C 81.167969 36.984375 77.890625 40.917969 70.414062 40.917969 Z M 112.386719 40.261719 L 105.5625 40.261719 L 100.578125 22.816406 L 95.726562 40.261719 L 88.90625 40.261719 L 81.167969 15.605469 L 87.726562 15.605469 L 92.316406 32.785156 L 97.039062 15.605469 L 104.121094 15.605469 L 108.84375 32.785156 L 113.433594 15.605469 L 119.859375 15.605469 Z M 121.828125 15.605469 L 128.257812 15.605469 L 128.257812 40.261719 L 121.828125 40.261719 Z M 141.894531 40.917969 C 136.519531 40.917969 131.402344 38.953125 131.402344 33.179688 L 137.964844 33.179688 C 137.964844 34.753906 139.144531 36.457031 142.027344 36.457031 C 144.652344 36.457031 145.832031 35.144531 145.832031 33.703125 C 145.832031 32.523438 145.308594 31.605469 142.421875 30.816406 L 138.09375 29.507812 C 136.125 28.984375 131.929688 27.539062 131.929688 22.554688 C 131.929688 17.832031 136.125 15.078125 142.027344 15.078125 C 147.535156 15.078125 151.996094 17.308594 152.128906 22.292969 L 145.4375 22.292969 C 145.308594 19.539062 143.078125 19.40625 142.027344 19.40625 C 140.0625 19.40625 138.617188 20.195312 138.617188 21.636719 C 138.617188 23.34375 139.667969 23.867188 141.765625 24.523438 L 146.226562 25.703125 C 148.71875 26.492188 152.519531 28.0625 152.519531 32.785156 C 152.519531 36.984375 149.242188 40.917969 141.894531 40.917969 Z M 121.828125 7.863281 L 128.257812 7.863281 L 128.257812 13.242188 L 121.828125 13.242188 Z M 165.242188 40.917969 C 159.867188 40.917969 154.75 38.953125 154.75 33.179688 L 161.441406 33.179688 C 161.441406 34.753906 162.488281 36.457031 165.375 36.457031 C 168 36.457031 169.179688 35.144531 169.179688 33.703125 C 169.179688 32.523438 168.652344 31.605469 165.898438 30.816406 L 161.441406 29.507812 C 159.472656 28.984375 155.273438 27.539062 155.273438 22.554688 C 155.273438 17.832031 159.605469 15.078125 165.375 15.078125 C 170.886719 15.078125 175.34375 17.308594 175.476562 22.292969 L 168.917969 22.292969 C 168.785156 19.539062 166.554688 19.40625 165.375 19.40625 C 163.40625 19.40625 161.964844 20.195312 161.964844 21.636719 C 161.964844 23.34375 163.144531 23.867188 165.242188 24.523438 L 169.703125 25.703125 C 172.0625 26.492188 176 28.0625 176 32.785156 C 176 36.984375 172.722656 40.917969 165.242188 40.917969 "/>
</g>
</svg>
