<svg xmlns="http://www.w3.org/2000/svg" width="176pt" height="22.787" viewBox="0 0 176 17.09"><defs><clipPath id="a"><path d="M72 0h20v17.09H72Zm0 0"/></clipPath></defs><path d="M0 16.441c.102-.425.23-.843.297-1.277C1.05 10.31 1.793 5.454 2.543.598c.02-.133.074-.262.11-.375.597-.196 3.335-.239 4.41-.067L6.672 3.75c.453-.293.781-.492 1.098-.715 1.144-.8 2.293-1.598 3.418-2.422.449-.328.917-.547 1.464-.543 1.73.012 3.457.043 5.262.07-.125.36-.39.5-.61.673-1.542 1.203-3.09 2.398-4.636 3.597-.152.121-.297.25-.516.43.11.273.207.555.332.824 1.149 2.422 2.309 4.84 3.18 7.383.344 1 .578 2.039.848 3.062.062.235.066.489.105.797h-4.894c-.953-3.433-2.203-6.785-4.09-9.898-.2.07-.34.094-.453.16-.36.21-.707.437-1.102.687-.465 3-.93 6-1.406 9.055-1.61.098-3.14.055-4.672.035zM38.629 5.402c-.602 3.918-1.176 7.664-1.746 11.399-.613.164-17.184.234-18.39.078-.169-.8.066-1.59.179-2.375.531-3.7 1.094-7.399 1.648-11.098.157-1.047.32-2.093.48-3.129.966-.297 10.079-.375 12.052-.093-.028.957-.254 1.894-.383 2.925-2.38.102-4.742-.004-7.203.086-.106.743-.207 1.47-.32 2.297h5.671c-.137.938-.258 1.778-.387 2.645h-6.003c-.344 1.906-.684 3.781-1.032 5.718h10.239c.25-1.507.507-3.035.754-4.566.246-1.516.464-3.035.718-4.55.258-1.528.418-3.079.758-4.653 1.211-.047 2.32-.2 3.418.062.371.086.727.29 1.05.5a33 33 0 0 1 4.977 3.957c.356.34.73.665 1.176 1.07.317-.987.344-1.905.5-2.792.16-.903.281-1.813.43-2.809 1.144-.023 2.25-.015 3.46 0-.077 1.91-.398 3.738-.597 5.582-.203 1.887-.437 3.77-.668 5.653-.226 1.851-.46 3.699-.695 5.59h-3.871c0-.434-.04-.876.008-1.305.09-.805.203-1.606.347-2.403.176-.957-.027-1.832-.48-2.66-.547-.996-1.297-1.824-2.176-2.527a61 61 0 0 0-2.75-2.05c-.305-.22-.688-.333-1.164-.552M61.48 6.746c.59-.672 1.086-1.234 1.579-1.8A25.6 25.6 0 0 1 68.008.573C68.563.2 69.148.016 69.82.047c.778.039 1.559.05 2.45.074-.801 5.629-1.59 11.192-2.387 16.79H65.66c.035-.477.043-.942.113-1.4.348-2.316.715-4.632 1.07-6.948.075-.489.227-1.004-.331-1.344-.578.031-.91.418-1.23.8-1.63 1.926-3.09 3.97-4.216 6.235-.023.047-.062.09-.117.16h-1.504c-.699-2.828-1.664-5.516-3.535-8.012-.148.73-.293 1.278-.37 1.84-.352 2.63-.685 5.258-1.024 7.89-.036.247-.098.485-.164.817a72 72 0 0 1-3.305-.012c.691-5.644 1.379-11.199 2.066-16.785 1.25-.148 2.418-.187 3.578-.011.301.047.618.265.852.484 1.36 1.273 2.484 2.719 3.2 4.46.21.513.452 1.017.737 1.661M166.73 11.441c.583.41 1.008.766 1.485 1.032 2.383 1.343 4.781 2.668 7.172 4 .187.101.363.218.613.37-.16.063-.227.114-.293.11-2.266-.008-4.531.078-6.789-.055-2.727-.16-4.984-1.476-6.992-3.14-.125-1.176.054-2.824.437-4.004.242-.024.532-.059.82-.078.637-.035 1.297.039 1.907-.11 2.191-.539 3.133-3.086 1.976-5.039-.437-.742-1.097-1.234-1.96-1.27-1.368-.05-2.739-.003-4.106.005-.05 0-.102.047-.25.12q-.831 6.67-1.691 13.509h-4.454c.696-5.598 1.438-11.149 2.153-16.739.219-.035.402-.086.59-.086 2.906-.007 5.812.008 8.718-.007 2.192-.016 3.903.851 5.082 2.699 1.512 2.36 1.008 6.894-2.847 8.152-.469.152-.934.317-1.57.531" style="stroke:none;fill-rule:nonzero;fill:#231f20;fill-opacity:1"/><g clip-path="url(#a)"><path d="M86.375 7.063c0-.25.02-.504-.004-.754-.223-2.66-2.695-4.38-5.191-3.594-1.297.41-2.34 1.183-3.028 2.37C77.07 6.962 76.692 9 77.008 11.13c.308 2.059 2.449 3.523 4.508 3.191 1.347-.218 2.363-.957 3.164-2.015 1.175-1.547 1.62-3.34 1.695-5.242m5.39-.012c-.105 3.992-1.98 6.922-5.495 8.73-2.817 1.45-5.844 1.656-8.883.809-3.254-.906-5.098-3.375-5.27-6.762-.11-2.164.352-4.168 1.621-5.941C75.336 1.672 77.57.52 80.238.176c1.84-.238 3.68-.16 5.508.176 1.192.218 2.328.597 3.348 1.261 1.629 1.063 2.508 2.582 2.668 4.516.023.305.004.613.004.922" style="stroke:none;fill-rule:nonzero;fill:#231f20;fill-opacity:1"/></g><path d="M98.004 3.27c-.129.64-.285 1.261-.367 1.89-.414 3.07-.801 6.145-1.219 9.215-.113.824-.313 1.637-.484 2.527-1.356.094-2.653.047-4.063.035.8-5.62 1.676-11.148 2.5-16.757.3-.04.598-.114.895-.114 3.043.016 6.09.032 9.132.063 2.278.027 3.637 1.398 4.317 3.453.808 2.457.023 5.152-1.988 6.61-.668.488-1.473.785-2.215 1.167-.149.075-.301.133-.575.25.598.434 1.204.602 1.774.82.57.22 1.156.395 1.777.606-.187 1.274-.375 2.531-.574 3.871-.523-.054-.992-.066-1.445-.16-1.73-.351-3.406-.879-4.989-1.672a8 8 0 0 1-.722-.422c-.738-.464-1.067-1.086-.871-1.984.168-.79.246-1.602.367-2.398.023-.16.074-.317.133-.551.578 0 1.136-.047 1.683.008 2.012.214 4.09-2.59 3.223-4.707-.398-.965-1.094-1.672-2.145-1.805-1.324-.164-2.668-.242-4.144.055M137.48 11.098h3.004c.239-1.493-.785-5.082-1.8-6.297-.22.25-.477.465-.633.738-.637 1.113-1.324 2.207-1.844 3.375-1.11 2.5-2.129 5.043-3.184 7.566-.054.13-.113.254-.191.422h-4.398c.09-.347.136-.648.242-.922 1.789-4.816 4.058-9.378 7.054-13.562.387-.547.79-1.082 1.192-1.621.375-.504.86-.77 1.504-.758 1.14.02 2.281.016 3.441.027.149.325.266.57.367.825 1.528 3.922 2.524 7.98 3.145 12.132.187 1.266.328 2.543.184 3.88h-4.336a689 689 0 0 1-.168-2.536h-4.836c.289-1.129.738-2.14 1.257-3.27M111.66.066c4.082-.011 8.063 0 12.153-.004-.086 1.043-.168 2-.254 3.028-.368.035-.696.098-1.02.098-1.926-.004-3.852-.024-5.781-.036-.387-.004-.77 0-1.235 0-.062.809-.125 1.524-.191 2.348 2.113.059 4.164.008 6.281.047.024.863-.187 1.637-.312 2.437-.692.282-1.395.168-2.082.164-1.114-.007-2.23-.043-3.348-.046-.3-.004-.601.066-.933.109a63 63 0 0 0-.91 5.766h8.058c.144.949-.121 1.89-.164 2.835-.625.176-10.961.247-12.66.083.043-.508.062-1.028.136-1.536.59-3.976 1.192-7.945 1.786-11.921.16-1.07.304-2.145.476-3.372M154.363.14l-2.25 16.684c-.633.16-3.3.192-4.441.055.726-5.57 1.45-11.145 2.176-16.695.656-.149 3.363-.176 4.515-.043" style="stroke:none;fill-rule:nonzero;fill:#231f20;fill-opacity:1"/></svg>