<?xml version="1.0" encoding="UTF-8"?>
<svg xmlns="http://www.w3.org/2000/svg" xmlns:xlink="http://www.w3.org/1999/xlink" width="176pt" height="17.09pt" viewBox="0 0 176 17.09" version="1.1">
<defs>
<clipPath id="clip1">
  <path d="M 72 0 L 92 0 L 92 17.089844 L 72 17.089844 Z M 72 0 "/>
</clipPath>
</defs>
<g id="surface1">
<path style=" stroke:none;fill-rule:nonzero;fill:rgb(13.729858%,12.159729%,12.548828%);fill-opacity:1;" d="M 0 16.441406 C 0.101562 16.015625 0.230469 15.597656 0.296875 15.164062 C 1.050781 10.308594 1.792969 5.453125 2.542969 0.597656 C 2.5625 0.464844 2.617188 0.335938 2.652344 0.222656 C 3.25 0.0273438 5.988281 -0.015625 7.0625 0.15625 C 6.9375 1.300781 6.8125 2.453125 6.671875 3.75 C 7.125 3.457031 7.453125 3.257812 7.769531 3.035156 C 8.914062 2.234375 10.0625 1.4375 11.1875 0.613281 C 11.636719 0.285156 12.105469 0.0664062 12.652344 0.0703125 C 14.382812 0.0820312 16.109375 0.113281 17.914062 0.140625 C 17.789062 0.5 17.523438 0.640625 17.304688 0.8125 C 15.761719 2.015625 14.214844 3.210938 12.667969 4.410156 C 12.515625 4.53125 12.371094 4.660156 12.152344 4.839844 C 12.261719 5.113281 12.359375 5.394531 12.484375 5.664062 C 13.632812 8.085938 14.792969 10.503906 15.664062 13.046875 C 16.007812 14.046875 16.242188 15.085938 16.511719 16.109375 C 16.574219 16.34375 16.578125 16.597656 16.617188 16.90625 C 14.984375 16.90625 13.40625 16.90625 11.722656 16.90625 C 10.769531 13.472656 9.519531 10.121094 7.632812 7.007812 C 7.433594 7.078125 7.292969 7.101562 7.179688 7.167969 C 6.820312 7.378906 6.472656 7.605469 6.078125 7.855469 C 5.613281 10.855469 5.148438 13.855469 4.671875 16.910156 C 3.0625 17.007812 1.53125 16.964844 0 16.945312 C 0 16.777344 0 16.609375 0 16.441406 "/>
<path style=" stroke:none;fill-rule:nonzero;fill:rgb(13.729858%,12.159729%,12.548828%);fill-opacity:1;" d="M 38.628906 5.402344 C 38.027344 9.320312 37.453125 13.066406 36.882812 16.800781 C 36.269531 16.964844 19.699219 17.035156 18.492188 16.878906 C 18.324219 16.078125 18.558594 15.289062 18.671875 14.503906 C 19.203125 10.804688 19.765625 7.105469 20.320312 3.40625 C 20.476562 2.359375 20.640625 1.3125 20.800781 0.277344 C 21.765625 -0.0195312 30.878906 -0.0976562 32.851562 0.183594 C 32.824219 1.140625 32.597656 2.078125 32.46875 3.109375 C 30.089844 3.210938 27.726562 3.105469 25.265625 3.195312 C 25.160156 3.9375 25.058594 4.664062 24.945312 5.492188 C 26.863281 5.492188 28.695312 5.492188 30.617188 5.492188 C 30.480469 6.429688 30.359375 7.269531 30.230469 8.136719 C 28.207031 8.136719 26.261719 8.136719 24.226562 8.136719 C 23.882812 10.042969 23.542969 11.917969 23.195312 13.855469 C 26.640625 13.855469 29.980469 13.855469 33.433594 13.855469 C 33.683594 12.347656 33.941406 10.820312 34.1875 9.289062 C 34.433594 7.773438 34.652344 6.253906 34.90625 4.738281 C 35.164062 3.210938 35.324219 1.660156 35.664062 0.0859375 C 36.875 0.0390625 37.984375 -0.113281 39.082031 0.148438 C 39.453125 0.234375 39.808594 0.4375 40.132812 0.648438 C 41.917969 1.804688 43.578125 3.125 45.109375 4.605469 C 45.464844 4.945312 45.839844 5.269531 46.285156 5.675781 C 46.601562 4.6875 46.628906 3.769531 46.785156 2.882812 C 46.945312 1.980469 47.066406 1.070312 47.214844 0.0742188 C 48.359375 0.0507812 49.464844 0.0585938 50.675781 0.0742188 C 50.597656 1.984375 50.277344 3.8125 50.078125 5.65625 C 49.875 7.542969 49.640625 9.425781 49.410156 11.308594 C 49.183594 13.160156 48.949219 15.007812 48.714844 16.898438 C 47.398438 16.898438 46.152344 16.898438 44.84375 16.898438 C 44.84375 16.464844 44.804688 16.023438 44.851562 15.59375 C 44.941406 14.789062 45.054688 13.988281 45.199219 13.191406 C 45.375 12.234375 45.171875 11.359375 44.71875 10.53125 C 44.171875 9.535156 43.421875 8.707031 42.542969 8.003906 C 41.648438 7.292969 40.726562 6.613281 39.792969 5.953125 C 39.488281 5.734375 39.105469 5.621094 38.628906 5.402344 "/>
<path style=" stroke:none;fill-rule:nonzero;fill:rgb(13.729858%,12.159729%,12.548828%);fill-opacity:1;" d="M 61.480469 6.746094 C 62.070312 6.074219 62.566406 5.511719 63.058594 4.945312 C 64.523438 3.277344 66.164062 1.816406 68.007812 0.574219 C 68.5625 0.199219 69.148438 0.015625 69.820312 0.046875 C 70.597656 0.0859375 71.378906 0.0976562 72.269531 0.121094 C 71.46875 5.75 70.679688 11.3125 69.882812 16.910156 C 68.460938 16.910156 67.105469 16.910156 65.660156 16.910156 C 65.695312 16.433594 65.703125 15.96875 65.773438 15.511719 C 66.121094 13.195312 66.488281 10.878906 66.84375 8.5625 C 66.917969 8.074219 67.070312 7.558594 66.511719 7.21875 C 65.933594 7.25 65.601562 7.636719 65.28125 8.019531 C 63.652344 9.945312 62.191406 11.988281 61.066406 14.253906 C 61.042969 14.300781 61.003906 14.34375 60.949219 14.414062 C 60.476562 14.414062 59.988281 14.414062 59.445312 14.414062 C 58.746094 11.585938 57.78125 8.898438 55.910156 6.402344 C 55.761719 7.132812 55.617188 7.679688 55.539062 8.242188 C 55.1875 10.871094 54.855469 13.5 54.515625 16.132812 C 54.480469 16.378906 54.417969 16.617188 54.351562 16.949219 C 53.253906 16.976562 52.179688 16.960938 51.046875 16.9375 C 51.738281 11.292969 52.425781 5.738281 53.113281 0.152344 C 54.363281 0.00390625 55.53125 -0.0351562 56.691406 0.140625 C 56.992188 0.1875 57.308594 0.40625 57.542969 0.625 C 58.902344 1.898438 60.027344 3.34375 60.742188 5.085938 C 60.953125 5.597656 61.195312 6.101562 61.480469 6.746094 "/>
<path style=" stroke:none;fill-rule:nonzero;fill:rgb(13.729858%,12.159729%,12.548828%);fill-opacity:1;" d="M 166.730469 11.441406 C 167.3125 11.851562 167.738281 12.207031 168.214844 12.472656 C 170.597656 13.816406 172.996094 15.140625 175.386719 16.472656 C 175.574219 16.574219 175.75 16.691406 176 16.84375 C 175.839844 16.90625 175.773438 16.957031 175.707031 16.953125 C 173.441406 16.945312 171.175781 17.03125 168.917969 16.898438 C 166.191406 16.738281 163.933594 15.421875 161.925781 13.757812 C 161.800781 12.582031 161.980469 10.933594 162.363281 9.753906 C 162.605469 9.730469 162.894531 9.695312 163.183594 9.675781 C 163.820312 9.640625 164.480469 9.714844 165.089844 9.566406 C 167.28125 9.027344 168.222656 6.480469 167.066406 4.527344 C 166.628906 3.785156 165.96875 3.292969 165.105469 3.257812 C 163.738281 3.207031 162.367188 3.253906 161 3.261719 C 160.949219 3.261719 160.898438 3.308594 160.75 3.382812 C 160.195312 7.828125 159.632812 12.332031 159.058594 16.890625 C 157.574219 16.890625 156.144531 16.890625 154.605469 16.890625 C 155.300781 11.292969 156.042969 5.742188 156.757812 0.152344 C 156.976562 0.117188 157.160156 0.0664062 157.347656 0.0664062 C 160.253906 0.0585938 163.160156 0.0742188 166.066406 0.0585938 C 168.257812 0.0429688 169.96875 0.910156 171.148438 2.757812 C 172.660156 5.117188 172.15625 9.652344 168.300781 10.910156 C 167.832031 11.0625 167.367188 11.226562 166.730469 11.441406 "/>
<g clip-path="url(#clip1)" clip-rule="nonzero">
<path style=" stroke:none;fill-rule:nonzero;fill:rgb(13.729858%,12.159729%,12.548828%);fill-opacity:1;" d="M 86.375 7.0625 C 86.375 6.8125 86.394531 6.558594 86.371094 6.308594 C 86.148438 3.648438 83.675781 1.929688 81.179688 2.714844 C 79.882812 3.125 78.839844 3.898438 78.152344 5.085938 C 77.070312 6.960938 76.691406 9 77.007812 11.128906 C 77.316406 13.1875 79.457031 14.652344 81.515625 14.320312 C 82.863281 14.101562 83.878906 13.363281 84.679688 12.304688 C 85.855469 10.757812 86.300781 8.964844 86.375 7.0625 Z M 91.765625 7.050781 C 91.660156 11.042969 89.785156 13.972656 86.269531 15.78125 C 83.453125 17.230469 80.425781 17.4375 77.386719 16.589844 C 74.132812 15.683594 72.289062 13.214844 72.117188 9.828125 C 72.007812 7.664062 72.46875 5.660156 73.738281 3.886719 C 75.335938 1.671875 77.570312 0.519531 80.238281 0.175781 C 82.078125 -0.0625 83.917969 0.015625 85.746094 0.351562 C 86.9375 0.570312 88.074219 0.949219 89.09375 1.613281 C 90.722656 2.675781 91.601562 4.195312 91.761719 6.128906 C 91.785156 6.433594 91.765625 6.742188 91.765625 7.050781 "/>
</g>
<path style=" stroke:none;fill-rule:nonzero;fill:rgb(13.729858%,12.159729%,12.548828%);fill-opacity:1;" d="M 98.003906 3.269531 C 97.875 3.910156 97.71875 4.53125 97.636719 5.160156 C 97.222656 8.230469 96.835938 11.304688 96.417969 14.375 C 96.304688 15.199219 96.105469 16.011719 95.933594 16.902344 C 94.578125 16.996094 93.28125 16.949219 91.871094 16.9375 C 92.671875 11.316406 93.546875 5.789062 94.371094 0.179688 C 94.671875 0.140625 94.96875 0.0664062 95.265625 0.0664062 C 98.308594 0.0820312 101.355469 0.0976562 104.398438 0.128906 C 106.675781 0.15625 108.035156 1.527344 108.714844 3.582031 C 109.523438 6.039062 108.738281 8.734375 106.726562 10.191406 C 106.058594 10.679688 105.253906 10.976562 104.511719 11.359375 C 104.363281 11.433594 104.210938 11.492188 103.9375 11.609375 C 104.535156 12.042969 105.140625 12.210938 105.710938 12.429688 C 106.28125 12.648438 106.867188 12.824219 107.488281 13.035156 C 107.300781 14.308594 107.113281 15.566406 106.914062 16.90625 C 106.390625 16.851562 105.921875 16.839844 105.46875 16.746094 C 103.738281 16.394531 102.0625 15.867188 100.480469 15.074219 C 100.230469 14.949219 99.992188 14.800781 99.757812 14.652344 C 99.019531 14.1875 98.691406 13.566406 98.886719 12.667969 C 99.054688 11.878906 99.132812 11.066406 99.253906 10.269531 C 99.277344 10.109375 99.328125 9.953125 99.386719 9.71875 C 99.964844 9.71875 100.523438 9.671875 101.070312 9.726562 C 103.082031 9.941406 105.160156 7.136719 104.292969 5.019531 C 103.894531 4.054688 103.199219 3.347656 102.148438 3.214844 C 100.824219 3.050781 99.480469 2.972656 98.003906 3.269531 "/>
<path style=" stroke:none;fill-rule:nonzero;fill:rgb(13.729858%,12.159729%,12.548828%);fill-opacity:1;" d="M 137.480469 11.097656 C 138.507812 11.097656 139.503906 11.097656 140.484375 11.097656 C 140.722656 9.605469 139.699219 6.015625 138.683594 4.800781 C 138.464844 5.050781 138.207031 5.265625 138.050781 5.539062 C 137.414062 6.652344 136.726562 7.746094 136.207031 8.914062 C 135.097656 11.414062 134.078125 13.957031 133.023438 16.480469 C 132.96875 16.609375 132.910156 16.734375 132.832031 16.902344 C 131.394531 16.902344 129.960938 16.902344 128.433594 16.902344 C 128.523438 16.554688 128.570312 16.253906 128.675781 15.980469 C 130.464844 11.164062 132.734375 6.601562 135.730469 2.417969 C 136.117188 1.871094 136.519531 1.335938 136.921875 0.796875 C 137.296875 0.292969 137.78125 0.0273438 138.425781 0.0390625 C 139.566406 0.0585938 140.707031 0.0546875 141.867188 0.0664062 C 142.015625 0.390625 142.132812 0.636719 142.234375 0.890625 C 143.761719 4.8125 144.757812 8.871094 145.378906 13.023438 C 145.566406 14.289062 145.707031 15.566406 145.5625 16.902344 C 144.125 16.902344 142.714844 16.902344 141.226562 16.902344 C 141.167969 16.039062 141.113281 15.21875 141.058594 14.367188 C 139.4375 14.367188 137.859375 14.367188 136.222656 14.367188 C 136.511719 13.238281 136.960938 12.226562 137.480469 11.097656 "/>
<path style=" stroke:none;fill-rule:nonzero;fill:rgb(13.729858%,12.159729%,12.548828%);fill-opacity:1;" d="M 111.660156 0.0664062 C 115.742188 0.0546875 119.722656 0.0664062 123.8125 0.0625 C 123.726562 1.105469 123.644531 2.0625 123.558594 3.089844 C 123.191406 3.125 122.863281 3.1875 122.539062 3.1875 C 120.613281 3.183594 118.6875 3.164062 116.757812 3.152344 C 116.371094 3.148438 115.988281 3.152344 115.523438 3.152344 C 115.460938 3.960938 115.398438 4.675781 115.332031 5.5 C 117.445312 5.558594 119.496094 5.507812 121.613281 5.546875 C 121.636719 6.410156 121.425781 7.183594 121.300781 7.984375 C 120.609375 8.265625 119.90625 8.152344 119.21875 8.148438 C 118.105469 8.140625 116.988281 8.105469 115.871094 8.101562 C 115.570312 8.097656 115.269531 8.167969 114.9375 8.210938 C 114.539062 10.132812 114.246094 12.027344 114.027344 13.976562 C 116.742188 13.976562 119.382812 13.976562 122.085938 13.976562 C 122.230469 14.925781 121.964844 15.867188 121.921875 16.8125 C 121.296875 16.988281 110.960938 17.058594 109.261719 16.894531 C 109.304688 16.386719 109.324219 15.867188 109.398438 15.359375 C 109.988281 11.382812 110.589844 7.414062 111.183594 3.4375 C 111.34375 2.367188 111.488281 1.292969 111.660156 0.0664062 "/>
<path style=" stroke:none;fill-rule:nonzero;fill:rgb(13.729858%,12.159729%,12.548828%);fill-opacity:1;" d="M 154.363281 0.140625 C 153.609375 5.738281 152.859375 11.289062 152.113281 16.824219 C 151.480469 16.984375 148.8125 17.015625 147.671875 16.878906 C 148.398438 11.308594 149.121094 5.734375 149.847656 0.183594 C 150.503906 0.0351562 153.210938 0.0078125 154.363281 0.140625 "/>
</g>
</svg>
