<svg xmlns="http://www.w3.org/2000/svg" width="176pt" height="52.24" viewBox="0 0 176 39.18"><defs><clipPath id="a"><path d="M140 0h36v39.18h-36Zm0 0"/></clipPath></defs><path d="M62.7 1.785h11.71l7.067 13.55L91.55 1.716l10.426.078.207 36.309-15.45.136-.191-13.074L76.512 36.29c-1.696-1.695-7.27-9.086-8.922-10.797v12.582l-4.817.043zM110.777 38.184l-4.082-.09s.164-35.758.192-36.27c.468-.035 14.066-.062 14.066-.062l10.484 14.418.09-14.223 5.692-.031-.094 36.445-15.5-.023-10.89-13.727z" style="stroke:none;fill-rule:nonzero;fill:#313492;fill-opacity:1"/><g clip-path="url(#a)"><path d="M161.719 16.625h14.11c.05.313.148.645.148.973.011 4.832-.004 9.664.023 14.496.004.726-.238 1.238-.766 1.699-2.496 2.191-5.363 3.727-8.578 4.492-1.98.473-4.035.664-6.07.883-.727.078-1.488-.223-2.23-.195-2.817.109-5.481-.559-8.043-1.614-1.68-.691-3.079-1.84-4.38-3.12-3.035-2.989-4.41-6.704-5.09-10.813-.343-2.063-.429-4.133-.187-6.153.356-3 1.403-5.832 2.985-8.441 1.691-2.781 4.03-4.914 6.882-6.371 1.715-.879 3.641-1.402 5.52-1.895a17 17 0 0 1 4.3-.562c1.84.004 3.7.168 5.516.48 1.774.305 3.125.875 3.125.875s-.047 3.543.036 4.055c-.63.488-1.239.277-1.82.227a8 8 0 0 1-1.473-.25c-1.57-.453-3.082-.059-4.555.363-2.27.648-3.832 2.129-4.598 4.379a5.2 5.2 0 0 0-.254 1.617c-.015 6.797-.02 13.59-.004 20.387.004 1.656 1.399 2.703 3.036 2.406 1.808-.328 2.355-1.242 2.363-3.078.02-4.38.008-8.758.004-13.137z" style="stroke:none;fill-rule:nonzero;fill:#313492;fill-opacity:1"/></g><path d="M28.797.004c.539 1.586 1.137 2.937 2.129 4.059.883 1 1.844 1.933 2.758 2.906 1.43 1.511 2.937 2.965 4.254 4.57 2.152 2.625 2.167 6.492.183 9.457-.902 1.344-1.898 2.621-2.809 3.961-.41.605-.789 1.258-1.035 1.941-.363 1.008-.023 2 .883 2.547 1.828 1.102 3.735 1.946 5.938 2.11 1.558.113 3.004-.035 4.425-.645 2.11-.91 4.254-.617 6.391-.129a11 11 0 0 1 1.703.555c.461.191.89.465 1.473.777-.309.25-.477.453-.692.551-1.89.879-3.78 1.703-5.941 1.68-1.008-.012-1.918-.282-2.82-.63-2.703-1.046-5.246-.714-7.66.833-.196.125-.395.246-.57.39-1.458 1.211-3.145 1.387-4.95 1.16a14 14 0 0 1-3.34-.84c-.414-.16-.91-.128-1.367-.128-6.031-.012-12.059.027-18.086-.047-2.16-.023-4.324-.266-6.476-.512-.758-.086-1.485-.465-2.215-.734-.211-.078-.442-.211-.563-.39-.219-.325-.605-.653-.293-1.11.301-.441.742-.348 1.121-.164 1.934.945 3.992 1.023 6.094 1.039 2.168.02 4.332.191 6.7.305-.157-.47-.262-.774-.372-1.098 4.625.727 6.73-.633 9.067-3.484-2.235.714-4.32 1.25-6.582.441.414-.285.793-.55 1.261-.875-1.152-.066-2.254.176-3.3-.605.32-.247.617-.473.921-.704-.043-.03-.097-.101-.156-.101-.957-.05-1.93.152-2.93-.188.278-.757 1.153-.777 1.602-1.543-1.625.508-3.11.297-4.578-.082-.238-.062-.445-.25-.91-.52.836-.26 1.43-.448 2.16-.679-1.914-.129-3.77-.098-4.969-2.027.953-.078 1.805-.192 2.656-.207 1.782-.032 3.43-.664 5.133-1.07.8-.188 1.625-.313 2.442-.438 1.808-.273 3.39.34 4.816 1.367 1.121.809 2.164 1.727 3.227 2.617.382.32.726.692 1.085 1.043.844-.285.665-.91.575-1.414-.168-.949-.442-1.883-.633-2.828-.078-.387-.059-.793-.098-1.41 1.04.695 1.207 1.914 2.453 2.34-1.172-1.434-1.816-2.887-1.918-4.75.418.3.692.5 1.028.742-.02-.168-.004-.3-.055-.406-.484-.996-.82-2.032-1.004-3.383.461.367.742.625 1.055.832.297.203.629.363 1.035.484-1.457-1.73-2.39-3.625-2.316-6.117.742.66 1.335 1.192 2.132 1.899-.472-1.95-1.363-3.54-.945-5.5.606.585 1.125 1.093 1.816 1.77-.242-.84-.406-1.474-.605-2.099-.215-.668-.281-1.328-.082-2.222.543.62.977 1.113 1.59 1.816-.375-1.816-.903-3.39.164-5.113" style="stroke:none;fill-rule:nonzero;fill:#313492;fill-opacity:1"/></svg>