<svg xmlns="http://www.w3.org/2000/svg" width="176pt" height="48.493" viewBox="0 0 176 36.37"><defs><clipPath id="a"><path d="M58 21h48v15.371H58Zm0 0"/></clipPath><clipPath id="b"><path d="M138 21h38v15.371h-38Zm0 0"/></clipPath><clipPath id="c"><path d="M105 21h35v15.371h-35Zm0 0"/></clipPath><clipPath id="d"><path d="M0 0h53v36.371H0Zm0 0"/></clipPath></defs><g clip-path="url(#a)"><path d="M98.074 35.809h7.102v.562H85.082v-.562h5.672V22.316h-.176L79.137 36.371H77.19L65.81 22.316h-.118V35.81h5.555v.562H58.2v-.562h5.664V21.934H58.2v-.559h14.762l8.008 10.258 8.297-10.258h15.863v.559h-7.055z" style="stroke:none;fill-rule:nonzero;fill:#cf1841;fill-opacity:1"/></g><g clip-path="url(#b)"><path d="M149.113 31.387h10.95l-5.278-6.13ZM138.79 36.37v-.55h4.55l13.415-14.446h1.902l12.856 14.445H176v.551h-17.793v-.55h5.84l-3.426-3.887h-12.125l-3.476 3.886h5.726v.551z" style="stroke:none;fill-rule:nonzero;fill:#3777c5;fill-opacity:1"/></g><g clip-path="url(#c)"><path d="M119.86 21.934v6.441c5.683 0 8.027-.336 8.324-2.738h1.66v6.265h-1.66c-.532-2.492-1.926-3.03-8.325-2.965v6.872h7.168c7.696 0 9.352-1.73 10.594-4.266h1.719l-.535 4.828h-33.63v-.562h5.876V21.934h-5.922v-.559h32.73l.356 4.04h-1.656c-1.246-2.157-3.493-2.985-6.508-3.302-1.485-.16-3.2-.18-5.156-.18h-6.266z" style="stroke:none;fill-rule:nonzero;fill:#28805e;fill-opacity:1"/></g><g clip-path="url(#d)"><path d="M24.414 29.809c-.5-.235 0-.957-.07-1.516.07 0 .07-.316.218-.078 0 .078 0 .078-.074.16 0 .082.024.102.075.16.07.078.207.078.207.16 0 .242.078.317 0 .477-.067.238-.282.719-.356.637m-3.293-21.98c.078 0 .078.085.078.163h.57c0-.078 0-.164.067-.164.074 0 .144.164.144.164.22-.164.504 0 .645.156-.426.325-.93 0-1.363 0-.356 0-.785.082-1.145-.156.504-.398 1.082-.398 1.653-.398.64 0 1.214-.157 1.859 0-.79.476-1.649 0-2.508.234m2.149 14.655-.215.239c-.07 0-.14 0-.14-.082 0-.235 0-.555.214-.555q.03-.011.058-.016l-.058-.062.07-.082v.144c.164 0 .235.239.07.414m-.356 1.832c-.074-.082-.148-.082-.148-.156.148-.406-.141-.879.289-1.117.144.395.074.875-.14 1.273m-.289 3.18c-.14-.555-.324-1.312.074-1.75.067-.078.215 0 .215.078-.074.555 0 1.196-.289 1.672m-.426-9.07c0-.164.285-.238.356-.082.07.16 0 .472-.145.472-.14.086-.21-.234-.21-.39m-.648-2.23h.144c0 .074.297.238.075.238-.075 0-.22.078-.286-.082 0-.082 0-.157.067-.157m.789-2.712c0 .086.285.164.07.243-.21 0-.43-.079-.574-.157.144-.168.363-.086.504-.086m-.07-2.546c-.145-.079-.29-.395-.07-.555.07 0 .163.004.355.074.21.086.36 0 .43.242.07.16-.07.16-.145.239-.215.078-.43.078-.57 0m-.5 3.187c-.075 0-.075-.082-.075-.156.215-.32.645-.164.93-.164.074 0 .074.078.14.078-.28.32-.64.242-.995.242m.785 1.75c-.07-.16-.356-.238-.285-.48.07-.079.14 0 .14.085 0-.085.074-.085.145-.085.144.085.21.242.144.398 0 0-.074.082-.144.082m.144-.64c-.144.081-.289.16-.43 0q.213-.236.43 0m-.644 1.515c0 .078 0 .156-.075.156-.144 0-.359.086-.43-.078 0-.156.22-.156.36-.156.07 0 .07.078.145.078m-.075-1.434h-.144c0-.082-.285-.156-.066-.238-.149-.156-.149-.398 0-.473.14 0 .285-.082.43.075.07.082.284.16.284.242-.144.238-.504-.082-.714.156.14 0 .355-.082.5.082 0 .074 0 .156-.07.156Zm.145 1.036c.074-.082.215-.082.285-.082 0 .082.262.156.102.23.07.031.113.082.113.172 0 .156-.215.234-.355.234-.145 0-.215-.312 0-.394a.2.2 0 0 1 .085-.032.6.6 0 0 1-.23-.128m-.355-5.73h.14l-.074.077Zm.285 1.91c0 .155-.36.238-.57.155.066-.078.136-.234.285-.234.14 0 .355-.086.285.078m-.57 4.698c0-.16.308-.289.425-.16.07.082 0 .239-.074.239h.434c.07 0 .496.078.285.164-.215.156-.645-.086-.86.156 0-.156-.21 0-.21-.156 0-.075 0-.145.042-.16q-.042-.018-.043-.083m-.223 2.07c-.063-.081 0-.163.074-.163.148 0 .36-.075.5.082 0 0 .074-.082.144-.082.075.082.145.164.22.242-.22.238-.716.156-.938-.078m.222.634c.067-.079.067-.239.211-.16.075 0 .125.105.075.16-.075.082-.075.164-.149.164-.07 0-.07-.082-.137-.164m.286 3.82c-.22-.55-.075-1.192-.22-1.828 0-.153.22-.078.286-.078.144 0 .289.16.289.238-.07.555.074 1.273-.355 1.668m-.793-9.55c0-.079-.211-.079-.07-.235.144-.164.355-.086.355.074 0 .082-.14.242-.285.16m0 1.03c-.141.082-.211-.074-.282-.156 0-.082.14-.082.211-.082s.07.082.145.082c0 .082 0 .156-.074.156m-.5 10.512c-.067 0-.067-.078-.067-.156s.067-.078.067-.16c.144.082.144.238 0 .316m-.211-8.996c-.149.078-.43-.316-.149-.48 0 0 .117.007.149.082.066.16.144.398 0 .398m-.29 6.926c-.14-.153-.285-.395-.285-.633 0-.078.145-.078.215-.078s.04.082.07.152c.07.164.141.406 0 .559m-.355-1.035c0-.157.14-.157.285 0-.144.082-.285.16-.285 0m-.293-1.672.078.078c.356.242.43.8.067.8-.145 0-.356-.558-.145-.878m-.21-5.414c.144-.075.402.082.429.16.074.238-.219 0-.356.078 0-.078-.289-.156-.074-.238m-.075 11.785c-.07.156-.355.238-.422.082 0-.16.067-.324.137-.48-.785.078-1.5 0-2.29.156-.433.164-.945.308-1.218 0-.07-.078-.29-.157-.07-.235.718-.238 1.644.399 2.078-.398.57.16 1.144-.16 1.644.16.215.078.215.473.141.715m-.07 1.988c-.141.32-.426.082-.641.16-.215.086-.645.285-.645 0 0-.078.07-.238.141-.238.215 0 .356-.078.504-.156.215 0 .426-.157.64 0Zm-4.297-5.168c-.07-.168-.285-.086-.356-.086-.648-.238-1.289.086-1.863.242-.215.075-.645.239-.719 0-.07-.324.364-.156.578-.398.141-.082.43.074.57 0 .716-.316 1.434-.316 2.153-.164.711.082 1.5.082 2.145.562-.434.16-.786.16-1.22.16-.214 0-.28-.316-.495-.402-.29 0-.574-.082-.793.086m-.57 1.188c-.504.242-1.075.164-1.649.164-.855-.164-1.574.234-2.434.48-.07 0-.14-.168-.14-.168.215-.312.574-.234.86-.394.07-.082-.286-.082-.286-.082.355-.317.785-.078 1.145-.157l-.075-.16c0-.16.211-.16.286-.238.355-.074.718.078 1.074-.074.144-.164.285-.403.5-.485h.433l.07.157c-.144.242-.359.242-.574.402.07 0 .07.078.07.16.145 0 .286 0 .434-.16.211-.074.285.16.43.316.07.082-.074.16-.145.239m-2.293 1.836c-.075 0-.075.156-.075.238-.285.234-.707.156-.925 0-.286-.16-.504.234-.79-.082.86-.32 1.79-.399 2.649-.715.426-.16.93-.246 1.433 0-.718.395-1.507.559-2.293.559m-2.649-.48c-.14 0-.14-.24-.215-.4 0-.238.32-.331.43-.238.285.239.504.079.789.079.289.082.645-.235.93-.32.144 0 .289.085.43.167.14 0 .355-.168.503 0-.863.711-1.863.555-2.867.711m2.938-5.97c-.145.075-.22.157-.364.157-.07.64-.777.316-1.14.64-.215.074-.215-.242-.36-.324.219-.16.504-.078.793-.16.137 0 .067-.238.067-.238-.5-.157-1 .16-1.5 0-.078-.075-.29-.239-.145-.239 1.074-.238 2.149-.316 3.219 0v.164c-.215 0-.43-.082-.57 0m-1.793-.8 4.082-.239c-.36-.238-.79 0-1.145-.078 0 0-.285-.16-.074-.238 1.004-.317 2.082-.121 3.148-.317.43-.082.864.075 1.004.473.145.32-.281.16-.355.16-.715.078-1.5-.238-2.145.16.426-.082.856-.082 1.285.079 0 0 .29.164.075.164-.86.156-1.649.316-2.438.316-.36.078-.785-.082-1.144-.16-.934-.078-1.938-.078-2.864-.078.145-.242.43-.242.57-.242m.433-1.989c.14-.078.219.078.29.16 0 .082 0 .239-.071.239-.219 0-.434.082-.652-.082.148-.075.289-.239.433-.317m.14-2.152c.216-.078.352 0 .571 0 .36 0 .649-.156 1.004-.078.074.078.145.238.29.32-.145.235-.43 0-.645.078v.239c-.5.32-.934-.157-1.36-.399.07-.078.07-.16.14-.16m2.29-.715-.074.082c.363.32.793-.238 1.078.074 0 .082-.18.012-.211.082-.293.637-1.078.399-1.574.239-.223-.075-.508-.075-.723-.239.434-.238 1.004-.476 1.504-.238m.074-2.23v.16c-.36.156-.789.32-1.215.082.36-.242.79-.082 1.215-.242m1.934 5.812c-.426.242-1.075.242-1.578.082.148-.316.347-.238.574-.238.36 0 .719-.16 1.004.156m.144-2.226c-.144.16-.285.16-.5.16-.219 0-.433-.082-.57-.16a1.23 1.23 0 0 1 1.07 0m.145-6.215a3.4 3.4 0 0 1 1.789 0c0-.078 0-.16.066-.16.293 0 .719-.235.86.16.074.238-.211.164-.282.164-1.152.16-2.293.16-3.437.074.289-.398.64-.156 1.004-.238m.64-1.672c.29-.074.575 0 .86.082-.219.156-.43 0-.649.156.364 0 .723-.238 1.004.164-.5.239-1.07.239-1.644.082-.211 0-.356-.082-.575.078-.066-.242-.144-.324-.351-.398.426-.238.934-.047 1.355-.164m.29-1.59h.285c.066 0 .066.078.066.156-.137.16-.43.254-.43 0 0-.078.078-.156.078-.156m.57-.16c.215 0 .355.062.574 0 .285-.078.5 0 .715.078-.215.082-.285.238-.43.32-.285.16-.644-.082-.926-.238 0-.082 0-.16.067-.16m1.504.64c.074 0 .074.079.148.079-.148.156-.289.156-.363 0 0-.079.144-.079.215-.079m-.07 7.086c-.145 0-.071-.32-.22-.398.22-.156.458-.184.649-.082.14.082.36.082.496.242-.21.395-.64.074-.926.238m-1.145 2.383c.285-.078.656-.539.86-.312.066.078.284-.082.355 0 .148.234.359.156.57.312.074.086 0 .164-.07.164-.57 0-1.145.082-1.715-.164m1.644 8.762c0 .078.07.242-.07.324-.074 0-.145-.082-.285-.082-.074 0-.074-.086-.145-.164.145-.078.356-.078.5-.078m-1.144-.637c.285 0 .715-.078 1 0 .144.078.215.399.074.559-.43-.559-1.14-.242-1.789-.242-.14 0-.219-.078-.293-.157.293-.238.719-.16 1.008-.16m1-1.508c.074.079.144.313 0 .313-.285.082-.715 0-.715-.234 0-.32.535-.29.715-.079m-.785-1.117c.21.078.632.07.574.395-.074.402-.574.242-.86 0 .07-.16.141-.395.286-.395m.648-4.062c-.219.082-.363.16-.578 0 .215-.157.36-.157.578 0m-.648-.32c-.07 0-.215.081-.285-.079 0-.078 0-.156.07-.156s.094-.059.144 0c.07.078.282.156.07.234m.21 6.609c-.21.398-.64-.078-.859.238-.14-.238-.422.082-.574-.152.363-.328 1.008-.164 1.434-.086m-.859-2.07c0 .078.293.078.074.238-.14.078-.355-.098-.355.078v.164c-.293.074-.723.238-.934-.078.36-.402.793-.324 1.215-.402m.074-2.387c-.214.156-.43.316-.714.316-.43 0-.786.317-1.215.16.21-.398.64-.16.93-.398.214-.238.644-.156 1-.078m-1.433-4.86c.289-.238.719-.156 1.078 0-.36.32-.79.164-1.078 0m.144 1.59c-.21.164-.347.324-.57.324h-.215c-.074 0-.144-.078-.074-.16.219-.242.648-.398.86-.164m-1.148-1.984c.144-.317.578-.16.937 0-.148.156-.289.238-.359.394-.215.079-.644-.238-.578-.394m2.867-.719c0 .082-.086.121-.14.082-.22-.16-.504-.242-.645-.48 0-.078 0-.157.07-.157.285 0 .645.235.715.555m-1.004-2.148c.145.078 0 .312.078.398.141.078.407-.043.496.156.07.16-.14.16-.214.239-.282-.16-.715.242-.864 0-.21-.317.149-.078.293-.239-.648-.242-1.289-.078-1.937-.242.722-.078 1.433-.312 2.148-.312m-2.219-1.434c.575-.238 1.215-.078 1.793.156-.078.317-.363.239-.648.239-.352 0-.645.078-.996-.079.14-.16.351-.078.57-.16-.219-.078-.5.082-.719-.156m2.297 7.723c-.078 0-.218-.082-.218-.157 0-.164.14-.32.285-.242.144.16.289.399.43.637 0 .078 0 .16-.075.16-.14 0-.21-.082-.281-.16v-.156c0-.082-.074-.082-.14-.082m-3.941 2.945c-.14 0-.43.082-.43-.082.07-.398.567-.238.856-.316.433-.157.773-.082 1.289-.082.078 0 .078.082.148.082-.574.316-1.222.156-1.863.398m3.004.953c-.426.399-1.004.32-1.36 0 .149-.156.356 0 .5.086.364.078.575-.402.86-.086m-.465-.805c-.387.2-.832.102-1.133-.16.145-.164.363 0 .504.078.285.06.477-.226.691-.187.376-.164.766-.242 1.188-.36.219 0 .363.16.508.32-.61.071-1.164.364-1.758.31m3.906-10.894c-.078.078-.144.234-.215.234-.289 0-.503.239-.718.317-.07 0-.07-.156-.215-.156-.43 0-.934.078-1.356-.239.356-.316.785 0 1.215-.156.356-.16.856-.242 1.29 0m.356 11.785c-.07 0-.07-.086-.07-.164s.07-.078.07-.156c.144.078.144.234 0 .32m.074-7.969c0-.074 0-.156.07-.156s.04.082.14.082c.071 0 .071.074.145.074-.144.164-.214.164-.355 0m.93-1.03c.07.073 0 .155-.07.155-.22 0-.364 0-.579-.156l-.14.156c-.141-.082-.286-.234-.286-.394 0-.164.223-.121.356-.082.285.082.504.156.719.32m-.575-4.067c0-.075.22-.153.22 0 0 .086-.22.086-.22 0m.786 3.508c0 .078-.07.156-.07.156-.212-.156-.641-.078-.575-.395 0-.164.219-.242.434-.242.21 0 .285.164.355.242 0 .156-.215.078-.285.078zm-.141-6.368c.648-.082 1.219-.082 1.789.157-.07.238-.285.16-.426.16-.219.078-.43.156-.578.078-.21-.16-.36-.238-.57-.238 0 .16-.074.238-.145.238-.496.078-1 .078-1.433-.16.433-.16.937-.188 1.363-.235m2.363-.48h.14c.075 0 .29-.156.29 0-.074.16-.29.398-.5.16 0-.086 0-.16.07-.16m.934 0c.07 0 .07.074.07.16-.219.238-.574.477-.863.238.148-.238.36-.16.504-.324.07-.074.215.086.289-.074m1 8.601c.074.082 0 .157-.07.157h-.575c-.074 0-.074-.075-.144-.075.144-.246.574-.246.789-.082m-.215-2.628c.215 0 .43 0 .57.16-.207.156-.5.398-.785.312-.07 0-.07-.078-.07-.156.07-.078.07-.078.137-.156-.067 0-.282.078-.282-.082.075-.16.282-.078.43-.078m.64-5.02c.079 0 .149-.078.22-.156.07 0 .144.078.07.156-.29.238-.785.32-1.145.16.215-.316.567-.16.856-.16m-.351-.473c.074.075.14.157 0 .235-.145 0-.36.082-.36-.078-.077-.157.247-.286.36-.157m.57-.164c.07 0 .164-.02.211.082.078.157.364 0 .43.157-.207.082-.57.242-.781.082.14-.082 0-.239.14-.32m-.14 12.024-.078.082h-.141c-.07-.082 0-.157.07-.157s.149 0 .149.075m.351-1.668c.078.078.223.078.293.234 0 .078 0 .164-.07.164-.223.078-.512.211-.574 0-.078-.242.21-.398.351-.398m.364-4.54c.14 0 .351 0 .289.157-.075.476-.72.242-1.004.078.21-.078.43-.234.715-.234m0-2.706c.714 0 1.433-.239 2.078.234.066.082 0 .16-.075.16-.359 0-.785-.312-1.148-.078-.426.242-.996 0-1.5 0-.07 0-.07-.16-.07-.234.21-.242.496-.082.715-.082m2.218 2.148c.29.078.575.156.79.316-.075.083-.075.16-.145.16-.356-.077-.785.083-1.074-.242.14-.078.21-.293.43-.234m1.075 1.274c.863.156 1.648-.082 2.437.156-.219.402-.578 0-.863.164-.14.074-.36.238-.5.16-.36-.242-.79-.16-1.145-.324-.074-.078 0-.156.07-.156m2.789 1.113c0 .086 0 .16-.067.16-.433-.238-.863.242-1.289-.074.285-.242.633-.242 1.004-.242.137 0 .285 0 .352.156m.504-.633c-.07 0-.141 0-.141-.086.21-.156.5-.156.715 0-.07.164-.215.086-.364.086.579.32 1.22-.242 1.727.078-.508.156-1.008.192-1.578.32-.36.079-.5-.246-.79-.32.15-.238.29.074.43-.078m.933 5.887c0 .082 0 .164-.07.164-.719 0-1.504.156-2.223-.238.215-.247.574.074.79-.247.14-.156.39.07.64 0 .289-.074.719-.074.863.32m-2.652 1.597c-.14 0-.43.075-.574-.164.648-.156 1.289-.156 1.933-.156.219 0 .504 0 .719.156-.64.559-1.363.164-2.078.164m-1.211-.636c-.078-.164.078-.403.5-.403.066 0 .066.078.137.078l-.07.082c.284.079.644 0 .929.32.074.079 0 .157-.074.157-.5 0-1.215.238-1.422-.234m-.223-2.153c-.07-.078 0-.156.078-.156.067 0 .082-.047.145 0 .281.234.71-.082 1.004.234 0 .082 0 .165-.082.165-.356-.165-.785.074-1.145-.243m-.351-.875c-.364.239-.793.317-1.227.16.223-.078.434-.078.582-.324.211.164.426 0 .645.164m.066-2.867c0-.078.145-.078.215-.078v.16c-.07 0-.215 0-.215-.082m.86 1.512c.148.078.5.078.43.238-.216.48-.927 0-1.356-.16.28-.156.668-.219.925-.078m.214-1.43c.356-.16.73-.273 1.078-.082.141.082.282-.078.43.082-.43.238-1.004.238-1.508 0m.856 1.828c0-.078.148-.078.222-.078.07 0 .567 0 .352.235-.14.082-.426 0-.574-.157m.074 3.422c0-.078.074-.078.148-.156 0 .078.07.066.141.078.426.078.863.078 1.215.316-.281.082-.211.16-.352.403-.36-.242-.933-.078-1.226-.48 0-.079.148-.079.222-.079-.074 0-.148 0-.148-.082m-1.145-6.133c.36-.152 1.004-.238 1.07.168.075.078-.269.114-.417.157-.575.156-1.149.316-1.727 0 .36-.079.723-.243 1.152-.243Zm-3.367 1.993c.074-.16.219-.118.36-.079.285.079.574-.156.789.079-.286.32-1.22.64-1.149 0m2.653 6.136c0-.078-.07-.078-.145-.078 0 .078 0 .152-.066.152-.22 0-.364-.074-.575-.152-.578-.082-1.152.078-1.652-.246.145-.637.719-.078 1.148-.316-.859-.399-1.863.48-2.578-.157-.07-.082.29-.082.434-.164-.145-.156-.277-.078-.434-.078-.07 0-.07-.078-.14-.078.351-.398.715-.64 1.144-.879.211-.156.715-.078 1.004.238-.289.16-.719-.078-.933.325 0 .078 0 .234.07.234.219 0 .43-.078.644-.078.43.078.715.398 1.145.238.148-.078.289-.316.504-.238.219.078.219.398 0 .48h-.356c.07.555.786.075 1.004.555.067.164-.148.164-.218.242m.218 1.11c.067 0 .067.082.145.16 0 .078 0 .164-.078.164-.145 0-.285-.164-.43-.086-.355.086-.71-.078-1.004.164.293.074.649-.078.938.074-.645.32-1.438.559-2.082.406a1 1 0 0 0-.153-.043c.024.032.043.07.082.122-.215.152-.36.316-.64.316-.075 0-.075.074-.149.074s-.074-.074-.074-.156c.133-.285.375-.313.637-.375-.352-.027-.715.05-.989-.258.352-.402.856-.402 1.286-.238-.07.078-.07.078-.145.152.29-.152.719.086.863-.238.07-.078-.285-.078-.285-.238 0-.078.211-.157.356-.157.289 0 .648.157.93.157.288.082.503 0 .792 0m.352 1.195c0 .156-.207 0-.285.156-.067.082-.145 0-.145-.074.078-.082.13-.164.29-.164.07 0 .14.082.14.082m0 3.586c-.285-.082-.57.074-.781 0-.075-.082-.22 0-.22-.16 0-.078 0-.078.071-.164.074-.078.098.168.215.086.215-.164.574-.086.79.078.07.078 0 .16-.075.16m.504 1.988c-.282.078-.504.164-.79.078.145-.078.286-.316.43-.238.149.078.286 0 .36.16m0-3.418c.21 0 .426-.066.644 0 .29.074.64 0 .856.235.078.078 0 .152-.067.152-.359-.074-.722.086-1.074-.074-.148 0-.289 0-.433-.16-.07-.079 0-.153.074-.153m1.578-3.984c.21.156.43.234.64.234.07 0 .145.086.145.164-.074.157-.223.114-.285.078-.29-.156-.645.078-.863-.242.148-.078.218-.316.363-.234m1.215 1.515c.07.153-.215.153-.43.153-.285 0-.648.078-.863-.153.437-.164 1.144-.48 1.293 0m.574 1.989c-.434.156-1.078.398-1.36-.082-.148-.16.22-.27.282-.239.355.157.793-.082 1.078.32m-4.223 3.976h-.43c0 .086 0 .16-.074.16-.289-.074-.57 0-.789-.16.22-.476.645-.238 1.075-.238.07 0 .218-.078.285.078 0 .082 0 .16-.067.16m-1.656-1.91c0-.082 0-.156.074-.156s.074-.016.149 0c.5.074 1.004.074 1.5.32-.067.078-.145.235-.215.235-.43-.157-.785-.079-1.145-.235-.074 0-.289 0-.363-.164m-.785-1.988c-.356 0-.719.078-1.07 0 .14-.32.5-.16.64-.399.215.157.504-.082.645.157.07.164-.14.164-.215.242m-2.004-3.262c-.137-.086-.332-.293-.137-.402.137-.078.356 0 .496 0 .504-.238 1.004-.238 1.504-.238.07 0 .07.085.14.16 0 .078 0 .16-.07.16-.43.156-.859-.16-1.218.078-.211.078-.426.242-.715.242m.289 4.05c0 .087-.098.028-.148.087-.211.238-.352.719-.711.476.215-.316.433-.636.71-.796.079 0 .149 0 .149.082zm-1.004-1.187c.067-.32.43-.398.785-.32.07 0 .07.082.07.16-.07.16-.242.196-.351.317-.219.242-.437.718-.719.644-.285-.082.075-.48.215-.8m0-1.515c-.07.078-.14.16-.215 0 0-.153 0-.395.145-.473.137 0 .215.32.07.473m-.289-5.653v-.156c.219 0 .504-.238.719 0-.215.238-.43.238-.719.156m1.223 9.875c-.149 0-.29.079-.356-.078 0 .078 0 .157-.074.157h-.645c-.074 0-.074-.157-.074-.235a.5.5 0 0 1 .36-.164c.215 0 .285.078.433.242.137-.078.278-.164.426-.078 0 .078-.07.156-.07.156M8.59 21.047c0 .082 0 .16-.07.16-.57-.078-1.075.246-1.645 0 .14-.078.21-.16.355-.078v-.16c-.285.078-.57 0-.855 0 0 .16-.074.16-.145.238-.144.082-.144-.078-.218-.16 0 .082 0 .16-.067.16-.074-.16-.144.082-.215 0-.074-.078-.144-.078-.074-.16.504-.313 1.004-.477 1.574-.395.075 0 .075.082.075.157.5 0 .925-.239 1.43 0-.07.082-.145.082-.215.082-.07.078 0 .078.07.156m0 1.676c-.14 0-.43.078-.43-.082-.07-.157.29-.235.43-.078zm-.57.394c-.145.406-.715.086-1.075-.074.07-.164.285-.242.36-.164.285 0 .797.012.715.238M4.367 20.81c-.144-.395.79-.395 1.219-.395.07 0 .07.078.144.078-.359.399-1.148.797-1.363.317m31.582-4.934c.067 0 .082.266.211.16.29-.242.574 0 .863.078 0 .082.282.157.07.239q-.538.123-1.077 0c-.141-.082-.356-.399-.067-.477m1.574 6.21c.497.08 1.07 0 1.575.321.07.078 0 .157-.075.157-.285 0-.53.062-.789-.079-.285-.156-.57-.078-.859-.242.07-.078.07-.156.148-.156m-2.937 5.892c.14.078.355.078.504.238-.215.078-.578.32-.79.078-.073-.156.286 0 .212-.156-.067-.082-.285.078-.285-.082.074-.157.23-.149.359-.078m1.367 7.375s-.223-.004-.656 0c-1.531 0 .98.023-3.504.062-1.496-.05-2.598-.129-2.988-.246-.88-.262-1.739-.418-2.524-.984-.148-.079-.195-.106-.34-.18-.07 0-.164-.133-.234-.133-.5-.398-.937-.8-1.004-1.434-.11-.785.156-1.527.629-2.117h.004q.226-.283.512-.511c.218-.16.504-.082.718-.16.137 0 .215-.477.5-.399.286.16.075.477-.144.64v.239c.133.047.281.004.43.023-.141.23-.27.235-.36.375 0 .078.29.078.29.157-.216.238-.641.082-.93.238v.16c.714-.078 1.503-.637 2.218-.234 0 0-.215.074-.363.156.363.234.723 0 1.078.078.43.156.86 0 1.29.078-.067-.156-.286-.078-.36-.238.574-.156 1.148.16 1.719.316a1.14 1.14 0 0 0-.856-.39c-.219 0-.433-.243-.57-.48v-.048c0-.066.012-.11.066-.11.18-.046.38.036.574.11.184.067.36.121.504.047.266-.148.473.121.73-.047h.005q.03-.018.047-.03c-.282-.325-.782 0-1.07-.4.288-.163.57 0 .855-.242.148-.16.508-.16.789-.16.355-.078.719.086 1.078.086.07 0 .215.153.281.153.29 0 .574.32.86.164 0-.082-.137-.164-.211-.243-.22 0-.504 0-.649-.238 0-.082 0-.16.078-.16.352 0 .645.398 1.004.238-.574-.394-1.222-.16-1.797-.476-.355-.239-.855-.317-1.144-.719-.074.164-.211.082-.29.082-.066 0-.066-.16-.136-.16-.36 0-.789.078-.789-.238 0-.32.43-.235.64-.235.794-.164 1.43.313 2.223.395.07 0 .07.156.07.238 0 .16-.14.082-.214.082.355.078.785.078 1.144.078a5.4 5.4 0 0 1 1.578.238c.29.079.57.239.86.079-.219-.157-.645.085-.57-.317 0-.16.28 0 .421-.078l-.07-.082c.07-.16.219-.082.363-.082-.5-.238-1.004-.473-1.508-.715.286-.48.793-.156 1.215-.156 0 0 0-.16-.07-.16.148-.242.363.078.574 0-.07-.164-.21-.164-.355-.242-.5-.079-1.004-.239-1.504-.317.07-.156.426.078.36-.238-.15-.399-.653-.32-.934-.473.28-.168.644-.246.933-.168.356.086.79-.078 1.145 0-.57-.554-1.364.086-2.008-.476.144-.157.363-.239.43-.477.433.16.933-.078 1.359 0-.535-.219-1.074-.45-1.613-.605-.035-.008-.067-.024-.102-.032-.222-.097-.445-.043-.672.032-.133.043-.27.097-.402.125-.5.164-1.004.164-1.504-.075.027-.02.066-.035.098-.05.265-.125.578-.192.832-.192h.433c.14 0 0-.238.14-.238.29 0 .642-.082.93 0 .403.223.844.328 1.266.43.18.039.352.082.524.125.07.086.14.164.218.242.426.086.86.086 1.141.398.074.078.145 0 .145-.078-.067-.375-.133-.539.152-.687.02-.008.043-.024.062-.032-.07-.242-.214-.316-.43-.398.505-.16 1.075-.234 1.43.324h.22c0-.168.148-.242.214-.324.36-.082.574.324.934.324.714-.168 1.359-.086 2-.168-.493-.156-.93-.238-1.43-.39-.148 0-.36 0-.504-.165.219-.234.648-.156.86-.078.144.078.144-.316.214-.242.367.086.719.164 1.004.32.219.086.645.239.934.399-.29-.633-1.219-.555-1.219-1.113-.074-.313.48.215.7-.059-1.356-.324-2.708-.191-4.063-.422-.075-.078-.145-.156-.219-.234.43-.235.863-.403 1.293-.32.07.085.137.085.21.16.286 0 .43 0 .724.078v-.153c-.504-.168-1.004-.085-1.504-.168-.368-.152-.797.082-1.153.168-1.218.075-2.433-.168-3.652-.085-.57 0-1.14-.083-1.785 0-.504.16-1.074 0-1.582 0-.426-.083-.926 0-1.36.085-.351 0-.714 0-.996-.168-.078-.074 0-.152.067-.152.93-.164 1.793.078 2.648 0-.36-.324-.855-.164-1.285-.246-.074 0-.145-.16-.215-.238.285-.16.645-.078.926-.078.078 0 .078.078.078.156h1.36l-.079-.078c.938-.235 1.864-.078 2.797-.235-.644-.242-1.433.075-2.074-.164.215-.156.426-.156.64-.078-.07-.16-.359-.078-.425-.238.64-.238 1.285-.078 1.93-.156 0-.164-.141-.325 0-.48.07.155.218.237.285.237.433-.082.789-.16 1.078.243-.219.156-.43.156-.645.156.215.316.574 0 .86.078.07 0 .07.082.07.16.43 0 .93.078 1.36-.16.074 0 .214.32.355.082-.426-.238-.93-.16-1.285-.398-.36-.243-.786-.559-1.145-.88.14-.156.43-.156.574 0 .211.165.36.165.57.243.141.078.075-.242.215-.242.286-.075.645-.075.93.082.434.238.863.16 1.363.238.075 0 .075-.078.145-.156 0 .09.07.074.133.078-.422-.356-.95-.02-1.352-.317-.148-.16-.289-.246-.504-.402.29-.156.575-.078.785.156 0-.074 0-.234.075-.234.144 0 .293.234.433.16-.215-.316-.574-.16-.863-.398-.5-.239-1.145-.082-1.648-.32 0-.079.078-.079.144-.079.07-.078 0-.156-.066-.156-.504 0-1.004 0-1.438-.316.434-.243.934-.164 1.36 0 .144.074.363.234.574.316.07 0 .289.078.289-.082-.074-.078-.145-.234-.29-.32.216-.235.505.242.72 0-.075-.078-.075-.157-.075-.235.356-.246.93.235 1.153 0 .351-.324.57.078.93 0-.305-.246-.637-.363-.97-.457-.464-.12-.945-.191-1.398-.425.07-.157.215-.157.36-.157-.215-.238-.504-.238-.79-.398q.539-.117 1.07 0c.294.078.575.238.864.32.14.078.285.16.36.317-.22-.477-.5-.715-.93-.872-.075-.085 0-.164.07-.164.14-.082.285.079.434.164.066 0 .14-.085.066-.164-.066 0-.14-.082-.14-.082.28-.312.574 0 .855 0 .074 0 .148.16.219.246 0-.085 0-.164.066-.246-.785-.312-1.57-.71-2.36-.793-.648-.082-1.288-.082-1.933-.082-1.289-.074-2.578 0-3.867-.156.715-.398 1.578.082 2.289-.234-.07-.164-.29-.086-.36-.242.504-.325 1.149.242 1.579-.079-.645-.246-1.356-.164-2.008-.398a.43.43 0 0 1 .406-.187c-.082-.086-.238-.231-.047-.376.215-.078.504.083.719 0-.719-.156-1.508-.156-2.004-.792.926-.399 1.926-.243 2.934-.399.5-.16 1.004-.16 1.504 0 .14.078.285.156.355.316.145-.238-.07-.238-.14-.316-.36-.32-.786-.32-1.22-.48-.28-.079-.57-.079-.855-.157-.863-.316-1.722 0-2.648-.16-.149-.078-.36.078-.578.078.074.16.359 0 .289.16-.215.399-.715.079-1.145.157-.789.164-1.578-.078-2.36-.235.567-.316 1.212 0 1.856-.082-.07-.078.14-.156 0-.234.356-.242.645.234 1.004.078.07-.078-.14-.238-.07-.402.07-.16.21 0 .351-.078v-.157c.579-.402 1.079 0 1.649.235-.285-.235-.64-.313-.856-.637-.07-.152.07-.234.145-.234.57 0 1.14 0 1.644.234-.574-.55-1.43-.55-2.218-.55-1.145.077-2.364.316-3.504.077-1.727-.242-3.305-.398-5.02-.796-.07-.083-.218-.165-.218-.243 0-.316.363 0 .437-.242l-.074-.074c.148-.16.355-.16.504 0 .07.074 0 .16-.078.16h-.141c-.07.316.289.156.36.156.503.078 1.074 0 1.574-.078.644-.164 1.289.238 1.933.32-.07-.082-.285-.082-.215-.242.215-.316.645-.078.938-.078.566 0 1.14.156 1.785.395.14 0 .289.16.426.086.215 0-.067-.086-.067-.16-.789-.485-1.644-.32-2.367-.876-.07-.082 0-.164.078-.164.145-.078.211.165.352.082-.64-.718-1.719 0-2.508-.48.148-.238 0-.473.078-.637.07-.242.422-.078.711-.078.074.078.145.078.215.078.504.082.934.32 1.363.48.14.079-.066-.081-.066-.16 0-.081.066-.156.137-.156.144 0 .293.075.293.235.28-.078.574-.078.78 0 .212.16.36.476.645.476-.07-.238-.285-.316-.433-.476-.067-.078 0-.16.074-.16h.36c-.212 0-.36-.075-.5-.075-.434-.082-.72-.406-1.075-.562.07-.156.285-.074.43-.156-.43-.32-1.074 0-1.504-.399.43-.238.793-.238 1.223-.164-.508-.156-.938-.074-1.438-.074-.21.074-.43 0-.57-.238-.075-.16.28-.082.14-.239-.289-.164-.644.078-1-.086l.067-.078c-.356-.312-.715-.156-1.07-.074.214.152-.075.152-.075.238-.504 0-1.004.157-1.504.157-.5.082-1.074.238-1.5.32-.289 0-.504-.399-.863-.477.074-.164.29-.086.43-.086.574-.078 1.218.164 1.793 0 .14 0 .5.243.57-.152-.137 0-.285.074-.355-.082.496-.238 1.003 0 1.503-.238-.285 0-.5-.239-.718-.317.218-.394.504-.082.718.078.137.082.215-.16.356-.078.36.317.785.555 1.219.399-.434-.16-.86-.239-1.149-.64.578-.153 1.149 0 1.649.241-.286-.32-.645-.48-1.07-.558-1.65-.164-3.227-.317-4.805-.164-.141 0-.567.328-.641.082-.07-.399.5-.16.715-.399-.285-.234-.64.164-.785-.156.71-.32 1.5 0 2.289.156-.07-.32-.43-.078-.5-.32 0-.078.07-.156.14-.156.36 0 .786.242 1.078.156.426-.156.926.086 1.356.086-.285-.32-.64-.32-.93-.402-.64-.239-1.355-.079-2-.473l.067-.086c-.067 0-.137-.082-.137-.082.496-.555 1.145.082 1.645 0-.145 0-.215-.07-.293-.156.218-.16.437 0 .648-.078-1.285-.32-2.578-.32-3.934-.56-.148 0-.074-.155-.074-.233.5-.48 1.145 0 1.719-.243-.719-.078-1.508-.148-2.223-.078-.644.059-1.293.117-1.937.078h.004c0 .082.289.16.07.243-.355.078-.711 0-1.07.156.285.078.648-.078.93.078-.645.402-1.505.156-2.079.637-.14.156-.504 0-.715.086-.43.238-1.004.238-1.433.554.574.078 1.074 0 1.644-.242.078 0 .149.16.149.16.5-.32 1-.16 1.574-.234.074-.086.215 0 .215-.168.074.168.289.32.074.402-.504.16-.934.477-1.43.32-.218 0-.433 0-.648.079-.145.078-.29.242-.504.242.07.078-.281.156-.07.156.14 0 .218-.156.43-.156.144 0 .074.316.21.234.078-.156.293-.234.364-.156.64.078 1.359-.32 1.937 0 0 0-.148.32-.289.32-.715 0-1.43.153-2.078.235-.574 0-1.215.246-1.863 0-.36-.082-.641 0-.93.246.289.074.57-.086.793.074-.29.32-.723.32-1.082.559-.14.16-.352.234-.5.472.86-.394 1.793-.55 2.652-.87.145-.083.215.32 0 .398-.117 0-.238.16-.355.175.261.036.523-.09.781-.015.148 0 .434 0 .504-.16 0-.079-.219-.16-.29-.239.434-.32 1.434-.48 1.36.317 0 .156-.21.082-.281.082-.14-.082 0-.239-.074-.32-.145-.079-.285.16-.43.081 0 .239.43.079.363.395-.078.082-.152.234-.218.234-.864-.152-1.579.243-2.364.164-.289 0-.789-.164-1.004.079.145 0 .356 0 .434.16 0 .16-.29.16-.363.32.074 0 .144 0 .215.078.148-.164.363-.164.503-.164 1.145-.156 2.293-.312 3.438-.312.215 0 .715-.082.715.156-.074.398-.64.156-1.074.242-.141.078-.282.32-.36.32-.504.157-.926-.164-1.426-.082 0 .082 0 .157-.074.157H14.32l.07.082c-.07.156-.285.082-.425.082-.578-.239-1.145-.48-1.797-.32.148 0 .363-.083.504 0 .148.081.215.156.36.156.14.082 0 .394-.071.394a3.6 3.6 0 0 0-1.574-.074c.14.238.425-.082.496.16 0 .32-.356 0-.43.238-.422-.238-.855.239-1.355.157.43.242.863-.075 1.355.082.149 0 .285-.082.43-.157.648-.082 1.289-.082 1.937.157 0 0 0 .16-.07.16h-.578c-.074 0-.074.156-.074.156.433.16.867-.238 1.293.16-.07.078-.137.238-.286.16-.285-.082-.574 0-.859-.082 0 .16-.215.082-.148.16.218.165.504.082.722.082 0 .082.285.082.07.239-.023.023-.046.031-.07.039.27.11.594.054.856.195.078.086 0 .164-.07.164h-.286c.145.238.504-.078.575.238 0 .082-.07.157-.141.157-.79 0-1.582.086-2.297-.395-.066-.078 0-.164.074-.164.43-.074.715.242 1.14.242-.425-.316-1.07-.156-1.503-.554.148-.16.289-.16.504-.16-.43-.243-.79.082-1.219 0-.21-.083-.355-.243-.57-.16v.16c-.574.238-1.145.238-1.719.472.5.086.934-.234 1.434 0-.07.164-.36.086-.36.32.36 0 .645-.078 1.004.082-.86.317-1.863.157-2.722.637.574-.156 1.078-.238 1.648-.156.14 0 .07.238.14.238.723-.238 1.294 0 1.934.16.074.079.149.153.215.239-.355.156-.789-.086-1.145-.086-1.003-.153-1.859.242-2.792.644.574-.164 1.218-.402 1.863-.324.074 0 .215.242.281.16.504 0 1.004.164 1.504.082.652-.16 1.219-.16 1.863.082-.281.153-.644 0-.933.078 0 0 0 .157.074.157-.93.48-1.86 0-2.863.16-.426.156-.79.242-1.215.242.644.078 1.363-.324 1.937 0 .356.234.926.156 1.426.156.074 0 .074.078.074.16.29 0 .29.157.356.399-.719.156-1.36-.242-2.075-.242-.07 0-.07.16-.07.16.29.082.57-.082.785.16-.14.16-.214.394-.359.476-.504.083-.93-.16-1.43.083.36 0 .79-.082.86.238.066.156-.215 0-.29.156-.425-.234-.855.078-1.285.078.211.164.43-.078.641 0 .074 0 .074.086.074.164-.074.078-.074.156-.14.156-.22 0-.434.083-.649.083-.57.078-1.215 0-1.785 0 0 .156-.219.078-.148.156.289.082.644-.239.933 0-.433.402-1.004 0-1.437.238-.211.164-.5.238-.64.484.57-.078 1.073-.398 1.644-.246 0 .168-.211.168-.211.246.14.079.43-.078.57.079-.36.316-.86.316-1.215.558.215.074.504-.16.426 0-.211.395-.785.555-1.14.875.284-.082.566-.164.859-.238.425-.082.93-.317 1.425-.242.22.082.149.316 0 .398-.64 0-1.214.082-1.855.238-.29.079-.645.32-.863.637.433-.238.863-.637 1.363-.473.14 0 .43 0 .5.157 0 .156-.36.398-.29.398.43.16.935-.16 1.364.078-.324.293-.949.184-1.222.582a.7.7 0 0 0-.063.133c.129-.047.266-.098.399-.133.082-.011.16-.023.242-.023 1.004-.078 1.933-.477 2.937-.238-.285.117-.574.199-.863.261-1.367.301-2.762.086-4.113.39.246-.01.464.122.675.302-.43.242-.93-.078-1.285.16-.289.16-.715.082-.933.476.43-.078.933-.55 1.148-.078.066.242-.574 0-.43.399 0 .082.43-.157.57.082 0 .078-.21 0-.21.156.57.078 1.14-.156 1.644.078-.433.242-.933.082-1.36.156v.164c.071.082.286 0 .216.082-.145.239-.574.075-.793.317.293 0 .504 0 .793.156.144.16.574-.156.64.082.07.399-.496.317-.785.317-.789 0-1.578 0-2.367.082v.16c.29-.078.574-.16.863 0-.64.476-1.425.238-2.148.558.43 0 .863 0 1.285.235-.422.402-.996.16-1.5.32 1 .164 2.074-.16 3.078.082 0 .16-.14.082-.215.16-.285.074-.574-.078-.859.074-.215.082-.426.168-.645.168-.074.075-.144.153-.28.153.421.16.78-.32 1.21-.153.215.153.574 0 .504.235 0 .156-.36.078-.504.398.215 0 .504-.078.649.157-.575.316-1.149.316-1.723.238-.64-.16-1.36-.078-2.004 0 .21.078.434 0 .574.242-.285.238-.648.395-1.004.559.215 0 .356-.079.5-.165.07 0 .22.165.364.086 0-.085 0-.164.066-.164.29 0 .574-.078.793.078-.145.165-.434-.078-.504.239.504.078 1.215-.317 1.649.078-.415.25-.872.39-1.336.512-.735.199-1.485.359-2.102.843.215 0 .57-.078.719-.078 1.004-.16 1.93-.312 2.93-.238.214 0 .644-.074.574.238-.145.48-.645.637-1.22.637 0 0 0 .156.071.156.293-.078.574 0 .79-.156.214-.078.429-.156.648-.32.215-.078.43-.157.644-.078.07.078.07.16.07.242-.43.48-1.003.48-1.578.633.43.16.864-.153 1.36-.153.43.074.793-.246 1.293-.168-.07-.156-.356-.078-.29-.234.15-.242.65-.871.864-.559.14.16-.29.317-.215.317.504.562 1-.395 1.645-.157v-.16c-.215-.078-.43.078-.645-.078.5-.32 1.149-.32 1.649-.637.039 0-.016-.02-.075-.05-.066-.032-.14-.07-.14-.106 0-.324.285-.242.426-.242.937-.242 1.867-.637 2.722-.242-.504.16-.93.316-1.43.242.22.316.715-.242.79.242.007.031.007.07.007.106-.027.172-.257.277-.441.21.074.395.5 0 .434.243 0 .074-.149.312-.215.312-.356.16-.79-.078-1.149 0-.5.16-1.004-.078-1.504.239-.07.078 0 .16.075.16-.36.238-.79 0-1.075.394h-.218c.504.086.933-.078 1.433 0l-.07.086.07.082c-.215.074-.36.313-.57.387-.43.086-.863-.152-1.293.168.36.078.719-.082 1.074.078-.21.156-.5.078-.715.156 0 .082 0 .16.07.16.505 0 1.075-.078 1.579.079-.36.242-.79.476-1.145.636 0 0-.074-.16-.144-.16-.29 0-.5-.156-.79-.234-.355-.078-.714.078-1.07.16.067 0 .215 0 .215.074-.074.16-.289.082-.43.082-.503-.316-1.078-.156-1.578-.394-.504-.243-1.078-.32-1.574-.086 0 0-.36 0-.215.086.504.156 1.149-.164 1.578.156-.574.558-1.441.402-1.937.953a8.6 8.6 0 0 1 2.793-.473c.36 0 .789-.164 1.148.157-.789.16-1.433.558-2.222.796-.075.079-.075.239-.211.32a7.3 7.3 0 0 0-1.938.954c.36.082.719-.238 1.074-.238.426 0 1.075-.637 1.504-.235-.246.336-.754.387-.984.746a.6.6 0 0 0-.094.207.5.5 0 0 1 .18-.207q.089-.063.184-.11c.355-.081.64-.163.93-.401.144-.082.359.082.5 0 .214-.16.433-.235.644-.32.074 0 .074.085.074.16-.074.16-.285.16-.36.316.212.164.43-.156.645-.156.36 0 .64-.48.934-.559.64-.238 1.285-.238 1.93-.398.214 0 .43-.157.644-.239.789-.156 1.504-.238 2.289-.398.363-.078.723-.238 1.078 0-.863.398-1.785.558-2.723.558-.214.079-.359.399-.644.477-.93.16-1.79.16-2.649.559.434.238.93-.235 1.36.082 0 .074 0 .238-.07.238-.313.101-.602.137-.903.191a4 4 0 0 0-.531.125c.36-.078.789-.234 1.148 0-.144.082-.218.239-.289.403 0 .074.145.074.215.074.145-.074.145-.238.29-.317.28-.16.57-.16.859-.16.07 0 .14.16.14.32.254-.093.48-.3.719-.445.18-.11.363-.191.57-.191.793-.082 1.5-.164 2.293-.238-.43-.082-.793.074-1.219-.082.72-.399 1.508-.399 2.29-.637.144 0 .363-.078.289.078-.07.324-.575 0-.793.398.289.16.574 0 .867.079.066 0 .066-.153.14-.153.79-.086 1.715-.324 2.364.153-.649.238-1.364-.153-2.004 0a20 20 0 0 0-1.55.593h-.157c-.125.04-.242.086-.367.125h-.508c-.64 0-1.285 0-1.93.239 0 0 0 .164.07.164-.714.234-1.503.632-2.218.71-.5 0-1 .481-1.575.637.356.242.645-.156 1.075-.32.07 0 .14 0 .21.086.075.234 0 .394-.14.555-.07.16.07.238.14.32.145-.32.505-.64.79-.32.074.082 0 .238 0 .32.285-.398.718-.719 1.148-.719.145 0 .145.238 0 .32.356 0 .645-.242.93-.476.215-.086.43.156.648 0 .496-.242 1-.48 1.567-.559.074 0 .074.078.074.157.215-.079.426-.157.644-.157.07-.078.215 0 .215-.164 0 .086.29.086.07.242.72.079 1.438-.156 2.149-.156-.281-.242-.645.078-.855-.242 0-.078 0-.16.066-.16.723 0 1.508.082 2.223 0-.36-.317-.864 0-1.286-.074-.078 0-.078-.082-.148-.164.117-.079.242-.145.36-.204.835-.328 1.925-.296 2.648-.351.09 0 .097.09.09.191-.008.067-.016.14-.016.207-.21.711-.43 1.434-.715 2.07a5.14 5.14 0 0 1-1.504 1.833c-.863.554-1.758.965-2.793 1.113-.164.02-.355.043-.554.055-4.532.05-4.782.09-5.395.101-.719.016-2.969.153-3.887.285 0 0-.851.07-.836.22h.012c-.226.034-.469.093-.46.167l32.808-.016H52.27z" style="stroke:none;fill-rule:nonzero;fill:#28805e;fill-opacity:1"/></g><path d="M22.512 16.5a.3.3 0 0 0-.157-.02c.051.02.102.032.13.032.011-.008.019-.008.027-.012M21.836 17.309h-.285s-.02 0-.024.003c.07.04.207-.003.309-.003M23.2 22.07h-.012l.011.016ZM27.14 23.438l-.085.023q.072.004.144.02c-.015-.028-.027-.044-.058-.044" style="stroke:none;fill-rule:nonzero;fill:#28805e;fill-opacity:1"/></svg>