<?xml version="1.0" encoding="UTF-8"?>
<svg xmlns="http://www.w3.org/2000/svg" xmlns:xlink="http://www.w3.org/1999/xlink" width="176pt" height="16.21pt" viewBox="0 0 176 16.21" version="1.1">
<defs>
<clipPath id="clip1">
  <path d="M 0 0 L 47 0 L 47 16.210938 L 0 16.210938 Z M 0 0 "/>
</clipPath>
</defs>
<g id="surface1">
<g clip-path="url(#clip1)" clip-rule="nonzero">
<path style=" stroke:none;fill-rule:nonzero;fill:rgb(26.972961%,58.543396%,84.501648%);fill-opacity:1;" d="M 0 0.15625 C 7.230469 1.15625 13.996094 10 24.53125 14.308594 C 38.453125 19.382812 45.449219 12.695312 45.449219 12.695312 C 45.449219 12.695312 34.53125 16.460938 32.222656 12.847656 C 29.914062 9.230469 33.914062 5.773438 46.296875 0.00390625 L 28.222656 0.00390625 C 25.148438 10.386719 16.777344 7.191406 16.777344 7.191406 C 16.777344 7.191406 12.457031 5.234375 7.921875 0.851562 C 7.765625 0.683594 7.617188 0.53125 7.25 0.507812 C 5.625 0.40625 3.320312 0.476562 0 0.15625 "/>
</g>
<path style=" stroke:none;fill-rule:nonzero;fill:rgb(26.972961%,58.543396%,84.501648%);fill-opacity:1;" d="M 69.03125 15.828125 L 65.644531 15.828125 L 61.71875 9.628906 L 60.792969 11.171875 L 57.828125 15.828125 L 54.414062 15.828125 L 59.925781 7.703125 L 54.859375 0.386719 L 58.273438 0.386719 L 60.886719 4.4375 C 61.03125 4.667969 61.171875 4.898438 61.308594 5.132812 C 61.445312 5.371094 61.582031 5.597656 61.71875 5.820312 C 61.855469 5.597656 61.992188 5.371094 62.136719 5.132812 C 62.277344 4.898438 62.417969 4.667969 62.5625 4.4375 L 65.1875 0.386719 L 68.589844 0.386719 L 63.511719 7.703125 L 69.03125 15.828125 "/>
<path style=" stroke:none;fill-rule:nonzero;fill:rgb(26.972961%,58.543396%,84.501648%);fill-opacity:1;" d="M 73.824219 15.828125 L 70.871094 15.828125 L 70.871094 0.386719 L 73.824219 0.386719 L 73.824219 15.828125 "/>
<path style=" stroke:none;fill-rule:nonzero;fill:rgb(26.972961%,58.543396%,84.501648%);fill-opacity:1;" d="M 84.929688 9.503906 L 82.703125 2.941406 L 80.558594 9.503906 Z M 90.132812 15.828125 L 87.03125 15.828125 L 85.625 11.878906 L 79.863281 11.878906 L 78.515625 15.828125 L 75.558594 15.828125 L 81.105469 0.386719 L 84.335938 0.386719 L 90.132812 15.828125 "/>
<path style=" stroke:none;fill-rule:nonzero;fill:rgb(26.972961%,58.543396%,84.501648%);fill-opacity:1;" d="M 107.582031 15.828125 L 104.820312 15.828125 L 104.820312 9.449219 L 104.890625 3.375 L 101.019531 15.828125 L 98.328125 15.828125 L 94.410156 3.375 L 94.492188 9.449219 L 94.492188 15.828125 L 91.707031 15.828125 L 91.707031 0.386719 L 95.976562 0.386719 L 99.640625 12.390625 L 103.304688 0.386719 L 107.582031 0.386719 L 107.582031 15.828125 "/>
<path style=" stroke:none;fill-rule:nonzero;fill:rgb(26.972961%,58.543396%,84.501648%);fill-opacity:1;" d="M 122.542969 15.828125 L 110.765625 15.828125 L 110.765625 0.386719 L 122.199219 0.386719 L 122.199219 2.910156 L 113.722656 2.910156 L 113.722656 6.6875 L 121.640625 6.6875 L 121.640625 9.207031 L 113.722656 9.207031 L 113.722656 13.316406 L 122.542969 13.316406 L 122.542969 15.828125 "/>
<path style=" stroke:none;fill-rule:nonzero;fill:rgb(26.972961%,58.543396%,84.501648%);fill-opacity:1;" d="M 137.730469 15.828125 L 134.753906 15.828125 L 127.859375 4.699219 L 127.941406 10.191406 L 127.941406 15.828125 L 125.15625 15.828125 L 125.15625 0.386719 L 128.144531 0.386719 L 135.039062 11.511719 L 134.957031 6.011719 L 134.957031 0.386719 L 137.730469 0.386719 L 137.730469 15.828125 "/>
<path style=" stroke:none;fill-rule:nonzero;fill:rgb(26.972961%,58.543396%,84.501648%);fill-opacity:1;" d="M 150.710938 9.492188 L 147.984375 2.351562 L 145.394531 9.492188 Z M 155.414062 15.828125 L 153.097656 15.828125 L 151.304688 11.136719 L 144.835938 11.136719 L 143.136719 15.828125 L 140.976562 15.828125 L 146.898438 0.386719 L 149.113281 0.386719 L 155.414062 15.828125 "/>
<path style=" stroke:none;fill-rule:nonzero;fill:rgb(26.972961%,58.543396%,84.501648%);fill-opacity:1;" d="M 159.429688 15.828125 L 157.386719 15.828125 L 157.386719 0.386719 L 159.429688 0.386719 L 159.429688 15.828125 "/>
<path style=" stroke:none;fill-rule:nonzero;fill:rgb(26.972961%,58.543396%,84.501648%);fill-opacity:1;" d="M 165.160156 7.382812 L 169.746094 7.382812 C 170.378906 7.382812 170.921875 7.335938 171.378906 7.238281 C 171.835938 7.144531 172.210938 6.992188 172.503906 6.78125 C 172.796875 6.574219 173.011719 6.296875 173.148438 5.957031 C 173.285156 5.613281 173.351562 5.195312 173.351562 4.699219 C 173.351562 3.808594 173.078125 3.152344 172.53125 2.730469 C 171.984375 2.308594 171.152344 2.097656 170.042969 2.097656 L 165.160156 2.097656 Z M 176 15.828125 L 173.773438 15.828125 L 172.324219 11.683594 C 172.195312 11.328125 172.023438 11 171.808594 10.699219 C 171.589844 10.398438 171.335938 10.136719 171.042969 9.921875 C 170.75 9.703125 170.425781 9.535156 170.070312 9.414062 C 169.71875 9.292969 169.34375 9.230469 168.945312 9.230469 L 165.160156 9.230469 L 165.160156 15.828125 L 163.117188 15.828125 L 163.117188 0.386719 L 169.953125 0.386719 C 170.371094 0.386719 170.769531 0.398438 171.144531 0.414062 C 171.519531 0.433594 171.878906 0.476562 172.21875 0.546875 C 172.554688 0.613281 172.875 0.714844 173.175781 0.847656 C 173.476562 0.980469 173.765625 1.164062 174.035156 1.390625 C 174.5 1.800781 174.855469 2.300781 175.097656 2.890625 C 175.34375 3.480469 175.464844 4.085938 175.464844 4.699219 C 175.464844 5.242188 175.382812 5.738281 175.222656 6.191406 C 175.0625 6.640625 174.835938 7.042969 174.53125 7.394531 C 174.234375 7.742188 173.867188 8.039062 173.4375 8.277344 C 173.007812 8.519531 172.527344 8.691406 171.992188 8.796875 L 171.992188 8.832031 C 173.074219 9.175781 173.898438 10.105469 174.472656 11.628906 L 176 15.828125 "/>
</g>
</svg>
