<svg xmlns="http://www.w3.org/2000/svg" width="176pt" height="53.627" viewBox="0 0 176 40.22"><defs><clipPath id="a"><path d="M84 36h5v4.219h-5Zm0 0"/></clipPath><clipPath id="b"><path d="M99 36h5v4.219h-5Zm0 0"/></clipPath><clipPath id="c"><path d="M77 36h8v4.219h-8Zm0 0"/></clipPath><clipPath id="d"><path d="M94 36h6v4.219h-6Zm0 0"/></clipPath><clipPath id="e"><path d="M102 36h8v4.219h-8Zm0 0"/></clipPath><clipPath id="f"><path d="M108 36h8v4.219h-8Zm0 0"/></clipPath><clipPath id="g"><path d="M114 35h7v5.219h-7Zm0 0"/></clipPath><clipPath id="h"><path d="M87 36h8v4.219h-8Zm0 0"/></clipPath></defs><path d="m132.223 16.625.3-.676h8.723c2.012 0 2.758-1.277 3.074-2.195.32-.918 1.051-3.086 1.371-4.164s-.12-1.957-1.57-1.957h-6.89l1.09-1.09h11.202c1.118 0 2.008.398 2.008 1.289s-1.886 5.32-1.886 6.36c0 1.038.726 1.796 2.046 1.796 1.317 0 3.164-.797 3.961-3.113.801-2.316 2.664-7.691 3.059-8.875.394-1.184 0-2.836-1.89-2.836h-12.212l1.024-1.16h13.164c2.453 0 7.5-.09 10.98 4.508 3.48 4.593.668 7.715 2.762 10.347 1.117 1.407 3.461 1.133 3.461 1.133l-.281.633z" style="stroke:none;fill-rule:evenodd;fill:#eb1d27;fill-opacity:1"/><path d="m133.727 33.164-.723-.973h12.129c1.527 0 3.472-.957 4.07-2.714.602-1.758 2.844-8.157 3.406-9.766.598-1.715-.48-2.367-1.836-2.367-3.234 0-4.085 4.203-4.8 6.293-.72 2.086-1.813 2.875-3.649 2.875h-11.277l-.2-.918h6.04c2.523 0 3.203-1.36 3.48-2.117.281-.758.918-2.446 1.399-3.883.48-1.438.043-2.29-1.477-2.29h-8.363l.297-.679h43.496l-.309.68c-2.633 0-3.453.425-5.12 1.582-2.536 1.758-4.29 6.547-8.93 9.531-2.352 1.516-6.5 4.746-13.485 4.746zM24.262 28.469l-1.61 4.308-5.117-.054ZM65.05 28.57l-1.566 4.207H58.41Zm0 0" style="stroke:none;fill-rule:nonzero;fill:#203966;fill-opacity:1"/><path d="m121.645 21.39.613-1.66h-8.336l1.332-3.664h8.535c2.98 0 4.145 2.094 3.606 3.653-.536 1.558-4.829 13.058-4.829 13.058h-10.574c-1.793 0-3.945-1.52-3.015-4.007.82-2.192 1.152-2.977 1.418-3.704.968-2.628 4.28-3.683 6.308-3.683 2.024 0 4.942.008 4.942.008m-6.11 3.665-1.5 4.058h4.75l1.5-4.058Zm-41.312-8.989h5.066s-.332.961-1.242 3.664c-.27.786-1.024 2.399-2.082 3.665-1.195 1.437-3.281 3.972-3.7 4.453-.417.476-.312 1.246.645 1.246h5.028l4.82-13.028h5.097s-5.25 14.227-6.183 16.707c-1.766 4.68-5.555 5.305-7.27 5.305h-8.437l1.246-3.66h7.422c.66 0 1.508-.379 1.777-1.016.153-.359.258-.625.258-.625H70.09c-2.48 0-3.586-1.925-3.586-3.148 0-1.219.71-2.52 2.129-3.977 1.414-1.457 2.422-2.742 3.05-3.449.633-.71 1.196-1.965 1.36-2.473Zm-11.664 5.325.613-1.66h-8.336l1.336-3.665h8.539c2.977 0 4.14 2.094 3.605 3.653-.32.933-2.039 5.562-3.324 9.015l-6.336 4.043H52.91c-1.789 0-3.945-1.52-3.015-4.007.82-2.192 1.152-2.977 1.421-3.704.965-2.628 4.278-3.683 6.305-3.683s4.938.008 4.938.008m-6.102 3.664-1.504 4.058h4.75l1.504-4.058ZM38.613 21.39l.614-1.66H30.89l1.336-3.665h8.535c2.976 0 4.14 2.094 3.605 3.653-.535 1.558-4.832 13.058-4.832 13.058h-10.57c-1.793 0-3.945-1.52-3.016-4.007.817-2.192 1.149-2.977 1.418-3.704.965-2.628 4.281-3.683 6.305-3.683 2.027 0 4.941.008 4.941.008m-6.105 3.664-1.504 4.058h4.754l1.5-4.058Zm-5.024-5.336c-.316.922-2.035 5.554-3.316 8.996l-6.633 4.008 4.809-12.993h-3.621l-4.828 13.047H8.758l4.828-13.047H9.96L5.137 32.777H0l6.184-16.71h17.695c2.976 0 4.14 2.093 3.605 3.652m80.856-7.965h5.133l-1.192 3.21h-5.129Zm3.535 4.312-6.184 16.711h-5.129l6.184-16.71Zm-62.504-4.359h5.031l-7.797 21.07h-5.03Zm43.961 9.602 4.477-.004c2.976 0 4.14 2.093 3.605 3.652-.223.648-.742 2.11-1.273 3.594 0 0-.954 2.363-2.243 3.207-1.285.84-1.867.988-4.433 1.02h-10.2l1.387-3.665h9.504c.29 0 .567.114.824-.468.137-.305 1.079-2.836 1.16-3.051.102-.282-.038-.54-.378-.54h-4.563c-2.976 0-4.14-2.093-3.605-3.652.136-.41.398-1.14.703-1.996 1.144-2.379 4.144-3.34 6.078-3.34h8.957l-1.293 3.664h-7.883c-.683 0-.847.106-.98.368-.078.152-.278.617-.356.832-.062.172.055.379.512.379" style="stroke:none;fill-rule:nonzero;fill:#203966;fill-opacity:1"/><g clip-path="url(#a)"><path d="M86.707 36.027h1.996l-1.95 4.063h-2z" style="stroke:none;fill-rule:nonzero;fill:#203966;fill-opacity:1"/></g><g clip-path="url(#b)"><path d="M101.008 36.027h2l-1.95 4.063h-2z" style="stroke:none;fill-rule:nonzero;fill:#203966;fill-opacity:1"/></g><g clip-path="url(#c)"><path d="m77.973 40.09 4.066-4.063h1.977l.218 4.063h-1.906l-.016-.567h-1.878l-.551.567Zm4.312-1.586-.023-.856-.832.856Zm0 0" style="stroke:none;fill-rule:nonzero;fill:#203966;fill-opacity:1"/></g><g clip-path="url(#d)"><path d="M96.012 36.027h2l-1.465 3.043h2.73l-.492 1.02H94.06z" style="stroke:none;fill-rule:nonzero;fill:#203966;fill-opacity:1"/></g><g clip-path="url(#e)"><path d="M107.863 36.027h1.996l-1.949 4.063h-1.793l-1.113-1.832-.883 1.832h-2l1.953-4.063h1.739l1.144 1.887z" style="stroke:none;fill-rule:nonzero;fill:#203966;fill-opacity:1"/></g><g clip-path="url(#f)"><path d="M111.34 39.07h2.844l-.493 1.02h-4.84l1.95-4.063h4.844l-.493 1.02h-2.843l-.243.5h2.48l-.515 1.02h-2.453z" style="stroke:none;fill-rule:nonzero;fill:#203966;fill-opacity:1"/></g><g clip-path="url(#g)"><path d="M118.863 37.336h1.961s.442-1.309-1.758-1.39c-1.984-.071-3.152.706-3.343 1.35-.246.817.398 1.126 1.668 1.31.55.078.789.175.714.367-.062.164-.328.222-.617.222-.715 0-.652-.468-.652-.468h-1.953s.02.226.02.449c0 .226.238 1.043 2.136 1.043 2.457 0 3.086-.899 3.254-1.348.602-1.617-2.535-1.086-2.27-1.68.075-.164.102-.242.41-.222.59.039.43.367.43.367" style="stroke:none;fill-rule:evenodd;fill:#203966;fill-opacity:1"/></g><g clip-path="url(#h)"><path d="M89.719 36.027h3.324c1.14 0 1.973.399 1.418 1.407-.219.394-.34.457-1.027.73 0 0 .574.234.238.906l-.512 1.02h-1.969s.293-.668.454-.961c.156-.297.097-.473-.176-.473h-1.012l-.687 1.434h-2Zm1.504 1.032-.32.671h.98c.512 0 .945-.671.312-.671z" style="stroke:none;fill-rule:nonzero;fill:#203966;fill-opacity:1"/></g></svg>