<svg xmlns="http://www.w3.org/2000/svg" width="176pt" height="51.96" viewBox="0 0 176 38.97"><defs><clipPath id="a"><path d="M0 26h16v12.969H0Zm0 0"/></clipPath><clipPath id="b"><path d="M16 26h7v12.969h-7Zm0 0"/></clipPath><clipPath id="c"><path d="M23 26h17v12.969H23Zm0 0"/></clipPath><clipPath id="d"><path d="M48 26h21v12.969H48Zm0 0"/></clipPath><clipPath id="e"><path d="M69 26h16v12.969H69Zm0 0"/></clipPath><clipPath id="f"><path d="M102 26h18v12.969h-18Zm0 0"/></clipPath><clipPath id="g"><path d="M119 26h7v12.969h-7Zm0 0"/></clipPath><clipPath id="h"><path d="M139 26h6v12.969h-6Zm0 0"/></clipPath><clipPath id="i"><path d="M86 26h16v12.969H86Zm0 0"/></clipPath><clipPath id="j"><path d="M126 26h14v12.969h-14Zm0 0"/></clipPath><clipPath id="k"><path d="M145 26h17v12.969h-17Zm0 0"/></clipPath><clipPath id="l"><path d="M162 26h14v12.969h-14Zm0 0"/></clipPath></defs><path d="M107.824 16.34c2.406-.328 7.39-.578 10.461 0 3.074.582 8.969 2.328 19.438-2.156 2.242-.829 9.882-2.325 11.875 1.246-.164-.996-.664-3.489-7.723-6.39-2.656-.997-4.984-.833-7.39-.669-2.41.168-12.626.75-19.438-2.82-6.738-3.531-14.05-7.711-24.348-4.254 2.192-.52 8.903 1.418 10.227 2.18 1.297.746 12.625 7.554 16.031 7.554-1.164.992-8.14 2.82-12.625 3.235-4.484.414-18.52 2.656-35.883 2.324 8.196 1.23 25.5 1.828 39.375-.25" style="stroke:none;fill-rule:evenodd;fill:#c41e25;fill-opacity:1"/><path d="M90.7 1.297a1.3 1.3 0 0 0-.321.105c.11-.039.215-.07.32-.105M140.965 7.664c1.91-.812 11.547-5.887 18.465-2.5-2.797-1.547-7.797-5.152-18.172-2.21-5 1.62-10.297 3.753-10.52 4.343 0 0 6.844-.738 10.227.367" style="stroke:none;fill-rule:evenodd;fill:#c41e25;fill-opacity:1"/><g clip-path="url(#a)"><path d="M10.918 36.79s-5.613 0-6.39-.052c-.778-.05-1.665-.312-1.665-1.25 0-.933 1.715-1.504 3.117-1.66 1.403-.156 5.301-.469 5.665-.676Zm1.61-10.08c-.985 0-9.09.15-9.09.15l-.368 2.085s5.977-.261 7.95-.207c1.976.051 1.144 2.024 1.039 2.442-.672.258-7.739.933-8.621 1.09-.883.156-3.586.988-3.43 3.636.152 2.649 3.781 3.024 4.246 3.024l9.527-.008s1.446-7.277 1.969-9.875c.52-2.594-2.234-2.336-3.223-2.336" style="stroke:none;fill-rule:evenodd;fill:#c41e25;fill-opacity:1"/></g><g clip-path="url(#b)"><path d="M16.684 38.93h3.222l2.442-12.063H19.28z" style="stroke:none;fill-rule:evenodd;fill:#c41e25;fill-opacity:1"/></g><g clip-path="url(#c)"><path d="M36.219 31.488c-1.145.524-8.364 1.352-8.364 1.352l.829-4.05s5.507-.102 7.066 0c1.559.105 1.61 2.183.469 2.698m3.531-1.66c0-3.324-5.559-2.969-5.766-2.969h-8.261l-2.657 12.07H26.5l.992-4.062 4.258-.363 3.242 4.426h3.375l-3.187-4.895s4.312-.312 4.57-4.207" style="stroke:none;fill-rule:evenodd;fill:#c41e25;fill-opacity:1"/></g><g clip-path="url(#d)"><path d="M67.254 26.86H51.18l-2.508 12.07h3.238l2.094-10.14h2.93c1.25 0 1.199.573 1.16.94-.035.368-1.824 9.2-1.824 9.2h3.09l2.058-10.14h2.957c.625 0 1.148.241 1.04.757-.11.515-2.063 9.383-2.063 9.383h3.238s2.137-9.016 2.137-10.668c0-1.657-1.473-1.403-1.473-1.403" style="stroke:none;fill-rule:evenodd;fill:#c41e25;fill-opacity:1"/></g><g clip-path="url(#e)"><path d="M79.918 36.79s-5.61 0-6.387-.052c-.781-.05-1.664-.312-1.664-1.25 0-.933 1.715-1.504 3.117-1.66 1.403-.156 5.297-.469 5.66-.676Zm1.613-10.04c-.988 0-9.094.11-9.094.11l-.363 2.085s5.977-.261 7.95-.207c1.972.051 1.144 2.024 1.038 2.442-.675.258-7.738.933-8.624 1.09-.883.156-3.426.98-3.426 3.636 0 2.645 3.894 3.024 4.363 3.024s9.402.039 9.402.039 1.453-7.324 1.973-9.922c.52-2.594-2.23-2.297-3.219-2.297" style="stroke:none;fill-rule:evenodd;fill:#c41e25;fill-opacity:1"/></g><g clip-path="url(#f)"><path d="M115.703 31.602c-1.144.52-8.363 1.347-8.363 1.347l.832-4.16s5.504-.102 7.062 0c1.559.106 1.614 2.293.47 2.813m3.531-1.665c0-3.324-5.07-3.078-5.765-3.078l-8.29-.007-2.62 12.074h3.43l.988-3.95 4.257-.363 3.184 4.317h3.375l-3.129-4.785s4.313-.31 4.57-4.208" style="stroke:none;fill-rule:evenodd;fill:#c41e25;fill-opacity:1"/></g><g clip-path="url(#g)"><path d="M119.543 38.93h3.223l2.496-12.063h-3.067z" style="stroke:none;fill-rule:evenodd;fill:#c41e25;fill-opacity:1"/></g><g clip-path="url(#h)"><path d="M139.145 38.93h3.222l2.39-12.063h-3.066z" style="stroke:none;fill-rule:evenodd;fill:#c41e25;fill-opacity:1"/></g><g clip-path="url(#i)"><path d="M97.332 34.992c-.371 1.762-1.066 1.809-1.39 1.809-.325 0-3.247-.047-4.637 0s-1.532-.14-1.532-.324 1.903-9.618 1.903-9.618H88.44s-1.449 6.977-1.914 9.34c-.46 2.364 1.391 2.73 2.086 2.73h8.578c1.996 0 2.598-1.25 2.922-2.452.325-1.207 1.856-9.618 1.856-9.618l-3.04-.004s-1.226 6.375-1.597 8.137" style="stroke:none;fill-rule:evenodd;fill:#c41e25;fill-opacity:1"/></g><g clip-path="url(#j)"><path d="M139.64 28.113c.212-.922.294-1.25.294-1.25h-12.395c-.258 0-.7.219-.848.735-.144.515-.28 1.195-.28 1.195s.882-.004 1.323-.004l3.606.004c-.149 1.031-2.293 10.133-2.293 10.133h3.238l2.278-10.137h4.304s.59.117.774-.676" style="stroke:none;fill-rule:evenodd;fill:#c41e25;fill-opacity:1"/></g><g clip-path="url(#k)"><path d="M158.355 26.86s-1.214 6.37-1.585 8.132c-.372 1.762-1.067 1.809-1.391 1.809s-3.246-.047-4.637 0-1.527-.14-1.527-.324 1.898-9.618 1.898-9.618h-3.254s-1.425 6.977-1.89 9.34c-.465 2.364 1.39 2.73 2.086 2.73h8.574c1.996 0 2.598-1.25 2.926-2.452.324-1.207 1.863-9.618 1.863-9.618z" style="stroke:none;fill-rule:evenodd;fill:#c41e25;fill-opacity:1"/></g><g clip-path="url(#l)"><path d="m174.281 28.79.735-1.93h-6.762c-.863 0-4.934-.493-5.371 3.027-.184 2.34 1.398 3.12 2.207 3.418.808.293 5.539.82 6.445.968.91.149 1.422.883 1.422 1.375 0 .489-.441 1.274-1.691 1.274h-8.407l-.785 1.937h9.977c2.133 0 3.949-1.52 3.949-3.066.07-2.305-1.992-3.402-3.305-3.547-1.203-.133-5-.695-5.59-.89-.585-.196-1.39-.333-1.355-1.422.164-.961 1.031-1.145 1.398-1.145z" style="stroke:none;fill-rule:evenodd;fill:#c41e25;fill-opacity:1"/></g></svg>