<?xml version="1.0" encoding="UTF-8"?>
<svg xmlns="http://www.w3.org/2000/svg" xmlns:xlink="http://www.w3.org/1999/xlink" width="176pt" height="29.55pt" viewBox="0 0 176 29.55" version="1.1">
<defs>
<clipPath id="clip1">
  <path d="M 30 15 L 44 15 L 44 29.550781 L 30 29.550781 Z M 30 15 "/>
</clipPath>
<clipPath id="clip2">
  <path d="M 0 0 L 52 0 L 52 29.550781 L 0 29.550781 Z M 0 0 "/>
</clipPath>
<clipPath id="clip3">
  <path d="M 2 2 L 55 2 L 55 29.550781 L 2 29.550781 Z M 2 2 "/>
</clipPath>
<clipPath id="clip4">
  <path d="M 5 0 L 58 0 L 58 29.550781 L 5 29.550781 Z M 5 0 "/>
</clipPath>
<clipPath id="clip5">
  <path d="M 68 4 L 89 4 L 89 29.550781 L 68 29.550781 Z M 68 4 "/>
</clipPath>
<clipPath id="clip6">
  <path d="M 89 13 L 103 13 L 103 29.550781 L 89 29.550781 Z M 89 13 "/>
</clipPath>
<clipPath id="clip7">
  <path d="M 104 3 L 112 3 L 112 29.550781 L 104 29.550781 Z M 104 3 "/>
</clipPath>
<clipPath id="clip8">
  <path d="M 112 13 L 133 13 L 133 29.550781 L 112 29.550781 Z M 112 13 "/>
</clipPath>
<clipPath id="clip9">
  <path d="M 157 5 L 165 5 L 165 29.550781 L 157 29.550781 Z M 157 5 "/>
</clipPath>
<clipPath id="clip10">
  <path d="M 165 13 L 176 13 L 176 29.550781 L 165 29.550781 Z M 165 13 "/>
</clipPath>
</defs>
<g id="surface1">
<g clip-path="url(#clip1)" clip-rule="nonzero">
<path style=" stroke:none;fill-rule:nonzero;fill:rgb(92.240906%,68.52417%,5.755615%);fill-opacity:1;" d="M 30.128906 22.992188 C 30.324219 22.910156 30.46875 22.84375 30.617188 22.789062 C 31.191406 22.570312 31.292969 22.320312 31.015625 21.761719 C 30.878906 21.488281 30.742188 21.214844 30.566406 20.863281 C 30.996094 20.863281 31.320312 20.847656 31.636719 20.867188 C 32.328125 20.910156 32.433594 20.839844 32.589844 20.167969 C 32.617188 20.042969 32.664062 19.917969 32.734375 19.691406 C 33.382812 20.292969 33.984375 20.847656 34.585938 21.402344 C 34.652344 21.371094 34.71875 21.34375 34.785156 21.3125 C 34.542969 20.277344 34.304688 19.242188 34.058594 18.1875 C 34.195312 18.160156 34.257812 18.132812 34.316406 18.140625 C 35.296875 18.265625 35.300781 18.269531 35.773438 17.40625 C 36.046875 16.90625 36.296875 16.402344 36.558594 15.898438 C 36.613281 15.902344 36.667969 15.90625 36.722656 15.914062 C 37 16.445312 37.289062 16.972656 37.554688 17.515625 C 37.953125 18.332031 37.964844 18.34375 38.835938 18.15625 C 38.929688 18.136719 39.027344 18.144531 39.238281 18.128906 C 38.972656 19.230469 38.71875 20.28125 38.464844 21.328125 C 38.53125 21.367188 38.59375 21.402344 38.660156 21.441406 C 39.269531 20.867188 39.878906 20.292969 40.503906 19.703125 C 40.816406 20.109375 40.53125 20.796875 41.195312 20.863281 C 41.648438 20.910156 42.109375 20.871094 42.6875 20.871094 C 42.542969 21.195312 42.425781 21.472656 42.292969 21.738281 C 41.957031 22.421875 42 22.535156 42.707031 22.785156 C 42.839844 22.832031 42.96875 22.894531 43.175781 22.984375 C 43.007812 23.164062 42.90625 23.3125 42.769531 23.414062 C 41.9375 24.015625 41.097656 24.609375 40.261719 25.207031 C 39.71875 25.597656 39.679688 25.75 39.914062 26.378906 C 39.960938 26.503906 39.945312 26.652344 39.957031 26.789062 C 39.828125 26.796875 39.699219 26.828125 39.578125 26.808594 C 38.921875 26.707031 38.269531 26.597656 37.617188 26.472656 C 37.238281 26.402344 37.050781 26.511719 37.058594 26.921875 C 37.074219 27.621094 37.050781 28.316406 37.078125 29.011719 C 37.097656 29.453125 36.855469 29.5625 36.496094 29.546875 C 36.050781 29.53125 36.195312 29.210938 36.203125 28.960938 C 36.222656 28.28125 36.234375 27.605469 36.261719 26.925781 C 36.277344 26.511719 36.089844 26.398438 35.707031 26.472656 C 35.042969 26.597656 34.371094 26.707031 33.703125 26.824219 C 33.457031 26.863281 33.246094 26.863281 33.320312 26.515625 C 33.519531 25.566406 33.460938 25.507812 32.65625 24.964844 C 31.835938 24.410156 31.0625 23.785156 30.269531 23.191406 C 30.230469 23.164062 30.210938 23.113281 30.128906 22.992188 "/>
</g>
<g clip-path="url(#clip2)" clip-rule="nonzero">
<path style=" stroke:none;fill-rule:nonzero;fill:rgb(92.240906%,68.52417%,5.755615%);fill-opacity:1;" d="M 31.867188 11.222656 C 31.496094 11.871094 31.113281 12.535156 30.722656 13.210938 C 31.113281 12.535156 31.496094 11.871094 31.867188 11.222656 C 31.941406 11.09375 32.019531 10.964844 32.09375 10.835938 C 32.019531 10.964844 31.941406 11.09375 31.867188 11.222656 Z M 25.84375 23.417969 C 25.929688 23.28125 26.019531 23.136719 26.113281 22.980469 C 26.019531 23.136719 25.929688 23.28125 25.84375 23.417969 Z M 25.242188 22.527344 C 24.859375 23.136719 24.546875 23.621094 24.320312 23.9375 L 23.777344 24.683594 L 24.320312 23.9375 C 24.546875 23.621094 24.859375 23.136719 25.242188 22.527344 C 25.300781 22.433594 25.359375 22.335938 25.421875 22.234375 C 25.359375 22.335938 25.300781 22.433594 25.242188 22.527344 Z M 25.238281 24.339844 C 25.199219 24.398438 25.160156 24.457031 25.121094 24.507812 L 23.769531 26.363281 L 25.121094 24.507812 C 25.160156 24.457031 25.199219 24.398438 25.238281 24.339844 C 25.28125 24.277344 25.324219 24.214844 25.371094 24.144531 C 25.324219 24.214844 25.28125 24.277344 25.238281 24.339844 Z M 23.453125 24.929688 C 23.453125 24.929688 23.453125 24.933594 23.449219 24.933594 C 23.453125 24.933594 23.453125 24.929688 23.453125 24.929688 L 23.515625 24.972656 Z M 14.671875 28.242188 C 14.59375 28.242188 14.515625 28.242188 14.433594 28.238281 C 14.273438 28.238281 14.117188 28.230469 13.957031 28.222656 C 14.117188 28.230469 14.273438 28.238281 14.433594 28.238281 C 14.515625 28.242188 14.59375 28.242188 14.671875 28.242188 Z M 5.125 24.28125 C 5.429688 24.585938 5.75 24.875 6.085938 25.152344 C 5.75 24.875 5.429688 24.585938 5.125 24.28125 Z M 3.078125 21.660156 C 3.164062 21.800781 3.25 21.9375 3.339844 22.074219 C 3.25 21.9375 3.164062 21.800781 3.078125 21.660156 Z M 1.652344 18.339844 C 1.332031 17.191406 1.164062 15.980469 1.164062 14.730469 C 1.164062 14.511719 1.167969 14.292969 1.179688 14.074219 C 1.167969 14.292969 1.164062 14.511719 1.164062 14.730469 C 1.164062 15.980469 1.332031 17.191406 1.652344 18.339844 C 1.699219 18.515625 1.753906 18.691406 1.808594 18.863281 C 1.753906 18.691406 1.699219 18.515625 1.652344 18.339844 Z M 33.574219 8.269531 C 33.535156 8.332031 33.496094 8.398438 33.457031 8.464844 C 33.496094 8.398438 33.535156 8.332031 33.574219 8.269531 Z M 34.441406 6.789062 C 34.695312 6.382812 35.007812 6.046875 35.339844 5.8125 C 35.007812 6.046875 34.695312 6.382812 34.441406 6.789062 C 34.398438 6.863281 34.339844 6.960938 34.265625 7.082031 C 34.339844 6.960938 34.398438 6.863281 34.441406 6.789062 Z M 35.574219 5.664062 C 35.523438 5.691406 35.46875 5.722656 35.417969 5.757812 C 35.46875 5.722656 35.523438 5.691406 35.574219 5.664062 Z M 34.113281 9.292969 C 34.164062 9.207031 34.210938 9.125 34.257812 9.042969 C 34.210938 9.125 34.164062 9.207031 34.113281 9.292969 Z M 38.175781 6.632812 C 38.402344 6.96875 38.734375 7.496094 39.148438 8.179688 C 38.734375 7.496094 38.402344 6.96875 38.175781 6.632812 C 38.0625 6.457031 37.925781 6.277344 37.765625 6.105469 C 37.925781 6.277344 38.0625 6.457031 38.175781 6.632812 Z M 49.292969 27.5625 C 49.234375 27.460938 49.179688 27.359375 49.121094 27.257812 C 49.179688 27.359375 49.234375 27.460938 49.292969 27.5625 Z M 49.722656 28.308594 C 49.664062 28.210938 49.609375 28.113281 49.550781 28.007812 C 49.609375 28.113281 49.664062 28.210938 49.722656 28.308594 Z M 32.902344 11.757812 L 32.914062 11.734375 C 34.101562 9.675781 35.125 7.898438 35.429688 7.402344 C 35.796875 6.808594 36.230469 6.589844 36.433594 6.585938 C 36.59375 6.585938 36.890625 6.800781 37.210938 7.277344 C 38.941406 9.871094 47.242188 24.339844 50.15625 29.433594 L 51.703125 29.433594 C 49.195312 25.042969 40.15625 9.277344 38.328125 6.53125 C 37.933594 5.941406 37.289062 5.242188 36.433594 5.242188 L 36.40625 5.242188 C 35.648438 5.253906 34.839844 5.8125 34.289062 6.695312 C 33.96875 7.214844 32.921875 9.03125 31.710938 11.136719 C 28.871094 16.070312 25.335938 22.210938 24.175781 23.832031 L 23.328125 24.800781 C 22.304688 25.804688 20.890625 26.644531 19.242188 27.234375 C 17.742188 27.765625 16.121094 28.0625 14.671875 28.0625 C 7.324219 28.0625 1.34375 22.082031 1.34375 14.730469 C 1.34375 7.378906 7.324219 1.398438 14.671875 1.398438 C 16.589844 1.398438 18.464844 1.808594 20.1875 2.589844 L 20.1875 1.128906 C 18.445312 0.421875 16.578125 0.0585938 14.671875 0.0585938 C 6.582031 0.0585938 0 6.640625 0 14.730469 C 0 22.820312 6.582031 29.402344 14.671875 29.402344 C 16.089844 29.402344 17.699219 29.140625 19.199219 28.660156 C 20.859375 28.132812 22.355469 27.355469 23.53125 26.414062 L 25.265625 24.613281 C 26.46875 22.933594 30.019531 16.761719 32.875 11.804688 L 32.902344 11.757812 "/>
</g>
<g clip-path="url(#clip3)" clip-rule="nonzero">
<path style=" stroke:none;fill-rule:nonzero;fill:rgb(92.240906%,68.52417%,5.755615%);fill-opacity:1;" d="M 36.359375 2.363281 C 34.648438 2.394531 32.992188 3.425781 31.9375 5.128906 C 31.59375 5.683594 30.585938 7.429688 29.316406 9.640625 C 26.867188 13.890625 23.207031 20.25 22.015625 21.980469 L 22.007812 21.980469 C 20.738281 23.957031 17.210938 25.183594 14.671875 25.183594 C 8.847656 25.183594 4.109375 20.445312 4.109375 14.621094 C 4.109375 8.796875 8.847656 4.058594 14.671875 4.058594 C 16.628906 4.058594 18.53125 4.59375 20.1875 5.609375 L 20.1875 3.734375 C 18.484375 2.871094 16.601562 2.421875 14.671875 2.421875 C 7.945312 2.421875 2.472656 7.894531 2.472656 14.621094 C 2.472656 21.347656 7.945312 26.824219 14.671875 26.824219 C 17.585938 26.824219 21.515625 25.503906 23.246094 23.058594 L 23.253906 23.066406 C 24.382812 21.488281 28.054688 15.113281 30.734375 10.457031 C 32 8.261719 33 6.523438 33.328125 5.992188 C 34.089844 4.765625 35.234375 4.023438 36.386719 4.003906 C 36.402344 4.003906 36.417969 4.003906 36.433594 4.003906 C 37.507812 4.003906 38.484375 4.621094 39.269531 5.796875 C 41.234375 8.746094 51.335938 26.398438 53.070312 29.433594 L 54.949219 29.417969 C 54.464844 28.566406 42.804688 8.148438 40.628906 4.886719 C 39.527344 3.234375 38.007812 2.335938 36.359375 2.363281 "/>
</g>
<g clip-path="url(#clip4)" clip-rule="nonzero">
<path style=" stroke:none;fill-rule:nonzero;fill:rgb(92.240906%,68.52417%,5.755615%);fill-opacity:1;" d="M 20.078125 20.847656 L 20.871094 19.632812 L 20.078125 20.847656 C 20.066406 20.867188 20.054688 20.886719 20.042969 20.902344 C 20.054688 20.886719 20.066406 20.867188 20.078125 20.847656 Z M 21.625 20.28125 L 21.621094 20.28125 Z M 24.273438 15.84375 C 24.144531 16.0625 24.019531 16.28125 23.894531 16.492188 C 24.019531 16.28125 24.144531 16.0625 24.273438 15.84375 Z M 30.824219 4.546875 C 30.875 4.464844 30.925781 4.386719 30.976562 4.308594 C 30.925781 4.386719 30.875 4.464844 30.824219 4.546875 C 30.796875 4.585938 30.769531 4.632812 30.738281 4.683594 C 30.769531 4.632812 30.796875 4.585938 30.824219 4.546875 Z M 36.4375 1.164062 C 36.75 1.164062 37.054688 1.1875 37.351562 1.238281 C 37.054688 1.1875 36.75 1.164062 36.4375 1.164062 C 36.40625 1.164062 36.371094 1.164062 36.339844 1.164062 C 36.371094 1.164062 36.40625 1.164062 36.4375 1.164062 Z M 42.539062 3.722656 C 42.730469 4.011719 42.988281 4.421875 43.304688 4.933594 C 42.988281 4.421875 42.730469 4.011719 42.539062 3.722656 C 42.304688 3.371094 42.054688 3.046875 41.789062 2.742188 C 42.054688 3.046875 42.304688 3.371094 42.539062 3.722656 Z M 43.914062 5.933594 C 43.863281 5.847656 43.8125 5.765625 43.761719 5.683594 C 43.8125 5.765625 43.863281 5.847656 43.914062 5.933594 Z M 50.734375 19.550781 C 50.59375 19.308594 50.453125 19.0625 50.308594 18.8125 C 50.453125 19.0625 50.59375 19.308594 50.734375 19.550781 Z M 51.292969 20.523438 C 51.15625 20.28125 51.019531 20.039062 50.878906 19.796875 C 51.019531 20.039062 51.15625 20.28125 51.292969 20.523438 Z M 55.113281 27.175781 C 55.164062 27.269531 55.214844 27.355469 55.261719 27.4375 C 55.214844 27.355469 55.164062 27.269531 55.113281 27.175781 C 55.058594 27.085938 55.007812 26.992188 54.949219 26.894531 C 55.007812 26.992188 55.058594 27.085938 55.113281 27.175781 Z M 55.464844 27.792969 C 55.648438 28.117188 55.792969 28.367188 55.882812 28.523438 L 56.207031 29.09375 L 55.882812 28.523438 C 55.792969 28.367188 55.648438 28.117188 55.464844 27.792969 C 55.421875 27.71875 55.378906 27.640625 55.332031 27.5625 C 55.378906 27.640625 55.421875 27.71875 55.464844 27.792969 Z M 18.738281 21.945312 C 18.8125 21.90625 18.882812 21.867188 18.949219 21.824219 C 18.882812 21.867188 18.8125 21.90625 18.738281 21.945312 Z M 16.394531 22.796875 C 16.53125 22.769531 16.667969 22.734375 16.800781 22.699219 C 16.667969 22.734375 16.53125 22.769531 16.394531 22.796875 Z M 14.671875 23 C 14.230469 23 13.792969 22.964844 13.371094 22.898438 C 13.792969 22.964844 14.230469 23 14.671875 23 C 14.757812 23 14.839844 23 14.925781 22.996094 C 14.839844 23 14.757812 23 14.671875 23 Z M 9.414062 21.109375 C 9.519531 21.195312 9.621094 21.277344 9.730469 21.355469 C 9.621094 21.277344 9.519531 21.195312 9.414062 21.109375 Z M 8.828125 20.574219 C 8.734375 20.480469 8.644531 20.386719 8.554688 20.289062 C 8.644531 20.386719 8.734375 20.480469 8.828125 20.574219 C 8.921875 20.667969 9.019531 20.761719 9.117188 20.851562 C 9.019531 20.761719 8.921875 20.667969 8.828125 20.574219 Z M 8.046875 19.675781 C 8.128906 19.78125 8.210938 19.886719 8.292969 19.988281 C 8.210938 19.886719 8.128906 19.78125 8.046875 19.675781 Z M 6.402344 14.730469 C 6.402344 14.578125 6.40625 14.425781 6.414062 14.277344 C 6.40625 14.425781 6.402344 14.578125 6.402344 14.730469 C 6.402344 15.171875 6.4375 15.609375 6.503906 16.035156 C 6.4375 15.609375 6.402344 15.171875 6.402344 14.730469 Z M 8.292969 9.472656 C 8.210938 9.574219 8.128906 9.679688 8.046875 9.785156 C 8.128906 9.679688 8.210938 9.574219 8.292969 9.472656 Z M 8.828125 8.886719 C 8.734375 8.980469 8.644531 9.074219 8.554688 9.171875 C 8.644531 9.074219 8.734375 8.980469 8.828125 8.886719 Z M 12.613281 5.710938 C 12.335938 5.773438 12.066406 5.847656 11.800781 5.933594 C 12.066406 5.847656 12.335938 5.773438 12.613281 5.710938 Z M 16.609375 5.679688 C 15.976562 5.546875 15.328125 5.476562 14.671875 5.476562 C 13.996094 5.476562 13.335938 5.550781 12.699219 5.691406 C 13.335938 5.550781 13.996094 5.476562 14.671875 5.476562 C 15.328125 5.476562 15.976562 5.546875 16.609375 5.679688 Z M 14.25 6.46875 C 14.390625 6.464844 14.53125 6.460938 14.671875 6.460938 C 14.53125 6.460938 14.390625 6.464844 14.25 6.46875 Z M 17.820312 22.171875 C 16.785156 22.585938 15.636719 22.820312 14.671875 22.820312 C 10.210938 22.820312 6.582031 19.191406 6.582031 14.730469 C 6.582031 10.269531 10.210938 6.640625 14.671875 6.640625 C 16.199219 6.640625 17.6875 7.066406 18.96875 7.871094 L 20.1875 8.636719 L 20.1875 7.050781 L 19.683594 6.738281 C 18.1875 5.796875 16.453125 5.296875 14.671875 5.296875 C 9.472656 5.296875 5.242188 9.53125 5.242188 14.730469 C 5.242188 19.929688 9.472656 24.164062 14.671875 24.164062 C 15.785156 24.164062 17.101562 23.894531 18.296875 23.425781 C 19.601562 22.910156 20.582031 22.21875 21.058594 21.476562 L 21.675781 20.53125 L 21.679688 20.53125 L 21.777344 20.375 C 23.335938 17.871094 26.226562 12.851562 28.335938 9.183594 L 28.339844 9.175781 C 29.617188 6.960938 30.621094 5.210938 30.976562 4.640625 C 32.234375 2.609375 34.242188 1.378906 36.339844 1.34375 C 36.375 1.34375 36.40625 1.34375 36.4375 1.34375 C 38.449219 1.34375 40.269531 2.417969 41.570312 4.367188 C 43.722656 7.597656 54.503906 26.472656 55.726562 28.613281 L 56.195312 29.433594 L 57.738281 29.433594 L 56.890625 27.949219 C 55.667969 25.804688 44.878906 6.910156 42.6875 3.625 C 41.128906 1.289062 38.910156 0 36.4375 0 L 36.320312 0.00390625 C 33.761719 0.0429688 31.335938 1.515625 29.835938 3.933594 C 29.464844 4.535156 28.453125 6.292969 27.171875 8.519531 C 25.226562 11.898438 22.285156 17.003906 20.71875 19.539062 L 19.929688 20.75 C 19.609375 21.25 18.839844 21.765625 17.820312 22.171875 "/>
</g>
<g clip-path="url(#clip5)" clip-rule="nonzero">
<path style=" stroke:none;fill-rule:nonzero;fill:rgb(8.828735%,14.115906%,24.520874%);fill-opacity:1;" d="M 87.414062 21.792969 C 87.019531 23.046875 86.484375 24.136719 85.808594 25.0625 C 85.136719 25.988281 84.359375 26.761719 83.488281 27.375 C 82.617188 27.988281 81.671875 28.453125 80.652344 28.765625 C 79.636719 29.078125 78.597656 29.234375 77.542969 29.234375 C 76.140625 29.234375 74.902344 28.996094 73.820312 28.511719 C 72.738281 28.03125 71.824219 27.355469 71.078125 26.488281 C 70.328125 25.621094 69.757812 24.597656 69.363281 23.417969 C 68.96875 22.238281 68.773438 20.9375 68.773438 19.515625 C 68.773438 17.347656 69.128906 15.335938 69.84375 13.480469 C 70.554688 11.628906 71.488281 10.019531 72.640625 8.660156 C 73.796875 7.296875 75.117188 6.238281 76.601562 5.480469 C 78.085938 4.722656 79.589844 4.34375 81.113281 4.34375 C 81.949219 4.34375 82.753906 4.480469 83.527344 4.757812 C 84.300781 5.035156 85.019531 5.449219 85.679688 6.003906 C 86.125 5.59375 86.558594 5.257812 86.988281 4.992188 C 87.417969 4.726562 87.855469 4.558594 88.296875 4.484375 C 88.371094 4.582031 88.4375 4.925781 88.5 5.515625 C 88.558594 6.105469 88.589844 6.871094 88.589844 7.808594 C 88.589844 8.507812 88.566406 9.273438 88.519531 10.105469 C 88.46875 10.933594 88.382812 11.808594 88.261719 12.722656 L 87.117188 12.722656 C 86.921875 10.410156 86.289062 8.671875 85.222656 7.503906 C 84.152344 6.335938 82.773438 5.75 81.078125 5.75 C 79.507812 5.75 78.171875 6.191406 77.082031 7.070312 C 75.988281 7.949219 75.105469 9.0625 74.429688 10.410156 C 73.753906 11.761719 73.261719 13.230469 72.957031 14.820312 C 72.648438 16.410156 72.496094 17.925781 72.496094 19.371094 C 72.496094 20.601562 72.605469 21.71875 72.828125 22.730469 C 73.046875 23.742188 73.402344 24.609375 73.894531 25.332031 C 74.386719 26.054688 75.011719 26.617188 75.773438 27.011719 C 76.535156 27.410156 77.457031 27.609375 78.535156 27.609375 C 79.371094 27.609375 80.136719 27.511719 80.839844 27.320312 C 81.539062 27.128906 82.207031 26.796875 82.84375 26.328125 C 83.484375 25.855469 84.097656 25.21875 84.6875 24.414062 C 85.277344 23.605469 85.878906 22.601562 86.492188 21.394531 L 87.414062 21.792969 "/>
</g>
<g clip-path="url(#clip6)" clip-rule="nonzero">
<path style=" stroke:none;fill-rule:nonzero;fill:rgb(8.828735%,14.115906%,24.520874%);fill-opacity:1;" d="M 99.164062 15.398438 C 98.917969 15.15625 98.652344 14.976562 98.371094 14.855469 C 98.089844 14.734375 97.738281 14.675781 97.320312 14.675781 C 96.511719 14.675781 95.785156 15.023438 95.148438 15.722656 C 94.507812 16.421875 93.96875 17.277344 93.527344 18.289062 C 93.085938 19.300781 92.746094 20.378906 92.515625 21.519531 C 92.28125 22.667969 92.164062 23.671875 92.164062 24.539062 C 92.164062 25.117188 92.183594 25.566406 92.21875 25.894531 C 92.257812 26.21875 92.316406 26.453125 92.402344 26.597656 C 92.488281 26.742188 92.601562 26.832031 92.734375 26.867188 C 92.871094 26.90625 93.023438 26.921875 93.195312 26.921875 C 93.464844 26.921875 93.832031 26.710938 94.300781 26.289062 C 94.765625 25.871094 95.257812 25.34375 95.773438 24.71875 C 96.289062 24.09375 96.785156 23.398438 97.265625 22.640625 C 97.746094 21.882812 98.132812 21.167969 98.425781 20.492188 Z M 102.660156 25.621094 C 102.417969 26.007812 102.101562 26.40625 101.722656 26.8125 C 101.339844 27.226562 100.941406 27.589844 100.527344 27.917969 C 100.109375 28.242188 99.695312 28.507812 99.292969 28.710938 C 98.886719 28.917969 98.535156 29.019531 98.242188 29.019531 C 97.996094 29.019531 97.800781 28.941406 97.652344 28.785156 C 97.503906 28.628906 97.40625 28.332031 97.359375 27.898438 C 97.359375 27.777344 97.363281 27.65625 97.375 27.539062 C 97.386719 27.417969 97.40625 27.296875 97.429688 27.175781 L 97.875 23.5625 C 97.554688 24.09375 97.15625 24.675781 96.675781 25.316406 C 96.199219 25.953125 95.667969 26.554688 95.09375 27.121094 C 94.515625 27.6875 93.925781 28.15625 93.324219 28.53125 C 92.722656 28.90625 92.128906 29.089844 91.539062 29.089844 C 91.265625 29.089844 90.996094 29.054688 90.726562 28.984375 C 90.457031 28.910156 90.210938 28.734375 89.992188 28.457031 C 89.769531 28.183594 89.585938 27.773438 89.4375 27.230469 C 89.289062 26.6875 89.21875 25.949219 89.21875 25.007812 C 89.21875 23.441406 89.492188 21.945312 90.046875 20.511719 C 90.597656 19.078125 91.324219 17.820312 92.21875 16.734375 C 93.117188 15.652344 94.117188 14.789062 95.222656 14.152344 C 96.328125 13.511719 97.429688 13.195312 98.535156 13.195312 C 98.976562 13.195312 99.328125 13.234375 99.585938 13.320312 C 99.84375 13.40625 100.082031 13.496094 100.304688 13.589844 C 100.527344 13.6875 100.746094 13.777344 100.96875 13.863281 C 101.1875 13.945312 101.46875 13.988281 101.816406 13.988281 L 100.339844 24.214844 C 100.316406 24.40625 100.292969 24.625 100.269531 24.863281 C 100.242188 25.105469 100.230469 25.332031 100.230469 25.550781 C 100.230469 25.742188 100.25 25.917969 100.285156 26.074219 C 100.324219 26.230469 100.402344 26.308594 100.527344 26.308594 C 100.769531 26.308594 101.3125 25.828125 102.144531 24.863281 L 102.660156 25.621094 "/>
</g>
<g clip-path="url(#clip7)" clip-rule="nonzero">
<path style=" stroke:none;fill-rule:nonzero;fill:rgb(8.828735%,14.115906%,24.520874%);fill-opacity:1;" d="M 109.992188 25.621094 C 109.722656 26.007812 109.390625 26.40625 108.996094 26.8125 C 108.605469 27.226562 108.191406 27.589844 107.765625 27.917969 C 107.335938 28.242188 106.910156 28.507812 106.492188 28.710938 C 106.074219 28.917969 105.71875 29.019531 105.425781 29.019531 C 105.152344 29.019531 104.9375 28.921875 104.78125 28.730469 C 104.621094 28.539062 104.527344 28.175781 104.503906 27.644531 C 104.503906 27.523438 104.527344 27.34375 104.578125 27.105469 L 107.929688 8.171875 C 107.953125 8.050781 107.972656 7.914062 107.984375 7.757812 C 107.996094 7.597656 108.003906 7.472656 108.003906 7.375 C 107.929688 6.390625 107.414062 5.894531 106.457031 5.894531 L 106.566406 4.917969 L 111.132812 3.800781 L 107.636719 24.214844 C 107.585938 24.453125 107.542969 24.699219 107.507812 24.953125 C 107.46875 25.207031 107.449219 25.441406 107.449219 25.65625 C 107.449219 26.09375 107.546875 26.308594 107.746094 26.308594 C 108.089844 26.308594 108.679688 25.828125 109.515625 24.863281 L 109.992188 25.621094 "/>
</g>
<g clip-path="url(#clip8)" clip-rule="nonzero">
<path style=" stroke:none;fill-rule:nonzero;fill:rgb(8.828735%,14.115906%,24.520874%);fill-opacity:1;" d="M 132.976562 25.621094 C 132.730469 26.007812 132.417969 26.40625 132.039062 26.8125 C 131.65625 27.226562 131.257812 27.589844 130.839844 27.917969 C 130.421875 28.242188 130.007812 28.507812 129.589844 28.710938 C 129.171875 28.917969 128.8125 29.019531 128.519531 29.019531 C 128.25 29.019531 128.054688 28.921875 127.929688 28.730469 C 127.808594 28.539062 127.734375 28.175781 127.710938 27.644531 C 127.710938 27.476562 127.746094 27.320312 127.820312 27.175781 L 129.257812 19.589844 C 129.453125 18.699219 129.582031 17.976562 129.644531 17.421875 C 129.703125 16.867188 129.746094 16.445312 129.773438 16.15625 C 129.773438 15.890625 129.703125 15.691406 129.570312 15.558594 C 129.433594 15.425781 129.292969 15.359375 129.144531 15.359375 C 128.1875 15.359375 126.320312 17.648438 123.546875 22.226562 L 122.515625 28.222656 L 119.753906 29.054688 L 121.742188 19.589844 C 121.9375 18.792969 122.074219 18.132812 122.148438 17.601562 C 122.222656 17.070312 122.257812 16.652344 122.257812 16.335938 C 122.257812 15.6875 122.0625 15.359375 121.667969 15.359375 C 120.636719 15.359375 118.6875 17.578125 115.8125 22.007812 L 114.558594 28.40625 L 112.128906 29.273438 L 114.339844 17.492188 C 114.386719 17.371094 114.410156 17.234375 114.410156 17.078125 C 114.410156 16.921875 114.425781 16.734375 114.449219 16.519531 C 114.449219 16.179688 114.363281 16.011719 114.191406 16.011719 C 113.921875 16.011719 113.382812 16.507812 112.570312 17.492188 L 112.128906 16.699219 C 112.398438 16.3125 112.710938 15.921875 113.066406 15.523438 C 113.425781 15.125 113.796875 14.765625 114.191406 14.441406 C 114.585938 14.113281 114.972656 13.84375 115.351562 13.628906 C 115.730469 13.410156 116.070312 13.300781 116.363281 13.300781 C 116.585938 13.300781 116.75 13.375 116.863281 13.519531 C 116.972656 13.664062 117.050781 13.914062 117.101562 14.277344 C 117.101562 14.6875 117.046875 15.308594 116.9375 16.136719 C 116.824219 16.96875 116.574219 18.191406 116.179688 19.804688 C 119.199219 15.398438 121.65625 13.195312 123.546875 13.195312 C 123.890625 13.195312 124.160156 13.398438 124.355469 13.808594 C 124.554688 14.21875 124.652344 14.820312 124.652344 15.613281 C 124.652344 16.144531 124.601562 16.710938 124.503906 17.3125 C 124.40625 17.914062 124.261719 18.589844 124.0625 19.335938 C 125.488281 17.289062 126.769531 15.753906 127.910156 14.730469 C 129.054688 13.707031 130.09375 13.195312 131.023438 13.195312 C 131.246094 13.195312 131.511719 13.363281 131.816406 13.699219 C 132.125 14.035156 132.277344 14.554688 132.277344 15.253906 C 132.277344 15.613281 132.234375 16.109375 132.148438 16.734375 C 132.0625 17.359375 131.957031 18.121094 131.835938 19.011719 L 130.839844 24.214844 C 130.789062 24.625 130.753906 24.960938 130.730469 25.226562 C 130.703125 25.488281 130.691406 25.683594 130.691406 25.800781 C 130.691406 26.140625 130.769531 26.308594 130.914062 26.308594 C 131.136719 26.308594 131.6875 25.828125 132.570312 24.863281 L 132.976562 25.621094 "/>
</g>
<path style=" stroke:none;fill-rule:nonzero;fill:rgb(8.828735%,14.115906%,24.520874%);fill-opacity:1;" d="M 145.941406 9.292969 L 141.964844 16.878906 C 141.769531 17.191406 141.628906 17.457031 141.539062 17.671875 C 141.453125 17.890625 141.410156 18.070312 141.410156 18.214844 C 141.410156 18.503906 141.792969 18.648438 142.554688 18.648438 L 146.714844 18.648438 C 147.429688 18.648438 147.785156 18.480469 147.785156 18.144531 C 147.785156 18.023438 147.765625 17.871094 147.730469 17.691406 C 147.691406 17.511719 147.648438 17.289062 147.601562 17.023438 Z M 146.089844 28.695312 L 146.164062 27.609375 C 146.480469 27.5625 146.820312 27.511719 147.175781 27.464844 C 147.53125 27.417969 147.863281 27.355469 148.171875 27.285156 C 148.476562 27.210938 148.730469 27.121094 148.925781 27.011719 C 149.121094 26.90625 149.222656 26.777344 149.222656 26.632812 C 149.222656 26.511719 149.214844 26.382812 149.203125 26.238281 C 149.1875 26.09375 149.160156 25.863281 149.109375 25.550781 L 148.300781 21.105469 C 148.226562 20.792969 147.992188 20.558594 147.601562 20.402344 C 147.207031 20.246094 146.800781 20.167969 146.386719 20.167969 L 141.484375 20.167969 C 140.625 20.167969 140.0625 20.480469 139.789062 21.105469 L 138.097656 24.863281 C 138.046875 25.007812 137.992188 25.183594 137.929688 25.386719 C 137.867188 25.59375 137.839844 25.816406 137.839844 26.054688 C 137.839844 26.996094 138.734375 27.464844 140.527344 27.464844 L 140.382812 28.695312 L 132.9375 28.695312 L 133.160156 27.464844 C 133.800781 27.417969 134.359375 27.175781 134.835938 26.742188 C 135.316406 26.308594 135.777344 25.683594 136.21875 24.863281 L 147.195312 4.199219 L 148.117188 4.632812 L 152.867188 26.09375 C 152.964844 26.695312 153.199219 27.066406 153.566406 27.210938 C 153.9375 27.355469 154.511719 27.488281 155.300781 27.609375 L 155.1875 28.695312 L 146.089844 28.695312 "/>
<g clip-path="url(#clip9)" clip-rule="nonzero">
<path style=" stroke:none;fill-rule:nonzero;fill:rgb(8.828735%,14.115906%,24.520874%);fill-opacity:1;" d="M 162.074219 9.976562 C 160.898438 9.976562 160.308594 9.28125 160.308594 7.882812 C 160.308594 6.535156 160.945312 5.859375 162.222656 5.859375 C 163.425781 5.859375 164.027344 6.535156 164.027344 7.882812 C 164.027344 9.28125 163.378906 9.976562 162.074219 9.976562 Z M 162.851562 25.621094 C 162.578125 26.007812 162.253906 26.40625 161.871094 26.8125 C 161.492188 27.226562 161.09375 27.589844 160.675781 27.917969 C 160.257812 28.242188 159.839844 28.507812 159.425781 28.710938 C 159.007812 28.917969 158.648438 29.019531 158.355469 29.019531 C 157.964844 29.019531 157.71875 28.886719 157.617188 28.621094 C 157.519531 28.355469 157.472656 28.054688 157.472656 27.71875 C 157.472656 27.597656 157.476562 27.5 157.488281 27.429688 C 157.503906 27.355469 157.519531 27.273438 157.546875 27.175781 L 159.609375 16.519531 C 159.632812 16.46875 159.644531 16.398438 159.644531 16.300781 C 159.644531 16.109375 159.570312 16.011719 159.425781 16.011719 C 159.152344 16.011719 158.578125 16.507812 157.691406 17.492188 L 157.25 16.699219 C 157.519531 16.3125 157.851562 15.921875 158.246094 15.523438 C 158.636719 15.125 159.042969 14.765625 159.460938 14.441406 C 159.878906 14.113281 160.296875 13.84375 160.714844 13.628906 C 161.132812 13.410156 161.5 13.300781 161.816406 13.300781 C 162.089844 13.300781 162.289062 13.398438 162.425781 13.589844 C 162.5625 13.785156 162.628906 14.132812 162.628906 14.640625 C 162.628906 14.734375 162.628906 14.820312 162.628906 14.890625 C 162.628906 14.964844 162.617188 15.058594 162.59375 15.179688 L 160.640625 24.214844 C 160.589844 24.480469 160.539062 24.738281 160.492188 24.988281 C 160.441406 25.242188 160.417969 25.476562 160.417969 25.695312 C 160.417969 26.105469 160.515625 26.308594 160.714844 26.308594 C 160.984375 26.308594 161.5625 25.828125 162.445312 24.863281 L 162.851562 25.621094 "/>
</g>
<g clip-path="url(#clip10)" clip-rule="nonzero">
<path style=" stroke:none;fill-rule:nonzero;fill:rgb(8.828735%,14.115906%,24.520874%);fill-opacity:1;" d="M 165.6875 29.273438 L 167.820312 17.492188 C 167.847656 17.347656 167.863281 17.210938 167.878906 17.078125 C 167.890625 16.945312 167.894531 16.804688 167.894531 16.660156 C 167.894531 16.226562 167.796875 16.011719 167.601562 16.011719 C 167.476562 16.011719 167.246094 16.136719 166.902344 16.390625 C 166.558594 16.644531 166.152344 17.011719 165.6875 17.492188 L 165.28125 16.699219 C 165.550781 16.3125 165.863281 15.921875 166.21875 15.523438 C 166.574219 15.125 166.941406 14.765625 167.324219 14.441406 C 167.703125 14.113281 168.085938 13.84375 168.46875 13.628906 C 168.847656 13.410156 169.210938 13.300781 169.554688 13.300781 C 169.773438 13.300781 169.957031 13.367188 170.105469 13.5 C 170.253906 13.632812 170.328125 13.894531 170.328125 14.277344 C 170.328125 14.566406 170.300781 15.074219 170.253906 15.792969 C 170.203125 16.519531 170.03125 17.421875 169.738281 18.503906 C 170.058594 17.855469 170.40625 17.210938 170.785156 16.570312 C 171.167969 15.933594 171.574219 15.359375 172.003906 14.855469 C 172.433594 14.347656 172.863281 13.933594 173.292969 13.609375 C 173.722656 13.285156 174.144531 13.121094 174.5625 13.121094 C 174.980469 13.121094 175.324219 13.253906 175.59375 13.519531 C 175.863281 13.785156 176 14.179688 176 14.710938 C 176 15.335938 175.875 15.84375 175.632812 16.226562 C 175.386719 16.613281 175.042969 16.804688 174.601562 16.804688 C 174.355469 16.804688 174.175781 16.769531 174.066406 16.699219 C 173.953125 16.625 173.855469 16.542969 173.769531 16.445312 C 173.683594 16.347656 173.585938 16.265625 173.476562 16.191406 C 173.363281 16.121094 173.1875 16.085938 172.941406 16.085938 C 172.574219 16.085938 172.117188 16.5 171.578125 17.332031 C 171.039062 18.160156 170.328125 19.445312 169.441406 21.179688 L 168.152344 28.40625 L 165.6875 29.273438 "/>
</g>
</g>
</svg>
