<svg xmlns="http://www.w3.org/2000/svg" width="176pt" height="47.187" viewBox="0 0 176 35.39"><defs><clipPath id="a"><path d="M0 0h26v35.39H0Zm0 0"/></clipPath></defs><path d="M72.906 20.45V3.745l-.054-.055-4.668 16.758h-5.2l-4.39-16.898-.055.054V20.45h-5.043V-.004h8.984l3.258 14.492h.055l3.34-14.492H78V20.45zM94.125 20.45H89.32v-1.88h-.058c-.633.996-1.813 2.293-4.399 2.293-3.27 0-4.968-1.77-4.914-4.617.055-3.375 3.13-4.758 7.637-4.758h1.648c0-1.215.278-2.984-1.812-2.902-1.262.055-1.676 1.3-1.649 2.129h-4.921c-.028-1.965.992-3.098 2.39-3.735 1.43-.664 3.219-.828 4.754-.828 2.805 0 6.184 1.188 6.129 4.313Zm-7.336-2.63c2.254 0 2.445-2.129 2.445-3.98-1.097 0-2.14-.059-2.855.305-.77.386-1.375.882-1.375 1.851 0 .996.797 1.824 1.785 1.824M156.367 20.45h-4.812v-1.88h-.055c-.633.996-1.812 2.293-4.395 2.293-3.273 0-4.976-1.77-4.921-4.617.054-3.375 3.132-4.758 7.64-4.758h1.649c0-1.215.277-2.984-1.813-2.902-1.265.055-1.676 1.3-1.648 2.129h-4.918c-.031-1.965.988-3.098 2.386-3.735 1.43-.664 3.22-.828 4.758-.828 2.801 0 6.184 1.188 6.13 4.313Zm-7.34-2.63c2.254 0 2.446-2.129 2.446-3.98-1.102 0-2.141-.059-2.856.305-.77.386-1.375.882-1.375 1.851 0 .996.797 1.824 1.785 1.824M96.48 6.566h5.125V9.36l.055.098c.606-2.297 2.309-3.168 4.617-3.11v4.45c-.386-.024-.742-.024-1.097-.024-2.723.024-3.657 1.657-3.575 4.313v5.367H96.48zM166.23 6.566h5.125V9.36l.055.098c.606-2.297 2.309-3.168 4.59-3.11v4.45c-.36-.024-.715-.024-1.074-.024-2.719.024-3.656 1.657-3.57 4.313v5.367h-5.126z" style="stroke:none;fill-rule:nonzero;fill:#1e355d;fill-opacity:1"/><path d="M96.48 6.566h5.125V9.36l.055.098c.606-2.297 2.309-3.168 4.594-3.11v4.45c-.363-.024-.719-.024-1.074-.024-2.723.024-3.657 1.657-3.575 4.313v5.367H96.48zM107.875 3.664l5.027-1.977v4.88h3.024v3.32h-3.024v5.504c0 .359-.218 2.156.993 2.156.687 0 1.398 0 2.003-.082v3.125c-1.18.223-1.84.277-2.609.277-3.547 0-5.691-.496-5.414-4.758zM118.266 6.566h5.222V20.45h-5.222Zm-.032-6.57h5.278v3.707h-5.278zM125.871 6.566H131v1.52c1.18-1.383 2.555-1.934 4.313-1.934 2.968 0 5.167 1.934 5.167 5.004v9.293h-5.222v-8.156c-.055-1.36-.387-2.824-2.008-2.824-2.578 0-2.25 2.851-2.25 3.015v7.965h-5.129zM158.738 6.566h5.219V20.45h-5.219Zm-.027-6.57h5.277v3.707h-5.277z" style="stroke:none;fill-rule:nonzero;fill:#1e355d;fill-opacity:1"/><g clip-path="url(#a)"><path d="m0 20.441 12.23 14.95h8.98L8.978 20.449 25.719.004h-6.051a6.16 6.16 0 0 0-4.758 2.238z" style="stroke:none;fill-rule:nonzero;fill:#e41d29;fill-opacity:1"/></g><path d="M21.227 20.45 37.973.003h-6.055a6.16 6.16 0 0 0-4.758 2.238l-14.91 18.2zM33.48 20.45 50.223.003h-6.055a6.16 6.16 0 0 0-4.758 2.238l-14.91 18.2z" style="stroke:none;fill-rule:nonzero;fill:#e41d29;fill-opacity:1"/></svg>