<svg xmlns="http://www.w3.org/2000/svg" width="193.253" height="78.893" viewBox="0 0 144.94 59.17"><defs><clipPath id="a"><path d="M129 30h15.941v16H129Zm0 0"/></clipPath><clipPath id="b"><path d="M21 38h11v21.172H21Zm0 0"/></clipPath><clipPath id="c"><path d="M20 36h13v23.172H20Zm0 0"/></clipPath></defs><g clip-path="url(#a)"><path d="M137.434 30.375a7.508 7.508 0 1 1 0 15.016 7.505 7.505 0 0 1-7.508-7.508 7.51 7.51 0 0 1 7.508-7.508" style="stroke:none;fill-rule:nonzero;fill:#fbc40b;fill-opacity:1"/></g><path d="M15.992 52.063h2.153l.093-1.333c.133-1.992 1.395-3.296 3.032-3.296h.195l-.711-1.637c-1.258.043-2.121.848-2.594 2.441h-.058l-.016-2.547-2.352.188Zm-2.258.023.032-6.54-2.598.306.23 6.234Zm-1.289-9.648c-.484 0-.879.34-.879.761 0 .438.395.766.88.766.484 0 .878-.34.878-.766 0-.422-.394-.761-.879-.761m-9.43 6.644h3.079l1.21 3.11 2.958-.29-3.848-8.398h-2.61L0 51.89l1.7.261Zm.38-1.043 1.168-2.86 1.183 3.06-2.242-.083z" style="stroke:none;fill-rule:evenodd;fill:#50aae3;fill-opacity:1"/><path d="m58.586 36.988-.094.067s-7.781 2.148-12.762 1.566c-3.5-.41-8.675-2.523-8.675-2.523s5.715 1.687 9.48 1.968c4.707.348 12.05-1.078 12.05-1.078m70.594 8.469h-2.535l.078 6.55h2.257l.047-1.277c.075-2.058.97-3.257 1.711-3.257q.638 0 .637.87c0 .079-.016.157-.016.25l-.242 3.391.047.063 2.469-.09.199-4.695v-.106c0-.922-.61-1.422-1.652-1.422-1.246 0-2.262.645-3.02 1.95h-.09l.106-2.227Zm-11.082 2.648 1.757.383c.301-1.41.801-2.11 1.532-2.11.8 0 .925.806.925 2.677v.41c-.472-.188-1.078-.305-1.757-.305-1.489 0-2.52.7-2.52 1.637 0 .867.668 1.437 1.863 1.437 1.036 0 1.946-.355 2.457-.925h.032l.093 1.043 2.422-.172c-.242-1.532-.242-2.758-.242-3.664 0-.543 0-.977-.047-1.282-.21-1.238-1.043-1.71-2.789-1.71-1.926 0-3.168.867-3.73 2.581Zm4.242 2.11c-.043.62-.637 1.082-1.211 1.082-.5 0-.879-.277-.879-.617 0-.465.395-.727 1.09-.727.347 0 .668.09 1.004.262Zm-7.235-2.266h-2.335l-.06-.11c.243-.948.79-1.46 1.306-1.46.695 0 1.09.527 1.09 1.57m1.973.828c-.031-2.093-1.226-3.254-3.2-3.254-2.214 0-3.882 1.594-3.882 3.836 0 1.91 1.262 2.871 3.777 2.871 1.457 0 2.579-.238 3.348-.671l-.406-.961a4.3 4.3 0 0 1-2.031.5c-1.457 0-2.141-.633-2.141-1.977 0-.105 0-.226.016-.344Zm-13.094-3.32h-2.53l.073 6.55h2.262l.047-1.277c.074-2.058.969-3.257 1.71-3.257q.64 0 .638.87c0 .079-.016.157-.016.25l-.242 3.391.047.063 2.468-.09.2-4.695v-.106c0-.922-.61-1.422-1.657-1.422-1.242 0-2.257.645-3.015 1.95h-.09Zm-11.082 2.648 1.758.383c.305-1.41.805-2.11 1.535-2.11.801 0 .922.806.922 2.677v.41c-.469-.188-1.078-.305-1.758-.305-1.488 0-2.515.7-2.515 1.637 0 .867.664 1.437 1.863 1.437 1.031 0 1.941-.355 2.453-.925h.035l.09 1.043 2.426-.172c-.242-1.532-.242-2.758-.242-3.664 0-.543 0-.977-.047-1.282-.211-1.238-1.047-1.71-2.79-1.71-1.925 0-3.171.867-3.73 2.581m4.246 2.11c-.046.62-.636 1.082-1.214 1.082-.5 0-.88-.277-.88-.617 0-.465.395-.727 1.094-.727.348 0 .668.09 1 .262M86.91 52.062h2.149l.093-1.332c.137-1.992 1.395-3.296 3.032-3.296h.199l-.715-1.637c-1.258.043-2.121.848-2.59 2.441h-.062l-.012-2.547-2.352.188Zm-6.465 0h2.153l.09-1.332c.136-1.992 1.394-3.296 3.03-3.296h.2l-.711-1.637c-1.258.043-2.125.848-2.594 2.441h-.058l-.016-2.547-2.352.188Zm-3.793-4.113h-2.336l-.058-.11c.242-.948.785-1.46 1.3-1.46.7 0 1.094.527 1.094 1.57m1.97.828c-.028-2.093-1.227-3.254-3.2-3.254-2.211 0-3.879 1.594-3.879 3.836 0 1.91 1.258 2.871 3.773 2.871 1.457 0 2.579-.238 3.352-.671l-.41-.961a4.3 4.3 0 0 1-2.031.5c-1.457 0-2.137-.633-2.137-1.977 0-.105 0-.226.012-.344Zm-7.653 2.903-.29-.82c-.452.214-.863.316-1.242.316-.742 0-.953-.496-.953-1.684 0-.62.043-1.336.137-2.137H70.7l.09-.843h-2.094l.274-2.032-2.547.184-.215 1.848H64.68l-.125.843h1.578a28 28 0 0 0-.106 2.083c0 2.042.563 2.796 2.336 2.796.953 0 1.801-.172 2.606-.554m-7.352.41.028-6.543-2.59.305.226 6.238Zm-1.289-9.653c-.484 0-.879.34-.879.762 0 .438.39.766.88.766.483 0 .878-.34.878-.766 0-.422-.395-.761-.879-.761m-3.078-.226-2.547.215.258 3.465c-.5-.25-1-.356-1.578-.356-1.848 0-3.242 1.488-3.242 3.836 0 1.926.71 2.875 2.183 2.875 1.164 0 2-.566 2.59-1.738l.215 2 2.484-.13c-.258-.91-.379-3.507-.379-7.796 0-.742.016-1.535.016-2.371m-2.332 5.3v.977c-.32 1.438-.836 2.164-1.441 2.164-.7 0-.942-.558-.942-1.691 0-1.727.5-2.598 1.363-2.598.426 0 .747.387 1.016 1.149Zm-7.781.438H46.8l-.059-.11c.242-.948.79-1.46 1.305-1.46.695 0 1.09.527 1.09 1.57m1.968.828c-.027-2.093-1.226-3.254-3.199-3.254-2.21 0-3.879 1.594-3.879 3.836 0 1.91 1.258 2.871 3.774 2.871 1.457 0 2.578-.238 3.351-.671l-.41-.961a4.3 4.3 0 0 1-2.031.5c-1.453 0-2.137-.633-2.137-1.977 0-.105 0-.226.016-.344Zm-19.757-5.234-.512 8.465h1.832l.137-6.29h.09l2.351 5.79h1.758l2.262-5.63h.117l.625 6.169 2.652-.094-.972-8.465h-2.97l-2.124 5.328-2.168-5.406" style="stroke:none;fill-rule:evenodd;fill:#274da1;fill-opacity:1"/><path d="m585.86 221.817-.938-.664s-77.813-21.484-127.617-15.664c-35 4.102-86.758 25.234-86.758 25.234s57.148-16.875 94.805-19.687c47.07-3.477 120.507 10.781 120.507 10.781Zm0 0" style="fill:none;stroke-width:3.43;stroke-linecap:butt;stroke-linejoin:miter;stroke:#274da1;stroke-opacity:1;stroke-miterlimit:3.864" transform="matrix(.1 0 0 -.1 0 59.17)"/><path d="M27.363 33.34c.223 0 .403.18.403.398a.401.401 0 0 1-.801 0 .4.4 0 0 1 .398-.398" style="stroke:none;fill-rule:nonzero;fill:#274da1;fill-opacity:1"/><path d="M32.313 40.55s-3.34 1.532-4.52 3.391c-2.402 3.786 2.7 11.172 2.7 11.172s-2.673-6.633-1.13-10.418c.746-1.84 2.95-4.144 2.95-4.144" style="stroke:none;fill-rule:evenodd;fill:#274da1;fill-opacity:1"/><path d="M323.125 186.192s-33.398-15.312-45.195-33.906c-24.024-37.852 26.992-111.719 26.992-111.719s-26.719 66.328-11.29 104.18c7.462 18.398 29.493 41.445 29.493 41.445Zm0 0" style="fill:none;stroke-width:2.59;stroke-linecap:butt;stroke-linejoin:miter;stroke:#274da1;stroke-opacity:1;stroke-miterlimit:3.864" transform="matrix(.1 0 0 -.1 0 59.17)"/><path d="M66.906 3.07s-18.71 9.164-24.047 18.52c-2.203 3.86 2.63 8.082-.34 11.39-1.921 2.141-6.761 2.938-6.761 2.938s7.031-.105 9.172-3.234c2.136-3.133-1.72-6.196-.313-9.711 3.516-8.79 22.29-19.903 22.29-19.903" style="stroke:none;fill-rule:evenodd;fill:#274da1;fill-opacity:1"/><path d="M669.063 560.997s-187.11-91.64-240.47-185.195c-22.03-38.594 26.29-80.82-3.398-113.907-19.218-21.406-67.617-29.375-67.617-29.375s70.313 1.055 91.719 32.344c21.367 31.328-17.188 61.953-3.125 97.11 35.156 87.89 222.89 199.023 222.89 199.023Zm0 0" style="fill:none;stroke-width:2.59;stroke-linecap:butt;stroke-linejoin:miter;stroke:#274da1;stroke-opacity:1;stroke-miterlimit:3.864" transform="matrix(.1 0 0 -.1 0 59.17)"/><path d="M23.535 35.441s2.09-.472 3.43-.351c3.289.293 3.996 3.496 7.105 4.613 4.387 1.574 7.633-1.566 11.953.188 3.57 1.453 7.625 6.297 7.625 6.297l.032.066s-4.785-4.746-8.742-5.742c-3.91-.989-6.458 2.07-10.31.875-3.55-1.102-3.925-5.04-7.562-5.793-1.347-.278-3.53-.149-3.53-.149z" style="stroke:none;fill-rule:evenodd;fill:#274da1;fill-opacity:1"/><path d="M235.352 237.286s20.898 4.726 34.296 3.516c32.891-2.93 39.961-34.961 71.055-46.133 43.867-15.742 76.328 15.664 119.531-1.875 35.704-14.532 76.25-62.969 76.25-62.969l.313-.664s-47.852 47.46-87.422 57.422c-39.102 9.883-64.57-20.703-103.086-8.75-35.508 11.015-39.258 50.39-75.625 57.93-13.476 2.773-35.312 1.484-35.312 1.484Zm0 0" style="fill:none;stroke-width:2.59;stroke-linecap:butt;stroke-linejoin:miter;stroke:#274da1;stroke-opacity:1;stroke-miterlimit:3.864" transform="matrix(.1 0 0 -.1 0 59.17)"/><path d="M67.469.121s-27.801 9.89-33.899 20.902c-1.738 3.137 3.47 5.153 2.75 8.598-.332 1.578-.55 2.664-1.738 3.754-2.3 2.11-5.3-2.39-7.969-.77-.683.418-1.566 1.325-1.566 1.325s1.418-.828 2.422-1.055c2.8-.633 4.293 3.363 6.976 2.348 2.57-.97 3.426-3.246 3.735-5.973.347-3.05-4.711-4.742-2.98-7.277C41.921 12.098 67.468.12 67.468.12" style="stroke:none;fill-rule:evenodd;fill:#274da1;fill-opacity:1"/><path d="M674.688 590.49S396.68 491.582 335.703 381.465c-17.383-31.368 34.688-51.524 27.5-85.977-3.32-15.781-5.508-26.64-17.383-37.539-23.007-21.094-53.007 23.906-79.687 7.695-6.836-4.18-15.664-13.242-15.664-13.242s14.18 8.281 24.219 10.547c28.007 6.328 42.93-33.633 69.765-23.477 25.703 9.688 34.258 32.461 37.344 59.727 3.476 30.508-47.11 47.422-29.805 72.773 67.227 98.75 322.696 218.516 322.696 218.516Zm0 0" style="fill:none;stroke-width:2.59;stroke-linecap:butt;stroke-linejoin:miter;stroke:#274da1;stroke-opacity:1;stroke-miterlimit:3.864" transform="matrix(.1 0 0 -.1 0 59.17)"/><g clip-path="url(#b)"><path d="M31.484 38.406s-9.566 2.2-9.84 6.875c-.195 3.29 2.739 4.375 4.243 7.305 1.277 2.496 2.992 6.535 2.992 6.535s-1.04-4.195-2.027-6.77c-1.04-2.69-3.364-3.788-3.204-6.671.223-4.164 7.84-7.274 7.84-7.274z" style="stroke:none;fill-rule:evenodd;fill:#274da1;fill-opacity:1"/></g><g clip-path="url(#c)"><path d="M314.844 207.638s-95.664-21.993-98.399-68.75c-1.953-32.891 27.383-43.75 42.422-73.047C271.641 40.88 288.79.489 288.79.489s-10.39 41.953-20.273 67.695c-10.391 26.914-33.633 37.891-32.032 66.72 2.227 41.64 78.399 72.733 78.399 72.733Zm0 0" style="fill:none;stroke-width:2.59;stroke-linecap:butt;stroke-linejoin:miter;stroke:#274da1;stroke-opacity:1;stroke-miterlimit:3.864" transform="matrix(.1 0 0 -.1 0 59.17)"/></g><path d="M67.281 1.121S43.613 11.481 37.086 21.97c-1.805 2.89 3.707 5.445 2.555 8.843-.828 2.446-4.504 4.84-4.504 4.84s4.676-.957 6.406-3.136c2.586-3.266-1.691-7.887-.316-10.672C45.559 13.05 67.28 1.125 67.28 1.125z" style="stroke:none;fill-rule:evenodd;fill:#50aae3;fill-opacity:1"/><path d="M672.813 580.49s-236.68-103.595-301.954-208.478c-18.046-28.906 37.07-54.453 25.547-88.437-8.281-24.453-45.039-48.398-45.039-48.398s46.758 9.57 64.063 31.367c25.86 32.656-16.914 78.867-3.164 106.719 43.32 87.93 260.546 207.187 260.546 207.187Zm0 0" style="fill:none;stroke-width:2.59;stroke-linecap:butt;stroke-linejoin:miter;stroke:#50aae3;stroke-opacity:1;stroke-miterlimit:3.864" transform="matrix(.1 0 0 -.1 0 59.17)"/><path d="M31.54 39.875s-5.54 1.43-6.571 4.316c-1.508 4.207 3.199 7.723 3.199 7.723s-2.195-3.832-1.758-6.656c.445-2.867 5.13-5.383 5.13-5.383" style="stroke:none;fill-rule:evenodd;fill:#50aae3;fill-opacity:1"/><path d="M315.39 192.95s-55.39-14.297-65.702-43.164c-15.079-42.07 31.992-77.227 31.992-77.227s-21.953 38.32-17.578 66.563c4.453 28.672 51.289 53.828 51.289 53.828Zm0 0" style="fill:none;stroke-width:2.59;stroke-linecap:butt;stroke-linejoin:miter;stroke:#50aae3;stroke-opacity:1;stroke-miterlimit:3.864" transform="matrix(.1 0 0 -.1 0 59.17)"/><path d="M54.41 45.762s-.789-2.84-2.07-4.082c-1.637-1.586-5.508-1.961-5.508-1.961s2.313 1.117 3.625 2.086c1.758 1.297 3.953 3.957 3.953 3.957m3.676-7.645.094-.39s-4.278 1.238-7.094 1.441c-1.883.137-4.836-.063-4.836-.063s4.473 1.336 7.281.817c1.88-.348 4.555-1.805 4.555-1.805" style="stroke:none;fill-rule:evenodd;fill:#50aae3;fill-opacity:1"/></svg>