<?xml version="1.0" encoding="UTF-8"?>
<svg xmlns="http://www.w3.org/2000/svg" xmlns:xlink="http://www.w3.org/1999/xlink" width="144.94pt" height="59.17pt" viewBox="0 0 144.94 59.17" version="1.1">
<defs>
<clipPath id="clip1">
  <path d="M 129 30 L 144.941406 30 L 144.941406 46 L 129 46 Z M 129 30 "/>
</clipPath>
<clipPath id="clip2">
  <path d="M 21 38 L 32 38 L 32 59.171875 L 21 59.171875 Z M 21 38 "/>
</clipPath>
<clipPath id="clip3">
  <path d="M 20 36 L 33 36 L 33 59.171875 L 20 59.171875 Z M 20 36 "/>
</clipPath>
</defs>
<g id="surface1">
<g clip-path="url(#clip1)" clip-rule="nonzero">
<path style=" stroke:none;fill-rule:nonzero;fill:rgb(98.469543%,77.030945%,4.211426%);fill-opacity:1;" d="M 137.433594 30.375 C 141.578125 30.375 144.941406 33.738281 144.941406 37.882812 C 144.941406 42.03125 141.578125 45.390625 137.433594 45.390625 C 133.285156 45.390625 129.925781 42.03125 129.925781 37.882812 C 129.925781 33.738281 133.285156 30.375 137.433594 30.375 "/>
</g>
<path style=" stroke:none;fill-rule:evenodd;fill:rgb(31.443787%,66.673279%,89.042664%);fill-opacity:1;" d="M 15.992188 52.0625 L 18.144531 52.0625 L 18.238281 50.730469 C 18.371094 48.738281 19.632812 47.433594 21.269531 47.433594 L 21.464844 47.433594 L 20.753906 45.796875 C 19.496094 45.839844 18.632812 46.644531 18.160156 48.238281 L 18.101562 48.238281 L 18.085938 45.691406 L 15.734375 45.878906 Z M 13.734375 52.085938 L 13.765625 45.546875 L 11.167969 45.851562 L 11.398438 52.085938 Z M 12.445312 42.4375 C 11.960938 42.4375 11.566406 42.777344 11.566406 43.199219 C 11.566406 43.636719 11.960938 43.964844 12.445312 43.964844 C 12.929688 43.964844 13.324219 43.625 13.324219 43.199219 C 13.324219 42.777344 12.929688 42.4375 12.445312 42.4375 Z M 3.015625 49.082031 L 6.09375 49.082031 L 7.304688 52.191406 L 10.261719 51.902344 L 6.414062 43.503906 L 3.804688 43.503906 L 0 51.890625 L 1.699219 52.152344 Z M 3.394531 48.039062 L 4.5625 45.179688 L 5.746094 48.238281 L 3.503906 48.15625 L 3.394531 48.039062 "/>
<path style=" stroke:none;fill-rule:evenodd;fill:rgb(15.164185%,30.148315%,63.140869%);fill-opacity:1;" d="M 58.585938 36.988281 L 58.492188 37.054688 C 58.492188 37.054688 50.710938 39.203125 45.730469 38.621094 C 42.230469 38.210938 37.054688 36.097656 37.054688 36.097656 C 37.054688 36.097656 42.769531 37.785156 46.535156 38.066406 C 51.242188 38.414062 58.585938 36.988281 58.585938 36.988281 Z M 129.179688 45.457031 L 126.644531 45.457031 L 126.722656 52.007812 L 128.980469 52.007812 L 129.027344 50.730469 C 129.101562 48.671875 129.996094 47.472656 130.738281 47.472656 C 131.164062 47.472656 131.375 47.761719 131.375 48.34375 C 131.375 48.421875 131.359375 48.5 131.359375 48.59375 L 131.117188 51.984375 L 131.164062 52.046875 L 133.632812 51.957031 L 133.832031 47.261719 L 133.832031 47.15625 C 133.832031 46.234375 133.222656 45.734375 132.179688 45.734375 C 130.933594 45.734375 129.917969 46.378906 129.160156 47.683594 L 129.070312 47.683594 L 129.175781 45.457031 Z M 118.097656 48.105469 L 119.855469 48.488281 C 120.15625 47.078125 120.65625 46.378906 121.386719 46.378906 C 122.1875 46.378906 122.3125 47.183594 122.3125 49.054688 L 122.3125 49.464844 C 121.839844 49.277344 121.234375 49.160156 120.554688 49.160156 C 119.066406 49.160156 118.035156 49.859375 118.035156 50.796875 C 118.035156 51.664062 118.703125 52.234375 119.898438 52.234375 C 120.933594 52.234375 121.84375 51.878906 122.355469 51.308594 L 122.386719 51.308594 L 122.480469 52.351562 L 124.902344 52.179688 C 124.660156 50.648438 124.660156 49.421875 124.660156 48.515625 C 124.660156 47.972656 124.660156 47.539062 124.613281 47.234375 C 124.402344 45.996094 123.570312 45.523438 121.824219 45.523438 C 119.898438 45.523438 118.65625 46.390625 118.09375 48.105469 Z M 122.339844 50.214844 C 122.296875 50.835938 121.703125 51.296875 121.128906 51.296875 C 120.628906 51.296875 120.25 51.019531 120.25 50.679688 C 120.25 50.214844 120.644531 49.953125 121.339844 49.953125 C 121.6875 49.953125 122.007812 50.042969 122.34375 50.214844 Z M 115.105469 47.949219 L 112.769531 47.949219 L 112.710938 47.839844 C 112.953125 46.890625 113.5 46.378906 114.015625 46.378906 C 114.710938 46.378906 115.105469 46.90625 115.105469 47.949219 Z M 117.078125 48.777344 C 117.046875 46.683594 115.851562 45.523438 113.878906 45.523438 C 111.664062 45.523438 109.996094 47.117188 109.996094 49.359375 C 109.996094 51.269531 111.257812 52.230469 113.773438 52.230469 C 115.230469 52.230469 116.351562 51.992188 117.121094 51.558594 L 116.714844 50.597656 C 116.089844 50.929688 115.390625 51.101562 114.683594 51.097656 C 113.226562 51.097656 112.542969 50.464844 112.542969 49.121094 C 112.542969 49.015625 112.542969 48.894531 112.558594 48.777344 Z M 103.984375 45.457031 L 101.453125 45.457031 L 101.527344 52.007812 L 103.789062 52.007812 L 103.835938 50.730469 C 103.910156 48.671875 104.804688 47.472656 105.546875 47.472656 C 105.972656 47.472656 106.183594 47.761719 106.183594 48.34375 C 106.183594 48.421875 106.167969 48.5 106.167969 48.59375 L 105.925781 51.984375 L 105.972656 52.046875 L 108.441406 51.957031 L 108.640625 47.261719 L 108.640625 47.15625 C 108.640625 46.234375 108.03125 45.734375 106.984375 45.734375 C 105.742188 45.734375 104.726562 46.378906 103.96875 47.683594 L 103.878906 47.683594 Z M 92.902344 48.105469 L 94.660156 48.488281 C 94.964844 47.078125 95.464844 46.378906 96.195312 46.378906 C 96.996094 46.378906 97.117188 47.183594 97.117188 49.054688 L 97.117188 49.464844 C 96.648438 49.277344 96.039062 49.160156 95.359375 49.160156 C 93.871094 49.160156 92.84375 49.859375 92.84375 50.796875 C 92.84375 51.664062 93.507812 52.234375 94.707031 52.234375 C 95.738281 52.234375 96.648438 51.878906 97.160156 51.308594 L 97.195312 51.308594 L 97.285156 52.351562 L 99.710938 52.179688 C 99.46875 50.648438 99.46875 49.421875 99.46875 48.515625 C 99.46875 47.972656 99.46875 47.539062 99.421875 47.234375 C 99.210938 45.996094 98.375 45.523438 96.632812 45.523438 C 94.707031 45.523438 93.460938 46.390625 92.902344 48.105469 Z M 97.148438 50.214844 C 97.101562 50.835938 96.511719 51.296875 95.933594 51.296875 C 95.433594 51.296875 95.054688 51.019531 95.054688 50.679688 C 95.054688 50.214844 95.449219 49.953125 96.148438 49.953125 C 96.496094 49.953125 96.816406 50.042969 97.148438 50.214844 Z M 86.910156 52.0625 L 89.058594 52.0625 L 89.152344 50.730469 C 89.289062 48.738281 90.546875 47.433594 92.183594 47.433594 L 92.382812 47.433594 L 91.667969 45.796875 C 90.410156 45.839844 89.546875 46.644531 89.078125 48.238281 L 89.015625 48.238281 L 89.003906 45.691406 L 86.652344 45.878906 Z M 80.445312 52.0625 L 82.597656 52.0625 L 82.6875 50.730469 C 82.824219 48.738281 84.082031 47.433594 85.71875 47.433594 L 85.917969 47.433594 L 85.207031 45.796875 C 83.949219 45.839844 83.082031 46.644531 82.613281 48.238281 L 82.554688 48.238281 L 82.539062 45.691406 L 80.1875 45.878906 Z M 76.652344 47.949219 L 74.316406 47.949219 L 74.257812 47.839844 C 74.5 46.890625 75.042969 46.378906 75.558594 46.378906 C 76.257812 46.378906 76.652344 46.90625 76.652344 47.949219 Z M 78.621094 48.777344 C 78.59375 46.683594 77.394531 45.523438 75.421875 45.523438 C 73.210938 45.523438 71.542969 47.117188 71.542969 49.359375 C 71.542969 51.269531 72.800781 52.230469 75.316406 52.230469 C 76.773438 52.230469 77.894531 51.992188 78.667969 51.558594 L 78.257812 50.597656 C 77.632812 50.929688 76.933594 51.101562 76.226562 51.097656 C 74.769531 51.097656 74.089844 50.464844 74.089844 49.121094 C 74.089844 49.015625 74.089844 48.894531 74.101562 48.777344 Z M 70.96875 51.679688 L 70.679688 50.859375 C 70.226562 51.074219 69.816406 51.175781 69.4375 51.175781 C 68.695312 51.175781 68.484375 50.679688 68.484375 49.492188 C 68.484375 48.871094 68.527344 48.15625 68.621094 47.355469 L 70.699219 47.355469 L 70.789062 46.511719 L 68.695312 46.511719 L 68.96875 44.480469 L 66.421875 44.664062 L 66.207031 46.511719 L 64.679688 46.511719 L 64.554688 47.355469 L 66.132812 47.355469 C 66.058594 48.277344 66.027344 48.976562 66.027344 49.4375 C 66.027344 51.480469 66.589844 52.234375 68.363281 52.234375 C 69.316406 52.234375 70.164062 52.0625 70.96875 51.679688 Z M 63.617188 52.089844 L 63.644531 45.546875 L 61.054688 45.851562 L 61.28125 52.089844 Z M 62.328125 42.4375 C 61.84375 42.4375 61.449219 42.777344 61.449219 43.199219 C 61.449219 43.636719 61.839844 43.964844 62.328125 43.964844 C 62.8125 43.964844 63.207031 43.625 63.207031 43.199219 C 63.207031 42.777344 62.8125 42.4375 62.328125 42.4375 Z M 59.25 42.210938 L 56.703125 42.425781 L 56.960938 45.890625 C 56.460938 45.640625 55.960938 45.535156 55.382812 45.535156 C 53.535156 45.535156 52.140625 47.023438 52.140625 49.371094 C 52.140625 51.296875 52.851562 52.246094 54.324219 52.246094 C 55.488281 52.246094 56.324219 51.679688 56.914062 50.507812 L 57.128906 52.507812 L 59.613281 52.378906 C 59.355469 51.46875 59.234375 48.871094 59.234375 44.582031 C 59.234375 43.839844 59.25 43.046875 59.25 42.210938 Z M 56.917969 47.511719 L 56.917969 48.488281 C 56.597656 49.925781 56.082031 50.652344 55.476562 50.652344 C 54.777344 50.652344 54.535156 50.09375 54.535156 48.960938 C 54.535156 47.234375 55.035156 46.363281 55.898438 46.363281 C 56.324219 46.363281 56.644531 46.75 56.914062 47.511719 Z M 49.136719 47.949219 L 46.800781 47.949219 L 46.742188 47.839844 C 46.984375 46.890625 47.53125 46.378906 48.046875 46.378906 C 48.742188 46.378906 49.136719 46.90625 49.136719 47.949219 Z M 51.105469 48.777344 C 51.078125 46.683594 49.878906 45.523438 47.90625 45.523438 C 45.695312 45.523438 44.027344 47.117188 44.027344 49.359375 C 44.027344 51.269531 45.285156 52.230469 47.800781 52.230469 C 49.257812 52.230469 50.378906 51.992188 51.152344 51.558594 L 50.742188 50.597656 C 50.117188 50.929688 49.417969 51.101562 48.710938 51.097656 C 47.257812 51.097656 46.574219 50.464844 46.574219 49.121094 C 46.574219 49.015625 46.574219 48.894531 46.589844 48.777344 Z M 31.347656 43.542969 L 30.835938 52.007812 L 32.667969 52.007812 L 32.804688 45.71875 L 32.894531 45.71875 L 35.246094 51.507812 L 37.003906 51.507812 L 39.265625 45.878906 L 39.382812 45.878906 L 40.007812 52.046875 L 42.660156 51.953125 L 41.6875 43.488281 L 38.71875 43.488281 L 36.59375 48.816406 L 34.425781 43.410156 "/>
<path style="fill:none;stroke-width:3.43;stroke-linecap:butt;stroke-linejoin:miter;stroke:rgb(15.164185%,30.148315%,63.140869%);stroke-opacity:1;stroke-miterlimit:3.864;" d="M 585.859375 221.817188 L 584.921875 221.153125 C 584.921875 221.153125 507.109375 199.66875 457.304688 205.489063 C 422.304688 209.590625 370.546875 230.723438 370.546875 230.723438 C 370.546875 230.723438 427.695312 213.848438 465.351562 211.035938 C 512.421875 207.559375 585.859375 221.817188 585.859375 221.817188 Z M 585.859375 221.817188 " transform="matrix(0.1,0,0,-0.1,0,59.17)"/>
<path style=" stroke:none;fill-rule:nonzero;fill:rgb(15.164185%,30.148315%,63.140869%);fill-opacity:1;" d="M 27.363281 33.339844 C 27.585938 33.339844 27.765625 33.519531 27.765625 33.738281 C 27.765625 33.957031 27.585938 34.136719 27.363281 34.136719 C 27.144531 34.136719 26.964844 33.957031 26.964844 33.738281 C 26.964844 33.519531 27.144531 33.339844 27.363281 33.339844 "/>
<path style=" stroke:none;fill-rule:evenodd;fill:rgb(15.164185%,30.148315%,63.140869%);fill-opacity:1;" d="M 32.3125 40.550781 C 32.3125 40.550781 28.972656 42.082031 27.792969 43.941406 C 25.390625 47.726562 30.492188 55.113281 30.492188 55.113281 C 30.492188 55.113281 27.820312 48.480469 29.363281 44.695312 C 30.109375 42.855469 32.3125 40.550781 32.3125 40.550781 "/>
<path style="fill:none;stroke-width:2.59;stroke-linecap:butt;stroke-linejoin:miter;stroke:rgb(15.164185%,30.148315%,63.140869%);stroke-opacity:1;stroke-miterlimit:3.864;" d="M 323.125 186.192188 C 323.125 186.192188 289.726562 170.879688 277.929688 152.285938 C 253.90625 114.434375 304.921875 40.567188 304.921875 40.567188 C 304.921875 40.567188 278.203125 106.895313 293.632812 144.746875 C 301.09375 163.145313 323.125 186.192188 323.125 186.192188 Z M 323.125 186.192188 " transform="matrix(0.1,0,0,-0.1,0,59.17)"/>
<path style=" stroke:none;fill-rule:evenodd;fill:rgb(15.164185%,30.148315%,63.140869%);fill-opacity:1;" d="M 66.90625 3.070312 C 66.90625 3.070312 48.195312 12.234375 42.859375 21.589844 C 40.65625 25.449219 45.488281 29.671875 42.519531 32.980469 C 40.597656 35.121094 35.757812 35.917969 35.757812 35.917969 C 35.757812 35.917969 42.789062 35.8125 44.929688 32.683594 C 47.066406 29.550781 43.210938 26.488281 44.617188 22.972656 C 48.132812 14.183594 66.90625 3.070312 66.90625 3.070312 "/>
<path style="fill:none;stroke-width:2.59;stroke-linecap:butt;stroke-linejoin:miter;stroke:rgb(15.164185%,30.148315%,63.140869%);stroke-opacity:1;stroke-miterlimit:3.864;" d="M 669.0625 560.996875 C 669.0625 560.996875 481.953125 469.35625 428.59375 375.801563 C 406.5625 337.207813 454.882812 294.98125 425.195312 261.895313 C 405.976562 240.489063 357.578125 232.520313 357.578125 232.520313 C 357.578125 232.520313 427.890625 233.575 449.296875 264.864063 C 470.664062 296.192188 432.109375 326.817188 446.171875 361.973438 C 481.328125 449.864063 669.0625 560.996875 669.0625 560.996875 Z M 669.0625 560.996875 " transform="matrix(0.1,0,0,-0.1,0,59.17)"/>
<path style=" stroke:none;fill-rule:evenodd;fill:rgb(15.164185%,30.148315%,63.140869%);fill-opacity:1;" d="M 23.535156 35.441406 C 23.535156 35.441406 25.625 34.96875 26.964844 35.089844 C 30.253906 35.382812 30.960938 38.585938 34.070312 39.703125 C 38.457031 41.277344 41.703125 38.136719 46.023438 39.890625 C 49.59375 41.34375 53.648438 46.1875 53.648438 46.1875 L 53.679688 46.253906 C 53.679688 46.253906 48.894531 41.507812 44.9375 40.511719 C 41.027344 39.523438 38.480469 42.582031 34.628906 41.386719 C 31.078125 40.285156 30.703125 36.347656 27.066406 35.59375 C 25.71875 35.316406 23.535156 35.445312 23.535156 35.445312 L 23.535156 35.441406 "/>
<path style="fill:none;stroke-width:2.59;stroke-linecap:butt;stroke-linejoin:miter;stroke:rgb(15.164185%,30.148315%,63.140869%);stroke-opacity:1;stroke-miterlimit:3.864;" d="M 235.351562 237.285938 C 235.351562 237.285938 256.25 242.0125 269.648438 240.801563 C 302.539062 237.871875 309.609375 205.840625 340.703125 194.66875 C 384.570312 178.926563 417.03125 210.332813 460.234375 192.79375 C 495.9375 178.2625 536.484375 129.825 536.484375 129.825 L 536.796875 129.160938 C 536.796875 129.160938 488.945312 176.621875 449.375 186.582813 C 410.273438 196.465625 384.804688 165.879688 346.289062 177.832813 C 310.78125 188.848438 307.03125 228.223438 270.664062 235.7625 C 257.1875 238.535938 235.351562 237.246875 235.351562 237.246875 Z M 235.351562 237.285938 " transform="matrix(0.1,0,0,-0.1,0,59.17)"/>
<path style=" stroke:none;fill-rule:evenodd;fill:rgb(15.164185%,30.148315%,63.140869%);fill-opacity:1;" d="M 67.46875 0.121094 C 67.46875 0.121094 39.667969 10.011719 33.570312 21.023438 C 31.832031 24.160156 37.039062 26.175781 36.320312 29.621094 C 35.988281 31.199219 35.769531 32.285156 34.582031 33.375 C 32.28125 35.484375 29.28125 30.984375 26.613281 32.605469 C 25.929688 33.023438 25.046875 33.929688 25.046875 33.929688 C 25.046875 33.929688 26.464844 33.101562 27.46875 32.875 C 30.269531 32.242188 31.761719 36.238281 34.445312 35.222656 C 37.015625 34.253906 37.871094 31.976562 38.179688 29.25 C 38.527344 26.199219 33.46875 24.507812 35.199219 21.972656 C 41.921875 12.097656 67.46875 0.121094 67.46875 0.121094 "/>
<path style="fill:none;stroke-width:2.59;stroke-linecap:butt;stroke-linejoin:miter;stroke:rgb(15.164185%,30.148315%,63.140869%);stroke-opacity:1;stroke-miterlimit:3.864;" d="M 674.6875 590.489063 C 674.6875 590.489063 396.679688 491.582813 335.703125 381.465625 C 318.320312 350.098438 370.390625 329.942188 363.203125 295.489063 C 359.882812 279.707813 357.695312 268.848438 345.820312 257.95 C 322.8125 236.85625 292.8125 281.85625 266.132812 265.645313 C 259.296875 261.465625 250.46875 252.403125 250.46875 252.403125 C 250.46875 252.403125 264.648438 260.684375 274.6875 262.95 C 302.695312 269.278125 317.617188 229.317188 344.453125 239.473438 C 370.15625 249.160938 378.710938 271.934375 381.796875 299.2 C 385.273438 329.707813 334.6875 346.621875 351.992188 371.973438 C 419.21875 470.723438 674.6875 590.489063 674.6875 590.489063 Z M 674.6875 590.489063 " transform="matrix(0.1,0,0,-0.1,0,59.17)"/>
<g clip-path="url(#clip2)" clip-rule="nonzero">
<path style=" stroke:none;fill-rule:evenodd;fill:rgb(15.164185%,30.148315%,63.140869%);fill-opacity:1;" d="M 31.484375 38.40625 C 31.484375 38.40625 21.917969 40.605469 21.644531 45.28125 C 21.449219 48.570312 24.382812 49.65625 25.886719 52.585938 C 27.164062 55.082031 28.878906 59.121094 28.878906 59.121094 C 28.878906 59.121094 27.839844 54.925781 26.851562 52.351562 C 25.8125 49.660156 23.488281 48.5625 23.648438 45.679688 C 23.871094 41.515625 31.488281 38.40625 31.488281 38.40625 L 31.484375 38.40625 "/>
</g>
<g clip-path="url(#clip3)" clip-rule="nonzero">
<path style="fill:none;stroke-width:2.59;stroke-linecap:butt;stroke-linejoin:miter;stroke:rgb(15.164185%,30.148315%,63.140869%);stroke-opacity:1;stroke-miterlimit:3.864;" d="M 314.84375 207.6375 C 314.84375 207.6375 219.179688 185.645313 216.445312 138.8875 C 214.492188 105.996875 243.828125 95.1375 258.867188 65.840625 C 271.640625 40.879688 288.789062 0.489063 288.789062 0.489063 C 288.789062 0.489063 278.398438 42.442188 268.515625 68.184375 C 258.125 95.098438 234.882812 106.075 236.484375 134.903125 C 238.710938 176.54375 314.882812 207.6375 314.882812 207.6375 Z M 314.84375 207.6375 " transform="matrix(0.1,0,0,-0.1,0,59.17)"/>
</g>
<path style=" stroke:none;fill-rule:evenodd;fill:rgb(31.443787%,66.673279%,89.042664%);fill-opacity:1;" d="M 67.28125 1.121094 C 67.28125 1.121094 43.613281 11.480469 37.085938 21.96875 C 35.28125 24.859375 40.792969 27.414062 39.640625 30.8125 C 38.8125 33.257812 35.136719 35.652344 35.136719 35.652344 C 35.136719 35.652344 39.8125 34.695312 41.542969 32.515625 C 44.128906 29.25 39.851562 24.628906 41.226562 21.84375 C 45.558594 13.050781 67.28125 1.125 67.28125 1.125 L 67.28125 1.121094 "/>
<path style="fill:none;stroke-width:2.59;stroke-linecap:butt;stroke-linejoin:miter;stroke:rgb(31.443787%,66.673279%,89.042664%);stroke-opacity:1;stroke-miterlimit:3.864;" d="M 672.8125 580.489063 C 672.8125 580.489063 436.132812 476.895313 370.859375 372.0125 C 352.8125 343.10625 407.929688 317.559375 396.40625 283.575 C 388.125 259.121875 351.367188 235.176563 351.367188 235.176563 C 351.367188 235.176563 398.125 244.746875 415.429688 266.54375 C 441.289062 299.2 398.515625 345.410938 412.265625 373.2625 C 455.585938 461.192188 672.8125 580.45 672.8125 580.45 Z M 672.8125 580.489063 " transform="matrix(0.1,0,0,-0.1,0,59.17)"/>
<path style=" stroke:none;fill-rule:evenodd;fill:rgb(31.443787%,66.673279%,89.042664%);fill-opacity:1;" d="M 31.539062 39.875 C 31.539062 39.875 26 41.304688 24.96875 44.191406 C 23.460938 48.398438 28.167969 51.914062 28.167969 51.914062 C 28.167969 51.914062 25.972656 48.082031 26.410156 45.257812 C 26.855469 42.390625 31.539062 39.875 31.539062 39.875 "/>
<path style="fill:none;stroke-width:2.59;stroke-linecap:butt;stroke-linejoin:miter;stroke:rgb(31.443787%,66.673279%,89.042664%);stroke-opacity:1;stroke-miterlimit:3.864;" d="M 315.390625 192.95 C 315.390625 192.95 260 178.653125 249.6875 149.785938 C 234.609375 107.715625 281.679688 72.559375 281.679688 72.559375 C 281.679688 72.559375 259.726562 110.879688 264.101562 139.121875 C 268.554688 167.79375 315.390625 192.95 315.390625 192.95 Z M 315.390625 192.95 " transform="matrix(0.1,0,0,-0.1,0,59.17)"/>
<path style=" stroke:none;fill-rule:evenodd;fill:rgb(31.443787%,66.673279%,89.042664%);fill-opacity:1;" d="M 54.410156 45.761719 C 54.410156 45.761719 53.621094 42.921875 52.339844 41.679688 C 50.703125 40.09375 46.832031 39.71875 46.832031 39.71875 C 46.832031 39.71875 49.144531 40.835938 50.457031 41.804688 C 52.214844 43.101562 54.410156 45.761719 54.410156 45.761719 Z M 58.085938 38.117188 L 58.179688 37.726562 C 58.179688 37.726562 53.902344 38.964844 51.085938 39.167969 C 49.203125 39.304688 46.25 39.105469 46.25 39.105469 C 46.25 39.105469 50.722656 40.441406 53.53125 39.921875 C 55.410156 39.574219 58.085938 38.117188 58.085938 38.117188 "/>
</g>
</svg>
