<?xml version="1.0" encoding="UTF-8"?>
<svg xmlns="http://www.w3.org/2000/svg" xmlns:xlink="http://www.w3.org/1999/xlink" width="176pt" height="48.66pt" viewBox="0 0 176 48.66" version="1.1">
<defs>
<clipPath id="clip1">
  <path d="M 0 0 L 49 0 L 49 48.660156 L 0 48.660156 Z M 0 0 "/>
</clipPath>
</defs>
<g id="surface1">
<g clip-path="url(#clip1)" clip-rule="nonzero">
<path style=" stroke:none;fill-rule:nonzero;fill:rgb(92.83905%,10.971069%,14.108276%);fill-opacity:1;" d="M 48.660156 24.332031 C 48.660156 37.765625 37.765625 48.660156 24.328125 48.660156 C 10.894531 48.660156 0 37.765625 0 24.332031 C 0 10.894531 10.894531 0 24.328125 0 C 37.765625 0 48.660156 10.894531 48.660156 24.332031 "/>
<path style=" stroke:none;fill-rule:nonzero;fill:rgb(100%,100%,100%);fill-opacity:1;" d="M 24.328125 0 C 10.894531 0 0 10.894531 0 24.332031 C 0 37.765625 10.894531 48.660156 24.328125 48.660156 C 37.765625 48.660156 48.660156 37.765625 48.660156 24.332031 C 48.660156 10.894531 37.765625 0 24.328125 0 Z M 24.328125 1.625 C 36.851562 1.625 47.035156 11.808594 47.035156 24.332031 C 47.035156 36.851562 36.851562 47.039062 24.328125 47.039062 C 11.808594 47.039062 1.621094 36.851562 1.621094 24.332031 C 1.621094 11.808594 11.808594 1.625 24.328125 1.625 "/>
</g>
<path style=" stroke:none;fill-rule:nonzero;fill:rgb(100%,100%,100%);fill-opacity:1;" d="M 39.746094 7.050781 L 35.972656 4.597656 L 35.136719 19.617188 L 15.453125 7.050781 L 10.632812 6.632812 L 9.0625 41.816406 L 12.832031 44.066406 L 13.671875 29.25 L 33.355469 41.816406 L 38.171875 42.234375 L 39.746094 7.050781 "/>
<path style=" stroke:none;fill-rule:nonzero;fill:rgb(6.266785%,5.734253%,5.047607%);fill-opacity:1;" d="M 58.675781 30.730469 L 58.675781 14.769531 L 60.636719 14.769531 L 60.636719 23.871094 L 65.277344 19.167969 L 67.8125 19.167969 L 63.394531 23.457031 L 68.261719 30.730469 L 65.84375 30.730469 L 62.019531 24.820312 L 60.636719 26.148438 L 60.636719 30.730469 L 58.675781 30.730469 "/>
<path style=" stroke:none;fill-rule:nonzero;fill:rgb(6.266785%,5.734253%,5.047607%);fill-opacity:1;" d="M 77.199219 24.929688 C 76.488281 25.21875 75.421875 25.464844 74 25.667969 C 73.195312 25.785156 72.625 25.914062 72.289062 26.058594 C 71.957031 26.207031 71.699219 26.417969 71.515625 26.695312 C 71.335938 26.976562 71.242188 27.289062 71.242188 27.628906 C 71.242188 28.152344 71.441406 28.585938 71.835938 28.933594 C 72.234375 29.285156 72.8125 29.457031 73.574219 29.457031 C 74.328125 29.457031 75 29.292969 75.589844 28.960938 C 76.175781 28.632812 76.609375 28.179688 76.886719 27.605469 C 77.09375 27.164062 77.199219 26.511719 77.199219 25.644531 Z M 77.363281 29.304688 C 76.636719 29.921875 75.9375 30.359375 75.269531 30.613281 C 74.597656 30.867188 73.875 30.992188 73.105469 30.992188 C 71.835938 30.992188 70.859375 30.683594 70.175781 30.0625 C 69.496094 29.441406 69.152344 28.648438 69.152344 27.683594 C 69.152344 27.117188 69.28125 26.597656 69.539062 26.132812 C 69.796875 25.664062 70.136719 25.289062 70.550781 25.003906 C 70.96875 24.722656 71.441406 24.507812 71.964844 24.363281 C 72.347656 24.261719 72.929688 24.160156 73.707031 24.066406 C 75.289062 23.878906 76.453125 23.652344 77.199219 23.390625 C 77.207031 23.125 77.210938 22.953125 77.210938 22.878906 C 77.210938 22.082031 77.027344 21.519531 76.65625 21.191406 C 76.15625 20.75 75.410156 20.527344 74.421875 20.527344 C 73.503906 20.527344 72.820312 20.691406 72.382812 21.011719 C 71.941406 21.335938 71.617188 21.90625 71.40625 22.726562 L 69.492188 22.464844 C 69.664062 21.644531 69.953125 20.984375 70.351562 20.480469 C 70.75 19.976562 71.328125 19.585938 72.082031 19.3125 C 72.835938 19.042969 73.710938 18.90625 74.707031 18.90625 C 75.695312 18.90625 76.496094 19.023438 77.113281 19.253906 C 77.730469 19.488281 78.183594 19.777344 78.476562 20.132812 C 78.765625 20.484375 78.96875 20.929688 79.085938 21.464844 C 79.148438 21.796875 79.183594 22.402344 79.183594 23.273438 L 79.183594 25.886719 C 79.183594 27.707031 79.222656 28.859375 79.308594 29.34375 C 79.390625 29.824219 79.554688 30.289062 79.804688 30.730469 L 77.757812 30.730469 C 77.550781 30.324219 77.421875 29.851562 77.363281 29.304688 "/>
<path style=" stroke:none;fill-rule:nonzero;fill:rgb(6.266785%,5.734253%,5.047607%);fill-opacity:1;" d="M 84.007812 24.863281 C 84.007812 26.25 84.195312 27.25 84.574219 27.867188 C 85.191406 28.875 86.023438 29.382812 87.078125 29.382812 C 87.933594 29.382812 88.675781 29.007812 89.296875 28.265625 C 89.921875 27.519531 90.234375 26.414062 90.234375 24.9375 C 90.234375 23.429688 89.9375 22.3125 89.335938 21.59375 C 88.738281 20.875 88.015625 20.519531 87.164062 20.519531 C 86.308594 20.519531 85.566406 20.890625 84.941406 21.632812 C 84.320312 22.378906 84.007812 23.453125 84.007812 24.863281 Z M 84.027344 30.730469 L 82.210938 30.730469 L 82.210938 14.769531 L 84.167969 14.769531 L 84.167969 20.464844 C 84.996094 19.425781 86.054688 18.90625 87.339844 18.90625 C 88.050781 18.90625 88.722656 19.050781 89.359375 19.335938 C 89.992188 19.621094 90.515625 20.027344 90.925781 20.542969 C 91.335938 21.0625 91.65625 21.691406 91.890625 22.421875 C 92.121094 23.15625 92.238281 23.941406 92.238281 24.773438 C 92.238281 26.757812 91.75 28.289062 90.769531 29.371094 C 89.789062 30.453125 88.613281 30.992188 87.238281 30.992188 C 85.875 30.992188 84.804688 30.421875 84.027344 29.285156 L 84.027344 30.730469 "/>
<path style=" stroke:none;fill-rule:nonzero;fill:rgb(6.266785%,5.734253%,5.047607%);fill-opacity:1;" d="M 95.910156 24.949219 C 95.910156 26.429688 96.230469 27.539062 96.878906 28.277344 C 97.523438 29.011719 98.335938 29.382812 99.316406 29.382812 C 100.289062 29.382812 101.097656 29.011719 101.746094 28.269531 C 102.390625 27.53125 102.714844 26.402344 102.714844 24.882812 C 102.714844 23.453125 102.390625 22.371094 101.738281 21.632812 C 101.089844 20.898438 100.28125 20.527344 99.316406 20.527344 C 98.335938 20.527344 97.523438 20.894531 96.878906 21.628906 C 96.230469 22.363281 95.910156 23.46875 95.910156 24.949219 Z M 93.894531 24.949219 C 93.894531 22.808594 94.488281 21.222656 95.679688 20.191406 C 96.675781 19.335938 97.886719 18.90625 99.316406 18.90625 C 100.90625 18.90625 102.207031 19.425781 103.214844 20.46875 C 104.222656 21.511719 104.730469 22.949219 104.730469 24.785156 C 104.730469 26.273438 104.507812 27.445312 104.058594 28.296875 C 103.613281 29.152344 102.964844 29.8125 102.109375 30.285156 C 101.257812 30.757812 100.324219 30.992188 99.316406 30.992188 C 97.699219 30.992188 96.390625 30.472656 95.390625 29.4375 C 94.394531 28.398438 93.894531 26.902344 93.894531 24.949219 "/>
<path style=" stroke:none;fill-rule:nonzero;fill:rgb(6.266785%,5.734253%,5.047607%);fill-opacity:1;" d="M 114.410156 24.929688 C 113.699219 25.21875 112.632812 25.464844 111.207031 25.667969 C 110.402344 25.785156 109.832031 25.914062 109.5 26.058594 C 109.164062 26.207031 108.90625 26.417969 108.726562 26.695312 C 108.542969 26.976562 108.453125 27.289062 108.453125 27.628906 C 108.453125 28.152344 108.652344 28.585938 109.046875 28.933594 C 109.441406 29.285156 110.019531 29.457031 110.785156 29.457031 C 111.539062 29.457031 112.210938 29.292969 112.796875 28.960938 C 113.386719 28.632812 113.816406 28.179688 114.09375 27.605469 C 114.304688 27.164062 114.410156 26.511719 114.410156 25.644531 Z M 114.574219 29.304688 C 113.847656 29.921875 113.148438 30.359375 112.476562 30.613281 C 111.804688 30.867188 111.085938 30.992188 110.316406 30.992188 C 109.046875 30.992188 108.066406 30.683594 107.386719 30.0625 C 106.703125 29.441406 106.363281 28.648438 106.363281 27.683594 C 106.363281 27.117188 106.492188 26.597656 106.75 26.132812 C 107.007812 25.664062 107.34375 25.289062 107.761719 25.003906 C 108.179688 24.722656 108.648438 24.507812 109.171875 24.363281 C 109.558594 24.261719 110.136719 24.160156 110.914062 24.066406 C 112.496094 23.878906 113.660156 23.652344 114.410156 23.390625 C 114.417969 23.125 114.421875 22.953125 114.421875 22.878906 C 114.421875 22.082031 114.234375 21.519531 113.863281 21.191406 C 113.363281 20.75 112.621094 20.527344 111.632812 20.527344 C 110.710938 20.527344 110.03125 20.691406 109.589844 21.011719 C 109.152344 21.335938 108.828125 21.90625 108.617188 22.726562 L 106.699219 22.464844 C 106.875 21.644531 107.160156 20.984375 107.558594 20.480469 C 107.960938 19.976562 108.535156 19.585938 109.292969 19.3125 C 110.046875 19.042969 110.921875 18.90625 111.914062 18.90625 C 112.902344 18.90625 113.707031 19.023438 114.320312 19.253906 C 114.9375 19.488281 115.394531 19.777344 115.683594 20.132812 C 115.972656 20.484375 116.175781 20.929688 116.292969 21.464844 C 116.359375 21.796875 116.390625 22.402344 116.390625 23.273438 L 116.390625 25.886719 C 116.390625 27.707031 116.433594 28.859375 116.515625 29.34375 C 116.601562 29.824219 116.765625 30.289062 117.011719 30.730469 L 114.964844 30.730469 C 114.761719 30.324219 114.632812 29.851562 114.574219 29.304688 "/>
<path style=" stroke:none;fill-rule:nonzero;fill:rgb(6.266785%,5.734253%,5.047607%);fill-opacity:1;" d="M 119.441406 30.730469 L 119.441406 19.167969 L 121.402344 19.167969 L 121.402344 30.730469 Z M 119.441406 17.023438 L 119.441406 14.769531 L 121.402344 14.769531 L 121.402344 17.023438 L 119.441406 17.023438 "/>
<path style=" stroke:none;fill-rule:nonzero;fill:rgb(6.266785%,5.734253%,5.047607%);fill-opacity:1;" d="M 124.363281 30.730469 L 124.363281 19.167969 L 126.128906 19.167969 L 126.128906 20.921875 C 126.578125 20.101562 126.992188 19.558594 127.371094 19.296875 C 127.753906 19.035156 128.175781 18.90625 128.632812 18.90625 C 129.292969 18.90625 129.964844 19.117188 130.644531 19.539062 L 129.972656 21.355469 C 129.492188 21.074219 129.011719 20.929688 128.53125 20.929688 C 128.105469 20.929688 127.71875 21.058594 127.378906 21.316406 C 127.039062 21.574219 126.792969 21.933594 126.648438 22.390625 C 126.429688 23.085938 126.324219 23.851562 126.324219 24.675781 L 126.324219 30.730469 L 124.363281 30.730469 "/>
<path style=" stroke:none;fill-rule:nonzero;fill:rgb(6.266785%,5.734253%,5.047607%);fill-opacity:1;" d="M 131.136719 30.730469 L 131.136719 28.5 L 133.367188 28.5 L 133.367188 30.730469 L 131.136719 30.730469 "/>
<path style=" stroke:none;fill-rule:nonzero;fill:rgb(6.266785%,5.734253%,5.047607%);fill-opacity:1;" d="M 144.324219 26.496094 L 146.25 26.746094 C 146.039062 28.074219 145.5 29.113281 144.632812 29.867188 C 143.765625 30.617188 142.699219 30.992188 141.4375 30.992188 C 139.855469 30.992188 138.582031 30.476562 137.621094 29.441406 C 136.65625 28.40625 136.175781 26.925781 136.175781 24.992188 C 136.175781 23.746094 136.382812 22.652344 136.796875 21.714844 C 137.210938 20.777344 137.84375 20.078125 138.6875 19.609375 C 139.53125 19.140625 140.453125 18.90625 141.449219 18.90625 C 142.703125 18.90625 143.730469 19.222656 144.53125 19.859375 C 145.328125 20.496094 145.839844 21.394531 146.066406 22.566406 L 144.160156 22.859375 C 143.976562 22.082031 143.65625 21.496094 143.195312 21.105469 C 142.734375 20.714844 142.175781 20.519531 141.523438 20.519531 C 140.535156 20.519531 139.734375 20.871094 139.117188 21.578125 C 138.5 22.289062 138.191406 23.40625 138.191406 24.9375 C 138.191406 26.492188 138.488281 27.621094 139.085938 28.324219 C 139.679688 29.03125 140.457031 29.382812 141.414062 29.382812 C 142.183594 29.382812 142.828125 29.144531 143.34375 28.671875 C 143.859375 28.203125 144.183594 27.476562 144.324219 26.496094 "/>
<path style=" stroke:none;fill-rule:nonzero;fill:rgb(6.266785%,5.734253%,5.047607%);fill-opacity:1;" d="M 149.210938 24.949219 C 149.210938 26.429688 149.535156 27.539062 150.179688 28.277344 C 150.828125 29.011719 151.640625 29.382812 152.621094 29.382812 C 153.59375 29.382812 154.402344 29.011719 155.050781 28.269531 C 155.695312 27.53125 156.019531 26.402344 156.019531 24.882812 C 156.019531 23.453125 155.691406 22.371094 155.042969 21.632812 C 154.394531 20.898438 153.585938 20.527344 152.621094 20.527344 C 151.640625 20.527344 150.828125 20.894531 150.179688 21.628906 C 149.535156 22.363281 149.210938 23.46875 149.210938 24.949219 Z M 147.199219 24.949219 C 147.199219 22.808594 147.792969 21.222656 148.984375 20.191406 C 149.976562 19.335938 151.191406 18.90625 152.621094 18.90625 C 154.210938 18.90625 155.511719 19.425781 156.519531 20.46875 C 157.527344 21.511719 158.03125 22.949219 158.03125 24.785156 C 158.03125 26.273438 157.808594 27.445312 157.363281 28.296875 C 156.914062 29.152344 156.265625 29.8125 155.414062 30.285156 C 154.5625 30.757812 153.628906 30.992188 152.621094 30.992188 C 151 30.992188 149.691406 30.472656 148.695312 29.4375 C 147.695312 28.398438 147.199219 26.902344 147.199219 24.949219 "/>
<path style=" stroke:none;fill-rule:nonzero;fill:rgb(6.266785%,5.734253%,5.047607%);fill-opacity:1;" d="M 160.328125 30.730469 L 160.328125 19.167969 L 162.082031 19.167969 L 162.082031 20.789062 C 162.445312 20.222656 162.929688 19.769531 163.53125 19.421875 C 164.132812 19.078125 164.820312 18.90625 165.589844 18.90625 C 166.445312 18.90625 167.148438 19.082031 167.695312 19.441406 C 168.246094 19.796875 168.632812 20.292969 168.855469 20.929688 C 169.769531 19.582031 170.960938 18.90625 172.429688 18.90625 C 173.574219 18.90625 174.457031 19.222656 175.074219 19.859375 C 175.691406 20.496094 176 21.472656 176 22.792969 L 176 30.730469 L 174.050781 30.730469 L 174.050781 23.445312 C 174.050781 22.664062 173.988281 22.097656 173.859375 21.753906 C 173.734375 21.410156 173.503906 21.132812 173.167969 20.921875 C 172.835938 20.710938 172.441406 20.605469 171.992188 20.605469 C 171.179688 20.605469 170.503906 20.875 169.96875 21.414062 C 169.429688 21.957031 169.160156 22.824219 169.160156 24.011719 L 169.160156 30.730469 L 167.199219 30.730469 L 167.199219 23.21875 C 167.199219 22.347656 167.042969 21.695312 166.722656 21.257812 C 166.402344 20.824219 165.878906 20.605469 165.152344 20.605469 C 164.601562 20.605469 164.09375 20.75 163.625 21.039062 C 163.15625 21.332031 162.816406 21.753906 162.605469 22.3125 C 162.394531 22.875 162.289062 23.679688 162.289062 24.730469 L 162.289062 30.730469 L 160.328125 30.730469 "/>
</g>
</svg>
