<svg xmlns="http://www.w3.org/2000/svg" width="176pt" height="53.413" viewBox="0 0 176 40.06"><defs><clipPath id="a"><path d="M23 25h27v15.059H23Zm0 0"/></clipPath></defs><path d="M16.438 11.523q.002 1.402-1.333 1.403c-.402 0-.867-.2-1.382-.594L2.43 3.426v8.629c0 .402-.176.644-.524.746q-.276.06-1.05.062c-.575 0-.856-.265-.856-.8V1.78C0 .887.418.445 1.242.445q.79-.002 1.61.64l11.156 8.81V1.332q-.002-.587.523-.734.271-.064 1.047-.063c.57 0 .86.262.86.79zM32.285 8.164c0 .582-.219.883-.644.883H20.176v.07c0 .922.582 1.52 1.742 1.785a8 8 0 0 0 1.113.125c.48.04 1.098.051 1.852.051q.848-.001.847.988.002.8-.847.801-1.16 0-1.899-.027a9 9 0 0 1-1.117-.07c-1.265-.114-2.195-.395-2.785-.825-.852-.613-1.27-1.336-1.27-2.16V6.223c0-1.118.653-1.942 1.961-2.485.934-.386 2.122-.586 3.563-.586h4.3q1.788.001 3 .559c1.098.469 1.65 1.18 1.65 2.125Zm-2.262-.973V6q.002-1.085-4.68-1.086c-1.835 0-3.105.059-3.784.184-.97.164-1.45.496-1.45.984v1.11zM46.48 10.086q0 2.777-4.562 2.777h-7.793q-.85 0-.852-.797.002-.989.852-.988h7.8q2.161.002 2.16-.98V9.73c0-.578-.651-.875-1.968-.875h-3.746q-5.163.001-5.164-2.675v-.528c0-1.187.863-1.941 2.59-2.273.71-.156 2.07-.227 4.074-.227q.86.001.86 1.004c0 .528-.286.785-.86.785h-1.664q-1.295-.002-1.559.032c-.757.09-1.152.312-1.152.66v.504c0 .582.965.87 2.883.87h3.832q4.271 0 4.27 2.626zM67.535 12.063c0 .535-.293.8-.86.8q-.848 0-1-.093c-.316-.102-.472-.34-.472-.727v-5.98q0-1.149-2.95-1.149h-.573c-.942.031-1.57.094-1.875.184-.688.187-1.024.593-1.024 1.23v5.715c0 .387-.164.625-.472.727q-.159.093-.996.093c-.57 0-.86-.265-.86-.8V6.316q-.002-.855-.672-1.16c-.304-.136-.804-.21-1.496-.21h-.668c-.14-.012-.265-.024-.375-.028q-.169-.005-.273-.004-2.977 0-2.977 1.168v5.957c0 .39-.148.629-.449.73-.105.063-.434.094-.996.094q-.85.001-.848-.8V6.32q0-3.166 5.031-3.168c.66 0 1.204.008 1.618.016.425.008.73.027.937.05a6.5 6.5 0 0 1 2.403.766q1.012-.578 2.43-.734c.515-.066 1.366-.098 2.57-.098 3.23 0 4.847 1.059 4.847 3.168zM84.328 9.95c0 1.945-1.574 2.913-4.723 2.913H73.97q-1.794.001-3.137-.613-1.772-.79-1.773-2.195V8.82c0-1.011.558-1.773 1.687-2.277.844-.39 1.887-.586 3.14-.586h8.145c-.125-.695-1.16-1.043-3.12-1.043q-.124-.001-.286.004c-.117.004-.25.016-.395.023h-.648c-.566 0-.86-.332-.86-.996 0-.523.294-.793.86-.793 1.871 0 3.281.121 4.219.356q2.529.657 2.527 2.633Zm-2.262-.5q.002-.146-.007-.356c-.012-.14-.012-.305-.028-.5V7.75h-8.195q-.726-.002-1.488.242c-.664.207-.996.488-.996.813v1.23q0 .534 1.027.82c.473.145.984.223 1.52.223h5.73q1.291 0 1.766-.234.672-.31.671-1.395M111.094 12.371c0 .328-.114.606-.336.824a1.1 1.1 0 0 1-.828.336c-.457 0-.828-.21-1.118-.644l-2.124-3.075H96.608l-2.129 3.075c-.226.332-.472.508-.738.508q-.398-.002-.762-.262c-.277-.184-.41-.406-.41-.656q0-.12.059-.215L100.187.71q.47-.708 1.602-.707.837-.001 1.117.473c.02.02.031.046.051.09a.5.5 0 0 0 .086.144l8.012 11.336c.023.055.039.156.039.324m-5.805-4.535L101.66 2.48l-3.652 5.356zM114.996 1.531q.001.562-.473.883c-.273.184-.609.281-1 .281-.398 0-.73-.097-1.003-.28-.317-.216-.48-.509-.48-.884s.163-.668.48-.879q.408-.286 1.003-.285.588 0 1 .285.474.316.473.88m-.308 10.89c0 .562-.29.84-.852.84-.555 0-.883-.02-.973-.067-.297-.11-.441-.367-.441-.773V3.75q-.002-.844.851-.844c.543 0 .868.028.965.078.293.11.45.36.45.766zM122.848 4.016c0 .562-.34.851-1.02.851a7 7 0 0 1-.398-.02 10 10 0 0 0-.407-.011q-2.613 0-2.613 1.3v6.286c0 .418-.164.68-.48.781-.13.04-.457.059-.993.059-.542 0-.808-.285-.808-.864V6.137c0-1.348.691-2.262 2.086-2.742q1.267-.456 3.777-.454c.567 0 .856.36.856 1.075M126.46 12.414q0 .854-.839.852c-.555 0-.875-.024-.973-.07-.308-.118-.46-.372-.46-.774V.984c0-.562.28-.843.832-.843.527 0 .863.023.988.074.3.101.453.355.453.777zM130.93 1.531q0 .562-.477.883c-.273.184-.61.281-1.004.281s-.73-.097-1.004-.28a1.02 1.02 0 0 1-.468-.884c0-.375.16-.668.468-.879q.412-.286 1.004-.285.593 0 1.004.285.476.316.477.88m-.313 10.89q-.001.841-.851.84c-.555 0-.875-.02-.97-.067q-.444-.164-.444-.773V3.75q.001-.844.851-.844.82.002.961.078c.3.11.453.36.453.766zM146.469 12.414q-.002.85-.848.852-.843 0-.976-.07c-.313-.11-.465-.368-.465-.774V5.844q0-.709-1.16-.918a4.4 4.4 0 0 0-.63-.059 28 28 0 0 0-1.074-.015h-3.921q-.587 0-.993.023-.405.023-.644.063c-.73.14-1.098.449-1.098.914v6.566c0 .562-.277.848-.84.848-.558 0-.886-.02-.976-.07q-.462-.165-.461-.774v-6.55c0-1.966 1.746-2.942 5.219-2.942h3.707q5.16 0 5.16 2.918zM162 8.27c0 .625-.207.937-.633.937h-11.304v.074c0 .98.585 1.61 1.726 1.89.254.06.617.102 1.098.138.472.03 1.086.05 1.828.05.55 0 .832.344.832 1.055 0 .566-.281.848-.832.848-.77 0-1.39 0-1.867-.012a17 17 0 0 1-1.11-.059c-1.25-.129-2.172-.421-2.758-.886-.84-.649-1.253-1.418-1.253-2.301V6.199c0-1.195.64-2.07 1.933-2.652q1.32-.616 3.512-.617h4.242c1.191 0 2.18.191 2.965.59Q162 4.265 162 5.785Zm-2.219-1.032v-1.27c0-.773-1.543-1.155-4.613-1.155q-2.725-.001-3.738.19c-.957.177-1.43.528-1.43 1.056v1.18zM176 10.316c0 1.961-1.5 2.95-4.492 2.95h-7.688q-.839 0-.84-.856c0-.707.282-1.05.84-1.05h7.692c1.418 0 2.133-.356 2.133-1.044V9.93q-.001-.938-1.942-.938h-3.691c-3.39 0-5.09-.949-5.09-2.847v-.563c0-1.258.851-2.059 2.57-2.418.344-.074.852-.14 1.516-.176.66-.039 1.496-.058 2.5-.058.57 0 .851.363.851 1.078 0 .562-.28.844-.851.844h-1.64c-.856 0-1.364.007-1.54.027q-1.13.147-1.129.7v.542c0 .625.946.934 2.828.934h3.766c2.809 0 4.207.93 4.207 2.785zM3.266 29.027c-.012.461.02.934.101 1.403.086.468.235.898.457 1.297.219.406.52.757.89 1.054.376.293.852.489 1.423.602q.823.159 1.554-.051a3.5 3.5 0 0 0 1.305-.656q.428-.367.68-.793c.172-.285.297-.578.39-.906q.13-.481.164-1.016a21 21 0 0 0 .028-1.133l.012-3.777h3.308l.012 3.746c0 .918-.082 1.738-.238 2.473a5.4 5.4 0 0 1-.82 1.925A4.6 4.6 0 0 1 11 34.56q-.95.546-2.375.812-2.145.206-3.75-.262c-1.062-.316-1.957-.777-2.664-1.386a5.9 5.9 0 0 1-1.602-2.145 6.6 6.6 0 0 1-.55-2.55Zm3.468-7.308c.23 0 .446.05.645.14.2.082.383.203.531.356.156.152.274.328.363.531q.134.309.133.652c0 .223-.043.442-.133.645s-.207.379-.363.52a1.9 1.9 0 0 1-.531.359 1.6 1.6 0 0 1-.645.129q-.34 0-.644-.13a2 2 0 0 1-.535-.358 1.5 1.5 0 0 1-.36-.52 1.6 1.6 0 0 1-.133-.645q-.001-.343.133-.652a1.66 1.66 0 0 1 .895-.887c.203-.09.418-.14.644-.14M16.105 20.922h3.332l.016 9.195v1.328c0 .434-.027.832-.07 1.215q-.07.569-.262 1.055c-.129.32-.308.59-.558.812q-.365.335-.958.516-.586.177-1.472.148z" style="stroke:none;fill-rule:nonzero;fill:#5c5b5e;fill-opacity:1"/><g clip-path="url(#a)"><path d="M44.352 36.73c-.223 0-.442.04-.641.125a1.6 1.6 0 0 0-.531.352 1.8 1.8 0 0 0-.352.54 1.573 1.573 0 0 0 0 1.285c.09.202.207.382.352.53.148.16.324.274.53.364a1.62 1.62 0 0 0 1.29 0c.2-.09.375-.203.527-.364a1.6 1.6 0 0 0 .364-.53 1.6 1.6 0 0 0 .132-.641c0-.227-.043-.446-.132-.645a1.663 1.663 0 0 0-.89-.89 1.6 1.6 0 0 0-.65-.126m-3.84 0q-.346-.001-.645.125a1.61 1.61 0 0 0-.894.891c-.09.2-.133.418-.133.645q-.001.334.133.64.13.306.359.532c.152.16.328.273.535.363q.3.131.645.133.34-.002.644-.133c.203-.09.38-.203.532-.364.152-.148.277-.328.363-.53q.127-.307.125-.641c0-.227-.04-.446-.125-.645a1.66 1.66 0 0 0-.895-.89 1.6 1.6 0 0 0-.644-.126m.207-11.656-.016 5.168q-.048.744-.406 1.301c-.23.36-.535.664-.906.914a4.3 4.3 0 0 1-1.262.54c-.465.12-.95.175-1.45.175h-1.218l.512 2.02c.547 0 1.113-.028 1.687-.079a15 15 0 0 0 1.707-.273 12 12 0 0 0 1.621-.504q.77-.305 1.387-.773c.414.316.879.585 1.398.789.516.203 1.063.375 1.63.503.57.125 1.148.215 1.742.262q.885.075 1.722.074h.504l-.504-2.02h-.836c-.496 0-.984-.054-1.453-.175-.46-.117-.887-.3-1.258-.539a3.2 3.2 0 0 1-.91-.914q-.355-.557-.402-1.3l.02-5.169Zm-13.567-.054.04 7.238c0 .68-.083 1.262-.231 1.754a3.7 3.7 0 0 1-.656 1.27q-.435.52-1.04.866-.607.342-1.367.555v2.106a16 16 0 0 0 2.493-.547q1.079-.34 1.847-.871.772-.54 1.262-1.297.486-.763.715-1.801.595.265 1.238.441c.434.11.871.2 1.32.266.442.07.895.121 1.348.148.453.028.887.043 1.324.043h.504l-.504-2.02h-.828c-.496 0-.98-.054-1.445-.175a3.8 3.8 0 0 1-1.234-.539q-.447-.299-.723-.648a3 3 0 0 1-.438-.747 4 4 0 0 1-.23-.808 6 6 0 0 1-.078-.828l.008-4.406z" style="stroke:none;fill-rule:nonzero;fill:#5c5b5e;fill-opacity:1"/></g><path d="M48.871 33.172h2.102l-.008-12.25h3.324v4.836c.234-.098.469-.176.711-.25.238-.07.477-.137.727-.184a9 9 0 0 1 1.464-.199c.559-.04 1.188-.055 1.887-.055h3.836c.711 0 1.348.016 1.902.055.559.035 1.047.102 1.473.191.746.153 1.48.418 2.188.813.39.242.742.5 1.062.8.324.294.598.606.828.95.227.336.399.691.528 1.07.113.38.18.774.18 1.18 0 .652-.114 1.238-.321 1.738-.219.496-.52.938-.91 1.305h1.941l.508 2.02h-22.91Zm14.883 0c.496 0 .98-.059 1.453-.192a4 4 0 0 0 1.246-.566c.36-.254.649-.562.871-.945.223-.375.328-.824.328-1.336 0-.524-.109-.977-.343-1.36a3.1 3.1 0 0 0-.914-.949 4.3 4.3 0 0 0-1.262-.554 5.5 5.5 0 0 0-1.38-.184h-5.51c-.638 0-1.196.094-1.688.277a3.4 3.4 0 0 0-1.235.797 3.6 3.6 0 0 0-.765 1.242 4.7 4.7 0 0 0-.266 1.61l.012 2.16z" style="stroke:none;fill-rule:nonzero;fill:#5c5b5e;fill-opacity:1"/><path d="M77.57 20.922h3.297v9.316c.031.5.176.93.414 1.297.239.367.54.672.918.922.367.238.785.422 1.254.54.469.12.953.175 1.45.175h.827l.504 2.02h-.52q-.819 0-1.71-.07a14 14 0 0 1-1.738-.267c-.567-.128-1.118-.3-1.637-.503a5.7 5.7 0 0 1-1.406-.793c-.414.32-.88.59-1.407.793-.515.203-1.062.375-1.636.503-.57.125-1.145.215-1.739.266a22 22 0 0 1-1.718.07H72.3l-.504-2.02h1.734c.504 0 .992-.054 1.461-.175a4.3 4.3 0 0 0 1.262-.539c.367-.25.672-.555.906-.922q.359-.549.418-1.297z" style="stroke:none;fill-rule:nonzero;fill:#5c5b5e;fill-opacity:1"/><path d="M91.34 20.922h3.316c.004 1.55.004 3.082-.011 4.605-.012 1.524-.012 3.059.011 4.602 0 .68-.125 1.285-.363 1.8a4.3 4.3 0 0 1-.973 1.333 5.5 5.5 0 0 1-1.43.937q-.821.377-1.726.594c-.602.148-1.223.254-1.848.316-.64.051-1.25.082-1.843.082h-.274l-.508-2.02h1.61c.52 0 1.031-.058 1.515-.19a3.9 3.9 0 0 0 1.297-.61 3.06 3.06 0 0 0 .907-1.004c.214-.406.324-.879.32-1.433zM102.363 29.938c-.008.55.102 1.023.32 1.425.227.407.532.746.907 1.008q.573.41 1.305.61c.492.132.996.19 1.52.19h.78l.508 2.02h-.441c-.602 0-1.211-.035-1.852-.082a13 13 0 0 1-1.855-.316 9.6 9.6 0 0 1-1.72-.59 5.5 5.5 0 0 1-1.413-.941 4.1 4.1 0 0 1-.965-1.332c-.238-.52-.367-1.117-.367-1.801q-.011-2.315-.016-4.602l-.023-4.605h3.312zM118.633 25.168c.344.09.687.191 1.023.312.34.125.668.286.985.473.402.25.761.527 1.086.836.324.313.605.656.847 1.02.235.37.414.757.551 1.152.129.406.191.809.191 1.223q.013.953-.285 1.695c-.199.492-.476.926-.828 1.293h2.074l.508 2.02h-3.312l-.95.03c-.125 0-.238.008-.343.016-.102.008-.2.02-.285.028a1.5 1.5 0 0 1-.266.03c-.625.048-1.274.075-1.918.09-.64.02-1.285-.007-1.918-.074a11.5 11.5 0 0 1-1.898-.367 8.7 8.7 0 0 1-1.81-.758 2.94 2.94 0 0 1-1.038.766c-.434.188-.957.27-1.594.242h-1.73l-.512-2.02h.637q1.706-.012 1.824-1.66c.012-.894.121-1.706.308-2.421.188-.711.489-1.332.891-1.864a5.1 5.1 0 0 1 1.586-1.308c.648-.344 1.434-.606 2.363-.774.696-.109 1.36-.16 1.985-.14.629.02 1.234.074 1.828.164m-3.91 2.348a3.1 3.1 0 0 0-.996.835c-.258.34-.438.7-.54 1.098-.101.395-.12.79-.054 1.195.062.407.215.782.449 1.13q.365.526.918.867c.363.234.762.394 1.184.476q.631.14 1.304.055a3.7 3.7 0 0 0 1.266-.41c.406-.223.738-.5.988-.844.262-.344.442-.707.547-1.102a3.2 3.2 0 0 0 .055-1.203 3 3 0 0 0-.453-1.144 3 3 0 0 0-.914-.86 3.3 3.3 0 0 0-1.176-.468 3.9 3.9 0 0 0-1.301-.043c-.45.062-.871.207-1.277.418M132.125 33.172l.512 2.02h-7.84l-.5-2.02z" style="stroke:none;fill-rule:nonzero;fill:#5c5b5e;fill-opacity:1"/><path d="M162.496 33.172h-.824c-.5 0-.988-.05-1.45-.164a4 4 0 0 1-1.245-.551c-.356-.25-.63-.52-.825-.82a3.7 3.7 0 0 1-.449-.938 5 5 0 0 1-.183-.957c-.028-.316-.043-.61-.063-.879V25.07h-3.305l-.007 4.875c.015.403-.032.79-.145 1.149a2.6 2.6 0 0 1-.453.914 2.1 2.1 0 0 1-.621.476c-.235.11-.492.18-.762.2q-.404.036-.836-.075a2.9 2.9 0 0 1-.82-.367 2.85 2.85 0 0 1-.828-.73 2.6 2.6 0 0 1-.414-.813 3.2 3.2 0 0 1-.145-.867q-.025-.433-.027-.883V25.07h-3.309v4.746c0 .278-.027.547-.066.801q-.064.375-.215.727c-.102.226-.254.449-.45.652a3.2 3.2 0 0 1-.671.48c-.27.137-.547.227-.852.266q-.452.082-.933-.035a2.26 2.26 0 0 1-.918-.45 2.5 2.5 0 0 1-.68-.745 3 3 0 0 1-.336-.836 4.7 4.7 0 0 1-.113-.867c-.016-.305-.016-.586-.016-.86V25.07h-3.308l-.02 5.172c-.035.496-.172.93-.402 1.301-.243.36-.543.664-.914.914a4.3 4.3 0 0 1-1.262.54 5.6 5.6 0 0 1-1.45.175h-1.214l.512 2.02q.816-.001 1.691-.079a15 15 0 0 0 1.715-.273 10.5 10.5 0 0 0 1.61-.504 5.7 5.7 0 0 0 1.382-.773c.832.64 1.633 1.093 2.371 1.367q1.125.396 2.168.36a5.8 5.8 0 0 0 2.047-.517 10.7 10.7 0 0 0 1.988-1.21c.723.558 1.485.96 2.278 1.195.796.242 1.578.363 2.343.336a6.2 6.2 0 0 0 2.172-.45 5.4 5.4 0 0 0 1.77-1.109c.41.371.886.668 1.449.883.559.219 1.14.39 1.742.504.598.113 1.184.191 1.766.223.578.035 1.09.046 1.523.046H163zM167.168 33.172l.512 2.02h-4.66l-.512-2.02z" style="stroke:none;fill-rule:nonzero;fill:#5c5b5e;fill-opacity:1"/><path d="M172.633 25.063h3.308c-.004.847-.011 1.699-.011 2.539v2.52q0 1.025-.36 1.8-.361.772-.968 1.336c-.41.375-.883.687-1.43.945-.543.242-1.117.442-1.723.59-.605.148-1.222.25-1.855.316-.633.051-1.246.082-1.836.082h-.25l-.504-2.02h1.574c.524 0 1.027-.058 1.52-.19a4 4 0 0 0 1.3-.61c.372-.262.672-.601.899-1.008.223-.402.336-.886.336-1.43Zm1.52-4.645q.344.001.648.125a1.753 1.753 0 0 1 .89.898 1.6 1.6 0 0 1 .137.645c0 .23-.05.441-.137.64a1.5 1.5 0 0 1-.363.524 1.6 1.6 0 0 1-.527.36 1.58 1.58 0 0 1-1.29 0 1.7 1.7 0 0 1-.538-.36 1.5 1.5 0 0 1-.356-.523c-.094-.2-.137-.41-.137-.641 0-.23.043-.45.137-.645.086-.207.203-.378.356-.535.152-.148.332-.273.539-.363q.294-.124.64-.125" style="stroke:none;fill-rule:nonzero;fill:#5c5b5e;fill-opacity:1"/></svg>