<?xml version="1.0" encoding="UTF-8"?>
<svg xmlns="http://www.w3.org/2000/svg" xmlns:xlink="http://www.w3.org/1999/xlink" width="176pt" height="40.06pt" viewBox="0 0 176 40.06" version="1.1">
<defs>
<clipPath id="clip1">
  <path d="M 23 25 L 50 25 L 50 40.058594 L 23 40.058594 Z M 23 25 "/>
</clipPath>
</defs>
<g id="surface1">
<path style=" stroke:none;fill-rule:nonzero;fill:rgb(36.108398%,35.702515%,36.981201%);fill-opacity:1;" d="M 16.4375 11.523438 C 16.4375 12.457031 15.996094 12.925781 15.105469 12.925781 C 14.703125 12.925781 14.238281 12.726562 13.722656 12.332031 L 2.429688 3.425781 L 2.429688 12.054688 C 2.429688 12.457031 2.253906 12.699219 1.90625 12.800781 C 1.722656 12.839844 1.371094 12.863281 0.855469 12.863281 C 0.28125 12.863281 0 12.597656 0 12.0625 L 0 1.78125 C 0 0.886719 0.417969 0.445312 1.242188 0.445312 C 1.769531 0.445312 2.304688 0.65625 2.851562 1.085938 L 14.007812 9.894531 L 14.007812 1.332031 C 14.007812 0.941406 14.179688 0.695312 14.53125 0.597656 C 14.710938 0.554688 15.0625 0.535156 15.578125 0.535156 C 16.148438 0.535156 16.4375 0.796875 16.4375 1.324219 L 16.4375 11.523438 "/>
<path style=" stroke:none;fill-rule:nonzero;fill:rgb(36.108398%,35.702515%,36.981201%);fill-opacity:1;" d="M 32.285156 8.164062 C 32.285156 8.746094 32.066406 9.046875 31.640625 9.046875 L 20.175781 9.046875 L 20.175781 9.117188 C 20.175781 10.039062 20.757812 10.636719 21.917969 10.902344 C 22.175781 10.957031 22.542969 11 23.03125 11.027344 C 23.511719 11.066406 24.128906 11.078125 24.882812 11.078125 C 25.449219 11.078125 25.730469 11.40625 25.730469 12.066406 C 25.730469 12.597656 25.449219 12.867188 24.882812 12.867188 C 24.109375 12.867188 23.476562 12.859375 22.984375 12.839844 C 22.496094 12.832031 22.121094 12.808594 21.867188 12.769531 C 20.601562 12.65625 19.671875 12.375 19.082031 11.945312 C 18.230469 11.332031 17.8125 10.609375 17.8125 9.785156 L 17.8125 6.222656 C 17.8125 5.105469 18.464844 4.28125 19.773438 3.738281 C 20.707031 3.351562 21.894531 3.152344 23.335938 3.152344 L 27.636719 3.152344 C 28.828125 3.152344 29.828125 3.339844 30.636719 3.710938 C 31.734375 4.179688 32.285156 4.890625 32.285156 5.835938 Z M 30.023438 7.191406 L 30.023438 6 C 30.023438 5.277344 28.464844 4.914062 25.34375 4.914062 C 23.507812 4.914062 22.238281 4.972656 21.558594 5.097656 C 20.589844 5.261719 20.109375 5.59375 20.109375 6.082031 L 20.109375 7.191406 L 30.023438 7.191406 "/>
<path style=" stroke:none;fill-rule:nonzero;fill:rgb(36.108398%,35.702515%,36.981201%);fill-opacity:1;" d="M 46.480469 10.085938 C 46.480469 11.9375 44.960938 12.863281 41.917969 12.863281 L 34.125 12.863281 C 33.558594 12.863281 33.273438 12.597656 33.273438 12.066406 C 33.273438 11.40625 33.558594 11.078125 34.125 11.078125 L 41.925781 11.078125 C 43.367188 11.078125 44.085938 10.753906 44.085938 10.097656 L 44.085938 9.730469 C 44.085938 9.152344 43.433594 8.855469 42.117188 8.855469 L 38.371094 8.855469 C 34.929688 8.855469 33.207031 7.964844 33.207031 6.179688 L 33.207031 5.652344 C 33.207031 4.464844 34.070312 3.710938 35.796875 3.378906 C 36.507812 3.222656 37.867188 3.152344 39.871094 3.152344 C 40.445312 3.152344 40.730469 3.488281 40.730469 4.15625 C 40.730469 4.683594 40.445312 4.941406 39.871094 4.941406 L 38.207031 4.941406 C 37.34375 4.941406 36.824219 4.949219 36.648438 4.972656 C 35.890625 5.0625 35.496094 5.285156 35.496094 5.632812 L 35.496094 6.136719 C 35.496094 6.71875 36.460938 7.007812 38.378906 7.007812 L 42.210938 7.007812 C 45.058594 7.007812 46.480469 7.882812 46.480469 9.632812 L 46.480469 10.085938 "/>
<path style=" stroke:none;fill-rule:nonzero;fill:rgb(36.108398%,35.702515%,36.981201%);fill-opacity:1;" d="M 67.535156 12.0625 C 67.535156 12.597656 67.242188 12.863281 66.675781 12.863281 C 66.109375 12.863281 65.777344 12.832031 65.675781 12.769531 C 65.359375 12.667969 65.203125 12.429688 65.203125 12.042969 L 65.203125 6.0625 C 65.203125 5.296875 64.21875 4.914062 62.253906 4.914062 L 61.679688 4.914062 C 60.738281 4.945312 60.109375 5.007812 59.804688 5.097656 C 59.117188 5.285156 58.78125 5.691406 58.78125 6.328125 L 58.78125 12.042969 C 58.78125 12.429688 58.617188 12.667969 58.308594 12.769531 C 58.203125 12.832031 57.871094 12.863281 57.3125 12.863281 C 56.742188 12.863281 56.453125 12.597656 56.453125 12.0625 L 56.453125 6.316406 C 56.453125 5.746094 56.226562 5.359375 55.78125 5.15625 C 55.476562 5.019531 54.976562 4.945312 54.285156 4.945312 L 53.617188 4.945312 C 53.476562 4.933594 53.351562 4.921875 53.242188 4.917969 C 53.128906 4.914062 53.039062 4.914062 52.96875 4.914062 C 50.984375 4.914062 49.992188 5.304688 49.992188 6.082031 L 49.992188 12.039062 C 49.992188 12.429688 49.84375 12.667969 49.542969 12.769531 C 49.4375 12.832031 49.109375 12.863281 48.546875 12.863281 C 47.980469 12.863281 47.699219 12.597656 47.699219 12.0625 L 47.699219 6.320312 C 47.699219 4.210938 49.375 3.152344 52.730469 3.152344 C 53.390625 3.152344 53.933594 3.160156 54.347656 3.167969 C 54.773438 3.175781 55.078125 3.195312 55.285156 3.21875 C 56.164062 3.324219 56.960938 3.582031 57.6875 3.984375 C 58.363281 3.597656 59.171875 3.355469 60.117188 3.25 C 60.632812 3.183594 61.484375 3.152344 62.6875 3.152344 C 65.917969 3.152344 67.535156 4.210938 67.535156 6.320312 L 67.535156 12.0625 "/>
<path style=" stroke:none;fill-rule:nonzero;fill:rgb(36.108398%,35.702515%,36.981201%);fill-opacity:1;" d="M 84.328125 9.949219 C 84.328125 11.894531 82.753906 12.863281 79.605469 12.863281 L 73.96875 12.863281 C 72.773438 12.863281 71.726562 12.660156 70.832031 12.25 C 69.652344 11.722656 69.058594 10.992188 69.058594 10.054688 L 69.058594 8.820312 C 69.058594 7.808594 69.617188 7.046875 70.746094 6.542969 C 71.589844 6.152344 72.632812 5.957031 73.886719 5.957031 L 82.03125 5.957031 C 81.90625 5.261719 80.871094 4.914062 78.910156 4.914062 C 78.828125 4.914062 78.734375 4.914062 78.625 4.917969 C 78.507812 4.921875 78.375 4.933594 78.230469 4.941406 L 77.582031 4.941406 C 77.015625 4.941406 76.722656 4.609375 76.722656 3.945312 C 76.722656 3.421875 77.015625 3.152344 77.582031 3.152344 C 79.453125 3.152344 80.863281 3.273438 81.800781 3.507812 C 83.488281 3.945312 84.328125 4.824219 84.328125 6.140625 Z M 82.066406 9.449219 C 82.066406 9.351562 82.066406 9.234375 82.058594 9.09375 C 82.046875 8.953125 82.046875 8.789062 82.03125 8.59375 L 82.03125 7.75 L 73.835938 7.75 C 73.351562 7.75 72.855469 7.828125 72.347656 7.992188 C 71.683594 8.199219 71.351562 8.480469 71.351562 8.804688 L 71.351562 10.035156 C 71.351562 10.390625 71.695312 10.664062 72.378906 10.855469 C 72.851562 11 73.363281 11.078125 73.898438 11.078125 L 79.628906 11.078125 C 80.488281 11.078125 81.078125 11 81.394531 10.84375 C 81.84375 10.636719 82.066406 10.171875 82.066406 9.449219 "/>
<path style=" stroke:none;fill-rule:nonzero;fill:rgb(36.108398%,35.702515%,36.981201%);fill-opacity:1;" d="M 111.09375 12.371094 C 111.09375 12.699219 110.980469 12.976562 110.757812 13.195312 C 110.539062 13.421875 110.265625 13.53125 109.929688 13.53125 C 109.472656 13.53125 109.101562 13.320312 108.8125 12.886719 L 106.6875 9.8125 L 96.609375 9.8125 L 94.480469 12.886719 C 94.253906 13.21875 94.007812 13.394531 93.742188 13.394531 C 93.476562 13.394531 93.222656 13.304688 92.980469 13.132812 C 92.703125 12.949219 92.570312 12.726562 92.570312 12.476562 C 92.570312 12.398438 92.589844 12.324219 92.628906 12.261719 L 100.1875 0.710938 C 100.5 0.238281 101.035156 0.00390625 101.789062 0.00390625 C 102.347656 0.00390625 102.71875 0.160156 102.90625 0.476562 C 102.925781 0.496094 102.9375 0.523438 102.957031 0.566406 C 102.96875 0.609375 103 0.65625 103.042969 0.710938 L 111.054688 12.046875 C 111.078125 12.101562 111.09375 12.203125 111.09375 12.371094 M 105.289062 7.835938 L 101.660156 2.480469 L 98.007812 7.835938 L 105.289062 7.835938 "/>
<path style=" stroke:none;fill-rule:nonzero;fill:rgb(36.108398%,35.702515%,36.981201%);fill-opacity:1;" d="M 114.996094 1.53125 C 114.996094 1.90625 114.839844 2.199219 114.523438 2.414062 C 114.25 2.597656 113.914062 2.695312 113.523438 2.695312 C 113.125 2.695312 112.792969 2.597656 112.519531 2.414062 C 112.203125 2.199219 112.039062 1.90625 112.039062 1.53125 C 112.039062 1.15625 112.203125 0.863281 112.519531 0.652344 C 112.792969 0.460938 113.125 0.367188 113.523438 0.367188 C 113.914062 0.367188 114.25 0.460938 114.523438 0.652344 C 114.839844 0.863281 114.996094 1.15625 114.996094 1.53125 M 114.6875 12.421875 C 114.6875 12.984375 114.398438 13.261719 113.835938 13.261719 C 113.28125 13.261719 112.953125 13.242188 112.863281 13.195312 C 112.566406 13.085938 112.421875 12.828125 112.421875 12.421875 L 112.421875 3.75 C 112.421875 3.1875 112.703125 2.90625 113.273438 2.90625 C 113.816406 2.90625 114.140625 2.933594 114.238281 2.984375 C 114.53125 3.09375 114.6875 3.34375 114.6875 3.75 L 114.6875 12.421875 "/>
<path style=" stroke:none;fill-rule:nonzero;fill:rgb(36.108398%,35.702515%,36.981201%);fill-opacity:1;" d="M 122.847656 4.015625 C 122.847656 4.578125 122.507812 4.867188 121.828125 4.867188 C 121.738281 4.867188 121.605469 4.859375 121.429688 4.847656 C 121.253906 4.839844 121.121094 4.835938 121.023438 4.835938 C 119.28125 4.835938 118.410156 5.269531 118.410156 6.136719 L 118.410156 12.421875 C 118.410156 12.839844 118.246094 13.101562 117.929688 13.203125 C 117.800781 13.242188 117.472656 13.261719 116.9375 13.261719 C 116.394531 13.261719 116.128906 12.976562 116.128906 12.398438 L 116.128906 6.136719 C 116.128906 4.789062 116.820312 3.875 118.214844 3.394531 C 119.058594 3.089844 120.320312 2.941406 121.992188 2.941406 C 122.558594 2.941406 122.847656 3.300781 122.847656 4.015625 "/>
<path style=" stroke:none;fill-rule:nonzero;fill:rgb(36.108398%,35.702515%,36.981201%);fill-opacity:1;" d="M 126.460938 12.414062 C 126.460938 12.984375 126.179688 13.265625 125.621094 13.265625 C 125.066406 13.265625 124.746094 13.242188 124.648438 13.195312 C 124.339844 13.078125 124.1875 12.824219 124.1875 12.421875 L 124.1875 0.984375 C 124.1875 0.421875 124.46875 0.140625 125.019531 0.140625 C 125.546875 0.140625 125.882812 0.164062 126.007812 0.214844 C 126.308594 0.316406 126.460938 0.570312 126.460938 0.992188 L 126.460938 12.414062 "/>
<path style=" stroke:none;fill-rule:nonzero;fill:rgb(36.108398%,35.702515%,36.981201%);fill-opacity:1;" d="M 130.929688 1.53125 C 130.929688 1.90625 130.769531 2.199219 130.453125 2.414062 C 130.179688 2.597656 129.84375 2.695312 129.449219 2.695312 C 129.054688 2.695312 128.71875 2.597656 128.445312 2.414062 C 128.136719 2.199219 127.976562 1.90625 127.976562 1.53125 C 127.976562 1.15625 128.136719 0.863281 128.445312 0.652344 C 128.71875 0.460938 129.054688 0.367188 129.449219 0.367188 C 129.84375 0.367188 130.179688 0.460938 130.453125 0.652344 C 130.769531 0.863281 130.929688 1.15625 130.929688 1.53125 M 130.617188 12.421875 C 130.617188 12.984375 130.332031 13.261719 129.765625 13.261719 C 129.210938 13.261719 128.890625 13.242188 128.796875 13.195312 C 128.5 13.085938 128.351562 12.828125 128.351562 12.421875 L 128.351562 3.75 C 128.351562 3.1875 128.636719 2.90625 129.203125 2.90625 C 129.75 2.90625 130.070312 2.933594 130.164062 2.984375 C 130.464844 3.09375 130.617188 3.34375 130.617188 3.75 L 130.617188 12.421875 "/>
<path style=" stroke:none;fill-rule:nonzero;fill:rgb(36.108398%,35.702515%,36.981201%);fill-opacity:1;" d="M 146.46875 12.414062 C 146.46875 12.980469 146.183594 13.265625 145.621094 13.265625 C 145.058594 13.265625 144.734375 13.242188 144.644531 13.195312 C 144.332031 13.085938 144.179688 12.828125 144.179688 12.421875 L 144.179688 5.84375 C 144.179688 5.371094 143.792969 5.066406 143.019531 4.925781 C 142.886719 4.902344 142.671875 4.875 142.390625 4.867188 C 142.105469 4.855469 141.742188 4.851562 141.316406 4.851562 L 137.394531 4.851562 C 137.003906 4.851562 136.671875 4.859375 136.402344 4.875 C 136.132812 4.890625 135.917969 4.910156 135.757812 4.9375 C 135.027344 5.078125 134.660156 5.386719 134.660156 5.851562 L 134.660156 12.417969 C 134.660156 12.980469 134.382812 13.265625 133.820312 13.265625 C 133.261719 13.265625 132.933594 13.246094 132.84375 13.195312 C 132.535156 13.085938 132.382812 12.828125 132.382812 12.421875 L 132.382812 5.871094 C 132.382812 3.90625 134.128906 2.929688 137.601562 2.929688 L 141.308594 2.929688 C 144.75 2.929688 146.46875 3.902344 146.46875 5.847656 L 146.46875 12.414062 "/>
<path style=" stroke:none;fill-rule:nonzero;fill:rgb(36.108398%,35.702515%,36.981201%);fill-opacity:1;" d="M 162 8.269531 C 162 8.894531 161.792969 9.207031 161.367188 9.207031 L 150.0625 9.207031 L 150.0625 9.28125 C 150.0625 10.261719 150.648438 10.890625 151.789062 11.171875 C 152.042969 11.230469 152.40625 11.273438 152.886719 11.308594 C 153.359375 11.339844 153.972656 11.359375 154.714844 11.359375 C 155.265625 11.359375 155.546875 11.703125 155.546875 12.414062 C 155.546875 12.980469 155.265625 13.261719 154.714844 13.261719 C 153.945312 13.261719 153.324219 13.261719 152.847656 13.25 C 152.359375 13.238281 151.988281 13.214844 151.738281 13.191406 C 150.488281 13.0625 149.566406 12.769531 148.980469 12.304688 C 148.140625 11.65625 147.726562 10.886719 147.726562 10.003906 L 147.726562 6.199219 C 147.726562 5.003906 148.367188 4.128906 149.660156 3.546875 C 150.539062 3.136719 151.710938 2.929688 153.171875 2.929688 L 157.414062 2.929688 C 158.605469 2.929688 159.59375 3.121094 160.378906 3.519531 C 161.460938 4.015625 162 4.773438 162 5.785156 Z M 159.78125 7.238281 L 159.78125 5.96875 C 159.78125 5.195312 158.238281 4.8125 155.167969 4.8125 C 153.351562 4.8125 152.105469 4.875 151.429688 5.003906 C 150.472656 5.179688 150 5.53125 150 6.058594 L 150 7.238281 L 159.78125 7.238281 "/>
<path style=" stroke:none;fill-rule:nonzero;fill:rgb(36.108398%,35.702515%,36.981201%);fill-opacity:1;" d="M 176 10.316406 C 176 12.277344 174.5 13.265625 171.507812 13.265625 L 163.820312 13.265625 C 163.261719 13.265625 162.980469 12.980469 162.980469 12.410156 C 162.980469 11.703125 163.261719 11.359375 163.820312 11.359375 L 171.511719 11.359375 C 172.929688 11.359375 173.644531 11.003906 173.644531 10.316406 L 173.644531 9.929688 C 173.644531 9.304688 172.996094 8.992188 171.703125 8.992188 L 168.011719 8.992188 C 164.621094 8.992188 162.921875 8.042969 162.921875 6.144531 L 162.921875 5.582031 C 162.921875 4.324219 163.773438 3.523438 165.492188 3.164062 C 165.835938 3.089844 166.34375 3.023438 167.007812 2.988281 C 167.667969 2.949219 168.503906 2.929688 169.507812 2.929688 C 170.078125 2.929688 170.359375 3.292969 170.359375 4.007812 C 170.359375 4.570312 170.078125 4.851562 169.507812 4.851562 L 167.867188 4.851562 C 167.011719 4.851562 166.503906 4.859375 166.328125 4.878906 C 165.574219 4.976562 165.199219 5.210938 165.199219 5.578125 L 165.199219 6.121094 C 165.199219 6.746094 166.144531 7.054688 168.027344 7.054688 L 171.792969 7.054688 C 174.601562 7.054688 176 7.984375 176 9.839844 L 176 10.316406 "/>
<path style=" stroke:none;fill-rule:nonzero;fill:rgb(36.108398%,35.702515%,36.981201%);fill-opacity:1;" d="M 3.265625 29.027344 C 3.253906 29.488281 3.285156 29.960938 3.367188 30.429688 C 3.453125 30.898438 3.601562 31.328125 3.824219 31.726562 C 4.042969 32.132812 4.34375 32.484375 4.714844 32.78125 C 5.089844 33.074219 5.566406 33.269531 6.136719 33.382812 C 6.6875 33.488281 7.203125 33.472656 7.691406 33.332031 C 8.183594 33.199219 8.617188 32.980469 8.996094 32.675781 C 9.28125 32.429688 9.507812 32.167969 9.675781 31.882812 C 9.847656 31.597656 9.972656 31.304688 10.066406 30.976562 C 10.152344 30.65625 10.207031 30.316406 10.230469 29.960938 C 10.25 29.601562 10.257812 29.222656 10.257812 28.828125 L 10.269531 25.050781 L 13.578125 25.050781 L 13.589844 28.796875 C 13.589844 29.714844 13.507812 30.535156 13.351562 31.269531 C 13.1875 32.007812 12.914062 32.644531 12.53125 33.195312 C 12.148438 33.738281 11.636719 34.199219 11 34.558594 C 10.367188 34.921875 9.574219 35.195312 8.625 35.371094 C 7.195312 35.507812 5.945312 35.421875 4.875 35.109375 C 3.8125 34.792969 2.917969 34.332031 2.210938 33.722656 C 1.503906 33.117188 0.964844 32.402344 0.609375 31.578125 C 0.253906 30.757812 0.0703125 29.910156 0.0585938 29.027344 Z M 6.734375 21.71875 C 6.964844 21.71875 7.179688 21.769531 7.378906 21.859375 C 7.578125 21.941406 7.761719 22.0625 7.910156 22.214844 C 8.066406 22.367188 8.183594 22.542969 8.273438 22.746094 C 8.363281 22.953125 8.40625 23.167969 8.40625 23.398438 C 8.40625 23.621094 8.363281 23.839844 8.273438 24.042969 C 8.183594 24.246094 8.066406 24.421875 7.910156 24.5625 C 7.761719 24.710938 7.578125 24.828125 7.378906 24.921875 C 7.179688 25.007812 6.964844 25.050781 6.734375 25.050781 C 6.507812 25.050781 6.292969 25.007812 6.089844 24.921875 C 5.886719 24.828125 5.710938 24.710938 5.554688 24.5625 C 5.402344 24.421875 5.28125 24.246094 5.195312 24.042969 C 5.105469 23.839844 5.0625 23.621094 5.0625 23.398438 C 5.0625 23.167969 5.105469 22.953125 5.195312 22.746094 C 5.28125 22.542969 5.402344 22.367188 5.554688 22.214844 C 5.710938 22.0625 5.886719 21.941406 6.089844 21.859375 C 6.292969 21.769531 6.507812 21.71875 6.734375 21.71875 "/>
<path style=" stroke:none;fill-rule:nonzero;fill:rgb(36.108398%,35.702515%,36.981201%);fill-opacity:1;" d="M 16.105469 20.921875 L 19.4375 20.921875 L 19.453125 30.117188 L 19.453125 31.445312 C 19.453125 31.878906 19.425781 32.277344 19.382812 32.660156 C 19.335938 33.039062 19.25 33.390625 19.121094 33.714844 C 18.992188 34.035156 18.8125 34.304688 18.5625 34.527344 C 18.320312 34.75 18 34.921875 17.605469 35.042969 C 17.214844 35.160156 16.722656 35.210938 16.132812 35.191406 L 16.105469 20.921875 "/>
<g clip-path="url(#clip1)" clip-rule="nonzero">
<path style=" stroke:none;fill-rule:nonzero;fill:rgb(36.108398%,35.702515%,36.981201%);fill-opacity:1;" d="M 44.351562 36.730469 C 44.128906 36.730469 43.910156 36.769531 43.710938 36.855469 C 43.503906 36.9375 43.328125 37.058594 43.179688 37.207031 C 43.035156 37.359375 42.917969 37.539062 42.828125 37.746094 C 42.738281 37.945312 42.691406 38.164062 42.691406 38.390625 C 42.691406 38.613281 42.738281 38.828125 42.828125 39.03125 C 42.917969 39.234375 43.035156 39.414062 43.179688 39.5625 C 43.328125 39.722656 43.503906 39.835938 43.710938 39.925781 C 43.910156 40.011719 44.128906 40.058594 44.351562 40.058594 C 44.582031 40.058594 44.796875 40.011719 45 39.925781 C 45.199219 39.835938 45.375 39.722656 45.527344 39.5625 C 45.683594 39.414062 45.804688 39.234375 45.890625 39.03125 C 45.980469 38.828125 46.023438 38.613281 46.023438 38.390625 C 46.023438 38.164062 45.980469 37.945312 45.890625 37.746094 C 45.804688 37.539062 45.683594 37.359375 45.527344 37.207031 C 45.375 37.058594 45.199219 36.9375 45 36.855469 C 44.796875 36.769531 44.582031 36.730469 44.351562 36.730469 Z M 40.511719 36.730469 C 40.28125 36.730469 40.066406 36.769531 39.867188 36.855469 C 39.660156 36.9375 39.484375 37.058594 39.332031 37.207031 C 39.179688 37.359375 39.058594 37.539062 38.972656 37.746094 C 38.882812 37.945312 38.839844 38.164062 38.839844 38.390625 C 38.839844 38.613281 38.882812 38.828125 38.972656 39.03125 C 39.058594 39.234375 39.179688 39.414062 39.332031 39.5625 C 39.484375 39.722656 39.660156 39.835938 39.867188 39.925781 C 40.066406 40.011719 40.28125 40.058594 40.511719 40.058594 C 40.738281 40.058594 40.953125 40.011719 41.15625 39.925781 C 41.359375 39.835938 41.535156 39.722656 41.6875 39.5625 C 41.839844 39.414062 41.964844 39.234375 42.050781 39.03125 C 42.136719 38.828125 42.175781 38.613281 42.175781 38.390625 C 42.175781 38.164062 42.136719 37.945312 42.050781 37.746094 C 41.964844 37.539062 41.839844 37.359375 41.6875 37.207031 C 41.535156 37.058594 41.359375 36.9375 41.15625 36.855469 C 40.953125 36.769531 40.738281 36.730469 40.511719 36.730469 Z M 40.71875 25.074219 L 40.703125 30.242188 C 40.671875 30.738281 40.535156 31.171875 40.296875 31.542969 C 40.066406 31.902344 39.761719 32.207031 39.390625 32.457031 C 39.019531 32.691406 38.597656 32.878906 38.128906 32.996094 C 37.664062 33.117188 37.179688 33.171875 36.679688 33.171875 L 35.460938 33.171875 L 35.972656 35.191406 C 36.519531 35.191406 37.085938 35.164062 37.660156 35.113281 C 38.238281 35.054688 38.808594 34.964844 39.367188 34.839844 C 39.925781 34.707031 40.46875 34.542969 40.988281 34.335938 C 41.5 34.132812 41.964844 33.875 42.375 33.5625 C 42.789062 33.878906 43.253906 34.148438 43.773438 34.351562 C 44.289062 34.554688 44.835938 34.726562 45.402344 34.855469 C 45.972656 34.980469 46.550781 35.070312 47.144531 35.117188 C 47.734375 35.167969 48.308594 35.191406 48.867188 35.191406 L 49.371094 35.191406 L 48.867188 33.171875 L 48.03125 33.171875 C 47.535156 33.171875 47.046875 33.117188 46.578125 32.996094 C 46.117188 32.878906 45.691406 32.695312 45.320312 32.457031 C 44.949219 32.210938 44.648438 31.902344 44.410156 31.542969 C 44.171875 31.171875 44.039062 30.738281 44.007812 30.242188 L 44.027344 25.074219 Z M 27.152344 25.019531 L 27.191406 32.257812 C 27.191406 32.9375 27.109375 33.519531 26.960938 34.011719 C 26.808594 34.507812 26.589844 34.933594 26.304688 35.28125 C 26.015625 35.628906 25.667969 35.917969 25.265625 36.148438 C 24.859375 36.375 24.40625 36.5625 23.898438 36.703125 L 23.898438 38.808594 C 24.847656 38.671875 25.671875 38.488281 26.390625 38.261719 C 27.109375 38.035156 27.726562 37.746094 28.238281 37.390625 C 28.753906 37.03125 29.171875 36.597656 29.5 36.09375 C 29.824219 35.585938 30.0625 34.984375 30.214844 34.292969 C 30.613281 34.46875 31.023438 34.617188 31.453125 34.734375 C 31.886719 34.84375 32.324219 34.933594 32.773438 35 C 33.214844 35.070312 33.667969 35.121094 34.121094 35.148438 C 34.574219 35.175781 35.007812 35.191406 35.445312 35.191406 L 35.949219 35.191406 L 35.445312 33.171875 L 34.617188 33.171875 C 34.121094 33.171875 33.636719 33.117188 33.171875 32.996094 C 32.699219 32.878906 32.285156 32.695312 31.9375 32.457031 C 31.640625 32.257812 31.398438 32.042969 31.214844 31.808594 C 31.027344 31.570312 30.878906 31.324219 30.777344 31.0625 C 30.671875 30.796875 30.59375 30.53125 30.546875 30.253906 C 30.5 29.980469 30.476562 29.703125 30.46875 29.425781 L 30.476562 25.019531 L 27.152344 25.019531 "/>
</g>
<path style=" stroke:none;fill-rule:nonzero;fill:rgb(36.108398%,35.702515%,36.981201%);fill-opacity:1;" d="M 48.871094 33.171875 L 50.972656 33.171875 L 50.964844 20.921875 L 54.289062 20.921875 L 54.289062 25.757812 C 54.523438 25.660156 54.757812 25.582031 55 25.507812 C 55.238281 25.4375 55.476562 25.371094 55.726562 25.324219 C 56.148438 25.226562 56.632812 25.160156 57.191406 25.125 C 57.75 25.085938 58.378906 25.070312 59.078125 25.070312 L 62.914062 25.070312 C 63.625 25.070312 64.261719 25.085938 64.816406 25.125 C 65.375 25.160156 65.863281 25.226562 66.289062 25.316406 C 67.035156 25.46875 67.769531 25.734375 68.476562 26.128906 C 68.867188 26.371094 69.21875 26.628906 69.539062 26.929688 C 69.863281 27.222656 70.136719 27.535156 70.367188 27.878906 C 70.59375 28.214844 70.765625 28.570312 70.894531 28.949219 C 71.007812 29.328125 71.074219 29.722656 71.074219 30.128906 C 71.074219 30.78125 70.960938 31.367188 70.753906 31.867188 C 70.535156 32.363281 70.234375 32.804688 69.84375 33.171875 L 71.785156 33.171875 L 72.292969 35.191406 L 49.382812 35.191406 Z M 63.753906 33.171875 C 64.25 33.171875 64.734375 33.113281 65.207031 32.980469 C 65.675781 32.855469 66.082031 32.667969 66.453125 32.414062 C 66.8125 32.160156 67.101562 31.851562 67.324219 31.46875 C 67.546875 31.09375 67.652344 30.644531 67.652344 30.132812 C 67.652344 29.609375 67.542969 29.15625 67.308594 28.773438 C 67.078125 28.394531 66.765625 28.074219 66.394531 27.824219 C 66.023438 27.582031 65.597656 27.390625 65.132812 27.269531 C 64.667969 27.148438 64.207031 27.085938 63.753906 27.085938 L 58.242188 27.085938 C 57.605469 27.085938 57.046875 27.179688 56.554688 27.363281 C 56.070312 27.550781 55.65625 27.816406 55.320312 28.160156 C 54.988281 28.507812 54.734375 28.921875 54.554688 29.402344 C 54.378906 29.890625 54.289062 30.429688 54.289062 31.011719 L 54.300781 33.171875 L 63.753906 33.171875 "/>
<path style=" stroke:none;fill-rule:nonzero;fill:rgb(36.108398%,35.702515%,36.981201%);fill-opacity:1;" d="M 77.570312 20.921875 L 80.867188 20.921875 L 80.867188 30.238281 C 80.898438 30.738281 81.042969 31.167969 81.28125 31.535156 C 81.519531 31.902344 81.820312 32.207031 82.199219 32.457031 C 82.566406 32.695312 82.984375 32.878906 83.453125 32.996094 C 83.921875 33.117188 84.40625 33.171875 84.902344 33.171875 L 85.730469 33.171875 L 86.234375 35.191406 L 85.714844 35.191406 C 85.167969 35.191406 84.597656 35.167969 84.003906 35.121094 C 83.414062 35.070312 82.835938 34.980469 82.265625 34.855469 C 81.699219 34.726562 81.148438 34.554688 80.628906 34.351562 C 80.109375 34.148438 79.636719 33.878906 79.222656 33.558594 C 78.808594 33.878906 78.34375 34.148438 77.816406 34.351562 C 77.300781 34.554688 76.753906 34.726562 76.179688 34.855469 C 75.609375 34.980469 75.035156 35.070312 74.441406 35.121094 C 73.84375 35.167969 73.277344 35.191406 72.722656 35.191406 L 72.300781 35.191406 L 71.796875 33.171875 L 73.53125 33.171875 C 74.035156 33.171875 74.523438 33.117188 74.992188 32.996094 C 75.460938 32.878906 75.878906 32.695312 76.253906 32.457031 C 76.621094 32.207031 76.925781 31.902344 77.160156 31.535156 C 77.398438 31.167969 77.539062 30.738281 77.578125 30.238281 L 77.570312 20.921875 "/>
<path style=" stroke:none;fill-rule:nonzero;fill:rgb(36.108398%,35.702515%,36.981201%);fill-opacity:1;" d="M 91.339844 20.921875 L 94.65625 20.921875 C 94.660156 22.472656 94.660156 24.003906 94.644531 25.527344 C 94.632812 27.050781 94.632812 28.585938 94.65625 30.128906 C 94.65625 30.808594 94.53125 31.414062 94.292969 31.929688 C 94.050781 32.441406 93.726562 32.890625 93.320312 33.261719 C 92.910156 33.636719 92.429688 33.953125 91.890625 34.199219 C 91.34375 34.449219 90.765625 34.648438 90.164062 34.792969 C 89.5625 34.941406 88.941406 35.046875 88.316406 35.109375 C 87.675781 35.160156 87.066406 35.191406 86.472656 35.191406 L 86.199219 35.191406 L 85.691406 33.171875 L 87.300781 33.171875 C 87.820312 33.171875 88.332031 33.113281 88.816406 32.980469 C 89.308594 32.847656 89.742188 32.644531 90.113281 32.371094 C 90.492188 32.105469 90.789062 31.769531 91.019531 31.367188 C 91.234375 30.960938 91.34375 30.488281 91.339844 29.933594 L 91.339844 20.921875 "/>
<path style=" stroke:none;fill-rule:nonzero;fill:rgb(36.108398%,35.702515%,36.981201%);fill-opacity:1;" d="M 102.363281 29.9375 C 102.355469 30.488281 102.464844 30.960938 102.683594 31.363281 C 102.910156 31.769531 103.214844 32.109375 103.589844 32.371094 C 103.972656 32.644531 104.40625 32.847656 104.894531 32.980469 C 105.386719 33.113281 105.890625 33.171875 106.414062 33.171875 L 107.195312 33.171875 L 107.703125 35.191406 L 107.261719 35.191406 C 106.660156 35.191406 106.050781 35.15625 105.410156 35.109375 C 104.777344 35.046875 104.15625 34.941406 103.554688 34.792969 C 102.941406 34.644531 102.367188 34.445312 101.835938 34.203125 C 101.296875 33.953125 100.824219 33.632812 100.421875 33.261719 C 100.015625 32.890625 99.691406 32.441406 99.457031 31.929688 C 99.21875 31.410156 99.089844 30.8125 99.089844 30.128906 C 99.082031 28.585938 99.078125 27.050781 99.074219 25.527344 C 99.066406 24.003906 99.058594 22.472656 99.050781 20.921875 L 102.363281 20.921875 L 102.363281 29.9375 "/>
<path style=" stroke:none;fill-rule:nonzero;fill:rgb(36.108398%,35.702515%,36.981201%);fill-opacity:1;" d="M 118.632812 25.167969 C 118.976562 25.257812 119.320312 25.359375 119.65625 25.480469 C 119.996094 25.605469 120.324219 25.765625 120.640625 25.953125 C 121.042969 26.203125 121.402344 26.480469 121.726562 26.789062 C 122.050781 27.101562 122.332031 27.445312 122.574219 27.808594 C 122.808594 28.179688 122.988281 28.566406 123.125 28.960938 C 123.253906 29.367188 123.316406 29.769531 123.316406 30.183594 C 123.324219 30.820312 123.230469 31.382812 123.03125 31.878906 C 122.832031 32.371094 122.554688 32.804688 122.203125 33.171875 L 124.277344 33.171875 L 124.785156 35.191406 L 121.472656 35.191406 L 120.523438 35.222656 C 120.398438 35.222656 120.285156 35.230469 120.179688 35.238281 C 120.078125 35.246094 119.980469 35.257812 119.894531 35.265625 C 119.808594 35.28125 119.714844 35.296875 119.628906 35.296875 C 119.003906 35.34375 118.355469 35.371094 117.710938 35.386719 C 117.070312 35.40625 116.425781 35.378906 115.792969 35.3125 C 115.15625 35.246094 114.523438 35.121094 113.894531 34.945312 C 113.273438 34.761719 112.667969 34.515625 112.085938 34.1875 C 111.816406 34.503906 111.46875 34.761719 111.046875 34.953125 C 110.613281 35.140625 110.089844 35.222656 109.453125 35.195312 L 107.722656 35.195312 L 107.210938 33.175781 L 107.847656 33.175781 C 108.984375 33.167969 109.59375 32.613281 109.671875 31.515625 C 109.683594 30.621094 109.792969 29.808594 109.980469 29.09375 C 110.167969 28.382812 110.46875 27.761719 110.871094 27.230469 C 111.285156 26.710938 111.816406 26.269531 112.457031 25.921875 C 113.105469 25.578125 113.890625 25.316406 114.820312 25.148438 C 115.515625 25.039062 116.179688 24.988281 116.804688 25.007812 C 117.433594 25.027344 118.039062 25.082031 118.632812 25.171875 M 114.722656 27.519531 C 114.316406 27.742188 113.984375 28.015625 113.726562 28.355469 C 113.46875 28.695312 113.289062 29.054688 113.1875 29.453125 C 113.085938 29.847656 113.066406 30.242188 113.132812 30.648438 C 113.195312 31.054688 113.347656 31.429688 113.582031 31.777344 C 113.824219 32.128906 114.132812 32.417969 114.5 32.644531 C 114.863281 32.878906 115.261719 33.039062 115.683594 33.121094 C 116.105469 33.214844 116.539062 33.230469 116.988281 33.175781 C 117.433594 33.117188 117.855469 32.980469 118.253906 32.765625 C 118.660156 32.542969 118.992188 32.265625 119.242188 31.921875 C 119.503906 31.578125 119.683594 31.214844 119.789062 30.820312 C 119.882812 30.425781 119.902344 30.027344 119.84375 29.617188 C 119.777344 29.207031 119.621094 28.828125 119.390625 28.472656 C 119.144531 28.121094 118.84375 27.835938 118.476562 27.613281 C 118.113281 27.382812 117.730469 27.226562 117.300781 27.144531 C 116.882812 27.058594 116.445312 27.042969 116 27.101562 C 115.550781 27.164062 115.128906 27.308594 114.722656 27.519531 "/>
<path style=" stroke:none;fill-rule:nonzero;fill:rgb(36.108398%,35.702515%,36.981201%);fill-opacity:1;" d="M 132.125 33.171875 L 132.636719 35.191406 L 124.796875 35.191406 L 124.296875 33.171875 L 132.125 33.171875 "/>
<path style=" stroke:none;fill-rule:nonzero;fill:rgb(36.108398%,35.702515%,36.981201%);fill-opacity:1;" d="M 162.496094 33.171875 L 161.671875 33.171875 C 161.171875 33.171875 160.683594 33.121094 160.222656 33.007812 C 159.765625 32.894531 159.351562 32.707031 158.976562 32.457031 C 158.621094 32.207031 158.347656 31.9375 158.152344 31.636719 C 157.949219 31.328125 157.800781 31.015625 157.703125 30.699219 C 157.605469 30.375 157.550781 30.054688 157.519531 29.742188 C 157.492188 29.425781 157.476562 29.132812 157.457031 28.863281 L 157.457031 25.070312 L 154.152344 25.070312 L 154.144531 29.945312 C 154.160156 30.347656 154.113281 30.734375 154 31.09375 C 153.894531 31.460938 153.742188 31.761719 153.546875 32.007812 C 153.371094 32.207031 153.160156 32.363281 152.925781 32.484375 C 152.691406 32.59375 152.433594 32.664062 152.164062 32.683594 C 151.894531 32.707031 151.617188 32.683594 151.328125 32.609375 C 151.042969 32.53125 150.769531 32.414062 150.507812 32.242188 C 150.148438 32.023438 149.875 31.777344 149.679688 31.511719 C 149.488281 31.246094 149.34375 30.976562 149.265625 30.699219 C 149.179688 30.410156 149.125 30.128906 149.121094 29.832031 C 149.105469 29.542969 149.09375 29.25 149.09375 28.949219 L 149.09375 25.070312 L 145.785156 25.070312 L 145.785156 29.816406 C 145.785156 30.09375 145.757812 30.363281 145.71875 30.617188 C 145.675781 30.867188 145.605469 31.109375 145.503906 31.34375 C 145.402344 31.570312 145.25 31.792969 145.054688 31.996094 C 144.859375 32.179688 144.636719 32.339844 144.382812 32.476562 C 144.113281 32.613281 143.835938 32.703125 143.53125 32.742188 C 143.230469 32.796875 142.917969 32.785156 142.597656 32.707031 C 142.28125 32.640625 141.96875 32.484375 141.679688 32.257812 C 141.382812 32.03125 141.15625 31.785156 141 31.511719 C 140.847656 31.246094 140.730469 30.964844 140.664062 30.675781 C 140.597656 30.390625 140.5625 30.097656 140.550781 29.808594 C 140.535156 29.503906 140.535156 29.222656 140.535156 28.949219 L 140.535156 25.070312 L 137.226562 25.070312 L 137.207031 30.242188 C 137.171875 30.738281 137.035156 31.171875 136.804688 31.542969 C 136.5625 31.902344 136.261719 32.207031 135.890625 32.457031 C 135.515625 32.695312 135.097656 32.878906 134.628906 32.996094 C 134.160156 33.121094 133.679688 33.171875 133.179688 33.171875 L 131.964844 33.171875 L 132.476562 35.191406 C 133.019531 35.191406 133.585938 35.164062 134.167969 35.113281 C 134.75 35.054688 135.324219 34.964844 135.882812 34.839844 C 136.445312 34.710938 136.984375 34.542969 137.492188 34.335938 C 138.003906 34.132812 138.46875 33.875 138.875 33.5625 C 139.707031 34.203125 140.507812 34.65625 141.246094 34.929688 C 141.996094 35.195312 142.71875 35.3125 143.414062 35.289062 C 144.105469 35.246094 144.789062 35.078125 145.460938 34.773438 C 146.128906 34.46875 146.785156 34.0625 147.449219 33.5625 C 148.171875 34.121094 148.933594 34.523438 149.726562 34.757812 C 150.523438 35 151.304688 35.121094 152.070312 35.09375 C 152.835938 35.074219 153.554688 34.921875 154.242188 34.644531 C 154.925781 34.375 155.519531 34.003906 156.011719 33.535156 C 156.421875 33.90625 156.898438 34.203125 157.460938 34.417969 C 158.019531 34.636719 158.601562 34.808594 159.203125 34.921875 C 159.800781 35.035156 160.386719 35.113281 160.96875 35.144531 C 161.546875 35.179688 162.058594 35.191406 162.492188 35.191406 L 163 35.191406 L 162.496094 33.171875 "/>
<path style=" stroke:none;fill-rule:nonzero;fill:rgb(36.108398%,35.702515%,36.981201%);fill-opacity:1;" d="M 167.167969 33.171875 L 167.679688 35.191406 L 163.019531 35.191406 L 162.507812 33.171875 L 167.167969 33.171875 "/>
<path style=" stroke:none;fill-rule:nonzero;fill:rgb(36.108398%,35.702515%,36.981201%);fill-opacity:1;" d="M 172.632812 25.0625 L 175.941406 25.0625 C 175.9375 25.910156 175.929688 26.761719 175.929688 27.601562 L 175.929688 30.121094 C 175.929688 30.804688 175.808594 31.40625 175.570312 31.921875 C 175.328125 32.4375 175.007812 32.882812 174.601562 33.257812 C 174.191406 33.632812 173.71875 33.945312 173.171875 34.203125 C 172.628906 34.445312 172.054688 34.644531 171.449219 34.792969 C 170.84375 34.941406 170.226562 35.042969 169.59375 35.109375 C 168.960938 35.160156 168.347656 35.191406 167.757812 35.191406 L 167.507812 35.191406 L 167.003906 33.171875 L 168.578125 33.171875 C 169.101562 33.171875 169.605469 33.113281 170.097656 32.980469 C 170.589844 32.847656 171.019531 32.644531 171.398438 32.371094 C 171.769531 32.109375 172.070312 31.769531 172.296875 31.363281 C 172.519531 30.960938 172.632812 30.476562 172.632812 29.933594 Z M 174.152344 20.417969 C 174.382812 20.417969 174.597656 20.460938 174.800781 20.542969 C 175.003906 20.632812 175.175781 20.757812 175.328125 20.90625 C 175.484375 21.0625 175.597656 21.234375 175.691406 21.441406 C 175.777344 21.636719 175.828125 21.855469 175.828125 22.085938 C 175.828125 22.316406 175.777344 22.527344 175.691406 22.726562 C 175.597656 22.933594 175.484375 23.109375 175.328125 23.25 C 175.175781 23.402344 175.003906 23.523438 174.800781 23.609375 C 174.597656 23.699219 174.382812 23.746094 174.152344 23.746094 C 173.921875 23.746094 173.707031 23.699219 173.511719 23.609375 C 173.304688 23.523438 173.125 23.402344 172.972656 23.25 C 172.820312 23.109375 172.703125 22.933594 172.617188 22.726562 C 172.523438 22.527344 172.480469 22.316406 172.480469 22.085938 C 172.480469 21.855469 172.523438 21.636719 172.617188 21.441406 C 172.703125 21.234375 172.820312 21.0625 172.972656 20.90625 C 173.125 20.757812 173.304688 20.632812 173.511719 20.542969 C 173.707031 20.460938 173.921875 20.417969 174.152344 20.417969 "/>
</g>
</svg>
