<?xml version="1.0" encoding="UTF-8"?>
<svg xmlns="http://www.w3.org/2000/svg" xmlns:xlink="http://www.w3.org/1999/xlink" width="165.28pt" height="59pt" viewBox="0 0 165.28 59" version="1.1">
<defs>
<clipPath id="clip1">
  <path d="M 115 0 L 165.28125 0 L 165.28125 41 L 115 41 Z M 115 0 "/>
</clipPath>
</defs>
<g id="surface1">
<g clip-path="url(#clip1)" clip-rule="nonzero">
<path style=" stroke:none;fill-rule:nonzero;fill:rgb(86.714172%,12.213135%,15.452576%);fill-opacity:1;" d="M 135.460938 0 C 135.769531 0.0859375 136.074219 0.203125 136.390625 0.253906 C 137.855469 0.507812 138.457031 1.09375 138.636719 2.582031 C 138.761719 3.585938 138.816406 4.601562 138.910156 5.738281 C 147.710938 4.925781 156.453125 4.117188 165.195312 3.3125 C 165.226562 3.417969 165.253906 3.523438 165.28125 3.628906 C 164.640625 3.910156 164.007812 4.226562 163.347656 4.464844 C 159.804688 5.757812 156.128906 6.574219 152.441406 7.335938 C 147.191406 8.421875 141.914062 9.324219 136.585938 9.808594 C 134.21875 19.71875 132.085938 29.621094 132.289062 39.925781 C 129.605469 40.519531 128.015625 38.964844 126.359375 37.210938 C 126.632812 36.695312 126.8125 36.070312 127.210938 35.65625 C 128.070312 34.777344 128.394531 33.707031 128.558594 32.566406 C 129.078125 28.960938 129.5625 25.351562 130.0625 21.742188 C 130.535156 18.339844 131.007812 14.9375 131.472656 11.53125 C 131.507812 11.265625 131.476562 10.984375 131.476562 10.617188 C 129.8125 10.496094 128.253906 10.835938 126.683594 11.015625 C 125.101562 11.195312 123.507812 11.308594 121.832031 11.457031 C 121.644531 11.664062 121.421875 11.960938 121.148438 12.195312 C 120.492188 12.757812 119.746094 13.03125 118.878906 12.742188 C 118.257812 12.535156 117.621094 12.359375 117.019531 12.113281 C 115.34375 11.421875 115.097656 10.964844 115.347656 9 C 120.929688 7.90625 126.601562 7.21875 132.355469 6.558594 C 132.65625 4.347656 133.351562 2.234375 133.246094 0 C 133.984375 0 134.722656 0 135.460938 0 "/>
</g>
<path style=" stroke:none;fill-rule:nonzero;fill:rgb(86.714172%,12.213135%,15.452576%);fill-opacity:1;" d="M 77.390625 9.640625 C 77.234375 9.746094 77.207031 9.777344 77.167969 9.789062 C 74.753906 10.671875 75.070312 10.089844 73.929688 12.980469 C 73.34375 14.464844 72.742188 15.964844 71.925781 17.320312 C 70.160156 20.257812 68.996094 23.4375 67.871094 26.640625 C 65.402344 33.660156 62.933594 40.679688 60.46875 47.703125 C 60.152344 48.605469 59.726562 49.4375 58.96875 50.046875 C 57.941406 50.875 56.875 50.769531 56.078125 49.726562 C 55.5 48.96875 55.140625 48.125 55.070312 47.140625 C 54.714844 42.324219 54.390625 37.503906 53.933594 32.699219 C 53.449219 27.609375 52.796875 22.535156 52.273438 17.453125 C 52.125 16.03125 52.175781 14.589844 52.136719 13.15625 C 52.136719 13.078125 52.144531 12.992188 52.152344 12.910156 C 52.335938 11.101562 53.097656 10.644531 54.675781 11.515625 C 55.964844 12.222656 57.179688 13.058594 58.410156 13.828125 C 58.644531 15.507812 58.363281 17.082031 58.121094 18.65625 C 57.863281 20.308594 57.484375 21.953125 57.28125 23.613281 C 56.679688 28.441406 56.707031 33.242188 57.996094 37.988281 C 58.292969 39.085938 58.417969 40.226562 58.632812 41.425781 C 58.757812 41.285156 58.925781 41.171875 58.976562 41.023438 C 62.449219 31.019531 65.902344 21.007812 69.378906 11.007812 C 70.242188 8.527344 70.96875 6.03125 71.042969 3.425781 C 73.542969 2.488281 75.261719 3.117188 76.445312 5.347656 C 77.148438 6.683594 77.320312 8.136719 77.390625 9.640625 "/>
<path style=" stroke:none;fill-rule:nonzero;fill:rgb(86.714172%,12.213135%,15.452576%);fill-opacity:1;" d="M 13.035156 35.527344 C 13.871094 35.210938 14.542969 34.941406 15.230469 34.699219 C 15.921875 34.457031 16.628906 34.257812 17.320312 34.011719 C 19.027344 33.402344 19.609375 32.644531 19.636719 30.835938 C 19.652344 29.984375 19.550781 29.125 19.4375 28.277344 C 19.1875 26.414062 18.792969 24.578125 17.957031 22.878906 C 17.757812 22.476562 17.660156 21.933594 17.011719 21.796875 C 16.789062 24.105469 15.933594 26.167969 15 28.210938 C 14.527344 29.246094 14.09375 30.308594 13.722656 31.386719 C 13.289062 32.65625 12.980469 33.960938 13.035156 35.527344 Z M 19.402344 35.992188 C 18.183594 36.542969 17.234375 36.996094 16.265625 37.40625 C 15.472656 37.738281 14.671875 38.058594 13.851562 38.308594 C 12.699219 38.660156 11.960938 39.410156 11.546875 40.507812 C 11.125 41.613281 10.714844 42.726562 10.3125 43.84375 C 9.488281 46.15625 8.628906 48.453125 7.863281 50.78125 C 7.15625 52.917969 6.5625 55.085938 5.90625 57.238281 C 5.742188 57.777344 5.546875 58.3125 5.316406 59 C 4.269531 58.757812 3.25 58.636719 2.320312 58.285156 C 0.15625 57.460938 -0.585938 55.449219 0.480469 53.394531 C 0.988281 52.417969 1.585938 51.480469 2.203125 50.566406 C 5.496094 45.6875 8.042969 40.457031 9.847656 34.84375 C 11.5625 29.511719 13.4375 24.230469 15.230469 18.921875 C 15.519531 18.070312 15.71875 17.191406 15.992188 16.335938 C 16.230469 15.597656 16.433594 14.835938 16.796875 14.160156 C 17.425781 12.988281 18.324219 12.910156 19.085938 13.976562 C 19.601562 14.703125 20.019531 15.523438 20.335938 16.351562 C 21.160156 18.507812 21.515625 20.757812 21.6875 23.0625 C 22.0625 28.121094 22.515625 33.171875 22.996094 38.222656 C 23.28125 41.195312 23.710938 44.15625 24.019531 47.125 C 24.109375 47.972656 24.125 48.855469 23.984375 49.691406 C 23.730469 51.230469 22.710938 51.734375 21.28125 51.109375 C 19.929688 50.519531 18.878906 49.550781 18.074219 48.339844 C 17.859375 48.019531 17.714844 47.5625 17.753906 47.195312 C 17.847656 46.347656 17.976562 45.480469 18.269531 44.691406 C 18.820312 43.21875 19.140625 41.714844 19.210938 40.148438 C 19.273438 38.84375 19.332031 37.542969 19.402344 35.992188 "/>
<path style=" stroke:none;fill-rule:nonzero;fill:rgb(86.714172%,12.213135%,15.452576%);fill-opacity:1;" d="M 139.890625 30.96875 C 140.183594 30.644531 140.480469 30.328125 140.765625 29.996094 C 143.308594 27.046875 145.675781 23.972656 147.589844 20.558594 C 148.488281 18.957031 149.558594 17.449219 150.582031 15.917969 C 151.359375 14.757812 152.101562 13.59375 152.316406 12.167969 C 152.386719 11.734375 152.617188 11.332031 152.789062 10.871094 C 154.59375 10.652344 156.070312 11.375 157.625 12.363281 C 157.3125 13.605469 157.019531 14.867188 156.671875 16.113281 C 156.003906 18.519531 155.230469 20.898438 154.636719 23.316406 C 153.695312 27.160156 153.597656 31.09375 153.582031 35.03125 C 153.578125 35.589844 153.582031 36.148438 153.582031 36.710938 C 150.164062 36.597656 148.96875 34.535156 148.941406 32.148438 C 148.914062 29.882812 149.285156 27.664062 149.625 25.441406 C 149.742188 24.644531 149.839844 23.84375 149.730469 22.921875 C 149.367188 23.332031 148.933594 23.699219 148.65625 24.160156 C 147.949219 25.355469 147.246094 26.5625 146.664062 27.820312 C 145.226562 30.910156 143.019531 33.449219 140.832031 35.988281 C 139.730469 37.269531 139.023438 37.289062 137.644531 36.351562 C 136.964844 35.894531 136.320312 35.382812 135.660156 34.898438 C 134.964844 34.390625 134.695312 33.753906 134.890625 32.871094 C 135.523438 30.039062 136.085938 27.1875 136.734375 24.359375 C 137.511719 20.996094 137.878906 17.582031 138.1875 14.15625 C 138.21875 13.832031 138.226562 13.503906 138.285156 13.183594 C 138.554688 11.730469 138.9375 11.402344 140.355469 11.617188 C 141.476562 11.785156 142.574219 12.09375 143.855469 12.378906 C 143.285156 14.734375 142.777344 16.960938 142.203125 19.164062 C 141.304688 22.648438 140.210938 26.085938 139.730469 29.667969 C 139.679688 30.066406 139.65625 30.46875 139.617188 30.867188 C 139.710938 30.902344 139.800781 30.933594 139.890625 30.96875 "/>
<path style=" stroke:none;fill-rule:nonzero;fill:rgb(86.714172%,12.213135%,15.452576%);fill-opacity:1;" d="M 101.191406 36.097656 C 101.605469 35.613281 101.875 35.335938 102.109375 35.027344 C 104.613281 31.757812 106.164062 28.023438 107.191406 24.082031 C 107.882812 21.429688 108.359375 18.726562 108.9375 16.046875 C 109.074219 15.414062 109.226562 14.78125 109.375 14.132812 C 110.429688 13.976562 111.308594 14.269531 112.132812 14.742188 C 112.976562 15.226562 113.21875 16.054688 113.179688 16.953125 C 113.144531 17.683594 113.019531 18.414062 112.886719 19.140625 C 112.125 23.324219 111.347656 27.503906 110.582031 31.6875 C 110.285156 33.296875 110.496094 34.898438 110.960938 36.421875 C 111.328125 37.621094 111.335938 38.738281 110.941406 39.984375 C 107.5625 39.269531 106.28125 36.941406 106.167969 33.570312 C 105.230469 34.148438 104.636719 34.789062 104.207031 35.582031 C 103.914062 36.121094 103.6875 36.691406 103.4375 37.253906 C 102.949219 38.359375 102.289062 39.324219 101.261719 39.984375 C 98.707031 39.519531 97.28125 37.941406 97.109375 35.410156 C 96.957031 33.175781 97.414062 31.011719 97.851562 28.84375 C 98.714844 24.554688 99.621094 20.273438 99.640625 15.800781 C 100.90625 15.613281 102.054688 15.757812 103.140625 16.28125 C 104.097656 16.738281 104.527344 17.59375 104.449219 18.59375 C 104.332031 20.140625 104.175781 21.691406 103.867188 23.210938 C 103.28125 26.09375 102.71875 28.984375 101.664062 31.753906 C 101.164062 33.0625 101.160156 34.441406 101.191406 36.097656 "/>
<path style=" stroke:none;fill-rule:nonzero;fill:rgb(86.714172%,12.213135%,15.452576%);fill-opacity:1;" d="M 70.089844 40.273438 C 72.542969 38.226562 74.109375 35.851562 75.582031 33.40625 C 77.0625 30.949219 78.308594 28.382812 79.140625 25.582031 C 79.878906 25.582031 80.554688 25.582031 81.371094 25.582031 C 81.316406 26.128906 81.300781 26.605469 81.214844 27.070312 C 80.667969 30.003906 80.085938 32.929688 79.558594 35.867188 C 79.183594 37.941406 79.214844 40.003906 79.695312 42.078125 C 79.875 42.839844 79.835938 43.714844 79.65625 44.476562 C 79.414062 45.488281 78.652344 45.8125 77.65625 45.484375 C 76.414062 45.070312 75.523438 44.347656 75.652344 42.796875 C 75.746094 41.65625 75.828125 40.515625 75.910156 39.371094 C 75.960938 38.699219 76.007812 38.023438 76.054688 37.347656 C 75.957031 37.304688 75.859375 37.265625 75.761719 37.222656 C 75.367188 37.714844 74.902344 38.167969 74.589844 38.710938 C 73.839844 40.019531 73.207031 41.398438 72.441406 42.703125 C 71.785156 43.828125 71.109375 44.964844 70.269531 45.949219 C 69.105469 47.308594 67.558594 47.480469 65.890625 46.9375 C 65.3125 46.746094 65.066406 46.367188 64.886719 45.820312 C 64.25 43.882812 64.367188 41.945312 64.796875 40.003906 C 65.46875 36.933594 66.757812 34.105469 68.328125 31.414062 C 69.808594 28.875 71.410156 26.402344 72.976562 23.910156 C 73.78125 22.628906 74.644531 21.386719 75.4375 20.097656 C 76.476562 18.417969 77.089844 17.914062 79.203125 17.265625 C 79.886719 17.914062 80.71875 18.578125 81.394531 19.371094 C 82.234375 20.355469 82.316406 21.53125 81.820312 22.71875 C 81.511719 23.464844 81.089844 23.726562 80.382812 23.332031 C 78.726562 22.410156 77.628906 23.121094 76.554688 24.332031 C 73.175781 28.125 71.015625 32.496094 70.242188 37.53125 C 70.152344 38.136719 70.097656 38.746094 70.042969 39.355469 C 70.027344 39.554688 70.0625 39.757812 70.089844 40.273438 "/>
<path style=" stroke:none;fill-rule:nonzero;fill:rgb(86.714172%,12.213135%,15.452576%);fill-opacity:1;" d="M 92.792969 21.355469 C 92.316406 21.839844 91.804688 22.289062 91.371094 22.808594 C 89.226562 25.371094 87.558594 28.222656 86.277344 31.300781 C 85.394531 33.410156 85.363281 35.691406 85.019531 37.90625 C 84.816406 39.195312 84.609375 40.503906 84.199219 41.730469 C 83.542969 43.703125 82.265625 43.472656 80.71875 42.410156 C 80.210938 42.058594 80.21875 41.441406 80.34375 40.835938 C 80.734375 38.871094 81.140625 36.90625 81.457031 34.929688 C 82.28125 29.761719 83.0625 24.585938 83.863281 19.410156 C 83.917969 19.050781 83.988281 18.695312 84.054688 18.308594 C 85.054688 18.074219 85.964844 18.269531 86.859375 18.542969 C 87.570312 18.761719 87.898438 19.316406 87.941406 20.03125 C 87.972656 20.554688 87.945312 21.082031 87.945312 21.746094 C 88.242188 21.570312 88.496094 21.476562 88.671875 21.304688 C 89.78125 20.21875 90.878906 19.109375 91.976562 18.007812 C 92.820312 17.160156 93.796875 16.644531 95.035156 16.710938 C 96.777344 16.796875 97.789062 17.867188 97.5625 19.597656 C 97.277344 21.785156 96.878906 23.960938 96.519531 26.140625 C 95.632812 31.464844 94.738281 36.785156 93.847656 42.109375 C 93.835938 42.191406 93.792969 42.265625 93.765625 42.339844 C 91.84375 42.175781 90.441406 40.765625 90.242188 38.789062 C 90.050781 36.882812 90.460938 35.042969 90.84375 33.199219 C 91.511719 29.996094 92.175781 26.792969 92.816406 23.589844 C 92.949219 22.914062 92.972656 22.21875 93.050781 21.53125 C 92.964844 21.472656 92.878906 21.414062 92.792969 21.355469 "/>
<path style=" stroke:none;fill-rule:nonzero;fill:rgb(86.714172%,12.213135%,15.452576%);fill-opacity:1;" d="M 115.234375 38.335938 C 115.058594 38.324219 115.011719 38.332031 114.976562 38.316406 C 112.015625 37.027344 111.816406 36.761719 111.890625 33.53125 C 111.929688 31.816406 112.054688 30.097656 112.15625 28.382812 C 112.183594 27.976562 112.242188 27.5625 112.363281 27.175781 C 113.84375 22.492188 115.230469 17.769531 119.140625 14.355469 C 120.292969 13.347656 122.332031 12.863281 123.679688 13.441406 C 125.355469 14.15625 126.363281 16.203125 125.90625 17.960938 C 125.859375 18.15625 125.8125 18.351562 125.746094 18.605469 C 124.5625 18.628906 123.792969 17.890625 122.953125 17.195312 C 121.949219 17.707031 121.074219 18.382812 120.363281 19.21875 C 117.230469 22.925781 115.515625 27.230469 115.0625 32.046875 C 115.050781 32.167969 115.074219 32.289062 115.089844 32.410156 C 115.09375 32.445312 115.125 32.480469 115.1875 32.59375 C 115.34375 32.46875 115.519531 32.375 115.628906 32.230469 C 117.152344 30.203125 118.671875 28.171875 120.183594 26.136719 C 121.496094 24.363281 122.457031 22.449219 122.539062 20.183594 C 122.542969 20.070312 122.617188 19.960938 122.699219 19.734375 C 123.402344 19.867188 124.132812 19.945312 124.824219 20.148438 C 126.320312 20.585938 126.886719 21.40625 126.742188 22.984375 C 126.652344 24 126.484375 25.015625 126.269531 26.011719 C 125.476562 29.65625 124.929688 33.332031 124.871094 37.070312 C 124.871094 37.183594 124.820312 37.296875 124.769531 37.519531 C 123.902344 37.078125 123.058594 36.671875 122.242188 36.21875 C 121.683594 35.910156 121.3125 35.410156 121.21875 34.765625 C 121.109375 34.039062 121.039062 33.308594 120.972656 32.578125 C 120.933594 32.152344 120.929688 31.71875 120.898438 31.070312 C 119.871094 31.796875 119.210938 32.539062 118.753906 33.460938 C 118.464844 34.042969 118.21875 34.652344 117.945312 35.246094 C 117.355469 36.550781 116.425781 37.554688 115.234375 38.335938 "/>
<path style=" stroke:none;fill-rule:nonzero;fill:rgb(86.714172%,12.213135%,15.452576%);fill-opacity:1;" d="M 34.054688 52.304688 C 33.308594 50.300781 33.289062 48.292969 33.605469 46.308594 C 34.253906 42.234375 35.023438 38.175781 35.726562 34.109375 C 35.921875 32.984375 36.132812 31.851562 36.191406 30.714844 C 36.25 29.625 36.121094 28.527344 36.070312 27.375 C 37.78125 27.15625 39.507812 27.074219 41.136719 28.152344 C 41.207031 28.792969 41.277344 29.472656 41.355469 30.226562 C 42.132812 30.035156 42.578125 29.5 43.035156 29.003906 C 43.363281 28.648438 43.648438 28.238281 43.898438 27.820312 C 45.113281 25.8125 46.273438 25.28125 48.765625 25.675781 C 48.953125 26.429688 49.1875 27.210938 49.328125 28.007812 C 49.445312 28.683594 49.449219 29.382812 49.523438 30.300781 C 48.796875 30.023438 48.203125 29.824219 47.632812 29.574219 C 46.453125 29.054688 46.039062 29.109375 45.105469 29.992188 C 44.957031 30.132812 44.800781 30.273438 44.679688 30.433594 C 41.714844 34.285156 39.183594 38.363281 37.988281 43.148438 C 37.574219 44.792969 37.519531 46.464844 37.535156 48.144531 C 37.566406 51.042969 37.042969 51.679688 34.054688 52.304688 "/>
<path style=" stroke:none;fill-rule:nonzero;fill:rgb(86.714172%,12.213135%,15.452576%);fill-opacity:1;" d="M 29.574219 28.28125 C 31.046875 28.46875 32.40625 28.640625 33.847656 28.824219 C 33.847656 29.0625 33.875 29.257812 33.84375 29.445312 C 32.710938 36.171875 31.574219 42.902344 30.429688 49.625 C 30.347656 50.109375 30.234375 50.589844 30.105469 51.0625 C 29.722656 52.507812 29.21875 52.929688 27.71875 53.070312 C 27.398438 53.101562 27.074219 53.074219 26.6875 53.074219 C 26.121094 51.457031 26.214844 49.820312 26.464844 48.21875 C 27.046875 44.464844 27.78125 40.734375 28.378906 36.984375 C 28.753906 34.648438 28.988281 32.285156 29.292969 29.9375 C 29.359375 29.421875 29.464844 28.914062 29.574219 28.28125 "/>
<path style=" stroke:none;fill-rule:nonzero;fill:rgb(86.714172%,12.213135%,15.452576%);fill-opacity:1;" d="M 30.933594 26.953125 C 30.28125 25.601562 30.238281 24.394531 30.917969 23.125 C 32.226562 22.980469 33.550781 22.878906 34.6875 23.835938 C 34.726562 23.921875 34.785156 23.996094 34.785156 24.070312 C 34.84375 26.542969 34.570312 26.84375 32.148438 26.953125 C 31.746094 26.96875 31.339844 26.953125 30.933594 26.953125 "/>
</g>
</svg>
