<svg xmlns="http://www.w3.org/2000/svg" width="218.907" height="59pt" viewBox="0 0 164.18 59"><defs><clipPath id="a"><path d="M76.602 49.102h.296v.097h-.296Zm0 .097h1v.102h-1Zm.097.102h1.602v.097h-1.602Zm.102.097H79v.102h-2.2Zm.097.102H79.7v.102h-2.8Zm.102.102h3.398v.097H77Zm.102.097h4v.102h-4Zm0 .102H81.8v.097h-4.7Zm.097.097H82.5V50h-5.3Zm.102.102h5.898v.102h-5.898Zm.097.102h6.5v.097h-6.5Zm.102.097h7.2v.102h-7.2Zm0 .102h7.898v.097H77.5Zm.102.097h8.5v.102h-8.5Zm.097.102h9.102v.102h-9.102Zm0 .102H87.5v.097h-9.8Zm.102.097h10.5v.102H77.8Zm0 .102H89v.097H77.8Zm.097.097H89.7V51H77.9Zm0 .102H90.5v.102H77.898Zm.102.102h13.2v.097H78Zm.102.097h13.796v.102H78.102Zm0 .102h14.5v.097h-14.5Zm.097.097h15.2v.102h-15.2Zm0 .102H93.5v.102H78.2Zm0 .102h15.2v.097h-15.2Zm.102.097h14.8v.102h-14.8Zm0 .102h14.597v.097H78.301Zm0 .097h14.398V52H78.301Zm.097.102H92.5v.102H78.398Zm0 .102h13.903v.097H78.398Zm0 .097h13.704v.102H78.398Zm.102.102h13.398v.097H78.5Zm0 .097h13.2v.102H78.5Zm0 .102h12.898v.102H78.5Zm.102.102h12.597v.097H78.602Zm0 .097H91v.102H78.602Zm0 .102H90.8v.097H78.6Zm.097.097h11.903V53H78.699Zm0 .102h11.7v.102h-11.7Zm0 .102h11.5v.097H78.7Zm0 .097H90v.102H78.7Zm0 .102h11v.097h-11Zm0 .097H89.5v.102H78.7Zm0 .102h10.602v.102H78.699Zm0 .102h10.403v.097H78.699Zm.102.097h10.097v.102H78.801Zm0 .102h9.898v.097h-9.898Zm0 .097H88.5V54h-9.7Zm0 .102h9.5v.102h-9.5Zm0 .102H88v.097h-9.2Zm0 .097h9v.102h-9Zm0 .102h8.8v.097h-8.8Zm0 .097h8.597v.102h-8.597Zm0 .102h8.398v.102h-8.398Zm0 .102H87v.097h-8.2Zm0 .097h8v.102h-8Zm0 .102h7.8v.097h-7.8Zm0 .097h7.5V55h-7.5Zm0 .102h7.3v.102h-7.3Zm0 .102h7.097v.097h-7.097Zm0 .097h6.898v.102h-6.898Zm0 .102H85.5v.097h-6.7Zm-.102.097h6.602v.102h-6.602Zm0 .102h6.403v.102h-6.403Zm0 .102h6.2v.097h-6.2Zm0 .097h6v.102h-6Zm0 .102h5.7v.097h-5.7Zm0 .097h5.5V56h-5.5Zm-.097.102H84v.102h-5.398Zm0 .102H83.8v.097h-5.2Zm0 .097h5v.102h-5Zm0 .102h4.796v.097h-4.796Zm-.102.097h4.7v.102h-4.7Zm0 .102H83v.102h-4.5Zm0 .102h4.2v.097h-4.2Zm0 .097h4v.102h-4Zm-.102.102h3.903v.097h-3.903Zm0 .097h3.704V57h-3.704Zm0 .102h3.5v.102h-3.5Zm-.097.102h3.398v.097h-3.398Zm0 .097H81.5v.102h-3.2Zm0 .102h3v.097h-3Zm-.102.097H81v.102h-2.8Zm0 .102h2.602v.102h-2.602Zm-.097.102h2.5v.097h-2.5Zm0 .097h2.296v.102h-2.296Zm0 .102h2.097v.097h-2.097Zm-.102.097h2V58h-2ZM78 58h1.8v.102H78Zm-.102.102h1.704v.097h-1.704Zm0 .097h1.403v.102h-1.403Zm0 .102h1.204v.097h-1.204Zm-.097.097h1.097v.102h-1.097Zm0 .102h.898v.102h-.898Zm-.102.102h.801v.097h-.8Zm0 .097h.602v.102h-.602Zm-.097.102h.5v.097h-.5Zm-.102.097h.398V59H77.5Zm0 0"/></clipPath><clipPath id="b"><path d="M93.477 51.52s-13.844-1.887-16.832-2.352c1.343 1.36 2.207 2.937 2.226 5.437.012 1.395-.637 3.29-1.277 4.395Zm0 0"/></clipPath><clipPath id="c"><path d="M93.477 51.52s-13.844-1.887-16.832-2.352c1.343 1.36 2.207 2.937 2.226 5.437.012 1.395-.637 3.29-1.277 4.395z"/></clipPath><clipPath id="e"><path d="M157 41h7.18v10H157Zm0 0"/></clipPath><clipPath id="f"><path d="M148 11h16.18v22H148Zm0 0"/></clipPath><linearGradient id="d" x1="-.62" x2="1" y1="0" y2="0" gradientTransform="scale(-10.45543 10.45543)rotate(-60 .522 9.788)" gradientUnits="userSpaceOnUse"><stop offset="0" style="stop-color:#a3d71d;stop-opacity:1"/><stop offset=".25" style="stop-color:#a3d71d;stop-opacity:1"/><stop offset=".375" style="stop-color:#a3d71d;stop-opacity:1"/><stop offset=".391" style="stop-color:#a3d61d;stop-opacity:1"/><stop offset=".398" style="stop-color:#a2d61d;stop-opacity:1"/><stop offset=".406" style="stop-color:#a1d61d;stop-opacity:1"/><stop offset=".414" style="stop-color:#a0d61e;stop-opacity:1"/><stop offset=".422" style="stop-color:#9fd51e;stop-opacity:1"/><stop offset=".43" style="stop-color:#9fd51e;stop-opacity:1"/><stop offset=".438" style="stop-color:#9ed51f;stop-opacity:1"/><stop offset=".445" style="stop-color:#9dd51f;stop-opacity:1"/><stop offset=".453" style="stop-color:#9cd51f;stop-opacity:1"/><stop offset=".461" style="stop-color:#9bd41f;stop-opacity:1"/><stop offset=".469" style="stop-color:#9bd420;stop-opacity:1"/><stop offset=".477" style="stop-color:#9ad420;stop-opacity:1"/><stop offset=".484" style="stop-color:#99d420;stop-opacity:1"/><stop offset=".488" style="stop-color:#98d320;stop-opacity:1"/><stop offset=".492" style="stop-color:#97d320;stop-opacity:1"/><stop offset=".496" style="stop-color:#97d321;stop-opacity:1"/><stop offset=".5" style="stop-color:#96d321;stop-opacity:1"/><stop offset=".508" style="stop-color:#96d321;stop-opacity:1"/><stop offset=".516" style="stop-color:#95d221;stop-opacity:1"/><stop offset=".523" style="stop-color:#94d222;stop-opacity:1"/><stop offset=".531" style="stop-color:#93d222;stop-opacity:1"/><stop offset=".539" style="stop-color:#92d222;stop-opacity:1"/><stop offset=".547" style="stop-color:#92d122;stop-opacity:1"/><stop offset=".555" style="stop-color:#91d123;stop-opacity:1"/><stop offset=".563" style="stop-color:#90d123;stop-opacity:1"/><stop offset=".566" style="stop-color:#8fd123;stop-opacity:1"/><stop offset=".57" style="stop-color:#8ed023;stop-opacity:1"/><stop offset=".574" style="stop-color:#8ed024;stop-opacity:1"/><stop offset=".578" style="stop-color:#8dd024;stop-opacity:1"/><stop offset=".586" style="stop-color:#8cd024;stop-opacity:1"/><stop offset=".594" style="stop-color:#8cd024;stop-opacity:1"/><stop offset=".602" style="stop-color:#8bcf24;stop-opacity:1"/><stop offset=".609" style="stop-color:#8acf25;stop-opacity:1"/><stop offset=".617" style="stop-color:#89cf25;stop-opacity:1"/><stop offset=".621" style="stop-color:#88cf25;stop-opacity:1"/><stop offset=".625" style="stop-color:#87ce26;stop-opacity:1"/><stop offset=".641" style="stop-color:#87ce26;stop-opacity:1"/><stop offset=".648" style="stop-color:#86ce26;stop-opacity:1"/><stop offset=".656" style="stop-color:#85ce26;stop-opacity:1"/><stop offset=".66" style="stop-color:#84cd27;stop-opacity:1"/><stop offset=".664" style="stop-color:#83cd27;stop-opacity:1"/><stop offset=".672" style="stop-color:#83cd27;stop-opacity:1"/><stop offset=".68" style="stop-color:#82cd27;stop-opacity:1"/><stop offset=".688" style="stop-color:#81cc28;stop-opacity:1"/><stop offset=".695" style="stop-color:#80cc28;stop-opacity:1"/><stop offset=".703" style="stop-color:#7fcc28;stop-opacity:1"/><stop offset=".711" style="stop-color:#7fcc28;stop-opacity:1"/><stop offset=".719" style="stop-color:#7ecc29;stop-opacity:1"/><stop offset=".727" style="stop-color:#7dcb29;stop-opacity:1"/><stop offset=".734" style="stop-color:#7ccb29;stop-opacity:1"/><stop offset=".742" style="stop-color:#7bcb29;stop-opacity:1"/><stop offset=".75" style="stop-color:#7bcb2a;stop-opacity:1"/><stop offset=".758" style="stop-color:#7aca2a;stop-opacity:1"/><stop offset=".766" style="stop-color:#79ca2a;stop-opacity:1"/><stop offset=".773" style="stop-color:#78ca2a;stop-opacity:1"/><stop offset=".781" style="stop-color:#77ca2b;stop-opacity:1"/><stop offset=".789" style="stop-color:#77c92b;stop-opacity:1"/><stop offset=".797" style="stop-color:#76c92b;stop-opacity:1"/><stop offset=".805" style="stop-color:#75c92b;stop-opacity:1"/><stop offset=".813" style="stop-color:#74c92c;stop-opacity:1"/><stop offset=".82" style="stop-color:#73c82c;stop-opacity:1"/><stop offset=".828" style="stop-color:#73c82c;stop-opacity:1"/><stop offset=".836" style="stop-color:#72c82c;stop-opacity:1"/><stop offset=".844" style="stop-color:#71c82d;stop-opacity:1"/><stop offset=".852" style="stop-color:#70c72d;stop-opacity:1"/><stop offset=".859" style="stop-color:#6fc72d;stop-opacity:1"/><stop offset=".867" style="stop-color:#6fc72d;stop-opacity:1"/><stop offset=".875" style="stop-color:#6ec72e;stop-opacity:1"/><stop offset=".883" style="stop-color:#6dc62e;stop-opacity:1"/><stop offset=".891" style="stop-color:#6cc62e;stop-opacity:1"/><stop offset=".898" style="stop-color:#6bc62e;stop-opacity:1"/><stop offset=".906" style="stop-color:#6bc62f;stop-opacity:1"/><stop offset=".914" style="stop-color:#6ac62f;stop-opacity:1"/><stop offset=".922" style="stop-color:#69c52f;stop-opacity:1"/><stop offset=".93" style="stop-color:#68c52f;stop-opacity:1"/><stop offset=".938" style="stop-color:#67c530;stop-opacity:1"/><stop offset=".945" style="stop-color:#67c530;stop-opacity:1"/><stop offset=".953" style="stop-color:#66c430;stop-opacity:1"/><stop offset=".961" style="stop-color:#65c430;stop-opacity:1"/><stop offset=".969" style="stop-color:#64c431;stop-opacity:1"/><stop offset=".977" style="stop-color:#63c431;stop-opacity:1"/><stop offset=".984" style="stop-color:#63c331;stop-opacity:1"/><stop offset=".992" style="stop-color:#62c331;stop-opacity:1"/><stop offset="1" style="stop-color:#61c332;stop-opacity:1"/></linearGradient></defs><g clip-path="url(#a)"><g clip-path="url(#b)"><g clip-path="url(#c)"><path d="m97.734 56.543-16.882 9.746-8.47-14.664 16.888-9.75Zm0 0" style="stroke:none;fill-rule:nonzero;fill:url(#d)"/></g></g></g><path d="M110.105 0c1.344 1.363 2.207 2.941 2.23 5.441.013 1.391-.636 3.286-1.276 4.395l3.96-1.867c.055-.348.055-.54.055-.903 0-3.054-2.168-6.265-4.969-7.066" style="stroke:none;fill-rule:nonzero;fill:#4dbd38;fill-opacity:1"/><path d="M118.27 50.492a68 68 0 0 1-.372-1.594 73 73 0 0 1-.304-1.488h-5.489c-.257.485-.511.985-.761 1.492q-.376.767-.793 1.59h-1.153a531 531 0 0 1 1.668-3.27 137 137 0 0 1 1.524-2.867q.732-1.355 1.45-2.597c.48-.832.972-1.668 1.487-2.504h.973q.416 1.247.773 2.5c.243.832.48 1.7.72 2.598q.357 1.353.71 2.87.352 1.518.781 3.27zm-2.465-9.972q-.811 1.398-1.586 2.84-.786 1.446-1.637 3.109h4.797a96 96 0 0 0-1.574-5.95M122.477 50.492h-1.055l1.176-8.387h1.054zm1.773-10.914c-.035.25-.137.45-.309.59a.87.87 0 0 1-.582.223.66.66 0 0 1-.52-.223c-.132-.14-.179-.34-.144-.59a.9.9 0 0 1 .309-.59.89.89 0 0 1 .582-.218c.219 0 .39.074.523.218q.194.22.141.59M129.438 41.945q.522 0 .968.082c.305.055.508.11.621.164l-.34.907c-.078-.043-.25-.09-.507-.137a5.6 5.6 0 0 0-1.035-.074q-.682-.001-1.11.097-.423.099-.566.16l-1.031 7.348h-1.051l1.12-7.996a9 9 0 0 1 1.173-.363q.738-.188 1.757-.188M133.883 50.637a3.3 3.3 0 0 1-.91-.137 1.4 1.4 0 0 1-.618-.375 1.35 1.35 0 0 1-.312-.648q-.084-.393.004-.997l1.457-10.378 1.082-.192-1.48 10.54a2 2 0 0 0-.016.624.7.7 0 0 0 .168.371q.124.14.347.203.231.065.543.114zM137.152 50.492h-1.054l1.18-8.387h1.054zm1.778-10.914a.9.9 0 0 1-.309.59.87.87 0 0 1-.582.223.67.67 0 0 1-.523-.223c-.13-.14-.176-.34-.145-.59a.91.91 0 0 1 .895-.808q.32.001.52.218c.128.145.179.344.144.59M141.2 42.402c.327-.086.76-.183 1.308-.297q.814-.159 1.969-.16c.632 0 1.156.094 1.554.278q.605.275.91.785.31.511.375 1.226c.04.477.02.996-.062 1.57l-.656 4.688h-1.055l.61-4.344q.129-.896.09-1.511-.035-.616-.263-1.004a1.3 1.3 0 0 0-.667-.559c-.293-.113-.668-.172-1.133-.172q-.75 0-1.301.082-.555.081-.73.145l-1.032 7.363h-1.054zM149.559 46.293c.101-.734.296-1.379.586-1.922a5.1 5.1 0 0 1 1.02-1.371q.584-.55 1.28-.82a3.9 3.9 0 0 1 1.39-.266q1.543.001 2.317 1.004.774 1.007.48 3.098a6 6 0 0 1-.042.261l-.059.243h-5.886c-.114 1.023.03 1.816.43 2.367q.598.825 2.152.824.86-.001 1.386-.16c.348-.11.606-.2.766-.278l.066.91q-.245.132-.89.31a5.8 5.8 0 0 1-1.493.175c-.738 0-1.347-.105-1.835-.324a2.8 2.8 0 0 1-1.157-.907 3.1 3.1 0 0 1-.53-1.386 6.2 6.2 0 0 1 .019-1.758m6.043-.664q.152-1.318-.329-2.043c-.32-.488-.84-.734-1.55-.734q-.57.001-1.047.23c-.32.148-.606.355-.863.61a3.4 3.4 0 0 0-.645.882 4 4 0 0 0-.367 1.055z" style="stroke:none;fill-rule:nonzero;fill:#2a2827;fill-opacity:1"/><g clip-path="url(#e)"><path d="M160.379 49.746q.909 0 1.543-.3.634-.301.734-1.016a1.4 1.4 0 0 0-.023-.582.93.93 0 0 0-.29-.438 2.5 2.5 0 0 0-.585-.37q-.373-.182-.922-.427a13 13 0 0 1-.836-.394 3 3 0 0 1-.68-.469 1.7 1.7 0 0 1-.43-.64q-.141-.377-.066-.907c.098-.683.43-1.234 1.004-1.656q.856-.633 2.203-.633.86.001 1.399.145c.36.097.605.183.75.261l-.375.942a5 5 0 0 0-.621-.262c-.293-.105-.739-.16-1.329-.16q-.362 0-.683.07c-.223.05-.418.125-.594.23q-.265.152-.441.391c-.121.153-.2.348-.23.574a1.2 1.2 0 0 0 .046.586q.1.241.32.43c.153.125.34.238.57.348q.34.163.786.355.459.195.875.395c.277.136.52.297.719.488q.298.281.457.68.153.397.066.996c-.105.758-.469 1.328-1.09 1.719q-.932.585-2.41.586-1.1 0-1.656-.188-.562-.187-.738-.285l.41-.957q.042.035.191.105.155.077.414.164.268.089.637.153c.25.043.539.066.875.066" style="stroke:none;fill-rule:nonzero;fill:#2a2827;fill-opacity:1"/></g><path d="M119.293 11.777q2.15 0 3.625.563 1.476.567 2.379 1.598.9 1.034 1.285 2.457c.258.945.383 1.992.383 3.136v12.66c-.305.051-.735.121-1.281.215q-.826.134-1.864.25c-.691.078-1.437.149-2.246.215q-1.205.096-2.394.098-1.693 0-3.11-.352c-.945-.23-1.761-.601-2.457-1.11a5.1 5.1 0 0 1-1.61-2.003q-.573-1.248-.573-3-.001-1.674.672-2.887a5.4 5.4 0 0 1 1.82-1.945q1.155-.739 2.683-1.09a14.4 14.4 0 0 1 3.227-.352q.535 0 1.11.06.579.056 1.093.155c.348.067.649.121.903.176q.38.077.539.113v-1.011c0-.594-.067-1.188-.196-1.77a4 4 0 0 0-.687-1.558q-.497-.684-1.364-1.094-.862-.406-2.246-.406-1.762-.002-3.086.253c-.882.168-1.543.34-1.976.524l-.422-3q.689-.31 2.305-.602a19.5 19.5 0 0 1 3.488-.293m.309 18.153q1.262 0 2.242-.059.977-.058 1.633-.215v-6.039q-.385-.193-1.25-.328a14 14 0 0 0-2.09-.137q-.804 0-1.707.118a5.1 5.1 0 0 0-1.649.488q-.751.368-1.25 1.012c-.332.43-.496.992-.496 1.695 0 1.297.406 2.2 1.227 2.707q1.225.757 3.34.758M137.285 32.93q-3.301-.077-4.68-1.442c-.921-.906-1.378-2.324-1.378-4.246V4.02l3.566-1.711v24.347q0 .902.152 1.48.154.587.5.938.344.346.918.524.58.176 1.422.293zM142.898 8.621q-.96 0-1.628-.644-.673-.639-.672-1.735-.001-1.084.672-1.73.668-.645 1.628-.645.961 0 1.63.645.672.646.671 1.73.001 1.096-.672 1.735-.667.644-1.629.644M144.7 32.54h-3.566V12.281h3.566z" style="stroke:none;fill-rule:nonzero;fill:#2a2827;fill-opacity:1"/><g clip-path="url(#f)"><path d="M156.508 11.777q2.144 0 3.625.563c.98.379 1.777.91 2.379 1.598a6.2 6.2 0 0 1 1.285 2.457q.382 1.419.383 3.136v12.66q-.465.075-1.285.215-.826.134-1.864.25a74 74 0 0 1-2.242.215c-.809.063-1.605.098-2.398.098q-1.686 0-3.11-.352-1.416-.346-2.453-1.11-1.035-.76-1.61-2.003-.578-1.248-.577-3-.001-1.674.672-2.887a5.4 5.4 0 0 1 1.824-1.945q1.148-.739 2.683-1.09a14.4 14.4 0 0 1 3.223-.352 12.7 12.7 0 0 1 2.207.215c.344.067.645.121.898.176q.387.077.54.113v-1.011c0-.594-.063-1.188-.192-1.77a4.1 4.1 0 0 0-.691-1.558q-.497-.684-1.364-1.094-.863-.406-2.242-.406c-1.18 0-2.207.082-3.09.253-.882.168-1.539.34-1.972.524l-.422-3q.687-.31 2.3-.602a19.5 19.5 0 0 1 3.493-.293m.304 18.153q1.267 0 2.247-.059.978-.058 1.629-.215v-6.039q-.383-.193-1.247-.328a14 14 0 0 0-2.09-.137q-.809 0-1.706.118a5.2 5.2 0 0 0-1.653.488q-.749.368-1.246 1.012c-.332.43-.5.992-.5 1.695q0 1.946 1.23 2.707 1.226.757 3.337.758" style="stroke:none;fill-rule:nonzero;fill:#2a2827;fill-opacity:1"/></g><path d="M106.023 12.45c-.347-.075-.683-.15-1.07-.227-1.242-.246-2.691-.368-4.355-.368q-2.262-.002-4.067.758c-1.199.508-2.219 1.207-3.05 2.106-.708.761-1.243 1.676-1.66 2.683a167 167 0 0 0 14.202-4.953M104.512 16.297V27.32q-.69.548-1.88.953-1.189.41-2.609.41a5.3 5.3 0 0 1-2.011-.39 4.6 4.6 0 0 1-1.73-1.207q-.747-.82-1.188-2.063-.44-1.248-.442-3c0-.777.094-1.476.235-2.136-1.305.43-2.61.843-3.922 1.23-.02.285-.035.57-.035.863 0 1.692.23 3.145.691 4.368.461 1.218 1.086 2.238 1.883 3.058a7.3 7.3 0 0 0 2.777 1.809 9.8 9.8 0 0 0 3.395.586c1.18 0 2.207-.16 3.09-.488q1.322-.487 1.785-.797v.855c0 1.871-.465 3.234-1.403 4.09-.933.86-2.46 1.285-4.582 1.285-1.129 0-2.207-.11-3.242-.332-1.035-.219-1.914-.473-2.629-.758l-.652 3.157q1.23.427 2.898.738 1.666.313 3.547.312c3.223 0 5.625-.699 7.215-2.101 1.582-1.407 2.375-3.664 2.375-6.782V14.785c-1.18.524-2.375 1.016-3.566 1.512M86.738 18.82c.297-.078.59-.168.883-.246v-6.293h-3.566v7.192c.894-.211 1.789-.422 2.683-.653M75.078 21.254V12.28h-3.57v9.477a121 121 0 0 0 3.57-.504M87.277 22.172q-1.611.42-3.222.781v6.434q-.194.073-.633.136l-.977.118c-.36.035-.742.07-1.152.093q-.617.041-1.191.04-2.723 0-3.875-1.598-.872-1.215-1.082-3.64c-1.184.16-2.375.296-3.567.421.063.867.164 1.703.352 2.461q.421 1.694 1.382 2.941c.641.832 1.481 1.473 2.532 1.926q1.574.685 3.875.684 2.648 0 4.664-.352c1.34-.23 2.422-.453 3.238-.66v-9.883c-.113.031-.226.07-.344.098M60.457 22.598V15.32h7.559v-3.039h-7.559v-6.27L56.891 7.75v14.898c1.195 0 2.386-.011 3.566-.05M66.727 29.406q-.974.368-2.586.367-.922 0-1.614-.234a2.48 2.48 0 0 1-1.152-.797q-.458-.562-.687-1.558c-.102-.43-.157-.965-.192-1.547-1.187.023-2.379.047-3.566.035.039.95.12 1.836.285 2.601q.324 1.542 1.133 2.59.803 1.054 2.129 1.582c.878.348 2 .524 3.355.524q1.728 0 3.07-.41t1.88-.68l-.692-3q-.38.152-1.363.527M46.125 22.39v-6.874q.306-.077 1.285-.293a9.3 9.3 0 0 1 1.977-.211c1.02 0 1.86.07 2.511.21.653.145 1.118.266 1.399.372l.613-3.156a6 6 0 0 0-.707-.172q-.48-.101-1.055-.196a16 16 0 0 0-1.171-.156q-.593-.059-1.055-.059-2.338 0-4.219.41c-1.254.27-2.3.563-3.148.876v9.097c1.191.051 2.383.106 3.57.153M42.555 25.09v7.45h3.57v-7.25a547 547 0 0 1-3.57-.2M23.758 21.7c.097-1.942.574-3.532 1.472-4.723q1.518-2.006 4.125-2.008c1.739 0 3.114.672 4.125 2.008.934 1.238 1.418 2.894 1.489 4.941q1.87.07 3.734.152c-.031-1.449-.25-2.789-.676-4q-.69-1.97-1.937-3.37a8.55 8.55 0 0 0-2.973-2.165q-1.728-.757-3.762-.758-2.034.001-3.757.758a8.5 8.5 0 0 0-2.973 2.164q-1.25 1.402-1.937 3.371c-.399 1.125-.614 2.356-.668 3.684 1.246-.035 2.492-.05 3.738-.055M34.773 24.691c-.234 1.239-.648 2.305-1.293 3.157q-1.517 2.004-4.125 2.004t-4.125-2.004c-.66-.88-1.082-1.98-1.312-3.262-.715.02-1.43.016-2.145.055-.52.023-1.054.054-1.605.082q.175 1.083.52 2.05.687 1.951 1.937 3.352a8.5 8.5 0 0 0 2.973 2.16q1.723.762 3.757.762t3.762-.762a8.5 8.5 0 0 0 2.973-2.16q1.247-1.4 1.937-3.352.315-.902.485-1.91c-1.246-.066-2.492-.117-3.739-.172M0 27.223v5.316h3.723v-6.418c-1.43.246-2.43.563-3.723 1.102M3.723 22.527c1.086-.02 2.953 0 2.953 0q2.8 0 5.027-.468c1.48-.309 2.742-.809 3.777-1.497a6.87 6.87 0 0 0 2.38-2.69q.825-1.654.824-3.993 0-4.284-3.012-6.445Q12.66 5.27 7.059 5.27q-1.613 0-3.547.136-1.937.135-3.512.528v17.605c1.27-.582 2.445-.984 3.723-1.012m0-13.828q1.265-.117 3.644-.117 1.494 0 2.84.234 1.341.234 2.36.836 1.012.604 1.609 1.618.597 1.011.597 2.57-.002 1.636-.578 2.691-.574 1.05-1.629 1.653c-.707.406-1.57.687-2.59.859-1.027.168-2.175.25-3.453.25h-2.8z" style="stroke:none;fill-rule:nonzero;fill:#2a2827;fill-opacity:1"/></svg>