<?xml version="1.0" encoding="UTF-8"?>
<svg xmlns="http://www.w3.org/2000/svg" xmlns:xlink="http://www.w3.org/1999/xlink" width="176pt" height="50.19pt" viewBox="0 0 176 50.19" version="1.1">
<defs>
<clipPath id="clip1">
  <path d="M 37 9 L 83 9 L 83 50.191406 L 37 50.191406 Z M 37 9 "/>
</clipPath>
</defs>
<g id="surface1">
<path style=" stroke:none;fill-rule:nonzero;fill:rgb(12.860107%,11.213684%,11.195374%);fill-opacity:1;" d="M 89.535156 7.003906 C 89.996094 4.664062 90.523438 2.339844 91.027344 0.0078125 C 94.859375 0.015625 98.6875 0.015625 102.519531 0.0078125 C 102.023438 2.304688 101.515625 4.601562 101.085938 6.921875 C 97.242188 7.101562 93.386719 6.953125 89.535156 7.003906 "/>
<path style=" stroke:none;fill-rule:nonzero;fill:rgb(12.860107%,11.213684%,11.195374%);fill-opacity:1;" d="M 136.074219 6.871094 C 136.523438 4.574219 137.058594 2.300781 137.535156 0.015625 C 141.371094 0.00390625 145.203125 0.0234375 149.035156 0.00390625 C 148.535156 2.332031 148.046875 4.667969 147.550781 6.996094 C 143.726562 6.925781 139.886719 7.164062 136.074219 6.871094 "/>
<path style=" stroke:none;fill-rule:nonzero;fill:rgb(12.860107%,11.213684%,11.195374%);fill-opacity:1;" d="M 158.894531 0.976562 C 162.71875 0.992188 166.546875 0.984375 170.378906 0.984375 C 169.730469 4.078125 169.101562 7.175781 168.410156 10.265625 C 170.941406 10.261719 173.46875 10.273438 176 10.253906 C 175.433594 12.789062 174.9375 15.335938 174.363281 17.871094 C 171.847656 17.855469 169.328125 17.867188 166.8125 17.867188 C 165.945312 21.972656 165.039062 26.070312 164.1875 30.175781 C 163.972656 30.980469 164 32.179688 165.003906 32.410156 C 167.132812 32.863281 169.335938 32.5625 171.488281 32.496094 C 170.929688 34.875 170.539062 37.296875 169.898438 39.65625 C 166.347656 40.285156 162.703125 40.296875 159.105469 40.222656 C 157.003906 40.0625 154.613281 39.828125 153.0625 38.226562 C 151.636719 36.695312 151.871094 34.402344 152.183594 32.5 C 153.226562 27.621094 154.265625 22.742188 155.285156 17.855469 C 153.289062 17.867188 151.292969 17.84375 149.300781 17.886719 C 149.816406 15.339844 150.414062 12.808594 150.890625 10.253906 C 152.894531 10.269531 154.890625 10.246094 156.894531 10.273438 C 157.574219 7.179688 158.207031 4.070312 158.894531 0.976562 "/>
<path style=" stroke:none;fill-rule:nonzero;fill:rgb(12.860107%,11.213684%,11.195374%);fill-opacity:1;" d="M 13.941406 9.980469 C 18.527344 8.949219 23.269531 9.007812 27.941406 9.246094 C 31.5 9.628906 35.421875 10.238281 38.058594 12.90625 C 39.636719 14.425781 39.953125 16.730469 39.757812 18.8125 C 35.476562 18.828125 31.203125 18.816406 26.921875 18.820312 C 26.863281 17.804688 26.398438 16.769531 25.386719 16.394531 C 23.1875 15.511719 20.699219 15.5625 18.402344 16 C 16.960938 16.257812 15.535156 17.339844 15.464844 18.90625 C 15.859375 19.976562 17.121094 20.207031 18.109375 20.390625 C 21.035156 20.78125 23.972656 21.050781 26.898438 21.40625 C 29.878906 21.726562 33 22.007812 35.664062 23.503906 C 37.339844 24.417969 38.503906 26.191406 38.566406 28.113281 C 38.625 30.996094 37.488281 33.914062 35.398438 35.917969 C 33.089844 38.109375 30.007812 39.242188 26.953125 39.917969 C 23.691406 40.660156 20.332031 40.71875 17.003906 40.832031 C 12.148438 40.601562 6.871094 40.511719 2.734375 37.605469 C 0.449219 36.03125 -0.339844 33.078125 0.128906 30.441406 C 4.566406 30.429688 9.003906 30.4375 13.441406 30.433594 C 13.609375 31.257812 13.640625 32.277344 14.425781 32.785156 C 15.761719 33.730469 17.472656 33.789062 19.046875 33.832031 C 20.773438 33.835938 22.628906 33.800781 24.136719 32.84375 C 24.964844 32.292969 25.605469 31.175781 25.199219 30.1875 C 24.695312 29.378906 23.640625 29.25 22.785156 29.085938 C 19.375 28.621094 15.953125 28.234375 12.539062 27.816406 C 10.085938 27.515625 7.523438 27.117188 5.4375 25.699219 C 4.003906 24.738281 3.175781 23.011719 3.261719 21.300781 C 3.398438 18.699219 4.375 16.117188 6.09375 14.152344 C 8.125 11.894531 11.035156 10.65625 13.941406 9.980469 "/>
<g clip-path="url(#clip1)" clip-rule="nonzero">
<path style=" stroke:none;fill-rule:nonzero;fill:rgb(12.860107%,11.213684%,11.195374%);fill-opacity:1;" d="M 61.25 17.792969 C 58.433594 18.292969 55.847656 20.152344 54.707031 22.808594 C 53.796875 24.941406 53.28125 27.539062 54.421875 29.6875 C 55.304688 31.363281 57.222656 32.121094 59.007812 32.332031 C 61.652344 32.605469 64.503906 32.242188 66.722656 30.683594 C 69.246094 28.875 70.453125 25.691406 70.453125 22.664062 C 70.453125 21.035156 69.667969 19.386719 68.226562 18.570312 C 66.117188 17.398438 63.566406 17.414062 61.25 17.792969 Z M 55.929688 14.179688 C 59.003906 11.367188 63.074219 9.664062 67.25 9.527344 C 71.070312 9.378906 75.148438 9.972656 78.296875 12.300781 C 80.617188 14 82.023438 16.746094 82.328125 19.582031 C 82.894531 25.34375 80.636719 31.308594 76.382812 35.242188 C 72.726562 38.679688 67.761719 40.574219 62.769531 40.769531 C 58.746094 40.953125 54.136719 40.25 51.433594 36.945312 C 50.554688 41.371094 49.546875 45.773438 48.628906 50.191406 C 44.789062 50.191406 40.949219 50.191406 37.105469 50.191406 C 39.964844 36.882812 42.785156 23.566406 45.609375 10.253906 C 49.34375 10.265625 53.078125 10.277344 56.8125 10.246094 C 56.523438 11.5625 56.242188 12.875 55.929688 14.179688 "/>
</g>
<path style=" stroke:none;fill-rule:nonzero;fill:rgb(12.860107%,11.213684%,11.195374%);fill-opacity:1;" d="M 82.617188 39.609375 C 84.660156 29.8125 86.746094 20.023438 88.863281 10.246094 C 92.6875 10.28125 96.515625 10.265625 100.347656 10.253906 C 98.261719 20.039062 96.199219 29.832031 94.097656 39.617188 C 90.269531 39.589844 86.445312 39.605469 82.617188 39.609375 "/>
<path style=" stroke:none;fill-rule:nonzero;fill:rgb(12.860107%,11.213684%,11.195374%);fill-opacity:1;" d="M 98.746094 39.589844 C 100.875 29.816406 102.925781 20.03125 105 10.25 C 108.746094 10.273438 112.492188 10.265625 116.242188 10.253906 C 114.085938 20.023438 112.058594 29.820312 109.972656 39.605469 C 106.234375 39.589844 102.492188 39.617188 98.746094 39.589844 "/>
<path style=" stroke:none;fill-rule:nonzero;fill:rgb(12.860107%,11.213684%,11.195374%);fill-opacity:1;" d="M 129.109375 39.605469 C 131.210938 29.820312 133.257812 20.023438 135.375 10.246094 C 139.203125 10.277344 143.03125 10.261719 146.863281 10.257812 C 144.796875 20.035156 142.6875 29.808594 140.648438 39.59375 C 136.800781 39.605469 132.957031 39.601562 129.109375 39.605469 "/>
<path style=" stroke:none;fill-rule:nonzero;fill:rgb(12.860107%,11.213684%,11.195374%);fill-opacity:1;" d="M 120.25 12.84375 C 123.355469 10.21875 127.460938 8.386719 131.589844 9.101562 C 130.769531 12.554688 130.121094 16.050781 129.304688 19.503906 C 125.09375 18.796875 120.367188 18.699219 116.710938 21.242188 C 115.199219 22.171875 114.289062 23.71875 113.4375 25.210938 C 114.183594 20.464844 116.484375 15.902344 120.25 12.84375 "/>
</g>
</svg>
