<svg xmlns="http://www.w3.org/2000/svg" width="176pt" height="66.92" viewBox="0 0 176 50.19"><defs><clipPath id="a"><path d="M37 9h46v41.191H37Zm0 0"/></clipPath></defs><path d="M89.535 7.004c.461-2.34.988-4.664 1.492-6.996 3.832.008 7.66.008 11.493 0-.497 2.297-1.004 4.594-1.434 6.914-3.844.18-7.7.031-11.55.082M136.074 6.871c.45-2.297.985-4.57 1.461-6.855 3.836-.012 7.668.007 11.5-.012-.5 2.328-.988 4.664-1.484 6.992-3.824-.07-7.664.168-11.477-.125M158.895.977c3.824.015 7.652.007 11.484.007-.649 3.094-1.277 6.192-1.969 9.282 2.531-.004 5.059.007 7.59-.012-.566 2.535-1.062 5.082-1.637 7.617-2.515-.016-5.035-.004-7.55-.004-.868 4.106-1.774 8.203-2.625 12.309-.215.804-.188 2.004.816 2.234 2.129.453 4.332.153 6.484.086-.558 2.379-.949 4.8-1.59 7.16-3.55.63-7.195.64-10.793.567-2.101-.16-4.492-.395-6.042-1.996-1.426-1.532-1.192-3.825-.88-5.727 1.044-4.879 2.083-9.758 3.102-14.645-1.996.012-3.992-.011-5.984.032.515-2.547 1.113-5.078 1.59-7.633 2.004.016 4-.008 6.004.02.68-3.094 1.312-6.204 2-9.297M13.941 9.98c4.586-1.03 9.329-.972 14-.734 3.559.383 7.48.992 10.118 3.66 1.578 1.52 1.894 3.824 1.699 5.906-4.281.016-8.555.004-12.836.008-.059-1.015-.524-2.05-1.535-2.425-2.2-.883-4.688-.832-6.985-.395-1.441.258-2.867 1.34-2.937 2.906.394 1.07 1.656 1.301 2.644 1.485 2.926.39 5.864.66 8.79 1.015 2.98.32 6.101.602 8.765 2.098 1.676.914 2.84 2.687 2.902 4.61.059 2.882-1.078 5.8-3.168 7.804-2.308 2.191-5.39 3.324-8.445 4-3.262.742-6.621.8-9.95.914-4.855-.23-10.132-.32-14.269-3.227C.45 36.031-.34 33.078.13 30.441c4.437-.011 8.875-.003 13.312-.007.168.824.2 1.843.985 2.351 1.336.945 3.047 1.004 4.62 1.047 1.727.004 3.583-.031 5.09-.988.829-.551 1.47-1.668 1.063-2.657-.504-.808-1.558-.937-2.414-1.101-3.41-.465-6.832-.852-10.246-1.27-2.453-.3-5.016-.699-7.101-2.117-1.434-.96-2.262-2.687-2.176-4.398.136-2.602 1.113-5.184 2.832-7.149 2.031-2.257 4.941-3.496 7.847-4.172" style="stroke:none;fill-rule:nonzero;fill:#211d1d;fill-opacity:1"/><g clip-path="url(#a)"><path d="M61.25 17.793c-2.816.5-5.402 2.36-6.543 5.016-.91 2.132-1.426 4.73-.285 6.878.883 1.676 2.8 2.434 4.586 2.645 2.644.273 5.496-.09 7.715-1.648 2.523-1.809 3.73-4.993 3.73-8.02 0-1.629-.785-3.277-2.226-4.094-2.11-1.172-4.66-1.156-6.977-.777m-5.32-3.613c3.074-2.813 7.144-4.516 11.32-4.653 3.82-.148 7.898.446 11.047 2.774 2.32 1.699 3.726 4.445 4.031 7.281.567 5.762-1.691 11.727-5.945 15.66-3.656 3.438-8.621 5.332-13.613 5.528-4.024.183-8.633-.52-11.336-3.825-.88 4.426-1.887 8.828-2.805 13.246H37.105c2.86-13.308 5.68-26.625 8.504-39.937 3.735.012 7.47.023 11.203-.008-.289 1.316-.57 2.629-.882 3.934" style="stroke:none;fill-rule:nonzero;fill:#211d1d;fill-opacity:1"/></g><path d="M82.617 39.61a3919 3919 0 0 1 6.246-29.364c3.825.035 7.653.02 11.485.008-2.086 9.785-4.149 19.578-6.25 29.363-3.828-.027-7.653-.012-11.48-.008M98.746 39.59c2.129-9.774 4.18-19.559 6.254-29.34 3.746.023 7.492.016 11.242.004-2.156 9.77-4.183 19.566-6.27 29.351-3.738-.015-7.48.012-11.226-.015M129.11 39.605c2.1-9.785 4.148-19.582 6.265-29.359 3.828.031 7.656.016 11.488.012-2.066 9.777-4.175 19.55-6.215 29.336-3.847.011-7.691.008-11.539.011M120.25 12.844c3.105-2.625 7.21-4.457 11.34-3.742-.82 3.453-1.469 6.949-2.285 10.402-4.211-.707-8.938-.805-12.594 1.738-1.512.93-2.422 2.477-3.273 3.969.746-4.746 3.046-9.309 6.812-12.367" style="stroke:none;fill-rule:nonzero;fill:#211d1d;fill-opacity:1"/></svg>