<svg xmlns="http://www.w3.org/2000/svg" width="176pt" height="73.947" viewBox="0 0 176 55.46"><defs><clipPath id="a"><path d="M58 0h118v55.46H58Zm0 0"/></clipPath></defs><g clip-path="url(#a)"><path d="M58.004 6.332C82.21.289 138.34-9.137 152.172 20.797c3.45 7.465 9.156-1.129 23.828 8.21-10.652 3.266-12.668 12.313-25.46 19.563-23.267 13.184-59.977 2.856-92.536 5.75v-.496c13.816-1.39 23.894-1.297 25.18-4.742.933-2.484-6.653-3.777-14.094-3.941l.004-.258c23.328.183 42.031-1.957 55.531-8.594 9.844-4.84 7.938-10.477-10.488-17.941-4.965-7.461-12.899-12.383-56.133-11.336z" style="stroke:none;fill-rule:nonzero;fill:#db1e25;fill-opacity:1"/></g><path d="M39.484 23.816q-.158-1.12-1.3-1.796-1.142-.68-2.735-.68-3.505-.001-4.117 2.476Zm7.008 2.688H31.137c.054 2.125 1.566 3.183 4.535 3.183q3.226 0 4.414-1.582l5.352 1.434c-1.333 2.129-4.442 3.191-9.336 3.191-3.586 0-6.442-.667-8.559-2-2.04-1.285-3.059-2.96-3.059-5.039q-.001-3.081 3.145-5.168c2.098-1.39 4.789-2.085 8.086-2.085q4.94.001 7.86 2.093 2.917 2.093 2.917 5.754zM63.61 25.598c0-.985-.372-1.766-1.126-2.336q-1.119-.861-3.082-.86-1.96-.001-3.09.86-1.125.857-1.124 2.336t1.124 2.324q1.13.848 3.09.848 1.963 0 3.082-.848c.754-.563 1.125-1.34 1.125-2.324m7.078-.012q-.001 2.977-3.265 5.062-3.269 2.081-8.008 2.082-4.776 0-8.004-2.082-3.227-2.085-3.226-5.062 0-2.976 3.246-5.063 3.248-2.085 7.984-2.085 4.739 0 8.008 2.085 3.265 2.087 3.266 5.063M71.672 31.11l1.473-3.602q3.18 1.828 7.187 1.828 2.732-.002 2.734-1.106 0-.727-1.148-1.027c-1.066-.176-2.117-.36-3.152-.539q-6.103-1.049-6.102-3.965-.002-1.889 2.164-3.074 2.163-1.188 6-1.187 3.88.001 8.047 1.214l-1.469 3.239q-2.853-1.271-5.789-1.27c-1.629 0-2.445.328-2.445.973q-.001.596 1.27.894 1.67.321 3.347.649 2.94.592 4.29 1.484 1.429.973 1.429 2.543c0 1.348-.785 2.453-2.348 3.297-1.562.848-3.668 1.27-6.305 1.27-3.457 0-6.515-.54-9.183-1.622M15.504 25.324c-.055-.879-.477-1.578-1.168-2.11q-1.124-.857-3.086-.859c-1.309 0-2.336.29-3.086.86-.691.527-1.246 1.308-1.3 2.187l.011 6.985H.004C.004 29.96 0 27.523 0 25.539s1.113-3.672 3.281-5.059c2.164-1.394 4.824-2.085 7.985-2.085 3.16 0 5.828.69 8.007 2.085 2.176 1.387 3.278 3.075 3.278 5.06v6.847h-7.047s.004-6.989 0-7.063" style="stroke:none;fill-rule:nonzero;fill:#db1e25;fill-opacity:1"/></svg>