<?xml version="1.0" encoding="UTF-8"?>
<svg xmlns="http://www.w3.org/2000/svg" xmlns:xlink="http://www.w3.org/1999/xlink" width="140.07pt" height="59pt" viewBox="0 0 140.07 59" version="1.1">
<defs>
<clipPath id="clip1">
  <path d="M 132 47 L 140.070312 47 L 140.070312 59 L 132 59 Z M 132 47 "/>
</clipPath>
<clipPath id="clip2">
  <path d="M 33 30 L 64 30 L 64 59 L 33 59 Z M 33 30 "/>
</clipPath>
<clipPath id="clip3">
  <path d="M 48.757812 30.757812 C 53.09375 30.78125 56.792969 32.332031 59.78125 35.476562 C 61.566406 37.359375 62.730469 39.597656 63.199219 42.183594 C 63.929688 46.21875 63.042969 49.863281 60.527344 53.082031 C 58.621094 55.519531 56.144531 57.144531 53.175781 58.035156 C 49.960938 59.003906 46.761719 58.929688 43.613281 57.828125 C 40.304688 56.667969 37.683594 54.585938 35.878906 51.558594 C 34.277344 48.867188 33.691406 45.929688 34.140625 42.839844 C 34.6875 39.074219 36.558594 36.039062 39.597656 33.761719 C 42.300781 31.730469 45.359375 30.726562 48.757812 30.757812 Z M 48.757812 30.757812 "/>
</clipPath>
<clipPath id="clip4">
  <path d="M 48.757812 30.757812 C 53.09375 30.78125 56.792969 32.332031 59.78125 35.476562 C 61.566406 37.359375 62.730469 39.597656 63.199219 42.183594 C 63.929688 46.21875 63.042969 49.863281 60.527344 53.082031 C 58.621094 55.519531 56.144531 57.144531 53.175781 58.035156 C 49.960938 59.003906 46.761719 58.929688 43.613281 57.828125 C 40.304688 56.667969 37.683594 54.585938 35.878906 51.558594 C 34.277344 48.867188 33.691406 45.929688 34.140625 42.839844 C 34.6875 39.074219 36.558594 36.039062 39.597656 33.761719 C 42.300781 31.730469 45.359375 30.726562 48.757812 30.757812 "/>
</clipPath>
<linearGradient id="linear0" gradientUnits="userSpaceOnUse" x1="-0.0103715" y1="0" x2="1.001134" y2="0" gradientTransform="matrix(0,-27.9518,27.9518,0,48.7193,58.710098)">
<stop offset="0" style="stop-color:rgb(51.268005%,43.415833%,22.375488%);stop-opacity:1;"/>
<stop offset="0.015625" style="stop-color:rgb(51.353455%,43.453979%,22.419739%);stop-opacity:1;"/>
<stop offset="0.03125" style="stop-color:rgb(51.637268%,43.630981%,22.602844%);stop-opacity:1;"/>
<stop offset="0.046875" style="stop-color:rgb(51.931763%,43.939209%,22.903442%);stop-opacity:1;"/>
<stop offset="0.0625" style="stop-color:rgb(52.182007%,44.241333%,23.181152%);stop-opacity:1;"/>
<stop offset="0.078125" style="stop-color:rgb(52.496338%,44.528198%,23.353577%);stop-opacity:1;"/>
<stop offset="0.09375" style="stop-color:rgb(52.69165%,44.747925%,23.501587%);stop-opacity:1;"/>
<stop offset="0.109375" style="stop-color:rgb(52.868652%,45.030212%,23.678589%);stop-opacity:1;"/>
<stop offset="0.125" style="stop-color:rgb(53.215027%,45.433044%,23.910522%);stop-opacity:1;"/>
<stop offset="0.140625" style="stop-color:rgb(53.518677%,45.748901%,24.221802%);stop-opacity:1;"/>
<stop offset="0.15625" style="stop-color:rgb(53.733826%,46.028137%,24.530029%);stop-opacity:1;"/>
<stop offset="0.171875" style="stop-color:rgb(53.98407%,46.260071%,24.751282%);stop-opacity:1;"/>
<stop offset="0.1875" style="stop-color:rgb(54.219055%,46.514893%,24.920654%);stop-opacity:1;"/>
<stop offset="0.203125" style="stop-color:rgb(54.438782%,46.765137%,25.12207%);stop-opacity:1;"/>
<stop offset="0.21875" style="stop-color:rgb(54.693604%,46.913147%,25.259399%);stop-opacity:1;"/>
<stop offset="0.234375" style="stop-color:rgb(54.930115%,47.20459%,25.465393%);stop-opacity:1;"/>
<stop offset="0.25" style="stop-color:rgb(55.130005%,47.601318%,25.814819%);stop-opacity:1;"/>
<stop offset="0.265625" style="stop-color:rgb(55.34668%,47.891235%,26.106262%);stop-opacity:1;"/>
<stop offset="0.28125" style="stop-color:rgb(55.601501%,48.129272%,26.257324%);stop-opacity:1;"/>
<stop offset="0.296875" style="stop-color:rgb(55.883789%,48.394775%,26.455688%);stop-opacity:1;"/>
<stop offset="0.3125" style="stop-color:rgb(56.245422%,48.730469%,26.747131%);stop-opacity:1;"/>
<stop offset="0.328125" style="stop-color:rgb(56.539917%,49.035645%,26.948547%);stop-opacity:1;"/>
<stop offset="0.34375" style="stop-color:rgb(56.680298%,49.263%,27.154541%);stop-opacity:1;"/>
<stop offset="0.359375" style="stop-color:rgb(56.964111%,49.528503%,27.441406%);stop-opacity:1;"/>
<stop offset="0.375" style="stop-color:rgb(57.264709%,49.841309%,27.735901%);stop-opacity:1;"/>
<stop offset="0.390625" style="stop-color:rgb(57.402039%,50.068665%,27.914429%);stop-opacity:1;"/>
<stop offset="0.40625" style="stop-color:rgb(57.687378%,50.369263%,28.089905%);stop-opacity:1;"/>
<stop offset="0.421875" style="stop-color:rgb(57.987976%,50.784302%,28.309631%);stop-opacity:1;"/>
<stop offset="0.4375" style="stop-color:rgb(58.126831%,51.013184%,28.518677%);stop-opacity:1;"/>
<stop offset="0.453125" style="stop-color:rgb(58.413696%,51.286316%,28.813171%);stop-opacity:1;"/>
<stop offset="0.46875" style="stop-color:rgb(58.72345%,51.605225%,29.148865%);stop-opacity:1;"/>
<stop offset="0.484375" style="stop-color:rgb(58.859253%,51.838684%,29.429626%);stop-opacity:1;"/>
<stop offset="0.5" style="stop-color:rgb(59.147644%,52.111816%,29.606628%);stop-opacity:1;"/>
<stop offset="0.515625" style="stop-color:rgb(59.498596%,52.445984%,29.820251%);stop-opacity:1;"/>
<stop offset="0.53125" style="stop-color:rgb(59.764099%,52.69928%,29.986572%);stop-opacity:1;"/>
<stop offset="0.546875" style="stop-color:rgb(60.05249%,53.001404%,30.194092%);stop-opacity:1;"/>
<stop offset="0.5625" style="stop-color:rgb(60.403442%,53.445435%,30.523682%);stop-opacity:1;"/>
<stop offset="0.578125" style="stop-color:rgb(60.641479%,53.672791%,30.696106%);stop-opacity:1;"/>
<stop offset="0.59375" style="stop-color:rgb(60.780334%,53.80249%,30.900574%);stop-opacity:1;"/>
<stop offset="0.609375" style="stop-color:rgb(61.048889%,54.06189%,31.175232%);stop-opacity:1;"/>
<stop offset="0.625" style="stop-color:rgb(61.289978%,54.318237%,31.355286%);stop-opacity:1;"/>
<stop offset="0.640625" style="stop-color:rgb(61.422729%,54.5578%,31.573486%);stop-opacity:1;"/>
<stop offset="0.65625" style="stop-color:rgb(61.695862%,54.820251%,31.854248%);stop-opacity:1;"/>
<stop offset="0.671875" style="stop-color:rgb(61.965942%,55.082703%,32.029724%);stop-opacity:1;"/>
<stop offset="0.6875" style="stop-color:rgb(62.240601%,55.348206%,32.226562%);stop-opacity:1;"/>
<stop offset="0.703125" style="stop-color:rgb(62.510681%,55.633545%,32.53479%);stop-opacity:1;"/>
<stop offset="0.71875" style="stop-color:rgb(62.783813%,56.016541%,32.83844%);stop-opacity:1;"/>
<stop offset="0.734375" style="stop-color:rgb(63.032532%,56.259155%,33.021545%);stop-opacity:1;"/>
<stop offset="0.75" style="stop-color:rgb(63.168335%,56.385803%,33.230591%);stop-opacity:1;"/>
<stop offset="0.765625" style="stop-color:rgb(63.444519%,56.655884%,33.54187%);stop-opacity:1;"/>
<stop offset="0.78125" style="stop-color:rgb(63.720703%,56.924438%,33.839417%);stop-opacity:1;"/>
<stop offset="0.796875" style="stop-color:rgb(63.999939%,57.196045%,34.024048%);stop-opacity:1;"/>
<stop offset="0.8125" style="stop-color:rgb(64.277649%,57.467651%,34.210205%);stop-opacity:1;"/>
<stop offset="0.828125" style="stop-color:rgb(64.558411%,57.759094%,34.397888%);stop-opacity:1;"/>
<stop offset="0.84375" style="stop-color:rgb(64.833069%,58.155823%,34.617615%);stop-opacity:1;"/>
<stop offset="0.859375" style="stop-color:rgb(65.101624%,58.418274%,34.916687%);stop-opacity:1;"/>
<stop offset="0.875" style="stop-color:rgb(65.280151%,58.601379%,35.049438%);stop-opacity:1;"/>
<stop offset="0.890625" style="stop-color:rgb(65.563965%,58.879089%,35.253906%);stop-opacity:1;"/>
<stop offset="0.90625" style="stop-color:rgb(65.846252%,59.156799%,35.580444%);stop-opacity:1;"/>
<stop offset="0.921875" style="stop-color:rgb(66.12854%,59.436035%,35.894775%);stop-opacity:1;"/>
<stop offset="0.9375" style="stop-color:rgb(66.398621%,59.713745%,36.09314%);stop-opacity:1;"/>
<stop offset="0.953125" style="stop-color:rgb(66.525269%,59.967041%,36.323547%);stop-opacity:1;"/>
<stop offset="0.96875" style="stop-color:rgb(66.812134%,60.261536%,36.657715%);stop-opacity:1;"/>
<stop offset="0.984375" style="stop-color:rgb(67.094421%,60.679626%,37.011719%);stop-opacity:1;"/>
<stop offset="1" style="stop-color:rgb(67.373657%,60.945129%,37.332153%);stop-opacity:1;"/>
</linearGradient>
</defs>
<g id="surface1">
<path style=" stroke:none;fill-rule:nonzero;fill:rgb(15.354919%,27.26593%,55.278015%);fill-opacity:1;" d="M 98.003906 35.199219 C 98.242188 35.238281 98.339844 35.273438 98.433594 35.273438 C 99.765625 35.25 101.097656 35.226562 102.429688 35.195312 C 102.617188 35.1875 102.816406 35.152344 102.988281 35.078125 C 103.390625 34.902344 103.441406 34.417969 103.082031 34.160156 C 102.917969 34.042969 102.722656 33.953125 102.527344 33.898438 C 101.378906 33.582031 100.34375 33.988281 99.328125 34.457031 C 98.910156 34.648438 98.519531 34.90625 98.003906 35.199219 Z M 106.140625 26.523438 C 106.503906 26.730469 106.839844 26.957031 107.199219 27.117188 C 107.527344 27.265625 107.734375 27.449219 107.640625 27.824219 C 107.539062 28.210938 107.671875 28.722656 107.085938 28.878906 C 107.207031 29.777344 107.320312 30.671875 107.453125 31.5625 C 107.609375 32.617188 107.789062 33.667969 107.941406 34.722656 C 107.992188 35.058594 108.144531 35.234375 108.484375 35.234375 C 109.164062 35.234375 109.84375 35.234375 110.609375 35.234375 C 110.515625 34.542969 110.425781 33.875 110.335938 33.210938 C 110.136719 31.757812 109.9375 30.304688 109.730469 28.851562 C 109.714844 28.722656 109.695312 28.546875 109.609375 28.484375 C 109.175781 28.167969 109.3125 27.757812 109.382812 27.355469 C 109.433594 27.035156 109.488281 26.71875 109.527344 26.5 C 109.925781 26.722656 110.3125 26.957031 110.714844 27.160156 C 110.988281 27.296875 111.152344 27.484375 111.054688 27.792969 C 110.945312 28.136719 110.785156 28.464844 110.667969 28.808594 C 110.625 28.941406 110.597656 29.09375 110.617188 29.234375 C 110.777344 30.453125 110.957031 31.667969 111.113281 32.886719 C 111.230469 33.84375 111.363281 34.796875 111.410156 35.757812 C 111.460938 36.714844 111.578125 36.621094 110.589844 36.625 C 107.890625 36.632812 105.191406 36.628906 102.492188 36.628906 C 98.933594 36.628906 95.375 36.625 91.8125 36.625 C 91.050781 36.625 91.019531 36.671875 90.777344 37.378906 C 90.480469 38.246094 89.890625 38.902344 89.183594 39.464844 C 88.964844 39.640625 88.734375 39.796875 88.503906 39.960938 C 87.699219 40.53125 86.824219 40.65625 85.886719 40.355469 C 85.167969 40.128906 84.449219 39.902344 83.730469 39.671875 C 83.652344 39.648438 83.585938 39.585938 83.515625 39.542969 C 83.515625 39.496094 83.515625 39.445312 83.515625 39.398438 C 83.785156 39.378906 84.058594 39.316406 84.320312 39.351562 C 85.308594 39.492188 86.28125 39.601562 87.257812 39.226562 C 88.75 38.652344 89.746094 37.582031 90.324219 36.136719 C 90.652344 35.304688 90.261719 34.582031 89.71875 33.933594 C 89.179688 33.289062 89.167969 32.734375 89.679688 32.03125 C 90.695312 32.824219 90.945312 33.941406 90.992188 35.210938 C 91.480469 35.210938 91.949219 35.210938 92.417969 35.210938 C 92.953125 35.210938 93.484375 35.199219 94.019531 35.214844 C 94.265625 35.21875 94.414062 35.128906 94.359375 34.890625 C 94.261719 34.421875 94.21875 33.902344 93.976562 33.507812 C 93.445312 32.628906 93.40625 32.558594 94.046875 31.636719 C 94.59375 32.046875 94.820312 32.613281 94.878906 33.261719 C 94.929688 33.894531 94.953125 34.527344 94.992188 35.1875 C 96.011719 35.410156 96.921875 35.199219 97.714844 34.570312 C 97.902344 34.417969 98.027344 34.136719 98.089844 33.890625 C 98.390625 32.707031 98.191406 31.53125 97.972656 30.363281 C 97.871094 29.8125 97.71875 29.269531 97.597656 28.71875 C 97.515625 28.335938 97.433594 27.972656 97.054688 27.742188 C 96.964844 27.691406 96.9375 27.449219 96.960938 27.308594 C 97.027344 26.933594 97.136719 26.5625 97.242188 26.121094 C 97.757812 26.351562 98.253906 26.566406 98.738281 26.804688 C 98.8125 26.839844 98.867188 27 98.867188 27.101562 C 98.871094 27.546875 98.867188 27.988281 98.445312 28.304688 C 98.355469 28.371094 98.378906 28.625 98.402344 28.789062 C 98.542969 29.875 98.71875 30.957031 98.835938 32.042969 C 98.894531 32.566406 98.847656 33.105469 98.847656 33.71875 C 99.375 33.449219 99.863281 33.195312 100.351562 32.945312 C 101.085938 32.570312 101.851562 32.3125 102.691406 32.347656 C 103.722656 32.394531 104.375 32.988281 104.503906 34.007812 C 104.515625 34.109375 104.535156 34.214844 104.546875 34.316406 C 104.660156 35.214844 104.660156 35.214844 105.589844 35.214844 C 106.101562 35.214844 106.617188 35.214844 107.171875 35.214844 C 107.105469 34.621094 107.058594 34.089844 106.980469 33.566406 C 106.753906 31.96875 106.515625 30.371094 106.277344 28.773438 C 106.261719 28.671875 106.261719 28.527344 106.199219 28.484375 C 105.558594 28.042969 105.929688 27.472656 106 26.953125 C 106.023438 26.78125 106.109375 26.617188 106.140625 26.523438 "/>
<path style=" stroke:none;fill-rule:nonzero;fill:rgb(15.354919%,27.26593%,55.278015%);fill-opacity:1;" d="M 127.453125 31.609375 C 128.023438 32.070312 128.242188 32.652344 128.320312 33.277344 C 128.394531 33.894531 128.390625 34.519531 128.425781 35.171875 C 129.554688 35.171875 130.65625 35.171875 131.800781 35.171875 C 131.929688 34.441406 131.75 33.789062 131.257812 33.253906 C 130.933594 32.90625 130.914062 32.601562 131.148438 32.222656 C 131.269531 32.027344 131.363281 31.816406 131.484375 31.582031 C 132.554688 32.597656 132.402344 33.898438 132.449219 35.171875 C 133.3125 35.171875 134.144531 35.171875 135.007812 35.171875 C 134.894531 34.214844 134.789062 33.277344 134.664062 32.339844 C 134.507812 31.179688 134.332031 30.023438 134.148438 28.867188 C 134.117188 28.675781 134.03125 28.472656 133.910156 28.324219 C 133.679688 28.023438 133.628906 27.71875 133.734375 27.367188 C 133.839844 27.015625 133.921875 26.65625 134.046875 26.167969 C 134.269531 26.792969 134.664062 27.039062 135.160156 27.191406 C 135.292969 27.234375 135.464844 27.484375 135.445312 27.617188 C 135.394531 28 135.246094 28.367188 135.152344 28.746094 C 135.101562 28.953125 135.027344 29.171875 135.054688 29.375 C 135.222656 30.652344 135.425781 31.921875 135.589844 33.203125 C 135.710938 34.15625 135.78125 35.117188 135.894531 36.074219 C 135.945312 36.507812 135.78125 36.632812 135.355469 36.632812 C 131.945312 36.617188 128.535156 36.640625 125.121094 36.609375 C 124.523438 36.605469 124.195312 36.796875 123.984375 37.351562 C 123.757812 37.9375 123.253906 38.292969 122.683594 38.492188 C 121.132812 39.03125 119.550781 39.105469 117.976562 38.582031 C 117.140625 38.300781 116.640625 37.558594 116.601562 36.644531 C 116.554688 35.488281 117.023438 34.476562 117.464844 33.460938 C 117.628906 33.082031 117.824219 32.714844 118.003906 32.34375 C 118.058594 32.371094 118.113281 32.398438 118.171875 32.421875 C 118.128906 32.53125 118.097656 32.644531 118.046875 32.746094 C 117.605469 33.582031 117.332031 34.464844 117.234375 35.40625 C 117.136719 36.355469 117.484375 36.929688 118.398438 37.242188 C 120.152344 37.835938 121.789062 37.527344 123.316406 36.542969 C 123.808594 36.226562 123.765625 35.710938 123.699219 35.21875 C 123.554688 34.128906 123.390625 33.046875 123.242188 31.960938 C 123.101562 30.949219 122.980469 29.933594 122.835938 28.921875 C 122.808594 28.722656 122.757812 28.476562 122.621094 28.355469 C 122.300781 28.0625 122.335938 27.742188 122.433594 27.386719 C 122.523438 27.0625 122.609375 26.738281 122.707031 26.378906 C 123.203125 26.710938 123.667969 26.96875 124.070312 27.296875 C 124.453125 27.613281 124.210938 28.050781 124.140625 28.421875 C 124.105469 28.601562 123.886719 28.742188 123.75 28.898438 C 123.699219 28.882812 123.652344 28.867188 123.601562 28.847656 C 123.703125 29.578125 123.8125 30.304688 123.902344 31.035156 C 124.054688 32.253906 124.195312 33.476562 124.320312 34.699219 C 124.359375 35.058594 124.503906 35.234375 124.878906 35.234375 C 125.710938 35.234375 126.539062 35.242188 127.371094 35.273438 C 127.738281 35.289062 127.828125 35.132812 127.816406 34.800781 C 127.796875 34.230469 127.648438 33.703125 127.257812 33.292969 C 126.894531 32.917969 126.839844 32.578125 127.160156 32.160156 C 127.277344 32.015625 127.339844 31.828125 127.453125 31.609375 "/>
<path style=" stroke:none;fill-rule:nonzero;fill:rgb(15.354919%,27.26593%,55.278015%);fill-opacity:1;" d="M 72.261719 50.125 C 72.210938 53.0625 72.164062 55.898438 72.113281 58.789062 C 71.621094 58.757812 71.183594 58.726562 70.675781 58.691406 C 70.871094 54.855469 71.066406 51.03125 71.265625 47.097656 C 74.136719 50.085938 76.9375 52.996094 79.734375 55.90625 C 79.78125 55.894531 79.828125 55.882812 79.875 55.867188 C 79.875 53.152344 79.875 50.433594 79.875 47.636719 C 80.421875 47.675781 80.867188 47.710938 81.34375 47.746094 C 81.199219 51.484375 81.054688 55.167969 80.90625 58.992188 C 78.003906 56.011719 75.175781 53.113281 72.261719 50.125 "/>
<g clip-path="url(#clip1)" clip-rule="nonzero">
<path style=" stroke:none;fill-rule:nonzero;fill:rgb(15.354919%,27.26593%,55.278015%);fill-opacity:1;" d="M 132.210938 47.75 C 133.902344 47.816406 135.566406 47.707031 137.152344 48.359375 C 138.78125 49.03125 138.992188 50.667969 138.15625 51.878906 C 137.730469 52.5 137.136719 53.007812 136.546875 53.644531 C 137.660156 55.023438 138.851562 56.496094 140.074219 58.007812 C 139.691406 58.316406 139.328125 58.609375 138.914062 58.945312 C 137.519531 57.113281 136.144531 55.3125 134.839844 53.605469 C 135.488281 53.003906 136.132812 52.488281 136.671875 51.878906 C 137.230469 51.25 137.277344 50.230469 136.796875 49.75 C 136.484375 49.4375 136.058594 49.191406 135.636719 49.054688 C 135.121094 48.890625 134.5625 48.878906 134.019531 48.792969 C 133.703125 48.742188 133.613281 48.875 133.613281 49.183594 C 133.632812 51.246094 133.636719 53.304688 133.640625 55.367188 C 133.644531 56.460938 133.640625 57.550781 133.640625 58.675781 C 133.175781 58.675781 132.710938 58.675781 132.210938 58.675781 C 132.210938 55.039062 132.210938 51.425781 132.210938 47.75 "/>
</g>
<path style=" stroke:none;fill-rule:nonzero;fill:rgb(15.354919%,27.26593%,55.278015%);fill-opacity:1;" d="M 117.382812 49.765625 C 117.335938 49.761719 117.285156 49.761719 117.238281 49.757812 C 116.554688 51.179688 115.867188 52.601562 115.136719 54.113281 C 116.664062 54.039062 118.074219 53.96875 119.5625 53.894531 C 118.808594 52.46875 118.097656 51.117188 117.382812 49.765625 Z M 117.429688 47.230469 C 119.429688 50.832031 121.433594 54.433594 123.464844 58.089844 C 123.0625 58.355469 122.652344 58.628906 122.1875 58.9375 C 121.816406 58.242188 121.472656 57.59375 121.128906 56.945312 C 120.804688 56.332031 120.492188 55.707031 120.148438 55.105469 C 120.09375 55.003906 119.921875 54.910156 119.804688 54.914062 C 118.21875 54.964844 116.636719 55.042969 115.050781 55.089844 C 114.695312 55.101562 114.523438 55.25 114.390625 55.558594 C 113.898438 56.695312 113.390625 57.824219 112.871094 59 C 112.4375 58.71875 112.046875 58.46875 111.613281 58.1875 C 113.507812 54.523438 115.394531 50.882812 117.277344 47.238281 C 117.328125 47.234375 117.378906 47.230469 117.429688 47.230469 "/>
<path style=" stroke:none;fill-rule:nonzero;fill:rgb(15.354919%,27.26593%,55.278015%);fill-opacity:1;" d="M 101.410156 52.75 C 102.363281 52.695312 103.347656 52.640625 104.371094 52.585938 C 104.371094 52.972656 104.371094 53.351562 104.371094 53.761719 C 103.390625 53.761719 102.390625 53.761719 101.34375 53.761719 C 101.332031 53.886719 101.3125 54.03125 101.3125 54.171875 C 101.308594 55.148438 101.324219 56.128906 101.304688 57.105469 C 101.296875 57.449219 101.390625 57.578125 101.753906 57.566406 C 102.773438 57.535156 103.796875 57.539062 104.820312 57.53125 C 104.890625 57.527344 104.960938 57.539062 105.074219 57.550781 C 105.074219 57.957031 105.074219 58.347656 105.074219 58.734375 C 103.363281 58.734375 101.644531 58.734375 99.917969 58.734375 C 99.917969 55.039062 99.917969 51.429688 99.917969 47.757812 C 100.800781 47.710938 101.679688 47.65625 102.5625 47.613281 C 103.1875 47.585938 103.808594 47.589844 104.429688 47.554688 C 104.738281 47.535156 104.867188 47.640625 104.847656 47.953125 C 104.832031 48.183594 104.84375 48.417969 104.84375 48.734375 C 104.289062 48.734375 103.734375 48.730469 103.175781 48.738281 C 102.671875 48.742188 102.167969 48.738281 101.664062 48.777344 C 101.542969 48.789062 101.332031 48.953125 101.328125 49.050781 C 101.3125 50.234375 101.328125 51.417969 101.335938 52.605469 C 101.335938 52.632812 101.359375 52.65625 101.410156 52.75 "/>
<path style=" stroke:none;fill-rule:nonzero;fill:rgb(15.354919%,27.26593%,55.278015%);fill-opacity:1;" d="M 96.714844 57.566406 C 96.714844 57.898438 96.730469 58.25 96.703125 58.601562 C 96.695312 58.679688 96.53125 58.8125 96.445312 58.8125 C 94.816406 58.785156 93.1875 58.742188 91.546875 58.703125 C 91.546875 55.054688 91.546875 51.445312 91.546875 47.796875 C 92.050781 47.796875 92.53125 47.796875 93.078125 47.796875 C 93.078125 47.96875 93.078125 48.152344 93.078125 48.335938 C 93.050781 51.269531 93.027344 54.207031 92.988281 57.140625 C 92.984375 57.46875 93.082031 57.582031 93.414062 57.574219 C 94.492188 57.554688 95.574219 57.566406 96.714844 57.566406 "/>
<path style=" stroke:none;fill-rule:nonzero;fill:rgb(15.354919%,27.26593%,55.278015%);fill-opacity:1;" d="M 72.785156 33.785156 C 72.605469 34.335938 72.394531 34.882812 72.253906 35.445312 C 72.128906 35.957031 72.015625 36.484375 72.003906 37.011719 C 71.980469 37.757812 72.40625 38.296875 73.085938 38.535156 C 74.816406 39.144531 76.46875 38.898438 78.019531 37.941406 C 78.847656 37.429688 79.007812 36.644531 78.820312 35.769531 C 78.714844 35.265625 78.519531 34.78125 78.339844 34.296875 C 78.085938 33.613281 78.261719 32.753906 78.890625 32.152344 C 79.0625 32.871094 79.296875 33.511719 79.355469 34.167969 C 79.441406 35.109375 79.433594 36.0625 79.40625 37.011719 C 79.363281 38.632812 78.574219 39.605469 76.996094 39.976562 C 75.753906 40.269531 74.492188 40.28125 73.242188 40.046875 C 71.914062 39.800781 71.257812 38.875 71.355469 37.523438 C 71.441406 36.421875 71.84375 35.425781 72.257812 34.421875 C 72.355469 34.179688 72.460938 33.941406 72.5625 33.699219 C 72.636719 33.726562 72.710938 33.753906 72.785156 33.785156 "/>
<g clip-path="url(#clip2)" clip-rule="nonzero">
<g clip-path="url(#clip3)" clip-rule="nonzero">
<g clip-path="url(#clip4)" clip-rule="nonzero">
<path style=" stroke:none;fill-rule:nonzero;fill:url(#linear0);" d="M 33.691406 59 L 63.929688 59 L 63.929688 30.726562 L 33.691406 30.726562 Z M 33.691406 59 "/>
</g>
</g>
</g>
<path style=" stroke:none;fill-rule:nonzero;fill:rgb(66.244507%,60.166931%,37.098694%);fill-opacity:1;" d="M 32.941406 35.464844 C 32.746094 35.78125 32.59375 36.035156 32.414062 36.332031 C 32.113281 36.175781 31.824219 36.039062 31.546875 35.886719 C 28.570312 34.265625 25.59375 32.640625 22.617188 31.019531 C 19.265625 29.191406 15.90625 27.371094 12.554688 25.546875 C 8.847656 23.53125 5.144531 21.515625 1.445312 19.484375 C 1.28125 19.390625 1.113281 19.175781 1.082031 18.992188 C 0.769531 17.289062 0.488281 15.582031 0.195312 13.875 C 0.132812 13.515625 0.0664062 13.15625 0 12.796875 C 0.0351562 12.769531 0.0703125 12.742188 0.105469 12.714844 C 11.035156 20.285156 21.96875 27.859375 32.941406 35.464844 "/>
<path style=" stroke:none;fill-rule:nonzero;fill:rgb(66.244507%,60.166931%,37.098694%);fill-opacity:1;" d="M 11.085938 0 C 12.292969 1.460938 13.449219 2.863281 14.609375 4.265625 C 17.714844 8.015625 20.828125 11.765625 23.933594 15.515625 C 27.449219 19.761719 30.953125 24.007812 34.464844 28.253906 C 35.171875 29.109375 35.863281 29.976562 36.589844 30.820312 C 36.839844 31.109375 36.851562 31.316406 36.535156 31.53125 C 36.425781 31.609375 36.320312 31.695312 36.222656 31.785156 C 36.066406 31.933594 35.945312 31.941406 35.78125 31.765625 C 33.617188 29.488281 31.453125 27.21875 29.28125 24.953125 C 27.25 22.835938 25.210938 20.726562 23.183594 18.609375 C 20.679688 16.003906 18.1875 13.386719 15.6875 10.777344 C 14.035156 9.054688 12.382812 7.339844 10.734375 5.621094 C 10.375 5.246094 10 4.886719 9.675781 4.484375 C 9.570312 4.359375 9.535156 4.09375 9.589844 3.9375 C 10.0625 2.648438 10.5625 1.363281 11.085938 0 "/>
<path style=" stroke:none;fill-rule:nonzero;fill:rgb(66.244507%,60.166931%,37.098694%);fill-opacity:1;" d="M 8.492188 8.128906 C 17.28125 16.519531 26.007812 24.851562 34.710938 33.160156 C 34.699219 33.234375 34.703125 33.253906 34.695312 33.265625 C 34.136719 34.109375 34.144531 34.097656 33.324219 33.46875 C 30.382812 31.222656 27.433594 28.988281 24.488281 26.742188 C 21.050781 24.121094 17.613281 21.492188 14.175781 18.867188 C 12.445312 17.546875 10.707031 16.234375 8.984375 14.90625 C 8.835938 14.792969 8.675781 14.589844 8.671875 14.421875 C 8.585938 12.425781 8.527344 10.421875 8.464844 8.421875 C 8.464844 8.351562 8.476562 8.28125 8.492188 8.128906 "/>
<path style=" stroke:none;fill-rule:nonzero;fill:rgb(66.244507%,60.166931%,37.098694%);fill-opacity:1;" d="M 0.421875 31.296875 C 2.15625 31.777344 3.792969 32.226562 5.433594 32.679688 C 7.414062 33.230469 9.394531 33.785156 11.375 34.339844 C 13.597656 34.960938 15.820312 35.59375 18.042969 36.210938 C 19.996094 36.753906 21.953125 37.28125 23.90625 37.824219 C 25.789062 38.347656 27.667969 38.882812 29.546875 39.410156 C 29.820312 39.484375 30.089844 39.554688 30.363281 39.628906 C 30.648438 39.707031 30.746094 39.871094 30.648438 40.160156 C 30.578125 40.371094 30.53125 40.585938 30.457031 40.851562 C 29.757812 40.757812 29.058594 40.667969 28.359375 40.574219 C 26.011719 40.257812 23.664062 39.949219 21.320312 39.628906 C 18.886719 39.292969 16.453125 38.945312 14.019531 38.613281 C 12.332031 38.382812 10.644531 38.167969 8.957031 37.9375 C 7.183594 37.699219 5.410156 37.445312 3.636719 37.199219 C 3.535156 37.183594 3.429688 37.144531 3.332031 37.15625 C 2.574219 37.242188 2.257812 36.851562 2.046875 36.160156 C 1.589844 34.679688 1.042969 33.222656 0.539062 31.753906 C 0.496094 31.632812 0.472656 31.503906 0.421875 31.296875 "/>
<path style=" stroke:none;fill-rule:nonzero;fill:rgb(66.244507%,60.166931%,37.098694%);fill-opacity:1;" d="M 31.722656 37.480469 C 31.515625 38.261719 31.488281 38.277344 30.832031 38.070312 C 27.597656 37.054688 24.363281 36.042969 21.136719 35.019531 C 18.015625 34.03125 14.90625 33.027344 11.789062 32.035156 C 10.09375 31.5 8.394531 30.984375 6.703125 30.441406 C 6.558594 30.394531 6.351562 30.210938 6.351562 30.089844 C 6.375 28.609375 6.433594 27.132812 6.484375 25.515625 C 14.96875 29.539062 23.351562 33.511719 31.722656 37.480469 "/>
<path style=" stroke:none;fill-rule:nonzero;fill:rgb(66.244507%,60.166931%,37.098694%);fill-opacity:1;" d="M 22.152344 3.636719 C 28.007812 12.269531 33.789062 20.792969 39.601562 29.355469 C 39.214844 29.621094 38.878906 29.855469 38.503906 30.113281 C 37.824219 29.246094 37.160156 28.398438 36.496094 27.550781 C 34.453125 24.957031 32.40625 22.359375 30.371094 19.761719 C 27.710938 16.367188 25.0625 12.972656 22.40625 9.578125 C 21.949219 8.996094 21.472656 8.425781 21.039062 7.828125 C 20.921875 7.667969 20.828125 7.394531 20.886719 7.226562 C 21.269531 6.0625 21.695312 4.914062 22.152344 3.636719 "/>
<path style=" stroke:none;fill-rule:nonzero;fill:rgb(66.244507%,60.166931%,37.098694%);fill-opacity:1;" d="M 27.964844 0.671875 C 32.6875 9.855469 37.363281 18.945312 42.0625 28.082031 C 41.714844 28.28125 41.390625 28.464844 41.011719 28.679688 C 40.519531 27.871094 40.046875 27.09375 39.570312 26.3125 C 37.964844 23.667969 36.355469 21.027344 34.753906 18.382812 C 32.601562 14.839844 30.457031 11.292969 28.308594 7.75 C 27.710938 6.761719 27.121094 5.769531 26.519531 4.785156 C 26.367188 4.542969 26.324219 4.339844 26.453125 4.054688 C 26.957031 2.972656 27.429688 1.871094 27.964844 0.671875 "/>
<path style=" stroke:none;fill-rule:nonzero;fill:rgb(66.244507%,60.166931%,37.098694%);fill-opacity:1;" d="M 4.933594 43.25 C 4.960938 42.953125 4.980469 42.691406 5.015625 42.433594 C 5.101562 41.757812 5.199219 41.085938 5.28125 40.410156 C 5.324219 40.074219 5.433594 39.953125 5.824219 39.992188 C 7.621094 40.183594 9.421875 40.316406 11.21875 40.488281 C 13.324219 40.695312 15.425781 40.925781 17.53125 41.136719 C 19.34375 41.3125 21.15625 41.464844 22.96875 41.644531 C 25.160156 41.859375 27.351562 42.109375 29.546875 42.308594 C 30.019531 42.351562 29.941406 42.628906 29.957031 42.921875 C 29.980469 43.277344 29.765625 43.289062 29.503906 43.289062 C 21.457031 43.285156 13.40625 43.285156 5.359375 43.285156 C 5.230469 43.285156 5.101562 43.265625 4.933594 43.25 "/>
<path style=" stroke:none;fill-rule:nonzero;fill:rgb(66.244507%,60.166931%,37.098694%);fill-opacity:1;" d="M 43.3125 3.425781 C 43.507812 4.515625 43.703125 5.601562 43.898438 6.691406 C 44.246094 8.609375 44.605469 10.53125 44.949219 12.453125 C 45.398438 14.972656 45.835938 17.496094 46.285156 20.015625 C 46.667969 22.167969 47.054688 24.324219 47.460938 26.476562 C 47.527344 26.84375 47.472656 26.988281 47.070312 27 C 46.15625 27.023438 46.164062 27.035156 45.921875 26.113281 C 45.019531 22.679688 44.101562 19.25 43.203125 15.816406 C 42.558594 13.351562 42.007812 10.863281 41.269531 8.429688 C 40.917969 7.28125 41.019531 6.410156 41.792969 5.507812 C 42.339844 4.875 42.734375 4.113281 43.195312 3.410156 C 43.234375 3.417969 43.273438 3.421875 43.3125 3.425781 "/>
<path style=" stroke:none;fill-rule:nonzero;fill:rgb(66.244507%,60.166931%,37.098694%);fill-opacity:1;" d="M 38.238281 6.160156 C 38.671875 7.566406 39.078125 8.878906 39.476562 10.1875 C 40.128906 12.324219 40.78125 14.460938 41.429688 16.59375 C 41.957031 18.335938 42.472656 20.082031 42.996094 21.820312 C 43.515625 23.535156 44.019531 25.25 44.5625 26.953125 C 44.675781 27.304688 44.585938 27.386719 44.277344 27.46875 C 43.359375 27.722656 43.371094 27.714844 43.03125 26.847656 C 42.136719 24.5625 41.214844 22.289062 40.304688 20.007812 C 39.457031 17.878906 38.617188 15.746094 37.773438 13.613281 C 37.363281 12.582031 36.941406 11.554688 36.550781 10.519531 C 36.488281 10.347656 36.484375 10.109375 36.554688 9.945312 C 37.089844 8.710938 37.644531 7.488281 38.238281 6.160156 "/>
<path style=" stroke:none;fill-rule:nonzero;fill:rgb(66.244507%,60.166931%,37.098694%);fill-opacity:1;" d="M 55.515625 28.027344 C 54.179688 27.628906 54.398438 27.847656 54.578125 26.636719 C 54.84375 24.808594 55.105469 22.976562 55.378906 21.148438 C 55.730469 18.777344 56.085938 16.410156 56.464844 14.042969 C 56.488281 13.886719 56.683594 13.695312 56.84375 13.636719 C 57.671875 13.316406 58.511719 13.035156 59.46875 12.699219 C 58.136719 17.867188 56.828125 22.949219 55.515625 28.027344 "/>
<path style=" stroke:none;fill-rule:nonzero;fill:rgb(66.244507%,60.166931%,37.098694%);fill-opacity:1;" d="M 49.808594 10.519531 C 49.808594 11.957031 49.789062 13.394531 49.8125 14.828125 C 49.871094 18.34375 49.949219 21.855469 50.019531 25.371094 C 50.027344 25.726562 50.039062 26.082031 50.070312 26.4375 C 50.097656 26.726562 49.988281 26.855469 49.695312 26.824219 C 49.621094 26.816406 49.546875 26.824219 49.472656 26.824219 C 48.867188 26.824219 48.863281 26.824219 48.808594 26.21875 C 48.597656 23.949219 48.394531 21.675781 48.179688 19.40625 C 47.980469 17.359375 47.773438 15.3125 47.5625 13.265625 C 47.515625 12.828125 47.582031 12.476562 47.941406 12.160156 C 48.535156 11.632812 49.082031 11.042969 49.644531 10.480469 C 49.699219 10.492188 49.753906 10.507812 49.808594 10.519531 "/>
<path style=" stroke:none;fill-rule:nonzero;fill:rgb(66.244507%,60.166931%,37.098694%);fill-opacity:1;" d="M 54.085938 10.59375 C 54.050781 11.269531 54.027344 11.945312 53.980469 12.621094 C 53.90625 13.832031 53.816406 15.039062 53.734375 16.25 C 53.570312 18.703125 53.402344 21.152344 53.238281 23.601562 C 53.167969 24.664062 53.09375 25.730469 53.046875 26.792969 C 53.03125 27.15625 52.859375 27.191406 52.558594 27.148438 C 51.808594 27.035156 51.804688 27.042969 51.808594 26.273438 C 51.839844 21.871094 51.875 17.472656 51.898438 13.070312 C 51.898438 12.730469 52.007812 12.492188 52.25 12.257812 C 52.832031 11.695312 53.390625 11.101562 53.957031 10.523438 C 54 10.546875 54.042969 10.570312 54.085938 10.59375 "/>
<path style=" stroke:none;fill-rule:nonzero;fill:rgb(66.244507%,60.166931%,37.098694%);fill-opacity:1;" d="M 63.234375 17.421875 C 61.410156 21.363281 59.640625 25.195312 57.855469 29.058594 C 57.566406 28.929688 57.3125 28.84375 57.097656 28.699219 C 57.003906 28.636719 56.917969 28.421875 56.953125 28.316406 C 57.816406 25.785156 58.699219 23.261719 59.574219 20.734375 C 59.910156 19.753906 60.25 18.777344 60.5625 17.792969 C 60.6875 17.402344 60.847656 17.179688 61.308594 17.246094 C 61.90625 17.332031 62.511719 17.359375 63.234375 17.421875 "/>
<path style=" stroke:none;fill-rule:nonzero;fill:rgb(66.244507%,60.166931%,37.098694%);fill-opacity:1;" d="M 59.890625 30.285156 C 58.988281 29.882812 58.980469 29.878906 59.410156 29.09375 C 60.628906 26.871094 61.851562 24.660156 63.074219 22.441406 C 63.421875 21.808594 63.761719 21.167969 64.15625 20.441406 C 64.496094 21.234375 64.8125 21.941406 65.09375 22.660156 C 65.140625 22.78125 65.078125 22.992188 64.996094 23.109375 C 63.355469 25.445312 61.703125 27.773438 60.054688 30.101562 C 60.011719 30.160156 59.957031 30.210938 59.890625 30.285156 "/>
<path style=" stroke:none;fill-rule:nonzero;fill:rgb(15.354919%,27.26593%,55.278015%);fill-opacity:1;" d="M 86.917969 58.675781 C 86.433594 58.675781 85.96875 58.675781 85.46875 58.675781 C 85.46875 55.039062 85.46875 51.429688 85.46875 47.789062 C 85.945312 47.789062 86.410156 47.789062 86.917969 47.789062 C 86.917969 51.410156 86.917969 55.03125 86.917969 58.675781 "/>
<path style=" stroke:none;fill-rule:nonzero;fill:rgb(15.354919%,27.26593%,55.278015%);fill-opacity:1;" d="M 127.546875 47.789062 C 127.546875 51.429688 127.546875 55.039062 127.546875 58.675781 C 127.058594 58.675781 126.605469 58.675781 126.109375 58.675781 C 126.109375 55.039062 126.109375 51.425781 126.109375 47.789062 C 126.574219 47.789062 127.042969 47.789062 127.546875 47.789062 "/>
<path style=" stroke:none;fill-rule:nonzero;fill:rgb(15.354919%,27.26593%,55.278015%);fill-opacity:1;" d="M 81.511719 27.066406 C 81.730469 29.511719 81.964844 31.960938 82.15625 34.40625 C 82.214844 35.199219 82.042969 35.964844 81.472656 36.710938 C 81.398438 35.933594 81.324219 35.253906 81.261719 34.574219 C 81.101562 32.847656 80.976562 31.121094 80.78125 29.398438 C 80.691406 28.613281 80.757812 27.898438 81.1875 27.230469 C 81.230469 27.160156 81.292969 27.105469 81.347656 27.042969 C 81.402344 27.050781 81.457031 27.058594 81.511719 27.066406 "/>
<path style=" stroke:none;fill-rule:nonzero;fill:rgb(15.354919%,27.26593%,55.278015%);fill-opacity:1;" d="M 137.832031 26.964844 C 137.90625 27.574219 137.984375 28.09375 138.03125 28.617188 C 138.210938 30.578125 138.367188 32.535156 138.546875 34.496094 C 138.628906 35.371094 138.316406 36.105469 137.761719 36.867188 C 137.726562 36.683594 137.691406 36.589844 137.695312 36.5 C 137.773438 34.195312 137.445312 31.921875 137.199219 29.644531 C 137.105469 28.800781 137 27.957031 137.597656 27.226562 C 137.648438 27.164062 137.707031 27.105469 137.832031 26.964844 "/>
<path style=" stroke:none;fill-rule:nonzero;fill:rgb(15.354919%,27.26593%,55.278015%);fill-opacity:1;" d="M 94.316406 39.410156 C 93.882812 39.1875 93.492188 38.988281 93.035156 38.75 C 93.199219 38.425781 93.355469 38.101562 93.53125 37.789062 C 93.566406 37.730469 93.722656 37.679688 93.785156 37.707031 C 94.109375 37.847656 94.429688 38 94.730469 38.179688 C 94.800781 38.222656 94.839844 38.421875 94.800781 38.507812 C 94.664062 38.8125 94.488281 39.097656 94.316406 39.410156 "/>
<path style=" stroke:none;fill-rule:nonzero;fill:rgb(15.354919%,27.26593%,55.278015%);fill-opacity:1;" d="M 128.363281 38.28125 C 128.136719 38.683594 127.941406 39.027344 127.730469 39.40625 C 127.300781 39.183594 126.890625 38.972656 126.445312 38.742188 C 126.644531 38.363281 126.824219 38.015625 127.03125 37.613281 C 127.472656 37.835938 127.890625 38.042969 128.363281 38.28125 "/>
<path style=" stroke:none;fill-rule:nonzero;fill:rgb(15.354919%,27.26593%,55.278015%);fill-opacity:1;" d="M 131.183594 30.355469 C 130.722656 30.105469 130.3125 29.886719 129.890625 29.660156 C 130.097656 29.261719 130.28125 28.914062 130.488281 28.523438 C 130.910156 28.75 131.320312 28.964844 131.757812 29.195312 C 131.566406 29.582031 131.390625 29.933594 131.183594 30.355469 "/>
<path style=" stroke:none;fill-rule:nonzero;fill:rgb(15.354919%,27.26593%,55.278015%);fill-opacity:1;" d="M 93.074219 39.007812 C 92.863281 39.402344 92.679688 39.746094 92.460938 40.15625 C 92.085938 39.957031 91.730469 39.789062 91.398438 39.582031 C 91.328125 39.539062 91.300781 39.324219 91.339844 39.21875 C 91.453125 38.933594 91.605469 38.664062 91.765625 38.347656 C 92.195312 38.566406 92.609375 38.773438 93.074219 39.007812 "/>
<path style=" stroke:none;fill-rule:nonzero;fill:rgb(15.354919%,27.26593%,55.278015%);fill-opacity:1;" d="M 126.472656 39.035156 C 126.28125 39.410156 126.105469 39.757812 125.902344 40.160156 C 125.515625 39.960938 125.160156 39.789062 124.828125 39.585938 C 124.757812 39.542969 124.707031 39.355469 124.738281 39.265625 C 125.058594 38.324219 125.171875 38.285156 126.015625 38.777344 C 126.152344 38.859375 126.289062 38.933594 126.472656 39.035156 "/>
<path style=" stroke:none;fill-rule:nonzero;fill:rgb(15.354919%,27.26593%,55.278015%);fill-opacity:1;" d="M 75.179688 29.816406 C 75.625 30.050781 76.023438 30.261719 76.445312 30.484375 C 76.238281 30.875 76.050781 31.21875 75.851562 31.59375 C 75.5 31.40625 75.167969 31.253906 74.867188 31.050781 C 74.78125 30.996094 74.726562 30.777344 74.765625 30.671875 C 74.859375 30.398438 75.015625 30.144531 75.179688 29.816406 "/>
</g>
</svg>
