<svg xmlns="http://www.w3.org/2000/svg" width="186.76" height="59pt" viewBox="0 0 140.07 59"><defs><clipPath id="a"><path d="M132 47h8.07v12H132Zm0 0"/></clipPath><clipPath id="b"><path d="M33 30h31v29H33Zm0 0"/></clipPath><clipPath id="c"><path d="M48.758 30.758c4.336.023 8.035 1.574 11.023 4.719 1.785 1.882 2.95 4.12 3.418 6.707.73 4.035-.156 7.68-2.672 10.898-1.906 2.438-4.382 4.063-7.351 4.953-3.215.969-6.414.895-9.563-.207-3.308-1.16-5.93-3.242-7.734-6.27-1.602-2.69-2.188-5.628-1.738-8.718.547-3.766 2.418-6.8 5.457-9.078 2.703-2.032 5.761-3.035 9.16-3.004m0 0"/></clipPath><clipPath id="d"><path d="M48.758 30.758c4.336.023 8.035 1.574 11.023 4.719 1.785 1.882 2.95 4.12 3.418 6.707.73 4.035-.156 7.68-2.672 10.898-1.906 2.438-4.382 4.063-7.351 4.953-3.215.969-6.414.895-9.563-.207-3.308-1.16-5.93-3.242-7.734-6.27-1.602-2.69-2.188-5.628-1.738-8.718.547-3.766 2.418-6.8 5.457-9.078 2.703-2.032 5.761-3.035 9.16-3.004"/></clipPath><linearGradient id="e" x1="-.01" x2="1.001" y1="0" y2="0" gradientTransform="rotate(-90 53.715 4.995)scale(27.9518)" gradientUnits="userSpaceOnUse"><stop offset="0" style="stop-color:#836f39;stop-opacity:1"/><stop offset=".016" style="stop-color:#836f39;stop-opacity:1"/><stop offset=".031" style="stop-color:#846f3a;stop-opacity:1"/><stop offset=".047" style="stop-color:#84703a;stop-opacity:1"/><stop offset=".063" style="stop-color:#85713b;stop-opacity:1"/><stop offset=".078" style="stop-color:#86723c;stop-opacity:1"/><stop offset=".094" style="stop-color:#86723c;stop-opacity:1"/><stop offset=".109" style="stop-color:#87733c;stop-opacity:1"/><stop offset=".125" style="stop-color:#88743d;stop-opacity:1"/><stop offset=".141" style="stop-color:#88753e;stop-opacity:1"/><stop offset=".156" style="stop-color:#89753f;stop-opacity:1"/><stop offset=".172" style="stop-color:#8a763f;stop-opacity:1"/><stop offset=".188" style="stop-color:#8a7740;stop-opacity:1"/><stop offset=".203" style="stop-color:#8b7740;stop-opacity:1"/><stop offset=".219" style="stop-color:#8b7840;stop-opacity:1"/><stop offset=".234" style="stop-color:#8c7841;stop-opacity:1"/><stop offset=".25" style="stop-color:#8d7942;stop-opacity:1"/><stop offset=".266" style="stop-color:#8d7a43;stop-opacity:1"/><stop offset=".281" style="stop-color:#8e7b43;stop-opacity:1"/><stop offset=".297" style="stop-color:#8f7b43;stop-opacity:1"/><stop offset=".313" style="stop-color:#8f7c44;stop-opacity:1"/><stop offset=".328" style="stop-color:#907d45;stop-opacity:1"/><stop offset=".344" style="stop-color:#917e45;stop-opacity:1"/><stop offset=".359" style="stop-color:#917e46;stop-opacity:1"/><stop offset=".375" style="stop-color:#927f47;stop-opacity:1"/><stop offset=".391" style="stop-color:#928047;stop-opacity:1"/><stop offset=".406" style="stop-color:#938048;stop-opacity:1"/><stop offset=".422" style="stop-color:#948148;stop-opacity:1"/><stop offset=".438" style="stop-color:#948249;stop-opacity:1"/><stop offset=".453" style="stop-color:#958349;stop-opacity:1"/><stop offset=".469" style="stop-color:#96844a;stop-opacity:1"/><stop offset=".484" style="stop-color:#96844b;stop-opacity:1"/><stop offset=".5" style="stop-color:#97854b;stop-opacity:1"/><stop offset=".516" style="stop-color:#98864c;stop-opacity:1"/><stop offset=".531" style="stop-color:#98864c;stop-opacity:1"/><stop offset=".547" style="stop-color:#99874d;stop-opacity:1"/><stop offset=".563" style="stop-color:#9a884e;stop-opacity:1"/><stop offset=".578" style="stop-color:#9b894e;stop-opacity:1"/><stop offset=".594" style="stop-color:#9b894f;stop-opacity:1"/><stop offset=".609" style="stop-color:#9c8a4f;stop-opacity:1"/><stop offset=".625" style="stop-color:#9c8b50;stop-opacity:1"/><stop offset=".641" style="stop-color:#9d8b51;stop-opacity:1"/><stop offset=".656" style="stop-color:#9d8c51;stop-opacity:1"/><stop offset=".672" style="stop-color:#9e8c52;stop-opacity:1"/><stop offset=".688" style="stop-color:#9f8d52;stop-opacity:1"/><stop offset=".703" style="stop-color:#9f8e53;stop-opacity:1"/><stop offset=".719" style="stop-color:#a08f54;stop-opacity:1"/><stop offset=".734" style="stop-color:#a18f54;stop-opacity:1"/><stop offset=".75" style="stop-color:#a19055;stop-opacity:1"/><stop offset=".766" style="stop-color:#a29056;stop-opacity:1"/><stop offset=".781" style="stop-color:#a29156;stop-opacity:1"/><stop offset=".797" style="stop-color:#a39257;stop-opacity:1"/><stop offset=".813" style="stop-color:#a49357;stop-opacity:1"/><stop offset=".828" style="stop-color:#a59358;stop-opacity:1"/><stop offset=".844" style="stop-color:#a59458;stop-opacity:1"/><stop offset=".859" style="stop-color:#a69559;stop-opacity:1"/><stop offset=".875" style="stop-color:#a69559;stop-opacity:1"/><stop offset=".891" style="stop-color:#a7965a;stop-opacity:1"/><stop offset=".906" style="stop-color:#a8975b;stop-opacity:1"/><stop offset=".922" style="stop-color:#a9985c;stop-opacity:1"/><stop offset=".938" style="stop-color:#a9985c;stop-opacity:1"/><stop offset=".953" style="stop-color:#aa995d;stop-opacity:1"/><stop offset=".969" style="stop-color:#aa9a5d;stop-opacity:1"/><stop offset=".984" style="stop-color:#ab9b5e;stop-opacity:1"/><stop offset="1" style="stop-color:#ac9b5f;stop-opacity:1"/></linearGradient></defs><path d="M98.004 35.2c.238.038.336.073.43.073 1.332-.023 2.664-.046 3.996-.078.187-.008.386-.043.558-.117.403-.176.453-.66.094-.918a1.8 1.8 0 0 0-.555-.262c-1.148-.316-2.183.09-3.199.559-.418.191-.808.45-1.324.742m8.137-8.677c.363.207.699.434 1.058.594.328.149.535.332.442.707-.102.387.03.899-.555 1.055.121.898.234 1.793.367 2.683.156 1.055.336 2.106.488 3.16.051.337.204.512.543.512h2.125l-.273-2.023c-.2-1.453-.398-2.906-.606-4.36-.015-.128-.035-.304-.12-.367-.434-.316-.297-.726-.227-1.129.05-.32.105-.636.144-.855.399.223.785.457 1.188.66.273.137.437.324.34.633-.11.344-.27.672-.387 1.016a1 1 0 0 0-.05.425c.16 1.22.339 2.434.495 3.653.117.957.25 1.91.297 2.87.05.958.168.864-.82.868-2.7.008-5.399.004-8.098.004-3.558 0-7.117-.004-10.68-.004-.761 0-.792.047-1.035.754-.297.867-.886 1.523-1.593 2.086-.22.176-.45.332-.68.496-.805.57-1.68.695-2.617.394q-1.078-.339-2.157-.683c-.078-.024-.144-.086-.214-.129v-.145c.27-.02.543-.082.804-.046.989.14 1.961.25 2.938-.125 1.492-.575 2.488-1.645 3.066-3.09.328-.832-.062-1.555-.605-2.203-.54-.645-.551-1.2-.04-1.903 1.016.793 1.266 1.91 1.313 3.18h1.426c.535 0 1.066-.012 1.602.004.246.004.394-.086.34-.324-.098-.47-.141-.989-.383-1.383-.532-.88-.57-.95.07-1.871.547.41.773.976.832 1.625.05.633.074 1.265.113 1.925 1.02.223 1.93.012 2.723-.617.187-.152.312-.433.375-.68.3-1.183.101-2.359-.117-3.527-.102-.55-.254-1.093-.375-1.644-.082-.383-.164-.746-.543-.977-.09-.05-.118-.293-.094-.433.066-.375.176-.747.281-1.188.516.23 1.012.445 1.496.684.075.035.13.195.13.297.003.445 0 .886-.423 1.203-.09.066-.066.32-.043.484.141 1.086.317 2.168.434 3.254.059.523.012 1.062.012 1.676.527-.27 1.015-.524 1.504-.774.734-.375 1.5-.633 2.34-.597 1.03.047 1.683.64 1.812 1.66.012.101.031.207.043.308.113.899.113.899 1.043.899h1.582c-.067-.594-.113-1.125-.192-1.649-.226-1.597-.464-3.195-.703-4.793-.015-.101-.015-.246-.078-.289-.64-.441-.27-1.011-.199-1.53.023-.173.11-.337.14-.43M127.453 31.61c.57.46.79 1.042.867 1.667.075.618.07 1.243.106 1.895h3.375c.129-.73-.051-1.383-.543-1.918-.324-.348-.344-.652-.11-1.031.122-.196.215-.407.336-.641 1.07 1.016.918 2.316.965 3.59h2.559c-.113-.957-.219-1.895-.344-2.832-.156-1.16-.332-2.317-.516-3.473a1.2 1.2 0 0 0-.238-.543.99.99 0 0 1-.176-.957c.106-.351.188-.71.313-1.199.223.625.617.871 1.113 1.023.133.043.305.293.285.426-.05.383-.199.75-.293 1.13-.05.206-.125.425-.097.628.168 1.277.37 2.547.535 3.828.12.953.191 1.914.305 2.871.05.434-.114.559-.54.559-3.41-.016-6.82.008-10.234-.024-.598-.004-.926.188-1.137.743-.226.586-.73.941-1.3 1.14-1.551.54-3.133.613-4.707.09-.836-.281-1.336-1.023-1.375-1.937-.047-1.157.421-2.168.863-3.184.164-.379.36-.746.539-1.117q.082.041.168.078c-.043.11-.074.223-.125.324a7.2 7.2 0 0 0-.813 2.66c-.097.95.25 1.524 1.164 1.836 1.754.594 3.391.285 4.918-.699.493-.316.45-.832.383-1.324-.144-1.09-.308-2.172-.457-3.258-.14-1.012-.262-2.027-.406-3.04-.027-.198-.078-.444-.215-.566-.32-.293-.285-.613-.187-.968.09-.325.175-.649.273-1.008.496.332.961.59 1.363.918.383.316.14.754.07 1.125-.035.18-.253.32-.39.476a2 2 0 0 1-.148-.05c.101.73.21 1.457.3 2.187q.23 1.83.418 3.664c.04.36.184.535.559.535.832 0 1.66.008 2.492.04.367.015.457-.141.445-.473-.02-.57-.168-1.098-.558-1.508-.363-.375-.418-.715-.098-1.133.117-.144.18-.332.293-.55M72.262 50.125c-.051 2.938-.098 5.773-.149 8.664-.492-.031-.93-.062-1.437-.098l.59-11.593c2.87 2.988 5.671 5.898 8.468 8.808q.07-.016.141-.039v-8.23c.547.039.992.074 1.469.11l-.438 11.245c-2.902-2.98-5.73-5.879-8.644-8.867" style="stroke:none;fill-rule:nonzero;fill:#27468d;fill-opacity:1"/><g clip-path="url(#a)"><path d="M132.21 47.75c1.692.066 3.356-.043 4.942.61 1.63.671 1.84 2.308 1.004 3.519-.426.621-1.02 1.129-1.61 1.766l3.528 4.363c-.383.308-.746.601-1.16.937-1.394-1.832-2.77-3.633-4.074-5.34.648-.601 1.293-1.117 1.832-1.726.558-.629.605-1.649.125-2.129a3 3 0 0 0-1.16-.695c-.516-.164-1.075-.176-1.617-.262-.317-.05-.407.082-.407.39.02 2.063.024 4.122.028 6.184.004 1.094 0 2.184 0 3.309h-1.43z" style="stroke:none;fill-rule:nonzero;fill:#27468d;fill-opacity:1"/></g><path d="M117.383 49.766c-.047-.004-.098-.004-.145-.008-.683 1.422-1.37 2.844-2.101 4.355 1.527-.074 2.937-.144 4.426-.218-.754-1.426-1.465-2.778-2.18-4.13m.047-2.536c2 3.602 4.004 7.204 6.035 10.86-.403.265-.813.539-1.278.847l-1.058-1.992c-.324-.613-.637-1.238-.98-1.84a.44.44 0 0 0-.344-.19c-1.586.05-3.168.128-4.754.175-.356.012-.528.16-.66.469-.493 1.136-1 2.265-1.52 3.441-.433-.281-.824-.531-1.258-.812 1.895-3.665 3.782-7.305 5.664-10.95q.077-.007.153-.008M101.41 52.75q1.428-.083 2.961-.164v1.176h-3.027c-.012.125-.031.27-.031.41-.004.976.011 1.957-.008 2.933-.008.344.086.473.449.461 1.02-.03 2.043-.027 3.066-.035.07-.004.14.008.254.02v1.183h-5.156V47.758c.883-.047 1.762-.102 2.644-.145.626-.027 1.247-.023 1.868-.058.308-.02.437.086.418.398-.016.23-.004.465-.004.781-.555 0-1.11-.004-1.668.004-.504.004-1.008 0-1.512.04-.121.011-.332.175-.336.273-.016 1.183 0 2.367.008 3.554 0 .028.023.051.074.145M96.715 57.566c0 .332.015.684-.012 1.036-.008.078-.172.21-.258.21-1.629-.027-3.257-.07-4.898-.109V47.797h1.531v.539c-.027 2.934-.05 5.871-.09 8.805-.004.328.094.441.426.433 1.078-.02 2.16-.008 3.3-.008M72.785 33.785c-.18.55-.39 1.098-.531 1.66-.125.512-.238 1.04-.25 1.567-.024.746.402 1.285 1.082 1.523 1.73.61 3.383.363 4.934-.594.828-.511.988-1.296.8-2.171-.105-.504-.3-.989-.48-1.473-.254-.684-.078-1.543.55-2.145.172.72.407 1.36.465 2.016.086.941.079 1.895.051 2.844-.043 1.62-.832 2.593-2.41 2.965a9 9 0 0 1-3.754.07c-1.328-.246-1.984-1.172-1.887-2.524.086-1.101.489-2.097.903-3.101.097-.242.203-.48.305-.723q.111.04.222.086" style="stroke:none;fill-rule:nonzero;fill:#27468d;fill-opacity:1"/><g clip-path="url(#b)"><g clip-path="url(#c)"><g clip-path="url(#d)"><path d="M33.691 59H63.93V30.727H33.69Zm0 0" style="stroke:none;fill-rule:nonzero;fill:url(#e)"/></g></g></g><path d="M32.941 35.465c-.195.316-.347.57-.527.867-.3-.156-.59-.293-.867-.445q-4.465-2.433-8.93-4.867c-3.351-1.829-6.71-3.649-10.062-5.473-3.707-2.016-7.41-4.031-11.11-6.063-.164-.093-.332-.308-.363-.492-.312-1.703-.594-3.41-.887-5.117q-.094-.54-.195-1.078l.105-.082c10.93 7.57 21.864 15.144 32.836 22.75M11.086 0c1.207 1.46 2.363 2.863 3.523 4.266 3.106 3.75 6.22 7.5 9.325 11.25 3.515 4.246 7.02 8.492 10.53 12.738.708.855 1.4 1.723 2.126 2.566.25.29.262.496-.055.711q-.166.118-.312.254c-.157.149-.278.156-.442-.02a2151 2151 0 0 0-6.5-6.812c-2.031-2.117-4.07-4.226-6.097-6.344-2.504-2.605-4.997-5.222-7.497-7.832-1.652-1.722-3.304-3.437-4.953-5.156-.359-.375-.734-.734-1.058-1.137-.106-.125-.14-.39-.086-.546.473-1.29.973-2.575 1.496-3.938M8.492 8.129c8.79 8.39 17.516 16.723 26.219 25.031-.012.074-.008.094-.016.106-.558.843-.55.832-1.37.203-2.942-2.246-5.891-4.48-8.837-6.727-3.437-2.62-6.875-5.25-10.312-7.875-1.73-1.32-3.469-2.633-5.192-3.96-.148-.114-.308-.317-.312-.485-.086-1.996-.145-4-.207-6 0-.07.012-.14.027-.293M.422 31.297c1.734.48 3.371.93 5.012 1.383q2.97.826 5.941 1.66c2.223.62 4.445 1.254 6.668 1.87 1.953.544 3.91 1.071 5.863 1.614 1.883.524 3.762 1.059 5.64 1.586l.817.219c.285.078.383.242.285.531-.07.211-.117.426-.191.692-.7-.094-1.398-.184-2.098-.278-2.347-.316-4.695-.625-7.039-.945-2.433-.336-4.867-.684-7.3-1.016-1.688-.23-3.375-.445-5.063-.675-1.773-.239-3.547-.493-5.32-.739-.102-.015-.207-.054-.305-.043-.758.086-1.074-.304-1.285-.996-.457-1.48-1.004-2.937-1.508-4.406-.043-.121-.066-.25-.117-.457M31.723 37.48c-.207.782-.235.797-.891.59-3.234-1.015-6.469-2.027-9.695-3.05-3.121-.989-6.23-1.993-9.348-2.985-1.695-.535-3.394-1.05-5.086-1.594-.144-.046-.351-.23-.351-.351.023-1.48.082-2.957.132-4.574zM22.152 3.637c5.856 8.633 11.637 17.156 17.45 25.718l-1.098.758-2.008-2.562c-2.043-2.594-4.09-5.192-6.125-7.79-2.66-3.394-5.308-6.788-7.965-10.183-.457-.582-.933-1.152-1.367-1.75-.117-.16-.21-.433-.152-.601.383-1.165.808-2.313 1.265-3.59M27.965.672l14.098 27.41c-.348.2-.672.383-1.051.598-.492-.809-.965-1.586-1.442-2.367-1.605-2.645-3.215-5.286-4.816-7.93-2.152-3.543-4.297-7.09-6.445-10.633-.598-.988-1.188-1.98-1.79-2.965-.152-.242-.195-.445-.066-.73.504-1.082.977-2.184 1.512-3.383M4.934 43.25c.027-.297.046-.559.082-.816.086-.676.183-1.348.265-2.024.043-.336.153-.457.543-.418 1.797.192 3.598.324 5.395.496 2.105.207 4.207.438 6.312.649 1.813.175 3.625.328 5.438.508 2.191.214 4.383.464 6.578.664.473.043.394.32.41.613.023.355-.191.367-.453.367q-12.073-.005-24.145-.004c-.129 0-.257-.02-.425-.035M43.313 3.426l.585 3.265c.348 1.918.707 3.84 1.051 5.762.45 2.52.887 5.043 1.336 7.563.383 2.152.77 4.308 1.176 6.46.066.368.012.512-.39.524-.915.023-.907.035-1.15-.887-.901-3.433-1.82-6.863-2.718-10.297-.644-2.464-1.195-4.953-1.933-7.386-.352-1.149-.25-2.02.523-2.922.547-.633.941-1.395 1.402-2.098q.06.011.117.016M38.238 6.16c.434 1.406.84 2.719 1.239 4.028q.979 3.205 1.953 6.406c.527 1.742 1.043 3.488 1.566 5.226.52 1.715 1.024 3.43 1.566 5.133.114.352.024.434-.285.516-.918.254-.906.246-1.246-.621-.894-2.285-1.816-4.559-2.726-6.84-.848-2.13-1.688-4.262-2.532-6.395-.41-1.031-.832-2.058-1.222-3.093a.85.85 0 0 1 .004-.575c.535-1.234 1.09-2.457 1.683-3.785M55.516 28.027c-1.336-.398-1.118-.18-.938-1.39.266-1.828.527-3.66.8-5.489.352-2.37.708-4.738 1.087-7.105.023-.156.219-.348.379-.406.828-.32 1.668-.602 2.625-.938-1.332 5.168-2.64 10.25-3.953 15.328M49.809 10.52c0 1.437-.02 2.875.004 4.308.058 3.516.136 7.027.207 10.543.007.356.02.711.05 1.067.028.289-.082.417-.375.386-.074-.008-.148 0-.222 0-.606 0-.61 0-.664-.605-.211-2.27-.414-4.543-.63-6.813q-.3-3.07-.617-6.14c-.046-.438.02-.79.38-1.106.593-.527 1.14-1.117 1.703-1.68.054.012.109.028.164.04M54.086 10.594c-.035.676-.059 1.351-.106 2.027-.074 1.211-.164 2.418-.246 3.629q-.248 3.678-.496 7.352c-.07 1.062-.144 2.128-.191 3.191-.016.363-.188.398-.488.355-.75-.113-.754-.105-.75-.875.03-4.402.066-8.8.09-13.203 0-.34.109-.578.351-.812.582-.563 1.14-1.156 1.707-1.735zM63.234 17.422c-1.824 3.941-3.593 7.773-5.379 11.637-.289-.13-.542-.215-.757-.36-.094-.062-.18-.277-.145-.383.863-2.53 1.746-5.054 2.621-7.582.336-.98.676-1.957.989-2.941.124-.39.285-.613.746-.547.597.086 1.203.113 1.925.176M59.89 30.285c-.902-.402-.91-.406-.48-1.191 1.219-2.223 2.442-4.434 3.664-6.653.348-.632.688-1.273 1.082-2 .34.793.656 1.5.938 2.22.047.12-.016.331-.098.448-1.64 2.336-3.293 4.664-4.941 6.993-.043.058-.098.109-.164.183" style="stroke:none;fill-rule:nonzero;fill:#a9995f;fill-opacity:1"/><path d="M86.918 58.676h-1.45V47.789h1.45zM127.547 47.79v10.886h-1.438V47.789zM81.512 27.066c.218 2.446.453 4.895.644 7.34a3.24 3.24 0 0 1-.683 2.305c-.075-.777-.149-1.457-.211-2.137-.16-1.726-.285-3.453-.48-5.176-.09-.785-.024-1.5.406-2.168.042-.07.105-.125.16-.187zM137.832 26.965c.074.61.152 1.129.2 1.652.179 1.961.335 3.918.515 5.88.082.874-.23 1.608-.785 2.37-.035-.183-.07-.277-.067-.367.078-2.305-.25-4.578-.496-6.855-.094-.844-.199-1.688.399-2.418.05-.063.109-.122.234-.262M94.316 39.41c-.433-.222-.824-.422-1.28-.66.163-.324.32-.648.495-.96.035-.06.192-.11.254-.083.324.14.645.293.945.473.07.043.11.242.07.328-.136.304-.312.59-.484.902M128.363 38.281c-.226.403-.422.746-.633 1.125l-1.285-.664c.2-.379.38-.726.586-1.129.442.223.86.43 1.332.668M131.184 30.355c-.461-.25-.871-.468-1.293-.695.207-.398.39-.746.597-1.137.422.227.832.442 1.27.672-.192.387-.367.739-.574 1.16M93.074 39.008l-.613 1.148c-.375-.199-.73-.367-1.063-.574-.07-.043-.097-.258-.058-.363.113-.285.265-.555.426-.871zM126.473 39.035c-.192.375-.368.723-.57 1.125-.387-.2-.743-.37-1.075-.574-.07-.043-.121-.23-.09-.32.32-.942.434-.98 1.278-.489.136.082.273.157.457.258M75.18 29.816l1.265.668c-.207.391-.394.735-.593 1.11-.352-.188-.684-.34-.985-.543-.086-.055-.14-.274-.101-.38.093-.273.25-.526.414-.855" style="stroke:none;fill-rule:nonzero;fill:#27468d;fill-opacity:1"/></svg>