<?xml version="1.0" encoding="UTF-8"?>
<svg xmlns="http://www.w3.org/2000/svg" xmlns:xlink="http://www.w3.org/1999/xlink" width="169.24pt" height="59pt" viewBox="0 0 169.24 59" version="1.1">
<defs>
<clipPath id="clip1">
  <path d="M 150 15 L 169.238281 15 L 169.238281 30 L 150 30 Z M 150 15 "/>
</clipPath>
</defs>
<g id="surface1">
<path style=" stroke:none;fill-rule:nonzero;fill:rgb(18.707275%,41.427612%,71.939087%);fill-opacity:1;" d="M 48.070312 6.609375 C 50.878906 8.832031 53.15625 11.523438 55.089844 14.519531 C 56.839844 17.78125 58.089844 21.222656 58.835938 24.84375 C 58.945312 26.273438 59.160156 27.707031 59.140625 29.132812 C 59.058594 35.910156 57.117188 42.046875 52.929688 47.46875 C 48.113281 53.703125 41.726562 57.359375 34.09375 58.605469 C 26.277344 59.878906 18.980469 58.054688 12.476562 53.46875 C 9.195312 51.15625 6.457031 48.261719 4.347656 44.816406 C 3.976562 44.207031 3.710938 43.527344 3.53125 42.75 C 7.699219 48.84375 13.210938 52.300781 21.203125 52.050781 C 20.015625 51.679688 19.257812 51.445312 18.5 51.210938 C 18.519531 51.121094 18.539062 51.03125 18.558594 50.945312 C 19.707031 51.03125 20.855469 51.210938 21.996094 51.175781 C 23.082031 51.136719 24.160156 50.871094 25.269531 50.582031 C 24.148438 50.507812 23.027344 50.433594 21.90625 50.359375 C 21.90625 50.296875 21.90625 50.230469 21.910156 50.167969 C 24.1875 49.859375 26.464844 49.550781 28.742188 49.238281 C 27.03125 48.542969 25.132812 49.285156 23.414062 48.035156 C 26.625 47.976562 29.730469 48.136719 32.851562 46.351562 C 30.222656 46.507812 27.914062 47.242188 25.65625 46.128906 C 29.183594 45.917969 32.625 45.417969 35.765625 43.617188 C 32.921875 43.722656 30.128906 44.738281 27.246094 44.035156 C 31.613281 43.441406 35.894531 42.617188 39.558594 39.917969 C 36.078125 40.851562 32.558594 41.515625 28.9375 41.65625 C 33.851562 40.285156 38.453125 38.328125 42.324219 34.804688 C 41.128906 35.257812 39.941406 35.742188 38.730469 36.148438 C 37.367188 36.605469 35.992188 37.039062 34.601562 37.386719 C 33.296875 37.710938 31.960938 37.910156 30.574219 37.980469 C 37.476562 35.167969 43.253906 30.996094 47.484375 24.796875 C 42.765625 28.226562 37.964844 31.472656 32.0625 32.554688 C 36.371094 29.800781 40.46875 26.804688 43.824219 22.945312 C 45.65625 20.835938 47.230469 18.5 48.78125 16.117188 C 43.4375 20.289062 38.46875 24.992188 31.597656 26.652344 C 32.289062 26.121094 32.949219 25.554688 33.667969 25.070312 C 39.824219 20.921875 44.050781 15.164062 47.4375 8.691406 C 47.558594 8.460938 47.566406 8.167969 47.628906 7.90625 C 47.777344 7.472656 47.921875 7.039062 48.070312 6.609375 "/>
<path style=" stroke:none;fill-rule:nonzero;fill:rgb(26.704407%,25.370789%,25.701904%);fill-opacity:1;" d="M 81.460938 30.324219 C 80.464844 31.144531 79.03125 31.648438 78.910156 33.578125 C 80.632812 32.96875 80.960938 31.574219 81.460938 30.324219 Z M 75.886719 31.996094 C 76.761719 30.261719 78.015625 29 79.867188 28.199219 C 81.121094 27.660156 82.164062 26.640625 83.320312 25.816406 C 82.941406 24.960938 82.667969 24.351562 82.398438 23.742188 C 82.535156 23.582031 82.671875 23.421875 82.808594 23.265625 C 84.238281 23.269531 85.753906 23.03125 86.367188 24.894531 C 86.460938 25.171875 86.933594 25.445312 87.265625 25.5 C 88.277344 25.65625 89.355469 25.839844 89.707031 26.875 C 90.113281 28.066406 90.519531 29.402344 90.375 30.609375 C 89.917969 34.523438 86.257812 37.605469 82.351562 38.023438 C 80.3125 38.242188 78.480469 37.472656 76.53125 37.375 C 76.289062 37.363281 76.074219 36.84375 75.84375 36.5625 C 76.867188 35.761719 77.976562 36.3125 79.0625 36.324219 C 79.847656 36.332031 80.632812 36.183594 81.414062 36.109375 C 82.488281 35.816406 83.820312 35.828125 84.582031 35.171875 C 86.542969 33.488281 87.351562 31.109375 87.53125 28.554688 C 87.550781 28.277344 87.207031 27.816406 86.933594 27.71875 C 86.664062 27.621094 86.148438 27.78125 85.957031 28.011719 C 85.691406 28.324219 85.601562 28.800781 85.484375 29.222656 C 84.980469 31.03125 84.0625 32.542969 82.476562 33.609375 C 81.664062 34.152344 80.859375 34.710938 80.050781 35.261719 C 76.769531 36.191406 75.929688 35.578125 75.898438 32.222656 C 75.898438 32.148438 75.890625 32.074219 75.886719 31.996094 "/>
<path style=" stroke:none;fill-rule:nonzero;fill:rgb(26.873779%,25.543213%,25.872803%);fill-opacity:1;" d="M 127.566406 25.40625 C 128.09375 24.308594 128.796875 23.578125 128.164062 22.550781 C 126.292969 22.84375 126.164062 23.289062 127.566406 25.40625 Z M 124.023438 31.171875 C 123.234375 31.777344 123.234375 31.777344 123.71875 37.355469 C 123.367188 37.355469 122.886719 37.496094 122.722656 37.328125 C 122.265625 36.859375 121.808594 36.304688 121.609375 35.699219 C 121.429688 35.15625 121.527344 34.492188 121.617188 33.894531 C 121.773438 32.828125 121.515625 31.996094 120.371094 31.558594 C 122.25 28.777344 122.3125 25.628906 122.964844 22.644531 C 123.117188 21.953125 123.414062 21.292969 123.71875 20.398438 C 124.492188 20.867188 124.988281 21.171875 125.570312 21.523438 C 127.324219 21.015625 128.660156 18.996094 130.925781 19.730469 C 131.753906 21.140625 131.542969 22.480469 130.6875 23.769531 C 130.03125 24.761719 129.585938 25.742188 130.136719 26.957031 C 130.257812 27.226562 130.109375 27.703125 129.941406 28.003906 C 128.484375 30.609375 128.035156 33.328125 128.863281 36.226562 C 128.925781 36.4375 128.910156 36.679688 128.894531 36.902344 C 128.882812 37.046875 128.796875 37.183594 128.746094 37.320312 C 126.125 36.171875 124.417969 33.953125 124.023438 31.171875 "/>
<path style=" stroke:none;fill-rule:nonzero;fill:rgb(26.873779%,25.543213%,25.872803%);fill-opacity:1;" d="M 74.679688 36.121094 C 74.175781 36.421875 73.703125 36.859375 73.15625 36.992188 C 72.210938 37.226562 71.625 36.765625 71.273438 35.816406 C 70.1875 32.882812 70.097656 29.828125 70.675781 26.84375 C 71.382812 23.222656 71.535156 19.640625 71.136719 15.992188 C 70.945312 14.253906 71.832031 13.628906 74.136719 13.792969 C 74.898438 14.503906 75.054688 15.429688 75.054688 16.449219 C 75.066406 19.867188 74.949219 23.257812 74.292969 26.644531 C 73.929688 28.523438 73.730469 30.554688 74.578125 32.449219 C 74.609375 33.671875 74.644531 34.898438 74.679688 36.121094 "/>
<g clip-path="url(#clip1)" clip-rule="nonzero">
<path style=" stroke:none;fill-rule:nonzero;fill:rgb(26.535034%,25.198364%,25.52948%);fill-opacity:1;" d="M 169.238281 16.855469 C 167.109375 19.851562 164.449219 21.554688 160.578125 20.898438 C 160.578125 22.027344 160.40625 22.949219 160.621094 23.773438 C 160.882812 24.777344 160.757812 25.578125 160.066406 26.277344 C 159.289062 27.054688 158.367188 27.128906 157.269531 26.617188 C 158.136719 25.257812 158.980469 23.9375 159.800781 22.65625 C 159.015625 20.054688 158.4375 19.738281 156.144531 20.605469 C 155.59375 22.78125 155.078125 24.96875 154.476562 27.128906 C 154.277344 27.84375 153.902344 28.527344 153.511719 29.167969 C 152.972656 30.042969 152.085938 29.921875 151.265625 29.734375 C 150.441406 29.546875 150.316406 28.851562 150.269531 28.136719 C 150.203125 27.148438 150.496094 26.203125 151.386719 25.820312 C 152.953125 25.148438 153.390625 23.90625 153.601562 22.417969 C 153.695312 21.746094 153.9375 21.097656 154.070312 20.59375 C 155.09375 19.992188 155.996094 19.476562 156.886719 18.941406 C 157.664062 18.472656 158.375 17.800781 159.210938 17.546875 C 160.5 17.15625 161.410156 16.574219 161.429688 15.1875 C 161.738281 15.140625 161.949219 15.042969 162.011719 15.101562 C 163.25 16.28125 164.601562 16.695312 166.320312 16.175781 C 167.277344 15.882812 168.40625 15.863281 169.238281 16.855469 "/>
</g>
<path style=" stroke:none;fill-rule:nonzero;fill:rgb(26.873779%,25.543213%,25.872803%);fill-opacity:1;" d="M 103.710938 35.433594 C 101.859375 35.652344 101.859375 35.652344 100.839844 33.492188 C 100.527344 34.050781 100.304688 34.574219 99.972656 35.015625 C 99.453125 35.703125 98.800781 36.210938 97.851562 35.867188 C 96.832031 35.503906 96.496094 34.917969 96.542969 33.757812 C 96.609375 32.257812 96.539062 30.738281 96.726562 29.253906 C 96.84375 28.324219 97.320312 27.4375 97.671875 26.429688 C 99.628906 26.796875 99.621094 28.679688 100.636719 29.972656 C 100.800781 26.136719 100.957031 22.460938 101.113281 18.839844 C 102.054688 18.492188 102.722656 18.589844 103.148438 19.199219 C 103.476562 19.667969 103.808594 20.289062 103.785156 20.828125 C 103.59375 25.355469 103.796875 29.878906 103.90625 34.40625 C 103.910156 34.699219 103.796875 34.996094 103.710938 35.433594 "/>
<path style=" stroke:none;fill-rule:nonzero;fill:rgb(26.367188%,25.02594%,25.358582%);fill-opacity:1;" d="M 133.914062 23.445312 C 134.53125 23.007812 135.191406 22.617188 135.757812 22.121094 C 136.304688 21.644531 136.804688 21.195312 137.546875 21.683594 C 138.21875 22.128906 138.566406 23.257812 138.257812 24.082031 C 137.679688 25.640625 137.0625 27.1875 136.464844 28.738281 C 136.273438 29.230469 136.085938 29.722656 135.929688 30.136719 C 137.109375 30.828125 138.265625 31.507812 139.664062 32.332031 C 140.949219 29.929688 142.324219 27.371094 143.695312 24.8125 C 143.746094 27.988281 143.417969 31.070312 142.167969 33.984375 C 141.964844 34.464844 141.664062 34.929688 141.316406 35.320312 C 140.253906 36.519531 139.339844 36.457031 138.417969 35.121094 C 137.949219 34.4375 137.59375 33.679688 137.136719 32.984375 C 136.785156 32.453125 136.363281 31.972656 135.859375 31.320312 C 134.757812 32.585938 133.832031 33.648438 132.871094 34.75 C 131.765625 33.878906 131.996094 32.953125 132.394531 32.027344 C 133.195312 30.160156 134.019531 28.300781 134.867188 26.355469 C 134.085938 25.988281 132.984375 25.96875 133.003906 24.75 C 133.308594 24.316406 133.609375 23.878906 133.914062 23.445312 "/>
<path style=" stroke:none;fill-rule:nonzero;fill:rgb(26.704407%,25.370789%,25.701904%);fill-opacity:1;" d="M 110.265625 32.648438 C 111.804688 31.761719 113.410156 30.832031 115.148438 29.828125 C 115.320312 30.195312 115.746094 30.6875 115.632812 30.925781 C 115.222656 31.785156 114.804688 32.8125 114.074219 33.308594 C 112.714844 34.234375 111.167969 34.90625 109.640625 35.539062 C 108.386719 36.058594 106.632812 34.867188 106.519531 33.519531 C 106.457031 32.765625 106.441406 31.996094 106.515625 31.246094 C 106.945312 26.898438 106.90625 22.464844 108.773438 18.367188 C 108.929688 18.03125 108.984375 17.589844 109.234375 17.371094 C 109.539062 17.105469 110.0625 16.824219 110.382812 16.914062 C 110.695312 17.003906 110.941406 17.53125 111.085938 17.917969 C 111.183594 18.171875 111.078125 18.515625 111.03125 18.8125 C 110.464844 22.3125 109.832031 25.804688 109.363281 29.316406 C 109.226562 30.355469 108.882812 31.609375 110.265625 32.648438 "/>
<path style=" stroke:none;fill-rule:nonzero;fill:rgb(26.704407%,25.370789%,25.701904%);fill-opacity:1;" d="M 82.808594 23.265625 C 82.671875 23.421875 82.535156 23.582031 82.398438 23.742188 C 81.75 24.09375 81.097656 24.4375 80.453125 24.789062 C 78.589844 25.8125 77.578125 25.460938 76.484375 23.320312 C 77.21875 22.179688 77.984375 20.996094 78.835938 19.671875 C 79.285156 20.207031 79.597656 20.578125 79.9375 20.980469 C 80.125 20.878906 80.34375 20.796875 80.507812 20.660156 C 82.363281 19.101562 84.175781 17.488281 86.078125 15.996094 C 86.828125 15.40625 87.75 14.972656 88.660156 14.675781 C 89.007812 14.5625 89.753906 14.925781 89.933594 15.273438 C 90.089844 15.570312 89.832031 16.28125 89.53125 16.589844 C 87.324219 18.84375 85.054688 21.046875 82.808594 23.265625 "/>
<path style=" stroke:none;fill-rule:nonzero;fill:rgb(26.535034%,25.198364%,25.52948%);fill-opacity:1;" d="M 159.296875 30.976562 C 161.535156 28.671875 164.292969 28.425781 165.878906 30.265625 C 165.515625 30.664062 165.152344 31.101562 164.746094 31.496094 C 163.878906 32.339844 163.921875 32.808594 164.949219 33.292969 C 165.015625 33.324219 165.105469 33.300781 165.171875 33.332031 C 166.601562 33.980469 166.992188 34.472656 166.839844 35.40625 C 166.675781 36.40625 165.832031 37.082031 164.457031 37.011719 C 162.765625 36.925781 161.089844 36.621094 159.535156 36.011719 C 159.632812 34.855469 160.183594 34.3125 160.953125 33.886719 C 161.875 33.375 162.390625 32.613281 162.226562 31.4375 C 161.308594 31.292969 160.460938 31.160156 159.296875 30.976562 "/>
<path style=" stroke:none;fill-rule:nonzero;fill:rgb(26.704407%,25.370789%,25.701904%);fill-opacity:1;" d="M 133.914062 23.445312 C 133.609375 23.878906 133.308594 24.316406 133.003906 24.75 C 132.390625 23.996094 132.621094 23.203125 132.855469 22.382812 C 133.183594 21.222656 133.449219 20.046875 133.765625 18.789062 C 133.289062 18.542969 132.851562 18.316406 132.351562 18.0625 C 132.941406 17.390625 133.441406 16.714844 134.046875 16.148438 C 135.425781 14.863281 136.074219 15.003906 137.257812 16.910156 C 136.78125 17.566406 136.238281 18.273438 135.742188 19.015625 C 135.027344 20.085938 134.300781 21.15625 133.6875 22.28125 C 133.542969 22.550781 133.828125 23.050781 133.914062 23.445312 "/>
<path style=" stroke:none;fill-rule:nonzero;fill:rgb(26.535034%,25.198364%,25.52948%);fill-opacity:1;" d="M 110.71875 26.003906 C 111.789062 25.683594 112.339844 25.429688 112.910156 25.375 C 113.390625 25.332031 113.945312 25.410156 114.375 25.625 C 115.257812 26.070312 115.585938 27.039062 115.179688 27.660156 C 114.714844 28.371094 113.800781 28.597656 113.011719 28.046875 C 112.296875 27.554688 111.699219 26.894531 110.71875 26.003906 "/>
<path style=" stroke:none;fill-rule:nonzero;fill:rgb(26.535034%,25.198364%,25.52948%);fill-opacity:1;" d="M 164.148438 23.125 C 165.246094 23.285156 166.242188 23.570312 166.386719 25.203125 C 165.253906 25.53125 164.15625 25.851562 162.699219 26.277344 C 163.09375 24.949219 162.972656 23.824219 164.148438 23.125 "/>
<path style=" stroke:none;fill-rule:nonzero;fill:rgb(24.513245%,23.139954%,23.480225%);fill-opacity:1;" d="M 129.742188 17.179688 C 128.652344 17.789062 127.609375 18.261719 126.300781 17.300781 C 126.695312 16.777344 126.972656 16.246094 127.398438 15.894531 C 127.816406 15.546875 128.429688 15.117188 128.882812 15.191406 C 129.769531 15.332031 129.953125 16.117188 129.742188 17.179688 "/>
<path style=" stroke:none;fill-rule:nonzero;fill:rgb(90.39917%,16.886902%,15.586853%);fill-opacity:1;" d="M 48.070312 6.609375 C 47.921875 7.039062 47.777344 7.472656 47.628906 7.90625 C 46.683594 8.796875 45.703125 9.65625 44.796875 10.582031 C 42.296875 13.148438 39.589844 15.457031 36.691406 17.570312 C 32.976562 20.28125 28.859375 22.050781 24.441406 23.246094 C 21.933594 23.925781 19.464844 24.773438 17.039062 25.707031 C 15.347656 26.355469 13.925781 27.488281 13.09375 29.171875 C 11.511719 32.371094 12.121094 35.042969 14.554688 36.898438 C 15.195312 37.386719 15.902344 37.898438 16.933594 37.449219 C 15.988281 36.589844 15.679688 35.527344 15.777344 34.316406 C 15.933594 32.429688 17.734375 31.105469 19.585938 31.527344 C 21.441406 31.953125 23.042969 33.609375 23.242188 35.550781 C 23.605469 39.136719 22.535156 42.285156 19.664062 44.519531 C 16.695312 46.832031 13.347656 47.355469 9.777344 45.84375 C 4.65625 43.671875 1.761719 39.570312 0.621094 34.394531 C -0.964844 27.179688 0.554688 20.34375 4.40625 14.085938 C 8.800781 6.941406 15.167969 2.398438 23.367188 0.703125 C 32.464844 -1.179688 40.777344 0.703125 48.070312 6.609375 "/>
<path style=" stroke:none;fill-rule:nonzero;fill:rgb(6.266785%,5.734253%,5.047607%);fill-opacity:1;" d="M 84.644531 46.382812 L 84.644531 48.40625 L 87.472656 48.40625 L 87.472656 46.382812 L 88.234375 46.382812 L 88.234375 51.222656 L 87.472656 51.222656 L 87.472656 48.953125 L 84.644531 48.953125 L 84.644531 51.222656 L 83.890625 51.222656 L 83.890625 46.382812 L 84.644531 46.382812 "/>
<path style=" stroke:none;fill-rule:nonzero;fill:rgb(6.266785%,5.734253%,5.047607%);fill-opacity:1;" d="M 94.304688 48.953125 L 92.035156 48.953125 L 92.035156 50.699219 L 94.566406 50.699219 L 94.566406 51.222656 L 91.28125 51.222656 L 91.28125 46.382812 L 94.433594 46.382812 L 94.433594 46.90625 L 92.035156 46.90625 L 92.035156 48.4375 L 94.304688 48.4375 L 94.304688 48.953125 "/>
<path style=" stroke:none;fill-rule:nonzero;fill:rgb(6.266785%,5.734253%,5.047607%);fill-opacity:1;" d="M 98.035156 50.75 C 98.183594 50.769531 98.398438 50.777344 98.667969 50.777344 C 99.449219 50.777344 100.167969 50.542969 100.167969 49.835938 C 100.167969 49.175781 99.480469 48.902344 98.660156 48.902344 L 98.035156 48.902344 Z M 98.035156 48.429688 L 98.71875 48.429688 C 99.515625 48.429688 99.984375 48.085938 99.984375 47.617188 C 99.984375 47.050781 99.464844 46.828125 98.703125 46.828125 C 98.355469 46.828125 98.15625 46.847656 98.035156 46.871094 Z M 97.28125 46.445312 C 97.609375 46.386719 98.128906 46.34375 98.660156 46.34375 C 99.414062 46.34375 99.898438 46.453125 100.261719 46.699219 C 100.566406 46.882812 100.746094 47.171875 100.746094 47.550781 C 100.746094 48.019531 100.375 48.429688 99.761719 48.617188 L 99.761719 48.628906 C 100.316406 48.746094 100.964844 49.125 100.964844 49.84375 C 100.964844 50.261719 100.765625 50.578125 100.472656 50.8125 C 100.0625 51.125 99.40625 51.265625 98.449219 51.265625 C 97.929688 51.265625 97.53125 51.238281 97.28125 51.210938 L 97.28125 46.445312 "/>
<path style=" stroke:none;fill-rule:nonzero;fill:rgb(6.266785%,5.734253%,5.047607%);fill-opacity:1;" d="M 106.742188 48.953125 L 104.46875 48.953125 L 104.46875 50.699219 L 107 50.699219 L 107 51.222656 L 103.714844 51.222656 L 103.714844 46.382812 L 106.871094 46.382812 L 106.871094 46.90625 L 104.46875 46.90625 L 104.46875 48.4375 L 106.742188 48.4375 L 106.742188 48.953125 "/>
<path style=" stroke:none;fill-rule:nonzero;fill:rgb(6.266785%,5.734253%,5.047607%);fill-opacity:1;" d="M 110.46875 46.382812 L 110.46875 51.222656 L 109.714844 51.222656 L 109.714844 46.382812 L 110.46875 46.382812 "/>
<path style=" stroke:none;fill-rule:nonzero;fill:rgb(6.266785%,5.734253%,5.047607%);fill-opacity:1;" d="M 119.957031 49.210938 L 119.382812 47.820312 C 119.253906 47.503906 119.164062 47.214844 119.078125 46.933594 L 119.0625 46.933594 C 118.976562 47.222656 118.882812 47.515625 118.769531 47.8125 L 118.195312 49.210938 Z M 118.039062 49.699219 L 117.433594 51.222656 L 116.652344 51.222656 L 118.636719 46.382812 L 119.546875 46.382812 L 121.542969 51.222656 L 120.734375 51.222656 L 120.113281 49.699219 L 118.039062 49.699219 "/>
<path style=" stroke:none;fill-rule:nonzero;fill:rgb(6.266785%,5.734253%,5.047607%);fill-opacity:1;" d="M 124.890625 46.382812 L 124.890625 51.222656 L 124.136719 51.222656 L 124.136719 46.382812 L 124.890625 46.382812 "/>
<path style=" stroke:none;fill-rule:nonzero;fill:rgb(6.266785%,5.734253%,5.047607%);fill-opacity:1;" d="M 128.695312 48.652344 L 129.46875 48.652344 C 130.273438 48.652344 130.785156 48.285156 130.785156 47.730469 C 130.785156 47.105469 130.238281 46.835938 129.441406 46.828125 C 129.078125 46.828125 128.816406 46.855469 128.695312 46.882812 Z M 127.941406 46.445312 C 128.324219 46.382812 128.871094 46.34375 129.390625 46.34375 C 130.195312 46.34375 130.71875 46.46875 131.082031 46.742188 C 131.375 46.957031 131.539062 47.285156 131.539062 47.660156 C 131.539062 48.300781 131.054688 48.722656 130.4375 48.894531 L 130.4375 48.917969 C 130.890625 49.046875 131.160156 49.390625 131.296875 49.894531 C 131.488281 50.570312 131.628906 51.035156 131.75 51.222656 L 130.96875 51.222656 C 130.871094 51.085938 130.742188 50.671875 130.578125 50.066406 C 130.40625 49.398438 130.09375 49.148438 129.40625 49.125 L 128.695312 49.125 L 128.695312 51.222656 L 127.941406 51.222656 L 127.941406 46.445312 "/>
<path style=" stroke:none;fill-rule:nonzero;fill:rgb(6.266785%,5.734253%,5.047607%);fill-opacity:1;" d="M 134.34375 46.382812 L 135.097656 46.382812 L 135.097656 50.699219 L 137.59375 50.699219 L 137.59375 51.222656 L 134.34375 51.222656 L 134.34375 46.382812 "/>
<path style=" stroke:none;fill-rule:nonzero;fill:rgb(6.266785%,5.734253%,5.047607%);fill-opacity:1;" d="M 140.921875 46.382812 L 140.921875 51.222656 L 140.167969 51.222656 L 140.167969 46.382812 L 140.921875 46.382812 "/>
<path style=" stroke:none;fill-rule:nonzero;fill:rgb(6.266785%,5.734253%,5.047607%);fill-opacity:1;" d="M 143.976562 51.222656 L 143.976562 46.382812 L 144.800781 46.382812 L 146.671875 48.832031 C 147.105469 49.398438 147.445312 49.910156 147.722656 50.40625 L 147.738281 50.398438 C 147.667969 49.75 147.652344 49.160156 147.652344 48.40625 L 147.652344 46.382812 L 148.363281 46.382812 L 148.363281 51.222656 L 147.601562 51.222656 L 145.746094 48.765625 C 145.335938 48.226562 144.945312 47.675781 144.652344 47.148438 L 144.625 47.15625 C 144.667969 47.769531 144.6875 48.347656 144.6875 49.15625 L 144.6875 51.222656 L 143.976562 51.222656 "/>
<path style=" stroke:none;fill-rule:nonzero;fill:rgb(6.266785%,5.734253%,5.047607%);fill-opacity:1;" d="M 154.441406 48.953125 L 152.171875 48.953125 L 152.171875 50.699219 L 154.699219 50.699219 L 154.699219 51.222656 L 151.414062 51.222656 L 151.414062 46.382812 L 154.570312 46.382812 L 154.570312 46.90625 L 152.171875 46.90625 L 152.171875 48.4375 L 154.441406 48.4375 L 154.441406 48.953125 "/>
<path style=" stroke:none;fill-rule:nonzero;fill:rgb(6.266785%,5.734253%,5.047607%);fill-opacity:1;" d="M 157.3125 50.460938 C 157.648438 50.632812 158.144531 50.777344 158.664062 50.777344 C 159.4375 50.777344 159.886719 50.441406 159.886719 49.953125 C 159.886719 49.5 159.574219 49.242188 158.785156 48.988281 C 157.832031 48.710938 157.242188 48.300781 157.242188 47.617188 C 157.242188 46.863281 157.996094 46.300781 159.132812 46.300781 C 159.730469 46.300781 160.164062 46.417969 160.425781 46.539062 L 160.214844 47.050781 C 160.027344 46.964844 159.636719 46.820312 159.105469 46.820312 C 158.308594 46.820312 158.007812 47.214844 158.007812 47.546875 C 158.007812 47.996094 158.359375 48.21875 159.167969 48.480469 C 160.15625 48.796875 160.660156 49.191406 160.660156 49.902344 C 160.660156 50.648438 159.992188 51.296875 158.613281 51.296875 C 158.050781 51.296875 157.433594 51.160156 157.121094 50.988281 L 157.3125 50.460938 "/>
</g>
</svg>
