<svg xmlns="http://www.w3.org/2000/svg" width="225.653" height="59pt" viewBox="0 0 169.24 59"><defs><clipPath id="a"><path d="M150 15h19.238v15H150Zm0 0"/></clipPath></defs><path d="M48.07 6.61c2.809 2.222 5.086 4.913 7.02 7.91q2.626 4.892 3.746 10.324c.11 1.43.324 2.863.305 4.289-.082 6.777-2.024 12.914-6.211 18.336-4.817 6.234-11.203 9.89-18.836 11.136-7.817 1.274-15.114-.55-21.617-5.136a29.1 29.1 0 0 1-8.13-8.653c-.37-.609-.636-1.289-.816-2.066 4.168 6.094 9.68 9.55 17.672 9.3a857 857 0 0 0-2.703-.84l.059-.265c1.148.086 2.296.266 3.437.23 1.086-.038 2.164-.304 3.274-.593l-3.364-.223c0-.062 0-.129.004-.191q3.417-.462 6.832-.93c-1.71-.695-3.61.047-5.328-1.203 3.211-.058 6.316.102 9.438-1.683-2.63.156-4.938.89-7.196-.223 3.528-.211 6.969-.711 10.11-2.512-2.844.106-5.637 1.121-8.52.418 4.367-.594 8.649-1.418 12.313-4.117-3.48.934-7 1.598-10.621 1.738 4.914-1.37 9.515-3.328 13.386-6.851-1.195.453-2.383.937-3.594 1.343-1.363.457-2.738.891-4.128 1.239a21 21 0 0 1-4.028.593c6.903-2.812 12.68-6.984 16.91-13.183-4.718 3.43-9.52 6.676-15.422 7.758 4.31-2.754 8.407-5.75 11.762-9.61 1.832-2.11 3.406-4.445 4.957-6.828-5.343 4.172-10.312 8.875-17.183 10.535.691-.53 1.351-1.097 2.07-1.582 6.156-4.148 10.383-9.906 13.77-16.379.12-.23.128-.523.19-.785.15-.433.294-.867.442-1.297" style="stroke:none;fill-rule:nonzero;fill:#306ab7;fill-opacity:1"/><path d="M81.46 30.324c-.995.82-2.429 1.324-2.55 3.254 1.723-.61 2.05-2.004 2.55-3.254m-5.573 1.672c.875-1.734 2.129-2.996 3.98-3.797 1.254-.539 2.297-1.558 3.453-2.383-.379-.855-.652-1.464-.922-2.074q.206-.241.41-.476c1.43.004 2.946-.235 3.56 1.629.093.277.566.55.898.605 1.011.156 2.09.34 2.441 1.375.406 1.191.813 2.527.668 3.734-.457 3.914-4.117 6.996-8.023 7.414-2.04.22-3.872-.55-5.82-.648-.243-.012-.458-.531-.688-.812 1.023-.801 2.133-.25 3.219-.239.785.008 1.57-.14 2.351-.215 1.074-.293 2.406-.28 3.168-.937 1.961-1.684 2.77-4.063 2.95-6.617.019-.278-.325-.739-.598-.836-.27-.098-.786.062-.977.293-.266.312-.355.789-.473 1.21-.504 1.81-1.421 3.321-3.007 4.387-.813.543-1.618 1.102-2.426 1.653-3.281.93-4.121.316-4.153-3.04 0-.074-.007-.148-.011-.226" style="stroke:none;fill-rule:nonzero;fill:#444142;fill-opacity:1"/><path d="M127.566 25.406c.528-1.097 1.23-1.828.598-2.855-1.871.293-2 .738-.598 2.855m-3.543 5.766c-.789.605-.789.605-.304 6.183-.352 0-.832.141-.996-.027-.457-.469-.914-1.023-1.114-1.629-.18-.543-.082-1.207.008-1.804.156-1.067-.101-1.899-1.246-2.336 1.879-2.782 1.942-5.93 2.594-8.914.152-.692.45-1.352.754-2.247.773.47 1.27.774 1.851 1.125 1.754-.507 3.09-2.527 5.356-1.793.828 1.41.617 2.75-.238 4.04-.657.992-1.102 1.972-.551 3.187.12.27-.028.746-.196 1.047-1.457 2.605-1.906 5.324-1.078 8.223.063.21.047.453.032.675-.012.145-.098.282-.149.418-2.621-1.148-4.328-3.367-4.723-6.148M74.68 36.121c-.504.3-.977.738-1.524.871-.945.235-1.531-.226-1.883-1.176-1.085-2.933-1.175-5.988-.597-8.972.707-3.621.86-7.203.46-10.852-.19-1.738.696-2.363 3-2.199.762.71.919 1.637.919 2.656.011 3.418-.106 6.809-.762 10.196-.363 1.878-.563 3.91.285 5.804.031 1.223.067 2.45.102 3.672" style="stroke:none;fill-rule:nonzero;fill:#454142;fill-opacity:1"/><g clip-path="url(#a)"><path d="M169.238 16.855c-2.129 2.997-4.789 4.7-8.66 4.043 0 1.13-.172 2.051.043 2.875.262 1.004.137 1.805-.555 2.504-.777.778-1.699.852-2.796.34q1.3-2.04 2.53-3.96c-.784-2.602-1.363-2.919-3.655-2.052-.551 2.176-1.067 4.364-1.668 6.524-.2.715-.575 1.398-.965 2.039-.54.875-1.426.754-2.246.566-.825-.187-.95-.882-.996-1.597-.067-.989.226-1.934 1.117-2.317 1.566-.672 2.004-1.914 2.215-3.402.093-.672.335-1.32.468-1.824 1.024-.602 1.926-1.117 2.817-1.653.777-.468 1.488-1.14 2.324-1.394 1.289-.39 2.2-.973 2.219-2.36.308-.046.52-.144.582-.085 1.238 1.18 2.59 1.593 4.308 1.074.957-.293 2.086-.313 2.918.68" style="stroke:none;fill-rule:nonzero;fill:#444041;fill-opacity:1"/></g><path d="M103.71 35.434c-1.85.218-1.85.218-2.87-1.942-.313.559-.535 1.082-.867 1.524-.52.687-1.172 1.195-2.121.851-1.02-.363-1.356-.949-1.309-2.11.066-1.5-.004-3.019.184-4.503.117-.93.593-1.817.945-2.824 1.957.367 1.95 2.25 2.965 3.543.164-3.836.32-7.512.476-11.133.942-.348 1.61-.25 2.035.36.329.468.66 1.09.637 1.628-.191 4.527.012 9.05.121 13.578.004.293-.11.59-.195 1.028" style="stroke:none;fill-rule:nonzero;fill:#454142;fill-opacity:1"/><path d="M133.914 23.445c.617-.437 1.277-.828 1.844-1.324.547-.476 1.047-.926 1.789-.437.672.445 1.02 1.574.71 2.398-.577 1.559-1.195 3.105-1.792 4.656-.192.492-.38.985-.535 1.399 1.18.691 2.336 1.37 3.734 2.195 1.285-2.402 2.66-4.96 4.031-7.52.051 3.176-.277 6.258-1.527 9.172-.203.48-.504.946-.852 1.336-1.062 1.2-1.976 1.137-2.898-.199-.469-.684-.824-1.441-1.281-2.137-.352-.53-.774-1.011-1.278-1.664l-2.988 3.43c-1.105-.871-.875-1.797-.476-2.723.8-1.867 1.625-3.726 2.472-5.672-.781-.367-1.883-.386-1.863-1.605.305-.434.605-.871.91-1.305" style="stroke:none;fill-rule:nonzero;fill:#434041;fill-opacity:1"/><path d="M110.266 32.648c1.539-.886 3.144-1.816 4.882-2.82.172.367.598.86.485 1.098-.41.86-.828 1.887-1.559 2.383-1.36.925-2.906 1.597-4.433 2.23-1.254.52-3.008-.672-3.121-2.02a12.6 12.6 0 0 1-.004-2.273c.43-4.348.39-8.781 2.257-12.879.157-.336.211-.777.461-.996.305-.266.829-.547 1.149-.457.312.09.558.617.703 1.004.098.254-.008.598-.055.895-.566 3.5-1.199 6.992-1.668 10.503-.136 1.04-.48 2.293.903 3.332M82.809 23.266l-.41.476c-.649.352-1.301.695-1.946 1.047-1.863 1.023-2.875.672-3.969-1.469.735-1.14 1.5-2.324 2.352-3.648.45.535.762.906 1.102 1.308.187-.101.406-.183.57-.32 1.855-1.558 3.668-3.172 5.57-4.664.75-.59 1.672-1.023 2.582-1.32.348-.114 1.094.25 1.274.597.156.297-.102 1.008-.403 1.317-2.207 2.254-4.476 4.457-6.722 6.676" style="stroke:none;fill-rule:nonzero;fill:#444142;fill-opacity:1"/><path d="M159.297 30.977c2.238-2.305 4.996-2.551 6.582-.711-.363.398-.727.836-1.133 1.23-.867.844-.824 1.313.203 1.797.067.031.156.008.223.039 1.43.648 1.82 1.14 1.668 2.074-.164 1-1.008 1.676-2.383 1.606-1.691-.086-3.367-.39-4.922-1 .098-1.157.649-1.7 1.418-2.125.922-.512 1.438-1.274 1.274-2.45z" style="stroke:none;fill-rule:nonzero;fill:#444041;fill-opacity:1"/><path d="M133.914 23.445c-.305.434-.605.871-.91 1.305-.613-.754-.383-1.547-.149-2.367.329-1.16.594-2.336.91-3.594-.476-.246-.913-.473-1.413-.727.59-.671 1.09-1.347 1.695-1.914 1.379-1.285 2.027-1.144 3.21.762-.476.656-1.019 1.363-1.515 2.106-.715 1.07-1.441 2.14-2.054 3.265-.145.27.14.77.226 1.164" style="stroke:none;fill-rule:nonzero;fill:#444142;fill-opacity:1"/><path d="M110.719 26.004c1.07-.32 1.62-.574 2.191-.629.48-.043 1.035.035 1.465.25.883.445 1.21 1.414.805 2.035-.465.711-1.38.938-2.168.387-.715-.492-1.313-1.152-2.293-2.043M164.148 23.125c1.098.16 2.094.445 2.239 2.078-1.133.328-2.23.649-3.688 1.074.395-1.328.274-2.453 1.45-3.152" style="stroke:none;fill-rule:nonzero;fill:#444041;fill-opacity:1"/><path d="M129.742 17.18c-1.09.61-2.133 1.082-3.441.12.394-.523.672-1.054 1.097-1.405.418-.348 1.032-.778 1.485-.704.887.141 1.07.926.86 1.989" style="stroke:none;fill-rule:nonzero;fill:#3f3b3c;fill-opacity:1"/><path d="M48.07 6.61q-.22.646-.441 1.296c-.945.89-1.926 1.75-2.832 2.676-2.5 2.566-5.207 4.875-8.106 6.988-3.714 2.711-7.832 4.48-12.25 5.676-2.507.68-4.976 1.527-7.402 2.461-1.691.648-3.113 1.781-3.945 3.465-1.582 3.2-.973 5.871 1.46 7.726.641.489 1.348 1 2.38.551-.946-.86-1.254-1.922-1.157-3.133a3.13 3.13 0 0 1 3.809-2.789c1.855.426 3.457 2.082 3.656 4.024.363 3.586-.707 6.734-3.578 8.969-2.969 2.312-6.316 2.835-9.887 1.324-5.12-2.172-8.015-6.274-9.156-11.45-1.586-7.214-.066-14.05 3.785-20.308C8.801 6.94 15.168 2.398 23.367.703c9.098-1.883 17.41 0 24.703 5.906" style="stroke:none;fill-rule:nonzero;fill:#e72b28;fill-opacity:1"/><path d="M84.645 46.383v2.023h2.828v-2.023h.761v4.84h-.761v-2.27h-2.828v2.27h-.754v-4.84zM94.305 48.953h-2.27V50.7h2.531v.524h-3.285v-4.84h3.153v.523h-2.399v1.532h2.27zM98.035 50.75a5 5 0 0 0 .633.027c.781 0 1.5-.234 1.5-.941 0-.66-.688-.934-1.508-.934h-.625Zm0-2.32h.684c.797 0 1.265-.344 1.265-.813 0-.566-.52-.789-1.28-.789-.349 0-.548.02-.669.043Zm-.754-1.985a8.6 8.6 0 0 1 1.38-.101c.753 0 1.237.11 1.6.355a.95.95 0 0 1 .485.852c0 .469-.371.879-.984 1.066v.012c.554.117 1.203.496 1.203 1.215 0 .418-.2.734-.492.968-.41.313-1.067.454-2.024.454-.52 0-.918-.028-1.168-.055zM106.742 48.953h-2.273V50.7H107v.524h-3.285v-4.84h3.156v.523h-2.402v1.532h2.273zM110.469 46.383v4.84h-.754v-4.84zM119.957 49.21l-.574-1.39a10 10 0 0 1-.305-.886h-.016q-.126.434-.292.879l-.575 1.398Zm-1.918.49-.605 1.523h-.782l1.985-4.84h.91l1.996 4.84h-.809l-.62-1.524zM124.89 46.383v4.84h-.753v-4.84zM128.695 48.652h.774c.804 0 1.316-.367 1.316-.922 0-.625-.547-.894-1.344-.902-.363 0-.625.027-.746.055Zm-.754-2.207c.383-.062.93-.101 1.45-.101.804 0 1.328.125 1.691.398.293.215.457.543.457.918 0 .64-.484 1.063-1.101 1.235v.023c.453.129.722.473.859.977.191.675.332 1.14.453 1.328h-.781c-.098-.137-.227-.551-.39-1.157-.173-.668-.485-.918-1.173-.941h-.71v2.098h-.755zM134.344 46.383h.754v4.316h2.496v.524h-3.25zM140.922 46.383v4.84h-.754v-4.84zM143.977 51.223v-4.84h.824l1.87 2.449c.434.566.774 1.078 1.052 1.574l.015-.008a18 18 0 0 1-.086-1.992v-2.023h.711v4.84h-.761l-1.856-2.457c-.41-.54-.8-1.09-1.094-1.618l-.027.008c.043.614.063 1.192.063 2v2.067zM154.441 48.953h-2.27V50.7h2.528v.524h-3.285v-4.84h3.156v.523h-2.398v1.532h2.27zM157.313 50.46c.335.173.832.317 1.351.317.774 0 1.223-.336 1.223-.824 0-.453-.313-.71-1.102-.965-.953-.277-1.543-.687-1.543-1.37 0-.755.754-1.317 1.89-1.317.598 0 1.032.117 1.294.238l-.211.512a2.7 2.7 0 0 0-1.11-.23c-.796 0-1.097.394-1.097.726 0 .45.351.672 1.16.933.988.317 1.492.711 1.492 1.422 0 .746-.668 1.395-2.047 1.395-.562 0-1.18-.137-1.492-.309z" style="stroke:none;fill-rule:nonzero;fill:#100f0d;fill-opacity:1"/></svg>