<svg xmlns="http://www.w3.org/2000/svg" width="176pt" height="61.587" viewBox="0 0 176 46.19"><defs><clipPath id="a"><path d="M114 11h34v35.191h-34Zm0 0"/></clipPath></defs><path d="M26.566 18.363c1.82 0 3.391-.5 4.73-1.492 1.333-.996 1.993-2.492 1.993-4.476 0-1.782-.469-2.997-1.422-3.66-.953-.641-2.234-.981-3.84-.981H17.48l-2.218 10.61Zm-2.875 19.235c2.297 0 4.168-.61 5.633-1.832 1.446-1.227 2.176-3.051 2.176-5.461 0-1.196-.238-2.121-.73-2.801a4.8 4.8 0 0 0-1.868-1.555c-.761-.36-1.605-.578-2.53-.664a33 33 0 0 0-2.74-.125h-9.777L11.18 37.598ZM28.52-.004q3.416 0 6.164.45c1.816.288 3.367.835 4.625 1.609 1.273.785 2.246 1.867 2.933 3.246q1.013 2.075 1.012 5.304c0 1.274-.18 2.512-.563 3.723a10.6 10.6 0 0 1-1.683 3.246 10.2 10.2 0 0 1-2.672 2.38q-1.561.953-3.59 1.21v.121c2.152.59 3.813 1.727 4.98 3.399 1.169 1.668 1.75 3.609 1.75 5.808q-.002 3.69-1.433 6.488a13.44 13.44 0 0 1-3.844 4.63q-2.409 1.852-5.515 2.796c-2.079.637-4.266.953-6.551.953H0L9.465-.004zM58.492 12.531l-6.98 32.828h-9.016l6.914-32.828zM71.516 12.531 70.5 17.13h.125c2.926-3.645 6.758-5.465 11.504-5.465 6.39 0 9.59 2.938 9.59 8.82q-.002.508-.133 1.297c-.082.535-.18 1.07-.285 1.621a67 67 0 0 1-.32 1.559c-.102.477-.188.879-.22 1.164l-4.058 19.234h-9.012l3.989-19.226c.074-.5.195-1.172.351-2.024.153-.843.223-1.507.223-1.968 0-.973-.465-1.774-1.363-2.41-.914-.637-1.895-.954-2.961-.954q-2.029-.001-3.582.79a8.8 8.8 0 0 0-2.672 2.062 11.3 11.3 0 0 0-1.836 2.922 15.7 15.7 0 0 0-1.106 3.36l-3.687 17.448H56.09l6.793-32.828zM115.832 12.531l-1.406 6.012h-6.414l-3.367 16.336-.184.914-.074.61q.002.895.297 1.374l.722.727.985.281 1.058.035q1.635 0 3.235-.187l-1.536 6.91c-.925.09-1.851.16-2.789.227-.933.058-1.882.097-2.847.097-1.07 0-2.106-.097-3.153-.289a8.4 8.4 0 0 1-2.796-1.012 5.5 5.5 0 0 1-1.97-2c-.488-.847-.714-1.949-.663-3.308q-.002-.634.125-1.426c.086-.527.187-1.09.324-1.68l3.672-17.609h-5.899l1.391-6.016h5.785l2.027-9.957h9.024l-2.031 9.957z" style="stroke:none;fill-rule:nonzero;fill:#40b43c;fill-opacity:1"/><g clip-path="url(#a)"><path d="M138.922 22.934a6.2 6.2 0 0 0-.852-2.25 4.5 4.5 0 0 0-1.847-1.622c-.809-.406-1.86-.609-3.176-.609-1.27 0-2.399.195-3.36.574-.972.383-1.828.891-2.546 1.524a8.8 8.8 0 0 0-1.809 2.226c-.492.836-.906 1.73-1.242 2.657h15.047c0-.848-.07-1.676-.215-2.5m-15.844 8.765v1.328c0 1.91.598 3.45 1.77 4.633 1.195 1.192 3.011 1.778 5.465 1.778.902 0 1.687-.13 2.386-.41a7.1 7.1 0 0 0 1.84-1.048c.535-.414.992-.914 1.406-1.457.399-.546.762-1.078 1.11-1.586h9.011c-.714 1.86-1.57 3.497-2.539 4.895a14 14 0 0 1-3.496 3.527c-1.347.953-2.933 1.664-4.726 2.133-1.809.469-3.88.7-6.262.7-2.203 0-4.203-.297-5.992-.887-1.813-.602-3.34-1.504-4.598-2.7-1.277-1.214-2.258-2.707-2.953-4.48-.707-1.77-1.05-3.848-1.05-6.219q-.001-3.926 1.269-7.59c.847-2.425 2.035-4.574 3.582-6.464a17.3 17.3 0 0 1 5.68-4.512c2.242-1.121 4.773-1.684 7.55-1.684 2.309 0 4.38.297 6.27.89 1.883.595 3.488 1.497 4.828 2.7s2.36 2.703 3.113 4.508c.738 1.797 1.106 3.871 1.106 6.238 0 1.606-.176 3.313-.512 5.133h-24.2z" style="stroke:none;fill-rule:nonzero;fill:#40b43c;fill-opacity:1"/></g><path d="m163.105 12.531-1.335 5.895.125.129q1.531-3.44 4.609-5.192c2.047-1.164 4.285-1.754 6.695-1.754q1.394 0 2.801.207l-1.852 8.77c-.628-.129-1.265-.25-1.894-.379a10 10 0 0 0-1.906-.191c-1.735 0-3.207.293-4.41.894a8.8 8.8 0 0 0-3.055 2.41 12.3 12.3 0 0 0-1.965 3.461 26 26 0 0 0-1.164 4.032l-3.055 14.546h-8.969l6.81-32.828zM50.43 7.434l1.652-7.438h9.074l-1.644 7.438z" style="stroke:none;fill-rule:nonzero;fill:#40b43c;fill-opacity:1"/></svg>