<?xml version="1.0" encoding="UTF-8"?>
<svg xmlns="http://www.w3.org/2000/svg" xmlns:xlink="http://www.w3.org/1999/xlink" width="176pt" height="47.95pt" viewBox="0 0 176 47.95" version="1.1">
<defs>
<clipPath id="clip1">
  <path d="M 0 0 L 48 0 L 48 47.949219 L 0 47.949219 Z M 0 0 "/>
</clipPath>
</defs>
<g id="surface1">
<path style=" stroke:none;fill-rule:nonzero;fill:rgb(90.34729%,11.286926%,14.352417%);fill-opacity:1;" d="M 24.332031 38.847656 L 26.160156 38.847656 L 26.105469 36.632812 L 24.335938 38.847656 L 24.332031 38.847656 "/>
<g clip-path="url(#clip1)" clip-rule="nonzero">
<path style=" stroke:none;fill-rule:nonzero;fill:rgb(90.34729%,11.286926%,14.352417%);fill-opacity:1;" d="M 47.875 26.097656 C 48.035156 24.574219 47.988281 22.398438 47.742188 20.789062 C 47.742188 20.773438 47.710938 20.773438 47.695312 20.789062 C 47.222656 23.125 45.710938 26.296875 42.4375 28.886719 C 42.40625 28.886719 42.367188 28.847656 42.40625 28.828125 C 45.28125 25.769531 46.984375 21.988281 47.25 18.117188 C 46.703125 15.988281 45.867188 13.90625 44.808594 12.074219 C 44.808594 12.074219 44.765625 12.074219 44.78125 12.09375 C 45.355469 16.023438 44.429688 21.214844 40.597656 25.425781 C 40.558594 25.425781 40.542969 25.386719 40.558594 25.386719 C 43.84375 20.65625 44.714844 14.90625 43.277344 9.730469 C 38.90625 3.816406 31.902344 -0.00390625 23.976562 -0.00390625 C 16.078125 -0.00390625 9.046875 3.816406 4.6875 9.730469 C 3.238281 14.90625 4.109375 20.65625 7.382812 25.386719 C 7.421875 25.386719 7.382812 25.425781 7.351562 25.425781 C 3.539062 21.214844 2.59375 16.019531 3.191406 12.09375 C 3.191406 12.074219 3.144531 12.074219 3.144531 12.074219 C 2.085938 13.90625 1.253906 15.988281 0.730469 18.117188 C 0.996094 21.988281 2.699219 25.769531 5.566406 28.828125 C 5.605469 28.847656 5.550781 28.886719 5.519531 28.886719 C 2.265625 26.296875 0.742188 23.125 0.242188 20.789062 C 0.242188 20.773438 0.210938 20.773438 0.210938 20.789062 C -0.0351562 22.398438 -0.0546875 24.574219 0.0898438 26.097656 C 0.929688 28.679688 2.679688 30.855469 4.476562 32.414062 C 4.507812 32.421875 4.476562 32.460938 4.425781 32.460938 C 2.417969 31.203125 1.304688 29.984375 0.527344 28.886719 C 0.519531 28.886719 0.496094 28.886719 0.519531 28.914062 C 2.726562 39.671875 12.394531 47.949219 23.980469 47.949219 C 35.597656 47.949219 45.257812 39.671875 47.480469 28.914062 C 47.480469 28.886719 47.445312 28.886719 47.40625 28.886719 C 46.640625 29.984375 45.550781 31.203125 43.527344 32.460938 C 43.460938 32.460938 43.460938 32.421875 43.460938 32.414062 C 45.292969 30.855469 47.054688 28.679688 47.878906 26.097656 M 15.085938 41.742188 C 14.1875 41.742188 13.421875 41.640625 12.816406 41.5 L 13.363281 40.042969 C 14.859375 40.21875 16.144531 40.085938 16.628906 38.792969 L 18.226562 34.640625 L 21.507812 34.640625 L 19.769531 39.207031 C 18.839844 41.554688 16.628906 41.742188 15.085938 41.742188 M 26.257812 41.496094 L 26.21875 40.144531 L 23.269531 40.144531 L 22.179688 41.496094 L 19.484375 41.496094 L 24.960938 35.140625 C 25.199219 34.847656 25.605469 34.640625 25.972656 34.640625 L 28.886719 34.640625 L 29.550781 41.5 L 26.257812 41.5 M 37.835938 41.496094 L 30.429688 41.496094 L 33.050781 34.640625 L 36.324219 34.640625 L 34.214844 40.039062 L 38.386719 40.039062 L 37.835938 41.496094 M 34.847656 27.023438 C 29.917969 31.789062 22.59375 28.734375 23.332031 22.878906 C 23.917969 18.355469 29.433594 13.871094 33.652344 11.429688 C 33.667969 11.40625 33.667969 11.394531 33.652344 11.355469 C 33.105469 10.863281 31.960938 9.660156 31.230469 8.78125 C 29.207031 6.351562 25.640625 6.238281 23.53125 8.914062 L 11.449219 10.050781 C 11.421875 10.050781 11.398438 10.09375 11.449219 10.125 L 24.394531 10.863281 C 26.671875 10.984375 27.4375 13.078125 25.195312 14.761719 C 17.003906 20.976562 15.539062 27.550781 17.363281 32.765625 C 17.378906 32.792969 17.324219 32.839844 17.316406 32.792969 C 16.5625 31.726562 15.984375 30.417969 15.699219 29.046875 C 11.734375 26.597656 8.546875 21.847656 8.546875 16.039062 C 8.546875 7.554688 15.433594 0.582031 23.976562 0.582031 C 32.519531 0.582031 39.425781 7.554688 39.425781 16.039062 C 39.425781 20.597656 37.402344 24.496094 34.847656 27.023438 "/>
</g>
<path style=" stroke:none;fill-rule:nonzero;fill:rgb(19.204712%,13.578796%,11.167908%);fill-opacity:1;" d="M 89.964844 23.703125 C 85.800781 34.566406 75.5 35.464844 68.15625 35.464844 C 64.070312 35.464844 60.503906 35.046875 57.5625 34.40625 L 60.164062 27.628906 C 67.15625 28.433594 73.144531 27.8125 75.460938 21.726562 L 82.878906 2.410156 L 98.15625 2.410156 L 89.964844 23.703125 "/>
<path style=" stroke:none;fill-rule:nonzero;fill:rgb(19.204712%,13.578796%,11.167908%);fill-opacity:1;" d="M 172.964844 2.414062 L 159.332031 2.414062 C 157.664062 2.414062 155.839844 3.386719 154.621094 4.804688 L 129.058594 34.40625 L 141.667969 34.40625 L 146.75 28.105469 L 160.523438 28.105469 L 160.777344 34.40625 L 176 34.40625 Z M 151.707031 21.957031 L 159.917969 11.742188 L 160.285156 21.957031 L 151.707031 21.957031 "/>
<path style=" stroke:none;fill-rule:nonzero;fill:rgb(19.204712%,13.578796%,11.167908%);fill-opacity:1;" d="M 143.28125 2.410156 L 104.464844 2.410156 L 102.101562 8.558594 L 113.898438 8.558594 L 103.964844 34.40625 L 119.203125 34.40625 L 129.128906 8.558594 L 140.90625 8.558594 L 143.28125 2.410156 "/>
</g>
</svg>
