<svg xmlns="http://www.w3.org/2000/svg" width="176pt" height="63.933" viewBox="0 0 176 47.95"><defs><clipPath id="a"><path d="M0 0h48v47.95H0Zm0 0"/></clipPath></defs><path d="M24.332 38.848h1.828l-.055-2.215-1.77 2.215z" style="stroke:none;fill-rule:nonzero;fill:#e61d25;fill-opacity:1"/><g clip-path="url(#a)"><path d="M47.875 26.098c.16-1.524.113-3.7-.133-5.309 0-.016-.031-.016-.047 0-.472 2.336-1.984 5.508-5.257 8.098-.032 0-.07-.04-.032-.059 2.875-3.058 4.578-6.84 4.844-10.71-.547-2.13-1.383-4.212-2.441-6.044 0 0-.043 0-.028.02.574 3.93-.351 9.12-4.183 13.332-.04 0-.055-.04-.04-.04 3.286-4.73 4.157-10.48 2.72-15.656C38.905 3.816 31.901-.004 23.976-.004A23.92 23.92 0 0 0 4.687 9.73c-1.449 5.176-.578 10.926 2.696 15.657.039 0 0 .039-.031.039-3.813-4.211-4.758-9.406-4.16-13.332 0-.02-.047-.02-.047-.02A23.4 23.4 0 0 0 .73 18.117c.266 3.871 1.97 7.653 4.836 10.711.04.02-.015.059-.046.059-3.254-2.59-4.778-5.762-5.278-8.098 0-.016-.031-.016-.031 0-.246 1.61-.266 3.785-.121 5.309.84 2.582 2.59 4.757 4.387 6.316.03.008 0 .047-.051.047-2.008-1.258-3.121-2.477-3.899-3.574-.007 0-.03 0-.007.027C2.727 39.672 12.395 47.95 23.98 47.95c11.618 0 21.278-8.277 23.5-19.035 0-.027-.035-.027-.074-.027-.765 1.097-1.855 2.316-3.879 3.574-.066 0-.066-.04-.066-.047 1.832-1.559 3.594-3.734 4.418-6.316M15.086 41.742c-.899 0-1.664-.101-2.27-.242l.547-1.457c1.496.176 2.782.043 3.266-1.25l1.598-4.152h3.28l-1.737 4.566c-.93 2.348-3.141 2.535-4.684 2.535m11.172-.246-.04-1.351H23.27l-1.09 1.351h-2.696l5.477-6.355c.238-.293.644-.5 1.012-.5h2.914l.664 6.859h-3.293m11.578-.004H30.43l2.62-6.855h3.274l-2.11 5.398h4.173zm-2.988-14.473c-4.93 4.766-12.254 1.711-11.516-4.144.586-4.524 6.102-9.008 10.32-11.45.016-.023.016-.034 0-.074-.547-.492-1.691-1.695-2.422-2.574-2.023-2.43-5.59-2.543-7.699.133L11.45 10.051c-.027 0-.05.043 0 .074l12.946.738c2.277.121 3.043 2.215.8 3.899-8.191 6.215-9.656 12.789-7.832 18.004.016.027-.039.074-.047.027a10.2 10.2 0 0 1-1.617-3.746c-3.965-2.45-7.152-7.2-7.152-13.008 0-8.484 6.887-15.457 15.43-15.457s15.449 6.973 15.449 15.457c0 4.559-2.024 8.457-4.578 10.984" style="stroke:none;fill-rule:nonzero;fill:#e61d25;fill-opacity:1"/></g><path d="M89.965 23.703C85.8 34.566 75.5 35.465 68.156 35.465c-4.086 0-7.652-.418-10.594-1.059l2.602-6.777c6.992.805 12.98.183 15.297-5.902L82.879 2.41h15.277zM172.965 2.414h-13.633c-1.668 0-3.492.973-4.71 2.39l-25.563 29.602h12.609l5.082-6.3h13.773l.254 6.3H176Zm-21.258 19.543 8.211-10.215.367 10.215zM143.281 2.41h-38.816l-2.363 6.149h11.796l-9.933 25.847h15.238L129.13 8.56h11.777z" style="stroke:none;fill-rule:nonzero;fill:#31231c;fill-opacity:1"/></svg>