<?xml version="1.0" encoding="UTF-8"?>
<svg xmlns="http://www.w3.org/2000/svg" xmlns:xlink="http://www.w3.org/1999/xlink" width="176pt" height="29.28pt" viewBox="0 0 176 29.28" version="1.1">
<defs>
<clipPath id="clip1">
  <path d="M 148 15 L 175 15 L 175 29.28125 L 148 29.28125 Z M 148 15 "/>
</clipPath>
</defs>
<g id="surface1">
<path style=" stroke:none;fill-rule:nonzero;fill:rgb(9.635925%,22.741699%,27.687073%);fill-opacity:1;" d="M 148.507812 14.207031 C 148.507812 14.207031 151.625 10.113281 157.53125 4.0625 C 159.191406 2.347656 162.113281 0.00390625 165.273438 0.00390625 C 168.699219 0.00390625 170.828125 2.503906 170.828125 4.820312 C 170.828125 7.121094 169.351562 9.496094 166.175781 9.496094 C 164.519531 9.496094 163.105469 8.3125 163.105469 6.667969 C 163.105469 5.863281 163.730469 4.671875 165.21875 4.671875 C 166.648438 4.671875 166.996094 6.242188 166.882812 6.8125 C 166.882812 6.8125 167.964844 6.425781 167.964844 5.082031 C 167.964844 3.734375 166.792969 2.738281 165.273438 2.738281 C 162.960938 2.738281 160.6875 4.886719 159.820312 5.738281 C 156.371094 9.15625 154.753906 11.441406 154.753906 11.441406 L 176 11.441406 L 174.816406 14.207031 L 148.507812 14.207031 "/>
<g clip-path="url(#clip1)" clip-rule="nonzero">
<path style=" stroke:none;fill-rule:nonzero;fill:rgb(9.635925%,22.741699%,27.687073%);fill-opacity:1;" d="M 148.058594 15.671875 C 148.058594 15.671875 149.433594 19.839844 151.261719 23.832031 C 152.816406 27.226562 155.382812 29.28125 158.523438 29.28125 C 161.476562 29.28125 163.484375 26.914062 163.484375 24.65625 C 163.484375 22.101562 161.621094 20.421875 159.425781 20.421875 C 157.074219 20.421875 156.585938 22.28125 156.585938 22.75 C 156.585938 23.832031 157.4375 24.824219 158.523438 24.824219 C 160.238281 24.824219 160.367188 23.390625 160.367188 23.390625 C 160.367188 23.390625 160.894531 23.738281 160.894531 24.65625 C 160.894531 25.535156 160.183594 26.660156 158.523438 26.660156 C 157.203125 26.660156 155.257812 25.929688 153.914062 22.957031 C 152.339844 19.472656 152.226562 18.441406 152.226562 18.441406 L 173.007812 18.441406 L 174.195312 15.671875 L 148.058594 15.671875 "/>
</g>
<path style=" stroke:none;fill-rule:nonzero;fill:rgb(9.635925%,22.741699%,27.687073%);fill-opacity:1;" d="M 90.253906 24.535156 C 90.21875 24.496094 90.140625 24.433594 90.003906 24.433594 C 89.785156 24.433594 89.710938 24.75 89.710938 24.75 C 89.503906 25.40625 89.320312 25.59375 89.046875 25.695312 C 88.804688 25.765625 88.128906 25.757812 87.636719 25.757812 L 87.46875 25.757812 C 85.835938 25.757812 85.441406 25.535156 85.410156 24.523438 C 85.394531 24.097656 85.410156 23.125 85.410156 22.625 L 85.410156 21.460938 C 85.410156 21.375 85.425781 21.3125 85.507812 21.3125 C 85.773438 21.3125 86.59375 21.320312 87.171875 21.335938 C 87.398438 21.339844 87.902344 21.34375 87.992188 21.351562 C 88.433594 21.398438 88.546875 21.578125 88.632812 21.816406 C 88.636719 21.824219 88.765625 22.175781 88.980469 22.183594 C 89.320312 22.195312 89.308594 21.871094 89.308594 21.871094 C 89.308594 21.871094 89.34375 21.425781 89.371094 21.242188 C 89.394531 21.0625 89.457031 20.628906 89.457031 20.628906 L 89.5 20.363281 C 89.5 20.117188 89.363281 20.066406 89.25 20.066406 C 89.125 20.066406 89.003906 20.160156 88.886719 20.25 L 88.828125 20.292969 C 88.695312 20.378906 88.542969 20.414062 88.304688 20.449219 L 85.53125 20.449219 C 85.457031 20.445312 85.417969 20.429688 85.410156 20.339844 C 85.410156 20.335938 85.410156 16.398438 85.410156 16.398438 C 85.417969 16.339844 85.441406 16.316406 85.535156 16.308594 L 88.292969 16.308594 C 88.804688 16.332031 88.96875 16.714844 89.015625 16.839844 L 89.085938 17.042969 C 89.117188 17.128906 89.1875 17.300781 89.453125 17.300781 C 89.511719 17.300781 89.664062 17.277344 89.71875 17.046875 C 89.71875 17.050781 89.765625 16.703125 89.765625 16.703125 L 89.8125 16.351562 C 89.820312 16.070312 89.867188 15.871094 89.898438 15.78125 L 89.925781 15.6875 C 89.929688 15.671875 89.972656 15.515625 89.921875 15.429688 C 89.894531 15.375 89.835938 15.300781 89.710938 15.3125 C 89.609375 15.320312 89.480469 15.367188 89.46875 15.371094 C 89.445312 15.378906 89.378906 15.40625 89.28125 15.417969 C 89.167969 15.4375 88.785156 15.453125 88.785156 15.453125 C 88.726562 15.457031 88.53125 15.457031 88.253906 15.460938 C 88.253906 15.460938 85.140625 15.472656 84.746094 15.472656 C 84.632812 15.472656 84.304688 15.464844 84.304688 15.464844 C 84.304688 15.464844 83.304688 15.421875 83.289062 15.421875 C 83.085938 15.421875 82.921875 15.554688 82.921875 15.714844 C 82.921875 15.875 83.074219 15.972656 83.289062 16.007812 C 83.65625 16.078125 83.667969 16.46875 83.699219 17.527344 C 83.703125 17.96875 83.703125 18.621094 83.703125 19.695312 L 83.703125 22.285156 C 83.703125 23.089844 83.703125 23.824219 83.683594 24.417969 C 83.683594 24.417969 83.6875 24.417969 83.683594 24.417969 C 83.613281 25.5 83.648438 25.902344 83.308594 25.972656 C 83.097656 25.992188 82.941406 26.101562 82.941406 26.265625 C 82.941406 26.425781 83.105469 26.558594 83.308594 26.558594 C 83.320312 26.558594 84.402344 26.515625 84.402344 26.515625 C 84.402344 26.515625 84.609375 26.507812 84.667969 26.507812 C 85.371094 26.507812 86.222656 26.554688 87.605469 26.582031 C 88.117188 26.59375 88.664062 26.605469 89.214844 26.605469 C 89.765625 26.605469 90.070312 26.605469 90.203125 26.128906 C 90.207031 26.117188 90.273438 25.226562 90.273438 25.226562 L 90.328125 24.828125 C 90.339844 24.710938 90.316406 24.59375 90.253906 24.535156 "/>
<path style=" stroke:none;fill-rule:nonzero;fill:rgb(9.635925%,22.741699%,27.687073%);fill-opacity:1;" d="M 51.472656 24.535156 C 51.433594 24.496094 51.355469 24.433594 51.222656 24.433594 C 51.003906 24.433594 50.929688 24.75 50.929688 24.75 C 50.722656 25.40625 50.539062 25.59375 50.265625 25.695312 C 50.023438 25.765625 49.347656 25.757812 48.855469 25.757812 L 48.683594 25.757812 C 47.054688 25.757812 46.660156 25.535156 46.628906 24.523438 C 46.613281 24.097656 46.628906 23.125 46.628906 22.625 L 46.628906 21.460938 C 46.628906 21.375 46.644531 21.3125 46.722656 21.3125 C 46.992188 21.3125 47.8125 21.320312 48.390625 21.335938 C 48.617188 21.339844 49.121094 21.34375 49.210938 21.351562 C 49.652344 21.398438 49.765625 21.578125 49.851562 21.816406 C 49.855469 21.824219 49.984375 22.175781 50.199219 22.183594 C 50.539062 22.195312 50.527344 21.871094 50.527344 21.871094 C 50.527344 21.871094 50.5625 21.425781 50.589844 21.242188 C 50.613281 21.0625 50.675781 20.628906 50.675781 20.628906 L 50.71875 20.363281 C 50.71875 20.117188 50.582031 20.066406 50.46875 20.066406 C 50.34375 20.066406 50.222656 20.160156 50.105469 20.25 L 50.046875 20.292969 C 49.917969 20.378906 49.761719 20.414062 49.523438 20.449219 L 46.75 20.449219 C 46.671875 20.445312 46.636719 20.429688 46.628906 20.339844 C 46.628906 20.335938 46.628906 16.398438 46.628906 16.398438 C 46.636719 16.339844 46.660156 16.316406 46.753906 16.308594 L 49.511719 16.308594 C 50.023438 16.332031 50.1875 16.714844 50.230469 16.839844 L 50.304688 17.042969 C 50.335938 17.128906 50.40625 17.300781 50.671875 17.300781 C 50.730469 17.300781 50.882812 17.277344 50.9375 17.046875 C 50.9375 17.050781 50.984375 16.703125 50.984375 16.703125 L 51.027344 16.351562 C 51.039062 16.070312 51.085938 15.871094 51.117188 15.78125 L 51.144531 15.6875 C 51.148438 15.671875 51.191406 15.515625 51.140625 15.429688 C 51.109375 15.375 51.054688 15.300781 50.929688 15.3125 C 50.828125 15.320312 50.699219 15.367188 50.6875 15.371094 C 50.664062 15.378906 50.597656 15.40625 50.5 15.417969 C 50.386719 15.4375 50.003906 15.453125 50.003906 15.453125 C 49.945312 15.457031 49.75 15.457031 49.472656 15.460938 C 49.472656 15.460938 46.359375 15.472656 45.964844 15.472656 C 45.851562 15.472656 45.523438 15.464844 45.523438 15.464844 C 45.523438 15.464844 44.523438 15.421875 44.507812 15.421875 C 44.304688 15.421875 44.140625 15.554688 44.140625 15.714844 C 44.140625 15.875 44.292969 15.972656 44.507812 16.007812 C 44.875 16.078125 44.886719 16.46875 44.917969 17.527344 C 44.921875 17.96875 44.921875 18.621094 44.921875 19.695312 L 44.921875 22.285156 C 44.921875 23.089844 44.921875 23.824219 44.90625 24.417969 C 44.832031 25.5 44.867188 25.902344 44.53125 25.972656 C 44.316406 25.992188 44.160156 26.101562 44.160156 26.265625 C 44.160156 26.425781 44.324219 26.558594 44.53125 26.558594 C 44.535156 26.558594 45.621094 26.515625 45.621094 26.515625 C 45.621094 26.515625 45.828125 26.507812 45.886719 26.507812 C 46.589844 26.507812 47.441406 26.554688 48.824219 26.582031 C 49.335938 26.59375 49.882812 26.605469 50.433594 26.605469 C 50.984375 26.605469 51.285156 26.605469 51.421875 26.128906 C 51.425781 26.117188 51.492188 25.226562 51.492188 25.226562 L 51.546875 24.828125 C 51.554688 24.710938 51.53125 24.59375 51.472656 24.535156 "/>
<path style=" stroke:none;fill-rule:nonzero;fill:rgb(9.635925%,22.741699%,27.687073%);fill-opacity:1;" d="M 109.578125 24.589844 C 109.539062 24.550781 109.484375 24.492188 109.332031 24.488281 C 109.136719 24.484375 109.042969 24.816406 109.042969 24.816406 C 108.84375 25.53125 108.707031 25.484375 108.4375 25.589844 C 108.269531 25.660156 107.804688 25.769531 107.347656 25.78125 C 107.347656 25.78125 106.230469 25.816406 105.753906 25.738281 C 105.652344 25.722656 105.472656 25.652344 105.46875 25.648438 C 105.335938 25.589844 105.238281 25.511719 105.171875 25.421875 C 105.070312 25.308594 105.003906 25.109375 104.960938 24.824219 C 104.949219 24.777344 104.882812 23.441406 104.882812 22.28125 L 104.882812 19.691406 C 104.882812 18.496094 104.902344 16.804688 104.902344 16.71875 C 104.902344 16.089844 105.347656 15.988281 105.347656 15.988281 C 105.542969 15.957031 105.671875 15.835938 105.671875 15.683594 C 105.671875 15.570312 105.605469 15.421875 105.320312 15.40625 L 102.726562 15.40625 C 102.351562 15.40625 102.269531 15.546875 102.269531 15.683594 C 102.269531 15.84375 102.394531 15.957031 102.589844 15.988281 C 102.59375 15.988281 103.046875 16.0625 103.046875 16.71875 C 103.046875 16.871094 103.074219 19.125 103.074219 19.691406 L 103.074219 22.28125 C 103.074219 23.324219 103.070312 24.246094 103.035156 24.898438 C 102.960938 25.59375 103 25.914062 102.640625 25.980469 C 102.457031 25.996094 102.3125 26.117188 102.3125 26.265625 C 102.3125 26.425781 102.472656 26.554688 102.671875 26.554688 C 103.0625 26.554688 103.425781 26.503906 104.078125 26.503906 C 104.734375 26.503906 106.859375 26.570312 106.859375 26.570312 C 107.015625 26.574219 107.347656 26.582031 107.347656 26.582031 C 107.726562 26.589844 108.121094 26.597656 108.515625 26.597656 C 109.054688 26.597656 109.355469 26.597656 109.488281 26.097656 C 109.488281 26.085938 109.59375 25.246094 109.59375 25.246094 L 109.632812 24.898438 C 109.644531 24.777344 109.632812 24.65625 109.578125 24.589844 "/>
<path style=" stroke:none;fill-rule:nonzero;fill:rgb(9.635925%,22.741699%,27.687073%);fill-opacity:1;" d="M 141.738281 24.96875 C 140.851562 25.621094 139.785156 25.957031 138.78125 25.957031 C 137.511719 25.957031 136.886719 25.648438 136.675781 25.371094 C 136.546875 25.210938 136.515625 24.625 136.5 24.257812 C 136.484375 23.980469 136.46875 22.847656 136.46875 21.292969 L 136.46875 19.445312 C 136.46875 18.289062 136.46875 17.011719 136.484375 16.511719 C 136.484375 16.351562 136.53125 16.277344 136.675781 16.21875 C 136.804688 16.160156 137.398438 16.117188 137.71875 16.117188 C 138.972656 16.117188 140.101562 16.292969 141.582031 17.582031 C 142.269531 18.183594 143.164062 19.410156 143.164062 21.273438 C 143.164062 22.785156 142.796875 24.199219 141.738281 24.96875 Z M 143.464844 17.097656 C 141.714844 15.425781 139.984375 15.425781 137.976562 15.425781 C 137.011719 15.425781 136.003906 15.46875 135.503906 15.46875 C 135.414062 15.46875 134.460938 15.433594 134.460938 15.433594 C 134.460938 15.433594 134.171875 15.394531 134.046875 15.414062 C 133.871094 15.441406 133.738281 15.5625 133.738281 15.710938 C 133.738281 15.875 133.890625 15.992188 134.105469 16.015625 L 134.109375 16.015625 C 134.503906 16.089844 134.582031 16.601562 134.605469 16.933594 C 134.609375 16.964844 134.621094 18.125 134.621094 19.679688 L 134.621094 22.261719 C 134.621094 23.175781 134.589844 24.789062 134.585938 24.863281 C 134.558594 25.128906 134.585938 25.75 134.105469 25.921875 L 134.105469 25.925781 C 133.90625 25.925781 133.746094 26.058594 133.746094 26.222656 C 133.746094 26.386719 133.910156 26.519531 134.109375 26.519531 C 134.117188 26.519531 135.402344 26.472656 135.425781 26.472656 C 136.226562 26.472656 137.671875 26.648438 138.84375 26.648438 C 141.304688 26.648438 142.535156 25.605469 143.269531 24.917969 C 144.171875 24.082031 145.023438 22.671875 145.023438 20.824219 C 145.023438 19.078125 144.269531 17.863281 143.464844 17.097656 "/>
<path style=" stroke:none;fill-rule:nonzero;fill:rgb(9.635925%,22.741699%,27.687073%);fill-opacity:1;" d="M 116.113281 21.40625 L 113.753906 21.40625 C 113.695312 21.40625 113.683594 21.363281 113.695312 21.304688 L 113.816406 21.011719 L 114.941406 18.117188 C 115.089844 18.503906 115.65625 19.945312 116.136719 21.183594 L 116.1875 21.316406 C 116.199219 21.363281 116.1875 21.40625 116.113281 21.40625 Z M 120.542969 25.992188 C 120.074219 25.949219 119.671875 25.285156 119.316406 24.578125 L 115.511719 15.507812 C 115.484375 15.441406 115.351562 15.308594 115.199219 15.304688 C 115.039062 15.304688 114.902344 15.4375 114.871094 15.507812 L 111.058594 24.742188 C 110.828125 25.238281 110.566406 25.929688 110.269531 25.960938 C 110.074219 25.980469 109.929688 26.09375 109.929688 26.253906 C 109.929688 26.414062 110.078125 26.539062 110.261719 26.542969 L 112.277344 26.542969 C 112.464844 26.542969 112.617188 26.414062 112.617188 26.257812 C 112.617188 26.097656 112.460938 25.996094 112.28125 25.964844 C 111.851562 25.839844 111.921875 25.699219 112.410156 24.4375 L 112.539062 24.105469 L 113.167969 22.582031 L 113.332031 22.191406 C 113.355469 22.144531 113.382812 22.128906 113.4375 22.128906 L 116.394531 22.128906 C 116.46875 22.128906 116.511719 22.160156 116.539062 22.230469 L 116.570312 22.304688 C 116.996094 23.394531 117.558594 24.445312 117.800781 25.066406 L 117.796875 25.066406 C 117.800781 25.070312 117.800781 25.074219 117.804688 25.078125 C 118.097656 25.703125 118.46875 26.546875 119.445312 26.546875 C 119.804688 26.546875 120.519531 26.550781 120.519531 26.550781 C 120.710938 26.546875 120.871094 26.425781 120.871094 26.273438 C 120.871094 26.125 120.726562 26.003906 120.542969 25.992188 "/>
<path style=" stroke:none;fill-rule:nonzero;fill:rgb(9.635925%,22.741699%,27.687073%);fill-opacity:1;" d="M 97.078125 21.40625 L 94.71875 21.40625 C 94.660156 21.40625 94.648438 21.363281 94.660156 21.304688 L 94.785156 21.011719 L 94.78125 21.011719 L 95.90625 18.117188 C 96.054688 18.503906 96.621094 19.945312 97.101562 21.183594 L 97.152344 21.316406 C 97.164062 21.363281 97.152344 21.40625 97.078125 21.40625 Z M 101.507812 25.992188 C 101.039062 25.949219 100.636719 25.285156 100.28125 24.578125 L 96.480469 15.507812 C 96.449219 15.441406 96.320312 15.308594 96.164062 15.304688 C 96.007812 15.304688 95.871094 15.4375 95.839844 15.507812 L 92.023438 24.742188 C 91.792969 25.238281 91.535156 25.929688 91.238281 25.960938 C 91.039062 25.980469 90.894531 26.09375 90.894531 26.253906 C 90.894531 26.414062 91.042969 26.539062 91.226562 26.542969 L 93.242188 26.542969 C 93.429688 26.542969 93.582031 26.414062 93.582031 26.257812 C 93.582031 26.097656 93.425781 25.996094 93.246094 25.964844 C 92.816406 25.839844 92.886719 25.699219 93.375 24.4375 L 93.503906 24.105469 L 94.132812 22.582031 L 94.296875 22.191406 C 94.320312 22.144531 94.347656 22.128906 94.402344 22.128906 L 97.359375 22.128906 C 97.433594 22.128906 97.476562 22.160156 97.507812 22.230469 L 97.539062 22.304688 C 97.960938 23.394531 98.527344 24.445312 98.765625 25.066406 C 98.765625 25.070312 98.769531 25.074219 98.769531 25.078125 C 99.0625 25.703125 99.433594 26.546875 100.414062 26.546875 C 100.769531 26.546875 101.484375 26.550781 101.484375 26.550781 C 101.679688 26.546875 101.835938 26.425781 101.835938 26.273438 C 101.835938 26.125 101.691406 26.003906 101.507812 25.992188 "/>
<path style=" stroke:none;fill-rule:nonzero;fill:rgb(9.635925%,22.741699%,27.687073%);fill-opacity:1;" d="M 132.566406 15.363281 L 131.800781 15.355469 L 130.640625 15.355469 C 130.464844 15.355469 130.320312 15.46875 130.320312 15.613281 C 130.320312 15.757812 130.460938 15.855469 130.640625 15.875 C 131.007812 15.917969 131.019531 16.417969 131.058594 17.179688 L 131.0625 17.429688 C 131.058594 19.300781 131.050781 23.464844 131.050781 23.464844 C 129.738281 22.175781 128.164062 20.621094 127.148438 19.628906 C 126.09375 18.621094 125.328125 17.757812 124.539062 16.976562 C 123.511719 15.925781 123.15625 15.601562 123.132812 15.578125 C 122.980469 15.40625 122.28125 15.351562 122.238281 15.351562 C 121.558594 15.351562 121.792969 15.351562 121.792969 15.351562 C 121.59375 15.351562 121.429688 15.480469 121.429688 15.640625 C 121.429688 15.792969 121.625 15.921875 121.816406 15.929688 C 121.816406 15.933594 121.816406 15.929688 121.8125 15.933594 C 122.027344 15.953125 122.0625 16.011719 122.085938 16.25 C 122.070312 18.128906 122.070312 23.894531 122.066406 24.695312 C 122.023438 25.464844 122.046875 25.949219 121.652344 26.015625 C 121.492188 26.027344 121.351562 26.128906 121.351562 26.273438 C 121.351562 26.417969 121.484375 26.535156 121.648438 26.535156 L 122.414062 26.542969 L 123.574219 26.542969 C 123.753906 26.542969 123.894531 26.429688 123.898438 26.285156 C 123.898438 26.140625 123.757812 26.035156 123.578125 26.019531 L 123.574219 26.019531 C 123.199219 25.96875 123.199219 25.476562 123.160156 24.714844 L 123.191406 18.371094 C 123.242188 18.421875 125.113281 20.378906 125.871094 21.136719 C 126.148438 21.40625 126.484375 21.8125 126.765625 22.078125 C 127.625 22.886719 131.011719 26.167969 131.101562 26.261719 C 131.484375 26.648438 132.039062 26.699219 132.089844 26.058594 L 132.121094 17.308594 C 132.121094 17.265625 132.121094 17.230469 132.121094 17.199219 C 132.164062 16.429688 132.167969 15.945312 132.566406 15.882812 C 132.726562 15.875 132.863281 15.765625 132.867188 15.621094 C 132.867188 15.480469 132.734375 15.363281 132.566406 15.363281 "/>
<path style=" stroke:none;fill-rule:nonzero;fill:rgb(9.635925%,22.741699%,27.687073%);fill-opacity:1;" d="M 42.96875 15.363281 L 42.203125 15.355469 L 41.042969 15.355469 C 40.867188 15.355469 40.722656 15.46875 40.722656 15.613281 C 40.722656 15.757812 40.863281 15.855469 41.042969 15.875 L 41.039062 15.875 C 41.410156 15.917969 41.421875 16.417969 41.460938 17.179688 L 41.464844 17.429688 C 41.460938 19.300781 41.453125 23.464844 41.453125 23.464844 C 40.144531 22.175781 38.566406 20.621094 37.550781 19.628906 C 36.492188 18.621094 35.726562 17.757812 34.945312 16.976562 C 33.914062 15.925781 33.558594 15.601562 33.535156 15.578125 C 33.382812 15.40625 32.683594 15.351562 32.640625 15.351562 C 31.960938 15.351562 32.195312 15.351562 32.195312 15.351562 C 31.992188 15.351562 31.832031 15.480469 31.832031 15.640625 C 31.832031 15.792969 32.027344 15.921875 32.21875 15.929688 C 32.21875 15.933594 32.21875 15.929688 32.21875 15.933594 C 32.429688 15.953125 32.464844 16.011719 32.484375 16.25 C 32.472656 18.128906 32.472656 23.894531 32.46875 24.695312 C 32.425781 25.464844 32.449219 25.949219 32.054688 26.015625 C 31.894531 26.027344 31.753906 26.128906 31.753906 26.273438 C 31.753906 26.417969 31.886719 26.535156 32.050781 26.535156 L 32.816406 26.542969 L 33.976562 26.542969 C 34.15625 26.542969 34.296875 26.429688 34.296875 26.285156 C 34.296875 26.140625 34.160156 26.035156 33.980469 26.019531 L 33.976562 26.019531 C 33.601562 25.96875 33.601562 25.476562 33.5625 24.714844 L 33.59375 18.371094 C 33.644531 18.421875 35.515625 20.378906 36.273438 21.136719 C 36.550781 21.40625 36.886719 21.8125 37.167969 22.078125 C 38.03125 22.886719 41.414062 26.167969 41.503906 26.261719 C 41.886719 26.648438 42.441406 26.699219 42.488281 26.058594 L 42.523438 17.308594 C 42.523438 17.265625 42.523438 17.230469 42.523438 17.199219 C 42.566406 16.429688 42.570312 15.945312 42.96875 15.882812 C 43.128906 15.875 43.265625 15.765625 43.269531 15.621094 C 43.269531 15.480469 43.132812 15.363281 42.96875 15.363281 "/>
<path style=" stroke:none;fill-rule:nonzero;fill:rgb(9.635925%,22.741699%,27.687073%);fill-opacity:1;" d="M 69.179688 15.660156 C 69.179688 15.5 69.027344 15.375 68.839844 15.367188 C 68.839844 15.367188 66.710938 15.367188 66.648438 15.367188 C 66.570312 15.367188 66.484375 15.402344 66.484375 15.402344 C 66.367188 15.449219 66.289062 15.546875 66.289062 15.660156 C 66.289062 15.789062 66.386719 15.894531 66.527344 15.933594 C 66.527344 15.933594 66.535156 15.9375 66.539062 15.941406 C 66.859375 16.046875 67.152344 15.890625 66.648438 17.261719 L 64.507812 23.082031 C 64.507812 23.082031 61.285156 15.722656 61.21875 15.609375 C 61.066406 15.300781 60.664062 15.300781 60.519531 15.652344 L 57.25 23.175781 L 55.195312 17.382812 C 55.15625 17.269531 55.128906 17.179688 55.105469 17.113281 C 54.820312 16.203125 54.878906 16.023438 55.03125 15.949219 C 55.039062 15.945312 55.085938 15.933594 55.085938 15.933594 C 55.222656 15.894531 55.324219 15.789062 55.324219 15.660156 C 55.324219 15.5 55.164062 15.371094 54.96875 15.371094 C 54.964844 15.371094 52.414062 15.367188 52.414062 15.367188 C 52.226562 15.375 52.070312 15.5 52.070312 15.660156 C 52.070312 15.792969 52.179688 15.902344 52.328125 15.9375 L 52.328125 15.941406 C 53.007812 16.136719 53.125 16.691406 53.25 17.023438 C 53.53125 17.695312 53.964844 18.980469 54.183594 19.644531 C 55.152344 22.382812 56.4375 26.050781 56.4375 26.050781 C 56.5625 26.429688 56.617188 26.589844 56.796875 26.589844 C 57.027344 26.589844 57.105469 26.414062 57.246094 26.101562 L 60.566406 18.523438 L 63.832031 25.878906 C 64.039062 26.34375 64.082031 26.589844 64.332031 26.589844 C 64.566406 26.589844 64.632812 26.371094 64.792969 25.90625 C 65.5625 23.722656 67.878906 17.175781 67.878906 17.175781 C 68.097656 16.636719 68.285156 16.167969 68.925781 15.941406 C 69.070312 15.894531 69.179688 15.792969 69.179688 15.660156 "/>
<path style=" stroke:none;fill-rule:nonzero;fill:rgb(9.635925%,22.741699%,27.687073%);fill-opacity:1;" d="M 81.789062 24.59375 C 81.652344 24.554688 81.546875 24.644531 81.480469 24.78125 C 81.480469 24.78125 81.347656 25.078125 81.203125 25.265625 C 80.90625 25.644531 80.695312 25.652344 79.324219 25.71875 L 75.007812 25.703125 C 76.234375 23.988281 81.386719 16.332031 81.652344 15.9375 C 81.777344 15.753906 81.707031 15.339844 81.320312 15.339844 L 77 15.339844 C 76.738281 15.339844 75.917969 15.339844 75.917969 15.339844 C 75.476562 15.339844 75.109375 15.335938 74.804688 15.335938 C 74.207031 15.3125 73.824219 15.261719 73.5 15.230469 C 73.101562 15.191406 73.101562 15.488281 73.027344 16.0625 C 72.953125 16.546875 72.925781 16.734375 72.925781 16.859375 C 72.925781 16.941406 72.957031 17.160156 73.210938 17.164062 C 73.441406 17.167969 73.527344 17.007812 73.589844 16.859375 C 73.609375 16.8125 73.660156 16.679688 73.660156 16.679688 C 73.722656 16.515625 73.792969 16.40625 73.875 16.328125 C 74.195312 16.183594 74.65625 16.175781 75.375 16.144531 L 79.269531 16.144531 C 78.074219 17.839844 72.535156 25.847656 72.535156 25.847656 C 72.300781 26.144531 72.519531 26.578125 72.855469 26.578125 L 74.484375 26.550781 C 76.367188 26.5625 78.289062 26.542969 80.113281 26.554688 L 81.226562 26.5625 C 81.578125 26.5625 81.710938 26.535156 81.808594 26.285156 C 81.808594 26.285156 82.035156 25.429688 81.976562 24.917969 C 81.988281 24.75 81.917969 24.636719 81.789062 24.59375 "/>
<path style=" stroke:none;fill-rule:nonzero;fill:rgb(9.635925%,22.741699%,27.687073%);fill-opacity:1;" d="M 7.03125 20.769531 L 4.242188 20.769531 C 4.175781 20.769531 4.160156 20.722656 4.175781 20.65625 L 4.3125 20.328125 L 4.308594 20.328125 L 5.648438 17.0625 C 5.820312 17.5 6.515625 19.125 7.058594 20.519531 L 7.113281 20.671875 C 7.128906 20.722656 7.113281 20.769531 7.03125 20.769531 Z M 11.96875 25.945312 C 11.4375 25.894531 10.984375 25.144531 10.582031 24.347656 L 6.292969 14.121094 C 6.261719 14.046875 6.113281 13.894531 5.941406 13.894531 C 5.761719 13.890625 5.609375 14.042969 5.574219 14.121094 L 1.273438 24.535156 C 1.011719 25.09375 0.71875 25.871094 0.382812 25.90625 C 0.164062 25.929688 0 26.054688 0 26.238281 C 0 26.414062 0.167969 26.558594 0.375 26.5625 L 2.644531 26.566406 C 2.859375 26.566406 3.03125 26.421875 3.03125 26.242188 C 3.03125 26.0625 2.855469 25.945312 2.652344 25.914062 C 2.167969 25.769531 2.171875 25.613281 2.722656 24.191406 L 2.871094 23.816406 L 3.578125 22.097656 L 3.582031 22.097656 L 3.761719 21.65625 C 3.789062 21.605469 3.824219 21.585938 3.882812 21.585938 L 7.351562 21.585938 C 7.433594 21.585938 7.480469 21.621094 7.515625 21.703125 L 7.550781 21.785156 C 8.027344 23.015625 8.664062 24.195312 8.9375 24.898438 L 8.933594 24.898438 C 8.9375 24.902344 8.9375 24.90625 8.9375 24.910156 C 9.269531 25.617188 9.628906 26.570312 10.730469 26.570312 C 11.132812 26.570312 11.941406 26.574219 11.941406 26.574219 C 12.160156 26.570312 12.335938 26.429688 12.335938 26.257812 C 12.335938 26.09375 12.171875 25.953125 11.96875 25.945312 "/>
<path style=" stroke:none;fill-rule:nonzero;fill:rgb(9.635925%,22.741699%,27.687073%);fill-opacity:1;" d="M 21.53125 20.667969 C 21.101562 20.808594 20.085938 20.777344 19.742188 20.722656 L 19.742188 16.367188 C 19.75 16.308594 19.769531 16.292969 19.804688 16.285156 C 19.96875 16.261719 20.304688 16.21875 20.6875 16.21875 C 21.816406 16.21875 23.253906 16.972656 23.253906 18.367188 C 23.253906 19.980469 22.304688 20.425781 21.53125 20.667969 Z M 27.855469 25.996094 C 27.785156 25.988281 27.644531 25.972656 27.511719 25.949219 C 27.332031 25.914062 27.179688 25.867188 27.042969 25.8125 C 26.933594 25.765625 26.832031 25.714844 26.730469 25.660156 C 26.566406 25.566406 26.417969 25.464844 26.257812 25.367188 C 25.476562 24.804688 24.894531 24.011719 24.320312 23.238281 L 23.898438 22.675781 C 23.3125 21.90625 22.992188 21.550781 22.726562 21.34375 C 23.117188 21.203125 23.695312 20.910156 24.171875 20.386719 C 24.6875 19.820312 24.945312 19.140625 24.945312 18.359375 C 24.945312 18.265625 24.945312 18.164062 24.933594 18.066406 C 24.851562 17.0625 24.097656 16.308594 23.664062 16.019531 C 22.828125 15.433594 21.699219 15.355469 20.808594 15.355469 L 17.773438 15.382812 C 17.574219 15.382812 17.410156 15.511719 17.410156 15.671875 C 17.410156 15.824219 17.558594 15.953125 17.75 15.964844 C 17.96875 15.992188 18 16.042969 18.023438 16.28125 C 18.070312 18.15625 18.066406 18.8125 18.066406 19.640625 L 18.066406 22.234375 C 18.066406 23.183594 18.03125 24.871094 18.027344 24.96875 C 17.996094 25.753906 17.917969 25.945312 17.683594 25.976562 C 17.488281 26 17.320312 26.113281 17.320312 26.277344 C 17.320312 26.441406 17.484375 26.574219 17.683594 26.574219 L 17.6875 26.574219 C 17.6875 26.574219 20.253906 26.574219 20.257812 26.574219 C 20.457031 26.574219 20.617188 26.4375 20.617188 26.273438 C 20.617188 26.113281 20.464844 25.988281 20.261719 25.976562 C 19.761719 25.921875 19.800781 25.132812 19.761719 24.460938 C 19.757812 24.367188 19.753906 24.164062 19.753906 24.164062 C 19.742188 23.683594 19.742188 21.617188 19.742188 21.617188 C 19.742188 21.617188 19.847656 21.605469 19.929688 21.605469 L 20.03125 21.601562 C 20.398438 21.59375 21.058594 21.609375 21.578125 22.363281 C 21.578125 22.367188 21.746094 22.625 21.746094 22.625 C 22.207031 23.320312 23.367188 24.953125 24.320312 25.839844 C 24.816406 26.296875 25.683594 26.578125 26.472656 26.59375 L 26.367188 26.59375 C 26.429688 26.597656 26.605469 26.597656 26.675781 26.597656 L 27.433594 26.597656 C 27.550781 26.597656 27.816406 26.59375 27.839844 26.59375 C 28.035156 26.59375 28.199219 26.460938 28.199219 26.296875 C 28.199219 26.136719 28.046875 26.003906 27.855469 25.996094 "/>
<path style=" stroke:none;fill-rule:nonzero;fill:rgb(9.635925%,22.741699%,27.687073%);fill-opacity:1;" d="M 16.066406 15.367188 L 13.390625 15.367188 C 13.199219 15.371094 13.042969 15.5 13.042969 15.660156 C 13.042969 15.820312 13.207031 15.953125 13.40625 15.953125 C 13.789062 16.019531 13.808594 16.40625 13.820312 16.816406 L 13.828125 17.183594 C 13.835938 17.621094 13.835938 18.304688 13.835938 19.640625 L 13.835938 22.238281 C 13.835938 22.957031 13.832031 23.414062 13.832031 23.601562 L 13.796875 25.03125 C 13.773438 25.472656 13.757812 25.949219 13.425781 25.980469 C 13.226562 25.980469 13.0625 26.113281 13.0625 26.277344 C 13.0625 26.433594 13.21875 26.566406 13.410156 26.570312 L 16.050781 26.570312 C 16.242188 26.566406 16.394531 26.433594 16.394531 26.277344 C 16.394531 26.113281 16.234375 25.980469 16.035156 25.980469 C 15.703125 25.949219 15.683594 25.472656 15.664062 25.03125 L 15.628906 23.601562 C 15.625 23.1875 15.621094 22.730469 15.621094 22.242188 L 15.621094 19.640625 C 15.621094 18.304688 15.621094 17.621094 15.628906 17.183594 L 15.640625 16.816406 C 15.648438 16.40625 15.667969 16.019531 16.050781 15.953125 C 16.253906 15.953125 16.414062 15.820312 16.414062 15.65625 C 16.414062 15.5 16.261719 15.371094 16.066406 15.367188 "/>
</g>
</svg>
