<?xml version="1.0" encoding="UTF-8"?>
<svg xmlns="http://www.w3.org/2000/svg" xmlns:xlink="http://www.w3.org/1999/xlink" width="176pt" height="47.59pt" viewBox="0 0 176 47.59" version="1.1">
<defs>
<clipPath id="clip1">
  <path d="M 0 34 L 16 34 L 16 47.589844 L 0 47.589844 Z M 0 34 "/>
</clipPath>
</defs>
<g id="surface1">
<path style=" stroke:none;fill-rule:nonzero;fill:rgb(12.866211%,11.170959%,11.180115%);fill-opacity:1;" d="M 8.121094 16.328125 C 6.429688 16.328125 4.855469 15.804688 3.554688 14.921875 C 4.0625 14.300781 4.683594 13.792969 5.398438 13.417969 C 6.226562 13.847656 7.144531 14.09375 8.121094 14.09375 C 9.097656 14.09375 10.019531 13.847656 10.847656 13.417969 C 11.558594 13.792969 12.179688 14.300781 12.6875 14.921875 C 11.390625 15.804688 9.8125 16.328125 8.121094 16.328125 "/>
<path style=" stroke:none;fill-rule:nonzero;fill:rgb(97.483826%,91.017151%,2.378845%);fill-opacity:1;" d="M 1.886719 13.417969 C 0.683594 12.007812 -0.03125 10.167969 -0.03125 8.15625 C -0.03125 3.667969 3.632812 0.00390625 8.121094 0.00390625 C 12.613281 0.00390625 16.277344 3.667969 16.277344 8.15625 C 16.277344 10.167969 15.5625 12.007812 14.359375 13.417969 C 13.871094 14 13.308594 14.488281 12.6875 14.921875 C 12.179688 14.300781 11.558594 13.792969 10.847656 13.417969 C 11.785156 12.929688 12.59375 12.195312 13.15625 11.292969 C 13.71875 10.375 14.039062 9.304688 14.039062 8.15625 C 14.039062 4.90625 11.390625 2.238281 8.121094 2.238281 C 4.855469 2.238281 2.203125 4.90625 2.203125 8.15625 C 2.203125 9.585938 2.710938 10.898438 3.554688 11.933594 C 2.9375 12.347656 2.375 12.855469 1.886719 13.417969 "/>
<path style=" stroke:none;fill-rule:nonzero;fill:rgb(29.875183%,69.023132%,90.602112%);fill-opacity:1;" d="M 17.234375 31.886719 C 16.765625 31.886719 16.277344 31.847656 15.804688 31.773438 C 16.050781 31.097656 16.21875 30.363281 16.257812 29.59375 C 16.578125 29.648438 16.914062 29.667969 17.234375 29.667969 C 20.503906 29.667969 23.167969 27.019531 23.167969 23.75 C 23.167969 20.5 20.503906 17.832031 17.234375 17.832031 C 14.699219 17.832031 12.519531 19.449219 11.671875 21.722656 C 11.015625 21.402344 10.300781 21.15625 9.550781 21.027344 C 10.675781 17.871094 13.703125 15.597656 17.234375 15.597656 C 21.742188 15.597656 25.40625 19.261719 25.40625 23.75 C 25.40625 28.238281 21.742188 31.886719 17.234375 31.886719 "/>
<g clip-path="url(#clip1)" clip-rule="nonzero">
<path style=" stroke:none;fill-rule:nonzero;fill:rgb(29.875183%,69.023132%,90.602112%);fill-opacity:1;" d="M 8.121094 47.589844 C 3.632812 47.589844 -0.03125 43.910156 -0.03125 39.417969 C -0.03125 37.445312 0.664062 35.644531 1.828125 34.234375 C 2.316406 34.816406 2.863281 35.324219 3.480469 35.753906 C 2.675781 36.769531 2.203125 38.046875 2.203125 39.417969 C 2.203125 42.6875 4.855469 45.335938 8.121094 45.335938 C 10.621094 45.335938 12.761719 43.796875 13.628906 41.597656 C 14.285156 41.917969 14.996094 42.164062 15.75 42.3125 C 14.585938 45.394531 11.597656 47.589844 8.121094 47.589844 "/>
</g>
<path style=" stroke:none;fill-rule:nonzero;fill:rgb(92.58728%,11.372375%,15.159607%);fill-opacity:1;" d="M 4.382812 33.632812 C 4.664062 33.859375 4.949219 34.066406 5.265625 34.234375 C 4.949219 34.402344 4.664062 34.609375 4.382812 34.835938 Z M 4.382812 23.261719 L 4.382812 21.816406 C 5.511719 21.234375 6.769531 20.914062 8.121094 20.914062 C 9.851562 20.914062 11.449219 21.4375 12.761719 22.359375 C 13.382812 22.792969 13.925781 23.300781 14.414062 23.863281 C 14.996094 24.578125 15.46875 25.386719 15.785156 26.269531 C 15.035156 26.398438 14.320312 26.644531 13.664062 26.980469 C 13.4375 26.398438 13.136719 25.855469 12.761719 25.386719 C 12.742188 25.367188 12.726562 25.347656 12.707031 25.328125 C 12.6875 25.308594 12.6875 25.289062 12.667969 25.289062 C 12.648438 25.253906 12.632812 25.234375 12.613281 25.214844 C 12.59375 25.195312 12.59375 25.179688 12.574219 25.179688 C 12.554688 25.160156 12.535156 25.121094 12.519531 25.101562 C 12.5 25.085938 12.5 25.085938 12.480469 25.066406 C 12.460938 25.046875 12.445312 25.027344 12.425781 25.007812 C 12.40625 24.992188 12.386719 24.972656 12.386719 24.953125 C 12.367188 24.933594 12.347656 24.933594 12.332031 24.914062 C 12.3125 24.894531 12.292969 24.878906 12.273438 24.839844 C 12.253906 24.839844 12.253906 24.839844 12.253906 24.820312 C 12.21875 24.800781 12.199219 24.765625 12.160156 24.746094 L 12.144531 24.726562 C 12.105469 24.691406 12.085938 24.671875 12.046875 24.632812 C 12.011719 24.597656 11.972656 24.578125 11.933594 24.539062 C 10.902344 23.675781 9.570312 23.148438 8.121094 23.148438 C 7.089844 23.148438 6.132812 23.410156 5.285156 23.863281 C 4.964844 23.695312 4.664062 23.488281 4.382812 23.261719 Z M 3.480469 35.753906 C 1.359375 34.269531 -0.03125 31.808594 -0.03125 29.066406 C -0.03125 27.09375 0.664062 25.289062 1.828125 23.863281 C 2.316406 24.445312 2.863281 24.953125 3.480469 25.386719 C 2.675781 26.398438 2.203125 27.675781 2.203125 29.066406 C 2.203125 30.910156 3.050781 32.542969 4.382812 33.632812 L 4.382812 34.835938 C 4.042969 35.117188 3.746094 35.417969 3.480469 35.753906 Z M 4.382812 21.816406 L 4.382812 23.261719 C 4.042969 23 3.746094 22.699219 3.480469 22.359375 C 3.761719 22.152344 4.0625 21.984375 4.382812 21.816406 "/>
<path style=" stroke:none;fill-rule:nonzero;fill:rgb(97.483826%,91.017151%,2.378845%);fill-opacity:1;" d="M 3.480469 32.710938 C 4.796875 31.808594 6.394531 31.265625 8.121094 31.265625 C 12.613281 31.265625 16.277344 34.929688 16.277344 39.417969 C 16.277344 39.664062 16.277344 39.886719 16.257812 40.113281 C 15.449219 39.984375 14.699219 39.683594 14.039062 39.269531 C 13.945312 36.074219 11.335938 33.5 8.121094 33.5 C 7.089844 33.5 6.113281 33.765625 5.265625 34.234375 C 4.570312 33.859375 3.96875 33.332031 3.480469 32.710938 "/>
<path style=" stroke:none;fill-rule:nonzero;fill:rgb(29.875183%,69.023132%,90.602112%);fill-opacity:1;" d="M 8.121094 26.832031 C 3.632812 26.832031 -0.03125 23.167969 -0.03125 18.679688 C -0.03125 14.1875 3.632812 10.523438 8.121094 10.523438 C 9.8125 10.523438 11.390625 11.03125 12.6875 11.933594 C 12.179688 12.535156 11.558594 13.042969 10.847656 13.417969 C 10.019531 13.003906 9.097656 12.761719 8.121094 12.761719 C 4.855469 12.761719 2.203125 15.410156 2.203125 18.679688 C 2.203125 21.945312 4.855469 24.597656 8.121094 24.597656 C 9.15625 24.597656 10.113281 24.332031 10.960938 23.863281 C 11.65625 24.257812 12.273438 24.765625 12.761719 25.386719 C 11.449219 26.304688 9.851562 26.832031 8.121094 26.832031 "/>
<path style=" stroke:none;fill-rule:nonzero;fill:rgb(12.866211%,11.170959%,11.180115%);fill-opacity:1;" d="M 16.238281 17.90625 C 16.277344 18.171875 16.277344 18.414062 16.277344 18.679688 C 16.277344 20.652344 15.582031 22.453125 14.414062 23.863281 C 13.925781 23.300781 13.382812 22.792969 12.761719 22.359375 C 13.550781 21.363281 14.019531 20.125 14.039062 18.773438 C 14.699219 18.359375 15.449219 18.058594 16.238281 17.90625 "/>
<path style=" stroke:none;fill-rule:nonzero;fill:rgb(92.58728%,11.372375%,15.159607%);fill-opacity:1;" d="M 17.234375 42.445312 C 12.742188 42.445312 9.082031 38.78125 9.082031 34.289062 C 9.082031 34.046875 9.097656 33.820312 9.117188 33.578125 C 9.90625 33.726562 10.65625 34.027344 11.316406 34.441406 C 11.371094 36.46875 12.445312 38.234375 14.039062 39.269531 C 14.058594 39.269531 14.058594 39.269531 14.078125 39.269531 C 14.097656 39.304688 14.132812 39.324219 14.171875 39.34375 C 14.171875 39.34375 14.171875 39.34375 14.191406 39.34375 C 14.226562 39.363281 14.246094 39.382812 14.285156 39.402344 C 14.304688 39.417969 14.304688 39.417969 14.320312 39.417969 C 14.339844 39.4375 14.378906 39.457031 14.414062 39.476562 L 14.433594 39.492188 C 14.472656 39.511719 14.511719 39.53125 14.527344 39.550781 C 14.546875 39.550781 14.566406 39.550781 14.566406 39.570312 C 14.601562 39.589844 14.640625 39.589844 14.660156 39.605469 C 14.679688 39.605469 14.679688 39.625 14.699219 39.625 C 14.734375 39.644531 14.753906 39.664062 14.792969 39.683594 C 14.808594 39.683594 14.808594 39.683594 14.828125 39.683594 C 14.867188 39.703125 14.886719 39.71875 14.921875 39.738281 C 14.941406 39.738281 14.941406 39.738281 14.960938 39.738281 C 14.996094 39.757812 15.015625 39.777344 15.054688 39.792969 C 15.074219 39.792969 15.074219 39.792969 15.09375 39.792969 C 15.128906 39.8125 15.167969 39.832031 15.1875 39.832031 C 15.207031 39.851562 15.222656 39.851562 15.222656 39.851562 C 15.261719 39.871094 15.296875 39.871094 15.335938 39.886719 C 15.335938 39.886719 15.355469 39.886719 15.375 39.90625 C 15.394531 39.90625 15.429688 39.925781 15.46875 39.925781 C 15.484375 39.925781 15.484375 39.945312 15.503906 39.945312 C 15.542969 39.945312 15.5625 39.964844 15.597656 39.964844 C 15.617188 39.984375 15.636719 39.984375 15.65625 39.984375 C 15.675781 40.003906 15.710938 40.003906 15.75 40.019531 C 15.769531 40.019531 15.769531 40.019531 15.785156 40.019531 C 15.824219 40.039062 15.863281 40.039062 15.882812 40.039062 C 15.898438 40.058594 15.917969 40.058594 15.9375 40.058594 C 15.957031 40.058594 15.992188 40.078125 16.03125 40.078125 C 16.050781 40.078125 16.050781 40.078125 16.070312 40.09375 C 16.105469 40.09375 16.144531 40.09375 16.183594 40.113281 C 16.183594 40.113281 16.199219 40.113281 16.21875 40.113281 C 16.21875 40.113281 16.238281 40.113281 16.257812 40.113281 C 16.578125 40.171875 16.914062 40.207031 17.234375 40.207031 C 19.976562 40.207031 22.285156 38.328125 22.964844 35.8125 L 25.125 36.394531 C 24.183594 39.871094 21.011719 42.445312 17.234375 42.445312 "/>
<path style=" stroke:none;fill-rule:nonzero;fill:rgb(12.866211%,11.170959%,11.180115%);fill-opacity:1;" d="M 9.605469 31.398438 C 10.769531 28.335938 13.757812 26.136719 17.234375 26.136719 C 21.742188 26.136719 25.40625 29.800781 25.40625 34.289062 C 25.40625 35.003906 25.3125 35.71875 25.125 36.394531 L 22.964844 35.8125 C 23.09375 35.324219 23.167969 34.816406 23.167969 34.289062 C 23.167969 31.039062 20.503906 28.371094 17.234375 28.371094 C 14.753906 28.371094 12.613281 29.929688 11.730469 32.109375 C 11.070312 31.773438 10.355469 31.546875 9.605469 31.398438 "/>
<path style=" stroke:none;fill-rule:nonzero;fill:rgb(13.95874%,22.80426%,44.396973%);fill-opacity:1;" d="M 134.257812 31.621094 L 134.257812 28.765625 C 136.660156 28.617188 136.625 25.609375 135.363281 25.609375 L 134.257812 25.609375 L 134.257812 23.054688 L 139.554688 23.054688 C 145.246094 23.035156 144.984375 31.621094 136.058594 31.621094 Z M 151.914062 38.253906 C 152.761719 36.226562 157.269531 37.109375 158.398438 37.484375 L 158.019531 38.386719 C 157.421875 38.066406 156.59375 37.878906 155.972656 37.878906 C 155.597656 37.878906 155.277344 37.992188 155.222656 38.160156 C 155.148438 38.308594 155.390625 38.441406 155.765625 38.441406 C 158.492188 38.761719 159.28125 43.175781 150.808594 41.015625 L 151.257812 40.003906 C 151.878906 40.320312 152.855469 40.679688 153.585938 40.679688 C 153.964844 40.679688 154.171875 40.585938 154.246094 40.414062 C 154.320312 40.246094 154.226562 40.09375 153.851562 40.09375 C 152.984375 40.09375 151.539062 39.191406 151.914062 38.253906 Z M 138.238281 37.089844 L 143.367188 37.089844 L 143.03125 37.933594 L 140.945312 37.933594 L 140.511719 39.007812 L 142.578125 39.007812 L 142.351562 39.570312 L 140.269531 39.570312 L 139.890625 40.507812 L 141.976562 40.507812 L 141.546875 41.542969 L 136.433594 41.542969 Z M 162.097656 24.125 L 159.785156 23.054688 L 165.066406 23.054688 C 166.476562 22.699219 167.960938 22.492188 169.480469 22.492188 C 172.1875 22.492188 174.460938 23.128906 176 24.164062 L 175.136719 26.285156 C 174.289062 25.761719 172.917969 25.441406 171.511719 25.441406 C 168.484375 25.441406 165.59375 26.945312 165.066406 28.785156 C 164.523438 30.625 166.570312 32.09375 169.59375 32.09375 C 170.703125 32.09375 171.980469 31.90625 172.976562 31.546875 L 172.019531 33.859375 C 170.15625 34.554688 168.035156 34.964844 165.875 34.964844 C 160.21875 34.964844 156.40625 32.148438 157.402344 28.730469 C 157.925781 26.90625 159.695312 25.273438 162.097656 24.125 Z M 151.632812 34.742188 L 156.421875 23.054688 L 144.007812 23.054688 L 147.652344 24.746094 L 143.554688 34.742188 Z M 134.257812 23.054688 L 134.257812 25.609375 L 133.597656 25.609375 L 132.300781 28.765625 L 134.070312 28.765625 C 134.125 28.765625 134.179688 28.765625 134.257812 28.765625 L 134.257812 31.621094 L 131.082031 31.621094 L 129.804688 34.742188 L 121.707031 34.742188 L 125.800781 24.746094 L 122.15625 23.054688 Z M 83.34375 41.542969 L 83.34375 39.289062 C 84.246094 39.230469 84.246094 38.105469 83.757812 38.105469 L 83.34375 38.105469 L 83.34375 37.089844 L 84.601562 37.089844 C 86.988281 37.109375 86.6875 39.757812 84.488281 40.339844 L 85.128906 41.542969 Z M 83.34375 34.742188 L 83.34375 25.140625 L 84.320312 27.394531 L 87.890625 24.425781 L 84.921875 23.054688 L 93.941406 23.054688 L 85.691406 30.53125 L 83.964844 34.742188 Z M 126.515625 37.089844 L 128.882812 37.089844 L 127.058594 41.542969 L 124.695312 41.542969 L 123.980469 38.800781 L 122.851562 41.542969 L 120.484375 41.542969 L 122.308594 37.089844 L 124.675781 37.089844 L 125.371094 39.871094 Z M 95.199219 37.089844 L 98.242188 37.089844 L 96.851562 40.507812 L 98.9375 40.507812 L 98.503906 41.542969 L 93.394531 41.542969 Z M 108.988281 37.089844 L 112.03125 37.089844 L 110.207031 41.542969 L 107.164062 41.542969 Z M 116.277344 34.742188 L 108.199219 34.742188 L 109.757812 30.925781 L 105.304688 34.742188 L 103.839844 30.796875 L 102.222656 34.742188 L 94.128906 34.742188 L 98.242188 24.746094 L 94.597656 23.054688 L 106.863281 23.054688 L 108.386719 27.207031 L 111.617188 24.425781 L 108.648438 23.054688 L 121.066406 23.054688 Z M 70.175781 34.742188 L 56.046875 34.742188 L 60.144531 24.746094 L 56.496094 23.054688 L 68.914062 23.054688 L 65.402344 31.621094 L 71.453125 31.621094 Z M 83.34375 25.140625 L 83.34375 34.742188 L 75.886719 34.742188 L 77.613281 30.53125 L 75.097656 24.746094 L 71.453125 23.054688 L 82.441406 23.054688 Z M 83.34375 37.089844 L 83.34375 38.105469 L 83.097656 38.105469 L 82.613281 39.289062 L 83.289062 39.289062 C 83.304688 39.289062 83.324219 39.289062 83.34375 39.289062 L 83.34375 41.542969 L 82.648438 41.542969 L 82.105469 40.527344 L 81.671875 41.542969 L 78.648438 41.542969 L 80.433594 37.089844 Z M 54.242188 40.828125 L 54.242188 39.777344 L 54.882812 39.777344 L 54.695312 38.253906 L 54.242188 38.875 L 54.242188 37.089844 L 57.585938 37.089844 L 58.171875 41.542969 L 55.125 41.542969 L 55.03125 40.828125 Z M 54.242188 29.460938 L 54.242188 26.679688 C 54.527344 27.414062 54.582031 28.203125 54.375 29.046875 C 54.335938 29.179688 54.28125 29.328125 54.242188 29.460938 Z M 68.277344 37.089844 L 71.320312 37.089844 L 69.515625 41.542969 L 66.472656 41.542969 Z M 54.242188 26.679688 L 54.242188 29.460938 C 53.152344 32.390625 48.964844 34.816406 44.230469 35.265625 L 44.230469 32.109375 C 45.09375 31.492188 45.941406 30.382812 46.410156 29.085938 C 47.105469 27.152344 46.691406 25.554688 45.488281 25.554688 C 45.09375 25.554688 44.660156 25.742188 44.230469 26.042969 L 44.230469 22.792969 C 44.757812 22.734375 45.28125 22.71875 45.828125 22.71875 C 50.09375 22.71875 53.324219 24.351562 54.242188 26.679688 Z M 54.242188 37.089844 L 54.242188 38.875 L 53.585938 39.777344 L 54.242188 39.777344 L 54.242188 40.828125 L 52.816406 40.828125 L 52.308594 41.542969 L 50.730469 41.542969 L 53.941406 37.089844 Z M 44.230469 22.792969 L 44.230469 26.042969 C 43.367188 26.644531 42.5 27.789062 42.050781 29.085938 C 41.335938 31.023438 41.75 32.601562 42.953125 32.601562 C 43.347656 32.601562 43.796875 32.410156 44.230469 32.109375 L 44.230469 35.265625 C 43.683594 35.324219 43.121094 35.363281 42.578125 35.363281 C 37.65625 35.363281 34.085938 33.164062 33.917969 30.269531 L 33.917969 29.816406 C 33.917969 29.554688 33.972656 29.3125 34.027344 29.046875 C 34.535156 27.113281 36.378906 25.386719 38.875 24.21875 L 36.359375 23.054688 L 42.445312 23.054688 C 43.027344 22.941406 43.628906 22.847656 44.230469 22.792969 "/>
</g>
</svg>
