<svg xmlns="http://www.w3.org/2000/svg" width="176pt" height="63.453" viewBox="0 0 176 47.59"><defs><clipPath id="a"><path d="M0 34h16v13.59H0Zm0 0"/></clipPath></defs><path d="M8.121 16.328a8.1 8.1 0 0 1-4.566-1.406 5.9 5.9 0 0 1 1.843-1.504c.829.43 1.747.676 2.723.676.977 0 1.899-.246 2.727-.676.71.375 1.332.883 1.84 1.504a8.1 8.1 0 0 1-4.567 1.406" style="stroke:none;fill-rule:nonzero;fill:#211c1d;fill-opacity:1"/><path d="M1.887 13.418A8.07 8.07 0 0 1-.031 8.156C-.031 3.668 3.633.004 8.12.004c4.492 0 8.156 3.664 8.156 8.152a8.07 8.07 0 0 1-1.918 5.262 8.5 8.5 0 0 1-1.671 1.504 6 6 0 0 0-1.84-1.504 6 6 0 0 0 2.308-2.125 5.97 5.97 0 0 0 .883-3.137c0-3.25-2.648-5.918-5.918-5.918-3.266 0-5.918 2.668-5.918 5.918 0 1.43.508 2.742 1.352 3.778a8.5 8.5 0 0 0-1.668 1.484" style="stroke:none;fill-rule:nonzero;fill:#f9e806;fill-opacity:1"/><path d="M17.234 31.887a9 9 0 0 1-1.43-.114c.247-.675.415-1.41.454-2.18.32.055.656.075.976.075 3.27 0 5.934-2.648 5.934-5.918 0-3.25-2.664-5.918-5.934-5.918-2.535 0-4.714 1.617-5.562 3.89a8 8 0 0 0-2.121-.695c1.125-3.156 4.152-5.43 7.683-5.43 4.508 0 8.172 3.665 8.172 8.153s-3.664 8.137-8.172 8.137" style="stroke:none;fill-rule:nonzero;fill:#4cb0e7;fill-opacity:1"/><g clip-path="url(#a)"><path d="M8.121 47.59c-4.488 0-8.152-3.68-8.152-8.172 0-1.973.695-3.773 1.86-5.184a8.5 8.5 0 0 0 1.651 1.52 5.9 5.9 0 0 0-1.277 3.664 5.92 5.92 0 0 0 5.918 5.918c2.5 0 4.64-1.54 5.508-3.738a8.6 8.6 0 0 0 2.121.715c-1.164 3.082-4.152 5.277-7.629 5.277" style="stroke:none;fill-rule:nonzero;fill:#4cb0e7;fill-opacity:1"/></g><path d="M4.383 33.633c.281.226.566.433.883.601a5.6 5.6 0 0 0-.883.602Zm0-10.371v-1.446a8.1 8.1 0 0 1 3.738-.902c1.73 0 3.328.523 4.64 1.445a9 9 0 0 1 1.653 1.504 8.2 8.2 0 0 1 1.371 2.407 7.4 7.4 0 0 0-2.12.71 6 6 0 0 0-.903-1.593c-.02-.02-.035-.04-.055-.059-.02-.02-.02-.039-.039-.039a.3.3 0 0 0-.055-.074c-.02-.02-.02-.035-.039-.035-.02-.02-.039-.059-.054-.078-.02-.016-.02-.016-.04-.036s-.035-.039-.054-.058c-.02-.016-.04-.035-.04-.055-.019-.02-.038-.02-.054-.039-.02-.02-.039-.035-.059-.074-.02 0-.02 0-.02-.02-.034-.02-.054-.054-.093-.074l-.015-.02c-.04-.035-.06-.054-.098-.093-.035-.035-.074-.055-.113-.094a5.93 5.93 0 0 0-3.813-1.39 6 6 0 0 0-2.836.714 5.6 5.6 0 0 1-.902-.601M3.48 35.754C1.36 34.27-.03 31.809-.03 29.066c0-1.972.695-3.777 1.86-5.203a8.6 8.6 0 0 0 1.651 1.524 5.88 5.88 0 0 0-1.277 3.68c0 1.843.848 3.476 2.18 4.566v1.203c-.34.281-.637.582-.903.918m.903-13.938v1.446a5 5 0 0 1-.903-.903c.282-.207.583-.375.903-.543" style="stroke:none;fill-rule:nonzero;fill:#ec1d27;fill-opacity:1"/><path d="M3.48 32.71a8.2 8.2 0 0 1 4.641-1.444c4.492 0 8.156 3.664 8.156 8.152 0 .246 0 .469-.02.695a5.9 5.9 0 0 1-2.218-.843c-.094-3.196-2.703-5.77-5.918-5.77a5.9 5.9 0 0 0-2.855.734 5.8 5.8 0 0 1-1.786-1.523" style="stroke:none;fill-rule:nonzero;fill:#f9e806;fill-opacity:1"/><path d="M8.121 26.832c-4.488 0-8.152-3.664-8.152-8.152 0-4.492 3.664-8.157 8.152-8.157 1.691 0 3.27.508 4.567 1.41a6.2 6.2 0 0 1-1.84 1.485 6.1 6.1 0 0 0-2.727-.656 5.92 5.92 0 0 0-5.918 5.918 5.92 5.92 0 0 0 5.918 5.918 5.8 5.8 0 0 0 2.84-.735 6.1 6.1 0 0 1 1.8 1.524 8.05 8.05 0 0 1-4.64 1.445" style="stroke:none;fill-rule:nonzero;fill:#4cb0e7;fill-opacity:1"/><path d="M16.238 17.906c.04.266.04.508.04.774a8.08 8.08 0 0 1-1.864 5.183 9 9 0 0 0-1.652-1.504 5.88 5.88 0 0 0 1.277-3.586 6.5 6.5 0 0 1 2.2-.867" style="stroke:none;fill-rule:nonzero;fill:#211c1d;fill-opacity:1"/><path d="M17.234 42.445c-4.492 0-8.152-3.664-8.152-8.156 0-.242.016-.469.035-.71.79.148 1.54.448 2.2.862a5.94 5.94 0 0 0 2.722 4.829h.04c.019.035.054.054.093.074h.02c.035.02.054.039.093.058.02.016.02.016.035.016.02.02.059.039.094.059l.02.015c.039.02.078.04.093.059.02 0 .04 0 .04.02.035.019.074.019.093.034.02 0 .02.02.04.02.034.02.054.04.093.059h.035c.04.02.059.035.094.054h.039c.035.02.055.04.094.055h.039a.3.3 0 0 0 .094.039c.019.02.035.02.035.02.039.02.074.02.113.035 0 0 .02 0 .039.02.02 0 .055.019.094.019.015 0 .015.02.035.02.039 0 .059.019.094.019.02.02.039.02.058.02.02.019.055.019.094.035h.035c.04.02.078.02.098.02.015.019.035.019.055.019s.054.02.093.02c.02 0 .02 0 .04.015a.24.24 0 0 1 .113.02h.074c.32.058.656.093.976.093 2.743 0 5.051-1.879 5.73-4.395l2.161.583c-.941 3.476-4.113 6.05-7.89 6.05" style="stroke:none;fill-rule:nonzero;fill:#ec1d27;fill-opacity:1"/><path d="M9.605 31.398c1.165-3.062 4.153-5.261 7.63-5.261 4.507 0 8.171 3.664 8.171 8.152a8 8 0 0 1-.281 2.106l-2.16-.583c.129-.488.203-.996.203-1.523 0-3.25-2.664-5.918-5.934-5.918-2.48 0-4.62 1.559-5.504 3.738a8.2 8.2 0 0 0-2.125-.71" style="stroke:none;fill-rule:nonzero;fill:#211c1d;fill-opacity:1"/><path d="M134.258 31.621v-2.855c2.402-.149 2.367-3.157 1.105-3.157h-1.105v-2.554h5.297c5.691-.02 5.43 8.566-3.496 8.566Zm17.656 6.633c.848-2.027 5.356-1.145 6.484-.77l-.378.903c-.598-.32-1.426-.508-2.047-.508-.375 0-.696.113-.75.281-.075.149.168.281.543.281 2.726.32 3.515 4.735-4.957 2.575l.449-1.012c.62.316 1.597.676 2.328.676.379 0 .586-.094.66-.266.074-.168-.02-.32-.394-.32-.868 0-2.313-.903-1.938-1.84m-13.676-1.164h5.13l-.337.844h-2.086l-.433 1.074h2.066l-.226.562h-2.082l-.38.938h2.087l-.43 1.035h-5.113Zm23.86-12.965-2.313-1.07h5.281a18 18 0 0 1 4.414-.563c2.708 0 4.98.637 6.52 1.672l-.863 2.121c-.848-.523-2.219-.844-3.625-.844-3.028 0-5.918 1.504-6.446 3.344-.543 1.84 1.504 3.309 4.528 3.309 1.11 0 2.386-.188 3.383-.547l-.957 2.312a17.8 17.8 0 0 1-6.145 1.106c-5.656 0-9.469-2.817-8.473-6.235.524-1.824 2.293-3.457 4.696-4.605m-10.465 10.617 4.789-11.687h-12.414l3.644 1.691-4.097 9.996Zm-17.375-11.687v2.554h-.66l-1.297 3.157h1.957v2.855h-3.176l-1.277 3.121h-8.098l4.094-9.996-3.645-1.691ZM83.344 41.543v-2.254c.902-.059.902-1.184.414-1.184h-.414V37.09h1.258c2.386.02 2.085 2.668-.114 3.25l.64 1.203Zm0-6.8V25.14l.976 2.254 3.57-2.97-2.968-1.37h9.02l-8.25 7.476-1.727 4.211Zm43.172 2.347h2.367l-1.824 4.453h-2.364l-.715-2.742-1.128 2.742h-2.368l1.825-4.453h2.367l.695 2.781Zm-31.317 0h3.043l-1.39 3.418h2.085l-.433 1.035h-5.11Zm13.79 0h3.042l-1.824 4.453h-3.043Zm7.288-2.348H108.2l1.559-3.816-4.453 3.816-1.465-3.945-1.617 3.945h-8.094l4.113-9.996-3.644-1.691h12.265l1.524 4.152 3.23-2.781-2.969-1.371h12.418Zm-46.101 0h-14.13l4.099-9.996-3.649-1.691h12.418l-3.512 8.566h6.051Zm13.168-9.601v9.601h-7.457l1.726-4.21-2.515-5.786-3.645-1.691h10.988Zm0 11.949v1.015h-.246l-.485 1.184h.731v2.254h-.696l-.543-1.016-.433 1.016h-3.024l1.786-4.453Zm-29.102 3.738v-1.05h.64l-.187-1.524-.453.621V37.09h3.344l.586 4.453h-3.047l-.094-.715Zm0-11.367V26.68c.285.734.34 1.523.133 2.367-.04.133-.094.281-.133.414m14.035 7.629h3.043l-1.804 4.453h-3.043ZM54.242 26.68v2.78c-1.09 2.93-5.277 5.356-10.012 5.806v-3.157c.864-.617 1.711-1.726 2.18-3.023.695-1.934.281-3.531-.922-3.531-.394 0-.828.187-1.258.488v-3.25c.528-.059 1.051-.074 1.598-.074 4.266 0 7.496 1.633 8.414 3.96m0 10.41v1.785l-.656.902h.656v1.051h-1.426l-.507.715H50.73l3.211-4.453ZM44.23 22.793v3.25c-.863.602-1.73 1.746-2.18 3.043-.714 1.937-.3 3.516.903 3.516.395 0 .844-.192 1.277-.493v3.157c-.546.058-1.109.097-1.652.097-4.922 0-8.492-2.199-8.66-5.093v-.454c0-.261.055-.503.11-.77.507-1.933 2.35-3.66 4.847-4.827l-2.516-1.164h6.086a18 18 0 0 1 1.785-.262" style="stroke:none;fill-rule:nonzero;fill:#243a71;fill-opacity:1"/></svg>