<svg xmlns="http://www.w3.org/2000/svg" width="179pt" height="64.92" viewBox="0 0 179 48.69"><defs><clipPath id="a"><path d="M0 0h34v48.691H0Zm0 0"/></clipPath></defs><path d="M48.691 29.793c-2.78 2.203-7.535 6.262-9.62 6.84-1.856-.23-3.481-2.781-4.176-4.637-6.028 4.172-21.098 7.418-25.735 3.711-1.625-1.277-2.668-2.32-2.668-3.828 0-.926.23-1.738.578-2.664.348-.93 1.043-1.973 1.856-3.016l2.668-3.363c-7.188-.695-3.13-4.055 3.824-4.055 2.434-2.437 4.871-4.87 6.492-5.914 1.625-1.043 3.016-1.508 4.29-1.508.116 0 .234 0 .347.118.117.113.117.23.117.347 0 .114 0 .23-.117.465-.113.23-.23.348-.461.578l-4.29 4.754c4.056-.582 7.536-1.508 10.087-2.668 2.55-1.16 3.594-2.433 3.594-3.594 0-.695-.465-1.273-1.391-1.62-.93-.466-2.09-.583-3.598-.583-2.086 0-4.52.235-7.187.813-2.664.465-5.45 1.273-8.578 2.32 1.043.348 1.16.926.234 1.738l-6.262 1.621c-.695.118-4.636 2.086-3.828-.812.7-2.547 3.594-6.027 5.102-6.953.695-.465 1.625-.93 2.898-1.278 6.262-1.855 18.32-4.867 24.926-1.043 3.941 3.364.695 9.274-3.594 10.782-3.824 1.277-8.46 2.898-14.953 3.593l-1.394 1.278c3.597.695 20.87 1.508 14.03 9.504-.347.347-.695.812-1.042 1.16 1.273-.578 2.664-1.39 3.941-2.781.23-.465.461-.926.809-1.391.93-1.277 2.09-2.55 3.71-3.594 3.595-2.55 8-4.636 12.52-5.218.582-.114 2.09.117 2.668.695.465.582.696.812.926 1.277.117.113 0 .461-.113.578-.348.235-1.16.696-1.625.93 1.972 1.043 2.09 2.2-.926 5.563-4.871 6.609.926 5.68 5.797.812v-.117c1.273-1.274 2.433-2.434 3.36-3.477.929-1.043 1.277-1.508 2.09-2.55-1.395-.231-3.712.464-4.29 0-.234-.348.695-1.739 1.504-2.669 2.09-2.78 3.594-2.898 6.84-3.011.117-.235.582-.582.695-.93 1.742-3.941 9.277-5.101 3.945.813.809 0 2.317.464 2.782.23.117-.113-.348 1.742-.696 2.203-.695 1.278-1.972 2.899-2.785 3.246-.344.235-1.851.348-2.433.348-.461 0-.813-.113-1.043-.113s-.465.113-.696.113c-1.39 1.625-2.433 3.246-3.246 4.988-.812 1.738-1.273 3.36-1.273 4.637 0 .46.113.812.347 1.043q.346.346 1.043.348c.696 0 1.739-.465 3.246-1.391 1.274-.813 3.012-2.086 5.102-3.828.23-.461.461-1.043.695-1.621 2.204-6.028 12.985-10.086 7.996-2.434-1.039 1.621-2.78 3.012-4.867 4.637-.117.348-.117.578-.23.926 0 .23 0 .464-.117.695-.579 1.625.578 2.55 2.433 2.203.813-.117 1.973-.465 3.364-1.39a22 22 0 0 0 3.593-2.669c.348-1.273.926-2.664 1.625-4.054 1.274-2.438 3.477-5.102 6.606-8.582 2.898-3.246 11.476-10.782 13.68-10.664.347 0 .581.117.812.347.23.23.348.465.348.813 0 1.043-2.434 3.824-5.797 7.883-3.36 4.058-8.813 8.695-14.375 14.375v1.625c3.015-3.016 14.957-12.637 16.46-11.364 6.727 5.914-5.445 10.551-7.07 11.825l-.465.347c2.551 4.985 7.422.348 11.825-3.36l.465 1.852c-2.899 2.899-5.215 4.872-7.07 6.032-2.552 1.62-4.985 2.664-7.305.46-.926-.925-2.551-2.546-3.594-4.75-1.508.696-1.508 1.157-2.086 2.204-1.856 3.707-4.29 3.246-4.29-2.438-1.624 1.739-3.015 3.016-4.288 3.942-1.625 1.16-3.246 1.742-4.524 1.742-1.39 0-2.55-.582-3.363-1.625-.809-1.043-1.156-2.55-1.156-4.406a44 44 0 0 1-5.797 4.636c-2.203 1.395-4.059 2.203-5.45 2.203-1.042 0-1.738-.23-2.32-.808-.578-.465-.812-1.278-.812-2.203 0-.813.117-1.625.465-2.551.347-.93.812-1.973 1.39-3.016-1.968 3.711-18.433 16.348-11.129.348M16.578 23.07l-2.203 2.434c-.578.695-1.043 1.273-1.39 1.969-.348.582-.579 1.16-.579 1.507 0 .696.461 1.278 1.504 1.739 1.047.582 2.203.812 3.598.812 2.433 0 4.75-.578 7.07-1.738s3.477-2.203 3.477-3.246c0-.695-1.043-1.39-3.012-1.973-1.973-.695-4.754-1.156-8.465-1.504m78.602 5.91 1.855 1.043c2.203-1.62 4.524-3.011 5.45-3.824 3.593-3.246-.813-2.086-2.32-1.043-1.392 1.043-3.247 2.203-4.985 3.824M82.543 17.734c0-1.043.465-1.968 1.39-2.898.93-.926 1.856-1.39 2.786-1.39.46 0 .926.117 1.16.347.23.234.344.695.344 1.16 0 .93-.461 1.856-1.391 2.781-.926 1.047-1.738 1.508-2.664 1.508-.465 0-.93-.113-1.277-.46q-.346-.351-.348-1.048m-31.184 5.684C36.98 27.242 36.98 33.27 39.418 33.27c.809 0 2.316-.926 4.754-2.899 2.433-2.086 4.75-3.941 7.187-6.953" style="stroke:none;fill-rule:nonzero;fill:#c01953;fill-opacity:1"/><g clip-path="url(#a)"><path d="M28.867.348C26.2 2.898 16.926 16.46 8.347 27.125L7.07 28.633l-.23 1.277c0 .23-10.899.695-4.871 14.258-.696 1.16-1.274 1.16-1.39 4.176a.75.75 0 0 0 .694 0c.118-1.856.582-3.246 2.899-4.989 2.09-1.738 8.234-6.375 9.738-12.054.117-.578.352-1.043.582-1.625L33.504 3.359S31.07-.695 28.867.348" style="stroke:none;fill-rule:nonzero;fill:#f9de05;fill-opacity:1"/></g><path d="M30.84 2.434c-2.55 3.129-9.625 13.796-18.203 24.46l-1.508.118c2.437 1.273 1.973 2.086 2.781 4.172.117.234.352-1.16.582-1.508L33.504 3.359S32.578 1.74 31.3.81c-.578-.461.695 1.39-.461 1.625" style="stroke:none;fill-rule:nonzero;fill:#e2ac11;fill-opacity:1"/><path d="M32.344 3.594c-2.551 3.129-8.114 12.402-16.692 23.183-.117-.46-.234-.925-.117-1.504-1.508 1.043-2.55 3.477-1.625 6.028.117-.582.582-1.278.582-1.625L33.504 3.359c-.113-.113-.23-1.16-1.16-1.855-.578-.461.695 1.508 0 2.09M8.465 33.852C8 36.98 5.915 38.14 5.449 38.605c-.117.114 0 2.086-.23 3.942 1.851-1.973 11.476-10.55 4.867-13.914 2.898 2.32-.813 4.984-1.621 5.219" style="stroke:none;fill-rule:nonzero;fill:#6e3418;fill-opacity:1"/><path d="M6.027 37.098c4.059-3.942.118-7.305-2.664-4.754-4.175 3.824-.582 8 2.664 4.754" style="stroke:none;fill-rule:nonzero;fill:#512c1b;fill-opacity:1"/><path d="M134.48 27.938c-.925.812-10.316 8.578-11.824 8.347-3.129-.347-6.492-6.492-4.867-9.508.578-1.043 1.273-2.55 2.55-3.824 4.056-4.172 11.36-7.535 17.735-8.926.696-.117 1.395-.117 2.32-.117 1.626.465 3.13 1.738 3.012 3.016 0 .23-.113.347-.23.46-.113.118-.461.235-.813.466l-1.043.582c1.16.347 1.625 1.043 1.743 1.968.23 1.625-1.743 3.594-3.247 5.45-2.902 3.476-2.55 6.722 1.739 4.636 2.78-1.273 6.84-5.332 9.504-7.304 3.593-3.825 9.738-4.868 6.144.93-1.043 1.62-3.012 3.011-5.098 4.636 0 .117-.464.926-.464 1.043 0 1.855.925 2.898 2.664 2.668 1.625-.234 3.015-1.043 4.175-2.09 1.274-1.156 2.434-2.433 3.594-3.941-.347 0-.93 0-1.043-.348-1.277-1.969 1.274-4.984 1.856-5.562.113-.118 3.824-3.711 4.75-1.973.234.348-.114 1.39-.348 1.738 1.508-.113 2.785-.46 4.406-.578.696-.117 2.668-.465 2.899-.117 1.855 1.973 1.742 3.71-.23 5.45-1.856 1.624-3.016 3.128-3.594 4.175-1.16 1.969-.235 3.476 2.085 2.664 1.391-.461 3.247-2.086 5.45-4.059l.465 1.625c-2.786 3.016-5.45 5.22-7.305 6.493-4.871 3.128-7.305-1.622-5.332-5.68.695-1.508 1.969-3.246 3.941-5.102-1.16.23-2.203.465-3.015.578-.813.118-1.508.235-2.204.348-.695 1.043-1.042 1.738-1.855 2.668-2.434 2.668-4.754 5.332-6.492 6.61-1.621 1.156-3.36 1.968-4.75 1.968-3.598.117-4.524-3.71-4.406-6.375 0-.348.113-.695.113-.93-4.172 4.059-11.13 8.348-12.29 8.235-5.792-.813-1.39-8.117-.695-10.32m22.723-10.665c-.113-1.043.465-1.972 1.395-2.898.925-1.043 4.172-2.203 4.402.23.117.813-.46 1.739-1.273 2.782-.93 1.047-1.739 1.508-2.668 1.508-.461 0-.926-.114-1.274-.461-.465-.352-.582-.7-.582-1.16m-19.242 2.551c-6.262 1.621-9.738 3.824-12.059 4.867-5.562 2.782-6.144 12.172 2.551 3.942 2.668-2.317 6.375-5.45 9.508-8.809M29.445 9.156a59 59 0 0 0-5.91.696c-.812.117-1.625.347-2.437.464-1.97.465-3.942 1.043-6.141 1.739 1.043.347 1.156.93.23 1.738l-6.261 1.625c-.696.117-4.637 2.086-3.824-.813.695-2.55 3.593-6.027 5.101-6.957.695-.46 1.621-.925 2.899-1.273 3.246-.93 7.996-2.203 12.75-2.668 2.437-.23 4.87-.23 7.187.117z" style="stroke:none;fill-rule:nonzero;fill:#c01953;fill-opacity:1"/></svg>