<svg xmlns="http://www.w3.org/2000/svg" width="176pt" height="77.92" viewBox="0 0 176 58.44"><defs><clipPath id="a"><path d="M0 0h58v58.441H0Zm0 0"/></clipPath><clipPath id="b"><path d="M57 40h119v18.441H57Zm0 0"/></clipPath></defs><g clip-path="url(#a)"><path d="M33.508 36.332H22.672l.871-3.684h6.969c2.383.012 3.539-2.078 1.84-3.242-1.672-1.164-2.754-2.093-4.41-3.273-3.356-2.38-1.774-7.922 3.851-7.953h10.219l-.89 3.629h-6.856c-1.883-.032-2.297 2.043-1.075 2.8l4.387 3.258c3.621 2.73 1.496 8.457-4.07 8.465m12.449 19.805c-1.098 2.031-3.687 2.879-5.77 1.89-11.093-5.285-20.874-12.687-29-21.695H21.32l.907-3.656H15.82c-.183-.004-.367.004-.547-.016-.964-.129-1.527-.531-1.843-1.023s-.41-1.047-.34-1.492c.008-.114.34-1.512.363-1.63l.008-.035.953-3.824h.004c.422-1.77 1.902-2.828 3.875-2.879h6.566l.875-3.625H21.22l-5.684 2.13.547-2.13h-.805c-1.824-.023-3.097.141-3.992.559-.808.375-1.418.992-1.672 1.918l-2.62 10.73a98 98 0 0 1-6.337-9.058c-1.21-1.946-.71-4.633 1.223-5.95C16.82 6.162 34.489.422 52.574 0c2.344-.055 4.328 1.785 4.524 4.105.382 4.704.39 9.422.035 14.11l-9.649-.004-9.148 18.082h6.684l1.078-2.406c.105-.242.215-.32.53-.313l4.794-.004c.094-.004.293.035.3.27l.063 2.453h2.168a96.4 96.4 0 0 1-7.996 19.844m5.652-25.84-.218-7.399c-.008-.261-.23-.277-.344-.02l-3.367 7.474c-.14.289-.055.574.199.55h3.379c.289-.015.383-.25.351-.605" style="stroke:none;fill-rule:evenodd;fill:#ed1c24;fill-opacity:1"/></g><path d="M104.223 20.813q-1.067.002-1.825.332-.734.323-1.175.968v.004l-.008.004c-.078.117-.16.254-.235.399a5 5 0 0 0-.203.48c-.18.488-.308 1.695-.39 2.945h10.261v2.66h-10.367q-.005.143-.004.274.001 1.4.23 2.375.226.937.65 1.465h.003c.281.34.668.601 1.16.773.516.18 1.153.274 1.903.274h6.425v2.656h-6.636a18 18 0 0 1-2.13-.121 8 8 0 0 1-1.187-.242l-.011-.004a6 6 0 0 1-.688-.246 7.2 7.2 0 0 1-1.644-1.004 6.5 6.5 0 0 1-1.25-1.313 7.3 7.3 0 0 1-.883-1.64l-.004-.012h-.004a7.773 7.773 0 0 1-.336-1.062c-.238-.942-.36-2.005-.36-3.18q-.001-2.374.52-4.145c.352-1.203.883-2.187 1.59-2.969l.008-.007a6.394 6.394 0 0 1 1.383-1.129c1.324-.797 3.035-1.2 5.132-1.2h6.5v2.665Zm29.336-2.293v7.425h6.043v-7.797h4.418v18.274h-4.418v-7.817h-6.043v7.817h-4.414V18.148h4.414Zm-49.45 15.246h10.063v2.656h-15.54v-2.817L89.2 20.813H78.633v-2.665h15.539V21ZM70.645 20.813q-1.074.002-1.825.332-.733.323-1.18.968v.004l-.003.004c-.082.117-.16.254-.235.399a5 5 0 0 0-.203.48c-.332.91-.5 4.328-.5 5.879q.001 1.4.23 2.375c.15.625.364 1.113.653 1.465.277.34.668.601 1.16.773.516.18 1.153.274 1.903.274h6.425v2.656h-6.636a18 18 0 0 1-2.13-.121 8 8 0 0 1-1.19-.242l-.009-.004a5 5 0 0 1-.347-.114 12 12 0 0 1-.34-.132v-.004a7 7 0 0 1-1.648-1 6.5 6.5 0 0 1-1.247-1.313 7.3 7.3 0 0 1-.886-1.64l-.004-.012c-.067-.172-.133-.344-.184-.516a11 11 0 0 1-.156-.547c-.238-.941-.36-2.004-.36-3.18q.002-2.373.52-4.144c.356-1.203.887-2.187 1.594-2.969l.004-.007q.294-.322.652-.61a6 6 0 0 1 .734-.52c1.325-.796 3.036-1.199 5.133-1.199h6.5v2.665Zm50.097 0q-1.073.002-1.824.332-.733.323-1.18.968v.004l-.008.004a4 4 0 0 0-.437.879c-.328.91-.496 4.328-.496 5.879q.001 1.4.23 2.375.223.937.649 1.465h.004c.28.34.668.601 1.16.773.515.18 1.148.274 1.902.274h6.426v2.656h-6.637c-.691 0-1.308-.031-1.867-.09-.086-.008-.168-.02-.262-.031a7.6 7.6 0 0 1-1.187-.242h-.004l-.008-.004a5 5 0 0 1-.348-.114 12 12 0 0 1-.34-.132 7.2 7.2 0 0 1-1.648-1.004 6.6 6.6 0 0 1-1.246-1.313 7.3 7.3 0 0 1-.887-1.64l-.004-.012a7 7 0 0 1-.183-.516 8 8 0 0 1-.156-.547c-.239-.941-.356-2.004-.356-3.18q-.001-2.373.52-4.144c.351-1.203.882-2.187 1.59-2.969l.003-.007a6.4 6.4 0 0 1 1.387-1.13c1.324-.796 3.035-1.199 5.13-1.199h6.503v2.665z" style="stroke:none;fill-rule:evenodd;fill:#2756a2;fill-opacity:1"/><g clip-path="url(#b)"><path d="M85.477 40.168h9.074q1.641 0 2.847.328 1.242.341 2.043 1.027l.012.012c.149.13.29.274.422.422a4 4 0 0 1 .355.488c.547.867.825 1.989.825 3.36 0 .703-.086 1.347-.246 1.925a5 5 0 0 1-.739 1.579l-.007.007c-.098.141-.2.266-.297.371-.098.114-.215.223-.332.333h.004q-.723.644-1.731.953l4.125 6.914.332.554H97.16l-.105-.187-3.766-6.715h-3.766v6.902h-4.418V40.168Zm8.203 2.66h-4.157v6.07h4.157c1.148 0 1.933-.238 2.347-.714l.004-.004h-.004q.083-.093.141-.192.064-.098.121-.226h.004q.293-.675.293-1.91 0-1.688-.543-2.32c-.188-.227-.477-.395-.848-.516q-.608-.188-1.515-.188m72.754.184c-1.813 0-3.336.781-3.309 2.617.012.867.484 2.305 2.555 2.332h4.37c1.02 0 2.067.09 3.04.41q.914.3 1.504.828c1.21 1.082 1.406 1.969 1.406 3.625v.008c-.004 1.566-.375 3.188-1.61 4.246-1.05.906-2.683 1.363-4.89 1.363h-10.184v-2.824h9.325c2.047 0 2.8-1.36 2.847-2.293.063-1.238-.468-2.703-2.558-2.703h-4.121c-1.59 0-3.414-.219-4.664-1.297h-.004l-.012-.011c-.941-.82-1.52-2.168-1.52-3.41 0-1.587.356-3.27 1.602-4.36 1.312-1.148 3.246-1.375 4.926-1.375h10.015v2.844Zm-42.012-2.844h4.879l.105.184 6.48 11.37-.16-11.187-.003-.367h4.507v18.273h-4.859l-.11-.187-6.84-12.043.153 11.86.004.37h-4.52V40.168Zm-3.149 18.273h-4.218V40.168h4.586v18.273ZM106.977 58h-.008v-.004Zm3.753.441q-1.23-.002-2.16-.109c-.097-.012-.199-.023-.297-.039h-.003c-.563-.078-1.114-.2-1.637-.426a4 4 0 0 1-.344-.16c-.789-.41-1.52-1.062-2.059-1.789a5.4 5.4 0 0 1-.832-1.625 8 8 0 0 1-.285-1.45c-.058-.55-.09-1.179-.09-1.878V40.168h4.415V51.82c0 .5.015.93.035 1.293.074 1.184.449 2.024 1.617 2.426.629.215 1.336.242 1.992.242l4.711-.004v2.664Zm-28.46 0h-4.22V40.168h4.583v18.273ZM65.316 40.168h4.153l.094.219 7.484 17.547.215.507h-4.907l-.09-.238-1.902-4.926h-6.37l-1.845 4.926-.093.238h-4.711l.215-.507 7.425-17.543.094-.223Zm1.82 4.855-2.124 5.598 4.324-.012Zm83.528-2.195c-.71 0-1.324.11-1.828.332a2.8 2.8 0 0 0-1.172.965v.004l-.008.008c-.082.117-.164.25-.234.398a5 5 0 0 0-.207.48c-.176.489-.305 1.692-.387 2.946h10.262v2.66h-10.371v.274c0 .933.078 1.726.226 2.375q.229.938.657 1.464.418.51 1.16.774.773.272 1.898.273l6.43-.004v2.664h-6.637c-.687 0-1.312-.035-1.863-.093-.082-.012-.176-.02-.266-.035a7.7 7.7 0 0 1-1.187-.239l-.004-.004h-.012a9 9 0 0 1-.684-.25 7.2 7.2 0 0 1-1.648-1v-.004a6.6 6.6 0 0 1-1.246-1.304 7.6 7.6 0 0 1-.887-1.645l-.004-.015c-.066-.172-.132-.344-.183-.512a12 12 0 0 1-.156-.547c-.239-.945-.356-2.008-.356-3.18q0-2.373.516-4.148.532-1.802 1.593-2.969l.004-.004a6.4 6.4 0 0 1 1.387-1.133c1.324-.797 3.031-1.191 5.133-1.191h6.5v2.66z" style="stroke:none;fill-rule:evenodd;fill:#2756a2;fill-opacity:1"/></g></svg>