<svg xmlns="http://www.w3.org/2000/svg" width="360" height="108"><defs><style>.cls-1{fill:#1a488d;fill-rule:evenodd}</style></defs><path id="Palm" d="M180.667 103.954S15.576 101.5 20.7 28.855c.277-3.935 9.827 4.654 10.665 7.376S33.384 26 25.364 25.5c-1.343-.084 5.846-3.345 9.331-3.353s12.694 1.16 13.331 11.4c.131 2.1 4-10.728 4-10.728s.813-9.137-9.331-8.717-14 4.023-14 4.023 1.32-7.3 7.332-7.376 6.193 1.171 4.666-3.353-6.665-4.023-6.665-4.023a14.65 14.65 0 0 0-12 12.07c-.218 1.114-.984-7.953-8.662-8.043-1.374-.016-9.982 2.619-9.331 10.729.112 1.4 4.913-2.725 7.332-2.682S16.7 18.8 16.7 18.8 3.122 16.877 3.368 32.878c.014.914 2.125-6.769 10-6.035.341.032-6.394 5.526-2.666 11.4.631.994.154-6.7 6-8.046 2.154-.497-17.778 76.443 163.965 73.757" class="cls-1"/><path id="Samoa" d="m62.69 57.688-3.333 12.74S68.136 73.6 74.021 73.6 97.34 71.1 97.34 52.994s-27.352-18.281-27.352-29.5 12.031-8.77 12.031-8.77 6.829 2.859 9.331 8.1c.331.694 3.333-8.1 3.333-8.1s-3.3-5.271-14-5.271-21.326 7.226-21.326 19.402 13.877 17.76 18 19.445 9.45 7.011 9.45 12.74-10.116 7.523-10.116 7.523S66.023 68.4 62.69 57.688m34.65 14.764L122.012 10.8h7.331l24.773 61.653h-15.441l-6-18.186h-20.661l-6.666 18.186H97.34Zm16.673-23.524h16.663l-8-21.171ZM158 72.452l9.336-61.652h7.332l20.662 43.466L215.993 10.8h8l8 61.653h-15.334l-3.332-40.788-20 40.788H190l-20-40.789-3.333 40.788zm141.3 0L323.971 10.8h7.329l24.772 61.653h-15.44l-6-18.186h-20.659l-6.665 18.186H299.3Zm16.673-23.524h16.663l-8-21.171Zm-81.9-7.3s.621-32.248 34.634-32.248 34.013 32.247 34.013 32.247-1.831 32.245-34.013 32.245-34.63-24.297-34.63-32.245Zm14.473 0s.618-26.906 20.157-26.906 19.539 26.906 19.539 26.906-1.152 26.937-19.539 26.937S248.55 51.59 248.55 41.627Z" class="cls-1"/><path id="Airways" d="m343.387 98.135-1.219 4.662a20.3 20.3 0 0 0 5.365 1.161c2.154 0 8.533-.917 8.533-7.54s-10.008-6.689-10.008-10.8 4.4-3.209 4.4-3.209a7.4 7.4 0 0 1 3.414 2.964c.121.254 1.22-2.964 1.22-2.964s-1.207-1.929-5.122-1.929-7.8 2.645-7.8 7.1 5.077 6.5 6.585 7.115 3.457 2.565 3.457 4.661-3.7 2.753-3.7 2.753a5.65 5.65 0 0 1-5.125-3.974M264.65 103.3V81.139h10s4.676-.075 4.676 5.431-5.343 5.986-5.343 5.986l7.332 10.74h-6l-6-10.069V103.3zm4.666-11.41V82.5h2s3.344-.069 3.344 4.072-1.304 5.334-5.344 5.313ZM233.4 103.292l8.852-22.123h2.631l8.889 22.123h-5.541l-2.152-6.526h-7.414l-2.392 6.526zm5.982-8.441h5.979l-2.87-7.6Zm68 8.441 8.852-22.123h2.631l8.889 22.123h-5.54l-2.153-6.526h-7.414l-2.392 6.526zm5.982-8.441h5.98l-2.87-7.6Zm-58.048-13.693h5.335v22.116h-5.335zm32 22.137-6.665-22.156h5.332l4.662 16.161 4.665-16.158h3.333l5.332 16.158 4.666-16.158h3.333l-7.332 22.158h-3.333l-5.332-15.433-5.332 15.433h-3.333Zm43.991 0h4.666V93.226l6.665-12.087H339.3l-4 9.4-4.665-9.4h-6.666L331.3 93.9v9.4Z" style="fill-rule:evenodd;fill:#d92936"/></svg>