<svg xmlns="http://www.w3.org/2000/svg" width="360" height="108" viewBox="0 0 360 108">
  <defs>
    <style>
      .cls-1 {
        fill: #1a488d;
      }

      .cls-1, .cls-2 {
        fill-rule: evenodd;
      }

      .cls-2 {
        fill: #d92936;
      }
    </style>
  </defs>
  <path id="Palm" class="cls-1" d="M180.667,103.954S15.576,101.5,20.7,28.855c0.277-3.935,9.827,4.654,10.665,7.376S33.384,26,25.364,25.5c-1.343-.084,5.846-3.345,9.331-3.353s12.694,1.16,13.331,11.4c0.131,2.1,4-10.728,4-10.728s0.813-9.137-9.331-8.717-14,4.023-14,4.023,1.32-7.3,7.332-7.376,6.193,1.171,4.666-3.353-6.665-4.023-6.665-4.023a14.647,14.647,0,0,0-12,12.07C21.81,16.557,21.044,7.49,13.366,7.4c-1.374-.016-9.982,2.619-9.331,10.729,0.112,1.4,4.913-2.725,7.332-2.682S16.7,18.8,16.7,18.8,3.122,16.877,3.368,32.878c0.014,0.914,2.125-6.769,10-6.035,0.341,0.032-6.394,5.526-2.666,11.4,0.631,0.994.154-6.7,6-8.046C18.856,29.7-1.076,106.64,180.667,103.954Z"/>
  <path id="Samoa" class="cls-1" d="M62.69,57.688l-3.333,12.74S68.136,73.6,74.021,73.6,97.34,71.1,97.34,52.994s-27.352-18.281-27.352-29.5,12.031-8.77,12.031-8.77,6.829,2.859,9.331,8.1c0.331,0.694,3.333-8.1,3.333-8.1s-3.3-5.271-14-5.271S59.357,16.679,59.357,28.855s13.877,17.76,18,19.445,9.45,7.011,9.45,12.74-10.116,7.523-10.116,7.523S66.023,68.4,62.69,57.688ZM97.34,72.452L122.012,10.8h7.331l24.773,61.653H138.675l-6-18.186H112.014l-6.666,18.186H97.34Zm16.673-23.524h16.663l-8-21.171Zm59.322,34.24M158,72.452L167.336,10.8h7.332L195.33,54.266,215.993,10.8h8l8,61.653H216.659l-3.332-40.788-20,40.788H190L170,31.664l-3.333,40.788H158Zm141.3,0L323.971,10.8H331.3l24.772,61.653h-15.44l-6-18.186H313.973l-6.665,18.186H299.3Zm16.673-23.524h16.663l-8-21.171Zm-81.9-7.3S234.694,9.38,268.707,9.38,302.72,41.627,302.72,41.627s-1.831,32.245-34.013,32.245S234.077,49.575,234.077,41.627Zm14.473,0s0.618-26.906,20.157-26.906,19.539,26.906,19.539,26.906-1.152,26.937-19.539,26.937S248.55,51.59,248.55,41.627Z"/>
  <path id="Airways" class="cls-2" d="M343.387,98.135l-1.219,4.662a20.333,20.333,0,0,0,5.365,1.161c2.154,0,8.533-.917,8.533-7.54s-10.008-6.689-10.008-10.8,4.4-3.209,4.4-3.209a7.39,7.39,0,0,1,3.414,2.964c0.121,0.254,1.22-2.964,1.22-2.964s-1.207-1.929-5.122-1.929-7.8,2.645-7.8,7.1,5.077,6.5,6.585,7.115,3.457,2.565,3.457,4.661-3.7,2.753-3.7,2.753A5.654,5.654,0,0,1,343.387,98.135ZM264.65,103.3V81.139h10s4.676-.075,4.676,5.431-5.343,5.986-5.343,5.986l7.332,10.74h-6l-6-10.069V103.3H264.65Zm4.666-11.41V82.5h2s3.344-.069,3.344,4.072S273.356,91.906,269.316,91.885ZM233.4,103.292l8.852-22.123h2.631l8.889,22.123h-5.541l-2.152-6.526h-7.414l-2.392,6.526H233.4Zm5.982-8.441h5.979l-2.87-7.6Zm68,8.441,8.852-22.123h2.631l8.889,22.123h-5.54l-2.153-6.526h-7.414l-2.392,6.526h-2.873Zm5.982-8.441h5.98l-2.87-7.6ZM255.316,81.158h5.335v22.116h-5.335V81.158Zm32,22.137-6.665-22.156h5.332L290.645,97.3l4.665-16.158h3.333L303.975,97.3l4.666-16.158h3.333L304.642,103.3h-3.333l-5.332-15.433L290.645,103.3h-3.333Zm43.991,0h4.666V93.226l6.665-12.087H339.3l-4,9.4-4.665-9.4h-6.666L331.3,93.9v9.4Z"/>
</svg>
