<svg xmlns="http://www.w3.org/2000/svg" width="176pt" height="52.2" viewBox="0 0 176 39.15"><defs><clipPath id="a"><path d="M169 32h7v7.148h-7Zm0 0"/></clipPath><clipPath id="b"><path d="M69 32h95v7.148H69Zm0 0"/></clipPath></defs><path d="m44.29 10.875-7.4 7.773 2.575-4.085L43.37 0l-9.734 1.223-7.68 28.441h9.461l1.117-4.191 3.012-2.961.902 7.152h9.715L47.91 15.766l3.54-3.125 2.41 14.875c.05.359.242 1.445.242 1.804 0 3.04-1.817 3.024-3.696 3.024-1.093 0-2.71-.117-3.207-.157l-1.586 5.754c1.465.16 2.836.325 6.242.325 2.555 0 6.09 0 8.93-2.805 1.211-1.2 1.992-2.719 2.793-4.2.371-.6.703-1.195 1.031-1.792L75.7 9.69l-9.82 1.227-6.45 14.902 1.055-4.984-.652-11.508ZM20.374 9.691c.14-.48.207-1.324.207-1.597 0-2-1.703-2.485-2.91-2.485-2.383 0-3.293 1.325-3.293 2.442 0 .719.453 1.32.824 1.594.633.562 1.133.765 3.637 1.605l2.96 1.035c2.333.961 5.856 2.395 5.856 7.309 0 2.683-1.203 5.363-3.699 7.437-3.797 3.117-8.547 3.356-11.527 3.356C5.215 30.387 0 28.832 0 22.918v-.211l10.086-1.27c0 .364-.04.563-.04.961 0 .563.079 1.118.329 1.598.414.723 1.469 1.477 3.012 1.477 2.664 0 3.648-1.926 3.648-3.121 0-.676-.328-1.317-.742-1.715-.621-.64-1.414-.918-3.582-1.676l-2.863-1.043c-2.551-1-6.047-2.434-6.047-7.11 0-2.96 1.586-6.035 4.832-8.003C11.848.934 15.672.738 17.87.738c7.043 0 12.008 1.477 12.008 6.39 0 .43-.016.907-.07 1.376z" style="stroke:none;fill-rule:nonzero;fill:#bf2534;fill-opacity:1"/><path d="M164.914 13.043h3.05l.888-3.352h-3.036l1.454-5.402-9.922 1.254-1.063 4.148h-2.172l-.937 3.352 7.16-.004-5.191.79-2.254 8.327c-.282 1.121-.54 2.117-.54 3.196 0 1.644.5 3.246 3.004 4.156 1.137.398 2.297.52 3.5.52 2.165 0 4.036-.364 5.672-.68l1.207-4.516a9 9 0 0 1-1.422.117c-.585 0-2.03 0-2.03-1.402 0-.473.12-.988.491-2.629zM103.648 1.324l-8.312 21.168 1.238-7.797c0-.015.008-.035.008-.043L97.688 0 89.14 1.074l-9.774 21.348 1.602-6.832L83.21 0 72.824 1.3l-.93 8.868 3.805-.477-4.62 8.25-1.243 11.723h12.738l5.598-11.621a100 100 0 0 0 1.7-4.078c-.286 2.195-.368 2.832-.583 5.148l-.781 10.551h12.699L114.191 0zM146.336 16.965l-2.535-.754c-1.93-.57-3.332-1.004-3.332-2.168 0-.914.953-1.434 2.16-1.434 1.219 0 2 .356 2 1.516 0 .195-.137 1.16-.137 1.36l8.219-1.032a8 8 0 0 0 .043-.648c0-3.633-4.082-4.75-9.957-4.75-2.426 0-4.918.277-7.09 1.32-3.082 1.43-4.34 3.914-4.34 6.066 0 3.602 2.88 4.72 4.801 5.442l2.629.914c1.871.594 2.96.96 2.96 2.113 0 .809-.753 1.688-2.343 1.688-.703 0-2.21-.118-2.21-1.88 0-.245.081-.64.112-.843l-8.18 1.035c-.011.149-.011.313-.011.48 0 2.5 1.773 4.075 5.004 4.52 2.25.36 4.246.36 4.953.36 2.254 0 5.703-.239 8.133-1.758 2.246-1.442 3.738-3.953 3.738-6.313-.031-3.68-2.984-4.68-4.617-5.234M120.313 12.93c1.117 0 1.87.55 1.87 1.836 0 .89-.476 2.539-.738 3.336l-5.187.66c.765-2.754 1.23-5.832 4.055-5.832m-.047 10.98c-.664 1.883-1.477 2.664-3.293 2.664-1.285 0-2.157-.758-2.04-2.144.083-.961.337-1.524.52-2.274l14.32-1.82c.204-.68.625-2.293.625-4.172 0-5.066-4.164-7.074-9.906-7.074-7.41 0-10.285 2.633-11.953 5.676-1.25 2.273-2.246 6.273-2.246 8.675 0 .961.047 3.477 2.457 5.157 1.082.793 2.46 1.156 3.836 1.39 1.203.2 2.445.282 3.672.282 3.8 0 7.668-.473 10.21-2.637 1.653-1.41 2.18-2.965 2.68-4.848z" style="stroke:none;fill-rule:nonzero;fill:#2550a0;fill-opacity:1"/><g clip-path="url(#a)"><path d="M172.79 35.75c.468 0 .886-.035.886-.594 0-.453-.41-.543-.797-.543h-.754v1.137Zm-.665 2.055h-.555v-3.66h1.395c.863 0 1.293.316 1.293 1.042 0 .657-.414.942-.953 1.008l1.043 1.61h-.618l-.968-1.586h-.637Zm.672.816c1.433 0 2.566-1.121 2.566-2.652 0-1.508-1.133-2.637-2.566-2.637-1.453 0-2.59 1.129-2.59 2.637 0 1.531 1.137 2.652 2.59 2.652m-3.227-2.652c0-1.824 1.477-3.164 3.227-3.164 1.726 0 3.203 1.34 3.203 3.164 0 1.836-1.477 3.18-3.203 3.18-1.75 0-3.227-1.344-3.227-3.18" style="stroke:none;fill-rule:nonzero;fill:#100f0d;fill-opacity:1"/></g><g clip-path="url(#b)"><path d="M73.754 33.762c-.219.37-.895 1.453-1.348 2.332.192.008 1.059.027 1.23.027.118 0 .516 0 .7-.027-.07-.422-.438-1.867-.582-2.332m-4.063 5.226c.25-.11.493-.445.844-.886.73-.914 1.633-2.422 2.406-3.672.274-.45.575-.91.575-1.211 0-.153-.051-.246-.082-.317.082.008.183.016.273.028.102 0 .18.011.227.011.285 0 .48-.05.605-.082.113.922.356 1.668.695 3.203.364 1.583.797 2.899 1.168 2.93l-.015.04h-.422c-.078 0-.778 0-.98.042-.07-.437-.301-1.742-.536-2.582-.16-.02-.73-.02-1.086-.02-.078 0-.777 0-1.16.02-.195.278-1.144 1.918-1.144 2.262 0 .195.183.226.218.238l-.011.04a9 9 0 0 0-.778-.04c-.125 0-.535.016-.808.04Zm12.985 0a.53.53 0 0 0 .332-.254c.215-.343.453-1.726.64-2.988.145-1.043.274-1.894.274-2.258 0-.398-.106-.496-.274-.547l.008-.043c.266.02.512.043.88.043.214 0 .64-.023.878-.043l-.012.043c-.16.051-.242.094-.343.254-.18.266-.399 1.508-.559 2.551-.191 1.258-.352 2.203-.352 2.719 0 .433.168.492.282.52l-.008.042c-.285-.023-.516-.043-.879-.043-.297 0-.594.016-.875.043Zm12.926-2.984c.605 0 1.039-.117 1.328-.297.418-.27.593-.7.593-1.223 0-.34-.054-.636-.367-.894-.277-.223-.836-.332-1.183-.332-.266 0-.54.015-.653.05-.082.282-.355 1.547-.511 2.618q.384.076.793.078m-2.575 2.984c.125-.031.227-.097.332-.254.215-.343.454-1.726.641-2.988.145-1.043.273-1.894.273-2.254 0-.402-.109-.5-.273-.55l.012-.044c.133.012.261.02.37.032.126.011.31.011.509.011.21 0 .437-.023.691-.039.254-.02.512-.039.79-.039 1.362 0 2.12.274 2.12 1.27 0 1.191-1.277 1.87-1.91 2.066.27.602 1.133 1.809 1.406 2.207.172.25.375.469.66.582l-.007.043a2 2 0 0 0-.239-.031c-.093-.016-.199-.016-.3-.016-.286 0-.57.036-.82.09-.403-.707-.759-1.406-1.196-2.058-.207-.297-.332-.508-.469-.598-.23-.137-.742-.129-.844-.137-.156.996-.277 1.778-.277 2.184 0 .433.176.492.285.52l-.008.046a8.2 8.2 0 0 0-1.757 0Zm18.196-1.218c-.22.433-.352.863-.48 1.351a6 6 0 0 0-.77-.101c-.325-.02-.707-.036-1.282-.036-.683 0-1.41.016-2.078.043l.016-.043c.125-.027.23-.097.332-.25.219-.347.453-1.73.64-2.988.145-1.043.27-1.898.27-2.258 0-.402-.101-.5-.27-.55l.008-.04c.262.02.512.04.883.04.211 0 .633-.02.875-.04l-.012.04c-.164.05-.242.097-.34.257-.187.266-.398 1.508-.566 2.547-.203 1.332-.375 2.403-.383 2.86q.259.03.536.03c.648 0 1.402-.148 1.71-.284.22-.102.56-.203.754-.63Zm7.925 1.218c.13-.031.227-.097.329-.254.218-.343.453-1.726.644-2.988.14-1.043.27-1.894.27-2.258 0-.398-.106-.496-.27-.547l.008-.043c.262.02.516.043.875.043.219 0 .644-.023.883-.043l-.012.043a.53.53 0 0 0-.344.254c-.187.266-.398 1.508-.558 2.551-.192 1.258-.352 2.203-.352 2.719 0 .433.168.492.281.52l-.011.042c-.282-.023-.512-.043-.875-.043q-.451.001-.88.043Zm10.168 0c.16-.07.305-.144.457-.48.153-.34.247-.887.387-1.414.36-1.367.649-3.114.649-3.39 0-.095-.079-.204-.239-.407-.183-.23-.273-.277-.476-.356v-.043c.293.036.703.043.808.043.227 0 .528-.011.696-.043a28 28 0 0 0 1.941 2.739c.621.797 1.27 1.55 1.879 2.254.078-.47.531-2.996.531-4.207 0-.356 0-.672-.289-.743l.012-.043c.133.012.531.043.808.043.266 0 .708-.03.797-.043v.043a.53.53 0 0 0-.304.211c-.227.309-.29.79-.684 2.528a69 69 0 0 0-.695 3.351c-.074-.011-.13-.011-.196-.011-.07 0-.136 0-.21.011-.524-.672-3.02-3.672-3.985-4.98-.105.508-.5 3.738-.5 4.543 0 .281.133.343.246.394l-.012.043a7 7 0 0 0-.824-.043c-.273 0-.547.02-.804.043Zm20.848-1.117c-.262.332-.555.89-.719 1.246a22 22 0 0 0-1.914-.113c-.644-.02-1.297-.02-1.922-.02-.297 0-.59.012-.879.047l.012-.047c.125-.027.227-.097.332-.25.215-.347.457-1.726.64-2.992.15-1.039.27-1.89.27-2.254 0-.398-.097-.5-.27-.55l.013-.04c.136.012.257.02.398.032.148 0 .293.011.477.011 2.066 0 3.285-.023 4.07-.132-.188.34-.375.925-.465 1.398h-.137c0-.176.028-.406-.355-.625-.305-.176-1.024-.285-1.61-.285-.359 0-.73.012-1.082.055a25 25 0 0 0-.457 2.253c.188.032.399.032.586.032.953 0 1.528 0 1.856-.188a.68.68 0 0 0 .3-.347h.137c-.195.527-.261 1-.3 1.488h-.137c.012-.035.012-.07.012-.102 0-.136-.102-.277-.297-.355-.25-.102-1.028-.153-1.582-.153-.243 0-.5.012-.618.024-.078.476-.367 2.219-.382 2.574.234.035.511.055.714.055.84 0 1.422-.055 1.985-.192.828-.207.957-.394 1.183-.644Zm12.77-3.672c0-.531-.696-.992-1.762-.992-.406 0-.727.082-.91.219-.305.23-.383.648-.383.761 0 .805.785 1.184 1.7 1.465 1.26.383 1.55.801 1.55 1.407 0 .476-.3.937-.766 1.332-.68.547-1.414.73-2.191.73-.64 0-1.371-.144-1.902-.277.167-.282.308-1.114.308-1.477h.168c.024.254.078.434.242.63.317.401.953.726 1.653.726.863 0 1.515-.332 1.515-1.27 0-.855-.984-1.09-2.008-1.488-.617-.238-1.246-.57-1.246-1.285 0-.547.274-.97.723-1.282.512-.37 1.133-.59 2.11-.59.335 0 .617.02.843.044q.364.046.535.046c.098 0 .246-.015.29-.023-.188.48-.262.809-.298 1.32h-.171z" style="stroke:none;fill-rule:nonzero;fill:#100f0d;fill-opacity:1"/></g></svg>