<?xml version="1.0" encoding="UTF-8"?>
<svg xmlns="http://www.w3.org/2000/svg" xmlns:xlink="http://www.w3.org/1999/xlink" width="176pt" height="39.15pt" viewBox="0 0 176 39.15" version="1.1">
<defs>
<clipPath id="clip1">
  <path d="M 169 32 L 176 32 L 176 39.148438 L 169 39.148438 Z M 169 32 "/>
</clipPath>
<clipPath id="clip2">
  <path d="M 69 32 L 164 32 L 164 39.148438 L 69 39.148438 Z M 69 32 "/>
</clipPath>
</defs>
<g id="surface1">
<path style=" stroke:none;fill-rule:nonzero;fill:rgb(74.787903%,14.491272%,20.527649%);fill-opacity:1;" d="M 44.289062 10.875 L 36.890625 18.648438 L 39.464844 14.5625 L 43.371094 0 L 33.636719 1.222656 L 25.957031 29.664062 L 35.417969 29.664062 L 36.535156 25.472656 L 39.546875 22.511719 L 40.449219 29.664062 L 50.164062 29.664062 L 47.910156 15.765625 L 51.449219 12.640625 L 53.859375 27.515625 C 53.910156 27.875 54.101562 28.960938 54.101562 29.320312 C 54.101562 32.359375 52.285156 32.34375 50.40625 32.34375 C 49.3125 32.34375 47.695312 32.226562 47.199219 32.1875 L 45.613281 37.941406 C 47.078125 38.101562 48.449219 38.265625 51.855469 38.265625 C 54.410156 38.265625 57.945312 38.265625 60.785156 35.460938 C 61.996094 34.261719 62.777344 32.742188 63.578125 31.261719 C 63.949219 30.660156 64.28125 30.066406 64.609375 29.46875 L 75.699219 9.691406 L 65.878906 10.917969 L 59.429688 25.820312 L 60.484375 20.835938 L 59.832031 9.328125 Z M 20.375 9.691406 C 20.515625 9.210938 20.582031 8.367188 20.582031 8.09375 C 20.582031 6.09375 18.878906 5.609375 17.671875 5.609375 C 15.289062 5.609375 14.378906 6.933594 14.378906 8.050781 C 14.378906 8.769531 14.832031 9.371094 15.203125 9.644531 C 15.835938 10.207031 16.335938 10.410156 18.839844 11.25 L 21.800781 12.285156 C 24.132812 13.246094 27.65625 14.679688 27.65625 19.59375 C 27.65625 22.277344 26.453125 24.957031 23.957031 27.03125 C 20.160156 30.148438 15.410156 30.386719 12.429688 30.386719 C 5.214844 30.386719 0 28.832031 0 22.917969 L 0 22.707031 L 10.085938 21.4375 C 10.085938 21.800781 10.046875 22 10.046875 22.398438 C 10.046875 22.960938 10.125 23.515625 10.375 23.996094 C 10.789062 24.71875 11.84375 25.472656 13.386719 25.472656 C 16.050781 25.472656 17.035156 23.546875 17.035156 22.351562 C 17.035156 21.675781 16.707031 21.035156 16.292969 20.636719 C 15.671875 19.996094 14.878906 19.71875 12.710938 18.960938 L 9.847656 17.917969 C 7.296875 16.917969 3.800781 15.484375 3.800781 10.808594 C 3.800781 7.847656 5.386719 4.773438 8.632812 2.804688 C 11.847656 0.933594 15.671875 0.738281 17.871094 0.738281 C 24.914062 0.738281 29.878906 2.214844 29.878906 7.128906 C 29.878906 7.558594 29.863281 8.035156 29.808594 8.503906 L 20.375 9.691406 "/>
<path style=" stroke:none;fill-rule:nonzero;fill:rgb(14.590454%,31.219482%,62.745667%);fill-opacity:1;" d="M 164.914062 13.042969 L 167.964844 13.042969 L 168.851562 9.691406 L 165.816406 9.691406 L 167.269531 4.289062 L 157.347656 5.542969 L 156.285156 9.691406 L 154.113281 9.691406 L 153.175781 13.042969 L 160.335938 13.039062 L 155.144531 13.828125 L 152.890625 22.15625 C 152.609375 23.277344 152.351562 24.273438 152.351562 25.351562 C 152.351562 26.996094 152.851562 28.597656 155.355469 29.507812 C 156.492188 29.90625 157.652344 30.027344 158.855469 30.027344 C 161.019531 30.027344 162.890625 29.664062 164.527344 29.347656 L 165.734375 24.832031 C 165.230469 24.910156 164.8125 24.949219 164.3125 24.949219 C 163.726562 24.949219 162.28125 24.949219 162.28125 23.546875 C 162.28125 23.074219 162.402344 22.558594 162.773438 20.917969 L 164.914062 13.042969 "/>
<path style=" stroke:none;fill-rule:nonzero;fill:rgb(14.590454%,31.219482%,62.745667%);fill-opacity:1;" d="M 103.648438 1.324219 L 95.335938 22.492188 L 96.574219 14.695312 C 96.574219 14.679688 96.582031 14.660156 96.582031 14.652344 L 97.6875 0 L 89.140625 1.074219 L 79.367188 22.421875 L 80.96875 15.589844 L 83.210938 0 L 72.824219 1.300781 L 71.894531 10.167969 L 75.699219 9.691406 L 71.078125 17.941406 L 69.835938 29.664062 L 82.574219 29.664062 L 88.171875 18.042969 C 88.953125 16.246094 89.210938 15.640625 89.871094 13.964844 C 89.585938 16.160156 89.503906 16.796875 89.289062 19.113281 L 88.507812 29.664062 L 101.207031 29.664062 L 114.191406 0 L 103.648438 1.324219 "/>
<path style=" stroke:none;fill-rule:nonzero;fill:rgb(14.590454%,31.219482%,62.745667%);fill-opacity:1;" d="M 146.335938 16.964844 L 143.800781 16.210938 C 141.871094 15.640625 140.46875 15.207031 140.46875 14.042969 C 140.46875 13.128906 141.421875 12.609375 142.628906 12.609375 C 143.847656 12.609375 144.628906 12.964844 144.628906 14.125 C 144.628906 14.320312 144.492188 15.285156 144.492188 15.484375 L 152.710938 14.453125 C 152.734375 14.199219 152.753906 13.960938 152.753906 13.804688 C 152.753906 10.171875 148.671875 9.054688 142.796875 9.054688 C 140.371094 9.054688 137.878906 9.332031 135.707031 10.375 C 132.625 11.804688 131.367188 14.289062 131.367188 16.441406 C 131.367188 20.042969 134.246094 21.160156 136.167969 21.882812 L 138.796875 22.796875 C 140.667969 23.390625 141.757812 23.757812 141.757812 24.910156 C 141.757812 25.71875 141.003906 26.597656 139.414062 26.597656 C 138.710938 26.597656 137.203125 26.480469 137.203125 24.71875 C 137.203125 24.472656 137.285156 24.078125 137.316406 23.875 L 129.136719 24.910156 C 129.125 25.058594 129.125 25.222656 129.125 25.390625 C 129.125 27.890625 130.898438 29.464844 134.128906 29.910156 C 136.378906 30.269531 138.375 30.269531 139.082031 30.269531 C 141.335938 30.269531 144.785156 30.03125 147.214844 28.511719 C 149.460938 27.070312 150.953125 24.558594 150.953125 22.199219 C 150.921875 18.519531 147.96875 17.519531 146.335938 16.964844 "/>
<path style=" stroke:none;fill-rule:nonzero;fill:rgb(14.590454%,31.219482%,62.745667%);fill-opacity:1;" d="M 120.3125 12.929688 C 121.429688 12.929688 122.183594 13.480469 122.183594 14.765625 C 122.183594 15.65625 121.707031 17.304688 121.445312 18.101562 L 116.257812 18.761719 C 117.023438 16.007812 117.488281 12.929688 120.3125 12.929688 M 120.265625 23.910156 C 119.601562 25.792969 118.789062 26.574219 116.972656 26.574219 C 115.6875 26.574219 114.816406 25.816406 114.933594 24.429688 C 115.015625 23.46875 115.269531 22.90625 115.453125 22.15625 L 129.773438 20.335938 C 129.976562 19.65625 130.398438 18.042969 130.398438 16.164062 C 130.398438 11.097656 126.234375 9.089844 120.492188 9.089844 C 113.082031 9.089844 110.207031 11.722656 108.539062 14.765625 C 107.289062 17.039062 106.292969 21.039062 106.292969 23.441406 C 106.292969 24.402344 106.339844 26.917969 108.75 28.597656 C 109.832031 29.390625 111.210938 29.753906 112.585938 29.988281 C 113.789062 30.1875 115.03125 30.269531 116.257812 30.269531 C 120.058594 30.269531 123.925781 29.796875 126.46875 27.632812 C 128.121094 26.222656 128.648438 24.667969 129.148438 22.785156 L 120.265625 23.910156 "/>
<g clip-path="url(#clip1)" clip-rule="nonzero">
<path style=" stroke:none;fill-rule:nonzero;fill:rgb(6.266785%,5.734253%,5.047607%);fill-opacity:1;" d="M 172.789062 35.75 C 173.257812 35.75 173.675781 35.714844 173.675781 35.15625 C 173.675781 34.703125 173.265625 34.613281 172.878906 34.613281 L 172.125 34.613281 L 172.125 35.75 Z M 172.125 37.804688 L 171.570312 37.804688 L 171.570312 34.144531 L 172.964844 34.144531 C 173.828125 34.144531 174.257812 34.460938 174.257812 35.1875 C 174.257812 35.84375 173.84375 36.128906 173.304688 36.195312 L 174.347656 37.804688 L 173.730469 37.804688 L 172.761719 36.21875 L 172.125 36.21875 Z M 172.796875 38.621094 C 174.230469 38.621094 175.363281 37.5 175.363281 35.96875 C 175.363281 34.460938 174.230469 33.332031 172.796875 33.332031 C 171.34375 33.332031 170.207031 34.460938 170.207031 35.96875 C 170.207031 37.5 171.34375 38.621094 172.796875 38.621094 M 169.570312 35.96875 C 169.570312 34.144531 171.046875 32.804688 172.796875 32.804688 C 174.523438 32.804688 176 34.144531 176 35.96875 C 176 37.804688 174.523438 39.148438 172.796875 39.148438 C 171.046875 39.148438 169.570312 37.804688 169.570312 35.96875 "/>
</g>
<g clip-path="url(#clip2)" clip-rule="nonzero">
<path style=" stroke:none;fill-rule:nonzero;fill:rgb(6.266785%,5.734253%,5.047607%);fill-opacity:1;" d="M 73.753906 33.761719 C 73.535156 34.132812 72.859375 35.214844 72.40625 36.09375 C 72.597656 36.101562 73.464844 36.121094 73.636719 36.121094 C 73.753906 36.121094 74.152344 36.121094 74.335938 36.09375 C 74.265625 35.671875 73.898438 34.226562 73.753906 33.761719 M 69.691406 38.988281 C 69.941406 38.878906 70.183594 38.542969 70.535156 38.101562 C 71.265625 37.1875 72.167969 35.679688 72.941406 34.429688 C 73.214844 33.980469 73.515625 33.519531 73.515625 33.21875 C 73.515625 33.066406 73.464844 32.972656 73.433594 32.902344 C 73.515625 32.910156 73.617188 32.917969 73.707031 32.929688 C 73.808594 32.929688 73.886719 32.941406 73.933594 32.941406 C 74.21875 32.941406 74.414062 32.890625 74.539062 32.859375 C 74.652344 33.78125 74.894531 34.527344 75.234375 36.0625 C 75.597656 37.644531 76.03125 38.960938 76.402344 38.992188 L 76.386719 39.03125 L 75.964844 39.03125 C 75.886719 39.03125 75.1875 39.03125 74.984375 39.074219 C 74.914062 38.636719 74.683594 37.332031 74.449219 36.492188 C 74.289062 36.472656 73.71875 36.472656 73.363281 36.472656 C 73.285156 36.472656 72.585938 36.472656 72.203125 36.492188 C 72.007812 36.769531 71.058594 38.410156 71.058594 38.753906 C 71.058594 38.949219 71.242188 38.980469 71.277344 38.992188 L 71.265625 39.03125 C 70.992188 39 70.59375 38.992188 70.488281 38.992188 C 70.363281 38.992188 69.953125 39.007812 69.679688 39.03125 Z M 82.675781 38.988281 C 82.800781 38.957031 82.90625 38.890625 83.007812 38.734375 C 83.222656 38.390625 83.460938 37.007812 83.648438 35.746094 C 83.792969 34.703125 83.921875 33.851562 83.921875 33.488281 C 83.921875 33.089844 83.816406 32.992188 83.648438 32.941406 L 83.65625 32.898438 C 83.921875 32.917969 84.167969 32.941406 84.535156 32.941406 C 84.75 32.941406 85.175781 32.917969 85.414062 32.898438 L 85.402344 32.941406 C 85.242188 32.992188 85.160156 33.035156 85.058594 33.195312 C 84.878906 33.460938 84.660156 34.703125 84.5 35.746094 C 84.308594 37.003906 84.148438 37.949219 84.148438 38.464844 C 84.148438 38.898438 84.316406 38.957031 84.429688 38.984375 L 84.421875 39.027344 C 84.136719 39.003906 83.90625 38.984375 83.542969 38.984375 C 83.246094 38.984375 82.949219 39 82.667969 39.027344 Z M 95.601562 36.003906 C 96.207031 36.003906 96.640625 35.886719 96.929688 35.707031 C 97.347656 35.4375 97.523438 35.007812 97.523438 34.484375 C 97.523438 34.144531 97.46875 33.847656 97.15625 33.589844 C 96.878906 33.367188 96.320312 33.257812 95.972656 33.257812 C 95.707031 33.257812 95.433594 33.273438 95.320312 33.308594 C 95.238281 33.589844 94.964844 34.855469 94.808594 35.925781 C 95.066406 35.976562 95.328125 36.003906 95.601562 36.003906 M 93.027344 38.988281 C 93.152344 38.957031 93.253906 38.890625 93.359375 38.734375 C 93.574219 38.390625 93.8125 37.007812 94 35.746094 C 94.144531 34.703125 94.273438 33.851562 94.273438 33.492188 C 94.273438 33.089844 94.164062 32.992188 94 32.941406 L 94.011719 32.898438 C 94.144531 32.910156 94.273438 32.917969 94.382812 32.929688 C 94.507812 32.941406 94.691406 32.941406 94.890625 32.941406 C 95.101562 32.941406 95.328125 32.917969 95.582031 32.902344 C 95.835938 32.882812 96.09375 32.863281 96.371094 32.863281 C 97.734375 32.863281 98.492188 33.136719 98.492188 34.132812 C 98.492188 35.324219 97.214844 36.003906 96.582031 36.199219 C 96.851562 36.800781 97.714844 38.007812 97.988281 38.40625 C 98.160156 38.65625 98.363281 38.875 98.648438 38.988281 L 98.640625 39.03125 C 98.582031 39.019531 98.492188 39.007812 98.402344 39 C 98.308594 38.984375 98.203125 38.984375 98.101562 38.984375 C 97.816406 38.984375 97.53125 39.019531 97.28125 39.074219 C 96.878906 38.367188 96.523438 37.667969 96.085938 37.015625 C 95.878906 36.71875 95.753906 36.507812 95.617188 36.417969 C 95.386719 36.28125 94.875 36.289062 94.773438 36.28125 C 94.617188 37.277344 94.496094 38.058594 94.496094 38.464844 C 94.496094 38.898438 94.671875 38.957031 94.78125 38.984375 L 94.773438 39.03125 C 94.484375 39.003906 94.261719 38.984375 93.894531 38.984375 C 93.597656 38.984375 93.304688 39 93.015625 39.03125 Z M 111.222656 37.769531 C 111.003906 38.203125 110.871094 38.632812 110.742188 39.121094 C 110.519531 39.074219 110.277344 39.042969 109.972656 39.019531 C 109.648438 39 109.265625 38.984375 108.691406 38.984375 C 108.007812 38.984375 107.28125 39 106.613281 39.027344 L 106.628906 38.984375 C 106.753906 38.957031 106.859375 38.886719 106.960938 38.734375 C 107.179688 38.386719 107.414062 37.003906 107.601562 35.746094 C 107.746094 34.703125 107.871094 33.847656 107.871094 33.488281 C 107.871094 33.085938 107.769531 32.988281 107.601562 32.9375 L 107.609375 32.898438 C 107.871094 32.917969 108.121094 32.9375 108.492188 32.9375 C 108.703125 32.9375 109.125 32.917969 109.367188 32.898438 L 109.355469 32.9375 C 109.191406 32.988281 109.113281 33.035156 109.015625 33.195312 C 108.828125 33.460938 108.617188 34.703125 108.449219 35.742188 C 108.246094 37.074219 108.074219 38.144531 108.066406 38.601562 C 108.238281 38.621094 108.417969 38.632812 108.601562 38.632812 C 109.25 38.632812 110.003906 38.484375 110.3125 38.347656 C 110.53125 38.246094 110.871094 38.144531 111.066406 37.71875 Z M 119.148438 38.988281 C 119.277344 38.957031 119.375 38.890625 119.476562 38.734375 C 119.695312 38.390625 119.929688 37.007812 120.121094 35.746094 C 120.261719 34.703125 120.390625 33.851562 120.390625 33.488281 C 120.390625 33.089844 120.285156 32.992188 120.121094 32.941406 L 120.128906 32.898438 C 120.390625 32.917969 120.644531 32.941406 121.003906 32.941406 C 121.222656 32.941406 121.648438 32.917969 121.886719 32.898438 L 121.875 32.941406 C 121.714844 32.992188 121.636719 33.035156 121.53125 33.195312 C 121.34375 33.460938 121.132812 34.703125 120.972656 35.746094 C 120.78125 37.003906 120.621094 37.949219 120.621094 38.464844 C 120.621094 38.898438 120.789062 38.957031 120.902344 38.984375 L 120.890625 39.027344 C 120.609375 39.003906 120.378906 38.984375 120.015625 38.984375 C 119.714844 38.984375 119.421875 39 119.136719 39.027344 Z M 129.316406 38.988281 C 129.476562 38.917969 129.621094 38.84375 129.773438 38.507812 C 129.925781 38.167969 130.019531 37.621094 130.160156 37.09375 C 130.519531 35.726562 130.808594 33.980469 130.808594 33.703125 C 130.808594 33.609375 130.730469 33.5 130.570312 33.296875 C 130.386719 33.066406 130.296875 33.019531 130.09375 32.941406 L 130.09375 32.898438 C 130.386719 32.933594 130.796875 32.941406 130.902344 32.941406 C 131.128906 32.941406 131.429688 32.929688 131.597656 32.898438 C 132.191406 33.839844 132.695312 34.574219 133.539062 35.636719 C 134.160156 36.433594 134.808594 37.1875 135.417969 37.890625 C 135.496094 37.421875 135.949219 34.894531 135.949219 33.683594 C 135.949219 33.328125 135.949219 33.011719 135.660156 32.941406 L 135.671875 32.898438 C 135.804688 32.910156 136.203125 32.941406 136.480469 32.941406 C 136.746094 32.941406 137.1875 32.910156 137.277344 32.898438 L 137.277344 32.941406 C 137.105469 32.992188 137.027344 33.078125 136.972656 33.152344 C 136.746094 33.460938 136.683594 33.941406 136.289062 35.679688 C 135.957031 37.109375 135.648438 38.675781 135.59375 39.03125 C 135.519531 39.019531 135.464844 39.019531 135.398438 39.019531 C 135.328125 39.019531 135.261719 39.019531 135.1875 39.03125 C 134.664062 38.359375 132.167969 35.359375 131.203125 34.050781 C 131.097656 34.558594 130.703125 37.789062 130.703125 38.59375 C 130.703125 38.875 130.835938 38.9375 130.949219 38.988281 L 130.9375 39.03125 C 130.660156 39 130.386719 38.988281 130.113281 38.988281 C 129.839844 38.988281 129.566406 39.007812 129.308594 39.03125 Z M 150.164062 37.871094 C 149.902344 38.203125 149.609375 38.761719 149.445312 39.117188 C 148.816406 39.050781 148.175781 39.015625 147.53125 39.003906 C 146.886719 38.984375 146.234375 38.984375 145.609375 38.984375 C 145.3125 38.984375 145.019531 38.996094 144.730469 39.03125 L 144.742188 38.984375 C 144.867188 38.957031 144.96875 38.886719 145.074219 38.734375 C 145.289062 38.386719 145.53125 37.007812 145.714844 35.742188 C 145.863281 34.703125 145.984375 33.851562 145.984375 33.488281 C 145.984375 33.089844 145.886719 32.988281 145.714844 32.9375 L 145.726562 32.898438 C 145.863281 32.910156 145.984375 32.917969 146.125 32.929688 C 146.273438 32.929688 146.417969 32.941406 146.601562 32.941406 C 148.667969 32.941406 149.886719 32.917969 150.671875 32.808594 C 150.484375 33.148438 150.296875 33.734375 150.207031 34.207031 L 150.070312 34.207031 C 150.070312 34.03125 150.097656 33.800781 149.714844 33.582031 C 149.410156 33.40625 148.691406 33.296875 148.105469 33.296875 C 147.746094 33.296875 147.375 33.308594 147.023438 33.351562 C 146.910156 33.742188 146.640625 35.046875 146.566406 35.605469 C 146.753906 35.636719 146.964844 35.636719 147.152344 35.636719 C 148.105469 35.636719 148.679688 35.636719 149.007812 35.449219 C 149.183594 35.347656 149.25 35.230469 149.308594 35.101562 L 149.445312 35.101562 C 149.25 35.628906 149.183594 36.101562 149.144531 36.589844 L 149.007812 36.589844 C 149.019531 36.554688 149.019531 36.519531 149.019531 36.488281 C 149.019531 36.351562 148.917969 36.210938 148.722656 36.132812 C 148.472656 36.03125 147.695312 35.980469 147.140625 35.980469 C 146.898438 35.980469 146.640625 35.992188 146.523438 36.003906 C 146.445312 36.480469 146.15625 38.222656 146.140625 38.578125 C 146.375 38.613281 146.652344 38.632812 146.855469 38.632812 C 147.695312 38.632812 148.277344 38.578125 148.839844 38.441406 C 149.667969 38.234375 149.796875 38.046875 150.023438 37.796875 Z M 162.933594 34.199219 C 162.933594 33.667969 162.238281 33.207031 161.171875 33.207031 C 160.765625 33.207031 160.445312 33.289062 160.261719 33.425781 C 159.957031 33.65625 159.878906 34.074219 159.878906 34.1875 C 159.878906 34.992188 160.664062 35.371094 161.578125 35.652344 C 162.839844 36.035156 163.128906 36.453125 163.128906 37.058594 C 163.128906 37.535156 162.828125 37.996094 162.363281 38.390625 C 161.683594 38.9375 160.949219 39.121094 160.171875 39.121094 C 159.53125 39.121094 158.800781 38.976562 158.269531 38.84375 C 158.4375 38.5625 158.578125 37.730469 158.578125 37.367188 L 158.746094 37.367188 C 158.769531 37.621094 158.824219 37.800781 158.988281 37.996094 C 159.304688 38.398438 159.941406 38.722656 160.640625 38.722656 C 161.503906 38.722656 162.15625 38.390625 162.15625 37.453125 C 162.15625 36.597656 161.171875 36.363281 160.148438 35.964844 C 159.53125 35.726562 158.902344 35.394531 158.902344 34.679688 C 158.902344 34.132812 159.175781 33.710938 159.625 33.398438 C 160.136719 33.027344 160.757812 32.808594 161.734375 32.808594 C 162.070312 32.808594 162.351562 32.828125 162.578125 32.851562 C 162.820312 32.882812 163 32.898438 163.113281 32.898438 C 163.210938 32.898438 163.359375 32.882812 163.402344 32.875 C 163.214844 33.355469 163.140625 33.683594 163.105469 34.195312 L 162.933594 34.195312 L 162.933594 34.199219 "/>
</g>
</g>
</svg>
