<svg xmlns="http://www.w3.org/2000/svg" width="176pt" height="35.12" viewBox="0 0 176 26.34"><defs><clipPath id="a"><path d="M174.398.04H176v.1h-1.602Zm-1.199.1h2.602v.098h-2.602Zm-1.097.098h3.398V.34h-3.398Zm-1 .102h4.097V.44h-4.097Zm-1 .101h4.796V.54h-4.796Zm-1 .098h5.5v.102h-5.5Zm-1 .102h6.296v.097h-6.296Zm-.903.097h6.903V.84h-6.903Zm-.898.102h7.5V.94h-7.5Zm-.903.101h8.204v.098h-8.204Zm-.796.098h8.699v.102h-8.7Zm-.903.102H173v.097h-9.3Zm-.8.097h9.902v.102h-9.903Zm-.7.102H172.5v.101h-10.3Zm-.8.101H172.3v.098h-10.903Zm-.797.098H172v.102h-11.398Zm-.704.102h11.903v.097h-11.903Zm-.699.097H171.5v.102h-12.3Zm-.699.102h12.8v.101h-12.8Zm-.7.101H171v.098h-13.2Zm-.698.098H170.8v.102h-13.7Zm-.602.102h14v.097h-14Zm-.7.097h14.5v.102h-14.5Zm-.6.102h14.902v.101h-14.903Zm-.598.101H169.8v.098h-15.2ZM154 2.54h15.602v.102H154Zm-.602.102h15.903v.097h-15.903Zm-.5.097h16.204v.102h-16.204Zm-.597.102h16.597v.101h-16.597Zm-.5.101h16.8v.098h-16.8Zm-.602.098h17.2v.102h-17.2Zm-.5.102h17.5v.097h-17.5Zm-.5.097h17.7v.102h-17.7Zm-.5.102h18v.101h-18Zm-.597.101H167.5v.098h-18.398Zm0 .098h.199v.102h-.2Zm1.699 0h16.5v.102h-16.5Zm.398.102H167v.097h-15.8Zm.301.097h15.3v.102h-15.3Zm.102.102h15v.101h-15Zm.097.101h14.7v.098h-14.7Zm.102.098h14.3v.102h-14.3Zm.097.102h14v.097h-14Zm.102.097h13.7v.102H152Zm0 .102h13.5v.101H152Zm.102.101H165.3v.098h-13.2Zm0 .098H165v.102h-12.898Zm0 .102H164.8v.097h-12.7Zm.097.097h12.403v.102h-12.403Zm0 .102h12.2v.101h-12.2Zm0 .101h12v.098h-12Zm0 .098H164v.102h-11.8Zm0 .102h11.5v.097h-11.5Zm0 .097H163.5v.102h-11.3Zm0 .102h11.102v.101h-11.102Zm0 .101h10.903v.098h-10.903Zm-.097.098h10.796v.102h-10.796Zm0 .102h10.597v.097h-10.597Zm0 .097H162.5v.102h-10.398Zm0 .102H162.3v.101h-10.2ZM152 5.94h10.102v.098H152Zm0 .098h9.898v.102H152Zm0 .102h9.7v.097H152Zm-.102.097h9.602v.102h-9.602Zm0 .102h9.301v.101h-9.3Zm-.097.101H161v.098h-9.2Zm0 .098h9v.102h-9Zm-.102.102h8.903v.097h-8.903Zm0 .097h8.7v.102h-8.7Zm-.097.102h8.597v.101h-8.597Zm0 .101H160v.098h-8.398Zm-.102.098h8.3v.102h-8.3Zm0 .102h8.102v.097H151.5Zm-.102.097h8v.102h-8Zm-.097.102h8v.101h-8Zm0 .101h7.8v.098h-7.8Zm-.102.098h7.7v.102h-7.7Zm0 .102h7.5v.097h-7.5Zm-.097.097h7.398v.102h-7.398ZM151 7.84h7.3v.101H151Zm-.102.101h7.204v.098h-7.204Zm0 .098h7v.102h-7Zm-.097.102h6.898v.097h-6.898Zm-.102.097h6.801v.102h-6.8Zm0 .102h6.602v.101h-6.602Zm-.097.101h6.5v.098h-6.5Zm-.102.098h6.398v.102H150.5Zm-.102.102h6.403v.097h-6.403Zm-.097.097h6.3v.102h-6.3Zm0 .102h6.097v.101h-6.097Zm-.102.101h6v.098h-6Zm-.097.098h6v.102h-6Zm-.102.102h5.898v.097H150Zm-.102.097h5.801v.102h-5.8Zm-.097.102h5.8v.101h-5.8Zm0 .101h5.597v.098h-5.597Zm-.102.098h5.5v.102h-5.5Zm-.097.102h5.5v.097h-5.5Zm-.102.097h5.398v.102H149.5Zm-.102.102h5.301v.101h-5.3Zm-.097.101h5.3v.098h-5.3Zm-.102.098h5.2v.102h-5.2Zm-.097.102h5.199v.097h-5.2Zm-.102.097h5.102v.102H149Zm-.102.102h5v.101h-5Zm-.097.101h5v.098h-5Zm-.102.098h4.903v.102h-4.903Zm-.097.102h4.898v.097h-4.898Zm-.102.097h4.8v.102h-4.8Zm-.102.102h4.801v.101h-4.8Zm-.097.101H153v.098h-4.7Zm-.102.098h4.7v.102h-4.7Zm-.097.102h4.597v.097h-4.597Zm0 .097h4.5v.102h-4.5Zm-.102.102h4.398v.101H148Zm-.2.101h4.5v.098h-4.5Zm-.1.098h4.402v.102h-4.403Zm-.098.102H152v.097h-4.398Zm-.102.097h4.3v.102h-4.3Zm-.102.102h4.301v.101h-4.3Zm-.097.101h4.199v.098h-4.2Zm-.102.098h4.2v.102h-4.2Zm-.097.102h4.097v.097h-4.097Zm-.102.097h4.102v.102H147Zm-.102.102H151v.101h-4.102Zm-.097.101h4v.098h-4Zm-.102.098h4v.102h-4Zm-.097.102h3.898v.097h-3.898Zm-.102.097h3.898v.102H146.5Zm-.102.102h3.903v.101h-3.903Zm-.199.101h3.903v.098h-3.903Zm-.097.098H150v.102h-3.898Zm-.102.102h3.898v.097H146Zm-.102.097h3.801v.102h-3.8Zm-.097.102h3.8v.101h-3.8Zm-.102.101h3.801v.098h-3.8Zm-.097.098h3.699v.102h-3.7Zm-.102.102h3.7v.097h-3.7Zm-.102.097H149v.102h-3.602Zm-.199.102h3.7v.101h-3.7Zm-.097.101h3.699v.098h-3.7Zm-.102.098h3.602v.102H145Zm-.102.102h3.602v.097h-3.602Zm-.097.097h3.597v.102h-3.597Zm-.102.102h3.602v.101h-3.602Zm-.199.101h3.602v.098H144.5Zm-.102.098H148v.102h-3.602Zm-.097.102h3.597v.097h-3.597Zm-.102.097h3.5v.102h-3.5Zm-.199.102h3.602v.101H144Zm-.102.101h3.602v.098h-3.602Zm-.097.098h3.597v.102h-3.597Zm-.102.102h3.5v.097h-3.5Zm-.097.097h3.5v.102h-3.5Zm-.204.102H147v.101h-3.602Zm-.097.101h3.5v.098h-3.5Zm-.102.098h3.5v.102h-3.5Zm-.199.102h3.602v.097H143Zm-.102.097h3.602v.102h-3.602Zm-.097.102h3.597v.101h-3.597Zm-.2.101h3.598v.098h-3.597Zm-.101.098h3.602v.102H142.5Zm-.102.102H146v.097h-3.602Zm-.097.097h3.597v.102h-3.597Zm-.2.102h3.598v.101h-3.597Zm-.101.101h3.602v.098H142Zm-.102.098h3.602v.102h-3.602Zm-.199.102h3.7v.097h-3.7Zm-.097.097h3.699v.102h-3.7Zm-.102.102h3.602v.101H141.5Zm-.2.101h3.7v.098h-3.7Zm-.1.098h3.698v.102H141.2Zm-.098.102h3.699v.097h-3.7Zm-.204.097h3.801v.102h-3.8Zm-.097.102h3.8v.101h-3.8Zm-.2.101h3.797v.098h-3.796Zm-.101.098h3.8v.102h-3.8Zm-.102.102h3.801v.097h-3.8Zm-.199.097h3.903v.102h-3.903Zm-.097.102H144v.101h-3.898Zm-.204.101h4v.098h-4Zm-.097.098h3.898v.102h-3.898Zm-.2.102h4v.097h-4Zm-.101.097h4v.102h-4Zm-.102.102h4v.101h-4Zm-.199.101h4.102v.098h-4.102Zm-.097.098h4.097v.102h-4.097Zm-.204.102h4.204v.097h-4.204Zm-.097.097H143v.102h-4.2Zm-.2.102h4.297v.101h-4.296Zm-.101.101h3.8v.098h-3.8Zm-.2.098h3.4v.102h-3.4Zm-.1.102h2.902v.097h-2.903Zm-.2.097h2.5v.102H138Zm-.102.102h1.903v.101h-1.903Zm-.199.101h1.5v.098h-1.5Zm-.097.098h1v.102h-1Zm-.102.102h.5v.097h-.5Zm0 0"/></clipPath><clipPath id="b"><path d="M175.996.016s-14.023 1.023-25.402 3.254c0 0-.88.164-1.453.28 0 0 2.027-.34 2.672.419.675.793 1.675 2.777-6.372 9.836-2.664 2.336-5.64 4.418-7.91 5.902l5.281-.852c2.458-2.34 8.942-7.625 14.708-10.648C167.28 3.09 174.957.371 175.95.062c.07-.023.046-.046.046-.046m0 0"/></clipPath><clipPath id="d"><path d="M149.2 3.441h1.698v.098H149.2Zm-.5.098h2.6v.102h-2.6Zm-.5.102h3.402v.097h-3.403Zm-.4.097h3.9v.102h-3.9Zm-.402.102h4.403v.101h-4.403Zm-.5.101h5v.098h-5Zm-.398.098h5.5v.102h-5.5Zm-.5.102h6.102v.097H146Zm-.398.097h6.5v.102h-6.5Zm-.5.102h7.097v.101h-7.097Zm-.403.101h6.2v.098h-6.2Zm-.5.098h6.2v.102h-6.2Zm-.398.102h6.097v.097h-6.097Zm-.5.097h6.3v.102h-6.3Zm-.403.102h6.301v.101h-6.3Zm-.398.101h6.398v.098H142.5Zm-.5.098h6.602v.102H142Zm-.398.102h6.699v.097h-6.7Zm-.5.097H148v.102h-6.898Zm-.204.102h6.903v.101h-6.903Zm.301.101h6.301v.098h-6.3Zm.602.098h5.398v.102h-5.398Zm.699.102h4.5v.097h-4.5Zm.7.097h3.6v.102h-3.6Zm.6.102h2.7v.101h-2.7Zm.7.101h1.8v.098h-1.8Zm.7.098h.902v.102h-.903Zm0 0"/></clipPath><clipPath id="e"><path d="M149.14 3.55s2.028-.34 2.673.419c.675.793 1.675 2.777-6.372 9.836l-6.226-8.446 5.953-2.23Zm0 0"/></clipPath><clipPath id="f"><path d="m141.016 5.41 4.812.723c9.07-4.211 8.649.406 8.649.406l3.3-4.492c-2.414.36-4.851.765-7.183 1.223 0 0-.875.164-1.453.28l-8.13 1.825-.011.004c-.008.004-.012.004-.012.016 0 .003.004.011.012.011zm0 0"/></clipPath><clipPath id="h"><path d="M140 3h13v4h-13Zm0 0"/></clipPath><clipPath id="i"><path d="M149.14 3.55s2.028-.34 2.673.419c.675.793 1.675 2.777-6.372 9.836l-6.226-8.446 5.953-2.23Zm0 0"/></clipPath><clipPath id="j"><path d="M17 9h12v17.34H17Zm0 0"/></clipPath><linearGradient id="c" x1="-.415" x2="1.551" y1="0" y2="0" gradientTransform="scale(13.8518 -13.8518)rotate(-78 5.503 -6.994)" gradientUnits="userSpaceOnUse"><stop offset="0" style="stop-color:#fff;stop-opacity:1"/><stop offset=".25" style="stop-color:#fff;stop-opacity:1"/><stop offset=".281" style="stop-color:#fff;stop-opacity:1"/><stop offset=".285" style="stop-color:#fff;stop-opacity:1"/><stop offset=".289" style="stop-color:#feffff;stop-opacity:1"/><stop offset=".297" style="stop-color:#feffff;stop-opacity:1"/><stop offset=".313" style="stop-color:#feffff;stop-opacity:1"/><stop offset=".32" style="stop-color:#feffff;stop-opacity:1"/><stop offset=".324" style="stop-color:#fdfefe;stop-opacity:1"/><stop offset=".328" style="stop-color:#fdfdfd;stop-opacity:1"/><stop offset=".336" style="stop-color:#fdfdfd;stop-opacity:1"/><stop offset=".34" style="stop-color:#fcfdfd;stop-opacity:1"/><stop offset=".344" style="stop-color:#fcfcfc;stop-opacity:1"/><stop offset=".348" style="stop-color:#fbfcfc;stop-opacity:1"/><stop offset=".352" style="stop-color:#fbfcfc;stop-opacity:1"/><stop offset=".355" style="stop-color:#fafbfb;stop-opacity:1"/><stop offset=".359" style="stop-color:#fafafa;stop-opacity:1"/><stop offset=".367" style="stop-color:#fafafa;stop-opacity:1"/><stop offset=".371" style="stop-color:#f9fafa;stop-opacity:1"/><stop offset=".375" style="stop-color:#f9f9f9;stop-opacity:1"/><stop offset=".379" style="stop-color:#f8f9f9;stop-opacity:1"/><stop offset=".383" style="stop-color:#f8f9f9;stop-opacity:1"/><stop offset=".387" style="stop-color:#f7f8f8;stop-opacity:1"/><stop offset=".391" style="stop-color:#f7f7f7;stop-opacity:1"/><stop offset=".398" style="stop-color:#f7f7f7;stop-opacity:1"/><stop offset=".402" style="stop-color:#f6f7f7;stop-opacity:1"/><stop offset=".406" style="stop-color:#f6f6f6;stop-opacity:1"/><stop offset=".41" style="stop-color:#f5f5f5;stop-opacity:1"/><stop offset=".414" style="stop-color:#f5f5f4;stop-opacity:1"/><stop offset=".418" style="stop-color:#f4f4f4;stop-opacity:1"/><stop offset=".422" style="stop-color:#f3f3f3;stop-opacity:1"/><stop offset=".426" style="stop-color:#f2f2f2;stop-opacity:1"/><stop offset=".43" style="stop-color:#f1f2f1;stop-opacity:1"/><stop offset=".434" style="stop-color:#f0f1f0;stop-opacity:1"/><stop offset=".438" style="stop-color:#eff0ef;stop-opacity:1"/><stop offset=".441" style="stop-color:#eeefee;stop-opacity:1"/><stop offset=".445" style="stop-color:#edeeee;stop-opacity:1"/><stop offset=".449" style="stop-color:#ededec;stop-opacity:1"/><stop offset=".453" style="stop-color:#ececeb;stop-opacity:1"/><stop offset=".457" style="stop-color:#ebebea;stop-opacity:1"/><stop offset=".461" style="stop-color:#eaebe9;stop-opacity:1"/><stop offset=".465" style="stop-color:#e9eae9;stop-opacity:1"/><stop offset=".469" style="stop-color:#e8e9e8;stop-opacity:1"/><stop offset=".473" style="stop-color:#e8e8e7;stop-opacity:1"/><stop offset=".477" style="stop-color:#e7e8e6;stop-opacity:1"/><stop offset=".48" style="stop-color:#e6e7e5;stop-opacity:1"/><stop offset=".484" style="stop-color:#e5e6e4;stop-opacity:1"/><stop offset=".488" style="stop-color:#e4e5e4;stop-opacity:1"/><stop offset=".492" style="stop-color:#e4e5e3;stop-opacity:1"/><stop offset=".496" style="stop-color:#e2e3e2;stop-opacity:1"/><stop offset=".5" style="stop-color:#e1e2e0;stop-opacity:1"/><stop offset=".504" style="stop-color:#e0e1df;stop-opacity:1"/><stop offset=".508" style="stop-color:#dfdfde;stop-opacity:1"/><stop offset=".512" style="stop-color:#dededc;stop-opacity:1"/><stop offset=".516" style="stop-color:#dcdcdb;stop-opacity:1"/><stop offset=".52" style="stop-color:#dbdbda;stop-opacity:1"/><stop offset=".523" style="stop-color:#dad9d9;stop-opacity:1"/><stop offset=".527" style="stop-color:#d8d8d8;stop-opacity:1"/><stop offset=".531" style="stop-color:#d7d7d6;stop-opacity:1"/><stop offset=".535" style="stop-color:#d6d6d5;stop-opacity:1"/><stop offset=".539" style="stop-color:#d4d4d4;stop-opacity:1"/><stop offset=".543" style="stop-color:#d3d3d3;stop-opacity:1"/><stop offset=".547" style="stop-color:#d2d2d2;stop-opacity:1"/><stop offset=".551" style="stop-color:#d0d1d1;stop-opacity:1"/><stop offset=".555" style="stop-color:#cfcfd0;stop-opacity:1"/><stop offset=".559" style="stop-color:#cdcdce;stop-opacity:1"/><stop offset=".563" style="stop-color:#ccc;stop-opacity:1"/><stop offset=".566" style="stop-color:#cbcacb;stop-opacity:1"/><stop offset=".57" style="stop-color:#c9c9ca;stop-opacity:1"/><stop offset=".574" style="stop-color:#c8c8c8;stop-opacity:1"/><stop offset=".578" style="stop-color:#c6c7c6;stop-opacity:1"/><stop offset=".582" style="stop-color:#c6c6c6;stop-opacity:1"/><stop offset=".586" style="stop-color:#c6c6c5;stop-opacity:1"/><stop offset=".594" style="stop-color:#c6c6c5;stop-opacity:1"/><stop offset=".625" style="stop-color:#c6c6c5;stop-opacity:1"/><stop offset=".75" style="stop-color:#c6c6c5;stop-opacity:1"/><stop offset="1" style="stop-color:#c6c6c5;stop-opacity:1"/></linearGradient><linearGradient id="g" x1=".002" x2=".667" y1="0" y2="0" gradientTransform="matrix(16.8619 0 0 -16.8619 140.961 4.293)" gradientUnits="userSpaceOnUse"><stop offset="0" style="stop-color:#fff;stop-opacity:1"/><stop offset=".063" style="stop-color:#fff;stop-opacity:1"/><stop offset=".066" style="stop-color:#fff;stop-opacity:1"/><stop offset=".07" style="stop-color:#feffff;stop-opacity:1"/><stop offset=".078" style="stop-color:#feffff;stop-opacity:1"/><stop offset=".094" style="stop-color:#feffff;stop-opacity:1"/><stop offset=".102" style="stop-color:#feffff;stop-opacity:1"/><stop offset=".105" style="stop-color:#fdfefe;stop-opacity:1"/><stop offset=".109" style="stop-color:#fdfdfd;stop-opacity:1"/><stop offset=".125" style="stop-color:#fdfdfd;stop-opacity:1"/><stop offset=".133" style="stop-color:#fdfdfd;stop-opacity:1"/><stop offset=".137" style="stop-color:#fcfdfd;stop-opacity:1"/><stop offset=".141" style="stop-color:#fcfdfd;stop-opacity:1"/><stop offset=".145" style="stop-color:#fbfcfc;stop-opacity:1"/><stop offset=".148" style="stop-color:#fbfcfc;stop-opacity:1"/><stop offset=".156" style="stop-color:#fbfcfc;stop-opacity:1"/><stop offset=".16" style="stop-color:#fafbfb;stop-opacity:1"/><stop offset=".164" style="stop-color:#fafafa;stop-opacity:1"/><stop offset=".172" style="stop-color:#fafafa;stop-opacity:1"/><stop offset=".176" style="stop-color:#f9fafa;stop-opacity:1"/><stop offset=".18" style="stop-color:#f9fafa;stop-opacity:1"/><stop offset=".184" style="stop-color:#f9f9f9;stop-opacity:1"/><stop offset=".188" style="stop-color:#f9f9f9;stop-opacity:1"/><stop offset=".191" style="stop-color:#f8f9f9;stop-opacity:1"/><stop offset=".195" style="stop-color:#f8f9f9;stop-opacity:1"/><stop offset=".199" style="stop-color:#f7f8f8;stop-opacity:1"/><stop offset=".203" style="stop-color:#f7f8f8;stop-opacity:1"/><stop offset=".207" style="stop-color:#f7f8f8;stop-opacity:1"/><stop offset=".211" style="stop-color:#f7f7f7;stop-opacity:1"/><stop offset=".215" style="stop-color:#f6f7f7;stop-opacity:1"/><stop offset=".219" style="stop-color:#f6f7f6;stop-opacity:1"/><stop offset=".223" style="stop-color:#f5f6f6;stop-opacity:1"/><stop offset=".227" style="stop-color:#f5f6f6;stop-opacity:1"/><stop offset=".23" style="stop-color:#f5f6f5;stop-opacity:1"/><stop offset=".234" style="stop-color:#f5f6f5;stop-opacity:1"/><stop offset=".238" style="stop-color:#f4f5f5;stop-opacity:1"/><stop offset=".242" style="stop-color:#f4f4f4;stop-opacity:1"/><stop offset=".246" style="stop-color:#f3f4f4;stop-opacity:1"/><stop offset=".25" style="stop-color:#f3f4f3;stop-opacity:1"/><stop offset=".258" style="stop-color:#f3f4f3;stop-opacity:1"/><stop offset=".262" style="stop-color:#f2f3f2;stop-opacity:1"/><stop offset=".266" style="stop-color:#f2f3f2;stop-opacity:1"/><stop offset=".27" style="stop-color:#f1f2f1;stop-opacity:1"/><stop offset=".273" style="stop-color:#f0f1f1;stop-opacity:1"/><stop offset=".277" style="stop-color:#f0f1f0;stop-opacity:1"/><stop offset=".281" style="stop-color:#eff0f0;stop-opacity:1"/><stop offset=".285" style="stop-color:#eeefef;stop-opacity:1"/><stop offset=".289" style="stop-color:#edeeee;stop-opacity:1"/><stop offset=".293" style="stop-color:#edeeed;stop-opacity:1"/><stop offset=".297" style="stop-color:#eceded;stop-opacity:1"/><stop offset=".301" style="stop-color:#ececec;stop-opacity:1"/><stop offset=".305" style="stop-color:#ebecec;stop-opacity:1"/><stop offset=".309" style="stop-color:#ebebeb;stop-opacity:1"/><stop offset=".313" style="stop-color:#eaebeb;stop-opacity:1"/><stop offset=".316" style="stop-color:#eaebea;stop-opacity:1"/><stop offset=".32" style="stop-color:#e9eae9;stop-opacity:1"/><stop offset=".324" style="stop-color:#e9eae9;stop-opacity:1"/><stop offset=".328" style="stop-color:#e8e9e8;stop-opacity:1"/><stop offset=".332" style="stop-color:#e8e8e7;stop-opacity:1"/><stop offset=".336" style="stop-color:#e7e8e7;stop-opacity:1"/><stop offset=".34" style="stop-color:#e7e7e6;stop-opacity:1"/><stop offset=".344" style="stop-color:#e6e6e5;stop-opacity:1"/><stop offset=".348" style="stop-color:#e6e6e5;stop-opacity:1"/><stop offset=".352" style="stop-color:#e5e5e4;stop-opacity:1"/><stop offset=".355" style="stop-color:#e4e4e3;stop-opacity:1"/><stop offset=".359" style="stop-color:#e3e4e3;stop-opacity:1"/><stop offset=".363" style="stop-color:#e3e3e2;stop-opacity:1"/><stop offset=".367" style="stop-color:#e3e3e2;stop-opacity:1"/><stop offset=".371" style="stop-color:#e2e2e1;stop-opacity:1"/><stop offset=".375" style="stop-color:#e1e1e1;stop-opacity:1"/><stop offset=".379" style="stop-color:#e1e1e0;stop-opacity:1"/><stop offset=".383" style="stop-color:#e0e0df;stop-opacity:1"/><stop offset=".387" style="stop-color:#e0dfdf;stop-opacity:1"/><stop offset=".391" style="stop-color:#dfdfde;stop-opacity:1"/><stop offset=".395" style="stop-color:#dfdedd;stop-opacity:1"/><stop offset=".398" style="stop-color:#dedddd;stop-opacity:1"/><stop offset=".402" style="stop-color:#dddcdc;stop-opacity:1"/><stop offset=".406" style="stop-color:#dddcdb;stop-opacity:1"/><stop offset=".41" style="stop-color:#dcdbda;stop-opacity:1"/><stop offset=".414" style="stop-color:#dbdada;stop-opacity:1"/><stop offset=".418" style="stop-color:#dad9d9;stop-opacity:1"/><stop offset=".422" style="stop-color:#d9d8d8;stop-opacity:1"/><stop offset=".426" style="stop-color:#d9d8d7;stop-opacity:1"/><stop offset=".43" style="stop-color:#d8d7d6;stop-opacity:1"/><stop offset=".434" style="stop-color:#d7d6d6;stop-opacity:1"/><stop offset=".438" style="stop-color:#d6d5d5;stop-opacity:1"/><stop offset=".441" style="stop-color:#d5d4d4;stop-opacity:1"/><stop offset=".445" style="stop-color:#d4d3d3;stop-opacity:1"/><stop offset=".449" style="stop-color:#d3d3d2;stop-opacity:1"/><stop offset=".453" style="stop-color:#d3d2d1;stop-opacity:1"/><stop offset=".457" style="stop-color:#d2d1d0;stop-opacity:1"/><stop offset=".461" style="stop-color:#d1d0d0;stop-opacity:1"/><stop offset=".465" style="stop-color:#d0cfcf;stop-opacity:1"/><stop offset=".469" style="stop-color:#cfcecd;stop-opacity:1"/><stop offset=".473" style="stop-color:#cecdcc;stop-opacity:1"/><stop offset=".477" style="stop-color:#cdcccb;stop-opacity:1"/><stop offset=".48" style="stop-color:#cccbca;stop-opacity:1"/><stop offset=".484" style="stop-color:#cbcac9;stop-opacity:1"/><stop offset=".488" style="stop-color:#cac9c8;stop-opacity:1"/><stop offset=".492" style="stop-color:#c9c8c8;stop-opacity:1"/><stop offset=".496" style="stop-color:#c8c7c7;stop-opacity:1"/><stop offset=".5" style="stop-color:#c7c6c6;stop-opacity:1"/><stop offset=".504" style="stop-color:#c7c5c5;stop-opacity:1"/><stop offset=".508" style="stop-color:#c6c4c4;stop-opacity:1"/><stop offset=".512" style="stop-color:#c5c3c3;stop-opacity:1"/><stop offset=".516" style="stop-color:#c4c3c2;stop-opacity:1"/><stop offset=".52" style="stop-color:#c3c2c2;stop-opacity:1"/><stop offset=".523" style="stop-color:#c2c1c1;stop-opacity:1"/><stop offset=".527" style="stop-color:#c1c0c0;stop-opacity:1"/><stop offset=".531" style="stop-color:#c0bfbf;stop-opacity:1"/><stop offset=".535" style="stop-color:#c0bebe;stop-opacity:1"/><stop offset=".539" style="stop-color:#bfbdbd;stop-opacity:1"/><stop offset=".543" style="stop-color:#bebdbc;stop-opacity:1"/><stop offset=".547" style="stop-color:#bdbcbc;stop-opacity:1"/><stop offset=".551" style="stop-color:#bcbbbb;stop-opacity:1"/><stop offset=".555" style="stop-color:#bbbaba;stop-opacity:1"/><stop offset=".559" style="stop-color:#bab9b9;stop-opacity:1"/><stop offset=".563" style="stop-color:#b9b8b8;stop-opacity:1"/><stop offset=".566" style="stop-color:#b8b7b7;stop-opacity:1"/><stop offset=".57" style="stop-color:#b6b6b6;stop-opacity:1"/><stop offset=".574" style="stop-color:#b5b5b5;stop-opacity:1"/><stop offset=".578" style="stop-color:#b4b4b4;stop-opacity:1"/><stop offset=".582" style="stop-color:#b3b3b3;stop-opacity:1"/><stop offset=".586" style="stop-color:#b2b2b2;stop-opacity:1"/><stop offset=".59" style="stop-color:#b1b1b1;stop-opacity:1"/><stop offset=".594" style="stop-color:#b0b0b0;stop-opacity:1"/><stop offset=".598" style="stop-color:#afafaf;stop-opacity:1"/><stop offset=".602" style="stop-color:#aeaeae;stop-opacity:1"/><stop offset=".605" style="stop-color:#adadad;stop-opacity:1"/><stop offset=".609" style="stop-color:#acacab;stop-opacity:1"/><stop offset=".613" style="stop-color:#ababaa;stop-opacity:1"/><stop offset=".617" style="stop-color:#aaaaa9;stop-opacity:1"/><stop offset=".621" style="stop-color:#a9a9a8;stop-opacity:1"/><stop offset=".625" style="stop-color:#a7a8a7;stop-opacity:1"/><stop offset=".629" style="stop-color:#a6a6a6;stop-opacity:1"/><stop offset=".633" style="stop-color:#a5a5a5;stop-opacity:1"/><stop offset=".637" style="stop-color:#a4a4a4;stop-opacity:1"/><stop offset=".641" style="stop-color:#a2a3a3;stop-opacity:1"/><stop offset=".645" style="stop-color:#a1a1a2;stop-opacity:1"/><stop offset=".648" style="stop-color:#a0a0a1;stop-opacity:1"/><stop offset=".652" style="stop-color:#9e9fa0;stop-opacity:1"/><stop offset=".656" style="stop-color:#9d9e9e;stop-opacity:1"/><stop offset=".66" style="stop-color:#9c9d9d;stop-opacity:1"/><stop offset=".664" style="stop-color:#9b9c9d;stop-opacity:1"/><stop offset=".668" style="stop-color:#9a9b9c;stop-opacity:1"/><stop offset=".672" style="stop-color:#999a9b;stop-opacity:1"/><stop offset=".676" style="stop-color:#98999a;stop-opacity:1"/><stop offset=".68" style="stop-color:#979999;stop-opacity:1"/><stop offset=".684" style="stop-color:#969898;stop-opacity:1"/><stop offset=".688" style="stop-color:#959798;stop-opacity:1"/><stop offset=".691" style="stop-color:#949696;stop-opacity:1"/><stop offset=".695" style="stop-color:#929495;stop-opacity:1"/><stop offset=".699" style="stop-color:#919494;stop-opacity:1"/><stop offset=".703" style="stop-color:#919394;stop-opacity:1"/><stop offset=".707" style="stop-color:#8f9292;stop-opacity:1"/><stop offset=".711" style="stop-color:#8e9091;stop-opacity:1"/><stop offset=".715" style="stop-color:#8d8f91;stop-opacity:1"/><stop offset=".719" style="stop-color:#8c8e90;stop-opacity:1"/><stop offset=".723" style="stop-color:#8b8d8f;stop-opacity:1"/><stop offset=".727" style="stop-color:#8a8c8e;stop-opacity:1"/><stop offset=".73" style="stop-color:#888a8c;stop-opacity:1"/><stop offset=".734" style="stop-color:#87898b;stop-opacity:1"/><stop offset=".738" style="stop-color:#85888a;stop-opacity:1"/><stop offset=".742" style="stop-color:#848689;stop-opacity:1"/><stop offset=".746" style="stop-color:#838588;stop-opacity:1"/><stop offset=".75" style="stop-color:#828487;stop-opacity:1"/><stop offset="1" style="stop-color:#828487;stop-opacity:1"/></linearGradient></defs><path d="M111.465 15.848V12.57c-.485.278-.942.516-1.387.746-1.863.97-3.238 1.786-3.238 3.727 0 1.305.883 2.289 2.058 2.289 1.653 0 2.567-1.266 2.567-3.484m4.797 3.492c-.575.504-1.356.793-2.254.793-1.465 0-2.203-.426-2.586-1.332-.832.969-1.844 1.332-3.29 1.332-2.23 0-3.737-1.164-3.737-3.164 0-2.16 1.921-3.2 4.523-4.004l.195-.059c1.309-.402 2.325-.855 2.325-1.969v-.554c0-1.664-.766-2.54-2.168-2.54-1.09 0-1.543.512-1.676 1.626-.07.578-.317 1.273-1.156 1.273-.7 0-1.153-.418-1.153-1.066 0-1.457 1.684-2.488 4.188-2.488 3.07 0 4.265 1.23 4.265 3.738v6.152c0 1.621.27 2.195 1.035 2.195.391 0 .762-.125 1.145-.406zM41.84 12.137h-6.637l-.523 1.308c-.64 1.598-1.035 3.008-1.035 3.774-.004 1.222.863 1.758 2.535 1.984v.504h-6.61v-.523c1.961-.114 2.848-2.586 4.989-7.809L39.227-.004h.617l5.879 14.442c1.226 3.011 1.87 4.687 3.715 4.746v.523h-8.016v-.523c1.558-.086 2.375-.516 2.375-1.48.004-.513-.266-1.282-.7-2.384Zm-6.328-.77h6.023l-2.992-7.57ZM61.469 7.613h-4.297v.543h.215c1.797 0 1.855.598 1.855 3.758v3.606c0 1.128-.043 1.918-.637 2.617-.597.715-1.488 1.168-2.382 1.168-1.645 0-2.48-1.14-2.48-3.332v-8.36H49.34v.543h.215c1.8 0 1.855.598 1.855 3.758v3.953c0 2.742 1.168 4.266 4.028 4.266 1.609 0 2.683-.485 3.804-1.496v1.36l.672-.099c1.191-.168 2.316-.332 3.41-.453l.067-.004v-.449l-.067-.004c-1.398-.105-1.781-.629-1.781-2.422V7.613zM66.137 10.52c0 2.218 1.82 2.953 3.761 4.035 1.305.734 2.235 1.515 2.235 2.746 0 1.215-.832 2.086-2.086 2.086-1.844 0-2.942-.957-3.676-3.688l-.012-.054h-.386v4.289h.367l.023-.032c.282-.398.516-.566.79-.566.128 0 .324.09.57.203.523.234 1.367.594 2.496.594 2.386 0 4.047-1.574 4.047-3.738 0-1.051-.41-1.86-1.098-2.555-.629-.633-1.602-1.184-2.691-1.766-1.536-.84-2.551-1.37-2.551-2.574 0-1.012.824-1.625 1.89-1.625 1.5 0 2.61 1.086 3.051 3.148l.012.055h.39V7.387h-.378l-.02.047c-.133.312-.277.437-.527.437-.125 0-.317-.086-.555-.191-.473-.207-1.21-.492-2.086-.492-2.035 0-3.566 1.398-3.566 3.332M84.3 19.129c-.64.664-1.534 1.004-2.679 1.004-2.266 0-3.332-1.031-3.332-3.031 0-1.875.106-8.774.106-8.774H76.84v-.68l.062-.011c1.637-.27 2.54-1.203 3.203-3.262l.02-.05h.578l-.027 3.288h3.129v.715h-3.133l-.055 7.942v.34c0 1.69.477 2.636 1.856 2.636.578 0 1.03-.168 1.441-.562zM89.332 7.254c-1.18.402-2.43.7-3.82.906l-.063.012v.441l.07.004c1.504.11 1.918.637 1.918 2.453v4.305c0 3.21 0 3.79-1.855 3.79h-.187v.542h6.757v-.543h-.246c-1.09 0-1.57-.172-1.828-.656-.289-.543-.312-1.559-.312-3.047V13.02c0-2.84 1.078-4.692 2.086-4.692.484 0 .718.297.968.676.266.402.567.855 1.215.855.672 0 1.121-.425 1.121-1.062 0-.988-.863-1.606-2.144-1.606-1.352 0-2.508.707-3.305 2.309a20 20 0 0 0-.11-2.125l-.007-.047-.238-.078zM97.676 2.594c0 .8.582 1.379 1.379 1.379.812 0 1.379-.567 1.379-1.38 0-.734-.645-1.378-1.38-1.378s-1.378.644-1.378 1.379M100.172 7.242c-1.27.36-2.594.645-4.164.91l-.063.008v.442l.07.007c1.505.11 1.919.633 1.919 2.45v4.316c0 3.21 0 3.79-1.856 3.79h-.187v.542h6.445v-.543h-.188c-1.832 0-1.886-.539-1.886-3.789V7.219zM121.3 7.254c-1.179.402-2.429.7-3.816.906l-.062.012v.441l.066.004c1.508.11 1.918.637 1.918 2.453v4.305c0 3.21 0 3.79-1.855 3.79h-.188v.542h6.446v-.543h-.188c-1.832 0-1.883-.539-1.883-3.789v-3.77c0-.91.047-1.718.606-2.394.597-.711 1.488-1.137 2.383-1.137 1.648 0 2.484 1.114 2.484 3.305v4c0 3.246-.055 3.785-1.856 3.785h-.187v.543h6.445v-.543h-.187c-1.828 0-1.883-.602-1.883-3.785v-4.027c0-2.622-1.102-4.164-3.91-4.164-1.586 0-2.73.425-3.91 1.515a147 147 0 0 0-.16-1.375l-.239-.082z" style="stroke:none;fill-rule:nonzero;fill:#d92025;fill-opacity:1"/><g clip-path="url(#a)"><g clip-path="url(#b)"><path d="m133.535.89 40.8-8.671L180 18.855l-40.805 8.672Zm0 0" style="stroke:none;fill-rule:nonzero;fill:url(#c)"/></g></g><path d="M175.996.016s-14.023 1.023-25.402 3.254c0 0-.88.164-1.453.28 0 0 2.027-.34 2.672.419.675.793 1.675 2.777-6.372 9.836-2.664 2.336-5.64 4.418-7.91 5.902l5.281-.852c2.458-2.34 8.942-7.625 14.708-10.648C167.28 3.09 174.957.371 175.95.062c.07-.023.046-.046.046-.046" style="stroke:none;fill-rule:nonzero;fill:#d92025;fill-opacity:1"/><g clip-path="url(#d)"><g clip-path="url(#e)"><g clip-path="url(#f)"><path d="M140.988 6.14V3.442H152.2v2.7Zm0 0" style="stroke:none;fill-rule:nonzero;fill:url(#g)"/></g></g></g><g clip-path="url(#h)"><g clip-path="url(#i)"><path d="m141.016 5.41 4.812.723c9.07-4.211 8.649.406 8.649.406l3.3-4.492c-2.414.36-4.851.765-7.183 1.223 0 0-.875.164-1.453.28l-8.13 1.825-.011.004c-.008.004-.012.004-.012.016 0 .003.004.011.012.011z" style="stroke:none;fill-rule:nonzero;fill:#d92025;fill-opacity:1"/></g></g><path d="M.105 9.148c.688-.793 2.13-1.136 2.875-.761.704.355.594 1 .512 1.586-.203 1.425-.453 2.84-.68 4.261-.062.403-.109.809.008 1.305.176-.195.375-.379.528-.594.89-1.258 1.761-2.535 2.664-3.785.32-.441.683-.867 1.09-1.23.593-.528 1.32-.684 2.039-.301.757.398.75 1.144.62 1.863-.19 1.082-.433 2.153-.648 3.227-.043.21-.05.43-.078.644l.34.258c.152-.27.27-.559.457-.797a270 270 0 0 1 2.863-3.543 6.3 6.3 0 0 1 .77-.781c.515-.445 1.098-.602 1.738-.273.664.347.754.96.684 1.617-.184 1.636-.399 3.273-.575 4.91-.054.504-.109 1.035.731.918.445-.063.492.387.262.566-.77.606-1.559 1.235-2.438 1.637-.523.246-.734-.355-.695-.84.117-1.379.265-2.758.406-4.137.059-.597.14-1.195.184-1.796.011-.18-.063-.368-.133-.747-.328.375-.543.59-.727.832-1.468 1.942-2.922 3.895-4.398 5.829-.34.445-.7 1.093-1.363.828-.684-.278-.543-.992-.446-1.582.34-2.012.7-4.016 1.032-6.028.043-.254-.055-.53-.086-.796a6 6 0 0 0-.25-.032c-.196.235-.407.453-.578.703-1.575 2.282-3.141 4.57-4.72 6.852-.265.387-.523.8-.874 1.102-.215.183-.64.296-.89.207C.14 20.203 0 19.762 0 19.488c0-.492.102-.988.188-1.476.46-2.598.933-5.196 1.382-7.793.192-1.117.106-1.188-.984-1.028-.117.02-.242-.02-.48-.043" style="stroke:none;fill-rule:nonzero;fill:#505155;fill-opacity:1"/><g clip-path="url(#j)"><path d="M25.578 15.438c-.234.171-.492.32-.703.515-.887.817-1.723 1.692-2.648 2.457a6.4 6.4 0 0 1-1.817 1.05c-1.379.52-2.414-.179-2.344-1.648.063-1.378.329-2.746.508-4.12.047-.337.078-.676.156-1.008.176-.746.31-1.461-.8-1.493.277-1.054 2.11-1.988 2.922-1.496.238.149.398.668.359.985-.242 1.945-.555 3.883-.832 5.824-.035.246-.008.504-.008.973.43-.235.758-.352 1.012-.563 2.078-1.707 3.91-3.637 5.332-5.93.07-.113.137-.226.21-.332.286-.414.571-.894 1.18-.648.676.273.594.848.422 1.402-.285.895-.59 1.785-.882 2.68-.18.543-.383 1.086-.524 1.64-.121.477-.426.977.192 1.41.105.075-.063.65-.204.95-.28.598-.734 1.129-.93 1.75-.53 1.668-.929 3.379-1.452 5.047-.145.472-.461.972-.848 1.258-.297.214-.899.265-1.23.109-.274-.129-.524-.687-.489-1.023.078-.684.297-1.375.567-2.016.91-2.195 1.875-4.367 2.796-6.559.145-.34.16-.73.239-1.097z" style="stroke:none;fill-rule:nonzero;fill:#505155;fill-opacity:1"/></g></svg>