<svg xmlns="http://www.w3.org/2000/svg" width="176pt" height="19.227" viewBox="0 0 176 14.42"><defs><clipPath id="a"><path d="M12 0h164v14.422H12Zm0 0"/></clipPath></defs><path d="m.11.105 13.878 12.688-.976-3.578.433-5.856 1.844-2.168 3.254-.543-.324-.543z" style="stroke:none;fill-rule:evenodd;fill:#fff;fill-opacity:1"/><path d="m11.82 10.844-.758-.762h.758Zm-1.3-1.196-.977-.867h.977Zm1.3-1.41h-.976v-.976h.976Zm-2.601.11-1.41-1.192h1.41Zm1.3-1.301h-1.3v-1.41h1.3Zm1.41-1.52h-1.41v-1.41h1.41Zm68.97 2.93h5.093L83.5 1.84Zm-26.57 0h5.097L56.93 1.84Zm44.46 0h5.098l-2.496-6.723Zm17.461-1.52 4.445-.109.434-.105.543-.22.648-.433.434-.648.219-.871v-.867l-.22-.543-.214-.434-.324-.324-.434-.324-.433-.22-.543-.105h-4.555Zm-88.922 0 4.445-.109.543-.105.868-.434.324-.434.433-.761.11-1.082v-.434l-.219-.543-.215-.433-.328-.22-.434-.323-.433-.22-.434-.105-.648-.109h-4.012Zm16.266-5.746-.758.11-.652.215-.543.218-.543.325-.758.757-.324.434-.543.977-.325 1.085-.218 2.168.11 1.735.323 1.086.434.867.324.434.328.324.434.324.324.328.543.215.434.11.652.218 1.3.106.544-.106.648-.11.434-.109.543-.214.433-.329.434-.324.758-.758.543-.976.543-1.41.109-1.52-.219-2.059-.324-1.085-.434-.977-.324-.434-.328-.433-.867-.649-.434-.218-.543-.215-.648-.11Zm67.344 12.903h-1.196V.434h1.195Zm-21.364 0H88.27l-1.844-4.336H80.57l-1.734 4.336h-1.3L82.847.434h1.41Zm-14.426 0h-1.191V.434h1.191Zm-12.144 0h-1.3l-1.845-4.336h-5.964l-1.735 4.336h-1.3L56.171.434h1.52ZM163.96 1.734H158V6.18h5.527v1.41H158v5.203h6.18v1.3h-7.59V.434h7.37Zm-12.793 10.192V.434h1.41v13.66h-1.52l-7.913-11.168v11.168h-1.415V.434h1.415Zm-13.445 2.168h-1.196V.434h1.196Zm-8.676-1.301h5.855v1.3h-7.265l-.11-13.66h1.52Zm-21.582 1.3h-1.3l-1.845-4.445h-5.855l-1.844 4.446h-1.3l5.421-13.66h1.41ZM71.57 1.735h-4.336l.11 12.36h-1.305l-.105-12.36h-4.23v-1.3h9.866Zm48.91-1.3 1.407.214.652.325.648.433.434.543.434.653.218 1.082v1.195l-.324.976-.328.649-.433.434-.758.542-.325.215.543.543.325.543.109.324 1.95 4.989h-1.516l-1.954-4.664-.214-.54-.328-.328-.325-.214-.324-.11-.328-.11-2.492-.105h-1.301v6.07h-1.41V.434Zm-88.816 0 1.41.214.653.325.648.433.434.543.433.867.219 1.63-.11.757-.433.977-.215.324-.433.434-.762.542-.324.215.324.22.433.757.11.324 2.058 5.098h-1.406L32.75 9.43l-.328-.54-.324-.328-.325-.214-.652-.22-.648-.105h-3.04v6.07h-1.406V.434Zm13.23-.329.758.11.653.219.652.214.54.325.542.433.867.867.324.434.329.543.433 1.195.215 1.192.11 1.734-.22 1.953-.433 1.301-.648 1.086-.325.539-.433.438-.543.539-.543.328-.649.324-.761.215-.758.11-.867.108-.977-.109-.758-.11-.761-.105-.758-.328-.543-.215-.543-.433-.54-.434-.327-.543-.325-.433-.324-.653-.437-1.191-.215-1.301V6.504l.215-1.41.328-1.192.324-.652.324-.543.328-.539.434-.434.54-.433.542-.328.543-.325.652-.214.649-.22.762-.109Zm-27.652 0L18 0l1.3.105 1.087.329.976.433.867.54.543.652.543.648.325 1.195.105.325H22.34l-.219-.543-.215-.543-.433-.758-.543-.434-.653-.324-.757-.324L18 1.19l-1.082.11-.543.105-.434.219-.433.324-.434.219-.328.434-.215.324-.543.867-.324 1.086-.219 1.734v1.844l.328 1.625.434.867.324.434.215.433.434.329.328.324.433.219.434.214.543.11 1.191.11.977-.11.867-.325.758-.437.652-.54.434-.651.433-.649.215-.98h1.41l-.214.98-.543 1.3-.653.759-.758.758-.433.328-.543.215-.543.218-.648.215h-.653l-.758.11-.976-.11-.758-.11-.762-.323-.758-.215-.543-.434-.433-.434-.434-.542-.433-.434-.215-.652-.434-1.086-.328-1.735.11-2.168.324-1.734.11-.324h-.544V2.707h1.195l.325-.648V1.19h-1.52v1.41H10.52v1.516H9.11v1.52H7.808v1.52L0 .104h5.207v.762h.758V.105h2.058v.868h.868V.105h1.843v.868h1.196V.105h1.734v1.086h.867l.543-.433.215-.11V0ZM171.773 0l.758.105.649.22.543.323.433.22.758.757.434.758.218.976.11.653h-1.196l-.105-.434-.328-1.086-.434-.543-.324-.215-.324-.218-.434-.215-.433-.11-.543-.109h-1.196l-.539.11-.543.214-.757.328-.434.434-.219.434-.11.648v.977l.329.761.648.54.543.218.649.215 4.23 1.3.653.434.214.22.325.214.218.328.11.434.215.433.109.434v1.52l-.324.757-.328.758-.325.328-.543.434-.757.433-1.301.325-1.082.109-.98-.11-.868-.109-.758-.215-.543-.328-.539-.215-.433-.433-.328-.434-.215-.433-.434-1.196-.11-.976h1.192l.11.543.433 1.086.434.543.324.324.328.219.54.324.433.11.652.105.652.109 1.41-.215.973-.328.434-.434.328-.543.324-.972V9.758l-.219-.543-.214-.219-.434-.434-.652-.324-.758-.324-.758-.219-2.496-.648-.758-.219-.543-.324-.648-.649-.543-.761-.219-1.192.219-1.3.433-.977.434-.652.324-.215.867-.434.977-.219L170.906 0z" style="stroke:none;fill-rule:evenodd;fill:#fff;fill-opacity:1"/><g clip-path="url(#a)"><path d="m17.46 1.191-1.085.215-.434.219-.433.324-.434.219-.328.434-.215.324-.543.867-.324 1.086-.219 1.734v1.844l.328 1.625.434.867.324.434.215.433.434.329.328.324.433.219.434.214.543.11 1.191.11.977-.11.867-.325.758-.437.652-.54.434-.651.433-.649.215-.98h1.41l-.214.98-.543 1.3-.653.759-.758.758-.433.328-.543.215-.543.218-.648.215h-.653l-.758.11-.976-.11-.758-.11-.762-.323-.758-.215-.543-.434-.433-.434-.434-.542-.433-.434-.215-.652-.434-1.086-.328-1.735.11-2.168.324-1.734.437-1.195.324-.54.325-.542.433-.434 1.086-.867.649-.324.652-.22.758-.109L18 0l1.3.105 1.087.329.976.433.867.54.543.652.543.648.325 1.195.105.325H22.34l-.219-.543-.215-.543-.433-.758-.543-.434-.653-.324-.757-.324L18 1.19Zm63.438 7.266h5.094L83.5 1.84Zm-26.57 0h5.098L56.93 1.84Zm44.461 0h5.098l-2.496-6.723Zm17.461-1.52 4.445-.109.434-.105.543-.22.648-.433.434-.648.219-.871v-.867l-.22-.543-.214-.434-.324-.324-.434-.324-.433-.22-.543-.105h-4.555Zm-88.922 0 4.445-.109.543-.105.868-.434.324-.434.433-.761.11-1.082v-.434l-.219-.543-.215-.433-.328-.22-.434-.323-.433-.22-.434-.105-.648-.109h-4.012Zm16.266-5.746-.758.11-.652.215-.543.218-.543.325-.758.757-.324.434-.543.977-.325 1.085-.218 2.168.11 1.735.323 1.086.434.867.324.434.328.324.434.324.324.328.543.215.434.11.652.218 1.3.106.544-.106.648-.11.434-.109.543-.214.433-.329.434-.324.758-.758.543-.976.543-1.41.109-1.52-.219-2.059-.324-1.085-.434-.977-.324-.434-.328-.433-.867-.649-.434-.218-.543-.215-.648-.11Zm67.344 12.903h-1.196V.434h1.195Zm-21.364 0H88.27l-1.844-4.336H80.57l-1.734 4.336h-1.3L82.847.434h1.41Zm-14.426 0h-1.191V.434h1.191Zm-12.144 0h-1.3l-1.845-4.336h-5.964l-1.735 4.336h-1.3L56.171.434h1.52ZM163.96 1.734H158V6.18h5.527v1.41H158v5.203h6.18v1.3h-7.59V.434h7.37Zm-12.793 10.192V.434h1.41v13.66h-1.52l-7.913-11.168v11.168h-1.415V.434h1.415Zm-13.445 2.168h-1.196V.434h1.196Zm-8.676-1.301h5.855v1.3h-7.265l-.11-13.66h1.52Zm-21.582 1.3h-1.3l-1.845-4.445h-5.855l-1.844 4.446h-1.3l5.421-13.66h1.41ZM71.57 1.735h-4.336l.11 12.36h-1.305l-.105-12.36h-4.23v-1.3h9.866Zm48.91-1.3 1.407.214.652.325.648.433.434.543.434.653.218 1.082v1.195l-.324.976-.328.649-.433.434-.758.542-.325.215.543.543.325.543.109.324 1.95 4.989h-1.516l-1.954-4.664-.214-.54-.328-.328-.325-.214-.324-.11-.328-.11-2.492-.105h-1.301v6.07h-1.41V.434Zm-88.816 0 1.41.214.653.325.648.433.434.543.433.867.219 1.63-.11.757-.433.977-.215.324-.433.434-.762.542-.324.215.324.22.433.757.11.324 2.058 5.098h-1.406L32.75 9.43l-.328-.54-.324-.328-.325-.214-.652-.22-.648-.105h-3.04v6.07h-1.406V.434Zm13.23-.329.758.11.653.219.652.214.54.325.542.433.867.867.324.434.329.543.433 1.195.215 1.192.11 1.734-.22 1.953-.433 1.301-.648 1.086-.325.539-.433.438-.543.539-.543.328-.649.324-.761.215-.758.11-.867.108-.977-.109-.758-.11-.761-.105-.758-.328-.543-.215-.543-.433-.54-.434-.327-.543-.325-.433-.324-.653-.437-1.191-.215-1.301V6.504l.215-1.41.328-1.192.324-.652.324-.543.328-.539.434-.434.54-.433.542-.328.543-.325.652-.214.649-.22.762-.109ZM171.775 0l.757.105.649.22.543.323.433.22.758.757.434.758.218.976.11.653h-1.196l-.105-.434-.328-1.086-.434-.543-.324-.215-.324-.218-.434-.215-.433-.11-.543-.109h-1.196l-.539.11-.543.214-.757.328-.434.434-.219.434-.11.648v.977l.329.761.648.54.543.218.649.215 4.23 1.3.653.434.214.22.325.214.218.328.11.434.215.433.109.434v1.52l-.324.757-.328.758-.325.328-.543.434-.757.433-1.301.325-1.082.109-.98-.11-.868-.109-.758-.215-.543-.328-.539-.215-.433-.433-.328-.434-.215-.433-.434-1.196-.11-.976h1.192l.11.543.433 1.086.434.543.324.324.328.219.54.324.433.11.652.105.652.109 1.41-.215.973-.328.434-.434.328-.543.324-.972V9.758l-.219-.543-.214-.219-.434-.434-.652-.324-.758-.324-.758-.219-2.496-.648-.758-.219-.543-.324-.648-.649-.543-.761-.219-1.192.219-1.3.433-.977.434-.652.324-.215.867-.434.977-.219L170.906 0z" style="stroke:none;fill-rule:evenodd;fill:#25417f;fill-opacity:1"/></g><path d="m13.121 2.816-.543 1.196h-.543V2.707h1.195ZM5.207.867h.758V.105h2.058v.868h.868V.105h1.843v.868h1.196V.105h1.734v1.086h.867l-.543.434-.433.434V1.19h-1.52v1.41H10.52v1.516H9.11v1.52H7.808v1.52L0 .104h5.207ZM17.242.105l-.976.22-.977.323V0ZM7.59 5.422H6.508V4.227H7.59ZM6.074 3.793h-.867v-.867h.867ZM9 4.012H7.918V2.816H9ZM4.555 2.273h-.762v-.757h.762Zm2.925.11h-.972v-.977h.972Zm2.93.11H9.324V1.405h1.086Zm1.41 8.35-.758-.761h.758Zm-1.3-1.195-.977-.867h.977Zm1.3-1.41h-.976v-.976h.976Zm-2.601.11-1.41-1.192h1.41Zm1.3-1.301h-1.3v-1.41h1.3Zm1.41-1.52h-1.41v-1.41h1.41z" style="stroke:none;fill-rule:evenodd;fill:#ec2631;fill-opacity:1"/></svg>