<svg xmlns="http://www.w3.org/2000/svg" width="176pt" height="67.093" viewBox="0 0 176 50.32"><defs><clipPath id="a"><path d="M0 36h12v14.32H0Zm0 0"/></clipPath><clipPath id="b"><path d="M12 36h11v14.32H12Zm0 0"/></clipPath><clipPath id="c"><path d="M23 36h4v14.32h-4Zm0 0"/></clipPath><clipPath id="d"><path d="M27 36h13v14.32H27Zm0 0"/></clipPath><clipPath id="e"><path d="M40 36h11v14.32H40Zm0 0"/></clipPath><clipPath id="f"><path d="M51 36h13v14.32H51Zm0 0"/></clipPath><clipPath id="g"><path d="M69 36h13v14.32H69Zm0 0"/></clipPath><clipPath id="h"><path d="M82 36h4v14.32h-4Zm0 0"/></clipPath><clipPath id="i"><path d="M87 36h11v14.32H87Zm0 0"/></clipPath><clipPath id="j"><path d="M98 36h10v14.32H98Zm0 0"/></clipPath><clipPath id="k"><path d="M108 36h4v14.32h-4Zm0 0"/></clipPath><clipPath id="l"><path d="M113 36h12v14.32h-12Zm0 0"/></clipPath><clipPath id="m"><path d="M126 36h10v14.32h-10Zm0 0"/></clipPath><clipPath id="n"><path d="M135 36h11v14.32h-11Zm0 0"/></clipPath></defs><g clip-path="url(#a)"><path d="m5.824 39.64-1.699 5.442h3.418ZM9.02 50.056l-.832-2.778H3.48l-.835 2.778H0l4.52-13.348h2.609l4.535 13.348z" style="stroke:none;fill-rule:nonzero;fill:#5e6a70;fill-opacity:1"/></g><g clip-path="url(#b)"><path d="M21.504 48.219c-.867 1.57-2.57 2.101-4.27 2.101-2.254 0-4.332-.925-4.996-3.25-.148-.511-.168-1.023-.207-1.554h2.477c.035.359.094.703.226 1.043.434 1.078 1.418 1.527 2.536 1.527.851 0 2.136-.356 2.136-1.414 0-.227-.074-.379-.172-.586-.28-.57-1.324-.965-1.87-1.191-1.134-.473-2.571-.985-3.536-1.72-.906-.698-1.36-1.683-1.36-2.816 0-2.574 2.231-3.918 4.575-3.918 1.68 0 3.46.72 4.195 2.348.285.606.364 1.172.399 1.832h-2.48c.023-1.246-.997-1.965-2.173-1.965-.832 0-1.945.453-1.945 1.438 0 .941 1.168 1.281 1.887 1.566 1.137.453 2.726.969 3.71 1.664.981.7 1.38 1.703 1.38 2.895 0 .699-.168 1.398-.512 2" style="stroke:none;fill-rule:nonzero;fill:#5e6a70;fill-opacity:1"/></g><g clip-path="url(#c)"><path d="M23.773 50.055V36.707h2.57v13.348z" style="stroke:none;fill-rule:nonzero;fill:#5e6a70;fill-opacity:1"/></g><g clip-path="url(#d)"><path d="m33.5 39.64-1.703 5.442h3.422Zm3.195 10.415-.832-2.778h-4.707l-.836 2.778h-2.644l4.52-13.348H34.8l4.539 13.348z" style="stroke:none;fill-rule:nonzero;fill:#5e6a70;fill-opacity:1"/></g><g clip-path="url(#e)"><path d="m48.328 50.055-5.594-9.395v9.395h-2.441V36.707h2.742l5.426 9.398v-9.398h2.437v13.348z" style="stroke:none;fill-rule:nonzero;fill:#5e6a70;fill-opacity:1"/></g><g clip-path="url(#f)"><path d="m57.676 39.64-1.703 5.442h3.422Zm3.195 10.415-.832-2.778h-4.707l-.832 2.778h-2.648l4.52-13.348h2.608l4.536 13.348z" style="stroke:none;fill-rule:nonzero;fill:#5e6a70;fill-opacity:1"/></g><g clip-path="url(#g)"><path d="m75.36 39.637-1.704 5.445h3.426Zm3.195 10.418-.832-2.778h-4.707l-.832 2.778h-2.649l4.52-13.348h2.61l4.534 13.348z" style="stroke:none;fill-rule:nonzero;fill:#5e6a70;fill-opacity:1"/></g><g clip-path="url(#h)"><path d="M82.582 50.055V36.707h2.57v13.348z" style="stroke:none;fill-rule:nonzero;fill:#5e6a70;fill-opacity:1"/></g><g clip-path="url(#i)"><path d="M93.246 39.145c-.566-.262-1.363-.247-1.984-.247h-1.23v3.86h1.683c1.36 0 2.55-.38 2.55-1.985 0-.738-.34-1.32-1.019-1.628m1.36 10.91-2.723-5.106H90.03v5.106h-2.57V36.707h3.61c1.077 0 2.214-.039 3.234.34 1.683.605 2.59 2.004 2.59 3.762 0 1.703-.813 2.988-2.364 3.707l3.063 5.539z" style="stroke:none;fill-rule:nonzero;fill:#5e6a70;fill-opacity:1"/></g><g clip-path="url(#j)"><path d="M98.879 50.055V36.707h2.629v11.152h5.805v2.196z" style="stroke:none;fill-rule:nonzero;fill:#5e6a70;fill-opacity:1"/></g><g clip-path="url(#k)"><path d="M108.824 50.055V36.707h2.574v13.348z" style="stroke:none;fill-rule:nonzero;fill:#5e6a70;fill-opacity:1"/></g><g clip-path="url(#l)"><path d="m121.738 50.055-5.593-9.395v9.395h-2.442V36.707h2.742l5.426 9.398v-9.398h2.438v13.348z" style="stroke:none;fill-rule:nonzero;fill:#5e6a70;fill-opacity:1"/></g><g clip-path="url(#m)"><path d="M126.602 50.055V36.707h8.41v2.191h-5.84v3.141h5.312v2.195h-5.312v3.625h6.047v2.196z" style="stroke:none;fill-rule:nonzero;fill:#5e6a70;fill-opacity:1"/></g><g clip-path="url(#n)"><path d="M145.45 48.223c-.872 1.566-2.571 2.097-4.274 2.097-2.25 0-4.328-.925-4.992-3.25-.153-.511-.172-1.023-.207-1.55h2.476c.04.355.094.699.227 1.039.433 1.078 1.418 1.53 2.535 1.53.851 0 2.137-.359 2.137-1.417 0-.23-.079-.379-.172-.586-.285-.566-1.325-.965-1.871-1.195-1.137-.47-2.57-.98-3.536-1.715-.91-.7-1.363-1.688-1.363-2.817 0-2.574 2.23-3.918 4.574-3.918 1.688 0 3.465.72 4.2 2.344.285.61.359 1.176.398 1.84h-2.477c.016-1.25-1.003-1.973-2.175-1.973-.832 0-1.946.457-1.946 1.442 0 .941 1.172 1.281 1.887 1.57 1.137.45 2.727.961 3.707 1.66.98.703 1.383 1.703 1.383 2.895 0 .699-.172 1.398-.512 2.004" style="stroke:none;fill-rule:nonzero;fill:#5e6a70;fill-opacity:1"/></g><path d="M142.633 13.254c0 .469.07.945.25 1.39.816 2.02 2.89 3.258 5.515 2.204.633-.25 18.047-7.266 18.047-7.266s-6.855 17.387-7.117 18.035c-.996 2.492.2 4.746 2.242 5.508.45.164.922.242 1.387.238 1.668-.008 3.137-.992 3.856-2.953.109-.297 8.687-23.844 8.878-24.414.114-.332.305-1.121.309-1.668a4.26 4.26 0 0 0-1.262-3.09 4.27 4.27 0 0 0-3.062-1.242c-.555 0-1.012.098-1.703.32-.407.13-22.516 8.36-24.41 9.063-1.891.707-2.934 2.21-2.93 3.875" style="stroke:none;fill-rule:nonzero;fill:#ee2537;fill-opacity:1"/></svg>