<?xml version="1.0" encoding="UTF-8"?>
<svg xmlns="http://www.w3.org/2000/svg" xmlns:xlink="http://www.w3.org/1999/xlink" width="176pt" height="50.32pt" viewBox="0 0 176 50.32" version="1.1">
<defs>
<clipPath id="clip1">
  <path d="M 0 36 L 12 36 L 12 50.320312 L 0 50.320312 Z M 0 36 "/>
</clipPath>
<clipPath id="clip2">
  <path d="M 12 36 L 23 36 L 23 50.320312 L 12 50.320312 Z M 12 36 "/>
</clipPath>
<clipPath id="clip3">
  <path d="M 23 36 L 27 36 L 27 50.320312 L 23 50.320312 Z M 23 36 "/>
</clipPath>
<clipPath id="clip4">
  <path d="M 27 36 L 40 36 L 40 50.320312 L 27 50.320312 Z M 27 36 "/>
</clipPath>
<clipPath id="clip5">
  <path d="M 40 36 L 51 36 L 51 50.320312 L 40 50.320312 Z M 40 36 "/>
</clipPath>
<clipPath id="clip6">
  <path d="M 51 36 L 64 36 L 64 50.320312 L 51 50.320312 Z M 51 36 "/>
</clipPath>
<clipPath id="clip7">
  <path d="M 69 36 L 82 36 L 82 50.320312 L 69 50.320312 Z M 69 36 "/>
</clipPath>
<clipPath id="clip8">
  <path d="M 82 36 L 86 36 L 86 50.320312 L 82 50.320312 Z M 82 36 "/>
</clipPath>
<clipPath id="clip9">
  <path d="M 87 36 L 98 36 L 98 50.320312 L 87 50.320312 Z M 87 36 "/>
</clipPath>
<clipPath id="clip10">
  <path d="M 98 36 L 108 36 L 108 50.320312 L 98 50.320312 Z M 98 36 "/>
</clipPath>
<clipPath id="clip11">
  <path d="M 108 36 L 112 36 L 112 50.320312 L 108 50.320312 Z M 108 36 "/>
</clipPath>
<clipPath id="clip12">
  <path d="M 113 36 L 125 36 L 125 50.320312 L 113 50.320312 Z M 113 36 "/>
</clipPath>
<clipPath id="clip13">
  <path d="M 126 36 L 136 36 L 136 50.320312 L 126 50.320312 Z M 126 36 "/>
</clipPath>
<clipPath id="clip14">
  <path d="M 135 36 L 146 36 L 146 50.320312 L 135 50.320312 Z M 135 36 "/>
</clipPath>
</defs>
<g id="surface1">
<g clip-path="url(#clip1)" clip-rule="nonzero">
<path style=" stroke:none;fill-rule:nonzero;fill:rgb(36.697388%,41.760254%,44.030762%);fill-opacity:1;" d="M 5.824219 39.640625 L 4.125 45.082031 L 7.542969 45.082031 Z M 9.019531 50.054688 L 8.1875 47.277344 L 3.480469 47.277344 L 2.644531 50.054688 L 0 50.054688 L 4.519531 36.707031 L 7.128906 36.707031 L 11.664062 50.054688 L 9.019531 50.054688 "/>
</g>
<g clip-path="url(#clip2)" clip-rule="nonzero">
<path style=" stroke:none;fill-rule:nonzero;fill:rgb(36.697388%,41.760254%,44.030762%);fill-opacity:1;" d="M 21.503906 48.21875 C 20.636719 49.789062 18.933594 50.320312 17.234375 50.320312 C 14.980469 50.320312 12.902344 49.394531 12.238281 47.070312 C 12.089844 46.558594 12.070312 46.046875 12.03125 45.515625 L 14.507812 45.515625 C 14.542969 45.875 14.601562 46.21875 14.734375 46.558594 C 15.167969 47.636719 16.152344 48.085938 17.269531 48.085938 C 18.121094 48.085938 19.40625 47.730469 19.40625 46.671875 C 19.40625 46.445312 19.332031 46.292969 19.234375 46.085938 C 18.953125 45.515625 17.910156 45.121094 17.363281 44.894531 C 16.230469 44.421875 14.792969 43.910156 13.828125 43.175781 C 12.921875 42.476562 12.46875 41.492188 12.46875 40.359375 C 12.46875 37.785156 14.699219 36.441406 17.042969 36.441406 C 18.722656 36.441406 20.503906 37.160156 21.238281 38.789062 C 21.523438 39.394531 21.601562 39.960938 21.636719 40.621094 L 19.15625 40.621094 C 19.179688 39.375 18.160156 38.65625 16.984375 38.65625 C 16.152344 38.65625 15.039062 39.109375 15.039062 40.09375 C 15.039062 41.035156 16.207031 41.375 16.925781 41.660156 C 18.0625 42.113281 19.652344 42.628906 20.636719 43.324219 C 21.617188 44.023438 22.015625 45.027344 22.015625 46.21875 C 22.015625 46.917969 21.847656 47.617188 21.503906 48.21875 "/>
</g>
<g clip-path="url(#clip3)" clip-rule="nonzero">
<path style=" stroke:none;fill-rule:nonzero;fill:rgb(36.697388%,41.760254%,44.030762%);fill-opacity:1;" d="M 23.773438 50.054688 L 23.773438 36.707031 L 26.34375 36.707031 L 26.34375 50.054688 L 23.773438 50.054688 "/>
</g>
<g clip-path="url(#clip4)" clip-rule="nonzero">
<path style=" stroke:none;fill-rule:nonzero;fill:rgb(36.697388%,41.760254%,44.030762%);fill-opacity:1;" d="M 33.5 39.640625 L 31.796875 45.082031 L 35.21875 45.082031 Z M 36.695312 50.054688 L 35.863281 47.277344 L 31.15625 47.277344 L 30.320312 50.054688 L 27.675781 50.054688 L 32.195312 36.707031 L 34.800781 36.707031 L 39.339844 50.054688 L 36.695312 50.054688 "/>
</g>
<g clip-path="url(#clip5)" clip-rule="nonzero">
<path style=" stroke:none;fill-rule:nonzero;fill:rgb(36.697388%,41.760254%,44.030762%);fill-opacity:1;" d="M 48.328125 50.054688 L 42.734375 40.660156 L 42.734375 50.054688 L 40.292969 50.054688 L 40.292969 36.707031 L 43.035156 36.707031 L 48.460938 46.105469 L 48.460938 36.707031 L 50.898438 36.707031 L 50.898438 50.054688 L 48.328125 50.054688 "/>
</g>
<g clip-path="url(#clip6)" clip-rule="nonzero">
<path style=" stroke:none;fill-rule:nonzero;fill:rgb(36.697388%,41.760254%,44.030762%);fill-opacity:1;" d="M 57.675781 39.640625 L 55.972656 45.082031 L 59.394531 45.082031 Z M 60.871094 50.054688 L 60.039062 47.277344 L 55.332031 47.277344 L 54.5 50.054688 L 51.851562 50.054688 L 56.371094 36.707031 L 58.980469 36.707031 L 63.515625 50.054688 L 60.871094 50.054688 "/>
</g>
<g clip-path="url(#clip7)" clip-rule="nonzero">
<path style=" stroke:none;fill-rule:nonzero;fill:rgb(36.697388%,41.760254%,44.030762%);fill-opacity:1;" d="M 75.359375 39.636719 L 73.65625 45.082031 L 77.082031 45.082031 Z M 78.554688 50.054688 L 77.722656 47.277344 L 73.015625 47.277344 L 72.183594 50.054688 L 69.535156 50.054688 L 74.054688 36.707031 L 76.664062 36.707031 L 81.199219 50.054688 L 78.554688 50.054688 "/>
</g>
<g clip-path="url(#clip8)" clip-rule="nonzero">
<path style=" stroke:none;fill-rule:nonzero;fill:rgb(36.697388%,41.760254%,44.030762%);fill-opacity:1;" d="M 82.582031 50.054688 L 82.582031 36.707031 L 85.152344 36.707031 L 85.152344 50.054688 L 82.582031 50.054688 "/>
</g>
<g clip-path="url(#clip9)" clip-rule="nonzero">
<path style=" stroke:none;fill-rule:nonzero;fill:rgb(36.697388%,41.760254%,44.030762%);fill-opacity:1;" d="M 93.246094 39.144531 C 92.679688 38.882812 91.882812 38.898438 91.261719 38.898438 L 90.03125 38.898438 L 90.03125 42.757812 L 91.714844 42.757812 C 93.074219 42.757812 94.265625 42.378906 94.265625 40.773438 C 94.265625 40.035156 93.925781 39.453125 93.246094 39.144531 Z M 94.605469 50.054688 L 91.882812 44.949219 L 90.03125 44.949219 L 90.03125 50.054688 L 87.460938 50.054688 L 87.460938 36.707031 L 91.070312 36.707031 C 92.148438 36.707031 93.285156 36.667969 94.304688 37.046875 C 95.988281 37.652344 96.894531 39.050781 96.894531 40.808594 C 96.894531 42.511719 96.082031 43.796875 94.53125 44.515625 L 97.59375 50.054688 L 94.605469 50.054688 "/>
</g>
<g clip-path="url(#clip10)" clip-rule="nonzero">
<path style=" stroke:none;fill-rule:nonzero;fill:rgb(36.697388%,41.760254%,44.030762%);fill-opacity:1;" d="M 98.878906 50.054688 L 98.878906 36.707031 L 101.507812 36.707031 L 101.507812 47.859375 L 107.3125 47.859375 L 107.3125 50.054688 L 98.878906 50.054688 "/>
</g>
<g clip-path="url(#clip11)" clip-rule="nonzero">
<path style=" stroke:none;fill-rule:nonzero;fill:rgb(36.697388%,41.760254%,44.030762%);fill-opacity:1;" d="M 108.824219 50.054688 L 108.824219 36.707031 L 111.398438 36.707031 L 111.398438 50.054688 L 108.824219 50.054688 "/>
</g>
<g clip-path="url(#clip12)" clip-rule="nonzero">
<path style=" stroke:none;fill-rule:nonzero;fill:rgb(36.697388%,41.760254%,44.030762%);fill-opacity:1;" d="M 121.738281 50.054688 L 116.144531 40.660156 L 116.144531 50.054688 L 113.703125 50.054688 L 113.703125 36.707031 L 116.445312 36.707031 L 121.871094 46.105469 L 121.871094 36.707031 L 124.308594 36.707031 L 124.308594 50.054688 L 121.738281 50.054688 "/>
</g>
<g clip-path="url(#clip13)" clip-rule="nonzero">
<path style=" stroke:none;fill-rule:nonzero;fill:rgb(36.697388%,41.760254%,44.030762%);fill-opacity:1;" d="M 126.601562 50.054688 L 126.601562 36.707031 L 135.011719 36.707031 L 135.011719 38.898438 L 129.171875 38.898438 L 129.171875 42.039062 L 134.484375 42.039062 L 134.484375 44.234375 L 129.171875 44.234375 L 129.171875 47.859375 L 135.21875 47.859375 L 135.21875 50.054688 L 126.601562 50.054688 "/>
</g>
<g clip-path="url(#clip14)" clip-rule="nonzero">
<path style=" stroke:none;fill-rule:nonzero;fill:rgb(36.697388%,41.760254%,44.030762%);fill-opacity:1;" d="M 145.449219 48.222656 C 144.578125 49.789062 142.878906 50.320312 141.175781 50.320312 C 138.925781 50.320312 136.847656 49.394531 136.183594 47.070312 C 136.03125 46.558594 136.011719 46.046875 135.976562 45.519531 L 138.453125 45.519531 C 138.492188 45.875 138.546875 46.21875 138.679688 46.558594 C 139.113281 47.636719 140.097656 48.089844 141.214844 48.089844 C 142.066406 48.089844 143.351562 47.730469 143.351562 46.671875 C 143.351562 46.441406 143.273438 46.292969 143.179688 46.085938 C 142.894531 45.519531 141.855469 45.121094 141.308594 44.890625 C 140.171875 44.421875 138.738281 43.910156 137.773438 43.175781 C 136.863281 42.476562 136.410156 41.488281 136.410156 40.359375 C 136.410156 37.785156 138.640625 36.441406 140.984375 36.441406 C 142.671875 36.441406 144.449219 37.160156 145.183594 38.785156 C 145.46875 39.394531 145.542969 39.960938 145.582031 40.625 L 143.105469 40.625 C 143.121094 39.375 142.101562 38.652344 140.929688 38.652344 C 140.097656 38.652344 138.984375 39.109375 138.984375 40.09375 C 138.984375 41.035156 140.15625 41.375 140.871094 41.664062 C 142.007812 42.113281 143.597656 42.625 144.578125 43.324219 C 145.558594 44.027344 145.960938 45.027344 145.960938 46.21875 C 145.960938 46.917969 145.789062 47.617188 145.449219 48.222656 "/>
</g>
<path style=" stroke:none;fill-rule:nonzero;fill:rgb(93.313599%,14.39209%,21.403503%);fill-opacity:1;" d="M 142.632812 13.253906 C 142.632812 13.722656 142.703125 14.199219 142.882812 14.644531 C 143.699219 16.664062 145.773438 17.902344 148.398438 16.847656 C 149.03125 16.597656 166.445312 9.582031 166.445312 9.582031 C 166.445312 9.582031 159.589844 26.96875 159.328125 27.617188 C 158.332031 30.109375 159.527344 32.363281 161.570312 33.125 C 162.019531 33.289062 162.492188 33.367188 162.957031 33.363281 C 164.625 33.355469 166.09375 32.371094 166.8125 30.410156 C 166.921875 30.113281 175.5 6.566406 175.691406 5.996094 C 175.804688 5.664062 175.996094 4.875 176 4.328125 C 176.007812 3.164062 175.574219 2.066406 174.738281 1.238281 C 173.914062 0.417969 172.828125 -0.0078125 171.675781 -0.00390625 C 171.121094 -0.00390625 170.664062 0.09375 169.972656 0.316406 C 169.566406 0.445312 147.457031 8.675781 145.5625 9.378906 C 143.671875 10.085938 142.628906 11.589844 142.632812 13.253906 "/>
</g>
</svg>
