<svg xmlns="http://www.w3.org/2000/svg" width="176pt" height="61.533" viewBox="0 0 176 46.15"><defs><clipPath id="a"><path d="M103 0h34v46.148h-34Zm0 0"/></clipPath></defs><path d="M168.16 16.914c.008-5.066-4.097-9.219-9.125-9.227-5.097-.007-9.23 4.11-9.238 9.2-.008 5.058 4.098 9.16 9.172 9.168 5.07.008 9.183-4.078 9.191-9.14m7.84 1.211c-.16.785-.3 1.574-.48 2.355-1.239 5.395-4.399 9.297-9.36 11.657-7.851 3.734-17.183 1.004-21.89-6.297-4.825-7.485-2.743-17.711 4.625-22.719 7.714-5.242 17.777-3.75 23.511 3.516 1.91 2.418 3.024 5.191 3.399 8.258.03.242.129.476.195.71z" style="stroke:none;fill-rule:nonzero;fill:#5c41a3;fill-opacity:1"/><g clip-path="url(#a)"><path d="M120.012 7.633c-4.793-.219-9.239 3.844-9.461 8.648-.246 5.32 3.695 9.692 9.125 9.836 5.129.14 9.234-3.785 9.504-8.785.289-5.41-4.16-9.707-9.168-9.7m16.668 8.91c0 4.414.035 8.832-.016 13.246-.027 2.688-.3 5.348-1.137 7.93-1.578 4.847-4.941 7.578-9.922 8.347-2.84.438-5.382-.847-6.714-3.257-.055-.098-.121-.192-.16-.297-.387-1.043-.696-1.653.972-1.938 2.524-.426 4.828-1.394 6.617-3.332 1.086-1.176 1.793-2.55 2.203-4.09.055-.215.133-.449.098-.66-.062-.363-.11-.863-.351-1.027-.23-.156-.758-.063-1.063.098-2.66 1.414-5.484 2.292-8.496 2.242-5.219-.086-9.336-2.375-12.363-6.602-4.504-6.285-4.254-15.351.746-21.207 4.386-5.144 9.98-6.918 16.574-5.273 1.746.437 3.355 1.238 4.793 2.336.414.316.75.336 1.2.082 1.491-.832 3.01-1.614 4.741-1.801a3.6 3.6 0 0 1 1.235.07c.761.176 1.039.578 1.039 1.383q.005 6.875.004 13.75" style="stroke:none;fill-rule:nonzero;fill:#5c41a3;fill-opacity:1"/></g><path d="M0 1.563c.504-.098.902-.204 1.309-.254 1.785-.239 3.566-.313 5.285.379 1.55.62 2.652 1.652 3.207 3.296 1.457 4.309 2.972 8.598 4.469 12.895.12.344.23.695.406 1.008.344.601.879.601 1.238.015.156-.261.266-.554.383-.836 1.95-4.601 3.93-9.191 5.828-13.812.758-1.84 2.121-2.738 3.984-3.024 1.977-.304 4.489-.136 6.614.399-.274.207-.512.383-.75.562a9.76 9.76 0 0 0-3.48 4.91c-.427 1.325-.317 2.684.112 3.958.641 1.898 1.434 3.742 2.196 5.597.277.672.617 1.32.98 1.946.137.234.45.558.633.53.262-.042.574-.323.695-.581 1.688-3.586 3.34-7.192 5.024-10.781.496-1.06.972-2.149 1.64-3.098 1.485-2.129 3.622-3.176 6.204-3.277.964-.04 1.933.03 3.062.054-.371.871-.648 1.555-.953 2.227-3.875 8.574-7.738 17.152-11.648 25.707-.407.894-.993 1.773-1.7 2.449-1.722 1.652-4.117 1.344-5.355-.707-.79-1.305-1.363-2.746-1.996-4.145-1.032-2.257-2.035-4.53-3.051-6.8-.035-.075-.059-.164-.113-.22-.243-.241-.496-.472-.743-.706-.21.238-.5.441-.625.719-.878 1.992-1.726 3.996-2.582 6-.625 1.46-1.222 2.937-1.882 4.386-.82 1.79-2.801 2.77-4.637 2.34-1.11-.261-1.887-.922-2.309-1.992-1.05-2.676-2.11-5.348-3.164-8.023L.465 2.809C.325 2.449.19 2.082 0 1.562M67.492 32.684v-1.227c0-6.426.059-12.855-.02-19.281-.054-4.664 1.977-8.086 6.079-10.063C79.84-.91 86.109-.66 92.062 3.102c2.833 1.789 4.438 4.5 4.977 7.816.043.273.043.559.043.836v17.605c0 .168.008.336-.004.5-.11 1.961-1.012 2.817-2.98 2.825-1.535.007-3.07 0-4.707 0-.02-.332-.051-.63-.051-.922-.024-6.063-.059-12.125-.063-18.188-.004-2.594-1.261-4.383-3.554-5.383-2.696-1.175-5.399-1.03-7.95.485-1.718 1.02-2.566 2.574-2.57 4.59-.012 5.34-.043 10.675-.062 16.011-.004.223.004.45-.016.672-.148 1.84-1.082 2.719-2.922 2.735-1.531.011-3.062 0-4.71 0M52.563 32.633V7.14c0-3.25 1.996-5.528 5.218-5.868.934-.101 1.883-.015 2.899-.015.015.344.043.64.043.941.004 8.91.004 17.828 0 26.742 0 .332 0 .672-.059 1-.312 1.801-1.406 2.73-3.238 2.754-1.367.016-2.739.004-4.106 0-.218 0-.437-.035-.758-.062" style="stroke:none;fill-rule:nonzero;fill:#5c41a3;fill-opacity:1"/></svg>