<svg xmlns="http://www.w3.org/2000/svg" width="199.573" height="59pt" viewBox="0 0 149.68 59"><defs><clipPath id="a"><path d="M126 16h23.68v27H126Zm0 0"/></clipPath></defs><path d="M10.07 30.113c3.524 0 5.72-1.957 5.72-4.726v-.082c0-3.106-2.235-4.727-5.72-4.727H4.648v9.535ZM0 16.343h10.445c6.176 0 10.075 3.52 10.075 8.864v.078c0 5.938-4.77 9.043-10.606 9.043H4.648v8.508H0zM38.68 32.309l-4.57-10.606-4.551 10.606Zm-6.668-16.164h4.316L47.98 42.816h-4.925l-2.692-6.39H27.84l-2.711 6.41h-4.77zM50.336 38.977l2.809-3.325c2.53 2.196 5.062 3.442 8.367 3.442 2.87 0 4.691-1.324 4.691-3.32v-.083c0-1.898-1.07-2.906-5.976-4.054-5.637-1.364-8.825-3.028-8.825-7.914v-.078c0-4.551 3.778-7.676 9.043-7.676 3.856 0 6.922 1.164 9.614 3.32l-2.493 3.523c-2.375-1.78-4.77-2.73-7.18-2.73-2.73 0-4.316 1.406-4.316 3.145v.082c0 2.035 1.207 2.945 6.293 4.152 5.602 1.367 8.508 3.363 8.508 7.758v.078c0 4.969-3.898 7.914-9.457 7.914-4.074 0-7.894-1.406-11.078-4.234" style="stroke:none;fill-rule:nonzero;fill:#1f1f20;fill-opacity:1"/><g clip-path="url(#a)"><path d="M126.605 16.344h4.317l14.183 18.32v-18.32h4.57v26.492h-3.898L131.176 23.98v18.856h-4.57z" style="stroke:none;fill-rule:nonzero;fill:#1f1f20;fill-opacity:1"/></g><path d="M88.797 38.996c-5.067 0-8.746-4.234-8.746-9.418V29.5c0-5.184 3.68-9.34 8.746-9.34 3.027 0 5.3 1.328 7.418 3.285l.043-.039 1.898-4.332c-2.316-1.922-5.086-3.187-9.32-3.187-8.012 0-13.672 6.172-13.672 13.691v.078c0 7.262 5.242 13.063 12.426 13.574l1.86-4.253c-.22 0-.434.02-.653.02M110.879 17.254l-2.277 5.441 4.156 9.614h-8.192l-1.742 4.117h11.633l2.691 6.41h4.907z" style="stroke:none;fill-rule:nonzero;fill:#1f1f20;fill-opacity:1"/><path d="M115.21 0a3.36 3.36 0 0 0-3.362 3.363c0 1.188.632 2.235 1.562 2.828l-4.195 9.954h-3.145L90.38 52.37a3.5 3.5 0 0 0-.77-.098 3.36 3.36 0 0 0-3.363 3.364c0 1.86 1.5 3.363 3.363 3.363a3.36 3.36 0 0 0 3.364-3.363 3.36 3.36 0 0 0-1.567-2.828l4.196-9.973h3.582l15.234-36.207c.258.059.516.098.773.098a3.36 3.36 0 0 0 3.364-3.364A3.33 3.33 0 0 0 115.21 0" style="stroke:none;fill-rule:nonzero;fill:#4fb1d4;fill-opacity:1"/></svg>