<?xml version="1.0" encoding="utf-8"?>
<!-- Generator: Adobe Illustrator 28.0.0, SVG Export Plug-In . SVG Version: 6.00 Build 0)  -->
<svg version="1.1" id="Layer_1" xmlns="http://www.w3.org/2000/svg" xmlns:xlink="http://www.w3.org/1999/xlink" x="0px" y="0px"
	 viewBox="0 0 179 56" style="enable-background:new 0 0 179 56;" xml:space="preserve">
<style type="text/css">
	.st0{fill:#38418C;}
	.st1{fill:#BCBCBC;}
</style>
<g>
	<path id="blue" class="st0" d="M67.2,0h9.8v12.3C80,9.2,82.9,9,84.4,9c4.2,0,10.8,2.2,10.8,13.3c0,9.2-4.7,13.8-10.8,13.8    c-1.7,0-6-1.1-7.4-4.1v3.3h-9.8V0z M77.1,22c0,2.1,0.4,3.6,1.2,4.5c0.7,0.9,1.9,1.4,3,1.4c1.1,0,4-0.9,4-6c0-4.3-2.8-5.5-3.8-5.5    c-1.2,0-2.3,0.5-3.1,1.4C77.5,18.7,77.1,20.1,77.1,22L77.1,22z M100.8,0h9.8v35.3h-9.8V0z M145.1,35.3h-10.7v-4.1    c-1.3,3.4-4.3,4.9-8.4,4.9c-2.8,0-4.9-0.8-6.5-2.4c-1.6-1.6-2.3-4.1-2.3-7.5V9.8h10.7v13.9c0,2.8,2.2,4.1,3.3,4.1    c1.2,0,3.3-1.3,3.3-4.1V9.8h10.7V35.3z M178.7,24.6h-18.9c0.2,1.6,0.7,3.2,1.4,4c0.9,1.1,2.3,1.7,3.7,1.7c1,0,1.9-0.3,2.7-0.7    c0.7-0.4,1.2-1,1.7-1.6l9.6,0.9c-1.5,2.6-3.2,4.5-5.3,5.6c-2.1,1.1-5.1,1.7-8.9,1.7c-3.4,0-6-0.5-8-1.4s-3.5-2.5-4.8-4.6    c-1.3-2.1-1.9-4.6-1.9-7.4c0-4,1.3-7.3,3.8-9.8S159.9,9,164.4,9c3.6,0,5.7,0.6,7.8,1.7c2.1,1.1,3.8,2.8,4.8,4.9    c1.1,2.1,1.7,4.9,1.7,8.3L178.7,24.6z M169.7,20.5c-0.2-1.9-0.9-3.4-1.7-4.2c-0.8-0.8-1.9-1.2-3.3-1.2c-1.5,0-2.9,0.7-3.8,1.9    c-0.6,0.8-0.9,2.1-1.1,3.6L169.7,20.5z"/>
	<path id="air" class="st1" d="M22.1,24.6v-5.8c0-1.9-0.1-3.3-0.2-4c-0.2-1.1-0.7-2.1-1.4-3c-0.6-0.8-1.7-1.4-3-2    C16.1,9.3,14.3,9,12.1,9c-1.9,0-3.8,0.3-5.6,0.9c-1.7,0.6-3,1.5-3.9,2.6S1.1,15.2,0.8,17L5,17.6c0.5-1.8,1.2-3.1,2.2-3.8    c1-0.7,2.5-1.1,4.6-1.1c2.2,0,3.9,0.5,5,1.5c0.8,0.7,1.2,2,1.2,3.8c0,0.2,0,0.5,0,1.1c-1.7,0.6-4.3,1.1-7.8,1.5    c-1.3,0.1-2.6,0.4-3.9,0.7c-1.1,0.3-2.2,0.8-3.2,1.4c-0.9,0.6-1.7,1.5-2.3,2.5C0.3,26.3,0,27.5,0,28.7c0,2.2,0.8,3.9,2.3,5.3    c1.5,1.4,3.4,2.1,6.3,2.1c3.4,0,6.5-1.1,9.5-3.8c0.1,1.2,0.3,2,0.8,3h4.9c-0.6-1-1.2-1.8-1.4-2.9C22.2,31.3,22.1,28.7,22.1,24.6z     M18,24.1c0,1.9-0.2,3.4-0.7,4.4c-0.6,1.3-1.6,2.4-2.9,3c-1.4,0.8-2.9,1.1-4.5,1.1c-1.7,0-3-0.4-3.9-1.2c-1.4-1.3-1.7-3.4-0.7-5    c0.4-0.6,1-1.1,1.7-1.4c0.8-0.3,2-0.6,3.8-0.9c3.2-0.5,5.6-1,7.2-1.7L18,24.1z M32.8,35.3h4.1V9.8h-4.1L32.8,35.3z M32.8,4.9h4.1    V0.8h-4.1L32.8,4.9z M57.4,9c-2.3,0-3.9,1.5-4.9,3.3V9.8h-4.1v25.4h4.1V22.1c0-3.8,0.6-9,4.9-9c1.6,0,3.1,1.7,3.1,1.7l1.8-4.1    C62.3,10.7,60.1,9,57.4,9z"/>
</g>
</svg>
