<svg xmlns="http://www.w3.org/2000/svg" width="176pt" height="52.867" viewBox="0 0 176 39.65"><defs><clipPath id="a"><path d="M164 23h12v16.648h-12Zm0 0"/></clipPath><clipPath id="b"><path d="M31 23h17v16.648H31Zm0 0"/></clipPath><clipPath id="c"><path d="M46 23h19v16.648H46Zm0 0"/></clipPath><clipPath id="d"><path d="M67 23h14v16.648H67Zm0 0"/></clipPath><clipPath id="e"><path d="M82 23h14v16.648H82Zm0 0"/></clipPath><clipPath id="f"><path d="M149 23h14v16.648h-14Zm0 0"/></clipPath><clipPath id="g"><path d="M133 23h14v16.648h-14Zm0 0"/></clipPath><clipPath id="h"><path d="M118 16h5v23.648h-5Zm0 0"/></clipPath><clipPath id="i"><path d="M107 23h8v16.648h-8Zm0 0"/></clipPath><clipPath id="j"><path d="M125 23h4v16.648h-4Zm0 0"/></clipPath><clipPath id="k"><path d="M98 24h4v15.648h-4Zm0 0"/></clipPath></defs><g clip-path="url(#a)"><path d="M176 36.922c-1.523 1.906-3.531 2.738-5.941 2.64-1.524-.058-2.961-.48-4.313-1.187-.34-.176-.723-.336-.777-.918.097-.121.25-.3.43-.52.273.106.515.168.726.286a9.2 9.2 0 0 0 2.57.965c1.848.398 3.614.253 5.192-.88a4.7 4.7 0 0 0 1.008-.988c.87-1.175.636-2.43-.575-3.246-.773-.523-1.632-.824-2.543-1.027a197 197 0 0 1-3.578-.836 7.5 7.5 0 0 1-1.027-.34c-1.777-.723-2.582-2.32-2.14-4.195.28-1.196.956-2.078 2.077-2.559.61-.262 1.262-.48 1.914-.55 1.82-.208 3.618-.075 5.34.632.461.188.93.367 1.242.774-.066.504-.066.504-.515.84-.219-.086-.477-.176-.723-.293-1.879-.91-3.847-1.067-5.87-.653-1.52.313-2.403 1.36-2.395 2.79.007.85.351 1.519 1.125 1.906.394.199.812.375 1.238.488.914.246 1.836.488 2.765.656 1.786.324 3.438.902 4.77 2.195z" style="stroke:none;fill-rule:nonzero;fill:#283776;fill-opacity:1"/></g><g clip-path="url(#b)"><path d="M34.172 32.395c.293.015.512.035.73.035 1.977.02 3.957.043 5.938.05.691.004 1.394.012 2.078-.074 1.176-.148 1.953-.968 2.14-2.14.032-.192.067-.387.075-.578.07-1.614-.672-2.75-2.254-3.008a8 8 0 0 0-1.246-.121c-2.262-.02-4.524-.024-6.781-.028-.215 0-.43.04-.68.059zm-.016 2.628v4.438c-.488.184-.933.086-1.367.102-.445.015-.887.003-1.316.003-.157-.652-.188-14.886-.04-15.843.122-.016.258-.043.391-.043 3.68 0 7.36-.016 11.04.015 1.554.012 2.777.715 3.648 2.016.43.637.68 1.348.824 2.086a7.6 7.6 0 0 1-.121 3.558c-.692 2.465-2.254 3.657-4.82 3.665-2.426.011-4.852.003-7.282.003z" style="stroke:none;fill-rule:nonzero;fill:#283776;fill-opacity:1"/></g><g clip-path="url(#c)"><path d="M51.75 33.414h7.52c-1.282-2.453-2.524-4.82-3.84-7.336-1.266 2.52-2.453 4.887-3.68 7.336m2.684-9.707h2.277l8.238 15.824H62.48c-.687-1.304-1.398-2.652-2.113-4.004h-9.672l-2.027 4.008h-2.66c2.836-5.324 5.629-10.574 8.426-15.828" style="stroke:none;fill-rule:nonzero;fill:#283776;fill-opacity:1"/></g><g clip-path="url(#d)"><path d="M69.688 36.938H80.8v2.515c-.594.145-12.567.176-13.617.031V23.742c.796-.129 1.59-.058 2.484-.039.035 1.469.012 2.91.016 4.348.007 1.476.004 2.953.004 4.433z" style="stroke:none;fill-rule:nonzero;fill:#283776;fill-opacity:1"/></g><g clip-path="url(#e)"><path d="M93.941 31.633c-.379-.024-.652-.043-.925-.051-.809-.031-1.618-.023-2.422-.086-1.285-.101-2.559.012-3.809.277-.879.188-1.707.551-2.234 1.34-1.059 1.594-.664 4.192 1.77 4.79 3.023.742 5.64-.208 7.398-2.852.136-.203.285-.45.289-.676.012-.887-.04-1.773-.067-2.742m-.101-1.203c.469-2.578-.934-5.106-4.16-5.407-1.532-.144-2.993.16-4.422.688-.309.117-.625.223-1.004.355a68 68 0 0 1-.61-.632c.25-.239.407-.489.633-.586 2.114-.938 4.313-1.344 6.602-.813 2.558.598 4.148 2.594 4.23 5.235.036 1.144.024 2.285.047 3.43.035 1.866.086 3.734.13 5.6.007.305 0 .61 0 .864-.54.484-.54.484-1.15.063-.019-.758-.038-1.575-.066-2.536-.402.36-.683.618-.976.864-1.328 1.105-2.84 1.754-4.59 1.726-.75-.011-1.512-.031-2.238-.187-2.012-.422-3.336-1.922-3.418-3.703-.13-2.653 1.18-4.016 3.144-4.621 1.613-.5 3.29-.567 4.973-.461.941.058 1.887.082 2.875.12" style="stroke:none;fill-rule:nonzero;fill:#283776;fill-opacity:1"/></g><g clip-path="url(#f)"><path d="M150.746 32.203c.477-.055.805-.086 1.133-.133 1.629-.226 3.262-.41 4.875-.703 1.035-.191 2.043-.531 2.96-1.097 1.587-.989 1.49-2.633.794-3.704-.922-1.406-2.278-1.925-3.883-1.808-1.812.133-3.297.976-4.437 2.387-1.176 1.457-1.575 3.14-1.442 5.058m.25 1.23c.383 1.43 1.059 2.59 2.102 3.516 2.054 1.824 4.367 1.844 6.797.883.378-.152.757-.309 1.128-.457.168.14.286.215.372.32.066.082.093.2.171.375-.144.164-.27.41-.464.508-2.008 1.004-4.102 1.43-6.301.723-2.32-.746-3.793-2.41-4.653-4.606-1.07-2.746-.863-5.437.817-7.89 1.484-2.164 3.613-3.301 6.258-3.242 1.894.039 3.441.851 4.406 2.566 1.047 1.863.601 3.91-1.227 5.113-1.047.688-2.214 1.063-3.418 1.29-1.554.292-3.132.464-4.703.695-.406.058-.808.128-1.285.207" style="stroke:none;fill-rule:nonzero;fill:#283776;fill-opacity:1"/></g><g clip-path="url(#g)"><path d="M146.32 39.148c-.48.493-.48.493-1.105.153-.016-.29-.05-.617-.05-.946-.005-3.011.019-6.023-.017-9.035-.007-.718-.097-1.457-.308-2.14-.496-1.621-1.86-2.594-3.559-2.692-2.25-.129-3.98.856-5.414 2.48-.328.376-.594.81-.926 1.274 0 1.438.004 2.914 0 4.395-.004 1.922-.007 3.847-.02 5.77-.003.296-.07.593-.112.96l-.914.067c-.051-.313-.13-.551-.13-.786.005-4.824.016-9.652.028-14.476 0-.113.027-.219.039-.3.18-.317.426-.411.727-.306.296.106.402.36.402.664v1.84c.516-.445.902-.8 1.309-1.129 1.25-1.02 2.695-1.593 4.292-1.683 2.739-.153 4.872 1.418 5.489 3.82.148.59.273 1.203.277 1.809.027 3.293.016 6.582.016 9.875 0 .14-.02.277-.024.386" style="stroke:none;fill-rule:nonzero;fill:#283776;fill-opacity:1"/></g><g clip-path="url(#h)"><path d="M118.566 16.77c.559-.543.559-.543 1.172-.036v1.024q-.016 9.363-.027 18.726c0 .282-.012.559.016.836.062.664.351.938 1.02.965.382.02.769.004 1.105.004.332.39.34.711.039 1.05a3.76 3.76 0 0 1-1.72.075c-.855-.152-1.484-.836-1.597-1.715-.035-.3-.035-.61-.035-.918.008-6.465.02-12.93.027-19.398z" style="stroke:none;fill-rule:nonzero;fill:#283776;fill-opacity:1"/></g><g clip-path="url(#i)"><path d="M107.48 39.27V23.914c.204-.14.356-.25.555-.39.207.136.406.261.637.413v3.008c.98-1.3 2.058-2.39 3.625-2.875.887-.277 1.644-.308 2.375-.129.305.688.16.989-.582 1.032-.883.054-1.703.254-2.457.718a4.95 4.95 0 0 0-1.793 1.942c-.39.734-.719 1.508-1.004 2.289-.14.379-.168.816-.172 1.226-.016 2.372-.008 4.739-.008 7.11 0 .195.012.39-.004.586-.054.703-.386.855-1.172.426" style="stroke:none;fill-rule:nonzero;fill:#283776;fill-opacity:1"/></g><g clip-path="url(#j)"><path d="M128.719 39.004c-.438.488-.438.488-1.114.16-.062-1.496-.015-3.05-.023-4.605-.008-1.563-.004-3.125-.004-4.688v-4.695c-.598-.336-1.308.097-1.863-.317-.215-.328-.195-.625.152-.945h2.774c.16.61.226 13.125.078 15.09" style="stroke:none;fill-rule:nonzero;fill:#283776;fill-opacity:1"/></g><g clip-path="url(#k)"><path d="M100.332 25.207h-1.598c-.52-.566-.52-.566-.004-1.168h2.727V39.25c-.219.285-.46.402-.758.266-.289-.133-.37-.391-.367-.692.004-.195 0-.39 0-.586V25.207" style="stroke:none;fill-rule:nonzero;fill:#283776;fill-opacity:1"/></g><path d="M128.785 19.195c-.012.614-.402 1.024-.969 1.016-.574-.008-.921-.406-.918-1.05.004-.661.426-1.114 1-1.075.532.035.903.496.887 1.11M100.16 20.29c-.57-.58-.676-1.102-.308-1.595.289-.394.847-.52 1.253-.285.387.23.575.836.403 1.328-.2.57-.512.7-1.348.551" style="stroke:none;fill-rule:nonzero;fill:#283776;fill-opacity:1"/><path d="M34.695 10.535a4.3 4.3 0 0 0-.89-.668c-.254-.14-.512-.242-.801-.246-.274-.004-.527.082-.766.195-.277.133-.543.286-.816.426a10 10 0 0 1-1.809.707c-.41.121-.824.242-1.25.293-.285.035-.57.102-.855.13-.301.03-.606.038-.906.038-.262.004-.524-.015-.782-.031-.191-.012-.383-.016-.57-.043-.29-.04-.582-.078-.871-.14-.414-.087-.828-.173-1.234-.286s-.805-.258-1.207-.387a17 17 0 0 1-1.563-.613c-.473-.21-.945-.422-1.414-.648q-1.05-.517-2.094-1.051c-.55-.285-1.094-.582-1.64-.871-.211-.11-.422-.211-.63-.324q-.796-.428-1.593-.856c-.207-.113-.418-.215-.625-.324-.29-.156-.57-.316-.856-.469-.359-.195-.718-.383-1.078-.578-.547-.3-1.093-.61-1.64-.91-.313-.172-.625-.336-.934-.508-.457-.258-.918-.512-1.375-.77q-.434-.243-.863-.488-.398-.222-.79-.445L3.626.984 2.313.246C2.195.18 2.082.11 1.96.04h-.242v-.043H0c.02.152.14.211.258.27q.26.122.531.226.438.168.77.5c.902.903 1.808 1.801 2.718 2.703l.61.606q1.165 1.16 2.332 2.328c1.054 1.05 2.105 2.105 3.164 3.16.894.89 1.797 1.777 2.691 2.664.242.238.465.496.711.727.38.355.75.718 1.078 1.125a7.815 7.815 0 0 1 1.172 1.973q.163.411.285.835c.086.305.157.614.196.93.035.312.093.621.093.934 0 .296.016.593-.027.89-.039.246-.039.496-.086.738-.094.504-.219 1-.387 1.485-.218.629-.504 1.23-.836 1.808-.277.489-.566.97-.843 1.454q-.434.75-.867 1.507-.425.732-.856 1.47-.411.704-.816 1.41c-.383.66-.758 1.323-1.137 1.984-.168.293-.34.582-.508.875q-.264.455-.535.918-.303.538-.613 1.078c-.243.418-.48.836-.727 1.254-.125.215-.254.422-.383.632l-.011.106c.035-.004.05-.004.066-.012.172-.113.348-.222.52-.336.582-.375 1.164-.754 1.742-1.129.093-.062.191-.117.277-.187.113-.094.211-.203.316-.305l1.747-1.71 4.015-3.946q.851-.83 1.695-1.66.884-.86 1.762-1.727 1.02-.996 2.031-1.992l1.957-1.922 1.723-1.687q.985-.962 1.965-1.93.971-.95 1.937-1.898.936-.922 1.872-1.836c.718-.707 1.437-1.41 2.152-2.118q.603-.596 1.207-1.199c.039-.039.102-.07.094-.148-.117-.102-.242-.2-.36-.309" style="stroke:none;fill-rule:nonzero;fill:#f8990f;fill-opacity:1"/></svg>