<svg xmlns="http://www.w3.org/2000/svg" width="227.213" height="59pt" viewBox="0 0 170.41 59"><defs><clipPath id="a"><path d="M151 10h19.41v37H151Zm0 0"/></clipPath></defs><path d="M15.977 15.293c-6.372 0-9.813 4.867-9.813 12.645 0 7.847 3.25 13.601 9.742 13.601 3.578 0 5.887-1.82 7.172-3.582 1.895-2.578 2.313-6.363 2.313-9.543 0-3.582-.282-13.121-9.414-13.121M0 13.461c0-.875.277-3.047 3.11-3.047.277 0 .953 0 1.632.34 1.543.742 1.543 2.035 1.543 4.059 2.711-3.247 6.098-4.735 10.438-4.735 8.668 0 15.09 6.629 15.09 18.203 0 8.39-3.665 18.266-14.344 18.266-5.625 0-8.266-2.227-11.184-4.805v14.145C6.285 56.77 6.027 59 3.11 59c-.539 0-1.078-.133-1.546-.336C.206 57.922 0 56.902 0 55.887zM59.633 37.883c2.363-3.043 2.5-7.371 2.5-9.469 0-6.566-2.168-13.121-10.418-13.121-1.84 0-5.418.262-7.988 3.848-1.77 2.578-2.309 6.16-2.309 9.347 0 3.442.61 7.168 2.5 9.602 1.355 1.687 3.992 3.45 7.848 3.45 3.058 0 6.027-1.212 7.867-3.657m4.465 3.726c-4.133 4.532-9.203 4.938-12.453 4.938-3.524 0-8.403-.465-12.258-4.73-4.188-4.602-4.324-10.837-4.324-13.329 0-3.25.328-8.941 4.183-13.34 4.203-4.66 9.828-5.07 12.73-5.07 9.95 0 16.583 6.363 16.583 17.93 0 3.047-.329 9-4.461 13.601M78.492 16.777c1.285-3.859 5.16-6.363 9.153-6.363.73 0 3.714 0 3.714 3.047 0 2.371-1.89 2.777-2.847 2.91-1.684.266-3.457.54-5.278 1.692-4.464 3.113-4.464 7.847-4.464 11.91v13.46c0 1.09-.207 2.84-3.11 2.84-2.777 0-3.055-1.894-3.055-2.84V13.259c0-.817.278-2.844 2.989-2.844 2.636 0 2.898 2.027 2.898 2.844zM100.219 16.098H96.62c-.746 0-2.57-.266-2.57-2.637 0-2.434 1.824-2.637 2.57-2.637h3.664V2.902c0-.875.262-2.902 3.04-2.902 2.917 0 3.109 1.953 3.109 2.902v7.922h4.203c.816 0 2.57.203 2.57 2.637 0 2.371-1.824 2.637-2.57 2.637h-4.203V33.28c0 4.063.07 4.543.277 5.348.469 1.965 1.754 2.3 3.598 2.441 1.613.063 3.316.203 3.316 2.567 0 2.37-2.172 2.636-3.996 2.636-9.41 0-9.41-5.07-9.41-10.343zM140.887 24.965c-.258-4.469-2.707-9.41-9.133-9.41-1.426 0-4.203.136-6.566 2.23-2.708 2.375-3.317 5.621-3.665 7.18Zm-19.414 5.07c.12 3.043.8 5.75 2.64 7.992 2.293 2.84 5.07 3.309 7.778 3.309 5.351 0 7.242-2.77 8.457-4.664 1.078-1.832 1.425-2.504 2.918-2.504 1.476 0 3.507.875 3.507 2.84 0 .273 0 .469-.066.672-.262 1.293-1.426 2.78-2.156 3.593-4.668 5.274-10.766 5.274-12.66 5.274-4.41 0-8.871-.875-12.328-4.734-3.04-3.45-4.465-8.329-4.465-13.196 0-8.531 4.605-18.476 16.586-18.476 1.492 0 2.988.14 4.394.476 3.055.742 5.695 2.23 7.797 5.07 2.223 3.118 3.387 7.516 3.387 11.301 0 2.844-2.172 3.047-3.059 3.047z" style="stroke:none;fill-rule:nonzero;fill:#1b2c4f;fill-opacity:1"/><g clip-path="url(#a)"><path d="M157.543 16.777c1.3-3.859 5.156-6.363 9.148-6.363.73 0 3.72 0 3.72 3.047 0 2.371-1.895 2.777-2.849 2.91-1.687.266-3.44.54-5.28 1.692-4.466 3.113-4.466 7.847-4.466 11.91v13.46c0 1.09-.207 2.84-3.105 2.84-2.777 0-3.059-1.894-3.059-2.84V13.259c0-.817.282-2.844 2.989-2.844 2.64 0 2.898 2.027 2.898 2.844v3.52" style="stroke:none;fill-rule:nonzero;fill:#1b2c4f;fill-opacity:1"/></g></svg>