<svg xmlns="http://www.w3.org/2000/svg" width="176pt" height="65.933" viewBox="0 0 176 49.45"><defs><clipPath id="a"><path d="M28 6h27v43.45H28Zm0 0"/></clipPath><clipPath id="b"><path d="M134 6h27v43.45h-27Zm0 0"/></clipPath><clipPath id="c"><path d="M57 6h27v43.45H57Zm0 0"/></clipPath><clipPath id="d"><path d="M0 6h26v43.45H0Zm0 0"/></clipPath><clipPath id="e"><path d="M71 49h2v.45h-2Zm0 0"/></clipPath><clipPath id="f"><path d="M145 49h2v.45h-2Zm0 0"/></clipPath><clipPath id="g"><path d="M42 49h2v.45h-2Zm0 0"/></clipPath><clipPath id="h"><path d="M68 49h2v.45h-2Zm0 0"/></clipPath><clipPath id="i"><path d="M148 49h2v.45h-2Zm0 0"/></clipPath><clipPath id="j"><path d="M39 49h1v.45h-1Zm0 0"/></clipPath><clipPath id="k"><path d="M70 49h1v.45h-1Zm0 0"/></clipPath><clipPath id="l"><path d="M40 49h2v.45h-2Zm0 0"/></clipPath><clipPath id="m"><path d="M41 49h1v.45h-1Zm0 0"/></clipPath><clipPath id="n"><path d="M147 49h1v.45h-1Zm0 0"/></clipPath><clipPath id="o"><path d="M147 49h2v.45h-2Zm0 0"/></clipPath><clipPath id="p"><path d="M85 6h27v43.45H85Zm0 0"/></clipPath><clipPath id="q"><path d="M113 6h20v43.45h-20Zm0 0"/></clipPath></defs><g clip-path="url(#a)"><path d="M39.39 24.516c.56.168 2.446.203 3.657.062V14.352c-.2-1.059-.953-1.282-1.844-1.446-.43.188-.922.399-1.336.574-.238.5-.484.86-.48 1.336.011 3.235.004 6.47.004 9.7m-.34 24.773c-2.077-.047-4.097-.445-5.991-1.27-2.38-1.035-3.946-2.843-4.54-5.406-.14-.613-.18-1.258-.18-1.89-.01-8.602-.03-17.203.009-25.809.007-2.344.941-4.355 2.77-5.86 1.112-.91 2.437-1.472 3.823-1.831 1.008-.258 2.036-.407 3.07-.547 1.837-.25 3.673-.192 5.497-.102 2.355.114 4.676.559 6.812 1.653a7.2 7.2 0 0 1 2.922 2.765c.54.914.89 1.953.895 3.043.011 5.531.008 11.063.008 16.594 0 .105-.008.21-.02.383H39.391v.8c0 2.934.011 5.868-.008 8.801-.004.719.133 1.36.61 1.926.23.121.476.242.734.375.21 0 .437.012.66-.004 1.133-.07 1.617-.586 1.695-1.707.016-.223.004-.445.004-.672v-7.477h11.062v.676c0 2.485-.015 4.97.004 7.458.012 1.902-.617 3.566-1.867 4.968-.676.762-1.55 1.344-2.48 1.754-.922.403-1.907.656-2.875.95a7 7 0 0 1-1.2.242c-.77.082-1.539.125-2.312.187-.262-.004-.527-.02-.79 0-.077.004-.148.106-.222.16h-.836q-.03-.059-.054-.117-.06.06-.114.117h-.336l-.109-.117-.059.117h-1.003c-.227-.34-.567-.097-.844-.16" style="stroke:none;fill-rule:nonzero;fill:#97989a;fill-opacity:1"/></g><g clip-path="url(#b)"><path d="M145.875 14.371v10.23h3.648v-.706c0-2.934-.023-5.868.016-8.801.012-.864-.226-1.52-.95-1.969l-.804-.184c-1.004.11-1.715.493-1.91 1.43m-.555 34.918c-2.015-.078-3.984-.469-5.824-1.27-2.043-.89-3.574-2.351-4.273-4.546-.278-.864-.453-1.75-.453-2.66-.004-8.606-.02-17.208.007-25.81.012-2.343.899-4.362 2.711-5.886.977-.816 2.121-1.36 3.336-1.73 1.13-.34 2.281-.535 3.453-.703 1.918-.274 3.84-.2 5.746-.11 2.13.102 4.25.477 6.204 1.406 2 .95 3.48 2.41 4.093 4.602.14.496.246 1.023.246 1.535.024 5.504.016 11.004.016 16.508 0 .105-.016.21-.031.383h-14.723v.715c0 2.988.008 5.976-.008 8.965-.004.628.133 1.199.43 1.71.566.493 1.21.586 1.89.504.766-.086 1.15-.601 1.403-1.664v-8.183h11.043v.422c-.004 2.738.023 5.476-.02 8.21a6.28 6.28 0 0 1-1.285 3.75c-1.031 1.368-2.39 2.31-4.035 2.856-1.223.41-2.453.719-3.746.855-.547.059-1.094.122-1.645.141-.261-.004-.527-.02-.789 0-.074.004-.144.106-.218.16h-.84c-.02-.039-.035-.078-.059-.117q-.051.06-.11.117h-.335q-.054-.059-.11-.117l-.058.117h-.836c-.074-.054-.148-.156-.227-.16-.316-.016-.636-.004-.953 0" style="stroke:none;fill-rule:nonzero;fill:#97989a;fill-opacity:1"/></g><g clip-path="url(#c)"><path d="M71.926 13.93c-.328-.387-.547-.64-.727-.852-.52-.074-.945-.133-1.375-.195-1.117.426-1.59 1.234-1.59 2.336q-.012 12.69.004 25.375c0 .406.078.824.192 1.215.183.64.816 1.082 1.5 1.101.277.008.554.004.816.004q.468-.247.875-.465c.352-.586.461-1.191.461-1.844-.008-8.457-.004-16.914-.012-25.375 0-.488-.105-.972-.144-1.3m-3.711 35.36c-2.27-.06-4.465-.505-6.531-1.45-1.516-.695-2.739-1.778-3.508-3.27-.528-1.023-.856-2.133-.856-3.312 0-8.88-.023-17.762.016-26.645.012-2.375 1.086-4.27 3.023-5.68 1.36-.988 2.899-1.535 4.512-1.886 1.426-.313 2.863-.555 4.332-.516.922.024 1.848-.043 2.766.02 2.004.129 3.953.5 5.812 1.316.938.41 1.828.871 2.637 1.504 1.477 1.16 2.344 2.625 2.59 4.52.129 1 .117 1.992.12 2.984.013 8.016.02 16.031-.007 24.047-.008 1.258-.25 2.488-.8 3.664-.798 1.707-2.169 2.75-3.813 3.496-1.149.523-2.38.793-3.613 1.012-.758.133-1.54.133-2.31.195-.32-.004-.636-.016-.952 0-.078.004-.153.106-.227.16h-.84q-.253-.415-.5 0h-.84c-.074-.054-.144-.156-.222-.16-.262-.02-.527-.004-.79 0" style="stroke:none;fill-rule:nonzero;fill:#97989a;fill-opacity:1"/></g><g clip-path="url(#d)"><path d="M14.594 13.855c-.168-.183-.242-.265-.32-.343-.852-.84-2.067-.797-2.833.12-.336.395-.39.888-.39 1.395.008 3.938.02 7.875-.008 11.809-.004.945.398 1.512 1.215 1.828h1.16c.285-.144.602-.312.895-.465.16-.332.308-.625.44-.894 0-4.059.005-8.078-.007-12.098-.004-.488-.105-.973-.152-1.352M0 6.707c3.91.004 7.82-.016 11.73.016 1.434.011 2.86.148 4.29.289 1.234.12 2.44.316 3.617.695 2.8.906 4.515 2.875 5.289 5.652.265.938.293 1.95.379 2.934.265 3.027.222 6.066.136 9.098-.046 1.656-.18 3.328-.765 4.937-.492 1.367-1.313 2.426-2.512 3.176-1.285.8-2.703 1.281-4.203 1.543a23.6 23.6 0 0 1-4.453.332c-.781-.012-1.559-.004-2.32-.004-.043.05-.063.07-.079.09a.2.2 0 0 0-.035.07 1 1 0 0 0-.015.168c-.004 4.414-.004 8.824-.012 13.238 0 .024-.016.051-.063.172-1.793.016-3.625.004-5.453.004-1.843.004-3.687 0-5.531-.004z" style="stroke:none;fill-rule:nonzero;fill:#97989a;fill-opacity:1"/></g><path d="M176 16.43c-.062.136-.133.273-.191.41-.602 1.387-1.739 2.07-3.137 2.445-1.606.43-3.246.422-4.863.293-1.211-.098-2.442-.297-3.477-1.098-.363-.277-.668-.566-.875-.96-.129-.243-.234-.497-.316-.668-.262-1.676-.258-3.278-.157-4.887.004-.067.098-.125.16-.203h5.446v4.414q.396.293.781.582c.234-.07.441-.133.746-.227.055-.254.168-.562.184-.879.027-.668.015-1.336 0-2.007-.024-1.032-.488-1.723-1.469-2.16-1.426-.641-2.812-1.36-4.191-2.094-1.11-.594-1.512-1.621-1.54-2.817-.019-.781 0-1.562-.003-2.344a4.2 4.2 0 0 1 .449-1.902c.406-.82 1.125-1.344 1.98-1.652.746-.27 1.52-.414 2.309-.547.945-.156 1.883-.156 2.812-.098 1.059.067 2.141.188 3.11.657 1.164.566 2.05 1.402 2.086 2.828l-.024 4.191c-1.78 0-3.566.004-5.347.004V3.559c-.176-.172-.371-.368-.52-.512-1.105-.027-1.324.176-1.332 1.152-.004.668 0 1.332 0 1.985.559 1.156.852 1.398 1.844 1.53.144.4.55.423.851.575.926.461 1.871.879 2.805 1.328.875.422 1.516 1.055 1.75 2.035.012.036.086.055.129.082z" style="stroke:none;fill-rule:nonzero;fill:#97989a;fill-opacity:1"/><g clip-path="url(#e)"><path d="M71.406 49.45c.074-.055.149-.157.227-.16.316-.017.633-.005.953 0q-.01.08-.008.16z" style="stroke:none;fill-rule:nonzero;fill:#c1c1c0;fill-opacity:1"/></g><g clip-path="url(#f)"><path d="M145.32 49.29c.317-.005.637-.017.953 0 .079.003.153.105.227.16h-1.176q.004-.08-.004-.16" style="stroke:none;fill-rule:nonzero;fill:#bebebe;fill-opacity:1"/></g><g clip-path="url(#g)"><path d="M42.406 49.45c.074-.055.145-.157.223-.16.262-.02.527-.005.789 0-.004.054-.008.105-.004.16z" style="stroke:none;fill-rule:nonzero;fill:#bdbdbd;fill-opacity:1"/></g><g clip-path="url(#h)"><path d="M68.215 49.29c.262-.005.527-.02.789 0 .078.003.148.105.223.16h-1.004q.002-.08-.008-.16" style="stroke:none;fill-rule:nonzero;fill:#bebebc;fill-opacity:1"/></g><g clip-path="url(#i)"><path d="M148.848 49.45c.074-.055.144-.157.218-.16.262-.02.528-.005.79 0q-.005.08-.004.16z" style="stroke:none;fill-rule:nonzero;fill:#bebebe;fill-opacity:1"/></g><g clip-path="url(#j)"><path d="M39.05 49.29c.278.062.618-.18.845.16h-.84c.004-.055 0-.106-.004-.16" style="stroke:none;fill-rule:nonzero;fill:#bdbdbd;fill-opacity:1"/></g><g clip-path="url(#k)"><path d="M70.066 49.45q.247-.417.5 0z" style="stroke:none;fill-rule:nonzero;fill:#bebebc;fill-opacity:1"/></g><g clip-path="url(#l)"><path d="m40.898 49.45.059-.118q.054.06.11.117z" style="stroke:none;fill-rule:nonzero;fill:#bdbdbd;fill-opacity:1"/></g><g clip-path="url(#m)"><path d="M41.402 49.45q.054-.06.114-.118.024.06.054.117z" style="stroke:none;fill-rule:nonzero;fill:#bdbdbd;fill-opacity:1"/></g><g clip-path="url(#n)"><path d="m147.336 49.45.059-.118c.035.04.074.078.109.117z" style="stroke:none;fill-rule:nonzero;fill:#bebebe;fill-opacity:1"/></g><g clip-path="url(#o)"><path d="M147.84 49.45q.057-.06.11-.118c.023.04.038.078.058.117z" style="stroke:none;fill-rule:nonzero;fill:#bebebe;fill-opacity:1"/></g><g clip-path="url(#p)"><path d="M96.883 14.453v6.168c0 2.09-.004 4.184.004 6.274 0 .816.437 1.492 1.066 1.718.742.266 1.762.047 2.23-.492.34-.398.399-.883.399-1.39q-.005-5.815-.004-11.63v-.851c-.187-.355-.34-.645-.473-.89-1.57-.817-2.468-.505-3.222 1.093M85.87 6.711h.875c3.738 0 7.48-.012 11.223.008 1.078.008 2.164.027 3.23.176 1.59.222 3.203.34 4.727.957.883.359 1.707.77 2.367 1.46.555.575 1.144 1.102 1.559 1.825.449.773.738 1.578.945 2.43.223.937.273 1.894.363 2.855.285 3.144.13 6.289.106 9.433-.012 1.547-.22 3.102-.762 4.598-.43 1.168-1.149 2.04-2.121 2.77-1.375 1.039-2.953 1.511-4.613 1.824-1.391.266-2.79.351-4.204.332-.859-.012-1.722-.004-2.656-.004V49.07H85.871z" style="stroke:none;fill-rule:nonzero;fill:#97989a;fill-opacity:1"/></g><g clip-path="url(#q)"><path d="M113.672 48.941V6.824c.64-.148 8.555-.203 10.766-.074.019.02.042.035.058.059a.15.15 0 0 1 .035.07q.014.122.016.25l.012 32.098c0 .023.023.046.074.144h8.082v9.582c-1.27.031-2.528.09-3.785.09-4.645.004-9.285-.008-13.93-.023-.414 0-.828-.047-1.328-.079" style="stroke:none;fill-rule:nonzero;fill:#97989a;fill-opacity:1"/></g></svg>