<?xml version="1.0" encoding="UTF-8"?>
<svg xmlns="http://www.w3.org/2000/svg" xmlns:xlink="http://www.w3.org/1999/xlink" width="176pt" height="49.45pt" viewBox="0 0 176 49.45" version="1.1">
<defs>
<clipPath id="clip1">
  <path d="M 28 6 L 55 6 L 55 49.449219 L 28 49.449219 Z M 28 6 "/>
</clipPath>
<clipPath id="clip2">
  <path d="M 134 6 L 161 6 L 161 49.449219 L 134 49.449219 Z M 134 6 "/>
</clipPath>
<clipPath id="clip3">
  <path d="M 57 6 L 84 6 L 84 49.449219 L 57 49.449219 Z M 57 6 "/>
</clipPath>
<clipPath id="clip4">
  <path d="M 0 6 L 26 6 L 26 49.449219 L 0 49.449219 Z M 0 6 "/>
</clipPath>
<clipPath id="clip5">
  <path d="M 71 49 L 73 49 L 73 49.449219 L 71 49.449219 Z M 71 49 "/>
</clipPath>
<clipPath id="clip6">
  <path d="M 145 49 L 147 49 L 147 49.449219 L 145 49.449219 Z M 145 49 "/>
</clipPath>
<clipPath id="clip7">
  <path d="M 42 49 L 44 49 L 44 49.449219 L 42 49.449219 Z M 42 49 "/>
</clipPath>
<clipPath id="clip8">
  <path d="M 68 49 L 70 49 L 70 49.449219 L 68 49.449219 Z M 68 49 "/>
</clipPath>
<clipPath id="clip9">
  <path d="M 148 49 L 150 49 L 150 49.449219 L 148 49.449219 Z M 148 49 "/>
</clipPath>
<clipPath id="clip10">
  <path d="M 39 49 L 40 49 L 40 49.449219 L 39 49.449219 Z M 39 49 "/>
</clipPath>
<clipPath id="clip11">
  <path d="M 70 49 L 71 49 L 71 49.449219 L 70 49.449219 Z M 70 49 "/>
</clipPath>
<clipPath id="clip12">
  <path d="M 40 49 L 42 49 L 42 49.449219 L 40 49.449219 Z M 40 49 "/>
</clipPath>
<clipPath id="clip13">
  <path d="M 41 49 L 42 49 L 42 49.449219 L 41 49.449219 Z M 41 49 "/>
</clipPath>
<clipPath id="clip14">
  <path d="M 147 49 L 148 49 L 148 49.449219 L 147 49.449219 Z M 147 49 "/>
</clipPath>
<clipPath id="clip15">
  <path d="M 147 49 L 149 49 L 149 49.449219 L 147 49.449219 Z M 147 49 "/>
</clipPath>
<clipPath id="clip16">
  <path d="M 85 6 L 112 6 L 112 49.449219 L 85 49.449219 Z M 85 6 "/>
</clipPath>
<clipPath id="clip17">
  <path d="M 113 6 L 133 6 L 133 49.449219 L 113 49.449219 Z M 113 6 "/>
</clipPath>
</defs>
<g id="surface1">
<g clip-path="url(#clip1)" clip-rule="nonzero">
<path style=" stroke:none;fill-rule:nonzero;fill:rgb(59.042358%,59.654236%,60.389709%);fill-opacity:1;" d="M 39.390625 24.515625 C 39.949219 24.683594 41.835938 24.71875 43.046875 24.578125 C 43.046875 21.136719 43.046875 17.6875 43.046875 14.351562 C 42.847656 13.292969 42.09375 13.070312 41.203125 12.90625 C 40.773438 13.09375 40.28125 13.304688 39.867188 13.480469 C 39.628906 13.980469 39.382812 14.339844 39.386719 14.816406 C 39.398438 18.050781 39.390625 21.285156 39.390625 24.515625 Z M 39.050781 49.289062 C 36.972656 49.242188 34.953125 48.84375 33.058594 48.019531 C 30.679688 46.984375 29.113281 45.175781 28.519531 42.613281 C 28.378906 42 28.339844 41.355469 28.339844 40.722656 C 28.328125 32.121094 28.308594 23.519531 28.347656 14.914062 C 28.355469 12.570312 29.289062 10.558594 31.117188 9.054688 C 32.230469 8.144531 33.554688 7.582031 34.941406 7.222656 C 35.949219 6.964844 36.976562 6.816406 38.011719 6.675781 C 39.847656 6.425781 41.683594 6.484375 43.507812 6.574219 C 45.863281 6.6875 48.183594 7.132812 50.320312 8.226562 C 51.554688 8.863281 52.546875 9.816406 53.242188 10.992188 C 53.78125 11.90625 54.132812 12.945312 54.136719 14.035156 C 54.148438 19.566406 54.144531 25.097656 54.144531 30.628906 C 54.144531 30.734375 54.136719 30.839844 54.125 31.011719 C 49.207031 31.011719 44.332031 31.011719 39.390625 31.011719 C 39.390625 31.324219 39.390625 31.570312 39.390625 31.8125 C 39.390625 34.746094 39.402344 37.679688 39.382812 40.613281 C 39.378906 41.332031 39.515625 41.972656 39.992188 42.539062 C 40.222656 42.660156 40.46875 42.78125 40.726562 42.914062 C 40.9375 42.914062 41.164062 42.925781 41.386719 42.910156 C 42.519531 42.839844 43.003906 42.324219 43.082031 41.203125 C 43.097656 40.980469 43.085938 40.757812 43.085938 40.53125 C 43.085938 38.324219 43.085938 36.121094 43.085938 33.914062 C 43.085938 33.640625 43.085938 33.367188 43.085938 33.054688 C 46.792969 33.054688 50.433594 33.054688 54.148438 33.054688 C 54.148438 33.296875 54.148438 33.511719 54.148438 33.730469 C 54.148438 36.214844 54.132812 38.699219 54.152344 41.1875 C 54.164062 43.089844 53.535156 44.753906 52.285156 46.15625 C 51.609375 46.917969 50.734375 47.5 49.804688 47.910156 C 48.882812 48.3125 47.898438 48.566406 46.929688 48.859375 C 46.542969 48.976562 46.132812 49.054688 45.730469 49.101562 C 44.960938 49.183594 44.191406 49.226562 43.417969 49.289062 C 43.15625 49.285156 42.890625 49.269531 42.628906 49.289062 C 42.550781 49.292969 42.480469 49.394531 42.40625 49.449219 C 42.128906 49.449219 41.847656 49.449219 41.570312 49.449219 C 41.550781 49.410156 41.53125 49.371094 41.515625 49.332031 C 41.476562 49.371094 41.4375 49.410156 41.402344 49.449219 C 41.289062 49.449219 41.179688 49.449219 41.066406 49.449219 C 41.03125 49.410156 40.992188 49.371094 40.957031 49.332031 C 40.9375 49.371094 40.917969 49.410156 40.898438 49.449219 C 40.5625 49.449219 40.226562 49.449219 39.894531 49.449219 C 39.667969 49.109375 39.328125 49.351562 39.050781 49.289062 "/>
</g>
<g clip-path="url(#clip2)" clip-rule="nonzero">
<path style=" stroke:none;fill-rule:nonzero;fill:rgb(59.042358%,59.654236%,60.389709%);fill-opacity:1;" d="M 145.875 14.371094 C 145.875 17.816406 145.875 21.210938 145.875 24.601562 C 147.109375 24.601562 148.296875 24.601562 149.523438 24.601562 C 149.523438 24.332031 149.523438 24.113281 149.523438 23.894531 C 149.523438 20.960938 149.5 18.027344 149.539062 15.09375 C 149.550781 14.230469 149.3125 13.574219 148.589844 13.125 C 148.285156 13.054688 147.992188 12.988281 147.785156 12.941406 C 146.78125 13.050781 146.070312 13.433594 145.875 14.371094 Z M 145.320312 49.289062 C 143.304688 49.210938 141.335938 48.820312 139.496094 48.019531 C 137.453125 47.128906 135.921875 45.667969 135.222656 43.472656 C 134.945312 42.609375 134.769531 41.722656 134.769531 40.8125 C 134.765625 32.207031 134.75 23.605469 134.777344 15.003906 C 134.789062 12.660156 135.675781 10.640625 137.488281 9.117188 C 138.464844 8.300781 139.609375 7.757812 140.824219 7.386719 C 141.953125 7.046875 143.105469 6.851562 144.277344 6.683594 C 146.195312 6.410156 148.117188 6.484375 150.023438 6.574219 C 152.152344 6.675781 154.273438 7.050781 156.226562 7.980469 C 158.226562 8.929688 159.707031 10.390625 160.320312 12.582031 C 160.460938 13.078125 160.566406 13.605469 160.566406 14.117188 C 160.589844 19.621094 160.582031 25.121094 160.582031 30.625 C 160.582031 30.730469 160.566406 30.835938 160.550781 31.007812 C 155.648438 31.007812 150.773438 31.007812 145.828125 31.007812 C 145.828125 31.292969 145.828125 31.507812 145.828125 31.722656 C 145.828125 34.710938 145.835938 37.699219 145.820312 40.6875 C 145.816406 41.316406 145.953125 41.886719 146.25 42.398438 C 146.816406 42.890625 147.460938 42.984375 148.140625 42.902344 C 148.90625 42.816406 149.289062 42.300781 149.542969 41.238281 C 149.542969 38.777344 149.542969 35.9375 149.542969 33.054688 C 153.230469 33.054688 156.871094 33.054688 160.585938 33.054688 C 160.585938 33.214844 160.585938 33.347656 160.585938 33.476562 C 160.582031 36.214844 160.609375 38.953125 160.566406 41.6875 C 160.550781 43.058594 160.105469 44.347656 159.28125 45.4375 C 158.25 46.804688 156.890625 47.746094 155.246094 48.292969 C 154.023438 48.703125 152.792969 49.011719 151.5 49.148438 C 150.953125 49.207031 150.40625 49.269531 149.855469 49.289062 C 149.59375 49.285156 149.328125 49.269531 149.066406 49.289062 C 148.992188 49.292969 148.921875 49.394531 148.847656 49.449219 C 148.566406 49.449219 148.285156 49.449219 148.007812 49.449219 C 147.988281 49.410156 147.972656 49.371094 147.949219 49.332031 C 147.914062 49.371094 147.878906 49.410156 147.839844 49.449219 C 147.730469 49.449219 147.617188 49.449219 147.503906 49.449219 C 147.46875 49.410156 147.429688 49.371094 147.394531 49.332031 C 147.375 49.371094 147.355469 49.410156 147.335938 49.449219 C 147.058594 49.449219 146.777344 49.449219 146.5 49.449219 C 146.425781 49.394531 146.351562 49.292969 146.273438 49.289062 C 145.957031 49.273438 145.636719 49.285156 145.320312 49.289062 "/>
</g>
<g clip-path="url(#clip3)" clip-rule="nonzero">
<path style=" stroke:none;fill-rule:nonzero;fill:rgb(59.042358%,59.654236%,60.389709%);fill-opacity:1;" d="M 71.925781 13.929688 C 71.597656 13.542969 71.378906 13.289062 71.199219 13.078125 C 70.679688 13.003906 70.253906 12.945312 69.824219 12.882812 C 68.707031 13.308594 68.234375 14.117188 68.234375 15.21875 C 68.226562 23.679688 68.226562 32.136719 68.238281 40.59375 C 68.238281 41 68.316406 41.417969 68.429688 41.808594 C 68.613281 42.449219 69.246094 42.890625 69.929688 42.910156 C 70.207031 42.917969 70.484375 42.914062 70.746094 42.914062 C 71.058594 42.75 71.347656 42.59375 71.621094 42.449219 C 71.972656 41.863281 72.082031 41.257812 72.082031 40.605469 C 72.074219 32.148438 72.078125 23.691406 72.070312 15.230469 C 72.070312 14.742188 71.964844 14.257812 71.925781 13.929688 Z M 68.214844 49.289062 C 65.945312 49.230469 63.75 48.785156 61.683594 47.839844 C 60.167969 47.144531 58.945312 46.0625 58.175781 44.570312 C 57.648438 43.546875 57.320312 42.4375 57.320312 41.257812 C 57.320312 32.378906 57.296875 23.496094 57.335938 14.613281 C 57.347656 12.238281 58.421875 10.34375 60.359375 8.933594 C 61.71875 7.945312 63.257812 7.398438 64.871094 7.046875 C 66.296875 6.734375 67.734375 6.492188 69.203125 6.53125 C 70.125 6.554688 71.050781 6.488281 71.96875 6.550781 C 73.972656 6.679688 75.921875 7.050781 77.78125 7.867188 C 78.71875 8.277344 79.609375 8.738281 80.417969 9.371094 C 81.894531 10.53125 82.761719 11.996094 83.007812 13.890625 C 83.136719 14.890625 83.125 15.882812 83.128906 16.875 C 83.140625 24.890625 83.148438 32.90625 83.121094 40.921875 C 83.113281 42.179688 82.871094 43.410156 82.320312 44.585938 C 81.523438 46.292969 80.152344 47.335938 78.507812 48.082031 C 77.359375 48.605469 76.128906 48.875 74.894531 49.09375 C 74.136719 49.226562 73.355469 49.226562 72.585938 49.289062 C 72.265625 49.285156 71.949219 49.273438 71.632812 49.289062 C 71.554688 49.292969 71.480469 49.394531 71.40625 49.449219 C 71.125 49.449219 70.847656 49.449219 70.566406 49.449219 C 70.398438 49.171875 70.230469 49.171875 70.066406 49.449219 C 69.785156 49.449219 69.507812 49.449219 69.226562 49.449219 C 69.152344 49.394531 69.082031 49.292969 69.003906 49.289062 C 68.742188 49.269531 68.476562 49.285156 68.214844 49.289062 "/>
</g>
<g clip-path="url(#clip4)" clip-rule="nonzero">
<path style=" stroke:none;fill-rule:nonzero;fill:rgb(59.042358%,59.654236%,60.389709%);fill-opacity:1;" d="M 14.59375 13.855469 C 14.425781 13.671875 14.351562 13.589844 14.273438 13.511719 C 13.421875 12.671875 12.207031 12.714844 11.441406 13.632812 C 11.105469 14.027344 11.050781 14.519531 11.050781 15.027344 C 11.058594 18.964844 11.070312 22.902344 11.042969 26.835938 C 11.039062 27.78125 11.441406 28.347656 12.257812 28.664062 C 12.652344 28.664062 13.015625 28.664062 13.417969 28.664062 C 13.703125 28.519531 14.019531 28.351562 14.3125 28.199219 C 14.472656 27.867188 14.621094 27.574219 14.753906 27.304688 C 14.753906 23.246094 14.757812 19.226562 14.746094 15.207031 C 14.742188 14.71875 14.640625 14.234375 14.59375 13.855469 Z M 0 6.707031 C 3.910156 6.710938 7.820312 6.691406 11.730469 6.722656 C 13.164062 6.734375 14.589844 6.871094 16.019531 7.011719 C 17.253906 7.132812 18.460938 7.328125 19.636719 7.707031 C 22.4375 8.613281 24.152344 10.582031 24.925781 13.359375 C 25.191406 14.296875 25.21875 15.308594 25.304688 16.292969 C 25.570312 19.320312 25.527344 22.359375 25.441406 25.390625 C 25.394531 27.046875 25.261719 28.71875 24.675781 30.328125 C 24.183594 31.695312 23.363281 32.753906 22.164062 33.503906 C 20.878906 34.304688 19.460938 34.785156 17.960938 35.046875 C 16.484375 35.304688 15.003906 35.402344 13.507812 35.378906 C 12.726562 35.367188 11.949219 35.375 11.1875 35.375 C 11.144531 35.425781 11.125 35.445312 11.109375 35.464844 C 11.09375 35.488281 11.078125 35.511719 11.074219 35.535156 C 11.066406 35.589844 11.058594 35.648438 11.058594 35.703125 C 11.054688 40.117188 11.054688 44.527344 11.046875 48.941406 C 11.046875 48.964844 11.03125 48.992188 10.984375 49.113281 C 9.191406 49.128906 7.359375 49.117188 5.53125 49.117188 C 3.6875 49.121094 1.84375 49.117188 0 49.113281 C 0 34.980469 0 20.84375 0 6.707031 "/>
</g>
<path style=" stroke:none;fill-rule:nonzero;fill:rgb(59.042358%,59.654236%,60.389709%);fill-opacity:1;" d="M 176 16.429688 C 175.9375 16.566406 175.867188 16.703125 175.808594 16.839844 C 175.207031 18.226562 174.070312 18.910156 172.671875 19.285156 C 171.066406 19.714844 169.425781 19.707031 167.808594 19.578125 C 166.597656 19.480469 165.367188 19.28125 164.332031 18.480469 C 163.96875 18.203125 163.664062 17.914062 163.457031 17.519531 C 163.328125 17.277344 163.222656 17.023438 163.140625 16.851562 C 162.878906 15.175781 162.882812 13.574219 162.984375 11.964844 C 162.988281 11.898438 163.082031 11.839844 163.144531 11.761719 C 164.945312 11.761719 166.746094 11.761719 168.589844 11.761719 C 168.589844 13.242188 168.589844 14.683594 168.589844 16.175781 C 168.855469 16.371094 169.113281 16.566406 169.371094 16.757812 C 169.605469 16.6875 169.8125 16.625 170.117188 16.53125 C 170.171875 16.277344 170.285156 15.96875 170.300781 15.652344 C 170.328125 14.984375 170.316406 14.316406 170.300781 13.644531 C 170.277344 12.613281 169.8125 11.921875 168.832031 11.484375 C 167.40625 10.84375 166.019531 10.125 164.640625 9.390625 C 163.53125 8.796875 163.128906 7.769531 163.101562 6.574219 C 163.082031 5.792969 163.101562 5.011719 163.097656 4.230469 C 163.09375 3.558594 163.253906 2.914062 163.546875 2.328125 C 163.953125 1.507812 164.671875 0.984375 165.527344 0.675781 C 166.273438 0.40625 167.046875 0.261719 167.835938 0.128906 C 168.78125 -0.0273438 169.71875 -0.0273438 170.648438 0.03125 C 171.707031 0.0976562 172.789062 0.21875 173.757812 0.6875 C 174.921875 1.253906 175.808594 2.089844 175.84375 3.515625 C 175.835938 4.914062 175.828125 6.308594 175.820312 7.707031 C 174.039062 7.707031 172.253906 7.710938 170.472656 7.710938 C 170.472656 6.351562 170.472656 4.988281 170.472656 3.558594 C 170.296875 3.386719 170.101562 3.191406 169.953125 3.046875 C 168.847656 3.019531 168.628906 3.222656 168.621094 4.199219 C 168.617188 4.867188 168.621094 5.53125 168.621094 6.183594 C 169.179688 7.339844 169.472656 7.582031 170.464844 7.714844 C 170.609375 8.113281 171.015625 8.136719 171.316406 8.289062 C 172.242188 8.75 173.1875 9.167969 174.121094 9.617188 C 174.996094 10.039062 175.636719 10.671875 175.871094 11.652344 C 175.882812 11.6875 175.957031 11.707031 176 11.734375 C 176 13.300781 176 14.863281 176 16.429688 "/>
<g clip-path="url(#clip5)" clip-rule="nonzero">
<path style=" stroke:none;fill-rule:nonzero;fill:rgb(75.65155%,75.579834%,75.343323%);fill-opacity:1;" d="M 71.40625 49.449219 C 71.480469 49.394531 71.554688 49.292969 71.632812 49.289062 C 71.949219 49.273438 72.265625 49.285156 72.585938 49.289062 C 72.578125 49.34375 72.578125 49.394531 72.578125 49.449219 C 72.1875 49.449219 71.796875 49.449219 71.40625 49.449219 "/>
</g>
<g clip-path="url(#clip6)" clip-rule="nonzero">
<path style=" stroke:none;fill-rule:nonzero;fill:rgb(74.668884%,74.649048%,74.41864%);fill-opacity:1;" d="M 145.320312 49.289062 C 145.636719 49.285156 145.957031 49.273438 146.273438 49.289062 C 146.351562 49.292969 146.425781 49.394531 146.5 49.449219 C 146.109375 49.449219 145.71875 49.449219 145.324219 49.449219 C 145.328125 49.394531 145.324219 49.34375 145.320312 49.289062 "/>
</g>
<g clip-path="url(#clip7)" clip-rule="nonzero">
<path style=" stroke:none;fill-rule:nonzero;fill:rgb(74.29657%,74.226379%,74.000549%);fill-opacity:1;" d="M 42.40625 49.449219 C 42.480469 49.394531 42.550781 49.292969 42.628906 49.289062 C 42.890625 49.269531 43.15625 49.285156 43.417969 49.289062 C 43.414062 49.34375 43.410156 49.394531 43.414062 49.449219 C 43.078125 49.449219 42.742188 49.449219 42.40625 49.449219 "/>
</g>
<g clip-path="url(#clip8)" clip-rule="nonzero">
<path style=" stroke:none;fill-rule:nonzero;fill:rgb(74.601746%,74.641418%,73.9151%);fill-opacity:1;" d="M 68.214844 49.289062 C 68.476562 49.285156 68.742188 49.269531 69.003906 49.289062 C 69.082031 49.292969 69.152344 49.394531 69.226562 49.449219 C 68.890625 49.449219 68.554688 49.449219 68.222656 49.449219 C 68.222656 49.394531 68.222656 49.34375 68.214844 49.289062 "/>
</g>
<g clip-path="url(#clip9)" clip-rule="nonzero">
<path style=" stroke:none;fill-rule:nonzero;fill:rgb(74.668884%,74.649048%,74.41864%);fill-opacity:1;" d="M 148.847656 49.449219 C 148.921875 49.394531 148.992188 49.292969 149.066406 49.289062 C 149.328125 49.269531 149.59375 49.285156 149.855469 49.289062 C 149.851562 49.34375 149.851562 49.394531 149.851562 49.449219 C 149.515625 49.449219 149.179688 49.449219 148.847656 49.449219 "/>
</g>
<g clip-path="url(#clip10)" clip-rule="nonzero">
<path style=" stroke:none;fill-rule:nonzero;fill:rgb(74.29657%,74.226379%,74.000549%);fill-opacity:1;" d="M 39.050781 49.289062 C 39.328125 49.351562 39.667969 49.109375 39.894531 49.449219 C 39.613281 49.449219 39.335938 49.449219 39.054688 49.449219 C 39.058594 49.394531 39.054688 49.34375 39.050781 49.289062 "/>
</g>
<g clip-path="url(#clip11)" clip-rule="nonzero">
<path style=" stroke:none;fill-rule:nonzero;fill:rgb(74.601746%,74.641418%,73.9151%);fill-opacity:1;" d="M 70.066406 49.449219 C 70.230469 49.171875 70.398438 49.171875 70.566406 49.449219 C 70.398438 49.449219 70.230469 49.449219 70.066406 49.449219 "/>
</g>
<g clip-path="url(#clip12)" clip-rule="nonzero">
<path style=" stroke:none;fill-rule:nonzero;fill:rgb(74.29657%,74.226379%,74.000549%);fill-opacity:1;" d="M 40.898438 49.449219 C 40.917969 49.410156 40.9375 49.371094 40.957031 49.332031 C 40.992188 49.371094 41.03125 49.410156 41.066406 49.449219 C 41.011719 49.449219 40.957031 49.449219 40.898438 49.449219 "/>
</g>
<g clip-path="url(#clip13)" clip-rule="nonzero">
<path style=" stroke:none;fill-rule:nonzero;fill:rgb(74.29657%,74.226379%,74.000549%);fill-opacity:1;" d="M 41.402344 49.449219 C 41.4375 49.410156 41.476562 49.371094 41.515625 49.332031 C 41.53125 49.371094 41.550781 49.410156 41.570312 49.449219 C 41.515625 49.449219 41.457031 49.449219 41.402344 49.449219 "/>
</g>
<g clip-path="url(#clip14)" clip-rule="nonzero">
<path style=" stroke:none;fill-rule:nonzero;fill:rgb(74.668884%,74.649048%,74.41864%);fill-opacity:1;" d="M 147.335938 49.449219 C 147.355469 49.410156 147.375 49.371094 147.394531 49.332031 C 147.429688 49.371094 147.46875 49.410156 147.503906 49.449219 C 147.449219 49.449219 147.394531 49.449219 147.335938 49.449219 "/>
</g>
<g clip-path="url(#clip15)" clip-rule="nonzero">
<path style=" stroke:none;fill-rule:nonzero;fill:rgb(74.668884%,74.649048%,74.41864%);fill-opacity:1;" d="M 147.839844 49.449219 C 147.878906 49.410156 147.914062 49.371094 147.949219 49.332031 C 147.972656 49.371094 147.988281 49.410156 148.007812 49.449219 C 147.953125 49.449219 147.894531 49.449219 147.839844 49.449219 "/>
</g>
<g clip-path="url(#clip16)" clip-rule="nonzero">
<path style=" stroke:none;fill-rule:nonzero;fill:rgb(59.042358%,59.654236%,60.389709%);fill-opacity:1;" d="M 96.882812 14.453125 C 96.882812 16.492188 96.882812 18.554688 96.882812 20.621094 C 96.882812 22.710938 96.878906 24.804688 96.886719 26.894531 C 96.886719 27.710938 97.324219 28.386719 97.953125 28.613281 C 98.695312 28.878906 99.714844 28.660156 100.183594 28.121094 C 100.523438 27.722656 100.582031 27.238281 100.582031 26.730469 C 100.578125 22.855469 100.578125 18.976562 100.578125 15.101562 C 100.578125 14.796875 100.578125 14.492188 100.578125 14.25 C 100.390625 13.894531 100.238281 13.605469 100.105469 13.359375 C 98.535156 12.542969 97.636719 12.855469 96.882812 14.453125 Z M 85.871094 6.710938 C 86.195312 6.710938 86.46875 6.710938 86.746094 6.710938 C 90.484375 6.710938 94.226562 6.699219 97.96875 6.71875 C 99.046875 6.726562 100.132812 6.746094 101.199219 6.894531 C 102.789062 7.117188 104.402344 7.234375 105.925781 7.851562 C 106.808594 8.210938 107.632812 8.621094 108.292969 9.3125 C 108.847656 9.886719 109.4375 10.414062 109.851562 11.136719 C 110.300781 11.910156 110.589844 12.714844 110.796875 13.566406 C 111.019531 14.503906 111.070312 15.460938 111.160156 16.421875 C 111.445312 19.566406 111.289062 22.710938 111.265625 25.855469 C 111.253906 27.402344 111.046875 28.957031 110.503906 30.453125 C 110.074219 31.621094 109.355469 32.492188 108.382812 33.222656 C 107.007812 34.261719 105.429688 34.734375 103.769531 35.046875 C 102.378906 35.3125 100.980469 35.398438 99.566406 35.378906 C 98.707031 35.367188 97.84375 35.375 96.910156 35.375 C 96.910156 39.953125 96.910156 44.488281 96.910156 49.070312 C 93.199219 49.070312 89.558594 49.070312 85.871094 49.070312 C 85.871094 34.984375 85.871094 20.898438 85.871094 6.710938 "/>
</g>
<g clip-path="url(#clip17)" clip-rule="nonzero">
<path style=" stroke:none;fill-rule:nonzero;fill:rgb(59.042358%,59.654236%,60.389709%);fill-opacity:1;" d="M 113.671875 48.941406 C 113.671875 34.855469 113.671875 20.839844 113.671875 6.824219 C 114.3125 6.675781 122.226562 6.621094 124.4375 6.75 C 124.457031 6.769531 124.480469 6.785156 124.496094 6.808594 C 124.511719 6.828125 124.527344 6.851562 124.53125 6.878906 C 124.539062 6.960938 124.546875 7.042969 124.546875 7.128906 C 124.550781 17.828125 124.554688 28.527344 124.558594 39.226562 C 124.558594 39.25 124.582031 39.273438 124.632812 39.371094 C 127.285156 39.371094 129.980469 39.371094 132.714844 39.371094 C 132.714844 42.585938 132.714844 45.730469 132.714844 48.953125 C 131.445312 48.984375 130.1875 49.042969 128.929688 49.042969 C 124.285156 49.046875 119.644531 49.035156 115 49.019531 C 114.585938 49.019531 114.171875 48.972656 113.671875 48.941406 "/>
</g>
</g>
</svg>
