<svg xmlns="http://www.w3.org/2000/svg" width="171.267" height="59pt" viewBox="0 0 128.45 59"><defs><clipPath id="a"><path d="M28 0h100.45v58H28Zm0 0"/></clipPath></defs><path d="M27.41.938c.399 8.445.16 15.96-.562 22.609.562.742.562 2.598.16 5.629.16.156.242.773.242 1.949l.16 1.703v1.977c0 1.734-.16 3.558-.402 5.445-.399 2.164-1.203 3.71-2.645 4.605-.398.313-.96.497-1.601.653-.399.062-.801.062-1.121 0-.082-.031-.403-.184-.801-.34-.402-.219-.64-.371-1.043-.434-.961-.246-2.004-.156-3.363.309-.801.281-1.602.836-2.247 1.672-.64.863-1.199 1.887-1.359 2.969-.082 1.296 0 2.535.719 3.836.64 1.421 2.004 2.78 3.848 3.957.64.988.562 1.453-.563 1.484-1.2.062-2.082-.184-3.043-.867-.16.71-.64 1.02-1.762.867-.64-.031-1.445-.309-2.644-.711-1.442-.559-2.965-1.395-4.164-2.383-1.684-1.27-2.887-2.875-3.688-4.668C.411 48.973-.07 46.406.008 43.496c.16-1.703.722-3.492 1.605-5.289 1.602-3.246 4.407-6.34 8.328-9.277 5.211-3.867 8.895-7.856 11.457-11.817 3.207-4.949 4.649-10.422 4.25-16.39 0-.559.32-.774.961-.711.399.027.641.34.801.926" style="stroke:none;fill-rule:evenodd;fill:#fff;fill-opacity:1"/><path d="M26.367.629c1.684 10.207-3.125 19.422-14.582 27.68-4.168 2.941-7.21 6.125-9.055 9.527C1.13 40.93.41 43.96.81 47.023c.402 2.813 1.765 5.258 3.765 7.266 2.164 2.012 4.809 3.34 8.012 3.898-8.973-4.269-9.371-10.515-1.2-18.71.56-.559 1.602-1.329 3.044-2.414 1.922-1.391 3.207-2.38 4.164-3.032 1.605-1.36 2.965-2.687 4.008-4.02a15.85 15.85 0 0 0 3.046-5.257c.32-.617.559-2.074.72-4.332.077-2.164.241-4.606.402-7.266.078-2.91.078-5.414.078-7.578-.078-2.445-.239-4.082-.48-4.95" style="stroke:none;fill-rule:evenodd;fill:#3758a2;fill-opacity:1"/><path d="M26.207 28.773c.16-.894.238-2.289.402-4.144-.402 3.465-4.57 8.043-12.66 13.887-1.203.773-2.324 1.703-3.207 2.816-1.52 1.61-2.562 3.215-3.203 4.793q-1.2 3.11 0 5.844c.883 2.168 2.805 4.117 5.852 5.879-7.453-5.567-7.371-11.29.558-17.133l6.809-5.195c1.683-1.395 3.047-2.57 3.687-3.497.801-.992 1.36-2.074 1.762-3.25" style="stroke:none;fill-rule:evenodd;fill:#c8a647;fill-opacity:1"/><g clip-path="url(#a)"><path d="M90.453 43.71c0-.503 0-1.628.145-3.315.73 1.406 1.02 2.476.73 3.093 0 .504-.144.676-.437.676-.293.113-.438-.113-.438-.453M58.54 20.146c-.14 1.91-.871 2.644-2.328 2.25V17.84c1.605-.285 2.328.45 2.328 2.305M34.793 36.57c-.438.282-1.168.11-2.477-.449-1.601-.957-2.625-.508-2.625 1.293s.438 3.094 1.457 4.102c.73.68 1.168 1.129 1.895 1.238.727.117.727.566.293 1.238-.73 1.016-1.457 1.746-2.188 2.254l-1.02.563-.87.726c-.735.848-.735 1.805.433 2.926 4.079 1.184 6.993.566 9.18-2.191q1.968-1.939 2.188-5.063c.289-.336.582-.562.726-.617l1.02.164c.293.117.437.676.73 1.691v3.543c-.293 1.801.29 2.645 1.02 2.532.875.28 2.62.28 5.246 0 1.457.507 2.914.507 4.664.113.433.281 1.02.449 1.746.562l1.894-.168c1.168-.113 1.747-.843 1.747-2.254L60 44.445v-.734l.582-.504c.148-.059.727-.059 1.168 0-.293 2.363.727 4.445 2.621 6.133 1.313 1.012 2.477 1.402 3.496.898l.875-.73c.293-.281.293-.453.293-.563 0-.28.29-.28.434-.113.73 1.406 2.043 1.91 3.21 1.406.727-.281 1.454-.843 1.891-1.465.293-.222.293-.222.582-.109 1.168 2.418 3.352 3.094 6.559 1.856.144.28.437.394.727.394 2.624.281 4.082-.113 4.374-1.125 0 .45.145.73.727.844l1.457.281c.727.113.875.281.727.563-.29.28-.727.449-1.453.394-1.024-.113-1.457.336-1.75 1.184l-.293 2.246c0 .957.585 1.633 1.457 1.914 7.14 1.125 10.492-1.07 9.761-6.414l3.938.113c.875-.281 1.89-.844 2.914-1.8.726-.844.875-1.856.726-3.262l-.582-1.407-.437-.734c-.29-.223-.438-.563-.438-1.066 1.895-2.028 1.895-3.825.149-5.403-.735-.562-1.899-.562-3.645 0-1.457 0-2.625.172-3.351.621-.293-.449-.438-.843-1.168-.902l-2.184-.11c-1.02 0-2.039.45-2.77 1.294-.726-1.465-2.327-1.86-5.097-1.012-.727-.676-1.605-.676-3.062 0-2.04-.848-3.934-.563-5.829 1.012-.582-.73-1.312-1.184-2.039-1.293h-2.62c-.727 0-1.169.168-1.462.562l-.289.395-.144.336c-.586.28-1.02.28-1.75 0-.727-1.575-2.621-1.97-6.262-1.012-.586-.453-1.461-.453-3.211 0l-3.64-.172c1.019-.953 1.019-2.246 0-3.934-1.02-1.804-2.622-2.363-5.391-1.687v-1.406c1.308.28 2.476.168 3.203-.223 6.559.559 10.203-.34 11.367-2.871.73 1.406 1.746 2.305 3.207 2.695l1.457.176c.434 0 .727-.059 1.02-.176.144-.277.726-.277.875.117 2.183.563 3.933.332 5.097-.507.293.507.582.675 1.313.566l1.601-.176h1.02c.293 0 .293-.164.437-.558.29-.45.582-.563 1.02-.282 1.46 1.407 3.207 1.407 5.394 0 .145.676.872.957 1.891.957-1.164.059-1.89.618-2.183 1.743v2.812c0 1.07.437 1.516 1.164 1.633 3.644.898 6.41.445 8.015-1.524 1.02-1.12 1.457-2.527 1.457-4.101 0-.68.29-.957.582-.957l.438.168 1.02.11.73.116.726.059c.145.11.438-.059.73-.566.434-.73 1.165-.73 1.891 0 2.625.84 3.938.789 4.082-.282 4.223 1.688 7.141 1.52 8.743-.449 2.043 1.8 4.226 1.856 6.414.281 1.164.84 2.328 1.125 4.078.84 2.62-.73 2.476-3.258-.438-7.703 1.457-1.687 2.188-3.094 1.895-4.219-.293-.843-1.02-1.46-1.895-1.746-1.02-.281-2.476-.11-4.226.621V8.613c-.145-.898-.875-1.183-2.188-.734l-2.18 1.578c-.73.563-.874 1.348-1.167 2.25v5.738c-3.352-2.812-6.266-2.925-9.036-.28-1.164-1.802-3.058-1.856-5.539-.45V9.008c-.289-1.238-.726-1.52-1.746-1.012-1.164.84-2.332 1.461-3.058 1.965-.73.45-1.02 1.184-.73 2.422v3.262c-.731-.45-2.04-.45-3.204 0-3.207-.73-5.394-.06-6.558 1.968-.293-.449-1.02-.898-1.895-1.46-1.746-.844-3.207-.844-4.664 0-1.75-.676-3.207-.508-4.371.335-1.746-1.125-3.203-1.293-4.367-.449-2.188-.844-4.082-.453-5.395.957 0-1.07-1.164-2.758-3.64-4.894.582-2.532 0-4.672-1.172-6.47-.434-.73-1.164-1.292-1.891-1.8-.727-.336-1.309-.617-1.75-.73-.727-.114-1.89-.45-3.348-1.125A9.7 9.7 0 0 1 51.11.402c-1.308-.675-1.746-.507-1.457.73l-.582 20.923c0-.278-.144-.559-.875-.84-.726-.281-1.453.281-2.476 1.574-4.078.676-6.992 2.926-9.035 6.746-.434 1.242-.871 2.535-1.164 4.055l-.293 2.023c0 .508-.145.844-.434.957m7.285.45 1.164-3.711.293 4.668z" style="stroke:none;fill-rule:evenodd;fill:#fff;fill-opacity:1"/></g><path d="m54.754 12.832-.29-4.387c.727-.28 1.454 0 1.891.672l.586 1.016v1.293c-.293 1.066-1.023 1.52-2.187 1.406m3.351 3.938c1.168.957 1.747 2.082 1.895 3.32 0 1.183-.437 2.246-1.46 3.148-1.165 1.125-2.33 1.352-3.786.676v-8.719c.73.563 1.601 1.125 3.351 1.575M50.527 1.582v27.281c1.309-.84 2.77-1.015 4.227-.73l4.809-.168c2.187-.676 3.644-1.914 4.37-3.766 1.895-4.672.731-8.332-3.351-10.863 2.188-5.457.148-8.66-6.41-9.504-1.457-.055-2.621-.844-3.645-2.25M65.39 22.395c-.726 3.488.294 5.453 2.915 5.851.73.055 1.75 0 2.625-.281.582-.117 1.02 0 1.308.281h2.184l.148-11.082-2.914.11c-4.078-1.122-6.265.566-6.265 5.12m5.833 2.195c-.442.844-1.024 1.012-1.754.617-.727-.45-.871-1.293-.871-2.586 0-.676 0-1.238.144-1.523.293-.672.727-1.008 1.457-1.121.582 0 .73.28 1.024.843zM81.71 45.57c-.581.844-1.022 1.125-1.75.676-.726-.508-1.019-1.351-1.019-2.644 0-.672 0-1.13.293-1.407.29-.68.727-1.129 1.454-1.238.44 0 .73.281 1.023.957Zm.438-7.199c-4.082-1.238-6.265.45-6.265 5.059-.73 3.547.144 5.515 2.914 5.91.726.055 1.601-.113 2.621-.395.437-.113 1.02.11 1.168.395h2.187l.582-11.082zM79.668 20.707v7.258H76.32v-10.8h3.203c0 .28.438.28 1.165 0l2.624-.114c1.313.394 1.75 1.125 2.043 2.25.145 1.797.145 4.613 0 8.664h-3.207v-7.258c-.293-.617-.73-.898-1.168-.898l-.726.28zM89.871 21.098c.29-.672.727-1.008 1.457-1.121.73 0 1.02.28 1.309.843v3.77c-.727.844-1.309 1.012-2.04.617-.726-.45-.874-1.293-.874-2.586 0-.676 0-1.238.148-1.523m-3.351 2.984c-.293 2.477.726 3.883 2.914 4.219 1.164.113 2.183 0 2.625-.278.726 2.192.289 3.2-.875 3.2-1.75 0-2.914-.11-3.207-.391v3.094c.293.39 1.02.562 2.183.562l2.918-.172c1.164-.39 1.89-1.23 2.473-2.527l.148-2.926v-11.59h-2.332l-1.457-.109-2.039-.281c-.73.168-1.457.844-2.187 1.855-.871 1.407-1.457 3.207-1.164 5.344M97.738 28.023h2.914v-4.671c1.895.847 2.914 2.363 2.914 4.613h2.918c.434-2.195-.293-4.164-2.48-6.02 1.894-2.082 2.625-3.543 2.48-4.613h-3.21c0 1.688-.434 2.531-1.747 2.645-.73-.114-.875-.45-.875-1.125V9.008l-2.914 2.246zM121.05 18.852l-.288-9.844-2.914 2.246v16.77h3.203v-4.672c1.894.847 2.918 2.363 2.625 4.613h2.914c.726-2.195 0-4.164-2.188-6.02 1.895-2.082 2.625-3.543 2.188-4.613h-2.914c-.29 1.688-.73 2.531-1.895 2.645-.582-.114-.73-.45-.73-1.125M106.918 24.309c.293 2.98 1.75 4.273 4.371 3.937h.29c2.917.336 4.374-.957 4.519-3.937v-2.813c-.145-3.32-1.895-4.781-4.52-4.445-2.766-.336-4.367 1.125-4.66 4.445Zm4.66-4.22c.875.056 1.461.618 1.461 1.743v2.531c-.293.844-.727 1.352-1.46 1.352-.727 0-1.31-.508-1.454-1.352v-2.531c0-1.125.438-1.687 1.453-1.742M35.957 37.809c-1.602.84-3.352.617-5.242-.567-.293 2.309 1.164 3.942 4.512 4.84-.145 3.488-2.184 5.738-5.247 6.75 3.645 1.125 6.27.508 8.016-1.969.875-1.183 1.457-2.699 1.606-4.668.293-.449.582-.843.73-1.011 2.04-.79 3.203-.282 3.93 1.46v6.301h3.933v-26.55c-.726 1.238-2.765 2.195-5.39 2.925-3.934 1.575-6.121 5.739-6.848 12.489m8.305 2.53-3.93-2.53c.727-5.008 2.04-7.989 3.93-8.832zM53.445 38.09v11.25h-3.351l-.293-9.79c-.149-.843.293-1.292 1.02-1.46.73-.113 1.75-.113 2.624 0M62.043 39.383c.145.73.145 1.574 0 2.64-1.754-.507-2.77-.222-3.504.73v6.36H54.9V40.34c.292-.395 0-.79-.145-1.07v-.899h2.914c.148-.226.437-.113.73.336.727-.059 1.454-.281 1.602-.45h1.309c.441.282.734.673.734 1.126M62.77 39.102c-.583 5.175.875 8.55 4.37 9.953l2.184-3.317-.289-.168h.29v.168l1.898 3.317c3.347-1.403 4.804-4.778 4.367-9.953q-.44-.423 0-.844l-1.168-.168h-1.309l-1.457.168.293.957c0 1.574-.293 2.3-.726 2.3-.293-1.12-1.024-1.85-1.899-2.3-1.312.45-2.039 1.18-2.183 2.3-.586 0-.73-.726-.73-2.3l.144-.957-1.453-.168h-1.168l-1.164.168a.88.88 0 0 1 0 .844M95.7 38.09v14.117c-.15.676-.731 1.406-1.458 2.25l-.73.79c-.145.167-.727.335-1.164.448l-4.809.168v-2.98h2.914c.438.172.875 0 1.457-.676.438-.45.727-.898.438-1.406-.29-.45-.438-.617-1.164-.73l-1.024-.169-1.164-.28c-1.02-.282-1.75-.958-2.183-1.915-1.02-1.406-1.313-4.387-1.02-9 .289-.45.434-.617.727-.617h2.62v6.074c0 1.406.731 2.25 2.188 2.645.73-.114 1.02-.676 1.02-1.801v-6.36c.289-.39.437-.558 1.02-.558zM96.719 48.773c.726.622 1.457 1.016 2.187 1.016l2.184-.281c.726-.281 1.457-.844 2.183-1.801.73-1.406.293-2.867-1.457-4.5-1.453-.844-1.746-1.406-1.02-1.691.731-.164 1.313-.164 1.462 0 .722-.055 1.015-.332 1.015-.899 0-.558-.293-1.515-.433-2.808-.293.336-.73.562-1.457.562h-2.477c-1.168.055-1.894.559-2.187 1.406l-.293 2.528c.293.734.73 1.297 1.457 1.746l1.457 1.52c.293.675.293 1.011-.145 1.011-.726 0-1.75-.281-2.476-.73zM54.172 34.715c0 .617-.145 1.125-.727 1.57-.441.453-.875.676-1.61.676-.577 0-1.015-.223-1.448-.676-.586-.445-.735-.953-.735-1.57 0-.676.149-1.125.735-1.63.433-.452.87-.62 1.449-.62.734 0 1.168.168 1.61.62.581.505.726.954.726 1.63" style="stroke:none;fill-rule:evenodd;fill:#3758a2;fill-opacity:1"/><path d="M23.965 33.879c-1.524 1.574-3.527 3.121-5.77 4.516a26 26 0 0 0-3.847 2.843c-1.36 1.024-2.403 1.95-3.121 2.723-2.247 2.598-2.805 5.473-1.286 8.723.243.68.641 1.328 1.043 1.914l.16.097c1.442 1.762 3.286 2.875 5.688 3.399-.64-.403-1.281-.926-2-1.543-.8-.778-1.441-1.551-1.844-2.383-1.441-2.2-1.601-4.426-.402-6.648 1.043-2.196 2.644-3.434 4.648-3.747l2.325.032c.64.156 1.039.312 1.28.527.4.309 1.122.402 1.923.371 3.605-.308 4.89-5.32 3.683-14.969l-.238.926c-.559 1.055-1.363 2.137-2.242 3.219" style="stroke:none;fill-rule:evenodd;fill:#e72530;fill-opacity:1"/></svg>