<svg xmlns="http://www.w3.org/2000/svg" width="176pt" height="80.413" viewBox="0 0 176 60.31"><defs><clipPath id="a"><path d="M0 0h76v60.309H0Zm0 0"/></clipPath></defs><path d="M123.434.098c1.261.629 1.894 1.699 1.894 3.16v28.738c0 1.457-.633 2.48-1.894 3.113h10.843c-1.12-.488-1.703-1.507-1.703-3.113V3.258c0-1.461.582-2.531 1.703-3.16zM156.691 6.855l4.817 13.52h-10.16Zm-2.816-5.007-.098.68-11.625 29.952c-.34.829-1.117 1.704-2.382 2.63h6.859c-.293-.051-.488-.294-.535-.684-.098-.535.047-1.164.437-1.946l3.403-8.46h13.035c.144.632 1.168 3.55 3.11 8.707l.534 1.214c.196.485-.047.875-.777 1.168H176c-1.02-.586-1.848-1.46-2.434-2.629L161.754.098h-9.191c.968.629 1.41 1.215 1.312 1.75M100.578 3.258h1.75c4.524 0 6.762 1.945 6.762 5.785 0 3.648-1.656 5.785-4.914 6.32-.535.098-1.168.149-1.848.149h-1.75V13.66Zm-8.95-3.16c1.118.629 1.704 1.699 1.755 3.16v28.738c-.051 1.606-.637 2.625-1.754 3.113h10.7c-1.169-.488-1.75-1.507-1.75-3.113V17.31h7.05c-.149-.047-.242-.047-.39-.047h.683c5.883-.242 8.848-3.063 8.894-8.512-.046-5.785-4.18-8.652-12.398-8.652zM67.852 1.215c.242-.242.191-.34-.196-.34l-8.12-.437c-.34-.051-.634 0-.876.144l-3.937 2.77c-.34.437-.196.632.437.488l1.945-.875c.34-.195.778-.293 1.313-.242l4.617.289c.438.195.438.535.05 1.07l-4.96 4.668q-.363.368-.293 1.023l-.289 8.899c-.05.242-.246.535-.633.875-.195.293-.195.437.047.39a30 30 0 0 0 3.695-3.308c.34-.195.489-.484.489-.875l.242-8.95c0-.34.144-.53.488-.679z" style="stroke:none;fill-rule:nonzero;fill:#17301d;fill-opacity:1"/><g clip-path="url(#a)"><path d="M50.2 2.137q-.658-.51-1.169 0c-1.215 1.363-2.82 2.383-4.765 3.066q-2.334.945-3.356-1.023c-.437-1.07-.144-2.48.828-4.184-1.023.05-1.945.73-2.773 1.945-1.02 1.801-1.07 3.454-.242 4.864S40.23 8.75 40.668 8.41a14.6 14.6 0 0 1 3.793-2.625c.824-.535 1.652-.582 2.48-.195 1.797 1.508 2.868 3.55 3.16 6.176.294 2.578-1.363 5.058-5.007 7.343l-2.871 1.848c-.196.293-.145.535.195.68 8.414 2.48 13.52 5.105 15.27 7.832 1.214 1.652 1.359 3.304.437 4.91-1.02 1.894-2.773 3.5-5.3 4.812-3.938 1.704-8.606 2.676-13.958 2.82-3.062.098-6.027.051-8.996-.097-8.023-.289-13.613-1.41-16.824-3.402-1.363-.778-2.188-1.555-2.48-2.285-.391-.829-.391-1.946-.047-3.356l27.328-.098c1.312.051 2.43-.242 3.257-.777a48 48 0 0 0 5.204-3.648c.242-.438-.047-.582-.778-.34l-1.312.484c-.535.246-1.41.39-2.63.39l-33.6-.046c-2.09.098-3.551-.195-4.278-.875q-1.388-1.388-.293-3.356c1.605-1.8 2.773-2.722 3.5-2.87l9.727.097c.535-.047.925-.242 1.214-.582a94 94 0 0 0 4.477-4.184c-.05-.293-.293-.293-.781 0l-1.067.68c-.633.488-1.558.684-2.722.633l-7.735-.098q-1.53.364-2.48 1.168c-2.188 1.801-4.278 3.696-6.32 5.594-.926.824-1.313 1.652-1.215 2.574.097 1.414.73 2.531 1.894 3.309 1.461 1.168 3.356 1.8 5.738 1.945h2.336Q7.723 36.3 8.23 39.29c.344 2.043 1.168 3.55 2.532 4.523 1.847 1.461 4.328 2.383 7.488 2.82 2.867.485 5.691.731 8.46.68-.632 1.122-.972 2.141-1.07 3.165q-.292 4.739 2.481 6.707c1.899 1.605 4.57 2.578 7.926 3.015 5.594.438 11.867-.437 18.723-2.625 7.585-2.48 13.52-6.031 17.75-10.648 1.847-1.899 2.964-4.281 3.355-7.246.145-1.606 0-3.16-.39-4.72-1.313-3.55-3.454-6.077-6.419-7.683-.535-.535-.582-1.117-.144-1.652l4.473-5.059c.925-.824 1.363-1.601 1.312-2.234-.875-3.793-2.09-6.227-3.598-7.246-.582-.39-1.07-.438-1.41-.195-.68.34-1.312.777-1.945 1.312a18 18 0 0 1-2.625 1.559c-.195.047-.344.144-.488.191-.196.438-.098.535.293.39a.35.35 0 0 1 .242-.097c.195-.098.488-.195.828-.293.824-.144 2.187 1.219 4.035 4.04 1.117 1.75 1.168 3.452.195 5.054a67 67 0 0 1-6.175 6.129c-.633.484-.536.824.195 1.07 5.297 2.285 8.312 4.23 9.043 5.934 1.023 1.797 1.215 3.644.484 5.543-.824 2.382-3.11 4.668-6.758 6.953-4.375 2.14-9.093 3.55-14.199 4.23-9.14 1.07-15.754 1.02-19.793-.195q-5.613-1.75-5.543-5.398a42 42 0 0 0 3.504-.29c5.395-.195 10.89-1.218 16.531-3.113 1.801-.633 3.309-1.41 4.622-2.285 3.015-1.508 5.347-3.504 7.003-5.934 1.262-1.41 1.844-3.308 1.75-5.59.094-1.656-.535-3.308-1.898-4.913q-4.302-4.013-10.648-5.981-.51-.657-.293-1.168l3.16-3.453c2.187-1.797 2.82-4.328 1.898-7.684-.437-1.992-1.41-3.55-2.918-4.765" style="stroke:none;fill-rule:nonzero;fill:#17301d;fill-opacity:1"/></g><path d="m78.305 22.316-2.43 2.727 2.48 2.625 2.235-2.383 2.578-.047 2.238 2.528 2.383-2.774-2.336-2.625-2.285 2.188-2.625.097zM39.648 12.691c.047-.34.192-.586.438-.73l.531-.484c.098-.196.098-.344.051-.489-.242-.144-.488-.144-.68 0l-3.699 3.16c-.242.243-.34.633-.289 1.07l-.195 9.29c-.047.289-.293.633-.633.972-.242.243-.242.387 0 .387a24.8 24.8 0 0 0 3.746-3.355c.34-.145.484-.438.484-.875zM81.809 33.695l2.187-2.527-2.383-2.383-2.09 2.336z" style="stroke:none;fill-rule:nonzero;fill:#17301d;fill-opacity:1"/></svg>