<?xml version="1.0" encoding="UTF-8"?>
<svg xmlns="http://www.w3.org/2000/svg" xmlns:xlink="http://www.w3.org/1999/xlink" width="176pt" height="32.02pt" viewBox="0 0 176 32.02" version="1.1">
<defs>
<clipPath id="clip1">
  <path d="M 16 1 L 49 1 L 49 32.019531 L 16 32.019531 Z M 16 1 "/>
</clipPath>
<clipPath id="clip2">
  <path d="M 65 8 L 83 8 L 83 32.019531 L 65 32.019531 Z M 65 8 "/>
</clipPath>
</defs>
<g id="surface1">
<path style=" stroke:none;fill-rule:nonzero;fill:rgb(6.266785%,5.734253%,5.047607%);fill-opacity:1;" d="M 11.1875 5.507812 C 13.246094 5.507812 15.371094 6.160156 17.285156 7.363281 L 18.160156 1.753906 C 16.101562 0.617188 13.800781 0 11.292969 0 C 6.796875 0 2.789062 1.960938 2.054688 6.539062 C 0.765625 14.800781 11.363281 14.386719 10.839844 17.65625 C 10.664062 18.898438 9.027344 19.414062 7.285156 19.414062 C 5.089844 19.414062 2.753906 18.6875 0.976562 17.554688 L 0 23.441406 C 2.230469 24.542969 4.566406 25.058594 7.492188 25.058594 C 12.371094 25.058594 16.277344 23.234375 17.078125 18.347656 C 18.472656 9.671875 7.667969 10.464844 8.121094 7.160156 C 8.332031 5.988281 9.550781 5.507812 11.1875 5.507812 "/>
<g clip-path="url(#clip1)" clip-rule="nonzero">
<path style=" stroke:none;fill-rule:nonzero;fill:rgb(6.266785%,5.734253%,5.047607%);fill-opacity:1;" d="M 42.746094 8.640625 L 39.347656 17.804688 L 38.125 8.640625 L 28.417969 8.640625 L 24.984375 14.28125 L 23.792969 14.28125 L 25.839844 1.390625 L 20.425781 1.390625 L 16.761719 24.464844 L 22.175781 24.464844 L 23.066406 18.925781 L 24.257812 18.925781 L 26.171875 24.464844 L 31.851562 24.464844 L 29.078125 16.882812 L 32.941406 10.96875 L 35.980469 24.398438 C 35.320312 25.71875 34.890625 26.277344 34.296875 26.707031 C 33.601562 27.136719 32.808594 27.332031 31.6875 27.101562 L 30.960938 31.71875 C 33.304688 32.3125 35.320312 32.011719 36.9375 30.992188 C 38.421875 30.035156 39.613281 28.550781 40.535156 26.507812 L 48.890625 8.640625 L 42.746094 8.640625 "/>
</g>
<path style=" stroke:none;fill-rule:nonzero;fill:rgb(6.266785%,5.734253%,5.047607%);fill-opacity:1;" d="M 68.445312 1.390625 L 62.796875 1.390625 L 60.445312 16.539062 C 60.117188 18.625 58.910156 19.621094 56.949219 19.621094 C 55.21875 19.621094 54.339844 18.824219 54.664062 16.804688 L 57.082031 1.390625 L 51.464844 1.390625 L 49.015625 17.035156 C 48.199219 22.175781 51.398438 25.058594 56.460938 25.058594 C 61.945312 25.058594 65.113281 22.738281 65.929688 17.335938 L 68.445312 1.390625 "/>
<g clip-path="url(#clip2)" clip-rule="nonzero">
<path style=" stroke:none;fill-rule:nonzero;fill:rgb(6.266785%,5.734253%,5.047607%);fill-opacity:1;" d="M 77 16.738281 C 76.609375 19.359375 75.863281 20.519531 74.5625 20.519531 C 73.816406 20.519531 73.230469 20.054688 72.96875 19.359375 L 73.78125 14.152344 C 74.269531 13.488281 74.917969 13.027344 75.699219 13.027344 C 77.035156 13.027344 77.359375 14.449219 77 16.738281 M 77.78125 8.351562 C 75.832031 8.351562 74.59375 9.347656 73.847656 10.375 L 74.074219 8.816406 L 69.261719 8.816406 L 65.652344 32.019531 L 70.984375 32.019531 L 72.316406 23.535156 C 72.933594 24.429688 74.074219 25.191406 75.832031 25.191406 C 79.34375 25.191406 81.488281 21.910156 82.203125 17.070312 C 82.917969 12.59375 81.878906 8.351562 77.78125 8.351562 "/>
</g>
<path style=" stroke:none;fill-rule:nonzero;fill:rgb(6.266785%,5.734253%,5.047607%);fill-opacity:1;" d="M 95.539062 16.875 L 100.699219 6.496094 C 101.175781 5.480469 101.546875 4.671875 101.957031 3.6875 C 102.089844 4.636719 102.160156 5.515625 102.328125 6.429688 L 104.160156 16.875 Z M 101.140625 1.390625 L 89.398438 25.058594 L 91.5 25.058594 L 94.65625 18.734375 L 104.464844 18.734375 L 105.554688 25.058594 L 107.554688 25.058594 L 103.347656 1.390625 L 101.140625 1.390625 "/>
<path style=" stroke:none;fill-rule:nonzero;fill:rgb(6.266785%,5.734253%,5.047607%);fill-opacity:1;" d="M 108.953125 25.058594 L 110.730469 25.058594 L 113.144531 8.351562 L 111.367188 8.351562 L 108.953125 25.058594 "/>
<path style=" stroke:none;fill-rule:nonzero;fill:rgb(6.266785%,5.734253%,5.047607%);fill-opacity:1;" d="M 113.238281 2.78125 C 112.554688 2.78125 111.910156 3.222656 111.769531 4.066406 C 111.621094 5.054688 112.234375 5.566406 113.023438 5.566406 C 113.703125 5.566406 114.382812 5.199219 114.527344 4.320312 C 114.636719 3.367188 114.023438 2.78125 113.238281 2.78125 "/>
<path style=" stroke:none;fill-rule:nonzero;fill:rgb(6.266785%,5.734253%,5.047607%);fill-opacity:1;" d="M 124.316406 8.359375 C 121.792969 8.257812 119.558594 9.175781 118.199219 11.800781 L 118.683594 8.699219 L 117 8.699219 L 114.539062 25.058594 L 116.386719 25.058594 L 117.90625 15.140625 C 119.203125 11.5625 121.46875 10.097656 123.992188 10.300781 L 124.316406 8.359375 "/>
<path style=" stroke:none;fill-rule:nonzero;fill:rgb(6.266785%,5.734253%,5.047607%);fill-opacity:1;" d="M 128.085938 0 L 124.316406 25.058594 L 126.136719 25.058594 L 129.90625 0 L 128.085938 0 "/>
<path style=" stroke:none;fill-rule:nonzero;fill:rgb(6.266785%,5.734253%,5.047607%);fill-opacity:1;" d="M 129.90625 25.058594 L 131.683594 25.058594 L 134.09375 8.351562 L 132.316406 8.351562 L 129.90625 25.058594 "/>
<path style=" stroke:none;fill-rule:nonzero;fill:rgb(6.266785%,5.734253%,5.047607%);fill-opacity:1;" d="M 134.191406 2.78125 C 133.507812 2.78125 132.863281 3.222656 132.71875 4.066406 C 132.574219 5.054688 133.183594 5.566406 133.972656 5.566406 C 134.65625 5.566406 135.335938 5.199219 135.480469 4.320312 C 135.585938 3.367188 134.976562 2.78125 134.191406 2.78125 "/>
<path style=" stroke:none;fill-rule:nonzero;fill:rgb(6.266785%,5.734253%,5.047607%);fill-opacity:1;" d="M 144.972656 8.351562 C 142.621094 8.351562 140.757812 9.441406 139.601562 11.007812 L 139.988281 8.726562 L 138.160156 8.726562 L 135.492188 25.058594 L 137.492188 25.058594 L 139.355469 13.660156 C 140.304688 11.855469 142.199219 10.121094 144.445312 10.121094 C 146.449219 10.121094 147.820312 11.3125 147.363281 14 L 145.570312 25.058594 L 147.570312 25.058594 L 149.363281 14.035156 C 149.925781 10.597656 147.992188 8.351562 144.972656 8.351562 "/>
<path style=" stroke:none;fill-rule:nonzero;fill:rgb(6.266785%,5.734253%,5.047607%);fill-opacity:1;" d="M 161.445312 15.972656 L 153.035156 15.972656 C 153.492188 13.875 154.992188 10.148438 158.511719 10.148438 C 161.152344 10.148438 162.097656 12.445312 161.445312 15.972656 M 158.574219 8.351562 C 154.761719 8.351562 151.792969 11.515625 151.011719 16.570312 C 150.230469 21.730469 152.414062 25.058594 157.140625 25.058594 C 158.382812 25.058594 159.71875 24.824219 160.988281 24.226562 L 161.28125 22.394531 C 159.976562 23.027344 158.707031 23.292969 157.304688 23.292969 C 154.207031 23.292969 152.480469 21.53125 152.773438 17.636719 L 162.945312 17.636719 C 164.3125 12.347656 162.75 8.351562 158.574219 8.351562 "/>
<path style=" stroke:none;fill-rule:nonzero;fill:rgb(6.266785%,5.734253%,5.047607%);fill-opacity:1;" d="M 171.488281 10.050781 C 173.089844 10.050781 174.4375 10.414062 175.679688 11.214844 L 176 9.449219 C 174.757812 8.75 173.15625 8.351562 171.382812 8.351562 C 168.328125 8.351562 165.773438 9.683594 165.347656 12.246094 C 164.421875 17.703125 173.761719 16.90625 173.089844 20.832031 C 172.769531 22.597656 170.992188 23.328125 168.648438 23.328125 C 166.730469 23.328125 165.0625 22.894531 163.75 21.996094 L 163.429688 23.792969 C 164.671875 24.625 166.484375 25.058594 168.683594 25.058594 C 171.773438 25.058594 174.546875 23.992188 175.039062 21.101562 C 176 15.539062 166.625 16.503906 167.300781 12.546875 C 167.621094 10.882812 169.359375 10.050781 171.488281 10.050781 "/>
</g>
</svg>
