<svg xmlns="http://www.w3.org/2000/svg" width="176pt" height="42.693" viewBox="0 0 176 32.02"><defs><clipPath id="a"><path d="M16 1h33v31.02H16Zm0 0"/></clipPath><clipPath id="b"><path d="M65 8h18v24.02H65Zm0 0"/></clipPath></defs><path d="M11.188 5.508c2.058 0 4.183.652 6.097 1.855l.875-5.61C16.102.618 13.8 0 11.293 0 6.797 0 2.789 1.96 2.055 6.54c-1.29 8.26 9.308 7.847 8.785 11.116-.176 1.242-1.813 1.758-3.555 1.758-2.195 0-4.531-.727-6.308-1.86L0 23.442c2.23 1.102 4.566 1.618 7.492 1.618 4.88 0 8.785-1.825 9.586-6.711 1.395-8.676-9.41-7.883-8.957-11.188.211-1.172 1.43-1.652 3.066-1.652" style="stroke:none;fill-rule:nonzero;fill:#100f0d;fill-opacity:1"/><g clip-path="url(#a)"><path d="m42.746 8.64-3.398 9.165-1.223-9.164h-9.707l-3.434 5.64h-1.191l2.047-12.89h-5.414l-3.664 23.074h5.414l.89-5.54h1.192l1.914 5.54h5.68l-2.774-7.582 3.863-5.914 3.04 13.43c-.66 1.32-1.09 1.878-1.684 2.308-.695.43-1.488.625-2.61.395l-.726 4.617c2.344.593 4.36.293 5.977-.727 1.484-.957 2.675-2.441 3.597-4.484L48.891 8.64z" style="stroke:none;fill-rule:nonzero;fill:#100f0d;fill-opacity:1"/></g><path d="M68.445 1.39h-5.648l-2.352 15.15c-.328 2.085-1.535 3.081-3.496 3.081-1.73 0-2.61-.797-2.285-2.816L57.082 1.39h-5.617l-2.45 15.644c-.816 5.14 2.383 8.024 7.446 8.024 5.484 0 8.652-2.32 9.469-7.723z" style="stroke:none;fill-rule:nonzero;fill:#100f0d;fill-opacity:1"/><g clip-path="url(#b)"><path d="M77 16.738c-.39 2.621-1.137 3.782-2.437 3.782-.747 0-1.333-.465-1.594-1.16l.812-5.208c.489-.664 1.137-1.125 1.918-1.125 1.336 0 1.66 1.422 1.301 3.711m.781-8.386c-1.949 0-3.187.996-3.933 2.023l.226-1.559h-4.812l-3.61 23.204h5.332l1.332-8.485c.618.895 1.758 1.656 3.516 1.656 3.512 0 5.656-3.28 6.371-8.12.715-4.477-.324-8.72-4.422-8.72" style="stroke:none;fill-rule:nonzero;fill:#100f0d;fill-opacity:1"/></g><path d="m95.54 16.875 5.16-10.379a66 66 0 0 0 1.257-2.809c.133.95.203 1.829.371 2.743l1.832 10.445Zm5.6-15.484L89.399 25.059H91.5l3.156-6.325h9.809l1.09 6.325h2L103.348 1.39zM108.953 25.059h1.777l2.415-16.707h-1.778zM113.238 2.781c-.683 0-1.328.442-1.468 1.285-.149.989.464 1.5 1.253 1.5.68 0 1.36-.367 1.504-1.246.11-.953-.504-1.539-1.289-1.539M124.316 8.36c-2.523-.102-4.757.816-6.117 3.44l.485-3.1H117l-2.46 16.359h1.847l1.52-9.918c1.296-3.578 3.562-5.043 6.085-4.84zM128.086 0l-3.77 25.059h1.82L129.907 0zM129.906 25.059h1.778l2.41-16.707h-1.778zM134.191 2.781c-.683 0-1.328.442-1.472 1.285-.145.989.465 1.5 1.254 1.5.683 0 1.363-.367 1.507-1.246.106-.953-.503-1.539-1.289-1.539M144.973 8.352c-2.352 0-4.215 1.09-5.371 2.656l.386-2.281h-1.828l-2.668 16.332h2l1.863-11.399c.95-1.805 2.844-3.539 5.09-3.539 2.004 0 3.375 1.191 2.918 3.879l-1.793 11.059h2l1.793-11.024c.563-3.437-1.37-5.683-4.39-5.683M161.445 15.973h-8.41c.457-2.098 1.957-5.825 5.477-5.825 2.64 0 3.586 2.297 2.933 5.825m-2.87-7.621c-3.813 0-6.782 3.164-7.563 8.218-.782 5.16 1.402 8.489 6.129 8.489 1.242 0 2.578-.235 3.847-.832l.293-1.832c-1.304.632-2.574.898-3.976.898-3.098 0-4.825-1.762-4.532-5.656h10.172c1.368-5.29-.195-9.285-4.37-9.285M171.488 10.05c1.602 0 2.95.364 4.192 1.165l.32-1.766c-1.242-.699-2.844-1.097-4.617-1.097-3.055 0-5.61 1.332-6.035 3.894-.926 5.457 8.414 4.66 7.742 8.586-.32 1.766-2.098 2.496-4.442 2.496-1.918 0-3.585-.433-4.898-1.332l-.32 1.797c1.242.832 3.054 1.266 5.254 1.266 3.09 0 5.863-1.067 6.355-3.957.961-5.563-8.414-4.598-7.738-8.555.32-1.664 2.058-2.496 4.187-2.496" style="stroke:none;fill-rule:nonzero;fill:#100f0d;fill-opacity:1"/></svg>