<?xml version="1.0" encoding="UTF-8"?>
<svg xmlns="http://www.w3.org/2000/svg" xmlns:xlink="http://www.w3.org/1999/xlink" width="176pt" height="26.17pt" viewBox="0 0 176 26.17" version="1.1">
<defs>
<clipPath id="clip1">
  <path d="M 76 15 L 86 15 L 86 26.171875 L 76 26.171875 Z M 76 15 "/>
</clipPath>
<clipPath id="clip2">
  <path d="M 85 15 L 96 15 L 96 26.171875 L 85 26.171875 Z M 85 15 "/>
</clipPath>
</defs>
<g id="surface1">
<path style=" stroke:none;fill-rule:evenodd;fill:rgb(17.848206%,20.88623%,56.559753%);fill-opacity:1;" d="M 0 23.164062 L 23.300781 23.164062 L 27.453125 -0.00390625 L 0 23.164062 "/>
<path style=" stroke:none;fill-rule:evenodd;fill:rgb(95.277405%,68.882751%,7.359314%);fill-opacity:1;" d="M 24.246094 10.113281 L 24.4375 2.539062 L 23.796875 3.078125 L 23.621094 10.183594 L 22.765625 13.332031 C 22.765625 13.332031 22.761719 13.332031 22.761719 13.332031 L 22.765625 13.332031 L 21.292969 10.644531 L 20.507812 5.855469 L 19.957031 6.320312 L 20.648438 10.644531 L 20.648438 14.027344 L 20.667969 14.019531 C 20.65625 14.027344 20.644531 14.03125 20.632812 14.035156 L 20.648438 14.027344 L 18.621094 11.652344 L 16.875 8.921875 L 16.40625 9.316406 L 18.074219 11.929688 L 18.867188 14.964844 L 18.890625 14.953125 C 18.875 14.964844 18.859375 14.972656 18.847656 14.984375 L 18.867188 14.964844 L 16.160156 13.136719 L 14.445312 10.972656 L 13.984375 11.359375 L 15.683594 13.5 L 17.210938 16.230469 L 14.097656 14.984375 L 11.820312 13.1875 L 11.359375 13.578125 L 13.707031 15.429688 L 15.855469 17.703125 L 15.878906 17.679688 C 15.867188 17.695312 15.855469 17.707031 15.847656 17.722656 L 15.855469 17.703125 L 12.480469 17.121094 L 8.984375 15.578125 L 8.496094 15.992188 L 12.191406 17.621094 L 14.769531 19.4375 L 14.785156 19.40625 C 14.777344 19.429688 14.765625 19.449219 14.753906 19.472656 L 14.769531 19.4375 L 11.445312 19.203125 L 6.332031 17.820312 L 5.800781 18.269531 L 11.25 19.746094 L 14.0625 21.25 L 10.769531 21.640625 L 2.371094 21.160156 L 1.742188 21.695312 L 10.683594 22.203125 L 13.726562 23.050781 L 25.179688 13.566406 L 24.246094 10.113281 "/>
<path style=" stroke:none;fill-rule:evenodd;fill:rgb(92.301941%,11.497498%,16.748047%);fill-opacity:1;" d="M 13.164062 23.164062 L 36.464844 23.164062 L 40.617188 -0.00390625 L 13.164062 23.164062 "/>
<path style=" stroke:none;fill-rule:evenodd;fill:rgb(12.866211%,11.170959%,11.180115%);fill-opacity:1;" d="M 49.09375 17.171875 L 49.78125 17.171875 C 50.957031 17.171875 51.738281 17.097656 52.132812 16.949219 C 52.527344 16.800781 52.835938 16.566406 53.0625 16.242188 C 53.289062 15.917969 53.402344 15.558594 53.402344 15.167969 C 53.402344 14.90625 53.34375 14.691406 53.226562 14.523438 C 53.113281 14.355469 52.949219 14.234375 52.738281 14.160156 C 52.53125 14.082031 52.066406 14.042969 51.339844 14.042969 L 49.746094 14.042969 Z M 47.847656 23.164062 L 45.59375 23.164062 L 47.867188 12.226562 L 52.296875 12.226562 C 53.085938 12.226562 53.710938 12.320312 54.167969 12.503906 C 54.625 12.691406 54.988281 13 55.257812 13.429688 C 55.523438 13.859375 55.65625 14.375 55.65625 14.972656 C 55.65625 15.523438 55.550781 16.058594 55.339844 16.582031 C 55.128906 17.105469 54.863281 17.523438 54.554688 17.835938 C 54.246094 18.148438 53.914062 18.386719 53.558594 18.546875 C 53.203125 18.710938 52.722656 18.832031 52.117188 18.917969 C 51.769531 18.96875 51.109375 18.992188 50.148438 18.992188 L 48.714844 18.992188 L 47.847656 23.164062 "/>
<path style=" stroke:none;fill-rule:evenodd;fill:rgb(12.866211%,11.170959%,11.180115%);fill-opacity:1;" d="M 57.792969 23.164062 L 55.664062 23.164062 L 57.941406 12.226562 L 60.070312 12.226562 L 59.257812 16.128906 C 59.746094 15.742188 60.203125 15.464844 60.628906 15.292969 C 61.054688 15.125 61.507812 15.039062 61.992188 15.039062 C 62.644531 15.039062 63.160156 15.226562 63.539062 15.601562 C 63.917969 15.976562 64.105469 16.464844 64.105469 17.074219 C 64.09375 17.390625 64.019531 17.878906 63.886719 18.546875 L 62.886719 23.164062 L 60.757812 23.164062 L 61.761719 18.457031 C 61.871094 17.945312 61.929688 17.613281 61.945312 17.46875 C 61.945312 17.195312 61.859375 16.976562 61.691406 16.8125 C 61.523438 16.648438 61.292969 16.566406 61 16.566406 C 60.632812 16.566406 60.277344 16.691406 59.941406 16.941406 C 59.5 17.269531 59.164062 17.675781 58.933594 18.15625 C 58.8125 18.421875 58.648438 19.042969 58.449219 20.023438 L 57.792969 23.164062 "/>
<path style=" stroke:none;fill-rule:evenodd;fill:rgb(12.866211%,11.170959%,11.180115%);fill-opacity:1;" d="M 67.15625 12.226562 L 69.285156 12.226562 L 68.882812 14.164062 L 66.753906 14.164062 Z M 66.53125 15.234375 L 68.660156 15.234375 L 67.007812 23.164062 L 64.878906 23.164062 L 66.53125 15.234375 "/>
<path style=" stroke:none;fill-rule:evenodd;fill:rgb(12.866211%,11.170959%,11.180115%);fill-opacity:1;" d="M 69.042969 23.164062 L 71.316406 12.226562 L 73.449219 12.226562 L 71.167969 23.164062 L 69.042969 23.164062 "/>
<path style=" stroke:none;fill-rule:evenodd;fill:rgb(12.866211%,11.170959%,11.180115%);fill-opacity:1;" d="M 75.476562 12.226562 L 77.609375 12.226562 L 77.203125 14.164062 L 75.074219 14.164062 Z M 74.851562 15.234375 L 76.980469 15.234375 L 75.332031 23.164062 L 73.203125 23.164062 L 74.851562 15.234375 "/>
<g clip-path="url(#clip1)" clip-rule="nonzero">
<path style=" stroke:none;fill-rule:evenodd;fill:rgb(12.866211%,11.170959%,11.180115%);fill-opacity:1;" d="M 80.234375 19.785156 C 80.234375 20.410156 80.382812 20.894531 80.683594 21.238281 C 80.984375 21.585938 81.339844 21.757812 81.75 21.757812 C 82.101562 21.757812 82.441406 21.628906 82.769531 21.371094 C 83.097656 21.109375 83.371094 20.683594 83.585938 20.082031 C 83.800781 19.484375 83.910156 18.929688 83.910156 18.417969 C 83.910156 17.820312 83.769531 17.363281 83.484375 17.042969 C 83.203125 16.726562 82.84375 16.566406 82.402344 16.566406 C 81.996094 16.566406 81.625 16.710938 81.289062 17.003906 C 80.953125 17.296875 80.695312 17.726562 80.511719 18.296875 C 80.328125 18.863281 80.234375 19.359375 80.234375 19.785156 Z M 78.964844 15.234375 L 80.992188 15.234375 L 80.832031 16.042969 C 81.261719 15.683594 81.667969 15.425781 82.042969 15.269531 C 82.417969 15.117188 82.820312 15.039062 83.25 15.039062 C 84.078125 15.039062 84.742188 15.324219 85.242188 15.898438 C 85.746094 16.472656 85.996094 17.328125 85.996094 18.464844 C 85.996094 19.894531 85.5625 21.105469 84.6875 22.09375 C 83.941406 22.933594 83.058594 23.355469 82.035156 23.355469 C 80.984375 23.355469 80.191406 22.933594 79.652344 22.089844 L 78.8125 26.171875 L 76.683594 26.171875 L 78.964844 15.234375 "/>
</g>
<g clip-path="url(#clip2)" clip-rule="nonzero">
<path style=" stroke:none;fill-rule:evenodd;fill:rgb(12.866211%,11.170959%,11.180115%);fill-opacity:1;" d="M 89.472656 19.785156 C 89.472656 20.410156 89.621094 20.894531 89.925781 21.238281 C 90.226562 21.585938 90.582031 21.757812 90.988281 21.757812 C 91.339844 21.757812 91.679688 21.628906 92.011719 21.371094 C 92.339844 21.109375 92.609375 20.683594 92.828125 20.082031 C 93.042969 19.484375 93.152344 18.929688 93.152344 18.417969 C 93.152344 17.820312 93.007812 17.363281 92.722656 17.042969 C 92.441406 16.726562 92.082031 16.566406 91.644531 16.566406 C 91.234375 16.566406 90.863281 16.710938 90.53125 17.003906 C 90.195312 17.296875 89.933594 17.726562 89.75 18.296875 C 89.566406 18.863281 89.472656 19.359375 89.472656 19.785156 Z M 88.203125 15.234375 L 90.230469 15.234375 L 90.070312 16.042969 C 90.503906 15.683594 90.90625 15.425781 91.28125 15.269531 C 91.65625 15.117188 92.058594 15.039062 92.492188 15.039062 C 93.320312 15.039062 93.980469 15.324219 94.480469 15.898438 C 94.984375 16.472656 95.234375 17.328125 95.234375 18.464844 C 95.234375 19.894531 94.800781 21.105469 93.929688 22.09375 C 93.179688 22.933594 92.296875 23.355469 91.277344 23.355469 C 90.222656 23.355469 89.429688 22.933594 88.890625 22.089844 L 88.050781 26.171875 L 85.921875 26.171875 L 88.203125 15.234375 "/>
</g>
<path style=" stroke:none;fill-rule:evenodd;fill:rgb(12.866211%,11.170959%,11.180115%);fill-opacity:1;" d="M 98.117188 12.226562 L 100.246094 12.226562 L 99.84375 14.164062 L 97.714844 14.164062 Z M 97.492188 15.234375 L 99.621094 15.234375 L 97.972656 23.164062 L 95.84375 23.164062 L 97.492188 15.234375 "/>
<path style=" stroke:none;fill-rule:evenodd;fill:rgb(12.866211%,11.170959%,11.180115%);fill-opacity:1;" d="M 101.675781 15.234375 L 103.707031 15.234375 L 103.503906 16.277344 C 104.015625 15.832031 104.496094 15.511719 104.941406 15.324219 C 105.386719 15.132812 105.859375 15.039062 106.351562 15.039062 C 107.011719 15.039062 107.53125 15.230469 107.914062 15.609375 C 108.296875 15.988281 108.484375 16.492188 108.484375 17.121094 C 108.476562 17.398438 108.386719 17.921875 108.214844 18.695312 L 107.25 23.164062 L 105.121094 23.164062 L 106.078125 18.679688 C 106.21875 18.007812 106.296875 17.609375 106.308594 17.472656 C 106.308594 17.191406 106.222656 16.96875 106.058594 16.808594 C 105.894531 16.648438 105.660156 16.566406 105.367188 16.566406 C 105.046875 16.566406 104.691406 16.699219 104.300781 16.964844 C 103.90625 17.226562 103.601562 17.578125 103.378906 18.011719 C 103.210938 18.324219 103.023438 18.953125 102.816406 19.910156 L 102.15625 23.164062 L 100.027344 23.164062 L 101.675781 15.234375 "/>
<path style=" stroke:none;fill-rule:evenodd;fill:rgb(12.866211%,11.170959%,11.180115%);fill-opacity:1;" d="M 115.136719 18.554688 C 115.140625 18.460938 115.144531 18.386719 115.144531 18.335938 C 115.144531 17.746094 115.011719 17.304688 114.75 17.007812 C 114.488281 16.714844 114.140625 16.566406 113.699219 16.566406 C 113.261719 16.566406 112.863281 16.734375 112.519531 17.066406 C 112.167969 17.402344 111.933594 17.898438 111.808594 18.554688 Z M 116.929688 19.863281 L 111.597656 19.863281 C 111.589844 19.949219 111.589844 20.015625 111.589844 20.058594 C 111.589844 20.589844 111.734375 21.015625 112.035156 21.339844 C 112.332031 21.667969 112.695312 21.828125 113.125 21.828125 C 113.828125 21.828125 114.378906 21.464844 114.769531 20.738281 L 116.6875 21.050781 C 116.316406 21.820312 115.820312 22.398438 115.199219 22.78125 C 114.578125 23.164062 113.882812 23.355469 113.109375 23.355469 C 112.050781 23.355469 111.191406 23.019531 110.527344 22.34375 C 109.863281 21.667969 109.53125 20.773438 109.53125 19.660156 C 109.53125 18.574219 109.832031 17.605469 110.429688 16.757812 C 111.246094 15.613281 112.410156 15.039062 113.925781 15.039062 C 114.890625 15.039062 115.652344 15.339844 116.222656 15.941406 C 116.789062 16.539062 117.074219 17.382812 117.074219 18.464844 C 117.074219 18.984375 117.027344 19.449219 116.929688 19.863281 "/>
<path style=" stroke:none;fill-rule:evenodd;fill:rgb(12.866211%,11.170959%,11.180115%);fill-opacity:1;" d="M 128.152344 18.917969 L 127.503906 14.527344 L 125.09375 18.917969 Z M 128.421875 20.738281 L 124.09375 20.738281 L 122.765625 23.164062 L 120.441406 23.164062 L 126.617188 12.226562 L 129.148438 12.226562 L 130.90625 23.164062 L 128.777344 23.164062 L 128.421875 20.738281 "/>
<path style=" stroke:none;fill-rule:evenodd;fill:rgb(12.866211%,11.170959%,11.180115%);fill-opacity:1;" d="M 134.457031 12.226562 L 136.589844 12.226562 L 136.183594 14.164062 L 134.054688 14.164062 Z M 133.828125 15.234375 L 135.960938 15.234375 L 134.308594 23.164062 L 132.179688 23.164062 L 133.828125 15.234375 "/>
<path style=" stroke:none;fill-rule:evenodd;fill:rgb(12.866211%,11.170959%,11.180115%);fill-opacity:1;" d="M 137.867188 15.234375 L 139.875 15.234375 L 139.558594 16.738281 C 140.308594 15.601562 141.117188 15.039062 141.992188 15.039062 C 142.300781 15.039062 142.632812 15.113281 142.984375 15.269531 L 142.160156 17.011719 C 141.964844 16.941406 141.757812 16.90625 141.535156 16.90625 C 141.160156 16.90625 140.78125 17.046875 140.394531 17.328125 C 140.011719 17.605469 139.710938 17.980469 139.492188 18.449219 C 139.277344 18.917969 139.0625 19.660156 138.851562 20.679688 L 138.351562 23.164062 L 136.21875 23.164062 L 137.867188 15.234375 "/>
<path style=" stroke:none;fill-rule:evenodd;fill:rgb(12.866211%,11.170959%,11.180115%);fill-opacity:1;" d="M 142.199219 23.164062 L 144.476562 12.226562 L 146.605469 12.226562 L 144.328125 23.164062 L 142.199219 23.164062 "/>
<path style=" stroke:none;fill-rule:evenodd;fill:rgb(12.866211%,11.170959%,11.180115%);fill-opacity:1;" d="M 148.636719 12.226562 L 150.765625 12.226562 L 150.363281 14.164062 L 148.230469 14.164062 Z M 148.011719 15.234375 L 150.140625 15.234375 L 148.488281 23.164062 L 146.359375 23.164062 L 148.011719 15.234375 "/>
<path style=" stroke:none;fill-rule:evenodd;fill:rgb(12.866211%,11.170959%,11.180115%);fill-opacity:1;" d="M 152.195312 15.234375 L 154.226562 15.234375 L 154.019531 16.277344 C 154.53125 15.832031 155.015625 15.511719 155.460938 15.324219 C 155.90625 15.132812 156.378906 15.039062 156.871094 15.039062 C 157.53125 15.039062 158.054688 15.230469 158.433594 15.609375 C 158.8125 15.988281 159.003906 16.492188 159.003906 17.121094 C 158.996094 17.398438 158.90625 17.921875 158.730469 18.695312 L 157.769531 23.164062 L 155.640625 23.164062 L 156.597656 18.679688 C 156.738281 18.007812 156.8125 17.609375 156.824219 17.472656 C 156.824219 17.191406 156.742188 16.96875 156.574219 16.808594 C 156.410156 16.648438 156.183594 16.566406 155.886719 16.566406 C 155.566406 16.566406 155.210938 16.699219 154.816406 16.964844 C 154.425781 17.226562 154.117188 17.578125 153.894531 18.011719 C 153.730469 18.324219 153.542969 18.953125 153.335938 19.910156 L 152.675781 23.164062 L 150.546875 23.164062 L 152.195312 15.234375 "/>
<path style=" stroke:none;fill-rule:evenodd;fill:rgb(12.866211%,11.170959%,11.180115%);fill-opacity:1;" d="M 165.652344 18.554688 C 165.660156 18.460938 165.664062 18.386719 165.664062 18.335938 C 165.664062 17.746094 165.53125 17.304688 165.269531 17.007812 C 165.007812 16.714844 164.65625 16.566406 164.21875 16.566406 C 163.777344 16.566406 163.386719 16.734375 163.035156 17.066406 C 162.6875 17.402344 162.449219 17.898438 162.328125 18.554688 Z M 167.445312 19.863281 L 162.113281 19.863281 C 162.105469 19.949219 162.105469 20.015625 162.105469 20.058594 C 162.105469 20.589844 162.257812 21.015625 162.554688 21.339844 C 162.851562 21.667969 163.214844 21.828125 163.644531 21.828125 C 164.347656 21.828125 164.894531 21.464844 165.289062 20.738281 L 167.207031 21.050781 C 166.835938 21.820312 166.339844 22.398438 165.71875 22.78125 C 165.097656 23.164062 164.402344 23.355469 163.628906 23.355469 C 162.570312 23.355469 161.710938 23.019531 161.046875 22.34375 C 160.386719 21.667969 160.054688 20.773438 160.054688 19.660156 C 160.054688 18.574219 160.351562 17.605469 160.949219 16.757812 C 161.765625 15.613281 162.929688 15.039062 164.441406 15.039062 C 165.40625 15.039062 166.175781 15.339844 166.738281 15.941406 C 167.3125 16.539062 167.597656 17.382812 167.597656 18.464844 C 167.597656 18.984375 167.546875 19.449219 167.445312 19.863281 "/>
<path style=" stroke:none;fill-rule:evenodd;fill:rgb(12.866211%,11.170959%,11.180115%);fill-opacity:1;" d="M 167.898438 20.964844 L 169.960938 20.640625 C 170.148438 21.074219 170.375 21.378906 170.652344 21.558594 C 170.925781 21.738281 171.304688 21.828125 171.773438 21.828125 C 172.265625 21.828125 172.65625 21.71875 172.949219 21.5 C 173.15625 21.347656 173.261719 21.164062 173.261719 20.949219 C 173.261719 20.804688 173.207031 20.675781 173.101562 20.558594 C 172.992188 20.449219 172.695312 20.316406 172.214844 20.15625 C 170.921875 19.726562 170.121094 19.386719 169.8125 19.136719 C 169.328125 18.75 169.089844 18.242188 169.089844 17.613281 C 169.089844 16.980469 169.320312 16.441406 169.789062 15.988281 C 170.441406 15.355469 171.410156 15.039062 172.691406 15.039062 C 173.714844 15.039062 174.484375 15.226562 175.007812 15.597656 C 175.53125 15.972656 175.859375 16.480469 176 17.117188 L 174.035156 17.464844 C 173.929688 17.171875 173.761719 16.957031 173.523438 16.808594 C 173.207031 16.613281 172.820312 16.519531 172.367188 16.519531 C 171.921875 16.519531 171.597656 16.59375 171.398438 16.742188 C 171.199219 16.890625 171.101562 17.0625 171.101562 17.257812 C 171.101562 17.460938 171.199219 17.625 171.398438 17.753906 C 171.523438 17.832031 171.925781 17.972656 172.601562 18.171875 C 173.644531 18.476562 174.34375 18.777344 174.695312 19.070312 C 175.195312 19.484375 175.441406 19.984375 175.441406 20.566406 C 175.441406 21.320312 175.128906 21.972656 174.492188 22.527344 C 173.863281 23.082031 172.972656 23.355469 171.824219 23.355469 C 170.683594 23.355469 169.796875 23.148438 169.171875 22.730469 C 168.550781 22.3125 168.121094 21.722656 167.898438 20.964844 "/>
</g>
</svg>
