<svg xmlns="http://www.w3.org/2000/svg" width="176pt" height="34.893" viewBox="0 0 176 26.17"><defs><clipPath id="a"><path d="M76 15h10v11.172H76Zm0 0"/></clipPath><clipPath id="b"><path d="M85 15h11v11.172H85Zm0 0"/></clipPath></defs><path d="M0 23.164h23.3L27.454-.004z" style="stroke:none;fill-rule:evenodd;fill:#2e3590;fill-opacity:1"/><path d="m24.246 10.113.192-7.574-.641.54-.176 7.105-.855 3.148h-.004.004l-1.473-2.687-.785-4.79-.551.465.691 4.325v3.382l.02-.007q-.018.01-.035.015l.015-.008-2.027-2.375-1.746-2.73-.469.394 1.668 2.614.793 3.035.024-.012q-.025.016-.043.031l.02-.02-2.708-1.827-1.715-2.164-.46.386 1.699 2.141 1.527 2.73-3.113-1.246-2.278-1.796-.46.39 2.347 1.852 2.148 2.273.024-.023q-.02.02-.031.043l.007-.02-3.375-.582-3.496-1.543-.488.414 3.695 1.63 2.579 1.816.015-.032c-.008.024-.02.043-.031.067l.016-.035-3.325-.235-5.113-1.383-.531.45 5.449 1.476 2.813 1.504-3.293.39-8.399-.48-.629.535 8.942.508 3.043.848 11.453-9.485z" style="stroke:none;fill-rule:evenodd;fill:#f3b013;fill-opacity:1"/><path d="M13.164 23.164h23.3L40.618-.004z" style="stroke:none;fill-rule:evenodd;fill:#eb1d2b;fill-opacity:1"/><path d="M49.094 17.172h.687c1.176 0 1.957-.074 2.352-.223q.59-.221.93-.707.34-.487.34-1.074-.001-.393-.176-.645a.95.95 0 0 0-.489-.363q-.31-.117-1.398-.117h-1.594Zm-1.246 5.992h-2.254l2.273-10.937h4.43q1.185 0 1.871.277.685.28 1.09.926.398.646.398 1.543 0 .825-.316 1.609c-.211.523-.477.941-.785 1.254q-.463.469-.996.71c-.356.165-.836.286-1.442.372-.347.05-1.008.074-1.969.074h-1.433zM57.793 23.164h-2.129l2.277-10.937h2.13l-.813 3.902q.732-.58 1.37-.836a3.7 3.7 0 0 1 1.364-.254q.979 0 1.547.563.567.56.566 1.472c-.011.317-.085.805-.218 1.473l-1 4.617h-2.13l1.005-4.707c.11-.512.168-.844.183-.988q-.001-.41-.254-.657-.252-.246-.691-.246c-.367 0-.723.125-1.059.375a3.25 3.25 0 0 0-1.007 1.215c-.121.266-.286.887-.485 1.867zM67.156 12.227h2.13l-.403 1.937h-2.13Zm-.625 3.007h2.13l-1.653 7.93h-2.13zM69.043 23.164l2.273-10.937h2.133l-2.281 10.937zM75.477 12.227h2.132l-.406 1.937h-2.129Zm-.625 3.007h2.128l-1.648 7.93h-2.129z" style="stroke:none;fill-rule:evenodd;fill:#211c1d;fill-opacity:1"/><g clip-path="url(#a)"><path d="M80.234 19.785q0 .938.45 1.453.45.521 1.066.52.527 0 1.02-.387c.328-.262.601-.687.816-1.289q.323-.896.324-1.664.002-.896-.426-1.375a1.38 1.38 0 0 0-1.082-.477q-.609 0-1.113.438-.503.439-.777 1.293-.277.849-.278 1.488m-1.27-4.55h2.028l-.16.808q.647-.54 1.211-.773.562-.23 1.207-.23 1.242-.002 1.992.858.755.862.754 2.567c0 1.43-.433 2.64-1.308 3.629q-1.12 1.26-2.653 1.261-1.575 0-2.383-1.265l-.84 4.082h-2.128z" style="stroke:none;fill-rule:evenodd;fill:#211c1d;fill-opacity:1"/></g><g clip-path="url(#b)"><path d="M89.473 19.785c0 .625.148 1.11.453 1.453q.452.521 1.062.52.527 0 1.024-.387c.328-.262.597-.687.816-1.289q.323-.896.324-1.664 0-.896-.43-1.375a1.38 1.38 0 0 0-1.077-.477q-.615 0-1.114.438-.504.439-.781 1.293-.277.849-.277 1.488m-1.27-4.55h2.027l-.16.808q.65-.54 1.211-.773.562-.23 1.211-.23 1.24-.002 1.988.858.755.862.754 2.567.001 2.145-1.304 3.629-1.124 1.26-2.653 1.261-1.58 0-2.386-1.265l-.84 4.082h-2.13z" style="stroke:none;fill-rule:evenodd;fill:#211c1d;fill-opacity:1"/></g><path d="M98.117 12.227h2.13l-.403 1.937h-2.13Zm-.625 3.007h2.13l-1.65 7.93h-2.128zM101.676 15.234h2.031l-.203 1.043q.769-.67 1.437-.953a3.5 3.5 0 0 1 1.41-.285q.99 0 1.563.57c.383.38.57.883.57 1.512q-.01.414-.27 1.574l-.964 4.47h-2.129l.957-4.485c.14-.672.219-1.07.23-1.207q-.001-.424-.25-.664c-.163-.16-.398-.243-.69-.243q-.482 0-1.067.399a2.7 2.7 0 0 0-.922 1.047c-.168.312-.356.941-.563 1.898l-.66 3.254h-2.129zM115.137 18.555q.007-.142.008-.22-.001-.883-.395-1.327-.391-.44-1.05-.442c-.438 0-.837.168-1.18.5-.352.336-.586.832-.711 1.489Zm1.793 1.308h-5.332c-.008.086-.008.153-.008.196 0 .53.144.957.445 1.28q.445.492 1.09.49 1.057 0 1.645-1.09l1.918.312q-.558 1.155-1.489 1.73a3.9 3.9 0 0 1-2.09.574q-1.587.002-2.582-1.011-.996-1.013-.996-2.684.001-1.63.899-2.902 1.223-1.718 3.496-1.719c.965 0 1.726.3 2.297.902.566.598.851 1.442.851 2.524q0 .779-.144 1.398M128.152 18.918l-.648-4.39-2.41 4.39Zm.27 1.82h-4.328l-1.328 2.426h-2.325l6.176-10.937h2.531l1.758 10.937h-2.129zM134.457 12.227h2.133l-.406 1.937h-2.13Zm-.629 3.007h2.133l-1.652 7.93h-2.13zM137.867 15.234h2.008l-.316 1.504c.75-1.136 1.558-1.699 2.433-1.699q.464-.002.992.23l-.824 1.743a1.8 1.8 0 0 0-.625-.106q-.562 0-1.14.422a2.83 2.83 0 0 0-.903 1.121q-.324.703-.64 2.23l-.5 2.485h-2.133zM142.2 23.164l2.277-10.937h2.128l-2.277 10.937zM148.637 12.227h2.129l-.403 1.937h-2.133Zm-.625 3.007h2.129l-1.653 7.93h-2.129zM152.195 15.234h2.032l-.207 1.043c.511-.445.996-.765 1.44-.953a3.5 3.5 0 0 1 1.411-.285c.66 0 1.184.191 1.563.57q.57.57.57 1.512-.011.414-.274 1.574l-.96 4.47h-2.13l.958-4.485c.14-.672.214-1.07.226-1.207q.001-.424-.25-.664c-.164-.16-.39-.243-.687-.243q-.48 0-1.07.399-.588.395-.922 1.047c-.165.312-.352.941-.56 1.898l-.66 3.254h-2.128zM165.652 18.555q.012-.142.012-.22-.001-.883-.394-1.327-.394-.44-1.051-.442c-.442 0-.832.168-1.184.5-.347.336-.586.832-.707 1.489Zm1.793 1.308h-5.332c-.008.086-.008.153-.008.196 0 .53.153.957.45 1.28q.445.492 1.09.49 1.054 0 1.644-1.09l1.918.312q-.556 1.155-1.488 1.73a3.9 3.9 0 0 1-2.09.574q-1.587.002-2.582-1.011-.991-1.013-.992-2.684 0-1.63.894-2.902 1.225-1.718 3.492-1.719c.965 0 1.735.3 2.297.902.575.598.86 1.442.86 2.524q0 .779-.153 1.398M167.898 20.965l2.063-.324c.187.433.414.738.691.918.274.18.653.27 1.121.27q.738 0 1.176-.329.312-.229.313-.55a.57.57 0 0 0-.16-.391q-.166-.164-.887-.403-1.94-.645-2.403-1.02-.724-.58-.722-1.523c0-.633.23-1.172.7-1.625q.978-.95 2.901-.949c1.024 0 1.793.188 2.317.559q.783.563.992 1.52l-1.965.347a1.23 1.23 0 0 0-.512-.656c-.316-.196-.703-.29-1.156-.29q-.669 0-.969.223-.297.223-.296.516-.001.303.296.496.189.118 1.204.418 1.565.458 2.093.898.748.622.746 1.496c0 .754-.312 1.407-.949 1.961-.629.555-1.52.828-2.668.828-1.14 0-2.027-.207-2.652-.625-.621-.418-1.05-1.007-1.274-1.765" style="stroke:none;fill-rule:evenodd;fill:#211c1d;fill-opacity:1"/></svg>