<svg xmlns="http://www.w3.org/2000/svg" width="176pt" height="63.48" viewBox="0 0 176 47.61"><defs><clipPath id="a"><path d="M0 0h48v47.61H0Zm0 0"/></clipPath></defs><g clip-path="url(#a)"><path d="m40.406 39.379-.023-4.54c0-.077.039-.077.039-.077-.04 0-.04-.035-.04-.035v-.032c-.253-.402-.5-.789-.788-1.187-3.684-5.29-8.52-9.746-14.172-12.946l14.14-.027 6.758-.023c.145 1.09.215 2.133.215 3.25.028 6.011-2.297 11.5-6.129 15.617m-.793.797a22.7 22.7 0 0 1-15.738 6.426C11.289 46.64 1.09 36.445 1.043 23.879 1.023 11.289 11.172 1.07 23.766 1.043a22.43 22.43 0 0 1 15.761 6.336c2.48 2.336 4.399 5.246 5.63 8.52l-5.602.007-26.149.082.008 4.606c2.41.543 4.793 1.289 7.059 2.289-4.176-1.137-8.563-1.598-13.532-1.582H6.77v5.914l1.37-1.383c12.266.266 23.352 5.355 31.462 13.434.18.152.336.289.476.437-.14.188-.289.324-.465.473M23.727-.004C10.602.023-.023 10.723 0 23.84c.047 13.156 10.71 23.805 23.832 23.77 13.133-.032 23.75-10.743 23.719-23.891C47.51 10.594 36.84-.047 23.727-.004" style="stroke:none;fill-rule:nonzero;fill:#243d76;fill-opacity:1"/></g><path d="m132.07 10.66 6.004.055.067 23.508c-2.055 2.343-6.032 4.46-10.891 4.375-6.426-.11-11.625-2.676-11.625-11.274l-.062-16.59 6.007-.02.02 16.052c.043 5.254 1.855 6.566 6.074 6.566 1.606 0 3.645-.621 4.461-2.145zM143.41 37.84h5.996V10.773h-5.996Zm17.836-9.461.43-1.453c.426-1.36.777-2.524 1.433-5.008.305-1.238.895-3.531 1.282-5.164.504 2.598.734 3.262 1.09 4.738.308 1.356.624 2.715 1.472 5.434l1.113 3.797c-2.336-1.356-4.738-1.973-6.82-2.344m6.246-17.606h-5.855l-8.864 27.067h5.676l1.485-5c2.062.195 6.386.707 10.207 4.875l.035.125H176zM75.133 10.66l-.266 1.867a2.96 2.96 0 0 1-2.93 2.547h-6.062v6.211h6.914v1.711a2.743 2.743 0 0 1-2.742 2.742h-4.172v12.07h-5.469V10.66zM93.18 33.277l-.43 2a3.21 3.21 0 0 1-3.137 2.532H77.867V10.66h5.586v22.617zM112.09 10.66l-8.676 15.977v9.547c0 .898-.727 1.625-1.621 1.625h-2.559c-.84 0-1.523-.684-1.523-1.524v-9.648l-8.27-15.664a.212.212 0 0 1 .188-.313h6.207l3.477 7.422a24 24 0 0 1 1.367 3.477 94 94 0 0 1 1.445-3.399l3.516-7.5z" style="stroke:none;fill-rule:nonzero;fill:#243d76;fill-opacity:1"/></svg>