<svg xmlns="http://www.w3.org/2000/svg" width="176pt" height="35.88" viewBox="0 0 176 26.91"><defs><clipPath id="a"><path d="M165 15h11v11.91h-11Zm0 0"/></clipPath><clipPath id="b"><path d="M103 15h13v11.91h-13Zm0 0"/></clipPath><clipPath id="c"><path d="M117 15h13v11.91h-13Zm0 0"/></clipPath><clipPath id="d"><path d="M90 14h13v12.91H90Zm0 0"/></clipPath><clipPath id="e"><path d="M154 15h10v11.91h-10Zm0 0"/></clipPath><clipPath id="f"><path d="M131 15h11v11.91h-11Zm0 0"/></clipPath><clipPath id="g"><path d="M78 14h11v12.91H78Zm0 0"/></clipPath><clipPath id="h"><path d="M143 15h10v11.91h-10Zm0 0"/></clipPath><clipPath id="i"><path d="M165 15h1v11.91h-1Zm0 0"/></clipPath><clipPath id="j"><path d="M166 21h2v5.91h-2Zm0 0"/></clipPath><clipPath id="k"><path d="M104 26h1v.91h-1Zm0 0"/></clipPath><clipPath id="l"><path d="M117 26h2v.91h-2Zm0 0"/></clipPath><clipPath id="m"><path d="M148 26h1v.91h-1Zm0 0"/></clipPath></defs><g clip-path="url(#a)"><path d="M167.094 16.781v3.328c.129.028.203.059.281.059 1.281-.004 2.563.02 3.844-.027 1.406-.051 2.386-.84 2.097-2.422-.007-.055-.023-.11-.035-.164-.27-.461-.558-.903-1.156-.977a.15.15 0 0 1-.121-.031l-.375-.106c-.149-.043-.297-.125-.445-.125-.809-.02-1.618-.015-2.422-.02h-1.742c.03.216.05.349.074.485m-.106 9.446-.164.433h-1.082c0-3.578.004-7.156.004-10.734 0-.274.055-.563-.168-.79.332-.019.668-.05 1-.05 1.785.004 3.574-.016 5.363.027 1.293.032 2.34.582 2.852 1.825.652 1.593.144 3.238-1.45 4.011-.46.223-.98.32-1.503.485 1.347.703 2.055 1.984 2.847 3.191.422.645.875 1.27 1.313 1.906v.168h-1.969c-.41-.62-.804-1.254-1.226-1.867-.52-.75-1.07-1.484-1.59-2.238-.485-.692-1.18-1.004-1.977-1.07-.664-.051-1.336-.012-2.004 0-.066.003-.129.09-.195.136-.078.016-.156.031-.281.059 0 1.406-.008 2.816.008 4.222 0 .094.144.192.222.286" style="stroke:none;fill-rule:nonzero;fill:#28376d;fill-opacity:1"/></g><path d="M.012 19.98c.586-.207 1.16-.44 1.754-.613 2.011-.59 4.027-1.16 6.047-1.734 3.394-.961 6.796-1.914 10.19-2.883 1.966-.562 3.915-1.168 5.88-1.73 2.515-.723 5.043-1.415 7.562-2.133 1.727-.492 3.446-1.008 5.168-1.5 3-.856 6-1.692 8.996-2.551 1.461-.418 2.907-.879 4.364-1.297 1.672-.476 3.359-.898 5.023-1.402a2.8 2.8 0 0 1 1.23-.098c1.399.188 2.786.434 4.18.629 1.403.195 2.805.344 4.203.535 1.043.14 2.079.324 3.118.469.96.133 1.925.234 2.882.363.95.125 1.895.266 3.043.434-.515.304-.851.527-1.207.715-4.363 2.324-8.98 4.03-13.691 5.484-2.29.707-4.613 1.316-6.945 1.879-2.145.52-4.313.957-6.485 1.36-2.144.394-4.308.714-6.465 1.042-1.613.246-3.23.45-4.843.676-1.098.156-2.188.324-3.286.469-.632.082-1.27.12-1.902.187-.992.102-1.984.215-2.976.317q-.997.1-1.993.175c-.914.07-1.832.125-2.75.188l-5.324.352c-.832.054-1.664.117-2.5.164q-1.792.092-3.586.168c-1.367.062-2.738.043-4.094.19-1.699.192-3.402.075-5.101.15-.168.007-.336-.012-.504-.02z" style="stroke:none;fill-rule:nonzero;fill:#f8c00c;fill-opacity:1"/><path d="m1.148 25.758.86-.25c3.55-1.012 7.101-2.02 10.652-3.035 2.188-.625 4.371-1.27 6.559-1.903q.2-.058.406-.07c1.059-.062 2.121-.098 3.176-.184 1.836-.144 3.664-.312 5.496-.48 1.191-.11 2.387-.215 3.574-.363 1.516-.188 3.031-.403 4.543-.63 1.484-.222 2.969-.44 4.445-.71 1.993-.367 3.98-.754 5.961-1.188 3.008-.66 5.989-1.437 8.946-2.312a126 126 0 0 0 8.761-2.961c.52-.195 1.047-.379 1.551-.613a1.57 1.57 0 0 1 1.055-.114l6.578 1.477c.187.043.363.121.668.223-1.176.484-2.238.93-3.305 1.363-3.808 1.55-7.691 2.894-11.613 4.129-3.816 1.199-7.684 2.218-11.574 3.136-2.38.563-4.778 1.047-7.176 1.504-1.86.352-3.734.614-5.602.899-1.87.281-3.738.558-5.613.8-1.273.16-2.55.258-3.824.38-1.664.16-3.328.328-4.992.46-1.2.094-2.399.149-3.598.204-1.73.074-3.46.164-5.191.19-3.524.06-7.043.08-10.567.11-.027 0-.05-.015-.176-.062M110.691 2.133v2.566c.817 0 1.594.024 2.371-.015.282-.016.551-.192.797-.286.067-.21.114-.34.149-.472.262-.95-.301-1.754-1.274-1.79-.664-.023-1.332-.003-2.043-.003m.258 8.094h2.828c1.141-.512 1.118-1.868.672-2.707-.289-.543-.758-.868-1.418-.844-.695.023-1.386.015-2.082.023-.082.004-.164.008-.281.016v3.496c.117.004.2.012.281.016M108.086.285c.18-.035.363-.097.547-.097 1.512-.008 3.023-.024 4.539 0 .89.019 1.777.128 2.574.597.574.332 1.024.781 1.25 1.414.434 1.2.012 2.352-1.101 3.024-.118.07-.239.136-.368.21.192.137.371.27.559.391 1.344.86 1.969 2.426 1.328 4.18-.547 1.504-2.055 2.629-3.648 2.594-1.793-.04-3.586-.004-5.38-.008-.171 0-.406.113-.491-.172l.136-.07-.152-.094c-.031-.211-.086-.426-.086-.637-.008-3.101-.012-6.199 0-9.3.004-.61.062-1.22.098-1.833a9 9 0 0 1 .195-.199" style="stroke:none;fill-rule:nonzero;fill:#26356b;fill-opacity:1"/><path d="M136.191 2.363c.008 1.149-.004 2.219.012 3.32h2.75l.535-.597c.145-1.106.184-2.125-.949-2.723zm4.317 4.07c2.066 1.583 3.144 3.657 3.687 6.118h-3.277c-.055-.13-.148-.293-.2-.469-.312-1.074-.695-2.117-1.347-3.035-.68-.961-1.578-1.461-2.836-1.317-.125.817-.047 1.622-.058 2.418-.016.782-.004 1.559-.004 2.395h-3.036c-.148-.559-.167-11.492-.003-12.305.171-.015.359-.054.546-.054 1.454-.004 2.91-.02 4.368.007.523.008 1.066.051 1.566.192 1.61.449 2.281 1.347 2.441 3.082q.022.252.008.504c-.035 1.215-.508 2.078-1.855 2.465M125.29 2.695a156 156 0 0 0-1.75 5.25c1.214.133 3.015.086 3.577-.093-.59-1.66-1.176-3.32-1.828-5.157m-2.231 7.278c-.121.18-.282.34-.356.535-.25.672-.473 1.355-.707 2.05h-3.055c1.536-4.163 3.063-8.253 4.602-12.351h3.48q2.393 6.076 4.832 12.281c-.542.196-1.042.082-1.53.102-.473.02-.95.004-1.5.004-.352-.867-.716-1.754-1.075-2.637-.004-.246-.172-.238-.348-.238q-2.126.005-4.27.004c-.03.101-.054.175-.073.25M86.89.73v2.446c-.968-.45-1.91-.832-2.93-.871-1.026-.04-2.085-.145-2.929.761v.68c.29.504.77.649 1.258.79.934.269 1.871.523 2.79.831.417.137.816.356 1.19.59 2.301 1.438 1.958 4.469-.082 5.773-.828.532-1.75.805-2.75.856-1.64.086-3.214-.211-4.757-.719-.102-.035-.196-.101-.317-.164V9.051c.496.027.887.304 1.309.457 1.086.39 2.195.637 3.351.57a6.3 6.3 0 0 0 1.23-.21c.438-.122.544-.27.825-.907-.238-1-1.101-1.297-1.945-1.578-.528-.176-1.098-.207-1.621-.38-.63-.202-1.262-.433-1.836-.753-1.301-.734-1.516-2.055-1.27-3.176.336-1.496 1.285-2.386 2.774-2.793C83-.215 84.758.004 86.512.543c.129.039.246.121.379.187" style="stroke:none;fill-rule:nonzero;fill:#27366c;fill-opacity:1"/><g clip-path="url(#b)"><path d="M104.04 26.355q-.012-5.103-.028-10.207c0-.3-.051-.601-.082-.902.035.004.07.004.105.012q.094-.072.188-.149h2.175c1.098 3.192 2.207 6.395 3.375 9.786 1.204-3.38 2.34-6.579 3.48-9.786h2.161v11.54h-1.566v-9.012l-.153-.024c-1.09 3.016-2.175 6.032-3.27 9.055h-1.48c-1.097-3.094-2.203-6.223-3.375-9.352v9.325c-.554.027-1.047.21-1.52-.11q.06-.032.126-.062c-.047-.04-.094-.074-.137-.114" style="stroke:none;fill-rule:nonzero;fill:#2a386f;fill-opacity:1"/></g><g clip-path="url(#c)"><path d="M117.953 15.09h2.356c.644 1.55 1.105 3.207 1.687 4.812.574 1.59 1.102 3.196 1.703 4.961.504-1.156.817-2.226 1.203-3.27.407-1.093.785-2.195 1.18-3.292.383-1.067.773-2.13 1.156-3.192h2.067c.148.664.203 9.141.074 11.524-.45.133-.914.035-1.469.07-.008-.785-.015-1.527-.015-2.27q-.005-1.179-.004-2.351c0-.758.011-1.512 0-2.27-.016-.734.062-1.476-.137-2.222-1.211 2.984-2.254 6.008-3.363 9.058h-1.496c-1.082-3.093-2.18-6.226-3.282-9.363l-.093.012v9.344c-.551.03-1.043.21-1.52-.11q.066-.032.125-.062l-.137-.114c-.008-3.398-.011-6.796-.023-10.195-.004-.3-.055-.598-.078-.898q.03-.089.066-.172" style="stroke:none;fill-rule:nonzero;fill:#2a396f;fill-opacity:1"/></g><g clip-path="url(#d)"><path d="M96.2 16.246c-1.95.004-3.368 1.07-3.856 2.93a6.9 6.9 0 0 0-.192 2.484c.258 2.473 2.051 4.012 4.348 3.899 1.617-.079 3.254-1.262 3.664-3.114a7 7 0 0 0 .031-2.898c-.418-2.145-2.183-3.43-3.996-3.3m-.013 10.633a5.41 5.41 0 0 1-5.273-3.508c-.539-1.422-.543-2.851-.191-4.336.367-1.547 1.27-2.637 2.562-3.453.668-.418 1.426-.57 2.211-.672 1.2-.16 2.313.031 3.39.543 1.665.79 2.555 2.184 2.958 3.918.293 1.274.18 2.531-.215 3.777-.762 2.399-2.996 3.739-5.106 3.727q-.168-.001-.335.004" style="stroke:none;fill-rule:nonzero;fill:#29376d;fill-opacity:1"/></g><g clip-path="url(#e)"><path d="M162.219 21.316c-1.793.008-3.582.02-5.375.028h-.817c-.21.582-.242 3.117-.047 3.98h7.211v1.328h-8.836V15.187c.598-.128 7.54-.156 8.528-.023v1.27h-6.871c-.196.648-.211 2.714-.04 3.5.173.015.356.05.544.05 1.625.004 3.25 0 4.87.004.278 0 .555.028.837.043q-.005.643-.004 1.285" style="stroke:none;fill-rule:nonzero;fill:#27366c;fill-opacity:1"/></g><g clip-path="url(#f)"><path d="M131.977 15.121h1.582c.015.215.043.43.043.645.003 2.21-.008 4.422.015 6.632.008.497.067 1.008.215 1.477.207.664.66 1.125 1.356 1.367.988.348 1.945.332 2.933.012.766-.25 1.246-.738 1.402-1.5.125-.625.192-1.27.2-1.902.027-1.961.007-3.918.011-5.875v-.856h1.586c.02.102.055.207.055.309 0 2.265.008 4.53-.012 6.797-.004.5-.086.996-.16 1.492-.246 1.676-1.465 2.808-3.27 3.09-.984.152-1.995.144-2.995-.102-1.536-.383-2.481-1.316-2.79-2.863a8 8 0 0 1-.171-1.489c-.02-2.293-.012-4.59-.016-6.882 0-.106.012-.211.016-.352" style="stroke:none;fill-rule:nonzero;fill:#29386f;fill-opacity:1"/></g><path d="M159.785 12.563h-2.765V.289c.718-.168 2.234-.148 2.78.035q.006 2.21.016 4.426c0 .168-.093.414.215.441 1.457 0 2.91.004 4.367.004.059-.004.122-.008.18-.008l.024.008c-.032.211-.059.426-.09.66h-4.649q-.085-.17-.172-.34c-.168.532-.242 1.02.063 1.512q.051-.165.11-.332h4.663c.032.278.051.465.075.657l-.024.011q-.086-.002-.18-.004h-4.367c-.347.063-.21.34-.215.528-.015 1.558-.02 3.117-.03 4.676" style="stroke:none;fill-rule:nonzero;fill:#27376c;fill-opacity:1"/><g clip-path="url(#g)"><path d="M88.113 23.895c-.023.52-.008.91-.074 1.285-.066.363-.305.64-.629.851-.617.403-1.312.594-2.02.727-1.136.215-2.292.226-3.394-.125-1.18-.371-2.121-1.102-2.695-2.235-.86-1.695-1.106-3.457-.684-5.332.516-2.3 1.996-3.578 4.207-4.125 1.516-.37 2.98-.152 4.406.422.332.133.653.293.985.442v1.68c-.145-.075-.246-.106-.32-.169-.82-.687-1.77-1.058-2.832-1.066-.72-.004-1.446.05-2.157.156-1.386.2-2.16 1.149-2.52 2.387a7.24 7.24 0 0 0 .098 4.418c.48 1.422 1.536 2.094 2.907 2.293 1.246.183 2.437-.082 3.492-.832.355-.254.738-.469 1.23-.777" style="stroke:none;fill-rule:nonzero;fill:#29386f;fill-opacity:1"/></g><path d="M159.863 5.855h4.649c.031-.234.058-.449.09-.66.078-.02.16-.039.3-.07V.277c.797-.043 1.594-.09 2.38-.132.167.695.23 10.355.085 12.386-.418.114-.86.047-1.293.051-.441.004-.887-.027-1.332-.043.055-.234.153-.469.156-.707.02-.918.008-1.84.008-2.762V7.426l-.304-.074c-.024-.192-.043-.38-.075-.657h-4.664z" style="stroke:none;fill-rule:nonzero;fill:#243368;fill-opacity:1"/><path d="M154.652.29c.078.023.157.042.266.073-.004.723.082 1.438-.07 2.157-.727.199-1.399.085-2.063.105-.637.02-1.277.004-1.976.004v9.875c-.508.156-.98.066-1.442.082-.445.016-.887.004-1.39.004V2.707c-.653-.148-1.258-.059-1.864-.074-.61-.016-1.222-.004-1.925-.004-.122-.781-.051-1.52-.051-2.266.105-.031.183-.05.258-.074.003.504-.016 1.008.011 1.508.016.191.14.375.172.457 1.574.082 3.012.21 4.445.223 1.38.011 2.762-.098 4.141-.149.309-.012.613.004.922-.004.184-.008.363-.039.566-.062z" style="stroke:none;fill-rule:nonzero;fill:#2c3b71;fill-opacity:1"/><g clip-path="url(#h)"><path d="M148.613 26.703h-1.515c-.032-3.41.004-6.785-.024-10.254-1.32-.015-2.62 0-3.953-.012v-1.312h9.457v1.266c-.195.015-.41.047-.625.05-1.058.024-2.117.04-3.18.059-.043.113-.125.223-.125.332-.011.613-.003 1.227-.007 1.84q-.011 3.844-.028 7.687l-.133.11q.062.029.122.062z" style="stroke:none;fill-rule:nonzero;fill:#27366c;fill-opacity:1"/></g><path d="M93.484 2.828c-.105-.3-.367-.195-.57-.2-1.062-.007-2.125-.003-3.234-.003-.11-.797-.032-1.57-.043-2.332.629-.14 9.508-.172 10.672-.043v2.375c-1.149 0-2.258 0-3.371.004-.274 0-.567-.07-.77.203q-1.343.001-2.684-.004" style="stroke:none;fill-rule:nonzero;fill:#28376d;fill-opacity:1"/><path d="M93.484 2.828q1.343.005 2.684.004v9.578q-.09.074-.18.149h-2.187c.027-.239-.086-.34-.32-.317q.001-4.704.003-9.414" style="stroke:none;fill-rule:nonzero;fill:#24346a;fill-opacity:1"/><path d="M154.652.29v1.972c-.203.023-.382.054-.566.062-.309.008-.613-.008-.922.004-1.379.05-2.762.16-4.14.149-1.434-.012-2.872-.141-4.446-.223-.031-.082-.156-.266-.172-.457-.027-.5-.008-1.004-.011-1.508.113 0 .222-.004.332-.004.101.063.207.176.312.18.504.02 1.008.012 1.512.012 2.402 0 4.804 0 7.21-.008.192 0 .462.14.563-.184.11 0 .219.004.328.004" style="stroke:none;fill-rule:nonzero;fill:#243368;fill-opacity:1"/><g clip-path="url(#i)"><path d="M165.578 15.137c.223.226.168.515.168.789 0 3.578-.004 7.156-.004 10.734-.078-.004-.152-.008-.297-.012v-3.496c0-2.476-.004-4.953.004-7.433.004-.196.086-.387.13-.582" style="stroke:none;fill-rule:nonzero;fill:#232d5e;fill-opacity:1"/></g><path d="M154.324.285c-.101.324-.37.184-.562.184-2.407.008-4.809.008-7.211.008-.504 0-1.008.007-1.512-.012-.105-.004-.21-.117-.312-.18.125-.035.25-.101.375-.101q4.423-.012 8.847 0c.125 0 .25.066.375.101" style="stroke:none;fill-rule:nonzero;fill:#2c3b71;fill-opacity:1"/><path d="m164.602 7.352.304.074V9.07c0 .922.012 1.844-.008 2.762-.003.238-.101.473-.156.707-.047-.164-.137-.328-.137-.492-.02-1.504-.027-3.008-.035-4.512q.001-.085.008-.172zM164.902.277v4.848c-.14.031-.222.05-.3.07l-.024-.008q-.007-.088-.008-.171l.047-4.84c.145.05.215.078.285.101M123.059 9.973c.02-.075.043-.149.074-.25q2.143.001 4.27-.004c.175 0 .343-.008.347.238-.437.023-.875.066-1.312.066-1.126-.007-2.254-.03-3.38-.05" style="stroke:none;fill-rule:nonzero;fill:#232d5e;fill-opacity:1"/><g clip-path="url(#j)"><path d="M166.988 26.227c-.078-.094-.222-.192-.222-.286-.016-1.406-.008-2.816-.008-4.222.125-.028.203-.043.281-.059q.013 2.215.02 4.422c0 .05-.047.098-.07.145" style="stroke:none;fill-rule:nonzero;fill:#232d5e;fill-opacity:1"/></g><path d="M162.219 21.316c0-.43 0-.855.004-1.285h.265v1.258z" style="stroke:none;fill-rule:nonzero;fill:#232d5e;fill-opacity:1"/><path d="M93.48 12.242c.235-.023.348.078.32.317-.284.078-.378-.043-.32-.317" style="stroke:none;fill-rule:nonzero;fill:#28376d;fill-opacity:1"/><path d="m104.035 15.258-.023-.168c.066.008.14.015.21.02q-.093.076-.187.148M107.879 12.254l.152.094-.136.07c-.008-.055-.016-.11-.016-.164" style="stroke:none;fill-rule:nonzero;fill:#232d5e;fill-opacity:1"/><path d="M95.988 12.559q.09-.075.18-.149-.09.074-.18.149" style="stroke:none;fill-rule:nonzero;fill:#28376d;fill-opacity:1"/><g clip-path="url(#k)"><path d="M104.04 26.355c.042.04.089.075.136.114q-.066.032-.125.062z" style="stroke:none;fill-rule:nonzero;fill:#232d5e;fill-opacity:1"/></g><g clip-path="url(#l)"><path d="m117.988 26.355.137.114q-.06.032-.125.062z" style="stroke:none;fill-rule:nonzero;fill:#232d5e;fill-opacity:1"/></g><path d="M159.863 5.855v.84q-.057.167-.11.332c-.304-.492-.23-.98-.062-1.511q.087.17.172.34" style="stroke:none;fill-rule:nonzero;fill:#2c3b71;fill-opacity:1"/><g clip-path="url(#m)"><path d="m148.613 26.36-.011.171q-.061-.034-.122-.062z" style="stroke:none;fill-rule:nonzero;fill:#232d5e;fill-opacity:1"/></g></svg>