<?xml version="1.0" encoding="UTF-8"?>
<svg xmlns="http://www.w3.org/2000/svg" xmlns:xlink="http://www.w3.org/1999/xlink" width="176pt" height="26.91pt" viewBox="0 0 176 26.91" version="1.1">
<defs>
<clipPath id="clip1">
  <path d="M 165 15 L 176 15 L 176 26.910156 L 165 26.910156 Z M 165 15 "/>
</clipPath>
<clipPath id="clip2">
  <path d="M 103 15 L 116 15 L 116 26.910156 L 103 26.910156 Z M 103 15 "/>
</clipPath>
<clipPath id="clip3">
  <path d="M 117 15 L 130 15 L 130 26.910156 L 117 26.910156 Z M 117 15 "/>
</clipPath>
<clipPath id="clip4">
  <path d="M 90 14 L 103 14 L 103 26.910156 L 90 26.910156 Z M 90 14 "/>
</clipPath>
<clipPath id="clip5">
  <path d="M 154 15 L 164 15 L 164 26.910156 L 154 26.910156 Z M 154 15 "/>
</clipPath>
<clipPath id="clip6">
  <path d="M 131 15 L 142 15 L 142 26.910156 L 131 26.910156 Z M 131 15 "/>
</clipPath>
<clipPath id="clip7">
  <path d="M 78 14 L 89 14 L 89 26.910156 L 78 26.910156 Z M 78 14 "/>
</clipPath>
<clipPath id="clip8">
  <path d="M 143 15 L 153 15 L 153 26.910156 L 143 26.910156 Z M 143 15 "/>
</clipPath>
<clipPath id="clip9">
  <path d="M 165 15 L 166 15 L 166 26.910156 L 165 26.910156 Z M 165 15 "/>
</clipPath>
<clipPath id="clip10">
  <path d="M 166 21 L 168 21 L 168 26.910156 L 166 26.910156 Z M 166 21 "/>
</clipPath>
<clipPath id="clip11">
  <path d="M 104 26 L 105 26 L 105 26.910156 L 104 26.910156 Z M 104 26 "/>
</clipPath>
<clipPath id="clip12">
  <path d="M 117 26 L 119 26 L 119 26.910156 L 117 26.910156 Z M 117 26 "/>
</clipPath>
<clipPath id="clip13">
  <path d="M 148 26 L 149 26 L 149 26.910156 L 148 26.910156 Z M 148 26 "/>
</clipPath>
</defs>
<g id="surface1">
<g clip-path="url(#clip1)" clip-rule="nonzero">
<path style=" stroke:none;fill-rule:nonzero;fill:rgb(15.66925%,21.71936%,42.930603%);fill-opacity:1;" d="M 167.09375 16.78125 C 167.09375 17.886719 167.09375 18.992188 167.09375 20.109375 C 167.222656 20.136719 167.296875 20.167969 167.375 20.167969 C 168.65625 20.164062 169.9375 20.1875 171.21875 20.140625 C 172.625 20.089844 173.605469 19.300781 173.316406 17.71875 C 173.308594 17.664062 173.292969 17.609375 173.28125 17.554688 C 173.011719 17.09375 172.722656 16.652344 172.125 16.578125 C 172.078125 16.585938 172.039062 16.574219 172.003906 16.546875 C 171.878906 16.511719 171.753906 16.476562 171.628906 16.441406 C 171.480469 16.398438 171.332031 16.316406 171.183594 16.316406 C 170.375 16.296875 169.566406 16.300781 168.761719 16.296875 C 168.207031 16.296875 167.65625 16.296875 167.019531 16.296875 C 167.050781 16.511719 167.070312 16.644531 167.09375 16.78125 Z M 166.988281 26.226562 C 166.933594 26.371094 166.878906 26.515625 166.824219 26.660156 C 166.4375 26.660156 166.089844 26.660156 165.742188 26.660156 C 165.742188 23.082031 165.746094 19.503906 165.746094 15.925781 C 165.746094 15.652344 165.800781 15.363281 165.578125 15.136719 C 165.910156 15.117188 166.246094 15.085938 166.578125 15.085938 C 168.363281 15.089844 170.152344 15.070312 171.941406 15.113281 C 173.234375 15.144531 174.28125 15.695312 174.792969 16.9375 C 175.445312 18.53125 174.9375 20.175781 173.34375 20.949219 C 172.882812 21.171875 172.363281 21.269531 171.839844 21.433594 C 173.1875 22.136719 173.894531 23.417969 174.6875 24.625 C 175.109375 25.269531 175.5625 25.894531 176 26.53125 C 176 26.585938 176 26.640625 176 26.699219 C 175.359375 26.699219 174.722656 26.699219 174.03125 26.699219 C 173.621094 26.078125 173.226562 25.445312 172.804688 24.832031 C 172.285156 24.082031 171.734375 23.347656 171.214844 22.59375 C 170.730469 21.902344 170.035156 21.589844 169.238281 21.523438 C 168.574219 21.472656 167.902344 21.511719 167.234375 21.523438 C 167.167969 21.527344 167.105469 21.613281 167.039062 21.660156 C 166.960938 21.675781 166.882812 21.691406 166.757812 21.71875 C 166.757812 23.125 166.75 24.535156 166.765625 25.941406 C 166.765625 26.035156 166.910156 26.132812 166.988281 26.226562 "/>
</g>
<path style=" stroke:none;fill-rule:nonzero;fill:rgb(97.122192%,75.241089%,4.61731%);fill-opacity:1;" d="M 0.0117188 19.980469 C 0.597656 19.773438 1.171875 19.539062 1.765625 19.367188 C 3.777344 18.777344 5.792969 18.207031 7.8125 17.632812 C 11.207031 16.671875 14.609375 15.71875 18.003906 14.75 C 19.96875 14.1875 21.917969 13.582031 23.882812 13.019531 C 26.398438 12.296875 28.925781 11.605469 31.445312 10.886719 C 33.171875 10.394531 34.890625 9.878906 36.613281 9.386719 C 39.613281 8.53125 42.613281 7.695312 45.609375 6.835938 C 47.070312 6.417969 48.515625 5.957031 49.972656 5.539062 C 51.644531 5.0625 53.332031 4.640625 54.996094 4.136719 C 55.417969 4.007812 55.824219 3.984375 56.226562 4.039062 C 57.625 4.226562 59.011719 4.472656 60.40625 4.667969 C 61.808594 4.863281 63.210938 5.011719 64.609375 5.203125 C 65.652344 5.34375 66.6875 5.527344 67.726562 5.671875 C 68.6875 5.804688 69.652344 5.90625 70.609375 6.035156 C 71.558594 6.160156 72.503906 6.300781 73.652344 6.46875 C 73.136719 6.773438 72.800781 6.996094 72.445312 7.183594 C 68.082031 9.507812 63.464844 11.214844 58.753906 12.667969 C 56.464844 13.375 54.140625 13.984375 51.808594 14.546875 C 49.664062 15.066406 47.496094 15.503906 45.324219 15.90625 C 43.179688 16.300781 41.015625 16.621094 38.859375 16.949219 C 37.246094 17.195312 35.628906 17.398438 34.015625 17.625 C 32.917969 17.78125 31.828125 17.949219 30.730469 18.09375 C 30.097656 18.175781 29.460938 18.214844 28.828125 18.28125 C 27.835938 18.382812 26.84375 18.496094 25.851562 18.597656 C 25.1875 18.664062 24.523438 18.722656 23.859375 18.773438 C 22.945312 18.84375 22.027344 18.898438 21.109375 18.960938 C 19.335938 19.078125 17.558594 19.195312 15.785156 19.3125 C 14.953125 19.367188 14.121094 19.429688 13.285156 19.476562 C 12.089844 19.539062 10.894531 19.59375 9.699219 19.644531 C 8.332031 19.707031 6.960938 19.6875 5.605469 19.835938 C 3.90625 20.027344 2.203125 19.910156 0.503906 19.984375 C 0.335938 19.992188 0.167969 19.972656 0 19.964844 L 0.0117188 19.980469 "/>
<path style=" stroke:none;fill-rule:nonzero;fill:rgb(14.898682%,20.808411%,41.96167%);fill-opacity:1;" d="M 1.148438 25.757812 C 1.488281 25.660156 1.75 25.582031 2.007812 25.507812 C 5.558594 24.496094 9.109375 23.488281 12.660156 22.472656 C 14.847656 21.847656 17.03125 21.203125 19.21875 20.570312 C 19.351562 20.53125 19.488281 20.507812 19.625 20.5 C 20.683594 20.4375 21.746094 20.402344 22.800781 20.316406 C 24.636719 20.171875 26.464844 20.003906 28.296875 19.835938 C 29.488281 19.726562 30.683594 19.621094 31.871094 19.472656 C 33.386719 19.285156 34.902344 19.070312 36.414062 18.84375 C 37.898438 18.621094 39.382812 18.402344 40.859375 18.132812 C 42.851562 17.765625 44.839844 17.378906 46.820312 16.945312 C 49.828125 16.285156 52.808594 15.507812 55.765625 14.632812 C 58.722656 13.753906 61.644531 12.765625 64.527344 11.671875 C 65.046875 11.476562 65.574219 11.292969 66.078125 11.058594 C 66.429688 10.894531 66.769531 10.863281 67.132812 10.945312 C 69.328125 11.4375 71.519531 11.929688 73.710938 12.421875 C 73.898438 12.464844 74.074219 12.542969 74.378906 12.644531 C 73.203125 13.128906 72.140625 13.574219 71.074219 14.007812 C 67.265625 15.558594 63.382812 16.902344 59.460938 18.136719 C 55.644531 19.335938 51.777344 20.355469 47.886719 21.273438 C 45.507812 21.835938 43.109375 22.320312 40.710938 22.777344 C 38.851562 23.128906 36.976562 23.390625 35.109375 23.675781 C 33.238281 23.957031 31.371094 24.234375 29.496094 24.476562 C 28.222656 24.636719 26.945312 24.734375 25.671875 24.855469 C 24.007812 25.015625 22.34375 25.183594 20.679688 25.316406 C 19.480469 25.410156 18.28125 25.464844 17.082031 25.519531 C 15.351562 25.59375 13.621094 25.683594 11.890625 25.710938 C 8.367188 25.769531 4.847656 25.789062 1.324219 25.820312 C 1.296875 25.820312 1.273438 25.804688 1.148438 25.757812 "/>
<path style=" stroke:none;fill-rule:nonzero;fill:rgb(14.898682%,20.808411%,41.96167%);fill-opacity:1;" d="M 110.691406 2.132812 C 110.691406 3.050781 110.691406 3.847656 110.691406 4.699219 C 111.507812 4.699219 112.285156 4.722656 113.0625 4.683594 C 113.34375 4.667969 113.613281 4.492188 113.859375 4.398438 C 113.925781 4.1875 113.972656 4.058594 114.007812 3.925781 C 114.269531 2.976562 113.707031 2.171875 112.734375 2.136719 C 112.070312 2.113281 111.402344 2.132812 110.691406 2.132812 Z M 110.949219 10.226562 C 111.917969 10.226562 112.886719 10.226562 113.777344 10.226562 C 114.917969 9.714844 114.894531 8.359375 114.449219 7.519531 C 114.160156 6.976562 113.691406 6.652344 113.03125 6.675781 C 112.335938 6.699219 111.644531 6.691406 110.949219 6.699219 C 110.867188 6.703125 110.785156 6.707031 110.667969 6.714844 C 110.667969 7.882812 110.667969 9.042969 110.667969 10.210938 C 110.785156 10.214844 110.867188 10.222656 110.949219 10.226562 Z M 108.085938 0.285156 C 108.265625 0.25 108.449219 0.1875 108.632812 0.1875 C 110.144531 0.179688 111.65625 0.164062 113.171875 0.1875 C 114.0625 0.207031 114.949219 0.316406 115.746094 0.785156 C 116.320312 1.117188 116.769531 1.566406 116.996094 2.199219 C 117.429688 3.398438 117.007812 4.550781 115.894531 5.222656 C 115.777344 5.292969 115.65625 5.359375 115.527344 5.433594 C 115.71875 5.570312 115.898438 5.703125 116.085938 5.824219 C 117.429688 6.683594 118.054688 8.25 117.414062 10.003906 C 116.867188 11.507812 115.359375 12.632812 113.765625 12.597656 C 111.972656 12.558594 110.179688 12.59375 108.386719 12.589844 C 108.214844 12.589844 107.980469 12.703125 107.894531 12.417969 C 107.941406 12.394531 107.988281 12.371094 108.03125 12.347656 C 107.980469 12.316406 107.929688 12.285156 107.878906 12.253906 C 107.847656 12.042969 107.792969 11.828125 107.792969 11.617188 C 107.785156 8.515625 107.78125 5.417969 107.792969 2.316406 C 107.796875 1.707031 107.855469 1.097656 107.890625 0.484375 C 107.953125 0.417969 108.019531 0.351562 108.085938 0.285156 "/>
<path style=" stroke:none;fill-rule:nonzero;fill:rgb(15.280151%,21.116638%,42.424011%);fill-opacity:1;" d="M 136.191406 2.363281 C 136.199219 3.511719 136.1875 4.582031 136.203125 5.683594 C 137.164062 5.683594 138.046875 5.683594 138.953125 5.683594 C 139.144531 5.46875 139.328125 5.265625 139.488281 5.085938 C 139.632812 3.980469 139.671875 2.960938 138.539062 2.363281 C 137.808594 2.363281 137.085938 2.363281 136.191406 2.363281 Z M 140.507812 6.433594 C 142.574219 8.015625 143.652344 10.089844 144.195312 12.550781 C 143.09375 12.550781 142.039062 12.550781 140.917969 12.550781 C 140.863281 12.421875 140.769531 12.257812 140.71875 12.082031 C 140.40625 11.007812 140.023438 9.964844 139.371094 9.046875 C 138.691406 8.085938 137.792969 7.585938 136.535156 7.730469 C 136.410156 8.546875 136.488281 9.351562 136.476562 10.148438 C 136.460938 10.929688 136.472656 11.707031 136.472656 12.542969 C 135.433594 12.542969 134.441406 12.542969 133.4375 12.542969 C 133.289062 11.984375 133.269531 1.050781 133.433594 0.238281 C 133.605469 0.222656 133.792969 0.183594 133.980469 0.183594 C 135.433594 0.179688 136.890625 0.164062 138.347656 0.191406 C 138.871094 0.199219 139.414062 0.242188 139.914062 0.382812 C 141.523438 0.832031 142.195312 1.730469 142.355469 3.464844 C 142.371094 3.632812 142.371094 3.800781 142.363281 3.96875 C 142.328125 5.183594 141.855469 6.046875 140.507812 6.433594 "/>
<path style=" stroke:none;fill-rule:nonzero;fill:rgb(15.280151%,21.116638%,42.424011%);fill-opacity:1;" d="M 125.289062 2.695312 C 124.644531 4.542969 124.070312 6.230469 123.539062 7.945312 C 124.753906 8.078125 126.554688 8.03125 127.117188 7.851562 C 126.527344 6.191406 125.941406 4.53125 125.289062 2.695312 Z M 123.058594 9.972656 C 122.9375 10.152344 122.777344 10.3125 122.703125 10.507812 C 122.453125 11.179688 122.230469 11.863281 121.996094 12.558594 C 120.988281 12.558594 120.023438 12.558594 118.941406 12.558594 C 120.476562 8.394531 122.003906 4.304688 123.542969 0.207031 C 124.703125 0.207031 125.816406 0.207031 127.023438 0.207031 C 128.617188 4.257812 130.230469 8.351562 131.855469 12.488281 C 131.3125 12.683594 130.8125 12.570312 130.324219 12.589844 C 129.851562 12.609375 129.375 12.59375 128.824219 12.59375 C 128.472656 11.726562 128.109375 10.839844 127.75 9.957031 C 127.746094 9.710938 127.578125 9.71875 127.402344 9.71875 C 125.984375 9.722656 124.5625 9.722656 123.132812 9.722656 C 123.101562 9.824219 123.078125 9.898438 123.058594 9.972656 "/>
<path style=" stroke:none;fill-rule:nonzero;fill:rgb(15.280151%,21.116638%,42.424011%);fill-opacity:1;" d="M 86.890625 0.730469 C 86.890625 1.523438 86.890625 2.300781 86.890625 3.175781 C 85.921875 2.726562 84.980469 2.34375 83.960938 2.304688 C 82.933594 2.265625 81.875 2.160156 81.03125 3.066406 C 81.03125 3.285156 81.03125 3.527344 81.03125 3.746094 C 81.320312 4.25 81.800781 4.394531 82.289062 4.535156 C 83.222656 4.804688 84.160156 5.058594 85.078125 5.367188 C 85.496094 5.503906 85.894531 5.722656 86.269531 5.957031 C 88.570312 7.394531 88.226562 10.425781 86.1875 11.730469 C 85.359375 12.261719 84.4375 12.535156 83.4375 12.585938 C 81.796875 12.671875 80.222656 12.375 78.679688 11.867188 C 78.578125 11.832031 78.484375 11.765625 78.363281 11.703125 C 78.363281 10.839844 78.363281 9.980469 78.363281 9.050781 C 78.859375 9.078125 79.25 9.355469 79.671875 9.507812 C 80.757812 9.898438 81.867188 10.144531 83.023438 10.078125 C 83.4375 10.054688 83.851562 9.972656 84.253906 9.867188 C 84.691406 9.746094 84.796875 9.597656 85.078125 8.960938 C 84.839844 7.960938 83.976562 7.664062 83.132812 7.382812 C 82.605469 7.207031 82.035156 7.175781 81.511719 7.003906 C 80.882812 6.800781 80.25 6.570312 79.675781 6.25 C 78.375 5.515625 78.160156 4.195312 78.40625 3.074219 C 78.742188 1.578125 79.691406 0.6875 81.179688 0.28125 C 83 -0.214844 84.757812 0.00390625 86.511719 0.542969 C 86.640625 0.582031 86.757812 0.664062 86.890625 0.730469 "/>
<g clip-path="url(#clip2)" clip-rule="nonzero">
<path style=" stroke:none;fill-rule:nonzero;fill:rgb(16.322327%,22.007751%,43.395996%);fill-opacity:1;" d="M 104.039062 26.355469 C 104.03125 22.953125 104.023438 19.550781 104.011719 16.148438 C 104.011719 15.847656 103.960938 15.546875 103.929688 15.246094 C 103.964844 15.25 104 15.25 104.035156 15.257812 C 104.097656 15.210938 104.160156 15.160156 104.222656 15.109375 C 104.917969 15.109375 105.613281 15.109375 106.398438 15.109375 C 107.496094 18.300781 108.605469 21.503906 109.773438 24.894531 C 110.976562 21.515625 112.113281 18.316406 113.253906 15.109375 C 113.980469 15.109375 114.675781 15.109375 115.414062 15.109375 C 115.414062 18.953125 115.414062 22.773438 115.414062 26.648438 C 114.921875 26.648438 114.429688 26.648438 113.847656 26.648438 C 113.847656 23.644531 113.847656 20.640625 113.847656 17.636719 C 113.796875 17.628906 113.746094 17.621094 113.695312 17.613281 C 112.605469 20.628906 111.519531 23.644531 110.425781 26.667969 C 109.933594 26.667969 109.488281 26.667969 108.945312 26.667969 C 107.847656 23.574219 106.742188 20.445312 105.570312 17.316406 C 105.570312 20.40625 105.570312 23.496094 105.570312 26.640625 C 105.015625 26.667969 104.523438 26.851562 104.050781 26.53125 C 104.089844 26.511719 104.132812 26.488281 104.175781 26.46875 C 104.128906 26.429688 104.082031 26.394531 104.039062 26.355469 "/>
</g>
<g clip-path="url(#clip3)" clip-rule="nonzero">
<path style=" stroke:none;fill-rule:nonzero;fill:rgb(16.299438%,22.390747%,43.510437%);fill-opacity:1;" d="M 117.953125 15.089844 C 118.707031 15.089844 119.464844 15.089844 120.308594 15.089844 C 120.953125 16.640625 121.414062 18.296875 121.996094 19.902344 C 122.570312 21.492188 123.097656 23.097656 123.699219 24.863281 C 124.203125 23.707031 124.515625 22.636719 124.902344 21.59375 C 125.308594 20.5 125.6875 19.398438 126.082031 18.300781 C 126.464844 17.234375 126.855469 16.171875 127.238281 15.109375 C 127.976562 15.109375 128.640625 15.109375 129.304688 15.109375 C 129.453125 15.773438 129.507812 24.25 129.378906 26.632812 C 128.929688 26.765625 128.464844 26.667969 127.910156 26.703125 C 127.902344 25.917969 127.894531 25.175781 127.894531 24.433594 C 127.890625 23.648438 127.890625 22.863281 127.890625 22.082031 C 127.890625 21.324219 127.902344 20.570312 127.890625 19.8125 C 127.875 19.078125 127.953125 18.335938 127.753906 17.589844 C 126.542969 20.574219 125.5 23.597656 124.390625 26.648438 C 123.921875 26.648438 123.457031 26.648438 122.894531 26.648438 C 121.8125 23.554688 120.714844 20.421875 119.613281 17.285156 C 119.582031 17.289062 119.550781 17.292969 119.519531 17.296875 C 119.519531 20.394531 119.519531 23.488281 119.519531 26.640625 C 118.96875 26.671875 118.476562 26.851562 118 26.53125 C 118.042969 26.511719 118.085938 26.488281 118.125 26.46875 C 118.078125 26.429688 118.035156 26.394531 117.988281 26.355469 C 117.980469 22.957031 117.976562 19.558594 117.964844 16.160156 C 117.960938 15.859375 117.910156 15.5625 117.886719 15.261719 C 117.90625 15.203125 117.929688 15.144531 117.953125 15.089844 "/>
</g>
<g clip-path="url(#clip4)" clip-rule="nonzero">
<path style=" stroke:none;fill-rule:nonzero;fill:rgb(15.92865%,21.684265%,42.933655%);fill-opacity:1;" d="M 96.199219 16.246094 C 94.25 16.25 92.832031 17.316406 92.34375 19.175781 C 92.132812 19.988281 92.0625 20.828125 92.152344 21.660156 C 92.410156 24.132812 94.203125 25.671875 96.5 25.558594 C 98.117188 25.480469 99.753906 24.296875 100.164062 22.445312 C 100.378906 21.488281 100.386719 20.523438 100.195312 19.546875 C 99.777344 17.402344 98.011719 16.117188 96.199219 16.246094 Z M 96.1875 26.878906 C 93.832031 26.96875 91.730469 25.535156 90.914062 23.371094 C 90.375 21.949219 90.371094 20.519531 90.722656 19.035156 C 91.089844 17.488281 91.992188 16.398438 93.285156 15.582031 C 93.953125 15.164062 94.710938 15.011719 95.496094 14.910156 C 96.695312 14.75 97.808594 14.941406 98.886719 15.453125 C 100.550781 16.242188 101.441406 17.636719 101.84375 19.371094 C 102.136719 20.644531 102.023438 21.902344 101.628906 23.148438 C 100.867188 25.546875 98.632812 26.886719 96.523438 26.875 C 96.410156 26.875 96.300781 26.875 96.1875 26.878906 "/>
</g>
<g clip-path="url(#clip5)" clip-rule="nonzero">
<path style=" stroke:none;fill-rule:nonzero;fill:rgb(15.151978%,21.134949%,42.414856%);fill-opacity:1;" d="M 162.21875 21.316406 C 160.425781 21.324219 158.636719 21.335938 156.84375 21.34375 C 156.566406 21.34375 156.289062 21.34375 156.027344 21.34375 C 155.816406 21.925781 155.785156 24.460938 155.980469 25.324219 C 158.355469 25.324219 160.75 25.324219 163.191406 25.324219 C 163.191406 25.796875 163.191406 26.203125 163.191406 26.652344 C 160.253906 26.652344 157.328125 26.652344 154.355469 26.652344 C 154.355469 22.828125 154.355469 19.007812 154.355469 15.1875 C 154.953125 15.058594 161.894531 15.03125 162.882812 15.164062 C 162.882812 15.5625 162.882812 15.964844 162.882812 16.433594 C 160.558594 16.433594 158.273438 16.433594 156.011719 16.433594 C 155.816406 17.082031 155.800781 19.148438 155.972656 19.933594 C 156.144531 19.949219 156.328125 19.984375 156.515625 19.984375 C 158.140625 19.988281 159.765625 19.984375 161.386719 19.988281 C 161.664062 19.988281 161.941406 20.015625 162.222656 20.03125 C 162.21875 20.460938 162.21875 20.886719 162.21875 21.316406 "/>
</g>
<g clip-path="url(#clip6)" clip-rule="nonzero">
<path style=" stroke:none;fill-rule:nonzero;fill:rgb(16.055298%,22.035217%,43.382263%);fill-opacity:1;" d="M 131.976562 15.121094 C 132.519531 15.121094 133.015625 15.121094 133.558594 15.121094 C 133.574219 15.335938 133.601562 15.550781 133.601562 15.765625 C 133.605469 17.976562 133.59375 20.1875 133.617188 22.398438 C 133.625 22.894531 133.683594 23.40625 133.832031 23.875 C 134.039062 24.539062 134.492188 25 135.1875 25.242188 C 136.175781 25.589844 137.132812 25.574219 138.121094 25.253906 C 138.886719 25.003906 139.367188 24.515625 139.523438 23.753906 C 139.648438 23.128906 139.714844 22.484375 139.722656 21.851562 C 139.75 19.890625 139.730469 17.933594 139.734375 15.976562 C 139.734375 15.703125 139.734375 15.429688 139.734375 15.121094 C 140.296875 15.121094 140.789062 15.121094 141.320312 15.121094 C 141.339844 15.222656 141.375 15.328125 141.375 15.429688 C 141.375 17.695312 141.382812 19.960938 141.363281 22.226562 C 141.359375 22.726562 141.277344 23.222656 141.203125 23.71875 C 140.957031 25.394531 139.738281 26.527344 137.933594 26.808594 C 136.949219 26.960938 135.9375 26.953125 134.9375 26.707031 C 133.402344 26.324219 132.457031 25.390625 132.148438 23.84375 C 132.050781 23.355469 131.980469 22.851562 131.976562 22.355469 C 131.957031 20.0625 131.964844 17.765625 131.960938 15.472656 C 131.960938 15.367188 131.972656 15.261719 131.976562 15.121094 "/>
</g>
<path style=" stroke:none;fill-rule:nonzero;fill:rgb(15.249634%,21.482849%,42.523193%);fill-opacity:1;" d="M 159.785156 12.5625 C 158.875 12.5625 157.960938 12.5625 157.019531 12.5625 C 157.019531 8.433594 157.019531 4.363281 157.019531 0.289062 C 157.738281 0.121094 159.253906 0.140625 159.800781 0.324219 C 159.804688 1.796875 159.808594 3.273438 159.816406 4.75 C 159.816406 4.917969 159.722656 5.164062 160.03125 5.191406 C 161.488281 5.191406 162.941406 5.195312 164.398438 5.195312 C 164.457031 5.191406 164.519531 5.1875 164.578125 5.1875 L 164.601562 5.195312 C 164.570312 5.40625 164.542969 5.621094 164.511719 5.855469 C 162.929688 5.855469 161.394531 5.855469 159.863281 5.855469 C 159.804688 5.742188 159.75 5.628906 159.691406 5.515625 C 159.523438 6.046875 159.449219 6.535156 159.753906 7.027344 C 159.789062 6.917969 159.824219 6.804688 159.863281 6.695312 C 161.417969 6.695312 162.972656 6.695312 164.527344 6.695312 C 164.558594 6.972656 164.578125 7.160156 164.601562 7.351562 L 164.578125 7.363281 C 164.519531 7.363281 164.460938 7.359375 164.398438 7.359375 C 162.941406 7.359375 161.488281 7.359375 160.03125 7.359375 C 159.683594 7.421875 159.820312 7.699219 159.816406 7.886719 C 159.800781 9.445312 159.796875 11.003906 159.785156 12.5625 "/>
<g clip-path="url(#clip7)" clip-rule="nonzero">
<path style=" stroke:none;fill-rule:nonzero;fill:rgb(16.055298%,22.035217%,43.382263%);fill-opacity:1;" d="M 88.113281 23.894531 C 88.089844 24.414062 88.105469 24.804688 88.039062 25.179688 C 87.972656 25.542969 87.734375 25.820312 87.410156 26.03125 C 86.792969 26.433594 86.097656 26.625 85.390625 26.757812 C 84.253906 26.972656 83.097656 26.984375 81.996094 26.632812 C 80.816406 26.261719 79.875 25.53125 79.300781 24.398438 C 78.441406 22.703125 78.195312 20.941406 78.617188 19.066406 C 79.132812 16.765625 80.613281 15.488281 82.824219 14.941406 C 84.339844 14.570312 85.804688 14.789062 87.230469 15.363281 C 87.5625 15.496094 87.882812 15.65625 88.214844 15.804688 C 88.214844 16.367188 88.214844 16.890625 88.214844 17.484375 C 88.070312 17.410156 87.96875 17.378906 87.894531 17.316406 C 87.074219 16.628906 86.125 16.257812 85.0625 16.25 C 84.34375 16.246094 83.617188 16.300781 82.90625 16.40625 C 81.519531 16.605469 80.746094 17.554688 80.386719 18.792969 C 79.964844 20.253906 79.984375 21.738281 80.484375 23.210938 C 80.964844 24.632812 82.019531 25.304688 83.390625 25.503906 C 84.636719 25.6875 85.828125 25.421875 86.882812 24.671875 C 87.238281 24.417969 87.621094 24.203125 88.113281 23.894531 "/>
</g>
<path style=" stroke:none;fill-rule:nonzero;fill:rgb(14.080811%,20.072937%,40.971375%);fill-opacity:1;" d="M 159.863281 5.855469 C 161.394531 5.855469 162.929688 5.855469 164.511719 5.855469 C 164.542969 5.621094 164.570312 5.40625 164.601562 5.195312 C 164.679688 5.175781 164.761719 5.15625 164.902344 5.125 C 164.902344 3.515625 164.902344 1.898438 164.902344 0.277344 C 165.699219 0.234375 166.496094 0.1875 167.28125 0.144531 C 167.449219 0.839844 167.511719 10.5 167.367188 12.53125 C 166.949219 12.644531 166.507812 12.578125 166.074219 12.582031 C 165.632812 12.585938 165.1875 12.554688 164.742188 12.539062 C 164.796875 12.304688 164.894531 12.070312 164.898438 11.832031 C 164.917969 10.914062 164.90625 9.992188 164.90625 9.070312 C 164.90625 8.519531 164.90625 7.964844 164.90625 7.425781 C 164.761719 7.390625 164.679688 7.371094 164.601562 7.351562 C 164.578125 7.160156 164.558594 6.972656 164.527344 6.695312 C 162.972656 6.695312 161.417969 6.695312 159.863281 6.695312 C 159.863281 6.414062 159.863281 6.136719 159.863281 5.855469 "/>
<path style=" stroke:none;fill-rule:nonzero;fill:rgb(17.268372%,22.962952%,44.456482%);fill-opacity:1;" d="M 154.652344 0.289062 C 154.730469 0.3125 154.808594 0.332031 154.917969 0.363281 C 154.914062 1.085938 155 1.800781 154.847656 2.519531 C 154.121094 2.71875 153.449219 2.605469 152.785156 2.625 C 152.148438 2.644531 151.507812 2.628906 150.808594 2.628906 C 150.808594 5.941406 150.808594 9.207031 150.808594 12.503906 C 150.300781 12.660156 149.828125 12.570312 149.367188 12.585938 C 148.921875 12.601562 148.480469 12.589844 147.976562 12.589844 C 147.976562 9.273438 147.976562 6.007812 147.976562 2.707031 C 147.324219 2.558594 146.71875 2.648438 146.113281 2.632812 C 145.503906 2.617188 144.890625 2.628906 144.1875 2.628906 C 144.066406 1.847656 144.136719 1.109375 144.136719 0.363281 C 144.242188 0.332031 144.320312 0.3125 144.394531 0.289062 C 144.398438 0.792969 144.378906 1.296875 144.40625 1.796875 C 144.421875 1.988281 144.546875 2.171875 144.578125 2.253906 C 146.152344 2.335938 147.589844 2.464844 149.023438 2.476562 C 150.402344 2.488281 151.785156 2.378906 153.164062 2.328125 C 153.472656 2.316406 153.777344 2.332031 154.085938 2.324219 C 154.269531 2.316406 154.449219 2.285156 154.652344 2.261719 C 154.652344 1.570312 154.652344 0.929688 154.652344 0.289062 "/>
<g clip-path="url(#clip8)" clip-rule="nonzero">
<path style=" stroke:none;fill-rule:nonzero;fill:rgb(15.151978%,21.134949%,42.414856%);fill-opacity:1;" d="M 148.613281 26.703125 C 148.140625 26.703125 147.667969 26.703125 147.097656 26.703125 C 147.066406 23.292969 147.101562 19.917969 147.074219 16.449219 C 145.753906 16.433594 144.453125 16.449219 143.121094 16.4375 C 143.121094 15.972656 143.121094 15.566406 143.121094 15.125 C 146.277344 15.125 149.402344 15.125 152.578125 15.125 C 152.578125 15.523438 152.578125 15.929688 152.578125 16.390625 C 152.382812 16.40625 152.167969 16.4375 151.953125 16.441406 C 150.894531 16.464844 149.835938 16.480469 148.773438 16.5 C 148.730469 16.613281 148.648438 16.722656 148.648438 16.832031 C 148.636719 17.445312 148.644531 18.058594 148.640625 18.671875 C 148.632812 21.234375 148.625 23.796875 148.613281 26.359375 C 148.570312 26.394531 148.527344 26.429688 148.480469 26.46875 C 148.519531 26.488281 148.5625 26.507812 148.601562 26.53125 C 148.605469 26.585938 148.609375 26.644531 148.613281 26.703125 "/>
</g>
<path style=" stroke:none;fill-rule:nonzero;fill:rgb(15.66925%,21.71936%,42.930603%);fill-opacity:1;" d="M 93.484375 2.828125 C 93.378906 2.527344 93.117188 2.632812 92.914062 2.628906 C 91.851562 2.621094 90.789062 2.625 89.679688 2.625 C 89.570312 1.828125 89.648438 1.054688 89.636719 0.292969 C 90.265625 0.152344 99.144531 0.121094 100.308594 0.25 C 100.308594 1.015625 100.308594 1.785156 100.308594 2.625 C 99.160156 2.625 98.050781 2.625 96.9375 2.628906 C 96.664062 2.628906 96.371094 2.558594 96.167969 2.832031 C 95.273438 2.832031 94.378906 2.832031 93.484375 2.828125 "/>
<path style=" stroke:none;fill-rule:nonzero;fill:rgb(14.271545%,20.271301%,41.459656%);fill-opacity:1;" d="M 93.484375 2.828125 C 94.378906 2.832031 95.273438 2.832031 96.167969 2.832031 C 96.167969 6.023438 96.167969 9.21875 96.167969 12.410156 C 96.109375 12.460938 96.046875 12.507812 95.988281 12.558594 C 95.261719 12.558594 94.53125 12.558594 93.800781 12.558594 C 93.828125 12.320312 93.714844 12.21875 93.480469 12.242188 C 93.480469 9.105469 93.484375 5.96875 93.484375 2.828125 "/>
<path style=" stroke:none;fill-rule:nonzero;fill:rgb(14.080811%,20.072937%,40.971375%);fill-opacity:1;" d="M 154.652344 0.289062 C 154.652344 0.929688 154.652344 1.570312 154.652344 2.261719 C 154.449219 2.285156 154.269531 2.316406 154.085938 2.324219 C 153.777344 2.332031 153.472656 2.316406 153.164062 2.328125 C 151.785156 2.378906 150.402344 2.488281 149.023438 2.476562 C 147.589844 2.464844 146.152344 2.335938 144.578125 2.253906 C 144.546875 2.171875 144.421875 1.988281 144.40625 1.796875 C 144.378906 1.296875 144.398438 0.792969 144.394531 0.289062 C 144.507812 0.289062 144.617188 0.285156 144.726562 0.285156 C 144.828125 0.347656 144.933594 0.460938 145.039062 0.464844 C 145.542969 0.484375 146.046875 0.476562 146.550781 0.476562 C 148.953125 0.476562 151.355469 0.476562 153.761719 0.46875 C 153.953125 0.46875 154.222656 0.609375 154.324219 0.285156 C 154.433594 0.285156 154.542969 0.289062 154.652344 0.289062 "/>
<g clip-path="url(#clip9)" clip-rule="nonzero">
<path style=" stroke:none;fill-rule:nonzero;fill:rgb(13.690186%,17.459106%,36.712646%);fill-opacity:1;" d="M 165.578125 15.136719 C 165.800781 15.363281 165.746094 15.652344 165.746094 15.925781 C 165.746094 19.503906 165.742188 23.082031 165.742188 26.660156 C 165.664062 26.65625 165.589844 26.652344 165.445312 26.648438 C 165.445312 25.472656 165.445312 24.3125 165.445312 23.152344 C 165.445312 20.675781 165.441406 18.199219 165.449219 15.71875 C 165.453125 15.523438 165.535156 15.332031 165.578125 15.136719 "/>
</g>
<path style=" stroke:none;fill-rule:nonzero;fill:rgb(17.268372%,22.962952%,44.456482%);fill-opacity:1;" d="M 154.324219 0.285156 C 154.222656 0.609375 153.953125 0.46875 153.761719 0.46875 C 151.355469 0.476562 148.953125 0.476562 146.550781 0.476562 C 146.046875 0.476562 145.542969 0.484375 145.039062 0.464844 C 144.933594 0.460938 144.828125 0.347656 144.726562 0.285156 C 144.851562 0.25 144.976562 0.183594 145.101562 0.183594 C 148.050781 0.175781 151 0.175781 153.949219 0.183594 C 154.074219 0.183594 154.199219 0.25 154.324219 0.285156 "/>
<path style=" stroke:none;fill-rule:nonzero;fill:rgb(13.690186%,17.459106%,36.712646%);fill-opacity:1;" d="M 164.601562 7.351562 C 164.679688 7.371094 164.761719 7.390625 164.90625 7.425781 C 164.90625 7.964844 164.90625 8.519531 164.90625 9.070312 C 164.90625 9.992188 164.917969 10.914062 164.898438 11.832031 C 164.894531 12.070312 164.796875 12.304688 164.742188 12.539062 C 164.695312 12.375 164.605469 12.210938 164.605469 12.046875 C 164.585938 10.542969 164.578125 9.039062 164.570312 7.535156 C 164.570312 7.476562 164.574219 7.421875 164.578125 7.363281 L 164.601562 7.351562 "/>
<path style=" stroke:none;fill-rule:nonzero;fill:rgb(13.690186%,17.459106%,36.712646%);fill-opacity:1;" d="M 164.902344 0.277344 C 164.902344 1.898438 164.902344 3.515625 164.902344 5.125 C 164.761719 5.15625 164.679688 5.175781 164.601562 5.195312 L 164.578125 5.1875 C 164.574219 5.128906 164.570312 5.070312 164.570312 5.015625 C 164.585938 3.414062 164.601562 1.816406 164.617188 0.175781 C 164.761719 0.226562 164.832031 0.253906 164.902344 0.277344 "/>
<path style=" stroke:none;fill-rule:nonzero;fill:rgb(13.690186%,17.459106%,36.712646%);fill-opacity:1;" d="M 123.058594 9.972656 C 123.078125 9.898438 123.101562 9.824219 123.132812 9.722656 C 124.5625 9.722656 125.984375 9.722656 127.402344 9.71875 C 127.578125 9.71875 127.746094 9.710938 127.75 9.957031 C 127.3125 9.980469 126.875 10.023438 126.4375 10.023438 C 125.3125 10.015625 124.183594 9.992188 123.058594 9.972656 "/>
<g clip-path="url(#clip10)" clip-rule="nonzero">
<path style=" stroke:none;fill-rule:nonzero;fill:rgb(13.690186%,17.459106%,36.712646%);fill-opacity:1;" d="M 166.988281 26.226562 C 166.910156 26.132812 166.765625 26.035156 166.765625 25.941406 C 166.75 24.535156 166.757812 23.125 166.757812 21.71875 C 166.882812 21.691406 166.960938 21.675781 167.039062 21.660156 C 167.046875 23.136719 167.054688 24.609375 167.058594 26.082031 C 167.058594 26.132812 167.011719 26.179688 166.988281 26.226562 "/>
</g>
<path style=" stroke:none;fill-rule:nonzero;fill:rgb(13.690186%,17.459106%,36.712646%);fill-opacity:1;" d="M 162.21875 21.316406 C 162.21875 20.886719 162.21875 20.460938 162.222656 20.03125 C 162.300781 20.03125 162.378906 20.03125 162.488281 20.03125 C 162.488281 20.464844 162.488281 20.871094 162.488281 21.289062 C 162.378906 21.300781 162.296875 21.308594 162.21875 21.316406 "/>
<path style=" stroke:none;fill-rule:nonzero;fill:rgb(15.66925%,21.71936%,42.930603%);fill-opacity:1;" d="M 93.480469 12.242188 C 93.714844 12.21875 93.828125 12.320312 93.800781 12.558594 C 93.515625 12.636719 93.421875 12.515625 93.480469 12.242188 "/>
<path style=" stroke:none;fill-rule:nonzero;fill:rgb(13.690186%,17.459106%,36.712646%);fill-opacity:1;" d="M 104.035156 15.257812 C 104.027344 15.203125 104.019531 15.148438 104.011719 15.089844 C 104.078125 15.097656 104.152344 15.105469 104.222656 15.109375 C 104.160156 15.160156 104.097656 15.210938 104.035156 15.257812 "/>
<path style=" stroke:none;fill-rule:nonzero;fill:rgb(13.690186%,17.459106%,36.712646%);fill-opacity:1;" d="M 108.085938 0.285156 C 108.019531 0.351562 107.953125 0.417969 107.890625 0.484375 C 107.953125 0.417969 108.019531 0.351562 108.085938 0.285156 "/>
<path style=" stroke:none;fill-rule:nonzero;fill:rgb(13.690186%,17.459106%,36.712646%);fill-opacity:1;" d="M 107.878906 12.253906 C 107.929688 12.285156 107.980469 12.316406 108.03125 12.347656 C 107.988281 12.371094 107.941406 12.394531 107.894531 12.417969 C 107.886719 12.363281 107.878906 12.308594 107.878906 12.253906 "/>
<path style=" stroke:none;fill-rule:nonzero;fill:rgb(15.66925%,21.71936%,42.930603%);fill-opacity:1;" d="M 95.988281 12.558594 C 96.046875 12.507812 96.109375 12.460938 96.167969 12.410156 C 96.109375 12.460938 96.046875 12.507812 95.988281 12.558594 "/>
<g clip-path="url(#clip11)" clip-rule="nonzero">
<path style=" stroke:none;fill-rule:nonzero;fill:rgb(13.690186%,17.459106%,36.712646%);fill-opacity:1;" d="M 104.039062 26.355469 C 104.082031 26.394531 104.128906 26.429688 104.175781 26.46875 C 104.132812 26.488281 104.089844 26.511719 104.050781 26.53125 C 104.046875 26.472656 104.042969 26.414062 104.039062 26.355469 "/>
</g>
<g clip-path="url(#clip12)" clip-rule="nonzero">
<path style=" stroke:none;fill-rule:nonzero;fill:rgb(13.690186%,17.459106%,36.712646%);fill-opacity:1;" d="M 117.988281 26.355469 C 118.035156 26.394531 118.078125 26.429688 118.125 26.46875 C 118.085938 26.488281 118.042969 26.511719 118 26.53125 C 117.996094 26.472656 117.992188 26.414062 117.988281 26.355469 "/>
</g>
<path style=" stroke:none;fill-rule:nonzero;fill:rgb(17.268372%,22.962952%,44.456482%);fill-opacity:1;" d="M 159.863281 5.855469 C 159.863281 6.136719 159.863281 6.414062 159.863281 6.695312 C 159.824219 6.804688 159.789062 6.917969 159.753906 7.027344 C 159.449219 6.535156 159.523438 6.046875 159.691406 5.515625 C 159.75 5.628906 159.804688 5.742188 159.863281 5.855469 "/>
<g clip-path="url(#clip13)" clip-rule="nonzero">
<path style=" stroke:none;fill-rule:nonzero;fill:rgb(13.690186%,17.459106%,36.712646%);fill-opacity:1;" d="M 148.613281 26.359375 C 148.609375 26.414062 148.605469 26.472656 148.601562 26.53125 C 148.5625 26.507812 148.519531 26.488281 148.480469 26.46875 C 148.527344 26.429688 148.570312 26.394531 148.613281 26.359375 "/>
</g>
</g>
</svg>
