<?xml version="1.0" encoding="UTF-8"?>
<svg xmlns="http://www.w3.org/2000/svg" xmlns:xlink="http://www.w3.org/1999/xlink" width="176pt" height="51.89pt" viewBox="0 0 176 51.89" version="1.1">
<defs>
<clipPath id="clip1">
  <path d="M 76 0 L 176 0 L 176 51.890625 L 76 51.890625 Z M 76 0 "/>
</clipPath>
<clipPath id="clip2">
  <path d="M 0 0 L 155 0 L 155 51.890625 L 0 51.890625 Z M 0 0 "/>
</clipPath>
<clipPath id="clip3">
  <path d="M 90 0 L 170 0 L 170 51.890625 L 90 51.890625 Z M 90 0 "/>
</clipPath>
<clipPath id="clip4">
  <path d="M 90 0 L 169 0 L 169 51.890625 L 90 51.890625 Z M 90 0 "/>
</clipPath>
</defs>
<g id="surface1">
<g clip-path="url(#clip1)" clip-rule="nonzero">
<path style=" stroke:none;fill-rule:nonzero;fill:rgb(97.460938%,64.787292%,9.367371%);fill-opacity:1;" d="M 176 51.402344 L 76 51.402344 L 76 0.402344 L 176 0.402344 L 176 51.402344 "/>
</g>
<g clip-path="url(#clip2)" clip-rule="nonzero">
<path style=" stroke:none;fill-rule:nonzero;fill:rgb(22.099304%,33.615112%,13.729858%);fill-opacity:1;" d="M 90.339844 51.402344 L 0 51.402344 L 0 0.402344 L 138.171875 0.402344 L 140.640625 2.269531 L 154.925781 3.523438 L 154.136719 14.910156 L 107.632812 35.308594 L 94.863281 46.015625 L 90.339844 51.402344 "/>
</g>
<g clip-path="url(#clip3)" clip-rule="nonzero">
<path style=" stroke:none;fill-rule:evenodd;fill:rgb(22.099304%,33.615112%,13.729858%);fill-opacity:1;" d="M 138.726562 0.824219 C 139.425781 1.300781 140.121094 1.78125 140.820312 2.253906 C 140.894531 2.304688 140.980469 2.351562 141.070312 2.367188 C 142.796875 2.691406 144.511719 3.136719 146.28125 3.152344 C 148.632812 3.171875 150.984375 3.160156 153.335938 3.1875 C 153.78125 3.195312 154.226562 3.332031 154.671875 3.394531 C 155.089844 3.457031 155.515625 3.503906 156.042969 3.570312 C 156.480469 3.796875 157.011719 4.074219 157.621094 4.386719 C 158.5 5.683594 159.414062 7.058594 160.359375 8.410156 C 160.523438 8.644531 160.777344 8.84375 161.03125 8.976562 C 161.664062 9.304688 162.3125 9.597656 163.019531 9.777344 C 164.234375 10.089844 165.441406 10.449219 166.621094 10.878906 C 167.539062 11.214844 168.410156 11.6875 169.382812 12.136719 C 168.675781 12.605469 167.96875 12.863281 167.230469 12.988281 C 166.546875 13.105469 165.839844 13.207031 165.152344 13.175781 C 163.785156 13.117188 162.507812 13.507812 161.195312 13.765625 C 160.425781 13.914062 159.640625 14.035156 158.855469 14.097656 C 157.367188 14.210938 156.226562 14.820312 155.625 16.238281 C 155.027344 17.640625 154.464844 19.050781 153.878906 20.457031 C 153.746094 20.78125 153.695312 21.089844 153.929688 21.480469 C 154.378906 21.285156 154.8125 21.105469 155.238281 20.910156 C 156.179688 20.472656 157.121094 20.042969 158.046875 19.578125 C 158.371094 19.417969 158.648438 19.175781 158.984375 18.945312 C 159.492188 18.847656 160.054688 18.949219 160.605469 18.625 C 160.902344 18.453125 161.429688 18.636719 161.84375 18.714844 C 162.136719 18.765625 162.410156 18.90625 162.726562 19.019531 C 162.792969 19.261719 162.863281 19.523438 162.960938 19.875 C 162.726562 20.214844 162.507812 20.613281 162.203125 20.941406 C 161.394531 21.824219 160.730469 22.777344 160.226562 23.878906 C 159.546875 25.371094 158.726562 26.796875 157.984375 28.261719 C 157.710938 28.800781 157.449219 29.355469 157.257812 29.929688 C 157 30.679688 156.558594 31.160156 155.765625 31.363281 C 154.671875 31.644531 153.667969 32.140625 152.664062 32.675781 C 151.273438 33.414062 149.8125 34.03125 148.367188 34.667969 C 147.0625 35.242188 145.730469 35.769531 144.414062 36.324219 C 144.21875 36.40625 144.007812 36.488281 143.851562 36.625 C 142.300781 37.980469 140.449219 38.855469 138.691406 39.882812 C 138.351562 40.082031 138.027344 40.308594 137.707031 40.542969 C 137.433594 40.746094 137.164062 40.792969 136.882812 40.589844 C 136.671875 39.550781 137.152344 38.335938 138.464844 36.566406 C 139.410156 36.339844 140.398438 36.90625 141.308594 36.449219 C 141.59375 36.0625 141.910156 35.722656 142.125 35.324219 C 142.425781 34.757812 142.964844 34.535156 143.484375 34.335938 C 144.289062 34.03125 145.058594 33.632812 145.851562 33.34375 C 146.632812 33.0625 147.402344 32.726562 148.199219 32.472656 C 148.847656 32.265625 149.46875 31.992188 150.105469 31.757812 C 150.554688 31.59375 151.019531 31.464844 151.464844 31.285156 C 152.25 30.972656 153.003906 30.558594 153.578125 29.949219 C 154.21875 29.269531 154.953125 28.707031 155.535156 27.941406 C 156.128906 27.15625 156.761719 26.382812 157.3125 25.558594 C 157.714844 24.960938 158.078125 24.332031 158.390625 23.683594 C 158.539062 23.375 158.519531 22.984375 158.5625 22.714844 C 158.234375 22.277344 157.925781 22.257812 157.519531 22.339844 C 156.753906 22.496094 156.109375 22.878906 155.46875 23.296875 C 154.578125 23.878906 153.851562 24.585938 153.519531 25.628906 C 152.953125 27.40625 151.640625 28.496094 150.082031 29.351562 C 148.609375 30.15625 147.082031 30.851562 145.4375 31.214844 C 144.671875 31.386719 143.878906 31.488281 143.089844 31.515625 C 140.4375 31.609375 137.78125 31.664062 135.128906 31.707031 C 133.605469 31.734375 132.089844 31.8125 130.578125 32.042969 C 129.746094 32.171875 129.113281 32.589844 128.488281 33.078125 C 127.507812 33.84375 126.542969 34.632812 125.523438 35.335938 C 124.644531 35.941406 123.671875 36.367188 122.605469 36.582031 C 121.121094 36.882812 119.617188 37.058594 118.117188 37.257812 C 115.835938 37.554688 113.558594 37.601562 111.269531 37.550781 C 109.59375 37.515625 108.113281 38.074219 106.6875 38.882812 C 105.214844 39.714844 103.996094 40.863281 102.707031 41.933594 C 101.304688 43.09375 99.78125 44.113281 98.316406 45.203125 C 97.511719 45.800781 96.703125 46.398438 95.917969 47.023438 C 95.515625 47.347656 95.148438 47.71875 94.792969 48.09375 C 93.953125 48.976562 93.148438 49.890625 92.289062 50.753906 C 91.871094 51.175781 91.359375 51.511719 90.894531 51.886719 C 90.53125 51.917969 90.785156 51.636719 90.710938 51.523438 C 91.332031 50.4375 91.746094 49.269531 92.007812 48.054688 C 92.132812 47.46875 92.40625 47.058594 92.941406 46.789062 C 93.324219 46.601562 93.660156 46.324219 94.046875 46.144531 C 96.222656 45.140625 97.921875 43.535156 99.570312 41.855469 C 101.230469 40.160156 102.894531 38.46875 104.546875 36.765625 C 105.402344 35.886719 106.511719 35.464844 107.613281 35.035156 C 108.804688 34.570312 110.011719 34.152344 111.179688 33.636719 C 112.191406 33.191406 112.953125 32.492188 113.121094 31.296875 C 113.304688 29.980469 112.65625 29.402344 111.457031 29.914062 C 110.316406 30.402344 109.207031 30.390625 108.105469 29.894531 C 107.144531 29.46875 106.5625 28.714844 106.488281 27.648438 C 106.378906 26.082031 107.171875 24.8125 108.542969 24.214844 C 109.667969 23.722656 110.574219 24.277344 110.503906 25.46875 C 110.492188 25.589844 110.5 25.710938 110.5 25.84375 C 109.855469 26.820312 109.058594 27.765625 109.605469 29.085938 C 110.648438 29.449219 111.53125 29.214844 112.199219 28.441406 C 112.691406 27.871094 113.070312 27.199219 113.4375 26.535156 C 114.074219 25.378906 114.933594 24.4375 116.117188 23.882812 C 117.027344 23.460938 118.046875 23.339844 119.050781 23.3125 C 120.667969 23.265625 122.265625 23.449219 123.871094 23.628906 C 126.046875 23.875 128.21875 24.195312 130.425781 24.066406 C 132.621094 23.9375 134.757812 23.515625 136.878906 22.964844 C 138.734375 22.484375 140.550781 21.882812 142.289062 21.089844 C 143.363281 20.601562 144.402344 20.03125 145.40625 19.40625 C 148.359375 17.570312 151.089844 15.429688 153.558594 12.976562 C 154.109375 12.429688 154.535156 11.816406 154.714844 11.039062 C 154.941406 10.027344 154.535156 9.226562 153.554688 9.023438 C 152.632812 8.832031 151.695312 8.699219 150.757812 8.621094 C 147.570312 8.347656 144.410156 7.96875 141.410156 6.753906 C 140.304688 6.308594 139.492188 5.488281 138.683594 4.664062 C 138.378906 4.355469 138.117188 4 137.835938 3.667969 C 137.875 3.621094 137.914062 3.578125 137.957031 3.535156 C 138.078125 3.597656 138.207031 3.652344 138.316406 3.730469 C 138.882812 4.140625 139.429688 4.578125 140.011719 4.964844 C 141.589844 6.011719 143.386719 6.484375 145.21875 6.789062 C 146.804688 7.058594 148.414062 7.175781 150.011719 7.367188 C 150.828125 7.464844 151.640625 7.578125 152.457031 7.679688 C 152.574219 7.695312 152.699219 7.707031 152.820312 7.714844 C 154.015625 7.777344 154.363281 7.515625 154.65625 6.320312 C 154.550781 5.230469 153.839844 4.570312 152.246094 4.429688 C 150.367188 4.261719 148.484375 4.171875 146.605469 4.035156 C 144.691406 3.898438 142.78125 3.65625 140.96875 3.03125 C 139.9375 2.671875 139.085938 1.953125 138.726562 0.824219 "/>
</g>
<g clip-path="url(#clip4)" clip-rule="nonzero">
<path style=" stroke:none;fill-rule:evenodd;fill:rgb(100%,100%,100%);fill-opacity:1;" d="M 138.171875 -0.00390625 C 138.871094 0.472656 139.566406 0.949219 140.265625 1.425781 C 140.34375 1.476562 140.429688 1.519531 140.515625 1.535156 C 142.242188 1.859375 143.957031 2.304688 145.730469 2.320312 C 148.078125 2.34375 150.433594 2.332031 152.78125 2.359375 C 153.230469 2.363281 153.671875 2.5 154.117188 2.566406 C 154.539062 2.628906 154.960938 2.671875 155.488281 2.738281 C 155.925781 2.964844 156.460938 3.242188 157.070312 3.558594 C 157.945312 4.851562 158.863281 6.226562 159.808594 7.582031 C 159.96875 7.8125 160.226562 8.011719 160.480469 8.144531 C 161.113281 8.476562 161.757812 8.769531 162.464844 8.949219 C 163.679688 9.257812 164.890625 9.617188 166.066406 10.050781 C 166.988281 10.386719 167.855469 10.859375 168.828125 11.308594 C 168.121094 11.777344 167.414062 12.03125 166.675781 12.160156 C 165.992188 12.277344 165.285156 12.378906 164.597656 12.347656 C 163.230469 12.285156 161.953125 12.679688 160.644531 12.933594 C 159.871094 13.085938 159.089844 13.207031 158.304688 13.265625 C 156.8125 13.378906 155.671875 13.992188 155.070312 15.410156 C 154.476562 16.808594 153.910156 18.222656 153.324219 19.625 C 153.191406 19.949219 153.140625 20.257812 153.378906 20.652344 C 153.824219 20.457031 154.257812 20.277344 154.683594 20.078125 C 155.625 19.644531 156.566406 19.210938 157.496094 18.75 C 157.816406 18.589844 158.097656 18.347656 158.429688 18.117188 C 158.9375 18.015625 159.503906 18.117188 160.050781 17.796875 C 160.347656 17.625 160.875 17.808594 161.289062 17.882812 C 161.582031 17.9375 161.855469 18.078125 162.171875 18.191406 C 162.238281 18.433594 162.3125 18.695312 162.40625 19.042969 C 162.171875 19.382812 161.953125 19.785156 161.652344 20.113281 C 160.84375 20.992188 160.179688 21.949219 159.675781 23.050781 C 158.992188 24.539062 158.175781 25.96875 157.433594 27.429688 C 157.160156 27.972656 156.898438 28.527344 156.703125 29.097656 C 156.445312 29.851562 156.003906 30.332031 155.210938 30.535156 C 154.117188 30.816406 153.113281 31.3125 152.113281 31.84375 C 150.722656 32.585938 149.261719 33.199219 147.8125 33.835938 C 146.507812 34.410156 145.179688 34.9375 143.859375 35.492188 C 143.664062 35.574219 143.457031 35.660156 143.300781 35.796875 C 141.746094 37.152344 139.894531 38.023438 138.140625 39.050781 C 137.800781 39.25 137.472656 39.480469 137.15625 39.710938 C 136.878906 39.914062 136.609375 39.964844 136.328125 39.757812 C 136.121094 38.71875 136.601562 37.503906 137.910156 35.738281 C 138.855469 35.507812 139.847656 36.078125 140.753906 35.621094 C 141.042969 35.230469 141.359375 34.890625 141.570312 34.496094 C 141.871094 33.929688 142.410156 33.707031 142.933594 33.507812 C 143.734375 33.199219 144.503906 32.804688 145.296875 32.515625 C 146.078125 32.230469 146.851562 31.898438 147.648438 31.644531 C 148.292969 31.4375 148.914062 31.164062 149.550781 30.929688 C 150.003906 30.761719 150.46875 30.636719 150.910156 30.457031 C 151.695312 30.140625 152.449219 29.730469 153.027344 29.117188 C 153.664062 28.441406 154.398438 27.878906 154.980469 27.113281 C 155.574219 26.324219 156.207031 25.554688 156.757812 24.730469 C 157.160156 24.128906 157.527344 23.503906 157.835938 22.851562 C 157.984375 22.542969 157.964844 22.15625 158.007812 21.886719 C 157.683594 21.445312 157.371094 21.429688 156.96875 21.511719 C 156.199219 21.667969 155.554688 22.050781 154.914062 22.46875 C 154.027344 23.050781 153.300781 23.757812 152.96875 24.796875 C 152.398438 26.574219 151.085938 27.667969 149.527344 28.519531 C 148.054688 29.324219 146.53125 30.019531 144.886719 30.386719 C 144.117188 30.558594 143.324219 30.660156 142.535156 30.6875 C 139.882812 30.777344 137.230469 30.835938 134.574219 30.878906 C 133.050781 30.902344 131.535156 30.980469 130.027344 31.214844 C 129.191406 31.34375 128.5625 31.757812 127.933594 32.25 C 126.953125 33.011719 125.988281 33.800781 124.96875 34.503906 C 124.09375 35.109375 123.117188 35.539062 122.054688 35.753906 C 120.566406 36.050781 119.066406 36.230469 117.5625 36.425781 C 115.28125 36.726562 113.003906 36.773438 110.71875 36.722656 C 109.042969 36.6875 107.558594 37.246094 106.136719 38.050781 C 104.664062 38.882812 103.441406 40.03125 102.152344 41.101562 C 100.75 42.265625 99.230469 43.285156 97.765625 44.371094 C 96.957031 44.96875 96.152344 45.566406 95.367188 46.195312 C 94.964844 46.515625 94.59375 46.890625 94.238281 47.265625 C 93.398438 48.144531 92.59375 49.0625 91.738281 49.925781 C 91.316406 50.347656 90.808594 50.683594 90.339844 51.058594 C 89.976562 51.085938 90.230469 50.808594 90.15625 50.691406 C 90.777344 49.609375 91.191406 48.441406 91.453125 47.222656 C 91.582031 46.640625 91.855469 46.230469 92.390625 45.960938 C 92.769531 45.769531 93.109375 45.492188 93.492188 45.316406 C 95.667969 44.3125 97.367188 42.703125 99.015625 41.027344 C 100.679688 39.332031 102.339844 37.636719 103.996094 35.9375 C 104.851562 35.058594 105.957031 34.636719 107.0625 34.203125 C 108.25 33.738281 109.460938 33.320312 110.628906 32.808594 C 111.636719 32.363281 112.402344 31.660156 112.566406 30.46875 C 112.75 29.152344 112.101562 28.570312 110.902344 29.085938 C 109.765625 29.570312 108.652344 29.558594 107.550781 29.066406 C 106.59375 28.636719 106.011719 27.886719 105.9375 26.816406 C 105.824219 25.25 106.617188 23.984375 107.988281 23.382812 C 109.113281 22.894531 110.023438 23.449219 109.949219 24.636719 C 109.941406 24.757812 109.945312 24.878906 109.945312 25.011719 C 109.300781 25.988281 108.507812 26.933594 109.054688 28.253906 C 110.09375 28.621094 110.980469 28.386719 111.644531 27.609375 C 112.136719 27.042969 112.519531 26.367188 112.882812 25.703125 C 113.519531 24.550781 114.382812 23.609375 115.566406 23.054688 C 116.472656 22.628906 117.492188 22.511719 118.496094 22.484375 C 120.113281 22.4375 121.714844 22.621094 123.320312 22.800781 C 125.492188 23.042969 127.664062 23.363281 129.871094 23.234375 C 132.070312 23.105469 134.203125 22.683594 136.324219 22.136719 C 138.183594 21.65625 139.996094 21.054688 141.738281 20.257812 C 142.808594 19.769531 143.851562 19.199219 144.851562 18.578125 C 147.808594 16.738281 150.535156 14.601562 153.007812 12.144531 C 153.558594 11.597656 153.984375 10.988281 154.160156 10.210938 C 154.390625 9.199219 153.980469 8.398438 153 8.195312 C 152.078125 8.003906 151.144531 7.871094 150.203125 7.789062 C 147.019531 7.519531 143.855469 7.140625 140.859375 5.925781 C 139.75 5.476562 138.9375 4.660156 138.128906 3.835938 C 137.824219 3.523438 137.5625 3.171875 137.28125 2.835938 C 137.320312 2.792969 137.363281 2.75 137.402344 2.703125 C 137.523438 2.769531 137.652344 2.820312 137.765625 2.902344 C 138.328125 3.308594 138.878906 3.746094 139.457031 4.132812 C 141.035156 5.179688 142.832031 5.652344 144.664062 5.960938 C 146.25 6.226562 147.859375 6.347656 149.460938 6.539062 C 150.273438 6.632812 151.089844 6.746094 151.902344 6.851562 C 152.023438 6.867188 152.144531 6.875 152.265625 6.882812 C 153.460938 6.949219 153.808594 6.683594 154.105469 5.492188 C 153.996094 4.402344 153.285156 3.742188 151.695312 3.597656 C 149.816406 3.429688 147.929688 3.34375 146.050781 3.207031 C 144.136719 3.066406 142.230469 2.828125 140.417969 2.199219 C 139.382812 1.84375 138.53125 1.125 138.171875 -0.00390625 "/>
</g>
<path style=" stroke:none;fill-rule:nonzero;fill:rgb(99.491882%,99.659729%,99.719238%);fill-opacity:1;" d="M 9.828125 20.589844 L 9.007812 24.140625 L 10.015625 24.140625 C 11.382812 24.140625 12.203125 23.542969 12.480469 22.347656 C 12.75 21.175781 12.203125 20.589844 10.835938 20.589844 Z M 8.558594 26.085938 L 7.652344 30.007812 L 5.089844 30.007812 L 7.71875 18.621094 L 11.734375 18.621094 C 14.605469 18.621094 15.761719 19.832031 15.203125 22.25 C 14.9375 23.394531 14.3125 24.320312 13.328125 25.027344 C 12.339844 25.730469 11.160156 26.085938 9.78125 26.085938 L 8.558594 26.085938 "/>
<path style=" stroke:none;fill-rule:nonzero;fill:rgb(99.491882%,99.659729%,99.719238%);fill-opacity:1;" d="M 21.492188 24.140625 C 21.226562 23.976562 20.894531 23.894531 20.492188 23.894531 C 19.945312 23.894531 19.472656 24.09375 19.074219 24.492188 C 18.675781 24.894531 18.398438 25.4375 18.238281 26.125 L 17.339844 30.007812 L 14.832031 30.007812 L 16.710938 21.878906 L 19.21875 21.878906 L 18.871094 23.386719 L 18.902344 23.386719 C 19.550781 22.285156 20.394531 21.734375 21.425781 21.734375 C 21.691406 21.734375 21.890625 21.765625 22.023438 21.828125 L 21.492188 24.140625 "/>
<path style=" stroke:none;fill-rule:nonzero;fill:rgb(99.491882%,99.659729%,99.719238%);fill-opacity:1;" d="M 27.410156 25.117188 C 27.679688 23.953125 27.34375 23.371094 26.402344 23.371094 C 26 23.371094 25.613281 23.535156 25.242188 23.871094 C 24.871094 24.203125 24.597656 24.621094 24.417969 25.117188 Z M 29.382812 26.65625 L 24.078125 26.65625 C 23.890625 27.835938 24.496094 28.429688 25.902344 28.429688 C 26.792969 28.429688 27.628906 28.214844 28.40625 27.792969 L 27.988281 29.601562 C 27.144531 30.003906 26.121094 30.207031 24.917969 30.207031 C 23.605469 30.207031 22.667969 29.84375 22.113281 29.113281 C 21.554688 28.386719 21.425781 27.371094 21.726562 26.070312 C 22.039062 24.71875 22.679688 23.652344 23.644531 22.863281 C 24.609375 22.074219 25.664062 21.679688 26.808594 21.679688 C 27.992188 21.679688 28.828125 22.03125 29.316406 22.734375 C 29.800781 23.4375 29.90625 24.394531 29.625 25.601562 L 29.382812 26.65625 "/>
<path style=" stroke:none;fill-rule:nonzero;fill:rgb(99.491882%,99.659729%,99.719238%);fill-opacity:1;" d="M 36.332031 29.714844 C 35.6875 30.042969 34.832031 30.207031 33.765625 30.207031 C 32.515625 30.207031 31.589844 29.828125 30.992188 29.070312 C 30.394531 28.3125 30.234375 27.335938 30.511719 26.140625 C 30.828125 24.757812 31.492188 23.671875 32.507812 22.875 C 33.519531 22.078125 34.71875 21.679688 36.105469 21.679688 C 37.0625 21.679688 37.726562 21.804688 38.097656 22.058594 L 37.605469 24.1875 C 37.171875 23.796875 36.632812 23.601562 35.988281 23.601562 C 35.269531 23.601562 34.648438 23.8125 34.132812 24.230469 C 33.613281 24.652344 33.269531 25.234375 33.097656 25.972656 C 32.929688 26.695312 33 27.257812 33.308594 27.667969 C 33.617188 28.078125 34.121094 28.285156 34.828125 28.285156 C 35.453125 28.285156 36.109375 28.089844 36.796875 27.699219 L 36.332031 29.714844 "/>
<path style=" stroke:none;fill-rule:nonzero;fill:rgb(99.491882%,99.659729%,99.719238%);fill-opacity:1;" d="M 40.414062 30.007812 L 37.90625 30.007812 L 39.785156 21.878906 L 42.292969 21.878906 Z M 41.351562 20.589844 C 40.925781 20.589844 40.609375 20.464844 40.398438 20.214844 C 40.1875 19.960938 40.121094 19.652344 40.207031 19.289062 C 40.292969 18.914062 40.5 18.605469 40.824219 18.367188 C 41.148438 18.128906 41.523438 18.011719 41.945312 18.011719 C 42.375 18.011719 42.695312 18.128906 42.910156 18.367188 C 43.121094 18.605469 43.183594 18.914062 43.097656 19.289062 C 43.007812 19.667969 42.804688 19.980469 42.480469 20.226562 C 42.15625 20.46875 41.78125 20.589844 41.351562 20.589844 "/>
<path style=" stroke:none;fill-rule:nonzero;fill:rgb(99.491882%,99.659729%,99.719238%);fill-opacity:1;" d="M 42.046875 29.792969 L 42.515625 27.761719 C 42.871094 28.011719 43.238281 28.195312 43.621094 28.316406 C 44.003906 28.4375 44.378906 28.5 44.742188 28.5 C 45.1875 28.5 45.550781 28.4375 45.835938 28.316406 C 46.121094 28.195312 46.292969 28.011719 46.351562 27.761719 C 46.386719 27.601562 46.359375 27.46875 46.265625 27.363281 C 46.175781 27.257812 46.046875 27.164062 45.882812 27.085938 C 45.71875 27.007812 45.535156 26.933594 45.332031 26.871094 C 45.128906 26.808594 44.9375 26.738281 44.753906 26.65625 C 44.460938 26.535156 44.207031 26.40625 43.992188 26.265625 C 43.777344 26.125 43.609375 25.960938 43.484375 25.777344 C 43.359375 25.589844 43.285156 25.375 43.253906 25.132812 C 43.222656 24.890625 43.242188 24.601562 43.320312 24.265625 C 43.425781 23.8125 43.617188 23.421875 43.890625 23.09375 C 44.164062 22.765625 44.492188 22.496094 44.871094 22.285156 C 45.25 22.078125 45.664062 21.921875 46.113281 21.824219 C 46.5625 21.726562 47.015625 21.679688 47.476562 21.679688 C 47.835938 21.679688 48.195312 21.707031 48.550781 21.761719 C 48.910156 21.816406 49.257812 21.898438 49.59375 22.003906 L 49.144531 23.941406 C 48.871094 23.757812 48.5625 23.617188 48.222656 23.523438 C 47.878906 23.433594 47.535156 23.386719 47.183594 23.386719 C 47.019531 23.386719 46.863281 23.402344 46.710938 23.429688 C 46.558594 23.457031 46.421875 23.5 46.296875 23.558594 C 46.171875 23.613281 46.070312 23.683594 45.984375 23.769531 C 45.902344 23.859375 45.847656 23.957031 45.820312 24.070312 C 45.785156 24.21875 45.804688 24.34375 45.875 24.449219 C 45.945312 24.554688 46.050781 24.648438 46.183594 24.722656 C 46.320312 24.800781 46.476562 24.871094 46.648438 24.929688 C 46.824219 24.992188 46.996094 25.054688 47.167969 25.117188 C 47.472656 25.234375 47.746094 25.359375 47.984375 25.5 C 48.222656 25.636719 48.417969 25.796875 48.566406 25.984375 C 48.71875 26.167969 48.816406 26.382812 48.859375 26.632812 C 48.90625 26.882812 48.890625 27.179688 48.8125 27.523438 C 48.699219 28.003906 48.5 28.417969 48.210938 28.757812 C 47.925781 29.097656 47.582031 29.378906 47.1875 29.589844 C 46.789062 29.804688 46.355469 29.960938 45.878906 30.058594 C 45.402344 30.15625 44.921875 30.207031 44.433594 30.207031 C 43.539062 30.207031 42.742188 30.070312 42.046875 29.792969 "/>
<path style=" stroke:none;fill-rule:nonzero;fill:rgb(99.491882%,99.659729%,99.719238%);fill-opacity:1;" d="M 52.191406 30.007812 L 49.683594 30.007812 L 51.558594 21.878906 L 54.070312 21.878906 Z M 53.128906 20.589844 C 52.703125 20.589844 52.386719 20.464844 52.171875 20.214844 C 51.960938 19.960938 51.898438 19.652344 51.980469 19.289062 C 52.070312 18.914062 52.273438 18.605469 52.601562 18.367188 C 52.925781 18.128906 53.296875 18.011719 53.722656 18.011719 C 54.152344 18.011719 54.472656 18.128906 54.683594 18.367188 C 54.898438 18.605469 54.960938 18.914062 54.871094 19.289062 C 54.785156 19.667969 54.578125 19.980469 54.257812 20.226562 C 53.929688 20.46875 53.554688 20.589844 53.128906 20.589844 "/>
<path style=" stroke:none;fill-rule:nonzero;fill:rgb(99.491882%,99.659729%,99.719238%);fill-opacity:1;" d="M 59.722656 23.601562 C 59.128906 23.601562 58.621094 23.804688 58.199219 24.210938 C 57.777344 24.621094 57.476562 25.195312 57.304688 25.941406 C 56.945312 27.503906 57.394531 28.285156 58.65625 28.285156 C 59.855469 28.285156 60.644531 27.484375 61.015625 25.878906 C 61.363281 24.359375 60.933594 23.601562 59.722656 23.601562 Z M 58.132812 30.207031 C 56.777344 30.207031 55.800781 29.828125 55.199219 29.066406 C 54.597656 28.308594 54.449219 27.277344 54.75 25.972656 C 55.058594 24.628906 55.707031 23.578125 56.6875 22.816406 C 57.664062 22.058594 58.84375 21.679688 60.214844 21.679688 C 61.5625 21.679688 62.53125 22.058594 63.125 22.816406 C 63.71875 23.578125 63.871094 24.582031 63.582031 25.832031 C 63.269531 27.179688 62.628906 28.25 61.65625 29.03125 C 60.683594 29.816406 59.507812 30.207031 58.132812 30.207031 "/>
<path style=" stroke:none;fill-rule:nonzero;fill:rgb(99.491882%,99.659729%,99.719238%);fill-opacity:1;" d="M 72.097656 30.007812 L 69.597656 30.007812 L 70.640625 25.488281 C 70.929688 24.230469 70.625 23.601562 69.726562 23.601562 C 69.292969 23.601562 68.898438 23.765625 68.539062 24.101562 C 68.179688 24.433594 67.945312 24.859375 67.824219 25.371094 L 66.753906 30.007812 L 64.246094 30.007812 L 66.121094 21.878906 L 68.632812 21.878906 L 68.335938 23.164062 L 68.367188 23.164062 C 69.191406 22.175781 70.175781 21.679688 71.320312 21.679688 C 73.121094 21.679688 73.761719 22.796875 73.246094 25.03125 L 72.097656 30.007812 "/>
<path style=" stroke:none;fill-rule:nonzero;fill:rgb(97.460938%,64.787292%,9.367371%);fill-opacity:1;" d="M 81.1875 25.507812 L 80.847656 21.679688 C 80.824219 21.394531 80.839844 21.050781 80.894531 20.65625 L 80.832031 20.65625 C 80.726562 20.988281 80.585938 21.320312 80.40625 21.648438 L 78.273438 25.507812 Z M 84.34375 30.007812 L 81.546875 30.007812 L 81.324219 27.476562 L 77.273438 27.476562 L 75.886719 30.007812 L 73.105469 30.007812 L 79.878906 18.621094 L 82.921875 18.621094 L 84.34375 30.007812 "/>
<path style=" stroke:none;fill-rule:nonzero;fill:rgb(97.460938%,64.787292%,9.367371%);fill-opacity:1;" d="M 88.027344 30.007812 L 85.519531 30.007812 L 87.394531 21.878906 L 89.902344 21.878906 Z M 88.960938 20.589844 C 88.539062 20.589844 88.21875 20.464844 88.007812 20.214844 C 87.796875 19.960938 87.730469 19.652344 87.816406 19.289062 C 87.90625 18.914062 88.109375 18.605469 88.433594 18.367188 C 88.761719 18.128906 89.132812 18.011719 89.558594 18.011719 C 89.984375 18.011719 90.304688 18.128906 90.519531 18.367188 C 90.730469 18.605469 90.792969 18.914062 90.707031 19.289062 C 90.617188 19.667969 90.414062 19.980469 90.089844 20.226562 C 89.765625 20.46875 89.390625 20.589844 88.960938 20.589844 "/>
<path style=" stroke:none;fill-rule:nonzero;fill:rgb(97.460938%,64.787292%,9.367371%);fill-opacity:1;" d="M 96.796875 24.140625 C 96.53125 23.976562 96.199219 23.894531 95.796875 23.894531 C 95.253906 23.894531 94.78125 24.09375 94.382812 24.492188 C 93.980469 24.894531 93.703125 25.4375 93.542969 26.125 L 92.648438 30.007812 L 90.140625 30.007812 L 92.015625 21.878906 L 94.523438 21.878906 L 94.175781 23.386719 L 94.207031 23.386719 C 94.859375 22.285156 95.703125 21.734375 96.734375 21.734375 C 96.996094 21.734375 97.199219 21.765625 97.332031 21.828125 L 96.796875 24.140625 "/>
</g>
</svg>
