<svg xmlns="http://www.w3.org/2000/svg" width="176pt" height="69.187" viewBox="0 0 176 51.89"><defs><clipPath id="a"><path d="M76 0h100v51.89H76Zm0 0"/></clipPath><clipPath id="b"><path d="M0 0h155v51.89H0Zm0 0"/></clipPath><clipPath id="c"><path d="M90 0h80v51.89H90Zm0 0"/></clipPath><clipPath id="d"><path d="M90 0h79v51.89H90Zm0 0"/></clipPath></defs><g clip-path="url(#a)"><path d="M176 51.402H76v-51h100z" style="stroke:none;fill-rule:nonzero;fill:#f9a518;fill-opacity:1"/></g><g clip-path="url(#b)"><path d="M90.34 51.402H0v-51h138.172l2.469 1.868 14.285 1.253-.79 11.387-46.503 20.399-12.77 10.707z" style="stroke:none;fill-rule:nonzero;fill:#385623;fill-opacity:1"/></g><g clip-path="url(#c)"><path d="M138.727.824c.699.477 1.394.957 2.093 1.43a.7.7 0 0 0 .25.113c1.727.324 3.442.77 5.211.785 2.352.02 4.703.008 7.055.035.445.008.89.145 1.336.208.418.062.844.109 1.371.175.437.227.969.504 1.578.817.879 1.297 1.793 2.672 2.738 4.023.164.235.418.434.672.567.633.328 1.281.62 1.989.8a39 39 0 0 1 3.601 1.102c.918.336 1.79.809 2.762 1.258a5.45 5.45 0 0 1-2.153.851c-.683.117-1.39.219-2.078.188-1.367-.059-2.644.332-3.957.59-.77.148-1.554.27-2.34.332-1.488.113-2.628.722-3.23 2.14-.598 1.403-1.16 2.813-1.746 4.219-.133.324-.184.633.05 1.023.45-.195.883-.375 1.31-.57.94-.437 1.882-.867 2.808-1.332.324-.16.601-.402.937-.633.508-.097 1.07.004 1.621-.32.297-.172.825.012 1.239.09.293.05.566.191.883.305.066.242.136.503.234.855-.234.34-.453.738-.758 1.066-.808.883-1.473 1.836-1.976 2.938-.68 1.492-1.5 2.918-2.243 4.383-.273.539-.535 1.093-.726 1.668-.258.75-.7 1.23-1.492 1.433-1.094.282-2.098.778-3.102 1.313-1.39.738-2.851 1.355-4.297 1.992-1.304.574-2.637 1.102-3.953 1.656-.195.082-.406.164-.562.301-1.551 1.355-3.403 2.23-5.16 3.258-.34.199-.665.426-.985.66-.273.203-.543.25-.824.047-.211-1.04.27-2.254 1.582-4.024.945-.226 1.933.34 2.844-.117.285-.386.601-.726.816-1.125.3-.566.84-.789 1.36-.988.804-.305 1.574-.703 2.367-.992.78-.282 1.55-.617 2.347-.871.649-.207 1.27-.48 1.906-.715.45-.164.915-.293 1.36-.473.785-.312 1.539-.726 2.113-1.336.64-.68 1.375-1.242 1.957-2.008.594-.785 1.227-1.558 1.778-2.382a15 15 0 0 0 1.078-1.875c.148-.309.129-.7.172-.97-.329-.437-.637-.456-1.043-.374-.766.156-1.41.539-2.051.957-.89.582-1.617 1.289-1.95 2.332-.566 1.777-1.878 2.867-3.437 3.723-1.473.804-3 1.5-4.644 1.863-.766.172-1.56.273-2.348.3-2.653.094-5.309.15-7.961.192-1.524.027-3.04.105-4.55.336-.833.129-1.466.547-2.09 1.035-.981.766-1.946 1.555-2.966 2.258a7.8 7.8 0 0 1-2.918 1.246c-1.484.3-2.988.477-4.488.676-2.281.297-4.558.344-6.847.293-1.676-.035-3.157.523-4.582 1.332-1.473.832-2.692 1.98-3.981 3.05-1.402 1.16-2.926 2.18-4.39 3.27-.805.598-1.614 1.195-2.399 1.82-.402.325-.77.696-1.125 1.07-.84.884-1.645 1.798-2.504 2.66-.418.423-.93.759-1.394 1.134-.364.031-.11-.25-.184-.364.621-1.086 1.035-2.253 1.297-3.468.125-.586.398-.996.933-1.266.383-.187.72-.465 1.106-.644 2.176-1.004 3.875-2.61 5.523-4.29 1.66-1.695 3.325-3.386 4.977-5.09.855-.878 1.965-1.3 3.066-1.73 1.192-.465 2.399-.883 3.567-1.398 1.011-.446 1.773-1.145 1.941-2.34.184-1.317-.465-1.895-1.664-1.383-1.14.488-2.25.477-3.352-.02-.96-.425-1.543-1.18-1.617-2.246-.11-1.566.684-2.835 2.055-3.433 1.125-.492 2.031.062 1.96 1.254-.01.12-.003.242-.003.375-.645.976-1.441 1.922-.895 3.242 1.043.363 1.926.129 2.594-.645.492-.57.871-1.242 1.239-1.906.636-1.156 1.496-2.097 2.68-2.652.91-.422 1.929-.543 2.933-.57 1.617-.047 3.215.136 4.82.316 2.176.246 4.348.566 6.555.437 2.195-.128 4.332-.55 6.453-1.101 1.855-.48 3.672-1.082 5.41-1.875a27 27 0 0 0 3.117-1.684 46 46 0 0 0 8.153-6.43c.55-.546.976-1.16 1.156-1.937.226-1.012-.18-1.812-1.16-2.016a23 23 0 0 0-2.797-.402c-3.188-.273-6.348-.652-9.348-1.867-1.105-.445-1.918-1.266-2.726-2.09-.305-.309-.567-.664-.848-.996q.057-.07.121-.133c.121.063.25.117.36.195.566.41 1.113.848 1.695 1.235 1.578 1.047 3.375 1.52 5.207 1.824 1.586.27 3.195.387 4.793.578.816.098 1.629.211 2.445.313.117.015.242.027.363.035 1.196.062 1.543-.2 1.836-1.395-.105-1.09-.816-1.75-2.41-1.89-1.879-.168-3.762-.258-5.64-.395-1.915-.137-3.825-.379-5.637-1.004-1.031-.36-1.883-1.078-2.242-2.207" style="stroke:none;fill-rule:evenodd;fill:#385623;fill-opacity:1"/></g><g clip-path="url(#d)"><path d="m138.172-.004 2.094 1.43c.078.05.164.094.25.11 1.726.323 3.441.769 5.214.784 2.348.024 4.704.012 7.051.04.45.003.89.14 1.336.206.422.063.844.106 1.371.172l1.582.82c.875 1.294 1.793 2.669 2.739 4.024.16.23.418.43.671.563.633.332 1.278.625 1.985.804a36 36 0 0 1 3.601 1.102c.922.336 1.79.808 2.762 1.258a5.5 5.5 0 0 1-2.152.851c-.684.117-1.39.219-2.078.188-1.368-.063-2.645.332-3.953.586-.774.152-1.555.273-2.34.332-1.493.113-2.633.726-3.235 2.144-.593 1.399-1.16 2.813-1.746 4.215-.133.324-.183.633.055 1.027.445-.195.879-.375 1.305-.574.941-.433 1.882-.867 2.812-1.328.32-.16.602-.402.934-.633.507-.101 1.074 0 1.62-.32.298-.172.825.012 1.24.086.292.055.565.195.882.308.066.243.14.504.234.852-.234.34-.453.742-.754 1.07a11.2 11.2 0 0 0-1.976 2.938c-.684 1.488-1.5 2.918-2.242 4.379-.274.543-.536 1.097-.73 1.668-.259.754-.7 1.234-1.493 1.437-1.094.281-2.098.777-3.098 1.309-1.39.742-2.851 1.355-4.3 1.992-1.305.574-2.633 1.102-3.954 1.656-.195.082-.402.168-.558.305-1.555 1.355-3.406 2.226-5.16 3.254-.34.199-.668.43-.985.66-.277.203-.547.254-.828.047-.207-1.04.274-2.254 1.582-4.02.945-.23 1.938.34 2.844-.117.289-.39.605-.73.816-1.125.301-.566.84-.789 1.364-.988.8-.309 1.57-.703 2.363-.992.781-.286 1.555-.618 2.351-.871.645-.207 1.266-.48 1.903-.715.453-.168.918-.293 1.36-.473.784-.316 1.538-.727 2.116-1.34.637-.676 1.371-1.238 1.953-2.004.594-.789 1.227-1.558 1.778-2.383.402-.601.77-1.226 1.078-1.878.148-.309.129-.696.172-.965-.324-.442-.637-.457-1.04-.375-.769.156-1.413.539-2.054.957-.887.582-1.613 1.289-1.945 2.328-.57 1.777-1.883 2.871-3.442 3.723-1.472.804-2.996 1.5-4.64 1.867-.77.172-1.563.273-2.352.3-2.652.09-5.305.149-7.96.192-1.524.023-3.04.101-4.548.336-.836.129-1.464.543-2.093 1.035-.98.762-1.946 1.55-2.965 2.254a7.8 7.8 0 0 1-2.914 1.25c-1.489.297-2.989.476-4.493.672-2.28.3-4.558.347-6.843.297-1.676-.035-3.16.523-4.582 1.328-1.473.832-2.696 1.98-3.985 3.05-1.402 1.165-2.922 2.184-4.386 3.27a78 78 0 0 0-2.399 1.824c-.402.32-.773.696-1.129 1.07-.84.88-1.644 1.797-2.5 2.66-.422.423-.93.759-1.398 1.134-.363.027-.11-.25-.184-.368.621-1.082 1.035-2.25 1.297-3.468.129-.582.402-.993.938-1.262.379-.191.718-.469 1.101-.645 2.176-1.004 3.875-2.613 5.524-4.289q2.496-2.541 4.98-5.09c.856-.878 1.961-1.3 3.067-1.734 1.187-.465 2.398-.883 3.566-1.394 1.008-.446 1.773-1.149 1.937-2.34.184-1.317-.464-1.899-1.664-1.383-1.136.484-2.25.473-3.351-.02-.957-.43-1.54-1.18-1.614-2.25-.113-1.566.68-2.832 2.051-3.433 1.125-.488 2.035.066 1.961 1.254-.008.12-.004.242-.004.375-.644.976-1.437 1.922-.89 3.242 1.039.367 1.925.133 2.59-.645.492-.566.875-1.242 1.238-1.906.637-1.152 1.5-2.094 2.683-2.648.907-.426 1.926-.543 2.93-.57 1.617-.047 3.219.136 4.824.316 2.172.242 4.344.562 6.551.433 2.2-.129 4.332-.55 6.453-1.097 1.86-.48 3.672-1.082 5.414-1.88a28 28 0 0 0 3.114-1.679 46 46 0 0 0 8.156-6.433c.55-.547.976-1.157 1.152-1.934.23-1.012-.18-1.813-1.16-2.016a24 24 0 0 0-2.797-.406c-3.183-.27-6.348-.648-9.344-1.863-1.109-.45-1.922-1.266-2.73-2.09-.305-.313-.566-.664-.848-1q.061-.063.121-.133c.121.067.25.117.364.2.562.406 1.113.843 1.691 1.23 1.578 1.047 3.375 1.52 5.207 1.828 1.586.266 3.195.387 4.797.578.812.094 1.629.207 2.441.313q.182.021.364.03c1.195.067 1.543-.198 1.84-1.39-.11-1.09-.82-1.75-2.41-1.894-1.88-.168-3.766-.254-5.645-.391-1.914-.14-3.82-.379-5.633-1.008-1.035-.355-1.887-1.074-2.246-2.203" style="stroke:none;fill-rule:evenodd;fill:#fff;fill-opacity:1"/></g><path d="m9.828 20.59-.82 3.55h1.008q2.05 0 2.464-1.792.406-1.758-1.644-1.758Zm-1.27 5.496-.906 3.922H5.09L7.719 18.62h4.015q4.307.001 3.47 3.629-.4 1.717-1.876 2.777c-.988.703-2.168 1.059-3.547 1.059zM21.492 24.14q-.397-.245-1-.245-.82 0-1.418.597-.596.603-.836 1.633l-.898 3.883h-2.508l1.879-8.13h2.508l-.348 1.509h.031q.976-1.653 2.524-1.653.398 0 .597.094zM27.41 25.117q.405-1.746-1.008-1.746-.603-.002-1.16.5a3 3 0 0 0-.824 1.246Zm1.973 1.54h-5.305c-.187 1.179.418 1.773 1.824 1.773q1.337-.002 2.504-.637l-.418 1.809q-1.265.604-3.07.605-1.971.001-2.805-1.094-.837-1.09-.386-3.043.47-2.025 1.918-3.207 1.447-1.183 3.164-1.183 1.776 0 2.507 1.054.729 1.055.309 2.868zM36.332 29.715q-.967.492-2.566.492-1.876 0-2.774-1.137-.896-1.136-.48-2.93.473-2.071 1.996-3.265 1.517-1.195 3.597-1.195 1.437-.001 1.993.379l-.493 2.128q-.65-.585-1.617-.585c-.718 0-1.34.21-1.855.628q-.779.634-1.035 1.743-.252 1.081.21 1.695c.31.41.813.617 1.52.617q.937 0 1.969-.586zM40.414 30.008h-2.508l1.88-8.13h2.507Zm.938-9.418q-.638 0-.954-.375c-.21-.254-.277-.563-.191-.926q.13-.564.617-.922.488-.356 1.121-.355.644-.001.965.355.317.358.188.922c-.09.379-.293.691-.618.938q-.485.363-1.128.363M42.047 29.793l.469-2.031q.532.374 1.105.554.575.184 1.121.184.668 0 1.094-.184.428-.18.516-.554.053-.24-.086-.399a1.1 1.1 0 0 0-.383-.277 4 4 0 0 0-.551-.215 5 5 0 0 1-.578-.215 4.6 4.6 0 0 1-.762-.39 1.8 1.8 0 0 1-.508-.489 1.5 1.5 0 0 1-.23-.644 2.5 2.5 0 0 1 .066-.867 2.8 2.8 0 0 1 .57-1.172q.412-.492.981-.809a4.6 4.6 0 0 1 1.242-.46q.674-.146 1.364-.145a7 7 0 0 1 2.117.324l-.45 1.937a3.2 3.2 0 0 0-.921-.418 4 4 0 0 0-1.04-.136q-.244 0-.472.043-.228.04-.414.129a1 1 0 0 0-.313.21.7.7 0 0 0-.164.301.46.46 0 0 0 .055.38c.07.105.176.198.309.273q.206.118.464.207.263.094.52.187.458.174.816.383.36.205.582.484.229.275.293.649.071.375-.047.89c-.113.48-.312.895-.601 1.235-.285.34-.629.62-1.023.832a4.7 4.7 0 0 1-1.31.469 7 7 0 0 1-1.444.148q-1.343 0-2.387-.414M52.191 30.008h-2.507l1.875-8.13h2.511Zm.938-9.418c-.426 0-.742-.125-.957-.375q-.316-.381-.192-.926c.09-.375.293-.684.622-.922a1.84 1.84 0 0 1 1.12-.355q.644-.001.962.355.322.358.187.922a1.6 1.6 0 0 1-.613.938 1.85 1.85 0 0 1-1.13.363M59.723 23.602q-.891 0-1.524.609c-.422.41-.722.984-.894 1.73q-.54 2.344 1.351 2.344 1.802.002 2.36-2.406.522-2.279-1.293-2.277m-1.59 6.605q-2.033 0-2.934-1.14-.901-1.138-.449-3.094.465-2.015 1.938-3.157c.976-.757 2.156-1.136 3.527-1.136q2.02 0 2.91 1.136.89 1.142.457 3.016c-.312 1.348-.953 2.418-1.926 3.2q-1.46 1.176-3.523 1.175M72.098 30.008h-2.5l1.043-4.52q.433-1.887-.914-1.886-.65-.002-1.188.5c-.36.332-.594.757-.715 1.27l-1.07 4.636h-2.508l1.875-8.13h2.512l-.297 1.286h.031q1.236-1.483 2.953-1.484 2.7 0 1.926 3.351z" style="stroke:none;fill-rule:nonzero;fill:#fefefe;fill-opacity:1"/><path d="m81.188 25.508-.34-3.828a4.8 4.8 0 0 1 .047-1.024h-.063a5.6 5.6 0 0 1-.426.992l-2.133 3.86Zm3.156 4.5h-2.797l-.223-2.531h-4.05l-1.387 2.53h-2.782l6.774-11.386h3.043zM88.027 30.008H85.52l1.875-8.13h2.507Zm.934-9.418q-.635 0-.953-.375c-.211-.254-.278-.563-.192-.926.09-.375.293-.684.618-.922.328-.238.699-.355 1.125-.355q.638-.001.96.355.317.358.188.922-.133.568-.617.938-.486.363-1.13.363M96.797 24.14q-.398-.245-1-.245-.816 0-1.414.597c-.403.403-.68.945-.84 1.633l-.895 3.883h-2.507l1.875-8.13h2.507l-.347 1.509h.031q.98-1.653 2.527-1.653c.262 0 .465.032.598.094z" style="stroke:none;fill-rule:nonzero;fill:#f9a518;fill-opacity:1"/></svg>