<svg xmlns="http://www.w3.org/2000/svg" width="176pt" height="57.227" viewBox="0 0 176 42.92"><defs><clipPath id="a"><path d="M122 0h54v42.922h-54Zm0 0"/></clipPath><clipPath id="b"><path d="M122 0h42v42.922h-42Zm0 0"/></clipPath></defs><g clip-path="url(#a)"><path d="M161.621 30.336c.238-.137.313-.398.445-.613.204-.313.371-.649.551-.973.051-.098.09-.2.137-.3.14-.278.25-.575.426-.833.191-.285.195-.59.195-.906-.004-1.32.02-2.645-.016-3.969-.011-.574-.007-1.148-.047-1.719-.093-1.375-.015-2.746-.042-4.12-.012-.376 0-.755-.004-1.133-.004-.102-.04-.2-.055-.301-.016-.098-.04-.2-.043-.301-.004-1.469.016-2.938-.016-4.406-.011-.645.004-1.29-.047-1.93-.05-.574-.011-1.145-.046-1.719-.098-1.726-.004-3.453-.059-5.175L162.953.5c0-.055-.027-.11-.043-.152-.281.027-.543.047-.805.078-.058.004-.117.031-.171.047-.075.015-.149.043-.223.047-.152.011-.313-.02-.441.093-.004.008-.016.008-.024.008-.266-.027-.5.098-.75.16-.383.098-.766.2-1.113.403-.192.109-.403.18-.602.27.07-.165.25-.165.371-.25.078-.052.168-.075.25-.114.239-.121.47-.235.735-.262.082-.012.152-.086.234-.098.25-.039.484-.132.738-.167.223-.032.453-.055.668-.114.239-.066.473-.125.72-.133.073-.004.148-.039.222-.058l.195-.043c.137.113.149.238.149.37 0 .603-.016 1.204.003 1.806.055 1.46.043 2.918.047 4.379.098.535.012 1.078.059 1.617.09 1.097.023 2.195.043 3.293.012.617 0 1.238.004 1.855 0 .13-.008.25.07.371.047.067.027.18.027.274q.005 3.057.004 6.113v.207c0 .102 0 .2.063.293.039.059.039.148.039.223.004.472-.004.945.004 1.418.012 1.003.039 2.007.043 3.011.004.47.015.938.008 1.407-.004.085.003.168.007.273l.293.012q1.495.022 2.985.05c.152.004.308.02.457.055.32.078.648.031.972.051.211.012.422.047.633.07.086.008.172.032.254.028.371-.016.734.058 1.098.113.125.02.25.039.379.043.187.004.375 0 .554.074.07.031.153.027.227.027.195.008.398-.023.578.09.027.016.066.02.102.016.254-.027.488.062.73.11.11.019.223.027.328.046.281.055.567.11.848.168.023.004.047.031.07.027.324-.039.61.149.926.18.168.012.34.086.516.113.117.02.226.063.343.079.106.011.176.05.223.168-.031.027-.062.066-.105.093q-.786.526-1.579 1.051c-.699.461-1.41.91-2.093 1.387-.465.32-.938.625-1.41.93-.47.3-.938.601-1.415.89-.472.29-.945.582-1.43.852-.542.304-1.097.586-1.652.875-.472.246-.949.492-1.43.73-.343.172-.695.328-1.038.492-.215.102-.43.211-.645.309-.2.09-.402.172-.601.262q-.778.34-1.555.68c-.508.218-1.016.445-1.527.652-.622.246-1.247.476-1.872.707-.293.105-.593.191-.89.289-.422.14-.836.289-1.258.426-.32.101-.648.19-.973.292-.191.06-.379.133-.57.188-.21.063-.43.11-.64.168-.403.11-.805.223-1.208.328-.214.055-.43.098-.64.152-.274.067-.543.145-.813.215-.304.078-.601.196-.914.223-.293.027-.55.164-.847.187-.247.02-.489.16-.735.172-.32.016-.605.18-.926.176-.254.149-.562.043-.816.191-.04.02-.102.016-.152.012-.13 0-.25.028-.375.067-.157.054-.34.039-.5.093-.325.114-.668.102-1 .18-.262.063-.54.07-.809.125q-.301.058-.602.098a11 11 0 0 1-.484.058c-.074.008-.164-.015-.226.016-.23.105-.473.086-.711.086-.028 0-.055-.004-.079.004-.328.113-.671.09-1.007.14-.414.055-.828.157-1.25.118a.44.44 0 0 0-.203.011c-.274.102-.56.094-.84.086a4.3 4.3 0 0 0-1.02.098c-.07.016-.152.008-.23.008-.508.02-1.024 0-1.528.058-1.336.157-2.672.082-4.007.09-.41.004-.817-.062-1.223-.094-.137-.007-.277.004-.414-.004-.223-.011-.446-.062-.66-.035-.16.02-.305-.02-.453-.015-.356.011-.7-.051-1.043-.094-.254-.031-.516-.004-.774-.012-.11-.004-.219-.027-.332-.039-.168-.023-.336-.054-.508-.058-.297-.008-.593.007-.886-.094-.118-.043-.254-.047-.38-.043-.378.012-.742-.106-1.117-.125a2 2 0 0 1-.328-.05c-.242-.052-.48-.106-.722-.161-.04-.008-.075-.031-.13-.059.15-.25.27-.5.516-.656q-.116.182-.238.36c-.043.066-.137.105-.11.23.063.02.134.062.204.07.57.067 1.14.102 1.715.016.015-.004.035-.004.05-.004q.68-.031 1.36-.055c.46-.02.926-.004 1.383-.062.425-.051.855-.055 1.277-.106.356-.043.719-.047 1.066-.105.489-.086.985-.098 1.465-.223.082-.02.168-.015.254-.015.156-.004.309-.004.453-.079.07-.035.168-.027.25-.027.235.004.461-.016.688-.082.152-.043.32-.047.48-.07.184-.028.367-.063.555-.086.086-.012.172-.016.254-.02.144-.008.289.016.422-.078.054-.039.148-.02.226-.027l.555-.07q.228-.036.457-.067c.277-.043.555-.078.832-.121.059-.012.113-.035.172-.05.066-.02.133-.052.195-.048.324.028.617-.113.934-.148.226-.027.472-.031.672-.129.25-.121.515-.07.765-.168.297-.11.633-.121.953-.18.055-.011.114-.03.168-.05.047-.016.094-.051.141-.047.29.015.543-.121.82-.157.196-.02.371-.14.575-.109.421-.152.87-.195 1.3-.312.243-.067.48-.153.743-.16.21-.012.421-.114.632-.172.118-.032.235-.047.352-.075.062-.015.125-.039.187-.058.036-.012.063-.035.094-.04.324-.03.625-.16.938-.222.215-.043.414-.14.64-.152.164-.012.325-.082.485-.133.199-.067.394-.18.597-.203.387-.035.73-.219 1.106-.29.32-.058.62-.206.933-.304.176-.059.356-.098.536-.148.128-.036.257-.07.382-.118q.509-.194 1.012-.394c.008-.149.121-.188.234-.238.555-.23 1.114-.442 1.66-.688 1.114-.5 2.215-1.016 3.258-1.645.743-.445 1.461-.925 2.153-1.453a9.7 9.7 0 0 0 2.094-2.21c.09-.13.156-.297.351-.313" style="stroke:none;fill-rule:nonzero;fill:#67c4f0;fill-opacity:1"/></g><path d="M43.73 29.664c-.156.016-.273.04-.394.04q-.745.005-1.496 0c-.211-.005-.426-.017-.625-.106-.14-.059-.293-.055-.438-.125a1.47 1.47 0 0 1-.672-.668c-.085-.172-.093-.34-.093-.52 0-4.469.004-8.937-.004-13.406 0-.543.25-.902.691-1.16.281-.168.602-.23.93-.246.266-.008.531 0 .797 0h19.746c.137 0 .281-.036.394.07.047.254.04 15.875-.015 16.105-.082.02-.18.051-.278.055-.543.004-1.082.02-1.625-.004-.441-.015-.878-.097-1.261-.355-.223-.153-.41-.356-.485-.61a3 3 0 0 1-.117-.808c-.008-2.715-.004-5.43-.004-8.149v-2.215c0-.093-.008-.183-.015-.289-.075-.015-.133-.03-.188-.035-.062-.004-.121 0-.18 0H43.79c-.023.086-.047.157-.059.23-.007.075 0 .153 0 .231v11.965" style="stroke:none;fill-rule:nonzero;fill:#245294;fill-opacity:1"/><path d="M164.262 23.758c-.004-.082-.012-.168-.012-.25q-.001-.956.004-1.91c.004-.133.02-.274.047-.407.078-.449.043-.906.054-1.359.02-.789.024-1.578.047-2.367.016-.402.067-.8.098-1.2q.005-.106.004-.206c0-.551-.008-1.102.004-1.653.008-.547.004-1.097.058-1.64.082-.895.02-1.786.047-2.676 0-.07-.011-.145.004-.207.153-.469.07-.953.098-1.43.012-.223 0-.45.004-.672.011-.61-.008-1.218.05-1.824.118-1.242.079-2.484.102-3.727.008-.41.066-.816.094-1.226.012-.188.004-.379.008-.566 0-.094.007-.184.011-.286.078-.015.137-.03.196-.03.215-.009.425-.009.64-.013.051 0 .118.016.153-.007.195-.145.414-.086.62-.086.946-.008 1.891-.004 2.825-.004.23.129.426.277.535.511.02.04.063.075.059.11-.008.289.133.574.023.867-.023.07-.012.152-.012.23-.003.18.012.356-.082.528-.039.07-.027.168-.039.25-.027.246-.172.469-.14.726-.164.391-.176.825-.328 1.22-.075.194-.082.413-.137.616-.063.239-.14.47-.211.707a1 1 0 0 0-.035.172c-.008.11.004.223-.082.313a.1.1 0 0 0-.024.074c.028.258-.097.484-.164.715-.066.226-.094.46-.172.687-.062.176-.093.375-.136.567-.032.133-.078.261-.114.394-.015.067-.02.133-.035.2-.015.074-.039.144-.058.218-.008.031-.036.059-.04.094-.035.34-.171.656-.234.988-.047.23-.129.453-.152.692-.02.183-.07.39-.153.558-.097.207-.066.434-.171.64-.09.173-.086.391-.133.59-.024.11-.067.212-.09.321s-.02.227-.059.324c-.14.364-.172.758-.316 1.121-.07.176-.074.38-.137.567-.074.222-.105.46-.172.687-.078.27-.148.535-.203.809-.031.156-.09.308-.125.465-.05.218-.136.433-.21.652-.044.125-.02.258-.083.395-.097.218-.129.468-.191.707-.016.062-.04.128-.059.191-.011.031-.035.062-.039.094-.027.297-.144.57-.234.855-.063.192-.074.399-.145.586-.05.145-.078.293-.125.438q-.134.408-.238.828c-.086.324-.219.636-.328.957-.004.015-.012.031-.012.05-.012.278-.133.52-.219.778q-.04.131-.074.262-.032-.004-.062-.008M52.86 31.457c-.102.008-.16.016-.22.016-.535 0-1.066.011-1.6-.004a1.45 1.45 0 0 1-1.099-.524.8.8 0 0 1-.187-.539q.006-2.59 0-5.18v-5.624c.082-.02.14-.047.195-.047h2.781c.028 0 .051.011.11.02.004.085.015.175.015.265q.005.875.004 1.75v9.867" style="stroke:none;fill-rule:nonzero;fill:#55b742;fill-opacity:1"/><path d="M23.3 34.145v.328c0 1.168.009 2.336-.003 3.504-.004.375.125.609.48.753.309.125.614.176.942.118.14-.024.289-.032.422-.078a1 1 0 0 0 .578-.5v-3.778q.144-.171.277-.332h1.059c.008.098.015.18.015.266 0 1.219-.011 2.437.008 3.66.008.566-.246.977-.664 1.316-.219.18-.477.282-.738.391-.227.094-.473.078-.692.152-.238.086-.468.07-.703.075-.093 0-.183-.032-.277-.051-.04-.008-.082-.032-.121-.035-.465-.032-.875-.211-1.27-.493q-.107.052-.215.11c-.328.187-.664.347-1.05.375-.192.011-.383.082-.578.094-.422.02-.825-.09-1.223-.227a2.36 2.36 0 0 1-1.02-.648c-.14-.16-.246-.348-.355-.532-.027-.043-.024-.113-.024-.175v-3.942a.5.5 0 0 1 .016-.09l.27-.25h1.015c.012.106.028.203.028.301.003 1.145.003 2.285.003 3.43v.34c.122.336.399.445.637.586.047.027.117.015.176.023.102.016.203.035.305.043a1 1 0 0 0 .203-.004c.058-.004.117-.027.176-.031.375-.035.597-.145.886-.457.012-.153.04-.332.04-.508.003-1.008 0-2.012 0-3.016 0-.093.003-.191.023-.281.043-.18.125-.34.312-.437H23.3M46.723 35.535c-.035.043-.063.11-.11.13-.328.128-.648.257-1.015.155a.55.55 0 0 1-.285-.16c-.215-.226-.489-.34-.778-.46-.367-.15-.726-.11-1.09-.106-.316.004-.613.133-.894.277-.102.05-.18.152-.258.223v.441c.098.082.207.176.266.227.195.058.32.101.453.133.074.02.152.023.23.023.418.004.84 0 1.262.004.336.008.648.117.969.21.203.06.382.15.55.259.372.238.649.562.723 1.007.05.32-.008.63-.176.914-.234.399-.547.704-.992.876a3.8 3.8 0 0 1-.96.25c-.235.027-.466.093-.712.09-.246-.008-.492-.012-.734-.087-.113-.03-.246-.007-.356-.039-.367-.109-.734-.222-1.058-.433-.332-.219-.621-.485-.79-.86-.03-.066-.077-.129-.124-.207.156-.097.316-.136.468-.203.16-.066.31-.078.473-.082.207-.008.39.07.524.219.21.23.488.34.75.477q.036.018.074.019c.383-.023.765.148 1.148.016.024-.008.051-.004.078-.004.442.004.782-.188 1.043-.535a.57.57 0 0 0-.265-.559c-.23-.16-.492-.129-.735-.2-.308-.085-.609.032-.918.005-.297-.028-.605 0-.89-.067-.403-.093-.813-.21-1.137-.488a1.5 1.5 0 0 1-.488-.734 1.5 1.5 0 0 1-.086-.47c0-.304.11-.577.285-.804a2.35 2.35 0 0 1 1.012-.758c.53-.203 1.078-.242 1.633-.238q.323.004.64.043c.336.043.656.148.973.273.289.118.531.305.77.497.238.187.402.437.527.726M37.398 36.465c.262-.348.485-.64.704-.93.289-.375.566-.754.863-1.12a.68.68 0 0 1 .555-.27c.332.003.667 0 1.003 0 .063.003.13.015.239.03l-2.664 3.493v1.867c0 .11.015.223-.094.34-.242 0-.508.023-.77-.008a.64.64 0 0 1-.48-.308c-.012-.145-.035-.34-.04-.536-.007-.363-.003-.722 0-1.082a.7.7 0 0 0-.183-.492 10 10 0 0 1-.476-.601q-.716-.94-1.426-1.88c-.043-.054-.078-.113-.121-.167-.11-.137-.156-.285-.098-.512.028-.023.09-.078.149-.133h1.05c.297.383.598.766.895 1.153.289.375.57.757.894 1.156M8.398 34.156h1.067c.031.633.012 1.258.015 1.88.004.636 0 1.273 0 1.905v1.848c-.05.04-.062.059-.074.059-.324.043-.648.074-.965-.035-.238-.086-.355-.25-.359-.508v-1.7c0-.945.008-1.89-.004-2.835-.004-.266.074-.47.32-.614M88.852 27.395l.617.488c.066.05.133.105.199.156.508.363 1.031.695 1.594.965.351.164.703.328 1.086.41.058.012.109.047.164.074.027.016.054.043.086.051q.293.063.593.125c.055.012.11.031.168.047.07.02.145.043.22.055.16.023.327.02.48.066.242.074.488.07.734.094.617.054 1.234.078 1.852.039.523-.031 1.058-.004 1.574-.164.07-.024.148-.024.226-.035.059-.004.137.007.172-.024.117-.09.246-.062.371-.082.164-.031.328-.078.485-.129.187-.062.367-.144.547-.21.093-.036.195-.06.285-.098.308-.133.629-.25.918-.418.465-.266.953-.504 1.351-.871.254-.235.531-.438.77-.684.23-.234.43-.5.613-.781a5.2 5.2 0 0 0 .504-1.047 2.3 2.3 0 0 0 .176-.82 521 521 0 0 1 0-6.055c0-.293-.094-.55-.176-.817-.117-.37-.266-.734-.508-1.05-.031-.043-.031-.114-.043-.168.246.285.414.613.528.972.062.2.148.391.218.586.008.02.02.035.02.051-.051.32.113.61.11.93-.009 1.699-.005 3.402-.005 5.105 0 .125.016.25-.07.367-.035.051-.023.133-.027.2-.008.168-.012.328-.079.5-.058.144-.101.297-.16.449-.183.48-.425.922-.77 1.308-.152.172-.304.348-.46.516-.278.297-.613.524-.938.762a9 9 0 0 1-1.355.797c-.23.113-.469.203-.703.297-.207.078-.41.156-.621.218-.2.063-.41.098-.614.145-.015.004-.039 0-.05.004-.286.16-.625.082-.91.23-.016.008-.036.016-.051.012-.434-.04-.848.113-1.274.113-.449 0-.894.004-1.344 0-.132-.004-.27-.031-.406-.047-.203-.02-.406-.035-.61-.058a7 7 0 0 1-.405-.059q-.222-.041-.45-.09-.121-.03-.242-.066c-.039-.012-.078-.035-.12-.035a.67.67 0 0 1-.34-.086c-.075-.043-.184-.024-.29-.035l-.105-.082c-.309-.102-.567-.18-.817-.274-.097-.031-.18-.097-.27-.144-.35-.18-.722-.328-1.046-.563-.426-.312-.89-.582-1.262-.969-.05-.05-.094-.113-.14-.171M161.621 30.336c-.14.215-.27.434-.422.64a8 8 0 0 1-.535.653c-.273.293-.566.566-.851.855-.41.414-.907.727-1.364 1.082-.219.172-.472.297-.715.446-.207.129-.414.265-.625.39-.386.227-.773.457-1.168.668a18 18 0 0 1-1.12.547c-.419.192-.825.395-1.247.567-.222.093-.46.164-.668.293-.113.07-.25.097-.375.144-.222.086-.441.176-.66.262-.113-.004-.219-.004-.316.07-.102.074-.243.031-.364.102-.222.12-.468.199-.71.277-.126.043-.258.02-.391.09-.188.094-.403.121-.606.187-.175.055-.343.125-.523.18-.227.066-.457.113-.688.18-.175.047-.347.11-.523.164-.04.015-.082.039-.121.035-.152-.012-.277.062-.414.11-.2.066-.406.1-.613.152-.055.015-.114.035-.168.047l-.22.058c-.073.016-.155.02-.222.05-.125.063-.25.099-.39.11-.106.004-.204.078-.305.09-.113.016-.227.008-.313.09-.285-.02-.527.137-.797.176-.066.008-.128.035-.19.058-.024.008-.048.036-.067.032-.239-.036-.446.097-.672.117a1 1 0 0 0-.274.062c-.12.051-.234.098-.37.094-.048-.004-.094.023-.141.04-.036.01-.063.05-.09.046a2 2 0 0 0-.672.113c-.113.035-.234.051-.352.075q-.189.04-.37.082c-.06.015-.118.027-.173.046-.03.012-.062.051-.086.047-.265-.039-.5.094-.75.117-.175.02-.347.075-.52.122-.148.039-.308.015-.44.12-.024.024-.083.012-.125.012-.141.004-.293-.02-.415.086a.1.1 0 0 1-.074.016c-.23-.027-.437.05-.652.11-.098.027-.2.03-.305.046-.039.004-.097-.008-.125.012-.156.129-.344.082-.52.094-.042 0-.09-.008-.124.004-.403.16-.844.101-1.246.246-.07.023-.157.004-.235.007-.05 0-.113-.011-.148.016-.153.117-.328.078-.496.086-.133.008-.27-.016-.395.074-.055.04-.148.02-.226.028l-.555.07c-.129.02-.254.055-.383.055-.39.007-.766.168-1.164.136-.09-.004-.18.04-.27.059-.066.016-.128.035-.195.039-.258.016-.508-.008-.762.09-.183.07-.402.05-.605.066-.078.008-.164-.015-.23.012-.317.133-.645.082-.965.098-.075 0-.149.03-.223.046-.07.02-.144.047-.219.047-.18.008-.363-.004-.543.008-.23.012-.46.035-.687.055-.153.012-.305.039-.457.043-.73.023-1.461.012-2.188.066-.355.024-.715.04-1.074.035-.234-.004-.473-.043-.73-.07.023-.043.03-.078.05-.098.215-.187.422-.375.645-.55.332-.258.629-.551.95-.82.347-.294.69-.587 1.046-.868.309-.246.613-.492.922-.738.273-.215.547-.434.824-.645.207-.156.422-.293.629-.445.172-.125.336-.258.508-.383q.281-.2.574-.387c.398-.257.797-.52 1.203-.77.305-.183.617-.355.93-.526.605-.344 1.207-.696 1.82-1.032.457-.246.922-.484 1.395-.703.418-.191.828-.398 1.242-.59.5-.23 1.012-.437 1.516-.652.234-.102.468-.195.703-.293.363-.156.722-.328 1.105-.437.145-.043.281-.114.422-.172q.234-.093.469-.18c.175-.066.347-.125.523-.187q.262-.09.524-.176c.03-.012.07-.016.093-.032.196-.132.426-.156.641-.23.309-.105.613-.223.926-.332.094-.031.195-.055.293-.074.375-.07.71-.266 1.093-.32.204-.028.399-.13.598-.192.172-.055.34-.113.512-.156.262-.067.52-.121.777-.207.262-.094.543-.14.813-.207.117-.032.226-.082.343-.102.332-.05.641-.226.989-.215.05.004.097-.02.144-.039.043-.011.078-.054.114-.05.304.03.562-.133.847-.18.192-.031.39-.047.57-.106.274-.093.563-.105.84-.187.274-.082.551-.188.852-.16.047.004.098-.028.14-.043.036-.012.067-.051.09-.047.274.043.52-.082.774-.121.262-.04.512-.11.777-.106.145-.125.324-.082.492-.093.211-.016.418-.051.625-.114.176-.054.368-.066.555-.09.117-.011.23.008.344-.07.058-.043.164-.027.25-.035.207-.012.43.05.62-.094.028-.02.087-.012.126-.008.348.043.68-.082 1.016-.117.113-.012.218-.031.332-.035.167-.008.34.012.5-.082.05-.031.132-.023.203-.023.195-.004.394.007.59-.004.117-.008.234-.04.347-.063.078-.012.153-.035.227-.035.222-.004.449-.008.672 0 .277.004.543-.04.812-.094l.074-.012c.774-.062 1.543-.05 2.317-.05.11 0 .11.004.258.113-.098.203-.192.41-.293.613-.266.52-.528 1.043-.805 1.555-.149.27-.332.52-.492.781-.028.04-.04.09-.059.137" style="stroke:none;fill-rule:nonzero;fill:#245294;fill-opacity:1"/><g clip-path="url(#b)"><path d="M147.531 19.547c-.066 1.527.02 3.055-.05 4.578-.075 1.57-.012 3.14-.043 4.71q-.001.142-.008.282c0 .016-.016.031-.028.055-.308.078-.601.156-.91.234-.015-.058-.035-.105-.035-.148-.004-.328-.012-.656.008-.98.012-.231.066-.454.086-.684.027-.262.047-.528.05-.793q.005-.527.09-1.047c.047-.27.008-.55.024-.824.015-.254.055-.508.086-.762.004-.066.012-.133.015-.203.004-.531.004-1.059.094-1.586.059-.317.035-.649.059-.973.011-.23.035-.46.054-.691.016-.184.04-.371.047-.559.024-.351.008-.707.063-1.05.058-.36.023-.72.05-1.075.02-.281.06-.558.09-.84 0-.023.008-.05.008-.074.016-.316.028-.633.047-.949.016-.223.02-.445.063-.664.07-.375.023-.754.047-1.129 0-.086-.028-.184.046-.285.078.086.055.172.055.254q.005.73.004 1.469c0 1.242.043 2.492-.012 3.734m15.903 7.195c-.059-.828-.004-1.66-.032-2.492-.035-1.223-.05-2.445-.09-3.672-.07-2.39-.015-4.785-.113-7.18-.062-1.652 0-3.308-.074-4.964a44 44 0 0 1-.059-2.266c.004-1.422-.027-2.848-.035-4.273-.004-.446-.015-.895-.02-1.34-.003-.114-.011-.227-.156-.282-.19.07-.402.086-.617.106-.289.02-.578.082-.847.148-.407.098-.82.188-1.223.313-.492.152-.938.375-1.387.613-.511.36-1.031.703-1.484 1.137-.45.426-.922.824-1.375 1.238-.54.492-1.067.992-1.602 1.492-.07.063-.136.13-.207.192a60 60 0 0 1-.785.734c-.008.063-.016.09-.016.113q.001 2.582.008 5.16c0 .067-.004.145.028.2.074.136.062.281.066.426.031 1.668-.035 3.332.05 5 .032.64-.019 1.28.048 1.925.058.606-.032 1.22.058 1.825 0 2.113-.015 4.226.055 6.335.008.215.016.426.023.665-.097.101-.253.097-.406.113-.11.012-.23-.008-.328.035-.14.059-.281.066-.426.078-.117.008-.234.047-.347.067-.078.011-.16.019-.27.03v-.312c.024-.906 0-1.816.04-2.726.066-1.48-.04-2.97.066-4.453q.001-5.971.003-11.938.001-.143.008-.285c.012-.246.032-.496.035-.742 0-.051-.035-.102-.058-.176-.074.066-.125.11-.172.16q-1.36 1.355-2.719 2.715c-.59.59-1.168 1.187-1.715 1.812-.398.461-.824.895-1.234 1.344-.27.301-.531.606-.8.903l-1.391 1.55q-.41.462-.813.93c-.305.348-.605.7-.91 1.043-.113.129-.246.242-.356.375-.277.316-.542.637-.816.957-.18.207-.367.406-.547.613q-.446.517-.89 1.028c-.282.324-.57.644-.848.964-.29.332-.57.665-.852.997-.226.27-.449.539-.656.785-.023.187-.055.347-.066.508q-.041.396-.059.793c-.023.453-.012.91-.062 1.359-.059.469-.094.937-.09 1.406 0 .078.008.16-.008.235-.106.488-.098.984-.102 1.484 0 .183-.027.371-.043.558-.015.172-.046.34-.054.512-.024.512-.028 1.028-.063 1.54-.012.206-.02.429-.125.609-.539.238-1.062.468-1.597.707-.012-.067-.024-.118-.028-.164-.02-.207-.015-.414-.062-.614a4 4 0 0 1-.086-.789c-.004-.18-.035-.355-.051-.535-.02-.176-.035-.355-.055-.535a27 27 0 0 0-.05-.559c-.016-.152-.04-.304-.055-.457l-.094-.84q-.03-.291-.055-.59c-.004-.1.012-.206-.004-.308-.03-.176-.015-.371-.152-.539-.05.043-.094.07-.125.105q-.271.33-.535.657a21 21 0 0 0-.273.34c-.22.273-.434.55-.657.824q-.497.619-1 1.238c-.191.238-.39.477-.586.711-.03.043-.078.074-.097.117-.164.305-.422.535-.63.809-.28.375-.597.726-.898 1.09-.254.308-.504.625-.757.933-.32.383-.649.754-.965 1.137-.317.371-.621.754-.93 1.129-.144.172-.293.336-.434.508-.25.304-.492.613-.742.918-.234.285-.476.562-.71.847-.301.371-.598.746-.9 1.117-.218.274-.44.543-.663.817q-.224.266-.442.531c-.12.211-.379.34-.39.629.594.207 1.187.242 1.777.203.95-.058 1.902-.074 2.852-.14.488-.036.976-.083 1.46-.126.368-.035.739-.046 1.102-.105 1.082-.176 2.176-.281 3.262-.437.684-.098 1.375-.184 2.059-.29.875-.132 1.746-.27 2.613-.437.902-.172 1.8-.36 2.699-.54.629-.128 1.254-.288 1.883-.421.972-.203 1.937-.441 2.902-.68.86-.21 1.711-.437 2.563-.68 1.297-.367 2.59-.742 3.855-1.199.129-.046.297-.074.313-.261-.09-.164-.23-.117-.364-.075-.722.239-1.445.485-2.175.704-.649.191-1.301.375-1.954.562-.566.164-1.14.317-1.71.461-.731.184-1.461.371-2.2.527-.625.137-1.254.282-1.875.43-.617.149-1.246.242-1.86.399-.737.187-1.495.289-2.237.46-.5.114-1.02.149-1.52.247-.96.183-1.934.273-2.894.437-.864.145-1.73.223-2.594.34-.969.133-1.938.273-2.914.277q-.093 0-.18.012c-.687.121-1.387.117-2.078.14-.402.016-.809-.011-1.211.044-.246.035-.496.015-.746.003-.102-.003-.211.004-.27-.105-.004-.102.07-.156.133-.21 1.125-.974 2.25-1.938 3.43-2.845 1.3-1 2.66-1.918 4.082-2.742 1.344-.781 2.703-1.531 4.113-2.183a66 66 0 0 1 4.82-2.02 61 61 0 0 1 3.731-1.254c.695-.21 1.398-.406 2.102-.605.683-.192 1.37-.387 2.066-.536.652-.14 1.297-.312 1.953-.433s1.305-.3 1.961-.41c.734-.117 1.465-.262 2.203-.367.508-.075 1.012-.188 1.52-.254.5-.063 1.004-.106 1.5-.196.43-.078.87-.136 1.3-.156.684-.027 1.36-.184 2.051-.125.04.004.082-.004.125-.012.82-.132 1.645-.152 2.465-.136.113 0 .23-.016.328.117-.004.265-.176.492-.293.73-.332.66-.68 1.309-1.074 1.938-.066.105-.148.234.035.316.16-.004.246-.117.317-.234.418-.7.796-1.422 1.18-2.14.21-.395.308-.79.277-1.25" style="stroke:none;fill-rule:nonzero;fill:#55b742;fill-opacity:1"/></g><path d="M79.418 18.352c-.059.316-.113.628-.3.906-.192.281-.43.508-.747.64q-.107.042-.215.067c-.05.012-.113-.004-.152.02-.192.113-.399.09-.602.09H71.11c-.058-.24-.078-3.055-.035-3.524.082-.102.2-.082.309-.082h2.012c1.375 0 2.75-.012 4.125.004.53.007 1.035.172 1.406.574.191.207.351.453.394.754.024.183.133.355.098.55m-.008 6.574a2.3 2.3 0 0 1-.14.617 1.52 1.52 0 0 1-.665.816c-.14.086-.296.16-.457.2-.187.046-.39.062-.585.062q-3.09.006-6.184 0c-.098 0-.195-.02-.305-.031v-3.442c.106-.101.23-.078.348-.078h4.82c.48 0 .965-.023 1.442.008.632.04 1.16.313 1.48.871.164.29.277.63.246.977m3.188-2.25a4.3 4.3 0 0 0-.864-1.078c.387-.43.774-.832.993-1.356.12-.297.308-.57.304-.906 0-.027.004-.055.016-.074.105-.176.086-.364.09-.555 0-.281-.02-.566.004-.848.027-.308-.063-.597-.137-.882a3.5 3.5 0 0 0-.406-.868 5.6 5.6 0 0 0-.965-1.168 4.6 4.6 0 0 0-.89-.64 5.2 5.2 0 0 0-1.141-.496c-.262-.075-.52-.157-.786-.211-.125-.024-.265.004-.382-.04-.25-.093-.504-.081-.762-.081q-4.075.001-8.149-.004c-.406 0-.804.008-1.191.136-.324.11-.613.266-.8.563-.16.258-.243.531-.243.844q.006 6.534 0 13.074c0 .238.016.473.117.695.13.282.309.528.59.653.41.175.844.273 1.293.273q4.072-.005 8.148-.004c.395 0 .786-.02 1.172-.117.211-.055.446.008.645-.125.031-.023.086-.004.125-.008.043-.008.09-.012.125-.027.176-.07.34-.156.52-.211.445-.137.835-.38 1.206-.649.56-.406 1.032-.894 1.375-1.503.204-.36.391-.727.426-1.153a.2.2 0 0 1 .024-.07c.082-.125.074-.262.078-.399.004-.183-.004-.363.004-.543.023-.523-.028-1.039-.223-1.53a5.5 5.5 0 0 0-.316-.692M12.012 24.918c-.028.578-.258 1.05-.73 1.395a1.5 1.5 0 0 1-.7.269c-.309.043-.613.04-.922.04q-2.82.004-5.644.003c-.102 0-.203-.008-.309-.012-.062-.226-.082-2.953-.039-3.46.082-.102.2-.083.309-.083h1.855c1.461 0 2.922-.008 4.383.004.613.004 1.129.254 1.492.762.094.133.125.312.203.46.106.2.113.411.102.622m-8.344-8.39c.074-.016.16-.051.246-.06.156-.007.313 0 .465 0 1.926 0 3.848-.011 5.773.009.516.003 1.016.156 1.38.566.175.2.304.418.39.68.07.218.09.43.09.648.004.317-.13.59-.27.86-.043.081-.09.167-.148.238-.235.254-.528.402-.864.508-.457.148-.914.093-1.375.093-1.777.008-3.554.004-5.332.004-.109 0-.218-.012-.355-.02zm11.957 7.222c-.027-.082-.008-.176-.035-.254-.067-.172-.145-.34-.223-.508-.195-.414-.426-.8-.758-1.117-.093-.09-.18-.183-.285-.293.11-.101.215-.191.309-.293.129-.144.265-.293.375-.453a4.7 4.7 0 0 0 .531-1.035c.074-.215.125-.442.168-.66.07-.367.055-.75.066-1.125 0-.13-.05-.262-.039-.383.032-.262-.07-.496-.144-.719-.137-.41-.356-.789-.602-1.148-.472-.684-1.11-1.18-1.832-1.57-.297-.157-.597-.317-.941-.376-.195-.035-.383-.136-.578-.187-.157-.04-.325-.031-.48-.074a2.5 2.5 0 0 0-.66-.082q-4.42.001-8.84-.004c-.302 0-.571.11-.848.187-.098.028-.188.082-.278.13-.254.136-.402.362-.531.616V28.79c.055.078.098.145.14.207.145.195.317.356.544.461.378.172.777.246 1.191.246 2.8.004 5.605 0 8.406 0 .086 0 .172.004.254-.012.438-.07.883-.074 1.305-.23.215.031.387-.117.586-.152a1.6 1.6 0 0 0 .406-.153c.492-.242.961-.515 1.379-.875.437-.375.789-.808 1.055-1.312q.186-.358.332-.739c.058-.164.12-.343.12-.515-.015-.656.118-1.317-.093-1.965M121.96 21.582v2.629c0 .254-.093.473-.206.691a2.6 2.6 0 0 1-.367.524 4.2 4.2 0 0 1-1.207.93q-.493.249-1.016.406c-.266.082-.535.183-.82.172-.055 0-.114-.008-.156.011-.243.125-.5.09-.758.094-.274.004-.547-.004-.825.004a2.4 2.4 0 0 1-.66-.078c-.09-.024-.187-.02-.28-.035-.09-.016-.18-.04-.27-.059-.036-.008-.063-.035-.094-.039-.434-.031-.817-.23-1.2-.398a3.9 3.9 0 0 1-1.18-.793 3.2 3.2 0 0 1-.581-.809c-.149-.277-.172-.574-.172-.863-.016-1.59-.012-3.18-.004-4.77 0-.219.008-.453.082-.656.086-.238.234-.457.379-.664.273-.395.648-.676 1.063-.91.187-.102.367-.211.562-.293.191-.078.371-.192.59-.223.187-.027.37-.11.555-.164.066-.02.132-.027.203-.039.183-.031.37-.066.554-.094.137-.02.274-.043.407-.047.222-.007.449-.004.671-.004a3.5 3.5 0 0 1 .942.094c.3.078.621.086.922.172.316.09.62.223.922.36.511.234.968.546 1.343.968.172.2.352.41.457.645.086.191.157.402.153.636-.02.868-.008 1.735-.008 2.602m3.74-2.91a3.7 3.7 0 0 0-.493-1.645c-.004-.023-.004-.054-.02-.074-.273-.422-.542-.848-.917-1.195-.18-.168-.36-.34-.551-.496-.442-.356-.895-.692-1.399-.946-.375-.187-.746-.386-1.156-.511-.379-.117-.73-.317-1.137-.344-.03 0-.062-.027-.093-.035a2 2 0 0 0-.243-.063c-.078-.015-.156-.011-.226-.031-.403-.129-.828-.121-1.238-.215-.942.035-1.883-.105-2.82.094-.36.074-.727.105-1.09.16-.024 0-.055.004-.075.02-.09.078-.203.078-.312.082-.043.004-.082.02-.121.035-.204.07-.399.14-.598.21-.23.083-.477.137-.688.255-.285.16-.59.28-.875.449-.539.32-1.062.652-1.511 1.09-.262.258-.528.52-.762.804-.316.38-.527.829-.715 1.286-.07.171-.113.355-.156.539-.031.132-.04.27-.059.402-.015.137-.047.27-.047.406q-.004 2.46-.003 4.922c0 .297-.02.602.093.89a.3.3 0 0 1 .012.126c-.027.234.078.441.16.636.125.301.246.606.43.887.191.297.402.57.633.832.285.328.617.602.965.848.324.234.667.433 1.007.648a4 4 0 0 0 .907.465c.527.195 1.062.375 1.617.516.719.18 1.445.246 2.172.32.804.082 1.62-.004 2.421-.11a11 11 0 0 0 2.126-.503 9.6 9.6 0 0 0 1.457-.66 9.4 9.4 0 0 0 1.503-1.024 5.4 5.4 0 0 0 1.403-1.754c.344-.683.453-1.437.445-2.203-.02-1.703.059-3.41-.047-5.113M100.96 24.004c0 .723-.339 1.281-.87 1.742-.313.274-.664.48-1.024.676-.214.113-.464.16-.68.27-.238.117-.515.093-.75.222-.042.02-.1.012-.152.016-.078.004-.16-.008-.23.015-.344.121-.695.094-1.047.094-.223.004-.445.008-.668 0-.172-.008-.34-.039-.508-.059-.12-.015-.238-.039-.355-.046-.11-.012-.227.003-.32-.079-.016-.015-.047-.023-.07-.023-.278-.016-.516-.164-.774-.238-.524-.153-.973-.442-1.39-.774a2.66 2.66 0 0 1-.817-1.066 1.7 1.7 0 0 1-.13-.695v-2.477q0-1.236-.003-2.473c0-.464.16-.855.441-1.222.38-.496.875-.836 1.41-1.117.254-.133.532-.223.801-.325.207-.078.438-.058.633-.175.082-.043.203-.012.305-.04.62-.164 1.258-.136 1.89-.117.23.004.453.067.684.11.242.043.488.07.723.144.699.223 1.363.504 1.937.988.309.258.55.551.746.899.164.293.215.61.219.93.008 1.605.004 3.214 0 4.82m3.743-4.922c-.004-.523-.074-1.031-.27-1.531-.144-.367-.335-.7-.523-1.04-.215-.253-.414-.523-.648-.761a7.7 7.7 0 0 0-1.696-1.277 12 12 0 0 0-1.09-.547c-.195-.094-.41-.153-.617-.223-.34-.113-.683-.238-1.03-.328-.282-.074-.571-.105-.86-.148-.098-.016-.203-.004-.305-.028a3.4 3.4 0 0 0-.816-.09c-.496.004-.996 0-1.496 0-.297 0-.598-.007-.891.094-.063.02-.133.008-.203.016-.328.05-.668.07-.98.172-.208.066-.43.078-.633.18-.18.085-.391.109-.582.179-.258.102-.512.219-.766.332-.34.152-.676.316-.984.531-.293.203-.567.442-.868.637-.32.207-.586.48-.828.766-.215.25-.437.5-.582.808-.125.258-.293.492-.363.778-.059.238-.149.468-.2.707-.042.191-.05.39-.066.586-.02.168-.043.34-.043.511q-.005 1.998-.004 3.996c0 .305-.02.618.051.918.07.317.074.645.168.961.133.442.328.844.567 1.23.199.325.449.606.707.884.523.507 1.109.937 1.742 1.293a9.2 9.2 0 0 0 1.738.773c.367.117.742.238 1.113.309.442.082.887.164 1.34.195.809.058 1.606.066 2.41.012.785-.051 1.551-.204 2.301-.422a8.8 8.8 0 0 0 2.145-.938c.957-.586 1.824-1.25 2.418-2.242.418-.703.648-1.445.652-2.246 0-1.684.008-3.363-.008-5.047M30.02 22.246c-1.579-.004-3.13 0-4.723 0 .082-.226.14-.406.21-.582q.16-.388.337-.77c.09-.199.195-.39.285-.59.148-.331.285-.667.43-1 .093-.218.199-.429.296-.648.145-.332.282-.668.426-1q.131-.287.274-.574c.03-.062.074-.117.129-.207.21.457.386.84.558 1.227.145.324.29.644.43.968l.55 1.254q.253.572.508 1.14c.094.212.207.423.301.638.016.043-.008.105-.011.144m7.105 6.899c-.062-.137-.121-.278-.184-.415q-.217-.487-.43-.968l-.421-.957c-.137-.317-.278-.633-.414-.95-.086-.195-.16-.39-.246-.582-.114-.242-.242-.48-.356-.722-.094-.207-.172-.422-.265-.63-.137-.32-.286-.632-.426-.948-.13-.305-.23-.625-.387-.914-.14-.27-.242-.555-.375-.829-.113-.234-.215-.476-.324-.714-.078-.168-.164-.336-.238-.508-.153-.34-.293-.684-.446-1.024-.18-.394-.332-.797-.527-1.183-.2-.403-.36-.82-.543-1.23-.094-.216-.2-.43-.293-.65-.137-.32-.254-.648-.402-.96-.29-.586-.77-.977-1.364-1.223a4.3 4.3 0 0 0-1.547-.312c-.406-.012-.82.031-1.23.05a.3.3 0 0 0-.074.012c-.301.137-.63.184-.93.332-.383.188-.723.41-.976.758-.262.363-.383.793-.579 1.188-.101.203-.183.418-.265.629-.2.496-.457.968-.672 1.453-.18.402-.313.824-.508 1.215-.176.355-.336.722-.496 1.085-.086.2-.164.407-.254.606-.148.324-.3.644-.445.969-.11.238-.215.48-.32.715-.133.292-.243.593-.395.878-.172.336-.309.696-.457 1.043-.094.211-.184.418-.277.63-.098.222-.2.445-.297.667-.14.324-.285.649-.426.973-.086.203-.16.41-.25.61-.14.304-.297.605-.438.91-.058.128-.113.269-.132.41-.055.39.129.68.437.886.27.18.578.258.899.258q.89.006 1.777 0c.113 0 .223-.027.332-.039.18-.414.355-.828.55-1.23.15-.309.227-.653.43-.938.043-.047.024-.113.047-.168q.398-.847.766-1.707c.113-.273.258-.348.535-.348 2.25.008 4.5.004 6.75.004.371 0 .477.075.59.426.14.43.36.82.531 1.235.219.511.45 1.019.676 1.53.144.329.332.645.644.848.391.258.82.387 1.301.375.73-.015 1.461 0 2.192-.003.09 0 .187.027.289-.047.043-.184-.086-.328-.137-.496M15.297 36.176c-.063.258-.192.43-.461.523-.14.051-.274.082-.418.082h-1.672c-.094 0-.184-.011-.309-.015v-1.504c.106-.012.204-.032.301-.035.598 0 1.2.02 1.801-.008.438-.02.879.422.758.957m1.406-.16c-.008-.145.02-.305-.027-.434-.074-.21-.196-.41-.309-.61-.16-.277-.43-.429-.691-.593a1.36 1.36 0 0 0-.739-.234h-3.324c-.086 0-.172.007-.258.011l-.273.246V39.5a.66.66 0 0 0 .504.36c.258.042.523.03.809 0 .011-.11.027-.2.027-.294v-1.39c0-.09.012-.184.023-.309q.814-.005 1.563-.004a.7.7 0 0 1 .336.332c.101.207.226.399.336.602.129.23.246.465.383.691.058.102.136.223.234.262.172.066.336.156.539.133.223-.02.445-.004.672-.004.055 0 .113-.016.168-.024.008-.039.027-.07.015-.085a32 32 0 0 0-1.168-2.098c.133-.067.286-.113.403-.207.457-.371.797-.817.777-1.45M3 37.223c-.004-.25.14-.418.219-.606.082-.203.18-.402.265-.605.082-.188.106-.407.301-.567.14.301.305.578.402.88.098.296.336.546.336.91-.515.003-1.007.019-1.523-.012m3.969 2.129c-.114-.235-.203-.48-.309-.723-.137-.316-.281-.633-.422-.95-.168-.386-.332-.773-.5-1.16l-.457-1.023c-.117-.262-.222-.531-.355-.789a1.02 1.02 0 0 0-.45-.469c-.234-.12-.484-.11-.722-.133a1.4 1.4 0 0 0-.582.07c-.324.106-.524.352-.649.669-.128.332-.277.652-.421.98-.098.23-.204.457-.309.688l-.148.351c-.188.399-.375.793-.555 1.196-.184.41-.352.824-.535 1.23-.11.246.035.555.308.582.285.024.578.004.895.004.234-.516.469-1.02.699-1.531h2.582c.031.05.082.097.11.156q.19.444.382.887c.137.316.371.515.73.492.13-.008.259 0 .387 0 .16 0 .32-.004.512-.008-.027-.223-.117-.367-.191-.52M31.934 37.223c-.5.03-.989.015-1.489.007-.008-.05-.027-.09-.015-.113.242-.554.488-1.105.758-1.719.316.567.503 1.13.769 1.653.016.039-.012.097-.023.172m2.636 2.41c-.133-.281-.273-.563-.406-.844-.098-.207-.187-.418-.277-.625-.145-.332-.285-.668-.43-1-.09-.2-.227-.383-.285-.59-.098-.355-.305-.66-.43-1-.094-.254-.203-.5-.316-.746-.121-.254-.254-.492-.547-.601a1.9 1.9 0 0 0-.852-.118c-.082.008-.168.028-.25.036a.9.9 0 0 0-.718.507c-.13.246-.23.508-.348.766-.086.191-.18.383-.258.582-.176.41-.336.828-.512 1.238-.148.336-.32.664-.472 1-.137.301-.25.614-.399.907a.68.68 0 0 0-.03.605c.108.04.226.113.347.121.254.02.511.008.761.008.051-.059.106-.098.13-.149.14-.316.273-.636.417-.953.075-.156.106-.347.282-.433.718-.051 2.382-.028 2.578.043.011.05.023.113.043.164.117.273.242.543.355.816.106.262.277.473.563.5.343.035.699.008 1.09.008-.016-.11-.012-.184-.036-.242" style="stroke:none;fill-rule:nonzero;fill:#245294;fill-opacity:1"/></svg>