<svg xmlns="http://www.w3.org/2000/svg" width="176pt" height="24.013" viewBox="0 0 176 18.01"><defs><clipPath id="a"><path d="M0 3h70v15.012H0Zm0 0"/></clipPath></defs><g clip-path="url(#a)"><path d="M42.172 3.242c-.133 0-.203.008-.203.008h-1.551c-.285-.012-.445-.004-.445-.004l-2.368.004H23.91l.332.078.528.113.457.086.593.11a77 77 0 0 1 5.024 1.07c4.765 1.395 7.789 4.285 8.77 5.398.98 1.11 3.003 3.266 3.003 3.266 4.309 4.961 8.88 4.633 8.88 4.633h1.554c.285.012.445.004.445.004l2.36-.004 12.89-.012h.805l-.301-.07-.55-.11-.458-.085-.597-.11c-2.766-.492-5.02-1.07-5.02-1.07-4.77-1.395-7.793-4.285-8.77-5.395-.98-1.113-3.007-3.265-3.007-3.265-3.77-4.344-7.743-4.637-8.676-4.64Zm-23.91 0c-.133 0-.203.008-.203.008h-1.551c-.285-.012-.445-.004-.445-.004l-2.368.004H0l.332.078.527.113.457.086.594.11c2.766.492 5.024 1.07 5.024 1.07 4.77 1.395 7.789 4.285 8.77 5.398.98 1.11 3.003 3.266 3.003 3.266 4.309 4.961 8.883 4.633 8.883 4.633h1.55c.286.012.446.004.446.004l2.36-.004 12.89-.012h.809l-.305-.07-.555-.11-.453-.085-.598-.11c-2.765-.492-5.02-1.07-5.02-1.07-4.769-1.395-7.792-4.285-8.769-5.395-.98-1.113-3.004-3.265-3.004-3.265-3.773-4.344-7.746-4.637-8.68-4.64z" style="stroke:none;fill-rule:nonzero;fill:#31b341;fill-opacity:1"/></g><path d="M54.828 15.219h.676l-.313-.067-.57-.117-.469-.09-.617-.113c-2.851-.508-5.18-1.105-5.18-1.105-4.921-1.438-8.039-4.418-9.05-5.563-1.008-1.148-3.098-3.371-3.098-3.371C31.762-.328 27.043.008 27.043.008h-1.598c-.293-.008-.46 0-.46 0H9.022l-.156.004h-.453l.344.082.543.113.469.09.617.113a80 80 0 0 1 5.183 1.106c4.914 1.437 8.032 4.422 9.043 5.566 1.012 1.145 3.102 3.367 3.102 3.367 4.445 5.121 9.164 4.785 9.164 4.785h1.598c.296.008.46 0 .46 0h2.434l13.3-.015z" style="stroke:none;fill-rule:nonzero;fill:#f8db05;fill-opacity:1"/><path d="M165.457 7.484c1.742 0 2.164 1.532 2.148 2.52h-4.527c.125-1.074.813-2.52 2.379-2.52m-17.144-.914v8.52h1.546V6.57Zm-14.102 0v8.52h1.55V6.57Zm39.394-.191c-1.828 0-2.937 1.125-2.937 2.5 0 1.02.723 1.863 2.254 2.41 1.14.422 1.582.828 1.582 1.563 0 .707-.527 1.27-1.656 1.27-.774 0-1.582-.317-2.04-.618l-.386 1.184c.598.351 1.46.578 2.39.578 2.028 0 3.188-1.055 3.188-2.551 0-1.27-.758-2.008-2.234-2.57-1.11-.422-1.621-.743-1.621-1.446 0-.633.511-1.16 1.425-1.16.793 0 1.41.281 1.743.492l.386-1.125c-.472-.281-1.23-.527-2.094-.527m-8.027-.004c-2.48 0-3.992 2.027-3.992 4.594 0 2.57 1.562 4.297 4.187 4.297 1.356 0 2.29-.282 2.832-.528l-.261-1.11c-.582.247-1.25.442-2.36.442-1.547 0-2.886-.863-2.922-2.957h5.985c.016-.16.05-.406.05-.722 0-1.567-.738-4.016-3.519-4.016m-8.906 0c-1.406 0-2.395.793-2.817 1.605h-.035l-.09-1.41h-1.37c.054.707.07 1.426.07 2.305v6.215h1.55V9.969c0-.266.036-.528.106-.723.262-.863 1.055-1.582 2.074-1.582 1.461 0 1.973 1.14 1.973 2.516v4.91h1.55v-5.086c0-2.922-1.831-3.629-3.011-3.629m-14.574 0c-1.04 0-1.97.727-2.36 1.867h-.07l-.05-1.672h-1.356c.05.793.07 1.657.07 2.66v5.86h1.531v-4.543c0-.262.032-.508.07-.719.212-1.164.985-1.988 2.079-1.988.21 0 .367.015.527.05V6.43a1.7 1.7 0 0 0-.441-.051ZM83.145 5.23h.035c.175.707.386 1.586.601 2.293l.739 2.516h-2.625l.707-2.516c.191-.687.367-1.585.543-2.293m29.925-.101c1.235.016 1.97.562 1.97 1.652 0 1.04-.79 1.707-2.126 1.707h-1.059V5.215c.196-.035.563-.086 1.215-.086m14.47-.547h.034c.176.688.352 1.39.617 2.164l1.067 3.172h-3.422l1.105-3.188c.23-.722.422-1.445.598-2.148m-.864-1.355-4.031 11.863h1.585l1.29-3.973h4.113l1.304 3.973h1.633l-4.047-11.863Zm-26.88 0V15.09h7.567v-2.2h-4.87v-2.816h4.362V7.891h-4.363V5.426h4.63v-2.2Zm-18.288 0L77.883 15.09h2.781l.844-3.047h3.398l.914 3.047h2.887l-3.68-11.863Zm-11.863 0V15.09h7.41v-2.254h-4.72v-9.61Zm79.44-.016a.944.944 0 0 0-.968.965c0 .527.39.953.934.953.613 0 1.004-.426.984-.953 0-.543-.367-.965-.95-.965m-14.097 0a.944.944 0 0 0-.968.965c0 .527.386.953.93.953.616 0 1.003-.426.988-.953 0-.543-.372-.965-.95-.965m-22.218-.074c-1.422 0-2.707.105-3.57.25V15.09h2.655v-4.664h.81c1.093.02 1.605.422 1.92 1.898.353 1.465.634 2.43.825 2.766h2.746c-.226-.457-.597-2.008-.969-3.344-.296-1.094-.753-1.883-1.582-2.219v-.054c1.02-.368 2.094-1.407 2.094-2.922 0-1.09-.386-1.918-1.09-2.48-.843-.669-2.078-.934-3.84-.934m-18.29-.102c-2.796 0-4.488 1.547-4.488 3.57 0 1.727 1.285 2.817 3.258 3.504 1.426.508 1.988.934 1.988 1.672 0 .774-.652 1.285-1.883 1.285-1.144 0-2.253-.37-2.972-.742l-.547 2.219c.668.371 2.008.723 3.363.723 3.254 0 4.785-1.688 4.785-3.68 0-1.672-.988-2.762-3.082-3.535-1.53-.582-2.199-.918-2.199-1.672 0-.617.563-1.145 1.727-1.145 1.16 0 2.004.332 2.48.563l.598-2.164c-.703-.317-1.688-.598-3.028-.598m49.676-.441V15.09h1.551V2.594z" style="stroke:none;fill-rule:nonzero;fill:#5d5d66;fill-opacity:1"/></svg>