<svg xmlns="http://www.w3.org/2000/svg" width="176pt" height="42.04" viewBox="0 0 176 31.53"><path d="m71.574 1.43-2.52.011.27-1.441h8.836L67.57 7.586l.918-3.887z" style="stroke:none;fill-rule:nonzero;fill:#f9b016;fill-opacity:1"/><path d="m25.45 7.04 1.144 8.394h-6.86ZM21.54.003 0 30.949h10.023l6.461-9.23 10.286.133 1.007 9.097h10.024L33.492 3.83 36.79.003ZM38.081 30.96 45.785 0h8.48l-7.562 30.96Zm11.785.055L57.57.046h8.48l-7.566 30.966Zm11.95 0 5.757-23.22 8.621.071-5.757 23.145Zm19.667-22.77c3.73-.851 7.457-1.465 10.918-1.465 7.102 0 8.907 2.508 8.07 6.434L95.939 30.96h-8.63c1.106-3.5 1.993-7.055 2.915-10.555-1.922 1.23-7.133 1.422-7.72 4.211-.316 1.469.856 1.895 2.067 1.895.809 0 1.649-.14 2.47-.426l-2.575 5.16a24.4 24.4 0 0 1-3.656.281c-8.223 0-6.989-6.246-6.875-6.77 2.117-9.98 16.793-6.905 17.675-11.07.332-1.562-1.171-1.894-2.382-1.894-3.145 0-6.707 1.09-9.868 2.227zm32.114 2.176.07.094c2.703-2.793 5.734-3.735 9.195-3.735 4.407 0 7.852 1.75 6.625 7.52l-4.168 16.656h-8.851c1.14-4.117 2.426-8.23 3.297-12.348.496-2.32.27-4.449-2.336-4.449-2.29 0-4.172 1.656-5.274 3.88-1.297 2.51-3.867 12.917-3.867 12.917h-8.941l6.367-23.61h8.762zm37.688 4.262c-1.7-.664-3.531-1.137-5.465-1.137-3.465 0-6.117 2.133-6.898 5.82-.758 3.551.652 5.395 4.023 5.395 1.883 0 3.914-.473 5.813-1.137l-2.574 7.05a29 29 0 0 1-6.883.856c-7.32 0-10.617-4.168-8.957-11.976.527-2.508 3.297-12.774 14.625-12.774 2.922 0 5.242.285 7.398.899zm16.29 1.562c.581-2.746-.196-4.168-2.352-4.168-2.426 0-4.223 2.129-4.883 4.168Zm-8.423 4.305c-.78 3.691 1.856 5.015 4.825 5.015 2.648 0 5.52-.804 8.195-1.562l-2.488 6.625c-2.684.57-5.399.902-8.008.902-7.149 0-12.91-2.277-10.93-11.597.535-2.508 3.738-13.153 15.691-13.153 7.375 0 10.645 3.64 9.247 10.219a21.5 21.5 0 0 1-1.07 3.55z" style="stroke:none;fill-rule:nonzero;fill:#20335f;fill-opacity:1"/></svg>