<svg xmlns="http://www.w3.org/2000/svg" width="176pt" height="69.013" viewBox="0 0 176 51.76"><defs><clipPath id="a"><path d="M79 41h39v10.762H79Zm0 0"/></clipPath></defs><path d="m136.355 7.402 13.301-.793c-7.027-.238-11.195-.238-12.508-.097l-1.964.422c-.235.234.187.375 1.171.468M133.402 10.73l21.875-.472-21.172-.746c-2.812-.188-4.355 0-4.59.515-.421.703.938.938 3.887.703M125.676 14.945l33.02-1.172-29.743-.375c-2.25 0-3.422.235-3.422.704zM127.875 19.348l33.164-1.5-35.926-.563c-.937.098-1.453.328-1.547.797-.14 1.031 1.266 1.406 4.309 1.266M123.098 23.14l39.254-.984-36.301-1.027c-2.344 0-3.563.375-3.75 1.262-.043.379.234.703.797.75M122.77 27.125l12.414-.14 1.73-1.97h-12.41c-1.875 0-2.719.422-2.484 1.266.046.469.28.797.75.844M125.531 31.293l7.871-.563 1.032-1.78-9.227.14c-1.781 0-2.672.375-2.672 1.078 0 .562.235.89.656.937zM126.754 35.04l20-.798-1.406-1.402-19.297.14-2.016.23c-.234.188-.328.47-.234.892.14.843 1.172 1.171 2.953.937M149.422 37.523l-19.906-.144c-2.438 0-3.512.285-3.465.984.23.89 1.59 1.13 4.168.89l20.422-.468z" style="stroke:none;fill-rule:evenodd;fill:#7a7e82;fill-opacity:1"/><path d="M151.902 41.598 130.5 41.41q-.703 0-.703.563c0 .703 1.496 1.027 4.45.843l19.765-.703zM138.414 45.719l11.711-.375-12.273-.469c-1.637-.234-2.48-.094-2.48.469z" style="stroke:none;fill-rule:evenodd;fill:#8f9599;fill-opacity:1"/><path d="M171.719 1.828c-4.266 1.828-12.555 6.652-24.824 14.617 6.32-3.515 12.128-6.234 17.515-8.199l9.602-3.184 1.875.141c.375.234-.188.563-1.5.934-2.246.707-6.414 2.437-12.504 5.246-7.028 3.187-11.055 5.437-12.227 6.84l8.106.187c-1.172 1.453-2.578 2.25-4.219 2.344l-1.547.047c1.781 2.902 4.688 4.543 8.668 4.777l2.715.14.14 2.11-11.382 1.121 11.008.703c.144 1.641.097 2.485-.137 2.485h-11.106l10.211 1.496-.605 2.625-9.23.703 8.199.887-1.922 2.625-5.012.656 3.89.844-4.265 2.949c-3.043-3.043-5.34-5.621-6.79-7.543l-3-4.168-4.12.89c3.605-2.574 5.527-4.542 5.855-5.714-.093-2.246-.234-3.746-.468-4.59l-1.5 1.547c-.235-2.25-.61-3.653-.98-4.215l-.563 1.73-2.485 2.157 1.778-.141c-1.075 5.996-3.508 9.836-7.352 11.383l-2.25-2.34 1.547-1.406-2.34.699-.469-.7c2.293-3.796 4.074-6.464 5.48-8.011l6.79-6.184c3.844-3.183 7.355-5.855 10.68-7.96 8.664-5.247 14.945-8.575 18.738-9.977 1.496-.563 2.105-.469 1.73.14z" style="stroke:none;fill-rule:evenodd;fill:#76133a;fill-opacity:1"/><g clip-path="url(#a)"><path d="M107.914 47.402v-1.226c0-.637.828-1.297 2.453-1.957l.899-.446v4.57h1.93v-4.995l-.282-.118c-.047-.117 0-.234.117-.355.192-.164.707-.516 1.578-1.105v7.87H92.461c0 .731-.285 1.32-.875 1.72l-1.246.402c-.403 0-.805-.211-1.23-.59-.231-.211-.188-.332.074-.352q.883.283 1.41-.215c.36-.234.52-.542.52-.964l.07-3.868-.375-.136c-.094-.098-.047-.215.144-.332l1.527-1.133.051 4.172h1.766v-4.88c-.426-.187-.426-.468 0-.776l1.46-1.036v3.918c.388-.375.946-.574 1.65-.574h5.37c.59 0 1.133.191 1.653.59q.779.639.777 1.77l-.016.988h4.707v-.942zm-24.41-4.925v5.867h4.312v-1.649c-.472-.117-.52-.355-.117-.71l1.485-1.032v4.688h-10.04l.188-2.215c0-.426.422-.969 1.297-1.555.516-.355.988-.637 1.414-.824l.07-.567c-.351-.12-.472-.238-.351-.355Zm26.394 3.16c-.636.187-.945.422-.945.773h.945Zm-29.316 2.707h1.508v-1.86l-1.156.586c-.352.235-.473.684-.352 1.274m-.379-6.719c.59 0 .848.238.848.66 0 .356-.258.543-.848.543-.45 0-.683-.187-.683-.543 0-.422.234-.66.683-.66m1.84 0c.59 0 .871.238.871.66 0 .356-.281.543-.871.543-.426 0-.66-.187-.66-.543 0-.422.234-.66.66-.66m2.828 8.488c.543 0 .824.235.824.66 0 .352-.28.54-.824.54-.473 0-.707-.188-.707-.54 0-.425.234-.66.707-.66m1.93 0c.543 0 .828.235.828.66 0 .352-.285.54-.828.54-.469 0-.707-.188-.707-.54 0-.425.238-.66.707-.66m21.566-8.601c.586 0 .848.234.848.656 0 .355-.262.543-.848.543-.453 0-.683-.188-.683-.543 0-.422.23-.656.683-.656m1.91 0c.563 0 .825.234.825.656 0 .355-.262.543-.825.543-.425 0-.664-.188-.664-.543 0-.422.239-.656.664-.656m-6.5 6.832h-8.02v-1.375c.223-.395.575-.606 1.087-.606h5.886c.57 0 .875.121.993.403l.07.66Zm13.38-6.528v7.825h-1.462v-6.293c-.14.047-.234 0-.257-.118l.117-.355z" style="stroke:none;fill-rule:evenodd;fill:#76133a;fill-opacity:1"/></g><path d="M47.879 36.234h5.457L42.418 11.797h-2.027L29.73 36.234h3.175l3.098-7.593h8.777zm-10.965-9.828 3.477-8.527 3.476 8.527zM88.121 36.234h5.461L82.664 11.797h-2.027l-10.66 24.437h3.171l3.094-7.593h8.785zm-10.965-9.828 3.48-8.527 3.477 8.527zM52.52 11.797h18.492v2.96H64.41v21.477h-5.25V14.758h-6.64zM27.504 24.332c0-7.262-6.156-13.152-13.75-13.152C6.156 11.18 0 17.07 0 24.332c0 7.266 6.156 13.156 13.754 13.156.684 0 1.351-.062 2.012-.156l7.312 6.598 3.899-3.121-7.727-4.422c4.86-2.032 8.254-6.66 8.254-12.055m-13.75 10.809c-5.047 0-9.133-4.84-9.133-10.809s4.086-10.805 9.133-10.805c5.043 0 9.129 4.836 9.129 10.805s-4.086 10.809-9.13 10.809M107.98 24.848c2.547-.52 6.211-2.914 6.211-7.723s-5.68-5.328-5.68-5.328H97.685v24.437h4.265V25.367h1.453l7.02 10.606h6.031zm-6.03-1.508V13.094h5.51s2.962 1.668 2.962 4.734c0 3.067-1.3 5.512-3.172 5.512z" style="stroke:none;fill-rule:evenodd;fill:#76133a;fill-opacity:1"/><path d="M31.379 41.043h1.172l3.117 7.977h-1.176l-.87-2.399H30.25l-.895 2.399h-1.093zm-.793 4.684h2.703l-1.328-3.723h-.027zM36.492 49.02h1.063v-7.977h-1.063ZM39.344 41.043h3.754c1.496 0 2.422.816 2.422 2.09 0 .96-.426 1.758-1.383 2.023v.024c.925.175 1.117.86 1.191 1.64.07.782.024 1.653.469 2.2h-1.184c-.3-.32-.133-1.184-.289-1.965-.11-.782-.3-1.442-1.328-1.442h-2.594v3.407h-1.058zm3.27 3.676c.995 0 1.843-.254 1.843-1.418 0-.781-.422-1.364-1.418-1.364h-2.637v2.782zM54 49.02h-1.105l-1.825-6.704h-.02l-1.843 6.704h-1.105l-2.047-7.977h1.086l1.562 6.637h.024l1.785-6.637h1.152l1.766 6.637h.023l1.617-6.637h1.063zM59.04 41.043h1.17l3.118 7.977h-1.176l-.87-2.399H57.91l-.894 2.399h-1.094zm-.797 4.684h2.707l-1.332-3.723h-.023zM66.578 45.758v3.262h-1.062v-3.262l-3.082-4.715h1.261l2.39 3.8 2.337-3.8h1.207zM75.133 43.379c-.121-1.14-.88-1.629-1.977-1.629-.89 0-1.785.32-1.785 1.36 0 .984 1.274 1.128 2.559 1.421 1.273.29 2.547.735 2.547 2.301 0 1.695-1.665 2.379-3.118 2.379-1.789 0-3.296-.871-3.296-2.816h1.007c0 1.34 1.114 1.921 2.32 1.921.962 0 2.024-.3 2.024-1.453 0-1.093-1.273-1.285-2.547-1.562-1.273-.278-2.558-.649-2.558-2.11 0-1.62 1.441-2.336 2.894-2.336 1.629 0 2.871.77 2.938 2.524z" style="stroke:none;fill-rule:nonzero;fill:#7a7e82;fill-opacity:1"/></svg>