<svg xmlns="http://www.w3.org/2000/svg" xmlns:xlink="http://www.w3.org/1999/xlink" id="Layer_1" version="1.1" viewBox="0 0 179 56"><defs><mask id="mask" width="21.8" height="7.8" x="20.1" y="23.7" maskUnits="userSpaceOnUse"><path id="mask0_301_83" d="M33.1 24.4c-6.5-1.6-10.3-.3-11.3 1.1L20.1 31c.9-1.4 4.7-2.6 11.3-1.1 3.5.9 6.5 1.4 8.9 1.6L42 26c-2.4-.3-5.3-.8-8.9-1.6" class="st4"/></mask><mask id="mask-1" width="25.6" height="8" x="22.2" y="17.1" maskUnits="userSpaceOnUse"><path id="mask1_301_83" d="M35.1 17.8c-6.5-1.6-10.3-.3-11.3 1.1l-1.7 5.5c.9-1.4 4.7-2.6 11.3-1.1 5.7 1.4 9.8 1.9 12.7 1.8l1.7-5.5c-2.9.1-7-.4-12.7-1.8" class="st4"/></mask><mask id="mask-2" width="29.8" height="8" x="24.2" y="10.5" maskUnits="userSpaceOnUse"><path id="mask2_301_83" d="M37.2 11.2c-6.5-1.6-10.3-.3-11.3 1.1l-1.7 5.5c.9-1.4 4.7-2.6 11.3-1.1 9.1 2.2 14.1 2.3 16.8.9.4-1.2 1.1-3.4 1.7-5.5-2.7 1.4-7.7 1.3-16.8-.9" class="st4"/></mask><mask id="mask-3" width="18.6" height="16.4" x="2" y="18.3" maskUnits="userSpaceOnUse"><path id="mask3_301_83" d="M12 22c6.3 2.4 8.7 5.6 8.7 7.2L19 34.7c0-1.7-2.4-4.8-8.7-7.2-3.4-1.3-6.1-2.5-8.2-3.7l1.7-5.5c2.1 1.2 4.8 2.4 8.2 3.7" class="st4"/></mask><mask id="mask-4" width="21.9" height="18.4" x=".9" y="9.7" maskUnits="userSpaceOnUse"><path id="mask4_301_83" d="M14 15.4c6.3 2.4 8.7 5.6 8.7 7.2L21 28.1c0-1.7-2.4-4.8-8.7-7.2C6.9 18.8 3.2 17 .8 15.2l1.7-5.5c2.3 1.8 6 3.6 11.5 5.7" class="st4"/></mask><mask id="mask-5" width="86.8" height="49.9" x="0" y="0" maskUnits="userSpaceOnUse"><path id="mask5_301_83" d="M0 49.9h86.8V0H0z" class="st4"/></mask><mask id="mask-6" width="24.8" height="21.5" x="0" y="0" maskUnits="userSpaceOnUse"><path id="mask6_301_83" d="M16.1 8.8c6.3 2.4 8.7 5.6 8.7 7.2l-1.7 5.5c0-1.7-2.4-4.8-8.7-7.2C5.6 10.9 1.4 8.2 0 5.5.4 4.3 1.1 2 1.7 0c1.4 2.7 5.6 5.4 14.4 8.8" class="st4"/></mask><linearGradient id="linear-gradient" x1="21.8" x2="40.3" y1="32.4" y2="26.6" gradientTransform="matrix(1 0 0 -1 0 58)" gradientUnits="userSpaceOnUse"><stop offset="0" stop-color="#d78618"/><stop offset=".1" stop-color="#d78618"/><stop offset=".7" stop-color="#fabd09"/><stop offset="1" stop-color="#fabd09"/></linearGradient><linearGradient xlink:href="#linear-gradient" id="linear-gradient1" x1="24" x2="46" y1="39.5" y2="32.6"/><linearGradient id="linear-gradient2" x1="26.3" x2="51.9" y1="47" y2="39.1" gradientTransform="matrix(1 0 0 -1 0 58)" gradientUnits="userSpaceOnUse"><stop offset="0" stop-color="#d78618"/><stop offset=".1" stop-color="#d78618"/><stop offset=".7" stop-color="#fabd09"/><stop offset="1" stop-color="#fabd09"/></linearGradient><linearGradient id="linear-gradient3" x1="20.6" x2="2.1" y1="28.6" y2="34.4" gradientTransform="matrix(1 0 0 -1 0 58)" gradientUnits="userSpaceOnUse"><stop offset="0" stop-color="#bf651d"/><stop offset=".4" stop-color="#d78618"/><stop offset="1" stop-color="#fabd09"/></linearGradient><linearGradient xlink:href="#linear-gradient3" id="linear-gradient4" x1="22.8" x2=".8" y1="35.7" y2="42.5"/><linearGradient xlink:href="#linear-gradient3" id="linear-gradient5" x1="25.2" x2="-.4" y1="43.3" y2="51.2"/><style>.st4{fill:#fff}.st8{fill:#535258}</style></defs><g style="mask:url(#mask)"><path d="M33.1 24.4c-6.5-1.6-10.3-.3-11.3 1.1L20.1 31c.9-1.4 4.7-2.6 11.3-1.1 3.5.9 6.5 1.4 8.9 1.6L42 26c-2.4-.3-5.3-.8-8.9-1.6" style="fill:url(#linear-gradient)"/></g><g style="mask:url(#mask-1)"><path d="M35.1 17.8c-6.5-1.6-10.3-.3-11.3 1.1l-1.7 5.5c.9-1.4 4.7-2.6 11.3-1.1 5.7 1.4 9.8 1.9 12.7 1.8l1.7-5.5c-2.9.1-7-.4-12.7-1.8" style="fill:url(#linear-gradient1)"/></g><g style="mask:url(#mask-2)"><path d="M37.2 11.2c-6.5-1.6-10.3-.3-11.3 1.1l-1.7 5.5c.9-1.4 4.7-2.6 11.3-1.1 9.1 2.2 14.1 2.3 16.8.9.4-1.2 1.1-3.4 1.7-5.5-2.7 1.4-7.7 1.3-16.8-.9" style="fill:url(#linear-gradient2)"/></g><g style="mask:url(#mask-3)"><path d="M12 22c6.3 2.4 8.7 5.6 8.7 7.2L19 34.7c0-1.7-2.4-4.8-8.7-7.2-3.4-1.3-6.1-2.5-8.2-3.7l1.7-5.5c2.1 1.2 4.8 2.4 8.2 3.7" style="fill:url(#linear-gradient3)"/></g><g style="mask:url(#mask-4)"><path d="M14 15.4c6.3 2.4 8.7 5.6 8.7 7.2L21 28.1c0-1.7-2.4-4.8-8.7-7.2C6.9 18.8 3.2 17 .8 15.2l1.7-5.5c2.3 1.8 6 3.6 11.5 5.7" style="fill:url(#linear-gradient4)"/></g><g style="mask:url(#mask-5)"><g style="mask:url(#mask-6)"><path d="M23.1 21.5H0h.5" style="fill:url(#linear-gradient5)"/></g></g><path d="M24.8 45.7c-2.3 0-4.2-.7-5.9-2.2l1.8-2.2c1.4 1.1 2.7 1.7 4.1 1.7s1.1-.1 1.5-.4c.4-.2.5-.6.5-1s-.2-.7-.6-1c-.4-.2-1.1-.5-2.2-.8-.8-.2-1.4-.4-1.9-.6s-1-.4-1.4-.8c-.4-.3-.8-.7-1-1.2s-.3-1.1-.3-1.7c0-1.3.5-2.3 1.4-3 .9-.8 2.1-1.1 3.5-1.1s3.7.6 5.1 1.8l-1.6 2.3c-1.3-.9-2.5-1.4-3.6-1.4s-1 .1-1.3.3-.5.5-.5.9.2.8.6 1 1.2.5 2.4.8q2.25.6 3.3 1.5c.7.6 1.1 1.5 1.1 2.7s-.5 2.4-1.4 3.2-2.2 1.1-3.7 1.1ZM31 45.5V31.1h3v7.7l3.5-3.9h3.6l-4 4.2 4.2 6.4h-3.4l-2.8-4.3-1 1.1v3.2h-3Z" class="st8"/><path d="M43.8 48.7c-.9 0-1.8-.2-2.7-.7l1-2.2c.5.3.9.4 1.3.4s.8-.2 1-.7l-4.1-10.6h3.2l2.4 7.2 2.3-7.2h3.1l-4.1 10.8c-.4 1.1-.9 1.9-1.4 2.3s-1.2.7-2.1.7ZM52.6 45.5V31.7h1v12.9h8.1v.9zM63.6 45.5V35.4h1v10.1zm-.1-12.7v-1.3h1.2v1.3zM67.2 45.5V35.4h1v1.9q1.2-2.1 3.6-2.1c2.4 0 2.2.4 2.9 1.1.7.8 1.1 1.8 1.1 3v6.2h-1v-6c0-1-.3-1.9-.8-2.5q-.9-.9-2.4-.9c-1.5 0-1.8.3-2.5 1s-1 1.5-1 2.6v5.8h-1ZM78.4 40h7.3q0-.75-.3-1.5c-.2-.5-.4-.9-.7-1.2-.3-.4-.7-.7-1.1-.9q-.75-.3-1.5-.3c-1 0-1.8.4-2.5 1.1s-1.1 1.7-1.2 2.8m-1 .4c0-.7.1-1.4.4-2 .2-.6.6-1.2 1-1.7s.9-.8 1.5-1.1 1.2-.4 1.9-.4 1.7.2 2.4.7 1.3 1.1 1.6 1.9q.6 1.2.6 2.7v.4h-8.4c0 1.2.5 2.2 1.3 2.9s1.7 1.1 2.7 1.1 2.5-.5 3.5-1.6l.7.6c-.6.6-1.2 1.1-1.8 1.4-.7.3-1.4.5-2.3.5s-1.3-.1-1.9-.4-1.1-.6-1.6-1.1-.8-1-1.1-1.7-.4-1.4-.4-2.2ZM20.2 55.9v-4.5h3.3v.5h-2.7v1.5h2.5v.5h-2.5v1.6h2.8v.5h-3.3ZM26.9 55.9l1.7-2.3-1.7-2.2h.6l1.4 1.8 1.4-1.8h.6l-1.7 2.2 1.7 2.3h-.6L28.9 54l-1.4 1.9zM35.2 53.9h1.1c.4 0 .7 0 .9-.3.2-.2.3-.4.3-.7s-.1-.6-.3-.7q-.3-.3-.9-.3h-1.1zm-.5 2v-4.5h1.7c.5 0 .9.1 1.2.4s.5.6.5 1.1-.2.8-.5 1.1-.8.4-1.3.4h-1.1V56h-.5ZM42.2 53.7h1.4c.3 0 .6 0 .8-.3.2-.2.3-.4.3-.7s-.1-.5-.3-.7-.5-.2-.8-.2h-1.4v1.8Zm-.5 2.2v-4.5h1.9c.6 0 1 .2 1.3.4q.3.3.3.9c0 .6-.1.7-.3.9s-.5.4-.9.4l1.4 1.8h-.6l-1.3-1.7h-1.3v1.7h-.5ZM49.1 55.9v-4.5h3.3v.5h-2.7v1.5h2.5v.5h-2.5v1.6h2.8v.5h-3.3ZM57.7 56c-.7 0-1.3-.2-1.8-.7l.3-.4c.2.2.5.4.7.5s.5.2.8.2.5 0 .7-.2q.3-.15.3-.6c0-.45 0-.4-.2-.5q-.3-.15-.9-.3c-.5-.1-.9-.3-1.2-.5-.2-.2-.4-.5-.4-.8s.1-.6.4-.9c.3-.2.6-.3 1.1-.3s1.1.2 1.6.6l-.3.4c-.4-.3-.8-.5-1.3-.5s-.5 0-.7.2c-.2.1-.3.3-.3.5s0 .4.3.5c.2.1.5.2 1 .3s.9.3 1.1.5.4.5.4.8-.1.7-.4.9-.7.4-1.1.4ZM64.5 56c-.7 0-1.3-.2-1.8-.7l.3-.4c.2.2.5.4.7.5s.5.2.8.2.5 0 .7-.2q.3-.15.3-.6c0-.45 0-.4-.2-.5q-.3-.15-.9-.3c-.5-.1-.9-.3-1.2-.5-.2-.2-.4-.5-.4-.8s.1-.6.4-.9c.3-.2.6-.3 1.1-.3s1.1.2 1.6.6l-.3.4c-.4-.3-.8-.5-1.3-.5s-.5 0-.7.2c-.2.1-.3.3-.3.5s0 .4.3.5c.2.1.5.2 1 .3s.9.3 1.1.5.4.5.4.8-.1.7-.4.9-.7.4-1.1.4Z" class="st8"/></svg>