<?xml version="1.0" encoding="UTF-8"?>
<svg id="Layer_1" xmlns="http://www.w3.org/2000/svg" version="1.1" viewBox="0 0 179 56">
  <!-- Generator: Adobe Illustrator 29.0.1, SVG Export Plug-In . SVG Version: 2.1.0 Build 192)  -->
  <defs>
    <style>
      .st0 {
        fill: #3c3c3c;
      }

      .st1 {
        fill: #de5d27;
      }

      .st2 {
        fill: #ce2335;
      }

      .st3 {
        fill: #c03c4e;
      }

      .st4 {
        fill: #111636;
      }
    </style>
  </defs>
  <g>
    <path class="st2" d="M49.6,15.9c7.1-2.5,5.6,5.3,4.3,9.4s-5,9.7-8.9,13.1-2.6,2.2-3.1,2.5-.4.1-.6,0c-.3-2.4-1-4.8-1.7-7.1-1.4-4.3-4-10.8-9.7-7.8-.1-.1.5-2.2.7-2.5,2.1-5.7,6.4-10,12.1-12.3s8-1.4,7,4.5Z"/>
    <path class="st2" d="M6.1,33.9c-2.8-3.7-4.7-7.9-5.7-12.6s-.2-6.9,5.5-5.2c-2.7-9.8,8.2-4.6,12-1.5s6.8,7.6,7.7,11.2,0,.3,0,.3c-6.5-3-9.2,5.5-10.3,10.2-.7,1.1-.7,2.7-1,4.1-.8,0-1.5-.5-2.2-1s-4.3-3.6-4.9-4.3-.2-1.1-1.1-1.3Z"/>
    <path class="st2" d="M39.5,11.3l-1.2,1.1c-1.5,1.1-3.2,2.5-4.4,3.8v-1.2c0,0-1.1-.2-1.1-.2,0-.3,0-1.4-.5-1.3-1.1.9-2.8,1.4-3.2,3h-1.1c-.3-.1,0-2.5,0-3.1s.2-.8-.3-.7c-.7.8,0,2.4-.9,2.8v.6c-.4,0-.7,0-1-.3-.5-.4-.2-1.5-.7-1.3-.7.3.2,4-2,2.9,0,.5,0,.9.2,1.4-2.3-2.6-4.6-5.2-7.4-7.3.2-2.5.4-4.7,1.7-7S21.1.5,23,.3s3.5,1.1,4.8,2.7c1.7-2.2,3.4-4,6.3-2.3s5.3,7.2,5.4,10.6ZM21.6,16.3c.9.6,1.5-1.4,0-.9s-.2.8,0,.9Z"/>
    <path class="st2" d="M15.6,41.8c-.3-.5.8-5.1,1-6,.7-2.5,3.1-8.6,6.2-8.7s3.4,1.7,4.5,2.7c.3,0,1.4-1.3,1.8-1.6,2.9-2.2,5.6-.8,7.3,2s3,7.5,3.9,11.4l-3.4,2.3c-2.3-1.6-4.8-3.3-7.6-3.8-4.1-.7-7.3,1-10.4,3.4l-3.3-1.8Z"/>
    <path class="st4" d="M91.3,11.1c0,.5-.2,1.1-.7,1.3-1.1.5-3.7.2-5.1.5s-4.2,1.1-4.4,3c1.5-.6,3-.8,4.4.1,1.1,4.6,1.7,10-.5,14.3-.7-.3-1.4-.6-2-1.1s-2.7-2.7-3-2.8-.4.3-.7.4-1-.3-1.4-.4c-.5-.6-.2-6.6,0-7.8s.3-1.6.5-2c.3-.6,1.3-.8,1.1-2-2.2,1.2-5.2,2.7-7.6,3.2s-1.7.4-2.5-.2c-.8-1-.3-4.5,1.2-4.4s.5.5,1,.6c1.1.2,5.5-.5,5.9-1.7l-.4-3.1,4.1-.4-.4-1.1h-1.9c0-.1-1.1-1.9-1.1-1.9,0-.4,0-.2.3-.3,1.1-.3,2.3-.5,3.4-.8l-1-3.9c1.6.1,4.8.3,5.2,2.3s-.4,2.3-.5,3.5c-.5,4.6,2.9,4.2,6.4,4.5ZM83.4,17.6l-1.2-.6-.2.9c.4.6.7.4,1.2.1v-.4ZM83.8,20.4l-1.4.2c0,.6.5,1.2,1.2,1.2l.2-1.4ZM80.9,22.1h-1.1c0,.9-.1,1.8.4,2.6s3,1.9,3.7,1.4v-1.6c-.8-1-2.7-.9-2.9-2.3Z"/>
    <path class="st4" d="M141,16.3c-.5-.5-2.3,2.2-2.5,2.5-1.4,2.3-2.1,5.1-3.4,7.4-.9,0-3.4-2.1-3.3-2.8s1.6-.6,2.1-.8c.2-.2.5-.4.5-.6.2-.6.3-3,.2-3.6-.2-1.5-.9-2.3-2.3-1.4l.9,1.6c.1,1.5-2.1.3-2.2.4.4,1.8.1,3.2-.9,4.7-2.6-.6-1.2-3.7-.7-5.4l-1.5.2-.5.9c-.9-.1-2.5.6-3.3,0s-1.1-1.5-.5-1.9c1.1-.7,5.7-.8,6-1.9s0-2.8.6-3.4c1.6-1.3,2.5,1.3,3.7,2l-.7-4.3c-.3-.5-2-.5-2.6-.3l-.4-.2c.4-.8.4-1.1,0-1.9h.8c-.2-2.3,1.2-2.3,2.8-1.5.2.3-.1.9-.1,1.3,0,1.4,1.4,1.9,2.3,2.7l-.2,8.4c2-.6,2.5-3.2,3.5-4.8l-2.5-1.5c1.2-2.1,2.4-4.1,2.1-6.7.1-.1,2.1,0,2.4,0,.8.2.4,2.3.7,3.1h1.5c1.6,1.8-.7,3-1.5,4.4l1.9,2.1c-.2,2.5-2.8,5.8.4,7.3s3.1.5,4.2-.8,1.8-3.7,2.4-3.5c1.7,1.1,1.3,3,1.3,4.8-3.4,1.6-8.8,3.6-10.6-1.1-.1-.4-.6-2-.6-2.3v-3.2Z"/>
    <path class="st4" d="M108.4,10.9c-.3.4-.4,2.1.1,2.4s3.2.5,3.7.5.5,0,.7,0v1.4c0,0-4.8.6-4.8.6l.2,1.3c1.7.6,3.3-.1,5,0,5.3.7,1.8,6.4-.1,8.9-.8.6-2.5-.1-3.2-.7s-.3-.6-.7-.8c-1.1-.7-3.3-.4-4.6-.2s-4.7,1.9-5.8,1.4-1.7-2.4-1.7-3.1.2-2.9.9-2.8c1.2.7.9,1.8,1.5,2.8l2.1-.3c-.4-.6-.4-1.5-.7-2.1s-.9-.4-.6-1.6l.4.6,1.4-.3v-1s-.6-.1-.6-.1V7.5c.2-.9,1.5-1.7,1.8-2.7s0-1.6.7-2c1.7-.7,4.8,3.6,5,4.8s-.1,2.8-.2,3-.4.2-.5.4ZM106.4,8.4c-.4-1.8-.7-2.9-2.4-1.4l.4.9,2,.4ZM106.6,11c0-.4.4-.9,0-1.1l-.8.2-.4,1.1,1.3-.2ZM106.8,12.6c-1.2.1-3.1.6-2.9,2.1l2.7-.9.2-1.3ZM106.4,16.1c-.6-.6-3.9.7-3.6,1.6.7,1.1,4.9-.3,3.6-1.6ZM111.9,18.4c-1.2-.1-2.5,0-3.7,0l-.3,1.4.5-.2.3.3c.2,1.5-.3,3.4,1.7,3.6s.7,0,1.1,0c-.4-.8,2.2-4.4,1.5-4.8-.4,0-.8-.2-1-.2ZM106.9,19.6l-1.3-.6c.2.6-.7,1.6-.5,1.9.7,1.2,2.8.4,1.8-1.3Z"/>
    <path class="st4" d="M162.6,17.1l2,.4c.5-.2.6-.8,1-1.1s1.1-.3,1.5-.6c1-.7,1.5-2.3,1.3-3.5.5,0,1,.1,1.5.4s1.7.8,1.5,1.3c-.5,1.5-1.2,2.1-2.5,2.9l.7,2.7-1.1,2.5c.7.5,3.8,2.2,3.2,3.2s-5.8,1.8-6.6,1.9-2,0-2.4-1.1c0-1.7,1.1-3,1.7-4.6-.7-1.4-2-2.6-1.7-4.4Z"/>
    <path class="st1" d="M23.3,18.8c-.2-.4-.2-.9-.2-1.4,2.2,1.1,1.3-2.6,2-2.9s.2.8.7,1.3.6.3,1,.3v-.6c.8-.5.2-2.1.9-2.8.5,0,.3.4.3.7,0,.6-.2,3,0,3.2h1.1c.3-1.6,2-2.1,3.2-3.1.5,0,.4,1,.5,1.3l1.1.2v1.2c-.4.6-.4.9-.7,1.4-.9,1.5-2,2.7-2.9,4.2s-1.5,2.7-2.4,4c-.4.1-1.8-2.7-2.1-3.3-.6-.9-2.1-2.7-2.4-3.5Z"/>
    <path class="st4" d="M176.9,7.1c.6.5,2.1,2.9,1,3.5-2.2.3-4.6.5-6.8,0-.6-1.1.9-1.8,1.4-2.7-.7,0-2.8.7-3.2,1.1s0,.6-.4.7c-.9.5-2.4.4-3.3.4.7,2.6,1,5.1-2.3,5.4-.5-1.8.2-3.3.4-5.1-3.5-1.3-1.1-2.4,1.3-2.4l-.8-2.9c1.7-.1,3,1.2,4.6,1.5s1.4.2,1.9.2c1.2,0,5.6-.3,6.2.2Z"/>
    <path class="st4" d="M159.2,9.5c.1,2.3.9,4.3.6,6.6s-2.3,2.2-2.8,0,0-4.4.5-5.6.9-1,1.8-1Z"/>
    <path class="st3" d="M6.1,33.9c.9.2.7.9,1.1,1.3.5.7,4.2,3.8,4.9,4.3s1.3,1,2.2,1c.2-1.3.2-2.9,1-4.1-.3,1.4-.4,2.9-.8,4.3s.1.4-.3.3c-2.6-1.5-5-3.3-7-5.6s-.7-1.1-1.1-1.5Z"/>
    <path class="st3" d="M33.2,17.5c.3-.4.3-.8.8-1.4,1.2-1.3,2.9-2.7,4.4-3.8l1.2-1.1s.3.2.1.4c-.4.7-1.1.8-1.6,1.2-1.8,1.4-3.4,3-4.9,4.6Z"/>
    <path class="st1" d="M21.6,16.3c-.2-.1-.3-.8,0-.9,1.4-.4.8,1.6,0,.9Z"/>
  </g>
  <g>
    <path class="st0" d="M73,41.6l.2.3c.1.2.2.3.3.4s.2.2.3.4c.1.1.2.2.3.3.1,0,.2.1.3.1,0,0,.2,0,.3,0,.2,0,.4,0,.6-.1.2,0,.3-.2.5-.3l.3.4c-.3.3-.6.5-.9.7-.3.1-.6.2-.9.2s-.4,0-.6,0c-.2,0-.3-.1-.5-.2s-.3-.2-.5-.4c-.2-.2-.4-.5-.7-.8l-.5-.6c-1.1,0-1.9-.4-2.4-1.1-.5-.7-.8-1.7-.8-2.9s.1-1.6.4-2.2c.3-.6.7-1.1,1.2-1.4.5-.3,1.2-.5,1.9-.5s1.4.2,1.9.5c.5.3.9.8,1.2,1.4.3.6.4,1.3.4,2.2s-.2,2-.6,2.7c-.4.7-1,1.2-1.8,1.4ZM69.8,37.5c0,1.2.2,2.1.6,2.7.4.6.9.9,1.7.9s.9-.1,1.2-.4c.3-.3.6-.7.7-1.2s.2-1.1.2-1.8,0-1.6-.3-2.1c-.2-.6-.4-1-.8-1.2-.3-.3-.7-.4-1.1-.4s-.7,0-1,.2c-.3.2-.5.4-.7.7-.2.3-.3.7-.4,1.1,0,.4-.1.9-.1,1.4Z"/>
    <path class="st0" d="M79,40.1c0,.3,0,.5,0,.6,0,.1,0,.2,0,.3,0,0,.1.1.2.2,0,0,.2,0,.4.1v.3h-2.7v-.3c.3,0,.4-.1.5-.2,0,0,.1-.2.2-.3,0-.1,0-.4,0-.6v-5.1c0-.3,0-.5,0-.6,0-.1,0-.2-.1-.3,0,0-.1-.1-.2-.2,0,0-.2,0-.4-.1v-.3h2.7v.3c-.2,0-.3,0-.4.1s-.1,0-.2.2c0,0,0,.2-.1.3,0,.1,0,.3,0,.6v5.1Z"/>
    <path class="st0" d="M86.4,38.4c.2.2.3.4.4.6.1.2.2.4.3.6h0c0-.2,0-.7,0-1.4,0-.7,0-1.4,0-1.9v-1.2c0-.3,0-.5,0-.6s0-.2,0-.3c0,0-.1-.1-.2-.2,0,0-.2,0-.4-.1v-.3h2.3v.3c-.2,0-.3,0-.4.1,0,0-.1,0-.2.2,0,0,0,.2-.1.3,0,.1,0,.3,0,.6v6.6h-.8l-3.6-5.5c-.2-.3-.4-.6-.5-.7,0-.2-.2-.3-.3-.5h-.1c0,.3,0,.8,0,1.6,0,.8,0,1.6,0,2.4v1.2c0,.3,0,.5,0,.6,0,.1,0,.2,0,.3,0,0,.1.1.2.2,0,0,.2,0,.4.1v.3h-2.3v-.3c.3,0,.4-.1.5-.2,0,0,.1-.2.2-.3s0-.4,0-.6v-5.1c0-.3,0-.5,0-.6,0-.1,0-.2-.1-.3,0,0-.1-.1-.2-.2,0,0-.2,0-.4-.1v-.3h2l3.2,4.8Z"/>
    <path class="st0" d="M96.3,41.6h-.5c0,.1-.5-.3-.5-.3-.3.2-.6.3-.9.3-.3,0-.6.1-1,.1-1.1,0-1.9-.3-2.4-1-.5-.7-.8-1.7-.8-3s.1-1.6.4-2.2c.3-.6.7-1.1,1.3-1.5.6-.3,1.2-.5,2-.5s.8,0,1.1,0,.8.1,1.2.2v1.6h-.6c-.1-.4-.3-.6-.4-.8-.2-.2-.3-.3-.6-.4-.2,0-.5-.1-.8-.1s-.9.1-1.2.4c-.3.3-.6.7-.8,1.2-.2.5-.3,1.2-.3,1.9s0,1.4.2,2c.2.5.4,1,.7,1.2.3.3.7.4,1.2.4s.9-.1,1.1-.3.4-.5.4-.9v-.4c0-.4,0-.6,0-.8,0-.2-.1-.3-.2-.4-.1,0-.3-.2-.5-.2v-.3h2.6v.3c-.2,0-.3.1-.3.2s-.1.1-.2.2c0,0,0,.2,0,.3,0,.1,0,.3,0,.6v2Z"/>
    <path class="st0" d="M98.1,41.6v-.3c.2,0,.3,0,.4-.1s.2,0,.2-.2c0,0,0-.2.1-.3s0-.3,0-.6v-5.1c0-.3,0-.5,0-.6s0-.2-.1-.3c0,0-.1-.1-.2-.2s-.2,0-.4-.1v-.3h2.8c.8,0,1.5,0,2,.2.5.2.9.4,1.3.7.4.3.6.7.8,1.2.2.5.3,1,.3,1.7s0,1.2-.2,1.7c-.2.5-.4.9-.7,1.3-.3.3-.6.5-1,.7-.3.2-.7.3-1.1.3s-1,0-1.7,0h-2.3ZM100.1,41.1c.2,0,.4,0,.8,0s.7,0,1,0c.3,0,.5-.1.8-.3.2-.1.4-.3.6-.5s.3-.5.4-.7c.1-.3.2-.6.3-.9s0-.7,0-1.1c0-.8-.1-1.4-.4-2-.2-.5-.6-.9-1.1-1.1-.5-.2-1-.4-1.6-.4s-.6,0-.8,0v6.9Z"/>
    <path class="st0" d="M110.7,41.6v-.3c.2,0,.4,0,.5-.1s.2-.1.2-.2c0,0,0-.2,0-.3s0-.3,0-.4c0-.2,0-.3-.1-.5l-.2-.8h-3l-.2.6c-.1.3-.2.5-.2.7,0,.1,0,.3,0,.4,0,.2,0,.4.2.5s.3.2.6.2v.3h-2.7v-.3c.2,0,.4-.2.6-.4.2-.2.3-.5.5-.9l2.7-6.5h1l2.2,6.6c.1.3.2.5.3.7s.2.3.3.4c.1,0,.3.2.5.2v.3h-2.9ZM108.3,38.4h2.7l-1.2-3.8-1.5,3.8Z"/>
    <path class="st0" d="M117.7,41.7c-.5,0-1,0-1.4-.2-.4-.2-.8-.4-1.1-.7s-.5-.7-.7-1.3-.2-1.1-.2-1.8.1-1.6.4-2.2c.3-.6.7-1.1,1.2-1.4s1.2-.5,1.9-.5,1.4.2,1.9.5.9.8,1.2,1.4c.3.6.4,1.3.4,2.2s-.1,1.7-.4,2.3-.7,1.1-1.3,1.4-1.2.5-1.9.5ZM115.7,37.5c0,1.2.2,2.1.6,2.7.4.6.9.9,1.7.9s.9-.1,1.2-.4c.3-.3.6-.7.7-1.2.2-.5.2-1.1.2-1.8s0-1.6-.3-2.1c-.2-.6-.4-1-.8-1.2-.3-.3-.7-.4-1.1-.4s-.7,0-1,.2c-.3.2-.5.4-.7.7-.2.3-.3.7-.4,1.1,0,.4-.1.9-.1,1.4Z"/>
    <path class="st0" d="M130.1,41.6v-.3c.2,0,.4,0,.5-.1s.2-.1.2-.2c0,0,0-.2,0-.3s0-.3,0-.4c0-.2,0-.3-.1-.5l-.2-.8h-3l-.2.6c-.1.3-.2.5-.2.7,0,.1,0,.3,0,.4,0,.2,0,.4.2.5s.3.2.6.2v.3h-2.7v-.3c.2,0,.4-.2.6-.4.2-.2.3-.5.5-.9l2.7-6.5h1l2.2,6.6c.1.3.2.5.3.7s.2.3.3.4c.1,0,.3.2.5.2v.3h-2.9ZM127.6,38.4h2.7l-1.2-3.8-1.5,3.8Z"/>
    <path class="st0" d="M135.9,40.1c0,.3,0,.5,0,.6,0,.1,0,.2,0,.3,0,0,.1.1.2.2s.2,0,.4.1v.3h-2.7v-.3c.3,0,.4-.1.5-.2,0,0,.1-.2.2-.3,0-.1,0-.4,0-.6v-5.1c0-.3,0-.5,0-.6,0-.1,0-.2-.1-.3s-.1-.1-.2-.2-.2,0-.4-.1v-.3h2.7v.3c-.2,0-.3,0-.4.1,0,0-.1,0-.2.2,0,0,0,.2-.1.3,0,.1,0,.3,0,.6v5.1Z"/>
    <path class="st0" d="M140.1,38.1v2c0,.3,0,.5,0,.6,0,.1,0,.2.1.3,0,0,.1.1.2.2s.2,0,.4.1v.3h-2.7v-.3c.3,0,.4-.1.5-.2,0,0,.1-.2.2-.3,0-.1,0-.4,0-.6v-5.1c0-.3,0-.5,0-.6,0-.1,0-.2-.1-.3s-.1-.1-.2-.2-.2,0-.4-.1v-.3h3.2c1,0,1.7.2,2.2.5.5.3.7.8.7,1.6s-.2,1-.5,1.4c-.3.4-.8.7-1.4.9h0c.3.1.5.3.7.5.2.2.4.5.6.8l.6,1c.2.3.3.5.4.6s.2.3.4.3.3.1.5.2v.3h-1.8c-.2-.2-.3-.4-.5-.7-.1-.2-.3-.5-.4-.7l-.6-1c-.2-.3-.3-.5-.4-.7-.1-.1-.2-.2-.3-.3,0,0-.2,0-.3-.1-.1,0-.3,0-.5,0h-.7ZM140.1,34.1v3.5h.7c.4,0,.7,0,.9,0,.2,0,.4-.1.6-.3.2-.1.4-.3.5-.6.1-.2.2-.5.2-.9s0-.7-.2-.9c-.1-.2-.3-.4-.6-.6s-.7-.2-1.1-.2-.7,0-.9,0Z"/>
    <path class="st0" d="M148.2,41.1h1.7c.2,0,.3,0,.5,0s.2,0,.3,0,.2,0,.2-.2c0,0,.1-.2.2-.3,0-.1.1-.3.2-.4,0-.2.1-.4.2-.8h.6v2.4h-5.9v-.3c.3,0,.4-.1.5-.2,0,0,.1-.2.2-.3,0-.1,0-.4,0-.6v-5.1c0-.3,0-.5,0-.6,0-.1,0-.2-.1-.3s-.1-.1-.2-.2-.2,0-.4-.1v-.3h2.7v.3c-.2,0-.3,0-.4.1,0,0-.1,0-.2.1,0,0,0,.2-.1.3s0,.3,0,.6v6Z"/>
    <path class="st0" d="M155.2,40.1c0,.3,0,.5,0,.6,0,.1,0,.2,0,.3,0,0,.1.1.2.2s.2,0,.4.1v.3h-2.7v-.3c.3,0,.4-.1.5-.2,0,0,.1-.2.2-.3,0-.1,0-.4,0-.6v-5.1c0-.3,0-.5,0-.6,0-.1,0-.2-.1-.3s-.1-.1-.2-.2-.2,0-.4-.1v-.3h2.7v.3c-.2,0-.3,0-.4.1,0,0-.1,0-.2.2,0,0,0,.2-.1.3,0,.1,0,.3,0,.6v5.1Z"/>
    <path class="st0" d="M162.6,38.4c.2.2.3.4.4.6.1.2.2.4.3.6h0c0-.2,0-.7,0-1.4,0-.7,0-1.4,0-1.9v-1.2c0-.3,0-.5,0-.6s0-.2,0-.3c0,0-.1-.1-.2-.2s-.2,0-.4-.1v-.3h2.3v.3c-.2,0-.3,0-.4.1,0,0-.1,0-.2.2s0,.2-.1.3c0,.1,0,.3,0,.6v6.6h-.8l-3.6-5.5c-.2-.3-.4-.6-.5-.7,0-.2-.2-.3-.3-.5h-.1c0,.3,0,.8,0,1.6,0,.8,0,1.6,0,2.4v1.2c0,.3,0,.5,0,.6,0,.1,0,.2,0,.3,0,0,.1.1.2.2s.2,0,.4.1v.3h-2.3v-.3c.3,0,.4-.1.5-.2,0,0,.1-.2.2-.3s0-.4,0-.6v-5.1c0-.3,0-.5,0-.6,0-.1,0-.2-.1-.3s-.1-.1-.2-.2c0,0-.2,0-.4-.1v-.3h2l3.2,4.8Z"/>
    <path class="st0" d="M172.4,33.6v1.8h-.6c0-.2-.1-.4-.2-.5,0-.1-.1-.3-.2-.4,0,0-.2-.2-.2-.2s-.2,0-.3-.1-.3,0-.4,0h-2v3.1h1.4c.2,0,.3,0,.4,0,.1,0,.2-.1.3-.2,0-.1.1-.3.2-.6h.6v2.3h-.6c0-.2-.1-.4-.2-.5,0-.1-.2-.2-.3-.3-.1,0-.3,0-.4,0h-1.4v3.4h2c.2,0,.4,0,.5,0,.1,0,.2,0,.3-.2,0,0,.2-.2.2-.3,0-.1.1-.3.2-.4s.1-.3.2-.6h.6v2.1h-6v-.3c.3,0,.4-.1.5-.2,0,0,.1-.2.2-.3,0-.1,0-.4,0-.6v-5.1c0-.3,0-.5,0-.6,0-.1,0-.2-.1-.3s-.1-.1-.2-.2-.2,0-.4-.1v-.3h6Z"/>
    <path class="st0" d="M174.5,39.8c0,.3.2.6.3.8.1.2.3.3.6.4.2,0,.5.1.9.1s.9-.1,1.1-.4c.3-.2.4-.6.4-1s0-.5-.2-.7c-.1-.2-.3-.4-.5-.6-.3-.2-.6-.4-1.1-.6-.5-.2-.9-.4-1.2-.7s-.5-.5-.6-.7-.2-.5-.2-.8c0-.4.1-.8.3-1.1.2-.3.6-.6,1-.7.4-.2.9-.3,1.5-.3s.6,0,.9,0c.3,0,.7.1,1.2.2v1.6h-.6c0-.3-.2-.6-.4-.8-.1-.2-.3-.3-.5-.4-.2,0-.5-.1-.8-.1s-.5,0-.7.1-.4.2-.5.4-.2.4-.2.7,0,.5.2.7.3.4.5.5c.2.2.6.3,1,.6.5.3,1,.5,1.3.7s.5.5.7.7c.2.3.3.6.3,1s0,.8-.2,1c-.1.3-.3.5-.6.7-.2.2-.5.3-.9.4s-.7.1-1.1.1c-.7,0-1.4-.1-2.3-.3v-1.6h.6Z"/>
  </g>
</svg>