<svg xmlns="http://www.w3.org/2000/svg" xml:space="preserve" width="643.851" height="135.425"><defs><clipPath id="a" clipPathUnits="userSpaceOnUse"><path d="M0 101.569h482.888V0H0Z"/></clipPath></defs><g clip-path="url(#a)" transform="matrix(1.33333 0 0 -1.33333 0 135.425)"><path d="m0 0-1.646 7.566L-5.939 0Zm9.846-10.479H2.129L1.066-5.712H-9.147l-2.759-4.767h-7.984l12.917 21.41c2.093 3.721 1.39 5.258 1.39 5.258h5.037a4.994 4.994 0 0 0 4.858-3.823zM53.656 6.94c0 1.627-.804 2.891-3.382 2.891h-4.868l-1.188-6.439h4.228c3.991 0 5.21 2.286 5.21 3.548m1.605-10.55 4.456-6.861-.316-.008c-7.684-.366-8.577-.075-10.516 3.508l-2.407 4.573h-3.276l-1.467-8.073H34.31l3.965 21.732c.522 3.396-.178 4.928-.178 4.928h11.132c4.419 0 11.92-.601 11.92-8.225 0-5.485-4.497-8.068-7.211-9.448l1.323-2.128zM27.502 11.772l-4.026-22.243h-7.39l3.93 21.7c.528 3.419-.175 4.96-.175 4.96h3.971a3.75 3.75 0 0 0 3.69-4.417" style="fill:#b5b4b0;fill-opacity:1;fill-rule:nonzero;stroke:none" transform="translate(325.761 10.598)"/><path d="M0 0h-9.198l2.587 14.003h10.59c5.605 0 7.353-2.744 7.353-6.286C11.332 4.973 8.685 0 0 0m14.828-15.234-2.881 4.628c5.904 2.999 15.686 8.623 15.686 20.548 0 16.588-16.316 17.899-25.926 17.899h-24.222s1.525-3.338.391-10.725l-8.629-47.277h16.156l3.188 17.567h7.126s5.238-9.95 5.241-9.952c4.216-7.79 6.158-8.425 22.876-7.627l.684.012-9.693 14.927zm257.106 43.075h-7.166s.446-2.148-.185-6.606L259.909-4.39l-14.534 26.168a11.78 11.78 0 0 1-10.299 6.063h-10.323s1.486-3.234.446-10.393l-8.688-47.609h15.991l6.019 33.475 16.777-30.21a6.34 6.34 0 0 1 5.545-3.265h10.351l8.765 48.392c.906 5.004-2.941 9.61-8.025 9.61m-393.382 0h-7.354s.525-2.497-.351-7.711l-2.764-15.267h-21.892l2.422 13.368c.907 5.004-2.94 9.61-8.027 9.61h-8.584s1.348-2.96.561-9.462l-2.445-13.516h-10.874V1.809c0-5.017 3.712-9.157 8.536-9.853l-4.005-22.117h16.075l3.982 22.003h21.893l-3.984-22.003h16.073l8.762 48.392c.907 5.004-2.938 9.61-8.024 9.61m180.862 0h-8.643s1.535-3.357.381-10.79l-8.55-47.212h16.075l8.761 48.392c.908 5.004-2.938 9.61-8.024 9.61M190.929-1.178c-1.004-8.088-8.401-14.67-16.491-14.67-3.911 0-7.407 1.518-9.842 4.277-2.464 2.785-3.55 6.497-3.061 10.451 1.002 8.088 8.399 14.667 16.488 14.667 3.912 0 7.408-1.517 9.844-4.274 2.463-2.788 3.551-6.5 3.062-10.451m-11.046 29.279c-16.144 0-30.905-13.133-32.905-29.279-.973-7.85 1.18-15.218 6.065-20.745 4.832-5.467 11.77-8.478 19.536-8.478 16.144 0 30.905 13.135 32.905 29.281.975 7.85-1.18 15.218-6.065 20.745-4.832 5.467-11.768 8.476-19.536 8.476M-57.035-1.178c-1.004-8.088-8.401-14.67-16.49-14.67-3.912 0-7.408 1.518-9.844 4.277-2.463 2.785-3.549 6.497-3.06 10.451 1.002 8.088 8.399 14.667 16.489 14.667 3.911 0 7.406-1.517 9.845-4.274 2.463-2.788 3.549-6.5 3.06-10.451m-11.046 29.279c-16.144 0-30.905-13.133-32.905-29.279-.973-7.85 1.18-15.218 6.065-20.745 4.832-5.467 11.771-8.478 19.535-8.478 16.145 0 30.907 13.135 32.908 29.281.973 7.85-1.182 15.218-6.067 20.745-4.83 5.467-11.768 8.476-19.536 8.476M88.577-11.382l26.649 25.717H88.131l1.379 7.557a7.25 7.25 0 0 0 7.133 5.949h43.253l-.289-1.566a31.72 31.72 0 0 0-9.195-17.111l-26.734-25.737h28.254l-2.456-13.588H79.098l.298 1.634a31.73 31.73 0 0 0 9.181 17.145" style="fill:#37abcd;fill-opacity:1;fill-rule:nonzero;stroke:none" transform="translate(180.756 73.468)"/><path d="M0 0c.658 0 1.024.321 1.024.863 0 .571-.366.894-1.024.894h-.762V0Zm-.762-3.163h-1.112v5.886H.16c1.143 0 1.992-.806 1.992-1.845 0-.819-.527-1.494-1.289-1.744l1.319-2.297H.907L-.323-.968h-.439zm.673-1.452c2.343 0 4.19 1.89 4.19 4.35S2.254 4.07-.089 4.07-4.276 2.195-4.276-.265s1.843-4.35 4.187-4.35m0 9.755c2.974 0 5.375-2.43 5.375-5.405 0-2.972-2.401-5.417-5.375-5.417-2.957 0-5.331 2.445-5.331 5.417 0 2.975 2.374 5.405 5.331 5.405" style="fill:#37abcd;fill-opacity:1;fill-rule:nonzero;stroke:none" transform="translate(477.602 96.43)"/></g></svg>