<?xml version="1.0" encoding="UTF-8"?>
<svg xmlns="http://www.w3.org/2000/svg" xmlns:xlink="http://www.w3.org/1999/xlink" width="176pt" height="52.11pt" viewBox="0 0 176 52.11" version="1.1">
<defs>
<clipPath id="clip1">
  <path d="M 0 0 L 176 0 L 176 52.109375 L 0 52.109375 Z M 0 0 "/>
</clipPath>
</defs>
<g id="surface1">
<g clip-path="url(#clip1)" clip-rule="nonzero">
<path style=" stroke:none;fill-rule:evenodd;fill:rgb(20.129395%,36.412048%,69.903564%);fill-opacity:1;" d="M 51.902344 24.449219 C 51.222656 24.402344 50.695312 24.582031 50.160156 24.726562 C 48.445312 25.191406 46.84375 25.941406 45.292969 26.800781 C 44.3125 27.34375 43.425781 28.019531 42.613281 28.796875 C 41.972656 29.410156 41.390625 30.066406 40.84375 30.765625 C 40.320312 31.441406 39.902344 32.164062 39.679688 32.988281 C 39.5625 33.425781 39.878906 33.84375 40.332031 33.878906 C 40.796875 33.914062 41.238281 33.824219 41.667969 33.644531 C 42.738281 33.195312 43.695312 32.558594 44.582031 31.828125 C 45.445312 31.121094 46.269531 30.367188 47.050781 29.578125 C 48.179688 28.445312 49.253906 27.261719 50.351562 26.101562 C 50.847656 25.570312 51.347656 25.039062 51.902344 24.449219 Z M 152.0625 33.277344 C 152.777344 33.195312 153.371094 32.921875 153.964844 32.652344 C 155.585938 31.910156 156.945312 30.792969 158.269531 29.625 C 158.804688 29.152344 159.316406 28.652344 159.839844 28.164062 C 160.457031 27.585938 161.0625 26.992188 161.695312 26.433594 C 162.238281 25.949219 162.792969 25.476562 163.386719 25.054688 C 163.789062 24.769531 164.070312 24.433594 164.210938 23.976562 C 164.175781 23.941406 164.15625 23.90625 164.128906 23.894531 C 164.066406 23.863281 164.003906 23.835938 163.941406 23.820312 C 163.164062 23.628906 162.398438 23.683594 161.636719 23.894531 C 160.082031 24.316406 158.695312 25.089844 157.359375 25.953125 C 156.09375 26.769531 154.886719 27.675781 153.800781 28.738281 C 153.183594 29.34375 152.632812 29.988281 152.257812 30.785156 C 151.878906 31.589844 151.820312 32.390625 152.0625 33.277344 Z M 168.261719 37.730469 C 167.9375 37.867188 167.691406 37.960938 167.457031 38.074219 C 166.460938 38.550781 165.402344 38.796875 164.308594 38.863281 C 163.601562 38.90625 162.910156 38.738281 162.285156 38.371094 C 161.898438 38.144531 161.652344 37.808594 161.566406 37.371094 C 161.445312 36.757812 161.40625 36.144531 161.539062 35.523438 C 161.605469 35.210938 161.605469 34.886719 161.660156 34.570312 C 161.804688 33.757812 161.960938 32.949219 162.109375 32.140625 C 162.140625 31.976562 162.164062 31.816406 162.210938 31.550781 C 162.046875 31.691406 161.960938 31.753906 161.886719 31.828125 C 161.132812 32.570312 160.308594 33.222656 159.480469 33.871094 C 158.480469 34.65625 157.476562 35.4375 156.46875 36.214844 C 155.988281 36.585938 155.503906 36.953125 155 37.300781 C 154.429688 37.699219 153.777344 37.863281 153.089844 37.859375 C 152.597656 37.859375 152.109375 37.886719 151.617188 37.765625 C 150.933594 37.597656 150.304688 37.324219 149.765625 36.871094 C 148.5625 35.855469 147.878906 34.546875 147.617188 33 C 147.605469 32.910156 147.546875 32.824219 147.496094 32.710938 C 147.144531 33.101562 146.824219 33.472656 146.484375 33.828125 C 146.101562 34.226562 145.714844 34.632812 145.292969 34.992188 C 144.394531 35.765625 143.449219 36.488281 142.449219 37.132812 C 141.796875 37.554688 141.144531 37.980469 140.460938 38.351562 C 139.683594 38.777344 138.828125 39.035156 137.933594 38.960938 C 136.851562 38.875 135.878906 38.464844 135.015625 37.796875 C 133.898438 36.9375 133.28125 35.78125 132.988281 34.433594 C 132.867188 33.875 132.769531 33.308594 132.773438 32.730469 C 132.773438 32.648438 132.753906 32.566406 132.738281 32.484375 C 132.734375 32.472656 132.714844 32.464844 132.699219 32.453125 C 132.667969 32.457031 132.625 32.449219 132.605469 32.46875 C 131.644531 33.335938 130.5625 34.03125 129.460938 34.695312 C 128.136719 35.488281 126.835938 36.316406 125.488281 37.0625 C 123.925781 37.929688 122.253906 38.546875 120.511719 38.953125 C 119.660156 39.152344 118.785156 39.261719 117.996094 39.300781 C 117.546875 38.902344 117.179688 38.523438 116.757812 38.214844 C 116.351562 37.914062 116.144531 37.554688 116.175781 37.050781 C 115.835938 36.742188 115.757812 36.324219 115.789062 35.902344 C 115.878906 34.828125 116.183594 33.800781 116.515625 32.78125 C 116.652344 32.351562 116.785156 31.917969 116.929688 31.464844 C 116.65625 31.355469 116.417969 31.390625 116.171875 31.457031 C 115.832031 31.550781 115.488281 31.636719 115.144531 31.722656 C 114.8125 31.8125 114.539062 31.992188 114.28125 32.222656 C 113.226562 33.183594 112.179688 34.15625 111.085938 35.078125 C 110.117188 35.898438 109.125 36.691406 108.042969 37.367188 C 106.65625 38.230469 105.207031 38.921875 103.582031 39.207031 C 103.136719 39.285156 102.699219 39.433594 102.226562 39.390625 C 101.46875 38.765625 100.855469 38.027344 100.578125 37.0625 C 100.402344 36.4375 100.347656 35.800781 100.390625 35.140625 C 100.425781 34.570312 100.46875 34.007812 100.613281 33.457031 C 100.734375 33 100.855469 32.546875 100.992188 32.097656 C 101.078125 31.808594 101.183594 31.527344 101.300781 31.1875 C 101.199219 31.238281 101.121094 31.253906 101.074219 31.304688 C 100.003906 32.394531 98.957031 33.507812 97.859375 34.574219 C 96.9375 35.472656 95.960938 36.320312 94.859375 37.003906 C 94.152344 37.445312 93.40625 37.796875 92.597656 38.007812 C 92.164062 38.125 91.742188 38.089844 91.328125 37.863281 C 90.484375 37.394531 89.75 36.816406 89.199219 36.019531 C 88.777344 35.417969 88.46875 34.761719 88.328125 34.042969 C 88.265625 33.726562 88.25 33.40625 88.203125 33.089844 C 88.191406 32.976562 88.148438 32.867188 88.105469 32.714844 C 87.660156 32.976562 87.339844 33.320312 86.980469 33.613281 C 86.375 34.109375 85.78125 34.617188 85.1875 35.121094 C 84.875 35.382812 84.566406 35.648438 84.261719 35.917969 C 83.257812 36.808594 82.203125 37.632812 81.035156 38.296875 C 80.167969 38.785156 79.234375 39.113281 78.25 39.296875 C 76.671875 39.59375 75.277344 39.136719 73.964844 38.3125 C 73.417969 37.964844 72.976562 37.503906 72.539062 37.015625 C 71.597656 35.964844 70.789062 34.816406 69.964844 33.675781 C 69.6875 33.296875 69.4375 32.898438 69.164062 32.484375 C 68.792969 32.691406 68.542969 32.972656 68.308594 33.253906 C 67.824219 33.835938 67.355469 34.441406 66.910156 35.058594 C 66.632812 35.4375 66.417969 35.863281 66.164062 36.257812 C 65.886719 36.6875 65.605469 37.105469 65.3125 37.519531 C 65.140625 37.761719 64.84375 37.769531 64.589844 37.84375 C 64.476562 37.875 64.351562 37.855469 64.234375 37.867188 C 63.585938 37.925781 63.132812 37.65625 62.816406 37.089844 C 62.398438 36.339844 62.207031 35.53125 62.089844 34.691406 C 62.0625 34.480469 62.003906 34.273438 61.953125 34.027344 C 61.472656 34.332031 61.023438 34.589844 60.648438 34.957031 C 59.75 35.839844 58.742188 36.585938 57.707031 37.296875 C 56.839844 37.894531 55.941406 38.433594 55.007812 38.910156 C 54.320312 39.261719 53.613281 39.597656 52.847656 39.757812 C 52.242188 39.882812 51.640625 39.957031 51.011719 39.816406 C 49.871094 39.558594 49.128906 38.6875 48.976562 37.628906 C 48.914062 37.203125 48.855469 36.785156 48.898438 36.363281 C 48.945312 35.878906 49.03125 35.398438 49.125 34.917969 C 49.289062 34.042969 49.53125 33.179688 49.613281 32.285156 C 49.625 32.140625 49.664062 32 49.707031 31.761719 C 49.523438 31.933594 49.414062 32.039062 49.296875 32.144531 C 49.28125 32.304688 49.269531 32.453125 49.253906 32.609375 C 49.210938 32.644531 49.175781 32.679688 49.132812 32.710938 C 48.582031 33.132812 48.015625 33.535156 47.476562 33.972656 C 46.230469 34.996094 45.019531 36.0625 43.75 37.054688 C 42.867188 37.738281 41.886719 38.269531 40.730469 38.480469 C 39.292969 37.90625 37.941406 37.15625 36.851562 35.996094 C 36.574219 35.703125 36.371094 35.34375 36.136719 35.015625 C 36.070312 34.917969 36.015625 34.808594 35.933594 34.667969 C 35.851562 34.75 35.769531 34.804688 35.71875 34.875 C 34.449219 36.707031 32.796875 38.191406 31.242188 39.761719 C 29.945312 41.070312 28.644531 42.375 27.324219 43.660156 C 26.25 44.703125 25.15625 45.726562 24.042969 46.730469 C 23.199219 47.492188 22.335938 48.238281 21.433594 48.925781 C 20.167969 49.890625 18.902344 50.867188 17.4375 51.519531 C 16.742188 51.828125 16.042969 52.121094 15.253906 52.109375 C 14.703125 52.101562 14.25 51.855469 13.75 51.574219 C 13.796875 50.957031 13.554688 50.347656 13.722656 49.699219 C 13.816406 49.328125 13.800781 48.925781 13.84375 48.542969 C 13.949219 47.582031 14.222656 46.664062 14.515625 45.75 C 14.886719 44.59375 15.375 43.480469 15.894531 42.382812 C 16.410156 41.285156 16.921875 40.183594 17.484375 39.105469 C 18.050781 38.03125 18.652344 36.964844 19.289062 35.929688 C 20.15625 34.519531 21.050781 33.121094 21.980469 31.753906 C 23.160156 30.015625 24.382812 28.308594 25.589844 26.59375 C 26.214844 25.707031 26.855469 24.835938 27.484375 23.953125 C 27.785156 23.527344 28.078125 23.089844 28.421875 22.589844 C 28.25 22.628906 28.140625 22.636719 28.046875 22.671875 C 27.503906 22.882812 27.035156 23.214844 26.5625 23.542969 C 25.074219 24.582031 23.800781 25.859375 22.554688 27.164062 C 22.023438 27.71875 21.507812 28.28125 20.976562 28.835938 C 20.199219 29.644531 19.441406 30.480469 18.621094 31.25 C 17.792969 32.027344 16.894531 32.726562 16.046875 33.484375 C 15.421875 34.039062 14.746094 34.519531 14.078125 35.011719 C 12.90625 35.878906 11.65625 36.613281 10.285156 37.109375 C 9.550781 37.378906 8.773438 37.515625 7.992188 37.4375 C 7.097656 37.351562 6.277344 37.074219 5.644531 36.382812 C 5.339844 36.050781 5.148438 35.671875 5.019531 35.238281 C 4.824219 34.574219 4.777344 33.898438 4.851562 33.222656 C 4.933594 32.4375 5.117188 31.667969 5.382812 30.917969 C 5.785156 29.769531 6.300781 28.671875 6.882812 27.605469 C 7.464844 26.539062 8.101562 25.503906 8.792969 24.5 C 9.496094 23.484375 10.238281 22.5 11.03125 21.550781 C 12.34375 19.976562 13.832031 18.574219 15.292969 17.144531 C 16.261719 16.199219 17.214844 15.230469 18.128906 14.238281 C 19 13.292969 19.8125 12.285156 20.367188 11.105469 C 20.664062 10.476562 20.800781 9.828125 20.671875 9.09375 C 20.53125 9.089844 20.382812 9.0625 20.234375 9.078125 C 19.621094 9.132812 19.019531 9.195312 18.425781 9.457031 C 16.894531 10.136719 15.40625 10.890625 13.953125 11.726562 C 12.292969 12.679688 10.636719 13.636719 8.976562 14.585938 C 7.597656 15.378906 6.230469 16.195312 4.828125 16.941406 C 3.738281 17.519531 2.605469 18.011719 1.488281 18.53125 C 1.105469 18.707031 0.710938 18.859375 0.328125 19.019531 C 0.167969 18.898438 0.152344 18.734375 0.121094 18.570312 C -0.0078125 17.839844 -0.0078125 17.101562 0.0078125 16.363281 C 0.0234375 15.371094 0.257812 14.425781 0.578125 13.5 C 0.742188 13.023438 0.953125 12.558594 1.171875 12.105469 C 1.597656 11.238281 2.144531 10.445312 2.738281 9.683594 C 2.84375 9.550781 2.953125 9.421875 3.054688 9.285156 C 3.402344 8.816406 3.933594 8.605469 4.414062 8.324219 C 5.386719 7.746094 6.367188 7.179688 7.351562 6.625 C 8.175781 6.164062 9.015625 5.730469 9.84375 5.28125 C 10.453125 4.953125 11.050781 4.597656 11.667969 4.285156 C 12.375 3.925781 13.089844 3.578125 13.816406 3.261719 C 14.945312 2.777344 16.078125 2.3125 17.226562 1.871094 C 17.898438 1.613281 18.589844 1.394531 19.289062 1.210938 C 20.199219 0.976562 21.121094 0.796875 22.042969 0.597656 C 22.191406 0.566406 22.347656 0.589844 22.5 0.570312 C 22.554688 0.5625 22.601562 0.507812 22.648438 0.472656 C 23.707031 0.472656 24.765625 0.472656 25.824219 0.472656 C 25.910156 0.507812 25.992188 0.566406 26.082031 0.574219 C 26.914062 0.640625 27.6875 0.917969 28.480469 1.214844 C 28.535156 1.453125 28.597656 1.679688 28.636719 1.910156 C 28.753906 2.625 28.828125 3.335938 28.71875 4.074219 C 28.621094 4.722656 28.46875 5.363281 28.363281 6.011719 C 28.332031 6.21875 28.21875 6.421875 28.109375 6.609375 C 27.683594 7.355469 27.269531 8.113281 26.808594 8.839844 C 26.199219 9.796875 25.558594 10.734375 24.921875 11.671875 C 24.515625 12.273438 24.101562 12.871094 23.671875 13.457031 C 22.820312 14.617188 21.972656 15.785156 21.039062 16.882812 C 20.25 17.8125 19.484375 18.765625 18.730469 19.726562 C 18.207031 20.390625 17.726562 21.089844 17.214844 21.765625 C 16.992188 22.0625 16.742188 22.34375 16.5 22.625 C 15.816406 23.425781 15.117188 24.214844 14.441406 25.023438 C 14.0625 25.476562 13.714844 25.945312 13.503906 26.515625 C 13.226562 27.25 13.722656 27.703125 14.339844 27.714844 C 14.621094 27.722656 14.910156 27.648438 15.179688 27.5625 C 16.042969 27.277344 16.773438 26.761719 17.472656 26.195312 C 18.777344 25.136719 20.03125 24.019531 21.246094 22.859375 C 22.15625 21.988281 23.089844 21.144531 24.011719 20.289062 C 25.011719 19.359375 26.003906 18.433594 27 17.503906 C 27.460938 17.078125 27.925781 16.652344 28.378906 16.214844 C 29.667969 14.972656 30.945312 13.71875 32.238281 12.480469 C 33.527344 11.246094 34.828125 10.027344 36.136719 8.789062 C 36.855469 8.574219 37.605469 8.457031 38.371094 8.488281 C 38.734375 8.503906 39.105469 8.582031 39.457031 8.695312 C 40.246094 8.949219 40.535156 9.613281 40.566406 10.289062 C 40.597656 10.992188 40.417969 11.65625 40.175781 12.3125 C 39.789062 13.359375 39.234375 14.324219 38.714844 15.308594 C 38.058594 16.535156 37.289062 17.6875 36.535156 18.847656 C 35.714844 20.109375 34.792969 21.308594 33.925781 22.539062 C 33.261719 23.480469 32.613281 24.433594 31.960938 25.382812 C 31.253906 26.417969 30.546875 27.453125 29.847656 28.492188 C 29.386719 29.179688 28.945312 29.886719 28.484375 30.578125 C 27.863281 31.507812 27.210938 32.414062 26.613281 33.359375 C 26.0625 34.234375 25.558594 35.136719 25.046875 36.035156 C 24.851562 36.375 24.734375 36.75 24.816406 37.253906 C 24.851562 37.289062 24.949219 37.382812 24.992188 37.425781 C 25.605469 37.523438 26.082031 37.320312 26.554688 37.148438 C 27.625 36.75 28.59375 36.15625 29.539062 35.535156 C 30.515625 34.890625 31.488281 34.242188 32.417969 33.539062 C 33.351562 32.835938 34.238281 32.0625 35.132812 31.3125 C 35.21875 31.242188 35.28125 31.105469 35.296875 30.988281 C 35.378906 30.441406 35.496094 29.90625 35.644531 29.375 C 35.765625 28.929688 35.945312 28.511719 36.152344 28.109375 C 36.605469 27.238281 37.164062 26.4375 37.820312 25.691406 C 38.820312 24.558594 39.96875 23.613281 41.210938 22.785156 C 42.199219 22.121094 43.230469 21.507812 44.332031 21.027344 C 45.074219 20.707031 45.789062 20.324219 46.527344 19.992188 C 47.863281 19.386719 49.230469 18.859375 50.636719 18.460938 C 52.117188 18.039062 53.636719 17.808594 55.179688 17.90625 C 56.074219 17.964844 56.953125 18.132812 57.789062 18.464844 C 58.023438 18.558594 58.234375 18.707031 58.390625 18.789062 C 58.957031 19.464844 58.824219 20.195312 58.769531 20.902344 C 58.742188 21.214844 58.601562 21.53125 58.207031 21.597656 C 58.394531 22.117188 58.578125 22.605469 58.746094 23.097656 C 58.84375 23.382812 58.9375 23.671875 58.992188 23.96875 C 59.019531 24.125 58.976562 24.304688 58.941406 24.464844 C 58.722656 25.363281 58.179688 26.078125 57.636719 26.792969 C 57.003906 27.628906 56.328125 28.4375 55.75 29.3125 C 55.210938 30.125 54.785156 31.015625 54.695312 32.019531 C 54.675781 32.230469 54.695312 32.449219 54.695312 32.601562 C 55.085938 33.332031 55.6875 33.332031 56.320312 33.214844 C 57.398438 33.023438 58.285156 32.433594 59.160156 31.824219 C 59.453125 31.621094 59.71875 31.378906 60.019531 31.1875 C 60.695312 30.757812 61.289062 30.226562 61.855469 29.640625 C 62.195312 28.160156 62.789062 26.761719 63.554688 25.445312 C 64.230469 24.292969 64.992188 23.1875 65.824219 22.140625 C 66.414062 21.394531 67.03125 20.660156 67.816406 20.105469 C 68.617188 19.542969 69.457031 19.042969 70.367188 18.671875 C 70.429688 18.648438 70.496094 18.621094 70.5625 18.617188 C 71.660156 18.527344 72.75 18.355469 73.859375 18.394531 C 74.226562 18.40625 74.554688 18.515625 74.890625 18.628906 C 74.992188 18.660156 75.117188 18.757812 75.148438 18.851562 C 75.269531 19.238281 75.390625 19.625 75.199219 20.035156 C 75.011719 20.4375 74.789062 20.808594 74.480469 21.132812 C 74.117188 21.511719 73.792969 21.929688 73.433594 22.316406 C 73.226562 22.539062 72.988281 22.730469 72.757812 22.929688 C 72.316406 23.304688 71.875 23.675781 71.4375 24.050781 C 70.570312 24.785156 69.6875 25.496094 68.84375 26.257812 C 67.796875 27.203125 66.78125 28.1875 65.773438 29.140625 C 65.726562 29.679688 65.683594 30.164062 65.636719 30.757812 C 65.972656 30.472656 66.222656 30.261719 66.476562 30.046875 C 67.28125 29.371094 68.085938 28.695312 68.890625 28.019531 C 69.355469 27.625 69.820312 27.230469 70.289062 26.84375 C 70.867188 26.367188 71.449219 25.894531 72.03125 25.429688 C 72.628906 24.957031 73.246094 24.507812 73.828125 24.015625 C 74.742188 23.253906 75.71875 22.585938 76.695312 21.910156 C 77.347656 21.457031 77.996094 20.996094 78.667969 20.570312 C 79.613281 19.972656 80.582031 19.414062 81.53125 18.824219 C 82.238281 18.386719 82.988281 18.0625 83.792969 17.859375 C 84.476562 17.6875 85.167969 17.601562 85.796875 18.015625 C 86.089844 18.210938 86.390625 18.4375 86.589844 18.71875 C 86.976562 19.269531 87.304688 19.863281 87.390625 20.554688 C 87.4375 20.9375 87.519531 21.316406 87.597656 21.753906 C 87.125 22.210938 86.644531 22.695312 86.140625 23.15625 C 85.984375 23.304688 85.777344 23.402344 85.585938 23.503906 C 84.886719 23.859375 84.171875 24.15625 83.367188 24.148438 C 83.191406 24.144531 83.011719 24.148438 82.816406 24.148438 C 82.570312 23.78125 82.34375 23.40625 81.867188 23.332031 C 81.292969 23.296875 80.746094 23.472656 80.210938 23.675781 C 79.117188 24.085938 78.09375 24.636719 77.117188 25.273438 C 76.195312 25.871094 75.277344 26.484375 74.410156 27.160156 C 73.648438 27.753906 72.914062 28.394531 72.363281 29.226562 C 73.34375 29.472656 74.171875 29.992188 74.839844 30.730469 C 75.476562 31.429688 76.152344 32.097656 76.683594 32.898438 C 77 33.371094 77.46875 33.746094 77.886719 34.148438 C 78.144531 34.394531 78.511719 34.425781 78.832031 34.46875 C 79.421875 34.542969 80.015625 34.597656 80.617188 34.410156 C 81.316406 34.199219 81.972656 33.914062 82.621094 33.582031 C 83.554688 33.097656 84.402344 32.476562 85.273438 31.902344 C 85.882812 31.503906 86.441406 31.035156 87.027344 30.605469 C 87.464844 30.285156 87.914062 29.980469 88.40625 29.636719 C 88.433594 29.542969 88.480469 29.402344 88.523438 29.257812 C 88.949219 27.730469 89.472656 26.238281 90.289062 24.867188 C 90.527344 24.476562 90.738281 24.070312 91 23.699219 C 91.417969 23.105469 91.867188 22.53125 92.308594 21.953125 C 92.441406 21.777344 92.574219 21.601562 92.726562 21.441406 C 93.675781 20.457031 94.734375 19.613281 95.984375 19.050781 C 96.511719 18.8125 97.097656 18.699219 97.679688 18.578125 C 98.457031 18.421875 99.226562 18.414062 100.007812 18.390625 C 100.597656 18.375 101.109375 18.53125 101.554688 18.914062 C 101.777344 19.285156 101.734375 19.625 101.542969 20.011719 C 101.242188 20.609375 100.855469 21.144531 100.453125 21.664062 C 99.609375 22.757812 98.636719 23.738281 97.628906 24.679688 C 97.105469 25.164062 96.527344 25.578125 95.953125 26 C 95.144531 26.589844 94.347656 27.195312 93.585938 27.847656 C 93 28.347656 92.554688 28.996094 92.347656 29.734375 C 92.183594 30.316406 92.019531 30.933594 92.175781 31.570312 C 92.222656 31.761719 92.183594 31.972656 92.183594 32.195312 C 92.558594 32.265625 92.855469 32.132812 93.15625 32.054688 C 93.945312 31.847656 94.65625 31.460938 95.363281 31.066406 C 96.027344 30.695312 96.679688 30.3125 97.332031 29.921875 C 97.578125 29.773438 97.816406 29.605469 98.03125 29.425781 C 98.6875 28.882812 99.335938 28.335938 99.976562 27.78125 C 100.363281 27.449219 100.734375 27.101562 101.113281 26.757812 C 101.953125 25.992188 102.792969 25.226562 103.636719 24.464844 C 104.289062 23.871094 104.945312 23.277344 105.609375 22.695312 C 106.613281 21.808594 107.632812 20.941406 108.628906 20.042969 C 109.308594 19.429688 110.042969 18.882812 110.765625 18.320312 C 110.914062 18.207031 111.046875 18.070312 111.179688 17.941406 C 111.699219 17.429688 112.3125 17.097656 113.007812 16.914062 C 113.828125 17.132812 114.148438 17.566406 114.234375 18.371094 C 114.300781 18.964844 114.3125 19.554688 114.335938 20.148438 C 114.359375 20.855469 114.09375 21.4375 113.617188 21.929688 C 112.371094 23.21875 111.113281 24.488281 109.878906 25.78125 C 108.761719 26.945312 107.703125 28.164062 106.953125 29.609375 C 106.53125 30.417969 106.261719 31.285156 106.042969 32.167969 C 105.988281 32.390625 106.035156 32.640625 106.035156 32.875 C 106.828125 33.140625 107.601562 33.042969 108.367188 32.847656 C 109.515625 32.554688 110.519531 31.957031 111.496094 31.320312 C 112.414062 30.722656 113.304688 30.074219 114.207031 29.453125 C 114.5 29.25 114.804688 29.066406 115.113281 28.863281 C 115.199219 28.898438 115.292969 28.929688 115.402344 28.972656 C 115.976562 28.660156 116.53125 28.3125 117.019531 27.863281 C 117.472656 27.449219 117.9375 27.046875 118.355469 26.605469 C 119.011719 25.917969 119.621094 25.1875 120.167969 24.40625 C 120.6875 23.660156 121.195312 22.902344 121.761719 22.074219 C 121.203125 22.136719 120.734375 22.203125 120.265625 22.238281 C 119.65625 22.289062 119.058594 22.453125 118.425781 22.308594 C 118 22.214844 117.65625 22.070312 117.414062 21.699219 C 117.640625 20.597656 118.050781 19.558594 118.699219 18.644531 C 119.128906 18.039062 119.679688 17.523438 120.300781 17.097656 C 121.214844 16.472656 122.214844 16.03125 123.277344 15.734375 C 123.910156 15.558594 124.535156 15.363281 125.167969 15.191406 C 125.652344 15.058594 126.144531 14.9375 126.636719 14.832031 C 126.851562 14.785156 126.992188 14.679688 127.117188 14.503906 C 127.449219 14.035156 127.800781 13.578125 128.152344 13.117188 C 128.65625 12.453125 129.234375 11.84375 129.890625 11.339844 C 130.738281 10.679688 131.726562 10.328125 132.824219 10.425781 C 133.171875 10.457031 133.511719 10.566406 133.871094 10.644531 C 133.964844 11.574219 134.277344 12.476562 133.964844 13.441406 C 133.539062 13.585938 133.277344 13.914062 133.144531 14.363281 C 133.070312 14.601562 132.953125 14.828125 132.839844 15.089844 C 133.648438 15.183594 134.421875 15.273438 135.191406 15.359375 C 135.109375 15.929688 135.078125 16.480469 134.929688 17.023438 C 134.609375 18.203125 134.167969 19.324219 133.4375 20.3125 C 132.964844 20.957031 132.3125 21.3125 131.527344 21.464844 C 130.375 21.695312 129.222656 21.898438 128.046875 21.988281 C 127.609375 22.019531 127.175781 22.101562 126.738281 22.117188 C 126.464844 22.125 126.320312 22.253906 126.191406 22.460938 C 125.722656 23.222656 125.230469 23.976562 124.78125 24.753906 C 124.195312 25.777344 123.613281 26.804688 123.078125 27.859375 C 122.601562 28.804688 122.230469 29.800781 121.957031 30.832031 C 121.785156 31.46875 121.714844 32.128906 121.910156 32.78125 C 121.996094 33.074219 122.109375 33.359375 122.386719 33.554688 C 123.410156 33.4375 124.429688 33.289062 125.4375 33.007812 C 127.035156 32.5625 128.523438 31.875 129.992188 31.121094 C 131.09375 30.550781 132.097656 29.839844 133.066406 29.203125 C 133.449219 28.320312 133.769531 27.484375 134.171875 26.6875 C 134.507812 26.011719 134.90625 25.359375 135.328125 24.726562 C 136.351562 23.195312 137.613281 21.871094 138.9375 20.597656 C 139.203125 20.339844 139.492188 20.101562 139.773438 19.855469 C 139.8125 19.820312 139.851562 19.777344 139.894531 19.765625 C 140.527344 19.597656 141.117188 19.285156 141.78125 19.222656 C 142.101562 19.191406 142.417969 19.132812 142.738281 19.109375 C 143.15625 19.074219 143.574219 19.09375 143.972656 19.242188 C 144.632812 19.492188 144.980469 19.988281 144.976562 20.679688 C 144.96875 21.304688 144.789062 21.867188 144.503906 22.414062 C 144.035156 23.316406 143.390625 24.070312 142.703125 24.804688 C 141.890625 25.671875 141.070312 26.539062 140.285156 27.4375 C 139.796875 27.996094 139.339844 28.589844 138.929688 29.210938 C 138.585938 29.726562 138.304688 30.28125 138.175781 30.90625 C 137.976562 31.875 138.40625 32.722656 139.339844 33.042969 C 139.949219 33.253906 140.566406 33.183594 141.183594 32.996094 C 141.984375 32.753906 142.714844 32.359375 143.433594 31.953125 C 144.625 31.273438 145.796875 30.5625 146.980469 29.867188 C 147.09375 29.800781 147.21875 29.730469 147.347656 29.707031 C 147.738281 29.632812 147.90625 29.375 148 29.019531 C 148.171875 28.363281 148.433594 27.746094 148.742188 27.144531 C 149.242188 26.175781 149.882812 25.304688 150.605469 24.492188 C 151.480469 23.519531 152.453125 22.652344 153.523438 21.902344 C 154.269531 21.382812 155.058594 20.914062 155.851562 20.464844 C 156.464844 20.121094 157.113281 19.824219 157.761719 19.542969 C 158.59375 19.179688 159.441406 18.863281 160.3125 18.585938 C 161.085938 18.339844 161.863281 18.144531 162.652344 17.976562 C 163.421875 17.808594 164.191406 17.609375 164.988281 17.578125 C 165.691406 17.550781 166.390625 17.421875 167.089844 17.445312 C 167.765625 17.472656 168.449219 17.421875 169.125 17.566406 C 169.648438 17.679688 170.191406 17.726562 170.640625 17.789062 C 171.097656 18.003906 171.144531 18.378906 171.226562 18.714844 C 171.308594 19.0625 171.320312 19.425781 171.390625 19.773438 C 171.5 20.308594 171.390625 20.738281 170.878906 20.988281 C 170.871094 21.058594 170.851562 21.113281 170.863281 21.15625 C 171.128906 22.085938 170.855469 22.957031 170.515625 23.796875 C 170.132812 24.742188 169.589844 25.601562 168.90625 26.371094 C 168.574219 26.75 168.265625 27.160156 167.980469 27.578125 C 167.539062 28.210938 167.3125 28.929688 167.167969 29.6875 C 167.078125 30.175781 167.085938 30.648438 167.160156 31.140625 C 167.320312 32.164062 168.027344 32.734375 169.21875 32.386719 C 169.820312 32.210938 170.378906 31.933594 170.929688 31.632812 C 171.507812 31.316406 172.097656 31.023438 172.652344 30.671875 C 173.132812 30.367188 173.644531 30.070312 173.9375 29.542969 C 174.050781 29.339844 174.136719 29.125 174.277344 28.816406 C 174.683594 28.652344 175.101562 28.242188 175.75 28.230469 C 175.800781 28.390625 175.847656 28.542969 175.898438 28.695312 C 175.925781 28.78125 175.964844 28.867188 176 28.949219 C 176 29.191406 176 29.429688 176 29.667969 C 175.898438 29.796875 175.773438 29.910156 175.699219 30.050781 C 175.265625 30.882812 174.679688 31.609375 174.09375 32.328125 C 173.441406 33.132812 172.785156 33.9375 172.097656 34.710938 C 171.546875 35.332031 170.941406 35.914062 170.273438 36.414062 C 169.691406 36.851562 169.085938 37.253906 168.429688 37.71875 "/>
</g>
<path style=" stroke:none;fill-rule:evenodd;fill:rgb(20.129395%,36.412048%,69.903564%);fill-opacity:1;" d="M 100.445312 6.140625 C 100.234375 6.140625 100.082031 6.140625 99.90625 6.140625 C 99.90625 4.726562 99.90625 3.332031 99.90625 1.90625 C 100.070312 1.90625 100.238281 1.90625 100.445312 1.90625 C 100.445312 2.109375 100.445312 2.308594 100.445312 2.589844 C 100.644531 2.386719 100.78125 2.242188 100.929688 2.105469 C 101.382812 1.6875 101.914062 1.667969 102.460938 1.835938 C 102.816406 1.949219 102.980469 2.261719 103.089844 2.660156 C 103.144531 2.578125 103.175781 2.539062 103.199219 2.5 C 103.589844 1.84375 104.195312 1.691406 104.898438 1.773438 C 105.367188 1.828125 105.632812 2.136719 105.785156 2.535156 C 105.867188 2.75 105.890625 3 105.894531 3.230469 C 105.902344 4.1875 105.898438 5.140625 105.898438 6.128906 C 105.722656 6.128906 105.558594 6.128906 105.34375 6.128906 C 105.34375 6.019531 105.34375 5.898438 105.34375 5.773438 C 105.339844 4.914062 105.34375 4.054688 105.339844 3.195312 C 105.335938 2.75 105.269531 2.625 104.933594 2.28125 C 104.1875 1.828125 103.277344 2.636719 103.222656 3.417969 C 103.179688 4.027344 103.1875 4.640625 103.191406 5.25 C 103.191406 5.539062 103.191406 5.824219 103.191406 6.136719 C 103.023438 6.136719 102.855469 6.136719 102.648438 6.136719 C 102.648438 5.410156 102.660156 4.699219 102.648438 3.988281 C 102.644531 3.671875 102.585938 3.359375 102.578125 3.046875 C 102.570312 2.757812 102.429688 2.539062 102.300781 2.324219 C 101.976562 2.125 101.660156 2.089844 101.335938 2.25 C 101.074219 2.382812 100.882812 2.589844 100.734375 2.839844 C 100.542969 3.175781 100.445312 3.535156 100.445312 3.921875 C 100.445312 4.652344 100.445312 5.382812 100.445312 6.140625 "/>
<path style=" stroke:none;fill-rule:evenodd;fill:rgb(20.129395%,36.412048%,69.903564%);fill-opacity:1;" d="M 116.621094 3.859375 C 116.640625 3.613281 116.46875 3.257812 116.28125 2.910156 C 115.730469 1.890625 114.390625 1.984375 113.847656 2.675781 C 113.328125 3.335938 113.269531 4.089844 113.53125 4.867188 C 113.753906 5.519531 114.476562 5.988281 115.269531 5.882812 C 115.589844 5.835938 115.894531 5.703125 116.097656 5.460938 C 116.4375 5.054688 116.597656 4.558594 116.621094 3.859375 Z M 113.453125 5.535156 C 113.453125 6.484375 113.453125 7.339844 113.453125 8.226562 C 113.265625 8.226562 113.097656 8.226562 112.90625 8.226562 C 112.90625 6.128906 112.90625 4.035156 112.90625 1.90625 C 113.03125 1.898438 113.167969 1.886719 113.339844 1.875 C 113.351562 2.128906 113.363281 2.359375 113.382812 2.652344 C 113.492188 2.523438 113.578125 2.441406 113.648438 2.34375 C 113.984375 1.882812 114.46875 1.746094 115.003906 1.742188 C 115.21875 1.738281 115.441406 1.78125 115.652344 1.828125 C 116.351562 1.984375 116.78125 2.449219 117.019531 3.089844 C 117.257812 3.730469 117.269531 4.394531 117.015625 5.035156 C 116.742188 5.722656 116.195312 6.097656 115.488281 6.253906 C 115.296875 6.296875 115.089844 6.300781 114.890625 6.304688 C 114.3125 6.316406 113.890625 6.003906 113.453125 5.535156 "/>
<path style=" stroke:none;fill-rule:evenodd;fill:rgb(20.129395%,36.412048%,69.903564%);fill-opacity:1;" d="M 127.433594 3.710938 C 127.445312 3.394531 127.1875 2.890625 126.734375 2.472656 C 126.453125 2.210938 126.085938 2.136719 125.726562 2.164062 C 125.109375 2.214844 124.671875 2.570312 124.402344 3.113281 C 124.089844 3.738281 124.125 4.8125 124.734375 5.445312 C 125.199219 5.921875 125.886719 6.015625 126.394531 5.78125 C 127.140625 5.4375 127.414062 4.804688 127.433594 3.710938 Z M 127.929688 6.144531 C 127.773438 6.144531 127.617188 6.144531 127.425781 6.144531 C 127.425781 5.933594 127.425781 5.734375 127.425781 5.5 C 127.191406 5.703125 127.015625 5.90625 126.800781 6.039062 C 125.859375 6.613281 124.71875 6.25 124.113281 5.566406 C 123.691406 5.082031 123.558594 4.46875 123.613281 3.835938 C 123.660156 3.351562 123.816406 2.886719 124.140625 2.496094 C 124.476562 2.089844 124.890625 1.835938 125.414062 1.773438 C 125.582031 1.757812 125.75 1.738281 125.917969 1.746094 C 126.546875 1.773438 127.035156 2.046875 127.40625 2.695312 C 127.40625 2.371094 127.40625 2.144531 127.40625 1.902344 C 127.574219 1.902344 127.695312 1.902344 127.855469 1.902344 C 127.878906 1.945312 127.9375 2.011719 127.941406 2.082031 C 127.957031 2.34375 127.957031 2.605469 127.953125 2.867188 C 127.949219 3.421875 127.9375 3.972656 127.929688 4.527344 C 127.925781 5.0625 127.929688 5.597656 127.929688 6.144531 "/>
<path style=" stroke:none;fill-rule:evenodd;fill:rgb(20.129395%,36.412048%,69.903564%);fill-opacity:1;" d="M 53.273438 5.890625 C 53.371094 5.890625 53.496094 5.890625 53.625 5.890625 C 54.117188 5.882812 54.507812 5.683594 54.808594 5.296875 C 55.035156 5 55.132812 4.664062 55.164062 4.285156 C 55.21875 3.664062 55.113281 3.105469 54.671875 2.640625 C 54.285156 2.234375 53.851562 2.082031 53.273438 2.207031 C 52.269531 2.417969 51.800781 3.65625 52.03125 4.535156 C 52.203125 5.175781 52.566406 5.636719 53.273438 5.890625 Z M 55.238281 1.894531 C 55.398438 1.894531 55.519531 1.894531 55.695312 1.894531 C 55.71875 3.300781 55.699219 4.707031 55.703125 6.136719 C 55.550781 6.136719 55.414062 6.136719 55.238281 6.136719 C 55.222656 5.929688 55.207031 5.726562 55.183594 5.382812 C 55.027344 5.589844 54.9375 5.722656 54.835938 5.84375 C 54.503906 6.21875 54.042969 6.328125 53.589844 6.324219 C 52.96875 6.320312 52.398438 6.105469 51.957031 5.621094 C 51.714844 5.359375 51.566406 5.070312 51.484375 4.714844 C 51.296875 3.894531 51.414062 3.148438 51.921875 2.476562 C 52.253906 2.039062 52.714844 1.804688 53.261719 1.777344 C 53.542969 1.761719 53.832031 1.785156 54.109375 1.828125 C 54.484375 1.886719 54.785156 2.074219 54.984375 2.40625 C 55.015625 2.457031 55.078125 2.488281 55.125 2.523438 C 55.136719 2.53125 55.15625 2.523438 55.195312 2.519531 C 55.207031 2.320312 55.222656 2.113281 55.238281 1.894531 "/>
<path style=" stroke:none;fill-rule:evenodd;fill:rgb(20.129395%,36.412048%,69.903564%);fill-opacity:1;" d="M 90.90625 5.890625 C 91.527344 5.890625 91.941406 5.65625 92.253906 5.175781 C 92.726562 4.4375 92.730469 3.703125 92.300781 2.949219 C 91.882812 2.214844 90.890625 1.847656 90.007812 2.429688 C 89.300781 2.894531 88.964844 3.765625 89.273438 4.644531 C 89.570312 5.484375 90.109375 5.914062 90.90625 5.890625 Z M 93.183594 4.035156 C 93.175781 5.421875 92.300781 6.320312 90.847656 6.324219 C 89.742188 6.324219 88.558594 5.570312 88.597656 4.050781 C 88.632812 2.734375 89.457031 1.757812 90.863281 1.730469 C 92.410156 1.699219 93.273438 2.9375 93.183594 4.035156 "/>
<path style=" stroke:none;fill-rule:evenodd;fill:rgb(20.129395%,36.412048%,69.903564%);fill-opacity:1;" d="M 137.84375 6.136719 C 137.84375 5.261719 137.851562 4.40625 137.839844 3.554688 C 137.835938 3.304688 137.789062 3.050781 137.730469 2.808594 C 137.695312 2.660156 137.597656 2.527344 137.515625 2.371094 C 137.382812 2.304688 137.242188 2.234375 137.101562 2.164062 C 136.15625 2.039062 135.769531 2.65625 135.546875 3.316406 C 135.464844 3.5625 135.449219 3.839844 135.441406 4.109375 C 135.429688 4.773438 135.4375 5.441406 135.4375 6.132812 C 135.257812 6.132812 135.089844 6.132812 134.90625 6.132812 C 134.90625 4.734375 134.90625 3.339844 134.90625 1.910156 C 135.078125 1.898438 135.230469 1.886719 135.417969 1.875 C 135.433594 2.097656 135.445312 2.296875 135.460938 2.558594 C 135.632812 2.386719 135.769531 2.242188 135.910156 2.109375 C 136.359375 1.6875 136.894531 1.675781 137.445312 1.824219 C 137.957031 1.960938 138.210938 2.347656 138.308594 2.84375 C 138.355469 3.089844 138.390625 3.34375 138.394531 3.59375 C 138.402344 4.433594 138.394531 5.273438 138.394531 6.136719 C 138.203125 6.136719 138.035156 6.136719 137.84375 6.136719 "/>
<path style=" stroke:none;fill-rule:evenodd;fill:rgb(20.129395%,36.412048%,69.903564%);fill-opacity:1;" d="M 148.398438 1.875 C 148.589844 1.882812 148.746094 1.890625 148.941406 1.902344 C 148.117188 3.976562 147.3125 6.019531 146.496094 8.058594 C 146.472656 8.125 146.394531 8.175781 146.328125 8.246094 C 146.1875 8.238281 146.039062 8.226562 145.839844 8.210938 C 146.132812 7.519531 146.417969 6.84375 146.714844 6.140625 C 146.066406 4.75 145.410156 3.332031 144.742188 1.890625 C 144.949219 1.890625 145.121094 1.890625 145.347656 1.890625 C 145.910156 3.050781 146.410156 4.265625 146.976562 5.523438 C 147.511719 4.308594 147.90625 3.09375 148.398438 1.875 "/>
<path style=" stroke:none;fill-rule:evenodd;fill:rgb(20.129395%,36.412048%,69.903564%);fill-opacity:1;" d="M 82.363281 5.417969 C 82.363281 5.617188 82.363281 5.757812 82.363281 5.921875 C 81.707031 6.367188 80.996094 6.394531 80.246094 6.195312 C 79.46875 5.992188 78.933594 5.511719 78.722656 4.734375 C 78.40625 3.566406 78.792969 2.519531 79.882812 1.972656 C 80.28125 1.773438 80.726562 1.734375 81.160156 1.746094 C 81.582031 1.757812 82.015625 1.789062 82.359375 2.136719 C 82.359375 2.269531 82.359375 2.425781 82.359375 2.59375 C 82.023438 2.480469 81.738281 2.289062 81.394531 2.207031 C 80.828125 2.066406 80.363281 2.238281 79.929688 2.546875 C 79.101562 3.132812 79.03125 4.109375 79.398438 4.929688 C 79.660156 5.511719 80.179688 5.816406 80.824219 5.882812 C 81.226562 5.929688 81.605469 5.851562 81.957031 5.628906 C 82.074219 5.550781 82.207031 5.496094 82.363281 5.417969 "/>
<path style=" stroke:none;fill-rule:evenodd;fill:rgb(20.129395%,36.412048%,69.903564%);fill-opacity:1;" d="M 71.484375 1.910156 C 71.863281 1.824219 72.167969 1.820312 72.519531 1.902344 C 72.476562 2.042969 72.4375 2.183594 72.398438 2.3125 C 72.351562 2.328125 72.320312 2.347656 72.292969 2.34375 C 71.992188 2.324219 71.691406 2.296875 71.441406 2.523438 C 71.113281 2.816406 70.878906 3.164062 70.808594 3.605469 C 70.722656 4.171875 70.773438 4.738281 70.765625 5.304688 C 70.761719 5.578125 70.765625 5.851562 70.765625 6.140625 C 70.59375 6.140625 70.40625 6.140625 70.203125 6.140625 C 70.226562 4.734375 70.191406 3.324219 70.21875 1.898438 C 70.40625 1.898438 70.546875 1.898438 70.726562 1.898438 C 70.746094 2.148438 70.765625 2.386719 70.785156 2.65625 C 71.035156 2.394531 71.265625 2.148438 71.484375 1.910156 "/>
<path style=" stroke:none;fill-rule:evenodd;fill:rgb(20.129395%,36.412048%,69.903564%);fill-opacity:1;" d="M 63.246094 6.140625 C 63.039062 6.140625 62.882812 6.140625 62.710938 6.140625 C 62.710938 4.730469 62.710938 3.335938 62.710938 1.921875 C 62.867188 1.851562 63.03125 1.871094 63.242188 1.933594 C 63.261719 3.328125 63.246094 4.71875 63.246094 6.140625 "/>
<path style=" stroke:none;fill-rule:evenodd;fill:rgb(20.129395%,36.412048%,69.903564%);fill-opacity:1;" d="M 63.007812 0.902344 C 62.765625 0.820312 62.582031 0.738281 62.511719 0.5 C 62.542969 0.261719 62.632812 0.0585938 62.945312 -0.00390625 C 63.039062 0.03125 63.167969 0.078125 63.332031 0.136719 C 63.34375 0.308594 63.351562 0.472656 63.367188 0.664062 C 63.242188 0.746094 63.128906 0.820312 63.007812 0.902344 "/>
<path style=" stroke:none;fill-rule:evenodd;fill:rgb(20.129395%,36.412048%,69.903564%);fill-opacity:1;" d="M 149.269531 13.671875 C 149.269531 15.292969 147.953125 16.605469 146.332031 16.605469 C 144.710938 16.605469 143.394531 15.292969 143.394531 13.671875 C 143.394531 12.046875 144.710938 10.734375 146.332031 10.734375 C 147.953125 10.734375 149.269531 12.046875 149.269531 13.671875 "/>
</g>
</svg>
