<svg xmlns="http://www.w3.org/2000/svg" width="176pt" height="69.88" viewBox="0 0 176 52.41"><defs><clipPath id="a"><path d="M148 34h15v18.41h-15Zm0 0"/></clipPath><clipPath id="b"><path d="M162 34h14v18.41h-14Zm0 0"/></clipPath><clipPath id="c"><path d="M0 40h72v12.41H0Zm0 0"/></clipPath></defs><path d="M51.84 16.082c0 5.656-4.586 10.242-10.242 10.242s-10.243-4.586-10.243-10.242c0-2.012.579-3.89 1.582-5.473.961.848 2.672-.754 1.481-1.836q.552-.54 1.18-.992c1.21.996 2.297.184 2.05-1.152a10.2 10.2 0 0 1 2.391-.672c.238 1.086 2.016 2.434 2.973-.02.648.09 1.281.239 1.886.446-.824 2.008 1.555 2.394 2.051.965.582.355 1.125.77 1.621 1.234-.168.238-.277 1.844 1.207 1.336a10.2 10.2 0 0 1 2.063 6.164" style="stroke:none;fill-rule:nonzero;fill:#f9e22b;fill-opacity:1"/><path d="M36.973 12.145c.504-.672 3.476-2.43 3.476-2.43l1.957-.219 3.75 2.281 1.395 1.395.742 7.265s-1.094 2.254-1.277 2.434c-.188.18-5.418.848-5.614.902-.195.059-4.855-.386-4.855-.386l-1.598-2.735-.867-5.78z" style="stroke:none;fill-rule:nonzero;fill:#fff;fill-opacity:1"/><path d="M30.648 12.645c-.218-1.278-1.125-2.004-2.14-2.606-1.54-.914-3.266-1.191-5.016-1.434-1.183-.164-2.39-.418-3.492-.867-2.191-.89-3.047-2.375-2.926-4.726.035-.66.14-1.324.29-1.973.062-.285.304-.531.62-1.043.301.582.536.906.641 1.27.148.52.188 1.066.3 1.597.352 1.64 1.266 2.817 2.915 3.278 1.043.289 2.125.425 3.172.691 1.324.336 2.699.59 3.937 1.145 1.98.886 3.098 2.457 3 4.75-.094 2.14.121 4.363.543 6.453.25 1.226 1.477 4.011 4.028 5.375 2.011 1.074 4.437 1.66 6.722 1.297 1.82-.29 5.672-1.883 6.68-5.024.566-1.765 1.11-3.488 1.203-5.332.047-.96.063-1.922.027-2.879-.074-2.058.856-3.52 2.602-4.5 1.516-.851 3.164-1.273 4.883-1.472a16 16 0 0 0 1.965-.348c2.074-.524 3.332-1.813 3.62-3.973.051-.37.09-.754.208-1.105.12-.371.328-.715.816-1.18.121.207.281.402.352.629.847 2.66.718 5.793-2.696 7.082-1.156.434-2.414.586-3.629.867s-2.464.457-3.632.863c-1.551.532-2.762 1.532-3.34 3.153.074.031.18.086.191.07 1.63-2.031 3.946-2.504 6.336-2.828.863-.117 1.73-.254 2.578-.465 1.785-.45 3.051-1.64 4.121-3.101.657 1.214.313 2.683-.855 3.617-1.145.914-2.477 1.332-3.934 1.433-2.355.16-4.61.707-6.699 1.856-.996.547-1.652 1.34-2.004 2.422.086.023.137.05.149.039 2.058-2.2 4.738-2.86 7.593-2.992 1.965-.094 3.653-.762 5.09-2.094.082-.078.2-.117.45-.262-.215 1.328-.727 2.277-1.778 2.926-1.367.844-2.879 1.082-4.441 1.074-1.7-.008-3.328.3-4.844 1.059-.7.347-1.34.832-1.945 1.328-.278.23-.407.64-.68 1.105.316-.066.414-.054.46-.101 1.813-1.766 4.009-2.434 6.5-2.43 1.84.008 3.638-.34 5.446-1.375-.18 1.027-.691 1.566-1.379 1.973-1.414.836-2.976 1.011-4.578 1.05-.957.024-1.918.083-2.863.208-1.324.18-2.434.808-3.266 1.937.266-.14.528-.285.793-.426 1.274-.672 2.63-1.097 4.074-1.082 1.868.024 3.743.16 5.516-.773-.242 1.054-.977 1.586-1.855 1.812-1 .254-2.051.313-3.079.453-1.523.207-3.062.348-4.57.637-.793.152-1.582.488-1.988 1.387.316-.14.64-.266.945-.43 1.028-.535 2.125-.785 3.262-.64 1.82.23 3.578.12 5.293-.563.058-.023.152.027.332.063-.406.664-1.024.957-1.66 1.23-1.352.574-2.774.516-4.192.434-1.265-.07-2.508-.008-3.691.492-.34.14-.664.32-.953.664.281-.05.562-.098.84-.16 1.113-.254 2.21-.36 3.343-.059 1.239.328 2.461.117 3.688-.23-.899 1.191-2.098 1.535-3.543 1.414-1.363-.114-2.742-.11-4.113-.125-.223-.004-.45.16-.672.246q-.264.03-.528.054l.036.145.472-.223c1.61.118 3.219.23 5.008.36-.383.582-.824.672-1.242.687-.832.024-1.668.024-2.496-.039-1.668-.125-3.192.211-4.7.977-3.007 1.523-6.12 1.578-9.148.074-1.836-.914-3.703-1.223-5.695-.91-1.016.16-1.969.082-2.867-.547 1.691-.328 3.363-.664 5.101-.457-1.57-.57-3.183-.512-4.777-.242-1.371.226-2.567-.024-3.625-.914-.11-.09-.172-.235-.223-.457 1.625.562 3.207.34 4.82.066.707-.121 1.48.145 2.22.242.277.035.55.102.843.07-1.55-1.101-3.313-1.218-5.113-1.035-1.274.133-2.496-.035-3.688-.441-.703-.238-1.367-.586-1.898-1.39.855.222 1.55.472 2.27.574.82.117 1.667.195 2.488.125 1.828-.157 3.585-.09 5.242 1.125-.305-.813-.395-.922-1.145-1.235-1.441-.594-2.965-.816-4.515-.898-1.122-.063-2.25-.11-3.356-.274s-2.039-.683-2.598-1.812c.172-.047.297-.13.372-.098 1.457.617 2.968.777 4.535.664 1.574-.113 3.062.258 4.484.922.297.14.61.234.918.352q.124.13.254.257l.039.051-.066-.023q-.124-.135-.243-.27c-.675-1.156-1.847-1.492-3.027-1.715-.89-.171-1.824-.109-2.73-.214-1.235-.141-2.485-.25-3.688-.547-1.164-.29-2.098-.985-2.535-2.387.32.117.535.172.727.27 1.484.753 3.082 1.03 4.718 1.023 2.52-.012 4.778.605 6.614 2.422.046.047.148.031.328.058-.098-.742-.535-1.203-1.082-1.578-1.692-1.168-3.582-1.722-5.621-1.847-1.079-.067-2.176-.082-3.223-.309-1.774-.379-3.133-1.336-3.621-3.215-.031-.11-.004-.23-.004-.504.308.235.523.383.723.551 1.25 1.047 2.652 1.672 4.304 1.785 1.246.086 2.485.285 3.711.492 1.172.2 2.203.746 3.14 1.47.423.327.852.648 1.278.972.035.02.063.035.094.055l-.11-.036c-.097-1.234-.968-1.886-1.917-2.418-2.067-1.168-4.344-1.648-6.688-1.828-1.227-.09-2.375-.386-3.414-1.07-1.445-.95-1.902-2.035-1.555-3.977.282.254.54.426.72.66 1.39 1.805 3.288 2.575 5.483 2.86 1.395.184 2.778.5 4.153.816 1.215.282 2.02 1.242 2.988 1.934.016.105.035.207.008.047.098.12.035.047-.024-.031" style="stroke:none;fill-rule:nonzero;fill:#201d48;fill-opacity:1"/><path d="M36.738 22.703c.54.063 9.34-.105 9.938-.144.18-.926-.453-2.813-.715-3.512-.402-1.074-.664-1.23-1.797-.867-1.512.484-3.004.511-4.52.047-.312-.098-.664-.157-.98-.122-.262.032-.637.172-.734.372-.602 1.253-1.457 2.445-1.192 4.226m4.39-7.668c-.226-1.277-.823-1.746-2.183-1.758-.468-.004-.972.043-1.441.043-.387.004-.793-.093-1.18-.093.043.53.04 1.023.13 1.496.19.976.55 1.84 1.737 1.941 0 0 2.465.414 2.746-1.117.133-.262.133-.387.192-.512m1.536 1.133c.48.664 1.574.64 2.691.496.59-.074 1.196-.582 1.461-1.816 0 0 .086-1.211.2-1.676-.512.074-.918.172-1.32.18-.415.007-.825-.094-1.239-.118-1.39-.07-2.121.344-2.39 1.782.117.246.402.886.597 1.152M33.274 20c-.473-.527-.254-3.906-.29-5.941-.027-1.727 1.317-2.454 2.934-1.547 1.09-3.067 3.547-3.797 6.46-3.735 1.997.047 3.645 1.184 4.907 3.465q.19-.092.38-.191c1.292-.703 2.429-.125 2.542 1.355.059.785-.047 1.578-.059 2.367-.015.868-.062 1.735-.003 2.598.074 1.067-.125 1.524-1.106 2.024-.039 1.093-.758 2.41-1.32 2.933-.817.766-1.809.797-2.867 1.031-.25.055-.528.278-.778.348-1.761.473-3.535.531-5.265-.234-.368-.16-.805-.164-1.207-.239-1.434-.265-3.274-1.77-3.375-3.414-.024-.386-.567-.383-.954-.82" style="stroke:none;fill-rule:nonzero;fill:#ee2922;fill-opacity:1"/><path d="M36.504 13.398c.008.106.012.211.02.317.015.34.035.664.093.973.2 1.023.547 1.722 1.59 1.812.035.004 2.316.371 2.566-.98l.016-.047c.074-.149.102-.246.129-.332q.017-.066.039-.125c-.215-1.149-.746-1.563-2.016-1.57-.242-.005-.492.007-.746.019-.234.012-.46.023-.695.023-.203 0-.406-.023-.605-.047-.133-.015-.266-.035-.391-.043m2.41 3.489c-.406 0-.71-.051-.75-.055-1.316-.113-1.687-1.113-1.875-2.078a8 8 0 0 1-.102-1.024q-.009-.24-.03-.492l-.016-.18h.183c.203 0 .41.028.61.051.199.024.386.047.566.047h.004c.219 0 .45-.011.676-.023.258-.012.515-.024.765-.024 1.453.012 2.11.547 2.348 1.899l.012.055-.024.046a.6.6 0 0 0-.043.125c-.027.086-.062.204-.14.368-.22 1.093-1.391 1.285-2.184 1.285m3.328-1.89.035.077c.13.274.364.781.52.996.441.606 1.531.559 2.539.43.621-.078 1.102-.695 1.316-1.687 0-.024.063-.895.153-1.438q-.118.018-.223.035c-.32.059-.598.106-.883.11a4.6 4.6 0 0 1-.738-.063c-.172-.023-.344-.047-.516-.055-1.375-.074-1.96.348-2.203 1.594m2.035 1.917c-.726 0-1.386-.144-1.75-.644-.175-.243-.41-.754-.55-1.055l-.082-.176.007-.055c.27-1.441 1.012-1.992 2.563-1.914.183.008.363.032.543.059.234.031.465.062.683.059.262-.008.528-.051.832-.106q.218-.036.465-.074l.246-.04-.058.243c-.11.445-.192 1.637-.192 1.648-.355 1.645-1.242 1.926-1.605 1.973a9 9 0 0 1-1.102.082m-7.39 5.633c1.16.035 8.48-.11 9.644-.149.106-1-.582-2.906-.726-3.293-.38-1.011-.559-1.097-1.59-.77-1.574.505-3.082.52-4.621.048-.34-.102-.653-.14-.91-.11-.262.032-.547.165-.602.278-.102.207-.207.41-.316.617-.512.988-1.04 2.008-.88 3.379m.64.34c-.425 0-.715-.008-.804-.016l-.13-.016-.019-.125c-.23-1.546.344-2.648.895-3.718q.163-.303.308-.606c.137-.281.594-.433.868-.465.304-.035.664.008 1.046.125 1.47.45 2.918.434 4.422-.046 1.192-.383 1.567-.2 2.004.968.219.586.922 2.586.723 3.602l-.024.125-.129.012c-.44.027-6.832.16-9.16.16m-2.941-10.602c-.27 0-.516.063-.727.192-.468.277-.718.84-.707 1.578.008.543 0 1.164-.007 1.824-.024 1.637-.051 3.672.253 4.012.149.168.332.265.497.351.234.125.48.258.5.567.093 1.515 1.816 3 3.238 3.261.12.024.25.04.375.055.293.035.594.074.867.195 1.523.672 3.207.746 5.152.223.106-.027.22-.09.34-.152.149-.082.297-.16.45-.196.214-.047.425-.086.632-.125.824-.152 1.54-.285 2.156-.863.493-.46 1.23-1.73 1.266-2.82l.004-.098.086-.043c.89-.453 1.09-.816 1.02-1.863-.047-.68-.032-1.367-.012-2.035l.011-.575c.004-.285.02-.57.04-.855.027-.496.058-1.008.02-1.5-.052-.645-.31-1.125-.727-1.355-.426-.231-.985-.184-1.567.132q-.135.074-.27.137l-.257.133-.078-.14c-1.215-2.2-2.82-3.337-4.766-3.38-3.434-.078-5.383 1.043-6.3 3.621l-.067.188-.172-.098c-.438-.246-.867-.37-1.25-.37m7.027 12.938a7 7 0 0 1-2.87-.598c-.231-.102-.497-.133-.774-.168a6 6 0 0 1-.399-.059c-1.57-.289-3.406-1.878-3.511-3.566-.008-.117-.094-.172-.32-.293-.18-.098-.4-.215-.59-.426-.364-.406-.372-1.941-.34-4.238.011-.656.02-1.277.011-1.812-.015-.868.293-1.532.867-1.876.57-.34 1.344-.308 2.141.086.996-2.605 3.031-3.734 6.555-3.66 2.031.043 3.703 1.192 4.969 3.41q.117-.058.234-.12c.687-.376 1.355-.423 1.887-.133.52.285.84.859.898 1.625.043.515.012 1.035-.02 1.543q-.024.418-.038.84l-.012.577c-.016.66-.031 1.344.011 2.004.079 1.149-.171 1.641-1.113 2.137-.078 1.168-.832 2.457-1.367 2.953-.687.649-1.48.793-2.32.95q-.31.056-.625.124c-.106.024-.235.094-.36.16a2.2 2.2 0 0 1-.41.184 9.6 9.6 0 0 1-2.504.356" style="stroke:none;fill-rule:nonzero;fill:#100f0d;fill-opacity:1"/><path d="M41.55 3.098c-.757.675-1.042 1.554-1.292 2.425-.164.575.14 1.079.61 1.407.44.312.96.328 1.405 0 .457-.344.73-.832.551-1.422-.265-.867-.539-1.742-1.273-2.41m.005-.649c.867.856 1.28 1.895 1.582 2.969.199.715.05 1.398-.63 1.871q-.847.596-1.753.113c-.719-.379-.969-1.02-.852-1.773.188-1.223.813-2.23 1.653-3.18" style="stroke:none;fill-rule:nonzero;fill:#201d48;fill-opacity:1"/><path d="M39.004 21.3h5.562c-.222-.491-.379-.847-.582-1.3-.214.367-.37.637-.52.883h-3.401c-.192-.207-.399-.653-.61-.883-.195.422-.297.977-.45 1.3m0-2.312h5.484s.95 1.723.864 2.614c-1.13.03-2.348-.016-3.528.015-1.183.031-2.37.008-3.625.008.051-1.066.805-2.637.805-2.637M39.945 14.637l-.054-.028.035.047Zm0 0" style="stroke:none;fill-rule:nonzero;fill:#231f20;fill-opacity:1"/><path d="M41.723 4.02c.218.437.523.851.617 1.312.062.293-.09.793-.317.941-.234.153-.777.11-.992-.07-.207-.18-.289-.668-.215-.976.098-.422.387-.801.598-1.196z" style="stroke:none;fill-rule:nonzero;fill:#ee2922;fill-opacity:1"/><path d="M46.785 5.195c-.746.2-1.246.7-1.715 1.207-.308.332-.273.782-.066 1.164.191.364.543.555.957.48.43-.073.781-.312.863-.773.117-.683.23-1.37-.039-2.078m.227-.441c.293.883.218 1.73.054 2.562-.109.555-.445.97-1.07 1.059q-.78.113-1.23-.523c-.36-.508-.309-1.028.027-1.5.547-.766 1.316-1.239 2.219-1.598" style="stroke:none;fill-rule:nonzero;fill:#201d48;fill-opacity:1"/><path d="M46.586 5.883c-.004.37.062.758-.031 1.105-.059.219-.336.508-.54.528-.21.023-.566-.188-.648-.387-.082-.191.031-.555.184-.738.215-.254.543-.41.82-.61.07.035.145.067.215.102" style="stroke:none;fill-rule:nonzero;fill:#ee2922;fill-opacity:1"/><path d="M50.3 7.715c-.612.086-1.062.437-1.484.797-.28.234-.296.597-.171.925.12.31.382.493.718.477.352-.02.657-.172.766-.535.16-.531.32-1.07.172-1.664m.227-.328c.149.73.004 1.402-.207 2.05-.144.434-.453.731-.957.743-.425.008-.734-.172-.937-.54-.235-.44-.145-.85.172-1.199.511-.558 1.175-.859 1.93-1.054" style="stroke:none;fill-rule:nonzero;fill:#201d48;fill-opacity:1"/><path d="M50.074 8.242c-.035.297-.023.613-.133.883-.066.168-.316.371-.48.371-.172-.004-.434-.21-.484-.375-.043-.16.082-.441.222-.57.196-.184.473-.278.715-.406.055.03.11.066.16.097" style="stroke:none;fill-rule:nonzero;fill:#ee2922;fill-opacity:1"/><path d="M35.586 7.273c.082.461.434.7.863.774.414.074.766-.117.957-.48.207-.383.242-.833-.066-1.165-.469-.507-.969-1.007-1.715-1.207-.27.707-.156 1.395-.04 2.078m2.031-.921c.336.472.387.992.028 1.5q-.45.636-1.235.523c-.62-.09-.957-.504-1.066-1.059-.164-.832-.239-1.68.054-2.562.903.36 1.672.832 2.22 1.598" style="stroke:none;fill-rule:nonzero;fill:#201d48;fill-opacity:1"/><path d="M35.824 5.883c.004.37-.062.758.031 1.105.06.219.336.508.54.528.21.023.566-.188.648-.387.082-.191-.031-.555-.184-.738-.214-.254-.539-.41-.82-.61q-.104.051-.215.102" style="stroke:none;fill-rule:nonzero;fill:#ee2922;fill-opacity:1"/><path d="M32.59 9.918c.137.469.531.668.984.691.434.02.77-.218.922-.617.16-.422.145-.883-.219-1.187-.543-.465-1.12-.914-1.91-1.024-.191.762.016 1.453.223 2.137m1.965-1.203c.41.445.527.973.222 1.539q-.384.713-1.203.695c-.652-.011-1.047-.394-1.23-.953-.274-.836-.457-1.7-.266-2.64.969.253 1.82.64 2.477 1.359" style="stroke:none;fill-rule:nonzero;fill:#201d48;fill-opacity:1"/><path d="M32.656 8.46c.051.38.035.786.172 1.134.086.219.406.476.621.476.219-.004.559-.27.617-.484.063-.207-.101-.563-.28-.73-.25-.235-.61-.356-.919-.524z" style="stroke:none;fill-rule:nonzero;fill:#ee2922;fill-opacity:1"/><path d="M44.457 14.441a.815.815 0 1 0-.002 1.63.815.815 0 0 0 .002-1.63m0 1.961a1.15 1.15 0 0 1-1.148-1.148 1.147 1.147 0 1 1 2.293 0c0 .633-.512 1.148-1.145 1.148" style="stroke:none;fill-rule:nonzero;fill:#100f0d;fill-opacity:1"/><path d="M44.688 15.254a.23.23 0 0 1-.231.23.23.23 0 0 1-.234-.23c0-.129.105-.23.234-.23a.23.23 0 0 1 .23.23" style="stroke:none;fill-rule:nonzero;fill:#100f0d;fill-opacity:1"/><path d="M42.281 11.54c0 1.25-.3 2.265-.676 2.265-.375 0-.68-1.016-.68-2.266s.305-2.266.68-2.266.676 1.016.676 2.266" style="stroke:none;fill-rule:nonzero;fill:#fff;fill-opacity:1"/><path d="M41.605 9.441c-.18 0-.511.797-.511 2.098s.332 2.098.511 2.098c.18 0 .512-.797.512-2.098s-.332-2.098-.512-2.098m0 4.528c-.582 0-.847-1.258-.847-2.43s.265-2.434.847-2.434c.579 0 .844 1.262.844 2.434s-.265 2.43-.844 2.43" style="stroke:none;fill-rule:nonzero;fill:#100f0d;fill-opacity:1"/><path d="M41.598 11.047a.493.493 0 1 0 0 .985.493.493 0 0 0 0-.985m0 1.316a.825.825 0 0 1 0-1.652.827.827 0 0 1 0 1.652" style="stroke:none;fill-rule:nonzero;fill:#100f0d;fill-opacity:1"/><path d="M41.754 11.54c0 .085-.07.155-.156.155a.157.157 0 0 1-.157-.156.157.157 0 0 1 .313 0M38.852 14.441a.815.815 0 1 0 .005 1.627.815.815 0 0 0-.005-1.627m0 1.961a1.15 1.15 0 0 1-1.149-1.148 1.15 1.15 0 0 1 1.149-1.149A1.15 1.15 0 0 1 40 15.254a1.15 1.15 0 0 1-1.148 1.148" style="stroke:none;fill-rule:nonzero;fill:#100f0d;fill-opacity:1"/><path d="M39.082 15.254c0 .129-.102.23-.23.23a.23.23 0 0 1-.23-.23c0-.129.1-.23.23-.23.128 0 .23.101.23.23M41.156 18.04a.23.23 0 0 1-.23.233.23.23 0 0 1-.23-.234.23.23 0 0 1 .46 0M42.746 18.04a.23.23 0 0 1-.23.233.235.235 0 0 1-.235-.234c0-.125.106-.23.235-.23a.23.23 0 0 1 .23.23M42.098 15.184h-.035l.007-.336c.356.007.578-.141.844-.313.297-.191.633-.41 1.18-.43.422-.011.781.016 1.097.043.403.032.715.059.934-.03.273-.11.594-.68.734-1.013l.309.13c-.043.1-.43.995-.918 1.195-.29.117-.64.086-1.086.05-.305-.023-.656-.054-1.059-.039-.453.016-.722.188-1.011.375-.274.18-.563.368-.996.368M41.102 15.203c-.442 0-.684-.195-.918-.383-.23-.187-.45-.367-.899-.379-.402-.015-.75.016-1.058.04-.446.035-.793.066-1.086-.051-.489-.2-.875-1.094-.914-1.196l.304-.129c.14.332.465.903.739 1.012.214.09.53.063.93.031a9 9 0 0 1 1.097-.043c.562.02.848.25 1.098.454.218.18.386.316.73.312l.008.332zM34.066 20.867c-.246-.836.524-3.926 1.336-7.015.164-.622.293-1.11.352-1.375l.324.07c-.058.273-.187.765-.351 1.39-.555 2.102-1.582 6.016-1.34 6.836zM44.621 24.547c-1.062 0-2.476-1.067-3.082-1.613-.441.324-2.05 1.449-3.324 1.55l-.028-.332c1.09-.09 2.61-1.062 3.262-1.566l.114-.09.101.102c.805.761 2.313 1.761 3.156 1.597l.063.328a1.5 1.5 0 0 1-.262.024M48.871 20.418c-.266-1.832-1.527-7.727-1.73-8.094l.289-.164c.234.402 1.52 6.453 1.773 8.211zM48.57 14.43s-.011-.114-.035-.305c-.012-.195-.058-.469-.05-.812.011-.168 0-.38.18-.579a.5.5 0 0 1 .35-.144l.02-.004.04.004h.007l.04.008c.019 0 .085.03.12.058a.5.5 0 0 1 .137.164c.125.22.172.434.21.66q.053.334.075.672c.059.899 0 1.786-.066 2.453-.032.332-.078.606-.106.801-.027.192-.05.301-.05.301l-.012-.309a51 51 0 0 1-.024-.8c-.015-.664-.015-1.551-.074-2.426a7 7 0 0 0-.062-.64c-.032-.208-.067-.419-.145-.567-.016-.04-.043-.067-.05-.078-.009.004.023-.008-.009-.016l-.039-.008-.007-.004h-.008c-.008 0 .05.004.027.004h-.016a.28.28 0 0 0-.187.051c-.098.078-.14.258-.164.414-.04.32-.055.602-.07.793-.016.195-.032.309-.032.309M34.559 14.762s-.016-.11-.032-.305c-.015-.191-.03-.477-.07-.793-.023-.156-.066-.336-.164-.414a.26.26 0 0 0-.188-.055h-.015c-.024.004.035-.004.027 0h-.008l-.007.004-.036.008c-.035.008-.004.016-.011.012-.008.011-.035.043-.051.078-.078.148-.113.363-.145.566q-.044.317-.062.645c-.059.87-.059 1.758-.074 2.422-.008.332-.016.61-.024.804l-.011.305s-.024-.11-.051-.3c-.028-.192-.075-.47-.106-.802-.066-.664-.125-1.554-.066-2.453.015-.222.039-.449.074-.671.04-.223.086-.442.211-.66a.6.6 0 0 1 .137-.16c.035-.028.101-.063.12-.06l.04-.007h.008l.039-.004h.02a.54.54 0 0 1 .35.144c.18.2.169.414.18.579.008.343-.039.617-.05.812-.024.195-.035.305-.035.305" style="stroke:none;fill-rule:nonzero;fill:#100f0d;fill-opacity:1"/><path d="M39.55 19.168c-.015.043-.112.418-.112.418l.472-.211h3.563l.39.266-.07-.473z" style="stroke:none;fill-rule:nonzero;fill:#fff;fill-opacity:1"/><path d="M40.281 20.82c0-.433.285-1.09 1.5-1.09 1.266 0 1.38 1.09 1.38 1.09z" style="stroke:none;fill-rule:nonzero;fill:#ee2922;fill-opacity:1"/><path d="M100.45 26.047h-4.735l-5.383-15.242-2.172 15.242h-4.496l3.113-21.27h6.04l4.464 12.524 1.781-12.524h4.5zM114.727 15.41c.128-.965.02-1.687-.325-2.254-.343-.57-.957-.738-1.832-.738-.894 0-1.636.129-2.226.727-.59.593-.985 1.3-1.184 2.265Zm-3.067 11.258q-4.183-.001-6.094-2.234c-1.277-1.489-1.714-3.606-1.324-6.356q.576-4.037 2.996-6.445 2.422-2.408 6.157-2.406 3.392 0 4.816 2.039c.945 1.359 1.238 3.468.875 6.004l-.262 2.007h-10.09c-.066 0-.011 1.243.16 1.758.172.512.442.844.801 1.145.352.304.782.48 1.285.613.508.133 1.075.18 1.696.18.535 0 1.07-.078 1.61-.207a8 8 0 0 0 1.491-.528c.407-.187.782-.312 1.133-.527.352-.215.64-.5.863-.5h.489l-.606 4.168c-.398.164-.765.281-1.097.422-.332.144-.782.27-1.344.414-.52.148-1.055.254-1.594.336-.543.082-1.195.117-1.96.117M131.125 17.86q.341-2.41-.168-3.497-.51-1.085-1.918-1.086-.616.001-1.262.22c-.43.148-.859.366-1.297.66l-1.18 8.296q.341.175.77.25c.29.047.633.074 1.04.074q1.68-.001 2.671-1.226.992-1.225 1.344-3.692m4.723-.106q-.564 3.95-2.703 6.371-2.138 2.426-4.774 2.426c-.734 0-1.363-.094-1.879-.281-.52-.184-1.055-.688-1.613-1.079l-.98 6.653h-4.602l3.207-22.23h4.605l-.246 1.78a12.6 12.6 0 0 1 2.29-1.539c.761-.402 1.6-.585 2.523-.585 1.707 0 2.926.765 3.648 2.28.723 1.52.895 3.59.524 6.204M145.871 21.926l.488-3.438q-1.188.134-1.925.227a6.7 6.7 0 0 0-1.473.375 2.4 2.4 0 0 0-1.043.715q-.404.473-.516 1.27-.168 1.16.332 1.59.498.433 1.586.433.609 0 1.282-.309a4.6 4.6 0 0 0 1.27-.863m-.363 2.465c-.36.293-.68.601-.961.836a6.2 6.2 0 0 1-1.11.726c-.445.227-.867.41-1.277.527q-.61.178-1.66.18c-1.309 0-2.324-.484-3.047-1.465-.726-.976-.98-2.21-.77-3.699.172-1.223.536-2.21 1.079-2.965.547-.754 1.261-1.347 2.152-1.789.895-.449 1.938-.765 3.117-.941a51 51 0 0 1 3.797-.41l.012-.086q.194-1.366-.633-1.887-.825-.523-2.629-.523c-.543 0-1.195.296-1.953.52-.762.218-1.512.062-2.254 1.03h-.394l.566-4.168c.477-.144 1.238-.414 2.285-.613 1.047-.2 2.086-.348 3.121-.348 2.543 0 4.328.45 5.356 1.395 1.03.941 1.406 2.281 1.129 4.219l-1.598 11.117h-4.578zM157.848 26.047h-4.606l3.254-22.234h4.606zM89.965 42.965l-.926-7.211-2.879 7.21Zm-11.828 8.7 9.258-21.27H92.5l3.332 21.27h-4.816l-.559-3.868h-5.86l-1.765 3.867zM101.816 51.664h-4.382l2.234-16.434h4.383Zm2.676-18.367h-4.629l.543-3.867h4.63zM116.18 40.063h-.364c-.156 0-.39-.043-.703-.079-.312-.03-.66-.011-1.043-.011-.46 0-.953.097-1.48.254-.524.156-1.04.261-1.543.476l-1.496 10.961h-4.383l2.234-16.434h4.38l-.317 2.426c.226-.215.543-.453.941-.781a10 10 0 0 1 1.074-.77c.348-.226.747-.41 1.188-.574q.663-.239 1.227-.238.214.001.476.02c.172.007.328-.051.469-.032z" style="stroke:none;fill-rule:nonzero;fill:#1a1f44;fill-opacity:1"/><path d="M120.996 51.664h-4.379l3.094-22.234h4.383zM128.398 51.664h-4.382l2.234-16.434h4.383Zm2.676-18.367h-4.629l.543-3.867h4.63zM144.918 51.664h-4.406l1.105-8.086c.094-.668.16-1.285.203-1.945s.024-1.125-.058-1.438c-.102-.37-.282-.629-.543-.789q-.392-.239-1.106-.238c-.36 0-.73.082-1.12.238-.388.157-.813.317-1.278.66l-1.582 11.598h-4.383l2.234-16.434h4.38l-.247 1.883a13 13 0 0 1 2.324-1.64 4.8 4.8 0 0 1 2.34-.586c1.438 0 2.461.539 3.074 1.601.618 1.063.79 2.516.516 4.532z" style="stroke:none;fill-rule:nonzero;fill:#1a1f44;fill-opacity:1"/><g clip-path="url(#a)"><path d="M158.21 41.031c.122-.968.02-1.691-.308-2.258-.328-.566-.91-.738-1.742-.738-.851 0-1.558.13-2.12.727-.56.597-.935 1.3-1.126 2.27Zm-2.917 11.254q-3.98.001-5.797-2.23c-1.215-1.489-1.633-3.61-1.262-6.36q.55-4.037 2.852-6.445 2.302-2.407 5.86-2.406 3.226 0 4.577 2.039c.903 1.363 1.18 3.469.836 6.004l-.25 2.011h-9.601c-.063 0-.008 1.243.156 1.754.164.516.414.844.758 1.149.336.3.742.48 1.226.613.485.129 1.02.176 1.614.176.508 0 1.015-.074 1.527-.207a7.5 7.5 0 0 0 1.422-.528c.387-.183.742-.312 1.078-.527.332-.215.606-.496.82-.496h.465L161 50.996c-.383.168-.73.281-1.047.426-.316.14-.742.266-1.277.414-.496.144-1.004.25-1.52.336-.515.082-1.136.113-1.863.113" style="stroke:none;fill-rule:nonzero;fill:#1a1f44;fill-opacity:1"/></g><g clip-path="url(#b)"><path d="M167.594 52.3a10 10 0 0 1-2.88-.398c-.886-.261-1.605-.472-2.16-.824l.59-4.246h.364c.183 0 .39.293.629.516.234.226.574.41 1.02.656.374.226.812.394 1.304.555.488.16 1.035.23 1.637.23q.924-.002 1.68-.344.751-.34.85-1.074.076-.575-.206-.867c-.192-.195-.586-.383-1.192-.559q-.48-.146-1.218-.316a9 9 0 0 1-1.301-.39q-1.57-.604-2.242-1.786-.675-1.178-.41-3.105a5.6 5.6 0 0 1 .71-2.075 6.4 6.4 0 0 1 1.508-1.742q.94-.749 2.23-1.187 1.296-.44 2.845-.442c.988 0 1.875.114 2.671.344.793.23 1.454.418 1.977.738l-.566 4.078h-.348c-.133 0-.348-.226-.64-.457-.294-.23-.587-.382-.872-.55-.34-.196-.726-.332-1.168-.461a4.8 4.8 0 0 0-1.367-.18c-.633 0-1.187.133-1.66.387s-.738.597-.793 1.015q-.076.561.203.883.284.323 1.328.633.545.165 1.254.316a8 8 0 0 1 1.352.418q1.436.573 2.07 1.684c.422.738.547 1.719.383 2.941a6 6 0 0 1-.762 2.211q-.607 1.05-1.555 1.77a7.8 7.8 0 0 1-2.285 1.203c-.851.281-1.844.426-2.98.426" style="stroke:none;fill-rule:nonzero;fill:#1a1f44;fill-opacity:1"/></g><g clip-path="url(#c)"><path d="M65.14 51.965 0 52.41l2.617-12.398h69.227z" style="stroke:none;fill-rule:nonzero;fill:#1a1f44;fill-opacity:1"/></g><path d="M71.844 40.012H2.617l2.559-11.957H78.55z" style="stroke:none;fill-rule:nonzero;fill:#a01b21;fill-opacity:1"/></svg>