<?xml version="1.0" encoding="UTF-8"?>
<svg xmlns="http://www.w3.org/2000/svg" xmlns:xlink="http://www.w3.org/1999/xlink" width="176pt" height="52.41pt" viewBox="0 0 176 52.41" version="1.1">
<defs>
<clipPath id="clip1">
  <path d="M 148 34 L 163 34 L 163 52.410156 L 148 52.410156 Z M 148 34 "/>
</clipPath>
<clipPath id="clip2">
  <path d="M 162 34 L 176 34 L 176 52.410156 L 162 52.410156 Z M 162 34 "/>
</clipPath>
<clipPath id="clip3">
  <path d="M 0 40 L 72 40 L 72 52.410156 L 0 52.410156 Z M 0 40 "/>
</clipPath>
</defs>
<g id="surface1">
<path style=" stroke:none;fill-rule:nonzero;fill:rgb(97.737122%,88.777161%,16.784668%);fill-opacity:1;" d="M 51.839844 16.082031 C 51.839844 21.738281 47.253906 26.324219 41.597656 26.324219 C 35.941406 26.324219 31.355469 21.738281 31.355469 16.082031 C 31.355469 14.070312 31.933594 12.191406 32.9375 10.609375 C 33.898438 11.457031 35.609375 9.855469 34.417969 8.773438 C 34.785156 8.414062 35.179688 8.082031 35.597656 7.78125 C 36.808594 8.777344 37.894531 7.964844 37.648438 6.628906 C 38.402344 6.3125 39.203125 6.085938 40.039062 5.957031 C 40.277344 7.042969 42.054688 8.390625 43.011719 5.9375 C 43.660156 6.027344 44.292969 6.175781 44.898438 6.382812 C 44.074219 8.390625 46.453125 8.777344 46.949219 7.347656 C 47.53125 7.703125 48.074219 8.117188 48.570312 8.582031 C 48.402344 8.820312 48.292969 10.425781 49.777344 9.917969 C 51.070312 11.632812 51.839844 13.765625 51.839844 16.082031 "/>
<path style=" stroke:none;fill-rule:nonzero;fill:rgb(100%,100%,100%);fill-opacity:1;" d="M 36.972656 12.144531 C 37.476562 11.472656 40.449219 9.714844 40.449219 9.714844 L 42.40625 9.496094 L 46.15625 11.777344 L 47.550781 13.171875 L 48.292969 20.4375 C 48.292969 20.4375 47.199219 22.691406 47.015625 22.871094 C 46.828125 23.050781 41.597656 23.71875 41.402344 23.773438 C 41.207031 23.832031 36.546875 23.386719 36.546875 23.386719 L 34.949219 20.652344 L 34.082031 14.871094 L 36.972656 12.144531 "/>
<path style=" stroke:none;fill-rule:nonzero;fill:rgb(12.42218%,11.210632%,28.062439%);fill-opacity:1;" d="M 30.648438 12.644531 C 30.429688 11.367188 29.523438 10.640625 28.507812 10.039062 C 26.96875 9.125 25.242188 8.847656 23.492188 8.605469 C 22.308594 8.441406 21.101562 8.1875 20 7.738281 C 17.808594 6.847656 16.953125 5.363281 17.074219 3.011719 C 17.109375 2.351562 17.214844 1.6875 17.363281 1.039062 C 17.425781 0.753906 17.667969 0.507812 17.984375 -0.00390625 C 18.285156 0.578125 18.519531 0.902344 18.625 1.265625 C 18.773438 1.785156 18.8125 2.332031 18.925781 2.863281 C 19.277344 4.503906 20.191406 5.679688 21.839844 6.140625 C 22.882812 6.429688 23.964844 6.566406 25.011719 6.832031 C 26.335938 7.167969 27.710938 7.421875 28.949219 7.976562 C 30.929688 8.863281 32.046875 10.433594 31.949219 12.726562 C 31.855469 14.867188 32.070312 17.089844 32.492188 19.179688 C 32.742188 20.40625 33.96875 23.191406 36.519531 24.554688 C 38.53125 25.628906 40.957031 26.214844 43.242188 25.851562 C 45.0625 25.5625 48.914062 23.96875 49.921875 20.828125 C 50.488281 19.0625 51.03125 17.339844 51.125 15.496094 C 51.171875 14.535156 51.1875 13.574219 51.152344 12.617188 C 51.078125 10.558594 52.007812 9.097656 53.753906 8.117188 C 55.269531 7.265625 56.917969 6.84375 58.636719 6.644531 C 59.296875 6.566406 59.957031 6.457031 60.601562 6.296875 C 62.675781 5.773438 63.933594 4.484375 64.222656 2.324219 C 64.273438 1.953125 64.3125 1.570312 64.429688 1.21875 C 64.550781 0.847656 64.757812 0.503906 65.246094 0.0390625 C 65.367188 0.246094 65.527344 0.441406 65.597656 0.667969 C 66.445312 3.328125 66.316406 6.460938 62.902344 7.75 C 61.746094 8.183594 60.488281 8.335938 59.273438 8.617188 C 58.058594 8.898438 56.808594 9.074219 55.640625 9.480469 C 54.089844 10.011719 52.878906 11.011719 52.300781 12.632812 C 52.375 12.664062 52.480469 12.71875 52.492188 12.703125 C 54.121094 10.671875 56.4375 10.199219 58.828125 9.875 C 59.691406 9.757812 60.558594 9.621094 61.40625 9.410156 C 63.191406 8.960938 64.457031 7.769531 65.527344 6.308594 C 66.183594 7.523438 65.839844 8.992188 64.671875 9.925781 C 63.527344 10.839844 62.195312 11.257812 60.738281 11.359375 C 58.382812 11.519531 56.128906 12.066406 54.039062 13.214844 C 53.042969 13.761719 52.386719 14.554688 52.035156 15.636719 C 52.121094 15.660156 52.171875 15.6875 52.183594 15.675781 C 54.242188 13.476562 56.921875 12.816406 59.777344 12.683594 C 61.742188 12.589844 63.429688 11.921875 64.867188 10.589844 C 64.949219 10.511719 65.066406 10.472656 65.316406 10.328125 C 65.101562 11.65625 64.589844 12.605469 63.539062 13.253906 C 62.171875 14.097656 60.660156 14.335938 59.097656 14.328125 C 57.398438 14.320312 55.769531 14.628906 54.253906 15.386719 C 53.554688 15.734375 52.914062 16.21875 52.308594 16.714844 C 52.03125 16.945312 51.902344 17.355469 51.628906 17.820312 C 51.945312 17.753906 52.042969 17.765625 52.089844 17.71875 C 53.902344 15.953125 56.097656 15.285156 58.589844 15.289062 C 60.429688 15.296875 62.226562 14.949219 64.035156 13.914062 C 63.855469 14.941406 63.34375 15.480469 62.65625 15.886719 C 61.242188 16.722656 59.679688 16.898438 58.078125 16.9375 C 57.121094 16.960938 56.160156 17.019531 55.214844 17.144531 C 53.890625 17.324219 52.78125 17.953125 51.949219 19.082031 C 52.214844 18.941406 52.476562 18.796875 52.742188 18.65625 C 54.015625 17.984375 55.371094 17.558594 56.816406 17.574219 C 58.683594 17.597656 60.558594 17.734375 62.332031 16.800781 C 62.089844 17.855469 61.355469 18.386719 60.476562 18.613281 C 59.476562 18.867188 58.425781 18.925781 57.398438 19.066406 C 55.875 19.273438 54.335938 19.414062 52.828125 19.703125 C 52.035156 19.855469 51.246094 20.191406 50.839844 21.089844 C 51.15625 20.949219 51.480469 20.824219 51.785156 20.660156 C 52.8125 20.125 53.910156 19.875 55.046875 20.019531 C 56.867188 20.25 58.625 20.140625 60.339844 19.457031 C 60.398438 19.433594 60.492188 19.484375 60.671875 19.519531 C 60.265625 20.183594 59.648438 20.476562 59.011719 20.75 C 57.660156 21.324219 56.238281 21.265625 54.820312 21.183594 C 53.554688 21.113281 52.3125 21.175781 51.128906 21.675781 C 50.789062 21.816406 50.464844 21.996094 50.175781 22.339844 C 50.457031 22.289062 50.738281 22.242188 51.015625 22.179688 C 52.128906 21.925781 53.226562 21.820312 54.359375 22.121094 C 55.597656 22.449219 56.820312 22.238281 58.046875 21.890625 C 57.148438 23.082031 55.949219 23.425781 54.503906 23.304688 C 53.140625 23.191406 51.761719 23.195312 50.390625 23.179688 C 50.167969 23.175781 49.941406 23.339844 49.71875 23.425781 C 49.542969 23.445312 49.367188 23.464844 49.191406 23.480469 C 49.203125 23.527344 49.214844 23.578125 49.226562 23.625 C 49.382812 23.550781 49.539062 23.476562 49.699219 23.402344 C 51.308594 23.519531 52.917969 23.632812 54.707031 23.761719 C 54.324219 24.34375 53.882812 24.433594 53.464844 24.449219 C 52.632812 24.472656 51.796875 24.472656 50.96875 24.410156 C 49.300781 24.285156 47.777344 24.621094 46.269531 25.386719 C 43.261719 26.910156 40.148438 26.964844 37.121094 25.460938 C 35.285156 24.546875 33.417969 24.238281 31.425781 24.550781 C 30.410156 24.710938 29.457031 24.632812 28.558594 24.003906 C 30.25 23.675781 31.921875 23.339844 33.660156 23.546875 C 32.089844 22.976562 30.476562 23.035156 28.882812 23.304688 C 27.511719 23.53125 26.316406 23.28125 25.257812 22.390625 C 25.148438 22.300781 25.085938 22.15625 25.035156 21.933594 C 26.660156 22.496094 28.242188 22.273438 29.855469 22 C 30.5625 21.878906 31.335938 22.144531 32.074219 22.242188 C 32.351562 22.277344 32.625 22.34375 32.917969 22.3125 C 31.367188 21.210938 29.605469 21.09375 27.804688 21.277344 C 26.53125 21.410156 25.308594 21.242188 24.117188 20.835938 C 23.414062 20.597656 22.75 20.25 22.21875 19.445312 C 23.074219 19.667969 23.769531 19.917969 24.488281 20.019531 C 25.308594 20.136719 26.15625 20.214844 26.976562 20.144531 C 28.804688 19.988281 30.5625 20.054688 32.21875 21.269531 C 31.914062 20.457031 31.824219 20.347656 31.074219 20.035156 C 29.632812 19.441406 28.109375 19.21875 26.558594 19.136719 C 25.4375 19.074219 24.308594 19.027344 23.203125 18.863281 C 22.097656 18.699219 21.164062 18.179688 20.605469 17.050781 C 20.777344 17.003906 20.902344 16.921875 20.976562 16.953125 C 22.433594 17.570312 23.945312 17.730469 25.511719 17.617188 C 27.085938 17.503906 28.574219 17.875 29.996094 18.539062 C 30.292969 18.679688 30.605469 18.773438 30.914062 18.890625 C 30.996094 18.976562 31.082031 19.0625 31.167969 19.148438 L 31.207031 19.199219 L 31.140625 19.175781 C 31.058594 19.085938 30.976562 18.996094 30.898438 18.90625 C 30.222656 17.75 29.050781 17.414062 27.871094 17.191406 C 26.980469 17.019531 26.046875 17.082031 25.140625 16.976562 C 23.90625 16.835938 22.65625 16.726562 21.453125 16.429688 C 20.289062 16.140625 19.355469 15.445312 18.917969 14.042969 C 19.238281 14.160156 19.453125 14.214844 19.644531 14.3125 C 21.128906 15.066406 22.726562 15.34375 24.363281 15.335938 C 26.882812 15.324219 29.140625 15.941406 30.976562 17.757812 C 31.023438 17.804688 31.125 17.789062 31.304688 17.816406 C 31.207031 17.074219 30.769531 16.613281 30.222656 16.238281 C 28.53125 15.070312 26.640625 14.515625 24.601562 14.390625 C 23.523438 14.324219 22.425781 14.308594 21.378906 14.082031 C 19.605469 13.703125 18.246094 12.746094 17.757812 10.867188 C 17.726562 10.757812 17.753906 10.636719 17.753906 10.363281 C 18.0625 10.597656 18.277344 10.746094 18.476562 10.914062 C 19.726562 11.960938 21.128906 12.585938 22.78125 12.699219 C 24.027344 12.785156 25.265625 12.984375 26.492188 13.191406 C 27.664062 13.390625 28.695312 13.9375 29.632812 14.660156 C 30.054688 14.988281 30.484375 15.308594 30.910156 15.632812 C 30.945312 15.652344 30.972656 15.667969 31.003906 15.6875 C 30.96875 15.675781 30.929688 15.664062 30.894531 15.652344 C 30.796875 14.417969 29.925781 13.765625 28.976562 13.234375 C 26.910156 12.066406 24.632812 11.585938 22.289062 11.40625 C 21.0625 11.316406 19.914062 11.019531 18.875 10.335938 C 17.429688 9.386719 16.972656 8.300781 17.320312 6.359375 C 17.601562 6.613281 17.859375 6.785156 18.039062 7.019531 C 19.429688 8.824219 21.328125 9.59375 23.523438 9.878906 C 24.917969 10.0625 26.300781 10.378906 27.675781 10.695312 C 28.890625 10.976562 29.695312 11.9375 30.664062 12.628906 C 30.679688 12.734375 30.699219 12.835938 30.671875 12.675781 C 30.769531 12.796875 30.707031 12.722656 30.648438 12.644531 "/>
<path style=" stroke:none;fill-rule:nonzero;fill:rgb(93.319702%,15.892029%,13.285828%);fill-opacity:1;" d="M 36.738281 22.703125 C 37.277344 22.765625 46.078125 22.597656 46.675781 22.558594 C 46.855469 21.632812 46.222656 19.746094 45.960938 19.046875 C 45.558594 17.972656 45.296875 17.816406 44.164062 18.179688 C 42.652344 18.664062 41.160156 18.691406 39.644531 18.226562 C 39.332031 18.128906 38.980469 18.070312 38.664062 18.105469 C 38.402344 18.136719 38.027344 18.277344 37.929688 18.476562 C 37.328125 19.730469 36.472656 20.921875 36.738281 22.703125 Z M 41.128906 15.035156 C 40.902344 13.757812 40.304688 13.289062 38.945312 13.277344 C 38.476562 13.273438 37.972656 13.320312 37.503906 13.320312 C 37.117188 13.324219 36.710938 13.226562 36.324219 13.226562 C 36.367188 13.757812 36.363281 14.25 36.453125 14.722656 C 36.644531 15.699219 37.003906 16.5625 38.191406 16.664062 C 38.191406 16.664062 40.65625 17.078125 40.9375 15.546875 C 41.070312 15.285156 41.070312 15.160156 41.128906 15.035156 Z M 42.664062 16.167969 C 43.144531 16.832031 44.238281 16.808594 45.355469 16.664062 C 45.945312 16.589844 46.550781 16.082031 46.816406 14.847656 C 46.816406 14.847656 46.902344 13.636719 47.015625 13.171875 C 46.503906 13.246094 46.097656 13.34375 45.695312 13.351562 C 45.28125 13.359375 44.871094 13.257812 44.457031 13.234375 C 43.066406 13.164062 42.335938 13.578125 42.066406 15.015625 C 42.183594 15.261719 42.46875 15.902344 42.664062 16.167969 Z M 33.273438 20 C 32.800781 19.472656 33.019531 16.09375 32.984375 14.058594 C 32.957031 12.332031 34.300781 11.605469 35.917969 12.511719 C 37.007812 9.445312 39.464844 8.714844 42.378906 8.777344 C 44.375 8.824219 46.023438 9.960938 47.285156 12.242188 C 47.410156 12.179688 47.539062 12.117188 47.664062 12.050781 C 48.957031 11.347656 50.09375 11.925781 50.207031 13.40625 C 50.265625 14.191406 50.160156 14.984375 50.148438 15.773438 C 50.132812 16.640625 50.085938 17.507812 50.144531 18.371094 C 50.21875 19.4375 50.019531 19.894531 49.039062 20.394531 C 49 21.488281 48.28125 22.804688 47.71875 23.328125 C 46.902344 24.09375 45.910156 24.125 44.851562 24.359375 C 44.601562 24.414062 44.324219 24.636719 44.074219 24.707031 C 42.3125 25.179688 40.539062 25.238281 38.808594 24.472656 C 38.441406 24.3125 38.003906 24.308594 37.601562 24.234375 C 36.167969 23.96875 34.328125 22.464844 34.226562 20.820312 C 34.203125 20.433594 33.660156 20.4375 33.273438 20 "/>
<path style=" stroke:none;fill-rule:nonzero;fill:rgb(6.285095%,5.757141%,5.070496%);fill-opacity:1;" d="M 36.503906 13.398438 C 36.511719 13.503906 36.515625 13.609375 36.523438 13.714844 C 36.539062 14.054688 36.558594 14.378906 36.617188 14.6875 C 36.816406 15.710938 37.164062 16.410156 38.207031 16.5 C 38.242188 16.503906 40.523438 16.871094 40.773438 15.519531 L 40.789062 15.472656 C 40.863281 15.324219 40.890625 15.226562 40.917969 15.140625 C 40.929688 15.097656 40.941406 15.054688 40.957031 15.015625 C 40.742188 13.867188 40.210938 13.453125 38.941406 13.445312 C 38.699219 13.441406 38.449219 13.453125 38.195312 13.464844 C 37.960938 13.476562 37.734375 13.488281 37.5 13.488281 C 37.296875 13.488281 37.09375 13.464844 36.894531 13.441406 C 36.761719 13.425781 36.628906 13.40625 36.503906 13.398438 Z M 38.914062 16.886719 C 38.507812 16.886719 38.203125 16.835938 38.164062 16.832031 C 36.847656 16.71875 36.476562 15.71875 36.289062 14.753906 C 36.226562 14.417969 36.207031 14.085938 36.1875 13.730469 C 36.179688 13.570312 36.171875 13.40625 36.15625 13.238281 L 36.140625 13.058594 L 36.324219 13.058594 C 36.527344 13.058594 36.734375 13.085938 36.933594 13.109375 C 37.132812 13.132812 37.320312 13.15625 37.5 13.15625 C 37.5 13.15625 37.5 13.15625 37.503906 13.15625 C 37.722656 13.15625 37.953125 13.144531 38.179688 13.132812 C 38.4375 13.121094 38.695312 13.109375 38.945312 13.109375 C 40.398438 13.121094 41.054688 13.65625 41.292969 15.007812 L 41.304688 15.0625 L 41.28125 15.109375 C 41.261719 15.148438 41.25 15.1875 41.238281 15.234375 C 41.210938 15.320312 41.175781 15.4375 41.097656 15.601562 C 40.878906 16.695312 39.707031 16.886719 38.914062 16.886719 Z M 42.242188 14.996094 L 42.277344 15.074219 C 42.40625 15.347656 42.640625 15.855469 42.796875 16.070312 C 43.238281 16.675781 44.328125 16.628906 45.335938 16.5 C 45.957031 16.421875 46.4375 15.804688 46.652344 14.8125 C 46.652344 14.789062 46.714844 13.917969 46.804688 13.375 C 46.726562 13.386719 46.652344 13.398438 46.582031 13.410156 C 46.261719 13.46875 45.984375 13.515625 45.699219 13.519531 C 45.449219 13.523438 45.203125 13.492188 44.960938 13.457031 C 44.789062 13.433594 44.617188 13.410156 44.445312 13.402344 C 43.070312 13.328125 42.484375 13.75 42.242188 14.996094 Z M 44.277344 16.914062 C 43.550781 16.914062 42.890625 16.769531 42.527344 16.269531 C 42.351562 16.027344 42.117188 15.515625 41.976562 15.214844 L 41.894531 15.039062 L 41.902344 14.984375 C 42.171875 13.542969 42.914062 12.992188 44.464844 13.070312 C 44.648438 13.078125 44.828125 13.101562 45.007812 13.128906 C 45.242188 13.160156 45.472656 13.191406 45.691406 13.1875 C 45.953125 13.179688 46.21875 13.136719 46.523438 13.082031 C 46.667969 13.058594 46.824219 13.03125 46.988281 13.007812 L 47.234375 12.96875 L 47.175781 13.210938 C 47.066406 13.65625 46.984375 14.847656 46.984375 14.859375 C 46.628906 16.503906 45.742188 16.785156 45.378906 16.832031 C 45.011719 16.878906 44.636719 16.914062 44.277344 16.914062 Z M 36.886719 22.546875 C 38.046875 22.582031 45.367188 22.4375 46.53125 22.398438 C 46.636719 21.398438 45.949219 19.492188 45.804688 19.105469 C 45.425781 18.09375 45.246094 18.007812 44.214844 18.335938 C 42.640625 18.839844 41.132812 18.855469 39.59375 18.382812 C 39.253906 18.28125 38.941406 18.242188 38.683594 18.273438 C 38.421875 18.304688 38.136719 18.4375 38.082031 18.550781 C 37.980469 18.757812 37.875 18.960938 37.765625 19.167969 C 37.253906 20.15625 36.726562 21.175781 36.886719 22.546875 Z M 37.527344 22.886719 C 37.101562 22.886719 36.8125 22.878906 36.722656 22.871094 L 36.59375 22.855469 L 36.574219 22.730469 C 36.34375 21.183594 36.917969 20.082031 37.46875 19.011719 C 37.578125 18.808594 37.679688 18.609375 37.777344 18.40625 C 37.914062 18.125 38.371094 17.972656 38.644531 17.941406 C 38.949219 17.90625 39.308594 17.949219 39.691406 18.066406 C 41.160156 18.515625 42.609375 18.5 44.113281 18.019531 C 45.304688 17.636719 45.679688 17.820312 46.117188 18.988281 C 46.335938 19.574219 47.039062 21.574219 46.839844 22.589844 L 46.816406 22.714844 L 46.6875 22.726562 C 46.246094 22.753906 39.855469 22.886719 37.527344 22.886719 Z M 34.585938 12.285156 C 34.316406 12.285156 34.070312 12.347656 33.859375 12.476562 C 33.390625 12.753906 33.140625 13.316406 33.152344 14.054688 C 33.160156 14.597656 33.152344 15.21875 33.144531 15.878906 C 33.121094 17.515625 33.09375 19.550781 33.398438 19.890625 C 33.546875 20.058594 33.730469 20.15625 33.894531 20.242188 C 34.128906 20.367188 34.375 20.5 34.394531 20.808594 C 34.488281 22.324219 36.210938 23.808594 37.632812 24.070312 C 37.753906 24.09375 37.882812 24.109375 38.007812 24.125 C 38.300781 24.160156 38.601562 24.199219 38.875 24.320312 C 40.398438 24.992188 42.082031 25.066406 44.027344 24.542969 C 44.132812 24.515625 44.246094 24.453125 44.367188 24.390625 C 44.515625 24.308594 44.664062 24.230469 44.816406 24.195312 C 45.03125 24.148438 45.242188 24.109375 45.449219 24.070312 C 46.273438 23.917969 46.988281 23.785156 47.605469 23.207031 C 48.097656 22.746094 48.835938 21.476562 48.871094 20.386719 L 48.875 20.289062 L 48.960938 20.246094 C 49.851562 19.792969 50.050781 19.429688 49.980469 18.382812 C 49.933594 17.703125 49.949219 17.015625 49.96875 16.347656 C 49.972656 16.15625 49.976562 15.964844 49.980469 15.773438 C 49.984375 15.488281 50 15.203125 50.019531 14.917969 C 50.046875 14.421875 50.078125 13.910156 50.039062 13.417969 C 49.988281 12.773438 49.730469 12.292969 49.3125 12.0625 C 48.886719 11.832031 48.328125 11.878906 47.746094 12.195312 C 47.65625 12.246094 47.566406 12.289062 47.476562 12.332031 L 47.21875 12.464844 L 47.140625 12.324219 C 45.925781 10.125 44.320312 8.988281 42.375 8.945312 C 38.941406 8.867188 36.992188 9.988281 36.074219 12.566406 L 36.007812 12.753906 L 35.835938 12.65625 C 35.398438 12.410156 34.96875 12.285156 34.585938 12.285156 Z M 41.613281 25.222656 C 40.59375 25.222656 39.640625 25.023438 38.742188 24.625 C 38.511719 24.523438 38.246094 24.492188 37.96875 24.457031 C 37.832031 24.441406 37.699219 24.421875 37.570312 24.398438 C 36 24.109375 34.164062 22.519531 34.058594 20.832031 C 34.050781 20.714844 33.964844 20.660156 33.738281 20.539062 C 33.558594 20.441406 33.339844 20.324219 33.148438 20.113281 C 32.785156 19.707031 32.777344 18.171875 32.808594 15.875 C 32.820312 15.21875 32.828125 14.597656 32.820312 14.0625 C 32.804688 13.195312 33.113281 12.53125 33.6875 12.1875 C 34.257812 11.847656 35.03125 11.878906 35.828125 12.273438 C 36.824219 9.667969 38.859375 8.539062 42.382812 8.613281 C 44.414062 8.65625 46.085938 9.804688 47.351562 12.023438 C 47.429688 11.984375 47.507812 11.945312 47.585938 11.902344 C 48.273438 11.527344 48.941406 11.480469 49.472656 11.769531 C 49.992188 12.054688 50.3125 12.628906 50.371094 13.394531 C 50.414062 13.910156 50.382812 14.429688 50.351562 14.9375 C 50.335938 15.21875 50.320312 15.496094 50.3125 15.777344 C 50.308594 15.96875 50.304688 16.164062 50.300781 16.355469 C 50.285156 17.015625 50.269531 17.699219 50.3125 18.359375 C 50.390625 19.507812 50.140625 20 49.199219 20.496094 C 49.121094 21.664062 48.367188 22.953125 47.832031 23.449219 C 47.144531 24.097656 46.351562 24.242188 45.511719 24.398438 C 45.304688 24.4375 45.097656 24.476562 44.886719 24.523438 C 44.78125 24.546875 44.652344 24.617188 44.527344 24.683594 C 44.394531 24.753906 44.253906 24.828125 44.117188 24.867188 C 43.234375 25.105469 42.402344 25.222656 41.613281 25.222656 "/>
<path style=" stroke:none;fill-rule:nonzero;fill:rgb(12.42218%,11.210632%,28.062439%);fill-opacity:1;" d="M 41.550781 3.097656 C 40.792969 3.773438 40.507812 4.652344 40.257812 5.523438 C 40.09375 6.097656 40.398438 6.601562 40.867188 6.929688 C 41.308594 7.242188 41.828125 7.257812 42.273438 6.929688 C 42.730469 6.585938 43.003906 6.097656 42.824219 5.507812 C 42.558594 4.640625 42.285156 3.765625 41.550781 3.097656 Z M 41.554688 2.449219 C 42.421875 3.304688 42.835938 4.34375 43.136719 5.417969 C 43.335938 6.132812 43.1875 6.816406 42.507812 7.289062 C 41.941406 7.6875 41.359375 7.722656 40.753906 7.402344 C 40.035156 7.023438 39.785156 6.382812 39.902344 5.628906 C 40.089844 4.40625 40.714844 3.398438 41.554688 2.449219 "/>
<path style=" stroke:none;fill-rule:nonzero;fill:rgb(13.729858%,12.159729%,12.548828%);fill-opacity:1;" d="M 39.003906 21.300781 C 40.882812 21.300781 42.679688 21.300781 44.566406 21.300781 C 44.34375 20.808594 44.1875 20.453125 43.984375 20 C 43.769531 20.367188 43.613281 20.636719 43.464844 20.882812 C 42.28125 20.882812 41.160156 20.882812 40.0625 20.882812 C 39.871094 20.675781 39.664062 20.230469 39.453125 20 C 39.257812 20.421875 39.15625 20.976562 39.003906 21.300781 Z M 39.003906 18.988281 L 44.488281 18.988281 C 44.488281 18.988281 45.4375 20.710938 45.351562 21.601562 C 44.222656 21.632812 43.003906 21.585938 41.824219 21.617188 C 40.640625 21.648438 39.453125 21.625 38.199219 21.625 C 38.25 20.558594 39.003906 18.988281 39.003906 18.988281 "/>
<path style=" stroke:none;fill-rule:nonzero;fill:rgb(13.729858%,12.159729%,12.548828%);fill-opacity:1;" d="M 39.945312 14.636719 L 39.890625 14.609375 L 39.925781 14.65625 Z M 39.945312 14.636719 "/>
<path style=" stroke:none;fill-rule:nonzero;fill:rgb(93.319702%,15.892029%,13.285828%);fill-opacity:1;" d="M 41.722656 4.019531 C 41.941406 4.457031 42.246094 4.871094 42.339844 5.332031 C 42.402344 5.625 42.25 6.125 42.023438 6.273438 C 41.789062 6.425781 41.246094 6.382812 41.03125 6.203125 C 40.824219 6.023438 40.742188 5.535156 40.816406 5.226562 C 40.914062 4.804688 41.203125 4.425781 41.414062 4.03125 C 41.515625 4.027344 41.621094 4.023438 41.722656 4.019531 "/>
<path style=" stroke:none;fill-rule:nonzero;fill:rgb(12.42218%,11.210632%,28.062439%);fill-opacity:1;" d="M 46.785156 5.195312 C 46.039062 5.394531 45.539062 5.894531 45.070312 6.402344 C 44.761719 6.734375 44.796875 7.183594 45.003906 7.566406 C 45.195312 7.929688 45.546875 8.121094 45.960938 8.046875 C 46.390625 7.972656 46.742188 7.734375 46.824219 7.273438 C 46.941406 6.589844 47.054688 5.902344 46.785156 5.195312 Z M 47.011719 4.753906 C 47.304688 5.636719 47.230469 6.484375 47.066406 7.316406 C 46.957031 7.871094 46.621094 8.285156 45.996094 8.375 C 45.476562 8.449219 45.066406 8.277344 44.765625 7.851562 C 44.40625 7.34375 44.457031 6.824219 44.792969 6.351562 C 45.339844 5.585938 46.109375 5.113281 47.011719 4.753906 "/>
<path style=" stroke:none;fill-rule:nonzero;fill:rgb(93.319702%,15.892029%,13.285828%);fill-opacity:1;" d="M 46.585938 5.882812 C 46.582031 6.253906 46.648438 6.640625 46.554688 6.988281 C 46.496094 7.207031 46.21875 7.496094 46.015625 7.515625 C 45.804688 7.539062 45.449219 7.328125 45.367188 7.128906 C 45.285156 6.9375 45.398438 6.574219 45.550781 6.390625 C 45.765625 6.136719 46.09375 5.980469 46.371094 5.78125 C 46.441406 5.816406 46.515625 5.847656 46.585938 5.882812 "/>
<path style=" stroke:none;fill-rule:nonzero;fill:rgb(12.42218%,11.210632%,28.062439%);fill-opacity:1;" d="M 50.300781 7.714844 C 49.6875 7.800781 49.238281 8.152344 48.816406 8.511719 C 48.535156 8.746094 48.519531 9.109375 48.644531 9.4375 C 48.765625 9.746094 49.027344 9.929688 49.363281 9.914062 C 49.714844 9.894531 50.019531 9.742188 50.128906 9.378906 C 50.289062 8.847656 50.449219 8.308594 50.300781 7.714844 Z M 50.527344 7.386719 C 50.675781 8.117188 50.53125 8.789062 50.320312 9.4375 C 50.175781 9.871094 49.867188 10.167969 49.363281 10.179688 C 48.9375 10.1875 48.628906 10.007812 48.425781 9.640625 C 48.191406 9.199219 48.28125 8.789062 48.597656 8.441406 C 49.109375 7.882812 49.773438 7.582031 50.527344 7.386719 "/>
<path style=" stroke:none;fill-rule:nonzero;fill:rgb(93.319702%,15.892029%,13.285828%);fill-opacity:1;" d="M 50.074219 8.242188 C 50.039062 8.539062 50.050781 8.855469 49.941406 9.125 C 49.875 9.292969 49.625 9.496094 49.460938 9.496094 C 49.289062 9.492188 49.027344 9.285156 48.976562 9.121094 C 48.933594 8.960938 49.058594 8.679688 49.199219 8.550781 C 49.394531 8.367188 49.671875 8.273438 49.914062 8.144531 C 49.96875 8.175781 50.023438 8.210938 50.074219 8.242188 "/>
<path style=" stroke:none;fill-rule:nonzero;fill:rgb(12.42218%,11.210632%,28.062439%);fill-opacity:1;" d="M 35.585938 7.273438 C 35.667969 7.734375 36.019531 7.972656 36.449219 8.046875 C 36.863281 8.121094 37.214844 7.929688 37.40625 7.566406 C 37.613281 7.183594 37.648438 6.734375 37.339844 6.402344 C 36.871094 5.894531 36.371094 5.394531 35.625 5.195312 C 35.355469 5.902344 35.46875 6.589844 35.585938 7.273438 Z M 37.617188 6.351562 C 37.953125 6.824219 38.003906 7.34375 37.644531 7.851562 C 37.34375 8.277344 36.933594 8.449219 36.410156 8.375 C 35.789062 8.285156 35.453125 7.871094 35.34375 7.316406 C 35.179688 6.484375 35.105469 5.636719 35.398438 4.753906 C 36.300781 5.113281 37.070312 5.585938 37.617188 6.351562 "/>
<path style=" stroke:none;fill-rule:nonzero;fill:rgb(93.319702%,15.892029%,13.285828%);fill-opacity:1;" d="M 35.824219 5.882812 C 35.828125 6.253906 35.761719 6.640625 35.855469 6.988281 C 35.914062 7.207031 36.191406 7.496094 36.394531 7.515625 C 36.605469 7.539062 36.960938 7.328125 37.042969 7.128906 C 37.125 6.9375 37.011719 6.574219 36.859375 6.390625 C 36.644531 6.136719 36.320312 5.980469 36.039062 5.78125 C 35.96875 5.816406 35.898438 5.847656 35.824219 5.882812 "/>
<path style=" stroke:none;fill-rule:nonzero;fill:rgb(12.42218%,11.210632%,28.062439%);fill-opacity:1;" d="M 32.589844 9.917969 C 32.726562 10.386719 33.121094 10.585938 33.574219 10.609375 C 34.007812 10.628906 34.34375 10.390625 34.496094 9.992188 C 34.65625 9.570312 34.640625 9.109375 34.277344 8.804688 C 33.734375 8.339844 33.15625 7.890625 32.367188 7.78125 C 32.175781 8.542969 32.382812 9.234375 32.589844 9.917969 Z M 34.554688 8.714844 C 34.964844 9.160156 35.082031 9.6875 34.777344 10.253906 C 34.519531 10.730469 34.121094 10.960938 33.574219 10.949219 C 32.921875 10.9375 32.527344 10.554688 32.34375 9.996094 C 32.070312 9.160156 31.886719 8.296875 32.078125 7.355469 C 33.046875 7.609375 33.898438 7.996094 34.554688 8.714844 "/>
<path style=" stroke:none;fill-rule:nonzero;fill:rgb(93.319702%,15.892029%,13.285828%);fill-opacity:1;" d="M 32.65625 8.460938 C 32.707031 8.839844 32.691406 9.246094 32.828125 9.59375 C 32.914062 9.8125 33.234375 10.070312 33.449219 10.070312 C 33.667969 10.066406 34.007812 9.800781 34.066406 9.585938 C 34.128906 9.378906 33.964844 9.023438 33.785156 8.855469 C 33.535156 8.621094 33.175781 8.5 32.867188 8.332031 C 32.796875 8.375 32.726562 8.417969 32.65625 8.460938 "/>
<path style=" stroke:none;fill-rule:nonzero;fill:rgb(6.266785%,5.734253%,5.047607%);fill-opacity:1;" d="M 44.457031 14.441406 C 44.007812 14.441406 43.640625 14.804688 43.640625 15.253906 C 43.640625 15.703125 44.007812 16.070312 44.457031 16.070312 C 44.90625 16.070312 45.269531 15.703125 45.269531 15.253906 C 45.269531 14.804688 44.90625 14.441406 44.457031 14.441406 Z M 44.457031 16.402344 C 43.824219 16.402344 43.308594 15.886719 43.308594 15.253906 C 43.308594 14.621094 43.824219 14.105469 44.457031 14.105469 C 45.089844 14.105469 45.601562 14.621094 45.601562 15.253906 C 45.601562 15.886719 45.089844 16.402344 44.457031 16.402344 "/>
<path style=" stroke:none;fill-rule:nonzero;fill:rgb(6.285095%,5.757141%,5.070496%);fill-opacity:1;" d="M 44.6875 15.253906 C 44.6875 15.382812 44.582031 15.484375 44.457031 15.484375 C 44.328125 15.484375 44.222656 15.382812 44.222656 15.253906 C 44.222656 15.125 44.328125 15.023438 44.457031 15.023438 C 44.582031 15.023438 44.6875 15.125 44.6875 15.253906 "/>
<path style=" stroke:none;fill-rule:nonzero;fill:rgb(100%,100%,100%);fill-opacity:1;" d="M 42.28125 11.539062 C 42.28125 12.789062 41.980469 13.804688 41.605469 13.804688 C 41.230469 13.804688 40.925781 12.789062 40.925781 11.539062 C 40.925781 10.289062 41.230469 9.273438 41.605469 9.273438 C 41.980469 9.273438 42.28125 10.289062 42.28125 11.539062 "/>
<path style=" stroke:none;fill-rule:nonzero;fill:rgb(6.285095%,5.757141%,5.070496%);fill-opacity:1;" d="M 41.605469 9.441406 C 41.425781 9.441406 41.09375 10.238281 41.09375 11.539062 C 41.09375 12.839844 41.425781 13.636719 41.605469 13.636719 C 41.785156 13.636719 42.117188 12.839844 42.117188 11.539062 C 42.117188 10.238281 41.785156 9.441406 41.605469 9.441406 Z M 41.605469 13.96875 C 41.023438 13.96875 40.757812 12.710938 40.757812 11.539062 C 40.757812 10.367188 41.023438 9.105469 41.605469 9.105469 C 42.183594 9.105469 42.449219 10.367188 42.449219 11.539062 C 42.449219 12.710938 42.183594 13.96875 41.605469 13.96875 "/>
<path style=" stroke:none;fill-rule:nonzero;fill:rgb(6.266785%,5.734253%,5.047607%);fill-opacity:1;" d="M 41.597656 11.046875 C 41.328125 11.046875 41.105469 11.265625 41.105469 11.539062 C 41.105469 11.808594 41.328125 12.03125 41.597656 12.03125 C 41.867188 12.03125 42.089844 11.808594 42.089844 11.539062 C 42.089844 11.265625 41.867188 11.046875 41.597656 11.046875 Z M 41.597656 12.363281 C 41.140625 12.363281 40.773438 11.992188 40.773438 11.539062 C 40.773438 11.082031 41.140625 10.710938 41.597656 10.710938 C 42.050781 10.710938 42.421875 11.082031 42.421875 11.539062 C 42.421875 11.992188 42.050781 12.363281 41.597656 12.363281 "/>
<path style=" stroke:none;fill-rule:nonzero;fill:rgb(6.285095%,5.757141%,5.070496%);fill-opacity:1;" d="M 41.753906 11.539062 C 41.753906 11.625 41.683594 11.695312 41.597656 11.695312 C 41.511719 11.695312 41.441406 11.625 41.441406 11.539062 C 41.441406 11.453125 41.511719 11.382812 41.597656 11.382812 C 41.683594 11.382812 41.753906 11.453125 41.753906 11.539062 "/>
<path style=" stroke:none;fill-rule:nonzero;fill:rgb(6.266785%,5.734253%,5.047607%);fill-opacity:1;" d="M 38.851562 14.441406 C 38.402344 14.441406 38.039062 14.804688 38.039062 15.253906 C 38.039062 15.703125 38.402344 16.070312 38.851562 16.070312 C 39.300781 16.070312 39.667969 15.703125 39.667969 15.253906 C 39.667969 14.804688 39.300781 14.441406 38.851562 14.441406 Z M 38.851562 16.402344 C 38.21875 16.402344 37.703125 15.886719 37.703125 15.253906 C 37.703125 14.621094 38.21875 14.105469 38.851562 14.105469 C 39.484375 14.105469 40 14.621094 40 15.253906 C 40 15.886719 39.484375 16.402344 38.851562 16.402344 "/>
<path style=" stroke:none;fill-rule:nonzero;fill:rgb(6.285095%,5.757141%,5.070496%);fill-opacity:1;" d="M 39.082031 15.253906 C 39.082031 15.382812 38.980469 15.484375 38.851562 15.484375 C 38.722656 15.484375 38.621094 15.382812 38.621094 15.253906 C 38.621094 15.125 38.722656 15.023438 38.851562 15.023438 C 38.980469 15.023438 39.082031 15.125 39.082031 15.253906 "/>
<path style=" stroke:none;fill-rule:nonzero;fill:rgb(6.285095%,5.757141%,5.070496%);fill-opacity:1;" d="M 41.15625 18.039062 C 41.15625 18.167969 41.054688 18.273438 40.925781 18.273438 C 40.796875 18.273438 40.695312 18.167969 40.695312 18.039062 C 40.695312 17.914062 40.796875 17.808594 40.925781 17.808594 C 41.054688 17.808594 41.15625 17.914062 41.15625 18.039062 "/>
<path style=" stroke:none;fill-rule:nonzero;fill:rgb(6.285095%,5.757141%,5.070496%);fill-opacity:1;" d="M 42.746094 18.039062 C 42.746094 18.167969 42.644531 18.273438 42.515625 18.273438 C 42.386719 18.273438 42.28125 18.167969 42.28125 18.039062 C 42.28125 17.914062 42.386719 17.808594 42.515625 17.808594 C 42.644531 17.808594 42.746094 17.914062 42.746094 18.039062 "/>
<path style=" stroke:none;fill-rule:nonzero;fill:rgb(6.285095%,5.757141%,5.070496%);fill-opacity:1;" d="M 42.097656 15.183594 C 42.085938 15.183594 42.074219 15.183594 42.0625 15.183594 L 42.070312 14.847656 C 42.425781 14.855469 42.648438 14.707031 42.914062 14.535156 C 43.210938 14.34375 43.546875 14.125 44.09375 14.105469 C 44.515625 14.09375 44.875 14.121094 45.191406 14.148438 C 45.59375 14.179688 45.90625 14.207031 46.125 14.117188 C 46.398438 14.007812 46.71875 13.4375 46.859375 13.105469 L 47.167969 13.234375 C 47.125 13.335938 46.738281 14.230469 46.25 14.429688 C 45.960938 14.546875 45.609375 14.515625 45.164062 14.480469 C 44.859375 14.457031 44.507812 14.425781 44.105469 14.441406 C 43.652344 14.457031 43.382812 14.628906 43.09375 14.816406 C 42.820312 14.996094 42.53125 15.183594 42.097656 15.183594 "/>
<path style=" stroke:none;fill-rule:nonzero;fill:rgb(6.285095%,5.757141%,5.070496%);fill-opacity:1;" d="M 41.101562 15.203125 C 40.660156 15.203125 40.417969 15.007812 40.183594 14.820312 C 39.953125 14.632812 39.734375 14.453125 39.285156 14.441406 C 38.882812 14.425781 38.535156 14.457031 38.226562 14.480469 C 37.78125 14.515625 37.433594 14.546875 37.140625 14.429688 C 36.652344 14.230469 36.265625 13.335938 36.226562 13.234375 L 36.53125 13.105469 C 36.671875 13.4375 36.996094 14.007812 37.269531 14.117188 C 37.484375 14.207031 37.800781 14.179688 38.199219 14.148438 C 38.515625 14.121094 38.875 14.09375 39.296875 14.105469 C 39.859375 14.125 40.144531 14.355469 40.394531 14.558594 C 40.613281 14.738281 40.78125 14.875 41.125 14.871094 L 41.132812 15.203125 C 41.121094 15.203125 41.113281 15.203125 41.101562 15.203125 "/>
<path style=" stroke:none;fill-rule:nonzero;fill:rgb(6.285095%,5.757141%,5.070496%);fill-opacity:1;" d="M 34.066406 20.867188 C 33.820312 20.03125 34.589844 16.941406 35.402344 13.851562 C 35.566406 13.230469 35.695312 12.742188 35.753906 12.476562 L 36.078125 12.546875 C 36.019531 12.820312 35.890625 13.3125 35.726562 13.9375 C 35.171875 16.039062 34.144531 19.953125 34.386719 20.773438 L 34.066406 20.867188 "/>
<path style=" stroke:none;fill-rule:nonzero;fill:rgb(6.285095%,5.757141%,5.070496%);fill-opacity:1;" d="M 44.621094 24.546875 C 43.558594 24.546875 42.144531 23.480469 41.539062 22.933594 C 41.097656 23.257812 39.488281 24.382812 38.214844 24.484375 L 38.1875 24.152344 C 39.277344 24.0625 40.796875 23.089844 41.449219 22.585938 L 41.5625 22.496094 L 41.664062 22.597656 C 42.46875 23.359375 43.976562 24.359375 44.820312 24.195312 L 44.882812 24.523438 C 44.796875 24.539062 44.710938 24.546875 44.621094 24.546875 "/>
<path style=" stroke:none;fill-rule:nonzero;fill:rgb(6.285095%,5.757141%,5.070496%);fill-opacity:1;" d="M 48.871094 20.417969 C 48.605469 18.585938 47.34375 12.691406 47.140625 12.324219 L 47.429688 12.160156 C 47.664062 12.5625 48.949219 18.613281 49.203125 20.371094 L 48.871094 20.417969 "/>
<path style=" stroke:none;fill-rule:nonzero;fill:rgb(6.285095%,5.757141%,5.070496%);fill-opacity:1;" d="M 48.570312 14.429688 C 48.570312 14.429688 48.558594 14.316406 48.535156 14.125 C 48.523438 13.929688 48.476562 13.65625 48.484375 13.3125 C 48.496094 13.144531 48.484375 12.933594 48.664062 12.734375 C 48.757812 12.636719 48.898438 12.589844 49.015625 12.589844 L 49.035156 12.585938 L 49.074219 12.589844 L 49.082031 12.589844 L 49.121094 12.597656 C 49.140625 12.597656 49.207031 12.628906 49.242188 12.65625 C 49.308594 12.710938 49.347656 12.761719 49.378906 12.820312 C 49.503906 13.039062 49.550781 13.253906 49.589844 13.480469 C 49.625 13.703125 49.648438 13.925781 49.664062 14.152344 C 49.722656 15.050781 49.664062 15.9375 49.597656 16.605469 C 49.566406 16.9375 49.519531 17.210938 49.492188 17.40625 C 49.464844 17.597656 49.441406 17.707031 49.441406 17.707031 C 49.441406 17.707031 49.4375 17.59375 49.429688 17.398438 C 49.421875 17.207031 49.414062 16.929688 49.40625 16.597656 C 49.390625 15.933594 49.390625 15.046875 49.332031 14.171875 C 49.320312 13.957031 49.300781 13.738281 49.269531 13.53125 C 49.238281 13.324219 49.203125 13.113281 49.125 12.964844 C 49.109375 12.925781 49.082031 12.898438 49.074219 12.886719 C 49.066406 12.890625 49.097656 12.878906 49.066406 12.871094 L 49.027344 12.863281 L 49.019531 12.859375 L 49.011719 12.859375 C 49.003906 12.859375 49.0625 12.863281 49.039062 12.863281 L 49.023438 12.863281 C 48.941406 12.859375 48.882812 12.878906 48.835938 12.914062 C 48.738281 12.992188 48.695312 13.171875 48.671875 13.328125 C 48.632812 13.648438 48.617188 13.929688 48.601562 14.121094 C 48.585938 14.316406 48.570312 14.429688 48.570312 14.429688 "/>
<path style=" stroke:none;fill-rule:nonzero;fill:rgb(6.285095%,5.757141%,5.070496%);fill-opacity:1;" d="M 34.558594 14.761719 C 34.558594 14.761719 34.542969 14.652344 34.527344 14.457031 C 34.511719 14.265625 34.496094 13.980469 34.457031 13.664062 C 34.433594 13.507812 34.390625 13.328125 34.292969 13.25 C 34.246094 13.210938 34.1875 13.191406 34.105469 13.195312 L 34.089844 13.195312 C 34.066406 13.199219 34.125 13.191406 34.117188 13.195312 L 34.109375 13.195312 L 34.101562 13.199219 L 34.066406 13.207031 C 34.03125 13.214844 34.0625 13.222656 34.054688 13.21875 C 34.046875 13.230469 34.019531 13.261719 34.003906 13.296875 C 33.925781 13.445312 33.890625 13.660156 33.859375 13.863281 C 33.828125 14.074219 33.808594 14.289062 33.796875 14.507812 C 33.738281 15.378906 33.738281 16.265625 33.722656 16.929688 C 33.714844 17.261719 33.707031 17.539062 33.699219 17.734375 C 33.691406 17.929688 33.6875 18.039062 33.6875 18.039062 C 33.6875 18.039062 33.664062 17.929688 33.636719 17.738281 C 33.609375 17.546875 33.5625 17.269531 33.53125 16.9375 C 33.464844 16.273438 33.40625 15.382812 33.464844 14.484375 C 33.480469 14.261719 33.503906 14.035156 33.539062 13.8125 C 33.578125 13.589844 33.625 13.371094 33.75 13.152344 C 33.78125 13.097656 33.820312 13.046875 33.886719 12.992188 C 33.921875 12.964844 33.988281 12.929688 34.007812 12.933594 L 34.046875 12.925781 L 34.054688 12.925781 L 34.09375 12.921875 L 34.113281 12.921875 C 34.230469 12.925781 34.371094 12.972656 34.464844 13.066406 C 34.644531 13.265625 34.632812 13.480469 34.644531 13.644531 C 34.652344 13.988281 34.605469 14.261719 34.59375 14.457031 C 34.570312 14.652344 34.558594 14.761719 34.558594 14.761719 "/>
<path style=" stroke:none;fill-rule:nonzero;fill:rgb(100%,100%,100%);fill-opacity:1;" d="M 39.550781 19.167969 C 39.535156 19.210938 39.4375 19.585938 39.4375 19.585938 L 39.910156 19.375 L 43.472656 19.375 L 43.863281 19.640625 L 43.792969 19.167969 L 39.550781 19.167969 "/>
<path style=" stroke:none;fill-rule:nonzero;fill:rgb(93.319702%,15.892029%,13.285828%);fill-opacity:1;" d="M 40.28125 20.820312 C 40.28125 20.386719 40.566406 19.730469 41.78125 19.730469 C 43.046875 19.730469 43.160156 20.820312 43.160156 20.820312 L 40.28125 20.820312 "/>
<path style=" stroke:none;fill-rule:nonzero;fill:rgb(10.258484%,12.188721%,26.771545%);fill-opacity:1;" d="M 100.449219 26.046875 L 95.714844 26.046875 L 90.332031 10.804688 L 88.160156 26.046875 L 83.664062 26.046875 L 86.777344 4.777344 L 92.816406 4.777344 L 97.28125 17.300781 L 99.0625 4.777344 L 103.5625 4.777344 L 100.449219 26.046875 "/>
<path style=" stroke:none;fill-rule:nonzero;fill:rgb(10.258484%,12.188721%,26.771545%);fill-opacity:1;" d="M 114.726562 15.410156 C 114.855469 14.445312 114.746094 13.722656 114.402344 13.15625 C 114.058594 12.585938 113.445312 12.417969 112.570312 12.417969 C 111.675781 12.417969 110.933594 12.546875 110.34375 13.144531 C 109.753906 13.738281 109.359375 14.445312 109.160156 15.410156 Z M 111.660156 26.667969 C 108.871094 26.667969 106.839844 25.921875 105.566406 24.433594 C 104.289062 22.945312 103.851562 20.828125 104.242188 18.078125 C 104.625 15.386719 105.625 13.238281 107.238281 11.632812 C 108.851562 10.027344 110.90625 9.226562 113.394531 9.226562 C 115.65625 9.226562 117.261719 9.90625 118.210938 11.265625 C 119.15625 12.625 119.449219 14.734375 119.085938 17.269531 L 118.824219 19.277344 L 108.734375 19.277344 C 108.667969 19.277344 108.722656 20.519531 108.894531 21.035156 C 109.066406 21.546875 109.335938 21.878906 109.695312 22.179688 C 110.046875 22.484375 110.476562 22.660156 110.980469 22.792969 C 111.488281 22.925781 112.054688 22.972656 112.675781 22.972656 C 113.210938 22.972656 113.746094 22.894531 114.285156 22.765625 C 114.820312 22.632812 115.320312 22.453125 115.777344 22.238281 C 116.183594 22.050781 116.558594 21.925781 116.910156 21.710938 C 117.261719 21.496094 117.550781 21.210938 117.773438 21.210938 L 118.261719 21.210938 L 117.65625 25.378906 C 117.257812 25.542969 116.890625 25.660156 116.558594 25.800781 C 116.226562 25.945312 115.777344 26.070312 115.214844 26.214844 C 114.695312 26.363281 114.160156 26.46875 113.621094 26.550781 C 113.078125 26.632812 112.425781 26.667969 111.660156 26.667969 "/>
<path style=" stroke:none;fill-rule:nonzero;fill:rgb(10.258484%,12.188721%,26.771545%);fill-opacity:1;" d="M 131.125 17.859375 C 131.351562 16.253906 131.296875 15.085938 130.957031 14.363281 C 130.617188 13.640625 129.976562 13.277344 129.039062 13.277344 C 128.628906 13.277344 128.207031 13.351562 127.777344 13.496094 C 127.347656 13.644531 126.917969 13.863281 126.480469 14.15625 L 125.300781 22.453125 C 125.527344 22.570312 125.785156 22.652344 126.070312 22.703125 C 126.359375 22.75 126.703125 22.777344 127.109375 22.777344 C 128.230469 22.777344 129.121094 22.367188 129.78125 21.550781 C 130.441406 20.734375 130.890625 19.503906 131.125 17.859375 Z M 135.847656 17.753906 C 135.472656 20.386719 134.570312 22.511719 133.144531 24.125 C 131.71875 25.742188 130.128906 26.550781 128.371094 26.550781 C 127.636719 26.550781 127.007812 26.457031 126.492188 26.269531 C 125.972656 26.085938 125.4375 25.582031 124.878906 25.191406 L 123.898438 31.84375 L 119.296875 31.84375 L 122.503906 9.613281 L 127.109375 9.613281 L 126.863281 11.394531 C 127.632812 10.746094 128.394531 10.253906 129.152344 9.855469 C 129.914062 9.453125 130.753906 9.269531 131.675781 9.269531 C 133.382812 9.269531 134.601562 10.035156 135.324219 11.550781 C 136.046875 13.070312 136.21875 15.140625 135.847656 17.753906 "/>
<path style=" stroke:none;fill-rule:nonzero;fill:rgb(10.258484%,12.188721%,26.771545%);fill-opacity:1;" d="M 145.871094 21.925781 L 146.359375 18.488281 C 145.566406 18.578125 144.925781 18.652344 144.433594 18.714844 C 143.941406 18.78125 143.449219 18.90625 142.960938 19.089844 C 142.53125 19.246094 142.1875 19.484375 141.917969 19.804688 C 141.648438 20.121094 141.476562 20.542969 141.402344 21.074219 C 141.289062 21.847656 141.402344 22.378906 141.734375 22.664062 C 142.066406 22.953125 142.59375 23.097656 143.320312 23.097656 C 143.726562 23.097656 144.152344 22.996094 144.601562 22.789062 C 145.054688 22.585938 145.476562 22.296875 145.871094 21.925781 Z M 145.507812 24.390625 C 145.148438 24.683594 144.828125 24.992188 144.546875 25.226562 C 144.261719 25.460938 143.894531 25.71875 143.4375 25.953125 C 142.992188 26.179688 142.570312 26.363281 142.160156 26.480469 C 141.753906 26.597656 141.199219 26.660156 140.5 26.660156 C 139.191406 26.660156 138.175781 26.175781 137.453125 25.195312 C 136.726562 24.21875 136.472656 22.984375 136.683594 21.496094 C 136.855469 20.273438 137.21875 19.285156 137.761719 18.53125 C 138.308594 17.777344 139.023438 17.183594 139.914062 16.742188 C 140.808594 16.292969 141.851562 15.976562 143.03125 15.800781 C 144.214844 15.625 145.480469 15.488281 146.828125 15.390625 L 146.839844 15.304688 C 146.96875 14.394531 146.757812 13.765625 146.207031 13.417969 C 145.65625 13.070312 144.78125 12.894531 143.578125 12.894531 C 143.035156 12.894531 142.382812 13.191406 141.625 13.414062 C 140.863281 13.632812 140.113281 13.476562 139.371094 14.445312 L 138.976562 14.445312 L 139.542969 10.277344 C 140.019531 10.132812 140.78125 9.863281 141.828125 9.664062 C 142.875 9.464844 143.914062 9.316406 144.949219 9.316406 C 147.492188 9.316406 149.277344 9.765625 150.304688 10.710938 C 151.335938 11.652344 151.710938 12.992188 151.433594 14.929688 L 149.835938 26.046875 L 145.257812 26.046875 L 145.507812 24.390625 "/>
<path style=" stroke:none;fill-rule:nonzero;fill:rgb(10.258484%,12.188721%,26.771545%);fill-opacity:1;" d="M 157.847656 26.046875 L 153.242188 26.046875 L 156.496094 3.8125 L 161.101562 3.8125 L 157.847656 26.046875 "/>
<path style=" stroke:none;fill-rule:nonzero;fill:rgb(10.258484%,12.188721%,26.771545%);fill-opacity:1;" d="M 89.964844 42.964844 L 89.039062 35.753906 L 86.160156 42.964844 Z M 78.136719 51.664062 L 87.394531 30.394531 L 92.5 30.394531 L 95.832031 51.664062 L 91.015625 51.664062 L 90.457031 47.796875 L 84.597656 47.796875 L 82.832031 51.664062 L 78.136719 51.664062 "/>
<path style=" stroke:none;fill-rule:nonzero;fill:rgb(10.258484%,12.188721%,26.771545%);fill-opacity:1;" d="M 101.816406 51.664062 L 97.433594 51.664062 L 99.667969 35.230469 L 104.050781 35.230469 Z M 104.492188 33.296875 L 99.863281 33.296875 L 100.40625 29.429688 L 105.035156 29.429688 L 104.492188 33.296875 "/>
<path style=" stroke:none;fill-rule:nonzero;fill:rgb(10.258484%,12.188721%,26.771545%);fill-opacity:1;" d="M 116.179688 40.0625 L 115.816406 40.0625 C 115.660156 40.0625 115.425781 40.019531 115.113281 39.984375 C 114.800781 39.953125 114.453125 39.972656 114.070312 39.972656 C 113.609375 39.972656 113.117188 40.070312 112.589844 40.226562 C 112.066406 40.382812 111.550781 40.488281 111.046875 40.703125 L 109.550781 51.664062 L 105.167969 51.664062 L 107.402344 35.230469 L 111.78125 35.230469 L 111.464844 37.65625 C 111.691406 37.441406 112.007812 37.203125 112.40625 36.875 C 112.804688 36.546875 113.164062 36.300781 113.480469 36.105469 C 113.828125 35.878906 114.226562 35.695312 114.667969 35.53125 C 115.109375 35.371094 115.519531 35.292969 115.894531 35.292969 C 116.039062 35.292969 116.195312 35.300781 116.371094 35.3125 C 116.542969 35.320312 116.699219 35.261719 116.839844 35.28125 L 116.179688 40.0625 "/>
<path style=" stroke:none;fill-rule:nonzero;fill:rgb(10.258484%,12.188721%,26.771545%);fill-opacity:1;" d="M 120.996094 51.664062 L 116.617188 51.664062 L 119.710938 29.429688 L 124.09375 29.429688 L 120.996094 51.664062 "/>
<path style=" stroke:none;fill-rule:nonzero;fill:rgb(10.258484%,12.188721%,26.771545%);fill-opacity:1;" d="M 128.398438 51.664062 L 124.015625 51.664062 L 126.25 35.230469 L 130.632812 35.230469 Z M 131.074219 33.296875 L 126.445312 33.296875 L 126.988281 29.429688 L 131.617188 29.429688 L 131.074219 33.296875 "/>
<path style=" stroke:none;fill-rule:nonzero;fill:rgb(10.258484%,12.188721%,26.771545%);fill-opacity:1;" d="M 144.917969 51.664062 L 140.511719 51.664062 L 141.617188 43.578125 C 141.710938 42.910156 141.777344 42.292969 141.820312 41.632812 C 141.863281 40.972656 141.84375 40.507812 141.761719 40.195312 C 141.660156 39.824219 141.480469 39.566406 141.21875 39.40625 C 140.957031 39.246094 140.589844 39.167969 140.113281 39.167969 C 139.753906 39.167969 139.382812 39.25 138.992188 39.40625 C 138.605469 39.5625 138.179688 39.722656 137.714844 40.066406 L 136.132812 51.664062 L 131.75 51.664062 L 133.984375 35.230469 L 138.363281 35.230469 L 138.117188 37.113281 C 138.933594 36.398438 139.707031 35.875 140.441406 35.472656 C 141.175781 35.070312 141.957031 34.886719 142.78125 34.886719 C 144.21875 34.886719 145.242188 35.425781 145.855469 36.488281 C 146.472656 37.550781 146.644531 39.003906 146.371094 41.019531 L 144.917969 51.664062 "/>
<g clip-path="url(#clip1)" clip-rule="nonzero">
<path style=" stroke:none;fill-rule:nonzero;fill:rgb(10.258484%,12.188721%,26.771545%);fill-opacity:1;" d="M 158.210938 41.03125 C 158.332031 40.0625 158.230469 39.339844 157.902344 38.773438 C 157.574219 38.207031 156.992188 38.035156 156.160156 38.035156 C 155.308594 38.035156 154.601562 38.164062 154.039062 38.761719 C 153.480469 39.359375 153.105469 40.0625 152.914062 41.03125 Z M 155.292969 52.285156 C 152.640625 52.285156 150.707031 51.542969 149.496094 50.054688 C 148.28125 48.566406 147.863281 46.445312 148.234375 43.695312 C 148.601562 41.003906 149.550781 38.855469 151.085938 37.25 C 152.621094 35.644531 154.574219 34.84375 156.945312 34.84375 C 159.097656 34.84375 160.621094 35.523438 161.523438 36.882812 C 162.425781 38.246094 162.703125 40.351562 162.359375 42.886719 L 162.109375 44.898438 L 152.507812 44.898438 C 152.445312 44.898438 152.5 46.140625 152.664062 46.652344 C 152.828125 47.167969 153.078125 47.496094 153.421875 47.800781 C 153.757812 48.101562 154.164062 48.28125 154.648438 48.414062 C 155.132812 48.542969 155.667969 48.589844 156.261719 48.589844 C 156.769531 48.589844 157.277344 48.515625 157.789062 48.382812 C 158.300781 48.25 158.773438 48.070312 159.210938 47.855469 C 159.597656 47.671875 159.953125 47.542969 160.289062 47.328125 C 160.621094 47.113281 160.894531 46.832031 161.109375 46.832031 L 161.574219 46.832031 L 161 50.996094 C 160.617188 51.164062 160.269531 51.277344 159.953125 51.421875 C 159.636719 51.5625 159.210938 51.6875 158.675781 51.835938 C 158.179688 51.980469 157.671875 52.085938 157.15625 52.171875 C 156.640625 52.253906 156.019531 52.285156 155.292969 52.285156 "/>
</g>
<g clip-path="url(#clip2)" clip-rule="nonzero">
<path style=" stroke:none;fill-rule:nonzero;fill:rgb(10.258484%,12.188721%,26.771545%);fill-opacity:1;" d="M 167.59375 52.300781 C 166.558594 52.300781 165.601562 52.167969 164.714844 51.902344 C 163.828125 51.640625 163.109375 51.429688 162.554688 51.078125 L 163.144531 46.832031 L 163.507812 46.832031 C 163.691406 46.832031 163.898438 47.125 164.136719 47.347656 C 164.371094 47.574219 164.710938 47.757812 165.15625 48.003906 C 165.53125 48.230469 165.96875 48.398438 166.460938 48.558594 C 166.949219 48.71875 167.496094 48.789062 168.097656 48.789062 C 168.714844 48.789062 169.273438 48.671875 169.777344 48.445312 C 170.277344 48.21875 170.5625 47.859375 170.628906 47.371094 C 170.679688 46.988281 170.609375 46.699219 170.421875 46.503906 C 170.230469 46.308594 169.835938 46.121094 169.230469 45.945312 C 168.910156 45.847656 168.503906 45.742188 168.011719 45.628906 C 167.515625 45.515625 167.085938 45.386719 166.710938 45.238281 C 165.664062 44.835938 164.917969 44.242188 164.46875 43.453125 C 164.019531 42.667969 163.882812 41.632812 164.058594 40.347656 C 164.15625 39.617188 164.394531 38.921875 164.769531 38.273438 C 165.148438 37.621094 165.648438 37.042969 166.277344 36.53125 C 166.902344 36.03125 167.648438 35.636719 168.507812 35.34375 C 169.371094 35.050781 170.320312 34.902344 171.351562 34.902344 C 172.339844 34.902344 173.226562 35.015625 174.023438 35.246094 C 174.816406 35.476562 175.476562 35.664062 176 35.984375 L 175.433594 40.0625 L 175.085938 40.0625 C 174.953125 40.0625 174.738281 39.835938 174.445312 39.605469 C 174.152344 39.375 173.859375 39.222656 173.574219 39.054688 C 173.234375 38.859375 172.847656 38.722656 172.40625 38.59375 C 171.972656 38.464844 171.515625 38.414062 171.039062 38.414062 C 170.40625 38.414062 169.851562 38.546875 169.378906 38.800781 C 168.90625 39.054688 168.640625 39.398438 168.585938 39.816406 C 168.535156 40.191406 168.601562 40.484375 168.789062 40.699219 C 168.976562 40.914062 169.421875 41.125 170.117188 41.332031 C 170.480469 41.441406 170.898438 41.546875 171.371094 41.648438 C 171.847656 41.75 172.296875 41.890625 172.722656 42.066406 C 173.679688 42.449219 174.371094 43.007812 174.792969 43.75 C 175.214844 44.488281 175.339844 45.46875 175.175781 46.691406 C 175.070312 47.464844 174.816406 48.203125 174.414062 48.902344 C 174.007812 49.601562 173.492188 50.191406 172.859375 50.671875 C 172.1875 51.1875 171.425781 51.589844 170.574219 51.875 C 169.722656 52.15625 168.730469 52.300781 167.59375 52.300781 "/>
</g>
<g clip-path="url(#clip3)" clip-rule="nonzero">
<path style=" stroke:none;fill-rule:nonzero;fill:rgb(10.258484%,12.188721%,26.771545%);fill-opacity:1;" d="M 65.140625 51.964844 L 0 52.410156 L 2.617188 40.011719 L 71.84375 40.011719 L 65.140625 51.964844 "/>
</g>
<path style=" stroke:none;fill-rule:nonzero;fill:rgb(62.915039%,10.707092%,12.8479%);fill-opacity:1;" d="M 71.84375 40.011719 L 2.617188 40.011719 L 5.175781 28.054688 L 78.550781 28.054688 L 71.84375 40.011719 "/>
</g>
</svg>
