<svg xmlns="http://www.w3.org/2000/svg" width="176pt" height="44.907" viewBox="0 0 176 33.68"><defs><clipPath id="a"><path d="M129 0h47v33.68h-47Zm0 0"/></clipPath></defs><path d="m25.281 11.137.09-.086 3.18-.09V7.777h-5.125C15.734 17.5 7.957 23.691 0 23.512l.09 2.742h11.402Zm14.676 7.25h.441c.618 0 1.325-.532 1.59-1.063l.176-.527c.266-.531 0-1.063-.617-1.063h-2.652l-1.149 2.653Zm5.305-1.856c.527-1.062.527-1.855 0-2.3-.356-.352-1.063-.528-1.946-.528h-6.543l-3.976 7.688-1.149 2.21h3.625l1.586-3.359h1.332l.352 3.36h3.36l-.266-3.36c1.68-.09 2.12-.797 2.562-1.68Zm7.422-.707 1.148-2.12h-3.535l-5.035 9.19-.356.708h3.54Zm6.187 3.711h.621l1.149-4.242-1.77 2.121-1.676 2.121Zm0 1.856.09-.266h-2.914l-1.77 2.477h-2.742l1.149-1.594 5.925-8.305h5.215l-2.476 9.899h-3.27ZM77.348 16l1.148-2.297H76.11l-3.004 6.274-.175-6.274h-3.98l-4.86 9.899h2.387l3.003-6.278.18 6.278h3.973Zm6.277 3.535h.531l1.149-4.242-1.68 2.121-1.77 2.121Zm0 1.856.086-.266h-2.914l-1.77 2.477H76.2l1.149-1.594 5.922-8.305h5.308l-2.566 9.899h-3.184Zm13.434-6.805.445-.883h-3.535l-5.39 9.899h3.62Zm7.87-.883h3.36c1.77 0 2.914.793 1.945 2.828l-1.062 2.032c-.531.882-.973 1.59-2.652 1.68l.355 3.359h-3.36l-.44-3.36h-1.329l-1.59 3.36h-3.625l.528-.883 4.687-9.016Zm0 4.684h.442c.531 0 1.234-.532 1.504-1.063l.176-.527c.265-.531 0-1.063-.531-1.063h-2.653l-1.234 2.653Zm-79.648 5.215h-3.27l2.298-4.067v-5.832h3.449v3.356l3.183-3.356h3.004l-1.148 1.145-4.953 4.863-1.946 3.89z" style="stroke:none;fill-rule:evenodd;fill:#2d4da6;fill-opacity:1"/><g clip-path="url(#a)"><path d="m152.043 17.59 2.742 1.148c.707-1.148.707-1.148 1.856-.707 8.754 3.446 15.293 3.184 19.007-.441-3.007 1.504-6.011 2.035-9.109 1.77.18-.797.18-1.68.18-2.477 0-8.574-6.364-15.735-14.676-16.707-.617-.09-1.324-.176-2.031-.176-4.684 0-8.93 1.945-12.024 4.95-.883-.618-1.855-.973-3.093-.798 3.8 1.77 5.48 6.72 9.722 5.57-2.387-.882-3.976-2.562-5.476-3.8 2.828-2.742 6.629-4.508 10.87-4.508.708 0 1.415.09 2.032.176 7.516 1.062 13.352 7.515 13.352 15.293 0 .797-.09 1.59-.18 2.3-3.535-.445-7.07-2.035-10.695-3.98-.973-.527-1.856-.707-2.477-.355-.617.265-1.059.976-1.234 2.12Zm0 4.332 2.477-2.387-1.856-.973-.621.622-.266.261c.172.086.258.332.266.508v.043c-.008.438-.36.863-.793.863-.266 0-.531-.175-.617-.351l-1.063.883 1.856 1.148Zm0 10.168c-.617.176-1.324.176-2.031.176-8.489 0-15.469-6.895-15.469-15.383 0-3.004.883-5.832 2.387-8.133 2.472 2.477 4.242 5.215 5.832 7.871 1.062 2.027 2.476 2.738 4.332 3.621a.49.49 0 0 1 .441-.265c.266 0 .445.265.445.53v.177c.262.175.618.355.97.53l2.917-2.741a15 15 0 0 1-1.234-.532c-.09.18-.27.27-.446.27-.265 0-.44-.18-.44-.445v-.176c-3.45-1.68-6.013-3.8-8.134-6.012-2.828-3.004-4.949-6.098-8.574-8.043h-3.71c2.562 1.238 4.683 2.653 6.448 4.153a17.24 17.24 0 0 0-2.652 9.195c0 9.281 7.605 16.797 16.887 16.797.707 0 1.414 0 2.031-.09a16.65 16.65 0 0 0 11.05-6.188c.352.266.708.532 1.15.793l2.12-1.41-9.547-3.625 10.254 2.914 3.274-1.941c-5.04-.09-9.727-.621-13.082-2.301 4.683 1.063 9.722 1.328 14.937 1.238L176 20.332c-6.895 1.414-13.7 1.234-20.687-.797l-3.27 3.445c3.184 2.122 6.453 2.122 9.727 3.715-2.387 2.918-5.836 4.864-9.727 5.395" style="stroke:none;fill-rule:evenodd;fill:#2d4da6;fill-opacity:1"/></g></svg>