<svg xmlns="http://www.w3.org/2000/svg" width="176pt" height="21.64" viewBox="0 0 176 16.23"><defs><clipPath id="a"><path d="M34 6h12v10.23H34Zm0 0"/></clipPath><clipPath id="b"><path d="M43 6h10v10.23H43Zm0 0"/></clipPath><clipPath id="c"><path d="M53 6h7v10.23h-7Zm0 0"/></clipPath><clipPath id="d"><path d="M59 6h12v10.23H59Zm0 0"/></clipPath><clipPath id="e"><path d="M70 6h10v10.23H70Zm0 0"/></clipPath><clipPath id="f"><path d="M80 6h10v10.23H80Zm0 0"/></clipPath><clipPath id="g"><path d="M89 6h6v10.23h-6Zm0 0"/></clipPath><clipPath id="h"><path d="M95 6h10v10.23H95Zm0 0"/></clipPath><clipPath id="i"><path d="M108 6h11v10.23h-11Zm0 0"/></clipPath><clipPath id="j"><path d="M119 6h5v10.23h-5Zm0 0"/></clipPath><clipPath id="k"><path d="M125 6h11v10.23h-11Zm0 0"/></clipPath><clipPath id="l"><path d="M135 6h16v10.23h-16Zm0 0"/></clipPath><clipPath id="m"><path d="M148 6h12v10.23h-12Zm0 0"/></clipPath><clipPath id="n"><path d="M158 6h11v10.23h-11Zm0 0"/></clipPath><clipPath id="o"><path d="M168 6h8v10.23h-8Zm0 0"/></clipPath></defs><path d="M12.934 8.512S9.637 7.035 9.688 6.195c0-.097.05-.195.097-.242 0 0 1.77-1.918 5.113-3.246 2.707-1.082 3.348-.984 3.348-.984-.05 1.23.734 2.215 2.016 2.656 0 0 5.062-1.625 7.914-1.867 3.492-.246 4.722 1.031 4.722 1.031s2.852.148 3.836.738c0 0 .098.098.098.145 0 0 0 .05-.05.05-.145 0-.688-.148-1.473-.05-1.82.199-5.118.59-6.098 1.133 0 0-5.313 8.457-29.211 8.312 0 0 7.375-1.625 12.934-5.36" style="stroke:none;fill-rule:evenodd;fill:#295aa7;fill-opacity:1"/><path d="M18.688.297c.195-.05.734.05.835.344 0 0-.789-.493-10.62 2.656C5.851 4.28 1.23 1.035 0 0c0 0 3.738.984 18.688.297" style="stroke:none;fill-rule:evenodd;fill:#eb3129;fill-opacity:1"/><g clip-path="url(#a)"><path d="M34.52 16.031h3.542v-.343l-.738-.344c-.293-.149-.492-.293-.492-.492 0-.145.098-.493.2-.735l.44-1.328c.15-.492.196-.59.59-.59h1.82c.391 0 .442.047.641.54l.586 1.62c.051.2.149.493.149.594 0 .195-.098.293-.293.39l-.692.345v.343h4.82v-.343l-.195-.098c-.789-.293-.886-.688-1.378-2.067L41.602 8.61c-.344-.886-.739-1.968-.836-2.312l-.149-.102h-1.57l-.098.102c-.148.39-.543 1.476-.937 2.457l-2.016 5.016c-.344.937-.687 1.527-1.18 1.773l-.296.145Zm4.328-7.277c.05-.145.101-.195.148-.195.098 0 .098.05.149.246l.785 2.164c0 .097.05.246.05.293 0 .05-.05.148-.246.148H38.31q-.299.002-.297-.148c0-.098.097-.344.148-.442z" style="stroke:none;fill-rule:evenodd;fill:#295aa7;fill-opacity:1"/></g><g clip-path="url(#b)"><path d="m45.684 15.688.738-.293c.441-.149.492-.395.492-1.133V7.426c0-.293-.05-.442-.344-.442-.984 0-1.18.051-1.476.59l-.688 1.23h-.691V6.298l.2-.102h8.507l.195.102v2.508h-.687l-.688-1.23c-.344-.54-.492-.59-1.476-.59-.297 0-.344.148-.344.44v6.837c0 .738.047.984.492 1.133l.738.293v.343h-4.968z" style="stroke:none;fill-rule:evenodd;fill:#295aa7;fill-opacity:1"/></g><g clip-path="url(#c)"><path d="m53.156 15.688.594-.293c.441-.2.488-.395.488-1.133V7.969c0-.739-.047-.934-.488-1.133l-.594-.293v-.348h4.922v.348l-.84.293c-.441.148-.488.394-.488 1.133v6.293c0 .691.344.984.98.984.887 0 1.083-.394 1.676-1.375h.442v2.016l-.098.144h-6.594z" style="stroke:none;fill-rule:evenodd;fill:#295aa7;fill-opacity:1"/></g><g clip-path="url(#d)"><path d="M59.945 16.031h3.492v-.343l-.738-.344c-.297-.149-.441-.293-.441-.492 0-.145.047-.493.144-.735l.446-1.328c.195-.492.246-.59.636-.59h1.77c.445 0 .492.047.691.54l.54 1.62c.05.2.199.493.199.594 0 .195-.098.293-.297.39l-.688.345v.343h4.77v-.343l-.149-.098c-.785-.293-.882-.688-1.425-2.067L67.027 8.61c-.394-.886-.738-1.968-.886-2.312l-.149-.102H64.47l-.149.102c-.144.39-.539 1.476-.882 2.457l-2.02 5.016c-.39.937-.688 1.527-1.176 1.773l-.297.145Zm4.328-7.277c.047-.145.047-.195.149-.195.047 0 .098.05.144.246l.739 2.164c.05.097.05.246.05.293 0 .05-.05.148-.199.148h-1.472c-.149 0-.246-.047-.246-.148 0-.098.046-.344.097-.442z" style="stroke:none;fill-rule:evenodd;fill:#295aa7;fill-opacity:1"/></g><g clip-path="url(#e)"><path d="m70.074 15.688.492-.247c.54-.246.59-.59.59-1.277V8.852c0-.836-.097-1.13-.344-1.375l-.785-.934v-.348h3.047l.2.102c.195.297.882 1.328 1.523 2.215l2.656 3.586c.098.148.145.246.246.246.145 0 .145-.196.145-.39V8.015c0-.637-.051-.786-.59-1.032l-.934-.441v-.348h3.543v.348l-.543.246c-.543.293-.543.492-.543 1.227v7.87l-.195.145h-1.375l-.148-.144c-.246-.297-1.082-1.528-1.918-2.657l-2.559-3.539c-.195-.199-.293-.347-.344-.347-.144 0-.195.101-.195.445v4.375c0 .738.098.887.637 1.133l.886.39v.344h-3.492z" style="stroke:none;fill-rule:evenodd;fill:#295aa7;fill-opacity:1"/></g><g clip-path="url(#f)"><path d="m82.27 15.688.69-.293c.493-.149.54-.395.54-1.133V7.426c0-.293-.098-.442-.395-.442-.98 0-1.128.051-1.425.59l-.739 1.23h-.64V6.298l.199-.102h8.508l.148.102v2.508h-.64l-.688-1.23c-.344-.54-.492-.59-1.476-.59-.293 0-.344.148-.344.44v6.837c0 .738.05.984.492 1.133l.738.293v.343H82.27z" style="stroke:none;fill-rule:evenodd;fill:#295aa7;fill-opacity:1"/></g><g clip-path="url(#g)"><path d="m89.742 15.688.594-.293c.492-.2.543-.395.543-1.133V7.969c0-.739-.05-.934-.543-1.133l-.594-.293v-.348h4.727v.348l-.59.293c-.445.2-.492.394-.492 1.133v6.293c0 .738.047.933.492 1.133l.59.293v.343h-4.727z" style="stroke:none;fill-rule:evenodd;fill:#295aa7;fill-opacity:1"/></g><g clip-path="url(#h)"><path d="M102.926 15c-.395.59-.543.836-.938.934-.441.097-.98.296-2.308.296-2.801 0-4.426-1.378-4.426-4.867C95.254 7.38 97.219 6 99.926 6c2.015 0 3.687.543 3.687 1.672 0 .148-.05.246-.097.344l-1.082 1.722h-.297c-.098-.636-.492-2.902-2.309-2.902-1.281 0-1.773 1.426-1.773 3.691 0 2.899.593 4.426 2.656 4.426 1.523 0 2.164-1.133 2.902-1.918l.395.293z" style="stroke:none;fill-rule:evenodd;fill:#295aa7;fill-opacity:1"/></g><g clip-path="url(#i)"><path d="M108.234 16.031h3.543v-.343l-.738-.344c-.297-.149-.492-.293-.492-.492 0-.145.098-.493.195-.735l.445-1.328c.196-.492.247-.59.637-.59h1.774c.441 0 .492.047.687.54l.54 1.62c.05.2.195.493.195.594 0 .195-.145.293-.293.39l-.688.345v.343h4.77v-.343l-.2-.098c-.734-.293-.836-.688-1.375-2.067l-1.918-4.914c-.343-.886-.687-1.968-.836-2.312l-.144-.102h-1.527l-.149.102c-.144.39-.539 1.476-.933 2.457l-2.016 5.016c-.344.937-.64 1.527-1.18 1.773l-.297.145Zm4.38-7.277c.046-.145.046-.195.148-.195.047 0 .097.05.144.246l.739 2.164a.8.8 0 0 1 .046.293c0 .05-.046.148-.242.148h-1.426c-.148 0-.246-.047-.246-.148 0-.098.047-.344.098-.442z" style="stroke:none;fill-rule:evenodd;fill:#295aa7;fill-opacity:1"/></g><g clip-path="url(#j)"><path d="m119.2 15.688.593-.293c.441-.2.488-.395.488-1.133V7.969c0-.739-.047-.934-.488-1.133l-.594-.293v-.348h4.723v.348l-.59.293c-.441.2-.492.394-.492 1.133v6.293c0 .738.05.933.492 1.133l.59.293v.343h-4.723z" style="stroke:none;fill-rule:evenodd;fill:#295aa7;fill-opacity:1"/></g><g clip-path="url(#k)"><path d="M125.348 16.031h4.722v-.343l-.59-.293c-.445-.2-.492-.395-.492-1.133v-2.407c0-.296.047-.394.2-.394h.242c.097 0 .199.098.343.344l1.97 3.492c.241.441.589.734.984.734h2.605v-.343c-.195-.247-.738-.735-1.18-1.376l-1.968-3c-.047-.05-.149-.195-.149-.292 0-.446 1.871-.493 1.871-2.707 0-1.77-1.133-2.118-2.754-2.118h-5.804v.348l.59.293c.445.2.492.394.492 1.133v6.293c0 .738-.047.933-.493 1.133l-.59.293Zm3.64-8.36c0-.538.047-.687.739-.687 1.128 0 1.574.543 1.574 1.868 0 1.675-.738 1.82-1.969 1.82-.297 0-.344-.145-.344-.488z" style="stroke:none;fill-rule:evenodd;fill:#295aa7;fill-opacity:1"/></g><g clip-path="url(#l)"><path d="M138.676 15.887c-.149-.543-.246-1.082-.395-1.672l-1.672-6.098c-.246-.836-.297-1.133-.687-1.328l-.492-.246v-.348h4.574v.348l-.395.144c-.343.149-.492.297-.492.493 0 .246.051.492.102.687l1.324 5.363c0 .149.05.247.148.247q.072-.001.149-.149l1.133-3.441c.093-.344.191-.64.191-.887 0-.098-.047-.293-.098-.488l-.246-.887c-.195-.64-.293-.738-.636-.937l-.344-.145v-.348h4.62v.348l-.491.246c-.344.145-.489.246-.489.39 0 .2.047.395.094.594l1.328 5.36c.051.246.153.344.246.344.051 0 .149-.098.2-.344l1.472-5.164c.051-.246.153-.543.153-.739s-.2-.296-.446-.394l-.789-.293v-.348h3.492v.348l-.343.144c-.492.247-.59.348-.883 1.133l-1.625 4.918c-.441 1.278-.887 2.754-1.031 3.149l-.149.144h-1.87l-.196-.144a13 13 0 0 0-.344-1.328l-.98-3.442c-.051-.199-.153-.246-.2-.246s-.097 0-.148.195l-.785 2.41c-.344 1.083-.64 2.114-.738 2.41l-.149.145h-1.965z" style="stroke:none;fill-rule:evenodd;fill:#295aa7;fill-opacity:1"/></g><g clip-path="url(#m)"><path d="M148.953 16.031h3.492v-.343l-.687-.344c-.297-.149-.492-.293-.492-.492 0-.145.097-.493.144-.735l.445-1.328c.196-.492.247-.59.637-.59h1.82c.395 0 .446.047.641.54l.54 1.62c.1.2.198.493.198.594 0 .195-.097.293-.296.39l-.688.345v.343h4.77v-.343l-.149-.098c-.785-.293-.887-.688-1.426-2.067l-1.867-4.914c-.344-.886-.738-1.968-.887-2.312l-.144-.102h-1.524l-.152.102c-.098.39-.488 1.476-.883 2.457l-2.015 5.016c-.395.937-.692 1.527-1.184 1.773l-.293.145Zm4.328-7.277c.047-.145.098-.195.149-.195s.097.05.144.246l.738 2.164c.051.097.098.246.098.293 0 .05-.047.148-.246.148h-1.426q-.293.002-.293-.148c0-.098.098-.344.098-.442z" style="stroke:none;fill-rule:evenodd;fill:#295aa7;fill-opacity:1"/></g><g clip-path="url(#n)"><path d="m161.004 15.688.59-.293c.441-.2.488-.395.488-1.133v-1.328c0-.442-.047-.688-.144-.883l-2.118-4.082c-.39-.79-.636-1.035-1.03-1.282l-.247-.144v-.348h4.77v.348l-.493.246c-.297.145-.394.293-.394.441s.097.395.148.543l1.328 2.997c.098.296.149.347.293.347.102 0 .153-.097.246-.297l1.184-2.902c.098-.246.195-.492.195-.688s-.148-.246-.343-.394l-.637-.293v-.348h3.293v.348l-.246.098c-.59.293-.64.441-.938 1.03l-2.164 3.938c-.144.293-.144.442-.144 1.032v1.62c0 .739 0 .934.492 1.134l.59.293v.343h-4.72z" style="stroke:none;fill-rule:evenodd;fill:#295aa7;fill-opacity:1"/></g><g clip-path="url(#o)"><path d="M174.574 9.148c-.195-.738-.836-2.312-2.46-2.312-.59 0-1.032.543-1.032 1.082 0 2.215 4.918 1.426 4.918 4.918 0 2.41-1.574 3.394-4.031 3.394-1.625 0-3.297-.445-3.297-1.476 0-.195.098-.395.195-.59l.887-1.426h.297c.195.739.734 2.657 2.36 2.657.64 0 1.23-.543 1.23-1.23 0-2.657-4.774-1.72-4.774-4.868 0-2.117 1.43-3.297 3.738-3.297 2.067 0 3.149.543 3.149 1.477 0 .148-.098.343-.195.492l-.641 1.18z" style="stroke:none;fill-rule:evenodd;fill:#295aa7;fill-opacity:1"/></g></svg>