<?xml version="1.0" encoding="UTF-8"?>
<svg xmlns="http://www.w3.org/2000/svg" xmlns:xlink="http://www.w3.org/1999/xlink" width="176pt" height="38.49pt" viewBox="0 0 176 38.49" version="1.1">
<defs>
<clipPath id="clip1">
  <path d="M 83 11 L 112 11 L 112 38.488281 L 83 38.488281 Z M 83 11 "/>
</clipPath>
<clipPath id="clip2">
  <path d="M 36 11 L 63 11 L 63 38.488281 L 36 38.488281 Z M 36 11 "/>
</clipPath>
</defs>
<g id="surface1">
<path style=" stroke:none;fill-rule:nonzero;fill:rgb(22.842407%,27.105713%,39.649963%);fill-opacity:1;" d="M 8.769531 37.253906 C 8.742188 37.332031 8.710938 37.410156 8.652344 37.5625 C 5.78125 37.5625 2.890625 37.5625 0 37.5625 C 0 37.394531 0 37.226562 0 37.058594 C 0.0625 37.070312 0.125 37.082031 0.1875 37.09375 C 0.363281 37.386719 0.640625 37.222656 0.863281 37.222656 C 3.5 37.246094 6.136719 37.246094 8.769531 37.253906 "/>
<path style=" stroke:none;fill-rule:nonzero;fill:rgb(12.3703%,17.056274%,29.042053%);fill-opacity:1;" d="M 152.71875 37.414062 C 152.65625 37.449219 152.597656 37.515625 152.535156 37.515625 C 149.914062 37.523438 147.296875 37.523438 144.617188 37.523438 C 144.59375 37.328125 144.554688 37.144531 144.554688 36.964844 C 144.550781 24.90625 144.550781 12.851562 144.558594 0.796875 C 144.558594 0.578125 144.402344 0.289062 144.714844 0.132812 C 144.757812 0.179688 144.800781 0.226562 144.839844 0.273438 C 144.859375 0.226562 144.878906 0.179688 144.898438 0.132812 C 147.355469 0.132812 149.808594 0.132812 152.261719 0.132812 C 152.300781 0.179688 152.339844 0.230469 152.378906 0.28125 C 152.398438 0.234375 152.421875 0.191406 152.441406 0.144531 C 152.757812 0.304688 152.589844 0.59375 152.589844 0.808594 C 152.605469 4.269531 152.601562 7.726562 152.601562 11.1875 C 152.601562 12.386719 152.601562 13.585938 152.601562 14.785156 C 152.601562 14.972656 152.601562 15.164062 152.601562 15.394531 C 152.839844 15.394531 153.023438 15.394531 153.277344 15.394531 C 154.207031 14.210938 155.167969 12.988281 156.128906 11.765625 C 158.722656 8.460938 161.3125 5.152344 163.90625 1.851562 C 164.371094 1.265625 164.863281 0.703125 165.34375 0.128906 C 165.414062 0.195312 165.484375 0.3125 165.566406 0.320312 C 165.816406 0.34375 166.066406 0.328125 166.320312 0.328125 C 168.746094 0.328125 171.175781 0.324219 173.601562 0.335938 C 173.816406 0.339844 174.121094 0.164062 174.253906 0.519531 C 173.066406 1.996094 171.890625 3.480469 170.695312 4.949219 C 169.324219 6.636719 167.9375 8.308594 166.5625 9.996094 C 164.695312 12.28125 162.828125 14.574219 160.964844 16.867188 C 160.738281 17.144531 160.519531 17.433594 160.265625 17.757812 C 165.496094 24.285156 170.71875 30.796875 176 37.390625 C 175.753906 37.417969 175.601562 37.4375 175.445312 37.453125 C 175.347656 37.378906 175.25 37.238281 175.152344 37.238281 C 173.480469 37.222656 171.8125 37.222656 170.140625 37.238281 C 170.042969 37.238281 169.945312 37.378906 169.851562 37.457031 C 168.511719 37.457031 167.175781 37.457031 165.746094 37.457031 C 165.554688 37.269531 165.289062 37.066406 165.089844 36.8125 C 161.285156 31.878906 157.492188 26.941406 153.6875 22.011719 C 153.503906 21.769531 153.378906 21.386719 152.945312 21.441406 C 152.554688 21.617188 152.640625 21.976562 152.640625 22.285156 C 152.664062 27.328125 152.691406 32.371094 152.71875 37.414062 "/>
<path style=" stroke:none;fill-rule:nonzero;fill:rgb(12.27417%,16.740417%,28.611755%);fill-opacity:1;" d="M 18.199219 11.601562 C 16.707031 15.675781 15.230469 19.710938 13.75 23.765625 C 16.984375 23.765625 20.125 23.765625 23.320312 23.765625 C 21.832031 19.660156 20.371094 15.628906 18.910156 11.601562 C 18.65625 11.601562 18.464844 11.601562 18.199219 11.601562 Z M 8.769531 37.253906 C 6.136719 37.246094 3.5 37.246094 0.863281 37.222656 C 0.640625 37.222656 0.363281 37.386719 0.1875 37.09375 C 1.007812 35.003906 1.820312 32.90625 2.652344 30.820312 C 3.828125 27.851562 5.019531 24.890625 6.203125 21.925781 C 7.625 18.367188 9.042969 14.808594 10.457031 11.25 C 11.78125 7.921875 13.101562 4.59375 14.425781 1.269531 C 14.550781 0.960938 14.679688 0.652344 14.804688 0.34375 C 17.398438 0.34375 19.992188 0.34375 22.585938 0.34375 C 23.386719 2.445312 24.191406 4.546875 24.984375 6.648438 C 27.03125 12.050781 29.074219 17.453125 31.109375 22.855469 C 32.855469 27.480469 34.585938 32.109375 36.324219 36.734375 C 36.382812 36.890625 36.421875 37.054688 36.46875 37.214844 C 33.792969 37.214844 31.117188 37.214844 28.519531 37.214844 C 28.339844 37.070312 28.21875 36.972656 28.09375 36.878906 C 27.453125 35.136719 26.8125 33.398438 26.171875 31.65625 C 25.980469 31.140625 25.78125 30.625 25.566406 30.058594 C 20.875 29.988281 16.203125 30.105469 11.433594 30.15625 C 11.148438 30.921875 10.851562 31.722656 10.554688 32.519531 C 9.960938 34.097656 9.367188 35.675781 8.769531 37.253906 "/>
<g clip-path="url(#clip1)" clip-rule="nonzero">
<path style=" stroke:none;fill-rule:nonzero;fill:rgb(12.3703%,17.056274%,29.042053%);fill-opacity:1;" d="M 97.730469 31.726562 C 101.355469 31.871094 104.503906 28.640625 104.503906 24.921875 C 104.5 21.464844 101.914062 18.066406 97.792969 18.03125 C 93.824219 17.996094 91.050781 21.292969 91.027344 24.859375 C 91 28.722656 94.28125 31.859375 97.730469 31.726562 Z M 97.835938 38.230469 C 93.65625 38.15625 90.0625 36.699219 87.222656 33.589844 C 85.375 31.566406 84.296875 29.167969 83.996094 26.414062 C 83.636719 23.15625 84.472656 20.222656 86.390625 17.621094 C 88.558594 14.679688 91.484375 12.855469 95.109375 12.234375 C 96.0625 12.070312 97.042969 11.929688 98.007812 11.953125 C 102.152344 12.066406 105.707031 13.574219 108.488281 16.703125 C 110.132812 18.546875 111.144531 20.710938 111.539062 23.175781 C 112.378906 28.394531 109.722656 33.417969 105.367188 36.113281 C 103.355469 37.355469 100.371094 38.273438 97.835938 38.230469 "/>
</g>
<g clip-path="url(#clip2)" clip-rule="nonzero">
<path style=" stroke:none;fill-rule:nonzero;fill:rgb(12.3703%,17.056274%,29.042053%);fill-opacity:1;" d="M 55.515625 21.824219 C 55.410156 21.34375 55.359375 20.839844 55.1875 20.382812 C 54.007812 17.257812 49.78125 15.84375 46.835938 17.960938 C 45.527344 18.90625 44.773438 20.179688 44.769531 21.839844 C 44.785156 21.917969 44.804688 21.996094 44.828125 22.101562 C 48.375 22.101562 51.917969 22.101562 55.460938 22.101562 C 55.484375 21.988281 55.5 21.90625 55.515625 21.824219 Z M 44.277344 26.171875 C 44.253906 27.089844 44.269531 27.992188 44.582031 28.886719 C 45.296875 30.953125 47.421875 32.304688 49.34375 32.398438 C 50.925781 32.476562 52.316406 32.046875 53.503906 31.011719 C 53.941406 30.628906 54.300781 30.160156 54.757812 29.664062 C 56.839844 29.914062 58.984375 30.167969 61.199219 30.433594 C 61.152344 30.605469 61.136719 30.761719 61.074219 30.894531 C 59.261719 34.648438 56.375 37.179688 52.304688 38.125 C 48.28125 39.058594 44.566406 38.207031 41.339844 35.554688 C 38.664062 33.355469 37.074219 30.488281 36.617188 27.085938 C 36.097656 23.199219 37.019531 19.636719 39.523438 16.550781 C 41.550781 14.046875 44.179688 12.496094 47.332031 11.960938 C 50.808594 11.367188 54.027344 12.167969 56.878906 14.246094 C 59.804688 16.382812 61.511719 19.3125 62.160156 22.847656 C 62.339844 23.820312 62.519531 24.824219 62.277344 25.828125 C 56.285156 25.828125 50.292969 25.828125 44.304688 25.828125 C 44.289062 26.003906 44.28125 26.085938 44.277344 26.171875 "/>
</g>
<path style=" stroke:none;fill-rule:nonzero;fill:rgb(96.302795%,66.665649%,21.272278%);fill-opacity:1;" d="M 140.339844 24.359375 C 140.339844 28.757812 140.339844 33.105469 140.339844 37.503906 C 131.871094 37.503906 123.425781 37.503906 114.972656 37.503906 C 114.835938 36.882812 114.785156 26.128906 114.914062 24.359375 C 123.359375 24.359375 131.808594 24.359375 140.339844 24.359375 "/>
<path style=" stroke:none;fill-rule:nonzero;fill:rgb(12.475586%,16.937256%,28.6026%);fill-opacity:1;" d="M 65.773438 37.21875 C 65.769531 37.054688 65.753906 36.886719 65.753906 36.71875 C 65.753906 28.964844 65.753906 21.210938 65.753906 13.457031 C 65.753906 13.238281 65.753906 13.019531 65.753906 12.773438 C 68.230469 12.773438 70.644531 12.773438 73.140625 12.773438 C 73.140625 13.648438 73.128906 14.503906 73.144531 15.359375 C 73.152344 15.625 73.234375 15.890625 73.28125 16.15625 C 73.285156 16.25 73.285156 16.339844 73.285156 16.433594 C 73.230469 16.566406 73.125 16.703125 73.125 16.839844 C 73.113281 17.972656 73.109375 19.109375 73.117188 20.242188 C 73.125 21.179688 73.148438 22.121094 73.164062 23.058594 C 73.15625 24.003906 73.140625 24.949219 73.140625 25.894531 C 73.132812 29.671875 73.128906 33.449219 73.125 37.230469 C 70.675781 37.226562 68.222656 37.222656 65.773438 37.21875 "/>
<path style=" stroke:none;fill-rule:nonzero;fill:rgb(12.902832%,17.274475%,29.420471%);fill-opacity:1;" d="M 73.285156 16.433594 C 73.285156 16.339844 73.285156 16.25 73.28125 16.15625 C 73.433594 16.207031 73.585938 16.253906 73.804688 16.324219 C 74.019531 16.027344 74.242188 15.75 74.4375 15.457031 C 75.101562 14.453125 75.828125 13.515625 76.820312 12.796875 C 78.648438 11.476562 80.566406 11.492188 82.601562 12.34375 C 82.601562 14.640625 82.601562 16.917969 82.601562 19.25 C 82.097656 19.078125 81.613281 18.902344 81.128906 18.75 C 79.816406 18.332031 78.5 18.28125 77.207031 18.78125 C 75.972656 19.261719 75.054688 20.140625 74.320312 21.21875 C 74.007812 21.675781 73.730469 22.160156 73.4375 22.632812 C 73.167969 22.53125 73.289062 22.296875 73.289062 22.125 C 73.28125 20.230469 73.285156 18.332031 73.285156 16.433594 "/>
<path style=" stroke:none;fill-rule:nonzero;fill:rgb(8.828735%,13.168335%,23.605347%);fill-opacity:1;" d="M 44.277344 26.171875 C 44.28125 26.085938 44.289062 26.003906 44.304688 25.828125 C 50.292969 25.828125 56.285156 25.828125 62.277344 25.828125 C 62.289062 25.902344 62.304688 25.980469 62.339844 26.136719 C 62.003906 26.136719 61.703125 26.140625 61.40625 26.136719 C 55.890625 26.132812 50.371094 26.128906 44.855469 26.128906 C 44.664062 26.128906 44.46875 26.15625 44.277344 26.171875 "/>
<path style=" stroke:none;fill-rule:nonzero;fill:rgb(23.236084%,27.111816%,39.634705%);fill-opacity:1;" d="M 174.253906 0.519531 C 174.121094 0.164062 173.816406 0.339844 173.601562 0.335938 C 171.175781 0.324219 168.746094 0.328125 166.320312 0.328125 C 166.066406 0.328125 165.816406 0.34375 165.566406 0.320312 C 165.484375 0.3125 165.414062 0.195312 165.34375 0.128906 C 165.433594 0.0898438 165.527344 0.0195312 165.621094 0.0195312 C 168.515625 0.0117188 171.40625 0.015625 174.300781 0.0195312 C 174.378906 0.0195312 174.460938 0.0507812 174.632812 0.0859375 C 174.480469 0.261719 174.367188 0.390625 174.253906 0.519531 "/>
<path style=" stroke:none;fill-rule:nonzero;fill:rgb(22.842407%,27.105713%,39.649963%);fill-opacity:1;" d="M 28.09375 36.878906 C 28.21875 36.972656 28.339844 37.070312 28.519531 37.214844 C 31.117188 37.214844 33.792969 37.214844 36.46875 37.214844 C 36.5 37.28125 36.53125 37.347656 36.558594 37.40625 C 36.5 37.457031 36.460938 37.523438 36.417969 37.523438 C 33.726562 37.527344 31.035156 37.527344 28.246094 37.527344 C 28.199219 37.324219 28.148438 37.101562 28.09375 36.878906 "/>
<path style=" stroke:none;fill-rule:nonzero;fill:rgb(22.842407%,27.105713%,39.649963%);fill-opacity:1;" d="M 22.585938 0.34375 C 19.992188 0.34375 17.398438 0.34375 14.804688 0.34375 C 14.90625 0.234375 14.988281 0.0742188 15.113281 0.0273438 C 15.257812 -0.0273438 15.441406 0.015625 15.605469 0.015625 C 17.742188 0.015625 19.875 0.015625 22.011719 0.015625 C 22.171875 0.015625 22.335938 0.015625 22.554688 0.015625 C 22.566406 0.148438 22.574219 0.246094 22.585938 0.34375 "/>
<path style=" stroke:none;fill-rule:nonzero;fill:rgb(22.842407%,27.105713%,39.649963%);fill-opacity:1;" d="M 65.773438 37.21875 C 68.222656 37.222656 70.675781 37.226562 73.125 37.230469 C 73.117188 37.308594 73.109375 37.390625 73.097656 37.503906 C 70.652344 37.503906 68.21875 37.503906 65.773438 37.503906 C 65.773438 37.382812 65.773438 37.300781 65.773438 37.21875 "/>
<path style=" stroke:none;fill-rule:nonzero;fill:rgb(8.828735%,13.168335%,23.605347%);fill-opacity:1;" d="M 169.851562 37.457031 C 169.945312 37.378906 170.042969 37.238281 170.140625 37.238281 C 171.8125 37.222656 173.480469 37.222656 175.152344 37.238281 C 175.25 37.238281 175.347656 37.378906 175.445312 37.453125 C 175.367188 37.480469 175.296875 37.535156 175.21875 37.535156 C 173.507812 37.539062 171.789062 37.535156 170.078125 37.53125 C 170.003906 37.53125 169.925781 37.480469 169.851562 37.457031 "/>
<path style=" stroke:none;fill-rule:nonzero;fill:rgb(20.437622%,24.609375%,37.063599%);fill-opacity:1;" d="M 73.285156 16.433594 C 73.285156 18.332031 73.28125 20.230469 73.289062 22.125 C 73.289062 22.296875 73.167969 22.53125 73.4375 22.632812 C 73.347656 22.773438 73.253906 22.917969 73.164062 23.058594 C 73.148438 22.121094 73.125 21.179688 73.117188 20.242188 C 73.109375 19.109375 73.113281 17.972656 73.125 16.839844 C 73.125 16.703125 73.230469 16.566406 73.285156 16.433594 "/>
<path style=" stroke:none;fill-rule:nonzero;fill:rgb(8.828735%,13.168335%,23.605347%);fill-opacity:1;" d="M 144.898438 0.132812 C 144.878906 0.179688 144.859375 0.226562 144.839844 0.273438 C 144.800781 0.226562 144.757812 0.179688 144.714844 0.132812 C 144.777344 0.132812 144.839844 0.132812 144.898438 0.132812 "/>
<path style=" stroke:none;fill-rule:nonzero;fill:rgb(8.828735%,13.168335%,23.605347%);fill-opacity:1;" d="M 152.441406 0.144531 C 152.421875 0.191406 152.398438 0.234375 152.378906 0.28125 C 152.339844 0.230469 152.300781 0.179688 152.261719 0.132812 C 152.320312 0.136719 152.382812 0.140625 152.441406 0.144531 "/>
<path style=" stroke:none;fill-rule:nonzero;fill:rgb(8.828735%,13.168335%,23.605347%);fill-opacity:1;" d="M 44.769531 21.839844 C 48.351562 21.832031 51.933594 21.828125 55.515625 21.824219 C 55.5 21.90625 55.484375 21.988281 55.460938 22.101562 C 51.917969 22.101562 48.375 22.101562 44.828125 22.101562 C 44.804688 21.996094 44.785156 21.917969 44.769531 21.839844 "/>
</g>
</svg>
