<svg xmlns="http://www.w3.org/2000/svg" width="176pt" height="51.32" viewBox="0 0 176 38.49"><defs><clipPath id="a"><path d="M83 11h29v27.488H83Zm0 0"/></clipPath><clipPath id="b"><path d="M36 11h27v27.488H36Zm0 0"/></clipPath></defs><path d="M8.77 37.254c-.028.078-.06.156-.118.309H0v-.504l.188.035c.175.293.453.129.675.129 2.637.023 5.274.023 7.907.03" style="stroke:none;fill-rule:nonzero;fill:#3a4565;fill-opacity:1"/><path d="M152.719 37.414c-.063.035-.121.102-.184.102-2.62.007-5.238.007-7.918.007-.023-.195-.062-.378-.062-.558q-.007-18.087.004-36.168c0-.219-.157-.508.156-.664q.066.07.125.14l.058-.14h7.364q.059.071.117.148.032-.069.062-.136c.317.16.149.449.149.664.015 3.46.012 6.918.012 10.379v4.207h.675l2.852-3.63c2.594-3.304 5.184-6.613 7.777-9.913.465-.586.957-1.149 1.438-1.723.07.066.14.184.222.191.25.024.5.008.754.008 2.426 0 4.856-.004 7.282.008.214.004.52-.172.652.184-1.188 1.476-2.363 2.96-3.559 4.43-1.37 1.687-2.757 3.359-4.132 5.046a3288 3288 0 0 0-5.598 6.871c-.227.278-.445.567-.7.89 5.231 6.528 10.454 13.04 15.735 19.634-.246.027-.398.047-.555.062-.097-.074-.195-.215-.293-.215q-2.506-.023-5.011 0c-.098 0-.196.14-.29.219h-4.105c-.191-.187-.457-.39-.656-.645-3.805-4.933-7.598-9.87-11.403-14.8-.183-.242-.308-.625-.742-.57-.39.175-.304.535-.304.843q.035 7.564.078 15.13" style="stroke:none;fill-rule:nonzero;fill:#202b4a;fill-opacity:1"/><path d="M18.2 11.602c-1.493 4.074-2.97 8.109-4.45 12.164h9.57l-4.41-12.164zM8.77 37.254c-2.633-.008-5.27-.008-7.907-.031-.222 0-.5.164-.675-.13.82-2.09 1.632-4.187 2.464-6.273 1.176-2.968 2.368-5.93 3.551-8.894q2.133-5.338 4.254-10.676 1.985-4.993 3.969-9.98c.125-.31.254-.618.379-.926h7.78c.802 2.101 1.606 4.203 2.4 6.304q3.071 8.104 6.124 16.207c1.746 4.625 3.477 9.254 5.215 13.88.059.156.098.32.145.48h-7.95c-.18-.145-.3-.242-.425-.336-.64-1.742-1.282-3.48-1.922-5.223-.192-.515-.39-1.031-.606-1.597-4.691-.07-9.363.046-14.132.097-.286.766-.582 1.567-.88 2.364q-.889 2.367-1.784 4.734" style="stroke:none;fill-rule:nonzero;fill:#1f2b49;fill-opacity:1"/><g clip-path="url(#a)"><path d="M97.73 31.727c3.625.144 6.774-3.086 6.774-6.805-.004-3.457-2.59-6.856-6.711-6.89-3.969-.036-6.742 3.261-6.766 6.827-.027 3.864 3.254 7 6.703 6.868m.106 6.503c-4.18-.074-7.773-1.53-10.613-4.64-1.848-2.024-2.926-4.422-3.227-7.176-.36-3.258.477-6.191 2.395-8.793 2.168-2.941 5.093-4.766 8.718-5.387.954-.164 1.934-.304 2.899-.28 4.144.112 7.699 1.62 10.48 4.75 1.645 1.843 2.657 4.007 3.051 6.472.84 5.219-1.816 10.242-6.172 12.937-2.012 1.242-4.996 2.16-7.531 2.117" style="stroke:none;fill-rule:nonzero;fill:#202b4a;fill-opacity:1"/></g><g clip-path="url(#b)"><path d="M55.516 21.824c-.106-.48-.157-.984-.328-1.441-1.18-3.125-5.407-4.54-8.352-2.422-1.309.945-2.063 2.219-2.066 3.879.015.078.035.156.058.262h10.633zm-11.239 4.348c-.023.918-.007 1.82.305 2.715.715 2.066 2.84 3.418 4.762 3.511 1.582.079 2.972-.351 4.16-1.386.437-.383.797-.852 1.254-1.348 2.082.25 4.226.504 6.441.77-.047.171-.062.328-.125.46-1.812 3.754-4.699 6.286-8.77 7.231-4.023.934-7.738.082-10.964-2.57-2.676-2.2-4.266-5.067-4.723-8.47-.52-3.886.403-7.448 2.906-10.534 2.028-2.504 4.657-4.055 7.809-4.59 3.477-.594 6.695.207 9.547 2.285 2.926 2.137 4.633 5.067 5.281 8.602.18.972.36 1.976.117 2.98H44.305c-.016.176-.024.258-.028.344" style="stroke:none;fill-rule:nonzero;fill:#202b4a;fill-opacity:1"/></g><path d="M140.34 24.36v13.144h-25.367c-.137-.621-.188-11.375-.059-13.145z" style="stroke:none;fill-rule:nonzero;fill:#f6aa36;fill-opacity:1"/><path d="M65.773 37.219c-.003-.164-.02-.332-.02-.5V12.773h7.388c0 .875-.012 1.73.004 2.586.007.266.09.532.136.797q.005.139.004.278c-.055.132-.16.27-.16.406a198 198 0 0 0-.008 3.402c.008.938.031 1.88.047 2.817-.008.945-.023 1.89-.023 2.836q-.011 5.665-.016 11.335z" style="stroke:none;fill-rule:nonzero;fill:#202b49;fill-opacity:1"/><path d="M73.285 16.434q.001-.139-.004-.278c.153.051.305.098.524.168.215-.297.437-.574.632-.867.665-1.004 1.391-1.941 2.383-2.66 1.828-1.32 3.746-1.305 5.782-.453v6.906c-.504-.172-.989-.348-1.473-.5-1.313-.418-2.629-.469-3.922.031-1.234.48-2.152 1.36-2.887 2.438-.312.457-.59.941-.882 1.414-.27-.102-.149-.336-.149-.508-.008-1.895-.004-3.793-.004-5.691" style="stroke:none;fill-rule:nonzero;fill:#212c4b;fill-opacity:1"/><path d="M44.277 26.172c.004-.086.012-.168.028-.344h17.972c.012.074.028.152.063.309-.336 0-.637.004-.934 0-5.515-.004-11.035-.008-16.55-.008-.192 0-.387.027-.579.043" style="stroke:none;fill-rule:nonzero;fill:#17223c;fill-opacity:1"/><path d="M174.254.52c-.133-.356-.438-.18-.652-.184-2.426-.012-4.856-.008-7.282-.008-.254 0-.504.016-.754-.008-.082-.008-.152-.125-.222-.191.09-.04.183-.11.277-.11 2.895-.007 5.785-.003 8.68 0 .078 0 .16.032.332.067z" style="stroke:none;fill-rule:nonzero;fill:#3b4565;fill-opacity:1"/><path d="M28.094 36.879c.125.094.246.191.426.336h7.949l.09.191c-.059.051-.098.117-.141.117-2.691.004-5.383.004-8.172.004-.047-.203-.098-.425-.152-.648M22.586.344h-7.781c.101-.11.183-.27.308-.317.145-.054.328-.011.492-.011h6.95c.011.132.02.23.03.328M65.773 37.219l7.352.011-.027.274h-7.325z" style="stroke:none;fill-rule:nonzero;fill:#3a4565;fill-opacity:1"/><path d="M169.852 37.457c.093-.078.191-.219.289-.219q2.506-.023 5.011 0c.098 0 .196.14.293.215-.078.027-.148.082-.226.082-1.711.004-3.43 0-5.14-.004-.075 0-.153-.05-.227-.074" style="stroke:none;fill-rule:nonzero;fill:#17223c;fill-opacity:1"/><path d="M73.285 16.434c0 1.898-.004 3.796.004 5.691 0 .172-.121.406.148.508l-.273.426c-.016-.938-.039-1.88-.047-2.817a198 198 0 0 1 .008-3.402c0-.137.105-.274.16-.406" style="stroke:none;fill-rule:nonzero;fill:#343f5f;fill-opacity:1"/><path d="m144.898.133-.058.14-.125-.14zM152.441.145q-.032.068-.062.136l-.117-.148zM44.77 21.84q5.373-.011 10.746-.016l-.055.278H44.828c-.023-.106-.043-.184-.058-.262" style="stroke:none;fill-rule:nonzero;fill:#17223c;fill-opacity:1"/></svg>