<?xml version="1.0" encoding="UTF-8"?>
<svg xmlns="http://www.w3.org/2000/svg" xmlns:xlink="http://www.w3.org/1999/xlink" width="176pt" height="40.79pt" viewBox="0 0 176 40.79" version="1.1">
<defs>
<clipPath id="clip1">
  <path d="M 0 2 L 117 2 L 117 40.789062 L 0 40.789062 Z M 0 2 "/>
</clipPath>
<clipPath id="clip2">
  <path d="M 0 2 L 117 2 L 117 40.789062 L 0 40.789062 Z M 0 2 "/>
</clipPath>
</defs>
<g id="surface1">
<g clip-path="url(#clip1)" clip-rule="nonzero">
<path style=" stroke:none;fill-rule:nonzero;fill:rgb(34.178162%,36.289978%,38.858032%);fill-opacity:1;" d="M 48.289062 9.457031 C 48.945312 9.3125 49.761719 9.0625 50.121094 8.710938 C 50.476562 8.378906 50.796875 7.898438 50.714844 7.378906 C 50.496094 6.789062 50.011719 7.726562 49.5625 7.492188 C 49.339844 7.332031 49.90625 6.789062 50.265625 6.898438 C 50.371094 6.789062 50.433594 6.617188 50.453125 6.472656 C 50.371094 6.382812 50.179688 6.363281 50.078125 6.421875 C 49.605469 6.6875 49.207031 7.089844 49.25 7.738281 C 49.339844 8.46875 50.027344 7.585938 50.398438 7.800781 C 49.964844 8.617188 48.882812 8.902344 48.289062 9.457031 M 84.492188 12.378906 C 84.363281 12.527344 84.253906 12.710938 84.191406 12.867188 C 84.074219 13.117188 84.09375 13.585938 84.332031 13.742188 C 84.589844 13.890625 85.113281 13.785156 85.359375 13.269531 C 85.511719 13.332031 85.636719 13.386719 85.886719 13.285156 C 86.3125 13.105469 86.296875 12.425781 86.296875 11.996094 C 86.101562 12.148438 86.238281 12.492188 85.992188 12.660156 C 85.753906 12.792969 85.539062 12.539062 85.539062 12.351562 C 85.40625 12.558594 85.308594 12.929688 85.03125 13.074219 C 84.882812 13.152344 84.636719 13.230469 84.484375 13.101562 C 84.253906 12.878906 84.5625 12.613281 84.492188 12.378906 M 91.71875 7.003906 C 87.507812 8.289062 82.996094 9.683594 78.59375 10.667969 L 78.144531 11.761719 C 82.574219 10.527344 87.105469 9.3125 91.359375 7.691406 Z M 33.1875 37 C 31.65625 34.539062 30.574219 31.835938 29.507812 29.207031 L 27.382812 29.207031 L 27.332031 29.25 C 27.332031 29.324219 28.121094 29.539062 27.921875 30.574219 C 27.625 32.121094 26.917969 33.832031 25.015625 37.671875 L 24.871094 37.980469 C 24.847656 37.996094 24.847656 38.003906 25.015625 38.003906 L 26.75 38.003906 L 26.8125 37.964844 C 26.8125 37.804688 26.074219 37.804688 26.195312 37.238281 C 26.367188 36.613281 26.917969 35.492188 27.3125 34.613281 L 30.179688 34.613281 C 30.722656 35.648438 31.203125 36.753906 31.855469 37.71875 C 31.917969 37.804688 31.988281 37.929688 32.042969 37.980469 C 32.109375 38.015625 32.324219 38.003906 32.441406 38.003906 C 32.714844 38.015625 34.15625 38.003906 34.15625 38.003906 L 34.203125 37.964844 C 34.203125 37.820312 33.730469 37.792969 33.1875 37 M 27.601562 33.945312 C 28.296875 32.253906 28.550781 30.851562 28.550781 30.851562 C 29.054688 31.78125 29.839844 33.945312 29.839844 33.945312 Z M 26.296875 21.566406 C 27.070312 21.1875 27.921875 21.074219 28.726562 20.851562 C 29.371094 20.457031 29.460938 19.703125 29.691406 19.054688 C 28.953125 19.433594 28.058594 19.535156 27.261719 19.792969 C 26.476562 20.027344 26.523438 20.988281 26.296875 21.566406 M 33.753906 9.550781 C 33.359375 9.199219 32.789062 8.902344 32.339844 8.691406 C 32.082031 9.09375 31.734375 9.585938 31.65625 10.117188 C 32.113281 10.5 32.589844 10.710938 33.066406 11.003906 C 33.476562 10.449219 33.632812 9.898438 33.753906 9.550781 M 13.050781 11.40625 C 16.964844 10.621094 20.816406 9.664062 24.589844 8.578125 C 25.007812 8.433594 26.027344 8.28125 25.960938 7.652344 C 21.921875 8.734375 17.765625 9.707031 13.53125 10.585938 L 13.285156 10.945312 C 13.207031 11.042969 12.894531 11.382812 13.050781 11.40625 M 38.742188 17.496094 L 38.78125 16.773438 C 38.917969 15.328125 37.132812 14.742188 36.8125 13.464844 C 36.867188 13.074219 37.046875 12.738281 37.316406 12.429688 C 37.914062 11.875 38.640625 11.675781 39.488281 11.929688 C 40.464844 12.234375 40.816406 13.195312 40.949219 14.125 C 40.179688 17.574219 36.359375 19.238281 33.648438 20.652344 L 33.902344 20.632812 C 35.65625 20.398438 36.894531 20.140625 38.28125 19.648438 C 39.683594 19.128906 40.660156 17.523438 41.136719 16.183594 C 41.695312 14.527344 41.992188 12.121094 40.75 10.683594 C 40.066406 10.011719 38.921875 9.722656 38.042969 10.152344 C 37.121094 10.554688 36.414062 11.527344 36.300781 12.585938 C 36.054688 14.5625 37.199219 16.335938 38.742188 17.496094 M 40.078125 20.691406 C 41.492188 20.671875 43.6875 20.363281 44.480469 20.027344 C 45.933594 19.242188 46.433594 17.914062 46.765625 16.335938 C 47.042969 15.003906 46.660156 14.15625 47.554688 13.554688 C 47.929688 13.332031 47.773438 12.625 47.859375 12.074219 C 47.808594 12 47.710938 11.953125 47.632812 11.953125 C 46.570312 12.300781 46.632812 13.410156 46.507812 14.347656 C 45.96875 17.5625 43.144531 19.609375 40.542969 20.5 Z M 18.644531 13.195312 C 18.777344 13.898438 19.726562 13.457031 20.050781 12.894531 C 20.121094 12.992188 20.199219 13.050781 20.328125 13.085938 C 20.464844 13.101562 20.695312 13.074219 20.84375 12.691406 C 20.945312 12.429688 20.988281 12.074219 20.816406 11.746094 L 20.753906 12.117188 C 20.726562 12.269531 20.585938 12.449219 20.359375 12.449219 C 20.148438 12.453125 20.195312 12.210938 20.160156 12.109375 C 19.910156 12.1875 19.992188 12.566406 19.542969 12.808594 C 19.371094 12.894531 19.089844 12.984375 18.964844 12.78125 C 18.863281 12.554688 19.046875 12.351562 19.074219 12.15625 C 18.785156 12.351562 18.605469 12.808594 18.644531 13.195312 M 3.332031 20.40625 C 3.769531 20.320312 4.0625 20.082031 4.355469 19.488281 C 5.195312 17.730469 5.65625 15.546875 7.136719 15.210938 C 7.367188 15.398438 7.308594 15.757812 7.382812 16.074219 C 7.859375 18.453125 10.207031 19.554688 12.128906 19.96875 C 18.746094 21.28125 25.058594 19.398438 30.121094 15.058594 L 30.195312 15.003906 C 29.910156 16.621094 30.910156 17.253906 31.679688 17.117188 C 32.726562 16.933594 33.152344 15.714844 33.511719 14.9375 C 33.734375 14.40625 33.890625 14.019531 34 13.664062 C 34.09375 13.371094 34.171875 13.085938 34.21875 12.792969 L 33.976562 12.9375 C 33.269531 13.488281 33.125 14.441406 32.484375 15.058594 C 32.230469 15.277344 31.828125 15.4375 31.464844 15.339844 C 30.972656 15.167969 30.855469 14.742188 30.835938 14.300781 C 30.847656 13.902344 30.929688 13.503906 30.929688 13.257812 L 30.929688 13.027344 C 26.882812 16.488281 22.089844 18.472656 16.707031 18.695312 C 13.429688 18.652344 10.058594 18.320312 8.109375 15.558594 C 7.757812 14.957031 7.625 14.242188 7.460938 13.566406 C 6.957031 13.378906 6.378906 13.84375 6.03125 14.175781 C 4.652344 15.4375 4.605469 17.355469 3.300781 18.613281 C 2.644531 18.957031 1.53125 18.265625 1.542969 17.179688 C 1.578125 15.652344 2.609375 14.421875 3.832031 13.429688 C 5.734375 11.882812 7.324219 9.894531 7.675781 7.652344 C 6.796875 8.039062 5.714844 8.203125 4.75 8.410156 C 4.203125 8.660156 4.121094 9.382812 3.949219 10.1875 C 4.738281 9.925781 5.6875 9.804688 6.558594 9.550781 L 6.566406 9.601562 C 5.753906 11.546875 3.703125 12.269531 2.277344 13.769531 C 0.890625 15.257812 0.542969 17.628906 1.359375 19.292969 C 1.84375 20.25 2.464844 20.511719 3.332031 20.40625 M 96.128906 19.78125 C 95.410156 20.128906 94.488281 20.257812 93.699219 20.488281 C 92.953125 20.738281 92.933594 21.71875 92.695312 22.316406 C 93.414062 22.007812 94.253906 21.859375 95.03125 21.652344 C 95.765625 21.335938 95.832031 20.40625 96.128906 19.78125 M 97.601562 37.238281 C 97.546875 36.835938 97.492188 34.925781 97.476562 33.933594 L 97.492188 29.503906 L 97.445312 29.230469 C 97.355469 29.195312 97.160156 29.207031 97.042969 29.207031 L 95.339844 29.207031 L 95.277344 29.25 C 95.277344 29.410156 95.828125 29.417969 95.882812 29.976562 C 95.945312 30.386719 96.003906 32.289062 96.019531 33.273438 L 96.011719 37.015625 C 96.003906 37.304688 96.003906 37.648438 96.003906 37.71875 C 96.003906 37.785156 96.003906 37.941406 96.074219 37.976562 C 96.128906 38.03125 96.339844 38.003906 96.453125 38.003906 L 98.160156 38.003906 L 98.210938 37.960938 C 98.210938 37.804688 97.667969 37.792969 97.601562 37.238281 M 109.074219 20.40625 L 109.171875 20.40625 C 110.953125 20.457031 112.554688 20.566406 114.152344 19.902344 C 115.523438 19.136719 116.011719 17.894531 116.390625 16.652344 C 117.449219 13.054688 116.390625 9.335938 113.648438 6.890625 C 112.902344 9.175781 113.832031 11.523438 114.03125 13.738281 C 114.164062 14.5 114.042969 15.363281 114.222656 16.101562 C 115.03125 13.785156 114.417969 11.535156 114.003906 9.410156 L 113.992188 9.253906 C 115.339844 10.984375 116.34375 12.605469 116.214844 14.699219 C 115.859375 18.40625 111.78125 19.339844 109.074219 20.40625 M 46.691406 29.207031 L 45.007812 29.207031 L 44.945312 29.25 C 44.945312 29.410156 45.484375 29.417969 45.550781 29.976562 C 45.609375 30.386719 45.625 32.289062 45.652344 33.273438 L 45.652344 36.753906 C 45.652344 36.753906 45.632812 37.378906 45.417969 38.003906 C 45.144531 38.835938 43.839844 39.742188 42.863281 39.742188 C 41.421875 39.742188 39.609375 39.097656 40.382812 36.59375 C 40.144531 36.511719 40.050781 36.859375 39.667969 37.003906 C 38.679688 37.347656 37.121094 37.335938 36.070312 37.003906 C 36.042969 35.875 36.027344 34.886719 36.027344 33.738281 L 36.027344 29.503906 L 35.988281 29.230469 C 35.90625 29.191406 35.699219 29.207031 35.589844 29.207031 L 33.890625 29.207031 L 33.824219 29.246094 C 33.824219 29.40625 34.375 29.414062 34.441406 29.972656 C 34.472656 30.1875 34.492188 30.765625 34.515625 31.414062 C 34.554688 33.585938 34.605469 35.917969 34.453125 38 L 39.65625 38 C 39.65625 38 39.539062 39.4375 40.058594 40.070312 C 40.773438 40.925781 41.980469 40.910156 43.121094 40.578125 C 44.816406 40.070312 46.957031 38.636719 47.109375 36.871094 C 47.128906 35.910156 47.136719 34.917969 47.136719 33.933594 L 47.15625 29.5 L 47.109375 29.226562 C 47.023438 29.195312 46.8125 29.207031 46.691406 29.207031 M 115.183594 29.25 C 115.183594 29.410156 115.757812 29.457031 115.832031 29.84375 C 116.203125 31.828125 116.039062 36.195312 116.039062 36.195312 C 113.636719 34.1875 111.667969 31.730469 109.695312 29.292969 C 109.582031 29.183594 109.257812 29.207031 109.074219 29.207031 L 107.757812 29.207031 L 107.714844 29.25 C 107.703125 29.417969 108.046875 29.398438 108.417969 29.84375 C 108.613281 30.101562 108.75 30.40625 108.777344 30.675781 C 108.835938 31.601562 108.785156 32.257812 108.777344 33.316406 C 108.746094 34.367188 108.601562 37.609375 108.601562 37.71875 L 108.648438 37.976562 C 108.722656 38.03125 108.917969 38.003906 109.050781 38.003906 L 110.113281 38.003906 L 110.160156 37.960938 C 110.164062 37.804688 109.609375 37.792969 109.535156 37.238281 C 109.515625 36.953125 109.484375 35.921875 109.4375 34.984375 C 109.425781 33.769531 109.453125 32.84375 109.519531 31.769531 C 111.535156 34.105469 116.117188 38.445312 116.421875 38.695312 C 116.617188 38.835938 116.636719 38.722656 116.636719 38.722656 C 116.84375 35.757812 116.734375 32.257812 116.921875 29.207031 L 115.242188 29.207031 Z M 107.175781 37 C 105.621094 34.539062 104.542969 31.835938 103.492188 29.207031 L 101.359375 29.207031 L 101.304688 29.25 C 101.304688 29.324219 102.089844 29.539062 101.882812 30.574219 C 101.601562 32.121094 100.882812 33.832031 98.988281 37.671875 L 98.835938 37.980469 C 98.828125 37.996094 98.824219 38.003906 98.992188 38.003906 L 100.734375 38.003906 L 100.789062 37.964844 C 100.789062 37.804688 100.042969 37.804688 100.167969 37.238281 C 100.339844 36.613281 100.882812 35.492188 101.28125 34.613281 L 104.152344 34.613281 C 104.703125 35.648438 105.183594 36.753906 105.828125 37.71875 C 105.886719 37.804688 105.964844 37.929688 106.019531 37.980469 C 106.085938 38.015625 106.300781 38.003906 106.421875 38.003906 C 106.699219 38.015625 108.121094 38.003906 108.121094 38.003906 L 108.167969 37.964844 C 108.167969 37.820312 107.703125 37.792969 107.175781 37 M 101.558594 33.945312 C 102.277344 32.253906 102.523438 30.851562 102.523438 30.851562 C 103.027344 31.78125 103.804688 33.945312 103.804688 33.945312 Z M 60.882812 15.808594 C 61.328125 12.808594 60.070312 9.859375 58.445312 7.941406 C 58.144531 9.5625 58.367188 13.898438 58.722656 16.589844 C 59.644531 14.621094 58.699219 12.613281 58.859375 10.554688 C 59.390625 11.351562 59.6875 12.136719 60.019531 13.027344 C 60.566406 14.476562 60.207031 16.410156 59.058594 17.65625 C 58.347656 18.40625 57.34375 18.835938 56.417969 18.519531 C 56.066406 18.40625 55.753906 18.035156 55.753906 18.035156 C 55.753906 18.035156 56 17.410156 56.292969 16.371094 C 56.824219 14.105469 56.433594 12.136719 54.933594 9.683594 C 53.707031 12.226562 53.46875 15.625 54.457031 18.199219 C 53.429688 19.257812 52.101562 18.738281 51.835938 18.3125 C 53.164062 15.859375 52.894531 12.359375 51.296875 9.777344 C 50.140625 12.082031 49.699219 15.40625 50.546875 18.285156 C 49.238281 19.488281 47.632812 20.140625 46.113281 20.871094 C 48.066406 20.757812 49.734375 20.613281 51.117188 19.546875 C 51.613281 20.121094 52.207031 20.578125 52.972656 20.578125 C 53.878906 20.578125 54.675781 19.984375 55.148438 19.546875 C 56.171875 20.617188 57.648438 20.46875 58.324219 20.070312 C 59.898438 19.167969 60.632812 17.449219 60.882812 15.808594 M 51.238281 17.378906 C 50.371094 15.933594 50.574219 13.738281 51.238281 12.25 C 52.015625 13.691406 52.582031 15.980469 51.238281 17.378906 M 54.898438 12.292969 C 55.769531 13.585938 56.324219 15.585938 55.15625 17.277344 C 54.195312 16.050781 54.421875 13.84375 54.898438 12.292969 M 92.308594 29.25 C 92.292969 29.410156 92.875 29.457031 92.945312 29.84375 C 93.324219 31.828125 93.167969 36.195312 93.167969 36.195312 C 90.75 34.1875 88.78125 31.730469 86.808594 29.292969 C 86.6875 29.183594 86.371094 29.207031 86.183594 29.207031 L 84.882812 29.207031 L 84.824219 29.25 C 84.8125 29.417969 85.15625 29.398438 85.539062 29.84375 C 85.742188 30.101562 85.875 30.40625 85.890625 30.675781 C 85.949219 31.601562 85.910156 32.257812 85.878906 33.316406 C 85.859375 34.367188 85.71875 37.609375 85.71875 37.71875 L 85.769531 37.976562 C 85.828125 38.03125 86.042969 38.003906 86.160156 38.003906 L 87.230469 38.003906 L 87.273438 37.960938 C 87.273438 37.804688 86.734375 37.792969 86.664062 37.238281 C 86.628906 36.953125 86.59375 35.921875 86.558594 34.984375 C 86.53125 33.769531 86.578125 32.84375 86.640625 31.769531 C 88.648438 34.105469 93.230469 38.445312 93.535156 38.695312 C 93.742188 38.835938 93.746094 38.722656 93.746094 38.722656 C 93.960938 35.757812 93.855469 32.257812 94.046875 29.207031 L 92.363281 29.207031 Z M 55.339844 29.355469 C 53.308594 28.980469 50.949219 29.261719 49.613281 30.617188 C 48.367188 31.84375 47.945312 36.050781 50.417969 37.394531 C 51.921875 38.238281 54.242188 38.179688 55.710938 37.3125 C 57.90625 36.039062 58.113281 33.316406 57.460938 31.160156 C 57.128906 30.09375 56.242188 29.5625 55.339844 29.355469 M 56.011719 36.050781 C 55.90625 36.175781 55.8125 36.273438 55.683594 36.339844 C 54.390625 37.199219 51.539062 36.703125 50.664062 35.5625 C 50.230469 34.917969 50.085938 33.960938 50.097656 33.074219 C 50.09375 32.394531 50.179688 31.554688 50.574219 30.921875 C 51.421875 29.558594 54.945312 30.15625 55.902344 31.402344 C 56.808594 32.722656 56.464844 35.453125 56.011719 36.050781 M 75.941406 31.691406 C 75.105469 28.808594 71.351562 29.210938 68.292969 29.210938 L 67.214844 29.210938 C 66.621094 29.210938 67.339844 29.324219 67.46875 29.804688 C 67.554688 33.28125 67.476562 36.125 67.476562 36.125 C 67.46875 36.425781 67.46875 36.726562 67.46875 37.035156 C 67.433594 37.683594 66.851562 37.925781 66.429688 37.652344 C 65.027344 36.546875 64.644531 34.652344 63.464844 33.890625 C 64.066406 33.515625 64.734375 33.074219 65.121094 32.425781 C 65.453125 31.691406 65.460938 30.574219 64.839844 29.976562 C 64.332031 29.410156 63.316406 29.207031 62.144531 29.207031 L 58.933594 29.207031 C 58.273438 29.207031 59.1875 29.355469 59.1875 29.949219 C 59.304688 32.699219 59.199219 38.003906 59.199219 38.003906 L 61.367188 38.003906 C 61.375 37.792969 60.820312 37.78125 60.734375 37.441406 C 60.734375 37.441406 60.699219 34.503906 60.683594 34.320312 C 60.683594 34.121094 60.84375 34.121094 60.84375 34.121094 C 61.453125 34.089844 61.917969 34.011719 62.25 34.441406 C 62.582031 34.886719 63.925781 37.871094 65.726562 38.386719 C 65.953125 38.449219 66.1875 38.480469 66.425781 38.460938 C 67.074219 38.484375 67.691406 38.242188 68.234375 37.910156 C 70.398438 38.015625 72.800781 38.363281 74.570312 37.003906 C 76.445312 35.734375 76.398438 33.59375 75.941406 31.691406 M 60.941406 33.238281 C 60.785156 33.230469 60.722656 33.117188 60.722656 32.980469 L 60.722656 30.226562 C 61.71875 29.898438 63.25 29.871094 63.710938 30.628906 C 64.101562 31.246094 64.074219 32.496094 63.628906 32.925781 C 63.039062 33.4375 61.136719 33.269531 60.941406 33.238281 M 74 36.414062 C 72.925781 37.339844 70.484375 36.914062 69.007812 36.765625 L 69.007812 30.316406 C 69.605469 30.113281 69.96875 30.097656 71.03125 30.140625 C 72.164062 30.191406 73.6875 30.527344 74.28125 31.535156 C 74.957031 32.65625 75.171875 35.394531 74 36.414062 M 84.253906 37 C 82.71875 34.539062 81.632812 31.835938 80.570312 29.207031 L 78.445312 29.207031 L 78.398438 29.25 C 78.398438 29.324219 79.1875 29.539062 78.992188 30.574219 C 78.683594 32.121094 77.988281 33.832031 76.066406 37.671875 L 75.929688 37.980469 C 75.910156 37.996094 75.910156 38.003906 76.074219 38.003906 L 77.824219 38.003906 L 77.867188 37.964844 C 77.867188 37.804688 77.132812 37.804688 77.253906 37.238281 C 77.429688 36.613281 77.988281 35.492188 78.367188 34.613281 L 81.234375 34.613281 C 81.789062 35.648438 82.265625 36.753906 82.90625 37.71875 C 82.980469 37.804688 83.058594 37.929688 83.113281 37.980469 C 83.171875 38.015625 83.386719 38.003906 83.503906 38.003906 C 83.792969 38.015625 85.207031 38.003906 85.207031 38.003906 L 85.265625 37.964844 C 85.269531 37.820312 84.785156 37.792969 84.253906 37 M 78.652344 33.945312 C 79.367188 32.253906 79.613281 30.851562 79.613281 30.851562 C 80.105469 31.78125 80.902344 33.945312 80.902344 33.945312 Z M 22.621094 37.421875 L 22.585938 34.839844 C 23.976562 33.101562 25.34375 31.273438 25.929688 29.210938 L 24.410156 29.210938 C 23.746094 29.210938 24.660156 29.355469 24.660156 29.953125 C 24.542969 31.214844 23.320312 32.746094 22.242188 34.019531 L 19.386719 29.210938 L 17.246094 29.210938 L 17.195312 29.25 C 17.1875 29.417969 17.617188 29.355469 17.996094 29.898438 C 19.089844 31.503906 20.140625 33.199219 21.070312 34.910156 C 21.070312 35.808594 21.097656 38.003906 21.097656 38.003906 L 23.246094 38.003906 C 23.246094 37.707031 22.667969 37.757812 22.621094 37.421875 M 15.257812 29.355469 C 13.226562 28.980469 10.867188 29.261719 9.527344 30.617188 C 8.46875 31.667969 8 34.925781 9.476562 36.691406 L 9.464844 36.691406 L 9.488281 36.703125 L 9.609375 36.847656 C 9.664062 36.921875 9.707031 37.003906 9.695312 37.082031 C 9.40625 37.878906 8.355469 37.871094 8.011719 37.652344 C 6.621094 36.546875 6.222656 34.652344 5.042969 33.886719 C 5.652344 33.515625 6.3125 33.074219 6.699219 32.425781 C 7.03125 31.691406 7.046875 30.574219 6.421875 29.976562 C 5.914062 29.410156 4.894531 29.207031 3.722656 29.207031 L 0.511719 29.207031 C -0.152344 29.207031 0.765625 29.355469 0.765625 29.949219 C 0.875 32.699219 0.78125 38.003906 0.78125 38.003906 L 2.953125 38.003906 C 2.957031 37.792969 2.410156 37.78125 2.316406 37.441406 C 2.316406 37.441406 2.277344 34.503906 2.277344 34.316406 C 2.253906 34.117188 2.421875 34.117188 2.421875 34.117188 C 3.019531 34.089844 3.5 34.011719 3.832031 34.441406 C 4.160156 34.886719 5.503906 37.871094 7.308594 38.386719 C 8.386719 38.652344 9.539062 38.167969 10.328125 37.554688 L 10.4375 37.457031 C 11.949219 38.238281 14.179688 38.15625 15.625 37.3125 C 17.832031 36.039062 18.039062 33.316406 17.378906 31.160156 C 17.054688 30.09375 16.152344 29.5625 15.257812 29.355469 M 2.523438 33.238281 C 2.371094 33.230469 2.292969 33.117188 2.292969 32.980469 L 2.292969 30.226562 C 3.300781 29.898438 4.835938 29.871094 5.296875 30.628906 C 5.683594 31.246094 5.65625 32.496094 5.207031 32.925781 C 4.621094 33.4375 2.71875 33.269531 2.523438 33.238281 M 15.984375 36.050781 C 15.890625 36.175781 15.773438 36.273438 15.65625 36.339844 C 14.367188 37.199219 11.515625 36.703125 10.648438 35.5625 C 10.203125 34.917969 10.066406 33.960938 10.066406 33.074219 C 10.066406 32.394531 10.152344 31.554688 10.539062 30.921875 C 11.410156 29.558594 14.917969 30.15625 15.890625 31.402344 C 16.785156 32.722656 16.4375 35.453125 15.984375 36.050781 M 100.53125 16.082031 C 100.859375 16.773438 101.214844 17.410156 102.003906 17.65625 C 102.667969 17.871094 103.832031 17.363281 104.523438 14.785156 C 104.851562 15.328125 105.015625 15.765625 105.5 16.214844 C 107.65625 18.320312 109.308594 15.03125 111.242188 14.675781 C 111.476562 14.21875 111.601562 13.585938 111.632812 13.074219 C 110.957031 13.101562 110.332031 13.628906 109.535156 13.394531 C 109.308594 13.324219 109.039062 13.210938 109.023438 12.863281 C 109.347656 9.65625 108.769531 6.332031 106.535156 4.117188 C 105.523438 6.875 106.941406 9.722656 107.066406 12.503906 C 107.683594 10.554688 107.210938 8.535156 106.855469 6.652344 C 108.351562 8.703125 108.734375 11.207031 108.484375 13.898438 C 108.257812 15.359375 106.941406 15.277344 106.351562 14.859375 C 104.039062 13.050781 104.351562 9.40625 103.261719 7.257812 C 102.726562 8.316406 103.148438 9.480469 103.378906 10.5 C 103.6875 11.789062 104.664062 14.300781 103.285156 15.546875 C 102.398438 16.335938 101.429688 15.699219 101.101562 14.917969 C 100.25 12.863281 100.054688 10.6875 99.621094 8.46875 L 99.410156 8.289062 C 99.277344 8.765625 99.132812 9.339844 99.1875 9.890625 C 99.335938 10.914062 99.785156 13.554688 100.28125 15.277344 C 99.636719 16.828125 98.695312 17.054688 98.210938 16.960938 C 97.148438 16.488281 97.460938 15.242188 97.445312 14.347656 C 95.03125 15.691406 92.550781 17.132812 90.53125 17.738281 C 85.78125 19.167969 79.878906 20.269531 75.128906 18.019531 C 73.414062 17.179688 71.984375 15.523438 72.019531 13.53125 C 71.984375 13.320312 71.757812 13.207031 71.542969 13.238281 C 69.605469 13.945312 69.203125 16.070312 68.574219 17.710938 C 67.886719 19.488281 66.234375 18.285156 66.101562 17.59375 C 65.882812 14.980469 68.414062 13.355469 69.886719 11.664062 C 70.957031 10.445312 71.484375 9 71.632812 7.316406 C 70.804688 7.828125 69.640625 8.035156 68.738281 8.335938 C 68.195312 8.617188 68.25 9.601562 68.082031 10.164062 L 70.65625 9.367188 L 70.734375 9.339844 C 69.820312 11.792969 66.578125 12.609375 65.820312 15.335938 C 65.457031 16.707031 65.425781 18.875 66.488281 19.902344 C 66.925781 20.265625 67.75 20.617188 68.382812 20.238281 C 69.652344 18.996094 69.398438 17.214844 70.4375 15.890625 C 70.765625 15.484375 71.226562 14.9375 71.632812 15.089844 L 71.871094 16.335938 C 72.484375 18.78125 75.128906 20.152344 77.386719 20.648438 C 83.171875 21.597656 88.992188 20.253906 93.878906 17.863281 C 94.914062 17.375 95.773438 16.707031 96.785156 16.242188 C 96.863281 17.585938 97.347656 18.554688 98.164062 18.714844 C 98.769531 18.828125 99.710938 18.242188 100.53125 16.082031 M 101.195312 8.394531 C 101.601562 6.507812 101.542969 4.410156 101.78125 2.53125 L 101.566406 2.585938 L 101.429688 3.40625 C 101 6.828125 97.636719 7.863281 95.152344 9.621094 C 96.214844 9.359375 97.273438 9.046875 98.226562 8.691406 C 99.476562 8.222656 100.441406 7.113281 101.078125 6.140625 C 101.175781 6.761719 100.796875 7.585938 101.195312 8.394531 "/>
</g>
<path style=" stroke:none;fill-rule:nonzero;fill:rgb(34.178162%,36.289978%,38.858032%);fill-opacity:1;" d="M 149.59375 6.769531 C 149.59375 6.769531 148.632812 6.75 148 7.0625 C 148 7.0625 150.230469 7.660156 151.3125 10.246094 C 152.398438 7.660156 154.617188 7.0625 154.617188 7.0625 C 154.027344 6.75 153.019531 6.769531 153.019531 6.769531 C 152.925781 6.429688 152.550781 6.164062 152.550781 6.164062 C 152.84375 5.8125 153.425781 5.421875 153.425781 5.421875 L 151.3125 0.402344 L 149.203125 5.421875 C 149.203125 5.421875 149.78125 5.8125 150.070312 6.164062 C 150.070312 6.164062 149.691406 6.429688 149.59375 6.769531 M 136.222656 36.617188 C 136.285156 37.332031 136.308594 37.992188 136.308594 37.992188 L 166.222656 37.992188 C 166.222656 37.992188 166.25 37.367188 166.308594 36.707031 C 166.378906 35.980469 166.460938 35.414062 166.460938 35.414062 L 136.066406 35.414062 C 136.066406 35.414062 136.164062 36.015625 136.222656 36.617188 M 175.027344 19.4375 C 176.046875 19.097656 175.925781 17.96875 175.925781 17.96875 C 175.707031 16.652344 174.324219 16.839844 174.324219 16.839844 C 175.199219 15.8125 174.507812 15.015625 174.507812 15.015625 C 173.832031 14.171875 172.761719 14.714844 172.761719 14.714844 C 173.25 13.632812 172.605469 13.085938 172.605469 13.085938 C 171.753906 12.335938 170.863281 13.113281 170.863281 13.113281 C 170.835938 12.054688 170.074219 11.8125 170.074219 11.8125 C 169.175781 11.425781 168.511719 12.234375 168.511719 12.234375 C 167.855469 10.417969 166.558594 11.351562 166.246094 11.476562 C 165.941406 11.65625 165.910156 11.476562 165.910156 11.476562 C 165.851562 9.28125 163.984375 10.105469 163.984375 10.105469 C 164.492188 9.011719 163.605469 8.394531 163.605469 8.394531 C 162.648438 7.800781 161.847656 8.628906 161.847656 8.628906 C 161.75 7.183594 160.679688 7.613281 160.339844 7.738281 C 160.015625 7.8125 159.308594 7.839844 159.308594 7.839844 C 157.097656 7.566406 156.277344 7.691406 156.277344 7.691406 C 153.582031 7.636719 151.308594 12.109375 151.308594 12.109375 L 151.308594 12.148438 L 151.269531 12.109375 C 151.269531 12.109375 148.964844 7.636719 146.277344 7.691406 C 146.277344 7.691406 145.457031 7.566406 143.25 7.839844 C 143.25 7.839844 142.5625 7.8125 142.21875 7.738281 C 141.878906 7.613281 140.804688 7.183594 140.730469 8.628906 C 140.730469 8.628906 139.921875 7.800781 138.957031 8.394531 C 138.957031 8.394531 138.074219 9.011719 138.582031 10.105469 C 138.582031 10.105469 136.707031 9.28125 136.648438 11.476562 C 136.648438 11.476562 136.636719 11.65625 136.304688 11.476562 C 136.007812 11.351562 134.714844 10.417969 134.058594 12.234375 C 134.058594 12.234375 133.386719 11.425781 132.496094 11.8125 C 132.496094 11.8125 131.722656 12.054688 131.695312 13.113281 C 131.695312 13.113281 130.796875 12.335938 129.9375 13.085938 C 129.9375 13.085938 129.292969 13.632812 129.765625 14.714844 C 129.765625 14.714844 128.726562 14.171875 128.074219 15.015625 C 128.074219 15.015625 127.371094 15.8125 128.253906 16.839844 C 128.253906 16.839844 126.835938 16.652344 126.640625 17.96875 C 126.640625 17.96875 126.53125 19.097656 127.523438 19.4375 C 127.523438 19.4375 126.359375 19.984375 126.566406 20.921875 C 126.566406 20.921875 126.636719 21.851562 127.847656 22.03125 C 127.847656 22.03125 126.835938 22.703125 127.253906 23.640625 C 127.253906 23.640625 127.65625 24.734375 128.949219 24.417969 C 128.949219 24.417969 128.464844 25.550781 129.214844 26.054688 C 129.214844 26.054688 129.921875 26.660156 130.796875 26.066406 C 130.796875 26.066406 131.257812 25.898438 131.449219 26.226562 C 131.449219 26.226562 131.777344 26.753906 131.085938 27.535156 C 131.085938 27.535156 134.851562 27.214844 135.863281 33.285156 L 166.648438 33.285156 C 167.667969 27.214844 171.480469 27.535156 171.480469 27.535156 C 170.773438 26.753906 171.117188 26.226562 171.117188 26.226562 C 171.289062 25.898438 171.753906 26.066406 171.753906 26.066406 C 172.628906 26.660156 173.355469 26.054688 173.355469 26.054688 C 174.082031 25.550781 173.609375 24.417969 173.609375 24.417969 C 174.914062 24.734375 175.332031 23.640625 175.332031 23.640625 C 175.707031 22.703125 174.710938 22.03125 174.710938 22.03125 C 175.925781 21.851562 175.972656 20.921875 175.972656 20.921875 C 176.1875 19.984375 175.027344 19.4375 175.027344 19.4375 M 135.351562 28.472656 C 134.992188 28.21875 135.121094 27.929688 135.121094 27.929688 C 136.027344 26.972656 136.105469 26.425781 136.105469 26.425781 C 135.316406 25.824219 133.386719 25.980469 133.386719 25.980469 C 133.707031 24.640625 134.597656 23.726562 134.597656 23.726562 C 131.855469 22.445312 131.929688 19.636719 131.929688 19.636719 C 131.929688 14.582031 136.6875 14.660156 136.6875 14.660156 C 136.386719 15.652344 136.578125 16.589844 136.726562 16.992188 C 136.878906 17.363281 137.195312 17.777344 137.785156 19.585938 C 138.359375 21.375 137.960938 23.125 137.960938 23.125 C 139.996094 23.6875 140.886719 24.851562 140.886719 24.851562 C 139.726562 25.65625 139.726562 26.480469 139.726562 26.480469 C 140.707031 26.960938 141.988281 26.699219 141.988281 26.699219 C 141.894531 27.945312 140.570312 28.085938 140.570312 28.085938 C 138.929688 28.304688 137.691406 26.847656 137.691406 26.847656 C 137.632812 28.824219 135.75 28.714844 135.351562 28.472656 M 139.953125 32.363281 L 137.34375 31.398438 L 139.992188 30.195312 L 142.722656 31.113281 Z M 145.703125 31.980469 C 145.167969 31.980469 144.683594 31.542969 144.683594 30.980469 C 144.683594 30.445312 145.167969 30.003906 145.703125 30.003906 C 146.253906 30.003906 146.671875 30.445312 146.671875 30.980469 C 146.671875 31.542969 146.253906 31.980469 145.703125 31.980469 M 146.816406 26.074219 C 146.816406 26.074219 146.222656 27.664062 144.640625 27.757812 C 144.640625 27.757812 143.289062 27.820312 142.960938 26.503906 C 142.960938 26.503906 144.105469 26.207031 144.523438 25.410156 C 144.523438 25.410156 144.085938 24.5 142.441406 24.5 C 142.441406 24.5 142.425781 23.640625 144.433594 21.734375 C 144.433594 21.734375 143.085938 21.1875 141.8125 18.335938 C 140.539062 15.4375 141.554688 13.132812 141.890625 12.652344 C 142.226562 12.175781 142.976562 11.265625 144.046875 10.644531 C 144.046875 10.644531 144.839844 10.167969 145.75 10.070312 C 145.75 10.070312 146.398438 9.972656 147.054688 10.773438 C 147.6875 11.585938 148.449219 12.515625 148.835938 14.433594 C 148.835938 14.433594 149.203125 16.578125 148.992188 17.972656 C 148.792969 19.324219 148.566406 20.144531 147.765625 20.972656 C 147.765625 20.972656 149.785156 21.734375 150.75 23.238281 C 150.75 23.238281 149.15625 23.753906 148.835938 24.683594 C 148.835938 24.683594 149.214844 25.214844 150.664062 25.507812 C 150.664062 25.507812 150.605469 26.660156 149.234375 26.960938 C 149.234375 26.960938 147.609375 27.125 146.816406 26.074219 M 151.3125 31.980469 L 148.648438 30.910156 L 151.3125 29.832031 L 154.027344 30.910156 Z M 156.925781 31.980469 C 156.367188 31.980469 155.914062 31.542969 155.914062 30.980469 C 155.914062 30.40625 156.367188 29.972656 156.925781 29.972656 C 157.464844 29.972656 157.910156 30.40625 157.910156 30.980469 C 157.910156 31.542969 157.464844 31.980469 156.925781 31.980469 M 157.984375 27.757812 C 156.386719 27.664062 155.808594 26.074219 155.808594 26.074219 C 155.007812 27.125 153.359375 26.960938 153.359375 26.960938 C 152.035156 26.660156 151.941406 25.507812 151.941406 25.507812 C 153.402344 25.214844 153.777344 24.683594 153.777344 24.683594 C 153.441406 23.75 151.863281 23.238281 151.863281 23.238281 C 152.8125 21.734375 154.851562 20.972656 154.851562 20.972656 C 154.058594 20.144531 153.828125 19.324219 153.625 17.96875 C 153.417969 16.578125 153.777344 14.433594 153.777344 14.433594 C 154.191406 12.515625 154.914062 11.585938 155.539062 10.773438 C 156.210938 9.972656 156.878906 10.066406 156.878906 10.066406 C 157.765625 10.167969 158.570312 10.640625 158.570312 10.640625 C 159.632812 11.261719 160.386719 12.171875 160.734375 12.652344 C 161.050781 13.132812 162.078125 15.4375 160.800781 18.332031 C 159.511719 21.1875 158.195312 21.734375 158.195312 21.734375 C 160.175781 23.640625 160.167969 24.5 160.167969 24.5 C 158.53125 24.5 158.09375 25.40625 158.09375 25.40625 C 158.496094 26.207031 159.667969 26.503906 159.667969 26.503906 C 159.332031 27.820312 157.984375 27.757812 157.984375 27.757812 M 162.660156 32.363281 L 159.875 31.089844 L 162.613281 30.195312 L 165.238281 31.390625 Z M 168 23.640625 C 168 23.640625 168.902344 24.585938 169.226562 25.898438 C 169.226562 25.898438 167.277344 25.742188 166.5 26.347656 C 166.5 26.347656 166.558594 26.894531 167.464844 27.863281 C 167.464844 27.863281 167.628906 28.148438 167.230469 28.402344 C 166.859375 28.640625 164.96875 28.765625 164.902344 26.777344 C 164.902344 26.777344 163.6875 28.253906 162.023438 28.035156 C 162.023438 28.035156 160.710938 27.875 160.625 26.636719 C 160.625 26.636719 161.886719 26.886719 162.890625 26.417969 C 162.890625 26.417969 162.855469 25.601562 161.703125 24.796875 C 161.703125 24.796875 162.601562 23.632812 164.644531 23.082031 C 164.644531 23.082031 164.246094 21.3125 164.828125 19.523438 C 165.425781 17.726562 165.71875 17.300781 165.871094 16.910156 C 166.039062 16.535156 166.222656 15.597656 165.921875 14.601562 C 165.921875 14.601562 170.667969 14.503906 170.6875 19.582031 C 170.6875 19.585938 170.734375 22.410156 168 23.640625 "/>
<g clip-path="url(#clip2)" clip-rule="nonzero">
<path style=" stroke:none;fill-rule:nonzero;fill:rgb(62.734985%,49.534607%,24.023438%);fill-opacity:1;" d="M 48.023438 9.054688 C 48.671875 8.914062 49.492188 8.660156 49.859375 8.3125 C 50.210938 7.976562 50.53125 7.5 50.441406 6.980469 C 50.222656 6.386719 49.738281 7.328125 49.292969 7.089844 C 49.074219 6.929688 49.640625 6.386719 50.003906 6.496094 C 50.101562 6.386719 50.164062 6.21875 50.183594 6.074219 C 50.101562 5.980469 49.910156 5.957031 49.808594 6.019531 C 49.339844 6.285156 48.941406 6.691406 48.980469 7.339844 C 49.074219 8.066406 49.761719 7.183594 50.136719 7.398438 C 49.699219 8.21875 48.613281 8.5 48.023438 9.054688 M 84.226562 11.976562 C 84.09375 12.125 83.988281 12.308594 83.921875 12.464844 C 83.804688 12.71875 83.820312 13.183594 84.070312 13.34375 C 84.320312 13.488281 84.84375 13.382812 85.089844 12.867188 C 85.242188 12.929688 85.367188 12.984375 85.621094 12.882812 C 86.042969 12.699219 86.03125 12.023438 86.03125 11.589844 C 85.835938 11.746094 85.96875 12.089844 85.726562 12.257812 C 85.488281 12.394531 85.269531 12.136719 85.269531 11.949219 C 85.140625 12.15625 85.042969 12.527344 84.769531 12.671875 C 84.613281 12.75 84.367188 12.828125 84.214844 12.695312 C 83.988281 12.480469 84.292969 12.210938 84.226562 11.976562 M 91.449219 6.605469 C 87.238281 7.890625 82.730469 9.28125 78.324219 10.265625 L 77.875 11.363281 C 82.304688 10.125 86.84375 8.914062 91.089844 7.289062 Z M 32.917969 36.601562 C 31.382812 34.140625 30.304688 31.429688 29.238281 28.804688 L 27.113281 28.804688 L 27.0625 28.851562 C 27.0625 28.921875 27.851562 29.136719 27.652344 30.175781 C 27.355469 31.722656 26.648438 33.429688 24.75 37.273438 L 24.597656 37.578125 C 24.582031 37.597656 24.574219 37.605469 24.75 37.605469 L 26.480469 37.605469 L 26.542969 37.5625 C 26.542969 37.402344 25.808594 37.402344 25.925781 36.839844 C 26.097656 36.210938 26.648438 35.089844 27.050781 34.214844 L 29.90625 34.214844 C 30.453125 35.246094 30.9375 36.351562 31.589844 37.316406 C 31.652344 37.402344 31.722656 37.527344 31.773438 37.578125 C 31.839844 37.613281 32.054688 37.605469 32.175781 37.605469 C 32.445312 37.613281 33.882812 37.605469 33.882812 37.605469 L 33.9375 37.5625 C 33.9375 37.417969 33.457031 37.390625 32.917969 36.601562 M 27.328125 33.546875 C 28.03125 31.847656 28.28125 30.445312 28.28125 30.445312 C 28.785156 31.378906 29.570312 33.546875 29.570312 33.546875 Z M 26.03125 21.164062 C 26.800781 20.785156 27.652344 20.671875 28.460938 20.453125 C 29.101562 20.054688 29.191406 19.300781 29.421875 18.65625 C 28.683594 19.035156 27.792969 19.132812 26.992188 19.394531 C 26.210938 19.628906 26.257812 20.585938 26.03125 21.164062 M 33.488281 9.15625 C 33.09375 8.800781 32.523438 8.5 32.074219 8.292969 C 31.808594 8.691406 31.46875 9.191406 31.382812 9.71875 C 31.839844 10.101562 32.316406 10.3125 32.796875 10.601562 C 33.210938 10.050781 33.367188 9.5 33.488281 9.15625 M 12.78125 11.007812 C 16.699219 10.214844 20.550781 9.265625 24.320312 8.175781 C 24.742188 8.03125 25.757812 7.882812 25.691406 7.25 C 21.65625 8.332031 17.5 9.304688 13.261719 10.1875 L 13.015625 10.542969 C 12.933594 10.640625 12.621094 10.980469 12.78125 11.007812 M 38.472656 17.09375 L 38.515625 16.375 C 38.644531 14.925781 36.859375 14.339844 36.542969 13.0625 C 36.59375 12.671875 36.785156 12.339844 37.046875 12.03125 C 37.648438 11.472656 38.371094 11.273438 39.21875 11.527344 C 40.195312 11.832031 40.550781 12.792969 40.679688 13.726562 C 39.914062 17.175781 36.09375 18.835938 33.378906 20.253906 L 33.628906 20.230469 C 35.394531 20 36.625 19.742188 38.011719 19.246094 C 39.417969 18.726562 40.394531 17.125 40.867188 15.78125 C 41.425781 14.125 41.726562 11.71875 40.480469 10.28125 C 39.796875 9.613281 38.652344 9.320312 37.777344 9.753906 C 36.851562 10.15625 36.140625 11.125 36.03125 12.183594 C 35.789062 14.160156 36.929688 15.933594 38.472656 17.09375 M 39.808594 20.292969 C 41.21875 20.273438 43.421875 19.960938 44.214844 19.628906 C 45.667969 18.84375 46.164062 17.511719 46.496094 15.9375 C 46.777344 14.605469 46.390625 13.753906 47.285156 13.15625 C 47.65625 12.929688 47.503906 12.226562 47.589844 11.675781 C 47.539062 11.601562 47.441406 11.554688 47.363281 11.554688 C 46.296875 11.898438 46.363281 13.007812 46.242188 13.945312 C 45.703125 17.160156 42.875 19.207031 40.273438 20.097656 Z M 18.375 12.792969 C 18.507812 13.496094 19.460938 13.054688 19.78125 12.492188 C 19.851562 12.59375 19.929688 12.652344 20.0625 12.6875 C 20.199219 12.695312 20.425781 12.671875 20.578125 12.292969 C 20.675781 12.03125 20.722656 11.675781 20.550781 11.351562 L 20.488281 11.714844 C 20.457031 11.867188 20.320312 12.046875 20.09375 12.046875 C 19.882812 12.050781 19.925781 11.808594 19.894531 11.707031 C 19.644531 11.789062 19.726562 12.164062 19.277344 12.40625 C 19.105469 12.492188 18.820312 12.585938 18.703125 12.378906 C 18.59375 12.15625 18.78125 11.949219 18.808594 11.753906 C 18.515625 11.949219 18.335938 12.40625 18.375 12.792969 M 3.0625 20.007812 C 3.503906 19.917969 3.789062 19.679688 4.085938 19.089844 C 4.925781 17.332031 5.390625 15.144531 6.871094 14.8125 C 7.101562 14.996094 7.042969 15.359375 7.113281 15.671875 C 7.589844 18.050781 9.945312 19.152344 11.859375 19.570312 C 18.480469 20.875 24.789062 18.996094 29.847656 14.65625 L 29.925781 14.605469 C 29.640625 16.222656 30.644531 16.855469 31.410156 16.714844 C 32.460938 16.535156 32.886719 15.3125 33.246094 14.539062 C 33.46875 14.007812 33.621094 13.617188 33.734375 13.261719 C 33.824219 12.96875 33.90625 12.6875 33.949219 12.394531 L 33.707031 12.539062 C 33 13.089844 32.859375 14.039062 32.214844 14.65625 C 31.960938 14.878906 31.554688 15.039062 31.199219 14.9375 C 30.707031 14.765625 30.585938 14.34375 30.570312 13.902344 C 30.578125 13.503906 30.667969 13.101562 30.667969 12.859375 L 30.667969 12.625 C 26.613281 16.089844 21.820312 18.070312 16.441406 18.296875 C 13.160156 18.25 9.789062 17.917969 7.84375 15.160156 C 7.488281 14.554688 7.355469 13.839844 7.1875 13.171875 C 6.691406 12.976562 6.109375 13.445312 5.769531 13.773438 C 4.386719 15.039062 4.335938 16.953125 3.035156 18.210938 C 2.375 18.558594 1.265625 17.867188 1.277344 16.78125 C 1.308594 15.253906 2.34375 14.023438 3.566406 13.03125 C 5.464844 11.480469 7.054688 9.492188 7.40625 7.253906 C 6.523438 7.636719 5.445312 7.804688 4.484375 8.007812 C 3.9375 8.257812 3.855469 8.980469 3.6875 9.785156 C 4.472656 9.523438 5.417969 9.40625 6.292969 9.15625 L 6.300781 9.203125 C 5.480469 11.148438 3.433594 11.867188 2.015625 13.371094 C 0.628906 14.859375 0.273438 17.226562 1.09375 18.886719 C 1.578125 19.847656 2.195312 20.113281 3.0625 20.007812 M 95.863281 19.382812 C 95.144531 19.730469 94.226562 19.851562 93.433594 20.085938 C 92.6875 20.339844 92.664062 21.316406 92.429688 21.914062 C 93.144531 21.605469 93.984375 21.457031 94.761719 21.25 C 95.5 20.933594 95.566406 20.007812 95.863281 19.382812 M 97.335938 36.84375 C 97.28125 36.429688 97.226562 34.523438 97.207031 33.53125 L 97.226562 29.105469 L 97.179688 28.832031 C 97.089844 28.792969 96.890625 28.804688 96.777344 28.804688 L 95.074219 28.804688 L 95.011719 28.851562 C 95.011719 29.007812 95.558594 29.019531 95.617188 29.578125 C 95.679688 29.988281 95.730469 31.890625 95.75 32.875 L 95.738281 36.613281 C 95.730469 36.902344 95.730469 37.253906 95.730469 37.316406 C 95.730469 37.378906 95.730469 37.546875 95.804688 37.578125 C 95.863281 37.628906 96.074219 37.605469 96.183594 37.605469 L 97.894531 37.605469 L 97.945312 37.5625 C 97.945312 37.402344 97.402344 37.390625 97.335938 36.84375 M 108.808594 20.007812 L 108.90625 20.007812 C 110.675781 20.054688 112.285156 20.164062 113.886719 19.5 C 115.257812 18.738281 115.738281 17.492188 116.125 16.246094 C 117.179688 12.65625 116.125 8.933594 113.382812 6.496094 C 112.632812 8.777344 113.5625 11.121094 113.765625 13.335938 C 113.898438 14.101562 113.777344 14.96875 113.953125 15.703125 C 114.765625 13.382812 114.152344 11.132812 113.734375 9.007812 L 113.71875 8.855469 C 115.070312 10.585938 116.078125 12.207031 115.949219 14.300781 C 115.585938 18.003906 111.511719 18.9375 108.808594 20.007812 M 46.425781 28.804688 L 44.738281 28.804688 L 44.675781 28.851562 C 44.675781 29.007812 45.21875 29.019531 45.285156 29.578125 C 45.339844 29.988281 45.355469 31.890625 45.382812 32.875 L 45.382812 36.351562 C 45.382812 36.351562 45.359375 36.984375 45.148438 37.601562 C 44.878906 38.433594 43.570312 39.335938 42.597656 39.335938 C 41.15625 39.335938 39.34375 38.699219 40.117188 36.191406 C 39.875 36.109375 39.78125 36.460938 39.402344 36.605469 C 38.410156 36.949219 36.855469 36.933594 35.800781 36.605469 C 35.773438 35.476562 35.761719 34.480469 35.761719 33.339844 L 35.761719 29.105469 L 35.71875 28.832031 C 35.640625 28.789062 35.433594 28.804688 35.320312 28.804688 L 33.625 28.804688 L 33.558594 28.847656 C 33.558594 29.007812 34.101562 29.019531 34.171875 29.578125 C 34.203125 29.785156 34.222656 30.367188 34.25 31.019531 C 34.28125 33.1875 34.339844 35.519531 34.183594 37.601562 L 39.390625 37.601562 C 39.390625 37.601562 39.269531 39.039062 39.789062 39.667969 C 40.503906 40.523438 41.710938 40.507812 42.855469 40.183594 C 44.550781 39.667969 46.6875 38.242188 46.839844 36.46875 C 46.859375 35.503906 46.867188 34.515625 46.867188 33.53125 L 46.886719 29.101562 L 46.839844 28.832031 C 46.753906 28.792969 46.546875 28.804688 46.425781 28.804688 M 114.914062 28.851562 C 114.914062 29.007812 115.484375 29.058594 115.5625 29.441406 C 115.933594 31.425781 115.777344 35.796875 115.777344 35.796875 C 113.367188 33.785156 111.402344 31.332031 109.425781 28.886719 C 109.3125 28.777344 108.984375 28.804688 108.808594 28.804688 L 107.492188 28.804688 L 107.441406 28.851562 C 107.433594 29.019531 107.78125 28.996094 108.144531 29.441406 C 108.347656 29.703125 108.480469 30.007812 108.503906 30.277344 C 108.570312 31.195312 108.515625 31.859375 108.503906 32.914062 C 108.472656 33.964844 108.335938 37.207031 108.335938 37.316406 L 108.378906 37.578125 C 108.453125 37.628906 108.652344 37.601562 108.78125 37.601562 L 109.84375 37.601562 L 109.890625 37.5625 C 109.894531 37.398438 109.34375 37.390625 109.265625 36.839844 C 109.246094 36.554688 109.21875 35.519531 109.171875 34.585938 C 109.160156 33.371094 109.1875 32.441406 109.25 31.367188 C 111.269531 33.703125 115.847656 38.046875 116.152344 38.292969 C 116.347656 38.433594 116.371094 38.320312 116.371094 38.320312 C 116.578125 35.351562 116.464844 31.859375 116.652344 28.804688 L 114.972656 28.804688 Z M 106.90625 36.601562 C 105.355469 34.140625 104.277344 31.429688 103.222656 28.804688 L 101.09375 28.804688 L 101.039062 28.851562 C 101.039062 28.921875 101.820312 29.136719 101.617188 30.175781 C 101.332031 31.722656 100.617188 33.429688 98.714844 37.273438 L 98.5625 37.578125 C 98.558594 37.597656 98.550781 37.605469 98.726562 37.605469 L 100.464844 37.605469 L 100.523438 37.5625 C 100.523438 37.402344 99.777344 37.402344 99.902344 36.839844 C 100.070312 36.210938 100.621094 35.089844 101.007812 34.214844 L 103.886719 34.214844 C 104.4375 35.246094 104.917969 36.351562 105.5625 37.316406 C 105.621094 37.402344 105.703125 37.527344 105.753906 37.578125 C 105.820312 37.613281 106.03125 37.605469 106.152344 37.605469 C 106.429688 37.613281 107.851562 37.605469 107.851562 37.605469 L 107.902344 37.5625 C 107.902344 37.417969 107.433594 37.390625 106.90625 36.601562 M 101.289062 33.546875 C 102.011719 31.847656 102.253906 30.445312 102.253906 30.445312 C 102.761719 31.378906 103.539062 33.546875 103.539062 33.546875 Z M 60.613281 15.410156 C 61.058594 12.40625 59.804688 9.457031 58.175781 7.539062 C 57.878906 9.164062 58.097656 13.496094 58.457031 16.1875 C 59.375 14.222656 58.429688 12.214844 58.589844 10.15625 C 59.121094 10.945312 59.417969 11.734375 59.753906 12.625 C 60.292969 14.074219 59.941406 16.011719 58.789062 17.253906 C 58.082031 18.007812 57.078125 18.4375 56.148438 18.121094 C 55.792969 18.007812 55.488281 17.632812 55.488281 17.632812 C 55.488281 17.632812 55.730469 17.007812 56.023438 15.972656 C 56.554688 13.699219 56.160156 11.734375 54.667969 9.285156 C 53.441406 11.828125 53.195312 15.226562 54.191406 17.800781 C 53.164062 18.859375 51.835938 18.339844 51.566406 17.914062 C 52.898438 15.457031 52.621094 11.960938 51.03125 9.378906 C 49.871094 11.683594 49.433594 15.007812 50.28125 17.882812 C 48.972656 19.089844 47.367188 19.742188 45.84375 20.476562 C 47.800781 20.359375 49.46875 20.210938 50.851562 19.152344 C 51.347656 19.722656 51.941406 20.179688 52.703125 20.179688 C 53.613281 20.179688 54.410156 19.582031 54.882812 19.152344 C 55.902344 20.222656 57.382812 20.066406 58.058594 19.671875 C 59.628906 18.765625 60.367188 17.046875 60.613281 15.410156 M 50.96875 16.980469 C 50.101562 15.53125 50.304688 13.335938 50.96875 11.847656 C 51.746094 13.289062 52.3125 15.578125 50.96875 16.980469 M 54.632812 11.894531 C 55.503906 13.183594 56.058594 15.1875 54.886719 16.875 C 53.929688 15.648438 54.15625 13.445312 54.632812 11.894531 M 92.039062 28.851562 C 92.027344 29.007812 92.605469 29.058594 92.675781 29.441406 C 93.058594 31.425781 92.898438 35.796875 92.898438 35.796875 C 90.480469 33.785156 88.519531 31.332031 86.539062 28.886719 C 86.417969 28.777344 86.101562 28.804688 85.914062 28.804688 L 84.613281 28.804688 L 84.554688 28.851562 C 84.546875 29.019531 84.894531 28.996094 85.269531 29.441406 C 85.46875 29.703125 85.609375 30.007812 85.621094 30.277344 C 85.679688 31.195312 85.644531 31.859375 85.609375 32.914062 C 85.59375 33.964844 85.453125 37.207031 85.453125 37.316406 L 85.5 37.578125 C 85.558594 37.628906 85.777344 37.601562 85.890625 37.601562 L 86.960938 37.601562 L 87.003906 37.5625 C 87.003906 37.398438 86.460938 37.390625 86.394531 36.839844 C 86.359375 36.554688 86.324219 35.519531 86.296875 34.585938 C 86.261719 33.371094 86.300781 32.441406 86.363281 31.367188 C 88.382812 33.703125 92.957031 38.046875 93.265625 38.292969 C 93.46875 38.433594 93.476562 38.320312 93.476562 38.320312 C 93.691406 35.351562 93.582031 31.859375 93.773438 28.804688 L 92.09375 28.804688 Z M 55.070312 28.953125 C 53.039062 28.578125 50.683594 28.863281 49.347656 30.210938 C 48.101562 31.4375 47.679688 35.648438 50.152344 37 C 51.652344 37.839844 53.976562 37.773438 55.445312 36.910156 C 57.640625 35.636719 57.84375 32.917969 57.195312 30.757812 C 56.859375 29.691406 55.976562 29.164062 55.070312 28.953125 M 55.746094 35.648438 C 55.636719 35.777344 55.546875 35.871094 55.417969 35.9375 C 54.121094 36.800781 51.265625 36.308594 50.394531 35.160156 C 49.960938 34.519531 49.820312 33.558594 49.832031 32.675781 C 49.824219 32 49.910156 31.152344 50.304688 30.523438 C 51.15625 29.15625 54.679688 29.753906 55.636719 31.007812 C 56.535156 32.320312 56.195312 35.046875 55.746094 35.648438 M 75.671875 31.292969 C 74.839844 28.40625 71.082031 28.808594 68.027344 28.808594 L 66.945312 28.808594 C 66.347656 28.808594 67.066406 28.921875 67.203125 29.40625 C 67.289062 32.882812 67.207031 35.722656 67.207031 35.722656 C 67.203125 36.027344 67.203125 36.328125 67.203125 36.632812 C 67.167969 37.285156 66.585938 37.527344 66.15625 37.253906 C 64.761719 36.144531 64.378906 34.25 63.199219 33.484375 C 63.796875 33.117188 64.46875 32.675781 64.855469 32.023438 C 65.179688 31.292969 65.195312 30.175781 64.574219 29.578125 C 64.066406 29.007812 63.050781 28.804688 61.875 28.804688 L 58.664062 28.804688 C 58.003906 28.804688 58.917969 28.953125 58.917969 29.550781 C 59.039062 32.296875 58.929688 37.605469 58.929688 37.605469 L 61.097656 37.605469 C 61.113281 37.390625 60.550781 37.375 60.464844 37.039062 C 60.464844 37.039062 60.433594 34.105469 60.421875 33.921875 C 60.421875 33.71875 60.578125 33.71875 60.578125 33.71875 C 61.183594 33.6875 61.644531 33.617188 61.984375 34.046875 C 62.3125 34.480469 63.660156 37.472656 65.460938 37.992188 C 65.683594 38.050781 65.917969 38.074219 66.15625 38.0625 C 66.804688 38.082031 67.425781 37.84375 67.96875 37.511719 C 70.132812 37.617188 72.527344 37.964844 74.304688 36.601562 C 76.175781 35.335938 76.121094 33.199219 75.671875 31.292969 M 60.671875 32.835938 C 60.515625 32.828125 60.453125 32.714844 60.453125 32.582031 L 60.453125 29.832031 C 61.453125 29.5 62.976562 29.472656 63.4375 30.226562 C 63.832031 30.84375 63.804688 32.089844 63.359375 32.519531 C 62.773438 33.035156 60.859375 32.871094 60.671875 32.835938 M 73.734375 36.015625 C 72.660156 36.9375 70.214844 36.511719 68.738281 36.367188 L 68.738281 29.914062 C 69.339844 29.710938 69.703125 29.695312 70.757812 29.742188 C 71.894531 29.789062 73.421875 30.128906 74.011719 31.132812 C 74.6875 32.257812 74.902344 34.996094 73.734375 36.015625 M 83.988281 36.601562 C 82.449219 34.140625 81.359375 31.429688 80.304688 28.804688 L 78.175781 28.804688 L 78.128906 28.851562 C 78.128906 28.921875 78.921875 29.136719 78.722656 30.175781 C 78.414062 31.722656 77.722656 33.429688 75.800781 37.273438 L 75.664062 37.578125 C 75.640625 37.597656 75.640625 37.605469 75.808594 37.605469 L 77.558594 37.605469 L 77.59375 37.5625 C 77.59375 37.402344 76.867188 37.402344 76.984375 36.839844 C 77.160156 36.210938 77.722656 35.089844 78.101562 34.214844 L 80.96875 34.214844 C 81.519531 35.246094 82 36.351562 82.636719 37.316406 C 82.714844 37.402344 82.789062 37.527344 82.847656 37.578125 C 82.90625 37.613281 83.117188 37.605469 83.238281 37.605469 C 83.523438 37.613281 84.9375 37.605469 84.9375 37.605469 L 85 37.5625 C 85.003906 37.417969 84.519531 37.390625 83.988281 36.601562 M 78.382812 33.546875 C 79.101562 31.847656 79.34375 30.445312 79.34375 30.445312 C 79.839844 31.378906 80.636719 33.546875 80.636719 33.546875 Z M 22.355469 37.019531 L 22.320312 34.4375 C 23.714844 32.703125 25.078125 30.867188 25.664062 28.804688 L 24.144531 28.804688 C 23.480469 28.804688 24.394531 28.953125 24.394531 29.550781 C 24.277344 30.8125 23.050781 32.339844 21.972656 33.621094 L 19.121094 28.804688 L 16.976562 28.804688 L 16.929688 28.851562 C 16.917969 29.019531 17.34375 28.953125 17.734375 29.5 C 18.820312 31.105469 19.871094 32.792969 20.804688 34.511719 C 20.804688 35.40625 20.832031 37.605469 20.832031 37.605469 L 22.976562 37.605469 C 22.976562 37.304688 22.394531 37.359375 22.355469 37.019531 M 14.988281 28.953125 C 12.957031 28.578125 10.601562 28.863281 9.257812 30.210938 C 8.195312 31.265625 7.730469 34.527344 9.207031 36.296875 L 9.199219 36.296875 L 9.222656 36.308594 L 9.34375 36.449219 C 9.398438 36.519531 9.4375 36.609375 9.425781 36.679688 C 9.136719 37.476562 8.085938 37.472656 7.742188 37.253906 C 6.351562 36.144531 5.957031 34.25 4.773438 33.484375 C 5.382812 33.117188 6.050781 32.675781 6.433594 32.023438 C 6.765625 31.292969 6.78125 30.175781 6.148438 29.578125 C 5.648438 29.007812 4.628906 28.808594 3.453125 28.808594 L 0.238281 28.808594 C -0.417969 28.808594 0.492188 28.953125 0.492188 29.550781 C 0.609375 32.296875 0.515625 37.605469 0.515625 37.605469 L 2.679688 37.605469 C 2.6875 37.390625 2.144531 37.378906 2.050781 37.039062 C 2.050781 37.039062 2.011719 34.105469 2.011719 33.921875 C 1.988281 33.71875 2.15625 33.71875 2.15625 33.71875 C 2.753906 33.6875 3.230469 33.617188 3.566406 34.046875 C 3.890625 34.484375 5.238281 37.472656 7.039062 37.992188 C 8.117188 38.257812 9.273438 37.769531 10.0625 37.152344 L 10.167969 37.058594 C 11.679688 37.839844 13.910156 37.757812 15.351562 36.914062 C 17.5625 35.640625 17.773438 32.917969 17.109375 30.761719 C 16.785156 29.691406 15.886719 29.164062 14.988281 28.953125 M 2.253906 32.835938 C 2.101562 32.828125 2.027344 32.714844 2.027344 32.582031 L 2.027344 29.832031 C 3.035156 29.5 4.570312 29.472656 5.027344 30.226562 C 5.417969 30.84375 5.390625 32.089844 4.945312 32.519531 C 4.355469 33.035156 2.449219 32.871094 2.253906 32.835938 M 15.714844 35.648438 C 15.621094 35.777344 15.511719 35.871094 15.378906 35.9375 C 14.097656 36.800781 11.246094 36.308594 10.375 35.160156 C 9.933594 34.519531 9.796875 33.558594 9.800781 32.675781 C 9.800781 32 9.882812 31.152344 10.265625 30.523438 C 11.136719 29.15625 14.648438 29.753906 15.621094 31.007812 C 16.519531 32.320312 16.167969 35.046875 15.714844 35.648438 M 100.257812 15.683594 C 100.59375 16.375 100.945312 17.007812 101.738281 17.257812 C 102.402344 17.472656 103.566406 16.960938 104.257812 14.386719 C 104.585938 14.925781 104.75 15.367188 105.234375 15.816406 C 107.390625 17.917969 109.039062 14.625 110.976562 14.277344 C 111.210938 13.820312 111.335938 13.183594 111.367188 12.675781 C 110.6875 12.695312 110.0625 13.230469 109.265625 12.996094 C 109.039062 12.921875 108.773438 12.8125 108.757812 12.464844 C 109.078125 9.253906 108.503906 5.933594 106.265625 3.71875 C 105.257812 6.476562 106.671875 9.328125 106.796875 12.105469 C 107.417969 10.15625 106.941406 8.136719 106.582031 6.253906 C 108.085938 8.304688 108.46875 10.8125 108.21875 13.496094 C 107.988281 14.957031 106.675781 14.878906 106.082031 14.460938 C 103.773438 12.652344 104.085938 9.007812 102.996094 6.859375 C 102.457031 7.917969 102.882812 9.078125 103.113281 10.101562 C 103.421875 11.386719 104.398438 13.902344 103.011719 15.148438 C 102.128906 15.9375 101.164062 15.300781 100.828125 14.519531 C 99.980469 12.464844 99.789062 10.289062 99.347656 8.066406 L 99.140625 7.890625 C 99.011719 8.371094 98.863281 8.941406 98.921875 9.492188 C 99.070312 10.519531 99.519531 13.15625 100.011719 14.878906 C 99.371094 16.433594 98.425781 16.65625 97.945312 16.5625 C 96.882812 16.089844 97.195312 14.839844 97.179688 13.949219 C 94.761719 15.292969 92.28125 16.738281 90.265625 17.339844 C 85.511719 18.765625 79.613281 19.871094 74.859375 17.621094 C 73.148438 16.78125 71.714844 15.128906 71.75 13.128906 C 71.714844 12.925781 71.488281 12.8125 71.277344 12.839844 C 69.339844 13.546875 68.929688 15.675781 68.304688 17.3125 C 67.617188 19.089844 65.964844 17.882812 65.832031 17.195312 C 65.609375 14.578125 68.148438 12.957031 69.617188 11.269531 C 70.6875 10.046875 71.21875 8.601562 71.363281 6.921875 C 70.539062 7.429688 69.371094 7.636719 68.46875 7.9375 C 67.921875 8.21875 67.980469 9.203125 67.8125 9.769531 L 70.390625 8.96875 L 70.464844 8.941406 C 69.550781 11.394531 66.304688 12.214844 65.550781 14.941406 C 65.183594 16.308594 65.160156 18.476562 66.210938 19.503906 C 66.65625 19.871094 67.480469 20.222656 68.113281 19.84375 C 69.382812 18.597656 69.128906 16.816406 70.167969 15.492188 C 70.496094 15.085938 70.949219 14.539062 71.363281 14.695312 L 71.59375 15.9375 C 72.21875 18.386719 74.859375 19.757812 77.117188 20.253906 C 82.90625 21.199219 88.722656 19.851562 93.609375 17.46875 C 94.636719 16.980469 95.503906 16.308594 96.515625 15.84375 C 96.59375 17.1875 97.070312 18.15625 97.894531 18.320312 C 98.5 18.429688 99.445312 17.839844 100.257812 15.683594 M 100.925781 7.996094 C 101.332031 6.105469 101.273438 4.007812 101.507812 2.128906 L 101.296875 2.183594 L 101.164062 3.007812 C 100.734375 6.425781 97.371094 7.464844 94.886719 9.222656 C 95.941406 8.960938 97.003906 8.648438 97.957031 8.292969 C 99.207031 7.824219 100.171875 6.710938 100.8125 5.738281 C 100.910156 6.363281 100.527344 7.1875 100.925781 7.996094 "/>
</g>
<path style=" stroke:none;fill-rule:nonzero;fill:rgb(62.734985%,49.534607%,24.023438%);fill-opacity:1;" d="M 149.324219 6.367188 C 149.324219 6.367188 148.363281 6.347656 147.730469 6.660156 C 147.730469 6.660156 149.964844 7.257812 151.042969 9.84375 C 152.132812 7.257812 154.351562 6.660156 154.351562 6.660156 C 153.757812 6.347656 152.753906 6.367188 152.753906 6.367188 C 152.65625 6.027344 152.277344 5.761719 152.277344 5.761719 C 152.574219 5.410156 153.15625 5.023438 153.15625 5.023438 L 151.042969 0.00390625 L 148.9375 5.023438 C 148.9375 5.023438 149.515625 5.410156 149.804688 5.761719 C 149.804688 5.761719 149.414062 6.027344 149.324219 6.367188 M 135.953125 36.214844 C 136.015625 36.933594 136.035156 37.589844 136.035156 37.589844 L 165.957031 37.589844 C 165.957031 37.589844 165.984375 36.96875 166.042969 36.304688 C 166.113281 35.585938 166.1875 35.007812 166.1875 35.007812 L 135.800781 35.007812 C 135.800781 35.007812 135.898438 35.617188 135.953125 36.214844 M 174.761719 19.039062 C 175.773438 18.695312 175.652344 17.566406 175.652344 17.566406 C 175.433594 16.25 174.058594 16.4375 174.058594 16.4375 C 174.929688 15.414062 174.238281 14.617188 174.238281 14.617188 C 173.5625 13.769531 172.496094 14.3125 172.496094 14.3125 C 172.980469 13.230469 172.339844 12.6875 172.339844 12.6875 C 171.480469 11.933594 170.59375 12.714844 170.59375 12.714844 C 170.570312 11.65625 169.804688 11.414062 169.804688 11.414062 C 168.902344 11.023438 168.246094 11.835938 168.246094 11.835938 C 167.585938 10.019531 166.289062 10.949219 165.980469 11.078125 C 165.671875 11.253906 165.644531 11.078125 165.644531 11.078125 C 165.585938 8.882812 163.714844 9.707031 163.714844 9.707031 C 164.226562 8.609375 163.34375 7.992188 163.34375 7.992188 C 162.382812 7.398438 161.582031 8.230469 161.582031 8.230469 C 161.484375 6.78125 160.40625 7.210938 160.070312 7.339844 C 159.742188 7.410156 159.042969 7.4375 159.042969 7.4375 C 156.824219 7.164062 156.011719 7.292969 156.011719 7.292969 C 153.3125 7.238281 151.042969 11.707031 151.042969 11.707031 L 151.042969 11.746094 L 151.003906 11.707031 C 151.003906 11.707031 148.699219 7.238281 146.011719 7.292969 C 146.011719 7.292969 145.1875 7.164062 142.980469 7.4375 C 142.980469 7.4375 142.292969 7.410156 141.953125 7.339844 C 141.613281 7.210938 140.539062 6.78125 140.460938 8.230469 C 140.460938 8.230469 139.652344 7.398438 138.691406 7.992188 C 138.691406 7.992188 137.808594 8.609375 138.3125 9.707031 C 138.3125 9.707031 136.4375 8.882812 136.378906 11.078125 C 136.378906 11.078125 136.371094 11.253906 136.035156 11.078125 C 135.742188 10.949219 134.449219 10.019531 133.789062 11.835938 C 133.789062 11.835938 133.121094 11.023438 132.230469 11.414062 C 132.230469 11.414062 131.453125 11.65625 131.429688 12.714844 C 131.429688 12.714844 130.53125 11.933594 129.671875 12.6875 C 129.671875 12.6875 129.023438 13.230469 129.5 14.3125 C 129.5 14.3125 128.457031 13.769531 127.804688 14.617188 C 127.804688 14.617188 127.101562 15.414062 127.992188 16.4375 C 127.992188 16.4375 126.570312 16.25 126.367188 17.566406 C 126.367188 17.566406 126.257812 18.695312 127.253906 19.039062 C 127.253906 19.039062 126.089844 19.582031 126.300781 20.519531 C 126.300781 20.519531 126.367188 21.449219 127.578125 21.628906 C 127.578125 21.628906 126.566406 22.300781 126.984375 23.238281 C 126.984375 23.238281 127.386719 24.339844 128.683594 24.019531 C 128.683594 24.019531 128.199219 25.148438 128.949219 25.65625 C 128.949219 25.65625 129.660156 26.261719 130.53125 25.664062 C 130.53125 25.664062 130.992188 25.496094 131.183594 25.824219 C 131.183594 25.824219 131.511719 26.355469 130.816406 27.132812 C 130.816406 27.132812 134.582031 26.808594 135.597656 32.882812 L 166.382812 32.882812 C 167.402344 26.808594 171.214844 27.132812 171.214844 27.132812 C 170.503906 26.355469 170.851562 25.824219 170.851562 25.824219 C 171.023438 25.496094 171.484375 25.664062 171.484375 25.664062 C 172.363281 26.261719 173.089844 25.65625 173.089844 25.65625 C 173.816406 25.148438 173.335938 24.019531 173.335938 24.019531 C 174.648438 24.339844 175.066406 23.238281 175.066406 23.238281 C 175.4375 22.300781 174.445312 21.628906 174.445312 21.628906 C 175.652344 21.449219 175.707031 20.519531 175.707031 20.519531 C 175.917969 19.582031 174.761719 19.039062 174.761719 19.039062 M 135.085938 28.074219 C 134.726562 27.8125 134.847656 27.527344 134.847656 27.527344 C 135.757812 26.574219 135.835938 26.027344 135.835938 26.027344 C 135.046875 25.417969 133.121094 25.578125 133.121094 25.578125 C 133.441406 24.238281 134.332031 23.324219 134.332031 23.324219 C 131.589844 22.042969 131.660156 19.238281 131.660156 19.238281 C 131.660156 14.179688 136.417969 14.261719 136.417969 14.261719 C 136.117188 15.253906 136.308594 16.1875 136.457031 16.589844 C 136.609375 16.964844 136.929688 17.375 137.515625 19.183594 C 138.089844 20.972656 137.691406 22.71875 137.691406 22.71875 C 139.71875 23.285156 140.613281 24.449219 140.613281 24.449219 C 139.460938 25.257812 139.460938 26.078125 139.460938 26.078125 C 140.433594 26.554688 141.714844 26.300781 141.714844 26.300781 C 141.625 27.542969 140.300781 27.6875 140.300781 27.6875 C 138.660156 27.90625 137.417969 26.445312 137.417969 26.445312 C 137.367188 28.425781 135.484375 28.316406 135.085938 28.074219 M 139.679688 31.964844 L 137.074219 31 L 139.71875 29.792969 L 142.453125 30.707031 Z M 145.433594 31.582031 C 144.894531 31.582031 144.417969 31.136719 144.417969 30.585938 C 144.417969 30.046875 144.894531 29.605469 145.433594 29.605469 C 145.988281 29.605469 146.402344 30.046875 146.402344 30.585938 C 146.402344 31.136719 145.988281 31.582031 145.433594 31.582031 M 146.546875 25.675781 C 146.546875 25.675781 145.957031 27.257812 144.367188 27.359375 C 144.367188 27.359375 143.019531 27.421875 142.691406 26.105469 C 142.691406 26.105469 143.835938 25.804688 144.257812 25.011719 C 144.257812 25.011719 143.820312 24.097656 142.175781 24.097656 C 142.175781 24.097656 142.15625 23.242188 144.164062 21.328125 C 144.164062 21.328125 142.816406 20.785156 141.542969 17.929688 C 140.269531 15.039062 141.285156 12.730469 141.625 12.253906 C 141.957031 11.773438 142.707031 10.863281 143.777344 10.242188 C 143.777344 10.242188 144.574219 9.765625 145.480469 9.667969 C 145.480469 9.667969 146.128906 9.574219 146.792969 10.371094 C 147.421875 11.183594 148.183594 12.117188 148.570312 14.035156 C 148.570312 14.035156 148.9375 16.175781 148.726562 17.566406 C 148.53125 18.925781 148.300781 19.746094 147.5 20.570312 C 147.5 20.570312 149.515625 21.328125 150.480469 22.835938 C 150.480469 22.835938 148.890625 23.351562 148.570312 24.285156 C 148.570312 24.285156 148.949219 24.8125 150.402344 25.109375 C 150.402344 25.109375 150.335938 26.261719 148.960938 26.554688 C 148.960938 26.554688 147.347656 26.726562 146.546875 25.675781 M 151.042969 31.582031 L 148.378906 30.507812 L 151.042969 29.429688 L 153.757812 30.507812 Z M 156.660156 31.582031 C 156.105469 31.582031 155.648438 31.136719 155.648438 30.585938 C 155.648438 30.007812 156.105469 29.574219 156.660156 29.574219 C 157.195312 29.574219 157.636719 30.007812 157.636719 30.585938 C 157.636719 31.136719 157.195312 31.582031 156.660156 31.582031 M 157.707031 27.359375 C 156.117188 27.257812 155.535156 25.675781 155.535156 25.675781 C 154.738281 26.726562 153.09375 26.554688 153.09375 26.554688 C 151.765625 26.261719 151.675781 25.105469 151.675781 25.105469 C 153.132812 24.8125 153.511719 24.285156 153.511719 24.285156 C 153.175781 23.351562 151.589844 22.835938 151.589844 22.835938 C 152.546875 21.328125 154.585938 20.570312 154.585938 20.570312 C 153.789062 19.742188 153.5625 18.925781 153.355469 17.566406 C 153.148438 16.175781 153.511719 14.035156 153.511719 14.035156 C 153.917969 12.117188 154.648438 11.183594 155.273438 10.371094 C 155.945312 9.570312 156.613281 9.667969 156.613281 9.667969 C 157.5 9.765625 158.300781 10.242188 158.300781 10.242188 C 159.359375 10.863281 160.117188 11.773438 160.464844 12.25 C 160.78125 12.730469 161.8125 15.039062 160.527344 17.929688 C 159.246094 20.785156 157.925781 21.328125 157.925781 21.328125 C 159.910156 23.238281 159.898438 24.097656 159.898438 24.097656 C 158.261719 24.097656 157.828125 25.007812 157.828125 25.007812 C 158.230469 25.804688 159.402344 26.105469 159.402344 26.105469 C 159.0625 27.421875 157.707031 27.359375 157.707031 27.359375 M 162.386719 31.964844 L 159.609375 30.6875 L 162.347656 29.792969 L 164.964844 30.988281 Z M 167.734375 23.238281 C 167.734375 23.238281 168.632812 24.183594 168.960938 25.496094 C 168.960938 25.496094 167.011719 25.34375 166.230469 25.949219 C 166.230469 25.949219 166.289062 26.488281 167.191406 27.460938 C 167.191406 27.460938 167.363281 27.75 166.964844 28 C 166.589844 28.242188 164.703125 28.367188 164.636719 26.378906 C 164.636719 26.378906 163.414062 27.855469 161.753906 27.636719 C 161.753906 27.636719 160.441406 27.476562 160.359375 26.242188 C 160.359375 26.242188 161.621094 26.484375 162.625 26.019531 C 162.625 26.019531 162.582031 25.203125 161.4375 24.398438 C 161.4375 24.398438 162.332031 23.234375 164.378906 22.683594 C 164.378906 22.683594 163.972656 20.910156 164.558594 19.125 C 165.160156 17.328125 165.453125 16.898438 165.605469 16.511719 C 165.773438 16.136719 165.957031 15.199219 165.652344 14.203125 C 165.652344 14.203125 170.398438 14.105469 170.417969 19.183594 C 170.417969 19.183594 170.464844 22.011719 167.734375 23.238281 "/>
</g>
</svg>
