<svg xmlns="http://www.w3.org/2000/svg" width="176pt" height="54.387" viewBox="0 0 176 40.79"><defs><clipPath id="a"><path d="M0 2h117v38.79H0Zm0 0"/></clipPath><clipPath id="b"><path d="M0 2h117v38.79H0Zm0 0"/></clipPath></defs><g clip-path="url(#a)"><path d="M48.29 9.457c.655-.145 1.472-.395 1.831-.746.356-.332.676-.813.594-1.332-.219-.59-.703.348-1.153.113-.222-.16.344-.703.704-.594a.8.8 0 0 0 .187-.425c-.082-.09-.273-.11-.375-.051-.473.266-.871.668-.828 1.316.09.73.777-.152 1.148.063-.433.816-1.515 1.101-2.109 1.656m36.203 2.922a1.8 1.8 0 0 0-.3.488c-.118.25-.098.719.14.875.258.149.781.043 1.027-.472.153.062.278.117.528.015.425-.18.41-.86.41-1.289-.195.152-.059.496-.305.664-.238.133-.453-.12-.453-.308-.133.207-.23.578-.508.722-.148.078-.394.156-.547.028-.23-.223.079-.489.008-.723m7.227-5.375c-4.211 1.285-8.723 2.68-13.125 3.664l-.45 1.094c4.43-1.235 8.961-2.45 13.215-4.07ZM33.188 37c-1.532-2.46-2.614-5.164-3.68-7.793h-2.125l-.051.043c0 .074.79.29.59 1.324-.297 1.547-1.004 3.258-2.906 7.098l-.145.308c-.023.016-.023.024.145.024h1.734l.063-.04c0-.16-.739-.16-.618-.726.172-.625.723-1.746 1.117-2.625h2.868c.543 1.035 1.023 2.14 1.675 3.106.063.086.133.21.188.261.066.036.281.024.398.024.274.012 1.715 0 1.715 0l.047-.04c0-.144-.473-.171-1.016-.964m-5.585-3.055c.695-1.691.949-3.093.949-3.093.504.93 1.289 3.093 1.289 3.093Zm-1.305-12.379c.773-.378 1.625-.492 2.43-.714.644-.395.734-1.149.964-1.797-.738.379-1.632.48-2.43.738-.784.234-.738 1.195-.964 1.773m7.457-12.015c-.395-.352-.965-.649-1.414-.86-.258.403-.606.895-.684 1.426.457.383.934.594 1.41.887.41-.555.567-1.106.688-1.453M13.05 11.406A145 145 0 0 0 24.59 8.578c.418-.144 1.437-.297 1.37-.926a224 224 0 0 1-12.429 2.934l-.246.36c-.078.097-.39.437-.234.46m25.691 6.09.04-.723c.136-1.445-1.65-2.03-1.97-3.308.055-.39.235-.727.504-1.035.598-.555 1.325-.754 2.172-.5.977.304 1.328 1.265 1.461 2.195-.77 3.45-4.59 5.113-7.3 6.527l.253-.02c1.754-.234 2.993-.491 4.38-.984 1.402-.52 2.378-2.125 2.855-3.464.558-1.657.855-4.063-.387-5.5-.684-.672-1.828-.961-2.707-.532-.922.403-1.629 1.375-1.742 2.434-.246 1.976.898 3.75 2.441 4.91m1.336 3.195c1.414-.02 3.61-.328 4.402-.664 1.454-.785 1.954-2.113 2.286-3.691.277-1.332-.106-2.18.789-2.781.375-.223.218-.93.304-1.48a.3.3 0 0 0-.226-.122c-1.063.348-1 1.457-1.125 2.395-.54 3.214-3.363 5.261-5.965 6.152Zm-21.433-7.496c.132.703 1.082.262 1.406-.3.07.097.148.156.277.19.137.017.367-.01.516-.394.101-.261.144-.617-.028-.945l-.062.371a.406.406 0 0 1-.395.332c-.21.004-.164-.238-.199-.34-.25.079-.168.457-.617.7-.172.086-.453.175-.578-.028-.102-.226.082-.43.11-.625-.29.196-.47.653-.43 1.04m-15.313 7.21c.438-.086.73-.324 1.023-.918.84-1.758 1.301-3.941 2.782-4.277.23.187.172.547.246.863.476 2.38 2.824 3.48 4.746 3.895 6.617 1.312 12.93-.57 17.992-4.91l.074-.055c-.285 1.617.715 2.25 1.485 2.113 1.047-.183 1.472-1.402 1.832-2.18.222-.53.379-.917.488-1.273.094-.293.172-.578.219-.871l-.242.145c-.707.55-.852 1.503-1.493 2.12-.254.22-.656.38-1.02.282-.491-.172-.609-.598-.628-1.04.012-.398.094-.796.094-1.042v-.23c-4.047 3.46-8.84 5.445-14.223 5.667-3.277-.043-6.648-.375-8.598-3.136-.351-.602-.484-1.317-.648-1.993-.504-.187-1.082.278-1.43.61-1.379 1.261-1.426 3.18-2.73 4.437-.656.344-1.77-.347-1.758-1.433.035-1.528 1.066-2.758 2.289-3.75 1.902-1.547 3.492-3.535 3.844-5.778-.88.387-1.961.551-2.926.758-.547.25-.629.973-.8 1.777.788-.261 1.737-.382 2.609-.636l.007.05c-.812 1.946-2.863 2.669-4.289 4.169-1.386 1.488-1.734 3.859-.918 5.523.485.957 1.106 1.219 1.973 1.113m92.797-.625c-.719.348-1.64.477-2.43.707-.746.25-.765 1.23-1.004 1.828.72-.308 1.559-.457 2.336-.664.735-.316.801-1.246 1.098-1.87m1.473 17.456c-.055-.402-.11-2.312-.125-3.304l.015-4.43-.047-.274c-.09-.035-.285-.023-.402-.023H95.34l-.063.043c0 .16.551.168.606.727.062.41.12 2.312.137 3.296l-.008 3.743c-.008.289-.008.632-.008.703 0 .066 0 .222.07.258.055.054.266.027.38.027h1.706l.05-.043c0-.156-.542-.168-.608-.723m11.472-16.832h.098c1.781.051 3.383.16 4.98-.504 1.371-.765 1.86-2.007 2.239-3.25 1.058-3.597 0-7.316-2.743-9.761-.746 2.285.184 4.632.383 6.847.133.762.012 1.625.192 2.364.808-2.317.195-4.567-.22-6.692l-.01-.156c1.347 1.73 2.35 3.351 2.222 5.445-.356 3.707-4.434 4.64-7.14 5.707M46.69 29.207h-1.683l-.063.043c0 .16.54.168.606.727.058.41.074 2.312.101 3.296v3.48s-.02.626-.234 1.25c-.273.833-1.578 1.74-2.555 1.74-1.441 0-3.254-.645-2.48-3.15-.238-.081-.332.266-.715.41-.988.345-2.547.333-3.598 0a129 129 0 0 1-.043-3.265v-4.234l-.039-.274c-.082-.039-.289-.023-.398-.023h-1.7l-.066.04c0 .16.551.167.617.726.032.215.051.793.075 1.441.039 2.172.09 4.504-.063 6.586h5.203s-.117 1.438.403 2.07c.714.856 1.921.84 3.062.508 1.695-.508 3.836-1.941 3.988-3.707.02-.96.028-1.953.028-2.937l.02-4.434-.048-.273c-.086-.032-.297-.02-.418-.02m68.493.043c0 .16.574.207.648.594.371 1.984.207 6.351.207 6.351-2.402-2.008-4.371-4.465-6.344-6.902-.113-.11-.437-.086-.62-.086h-1.317l-.043.043c-.012.168.332.148.703.594.195.258.332.562.36.832.058.926.007 1.582 0 2.64-.032 1.051-.176 4.293-.176 4.403l.046.258c.075.054.27.027.403.027h1.062l.047-.043c.004-.156-.55-.168-.625-.723-.02-.285-.05-1.316-.097-2.254-.012-1.214.015-2.14.082-3.214 2.015 2.335 6.597 6.675 6.902 6.925.195.14.215.028.215.028.207-2.965.097-6.465.285-9.516h-1.68ZM107.176 37c-1.555-2.46-2.633-5.164-3.684-7.793h-2.133l-.054.043c0 .074.785.29.578 1.324-.281 1.547-1 3.258-2.895 7.098l-.152.308c-.008.016-.012.024.156.024h1.742l.055-.04c0-.16-.746-.16-.621-.726.172-.625.715-1.746 1.113-2.625h2.871c.551 1.035 1.032 2.14 1.676 3.106.059.086.137.21.192.261.066.036.28.024.402.024.277.012 1.7 0 1.7 0l.046-.04c0-.144-.465-.171-.992-.964m-5.617-3.055c.718-1.691.964-3.093.964-3.093.504.93 1.282 3.093 1.282 3.093ZM60.883 15.81c.445-3-.813-5.95-2.438-7.868-.3 1.622-.078 5.957.278 8.649.922-1.969-.024-3.977.136-6.035.532.797.828 1.582 1.16 2.472.547 1.45.188 3.383-.96 4.63-.711.75-1.715 1.179-2.641.863-.352-.114-.664-.485-.664-.485s.246-.625.539-1.664c.531-2.266.14-4.234-1.36-6.687-1.226 2.543-1.464 5.941-.476 8.515-1.027 1.059-2.355.54-2.621.113 1.328-2.453 1.059-5.953-.54-8.535-1.155 2.305-1.597 5.63-.75 8.508-1.308 1.203-2.913 1.856-4.433 2.586 1.953-.113 3.621-.258 5.004-1.324.496.574 1.09 1.031 1.856 1.031.906 0 1.703-.594 2.175-1.031 1.024 1.07 2.5.922 3.176.523 1.574-.902 2.309-2.62 2.559-4.261m-9.645 1.57c-.867-1.445-.664-3.64 0-5.129.778 1.441 1.344 3.73 0 5.129m3.66-5.086c.872 1.293 1.426 3.293.258 4.984-.96-1.226-.734-3.433-.258-4.984m37.41 16.957c-.015.16.567.207.637.594.38 1.984.223 6.351.223 6.351-2.418-2.008-4.387-4.465-6.36-6.902-.12-.11-.437-.086-.624-.086h-1.301l-.059.043c-.011.168.332.148.715.594.203.258.336.562.352.832.058.926.02 1.582-.012 2.64-.02 1.051-.16 4.293-.16 4.403l.05.258c.06.054.274.027.391.027h1.07l.043-.043c0-.156-.539-.168-.609-.723-.035-.285-.07-1.316-.105-2.254-.028-1.214.02-2.14.082-3.214 2.007 2.335 6.59 6.675 6.894 6.925.207.14.211.028.211.028.215-2.965.11-6.465.3-9.516h-1.683Zm-36.968.105c-2.031-.375-4.39-.093-5.727 1.262-1.246 1.227-1.668 5.434.805 6.778 1.504.843 3.824.785 5.293-.083 2.195-1.273 2.402-3.996 1.75-6.152-.332-1.066-1.219-1.598-2.121-1.805m.672 6.696c-.106.125-.2.222-.328.289-1.293.86-4.145.363-5.02-.778-.434-.644-.578-1.601-.566-2.488-.004-.68.082-1.52.476-2.152.848-1.363 4.371-.766 5.328.48.907 1.32.563 4.051.11 4.649m19.93-4.36c-.837-2.882-4.59-2.48-7.649-2.48h-1.078c-.594 0 .125.113.254.594.086 3.476.008 6.32.008 6.32q-.01.449-.008.91c-.035.649-.617.89-1.04.617-1.402-1.105-1.784-3-2.964-3.761.601-.375 1.27-.817 1.656-1.465.332-.735.34-1.852-.281-2.45-.508-.566-1.524-.769-2.695-.769h-3.211c-.66 0 .254.148.254.742.117 2.75.011 8.055.011 8.055h2.168c.008-.211-.547-.223-.633-.563 0 0-.035-2.937-.05-3.12 0-.2.16-.2.16-.2.61-.031 1.074-.11 1.406.32.332.446 1.676 3.43 3.477 3.946.226.062.46.093.699.074.648.023 1.265-.219 1.808-.55 2.164.105 4.567.452 6.336-.907 1.875-1.27 1.828-3.41 1.371-5.313m-15 1.547c-.156-.008-.218-.12-.218-.258v-2.753c.996-.329 2.527-.356 2.988.402.39.617.363 1.867-.082 2.297-.59.511-2.492.344-2.688.312M74 36.414c-1.074.926-3.516.5-4.992.352v-6.45c.597-.203.96-.218 2.023-.175 1.133.05 2.656.386 3.25 1.394.676 1.121.89 3.86-.281 4.88M84.254 37c-1.535-2.46-2.621-5.164-3.684-7.793h-2.125l-.047.043c0 .074.79.29.594 1.324-.308 1.547-1.004 3.258-2.926 7.098l-.136.308c-.02.016-.02.024.144.024h1.75l.043-.04c0-.16-.734-.16-.613-.726.176-.625.734-1.746 1.113-2.625h2.867c.555 1.035 1.032 2.14 1.672 3.106.074.086.153.21.207.261.059.036.274.024.39.024.29.012 1.704 0 1.704 0l.059-.04c.004-.144-.48-.171-1.012-.964m-5.602-3.055c.715-1.691.961-3.093.961-3.093.492.93 1.29 3.093 1.29 3.093Zm-56.03 3.477-.036-2.582c1.39-1.738 2.758-3.567 3.344-5.63h-1.52c-.664 0 .25.145.25.743-.117 1.262-1.34 2.793-2.418 4.067l-2.855-4.81h-2.14l-.052.04c-.008.168.422.105.801.648a59 59 0 0 1 3.074 5.012c0 .899.028 3.094.028 3.094h2.148c0-.297-.578-.246-.625-.582m-7.363-8.067c-2.031-.375-4.39-.093-5.73 1.262-1.06 1.051-1.528 4.309-.051 6.074h-.012l.023.012.121.145c.055.074.098.156.086.234-.289.797-1.34.79-1.683.57-1.39-1.105-1.79-3-2.969-3.765.61-.371 1.27-.813 1.656-1.461.332-.735.348-1.852-.277-2.45-.508-.566-1.527-.769-2.7-.769H.513c-.664 0 .254.148.254.742.109 2.75.015 8.055.015 8.055h2.172c.004-.211-.543-.223-.637-.563 0 0-.039-2.937-.039-3.125-.023-.199.145-.199.145-.199.598-.027 1.078-.105 1.41.324.328.446 1.672 3.43 3.477 3.946 1.078.265 2.23-.219 3.02-.832l.108-.098c1.512.781 3.743.7 5.188-.145 2.207-1.273 2.414-3.996 1.754-6.152-.324-1.066-1.227-1.598-2.121-1.805M2.523 33.238c-.152-.008-.23-.12-.23-.258v-2.753c1.008-.329 2.543-.356 3.004.402.387.617.36 1.867-.09 2.297-.586.511-2.488.344-2.684.312m13.461 2.813c-.093.125-.21.222-.328.289-1.289.86-4.14.363-5.008-.778-.445-.644-.582-1.601-.582-2.488 0-.68.086-1.52.473-2.152.871-1.363 4.379-.766 5.352.48.894 1.32.547 4.051.093 4.649m84.547-19.969c.328.691.684 1.328 1.473 1.574.664.215 1.828-.293 2.52-2.87.328.542.492.98.976 1.429 2.156 2.105 3.809-1.184 5.742-1.54.235-.456.36-1.09.39-1.6-.675.027-1.3.554-2.097.32-.226-.07-.496-.184-.512-.532.325-3.207-.253-6.531-2.488-8.746-1.012 2.758.406 5.606.531 8.387.618-1.95.145-3.969-.21-5.852 1.496 2.051 1.878 4.555 1.628 7.246-.226 1.461-1.543 1.38-2.132.961-2.313-1.808-2-5.453-3.09-7.601-.535 1.058-.114 2.222.117 3.242.308 1.29 1.285 3.8-.094 5.047-.887.789-1.855.152-2.183-.629-.852-2.055-1.047-4.23-1.48-6.45l-.212-.179c-.133.477-.277 1.05-.222 1.602.148 1.023.597 3.664 1.093 5.386-.644 1.551-1.586 1.778-2.07 1.684-1.063-.473-.75-1.719-.766-2.613-2.414 1.343-4.894 2.785-6.914 3.39-4.75 1.43-10.652 2.532-15.402.282-1.715-.84-3.145-2.497-3.11-4.489-.035-.21-.261-.324-.476-.293-1.938.707-2.34 2.832-2.969 4.473-.687 1.777-2.34.574-2.472-.117-.22-2.614 2.312-4.239 3.785-5.93 1.07-1.219 1.597-2.664 1.746-4.348-.828.512-1.992.72-2.895 1.02-.543.281-.488 1.266-.656 1.828l2.574-.797.078-.027c-.914 2.453-4.156 3.27-4.914 5.996-.363 1.371-.394 3.539.668 4.566.438.364 1.262.715 1.895.336 1.27-1.242 1.015-3.023 2.055-4.347.328-.407.789-.953 1.195-.801l.238 1.246c.613 2.445 3.258 3.816 5.516 4.312 5.785.95 11.605-.394 16.492-2.785 1.035-.488 1.894-1.156 2.906-1.62.078 1.343.563 2.312 1.38 2.472.605.113 1.546-.473 2.366-2.633m.664-7.687c.407-1.887.348-3.985.586-5.864l-.215.055-.136.82c-.43 3.422-3.793 4.457-6.278 6.215a28 28 0 0 0 3.075-.93c1.25-.468 2.214-1.578 2.851-2.55.098.62-.281 1.445.117 2.254" style="stroke:none;fill-rule:nonzero;fill:#575d63;fill-opacity:1"/></g><path d="M149.594 6.77s-.961-.02-1.594.293c0 0 2.23.597 3.313 3.183 1.085-2.586 3.304-3.184 3.304-3.184-.59-.312-1.597-.292-1.597-.292-.094-.34-.47-.606-.47-.606.294-.351.876-.742.876-.742l-2.113-5.02-2.11 5.02s.578.39.867.742c0 0-.379.266-.476.606m-13.371 29.847c.062.715.086 1.375.086 1.375h29.914s.027-.625.086-1.285c.07-.727.152-1.293.152-1.293h-30.395s.098.602.157 1.203m38.804-17.18c1.02-.34.899-1.468.899-1.468-.219-1.317-1.602-1.13-1.602-1.13.875-1.026.184-1.823.184-1.823-.676-.844-1.746-.301-1.746-.301.488-1.082-.157-1.63-.157-1.63-.851-.75-1.742.028-1.742.028-.027-1.058-.789-1.3-.789-1.3-.898-.387-1.562.421-1.562.421-.657-1.816-1.953-.882-2.266-.757-.305.18-.336 0-.336 0-.058-2.196-1.926-1.372-1.926-1.372.508-1.093-.379-1.71-.379-1.71-.957-.594-1.757.234-1.757.234-.098-1.445-1.168-1.016-1.508-.89-.324.074-1.031.1-1.031.1-2.211-.273-3.032-.148-3.032-.148-2.695-.054-4.968 4.418-4.968 4.418v.04l-.04-.04s-2.304-4.472-4.992-4.418c0 0-.82-.125-3.027.149 0 0-.687-.027-1.031-.102-.34-.125-1.414-.554-1.489.89 0 0-.808-.827-1.773-.233 0 0-.883.617-.375 1.71 0 0-1.875-.824-1.934 1.372 0 0-.011.18-.343 0-.297-.125-1.59-1.059-2.246.757 0 0-.672-.808-1.563-.421 0 0-.773.242-.8 1.3 0 0-.9-.777-1.758-.027 0 0-.645.547-.172 1.629 0 0-1.04-.543-1.692.3 0 0-.703.797.18 1.825 0 0-1.418-.188-1.613 1.129 0 0-.11 1.129.882 1.468 0 0-1.164.547-.957 1.485 0 0 .07.93 1.282 1.11 0 0-1.012.671-.594 1.609 0 0 .402 1.093 1.695.777 0 0-.484 1.133.266 1.637 0 0 .707.605 1.582.011 0 0 .46-.168.652.16 0 0 .328.528-.363 1.31 0 0 3.766-.321 4.777 5.75h30.785c1.02-6.071 4.832-5.75 4.832-5.75-.707-.782-.363-1.31-.363-1.31.172-.328.637-.16.637-.16.875.594 1.601-.011 1.601-.011.727-.504.254-1.637.254-1.637 1.305.316 1.723-.777 1.723-.777.375-.938-.621-1.61-.621-1.61 1.215-.18 1.262-1.11 1.262-1.11.214-.937-.946-1.483-.946-1.483m-39.675 9.035c-.36-.254-.23-.543-.23-.543.905-.957.983-1.504.983-1.504-.789-.602-2.718-.446-2.718-.446.32-1.34 1.21-2.253 1.21-2.253-2.742-1.282-2.667-4.09-2.667-4.09 0-5.055 4.757-4.977 4.757-4.977-.3.992-.109 1.93.04 2.332.152.371.468.785 1.058 2.594.574 1.789.176 3.539.176 3.539 2.035.563 2.926 1.727 2.926 1.727-1.16.804-1.16 1.628-1.16 1.628.98.48 2.261.22 2.261.22-.093 1.245-1.418 1.386-1.418 1.386-1.64.219-2.879-1.238-2.879-1.238-.058 1.976-1.941 1.867-2.34 1.625m4.602 3.89-2.61-.965 2.65-1.203 2.73.918Zm5.75-.383c-.535 0-1.02-.437-1.02-1 0-.535.485-.976 1.02-.976.55 0 .969.441.969.976 0 .563-.418 1-.969 1m1.113-5.906s-.593 1.59-2.175 1.684c0 0-1.352.062-1.68-1.254 0 0 1.144-.297 1.562-1.094 0 0-.437-.91-2.082-.91 0 0-.015-.86 1.993-2.766 0 0-1.348-.547-2.621-3.398-1.274-2.898-.258-5.203.078-5.684.336-.476 1.086-1.386 2.156-2.007 0 0 .793-.477 1.703-.575 0 0 .648-.097 1.305.703.632.813 1.394 1.743 1.78 3.66 0 0 .368 2.145.157 3.54-.199 1.351-.426 2.172-1.226 3 0 0 2.02.761 2.984 2.265 0 0-1.594.516-1.914 1.446 0 0 .379.53 1.828.824 0 0-.059 1.152-1.43 1.453 0 0-1.625.164-2.418-.887m4.496 5.906-2.664-1.07 2.665-1.078 2.714 1.078Zm5.614 0a1 1 0 0 1-1.012-1 1 1 0 0 1 1.012-1.007c.539 0 .984.433.984 1.007 0 .563-.445 1-.984 1m1.058-4.222c-1.597-.094-2.175-1.684-2.175-1.684-.801 1.051-2.45.887-2.45.887-1.324-.3-1.418-1.453-1.418-1.453 1.461-.293 1.836-.824 1.836-.824-.336-.934-1.914-1.446-1.914-1.446.95-1.504 2.989-2.265 2.989-2.265-.793-.828-1.024-1.649-1.227-3.004-.207-1.39.152-3.535.152-3.535.414-1.918 1.137-2.848 1.762-3.66.672-.801 1.34-.708 1.34-.708.887.102 1.691.575 1.691.575 1.063.62 1.817 1.53 2.164 2.011.317.48 1.344 2.786.067 5.68-1.29 2.855-2.606 3.402-2.606 3.402 1.98 1.907 1.973 2.766 1.973 2.766-1.637 0-2.074.906-2.074.906.402.801 1.574 1.098 1.574 1.098-.336 1.316-1.684 1.254-1.684 1.254m4.676 4.605-2.785-1.273 2.738-.895 2.625 1.196Zm5.34-8.722s.902.945 1.227 2.257c0 0-1.95-.156-2.727.45 0 0 .059.547.965 1.515 0 0 .164.285-.235.54-.37.238-2.261.363-2.328-1.626 0 0-1.214 1.477-2.879 1.258 0 0-1.312-.16-1.398-1.398 0 0 1.262.25 2.266-.219 0 0-.036-.816-1.188-1.621 0 0 .899-1.164 2.942-1.715 0 0-.399-1.77.183-3.559.598-1.796.89-2.222 1.043-2.613.168-.375.352-1.312.05-2.308 0 0 4.747-.098 4.767 4.98 0 .004.046 2.828-2.688 4.059" style="stroke:none;fill-rule:nonzero;fill:#575d63;fill-opacity:1"/><g clip-path="url(#b)"><path d="M48.023 9.055c.649-.14 1.47-.395 1.836-.742.352-.336.672-.813.582-1.333-.218-.593-.703.348-1.148.11-.219-.16.348-.703.71-.594a.83.83 0 0 0 .18-.422c-.081-.094-.273-.117-.374-.054-.47.265-.868.671-.829 1.32.094.726.782-.156 1.157.058-.438.82-1.524 1.102-2.114 1.657m36.204 2.922a1.8 1.8 0 0 0-.305.488c-.117.254-.102.719.148.879.25.144.774.039 1.02-.477.152.063.277.117.531.016.422-.184.41-.86.41-1.293-.195.156-.062.5-.304.668-.239.137-.457-.121-.457-.309-.13.207-.227.578-.5.723-.157.078-.403.156-.555.023-.227-.215.078-.484.012-.718m7.222-5.372c-4.21 1.286-8.719 2.676-13.125 3.66l-.449 1.098c4.43-1.238 8.969-2.449 13.215-4.074ZM32.918 36.602c-1.535-2.461-2.613-5.172-3.68-7.797h-2.125l-.05.047c0 .07.789.285.59 1.324-.298 1.547-1.005 3.254-2.903 7.097l-.152.305c-.016.02-.024.027.152.027h1.73l.063-.042c0-.16-.734-.16-.617-.723.172-.63.722-1.75 1.125-2.625h2.855c.547 1.031 1.032 2.137 1.684 3.101.062.086.133.211.183.262.067.035.282.027.403.027.27.008 1.707 0 1.707 0l.054-.042c0-.145-.48-.172-1.019-.961m-5.59-3.055c.703-1.7.953-3.102.953-3.102.504.934 1.29 3.102 1.29 3.102Zm-1.297-12.383c.77-.379 1.621-.492 2.43-.71.64-.4.73-1.153.96-1.798-.737.38-1.628.477-2.429.739-.781.234-.734 1.19-.96 1.77m7.456-12.009c-.394-.355-.965-.656-1.414-.863-.265.398-.605.898-.691 1.426.457.383.933.594 1.414.883.414-.551.57-1.102.691-1.446m-20.707 1.852c3.918-.793 7.77-1.742 11.54-2.832.421-.145 1.437-.293 1.37-.926a226 226 0 0 1-12.43 2.938l-.245.355c-.082.098-.395.437-.235.465m25.692 6.086.043-.719c.129-1.45-1.657-2.035-1.973-3.312.05-.391.242-.723.504-1.032.601-.558 1.324-.758 2.172-.504.976.305 1.332 1.266 1.46 2.2-.765 3.449-4.585 5.109-7.3 6.527l.25-.024c1.766-.23 2.996-.488 4.383-.984 1.406-.52 2.383-2.121 2.855-3.465.559-1.656.86-4.062-.387-5.5-.683-.668-1.828-.96-2.703-.527-.925.402-1.636 1.371-1.746 2.43-.242 1.976.899 3.75 2.442 4.91m1.336 3.199c1.41-.02 3.613-.332 4.406-.664 1.453-.785 1.95-2.117 2.281-3.692.281-1.332-.105-2.183.79-2.78.37-.227.218-.93.304-1.481a.3.3 0 0 0-.227-.121c-1.066.343-1 1.453-1.12 2.39-.54 3.215-3.368 5.262-5.97 6.153Zm-21.434-7.5c.133.703 1.086.262 1.406-.3a.45.45 0 0 0 .282.194c.136.008.363-.015.515-.394.098-.262.145-.617-.027-.941l-.063.363c-.031.152-.168.332-.394.332-.211.004-.168-.238-.2-.34-.25.082-.167.457-.617.7-.172.085-.457.179-.574-.028-.11-.223.078-.43.106-.625-.293.195-.473.652-.434 1.039M3.063 20.008c.44-.09.726-.328 1.023-.918.84-1.758 1.305-3.945 2.785-4.277.23.183.172.546.242.859.477 2.379 2.832 3.48 4.746 3.898 6.621 1.305 12.93-.574 17.989-4.914l.078-.05c-.285 1.617.719 2.25 1.484 2.109 1.05-.18 1.477-1.402 1.836-2.176.223-.531.375-.922.488-1.277.09-.293.172-.575.215-.867l-.242.144c-.707.55-.848 1.5-1.492 2.117-.254.223-.66.383-1.016.281-.492-.171-.613-.593-.629-1.035.008-.398.098-.8.098-1.043v-.234c-4.055 3.465-8.848 5.445-14.227 5.672-3.28-.047-6.652-.379-8.597-3.137-.356-.605-.489-1.32-.657-1.988-.496-.195-1.078.273-1.417.601-1.383 1.266-1.434 3.18-2.735 4.438-.66.348-1.77-.344-1.758-1.43.032-1.527 1.067-2.758 2.29-3.75 1.898-1.55 3.488-3.539 3.84-5.777-.884.383-1.962.55-2.923.754-.546.25-.629.972-.796 1.777.785-.262 1.73-.379 2.605-.629l.008.047c-.82 1.945-2.867 2.664-4.285 4.168-1.387 1.488-1.743 3.856-.922 5.516.484.96 1.101 1.226 1.969 1.12m92.8-.624c-.718.347-1.636.469-2.43.703-.746.254-.769 1.23-1.003 1.828.715-.309 1.554-.457 2.332-.664.738-.316.804-1.242 1.101-1.867m1.473 17.46c-.055-.413-.11-2.32-.129-3.312l.02-4.426-.047-.273c-.09-.039-.29-.027-.403-.027h-1.703l-.062.047c0 .156.547.168.605.726.063.41.113 2.313.133 3.297l-.012 3.738c-.008.29-.008.64-.008.703s0 .23.075.262c.058.05.27.027.379.027h1.71l.051-.042c0-.16-.543-.172-.61-.72m11.474-16.835h.097c1.77.047 3.38.156 4.98-.508 1.372-.762 1.852-2.008 2.239-3.254 1.055-3.59 0-7.312-2.742-9.75-.75 2.281.18 4.625.383 6.84.132.766.011 1.633.187 2.367.813-2.32.2-4.57-.219-6.695l-.015-.153c1.351 1.73 2.36 3.352 2.23 5.446-.363 3.703-4.437 4.637-7.14 5.707m-62.383 8.797h-1.688l-.062.047c0 .156.543.168.61.726.054.41.07 2.313.097 3.297v3.477s-.024.632-.235 1.25c-.27.832-1.578 1.734-2.55 1.734-1.442 0-3.254-.637-2.48-3.145-.243-.082-.337.27-.716.414-.992.344-2.547.329-3.601 0-.028-1.128-.04-2.125-.04-3.265v-4.235l-.042-.273c-.078-.043-.285-.027-.399-.027h-1.695l-.066.043c0 .16.543.172.613.73.031.207.05.79.078 1.442.031 2.168.09 4.5-.066 6.582h5.207s-.121 1.437.398 2.066c.715.855 1.922.84 3.066.516 1.696-.516 3.833-1.942 3.985-3.715.02-.965.027-1.953.027-2.938l.02-4.43-.047-.269c-.086-.039-.293-.027-.414-.027m68.488.047c0 .156.57.207.648.59.372 1.984.215 6.355.215 6.355-2.41-2.012-4.375-4.465-6.351-6.91-.114-.11-.442-.082-.617-.082h-1.317l-.05.047c-.008.168.34.144.703.59.203.261.335.566.359.835.066.918.012 1.582 0 2.637-.031 1.05-.168 4.293-.168 4.402l.043.262c.074.05.273.024.402.024h1.063l.047-.04c.004-.164-.547-.171-.625-.722-.02-.285-.047-1.32-.094-2.254a45 45 0 0 1 .078-3.219c2.02 2.336 6.598 6.68 6.902 6.926.196.14.22.027.22.027.206-2.968.093-6.46.28-9.515h-1.68Zm-8.008 7.75c-1.55-2.461-2.629-5.172-3.683-7.797h-2.13l-.054.047c0 .07.781.285.578 1.324-.285 1.547-1 3.254-2.902 7.097l-.153.305c-.003.02-.011.027.165.027h1.738l.058-.042c0-.16-.746-.16-.62-.723.167-.63.718-1.75 1.105-2.625h2.879c.55 1.031 1.031 2.137 1.675 3.101.06.086.141.211.192.262.066.035.277.027.398.027.278.008 1.7 0 1.7 0l.05-.042c0-.145-.468-.172-.996-.961m-5.617-3.055c.723-1.7.965-3.102.965-3.102.508.934 1.285 3.102 1.285 3.102ZM60.613 15.41c.446-3.004-.808-5.953-2.437-7.87-.297 1.624-.078 5.956.281 8.647.918-1.964-.027-3.972.133-6.03.531.788.828 1.577 1.164 2.468.539 1.45.187 3.387-.965 4.629-.707.754-1.71 1.183-2.64.867-.356-.113-.66-.488-.66-.488s.241-.625.534-1.66c.532-2.274.137-4.239-1.355-6.688-1.227 2.543-1.473 5.942-.477 8.516-1.027 1.058-2.355.539-2.625.113 1.332-2.457 1.055-5.953-.535-8.535-1.16 2.305-1.597 5.629-.75 8.504-1.308 1.207-2.914 1.86-4.437 2.594 1.957-.118 3.625-.266 5.008-1.325.496.57 1.09 1.028 1.851 1.028.91 0 1.707-.598 2.18-1.028 1.02 1.07 2.5.914 3.176.52 1.57-.906 2.308-2.625 2.554-4.262m-9.644 1.57c-.867-1.449-.664-3.644 0-5.132.777 1.441 1.343 3.73 0 5.132m3.664-5.085c.87 1.289 1.426 3.293.254 4.98-.957-1.227-.73-3.43-.254-4.98m37.406 16.957c-.012.156.566.207.637.59.383 1.984.222 6.355.222 6.355-2.418-2.012-4.378-4.465-6.359-6.91-.121-.11-.437-.082-.625-.082h-1.3l-.06.047c-.007.168.34.144.716.59.199.261.34.566.351.835.059.918.024 1.582-.012 2.637-.015 1.05-.156 4.293-.156 4.402l.047.262c.059.05.277.024.39.024h1.07l.044-.04c0-.164-.543-.171-.61-.722-.035-.285-.07-1.32-.097-2.254a34 34 0 0 1 .066-3.219c2.02 2.336 6.594 6.68 6.903 6.926.203.14.21.027.21.027.215-2.968.106-6.46.297-9.515h-1.68Zm-36.969.101c-2.03-.375-4.386-.09-5.722 1.258-1.246 1.227-1.668 5.437.804 6.789 1.5.84 3.825.773 5.293-.09 2.196-1.273 2.399-3.992 1.75-6.152-.336-1.067-1.218-1.594-2.125-1.805m.676 6.695c-.11.13-.2.223-.328.29-1.297.863-4.152.37-5.023-.778-.434-.64-.575-1.601-.563-2.484-.008-.676.078-1.524.473-2.153.851-1.367 4.375-.77 5.332.485.898 1.312.558 4.039.11 4.64m19.925-4.355c-.832-2.887-4.59-2.484-7.645-2.484h-1.082c-.597 0 .121.113.258.597.086 3.477.004 6.317.004 6.317q-.005.454-.004.91c-.035.652-.617.894-1.047.62-1.394-1.108-1.777-3.003-2.957-3.769.598-.367 1.27-.808 1.656-1.46.325-.731.34-1.848-.28-2.446-.509-.57-1.524-.773-2.7-.773h-3.21c-.661 0 .253.148.253.746.121 2.746.012 8.054.012 8.054h2.168c.015-.214-.547-.23-.633-.566 0 0-.031-2.934-.043-3.117 0-.203.156-.203.156-.203.606-.032 1.067-.102 1.406.328.328.433 1.676 3.426 3.477 3.945q.336.088.695.07c.649.02 1.27-.218 1.813-.55 2.164.105 4.558.453 6.336-.91 1.87-1.266 1.816-3.403 1.367-5.309m-15 1.543c-.156-.008-.219-.121-.219-.254v-2.75c1-.332 2.524-.36 2.984.395.395.617.368 1.863-.078 2.293-.586.515-2.5.351-2.687.316m13.062 3.18c-1.074.922-3.52.496-4.996.351v-6.453c.602-.203.965-.219 2.02-.172 1.137.047 2.664.387 3.254 1.39.675 1.126.89 3.864-.278 4.884m10.254.586c-1.539-2.461-2.629-5.172-3.683-7.797h-2.13l-.046.047c0 .07.793.285.594 1.324-.309 1.547-1 3.254-2.922 7.097l-.137.305c-.023.02-.023.027.145.027h1.75l.035-.042c0-.16-.727-.16-.61-.723.176-.63.739-1.75 1.118-2.625h2.867c.55 1.031 1.031 2.137 1.668 3.101.078.086.152.211.21.262.06.035.27.027.391.027.285.008 1.7 0 1.7 0l.062-.042c.004-.145-.48-.172-1.012-.961m-5.605-3.055c.719-1.7.96-3.102.96-3.102.497.934 1.294 3.102 1.294 3.102ZM22.355 37.02l-.035-2.583c1.395-1.734 2.758-3.57 3.344-5.632h-1.52c-.664 0 .25.148.25.746-.117 1.262-1.343 2.789-2.421 4.07l-2.852-4.816h-2.144l-.047.047c-.012.168.414.101.804.648a61 61 0 0 1 3.07 5.012c0 .894.028 3.093.028 3.093h2.145c0-.3-.582-.246-.622-.585m-7.367-8.067c-2.031-.375-4.386-.09-5.73 1.258-1.063 1.055-1.528 4.316-.051 6.086h-.008l.024.012.12.14c.055.07.095.16.083.23-.29.798-1.34.794-1.684.575-1.39-1.11-1.785-3.004-2.969-3.77.61-.367 1.278-.808 1.66-1.46.333-.731.348-1.848-.285-2.446-.5-.57-1.52-.77-2.695-.77H.238c-.656 0 .254.145.254.743.117 2.746.024 8.054.024 8.054H2.68c.007-.214-.535-.226-.63-.566 0 0-.038-2.934-.038-3.117-.024-.203.144-.203.144-.203.598-.032 1.074-.102 1.41.328.325.437 1.672 3.426 3.473 3.945 1.078.266 2.234-.222 3.024-.84l.105-.093c1.512.78 3.742.699 5.184-.145 2.21-1.273 2.421-3.996 1.757-6.152-.324-1.07-1.222-1.598-2.12-1.809M2.253 32.836c-.152-.008-.227-.121-.227-.254v-2.75c1.008-.332 2.543-.36 3 .395.391.617.364 1.863-.082 2.293-.59.515-2.496.351-2.691.316m13.46 2.812a.9.9 0 0 1-.335.29c-1.281.863-4.133.37-5.004-.778-.441-.64-.578-1.601-.574-2.484 0-.676.082-1.524.465-2.153.87-1.367 4.382-.77 5.355.485.899 1.312.547 4.039.094 4.64m84.543-19.964c.336.691.687 1.324 1.48 1.574.664.215 1.828-.297 2.52-2.871.328.539.492.98.976 1.43 2.157 2.101 3.805-1.192 5.743-1.54.234-.457.359-1.093.39-1.601-.68.02-1.305.554-2.101.32-.227-.074-.493-.184-.508-.531.32-3.211-.254-6.531-2.492-8.746-1.008 2.758.406 5.61.53 8.386.622-1.949.145-3.968-.214-5.851 1.504 2.05 1.887 4.559 1.637 7.242-.23 1.461-1.543 1.383-2.137.965-2.309-1.809-1.996-5.453-3.086-7.602-.539 1.059-.113 2.22.117 3.243.309 1.285 1.285 3.8-.101 5.046-.883.79-1.848.153-2.184-.628-.848-2.055-1.039-4.23-1.48-6.454l-.207-.175c-.13.48-.278 1.05-.22 1.601.15 1.028.599 3.664 1.09 5.387-.64 1.555-1.585 1.777-2.066 1.684-1.062-.473-.75-1.723-.765-2.614-2.418 1.344-4.899 2.79-6.914 3.39-4.754 1.427-10.653 2.532-15.407.282-1.71-.84-3.144-2.492-3.109-4.492-.035-.203-.262-.316-.473-.29-1.937.708-2.347 2.837-2.972 4.474-.688 1.777-2.34.57-2.473-.118-.223-2.617 2.316-4.238 3.785-5.925 1.07-1.223 1.602-2.668 1.746-4.348-.824.508-1.992.715-2.894 1.016-.547.28-.489 1.265-.656 1.832l2.578-.801.074-.028c-.914 2.454-4.16 3.274-4.914 6-.367 1.368-.39 3.536.66 4.563.445.367 1.27.719 1.902.34 1.27-1.246 1.016-3.028 2.055-4.352.328-.406.781-.953 1.195-.797l.23 1.242c.626 2.45 3.266 3.82 5.524 4.317 5.79.945 11.606-.402 16.492-2.785 1.028-.489 1.895-1.16 2.907-1.625.078 1.344.554 2.312 1.379 2.476.605.11 1.55-.48 2.363-2.636m.668-7.688c.406-1.89.347-3.988.582-5.867l-.211.055-.133.824c-.43 3.418-3.793 4.457-6.277 6.215a29 29 0 0 0 3.07-.93c1.25-.469 2.215-1.582 2.856-2.555.097.625-.286 1.45.113 2.258" style="stroke:none;fill-rule:nonzero;fill:#a07e3d;fill-opacity:1"/></g><path d="M149.324 6.367s-.96-.02-1.594.293c0 0 2.235.598 3.313 3.184 1.09-2.586 3.309-3.184 3.309-3.184-.594-.312-1.598-.293-1.598-.293-.098-.34-.477-.605-.477-.605.297-.352.88-.739.88-.739l-2.114-5.02-2.106 5.02s.579.387.868.739c0 0-.39.265-.48.605m-13.372 29.848c.063.719.082 1.375.082 1.375h29.922s.027-.621.086-1.285c.07-.72.144-1.297.144-1.297h-30.386s.097.61.152 1.207m38.809-17.176c1.011-.344.89-1.473.89-1.473-.218-1.316-1.593-1.128-1.593-1.128.87-1.024.18-1.82.18-1.82-.677-.848-1.743-.306-1.743-.306.484-1.082-.156-1.624-.156-1.624-.86-.754-1.746.027-1.746.027-.024-1.059-.79-1.3-.79-1.3-.902-.392-1.558.42-1.558.42-.66-1.815-1.957-.886-2.266-.757-.308.176-.335 0-.335 0-.06-2.195-1.93-1.371-1.93-1.371.512-1.098-.371-1.715-.371-1.715-.961-.594-1.762.238-1.762.238-.098-1.449-1.176-1.02-1.512-.89-.328.07-1.027.098-1.027.098-2.219-.274-3.031-.145-3.031-.145-2.7-.055-4.969 4.414-4.969 4.414v.04l-.04-.04s-2.304-4.469-4.991-4.414c0 0-.825-.129-3.032.144 0 0-.687-.027-1.027-.097-.34-.13-1.414-.559-1.492.89 0 0-.809-.832-1.77-.238 0 0-.882.617-.379 1.715 0 0-1.875-.824-1.933 1.371 0 0-.008.176-.344 0-.293-.129-1.586-1.058-2.246.758 0 0-.668-.813-1.559-.422 0 0-.777.242-.8 1.3 0 0-.899-.78-1.758-.027 0 0-.649.543-.172 1.626 0 0-1.043-.543-1.695.304 0 0-.703.797.187 1.82 0 0-1.422-.187-1.625 1.13 0 0-.11 1.128.887 1.472 0 0-1.164.543-.953 1.48 0 0 .066.93 1.277 1.11 0 0-1.012.672-.594 1.61 0 0 .403 1.1 1.7.78 0 0-.485 1.13.265 1.637 0 0 .711.606 1.582.008 0 0 .461-.168.653.16 0 0 .328.531-.368 1.309 0 0 3.766-.324 4.782 5.75h30.785c1.02-6.074 4.832-5.75 4.832-5.75-.711-.778-.363-1.309-.363-1.309.171-.328.632-.16.632-.16.88.598 1.606-.008 1.606-.008.726-.508.246-1.636.246-1.636 1.312.32 1.73-.782 1.73-.782.371-.937-.62-1.61-.62-1.61 1.206-.179 1.261-1.108 1.261-1.108.211-.938-.945-1.48-.945-1.48m-39.676 9.034c-.36-.262-.238-.547-.238-.547.91-.953.988-1.5.988-1.5-.79-.609-2.715-.449-2.715-.449.32-1.34 1.211-2.254 1.211-2.254-2.742-1.281-2.672-4.086-2.672-4.086 0-5.058 4.758-4.976 4.758-4.976-.3.992-.11 1.925.039 2.328.152.375.473.785 1.059 2.594.574 1.789.175 3.535.175 3.535 2.028.566 2.922 1.73 2.922 1.73-1.152.809-1.152 1.63-1.152 1.63.973.476 2.254.222 2.254.222-.09 1.242-1.414 1.387-1.414 1.387-1.64.218-2.883-1.243-2.883-1.243-.05 1.98-1.934 1.871-2.332 1.63m4.594 3.89L137.074 31l2.645-1.207 2.734.914Zm5.754-.383c-.54 0-1.016-.445-1.016-.996 0-.54.477-.98 1.016-.98.554 0 .968.44.968.98 0 .55-.414.996-.968.996m1.113-5.906s-.59 1.582-2.18 1.683c0 0-1.347.063-1.676-1.254 0 0 1.145-.3 1.567-1.093 0 0-.438-.914-2.082-.914 0 0-.02-.856 1.988-2.77 0 0-1.348-.543-2.621-3.398-1.273-2.89-.258-5.2.082-5.676.332-.48 1.082-1.39 2.152-2.012 0 0 .797-.476 1.703-.574 0 0 .649-.094 1.313.703.629.813 1.39 1.746 1.777 3.664 0 0 .368 2.14.157 3.531-.196 1.36-.426 2.18-1.227 3.004 0 0 2.016.758 2.98 2.266 0 0-1.59.516-1.91 1.45 0 0 .38.526 1.832.823 0 0-.066 1.153-1.441 1.446 0 0-1.613.172-2.414-.88m4.496 5.907-2.664-1.074 2.664-1.078 2.715 1.078Zm5.617 0a1.006 1.006 0 0 1-1.012-.996c0-.578.457-1.012 1.012-1.012.535 0 .977.434.977 1.012 0 .55-.442.996-.977.996m1.047-4.223c-1.59-.101-2.172-1.683-2.172-1.683-.797 1.05-2.441.879-2.441.879-1.328-.293-1.418-1.45-1.418-1.45 1.457-.293 1.836-.82 1.836-.82-.336-.933-1.922-1.45-1.922-1.45.957-1.507 2.996-2.265 2.996-2.265-.797-.828-1.024-1.644-1.23-3.004-.208-1.39.156-3.53.156-3.53.406-1.919 1.136-2.852 1.761-3.665.672-.8 1.34-.703 1.34-.703.887.098 1.688.574 1.688.574 1.058.621 1.816 1.531 2.164 2.008.316.48 1.347 2.79.062 5.68-1.28 2.855-2.601 3.398-2.601 3.398 1.984 1.91 1.972 2.77 1.972 2.77-1.636 0-2.07.91-2.07.91.402.797 1.574 1.097 1.574 1.097-.34 1.317-1.695 1.254-1.695 1.254m4.68 4.606-2.778-1.277 2.739-.895 2.617 1.195Zm5.347-8.727s.899.946 1.227 2.258c0 0-1.95-.152-2.73.453 0 0 .058.54.96 1.512 0 0 .172.289-.226.539-.375.242-2.262.367-2.328-1.621 0 0-1.223 1.476-2.883 1.258 0 0-1.313-.16-1.395-1.395 0 0 1.262.242 2.266-.222 0 0-.043-.817-1.187-1.622 0 0 .894-1.164 2.94-1.714 0 0-.405-1.774.18-3.559.602-1.797.895-2.227 1.047-2.613.168-.375.352-1.313.047-2.309 0 0 4.746-.098 4.766 4.98 0 0 .047 2.829-2.684 4.055" style="stroke:none;fill-rule:nonzero;fill:#a07e3d;fill-opacity:1"/></svg>