<?xml version="1.0" encoding="UTF-8"?>
<svg xmlns="http://www.w3.org/2000/svg" xmlns:xlink="http://www.w3.org/1999/xlink" width="176pt" height="20.51pt" viewBox="0 0 176 20.51" version="1.1">
<defs>
<clipPath id="clip1">
  <path d="M 24 1 L 45 1 L 45 20.511719 L 24 20.511719 Z M 24 1 "/>
</clipPath>
<clipPath id="clip2">
  <path d="M 45 1 L 70 1 L 70 20.511719 L 45 20.511719 Z M 45 1 "/>
</clipPath>
<clipPath id="clip3">
  <path d="M 66 1 L 91 1 L 91 20.511719 L 66 20.511719 Z M 66 1 "/>
</clipPath>
<clipPath id="clip4">
  <path d="M 93 1 L 115 1 L 115 20.511719 L 93 20.511719 Z M 93 1 "/>
</clipPath>
<clipPath id="clip5">
  <path d="M 116 1 L 142 1 L 142 20.511719 L 116 20.511719 Z M 116 1 "/>
</clipPath>
<clipPath id="clip6">
  <path d="M 143 1 L 150 1 L 150 20.511719 L 143 20.511719 Z M 143 1 "/>
</clipPath>
<clipPath id="clip7">
  <path d="M 155 1 L 176 1 L 176 20.511719 L 155 20.511719 Z M 155 1 "/>
</clipPath>
<clipPath id="clip8">
  <path d="M 0 0 L 21 0 L 21 20.511719 L 0 20.511719 Z M 0 0 "/>
</clipPath>
</defs>
<g id="surface1">
<g clip-path="url(#clip1)" clip-rule="nonzero">
<path style=" stroke:none;fill-rule:nonzero;fill:rgb(17.796326%,26.217651%,48.036194%);fill-opacity:1;" d="M 33.152344 5.019531 L 30.375 5.019531 L 30.375 10.195312 L 33.503906 10.195312 C 36.738281 10.195312 38.402344 9.320312 38.402344 7.621094 C 38.402344 5.949219 36.941406 5.019531 33.152344 5.019531 Z M 37.949219 20.363281 L 32.445312 13.304688 L 30.375 13.304688 L 30.375 20.363281 L 24.0625 20.363281 L 24.0625 1.777344 L 33.453125 1.777344 C 40.320312 1.777344 44.714844 3.71875 44.714844 7.566406 C 44.714844 10.167969 42.191406 11.789062 38.757812 12.636719 L 44.816406 20.363281 L 37.949219 20.363281 "/>
</g>
<g clip-path="url(#clip2)" clip-rule="nonzero">
<path style=" stroke:none;fill-rule:nonzero;fill:rgb(17.796326%,26.217651%,48.036194%);fill-opacity:1;" d="M 60.527344 13.355469 L 60.527344 20.363281 L 54.214844 20.363281 L 54.214844 13.40625 L 45.125 1.777344 L 52.09375 1.777344 L 54.820312 5.546875 C 55.980469 7.167969 57.144531 9 57.445312 9.875 C 57.800781 9 58.960938 7.085938 60.074219 5.546875 L 62.796875 1.777344 L 69.664062 1.777344 L 60.527344 13.355469 "/>
</g>
<g clip-path="url(#clip3)" clip-rule="nonzero">
<path style=" stroke:none;fill-rule:nonzero;fill:rgb(17.796326%,26.217651%,48.036194%);fill-opacity:1;" d="M 80.402344 11.179688 C 79.796875 9.746094 78.988281 7.59375 78.738281 6.664062 C 78.484375 7.621094 77.777344 9.613281 77.121094 11.125 L 76.160156 13.382812 L 81.363281 13.382812 Z M 84.390625 20.363281 L 82.722656 16.488281 L 74.796875 16.488281 L 73.132812 20.363281 L 66.667969 20.363281 L 75.707031 1.777344 L 81.867188 1.777344 L 90.90625 20.363281 L 84.390625 20.363281 "/>
</g>
<g clip-path="url(#clip4)" clip-rule="nonzero">
<path style=" stroke:none;fill-rule:nonzero;fill:rgb(17.796326%,26.217651%,48.036194%);fill-opacity:1;" d="M 108.074219 20.363281 L 101.5625 12.082031 C 100.652344 10.914062 99.542969 9.398438 98.886719 8.3125 C 98.9375 9.453125 98.988281 11.363281 98.988281 12.53125 L 98.988281 20.363281 L 93.230469 20.363281 L 93.230469 1.78125 L 99.59375 1.78125 L 105.804688 9.933594 C 106.664062 11.046875 107.925781 12.773438 108.582031 13.808594 C 108.53125 12.667969 108.378906 10.648438 108.378906 9.480469 L 108.378906 1.78125 L 114.136719 1.78125 L 114.136719 20.363281 L 108.074219 20.363281 "/>
</g>
<g clip-path="url(#clip5)" clip-rule="nonzero">
<path style=" stroke:none;fill-rule:nonzero;fill:rgb(17.796326%,26.217651%,48.036194%);fill-opacity:1;" d="M 130.523438 11.179688 C 129.917969 9.746094 129.109375 7.59375 128.855469 6.664062 C 128.605469 7.621094 127.898438 9.613281 127.242188 11.125 L 126.28125 13.382812 L 131.484375 13.382812 Z M 134.511719 20.363281 L 132.84375 16.488281 L 124.917969 16.488281 L 123.253906 20.363281 L 116.789062 20.363281 L 125.824219 1.777344 L 131.988281 1.777344 L 141.023438 20.363281 L 134.511719 20.363281 "/>
</g>
<g clip-path="url(#clip6)" clip-rule="nonzero">
<path style=" stroke:none;fill-rule:nonzero;fill:rgb(17.796326%,26.217651%,48.036194%);fill-opacity:1;" d="M 143.503906 1.777344 L 149.8125 1.777344 L 149.8125 20.363281 L 143.503906 20.363281 L 143.503906 1.777344 "/>
</g>
<g clip-path="url(#clip7)" clip-rule="nonzero">
<path style=" stroke:none;fill-rule:nonzero;fill:rgb(17.796326%,26.217651%,48.036194%);fill-opacity:1;" d="M 164.335938 5.019531 L 161.558594 5.019531 L 161.558594 10.195312 L 164.6875 10.195312 C 167.921875 10.195312 169.585938 9.320312 169.585938 7.621094 C 169.585938 5.949219 168.125 5.019531 164.335938 5.019531 Z M 169.136719 20.363281 L 163.628906 13.304688 L 161.558594 13.304688 L 161.558594 20.363281 L 155.246094 20.363281 L 155.246094 1.777344 L 164.640625 1.777344 C 171.507812 1.777344 175.898438 3.71875 175.898438 7.566406 C 175.898438 10.167969 173.375 11.789062 169.941406 12.636719 L 176 20.363281 L 169.132812 20.363281 L 169.136719 20.363281 "/>
</g>
<g clip-path="url(#clip8)" clip-rule="nonzero">
<path style=" stroke:none;fill-rule:nonzero;fill:rgb(94.566345%,78.735352%,11.99646%);fill-opacity:1;" d="M 13.730469 1.117188 C 15.039062 1.554688 16.421875 1.886719 17.835938 2.046875 L 18.820312 2.058594 L 18.847656 2.03125 C 19.4375 2.046875 19.871094 1.789062 20.445312 1.664062 C 20.507812 1.648438 20.652344 1.609375 20.71875 1.695312 C 20.746094 1.804688 20.699219 1.921875 20.578125 2.003906 C 19.875 2.539062 19.039062 2.941406 18.253906 3.226562 L 18.253906 3.210938 C 17.992188 3.261719 17.71875 3.371094 17.449219 3.460938 C 16.476562 3.753906 15.375 3.9375 14.328125 3.863281 C 12.332031 3.761719 10.632812 3.046875 8.867188 3.128906 C 7.132812 3.027344 5.484375 3.691406 4.5625 5 C 4.085938 5.683594 3.710938 6.402344 3.59375 7.199219 C 3.644531 7.914062 4.652344 8.191406 5.03125 8.785156 C 5.25 9.144531 5.355469 9.539062 5.519531 9.914062 C 5.9375 10.664062 6.355469 11.414062 6.867188 12.121094 L 6.855469 12.136719 C 7.15625 12.609375 7.636719 13.019531 8.203125 13.296875 C 8.941406 13.824219 9.589844 14.484375 9.976562 15.191406 L 9.957031 15.203125 C 10.390625 15.898438 10.636719 16.617188 10.972656 17.339844 C 11.125 17.78125 11.289062 18.171875 11.417969 18.605469 C 11.464844 18.644531 11.464844 18.710938 11.488281 18.765625 C 11.609375 19.109375 11.710938 19.472656 11.855469 19.789062 C 11.792969 19.835938 11.90625 19.855469 11.890625 19.902344 C 11.898438 20.09375 12.085938 20.382812 11.835938 20.511719 C 11.472656 20.1875 11.28125 19.71875 11.085938 19.375 C 10.65625 18.625 10.164062 17.902344 9.636719 17.191406 L 9.652344 17.175781 C 9.328125 16.769531 8.96875 16.308594 8.597656 15.886719 C 7.03125 14.152344 4.726562 13.109375 3.042969 11.460938 L 3.027344 11.472656 C 2.886719 11.34375 2.792969 11.175781 2.675781 11.027344 L 2.6875 11.011719 C 2.484375 10.726562 2.363281 10.398438 2.164062 10.105469 L 2.175781 10.089844 C 1.65625 9.3125 1.152344 8.492188 0.816406 7.675781 C 0.746094 7.3125 0.621094 7.003906 0.59375 6.585938 L 0.554688 6.453125 C 0.578125 6.074219 -0.359375 5.855469 0.15625 5.128906 C 0.480469 4.777344 1.734375 4.347656 2.160156 3.691406 C 2.171875 3.59375 2.195312 3.476562 2.109375 3.386719 C 2.109375 3.316406 2.035156 3.242188 1.984375 3.167969 C 1.75 2.875 1.105469 3.105469 1.113281 2.671875 C 1.179688 2.667969 1.117188 2.609375 1.160156 2.585938 C 1.125 2.371094 1.109375 2.226562 1.171875 2.046875 C 1.300781 1.691406 1.429688 1.277344 1.402344 0.917969 C 1.429688 0.78125 1.5625 0.703125 1.699219 0.648438 C 1.96875 0.582031 2.203125 0.546875 2.464844 0.511719 L 2.496094 0.539062 C 3.101562 0.488281 3.832031 0.53125 4.230469 1.007812 C 4.40625 1.367188 4.269531 1.796875 4.171875 2.160156 C 4.140625 2.371094 3.914062 2.539062 3.964844 2.761719 C 4.046875 2.84375 4.210938 2.835938 4.320312 2.792969 C 5.234375 2.238281 6.03125 1.46875 6.699219 0.691406 C 7.3125 0.117188 8.214844 -0.0820312 9.046875 0.0390625 C 10.730469 0.167969 12.15625 0.734375 13.726562 1.117188 L 13.730469 1.117188 "/>
</g>
<path style=" stroke:none;fill-rule:nonzero;fill:rgb(94.566345%,78.735352%,11.99646%);fill-opacity:1;" d="M 9.390625 4.15625 C 9.625 4.472656 9.308594 4.75 9.214844 5.027344 C 8.226562 6.511719 7.882812 8.195312 7.226562 9.785156 C 7.175781 9.839844 7.078125 9.855469 7.007812 9.832031 C 6.832031 9.707031 6.832031 9.503906 6.855469 9.324219 C 6.984375 7.597656 7.441406 5.980469 8.175781 4.441406 C 8.347656 4.195312 8.640625 3.914062 9.015625 3.972656 C 9.160156 4.003906 9.285156 4.050781 9.390625 4.15625 "/>
<path style=" stroke:none;fill-rule:nonzero;fill:rgb(94.566345%,78.735352%,11.99646%);fill-opacity:1;" d="M 11.996094 4.605469 C 12.121094 5.171875 11.714844 5.636719 11.535156 6.144531 C 10.574219 8.066406 9.417969 9.945312 8.847656 11.996094 C 8.820312 12.0625 8.78125 12.148438 8.707031 12.179688 C 8.625 12.199219 8.558594 12.160156 8.535156 12.101562 C 8.34375 11.285156 8.566406 10.4375 8.773438 9.664062 C 9.324219 7.9375 9.984375 6.175781 10.914062 4.574219 C 11.019531 4.492188 11.035156 4.421875 11.171875 4.382812 C 11.492188 4.351562 11.816406 4.375 11.996094 4.605469 "/>
<path style=" stroke:none;fill-rule:nonzero;fill:rgb(94.566345%,78.735352%,11.99646%);fill-opacity:1;" d="M 14.777344 4.703125 C 15.035156 4.898438 14.902344 5.265625 14.800781 5.496094 C 13.671875 7.992188 11.847656 10.144531 11.09375 12.761719 C 10.882812 13.316406 10.746094 13.890625 10.574219 14.449219 C 10.542969 14.550781 10.398438 14.554688 10.292969 14.527344 C 10.191406 14.289062 10.222656 13.988281 10.222656 13.734375 C 10.460938 11.628906 10.960938 9.585938 11.988281 7.753906 C 12.457031 6.839844 12.910156 6.015625 13.398438 5.125 C 13.535156 4.871094 13.769531 4.644531 14.105469 4.5625 C 14.355469 4.546875 14.59375 4.605469 14.777344 4.703125 "/>
<path style=" stroke:none;fill-rule:nonzero;fill:rgb(94.566345%,78.735352%,11.99646%);fill-opacity:1;" d="M 17.863281 4.832031 C 18.042969 5.132812 17.871094 5.46875 17.789062 5.757812 C 17.070312 7.761719 15.730469 9.421875 14.652344 11.25 C 13.730469 12.75 13.128906 14.417969 12.515625 16.046875 C 12.300781 16.539062 12.226562 17.082031 11.96875 17.546875 C 11.945312 17.597656 11.882812 17.566406 11.835938 17.578125 C 11.675781 17.445312 11.699219 17.253906 11.660156 17.085938 C 11.78125 15.046875 12.570312 13.203125 13.308594 11.359375 C 14.230469 9.308594 15.472656 7.347656 16.3125 5.222656 C 16.429688 4.957031 16.664062 4.628906 17.019531 4.527344 C 17.378906 4.472656 17.652344 4.601562 17.863281 4.832031 "/>
</g>
</svg>
