<svg xmlns="http://www.w3.org/2000/svg" width="176pt" height="70.747" viewBox="0 0 176 53.06"><defs><clipPath id="a"><path d="M48 0h27v53.059H48Zm0 0"/></clipPath><clipPath id="b"><path d="M0 0h68v53.059H0Zm0 0"/></clipPath></defs><path d="m74.922 16.672.664-1.574c.082-.25.371-.54.621-.54h17.727c.37 0 .582.415.457.66l-.707 1.743c-.207.371-.454.66-.954.703h-3.558c-.207 0-.664.371-.746.621L83 31.375c-.082.25-.582.746-.91.746h-7.13c-.327 0-.702-.371-.534-.746l5.672-13.379c.043-.125-.246-.332-.328-.332h-4.102c-.496 0-.996-.457-.746-.992M99.031 25.992l-1.949 2.899h1.988l-.414 2.359c-.082.621 0 .871.54.871h5.05c.5 0 1.121-.371 1.203-.871l2.696-15.988c.082-.414-.207-.664-.54-.664h-9.82c-.328 0-.746.25-.87.5L85.897 31.25c-.164.293.082.871.622.871h6.09c.91 0 1.199-.082 1.82-.871l5.718-8.82-.539 3.562zM117.754 27.273l1.324-3.187h.371c.332 0 .707-.293.828-.621l2.075-4.89c.082-.247-.082-.622-.332-.622h-1.286l-5.964 14.168h-7.125c-.497 0-1.118-.371-.91-.91l6.71-15.906c.29-.707.743-.707 1.078-.707h14.207c1.41 0 2.485 1.367 1.864 2.902l-2.985 6.957c-.289.871-1.367 1.7-2.48 1.7.742.62 1.031 2.609.7 3.48l-.618 1.613c-.207.414-.828.871-1.324.871h-5.844c-.496 0-.953-.621-.742-1.078l1.074-2.484c.29-.664-.21-1.286-.414-1.286zM161 22.18l-.168-6.918c0-.29-.496-.664-.742-.664h-5.887c-.453 0-.824 0-1.117.62l-6.668 15.825c-.29.707.207 1.078.703 1.078h6.176c.574 0 1.281-.414 1.527-.996l2.613-6.293.497 6.418c.043.996 1.12.5 1.535 0l5.094-6.75-2.653 6.625c-.289.871.621.996 1.117.996h5.594c.54 0 1.117-.457 1.324-.953l6.008-15.617c.164-.453-.125-.953-.539-.953h-7.996c-.453 0-.91.25-1.2.664zM140.906 18.035h.746c.25 0 .5.54.375.79l-3.851 9.155c-.125.372-.621.704-1.078.704h-.621c-.247 0-.622-.54-.497-.79l3.852-9.07c.164-.37.621-.789 1.074-.789m9.446-.867-5.465 12.922c-.414 1.078-1.992 2.031-3.153 2.031h-11.761c-1.243 0-2.446-2.195-1.95-3.437l5.551-13.133c.332-.703 1.246-.953 2.031-.953h13.34c.95 0 1.739 1.78 1.407 2.57M74.797 38.375l-.371.082v-4.223h.703c.371 0 .703.125.953.332.246.207.332.536.332.91 0 .29-.086.579-.25.786s-.414.332-.703.375l1.242 1.574-.332.207-1.574-2.07h.289c.289 0 .539-.086.707-.207.164-.168.246-.375.246-.664s-.082-.497-.246-.664c-.168-.165-.418-.208-.707-.208h-.29zM78.277 37.176c.125.246.29.496.496.703s.415.332.665.457c.289.082.535.121.828.121.289 0 .578-.039.828-.121.25-.125.453-.25.664-.457a2.2 2.2 0 0 0 .496-.703c.125-.293.164-.582.164-.871s-.04-.578-.164-.871a2.8 2.8 0 0 0-.496-.704 2.4 2.4 0 0 0-.664-.457 2.7 2.7 0 0 0-.828-.12c-.293 0-.54.038-.829.12-.25.125-.457.25-.664.457a2.8 2.8 0 0 0-.496.704 2.2 2.2 0 0 0-.168.87c0 .29.043.579.168.872m.703-2.156c.375-.372.79-.54 1.286-.54s.91.168 1.28.54c.333.332.5.789.5 1.285s-.167.953-.5 1.285c-.37.37-.784.539-1.28.539s-.91-.168-1.286-.54c-.332-.331-.496-.788-.496-1.284s.164-.953.496-1.285M84.242 38.457l-.375-.082.871-4.266 1.41 3.438 1.407-3.438.828 4.266-.332.082-.621-3.148-1.282 3.148-1.285-3.148zM90.742 36.719h1.828l.868 1.699.37-.125-2.109-4.184-2.195 4.227.371.082Zm1.66-.332H90.91l.746-1.489zM95.633 38.375l-.371.082v-4.305l2.773 3.356v-3.274l.371-.082v4.305l-2.773-3.355zM100.77 38.375l-.375.043v-4.184l.375-.043zM103.46 36.719h1.864l.871 1.699.332-.125-2.113-4.184-2.152 4.227.332.082Zm1.7-.332h-1.488l.742-1.489zM108.352 38.375l-.375.082v-4.305l2.816 3.356v-3.274l.371-.082v4.305l-2.812-3.355zM116.719 36.719h1.82l.871 1.699.371-.125-2.11-4.184-2.194 4.227.37.082Zm1.656-.332h-1.492l.746-1.489zM121.605 38.375l-.375.043v-4.184l.375-.043zM123.969 38.375l-.332.082v-4.223h.66c.418 0 .707.125.953.332.25.207.371.536.371.91 0 .29-.082.579-.285.786-.168.207-.414.332-.703.375l1.281 1.574-.332.207-1.613-2.07h.289c.332 0 .539-.086.703-.207.168-.168.25-.375.25-.664s-.082-.497-.25-.664c-.164-.165-.371-.208-.703-.208h-.29zM131.508 38.375l-.375.043v-3.813h-1.16l.082-.37h2.484v.37h-1.031zM134.613 38.375l-.375.082v-4.223h.664c.414 0 .746.125.953.332.25.207.375.536.375.91 0 .29-.085.579-.25.786-.21.207-.417.332-.75.375l1.29 1.574-.333.207-1.574-2.07h.29c.288 0 .538-.086.702-.207.165-.168.25-.375.25-.664s-.085-.497-.25-.664c-.164-.165-.414-.208-.703-.208h-.289zM138.922 36.719h1.82l.871 1.699.328-.125-2.109-4.184-2.152 4.227.328.082Zm1.656-.332h-1.492l.746-1.489zM143.766 38.375l-.328.082v-4.305l2.773 3.356v-3.274l.375-.082v4.305l-2.82-3.355zM148.363 37.715l.332-.207c.125.207.25.328.414.453.164.082.375.125.582.125.246 0 .454-.043.66-.207a.8.8 0 0 0 .25-.578q0-.626-.996-.871c-.082-.043-.12-.043-.164-.082-.332-.086-.582-.207-.746-.414-.164-.168-.207-.375-.207-.664 0-.333.082-.583.332-.79.246-.207.54-.328.871-.328.246 0 .414.04.621.121.165.086.333.207.497.375l-.207.29c-.165-.165-.332-.29-.457-.333a.95.95 0 0 0-.454-.125.76.76 0 0 0-.582.25c-.164.168-.25.333-.25.54 0 .125.043.25.086.37.082.087.164.169.29.25.081.044.25.126.495.165.165.043.25.086.333.125.289.082.539.25.707.414.125.168.207.414.207.664q0 .496-.375.87c-.25.208-.54.329-.954.329-.25 0-.5-.082-.703-.207-.25-.121-.414-.29-.582-.535M153.172 37.008h.328c.414 0 .79-.125 1.035-.371.29-.25.414-.582.414-1.035 0-.414-.125-.747-.414-.997-.246-.246-.62-.37-1.035-.37h-.703v4.222l.375-.082Zm1.117-2.153c.207.208.29.454.29.747 0 .332-.083.578-.29.785-.207.168-.457.25-.789.25h-.328v-2.032h.328c.332 0 .582.083.79.25M156.73 37.176c.125.246.29.496.5.703.208.207.415.332.665.457a2.911 2.911 0 0 0 1.656 0c.25-.125.453-.25.664-.457.203-.207.37-.414.496-.703.121-.293.164-.582.164-.871s-.043-.578-.164-.871a2.9 2.9 0 0 0-.496-.704c-.211-.207-.457-.332-.707-.457a2.4 2.4 0 0 0-.785-.12c-.293 0-.582.038-.828.12-.25.125-.458.25-.665.457-.21.208-.375.458-.5.704a2.2 2.2 0 0 0-.164.87c0 .29.04.579.164.872m.708-2.156a1.73 1.73 0 0 1 1.285-.54c.496 0 .91.168 1.28.54.333.332.5.789.5 1.285s-.167.953-.5 1.285c-.37.37-.784.539-1.28.539s-.953-.168-1.286-.54c-.332-.331-.5-.788-.5-1.284s.168-.953.5-1.285M163.027 38.375l-.37.082v-4.223h.702c.371 0 .703.125.953.332s.333.536.333.91c0 .29-.083.579-.25.786-.165.207-.415.332-.704.375l1.243 1.574-.332.207-1.575-2.07h.29c.292 0 .538-.086.706-.207.165-.168.247-.375.247-.664s-.083-.497-.247-.664c-.168-.165-.414-.208-.707-.208h-.289zM167.668 38.375l-.371.043v-3.813h-1.16l.082-.37h2.484v.37h-1.035z" style="stroke:none;fill-rule:evenodd;fill:#2850a8;fill-opacity:1"/><g clip-path="url(#a)"><path d="M48.29 53.059h4.183L74.758.079h-4.223z" style="stroke:none;fill-rule:evenodd;fill:#264fa2;fill-opacity:1"/></g><g clip-path="url(#b)"><path d="M1.367 53.02h42.707l.414-.043.371-.082.375-.208.371-.207.375-.25.29-.328.25-.332.125-.375L67.312 1.82l.126-.375.039-.289-.04-.332-.082-.289-.207-.207-.25-.164L66.61.04l-.375-.043H49.5l-.371.082-.332.125-.332.168-.332.246-.621.582-.621.621L.289 51.195l-.207.332-.082.29.043.292.121.29.207.246.293.207.328.125z" style="stroke:none;fill-rule:evenodd;fill:#264fa2;fill-opacity:1"/></g><path d="m39.684 35.992 5.382 4.434-10.023-4.969c-.91-.25-1.82-.293-2.648-.332-.997-.043-1.868.125-2.903.29 1.95 3.769 5.883 6.378 10.48 6.378 3.977 0 7.54-2.07 9.653-5.219Zm-.746-1.777 10.769 1.988a11.63 11.63 0 0 0 1.656-6.05c0-3.395-1.492-6.505-3.851-8.657Zm-3.934-.54c-.996-.124-1.574-.292-2.402-.206-.954.082-2.239.91-3.067 1.82-.703-1.492-1.078-3.187-1.078-4.969 0-6.379 5.219-11.64 11.684-11.64 2.773 0 5.34.992 7.37 2.652Zm5.05-15.991c6.919 0 12.551 5.675 12.551 12.593 0 6.961-5.632 12.633-12.55 12.633-6.957 0-12.672-5.672-12.672-12.633 0-6.918 5.715-12.593 12.672-12.593" style="stroke:none;fill-rule:evenodd;fill:#fff;fill-opacity:1"/></svg>