<svg xmlns="http://www.w3.org/2000/svg" width="176pt" height="55.707" viewBox="0 0 176 41.78"><defs><clipPath id="a"><path d="M0 0h42v41.781H0Zm0 0"/></clipPath></defs><path d="m64.3 29.973-2.183-6.996-1.762 1.906-.898 5.09h-7.36l3.485-19.754h7.36l-1.317 7.469 6.156-7.47h8.735l-8.164 8.368 4.593 11.387zM83.414 23.93a1.3 1.3 0 0 0-.332-.016 5 5 0 0 1-.394.016q-.311.002-.68.054-.376.06-.711.211a1.8 1.8 0 0 0-.594.434q-.258.281-.34.726-.095.56.18.899.275.335.754.336.808-.001 1.351-.535c.309-.278.512-.668.598-1.172Zm6.758 5.96q-.755.14-1.598.25c-.562.079-1.133.114-1.71.114-1.067 0-1.895-.164-2.493-.488-.594-.328-.965-.77-1.105-1.332q-1.16 1.007-2.368 1.511-1.205.504-3.027.504-1.036.002-1.855-.336a3.56 3.56 0 0 1-1.36-.937q-.54-.6-.75-1.469-.21-.868-.023-1.93c.191-1.101.605-1.984 1.234-2.644a6.2 6.2 0 0 1 2.227-1.512 10.6 10.6 0 0 1 2.738-.687 25 25 0 0 1 2.8-.164c.333 0 .598-.032.798-.086q.292-.083.363-.477l.031-.168a1.2 1.2 0 0 0-.023-.504q-.07-.252-.356-.445c-.191-.133-.472-.238-.84-.324q-.55-.124-1.445-.125-2.326 0-4.543 1.007l-.164-4.476a22.3 22.3 0 0 1 3.57-.73 29 29 0 0 1 3.254-.196c.989 0 1.953.082 2.895.238.941.16 1.762.45 2.453.868a3.92 3.92 0 0 1 1.55 1.75q.517 1.12.212 2.855l-.942 5.344c-.039.207-.047.418-.03.644q.025.335.472.336.28 0 .527-.14zM110.586 29.973l1.539-8.73q.164-.923-.129-1.259-.287-.334-.851-.336-.307 0-.582.141a1.9 1.9 0 0 0-.477.336q-.375.363-.492.645a3.3 3.3 0 0 0-.203.753l-1.493 8.45h-6.828l1.54-8.73c.109-.614.07-1.036-.126-1.259q-.281-.334-.84-.336a1.25 1.25 0 0 0-.578.141 1.9 1.9 0 0 0-.472.336q-.37.363-.489.645a3.3 3.3 0 0 0-.203.753l-1.492 8.45h-6.883l2.692-15.25h6.238l-.367 2.097a9.6 9.6 0 0 1 2.48-1.875q1.36-.698 3.035-.699 1.822 0 2.79.688a3.3 3.3 0 0 1 1.304 1.804 10 10 0 0 1 2.446-1.804q1.324-.687 2.976-.688 1.369.001 2.27.395c.593.257 1.054.625 1.375 1.09q.476.697.59 1.636.116.938-.079 2.028l-1.863 10.578zM140.477 18.527q-.028-.473-.067-1.047-.04-.575-.07-1.105-.035-.532-.05-.996a7 7 0 0 1 0-.711h-.056c-.07.184-.16.43-.265.727-.114.296-.239.62-.383.964-.145.348-.297.703-.453 1.078q-.241.56-.442 1.063l-1.613 3.75h3.664Zm.835 11.446-.199-2.825h-6.133l-1.222 2.825h-7.11l9.5-19.754h10.72l2.53 19.754zM150.969 29.973l2.687-15.25h6.883l-2.687 15.25Zm10.261-18.524c-.152.86-.593 1.52-1.332 1.985q-1.102.702-2.668.703-1.593 0-2.46-.715-.873-.714-.649-1.973.093-.532.402-1.023.312-.487.813-.867a4.1 4.1 0 0 1 1.21-.602c.477-.148 1.02-.223 1.638-.223q1.677-.001 2.468.743c.532.492.723 1.152.578 1.972M174.031 20.434a2.2 2.2 0 0 0-.969-.547 4 4 0 0 0-1.035-.157q-.783 0-1.27.211-.483.212-.745.434-.363.31-.54.672-.175.364-.327 1.203l-1.36 7.723h-6.883l1.973-11.192q.082-.474.176-1.078a53 53 0 0 0 .297-2.238q.06-.491.101-.742h6.324l-.375 2.125q.462-.448.97-.907.502-.463 1.089-.84c.39-.253.824-.456 1.3-.617a5 5 0 0 1 1.552-.238q.42 0 .87.059.452.053.821.195z" style="stroke:none;fill-rule:nonzero;fill:#2a4ea8;fill-opacity:1"/><g clip-path="url(#a)"><path d="M41.781 20.89c0 11.536-9.355 20.891-20.89 20.891C9.35 41.781 0 32.426 0 20.891 0 9.35 9.352 0 20.89 0c11.536 0 20.891 9.352 20.891 20.89" style="stroke:none;fill-rule:nonzero;fill:#f57f1d;fill-opacity:1"/></g><path d="M7.938 35.18S3.625 24.69 12.152 18.148c-1.53-.265-2.058-1.703-3.16-2.613 1.242.094 3.977-2.156 5.746-.098 1.438-3.066 8.051-11.113 19.84-8.816 0 0-12.172 1.438-15.238 9.777-.48.957 6.945 4.36 10.734 5.559-3.195-.48-4.219-.96-4.41-.48s3.164 2.3 3.164 2.3-4.61-1.812-5.285-1.867c-5.75-.48-7.75-2.351-8.324-1.777s-6.996 4.12-7.281 15.047M7.938 35.18h26.015v.383H7.937z" style="stroke:none;fill-rule:nonzero;fill:#2a4ea8;fill-opacity:1"/><path d="M28.348 23.871h11.93v-.43h-11.93zM40.613 22.004H30.168v.43h10.445z" style="stroke:none;fill-rule:nonzero;fill:#2a4ea8;fill-opacity:1"/></svg>