<svg xmlns="http://www.w3.org/2000/svg" width="176pt" height="60.173" viewBox="0 0 176 45.13"><defs><clipPath id="a"><path d="M48 8h128v37.129H48Zm0 0"/></clipPath><clipPath id="b"><path d="M94 45h4v.129h-4Zm0 0"/></clipPath></defs><g clip-path="url(#a)"><path d="m114.824 29.664.059.023c2.722-2.617 5.445-5.234 8.195-7.875h-6.887c-.457 2.633-.914 5.243-1.367 7.852m19.262.871c2.726 0 5.402 0 8.078.004a.63.63 0 0 0 .48-.187c1.114-1.079 2.239-2.145 3.352-3.22 1.688-1.616 3.367-3.237 5.05-4.859.15-.14.29-.289.474-.476h-8.168c-.028-.067-.043-.106-.079-.184-3.074 2.985-6.117 5.938-9.187 8.922m-6.324 2.598a2 2 0 0 0-.075-.113c.06-.028.13-.047.176-.09q1.143-1.102 2.285-2.207 1.348-1.306 2.696-2.618l2.836-2.753c1.082-1.051 2.168-2.106 3.25-3.16 1.32-1.29 2.64-2.583 3.968-3.868a.9.9 0 0 0 .278-.527c.176-1.047.367-2.094.554-3.14l.61-3.333c.031-.168.055-.34.086-.515h-24.957c-.504 2.78-1 5.55-1.504 8.355h11.652c-.476.461-.91.867-1.336 1.277l-4.023 3.864c-.594.574-1.195 1.14-1.79 1.715q-2.068 1.98-4.132 3.972c-.957.922-1.902 1.856-2.875 2.766-.352.328-.64.664-.629 1.172 0 .035-.023.074-.027.113q-.217 1.171-.422 2.344c-.14.808-.278 1.617-.422 2.425-.168.922-.34 1.84-.504 2.762-.008.043.016.094.02.13h25.757c.512-2.856 1.02-5.7 1.536-8.571zm28.328-.012c.344-.316.61-.559.867-.809.977-.94 1.945-1.89 2.918-2.835.871-.844 1.746-1.688 2.617-2.536l2.863-2.78q1.332-1.296 2.668-2.59c.98-.954 1.95-1.923 2.95-2.856.402-.375.668-.77.734-1.332.094-.762.27-1.512.406-2.27.149-.82.293-1.64.442-2.46l.328-1.844h-24.965c-.258 1.406-.516 2.793-.758 4.183-.242 1.383-.512 2.758-.738 4.176h11.605c-.144.148-.246.258-.355.363-.578.555-1.16 1.11-1.734 1.66q-1.025.981-2.043 1.961-2.08 2-4.16 4c-.66.637-1.325 1.27-1.981 1.907q-2.068 1.987-4.137 3.968a.94.94 0 0 0-.293.567 62 62 0 0 1-.328 1.933c-.14.797-.297 1.59-.437 2.383-.153.832-.297 1.664-.446 2.5-.074.422-.14.848-.215 1.293h25.805c.516-2.848 1.027-5.7 1.55-8.582zm-50.606-22.316c-.097.554-.191 1.093-.289 1.636q-.293 1.589-.593 3.176c-.172.918-.34 1.84-.512 2.758-.164.883-.332 1.766-.492 2.648-.192 1.059-.375 2.122-.57 3.18-.165.895-.34 1.79-.516 2.68-.18.945-.352 1.89-.551 2.828-.145.68-.356 1.34-.7 1.95-.542.952-1.343 1.593-2.39 1.89a5.9 5.9 0 0 1-2.793.09c-.851-.176-1.55-.61-2.035-1.356-.531-.82-.664-1.75-.664-2.691.004-.793.18-1.574.34-2.356.176-.879.32-1.765.48-2.648q.252-1.442.516-2.88c.133-.745.273-1.487.41-2.233.152-.832.297-1.665.45-2.497.132-.746.269-1.488.405-2.234.172-.957.348-1.918.516-2.879.063-.347.125-.695.188-1.058H86.547c-.04.191-.074.363-.106.539q-.203 1.217-.414 2.43c-.144.831-.293 1.667-.437 2.5q-.216 1.232-.426 2.464c-.168.95-.34 1.895-.5 2.84-.144.824-.273 1.648-.414 2.469-.172.984-.352 1.969-.523 2.953-.137.797-.282 1.594-.399 2.39-.137.903-.281 1.801-.36 2.708a9 9 0 0 0 .126 2.425c.18.985.511 1.903 1.035 2.754 1.094 1.778 2.676 2.98 4.558 3.805 1.95.855 4.012 1.27 6.13 1.387 1.867.101 3.734.054 5.59-.282 1.472-.27 2.894-.695 4.241-1.343 2.649-1.274 4.637-3.215 5.93-5.86.926-1.89 1.383-3.906 1.703-5.968.13-.825.281-1.645.426-2.465.168-.961.34-1.918.508-2.88.113-.667.23-1.34.347-2.007.141-.797.286-1.59.422-2.387.145-.824.274-1.644.418-2.468.141-.793.293-1.586.434-2.383.152-.856.3-1.72.445-2.578q.087-.515.172-1.047zM74.867 25.57c.035-.062.035-.078.043-.082a.4.4 0 0 1 .11-.043 9.3 9.3 0 0 0 3.84-2.133c1.367-1.246 2.09-2.808 2.288-4.625.063-.597.094-1.199.028-1.808-.078-.695-.223-1.367-.531-1.996-.489-.992-1.22-1.778-2.133-2.395-1.051-.707-2.211-1.136-3.446-1.386-.816-.168-1.644-.301-2.48-.301-4.902-.016-9.8-.012-14.703-.012-.098 0-.196.016-.281.024-1.848 10.312-3.692 20.59-5.54 30.906h.45c4.77 0 9.543.004 14.312-.004q.869.002 1.739-.067c.675-.058 1.355-.14 2.027-.238a15.3 15.3 0 0 0 3.523-.941c1.203-.485 2.317-1.114 3.29-1.989 1.734-1.562 2.613-3.523 2.738-5.84a7.5 7.5 0 0 0-.149-1.96c-.254-1.235-.793-2.325-1.676-3.239a6.15 6.15 0 0 0-2.632-1.617c-.27-.086-.536-.168-.817-.254m6.61-1.136c-.418.394-.836.785-1.262 1.183.312.375.613.738.91 1.102.082-.457.168-.899.238-1.34.047-.317.07-.633.106-.95.02-.03.039-.066.011-.023.012-.047.004-.008-.003.028m13.191 20.695c-.04-.024-.074-.07-.113-.074-.524-.055-1.051-.098-1.575-.157a19 19 0 0 1-4.449-1.062c-1.586-.582-3.043-1.383-4.328-2.484a11.1 11.1 0 0 1-2.664-3.336c-.05-.106-.113-.203-.172-.313-1.312 2.254-3.215 3.813-5.555 4.875-1.503.688-3.082 1.133-4.714 1.399a24 24 0 0 1-3.032.32c-.746.023-1.496.05-2.246.05-5.468.005-10.941.005-16.41.005h-.472c1.078-6.063 2.164-12.086 3.238-18.11 1.078-6.015 2.16-12.031 3.242-18.074h.363c5.457 0 10.918-.02 16.375.012 1.977.011 3.922.304 5.774 1.058 1.886.766 3.46 1.93 4.582 3.653.273.418.492.87.758 1.351.168-.676.242-1.344.367-2 .133-.68.23-1.367.351-2.05.114-.672.235-1.337.356-2.005H99.8c-.035.247-.059.473-.102.696-.273 1.492-.554 2.98-.828 4.472-.246 1.364-.476 2.73-.723 4.098-.246 1.352-.507 2.7-.75 4.05-.273 1.505-.53 3.013-.804 4.517-.188 1.062-.395 2.12-.586 3.183a2.4 2.4 0 0 0 .074 1.145c.148.472.512.742 1.008.761.191.012.387 0 .578 0 .742-.004 1.223-.386 1.46-1.054.18-.492.325-1 .423-1.516.304-1.574.582-3.156.875-4.734.242-1.313.5-2.625.742-3.938.223-1.187.426-2.375.644-3.562.196-1.063.407-2.121.598-3.18.223-1.187.43-2.379.645-3.566.082-.442.168-.883.257-1.371.13-.008.266-.016.403-.016q3.586-.005 7.18-.004h64.68c.144 0 .284-.012.425-.016v.387c-.023.027-.062.055-.066.082-.293 1.645-.582 3.29-.88 4.934l-.925 5.117c-.14.765-.145.758-.57 1.172a1160 1160 0 0 0-3.871 3.742c-.836.809-1.672 1.613-2.508 2.426q-2.192 2.134-4.383 4.273c-.074.07-.137.152-.234.266h9.8c-.164.953-.324 1.875-.488 2.793-.168.922-.344 1.843-.512 2.765-.168.91-.324 1.82-.488 2.73-.164.923-.316 1.849-.496 2.77-.176.914-.3 1.836-.516 2.723H110.32l.98-5.523c-.3.347-.534.636-.784.91a15 15 0 0 1-4.426 3.328c-2.461 1.234-5.078 1.863-7.82 2.008-.063.004-.125.05-.188.074h-.234c-.035-.027-.07-.074-.11-.074-.883-.008-1.77-.008-2.652 0-.035 0-.07.047-.11.074z" style="stroke:none;fill-rule:nonzero;fill:#13110f;fill-opacity:1"/></g><g clip-path="url(#b)"><path d="M94.977 45.129c.039-.027.074-.074.109-.074.883-.008 1.77-.008 2.652 0 .04 0 .075.047.11.074z" style="stroke:none;fill-rule:nonzero;fill:#433e3d;fill-opacity:1"/></g><path d="M33.836 18.574q-.036-.016-.074-.031l-.012.223q.02.005.04.004zm-.152.383c-.106.188-.215.367-.16.594.105-.184.199-.371.16-.594m-2.641 9.715c.11-.117.207-.223.305-.324q.299-.311.41-.727c.172-.633-.215-1.52-1.106-1.566a3.1 3.1 0 0 0-1.246.191q-1.352.503-2.699 1.012c-.082.031-.156.078-.238.117.164 1.016.312 2.012.488 3.008.172.988.3 1.984.512 2.98.957-.363 1.87-.695 2.773-1.054a7.5 7.5 0 0 0 1.207-.586c.5-.309.914-.707 1.082-1.305a1.337 1.337 0 0 0-.914-1.664c-.183-.05-.379-.055-.574-.082m-6.578 9.976c.183.153.308.262.437.36 1.11.84 2.285 1.582 3.473 2.3.637.387 1.328.563 2.043.63a7.4 7.4 0 0 0 2.035-.126c1.426-.269 2.719-.82 3.86-1.722.539-.426 1.015-.914 1.218-1.602.442-1.488.79-2.996 1.086-4.52.051-.245.067-.495.11-.816-4.024 3.766-8.793 5.414-14.262 5.496m12.11-15.097c-.602.945-1.192 1.832-1.891 2.644-.707.82-1.504 1.54-2.364 2.196.063.062.086.093.117.117.872.676.973 2.133.133 3.035a4.3 4.3 0 0 1-1.605 1.11c-1.149.449-2.3.878-3.45 1.312-.163.062-.328.117-.515.183-.2-1.175-.39-2.304-.582-3.449-1.195.153-2.36.14-3.516.07-1.144-.066-2.277-.273-3.414-.527.43 2.07.985 3.66 1.578 4.512.196.023.41.059.63.078.792.07 1.585.16 2.378.195.54.028 1.078-.027 1.621-.039a14.5 14.5 0 0 0 3.012-.422c2.77-.671 5.18-2.015 7.262-3.957.926-.867 1.75-1.824 2.535-2.875-.363-1.488-1.031-2.859-1.93-4.183M19.698 33.582a21.6 21.6 0 0 1-3.96 1.484 1.06 1.06 0 0 0-.458.274c-.64.66-1.187 1.387-1.511 2.262-.504 1.367-.477 2.699.27 3.972.663 1.137 1.683 1.75 2.995 1.832.692.043 1.356-.129 1.985-.414a16.7 16.7 0 0 0 3.937-2.558c.379-.325.738-.672 1.121-1.024-.965-.812-1.812-1.672-2.547-2.644a14.4 14.4 0 0 1-1.832-3.184m19.82-.437c.114.011.188.027.262.027q.576-.02 1.157-.04c1.359-.042 2.687-.284 3.992-.652.53-.148 1.05-.328 1.535-.609 1.488-.855 2.277-2.492 1.785-4.246-.344-1.215-1.11-2.102-2.195-2.727-.828-.48-1.742-.671-2.684-.765-.387-.035-.738.023-1.066.238-.184.121-.387.207-.578.309-.985.5-2.008.91-3.07 1.258.91 2.324 1.128 4.73.863 7.207M18.767 26.8c-.047-.035-.075-.063-.106-.086-1.926-1.184-3.95-2.149-6.137-2.75-1.738-.48-3.5-.73-5.308-.55-1.098.108-2.156.347-3.172.773-.723.304-1.379.703-1.91 1.285-.582.632-.899 1.367-.926 2.234-.027.871.215 1.676.621 2.438.598 1.125 1.457 2.023 2.492 2.761 1.528 1.086 3.23 1.688 5.106 1.77 1.254.058 2.504-.07 3.738-.266a21 21 0 0 0 4.316-1.144 14 14 0 0 0 1.817-.813 13.8 13.8 0 0 1-.531-5.652m19.382-1.961c.106-.024.18-.031.25-.059.625-.238 1.258-.453 1.868-.718 1.87-.81 3.566-1.907 5.14-3.192.801-.652 1.563-1.348 2.164-2.203 1.348-1.918 2.016-4.031 1.778-6.39-.098-.962-.36-1.868-.895-2.68-.55-.84-1.293-1.422-2.308-1.614-.75-.144-1.485-.07-2.211.149-1.602.484-2.957 1.375-4.16 2.508-1.09 1.027-1.97 2.218-2.72 3.507-.964 1.665-1.671 3.438-2.214 5.278-.094.32-.168.644-.25.965 1.476 1.254 2.68 2.699 3.558 4.449m-14.476.988a9.82 9.82 0 0 0 9.824-9.621c.059-2.809-.95-5.227-2.96-7.21-1.907-1.884-4.24-2.825-6.888-2.821-2.68 0-5.027.972-6.937 2.887-1.906 1.914-2.898 4.25-2.887 6.933.024 5.547 4.453 9.817 9.848 9.832m10.262-7.566c.507-1.453 1.074-2.883 1.816-4.235.809-1.476 1.773-2.843 2.973-4.027 1.355-1.336 2.902-2.387 4.73-2.977 1.207-.386 2.418-.468 3.629-.023 1.14.418 1.969 1.207 2.563 2.246.472.824.742 1.715.863 2.652.273 2.079-.113 4.043-1.02 5.915-.691 1.425-1.683 2.62-2.902 3.628-.617.508-1.262.98-1.895 1.473-.058.047-.109.102-.18.172 1.087.215 2.067.613 2.915 1.289 1.215.969 1.98 2.215 2.125 3.766.176 1.879-.54 3.39-2.082 4.504-.754.546-1.621.828-2.504 1.066-1.106.297-2.23.512-3.38.566l-2.214.106c-.14.61-.27 1.246-.434 1.875-.394 1.5-.82 2.992-1.457 4.41-.64 1.43-1.75 2.32-3.277 2.676-.773.176-1.55.187-2.344.093-.945-.105-1.82-.39-2.664-.808-1.445-.719-2.847-1.5-4.164-2.465-.343.316-.683.625-1.023.938a18.1 18.1 0 0 1-4.211 2.847c-.875.43-1.8.68-2.79.64-1.359-.054-2.5-.589-3.402-1.593-1.082-1.207-1.48-2.656-1.335-4.254.097-1.066.507-2.035 1.078-2.937.043-.063.09-.125.16-.227-.336.04-.625.07-.918.11-1.086.148-2.18.269-3.274.19-2.941-.206-5.449-1.355-7.425-3.558-.883-.98-1.516-2.105-1.778-3.414-.308-1.547.012-2.933 1.043-4.14.785-.914 1.805-1.473 2.918-1.88 1.57-.573 3.196-.761 4.86-.702 1.359.043 2.683.285 3.984.652 2.004.566 3.89 1.398 5.684 2.45.09.05.175.105.27.144.03.011.081-.04.16-.078-3.528-1.965-5.587-4.891-5.75-8.922-.16-4.024 1.628-7.106 4.968-9.344l-1.398-1.64c-.551.148-.91.038-1.137-.329a.8.8 0 0 1 .11-1c.288-.281.577-.34.952-.187.399.164.535.539.438 1.16l1.812 1.14c.028-.015.04-.02.051-.027.008-.008.024-.012.027-.023.016-.047.04-.098.043-.145.137-1.488.27-2.972.403-4.441-.422-.453-.508-.824-.281-1.184.199-.316.59-.472.94-.383.333.086.622.457.622.805 0 .406-.266.695-.836.875.024 1.477.156 2.957.176 4.473.379-.102.726-.196 1.07-.278a10 10 0 0 1 3.445-.238c1.782.184 3.407.766 4.875 1.777 2.122 1.465 3.493 3.461 4.176 5.938.328 1.195.371 2.414.29 3.64-.024.395-.118.786-.176 1.176q-.023.129-.04.258l.063.012z" style="stroke:none;fill-rule:nonzero;fill:#151311;fill-opacity:1"/><path d="M64.969 22.883c1.12 0 2.203.015 3.289-.004.394-.008.8-.059 1.18-.168.976-.273 1.78-.938 1.738-2.27-.024-.843-.504-1.289-1.051-1.507a4.2 4.2 0 0 0-1.578-.32c-.89-.005-1.785 0-2.676 0-.074 0-.144.023-.21.034zm-1.957 10.949c.039.027.05.043.062.043 1.301-.012 2.606.059 3.906-.07.547-.055 1.09-.157 1.602-.387.719-.324 1.227-.832 1.367-1.64.18-1.02-.187-1.907-1.297-2.325-.504-.187-1.027-.254-1.547-.27-1.066-.035-2.14-.011-3.25-.011-.28 1.558-.562 3.105-.843 4.66m11.855-8.262c.281.086.547.168.817.254a6.15 6.15 0 0 1 2.632 1.617c.883.914 1.422 2.004 1.676 3.239.133.648.188 1.3.149 1.96-.125 2.317-1.004 4.278-2.739 5.84-.972.875-2.086 1.504-3.289 1.989-1.136.453-2.312.77-3.523.941-.672.098-1.352.18-2.028.238q-.869.069-1.738.067c-4.77.008-9.543.004-14.312.004h-.45c1.848-10.317 3.692-20.594 5.54-30.906.086-.008.183-.024.28-.024 4.903 0 9.802-.004 14.704.012.836 0 1.664.133 2.48.3 1.235.25 2.395.68 3.446 1.387.914.617 1.644 1.403 2.133 2.395.308.629.453 1.3.53 1.996.067.61.036 1.21-.027 1.808-.199 1.817-.921 3.38-2.289 4.625a9.3 9.3 0 0 1-3.84 2.133.4.4 0 0 0-.109.043c-.008.004-.008.02-.043.082M105.484 10.805h9.97c-.06.355-.114.703-.173 1.047-.144.859-.293 1.722-.445 2.578-.14.797-.293 1.59-.434 2.383-.144.824-.273 1.644-.418 2.468-.136.797-.28 1.59-.421 2.387-.118.668-.235 1.34-.348 2.008-.168.96-.34 1.918-.508 2.879-.144.82-.297 1.64-.426 2.465-.32 2.062-.777 4.078-1.703 5.968-1.293 2.645-3.281 4.586-5.93 5.86-1.347.648-2.77 1.074-4.242 1.343-1.855.336-3.722.383-5.59.282-2.117-.118-4.18-.532-6.129-1.387-1.882-.824-3.464-2.027-4.558-3.805a7.9 7.9 0 0 1-1.035-2.754 9 9 0 0 1-.125-2.425c.078-.907.222-1.805.36-2.707.116-.797.26-1.594.398-2.391.171-.984.351-1.969.523-2.953.14-.82.27-1.645.414-2.469.16-.945.332-1.89.5-2.84q.21-1.232.426-2.465c.144-.832.293-1.668.437-2.5q.21-1.211.414-2.43c.032-.175.067-.347.106-.538h10.137c-.063.363-.125.71-.188 1.058-.168.961-.344 1.922-.516 2.88q-.205 1.116-.406 2.233c-.152.832-.297 1.665-.449 2.497-.137.746-.277 1.488-.41 2.234q-.264 1.436-.516 2.879c-.16.883-.304 1.77-.48 2.648-.16.782-.336 1.563-.34 2.356 0 .941.133 1.87.664 2.691.484.746 1.184 1.18 2.035 1.356.93.187 1.879.168 2.793-.09 1.047-.297 1.848-.938 2.39-1.89.344-.61.555-1.27.7-1.95.2-.938.371-1.883.55-2.828.177-.89.352-1.785.516-2.68.196-1.058.38-2.121.57-3.18.16-.882.329-1.765.493-2.648.172-.918.34-1.84.512-2.758q.3-1.587.593-3.176c.098-.543.192-1.082.29-1.636M156.09 33.121h13.164c-.524 2.883-1.035 5.734-1.55 8.582h-25.806c.075-.445.141-.871.215-1.293.149-.836.293-1.668.446-2.5.14-.793.296-1.586.437-2.383.117-.64.23-1.285.328-1.933a.94.94 0 0 1 .293-.567q2.07-1.981 4.137-3.968c.656-.637 1.32-1.27 1.98-1.907q2.08-2 4.16-4c.68-.652 1.36-1.308 2.043-1.96l1.735-1.66c.11-.106.21-.216.355-.364h-11.605c.226-1.418.496-2.793.738-4.176.242-1.39.5-2.777.758-4.183h24.965l-.328 1.843c-.149.82-.293 1.641-.442 2.461-.136.758-.312 1.508-.406 2.27-.066.562-.332.957-.734 1.332-1 .933-1.97 1.902-2.95 2.855l-2.668 2.59-2.863 2.781c-.87.848-1.746 1.692-2.617 2.536-.973.945-1.941 1.894-2.918 2.835-.258.25-.523.493-.867.81M127.762 33.133h13.008c-.516 2.87-1.024 5.715-1.536 8.57h-25.757c-.004-.035-.028-.086-.02-.129.164-.922.336-1.84.504-2.761.144-.81.281-1.618.422-2.426q.205-1.173.422-2.344c.004-.04.027-.078.027-.113-.012-.508.277-.844.629-1.172.973-.91 1.918-1.844 2.875-2.766Q120.4 28 122.469 26.02c.594-.575 1.195-1.141 1.789-1.715l4.023-3.864c.426-.41.86-.816 1.336-1.277h-11.652c.504-2.805 1-5.574 1.504-8.355h24.957c-.031.175-.055.347-.086.515l-.61 3.332c-.187 1.047-.378 2.094-.554 3.14a.9.9 0 0 1-.278.528c-1.328 1.285-2.648 2.578-3.968 3.867-1.082 1.055-2.168 2.11-3.25 3.16q-1.418 1.378-2.836 2.754-1.348 1.312-2.696 2.618-1.142 1.106-2.285 2.207c-.047.043-.117.062-.175.09.027.039.05.074.074.113" style="stroke:none;fill-rule:nonzero;fill:#f5ce0f;fill-opacity:1"/><path d="M81.477 24.434c.007-.036.015-.075.003-.028.028-.043.008-.008-.011.024z" style="stroke:none;fill-rule:nonzero;fill:#f8f7f7;fill-opacity:1"/><path d="M21.066 20.105c-.433-.011-.539.051-.632.31-.07.202-.032.315.207.5-.075-.356.004-.63.425-.81m8.23-2.656c.028-.351-.07-.508-.327-.59-.227-.07-.407.008-.559.25.375-.109.68-.03.887.34m-8.394 2.957c-.16.192-.07.34.016.485.203.332.453.629.758.87.836.669 1.781.989 2.86.977 1.292-.015 2.386-.48 3.3-1.37.785-.766 1.207-1.716 1.3-2.805a3.3 3.3 0 0 0-.124-1.149c-.063-.215-.23-.262-.41-.129-.043.031-.075.07-.114.106-1.394 1.273-3.011 2.132-4.832 2.629-.898.242-1.816.328-2.754.386m-3.683-3.883c.468.622 1.097 1.008 1.828 1.25.226.079.433.102.664.008.2-.082.414-.117.625-.172q.69-.189 1.383-.37l.324-.04c.02-.219.066-.422.05-.625a10 10 0 0 0-.144-1.137c-.25-1.32-.937-2.37-1.996-3.187-.976-.758-2.316-.578-3.11.367-.519.621-.683 1.324-.495 2.125.14.606.347 1.172.777 1.64zm7.84-1.554q.041.036.078.074c.074.34.39.441.625.676.105-.106.203-.196.293-.29v.005c.09-.032.191-.055.273-.102.402-.219.793-.453 1.195-.668.637-.34.641-.336.926-.973.004-.011 0-.027 0-.039.11-.394.27-.777.313-1.18.129-1.257-.29-2.32-1.258-3.148-.414-.347-.902-.554-1.445-.543-.914.02-1.59.469-2 1.274-.442.867-.399 1.78-.2 2.699.036.168.036.355.196.476l-.008-.007c.027.265.148.488.3.703q.124.441.481.73c-.015.117.016.188.152.16l-.003-.004c-.036.086-.024.149.085.157Zm-1.387 10.86c-5.395-.017-9.824-4.286-9.848-9.833-.011-2.684.98-5.02 2.887-6.933 1.91-1.915 4.258-2.887 6.937-2.887 2.649-.004 4.98.937 6.887 2.82 2.012 1.984 3.02 4.402 2.961 7.211a9.82 9.82 0 0 1-9.824 9.621" style="stroke:none;fill-rule:nonzero;fill:#f4cd0f;fill-opacity:1"/><path d="M38.148 24.84c-.878-1.75-2.082-3.195-3.558-4.45.082-.32.156-.644.25-.964.543-1.84 1.25-3.613 2.215-5.278.75-1.289 1.629-2.48 2.718-3.507 1.204-1.133 2.559-2.024 4.16-2.508.727-.219 1.462-.293 2.212-.149 1.015.192 1.757.774 2.308 1.614.535.812.797 1.718.895 2.68.238 2.359-.43 4.472-1.778 6.39-.601.855-1.363 1.55-2.164 2.203-1.574 1.285-3.27 2.383-5.14 3.192-.61.265-1.243.48-1.868.718-.07.028-.144.035-.25.059M18.766 26.8a13.8 13.8 0 0 0 .53 5.653 14 14 0 0 1-1.816.813c-1.398.539-2.84.914-4.316 1.144-1.234.195-2.484.324-3.738.266-1.875-.082-3.578-.684-5.106-1.77-1.035-.738-1.894-1.636-2.492-2.761-.406-.762-.648-1.567-.621-2.438.027-.867.344-1.602.926-2.234.531-.582 1.187-.98 1.91-1.285 1.016-.426 2.074-.665 3.172-.774 1.808-.18 3.57.07 5.308.55 2.188.602 4.211 1.567 6.137 2.75.031.024.059.052.106.087" style="stroke:none;fill-rule:nonzero;fill:#fefefe;fill-opacity:1"/><path d="M39.52 33.145c.265-2.477.046-4.883-.864-7.208a21.5 21.5 0 0 0 3.07-1.257c.192-.102.395-.188.579-.309.328-.215.68-.273 1.066-.238.941.094 1.856.285 2.684.765 1.086.625 1.851 1.512 2.195 2.727.492 1.754-.297 3.39-1.785 4.246-.485.281-1.004.461-1.535.61-1.305.367-2.633.609-3.992.652q-.582.02-1.157.039c-.074 0-.148-.016-.261-.027M19.7 33.582a14.4 14.4 0 0 0 1.831 3.184c.735.972 1.582 1.832 2.547 2.644-.383.352-.742.7-1.121 1.024a16.7 16.7 0 0 1-3.937 2.558c-.63.285-1.293.457-1.985.414-1.312-.082-2.332-.695-2.996-1.832-.746-1.273-.773-2.605-.27-3.972.325-.875.872-1.602 1.512-2.262.121-.121.29-.23.457-.274a21.6 21.6 0 0 0 3.961-1.484" style="stroke:none;fill-rule:nonzero;fill:#fefefd;fill-opacity:1"/><path d="M36.574 23.55c.899 1.325 1.567 2.696 1.93 4.184-.785 1.051-1.61 2.008-2.535 2.875-2.082 1.942-4.492 3.286-7.262 3.957-.988.239-1.992.395-3.012.422-.543.012-1.082.067-1.62.04-.794-.036-1.587-.126-2.38-.196-.218-.02-.433-.055-.629-.078-.593-.852-1.148-2.441-1.578-4.512 1.137.254 2.27.461 3.414.528 1.157.07 2.32.082 3.516-.07.191 1.144.383 2.273.582 3.448.188-.066.352-.12.516-.183 1.148-.434 2.3-.863 3.449-1.313a4.3 4.3 0 0 0 1.605-1.109c.84-.902.739-2.36-.133-3.035-.03-.024-.054-.055-.117-.117a15.5 15.5 0 0 0 2.364-2.196c.699-.812 1.289-1.699 1.89-2.644" style="stroke:none;fill-rule:nonzero;fill:#f3cd10;fill-opacity:1"/><path d="M24.465 38.648c5.469-.082 10.238-1.73 14.262-5.496-.043.32-.059.57-.11.817a49 49 0 0 1-1.086 4.52c-.203.687-.68 1.175-1.218 1.6-1.141.903-2.434 1.454-3.86 1.724a7.4 7.4 0 0 1-2.035.124c-.715-.066-1.406-.242-2.043-.628-1.187-.72-2.363-1.461-3.473-2.301-.129-.098-.254-.207-.437-.36" style="stroke:none;fill-rule:nonzero;fill:#f4cd10;fill-opacity:1"/><path d="M28.773 28.992c.258-.097.48-.164.684-.265.137-.067.262-.168.363-.278.117-.125.11-.285.024-.43a.33.33 0 0 0-.367-.16c-.297.063-.59.149-.864.32.051.266.102.516.16.813m.344 2.156c.367-.164.692-.3 1.012-.453a.46.46 0 0 0 .168-.156c.094-.14.164-.289.05-.46a.41.41 0 0 0-.464-.184c-.301.082-.598.19-.906.296.046.32.09.594.14.957m1.926-2.476c.195.027.39.031.574.082.719.203 1.117.95.914 1.664-.168.598-.582.996-1.082 1.305-.379.234-.789.422-1.207.586-.902.359-1.816.691-2.773 1.054-.211-.996-.34-1.992-.512-2.98-.176-.996-.324-1.992-.488-3.008.082-.04.156-.086.238-.117q1.346-.509 2.7-1.012a3.1 3.1 0 0 1 1.245-.191c.891.047 1.278.933 1.106 1.566q-.111.416-.41.727c-.098.101-.196.207-.305.324" style="stroke:none;fill-rule:nonzero;fill:#f3cc11;fill-opacity:1"/><path d="m63.012 33.832.843-4.66c1.11 0 2.184-.024 3.25.012.52.015 1.043.082 1.547.27 1.11.417 1.477 1.304 1.297 2.323-.14.809-.648 1.317-1.367 1.641-.512.23-1.055.332-1.602.387-1.3.129-2.605.058-3.906.07-.011 0-.023-.016-.062-.043" style="stroke:none;fill-rule:nonzero;fill:#14120f;fill-opacity:1"/><path d="M64.969 22.883c.234-1.426.46-2.82.691-4.235.067-.011.137-.035.211-.035.89 0 1.785-.004 2.676 0 .547.004 1.07.114 1.578.32.547.22 1.027.665 1.05 1.508.044 1.332-.76 1.997-1.737 2.27-.38.11-.786.16-1.18.168-1.086.02-2.168.004-3.29.004" style="stroke:none;fill-rule:nonzero;fill:#12100e;fill-opacity:1"/><path d="M25.05 12.598c0 .488.196.894.579 1.199.574.46 1.402.219 1.586-.465a1.47 1.47 0 0 0-.555-1.598c-.223-.16-.473-.254-.75-.203-.535.102-.851.5-.86 1.067m-1.003.625.008.007c.015-.058.058-.125.039-.171-.14-.391-.125-.797-.13-1.2q-.003-.645.24-1.238c.237-.582.62-1.035 1.241-1.23.95-.297 2.012.105 2.547.84.531.722.735 1.542.574 2.437-.054.3-.12.602-.183.898-.047.09-.11.172-.14.266-.11.309-.313.5-.61.645-.485.23-.945.511-1.414.78-.067.04-.11.118-.164.177v-.004c-.114.03-.23.062-.403.105-.074-.09-.156-.207-.254-.305-.074-.074-.171-.125-.261-.187a1 1 0 0 0-.078-.074h.003c-.027-.051-.054-.106-.085-.156l.003.003c-.003-.097-.027-.175-.152-.16-.074-.347-.324-.605-.476-.914-.051-.14-.094-.289-.157-.422-.023-.047-.097-.066-.148-.097" style="stroke:none;fill-rule:nonzero;fill:#fcfcfc;fill-opacity:1"/><path d="M21.488 20.852c-.008.027-.011.054-.02.082l.434.386c.086.075.176.153.27.22 1.5 1.105 3.648.94 5.078-.282.8-.688 1.309-1.54 1.395-2.617.02-.239.054-.465-.051-.696-2.059 1.746-4.426 2.7-7.106 2.907m-.586-.446c.938-.058 1.856-.144 2.754-.386 1.82-.497 3.438-1.356 4.832-2.63.04-.035.07-.074.114-.105.18-.133.347-.086.41.13.105.374.156.76.125 1.148-.094 1.09-.516 2.039-1.301 2.804-.914.89-2.008 1.356-3.3 1.371-1.079.012-2.024-.308-2.86-.976a3.3 3.3 0 0 1-.758-.871c-.086-.145-.176-.293-.016-.485" style="stroke:none;fill-rule:nonzero;fill:#1a1815;fill-opacity:1"/><path d="M17.125 16.383c-.43-.469-.637-1.035-.777-1.64-.188-.802-.024-1.505.496-2.126.793-.945 2.133-1.125 3.11-.367 1.058.816 1.745 1.867 1.995 3.188.07.374.117.757.145 1.136.015.203-.032.406-.051.625l-.324.04v-.083c.07-.011.14-.027.215-.039.086-.969-.051-1.87-.461-2.719-.45-.918-1.106-1.628-2.09-1.996-.524-.195-1.031-.187-1.531.055-.957.465-1.426 1.68-1.215 2.602.101.46.32.855.558 1.254z" style="stroke:none;fill-rule:nonzero;fill:#211d19;fill-opacity:1"/><path d="M28.383 13.566c.062-.296.129-.597.183-.898.16-.895-.043-1.715-.574-2.438-.535-.734-1.597-1.136-2.547-.84-.62.196-1.004.65-1.242 1.231q-.242.594-.238 1.238c.004.403-.012.809.129 1.2.02.046-.024.113-.04.171-.16-.12-.16-.308-.195-.476-.199-.918-.242-1.832.2-2.7.41-.804 1.086-1.253 2-1.273.543-.011 1.03.196 1.445.543.969.828 1.387 1.89 1.258 3.149-.043.402-.203.785-.313 1.18q-.03-.04-.066-.087" style="stroke:none;fill-rule:nonzero;fill:#1f1c19;fill-opacity:1"/><path d="M21.719 17.156v.082q-.692.183-1.383.371c-.211.055-.426.09-.625.172-.23.094-.438.07-.664-.008-.73-.242-1.36-.628-1.828-1.25.027-.027.05-.058.078-.085.582.617 1.25 1.097 2.035 1.296.824-.199 1.605-.39 2.387-.578M28.383 13.566q.036.047.066.086c0 .012.004.028 0 .04-.285.636-.289.632-.926.972-.402.215-.793.45-1.195.668-.082.047-.183.07-.273.102.054-.059.097-.137.164-.176.468-.27.93-.551 1.414-.781.297-.145.5-.336.61-.645.03-.094.093-.176.14-.266M29.297 17.45c-.207-.372-.512-.45-.887-.34.152-.243.332-.32.559-.25.258.081.355.238.328.59M21.066 20.105c-.421.18-.5.454-.425.81-.239-.185-.278-.298-.207-.5.093-.259.199-.321.632-.31M25.137 15.043c.09.062.187.113.261.187.098.098.18.215.254.305.172-.043.29-.074.403-.105-.09.093-.188.183-.293.289-.235-.235-.551-.336-.625-.676M24.352 13.742c.152.309.402.567.476.914a1.4 1.4 0 0 1-.48-.73q-.001-.095.004-.184" style="stroke:none;fill-rule:nonzero;fill:#39342e;fill-opacity:1"/><path d="M24.352 13.742q-.005.089-.004.184c-.153-.215-.274-.438-.301-.703.05.03.125.05.148.097.063.133.106.282.157.422" style="stroke:none;fill-rule:nonzero;fill:#1f1c19;fill-opacity:1"/><path d="M24.828 14.656c.125-.015.149.063.152.16-.136.028-.168-.043-.152-.16" style="stroke:none;fill-rule:nonzero;fill:#39342e;fill-opacity:1"/><path d="M17.297 16.438c-.027.027-.05.058-.078.085l-.094-.14.07-.07z" style="stroke:none;fill-rule:nonzero;fill:#211d19;fill-opacity:1"/><path d="M24.977 14.813c.03.05.058.105.085.156-.109-.008-.12-.07-.085-.156M25.059 14.969" style="stroke:none;fill-rule:nonzero;fill:#39342e;fill-opacity:1"/><path d="M29.117 31.148c-.05-.363-.094-.636-.14-.957.308-.105.605-.214.906-.296a.41.41 0 0 1 .465.183c.113.172.043.32-.051.461a.46.46 0 0 1-.168.156c-.32.153-.645.29-1.012.453" style="stroke:none;fill-rule:nonzero;fill:#181613;fill-opacity:1"/><path d="M28.773 28.992c-.058-.297-.109-.547-.16-.812.274-.172.567-.258.864-.32a.33.33 0 0 1 .367.16c.086.144.093.304-.024.43-.101.109-.226.21-.363.277-.203.101-.426.168-.684.265" style="stroke:none;fill-rule:nonzero;fill:#1a1815;fill-opacity:1"/><path d="M25.992 12.324c-.05-.066-.09-.168-.156-.195a.52.52 0 0 0-.3-.012c-.157.031-.208.176-.231.317-.024.14.101.32.23.363.184.062.332-.004.457-.207q.063.036.125.074c.176.106.176.106.313-.125-.051-.105-.114-.184-.262-.137-.047.012-.117-.05-.176-.078m-.941.274c.008-.567.324-.965.86-1.067.276-.05.526.043.75.203.468.336.734.95.554 1.598-.184.684-1.012.926-1.586.465a1.47 1.47 0 0 1-.578-1.2" style="stroke:none;fill-rule:nonzero;fill:#191717;fill-opacity:1"/><path d="M21.488 20.852c2.68-.207 5.047-1.16 7.106-2.907.105.23.07.457.05.696-.085 1.078-.593 1.93-1.394 2.617-1.43 1.222-3.578 1.387-5.078.281-.094-.066-.184-.144-.27-.219l-.433-.386c.008-.028.011-.055.02-.082" style="stroke:none;fill-rule:nonzero;fill:#fcfbfb;fill-opacity:1"/><path d="M19.477 14.094c-.422.027-.805.297-.91.722-.169.692.07 1.364.734 1.688.648.312 1.172-.106 1.336-.567.222-.628-.117-1.421-.727-1.718-.133-.067-.289-.086-.433-.125m-2.18 2.344-.102-.125c-.238-.399-.457-.793-.558-1.254-.211-.922.258-2.137 1.215-2.602.5-.242 1.007-.25 1.53-.055.985.368 1.641 1.078 2.09 1.996.41.848.548 1.75.462 2.72-.075.01-.145.027-.215.038-.782.188-1.563.38-2.387.578-.785-.199-1.453-.68-2.035-1.297" style="stroke:none;fill-rule:nonzero;fill:#fcfcfc;fill-opacity:1"/><path d="M25.992 12.59c-.125.203-.273.27-.457.207-.129-.043-.254-.223-.23-.363.023-.141.074-.286.23-.317a.52.52 0 0 1 .3.012c.067.027.106.129.157.195z" style="stroke:none;fill-rule:nonzero;fill:#f0eeee;fill-opacity:1"/><path d="M25.992 12.59v-.266c.059.028.13.09.176.078.148-.047.21.032.262.137-.137.23-.137.23-.313.125q-.062-.036-.125-.074" style="stroke:none;fill-rule:nonzero;fill:#dddada;fill-opacity:1"/><path d="M19.809 14.934c-.122-.313-.223-.395-.457-.36-.157.024-.278.117-.274.274.016.562.328.5.625.34.164.007.266.015.379.023-.035-.305-.035-.305-.273-.277m-.332-.84c.144.039.3.058.433.125.61.297.95 1.09.727 1.719-.164.46-.688.878-1.336.566-.664-.324-.903-.996-.735-1.688.106-.425.489-.695.91-.722" style="stroke:none;fill-rule:nonzero;fill:#1b1716;fill-opacity:1"/><path d="M19.809 14.934c.238-.028.238-.028.273.277-.113-.008-.215-.016-.379-.024-.297.16-.61.223-.625-.34-.004-.156.117-.25.274-.273.234-.035.335.047.457.36" style="stroke:none;fill-rule:nonzero;fill:#f8f7f7;fill-opacity:1"/></svg>