<?xml version="1.0" encoding="UTF-8"?>
<svg xmlns="http://www.w3.org/2000/svg" xmlns:xlink="http://www.w3.org/1999/xlink" width="176pt" height="24.37pt" viewBox="0 0 176 24.37" version="1.1">
<defs>
<clipPath id="clip1">
  <path d="M 66 0 L 84 0 L 84 24.371094 L 66 24.371094 Z M 66 0 "/>
</clipPath>
<clipPath id="clip2">
  <path d="M 106 0 L 132 0 L 132 24.371094 L 106 24.371094 Z M 106 0 "/>
</clipPath>
<clipPath id="clip3">
  <path d="M 136 0 L 157 0 L 157 24.371094 L 136 24.371094 Z M 136 0 "/>
</clipPath>
</defs>
<g id="surface1">
<path style=" stroke:none;fill-rule:nonzero;fill:rgb(25.78125%,74.351501%,57.061768%);fill-opacity:1;" d="M 8.777344 0.75 L 0 23.613281 L 6.285156 23.613281 L 12.027344 7.796875 L 17.59375 23.613281 L 23.878906 23.613281 L 15.273438 0.75 L 8.777344 0.75 "/>
<path style=" stroke:none;fill-rule:nonzero;fill:rgb(25.78125%,74.351501%,57.061768%);fill-opacity:1;" d="M 27.507812 0.75 L 33.496094 0.75 L 33.496094 23.613281 L 27.507812 23.613281 L 27.507812 0.75 "/>
<path style=" stroke:none;fill-rule:nonzero;fill:rgb(25.78125%,74.351501%,57.061768%);fill-opacity:1;" d="M 49.359375 10.453125 C 47.984375 11.246094 45.984375 11.027344 45.984375 11.027344 L 45.984375 5.308594 C 46.988281 5.21875 48 5.328125 48.964844 5.628906 C 50.011719 5.957031 50.707031 6.945312 50.667969 8.042969 C 50.746094 9.03125 50.234375 9.976562 49.359375 10.453125 Z M 56.035156 11.257812 C 57.46875 8.667969 56.867188 5.089844 55.738281 3.636719 C 54.605469 2.183594 52.742188 0.75 48.703125 0.75 L 40 0.75 L 40 23.613281 L 45.988281 23.613281 L 45.988281 14.765625 L 51.980469 23.613281 L 58.949219 23.613281 L 51.878906 14.238281 C 53.632812 13.894531 55.152344 12.808594 56.035156 11.257812 "/>
<g clip-path="url(#clip1)" clip-rule="nonzero">
<path style=" stroke:none;fill-rule:nonzero;fill:rgb(25.78125%,74.351501%,57.061768%);fill-opacity:1;" d="M 75.558594 8.90625 C 74.386719 8.507812 73.796875 7.832031 73.882812 6.925781 C 74.039062 5.933594 74.84375 5.167969 75.84375 5.066406 C 78.0625 4.742188 80.46875 6.460938 80.46875 6.460938 L 82.722656 2.070312 C 80.433594 0.652344 77.757812 -0.015625 75.066406 0.160156 C 70.507812 0.410156 67.90625 3.550781 67.703125 7.125 C 67.519531 10.039062 68.871094 12.546875 72.878906 13.9375 C 74.3125 14.429688 76.453125 14.832031 77.167969 15.910156 C 78.097656 17.273438 77.167969 19.660156 73.796875 19.125 C 71.492188 18.75 69.277344 16.898438 69.277344 16.898438 L 66.761719 21.617188 C 69.453125 23.511719 72.71875 24.421875 76.003906 24.191406 C 83.785156 23.582031 84.617188 16.347656 83.09375 13.402344 C 81.574219 10.453125 77.921875 9.703125 75.558594 8.90625 "/>
</g>
<path style=" stroke:none;fill-rule:nonzero;fill:rgb(25.78125%,74.351501%,57.061768%);fill-opacity:1;" d="M 94.785156 14.613281 L 101.199219 14.613281 L 101.199219 9.621094 L 94.824219 9.621094 L 94.824219 5.59375 L 101.582031 5.59375 L 101.582031 0.75 L 88.914062 0.75 L 88.914062 23.613281 L 101.898438 23.613281 L 101.898438 18.613281 L 94.785156 18.613281 L 94.785156 14.613281 "/>
<g clip-path="url(#clip2)" clip-rule="nonzero">
<path style=" stroke:none;fill-rule:nonzero;fill:rgb(25.78125%,74.351501%,57.061768%);fill-opacity:1;" d="M 118.777344 18.65625 C 115.203125 18.679688 112.285156 15.800781 112.265625 12.226562 C 112.238281 8.652344 115.121094 5.734375 118.695312 5.710938 C 122.238281 5.6875 125.144531 8.519531 125.210938 12.066406 C 125.296875 15.617188 122.492188 18.566406 118.941406 18.65625 C 118.886719 18.65625 118.832031 18.65625 118.777344 18.65625 Z M 118.777344 0.00390625 C 111.855469 0.00390625 106.292969 5.210938 106.292969 12.113281 C 106.292969 19.3125 111.335938 24.371094 118.777344 24.371094 C 126.222656 24.371094 131.289062 19.296875 131.289062 12.113281 C 131.289062 5.210938 125.707031 0.00390625 118.777344 0.00390625 "/>
</g>
<g clip-path="url(#clip3)" clip-rule="nonzero">
<path style=" stroke:none;fill-rule:nonzero;fill:rgb(25.78125%,74.351501%,57.061768%);fill-opacity:1;" d="M 150.753906 14.246094 C 150.753906 18.289062 148.449219 19.039062 146.917969 19.039062 C 145.386719 19.039062 142.738281 18.503906 142.738281 14.132812 L 142.738281 0.738281 L 136.796875 0.738281 L 136.796875 14.296875 C 136.796875 21.363281 140.78125 24.230469 146.976562 24.230469 C 153.0625 24.230469 156.695312 20.816406 156.695312 14.585938 L 156.695312 0.75 L 150.753906 0.75 L 150.753906 14.246094 "/>
</g>
<path style=" stroke:none;fill-rule:nonzero;fill:rgb(25.78125%,74.351501%,57.061768%);fill-opacity:1;" d="M 169.109375 18.648438 L 169.109375 0.75 L 163.199219 0.75 L 163.199219 23.613281 L 176 23.613281 L 176 18.648438 L 169.109375 18.648438 "/>
</g>
</svg>
