<svg xmlns="http://www.w3.org/2000/svg" width="147" height="59pt" viewBox="0 0 110.25 59"><defs><clipPath id="a"><path d="M60 40h50.25v19H60Zm0 0"/></clipPath></defs><g clip-path="url(#a)"><path d="M96.191 51.418h-.636v2.281c0 .09-.075.192-.192.192-.152 0-.215-.11-.215-.192v-2.281H94.5c-.074 0-.191-.043-.191-.18 0-.152.097-.218.191-.218h1.691c.086 0 .196.062.196.187 0 .172-.133.211-.196.211m2.758 2.473h-.12c-.083 0-.138-.067-.138-.145v-1.695c0-.528-.039-.645-.695-.653v2.348c0 .059-.039.145-.14.145h-.126a.14.14 0 0 1-.144-.145v-2.348c-.273 0-.508.024-.695.043v2.305c0 .059-.04.145-.137.145h-.121a.14.14 0 0 1-.145-.145V51.22c0-.098.067-.13.114-.145.277-.031.761-.074 1.195-.074.871 0 1.297.113 1.297 1.05v1.696a.14.14 0 0 1-.145.145M65.23 41.363h-2.136v6.992c0 .137-.094.278-.254.278h-.106c-.156 0-.254-.14-.254-.278v-6.992h-2.144c-.133 0-.277-.066-.277-.234v-.094c0-.156.129-.254.277-.254h4.894c.153 0 .278.098.278.254v.094c0 .168-.14.234-.278.234m4.887 7.332h-.105c-.164 0-.242-.148-.242-.277V44.93c0-.98-.395-1.508-1.457-1.508-.418 0-.938.066-1.32.168v4.828c0 .137-.095.277-.255.277h-.101c-.157 0-.254-.14-.254-.277v-7.363c0-.137.097-.274.254-.274h.101c.16 0 .254.137.254.274v1.972a6 6 0 0 1 1.32-.164c1.493 0 2.06.871 2.06 2.067v3.488c0 .133-.083.277-.255.277m5.371-2.734h-3.422v.137c0 1.691.797 2.035 1.793 2.035.454 0 1.02-.07 1.524-.172.043-.008.058-.012.074-.012.11 0 .234.063.234.223v.07c0 .164-.078.238-.261.274-.5.105-1.098.18-1.57.18-1.317 0-2.407-.59-2.407-2.598v-.684c0-1.453.746-2.55 2.172-2.55 1.488 0 2.137 1.046 2.137 2.542v.278c0 .16-.13.277-.274.277m-3.422-.57h3.086c-.004-1.278-.425-1.97-1.527-1.97-1.078 0-1.55.77-1.559 1.97m9.543-3.86c-.043-.133-.086-.144-.156-.144s-.117.011-.156.144l-1.168 3.848h2.644Zm-3.046 6.86c0-.012.003-.032.011-.051l2.125-6.992c.114-.391.387-.567.754-.567s.64.176.754.567l2.121 6.984c.008.02.016.043.016.059 0 .187-.09.316-.262.316h-.113c-.121 0-.219-.094-.246-.207l-.766-2.527h-3.008l-.765 2.527a.266.266 0 0 1-.25.207h-.11c-.172 0-.261-.129-.261-.273Zm8.996.27a7 7 0 0 1-.797.034c-.942 0-1.496-.324-1.496-1.406v-5.457c0-.145.117-.273.273-.273h.086c.148 0 .262.132.262.273v1.082h1.664c.14 0 .273.082.273.246v.09c0 .164-.133.246-.273.246h-1.664v3.793c0 .742.215.844.875.844h.789c.16 0 .293.047.293.21v.075c0 .137-.07.223-.285.242m1.625.035h-.102c-.16 0-.254-.14-.254-.277v-7.363c0-.137.094-.274.254-.274h.102c.16 0 .257.137.257.274v7.363c0 .137-.097.277-.257.277m5.195-.222c-.5.136-1.055.222-1.582.222-1.606 0-2.172-.562-2.172-1.746v-.133c0-1.16.742-1.675 2.637-1.675h.718v-.293c0-1.051-.277-1.426-1.222-1.426-.684 0-.98.043-1.465.094-.133.011-.324-.032-.324-.235v-.062c0-.176.144-.242.308-.262.438-.05.79-.094 1.48-.094 1.458 0 1.837.84 1.837 1.985v3.332c0 .152-.047.254-.215.293m-.399-2.762h-.718c-1.567 0-2.012.3-2.012 1.105v.133c0 .785.234 1.184 1.547 1.184.465 0 .95-.067 1.183-.11Zm5.7 2.984h-.102c-.16 0-.254-.14-.254-.277v-3.57c0-1.254-.554-1.395-1.219-1.395h-.445c-.66 0-1.215.14-1.215 1.395v3.57c0 .137-.097.277-.254.277h-.105c-.156 0-.254-.14-.254-.277v-3.57c0-1.805 1.094-1.985 1.828-1.985h.445c.735 0 1.829.18 1.829 1.985v3.57c0 .137-.094.277-.254.277m3.789-.035c-.137.024-.48.035-.797.035-.942 0-1.496-.324-1.496-1.406v-5.457c0-.145.113-.273.273-.273h.082c.153 0 .266.132.266.273v1.082h1.664c.14 0 .273.082.273.246v.09c0 .164-.132.246-.273.246h-1.664v3.793c0 .742.215.844.875.844h.789c.16 0 .297.047.297.21v.075c0 .137-.078.223-.29.242m1.606-6.562h-.062a.275.275 0 0 1-.274-.278v-.765a.28.28 0 0 1 .274-.274h.062c.149 0 .274.125.274.274v.765c0 .16-.13.278-.274.278m0 6.597h-.062a.283.283 0 0 1-.274-.277v-5.23c0-.145.13-.274.274-.274h.062a.28.28 0 0 1 .274.273v5.231a.28.28 0 0 1-.274.277m4.906-.093c-.44.05-.93.093-1.261.093-1.547 0-2.13-1.21-2.13-2.586v-.695c0-1.394.583-2.55 2.13-2.55.332 0 .82.042 1.261.093.184.023.266.102.266.262v.074c0 .168-.129.223-.254.223h-.05a10 10 0 0 0-1.223-.094c-1.117 0-1.52.754-1.52 1.992v.695c0 1.239.406 2.024 1.52 2.024a10 10 0 0 0 1.219-.094h.054c.125 0 .254.059.254.227v.07c0 .16-.082.238-.266.266m-44.722 10.18a6.2 6.2 0 0 1-1.586.218c-1.602 0-2.168-.562-2.168-1.746v-.133c0-1.156.742-1.672 2.637-1.672h.718v-.297c0-1.047-.277-1.422-1.226-1.422-.68 0-.98.04-1.465.094-.133.008-.324-.035-.324-.234v-.063c0-.18.148-.242.308-.265.438-.051.793-.094 1.48-.094 1.458 0 1.837.84 1.837 1.984v3.336c0 .149-.043.25-.211.293m-.399-2.761h-.718c-1.567 0-2.016.296-2.016 1.101v.133c0 .789.238 1.187 1.547 1.187.469 0 .95-.066 1.187-.113Zm5.7 2.98h-.106c-.156 0-.254-.14-.254-.273v-3.575c0-1.25-.554-1.39-1.219-1.39h-.44c-.665 0-1.22.14-1.22 1.39v3.575c0 .132-.093.273-.254.273h-.101c-.16 0-.254-.14-.254-.273v-3.575c0-1.8 1.09-1.984 1.828-1.984h.441c.739 0 1.832.184 1.832 1.984v3.575c0 .132-.097.273-.253.273m5.203-.2c-.461.095-1.16.2-1.758.2-1.492 0-2.106-1.082-2.106-2.594v-.683c0-1.664.704-2.555 2.106-2.555.379 0 .95.055 1.363.137v-1.942c0-.136.098-.277.254-.277h.102c.16 0 .257.14.257.277v7.164c0 .16-.058.235-.218.274m-.395-4.95a8 8 0 0 0-1.363-.12c-1.074 0-1.496.64-1.496 1.992v.683c0 1.32.402 2.035 1.496 2.035.465 0 .992-.066 1.363-.125Zm8.758-2.367-2.113 4.184v2.996c0 .133-.098.273-.254.273h-.106c-.156 0-.254-.14-.254-.273v-2.996l-2.113-4.188a.33.33 0 0 1-.047-.171c0-.153.125-.223.262-.223h.113q.105.002.164.062c.02.016.032.036.047.055l.028.05 1.855 3.724 1.856-3.723.027-.05a.237.237 0 0 1 .207-.117l.117-.001c.133 0 .262.07.262.223a.35.35 0 0 1-.051.175M86.23 59c-1.476 0-2.21-.957-2.21-2.55v-.727c0-1.594.734-2.555 2.21-2.555 1.473 0 2.211.96 2.211 2.555v.726c0 1.594-.738 2.551-2.21 2.551m1.597-3.277c0-1.254-.45-1.993-1.598-1.993s-1.601.739-1.601 1.993v.726c0 1.25.453 1.992 1.601 1.992 1.149 0 1.598-.742 1.598-1.992ZM91.672 59h-.195c-.73 0-1.954-.39-1.954-2.16v-3.344c0-.133.098-.277.258-.277h.102c.156 0 .254.144.254.277v3.344c0 1.277.675 1.578 1.34 1.578h.195c.668 0 1.344-.3 1.344-1.578v-3.344c0-.133.097-.277.254-.277h.105c.156 0 .25.144.25.277v3.344c0 1.77-1.219 2.16-1.953 2.16" style="stroke:none;fill-rule:nonzero;fill:#1081bb;fill-opacity:1"/></g><path d="m48.96 5.383 6.692 6.695-3.98 14.016-5.074-4.98-3.02-12.055z" style="stroke:none;fill-rule:nonzero;fill:#1081bb;fill-opacity:1"/><path d="M60.18 22.64h7.55l-6.039 5.536-10.02-2.082z" style="stroke:none;fill-rule:nonzero;fill:#1081bb;fill-opacity:1"/><path d="m61.691 28.176-9.058 2.48-10.563 5.57 9.602-10.132z" style="stroke:none;fill-rule:nonzero;fill:#1d2f57;fill-opacity:1"/><path d="m46.598 31.445-9.059 1.762 4.531 3.02Zm0 0" style="stroke:none;fill-rule:nonzero;fill:#64c8e3;fill-opacity:1"/><path d="M60.18 22.64h7.55l-3.828-1.507ZM66.406 23.852l1.324 1.32V22.64Zm0 0" style="stroke:none;fill-rule:nonzero;fill:#1d2f57;fill-opacity:1"/><path d="m60.18 22.64-4.528-10.562-3.98 14.016Zm0 0" style="stroke:none;fill-rule:nonzero;fill:#64c8e3;fill-opacity:1"/><path d="m43.578 9.055 1.508-7.543L39.05 0Zm0 0" style="stroke:none;fill-rule:nonzero;fill:#1d2f57;fill-opacity:1"/><path d="m48.96 5.383-3.874-3.871-1.508 7.547Zm0 0" style="stroke:none;fill-rule:nonzero;fill:#64c8e3;fill-opacity:1"/><path d="M0 45.559c0-2.637 2.469-4.774 5.512-4.774l7.14-.004c.192 0 .344.157.344.348v2.101a.345.345 0 0 1-.344.348H5.344c-1.242 0-2.258.754-2.258 1.828 0 1.121.516 1.68 3.703 2.543 4.414 1.192 7.027 2.309 7.027 5.797 0 2.902-2.718 5.254-6.07 5.254H.84a.344.344 0 0 1-.344-.344v-2.105c0-.192.152-.348.344-.348h7.055c1.539 0 2.828-.976 2.828-2.305 0-1.484-1.23-2.195-4.43-3.066C2.711 49.855 0 48.852 0 45.559m46.488 10.644h4.043c1.551-.004 1.887-.566 1.91-1.89V49.48c-7.492 1.25-8.523 3.165-8.523 4.692 0 1.277.781 2.031 2.57 2.031m5.938-10.121c-.14-1.719-1.125-2.496-2.852-2.504H42.41a.35.35 0 0 1-.347-.348V41.13c0-.191.156-.348.347-.348h7.168c3.945 0 5.953 2.25 5.953 5.625v8.043c0 3.188-1.754 4.551-4.875 4.551H46.36c-3.418 0-5.53-1.781-5.53-4.734 0-3.657 3.3-6.137 11.616-7.407l1.899-.257c.144-.02.234-.153.21-.301-.023-.145-.14-.219-.304-.219ZM20.812 56.203h4.043c1.551-.004 1.887-.566 1.91-1.89V49.48c-7.492 1.25-8.527 3.165-8.527 4.692 0 1.277.782 2.031 2.575 2.031m5.933-10.121c-.137-1.719-1.117-2.496-2.848-2.504H16.73a.35.35 0 0 1-.343-.348V41.13c0-.191.156-.348.343-.348h7.168c3.946 0 5.957 2.25 5.957 5.625v8.043c0 3.188-1.757 4.551-4.875 4.551h-4.296c-3.422 0-5.536-1.781-5.536-4.734 0-3.657 3.305-6.137 11.622-7.407l1.898-.257c.145-.02.234-.153.21-.301-.023-.145-.14-.219-.304-.219Zm12.664-5.3c.192 0 .348.152.348.343v2.11a.35.35 0 0 1-.348.347l-4.11-.008v10.778c.024 1.32.356 1.851 1.923 1.851h1.965c.292 0 .57.23.57.559v1.68a.566.566 0 0 1-.57.558h-2.102c-3.125-.016-4.875-1.36-4.875-4.543V37.109c0-.32.27-.558.57-.558h1.313c.363 0 .527.312.566.496l.512 2.973-1.774.238a.25.25 0 0 0-.207.3c.02.145.137.223.301.223z" style="stroke:none;fill-rule:nonzero;fill:#1d2f57;fill-opacity:1"/></svg>