<?xml version="1.0" encoding="UTF-8"?>
<svg xmlns="http://www.w3.org/2000/svg" xmlns:xlink="http://www.w3.org/1999/xlink" width="176pt" height="33.63pt" viewBox="0 0 176 33.63" version="1.1">
<defs>
<clipPath id="clip1">
  <path d="M 0 8 L 33 8 L 33 33.628906 L 0 33.628906 Z M 0 8 "/>
</clipPath>
</defs>
<g id="surface1">
<g clip-path="url(#clip1)" clip-rule="nonzero">
<path style=" stroke:none;fill-rule:nonzero;fill:rgb(90.061951%,19.526672%,13.113403%);fill-opacity:1;" d="M 14.257812 16.035156 C 14.230469 16.050781 14.203125 16.066406 14.179688 16.078125 C 14.277344 16.441406 14.304688 16.496094 14.554688 16.707031 C 14.4375 16.4375 14.347656 16.238281 14.257812 16.035156 Z M 23.40625 14.710938 C 24.457031 14.320312 25.519531 14.003906 26.640625 13.890625 C 27.96875 13.753906 29.148438 14.152344 30.242188 14.867188 C 30.371094 14.949219 30.484375 15.0625 30.589844 15.179688 C 30.976562 15.613281 31.035156 16.054688 30.78125 16.574219 C 30.753906 16.632812 30.71875 16.691406 30.667969 16.785156 C 30.917969 16.996094 31.167969 17.210938 31.445312 17.445312 C 31.117188 17.753906 30.800781 18.050781 30.480469 18.351562 C 30.574219 18.523438 30.636719 18.648438 30.707031 18.769531 C 31.160156 19.570312 31.605469 20.378906 32.070312 21.171875 C 32.199219 21.390625 32.21875 21.601562 32.164062 21.839844 C 31.921875 22.90625 31.339844 23.761719 30.535156 24.480469 C 29.710938 25.214844 28.746094 25.710938 27.71875 26.09375 C 27.515625 26.167969 27.367188 26.101562 27.203125 26.019531 C 25.527344 25.171875 23.847656 24.328125 22.167969 23.480469 C 21.996094 23.394531 21.820312 23.308594 21.605469 23.261719 C 21.675781 23.335938 21.746094 23.414062 21.824219 23.480469 C 22.746094 24.300781 23.609375 25.179688 24.332031 26.183594 C 24.789062 26.820312 25.179688 27.488281 25.433594 28.234375 C 25.804688 29.324219 25.714844 30.347656 25.066406 31.320312 C 24.710938 31.851562 24.332031 32.359375 23.792969 32.71875 C 23.238281 33.089844 22.640625 33.242188 21.980469 33.078125 C 21.636719 32.992188 21.367188 32.839844 21.203125 32.5 C 21.039062 32.164062 20.828125 31.847656 20.632812 31.527344 C 20.574219 31.429688 20.507812 31.339844 20.414062 31.203125 C 20.144531 31.664062 19.894531 32.082031 19.628906 32.535156 C 19.515625 32.476562 19.402344 32.441406 19.320312 32.371094 C 19.039062 32.128906 18.757812 32.160156 18.421875 32.257812 C 17.101562 32.640625 15.773438 32.996094 14.449219 33.351562 C 14.222656 33.414062 13.988281 33.449219 13.757812 33.472656 C 13.296875 33.519531 13.230469 33.476562 13.097656 33.019531 C 13.027344 32.78125 12.972656 32.539062 12.9375 32.296875 C 12.710938 30.710938 12.765625 29.140625 13.28125 27.609375 C 13.359375 27.378906 13.460938 27.15625 13.570312 26.878906 C 13.476562 26.910156 13.429688 26.917969 13.390625 26.941406 C 11.761719 27.9375 10.289062 29.121094 9.136719 30.652344 C 8.761719 31.148438 8.476562 31.707031 8.140625 32.230469 C 7.9375 32.546875 7.75 32.878906 7.496094 33.148438 C 7.09375 33.578125 6.570312 33.738281 6.003906 33.558594 C 5.648438 33.445312 5.28125 33.300781 4.992188 33.082031 C 4.53125 32.730469 4.128906 32.300781 3.699219 31.910156 C 3.523438 31.753906 3.5 31.566406 3.546875 31.34375 C 3.609375 31.058594 3.648438 30.765625 3.699219 30.464844 C 3.625 30.441406 3.574219 30.40625 3.527344 30.410156 C 2.964844 30.457031 2.460938 30.230469 1.949219 30.050781 C 1.628906 29.941406 1.3125 29.824219 0.992188 29.726562 C 0.769531 29.660156 0.652344 29.535156 0.589844 29.308594 C 0.296875 28.242188 0.0859375 27.167969 0.0195312 26.058594 C -0.0351562 25.105469 0.0195312 24.167969 0.265625 23.242188 C 0.503906 22.34375 0.933594 21.554688 1.613281 20.917969 C 2.21875 20.351562 2.828125 19.789062 3.488281 19.179688 C 3.351562 18.859375 3.191406 18.484375 3.011719 18.070312 C 3.460938 18.015625 3.855469 18.191406 4.300781 18.195312 C 4.355469 18.066406 4.410156 17.925781 4.472656 17.789062 C 4.863281 16.882812 5.238281 15.972656 5.65625 15.082031 C 5.800781 14.769531 6.023438 14.484375 6.25 14.21875 C 6.542969 13.886719 6.757812 13.890625 7.0625 14.222656 C 7.308594 14.488281 7.535156 14.773438 7.738281 15.074219 C 8.371094 16.007812 8.980469 16.957031 9.613281 17.894531 C 10.179688 18.734375 10.769531 19.558594 11.492188 20.273438 C 11.804688 20.578125 12.152344 20.855469 12.507812 21.117188 C 12.859375 21.375 13.277344 21.488281 13.710938 21.503906 C 13.847656 21.511719 13.984375 21.472656 14.101562 21.457031 C 14.179688 21.222656 14.058594 21.085938 13.953125 20.960938 C 13.722656 20.683594 13.476562 20.414062 13.230469 20.148438 C 12.996094 19.890625 12.757812 19.632812 12.515625 19.378906 C 11.914062 18.75 11.550781 18.019531 11.429688 17.144531 C 11.246094 15.792969 11.097656 14.441406 11.253906 13.074219 C 11.335938 12.363281 11.484375 11.667969 11.785156 11.011719 C 12.242188 10.007812 12.980469 9.335938 14.058594 9.050781 C 14.929688 8.824219 15.804688 8.648438 16.710938 8.703125 C 17.140625 8.730469 17.558594 8.820312 17.941406 9.027344 C 18.359375 9.253906 18.667969 9.566406 18.699219 10.078125 C 18.714844 10.28125 18.765625 10.480469 18.804688 10.730469 C 19.171875 10.566406 19.5 10.421875 19.871094 10.253906 C 19.96875 10.753906 20.054688 11.21875 20.148438 11.695312 C 20.253906 11.695312 20.34375 11.699219 20.429688 11.695312 C 20.921875 11.683594 21.414062 11.652344 21.90625 11.667969 C 22.132812 11.675781 22.367188 11.742188 22.578125 11.832031 C 22.9375 11.988281 23.054688 12.320312 22.882812 12.671875 C 22.800781 12.84375 22.675781 13.011719 22.53125 13.128906 C 22.195312 13.390625 21.84375 13.640625 21.480469 13.863281 C 20.753906 14.3125 19.996094 14.71875 19.277344 15.179688 C 18.746094 15.523438 18.238281 15.914062 17.753906 16.320312 C 17.269531 16.722656 16.882812 17.210938 16.613281 17.785156 C 16.546875 17.9375 16.492188 18.09375 16.480469 18.304688 C 16.574219 18.253906 16.667969 18.207031 16.757812 18.152344 C 18.449219 17.082031 20.1875 16.101562 22.015625 15.285156 C 22.191406 15.203125 22.375 15.136719 22.554688 15.066406 C 22.476562 15.183594 22.40625 15.3125 22.316406 15.421875 C 20.828125 17.21875 19.257812 18.945312 17.535156 20.523438 C 17.300781 20.738281 17.046875 20.933594 16.765625 21.167969 C 16.054688 19.824219 15.375 18.53125 14.691406 17.242188 C 14.742188 18.089844 14.839844 18.910156 14.914062 19.734375 C 14.976562 20.445312 15.011719 21.15625 15.054688 21.867188 C 15.066406 22.0625 15.0625 22.257812 15.0625 22.453125 C 15.0625 22.621094 14.976562 22.71875 14.800781 22.71875 C 14.699219 22.714844 14.59375 22.714844 14.492188 22.703125 C 14.117188 22.660156 13.746094 22.613281 13.371094 22.578125 C 13.128906 22.554688 12.886719 22.550781 12.632812 22.539062 C 12.632812 22.726562 12.644531 22.878906 12.628906 23.03125 C 12.59375 23.375 12.410156 23.488281 12.09375 23.363281 C 11.9375 23.300781 11.789062 23.214844 11.644531 23.132812 C 11.351562 22.960938 11.070312 22.777344 10.773438 22.617188 C 10.457031 22.445312 10.132812 22.277344 9.796875 22.140625 C 9.636719 22.074219 9.40625 22.007812 9.300781 22.199219 C 9.195312 22.394531 9.394531 22.527344 9.535156 22.632812 C 9.78125 22.820312 10.042969 22.992188 10.296875 23.171875 C 10.386719 23.238281 10.507812 23.285156 10.46875 23.492188 C 9.699219 23.382812 8.964844 23.558594 8.25 23.835938 C 7.550781 24.105469 6.859375 24.402344 6.195312 24.84375 C 6.273438 24.871094 6.285156 24.882812 6.296875 24.878906 C 7.914062 24.667969 9.53125 24.429688 11.152344 24.257812 C 11.925781 24.175781 12.707031 24.214844 13.484375 24.199219 C 13.640625 24.199219 13.757812 24.253906 13.832031 24.402344 C 13.984375 24.726562 14.257812 24.925781 14.582031 25.042969 C 14.886719 25.148438 15.203125 25.226562 15.519531 25.292969 C 15.898438 25.371094 16 25.300781 16.128906 24.9375 C 16.1875 24.78125 16.230469 24.613281 16.308594 24.46875 C 16.410156 24.273438 16.554688 24.25 16.722656 24.382812 C 16.804688 24.445312 16.875 24.527344 16.925781 24.617188 C 17.09375 24.90625 17.277344 25.195312 17.410156 25.503906 C 17.695312 26.167969 17.953125 26.847656 18.222656 27.523438 C 18.261719 27.617188 18.316406 27.703125 18.359375 27.796875 C 18.402344 26.503906 18.15625 25.265625 17.996094 23.933594 C 18.085938 24.039062 18.121094 24.074219 18.152344 24.113281 C 18.421875 24.445312 18.675781 24.789062 18.96875 25.101562 C 19.203125 25.351562 19.464844 25.335938 19.722656 25.109375 C 20.21875 24.675781 20.253906 23.796875 19.78125 23.339844 C 19.625 23.1875 19.441406 23.058594 19.265625 22.925781 C 19.132812 22.824219 18.984375 22.742188 18.855469 22.632812 C 18.59375 22.40625 18.585938 22.152344 18.820312 21.890625 C 19.136719 21.539062 19.546875 21.4375 19.988281 21.507812 C 20.382812 21.574219 20.773438 21.675781 21.160156 21.785156 C 21.609375 21.910156 22.046875 22.082031 22.496094 22.199219 C 22.964844 22.320312 23.1875 22.089844 23.019531 21.628906 C 22.886719 21.269531 22.671875 20.9375 22.488281 20.597656 C 22.425781 20.476562 22.34375 20.363281 22.234375 20.191406 C 23.011719 19.898438 23.734375 19.628906 24.457031 19.34375 C 25.175781 19.058594 25.917969 18.835938 26.613281 18.472656 C 26.398438 18.445312 26.191406 18.449219 25.988281 18.476562 C 24.648438 18.671875 23.351562 19.050781 22.070312 19.476562 C 21.039062 19.820312 20.019531 20.207031 18.992188 20.574219 C 18.882812 20.613281 18.773438 20.71875 18.632812 20.621094 C 18.648438 20.570312 18.648438 20.53125 18.667969 20.5 C 18.816406 20.273438 18.960938 20.042969 19.121094 19.820312 C 20.203125 18.3125 21.390625 16.886719 22.601562 15.484375 C 22.84375 15.203125 23.042969 14.871094 23.40625 14.710938 "/>
</g>
<path style=" stroke:none;fill-rule:nonzero;fill:rgb(96.348572%,70.600891%,4.472351%);fill-opacity:1;" d="M 23.40625 14.710938 C 23.042969 14.871094 22.84375 15.203125 22.601562 15.484375 C 21.390625 16.886719 20.203125 18.3125 19.121094 19.820312 C 18.960938 20.042969 18.816406 20.273438 18.667969 20.5 C 18.648438 20.53125 18.648438 20.570312 18.632812 20.621094 C 18.773438 20.71875 18.882812 20.613281 18.992188 20.574219 C 20.019531 20.207031 21.039062 19.820312 22.070312 19.476562 C 23.351562 19.050781 24.648438 18.671875 25.988281 18.476562 C 26.191406 18.449219 26.398438 18.445312 26.613281 18.472656 C 25.917969 18.835938 25.175781 19.058594 24.457031 19.34375 C 23.734375 19.628906 23.011719 19.898438 22.234375 20.191406 C 22.34375 20.363281 22.425781 20.476562 22.488281 20.597656 C 22.671875 20.9375 22.886719 21.269531 23.019531 21.628906 C 23.1875 22.089844 22.964844 22.320312 22.496094 22.199219 C 22.046875 22.082031 21.609375 21.910156 21.160156 21.785156 C 20.773438 21.675781 20.382812 21.574219 19.988281 21.507812 C 19.546875 21.4375 19.136719 21.539062 18.820312 21.890625 C 18.585938 22.152344 18.59375 22.40625 18.855469 22.632812 C 18.984375 22.742188 19.132812 22.824219 19.265625 22.925781 C 19.441406 23.058594 19.625 23.1875 19.78125 23.339844 C 20.253906 23.796875 20.21875 24.675781 19.722656 25.109375 C 19.464844 25.335938 19.203125 25.351562 18.96875 25.101562 C 18.675781 24.789062 18.421875 24.445312 18.152344 24.113281 C 18.121094 24.074219 18.085938 24.039062 17.996094 23.933594 C 18.15625 25.265625 18.402344 26.503906 18.359375 27.796875 C 18.316406 27.703125 18.261719 27.617188 18.222656 27.523438 C 17.953125 26.847656 17.695312 26.167969 17.410156 25.503906 C 17.277344 25.195312 17.09375 24.90625 16.925781 24.617188 C 16.875 24.527344 16.804688 24.445312 16.722656 24.382812 C 16.554688 24.25 16.410156 24.273438 16.308594 24.46875 C 16.230469 24.613281 16.1875 24.78125 16.128906 24.9375 C 16 25.300781 15.898438 25.371094 15.519531 25.292969 C 15.203125 25.226562 14.886719 25.148438 14.582031 25.042969 C 14.257812 24.925781 13.984375 24.726562 13.832031 24.402344 C 13.757812 24.253906 13.640625 24.199219 13.484375 24.199219 C 12.707031 24.214844 11.925781 24.175781 11.152344 24.257812 C 9.53125 24.429688 7.914062 24.667969 6.296875 24.878906 C 6.285156 24.882812 6.273438 24.871094 6.195312 24.84375 C 6.859375 24.402344 7.550781 24.105469 8.25 23.835938 C 8.964844 23.558594 9.699219 23.382812 10.46875 23.492188 C 10.507812 23.285156 10.386719 23.238281 10.296875 23.171875 C 10.042969 22.992188 9.78125 22.820312 9.535156 22.632812 C 9.394531 22.527344 9.195312 22.394531 9.300781 22.199219 C 9.40625 22.007812 9.636719 22.074219 9.796875 22.140625 C 10.132812 22.277344 10.457031 22.445312 10.773438 22.617188 C 11.070312 22.777344 11.351562 22.960938 11.644531 23.132812 C 11.789062 23.214844 11.9375 23.300781 12.09375 23.363281 C 12.410156 23.488281 12.59375 23.375 12.628906 23.03125 C 12.644531 22.878906 12.632812 22.726562 12.632812 22.539062 C 12.886719 22.550781 13.128906 22.554688 13.371094 22.578125 C 13.746094 22.613281 14.117188 22.660156 14.492188 22.703125 C 14.59375 22.714844 14.699219 22.714844 14.800781 22.71875 C 14.976562 22.71875 15.0625 22.621094 15.0625 22.453125 C 15.0625 22.257812 15.066406 22.0625 15.054688 21.867188 C 15.011719 21.15625 14.976562 20.445312 14.914062 19.734375 C 14.839844 18.910156 14.742188 18.089844 14.691406 17.242188 C 15.375 18.53125 16.054688 19.824219 16.765625 21.167969 C 17.046875 20.933594 17.300781 20.738281 17.535156 20.523438 C 19.257812 18.945312 20.828125 17.21875 22.316406 15.421875 C 22.40625 15.3125 22.476562 15.183594 22.554688 15.066406 C 22.75 14.839844 22.960938 14.628906 23.136719 14.390625 C 24.050781 13.148438 24.960938 11.902344 25.867188 10.65625 C 25.980469 10.503906 26.109375 10.351562 26.050781 10.09375 C 25.957031 10.183594 25.886719 10.257812 25.804688 10.316406 C 25.660156 10.421875 25.511719 10.53125 25.351562 10.613281 C 25.117188 10.734375 24.851562 10.832031 24.628906 10.621094 C 24.417969 10.425781 24.476562 10.164062 24.566406 9.929688 C 24.777344 9.355469 25.15625 8.925781 25.695312 8.648438 C 26.175781 8.402344 26.433594 8.503906 26.640625 9.003906 C 26.847656 8.828125 27.046875 8.644531 27.261719 8.484375 C 27.511719 8.296875 27.785156 8.152344 28.113281 8.148438 C 28.519531 8.144531 28.730469 8.386719 28.671875 8.800781 C 28.613281 9.210938 28.433594 9.570312 28.171875 9.882812 C 28.023438 10.0625 27.929688 10.226562 27.996094 10.472656 C 28.027344 10.601562 27.996094 10.761719 27.953125 10.890625 C 27.730469 11.503906 27.320312 11.957031 26.726562 12.230469 C 26.621094 12.277344 26.5 12.289062 26.386719 12.304688 C 26.09375 12.34375 25.976562 12.136719 25.886719 11.875 C 25.804688 11.933594 25.742188 11.96875 25.695312 12.019531 C 25.003906 12.777344 24.316406 13.535156 23.632812 14.300781 C 23.53125 14.414062 23.347656 14.5 23.40625 14.710938 "/>
<path style=" stroke:none;fill-rule:nonzero;fill:rgb(96.348572%,70.600891%,4.472351%);fill-opacity:1;" d="M 28.636719 5.957031 C 28.648438 5.90625 28.667969 5.789062 28.707031 5.679688 C 28.96875 4.953125 29.460938 4.417969 30.125 4.042969 C 30.269531 3.960938 30.441406 3.910156 30.601562 3.886719 C 31.019531 3.832031 31.277344 4.089844 31.234375 4.507812 C 31.222656 4.648438 31.1875 4.792969 31.136719 4.921875 C 30.867188 5.597656 30.417969 6.121094 29.78125 6.46875 C 29.644531 6.542969 29.492188 6.59375 29.34375 6.628906 C 28.898438 6.730469 28.609375 6.476562 28.636719 5.957031 "/>
<path style=" stroke:none;fill-rule:nonzero;fill:rgb(96.348572%,70.600891%,4.472351%);fill-opacity:1;" d="M 30.347656 9.445312 C 30.054688 9.441406 29.867188 9.257812 29.894531 8.972656 C 29.910156 8.796875 29.964844 8.617188 30.039062 8.457031 C 30.253906 8 30.589844 7.644531 31.027344 7.394531 C 31.125 7.335938 31.234375 7.285156 31.34375 7.257812 C 31.753906 7.148438 32.003906 7.363281 31.96875 7.78125 C 31.914062 8.4375 31.089844 9.328125 30.445312 9.433594 C 30.410156 9.4375 30.371094 9.441406 30.347656 9.445312 "/>
<path style=" stroke:none;fill-rule:nonzero;fill:rgb(96.348572%,70.600891%,4.472351%);fill-opacity:1;" d="M 29.628906 2.261719 C 29.648438 2.1875 29.683594 2.023438 29.753906 1.875 C 29.972656 1.417969 30.304688 1.0625 30.742188 0.8125 C 30.996094 0.664062 31.292969 0.550781 31.539062 0.765625 C 31.789062 0.988281 31.6875 1.296875 31.578125 1.5625 C 31.378906 2.027344 31.066406 2.398438 30.632812 2.660156 C 30.5 2.738281 30.355469 2.804688 30.207031 2.839844 C 29.820312 2.9375 29.609375 2.753906 29.628906 2.261719 "/>
<path style=" stroke:none;fill-rule:nonzero;fill:rgb(96.348572%,70.600891%,4.472351%);fill-opacity:1;" d="M 34.132812 0.402344 C 34.113281 0.921875 33.414062 1.699219 32.902344 1.765625 C 32.613281 1.804688 32.4375 1.628906 32.464844 1.332031 C 32.515625 0.824219 33.148438 0.117188 33.652344 0.015625 C 33.945312 -0.0429688 34.140625 0.117188 34.132812 0.402344 "/>
<path style=" stroke:none;fill-rule:nonzero;fill:rgb(96.348572%,70.600891%,4.472351%);fill-opacity:1;" d="M 27.429688 4.582031 C 27.652344 4.585938 27.753906 4.675781 27.777344 4.882812 C 27.785156 4.957031 27.78125 5.039062 27.765625 5.113281 C 27.683594 5.597656 27.085938 6.226562 26.613281 6.328125 C 26.296875 6.394531 26.113281 6.230469 26.140625 5.90625 C 26.179688 5.402344 26.835938 4.675781 27.328125 4.589844 C 27.367188 4.585938 27.40625 4.582031 27.429688 4.582031 "/>
<path style=" stroke:none;fill-rule:nonzero;fill:rgb(96.348572%,70.600891%,4.472351%);fill-opacity:1;" d="M 14.257812 16.035156 C 14.347656 16.238281 14.4375 16.4375 14.554688 16.707031 C 14.304688 16.496094 14.277344 16.441406 14.179688 16.078125 C 14.203125 16.066406 14.230469 16.050781 14.257812 16.035156 "/>
<path style=" stroke:none;fill-rule:nonzero;fill:rgb(14.645386%,26.911926%,54.240417%);fill-opacity:1;" d="M 52.023438 24.332031 L 50.394531 16.40625 L 43.605469 24.332031 Z M 52.734375 27.613281 L 41.59375 27.613281 L 38.21875 31.96875 L 32.273438 31.96875 L 48.167969 12.265625 L 54.59375 12.265625 L 59.15625 31.96875 L 53.671875 31.96875 L 52.734375 27.613281 "/>
<path style=" stroke:none;fill-rule:nonzero;fill:rgb(14.645386%,26.911926%,54.240417%);fill-opacity:1;" d="M 68.515625 12.265625 L 74.019531 12.265625 L 72.984375 15.761719 L 67.480469 15.761719 Z M 66.90625 17.695312 L 72.410156 17.695312 L 68.152344 31.96875 L 62.648438 31.96875 L 66.90625 17.695312 "/>
<path style=" stroke:none;fill-rule:nonzero;fill:rgb(14.645386%,26.911926%,54.240417%);fill-opacity:1;" d="M 77.511719 17.695312 L 82.648438 17.695312 L 81.824219 20.464844 C 83.742188 18.394531 85.820312 17.359375 88.054688 17.359375 C 88.847656 17.359375 89.699219 17.5 90.605469 17.777344 L 88.496094 20.933594 C 88 20.808594 87.46875 20.746094 86.90625 20.746094 C 85.960938 20.746094 84.996094 20.996094 84.019531 21.5 C 83.042969 22 82.277344 22.667969 81.726562 23.507812 C 81.179688 24.34375 80.636719 25.671875 80.097656 27.492188 L 78.757812 31.96875 L 73.253906 31.96875 L 77.511719 17.695312 "/>
<path style=" stroke:none;fill-rule:nonzero;fill:rgb(14.645386%,26.911926%,54.240417%);fill-opacity:1;" d="M 102.648438 26.589844 L 108 27.195312 C 107.117188 28.863281 105.8125 30.128906 104.089844 31 C 102.363281 31.867188 100.359375 32.304688 98.085938 32.304688 C 95.492188 32.304688 93.433594 31.761719 91.910156 30.675781 C 90.390625 29.59375 89.628906 28.101562 89.628906 26.203125 C 89.628906 24.652344 90.089844 23.1875 91.011719 21.808594 C 91.929688 20.429688 93.316406 19.339844 95.171875 18.546875 C 97.023438 17.753906 99.058594 17.359375 101.269531 17.359375 C 103.671875 17.359375 105.589844 17.796875 107.023438 18.675781 C 108.453125 19.554688 109.257812 20.710938 109.4375 22.144531 L 104.203125 22.53125 C 104.074219 21.734375 103.726562 21.148438 103.15625 20.773438 C 102.589844 20.394531 101.84375 20.207031 100.925781 20.207031 C 99.863281 20.207031 98.871094 20.484375 97.953125 21.042969 C 97.03125 21.597656 96.324219 22.429688 95.832031 23.535156 C 95.339844 24.640625 95.09375 25.679688 95.09375 26.644531 C 95.09375 27.488281 95.386719 28.136719 95.976562 28.59375 C 96.566406 29.050781 97.300781 29.28125 98.183594 29.28125 C 99.0625 29.28125 99.914062 29.054688 100.730469 28.609375 C 101.550781 28.160156 102.191406 27.488281 102.648438 26.589844 "/>
<path style=" stroke:none;fill-rule:nonzero;fill:rgb(14.645386%,26.911926%,54.240417%);fill-opacity:1;" d="M 123.6875 25.316406 C 123.355469 25.378906 122.914062 25.4375 122.363281 25.488281 C 119.601562 25.722656 117.800781 26.0625 116.957031 26.511719 C 116.355469 26.832031 116.054688 27.269531 116.054688 27.816406 C 116.054688 28.261719 116.285156 28.640625 116.746094 28.949219 C 117.203125 29.257812 117.8125 29.414062 118.566406 29.414062 C 119.398438 29.414062 120.179688 29.273438 120.914062 28.992188 C 121.652344 28.707031 122.199219 28.34375 122.566406 27.902344 C 122.929688 27.457031 123.253906 26.765625 123.53125 25.824219 Z M 118.449219 21.738281 L 113.082031 21.417969 C 113.695312 20.144531 114.765625 19.152344 116.292969 18.433594 C 117.820312 17.71875 119.84375 17.359375 122.363281 17.359375 C 124.984375 17.359375 126.921875 17.730469 128.175781 18.46875 C 129.425781 19.207031 130.054688 20.109375 130.054688 21.175781 C 130.054688 21.605469 130 22.0625 129.890625 22.546875 C 129.78125 23.03125 129.402344 24.300781 128.75 26.363281 C 128.210938 28.066406 127.945312 29.257812 127.945312 29.9375 C 127.945312 30.546875 128.097656 31.222656 128.402344 31.96875 L 123.054688 31.96875 C 122.835938 31.449219 122.703125 30.910156 122.652344 30.355469 C 121.847656 30.980469 120.917969 31.464844 119.871094 31.800781 C 118.820312 32.136719 117.765625 32.304688 116.707031 32.304688 C 115.019531 32.304688 113.625 31.914062 112.527344 31.140625 C 111.425781 30.367188 110.878906 29.367188 110.878906 28.152344 C 110.878906 26.789062 111.480469 25.699219 112.6875 24.886719 C 113.898438 24.070312 116.054688 23.578125 119.160156 23.40625 C 121.78125 23.253906 123.53125 23.070312 124.414062 22.855469 C 124.644531 22.316406 124.761719 21.886719 124.761719 21.566406 C 124.761719 21.152344 124.523438 20.808594 124.050781 20.53125 C 123.578125 20.253906 122.875 20.113281 121.941406 20.113281 C 120.957031 20.113281 120.179688 20.253906 119.613281 20.539062 C 119.042969 20.820312 118.65625 21.222656 118.449219 21.738281 "/>
<path style=" stroke:none;fill-rule:nonzero;fill:rgb(14.645386%,26.911926%,54.240417%);fill-opacity:1;" d="M 132.488281 31.96875 L 138.375 12.265625 L 143.859375 12.265625 L 137.992188 31.96875 L 132.488281 31.96875 "/>
<path style=" stroke:none;fill-rule:nonzero;fill:rgb(14.645386%,26.911926%,54.240417%);fill-opacity:1;" d="M 149.304688 12.265625 L 154.808594 12.265625 L 153.773438 15.761719 L 148.269531 15.761719 Z M 147.695312 17.695312 L 153.199219 17.695312 L 148.941406 31.96875 L 143.4375 31.96875 L 147.695312 17.695312 "/>
<path style=" stroke:none;fill-rule:nonzero;fill:rgb(14.645386%,26.911926%,54.240417%);fill-opacity:1;" d="M 158.683594 17.695312 L 163.898438 17.695312 L 163.363281 19.550781 C 164.667969 18.761719 165.882812 18.199219 167.015625 17.863281 C 168.148438 17.527344 169.339844 17.359375 170.59375 17.359375 C 172.265625 17.359375 173.585938 17.695312 174.550781 18.367188 C 175.515625 19.039062 176 19.929688 176 21.042969 C 176 21.542969 175.789062 22.492188 175.367188 23.890625 L 172.96875 31.96875 L 167.46875 31.96875 L 169.882812 23.863281 C 170.242188 22.652344 170.421875 21.933594 170.421875 21.699219 C 170.421875 21.207031 170.210938 20.820312 169.796875 20.539062 C 169.382812 20.253906 168.800781 20.113281 168.0625 20.113281 C 167.253906 20.113281 166.359375 20.351562 165.375 20.828125 C 164.390625 21.300781 163.617188 21.929688 163.054688 22.707031 C 162.648438 23.261719 162.1875 24.398438 161.675781 26.109375 L 159.929688 31.96875 L 154.425781 31.96875 L 158.683594 17.695312 "/>
</g>
</svg>
