<?xml version="1.0" encoding="UTF-8"?>
<svg xmlns="http://www.w3.org/2000/svg" xmlns:xlink="http://www.w3.org/1999/xlink" width="176pt" height="24.35pt" viewBox="0 0 176 24.35" version="1.1">
<defs>
<clipPath id="clip1">
  <path d="M 0 3 L 176 3 L 176 24.351562 L 0 24.351562 Z M 0 3 "/>
</clipPath>
</defs>
<g id="surface1">
<g clip-path="url(#clip1)" clip-rule="nonzero">
<path style=" stroke:none;fill-rule:nonzero;fill:rgb(16.90979%,17.344666%,47.463989%);fill-opacity:1;" d="M 131.1875 4.660156 C 130.480469 5.03125 128.949219 6.277344 128.949219 6.277344 L 116.980469 18.40625 C 116.980469 18.40625 114.179688 21.15625 112.183594 21.773438 C 110.1875 22.625 107.335938 22.898438 107.335938 22.898438 L 0.570312 22.898438 L 0.570312 24.28125 L 122.6875 24.28125 C 122.6875 24.28125 129.757812 25.324219 134.175781 19.261719 C 139.78125 13.859375 144.574219 7.03125 148.992188 5.796875 C 150.515625 5.140625 154.457031 4.664062 154.457031 4.664062 L 176 4.664062 L 176 3.597656 L 135.410156 3.597656 C 135.410156 3.597656 131.894531 4.285156 131.1875 4.660156 "/>
</g>
<path style=" stroke:none;fill-rule:nonzero;fill:rgb(16.90979%,17.344666%,47.463989%);fill-opacity:1;" d="M 104.582031 1.464844 C 104.582031 1.464844 100.902344 1.609375 99.082031 2.320312 C 97.589844 2.777344 95.308594 4.488281 95.308594 4.488281 L 84.15625 15.714844 C 84.15625 15.714844 81.34375 18.347656 79.488281 19.238281 C 77.636719 20.125 75.320312 20.125 75.320312 20.125 L 0.570312 20.125 L 0.570312 21.511719 L 89.382812 21.511719 C 89.382812 21.511719 94.082031 21.492188 96.457031 20.300781 C 98.832031 19.113281 100.066406 17.601562 100.066406 17.601562 C 100.066406 17.601562 111.921875 5.519531 113.746094 4.660156 C 114.296875 4.355469 116.414062 3.3125 116.785156 3.242188 C 117.609375 2.835938 123.011719 2.53125 123.011719 2.53125 L 176 2.53125 L 176 1.464844 L 104.582031 1.464844 "/>
<path style=" stroke:none;fill-rule:nonzero;fill:rgb(90.112305%,91.952515%,3.100586%);fill-opacity:1;" d="M 116.785156 3.242188 C 116.414062 3.3125 114.296875 4.355469 113.746094 4.660156 C 111.921875 5.519531 100.066406 17.601562 100.066406 17.601562 C 100.066406 17.601562 98.832031 19.113281 96.457031 20.300781 C 94.082031 21.492188 89.382812 21.511719 89.382812 21.511719 L 0.570312 21.511719 L 0.570312 22.898438 L 107.335938 22.898438 C 107.335938 22.898438 110.1875 22.625 112.183594 21.773438 C 114.179688 21.15625 116.980469 18.40625 116.980469 18.40625 L 128.949219 6.277344 C 128.949219 6.277344 130.480469 5.03125 131.1875 4.660156 C 131.894531 4.285156 135.410156 3.597656 135.410156 3.597656 L 176 3.597656 L 176 2.53125 L 123.011719 2.53125 C 123.011719 2.53125 117.609375 2.835938 116.785156 3.242188 "/>
<path style=" stroke:none;fill-rule:nonzero;fill:rgb(16.90979%,17.344666%,47.463989%);fill-opacity:1;" d="M 170.457031 17.070312 L 153.5 17.070312 L 158.0625 14.117188 L 156.210938 12.625 L 148.265625 11.097656 L 158.492188 11.097656 L 166.824219 16.785156 L 168.5 15.574219 L 170.457031 17.070312 "/>
<path style=" stroke:none;fill-rule:nonzero;fill:rgb(16.90979%,17.344666%,47.463989%);fill-opacity:1;" d="M 161.121094 12.339844 L 163.582031 14.085938 L 165.1875 13.195312 L 173.734375 10.816406 L 163.4375 10.816406 L 161.121094 12.339844 "/>
<path style=" stroke:none;fill-rule:nonzero;fill:rgb(16.90979%,17.344666%,47.463989%);fill-opacity:1;" d="M 154.710938 13.445312 L 156.261719 14.113281 C 156.273438 13.738281 156.328125 13.371094 156.417969 13.019531 L 154.710938 13.445312 "/>
<path style=" stroke:none;fill-rule:nonzero;fill:rgb(16.90979%,17.344666%,47.463989%);fill-opacity:1;" d="M 156.253906 14.246094 L 154.710938 14.828125 C 154.710938 14.828125 155.851562 15.253906 156.390625 15.472656 C 156.304688 15.09375 156.253906 14.699219 156.253906 14.296875 C 156.253906 14.28125 156.253906 14.265625 156.253906 14.246094 "/>
<path style=" stroke:none;fill-rule:nonzero;fill:rgb(16.90979%,17.344666%,47.463989%);fill-opacity:1;" d="M 157.28125 17.390625 L 156.546875 19.007812 L 158.054688 18.207031 C 157.769531 17.96875 157.507812 17.691406 157.28125 17.390625 "/>
<path style=" stroke:none;fill-rule:nonzero;fill:rgb(16.90979%,17.344666%,47.463989%);fill-opacity:1;" d="M 158.0625 20.070312 L 159.25 18.945312 C 158.925781 18.804688 158.617188 18.625 158.328125 18.421875 L 158.0625 20.070312 "/>
<path style=" stroke:none;fill-rule:nonzero;fill:rgb(16.90979%,17.344666%,47.463989%);fill-opacity:1;" d="M 160.054688 20.746094 L 160.84375 19.3125 C 160.445312 19.289062 160.0625 19.226562 159.703125 19.113281 L 160.054688 20.746094 "/>
<path style=" stroke:none;fill-rule:nonzero;fill:rgb(16.90979%,17.344666%,47.463989%);fill-opacity:1;" d="M 162.191406 20.695312 L 162.40625 19.125 C 162.046875 19.230469 161.671875 19.296875 161.28125 19.3125 L 162.191406 20.695312 "/>
<path style=" stroke:none;fill-rule:nonzero;fill:rgb(16.90979%,17.344666%,47.463989%);fill-opacity:1;" d="M 163.960938 20.160156 L 163.84375 18.429688 C 163.53125 18.652344 163.191406 18.832031 162.835938 18.980469 L 163.960938 20.160156 "/>
<path style=" stroke:none;fill-rule:nonzero;fill:rgb(16.90979%,17.344666%,47.463989%);fill-opacity:1;" d="M 164.113281 18.21875 L 165.382812 18.9375 L 164.753906 17.570312 C 164.558594 17.804688 164.347656 18.023438 164.113281 18.21875 "/>
<path style=" stroke:none;fill-rule:nonzero;fill:rgb(16.90979%,17.344666%,47.463989%);fill-opacity:1;" d="M 167.21875 15.21875 L 165.914062 14.523438 C 165.898438 14.855469 165.855469 15.179688 165.78125 15.496094 C 166.175781 15.4375 167.21875 15.21875 167.21875 15.21875 "/>
<path style=" stroke:none;fill-rule:nonzero;fill:rgb(16.90979%,17.344666%,47.463989%);fill-opacity:1;" d="M 167.378906 13.550781 L 165.695312 12.765625 C 165.835938 13.214844 165.910156 13.691406 165.921875 14.1875 C 166.40625 13.988281 167.378906 13.550781 167.378906 13.550781 "/>
<path style=" stroke:none;fill-rule:nonzero;fill:rgb(16.90979%,17.344666%,47.463989%);fill-opacity:1;" d="M 162.011719 9.363281 L 161.480469 7.933594 L 160.859375 9.28125 C 160.9375 9.277344 161.015625 9.269531 161.089844 9.269531 C 161.40625 9.269531 161.710938 9.304688 162.011719 9.363281 "/>
<path style=" stroke:none;fill-rule:nonzero;fill:rgb(16.90979%,17.344666%,47.463989%);fill-opacity:1;" d="M 159.984375 8.003906 L 159.628906 9.503906 C 159.953125 9.398438 160.292969 9.328125 160.644531 9.292969 L 159.984375 8.003906 "/>
<path style=" stroke:none;fill-rule:nonzero;fill:rgb(16.90979%,17.344666%,47.463989%);fill-opacity:1;" d="M 158.347656 8.46875 L 158.519531 10.042969 C 158.800781 9.863281 159.101562 9.707031 159.414062 9.585938 L 158.347656 8.46875 "/>
<path style=" stroke:none;fill-rule:nonzero;fill:rgb(16.90979%,17.344666%,47.463989%);fill-opacity:1;" d="M 158.234375 10.242188 L 156.886719 9.425781 L 157.546875 10.878906 C 157.753906 10.648438 157.988281 10.429688 158.234375 10.242188 "/>
<path style=" stroke:none;fill-rule:nonzero;fill:rgb(16.90979%,17.344666%,47.463989%);fill-opacity:1;" d="M 164.5625 8.859375 L 163.378906 9.871094 C 163.695312 10.042969 163.992188 10.265625 164.261719 10.511719 L 164.5625 8.859375 "/>
<path style=" stroke:none;fill-rule:nonzero;fill:rgb(16.90979%,17.344666%,47.463989%);fill-opacity:1;" d="M 163.101562 8.148438 L 162.167969 9.398438 C 162.511719 9.480469 162.839844 9.601562 163.148438 9.753906 L 163.101562 8.148438 "/>
<path style=" stroke:none;fill-rule:nonzero;fill:rgb(16.90979%,17.344666%,47.463989%);fill-opacity:1;" d="M 38.980469 17.070312 L 38.980469 12.769531 L 37.757812 12.769531 L 37.757812 17.070312 L 38.980469 17.070312 "/>
<path style=" stroke:none;fill-rule:nonzero;fill:rgb(16.90979%,17.344666%,47.463989%);fill-opacity:1;" d="M 25.554688 12.769531 L 25.554688 15.601562 L 23.53125 12.769531 L 21.902344 12.769531 L 21.902344 17.070312 L 23.128906 17.070312 L 23.128906 13.925781 L 25.378906 17.070312 L 26.78125 17.070312 L 26.78125 12.769531 L 25.554688 12.769531 "/>
<path style=" stroke:none;fill-rule:nonzero;fill:rgb(16.90979%,17.344666%,47.463989%);fill-opacity:1;" d="M 60.554688 12.796875 L 59.578125 14.375 L 58.261719 12.796875 L 56.785156 12.769531 L 58.910156 15.449219 L 57.910156 17.070312 L 59.144531 17.070312 L 61.785156 12.796875 L 60.554688 12.796875 "/>
<path style=" stroke:none;fill-rule:nonzero;fill:rgb(16.90979%,17.344666%,47.463989%);fill-opacity:1;" d="M 50.707031 12.769531 L 49.792969 15.859375 L 49.109375 12.769531 L 47.558594 12.769531 L 46.894531 15.765625 L 46.011719 12.769531 L 44.78125 12.769531 L 46.058594 17.070312 L 47.683594 17.070312 L 48.335938 14.128906 L 48.984375 17.070312 L 50.65625 17.070312 L 51.933594 12.769531 L 50.707031 12.769531 "/>
<path style=" stroke:none;fill-rule:nonzero;fill:rgb(16.90979%,17.344666%,47.463989%);fill-opacity:1;" d="M 55.308594 15.238281 L 54.296875 15.238281 L 55.203125 13.742188 L 55.308594 13.742188 Z M 55.308594 12.738281 L 52.457031 12.738281 L 52.457031 13.742188 L 53.816406 13.742188 L 51.808594 17.035156 L 53.179688 17.070312 L 53.683594 16.238281 L 55.308594 16.238281 L 55.308594 17.035156 L 56.535156 17.035156 L 56.535156 12.738281 L 55.308594 12.738281 "/>
<path style=" stroke:none;fill-rule:nonzero;fill:rgb(16.90979%,17.344666%,47.463989%);fill-opacity:1;" d="M 35.382812 15.238281 L 34.367188 15.238281 L 35.277344 13.742188 L 35.382812 13.742188 Z M 35.382812 12.738281 L 32.53125 12.738281 L 32.53125 13.742188 L 33.882812 13.742188 L 31.882812 17.035156 L 33.253906 17.070312 L 33.757812 16.238281 L 35.382812 16.238281 L 35.382812 17.035156 L 36.605469 17.035156 L 36.605469 12.738281 L 35.382812 12.738281 "/>
<path style=" stroke:none;fill-rule:nonzero;fill:rgb(16.90979%,17.344666%,47.463989%);fill-opacity:1;" d="M 19.554688 15.238281 L 18.542969 15.238281 L 19.449219 13.742188 L 19.554688 13.742188 Z M 19.554688 12.738281 L 16.703125 12.738281 L 16.703125 13.742188 L 18.058594 13.742188 L 16.054688 17.035156 L 17.421875 17.070312 L 17.925781 16.238281 L 19.554688 16.238281 L 19.554688 17.035156 L 20.78125 17.035156 L 20.78125 12.738281 L 19.554688 12.738281 "/>
<path style=" stroke:none;fill-rule:nonzero;fill:rgb(16.90979%,17.344666%,47.463989%);fill-opacity:1;" d="M 64.910156 14.398438 C 64.886719 14.398438 63.320312 14.398438 63.050781 14.398438 C 62.960938 14.382812 62.738281 14.203125 62.738281 14.085938 C 62.738281 13.90625 62.921875 13.78125 63.023438 13.722656 L 65.839844 13.722656 L 65.839844 12.75 L 62.914062 12.75 L 62.738281 12.78125 C 62.367188 12.921875 61.734375 13.3125 61.734375 14.085938 C 61.734375 14.871094 62.390625 15.238281 62.832031 15.285156 L 62.859375 15.289062 L 64.765625 15.289062 C 64.757812 15.292969 65.042969 15.328125 65.042969 15.625 C 65.042969 15.917969 64.808594 16.019531 64.699219 16.039062 L 61.636719 16.039062 L 61.636719 17.070312 L 64.734375 17.070312 L 64.796875 17.066406 C 65.296875 17 66.238281 16.617188 66.238281 15.625 C 66.238281 14.609375 65.410156 14.425781 64.910156 14.398438 "/>
<path style=" stroke:none;fill-rule:nonzero;fill:rgb(16.90979%,17.344666%,47.463989%);fill-opacity:1;" d="M 3.484375 14.398438 C 3.460938 14.398438 1.898438 14.398438 1.628906 14.398438 C 1.542969 14.382812 1.320312 14.203125 1.320312 14.085938 C 1.320312 13.90625 1.5 13.78125 1.605469 13.722656 L 4.417969 13.722656 L 4.417969 12.75 L 1.488281 12.75 L 1.320312 12.78125 C 0.945312 12.921875 0.316406 13.3125 0.316406 14.085938 C 0.316406 14.871094 0.96875 15.238281 1.40625 15.285156 L 1.4375 15.289062 L 3.339844 15.289062 C 3.332031 15.292969 3.621094 15.328125 3.621094 15.625 C 3.621094 15.917969 3.386719 16.019531 3.277344 16.039062 L 0.214844 16.039062 L 0.214844 17.070312 L 3.316406 17.070312 L 3.378906 17.066406 C 3.875 17 4.820312 16.617188 4.820312 15.625 C 4.820312 14.609375 3.988281 14.425781 3.484375 14.398438 "/>
<path style=" stroke:none;fill-rule:nonzero;fill:rgb(16.90979%,17.344666%,47.463989%);fill-opacity:1;" d="M 14.136719 16.125 L 12.453125 16.125 L 12.453125 13.785156 L 14.019531 13.785156 C 14.148438 13.792969 14.75 13.902344 14.75 14.78125 C 14.75 15.679688 14.308594 16.058594 14.136719 16.125 Z M 14.203125 12.769531 L 11.226562 12.769531 L 11.226562 17.070312 L 14.179688 17.070312 L 14.238281 17.054688 C 14.785156 16.925781 15.820312 16.316406 15.820312 14.78125 C 15.820312 13.160156 14.761719 12.789062 14.203125 12.769531 "/>
<path style=" stroke:none;fill-rule:nonzero;fill:rgb(16.90979%,17.344666%,47.463989%);fill-opacity:1;" d="M 8.875 12.769531 L 8.875 16.167969 L 7.113281 16.167969 C 6.898438 16.167969 6.730469 15.988281 6.730469 15.769531 C 6.730469 15.765625 6.730469 15.765625 6.730469 15.765625 L 6.730469 12.769531 L 5.5 12.769531 C 5.5 12.769531 5.5 14.980469 5.5 16.082031 C 5.5 17.179688 6.730469 17.070312 6.730469 17.070312 L 10.105469 17.070312 L 10.105469 12.769531 L 8.875 12.769531 "/>
<path style=" stroke:none;fill-rule:nonzero;fill:rgb(16.90979%,17.344666%,47.463989%);fill-opacity:1;" d="M 41.332031 13.808594 L 42.78125 13.808594 L 42.78125 13.800781 C 43.183594 13.800781 43.367188 13.921875 43.367188 14.257812 C 43.367188 14.542969 43.230469 14.660156 42.945312 14.695312 L 41.332031 14.695312 Z M 44.710938 17.042969 L 43.804688 15.503906 C 44.242188 15.273438 44.542969 14.855469 44.542969 14.179688 C 44.542969 13.046875 43.699219 12.769531 42.78125 12.769531 L 40.109375 12.769531 L 40.109375 17.070312 L 41.332031 17.070312 L 41.332031 15.730469 L 42.503906 15.730469 L 43.277344 17.042969 L 44.710938 17.042969 "/>
<path style=" stroke:none;fill-rule:nonzero;fill:rgb(16.90979%,17.344666%,47.463989%);fill-opacity:1;" d="M 66.097656 3.140625 L 65.445312 4.378906 L 65.347656 7.640625 L 65.230469 8.808594 L 65.863281 7.296875 L 66.097656 3.140625 "/>
<path style=" stroke:none;fill-rule:nonzero;fill:rgb(16.90979%,17.344666%,47.463989%);fill-opacity:1;" d="M 60.976562 0.636719 L 60.210938 1.566406 L 60.894531 2.214844 L 61.695312 1.308594 L 60.976562 0.636719 "/>
<path style=" stroke:none;fill-rule:nonzero;fill:rgb(16.90979%,17.344666%,47.463989%);fill-opacity:1;" d="M 58.492188 6.417969 C 58.492188 6.417969 56.929688 7.191406 56.878906 7.019531 C 57.160156 6.816406 58.410156 5.476562 58.542969 5.445312 C 58.675781 5.410156 59.214844 5.410156 59.242188 5.632812 C 59.28125 5.855469 58.492188 6.417969 58.492188 6.417969 Z M 66.144531 0.00390625 C 66.144531 0.00390625 65.515625 1.515625 64.765625 1.996094 C 63.894531 2.609375 62.015625 3.089844 61.476562 3.554688 C 60.945312 4.019531 60.609375 4.910156 60.609375 4.910156 L 62.28125 5.050781 C 62.28125 5.050781 59.480469 6.867188 59.175781 6.710938 C 59.078125 6.625 60.097656 5.339844 60.011719 4.945312 C 60.097656 4.363281 59.328125 4.449219 59.160156 4.5 C 58.992188 4.550781 57.792969 5.617188 57.792969 5.617188 L 58.042969 3.417969 C 58.042969 3.417969 58.09375 1.222656 58.042969 1.222656 C 57.777344 1.1875 57.328125 2.460938 57.328125 2.460938 C 57.328125 2.460938 57.3125 4.535156 57.277344 5.476562 C 57.246094 6.417969 56.710938 6.730469 56.710938 6.730469 C 56.710938 6.730469 56.058594 7.535156 55.425781 7.140625 C 55.425781 7.140625 55.59375 5.992188 54.960938 5.890625 C 54.328125 5.789062 53.578125 7.105469 53.605469 7.363281 C 53.558594 7.898438 54.578125 8.15625 54.578125 8.15625 C 54.578125 8.15625 53.257812 9.238281 51.828125 9.734375 C 51.742188 9.71875 51.808594 9.890625 51.808594 9.890625 C 51.808594 9.890625 52.660156 9.890625 53.695312 9.597656 C 54.726562 9.304688 55.125 8.050781 55.125 8.050781 C 55.125 8.050781 56.359375 8.035156 56.996094 7.914062 C 60.460938 7.175781 63.84375 4.757812 63.761719 4.394531 C 63.746094 4.308594 61.460938 4.515625 61.492188 4.34375 C 61.5625 3.933594 64.179688 3.089844 64.179688 3.089844 C 65.414062 2.679688 66.414062 0.3125 66.414062 0.3125 L 66.144531 0.00390625 "/>
<path style=" stroke:none;fill-rule:nonzero;fill:rgb(16.90979%,17.344666%,47.463989%);fill-opacity:1;" d="M 51.226562 7.175781 L 50.589844 7.414062 C 50.589844 7.414062 49.507812 8 49.523438 7.84375 C 49.65625 7.671875 50.960938 6.351562 51.09375 6.320312 C 51.226562 6.285156 51.660156 6.199219 51.742188 6.578125 C 51.757812 6.675781 51.226562 7.175781 51.226562 7.175781 Z M 50.140625 6.578125 L 50.339844 4.980469 L 50.441406 2.03125 L 49.792969 2.917969 C 49.792969 2.917969 49.65625 6.285156 49.640625 6.699219 C 49.625 7.105469 49.058594 7.929688 48.925781 8.15625 C 48.792969 8.378906 47.089844 8.53125 47.089844 8.53125 L 47.109375 8.703125 C 47.109375 8.703125 48.441406 9.203125 49.925781 8.722656 C 50.109375 8.671875 52.410156 8.050781 52.558594 5.339844 C 52.027344 4.570312 50.140625 6.578125 50.140625 6.578125 "/>
<path style=" stroke:none;fill-rule:nonzero;fill:rgb(16.90979%,17.344666%,47.463989%);fill-opacity:1;" d="M 46.59375 4.292969 C 46.625 4.378906 46.324219 5.53125 46.292969 5.734375 C 46.425781 7.414062 45.578125 9.355469 45.578125 9.355469 C 45.578125 9.355469 45.328125 8.894531 45.394531 8.789062 C 45.460938 8.6875 45.761719 5.496094 45.761719 5.496094 C 45.761719 5.496094 46.242188 4.222656 46.59375 4.292969 "/>
<path style=" stroke:none;fill-rule:nonzero;fill:rgb(16.90979%,17.344666%,47.463989%);fill-opacity:1;" d="M 47.390625 0.636719 L 47.523438 0.828125 C 47.523438 0.828125 46.925781 3.46875 44.558594 4.207031 C 42.976562 4.703125 42.40625 4.910156 42.308594 5.238281 C 42.289062 5.359375 44.492188 5.339844 44.492188 5.339844 L 44.507812 5.445312 C 44.507812 5.445312 43.875 6.761719 41.023438 7.929688 C 40.808594 7.984375 40.324219 8 40.324219 8 C 40.324219 8 39.804688 9.410156 39.039062 9.527344 C 38.273438 9.648438 37.34375 9.597656 37.34375 9.597656 C 37.34375 9.597656 39.84375 8.292969 39.90625 8.050781 C 39.921875 7.984375 39.589844 7.84375 39.589844 7.84375 C 39.589844 7.84375 38.824219 7.726562 38.941406 7.226562 C 38.992188 7.054688 39.589844 5.921875 40.210938 5.941406 C 41.089844 6.09375 40.691406 7.296875 40.691406 7.296875 C 41.042969 7.570312 43.441406 5.992188 43.441406 5.992188 C 43.441406 5.992188 41.472656 5.941406 41.390625 5.753906 C 41.308594 5.566406 42.59375 4.15625 42.59375 4.15625 C 42.59375 4.15625 44.207031 3.710938 45.34375 3.074219 C 46.476562 2.4375 47.390625 0.636719 47.390625 0.636719 "/>
<path style=" stroke:none;fill-rule:nonzero;fill:rgb(16.90979%,17.344666%,47.463989%);fill-opacity:1;" d="M 38.523438 4.257812 L 37.742188 5.339844 L 37.742188 6.011719 C 37.742188 6.011719 36.039062 7.878906 33.539062 7.964844 C 31.039062 8.050781 29.507812 6.933594 29.507812 6.933594 L 27.207031 9.253906 L 27.371094 9.410156 L 28.90625 8 C 28.90625 8 30.855469 9.269531 32.757812 9.03125 C 36.257812 9.046875 38.226562 5.976562 38.226562 5.976562 L 38.523438 4.257812 "/>
<path style=" stroke:none;fill-rule:nonzero;fill:rgb(16.90979%,17.344666%,47.463989%);fill-opacity:1;" d="M 43.277344 7.570312 C 43.277344 7.570312 42.695312 8.34375 42.621094 8.394531 C 42.554688 8.445312 43.191406 8.789062 43.210938 8.960938 C 43.226562 9.132812 44.109375 8.480469 44.007812 8.257812 C 43.910156 8.035156 43.34375 7.46875 43.277344 7.570312 "/>
<path style=" stroke:none;fill-rule:nonzero;fill:rgb(16.90979%,17.344666%,47.463989%);fill-opacity:1;" d="M 12.054688 1.945312 C 12.054688 1.945312 11.472656 2.710938 11.40625 2.765625 C 11.339844 2.816406 11.972656 3.160156 11.988281 3.332031 C 12.007812 3.503906 12.890625 2.851562 12.792969 2.628906 C 12.691406 2.40625 12.125 1.839844 12.054688 1.945312 "/>
<path style=" stroke:none;fill-rule:nonzero;fill:rgb(16.90979%,17.344666%,47.463989%);fill-opacity:1;" d="M 35.023438 9.460938 C 35.023438 9.460938 34.238281 10.335938 34.15625 10.285156 C 34.070312 10.234375 33.671875 9.582031 33.570312 9.648438 C 33.472656 9.71875 32.605469 10.386719 32.625 10.46875 C 32.640625 10.554688 33.238281 11.105469 33.324219 11.085938 C 33.40625 11.074219 34.15625 10.335938 34.15625 10.335938 C 34.15625 10.335938 34.609375 10.984375 34.726562 10.96875 C 34.839844 10.953125 35.605469 10.234375 35.589844 10.160156 C 35.574219 10.09375 35.023438 9.460938 35.023438 9.460938 "/>
<path style=" stroke:none;fill-rule:nonzero;fill:rgb(16.90979%,17.344666%,47.463989%);fill-opacity:1;" d="M 10.695312 8.800781 C 10.695312 8.800781 9.914062 9.675781 9.832031 9.625 C 9.75 9.574219 9.34375 8.921875 9.246094 8.992188 C 9.144531 9.058594 8.277344 9.730469 8.296875 9.816406 C 8.3125 9.902344 8.910156 10.449219 8.996094 10.429688 C 9.078125 10.414062 9.832031 9.675781 9.832031 9.675781 C 9.832031 9.675781 10.28125 10.332031 10.398438 10.3125 C 10.515625 10.292969 11.28125 9.574219 11.261719 9.503906 C 11.246094 9.4375 10.695312 8.800781 10.695312 8.800781 "/>
<path style=" stroke:none;fill-rule:nonzero;fill:rgb(16.90979%,17.344666%,47.463989%);fill-opacity:1;" d="M 29.972656 2.558594 C 29.90625 2.585938 29.054688 3.296875 29.140625 3.382812 C 29.222656 3.46875 29.855469 3.882812 29.789062 3.96875 C 29.722656 4.054688 29.023438 4.6875 29.089844 4.808594 C 29.15625 4.929688 29.589844 5.582031 29.671875 5.566406 C 29.757812 5.546875 30.539062 4.722656 30.523438 4.601562 C 30.503906 4.480469 29.941406 4.019531 29.941406 4.019531 C 29.941406 4.019531 30.753906 3.28125 30.671875 3.125 C 30.589844 2.972656 30.074219 2.523438 29.972656 2.558594 "/>
<path style=" stroke:none;fill-rule:nonzero;fill:rgb(16.90979%,17.344666%,47.463989%);fill-opacity:1;" d="M 2.0625 2.191406 C 1.996094 2.210938 1.144531 2.925781 1.230469 3.011719 C 1.3125 3.097656 1.945312 3.507812 1.878906 3.59375 C 1.8125 3.679688 1.109375 4.316406 1.175781 4.4375 C 1.242188 4.558594 1.679688 5.210938 1.761719 5.191406 C 1.847656 5.175781 2.628906 4.351562 2.613281 4.230469 C 2.59375 4.109375 2.027344 3.648438 2.027344 3.648438 C 2.027344 3.648438 2.84375 2.90625 2.761719 2.753906 C 2.679688 2.597656 2.164062 2.15625 2.0625 2.191406 "/>
<path style=" stroke:none;fill-rule:nonzero;fill:rgb(16.90979%,17.344666%,47.463989%);fill-opacity:1;" d="M 35.972656 3.109375 C 35.972656 3.109375 35.558594 3.828125 35.390625 3.847656 C 35.222656 3.863281 35.140625 3.347656 35.140625 3.347656 C 35.140625 3.347656 34.773438 4.15625 34.441406 3.984375 C 34.273438 3.882812 34.574219 3.160156 34.574219 3.160156 C 34.574219 3.160156 33.621094 3.949219 33.953125 4.464844 C 34.222656 4.859375 34.941406 4.277344 34.941406 4.277344 C 34.941406 4.277344 34.972656 4.429688 35.308594 4.429688 C 35.640625 4.429688 36.125 3.433594 36.125 3.433594 L 35.972656 3.109375 "/>
<path style=" stroke:none;fill-rule:nonzero;fill:rgb(16.90979%,17.344666%,47.463989%);fill-opacity:1;" d="M 7.828125 2.941406 C 7.828125 2.941406 7.414062 3.664062 7.246094 3.679688 C 7.082031 3.699219 6.992188 3.183594 6.992188 3.183594 C 6.992188 3.183594 6.628906 3.988281 6.292969 3.816406 C 6.128906 3.714844 6.429688 2.992188 6.429688 2.992188 C 6.429688 2.992188 5.480469 3.785156 5.8125 4.300781 C 6.078125 4.695312 6.792969 4.109375 6.792969 4.109375 C 6.792969 4.109375 6.832031 4.265625 7.164062 4.265625 C 7.496094 4.265625 7.980469 3.269531 7.980469 3.269531 L 7.828125 2.941406 "/>
<path style=" stroke:none;fill-rule:nonzero;fill:rgb(16.90979%,17.344666%,47.463989%);fill-opacity:1;" d="M 26.273438 5.425781 C 26.273438 5.425781 25.585938 6.390625 25.539062 6.539062 C 25.488281 6.699219 25.519531 9.976562 25.519531 9.976562 L 25.488281 10.433594 C 25.488281 10.433594 25.539062 10.371094 25.804688 9.992188 C 26.074219 9.613281 26.121094 6.917969 26.121094 6.917969 L 26.273438 5.425781 "/>
<path style=" stroke:none;fill-rule:nonzero;fill:rgb(16.90979%,17.344666%,47.463989%);fill-opacity:1;" d="M 26.035156 0.914062 L 25.335938 2.082031 C 25.335938 2.082031 25.039062 4.34375 25.085938 4.34375 C 25.136719 4.34375 24.605469 5.1875 24.273438 5.238281 C 23.9375 5.289062 23.855469 4.894531 23.855469 4.894531 L 23.207031 5.582031 C 23.207031 5.582031 22.6875 5.753906 22.652344 5.597656 C 22.621094 5.445312 22.703125 5.203125 22.703125 5.203125 C 22.703125 5.203125 21.804688 6.320312 21.355469 5.855469 C 21.371094 5.753906 21.515625 5.410156 21.515625 5.410156 C 21.515625 5.410156 20.21875 6.503906 20.003906 6.371094 C 20.003906 6.371094 20.167969 4.980469 19.601562 4.980469 C 18.871094 4.996094 18.320312 6.371094 18.273438 6.457031 C 18.222656 7.210938 19.152344 7.105469 19.152344 7.105469 C 19.152344 7.105469 19.269531 7.074219 19.1875 7.226562 C 19.070312 7.570312 16.488281 9.03125 16.488281 9.03125 C 16.488281 9.03125 18.273438 8.808594 18.519531 8.617188 C 18.769531 8.429688 19.636719 7.210938 19.636719 7.210938 L 20.683594 6.539062 C 20.683594 6.539062 21.273438 6.710938 21.4375 6.699219 C 21.605469 6.675781 22.054688 6.230469 22.054688 6.230469 C 22.054688 6.230469 22.488281 6.441406 22.6875 6.417969 C 22.886719 6.40625 23.21875 5.90625 23.21875 5.90625 C 23.21875 5.90625 23.574219 6.199219 23.855469 6.148438 C 24.886719 5.960938 25.421875 4.449219 25.421875 4.449219 L 26.035156 0.914062 "/>
<path style=" stroke:none;fill-rule:nonzero;fill:rgb(16.90979%,17.344666%,47.463989%);fill-opacity:1;" d="M 15.820312 4.929688 L 15.304688 5.992188 C 15.304688 5.992188 16.371094 6.148438 16.285156 7.210938 C 16.203125 7.554688 13.96875 9.03125 13.96875 9.03125 L 15.453125 8.808594 C 15.453125 8.808594 16.601562 8.050781 16.851562 6.441406 C 17.101562 4.824219 15.820312 4.929688 15.820312 4.929688 "/>
<path style=" stroke:none;fill-rule:nonzero;fill:rgb(16.90979%,17.344666%,47.463989%);fill-opacity:1;" d="M 14.769531 1.410156 L 14.617188 2.113281 C 14.617188 2.113281 14.570312 4.328125 14.550781 4.671875 C 14.300781 5.992188 13.703125 6.746094 13.703125 6.746094 L 13.9375 5.289062 C 13.9375 5.289062 13.953125 3.398438 13.984375 2.953125 C 14.019531 2.507812 14.769531 1.410156 14.769531 1.410156 "/>
<path style=" stroke:none;fill-rule:nonzero;fill:rgb(16.90979%,17.344666%,47.463989%);fill-opacity:1;" d="M 12.820312 4.980469 L 12.820312 5.273438 C 12.820312 5.273438 12.417969 6.847656 11.484375 6.96875 C 11.019531 6.988281 10.636719 6.539062 10.636719 6.539062 C 10.636719 6.539062 8.585938 8.652344 5.386719 8.789062 C 2.964844 8.894531 1.386719 7.691406 1.386719 7.691406 L 0.300781 8.808594 L 0 8.824219 L 1.820312 6.578125 C 1.820312 6.578125 3.25 8 6.101562 7.792969 C 8.949219 7.585938 10.886719 5.839844 10.886719 5.839844 C 11.1875 5.789062 11.386719 6.246094 11.769531 6.199219 C 12.152344 6.148438 12.820312 4.980469 12.820312 4.980469 "/>
</g>
</svg>
