<svg xmlns="http://www.w3.org/2000/svg" width="216.947" height="59pt" viewBox="0 0 162.71 59"><defs><clipPath id="a"><path d="M27.898 2.3h.301v.098h-.3Zm-1.097.098H29V2.5h-2.2Zm-.403.102H29.5v.102h-3.102Zm-.5.102h3.903v.097h-3.903Zm-.296.097H30v.102h-4.398Zm-.301.102h4.898v.097h-4.898Zm-.2.097H30.5V3h-5.398Zm-.3.102h5.8v.102h-5.8Zm-.2.102H30.7v.097h-6.097Zm-.203.097h6.5v.102h-6.5Zm-.199.102H31v.097h-6.8ZM24 3.398h7.102V3.5H24Zm-.102.102h7.403v.102h-7.403Zm-.199.102h7.602v.097h-7.602Zm-.199.097h7.898v.102H23.5Zm-.2.102h8.2v.097h-8.2Zm-.1.097h8.402V4h-8.403ZM23.101 4h8.597v.102h-8.597Zm-.204.102H31.7v.097h-8.8Zm-.097.097h9v.102h-9Zm-.102.102h9.2v.097h-9.2Zm-.097.097h9.296V4.5h-9.296Zm-.204.102h9.5v.102h-9.5Zm-.097.102H32v.097h-9.7Zm-.102.097H32v.102h-9.8Zm-.097.102h10v.097h-10ZM22 4.898h10.102V5H22ZM21.898 5h10.204v.102H21.898Zm-.097.102h10.398v.097H21.801Zm-.102.097h10.5v.102H21.7Zm-.097.102h10.597v.097H21.602Zm-.102.097h10.7V5.5H21.5Zm-.102.102H32.2v.102H21.4Zm-.097.102h11V5.8h-11Zm-.102.199h11.102v.097H21.199Zm-.097.097H32.3V6H21.1ZM21 6h11.3v.2H21Zm-.102.2h11.403v.1H20.898Zm-.097.1h11.5v.2H20.8Zm-.102.2h11.602v.102H20.699Zm-.097.102H32.3V6.8H20.6ZM20.5 6.8h11.8V7H20.5ZM20.398 7h11.903v.102H20.398Zm0 .102H32.2v.097H20.4Zm-.097.097h11.898v.2H20.301Zm-.102.2h12v.203h-12Zm-.097.203h12V7.8h-12ZM20 7.8h12.102V8H20ZM20 8h12v.102H20Zm-.102.102H32V8.3H19.898Zm0 .199h12V8.5h-12Zm-.097.199h12v.2h-12Zm0 .2h11.898v.198H19.801Zm-.102.198h11.903v.204H19.699ZM35 9.2h1.5v.102H35Zm-15.3-.097h11.8V9.3H19.7Zm14.902.199h2.296v.097h-2.296Zm-.403.097h3V9.5h-3Zm-14.5-.097h11.7V9.5h-11.7Zm14.2.199h3.5v.102h-3.5Zm-14.2 0h11.602v.102H19.699Zm13.903.102h4v.097h-4Zm-13.903 0h11.5v.097H19.7Zm13.7.097h4.3v.102h-4.3Zm-.2.102h4.602v.097h-4.602Zm-13.5-.102h11.403v.2H19.699ZM33 9.9h5V10h-5Zm-13.3 0H31V10H19.7ZM32.8 10H38v.102h-5.2Zm-13.1 0h11.198v.102H19.7Zm13 .102h5.402v.097h-5.403Zm-.2.097h5.7v.102h-5.7Zm-12.8-.097h11.1v.199H19.7Zm12.6.199h6v.097h-6Zm-12.6 0h11v.097h-11Zm0 .097h10.902v.102H19.699Zm12.5 0h6.1v.102h-6.1Zm-.098.102h6.296v.102h-6.296Zm-12.301 0H30.5v.102H19.8Zm12.097.102h6.5v.097h-6.5Zm-12.097 0h10.597v.097H19.801Zm12 .097H38.5v.102h-6.7Zm-12 0h10.5v.102H19.8Zm0 .102h10.398v.097H19.801Zm11.898 0H38.5v.097h-6.8Zm-.097.097H38.5V11h-6.898Zm-11.704 0h10.204V11H19.898ZM31.5 11h7.102v.102H31.5Zm-11.602 0H30v.102H19.898Zm11.5.102h7.204v.097h-7.204Zm-11.5 0h10v.199h-10Zm11.403.097h7.3v.102h-7.3Zm-.102.102h7.403v.097h-7.403ZM20 11.3h9.8v.097H20Zm0 .097h9.602v.102H20Zm11.102 0h7.5v.102h-7.5ZM31 11.5h7.602v.102H31Zm-10.898 0H29.5v.102h-9.398Zm0 .102h9.296v.097h-9.296Zm10.796 0H38.7v.097h-7.8Zm-.097.097h7.898v.102h-7.898Zm-10.602 0h9v.102h-9Zm0 .102h8.903v.097h-8.903Zm10.5 0h8v.097h-8Zm-10.398.097H29V12h-8.7Zm.097.102h8.5v.102h-8.5Zm10.204-.102h8.097v.204h-8.097Zm-.102.204h8.102v.097H30.5Zm-10 0h8.2v.097h-8.2Zm0 .097h8.102v.102H20.5Zm.102.102h7.796v.097h-7.796Zm9.796-.102h8.204v.2h-8.204Zm-9.699.2h7.5v.101h-7.5Zm9.602 0h8.3v.101h-8.3Zm-9.5.101h7.3v.102h-7.3Zm.097.102h7v.097h-7ZM30.2 12.5h8.403v.2h-8.403ZM21 12.7h6.7v.1H21Zm9.102 0h8.5v.1h-8.5Zm-8.903.1H27.5v.098h-6.3Zm8.903 0H38.5v.098h-8.398Zm-8.801.098h6V13h-6ZM21.5 13H27v.102h-5.5Zm8.5-.102h8.5v.204H30Zm-8.3.204h5.1v.097h-5.1Zm.1.097h4.802v.102H21.8Zm8.098-.097h8.5v.199h-8.5Zm-7.796.199h4.097v.097h-4.097Zm7.699 0h8.597v.097h-8.597Zm-7.403.097h3.403v.102h-3.403Zm7.403 0h8.5v.102h-8.5Zm-7.102.102h2.7v.102h-2.7Zm7 0h8.602v.102h-8.602Zm-6.3.102H24.8v.097h-1.403Zm6.3 0h8.5v.199h-8.5Zm0 .199h8.403v.097h-8.403Zm-.097.097h8.5V14h-8.5Zm0 .102H38v.2h-8.398Zm0 .2h8.296v.1h-8.296Zm0 .1H37.8v.2h-8.2Zm0 .2h8.097v.102h-8.097Zm-.102.102h8.102v.097H29.5Zm0 .097h8v.2h-8Zm12.3.2h1.302V15H41.8Zm-12.3 0h7.898V15H29.5Zm12 .101h1.898v.102H41.5Zm-12 0h7.8v.102h-7.8Zm0 .102h7.7v.097h-7.7Zm11.602 0h2.597v.097h-2.597Zm-.204.097h2.903v.102h-2.903Zm-11.296 0h7.5v.102h-7.5Zm11.097.102h3.2v.097h-3.2Zm-11.097 0H37v.097h-7.398Zm10.898.097H44v.102h-3.5Zm-10.898 0h7.296v.102h-7.296ZM40.3 15.5h3.8v.102h-3.8Zm-10.7 0h7.2v.102h-7.2Zm10.598.102h4v.097h-4Zm-10.597 0h7.097v.097h-7.097Zm0 .097h7v.102h-7ZM40 15.7h4.3v.102H40Zm-.102.102h4.403v.097h-4.403Zm-10.199 0H36.5v.097h-6.8Zm0 .097h6.7V16h-6.7Zm10 0h4.602V16h-4.602Zm-.097.102h4.796v.102h-4.796ZM29.8 16h6.5v.102h-6.5Zm0 .102h6.3v.097h-6.3Zm9.699 0h4.898v.097H39.5Zm-.102.097h5v.102h-5Zm-9.5 0H36v.102h-6.102Zm0 .102h6v.097h-6Zm9.403 0h5.097v.097h-5.097ZM30 16.398h5.7v.102H30Zm9.2 0h5.198v.102H39.2Zm-9.098.102H35.5v.102h-5.398Zm9 0H44.5v.102h-5.398Zm-.102.102h5.5v.097H39Zm-8.8 0h5.198v.097H30.2Zm0 .097h5v.102h-5Zm8.698 0H44.5v.102h-5.602Zm-8.597.102H35v.097h-4.7Zm8.5 0H44.5v.097h-5.7Zm-8.301.097h4.3V17h-4.3Zm8.2 0h5.698V17H38.7ZM30.601 17h4v.102h-4Zm.199.102h3.5v.097h-3.5ZM38.6 17h5.797v.2h-5.796ZM31 17.2h3v.1h-3Zm7.5 0h5.898v.1H38.5Zm-7.2.1h2.4v.098h-2.4Zm.302.098h1.597v.102h-1.597Zm6.796-.097h6v.199h-6Zm-.097.199h6v.102h-6Zm-.102.102h6.102v.199h-6.102Zm-.097.199h6.097V18h-6.097ZM38 18h6.102v.2H38Zm0 .2h6v.1h-6Zm-.102.1H44v.098h-6.102Zm0 .098h6v.204h-6Zm-.097.204h6v.097h-6Zm0 .097h5.898v.102h-5.898Zm9.097.2h.602V19h-.602Zm-9.097-.098h5.8V19h-5.8ZM46.5 19h1.398v.102H46.5Zm-8.7 0h5.7v.102h-5.7Zm8.4.102h1.902v.097h-1.903Zm-8.4 0h5.598v.097h-5.597Zm8.2.097h2.2v.102H46Zm-8.2 0h5.5v.102h-5.5Zm8 .102h2.5v.097h-2.5Zm-8 0h5.4v.097h-5.4Zm7.802.097h2.796v.102h-2.796Zm-7.801 0h5.3v.102h-5.3Zm7.597.102H48.5v.102h-3.102Zm-7.597 0H43v.102h-5.2Zm7.5.102H48.5v.097h-3.2Zm-7.5 0h5.097v.097h-5.097Zm7.3.097H48.5v.102h-3.398Zm-7.3 0h5v.102h-5Zm-21.903.102h2.403v.097h-2.403Zm21.903 0h4.898v.097h-4.898Zm7.199 0h3.5v.097H45Zm-29.7.097h3.5V20h-3.5Zm29.598 0h3.704V20h-3.704Zm-7 0h4.704V20h-4.704Zm-23 .102h4.204v.102h-4.204Zm23 0H42.5v.102h-4.602Zm6.903 0h3.8v.102h-3.8Zm-30.2.102h4.7v.097h-4.7Zm30.098 0h3.903v.097h-3.903Zm-6.699 0h4.3v.097H38Zm-23.7.097h5.2v.102h-5.2Zm23.7 0h4.2v.102H38Zm6.602 0h4v.102h-4ZM14 20.301h5.8v.097H14Zm24.102 0H42v.097h-3.898Zm6.398 0h4.102v.097H44.5Zm-30.7.097h6.098v.102h-6.097Zm30.598 0h4.204v.102h-4.204Zm-6.199 0h3.602v.102h-3.602Zm-24.597.102H20v.102h-6.398Zm24.597 0h3.5v.102h-3.5Zm-24.8.102h6.8v.097h-6.8Zm25 0h3v.097h-3ZM44.3 20.5h4.3v.2h-4.3Zm-31.102.2h7.102v.1h-7.102Zm25.301 0h2.7v.1h-2.7Zm5.7 0h4.3v.1h-4.3Zm-31.2.1h7.398v.098H13Zm25.7 0H41v.098h-2.3Zm5.402 0H48.5v.098h-4.398Zm-31.301.098H20.5V21h-7.7Zm26.097 0h1.704V21h-1.704ZM12.602 21h8v.102h-8Zm26.796 0h.704v.102h-.704ZM44 20.898h4.5v.204H44Zm-31.602.204H20.7v.097h-8.3Zm-.097.097h8.398v.102h-8.398Zm31.597-.097h4.5v.199h-4.5Zm-31.796.199H20.8v.097h-8.7Zm-.102.097h8.898v.102H12Zm31.8-.097h4.5v.199h-4.5Zm-32 .199H21v.102h-9.2Zm31.9 0h4.5v.102h-4.5Zm-32.098.102H21v.097h-9.398Zm-.102.097H21v.102h-9.5Zm32.2-.097h4.402v.199h-4.403Zm-32.302.199h9.704v.097h-9.704Zm32.301 0H48v.097h-4.3Zm-32.398.097h9.8V22h-9.8Zm38.8 0h1V22h-1Zm-39 .102h10v.102h-10Zm38.7 0h1.5v.102h-1.5Zm-6.2-.102h4.297v.204h-4.296ZM11 22.102h10.2v.097H11Zm38.7 0h1.698v.097H49.7Zm-6.098 0H47.8v.097h-4.2Zm-32.704.097H21.2v.102H10.9Zm38.602 0h2v.102h-2Zm-5.898 0h4.097v.102h-4.097Zm-32.801.102h10.398v.097H10.801Zm38.5 0h2.3v.097h-2.3Zm-5.7 0h4v.097h-4Zm-32.902.097h10.602v.102H10.699Zm38.403 0h2.5v.102h-2.5Zm-5.5 0h3.796v.102h-3.796Zm-33 .102H21.3v.102H10.6ZM49 22.5h2.602v.102H49Zm-5.398 0H47.3v.102h-3.7Zm0 .102h3.597v.097h-3.597Zm5.296 0h2.704v.097h-2.704Zm-38.5 0h10.903v.199H10.398Zm16 .097h2v.102h-2Zm22.403 0h2.898v.102h-2.898Zm-5.102 0h3.403v.102h-3.403Zm-33.398.102h11v.097h-11ZM26 22.8h2.7v.097H26Zm22.7 0h3v.097h-3Zm-5 0H47v.097h-3.3Zm-33.5.097h11.1V23H10.2Zm15.402 0H29V23h-3.398Zm18.097 0h3.102V23h-3.102Zm4.903 0h3.097V23h-3.097Zm-38.5.102H21.3v.102H10.1Zm15.296 0H29.2v.102h-3.8Zm18.403 0h2.898v.102h-2.898Zm4.699 0h3.2v.102h-3.2Zm-38.5.102h11.3v.097H10Zm15.102 0H29.3v.097h-4.2Zm23.296 0h3.204v.097h-3.204Zm-4.5 0H46.5v.097h-2.602Zm-34 .097h11.403v.102H9.898Zm15 0h4.5v.102h-4.5Zm19 0h2.403v.102h-2.403Zm-34.097.102h11.5v.097H9.8Zm14.898 0h4.903v.097h-4.903Zm19.403 0h2v.097h-2Zm4.199-.102h3.3v.2h-3.3Zm-38.602.2h11.602v.101H9.699Zm14.801 0h5.2v.101h-5.2Zm19.7 0h1.698v.101H44.2Zm4 0h3.402v.101h-3.403Zm-23.9.101h5.5v.102h-5.5Zm20.2 0h1v.102h-1Zm-34.898 0H21.3v.2H9.6Zm14.5.102H29.8v.097h-5.7Zm24-.102H51.5v.2h-3.398ZM9.5 23.7h11.8v.1H9.5Zm14.5 0h5.898v.1H24Zm-.2.1H30v.098h-6.2Zm24.2-.1h3.398v.198H48Zm-38.602.1h11.903v.2H9.398Zm14.301.098H30V24h-6.3Zm24.301 0h3.3V24H48ZM23.5 24h6.602v.102H23.5ZM9.3 24h11.9v.2H9.3Zm14.098.102h6.704v.097h-6.704Zm24.5-.102H51.2v.2h-3.3ZM9.2 24.2h12v.1h-12Zm14 0h6.903v.1h-6.903Zm24.7 0h3.203v.1h-3.204Zm-24.797.1h7.097v.098h-7.097Zm24.796 0H51v.098h-3.102Zm-38.796 0h12.097v.098H9.102Zm0 .098h12v.102h-12Zm13.898 0h7.2v.102H23Zm24.8 0h3.098v.102h-3.097ZM9 24.5h12.102v.102H9Zm13.898 0H30.2v.102h-7.3Zm25 0h2.903v.102h-2.903Zm-25.097.102h7.398v.097h-7.398Zm-13.903 0h12.204v.097H8.898Zm39 0H50.7v.097h-2.8Zm-25.199.097h7.5v.102h-7.5Zm25.2 0h2.703v.102h-2.704Zm-39 0H21v.2H8.898Zm13.703.102h7.597v.097h-7.597Zm25.296 0H50.5v.097h-2.602Zm-25.398.097h7.7V25h-7.7Zm25.398 0h2.403V25h-2.403Zm-39.097 0h12.097v.204H8.801ZM22.398 25H30.2v.102h-7.8Zm13.403 0H37v.102h-1.2ZM48 25h2.102v.102H48Zm-25.7.102h7.9v.097h-7.9Zm13.098 0h2v.097h-2Zm12.704 0H50v.097h-1.898Zm-25.903.097h8v.102h-8Zm12.903 0h2.5v.102h-2.5Zm13.097 0h1.602v.102h-1.602Zm-39.5-.097h12.102v.296H8.699Zm13.403.199h8.097v.097h-8.097Zm12.699 0h3v.097h-3Zm13.5 0H49.5v.097h-1.2ZM22 25.398h8.2v.102H22Zm12.602 0h3.296v.102h-3.296Zm14 0h.597v.102h-.597Zm-40 0h12.097v.204H8.602Zm25.796.102H38v.102h-3.602Zm-12.5 0H30.2v.2h-8.3Zm12.301.102h3.903v.097h-3.903Zm-25.699 0h12.102v.097H8.5Zm13.3.097h8.4v.102h-8.4Zm12.2 0h4.102v.102H34Zm-.102.102H38.2v.097h-4.3ZM8.5 25.699h12v.2h-12Zm0 .2h11.898V26H8.5Zm13.2-.098h8.402V26h-8.403Zm12 .097h4.5V26h-4.5ZM21.601 26h8.5v.102h-8.5Zm12 0H38.3v.102h-4.7Zm-.204.102h4.903v.097h-4.903Zm-25-.102h11.903v.2H8.398Zm13.102.102H30v.199h-8.5Zm11.8.097h5v.102h-5Zm-24.902 0H20.2v.102H8.4Zm24.801.102h5.102v.097h-5.102Zm-11.8 0H30v.097h-8.602Zm0 .097h8.5v.102h-8.5Zm11.703 0H38.3v.102h-5.2Zm-24.704-.097h11.704v.199H8.398ZM33 26.5h5.3v.102H33Zm-24.602 0H20v.102H8.398Zm12.903 0h8.597v.102h-8.597Zm-12.903.102h11.5v.097h-11.5Zm12.903 0h8.5v.097h-8.5Zm11.597 0h5.403v.097h-5.403Zm-.097.097h5.5v.102h-5.5Zm9.398 0H43.5v.102h-1.3Zm-33.898 0h11.5v.102H8.3Zm12.898 0h8.602v.102h-8.602Zm11.5.102h5.602v.097h-5.602Zm9.102 0h1.898v.097h-1.898Zm-33.5 0h11.398v.097H8.301Zm12.898 0h8.5V27h-8.5Zm11.403.097H38.3V27h-5.7Zm9 0H43.8V27h-2.2ZM32.5 27h5.8v.102h-5.8Zm8.898 0h2.5v.102h-2.5Zm-33.097-.102h11.3v.204h-11.3ZM21.1 27h8.5v.102h-8.5Zm-12.8.102H19.5v.097H8.3Zm12.8 0H29.5v.097h-8.398Zm20.098 0H44v.097h-2.8Zm-8.8 0H38.3v.199h-5.903Zm8.601.097h3.102v.102H41Zm-32.602 0h11v.102h-11ZM21 27.2h8.5v.102H21Zm11.3.102h5.9v.097h-5.9Zm8.598 0h3.204v.097h-3.204Zm-32.5 0h10.903v.097H8.398ZM21 27.3h8.398v.097H21Zm11.2.097h6v.102h-6Zm8.6 0h3.302v.102H40.8Zm-32.402 0H19.2v.102H8.4Zm12.602 0h8.3v.204H21Zm19.7.102h3.5v.102h-3.5Zm-32.302 0h10.704v.102H8.398Zm23.704 0h6.097v.2h-6.097Zm8.398.102h3.7v.097h-3.7Zm-32.102 0H19v.097H8.398Zm12.5 0H29.2v.097h-8.3Zm-12.5.097h10.403v.102H8.398Zm32 0H44.2v.102h-3.8Zm-19.5 0h8.204v.102h-8.204ZM32 27.7h6.102v.2H32Zm8.3.102h3.9v.097h-3.9Zm-31.8 0h10.2v.097H8.5Zm12.398 0H29v.097h-8.102Zm19.301.097h4V28h-4Zm6.801 0h1V28h-1Zm-38.5 0h10.102V28H8.5Zm0 .102h10v.102h-10Zm23.398-.102H38v.204h-6.102Zm8.204.102h4.097v.102h-4.097Zm6.597 0h1.5v.102h-1.5Zm-25.8-.102h8v.204h-8ZM40 28.102h4.2v.097H40Zm6.5 0h1.8v.097h-1.8Zm-37.898 0h9.796v.097H8.602Zm12.296 0h7.903v.097h-7.903Zm10.903 0h6.097v.097h-6.097Zm-23.2.097h9.7v.102H8.6Zm23.2 0h6v.102h-6Zm8.097 0H44.2v.102h-4.3Zm6.403 0h2.097v.102h-2.097Zm-25.403 0H28.7v.102h-7.8Zm25.204.102h2.296v.097h-2.296Zm-37.403 0h9.403v.097H8.699Zm12.2 0h7.703v.097h-7.704Zm10.8 0h6.102v.097h-6.102Zm-23 .097H18v.102H8.7Zm31.102-.097h4.3v.199h-4.3Zm6.199.097h2.5v.102H46Zm-25.102 0H28.5v.102h-7.602Zm10.801 0h6v.102h-6Zm0 .102h5.903v.102h-5.903Zm8 0h4.403v.102h-4.403Zm6.2 0H48.5v.102h-2.602ZM8.8 28.5h9v.102h-9Zm12.097 0h7.5v.102h-7.5Zm-12.097.102h8.898v.097H8.801Zm12.097 0h7.403v.097h-7.403Zm18.704 0H44v.097h-4.398Zm6.199 0H48.5v.097h-2.7Zm-14.2 0h6v.097h-6Zm-22.703.097H17.5v.102H8.898Zm36.704 0H48.5v.102h-2.898ZM21 28.7h7.102v.102H21Zm10.602 0H37.5v.102h-5.898Zm7.898 0H44v.102h-4.5Zm0 .102h4.398v.097H39.5Zm6 0h3v.097h-3ZM9 28.8h8.398v.097H9Zm12 0h7v.097h-7Zm10.602 0h5.796v.097h-5.796ZM9 28.898h8.2V29H9Zm12 0h6.898V29H21Zm24.398 0H48.5V29h-3.102Zm-13.796 0H37.3V29h-5.7Zm7.796 0h4.5V29h-4.5ZM9.102 29H17v.102H9.102Zm30.296 0h4.403v.102h-4.403Zm-18.296 0H27.8v.102h-6.7Zm10.5 0h5.597v.102h-5.597Zm-22.403.102h7.602v.097H9.199ZM45.301 29H48.5v.2h-3.2Zm-24.2.102h6.5v.097h-6.5Zm18.2 0h4.5v.097h-4.5Zm-30 .097h7.3v.102h-7.3Zm11.8 0H27.5v.102h-6.398Zm18.2 0h4.398v.102h-4.398Zm5.898 0H48.5v.102h-3.3Zm-13.597-.097h5.5v.199h-5.5ZM9.398 29.3H16.5v.097H9.398Zm35.704 0h3.296v.097h-3.296Zm-23.903 0h6.102v.097h-6.102Zm10.403 0H37v.097h-5.398Zm7.597 0h4.403v.097h-4.403Zm-29.597.097H16.3v.102H9.6Zm11.597 0h6v.102h-6Zm10.403 0H36.8v.102h-5.2Zm13.398 0h3.398v.102H45ZM9.7 29.5h6.402v.102H9.699Zm11.6 0H27v.102h-5.7Zm23.7 0h3.3v.102H45Zm-13.398 0h5.097v.102h-5.097Zm7.597-.102H43.5v.204h-4.3Zm-29.3.204H15.8v.097H9.898Zm11.5 0H26.8v.097h-5.403Zm17.8 0h4.2v.097h-4.2Zm-7.597 0h5v.097h-5Zm13.296 0h3.403v.097h-3.403ZM10 29.699h5.5v.102H10Zm11.5 0h5.2v.102h-5.2Zm10.102 0H36.5v.102h-4.898Zm13.296 0H48.2v.102h-3.3Zm-5.796 0H43.3v.102h-4.2Zm-28.903.102h5.102v.097h-5.102Zm11.403 0H26.5v.097h-4.898Zm10.097 0h4.7v.097h-4.7Zm7.403 0h4.097v.097h-4.097Zm-28.704.097H15V30h-4.602Zm11.301 0h4.602V30h-4.602Zm23.102-.097h3.3V30h-3.3Zm-13.102.097h4.5V30h-4.5Zm7.403 0h4V30h-4ZM10.699 30h3.903v.102h-3.903Zm11.102 0H26v.102h-4.2Zm9.898 0h4.403v.102h-4.403Zm7.403 0H43v.102h-3.898Zm5.597 0H48v.102h-3.3ZM11 30.102h3.2v.097H11Zm11 0h3.8v.097H22Zm17.102 0h3.796v.097h-3.796Zm-7.301 0h4.097v.097h-4.097Zm12.898 0h3.2v.097h-3.2Zm-33.097.097h2v.102h-2Zm10.597 0H25.5v.102h-3.3Zm9.602 0h3.898v.102h-3.898Zm7.398 0h3.602v.102h-3.602Zm5.5 0h3.102v.102h-3.102Zm-22.3.102h2.8v.097h-2.8Zm9.5 0h3.703v.097h-3.704Zm7.3 0h3.403v.097h-3.403Zm-16.5.097h2v.102h-2Zm9.301 0h3.398v.102H32Zm7.2 0h3.3v.102h-3.3Zm5.5-.097h3v.199h-3Zm-21.302.199h.204v.102h-.204Zm8.704 0h3.097v.102h-3.097Zm7.097 0h3.2v.102h-3.2Zm5.5 0H47.5v.102h-2.8Zm-12.398.102h2.597v.097h-2.597Zm7 0h2.898v.097h-2.898Zm5.398 0h2.7v.097h-2.7Zm-12.199.097h2.102v.102H32.5Zm6.8 0H42v.102h-2.7Zm5.4 0h2.6v.102h-2.6Zm-12 .102h1.5v.097h-1.5Zm6.698 0h2.5v.097h-2.5Zm5.301 0h2.5v.097h-2.5Zm-5.097.097h2.097V31h-2.097Zm5.097 0H47V31h-2.3Zm-5 .102h1.7v.102h-1.7Zm5.102 0h2v.102h-2ZM40 31.102h1v.097h-1Zm4.898 0H46.7v.097h-1.8Zm.102.097h1.398v.102H45Zm.2.102h.902v.097h-.903Zm.198 2.3h1v.098h-1Zm-.296.098h1.5v.102h-1.5Zm-.204.102H46.7v.097h-1.8Zm-.199.097h2.102V34h-2.102ZM44.5 34h2.398v.102H44.5Zm-4.2.102h.598v.097h-.597Zm4.098 0h2.5v.097h-2.5Zm-4.699.097h1.403v.102h-1.403Zm4.602 0h2.597v.102h-2.597Zm-4.903.102h2v.097h-2Zm4.704 0h2.796v.097h-2.796Zm-5 .097H41.5v.102h-2.398Zm4.898 0h2.898v.102H44Zm-5.102.102h2.704v.102h-2.704Zm5 0h3v.102h-3Zm-5.199.102h2.903v.097h-2.903Zm5.102 0h3.097v.097h-3.097Zm-5.2.097H41.7v.102h-3.097Zm5.098 0h3.2v.102h-3.2Zm-5.199.102h3.2v.097h-3.2Zm5.2 0h3.1v.097h-3.1Zm-11.4.097h1.598V35h-1.597Zm6 0h3.5V35h-3.5Zm5.302 0H46.8V35h-3.2ZM32 35h2.102v.102H32Zm6.2 0h3.6v.102h-3.6Zm5.3 0h3.2v.102h-3.2Zm-11.898.102H34.3v.097h-2.7Zm6.5 0H41.8v.097h-3.7Zm5.296 0H46.7v.097h-3.3Zm-12 .097H34.5v.102h-3.102Zm6.5 0h3.903v.102h-3.903Zm5.5 0h3.204v.102h-3.204Zm-12.199.102H34.5v.097h-3.3Zm6.602 0h4v.097h-4Zm5.5 0h3.3v.097h-3.3ZM31 35.398h3.602v.102H31Zm6.8 0h3.9v.102h-3.9Zm5.5 0h3.2v.102h-3.2Zm-12.5.102h3.9v.102h-3.9Zm6.9 0h4v.102h-4Zm5.5 0h3.3v.102h-3.3Zm-12.598.102H34.8v.097h-4.2Zm7 0h4.097v.097h-4.097Zm5.597 0h3.2v.097h-3.2Zm-12.699.097h4.3v.102h-4.3Zm7 0h4.2v.102h-4.2Zm5.602 0H46.3v.102h-3.2Zm-12.801.102h4.5v.097h-4.5Zm7.097 0h4.204v.097h-4.204Zm5.704 0h3.097v.097h-3.097Zm-20.903.097h1.5V36h-1.5Zm8 0h4.7V36h-4.7Zm7.102 0h4.3V36h-4.3Zm5.8 0h3V36h-3Zm-21.5.102H24.2v.102h-2.597Zm8.5 0h4.797v.102h-4.796Zm13 0H46v.102h-2.898Zm-21.8.102h3.097v.097h-3.097Zm8.597 0h5v.097h-5ZM37.2 36H41.5v.2h-4.3Zm5.903.102h2.796v.097h-2.796ZM21 36.199h3.602v.102H21Zm8.8 0h5.098v.102h-5.097Zm13.302 0H45.8v.102h-2.7Zm-22.403.102h4.102v.097h-4.102Zm9 0h5.2v.097h-5.2Zm7.403-.102h4.296v.2h-4.296Zm6 .102h2.5v.097h-2.5Zm-22.602.097h4.398v.102H20.5Zm9.102 0h5.296v.102h-5.296Zm13.5 0H45.5v.102h-2.398Zm-22.903.102H25v.102h-4.8Zm9.301 0h5.398v.102H29.5Zm7.5-.102h4.3v.204H37Zm6.2.102h2.198v.102H43.2Zm-23.2.102h5.102v.097H20Zm9.398 0h5.5v.097h-5.5Zm13.801 0h2v.097h-2Zm-6.3 0h4.3v.097h-4.3Zm-17.098.097h5.398v.102h-5.398Zm9.5 0h5.5v.102h-5.5Zm7.597 0h4.204v.102h-4.204Zm6.403 0H45v.102h-1.7Zm-23.602.102h5.5v.097h-5.5Zm9.5 0h5.602v.097h-5.602Zm14.301 0h1.2v.097h-1.2Zm-6.7 0H41v.097h-4.2Zm-26.3.097h2.3V37h-2.3Zm9 0h5.8V37h-5.8Zm9.602 0H34.8V37h-5.7Zm14.699 0H44V37h-.2Zm-7 0h4.097V37h-4.097ZM9.898 37h3.403v.102H9.898Zm9.403 0h6v.102h-6ZM29 37h5.8v.102H29Zm-19.5.102h4.102v.097H9.5Zm9.7 0h6.198v.097H19.2ZM36.8 37h4v.2h-4Zm-27.6.2h4.6v.1H9.2Zm9.8 0h6.398v.1H19Zm9.898-.098H34.7v.199h-5.8Zm7.903.097h3.898v.102h-3.898Zm-28 .102H14v.097H8.8Zm10.097 0h6.5v.097h-6.5Zm9.903 0h5.8v.097h-5.8Zm8 0h3.8v.097h-3.8ZM8.5 37.398h5.7v.102H8.5Zm10.3 0h6.7v.102h-6.7Zm17.9 0h3.698v.102H36.7ZM8.3 37.5h6v.102h-6Zm10.302 0H25.5v.102h-6.898Zm10.097-.102h5.903v.204h-5.903Zm8.102.102h3.5v.102h-3.5ZM8 37.602h6.398v.097H8Zm10.5 0h7v.097h-7Zm10.102 0H34.5v.097h-5.898Zm8.199 0h3.398v.097h-3.398Zm-29 .097H14.5v.102H7.8Zm10.597 0H25.5v.102h-7.102Zm10.204 0h5.796v.102h-5.796Zm8.199 0h3.3v.102h-3.3Zm-29.2.102H14.7v.097H7.602Zm10.598 0H25.5v.097h-7.3Zm10.301 0h5.898v.097H28.5Zm8.3 0h3.098v.097h-3.097Zm-29.402.097h7.403V38H7.398Zm10.704 0H25.5V38h-7.398Zm18.796 0H39.7V38h-2.8Zm-8.5 0h5.903V38h-5.903ZM7.2 38h7.602v.102H7.199ZM18 38h7.5v.102H18Zm19 0h2.602v.102H37Zm-30 .102h7.898v.097H7Zm10.898 0H25.5v.097h-7.602Zm10.5-.102H34.2v.2h-5.8Zm8.704.102h2.296v.097h-2.296ZM6.8 38.199H15v.102H6.8Zm11 0H25.5v.102h-7.7Zm19.398 0h1.903v.102h-1.903Zm-8.898 0h5.8v.102h-5.8Zm-21.602.102H15v.097H6.7Zm11 0h7.7v.097h-7.7Zm19.7 0H38.8v.097h-1.403Zm-9.098 0H34v.097h-5.7ZM6.5 38.398h8.602v.102H6.5Zm11.102 0h7.796v.102h-7.796Zm10.699 0h5.597v.102h-5.597Zm9.398 0H38v.102h-.3ZM6.301 38.5h8.8v.102h-8.8Zm21.898 0h5.602v.102h-5.602Zm-22 .102h9v.097h-9ZM17.5 38.5h7.898v.2H17.5Zm10.7.102h5.5v.097h-5.5ZM6 38.699h9.2v.102H6Zm11.398 0h7.903v.102h-7.903Zm10.801 0h5.403v.102h-5.403Zm-22.3.102h9.3v.097H5.9Zm11.402 0h8v.097h-8Zm10.898 0H33.5v.097h-5.3Zm-22.398.097h9.398V39H5.801Zm11.398 0h8.102V39h-8.102Zm11 0h5.2V39h-5.2ZM5.602 39H15.3v.102H5.6Zm22.597 0h5.102v.102h-5.102ZM5.5 39.102h9.8v.097H5.5ZM17.102 39h8.097v.2h-8.097Zm11.097.102h5v.097h-5Zm-22.8.097H15.3v.102H5.398ZM17 39.2h8.2v.102H17Zm11.2 0h4.902v.102h-4.903Zm-23 .102h10.1v.097H5.2Zm23 0H33v.097h-4.8Zm-23.098.097H15.3v.102H5.1Zm11.796-.097h8.204v.199h-8.204Zm11.301.097h4.602v.102h-4.602ZM5 39.5h10.3v.102H5Zm11.8 0H25v.102h-8.2Zm11.5 0h4.4v.102h-4.4Zm-23.402.102h10.403v.097H4.898Zm11.903 0h8.097v.097h-8.097Zm11.5 0H32.5v.097h-4.2Zm-23.5.097h10.5v.102H4.8Zm11.898 0h8.2v.102h-8.2Zm11.7 0h4v.102h-4Zm-23.7.102h10.602v.097H4.699Zm12 0h8.102v.097h-8.102Zm11.7 0h3.8v.097h-3.8Zm-23.797.097H15.3V40H4.6Zm23.898 0H32V40h-3.5Zm-11.898 0H24.8V40h-8.2ZM4.5 40h10.8v.102H4.5Zm12.102 0h8.097v.102h-8.097Zm12 0H31.8v.102h-3.2Zm-24.204.102h10.903v.097H4.398Zm24.301 0h2.903v.097h-2.903Zm-12.199 0h8.102v.097H16.5Zm-12.2.097h10.9v.102H4.3Zm24.598 0h2.403v.102h-2.403Zm-12.398 0h8v.102h-8Zm-12.3.102h11v.097h-11Zm12.3 0h7.898v.097H16.5Zm12.602 0H31v.097h-1.898Zm-25 .097h11.097v.102H4.102Zm25.296 0h1v.102h-1Zm-13 0h8v.102h-8ZM4 40.5h11.2v.102H4Zm12.398 0h7.903v.102h-7.903Zm0 .102H24.2v.097h-7.8Zm-12.5 0h11.204v.199H3.898Zm12.5.097h7.704v.102h-7.704Zm-12.597.102h11.3v.097h-11.3Zm12.5 0H24v.097h-7.7Zm-12.602.097H15V41H3.7Zm12.602 0h7.597V41h-7.597Zm0 .102h7.5v.102h-7.5ZM3.6 41H15v.2H3.602Zm12.7.102h7.398v.097h-7.398ZM3.5 41.199h11.398v.102H3.5Zm12.8 0h7.302v.102H16.3Zm-12.902.102h11.5v.097h-11.5Zm12.903 0H23.5v.097h-7.2Zm-12.903.097h11.403v.102H3.398Zm12.903 0h7.097v.102h-7.097Zm-13 .102h11.5v.102H3.3Zm13 0h6.898v.102h-6.898Zm0 .102h6.8v.097h-6.8Zm-13.102 0h11.5v.097H3.2Zm0 .097h11.403v.102H3.199Zm13.2 0H23v.102h-6.602Zm-13.297.102h11.5v.097h-11.5Zm13.296 0h6.403v.097h-6.403Zm-13.296.097H14.5V42H3.102Zm13.296 0H22.7V42h-6.3Zm0 .102H22.5v.102h-6.102ZM3 42h11.5v.102H3Zm0 .102h11.398v.097H3Zm13.5 0h5.898v.097H16.5Zm0 .097h5.7v.102h-5.7Zm.102.102H22v.097h-5.398Zm-13.704-.102h11.403v.2H2.898Zm0 .2H14.2v.101H2.9Zm13.801 0h5.2v.101h-5.2Zm.102.101h4.8v.102h-4.8Zm-14 0h11.3v.102h-11.3Zm14.097.102h4.5v.097h-4.5Zm-14.097 0H14v.199H2.8ZM17 42.699h4.2v.102H17Zm.102.102h3.796v.097h-3.796Zm-14.403 0h11.2v.097h-11.2Zm14.602.097h3.3V43h-3.3Zm-14.602 0h11.102V43H2.699ZM17.5 43h2.8v.102h-2.8ZM2.7 43h11v.102h-11Zm0 .102h10.902v.097H2.699Zm15.1 0h2v.097h-2Zm.598.097h.5v.102h-.5Zm-15.796 0H13.5v.102H2.602Zm0 .102h10.796v.097H2.602Zm0 .097H13.3v.102H2.6Zm0 .102h10.597v.102H2.602Zm0 .102h10.5v.097h-10.5Zm0 .097H13v.102H2.602Zm0 .102h10.296v.097H2.602Zm0 .097H12.8V44H2.6Zm0 .102h10v.102h-10Zm0 .102H12.5v.097H2.602Zm0 .097h9.796v.102H2.602Zm.097.102h9.5v.097H2.7Zm0 .097h9.403v.102H2.699Zm0 .102H12v.102H2.7Zm0 .102h9.2v.097h-9.2Zm.102.097h8.898v.102H2.801Zm0 .102H11.5v.097H2.8Zm0 .097h8.597V45H2.801Zm.097.102H11.2v.102H2.9Zm0 .102h8.204v.097H2.898Zm.102.097h7.898v.102H3Zm.102.102h7.597v.097H3.102Zm.097.097H10.5v.102H3.2Zm.102.102h7v.102h-7Zm.097.102H10v.097H3.398Zm.102.097h6.3v.102H3.5Zm.102.102h6v.097h-6Zm.199.097h5.5V46H3.8Zm.097.102H9v.102H3.898Zm.204.102h4.597v.097H4.102Zm.296.097h4v.102h-4Zm.301.102h3.2v.097h-3.2Zm.5.097h2.2v.102h-2.2Zm0 0"/></clipPath><clipPath id="b"><path d="M39.207 29.719c.203-1.168 1.5-2.465 2.871-2.88 1.36-.41 2.262.2 2.035 1.352-.222 1.137-1.476 2.395-2.808 2.82-1.352.43-2.297-.14-2.098-1.292m-7.57-.735c.21-1.543 1.922-3.254 3.793-3.789 1.836-.523 3.093.297 2.84 1.817-.254 1.492-1.887 3.129-3.684 3.683-1.824.567-3.164-.187-2.95-1.71m-10.671-1.032c.18-2.082 2.484-4.371 5.098-5.062 2.554-.68 4.367.457 4.109 2.484-.254 1.988-2.43 4.156-4.902 4.887-2.528.746-4.48-.27-4.305-2.309M8.398 26.836c.07-2.832 3.207-5.926 6.895-6.813 3.582-.863 6.215.715 5.984 3.446-.226 2.656-3.12 5.523-6.547 6.492-3.527.988-6.402-.371-6.332-3.125m34.754 9.473c-.125-.723.618-1.778 1.653-2.352 1.035-.566 1.949-.434 2.047.285.105.723-.625 1.75-1.633 2.313-1.02.57-1.946.465-2.067-.246m-6.32 1.34c-.203-.922.746-2.286 2.117-3.032 1.36-.738 2.586-.566 2.754.36.168.914-.762 2.238-2.086 2.968-1.332.739-2.582.617-2.785-.297m-8.535 1.817c-.348-1.192.875-2.977 2.715-3.953 1.82-.973 3.511-.758 3.789.441.277 1.176-.91 2.887-2.668 3.848-1.774.969-3.496.836-3.836-.336m-11.82 2.512c-.602-1.551.98-3.918 3.511-5.23 2.492-1.294 4.887-1.024 5.367.538.473 1.531-1.05 3.77-3.43 5.047-2.405 1.3-4.855 1.16-5.448-.355M2.91 44.94c-1.031-2.027 1.02-5.18 4.535-6.945 3.446-1.73 6.852-1.402 7.653.652.773 1.993-1.184 4.918-4.41 6.622-3.29 1.742-6.786 1.632-7.778-.329m45.18-21.16c.457-.98 1.597-1.816 2.523-1.86.918-.046 1.282.7.817 1.665-.457.953-1.563 1.773-2.48 1.836-.93.062-1.317-.668-.86-1.64m-4.203-2.403c.586-1.29 2.078-2.371 3.312-2.402 1.215-.036 1.715.957 1.13 2.214-.583 1.243-2.024 2.297-3.243 2.364-1.234.074-1.785-.899-1.2-2.176m-5.788-3.309c.746-1.718 2.738-3.129 4.418-3.136 1.648 0 2.351 1.351 1.601 3.007-.738 1.641-2.64 3.016-4.285 3.079-1.68.066-2.469-1.25-1.734-2.95m-8.215-4.695c.949-2.344 3.676-4.21 6.023-4.137 2.29.067 3.317 1.953 2.36 4.192-.946 2.207-3.5 4.004-5.782 4.043-2.336.039-3.53-1.778-2.601-4.098M20.086 7.91c1.191-3.234 4.957-5.715 8.273-5.496 3.203.219 4.715 2.879 3.496 5.906-1.203 2.973-4.652 5.34-7.828 5.325-3.293-.012-5.113-2.56-3.941-5.735m24.652 22.344c.18-.899 1.168-1.895 2.203-2.219 1.024-.324 1.688.145 1.493 1.024-.192.878-1.157 1.851-2.168 2.18-1.016.34-1.707-.098-1.528-.985"/></clipPath><clipPath id="c"><path d="M67.46 8.484 8.899-15.176l-22.585 55.899 58.562 23.664Zm0 0"/></clipPath><linearGradient id="d" x1="-.225" x2="1.368" y1="0" y2="0" gradientTransform="scale(-38.9618 38.9618)rotate(-22 1.567 3.571)" gradientUnits="userSpaceOnUse"><stop offset="0" style="stop-color:#f9dd05;stop-opacity:1"/><stop offset=".125" style="stop-color:#f9dd05;stop-opacity:1"/><stop offset=".141" style="stop-color:#f9dd05;stop-opacity:1"/><stop offset=".145" style="stop-color:#f9dc06;stop-opacity:1"/><stop offset=".148" style="stop-color:#f9dc06;stop-opacity:1"/><stop offset=".152" style="stop-color:#f9db06;stop-opacity:1"/><stop offset=".156" style="stop-color:#f9da06;stop-opacity:1"/><stop offset=".16" style="stop-color:#f9da06;stop-opacity:1"/><stop offset=".164" style="stop-color:#f9d906;stop-opacity:1"/><stop offset=".168" style="stop-color:#f9d806;stop-opacity:1"/><stop offset=".172" style="stop-color:#f9d805;stop-opacity:1"/><stop offset=".176" style="stop-color:#f9d706;stop-opacity:1"/><stop offset=".18" style="stop-color:#f9d606;stop-opacity:1"/><stop offset=".184" style="stop-color:#f9d606;stop-opacity:1"/><stop offset=".188" style="stop-color:#f9d506;stop-opacity:1"/><stop offset=".191" style="stop-color:#f9d406;stop-opacity:1"/><stop offset=".195" style="stop-color:#f9d406;stop-opacity:1"/><stop offset=".199" style="stop-color:#f9d307;stop-opacity:1"/><stop offset=".203" style="stop-color:#f9d307;stop-opacity:1"/><stop offset=".207" style="stop-color:#f9d207;stop-opacity:1"/><stop offset=".211" style="stop-color:#f8d107;stop-opacity:1"/><stop offset=".215" style="stop-color:#f8d107;stop-opacity:1"/><stop offset=".219" style="stop-color:#f8d008;stop-opacity:1"/><stop offset=".223" style="stop-color:#f8cf08;stop-opacity:1"/><stop offset=".227" style="stop-color:#f8cf08;stop-opacity:1"/><stop offset=".23" style="stop-color:#f8ce09;stop-opacity:1"/><stop offset=".234" style="stop-color:#f8cd09;stop-opacity:1"/><stop offset=".238" style="stop-color:#f9cd09;stop-opacity:1"/><stop offset=".242" style="stop-color:#f9cc09;stop-opacity:1"/><stop offset=".246" style="stop-color:#f9cc09;stop-opacity:1"/><stop offset=".25" style="stop-color:#f9cb08;stop-opacity:1"/><stop offset=".254" style="stop-color:#f9ca08;stop-opacity:1"/><stop offset=".258" style="stop-color:#f9ca08;stop-opacity:1"/><stop offset=".262" style="stop-color:#f9c908;stop-opacity:1"/><stop offset=".266" style="stop-color:#f9c809;stop-opacity:1"/><stop offset=".27" style="stop-color:#f9c809;stop-opacity:1"/><stop offset=".273" style="stop-color:#f9c709;stop-opacity:1"/><stop offset=".277" style="stop-color:#f9c609;stop-opacity:1"/><stop offset=".281" style="stop-color:#f8c609;stop-opacity:1"/><stop offset=".285" style="stop-color:#f8c509;stop-opacity:1"/><stop offset=".289" style="stop-color:#f8c409;stop-opacity:1"/><stop offset=".293" style="stop-color:#f8c409;stop-opacity:1"/><stop offset=".297" style="stop-color:#f8c309;stop-opacity:1"/><stop offset=".301" style="stop-color:#f8c20a;stop-opacity:1"/><stop offset=".305" style="stop-color:#f8c20a;stop-opacity:1"/><stop offset=".309" style="stop-color:#f8c10a;stop-opacity:1"/><stop offset=".313" style="stop-color:#f8c00a;stop-opacity:1"/><stop offset=".316" style="stop-color:#f8c00a;stop-opacity:1"/><stop offset=".32" style="stop-color:#f8bf0a;stop-opacity:1"/><stop offset=".324" style="stop-color:#f8be0a;stop-opacity:1"/><stop offset=".328" style="stop-color:#f7bd0a;stop-opacity:1"/><stop offset=".332" style="stop-color:#f7bc0a;stop-opacity:1"/><stop offset=".336" style="stop-color:#f7bb0a;stop-opacity:1"/><stop offset=".34" style="stop-color:#f7bb0a;stop-opacity:1"/><stop offset=".344" style="stop-color:#f7ba0a;stop-opacity:1"/><stop offset=".348" style="stop-color:#f7b90a;stop-opacity:1"/><stop offset=".352" style="stop-color:#f7b90a;stop-opacity:1"/><stop offset=".355" style="stop-color:#f7b80b;stop-opacity:1"/><stop offset=".359" style="stop-color:#f6b80b;stop-opacity:1"/><stop offset=".363" style="stop-color:#f7b70b;stop-opacity:1"/><stop offset=".367" style="stop-color:#f7b60b;stop-opacity:1"/><stop offset=".371" style="stop-color:#f7b60b;stop-opacity:1"/><stop offset=".375" style="stop-color:#f7b50b;stop-opacity:1"/><stop offset=".379" style="stop-color:#f7b40b;stop-opacity:1"/><stop offset=".383" style="stop-color:#f7b40b;stop-opacity:1"/><stop offset=".387" style="stop-color:#f7b30b;stop-opacity:1"/><stop offset=".391" style="stop-color:#f7b20b;stop-opacity:1"/><stop offset=".395" style="stop-color:#f7b20b;stop-opacity:1"/><stop offset=".398" style="stop-color:#f7b10c;stop-opacity:1"/><stop offset=".402" style="stop-color:#f7b10c;stop-opacity:1"/><stop offset=".406" style="stop-color:#f7b00c;stop-opacity:1"/><stop offset=".41" style="stop-color:#f7af0c;stop-opacity:1"/><stop offset=".414" style="stop-color:#f7af0c;stop-opacity:1"/><stop offset=".418" style="stop-color:#f7ae0c;stop-opacity:1"/><stop offset=".422" style="stop-color:#f7ad0c;stop-opacity:1"/><stop offset=".426" style="stop-color:#f6ad0c;stop-opacity:1"/><stop offset=".43" style="stop-color:#f6ac0c;stop-opacity:1"/><stop offset=".434" style="stop-color:#f6ab0d;stop-opacity:1"/><stop offset=".438" style="stop-color:#f6ab0d;stop-opacity:1"/><stop offset=".441" style="stop-color:#f6aa0d;stop-opacity:1"/><stop offset=".445" style="stop-color:#f6a90d;stop-opacity:1"/><stop offset=".449" style="stop-color:#f6a90d;stop-opacity:1"/><stop offset=".453" style="stop-color:#f6a80d;stop-opacity:1"/><stop offset=".457" style="stop-color:#f6a70d;stop-opacity:1"/><stop offset=".461" style="stop-color:#f6a70d;stop-opacity:1"/><stop offset=".465" style="stop-color:#f6a60d;stop-opacity:1"/><stop offset=".469" style="stop-color:#f7a60d;stop-opacity:1"/><stop offset=".473" style="stop-color:#f7a50d;stop-opacity:1"/><stop offset=".477" style="stop-color:#f7a40d;stop-opacity:1"/><stop offset=".48" style="stop-color:#f7a40e;stop-opacity:1"/><stop offset=".484" style="stop-color:#f7a30e;stop-opacity:1"/><stop offset=".488" style="stop-color:#f7a20e;stop-opacity:1"/><stop offset=".492" style="stop-color:#f6a20e;stop-opacity:1"/><stop offset=".496" style="stop-color:#f6a10e;stop-opacity:1"/><stop offset=".5" style="stop-color:#f6a00e;stop-opacity:1"/><stop offset=".504" style="stop-color:#f7a00e;stop-opacity:1"/><stop offset=".508" style="stop-color:#f79f0e;stop-opacity:1"/><stop offset=".512" style="stop-color:#f79e0e;stop-opacity:1"/><stop offset=".516" style="stop-color:#f79e0e;stop-opacity:1"/><stop offset=".52" style="stop-color:#f79d0e;stop-opacity:1"/><stop offset=".523" style="stop-color:#f79d0f;stop-opacity:1"/><stop offset=".527" style="stop-color:#f79c0f;stop-opacity:1"/><stop offset=".531" style="stop-color:#f79b0f;stop-opacity:1"/><stop offset=".535" style="stop-color:#f79b0f;stop-opacity:1"/><stop offset=".539" style="stop-color:#f79a0f;stop-opacity:1"/><stop offset=".543" style="stop-color:#f7990f;stop-opacity:1"/><stop offset=".547" style="stop-color:#f7990f;stop-opacity:1"/><stop offset=".551" style="stop-color:#f7980f;stop-opacity:1"/><stop offset=".555" style="stop-color:#f6970f;stop-opacity:1"/><stop offset=".559" style="stop-color:#f69710;stop-opacity:1"/><stop offset=".563" style="stop-color:#f69610;stop-opacity:1"/><stop offset=".566" style="stop-color:#f69510;stop-opacity:1"/><stop offset=".57" style="stop-color:#f69510;stop-opacity:1"/><stop offset=".578" style="stop-color:#f69410;stop-opacity:1"/><stop offset=".582" style="stop-color:#f69310;stop-opacity:1"/><stop offset=".586" style="stop-color:#f69210;stop-opacity:1"/><stop offset=".59" style="stop-color:#f69210;stop-opacity:1"/><stop offset=".594" style="stop-color:#f69111;stop-opacity:1"/><stop offset=".598" style="stop-color:#f69011;stop-opacity:1"/><stop offset=".602" style="stop-color:#f68f11;stop-opacity:1"/><stop offset=".605" style="stop-color:#f68f11;stop-opacity:1"/><stop offset=".609" style="stop-color:#f78e11;stop-opacity:1"/><stop offset=".613" style="stop-color:#f78e11;stop-opacity:1"/><stop offset=".617" style="stop-color:#f68d11;stop-opacity:1"/><stop offset=".621" style="stop-color:#f68c11;stop-opacity:1"/><stop offset=".625" style="stop-color:#f68c11;stop-opacity:1"/><stop offset=".629" style="stop-color:#f68b11;stop-opacity:1"/><stop offset=".633" style="stop-color:#f68a12;stop-opacity:1"/><stop offset=".637" style="stop-color:#f68a12;stop-opacity:1"/><stop offset=".641" style="stop-color:#f68912;stop-opacity:1"/><stop offset=".645" style="stop-color:#f68812;stop-opacity:1"/><stop offset=".648" style="stop-color:#f68813;stop-opacity:1"/><stop offset=".652" style="stop-color:#f68713;stop-opacity:1"/><stop offset=".656" style="stop-color:#f68613;stop-opacity:1"/><stop offset=".66" style="stop-color:#f68613;stop-opacity:1"/><stop offset=".664" style="stop-color:#f68513;stop-opacity:1"/><stop offset=".668" style="stop-color:#f68413;stop-opacity:1"/><stop offset=".672" style="stop-color:#f68413;stop-opacity:1"/><stop offset=".676" style="stop-color:#f68313;stop-opacity:1"/><stop offset=".68" style="stop-color:#f68213;stop-opacity:1"/><stop offset=".684" style="stop-color:#f68113;stop-opacity:1"/><stop offset=".688" style="stop-color:#f58013;stop-opacity:1"/><stop offset=".691" style="stop-color:#f58013;stop-opacity:1"/><stop offset=".695" style="stop-color:#f57f13;stop-opacity:1"/><stop offset=".699" style="stop-color:#f57e14;stop-opacity:1"/><stop offset=".703" style="stop-color:#f57d14;stop-opacity:1"/><stop offset=".707" style="stop-color:#f57c14;stop-opacity:1"/><stop offset=".711" style="stop-color:#f57b14;stop-opacity:1"/><stop offset=".715" style="stop-color:#f57b14;stop-opacity:1"/><stop offset=".719" style="stop-color:#f57a14;stop-opacity:1"/><stop offset=".723" style="stop-color:#f57914;stop-opacity:1"/><stop offset=".727" style="stop-color:#f57914;stop-opacity:1"/><stop offset=".73" style="stop-color:#f57815;stop-opacity:1"/><stop offset=".734" style="stop-color:#f57715;stop-opacity:1"/><stop offset=".738" style="stop-color:#f57715;stop-opacity:1"/><stop offset=".742" style="stop-color:#f57615;stop-opacity:1"/><stop offset=".746" style="stop-color:#f57515;stop-opacity:1"/><stop offset=".75" style="stop-color:#f47515;stop-opacity:1"/><stop offset=".754" style="stop-color:#f47415;stop-opacity:1"/><stop offset=".758" style="stop-color:#f47315;stop-opacity:1"/><stop offset=".762" style="stop-color:#f47315;stop-opacity:1"/><stop offset=".766" style="stop-color:#f47216;stop-opacity:1"/><stop offset=".781" style="stop-color:#f47216;stop-opacity:1"/><stop offset=".813" style="stop-color:#f47216;stop-opacity:1"/><stop offset=".875" style="stop-color:#f47216;stop-opacity:1"/><stop offset="1" style="stop-color:#f47216;stop-opacity:1"/></linearGradient></defs><path d="M0 0h162.71v59H0z" style="stroke:none;fill-rule:nonzero;fill:#c51b31;fill-opacity:1"/><path d="M150.398 53.754h-.718v-1.887c0-.137 0-.281-.008-.426a.85.85 0 0 0-.11-.406q-.104-.159-.402-.16a.78.78 0 0 0-.574.254q-.227.242-.332.566-.11.33-.11.594v1.465h-.718V50.3h.719v.742c.125-.25.28-.45.476-.594q.3-.221.75-.226c.254.004.453.054.606.16a.9.9 0 0 1 .328.414q.093.257.093.566Zm-4.668-1.727a2.5 2.5 0 0 0-.054-.578q-.061-.299-.25-.504-.188-.206-.574-.215-.393.007-.586.211c-.125.137-.211.305-.25.504q-.06.294-.055.582a2.7 2.7 0 0 0 .055.582c.039.196.125.368.25.504q.193.205.586.211.386-.005.574-.215c.12-.14.207-.304.25-.504.043-.199.058-.39.054-.578m.801 0q.006.504-.164.914c-.11.27-.293.485-.539.645-.242.164-.574.246-.976.246q-.615-.001-.985-.242a1.4 1.4 0 0 1-.543-.645 2.3 2.3 0 0 1-.168-.918 2.3 2.3 0 0 1 .168-.918c.11-.273.297-.488.543-.644q.369-.238.985-.242.61.007.98.242.37.24.535.648.17.405.164.914m-3.71-1.726-1.9 4.941h-.706l.539-1.465-1.445-3.476h.796l1.004 2.496.914-2.496Zm-3.704.629c-.304.008-.547.07-.719.187a.95.95 0 0 0-.37.488q-.107.307-.102.684v1.465h-.723V50.3h.723V51c.105-.242.254-.434.457-.57.207-.137.449-.203.734-.207Zm-3.52.41a.56.56 0 0 0-.199-.445.77.77 0 0 0-.5-.165.9.9 0 0 0-.421.102.7.7 0 0 0-.286.297.6.6 0 0 0-.05.21Zm.723.433h-2.215c0 .262.051.508.149.747.105.234.258.425.469.574.207.152.468.226.785.23q.374 0 .719-.12v.515c-.309.074-.63.11-.954.117-.445-.004-.816-.094-1.09-.262a1.42 1.42 0 0 1-.605-.695 2.5 2.5 0 0 1-.195-1.016q0-.474.16-.843c.11-.247.273-.438.508-.583.226-.14.527-.21.887-.214q.702.012 1.042.394c.23.254.34.582.34.988Zm-3.28-1.472-1.321 3.453h-.735L129.54 50.3h.805l.992 2.511.902-2.511Zm-4.552 1.039c-.008-.188-.07-.34-.199-.445a.77.77 0 0 0-.5-.165.9.9 0 0 0-.422.102.67.67 0 0 0-.281.297.45.45 0 0 0-.055.21Zm.719.433h-2.21c0 .262.046.508.151.747q.148.35.465.574c.207.152.469.226.782.23q.378 0 .722-.12v.515c-.312.074-.629.11-.953.117-.445-.004-.809-.094-1.09-.262a1.5 1.5 0 0 1-.61-.695 2.5 2.5 0 0 1-.187-1.016q-.002-.474.16-.843c.106-.247.274-.438.5-.583q.346-.209.895-.214c.469.007.813.14 1.04.394q.34.38.335.988Zm-5.785-.843c-.309.008-.547.07-.727.187a1 1 0 0 0-.367.488q-.105.307-.105.684v1.465h-.723V50.3h.723V51c.105-.242.257-.434.465-.57.199-.137.449-.203.734-.207Zm-3.613 1.097a2.7 2.7 0 0 0-.055-.578q-.061-.299-.25-.504-.19-.206-.578-.215-.393.007-.586.211a1.06 1.06 0 0 0-.246.504 2.7 2.7 0 0 0-.059.582c0 .188.016.383.059.582.039.196.12.368.246.504q.193.205.586.211c.258-.004.445-.074.57-.215.129-.14.215-.304.254-.504q.065-.297.059-.578m.8 0q.007.504-.164.914c-.11.27-.293.485-.539.645-.25.164-.57.246-.98.246-.406 0-.739-.082-.985-.242a1.4 1.4 0 0 1-.539-.645 2.3 2.3 0 0 1-.168-.918 2.3 2.3 0 0 1 .168-.918c.11-.273.297-.488.54-.644.246-.16.578-.238.984-.242.41.004.734.086.98.242.246.16.43.375.54.648q.17.405.163.914m-3.406-2.754a3 3 0 0 0-.762-.101q-.377.006-.566.223a.84.84 0 0 0-.176.542v.36h1.133v.508h-1.133v2.945h-.722v-2.945h-.688v-.508h.688v-.402c.003-.426.132-.743.386-.938q.382-.3 1.075-.293.385-.007.765.063Zm-6.777 2.676a2 2 0 0 0-.07-.527 1.14 1.14 0 0 0-.254-.48q-.183-.206-.512-.212-.328.01-.485.23a1.25 1.25 0 0 0-.21.52 2.7 2.7 0 0 0 0 1.047c.035.188.105.356.21.496.106.145.266.215.48.227a.68.68 0 0 0 .513-.238c.125-.149.207-.32.257-.52.047-.199.075-.383.07-.543m.722 1.942q-.011.772-.48 1.093c-.313.215-.746.32-1.285.317q-.593.001-1.168-.125v-.656q.256.113.531.19.272.078.567.083.63 0 .882-.281.242-.276.23-.809v-.535a.98.98 0 0 1-.44.437q-.301.148-.626.149c-.351-.004-.62-.098-.808-.274a1.4 1.4 0 0 1-.403-.656 2.8 2.8 0 0 1-.097-.797c-.004-.27.027-.547.11-.82q.11-.415.41-.695c.199-.188.476-.282.835-.29.211 0 .406.048.598.145.18.094.316.235.402.414l.02-.48h.719v3.59Zm-4.027-.137h-.719v-1.887q.002-.207-.007-.426a.8.8 0 0 0-.11-.406c-.066-.105-.203-.16-.402-.16a.8.8 0 0 0-.578.254q-.224.242-.325.566a1.8 1.8 0 0 0-.113.594v1.465h-.719V50.3h.72v.742c.124-.25.277-.45.476-.594.199-.148.453-.222.754-.226.25.004.453.054.601.16a.85.85 0 0 1 .324.414q.103.257.102.566v2.39Zm-4.242 0h-.727V50.3h.727Zm.07-4.266h-.867v-.742h.867Zm-1.472.813-1.895 4.941h-.707l.535-1.465-1.453-3.476h.805l1 2.496.914-2.496Zm-4.227 3.453h-.723v-5.008h.723Zm-1.09-4.48c-.25-.067-.5-.102-.762-.102q-.386.006-.562.223a.8.8 0 0 0-.188.542v.36h1.137v.508h-1.137v2.945h-.718v-2.945h-.688v-.508h.688v-.402c0-.426.132-.743.386-.938q.38-.3 1.07-.293c.259-.004.52.016.774.063Zm58.094 2.5h-2.207c0 .261.043.507.148.746q.149.35.461.574c.207.152.469.226.785.23q.38 0 .723-.12v.515a4.6 4.6 0 0 1-.953.117c-.45-.004-.813-.094-1.09-.262a1.5 1.5 0 0 1-.613-.695 2.5 2.5 0 0 1-.188-1.016q-.002-.474.16-.843c.11-.247.278-.438.5-.583q.347-.209.899-.214.697.012 1.035.394c.227.254.344.582.34.988Zm-.727-.434c-.004-.188-.062-.34-.191-.445a.76.76 0 0 0-.496-.165.9.9 0 0 0-.43.102.7.7 0 0 0-.281.297.45.45 0 0 0-.055.21zM93.758 20.531H89.8l.902-3.238h3.953Zm-4.399 1.442h3.954l-4.38 15.441h-3.949Zm36.13 10.71 2.82-9.913 1.546-5.461h3.954l-1.551 5.46-4.774 16.434c-.597 2.016-1.566 3.492-2.918 4.43q-2.034 1.407-5.011 1.39-2.99.017-4.227-1.39c-.816-.942-.945-2.426-.383-4.461l3.985-.012-.297.922q-.235.897.262 1.355.492.46 1.546.461c.704 0 1.301-.156 1.809-.46q.757-.458 1.027-1.356l.36-1.25Zm24.788-7.136h-2.062l.82-2.895h2.063l1.5-5.359h3.949l-1.5 5.36h2.543l-.824 2.894h-2.536l-2.238 7.894c-.101.383-.023.668.25.856q.407.28 1.211.281c.277.004.547-.008.797-.031l-.855 3.012c-.782.101-1.547.152-2.297.14q-1.962.018-2.903-.703-.932-.722-.5-2.363Zm-12.254 2.101h4.641l.242-.851c.196-.688.164-1.227-.105-1.617q-.394-.585-1.59-.598-1.198.012-1.93.598c-.484.39-.828.93-1.02 1.617Zm7.766 2.895h-8.586l-.582 2.047c-.207.762-.137 1.32.188 1.683.328.36.832.532 1.504.528q1.249-.019 1.964-.63c.48-.401.801-.913.97-1.526h3.948q-.821 2.401-2.761 3.718-1.953 1.32-4.942 1.336-2.852-.024-4.129-1.472c-.847-.965-1.047-2.301-.59-4.008l1.434-5.051c.512-1.707 1.461-3.043 2.863-4.008 1.395-.965 3.051-1.453 4.965-1.473q2.784.035 4.102 1.446c.875.941 1.097 2.21.68 3.808Zm-31.394-2.895h4.644l.242-.851q.3-1.032-.097-1.617-.407-.585-1.598-.598-1.195.012-1.926.598c-.488.39-.832.93-1.02 1.617Zm7.78 2.895h-8.597l-.582 2.047c-.2.762-.133 1.32.192 1.683.328.36.832.532 1.503.528.829-.012 1.48-.223 1.965-.63.48-.401.801-.913.973-1.526h3.941q-.819 2.401-2.761 3.718-1.945 1.32-4.938 1.336-2.852-.024-4.129-1.472-1.281-1.448-.59-4.008l1.434-5.051q.762-2.56 2.855-4.008c1.399-.965 3.055-1.453 4.97-1.473 1.855.024 3.226.504 4.1 1.446.876.941 1.098 2.21.68 3.808Zm-14.09-3.25h-3.917l.187-.684q.24-.894-.253-1.355-.497-.46-1.551-.461c-.696 0-1.305.156-1.805.46-.512.31-.848.759-1.027 1.356l-1.739 6.133c-.16.598-.074 1.047.262 1.356q.493.456 1.543.46 1.049-.004 1.805-.46c.508-.309.847-.758 1.031-1.356l.274-.965h3.949c-.606 2.086-1.582 3.575-2.934 4.512q-2.034 1.411-5.012 1.395-2.988.017-4.218-1.395c-.832-.937-.953-2.426-.39-4.457l1.218-4.312c.59-2.036 1.562-3.52 2.918-4.461q2.03-1.408 5.011-1.391c1.946-.008 3.336.437 4.165 1.344.828.902.988 2.332.484 4.281m-34.296-5.32h3.64l-.53 1.87c.574-.511 1.277-.991 2.175-1.437.895-.449 1.793-.687 2.703-.718 1.524.007 2.477.53 2.868 1.574.386 1.043.3 2.562-.282 4.558l-1.058 3.746c-.551 1.993-1.325 3.516-2.301 4.559-.988 1.04-2.238 1.566-3.766 1.574-.515.008-1.039-.12-1.558-.383-.528-.265-1.168-.703-1.91-1.32l-2.442 8.59h-3.953Zm2.965 3.488-2.395 8.46c.536.755 1.223 1.122 2.063 1.11q.813.054 1.574-.695c.512-.5.98-1.5 1.418-2.996l.938-3.293q.613-2.245.277-2.996c-.227-.504-.617-.735-1.18-.696-.84-.011-1.73.356-2.695 1.106m-6.684-.047-3.582 1.137q-.106-1.061-.664-1.582-.564-.521-1.469-.52c-.468.008-.882.14-1.253.399a1.86 1.86 0 0 0-.739.992q-.168.703.461 1.207c.418.336.965.664 1.637.976a19 19 0 0 1 1.977 1.079q.97.61 1.484 1.507c.348.606.398 1.36.16 2.27-.469 1.539-1.328 2.703-2.594 3.492-1.261.793-2.73 1.188-4.41 1.195q-1.2.025-2.219-.285-1.024-.31-1.785-1.258-.762-.955-1.18-2.859l3.794-.879q-.049 1.096.496 1.735.544.637 1.714.648.904-.006 1.508-.363a1.68 1.68 0 0 0 .793-1q.216-.867-.406-1.407-.614-.543-1.633-.988c-.672-.3-1.34-.64-1.988-1.031a3.9 3.9 0 0 1-1.48-1.527q-.507-.944-.098-2.485c.289-.972.773-1.777 1.46-2.418a6.7 6.7 0 0 1 2.383-1.426 8.3 8.3 0 0 1 2.77-.468q2.208.023 3.426 1.054 1.208 1.036 1.437 2.805" style="stroke:none;fill-rule:nonzero;fill:#fff;fill-opacity:1"/><g clip-path="url(#a)"><g clip-path="url(#b)"><g clip-path="url(#c)"><path d="M67.05 8.504 44.81 63.554-12.75 40.298l22.238-55.05Zm0 0" style="stroke:none;fill-rule:nonzero;fill:url(#d)"/></g></g></g></svg>