<svg xmlns="http://www.w3.org/2000/svg" width="176pt" height="35.8pt" viewBox="0 0 176 35.8"><defs><clipPath id="a"><path d="M27 30h5v5.8h-5Zm0 0"/></clipPath><clipPath id="b"><path d="M33 30h5v5.8h-5Zm0 0"/></clipPath><clipPath id="c"><path d="M40 30h4v5.8h-4Zm0 0"/></clipPath><clipPath id="d"><path d="M46 30h9v5.8h-9Zm0 0"/></clipPath><clipPath id="e"><path d="M56 30h4v5.8h-4Zm0 0"/></clipPath><clipPath id="f"><path d="M61 30h5v5.8h-5Zm0 0"/></clipPath><clipPath id="g"><path d="M66 30h5v5.8h-5Zm0 0"/></clipPath><clipPath id="h"><path d="M72 30h7v5.8h-7Zm0 0"/></clipPath><clipPath id="i"><path d="M80 30h6v5.8h-6Zm0 0"/></clipPath><clipPath id="j"><path d="M88 30h4v5.8h-4Zm0 0"/></clipPath><clipPath id="k"><path d="M95 30h6v5.8h-6Zm0 0"/></clipPath><clipPath id="l"><path d="M102 30h2v5.8h-2Zm0 0"/></clipPath><clipPath id="m"><path d="M105 30h5v5.8h-5Zm0 0"/></clipPath><clipPath id="n"><path d="M111 30h4v5.8h-4Zm0 0"/></clipPath><clipPath id="o"><path d="M116 30h5v5.8h-5Zm0 0"/></clipPath><clipPath id="p"><path d="M122 30h5v5.8h-5Zm0 0"/></clipPath><clipPath id="q"><path d="M128 30h4v5.8h-4Zm0 0"/></clipPath><clipPath id="r"><path d="M133 30h6v5.8h-6Zm0 0"/></clipPath><clipPath id="s"><path d="M140 30h5v5.8h-5Zm0 0"/></clipPath><clipPath id="t"><path d="M147 30h4v5.8h-4Zm0 0"/></clipPath></defs><g clip-path="url(#a)"><path d="M31.402 30.246v.625h-1.77v4.867h-.741v-4.867h-1.782v-.625z" style="stroke:none;fill-rule:nonzero;fill:#233a6f;fill-opacity:1"/></g><g clip-path="url(#b)"><path d="M37.715 35.738h-.75v-2.5h-2.961v2.5h-.746v-5.492h.746v2.445h2.96v-2.445h.75z" style="stroke:none;fill-rule:nonzero;fill:#233a6f;fill-opacity:1"/></g><g clip-path="url(#c)"><path d="M43.516 30.246v.606h-2.633v1.828h2.137v.578h-2.137v1.875h2.633v.605h-3.383v-5.492z" style="stroke:none;fill-rule:nonzero;fill:#233a6f;fill-opacity:1"/></g><g clip-path="url(#d)"><path d="M46.906 30.246h.621c.067 0 .121.012.16.047a.25.25 0 0 1 .09.129l1.133 3.82q.031.1.055.223c.012.082.031.164.047.25.02-.086.031-.168.05-.25q.034-.123.063-.223l1.293-3.82a.3.3 0 0 1 .09-.121.26.26 0 0 1 .16-.055h.215c.07 0 .12.012.164.047.039.035.074.074.086.129l1.289 3.82c.047.137.086.285.121.461.012-.09.027-.164.039-.246q.017-.113.047-.215l1.14-3.82a.2.2 0 0 1 .086-.121.27.27 0 0 1 .165-.055h.578l-1.711 5.492h-.657l-1.386-4.191a2 2 0 0 1-.074-.277c-.012.054-.028.101-.036.148-.011.047-.027.09-.03.129L49.3 35.738h-.668z" style="stroke:none;fill-rule:nonzero;fill:#233a6f;fill-opacity:1"/></g><g clip-path="url(#e)"><path d="M59.793 30.246v.606H57.16v1.828h2.137v.578H57.16v1.875h2.633v.605H56.41v-5.492z" style="stroke:none;fill-rule:nonzero;fill:#233a6f;fill-opacity:1"/></g><g clip-path="url(#f)"><path d="M62.68 35.113h2.379v.625h-3.121v-5.492h.742z" style="stroke:none;fill-rule:nonzero;fill:#233a6f;fill-opacity:1"/></g><g clip-path="url(#g)"><path d="M70.52 34.605a.14.14 0 0 1 .105.047l.293.32c-.223.262-.5.465-.816.606-.325.149-.707.215-1.16.215-.399 0-.754-.066-1.079-.203a2.3 2.3 0 0 1-.824-.57 2.5 2.5 0 0 1-.523-.891 3.2 3.2 0 0 1-.188-1.14c0-.41.067-.794.2-1.137q.203-.516.566-.891c.242-.25.535-.438.87-.582.337-.133.716-.2 1.118-.2.406 0 .758.06 1.047.188.289.13.55.297.781.512l-.242.344a.3.3 0 0 1-.063.062.2.2 0 0 1-.101.027.3.3 0 0 1-.106-.035c-.043-.027-.082-.054-.136-.086-.055-.035-.106-.074-.18-.117a1.4 1.4 0 0 0-.242-.113 2 2 0 0 0-.762-.121q-.444-.002-.812.148c-.243.102-.45.242-.633.43a1.9 1.9 0 0 0-.41.68c-.102.27-.149.566-.149.906 0 .344.047.644.149.914s.234.492.406.684c.168.187.367.32.605.421q.353.148.746.149a2.5 2.5 0 0 0 .805-.113c.106-.04.215-.094.309-.157.094-.058.195-.132.289-.222.047-.059.094-.075.137-.075" style="stroke:none;fill-rule:nonzero;fill:#233a6f;fill-opacity:1"/></g><g clip-path="url(#h)"><path d="M77.313 32.996q-.002-.505-.133-.91a1.9 1.9 0 0 0-.395-.68 1.6 1.6 0 0 0-.613-.426 2 2 0 0 0-.8-.148c-.298 0-.56.047-.802.148a1.7 1.7 0 0 0-.613.426c-.168.18-.305.41-.39.68-.098.27-.137.574-.137.91q.001.505.136.91c.094.27.223.492.391.68.168.184.375.332.613.426.243.101.504.148.801.148s.567-.047.8-.148a1.7 1.7 0 0 0 .614-.426c.172-.18.3-.41.395-.68q.13-.406.132-.91m.761 0q0 .617-.195 1.133c-.129.344-.317.64-.55.89a2.6 2.6 0 0 1-.86.579c-.328.136-.7.203-1.106.203-.402 0-.773-.067-1.101-.203a2.5 2.5 0 0 1-.86-.578 2.7 2.7 0 0 1-.55-.891 3.2 3.2 0 0 1-.196-1.133q.001-.616.196-1.133c.128-.343.316-.64.55-.89.239-.25.528-.446.86-.578.328-.137.699-.211 1.101-.211q.612 0 1.106.21c.332.133.62.329.86.579.234.25.421.547.55.89q.194.517.195 1.133" style="stroke:none;fill-rule:nonzero;fill:#233a6f;fill-opacity:1"/></g><g clip-path="url(#i)"><path d="m82.96 33.945.083.203q.042-.11.078-.203a5 5 0 0 1 .098-.195l1.86-3.375c.034-.062.066-.094.1-.11a.5.5 0 0 1 .157-.019h.543v5.492h-.652v-4.035c0-.055 0-.11.007-.176 0-.062.004-.12.012-.191l-1.879 3.441c-.062.114-.156.172-.27.172h-.109q-.17 0-.27-.172l-1.929-3.445.023.195c.004.059.004.121.004.176v4.035h-.652v-5.492h.547c.066 0 .113.008.152.02.035.015.07.047.102.109l1.902 3.383a1 1 0 0 1 .094.187" style="stroke:none;fill-rule:nonzero;fill:#233a6f;fill-opacity:1"/></g><g clip-path="url(#j)"><path d="M91.676 30.246v.606h-2.637v1.828h2.137v.578h-2.137v1.875h2.637v.605h-3.383v-5.492z" style="stroke:none;fill-rule:nonzero;fill:#233a6f;fill-opacity:1"/></g><g clip-path="url(#k)"><path d="M99.676 32.996c0-.336-.043-.64-.133-.902a1.95 1.95 0 0 0-.39-.676 1.8 1.8 0 0 0-.614-.426 2.2 2.2 0 0 0-.805-.144H96.43v4.285h1.304c.297 0 .563-.047.805-.149q.362-.14.613-.418.251-.273.391-.675c.094-.262.133-.559.133-.895m.77 0c0 .41-.067.79-.196 1.125a2.6 2.6 0 0 1-.55.871 2.6 2.6 0 0 1-.856.559 3 3 0 0 1-1.11.195H95.68v-5.5h2.054q.611.002 1.11.195a2.5 2.5 0 0 1 .855.559c.235.242.422.535.551.871s.195.715.195 1.125" style="stroke:none;fill-rule:nonzero;fill:#233a6f;fill-opacity:1"/></g><g clip-path="url(#l)"><path d="M103.41 35.738h-.738v-5.492h.738z" style="stroke:none;fill-rule:nonzero;fill:#233a6f;fill-opacity:1"/></g><g clip-path="url(#m)"><path d="M109.344 30.246v.606h-2.637v1.921h2.254v.606h-2.254v2.36h-.746v-5.493z" style="stroke:none;fill-rule:nonzero;fill:#233a6f;fill-opacity:1"/></g><g clip-path="url(#n)"><path d="M114.758 30.246v.606h-2.637v1.921h2.25v.606h-2.25v2.36h-.75v-5.493z" style="stroke:none;fill-rule:nonzero;fill:#233a6f;fill-opacity:1"/></g><g clip-path="url(#o)"><path d="M120.168 30.246v.606h-2.637v1.828h2.14v.578h-2.14v1.875h2.637v.605h-3.383v-5.492z" style="stroke:none;fill-rule:nonzero;fill:#233a6f;fill-opacity:1"/></g><g clip-path="url(#p)"><path d="M123.129 32.91h.773c.215 0 .41-.027.575-.082.16-.055.3-.129.41-.223a.9.9 0 0 0 .25-.343c.054-.137.09-.285.09-.438 0-.332-.11-.574-.329-.742-.214-.168-.539-.25-.96-.25h-.817v2.078Zm0 .54v2.288h-.742v-5.492h1.55q.522-.001.903.11c.258.066.465.171.629.3.16.137.289.297.363.48q.119.282.121.634-.002.293-.098.546a1.2 1.2 0 0 1-.265.45 1.5 1.5 0 0 1-.426.343 2.2 2.2 0 0 1-.566.22c.093.05.175.132.242.233l1.605 2.184h-.664c-.133 0-.234-.055-.293-.156l-1.43-1.961a.36.36 0 0 0-.144-.133.5.5 0 0 0-.227-.043h-.558z" style="stroke:none;fill-rule:nonzero;fill:#233a6f;fill-opacity:1"/></g><g clip-path="url(#q)"><path d="M131.707 30.246v.606h-2.633v1.828h2.137v.578h-2.137v1.875h2.633v.605h-3.383v-5.492z" style="stroke:none;fill-rule:nonzero;fill:#233a6f;fill-opacity:1"/></g><g clip-path="url(#r)"><path d="M134.387 30.273q.047.019.105.102l3.184 4.137q-.014-.099-.016-.196c0-.058-.008-.12-.008-.18v-3.89h.657v5.492h-.38a.3.3 0 0 1-.148-.031.34.34 0 0 1-.113-.102l-3.184-4.14c.008.062.008.129.016.191.008.059.008.114.008.168v3.914h-.656v-5.492h.382c.07 0 .118.008.153.027" style="stroke:none;fill-rule:nonzero;fill:#233a6f;fill-opacity:1"/></g><g clip-path="url(#s)"><path d="M144.598 34.605a.14.14 0 0 1 .105.047l.29.32a2.3 2.3 0 0 1-.813.606c-.325.149-.707.215-1.16.215-.399 0-.754-.066-1.079-.203a2.3 2.3 0 0 1-.824-.57 2.5 2.5 0 0 1-.523-.891 3.2 3.2 0 0 1-.192-1.14c0-.41.07-.794.203-1.137a2.6 2.6 0 0 1 .567-.891c.242-.25.531-.438.871-.582.336-.133.715-.2 1.117-.2.403 0 .754.06 1.043.188.293.13.555.297.785.512l-.246.344a.2.2 0 0 1-.058.062.2.2 0 0 1-.102.027.3.3 0 0 1-.105-.035 1 1 0 0 0-.137-.086c-.055-.035-.11-.074-.184-.117a1.87 1.87 0 0 0-.57-.203 2.4 2.4 0 0 0-.434-.031c-.297 0-.562.047-.808.148-.242.102-.45.242-.633.43a1.9 1.9 0 0 0-.41.68c-.102.27-.149.566-.149.906 0 .344.047.644.149.914s.234.492.402.684c.168.187.371.32.61.421q.352.148.746.149a2.5 2.5 0 0 0 .437-.027q.194-.029.363-.086c.11-.04.22-.094.313-.157.094-.058.195-.132.289-.222.047-.059.094-.075.137-.075" style="stroke:none;fill-rule:nonzero;fill:#233a6f;fill-opacity:1"/></g><g clip-path="url(#t)"><path d="M150.434 30.246v.606h-2.637v1.828h2.137v.578h-2.137v1.875h2.637v.605h-3.383v-5.492z" style="stroke:none;fill-rule:nonzero;fill:#233a6f;fill-opacity:1"/></g><path d="M89.445 25.492c-1.832 0-3.437-.672-4.46-1.23-1.067-.59-1.864-1.262-2.575-2.18-.547-.7-.426-1.71.274-2.258a1.62 1.62 0 0 1 2.261.278c.45.578.914.964 1.594 1.34.98.538 2.012.835 2.906.835 1.067 0 1.957-.148 2.57-.437.524-.242.895-.531 1.126-.875.214-.324.308-.66.308-1.086 0-.418-.101-.633-.18-.762-.05-.074-.257-.351-.914-.699-.46-.246-1.351-.61-2.976-.934-1.328-.265-2.34-.55-3.094-.859-1.125-.469-1.93-1.074-2.441-1.863a4.5 4.5 0 0 1-.746-2.535c0-1.676.914-3.086 2.504-3.868 1.02-.5 2.218-.754 3.566-.754 1.074 0 2.062.133 2.934.41 1.015.317 1.96.883 2.796 1.688a1.605 1.605 0 1 1-2.222 2.317c-.473-.454-.985-.77-1.524-.938-.558-.176-1.226-.262-1.976-.262-.848 0-1.57.14-2.149.426-.64.316-.715.715-.715.98 0 .294.075.547.223.778.149.223.485.453.977.652.558.23 1.402.461 2.508.688 1.601.324 2.898.742 3.847 1.242.977.52 1.7 1.137 2.137 1.84q.668 1.072.668 2.46c0 1.052-.281 2.016-.844 2.856-.566.856-1.367 1.52-2.453 2.016-1.066.492-2.379.734-3.93.734M168.77 25.492c-1.836 0-3.442-.672-4.465-1.23-1.067-.59-1.86-1.262-2.575-2.18-.546-.7-.425-1.71.278-2.258a1.614 1.614 0 0 1 2.258.278c.453.578.918.964 1.597 1.34.977.538 2.008.835 2.907.835 1.062 0 1.953-.148 2.566-.437.523-.242.894-.531 1.125-.875.215-.324.309-.66.309-1.086 0-.418-.098-.633-.18-.762-.047-.074-.258-.351-.91-.699-.465-.246-1.356-.61-2.98-.934-1.329-.265-2.34-.55-3.095-.859-1.125-.469-1.925-1.074-2.44-1.863a4.54 4.54 0 0 1-.747-2.54c0-1.679.918-3.085 2.508-3.87 1.015-.497 2.219-.754 3.566-.754 1.07 0 2.063.136 2.93.41 1.02.316 1.965.883 2.8 1.687.637.614.66 1.63.048 2.27a1.61 1.61 0 0 1-2.274.047c-.473-.45-.984-.766-1.523-.934-.559-.176-1.227-.265-1.977-.265q-1.274-.001-2.148.425c-.641.317-.707.715-.707.985q0 .434.222.773c.149.223.485.453.977.656.558.227 1.402.457 2.508.688 1.601.32 2.898.742 3.847 1.238.98.52 1.7 1.14 2.137 1.84.445.715.668 1.539.668 2.46 0 1.052-.281 2.017-.844 2.86-.566.856-1.367 1.516-2.453 2.016-1.062.496-2.387.738-3.933.738M78.668 25.61c-.89 0-1.606-.723-1.606-1.606V9.214a1.605 1.605 0 1 1 3.211 0v14.782a1.605 1.605 0 0 1-1.605 1.613M34.047 25.5c-.89 0-1.606-.719-1.606-1.602V1.605a1.605 1.605 0 1 1 3.211 0v22.286c0 .89-.718 1.609-1.605 1.609M100.098 25.61c-.891 0-1.606-.723-1.606-1.606V1.714c0-.89.723-1.605 1.606-1.605.882 0 1.601.723 1.601 1.606v22.281c0 .89-.715 1.613-1.601 1.613M151.309 22.395a5.683 5.683 0 0 1-5.676-5.676 5.686 5.686 0 0 1 5.676-5.676 5.683 5.683 0 0 1 5.675 5.676 5.686 5.686 0 0 1-5.675 5.676m8.89-20.68c0-.89-.719-1.606-1.601-1.606a1.61 1.61 0 0 0-1.606 1.606v8.16a8.86 8.86 0 0 0-5.676-2.055c-4.902 0-8.89 3.989-8.89 8.89 0 4.9 3.988 8.892 8.89 8.892s8.891-3.993 8.891-8.891c0-.047 0-.094-.008-.14 0-.028.008-.048.008-.075V1.715zM112.309 22.395a5.683 5.683 0 0 1-5.676-5.676 5.686 5.686 0 0 1 5.676-5.676 5.683 5.683 0 0 1 5.675 5.676 5.683 5.683 0 0 1-5.675 5.676m0-14.575c-4.899 0-8.891 3.989-8.891 8.89 0 4.9 3.992 8.892 8.89 8.892 2.16 0 4.141-.774 5.676-2.055v.445a1.605 1.605 0 0 0 3.207 0v-7.281c.008-4.902-3.98-8.89-8.882-8.89M61.242 14.332l10.328.02a5.68 5.68 0 0 0-5.168-3.317 5.7 5.7 0 0 0-5.16 3.297m5.16 11.277c-4.902 0-8.89-3.992-8.89-8.89 0-.313.011-.621.043-.926 0-.012 0-.031.008-.047.484-4.45 4.269-7.918 8.84-7.918a8.88 8.88 0 0 1 8.753 7.32c.04.215.067.438.094.653.047.453-.102.902-.402 1.242a1.62 1.62 0 0 1-1.196.531l-12.859-.02a5.686 5.686 0 0 0 5.613 4.844c1.813 0 3.48-.835 4.559-2.289a1.605 1.605 0 0 1 2.25-.332c.715.532.863 1.54.328 2.254a8.99 8.99 0 0 1-7.14 3.578M46.852 25.5c-4.899 0-8.891-3.988-8.891-8.89V9.214a1.605 1.605 0 1 1 3.21 0v7.394a5.68 5.68 0 0 0 5.677 5.676 5.68 5.68 0 0 0 5.675-5.676V9.215c0-.89.72-1.606 1.602-1.606.89 0 1.605.723 1.605 1.606v7.394c.012 4.903-3.976 8.891-8.878 8.891M139.305 25.5c-.89 0-1.606-.719-1.606-1.602v-7.402a5.68 5.68 0 0 0-5.676-5.676 5.677 5.677 0 0 0-5.671 5.676v7.395c0 .89-.723 1.601-1.606 1.601a1.607 1.607 0 0 1-1.605-1.601v-7.395c0-4.902 3.992-8.89 8.89-8.89 4.903 0 8.89 3.988 8.89 8.89v7.395a1.62 1.62 0 0 1-1.616 1.609M78.777 1.371a1.888 1.888 0 1 1-1.89 1.887c0-1.043.847-1.887 1.89-1.887" style="stroke:none;fill-rule:nonzero;fill:#233a6f;fill-opacity:1"/><path d="M3.578 12.855c-.004.06-.004.114-.004.176a3.21 3.21 0 0 0 2.196 3.04h9.847v-3.216z" style="stroke:none;fill-rule:nonzero;fill:#7ea3db;fill-opacity:1"/><path d="M21.402 7.71h-5.675V1.606a1.605 1.605 0 1 0-3.211 0v6.106H.008C0 7.773 0 7.828 0 7.887a3.2 3.2 0 0 0 2.191 3.039h19.215a5.68 5.68 0 0 1 5.676 5.676 5.683 5.683 0 0 1-5.676 5.675 5.7 5.7 0 0 1-5.176-3.343l-.425-.942H7.043q-.005.084-.004.168c0 1.422.922 2.621 2.203 3.04h4.555a8.92 8.92 0 0 0 7.61 4.288c4.902 0 8.89-3.992 8.89-8.89 0-4.903-3.988-8.887-8.895-8.887" style="stroke:none;fill-rule:nonzero;fill:#233a6f;fill-opacity:1"/></svg>