<?xml version="1.0" encoding="UTF-8"?>
<svg xmlns="http://www.w3.org/2000/svg" xmlns:xlink="http://www.w3.org/1999/xlink" width="176pt" height="35.8pt" viewBox="0 0 176 35.8" version="1.1">
<defs>
<clipPath id="clip1">
  <path d="M 27 30 L 32 30 L 32 35.800781 L 27 35.800781 Z M 27 30 "/>
</clipPath>
<clipPath id="clip2">
  <path d="M 33 30 L 38 30 L 38 35.800781 L 33 35.800781 Z M 33 30 "/>
</clipPath>
<clipPath id="clip3">
  <path d="M 40 30 L 44 30 L 44 35.800781 L 40 35.800781 Z M 40 30 "/>
</clipPath>
<clipPath id="clip4">
  <path d="M 46 30 L 55 30 L 55 35.800781 L 46 35.800781 Z M 46 30 "/>
</clipPath>
<clipPath id="clip5">
  <path d="M 56 30 L 60 30 L 60 35.800781 L 56 35.800781 Z M 56 30 "/>
</clipPath>
<clipPath id="clip6">
  <path d="M 61 30 L 66 30 L 66 35.800781 L 61 35.800781 Z M 61 30 "/>
</clipPath>
<clipPath id="clip7">
  <path d="M 66 30 L 71 30 L 71 35.800781 L 66 35.800781 Z M 66 30 "/>
</clipPath>
<clipPath id="clip8">
  <path d="M 72 30 L 79 30 L 79 35.800781 L 72 35.800781 Z M 72 30 "/>
</clipPath>
<clipPath id="clip9">
  <path d="M 80 30 L 86 30 L 86 35.800781 L 80 35.800781 Z M 80 30 "/>
</clipPath>
<clipPath id="clip10">
  <path d="M 88 30 L 92 30 L 92 35.800781 L 88 35.800781 Z M 88 30 "/>
</clipPath>
<clipPath id="clip11">
  <path d="M 95 30 L 101 30 L 101 35.800781 L 95 35.800781 Z M 95 30 "/>
</clipPath>
<clipPath id="clip12">
  <path d="M 102 30 L 104 30 L 104 35.800781 L 102 35.800781 Z M 102 30 "/>
</clipPath>
<clipPath id="clip13">
  <path d="M 105 30 L 110 30 L 110 35.800781 L 105 35.800781 Z M 105 30 "/>
</clipPath>
<clipPath id="clip14">
  <path d="M 111 30 L 115 30 L 115 35.800781 L 111 35.800781 Z M 111 30 "/>
</clipPath>
<clipPath id="clip15">
  <path d="M 116 30 L 121 30 L 121 35.800781 L 116 35.800781 Z M 116 30 "/>
</clipPath>
<clipPath id="clip16">
  <path d="M 122 30 L 127 30 L 127 35.800781 L 122 35.800781 Z M 122 30 "/>
</clipPath>
<clipPath id="clip17">
  <path d="M 128 30 L 132 30 L 132 35.800781 L 128 35.800781 Z M 128 30 "/>
</clipPath>
<clipPath id="clip18">
  <path d="M 133 30 L 139 30 L 139 35.800781 L 133 35.800781 Z M 133 30 "/>
</clipPath>
<clipPath id="clip19">
  <path d="M 140 30 L 145 30 L 145 35.800781 L 140 35.800781 Z M 140 30 "/>
</clipPath>
<clipPath id="clip20">
  <path d="M 147 30 L 151 30 L 151 35.800781 L 147 35.800781 Z M 147 30 "/>
</clipPath>
</defs>
<g id="surface1">
<g clip-path="url(#clip1)" clip-rule="nonzero">
<path style=" stroke:none;fill-rule:nonzero;fill:rgb(13.574219%,22.938538%,43.492126%);fill-opacity:1;" d="M 31.402344 30.246094 L 31.402344 30.871094 L 29.632812 30.871094 L 29.632812 35.738281 L 28.890625 35.738281 L 28.890625 30.871094 L 27.109375 30.871094 L 27.109375 30.246094 L 31.402344 30.246094 "/>
</g>
<g clip-path="url(#clip2)" clip-rule="nonzero">
<path style=" stroke:none;fill-rule:nonzero;fill:rgb(13.574219%,22.938538%,43.492126%);fill-opacity:1;" d="M 37.714844 35.738281 L 36.964844 35.738281 L 36.964844 33.238281 L 34.003906 33.238281 L 34.003906 35.738281 L 33.257812 35.738281 L 33.257812 30.246094 L 34.003906 30.246094 L 34.003906 32.691406 L 36.964844 32.691406 L 36.964844 30.246094 L 37.714844 30.246094 L 37.714844 35.738281 "/>
</g>
<g clip-path="url(#clip3)" clip-rule="nonzero">
<path style=" stroke:none;fill-rule:nonzero;fill:rgb(13.574219%,22.938538%,43.492126%);fill-opacity:1;" d="M 43.515625 30.246094 L 43.515625 30.851562 L 40.882812 30.851562 L 40.882812 32.679688 L 43.019531 32.679688 L 43.019531 33.257812 L 40.882812 33.257812 L 40.882812 35.132812 L 43.515625 35.132812 L 43.515625 35.738281 L 40.132812 35.738281 L 40.132812 30.246094 L 43.515625 30.246094 "/>
</g>
<g clip-path="url(#clip4)" clip-rule="nonzero">
<path style=" stroke:none;fill-rule:nonzero;fill:rgb(13.574219%,22.938538%,43.492126%);fill-opacity:1;" d="M 46.90625 30.246094 L 47.527344 30.246094 C 47.59375 30.246094 47.648438 30.257812 47.6875 30.292969 C 47.730469 30.328125 47.761719 30.367188 47.777344 30.421875 L 48.910156 34.242188 C 48.929688 34.308594 48.949219 34.382812 48.964844 34.464844 C 48.976562 34.546875 48.996094 34.628906 49.011719 34.714844 C 49.03125 34.628906 49.042969 34.546875 49.0625 34.464844 C 49.085938 34.382812 49.105469 34.308594 49.125 34.242188 L 50.417969 30.421875 C 50.433594 30.378906 50.464844 30.339844 50.507812 30.300781 C 50.554688 30.265625 50.605469 30.246094 50.667969 30.246094 L 50.882812 30.246094 C 50.953125 30.246094 51.003906 30.257812 51.046875 30.292969 C 51.085938 30.328125 51.121094 30.367188 51.132812 30.421875 L 52.421875 34.242188 C 52.46875 34.378906 52.507812 34.527344 52.542969 34.703125 C 52.554688 34.613281 52.570312 34.539062 52.582031 34.457031 C 52.59375 34.382812 52.609375 34.308594 52.628906 34.242188 L 53.769531 30.421875 C 53.78125 30.375 53.808594 30.332031 53.855469 30.300781 C 53.902344 30.265625 53.957031 30.246094 54.019531 30.246094 L 54.597656 30.246094 L 52.886719 35.738281 L 52.230469 35.738281 L 50.84375 31.546875 C 50.816406 31.464844 50.789062 31.378906 50.769531 31.269531 C 50.757812 31.324219 50.742188 31.371094 50.734375 31.417969 C 50.722656 31.464844 50.707031 31.507812 50.703125 31.546875 L 49.300781 35.738281 L 48.632812 35.738281 L 46.90625 30.246094 "/>
</g>
<g clip-path="url(#clip5)" clip-rule="nonzero">
<path style=" stroke:none;fill-rule:nonzero;fill:rgb(13.574219%,22.938538%,43.492126%);fill-opacity:1;" d="M 59.792969 30.246094 L 59.792969 30.851562 L 57.160156 30.851562 L 57.160156 32.679688 L 59.296875 32.679688 L 59.296875 33.257812 L 57.160156 33.257812 L 57.160156 35.132812 L 59.792969 35.132812 L 59.792969 35.738281 L 56.410156 35.738281 L 56.410156 30.246094 L 59.792969 30.246094 "/>
</g>
<g clip-path="url(#clip6)" clip-rule="nonzero">
<path style=" stroke:none;fill-rule:nonzero;fill:rgb(13.574219%,22.938538%,43.492126%);fill-opacity:1;" d="M 62.679688 35.113281 L 65.058594 35.113281 L 65.058594 35.738281 L 61.9375 35.738281 L 61.9375 30.246094 L 62.679688 30.246094 L 62.679688 35.113281 "/>
</g>
<g clip-path="url(#clip7)" clip-rule="nonzero">
<path style=" stroke:none;fill-rule:nonzero;fill:rgb(13.574219%,22.938538%,43.492126%);fill-opacity:1;" d="M 70.519531 34.605469 C 70.558594 34.605469 70.597656 34.621094 70.625 34.652344 L 70.917969 34.972656 C 70.695312 35.234375 70.417969 35.4375 70.101562 35.578125 C 69.777344 35.726562 69.394531 35.792969 68.941406 35.792969 C 68.542969 35.792969 68.1875 35.726562 67.863281 35.589844 C 67.539062 35.457031 67.261719 35.261719 67.039062 35.019531 C 66.8125 34.769531 66.636719 34.480469 66.515625 34.128906 C 66.386719 33.785156 66.328125 33.40625 66.328125 32.988281 C 66.328125 32.578125 66.394531 32.195312 66.527344 31.851562 C 66.664062 31.507812 66.851562 31.210938 67.09375 30.960938 C 67.335938 30.710938 67.628906 30.523438 67.964844 30.378906 C 68.300781 30.246094 68.679688 30.179688 69.082031 30.179688 C 69.488281 30.179688 69.839844 30.238281 70.128906 30.367188 C 70.417969 30.496094 70.679688 30.664062 70.910156 30.878906 L 70.667969 31.222656 C 70.648438 31.25 70.625 31.269531 70.605469 31.285156 C 70.585938 31.296875 70.550781 31.3125 70.503906 31.3125 C 70.472656 31.3125 70.4375 31.296875 70.398438 31.277344 C 70.355469 31.25 70.316406 31.222656 70.261719 31.191406 C 70.207031 31.15625 70.15625 31.117188 70.082031 31.074219 C 70.011719 31.035156 69.933594 30.992188 69.839844 30.960938 C 69.742188 30.925781 69.636719 30.894531 69.507812 30.871094 C 69.378906 30.847656 69.238281 30.839844 69.078125 30.839844 C 68.78125 30.839844 68.511719 30.886719 68.265625 30.988281 C 68.023438 31.089844 67.816406 31.230469 67.632812 31.417969 C 67.457031 31.609375 67.316406 31.828125 67.222656 32.097656 C 67.121094 32.367188 67.074219 32.664062 67.074219 33.003906 C 67.074219 33.347656 67.121094 33.648438 67.222656 33.917969 C 67.324219 34.1875 67.457031 34.410156 67.628906 34.601562 C 67.796875 34.789062 67.996094 34.921875 68.234375 35.023438 C 68.46875 35.121094 68.71875 35.171875 68.980469 35.171875 C 69.144531 35.171875 69.292969 35.167969 69.417969 35.144531 C 69.546875 35.125 69.667969 35.097656 69.785156 35.058594 C 69.890625 35.019531 70 34.964844 70.09375 34.902344 C 70.1875 34.84375 70.289062 34.769531 70.382812 34.679688 C 70.429688 34.621094 70.476562 34.605469 70.519531 34.605469 "/>
</g>
<g clip-path="url(#clip8)" clip-rule="nonzero">
<path style=" stroke:none;fill-rule:nonzero;fill:rgb(13.574219%,22.938538%,43.492126%);fill-opacity:1;" d="M 77.3125 32.996094 C 77.3125 32.660156 77.265625 32.355469 77.179688 32.085938 C 77.085938 31.816406 76.957031 31.59375 76.785156 31.40625 C 76.617188 31.222656 76.417969 31.074219 76.171875 30.980469 C 75.929688 30.878906 75.667969 30.832031 75.371094 30.832031 C 75.074219 30.832031 74.8125 30.878906 74.570312 30.980469 C 74.328125 31.082031 74.125 31.222656 73.957031 31.40625 C 73.789062 31.585938 73.652344 31.816406 73.566406 32.085938 C 73.46875 32.355469 73.429688 32.660156 73.429688 32.996094 C 73.429688 33.332031 73.476562 33.636719 73.566406 33.90625 C 73.660156 34.175781 73.789062 34.398438 73.957031 34.585938 C 74.125 34.769531 74.332031 34.917969 74.570312 35.011719 C 74.8125 35.113281 75.074219 35.160156 75.371094 35.160156 C 75.667969 35.160156 75.9375 35.113281 76.171875 35.011719 C 76.417969 34.910156 76.617188 34.769531 76.785156 34.585938 C 76.957031 34.40625 77.085938 34.175781 77.179688 33.90625 C 77.265625 33.636719 77.3125 33.332031 77.3125 32.996094 Z M 78.074219 32.996094 C 78.074219 33.40625 78.007812 33.785156 77.878906 34.128906 C 77.75 34.472656 77.5625 34.769531 77.328125 35.019531 C 77.089844 35.265625 76.800781 35.457031 76.46875 35.597656 C 76.140625 35.734375 75.769531 35.800781 75.363281 35.800781 C 74.960938 35.800781 74.589844 35.734375 74.261719 35.597656 C 73.929688 35.464844 73.640625 35.265625 73.402344 35.019531 C 73.167969 34.769531 72.980469 34.472656 72.851562 34.128906 C 72.722656 33.785156 72.65625 33.40625 72.65625 32.996094 C 72.65625 32.585938 72.722656 32.207031 72.851562 31.863281 C 72.980469 31.519531 73.167969 31.222656 73.402344 30.972656 C 73.640625 30.722656 73.929688 30.527344 74.261719 30.394531 C 74.589844 30.257812 74.960938 30.183594 75.363281 30.183594 C 75.769531 30.183594 76.140625 30.253906 76.46875 30.394531 C 76.800781 30.527344 77.089844 30.722656 77.328125 30.972656 C 77.5625 31.222656 77.75 31.519531 77.878906 31.863281 C 78.007812 32.207031 78.074219 32.585938 78.074219 32.996094 "/>
</g>
<g clip-path="url(#clip9)" clip-rule="nonzero">
<path style=" stroke:none;fill-rule:nonzero;fill:rgb(13.574219%,22.938538%,43.492126%);fill-opacity:1;" d="M 82.960938 33.945312 C 82.988281 34.015625 83.015625 34.082031 83.042969 34.148438 C 83.070312 34.074219 83.097656 34.007812 83.121094 33.945312 C 83.152344 33.878906 83.183594 33.816406 83.21875 33.75 L 85.078125 30.375 C 85.113281 30.3125 85.144531 30.28125 85.179688 30.265625 C 85.214844 30.253906 85.265625 30.246094 85.335938 30.246094 L 85.878906 30.246094 L 85.878906 35.738281 L 85.226562 35.738281 L 85.226562 31.703125 C 85.226562 31.648438 85.226562 31.59375 85.234375 31.527344 C 85.234375 31.464844 85.238281 31.40625 85.246094 31.335938 L 83.367188 34.777344 C 83.304688 34.890625 83.210938 34.949219 83.097656 34.949219 L 82.988281 34.949219 C 82.875 34.949219 82.785156 34.890625 82.71875 34.777344 L 80.789062 31.332031 C 80.796875 31.398438 80.804688 31.464844 80.8125 31.527344 C 80.816406 31.585938 80.816406 31.648438 80.816406 31.703125 L 80.816406 35.738281 L 80.164062 35.738281 L 80.164062 30.246094 L 80.710938 30.246094 C 80.777344 30.246094 80.824219 30.253906 80.863281 30.265625 C 80.898438 30.28125 80.933594 30.3125 80.964844 30.375 L 82.867188 33.757812 C 82.902344 33.8125 82.933594 33.878906 82.960938 33.945312 "/>
</g>
<g clip-path="url(#clip10)" clip-rule="nonzero">
<path style=" stroke:none;fill-rule:nonzero;fill:rgb(13.574219%,22.938538%,43.492126%);fill-opacity:1;" d="M 91.675781 30.246094 L 91.675781 30.851562 L 89.039062 30.851562 L 89.039062 32.679688 L 91.175781 32.679688 L 91.175781 33.257812 L 89.039062 33.257812 L 89.039062 35.132812 L 91.675781 35.132812 L 91.675781 35.738281 L 88.292969 35.738281 L 88.292969 30.246094 L 91.675781 30.246094 "/>
</g>
<g clip-path="url(#clip11)" clip-rule="nonzero">
<path style=" stroke:none;fill-rule:nonzero;fill:rgb(13.574219%,22.938538%,43.492126%);fill-opacity:1;" d="M 99.675781 32.996094 C 99.675781 32.660156 99.632812 32.355469 99.542969 32.09375 C 99.449219 31.828125 99.320312 31.601562 99.152344 31.417969 C 98.984375 31.238281 98.78125 31.09375 98.539062 30.992188 C 98.296875 30.898438 98.03125 30.847656 97.734375 30.847656 L 96.429688 30.847656 L 96.429688 35.132812 L 97.734375 35.132812 C 98.03125 35.132812 98.296875 35.085938 98.539062 34.984375 C 98.78125 34.890625 98.984375 34.75 99.152344 34.566406 C 99.320312 34.382812 99.449219 34.160156 99.542969 33.890625 C 99.636719 33.628906 99.675781 33.332031 99.675781 32.996094 Z M 100.445312 32.996094 C 100.445312 33.40625 100.378906 33.785156 100.25 34.121094 C 100.121094 34.457031 99.933594 34.75 99.699219 34.992188 C 99.460938 35.234375 99.171875 35.414062 98.84375 35.550781 C 98.511719 35.683594 98.140625 35.746094 97.734375 35.746094 L 95.679688 35.746094 L 95.679688 30.246094 L 97.734375 30.246094 C 98.140625 30.246094 98.511719 30.3125 98.84375 30.441406 C 99.171875 30.574219 99.460938 30.757812 99.699219 31 C 99.933594 31.242188 100.121094 31.535156 100.25 31.871094 C 100.378906 32.207031 100.445312 32.585938 100.445312 32.996094 "/>
</g>
<g clip-path="url(#clip12)" clip-rule="nonzero">
<path style=" stroke:none;fill-rule:nonzero;fill:rgb(13.574219%,22.938538%,43.492126%);fill-opacity:1;" d="M 103.410156 35.738281 L 102.671875 35.738281 L 102.671875 30.246094 L 103.410156 30.246094 L 103.410156 35.738281 "/>
</g>
<g clip-path="url(#clip13)" clip-rule="nonzero">
<path style=" stroke:none;fill-rule:nonzero;fill:rgb(13.574219%,22.938538%,43.492126%);fill-opacity:1;" d="M 109.34375 30.246094 L 109.34375 30.851562 L 106.707031 30.851562 L 106.707031 32.773438 L 108.960938 32.773438 L 108.960938 33.378906 L 106.707031 33.378906 L 106.707031 35.738281 L 105.960938 35.738281 L 105.960938 30.246094 L 109.34375 30.246094 "/>
</g>
<g clip-path="url(#clip14)" clip-rule="nonzero">
<path style=" stroke:none;fill-rule:nonzero;fill:rgb(13.574219%,22.938538%,43.492126%);fill-opacity:1;" d="M 114.757812 30.246094 L 114.757812 30.851562 L 112.121094 30.851562 L 112.121094 32.773438 L 114.371094 32.773438 L 114.371094 33.378906 L 112.121094 33.378906 L 112.121094 35.738281 L 111.371094 35.738281 L 111.371094 30.246094 L 114.757812 30.246094 "/>
</g>
<g clip-path="url(#clip15)" clip-rule="nonzero">
<path style=" stroke:none;fill-rule:nonzero;fill:rgb(13.574219%,22.938538%,43.492126%);fill-opacity:1;" d="M 120.167969 30.246094 L 120.167969 30.851562 L 117.53125 30.851562 L 117.53125 32.679688 L 119.671875 32.679688 L 119.671875 33.257812 L 117.53125 33.257812 L 117.53125 35.132812 L 120.167969 35.132812 L 120.167969 35.738281 L 116.785156 35.738281 L 116.785156 30.246094 L 120.167969 30.246094 "/>
</g>
<g clip-path="url(#clip16)" clip-rule="nonzero">
<path style=" stroke:none;fill-rule:nonzero;fill:rgb(13.574219%,22.938538%,43.492126%);fill-opacity:1;" d="M 123.128906 32.910156 L 123.902344 32.910156 C 124.117188 32.910156 124.3125 32.882812 124.476562 32.828125 C 124.636719 32.773438 124.777344 32.699219 124.886719 32.605469 C 124.996094 32.511719 125.082031 32.394531 125.136719 32.261719 C 125.191406 32.125 125.226562 31.976562 125.226562 31.824219 C 125.226562 31.492188 125.117188 31.25 124.898438 31.082031 C 124.683594 30.914062 124.359375 30.832031 123.9375 30.832031 L 123.121094 30.832031 L 123.121094 32.910156 Z M 123.128906 33.449219 L 123.128906 35.738281 L 122.386719 35.738281 L 122.386719 30.246094 L 123.9375 30.246094 C 124.285156 30.246094 124.585938 30.28125 124.839844 30.355469 C 125.097656 30.421875 125.304688 30.527344 125.46875 30.65625 C 125.628906 30.792969 125.757812 30.953125 125.832031 31.136719 C 125.910156 31.324219 125.953125 31.535156 125.953125 31.769531 C 125.953125 31.964844 125.917969 32.148438 125.855469 32.316406 C 125.796875 32.484375 125.710938 32.640625 125.589844 32.765625 C 125.472656 32.902344 125.332031 33.015625 125.164062 33.109375 C 124.996094 33.203125 124.808594 33.277344 124.597656 33.328125 C 124.691406 33.378906 124.773438 33.460938 124.839844 33.5625 L 126.445312 35.746094 L 125.78125 35.746094 C 125.648438 35.746094 125.546875 35.691406 125.488281 35.589844 L 124.058594 33.628906 C 124.019531 33.570312 123.972656 33.523438 123.914062 33.496094 C 123.863281 33.46875 123.789062 33.453125 123.6875 33.453125 L 123.128906 33.453125 L 123.128906 33.449219 "/>
</g>
<g clip-path="url(#clip17)" clip-rule="nonzero">
<path style=" stroke:none;fill-rule:nonzero;fill:rgb(13.574219%,22.938538%,43.492126%);fill-opacity:1;" d="M 131.707031 30.246094 L 131.707031 30.851562 L 129.074219 30.851562 L 129.074219 32.679688 L 131.210938 32.679688 L 131.210938 33.257812 L 129.074219 33.257812 L 129.074219 35.132812 L 131.707031 35.132812 L 131.707031 35.738281 L 128.324219 35.738281 L 128.324219 30.246094 L 131.707031 30.246094 "/>
</g>
<g clip-path="url(#clip18)" clip-rule="nonzero">
<path style=" stroke:none;fill-rule:nonzero;fill:rgb(13.574219%,22.938538%,43.492126%);fill-opacity:1;" d="M 134.386719 30.273438 C 134.417969 30.285156 134.453125 30.320312 134.492188 30.375 L 137.675781 34.511719 C 137.667969 34.445312 137.660156 34.382812 137.660156 34.316406 C 137.660156 34.257812 137.652344 34.195312 137.652344 34.136719 L 137.652344 30.246094 L 138.308594 30.246094 L 138.308594 35.738281 L 137.929688 35.738281 C 137.867188 35.738281 137.820312 35.726562 137.78125 35.707031 C 137.742188 35.683594 137.699219 35.652344 137.667969 35.605469 L 134.484375 31.464844 C 134.492188 31.527344 134.492188 31.59375 134.5 31.65625 C 134.507812 31.714844 134.507812 31.769531 134.507812 31.824219 L 134.507812 35.738281 L 133.851562 35.738281 L 133.851562 30.246094 L 134.234375 30.246094 C 134.304688 30.246094 134.351562 30.253906 134.386719 30.273438 "/>
</g>
<g clip-path="url(#clip19)" clip-rule="nonzero">
<path style=" stroke:none;fill-rule:nonzero;fill:rgb(13.574219%,22.938538%,43.492126%);fill-opacity:1;" d="M 144.597656 34.605469 C 144.636719 34.605469 144.675781 34.621094 144.703125 34.652344 L 144.992188 34.972656 C 144.769531 35.234375 144.496094 35.4375 144.179688 35.578125 C 143.855469 35.726562 143.472656 35.792969 143.019531 35.792969 C 142.621094 35.792969 142.265625 35.726562 141.941406 35.589844 C 141.617188 35.457031 141.339844 35.261719 141.117188 35.019531 C 140.894531 34.777344 140.714844 34.480469 140.59375 34.128906 C 140.464844 33.785156 140.402344 33.40625 140.402344 32.988281 C 140.402344 32.578125 140.472656 32.195312 140.605469 31.851562 C 140.738281 31.507812 140.929688 31.210938 141.171875 30.960938 C 141.414062 30.710938 141.703125 30.523438 142.042969 30.378906 C 142.378906 30.246094 142.757812 30.179688 143.160156 30.179688 C 143.5625 30.179688 143.914062 30.238281 144.203125 30.367188 C 144.496094 30.496094 144.757812 30.664062 144.988281 30.878906 L 144.742188 31.222656 C 144.726562 31.25 144.703125 31.269531 144.683594 31.285156 C 144.664062 31.296875 144.628906 31.3125 144.582031 31.3125 C 144.550781 31.3125 144.515625 31.296875 144.476562 31.277344 C 144.441406 31.25 144.394531 31.222656 144.339844 31.191406 C 144.285156 31.15625 144.230469 31.117188 144.15625 31.074219 C 144.089844 31.035156 144.011719 30.992188 143.914062 30.960938 C 143.820312 30.925781 143.714844 30.894531 143.585938 30.871094 C 143.457031 30.847656 143.316406 30.839844 143.152344 30.839844 C 142.855469 30.839844 142.589844 30.886719 142.34375 30.988281 C 142.101562 31.089844 141.894531 31.230469 141.710938 31.417969 C 141.535156 31.609375 141.394531 31.828125 141.300781 32.097656 C 141.199219 32.367188 141.152344 32.664062 141.152344 33.003906 C 141.152344 33.347656 141.199219 33.648438 141.300781 33.917969 C 141.402344 34.1875 141.535156 34.410156 141.703125 34.601562 C 141.871094 34.789062 142.074219 34.921875 142.3125 35.023438 C 142.546875 35.121094 142.796875 35.171875 143.058594 35.171875 C 143.222656 35.171875 143.367188 35.167969 143.496094 35.144531 C 143.625 35.125 143.746094 35.097656 143.859375 35.058594 C 143.96875 35.019531 144.078125 34.964844 144.171875 34.902344 C 144.265625 34.84375 144.367188 34.769531 144.460938 34.679688 C 144.507812 34.621094 144.554688 34.605469 144.597656 34.605469 "/>
</g>
<g clip-path="url(#clip20)" clip-rule="nonzero">
<path style=" stroke:none;fill-rule:nonzero;fill:rgb(13.574219%,22.938538%,43.492126%);fill-opacity:1;" d="M 150.433594 30.246094 L 150.433594 30.851562 L 147.796875 30.851562 L 147.796875 32.679688 L 149.933594 32.679688 L 149.933594 33.257812 L 147.796875 33.257812 L 147.796875 35.132812 L 150.433594 35.132812 L 150.433594 35.738281 L 147.050781 35.738281 L 147.050781 30.246094 L 150.433594 30.246094 "/>
</g>
<path style=" stroke:none;fill-rule:nonzero;fill:rgb(13.574219%,22.938538%,43.492126%);fill-opacity:1;" d="M 89.445312 25.492188 C 87.613281 25.492188 86.007812 24.820312 84.984375 24.261719 C 83.917969 23.671875 83.121094 23 82.410156 22.082031 C 81.863281 21.382812 81.984375 20.371094 82.683594 19.824219 C 83.386719 19.28125 84.390625 19.402344 84.945312 20.101562 C 85.394531 20.679688 85.859375 21.066406 86.539062 21.441406 C 87.519531 21.980469 88.550781 22.277344 89.445312 22.277344 C 90.511719 22.277344 91.402344 22.128906 92.015625 21.839844 C 92.539062 21.597656 92.910156 21.308594 93.140625 20.964844 C 93.355469 20.640625 93.449219 20.304688 93.449219 19.878906 C 93.449219 19.460938 93.347656 19.246094 93.269531 19.117188 C 93.21875 19.042969 93.011719 18.765625 92.355469 18.417969 C 91.894531 18.171875 91.003906 17.808594 89.378906 17.484375 C 88.050781 17.21875 87.039062 16.933594 86.285156 16.625 C 85.160156 16.15625 84.355469 15.550781 83.84375 14.761719 C 83.34375 14.007812 83.097656 13.152344 83.097656 12.226562 C 83.097656 10.550781 84.011719 9.140625 85.601562 8.359375 C 86.621094 7.859375 87.820312 7.605469 89.167969 7.605469 C 90.242188 7.605469 91.230469 7.738281 92.101562 8.015625 C 93.117188 8.332031 94.0625 8.898438 94.898438 9.703125 C 95.539062 10.316406 95.558594 11.332031 94.945312 11.972656 C 94.332031 12.613281 93.316406 12.632812 92.675781 12.019531 C 92.203125 11.566406 91.691406 11.25 91.152344 11.082031 C 90.59375 10.90625 89.925781 10.820312 89.175781 10.820312 C 88.328125 10.820312 87.605469 10.960938 87.027344 11.246094 C 86.386719 11.5625 86.3125 11.960938 86.3125 12.226562 C 86.3125 12.519531 86.386719 12.773438 86.535156 13.003906 C 86.683594 13.226562 87.019531 13.457031 87.511719 13.65625 C 88.070312 13.886719 88.914062 14.117188 90.019531 14.34375 C 91.621094 14.667969 92.917969 15.085938 93.867188 15.585938 C 94.84375 16.105469 95.566406 16.722656 96.003906 17.425781 C 96.449219 18.140625 96.671875 18.960938 96.671875 19.886719 C 96.671875 20.9375 96.390625 21.902344 95.828125 22.742188 C 95.261719 23.597656 94.460938 24.261719 93.375 24.757812 C 92.308594 25.25 90.996094 25.492188 89.445312 25.492188 "/>
<path style=" stroke:none;fill-rule:nonzero;fill:rgb(13.574219%,22.938538%,43.492126%);fill-opacity:1;" d="M 168.769531 25.492188 C 166.933594 25.492188 165.328125 24.820312 164.304688 24.261719 C 163.238281 23.671875 162.445312 23 161.730469 22.082031 C 161.183594 21.382812 161.304688 20.371094 162.007812 19.824219 C 162.707031 19.28125 163.710938 19.402344 164.265625 20.101562 C 164.71875 20.679688 165.183594 21.066406 165.863281 21.441406 C 166.839844 21.980469 167.871094 22.277344 168.769531 22.277344 C 169.832031 22.277344 170.722656 22.128906 171.335938 21.839844 C 171.859375 21.597656 172.230469 21.308594 172.460938 20.964844 C 172.675781 20.640625 172.769531 20.304688 172.769531 19.878906 C 172.769531 19.460938 172.671875 19.246094 172.589844 19.117188 C 172.542969 19.042969 172.332031 18.765625 171.679688 18.417969 C 171.214844 18.171875 170.324219 17.808594 168.699219 17.484375 C 167.371094 17.21875 166.359375 16.933594 165.605469 16.625 C 164.480469 16.15625 163.679688 15.550781 163.164062 14.761719 C 162.667969 14.007812 162.417969 13.152344 162.417969 12.222656 C 162.417969 10.542969 163.335938 9.136719 164.925781 8.351562 C 165.941406 7.855469 167.144531 7.597656 168.492188 7.597656 C 169.5625 7.597656 170.554688 7.734375 171.421875 8.007812 C 172.441406 8.324219 173.386719 8.890625 174.222656 9.695312 C 174.859375 10.308594 174.882812 11.324219 174.269531 11.964844 C 173.652344 12.605469 172.636719 12.625 171.996094 12.011719 C 171.523438 11.5625 171.011719 11.246094 170.472656 11.078125 C 169.914062 10.902344 169.246094 10.8125 168.496094 10.8125 C 167.648438 10.8125 166.929688 10.953125 166.347656 11.238281 C 165.707031 11.554688 165.640625 11.953125 165.640625 12.222656 C 165.640625 12.511719 165.714844 12.769531 165.863281 12.996094 C 166.011719 13.21875 166.347656 13.449219 166.839844 13.652344 C 167.398438 13.878906 168.242188 14.109375 169.347656 14.339844 C 170.949219 14.660156 172.246094 15.082031 173.195312 15.578125 C 174.175781 16.097656 174.894531 16.71875 175.332031 17.417969 C 175.777344 18.132812 176 18.957031 176 19.878906 C 176 20.929688 175.71875 21.894531 175.15625 22.738281 C 174.589844 23.59375 173.789062 24.253906 172.703125 24.753906 C 171.640625 25.25 170.316406 25.492188 168.769531 25.492188 "/>
<path style=" stroke:none;fill-rule:nonzero;fill:rgb(13.574219%,22.938538%,43.492126%);fill-opacity:1;" d="M 78.667969 25.609375 C 77.777344 25.609375 77.0625 24.886719 77.0625 24.003906 L 77.0625 9.214844 C 77.0625 8.324219 77.785156 7.609375 78.667969 7.609375 C 79.558594 7.609375 80.273438 8.332031 80.273438 9.214844 L 80.273438 23.996094 C 80.277344 24.886719 79.558594 25.609375 78.667969 25.609375 "/>
<path style=" stroke:none;fill-rule:nonzero;fill:rgb(13.574219%,22.938538%,43.492126%);fill-opacity:1;" d="M 34.046875 25.5 C 33.15625 25.5 32.441406 24.78125 32.441406 23.898438 L 32.441406 1.605469 C 32.441406 0.714844 33.164062 0 34.046875 0 C 34.933594 0 35.652344 0.722656 35.652344 1.605469 L 35.652344 23.890625 C 35.652344 24.78125 34.933594 25.5 34.046875 25.5 "/>
<path style=" stroke:none;fill-rule:nonzero;fill:rgb(13.574219%,22.938538%,43.492126%);fill-opacity:1;" d="M 100.097656 25.609375 C 99.207031 25.609375 98.492188 24.886719 98.492188 24.003906 L 98.492188 1.714844 C 98.492188 0.824219 99.214844 0.109375 100.097656 0.109375 C 100.980469 0.109375 101.699219 0.832031 101.699219 1.714844 L 101.699219 23.996094 C 101.699219 24.886719 100.984375 25.609375 100.097656 25.609375 "/>
<path style=" stroke:none;fill-rule:nonzero;fill:rgb(13.574219%,22.938538%,43.492126%);fill-opacity:1;" d="M 151.308594 22.394531 C 148.175781 22.394531 145.632812 19.84375 145.632812 16.71875 C 145.632812 13.589844 148.183594 11.042969 151.308594 11.042969 C 154.4375 11.042969 156.984375 13.589844 156.984375 16.71875 C 156.984375 19.84375 154.4375 22.394531 151.308594 22.394531 Z M 160.199219 1.714844 C 160.199219 0.824219 159.480469 0.109375 158.597656 0.109375 C 157.714844 0.109375 156.992188 0.832031 156.992188 1.714844 L 156.992188 9.875 C 155.449219 8.59375 153.472656 7.820312 151.316406 7.820312 C 146.414062 7.820312 142.425781 11.808594 142.425781 16.710938 C 142.425781 21.609375 146.414062 25.601562 151.316406 25.601562 C 156.21875 25.601562 160.207031 21.609375 160.207031 16.710938 C 160.207031 16.664062 160.207031 16.617188 160.199219 16.570312 C 160.199219 16.542969 160.207031 16.523438 160.207031 16.496094 L 160.207031 1.714844 L 160.199219 1.714844 "/>
<path style=" stroke:none;fill-rule:nonzero;fill:rgb(13.574219%,22.938538%,43.492126%);fill-opacity:1;" d="M 112.308594 22.394531 C 109.175781 22.394531 106.632812 19.84375 106.632812 16.71875 C 106.632812 13.589844 109.183594 11.042969 112.308594 11.042969 C 115.4375 11.042969 117.984375 13.589844 117.984375 16.71875 C 117.984375 19.84375 115.441406 22.394531 112.308594 22.394531 Z M 112.308594 7.820312 C 107.410156 7.820312 103.417969 11.808594 103.417969 16.710938 C 103.417969 21.609375 107.410156 25.601562 112.308594 25.601562 C 114.46875 25.601562 116.449219 24.828125 117.984375 23.546875 L 117.984375 23.992188 C 117.984375 24.878906 118.707031 25.59375 119.589844 25.59375 C 120.472656 25.59375 121.191406 24.875 121.191406 23.992188 L 121.191406 16.710938 C 121.199219 11.808594 117.210938 7.820312 112.308594 7.820312 "/>
<path style=" stroke:none;fill-rule:nonzero;fill:rgb(13.574219%,22.938538%,43.492126%);fill-opacity:1;" d="M 61.242188 14.332031 L 71.570312 14.351562 C 70.667969 12.371094 68.671875 11.035156 66.402344 11.035156 C 64.121094 11.035156 62.148438 12.390625 61.242188 14.332031 Z M 66.402344 25.609375 C 61.5 25.609375 57.511719 21.617188 57.511719 16.71875 C 57.511719 16.40625 57.523438 16.097656 57.554688 15.792969 C 57.554688 15.78125 57.554688 15.761719 57.5625 15.746094 C 58.046875 11.296875 61.832031 7.828125 66.402344 7.828125 C 70.714844 7.828125 74.394531 10.90625 75.15625 15.148438 C 75.195312 15.363281 75.222656 15.585938 75.25 15.800781 C 75.296875 16.253906 75.148438 16.703125 74.847656 17.042969 C 74.542969 17.378906 74.109375 17.574219 73.652344 17.574219 L 60.792969 17.554688 C 61.195312 20.289062 63.5625 22.398438 66.40625 22.398438 C 68.21875 22.398438 69.886719 21.5625 70.964844 20.109375 C 71.496094 19.394531 72.5 19.246094 73.214844 19.777344 C 73.929688 20.308594 74.078125 21.316406 73.542969 22.03125 C 71.867188 24.261719 69.199219 25.609375 66.402344 25.609375 "/>
<path style=" stroke:none;fill-rule:nonzero;fill:rgb(13.574219%,22.938538%,43.492126%);fill-opacity:1;" d="M 46.851562 25.5 C 41.953125 25.5 37.960938 21.511719 37.960938 16.609375 L 37.960938 9.214844 C 37.960938 8.324219 38.683594 7.609375 39.566406 7.609375 C 40.449219 7.609375 41.171875 8.332031 41.171875 9.214844 L 41.171875 16.609375 C 41.171875 19.742188 43.71875 22.285156 46.847656 22.285156 C 49.980469 22.285156 52.523438 19.738281 52.523438 16.609375 L 52.523438 9.214844 C 52.523438 8.324219 53.242188 7.609375 54.125 7.609375 C 55.015625 7.609375 55.730469 8.332031 55.730469 9.214844 L 55.730469 16.609375 C 55.742188 21.511719 51.753906 25.5 46.851562 25.5 "/>
<path style=" stroke:none;fill-rule:nonzero;fill:rgb(13.574219%,22.938538%,43.492126%);fill-opacity:1;" d="M 139.304688 25.5 C 138.414062 25.5 137.699219 24.78125 137.699219 23.898438 L 137.699219 16.496094 C 137.699219 13.359375 135.152344 10.820312 132.023438 10.820312 C 128.890625 10.820312 126.351562 13.367188 126.351562 16.496094 L 126.351562 23.890625 C 126.351562 24.78125 125.628906 25.492188 124.746094 25.492188 C 123.863281 25.492188 123.140625 24.773438 123.140625 23.890625 L 123.140625 16.496094 C 123.140625 11.59375 127.132812 7.605469 132.03125 7.605469 C 136.933594 7.605469 140.921875 11.59375 140.921875 16.496094 L 140.921875 23.890625 C 140.914062 24.78125 140.195312 25.5 139.304688 25.5 "/>
<path style=" stroke:none;fill-rule:nonzero;fill:rgb(13.574219%,22.938538%,43.492126%);fill-opacity:1;" d="M 78.777344 1.371094 C 79.816406 1.371094 80.664062 2.214844 80.664062 3.257812 C 80.664062 4.300781 79.816406 5.144531 78.777344 5.144531 C 77.734375 5.144531 76.886719 4.300781 76.886719 3.257812 C 76.886719 2.214844 77.734375 1.371094 78.777344 1.371094 "/>
<path style=" stroke:none;fill-rule:nonzero;fill:rgb(49.388123%,63.981628%,86.053467%);fill-opacity:1;" d="M 3.578125 12.855469 C 3.574219 12.914062 3.574219 12.96875 3.574219 13.03125 C 3.574219 14.445312 4.496094 15.644531 5.769531 16.070312 L 15.617188 16.070312 L 15.617188 12.855469 L 3.578125 12.855469 "/>
<path style=" stroke:none;fill-rule:nonzero;fill:rgb(13.574219%,22.938538%,43.492126%);fill-opacity:1;" d="M 21.402344 7.710938 L 15.726562 7.710938 L 15.726562 1.605469 C 15.726562 0.714844 15.003906 0 14.121094 0 C 13.230469 0 12.515625 0.722656 12.515625 1.605469 L 12.515625 7.710938 L 0.0078125 7.710938 C 0 7.773438 0 7.828125 0 7.886719 C 0 9.304688 0.917969 10.503906 2.191406 10.925781 L 21.40625 10.925781 C 24.542969 10.925781 27.082031 13.476562 27.082031 16.601562 C 27.082031 19.730469 24.535156 22.277344 21.40625 22.277344 C 19.183594 22.277344 17.148438 20.964844 16.230469 18.933594 L 15.804688 17.992188 L 7.042969 17.992188 C 7.039062 18.046875 7.039062 18.105469 7.039062 18.160156 C 7.039062 19.582031 7.960938 20.78125 9.242188 21.199219 L 13.796875 21.199219 C 15.394531 23.835938 18.28125 25.488281 21.40625 25.488281 C 26.308594 25.488281 30.296875 21.496094 30.296875 16.597656 C 30.296875 11.695312 26.308594 7.710938 21.402344 7.710938 "/>
</g>
</svg>
