<svg xmlns="http://www.w3.org/2000/svg" width="176pt" height="36.187" viewBox="0 0 176 27.14"><defs><clipPath id="a"><path d="M113 0h40v27.14h-40Zm0 0"/></clipPath><clipPath id="b"><path d="M32 0h39v27.14H32Zm0 0"/></clipPath><clipPath id="c"><path d="M144 0h32v27.14h-32Zm0 0"/></clipPath><clipPath id="d"><path d="M0 0h29v27.14H0Zm0 0"/></clipPath><clipPath id="e"><path d="M79 0h31v27.14H79Zm0 0"/></clipPath><clipPath id="f"><path d="M66 0h22v27.14H66Zm0 0"/></clipPath><clipPath id="g"><path d="M102 0h19v27.14h-19Zm0 0"/></clipPath><clipPath id="h"><path d="M21 0h19v27.14H21Zm0 0"/></clipPath></defs><g clip-path="url(#a)"><path d="M123.836 8.3c.102.337.168.583.25.825.465 1.36.922 2.727 1.406 4.078.664 1.852.156 1.508 2.188 1.535 1.41.02 2.824.043 4.234-.023 2.059-.094 3.117-1.88 2.227-3.742-.754-1.578-2.078-2.532-3.79-2.641-2.12-.133-4.257-.031-6.515-.031M113.414-.003h17.117c.406.113.809.23 1.215.34 5.277 1.441 9.313 4.437 11.637 9.477.945 2.054 1.312 4.242.773 6.48-.219.906-.644 1.766-1 2.703 1.621 1.457 3.274 2.934 4.914 4.422 1.364 1.234 2.715 2.48 4.07 3.723h-11.93c-1.382-1.246-2.757-2.5-4.151-3.73-.149-.13-.422-.165-.633-.161-1.121.012-2.238.063-3.36.078-.968.016-1.941.004-3.062.004.476 1.344.918 2.578 1.351 3.809h-7.605c-2.48-7.172-4.969-14.34-7.441-21.512-.649-1.871-1.262-3.754-1.895-5.633" style="stroke:none;fill-rule:nonzero;fill:#36235e;fill-opacity:1"/></g><g clip-path="url(#b)"><path d="M43.223 8.344c-.008.12-.04.21-.012.285.64 1.906 1.293 3.809 1.937 5.715.114.336.344.418.664.414 1.555-.008 3.11.039 4.66-.02 2.325-.09 3.387-2.086 2.192-4.086-.805-1.347-2.035-2.183-3.578-2.277-1.941-.125-3.898-.031-5.863-.031m6.394 18.797h-7.605C38.934 18.273 35.855 9.406 32.789.535c-.055-.156.035-.36.059-.539h15.906c.402.113.8.242 1.207.336 5.477 1.313 9.598 4.356 11.992 9.523.926 1.997 1.297 4.133.785 6.317-.222.941-.64 1.832-.992 2.805 2.961 2.695 5.965 5.43 8.965 8.164H58.953c-1.363-1.23-2.715-2.47-4.101-3.676-.207-.18-.559-.27-.844-.27-1.606.008-3.211.059-4.817.09-.277.004-.554 0-.964 0 .5 1.383.945 2.621 1.39 3.856" style="stroke:none;fill-rule:nonzero;fill:#36235e;fill-opacity:1"/></g><g clip-path="url(#c)"><path d="M161.906 19.277c.727-.156 1.48-.234 2.176-.48 2.082-.742 3.168-2.692 2.777-4.867a6.2 6.2 0 0 0-1.964-3.563c-2.102-1.926-4.504-2.984-7.415-2.414-2.554.496-4.003 2.73-3.457 5.266.72 3.336 4.188 5.965 7.883 6.058M176 15.04v3.285c-.066.153-.16.297-.203.457-1.227 4.528-4.277 7.055-8.766 8.024-.523.113-1.05.222-1.578.336h-3.285c-.238-.07-.477-.172-.723-.207-3.316-.477-6.316-1.747-9.027-3.696-3.395-2.437-5.965-5.492-7.094-9.605-.535-1.945-.719-3.926-.148-5.887 1.137-3.902 3.808-6.262 7.644-7.398.356-.102.7-.235 1.051-.352h6.05c.126.059.247.145.38.168 3.586.691 6.695 2.352 9.492 4.648 3.144 2.583 5.285 5.793 6.039 9.848.023.133.11.254.168.38" style="stroke:none;fill-rule:nonzero;fill:#f47216;fill-opacity:1"/></g><g clip-path="url(#d)"><path d="M28.527 27.14h-8.644c-1.961-5.359-3.918-10.722-5.934-16.23-1.914 5.496-3.781 10.863-5.648 16.23H0v-.347c.121-.246.27-.488.36-.75Q3.394 17.3 6.413 8.551c.98-2.852 1.95-5.703 2.922-8.555h9.855C21.5 6.68 23.813 13.36 26.117 20.043c.813 2.363 1.606 4.73 2.41 7.098" style="stroke:none;fill-rule:nonzero;fill:#36235e;fill-opacity:1"/></g><g clip-path="url(#e)"><path d="M109.266 27.14h-8.817c-.035-.14-.058-.28-.105-.413q-2.467-7.09-4.938-14.18c-.07-.2-.18-.387-.34-.723-.16.41-.261.668-.355.93-1.203 3.203-2.418 6.402-3.598 9.613-.722 1.965-2.058 3.363-3.86 4.36-.222.12-.425.273-.636.414h-7.262c.207-.239.415-.473.622-.711 2.125-2.41 3.457-5.239 4.39-8.282l2.414-6.835L90.766-.005h9.164q2.374 6.89 4.742 13.777z" style="stroke:none;fill-rule:nonzero;fill:#36235e;fill-opacity:1"/></g><g clip-path="url(#f)"><path d="M84.367 18.148c-.933 3.043-2.265 5.872-4.39 8.282-.207.238-.415.472-.622.71h-4.84c-.265-.167-.523-.343-.792-.507-4.157-2.5-6.797-6.012-7.395-10.938-.851-7 3.664-13.656 10.504-15.418.27-.07.531-.187.797-.28h5.703c.188.066.375.12.559.19.984.391 1.992.731 2.945 1.192.742.36.723.437.453 1.223q-1.121 3.262-2.254 6.52c-.082.233-.203.456-.351.784-1.422-1.289-3.012-1.93-4.86-1.758-1.894.176-3.363 1.106-4.433 2.657-1.653 2.394-1.164 6.008 1.05 7.808 2.082 1.692 5.54 2.196 7.926-.465" style="stroke:none;fill-rule:nonzero;fill:#f47216;fill-opacity:1"/></g><g clip-path="url(#g)"><path d="M102.176-.004h8.992c.09.274.176.547.27.82q4.53 13.16 9.066 26.325h-8.992q-3.154-9.127-6.301-18.254c-1.02-2.961-2.023-5.926-3.035-8.89" style="stroke:none;fill-rule:nonzero;fill:#36235e;fill-opacity:1"/></g><g clip-path="url(#h)"><path d="M21.438-.004h8.816c.176.356.387.7.516 1.07q2.395 6.877 4.77 13.766c1.413 4.102 2.815 8.203 4.226 12.309h-8.993a8046 8046 0 0 0-3.554-10.352c-1.926-5.598-3.856-11.195-5.782-16.793" style="stroke:none;fill-rule:nonzero;fill:#36235e;fill-opacity:1"/></g></svg>