<?xml version="1.0" encoding="UTF-8"?>
<svg xmlns="http://www.w3.org/2000/svg" xmlns:xlink="http://www.w3.org/1999/xlink" width="176pt" height="27.14pt" viewBox="0 0 176 27.14" version="1.1">
<defs>
<clipPath id="clip1">
  <path d="M 113 0 L 153 0 L 153 27.140625 L 113 27.140625 Z M 113 0 "/>
</clipPath>
<clipPath id="clip2">
  <path d="M 32 0 L 71 0 L 71 27.140625 L 32 27.140625 Z M 32 0 "/>
</clipPath>
<clipPath id="clip3">
  <path d="M 144 0 L 176 0 L 176 27.140625 L 144 27.140625 Z M 144 0 "/>
</clipPath>
<clipPath id="clip4">
  <path d="M 0 0 L 29 0 L 29 27.140625 L 0 27.140625 Z M 0 0 "/>
</clipPath>
<clipPath id="clip5">
  <path d="M 79 0 L 110 0 L 110 27.140625 L 79 27.140625 Z M 79 0 "/>
</clipPath>
<clipPath id="clip6">
  <path d="M 66 0 L 88 0 L 88 27.140625 L 66 27.140625 Z M 66 0 "/>
</clipPath>
<clipPath id="clip7">
  <path d="M 102 0 L 121 0 L 121 27.140625 L 102 27.140625 Z M 102 0 "/>
</clipPath>
<clipPath id="clip8">
  <path d="M 21 0 L 40 0 L 40 27.140625 L 21 27.140625 Z M 21 0 "/>
</clipPath>
</defs>
<g id="surface1">
<g clip-path="url(#clip1)" clip-rule="nonzero">
<path style=" stroke:none;fill-rule:nonzero;fill:rgb(21.046448%,13.632202%,36.854553%);fill-opacity:1;" d="M 123.835938 8.300781 C 123.9375 8.636719 124.003906 8.882812 124.085938 9.125 C 124.550781 10.484375 125.007812 11.851562 125.492188 13.203125 C 126.15625 15.054688 125.648438 14.710938 127.679688 14.738281 C 129.089844 14.757812 130.503906 14.78125 131.914062 14.714844 C 133.972656 14.621094 135.03125 12.835938 134.140625 10.972656 C 133.386719 9.394531 132.0625 8.441406 130.351562 8.332031 C 128.230469 8.199219 126.09375 8.300781 123.835938 8.300781 Z M 113.414062 -0.00390625 C 119.121094 -0.00390625 124.824219 -0.00390625 130.53125 -0.00390625 C 130.9375 0.109375 131.339844 0.226562 131.746094 0.335938 C 137.023438 1.777344 141.058594 4.773438 143.382812 9.8125 C 144.328125 11.867188 144.695312 14.054688 144.15625 16.292969 C 143.9375 17.199219 143.511719 18.058594 143.15625 18.996094 C 144.777344 20.453125 146.429688 21.929688 148.070312 23.417969 C 149.433594 24.652344 150.785156 25.898438 152.140625 27.140625 C 148.164062 27.140625 144.1875 27.140625 140.210938 27.140625 C 138.828125 25.894531 137.453125 24.640625 136.058594 23.410156 C 135.910156 23.28125 135.636719 23.246094 135.425781 23.25 C 134.304688 23.261719 133.1875 23.3125 132.066406 23.328125 C 131.097656 23.34375 130.125 23.332031 129.003906 23.332031 C 129.480469 24.675781 129.921875 25.910156 130.355469 27.140625 C 127.820312 27.140625 125.285156 27.140625 122.75 27.140625 C 120.269531 19.96875 117.78125 12.800781 115.308594 5.628906 C 114.660156 3.757812 114.046875 1.875 113.414062 -0.00390625 "/>
</g>
<g clip-path="url(#clip2)" clip-rule="nonzero">
<path style=" stroke:none;fill-rule:nonzero;fill:rgb(21.046448%,13.632202%,36.854553%);fill-opacity:1;" d="M 43.222656 8.34375 C 43.214844 8.464844 43.183594 8.554688 43.210938 8.628906 C 43.851562 10.535156 44.503906 12.4375 45.148438 14.34375 C 45.261719 14.679688 45.492188 14.761719 45.8125 14.757812 C 47.367188 14.75 48.921875 14.796875 50.472656 14.738281 C 52.796875 14.648438 53.859375 12.652344 52.664062 10.652344 C 51.859375 9.304688 50.628906 8.46875 49.085938 8.375 C 47.144531 8.25 45.1875 8.34375 43.222656 8.34375 Z M 49.617188 27.140625 C 47.082031 27.140625 44.546875 27.140625 42.011719 27.140625 C 38.933594 18.273438 35.855469 9.40625 32.789062 0.535156 C 32.734375 0.378906 32.824219 0.175781 32.847656 -0.00390625 C 38.152344 -0.00390625 43.453125 -0.00390625 48.753906 -0.00390625 C 49.15625 0.109375 49.554688 0.238281 49.960938 0.332031 C 55.4375 1.644531 59.558594 4.6875 61.953125 9.855469 C 62.878906 11.851562 63.25 13.988281 62.738281 16.171875 C 62.515625 17.113281 62.097656 18.003906 61.746094 18.976562 C 64.707031 21.671875 67.710938 24.40625 70.710938 27.140625 C 66.792969 27.140625 62.875 27.140625 58.953125 27.140625 C 57.589844 25.910156 56.238281 24.671875 54.851562 23.464844 C 54.644531 23.285156 54.292969 23.195312 54.007812 23.195312 C 52.402344 23.203125 50.796875 23.253906 49.191406 23.285156 C 48.914062 23.289062 48.636719 23.285156 48.226562 23.285156 C 48.726562 24.667969 49.171875 25.90625 49.617188 27.140625 "/>
</g>
<g clip-path="url(#clip3)" clip-rule="nonzero">
<path style=" stroke:none;fill-rule:nonzero;fill:rgb(95.710754%,44.577026%,8.477783%);fill-opacity:1;" d="M 161.90625 19.277344 C 162.632812 19.121094 163.386719 19.042969 164.082031 18.796875 C 166.164062 18.054688 167.25 16.105469 166.859375 13.929688 C 166.605469 12.519531 165.945312 11.328125 164.894531 10.367188 C 162.792969 8.441406 160.390625 7.382812 157.480469 7.953125 C 154.925781 8.449219 153.476562 10.683594 154.023438 13.21875 C 154.742188 16.554688 158.210938 19.183594 161.90625 19.277344 Z M 176 15.039062 C 176 16.132812 176 17.226562 176 18.324219 C 175.933594 18.476562 175.839844 18.621094 175.796875 18.78125 C 174.570312 23.308594 171.519531 25.835938 167.03125 26.804688 C 166.507812 26.917969 165.980469 27.027344 165.453125 27.140625 C 164.359375 27.140625 163.265625 27.140625 162.167969 27.140625 C 161.929688 27.070312 161.691406 26.96875 161.445312 26.933594 C 158.128906 26.457031 155.128906 25.1875 152.417969 23.238281 C 149.023438 20.800781 146.453125 17.746094 145.324219 13.632812 C 144.789062 11.6875 144.605469 9.707031 145.175781 7.746094 C 146.3125 3.84375 148.984375 1.484375 152.820312 0.347656 C 153.175781 0.246094 153.519531 0.113281 153.871094 -0.00390625 C 155.886719 -0.00390625 157.902344 -0.00390625 159.921875 -0.00390625 C 160.046875 0.0546875 160.167969 0.140625 160.300781 0.164062 C 163.886719 0.855469 166.996094 2.515625 169.792969 4.8125 C 172.9375 7.394531 175.078125 10.605469 175.832031 14.660156 C 175.855469 14.792969 175.941406 14.914062 176 15.039062 "/>
</g>
<g clip-path="url(#clip4)" clip-rule="nonzero">
<path style=" stroke:none;fill-rule:nonzero;fill:rgb(21.046448%,13.632202%,36.854553%);fill-opacity:1;" d="M 28.527344 27.140625 C 25.644531 27.140625 22.765625 27.140625 19.882812 27.140625 C 17.921875 21.78125 15.964844 16.417969 13.949219 10.910156 C 12.035156 16.40625 10.167969 21.773438 8.300781 27.140625 C 5.53125 27.140625 2.765625 27.140625 0 27.140625 C 0 27.023438 0 26.910156 0 26.792969 C 0.121094 26.546875 0.269531 26.304688 0.359375 26.042969 C 2.382812 20.214844 4.402344 14.382812 6.414062 8.550781 C 7.394531 5.699219 8.363281 2.847656 9.335938 -0.00390625 C 12.621094 -0.00390625 15.90625 -0.00390625 19.191406 -0.00390625 C 21.5 6.679688 23.8125 13.359375 26.117188 20.042969 C 26.929688 22.40625 27.722656 24.773438 28.527344 27.140625 "/>
</g>
<g clip-path="url(#clip5)" clip-rule="nonzero">
<path style=" stroke:none;fill-rule:nonzero;fill:rgb(21.046448%,13.632202%,36.854553%);fill-opacity:1;" d="M 109.265625 27.140625 C 106.324219 27.140625 103.386719 27.140625 100.449219 27.140625 C 100.414062 27 100.390625 26.859375 100.34375 26.726562 C 98.699219 22 97.054688 17.273438 95.40625 12.546875 C 95.335938 12.347656 95.226562 12.160156 95.066406 11.824219 C 94.90625 12.234375 94.804688 12.492188 94.710938 12.753906 C 93.507812 15.957031 92.292969 19.15625 91.113281 22.367188 C 90.390625 24.332031 89.054688 25.730469 87.253906 26.726562 C 87.03125 26.847656 86.828125 27 86.617188 27.140625 C 84.195312 27.140625 81.777344 27.140625 79.355469 27.140625 C 79.5625 26.902344 79.769531 26.667969 79.976562 26.429688 C 82.101562 24.019531 83.433594 21.191406 84.367188 18.148438 C 85.171875 15.871094 85.976562 13.589844 86.78125 11.3125 C 88.109375 7.539062 89.4375 3.769531 90.765625 -0.00390625 C 93.820312 -0.00390625 96.875 -0.00390625 99.929688 -0.00390625 C 101.511719 4.589844 103.09375 9.179688 104.671875 13.773438 C 106.203125 18.226562 107.734375 22.683594 109.265625 27.140625 "/>
</g>
<g clip-path="url(#clip6)" clip-rule="nonzero">
<path style=" stroke:none;fill-rule:nonzero;fill:rgb(95.710754%,44.577026%,8.477783%);fill-opacity:1;" d="M 84.367188 18.148438 C 83.433594 21.191406 82.101562 24.019531 79.976562 26.429688 C 79.769531 26.667969 79.5625 26.902344 79.355469 27.140625 C 77.742188 27.140625 76.128906 27.140625 74.515625 27.140625 C 74.25 26.972656 73.992188 26.796875 73.722656 26.632812 C 69.566406 24.132812 66.925781 20.621094 66.328125 15.695312 C 65.476562 8.695312 69.992188 2.039062 76.832031 0.277344 C 77.101562 0.207031 77.363281 0.0898438 77.628906 -0.00390625 C 79.527344 -0.00390625 81.429688 -0.00390625 83.332031 -0.00390625 C 83.519531 0.0625 83.707031 0.117188 83.890625 0.1875 C 84.875 0.578125 85.882812 0.917969 86.835938 1.378906 C 87.578125 1.738281 87.558594 1.816406 87.289062 2.601562 C 86.542969 4.777344 85.789062 6.949219 85.035156 9.121094 C 84.953125 9.355469 84.832031 9.578125 84.683594 9.90625 C 83.261719 8.617188 81.671875 7.976562 79.824219 8.148438 C 77.929688 8.324219 76.460938 9.253906 75.390625 10.804688 C 73.738281 13.199219 74.226562 16.8125 76.441406 18.613281 C 78.523438 20.304688 81.980469 20.808594 84.367188 18.148438 "/>
</g>
<g clip-path="url(#clip7)" clip-rule="nonzero">
<path style=" stroke:none;fill-rule:nonzero;fill:rgb(21.046448%,13.632202%,36.854553%);fill-opacity:1;" d="M 102.175781 -0.00390625 C 105.175781 -0.00390625 108.171875 -0.00390625 111.167969 -0.00390625 C 111.257812 0.269531 111.34375 0.542969 111.4375 0.816406 C 114.457031 9.589844 117.480469 18.363281 120.503906 27.140625 C 117.507812 27.140625 114.511719 27.140625 111.511719 27.140625 C 109.410156 21.054688 107.308594 14.972656 105.210938 8.886719 C 104.191406 5.925781 103.1875 2.960938 102.175781 -0.00390625 "/>
</g>
<g clip-path="url(#clip8)" clip-rule="nonzero">
<path style=" stroke:none;fill-rule:nonzero;fill:rgb(21.046448%,13.632202%,36.854553%);fill-opacity:1;" d="M 21.4375 -0.00390625 C 24.378906 -0.00390625 27.316406 -0.00390625 30.253906 -0.00390625 C 30.429688 0.351562 30.640625 0.695312 30.769531 1.066406 C 32.367188 5.652344 33.957031 10.238281 35.539062 14.832031 C 36.953125 18.933594 38.355469 23.035156 39.765625 27.140625 C 36.769531 27.140625 33.769531 27.140625 30.773438 27.140625 C 29.589844 23.6875 28.40625 20.238281 27.21875 16.789062 C 25.292969 11.191406 23.363281 5.59375 21.4375 -0.00390625 "/>
</g>
</g>
</svg>
