<?xml version="1.0" encoding="UTF-8"?>
<svg xmlns="http://www.w3.org/2000/svg" xmlns:xlink="http://www.w3.org/1999/xlink" width="160.85pt" height="59pt" viewBox="0 0 160.85 59" version="1.1">
<defs>
<clipPath id="clip1">
  <path d="M 118 0 L 160.851562 0 L 160.851562 59 L 118 59 Z M 118 0 "/>
</clipPath>
</defs>
<g id="surface1">
<path style=" stroke:none;fill-rule:nonzero;fill:rgb(97.570801%,66.122437%,11.219788%);fill-opacity:1;" d="M 0 55.550781 L 111.351562 55.550781 L 109.144531 59 L 0 59 L 0 55.550781 "/>
<path style=" stroke:none;fill-rule:nonzero;fill:rgb(97.570801%,66.122437%,11.219788%);fill-opacity:1;" d="M 131.636719 53.992188 L 127.539062 53.992188 L 135.804688 40.945312 C 135.804688 40.945312 137.042969 38.242188 135.425781 35.386719 L 123.902344 16.300781 C 123.902344 16.300781 122.894531 14.53125 123.902344 12.835938 L 127.3125 7.730469 L 140.835938 29.824219 C 140.835938 29.824219 144.320312 34.453125 140.527344 40.183594 L 131.636719 53.992188 "/>
<g clip-path="url(#clip1)" clip-rule="nonzero">
<path style=" stroke:none;fill-rule:nonzero;fill:rgb(97.570801%,66.122437%,11.219788%);fill-opacity:1;" d="M 141.519531 49.992188 L 146.546875 42.335938 C 146.546875 42.335938 148.015625 39.175781 151.804688 39.175781 L 157.136719 39.175781 L 160.851562 45.039062 C 160.851562 45.039062 157.914062 44.734375 156.601562 46.832031 L 151.117188 55.09375 C 151.117188 55.09375 149.328125 58.960938 144.546875 58.960938 L 118.722656 58.960938 L 128.550781 43.878906 C 128.550781 43.878906 129.941406 42.105469 127.996094 39.175781 L 119.257812 25.121094 C 119.257812 25.121094 117.105469 23.042969 119.332031 19.484375 L 121.886719 15.617188 L 134.035156 35.308594 C 134.035156 35.308594 136.1875 38.011719 134.035156 41.25 L 124.910156 55.476562 L 144.148438 55.476562 C 144.148438 55.476562 146.320312 55.875 148.183594 53.097656 L 152.964844 45.746094 C 152.964844 45.746094 154.050781 43.269531 156.449219 42.261719 L 152.585938 42.261719 C 152.585938 42.261719 150.566406 42.335938 149.023438 44.734375 L 144.777344 51.304688 C 144.777344 51.304688 143.234375 54.085938 139.824219 54.085938 L 133.101562 54.085938 L 141.214844 41.496094 C 141.214844 41.496094 145.632812 35.691406 142.527344 30.355469 L 129.082031 8.113281 C 129.082031 8.113281 128.074219 6.191406 129.234375 4.398438 L 132.167969 0 L 147.480469 24.664062 C 147.480469 24.664062 149.726562 28.355469 149.726562 31.214844 C 149.726562 34.070312 147.9375 37.308594 146.945312 38.945312 L 140.203125 49.457031 C 140.203125 49.457031 139.441406 50.46875 139.976562 50.847656 C 140.527344 51.230469 141.0625 50.542969 141.519531 49.992188 "/>
</g>
<path style=" stroke:none;fill-rule:nonzero;fill:rgb(15.664673%,27.082825%,54.109192%);fill-opacity:1;" d="M 56.066406 39.289062 L 58.449219 39.289062 L 58.449219 48.714844 L 64.257812 48.714844 L 64.257812 50.734375 L 56.066406 50.734375 L 56.066406 39.289062 "/>
<path style=" stroke:none;fill-rule:nonzero;fill:rgb(15.664673%,27.082825%,54.109192%);fill-opacity:1;" d="M 66.085938 50.734375 L 68.445312 50.734375 L 68.445312 39.289062 L 66.085938 39.289062 L 66.085938 50.734375 "/>
<path style=" stroke:none;fill-rule:nonzero;fill:rgb(15.664673%,27.082825%,54.109192%);fill-opacity:1;" d="M 37.097656 50.734375 L 39.441406 50.734375 L 39.441406 39.289062 L 37.097656 39.289062 L 37.097656 50.734375 "/>
<path style=" stroke:none;fill-rule:nonzero;fill:rgb(15.664673%,27.082825%,54.109192%);fill-opacity:1;" d="M 85.339844 39.289062 L 94.308594 39.289062 L 94.308594 41.175781 L 87.71875 41.175781 L 87.71875 43.972656 L 93.316406 43.972656 L 93.316406 46.050781 L 87.71875 46.050781 L 87.71875 48.832031 L 94.308594 48.832031 L 94.308594 50.734375 L 85.339844 50.734375 L 85.339844 39.289062 "/>
<path style=" stroke:none;fill-rule:nonzero;fill:rgb(15.664673%,27.082825%,54.109192%);fill-opacity:1;" d="M 97.964844 23.902344 L 106.933594 23.902344 L 106.933594 25.785156 L 100.347656 25.785156 L 100.347656 28.566406 L 105.964844 28.566406 L 105.964844 30.644531 L 100.347656 30.644531 L 100.347656 33.421875 L 106.933594 33.421875 L 106.933594 35.308594 L 97.964844 35.308594 L 97.964844 23.902344 "/>
<path style=" stroke:none;fill-rule:nonzero;fill:rgb(15.664673%,27.082825%,54.109192%);fill-opacity:1;" d="M 43.078125 50.734375 L 43.078125 39.289062 L 49.878906 39.289062 C 49.878906 39.289062 53.152344 39.347656 53.152344 42.621094 C 53.152344 42.621094 53.457031 45.34375 50.675781 46.449219 L 54.125 50.734375 L 51.191406 50.734375 L 46.429688 44.792969 L 48.90625 44.792969 C 48.90625 44.792969 50.675781 44.753906 50.675781 42.964844 C 50.675781 41.269531 49.25 41.136719 48.8125 41.136719 L 45.460938 41.136719 L 45.460938 50.734375 L 43.078125 50.734375 "/>
<path style=" stroke:none;fill-rule:nonzero;fill:rgb(15.664673%,27.082825%,54.109192%);fill-opacity:1;" d="M 84.917969 35.308594 L 84.917969 23.902344 L 91.71875 23.902344 C 91.71875 23.902344 94.992188 23.957031 94.992188 27.234375 C 94.992188 27.234375 95.28125 29.9375 92.519531 31.042969 L 95.964844 35.308594 L 93.03125 35.308594 L 88.269531 29.40625 L 90.746094 29.40625 C 90.746094 29.40625 92.519531 29.367188 92.519531 27.578125 C 92.519531 25.863281 91.089844 25.746094 90.652344 25.746094 L 87.300781 25.746094 L 87.300781 35.308594 L 84.917969 35.308594 "/>
<path style=" stroke:none;fill-rule:nonzero;fill:rgb(15.664673%,27.082825%,54.109192%);fill-opacity:1;" d="M 37.269531 33.328125 L 40.488281 33.328125 L 40.488281 28.089844 L 42.773438 28.089844 L 42.773438 35.308594 L 36.773438 35.308594 C 35.878906 35.308594 31.554688 34.300781 31.519531 29.746094 C 31.480469 25.234375 35.421875 23.902344 36.945312 23.902344 L 42.832031 23.902344 L 42.832031 25.917969 L 37.519531 25.917969 C 37.519531 25.917969 33.957031 25.917969 33.957031 29.671875 C 33.957031 32.585938 36.90625 33.328125 37.269531 33.328125 "/>
<path style=" stroke:none;fill-rule:nonzero;fill:rgb(15.664673%,27.082825%,54.109192%);fill-opacity:1;" d="M 71.550781 39.289062 L 73.949219 39.289062 L 73.949219 41.058594 L 75.453125 39.289062 L 78.292969 39.289062 C 78.292969 39.289062 82.175781 39.078125 82.175781 43.230469 L 82.175781 50.734375 L 79.757812 50.734375 L 79.757812 42.867188 C 79.757812 42.867188 79.683594 41.308594 78.042969 41.308594 L 73.949219 41.308594 L 73.949219 50.734375 L 71.550781 50.734375 L 71.550781 39.289062 "/>
<path style=" stroke:none;fill-rule:nonzero;fill:rgb(15.664673%,27.082825%,54.109192%);fill-opacity:1;" d="M 18.722656 23.902344 L 21.101562 23.902344 L 21.101562 25.652344 L 22.605469 23.902344 L 25.445312 23.902344 C 25.445312 23.902344 29.347656 23.691406 29.347656 27.84375 L 29.347656 35.308594 L 26.929688 35.308594 L 26.929688 27.480469 C 26.929688 27.480469 26.832031 25.917969 25.195312 25.917969 L 21.101562 25.917969 L 21.101562 35.308594 L 18.722656 35.308594 L 18.722656 23.902344 "/>
<path style=" stroke:none;fill-rule:nonzero;fill:rgb(15.664673%,27.082825%,54.109192%);fill-opacity:1;" d="M 13.085938 35.308594 L 15.425781 35.308594 L 15.425781 23.902344 L 13.085938 23.902344 L 13.085938 35.308594 "/>
<path style=" stroke:none;fill-rule:nonzero;fill:rgb(15.664673%,27.082825%,54.109192%);fill-opacity:1;" d="M 96.917969 50.714844 L 96.917969 48.773438 L 103.546875 48.773438 C 103.546875 48.773438 104.859375 49.019531 104.859375 47.421875 C 104.859375 45.820312 103.867188 45.992188 103.507812 45.992188 L 99.679688 45.992188 C 99.679688 45.992188 96.726562 46.203125 96.726562 42.734375 C 96.726562 39.289062 99.640625 39.289062 99.640625 39.289062 L 106.914062 39.289062 L 106.914062 41.308594 L 100.535156 41.308594 C 100.535156 41.308594 99.144531 41.308594 99.144531 42.621094 C 99.144531 43.9375 100.078125 44.183594 100.953125 44.183594 L 104.363281 44.183594 C 104.363281 44.183594 107.238281 43.878906 107.238281 47.304688 C 107.238281 50.734375 104.289062 50.714844 104.289062 50.714844 L 96.917969 50.714844 "/>
<path style=" stroke:none;fill-rule:nonzero;fill:rgb(15.664673%,27.082825%,54.109192%);fill-opacity:1;" d="M 0.246094 35.308594 L 0.246094 33.367188 L 6.875 33.367188 C 6.875 33.367188 8.1875 33.613281 8.1875 32.015625 C 8.1875 30.414062 7.199219 30.585938 6.835938 30.585938 L 3.007812 30.585938 C 3.007812 30.585938 0.0585938 30.792969 0.0585938 27.347656 C 0.0585938 23.882812 2.972656 23.902344 2.972656 23.902344 L 10.246094 23.902344 L 10.246094 25.917969 L 3.867188 25.917969 C 3.867188 25.917969 2.476562 25.917969 2.476562 27.234375 C 2.476562 28.546875 3.429688 28.796875 4.285156 28.796875 L 7.695312 28.796875 C 7.695312 28.796875 10.570312 28.492188 10.570312 31.898438 C 10.570312 35.328125 7.617188 35.308594 7.617188 35.308594 L 0.246094 35.308594 "/>
<path style=" stroke:none;fill-rule:nonzero;fill:rgb(15.664673%,27.082825%,54.109192%);fill-opacity:1;" d="M 76.777344 33.375 C 74.625 33.375 72.882812 31.617188 72.882812 29.4375 C 72.882812 27.289062 74.628906 25.5 76.777344 25.5 C 78.949219 25.5 80.722656 27.289062 80.722656 29.4375 C 80.722656 31.617188 78.949219 33.375 76.777344 33.375 M 76.777344 23.195312 C 73.347656 23.195312 70.539062 25.992188 70.539062 29.4375 C 70.539062 32.898438 73.347656 35.671875 76.777344 35.671875 C 80.25 35.671875 83.015625 32.890625 83.015625 29.4375 C 83.015625 25.992188 80.25 23.195312 76.777344 23.195312 "/>
<path style=" stroke:none;fill-rule:nonzero;fill:rgb(15.664673%,27.082825%,54.109192%);fill-opacity:1;" d="M 49.082031 30.347656 L 50.988281 25.675781 L 52.875 30.335938 Z M 52.246094 23.902344 L 49.726562 23.902344 L 44.296875 35.308594 L 46.972656 35.308594 L 48.417969 32.027344 L 53.589844 32.027344 L 55.019531 35.308594 L 57.6875 35.308594 "/>
<path style=" stroke:none;fill-rule:nonzero;fill:rgb(15.664673%,27.082825%,54.109192%);fill-opacity:1;" d="M 26.78125 45.757812 L 28.6875 41.074219 L 30.574219 45.746094 Z M 29.945312 39.289062 L 27.425781 39.289062 L 21.996094 50.734375 L 24.671875 50.734375 L 26.117188 47.445312 L 31.289062 47.445312 L 32.71875 50.734375 L 35.386719 50.734375 "/>
<path style=" stroke:none;fill-rule:nonzero;fill:rgb(15.664673%,27.082825%,54.109192%);fill-opacity:1;" d="M 65.421875 29.585938 L 61.601562 29.585938 L 61.601562 26 L 65.421875 26 C 66.28125 26 66.867188 26.949219 66.867188 27.804688 C 66.867188 28.6875 66.28125 29.585938 65.421875 29.585938 M 65.507812 23.902344 L 59.171875 23.902344 L 59.171875 35.308594 L 61.601562 35.308594 L 61.601562 29.769531 L 63.007812 31.703125 L 65.507812 31.703125 C 67.699219 31.703125 69.167969 29.878906 69.167969 27.800781 C 69.167969 25.730469 67.699219 23.902344 65.507812 23.902344 "/>
</g>
</svg>
