<?xml version="1.0" encoding="utf-8"?>
<!-- Generator: Adobe Illustrator 28.0.0, SVG Export Plug-In . SVG Version: 6.00 Build 0)  -->
<svg version="1.1" id="Layer_1" xmlns="http://www.w3.org/2000/svg" xmlns:xlink="http://www.w3.org/1999/xlink" x="0px" y="0px"
	 viewBox="0 0 176 59" style="enable-background:new 0 0 176 59;" xml:space="preserve">
<style type="text/css">
	.st0{fill:#006631;}
</style>
<g>
	<path class="st0" d="M0,12.9c4.6,0.9,9.1,1.8,13.7,2.7c5.9,1.2,11.8,2.4,17.7,3.6c0.2,0,0.4,0.1,0.7,0.2c0.1,3.3,0.2,6.6,0.4,10.1    c-0.8-0.4-1.5-0.7-2.1-1c-3.7-1.7-7.5-3.4-11.5-4.1c-2.7-0.5-5.3-0.5-8,0.1c7.6,0,14,3.4,20.6,7.1c-3.3,1.9-6.4,3.8-9.7,5.7    c0.6,0.7,1.1,1.3,1.7,2c-3.4,2.4-7.1,2.8-11,1.6c3.4-0.3,6.5-1.5,9.4-3.6c-2.9-3.2-5.8-6.4-8.6-9.5C9,23.1,4.8,18.5,0.7,13.9    c-0.2-0.2-0.4-0.4-0.7-0.5C0,13.2,0,13.1,0,12.9z"/>
	<path class="st0" d="M36.5,19.3c10.8-2.1,21.3-4.3,31.9-6.4c0.1,0.1,0.1,0.2,0.2,0.3c-7.2,7.9-14.4,15.9-21.8,24    c-3.2-1.9-6.3-3.7-9.5-5.5c0-0.1,0-0.2-0.1-0.3c3.3-1.6,6.6-3.2,9.9-4.7c3.3-1.5,6.9-2,10.6-2.2c-3.7-0.7-7.5-0.5-11,0.8    c-3.5,1.2-7,2.7-10.6,4.1C36.2,26.1,36.4,22.7,36.5,19.3z"/>
	<path class="st0" d="M93.4,33.2c-1.3,1.3-2.7,2.7-4.1,4.1c-3.9,0-8,0-12.1,0c0-1.3,0-2.5,0-3.8c4,0,8,0,12.1,0c0-1.5,0-2.8,0-4.2    c-4.1,0-8.1,0-12.2,0c0-1.6,0.2-3.1,0-4.5c-0.3-2.6,0.4-4.6,2.6-6.2c0.6-0.4,1-1,1.4-1.5c4.2,0,8.2,0,12.4,0c0,1.3,0,2.6,0,4    c-4.1,0-8.1,0-12.2,0c0,1.4,0,2.7,0,4.1c4,0,8,0,12.1,0C93.4,27.9,93.4,30.5,93.4,33.2z"/>
	<path class="st0" d="M146.5,13c1.4,0,2.6,0,3.9,0c0,8.1,0,16.1,0,24.3c-1.3,0-2.5,0-3.9,0c0-4,0-8,0-12.1c-2.8,0-5.5,0-8.3,0    c0,2.7,0,5.4,0,8.2c2.5,0,5.1,0,7.5,0c-1.2,1.2-2.5,2.4-4,3.9c-2.1,0-4.8,0-7.5,0c0-4.1,0-8.1,0-12.3c1.1-1.1,2.3-2.3,3.6-3.4    c0.3-0.3,0.8-0.4,1.2-0.4c2.1,0,4.1,0,6.2,0c0.4,0,0.8,0,1.3-0.1C146.5,18.3,146.5,15.7,146.5,13z"/>
	<path class="st0" d="M112.4,21.1c0,5.5,0,10.8,0,16.1c-1.3,0-2.6,0-3.9,0c0-4,0-8,0-12.1c-2.8,0-5.5,0-8.3,0c0,2.7,0,5.4,0,8.2    c2.6,0,5.1,0,7.7,0c0,0.1,0.1,0.2,0.1,0.3c-0.3,0.3-0.7,0.7-1,1.1c-1.6,2.3-3.8,3.1-6.6,2.7c-1-0.1-2.1,0-3.1,0    c-0.4,0-0.7,0-1.1-0.1c0-4.1,0-8,0-12.2c1.2-1.2,2.4-2.4,3.7-3.7c0.2-0.2,0.5-0.3,0.7-0.3C104.5,21.1,108.4,21.1,112.4,21.1z"/>
	<path class="st0" d="M176,37.2c-1.3,0-2.5,0-3.8,0c0-4,0-8,0-12.1c-2.9,0-5.6,0-8.3,0c0,2.7,0,5.4,0,8.2c2.6,0,5.1,0,7.7,0    c0,0.1,0.1,0.2,0.1,0.3c-1.2,1.2-2.4,2.4-3.6,3.6c-0.1,0.1-0.3,0.1-0.5,0.1c-2.5,0-5,0-7.6,0c0-0.4-0.1-0.8-0.1-1.1    c0-3.4,0-6.8,0-10.2c0-0.4,0.1-1,0.4-1.3c1.1-1.2,2.3-2.4,3.5-3.6c4.1,0,8.1,0,12.3,0C176,26.5,176,31.8,176,37.2z"/>
	<path class="st0" d="M34.3,8.8c-1.8,2.3-2.3,5.1-3.2,7.7c-0.6-2.4-0.5-4.7-0.1-7.3c-2.2,1.7-3.3,3.8-4.3,6c-0.4-2.7,0.6-5,2-7.3    c-2.5,1-4.3,2.9-6.2,5c0.4-2,1.1-3.6,2.4-5c1.3-1.3,2.9-2.1,4.8-2.7c-1.6-0.5-2.6-0.3-7.2,1.5c2.3-3,5.4-4.2,9.1-3.7    c0-0.1,0-0.2,0-0.2c-0.3-0.3-0.6-0.7-0.9-1c0-0.1,0.1-0.2,0.1-0.2c0.9,0.2,1.7,0.4,2.7,0.7c0.2-0.5,0.5-1.2,0.9-2.1    c0.4,0.9,0.7,1.6,0.9,2.1c0.9-0.3,1.8-0.5,2.7-0.7C38,1.5,38,1.6,38,1.6c-0.3,0.3-0.6,0.7-0.9,1c1.7,0.3,3.4,0.4,5,0.9    C43.8,4,45,5.1,46,6.6c-2.2-1-4.4-1.9-7-1.5c3.8,1.2,6.3,3.5,7.1,7.7c-2-2-3.8-3.9-6.2-4.9c1.4,2.3,2.5,4.6,2.1,7.6    c-1-2.5-2.2-4.7-4.3-6.2c0.4,2.5,0.5,4.9-0.2,7.5C36.6,14,36.1,11.2,34.3,8.8z"/>
	<path class="st0" d="M119.1,21.2c0,4.1,0,8,0,12.1c2.8,0,5.5,0,8.3,0c0-4,0-8,0-12.1c1.4,0,2.6,0,3.9,0c0,4,0,8,0,12.2    c-1.1,1.1-2.4,2.4-3.6,3.6c-0.2,0.2-0.6,0.3-0.9,0.3c-3.7,0-7.5,0-11.2,0c-0.1,0-0.2,0-0.4-0.1c0-5.3,0-10.6,0-16    C116.5,21.2,117.7,21.2,119.1,21.2z"/>
	<path class="st0" d="M35.4,49.5c0.2-5.2,0.4-10.4,0.6-15.8c3.1,1.9,6,3.7,9,5.6c-3.2,3.5-6.3,6.9-9.3,10.3    C35.5,49.5,35.5,49.5,35.4,49.5z"/>
	<path class="st0" d="M32.7,33.6c0.2,5.5,0.4,10.7,0.6,16.2c-3.3-3.6-6.4-7-9.6-10.6C26.7,37.4,29.5,35.6,32.7,33.6z"/>
	<path class="st0" d="M157.1,37.2c-1.3,0-2.5,0-3.8,0c0-5.3,0-10.7,0-16.1c1.3,0,2.5,0,3.8,0C157.1,26.5,157.1,31.8,157.1,37.2z"/>
	<path class="st0" d="M45.1,39.2c0.6-0.7,1.2-1.3,1.7-1.9c2.9,1.9,5.9,3.2,9.3,3.5C52.3,42,48.7,41.6,45.1,39.2z"/>
	<path class="st0" d="M157.1,16.8c-1.3,0-2.5,0-3.8,0c0-1.3,0-2.5,0-3.9c1.3,0,2.5,0,3.8,0C157.1,14.2,157.1,15.5,157.1,16.8z"/>
</g>
</svg>
