<svg xmlns="http://www.w3.org/2000/svg" width="176pt" height="77.04" viewBox="0 0 176 57.78"><defs><clipPath id="a"><path d="M47 24h27v33.781H47Zm0 0"/></clipPath></defs><g clip-path="url(#a)"><path d="m49.633 57.633-1.938-.23-.105-2.641-.102-2.645 1.922.117c2.27.141 4.32-.675 4.903-1.957.554-1.215.082-2.949-3.235-11.906-1.582-4.266-2.812-8.008-2.734-8.32.074-.313.914-1.61 1.86-2.883l1.718-2.316 4.668-.051 1.367 6.926c.75 3.808 1.54 7.164 1.754 7.457.953 1.304 1.406.148 2.8-7.118l1.387-7.265h9.618l-.973 3.086c-6.176 19.531-6.793 21.129-9.672 25.043-.902 1.226-2.43 2.722-3.523 3.445-1.774 1.18-2.16 1.29-4.852 1.383-1.61.058-3.797 0-4.863-.125" style="stroke:none;fill-rule:nonzero;fill:#f47317;fill-opacity:1"/></g><path d="m4.168 47.438-4.137-.66.055-2.829c-.106-2.37-.356-2.09 1.07-1.676 4.567 1.317 9.489 1.66 11.38.508 1.44-.879 1.55-2.191.25-3.043-.493-.324-2.438-.898-4.317-1.281-5.696-1.156-7.88-2.656-8.371-5.75-.953-5.95 5.843-9.457 16.14-8.332 5.035.55 4.848.426 4.848 3.11 0 2.574.289 2.449-3.879 1.703-3.684-.66-6.125-.41-7.281.75-.985.984-1.04 1.609-.207 2.359.636.578 1.562.828 6.949 1.879 2.73.531 3.355.797 4.543 1.902 1.176 1.098 1.398 1.547 1.55 3.117.212 2.223-.546 4.45-1.984 5.832-2.656 2.54-10 3.606-16.609 2.41M83.934 30.086c2.488 0 3.757 1.894 3.757 5.582 0 2.508-.457 4.16-1.453 5.223-.851.902-3.101 1.129-4.308.43-1.047-.61-1.64-2.56-1.64-5.387 0-4.246 1.003-5.848 3.644-5.848M70.422 13.863v9.172h1.914c1.27 0 2.102.195 2.469.563.304.304.55.578.55.617s-1.109 3.55-2.468 7.808c-2.422 7.602-2.465 7.817-2.465 11.543v3.79h9.164v-1.688c0-1.54.441-2.543 1.11-2.543.144 0 .609.645 1.046 1.422.832 1.48 1.887 2.36 3.656 3.05 2.965 1.16 7.547.165 9.848-2.136 1.961-1.961 2.703-4.102 2.93-8.523.37-7.22-2.125-11.454-7.39-12.56-2.532-.53-4.356-.476-7.497 1.673-1.293.887-2.16 1.844-2.328 1.676-.164-.165-.344-3.317-.395-6.993l-.367-6.82z" style="stroke:none;fill-rule:nonzero;fill:#f47317;fill-opacity:1"/><path d="M100.238 47.543c-.758-.273-1.672-.79-2.035-1.152-.648-.645-.64-.703.211-2.578 2.492-5.481 1.95-13.383-1.191-17.286-.586-.734-1.203-1.64-1.203-1.75l10.355.024V40.34l.863.867c1.215 1.211 3.067 1.184 4.047-.062.688-.875.73-1.375.73-8.637V24.8h10.22v22.558h-9.516v-1.773c0-2.36-.672-2.621-2.403-.941-3.058 2.968-6.832 4.054-10.078 2.898M21.523 46.426c1.825-1.301 2.899-3.637 2.891-6.293-.012-2.664-.883-4.528-2.68-5.719-1.035-.684-1.355-1.129-1.355-1.883 0-.812.168-1.004.969-1.097l.968-.11.204-7.594-1.082-.214-1.079-.215.098-4.625.055-4.758 10.086.016v9.972c0 13.117-.164 12.946 5.109 5.297l3.031-4.402h5.668c4.477 0 5.64-.086 5.371.262-4.578 5.94-6.843 9.222-6.843 9.687 0 .535 5.851 10.316 6.93 11.578.257.309.472.664.472.793 0 .133-2.606.238-5.79.238h-5.792l-.672-.968c-.371-.536-1.824-3.075-3.234-5.641-1.407-2.57-2.707-4.766-2.891-4.879-.18-.113-.562-.012-.844.223-.41.34-.515 1.531-.515 5.843v5.422H20.21z" style="stroke:none;fill-rule:nonzero;fill:#f47317;fill-opacity:1"/><path d="M154.77 31.352c-2.012-.907-2.649-3.137-1.833-6.395.54-2.137 1.016-1.969 1.016.355 0 2.31.488 3.508 1.645 4.032 1.222.558 1.785.492 2.586-.313 1.347-1.347.683-3.945-1.418-5.547-1.094-.836-2.188-1.261-6.09-2.382-6.84-1.961-9.762-4.368-9.762-8.043 0-4.848 7.11-6.098 13.098-2.305 1.656 1.05 2.242 1.836 1.843 2.476-.12.2-.632-.05-1.18-.57-.527-.508-1.78-1.234-2.784-1.617-5.356-2.035-10.137.777-7.215 4.25 1.375 1.633 3.137 2.629 7.113 4.012 4.082 1.422 5.535 2.105 6.695 3.16 1.328 1.207 2.168 3.195 2.168 5.137 0 1.433-.183 1.976-.968 2.855-1.164 1.3-3.196 1.672-4.914.895" style="stroke:none;fill-rule:nonzero;fill:#f9b10c;fill-opacity:1"/><path d="M127.164 47.41c-3.914-.558-3.168-.117-3.168-2.726 0-2.235-.195-2.297.57-2.051 3.055.976 7.903 1.148 9.805.351 1.34-.558 1.832-1.597 1.27-2.652-.395-.734-1.707-1.18-6.727-2.281-1.46-.324-3.168-.895-3.789-1.274l-1.129-.687v-9.117l1.149-.7c2.945-1.8 9.37-2.566 14.71-1.75l2.997.454.105 2.378c.059 1.31-.023 2.38-.176 2.375-.152-.003-1.629-.25-3.277-.546-3.004-.54-5.492-.438-6.871.289-.914.48-1.223.965-1.23 1.93-.008 1.097 1.292 1.656 5.456 2.347 6.188 1.027 8.11 2.531 8.11 6.348 0 1.828-.172 2.457-1 3.707-2.207 3.336-9.41 4.656-16.805 3.605" style="stroke:none;fill-rule:nonzero;fill:#f47317;fill-opacity:1"/><path d="M166.758 27.977c-2.801-1.399-6.207-4.832-7.504-7.567-.89-1.875-2.125-6.582-2.125-8.105 0-.297.21-.543.469-.543.289 0 .644.77.91 1.945 1.058 4.742 5.137 10.352 8.906 12.258 2.445 1.234 3.883 1.242 4.844.023 1.539-1.957.414-4.316-2.844-5.968-1.676-.848-2.148-1.688-1.383-2.461.184-.184 1.153-2.157 2.153-4.387 1.46-3.258 1.851-4.543 2-6.55.18-2.423.156-2.52-.829-3.294-.78-.613-1.316-.758-2.34-.621-4.097.547-8.007 4.586-8.593 8.879-.371 2.695-.95 1.855-.73-1.055.472-6.265 4.5-10.515 9.972-10.527 3.922-.008 5.637 1.754 5.582 5.734-.035 2.59-1.316 6.235-3.496 9.953-.676 1.157-1.23 2.168-1.23 2.25s.609.461 1.355.84c1.688.864 3.375 2.75 3.914 4.383.563 1.711-.031 3.79-1.426 4.961-1.605 1.352-4.726 1.29-7.605-.148" style="stroke:none;fill-rule:nonzero;fill:#f9b10c;fill-opacity:1"/></svg>