<?xml version="1.0" encoding="UTF-8"?>
<svg xmlns="http://www.w3.org/2000/svg" xmlns:xlink="http://www.w3.org/1999/xlink" width="176pt" height="45.78pt" viewBox="0 0 176 45.78" version="1.1">
<defs>
<clipPath id="clip1">
  <path d="M 121 36 L 131 36 L 131 45.78125 L 121 45.78125 Z M 121 36 "/>
</clipPath>
<clipPath id="clip2">
  <path d="M 132 33 L 134 33 L 134 45.78125 L 132 45.78125 Z M 132 33 "/>
</clipPath>
<clipPath id="clip3">
  <path d="M 135 36 L 141 36 L 141 45.78125 L 135 45.78125 Z M 135 36 "/>
</clipPath>
<clipPath id="clip4">
  <path d="M 141 33 L 144 33 L 144 45.78125 L 141 45.78125 Z M 141 33 "/>
</clipPath>
<clipPath id="clip5">
  <path d="M 145 33 L 148 33 L 148 45.78125 L 145 45.78125 Z M 145 33 "/>
</clipPath>
<clipPath id="clip6">
  <path d="M 149 36 L 157 36 L 157 45.78125 L 149 45.78125 Z M 149 36 "/>
</clipPath>
<clipPath id="clip7">
  <path d="M 158 36 L 168 36 L 168 45.78125 L 158 45.78125 Z M 158 36 "/>
</clipPath>
<clipPath id="clip8">
  <path d="M 168 36 L 176 36 L 176 45.78125 L 168 45.78125 Z M 168 36 "/>
</clipPath>
</defs>
<g id="surface1">
<path style=" stroke:none;fill-rule:nonzero;fill:rgb(94.682312%,43.051147%,15.415955%);fill-opacity:1;" d="M 34.558594 34.558594 L 33.273438 29.074219 C 34.976562 26.558594 35.976562 23.527344 35.980469 20.265625 L 40.488281 20.242188 L 35.691406 17.269531 C 35.089844 14.125 33.558594 11.308594 31.386719 9.132812 L 34.558594 5.929688 L 29.074219 7.21875 C 26.558594 5.511719 23.53125 4.511719 20.265625 4.507812 L 20.246094 0 L 17.273438 4.796875 C 14.125 5.398438 11.3125 6.929688 9.132812 9.101562 L 5.929688 5.929688 L 7.21875 11.414062 C 5.511719 13.929688 4.511719 16.960938 4.507812 20.222656 L 0 20.242188 L 4.796875 23.21875 C 5.398438 26.363281 6.929688 29.179688 9.105469 31.359375 L 5.929688 34.558594 L 11.417969 33.273438 C 13.929688 34.976562 16.960938 35.976562 20.226562 35.980469 L 20.246094 40.488281 L 23.21875 35.691406 C 26.363281 35.089844 29.179688 33.558594 31.359375 31.386719 L 34.558594 34.558594 "/>
<path style=" stroke:none;fill-rule:nonzero;fill:rgb(100%,100%,100%);fill-opacity:1;" d="M 20.246094 0 L 22.953125 17.578125 L 34.558594 5.929688 L 24.046875 20.273438 L 40.488281 20.242188 L 22.914062 22.953125 L 34.558594 34.558594 L 20.214844 24.046875 L 20.246094 40.488281 L 17.535156 22.914062 L 5.929688 34.558594 L 16.441406 20.214844 L 0 20.242188 L 17.578125 17.535156 L 5.929688 5.929688 L 20.273438 16.441406 L 20.246094 0 "/>
<path style=" stroke:none;fill-rule:nonzero;fill:rgb(100%,100%,100%);fill-opacity:1;" d="M 25.699219 8.332031 L 23.246094 17.914062 L 32.917969 15.839844 L 24.40625 20.878906 L 32.710938 26.253906 L 23.128906 23.800781 L 25.203125 33.472656 L 20.164062 24.960938 L 14.792969 33.265625 L 17.246094 23.683594 L 7.574219 25.757812 L 16.085938 20.71875 L 7.777344 15.34375 L 17.359375 17.800781 L 15.285156 8.128906 L 20.328125 16.636719 L 25.699219 8.332031 "/>
<path style=" stroke:none;fill-rule:nonzero;fill:rgb(16.426086%,29.64325%,57.653809%);fill-opacity:1;" d="M 19.007812 16.15625 C 19.03125 16.5625 19.085938 16.601562 19.175781 16.667969 C 19.53125 16.933594 20.457031 17.207031 21.316406 17.441406 C 22.074219 17.640625 22.71875 17.8125 23.316406 18.0625 L 21.433594 16.042969 C 21.011719 15.625 20.609375 15.347656 20.015625 15.347656 C 19.671875 15.347656 19.023438 15.515625 19.007812 16.15625 Z M 18.117188 24.992188 C 18.710938 25.851562 19.238281 26.320312 20.296875 26.320312 C 21.132812 26.320312 21.308594 25.734375 21.308594 25.242188 C 21.308594 24.726562 21.199219 24.441406 18.75 23.6875 C 18.300781 23.558594 17.519531 23.324219 16.699219 22.894531 C 16.710938 22.914062 16.722656 22.9375 16.738281 22.957031 Z M 19.488281 29.765625 C 17.359375 29.765625 15.386719 29.027344 14.722656 28.527344 C 14.222656 28.15625 14.136719 27.640625 14.097656 27.390625 L 13.625 23.902344 L 13.625 23.832031 C 13.625 23.195312 14.03125 22.679688 14.664062 22.515625 L 15.273438 22.347656 C 15.394531 22.308594 15.519531 22.289062 15.644531 22.289062 C 15.671875 22.289062 15.707031 22.289062 15.742188 22.292969 C 14.640625 21.464844 13.695312 20.183594 13.695312 18.191406 C 13.695312 16.03125 14.4375 14.433594 15.960938 13.3125 C 17.667969 12.074219 18.90625 11.832031 20.472656 11.832031 C 22.109375 11.832031 23.511719 12.117188 24.640625 12.679688 C 25.394531 13.035156 25.761719 13.472656 25.863281 14.132812 L 26.355469 16.722656 C 26.480469 17.355469 26.214844 17.910156 25.640625 18.195312 L 25.617188 18.207031 L 25.011719 18.476562 C 24.828125 18.574219 24.625 18.625 24.421875 18.625 C 24.402344 18.625 24.378906 18.625 24.359375 18.625 C 24.71875 18.867188 25.070312 19.171875 25.4375 19.5625 C 26.625 20.753906 26.867188 21.917969 26.867188 23.300781 C 26.867188 27.105469 23.832031 29.765625 19.488281 29.765625 "/>
<path style=" stroke:none;fill-rule:nonzero;fill:rgb(94.682312%,43.051147%,15.415955%);fill-opacity:1;" d="M 19.867188 25.199219 C 19.824219 25.1875 19.78125 25.167969 19.738281 25.148438 C 19.785156 25.167969 19.828125 25.183594 19.867188 25.199219 Z M 20.472656 10.765625 C 18.417969 10.765625 17.027344 11.21875 15.339844 12.441406 L 15.335938 12.445312 L 15.328125 12.449219 C 13.535156 13.773438 12.625 15.703125 12.625 18.191406 C 12.625 19.558594 12.992188 20.753906 13.71875 21.765625 C 13 22.195312 12.554688 22.957031 12.554688 23.832031 L 12.554688 23.972656 L 12.574219 24.117188 L 13.03125 27.5 L 13.035156 27.535156 L 13.042969 27.566406 C 13.097656 27.890625 13.238281 28.753906 14.078125 29.382812 C 15.019531 30.085938 17.230469 30.835938 19.488281 30.835938 C 21.878906 30.835938 23.953125 30.125 25.488281 28.789062 C 27.066406 27.410156 27.9375 25.460938 27.9375 23.300781 C 27.9375 21.9375 27.742188 20.472656 26.382812 19 C 27.203125 18.464844 27.597656 17.519531 27.402344 16.519531 L 26.917969 13.949219 C 26.679688 12.480469 25.523438 11.914062 25.105469 11.714844 C 23.828125 11.085938 22.269531 10.765625 20.472656 10.765625 Z M 20.472656 12.902344 C 22.378906 12.902344 23.539062 13.324219 24.175781 13.644531 C 24.703125 13.890625 24.773438 14.066406 24.808594 14.3125 L 25.304688 16.921875 C 25.339844 17.097656 25.304688 17.167969 25.164062 17.238281 L 24.527344 17.519531 C 24.492188 17.542969 24.457031 17.554688 24.421875 17.554688 C 24.347656 17.554688 24.269531 17.507812 24.175781 17.414062 L 22.203125 15.300781 C 21.742188 14.84375 21.074219 14.277344 20.015625 14.277344 C 18.960938 14.277344 17.9375 14.984375 17.9375 16.179688 C 18.007812 17.414062 18.429688 17.765625 21.039062 18.472656 C 22.765625 18.929688 23.609375 19.175781 24.667969 20.304688 C 25.585938 21.222656 25.796875 22.066406 25.796875 23.300781 C 25.796875 26.4375 23.328125 28.695312 19.488281 28.695312 C 17.515625 28.695312 15.785156 27.988281 15.363281 27.671875 C 15.222656 27.566406 15.1875 27.425781 15.152344 27.214844 L 14.695312 23.832031 C 14.695312 23.652344 14.800781 23.582031 14.941406 23.546875 L 15.574219 23.371094 C 15.597656 23.363281 15.621094 23.359375 15.644531 23.359375 C 15.714844 23.359375 15.765625 23.40625 15.820312 23.511719 L 17.230469 25.59375 C 17.867188 26.507812 18.675781 27.390625 20.296875 27.390625 C 21.601562 27.390625 22.378906 26.472656 22.378906 25.242188 C 22.378906 23.832031 21.355469 23.371094 19.066406 22.667969 C 16.5625 21.925781 14.765625 20.730469 14.765625 18.191406 C 14.765625 16.535156 15.257812 15.160156 16.597656 14.171875 C 18.007812 13.148438 18.992188 12.902344 20.472656 12.902344 "/>
<path style=" stroke:none;fill-rule:nonzero;fill:rgb(15.229797%,28.811646%,57.032776%);fill-opacity:1;" d="M 47.664062 23.726562 L 50.015625 23.355469 C 50.148438 24.300781 50.519531 25.023438 51.121094 25.523438 C 51.726562 26.027344 52.570312 26.277344 53.652344 26.277344 C 54.746094 26.277344 55.558594 26.058594 56.085938 25.613281 C 56.617188 25.167969 56.882812 24.644531 56.882812 24.042969 C 56.882812 23.507812 56.648438 23.082031 56.179688 22.773438 C 55.851562 22.5625 55.042969 22.292969 53.746094 21.96875 C 52 21.527344 50.789062 21.144531 50.117188 20.824219 C 49.441406 20.503906 48.929688 20.058594 48.582031 19.488281 C 48.234375 18.917969 48.058594 18.292969 48.058594 17.605469 C 48.058594 16.976562 48.203125 16.398438 48.488281 15.867188 C 48.777344 15.332031 49.164062 14.886719 49.660156 14.535156 C 50.03125 14.261719 50.535156 14.03125 51.175781 13.839844 C 51.8125 13.652344 52.5 13.558594 53.230469 13.558594 C 54.332031 13.558594 55.300781 13.714844 56.132812 14.035156 C 56.96875 14.351562 57.582031 14.78125 57.976562 15.324219 C 58.375 15.867188 58.648438 16.589844 58.796875 17.5 L 56.46875 17.816406 C 56.363281 17.09375 56.058594 16.527344 55.550781 16.121094 C 55.042969 15.71875 54.328125 15.515625 53.402344 15.515625 C 52.308594 15.515625 51.53125 15.695312 51.0625 16.058594 C 50.59375 16.417969 50.359375 16.839844 50.359375 17.328125 C 50.359375 17.636719 50.457031 17.914062 50.652344 18.160156 C 50.84375 18.414062 51.148438 18.625 51.566406 18.792969 C 51.800781 18.882812 52.503906 19.085938 53.667969 19.402344 C 55.351562 19.851562 56.527344 20.222656 57.191406 20.507812 C 57.855469 20.792969 58.378906 21.210938 58.757812 21.757812 C 59.136719 22.304688 59.328125 22.980469 59.328125 23.792969 C 59.328125 24.585938 59.097656 25.335938 58.632812 26.035156 C 58.167969 26.738281 57.503906 27.277344 56.628906 27.660156 C 55.757812 28.046875 54.769531 28.238281 53.667969 28.238281 C 51.84375 28.238281 50.453125 27.859375 49.496094 27.097656 C 48.539062 26.339844 47.925781 25.214844 47.664062 23.726562 "/>
<path style=" stroke:none;fill-rule:nonzero;fill:rgb(15.229797%,28.811646%,57.032776%);fill-opacity:1;" d="M 70.300781 27.917969 L 70.300781 25.855469 C 69.207031 27.441406 67.722656 28.238281 65.84375 28.238281 C 65.015625 28.238281 64.242188 28.078125 63.523438 27.761719 C 62.804688 27.441406 62.273438 27.042969 61.921875 26.566406 C 61.574219 26.085938 61.332031 25.496094 61.191406 24.796875 C 61.09375 24.332031 61.042969 23.589844 61.042969 22.578125 L 61.042969 13.875 L 63.425781 13.875 L 63.425781 21.664062 C 63.425781 22.90625 63.472656 23.746094 63.570312 24.175781 C 63.71875 24.800781 64.039062 25.292969 64.523438 25.652344 C 65.007812 26.007812 65.605469 26.1875 66.320312 26.1875 C 67.035156 26.1875 67.703125 26.003906 68.332031 25.636719 C 68.957031 25.273438 69.398438 24.773438 69.660156 24.144531 C 69.917969 23.511719 70.050781 22.597656 70.050781 21.398438 L 70.050781 13.875 L 72.429688 13.875 L 72.429688 27.917969 L 70.300781 27.917969 "/>
<path style=" stroke:none;fill-rule:nonzero;fill:rgb(15.229797%,28.811646%,57.032776%);fill-opacity:1;" d="M 74.039062 27.917969 L 74.039062 13.875 L 76.183594 13.875 L 76.183594 15.871094 C 77.214844 14.328125 78.703125 13.558594 80.652344 13.558594 C 81.496094 13.558594 82.277344 13.710938 82.984375 14.011719 C 83.695312 14.316406 84.226562 14.714844 84.578125 15.210938 C 84.933594 15.703125 85.179688 16.289062 85.320312 16.96875 C 85.40625 17.410156 85.453125 18.179688 85.453125 19.285156 L 85.453125 27.917969 L 83.070312 27.917969 L 83.070312 19.375 C 83.070312 18.40625 82.980469 17.679688 82.792969 17.199219 C 82.609375 16.71875 82.28125 16.335938 81.808594 16.050781 C 81.335938 15.765625 80.785156 15.621094 80.148438 15.621094 C 79.136719 15.621094 78.261719 15.941406 77.523438 16.585938 C 76.789062 17.230469 76.417969 18.449219 76.417969 20.25 L 76.417969 27.917969 L 74.039062 27.917969 "/>
<path style=" stroke:none;fill-rule:nonzero;fill:rgb(15.229797%,28.811646%,57.032776%);fill-opacity:1;" d="M 101.550781 22.773438 L 103.890625 23.078125 C 103.636719 24.691406 102.980469 25.957031 101.925781 26.867188 C 100.875 27.78125 99.578125 28.238281 98.046875 28.238281 C 96.125 28.238281 94.578125 27.609375 93.410156 26.351562 C 92.242188 25.097656 91.660156 23.296875 91.660156 20.949219 C 91.660156 19.433594 91.910156 18.105469 92.414062 16.96875 C 92.914062 15.832031 93.679688 14.980469 94.707031 14.410156 C 95.734375 13.839844 96.851562 13.558594 98.058594 13.558594 C 99.585938 13.558594 100.832031 13.941406 101.800781 14.714844 C 102.773438 15.484375 103.394531 16.582031 103.667969 18 L 101.351562 18.359375 C 101.132812 17.414062 100.742188 16.703125 100.183594 16.230469 C 99.621094 15.753906 98.945312 15.515625 98.152344 15.515625 C 96.953125 15.515625 95.976562 15.945312 95.230469 16.804688 C 94.480469 17.664062 94.105469 19.023438 94.105469 20.882812 C 94.105469 22.769531 94.464844 24.140625 95.1875 24.996094 C 95.914062 25.851562 96.855469 26.277344 98.019531 26.277344 C 98.953125 26.277344 99.734375 25.992188 100.359375 25.417969 C 100.988281 24.847656 101.382812 23.964844 101.550781 22.773438 "/>
<path style=" stroke:none;fill-rule:nonzero;fill:rgb(15.229797%,28.811646%,57.032776%);fill-opacity:1;" d="M 107.488281 20.898438 C 107.488281 22.695312 107.882812 24.042969 108.664062 24.9375 C 109.449219 25.832031 110.4375 26.277344 111.628906 26.277344 C 112.808594 26.277344 113.792969 25.828125 114.578125 24.929688 C 115.363281 24.03125 115.753906 22.660156 115.753906 20.816406 C 115.753906 19.082031 115.359375 17.765625 114.570312 16.871094 C 113.78125 15.976562 112.800781 15.527344 111.628906 15.527344 C 110.4375 15.527344 109.449219 15.972656 108.664062 16.863281 C 107.882812 17.753906 107.488281 19.097656 107.488281 20.898438 Z M 105.042969 20.898438 C 105.042969 18.296875 105.765625 16.371094 107.210938 15.117188 C 108.417969 14.078125 109.890625 13.558594 111.628906 13.558594 C 113.558594 13.558594 115.136719 14.191406 116.363281 15.457031 C 117.585938 16.71875 118.199219 18.46875 118.199219 20.699219 C 118.199219 22.503906 117.929688 23.929688 117.386719 24.964844 C 116.84375 26 116.054688 26.804688 115.019531 27.378906 C 113.984375 27.949219 112.851562 28.238281 111.628906 28.238281 C 109.660156 28.238281 108.074219 27.605469 106.859375 26.34375 C 105.648438 25.085938 105.042969 23.269531 105.042969 20.898438 "/>
<path style=" stroke:none;fill-rule:nonzero;fill:rgb(15.229797%,28.811646%,57.032776%);fill-opacity:1;" d="M 129.136719 27.917969 L 129.136719 25.855469 C 128.042969 27.441406 126.554688 28.238281 124.679688 28.238281 C 123.851562 28.238281 123.078125 28.078125 122.359375 27.761719 C 121.640625 27.441406 121.105469 27.042969 120.757812 26.566406 C 120.410156 26.085938 120.164062 25.496094 120.023438 24.796875 C 119.925781 24.332031 119.878906 23.589844 119.878906 22.578125 L 119.878906 13.875 L 122.257812 13.875 L 122.257812 21.664062 C 122.257812 22.90625 122.304688 23.746094 122.402344 24.175781 C 122.554688 24.800781 122.871094 25.292969 123.355469 25.652344 C 123.839844 26.007812 124.441406 26.1875 125.15625 26.1875 C 125.867188 26.1875 126.539062 26.003906 127.164062 25.636719 C 127.789062 25.273438 128.234375 24.773438 128.492188 24.144531 C 128.753906 23.511719 128.882812 22.597656 128.882812 21.398438 L 128.882812 13.875 L 131.265625 13.875 L 131.265625 27.917969 L 129.136719 27.917969 "/>
<path style=" stroke:none;fill-rule:nonzero;fill:rgb(15.229797%,28.811646%,57.032776%);fill-opacity:1;" d="M 132.875 27.917969 L 132.875 13.875 L 135.015625 13.875 L 135.015625 15.871094 C 136.046875 14.328125 137.535156 13.558594 139.484375 13.558594 C 140.332031 13.558594 141.109375 13.710938 141.820312 14.011719 C 142.527344 14.316406 143.058594 14.714844 143.414062 15.210938 C 143.765625 15.703125 144.011719 16.289062 144.152344 16.96875 C 144.242188 17.410156 144.285156 18.179688 144.285156 19.285156 L 144.285156 27.917969 L 141.90625 27.917969 L 141.90625 19.375 C 141.90625 18.40625 141.8125 17.679688 141.628906 17.199219 C 141.441406 16.71875 141.113281 16.335938 140.644531 16.050781 C 140.171875 15.765625 139.617188 15.621094 138.980469 15.621094 C 137.96875 15.621094 137.09375 15.941406 136.359375 16.585938 C 135.621094 17.230469 135.253906 18.449219 135.253906 20.25 L 135.253906 27.917969 L 132.875 27.917969 "/>
<path style=" stroke:none;fill-rule:nonzero;fill:rgb(15.229797%,28.811646%,57.032776%);fill-opacity:1;" d="M 152.074219 25.789062 L 152.417969 27.894531 C 151.746094 28.035156 151.148438 28.105469 150.617188 28.105469 C 149.753906 28.105469 149.082031 27.96875 148.605469 27.695312 C 148.132812 27.421875 147.796875 27.0625 147.601562 26.617188 C 147.40625 26.171875 147.3125 25.234375 147.3125 23.804688 L 147.3125 15.726562 L 145.566406 15.726562 L 145.566406 13.875 L 147.3125 13.875 L 147.3125 10.394531 L 149.679688 8.96875 L 149.679688 13.875 L 152.074219 13.875 L 152.074219 15.726562 L 149.679688 15.726562 L 149.679688 23.9375 C 149.679688 24.617188 149.722656 25.054688 149.804688 25.246094 C 149.890625 25.441406 150.023438 25.597656 150.214844 25.710938 C 150.40625 25.824219 150.675781 25.882812 151.027344 25.882812 C 151.292969 25.882812 151.640625 25.851562 152.074219 25.789062 "/>
<path style=" stroke:none;fill-rule:nonzero;fill:rgb(15.229797%,28.811646%,57.032776%);fill-opacity:1;" d="M 154.375 27.917969 L 154.375 13.875 L 156.515625 13.875 L 156.515625 16.003906 C 157.0625 15.007812 157.566406 14.351562 158.03125 14.035156 C 158.492188 13.714844 159.003906 13.558594 159.558594 13.558594 C 160.359375 13.558594 161.175781 13.8125 162.003906 14.324219 L 161.183594 16.53125 C 160.601562 16.1875 160.019531 16.015625 159.4375 16.015625 C 158.917969 16.015625 158.453125 16.175781 158.039062 16.488281 C 157.621094 16.800781 157.328125 17.234375 157.152344 17.789062 C 156.886719 18.636719 156.753906 19.5625 156.753906 20.566406 L 156.753906 27.917969 L 154.375 27.917969 "/>
<path style=" stroke:none;fill-rule:nonzero;fill:rgb(15.229797%,28.811646%,57.032776%);fill-opacity:1;" d="M 164.375 33.328125 L 164.109375 31.09375 C 164.628906 31.234375 165.082031 31.304688 165.472656 31.304688 C 166 31.304688 166.421875 31.21875 166.742188 31.039062 C 167.058594 30.863281 167.316406 30.617188 167.519531 30.300781 C 167.671875 30.0625 167.914062 29.472656 168.25 28.527344 C 168.292969 28.394531 168.363281 28.203125 168.460938 27.945312 L 163.132812 13.875 L 165.695312 13.875 L 168.617188 22.007812 C 168.996094 23.039062 169.335938 24.125 169.636719 25.261719 C 169.910156 24.167969 170.234375 23.101562 170.613281 22.0625 L 173.617188 13.875 L 176 13.875 L 170.65625 28.15625 C 170.082031 29.699219 169.636719 30.761719 169.320312 31.34375 C 168.894531 32.128906 168.410156 32.703125 167.863281 33.070312 C 167.316406 33.4375 166.667969 33.621094 165.90625 33.621094 C 165.449219 33.621094 164.9375 33.523438 164.375 33.328125 "/>
<g clip-path="url(#clip1)" clip-rule="nonzero">
<path style=" stroke:none;fill-rule:nonzero;fill:rgb(93.611145%,42.504883%,13.200378%);fill-opacity:1;" d="M 128.085938 41.011719 C 127.527344 41.238281 126.6875 41.433594 125.570312 41.59375 C 124.933594 41.683594 124.488281 41.785156 124.222656 41.902344 C 123.960938 42.015625 123.757812 42.183594 123.617188 42.402344 C 123.472656 42.621094 123.402344 42.867188 123.402344 43.132812 C 123.402344 43.546875 123.558594 43.886719 123.871094 44.164062 C 124.179688 44.433594 124.636719 44.570312 125.234375 44.570312 C 125.828125 44.570312 126.355469 44.441406 126.816406 44.183594 C 127.28125 43.925781 127.621094 43.566406 127.835938 43.117188 C 128.003906 42.769531 128.085938 42.253906 128.085938 41.574219 Z M 128.214844 44.453125 C 127.640625 44.9375 127.09375 45.28125 126.566406 45.480469 C 126.039062 45.679688 125.472656 45.78125 124.867188 45.78125 C 123.867188 45.78125 123.097656 45.535156 122.5625 45.046875 C 122.027344 44.558594 121.757812 43.9375 121.757812 43.175781 C 121.757812 42.730469 121.859375 42.324219 122.0625 41.957031 C 122.265625 41.589844 122.53125 41.292969 122.859375 41.070312 C 123.1875 40.847656 123.558594 40.679688 123.96875 40.566406 C 124.269531 40.484375 124.726562 40.40625 125.335938 40.332031 C 126.582031 40.1875 127.496094 40.007812 128.085938 39.804688 C 128.09375 39.59375 128.09375 39.457031 128.09375 39.402344 C 128.09375 38.773438 127.949219 38.332031 127.65625 38.074219 C 127.261719 37.726562 126.679688 37.550781 125.902344 37.550781 C 125.175781 37.550781 124.640625 37.679688 124.296875 37.929688 C 123.953125 38.1875 123.695312 38.636719 123.53125 39.28125 L 122.023438 39.078125 C 122.160156 38.429688 122.386719 37.910156 122.699219 37.511719 C 123.015625 37.117188 123.46875 36.8125 124.0625 36.59375 C 124.65625 36.382812 125.34375 36.273438 126.125 36.273438 C 126.902344 36.273438 127.53125 36.367188 128.015625 36.550781 C 128.5 36.730469 128.859375 36.960938 129.085938 37.238281 C 129.316406 37.515625 129.476562 37.863281 129.566406 38.289062 C 129.617188 38.550781 129.644531 39.023438 129.644531 39.707031 L 129.644531 41.765625 C 129.644531 43.195312 129.675781 44.101562 129.742188 44.484375 C 129.808594 44.863281 129.9375 45.226562 130.132812 45.574219 L 128.523438 45.574219 C 128.363281 45.253906 128.257812 44.878906 128.214844 44.453125 "/>
</g>
<g clip-path="url(#clip2)" clip-rule="nonzero">
<path style=" stroke:none;fill-rule:nonzero;fill:rgb(93.611145%,42.504883%,13.200378%);fill-opacity:1;" d="M 132.039062 45.574219 L 132.039062 36.480469 L 133.582031 36.480469 L 133.582031 45.574219 Z M 132.039062 34.792969 L 132.039062 33.019531 L 133.582031 33.019531 L 133.582031 34.792969 L 132.039062 34.792969 "/>
</g>
<g clip-path="url(#clip3)" clip-rule="nonzero">
<path style=" stroke:none;fill-rule:nonzero;fill:rgb(93.611145%,42.504883%,13.200378%);fill-opacity:1;" d="M 135.910156 45.574219 L 135.910156 36.480469 L 137.296875 36.480469 L 137.296875 37.859375 C 137.652344 37.214844 137.980469 36.789062 138.277344 36.582031 C 138.578125 36.378906 138.90625 36.273438 139.269531 36.273438 C 139.789062 36.273438 140.316406 36.441406 140.851562 36.773438 L 140.320312 38.203125 C 139.945312 37.980469 139.566406 37.867188 139.191406 37.867188 C 138.855469 37.867188 138.550781 37.96875 138.28125 38.171875 C 138.015625 38.375 137.824219 38.65625 137.707031 39.015625 C 137.539062 39.5625 137.453125 40.164062 137.453125 40.8125 L 137.453125 45.574219 L 135.910156 45.574219 "/>
</g>
<g clip-path="url(#clip4)" clip-rule="nonzero">
<path style=" stroke:none;fill-rule:nonzero;fill:rgb(93.611145%,42.504883%,13.200378%);fill-opacity:1;" d="M 141.734375 45.574219 L 141.734375 33.019531 L 143.273438 33.019531 L 143.273438 45.574219 L 141.734375 45.574219 "/>
</g>
<g clip-path="url(#clip5)" clip-rule="nonzero">
<path style=" stroke:none;fill-rule:nonzero;fill:rgb(93.611145%,42.504883%,13.200378%);fill-opacity:1;" d="M 145.671875 45.574219 L 145.671875 36.480469 L 147.214844 36.480469 L 147.214844 45.574219 Z M 145.671875 34.792969 L 145.671875 33.019531 L 147.214844 33.019531 L 147.214844 34.792969 L 145.671875 34.792969 "/>
</g>
<g clip-path="url(#clip6)" clip-rule="nonzero">
<path style=" stroke:none;fill-rule:nonzero;fill:rgb(93.611145%,42.504883%,13.200378%);fill-opacity:1;" d="M 149.558594 45.574219 L 149.558594 36.480469 L 150.945312 36.480469 L 150.945312 37.773438 C 151.613281 36.777344 152.578125 36.273438 153.839844 36.273438 C 154.386719 36.273438 154.890625 36.375 155.351562 36.570312 C 155.8125 36.765625 156.15625 37.027344 156.382812 37.34375 C 156.613281 37.667969 156.773438 38.046875 156.863281 38.484375 C 156.921875 38.769531 156.949219 39.269531 156.949219 39.984375 L 156.949219 45.574219 L 155.40625 45.574219 L 155.40625 40.042969 C 155.40625 39.414062 155.347656 38.945312 155.226562 38.636719 C 155.105469 38.324219 154.894531 38.074219 154.589844 37.890625 C 154.285156 37.703125 153.925781 37.609375 153.515625 37.609375 C 152.859375 37.609375 152.292969 37.820312 151.816406 38.234375 C 151.339844 38.652344 151.101562 39.441406 151.101562 40.609375 L 151.101562 45.574219 L 149.558594 45.574219 "/>
</g>
<g clip-path="url(#clip7)" clip-rule="nonzero">
<path style=" stroke:none;fill-rule:nonzero;fill:rgb(93.611145%,42.504883%,13.200378%);fill-opacity:1;" d="M 160.476562 40.152344 L 165.554688 40.152344 C 165.484375 39.390625 165.292969 38.816406 164.972656 38.433594 C 164.480469 37.839844 163.84375 37.542969 163.0625 37.542969 C 162.355469 37.542969 161.757812 37.78125 161.277344 38.253906 C 160.796875 38.726562 160.527344 39.359375 160.476562 40.152344 Z M 165.539062 42.644531 L 167.128906 42.84375 C 166.878906 43.773438 166.414062 44.496094 165.734375 45.007812 C 165.054688 45.523438 164.1875 45.78125 163.132812 45.78125 C 161.800781 45.78125 160.746094 45.371094 159.96875 44.550781 C 159.1875 43.730469 158.800781 42.582031 158.800781 41.105469 C 158.800781 39.574219 159.191406 38.386719 159.980469 37.542969 C 160.769531 36.695312 161.789062 36.273438 163.042969 36.273438 C 164.261719 36.273438 165.253906 36.6875 166.023438 37.515625 C 166.792969 38.34375 167.183594 39.507812 167.183594 41.011719 C 167.183594 41.101562 167.175781 41.238281 167.171875 41.421875 L 160.390625 41.421875 C 160.449219 42.421875 160.730469 43.183594 161.238281 43.71875 C 161.746094 44.246094 162.378906 44.511719 163.140625 44.511719 C 163.703125 44.511719 164.1875 44.363281 164.585938 44.066406 C 164.988281 43.769531 165.304688 43.296875 165.539062 42.644531 "/>
</g>
<g clip-path="url(#clip8)" clip-rule="nonzero">
<path style=" stroke:none;fill-rule:nonzero;fill:rgb(93.611145%,42.504883%,13.200378%);fill-opacity:1;" d="M 168.445312 42.859375 L 169.972656 42.621094 C 170.058594 43.230469 170.296875 43.699219 170.6875 44.023438 C 171.078125 44.351562 171.625 44.511719 172.328125 44.511719 C 173.035156 44.511719 173.558594 44.371094 173.902344 44.078125 C 174.246094 43.792969 174.414062 43.453125 174.414062 43.066406 C 174.414062 42.714844 174.261719 42.445312 173.960938 42.242188 C 173.75 42.105469 173.226562 41.933594 172.386719 41.71875 C 171.257812 41.433594 170.472656 41.1875 170.035156 40.980469 C 169.601562 40.773438 169.269531 40.484375 169.042969 40.117188 C 168.816406 39.746094 168.707031 39.339844 168.707031 38.894531 C 168.707031 38.492188 168.796875 38.117188 168.984375 37.769531 C 169.167969 37.425781 169.421875 37.136719 169.742188 36.910156 C 169.980469 36.730469 170.304688 36.582031 170.71875 36.457031 C 171.132812 36.335938 171.578125 36.273438 172.050781 36.273438 C 172.765625 36.273438 173.390625 36.378906 173.933594 36.582031 C 174.472656 36.789062 174.871094 37.066406 175.128906 37.417969 C 175.382812 37.769531 175.558594 38.238281 175.65625 38.828125 L 174.148438 39.03125 C 174.082031 38.566406 173.882812 38.199219 173.554688 37.9375 C 173.226562 37.675781 172.761719 37.542969 172.164062 37.542969 C 171.457031 37.542969 170.949219 37.660156 170.648438 37.894531 C 170.347656 38.128906 170.195312 38.402344 170.195312 38.714844 C 170.195312 38.914062 170.257812 39.09375 170.382812 39.253906 C 170.507812 39.421875 170.707031 39.558594 170.972656 39.667969 C 171.128906 39.722656 171.582031 39.855469 172.335938 40.058594 C 173.425781 40.351562 174.183594 40.589844 174.617188 40.773438 C 175.046875 40.960938 175.386719 41.230469 175.632812 41.585938 C 175.875 41.9375 176 42.378906 176 42.902344 C 176 43.417969 175.851562 43.898438 175.550781 44.355469 C 175.25 44.808594 174.820312 45.15625 174.253906 45.40625 C 173.6875 45.65625 173.046875 45.78125 172.335938 45.78125 C 171.152344 45.78125 170.253906 45.535156 169.632812 45.042969 C 169.015625 44.550781 168.617188 43.824219 168.445312 42.859375 "/>
</g>
</g>
</svg>
