<svg xmlns="http://www.w3.org/2000/svg" width="201.187" height="59pt" viewBox="0 0 150.89 59"><defs><clipPath id="a"><path d="M149.5 8.586h.031v.016h-.031Zm-.102.016h.133v.097h-.133Zm0 .097h.102v.102h-.102Zm-.097.102h.199V9h-.2Zm-.102.199h.301v.102h-.3Zm0 .102h.2v.097h-.2Zm-.097.097h.296v.102h-.296Zm-.102.102h.398v.097H149Zm0 .097h.3V9.5h-.3Zm-.102.102h.403v.2h-.403Zm-.097.2h.398v.198h-.398Zm-.102.198h.5V10h-.5Zm0 .102h.403v.102h-.403Zm-.097.102h.5v.097h-.5Zm-.102.097h.602v.102h-.602Zm0 .102h.5v.097h-.5Zm-.102.097H149v.204h-.602Zm-.097.204h.597v.097h-.597Zm-.102.097h.7v.2h-.7Zm-.097.2h.699v.203h-.7Zm-.102.203h.8v.097h-.8Zm-.102.097h.801v.2h-.8Zm-.097.2h.8v.203h-.8Zm-.102.203h.903v.097h-.903Zm-.097.097h.898v.2h-.898Zm-.102.2h.898V12h-.898Zm-.102.101h1v.2h-1Zm-.097.2h1v.1h-1Zm-.102.1h1.102v.098h-1.102Zm0 .098h1v.102h-1Zm-.097.102h1.097v.102h-1.097Zm-.102.102h1.2v.097H147Zm0 .097h1.102v.102H147Zm-.102.102h1.204v.097h-1.204Zm-.097.097H148V13h-1.2Zm-.102.102H148v.102h-1.3Zm0 .102h1.2v.097h-1.2Zm-.097.097h1.296v.102h-1.296Zm-.102.102h1.398v.097H146.5Zm0 .097h1.3v.102h-1.3Zm-.102.102h1.403v.102h-1.403Zm-.097.102h1.398v.097h-1.398Zm-.102.097h1.5v.102h-1.5Zm0 .102h1.403v.097h-1.403Zm-.097.097h1.5V14h-1.5ZM146 14h1.5v.102H146Zm-.102.102h1.602v.097h-1.602Zm-.097.097h1.597v.2h-1.597Zm-.102.2h1.7v.101h-1.7Zm-.097.101h1.699v.102h-1.7Zm-.102.102h1.7v.199h-1.7Zm-.102.199h1.704v.097h-1.704Zm-.097.097h1.8V15h-1.8Zm-.102.102H147v.102h-1.8Zm-.097.102H147v.097h-1.898Zm-.102.097h1.898v.102H145Zm-.102.102h2v.097h-2Zm-.097.097h2v.204h-2Zm-.102.204h2v.097h-2Zm-.097.097h2.097v.102h-2.097Zm-.102.102h2.102v.097H144.5Zm-.102.097h2.204V16h-2.204Zm-.097.102h2.199v.102h-2.2Zm-.102.102h2.301v.097h-2.3Zm-.097.097h2.296v.102h-2.296Zm-.102.102h2.398v.097H144Zm-.102.097h2.403v.102h-2.403Zm-.097.102h2.5v.102h-2.5Zm-.102.102h2.5v.097h-2.5Zm0 .097h2.403v.102h-2.403Zm-.097.102h2.5v.097h-2.5Zm-.102.097h2.5V17h-2.5Zm-.102.102H146v.102h-2.602Zm-.097.102h2.597v.097h-2.597Zm-.102.097h2.7v.102h-2.7Zm-.199.102h2.8v.097H143Zm-.102.097h2.801v.102h-2.8Zm-.097.102h2.898v.102h-2.898Zm-.102.102h2.903v.097h-2.903Zm-.097.097h3v.102h-3Zm-.102.102h3v.097h-3Zm-.102.097h3V18h-3Zm-.097.102h3.097v.102h-3.097Zm-.102.102h3.102v.097h-3.102Zm-.097.097h3.199v.102h-3.2Zm-.102.102h3.2v.097H142Zm-.2.097h3.302v.102H141.8Zm-.1.102h3.402v.102h-3.403Zm-.098.102H145v.097h-3.398Zm-.102.097h3.398v.102H141.5Zm-.102.102h3.5v.097h-3.5Zm-.097.097h3.5V19h-3.5Zm-.2.102h3.7v.102h-3.7Zm-.101.102h3.7v.097H141Zm-.102.097h3.704v.102h-3.704Zm-.097.102h3.8v.097h-3.8Zm-.2.097h3.899v.102h-3.898Zm-.101.102h3.898v.102H140.5Zm-.102.102h4v.097h-4Zm-.097.097h4v.102h-4Zm-.2.102h4.098v.097h-4.097Zm-.101.097h4.102V20H140Zm-.102.102h4.204v.102h-4.204Zm-.199.102H144v.097h-4.3Zm-.097.097h4.296v.102h-4.296Zm-.102.102h4.398v.097H139.5Zm-.2.097h4.5v.102h-4.5Zm-.1.102h4.5v.102h-4.5Zm-.2.102h4.7v.097H139Zm-.102.097h4.704v.102h-4.704Zm-.199.102h4.801v.097h-4.8Zm-.097.097h4.796V21h-4.796ZM138.5 21h4.898v.102H138.5Zm-.2.102h5v.097h-5Zm-.1.097h5v.102h-5Zm-.2.102h5.102v.097H138Zm-.102.097h5.204v.102h-5.204Zm-.199.102H143v.102h-5.3Zm-.199.102h5.398v.097H137.5Zm-.102.097h5.403v.102h-5.403Zm-.199.102h5.5v.097h-5.5Zm-.097.097h5.597V22h-5.597Zm-.204.102h5.704v.102h-5.704Zm-.199.102h5.801v.097h-5.8Zm-.097.097h5.796v.102h-5.796Zm-.204.102h6v.097h-6Zm-.097.097h6v.102h-6Zm-.2.102h6.098v.102h-6.097Zm-.203.102h6.204v.097h-6.204Zm-.199.097H142v.102h-6.3Zm-.199.102h6.398v.097H135.5Zm-.102.097h6.5V23h-6.5ZM135.2 23h6.602v.102h-6.602Zm-.199.102h6.7v.097H135Zm-.2.097h6.802v.102H134.8Zm-.198.102h6.898v.097h-6.898Zm-.204.097h7v.102h-7Zm-.199.102h7.102v.102h-7.102Zm-.199.102h7.2v.097H134Zm-.2.097h7.302v.102H133.8Zm-.198.102h7.5v.097h-7.5Zm-.204.097H141V24h-7.602ZM133.2 24h7.7v.102h-7.7Zm-.199.102h7.8v.097H133Zm-.2.097h7.9v.102h-7.9Zm-.198.102h8v.097h-8Zm-.204.097h8.102v.102h-8.102Zm-.199.102h8.2v.102h-8.2Zm-.199.102h8.3v.097H132Zm-.2.097h8.4v.102h-8.4Zm-.3.102h8.602v.097H131.5Zm-.2.097h8.7V25h-8.7Zm-.198.102h8.796v.102h-8.796Zm-.204.102h8.903v.097h-8.903Zm-.296.097h9.097v.102h-9.097Zm-.204.102h9.204v.097h-9.204Zm-.199.097h9.301v.102h-9.3Zm-.3.102h9.5v.102h-9.5Zm-.2.102h9.602v.097h-9.602Zm-.3.097h9.8v.102h-9.8Zm-.2.102h9.903v.097h-9.903Zm-.3.097H139V26h-10.102Zm-.2.102h10.2v.102h-10.2Zm-.3.102H138.8v.097h-10.403Zm-.297.097h10.597v.102h-10.597Zm-.204.102h10.704v.097h-10.704Zm-.199.097H138.5v.102h-10.8Zm-.3.102H138.3v.102h-10.903Zm-.2.102h11v.097h-11Zm-.199.097h11.102v.102H127Zm-.3.102H138v.097h-11.3Zm-.2.097h11.398V27H126.5Zm-.2.102h11.5v.102h-11.5Zm-.3.102h11.7v.097H126Zm-.2.097h11.7v.102h-11.7Zm-.198.102h11.796v.097h-11.796Zm-.204.097h11.903v.102h-11.903Zm-.296.102h12.097v.102h-12.097Zm-.204.102H137v.097h-12.102Zm-.199.097h12.2v.102h-12.2Zm-.199.102h12.3v.097h-12.3Zm-.2.097h12.4V28h-12.4Zm-.198.102H136.5v.102h-12.398Zm-.301.102h12.597v.097h-12.597Zm-.2.097h12.7v.102h-12.7Zm-.203.102h12.704v.097h-12.704Zm-.199.097H136v.102h-12.8ZM123 28.5h12.898v.102H123Zm-.2.102h12.9v.097h-12.9Zm-.198.097h13v.102h-13Zm-.204.102H135.5v.097h-13.102Zm-.199.097h13.102V29h-13.102ZM122 29h13.2v.102H122Zm-.2.102H135v.097h-13.2Zm-.1.097h13.198v.102H121.7Zm-.2.102h13.2v.097h-13.2Zm-.2.097h13.302v.102H121.3Zm-.198.102h13.296v.102h-13.296Zm-.204.102h13.403v.097h-13.403Zm-.097.097h13.3v.102h-13.3Zm-.2.102h13.297v.097h-13.296Zm-.203.097h13.403V30h-13.403ZM120.2 30h13.403v.102h-13.403Zm-.199.102h13.5v.097H120Zm-.102.097h13.403v.102h-13.403Zm-.199.102h13.403v.097h-13.403Zm-.199.097h13.398v.102H119.5Zm-.102.102h13.403v.102h-13.403Zm-.199.102h13.403v.097h-13.403Zm-.199.097h13.398v.102H119Zm-.102.102H132.2v.097h-13.3Zm-.199.097H132V31h-13.3Zm-.097.102h13.296v.102h-13.296Zm-.204.102H131.7v.097h-13.3Zm-.199.097H131.5v.102h-13.3Zm-.097.102H131.3v.097h-13.2Zm-.204.097h13.204v.102h-13.204Zm-.097.102h13.097v.102h-13.097Zm-.2.102H130.7v.097h-13.097Zm-.101.097h13v.102h-13Zm-.102.102H130.2v.097h-12.8Zm-.199.097H130V32h-12.8Zm-.097.102H129.8v.102h-12.7Zm-.204.102h12.704v.097h-12.704Zm-.097.097h12.597v.102h-12.597Zm-.2.102h12.5v.097h-12.5Zm-.101.097h12.3v.102h-12.3Zm-.102.102h12.204v.102h-12.204Zm-.199.102h12.102v.097h-12.102Zm-.097.097H128v.102h-11.898Zm-.102.102h11.8v.097H116Zm-.2.097h11.7V33h-11.7Zm-.1.102h11.6v.102h-11.6Zm-.098.102H127v.097h-11.398Zm-.204.097h11.403v.102h-11.403Zm-.097.102H126.5v.097h-11.2Zm-.102.097h11.102v.102h-11.102ZM115 33.5h11v.102h-11Zm-.102.102h10.903v.097h-10.903Zm-.097.097H125.5v.102h-10.7Zm-.102.102h10.602v.097h-10.602Zm-.097.097H125V34h-10.398ZM114.5 34h10.3v.102h-10.3Zm-.2.102h10.2v.097h-10.2Zm-.1.097h10.1v.102h-10.1Zm-.098.102h10v.097h-10Zm-.102.097h9.8v.102H114Zm-.102.102h9.704v.102h-9.704Zm-.097.102h9.5v.097h-9.5Zm-.102.097h9.403v.102h-9.403Zm-.199.102h9.398v.097H113.5Zm-.102.097h9.204V35h-9.204Zm-.097.102h9.097v.102h-9.097Zm-.102.102h8.903v.097h-8.903Zm-.097.097h8.796v.102h-8.796Zm-.102.102h8.7v.097H113Zm-.102.097h8.602v.102h-8.602Zm-.097.102h8.398v.102h-8.398Zm-.102.102H121v.097h-8.3Zm-.097.097h8.199v.102h-8.2Zm-.102.102h8.102v.097H112.5Zm-.102.097h8V36h-8Zm-.097.102h7.8v.102h-7.8Zm-.102.102h7.7v.097h-7.7Zm-.097.097h7.597v.102h-7.597Zm-.102.102h7.5v.097H112Zm-.102.097h7.403v.102h-7.403Zm-.097.102H119v.102h-7.2Zm-.102.102h7.102v.097h-7.102Zm-.097.097h7v.102h-7Zm0 .102h6.796v.097h-6.796Zm-.102.097h6.7V37h-6.7Zm-.102.102H118v.102h-6.602Zm-.097.102h6.5v.097h-6.5Zm-.102.097h6.403v.102h-6.403Zm-.097.102h6.296v.097h-6.296Zm-.102.097h6.2v.102H111Zm-.102.102H117v.102h-6.102Zm-.097.102h6v.097h-6Zm-.102.097h5.903v.102h-5.903Zm0 .102h5.7v.097h-5.7Zm-.097.097h5.597V38h-5.597ZM110.5 38h5.5v.102h-5.5Zm-.102.102h5.5v.097h-5.5Zm-.097.097h5.398v.102h-5.398Zm0 .102h5.199v.097h-5.2Zm-.102.097h5.102v.102h-5.102Zm-.097.102h5v.102h-5Zm-.102.102h4.898v.097H110Zm-.102.097h4.801v.102h-4.8Zm0 .102h4.704v.097h-4.704Zm-.097.097h4.597V39h-4.597Zm-.102.102h4.5v.102h-4.5Zm-.097.102H114v.097h-4.398Zm-.102.097h4.398v.102H109.5Zm0 .102h4.2v.097h-4.2Zm-.102.097h4.102v.102h-4.102Zm-.097.102h4.097v.102h-4.097Zm0 .102h3.898v.097h-3.898Zm-.102.097H113v.102h-3.8Zm-.097.102h3.796v.097h-3.796Zm-.102.097h3.7V40H109Zm0 .102h3.5v.102H109Zm-.102.102h3.5v.097h-3.5Zm-.097.097h3.398v.102h-3.398Zm0 .102h3.3v.097h-3.3Zm-.102.097h3.2v.102h-3.2Zm-.097.102h3.199v.102h-3.2Zm-.102.102h3.2v.097h-3.2Zm0 .097h3v.102h-3Zm-.102.102h3v.097h-3Zm-.097.097h2.898V41h-2.898Zm0 .102h2.8v.102h-2.8Zm-.102.102h2.7v.097h-2.7Zm-.097.097h2.699v.102h-2.7Zm0 .102h2.5v.097h-2.5Zm-.102.097h2.5v.102H108Zm0 .102h2.398v.102H108Zm-.102.102h2.301v.097h-2.3Zm-.097.097h2.3v.102h-2.3Zm0 .102H110v.097h-2.2Zm-.102.097h2.2V42h-2.2Zm-.097.102h2.097v.102h-2.097Zm0 .102h2v.097h-2Zm-.102.097h2v.102h-2Zm0 .102h1.898v.097H107.5Zm-.102.097h1.801v.102h-1.8Zm-.097.102h1.8v.102h-1.8Zm0 .102H109v.097h-1.7Zm-.102.097h1.7v.102h-1.7Zm0 .102h1.602v.097h-1.602Zm-.097.097h1.597V43h-1.597ZM107 43h1.5v.102H107Zm0 .102h1.398v.097H107Zm-.102.097h1.403v.102h-1.403Zm0 .102h1.301v.097h-1.3Zm-.097.097h1.3v.102h-1.3Zm0 .102H108v.102h-1.2Zm-.102.102h1.2v.097h-1.2Zm0 .097h1.102v.102h-1.102Zm-.097.102h1.097v.097h-1.097Zm-.102.097h1.102V44H106.5Zm0 .102h1v.102h-1Zm-.102.102h1v.199h-1Zm-.097.199h1v.097h-1Zm0 .097h.898v.102h-.898Zm-.102.102h.903v.102h-.903Zm0 .102H107v.097h-.8Zm-.097.097h.796v.102h-.796Zm0 .102h.699v.097h-.7Zm-.102.097h.8V45h-.8Zm0 .102h.7v.102h-.7Zm-.102.102h.704v.097h-.704Zm0 .097h.602v.102h-.602Zm-.097.102h.699v.097h-.7Zm0 .097h.597v.102h-.597Zm-.102.102h.602v.102h-.602Zm0 .102h.5v.097h-.5Zm-.097.097h.597v.102h-.597Zm0 .102h.5v.097h-.5Zm-.102.097h.5v.204h-.5Zm-.102.204h.5v.097h-.5Zm0 .097h.403v.102h-.403Zm-.097.102h.5v.097h-.5Zm0 .097h.398v.102h-.398Zm-.102.102h.403v.2h-.403Zm-.097.2h.398v.1h-.398Zm0 .1h.296v.098h-.296Zm-.102.098h.398V47H105Zm0 .102h.3v.102h-.3Zm-.102.102h.403v.097h-.403Zm0 .097h.301v.2h-.3Zm-.097.2h.3v.101h-.3Zm0 .101H105v.102h-.2Zm-.102.102H105v.097h-.3Zm0 .097h.2v.102h-.2Zm-.097.102h.296v.097h-.296Zm0 .097h.199V48h-.2ZM104.5 48h.3v.102h-.3Zm0 .102h.2v.199h-.2Zm-.102.199h.204v.199h-.204Zm-.097.199h.199v.2h-.2Zm-.102.2h.2v.198h-.2Zm0 .198h.102V49h-.102Zm-.004.102h.106v.023h-.106Zm0 0"/></clipPath><clipPath id="b"><path d="M128.176 26.309c-12.106 4.945-18.922 10.488-23.98 22.714 2.16-4.105 3.855-8.808 24.73-16.671 12.758-5.125 18.789-17.254 20.605-23.766-3.469 6.754-8.906 13.047-21.355 17.723"/></clipPath><clipPath id="d"><path d="M146.5 18.453h.055v.047h-.055Zm-.102.047h.157v.2h-.157Zm-.097.2h.199v.198h-.2Zm-.102.198h.301V19h-.3Zm0 .102h.2v.102h-.2Zm-.097.102h.296v.199h-.296ZM146 19.3h.398v.097H146Zm-.102.097h.403v.204h-.403Zm-.097.204h.5v.097h-.5Zm0 .097h.398v.102h-.398Zm-.102.102h.5V20h-.5Zm-.097.199h.5v.102h-.5Zm-.102.102h.602v.199h-.602Zm-.102.199H146v.199h-.602Zm-.097.199h.597v.2h-.597Zm-.102.2h.7v.1h-.7Zm-.097.1h.699v.2h-.7ZM145 21h.8v.102h-.8Zm0 .102h.7v.097h-.7Zm-.102.097h.801v.102h-.8Zm-.097.102h.898v.097h-.898Zm0 .097h.8v.102h-.8Zm-.102.102h.903v.102h-.903Zm-.097.102h.898v.199h-.898Zm-.102.199h1v.097h-1Zm-.102.097h1v.204h-1Zm-.097.204h1v.097h-1Zm-.102.097h1.102v.2h-1.102Zm-.097.2h1.097v.101h-1.097ZM144 22.5h1.2v.102H144Zm0 .102h1.102v.097H144Zm-.102.097h1.204v.102h-1.204Zm-.097.102H145v.097h-1.2Zm-.102.097H145v.204h-1.3Zm-.097.204h1.296v.097h-1.296Zm-.102.097h1.398v.102H143.5Zm0 .102h1.3v.097h-1.3Zm-.102.097h1.403v.102h-1.403Zm-.097.102h1.398v.102h-1.398Zm-.102.102h1.5v.097h-1.5Zm0 .097h1.403v.102h-1.403Zm-.097.102h1.5v.097h-1.5Zm-.102.097h1.5V24H143Zm-.102.102h1.602v.102h-1.602Zm-.097.102h1.699v.097h-1.7Zm0 .097h1.597v.102h-1.597Zm-.102.102h1.7v.097h-1.7Zm-.097.097h1.699v.102h-1.7Zm-.102.102h1.8v.102h-1.8Zm0 .102h1.7v.097h-1.7Zm-.102.097h1.801v.102h-1.8Zm-.097.102h1.8v.097h-1.8Zm-.102.097h1.903V25h-1.903Zm-.097.102H144v.102h-1.898Zm-.102.102h2v.097h-2Zm-.102.097h2v.2h-2Zm-.097.2h2v.101h-2Zm-.102.101h2.102v.102h-2.102Zm-.097.102h2.097v.097h-2.097Zm-.102.097h2.2v.102h-2.2Zm-.102.102h2.204v.097h-2.204Zm-.097.097h2.199V26h-2.2Zm-.102.102h2.301v.102h-2.3Zm-.097.102h2.296v.097h-2.296Zm-.102.097h2.398v.102H141Zm-.102.102h2.403v.097h-2.403Zm-.097.097h2.5v.102h-2.5Zm-.102.102h2.5v.2h-2.5Zm-.097.2h2.5v.1h-2.5Zm-.102.1h2.5v.098h-2.5Zm-.102.098H143V27h-2.602Zm-.097.102h2.597v.102h-2.597Zm-.102.102h2.7v.097h-2.7Zm-.199.097h2.8v.102H140Zm-.102.102h2.903v.097h-2.903Zm-.097.097h2.898v.102h-2.898Zm-.102.102h2.903v.102h-2.903Zm-.097.102h3v.097h-3Zm-.102.097h3v.102h-3Zm-.102.102h3.102v.097h-3.102Zm-.097.097h3.097V28h-3.097Zm-.102.102h3.102v.102h-3.102Zm-.097.102h3.199v.097h-3.2Zm-.102.097h3.2v.102H139Zm-.2.102h3.302v.097H138.8Zm-.1.097h3.402v.102h-3.403Zm-.098.102H142v.102h-3.398Zm-.102.102h3.5v.097h-3.5Zm-.102.097h3.5v.102h-3.5Zm-.097.102h3.5v.097h-3.5Zm-.2.097h3.7V29h-3.7ZM138 29h3.7v.102H138Zm-.102.102h3.704v.097h-3.704Zm-.097.097h3.8v.102h-3.8Zm-.102.102h3.801v.097h-3.8Zm-.199.097h3.898v.102H137.5Zm-.102.102h4v.102h-4Zm-.097.102h4v.097h-4Zm-.2.097h4.098v.102h-4.097Zm-.101.102h4.2v.097H137Zm-.102.097h4.204V30h-4.204ZM136.7 30H141v.102h-4.3Zm-.097.102h4.296v.097h-4.296Zm-.102.097h4.398v.102H136.5Zm-.2.102h4.5v.097h-4.5Zm-.1.097h4.5v.102h-4.5Zm-.2.102h4.7v.102H136Zm-.102.102h4.704v.097h-4.704Zm-.097.097h4.699v.102h-4.7Zm-.2.102h4.899v.097h-4.898Zm-.101.097h4.898V31H135.5Zm-.2.102h5v.102h-5Zm-.1.102h5v.097h-5Zm-.2.097h5.102v.102H135Zm-.102.102h5.204v.097h-5.204Zm-.199.097H140v.102h-5.3Zm-.097.102h5.296v.102h-5.296Zm-.204.102h5.403v.097h-5.403Zm-.199.097h5.602v.102h-5.602Zm-.097.102h5.597v.097h-5.597Zm-.204.097h5.704V32h-5.704ZM133.7 32h5.801v.102h-5.8Zm-.097.102h5.796v.097h-5.796Zm-.204.097h6v.102h-6Zm-.097.102h6v.097h-6Zm-.2.097h6.098v.102h-6.097Zm-.203.102h6.204v.102h-6.204Zm-.199.102H139v.097h-6.3Zm-.199.097h6.5v.102h-6.5Zm-.102.102h6.5v.097h-6.5Zm-.199.097h6.602V33h-6.602ZM132 33h6.7v.102H132Zm-.2.102h6.802v.097H131.8Zm-.198.097h6.898v.102h-6.898Zm-.102.102h6.898v.097H131.5Zm-.2.097h7v.102h-7Zm-.198.102h7.097v.102h-7.097Zm-.204.102h7.301v.097h-7.3Zm-.199.097h7.403v.102h-7.403Zm-.3.102H138v.097h-7.602Zm-.2.097h7.7V34h-7.7ZM130 34h7.8v.102H130Zm-.2.102h7.9v.097h-7.9Zm-.198.097h8v.102h-8Zm-.204.102h8.102v.097h-8.102Zm-.199.097h8.2v.102h-8.2ZM129 34.5h8.3v.102H129Zm-.2.102h8.4v.097h-8.4Zm-.3.097h8.602v.102H128.5Zm-.2.102h8.7v.097h-8.7Zm-.198.097h8.796V35h-8.796Zm-.204.102h8.903v.102h-8.903Zm-.296.102h9.097v.097h-9.097Zm-.204.097h9.204v.102h-9.204Zm-.199.102h9.301v.097h-9.3Zm-.3.097h9.5v.102h-9.5Zm-.2.102h9.602v.102h-9.602Zm-.3.102h9.8v.097h-9.8Zm-.2.097h9.903v.102h-9.903Zm-.3.102H136v.097h-10.102Zm-.2.097h10.2V36h-10.2Zm-.3.102H135.8v.102h-10.403Zm-.2.102h10.5v.097h-10.5Zm-.3.097h10.703v.102h-10.704Zm-.2.102H135.5v.097h-10.8Zm-.3.097H135.3v.102h-10.903Zm-.2.102h11v.102h-11Zm-.199.102h11.102v.097H124Zm-.3.097H135v.102h-11.3Zm-.2.102h11.398v.097H123.5Zm-.2.097h11.5V37h-11.5ZM123 37h11.7v.102H123Zm-.2.102h11.802v.097H122.8Zm-.198.097h11.796v.102h-11.796Zm-.204.102h11.903v.097h-11.903Zm-.296.097h12.097v.102h-12.097Zm-.204.102h12.204v.102h-12.204Zm-.199.102h12.2v.097h-12.2Zm-.199.097h12.3v.102h-12.3Zm-.2.102h12.4v.097h-12.4Zm-.198.097H133.5V38h-12.398ZM120.8 38h12.597v.102h-12.597Zm-.2.102h12.7v.097h-12.7Zm-.203.097h12.704v.102h-12.704Zm-.199.102H133v.097h-12.8Zm-.199.097h12.898v.102H120Zm-.2.102h13v.102h-13Zm-.198.102h13v.097h-13Zm-.204.097H132.5v.102h-13.102Zm-.199.102h13.102v.097h-13.102Zm-.199.097h13.2V39H119Zm-.2.102H132v.102h-13.2Zm-.1.102h13.198v.097H118.7Zm-.2.097h13.2v.102h-13.2Zm-.2.102h13.302v.097H118.3Zm-.198.097h13.296v.102h-13.296Zm-.204.102h13.403v.102h-13.403Zm-.199.102h13.403v.097h-13.403Zm-.097.097H131v.102h-13.398Zm-.204.102h13.403v.097h-13.403Zm-.199.097h13.5V40h-13.5ZM117 40h13.5v.102H117Zm-.2.102h13.5v.097h-13.5Zm-.1.097h13.5v.102h-13.5Zm-.2.102H130v.097h-13.5Zm-.102.097h13.403v.102h-13.403Zm-.199.102h13.403v.102h-13.403Zm-.199.102h13.398v.097H116Zm-.102.097h13.403v.102h-13.403Zm-.199.102h13.403v.097h-13.403Zm-.199.097h13.398V41H115.5Zm-.102.102H128.7v.102h-13.3Zm-.199.102H128.5v.097h-13.3Zm-.097.097H128.3v.102h-13.2Zm-.204.102h13.204v.097h-13.204Zm-.097.097h13.097v.102h-13.097Zm-.2.102H127.7v.102h-13.097Zm-.101.102h13v.097h-13Zm-.2.097h13v.102h-13Zm-.1.102h12.902v.097h-12.903Zm-.2.097h12.898V42H114Zm-.102.102h12.704v.102h-12.704Zm-.199.102h12.7v.097h-12.7Zm-.097.097h12.597v.102h-12.597Zm-.102.102h12.398v.097H113.5Zm-.2.097h12.302v.102H113.3Zm-.1.102h12.198v.102H113.2Zm-.098.102h12v.097h-12Zm-.204.097h12v.102h-12Zm-.097.102h11.8v.097h-11.8Zm-.102.097h11.602V43h-11.602ZM112.5 43h11.602v.102H112.5Zm-.102.102h11.403v.097h-11.403Zm-.097.097h11.3v.102h-11.3Zm-.102.102h11.102v.097h-11.102Zm-.199.097h11.102v.102H112Zm-.102.102h10.903v.102h-10.903Zm-.097.102h10.8v.097h-10.8Zm-.102.097h10.602v.102h-10.602Zm-.097.102h10.5v.097h-10.5Zm-.204.097h10.403V44h-10.403Zm-.097.102h10.3v.102h-10.3Zm-.102.102h10.102v.097h-10.102Zm-.097.097h10v.102h-10Zm-.102.102h9.898v.097H111Zm-.102.097h9.704v.102h-9.704Zm-.199.102h9.7v.102h-9.7Zm-.097.102h9.597v.097h-9.597Zm-.102.097h9.398v.102H110.5Zm-.102.102h9.301v.097h-9.3Zm-.097.097h9.097V45h-9.097Zm-.102.102h9v.102h-9Zm-.097.102H119v.097h-8.898Zm-.102.097h8.7v.102H110Zm-.102.102h8.602v.097h-8.602Zm-.097.097h8.5v.102h-8.5Zm-.102.102h8.403v.102h-8.403Zm-.097.102h8.199v.097h-8.2Zm-.102.097h8.102v.102H109.5Zm-.102.102h8v.097h-8Zm-.097.097h7.898V46h-7.898Zm-.102.102H117v.102h-7.8Zm-.097.102h7.597v.097h-7.597Zm-.102.097h7.5v.102H109Zm-.102.102h7.403v.097h-7.403Zm-.097.097h7.3v.102h-7.3Zm-.102.102h7.2v.102h-7.2Zm-.097.102h7.097v.097h-7.097Zm-.102.097h7v.102h-7Zm-.102.102h6.903v.097h-6.903Zm-.097.097h6.8V47h-6.8Zm-.102.102h6.7v.102h-6.7Zm0 .102h6.5v.097h-6.5Zm-.097.097h6.296v.102h-6.296Zm-.102.102h6.2v.097H108Zm-.102.097H114v.102h-6.102Zm-.097.102h6v.102h-6Zm-.102.102h5.903v.097h-5.903Zm-.097.097h5.796v.102h-5.796Zm-.102.102h5.8v.097h-5.8Zm0 .097h5.602V48H107.5Zm-.102.102h5.5v.102h-5.5Zm-.097.102h5.398v.097h-5.398Zm-.102.097h5.301v.102h-5.3Zm-.097.102h5.199v.097h-5.2Zm0 .097h5v.102h-5ZM107 48.5h5v.102h-5Zm-.102.102h4.903v.097h-4.903Zm-.097.097h4.8v.102h-4.8Zm-.102.102h4.7v.097h-4.7Zm0 .097h4.5V49h-4.5Zm-.097.102h4.5v.102h-4.5Zm-.102.102h4.398v.097H106.5Zm-.102.097h4.301v.102h-4.3Zm-.097.102h4.3v.097h-4.3Zm0 .097h4.097v.102h-4.097Zm-.102.102h4v.102h-4Zm-.097.102h4v.097h-4Zm0 .097h3.796v.102h-3.796Zm-.102.102h3.7v.097H106Zm-.102.097h3.704V50h-3.704Zm0 .102h3.5v.102h-3.5Zm-.097.102h3.5v.097h-3.5Zm-.102.097h3.403v.102h-3.403Zm-.097.102H109v.097h-3.398Zm0 .097h3.199v.102h-3.2Zm-.102.102h3.2v.102h-3.2Zm-.102.102h3.102v.097h-3.102Zm0 .097h3v.102h-3Zm-.097.102h2.898v.097h-2.898Zm-.102.097h2.903V51h-2.903Zm0 .102h2.7v.102h-2.7Zm-.097.102h2.699v.097h-2.7Zm-.102.097h2.602v.102H105Zm0 .102h2.5v.097H105Zm-.102.097h2.5v.102h-2.5Zm-.097.102h2.398v.102h-2.398Zm0 .102h2.3v.097h-2.3Zm-.102.097H107v.102h-2.3Zm0 .102h2.102v.097h-2.102Zm-.097.097h2.097V52h-2.097ZM104.5 52h2.102v.102H104.5Zm0 .102h2v.097h-2Zm-.102.097h1.903v.102h-1.903Zm-.097.102h1.898v.097h-1.898Zm0 .097h1.8v.102h-1.8Zm-.102.102H106v.102h-1.8Zm0 .102h1.7v.097h-1.7Zm-.097.097h1.699v.102h-1.7Zm-.102.102h1.7v.097H104Zm0 .097h1.5V53H104Zm-.102.102h1.5v.102h-1.5Zm0 .102h1.403v.097h-1.403Zm-.097.097h1.398v.102h-1.398Zm0 .102h1.3v.097h-1.3Zm-.102.097H105v.102h-1.3Zm0 .102h1.2v.102h-1.2Zm-.097.102h1.199v.097h-1.2Zm-.102.097h1.2v.102h-1.2Zm0 .102h1.102v.097H103.5Zm-.102.097h1.102V54h-1.102Zm0 .102h1v.102h-1Zm-.097.102h1v.097h-1Zm0 .097h.898v.102h-.898Zm-.102.102h1v.097h-1Zm0 .097h.903v.102h-.903Zm-.097.102H104v.102h-.898Zm-.102.102h.898v.097H103Zm0 .097h.8v.102h-.8Zm-.102.102h.801v.097h-.8Zm0 .097h.704v.204h-.704Zm-.097.204h.699v.097h-.7Zm0 .097h.597v.102h-.597Zm-.102.102h.602v.199h-.602Zm-.097.199h.597v.102h-.597Zm0 .102h.5v.097h-.5Zm-.102.097h.5v.2h-.5Zm-.102.2h.5V56h-.5Zm0 .101h.403v.102h-.403Zm-.097.102h.5v.097h-.5Zm0 .097h.398v.102h-.398Zm-.102.102h.403v.199h-.403Zm-.097.199h.398v.2h-.398Zm-.102.2h.398v.1H102Zm0 .1h.3v.098h-.3Zm-.102.098h.403V57h-.403Zm0 .102h.301v.102h-.3Zm-.097.102h.398v.097h-.398Zm0 .097h.3v.102h-.3Zm-.102.102h.403v.097h-.403Zm0 .097H102v.102h-.3Zm0 .102h.2v.102h-.2Zm-.097.102h.296v.097h-.296Zm0 .097h.199v.102h-.2Zm-.102.102h.3v.097h-.3Zm0 .097h.2V58h-.2Zm-.102.102h.301v.102h-.3Zm0 .102h.204v.097h-.204Zm-.097.097h.3v.102h-.3Zm0 .102h.199v.199h-.2Zm-.102.199h.2v.2h-.2Zm-.094.2h.196v.198h-.196Zm0 .198h.094V59h-.094Zm0 0"/></clipPath><clipPath id="e"><path d="M125.148 36.223C113.004 41.183 106.18 46.734 101.105 59c2.168-4.117 3.86-8.832 24.793-16.715 12.79-5.144 18.836-17.3 20.657-23.828v-.004c-3.477 6.774-8.922 13.082-21.407 17.77"/></clipPath><clipPath id="g"><path d="M150.8 0h.09v.102h-.09Zm-.1.102h.19V.3h-.19Zm-.098.199h.289v.097h-.29Zm0 .097h.199V.5h-.2ZM150.5.5h.3v.2h-.3Zm-.102.2h.301v.198h-.3Zm-.097.198h.398V1h-.398Zm-.102.102h.403v.2h-.403Zm-.097.2h.5v.1h-.5Zm0 .1h.398v.098h-.398Zm-.102.098h.5v.204h-.5Zm-.102.204h.5v.097h-.5Zm-.097.097h.597v.2h-.597Zm-.102.2h.602v.203h-.602Zm-.097.203h.699v.097h-.7Zm0 .097h.597v.102h-.597Zm-.102.102h.7v.097h-.7Zm-.102.097h.801V2.5h-.8Zm0 .102h.704v.102h-.704Zm-.097.102h.8v.097h-.8Zm-.102.097H150v.2h-.8Zm-.097.2H150V3h-.898ZM149 3h.898v.2H149Zm-.102.2h.903v.1h-.903Zm-.097.1h1v.2h-1Zm-.102.2h1v.102h-1Zm-.097.102h1.097v.097h-1.097Zm0 .097h1v.102h-1Zm-.102.102h1.102v.097H148.5Zm-.102.097h1.204V4h-1.204Zm0 .102h1.102v.102h-1.102Zm-.097.102h1.199v.097h-1.2Zm-.102.097h1.2v.2h-1.2Zm-.097.2h1.199V4.5h-1.2ZM148 4.5h1.3v.102H148Zm0 .102h1.2v.097H148Zm-.102.097h1.301v.102h-1.3Zm-.097.102h1.398v.097h-1.398Zm-.102.097h1.403V5h-1.403Zm-.097.102h1.5v.102h-1.5Zm-.102.102h1.5V5.3h-1.5Zm-.102.199h1.5v.097h-1.5Zm-.097.097h1.597V5.5h-1.597Zm-.102.102h1.602v.102h-1.602Zm-.097.102h1.699v.097h-1.7Zm0 .097h1.597v.102h-1.597Zm-.102.102h1.7v.097H147Zm-.102.097h1.704V6h-1.704Zm-.097.102h1.8v.102h-1.8Zm-.102.102h1.801v.097h-1.8Zm-.097.097h1.898v.102h-1.898Zm0 .102h1.796v.097h-1.796Zm-.102.097h1.898V6.5H146.5Zm-.102.102h1.903v.102h-1.903Zm-.097.102h2v.097h-2Zm-.102.097h2v.2h-2Zm-.097.2h2V7h-2ZM146 7h2.102v.102H146Zm-.102.102H148v.097h-2.102Zm-.097.097H148v.102h-2.2Zm-.102.102h2.2v.097h-2.2Zm-.097.097h2.199V7.5h-2.2Zm-.102.102h2.3v.102h-2.3Zm-.102.102h2.301v.097h-2.3Zm-.097.097h2.398v.102h-2.398Zm-.102.102h2.403v.097h-2.403Zm-.097.097h2.5V8h-2.5ZM145 8h2.5v.102H145Zm-.2.102h2.598v.097h-2.597Zm-.1.097h2.698v.102H144.7Zm-.098.102h2.699v.097h-2.7Zm-.102.097h2.8V8.5h-2.8Zm-.102.102h2.801v.102h-2.8Zm-.097.102h2.898v.097h-2.898Zm-.102.097h2.903v.102h-2.903Zm-.097.102H147v.097h-2.898Zm-.102.097h3V9h-3Zm-.102.102h3v.102h-3Zm-.097.102h3v.097h-3Zm-.102.097h3.102v.102h-3.102Zm-.097.102h3.097v.097h-3.097Zm-.204.097h3.301V9.5h-3.3Zm-.097.102h3.3v.102h-3.3Zm-.102.102h3.301v.097h-3.3Zm-.097.097h3.398v.102h-3.398Zm-.204.102h3.5v.097h-3.5Zm-.097.097h3.5V10h-3.5Zm-.102.102h3.602v.102h-3.602Zm-.097.102h3.597v.097h-3.597Zm-.102.097h3.602v.102H142.5Zm-.2.102h3.802v.097H142.3Zm-.1.097h3.8v.102h-3.8Zm-.098.102h3.796v.102h-3.796Zm-.102.102h3.898v.097H142Zm-.2.097h4v.102h-4Zm-.1.102h4v.097h-4Zm-.098.097h4.097V11h-4.097ZM141.5 11h4.102v.102H141.5Zm-.2.102h4.2v.097h-4.2Zm-.1.097h4.198v.102H141.2Zm-.2.102h4.398v.097H141Zm-.102.097h4.403v.102h-4.403Zm-.199.102h4.5v.102h-4.5Zm-.097.102h4.597v.097h-4.597Zm-.204.097h4.704v.102h-4.704Zm-.199.102H145v.097h-4.8Zm-.097.097h4.796V12h-4.796Zm-.204.102h5v.102h-5Zm-.097.102h5v.097h-5Zm-.2.097h5.098v.102h-5.097Zm-.101.102h5.102v.097H139.5Zm-.2.097h5.2v.102h-5.2Zm-.1.102h5.3v.102h-5.3Zm-.2.102h5.398v.097H139Zm-.102.097h5.403v.102h-5.403Zm-.199.102h5.5v.097h-5.5Zm-.097.097h5.5V13h-5.5Zm-.204.102h5.704v.102h-5.704Zm-.199.102H144v.097h-5.8Zm-.199.097h5.898v.102H138Zm-.2.102h6v.097h-6Zm-.198.097h6.097v.102h-6.097Zm-.102.102h6.2v.102h-6.2Zm-.2.102h6.302v.097H137.3Zm-.198.097h6.398v.102h-6.398Zm-.204.102h6.5v.097h-6.5Zm-.199.097h6.602V14h-6.602ZM136.5 14h6.7v.102h-6.7Zm-.2.102h6.802v.097H136.3Zm-.198.097H143v.102h-6.898Zm-.204.102h7v.097h-7Zm-.199.097h7.2v.102h-7.2Zm-.199.102h7.3v.102h-7.3Zm-.2.102h7.4v.097h-7.4Zm-.1.097h7.402v.102h-7.403Zm-.2.102h7.5v.097H135Zm-.2.097h7.598V15h-7.597Zm-.3.102h7.8v.102h-7.8Zm-.2.102h7.9v.097h-7.9Zm-.198.097h8v.102h-8Zm-.301.102H142v.097h-8.2Zm-.2.097h8.297v.102h-8.296Zm-.203.102h8.403v.102h-8.403Zm-.199.102h8.5v.097h-8.5Zm-.3.097h8.703v.102h-8.704Zm-.2.102h8.801v.097h-8.8Zm-.199.097h8.898V16H132.5Zm-.3.102h9.1v.102h-9.1Zm-.2.102h9.2v.097H132Zm-.2.097h9.302v.102H131.8Zm-.3.102h9.5v.097h-9.5Zm-.3.097h9.698v.102H131.2Zm-.2.102h9.8v.102H131Zm-.3.102h10v.097h-10Zm-.2.097h10v.102h-10Zm-.3.102h10.198v.097H130.2Zm-.2.097h10.3V17H130Zm-.2.102h10.4v.102h-10.4Zm-.3.102h10.602v.097H129.5Zm-.2.097H140v.102h-10.7Zm-.198.102h10.796v.097h-10.796Zm-.301.097h11v.102h-11Zm-.2.102h11v.102h-11Zm-.203.102H139.5v.097h-11.102Zm-.199.097h11.2v.102h-11.2Zm-.3.102H139.3v.097h-11.403Zm-.2.097h11.5V18h-11.5ZM127.5 18H139v.102h-11.5Zm-.2.102h11.598v.097h-11.597Zm-.198.097H138.8v.102h-11.7Zm-.301.102h11.8v.097h-11.8Zm-.2.097H138.5v.102h-11.898Zm-.203.102h12v.102h-12Zm-.199.102h12v.097h-12Zm-.199.097h12.102v.102H126Zm-.2.102H138v.097h-12.2Zm-.198.097H137.8V19h-12.2Zm-.204.102H137.7v.102h-12.3Zm-.199.102h12.403v.097h-12.403Zm-.199.097h12.398v.102H125Zm-.2.102h12.5v.097h-12.5Zm-.1.097h12.402v.102h-12.403Zm-.2.102H137v.102h-12.5Zm-.2.102h12.5v.097h-12.5Zm-.198.097h12.597v.102h-12.597Zm-.204.102H136.5v.097h-12.602Zm-.097.097h12.5V20h-12.5Zm-.2.102H136.2v.102h-12.597Zm-.203.102H136v.097h-12.602Zm-.199.097h12.7v.102h-12.7Zm-.199.102h12.7v.097H123Zm-.102.097h12.704v.102h-12.704Zm-.199.102h12.7v.102h-12.7Zm-.199.102h12.7v.097h-12.7Zm-.102.097H135v.102h-12.602Zm-.199.102h12.602v.097h-12.602Zm-.097.097h12.5V21h-12.5Zm-.204.102H134.5v.102h-12.602Zm-.199.102h12.602v.097h-12.602Zm-.097.097h12.5v.102h-12.5Zm-.204.102h12.5v.097h-12.5Zm-.097.097h12.398v.102h-12.398Zm-.2.102H133.5v.102h-12.398Zm-.101.102h12.3v.097H121Zm-.2.097h12.302v.102H120.8Zm-.1.102h12.198v.097H120.7Zm-.2.097h12.2V22h-12.2Zm-.102.102h12v.102h-12Zm-.199.102h12v.097h-12Zm-.097.097H132v.102h-11.898Zm-.204.102h11.903v.097h-11.903Zm-.097.097H131.5v.102h-11.7Zm-.102.102h11.5v.102h-11.5Zm-.199.102H131v.097h-11.5Zm-.102.097H130.7v.102h-11.3Zm-.097.102H130.5v.097h-11.2Zm-.2.097H130.2V23h-11.097ZM119 23h10.898v.102H119Zm-.102.102H129.7v.097h-10.8Zm-.097.097h10.597v.102h-10.597Zm-.2.102H129.2v.097h-10.597Zm-.101.097h10.398v.102H118.5Zm-.102.102H128.7v.102h-10.3Zm-.199.102h10.2v.097h-10.2Zm-.097.097h10.097v.102h-10.097Zm-.102.102h9.898v.097H118Zm-.102.097h9.801V24h-9.8Zm-.097.102h9.597v.102h-9.597Zm-.102.102h9.5v.097h-9.5Zm-.097.097H127v.102h-9.398Zm-.204.102h9.301v.097h-9.3Zm-.097.097h9.199v.102h-9.2Zm-.102.102h9v.102h-9Zm-.097.102H126v.097h-8.898Zm-.102.097h8.8v.102H117Zm-.102.102h8.602v.097h-8.602Zm-.097.097h8.5V25h-8.5Zm-.102.102h8.403v.102h-8.403Zm-.097.102h8.199v.097h-8.2Zm-.102.097h8.102v.102H116.5Zm-.102.102h8v.097h-8Zm-.097.097h7.898v.102h-7.898Zm-.102.102h7.7v.102h-7.7Zm-.199.102h7.7v.097H116Zm-.102.097h7.602v.102h-7.602Zm-.097.102h7.5v.097h-7.5Zm-.102.097h7.403V26h-7.403Zm-.097.102h7.199v.102h-7.2Zm-.102.102h7.102v.097H115.5Zm0 .097h6.898v.102H115.5Zm-.102.102h6.801v.097h-6.8Zm-.097.097H122v.102h-6.7Zm-.102.102h6.602v.102h-6.602Zm-.097.102h6.5v.097h-6.5Zm-.102.097h6.398v.102H115Zm-.102.102h6.301v.097h-6.3Zm-.097.097H121V27h-6.2Zm-.102.102h6.102v.102h-6.102Zm-.097.102h5.898v.097h-5.898Zm0 .097h5.699v.102h-5.7Zm-.102.102h5.602v.097H114.5Zm-.102.097h5.5v.102h-5.5Zm-.097.102h5.398v.102h-5.398Zm-.102.102h5.403v.097h-5.403Zm-.097.097h5.296v.102h-5.296Zm0 .102h5.097v.097h-5.097Zm-.102.097h5V28h-5Zm-.102.102h4.903v.102h-4.903Zm-.097.102h4.8v.097h-4.8Zm-.102.097h4.801v.102h-4.8Zm0 .102h4.602v.097h-4.602Zm-.097.097h4.5v.102h-4.5Zm-.102.102h4.398v.102H113.5Zm-.102.102h4.301v.097h-4.3Zm-.097.097h4.3v.102h-4.3Zm0 .102h4.097v.097h-4.097Zm-.102.097h4V29h-4Zm-.097.102h4v.102h-4Zm-.102.102h3.898v.097H113Zm0 .097h3.7v.102H113Zm-.102.102h3.704v.097h-3.704Zm-.097.097h3.597v.102h-3.597Zm-.102.102h3.5v.102h-3.5Zm0 .102h3.403v.097h-3.403Zm-.097.097h3.296v.102h-3.296Zm-.102.102h3.3v.097h-3.3Zm0 .097h3.102V30H112.5Zm-.102.102h3.102v.102h-3.102Zm-.097.102h3v.097h-3Zm0 .097h2.898v.102h-2.898Zm-.102.102H115v.097h-2.8Zm-.097.097h2.796v.102h-2.796ZM112 30.5h2.7v.102H112Zm0 .102h2.602v.097H112Zm-.102.097h2.5v.102h-2.5Zm0 .102h2.403v.097h-2.403Zm-.097.097h2.398V31h-2.398Zm-.102.102H114v.102h-2.3Zm0 .102h2.2v.097h-2.2Zm-.097.097h2.199v.102h-2.2Zm-.102.102h2.102v.097H111.5Zm0 .097h2v.102h-2Zm-.102.102h2v.102h-2Zm0 .102h1.801v.097h-1.8Zm-.097.097h1.8v.102h-1.8Zm-.102.102H113v.097h-1.8Zm0 .097h1.7V32h-1.7Zm-.097.102h1.699v.102h-1.7Zm-.102.102h1.7v.097H111Zm0 .097h1.602v.102H111Zm-.102.102h1.5v.097h-1.5Zm0 .097h1.403v.102h-1.403Zm-.097.102h1.398v.102h-1.398Zm0 .102h1.3v.097h-1.3Zm-.102.097H112v.102h-1.3Zm0 .102h1.2v.097h-1.2Zm-.097.097h1.199V33h-1.2ZM110.5 33h1.2v.102h-1.2Zm0 .102h1.102v.097H110.5Zm-.102.097h1.102v.102h-1.102Zm0 .102h1v.097h-1Zm-.097.097h1v.102h-1Zm0 .102h.898v.102h-.898Zm-.102.102h.903v.097h-.903Zm0 .097H111v.102h-.8Zm-.097.102H111v.097h-.898Zm-.102.097h.898V34H110Zm0 .102h.8v.102h-.8Zm-.102.102h.801v.097h-.8Zm0 .097h.704v.102h-.704Zm-.097.102h.699v.199h-.7Zm0 .199h.597v.102h-.597Zm-.102.102h.602v.097h-.602Zm0 .097h.5v.102h-.5Zm-.097.102h.597v.097h-.597Zm0 .097h.5V35h-.5ZM109.5 35h.5v.102h-.5Zm0 .102h.398v.097h-.398Zm-.102.097h.5v.102h-.5Zm0 .102h.403v.097h-.403Zm-.097.097h.5v.102h-.5Zm0 .102h.398v.102h-.398Zm-.102.102h.403v.199h-.403Zm-.097.199h.398v.097h-.398Zm0 .097h.296V36h-.296ZM109 36h.398v.102H109Zm0 .102h.3v.097h-.3Zm-.102.097h.403v.102h-.403Zm0 .102h.301v.097h-.3Zm-.097.097h.3v.204h-.3Zm0 .204H109v.097h-.2Zm-.102.097H109v.102h-.3Zm0 .102h.2v.097h-.2Zm-.097.097h.296V37h-.296Zm0 .102h.199v.102h-.2Zm-.102.102h.3v.097h-.3Zm0 .097h.2v.102h-.2Zm-.102.102h.301v.097h-.3Zm0 .097h.204v.204h-.204Zm-.097.204h.199v.199h-.2Zm-.102.199h.2v.097h-.2Zm0 .097h.102V38h-.102Zm0 .102h.102v.094h-.102Zm0 0"/></clipPath><clipPath id="h"><path d="M130.777 16.691c-11.398 4.66-17.82 9.887-22.582 21.407 2.035-3.871 3.625-8.301 23.29-15.707C143.491 17.563 149.18 6.137 150.89 0c-3.262 6.367-8.38 12.293-20.114 16.691"/></clipPath><linearGradient id="c" x1="0" x2="1" y1="0" y2="0" gradientTransform="translate(104.197 28.805)scale(45.3331)" gradientUnits="userSpaceOnUse"><stop offset="0" style="stop-color:#ec1b2f;stop-opacity:1"/><stop offset=".004" style="stop-color:#ec1b2f;stop-opacity:1"/><stop offset=".008" style="stop-color:#ec1b30;stop-opacity:1"/><stop offset=".016" style="stop-color:#ec1b30;stop-opacity:1"/><stop offset=".02" style="stop-color:#ec1c30;stop-opacity:1"/><stop offset=".023" style="stop-color:#ec1c30;stop-opacity:1"/><stop offset=".027" style="stop-color:#ec1d31;stop-opacity:1"/><stop offset=".031" style="stop-color:#ec1d31;stop-opacity:1"/><stop offset=".035" style="stop-color:#ed1d31;stop-opacity:1"/><stop offset=".039" style="stop-color:#ed1d31;stop-opacity:1"/><stop offset=".047" style="stop-color:#ed1e32;stop-opacity:1"/><stop offset=".051" style="stop-color:#ed1e32;stop-opacity:1"/><stop offset=".055" style="stop-color:#ed1f32;stop-opacity:1"/><stop offset=".059" style="stop-color:#ed1f33;stop-opacity:1"/><stop offset=".063" style="stop-color:#ed1f33;stop-opacity:1"/><stop offset=".066" style="stop-color:#ed1f33;stop-opacity:1"/><stop offset=".07" style="stop-color:#ee2033;stop-opacity:1"/><stop offset=".074" style="stop-color:#ee2033;stop-opacity:1"/><stop offset=".078" style="stop-color:#ee2034;stop-opacity:1"/><stop offset=".082" style="stop-color:#ee2134;stop-opacity:1"/><stop offset=".086" style="stop-color:#ee2134;stop-opacity:1"/><stop offset=".09" style="stop-color:#ee2134;stop-opacity:1"/><stop offset=".094" style="stop-color:#ee2235;stop-opacity:1"/><stop offset=".098" style="stop-color:#ee2235;stop-opacity:1"/><stop offset=".102" style="stop-color:#ee2335;stop-opacity:1"/><stop offset=".105" style="stop-color:#ee2335;stop-opacity:1"/><stop offset=".109" style="stop-color:#ee2435;stop-opacity:1"/><stop offset=".113" style="stop-color:#ee2436;stop-opacity:1"/><stop offset=".117" style="stop-color:#ee2536;stop-opacity:1"/><stop offset=".121" style="stop-color:#ee2536;stop-opacity:1"/><stop offset=".125" style="stop-color:#ee2536;stop-opacity:1"/><stop offset=".129" style="stop-color:#ee2636;stop-opacity:1"/><stop offset=".133" style="stop-color:#ee2637;stop-opacity:1"/><stop offset=".137" style="stop-color:#ee2737;stop-opacity:1"/><stop offset=".141" style="stop-color:#ee2737;stop-opacity:1"/><stop offset=".145" style="stop-color:#ee2837;stop-opacity:1"/><stop offset=".148" style="stop-color:#ee2838;stop-opacity:1"/><stop offset=".152" style="stop-color:#ee2838;stop-opacity:1"/><stop offset=".156" style="stop-color:#ee2938;stop-opacity:1"/><stop offset=".16" style="stop-color:#ee2938;stop-opacity:1"/><stop offset=".164" style="stop-color:#ee2a38;stop-opacity:1"/><stop offset=".172" style="stop-color:#ee2a39;stop-opacity:1"/><stop offset=".18" style="stop-color:#ee2b39;stop-opacity:1"/><stop offset=".184" style="stop-color:#ef2c39;stop-opacity:1"/><stop offset=".188" style="stop-color:#ef2d3a;stop-opacity:1"/><stop offset=".191" style="stop-color:#ef2d3a;stop-opacity:1"/><stop offset=".195" style="stop-color:#ef2d3a;stop-opacity:1"/><stop offset=".199" style="stop-color:#ef2e3a;stop-opacity:1"/><stop offset=".203" style="stop-color:#ef2e3a;stop-opacity:1"/><stop offset=".207" style="stop-color:#ef2f3a;stop-opacity:1"/><stop offset=".211" style="stop-color:#ef2f3b;stop-opacity:1"/><stop offset=".215" style="stop-color:#ef303b;stop-opacity:1"/><stop offset=".219" style="stop-color:#ef303b;stop-opacity:1"/><stop offset=".223" style="stop-color:#ef313b;stop-opacity:1"/><stop offset=".227" style="stop-color:#ef323b;stop-opacity:1"/><stop offset=".23" style="stop-color:#ef323b;stop-opacity:1"/><stop offset=".234" style="stop-color:#ef333b;stop-opacity:1"/><stop offset=".238" style="stop-color:#ef333c;stop-opacity:1"/><stop offset=".242" style="stop-color:#ef343c;stop-opacity:1"/><stop offset=".246" style="stop-color:#ef343c;stop-opacity:1"/><stop offset=".25" style="stop-color:#ef353c;stop-opacity:1"/><stop offset=".254" style="stop-color:#ef353d;stop-opacity:1"/><stop offset=".258" style="stop-color:#ef363d;stop-opacity:1"/><stop offset=".262" style="stop-color:#ef363d;stop-opacity:1"/><stop offset=".266" style="stop-color:#ef373d;stop-opacity:1"/><stop offset=".27" style="stop-color:#f0373e;stop-opacity:1"/><stop offset=".273" style="stop-color:#f0383e;stop-opacity:1"/><stop offset=".277" style="stop-color:#f0393e;stop-opacity:1"/><stop offset=".281" style="stop-color:#f0393e;stop-opacity:1"/><stop offset=".285" style="stop-color:#f03a3e;stop-opacity:1"/><stop offset=".289" style="stop-color:#f03a3e;stop-opacity:1"/><stop offset=".293" style="stop-color:#f03b3f;stop-opacity:1"/><stop offset=".297" style="stop-color:#f03c3f;stop-opacity:1"/><stop offset=".301" style="stop-color:#f03d3f;stop-opacity:1"/><stop offset=".305" style="stop-color:#f03d3f;stop-opacity:1"/><stop offset=".309" style="stop-color:#f03e3f;stop-opacity:1"/><stop offset=".313" style="stop-color:#f03e3f;stop-opacity:1"/><stop offset=".316" style="stop-color:#f03f40;stop-opacity:1"/><stop offset=".32" style="stop-color:#f04040;stop-opacity:1"/><stop offset=".324" style="stop-color:#f04040;stop-opacity:1"/><stop offset=".328" style="stop-color:#f04140;stop-opacity:1"/><stop offset=".332" style="stop-color:#f04141;stop-opacity:1"/><stop offset=".336" style="stop-color:#f04241;stop-opacity:1"/><stop offset=".344" style="stop-color:#f04241;stop-opacity:1"/><stop offset=".348" style="stop-color:#f04241;stop-opacity:1"/><stop offset=".352" style="stop-color:#f04140;stop-opacity:1"/><stop offset=".355" style="stop-color:#f03f40;stop-opacity:1"/><stop offset=".359" style="stop-color:#f03e3f;stop-opacity:1"/><stop offset=".363" style="stop-color:#f03d3f;stop-opacity:1"/><stop offset=".367" style="stop-color:#f03c3f;stop-opacity:1"/><stop offset=".371" style="stop-color:#f03a3f;stop-opacity:1"/><stop offset=".375" style="stop-color:#f0393e;stop-opacity:1"/><stop offset=".379" style="stop-color:#f0383e;stop-opacity:1"/><stop offset=".383" style="stop-color:#f0373d;stop-opacity:1"/><stop offset=".387" style="stop-color:#ef363d;stop-opacity:1"/><stop offset=".391" style="stop-color:#ef353c;stop-opacity:1"/><stop offset=".395" style="stop-color:#ef343c;stop-opacity:1"/><stop offset=".398" style="stop-color:#ef333c;stop-opacity:1"/><stop offset=".402" style="stop-color:#ef323b;stop-opacity:1"/><stop offset=".406" style="stop-color:#ef313b;stop-opacity:1"/><stop offset=".41" style="stop-color:#ef303b;stop-opacity:1"/><stop offset=".414" style="stop-color:#ef2e3a;stop-opacity:1"/><stop offset=".418" style="stop-color:#ef2d3a;stop-opacity:1"/><stop offset=".422" style="stop-color:#ef2c3a;stop-opacity:1"/><stop offset=".426" style="stop-color:#ef2b39;stop-opacity:1"/><stop offset=".43" style="stop-color:#ee2a39;stop-opacity:1"/><stop offset=".434" style="stop-color:#ee2938;stop-opacity:1"/><stop offset=".438" style="stop-color:#ee2838;stop-opacity:1"/><stop offset=".441" style="stop-color:#ee2737;stop-opacity:1"/><stop offset=".445" style="stop-color:#ee2637;stop-opacity:1"/><stop offset=".449" style="stop-color:#ee2637;stop-opacity:1"/><stop offset=".453" style="stop-color:#ee2536;stop-opacity:1"/><stop offset=".457" style="stop-color:#ee2436;stop-opacity:1"/><stop offset=".461" style="stop-color:#ee2335;stop-opacity:1"/><stop offset=".465" style="stop-color:#ee2235;stop-opacity:1"/><stop offset=".469" style="stop-color:#ee2234;stop-opacity:1"/><stop offset=".473" style="stop-color:#ee2134;stop-opacity:1"/><stop offset=".477" style="stop-color:#ee2033;stop-opacity:1"/><stop offset=".48" style="stop-color:#ed1f33;stop-opacity:1"/><stop offset=".484" style="stop-color:#ed1e32;stop-opacity:1"/><stop offset=".488" style="stop-color:#ed1e32;stop-opacity:1"/><stop offset=".492" style="stop-color:#ed1d31;stop-opacity:1"/><stop offset=".496" style="stop-color:#ec1d31;stop-opacity:1"/><stop offset=".5" style="stop-color:#ec1c30;stop-opacity:1"/><stop offset=".504" style="stop-color:#ec1c30;stop-opacity:1"/><stop offset=".508" style="stop-color:#ec1c2f;stop-opacity:1"/><stop offset=".512" style="stop-color:#ec1c30;stop-opacity:1"/><stop offset=".516" style="stop-color:#ec1c30;stop-opacity:1"/><stop offset=".52" style="stop-color:#ec1d32;stop-opacity:1"/><stop offset=".523" style="stop-color:#ed1d33;stop-opacity:1"/><stop offset=".527" style="stop-color:#ed1f34;stop-opacity:1"/><stop offset=".531" style="stop-color:#ed2035;stop-opacity:1"/><stop offset=".535" style="stop-color:#ed2236;stop-opacity:1"/><stop offset=".539" style="stop-color:#ee2337;stop-opacity:1"/><stop offset=".543" style="stop-color:#ee2438;stop-opacity:1"/><stop offset=".547" style="stop-color:#ee2639;stop-opacity:1"/><stop offset=".551" style="stop-color:#ee273a;stop-opacity:1"/><stop offset=".555" style="stop-color:#ee293b;stop-opacity:1"/><stop offset=".559" style="stop-color:#ee2b3c;stop-opacity:1"/><stop offset=".563" style="stop-color:#ef2c3c;stop-opacity:1"/><stop offset=".566" style="stop-color:#ef2e3d;stop-opacity:1"/><stop offset=".57" style="stop-color:#ef2f3e;stop-opacity:1"/><stop offset=".574" style="stop-color:#ef313f;stop-opacity:1"/><stop offset=".578" style="stop-color:#ef323f;stop-opacity:1"/><stop offset=".582" style="stop-color:#ef3440;stop-opacity:1"/><stop offset=".586" style="stop-color:#ef3641;stop-opacity:1"/><stop offset=".59" style="stop-color:#f03742;stop-opacity:1"/><stop offset=".594" style="stop-color:#f03943;stop-opacity:1"/><stop offset=".598" style="stop-color:#f03b44;stop-opacity:1"/><stop offset=".602" style="stop-color:#f03c45;stop-opacity:1"/><stop offset=".605" style="stop-color:#f03e45;stop-opacity:1"/><stop offset=".609" style="stop-color:#f03f46;stop-opacity:1"/><stop offset=".613" style="stop-color:#f04046;stop-opacity:1"/><stop offset=".617" style="stop-color:#f04246;stop-opacity:1"/><stop offset=".621" style="stop-color:#f14347;stop-opacity:1"/><stop offset=".625" style="stop-color:#f14448;stop-opacity:1"/><stop offset=".629" style="stop-color:#f14548;stop-opacity:1"/><stop offset=".633" style="stop-color:#f14649;stop-opacity:1"/><stop offset=".637" style="stop-color:#f14749;stop-opacity:1"/><stop offset=".641" style="stop-color:#f14849;stop-opacity:1"/><stop offset=".645" style="stop-color:#f14a4a;stop-opacity:1"/><stop offset=".648" style="stop-color:#f14b4a;stop-opacity:1"/><stop offset=".652" style="stop-color:#f14c4b;stop-opacity:1"/><stop offset=".656" style="stop-color:#f14c4b;stop-opacity:1"/><stop offset=".66" style="stop-color:#f14d4b;stop-opacity:1"/><stop offset=".664" style="stop-color:#f14d4c;stop-opacity:1"/><stop offset=".668" style="stop-color:#f14e4c;stop-opacity:1"/><stop offset=".672" style="stop-color:#f24f4c;stop-opacity:1"/><stop offset=".676" style="stop-color:#f2504d;stop-opacity:1"/><stop offset=".68" style="stop-color:#f2504d;stop-opacity:1"/><stop offset=".684" style="stop-color:#f2514d;stop-opacity:1"/><stop offset=".688" style="stop-color:#f2514d;stop-opacity:1"/><stop offset=".691" style="stop-color:#f2524e;stop-opacity:1"/><stop offset=".695" style="stop-color:#f2534e;stop-opacity:1"/><stop offset=".699" style="stop-color:#f2534e;stop-opacity:1"/><stop offset=".703" style="stop-color:#f2534f;stop-opacity:1"/><stop offset=".707" style="stop-color:#f2544f;stop-opacity:1"/><stop offset=".711" style="stop-color:#f2544f;stop-opacity:1"/><stop offset=".719" style="stop-color:#f2544f;stop-opacity:1"/><stop offset=".727" style="stop-color:#f2544f;stop-opacity:1"/><stop offset=".73" style="stop-color:#f2554f;stop-opacity:1"/><stop offset=".734" style="stop-color:#f25550;stop-opacity:1"/><stop offset=".75" style="stop-color:#f25550;stop-opacity:1"/><stop offset=".754" style="stop-color:#f25650;stop-opacity:1"/><stop offset=".758" style="stop-color:#f25650;stop-opacity:1"/><stop offset=".766" style="stop-color:#f25650;stop-opacity:1"/><stop offset=".773" style="stop-color:#f25650;stop-opacity:1"/><stop offset=".777" style="stop-color:#f2534f;stop-opacity:1"/><stop offset=".781" style="stop-color:#f2504d;stop-opacity:1"/><stop offset=".785" style="stop-color:#f14c4c;stop-opacity:1"/><stop offset=".789" style="stop-color:#f1484a;stop-opacity:1"/><stop offset=".793" style="stop-color:#f14548;stop-opacity:1"/><stop offset=".797" style="stop-color:#f04147;stop-opacity:1"/><stop offset=".801" style="stop-color:#f03d45;stop-opacity:1"/><stop offset=".805" style="stop-color:#f03944;stop-opacity:1"/><stop offset=".809" style="stop-color:#ef3642;stop-opacity:1"/><stop offset=".813" style="stop-color:#ef3340;stop-opacity:1"/><stop offset=".816" style="stop-color:#ef313f;stop-opacity:1"/><stop offset=".82" style="stop-color:#ef2e3e;stop-opacity:1"/><stop offset=".824" style="stop-color:#ef2c3d;stop-opacity:1"/><stop offset=".828" style="stop-color:#ee2a3c;stop-opacity:1"/><stop offset=".832" style="stop-color:#ee283a;stop-opacity:1"/><stop offset=".836" style="stop-color:#ee2739;stop-opacity:1"/><stop offset=".84" style="stop-color:#ee2538;stop-opacity:1"/><stop offset=".844" style="stop-color:#ee2337;stop-opacity:1"/><stop offset=".848" style="stop-color:#ee2236;stop-opacity:1"/><stop offset=".852" style="stop-color:#ee2135;stop-opacity:1"/><stop offset=".855" style="stop-color:#ee2034;stop-opacity:1"/><stop offset=".859" style="stop-color:#ed1f33;stop-opacity:1"/><stop offset=".863" style="stop-color:#ed1e33;stop-opacity:1"/><stop offset=".867" style="stop-color:#ed1d32;stop-opacity:1"/><stop offset=".871" style="stop-color:#ec1d31;stop-opacity:1"/><stop offset=".875" style="stop-color:#ec1c31;stop-opacity:1"/><stop offset=".879" style="stop-color:#ec1c30;stop-opacity:1"/><stop offset=".883" style="stop-color:#ec1b30;stop-opacity:1"/><stop offset=".887" style="stop-color:#ec1b30;stop-opacity:1"/><stop offset=".891" style="stop-color:#ec1b2f;stop-opacity:1"/><stop offset=".895" style="stop-color:#ec1b2f;stop-opacity:1"/><stop offset=".898" style="stop-color:#ec1b2f;stop-opacity:1"/><stop offset=".906" style="stop-color:#ec1b2f;stop-opacity:1"/><stop offset=".938" style="stop-color:#ec1b2f;stop-opacity:1"/><stop offset="1" style="stop-color:#ec1b2f;stop-opacity:1"/></linearGradient><linearGradient id="f" x1="0" x2="1" y1="0" y2="0" gradientTransform="translate(101.104 38.726)scale(45.4494)" gradientUnits="userSpaceOnUse"><stop offset="0" style="stop-color:#243870;stop-opacity:1"/><stop offset=".004" style="stop-color:#253870;stop-opacity:1"/><stop offset=".008" style="stop-color:#253871;stop-opacity:1"/><stop offset=".012" style="stop-color:#253972;stop-opacity:1"/><stop offset=".016" style="stop-color:#253973;stop-opacity:1"/><stop offset=".02" style="stop-color:#253973;stop-opacity:1"/><stop offset=".023" style="stop-color:#253a74;stop-opacity:1"/><stop offset=".027" style="stop-color:#253a75;stop-opacity:1"/><stop offset=".031" style="stop-color:#253b76;stop-opacity:1"/><stop offset=".035" style="stop-color:#253b77;stop-opacity:1"/><stop offset=".039" style="stop-color:#253c77;stop-opacity:1"/><stop offset=".043" style="stop-color:#253c78;stop-opacity:1"/><stop offset=".047" style="stop-color:#253c79;stop-opacity:1"/><stop offset=".051" style="stop-color:#253d7a;stop-opacity:1"/><stop offset=".055" style="stop-color:#253d7b;stop-opacity:1"/><stop offset=".059" style="stop-color:#253e7c;stop-opacity:1"/><stop offset=".063" style="stop-color:#253e7d;stop-opacity:1"/><stop offset=".066" style="stop-color:#253f7e;stop-opacity:1"/><stop offset=".07" style="stop-color:#253f7e;stop-opacity:1"/><stop offset=".074" style="stop-color:#25407f;stop-opacity:1"/><stop offset=".078" style="stop-color:#254080;stop-opacity:1"/><stop offset=".082" style="stop-color:#254181;stop-opacity:1"/><stop offset=".086" style="stop-color:#254181;stop-opacity:1"/><stop offset=".09" style="stop-color:#254282;stop-opacity:1"/><stop offset=".094" style="stop-color:#254283;stop-opacity:1"/><stop offset=".098" style="stop-color:#264383;stop-opacity:1"/><stop offset=".102" style="stop-color:#274384;stop-opacity:1"/><stop offset=".105" style="stop-color:#274484;stop-opacity:1"/><stop offset=".109" style="stop-color:#284485;stop-opacity:1"/><stop offset=".113" style="stop-color:#294586;stop-opacity:1"/><stop offset=".117" style="stop-color:#2a4586;stop-opacity:1"/><stop offset=".121" style="stop-color:#2b4687;stop-opacity:1"/><stop offset=".125" style="stop-color:#2c4688;stop-opacity:1"/><stop offset=".129" style="stop-color:#2c4789;stop-opacity:1"/><stop offset=".133" style="stop-color:#2d4789;stop-opacity:1"/><stop offset=".137" style="stop-color:#2e488a;stop-opacity:1"/><stop offset=".141" style="stop-color:#2e488a;stop-opacity:1"/><stop offset=".145" style="stop-color:#2f498b;stop-opacity:1"/><stop offset=".148" style="stop-color:#30498b;stop-opacity:1"/><stop offset=".152" style="stop-color:#314a8c;stop-opacity:1"/><stop offset=".156" style="stop-color:#314b8d;stop-opacity:1"/><stop offset=".16" style="stop-color:#324b8d;stop-opacity:1"/><stop offset=".164" style="stop-color:#334c8e;stop-opacity:1"/><stop offset=".168" style="stop-color:#334c8f;stop-opacity:1"/><stop offset=".172" style="stop-color:#344d8f;stop-opacity:1"/><stop offset=".176" style="stop-color:#354e90;stop-opacity:1"/><stop offset=".18" style="stop-color:#364e91;stop-opacity:1"/><stop offset=".184" style="stop-color:#374f91;stop-opacity:1"/><stop offset=".188" style="stop-color:#384f92;stop-opacity:1"/><stop offset=".191" style="stop-color:#395092;stop-opacity:1"/><stop offset=".195" style="stop-color:#395093;stop-opacity:1"/><stop offset=".199" style="stop-color:#3a5194;stop-opacity:1"/><stop offset=".203" style="stop-color:#3b5295;stop-opacity:1"/><stop offset=".207" style="stop-color:#3c5395;stop-opacity:1"/><stop offset=".211" style="stop-color:#3d5395;stop-opacity:1"/><stop offset=".215" style="stop-color:#3e5496;stop-opacity:1"/><stop offset=".219" style="stop-color:#3f5597;stop-opacity:1"/><stop offset=".223" style="stop-color:#405598;stop-opacity:1"/><stop offset=".227" style="stop-color:#415699;stop-opacity:1"/><stop offset=".23" style="stop-color:#425799;stop-opacity:1"/><stop offset=".234" style="stop-color:#435799;stop-opacity:1"/><stop offset=".238" style="stop-color:#43589a;stop-opacity:1"/><stop offset=".242" style="stop-color:#44599a;stop-opacity:1"/><stop offset=".246" style="stop-color:#46599b;stop-opacity:1"/><stop offset=".25" style="stop-color:#475a9c;stop-opacity:1"/><stop offset=".254" style="stop-color:#485b9c;stop-opacity:1"/><stop offset=".258" style="stop-color:#485c9d;stop-opacity:1"/><stop offset=".262" style="stop-color:#4a5c9e;stop-opacity:1"/><stop offset=".266" style="stop-color:#4b5d9e;stop-opacity:1"/><stop offset=".27" style="stop-color:#4c5d9f;stop-opacity:1"/><stop offset=".273" style="stop-color:#4d5e9f;stop-opacity:1"/><stop offset=".277" style="stop-color:#4e5fa0;stop-opacity:1"/><stop offset=".281" style="stop-color:#4f5fa0;stop-opacity:1"/><stop offset=".285" style="stop-color:#5060a1;stop-opacity:1"/><stop offset=".289" style="stop-color:#5161a2;stop-opacity:1"/><stop offset=".293" style="stop-color:#5262a2;stop-opacity:1"/><stop offset=".297" style="stop-color:#5462a3;stop-opacity:1"/><stop offset=".301" style="stop-color:#5563a4;stop-opacity:1"/><stop offset=".305" style="stop-color:#5664a4;stop-opacity:1"/><stop offset=".309" style="stop-color:#5664a4;stop-opacity:1"/><stop offset=".313" style="stop-color:#5664a4;stop-opacity:1"/><stop offset=".316" style="stop-color:#5563a3;stop-opacity:1"/><stop offset=".32" style="stop-color:#5362a3;stop-opacity:1"/><stop offset=".324" style="stop-color:#5262a2;stop-opacity:1"/><stop offset=".328" style="stop-color:#5161a1;stop-opacity:1"/><stop offset=".332" style="stop-color:#5060a1;stop-opacity:1"/><stop offset=".336" style="stop-color:#4e5fa0;stop-opacity:1"/><stop offset=".34" style="stop-color:#4d5e9f;stop-opacity:1"/><stop offset=".344" style="stop-color:#4c5e9f;stop-opacity:1"/><stop offset=".348" style="stop-color:#4b5d9e;stop-opacity:1"/><stop offset=".352" style="stop-color:#4a5c9e;stop-opacity:1"/><stop offset=".355" style="stop-color:#485b9d;stop-opacity:1"/><stop offset=".359" style="stop-color:#475a9c;stop-opacity:1"/><stop offset=".363" style="stop-color:#465a9c;stop-opacity:1"/><stop offset=".367" style="stop-color:#45599b;stop-opacity:1"/><stop offset=".371" style="stop-color:#44589a;stop-opacity:1"/><stop offset=".375" style="stop-color:#435899;stop-opacity:1"/><stop offset=".379" style="stop-color:#425799;stop-opacity:1"/><stop offset=".383" style="stop-color:#415698;stop-opacity:1"/><stop offset=".387" style="stop-color:#3f5697;stop-opacity:1"/><stop offset=".391" style="stop-color:#3e5597;stop-opacity:1"/><stop offset=".395" style="stop-color:#3d5496;stop-opacity:1"/><stop offset=".398" style="stop-color:#3c5395;stop-opacity:1"/><stop offset=".402" style="stop-color:#3b5294;stop-opacity:1"/><stop offset=".406" style="stop-color:#3a5294;stop-opacity:1"/><stop offset=".41" style="stop-color:#395193;stop-opacity:1"/><stop offset=".414" style="stop-color:#385092;stop-opacity:1"/><stop offset=".418" style="stop-color:#374f91;stop-opacity:1"/><stop offset=".422" style="stop-color:#364f91;stop-opacity:1"/><stop offset=".426" style="stop-color:#354e90;stop-opacity:1"/><stop offset=".43" style="stop-color:#344d8f;stop-opacity:1"/><stop offset=".434" style="stop-color:#334c8e;stop-opacity:1"/><stop offset=".438" style="stop-color:#324c8e;stop-opacity:1"/><stop offset=".441" style="stop-color:#324b8d;stop-opacity:1"/><stop offset=".445" style="stop-color:#314a8c;stop-opacity:1"/><stop offset=".449" style="stop-color:#304a8b;stop-opacity:1"/><stop offset=".453" style="stop-color:#2f498b;stop-opacity:1"/><stop offset=".457" style="stop-color:#2e488a;stop-opacity:1"/><stop offset=".461" style="stop-color:#2d4889;stop-opacity:1"/><stop offset=".465" style="stop-color:#2c4789;stop-opacity:1"/><stop offset=".469" style="stop-color:#2c4688;stop-opacity:1"/><stop offset=".473" style="stop-color:#2b4687;stop-opacity:1"/><stop offset=".477" style="stop-color:#2a4586;stop-opacity:1"/><stop offset=".48" style="stop-color:#294485;stop-opacity:1"/><stop offset=".484" style="stop-color:#284484;stop-opacity:1"/><stop offset=".488" style="stop-color:#274384;stop-opacity:1"/><stop offset=".492" style="stop-color:#264383;stop-opacity:1"/><stop offset=".496" style="stop-color:#254282;stop-opacity:1"/><stop offset=".5" style="stop-color:#254282;stop-opacity:1"/><stop offset=".504" style="stop-color:#254181;stop-opacity:1"/><stop offset=".508" style="stop-color:#254080;stop-opacity:1"/><stop offset=".512" style="stop-color:#25407f;stop-opacity:1"/><stop offset=".516" style="stop-color:#253f7e;stop-opacity:1"/><stop offset=".52" style="stop-color:#253e7d;stop-opacity:1"/><stop offset=".523" style="stop-color:#253e7c;stop-opacity:1"/><stop offset=".527" style="stop-color:#253d7b;stop-opacity:1"/><stop offset=".531" style="stop-color:#253d7a;stop-opacity:1"/><stop offset=".535" style="stop-color:#253c79;stop-opacity:1"/><stop offset=".539" style="stop-color:#253c78;stop-opacity:1"/><stop offset=".543" style="stop-color:#253b77;stop-opacity:1"/><stop offset=".547" style="stop-color:#253b76;stop-opacity:1"/><stop offset=".551" style="stop-color:#253a75;stop-opacity:1"/><stop offset=".555" style="stop-color:#253a74;stop-opacity:1"/><stop offset=".559" style="stop-color:#253973;stop-opacity:1"/><stop offset=".563" style="stop-color:#253972;stop-opacity:1"/><stop offset=".566" style="stop-color:#253871;stop-opacity:1"/><stop offset=".57" style="stop-color:#253870;stop-opacity:1"/><stop offset=".574" style="stop-color:#253871;stop-opacity:1"/><stop offset=".578" style="stop-color:#253871;stop-opacity:1"/><stop offset=".582" style="stop-color:#253973;stop-opacity:1"/><stop offset=".586" style="stop-color:#253974;stop-opacity:1"/><stop offset=".59" style="stop-color:#253a75;stop-opacity:1"/><stop offset=".594" style="stop-color:#253b77;stop-opacity:1"/><stop offset=".598" style="stop-color:#253c78;stop-opacity:1"/><stop offset=".602" style="stop-color:#253d7a;stop-opacity:1"/><stop offset=".605" style="stop-color:#253d7b;stop-opacity:1"/><stop offset=".609" style="stop-color:#253e7d;stop-opacity:1"/><stop offset=".613" style="stop-color:#253f7e;stop-opacity:1"/><stop offset=".617" style="stop-color:#254080;stop-opacity:1"/><stop offset=".621" style="stop-color:#254080;stop-opacity:1"/><stop offset=".625" style="stop-color:#254181;stop-opacity:1"/><stop offset=".629" style="stop-color:#264282;stop-opacity:1"/><stop offset=".633" style="stop-color:#274283;stop-opacity:1"/><stop offset=".637" style="stop-color:#284383;stop-opacity:1"/><stop offset=".641" style="stop-color:#294384;stop-opacity:1"/><stop offset=".645" style="stop-color:#2a4485;stop-opacity:1"/><stop offset=".648" style="stop-color:#2b4486;stop-opacity:1"/><stop offset=".652" style="stop-color:#2d4586;stop-opacity:1"/><stop offset=".656" style="stop-color:#2e4587;stop-opacity:1"/><stop offset=".66" style="stop-color:#2f4688;stop-opacity:1"/><stop offset=".664" style="stop-color:#2f4688;stop-opacity:1"/><stop offset=".668" style="stop-color:#304789;stop-opacity:1"/><stop offset=".672" style="stop-color:#304789;stop-opacity:1"/><stop offset=".676" style="stop-color:#314789;stop-opacity:1"/><stop offset=".68" style="stop-color:#324889;stop-opacity:1"/><stop offset=".684" style="stop-color:#32488a;stop-opacity:1"/><stop offset=".688" style="stop-color:#32488a;stop-opacity:1"/><stop offset=".691" style="stop-color:#32498b;stop-opacity:1"/><stop offset=".695" style="stop-color:#33498b;stop-opacity:1"/><stop offset=".699" style="stop-color:#32498a;stop-opacity:1"/><stop offset=".703" style="stop-color:#32488a;stop-opacity:1"/><stop offset=".707" style="stop-color:#31488a;stop-opacity:1"/><stop offset=".711" style="stop-color:#314789;stop-opacity:1"/><stop offset=".715" style="stop-color:#304789;stop-opacity:1"/><stop offset=".719" style="stop-color:#2f4688;stop-opacity:1"/><stop offset=".723" style="stop-color:#2f4688;stop-opacity:1"/><stop offset=".727" style="stop-color:#2e4687;stop-opacity:1"/><stop offset=".73" style="stop-color:#2e4587;stop-opacity:1"/><stop offset=".734" style="stop-color:#2d4586;stop-opacity:1"/><stop offset=".738" style="stop-color:#2c4586;stop-opacity:1"/><stop offset=".742" style="stop-color:#2c4485;stop-opacity:1"/><stop offset=".746" style="stop-color:#2b4485;stop-opacity:1"/><stop offset=".75" style="stop-color:#2a4485;stop-opacity:1"/><stop offset=".754" style="stop-color:#2a4384;stop-opacity:1"/><stop offset=".758" style="stop-color:#294383;stop-opacity:1"/><stop offset=".762" style="stop-color:#284383;stop-opacity:1"/><stop offset=".766" style="stop-color:#284283;stop-opacity:1"/><stop offset=".77" style="stop-color:#274282;stop-opacity:1"/><stop offset=".773" style="stop-color:#274282;stop-opacity:1"/><stop offset=".777" style="stop-color:#264181;stop-opacity:1"/><stop offset=".781" style="stop-color:#254181;stop-opacity:1"/><stop offset=".785" style="stop-color:#254180;stop-opacity:1"/><stop offset=".789" style="stop-color:#254080;stop-opacity:1"/><stop offset=".793" style="stop-color:#25407f;stop-opacity:1"/><stop offset=".797" style="stop-color:#263f7f;stop-opacity:1"/><stop offset=".801" style="stop-color:#253f7e;stop-opacity:1"/><stop offset=".805" style="stop-color:#253e7d;stop-opacity:1"/><stop offset=".809" style="stop-color:#253e7d;stop-opacity:1"/><stop offset=".813" style="stop-color:#253e7c;stop-opacity:1"/><stop offset=".816" style="stop-color:#253e7b;stop-opacity:1"/><stop offset=".82" style="stop-color:#253d7b;stop-opacity:1"/><stop offset=".824" style="stop-color:#253d7a;stop-opacity:1"/><stop offset=".828" style="stop-color:#253c7a;stop-opacity:1"/><stop offset=".832" style="stop-color:#253c79;stop-opacity:1"/><stop offset=".836" style="stop-color:#253c78;stop-opacity:1"/><stop offset=".84" style="stop-color:#253c78;stop-opacity:1"/><stop offset=".844" style="stop-color:#253b77;stop-opacity:1"/><stop offset=".848" style="stop-color:#253b76;stop-opacity:1"/><stop offset=".852" style="stop-color:#253b76;stop-opacity:1"/><stop offset=".855" style="stop-color:#253a75;stop-opacity:1"/><stop offset=".859" style="stop-color:#253a75;stop-opacity:1"/><stop offset=".863" style="stop-color:#253a74;stop-opacity:1"/><stop offset=".867" style="stop-color:#253973;stop-opacity:1"/><stop offset=".871" style="stop-color:#253973;stop-opacity:1"/><stop offset=".875" style="stop-color:#253972;stop-opacity:1"/><stop offset=".879" style="stop-color:#253872;stop-opacity:1"/><stop offset=".883" style="stop-color:#253871;stop-opacity:1"/><stop offset=".887" style="stop-color:#253870;stop-opacity:1"/><stop offset=".891" style="stop-color:#253870;stop-opacity:1"/><stop offset=".906" style="stop-color:#243870;stop-opacity:1"/><stop offset=".938" style="stop-color:#243870;stop-opacity:1"/><stop offset="1" style="stop-color:#243870;stop-opacity:1"/></linearGradient><linearGradient id="i" x1="0" x2="1" y1="0" y2="0" gradientTransform="translate(108.199 19.048)scale(42.6929)" gradientUnits="userSpaceOnUse"><stop offset="0" style="stop-color:#243870;stop-opacity:1"/><stop offset=".004" style="stop-color:#253870;stop-opacity:1"/><stop offset=".008" style="stop-color:#253871;stop-opacity:1"/><stop offset=".012" style="stop-color:#253972;stop-opacity:1"/><stop offset=".016" style="stop-color:#253973;stop-opacity:1"/><stop offset=".02" style="stop-color:#253a74;stop-opacity:1"/><stop offset=".023" style="stop-color:#253a75;stop-opacity:1"/><stop offset=".027" style="stop-color:#253a75;stop-opacity:1"/><stop offset=".031" style="stop-color:#253b76;stop-opacity:1"/><stop offset=".035" style="stop-color:#253b77;stop-opacity:1"/><stop offset=".039" style="stop-color:#253c78;stop-opacity:1"/><stop offset=".043" style="stop-color:#253c79;stop-opacity:1"/><stop offset=".047" style="stop-color:#253c7a;stop-opacity:1"/><stop offset=".051" style="stop-color:#253d7b;stop-opacity:1"/><stop offset=".055" style="stop-color:#253e7c;stop-opacity:1"/><stop offset=".059" style="stop-color:#253e7d;stop-opacity:1"/><stop offset=".063" style="stop-color:#253e7d;stop-opacity:1"/><stop offset=".066" style="stop-color:#253f7e;stop-opacity:1"/><stop offset=".07" style="stop-color:#25407f;stop-opacity:1"/><stop offset=".074" style="stop-color:#254080;stop-opacity:1"/><stop offset=".078" style="stop-color:#254181;stop-opacity:1"/><stop offset=".082" style="stop-color:#254181;stop-opacity:1"/><stop offset=".086" style="stop-color:#264282;stop-opacity:1"/><stop offset=".09" style="stop-color:#274282;stop-opacity:1"/><stop offset=".094" style="stop-color:#284383;stop-opacity:1"/><stop offset=".098" style="stop-color:#294384;stop-opacity:1"/><stop offset=".102" style="stop-color:#294485;stop-opacity:1"/><stop offset=".105" style="stop-color:#2a4485;stop-opacity:1"/><stop offset=".109" style="stop-color:#2b4586;stop-opacity:1"/><stop offset=".113" style="stop-color:#2c4587;stop-opacity:1"/><stop offset=".117" style="stop-color:#2d4687;stop-opacity:1"/><stop offset=".121" style="stop-color:#2e4688;stop-opacity:1"/><stop offset=".125" style="stop-color:#2e4789;stop-opacity:1"/><stop offset=".129" style="stop-color:#304889;stop-opacity:1"/><stop offset=".133" style="stop-color:#31488a;stop-opacity:1"/><stop offset=".137" style="stop-color:#32498b;stop-opacity:1"/><stop offset=".141" style="stop-color:#32498b;stop-opacity:1"/><stop offset=".145" style="stop-color:#334a8c;stop-opacity:1"/><stop offset=".148" style="stop-color:#344b8d;stop-opacity:1"/><stop offset=".152" style="stop-color:#354b8d;stop-opacity:1"/><stop offset=".156" style="stop-color:#354c8e;stop-opacity:1"/><stop offset=".16" style="stop-color:#374c8e;stop-opacity:1"/><stop offset=".164" style="stop-color:#384d8f;stop-opacity:1"/><stop offset=".168" style="stop-color:#394e90;stop-opacity:1"/><stop offset=".172" style="stop-color:#394e91;stop-opacity:1"/><stop offset=".176" style="stop-color:#3a4f91;stop-opacity:1"/><stop offset=".18" style="stop-color:#3b5091;stop-opacity:1"/><stop offset=".184" style="stop-color:#3c5092;stop-opacity:1"/><stop offset=".188" style="stop-color:#3d5193;stop-opacity:1"/><stop offset=".191" style="stop-color:#3e5294;stop-opacity:1"/><stop offset=".195" style="stop-color:#405295;stop-opacity:1"/><stop offset=".199" style="stop-color:#415395;stop-opacity:1"/><stop offset=".203" style="stop-color:#425496;stop-opacity:1"/><stop offset=".207" style="stop-color:#435496;stop-opacity:1"/><stop offset=".211" style="stop-color:#445597;stop-opacity:1"/><stop offset=".219" style="stop-color:#445597;stop-opacity:1"/><stop offset=".223" style="stop-color:#425496;stop-opacity:1"/><stop offset=".227" style="stop-color:#415496;stop-opacity:1"/><stop offset=".23" style="stop-color:#405395;stop-opacity:1"/><stop offset=".234" style="stop-color:#3f5295;stop-opacity:1"/><stop offset=".238" style="stop-color:#3e5294;stop-opacity:1"/><stop offset=".242" style="stop-color:#3d5193;stop-opacity:1"/><stop offset=".246" style="stop-color:#3d5093;stop-opacity:1"/><stop offset=".25" style="stop-color:#3c5092;stop-opacity:1"/><stop offset=".254" style="stop-color:#3b4f92;stop-opacity:1"/><stop offset=".258" style="stop-color:#3a4f91;stop-opacity:1"/><stop offset=".262" style="stop-color:#394e90;stop-opacity:1"/><stop offset=".266" style="stop-color:#384e90;stop-opacity:1"/><stop offset=".27" style="stop-color:#384d8f;stop-opacity:1"/><stop offset=".273" style="stop-color:#374d8f;stop-opacity:1"/><stop offset=".277" style="stop-color:#364c8e;stop-opacity:1"/><stop offset=".281" style="stop-color:#354b8d;stop-opacity:1"/><stop offset=".285" style="stop-color:#344b8d;stop-opacity:1"/><stop offset=".289" style="stop-color:#334a8c;stop-opacity:1"/><stop offset=".293" style="stop-color:#334a8c;stop-opacity:1"/><stop offset=".297" style="stop-color:#32498b;stop-opacity:1"/><stop offset=".301" style="stop-color:#31498b;stop-opacity:1"/><stop offset=".305" style="stop-color:#31488a;stop-opacity:1"/><stop offset=".309" style="stop-color:#304889;stop-opacity:1"/><stop offset=".313" style="stop-color:#2f4789;stop-opacity:1"/><stop offset=".316" style="stop-color:#2e4788;stop-opacity:1"/><stop offset=".32" style="stop-color:#2d4688;stop-opacity:1"/><stop offset=".324" style="stop-color:#2d4687;stop-opacity:1"/><stop offset=".328" style="stop-color:#2c4586;stop-opacity:1"/><stop offset=".332" style="stop-color:#2b4586;stop-opacity:1"/><stop offset=".336" style="stop-color:#2a4485;stop-opacity:1"/><stop offset=".34" style="stop-color:#294484;stop-opacity:1"/><stop offset=".344" style="stop-color:#294384;stop-opacity:1"/><stop offset=".348" style="stop-color:#284383;stop-opacity:1"/><stop offset=".352" style="stop-color:#284283;stop-opacity:1"/><stop offset=".355" style="stop-color:#264282;stop-opacity:1"/><stop offset=".359" style="stop-color:#254182;stop-opacity:1"/><stop offset=".363" style="stop-color:#254181;stop-opacity:1"/><stop offset=".367" style="stop-color:#254181;stop-opacity:1"/><stop offset=".371" style="stop-color:#254080;stop-opacity:1"/><stop offset=".375" style="stop-color:#25407f;stop-opacity:1"/><stop offset=".379" style="stop-color:#253f7f;stop-opacity:1"/><stop offset=".383" style="stop-color:#253f7e;stop-opacity:1"/><stop offset=".387" style="stop-color:#253e7d;stop-opacity:1"/><stop offset=".391" style="stop-color:#253e7c;stop-opacity:1"/><stop offset=".395" style="stop-color:#253d7b;stop-opacity:1"/><stop offset=".398" style="stop-color:#253d7b;stop-opacity:1"/><stop offset=".402" style="stop-color:#253d7a;stop-opacity:1"/><stop offset=".406" style="stop-color:#253c79;stop-opacity:1"/><stop offset=".41" style="stop-color:#253c78;stop-opacity:1"/><stop offset=".414" style="stop-color:#253b77;stop-opacity:1"/><stop offset=".418" style="stop-color:#253b76;stop-opacity:1"/><stop offset=".422" style="stop-color:#253a76;stop-opacity:1"/><stop offset=".426" style="stop-color:#253a75;stop-opacity:1"/><stop offset=".43" style="stop-color:#253a74;stop-opacity:1"/><stop offset=".434" style="stop-color:#253974;stop-opacity:1"/><stop offset=".438" style="stop-color:#253973;stop-opacity:1"/><stop offset=".441" style="stop-color:#253972;stop-opacity:1"/><stop offset=".445" style="stop-color:#253871;stop-opacity:1"/><stop offset=".449" style="stop-color:#253870;stop-opacity:1"/><stop offset=".453" style="stop-color:#243870;stop-opacity:1"/><stop offset=".457" style="stop-color:#253871;stop-opacity:1"/><stop offset=".461" style="stop-color:#253872;stop-opacity:1"/><stop offset=".465" style="stop-color:#253974;stop-opacity:1"/><stop offset=".469" style="stop-color:#253a75;stop-opacity:1"/><stop offset=".473" style="stop-color:#253b77;stop-opacity:1"/><stop offset=".477" style="stop-color:#253c79;stop-opacity:1"/><stop offset=".48" style="stop-color:#253d7b;stop-opacity:1"/><stop offset=".484" style="stop-color:#253d7c;stop-opacity:1"/><stop offset=".488" style="stop-color:#253e7d;stop-opacity:1"/><stop offset=".492" style="stop-color:#263f7f;stop-opacity:1"/><stop offset=".496" style="stop-color:#254080;stop-opacity:1"/><stop offset=".5" style="stop-color:#254181;stop-opacity:1"/><stop offset=".504" style="stop-color:#264182;stop-opacity:1"/><stop offset=".508" style="stop-color:#274283;stop-opacity:1"/><stop offset=".512" style="stop-color:#294384;stop-opacity:1"/><stop offset=".516" style="stop-color:#2a4485;stop-opacity:1"/><stop offset=".52" style="stop-color:#2b4485;stop-opacity:1"/><stop offset=".523" style="stop-color:#2b4485;stop-opacity:1"/><stop offset=".527" style="stop-color:#2c4586;stop-opacity:1"/><stop offset=".531" style="stop-color:#2d4587;stop-opacity:1"/><stop offset=".535" style="stop-color:#2e4687;stop-opacity:1"/><stop offset=".539" style="stop-color:#2f4688;stop-opacity:1"/><stop offset=".543" style="stop-color:#304788;stop-opacity:1"/><stop offset=".547" style="stop-color:#314789;stop-opacity:1"/><stop offset=".551" style="stop-color:#314889;stop-opacity:1"/><stop offset=".555" style="stop-color:#314889;stop-opacity:1"/><stop offset=".559" style="stop-color:#314889;stop-opacity:1"/><stop offset=".563" style="stop-color:#31488a;stop-opacity:1"/><stop offset=".566" style="stop-color:#32488a;stop-opacity:1"/><stop offset=".57" style="stop-color:#32488a;stop-opacity:1"/><stop offset=".574" style="stop-color:#32498a;stop-opacity:1"/><stop offset=".578" style="stop-color:#33498a;stop-opacity:1"/><stop offset=".582" style="stop-color:#33498b;stop-opacity:1"/><stop offset=".586" style="stop-color:#34498b;stop-opacity:1"/><stop offset=".594" style="stop-color:#34498b;stop-opacity:1"/><stop offset=".625" style="stop-color:#34498b;stop-opacity:1"/><stop offset=".656" style="stop-color:#34498b;stop-opacity:1"/><stop offset=".66" style="stop-color:#33498b;stop-opacity:1"/><stop offset=".664" style="stop-color:#33498b;stop-opacity:1"/><stop offset=".668" style="stop-color:#32488a;stop-opacity:1"/><stop offset=".672" style="stop-color:#314889;stop-opacity:1"/><stop offset=".676" style="stop-color:#304789;stop-opacity:1"/><stop offset=".68" style="stop-color:#2f4688;stop-opacity:1"/><stop offset=".684" style="stop-color:#2f4687;stop-opacity:1"/><stop offset=".688" style="stop-color:#2e4587;stop-opacity:1"/><stop offset=".691" style="stop-color:#2d4586;stop-opacity:1"/><stop offset=".695" style="stop-color:#2c4486;stop-opacity:1"/><stop offset=".699" style="stop-color:#2b4485;stop-opacity:1"/><stop offset=".703" style="stop-color:#2a4384;stop-opacity:1"/><stop offset=".707" style="stop-color:#2a4384;stop-opacity:1"/><stop offset=".711" style="stop-color:#294384;stop-opacity:1"/><stop offset=".715" style="stop-color:#284283;stop-opacity:1"/><stop offset=".719" style="stop-color:#274282;stop-opacity:1"/><stop offset=".723" style="stop-color:#264182;stop-opacity:1"/><stop offset=".727" style="stop-color:#264181;stop-opacity:1"/><stop offset=".73" style="stop-color:#254181;stop-opacity:1"/><stop offset=".734" style="stop-color:#254080;stop-opacity:1"/><stop offset=".738" style="stop-color:#254080;stop-opacity:1"/><stop offset=".742" style="stop-color:#263f7f;stop-opacity:1"/><stop offset=".746" style="stop-color:#263f7e;stop-opacity:1"/><stop offset=".75" style="stop-color:#263e7e;stop-opacity:1"/><stop offset=".754" style="stop-color:#253e7d;stop-opacity:1"/><stop offset=".758" style="stop-color:#253d7c;stop-opacity:1"/><stop offset=".762" style="stop-color:#253d7b;stop-opacity:1"/><stop offset=".766" style="stop-color:#253d7b;stop-opacity:1"/><stop offset=".77" style="stop-color:#253d7a;stop-opacity:1"/><stop offset=".773" style="stop-color:#253d7a;stop-opacity:1"/><stop offset=".777" style="stop-color:#253c79;stop-opacity:1"/><stop offset=".781" style="stop-color:#253c79;stop-opacity:1"/><stop offset=".785" style="stop-color:#253c78;stop-opacity:1"/><stop offset=".789" style="stop-color:#253c78;stop-opacity:1"/><stop offset=".793" style="stop-color:#253b77;stop-opacity:1"/><stop offset=".797" style="stop-color:#253b77;stop-opacity:1"/><stop offset=".801" style="stop-color:#253b76;stop-opacity:1"/><stop offset=".805" style="stop-color:#253b76;stop-opacity:1"/><stop offset=".809" style="stop-color:#253a75;stop-opacity:1"/><stop offset=".813" style="stop-color:#253a75;stop-opacity:1"/><stop offset=".816" style="stop-color:#253a74;stop-opacity:1"/><stop offset=".82" style="stop-color:#253a74;stop-opacity:1"/><stop offset=".824" style="stop-color:#253973;stop-opacity:1"/><stop offset=".828" style="stop-color:#253973;stop-opacity:1"/><stop offset=".832" style="stop-color:#253972;stop-opacity:1"/><stop offset=".836" style="stop-color:#253972;stop-opacity:1"/><stop offset=".844" style="stop-color:#253972;stop-opacity:1"/><stop offset=".848" style="stop-color:#253972;stop-opacity:1"/><stop offset=".852" style="stop-color:#253871;stop-opacity:1"/><stop offset=".859" style="stop-color:#253871;stop-opacity:1"/><stop offset=".863" style="stop-color:#253871;stop-opacity:1"/><stop offset=".867" style="stop-color:#253871;stop-opacity:1"/><stop offset=".871" style="stop-color:#253870;stop-opacity:1"/><stop offset=".875" style="stop-color:#253870;stop-opacity:1"/><stop offset=".883" style="stop-color:#253870;stop-opacity:1"/><stop offset=".887" style="stop-color:#243870;stop-opacity:1"/><stop offset=".891" style="stop-color:#243870;stop-opacity:1"/><stop offset=".906" style="stop-color:#243870;stop-opacity:1"/><stop offset=".938" style="stop-color:#243870;stop-opacity:1"/><stop offset="1" style="stop-color:#243870;stop-opacity:1"/></linearGradient></defs><path d="M0 37.148V13.281h12.453v2.946H4.72v7.218h6.879v2.914h-6.88v7.84h7.735v2.95zM22.746 37.496c-5.465 0-8.183-2.086-8.183-5.687 0-4.926 5.093-6.352 11.19-6.907v-1.007c0-2.43-1.64-3.082-3.976-3.082-1.93 0-3.793.585-5.011 1.14l-1.051-2.426c1.305-.593 3.723-1.422 6.879-1.422 4.12 0 7.394 1.63 7.394 6.45v11.59c-1.601.792-4.117 1.351-7.242 1.351m3.008-10.582c-4.274.488-6.91 1.352-6.91 4.754 0 2.43 1.562 3.469 4.199 3.469 1.035 0 2.039-.207 2.71-.52zM38.133 37.46c-2.336 0-4.352-.589-5.543-1.35l1.191-2.708c.75.555 2.121 1.078 3.754 1.078 1.867 0 3.09-1.113 3.09-2.64 0-1.594-.898-2.36-2.937-3.09-3.793-1.348-4.567-3.293-4.567-5.234 0-2.989 2.516-5.414 6.344-5.414 2.234 0 3.902.52 5.207 1.316l-1.11 2.465c-.601-.453-1.785-1.04-3.199-1.04-1.863 0-2.867 1.145-2.867 2.462 0 1.527 1.227 2.289 2.973 2.945 3.906 1.46 4.8 3.336 4.8 5.516 0 3.058-2.753 5.695-7.136 5.695M54.895 37.36c-3.942 0-5.504-2.47-5.504-5.067v-11.14h-2.23v-2.704h2.23V14.32l4.539-1.18v5.31h3.265v2.702H53.93v10.934c0 1.457.629 2.43 2.187 2.43.41 0 .711-.075 1.078-.18v2.644c-.406.168-1.222.38-2.3.38M63.559 29.344c.363 3.472 2.148 5.203 5.453 5.203 2.308 0 3.98-.52 5.054-1.04l1.075 2.677c-1.407.722-3.563 1.316-6.61 1.316-5.687 0-9.297-3.437-9.297-9.75 0-6.11 3.317-9.645 8.551-9.645 5.317 0 8.211 3.293 8.031 9.575zm4.074-8.64c-2.633 0-4.457 2.015-4.348 6.487l8.293-1.18c0-3.78-1.453-5.308-3.945-5.308M87.715 21.223c-1.531-.489-3.207-.414-4.242.14v15.785h-4.54V19.453c2.083-.933 4.61-1.457 9.665-1.316zM101.828 37.148V23.895c0-1.528-.734-3.122-3.601-3.122-1.485 0-2.274.207-3.118.52v15.855h-4.535V19.453c1.887-.832 4.453-1.351 7.84-1.351 5.984 0 7.953 2.707 7.953 5.726v13.324h-4.539" style="stroke:none;fill-rule:nonzero;fill:#263d7f;fill-opacity:1"/><path d="M36.023 45.156c.13-2.308 2.192-3 4.211-3 1.801 0 3.957.399 3.957 2.547v4.676c0 .82.082 1.633.305 2h-2.504a3.1 3.1 0 0 1-.168-.863c-.793.808-1.93 1.105-3.027 1.105-1.703 0-3.055-.848-3.055-2.691 0-2.035 1.52-2.52 3.055-2.727 1.504-.226 2.914-.172 2.914-1.183 0-1.06-.719-1.211-1.598-1.211-.941 0-1.543.379-1.625 1.351h-2.465m5.688 1.824c-.406.364-1.281.383-2.04.52-.776.156-1.46.418-1.46 1.324 0 .918.715 1.145 1.5 1.145 1.93 0 2-1.528 2-2.07zM46.16 42.398h2.477v8.98H46.16zM50.578 42.398h2.336v1.664h.047c.445-1.128 1.66-1.906 2.867-1.906.172 0 .383.035.54.078v2.301a4.3 4.3 0 0 0-.891-.09c-1.817 0-2.434 1.309-2.434 2.887v4.047h-2.469v-8.98M68.297 51.379h-2.531l-1.606-6.031h-.027l-1.535 6.03h-2.543l-2.86-8.98h2.602l1.648 6.102h.043l1.492-6.102h2.395l1.531 6.082h.028l1.66-6.082h2.535zM72.07 45.156c.133-2.308 2.2-3 4.227-3 1.789 0 3.945.399 3.945 2.547v4.676c0 .82.082 1.633.305 2h-2.504a3.8 3.8 0 0 1-.172-.863c-.785.808-1.926 1.105-3.023 1.105-1.703 0-3.059-.848-3.059-2.691 0-2.035 1.523-2.52 3.059-2.727 1.52-.226 2.914-.172 2.914-1.183 0-1.06-.719-1.211-1.594-1.211-.945 0-1.547.379-1.629 1.351H72.07m5.692 1.824c-.414.364-1.282.383-2.043.52-.758.156-1.465.418-1.465 1.324 0 .918.719 1.145 1.52 1.145 1.93 0 1.988-1.528 1.988-2.07zM86.566 52.508c-.527 1.445-1.375 2.031-3.074 2.031-.508 0-1.015-.031-1.527-.082v-2.035c.465.031.96.098 1.453.086.844-.086 1.125-.969.844-1.684l-3.164-8.426h2.644l2.035 6.149h.035l1.954-6.149h2.566zM93.074 48.46c.016 1.08.914 1.513 1.887 1.513.715 0 1.617-.278 1.617-1.145 0-.75-1.027-1.012-2.8-1.387-1.423-.316-2.84-.82-2.84-2.402 0-2.297 1.98-2.883 3.914-2.883 1.949 0 3.77.66 3.953 2.86h-2.336c-.074-.953-.805-1.211-1.688-1.211-.57 0-1.379.105-1.379.828 0 .89 1.387 1.012 2.801 1.344 1.445.328 2.852.855 2.852 2.523 0 2.355-2.047 3.121-4.106 3.121-2.09 0-4.113-.781-4.222-3.16z" style="stroke:none;fill-rule:nonzero;fill:#ee2824;fill-opacity:1"/><g clip-path="url(#a)"><g clip-path="url(#b)"><path d="M104.195 8.586v40.437h45.336V8.586Zm0 0" style="stroke:none;fill-rule:nonzero;fill:url(#c)"/></g></g><g clip-path="url(#d)"><g clip-path="url(#e)"><path d="M101.105 18.453V59h45.45V18.453Zm0 0" style="stroke:none;fill-rule:nonzero;fill:url(#f)"/></g></g><g clip-path="url(#g)"><g clip-path="url(#h)"><path d="M108.2 0v38.094h42.69V0Zm0 0" style="stroke:none;fill-rule:nonzero;fill:url(#i)"/></g></g></svg>