<?xml version="1.0" encoding="UTF-8"?>
<svg xmlns="http://www.w3.org/2000/svg" xmlns:xlink="http://www.w3.org/1999/xlink" width="176pt" height="57.02pt" viewBox="0 0 176 57.02" version="1.1">
<defs>
<clipPath id="clip1">
  <path d="M 0 0 L 58 0 L 58 57.019531 L 0 57.019531 Z M 0 0 "/>
</clipPath>
</defs>
<g id="surface1">
<g clip-path="url(#clip1)" clip-rule="nonzero">
<path style=" stroke:none;fill-rule:nonzero;fill:rgb(16.795349%,59.87854%,24.873352%);fill-opacity:1;" d="M 14.949219 14.332031 C 14.984375 14.503906 15.023438 14.675781 15.058594 14.847656 C 15.332031 14.886719 15.605469 14.953125 15.882812 14.960938 C 23.019531 15.121094 30.160156 15.257812 37.296875 15.433594 C 40.617188 15.515625 43.9375 15.671875 47.257812 15.78125 C 48.882812 15.835938 50.261719 15.34375 51.535156 13.675781 C 50.476562 13.636719 49.742188 13.585938 49.007812 13.585938 C 38.75 13.582031 28.496094 13.582031 18.242188 13.582031 C 17.746094 13.582031 17.226562 13.5 16.761719 13.617188 C 16.136719 13.773438 15.550781 14.085938 14.949219 14.332031 Z M 9.742188 23.796875 C 8.953125 23.84375 8.019531 23.492188 7.511719 24.664062 C 7.886719 24.976562 8.246094 25.273438 8.757812 25.703125 C 8.914062 26.660156 9.148438 27.761719 9.265625 28.878906 C 9.746094 33.476562 11.960938 36.792969 16.261719 38.683594 C 25.253906 42.632812 34.230469 46.625 43.207031 50.601562 C 43.851562 50.886719 44.480469 51.203125 45.136719 51.515625 C 36.941406 58.605469 20.671875 59.589844 9.867188 50.039062 C -1.902344 39.628906 -3.433594 22.34375 6.84375 10.089844 C 16.753906 -1.734375 34.625 -3.417969 46.679688 6.386719 C 59.386719 16.71875 60.152344 33.914062 51.972656 44.964844 C 41.238281 41.289062 30.445312 37.59375 19.171875 33.734375 C 19.960938 33.5 20.339844 33.25 20.621094 33.328125 C 21.703125 33.628906 22.699219 33.582031 23.933594 32.75 C 22.917969 32.316406 22.09375 31.964844 20.882812 31.449219 C 22.875 30.753906 24.757812 32.355469 26.371094 30.507812 C 24.910156 30.070312 23.570312 29.667969 22.226562 29.265625 C 22.242188 29.132812 22.253906 29.003906 22.269531 28.871094 C 22.617188 28.828125 22.976562 28.703125 23.308594 28.757812 C 24.003906 28.871094 24.675781 29.121094 25.371094 29.238281 C 26.636719 29.449219 27.882812 29.476562 29.128906 28.390625 C 27.101562 27.246094 24.796875 27.546875 22.492188 26.3125 C 23.253906 26.199219 23.601562 26.0625 23.917969 26.117188 C 25.515625 26.402344 27.09375 26.773438 28.695312 27.039062 C 29.972656 27.25 31.175781 27.085938 32.1875 25.667969 C 28.972656 25.078125 25.988281 24.527344 22.539062 23.890625 C 23.621094 23.171875 24.3125 23.378906 24.933594 23.46875 C 27.996094 23.925781 31.054688 24.429688 34.117188 24.917969 C 35.683594 25.167969 36.792969 24.738281 37.863281 23.316406 C 32.570312 22.375 27.28125 22.117188 22.117188 21.140625 C 22.132812 20.964844 22.152344 20.789062 22.171875 20.613281 C 22.546875 20.574219 22.933594 20.46875 23.300781 20.507812 C 28.417969 21.046875 33.535156 21.609375 38.652344 22.167969 C 39.703125 22.28125 40.746094 22.503906 41.796875 22.519531 C 43.089844 22.542969 44.199219 22.070312 45.246094 20.660156 C 36.894531 19.777344 28.878906 19.324219 20.917969 18.257812 C 22.429688 17.6875 23.945312 17.890625 25.441406 17.988281 C 28.398438 18.171875 31.351562 18.464844 34.308594 18.675781 C 38.605469 18.980469 42.90625 19.25 47.203125 19.539062 C 49.089844 19.667969 50.851562 19.46875 52.285156 17.476562 C 50.953125 17.332031 49.867188 17.148438 48.777344 17.109375 C 43.484375 16.90625 38.183594 16.769531 32.886719 16.550781 C 27.523438 16.332031 22.160156 16.046875 16.796875 15.796875 C 16.09375 15.761719 15.382812 15.804688 14.679688 15.757812 C 13.5 15.675781 12.566406 16.085938 12.050781 17.15625 C 11.527344 18.253906 11.910156 19.199219 12.746094 20.023438 C 14.605469 21.863281 15.773438 24.089844 16.363281 26.628906 C 16.40625 26.820312 16.394531 27.027344 16.402344 27.136719 C 15.269531 26.085938 14.191406 24.910156 12.929688 23.984375 C 11.992188 23.292969 10.816406 22.773438 9.691406 23.847656 L 9.742188 23.796875 "/>
</g>
<path style=" stroke:none;fill-rule:nonzero;fill:rgb(16.795349%,59.87854%,24.873352%);fill-opacity:1;" d="M 66.589844 12.523438 L 62.460938 12.523438 L 62.460938 11.035156 L 72.507812 11.035156 L 72.507812 12.523438 L 68.359375 12.523438 L 68.359375 24.605469 L 66.589844 24.605469 L 66.589844 12.523438 "/>
<path style=" stroke:none;fill-rule:nonzero;fill:rgb(16.795349%,59.87854%,24.873352%);fill-opacity:1;" d="M 81.207031 21.945312 C 81.207031 22.953125 81.226562 23.839844 81.285156 24.605469 L 79.714844 24.605469 L 79.613281 23.015625 L 79.574219 23.015625 C 79.113281 23.800781 78.085938 24.828125 76.351562 24.828125 C 74.824219 24.828125 72.992188 23.980469 72.992188 20.558594 L 72.992188 14.859375 L 74.761719 14.859375 L 74.761719 20.253906 C 74.761719 22.109375 75.328125 23.355469 76.9375 23.355469 C 78.125 23.355469 78.949219 22.53125 79.273438 21.746094 C 79.375 21.484375 79.433594 21.160156 79.433594 20.839844 L 79.433594 14.859375 L 81.207031 14.859375 L 81.207031 21.945312 "/>
<path style=" stroke:none;fill-rule:nonzero;fill:rgb(16.795349%,59.87854%,24.873352%);fill-opacity:1;" d="M 84.144531 17.898438 C 84.144531 16.753906 84.125 15.765625 84.066406 14.859375 L 85.613281 14.859375 L 85.675781 16.773438 L 85.757812 16.773438 C 86.199219 15.464844 87.265625 14.636719 88.453125 14.636719 C 88.65625 14.636719 88.796875 14.660156 88.957031 14.699219 L 88.957031 16.371094 C 88.777344 16.328125 88.59375 16.308594 88.351562 16.308594 C 87.105469 16.308594 86.21875 17.253906 85.976562 18.585938 C 85.9375 18.824219 85.898438 19.109375 85.898438 19.410156 L 85.898438 24.605469 L 84.144531 24.605469 L 84.144531 17.898438 "/>
<path style=" stroke:none;fill-rule:nonzero;fill:rgb(16.795349%,59.87854%,24.873352%);fill-opacity:1;" d="M 92.5625 19.328125 L 92.601562 19.328125 C 92.84375 18.988281 93.183594 18.5625 93.46875 18.222656 L 96.328125 14.859375 L 98.460938 14.859375 L 94.695312 18.867188 L 98.984375 24.605469 L 96.832031 24.605469 L 93.46875 19.933594 L 92.5625 20.941406 L 92.5625 24.605469 L 90.808594 24.605469 L 90.808594 10.308594 L 92.5625 10.308594 L 92.5625 19.328125 "/>
<path style=" stroke:none;fill-rule:nonzero;fill:rgb(16.795349%,59.87854%,24.873352%);fill-opacity:1;" d="M 100.59375 17.496094 C 100.59375 16.492188 100.574219 15.664062 100.515625 14.859375 L 102.066406 14.859375 L 102.144531 16.429688 L 102.207031 16.429688 C 102.75 15.503906 103.65625 14.636719 105.265625 14.636719 C 106.59375 14.636719 107.601562 15.445312 108.023438 16.589844 L 108.066406 16.589844 C 108.367188 16.046875 108.75 15.625 109.152344 15.324219 C 109.734375 14.878906 110.382812 14.636719 111.308594 14.636719 C 112.597656 14.636719 114.507812 15.484375 114.507812 18.867188 L 114.507812 24.605469 L 112.777344 24.605469 L 112.777344 19.089844 C 112.777344 17.214844 112.09375 16.089844 110.664062 16.089844 C 109.65625 16.089844 108.871094 16.832031 108.570312 17.699219 C 108.488281 17.941406 108.429688 18.261719 108.429688 18.585938 L 108.429688 24.605469 L 106.695312 24.605469 L 106.695312 18.765625 C 106.695312 17.214844 106.011719 16.089844 104.660156 16.089844 C 103.554688 16.089844 102.75 16.972656 102.46875 17.859375 C 102.367188 18.121094 102.328125 18.421875 102.328125 18.726562 L 102.328125 24.605469 L 100.59375 24.605469 L 100.59375 17.496094 "/>
<path style=" stroke:none;fill-rule:nonzero;fill:rgb(16.795349%,59.87854%,24.873352%);fill-opacity:1;" d="M 123.570312 18.785156 C 123.589844 17.660156 123.105469 15.90625 121.113281 15.90625 C 119.320312 15.90625 118.535156 17.558594 118.394531 18.785156 Z M 118.375 20.054688 C 118.414062 22.449219 119.945312 23.4375 121.71875 23.4375 C 122.984375 23.4375 123.75 23.214844 124.414062 22.933594 L 124.71875 24.203125 C 124.09375 24.484375 123.023438 24.804688 121.476562 24.804688 C 118.476562 24.804688 116.683594 22.832031 116.683594 19.894531 C 116.683594 16.953125 118.414062 14.636719 121.253906 14.636719 C 124.433594 14.636719 125.28125 17.4375 125.28125 19.230469 C 125.28125 19.589844 125.238281 19.875 125.21875 20.054688 L 118.375 20.054688 "/>
<path style=" stroke:none;fill-rule:nonzero;fill:rgb(16.795349%,59.87854%,24.873352%);fill-opacity:1;" d="M 127.476562 17.496094 C 127.476562 16.492188 127.453125 15.664062 127.394531 14.859375 L 128.964844 14.859375 L 129.066406 16.46875 L 129.105469 16.46875 C 129.589844 15.542969 130.71875 14.636719 132.328125 14.636719 C 133.675781 14.636719 135.769531 15.445312 135.769531 18.785156 L 135.769531 24.605469 L 134 24.605469 L 134 18.988281 C 134 17.417969 133.414062 16.109375 131.742188 16.109375 C 130.574219 16.109375 129.671875 16.933594 129.367188 17.921875 C 129.289062 18.140625 129.246094 18.445312 129.246094 18.746094 L 129.246094 24.605469 L 127.476562 24.605469 L 127.476562 17.496094 "/>
<path style=" stroke:none;fill-rule:nonzero;fill:rgb(16.795349%,59.87854%,24.873352%);fill-opacity:1;" d="M 138.648438 24.605469 L 138.648438 14.859375 L 140.421875 14.859375 L 140.421875 24.605469 Z M 140.621094 12.121094 C 140.644531 12.726562 140.199219 13.207031 139.496094 13.207031 C 138.871094 13.207031 138.429688 12.726562 138.429688 12.121094 C 138.429688 11.496094 138.890625 11.015625 139.535156 11.015625 C 140.199219 11.015625 140.621094 11.496094 140.621094 12.121094 "/>
<path style=" stroke:none;fill-rule:nonzero;fill:rgb(16.795349%,59.87854%,24.873352%);fill-opacity:1;" d="M 143.121094 22.792969 C 143.644531 23.136719 144.570312 23.496094 145.457031 23.496094 C 146.742188 23.496094 147.347656 22.851562 147.347656 22.046875 C 147.347656 21.203125 146.84375 20.738281 145.535156 20.253906 C 143.785156 19.632812 142.960938 18.664062 142.960938 17.496094 C 142.960938 15.925781 144.226562 14.636719 146.320312 14.636719 C 147.308594 14.636719 148.175781 14.921875 148.71875 15.242188 L 148.273438 16.53125 C 147.890625 16.289062 147.1875 15.96875 146.28125 15.96875 C 145.234375 15.96875 144.648438 16.570312 144.648438 17.296875 C 144.648438 18.101562 145.234375 18.464844 146.503906 18.945312 C 148.195312 19.589844 149.058594 20.4375 149.058594 21.886719 C 149.058594 23.597656 147.730469 24.804688 145.414062 24.804688 C 144.347656 24.804688 143.363281 24.542969 142.675781 24.140625 L 143.121094 22.792969 "/>
<path style=" stroke:none;fill-rule:nonzero;fill:rgb(16.795349%,59.87854%,24.873352%);fill-opacity:1;" d="M 153.46875 12.0625 L 153.46875 14.859375 L 156.007812 14.859375 L 156.007812 16.207031 L 153.46875 16.207031 L 153.46875 21.464844 C 153.46875 22.671875 153.8125 23.355469 154.796875 23.355469 C 155.261719 23.355469 155.601562 23.296875 155.824219 23.234375 L 155.90625 24.566406 C 155.5625 24.707031 155.019531 24.804688 154.335938 24.804688 C 153.511719 24.804688 152.84375 24.542969 152.421875 24.0625 C 151.917969 23.539062 151.738281 22.671875 151.738281 21.523438 L 151.738281 16.207031 L 150.226562 16.207031 L 150.226562 14.859375 L 151.738281 14.859375 L 151.738281 12.523438 L 153.46875 12.0625 "/>
<path style=" stroke:none;fill-rule:nonzero;fill:rgb(16.795349%,59.87854%,24.873352%);fill-opacity:1;" d="M 163.132812 19.632812 C 161.199219 19.589844 159.007812 19.933594 159.007812 21.828125 C 159.007812 22.972656 159.769531 23.519531 160.675781 23.519531 C 161.945312 23.519531 162.75 22.710938 163.03125 21.886719 C 163.09375 21.707031 163.132812 21.503906 163.132812 21.324219 Z M 163.394531 24.605469 L 163.253906 23.375 L 163.195312 23.375 C 162.652344 24.140625 161.605469 24.828125 160.214844 24.828125 C 158.242188 24.828125 157.234375 23.4375 157.234375 22.027344 C 157.234375 19.671875 159.328125 18.382812 163.09375 18.402344 L 163.09375 18.203125 C 163.09375 17.398438 162.871094 15.945312 160.878906 15.945312 C 159.972656 15.945312 159.027344 16.230469 158.34375 16.671875 L 157.9375 15.503906 C 158.742188 14.980469 159.910156 14.636719 161.140625 14.636719 C 164.121094 14.636719 164.84375 16.671875 164.84375 18.625 L 164.84375 22.269531 C 164.84375 23.113281 164.886719 23.941406 165.007812 24.605469 L 163.394531 24.605469 "/>
<path style=" stroke:none;fill-rule:nonzero;fill:rgb(16.795349%,59.87854%,24.873352%);fill-opacity:1;" d="M 167.703125 17.496094 C 167.703125 16.492188 167.683594 15.664062 167.625 14.859375 L 169.195312 14.859375 L 169.296875 16.46875 L 169.335938 16.46875 C 169.820312 15.542969 170.945312 14.636719 172.558594 14.636719 C 173.90625 14.636719 176 15.445312 176 18.785156 L 176 24.605469 L 174.226562 24.605469 L 174.226562 18.988281 C 174.226562 17.417969 173.644531 16.109375 171.972656 16.109375 C 170.804688 16.109375 169.898438 16.933594 169.597656 17.921875 C 169.515625 18.140625 169.476562 18.445312 169.476562 18.746094 L 169.476562 24.605469 L 167.703125 24.605469 L 167.703125 17.496094 "/>
<path style=" stroke:none;fill-rule:nonzero;fill:rgb(16.795349%,59.87854%,24.873352%);fill-opacity:1;" d="M 70.65625 43.128906 L 69.328125 39.222656 C 69.023438 38.335938 68.824219 37.53125 68.621094 36.746094 L 68.582031 36.746094 C 68.378906 37.550781 68.15625 38.378906 67.898438 39.203125 L 66.566406 43.128906 Z M 66.207031 44.5 L 64.796875 48.765625 L 62.984375 48.765625 L 67.59375 35.195312 L 69.707031 35.195312 L 74.339844 48.765625 L 72.46875 48.765625 L 71.015625 44.5 L 66.207031 44.5 "/>
<path style=" stroke:none;fill-rule:nonzero;fill:rgb(16.795349%,59.87854%,24.873352%);fill-opacity:1;" d="M 76.210938 48.765625 L 76.210938 39.023438 L 77.984375 39.023438 L 77.984375 48.765625 Z M 78.183594 36.285156 C 78.207031 36.886719 77.761719 37.371094 77.058594 37.371094 C 76.433594 37.371094 75.992188 36.886719 75.992188 36.285156 C 75.992188 35.660156 76.453125 35.175781 77.097656 35.175781 C 77.761719 35.175781 78.183594 35.660156 78.183594 36.285156 "/>
<path style=" stroke:none;fill-rule:nonzero;fill:rgb(16.795349%,59.87854%,24.873352%);fill-opacity:1;" d="M 80.921875 42.0625 C 80.921875 40.914062 80.902344 39.929688 80.84375 39.023438 L 82.394531 39.023438 L 82.453125 40.933594 L 82.535156 40.933594 C 82.976562 39.625 84.042969 38.800781 85.234375 38.800781 C 85.433594 38.800781 85.574219 38.820312 85.734375 38.859375 L 85.734375 40.53125 C 85.554688 40.492188 85.375 40.472656 85.132812 40.472656 C 83.882812 40.472656 82.996094 41.417969 82.757812 42.746094 C 82.714844 42.988281 82.675781 43.269531 82.675781 43.570312 L 82.675781 48.765625 L 80.921875 48.765625 L 80.921875 42.0625 "/>
<path style=" stroke:none;fill-rule:nonzero;fill:rgb(16.795349%,59.87854%,24.873352%);fill-opacity:1;" d="M 87.589844 34.472656 L 89.359375 34.472656 L 89.359375 48.765625 L 87.589844 48.765625 L 87.589844 34.472656 "/>
<path style=" stroke:none;fill-rule:nonzero;fill:rgb(16.795349%,59.87854%,24.873352%);fill-opacity:1;" d="M 92.339844 48.765625 L 92.339844 39.023438 L 94.113281 39.023438 L 94.113281 48.765625 Z M 94.3125 36.285156 C 94.332031 36.886719 93.890625 37.371094 93.1875 37.371094 C 92.5625 37.371094 92.117188 36.886719 92.117188 36.285156 C 92.117188 35.660156 92.582031 35.175781 93.226562 35.175781 C 93.890625 35.175781 94.3125 35.660156 94.3125 36.285156 "/>
<path style=" stroke:none;fill-rule:nonzero;fill:rgb(16.795349%,59.87854%,24.873352%);fill-opacity:1;" d="M 97.050781 41.660156 C 97.050781 40.652344 97.03125 39.828125 96.972656 39.023438 L 98.542969 39.023438 L 98.640625 40.632812 L 98.683594 40.632812 C 99.164062 39.707031 100.292969 38.800781 101.902344 38.800781 C 103.253906 38.800781 105.347656 39.605469 105.347656 42.949219 L 105.347656 48.765625 L 103.574219 48.765625 L 103.574219 43.148438 C 103.574219 41.578125 102.992188 40.269531 101.320312 40.269531 C 100.152344 40.269531 99.246094 41.09375 98.945312 42.082031 C 98.863281 42.304688 98.824219 42.605469 98.824219 42.90625 L 98.824219 48.765625 L 97.050781 48.765625 L 97.050781 41.660156 "/>
<path style=" stroke:none;fill-rule:nonzero;fill:rgb(16.795349%,59.87854%,24.873352%);fill-opacity:1;" d="M 114.40625 42.949219 C 114.429688 41.820312 113.945312 40.070312 111.949219 40.070312 C 110.160156 40.070312 109.375 41.71875 109.234375 42.949219 Z M 109.214844 44.214844 C 109.253906 46.613281 110.78125 47.597656 112.554688 47.597656 C 113.824219 47.597656 114.589844 47.378906 115.253906 47.097656 L 115.554688 48.363281 C 114.929688 48.644531 113.863281 48.96875 112.3125 48.96875 C 109.3125 48.96875 107.523438 46.996094 107.523438 44.054688 C 107.523438 41.117188 109.253906 38.800781 112.09375 38.800781 C 115.273438 38.800781 116.117188 41.597656 116.117188 43.390625 C 116.117188 43.753906 116.078125 44.035156 116.058594 44.214844 L 109.214844 44.214844 "/>
<path style=" stroke:none;fill-rule:nonzero;fill:rgb(16.795349%,59.87854%,24.873352%);fill-opacity:1;" d="M 118.070312 46.953125 C 118.597656 47.296875 119.523438 47.660156 120.40625 47.660156 C 121.695312 47.660156 122.300781 47.015625 122.300781 46.210938 C 122.300781 45.363281 121.796875 44.902344 120.488281 44.417969 C 118.738281 43.792969 117.910156 42.828125 117.910156 41.660156 C 117.910156 40.089844 119.179688 38.800781 121.273438 38.800781 C 122.261719 38.800781 123.125 39.082031 123.671875 39.40625 L 123.226562 40.691406 C 122.84375 40.453125 122.140625 40.128906 121.234375 40.128906 C 120.1875 40.128906 119.601562 40.734375 119.601562 41.457031 C 119.601562 42.261719 120.1875 42.625 121.453125 43.109375 C 123.144531 43.753906 124.011719 44.597656 124.011719 46.046875 C 124.011719 47.761719 122.683594 48.96875 120.367188 48.96875 C 119.300781 48.96875 118.3125 48.707031 117.628906 48.304688 L 118.070312 46.953125 "/>
</g>
</svg>
