<svg xmlns="http://www.w3.org/2000/svg" width="176pt" height="76.027" viewBox="0 0 176 57.02"><defs><clipPath id="a"><path d="M0 0h58v57.02H0Zm0 0"/></clipPath></defs><g clip-path="url(#a)"><path d="M14.95 14.332q.053.258.109.516c.273.039.546.105.824.113 7.137.16 14.277.297 21.414.473 3.32.082 6.64.238 9.96.347 1.626.055 3.005-.437 4.278-2.105-1.058-.04-1.793-.09-2.527-.09q-15.386-.005-30.766-.004c-.496 0-1.015-.082-1.48.035-.625.156-1.211.469-1.813.715m-5.208 9.465c-.789.047-1.722-.305-2.23.867.375.313.734.61 1.246 1.04.156.956.39 2.058.508 3.175.48 4.598 2.695 7.914 6.996 9.805 8.992 3.949 17.968 7.941 26.945 11.918.645.285 1.273.601 1.93.914-8.196 7.09-24.465 8.074-35.27-1.477-11.77-10.41-13.3-27.695-3.023-39.95C16.754-1.733 34.625-3.417 46.68 6.388c12.707 10.332 13.472 27.527 5.293 38.578l-32.801-11.23c.789-.235 1.168-.485 1.45-.407 1.081.3 2.077.254 3.312-.578-1.016-.434-1.84-.785-3.051-1.3 1.992-.696 3.875.905 5.488-.942l-4.144-1.242q.02-.198.043-.395c.347-.043.707-.168 1.039-.113.695.113 1.367.363 2.062.48 1.266.211 2.512.239 3.758-.847-2.027-1.145-4.332-.844-6.637-2.078.762-.114 1.11-.25 1.426-.196 1.598.285 3.176.656 4.777.922 1.278.211 2.48.047 3.492-1.371-3.214-.59-6.199-1.14-9.648-1.777 1.082-.72 1.773-.512 2.395-.422 3.062.457 6.12.96 9.183 1.449 1.567.25 2.676-.18 3.746-1.602-5.293-.941-10.582-1.199-15.746-2.175q.025-.264.055-.528c.375-.039.762-.144 1.129-.105 5.117.539 10.234 1.101 15.351 1.66 1.051.113 2.094.336 3.145.352 1.293.023 2.402-.45 3.45-1.86-8.352-.883-16.368-1.336-24.329-2.402 1.512-.57 3.027-.367 4.523-.27 2.957.184 5.91.477 8.868.688 4.296.304 8.597.574 12.894.863 1.887.129 3.649-.07 5.082-2.062-1.332-.145-2.418-.329-3.508-.368-5.293-.203-10.593-.34-15.89-.558-5.364-.219-10.727-.504-16.09-.754-.703-.035-1.414.008-2.117-.04-1.18-.081-2.114.329-2.63 1.4-.523 1.097-.14 2.042.696 2.866 1.86 1.84 3.027 4.067 3.617 6.606.043.191.032.398.04.508-1.133-1.051-2.212-2.227-3.473-3.153-.938-.691-2.114-1.21-3.239-.136z" style="stroke:none;fill-rule:nonzero;fill:#2b993f;fill-opacity:1"/></g><path d="M66.59 12.523h-4.13v-1.488h10.048v1.488h-4.149v12.082h-1.77zM81.207 21.945c0 1.008.02 1.895.078 2.66h-1.57l-.102-1.59h-.039a3.66 3.66 0 0 1-3.222 1.813c-1.528 0-3.36-.848-3.36-4.27V14.86h1.77v5.395c0 1.855.566 3.101 2.175 3.101 1.188 0 2.012-.824 2.336-1.609a2.6 2.6 0 0 0 .16-.906v-5.98h1.774zM84.145 17.898c0-1.144-.02-2.132-.079-3.039h1.547l.063 1.914h.082c.441-1.308 1.508-2.136 2.695-2.136.203 0 .344.023.504.062v1.672a2.5 2.5 0 0 0-.605-.062c-1.247 0-2.133.945-2.375 2.277-.04.238-.079.523-.079.824v5.195h-1.753zM92.563 19.328h.039c.242-.34.582-.765.867-1.105l2.86-3.364h2.132l-3.766 4.008 4.29 5.738h-2.153l-3.363-4.671-.906 1.007v3.664h-1.754V10.31h1.754zM100.594 17.496c0-1.004-.02-1.832-.078-2.637h1.55l.079 1.57h.062c.543-.925 1.45-1.792 3.059-1.792 1.328 0 2.336.808 2.757 1.953h.043c.301-.543.684-.965 1.086-1.266.582-.445 1.23-.687 2.157-.687 1.289 0 3.199.847 3.199 4.23v5.738h-1.73V19.09c0-1.875-.684-3-2.114-3-1.008 0-1.793.742-2.094 1.61a2.9 2.9 0 0 0-.14.886v6.02h-1.735v-5.84c0-1.551-.683-2.676-2.035-2.676-1.105 0-1.91.883-2.191 1.77a2.4 2.4 0 0 0-.14.867v5.878h-1.735zM123.57 18.785c.02-1.125-.465-2.879-2.457-2.879-1.793 0-2.578 1.653-2.718 2.88Zm-5.195 1.27c.04 2.394 1.57 3.383 3.344 3.383 1.265 0 2.031-.223 2.695-.504l.305 1.27c-.625.28-1.696.6-3.242.6-3 0-4.793-1.972-4.793-4.91 0-2.94 1.73-5.257 4.57-5.257 3.18 0 4.027 2.8 4.027 4.593 0 .36-.043.645-.062.825zM127.477 17.496c0-1.004-.024-1.832-.082-2.637h1.57l.101 1.61h.04c.484-.926 1.613-1.832 3.222-1.832 1.348 0 3.442.808 3.442 4.148v5.82H134v-5.617c0-1.57-.586-2.879-2.258-2.879-1.168 0-2.07.825-2.375 1.813a2.6 2.6 0 0 0-.12.824v5.86h-1.77zM138.648 24.605V14.86h1.774v9.746Zm1.973-12.484c.024.606-.422 1.086-1.125 1.086-.625 0-1.066-.48-1.066-1.086 0-.625.46-1.105 1.105-1.105.664 0 1.086.48 1.086 1.105M143.121 22.793c.524.344 1.45.703 2.336.703 1.285 0 1.89-.644 1.89-1.45 0-.843-.503-1.308-1.812-1.792-1.75-.621-2.574-1.59-2.574-2.758 0-1.57 1.266-2.86 3.36-2.86.988 0 1.855.286 2.398.606l-.446 1.29a3.8 3.8 0 0 0-1.992-.563c-1.047 0-1.633.601-1.633 1.328 0 .805.586 1.168 1.856 1.648 1.691.645 2.555 1.492 2.555 2.942 0 1.71-1.329 2.918-3.645 2.918-1.066 0-2.05-.262-2.738-.664zM153.469 12.063v2.796h2.539v1.348h-2.54v5.258c0 1.207.345 1.89 1.329 1.89a3.9 3.9 0 0 0 1.027-.12l.082 1.331c-.344.141-.886.239-1.57.239-.824 0-1.492-.262-1.914-.742-.504-.524-.684-1.391-.684-2.54v-5.316h-1.511v-1.348h1.511v-2.336zM163.133 19.633c-1.934-.043-4.125.3-4.125 2.195 0 1.145.762 1.692 1.668 1.692 1.27 0 2.074-.81 2.355-1.633.063-.18.102-.383.102-.563Zm.262 4.972-.141-1.23h-.059c-.543.766-1.59 1.453-2.98 1.453-1.973 0-2.98-1.39-2.98-2.8 0-2.356 2.093-3.645 5.859-3.626v-.199c0-.805-.223-2.258-2.215-2.258-.906 0-1.852.285-2.535.727l-.406-1.168c.804-.524 1.972-.867 3.203-.867 2.98 0 3.703 2.035 3.703 3.988v3.645c0 .843.043 1.671.164 2.335zM167.703 17.496c0-1.004-.02-1.832-.078-2.637h1.57l.102 1.61h.039c.484-.926 1.61-1.832 3.223-1.832 1.347 0 3.441.808 3.441 4.148v5.82h-1.773v-5.617c0-1.57-.582-2.879-2.254-2.879-1.168 0-2.075.825-2.375 1.813-.082.219-.121.523-.121.824v5.86h-1.774zM70.656 43.129l-1.328-3.906c-.305-.887-.504-1.692-.707-2.477h-.039a46 46 0 0 1-.684 2.457l-1.332 3.926ZM66.207 44.5l-1.41 4.266h-1.813l4.61-13.57h2.113l4.633 13.57h-1.871L71.016 44.5zM76.21 48.766v-9.743h1.774v9.743Zm1.974-12.48c.023.6-.422 1.085-1.125 1.085-.625 0-1.067-.484-1.067-1.086 0-.625.461-1.11 1.106-1.11.664 0 1.086.485 1.086 1.11M80.922 42.063c0-1.149-.02-2.133-.078-3.04h1.55l.06 1.91h.081c.442-1.308 1.508-2.132 2.7-2.132.199 0 .34.02.5.058v1.672c-.18-.039-.36-.058-.602-.058-1.25 0-2.137.945-2.375 2.273a4.7 4.7 0 0 0-.082.824v5.196h-1.754zM87.59 34.473h1.77v14.293h-1.77zM92.34 48.766v-9.743h1.773v9.743Zm1.972-12.48c.02.6-.421 1.085-1.124 1.085-.626 0-1.07-.484-1.07-1.086 0-.625.464-1.11 1.109-1.11.664 0 1.085.485 1.085 1.11M97.05 41.66c0-1.008-.019-1.832-.077-2.637h1.57l.098 1.61h.043c.48-.926 1.609-1.832 3.218-1.832 1.352 0 3.446.804 3.446 4.148v5.817h-1.774v-5.618c0-1.57-.582-2.878-2.254-2.878-1.168 0-2.074.824-2.375 1.812a2.5 2.5 0 0 0-.12.824v5.86H97.05zM114.406 42.95c.024-1.13-.46-2.88-2.457-2.88-1.789 0-2.574 1.649-2.715 2.88Zm-5.191 1.265c.039 2.398 1.566 3.383 3.34 3.383 1.27 0 2.035-.22 2.699-.5l.3 1.265c-.624.282-1.69.606-3.242.606-3 0-4.789-1.973-4.789-4.914 0-2.938 1.73-5.254 4.57-5.254 3.18 0 4.024 2.797 4.024 4.59 0 .363-.039.644-.058.824zM118.07 46.953c.528.344 1.453.707 2.336.707 1.29 0 1.895-.644 1.895-1.45 0-.847-.504-1.308-1.813-1.792-1.75-.625-2.578-1.59-2.578-2.758 0-1.57 1.27-2.86 3.363-2.86.989 0 1.852.282 2.399.606l-.445 1.285a3.8 3.8 0 0 0-1.993-.562c-1.046 0-1.632.605-1.632 1.328 0 .805.585 1.168 1.851 1.652 1.692.645 2.559 1.489 2.559 2.938 0 1.715-1.328 2.922-3.645 2.922-1.066 0-2.055-.262-2.738-.664z" style="stroke:none;fill-rule:nonzero;fill:#2b993f;fill-opacity:1"/></svg>