<svg xmlns="http://www.w3.org/2000/svg" width="176pt" height="47.373" viewBox="0 0 176 35.53"><defs><clipPath id="a"><path d="M21 31h17v4.531H21Zm0 0"/></clipPath><clipPath id="b"><path d="M32 33h10v2.531H32Zm0 0"/></clipPath></defs><path d="M176 12.563c-.441 1.082-.887 2.167-1.328 3.25-.149.359-.293.718-.461 1.136h-4.996c-1.848 4.692-3.676 9.332-5.516 14.008-1.617.063-3.187.035-4.902.004 1.836-4.711 3.613-9.277 5.422-13.914-.828-.192-3.965-.098-4.742-.098.011-.719 1.007-3.426 1.664-4.554H176z" style="stroke:none;fill-rule:nonzero;fill:#464344;fill-opacity:1"/><path d="M2.18 14.574a3.55 3.55 0 0 1-2.18 0v-.168c.34-.691.684-1.383 1.023-2.082.559-.078 1.118-.113 1.653-.246 2.484-.621 4.988-1.121 7.543-1.367.633-.063 1.273-.098 1.906-.18 1.098-.144 2.195-.324 3.293-.472.91-.125 1.816-.25 2.73-.336.91-.086 1.829-.121 2.747-.184 1.609-.11 3.214-.223 4.824-.336.832-.058 1.668-.094 2.496-.187.375-.04.738-.192 1.11-.293.323-.036.648-.078.972-.106.902-.082 1.8-.168 2.703-.226.168-.012.348.097.523.152-.21.133-.406.289-.628.39-.684.301-1.461.465-2.047.895-1.098.805-2.555.985-3.477 2.07-.082.094-.238.133-.371.18-.52.184-.902.527-1.172 1q-.092.08-.18.16c-1.418-.004-2.832 0-4.25-.015-.265-.004-.53-.086-.796-.133.718-.02 1.441-.035 2.148-.05 1.059-1.493 2.758-2.048 4.164-3.08-2.102-.179-6.644 1.509-7.82 2.872q.512.104 1.035.215c-1.965 0-3.926.004-5.89.004.269-.047.534-.133.8-.137.95-.02 1.899-.004 2.848-.012.242-.004.484-.039.687-.058.246-.489.453-.91.672-1.328.211-.399.602-.707.664-1.203-.125-.02-.187-.047-.23-.028-1.582.613-3.176 1.207-4.739 1.871-.496.207-.91.602-1.363.91l-1.183.153c.257-.086.515-.168.832-.274.191-.765 1.222-1.152 1.097-2.218-.906.402-1.73.793-2.578 1.144-.82.34-1.473 1.066-2.473 1.156.075-.609.48-1.05.473-1.718-1.344.53-2.445 1.21-3.324 2.382.262.024.445.043.629.063l-.516.176c-.16-.004-.324-.012-.484-.016-.567.063-1.133.121-1.696.184v.093l.543.075c-.293.043-.593.082-.886.125-.282-.215-.559-.215-.828.02z" style="stroke:none;fill-rule:nonzero;fill:#858383;fill-opacity:1"/><path d="M29.324 8.723c-.37.101-.734.254-1.11.293-.827.093-1.663.129-2.495.187-1.61.113-3.215.227-4.824.336-.918.063-1.836.098-2.747.184-.914.086-1.82.21-2.73.336-1.098.148-2.195.328-3.293.472-.633.082-1.273.117-1.906.18-2.555.246-5.059.746-7.543 1.367-.535.133-1.094.168-1.653.246-.34.7-.683 1.39-1.023 2.082v-1.172c.05-.226.098-.457.148-.683.11-.395.211-.797.532-.992h.828c1.32-.196 2.656-.329 3.96-.598 3.2-.652 6.41-1.176 9.684-1.258.809-.02 1.614-.133 2.414-.234 1.41-.184 2.813-.485 4.227-.563 2.504-.129 5.02-.129 7.531-.183" style="stroke:none;fill-rule:nonzero;fill:#4e4b4c;fill-opacity:1"/><path d="M.148 12.55c-.05.227-.097.458-.148.684v-.671z" style="stroke:none;fill-rule:nonzero;fill:#acaaab;fill-opacity:1"/><path d="M76.453 21.96q2.44-3.743 4.879-7.487c.441-.676.883-1.352 1.34-2.059h4.832c-.04.363-.055.688-.106 1.004q-.61 3.837-1.226 7.668c-.024.164-.024.332-.035.5-.157.418-.157.418-.008.8.058-.116.105-.202.152-.292q2.506-4.355 5.012-8.703c.195-.336.402-.66.598-.98h4.636c-.218.706-9.933 17.003-11.062 18.573h-4.969c.563-3.656 1.121-7.257 1.676-10.859.129-.184.187-.371.012-.652l-.192.328c-2.418 3.719-4.836 7.433-7.273 11.183h-5.004c.328-2.125.844-4.168 1.25-6.226.406-2.055.855-4.094 1.285-6.14q.651-3.099 1.309-6.208h4.824c-.137.602-.25 1.14-.375 1.676-.559 2.363-1.121 4.723-1.676 7.082-.047.191-.066.383-.098.578l-.164.574q.07.026.14.051c.083-.137.161-.273.243-.41M107.082 21.063l-3.894 9.894h-4.61l7.242-18.535h4.633c.629 3.3 1.262 6.601 1.899 9.953.351-.145.363-.457.457-.691 1.066-2.727 2.12-5.461 3.183-8.188.145-.363.309-.715.469-1.086h4.457c-.059.64-6.367 17.004-7.148 18.55h-4.622q-.953-4.954-1.906-9.886zM138.645 30.953c.062-.637 6.69-17.668 7.21-18.543h12.934c-.05.617-.918 2.922-1.46 3.88-2.684.175-5.419.003-8.196.105-.367.925-.727 1.828-1.106 2.789.653.207 1.258.082 1.848.101.645.027 1.285.008 1.93.008h3.797c-.426 1.352-.95 2.535-1.446 3.809h-7.652c-.477 1.207-.93 2.367-1.406 3.582.765.199 1.457.082 2.14.105.696.02 1.395.004 2.094.004.672 0 1.34.004 2.012.004.691.004 1.386 0 2.203 0-.555 1.437-1.067 2.781-1.598 4.156zM62.027 17.266l.125-.293h-4.675c.464-1.621 1.12-3.047 1.628-4.563h14.133c-.097.828-.472 1.512-.715 2.235-.25.742-.843 2.253-.843 2.253s-2.953.051-4.067.063c-.234.004-.468.086-.703.129q-.032.081-.062.156c-.493 1.274-.996 2.54-1.473 3.82-1.148 3.086-2.285 6.176-3.434 9.262-.066.184-.16.352-.242.527-.023-.02-.043-.054-.062-.054-1.5.008-2.996.015-4.496.027.43-1.23.847-2.469 1.297-3.695 1.132-3.078 2.28-6.153 3.421-9.23.075-.208.114-.426.168-.641zM125.313 24.492c1.535-.222 3.097-.449 4.703-.68.148.344-.063.61-.118.891-.074.406-.191.82-.187 1.227.008.57.367.863.934.824.617-.043 1.156-.309 1.5-.813.421-.613.843-1.253 1.132-1.937.817-1.93 1.559-3.883 2.328-5.828q1.037-2.603 2.07-5.211c.071-.176.173-.344.274-.55h4.82c-.074.253-.113.464-.187.655-1.387 3.47-2.762 6.946-4.176 10.403-.644 1.578-1.367 3.129-2.527 4.41-2.316 2.566-5.184 3.59-8.594 2.945-1.726-.328-2.55-1.305-2.668-3.05-.058-.938.25-2.45.695-3.286M103.688 12.422c-2.376 6.258-4.833 12.383-7.227 18.555h-4.902c.73-2.122 1.586-4.13 2.375-6.164.808-2.083 1.62-4.157 2.433-6.235.801-2.047 1.602-4.094 2.406-6.156z" style="stroke:none;fill-rule:nonzero;fill:#464344;fill-opacity:1"/><path d="M53.664 9.91c-.129.047-.258.137-.383.125-1.43-.137-2.797.262-4.18.504q-.232-.075-.464-.152l-.024.113.207.082-.55.129c-.391-.25-.786-.242-1.176 0q-.665.007-1.328.02l-.18.152c-1.426.207-2.863.37-4.281.644-1.2.23-2.399.524-3.555.91-1.371.461-2.8.727-4.113 1.38-1.325.66-2.707 1.19-4.043 1.816-.805.375-1.59.8-2.36 1.246-.718.422-1.37.95-2.214 1.144-.442.106-.77.43-.91.907-.055.183-.16.351-.22.476-.32.192-.593.352-.972.578 1.152.485 2.316.11 3.46.774-.577.137-1 .234-1.421.332-.012-.27-.207-.29-.41-.3-1.25-.06-2.496-.177-3.746-.173-1.414.004-2.828.117-4.246.18-1.051.047-2.106.086-3.157.129.301-.117.594-.246.899-.356.539-.191 1.09-.351 1.621-.558.41-.164.797-.38 1.191-.567.149.028.313.117.442.082 1.41-.402 2.824-.336 4.246-.086.015.125.031.25.047.41 1.086-.87 2.082-1.746 3.16-2.511 1.082-.77 2.242-1.43 3.5-2.219l-.508-.039c.578-.41 1.11-.93 1.746-1.203 1.856-.797 3.75-1.508 5.637-2.227.484-.183 1.004-.28 1.504-.418q-.773.447-1.547.887c.363.047.68-.035.984-.14 2.446-.852 4.895-1.66 7.45-2.157 2.316-.449 4.605-1.047 6.91-1.558 1.41-.313 2.828-.61 4.246-.883.515-.102 1.043-.121 1.566-.176-.449.168-.894.336-1.344.5-.476.156-1.03.113-1.359.648l1.36-.468c.8-.059 1.605-.121 2.41-.176.996-.07 2-.078 2.992-.211a36 36 0 0 1 5.242-.312c.805.015 1.617.05 2.422 0 .738-.051 1.469-.208 2.203-.317 1.187-.035 1.371-.148 1.684-1.031.41.265.902.453.976 1.137-.238.109-.476.238-.726.332-.813.308-1.672.39-2.532.457-.937.074-1.875.187-2.812.273-.246.024-.504-.012-.75.031-1.235.203-2.473.34-3.727.301-.332-.008-.672-.027-1 .012a119 119 0 0 0-3.539.492c-1.34.215-2.676.465-4.012.715-.132.027-.433.004-.316.32" style="stroke:none;fill-rule:nonzero;fill:#858383;fill-opacity:1"/><path d="M53.664 9.91c-.117-.316.184-.293.316-.32 1.336-.25 2.672-.5 4.012-.715a119 119 0 0 1 3.54-.492c.327-.04.667-.02 1-.012 1.253.04 2.491-.098 3.726-.3.246-.044.504-.008.75-.032.937-.086 1.875-.2 2.812-.273.86-.067 1.72-.149 2.532-.457.25-.094.488-.223.726-.332-.074-.684-.566-.872-.976-1.137-.102-.094-.192-.211-.309-.277-2.129-1.2-4.36-2.075-6.836-2.227-.828-.047-1.644-.203-2.469-.313q.264-.029.528-.062c-1.141-.121-2.278-.113-3.41-.121-.997-.008-2 .082-2.981-.18.16-.047.316-.12.473-.133 1.304-.07 2.609-.125 3.914-.187.258-.016.515-.04.937-.074-.222-.188-.293-.286-.379-.313-1.238-.348-2.488-.543-3.78-.367-1.653.223-3.31.402-4.962.601l-.191-.164c.355-.152.699-.355 1.07-.449a23 23 0 0 1 2.05-.383c.653-.101 1.306-.16 1.962-.234-.399-.168-.805-.27-1.207-.266-.809.012-1.617.043-2.418.13-1.246.128-2.496.245-3.727.484-1.86.355-3.695.816-5.547 1.218-3.054.664-6.03 1.594-8.965 2.657q-.651.189-1.296.383a8 8 0 0 0-.176-.18c.738-.324 1.476-.653 2.222-.969.977-.41 1.946-.832 2.938-1.203 2.7-1.012 5.5-1.672 8.328-2.184 2.246-.41 4.516-.75 6.785-.984 1.098-.113 2.239-.004 3.332.168 1.04.164 2.063.492 3.051.855.59.215 1.121.614 1.645.98.382.27.777.4 1.238.442 1.191.11 2.387.227 3.574.383 1.149.149 2.207.594 3.215 1.149.582.324 1.144.69 1.71 1.05.466.293.778.72.942 1.242.211.66.051 1.063-.566 1.383-.953.5-1.992.727-3.05.832-1.528.145-3.06.235-4.587.352q-1.083.075-2.168.164c-2.781.234-5.558.465-8.34.703-.332.027-.66.11-.988.164" style="stroke:none;fill-rule:nonzero;fill:#4f4c4c;fill-opacity:1"/><path d="M37.055 15.063c-1.153-.38-2.348-.344-3.535-.36.867-.289 1.73-.586 2.601-.86q2.227-.697 4.465-1.366c.207-.063.437-.047.656-.067-.375.164-.746.356-1.137.488-.835.29-1.683.547-2.511 1.125.207.012.308.04.406.024 1.879-.36 3.754-.738 5.637-1.067.586-.105 1.195-.074 1.793-.101-.996.672-2.137 1.012-3.047 1.875 1.402-.066 2.699-.121 3.992-.191.246-.012.488-.079.738-.114.239-.035.453-.02.485.293-1.473.742-1.473.742-1.684 1.153.64 0 1.277.035 1.902-.016.34-.027.664-.207 1-.316.16.164.325.324.485.488-.598.21-1.055.597-1.594 1.191 1.148-.113 2.105-.207 3.063-.297q.512.49 1.023.98c-.188.04-.383.055-.566.114a9.2 9.2 0 0 1-3.606.363c-.332-.187-.559-.343-.812-.449-.356-.144-.735-.234-1.094-.383-1.078-.441-2.153-.898-3.23-1.351a2 2 0 0 0-.317-.11c-.75-.203-1.5-.41-2.258-.597-.777-.188-1.527-.547-2.363-.43-.156-.207-.32-.219-.492-.02" style="stroke:none;fill-rule:nonzero;fill:#858383;fill-opacity:1"/><path d="M41.242 12.41c-.219.02-.449.004-.656.067q-2.238.668-4.465 1.367c-.871.273-1.734.57-2.601.86-3.09 1.327-6.172 2.66-8.891 4.847 1.008.492 2.172.531 2.879 1.453-.324.555-.824.578-1.278.594-1.113.035-2.226.023-3.34.027-.19 0-.386-.012-.581-.016q1.323-.26 2.648-.52c.422-.097.844-.194 1.422-.331-1.145-.664-2.309-.29-3.461-.774.379-.226.652-.386.973-.578.058-.125.164-.293.218-.476.141-.477.47-.801.91-.907.844-.195 1.497-.722 2.215-1.144a30 30 0 0 1 2.36-1.246c1.336-.625 2.718-1.156 4.043-1.817 1.312-.652 2.742-.918 4.113-1.379a28 28 0 0 1 3.555-.91c1.418-.273 2.855-.437 4.28-.644q.091-.077.18-.153.664-.012 1.329-.02.168.073.332.15-.152.016-.305.038l-.691.141c-.203.07-.41.145-.7.246 1.375 1.055 2.532 2.195 3.364 3.633q.333.685.668 1.363-.049.036-.102.07l-.36-.3q-.241-.244-.484-.488-.41-.511-.82-1.016c-1.047-1-2.094-1.996-3.184-3.031-1.203.3-2.386.597-3.57.894" style="stroke:none;fill-rule:nonzero;fill:#4f4c4c;fill-opacity:1"/><path d="M29.324 8.723c-2.512.054-5.027.054-7.531.183-1.414.078-2.816.38-4.227.563-.8.101-1.605.215-2.414.234-3.273.082-6.484.606-9.683 1.258-1.305.27-2.64.402-3.961.598.71-.211 1.418-.434 2.133-.621a51 51 0 0 1 2.5-.614c1.515-.328 3.035-.629 4.55-.945a467 467 0 0 0 2.266-.477c.352.278.746.13 1.121.094 2.215-.21 4.43-.441 6.645-.64 1.496-.137 3.004-.165 4.492-.364 1.91-.254 3.824-.363 5.746-.414 1.617-.039 3.234-.047 4.852-.078.167-.004.335-.066.64-.133-.766-.394-1.445-.277-2.094-.36.235-.046.47-.097.703-.136.743-.117 1.508-.148 2.18-.547q.322.106.637.207c-.246.094-.496.188-.762.285-.035.23-.363.442-.054.715.582.32 1.214.164 1.828.18q-1.207.27-2.418.539c-.02.004-.047-.02-.075-.031-.144-.254-.37-.172-.582-.137-.543.094-1.082.195-1.62.29q-.182.07-.356.14l-.317.031c-.175-.055-.355-.164-.523-.152-.902.058-1.8.144-2.703.226-.324.028-.649.07-.973.106" style="stroke:none;fill-rule:nonzero;fill:#83c4ea;fill-opacity:1"/><path d="M17.11 19.445c-.395.188-.782.403-1.192.567-.531.207-1.082.367-1.621.558-.305.11-.598.239-.899.356-.378.172-.765.324-1.132.515-.196.102-.258.286-.047.5.117-.023.254-.039.379-.086.898-.351 1.828-.41 2.777-.367.395.02.793-.062 1.188-.097.93.254 1.898.254 2.87.18.172-.016.344-.055.337.206-.872.817-1.907.79-2.891.375-.875-.367-1.668-.289-2.512-.004-.633.211-1.285.368-1.914.59-.336.117-.633.325-1.012.528-.789-.735-.082-1.47-.035-2.2 1.594-.855 3.356-.984 5.008-1.546.738-1.04 1.531-2.051 2.207-3.137.692-1.102 1.883-1.633 2.817-2.653-.614-.043-1.11-.113-1.602-.105-2.848.035-5.695.063-8.54.148-1.589.047-3.171.2-4.757.301q-.005-.072-.004-.144l.516-.176q2.671-.271 5.344-.535l1.183-.153c.219-.004.442-.007.66-.015 1.965 0 3.926-.004 5.89-.004q.237.018.474.043c.265.047.53.129.796.133 1.418.015 2.832.011 4.25.015l-.003-.008c-.391.602-.918.79-1.579.5-.636-.28-1.207-.128-1.722.262-.375.281-.711.613-1.067.926-.25.219-.472.473-.746.656-1.355.926-2.375 2.168-3.308 3.492-.07.102-.078.25-.114.38" style="stroke:none;fill-rule:nonzero;fill:#4e4b4c;fill-opacity:1"/><path d="M35.855 5.18c2.934-1.063 5.91-1.992 8.965-2.657 1.852-.402 3.688-.863 5.547-1.218 1.23-.239 2.48-.356 3.727-.485.8-.086 1.61-.117 2.418-.129.402-.003.808.098 1.207.266-.657.074-1.309.133-1.961.234-.688.102-1.375.22-2.051.383-.371.094-.715.297-1.07.45l-.82.011c-.016-.023-.036-.047-.051-.074l.972-.5c-.117-.055-.172-.102-.215-.094-1.468.293-2.937.586-4.406.89-.844.177-1.68.38-2.52.571-.78.18-1.566.352-2.347.543-.535.137-1.062.305-1.598.457-.53.149-1.078.266-1.597.457a159 159 0 0 0-4.598 1.754c-.66.266-1.36.477-1.914.961-.793 0-1.582.004-2.375.004.473-.168.992-.23 1.34-.649l.18-.003-.012.007q.41-.086.82-.171c.629-.09 1.918-.586 2.52-.97-.055-.011-.11-.027-.16-.038" style="stroke:none;fill-rule:nonzero;fill:#83c4ea;fill-opacity:1"/><path d="M31.168 7.004q1.188-.002 2.375-.004.408.004.816.008c.649.082 1.328-.035 2.094.36-.305.066-.473.128-.64.132-1.618.031-3.235.04-4.852.078-1.922.05-3.836.16-5.746.414-1.488.2-2.996.227-4.492.363-2.215.2-4.43.43-6.645.641-.375.035-.77.184-1.121-.094 1.059-.234 2.11-.539 3.18-.683 1.597-.223 3.21-.317 4.812-.492 1.438-.157 2.871-.356 4.305-.528.578-.066 1.16-.14 1.738-.152 1.395-.031 2.785-.031 4.176-.043" style="stroke:none;fill-rule:nonzero;fill:#4f4c4c;fill-opacity:1"/><path d="M37.547 15.082c.836-.117 1.586.242 2.363.43.758.187 1.508.394 2.258.597q.165.044.316.11c1.078.453 2.153.91 3.23 1.351.36.149.74.239 1.095.383.254.106.48.262.812.45 1.156.105 2.39.019 3.606-.364.183-.059.378-.074.566-.113.07.203.137.406.203.594-.531.558-1.172.64-1.809.687-.609.047-1.226.055-1.84.04a2.7 2.7 0 0 1-.886-.192c-3.285-1.32-6.512-2.785-9.898-3.844l-.012-.137z" style="stroke:none;fill-rule:nonzero;fill:#504d4d;fill-opacity:1"/><path d="M19.77 21.777c.007-.261-.165-.222-.336-.207-.973.075-1.942.075-2.872-.18-.394.036-.792.118-1.187.098-.95-.043-1.879.016-2.777.367-.125.047-.262.063-.38.086-.21-.214-.148-.398.048-.5.367-.191.754-.343 1.132-.515 1.051-.043 2.106-.082 3.157-.13 1.418-.062 2.832-.175 4.246-.179 1.25-.004 2.496.113 3.746.172.203.012.398.031.41.3-.883.173-1.766.349-2.648.52-.356-.03-.715-.027-1.063-.097-.535-.11-1.031-.098-1.476.265" style="stroke:none;fill-rule:nonzero;fill:#c4c3c3;fill-opacity:1"/><path d="M19.293 23.484c-.414 1.489-.168 2.871.664 4.16.133.211.266.442.45.598 1.495 1.254 2.933 2.59 4.906 3.09.511.129 1.003.336 1.503.508q-.095.098-.191.191c-1.39-.21-2.691-.687-3.926-1.351-.27-.145-.523-.325-.808-.434-1.008-.383-1.707-1.156-2.356-1.945a9.5 9.5 0 0 1-1.305-2.125c-.375-.863-.039-1.692.489-2.422.144-.195.367-.332.554-.496q.01.113.02.226" style="stroke:none;fill-rule:nonzero;fill:#514e4f;fill-opacity:1"/><g clip-path="url(#a)"><path d="M21.973 31.66q2.444.709 4.894 1.41c.106.032.215.078.32.082 1.25.051 2.383.54 3.547.91.688.215 1.399.368 2.106.508.676.137 1.387.055 2.035.395.227.117.547.05.824.058.45.012.871.098 1.39.438a3.2 3.2 0 0 1-1.308 0c-1.062-.203-2.11-.523-3.215-.453-.16.012-.324-.067-.484-.106-1.027-.254-2.059-.484-3.082-.757-1.316-.356-2.625-.739-3.934-1.114-.722-.207-1.445-.41-2.152-.656-.39-.133-.754-.352-1.129-.531q.094-.089.188-.184" style="stroke:none;fill-rule:nonzero;fill:#514d4e;fill-opacity:1"/></g><g clip-path="url(#b)"><path d="M32.7 33.64c.933.122 1.866.286 2.808.36 1.332.11 2.664.164 4 .223.828.039 1.582.21 2.176.898-.532.074-7.786-.973-8.996-1.285z" style="stroke:none;fill-rule:nonzero;fill:#545152;fill-opacity:1"/></g><path d="M49.3 16.05c.122.102.24.2.36.302l.102-.07q-.335-.68-.668-1.364c.5.496 1.011.98 1.492 1.496.117.125.125.352.184.531-.958.09-1.915.184-3.063.297.54-.594.996-.98 1.594-1.191" style="stroke:none;fill-rule:nonzero;fill:#83c4ea;fill-opacity:1"/><path d="M15.563 24.285c.222-.21.355-.355.503-.476.082-.067.192-.098.418-.211l-.117 1.894c.133.438.32 1.043.535 1.742-.597-.191-.695-.793-1.187-1.011-.05-.649-.102-1.282-.152-1.938" style="stroke:none;fill-rule:nonzero;fill:#545051;fill-opacity:1"/><path d="M57.14 30.828q2.248-.017 4.497-.027c.02 0 .039.035.062.054-.113.063-.226.172-.344.176-1.328.012-2.656.008-3.988.004-.078 0-.156-.039-.23-.066-.02-.008-.035-.047-.035-.07s.027-.047.039-.07" style="stroke:none;fill-rule:nonzero;fill:#3a3738;fill-opacity:1"/><path d="M33.496 6.188q-.41.086-.82.171c.57-.324 1.136-.652 1.707-.976q.087.086.176.18-.528.312-1.063.625" style="stroke:none;fill-rule:nonzero;fill:#828080;fill-opacity:1"/><path d="m4.898 14.266-.543-.075v-.093c.563-.063 1.13-.121 1.696-.184l.36.188z" style="stroke:none;fill-rule:nonzero;fill:#6d6b6b;fill-opacity:1"/><path d="M26.625 32.031q.096-.093.191-.191.599.104 1.192.207c-.48.156-.942.226-1.383-.016" style="stroke:none;fill-rule:nonzero;fill:#797777;fill-opacity:1"/><path d="M47.426 10.86q-.164-.077-.332-.15c.39-.241.785-.25 1.176 0-.282.052-.563.099-.844.15" style="stroke:none;fill-rule:nonzero;fill:#666364;fill-opacity:1"/><path d="m32.7 33.64-.013.196q-.492-.089-.984-.172l.328-.176z" style="stroke:none;fill-rule:nonzero;fill:#575455;fill-opacity:1"/><path d="M21.973 31.66q-.094.095-.188.184a81 81 0 0 1-.82-.418q.042-.089.086-.172z" style="stroke:none;fill-rule:nonzero;fill:#706e6e;fill-opacity:1"/><path d="m2.18 14.574 1.004-.164v-.004l-.012.133z" style="stroke:none;fill-rule:nonzero;fill:#5e5b5c;fill-opacity:1"/><path d="M3.184 14.41c.27-.234.546-.234.828-.02q-.153.016-.301.032c-.176-.004-.352-.012-.527-.016z" style="stroke:none;fill-rule:nonzero;fill:#625f60;fill-opacity:1"/><path d="m48.82 10.582-.207-.082.024-.113.465.152q-.141.018-.282.043" style="stroke:none;fill-rule:nonzero;fill:#676565;fill-opacity:1"/><path d="m46.43 11.04.691-.142z" style="stroke:none;fill-rule:nonzero;fill:#666364;fill-opacity:1"/><path d="M19.293 23.484q-.01-.113-.02-.226c.055-.04.114-.074.168-.113q.04.033.075.074-.112.13-.223.265" style="stroke:none;fill-rule:nonzero;fill:#757273;fill-opacity:1"/><path d="M37.055 15.063c.172-.2.336-.188.492.019l.004-.008c-.117.004-.235.012-.356.016a.5.5 0 0 1-.14-.027" style="stroke:none;fill-rule:nonzero;fill:#545152;fill-opacity:1"/><path d="M3.184 14.406c.175.004.351.012.527.016l-.54.117z" style="stroke:none;fill-rule:nonzero;fill:#858383;fill-opacity:1"/><path d="m6.41 14.102-.36-.188c.16.004.325.012.485.016q-.001.072.004.144c-.043.028-.082.035-.129.028" style="stroke:none;fill-rule:nonzero;fill:#474344;fill-opacity:1"/><path d="M37.195 15.09c.121-.004.239-.012.356-.016l.011.137q-.18-.061-.367-.121" style="stroke:none;fill-rule:nonzero;fill:#858383;fill-opacity:1"/><path d="m32.688 6.352-.18.003z" style="stroke:none;fill-rule:nonzero;fill:#828080;fill-opacity:1"/><path d="M12.395 13.219q-2.673.264-5.344.535c-.184-.02-.367-.04-.63-.063.88-1.171 1.981-1.851 3.325-2.382.008.668-.398 1.109-.473 1.718 1-.09 1.653-.816 2.473-1.156.848-.351 1.672-.742 2.578-1.144.125 1.066-.906 1.453-1.097 2.218-.317.106-.575.188-.832.274M20.602 13.09a19 19 0 0 0-.473-.043q-.523-.11-1.035-.215c1.176-1.363 5.718-3.05 7.82-2.871-1.406 1.031-3.105 1.586-4.164 3.078-.707.016-1.43.031-2.148.05M14.238 13.05c-.218.009-.441.012-.66.016.453-.308.867-.703 1.363-.91 1.563-.664 3.157-1.258 4.739-1.87.043-.02.105.007.23.027-.062.496-.453.804-.664 1.203-.219.418-.426.84-.672 1.328-.203.02-.445.054-.687.058-.95.008-1.899-.007-2.848.012-.266.004-.531.09-.8.137" style="stroke:none;fill-rule:nonzero;fill:#83c4ea;fill-opacity:1"/><path d="M33.523 8.543q.159-.016.317-.031.175-.07.355-.14c.54-.095 1.078-.196 1.621-.29.211-.035.438-.117.582.137-.285.16-.558.347-.863.472-1.383.563-2.793 1.067-4.156 1.676-1.266.567-2.484 1.238-3.723 1.863-.273.11-.554.204-.82.332-.344.16-.672.348-1.008.524v-.008c.27-.473.652-.816 1.172-1 .133-.047.29-.086.371-.18.922-1.085 2.379-1.265 3.477-2.07.586-.43 1.363-.594 2.047-.894.222-.102.417-.258.628-.391M25.648 13.238q.088-.08.18-.16v.008c-.058.047-.121.098-.183.144z" style="stroke:none;fill-rule:nonzero;fill:#504d4e;fill-opacity:1"/><path d="M25.645 13.23c.062-.046.125-.097.183-.144.336-.176.664-.363 1.008-.524.266-.128.547-.222.82-.332-.047.067-.082.153-.144.2a386 386 0 0 1-3.602 2.425c-.363.239-.37.223-.562.594 1.66-.902 3.34-1.89 5.086-2.75 1.496-.738 3.054-1.347 4.601-1.98 1.934-.793 3.863-1.598 5.828-2.305 2.176-.781 4.41-1.367 6.676-1.84 1.418-.293 2.824-.625 4.25-.86 1.965-.32 3.965-.359 5.914-.82.242-.058.531.086.8.137-.1.047-.194.125-.296.133-1.91.164-3.793.484-5.66.895-2 .437-4.04.718-5.957 1.492q-.421.087-.836.176c-.742.097-1.504.117-2.219.316-1.043.285-2.035.77-3.082 1.043-1.41.367-2.742.934-4.086 1.469q-.421.25-.844.5c-.457.082-.949.086-1.375.664.618-.164 1.028-.348 1.375-.664.336-.11.676-.215 1.012-.325.297-.074.59-.144.887-.222.988-.27 1.98-.535 2.973-.805q.831-.229 1.664-.465.163-.02.328-.043c.383-.035.77-.058 1.148-.117 1.063-.164 2.117-.36 3.18-.515.168-.024.351.085.527.132-2.105.61-4.215 1.207-6.316 1.828-.692.204-1.364.473-2.043.711-.5.137-1.02.235-1.504.418-1.887.72-3.781 1.43-5.637 2.227-.637.273-1.168.793-1.746 1.203a1 1 0 0 0-.152.027q-.094.07-.188.133c-2.218.89-4.226 2.082-5.699 4.024q-.084.087-.16.175c-1.422-.25-2.836-.316-4.246.086-.13.035-.293-.054-.442-.082.036-.129.043-.277.114-.379.933-1.324 1.953-2.566 3.308-3.492.274-.183.496-.437.746-.656.356-.313.692-.645 1.067-.926.515-.39 1.086-.543 1.722-.262.66.29 1.188.102 1.579-.5" style="stroke:none;fill-rule:nonzero;fill:#83c4ea;fill-opacity:1"/><path d="M36.883 11.234c.68-.238 1.351-.507 2.043-.71 2.101-.622 4.21-1.22 6.316-1.829.594-.144 1.184-.297 1.781-.433.84-.188 1.68-.39 2.528-.54 1.039-.179 2.09-.312 3.133-.46 1.375-.192 2.754-.371 4.125-.578.46-.07.914-.196 1.37-.297q1.324-.1 2.65-.203c.718.003 1.44-.004 2.16.015.238.008.472.098.706.153a7 7 0 0 0-.3.085q-.604.047-1.208.098c-.136.004-.277-.004-.414.012q-2.64.33-5.28.66c-.524.055-1.052.074-1.567.176-1.418.273-2.836.57-4.246.883-2.305.511-4.594 1.109-6.91 1.558-2.555.496-5.004 1.305-7.45 2.156-.304.106-.62.188-.984.141q.773-.44 1.547-.887" style="stroke:none;fill-rule:nonzero;fill:#4f4c4c;fill-opacity:1"/><path d="M62.488 3.023c.825.11 1.64.266 2.469.313 2.477.152 4.707 1.027 6.836 2.227.117.066.207.183.309.277-.313.883-.497.996-1.684 1.031q-.352-.09-.7-.18l.626-.187c.37-.117.742-.238.886-.781-.296-.184-.582-.395-.894-.555-1.328-.691-2.828-.824-4.223-1.297-.05-.02-.11-.016-.168-.02q-1.453-.082-2.914-.171c-.168-.008-.332-.024-.5-.032-1.058-.043-2.113-.148-3.168-.109-1.386.047-2.77.207-4.156.32-.14.012-.277.028-.418.032-1.531.043-3.062.09-4.594.117-.367.008-.633-.164-.726-.61.687-.605 1.37-1.203 2.297-1.437.015.027.035.05.05.074l-.472.32c-.434.274.187.266.09.52-.207.184-.47.422-.73.656.339.086.589.508.925.14.383-.034.77-.073 1.152-.112 1.426-.137 2.852-.27 4.278-.41.379-.036.757-.087 1.136-.13 1.43 0 2.864.004 4.293.004" style="stroke:none;fill-rule:nonzero;fill:#83c4ea;fill-opacity:1"/><path d="M69.719 6.691c.23.059.465.122.699.18-.734.11-1.465.266-2.203.316-.805.051-1.617.016-2.422 0a36 36 0 0 0-5.242.313c-.992.133-1.996.14-2.992.21-.805.056-1.61.118-2.41.177v-.18q.671-.247 1.343-.5 2.641-.33 5.281-.66c.137-.016.278-.008.414-.012.543.149 1.004.516 1.61.504 1.355-.023 2.71 0 4.062-.016.235-.003.465-.105.696-.16l.078-.008.078.004.852-.164.078-.008z" style="stroke:none;fill-rule:nonzero;fill:#83c4ea;fill-opacity:1"/><path d="M21.957 19.266c1.473-1.942 3.48-3.133 5.7-4.024q.093-.063.187-.133a1 1 0 0 1 .152-.027l.508.04c-1.258.788-2.418 1.448-3.5 2.218-1.078.765-2.074 1.64-3.16 2.512-.016-.16-.032-.286-.047-.41q.076-.09.16-.176" style="stroke:none;fill-rule:nonzero;fill:#504d4e;fill-opacity:1"/><path d="M55.148 7.707v.18l-1.359.468c.328-.535.883-.492 1.36-.648" style="stroke:none;fill-rule:nonzero;fill:#83c4ea;fill-opacity:1"/><path d="m45.766 10.73-.18.153z" style="stroke:none;fill-rule:nonzero;fill:#666364;fill-opacity:1"/><path d="M51.629 3.672c-.336.367-.586-.055-.926-.14.262-.235.524-.473.73-.657.098-.254-.523-.246-.09-.52.532.278 1-.039 1.485-.167 1.652-.2 3.309-.38 4.961-.602 1.293-.176 2.543.02 3.781.367.086.027.157.125.38.313-.423.035-.68.058-.938.074-1.305.062-2.61.117-3.914.187-.157.012-.313.086-.473.133l-.637.024c-1.105.183-2.218.343-3.316.558-.363.07-.695.281-1.043.43" style="stroke:none;fill-rule:nonzero;fill:#83c4ea;fill-opacity:1"/><path d="m55.988 2.684.637-.024c.98.262 1.984.172 2.98.18 1.133.008 2.27 0 3.41.12q-.262.035-.527.063l-4.293-.003c-.437-.004-.879.03-1.312-.028-.305-.039-.598-.199-.895-.308" style="stroke:none;fill-rule:nonzero;fill:#4b4748;fill-opacity:1"/><path d="M33.496 6.188q.535-.313 1.063-.625.646-.195 1.296-.383c.051.011.106.027.16.039-.6.383-1.89.879-2.519.968" style="stroke:none;fill-rule:nonzero;fill:#dbdada;fill-opacity:1"/><path d="M52.828 2.188c-.484.128-.953.445-1.484.167l.472-.32.82-.012q.1.083.192.164" style="stroke:none;fill-rule:nonzero;fill:#514e4f;fill-opacity:1"/><path d="M41.242 12.41c1.184-.297 2.367-.594 3.57-.894 1.09 1.035 2.137 2.03 3.184 3.03a19 19 0 0 0-.398.196c-.032-.312-.246-.328-.485-.293-.25.035-.492.102-.738.114-1.293.07-2.59.124-3.992.19.91-.862 2.05-1.202 3.047-1.874-.598.027-1.207-.004-1.793.101-1.883.329-3.758.707-5.637 1.067-.098.015-.2-.012-.406-.024.828-.578 1.676-.835 2.511-1.125.391-.132.762-.324 1.137-.488" style="stroke:none;fill-rule:nonzero;fill:#83c4ea;fill-opacity:1"/><path d="M47.598 14.742q.198-.1.398-.195.41.505.82 1.015c-.336.11-.66.29-1 .317-.625.05-1.261.016-1.902.016.211-.41.211-.41 1.684-1.153" style="stroke:none;fill-rule:nonzero;fill:#83c4ea;fill-opacity:1"/><path d="m69.719 6.691-.078-.003-.079.007-.851.164-.078-.004-.078.008h-5.188c0-.031.004-.058.004-.09.395-.078.785-.156 1.18-.238l.66-.152.812-.035c.493-.137.985-.278 1.473-.414-.058-.368-.281-.38-.504-.41-.433-.063-.883-.09-1.305-.212-.695-.203-1.394-.32-2.12-.3-.235.008-.47-.098-.704-.149.922-.062 1.844-.12 2.844-.273-.32-.406-.652-.414-.984-.395-1.141.059-2.282.121-3.418.2a29 29 0 0 0-1.742.187c-1.024.14-2.04.3-3.06.45-.269-.052-.558-.196-.8-.137-1.95.46-3.95.5-5.914.82-1.426.234-2.832.566-4.25.86-2.266.472-4.5 1.058-6.676 1.84-1.965.706-3.894 1.51-5.828 2.304-1.547.633-3.105 1.242-4.601 1.98-1.747.86-3.426 1.848-5.086 2.75.191-.37.199-.355.562-.594 1.207-.8 2.406-1.613 3.602-2.425.062-.047.097-.133.144-.2 1.239-.625 2.457-1.296 3.723-1.863 1.363-.61 2.773-1.113 4.156-1.676.305-.125.578-.312.863-.472.028.011.055.035.075.031l2.418-.54c.218-.116.433-.237.652-.355q.084-.087.16-.175v-.004c.902-.211 1.809-.418 2.715-.63q.306-.112.617-.226c1.024-.215 2.05-.425 3.074-.64.446 0 .891.004 1.336-.004.352-.008.664-.094.817-.496-.02-.086-.035-.196-.063-.301-.25-.895-.492-1.086-1.414-1.082-.336.004-.668.047-1 .074-.5 0-.691.371-.87.738-.102.22-.177.454-.255.66-.12.032-.195.07-.273.07-.438.013-.875.013-1.313.02-.246-.398-.625-.527-1.07-.527-.563-.004-1.113.035-1.602.36l-.539.964c-.445.016-.883.035-1.324.051-.262-.047-.523-.09-.785-.14-.242-.051-.418.015-.512.257-.672.399-1.437.43-2.18.547-.234.04-.468.09-.703.137-.273-.004-.543-.004-.816-.008.555-.484 1.254-.695 1.914-.96a159 159 0 0 1 4.598-1.755c.52-.191 1.066-.308 1.597-.457.535-.152 1.063-.32 1.598-.457.781-.191 1.566-.363 2.348-.543.84-.191 1.675-.394 2.52-.57 1.468-.305 2.937-.598 4.405-.89.043-.009.098.038.215.093l-.972.5c-.926.234-1.61.832-2.297 1.437.093.446.36.618.726.61 1.532-.028 3.063-.074 4.594-.117.14-.004.277-.02.418-.032 1.387-.113 2.77-.273 4.156-.32 1.055-.039 2.11.066 3.168.11.168.007.332.023.5.03q1.46.09 2.914.173c.059.003.118 0 .168.02 1.395.472 2.895.605 4.223 1.296.312.16.598.371.894.555-.144.543-.515.664-.886.78z" style="stroke:none;fill-rule:nonzero;fill:#fcfcfc;fill-opacity:1"/><path d="M37.242 6.324c.094-.242.27-.308.512-.258.262.051.523.094.785.141.383.145.766.29 1.164.438v.535q-.076.088-.16.175-.327.179-.652.356c-.614-.016-1.246.14-1.828-.18.195-.02.398-.07.593-.054.426.035.797-.02 1.063-.41-.164-.415-.438-.575-.84-.536q-.316-.1-.637-.207" style="stroke:none;fill-rule:nonzero;fill:#585556;fill-opacity:1"/><path d="M37.879 6.531c.402-.039.676.121.84.535-.266.391-.637.446-1.063.41-.195-.015-.398.036-.593.055-.31-.273.019-.484.054-.715.266-.097.516-.191.762-.285" style="stroke:none;fill-rule:nonzero;fill:#83c4ea;fill-opacity:1"/><path d="M58.18 6.387c-.457.101-.91.226-1.371.297-1.371.207-2.75.386-4.125.578-1.043.148-2.094.281-3.133.46-.848.15-1.688.352-2.528.54-.597.136-1.187.289-1.78.433-.177-.047-.36-.156-.528-.133-1.063.157-2.117.352-3.18.516-.379.059-.765.082-1.148.117l.011-.152h-.003l.507-.168-.007.004 1.011-.34c.95-.09 1.82-.434 2.68-.824.574-.078 1.156-.113 1.719-.238 1.992-.454 3.972-.946 5.96-1.407.4-.093.813-.129 1.22-.187-.114.078-.223.16-.31.219q2.509.145 5.005.285" style="stroke:none;fill-rule:nonzero;fill:#858383;fill-opacity:1"/><path d="M53.484 5.883c-.406.058-.82.094-1.218.187-1.989.461-3.97.953-5.961 1.407-.563.125-1.145.16-1.72.238q.006-.083.005-.164c1.918-.774 3.957-1.055 5.957-1.492 1.867-.41 3.75-.73 5.66-.895.102-.008.195-.086.297-.133 1.02-.148 2.035-.308 3.059-.449a29 29 0 0 1 1.742-.187c1.136-.079 2.277-.141 3.418-.2.332-.02.664-.011.984.395-1 .152-1.922.21-2.844.273-1.496.13-2.996.239-4.488.403-1.633.18-3.262.41-4.89.617" style="stroke:none;fill-rule:nonzero;fill:#4f4c4d;fill-opacity:1"/><path d="M40.059 9.238q-.833.236-1.664.465c-.993.27-1.985.535-2.973.805-.297.078-.59.148-.887.222l-.168-.175c1.344-.535 2.676-1.102 4.086-1.47 1.047-.273 2.04-.757 3.082-1.042.715-.2 1.477-.219 2.219-.316-.617.218-1.23.441-1.848.66l-1.011.492.007-.004-.507.168h.003q-.17.095-.34.195" style="stroke:none;fill-rule:nonzero;fill:#858383;fill-opacity:1"/><path d="M41.906 8.387c.617-.219 1.23-.442 1.848-.66q.415-.089.836-.176.001.082-.004.164c-.86.39-1.73.734-2.68.824z" style="stroke:none;fill-rule:nonzero;fill:#5d5a5a;fill-opacity:1"/><path d="M33.523 11.055c-.347.316-.757.5-1.375.664.426-.578.918-.582 1.375-.664M34.367 10.555l.168.175c-.336.11-.676.215-1.012.325q.423-.25.844-.5" style="stroke:none;fill-rule:nonzero;fill:#a4a2a2;fill-opacity:1"/><path d="M40.059 9.238q.17-.1.34-.195l-.012.152q-.165.022-.328.043" style="stroke:none;fill-rule:nonzero;fill:#5e5b5c;fill-opacity:1"/><path d="M21.957 19.266q-.084.087-.16.175.076-.087.16-.175M27.844 15.11q-.094.069-.188.132.094-.063.188-.133" style="stroke:none;fill-rule:nonzero;fill:#858383;fill-opacity:1"/><path d="M53.484 5.883c1.63-.207 3.258-.438 4.891-.617 1.492-.164 2.992-.274 4.488-.403.235.051.469.157.703.149.727-.02 1.426.097 2.121.3.422.122.872.149 1.305.211.223.032.445.043.504.41-.488.137-.98.278-1.473.415-.152-.364-.48-.317-.773-.317a214 214 0 0 0-3.883.012c-.18 0-.36.09-.539.14q-1.325.104-2.648.204-2.496-.14-5.004-.285c.086-.059.195-.141.308-.22M64.55 6.535c-.394.082-.784.16-1.179.238 0 .032-.004.059-.004.09h5.188c-.23.055-.461.157-.696.16-1.351.016-2.707-.007-4.062.016-.606.012-1.067-.355-1.61-.504q.604-.051 1.208-.098.575.05 1.156.098" style="stroke:none;fill-rule:nonzero;fill:#83c4ea;fill-opacity:1"/><path d="M60.828 6.184c.18-.051.36-.141.54-.141 1.292-.016 2.589-.02 3.882-.012.293 0 .621-.047.773.317l-.812.035q-.761-.02-1.516-.031c-.234-.055-.468-.145-.707-.153-.718-.02-1.441-.011-2.16-.015" style="stroke:none;fill-rule:nonzero;fill:#5b5859;fill-opacity:1"/><path d="M63.695 6.352c.504.007 1.008.02 1.516.03q-.33.077-.66.153-.582-.048-1.156-.098.147-.045.3-.085" style="stroke:none;fill-rule:nonzero;fill:#c4c3c3;fill-opacity:1"/><path d="M55.988 2.684c.297.109.59.27.895.308.433.059.875.024 1.312.028-.379.042-.758.093-1.136.128-1.426.141-2.852.274-4.278.41-.383.04-.77.079-1.152.114.348-.149.68-.36 1.043-.43 1.098-.215 2.21-.375 3.316-.558" style="stroke:none;fill-rule:nonzero;fill:#4f4c4c;fill-opacity:1"/><path d="m68.71 6.86.853-.165z" style="stroke:none;fill-rule:nonzero;fill:#c6c5c5;fill-opacity:1"/><path d="M43.074 5.36c.438-.008.875-.008 1.313-.02.078 0 .152-.04.273-.07.078-.207.153-.442.254-.66.18-.368.371-.739.871-.739l-.078.246c.508.067 1.035.031 1.375.531-.441.668-1.262.176-1.855.582.351.176.617.313.882.45-1.023.215-2.05.425-3.074.64.012-.32.028-.64.04-.96" style="stroke:none;fill-rule:nonzero;fill:#83c4ea;fill-opacity:1"/><path d="M46.11 5.68c-.266-.137-.532-.274-.883-.45.593-.406 1.414.086 1.855-.582-.34-.5-.867-.464-1.375-.53.031-.102.055-.173.078-.247.332-.027.664-.07 1-.074.922-.004 1.164.187 1.414 1.082.028.105.043.215.063.3-.153.403-.465.489-.817.497-.445.008-.89.004-1.336.004" style="stroke:none;fill-rule:nonzero;fill:#535051;fill-opacity:1"/><path d="M39.703 7.176v-.531l-1.164-.438c.441-.016.879-.035 1.324-.05l.54-.966c.042.45.398.297.644.317.375.031.781-.02.969.496-.23.098-.438.184-.645.27 0 .042.004.085.004.124q.522.075 1.043.149-1.36.314-2.715.629" style="stroke:none;fill-rule:nonzero;fill:#83c4ea;fill-opacity:1"/><path d="M42.418 6.547q-.522-.074-1.043-.149c0-.039-.004-.082-.004-.125.207-.085.414-.171.645-.27-.188-.515-.594-.464-.97-.495-.245-.02-.6.133-.644-.317.489-.324 1.04-.363 1.602-.359.445 0 .824.129 1.07.527-.011.32-.027.641-.039.961q-.312.114-.617.227" style="stroke:none;fill-rule:nonzero;fill:#545152;fill-opacity:1"/><path d="M39.543 7.355q.084-.087.16-.175-.076.088-.16.175" style="stroke:none;fill-rule:nonzero;fill:#c2c1c1;fill-opacity:1"/><path d="M41.906 8.387v.152l-1.011.34z" style="stroke:none;fill-rule:nonzero;fill:#5f5c5d;fill-opacity:1"/><path d="m40.395 9.043.507-.168z" style="stroke:none;fill-rule:nonzero;fill:#5e5b5c;fill-opacity:1"/></svg>