<?xml version="1.0" encoding="UTF-8"?>
<svg xmlns="http://www.w3.org/2000/svg" xmlns:xlink="http://www.w3.org/1999/xlink" width="176pt" height="35.53pt" viewBox="0 0 176 35.53" version="1.1">
<defs>
<clipPath id="clip1">
  <path d="M 21 31 L 38 31 L 38 35.53125 L 21 35.53125 Z M 21 31 "/>
</clipPath>
<clipPath id="clip2">
  <path d="M 32 33 L 42 33 L 42 35.53125 L 32 35.53125 Z M 32 33 "/>
</clipPath>
</defs>
<g id="surface1">
<path style=" stroke:none;fill-rule:nonzero;fill:rgb(27.545166%,26.226807%,26.554871%);fill-opacity:1;" d="M 176 12.5625 C 175.558594 13.644531 175.113281 14.730469 174.671875 15.8125 C 174.523438 16.171875 174.378906 16.53125 174.210938 16.949219 C 172.550781 16.949219 170.910156 16.949219 169.214844 16.949219 C 167.367188 21.640625 165.539062 26.28125 163.699219 30.957031 C 162.082031 31.019531 160.511719 30.992188 158.796875 30.960938 C 160.632812 26.25 162.410156 21.683594 164.21875 17.046875 C 163.390625 16.855469 160.253906 16.949219 159.476562 16.949219 C 159.488281 16.230469 160.484375 13.523438 161.140625 12.394531 C 166.066406 12.394531 171.03125 12.394531 176 12.394531 C 176 12.453125 176 12.507812 176 12.5625 "/>
<path style=" stroke:none;fill-rule:nonzero;fill:rgb(52.146912%,51.275635%,51.49231%);fill-opacity:1;" d="M 2.179688 14.574219 C 1.453125 14.804688 0.726562 14.800781 0 14.574219 C 0 14.519531 0 14.460938 0 14.40625 C 0.339844 13.714844 0.683594 13.023438 1.023438 12.324219 C 1.582031 12.246094 2.140625 12.210938 2.675781 12.078125 C 5.160156 11.457031 7.664062 10.957031 10.21875 10.710938 C 10.851562 10.648438 11.492188 10.613281 12.125 10.53125 C 13.222656 10.386719 14.320312 10.207031 15.417969 10.058594 C 16.328125 9.933594 17.234375 9.808594 18.148438 9.722656 C 19.058594 9.636719 19.976562 9.601562 20.894531 9.539062 C 22.503906 9.429688 24.109375 9.316406 25.71875 9.203125 C 26.550781 9.144531 27.386719 9.109375 28.214844 9.015625 C 28.589844 8.976562 28.953125 8.824219 29.324219 8.722656 C 29.648438 8.6875 29.972656 8.644531 30.296875 8.617188 C 31.199219 8.535156 32.097656 8.449219 33 8.390625 C 33.167969 8.378906 33.347656 8.488281 33.523438 8.542969 C 33.3125 8.675781 33.117188 8.832031 32.894531 8.933594 C 32.210938 9.234375 31.433594 9.398438 30.847656 9.828125 C 29.75 10.632812 28.292969 10.8125 27.371094 11.898438 C 27.289062 11.992188 27.132812 12.03125 27 12.078125 C 26.480469 12.261719 26.097656 12.605469 25.828125 13.078125 C 25.765625 13.132812 25.707031 13.183594 25.648438 13.238281 C 24.230469 13.234375 22.816406 13.238281 21.398438 13.222656 C 21.132812 13.21875 20.867188 13.136719 20.601562 13.089844 C 21.320312 13.070312 22.042969 13.054688 22.75 13.039062 C 23.808594 11.546875 25.507812 10.992188 26.914062 9.960938 C 24.8125 9.78125 20.269531 11.46875 19.09375 12.832031 C 19.433594 12.902344 19.78125 12.972656 20.128906 13.046875 C 18.164062 13.046875 16.203125 13.050781 14.238281 13.050781 C 14.507812 13.003906 14.773438 12.917969 15.039062 12.914062 C 15.988281 12.894531 16.9375 12.910156 17.886719 12.902344 C 18.128906 12.898438 18.371094 12.863281 18.574219 12.84375 C 18.820312 12.355469 19.027344 11.933594 19.246094 11.515625 C 19.457031 11.117188 19.847656 10.808594 19.910156 10.3125 C 19.785156 10.292969 19.722656 10.265625 19.679688 10.285156 C 18.097656 10.898438 16.503906 11.492188 14.941406 12.15625 C 14.445312 12.363281 14.03125 12.757812 13.578125 13.066406 C 13.183594 13.117188 12.789062 13.167969 12.394531 13.21875 C 12.652344 13.132812 12.910156 13.050781 13.226562 12.945312 C 13.417969 12.179688 14.449219 11.792969 14.324219 10.726562 C 13.417969 11.128906 12.59375 11.519531 11.746094 11.871094 C 10.925781 12.210938 10.273438 12.9375 9.273438 13.027344 C 9.347656 12.417969 9.753906 11.976562 9.746094 11.308594 C 8.402344 11.839844 7.300781 12.519531 6.421875 13.691406 C 6.683594 13.714844 6.867188 13.734375 7.050781 13.753906 C 6.878906 13.8125 6.707031 13.871094 6.535156 13.929688 C 6.375 13.925781 6.210938 13.917969 6.050781 13.914062 C 5.484375 13.976562 4.917969 14.035156 4.355469 14.097656 C 4.355469 14.128906 4.355469 14.160156 4.355469 14.191406 C 4.535156 14.214844 4.71875 14.242188 4.898438 14.265625 C 4.605469 14.308594 4.304688 14.347656 4.011719 14.390625 C 3.730469 14.175781 3.453125 14.175781 3.183594 14.410156 C 2.851562 14.464844 2.515625 14.519531 2.179688 14.574219 "/>
<path style=" stroke:none;fill-rule:nonzero;fill:rgb(30.747986%,29.489136%,29.801941%);fill-opacity:1;" d="M 29.324219 8.722656 C 28.953125 8.824219 28.589844 8.976562 28.214844 9.015625 C 27.386719 9.109375 26.550781 9.144531 25.71875 9.203125 C 24.109375 9.316406 22.503906 9.429688 20.894531 9.539062 C 19.976562 9.601562 19.058594 9.636719 18.148438 9.722656 C 17.234375 9.808594 16.328125 9.933594 15.417969 10.058594 C 14.320312 10.207031 13.222656 10.386719 12.125 10.53125 C 11.492188 10.613281 10.851562 10.648438 10.21875 10.710938 C 7.664062 10.957031 5.160156 11.457031 2.675781 12.078125 C 2.140625 12.210938 1.582031 12.246094 1.023438 12.324219 C 0.683594 13.023438 0.339844 13.714844 0 14.40625 C 0 14.015625 0 13.625 0 13.234375 C 0.0507812 13.007812 0.0976562 12.777344 0.148438 12.550781 C 0.257812 12.15625 0.359375 11.753906 0.679688 11.558594 C 1 11.558594 1.253906 11.558594 1.507812 11.558594 C 2.828125 11.363281 4.164062 11.230469 5.46875 10.960938 C 8.667969 10.308594 11.878906 9.785156 15.152344 9.703125 C 15.960938 9.683594 16.765625 9.570312 17.566406 9.46875 C 18.976562 9.285156 20.378906 8.984375 21.792969 8.90625 C 24.296875 8.777344 26.8125 8.777344 29.324219 8.722656 "/>
<path style=" stroke:none;fill-rule:nonzero;fill:rgb(67.39502%,66.801453%,66.949463%);fill-opacity:1;" d="M 0.148438 12.550781 C 0.0976562 12.777344 0.0507812 13.007812 0 13.234375 C 0 13.011719 0 12.785156 0 12.5625 C 0.0507812 12.558594 0.0976562 12.554688 0.148438 12.550781 "/>
<path style=" stroke:none;fill-rule:nonzero;fill:rgb(27.545166%,26.226807%,26.554871%);fill-opacity:1;" d="M 76.453125 21.960938 C 78.078125 19.464844 79.707031 16.96875 81.332031 14.472656 C 81.773438 13.796875 82.214844 13.121094 82.671875 12.414062 C 84.253906 12.414062 85.828125 12.414062 87.503906 12.414062 C 87.464844 12.777344 87.449219 13.101562 87.398438 13.417969 C 86.992188 15.976562 86.582031 18.53125 86.171875 21.085938 C 86.148438 21.25 86.148438 21.417969 86.136719 21.585938 C 85.980469 22.003906 85.980469 22.003906 86.128906 22.386719 C 86.1875 22.269531 86.234375 22.183594 86.28125 22.09375 C 87.953125 19.191406 89.621094 16.289062 91.292969 13.390625 C 91.488281 13.054688 91.695312 12.730469 91.890625 12.410156 C 93.464844 12.410156 94.988281 12.410156 96.527344 12.410156 C 96.308594 13.117188 86.59375 29.414062 85.464844 30.984375 C 83.835938 30.984375 82.199219 30.984375 80.496094 30.984375 C 81.058594 27.328125 81.617188 23.726562 82.171875 20.125 C 82.300781 19.941406 82.359375 19.753906 82.183594 19.472656 C 82.09375 19.625 82.042969 19.714844 81.992188 19.800781 C 79.574219 23.519531 77.15625 27.234375 74.71875 30.984375 C 73.085938 30.984375 71.453125 30.984375 69.714844 30.984375 C 70.042969 28.859375 70.558594 26.816406 70.964844 24.757812 C 71.371094 22.703125 71.820312 20.664062 72.25 18.617188 C 72.683594 16.550781 73.121094 14.484375 73.558594 12.410156 C 75.199219 12.410156 76.75 12.410156 78.382812 12.410156 C 78.246094 13.011719 78.132812 13.550781 78.007812 14.085938 C 77.449219 16.449219 76.886719 18.808594 76.332031 21.167969 C 76.285156 21.359375 76.265625 21.550781 76.234375 21.746094 C 76.179688 21.9375 76.125 22.128906 76.070312 22.320312 C 76.117188 22.335938 76.164062 22.355469 76.210938 22.371094 C 76.292969 22.234375 76.371094 22.097656 76.453125 21.960938 "/>
<path style=" stroke:none;fill-rule:nonzero;fill:rgb(27.545166%,26.226807%,26.554871%);fill-opacity:1;" d="M 107.082031 21.0625 C 105.789062 24.347656 104.496094 27.632812 103.1875 30.957031 C 101.675781 30.957031 100.183594 30.957031 98.578125 30.957031 C 101.003906 24.746094 103.40625 18.601562 105.820312 12.421875 C 107.351562 12.421875 108.847656 12.421875 110.453125 12.421875 C 111.082031 15.722656 111.714844 19.023438 112.351562 22.375 C 112.703125 22.230469 112.714844 21.917969 112.808594 21.683594 C 113.875 18.957031 114.929688 16.222656 115.992188 13.496094 C 116.136719 13.132812 116.300781 12.78125 116.460938 12.410156 C 117.976562 12.410156 119.445312 12.410156 120.917969 12.410156 C 120.859375 13.050781 114.550781 29.414062 113.769531 30.960938 C 112.28125 30.960938 110.757812 30.960938 109.148438 30.960938 C 108.511719 27.65625 107.878906 24.363281 107.242188 21.074219 C 107.1875 21.070312 107.136719 21.066406 107.082031 21.0625 "/>
<path style=" stroke:none;fill-rule:nonzero;fill:rgb(27.545166%,26.226807%,26.554871%);fill-opacity:1;" d="M 138.644531 30.953125 C 138.707031 30.316406 145.335938 13.285156 145.855469 12.410156 C 150.148438 12.410156 154.464844 12.410156 158.789062 12.410156 C 158.738281 13.027344 157.871094 15.332031 157.328125 16.289062 C 154.644531 16.464844 151.910156 16.292969 149.132812 16.394531 C 148.765625 17.320312 148.40625 18.222656 148.027344 19.183594 C 148.679688 19.390625 149.285156 19.265625 149.875 19.285156 C 150.519531 19.3125 151.160156 19.292969 151.804688 19.292969 C 152.417969 19.292969 153.03125 19.292969 153.644531 19.292969 C 154.257812 19.292969 154.867188 19.292969 155.601562 19.292969 C 155.175781 20.644531 154.652344 21.828125 154.15625 23.101562 C 151.617188 23.101562 149.085938 23.101562 146.503906 23.101562 C 146.027344 24.308594 145.574219 25.46875 145.097656 26.683594 C 145.863281 26.882812 146.554688 26.765625 147.238281 26.789062 C 147.933594 26.808594 148.632812 26.792969 149.332031 26.792969 C 150.003906 26.792969 150.671875 26.796875 151.34375 26.796875 C 152.035156 26.800781 152.730469 26.796875 153.546875 26.796875 C 152.992188 28.234375 152.480469 29.578125 151.949219 30.953125 C 147.496094 30.953125 143.070312 30.953125 138.644531 30.953125 "/>
<path style=" stroke:none;fill-rule:nonzero;fill:rgb(27.545166%,26.226807%,26.554871%);fill-opacity:1;" d="M 62.027344 17.265625 C 62.054688 17.199219 62.085938 17.128906 62.152344 16.972656 C 60.59375 16.972656 59.101562 16.972656 57.476562 16.972656 C 57.941406 15.351562 58.597656 13.925781 59.105469 12.410156 C 63.832031 12.410156 68.503906 12.410156 73.238281 12.410156 C 73.140625 13.238281 72.765625 13.921875 72.523438 14.644531 C 72.273438 15.386719 71.679688 16.898438 71.679688 16.898438 C 71.679688 16.898438 68.726562 16.949219 67.613281 16.960938 C 67.378906 16.964844 67.144531 17.046875 66.910156 17.089844 C 66.890625 17.144531 66.867188 17.195312 66.847656 17.246094 C 66.355469 18.519531 65.851562 19.785156 65.375 21.066406 C 64.226562 24.152344 63.089844 27.242188 61.941406 30.328125 C 61.875 30.511719 61.78125 30.679688 61.699219 30.855469 C 61.675781 30.835938 61.65625 30.800781 61.636719 30.800781 C 60.136719 30.808594 58.640625 30.816406 57.140625 30.828125 C 57.570312 29.597656 57.988281 28.359375 58.4375 27.132812 C 59.570312 24.054688 60.71875 20.980469 61.859375 17.902344 C 61.933594 17.695312 61.972656 17.476562 62.027344 17.261719 L 62.027344 17.265625 "/>
<path style=" stroke:none;fill-rule:nonzero;fill:rgb(27.545166%,26.226807%,26.554871%);fill-opacity:1;" d="M 125.3125 24.492188 C 126.847656 24.269531 128.410156 24.042969 130.015625 23.8125 C 130.164062 24.15625 129.953125 24.421875 129.898438 24.703125 C 129.824219 25.109375 129.707031 25.523438 129.710938 25.929688 C 129.71875 26.5 130.078125 26.792969 130.644531 26.753906 C 131.261719 26.710938 131.800781 26.445312 132.144531 25.941406 C 132.566406 25.328125 132.988281 24.6875 133.277344 24.003906 C 134.09375 22.074219 134.835938 20.121094 135.605469 18.175781 C 136.296875 16.441406 136.984375 14.703125 137.675781 12.964844 C 137.746094 12.789062 137.847656 12.621094 137.949219 12.414062 C 139.535156 12.414062 141.113281 12.414062 142.769531 12.414062 C 142.695312 12.667969 142.65625 12.878906 142.582031 13.070312 C 141.195312 16.539062 139.820312 20.015625 138.40625 23.472656 C 137.761719 25.050781 137.039062 26.601562 135.878906 27.882812 C 133.5625 30.449219 130.695312 31.472656 127.285156 30.828125 C 125.558594 30.5 124.734375 29.523438 124.617188 27.777344 C 124.558594 26.839844 124.867188 25.328125 125.3125 24.492188 "/>
<path style=" stroke:none;fill-rule:nonzero;fill:rgb(27.545166%,26.226807%,26.554871%);fill-opacity:1;" d="M 103.6875 12.421875 C 101.3125 18.679688 98.855469 24.804688 96.460938 30.976562 C 94.839844 30.976562 93.257812 30.976562 91.558594 30.976562 C 92.289062 28.855469 93.144531 26.847656 93.933594 24.8125 C 94.742188 22.730469 95.554688 20.65625 96.367188 18.578125 C 97.167969 16.53125 97.96875 14.484375 98.773438 12.421875 C 100.410156 12.421875 101.984375 12.421875 103.6875 12.421875 "/>
<path style=" stroke:none;fill-rule:nonzero;fill:rgb(52.146912%,51.275635%,51.49231%);fill-opacity:1;" d="M 53.664062 9.910156 C 53.535156 9.957031 53.40625 10.046875 53.28125 10.035156 C 51.851562 9.898438 50.484375 10.296875 49.101562 10.539062 C 48.945312 10.488281 48.792969 10.4375 48.636719 10.386719 C 48.628906 10.421875 48.621094 10.460938 48.613281 10.5 C 48.679688 10.527344 48.75 10.554688 48.820312 10.582031 C 48.636719 10.625 48.453125 10.667969 48.269531 10.710938 C 47.878906 10.460938 47.484375 10.46875 47.09375 10.710938 C 46.652344 10.714844 46.207031 10.722656 45.765625 10.730469 C 45.707031 10.78125 45.644531 10.832031 45.585938 10.882812 C 44.160156 11.089844 42.722656 11.253906 41.304688 11.527344 C 40.105469 11.757812 38.90625 12.050781 37.75 12.4375 C 36.378906 12.898438 34.949219 13.164062 33.636719 13.816406 C 32.3125 14.476562 30.929688 15.007812 29.59375 15.632812 C 28.789062 16.007812 28.003906 16.433594 27.234375 16.878906 C 26.515625 17.300781 25.863281 17.828125 25.019531 18.023438 C 24.578125 18.128906 24.25 18.453125 24.109375 18.929688 C 24.054688 19.113281 23.949219 19.28125 23.890625 19.40625 C 23.570312 19.597656 23.296875 19.757812 22.917969 19.984375 C 24.070312 20.46875 25.234375 20.09375 26.378906 20.757812 C 25.800781 20.894531 25.378906 20.992188 24.957031 21.089844 C 24.945312 20.820312 24.75 20.800781 24.546875 20.789062 C 23.296875 20.730469 22.050781 20.613281 20.800781 20.617188 C 19.386719 20.621094 17.972656 20.734375 16.554688 20.796875 C 15.503906 20.84375 14.449219 20.882812 13.398438 20.925781 C 13.699219 20.808594 13.992188 20.679688 14.296875 20.570312 C 14.835938 20.378906 15.386719 20.21875 15.917969 20.011719 C 16.328125 19.847656 16.714844 19.632812 17.109375 19.445312 C 17.257812 19.472656 17.421875 19.5625 17.550781 19.527344 C 18.960938 19.125 20.375 19.191406 21.796875 19.441406 C 21.8125 19.566406 21.828125 19.691406 21.84375 19.851562 C 22.929688 18.980469 23.925781 18.105469 25.003906 17.339844 C 26.085938 16.570312 27.246094 15.910156 28.503906 15.121094 C 28.210938 15.097656 28.105469 15.089844 27.996094 15.082031 C 28.574219 14.671875 29.105469 14.152344 29.742188 13.878906 C 31.597656 13.082031 33.492188 12.371094 35.378906 11.652344 C 35.863281 11.46875 36.382812 11.371094 36.882812 11.234375 C 36.367188 11.53125 35.851562 11.828125 35.335938 12.121094 C 35.699219 12.167969 36.015625 12.085938 36.320312 11.980469 C 38.765625 11.128906 41.214844 10.320312 43.769531 9.824219 C 46.085938 9.375 48.375 8.777344 50.679688 8.265625 C 52.089844 7.953125 53.507812 7.65625 54.925781 7.382812 C 55.441406 7.28125 55.96875 7.261719 56.492188 7.207031 C 56.042969 7.375 55.597656 7.542969 55.148438 7.707031 C 54.671875 7.863281 54.117188 7.820312 53.789062 8.355469 C 54.242188 8.199219 54.695312 8.042969 55.148438 7.886719 C 55.949219 7.828125 56.753906 7.765625 57.558594 7.710938 C 58.554688 7.640625 59.558594 7.632812 60.550781 7.5 C 62.292969 7.269531 64.035156 7.160156 65.792969 7.1875 C 66.597656 7.203125 67.410156 7.238281 68.214844 7.1875 C 68.953125 7.136719 69.683594 6.980469 70.417969 6.871094 C 71.605469 6.835938 71.789062 6.722656 72.101562 5.839844 C 72.511719 6.105469 73.003906 6.292969 73.078125 6.976562 C 72.839844 7.085938 72.601562 7.214844 72.351562 7.308594 C 71.539062 7.617188 70.679688 7.699219 69.820312 7.765625 C 68.882812 7.839844 67.945312 7.953125 67.007812 8.039062 C 66.761719 8.0625 66.503906 8.027344 66.257812 8.070312 C 65.023438 8.273438 63.785156 8.410156 62.53125 8.371094 C 62.199219 8.363281 61.859375 8.34375 61.53125 8.382812 C 60.347656 8.535156 59.167969 8.6875 57.992188 8.875 C 56.652344 9.089844 55.316406 9.339844 53.980469 9.589844 C 53.847656 9.617188 53.546875 9.59375 53.664062 9.910156 "/>
<path style=" stroke:none;fill-rule:nonzero;fill:rgb(30.917358%,29.660034%,29.972839%);fill-opacity:1;" d="M 53.664062 9.910156 C 53.546875 9.59375 53.847656 9.617188 53.980469 9.589844 C 55.316406 9.339844 56.652344 9.089844 57.992188 8.875 C 59.167969 8.6875 60.347656 8.535156 61.53125 8.382812 C 61.859375 8.34375 62.199219 8.363281 62.53125 8.371094 C 63.785156 8.410156 65.023438 8.273438 66.257812 8.070312 C 66.503906 8.027344 66.761719 8.0625 67.007812 8.039062 C 67.945312 7.953125 68.882812 7.839844 69.820312 7.765625 C 70.679688 7.699219 71.539062 7.617188 72.351562 7.308594 C 72.601562 7.214844 72.839844 7.085938 73.078125 6.976562 C 73.003906 6.292969 72.511719 6.105469 72.101562 5.839844 C 72 5.746094 71.910156 5.628906 71.792969 5.5625 C 69.664062 4.363281 67.433594 3.488281 64.957031 3.335938 C 64.128906 3.289062 63.3125 3.132812 62.488281 3.023438 C 62.664062 3.003906 62.839844 2.984375 63.015625 2.960938 C 61.875 2.839844 60.738281 2.847656 59.605469 2.839844 C 58.609375 2.832031 57.605469 2.921875 56.625 2.660156 C 56.785156 2.613281 56.941406 2.539062 57.097656 2.527344 C 58.402344 2.457031 59.707031 2.402344 61.011719 2.339844 C 61.269531 2.324219 61.527344 2.300781 61.949219 2.265625 C 61.726562 2.078125 61.65625 1.980469 61.570312 1.953125 C 60.332031 1.605469 59.082031 1.410156 57.789062 1.585938 C 56.136719 1.808594 54.480469 1.988281 52.828125 2.1875 C 52.765625 2.132812 52.703125 2.078125 52.636719 2.023438 C 52.992188 1.871094 53.335938 1.667969 53.707031 1.574219 C 54.382812 1.410156 55.070312 1.292969 55.757812 1.191406 C 56.410156 1.089844 57.0625 1.03125 57.71875 0.957031 C 57.320312 0.789062 56.914062 0.6875 56.511719 0.691406 C 55.703125 0.703125 54.894531 0.734375 54.09375 0.820312 C 52.847656 0.949219 51.597656 1.066406 50.367188 1.304688 C 48.507812 1.660156 46.671875 2.121094 44.820312 2.523438 C 41.765625 3.1875 38.789062 4.117188 35.855469 5.179688 C 35.421875 5.304688 34.988281 5.433594 34.558594 5.5625 C 34.5 5.5 34.441406 5.441406 34.382812 5.382812 C 35.121094 5.058594 35.859375 4.730469 36.605469 4.414062 C 37.582031 4.003906 38.550781 3.582031 39.542969 3.210938 C 42.242188 2.199219 45.042969 1.539062 47.871094 1.027344 C 50.117188 0.617188 52.386719 0.277344 54.65625 0.0429688 C 55.753906 -0.0703125 56.894531 0.0390625 57.988281 0.210938 C 59.027344 0.375 60.050781 0.703125 61.039062 1.066406 C 61.628906 1.28125 62.160156 1.679688 62.683594 2.046875 C 63.066406 2.316406 63.460938 2.445312 63.921875 2.488281 C 65.113281 2.597656 66.308594 2.714844 67.496094 2.871094 C 68.644531 3.019531 69.703125 3.464844 70.710938 4.019531 C 71.292969 4.34375 71.855469 4.710938 72.421875 5.070312 C 72.886719 5.363281 73.199219 5.789062 73.363281 6.3125 C 73.574219 6.972656 73.414062 7.375 72.796875 7.695312 C 71.84375 8.195312 70.804688 8.421875 69.746094 8.527344 C 68.21875 8.671875 66.6875 8.761719 65.160156 8.878906 C 64.4375 8.929688 63.714844 8.984375 62.992188 9.042969 C 60.210938 9.277344 57.433594 9.507812 54.652344 9.746094 C 54.320312 9.773438 53.992188 9.855469 53.664062 9.910156 "/>
<path style=" stroke:none;fill-rule:nonzero;fill:rgb(52.146912%,51.275635%,51.49231%);fill-opacity:1;" d="M 37.054688 15.0625 C 35.902344 14.683594 34.707031 14.71875 33.519531 14.703125 C 34.386719 14.414062 35.25 14.117188 36.121094 13.84375 C 37.605469 13.378906 39.09375 12.921875 40.585938 12.476562 C 40.792969 12.414062 41.023438 12.429688 41.242188 12.410156 C 40.867188 12.574219 40.496094 12.765625 40.105469 12.898438 C 39.269531 13.1875 38.421875 13.445312 37.59375 14.023438 C 37.800781 14.035156 37.902344 14.0625 38 14.046875 C 39.878906 13.6875 41.753906 13.308594 43.636719 12.980469 C 44.222656 12.875 44.832031 12.90625 45.429688 12.878906 C 44.433594 13.550781 43.292969 13.890625 42.382812 14.753906 C 43.785156 14.6875 45.082031 14.632812 46.375 14.5625 C 46.621094 14.550781 46.863281 14.484375 47.113281 14.449219 C 47.351562 14.414062 47.566406 14.429688 47.597656 14.742188 C 46.125 15.484375 46.125 15.484375 45.914062 15.894531 C 46.554688 15.894531 47.191406 15.929688 47.816406 15.878906 C 48.15625 15.851562 48.480469 15.671875 48.816406 15.5625 C 48.976562 15.726562 49.140625 15.886719 49.300781 16.050781 C 48.703125 16.261719 48.246094 16.648438 47.707031 17.242188 C 48.855469 17.128906 49.8125 17.035156 50.769531 16.945312 C 51.109375 17.273438 51.453125 17.597656 51.792969 17.925781 C 51.605469 17.964844 51.410156 17.980469 51.226562 18.039062 C 50.011719 18.421875 48.777344 18.507812 47.621094 18.402344 C 47.289062 18.214844 47.0625 18.058594 46.808594 17.953125 C 46.453125 17.808594 46.074219 17.71875 45.714844 17.570312 C 44.636719 17.128906 43.5625 16.671875 42.484375 16.21875 C 42.382812 16.175781 42.277344 16.136719 42.167969 16.109375 C 41.417969 15.90625 40.667969 15.699219 39.910156 15.511719 C 39.132812 15.324219 38.382812 14.964844 37.546875 15.082031 C 37.390625 14.875 37.226562 14.863281 37.054688 15.0625 "/>
<path style=" stroke:none;fill-rule:nonzero;fill:rgb(30.917358%,29.660034%,29.972839%);fill-opacity:1;" d="M 41.242188 12.410156 C 41.023438 12.429688 40.792969 12.414062 40.585938 12.476562 C 39.09375 12.921875 37.605469 13.378906 36.121094 13.84375 C 35.25 14.117188 34.386719 14.414062 33.519531 14.703125 C 30.429688 16.03125 27.347656 17.363281 24.628906 19.550781 C 25.636719 20.042969 26.800781 20.082031 27.507812 21.003906 C 27.183594 21.558594 26.683594 21.582031 26.230469 21.597656 C 25.117188 21.632812 24.003906 21.621094 22.890625 21.625 C 22.699219 21.625 22.503906 21.613281 22.308594 21.609375 C 23.191406 21.4375 24.074219 21.261719 24.957031 21.089844 C 25.378906 20.992188 25.800781 20.894531 26.378906 20.757812 C 25.234375 20.09375 24.070312 20.46875 22.917969 19.984375 C 23.296875 19.757812 23.570312 19.597656 23.890625 19.40625 C 23.949219 19.28125 24.054688 19.113281 24.109375 18.929688 C 24.25 18.453125 24.578125 18.128906 25.019531 18.023438 C 25.863281 17.828125 26.515625 17.300781 27.234375 16.878906 C 28.003906 16.433594 28.789062 16.007812 29.59375 15.632812 C 30.929688 15.007812 32.3125 14.476562 33.636719 13.816406 C 34.949219 13.164062 36.378906 12.898438 37.75 12.4375 C 38.90625 12.050781 40.105469 11.757812 41.304688 11.527344 C 42.722656 11.253906 44.160156 11.089844 45.585938 10.882812 C 45.644531 10.832031 45.707031 10.78125 45.765625 10.730469 C 46.207031 10.722656 46.652344 10.714844 47.09375 10.710938 C 47.207031 10.757812 47.316406 10.808594 47.425781 10.859375 C 47.324219 10.871094 47.222656 10.882812 47.121094 10.898438 C 46.890625 10.945312 46.660156 10.992188 46.429688 11.039062 C 46.226562 11.109375 46.019531 11.183594 45.730469 11.285156 C 47.105469 12.339844 48.261719 13.480469 49.09375 14.917969 C 49.316406 15.375 49.539062 15.828125 49.761719 16.28125 C 49.730469 16.304688 49.695312 16.328125 49.660156 16.351562 C 49.539062 16.25 49.421875 16.152344 49.300781 16.050781 C 49.140625 15.886719 48.976562 15.726562 48.816406 15.5625 C 48.542969 15.222656 48.269531 14.882812 47.996094 14.546875 C 46.949219 13.546875 45.902344 12.550781 44.8125 11.515625 C 43.609375 11.816406 42.425781 12.113281 41.242188 12.410156 "/>
<path style=" stroke:none;fill-rule:nonzero;fill:rgb(51.370239%,76.94397%,91.673279%);fill-opacity:1;" d="M 29.324219 8.722656 C 26.8125 8.777344 24.296875 8.777344 21.792969 8.90625 C 20.378906 8.984375 18.976562 9.285156 17.566406 9.46875 C 16.765625 9.570312 15.960938 9.683594 15.152344 9.703125 C 11.878906 9.785156 8.667969 10.308594 5.46875 10.960938 C 4.164062 11.230469 2.828125 11.363281 1.507812 11.558594 C 2.21875 11.347656 2.925781 11.125 3.640625 10.9375 C 4.46875 10.714844 5.304688 10.503906 6.140625 10.324219 C 7.65625 9.996094 9.175781 9.695312 10.691406 9.378906 C 11.445312 9.222656 12.203125 9.0625 12.957031 8.902344 C 13.308594 9.179688 13.703125 9.03125 14.078125 8.996094 C 16.292969 8.785156 18.507812 8.554688 20.722656 8.355469 C 22.21875 8.21875 23.726562 8.191406 25.214844 7.992188 C 27.125 7.738281 29.039062 7.628906 30.960938 7.578125 C 32.578125 7.539062 34.195312 7.53125 35.8125 7.5 C 35.980469 7.496094 36.148438 7.433594 36.453125 7.367188 C 35.6875 6.972656 35.007812 7.089844 34.359375 7.007812 C 34.59375 6.960938 34.828125 6.910156 35.0625 6.871094 C 35.804688 6.753906 36.570312 6.722656 37.242188 6.324219 C 37.457031 6.394531 37.667969 6.464844 37.878906 6.53125 C 37.632812 6.625 37.382812 6.71875 37.117188 6.816406 C 37.082031 7.046875 36.753906 7.257812 37.0625 7.53125 C 37.644531 7.851562 38.277344 7.695312 38.890625 7.710938 C 38.085938 7.890625 37.28125 8.070312 36.472656 8.25 C 36.453125 8.253906 36.425781 8.230469 36.398438 8.21875 C 36.253906 7.964844 36.027344 8.046875 35.816406 8.082031 C 35.273438 8.175781 34.734375 8.277344 34.195312 8.371094 C 34.074219 8.417969 33.957031 8.464844 33.839844 8.511719 C 33.734375 8.523438 33.628906 8.53125 33.523438 8.542969 C 33.347656 8.488281 33.167969 8.378906 33 8.390625 C 32.097656 8.449219 31.199219 8.535156 30.296875 8.617188 C 29.972656 8.644531 29.648438 8.6875 29.324219 8.722656 "/>
<path style=" stroke:none;fill-rule:nonzero;fill:rgb(30.747986%,29.489136%,29.801941%);fill-opacity:1;" d="M 17.109375 19.445312 C 16.714844 19.632812 16.328125 19.847656 15.917969 20.011719 C 15.386719 20.21875 14.835938 20.378906 14.296875 20.570312 C 13.992188 20.679688 13.699219 20.808594 13.398438 20.925781 C 13.019531 21.097656 12.632812 21.25 12.265625 21.441406 C 12.070312 21.542969 12.007812 21.726562 12.21875 21.941406 C 12.335938 21.917969 12.472656 21.902344 12.597656 21.855469 C 13.496094 21.503906 14.425781 21.445312 15.375 21.488281 C 15.769531 21.507812 16.167969 21.425781 16.5625 21.390625 C 17.492188 21.644531 18.460938 21.644531 19.433594 21.570312 C 19.605469 21.554688 19.777344 21.515625 19.769531 21.777344 C 18.898438 22.59375 17.863281 22.566406 16.878906 22.152344 C 16.003906 21.785156 15.210938 21.863281 14.367188 22.148438 C 13.734375 22.359375 13.082031 22.515625 12.453125 22.738281 C 12.117188 22.855469 11.820312 23.0625 11.441406 23.265625 C 10.652344 22.53125 11.359375 21.796875 11.40625 21.066406 C 13 20.210938 14.761719 20.082031 16.414062 19.519531 C 17.152344 18.480469 17.945312 17.46875 18.621094 16.382812 C 19.3125 15.28125 20.503906 14.75 21.4375 13.730469 C 20.824219 13.6875 20.328125 13.617188 19.835938 13.625 C 16.988281 13.660156 14.140625 13.6875 11.296875 13.773438 C 9.707031 13.820312 8.125 13.972656 6.539062 14.074219 C 6.535156 14.027344 6.535156 13.976562 6.535156 13.929688 C 6.707031 13.871094 6.878906 13.8125 7.050781 13.753906 C 8.832031 13.574219 10.613281 13.394531 12.394531 13.21875 C 12.789062 13.167969 13.183594 13.117188 13.578125 13.066406 C 13.796875 13.0625 14.019531 13.058594 14.238281 13.050781 C 16.203125 13.050781 18.164062 13.046875 20.128906 13.046875 C 20.285156 13.058594 20.445312 13.074219 20.601562 13.089844 C 20.867188 13.136719 21.132812 13.21875 21.398438 13.222656 C 22.816406 13.238281 24.230469 13.234375 25.648438 13.238281 L 25.644531 13.230469 C 25.253906 13.832031 24.726562 14.019531 24.066406 13.730469 C 23.429688 13.449219 22.859375 13.601562 22.34375 13.992188 C 21.96875 14.273438 21.632812 14.605469 21.277344 14.917969 C 21.027344 15.136719 20.804688 15.390625 20.53125 15.574219 C 19.175781 16.5 18.15625 17.742188 17.222656 19.066406 C 17.152344 19.167969 17.144531 19.316406 17.109375 19.445312 "/>
<path style=" stroke:none;fill-rule:nonzero;fill:rgb(51.370239%,76.94397%,91.673279%);fill-opacity:1;" d="M 35.855469 5.179688 C 38.789062 4.117188 41.765625 3.1875 44.820312 2.523438 C 46.671875 2.121094 48.507812 1.660156 50.367188 1.304688 C 51.597656 1.066406 52.847656 0.949219 54.09375 0.820312 C 54.894531 0.734375 55.703125 0.703125 56.511719 0.691406 C 56.914062 0.6875 57.320312 0.789062 57.71875 0.957031 C 57.0625 1.03125 56.410156 1.089844 55.757812 1.191406 C 55.070312 1.292969 54.382812 1.410156 53.707031 1.574219 C 53.335938 1.667969 52.992188 1.871094 52.636719 2.023438 C 52.363281 2.027344 52.089844 2.03125 51.816406 2.035156 C 51.800781 2.011719 51.78125 1.988281 51.765625 1.960938 C 52.078125 1.800781 52.386719 1.640625 52.738281 1.460938 C 52.621094 1.40625 52.566406 1.359375 52.523438 1.367188 C 51.054688 1.660156 49.585938 1.953125 48.117188 2.257812 C 47.273438 2.433594 46.4375 2.636719 45.597656 2.828125 C 44.816406 3.007812 44.03125 3.179688 43.25 3.371094 C 42.714844 3.507812 42.1875 3.675781 41.652344 3.828125 C 41.121094 3.976562 40.574219 4.09375 40.054688 4.285156 C 38.515625 4.851562 36.976562 5.425781 35.457031 6.039062 C 34.796875 6.304688 34.097656 6.515625 33.542969 7 C 32.75 7 31.960938 7.003906 31.167969 7.003906 C 31.640625 6.835938 32.160156 6.773438 32.507812 6.355469 C 32.566406 6.355469 32.628906 6.351562 32.6875 6.351562 L 32.675781 6.359375 C 32.949219 6.300781 33.222656 6.246094 33.496094 6.1875 C 34.125 6.097656 35.414062 5.601562 36.015625 5.21875 C 35.960938 5.207031 35.90625 5.191406 35.855469 5.179688 "/>
<path style=" stroke:none;fill-rule:nonzero;fill:rgb(30.917358%,29.660034%,29.972839%);fill-opacity:1;" d="M 31.167969 7.003906 C 31.960938 7.003906 32.75 7 33.542969 7 C 33.816406 7.003906 34.085938 7.003906 34.359375 7.007812 C 35.007812 7.089844 35.6875 6.972656 36.453125 7.367188 C 36.148438 7.433594 35.980469 7.496094 35.8125 7.5 C 34.195312 7.53125 32.578125 7.539062 30.960938 7.578125 C 29.039062 7.628906 27.125 7.738281 25.214844 7.992188 C 23.726562 8.191406 22.21875 8.21875 20.722656 8.355469 C 18.507812 8.554688 16.292969 8.785156 14.078125 8.996094 C 13.703125 9.03125 13.308594 9.179688 12.957031 8.902344 C 14.015625 8.667969 15.066406 8.363281 16.136719 8.21875 C 17.734375 7.996094 19.347656 7.902344 20.949219 7.726562 C 22.386719 7.570312 23.820312 7.371094 25.253906 7.199219 C 25.832031 7.132812 26.414062 7.058594 26.992188 7.046875 C 28.386719 7.015625 29.777344 7.015625 31.167969 7.003906 "/>
<path style=" stroke:none;fill-rule:nonzero;fill:rgb(31.253052%,30.001831%,30.31311%);fill-opacity:1;" d="M 37.546875 15.082031 C 38.382812 14.964844 39.132812 15.324219 39.910156 15.511719 C 40.667969 15.699219 41.417969 15.90625 42.167969 16.109375 C 42.277344 16.136719 42.382812 16.175781 42.484375 16.21875 C 43.5625 16.671875 44.636719 17.128906 45.714844 17.570312 C 46.074219 17.71875 46.453125 17.808594 46.808594 17.953125 C 47.0625 18.058594 47.289062 18.214844 47.621094 18.402344 C 48.777344 18.507812 50.011719 18.421875 51.226562 18.039062 C 51.410156 17.980469 51.605469 17.964844 51.792969 17.925781 C 51.863281 18.128906 51.929688 18.332031 51.996094 18.519531 C 51.464844 19.078125 50.824219 19.160156 50.1875 19.207031 C 49.578125 19.253906 48.960938 19.261719 48.347656 19.246094 C 48.050781 19.234375 47.738281 19.167969 47.460938 19.054688 C 44.175781 17.734375 40.949219 16.269531 37.5625 15.210938 C 37.558594 15.164062 37.554688 15.121094 37.550781 15.074219 L 37.546875 15.082031 "/>
<path style=" stroke:none;fill-rule:nonzero;fill:rgb(76.78833%,76.367188%,76.470947%);fill-opacity:1;" d="M 19.769531 21.777344 C 19.777344 21.515625 19.605469 21.554688 19.433594 21.570312 C 18.460938 21.644531 17.492188 21.644531 16.5625 21.390625 C 16.167969 21.425781 15.769531 21.507812 15.375 21.488281 C 14.425781 21.445312 13.496094 21.503906 12.597656 21.855469 C 12.472656 21.902344 12.335938 21.917969 12.21875 21.941406 C 12.007812 21.726562 12.070312 21.542969 12.265625 21.441406 C 12.632812 21.25 13.019531 21.097656 13.398438 20.925781 C 14.449219 20.882812 15.503906 20.84375 16.554688 20.796875 C 17.972656 20.734375 19.386719 20.621094 20.800781 20.617188 C 22.050781 20.613281 23.296875 20.730469 24.546875 20.789062 C 24.75 20.800781 24.945312 20.820312 24.957031 21.089844 C 24.074219 21.261719 23.191406 21.4375 22.308594 21.609375 C 21.953125 21.578125 21.59375 21.582031 21.246094 21.511719 C 20.710938 21.402344 20.214844 21.414062 19.769531 21.777344 "/>
<path style=" stroke:none;fill-rule:nonzero;fill:rgb(31.758118%,30.516052%,30.82428%);fill-opacity:1;" d="M 19.292969 23.484375 C 18.878906 24.972656 19.125 26.355469 19.957031 27.644531 C 20.089844 27.855469 20.222656 28.085938 20.40625 28.242188 C 21.902344 29.496094 23.339844 30.832031 25.3125 31.332031 C 25.824219 31.460938 26.316406 31.667969 26.816406 31.839844 C 26.753906 31.90625 26.6875 31.96875 26.625 32.03125 C 25.234375 31.820312 23.933594 31.34375 22.699219 30.679688 C 22.429688 30.535156 22.175781 30.355469 21.890625 30.246094 C 20.882812 29.863281 20.183594 29.089844 19.535156 28.300781 C 19.015625 27.660156 18.5625 26.929688 18.230469 26.175781 C 17.855469 25.3125 18.191406 24.484375 18.71875 23.753906 C 18.863281 23.558594 19.085938 23.421875 19.273438 23.257812 C 19.28125 23.332031 19.285156 23.410156 19.292969 23.484375 "/>
<g clip-path="url(#clip1)" clip-rule="nonzero">
<path style=" stroke:none;fill-rule:nonzero;fill:rgb(31.590271%,30.345154%,30.653381%);fill-opacity:1;" d="M 21.972656 31.660156 C 23.601562 32.132812 25.234375 32.601562 26.867188 33.070312 C 26.972656 33.101562 27.082031 33.148438 27.1875 33.152344 C 28.4375 33.203125 29.570312 33.691406 30.734375 34.0625 C 31.421875 34.277344 32.132812 34.429688 32.839844 34.570312 C 33.515625 34.707031 34.226562 34.625 34.875 34.964844 C 35.101562 35.082031 35.421875 35.015625 35.699219 35.023438 C 36.148438 35.035156 36.570312 35.121094 37.089844 35.460938 C 36.558594 35.566406 36.167969 35.535156 35.78125 35.460938 C 34.71875 35.257812 33.671875 34.9375 32.566406 35.007812 C 32.40625 35.019531 32.242188 34.941406 32.082031 34.902344 C 31.054688 34.648438 30.023438 34.417969 29 34.144531 C 27.683594 33.789062 26.375 33.40625 25.066406 33.03125 C 24.34375 32.824219 23.621094 32.621094 22.914062 32.375 C 22.523438 32.242188 22.160156 32.023438 21.785156 31.84375 C 21.847656 31.785156 21.910156 31.722656 21.972656 31.660156 "/>
</g>
<g clip-path="url(#clip2)" clip-rule="nonzero">
<path style=" stroke:none;fill-rule:nonzero;fill:rgb(33.106995%,31.889343%,32.191467%);fill-opacity:1;" d="M 32.699219 33.640625 C 33.632812 33.761719 34.566406 33.925781 35.507812 34 C 36.839844 34.109375 38.171875 34.164062 39.507812 34.222656 C 40.335938 34.261719 41.089844 34.433594 41.683594 35.121094 C 41.152344 35.195312 33.898438 34.148438 32.6875 33.835938 C 32.691406 33.769531 32.695312 33.707031 32.699219 33.640625 "/>
</g>
<path style=" stroke:none;fill-rule:nonzero;fill:rgb(51.370239%,76.94397%,91.673279%);fill-opacity:1;" d="M 49.300781 16.050781 C 49.421875 16.152344 49.539062 16.25 49.660156 16.351562 C 49.695312 16.328125 49.730469 16.304688 49.761719 16.28125 C 49.539062 15.828125 49.316406 15.375 49.09375 14.917969 C 49.59375 15.414062 50.105469 15.898438 50.585938 16.414062 C 50.703125 16.539062 50.710938 16.765625 50.769531 16.945312 C 49.8125 17.035156 48.855469 17.128906 47.707031 17.242188 C 48.246094 16.648438 48.703125 16.261719 49.300781 16.050781 "/>
<path style=" stroke:none;fill-rule:nonzero;fill:rgb(32.769775%,31.546021%,31.84967%);fill-opacity:1;" d="M 15.5625 24.285156 C 15.785156 24.074219 15.917969 23.929688 16.066406 23.808594 C 16.148438 23.742188 16.257812 23.710938 16.484375 23.597656 C 16.445312 24.242188 16.410156 24.785156 16.367188 25.492188 C 16.5 25.929688 16.6875 26.535156 16.902344 27.234375 C 16.304688 27.042969 16.207031 26.441406 15.714844 26.222656 C 15.664062 25.574219 15.613281 24.941406 15.5625 24.285156 "/>
<path style=" stroke:none;fill-rule:nonzero;fill:rgb(22.828674%,21.424866%,21.774292%);fill-opacity:1;" d="M 57.140625 30.828125 C 58.640625 30.816406 60.136719 30.808594 61.636719 30.800781 C 61.65625 30.800781 61.675781 30.835938 61.699219 30.855469 C 61.585938 30.917969 61.472656 31.027344 61.355469 31.03125 C 60.027344 31.042969 58.699219 31.039062 57.367188 31.035156 C 57.289062 31.035156 57.210938 30.996094 57.136719 30.96875 C 57.117188 30.960938 57.101562 30.921875 57.101562 30.898438 C 57.101562 30.875 57.128906 30.851562 57.140625 30.828125 "/>
<path style=" stroke:none;fill-rule:nonzero;fill:rgb(50.968933%,50.076294%,50.297546%);fill-opacity:1;" d="M 33.496094 6.1875 C 33.222656 6.246094 32.949219 6.300781 32.675781 6.359375 C 33.246094 6.035156 33.8125 5.707031 34.382812 5.382812 C 34.441406 5.441406 34.5 5.5 34.558594 5.5625 C 34.207031 5.769531 33.851562 5.980469 33.496094 6.1875 "/>
<path style=" stroke:none;fill-rule:nonzero;fill:rgb(42.880249%,41.841125%,42.098999%);fill-opacity:1;" d="M 4.898438 14.265625 C 4.71875 14.242188 4.535156 14.214844 4.355469 14.191406 C 4.355469 14.160156 4.355469 14.128906 4.355469 14.097656 C 4.917969 14.035156 5.484375 13.976562 6.050781 13.914062 C 6.171875 13.976562 6.289062 14.039062 6.410156 14.101562 C 5.90625 14.15625 5.402344 14.210938 4.898438 14.265625 "/>
<path style=" stroke:none;fill-rule:nonzero;fill:rgb(47.428894%,46.472168%,46.708679%);fill-opacity:1;" d="M 26.625 32.03125 C 26.6875 31.96875 26.753906 31.90625 26.816406 31.839844 C 27.214844 31.910156 27.613281 31.976562 28.007812 32.046875 C 27.527344 32.203125 27.066406 32.273438 26.625 32.03125 "/>
<path style=" stroke:none;fill-rule:nonzero;fill:rgb(39.846802%,38.751221%,39.022827%);fill-opacity:1;" d="M 47.425781 10.859375 C 47.316406 10.808594 47.207031 10.757812 47.09375 10.710938 C 47.484375 10.46875 47.878906 10.460938 48.269531 10.710938 C 47.988281 10.761719 47.707031 10.808594 47.425781 10.859375 "/>
<path style=" stroke:none;fill-rule:nonzero;fill:rgb(34.286499%,33.09021%,33.38623%);fill-opacity:1;" d="M 32.699219 33.640625 C 32.695312 33.707031 32.691406 33.769531 32.6875 33.835938 C 32.359375 33.777344 32.03125 33.71875 31.703125 33.664062 C 31.8125 33.605469 31.921875 33.546875 32.03125 33.488281 C 32.253906 33.539062 32.472656 33.589844 32.699219 33.640625 "/>
<path style=" stroke:none;fill-rule:nonzero;fill:rgb(44.058228%,43.040466%,43.293762%);fill-opacity:1;" d="M 21.972656 31.660156 C 21.910156 31.722656 21.847656 31.785156 21.785156 31.84375 C 21.511719 31.707031 21.238281 31.566406 20.964844 31.425781 C 20.992188 31.367188 21.023438 31.308594 21.050781 31.253906 C 21.355469 31.386719 21.664062 31.523438 21.972656 31.660156 "/>
<path style=" stroke:none;fill-rule:nonzero;fill:rgb(36.813354%,35.662842%,35.949707%);fill-opacity:1;" d="M 2.179688 14.574219 C 2.515625 14.519531 2.851562 14.464844 3.183594 14.410156 L 3.183594 14.40625 C 3.179688 14.449219 3.175781 14.496094 3.171875 14.539062 C 2.839844 14.550781 2.511719 14.5625 2.179688 14.574219 "/>
<path style=" stroke:none;fill-rule:nonzero;fill:rgb(38.497925%,37.379456%,37.657166%);fill-opacity:1;" d="M 3.183594 14.410156 C 3.453125 14.175781 3.730469 14.175781 4.011719 14.390625 C 3.910156 14.402344 3.808594 14.410156 3.710938 14.421875 C 3.535156 14.417969 3.359375 14.410156 3.183594 14.40625 L 3.183594 14.410156 "/>
<path style=" stroke:none;fill-rule:nonzero;fill:rgb(40.52124%,39.439392%,39.707947%);fill-opacity:1;" d="M 48.820312 10.582031 C 48.75 10.554688 48.679688 10.527344 48.613281 10.5 C 48.621094 10.460938 48.628906 10.421875 48.636719 10.386719 C 48.792969 10.4375 48.945312 10.488281 49.101562 10.539062 C 49.007812 10.550781 48.914062 10.566406 48.820312 10.582031 "/>
<path style=" stroke:none;fill-rule:nonzero;fill:rgb(39.846802%,38.751221%,39.022827%);fill-opacity:1;" d="M 46.429688 11.039062 C 46.660156 10.992188 46.890625 10.945312 47.121094 10.898438 C 46.890625 10.945312 46.660156 10.992188 46.429688 11.039062 "/>
<path style=" stroke:none;fill-rule:nonzero;fill:rgb(45.744324%,44.75708%,45.002747%);fill-opacity:1;" d="M 19.292969 23.484375 C 19.285156 23.410156 19.28125 23.332031 19.273438 23.257812 C 19.328125 23.21875 19.386719 23.183594 19.441406 23.144531 C 19.46875 23.167969 19.492188 23.191406 19.515625 23.21875 C 19.441406 23.304688 19.367188 23.394531 19.292969 23.484375 "/>
<path style=" stroke:none;fill-rule:nonzero;fill:rgb(32.937622%,31.716919%,32.020569%);fill-opacity:1;" d="M 37.054688 15.0625 C 37.226562 14.863281 37.390625 14.875 37.546875 15.082031 L 37.550781 15.074219 C 37.433594 15.078125 37.316406 15.085938 37.195312 15.089844 C 37.148438 15.089844 37.101562 15.078125 37.054688 15.0625 "/>
<path style=" stroke:none;fill-rule:nonzero;fill:rgb(52.146912%,51.275635%,51.49231%);fill-opacity:1;" d="M 3.183594 14.40625 C 3.359375 14.410156 3.535156 14.417969 3.710938 14.421875 C 3.53125 14.460938 3.351562 14.5 3.171875 14.539062 C 3.175781 14.496094 3.179688 14.449219 3.183594 14.40625 "/>
<path style=" stroke:none;fill-rule:nonzero;fill:rgb(27.714539%,26.399231%,26.725769%);fill-opacity:1;" d="M 6.410156 14.101562 C 6.289062 14.039062 6.171875 13.976562 6.050781 13.914062 C 6.210938 13.917969 6.375 13.925781 6.535156 13.929688 C 6.535156 13.976562 6.535156 14.027344 6.539062 14.074219 C 6.496094 14.101562 6.457031 14.109375 6.410156 14.101562 "/>
<path style=" stroke:none;fill-rule:nonzero;fill:rgb(52.146912%,51.275635%,51.49231%);fill-opacity:1;" d="M 37.195312 15.089844 C 37.316406 15.085938 37.433594 15.078125 37.550781 15.074219 C 37.554688 15.121094 37.558594 15.164062 37.5625 15.210938 C 37.441406 15.171875 37.320312 15.128906 37.195312 15.089844 "/>
<path style=" stroke:none;fill-rule:nonzero;fill:rgb(50.968933%,50.076294%,50.297546%);fill-opacity:1;" d="M 32.6875 6.351562 C 32.628906 6.351562 32.566406 6.355469 32.507812 6.355469 C 32.566406 6.355469 32.628906 6.351562 32.6875 6.351562 "/>
<path style=" stroke:none;fill-rule:nonzero;fill:rgb(51.370239%,76.94397%,91.673279%);fill-opacity:1;" d="M 12.394531 13.21875 C 10.613281 13.394531 8.832031 13.574219 7.050781 13.753906 C 6.867188 13.734375 6.683594 13.714844 6.421875 13.691406 C 7.300781 12.519531 8.402344 11.839844 9.746094 11.308594 C 9.753906 11.976562 9.347656 12.417969 9.273438 13.027344 C 10.273438 12.9375 10.925781 12.210938 11.746094 11.871094 C 12.59375 11.519531 13.417969 11.128906 14.324219 10.726562 C 14.449219 11.792969 13.417969 12.179688 13.226562 12.945312 C 12.910156 13.050781 12.652344 13.132812 12.394531 13.21875 "/>
<path style=" stroke:none;fill-rule:nonzero;fill:rgb(51.370239%,76.94397%,91.673279%);fill-opacity:1;" d="M 20.601562 13.089844 C 20.445312 13.074219 20.285156 13.058594 20.128906 13.046875 C 19.78125 12.972656 19.433594 12.902344 19.09375 12.832031 C 20.269531 11.46875 24.8125 9.78125 26.914062 9.960938 C 25.507812 10.992188 23.808594 11.546875 22.75 13.039062 C 22.042969 13.054688 21.320312 13.070312 20.601562 13.089844 "/>
<path style=" stroke:none;fill-rule:nonzero;fill:rgb(51.370239%,76.94397%,91.673279%);fill-opacity:1;" d="M 14.238281 13.050781 C 14.019531 13.058594 13.796875 13.0625 13.578125 13.066406 C 14.03125 12.757812 14.445312 12.363281 14.941406 12.15625 C 16.503906 11.492188 18.097656 10.898438 19.679688 10.285156 C 19.722656 10.265625 19.785156 10.292969 19.910156 10.3125 C 19.847656 10.808594 19.457031 11.117188 19.246094 11.515625 C 19.027344 11.933594 18.820312 12.355469 18.574219 12.84375 C 18.371094 12.863281 18.128906 12.898438 17.886719 12.902344 C 16.9375 12.910156 15.988281 12.894531 15.039062 12.914062 C 14.773438 12.917969 14.507812 13.003906 14.238281 13.050781 "/>
<path style=" stroke:none;fill-rule:nonzero;fill:rgb(31.420898%,30.172729%,30.484009%);fill-opacity:1;" d="M 33.523438 8.542969 C 33.628906 8.53125 33.734375 8.523438 33.839844 8.511719 C 33.957031 8.464844 34.074219 8.417969 34.195312 8.371094 C 34.734375 8.277344 35.273438 8.175781 35.816406 8.082031 C 36.027344 8.046875 36.253906 7.964844 36.398438 8.21875 C 36.113281 8.378906 35.839844 8.566406 35.535156 8.691406 C 34.152344 9.253906 32.742188 9.757812 31.378906 10.367188 C 30.113281 10.933594 28.894531 11.605469 27.65625 12.230469 C 27.382812 12.339844 27.101562 12.433594 26.835938 12.5625 C 26.492188 12.722656 26.164062 12.910156 25.828125 13.085938 L 25.828125 13.078125 C 26.097656 12.605469 26.480469 12.261719 27 12.078125 C 27.132812 12.03125 27.289062 11.992188 27.371094 11.898438 C 28.292969 10.8125 29.75 10.632812 30.847656 9.828125 C 31.433594 9.398438 32.210938 9.234375 32.894531 8.933594 C 33.117188 8.832031 33.3125 8.675781 33.523438 8.542969 "/>
<path style=" stroke:none;fill-rule:nonzero;fill:rgb(31.420898%,30.172729%,30.484009%);fill-opacity:1;" d="M 25.648438 13.238281 C 25.707031 13.183594 25.765625 13.132812 25.828125 13.078125 L 25.828125 13.085938 C 25.769531 13.132812 25.707031 13.183594 25.644531 13.230469 L 25.648438 13.238281 "/>
<path style=" stroke:none;fill-rule:nonzero;fill:rgb(51.370239%,76.94397%,91.673279%);fill-opacity:1;" d="M 25.644531 13.230469 C 25.707031 13.183594 25.769531 13.132812 25.828125 13.085938 C 26.164062 12.910156 26.492188 12.722656 26.835938 12.5625 C 27.101562 12.433594 27.382812 12.339844 27.65625 12.230469 C 27.609375 12.296875 27.574219 12.382812 27.511719 12.429688 C 26.316406 13.242188 25.117188 14.054688 23.910156 14.855469 C 23.546875 15.09375 23.539062 15.078125 23.347656 15.449219 C 25.007812 14.546875 26.6875 13.558594 28.433594 12.699219 C 29.929688 11.960938 31.488281 11.351562 33.035156 10.71875 C 34.96875 9.925781 36.898438 9.121094 38.863281 8.414062 C 41.039062 7.632812 43.273438 7.046875 45.539062 6.574219 C 46.957031 6.28125 48.363281 5.949219 49.789062 5.714844 C 51.753906 5.394531 53.753906 5.355469 55.703125 4.894531 C 55.945312 4.835938 56.234375 4.980469 56.503906 5.03125 C 56.402344 5.078125 56.308594 5.15625 56.207031 5.164062 C 54.296875 5.328125 52.414062 5.648438 50.546875 6.058594 C 48.546875 6.496094 46.507812 6.777344 44.589844 7.550781 C 44.308594 7.609375 44.03125 7.667969 43.753906 7.726562 C 43.011719 7.824219 42.25 7.84375 41.535156 8.042969 C 40.492188 8.328125 39.5 8.8125 38.453125 9.085938 C 37.042969 9.453125 35.710938 10.019531 34.367188 10.554688 C 34.085938 10.722656 33.804688 10.886719 33.523438 11.054688 C 33.066406 11.136719 32.574219 11.140625 32.148438 11.71875 C 32.765625 11.554688 33.175781 11.371094 33.523438 11.054688 C 33.859375 10.945312 34.199219 10.839844 34.535156 10.730469 C 34.832031 10.65625 35.125 10.585938 35.421875 10.507812 C 36.410156 10.238281 37.402344 9.972656 38.394531 9.703125 C 38.949219 9.550781 39.503906 9.394531 40.058594 9.238281 C 40.167969 9.222656 40.277344 9.210938 40.386719 9.195312 C 40.769531 9.160156 41.15625 9.136719 41.535156 9.078125 C 42.597656 8.914062 43.652344 8.71875 44.714844 8.5625 C 44.882812 8.539062 45.066406 8.648438 45.242188 8.695312 C 43.136719 9.304688 41.027344 9.902344 38.925781 10.523438 C 38.234375 10.726562 37.5625 10.996094 36.882812 11.234375 C 36.382812 11.371094 35.863281 11.46875 35.378906 11.652344 C 33.492188 12.371094 31.597656 13.082031 29.742188 13.878906 C 29.105469 14.152344 28.574219 14.671875 27.996094 15.082031 C 27.945312 15.085938 27.894531 15.097656 27.84375 15.109375 C 27.78125 15.15625 27.71875 15.199219 27.65625 15.242188 C 25.4375 16.132812 23.429688 17.324219 21.957031 19.265625 C 21.902344 19.324219 21.847656 19.382812 21.796875 19.441406 C 20.375 19.191406 18.960938 19.125 17.550781 19.527344 C 17.421875 19.5625 17.257812 19.472656 17.109375 19.445312 C 17.144531 19.316406 17.152344 19.167969 17.222656 19.066406 C 18.15625 17.742188 19.175781 16.5 20.53125 15.574219 C 20.804688 15.390625 21.027344 15.136719 21.277344 14.917969 C 21.632812 14.605469 21.96875 14.273438 22.34375 13.992188 C 22.859375 13.601562 23.429688 13.449219 24.066406 13.730469 C 24.726562 14.019531 25.253906 13.832031 25.644531 13.230469 "/>
<path style=" stroke:none;fill-rule:nonzero;fill:rgb(30.917358%,29.660034%,29.972839%);fill-opacity:1;" d="M 36.882812 11.234375 C 37.5625 10.996094 38.234375 10.726562 38.925781 10.523438 C 41.027344 9.902344 43.136719 9.304688 45.242188 8.695312 C 45.835938 8.550781 46.425781 8.398438 47.023438 8.261719 C 47.863281 8.074219 48.703125 7.871094 49.550781 7.722656 C 50.589844 7.542969 51.640625 7.410156 52.683594 7.261719 C 54.058594 7.070312 55.4375 6.890625 56.808594 6.683594 C 57.269531 6.613281 57.722656 6.488281 58.179688 6.386719 C 59.0625 6.320312 59.945312 6.253906 60.828125 6.183594 C 61.546875 6.1875 62.269531 6.179688 62.988281 6.199219 C 63.226562 6.207031 63.460938 6.296875 63.695312 6.351562 C 63.59375 6.378906 63.492188 6.40625 63.394531 6.4375 C 62.992188 6.46875 62.589844 6.5 62.1875 6.535156 C 62.050781 6.539062 61.910156 6.53125 61.773438 6.546875 C 60.011719 6.765625 58.253906 6.988281 56.492188 7.207031 C 55.96875 7.261719 55.441406 7.28125 54.925781 7.382812 C 53.507812 7.65625 52.089844 7.953125 50.679688 8.265625 C 48.375 8.777344 46.085938 9.375 43.769531 9.824219 C 41.214844 10.320312 38.765625 11.128906 36.320312 11.980469 C 36.015625 12.085938 35.699219 12.167969 35.335938 12.121094 C 35.851562 11.828125 36.367188 11.53125 36.882812 11.234375 "/>
<path style=" stroke:none;fill-rule:nonzero;fill:rgb(51.370239%,76.94397%,91.673279%);fill-opacity:1;" d="M 62.488281 3.023438 C 63.3125 3.132812 64.128906 3.289062 64.957031 3.335938 C 67.433594 3.488281 69.664062 4.363281 71.792969 5.5625 C 71.910156 5.628906 72 5.746094 72.101562 5.839844 C 71.789062 6.722656 71.605469 6.835938 70.417969 6.871094 C 70.183594 6.8125 69.949219 6.75 69.71875 6.691406 C 69.925781 6.628906 70.132812 6.566406 70.34375 6.503906 C 70.714844 6.386719 71.085938 6.265625 71.230469 5.722656 C 70.933594 5.539062 70.648438 5.328125 70.335938 5.167969 C 69.007812 4.476562 67.507812 4.34375 66.113281 3.871094 C 66.0625 3.851562 66.003906 3.855469 65.945312 3.851562 C 64.976562 3.796875 64.003906 3.738281 63.03125 3.679688 C 62.863281 3.671875 62.699219 3.65625 62.53125 3.648438 C 61.472656 3.605469 60.417969 3.5 59.363281 3.539062 C 57.976562 3.585938 56.59375 3.746094 55.207031 3.859375 C 55.066406 3.871094 54.929688 3.886719 54.789062 3.890625 C 53.257812 3.933594 51.726562 3.980469 50.195312 4.007812 C 49.828125 4.015625 49.5625 3.84375 49.46875 3.398438 C 50.15625 2.792969 50.839844 2.195312 51.765625 1.960938 C 51.78125 1.988281 51.800781 2.011719 51.816406 2.035156 C 51.660156 2.140625 51.5 2.25 51.34375 2.355469 C 50.910156 2.628906 51.53125 2.621094 51.433594 2.875 C 51.226562 3.058594 50.964844 3.296875 50.703125 3.53125 C 51.042969 3.617188 51.292969 4.039062 51.628906 3.671875 C 52.011719 3.636719 52.398438 3.597656 52.78125 3.558594 C 54.207031 3.421875 55.632812 3.289062 57.058594 3.148438 C 57.4375 3.113281 57.816406 3.0625 58.195312 3.019531 C 59.625 3.019531 61.058594 3.023438 62.488281 3.023438 "/>
<path style=" stroke:none;fill-rule:nonzero;fill:rgb(51.370239%,76.94397%,91.673279%);fill-opacity:1;" d="M 69.71875 6.691406 C 69.949219 6.75 70.183594 6.8125 70.417969 6.871094 C 69.683594 6.980469 68.953125 7.136719 68.214844 7.1875 C 67.410156 7.238281 66.597656 7.203125 65.792969 7.1875 C 64.035156 7.160156 62.292969 7.269531 60.550781 7.5 C 59.558594 7.632812 58.554688 7.640625 57.558594 7.710938 C 56.753906 7.765625 55.949219 7.828125 55.148438 7.886719 C 55.148438 7.828125 55.148438 7.765625 55.148438 7.707031 C 55.597656 7.542969 56.042969 7.375 56.492188 7.207031 C 58.253906 6.988281 60.011719 6.765625 61.773438 6.546875 C 61.910156 6.53125 62.050781 6.539062 62.1875 6.535156 C 62.730469 6.683594 63.191406 7.050781 63.796875 7.039062 C 65.152344 7.015625 66.507812 7.039062 67.859375 7.023438 C 68.09375 7.019531 68.324219 6.917969 68.554688 6.863281 L 68.632812 6.855469 L 68.710938 6.859375 C 68.992188 6.804688 69.277344 6.75 69.5625 6.695312 L 69.640625 6.6875 L 69.71875 6.691406 "/>
<path style=" stroke:none;fill-rule:nonzero;fill:rgb(31.420898%,30.172729%,30.484009%);fill-opacity:1;" d="M 21.957031 19.265625 C 23.429688 17.324219 25.4375 16.132812 27.65625 15.242188 C 27.71875 15.199219 27.78125 15.15625 27.84375 15.109375 C 27.894531 15.097656 27.945312 15.085938 27.996094 15.082031 C 28.105469 15.089844 28.210938 15.097656 28.503906 15.121094 C 27.246094 15.910156 26.085938 16.570312 25.003906 17.339844 C 23.925781 18.105469 22.929688 18.980469 21.84375 19.851562 C 21.828125 19.691406 21.8125 19.566406 21.796875 19.441406 C 21.847656 19.382812 21.902344 19.324219 21.957031 19.265625 "/>
<path style=" stroke:none;fill-rule:nonzero;fill:rgb(51.370239%,76.94397%,91.673279%);fill-opacity:1;" d="M 55.148438 7.707031 C 55.148438 7.765625 55.148438 7.828125 55.148438 7.886719 C 54.695312 8.042969 54.242188 8.199219 53.789062 8.355469 C 54.117188 7.820312 54.671875 7.863281 55.148438 7.707031 "/>
<path style=" stroke:none;fill-rule:nonzero;fill:rgb(39.846802%,38.751221%,39.022827%);fill-opacity:1;" d="M 45.765625 10.730469 C 45.707031 10.78125 45.644531 10.832031 45.585938 10.882812 C 45.644531 10.832031 45.707031 10.78125 45.765625 10.730469 "/>
<path style=" stroke:none;fill-rule:nonzero;fill:rgb(51.370239%,76.94397%,91.673279%);fill-opacity:1;" d="M 51.628906 3.671875 C 51.292969 4.039062 51.042969 3.617188 50.703125 3.53125 C 50.964844 3.296875 51.226562 3.058594 51.433594 2.875 C 51.53125 2.621094 50.910156 2.628906 51.34375 2.355469 C 51.875 2.632812 52.34375 2.316406 52.828125 2.1875 C 54.480469 1.988281 56.136719 1.808594 57.789062 1.585938 C 59.082031 1.410156 60.332031 1.605469 61.570312 1.953125 C 61.65625 1.980469 61.726562 2.078125 61.949219 2.265625 C 61.527344 2.300781 61.269531 2.324219 61.011719 2.339844 C 59.707031 2.402344 58.402344 2.457031 57.097656 2.527344 C 56.941406 2.539062 56.785156 2.613281 56.625 2.660156 C 56.414062 2.667969 56.203125 2.675781 55.988281 2.683594 C 54.882812 2.867188 53.769531 3.027344 52.671875 3.242188 C 52.308594 3.3125 51.976562 3.523438 51.628906 3.671875 "/>
<path style=" stroke:none;fill-rule:nonzero;fill:rgb(29.231262%,27.94342%,28.262329%);fill-opacity:1;" d="M 55.988281 2.683594 C 56.203125 2.675781 56.414062 2.667969 56.625 2.660156 C 57.605469 2.921875 58.609375 2.832031 59.605469 2.839844 C 60.738281 2.847656 61.875 2.839844 63.015625 2.960938 C 62.839844 2.984375 62.664062 3.003906 62.488281 3.023438 C 61.058594 3.023438 59.625 3.019531 58.195312 3.019531 C 57.757812 3.015625 57.316406 3.050781 56.882812 2.992188 C 56.578125 2.953125 56.285156 2.792969 55.988281 2.683594 "/>
<path style=" stroke:none;fill-rule:nonzero;fill:rgb(85.803223%,85.545349%,85.609436%);fill-opacity:1;" d="M 33.496094 6.1875 C 33.851562 5.980469 34.207031 5.769531 34.558594 5.5625 C 34.988281 5.433594 35.421875 5.304688 35.855469 5.179688 C 35.90625 5.191406 35.960938 5.207031 36.015625 5.21875 C 35.414062 5.601562 34.125 6.097656 33.496094 6.1875 "/>
<path style=" stroke:none;fill-rule:nonzero;fill:rgb(31.758118%,30.516052%,30.82428%);fill-opacity:1;" d="M 52.828125 2.1875 C 52.34375 2.316406 51.875 2.632812 51.34375 2.355469 C 51.5 2.25 51.660156 2.140625 51.816406 2.035156 C 52.089844 2.03125 52.363281 2.027344 52.636719 2.023438 C 52.703125 2.078125 52.765625 2.132812 52.828125 2.1875 "/>
<path style=" stroke:none;fill-rule:nonzero;fill:rgb(51.370239%,76.94397%,91.673279%);fill-opacity:1;" d="M 41.242188 12.410156 C 42.425781 12.113281 43.609375 11.816406 44.8125 11.515625 C 45.902344 12.550781 46.949219 13.546875 47.996094 14.546875 C 47.863281 14.609375 47.730469 14.675781 47.597656 14.742188 C 47.566406 14.429688 47.351562 14.414062 47.113281 14.449219 C 46.863281 14.484375 46.621094 14.550781 46.375 14.5625 C 45.082031 14.632812 43.785156 14.6875 42.382812 14.753906 C 43.292969 13.890625 44.433594 13.550781 45.429688 12.878906 C 44.832031 12.90625 44.222656 12.875 43.636719 12.980469 C 41.753906 13.308594 39.878906 13.6875 38 14.046875 C 37.902344 14.0625 37.800781 14.035156 37.59375 14.023438 C 38.421875 13.445312 39.269531 13.1875 40.105469 12.898438 C 40.496094 12.765625 40.867188 12.574219 41.242188 12.410156 "/>
<path style=" stroke:none;fill-rule:nonzero;fill:rgb(51.370239%,76.94397%,91.673279%);fill-opacity:1;" d="M 47.597656 14.742188 C 47.730469 14.675781 47.863281 14.609375 47.996094 14.546875 C 48.269531 14.882812 48.542969 15.222656 48.816406 15.5625 C 48.480469 15.671875 48.15625 15.851562 47.816406 15.878906 C 47.191406 15.929688 46.554688 15.894531 45.914062 15.894531 C 46.125 15.484375 46.125 15.484375 47.597656 14.742188 "/>
<path style=" stroke:none;fill-rule:nonzero;fill:rgb(99.014282%,98.995972%,99.000549%);fill-opacity:1;" d="M 69.71875 6.691406 L 69.640625 6.6875 L 69.5625 6.695312 C 69.277344 6.75 68.992188 6.804688 68.710938 6.859375 L 68.632812 6.855469 L 68.554688 6.863281 C 66.828125 6.863281 65.097656 6.863281 63.367188 6.863281 C 63.367188 6.832031 63.371094 6.804688 63.371094 6.773438 C 63.765625 6.695312 64.15625 6.617188 64.550781 6.535156 C 64.769531 6.484375 64.992188 6.433594 65.210938 6.382812 C 65.480469 6.371094 65.753906 6.359375 66.023438 6.347656 C 66.515625 6.210938 67.007812 6.070312 67.496094 5.933594 C 67.4375 5.566406 67.214844 5.554688 66.992188 5.523438 C 66.558594 5.460938 66.109375 5.433594 65.6875 5.3125 C 64.992188 5.109375 64.292969 4.992188 63.566406 5.011719 C 63.332031 5.019531 63.097656 4.914062 62.863281 4.863281 C 63.785156 4.800781 64.707031 4.742188 65.707031 4.589844 C 65.386719 4.183594 65.054688 4.175781 64.722656 4.195312 C 63.582031 4.253906 62.441406 4.316406 61.304688 4.394531 C 60.722656 4.4375 60.140625 4.503906 59.5625 4.582031 C 58.539062 4.722656 57.523438 4.882812 56.503906 5.03125 C 56.234375 4.980469 55.945312 4.835938 55.703125 4.894531 C 53.753906 5.355469 51.753906 5.394531 49.789062 5.714844 C 48.363281 5.949219 46.957031 6.28125 45.539062 6.574219 C 43.273438 7.046875 41.039062 7.632812 38.863281 8.414062 C 36.898438 9.121094 34.96875 9.925781 33.035156 10.71875 C 31.488281 11.351562 29.929688 11.960938 28.433594 12.699219 C 26.6875 13.558594 25.007812 14.546875 23.347656 15.449219 C 23.539062 15.078125 23.546875 15.09375 23.910156 14.855469 C 25.117188 14.054688 26.316406 13.242188 27.511719 12.429688 C 27.574219 12.382812 27.609375 12.296875 27.65625 12.230469 C 28.894531 11.605469 30.113281 10.933594 31.378906 10.367188 C 32.742188 9.757812 34.152344 9.253906 35.535156 8.691406 C 35.839844 8.566406 36.113281 8.378906 36.398438 8.21875 C 36.425781 8.230469 36.453125 8.253906 36.472656 8.25 C 37.28125 8.070312 38.085938 7.890625 38.890625 7.710938 C 39.109375 7.59375 39.324219 7.472656 39.542969 7.355469 C 39.597656 7.296875 39.652344 7.238281 39.703125 7.179688 L 39.703125 7.175781 C 40.605469 6.964844 41.511719 6.757812 42.417969 6.546875 C 42.621094 6.472656 42.828125 6.394531 43.035156 6.320312 C 44.058594 6.105469 45.085938 5.894531 46.109375 5.679688 C 46.554688 5.679688 47 5.683594 47.445312 5.675781 C 47.796875 5.667969 48.109375 5.582031 48.261719 5.179688 C 48.242188 5.09375 48.226562 4.984375 48.199219 4.878906 C 47.949219 3.984375 47.707031 3.792969 46.785156 3.796875 C 46.449219 3.800781 46.117188 3.84375 45.785156 3.871094 C 45.285156 3.871094 45.09375 4.242188 44.914062 4.609375 C 44.8125 4.828125 44.738281 5.0625 44.660156 5.269531 C 44.539062 5.300781 44.464844 5.339844 44.386719 5.339844 C 43.949219 5.351562 43.511719 5.351562 43.074219 5.359375 C 42.828125 4.960938 42.449219 4.832031 42.003906 4.832031 C 41.441406 4.828125 40.890625 4.867188 40.402344 5.191406 C 40.230469 5.5 40.058594 5.804688 39.863281 6.15625 C 39.417969 6.171875 38.980469 6.191406 38.539062 6.207031 C 38.277344 6.160156 38.015625 6.117188 37.753906 6.066406 C 37.511719 6.015625 37.335938 6.082031 37.242188 6.324219 C 36.570312 6.722656 35.804688 6.753906 35.0625 6.871094 C 34.828125 6.910156 34.59375 6.960938 34.359375 7.007812 C 34.085938 7.003906 33.816406 7.003906 33.542969 7 C 34.097656 6.515625 34.796875 6.304688 35.457031 6.039062 C 36.976562 5.425781 38.515625 4.851562 40.054688 4.285156 C 40.574219 4.09375 41.121094 3.976562 41.652344 3.828125 C 42.1875 3.675781 42.714844 3.507812 43.25 3.371094 C 44.03125 3.179688 44.816406 3.007812 45.597656 2.828125 C 46.4375 2.636719 47.273438 2.433594 48.117188 2.257812 C 49.585938 1.953125 51.054688 1.660156 52.523438 1.367188 C 52.566406 1.359375 52.621094 1.40625 52.738281 1.460938 C 52.386719 1.640625 52.078125 1.800781 51.765625 1.960938 C 50.839844 2.195312 50.15625 2.792969 49.46875 3.398438 C 49.5625 3.84375 49.828125 4.015625 50.195312 4.007812 C 51.726562 3.980469 53.257812 3.933594 54.789062 3.890625 C 54.929688 3.886719 55.066406 3.871094 55.207031 3.859375 C 56.59375 3.746094 57.976562 3.585938 59.363281 3.539062 C 60.417969 3.5 61.472656 3.605469 62.53125 3.648438 C 62.699219 3.65625 62.863281 3.671875 63.03125 3.679688 C 64.003906 3.738281 64.976562 3.796875 65.945312 3.851562 C 66.003906 3.855469 66.0625 3.851562 66.113281 3.871094 C 67.507812 4.34375 69.007812 4.476562 70.335938 5.167969 C 70.648438 5.328125 70.933594 5.539062 71.230469 5.722656 C 71.085938 6.265625 70.714844 6.386719 70.34375 6.503906 C 70.132812 6.566406 69.925781 6.628906 69.71875 6.691406 "/>
<path style=" stroke:none;fill-rule:nonzero;fill:rgb(34.454346%,33.261108%,33.557129%);fill-opacity:1;" d="M 37.242188 6.324219 C 37.335938 6.082031 37.511719 6.015625 37.753906 6.066406 C 38.015625 6.117188 38.277344 6.160156 38.539062 6.207031 C 38.921875 6.351562 39.304688 6.496094 39.703125 6.644531 C 39.703125 6.847656 39.703125 7.011719 39.703125 7.175781 L 39.703125 7.179688 C 39.652344 7.238281 39.597656 7.296875 39.542969 7.355469 C 39.324219 7.472656 39.109375 7.59375 38.890625 7.710938 C 38.277344 7.695312 37.644531 7.851562 37.0625 7.53125 C 37.257812 7.511719 37.460938 7.460938 37.65625 7.476562 C 38.082031 7.511719 38.453125 7.457031 38.71875 7.066406 C 38.554688 6.652344 38.28125 6.492188 37.878906 6.53125 C 37.667969 6.464844 37.457031 6.394531 37.242188 6.324219 "/>
<path style=" stroke:none;fill-rule:nonzero;fill:rgb(51.370239%,76.94397%,91.673279%);fill-opacity:1;" d="M 37.878906 6.53125 C 38.28125 6.492188 38.554688 6.652344 38.71875 7.066406 C 38.453125 7.457031 38.082031 7.511719 37.65625 7.476562 C 37.460938 7.460938 37.257812 7.511719 37.0625 7.53125 C 36.753906 7.257812 37.082031 7.046875 37.117188 6.816406 C 37.382812 6.71875 37.632812 6.625 37.878906 6.53125 "/>
<path style=" stroke:none;fill-rule:nonzero;fill:rgb(52.146912%,51.275635%,51.49231%);fill-opacity:1;" d="M 34.195312 8.371094 C 34.074219 8.417969 33.957031 8.464844 33.839844 8.511719 C 33.957031 8.464844 34.074219 8.417969 34.195312 8.371094 "/>
<path style=" stroke:none;fill-rule:nonzero;fill:rgb(52.146912%,51.275635%,51.49231%);fill-opacity:1;" d="M 58.179688 6.386719 C 57.722656 6.488281 57.269531 6.613281 56.808594 6.683594 C 55.4375 6.890625 54.058594 7.070312 52.683594 7.261719 C 51.640625 7.410156 50.589844 7.542969 49.550781 7.722656 C 48.703125 7.871094 47.863281 8.074219 47.023438 8.261719 C 46.425781 8.398438 45.835938 8.550781 45.242188 8.695312 C 45.066406 8.648438 44.882812 8.539062 44.714844 8.5625 C 43.652344 8.71875 42.597656 8.914062 41.535156 9.078125 C 41.15625 9.136719 40.769531 9.160156 40.386719 9.195312 C 40.390625 9.144531 40.394531 9.09375 40.398438 9.042969 L 40.394531 9.042969 C 40.5625 8.988281 40.734375 8.929688 40.902344 8.875 L 40.894531 8.878906 C 41.230469 8.765625 41.570312 8.652344 41.90625 8.539062 C 42.855469 8.449219 43.726562 8.105469 44.585938 7.714844 C 45.160156 7.636719 45.742188 7.601562 46.304688 7.476562 C 48.296875 7.023438 50.277344 6.53125 52.265625 6.070312 C 52.664062 5.976562 53.078125 5.941406 53.484375 5.882812 C 53.371094 5.960938 53.261719 6.042969 53.175781 6.101562 C 54.847656 6.199219 56.515625 6.292969 58.179688 6.386719 "/>
<path style=" stroke:none;fill-rule:nonzero;fill:rgb(31.085205%,29.830933%,30.143738%);fill-opacity:1;" d="M 53.484375 5.882812 C 53.078125 5.941406 52.664062 5.976562 52.265625 6.070312 C 50.277344 6.53125 48.296875 7.023438 46.304688 7.476562 C 45.742188 7.601562 45.160156 7.636719 44.585938 7.714844 C 44.589844 7.660156 44.589844 7.605469 44.589844 7.550781 C 46.507812 6.777344 48.546875 6.496094 50.546875 6.058594 C 52.414062 5.648438 54.296875 5.328125 56.207031 5.164062 C 56.308594 5.15625 56.402344 5.078125 56.503906 5.03125 C 57.523438 4.882812 58.539062 4.722656 59.5625 4.582031 C 60.140625 4.503906 60.722656 4.4375 61.304688 4.394531 C 62.441406 4.316406 63.582031 4.253906 64.722656 4.195312 C 65.054688 4.175781 65.386719 4.183594 65.707031 4.589844 C 64.707031 4.742188 63.785156 4.800781 62.863281 4.863281 C 61.367188 4.992188 59.867188 5.101562 58.375 5.265625 C 56.742188 5.445312 55.113281 5.675781 53.484375 5.882812 "/>
<path style=" stroke:none;fill-rule:nonzero;fill:rgb(52.146912%,51.275635%,51.49231%);fill-opacity:1;" d="M 40.058594 9.238281 C 39.503906 9.394531 38.949219 9.550781 38.394531 9.703125 C 37.402344 9.972656 36.410156 10.238281 35.421875 10.507812 C 35.125 10.585938 34.832031 10.65625 34.535156 10.730469 C 34.480469 10.671875 34.421875 10.613281 34.367188 10.554688 C 35.710938 10.019531 37.042969 9.453125 38.453125 9.085938 C 39.5 8.8125 40.492188 8.328125 41.535156 8.042969 C 42.25 7.84375 43.011719 7.824219 43.753906 7.726562 C 43.136719 7.945312 42.523438 8.167969 41.90625 8.386719 C 41.570312 8.550781 41.230469 8.714844 40.894531 8.878906 L 40.902344 8.875 C 40.734375 8.929688 40.5625 8.988281 40.394531 9.042969 L 40.398438 9.042969 C 40.285156 9.105469 40.171875 9.171875 40.058594 9.238281 "/>
<path style=" stroke:none;fill-rule:nonzero;fill:rgb(36.308289%,35.150146%,35.438538%);fill-opacity:1;" d="M 41.90625 8.386719 C 42.523438 8.167969 43.136719 7.945312 43.753906 7.726562 C 44.03125 7.667969 44.308594 7.609375 44.589844 7.550781 C 44.589844 7.605469 44.589844 7.660156 44.585938 7.714844 C 43.726562 8.105469 42.855469 8.449219 41.90625 8.539062 C 41.90625 8.488281 41.90625 8.4375 41.90625 8.386719 "/>
<path style=" stroke:none;fill-rule:nonzero;fill:rgb(64.195251%,63.543701%,63.705444%);fill-opacity:1;" d="M 33.523438 11.054688 C 33.175781 11.371094 32.765625 11.554688 32.148438 11.71875 C 32.574219 11.140625 33.066406 11.136719 33.523438 11.054688 "/>
<path style=" stroke:none;fill-rule:nonzero;fill:rgb(64.195251%,63.543701%,63.705444%);fill-opacity:1;" d="M 34.367188 10.554688 C 34.421875 10.613281 34.480469 10.671875 34.535156 10.730469 C 34.199219 10.839844 33.859375 10.945312 33.523438 11.054688 C 33.804688 10.886719 34.085938 10.722656 34.367188 10.554688 "/>
<path style=" stroke:none;fill-rule:nonzero;fill:rgb(36.981201%,35.835266%,36.11908%);fill-opacity:1;" d="M 40.058594 9.238281 C 40.171875 9.171875 40.285156 9.105469 40.398438 9.042969 C 40.394531 9.09375 40.390625 9.144531 40.386719 9.195312 C 40.277344 9.210938 40.167969 9.222656 40.058594 9.238281 "/>
<path style=" stroke:none;fill-rule:nonzero;fill:rgb(52.146912%,51.275635%,51.49231%);fill-opacity:1;" d="M 21.957031 19.265625 C 21.902344 19.324219 21.847656 19.382812 21.796875 19.441406 C 21.847656 19.382812 21.902344 19.324219 21.957031 19.265625 "/>
<path style=" stroke:none;fill-rule:nonzero;fill:rgb(52.146912%,51.275635%,51.49231%);fill-opacity:1;" d="M 27.84375 15.109375 C 27.78125 15.15625 27.71875 15.199219 27.65625 15.242188 C 27.71875 15.199219 27.78125 15.15625 27.84375 15.109375 "/>
<path style=" stroke:none;fill-rule:nonzero;fill:rgb(51.370239%,76.94397%,91.673279%);fill-opacity:1;" d="M 53.484375 5.882812 C 55.113281 5.675781 56.742188 5.445312 58.375 5.265625 C 59.867188 5.101562 61.367188 4.992188 62.863281 4.863281 C 63.097656 4.914062 63.332031 5.019531 63.566406 5.011719 C 64.292969 4.992188 64.992188 5.109375 65.6875 5.3125 C 66.109375 5.433594 66.558594 5.460938 66.992188 5.523438 C 67.214844 5.554688 67.4375 5.566406 67.496094 5.933594 C 67.007812 6.070312 66.515625 6.210938 66.023438 6.347656 C 65.871094 5.984375 65.542969 6.03125 65.25 6.03125 C 63.957031 6.023438 62.660156 6.027344 61.367188 6.042969 C 61.1875 6.042969 61.007812 6.132812 60.828125 6.183594 C 59.945312 6.253906 59.0625 6.320312 58.179688 6.386719 C 56.515625 6.292969 54.847656 6.199219 53.175781 6.101562 C 53.261719 6.042969 53.371094 5.960938 53.484375 5.882812 "/>
<path style=" stroke:none;fill-rule:nonzero;fill:rgb(51.370239%,76.94397%,91.673279%);fill-opacity:1;" d="M 64.550781 6.535156 C 64.15625 6.617188 63.765625 6.695312 63.371094 6.773438 C 63.371094 6.804688 63.367188 6.832031 63.367188 6.863281 C 65.097656 6.863281 66.828125 6.863281 68.554688 6.863281 C 68.324219 6.917969 68.09375 7.019531 67.859375 7.023438 C 66.507812 7.039062 65.152344 7.015625 63.796875 7.039062 C 63.191406 7.050781 62.730469 6.683594 62.1875 6.535156 C 62.589844 6.5 62.992188 6.46875 63.394531 6.4375 C 63.777344 6.46875 64.164062 6.503906 64.550781 6.535156 "/>
<path style=" stroke:none;fill-rule:nonzero;fill:rgb(35.801697%,34.634399%,34.924316%);fill-opacity:1;" d="M 60.828125 6.183594 C 61.007812 6.132812 61.1875 6.042969 61.367188 6.042969 C 62.660156 6.027344 63.957031 6.023438 65.25 6.03125 C 65.542969 6.03125 65.871094 5.984375 66.023438 6.347656 C 65.753906 6.359375 65.480469 6.371094 65.210938 6.382812 C 64.703125 6.371094 64.199219 6.359375 63.695312 6.351562 C 63.460938 6.296875 63.226562 6.207031 62.988281 6.199219 C 62.269531 6.179688 61.546875 6.1875 60.828125 6.183594 "/>
<path style=" stroke:none;fill-rule:nonzero;fill:rgb(76.873779%,76.454163%,76.557922%);fill-opacity:1;" d="M 63.695312 6.351562 C 64.199219 6.359375 64.703125 6.371094 65.210938 6.382812 C 64.992188 6.433594 64.769531 6.484375 64.550781 6.535156 C 64.164062 6.503906 63.777344 6.46875 63.394531 6.4375 C 63.492188 6.40625 63.59375 6.378906 63.695312 6.351562 "/>
<path style=" stroke:none;fill-rule:nonzero;fill:rgb(30.917358%,29.660034%,29.972839%);fill-opacity:1;" d="M 55.988281 2.683594 C 56.285156 2.792969 56.578125 2.953125 56.882812 2.992188 C 57.316406 3.050781 57.757812 3.015625 58.195312 3.019531 C 57.816406 3.0625 57.4375 3.113281 57.058594 3.148438 C 55.632812 3.289062 54.207031 3.421875 52.78125 3.558594 C 52.398438 3.597656 52.011719 3.636719 51.628906 3.671875 C 51.976562 3.523438 52.308594 3.3125 52.671875 3.242188 C 53.769531 3.027344 54.882812 2.867188 55.988281 2.683594 "/>
<path style=" stroke:none;fill-rule:nonzero;fill:rgb(77.485657%,77.075195%,77.177429%);fill-opacity:1;" d="M 68.710938 6.859375 C 68.992188 6.804688 69.277344 6.75 69.5625 6.695312 C 69.277344 6.75 68.992188 6.804688 68.710938 6.859375 "/>
<path style=" stroke:none;fill-rule:nonzero;fill:rgb(51.370239%,76.94397%,91.673279%);fill-opacity:1;" d="M 43.074219 5.359375 C 43.511719 5.351562 43.949219 5.351562 44.386719 5.339844 C 44.464844 5.339844 44.539062 5.300781 44.660156 5.269531 C 44.738281 5.0625 44.8125 4.828125 44.914062 4.609375 C 45.09375 4.242188 45.285156 3.871094 45.785156 3.871094 C 45.761719 3.945312 45.738281 4.015625 45.707031 4.117188 C 46.214844 4.183594 46.742188 4.148438 47.082031 4.648438 C 46.640625 5.316406 45.820312 4.824219 45.226562 5.230469 C 45.578125 5.40625 45.84375 5.542969 46.109375 5.679688 C 45.085938 5.894531 44.058594 6.105469 43.035156 6.320312 C 43.046875 6 43.0625 5.679688 43.074219 5.359375 "/>
<path style=" stroke:none;fill-rule:nonzero;fill:rgb(32.600403%,31.373596%,31.678772%);fill-opacity:1;" d="M 46.109375 5.679688 C 45.84375 5.542969 45.578125 5.40625 45.226562 5.230469 C 45.820312 4.824219 46.640625 5.316406 47.082031 4.648438 C 46.742188 4.148438 46.214844 4.183594 45.707031 4.117188 C 45.738281 4.015625 45.761719 3.945312 45.785156 3.871094 C 46.117188 3.84375 46.449219 3.800781 46.785156 3.796875 C 47.707031 3.792969 47.949219 3.984375 48.199219 4.878906 C 48.226562 4.984375 48.242188 5.09375 48.261719 5.179688 C 48.109375 5.582031 47.796875 5.667969 47.445312 5.675781 C 47 5.683594 46.554688 5.679688 46.109375 5.679688 "/>
<path style=" stroke:none;fill-rule:nonzero;fill:rgb(51.370239%,76.94397%,91.673279%);fill-opacity:1;" d="M 39.703125 7.175781 C 39.703125 7.011719 39.703125 6.847656 39.703125 6.644531 C 39.304688 6.496094 38.921875 6.351562 38.539062 6.207031 C 38.980469 6.191406 39.417969 6.171875 39.863281 6.15625 C 40.058594 5.804688 40.230469 5.5 40.402344 5.191406 C 40.445312 5.640625 40.800781 5.488281 41.046875 5.507812 C 41.421875 5.539062 41.828125 5.488281 42.015625 6.003906 C 41.785156 6.101562 41.578125 6.1875 41.371094 6.273438 C 41.371094 6.316406 41.375 6.359375 41.375 6.398438 C 41.722656 6.449219 42.070312 6.496094 42.417969 6.546875 C 41.511719 6.757812 40.605469 6.964844 39.703125 7.175781 "/>
<path style=" stroke:none;fill-rule:nonzero;fill:rgb(33.106995%,31.889343%,32.191467%);fill-opacity:1;" d="M 42.417969 6.546875 C 42.070312 6.496094 41.722656 6.449219 41.375 6.398438 C 41.375 6.359375 41.371094 6.316406 41.371094 6.273438 C 41.578125 6.1875 41.785156 6.101562 42.015625 6.003906 C 41.828125 5.488281 41.421875 5.539062 41.046875 5.507812 C 40.800781 5.488281 40.445312 5.640625 40.402344 5.191406 C 40.890625 4.867188 41.441406 4.828125 42.003906 4.832031 C 42.449219 4.832031 42.828125 4.960938 43.074219 5.359375 C 43.0625 5.679688 43.046875 6 43.035156 6.320312 C 42.828125 6.394531 42.621094 6.472656 42.417969 6.546875 "/>
<path style=" stroke:none;fill-rule:nonzero;fill:rgb(76.011658%,75.57373%,75.682068%);fill-opacity:1;" d="M 39.542969 7.355469 C 39.597656 7.296875 39.652344 7.238281 39.703125 7.179688 C 39.652344 7.238281 39.597656 7.296875 39.542969 7.355469 "/>
<path style=" stroke:none;fill-rule:nonzero;fill:rgb(37.150574%,36.006165%,36.289978%);fill-opacity:1;" d="M 41.90625 8.386719 C 41.90625 8.4375 41.90625 8.488281 41.90625 8.539062 C 41.570312 8.652344 41.230469 8.765625 40.894531 8.878906 C 41.230469 8.714844 41.570312 8.550781 41.90625 8.386719 "/>
<path style=" stroke:none;fill-rule:nonzero;fill:rgb(36.981201%,35.835266%,36.11908%);fill-opacity:1;" d="M 40.394531 9.042969 C 40.5625 8.988281 40.734375 8.929688 40.902344 8.875 C 40.734375 8.929688 40.5625 8.988281 40.394531 9.042969 "/>
</g>
</svg>
