<?xml version="1.0" encoding="UTF-8"?>
<svg xmlns="http://www.w3.org/2000/svg" xmlns:xlink="http://www.w3.org/1999/xlink" width="176pt" height="50.46pt" viewBox="0 0 176 50.46" version="1.1">
<defs>
<clipPath id="clip1">
  <path d="M 0 22 L 44 22 L 44 50.460938 L 0 50.460938 Z M 0 22 "/>
</clipPath>
</defs>
<g id="surface1">
<path style=" stroke:none;fill-rule:nonzero;fill:rgb(42.880249%,41.841125%,42.098999%);fill-opacity:1;" d="M 96.394531 17.257812 C 98.84375 17.257812 101.058594 17.257812 103.511719 17.257812 C 104.144531 20.90625 104.785156 24.578125 105.476562 28.550781 C 106.28125 24.636719 107.035156 20.988281 107.804688 17.257812 C 109.847656 17.257812 111.734375 17.257812 113.890625 17.257812 C 114.617188 20.847656 115.355469 24.496094 116.09375 28.148438 C 116.15625 28.167969 116.222656 28.191406 116.289062 28.210938 C 116.585938 26.40625 116.863281 24.601562 117.1875 22.800781 C 117.519531 20.945312 117.894531 19.097656 118.246094 17.265625 C 120.621094 17.265625 122.769531 17.265625 125.1875 17.265625 C 123.183594 24.394531 121.230469 31.335938 119.257812 38.339844 C 117.289062 38.757812 115.394531 38.433594 113.347656 38.574219 C 112.164062 34.601562 111.734375 30.511719 110.589844 26.574219 C 109.828125 30.480469 109.070312 34.390625 108.296875 38.351562 C 106.3125 38.734375 104.429688 38.472656 102.394531 38.535156 C 100.390625 31.429688 98.417969 24.429688 96.394531 17.257812 "/>
<path style=" stroke:none;fill-rule:nonzero;fill:rgb(42.880249%,41.841125%,42.098999%);fill-opacity:1;" d="M 168.53125 32.140625 C 168.53125 29.210938 168.53125 26.46875 168.53125 23.667969 C 168.015625 23.402344 167.574219 23.105469 167.09375 22.933594 C 165.597656 22.410156 164.355469 22.945312 164.058594 24.488281 C 163.617188 26.75 163.535156 29.070312 164.152344 31.324219 C 164.558594 32.808594 165.574219 33.316406 167.03125 32.886719 C 167.523438 32.742188 167.964844 32.429688 168.53125 32.140625 Z M 176 38.480469 C 173.503906 38.480469 171.210938 38.480469 168.914062 38.480469 C 168.722656 38.109375 168.554688 37.789062 168.347656 37.390625 C 166.773438 38.441406 165.179688 39.078125 163.296875 38.996094 C 161.035156 38.898438 159.339844 37.917969 158.300781 36 C 157.621094 34.742188 157.039062 33.34375 156.828125 31.945312 C 156.355469 28.8125 156.285156 25.636719 157.136719 22.542969 C 157.425781 21.480469 157.871094 20.414062 158.46875 19.492188 C 160.203125 16.8125 163.8125 15.921875 166.6875 17.355469 C 167.265625 17.640625 167.820312 17.960938 168.628906 18.390625 C 168.628906 17.121094 168.628906 16.074219 168.628906 15.03125 C 168.628906 13.988281 168.628906 12.941406 168.628906 11.808594 C 171.109375 10.820312 173.480469 9.878906 176 8.875 C 176 18.808594 176 28.535156 176 38.480469 "/>
<path style=" stroke:none;fill-rule:nonzero;fill:rgb(42.710876%,41.668701%,41.926575%);fill-opacity:1;" d="M 135.898438 17.199219 C 138.183594 17.199219 140.351562 17.199219 142.613281 17.199219 C 142.773438 17.503906 142.953125 17.835938 143.148438 18.207031 C 143.324219 18.175781 143.539062 18.191406 143.691406 18.105469 C 145.023438 17.351562 146.382812 16.789062 147.964844 16.722656 C 152.425781 16.527344 154.84375 19.210938 155.125 23.402344 C 155.304688 26.097656 155.214844 28.808594 155.230469 31.511719 C 155.242188 33.75 155.230469 35.988281 155.230469 38.453125 C 152.839844 38.632812 150.5625 38.527344 148.117188 38.523438 C 148.0625 37.867188 147.980469 37.300781 147.976562 36.734375 C 147.964844 33.503906 147.980469 30.269531 147.960938 27.039062 C 147.953125 26.320312 147.910156 25.582031 147.746094 24.886719 C 147.375 23.34375 146.578125 22.855469 145.003906 23.035156 C 144.125 23.132812 143.476562 23.53125 143.28125 24.40625 C 143.097656 25.238281 142.949219 26.089844 142.9375 26.9375 C 142.898438 30.035156 142.921875 33.136719 142.921875 36.238281 C 142.921875 36.894531 142.921875 37.550781 142.921875 38.457031 C 140.550781 38.628906 138.28125 38.53125 136.039062 38.523438 C 135.613281 37.0625 135.5 19.894531 135.898438 17.199219 "/>
<path style=" stroke:none;fill-rule:nonzero;fill:rgb(42.880249%,41.841125%,42.098999%);fill-opacity:1;" d="M 68.734375 33.089844 C 68.734375 31.890625 68.734375 30.921875 68.734375 29.929688 C 67.332031 29.109375 65.910156 29.308594 64.332031 29.523438 C 64.226562 29.664062 64.039062 29.859375 63.90625 30.085938 C 63.371094 31.019531 63.398438 32 63.863281 32.917969 C 64.324219 33.824219 65.246094 33.90625 66.109375 33.773438 C 66.988281 33.636719 67.84375 33.328125 68.734375 33.089844 Z M 69.175781 38.535156 C 68.941406 38.136719 68.753906 37.820312 68.53125 37.449219 C 66.78125 38.558594 64.949219 39.117188 62.882812 38.980469 C 59.527344 38.757812 57.105469 36.445312 56.855469 33.074219 C 56.828125 32.679688 56.84375 32.28125 56.816406 31.886719 C 56.527344 27.617188 59.335938 25.070312 63.515625 24.707031 C 64.363281 24.632812 65.234375 24.636719 66.082031 24.746094 C 66.917969 24.855469 67.734375 25.144531 68.5625 25.351562 C 69.035156 23.039062 68.332031 21.953125 66.109375 21.992188 C 64.621094 22.015625 63.136719 22.433594 61.664062 22.742188 C 61.101562 22.863281 60.582031 23.175781 59.949219 23.441406 C 59.628906 22.707031 59.324219 22.066406 59.0625 21.40625 C 58.726562 20.5625 58.425781 19.707031 58.085938 18.789062 C 60.058594 17.5625 62.1875 17.125 64.316406 16.847656 C 65.875 16.644531 67.488281 16.65625 69.054688 16.8125 C 73.15625 17.21875 75.660156 19.761719 75.8125 23.976562 C 75.984375 28.710938 75.851562 33.460938 75.851562 38.410156 C 73.574219 38.691406 71.367188 38.492188 69.175781 38.535156 "/>
<g clip-path="url(#clip1)" clip-rule="nonzero">
<path style=" stroke:none;fill-rule:nonzero;fill:rgb(26.470947%,68.974304%,79.229736%);fill-opacity:1;" d="M 43.863281 50.460938 C 41.300781 49.546875 39.480469 48.160156 37.867188 46.558594 C 35.390625 44.101562 33.074219 41.488281 30.621094 39.003906 C 29.285156 37.648438 27.890625 36.324219 26.382812 35.167969 C 20.835938 30.910156 14.859375 30.703125 8.785156 33.816406 C 6.050781 35.222656 3.558594 37.109375 0.957031 38.777344 C 0.699219 38.941406 0.429688 39.089844 0.144531 39.261719 C 0.0703125 39.03125 -0.03125 38.863281 0.0117188 38.808594 C 3.136719 34.746094 6.082031 30.519531 9.933594 27.078125 C 11.300781 25.859375 12.78125 24.730469 14.34375 23.777344 C 18.644531 21.144531 22.863281 22.007812 26.445312 25.300781 C 29.050781 27.695312 30.957031 30.597656 32.671875 33.65625 C 34.441406 36.8125 36.171875 39.996094 38.035156 43.097656 C 39.457031 45.472656 41.101562 47.699219 43.164062 49.585938 C 43.339844 49.746094 43.46875 49.960938 43.863281 50.460938 "/>
</g>
<path style=" stroke:none;fill-rule:nonzero;fill:rgb(43.049622%,42.012024%,42.269897%);fill-opacity:1;" d="M 43.757812 23.09375 C 42.65625 23.023438 41.808594 22.972656 40.855469 22.914062 C 40.445312 21.070312 40.71875 19.253906 40.660156 17.257812 C 41.695312 17.183594 42.648438 17.117188 43.789062 17.035156 C 43.789062 15.289062 43.789062 13.605469 43.789062 11.777344 C 46.1875 10.8125 48.46875 9.894531 50.96875 8.886719 C 50.96875 11.699219 50.96875 14.25 50.96875 17.019531 C 52.566406 17.09375 54.035156 17.160156 55.59375 17.234375 C 55.59375 19.160156 55.59375 20.96875 55.59375 23 C 54.070312 23 52.652344 23 51.050781 23 C 51.113281 26.257812 50.640625 29.304688 51.324219 32.207031 C 53.234375 32.851562 53.28125 32.847656 55.765625 31.921875 C 55.460938 33.96875 55.171875 35.890625 54.886719 37.785156 C 52.632812 39.113281 50.265625 39.148438 47.902344 38.851562 C 46.039062 38.613281 44.785156 37.453125 44.34375 35.601562 C 44.085938 34.523438 43.917969 33.402344 43.882812 32.292969 C 43.8125 29.921875 43.863281 27.546875 43.851562 25.175781 C 43.847656 24.53125 43.792969 23.890625 43.757812 23.09375 "/>
<path style=" stroke:none;fill-rule:nonzero;fill:rgb(42.880249%,41.841125%,42.098999%);fill-opacity:1;" d="M 88.339844 38.292969 C 88.339844 29.566406 88.339844 20.820312 88.339844 11.800781 C 90.648438 10.867188 93.042969 9.894531 95.601562 8.859375 C 95.601562 18.8125 95.601562 28.496094 95.601562 38.171875 C 94.261719 38.640625 90.507812 38.714844 88.339844 38.292969 "/>
<path style=" stroke:none;fill-rule:nonzero;fill:rgb(42.880249%,41.841125%,42.098999%);fill-opacity:1;" d="M 78.5625 17.234375 C 80.96875 17.234375 83.253906 17.234375 85.664062 17.234375 C 85.664062 24.292969 85.664062 31.253906 85.664062 38.453125 C 84.523438 38.484375 83.367188 38.53125 82.210938 38.546875 C 81.027344 38.5625 79.84375 38.550781 78.703125 38.550781 C 78.265625 37.058594 78.164062 19.773438 78.5625 17.234375 "/>
<path style=" stroke:none;fill-rule:nonzero;fill:rgb(42.880249%,41.841125%,42.098999%);fill-opacity:1;" d="M 126.121094 17.234375 C 128.527344 17.234375 130.816406 17.234375 133.222656 17.234375 C 133.222656 24.296875 133.222656 31.261719 133.222656 38.441406 C 130.898438 38.65625 128.558594 38.519531 126.25 38.523438 C 125.8125 37.054688 125.714844 19.726562 126.121094 17.234375 "/>
<path style=" stroke:none;fill-rule:nonzero;fill:rgb(42.880249%,41.841125%,42.098999%);fill-opacity:1;" d="M 28.539062 25.785156 C 26.515625 23.605469 24.222656 22.019531 21.21875 21.371094 C 23.273438 18.953125 25.53125 17.058594 27.851562 15.222656 C 29.5 13.914062 31.164062 12.625 32.792969 11.296875 C 36.609375 8.191406 39.878906 4.632812 41.933594 0 C 42.242188 1.527344 42.171875 2.085938 41.601562 4.144531 C 40.589844 7.78125 38.371094 10.730469 36.25 13.75 C 34.171875 16.707031 32.097656 19.667969 30.089844 22.671875 C 29.480469 23.582031 29.097656 24.644531 28.539062 25.785156 "/>
<path style=" stroke:none;fill-rule:nonzero;fill:rgb(43.049622%,42.012024%,42.269897%);fill-opacity:1;" d="M 37.804688 48.03125 C 37.019531 47.925781 36.6875 47.960938 36.433594 47.835938 C 31.933594 45.644531 27.484375 43.359375 23.464844 40.355469 C 21.613281 38.972656 19.953125 37.363281 18.738281 35.363281 C 18.339844 34.699219 18.019531 33.988281 17.605469 33.195312 C 19.0625 32.703125 20.214844 33.285156 21.34375 33.675781 C 24.1875 34.660156 26.648438 36.324219 28.757812 38.433594 C 31.035156 40.714844 33.175781 43.128906 35.382812 45.480469 C 36.078125 46.222656 36.785156 46.957031 37.804688 48.03125 "/>
<path style=" stroke:none;fill-rule:nonzero;fill:rgb(43.049622%,42.012024%,42.269897%);fill-opacity:1;" d="M 82.191406 15.777344 C 79.5 15.777344 77.703125 13.789062 77.914062 11.933594 C 77.992188 11.25 78.222656 10.492188 78.628906 9.953125 C 80.246094 7.8125 84.128906 7.921875 85.726562 10.082031 C 86.773438 11.5 86.414062 13.894531 84.898438 14.789062 C 84.085938 15.269531 83.097656 15.457031 82.191406 15.777344 "/>
<path style=" stroke:none;fill-rule:nonzero;fill:rgb(42.880249%,41.841125%,42.098999%);fill-opacity:1;" d="M 129.578125 15.527344 C 129.25 15.527344 128.914062 15.566406 128.59375 15.519531 C 126.933594 15.28125 125.640625 14 125.445312 12.4375 C 125.257812 10.890625 126.066406 9.550781 127.640625 8.839844 C 129.121094 8.171875 130.597656 8.285156 132.015625 8.992188 C 133.414062 9.691406 133.992188 10.953125 133.792969 12.617188 C 133.609375 14.109375 132.609375 15.144531 130.953125 15.484375 C 130.507812 15.574219 130.035156 15.554688 129.578125 15.585938 C 129.578125 15.566406 129.578125 15.546875 129.578125 15.527344 "/>
</g>
</svg>
