<svg xmlns="http://www.w3.org/2000/svg" width="176pt" height="67.28" viewBox="0 0 176 50.46"><defs><clipPath id="a"><path d="M0 22h44v28.46H0Zm0 0"/></clipPath></defs><path d="M96.395 17.258h7.117c.633 3.648 1.273 7.32 1.965 11.293.804-3.914 1.558-7.563 2.328-11.293h6.086l2.203 10.89q.094.031.195.063c.297-1.805.574-3.61.898-5.41.333-1.856.708-3.703 1.06-5.535h6.94c-2.003 7.129-3.957 14.07-5.93 21.074-1.968.418-3.862.094-5.91.234-1.183-3.972-1.613-8.062-2.757-12-.762 3.906-1.52 7.817-2.293 11.778-1.984.382-3.867.12-5.902.183zM168.531 32.14v-8.472c-.515-.266-.957-.563-1.437-.734-1.496-.524-2.739.011-3.035 1.554-.442 2.262-.524 4.582.093 6.836.407 1.485 1.422 1.992 2.88 1.563.491-.145.933-.457 1.5-.746M176 38.48h-7.086c-.191-.37-.36-.69-.566-1.09-1.575 1.051-3.168 1.688-5.051 1.606-2.262-.098-3.957-1.078-4.996-2.996-.68-1.258-1.262-2.656-1.473-4.055-.473-3.133-.543-6.308.309-9.402.289-1.063.734-2.129 1.332-3.05 1.734-2.68 5.344-3.571 8.219-2.138.578.286 1.132.606 1.94 1.036v-6.582c2.481-.989 4.852-1.93 7.372-2.934z" style="stroke:none;fill-rule:nonzero;fill:#6d6b6b;fill-opacity:1"/><path d="M135.898 17.2h6.715c.16.304.34.636.535 1.007.176-.031.391-.016.543-.102 1.332-.753 2.692-1.316 4.274-1.382 4.46-.196 6.879 2.488 7.16 6.68.18 2.695.09 5.406.105 8.109.012 2.238 0 4.476 0 6.941-2.39.18-4.667.074-7.113.07-.054-.656-.137-1.222-.14-1.789-.012-3.23.003-6.464-.016-9.695-.008-.719-.05-1.457-.215-2.152-.371-1.543-1.168-2.032-2.742-1.852-.879.098-1.527.496-1.723 1.371-.183.832-.332 1.684-.344 2.532-.039 3.097-.015 6.199-.015 9.3v2.219c-2.371.172-4.64.074-6.883.066-.426-1.46-.539-18.628-.14-21.324" style="stroke:none;fill-rule:nonzero;fill:#6d6a6b;fill-opacity:1"/><path d="M68.734 33.09v-3.16c-1.402-.82-2.824-.621-4.402-.407-.105.141-.293.336-.426.563-.535.934-.508 1.914-.043 2.832.461.906 1.383.988 2.246.855.88-.136 1.735-.445 2.625-.683m.442 5.445c-.235-.398-.422-.715-.645-1.086-1.75 1.11-3.582 1.668-5.648 1.531-3.356-.222-5.778-2.535-6.028-5.906-.027-.394-.011-.793-.039-1.187-.289-4.27 2.52-6.817 6.7-7.18.847-.074 1.718-.07 2.566.04.836.108 1.652.398 2.48.605.473-2.313-.23-3.399-2.453-3.36-1.488.024-2.972.442-4.445.75-.562.121-1.082.434-1.715.7-.32-.735-.625-1.376-.886-2.036-.336-.843-.637-1.699-.977-2.617 1.973-1.227 4.102-1.664 6.23-1.941 1.559-.203 3.172-.192 4.739-.035 4.101.406 6.605 2.949 6.757 7.164.172 4.734.04 9.484.04 14.433-2.278.281-4.485.082-6.676.125" style="stroke:none;fill-rule:nonzero;fill:#6d6b6b;fill-opacity:1"/><g clip-path="url(#a)"><path d="M43.863 50.46c-2.562-.913-4.383-2.3-5.996-3.901-2.476-2.457-4.793-5.07-7.246-7.555-1.336-1.356-2.73-2.68-4.238-3.836-5.547-4.258-11.524-4.465-17.598-1.352C6.051 35.223 3.56 37.11.957 38.777c-.258.164-.527.313-.812.485-.075-.23-.176-.399-.133-.453 3.125-4.063 6.07-8.29 9.922-11.73a30.7 30.7 0 0 1 4.41-3.302c4.3-2.632 8.52-1.77 12.101 1.524 2.606 2.394 4.512 5.297 6.227 8.355 1.77 3.157 3.5 6.34 5.363 9.442 1.422 2.375 3.067 4.601 5.13 6.488.175.16.304.375.698.875" style="stroke:none;fill-rule:nonzero;fill:#44b0ca;fill-opacity:1"/></g><path d="M43.758 23.094c-1.102-.07-1.95-.121-2.903-.18-.41-1.844-.136-3.66-.195-5.656 1.035-.074 1.988-.14 3.13-.223v-5.258c2.398-.964 4.679-1.882 7.179-2.89v8.133c1.597.074 3.066.14 4.625.214V23H51.05c.062 3.258-.41 6.305.273 9.207 1.91.645 1.957.64 4.442-.285-.305 2.047-.594 3.969-.88 5.863-2.253 1.328-4.62 1.363-6.984 1.067-1.863-.239-3.117-1.399-3.558-3.25a16.6 16.6 0 0 1-.461-3.309c-.07-2.371-.02-4.746-.031-7.117-.004-.645-.059-1.285-.094-2.082" style="stroke:none;fill-rule:nonzero;fill:#6e6b6c;fill-opacity:1"/><path d="M88.34 38.293V11.801l7.262-2.942v29.313c-1.34.469-5.094.543-7.262.121M78.563 17.234h7.101v21.22c-1.14.03-2.297.077-3.453.093-1.184.016-2.367.004-3.508.004-.437-1.492-.539-18.778-.14-21.317M126.121 17.234h7.102v21.207c-2.325.215-4.664.079-6.973.082-.437-1.468-.535-18.796-.129-21.289M28.54 25.785c-2.024-2.18-4.317-3.765-7.321-4.414 2.054-2.418 4.312-4.312 6.633-6.148 1.648-1.309 3.312-2.598 4.941-3.926C36.609 8.19 39.879 4.633 41.933 0c.31 1.527.239 2.086-.331 4.145-1.012 3.636-3.23 6.585-5.352 9.605-2.078 2.957-4.152 5.918-6.16 8.922-.61.91-.992 1.973-1.55 3.113" style="stroke:none;fill-rule:nonzero;fill:#6d6b6b;fill-opacity:1"/><path d="M37.805 48.031c-.785-.105-1.117-.07-1.371-.195-4.5-2.191-8.95-4.477-12.97-7.48-1.85-1.383-3.51-2.993-4.726-4.993-.398-.664-.718-1.375-1.133-2.168 1.457-.492 2.61.09 3.739.48 2.843.985 5.304 2.65 7.414 4.759 2.277 2.28 4.418 4.695 6.625 7.046.695.743 1.402 1.477 2.422 2.551M82.191 15.777c-2.691 0-4.488-1.988-4.277-3.843.078-.684.309-1.442.715-1.98 1.617-2.142 5.5-2.032 7.098.128 1.046 1.418.687 3.813-.829 4.707-.812.48-1.8.668-2.707.988" style="stroke:none;fill-rule:nonzero;fill:#6e6b6c;fill-opacity:1"/><path d="M129.578 15.527c-.328 0-.664.04-.984-.007-1.66-.239-2.953-1.52-3.149-3.082-.187-1.547.621-2.887 2.196-3.598 1.48-.668 2.957-.555 4.375.152 1.398.7 1.976 1.961 1.777 3.625-.184 1.492-1.184 2.528-2.84 2.867-.445.09-.918.07-1.375.102z" style="stroke:none;fill-rule:nonzero;fill:#6d6b6b;fill-opacity:1"/></svg>