<svg xmlns="http://www.w3.org/2000/svg" width="176pt" height="42.187" viewBox="0 0 176 31.64"><defs><clipPath id="a"><path d="M144 0h32v31.64h-32Zm0 0"/></clipPath></defs><g clip-path="url(#a)"><path d="M144.355 15.82c0-8.734 7.083-15.816 15.829-15.816C168.918.004 176 7.086 176 15.82c0 8.739-7.082 15.82-15.816 15.82-8.746 0-15.829-7.081-15.829-15.82" style="stroke:none;fill-rule:nonzero;fill:#fff;fill-opacity:1"/></g><path d="M145.922 15.82c0-7.87 6.383-14.257 14.262-14.257 7.87 0 14.254 6.386 14.254 14.257 0 7.875-6.383 14.262-14.254 14.262-7.88 0-14.262-6.387-14.262-14.262" style="stroke:none;fill-rule:nonzero;fill:#e41f25;fill-opacity:1"/><path d="M174.04 15.82c0 7.657-6.204 13.86-13.856 13.86-7.657 0-13.868-6.203-13.868-13.86 0-7.652 6.211-13.855 13.868-13.855 7.652 0 13.855 6.203 13.855 13.855" style="stroke:none;fill-rule:nonzero;fill:#e41f25;fill-opacity:1"/><path d="m171.96 18.27-23.898 5.082s-.039.003-.078.015a14 14 0 0 1-.453-.789c.04-.008.082-.02.082-.02 3.883-.734 7.418-2.421 8.907-6.792 1.605-4.684.503-9.786-2.79-12.664.004-.004-.035-.032-.062-.055.32-.16.64-.317.973-.453a1 1 0 0 1 .097.047c6.692 2.8 10.13 6.586 10.13 10.226-.032 2.238-1.18 3.785-2.638 5.004h9.73c.27 0 .34.328 0 .399" style="stroke:none;fill-rule:nonzero;fill:#fff;fill-opacity:1"/><path d="m82.02 21.008-3.903-10.371h-3.375l-3.902 10.37h3.031l.516-1.495h4.086l.515 1.496Zm-4.274-3.828h-2.625l1.317-3.903ZM83.094 10.637h2.672v10.37h-2.672zM96.793 21.008l-2.117-3.813c.98-.343 2.066-1.304 2.066-3.105 0-1.93-1.305-3.453-3.601-3.453h-5.2v10.37h2.676v-3.484h1.371l1.742 3.485ZM92.73 15.19h-2.113V12.97h2.113c.72 0 1.293.39 1.293 1.105 0 .727-.574 1.117-1.293 1.117M105.324 21.008v-2.332h-4.164v-8.04h-2.676v10.372zM107.004 10.637h2.676v10.37h-2.676zM121.496 21.008V10.637h-2.691v5.707l-4.2-5.707h-2.75v10.37h2.672v-6l4.387 6zM131.273 21.008v-2.332h-4.925v-1.758h4.816V14.59h-4.816v-1.621h4.925v-2.332h-7.601v10.37zM136.996 21.195c2.777 0 4.32-1.386 4.32-3.472 0-3.856-5.863-2.887-5.863-4.164 0-.454.348-.715 1.117-.715 1.028 0 2.168.36 3.04 1.086l1.46-2.004c-1.105-.946-2.55-1.446-4.218-1.446-2.657 0-4.118 1.555-4.118 3.297 0 4 5.86 2.86 5.86 4.227 0 .516-.555.824-1.461.824a4.68 4.68 0 0 1-3.32-1.367l-1.418 2.086c1.039.98 2.503 1.648 4.601 1.648M5.582 21.008v-8.04h2.89v-2.331H0v2.332h2.91v8.039zM14.969 21.195c3.328 0 4.883-1.82 4.883-4.398v-6.16h-2.704v6.078c0 1.226-.746 2.113-2.18 2.113-1.44 0-2.187-.887-2.187-2.113v-6.078H10.06v6.172c0 2.546 1.582 4.386 4.91 4.386M30.875 21.008l-2.113-3.813c.976-.343 2.066-1.304 2.066-3.105 0-1.93-1.305-3.453-3.601-3.453h-5.2v10.37h2.676v-3.484h1.371l1.742 3.485ZM26.82 15.19h-2.117V12.97h2.117c.715 0 1.285.39 1.285 1.105 0 .727-.57 1.117-1.285 1.117M41.988 21.008l-4.238-5.52 4.023-4.851h-3.296l-3.184 4.261v-4.261h-2.676v10.37h2.676v-3.03l.7-.872 2.718 3.903zM43.094 10.637h2.676v10.37h-2.676zM51.805 21.195c2.78 0 4.316-1.386 4.316-3.472 0-3.856-5.86-2.887-5.86-4.164 0-.454.344-.715 1.118-.715 1.031 0 2.16.36 3.035 1.086l1.461-2.004c-1.105-.946-2.547-1.446-4.215-1.446-2.66 0-4.12 1.555-4.12 3.297 0 4 5.862 2.86 5.862 4.227 0 .516-.558.824-1.46.824a4.7 4.7 0 0 1-3.325-1.367l-1.422 2.086c1.043.98 2.504 1.648 4.61 1.648M67.336 21.008V10.637H64.66v3.883h-4.308v-3.883H57.68v10.37h2.672v-4.155h4.308v4.156z" style="stroke:none;fill-rule:nonzero;fill:#26489c;fill-opacity:1"/></svg>