<?xml version="1.0" encoding="UTF-8"?>
<svg xmlns="http://www.w3.org/2000/svg" xmlns:xlink="http://www.w3.org/1999/xlink" width="177.53pt" height="59pt" viewBox="0 0 177.53 59" version="1.1">
<defs>
<clipPath id="clip1">
  <path d="M 166 1 L 177.53125 1 L 177.53125 41 L 166 41 Z M 166 1 "/>
</clipPath>
</defs>
<g id="surface1">
<path style=" stroke:none;fill-rule:nonzero;fill:rgb(92.980957%,11.471558%,14.03656%);fill-opacity:1;" d="M 23.507812 41.339844 C 21.21875 42.742188 19.152344 44.011719 17.082031 45.28125 C 17.117188 45.371094 17.15625 45.464844 17.191406 45.554688 C 19.863281 45.21875 22.535156 44.882812 25.457031 44.515625 C 24.765625 43.390625 24.183594 42.441406 23.507812 41.339844 Z M 36.351562 55.347656 C 38.148438 52.722656 39.773438 50.34375 41.542969 47.761719 C 40.371094 47.761719 39.589844 47.761719 38.789062 47.761719 C 38.171875 48.59375 37.578125 49.390625 36.914062 50.28125 C 36.296875 49.339844 35.769531 48.539062 35.25 47.746094 C 34.371094 47.746094 33.539062 47.746094 32.433594 47.746094 C 33.753906 50.308594 34.980469 52.6875 36.351562 55.347656 Z M 24.320312 29.296875 C 24.46875 28.433594 24.570312 27.832031 24.71875 26.960938 C 21.234375 27.253906 17.894531 27.53125 14.550781 27.808594 C 14.523438 27.933594 14.492188 28.054688 14.460938 28.179688 C 17.15625 30.363281 19.851562 32.542969 22.722656 34.867188 C 23.015625 33.859375 23.21875 33.164062 23.417969 32.46875 C 22.398438 31.542969 21.441406 30.671875 20.308594 29.644531 C 21.859375 29.511719 23.042969 29.40625 24.320312 29.296875 Z M 0 40.832031 C 7.265625 39.769531 14.535156 38.710938 21.800781 37.652344 C 21.847656 37.535156 21.894531 37.421875 21.941406 37.308594 C 17.503906 33.667969 13.066406 30.03125 8.277344 26.109375 C 14.957031 25.414062 21.261719 24.757812 27.851562 24.070312 C 25.230469 16.941406 22.683594 10.003906 20.082031 2.921875 C 21.847656 1.9375 23.519531 1.007812 25.332031 0 C 27.535156 12.105469 29.707031 24 31.898438 36.027344 C 37.007812 35.453125 41.9375 34.902344 46.945312 34.339844 C 47.238281 34.625 47.558594 34.929688 47.941406 35.292969 C 48.984375 35.195312 50.082031 35.089844 51.179688 34.984375 C 51.214844 35.09375 51.242188 35.199219 51.277344 35.304688 C 47.28125 37.476562 43.285156 39.644531 38.984375 41.976562 C 45.324219 46.382812 51.476562 50.652344 57.910156 55.117188 C 55.785156 55.742188 53.96875 56.273438 52.160156 56.800781 C 49.566406 53.742188 47.09375 50.832031 44.507812 47.785156 C 41.707031 51.539062 39.015625 55.148438 36.144531 59 C 33.984375 55.148438 31.910156 51.449219 29.769531 47.632812 C 24.246094 50.730469 18.820312 53.773438 13.28125 56.878906 C 12.707031 56.457031 12.136719 56.035156 11.4375 55.515625 C 15.867188 52.886719 20.117188 50.367188 24.371094 47.84375 C 24.335938 47.730469 24.300781 47.617188 24.265625 47.503906 C 18.015625 48.238281 11.761719 48.976562 5.511719 49.710938 C 5.460938 49.625 5.414062 49.539062 5.367188 49.449219 C 10.019531 46.703125 14.675781 43.957031 19.328125 41.207031 C 19.296875 41.089844 19.265625 40.976562 19.230469 40.859375 C 13.054688 41.5625 6.882812 42.269531 0.679688 42.976562 C 0.429688 42.691406 0.214844 42.449219 0 42.207031 C 0 41.746094 0 41.289062 0 40.832031 "/>
<path style=" stroke:none;fill-rule:nonzero;fill:rgb(92.980957%,11.471558%,14.03656%);fill-opacity:1;" d="M 137.972656 50.65625 C 135.367188 50.65625 132.933594 50.65625 130.328125 50.65625 C 129.585938 42.324219 128.839844 33.988281 128.097656 25.652344 C 127.976562 25.589844 127.855469 25.53125 127.738281 25.472656 C 122.476562 33.828125 117.375 42.289062 112.125 50.6875 C 109.628906 50.6875 107.175781 50.6875 104.378906 50.6875 C 114.214844 34.269531 123.964844 18 133.714844 1.730469 C 133.859375 1.742188 134 1.757812 134.144531 1.773438 C 135.417969 18.03125 136.691406 34.292969 137.972656 50.65625 "/>
<path style=" stroke:none;fill-rule:nonzero;fill:rgb(15.098572%,16.938782%,44.32373%);fill-opacity:1;" d="M 86.460938 1.085938 C 89.355469 1.085938 92.019531 1.085938 94.957031 1.085938 C 88.429688 12.679688 82 24.101562 75.429688 35.773438 C 83.832031 35.773438 91.929688 35.773438 100.492188 35.773438 C 99.382812 37.667969 98.460938 39.25 97.550781 40.804688 C 86.304688 40.804688 75.167969 40.804688 63.699219 40.804688 C 71.363281 27.429688 78.90625 14.265625 86.460938 1.085938 "/>
<path style=" stroke:none;fill-rule:nonzero;fill:rgb(15.098572%,16.938782%,44.32373%);fill-opacity:1;" d="M 162.816406 1.0625 C 154.9375 14.304688 147.203125 27.308594 139.464844 40.3125 C 139.335938 40.304688 139.203125 40.296875 139.074219 40.289062 C 137.800781 27.28125 136.523438 14.273438 135.234375 1.125 C 137.851562 1.125 140.285156 1.125 142.988281 1.125 C 143.566406 6.535156 144.148438 12.011719 144.734375 17.488281 C 144.847656 17.550781 144.957031 17.609375 145.066406 17.667969 C 148.414062 12.144531 151.757812 6.621094 155.128906 1.0625 C 157.589844 1.0625 160.042969 1.0625 162.816406 1.0625 "/>
<path style=" stroke:none;fill-rule:nonzero;fill:rgb(15.098572%,16.938782%,44.32373%);fill-opacity:1;" d="M 158.273438 24.285156 C 155.300781 29.800781 152.324219 35.320312 149.355469 40.832031 C 146.800781 40.832031 144.351562 40.832031 141.5625 40.832031 C 149.226562 27.613281 156.773438 14.59375 164.324219 1.570312 C 164.441406 1.578125 164.558594 1.589844 164.675781 1.601562 C 165.78125 14.601562 166.890625 27.601562 168.011719 40.753906 C 165.484375 40.753906 163.058594 40.753906 160.347656 40.753906 C 159.773438 35.324219 159.191406 29.847656 158.613281 24.371094 C 158.5 24.34375 158.386719 24.3125 158.273438 24.285156 "/>
<path style=" stroke:none;fill-rule:nonzero;fill:rgb(15.098572%,16.938782%,44.32373%);fill-opacity:1;" d="M 89.113281 29.558594 C 94.214844 29.558594 98.949219 29.558594 103.953125 29.558594 C 103.109375 31.132812 102.347656 32.554688 101.546875 34.050781 C 93.890625 34.050781 86.265625 34.050781 78.34375 34.050781 C 84.695312 22.914062 90.929688 11.980469 97.15625 1.0625 C 99.964844 1.0625 102.640625 1.0625 105.652344 1.0625 C 100.132812 10.570312 94.710938 19.917969 89.113281 29.558594 "/>
<path style=" stroke:none;fill-rule:nonzero;fill:rgb(15.098572%,16.938782%,44.32373%);fill-opacity:1;" d="M 108.5 40.835938 C 105.671875 40.835938 103.046875 40.835938 100.03125 40.835938 C 107.691406 27.472656 115.230469 14.320312 122.808594 1.09375 C 125.519531 1.09375 128.25 1.09375 131.308594 1.09375 C 123.667969 14.402344 116.097656 27.597656 108.5 40.835938 "/>
<g clip-path="url(#clip1)" clip-rule="nonzero">
<path style=" stroke:none;fill-rule:nonzero;fill:rgb(15.098572%,16.938782%,44.32373%);fill-opacity:1;" d="M 166.121094 1.078125 C 168.671875 1.078125 170.996094 1.078125 173.535156 1.078125 C 174.867188 14.277344 176.191406 27.445312 177.53125 40.757812 C 175.082031 40.757812 172.710938 40.757812 170.136719 40.757812 C 168.800781 27.585938 167.464844 14.378906 166.121094 1.078125 "/>
</g>
<path style=" stroke:none;fill-rule:nonzero;fill:rgb(92.980957%,11.471558%,14.03656%);fill-opacity:1;" d="M 128.371094 50.65625 C 123.761719 50.65625 119.285156 50.65625 114.578125 50.65625 C 118.535156 44.171875 122.402344 37.832031 126.269531 31.488281 C 126.382812 31.519531 126.496094 31.546875 126.609375 31.574219 C 127.195312 37.902344 127.777344 44.226562 128.371094 50.65625 "/>
<path style=" stroke:none;fill-rule:nonzero;fill:rgb(92.980957%,11.471558%,14.03656%);fill-opacity:1;" d="M 6.746094 23.222656 C 7.21875 21.910156 7.617188 20.796875 8.089844 19.488281 C 11.398438 19.117188 14.726562 18.742188 18.316406 18.339844 C 17.058594 14.6875 15.84375 11.148438 14.585938 7.476562 C 15.671875 6.457031 16.742188 5.457031 18.023438 4.253906 C 20.234375 10.183594 22.371094 15.914062 24.566406 21.804688 C 18.542969 22.285156 12.757812 22.742188 6.746094 23.222656 "/>
<path style=" stroke:none;fill-rule:nonzero;fill:rgb(92.980957%,11.471558%,14.03656%);fill-opacity:1;" d="M 6.980469 37.742188 C 6.796875 36.949219 6.648438 36.300781 6.46875 35.519531 C 8.371094 35.3125 10.140625 35.121094 12.308594 34.886719 C 10.136719 32.878906 8.230469 31.117188 6.261719 29.300781 C 6.261719 28.898438 6.261719 28.457031 6.261719 27.691406 C 9.871094 30.519531 13.3125 33.21875 17.078125 36.171875 C 13.476562 36.730469 10.339844 37.21875 6.980469 37.742188 "/>
<path style=" stroke:none;fill-rule:nonzero;fill:rgb(92.980957%,11.471558%,14.03656%);fill-opacity:1;" d="M 28.15625 53.203125 C 26.285156 54.15625 24.566406 55.027344 22.726562 55.964844 C 22.3125 55.515625 21.902344 55.078125 21.394531 54.527344 C 23.914062 53.160156 26.292969 51.867188 28.824219 50.492188 C 30.289062 53.207031 31.710938 55.839844 33.320312 58.8125 C 32.265625 58.5625 31.578125 58.398438 30.820312 58.214844 C 29.96875 56.609375 29.117188 55.003906 28.15625 53.203125 "/>
<path style=" stroke:none;fill-rule:nonzero;fill:rgb(92.980957%,11.471558%,14.03656%);fill-opacity:1;" d="M 49.628906 57.492188 C 49.15625 57.710938 48.859375 57.851562 48.445312 58.046875 C 47.160156 56.605469 45.886719 55.175781 44.5 53.621094 C 43.175781 55.464844 41.957031 57.167969 40.683594 58.945312 C 40.296875 58.945312 39.878906 58.945312 39.25 58.945312 C 41.050781 56.40625 42.75 54.007812 44.570312 51.429688 C 46.277344 53.476562 47.871094 55.386719 49.628906 57.492188 "/>
<path style=" stroke:none;fill-rule:nonzero;fill:rgb(92.980957%,11.471558%,14.03656%);fill-opacity:1;" d="M 12.9375 10.113281 C 13.792969 12.300781 14.507812 14.128906 15.335938 16.253906 C 13.378906 16.347656 11.710938 16.425781 9.699219 16.523438 C 10.8125 14.320312 11.789062 12.386719 12.9375 10.113281 "/>
<path style=" stroke:none;fill-rule:nonzero;fill:rgb(92.980957%,11.471558%,14.03656%);fill-opacity:1;" d="M 2.660156 48.300781 C 2.054688 47.207031 1.519531 46.238281 0.859375 45.046875 C 3.9375 44.628906 6.792969 44.238281 9.652344 43.847656 C 9.691406 43.976562 9.734375 44.101562 9.773438 44.230469 C 7.441406 45.566406 5.109375 46.902344 2.660156 48.300781 "/>
<path style=" stroke:none;fill-rule:nonzero;fill:rgb(92.980957%,11.471558%,14.03656%);fill-opacity:1;" d="M 9.398438 53.902344 C 8.601562 53.242188 7.90625 52.667969 7.210938 52.09375 C 7.230469 51.96875 7.25 51.84375 7.265625 51.714844 C 9.667969 51.398438 12.066406 51.082031 14.46875 50.769531 C 14.507812 50.882812 14.542969 50.996094 14.582031 51.113281 C 12.894531 52.019531 11.207031 52.929688 9.398438 53.902344 "/>
</g>
</svg>
