<?xml version="1.0" encoding="UTF-8"?>
<svg xmlns="http://www.w3.org/2000/svg" xmlns:xlink="http://www.w3.org/1999/xlink" width="176pt" height="42.56pt" viewBox="0 0 176 42.56" version="1.1">
<defs>
<clipPath id="clip1">
  <path d="M 0 0 L 43 0 L 43 42.558594 L 0 42.558594 Z M 0 0 "/>
</clipPath>
</defs>
<g id="surface1">
<g clip-path="url(#clip1)" clip-rule="nonzero">
<path style=" stroke:none;fill-rule:evenodd;fill:rgb(19.017029%,40.827942%,73.318481%);fill-opacity:1;" d="M 42.5625 21.277344 C 42.5625 33.03125 33.035156 42.558594 21.28125 42.558594 C 9.527344 42.558594 0 33.03125 0 21.277344 C 0 9.523438 9.527344 -0.00390625 21.28125 -0.00390625 C 33.035156 -0.00390625 42.5625 9.523438 42.5625 21.277344 "/>
</g>
<path style=" stroke:none;fill-rule:evenodd;fill:rgb(31.770325%,68.269348%,89.958191%);fill-opacity:1;" d="M 39.328125 21.277344 C 39.328125 31.246094 31.246094 39.324219 21.28125 39.324219 C 11.316406 39.324219 3.238281 31.246094 3.238281 21.277344 C 3.238281 11.3125 11.316406 3.234375 21.28125 3.234375 C 31.246094 3.234375 39.328125 11.3125 39.328125 21.277344 "/>
<path style=" stroke:none;fill-rule:evenodd;fill:rgb(70.205688%,83.964539%,13.841248%);fill-opacity:1;" d="M 35.871094 21.277344 C 35.871094 29.335938 29.339844 35.871094 21.28125 35.871094 C 13.222656 35.871094 6.691406 29.335938 6.691406 21.277344 C 6.691406 13.21875 13.222656 6.6875 21.28125 6.6875 C 29.339844 6.6875 35.871094 13.21875 35.871094 21.277344 "/>
<path style=" stroke:none;fill-rule:evenodd;fill:rgb(40.452576%,77.027893%,18.989563%);fill-opacity:1;" d="M 9.625 21.277344 C 9.625 14.839844 14.84375 9.625 21.28125 9.625 C 27.71875 9.625 32.9375 14.839844 32.9375 21.277344 C 32.9375 27.714844 27.71875 32.933594 21.28125 32.933594 C 14.84375 32.933594 9.625 27.714844 9.625 21.277344 "/>
<path style=" stroke:none;fill-rule:evenodd;fill:rgb(40.452576%,77.027893%,18.989563%);fill-opacity:1;" d="M 54.511719 15.5625 L 54.511719 17.921875 L 56.921875 17.921875 L 56.921875 20.742188 L 54.511719 20.742188 L 54.511719 23.785156 C 54.511719 24.46875 54.757812 24.714844 55.523438 24.714844 L 56.921875 24.714844 L 56.921875 27.566406 L 55.773438 27.566406 C 52.839844 27.566406 51.496094 26.332031 51.496094 23.566406 L 51.496094 15.5625 L 54.511719 15.5625 "/>
<path style=" stroke:none;fill-rule:evenodd;fill:rgb(100%,100%,100%);fill-opacity:1;" d="M 21.28125 12.996094 L 21.28125 16.363281 L 24.722656 16.363281 L 24.722656 20.390625 L 21.28125 20.390625 L 21.28125 24.734375 C 21.28125 25.714844 21.632812 26.066406 22.730469 26.066406 L 24.722656 26.066406 L 24.722656 30.132812 L 23.082031 30.132812 C 18.894531 30.132812 16.976562 28.375 16.976562 24.421875 L 16.976562 12.996094 L 21.28125 12.996094 "/>
<path style=" stroke:none;fill-rule:evenodd;fill:rgb(40.452576%,77.027893%,18.989563%);fill-opacity:1;" d="M 58.8125 17.921875 L 61.582031 17.921875 L 61.582031 19.371094 C 62.210938 18.332031 63.167969 17.921875 64.621094 17.921875 C 64.730469 17.921875 64.84375 17.921875 64.976562 17.921875 L 64.976562 20.851562 C 64.953125 20.851562 64.894531 20.851562 64.84375 20.851562 C 62.648438 20.851562 61.746094 21.730469 61.746094 23.949219 L 61.746094 27.566406 L 58.8125 27.566406 L 58.8125 17.921875 "/>
<path style=" stroke:none;fill-rule:evenodd;fill:rgb(40.452576%,77.027893%,18.989563%);fill-opacity:1;" d="M 82.980469 22.195312 C 82.980469 21.289062 82.40625 20.660156 81.585938 20.660156 C 80.761719 20.660156 80.1875 21.289062 80.160156 22.195312 L 80.160156 27.566406 L 77.144531 27.566406 L 77.144531 22.6875 C 77.144531 19.539062 79.007812 17.730469 81.585938 17.730469 C 83.035156 17.730469 84.351562 18.414062 85.203125 19.566406 C 85.832031 20.46875 85.996094 21.457031 85.996094 22.6875 L 85.996094 27.566406 L 82.980469 27.566406 L 82.980469 22.195312 "/>
<path style=" stroke:none;fill-rule:evenodd;fill:rgb(40.452576%,77.027893%,18.989563%);fill-opacity:1;" d="M 91.394531 24.855469 C 91.75 24.855469 91.941406 24.714844 91.941406 24.46875 C 91.941406 24.304688 91.832031 24.167969 91.667969 24.085938 L 90.269531 23.484375 C 88.679688 22.824219 87.914062 21.894531 87.914062 20.578125 C 87.914062 18.960938 89.121094 17.921875 91.3125 17.921875 L 94.601562 17.921875 L 94.601562 20.523438 L 91.367188 20.523438 C 91.09375 20.523438 90.875 20.660156 90.875 20.878906 C 90.875 21.042969 91.011719 21.210938 91.148438 21.261719 L 92.492188 21.8125 C 94.246094 22.550781 95.121094 23.429688 95.121094 24.855469 C 95.121094 25.757812 94.683594 26.523438 93.914062 27.046875 C 93.121094 27.566406 92.160156 27.566406 90.957031 27.566406 L 87.75 27.566406 L 87.75 24.855469 L 91.394531 24.855469 "/>
<path style=" stroke:none;fill-rule:evenodd;fill:rgb(40.452576%,77.027893%,18.989563%);fill-opacity:1;" d="M 111.980469 24.496094 C 112.09375 23.894531 112.257812 23.265625 112.449219 22.550781 L 113.707031 17.921875 L 116.832031 17.921875 L 114.285156 25.867188 C 113.871094 27.15625 113.105469 27.757812 111.980469 27.757812 C 110.832031 27.757812 110.089844 27.15625 109.679688 25.867188 L 107.132812 17.921875 L 110.226562 17.921875 L 111.515625 22.550781 C 111.707031 23.238281 111.84375 23.894531 111.980469 24.496094 "/>
<path style=" stroke:none;fill-rule:evenodd;fill:rgb(40.452576%,77.027893%,18.989563%);fill-opacity:1;" d="M 118.476562 17.921875 L 121.574219 17.921875 L 121.574219 27.566406 L 118.476562 27.566406 Z M 120.011719 13.5625 C 120.996094 13.5625 121.792969 14.332031 121.792969 15.316406 C 121.792969 16.277344 120.996094 17.070312 120.011719 17.070312 C 119.050781 17.070312 118.257812 16.277344 118.257812 15.316406 C 118.257812 14.332031 119.050781 13.5625 120.011719 13.5625 "/>
<path style=" stroke:none;fill-rule:evenodd;fill:rgb(19.017029%,40.827942%,73.318481%);fill-opacity:1;" d="M 146.761719 20.851562 C 145.28125 20.851562 144.40625 21.648438 144.40625 22.742188 C 144.40625 23.867188 145.28125 24.632812 146.761719 24.632812 L 148.078125 24.632812 L 148.078125 27.566406 L 146.953125 27.566406 C 143.417969 27.566406 141.308594 25.539062 141.308594 22.742188 C 141.308594 19.949219 143.417969 17.921875 146.953125 17.921875 L 148.078125 17.921875 L 148.078125 20.851562 L 146.761719 20.851562 "/>
<path style=" stroke:none;fill-rule:evenodd;fill:rgb(19.017029%,40.827942%,73.318481%);fill-opacity:1;" d="M 155.191406 24.6875 C 156.152344 24.6875 156.972656 23.839844 156.972656 22.714844 C 156.972656 21.59375 156.152344 20.742188 155.191406 20.742188 C 154.234375 20.742188 153.4375 21.59375 153.4375 22.714844 C 153.4375 23.839844 154.234375 24.6875 155.191406 24.6875 Z M 151.765625 19.179688 C 152.671875 18.25 153.878906 17.730469 155.191406 17.730469 C 156.507812 17.730469 157.714844 18.222656 158.644531 19.179688 C 159.578125 20.140625 160.070312 21.402344 160.070312 22.742188 C 160.070312 24.085938 159.578125 25.320312 158.644531 26.277344 C 157.714844 27.238281 156.507812 27.757812 155.191406 27.757812 C 153.878906 27.757812 152.671875 27.210938 151.765625 26.277344 C 150.835938 25.320312 150.3125 24.113281 150.3125 22.742188 C 150.3125 21.375 150.835938 20.167969 151.765625 19.179688 "/>
<path style=" stroke:none;fill-rule:evenodd;fill:rgb(19.017029%,40.827942%,73.318481%);fill-opacity:1;" d="M 161.996094 22.496094 C 161.996094 19.511719 163.777344 17.730469 166.136719 17.730469 C 167.230469 17.730469 168.21875 18.167969 168.984375 18.988281 C 169.753906 18.167969 170.765625 17.730469 171.753906 17.730469 C 174.21875 17.730469 176 19.484375 176 22.496094 L 176 27.566406 L 172.984375 27.566406 L 172.984375 22.003906 C 172.984375 21.210938 172.464844 20.660156 171.753906 20.660156 C 171.011719 20.660156 170.464844 21.210938 170.464844 22.003906 L 170.464844 27.566406 L 167.476562 27.566406 L 167.476562 22.003906 C 167.476562 21.210938 166.957031 20.660156 166.21875 20.660156 C 165.503906 20.660156 164.984375 21.210938 164.984375 22.003906 L 164.984375 27.566406 L 161.996094 27.566406 L 161.996094 22.496094 "/>
<path style=" stroke:none;fill-rule:evenodd;fill:rgb(19.017029%,40.827942%,73.318481%);fill-opacity:1;" d="M 138.550781 25.019531 C 139.371094 25.019531 139.976562 25.648438 139.976562 26.445312 C 139.976562 27.210938 139.347656 27.839844 138.550781 27.839844 C 137.785156 27.839844 137.128906 27.210938 137.128906 26.445312 C 137.128906 25.648438 137.757812 25.019531 138.550781 25.019531 "/>
<path style=" stroke:none;fill-rule:evenodd;fill:rgb(40.452576%,77.027893%,18.989563%);fill-opacity:1;" d="M 75.171875 20.523438 C 74.378906 18.796875 72.707031 17.730469 70.761719 17.730469 C 67.964844 17.730469 65.910156 19.785156 65.910156 22.714844 C 65.910156 25.59375 67.9375 27.703125 70.761719 27.703125 C 70.953125 27.703125 71.199219 27.703125 71.445312 27.648438 L 71.445312 24.550781 C 71.226562 24.605469 71.035156 24.632812 70.871094 24.632812 C 69.691406 24.632812 69.007812 23.894531 69.007812 22.714844 C 69.007812 21.539062 69.71875 20.796875 70.707031 20.796875 C 71.9375 20.796875 72.570312 21.539062 72.570312 22.964844 L 72.570312 27.566406 L 75.582031 27.566406 L 75.582031 23.539062 C 75.582031 22.414062 75.582031 21.457031 75.171875 20.523438 "/>
<path style=" stroke:none;fill-rule:evenodd;fill:rgb(40.452576%,77.027893%,18.989563%);fill-opacity:1;" d="M 106.117188 20.523438 C 105.324219 18.796875 103.652344 17.730469 101.707031 17.730469 C 98.910156 17.730469 96.855469 19.785156 96.855469 22.714844 C 96.855469 25.59375 98.882812 27.703125 101.707031 27.703125 C 101.898438 27.703125 102.117188 27.703125 102.390625 27.648438 L 102.390625 24.550781 C 102.171875 24.605469 101.980469 24.632812 101.816406 24.632812 C 100.636719 24.632812 99.953125 23.894531 99.953125 22.714844 C 99.953125 21.539062 100.664062 20.796875 101.652344 20.796875 C 102.886719 20.796875 103.515625 21.539062 103.515625 22.964844 L 103.515625 27.566406 L 106.527344 27.566406 L 106.527344 23.539062 C 106.527344 22.414062 106.527344 21.457031 106.117188 20.523438 "/>
<path style=" stroke:none;fill-rule:evenodd;fill:rgb(40.452576%,77.027893%,18.989563%);fill-opacity:1;" d="M 133.902344 20.523438 C 133.136719 18.796875 131.464844 17.730469 129.519531 17.730469 C 126.722656 17.730469 124.640625 19.785156 124.640625 22.714844 C 124.640625 25.59375 126.667969 27.703125 129.519531 27.703125 C 129.710938 27.703125 129.929688 27.703125 130.203125 27.648438 L 130.203125 24.550781 C 129.984375 24.605469 129.792969 24.632812 129.628906 24.632812 C 128.449219 24.632812 127.765625 23.894531 127.765625 22.714844 C 127.765625 21.539062 128.476562 20.796875 129.464844 20.796875 C 130.695312 20.796875 131.328125 21.539062 131.328125 22.964844 L 131.328125 27.566406 L 134.34375 27.566406 L 134.34375 23.539062 C 134.34375 22.414062 134.34375 21.457031 133.902344 20.523438 "/>
</g>
</svg>
