<svg xmlns="http://www.w3.org/2000/svg" width="176pt" height="37.587" viewBox="0 0 176 28.19"><defs><clipPath id="a"><path d="M6 0h29v28.191H6Zm0 0"/></clipPath><clipPath id="b"><path d="M0 0h21v28.191H0Zm0 0"/></clipPath><clipPath id="c"><path d="M6 0h15v28.191H6Zm0 0"/></clipPath><clipPath id="d"><path d="M26 0h25v28.191H26Zm0 0"/></clipPath><clipPath id="e"><path d="M26 0h9v28.191h-9Zm0 0"/></clipPath></defs><path d="M60.133 20.113h2.308V9.95h3.891V8.074h-10.02V9.95h3.82zM69 14.922l1.082-3.102c.219-.644.36-1.367.578-2.09.215.649.434 1.446.719 2.165l1.082 3.027Zm3.895 1.73 1.226 3.461h2.524L72.246 8.074H69.29l-4.254 12.04h2.38l1.155-3.462zM80.176 9.805c.219-.075.722-.075 1.441-.075 1.66 0 2.742.579 2.742 2.02 0 1.371-1.152 2.234-2.886 2.234-.575 0-1.008-.07-1.297-.144ZM77.87 20.113h2.305v-4.468c.36.07.793.07 1.226.07 1.805 0 3.172-.43 4.11-1.297.722-.648 1.082-1.656 1.082-2.738 0-1.153-.504-2.094-1.227-2.668-.793-.649-2.015-1.082-3.75-1.082-1.656 0-2.883.144-3.746.289zM92.074 9.371c.36-.07.938-.144 1.73-.144 1.731 0 3.102.648 3.102 2.378 0 1.66-1.226 2.598-3.246 2.598-.648 0-1.152-.074-1.586-.219Zm-1.586 10.742h1.586v-4.758c.434.075.938.075 1.516.075 1.656 0 3.027-.434 3.965-1.301.648-.574 1.007-1.512 1.007-2.594s-.43-1.95-1.156-2.523c-.719-.649-1.941-1.082-3.601-1.082-1.442 0-2.524.144-3.317.289zM105.848 19.031c-2.817 0-4.473-2.234-4.473-4.828 0-2.742 1.516-5.047 4.473-5.047 2.953 0 4.468 2.45 4.468 4.903 0 2.812-1.73 4.972-4.468 4.972m-.075 1.301c3.461 0 6.274-2.383 6.274-6.348 0-3.53-2.453-6.125-6.129-6.125-3.606 0-6.273 2.594-6.273 6.344 0 3.531 2.523 6.129 6.128 6.129M114.93 9.371c.289-.07.867-.144 1.8-.144 1.66 0 3.032.578 3.032 2.234 0 1.371-1.157 2.238-2.957 2.238h-1.875Zm-1.66 10.742h1.66v-5.191h1.8c1.446.074 2.165.723 2.528 2.379q.54 2.273.863 2.812h1.66c-.219-.504-.578-1.656-1.011-3.386-.29-1.157-.864-2.02-1.801-2.38 1.297-.433 2.379-1.515 2.379-3.1 0-.938-.36-1.731-.938-2.235-.793-.723-1.945-1.082-3.75-1.082a22 22 0 0 0-3.39.289zM126.32 20.113h1.66V9.445h4.18v-1.37h-10.02v1.37h4.18zM133.102 8.074v6.778c0 4.039 2.09 5.48 4.757 5.48 2.883 0 5.047-1.59 5.047-5.48V8.074h-1.586v6.848c0 2.812-1.37 4.11-3.39 4.11-1.875 0-3.172-1.298-3.172-4.11V8.074zM155.523 13.77h-4.328v1.296h2.743v3.461c-.434.215-1.297.434-2.454.434-3.316 0-5.261-2.02-5.261-4.902 0-2.743 2.02-4.758 5.406-4.758 1.441 0 2.309.215 3.101.574l.434-1.297c-.578-.289-1.875-.648-3.46-.648-4.688 0-7.212 2.957-7.212 6.199 0 1.805.649 3.39 1.73 4.398 1.298 1.227 3.028 1.73 5.118 1.73 1.875 0 3.46-.503 4.183-.718zM159.992 14.996l1.446-3.605c.214-.723.43-1.371.574-2.02h.074c.144.649.36 1.297.648 2.02l1.371 3.605Zm4.473 1.297 1.441 3.82h1.801l-4.613-12.039h-1.946l-4.617 12.04h1.73l1.372-3.821zM168.645 20.113H176v-1.37h-5.695V8.073h-1.66z" style="stroke:none;fill-rule:evenodd;fill:#211c1d;fill-opacity:1"/><path d="M12.543 15.066h12.043v8.079H12.543z" style="stroke:none;fill-rule:evenodd;fill:#a0d73a;fill-opacity:1"/><g clip-path="url(#a)"><path d="M6.055 28.191 14.059-.004h12.113l8.004 28.195h-8.004L20.117 8.074 14.06 28.191z" style="stroke:none;fill-rule:evenodd;fill:#a0d73a;fill-opacity:1"/></g><g clip-path="url(#b)"><path d="M6.055 28.191V8.074H0V-.004h20.117v8.078H14.06v20.117z" style="stroke:none;fill-rule:evenodd;fill:#a0d73a;fill-opacity:1"/></g><g clip-path="url(#c)"><path d="M6.055 28.191h8.004V8.074h6.058V-.004H14.06z" style="stroke:none;fill-rule:evenodd;fill:#79c64e;fill-opacity:1"/></g><g clip-path="url(#d)"><path d="M26.172-.004H40.23c5.555 0 10.024 4.543 10.024 10.098 0 5.55-4.54 10.02-10.024 10.02h-6.054v8.077h-8.004z" style="stroke:none;fill-rule:evenodd;fill:#e31741;fill-opacity:1"/></g><path d="M34.176 8.074h6.054c1.083 0 1.95.864 1.95 2.02 0 1.082-.867 2.02-1.95 2.02h-6.054z" style="stroke:none;fill-rule:evenodd;fill:#fff;fill-opacity:1"/><g clip-path="url(#e)"><path d="M26.172 28.191h8.004L26.172-.004Zm0 0" style="stroke:none;fill-rule:evenodd;fill:#bc304b;fill-opacity:1"/></g></svg>