<?xml version="1.0" encoding="UTF-8"?>
<svg xmlns="http://www.w3.org/2000/svg" xmlns:xlink="http://www.w3.org/1999/xlink" width="66.91pt" height="59pt" viewBox="0 0 66.91 59" version="1.1">
<defs>
<clipPath id="clip1">
  <path d="M 56 19 L 66.910156 19 L 66.910156 37 L 56 37 Z M 56 19 "/>
</clipPath>
</defs>
<g id="surface1">
<path style=" stroke:none;fill-rule:nonzero;fill:rgb(100%,91.40625%,0%);fill-opacity:1;" d="M 29.5 59 C 45.792969 59 59 45.792969 59 29.5 C 59 13.207031 45.792969 0 29.5 0 C 13.207031 0 0 13.207031 0 29.5 C 0 45.792969 13.207031 59 29.5 59 "/>
<g clip-path="url(#clip1)" clip-rule="nonzero">
<path style=" stroke:none;fill-rule:nonzero;fill:rgb(12.156677%,12.547302%,11.767578%);fill-opacity:1;" d="M 57.519531 27.992188 L 60.347656 27.21875 L 62.542969 36.359375 L 66.890625 35.351562 L 66.742188 32.800781 L 65.539062 33.089844 L 63.921875 26.359375 L 66.914062 25.625 L 66.105469 22.261719 L 63.117188 22.996094 L 62.238281 19.335938 L 58.984375 21.535156 L 59.542969 23.855469 L 56.722656 24.589844 L 57.484375 27.960938 "/>
<path style=" stroke:none;fill-rule:nonzero;fill:rgb(12.156677%,12.547302%,11.767578%);fill-opacity:1;" d="M 57.519531 27.992188 L 60.347656 27.21875 L 62.542969 36.359375 L 66.890625 35.351562 L 66.742188 32.800781 L 65.539062 33.089844 L 63.921875 26.359375 L 66.914062 25.625 L 66.105469 22.261719 L 63.117188 22.996094 L 62.238281 19.335938 L 58.984375 21.535156 L 59.542969 23.855469 L 56.722656 24.589844 L 57.484375 27.960938 "/>
</g>
<path style=" stroke:none;fill-rule:nonzero;fill:rgb(12.156677%,12.547302%,11.767578%);fill-opacity:1;" d="M 15.527344 26.882812 L 19.140625 26.882812 C 18.828125 23.648438 16.039062 23.007812 14.421875 23.007812 C 11.875 23.007812 9.660156 24.625 9.660156 27.171875 C 9.660156 28.832031 10.988281 29.871094 12.585938 30.382812 C 14.929688 31.289062 15.839844 31.402344 15.839844 32.242188 C 15.839844 32.839844 15.175781 33.195312 14.554688 33.195312 C 14.398438 33.195312 13.316406 33.195312 13.160156 32.066406 L 9.507812 32.066406 C 9.835938 35.296875 12.652344 36.140625 14.511719 36.140625 C 17.234375 36.140625 19.515625 34.546875 19.515625 31.84375 C 19.515625 29.1875 17.300781 28.566406 15.21875 27.992188 C 14.246094 27.703125 13.335938 27.328125 13.335938 26.773438 C 13.335938 26.441406 13.601562 25.953125 14.378906 25.953125 C 15.464844 25.953125 15.507812 26.617188 15.527344 26.882812 Z M 28.640625 28.167969 L 32.359375 28.167969 C 31.738281 25.15625 29.105469 23.007812 25.847656 23.007812 C 22.171875 23.007812 19.359375 25.929688 19.359375 29.539062 C 19.359375 33.195312 22.21875 36.117188 25.9375 36.117188 C 29.261719 36.117188 31.71875 33.835938 32.382812 31.046875 L 28.640625 31.046875 C 28.242188 31.800781 27.511719 32.683594 25.980469 32.683594 C 24.234375 32.683594 23.058594 31.355469 23.058594 29.5625 C 23.058594 28.675781 23.347656 27.878906 23.855469 27.304688 C 24.386719 26.726562 25.117188 26.394531 25.980469 26.441406 C 27.511719 26.441406 28.242188 27.328125 28.640625 28.167969 Z M 41.902344 29.5625 C 41.902344 31.355469 40.550781 32.664062 38.957031 32.664062 C 37.363281 32.664062 36.011719 31.355469 36.011719 29.585938 L 36.011719 29.5625 C 36.011719 27.769531 37.363281 26.460938 38.957031 26.460938 C 40.550781 26.460938 41.902344 27.769531 41.902344 29.5625 Z M 45.578125 29.5625 C 45.578125 26.550781 43.429688 23.03125 38.957031 23.03125 C 34.484375 23.03125 32.335938 26.550781 32.335938 29.539062 L 32.335938 29.5625 C 32.335938 32.574219 34.484375 36.09375 38.957031 36.09375 C 43.429688 36.09375 45.578125 32.574219 45.578125 29.5625 Z M 55.207031 29.5625 C 55.207031 31.355469 53.855469 32.664062 52.261719 32.664062 C 50.667969 32.664062 49.316406 31.355469 49.316406 29.585938 L 49.316406 29.5625 C 49.316406 27.769531 50.667969 26.460938 52.261719 26.460938 C 53.855469 26.460938 55.207031 27.769531 55.207031 29.5625 Z M 57.03125 24.929688 C 55.9375 23.800781 54.351562 23.03125 52.261719 23.03125 C 47.789062 23.03125 45.640625 26.550781 45.640625 29.539062 L 45.640625 29.5625 C 45.640625 32.574219 47.789062 36.09375 52.261719 36.09375 C 56.734375 36.09375 58.882812 32.574219 58.882812 29.5625 C 58.882812 28.296875 58.5 26.9375 57.726562 25.792969 L 57.03125 24.929688 "/>
<path style=" stroke:none;fill-rule:nonzero;fill:rgb(12.156677%,12.547302%,11.767578%);fill-opacity:1;" d="M 15.527344 26.882812 L 19.140625 26.882812 C 18.828125 23.648438 16.039062 23.007812 14.421875 23.007812 C 11.875 23.007812 9.660156 24.625 9.660156 27.171875 C 9.660156 28.832031 10.988281 29.871094 12.585938 30.382812 C 14.929688 31.289062 15.839844 31.402344 15.839844 32.242188 C 15.839844 32.839844 15.175781 33.195312 14.554688 33.195312 C 14.398438 33.195312 13.316406 33.195312 13.160156 32.066406 L 9.507812 32.066406 C 9.835938 35.296875 12.652344 36.140625 14.511719 36.140625 C 17.234375 36.140625 19.515625 34.546875 19.515625 31.84375 C 19.515625 29.1875 17.300781 28.566406 15.21875 27.992188 C 14.246094 27.703125 13.335938 27.328125 13.335938 26.773438 C 13.335938 26.441406 13.601562 25.953125 14.378906 25.953125 C 15.464844 25.953125 15.507812 26.617188 15.527344 26.882812 Z M 28.640625 28.167969 L 32.359375 28.167969 C 31.738281 25.15625 29.105469 23.007812 25.847656 23.007812 C 22.171875 23.007812 19.359375 25.929688 19.359375 29.539062 C 19.359375 33.195312 22.21875 36.117188 25.9375 36.117188 C 29.261719 36.117188 31.71875 33.835938 32.382812 31.046875 L 28.640625 31.046875 C 28.242188 31.800781 27.511719 32.683594 25.980469 32.683594 C 24.234375 32.683594 23.058594 31.355469 23.058594 29.5625 C 23.058594 28.675781 23.347656 27.878906 23.855469 27.304688 C 24.386719 26.726562 25.117188 26.394531 25.980469 26.441406 C 27.511719 26.441406 28.242188 27.328125 28.640625 28.167969 Z M 41.902344 29.5625 C 41.902344 31.355469 40.550781 32.664062 38.957031 32.664062 C 37.363281 32.664062 36.011719 31.355469 36.011719 29.585938 L 36.011719 29.5625 C 36.011719 27.769531 37.363281 26.460938 38.957031 26.460938 C 40.550781 26.460938 41.902344 27.769531 41.902344 29.5625 Z M 45.578125 29.5625 C 45.578125 26.550781 43.429688 23.03125 38.957031 23.03125 C 34.484375 23.03125 32.335938 26.550781 32.335938 29.539062 L 32.335938 29.5625 C 32.335938 32.574219 34.484375 36.09375 38.957031 36.09375 C 43.429688 36.09375 45.578125 32.574219 45.578125 29.5625 Z M 55.207031 29.5625 C 55.207031 31.355469 53.855469 32.664062 52.261719 32.664062 C 50.667969 32.664062 49.316406 31.355469 49.316406 29.585938 L 49.316406 29.5625 C 49.316406 27.769531 50.667969 26.460938 52.261719 26.460938 C 53.855469 26.460938 55.207031 27.769531 55.207031 29.5625 Z M 57.03125 24.929688 C 55.9375 23.800781 54.351562 23.03125 52.261719 23.03125 C 47.789062 23.03125 45.640625 26.550781 45.640625 29.539062 L 45.640625 29.5625 C 45.640625 32.574219 47.789062 36.09375 52.261719 36.09375 C 56.734375 36.09375 58.882812 32.574219 58.882812 29.5625 C 58.882812 28.296875 58.5 26.9375 57.726562 25.792969 L 57.03125 24.929688 "/>
</g>
</svg>
