<svg xmlns="http://www.w3.org/2000/svg" width="89.213" height="59pt" viewBox="0 0 66.91 59"><defs><clipPath id="a"><path d="M56 19h10.91v18H56Zm0 0"/></clipPath></defs><path d="M29.5 59C45.793 59 59 45.793 59 29.5S45.793 0 29.5 0 0 13.207 0 29.5 13.207 59 29.5 59" style="stroke:none;fill-rule:nonzero;fill:#ffe900;fill-opacity:1"/><g clip-path="url(#a)"><path d="m57.52 27.992 2.828-.773 2.195 9.14 4.348-1.007-.149-2.551-1.203.289-1.617-6.73 2.992-.735-.809-3.363-2.988.734-.879-3.66-3.254 2.2.559 2.32-2.82.734.761 3.37" style="stroke:none;fill-rule:nonzero;fill:#1f201e;fill-opacity:1"/><path d="m57.52 27.992 2.828-.773 2.195 9.14 4.348-1.007-.149-2.551-1.203.289-1.617-6.73 2.992-.735-.809-3.363-2.988.734-.879-3.66-3.254 2.2.559 2.32-2.82.734.761 3.37" style="stroke:none;fill-rule:nonzero;fill:#1f201e;fill-opacity:1"/></g><path d="M15.527 26.883h3.614c-.313-3.235-3.102-3.875-4.72-3.875-2.546 0-4.76 1.617-4.76 4.164 0 1.66 1.327 2.7 2.925 3.21 2.344.907 3.254 1.02 3.254 1.86 0 .598-.664.953-1.285.953-.157 0-1.239 0-1.395-1.129H9.508c.328 3.23 3.144 4.075 5.004 4.075 2.722 0 5.004-1.594 5.004-4.297 0-2.657-2.215-3.278-4.297-3.852-.973-.289-1.883-.664-1.883-1.219 0-.332.266-.82 1.043-.82 1.086 0 1.129.664 1.148.93m13.114 1.285h3.718c-.62-3.012-3.254-5.16-6.511-5.16-3.676 0-6.489 2.922-6.489 6.531 0 3.656 2.86 6.578 6.578 6.578 3.325 0 5.782-2.281 6.446-5.07H28.64c-.399.754-1.13 1.637-2.66 1.637-1.747 0-2.922-1.329-2.922-3.121 0-.887.289-1.684.796-2.258a2.62 2.62 0 0 1 2.125-.864c1.532 0 2.262.887 2.66 1.727m13.261 1.395c0 1.792-1.351 3.101-2.945 3.101s-2.945-1.309-2.945-3.078v-.023c0-1.793 1.351-3.102 2.945-3.102s2.945 1.309 2.945 3.102m3.676 0c0-3.012-2.148-6.532-6.621-6.532s-6.621 3.52-6.621 6.508v.023c0 3.012 2.148 6.532 6.621 6.532s6.621-3.52 6.621-6.532m9.629 0c0 1.792-1.352 3.101-2.945 3.101-1.594 0-2.946-1.309-2.946-3.078v-.023c0-1.793 1.352-3.102 2.946-3.102 1.593 0 2.945 1.309 2.945 3.102m1.824-4.633c-1.093-1.13-2.68-1.899-4.77-1.899-4.472 0-6.62 3.52-6.62 6.508v.023c0 3.012 2.148 6.532 6.62 6.532 4.473 0 6.622-3.52 6.622-6.532a6.83 6.83 0 0 0-1.156-3.769z" style="stroke:none;fill-rule:nonzero;fill:#1f201e;fill-opacity:1"/><path d="M15.527 26.883h3.614c-.313-3.235-3.102-3.875-4.72-3.875-2.546 0-4.76 1.617-4.76 4.164 0 1.66 1.327 2.7 2.925 3.21 2.344.907 3.254 1.02 3.254 1.86 0 .598-.664.953-1.285.953-.157 0-1.239 0-1.395-1.129H9.508c.328 3.23 3.144 4.075 5.004 4.075 2.722 0 5.004-1.594 5.004-4.297 0-2.657-2.215-3.278-4.297-3.852-.973-.289-1.883-.664-1.883-1.219 0-.332.266-.82 1.043-.82 1.086 0 1.129.664 1.148.93m13.114 1.285h3.718c-.62-3.012-3.254-5.16-6.511-5.16-3.676 0-6.489 2.922-6.489 6.531 0 3.656 2.86 6.578 6.578 6.578 3.325 0 5.782-2.281 6.446-5.07H28.64c-.399.754-1.13 1.637-2.66 1.637-1.747 0-2.922-1.329-2.922-3.121 0-.887.289-1.684.796-2.258a2.62 2.62 0 0 1 2.125-.864c1.532 0 2.262.887 2.66 1.727m13.261 1.395c0 1.792-1.351 3.101-2.945 3.101s-2.945-1.309-2.945-3.078v-.023c0-1.793 1.351-3.102 2.945-3.102s2.945 1.309 2.945 3.102m3.676 0c0-3.012-2.148-6.532-6.621-6.532s-6.621 3.52-6.621 6.508v.023c0 3.012 2.148 6.532 6.621 6.532s6.621-3.52 6.621-6.532m9.629 0c0 1.792-1.352 3.101-2.945 3.101-1.594 0-2.946-1.309-2.946-3.078v-.023c0-1.793 1.352-3.102 2.946-3.102 1.593 0 2.945 1.309 2.945 3.102m1.824-4.633c-1.093-1.13-2.68-1.899-4.77-1.899-4.472 0-6.62 3.52-6.62 6.508v.023c0 3.012 2.148 6.532 6.62 6.532 4.473 0 6.622-3.52 6.622-6.532a6.83 6.83 0 0 0-1.156-3.769z" style="stroke:none;fill-rule:nonzero;fill:#1f201e;fill-opacity:1"/></svg>