<?xml version="1.0" encoding="UTF-8"?>
<svg xmlns="http://www.w3.org/2000/svg" xmlns:xlink="http://www.w3.org/1999/xlink" width="176pt" height="46.11pt" viewBox="0 0 176 46.11" version="1.1">
<defs>
<clipPath id="clip1">
  <path d="M 0 6 L 43 6 L 43 46.109375 L 0 46.109375 Z M 0 6 "/>
</clipPath>
</defs>
<g id="surface1">
<path style=" stroke:none;fill-rule:nonzero;fill:rgb(20.732117%,30.625916%,65.597534%);fill-opacity:1;" d="M 89.292969 15.484375 L 87.585938 15.484375 C 87.585938 15.484375 84.703125 20.363281 84.621094 20.648438 C 84.347656 20.660156 82.472656 20.746094 82.472656 20.746094 L 82.472656 23.339844 C 82.472656 23.339844 84.035156 23.339844 84.378906 23.339844 C 84.378906 23.761719 84.378906 31.089844 84.378906 31.089844 C 84.378906 32.832031 84.832031 34.195312 85.722656 35.140625 C 86.617188 36.082031 87.847656 36.570312 89.375 36.570312 C 90.046875 36.570312 90.742188 36.519531 91.445312 36.429688 C 92.152344 36.335938 92.761719 36.183594 93.25 35.988281 L 93.390625 35.933594 L 93.390625 33.082031 L 93.097656 33.175781 C 92.816406 33.273438 92.5 33.351562 92.160156 33.40625 C 91.828125 33.464844 91.464844 33.492188 91.097656 33.492188 C 90.378906 33.492188 89.894531 33.335938 89.664062 33.023438 C 89.417969 32.6875 89.292969 32.140625 89.292969 31.390625 C 89.292969 31.390625 89.292969 23.808594 89.292969 23.386719 C 89.691406 23.386719 93.53125 23.386719 93.53125 23.386719 L 93.53125 20.59375 C 93.53125 20.59375 89.691406 20.59375 89.292969 20.59375 C 89.292969 20.1875 89.292969 15.484375 89.292969 15.484375 "/>
<path style=" stroke:none;fill-rule:nonzero;fill:rgb(20.732117%,30.625916%,65.597534%);fill-opacity:1;" d="M 171.761719 15.484375 L 170.058594 15.484375 C 170.058594 15.484375 167.175781 20.363281 167.089844 20.648438 C 166.816406 20.660156 164.941406 20.746094 164.941406 20.746094 L 164.941406 23.339844 C 164.941406 23.339844 166.503906 23.339844 166.851562 23.339844 C 166.851562 23.761719 166.851562 31.089844 166.851562 31.089844 C 166.851562 32.832031 167.300781 34.195312 168.191406 35.140625 C 169.089844 36.082031 170.316406 36.570312 171.839844 36.570312 C 172.511719 36.570312 173.214844 36.519531 173.910156 36.429688 C 174.621094 36.335938 175.230469 36.183594 175.71875 35.988281 L 175.855469 35.933594 L 175.855469 33.082031 L 175.566406 33.175781 C 175.277344 33.273438 174.96875 33.351562 174.628906 33.40625 C 174.292969 33.464844 173.9375 33.492188 173.566406 33.492188 C 172.847656 33.492188 172.367188 33.335938 172.136719 33.023438 C 171.890625 32.6875 171.761719 32.140625 171.761719 31.390625 C 171.761719 31.390625 171.761719 23.808594 171.761719 23.386719 C 172.160156 23.386719 176 23.386719 176 23.386719 L 176 20.59375 C 176 20.59375 172.160156 20.59375 171.761719 20.59375 C 171.761719 20.1875 171.761719 15.484375 171.761719 15.484375 "/>
<path style=" stroke:none;fill-rule:nonzero;fill:rgb(20.732117%,30.625916%,65.597534%);fill-opacity:1;" d="M 120.644531 20.574219 L 125.578125 20.574219 L 125.578125 36.359375 L 120.644531 36.359375 L 120.644531 20.574219 "/>
<path style=" stroke:none;fill-rule:nonzero;fill:rgb(20.732117%,30.625916%,65.597534%);fill-opacity:1;" d="M 126.285156 24.566406 C 126.460938 24.445312 126.648438 24.335938 126.84375 24.25 C 127.367188 24.03125 127.949219 23.917969 128.570312 23.917969 C 129.039062 23.917969 129.421875 24.039062 129.738281 24.285156 C 130.035156 24.519531 130.183594 25.007812 130.183594 25.742188 L 130.183594 36.359375 L 135.121094 36.359375 L 135.121094 25.386719 C 135.121094 23.5 134.730469 22.15625 133.96875 21.394531 C 133.199219 20.632812 132.144531 20.246094 130.824219 20.246094 C 129.714844 20.246094 128.738281 20.4375 127.902344 20.816406 L 126.195312 24.476562 L 126.285156 24.566406 "/>
<path style=" stroke:none;fill-rule:nonzero;fill:rgb(20.732117%,30.625916%,65.597534%);fill-opacity:1;" d="M 147.371094 28.179688 C 146.667969 27.363281 145.414062 26.695312 143.652344 26.203125 C 142.3125 25.828125 141.449219 25.53125 141.074219 25.328125 C 140.765625 25.164062 140.609375 24.867188 140.609375 24.429688 C 140.609375 24.066406 140.816406 23.777344 141.246094 23.554688 C 141.722656 23.304688 142.363281 23.183594 143.140625 23.183594 C 143.824219 23.183594 144.558594 23.253906 145.320312 23.402344 C 145.644531 23.464844 145.9375 23.535156 146.195312 23.613281 L 147.355469 21.128906 L 147.242188 21.078125 C 146.652344 20.8125 146.015625 20.609375 145.351562 20.46875 C 144.675781 20.335938 143.851562 20.265625 142.894531 20.265625 C 140.800781 20.265625 139.242188 20.710938 138.257812 21.59375 C 137.265625 22.484375 136.757812 23.582031 136.757812 24.875 C 136.757812 26.128906 137.042969 27.164062 137.597656 27.960938 C 138.152344 28.761719 139.199219 29.386719 140.714844 29.816406 C 142.605469 30.359375 143.300781 30.722656 143.539062 30.933594 C 143.875 31.21875 144.035156 31.578125 144.035156 32.035156 C 144.035156 32.484375 143.785156 32.855469 143.28125 33.160156 C 142.746094 33.484375 141.953125 33.648438 140.933594 33.648438 C 140.113281 33.648438 139.308594 33.527344 138.53125 33.292969 C 137.746094 33.054688 137.136719 32.824219 136.714844 32.601562 L 136.460938 32.46875 L 136.390625 32.542969 L 136.386719 32.542969 L 136.386719 35.625 L 136.488281 35.691406 C 136.898438 35.945312 137.523438 36.152344 138.410156 36.320312 C 139.269531 36.480469 140.234375 36.5625 141.269531 36.5625 C 143.785156 36.5625 145.636719 36.066406 146.753906 35.082031 C 147.871094 34.089844 148.445312 32.839844 148.445312 31.367188 C 148.445312 30.074219 148.089844 29.003906 147.371094 28.179688 "/>
<path style=" stroke:none;fill-rule:nonzero;fill:rgb(20.732117%,30.625916%,65.597534%);fill-opacity:1;" d="M 55.359375 21.664062 C 54.328125 20.734375 52.722656 20.265625 50.589844 20.265625 C 49.273438 20.265625 48.144531 20.371094 47.21875 20.574219 C 46.875 20.652344 46.546875 20.738281 46.222656 20.824219 L 44.589844 24.335938 L 44.671875 24.417969 L 44.898438 24.292969 C 45.453125 23.992188 46.113281 23.742188 46.859375 23.542969 C 47.617188 23.34375 48.484375 23.242188 49.449219 23.242188 C 50.320312 23.242188 50.992188 23.414062 51.457031 23.753906 C 51.90625 24.082031 52.125 24.476562 52.125 24.949219 C 52.125 24.949219 52.125 25.625 52.125 26.070312 C 51.839844 25.894531 51.515625 25.738281 51.078125 25.609375 C 50.449219 25.421875 49.808594 25.328125 49.164062 25.328125 C 47.058594 25.328125 45.355469 25.816406 44.097656 26.769531 C 42.820312 27.742188 42.175781 29.136719 42.175781 30.914062 L 42.175781 31.179688 C 42.175781 32.964844 42.664062 34.328125 43.625 35.226562 C 44.582031 36.113281 46 36.570312 47.839844 36.570312 C 48.601562 36.570312 49.304688 36.460938 49.941406 36.261719 L 51.398438 32.984375 L 51.308594 32.894531 C 50.832031 33.226562 50.292969 33.398438 49.707031 33.398438 C 48.953125 33.398438 48.328125 33.238281 47.847656 32.921875 C 47.402344 32.621094 47.175781 31.984375 47.175781 31.035156 L 47.175781 30.613281 C 47.175781 29.691406 47.398438 29.015625 47.835938 28.609375 C 48.28125 28.195312 48.898438 27.984375 49.675781 27.984375 C 50.503906 27.984375 51.132812 28.203125 51.542969 28.640625 C 51.957031 29.082031 52.167969 29.734375 52.167969 30.585938 L 52.164062 36.382812 L 56.929688 36.382812 L 56.929688 26.121094 C 56.929688 24.097656 56.402344 22.59375 55.359375 21.664062 "/>
<path style=" stroke:none;fill-rule:nonzero;fill:rgb(20.732117%,30.625916%,65.597534%);fill-opacity:1;" d="M 117.234375 21.664062 C 116.199219 20.734375 114.597656 20.265625 112.464844 20.265625 C 111.152344 20.265625 110.023438 20.371094 109.09375 20.578125 C 108.75 20.652344 108.421875 20.738281 108.097656 20.828125 L 106.464844 24.335938 L 106.546875 24.417969 L 106.773438 24.292969 C 107.324219 23.992188 107.984375 23.742188 108.738281 23.542969 C 109.492188 23.34375 110.359375 23.242188 111.328125 23.242188 C 112.191406 23.242188 112.871094 23.414062 113.335938 23.753906 C 113.777344 24.082031 113.996094 24.476562 113.996094 24.949219 C 113.996094 24.949219 113.996094 25.625 113.996094 26.070312 C 113.71875 25.894531 113.390625 25.738281 112.949219 25.605469 C 112.328125 25.421875 111.683594 25.328125 111.042969 25.328125 C 108.933594 25.328125 107.230469 25.816406 105.976562 26.769531 C 104.699219 27.742188 104.054688 29.132812 104.054688 30.914062 L 104.054688 31.179688 C 104.054688 32.964844 104.539062 34.324219 105.5 35.21875 C 106.453125 36.113281 107.875 36.5625 109.714844 36.5625 C 110.480469 36.5625 111.175781 36.457031 111.8125 36.257812 L 113.273438 32.980469 L 113.1875 32.890625 C 112.703125 33.222656 112.164062 33.394531 111.582031 33.394531 C 110.824219 33.394531 110.203125 33.234375 109.722656 32.914062 C 109.277344 32.617188 109.046875 31.984375 109.046875 31.035156 L 109.046875 30.613281 C 109.046875 29.691406 109.269531 29.015625 109.710938 28.605469 C 110.15625 28.191406 110.773438 27.980469 111.550781 27.980469 C 112.378906 27.980469 113.007812 28.203125 113.417969 28.636719 C 113.828125 29.078125 114.042969 29.734375 114.042969 30.582031 L 114.039062 36.378906 L 118.804688 36.378906 L 118.804688 26.121094 C 118.804688 24.097656 118.277344 22.59375 117.234375 21.664062 "/>
<path style=" stroke:none;fill-rule:nonzero;fill:rgb(20.732117%,30.625916%,65.597534%);fill-opacity:1;" d="M 162.4375 21.664062 C 161.402344 20.734375 159.792969 20.265625 157.664062 20.265625 C 156.355469 20.265625 155.222656 20.371094 154.296875 20.578125 C 153.953125 20.652344 153.617188 20.738281 153.300781 20.828125 L 151.664062 24.335938 L 151.742188 24.417969 L 151.976562 24.292969 C 152.527344 23.992188 153.1875 23.742188 153.9375 23.542969 C 154.691406 23.34375 155.558594 23.242188 156.523438 23.242188 C 157.394531 23.242188 158.066406 23.414062 158.527344 23.753906 C 158.980469 24.082031 159.195312 24.476562 159.195312 24.949219 C 159.195312 24.949219 159.195312 25.625 159.195312 26.070312 C 158.914062 25.894531 158.585938 25.734375 158.152344 25.605469 C 157.527344 25.421875 156.882812 25.324219 156.242188 25.324219 C 154.136719 25.324219 152.433594 25.816406 151.171875 26.769531 C 149.898438 27.742188 149.253906 29.132812 149.253906 30.914062 L 149.253906 31.179688 C 149.253906 32.964844 149.738281 34.324219 150.703125 35.21875 C 151.65625 36.113281 153.074219 36.5625 154.914062 36.5625 C 155.675781 36.5625 156.375 36.457031 157.015625 36.257812 L 158.472656 32.980469 L 158.382812 32.890625 C 157.90625 33.222656 157.371094 33.394531 156.78125 33.394531 C 156.027344 33.394531 155.402344 33.234375 154.925781 32.914062 C 154.476562 32.617188 154.246094 31.984375 154.246094 31.035156 L 154.246094 30.613281 C 154.246094 29.691406 154.46875 29.015625 154.914062 28.605469 C 155.355469 28.191406 155.976562 27.980469 156.753906 27.980469 C 157.578125 27.980469 158.207031 28.203125 158.617188 28.636719 C 159.035156 29.078125 159.242188 29.734375 159.242188 30.582031 L 159.238281 36.378906 L 164.007812 36.378906 L 164.007812 26.121094 C 164.007812 24.097656 163.480469 22.59375 162.4375 21.664062 "/>
<path style=" stroke:none;fill-rule:nonzero;fill:rgb(20.732117%,30.625916%,65.597534%);fill-opacity:1;" d="M 106.4375 21.121094 C 105.75 20.554688 104.832031 20.265625 103.707031 20.265625 C 102.757812 20.265625 101.910156 20.519531 101.203125 21.023438 L 101.140625 21.078125 C 100.664062 21.425781 100.253906 21.875 99.902344 22.414062 C 99.878906 21.699219 99.835938 20.578125 99.835938 20.578125 L 95.078125 20.578125 L 95.078125 36.382812 L 100.015625 36.382812 L 100.015625 26.472656 C 100.019531 25.519531 100.53125 24.652344 101.394531 24.164062 C 101.410156 24.148438 101.4375 24.132812 101.4375 24.132812 C 101.871094 23.894531 102.363281 23.769531 102.863281 23.769531 L 102.929688 23.773438 C 103.5625 23.785156 104.160156 23.992188 104.648438 24.371094 L 104.867188 24.535156 L 106.449219 21.132812 L 106.4375 21.121094 "/>
<path style=" stroke:none;fill-rule:nonzero;fill:rgb(20.732117%,30.625916%,65.597534%);fill-opacity:1;" d="M 77.308594 21.128906 C 76.613281 20.554688 75.695312 20.269531 74.570312 20.269531 C 73.609375 20.269531 72.757812 20.523438 72.042969 21.027344 L 71.984375 21.078125 C 71.503906 21.429688 71.089844 21.882812 70.738281 22.417969 C 70.710938 21.699219 70.671875 20.578125 70.671875 20.578125 L 65.886719 20.578125 L 65.886719 36.402344 L 70.851562 36.402344 L 70.851562 26.476562 C 70.855469 25.527344 71.367188 24.660156 72.234375 24.167969 C 72.257812 24.152344 72.277344 24.140625 72.277344 24.140625 C 72.71875 23.902344 73.214844 23.777344 73.714844 23.777344 L 73.777344 23.78125 C 74.417969 23.792969 75.019531 23.996094 75.511719 24.375 L 75.730469 24.539062 L 77.324219 21.136719 L 77.308594 21.128906 "/>
<path style=" stroke:none;fill-rule:nonzero;fill:rgb(20.732117%,30.625916%,65.597534%);fill-opacity:1;" d="M 63.871094 17.0625 C 63.871094 17.714844 63.632812 18.265625 63.160156 18.710938 C 62.6875 19.160156 62.113281 19.382812 61.4375 19.382812 C 60.765625 19.382812 60.191406 19.160156 59.714844 18.710938 C 59.234375 18.265625 58.992188 17.714844 58.992188 17.0625 C 58.992188 16.417969 59.234375 15.871094 59.714844 15.425781 C 60.191406 14.976562 60.765625 14.75 61.4375 14.75 C 62.113281 14.75 62.6875 14.976562 63.160156 15.425781 C 63.632812 15.871094 63.871094 16.417969 63.871094 17.0625 Z M 59.09375 20.589844 L 63.730469 20.589844 L 63.730469 36.40625 L 59.09375 36.40625 L 59.09375 20.589844 "/>
<path style=" stroke:none;fill-rule:nonzero;fill:rgb(35.018921%,72.879028%,92.152405%);fill-opacity:1;" d="M 11.011719 21.433594 C 11.011719 21.433594 8.398438 28.957031 7.902344 33.898438 C 9.695312 29.59375 13.128906 23.59375 15.214844 20.757812 C 12.269531 18.355469 6.835938 15.828125 6.835938 15.828125 C 6.835938 15.828125 11.136719 13.988281 19.816406 13.53125 C 19.816406 13.53125 23.425781 6.546875 32.75 0.00390625 C 27.109375 1.808594 21.785156 6.628906 16.363281 11.886719 C 9.425781 12.25 1.917969 15.03125 1.117188 15.382812 C 9.105469 19.519531 11.011719 21.433594 11.011719 21.433594 "/>
<g clip-path="url(#clip1)" clip-rule="nonzero">
<path style=" stroke:none;fill-rule:nonzero;fill:rgb(35.018921%,72.879028%,92.152405%);fill-opacity:1;" d="M 42.417969 15.925781 C 35.636719 13.191406 27.265625 12.488281 27.265625 12.488281 C 27.265625 12.488281 27.082031 10.34375 27.726562 6.222656 C 26.929688 7.9375 25.480469 11.605469 25.230469 14.347656 C 31.332031 14.828125 35.496094 16.210938 35.496094 16.210938 C 35.496094 16.210938 29.316406 18.550781 25.890625 21.25 C 26.519531 22.773438 27.890625 27.195312 28.683594 30.613281 C 27.335938 29.398438 23.359375 26.117188 20.472656 24.371094 C 16.613281 25.863281 5.976562 36.382812 0 46.109375 C 2.585938 43.417969 10.164062 34.863281 20.429688 28.675781 C 22.527344 29.910156 32.285156 36.300781 32.285156 36.300781 C 32.285156 36.300781 30.15625 24.941406 29.351562 22.355469 C 32.410156 20.265625 37.566406 17.421875 42.417969 15.925781 "/>
</g>
</g>
</svg>
