<svg xmlns="http://www.w3.org/2000/svg" width="233.253" height="59pt" viewBox="0 0 174.94 59"><defs><clipPath id="a"><path d="M164 11h10.941v9H164Zm0 0"/></clipPath><clipPath id="b"><path d="M0 13h46v46H0Zm0 0"/></clipPath><clipPath id="c"><path d="M.145 36.258C.145 48.82 10.328 59 22.887 59c12.562 0 22.742-10.18 22.742-22.742s-10.18-22.742-22.742-22.742C10.328 13.516.145 23.696.145 36.258"/></clipPath><clipPath id="d"><path d="M0 13h46v1H0Zm0 0"/></clipPath><clipPath id="e"><path d="M.145 36.258C.145 48.82 10.328 59 22.887 59c12.562 0 22.742-10.18 22.742-22.742s-10.18-22.742-22.742-22.742C10.328 13.516.145 23.696.145 36.258"/></clipPath><clipPath id="f"><path d="M0 14h46v1H0Zm0 0"/></clipPath><clipPath id="g"><path d="M.145 36.258C.145 48.82 10.328 59 22.887 59c12.562 0 22.742-10.18 22.742-22.742s-10.18-22.742-22.742-22.742C10.328 13.516.145 23.696.145 36.258"/></clipPath><clipPath id="h"><path d="M0 14h46v2H0Zm0 0"/></clipPath><clipPath id="i"><path d="M.145 36.258C.145 48.82 10.328 59 22.887 59c12.562 0 22.742-10.18 22.742-22.742s-10.18-22.742-22.742-22.742C10.328 13.516.145 23.696.145 36.258"/></clipPath><clipPath id="j"><path d="M0 15h46v1H0Zm0 0"/></clipPath><clipPath id="k"><path d="M.145 36.258C.145 48.82 10.328 59 22.887 59c12.562 0 22.742-10.18 22.742-22.742s-10.18-22.742-22.742-22.742C10.328 13.516.145 23.696.145 36.258"/></clipPath><clipPath id="l"><path d="M0 16h46v1H0Zm0 0"/></clipPath><clipPath id="m"><path d="M.145 36.258C.145 48.82 10.328 59 22.887 59c12.562 0 22.742-10.18 22.742-22.742s-10.18-22.742-22.742-22.742C10.328 13.516.145 23.696.145 36.258"/></clipPath><clipPath id="n"><path d="M0 17h46v1H0Zm0 0"/></clipPath><clipPath id="o"><path d="M.145 36.258C.145 48.82 10.328 59 22.887 59c12.562 0 22.742-10.18 22.742-22.742s-10.18-22.742-22.742-22.742C10.328 13.516.145 23.696.145 36.258"/></clipPath><clipPath id="p"><path d="M0 17h46v2H0Zm0 0"/></clipPath><clipPath id="q"><path d="M.145 36.258C.145 48.82 10.328 59 22.887 59c12.562 0 22.742-10.18 22.742-22.742s-10.18-22.742-22.742-22.742C10.328 13.516.145 23.696.145 36.258"/></clipPath><clipPath id="r"><path d="M0 18h46v1H0Zm0 0"/></clipPath><clipPath id="s"><path d="M.145 36.258C.145 48.82 10.328 59 22.887 59c12.562 0 22.742-10.18 22.742-22.742s-10.18-22.742-22.742-22.742C10.328 13.516.145 23.696.145 36.258"/></clipPath><clipPath id="t"><path d="M0 19h46v1H0Zm0 0"/></clipPath><clipPath id="u"><path d="M.145 36.258C.145 48.82 10.328 59 22.887 59c12.562 0 22.742-10.18 22.742-22.742s-10.18-22.742-22.742-22.742C10.328 13.516.145 23.696.145 36.258"/></clipPath><clipPath id="v"><path d="M0 19h46v2H0Zm0 0"/></clipPath><clipPath id="w"><path d="M.145 36.258C.145 48.82 10.328 59 22.887 59c12.562 0 22.742-10.18 22.742-22.742s-10.18-22.742-22.742-22.742C10.328 13.516.145 23.696.145 36.258"/></clipPath><clipPath id="x"><path d="M0 20h46v1H0Zm0 0"/></clipPath><clipPath id="y"><path d="M.145 36.258C.145 48.82 10.328 59 22.887 59c12.562 0 22.742-10.18 22.742-22.742s-10.18-22.742-22.742-22.742C10.328 13.516.145 23.696.145 36.258"/></clipPath><clipPath id="z"><path d="M0 20h46v2H0Zm0 0"/></clipPath><clipPath id="A"><path d="M.145 36.258C.145 48.82 10.328 59 22.887 59c12.562 0 22.742-10.18 22.742-22.742s-10.18-22.742-22.742-22.742C10.328 13.516.145 23.696.145 36.258"/></clipPath><clipPath id="B"><path d="M0 21h46v1H0Zm0 0"/></clipPath><clipPath id="C"><path d="M.145 36.258C.145 48.82 10.328 59 22.887 59c12.562 0 22.742-10.18 22.742-22.742s-10.18-22.742-22.742-22.742C10.328 13.516.145 23.696.145 36.258"/></clipPath><clipPath id="D"><path d="M0 22h46v1H0Zm0 0"/></clipPath><clipPath id="E"><path d="M.145 36.258C.145 48.82 10.328 59 22.887 59c12.562 0 22.742-10.18 22.742-22.742s-10.18-22.742-22.742-22.742C10.328 13.516.145 23.696.145 36.258"/></clipPath><clipPath id="F"><path d="M0 22h46v2H0Zm0 0"/></clipPath><clipPath id="G"><path d="M.145 36.258C.145 48.82 10.328 59 22.887 59c12.562 0 22.742-10.18 22.742-22.742s-10.18-22.742-22.742-22.742C10.328 13.516.145 23.696.145 36.258"/></clipPath><clipPath id="H"><path d="M0 23h46v1H0Zm0 0"/></clipPath><clipPath id="I"><path d="M.145 36.258C.145 48.82 10.328 59 22.887 59c12.562 0 22.742-10.18 22.742-22.742s-10.18-22.742-22.742-22.742C10.328 13.516.145 23.696.145 36.258"/></clipPath><clipPath id="J"><path d="M0 24h46v1H0Zm0 0"/></clipPath><clipPath id="K"><path d="M.145 36.258C.145 48.82 10.328 59 22.887 59c12.562 0 22.742-10.18 22.742-22.742s-10.18-22.742-22.742-22.742C10.328 13.516.145 23.696.145 36.258"/></clipPath><clipPath id="L"><path d="M0 58h46v1H0Zm0 0"/></clipPath><clipPath id="M"><path d="M.145 36.258C.145 48.82 10.328 59 22.887 59c12.562 0 22.742-10.18 22.742-22.742s-10.18-22.742-22.742-22.742C10.328 13.516.145 23.696.145 36.258"/></clipPath><clipPath id="N"><path d="M0 57h46v2H0Zm0 0"/></clipPath><clipPath id="O"><path d="M.145 36.258C.145 48.82 10.328 59 22.887 59c12.562 0 22.742-10.18 22.742-22.742s-10.18-22.742-22.742-22.742C10.328 13.516.145 23.696.145 36.258"/></clipPath><clipPath id="P"><path d="M0 57h46v1H0Zm0 0"/></clipPath><clipPath id="Q"><path d="M.145 36.258C.145 48.82 10.328 59 22.887 59c12.562 0 22.742-10.18 22.742-22.742s-10.18-22.742-22.742-22.742C10.328 13.516.145 23.696.145 36.258"/></clipPath><clipPath id="R"><path d="M0 56h46v1H0Zm0 0"/></clipPath><clipPath id="S"><path d="M.145 36.258C.145 48.82 10.328 59 22.887 59c12.562 0 22.742-10.18 22.742-22.742s-10.18-22.742-22.742-22.742C10.328 13.516.145 23.696.145 36.258"/></clipPath><clipPath id="T"><path d="M0 55h46v2H0Zm0 0"/></clipPath><clipPath id="U"><path d="M.145 36.258C.145 48.82 10.328 59 22.887 59c12.562 0 22.742-10.18 22.742-22.742s-10.18-22.742-22.742-22.742C10.328 13.516.145 23.696.145 36.258"/></clipPath><clipPath id="V"><path d="M0 55h46v1H0Zm0 0"/></clipPath><clipPath id="W"><path d="M.145 36.258C.145 48.82 10.328 59 22.887 59c12.562 0 22.742-10.18 22.742-22.742s-10.18-22.742-22.742-22.742C10.328 13.516.145 23.696.145 36.258"/></clipPath><clipPath id="X"><path d="M0 54h46v1H0Zm0 0"/></clipPath><clipPath id="Y"><path d="M.145 36.258C.145 48.82 10.328 59 22.887 59c12.562 0 22.742-10.18 22.742-22.742s-10.18-22.742-22.742-22.742C10.328 13.516.145 23.696.145 36.258"/></clipPath><clipPath id="Z"><path d="M0 53h46v2H0Zm0 0"/></clipPath><clipPath id="aa"><path d="M.145 36.258C.145 48.82 10.328 59 22.887 59c12.562 0 22.742-10.18 22.742-22.742s-10.18-22.742-22.742-22.742C10.328 13.516.145 23.696.145 36.258"/></clipPath><clipPath id="ab"><path d="M0 53h46v1H0Zm0 0"/></clipPath><clipPath id="ac"><path d="M.145 36.258C.145 48.82 10.328 59 22.887 59c12.562 0 22.742-10.18 22.742-22.742s-10.18-22.742-22.742-22.742C10.328 13.516.145 23.696.145 36.258"/></clipPath><clipPath id="ad"><path d="M0 52h46v1H0Zm0 0"/></clipPath><clipPath id="ae"><path d="M.145 36.258C.145 48.82 10.328 59 22.887 59c12.562 0 22.742-10.18 22.742-22.742s-10.18-22.742-22.742-22.742C10.328 13.516.145 23.696.145 36.258"/></clipPath><clipPath id="af"><path d="M0 51h46v2H0Zm0 0"/></clipPath><clipPath id="ag"><path d="M.145 36.258C.145 48.82 10.328 59 22.887 59c12.562 0 22.742-10.18 22.742-22.742s-10.18-22.742-22.742-22.742C10.328 13.516.145 23.696.145 36.258"/></clipPath><clipPath id="ah"><path d="M0 51h46v1H0Zm0 0"/></clipPath><clipPath id="ai"><path d="M.145 36.258C.145 48.82 10.328 59 22.887 59c12.562 0 22.742-10.18 22.742-22.742s-10.18-22.742-22.742-22.742C10.328 13.516.145 23.696.145 36.258"/></clipPath><clipPath id="aj"><path d="M0 50h46v1H0Zm0 0"/></clipPath><clipPath id="ak"><path d="M.145 36.258C.145 48.82 10.328 59 22.887 59c12.562 0 22.742-10.18 22.742-22.742s-10.18-22.742-22.742-22.742C10.328 13.516.145 23.696.145 36.258"/></clipPath><clipPath id="al"><path d="M0 49h46v2H0Zm0 0"/></clipPath><clipPath id="am"><path d="M.145 36.258C.145 48.82 10.328 59 22.887 59c12.562 0 22.742-10.18 22.742-22.742s-10.18-22.742-22.742-22.742C10.328 13.516.145 23.696.145 36.258"/></clipPath><clipPath id="an"><path d="M0 49h46v1H0Zm0 0"/></clipPath><clipPath id="ao"><path d="M.145 36.258C.145 48.82 10.328 59 22.887 59c12.562 0 22.742-10.18 22.742-22.742s-10.18-22.742-22.742-22.742C10.328 13.516.145 23.696.145 36.258"/></clipPath><clipPath id="ap"><path d="M0 48h46v1H0Zm0 0"/></clipPath><clipPath id="aq"><path d="M.145 36.258C.145 48.82 10.328 59 22.887 59c12.562 0 22.742-10.18 22.742-22.742s-10.18-22.742-22.742-22.742C10.328 13.516.145 23.696.145 36.258"/></clipPath><clipPath id="ar"><path d="M0 47h46v2H0Zm0 0"/></clipPath><clipPath id="as"><path d="M.145 36.258C.145 48.82 10.328 59 22.887 59c12.562 0 22.742-10.18 22.742-22.742s-10.18-22.742-22.742-22.742C10.328 13.516.145 23.696.145 36.258"/></clipPath><clipPath id="at"><path d="M0 47h46v1H0Zm0 0"/></clipPath><clipPath id="au"><path d="M.145 36.258C.145 48.82 10.328 59 22.887 59c12.562 0 22.742-10.18 22.742-22.742s-10.18-22.742-22.742-22.742C10.328 13.516.145 23.696.145 36.258"/></clipPath><clipPath id="av"><path d="M0 46h46v1H0Zm0 0"/></clipPath><clipPath id="aw"><path d="M.145 36.258C.145 48.82 10.328 59 22.887 59c12.562 0 22.742-10.18 22.742-22.742s-10.18-22.742-22.742-22.742C10.328 13.516.145 23.696.145 36.258"/></clipPath><clipPath id="ax"><path d="M0 45h46v2H0Zm0 0"/></clipPath><clipPath id="ay"><path d="M.145 36.258C.145 48.82 10.328 59 22.887 59c12.562 0 22.742-10.18 22.742-22.742s-10.18-22.742-22.742-22.742C10.328 13.516.145 23.696.145 36.258"/></clipPath><clipPath id="az"><path d="M0 45h46v1H0Zm0 0"/></clipPath><clipPath id="aA"><path d="M.145 36.258C.145 48.82 10.328 59 22.887 59c12.562 0 22.742-10.18 22.742-22.742s-10.18-22.742-22.742-22.742C10.328 13.516.145 23.696.145 36.258"/></clipPath><clipPath id="aB"><path d="M0 44h46v1H0Zm0 0"/></clipPath><clipPath id="aC"><path d="M.145 36.258C.145 48.82 10.328 59 22.887 59c12.562 0 22.742-10.18 22.742-22.742s-10.18-22.742-22.742-22.742C10.328 13.516.145 23.696.145 36.258"/></clipPath><clipPath id="aD"><path d="M0 43h46v2H0Zm0 0"/></clipPath><clipPath id="aE"><path d="M.145 36.258C.145 48.82 10.328 59 22.887 59c12.562 0 22.742-10.18 22.742-22.742s-10.18-22.742-22.742-22.742C10.328 13.516.145 23.696.145 36.258"/></clipPath><clipPath id="aF"><path d="M0 43h46v1H0Zm0 0"/></clipPath><clipPath id="aG"><path d="M.145 36.258C.145 48.82 10.328 59 22.887 59c12.562 0 22.742-10.18 22.742-22.742s-10.18-22.742-22.742-22.742C10.328 13.516.145 23.696.145 36.258"/></clipPath><clipPath id="aH"><path d="M0 42h46v1H0Zm0 0"/></clipPath><clipPath id="aI"><path d="M.145 36.258C.145 48.82 10.328 59 22.887 59c12.562 0 22.742-10.18 22.742-22.742s-10.18-22.742-22.742-22.742C10.328 13.516.145 23.696.145 36.258"/></clipPath><clipPath id="aJ"><path d="M0 41h46v2H0Zm0 0"/></clipPath><clipPath id="aK"><path d="M.145 36.258C.145 48.82 10.328 59 22.887 59c12.562 0 22.742-10.18 22.742-22.742s-10.18-22.742-22.742-22.742C10.328 13.516.145 23.696.145 36.258"/></clipPath><clipPath id="aL"><path d="M0 41h46v1H0Zm0 0"/></clipPath><clipPath id="aM"><path d="M.145 36.258C.145 48.82 10.328 59 22.887 59c12.562 0 22.742-10.18 22.742-22.742s-10.18-22.742-22.742-22.742C10.328 13.516.145 23.696.145 36.258"/></clipPath><clipPath id="aN"><path d="M0 40h46v1H0Zm0 0"/></clipPath><clipPath id="aO"><path d="M.145 36.258C.145 48.82 10.328 59 22.887 59c12.562 0 22.742-10.18 22.742-22.742s-10.18-22.742-22.742-22.742C10.328 13.516.145 23.696.145 36.258"/></clipPath><clipPath id="aP"><path d="M0 39h46v2H0Zm0 0"/></clipPath><clipPath id="aQ"><path d="M.145 36.258C.145 48.82 10.328 59 22.887 59c12.562 0 22.742-10.18 22.742-22.742s-10.18-22.742-22.742-22.742C10.328 13.516.145 23.696.145 36.258"/></clipPath><clipPath id="aR"><path d="M0 39h46v1H0Zm0 0"/></clipPath><clipPath id="aS"><path d="M.145 36.258C.145 48.82 10.328 59 22.887 59c12.562 0 22.742-10.18 22.742-22.742s-10.18-22.742-22.742-22.742C10.328 13.516.145 23.696.145 36.258"/></clipPath><clipPath id="aT"><path d="M0 38h46v1H0Zm0 0"/></clipPath><clipPath id="aU"><path d="M.145 36.258C.145 48.82 10.328 59 22.887 59c12.562 0 22.742-10.18 22.742-22.742s-10.18-22.742-22.742-22.742C10.328 13.516.145 23.696.145 36.258"/></clipPath><clipPath id="aV"><path d="M0 37h46v2H0Zm0 0"/></clipPath><clipPath id="aW"><path d="M.145 36.258C.145 48.82 10.328 59 22.887 59c12.562 0 22.742-10.18 22.742-22.742s-10.18-22.742-22.742-22.742C10.328 13.516.145 23.696.145 36.258"/></clipPath><clipPath id="aX"><path d="M0 37h46v1H0Zm0 0"/></clipPath><clipPath id="aY"><path d="M.145 36.258C.145 48.82 10.328 59 22.887 59c12.562 0 22.742-10.18 22.742-22.742s-10.18-22.742-22.742-22.742C10.328 13.516.145 23.696.145 36.258"/></clipPath><clipPath id="aZ"><path d="M0 36h46v1H0Zm0 0"/></clipPath><clipPath id="ba"><path d="M.145 36.258C.145 48.82 10.328 59 22.887 59c12.562 0 22.742-10.18 22.742-22.742s-10.18-22.742-22.742-22.742C10.328 13.516.145 23.696.145 36.258"/></clipPath><clipPath id="bb"><path d="M0 35h46v2H0Zm0 0"/></clipPath><clipPath id="bc"><path d="M.145 36.258C.145 48.82 10.328 59 22.887 59c12.562 0 22.742-10.18 22.742-22.742s-10.18-22.742-22.742-22.742C10.328 13.516.145 23.696.145 36.258"/></clipPath><clipPath id="bd"><path d="M0 35h46v1H0Zm0 0"/></clipPath><clipPath id="be"><path d="M.145 36.258C.145 48.82 10.328 59 22.887 59c12.562 0 22.742-10.18 22.742-22.742s-10.18-22.742-22.742-22.742C10.328 13.516.145 23.696.145 36.258"/></clipPath><clipPath id="bf"><path d="M0 34h46v1H0Zm0 0"/></clipPath><clipPath id="bg"><path d="M.145 36.258C.145 48.82 10.328 59 22.887 59c12.562 0 22.742-10.18 22.742-22.742s-10.18-22.742-22.742-22.742C10.328 13.516.145 23.696.145 36.258"/></clipPath><clipPath id="bh"><path d="M0 33h46v2H0Zm0 0"/></clipPath><clipPath id="bi"><path d="M.145 36.258C.145 48.82 10.328 59 22.887 59c12.562 0 22.742-10.18 22.742-22.742s-10.18-22.742-22.742-22.742C10.328 13.516.145 23.696.145 36.258"/></clipPath><clipPath id="bj"><path d="M0 33h46v1H0Zm0 0"/></clipPath><clipPath id="bk"><path d="M.145 36.258C.145 48.82 10.328 59 22.887 59c12.562 0 22.742-10.18 22.742-22.742s-10.18-22.742-22.742-22.742C10.328 13.516.145 23.696.145 36.258"/></clipPath><clipPath id="bl"><path d="M0 32h46v1H0Zm0 0"/></clipPath><clipPath id="bm"><path d="M.145 36.258C.145 48.82 10.328 59 22.887 59c12.562 0 22.742-10.18 22.742-22.742s-10.18-22.742-22.742-22.742C10.328 13.516.145 23.696.145 36.258"/></clipPath><clipPath id="bn"><path d="M0 31h46v2H0Zm0 0"/></clipPath><clipPath id="bo"><path d="M.145 36.258C.145 48.82 10.328 59 22.887 59c12.562 0 22.742-10.18 22.742-22.742s-10.18-22.742-22.742-22.742C10.328 13.516.145 23.696.145 36.258"/></clipPath><clipPath id="bp"><path d="M0 31h46v1H0Zm0 0"/></clipPath><clipPath id="bq"><path d="M.145 36.258C.145 48.82 10.328 59 22.887 59c12.562 0 22.742-10.18 22.742-22.742s-10.18-22.742-22.742-22.742C10.328 13.516.145 23.696.145 36.258"/></clipPath><clipPath id="br"><path d="M0 30h46v1H0Zm0 0"/></clipPath><clipPath id="bs"><path d="M.145 36.258C.145 48.82 10.328 59 22.887 59c12.562 0 22.742-10.18 22.742-22.742s-10.18-22.742-22.742-22.742C10.328 13.516.145 23.696.145 36.258"/></clipPath><clipPath id="bt"><path d="M0 29h46v2H0Zm0 0"/></clipPath><clipPath id="bu"><path d="M.145 36.258C.145 48.82 10.328 59 22.887 59c12.562 0 22.742-10.18 22.742-22.742s-10.18-22.742-22.742-22.742C10.328 13.516.145 23.696.145 36.258"/></clipPath><clipPath id="bv"><path d="M0 29h46v1H0Zm0 0"/></clipPath><clipPath id="bw"><path d="M.145 36.258C.145 48.82 10.328 59 22.887 59c12.562 0 22.742-10.18 22.742-22.742s-10.18-22.742-22.742-22.742C10.328 13.516.145 23.696.145 36.258"/></clipPath><clipPath id="bx"><path d="M0 28h46v1H0Zm0 0"/></clipPath><clipPath id="by"><path d="M.145 36.258C.145 48.82 10.328 59 22.887 59c12.562 0 22.742-10.18 22.742-22.742s-10.18-22.742-22.742-22.742C10.328 13.516.145 23.696.145 36.258"/></clipPath><clipPath id="bz"><path d="M0 27h46v2H0Zm0 0"/></clipPath><clipPath id="bA"><path d="M.145 36.258C.145 48.82 10.328 59 22.887 59c12.562 0 22.742-10.18 22.742-22.742s-10.18-22.742-22.742-22.742C10.328 13.516.145 23.696.145 36.258"/></clipPath><clipPath id="bB"><path d="M0 27h46v1H0Zm0 0"/></clipPath><clipPath id="bC"><path d="M.145 36.258C.145 48.82 10.328 59 22.887 59c12.562 0 22.742-10.18 22.742-22.742s-10.18-22.742-22.742-22.742C10.328 13.516.145 23.696.145 36.258"/></clipPath><clipPath id="bD"><path d="M0 26h46v1H0Zm0 0"/></clipPath><clipPath id="bE"><path d="M.145 36.258C.145 48.82 10.328 59 22.887 59c12.562 0 22.742-10.18 22.742-22.742s-10.18-22.742-22.742-22.742C10.328 13.516.145 23.696.145 36.258"/></clipPath><clipPath id="bF"><path d="M0 25h46v2H0Zm0 0"/></clipPath><clipPath id="bG"><path d="M.145 36.258C.145 48.82 10.328 59 22.887 59c12.562 0 22.742-10.18 22.742-22.742s-10.18-22.742-22.742-22.742C10.328 13.516.145 23.696.145 36.258"/></clipPath><clipPath id="bH"><path d="M0 25h46v1H0Zm0 0"/></clipPath><clipPath id="bI"><path d="M.145 36.258C.145 48.82 10.328 59 22.887 59c12.562 0 22.742-10.18 22.742-22.742s-10.18-22.742-22.742-22.742C10.328 13.516.145 23.696.145 36.258"/></clipPath><clipPath id="bJ"><path d="M0 13h46v46H0Zm0 0"/></clipPath><clipPath id="bK"><path d="M45.363 36.309c0 12.527-10.156 22.683-22.683 22.683C10.156 58.992 0 48.836 0 36.31c0-12.524 10.156-22.68 22.68-22.68 12.527 0 22.683 10.156 22.683 22.68m0 0"/></clipPath><clipPath id="bL"><path d="M45.363 36.309c0 12.527-10.156 22.683-22.683 22.683C10.156 58.992 0 48.836 0 36.31c0-12.524 10.156-22.68 22.68-22.68 12.527 0 22.683 10.156 22.683 22.68"/></clipPath><linearGradient id="bM" x1="0" x2="1" y1="0" y2="0" gradientTransform="rotate(90 4.526 18.155)scale(45.3623)" gradientUnits="userSpaceOnUse"><stop offset="0" style="stop-color:#f5f014;stop-opacity:1"/><stop offset=".004" style="stop-color:#f5f013;stop-opacity:1"/><stop offset=".008" style="stop-color:#f5f011;stop-opacity:1"/><stop offset=".012" style="stop-color:#f6f010;stop-opacity:1"/><stop offset=".016" style="stop-color:#f6f00f;stop-opacity:1"/><stop offset=".02" style="stop-color:#f6f00e;stop-opacity:1"/><stop offset=".023" style="stop-color:#f6ef0d;stop-opacity:1"/><stop offset=".027" style="stop-color:#f7ef0c;stop-opacity:1"/><stop offset=".031" style="stop-color:#f7ee0b;stop-opacity:1"/><stop offset=".035" style="stop-color:#f7ee0a;stop-opacity:1"/><stop offset=".039" style="stop-color:#f7ee09;stop-opacity:1"/><stop offset=".043" style="stop-color:#f7ed09;stop-opacity:1"/><stop offset=".047" style="stop-color:#f7ed08;stop-opacity:1"/><stop offset=".051" style="stop-color:#f7ec08;stop-opacity:1"/><stop offset=".055" style="stop-color:#f7ec08;stop-opacity:1"/><stop offset=".059" style="stop-color:#f7eb07;stop-opacity:1"/><stop offset=".063" style="stop-color:#f8ea07;stop-opacity:1"/><stop offset=".066" style="stop-color:#f7ea07;stop-opacity:1"/><stop offset=".07" style="stop-color:#f7e906;stop-opacity:1"/><stop offset=".074" style="stop-color:#f7e906;stop-opacity:1"/><stop offset=".078" style="stop-color:#f7e806;stop-opacity:1"/><stop offset=".082" style="stop-color:#f8e706;stop-opacity:1"/><stop offset=".086" style="stop-color:#f8e606;stop-opacity:1"/><stop offset=".09" style="stop-color:#f8e606;stop-opacity:1"/><stop offset=".094" style="stop-color:#f8e506;stop-opacity:1"/><stop offset=".098" style="stop-color:#f8e406;stop-opacity:1"/><stop offset=".102" style="stop-color:#f8e405;stop-opacity:1"/><stop offset=".105" style="stop-color:#f8e305;stop-opacity:1"/><stop offset=".109" style="stop-color:#f8e205;stop-opacity:1"/><stop offset=".113" style="stop-color:#f8e205;stop-opacity:1"/><stop offset=".117" style="stop-color:#f8e105;stop-opacity:1"/><stop offset=".121" style="stop-color:#f8e005;stop-opacity:1"/><stop offset=".125" style="stop-color:#f8df06;stop-opacity:1"/><stop offset=".129" style="stop-color:#f8de06;stop-opacity:1"/><stop offset=".133" style="stop-color:#f8de06;stop-opacity:1"/><stop offset=".137" style="stop-color:#f7dd06;stop-opacity:1"/><stop offset=".141" style="stop-color:#f7dc06;stop-opacity:1"/><stop offset=".145" style="stop-color:#f7db06;stop-opacity:1"/><stop offset=".148" style="stop-color:#f7db06;stop-opacity:1"/><stop offset=".152" style="stop-color:#f7da06;stop-opacity:1"/><stop offset=".156" style="stop-color:#f7d906;stop-opacity:1"/><stop offset=".16" style="stop-color:#f7d906;stop-opacity:1"/><stop offset=".164" style="stop-color:#f7d806;stop-opacity:1"/><stop offset=".168" style="stop-color:#f7d706;stop-opacity:1"/><stop offset=".172" style="stop-color:#f7d606;stop-opacity:1"/><stop offset=".176" style="stop-color:#f7d506;stop-opacity:1"/><stop offset=".18" style="stop-color:#f7d507;stop-opacity:1"/><stop offset=".184" style="stop-color:#f7d407;stop-opacity:1"/><stop offset=".188" style="stop-color:#f8d307;stop-opacity:1"/><stop offset=".191" style="stop-color:#f8d307;stop-opacity:1"/><stop offset=".195" style="stop-color:#f8d208;stop-opacity:1"/><stop offset=".199" style="stop-color:#f8d108;stop-opacity:1"/><stop offset=".203" style="stop-color:#f7d108;stop-opacity:1"/><stop offset=".207" style="stop-color:#f7d008;stop-opacity:1"/><stop offset=".211" style="stop-color:#f7cf08;stop-opacity:1"/><stop offset=".215" style="stop-color:#f7ce08;stop-opacity:1"/><stop offset=".219" style="stop-color:#f7ce08;stop-opacity:1"/><stop offset=".223" style="stop-color:#f7cd08;stop-opacity:1"/><stop offset=".227" style="stop-color:#f7cc08;stop-opacity:1"/><stop offset=".23" style="stop-color:#f8cc08;stop-opacity:1"/><stop offset=".234" style="stop-color:#f8cb08;stop-opacity:1"/><stop offset=".238" style="stop-color:#f8ca09;stop-opacity:1"/><stop offset=".242" style="stop-color:#f8ca09;stop-opacity:1"/><stop offset=".246" style="stop-color:#f8c909;stop-opacity:1"/><stop offset=".25" style="stop-color:#f8c809;stop-opacity:1"/><stop offset=".254" style="stop-color:#f8c709;stop-opacity:1"/><stop offset=".258" style="stop-color:#f8c709;stop-opacity:1"/><stop offset=".262" style="stop-color:#f8c609;stop-opacity:1"/><stop offset=".266" style="stop-color:#f8c509;stop-opacity:1"/><stop offset=".27" style="stop-color:#f7c509;stop-opacity:1"/><stop offset=".273" style="stop-color:#f7c409;stop-opacity:1"/><stop offset=".277" style="stop-color:#f7c309;stop-opacity:1"/><stop offset=".281" style="stop-color:#f7c209;stop-opacity:1"/><stop offset=".285" style="stop-color:#f7c109;stop-opacity:1"/><stop offset=".289" style="stop-color:#f7c109;stop-opacity:1"/><stop offset=".293" style="stop-color:#f7c009;stop-opacity:1"/><stop offset=".297" style="stop-color:#f7bf09;stop-opacity:1"/><stop offset=".301" style="stop-color:#f7be0a;stop-opacity:1"/><stop offset=".305" style="stop-color:#f7bd0a;stop-opacity:1"/><stop offset=".309" style="stop-color:#f7bd0a;stop-opacity:1"/><stop offset=".313" style="stop-color:#f7bc0a;stop-opacity:1"/><stop offset=".316" style="stop-color:#f7bb0a;stop-opacity:1"/><stop offset=".32" style="stop-color:#f7ba0a;stop-opacity:1"/><stop offset=".324" style="stop-color:#f7ba0a;stop-opacity:1"/><stop offset=".328" style="stop-color:#f7b90a;stop-opacity:1"/><stop offset=".332" style="stop-color:#f7b80b;stop-opacity:1"/><stop offset=".336" style="stop-color:#f6b80b;stop-opacity:1"/><stop offset=".34" style="stop-color:#f6b70b;stop-opacity:1"/><stop offset=".344" style="stop-color:#f6b60b;stop-opacity:1"/><stop offset=".348" style="stop-color:#f6b50b;stop-opacity:1"/><stop offset=".352" style="stop-color:#f6b40b;stop-opacity:1"/><stop offset=".355" style="stop-color:#f6b40b;stop-opacity:1"/><stop offset=".359" style="stop-color:#f6b30c;stop-opacity:1"/><stop offset=".363" style="stop-color:#f6b20c;stop-opacity:1"/><stop offset=".367" style="stop-color:#f6b10c;stop-opacity:1"/><stop offset=".371" style="stop-color:#f6b10c;stop-opacity:1"/><stop offset=".375" style="stop-color:#f6b00c;stop-opacity:1"/><stop offset=".379" style="stop-color:#f7af0c;stop-opacity:1"/><stop offset=".383" style="stop-color:#f7af0c;stop-opacity:1"/><stop offset=".387" style="stop-color:#f7ae0c;stop-opacity:1"/><stop offset=".391" style="stop-color:#f7ad0c;stop-opacity:1"/><stop offset=".395" style="stop-color:#f6ac0c;stop-opacity:1"/><stop offset=".398" style="stop-color:#f6ac0c;stop-opacity:1"/><stop offset=".402" style="stop-color:#f6ab0d;stop-opacity:1"/><stop offset=".406" style="stop-color:#f6aa0d;stop-opacity:1"/><stop offset=".41" style="stop-color:#f6aa0d;stop-opacity:1"/><stop offset=".414" style="stop-color:#f6a90d;stop-opacity:1"/><stop offset=".418" style="stop-color:#f6a90d;stop-opacity:1"/><stop offset=".422" style="stop-color:#f6a80d;stop-opacity:1"/><stop offset=".426" style="stop-color:#f6a70d;stop-opacity:1"/><stop offset=".43" style="stop-color:#f6a70d;stop-opacity:1"/><stop offset=".434" style="stop-color:#f6a60d;stop-opacity:1"/><stop offset=".438" style="stop-color:#f6a50e;stop-opacity:1"/><stop offset=".441" style="stop-color:#f6a40e;stop-opacity:1"/><stop offset=".445" style="stop-color:#f6a30e;stop-opacity:1"/><stop offset=".449" style="stop-color:#f6a30e;stop-opacity:1"/><stop offset=".453" style="stop-color:#f6a20e;stop-opacity:1"/><stop offset=".457" style="stop-color:#f6a20e;stop-opacity:1"/><stop offset=".461" style="stop-color:#f6a10e;stop-opacity:1"/><stop offset=".465" style="stop-color:#f6a00e;stop-opacity:1"/><stop offset=".469" style="stop-color:#f6a00e;stop-opacity:1"/><stop offset=".473" style="stop-color:#f69f0e;stop-opacity:1"/><stop offset=".477" style="stop-color:#f69f0e;stop-opacity:1"/><stop offset=".48" style="stop-color:#f69e0f;stop-opacity:1"/><stop offset=".484" style="stop-color:#f69d0f;stop-opacity:1"/><stop offset=".488" style="stop-color:#f69c0f;stop-opacity:1"/><stop offset=".492" style="stop-color:#f69b0f;stop-opacity:1"/><stop offset=".496" style="stop-color:#f69a0f;stop-opacity:1"/><stop offset=".5" style="stop-color:#f69a0f;stop-opacity:1"/><stop offset=".504" style="stop-color:#f6990f;stop-opacity:1"/><stop offset=".508" style="stop-color:#f7980f;stop-opacity:1"/><stop offset=".512" style="stop-color:#f7970f;stop-opacity:1"/><stop offset=".516" style="stop-color:#f69710;stop-opacity:1"/><stop offset=".52" style="stop-color:#f69610;stop-opacity:1"/><stop offset=".523" style="stop-color:#f69610;stop-opacity:1"/><stop offset=".527" style="stop-color:#f69510;stop-opacity:1"/><stop offset=".531" style="stop-color:#f69410;stop-opacity:1"/><stop offset=".535" style="stop-color:#f69410;stop-opacity:1"/><stop offset=".539" style="stop-color:#f69310;stop-opacity:1"/><stop offset=".543" style="stop-color:#f69210;stop-opacity:1"/><stop offset=".547" style="stop-color:#f69210;stop-opacity:1"/><stop offset=".551" style="stop-color:#f69111;stop-opacity:1"/><stop offset=".555" style="stop-color:#f69011;stop-opacity:1"/><stop offset=".559" style="stop-color:#f68f11;stop-opacity:1"/><stop offset=".563" style="stop-color:#f68e11;stop-opacity:1"/><stop offset=".566" style="stop-color:#f68d11;stop-opacity:1"/><stop offset=".57" style="stop-color:#f68d11;stop-opacity:1"/><stop offset=".574" style="stop-color:#f68c11;stop-opacity:1"/><stop offset=".578" style="stop-color:#f68b11;stop-opacity:1"/><stop offset=".582" style="stop-color:#f68b11;stop-opacity:1"/><stop offset=".586" style="stop-color:#f68a11;stop-opacity:1"/><stop offset=".59" style="stop-color:#f68912;stop-opacity:1"/><stop offset=".594" style="stop-color:#f68912;stop-opacity:1"/><stop offset=".598" style="stop-color:#f68812;stop-opacity:1"/><stop offset=".602" style="stop-color:#f68712;stop-opacity:1"/><stop offset=".605" style="stop-color:#f68612;stop-opacity:1"/><stop offset=".609" style="stop-color:#f68612;stop-opacity:1"/><stop offset=".613" style="stop-color:#f68512;stop-opacity:1"/><stop offset=".617" style="stop-color:#f68412;stop-opacity:1"/><stop offset=".621" style="stop-color:#f68413;stop-opacity:1"/><stop offset=".625" style="stop-color:#f68313;stop-opacity:1"/><stop offset=".629" style="stop-color:#f68213;stop-opacity:1"/><stop offset=".633" style="stop-color:#f68113;stop-opacity:1"/><stop offset=".637" style="stop-color:#f58013;stop-opacity:1"/><stop offset=".641" style="stop-color:#f57f13;stop-opacity:1"/><stop offset=".645" style="stop-color:#f57e13;stop-opacity:1"/><stop offset=".648" style="stop-color:#f57d14;stop-opacity:1"/><stop offset=".652" style="stop-color:#f57c14;stop-opacity:1"/><stop offset=".656" style="stop-color:#f57b14;stop-opacity:1"/><stop offset=".66" style="stop-color:#f57b14;stop-opacity:1"/><stop offset=".664" style="stop-color:#f57a14;stop-opacity:1"/><stop offset=".668" style="stop-color:#f57914;stop-opacity:1"/><stop offset=".672" style="stop-color:#f57814;stop-opacity:1"/><stop offset=".676" style="stop-color:#f57815;stop-opacity:1"/><stop offset=".68" style="stop-color:#f57715;stop-opacity:1"/><stop offset=".684" style="stop-color:#f57615;stop-opacity:1"/><stop offset=".688" style="stop-color:#f57615;stop-opacity:1"/><stop offset=".691" style="stop-color:#f57515;stop-opacity:1"/><stop offset=".695" style="stop-color:#f47515;stop-opacity:1"/><stop offset=".699" style="stop-color:#f47415;stop-opacity:1"/><stop offset=".703" style="stop-color:#f47315;stop-opacity:1"/><stop offset=".707" style="stop-color:#f47215;stop-opacity:1"/><stop offset=".711" style="stop-color:#f47116;stop-opacity:1"/><stop offset=".715" style="stop-color:#f47116;stop-opacity:1"/><stop offset=".719" style="stop-color:#f47016;stop-opacity:1"/><stop offset=".723" style="stop-color:#f46f16;stop-opacity:1"/><stop offset=".727" style="stop-color:#f46e16;stop-opacity:1"/><stop offset=".73" style="stop-color:#f46d16;stop-opacity:1"/><stop offset=".734" style="stop-color:#f46d16;stop-opacity:1"/><stop offset=".738" style="stop-color:#f46c17;stop-opacity:1"/><stop offset=".742" style="stop-color:#f46b17;stop-opacity:1"/><stop offset=".746" style="stop-color:#f46b17;stop-opacity:1"/><stop offset=".75" style="stop-color:#f46a17;stop-opacity:1"/><stop offset=".754" style="stop-color:#f46a17;stop-opacity:1"/><stop offset=".758" style="stop-color:#f36917;stop-opacity:1"/><stop offset=".762" style="stop-color:#f36817;stop-opacity:1"/><stop offset=".766" style="stop-color:#f36817;stop-opacity:1"/><stop offset=".77" style="stop-color:#f36717;stop-opacity:1"/><stop offset=".773" style="stop-color:#f36618;stop-opacity:1"/><stop offset=".777" style="stop-color:#f36518;stop-opacity:1"/><stop offset=".781" style="stop-color:#f36418;stop-opacity:1"/><stop offset=".785" style="stop-color:#f36418;stop-opacity:1"/><stop offset=".789" style="stop-color:#f36318;stop-opacity:1"/><stop offset=".793" style="stop-color:#f36318;stop-opacity:1"/><stop offset=".797" style="stop-color:#f36218;stop-opacity:1"/><stop offset=".801" style="stop-color:#f36118;stop-opacity:1"/><stop offset=".805" style="stop-color:#f36118;stop-opacity:1"/><stop offset=".809" style="stop-color:#f36019;stop-opacity:1"/><stop offset=".813" style="stop-color:#f35f19;stop-opacity:1"/><stop offset=".816" style="stop-color:#f35f19;stop-opacity:1"/><stop offset=".82" style="stop-color:#f35e19;stop-opacity:1"/><stop offset=".824" style="stop-color:#f25d19;stop-opacity:1"/><stop offset=".828" style="stop-color:#f25c19;stop-opacity:1"/><stop offset=".832" style="stop-color:#f25c19;stop-opacity:1"/><stop offset=".836" style="stop-color:#f25b19;stop-opacity:1"/><stop offset=".84" style="stop-color:#f25a1a;stop-opacity:1"/><stop offset=".844" style="stop-color:#f25a1a;stop-opacity:1"/><stop offset=".848" style="stop-color:#f2591a;stop-opacity:1"/><stop offset=".852" style="stop-color:#f2581a;stop-opacity:1"/><stop offset=".855" style="stop-color:#f2581a;stop-opacity:1"/><stop offset=".859" style="stop-color:#f2571a;stop-opacity:1"/><stop offset=".867" style="stop-color:#f2571a;stop-opacity:1"/><stop offset=".871" style="stop-color:#f2561a;stop-opacity:1"/><stop offset=".875" style="stop-color:#f2561a;stop-opacity:1"/><stop offset=".879" style="stop-color:#f2551a;stop-opacity:1"/><stop offset=".883" style="stop-color:#f2541b;stop-opacity:1"/><stop offset=".887" style="stop-color:#f2541b;stop-opacity:1"/><stop offset=".891" style="stop-color:#f2531b;stop-opacity:1"/><stop offset=".895" style="stop-color:#f2521b;stop-opacity:1"/><stop offset=".898" style="stop-color:#f2521b;stop-opacity:1"/><stop offset=".902" style="stop-color:#f1511b;stop-opacity:1"/><stop offset=".906" style="stop-color:#f1511b;stop-opacity:1"/><stop offset=".91" style="stop-color:#f1501b;stop-opacity:1"/><stop offset=".914" style="stop-color:#f14f1b;stop-opacity:1"/><stop offset=".918" style="stop-color:#f14f1b;stop-opacity:1"/><stop offset=".922" style="stop-color:#f14e1c;stop-opacity:1"/><stop offset=".926" style="stop-color:#f14e1c;stop-opacity:1"/><stop offset=".93" style="stop-color:#f14d1c;stop-opacity:1"/><stop offset=".934" style="stop-color:#f14c1c;stop-opacity:1"/><stop offset=".938" style="stop-color:#f14c1c;stop-opacity:1"/><stop offset=".941" style="stop-color:#f14b1c;stop-opacity:1"/><stop offset=".945" style="stop-color:#f14a1c;stop-opacity:1"/><stop offset=".949" style="stop-color:#f14a1c;stop-opacity:1"/><stop offset=".953" style="stop-color:#f1491c;stop-opacity:1"/><stop offset=".961" style="stop-color:#f1491c;stop-opacity:1"/><stop offset=".965" style="stop-color:#f1481d;stop-opacity:1"/><stop offset=".969" style="stop-color:#f1481d;stop-opacity:1"/><stop offset=".973" style="stop-color:#f1471d;stop-opacity:1"/><stop offset=".977" style="stop-color:#f1461d;stop-opacity:1"/><stop offset=".98" style="stop-color:#f1461d;stop-opacity:1"/><stop offset=".984" style="stop-color:#f0451d;stop-opacity:1"/><stop offset=".988" style="stop-color:#f0441d;stop-opacity:1"/><stop offset=".992" style="stop-color:#f0441d;stop-opacity:1"/><stop offset=".996" style="stop-color:#f0431d;stop-opacity:1"/><stop offset="1" style="stop-color:#f0431e;stop-opacity:1"/></linearGradient></defs><path d="M52.734 17.941h-.125c-.261 1.043-1.855 1.223-3.078 1.223-2.445 0-3.875-.422-3.875-2.371 0-1.828 1.348-2.395 3.875-2.395 1 0 2.532-.015 2.918.856h.16V14.05c0-.715-.058-1.164-1.59-1.164-.874 0-1.425.144-1.425.828h-3.508c0-2.367 2.426-2.352 4.934-2.352 3.59 0 5.101.32 5.101 2.946v4.765H52.61Zm-3.57-1.218c0 .824 1 .824 1.527.824 1.47 0 1.918-.129 1.918-.926 0-.64-.773-.7-1.918-.7-.855 0-1.527.102-1.527.802M61.625 10.098h-3.508V8.18h3.508Zm0 8.976h-3.508V11.45h3.508zM69.316 14.414c0-.539.04-1.133-.921-1.133-1.06 0-1.301.594-1.301 1.219v4.574h-3.508V11.45h3.402v1.117h.145c.469-.87 1.387-1.203 2.691-1.203 2.45 0 2.653 1.422 2.653 2.817v.593h-3.16zM90.973 16.023c0 1.426-.348 2.207-1.18 2.63-.816.437-2.102.511-4 .511-4.14 0-5.117-.887-5.117-3.894 0-2.586.734-3.907 5.117-3.907 3.082 0 5.18.23 5.18 2.946h-3.508c.023-.407-.04-.653-.285-.813-.243-.156-.653-.215-1.387-.215-1.246 0-1.61.246-1.61 1.989 0 1.785.286 1.976 1.61 1.976 1.594 0 1.672-.277 1.672-1.223zM99.316 17.941h-.12c-.27 1.043-1.86 1.223-3.083 1.223-2.449 0-3.875-.422-3.875-2.371 0-1.828 1.348-2.395 3.875-2.395 1 0 2.528-.015 2.918.856h.164V14.05c0-.715-.062-1.164-1.593-1.164-.875 0-1.426.144-1.426.828h-3.508c0-2.367 2.426-2.352 4.934-2.352 3.59 0 5.101.32 5.101 2.946v4.765h-3.508Zm-3.57-1.218c0 .824 1 .824 1.531.824 1.47 0 1.918-.129 1.918-.926 0-.64-.777-.7-1.918-.7-.855 0-1.53.102-1.53.802M108.535 19.074h-3.508V8.18h3.508zM120.79 16.535c0 1.145-.528 1.8-1.446 2.18-.918.36-2.223.445-3.774.445-4.222 0-5.242-1.043-5.242-3.89 0-2.934.942-3.907 5.242-3.907 4.02 0 5.22.797 5.22 3.907v.421h-6.954c0 1.336.285 1.727 1.734 1.727 1.082 0 1.774-.086 1.774-.883Zm-2.63-6.828-4.61 1.031-.57-.898 4.16-1.746Zm-.879 4.605c0-1.132-.59-1.207-1.773-1.207-1.242 0-1.63.204-1.672 1.207zM132.805 19.074h-3.508l.082-1.32h-.164c-.406 1.148-1.528 1.41-3.063 1.41-2.586 0-4.054-.785-4.054-2.805v-1.742c0-2.324 1.12-3.254 4.054-3.254 1.29 0 2.41.188 2.98 1.176h.165V8.18h3.508Zm-5.407-1.828c1.45 0 1.899-.246 1.899-1.976 0-1.48-.043-1.989-1.899-1.989-1.753 0-1.793.477-1.793 1.989 0 1.859.329 1.976 1.793 1.976M145.309 15.27c0 3.136-.918 3.89-5.368 3.89-4.382 0-5.343-.84-5.343-3.89 0-3.122.879-3.907 5.343-3.907 4.493 0 5.368.684 5.368 3.907m-7.204 0c0 1.656.208 1.976 1.899 1.976 1.629 0 1.797-.32 1.797-1.976 0-1.657-.168-1.989-1.797-1.989-1.691 0-1.899.332-1.899 1.989M150.672 11.45v1.421h.14c.512-1.203 1.551-1.508 3.204-1.508 2.367 0 3.449.797 3.449 2.442v5.27h-3.512v-4.692c-.02-.738-.305-1.102-1.45-1.102-1.565 0-1.831.668-1.831 1.598v4.195h-3.512V11.45zM163.012 10.098H159.5V8.18h3.512Zm0 8.976H159.5V11.45h3.512z" style="stroke:none;fill-rule:nonzero;fill:#365eb4;fill-opacity:1"/><g clip-path="url(#a)"><path d="M174.941 16.535c0 1.145-.53 1.8-1.449 2.18-.918.36-2.222.445-3.773.445-4.223 0-5.242-1.043-5.242-3.89 0-2.934.937-3.907 5.242-3.907 4.02 0 5.222.797 5.222 3.907v.421h-6.957c0 1.336.286 1.727 1.735 1.727 1.082 0 1.773-.086 1.773-.883Zm-3.507-2.222c0-1.133-.59-1.208-1.778-1.208-1.242 0-1.629.204-1.672 1.207z" style="stroke:none;fill-rule:nonzero;fill:#365eb4;fill-opacity:1"/></g><g clip-path="url(#b)"><g clip-path="url(#c)"><path d="M46.2 12.602H-1.81v-.286H46.2Zm.003.617H-1.809v-.29h48.012ZM46.2 59.566H-1.809v-.285H46.2z" style="stroke:none;fill-rule:nonzero;fill:#fff;fill-opacity:1"/></g></g><g clip-path="url(#d)"><g clip-path="url(#e)"><path d="M46.203 13.836H-1.805v-.285h48.008z" style="stroke:none;fill-rule:nonzero;fill:#fff;fill-opacity:1"/></g></g><g clip-path="url(#f)"><g clip-path="url(#g)"><path d="M46.207 14.453H-1.805v-.285h48.012z" style="stroke:none;fill-rule:nonzero;fill:#fff;fill-opacity:1"/></g></g><g clip-path="url(#h)"><g clip-path="url(#i)"><path d="M46.207 15.07H-1.805v-.285h48.012z" style="stroke:none;fill-rule:nonzero;fill:#fff;fill-opacity:1"/></g></g><g clip-path="url(#j)"><g clip-path="url(#k)"><path d="M46.207 15.691H-1.801v-.289h48.008z" style="stroke:none;fill-rule:nonzero;fill:#fff;fill-opacity:1"/></g></g><g clip-path="url(#l)"><g clip-path="url(#m)"><path d="M46.207 16.309H-1.801v-.286h48.008zM46.21 16.926H-1.8v-.285h48.01z" style="stroke:none;fill-rule:nonzero;fill:#fff;fill-opacity:1"/></g></g><g clip-path="url(#n)"><g clip-path="url(#o)"><path d="M46.21 17.543H-1.796v-.285h48.008z" style="stroke:none;fill-rule:nonzero;fill:#fff;fill-opacity:1"/></g></g><g clip-path="url(#p)"><g clip-path="url(#q)"><path d="M46.21 18.16H-1.796v-.285h48.008z" style="stroke:none;fill-rule:nonzero;fill:#fff;fill-opacity:1"/></g></g><g clip-path="url(#r)"><g clip-path="url(#s)"><path d="M46.215 18.777H-1.793v-.285h48.008z" style="stroke:none;fill-rule:nonzero;fill:#fff;fill-opacity:1"/></g></g><g clip-path="url(#t)"><g clip-path="url(#u)"><path d="M46.215 19.398H-1.793v-.285h48.008z" style="stroke:none;fill-rule:nonzero;fill:#fff;fill-opacity:1"/></g></g><g clip-path="url(#v)"><g clip-path="url(#w)"><path d="M46.215 20.016H-1.793v-.286h48.008z" style="stroke:none;fill-rule:nonzero;fill:#fff;fill-opacity:1"/></g></g><g clip-path="url(#x)"><g clip-path="url(#y)"><path d="M46.219 20.633H-1.793v-.285h48.012z" style="stroke:none;fill-rule:nonzero;fill:#fff;fill-opacity:1"/></g></g><g clip-path="url(#z)"><g clip-path="url(#A)"><path d="M46.219 21.25H-1.79v-.285h48.008z" style="stroke:none;fill-rule:nonzero;fill:#fff;fill-opacity:1"/></g></g><g clip-path="url(#B)"><g clip-path="url(#C)"><path d="M46.223 21.867H-1.79v-.285h48.012z" style="stroke:none;fill-rule:nonzero;fill:#fff;fill-opacity:1"/></g></g><g clip-path="url(#D)"><g clip-path="url(#E)"><path d="M46.223 22.488H-1.785v-.285h48.008z" style="stroke:none;fill-rule:nonzero;fill:#fff;fill-opacity:1"/></g></g><g clip-path="url(#F)"><g clip-path="url(#G)"><path d="M46.223 23.105H-1.785v-.285h48.008z" style="stroke:none;fill-rule:nonzero;fill:#fff;fill-opacity:1"/></g></g><g clip-path="url(#H)"><g clip-path="url(#I)"><path d="M46.223 23.723H-1.785v-.285h48.008z" style="stroke:none;fill-rule:nonzero;fill:#fff;fill-opacity:1"/></g></g><g clip-path="url(#J)"><g clip-path="url(#K)"><path d="M46.227 24.34H-1.781v-.285h48.008zM46.227 24.957H-1.781v-.285h48.008z" style="stroke:none;fill-rule:nonzero;fill:#fff;fill-opacity:1"/></g></g><g clip-path="url(#L)"><g clip-path="url(#M)"><path d="M46.2 58.902H-1.81v-.285H46.2z" style="stroke:none;fill-rule:nonzero;fill:#fff;fill-opacity:1"/></g></g><g clip-path="url(#N)"><g clip-path="url(#O)"><path d="M46.203 58.234H-1.809v-.285h48.012z" style="stroke:none;fill-rule:nonzero;fill:#fff;fill-opacity:1"/></g></g><g clip-path="url(#P)"><g clip-path="url(#Q)"><path d="M46.203 57.57H-1.809v-.285h48.012z" style="stroke:none;fill-rule:nonzero;fill:#fff;fill-opacity:1"/></g></g><g clip-path="url(#R)"><g clip-path="url(#S)"><path d="M46.203 56.906H-1.809v-.289h48.012z" style="stroke:none;fill-rule:nonzero;fill:#fff;fill-opacity:1"/></g></g><g clip-path="url(#T)"><g clip-path="url(#U)"><path d="M46.203 56.238H-1.805v-.289h48.008z" style="stroke:none;fill-rule:nonzero;fill:#fff;fill-opacity:1"/></g></g><g clip-path="url(#V)"><g clip-path="url(#W)"><path d="M46.207 55.57H-1.805v-.285h48.012z" style="stroke:none;fill-rule:nonzero;fill:#fff;fill-opacity:1"/></g></g><g clip-path="url(#X)"><g clip-path="url(#Y)"><path d="M46.207 54.902H-1.805v-.285h48.012z" style="stroke:none;fill-rule:nonzero;fill:#fff;fill-opacity:1"/></g></g><g clip-path="url(#Z)"><g clip-path="url(#aa)"><path d="M46.207 54.238H-1.801v-.289h48.008z" style="stroke:none;fill-rule:nonzero;fill:#fff;fill-opacity:1"/></g></g><g clip-path="url(#ab)"><g clip-path="url(#ac)"><path d="M46.207 53.57H-1.801v-.285h48.008z" style="stroke:none;fill-rule:nonzero;fill:#fff;fill-opacity:1"/></g></g><g clip-path="url(#ad)"><g clip-path="url(#ae)"><path d="M46.207 52.906H-1.805v-.289h48.012z" style="stroke:none;fill-rule:nonzero;fill:#fff;fill-opacity:1"/></g></g><g clip-path="url(#af)"><g clip-path="url(#ag)"><path d="M46.207 52.238H-1.801v-.289h48.008z" style="stroke:none;fill-rule:nonzero;fill:#fff;fill-opacity:1"/></g></g><g clip-path="url(#ah)"><g clip-path="url(#ai)"><path d="M46.207 51.57H-1.801v-.285h48.008z" style="stroke:none;fill-rule:nonzero;fill:#fff;fill-opacity:1"/></g></g><g clip-path="url(#aj)"><g clip-path="url(#ak)"><path d="M46.207 50.906H-1.801v-.289h48.008z" style="stroke:none;fill-rule:nonzero;fill:#fff;fill-opacity:1"/></g></g><g clip-path="url(#al)"><g clip-path="url(#am)"><path d="M46.207 50.238H-1.801v-.289h48.008z" style="stroke:none;fill-rule:nonzero;fill:#fff;fill-opacity:1"/></g></g><g clip-path="url(#an)"><g clip-path="url(#ao)"><path d="M46.207 49.57H-1.801v-.285h48.008z" style="stroke:none;fill-rule:nonzero;fill:#fff;fill-opacity:1"/></g></g><g clip-path="url(#ap)"><g clip-path="url(#aq)"><path d="M46.21 48.906H-1.8v-.285h48.01z" style="stroke:none;fill-rule:nonzero;fill:#fff;fill-opacity:1"/></g></g><g clip-path="url(#ar)"><g clip-path="url(#as)"><path d="M46.21 48.238H-1.8v-.285h48.01z" style="stroke:none;fill-rule:nonzero;fill:#fff;fill-opacity:1"/></g></g><g clip-path="url(#at)"><g clip-path="url(#au)"><path d="M46.21 47.57H-1.796v-.285h48.008z" style="stroke:none;fill-rule:nonzero;fill:#fff;fill-opacity:1"/></g></g><g clip-path="url(#av)"><g clip-path="url(#aw)"><path d="M46.21 46.906H-1.796v-.285h48.008z" style="stroke:none;fill-rule:nonzero;fill:#fff;fill-opacity:1"/></g></g><g clip-path="url(#ax)"><g clip-path="url(#ay)"><path d="M46.21 46.238H-1.796v-.285h48.008z" style="stroke:none;fill-rule:nonzero;fill:#fff;fill-opacity:1"/></g></g><g clip-path="url(#az)"><g clip-path="url(#aA)"><path d="M46.21 45.57H-1.796v-.285h48.008z" style="stroke:none;fill-rule:nonzero;fill:#fff;fill-opacity:1"/></g></g><g clip-path="url(#aB)"><g clip-path="url(#aC)"><path d="M46.21 44.906H-1.796v-.285h48.008z" style="stroke:none;fill-rule:nonzero;fill:#fff;fill-opacity:1"/></g></g><g clip-path="url(#aD)"><g clip-path="url(#aE)"><path d="M46.21 44.238H-1.796v-.285h48.008z" style="stroke:none;fill-rule:nonzero;fill:#fff;fill-opacity:1"/></g></g><g clip-path="url(#aF)"><g clip-path="url(#aG)"><path d="M46.215 43.574H-1.793v-.289h48.008z" style="stroke:none;fill-rule:nonzero;fill:#fff;fill-opacity:1"/></g></g><g clip-path="url(#aH)"><g clip-path="url(#aI)"><path d="M46.215 42.906H-1.793v-.285h48.008z" style="stroke:none;fill-rule:nonzero;fill:#fff;fill-opacity:1"/></g></g><g clip-path="url(#aJ)"><g clip-path="url(#aK)"><path d="M46.215 42.238H-1.793v-.281h48.008z" style="stroke:none;fill-rule:nonzero;fill:#fff;fill-opacity:1"/></g></g><g clip-path="url(#aL)"><g clip-path="url(#aM)"><path d="M46.215 41.574H-1.793v-.289h48.008z" style="stroke:none;fill-rule:nonzero;fill:#fff;fill-opacity:1"/></g></g><g clip-path="url(#aN)"><g clip-path="url(#aO)"><path d="M46.215 40.906H-1.793v-.285h48.008z" style="stroke:none;fill-rule:nonzero;fill:#fff;fill-opacity:1"/></g></g><g clip-path="url(#aP)"><g clip-path="url(#aQ)"><path d="M46.215 40.238H-1.793v-.281h48.008z" style="stroke:none;fill-rule:nonzero;fill:#fff;fill-opacity:1"/></g></g><g clip-path="url(#aR)"><g clip-path="url(#aS)"><path d="M46.219 39.574H-1.793v-.289h48.012z" style="stroke:none;fill-rule:nonzero;fill:#fff;fill-opacity:1"/></g></g><g clip-path="url(#aT)"><g clip-path="url(#aU)"><path d="M46.219 38.906H-1.793v-.285h48.012z" style="stroke:none;fill-rule:nonzero;fill:#fff;fill-opacity:1"/></g></g><g clip-path="url(#aV)"><g clip-path="url(#aW)"><path d="M46.219 38.238H-1.793v-.285h48.012z" style="stroke:none;fill-rule:nonzero;fill:#fff;fill-opacity:1"/></g></g><g clip-path="url(#aX)"><g clip-path="url(#aY)"><path d="M46.219 37.574H-1.79v-.289h48.008z" style="stroke:none;fill-rule:nonzero;fill:#fff;fill-opacity:1"/></g></g><g clip-path="url(#aZ)"><g clip-path="url(#ba)"><path d="M46.219 36.906H-1.79v-.285h48.008z" style="stroke:none;fill-rule:nonzero;fill:#fff;fill-opacity:1"/></g></g><g clip-path="url(#bb)"><g clip-path="url(#bc)"><path d="M46.219 36.238H-1.79v-.285h48.008z" style="stroke:none;fill-rule:nonzero;fill:#fff;fill-opacity:1"/></g></g><g clip-path="url(#bd)"><g clip-path="url(#be)"><path d="M46.219 35.574H-1.79v-.289h48.008z" style="stroke:none;fill-rule:nonzero;fill:#fff;fill-opacity:1"/></g></g><g clip-path="url(#bf)"><g clip-path="url(#bg)"><path d="M46.223 34.906H-1.79v-.285h48.012z" style="stroke:none;fill-rule:nonzero;fill:#fff;fill-opacity:1"/></g></g><g clip-path="url(#bh)"><g clip-path="url(#bi)"><path d="M46.223 34.242H-1.79v-.285h48.012z" style="stroke:none;fill-rule:nonzero;fill:#fff;fill-opacity:1"/></g></g><g clip-path="url(#bj)"><g clip-path="url(#bk)"><path d="M46.223 33.574H-1.785v-.285h48.008z" style="stroke:none;fill-rule:nonzero;fill:#fff;fill-opacity:1"/></g></g><g clip-path="url(#bl)"><g clip-path="url(#bm)"><path d="M46.223 32.906H-1.785v-.285h48.008z" style="stroke:none;fill-rule:nonzero;fill:#fff;fill-opacity:1"/></g></g><g clip-path="url(#bn)"><g clip-path="url(#bo)"><path d="M46.223 32.242H-1.785v-.285h48.008z" style="stroke:none;fill-rule:nonzero;fill:#fff;fill-opacity:1"/></g></g><g clip-path="url(#bp)"><g clip-path="url(#bq)"><path d="M46.223 31.574H-1.785v-.285h48.008z" style="stroke:none;fill-rule:nonzero;fill:#fff;fill-opacity:1"/></g></g><g clip-path="url(#br)"><g clip-path="url(#bs)"><path d="M46.223 30.906H-1.785v-.285h48.008z" style="stroke:none;fill-rule:nonzero;fill:#fff;fill-opacity:1"/></g></g><g clip-path="url(#bt)"><g clip-path="url(#bu)"><path d="M46.227 30.242H-1.785v-.285h48.012z" style="stroke:none;fill-rule:nonzero;fill:#fff;fill-opacity:1"/></g></g><g clip-path="url(#bv)"><g clip-path="url(#bw)"><path d="M46.227 29.574H-1.785v-.285h48.012z" style="stroke:none;fill-rule:nonzero;fill:#fff;fill-opacity:1"/></g></g><g clip-path="url(#bx)"><g clip-path="url(#by)"><path d="M46.227 28.91H-1.785v-.289h48.012z" style="stroke:none;fill-rule:nonzero;fill:#fff;fill-opacity:1"/></g></g><g clip-path="url(#bz)"><g clip-path="url(#bA)"><path d="M46.227 28.242H-1.781v-.285h48.008z" style="stroke:none;fill-rule:nonzero;fill:#fff;fill-opacity:1"/></g></g><g clip-path="url(#bB)"><g clip-path="url(#bC)"><path d="M46.227 27.574H-1.781v-.285h48.008z" style="stroke:none;fill-rule:nonzero;fill:#fff;fill-opacity:1"/></g></g><g clip-path="url(#bD)"><g clip-path="url(#bE)"><path d="M46.227 26.91H-1.781v-.285h48.008z" style="stroke:none;fill-rule:nonzero;fill:#fff;fill-opacity:1"/></g></g><g clip-path="url(#bF)"><g clip-path="url(#bG)"><path d="M46.227 26.242H-1.781v-.285h48.008z" style="stroke:none;fill-rule:nonzero;fill:#fff;fill-opacity:1"/></g></g><g clip-path="url(#bH)"><g clip-path="url(#bI)"><path d="M46.227 25.578H-1.781v-.289h48.008z" style="stroke:none;fill-rule:nonzero;fill:#fff;fill-opacity:1"/></g></g><path d="M14.656 23.105c-.004 3.727 5.637 1.438 7.309 3.56l.14.737c-2.277-.968-5 1.118-7.078-.82-.414.484-.62 1.04-.48 1.66 1.656 2.074 6.297-1.004 7.457 1.77-2 .496-4.484-.11-6.836.027-.426.121-.711.258-.797.652-.05.5.07.801.313 1.215 2.492-.898 4.98.207 7.468.348-1.66 1.937-5.187.207-7.332 1.453-.472.465-.62 1.383-.273 2.004 1.933-.414 4.476-1.168 6.68-.918-.274 3.39-4.606 2.992-6.68 4.238 1.453 1.73 4.148.207 6.086.692-.899 1.59-1.867 3.113-2.285 4.98 1.988 1.727 3.683 1.488 4.117 1.488.433 0 2.465.118 3.976-1.347-.347-1.871-1.039-3.602-2.144-5.121 2.074-.621 4.914 1.18 6.156-.692-1.039-.554-2.281-.554-3.32-.968-1.867-.208-2.211-2.06-3.18-3.231 2.418-.555 4.633.672 6.637.879.14-4.84-5.461-.898-7.606-3.457 2.559-.14 5.118-1.246 7.606-.348-.067-.484.277-1.246-.277-1.52-2.489-.624-4.692.442-7.25-.39 1.59-2.008 4.207-.234 6.558-.785.969-.07 1.117-1.406.98-2.234-1.824 1.882-5.128-.38-7.48.433.14-.207.14-.484.344-.691 1.687-2.137 7.45.25 7.348-3.614z" style="stroke:none;fill-rule:nonzero;fill:#fff;fill-opacity:1"/><path d="M18.508 44.648c1.097.938 2.277 1.41 3.504 1.41q.18 0 .304-.007.09-.005.149-.004l.273.004c1.442 0 2.668-.438 3.551-1.258-.363-1.883-1.07-3.559-2.11-4.988a.14.14 0 0 1-.019-.13.14.14 0 0 1 .094-.09c.324-.097.68-.144 1.094-.144.554 0 1.132.086 1.687.168.543.082 1.05.157 1.527.157.782 0 1.31-.215 1.68-.684-.535-.25-1.125-.375-1.703-.492-.484-.106-.984-.207-1.441-.387-1.383-.164-1.965-1.18-2.532-2.164-.222-.387-.449-.785-.726-1.121a.14.14 0 0 1 .078-.227c.43-.097.863-.148 1.328-.148 1.133 0 2.2.289 3.234.566.688.184 1.34.36 1.97.442.003-.809-.169-1.38-.52-1.742-.367-.38-.95-.547-1.88-.547-.363 0-.738.02-1.132.047-.402.023-.82.046-1.227.046-.918 0-2.066-.113-2.816-1.011a.14.14 0 0 1-.023-.145.15.15 0 0 1 .125-.09c.828-.043 1.675-.195 2.492-.34.98-.175 1.996-.355 2.988-.355.723 0 1.375.098 1.98.29.004-.106.016-.216.028-.321.047-.442.058-.727-.203-.863a7.2 7.2 0 0 0-1.785-.2c-.516 0-1.04.04-1.543.075-.512.039-1.043.074-1.575.074-.882 0-1.629-.106-2.343-.336-.043-.02-.078-.051-.09-.098a.13.13 0 0 1 .023-.129c.563-.707 1.305-1.039 2.336-1.039.512 0 1.035.074 1.586.153.559.078 1.137.16 1.7.16.374 0 .706-.035 1.019-.11a.77.77 0 0 0 .582-.3c.281-.36.363-.97.32-1.5-.504.421-1.137.62-1.957.62-.664 0-1.387-.132-2.086-.257-.707-.13-1.433-.262-2.105-.262-.45 0-.832.055-1.176.176a.14.14 0 0 1-.16-.05.135.135 0 0 1-.004-.165 1 1 0 0 0 .11-.25c.05-.148.109-.316.25-.465.738-.933 2.206-1.035 3.632-1.137 1.875-.132 3.649-.257 3.676-2.23H14.8c.082 1.883 1.82 2.016 3.656 2.16 1.414.11 2.875.223 3.621 1.164a.2.2 0 0 1 .027.063l.141.738a.14.14 0 0 1-.047.14.16.16 0 0 1-.148.02c-.41-.176-.88-.262-1.426-.262-.527 0-1.078.079-1.613.157-.54.074-1.098.156-1.637.156-.953 0-1.7-.254-2.332-.8-.34.444-.461.913-.363 1.39.398.48.992.695 1.93.695.492 0 1.03-.058 1.55-.117.524-.059 1.067-.117 1.567-.117.863 0 1.918.148 2.406 1.32a.15.15 0 0 1-.004.121.15.15 0 0 1-.094.074c-.555.137-1.176.2-1.95.2-.655 0-1.32-.047-2.023-.094-.699-.047-1.421-.098-2.132-.098-.262 0-.504.008-.739.02-.398.117-.613.234-.68.539-.042.406.044.668.239 1.011a6.4 6.4 0 0 1 2.055-.316c.984 0 1.976.18 2.941.36.793.14 1.613.292 2.414.335a.15.15 0 0 1 .125.09.15.15 0 0 1-.023.149c-.785.914-1.95 1.043-3.086 1.043-.309 0-.621-.012-.934-.024-.312-.008-.625-.02-.933-.02-.782 0-1.672.06-2.403.477-.402.406-.523 1.184-.281 1.723q.464-.1.969-.219c1.469-.34 3.133-.726 4.71-.726.329 0 .645.015.938.05a.137.137 0 0 1 .125.153c-.195 2.422-2.398 2.996-4.347 3.504-.836.222-1.63.425-2.25.757.453.465 1.05.672 1.906.672.48 0 1-.066 1.5-.129.512-.062 1.039-.129 1.539-.129.36 0 .668.036.95.106.046.008.081.039.097.078.02.043.015.09-.008.129-.113.203-.227.402-.344.605-.789 1.38-1.539 2.68-1.902 4.25m3.504 1.696c-1.32 0-2.586-.516-3.758-1.535a.15.15 0 0 1-.043-.141c.367-1.648 1.172-3.055 1.953-4.41.082-.149.164-.29.246-.438-.601-.105-1.43-.023-2.2.075-.507.066-1.034.132-1.534.132-1.008 0-1.723-.289-2.238-.906a.14.14 0 0 1-.032-.113.14.14 0 0 1 .067-.102c.672-.398 1.547-.629 2.476-.87 1.903-.5 3.871-1.013 4.121-3.114a8 8 0 0 0-.765-.035c-1.547 0-3.196.383-4.649.718-.375.086-.738.172-1.082.243a.134.134 0 0 1-.152-.067c-.367-.66-.23-1.652.297-2.176a.1.1 0 0 1 .027-.02c.79-.46 1.738-.519 2.563-.519q.469.001.945.02c.308.008.617.016.922.016.969 0 1.957-.09 2.66-.727-.719-.062-1.441-.195-2.14-.324-.954-.172-1.934-.352-2.891-.352a6.1 6.1 0 0 0-2.075.34c-.062.027-.132 0-.168-.062-.257-.434-.39-.77-.332-1.305.11-.508.504-.656.899-.77q.013-.005.031-.004.361-.023.77-.023c.718 0 1.445.05 2.152.098.7.05 1.36.093 2.004.093.672 0 1.223-.046 1.71-.152-.347-.687-.995-.992-2.07-.992-.484 0-1.019.058-1.535.117-.527.059-1.074.117-1.582.117-.652 0-1.582-.086-2.175-.824a.2.2 0 0 1-.028-.059c-.136-.625.035-1.226.512-1.785a.15.15 0 0 1 .102-.05c.039 0 .078.011.105.039.602.562 1.316.82 2.25.82.52 0 1.066-.074 1.598-.152.543-.075 1.105-.157 1.652-.157.484 0 .906.063 1.293.192l-.086-.453c-.676-.825-2.059-.93-3.398-1.032-1.926-.152-3.922-.304-3.918-2.59a.14.14 0 0 1 .14-.14h16.157c.078 0 .144.062.144.137.063 2.378-1.973 2.523-3.941 2.664-1.364.093-2.77.195-3.438 1.043-.11.109-.152.234-.195.367q-.005.006-.004.012.433-.104.965-.102c.699 0 1.437.133 2.156.266.719.128 1.395.253 2.035.253.86 0 1.48-.23 1.961-.73a.16.16 0 0 1 .149-.035.14.14 0 0 1 .097.113c.098.59.067 1.469-.344 1.992q-.298.376-.765.407a4.6 4.6 0 0 1-1.063.113c-.582 0-1.172-.082-1.738-.164-.543-.074-1.059-.149-1.547-.149-.867 0-1.484.239-1.973.77.622.18 1.278.262 2.047.262.52 0 1.047-.036 1.551-.075.512-.035 1.04-.074 1.567-.074.703 0 1.296.067 1.87.211.012 0 .02.008.032.012.469.234.414.746.371 1.152-.02.164-.035.313-.023.442a.14.14 0 0 1-.129.195h-.008c-.016 0-.031 0-.047-.008a6.1 6.1 0 0 0-2.086-.34c-.969 0-1.969.18-2.937.352-.727.129-1.477.265-2.223.324.676.61 1.621.695 2.394.695.399 0 .809-.023 1.207-.047.403-.027.782-.05 1.153-.05.683 0 1.539.074 2.082.636.433.442.629 1.133.601 2.106a.15.15 0 0 1-.05.101.13.13 0 0 1-.11.036c-.699-.07-1.414-.262-2.168-.465-1.015-.274-2.066-.555-3.16-.555-.363 0-.703.027-1.039.09.223.305.418.648.61.976.554.97 1.081 1.883 2.331 2.02l.04.012c.437.175.91.273 1.41.379.648.136 1.32.273 1.925.597.036.016.059.051.07.09.009.04 0 .082-.019.113-.43.645-1.066.942-2.012.942-.496 0-1.015-.078-1.566-.156-.547-.083-1.113-.168-1.648-.168-.301 0-.57.027-.817.082 1.012 1.445 1.703 3.125 2.051 5.007a.16.16 0 0 1-.039.13c-.941.91-2.254 1.39-3.805 1.39l-.273-.004c-.035 0-.082.004-.137.004a7 7 0 0 1-.316.008" style="stroke:none;fill-rule:nonzero;fill:#fff;fill-opacity:1"/><g clip-path="url(#bJ)"><g clip-path="url(#bK)"><g clip-path="url(#bL)"><path d="M45.363 13.629H0v45.363h45.363Zm0 0" style="stroke:none;fill-rule:nonzero;fill:url(#bM)"/></g></g></g><path d="M31.695 43.277c.489 1.313-.75 2.04-1.648 2.801-2.793 1.668-3.426 2.61-7.317 3.402-3.957-.734-6.863-2.78-9.285-4.714-.207-.418-.207-.973-.207-1.524 7.575 4.145 11.153 4.25 18.457.035" style="stroke:none;fill-rule:nonzero;fill:#211c1d;fill-opacity:1"/><path d="M26.992 48.645c2.008 2.558 3.547 5.667 3.477 9.054-4.813 1.89-11.668 1.656-16.23-.418-.137-3.39 1.827-6.008 3.624-8.636 2.559 1.66 6.5 1.66 9.13 0M22.492 0c.102 4.676-.484 8.844-.691 13.27-.668 1.554-4.871 2.335-5.977 5.03-.758 2.009-.601 1.47-1.066 3.837-.074.36-.13.66-.13.945 0 3.727 5.688 1.465 7.36 3.582l.125.758c-2.281-.969-5.031 1.121-7.105-.82-.414.488-.578 1.015-.442 1.636 1.66 2.078 6.262-1.015 7.422 1.762-1.996.492-4.441-.078-6.793.063-.422.12-.73.238-.816.628-.055.5.07.782.316 1.196 2.489-.903 4.993.238 7.48.379-1.66 1.933-5.21.195-7.355 1.445-.472.465-.601 1.39-.254 2.012 1.938-.414 4.465-1.192 6.668-.942-.273 3.387-4.59 3.028-6.668 4.274 1.457 1.726 4.102.21 6.04.691-.899 1.594-1.848 3.102-2.266 4.969 1.988 1.734 3.719 1.445 4.152 1.445s2.45.149 3.961-1.316c-.348-1.871-1.031-3.574-2.137-5.098 2.075-.621 4.918 1.18 6.164-.691-1.039-.551-2.296-.59-3.335-1.008-1.868-.203-2.239-2.031-3.207-3.203 2.421-.555 4.664.672 6.667.879.141-4.84-5.464-.899-7.609-3.457 2.559-.141 5.121-1.282 7.61-.38-.067-.484.238-1.234-.317-1.507-2.488-.625-4.672.453-7.23-.379 1.59-2.008 4.187-.27 6.539-.82.968-.067 1.144-1.371 1.007-2.2-1.824 1.883-5.132-.37-7.484.442.137-.207.11-.485.313-.692 1.687-2.14 7.46.211 7.359-3.648-.008-.258.004-.5-.063-.816-.464-2.371-.37-1.832-1.132-3.84-1.102-2.696-5.246-3.54-5.91-5.094-.415-4.36-.594-6.762-.567-13.332z" style="stroke:none;fill-rule:nonzero;fill:#211c1d;fill-opacity:1"/></svg>