<svg xmlns="http://www.w3.org/2000/svg" width="176pt" height="53.027" viewBox="0 0 176 39.77"><defs><clipPath id="a"><path d="M0 2h37v37.77H0Zm0 0"/></clipPath><clipPath id="b"><path d="M17 0h43v39.77H17Zm0 0"/></clipPath></defs><g clip-path="url(#a)"><path d="M.043 27.719s-.758-4.61 3.996-4.266c0 0 2.863.348 5.64 2.75 0 0 2.583 2.137 4.887-2.816 0 0 2.493-10.098 5.375-13.903 2.168-2.867 8.739-8.32 16.309-7.082 0 0-13.785 7.141-12.98 23.328.69 2.657 2.816 6.872 5.34 9.282 0 0-8.962 10.523-18.86.273l-5.367-6.95S2.94 26.169.938 27.169z" style="stroke:none;fill-rule:evenodd;fill:#c59f1c;fill-opacity:1"/></g><path d="M132.031 23.785c-.176 1.043-.508 1.774-1.02 2.2-.519.425-1.038.652-1.566.652-.379 0-.699-.106-.937-.305-.242-.207-.352-.477-.352-.828q.001-.5.5-.871c.336-.246 1.453-.528 3.375-.848m-71.433-1.437h2.5c.78 0 1.297.132 1.55.37.25.235.387.548.387.958 0 1.164-.883 1.742-2.629 1.742h-2.488Zm43.246-2.024c.418 0 .785.164 1.11.48.323.317.484.782.484 1.415 0 .902-.2 1.789-.614 2.652-.414.867-1.011 1.285-1.785 1.285-.426 0-.762-.16-1.02-.476-.261-.325-.394-.782-.394-1.395q-.002-1.642.652-2.808c.442-.774.961-1.153 1.567-1.153m-13.535 0c.414 0 .785.164 1.109.48.328.317.477.782.477 1.415a6 6 0 0 1-.61 2.652c-.41.867-1.012 1.285-1.781 1.285-.426 0-.762-.16-1.027-.476-.258-.325-.387-.782-.387-1.395q0-1.642.648-2.808c.442-.774.965-1.153 1.57-1.153m71.218-2.547-2.332 10.86h4.18l2.352-10.86Zm-89.132 0-1.266 5.813c-.281 1.328-.434 2.25-.434 2.719 0 .718.246 1.32.739 1.828.5.508 1.242.761 2.242.761 1.664 0 3.07-.656 4.203-1.957l.043.043-.371 1.653h3.918l2.328-10.86h-4.2l-1.019 4.703c-.234 1.075-.562 1.907-1.027 2.48-.457.571-1.004.872-1.633.872-.535 0-.805-.309-.805-.895v-.019c0-.188 0-.355.024-.48.02-.125.117-.57.281-1.348l1.156-5.313Zm102.168-.238c-.586 0-1.114.152-1.61.477q-.745.49-1.719 1.937l-.047-.043.485-2.133h-3.902l-2.325 10.86h4.2l.847-4.047c.274-1.266.656-2.195 1.156-2.766.5-.574 1.16-.87 1.957-.87.25 0 .528.058.852.132L176 17.863c-.512-.218-.988-.324-1.437-.324m-21.852 0h.043l.46 5.461h-3.093Zm-21.527 0c-1.887 0-3.286.266-4.18.824a3.8 3.8 0 0 0-1.738 2.395l3.894.414c.223-.492.488-.805.781-.957.301-.152.68-.238 1.157-.238.457 0 .836.097 1.109.261.277.16.41.38.41.653 0 .172-.047.414-.125.738-.406.125-1.215.242-2.422.371-1.355.137-2.414.297-3.195.48-.793.18-1.465.516-2.004 1.02q-.804.756-.805 2.2c0 .847.309 1.6.914 2.241.606.645 1.586.957 2.961.957 1.348 0 2.563-.5 3.657-1.5 0 .399.058.809.148 1.239h4.074c-.18-.512-.28-1.008-.28-1.5 0-.582.17-1.61.519-3.09q.567-2.35.566-3.375c0-1.024-.363-1.793-1.11-2.328-.745-.54-2.195-.805-4.331-.805m-69.41-.871h1.98c.73 0 1.207.102 1.453.305.254.203.395.504.395.87 0 .305-.114.606-.348.915-.227.3-.54.512-.91.61-.375.093-.89.128-1.57.128h-1.59Zm100.624-3.047-.59 2.871h4.18l.586-2.87Zm-11.472 0-8.488 15.016h5.003l1.157-2.457h4.898l.219 2.457h4.543l-2.39-15.016Zm-37.395 0-3.246 15.016h4.203l1.024-4.7c.23-1.085.566-1.925 1.023-2.503q.693-.87 1.61-.872c.55 0 .828.317.828.915 0 .18-.133.875-.395 2.113l-1.066 5.047h4.18l1.265-5.918c.27-1.285.41-2.157.41-2.59q0-1.09-.738-1.852c-.488-.504-1.219-.738-2.195-.738-1.563 0-2.844.52-3.856 1.566l-.043-.043 1.156-5.44Zm-6.136 0-1.2 5.594c-.777-1.14-1.93-1.7-3.46-1.7-1.497 0-2.743.676-3.72 2.047-.98 1.368-1.46 2.989-1.46 4.833 0 1.378.328 2.468.976 3.285.656.812 1.582 1.218 2.813 1.218.652 0 1.222-.093 1.695-.28.48-.192 1.023-.567 1.61-1.11l.023.062-.195 1.067h3.875l3.222-15.016Zm-13.54 0-1.199 5.594c-.777-1.14-1.93-1.7-3.457-1.7-1.5 0-2.742.676-3.722 2.047-.985 1.368-1.461 2.989-1.461 4.833 0 1.378.328 2.468.98 3.285.652.812 1.574 1.218 2.809 1.218q.984 0 1.699-.28c.469-.192 1.023-.567 1.61-1.11l.042.062-.219 1.067h3.88l3.218-15.016Zm-36.066 0-3.2 15.016h9.247c1.84 0 3.258-.469 4.246-1.434.992-.969 1.484-2.058 1.484-3.246 0-1.629-.812-2.672-2.418-3.152v-.047c.98-.301 1.704-.785 2.157-1.457a3.86 3.86 0 0 0 .652-2.156c0-.59-.129-1.133-.414-1.633a3.3 3.3 0 0 0-1.176-1.196 4.1 4.1 0 0 0-1.566-.566 16 16 0 0 0-2.09-.129z" style="stroke:none;fill-rule:evenodd;fill:#2d50aa;fill-opacity:1"/><g clip-path="url(#b)"><path d="M17.676 24.758s.168-4.188 3.113-4.188 4.758 3.793 8.332 3.793c3.567 0 4.531-7.87 5.043-9.968C34.672 12.293 38.012 0 53.204 0c0 0-12.013 7.031-12.013 21.309 0 14.277 16.493 17.566 18.243 17.566 0 0-3.743.45-6.516.45-2.777 0-8.613-.731-12.637-4.134-4.023-3.402-8.953-3.058-11.16-1.472 0 0-6.512-13.215-11.445-8.961" style="stroke:none;fill-rule:evenodd;fill:#bbbcbd;fill-opacity:1"/></g></svg>