<?xml version="1.0" encoding="UTF-8"?>
<svg xmlns="http://www.w3.org/2000/svg" xmlns:xlink="http://www.w3.org/1999/xlink" width="176pt" height="40.28pt" viewBox="0 0 176 40.28" version="1.1">
<defs>
<clipPath id="clip1">
  <path d="M 135 0 L 176 0 L 176 40.28125 L 135 40.28125 Z M 135 0 "/>
</clipPath>
</defs>
<g id="surface1">
<g clip-path="url(#clip1)" clip-rule="nonzero">
<path style=" stroke:none;fill-rule:nonzero;fill:rgb(16.308594%,23.577881%,57.775879%);fill-opacity:1;" d="M 148.898438 38.996094 C 148.441406 39.328125 147.859375 39.84375 147.152344 40.28125 L 149.746094 40.28125 C 149.746094 40.28125 149.179688 39.441406 148.898438 38.996094 M 139.242188 38.703125 C 138.085938 39.230469 136.925781 39.667969 135.710938 40.058594 L 135.710938 40.273438 L 140.125 40.273438 Z M 168.742188 32.894531 C 168.347656 34.929688 167.648438 37.453125 167.054688 39.25 C 166.984375 39.109375 166.921875 38.972656 166.855469 38.820312 C 166.582031 39.382812 166.160156 40.277344 166.160156 40.277344 L 167.109375 40.277344 C 167.933594 38.34375 168.507812 35.558594 168.742188 32.894531 M 168.621094 27.789062 C 168.53125 28.484375 168.476562 29.191406 168.351562 29.855469 L 168.132812 29.554688 C 167.894531 30.984375 167.546875 32.3125 167.054688 33.636719 L 167.398438 34.589844 C 167.117188 35.546875 166.757812 36.578125 166.296875 37.652344 C 166.191406 37.324219 165.988281 36.933594 165.800781 36.636719 C 165.179688 37.867188 164.445312 39.183594 163.710938 40.28125 L 165.5625 40.277344 C 166.574219 38.324219 167.367188 36.253906 167.945312 34.113281 C 168.433594 32.117188 168.875 29.980469 168.632812 27.789062 Z M 166.398438 20.316406 C 166.589844 21.207031 166.675781 21.941406 166.785156 23.109375 C 167.15625 23.511719 167.597656 24.1875 167.597656 24.1875 C 167.644531 25.554688 167.558594 26.921875 167.277344 28.328125 L 166.53125 27.402344 C 166.304688 28.695312 165.988281 29.898438 165.507812 31.21875 L 166.34375 32.664062 C 166.097656 33.527344 165.621094 34.71875 165.164062 35.675781 C 164.855469 35.171875 164.558594 34.617188 164.242188 34.171875 C 163.496094 35.625 162.601562 37.042969 161.632812 38.410156 L 162.792969 40.28125 C 162.792969 40.277344 163.058594 40.277344 163.058594 40.28125 C 165.859375 36.121094 167.734375 31.539062 167.929688 26.328125 C 168.023438 24.144531 167.339844 22.25 166.515625 20.429688 Z M 162.179688 13.839844 L 162.167969 13.871094 C 163.511719 15.523438 164.574219 17.296875 165.128906 19.265625 L 165.121094 19.289062 L 164.082031 18.503906 C 164.214844 19.304688 164.320312 20.046875 164.347656 20.882812 C 164.832031 21.253906 165.371094 21.734375 165.789062 22.238281 C 165.859375 23.597656 165.859375 25.046875 165.621094 26.382812 C 165.160156 25.761719 164.746094 25.316406 164.019531 24.589844 C 163.855469 25.578125 163.488281 27.132812 163.042969 28.171875 C 163.675781 28.863281 164.328125 29.734375 164.734375 30.371094 C 164.5 31.191406 164.035156 32.289062 163.542969 33.210938 C 162.957031 32.457031 162.546875 31.84375 161.78125 30.945312 C 161.023438 32.34375 160.136719 33.761719 159.15625 35.066406 C 159.824219 35.851562 160.429688 36.675781 161.015625 37.507812 C 160.460938 38.273438 159.875 39.03125 159.230469 39.753906 C 158.621094 38.921875 157.976562 38.089844 157.347656 37.269531 C 156.464844 38.292969 155.578125 39.339844 154.503906 40.28125 L 159.449219 40.28125 C 162.632812 36.585938 164.945312 32.496094 165.882812 27.875 C 166.855469 23.214844 166.089844 18.285156 163.089844 14.769531 C 162.808594 14.460938 162.515625 14.070312 162.179688 13.839844 M 159.242188 11.5 C 159.535156 11.996094 159.816406 12.503906 160.050781 13.023438 L 161.167969 13.542969 C 161.964844 14.835938 162.597656 16.203125 162.941406 17.683594 C 162.324219 17.296875 161.695312 16.890625 161.066406 16.546875 C 161.164062 17.21875 161.1875 17.828125 161.203125 18.535156 C 161.914062 19.03125 162.652344 19.554688 163.335938 20.167969 C 163.402344 21.410156 163.316406 22.640625 163.125 23.792969 C 162.371094 23.058594 161.589844 22.414062 160.820312 21.875 C 160.628906 22.9375 160.246094 24.136719 159.800781 25.210938 C 160.585938 25.839844 161.449219 26.660156 162.203125 27.484375 C 161.875 28.4375 161.480469 29.324219 161.011719 30.183594 C 160.25 29.363281 159.417969 28.507812 158.585938 27.78125 C 158.078125 28.777344 157.042969 30.378906 156.132812 31.613281 C 156.960938 32.46875 157.730469 33.355469 158.492188 34.246094 C 157.953125 35.003906 157.335938 35.726562 156.703125 36.425781 C 155.933594 35.535156 155.210938 34.625 154.40625 33.757812 C 153.191406 35.171875 152.167969 36.277344 150.710938 37.503906 C 151.574219 38.546875 152.871094 40.277344 152.871094 40.277344 L 153.609375 40.277344 C 154.972656 39.066406 156.28125 37.707031 157.46875 36.328125 C 160.410156 32.742188 162.734375 28.898438 163.542969 24.4375 C 164.425781 19.753906 163.195312 15.199219 160.101562 11.816406 Z M 135.714844 7.617188 L 135.714844 8.394531 L 136.148438 8.089844 C 136.507812 8.175781 136.921875 8.355469 137.195312 8.539062 C 136.699219 8.832031 136.183594 9.125 135.71875 9.4375 L 135.71875 9.925781 C 136.335938 9.546875 137.0625 9.105469 137.636719 8.816406 C 137.871094 8.960938 138.082031 9.183594 138.246094 9.402344 C 137.410156 9.734375 136.25 10.300781 135.710938 10.589844 L 135.710938 11.085938 C 136.636719 10.640625 137.65625 10.1875 138.625 9.886719 C 138.753906 10.109375 138.875 10.386719 138.925781 10.640625 C 137.890625 10.839844 136.695312 11.277344 135.71875 11.65625 L 135.71875 12.113281 C 136.75 11.753906 138.144531 11.390625 139.050781 11.242188 C 139.121094 11.539062 139.125 11.910156 139.128906 12.183594 C 137.757812 12.3125 136.835938 12.472656 135.722656 12.699219 L 135.722656 13.222656 C 136.714844 13.089844 138.359375 12.96875 139.074219 12.996094 C 139.007812 13.355469 138.925781 13.726562 138.792969 14.054688 C 137.96875 13.976562 136.644531 13.917969 135.714844 13.941406 C 135.710938 13.941406 135.710938 14.640625 135.710938 14.644531 C 136.617188 14.695312 137.605469 14.914062 138.402344 15.0625 C 138.292969 15.339844 138.097656 15.730469 137.917969 16.007812 C 137.296875 15.796875 136.390625 15.511719 135.710938 15.402344 L 135.710938 16.785156 C 136.148438 16.976562 136.773438 17.289062 136.988281 17.429688 C 136.847656 17.640625 136.5625 17.984375 136.363281 18.164062 C 136.078125 17.96875 135.710938 17.753906 135.710938 17.753906 L 135.710938 19.511719 C 136.4375 18.800781 137.152344 18.054688 137.714844 17.261719 C 139.121094 15.234375 140.234375 12.605469 139.222656 10.070312 C 138.613281 8.679688 137.128906 7.804688 135.714844 7.617188 M 153.574219 7.988281 L 154.503906 8.097656 C 155.433594 8.582031 156.285156 9.261719 157.054688 10.070312 C 157.335938 10.382812 157.636719 10.691406 157.835938 11.027344 C 157.070312 10.8125 156.324219 10.550781 155.535156 10.378906 C 155.804688 10.796875 155.996094 11.207031 156.191406 11.6875 C 157.074219 11.9375 157.949219 12.246094 158.808594 12.554688 C 159.355469 13.597656 159.757812 14.722656 159.949219 15.902344 C 158.960938 15.410156 157.972656 14.929688 156.949219 14.527344 C 157.027344 15.105469 157.054688 15.703125 157.027344 16.277344 C 158.144531 16.792969 159.398438 17.480469 160.175781 17.976562 C 160.203125 18.796875 160.125 20.253906 159.886719 21.183594 C 158.992188 20.53125 157.703125 19.695312 156.660156 19.15625 C 156.519531 19.960938 156.140625 21.214844 155.738281 22.097656 C 156.832031 22.835938 157.914062 23.59375 158.949219 24.484375 C 158.628906 25.355469 158.226562 26.191406 157.792969 27.007812 C 156.753906 26.121094 155.707031 25.269531 154.609375 24.449219 C 153.992188 25.671875 153.300781 26.777344 152.367188 27.929688 C 153.417969 28.898438 154.421875 29.847656 155.421875 30.886719 C 154.933594 31.601562 154.382812 32.304688 153.738281 32.972656 C 152.78125 31.945312 151.804688 30.890625 150.800781 29.910156 C 149.761719 31.113281 148.589844 32.367188 147.359375 33.398438 C 147.925781 33.988281 149.144531 35.414062 150.035156 36.691406 C 149.425781 37.214844 148.855469 37.707031 148.246094 38.152344 L 145.664062 34.824219 C 144.070312 36.0625 142.378906 37.089844 140.679688 38.019531 L 142.035156 40.277344 L 146.238281 40.277344 C 152.652344 35.894531 158.453125 29.382812 160.238281 22.117188 C 161.316406 17.667969 160.292969 13.121094 157.226562 9.8125 C 155.59375 8.050781 153.78125 7.457031 152.503906 7.0625 C 152.828125 7.28125 153.207031 7.609375 153.574219 7.988281 M 144.1875 7.957031 C 142.007812 5.746094 138.65625 5.566406 135.710938 6.257812 C 135.714844 6.257812 135.710938 6.527344 135.710938 6.527344 C 136.324219 6.394531 137.128906 6.269531 137.855469 6.269531 C 137.378906 6.5625 136.921875 6.910156 136.503906 7.253906 C 136.683594 7.292969 136.871094 7.351562 137.039062 7.421875 C 137.707031 6.949219 138.351562 6.535156 138.886719 6.242188 C 139.582031 6.246094 140.480469 6.378906 141.070312 6.613281 C 140.101562 6.960938 138.925781 7.5 138.167969 8.007812 C 138.308594 8.085938 138.457031 8.207031 138.5625 8.320312 C 139.492188 7.824219 140.835938 7.25 141.933594 6.898438 C 142.449219 7.105469 143.007812 7.476562 143.328125 7.785156 C 141.925781 8.117188 140.582031 8.488281 139.230469 9.039062 C 139.363281 9.191406 139.5 9.425781 139.566406 9.566406 C 140.546875 9.21875 142.460938 8.660156 143.96875 8.375 C 144.242188 8.667969 144.570312 9.140625 144.742188 9.574219 C 143.082031 9.75 141.183594 10.039062 139.910156 10.402344 C 139.984375 10.621094 140.035156 10.828125 140.074219 11.027344 C 141.644531 10.726562 143.378906 10.5 145.070312 10.433594 C 145.226562 10.921875 145.308594 11.441406 145.3125 11.976562 C 143.625 11.867188 141.6875 11.9375 140.148438 12.097656 C 140.152344 12.296875 140.125 12.695312 140.097656 12.945312 C 141.652344 12.898438 143.394531 12.914062 145.257812 13.125 C 145.195312 13.628906 145.070312 14.28125 144.910156 14.84375 C 143.167969 14.449219 141.582031 14.257812 139.835938 14.140625 C 139.765625 14.476562 139.621094 14.894531 139.457031 15.246094 C 141.097656 15.546875 142.734375 16 144.316406 16.566406 C 144.097656 17.078125 143.84375 17.578125 143.570312 18.066406 C 142.382812 17.507812 140.285156 16.726562 138.90625 16.339844 C 138.683594 16.796875 138.300781 17.425781 137.917969 17.886719 C 138.910156 18.371094 140.808594 19.441406 142.105469 20.28125 C 141.796875 20.699219 141.449219 21.128906 141.082031 21.515625 C 139.824219 20.53125 138.570312 19.609375 137.203125 18.738281 C 136.765625 19.238281 136.21875 19.78125 135.710938 20.214844 L 135.710938 20.371094 L 138.855469 23.71875 C 138.507812 24.035156 138.148438 24.328125 137.777344 24.59375 L 135.710938 21.953125 L 135.710938 26.617188 C 138.902344 24.742188 142.136719 21.671875 143.953125 18.410156 C 145.4375 15.804688 146.554688 12.269531 145.121094 9.273438 C 144.867188 8.8125 144.597656 8.359375 144.1875 7.957031 M 145.84375 5.324219 C 146.125 5.414062 146.390625 5.539062 146.660156 5.65625 L 146.808594 5.632812 C 148.179688 5.859375 149.496094 6.3125 150.667969 6.957031 C 150.03125 6.960938 149.367188 6.953125 148.730469 7.003906 C 149 7.246094 149.28125 7.523438 149.511719 7.777344 C 150.371094 7.757812 151.207031 7.777344 152.03125 7.832031 C 152.84375 8.429688 153.675781 9.234375 154.140625 10.0625 C 153.191406 9.847656 151.878906 9.65625 150.703125 9.554688 C 150.859375 9.90625 151.011719 10.265625 151.140625 10.632812 C 152.441406 10.824219 153.730469 11.0625 154.984375 11.378906 C 155.394531 12.238281 155.710938 13.140625 155.84375 14.09375 C 154.464844 13.597656 153.042969 13.132812 151.59375 12.835938 C 151.628906 13.300781 151.632812 13.789062 151.636719 14.265625 C 153.136719 14.699219 154.597656 15.199219 156.015625 15.84375 C 156.023438 16.804688 155.921875 17.722656 155.707031 18.59375 C 154.277344 17.882812 152.824219 17.183594 151.308594 16.667969 C 151.117188 17.515625 150.867188 18.34375 150.570312 19.140625 C 152.023438 19.890625 153.464844 20.648438 154.839844 21.546875 C 154.582031 22.285156 154.199219 23.085938 153.761719 23.804688 C 152.410156 22.882812 151.0625 21.984375 149.652344 21.199219 C 149.171875 22.195312 148.570312 23.214844 147.847656 24.148438 C 149.101562 25.140625 150.386719 26.164062 151.597656 27.261719 C 151.199219 27.863281 150.667969 28.554688 150.066406 29.183594 C 149.179688 28.253906 147.710938 26.933594 146.484375 25.894531 C 145.617188 26.945312 144.589844 28.105469 143.558594 28.964844 C 144.34375 29.792969 146.683594 32.617188 146.683594 32.617188 C 146.214844 33.082031 145.636719 33.558594 145.03125 33.992188 C 145.03125 33.992188 142.648438 30.925781 142.054688 30.191406 C 140.644531 31.3125 139.511719 32.097656 137.859375 32.972656 C 138.519531 34.089844 140.140625 37.117188 140.140625 37.117188 C 139.722656 37.375 139.285156 37.613281 138.847656 37.773438 C 138.082031 36.5 137.160156 34.652344 136.664062 33.59375 C 136.191406 33.855469 135.710938 34.023438 135.710938 34.023438 L 135.710938 39.535156 C 140.695312 37.921875 145.28125 35.058594 149.167969 30.917969 C 152.710938 27.082031 155.507812 22.9375 156.34375 17.988281 C 157.003906 14.039062 155.699219 10.320312 152.5625 7.804688 C 150.664062 6.179688 148.308594 5.613281 145.84375 5.324219 M 146.800781 6.316406 C 144.660156 5.132812 141.839844 4.960938 139.3125 5.390625 L 140.207031 5.492188 L 140.335938 5.433594 C 141.507812 5.347656 142.738281 5.386719 143.828125 5.625 C 143.472656 5.722656 142.859375 5.929688 142.425781 6.109375 C 142.667969 6.195312 142.980469 6.355469 143.191406 6.488281 C 143.65625 6.320312 144.628906 6.0625 145.105469 5.964844 C 145.527344 6.09375 146.617188 6.59375 147.292969 7.09375 C 146.492188 7.175781 145.402344 7.332031 144.523438 7.535156 C 144.730469 7.71875 144.910156 7.933594 145.058594 8.171875 C 145.914062 8.011719 147.160156 7.867188 148.238281 7.828125 C 148.785156 8.300781 149.226562 8.871094 149.53125 9.460938 C 148.351562 9.378906 146.773438 9.398438 145.808594 9.503906 C 145.90625 9.675781 146.042969 10.117188 146.105469 10.382812 C 147.300781 10.332031 149.253906 10.417969 150.074219 10.535156 C 150.34375 11.183594 150.5 11.878906 150.558594 12.609375 C 149.1875 12.339844 147.578125 12.113281 146.320312 12.054688 C 146.335938 12.457031 146.320312 12.84375 146.28125 13.226562 C 147.777344 13.378906 149.230469 13.648438 150.636719 14.015625 C 150.617188 14.730469 150.515625 15.617188 150.324219 16.304688 C 149.207031 15.90625 147.429688 15.375 145.917969 15.070312 C 145.765625 15.6875 145.570312 16.296875 145.300781 16.886719 C 146.777344 17.375 148.234375 18.019531 149.628906 18.707031 C 149.398438 19.371094 149.070312 20.113281 148.757812 20.660156 C 147.359375 19.878906 145.921875 19.109375 144.5 18.503906 C 144.066406 19.289062 143.523438 20.128906 143.003906 20.820312 C 144.390625 21.664062 145.703125 22.582031 147.007812 23.558594 C 146.617188 24.128906 146.058594 24.816406 145.714844 25.226562 C 144.46875 24.191406 141.90625 22.148438 141.90625 22.148438 C 141.148438 23.058594 140.503906 23.738281 139.554688 24.46875 C 140.609375 25.554688 141.984375 27.085938 142.84375 28.15625 C 142.402344 28.617188 141.96875 28.988281 141.445312 29.347656 C 140.398438 28.0625 139.144531 26.441406 138.410156 25.425781 C 137.382812 26.230469 136.757812 26.667969 135.710938 27.210938 L 135.710938 28.714844 L 137.378906 32.046875 C 136.996094 32.289062 136.691406 32.441406 136.210938 32.644531 L 135.710938 31.675781 L 135.710938 33.425781 C 142.136719 30.574219 148.667969 24.285156 150.570312 17.449219 C 151.265625 15.089844 151.390625 12.050781 150.253906 9.847656 C 149.585938 8.402344 148.234375 7.050781 146.800781 6.316406 M 176 0 L 176 40.277344 L 167.65625 40.277344 C 169.417969 35.652344 169.816406 29.929688 168.570312 24.910156 C 167.0625 18.535156 162.890625 12.476562 156.976562 8.734375 C 151.390625 5.179688 144.296875 3.777344 137.316406 5.21875 L 135.710938 5.609375 L 135.710938 0 L 176 0 "/>
</g>
<path style=" stroke:none;fill-rule:nonzero;fill:rgb(16.308594%,23.577881%,57.775879%);fill-opacity:1;" d="M 8.71875 29.570312 C 7.34375 29.570312 6.175781 29.464844 5.214844 29.257812 C 4.253906 29.050781 3.449219 28.773438 2.800781 28.417969 C 2.152344 28.066406 1.644531 27.652344 1.269531 27.175781 C 0.894531 26.699219 0.613281 26.191406 0.429688 25.652344 C 0.242188 25.113281 0.125 24.554688 0.0742188 23.984375 C 0.0234375 23.410156 0 22.847656 0 22.292969 L 0 12.886719 L 4.054688 12.886719 L 4.054688 22.265625 C 4.054688 23.203125 4.160156 23.964844 4.367188 24.550781 C 4.574219 25.132812 4.878906 25.589844 5.273438 25.917969 C 5.667969 26.246094 6.15625 26.46875 6.734375 26.589844 C 7.308594 26.710938 7.972656 26.769531 8.71875 26.769531 C 9.476562 26.769531 10.144531 26.710938 10.722656 26.589844 C 11.296875 26.46875 11.78125 26.242188 12.171875 25.914062 C 12.5625 25.582031 12.855469 25.121094 13.054688 24.539062 C 13.25 23.953125 13.351562 23.195312 13.351562 22.265625 L 13.351562 12.886719 L 17.4375 12.886719 L 17.4375 22.292969 C 17.4375 23.4375 17.308594 24.457031 17.050781 25.359375 C 16.792969 26.257812 16.332031 27.019531 15.675781 27.640625 C 15.015625 28.261719 14.121094 28.742188 12.996094 29.074219 C 11.871094 29.402344 10.445312 29.570312 8.71875 29.570312 "/>
<path style=" stroke:none;fill-rule:nonzero;fill:rgb(16.308594%,23.577881%,57.775879%);fill-opacity:1;" d="M 42.511719 29.308594 L 38.6875 29.308594 L 28.980469 18.324219 L 28.980469 29.308594 L 25.074219 29.308594 L 25.074219 12.886719 L 28.914062 12.886719 L 38.574219 23.882812 L 38.574219 12.886719 L 42.511719 12.886719 L 42.511719 29.308594 "/>
<path style=" stroke:none;fill-rule:nonzero;fill:rgb(16.308594%,23.577881%,57.775879%);fill-opacity:1;" d="M 54.1875 29.308594 L 50.148438 29.308594 L 50.148438 12.886719 L 54.1875 12.886719 L 54.1875 29.308594 "/>
<path style=" stroke:none;fill-rule:nonzero;fill:rgb(16.308594%,23.577881%,57.775879%);fill-opacity:1;" d="M 77.761719 15.710938 L 70.988281 15.710938 L 70.988281 29.308594 L 66.917969 29.308594 L 66.917969 15.710938 L 60.175781 15.710938 L 60.175781 12.886719 L 77.761719 12.886719 L 77.761719 15.710938 "/>
<path style=" stroke:none;fill-rule:nonzero;fill:rgb(16.308594%,23.577881%,57.775879%);fill-opacity:1;" d="M 100.382812 29.308594 L 83.75 29.308594 L 83.75 12.886719 L 99.902344 12.886719 L 99.902344 15.710938 L 87.804688 15.710938 L 87.804688 19.417969 L 99.128906 19.417969 L 99.128906 22.21875 L 87.804688 22.21875 L 87.804688 26.484375 L 100.382812 26.484375 L 100.382812 29.308594 "/>
<path style=" stroke:none;fill-rule:nonzero;fill:rgb(16.308594%,23.577881%,57.775879%);fill-opacity:1;" d="M 121.171875 21.011719 C 121.171875 20.179688 121.0625 19.4375 120.847656 18.785156 C 120.636719 18.128906 120.261719 17.574219 119.730469 17.117188 C 119.195312 16.660156 118.480469 16.3125 117.578125 16.070312 C 116.675781 15.832031 115.546875 15.710938 114.183594 15.710938 L 111.101562 15.710938 L 111.101562 26.484375 L 114.183594 26.484375 C 115.535156 26.484375 116.660156 26.359375 117.5625 26.109375 C 118.460938 25.863281 119.179688 25.503906 119.710938 25.035156 C 120.246094 24.566406 120.621094 23.996094 120.839844 23.316406 C 121.0625 22.640625 121.171875 21.875 121.171875 21.011719 Z M 125.324219 21.011719 C 125.324219 26.542969 121.617188 29.308594 114.199219 29.308594 L 107.03125 29.308594 L 107.03125 12.886719 L 114.199219 12.886719 C 121.617188 12.886719 125.324219 15.59375 125.324219 21.011719 "/>
</g>
</svg>
