<svg xmlns="http://www.w3.org/2000/svg" width="176pt" height="53.707" viewBox="0 0 176 40.28"><defs><clipPath id="a"><path d="M135 0h41v40.281h-41Zm0 0"/></clipPath></defs><g clip-path="url(#a)"><path d="M148.898 38.996c-.457.332-1.039.848-1.746 1.285h2.594s-.566-.84-.848-1.285m-9.656-.293a32 32 0 0 1-3.531 1.356v.214h4.414Zm29.5-5.808c-.394 2.035-1.094 4.558-1.687 6.355a9 9 0 0 1-.2-.43c-.273.563-.695 1.457-.695 1.457h.95c.824-1.933 1.398-4.718 1.632-7.382m-.12-5.106c-.09.695-.145 1.402-.27 2.066l-.22-.3a22 22 0 0 1-1.077 4.082l.343.953c-.28.957-.64 1.988-1.101 3.062a5 5 0 0 0-.496-1.015c-.621 1.23-1.356 2.547-2.09 3.644l1.851-.004a31 31 0 0 0 2.383-6.164c.489-1.996.93-4.133.688-6.324Zm-2.224-7.473c.192.891.278 1.625.387 2.793.371.403.813 1.078.813 1.078a17.8 17.8 0 0 1-.32 4.141l-.747-.926a22 22 0 0 1-1.023 3.817l.836 1.445c-.246.863-.723 2.055-1.18 3.012-.309-.504-.605-1.059-.922-1.504-.746 1.453-1.64 2.871-2.61 4.238l1.161 1.871c0-.004.266-.004.266 0 2.8-4.16 4.675-8.742 4.87-13.953.094-2.183-.59-4.078-1.413-5.898Zm-4.218-6.476-.012.031c1.344 1.652 2.406 3.426 2.96 5.395l-.007.023-1.039-.785c.133.8.238 1.543.266 2.379a9.2 9.2 0 0 1 1.441 1.355c.07 1.36.07 2.809-.168 4.145-.46-.621-.875-1.067-1.601-1.793-.165.988-.532 2.543-.977 3.582a17.5 17.5 0 0 1 1.691 2.2c-.234.82-.699 1.917-1.191 2.839-.586-.754-.996-1.367-1.762-2.266a33.5 33.5 0 0 1-2.625 4.121c.668.786 1.274 1.61 1.86 2.442a28 28 0 0 1-1.786 2.246c-.609-.832-1.253-1.664-1.882-2.484-.883 1.023-1.77 2.07-2.844 3.011h4.945c3.184-3.695 5.496-7.785 6.434-12.406.972-4.66.207-9.59-2.793-13.105-.281-.31-.574-.7-.91-.93m-2.938-2.34c.293.496.574 1.004.809 1.523l1.117.52c.797 1.293 1.43 2.66 1.773 4.14-.617-.386-1.246-.792-1.875-1.136.098.672.121 1.281.137 1.988.711.496 1.45 1.02 2.133 1.633a16.8 16.8 0 0 1-.211 3.625 19 19 0 0 0-2.305-1.918c-.191 1.063-.574 2.262-1.02 3.336.786.629 1.65 1.45 2.403 2.273-.328.953-.723 1.84-1.191 2.7-.762-.82-1.594-1.676-2.426-2.403-.508.996-1.543 2.598-2.453 3.832.828.856 1.597 1.742 2.36 2.633-.54.758-1.157 1.48-1.79 2.18-.77-.89-1.492-1.801-2.297-2.668-1.215 1.414-2.238 2.52-3.695 3.746.863 1.043 2.16 2.773 2.16 2.773h.738a42 42 0 0 0 3.86-3.949c2.941-3.586 5.265-7.43 6.074-11.89.883-4.684-.348-9.239-3.441-12.622Zm-23.527-3.883v.778l.433-.305c.36.086.774.265 1.047.45-.496.292-1.011.585-1.476.898v.488c.617-.38 1.344-.82 1.918-1.11.234.145.445.368.61.586a30 30 0 0 0-2.536 1.188v.496c.926-.445 1.945-.899 2.914-1.2.129.223.25.5.3.755-1.034.199-2.23.636-3.206 1.015v.457c1.031-.36 2.426-.722 3.332-.87.07.296.074.667.078.94-1.371.13-2.293.29-3.406.516v.524c.992-.133 2.636-.254 3.351-.227-.066.36-.148.73-.281 1.059a30 30 0 0 0-3.078-.114c-.004 0-.004.7-.004.704.906.05 1.894.27 2.691.418-.109.277-.304.667-.484.945-.621-.211-1.527-.496-2.207-.606v1.383c.437.192 1.062.504 1.277.645a4.8 4.8 0 0 1-.625.734c-.285-.195-.652-.41-.652-.41v1.758c.726-.711 1.441-1.457 2.004-2.25 1.406-2.028 2.52-4.657 1.508-7.192-.61-1.39-2.094-2.265-3.508-2.453m17.86.371.929.11c.93.484 1.781 1.164 2.55 1.972.282.313.583.621.782.957-.766-.214-1.512-.476-2.3-.648.269.418.46.828.655 1.309.883.25 1.758.558 2.618.867.546 1.043.949 2.168 1.14 3.347-.988-.492-1.976-.972-3-1.375.078.578.106 1.176.078 1.75a30 30 0 0 1 3.149 1.7c.027.82-.051 2.277-.29 3.207-.894-.653-2.183-1.489-3.226-2.028-.14.805-.52 2.059-.922 2.942 1.094.738 2.176 1.496 3.211 2.386-.32.871-.722 1.707-1.156 2.524a63 63 0 0 0-3.184-2.559 19 19 0 0 1-2.242 3.48 70 70 0 0 1 3.055 2.958 16 16 0 0 1-1.684 2.086c-.957-1.028-1.933-2.082-2.937-3.063-1.04 1.203-2.211 2.457-3.442 3.488.567.59 1.786 2.016 2.676 3.293-.61.524-1.18 1.016-1.789 1.461l-2.582-3.328c-1.594 1.239-3.285 2.266-4.984 3.196l1.355 2.257h4.203c6.414-4.382 12.215-10.894 14-18.16 1.078-4.449.055-8.996-3.011-12.304-1.633-1.762-3.446-2.356-4.723-2.75.324.218.703.546 1.07.925m-9.387-.031c-2.18-2.21-5.53-2.39-8.476-1.7.004 0 0 .27 0 .27.613-.132 1.418-.257 2.144-.257-.476.293-.933.64-1.351.984.18.039.367.098.535.168a20 20 0 0 1 1.848-1.18c.695.004 1.593.137 2.183.371-.968.348-2.144.887-2.902 1.395.14.078.289.199.394.312.93-.496 2.274-1.07 3.372-1.422a4.8 4.8 0 0 1 1.394.887c-1.402.332-2.746.703-4.098 1.254.133.152.27.387.336.527.98-.347 2.895-.906 4.403-1.191.273.293.601.766.773 1.2-1.66.175-3.558.464-4.832.827.074.22.125.426.164.625 1.57-.3 3.305-.527 4.996-.593.157.488.239 1.007.243 1.543-1.688-.11-3.625-.04-5.165.12.004.2-.023.598-.05.848 1.554-.047 3.297-.03 5.16.18a12 12 0 0 1-.348 1.719c-1.742-.395-3.328-.586-5.074-.703-.07.336-.215.754-.379 1.105 1.64.3 3.277.754 4.86 1.32a16 16 0 0 1-.747 1.5c-1.187-.558-3.285-1.34-4.664-1.726a8.5 8.5 0 0 1-.988 1.547c.992.484 2.89 1.554 4.187 2.394-.308.418-.656.848-1.023 1.235-1.258-.985-2.512-1.907-3.879-2.778-.437.5-.984 1.043-1.492 1.477v.156l3.144 3.348q-.521.476-1.078.875l-2.066-2.64v4.663c3.191-1.875 6.426-4.945 8.242-8.207 1.484-2.605 2.602-6.14 1.168-9.137-.254-.46-.523-.914-.934-1.316m1.657-2.633c.281.09.547.215.816.332l.149-.023a12.2 12.2 0 0 1 3.859 1.324c-.637.004-1.3-.004-1.938.047.27.242.551.52.782.773.86-.02 1.695 0 2.52.055.812.598 1.644 1.402 2.109 2.23-.95-.214-2.262-.406-3.438-.507.156.351.309.71.438 1.078 1.3.191 2.59.43 3.843.746.41.86.727 1.762.86 2.715-1.38-.496-2.801-.961-4.25-1.258.035.465.039.953.043 1.43 1.5.433 2.96.933 4.379 1.578q.012 1.442-.309 2.75c-1.43-.711-2.883-1.41-4.398-1.926a19 19 0 0 1-.739 2.473c1.453.75 2.895 1.507 4.27 2.406-.258.738-.64 1.539-1.078 2.258-1.352-.922-2.7-1.82-4.11-2.606a16.7 16.7 0 0 1-1.804 2.95c1.254.992 2.539 2.015 3.75 3.113a14 14 0 0 1-1.532 1.922c-.886-.93-2.355-2.25-3.582-3.29-.867 1.051-1.894 2.211-2.925 3.07.785.829 3.125 3.653 3.125 3.653-.47.465-1.047.942-1.653 1.375 0 0-2.383-3.066-2.976-3.8-1.41 1.12-2.543 1.906-4.196 2.78.66 1.118 2.282 4.145 2.282 4.145a7.3 7.3 0 0 1-1.293.656c-.766-1.273-1.688-3.12-2.184-4.18-.473.262-.953.43-.953.43v5.512c4.984-1.613 9.57-4.476 13.457-8.617 3.543-3.836 6.34-7.98 7.176-12.93.66-3.949-.645-7.668-3.781-10.183-1.899-1.625-4.254-2.192-6.72-2.48m.958.991c-2.14-1.183-4.961-1.355-7.488-.925l.894.101.129-.058c1.172-.086 2.402-.047 3.492.191-.355.098-.969.305-1.402.484.242.086.554.246.765.38a19 19 0 0 1 1.914-.524c.422.129 1.512.629 2.188 1.129-.8.082-1.89.238-2.77.441q.311.278.536.637c.855-.16 2.101-.305 3.18-.344a5.6 5.6 0 0 1 1.292 1.633c-1.18-.082-2.758-.063-3.722.043.097.172.234.613.296.879 1.196-.051 3.149.035 3.97.152a6.8 6.8 0 0 1 .484 2.074c-1.371-.27-2.98-.496-4.239-.554.016.402 0 .789-.039 1.172 1.496.152 2.95.421 4.356.789-.02.714-.121 1.601-.313 2.289-1.117-.399-2.894-.93-4.406-1.235a10.3 10.3 0 0 1-.617 1.817c1.476.488 2.933 1.133 4.328 1.82-.23.664-.559 1.406-.871 1.953-1.399-.781-2.836-1.55-4.258-2.156a21 21 0 0 1-1.496 2.316c1.387.844 2.7 1.762 4.004 2.739-.39.57-.95 1.257-1.293 1.668-1.246-1.036-3.809-3.079-3.809-3.079-.758.91-1.402 1.59-2.351 2.32 1.054 1.087 2.43 2.618 3.289 3.688-.442.461-.875.832-1.399 1.192a99 99 0 0 1-3.035-3.922c-1.027.804-1.652 1.242-2.7 1.785v1.504l1.669 3.332a7.2 7.2 0 0 1-1.168.598l-.5-.97v1.75c6.426-2.85 12.957-9.14 14.86-15.976.695-2.36.82-5.398-.317-7.601-.668-1.446-2.02-2.797-3.453-3.532M176 0v40.277h-8.344c1.762-4.625 2.16-10.347.914-15.367-1.507-6.375-5.68-12.433-11.593-16.176-5.586-3.554-12.68-4.957-19.66-3.515l-1.606.39V0z" style="stroke:none;fill-rule:nonzero;fill:#2a3c93;fill-opacity:1"/></g><path d="M8.719 29.57q-2.062 0-3.504-.312-1.442-.309-2.414-.84c-.649-.352-1.156-.766-1.531-1.242a5.1 5.1 0 0 1-.84-1.524 7 7 0 0 1-.356-1.668A19 19 0 0 1 0 22.293v-9.406h4.055v9.379q0 1.406.312 2.285c.207.582.512 1.039.906 1.367q.593.49 1.461.672.864.18 1.985.18 1.137 0 2.004-.18.862-.183 1.449-.676.584-.5.883-1.375c.195-.586.297-1.344.297-2.273v-9.38h4.085v9.407c0 1.145-.128 2.164-.386 3.066a4.97 4.97 0 0 1-1.375 2.282c-.66.62-1.555 1.101-2.68 1.433-1.125.328-2.55.496-4.277.496M42.512 29.309h-3.825L28.98 18.324V29.31h-3.906V12.887h3.84l9.66 10.996V12.887h3.938zM54.188 29.309h-4.04V12.887h4.04zM77.762 15.71h-6.774V29.31h-4.07V15.71h-6.742v-2.824h17.586zM100.383 29.309H83.75V12.887h16.152v2.824H87.805v3.707h11.324v2.8H87.805v4.266h12.578zM121.172 21.012q-.001-1.248-.324-2.227a3.63 3.63 0 0 0-1.118-1.668q-.8-.685-2.152-1.047-1.351-.358-3.394-.36h-3.082v10.774h3.082q2.026 0 3.379-.375c.898-.246 1.617-.605 2.148-1.074.535-.469.91-1.039 1.129-1.719q.332-1.011.332-2.304m4.152 0q.001 8.297-11.125 8.297h-7.168V12.887h7.168q11.126-.001 11.125 8.125" style="stroke:none;fill-rule:nonzero;fill:#2a3c93;fill-opacity:1"/></svg>