<svg xmlns="http://www.w3.org/2000/svg" width="176pt" height="33.747" viewBox="0 0 176 25.31"><defs><clipPath id="a"><path d="M42 24h4v1.309h-4Zm0 0"/></clipPath><clipPath id="b"><path d="M7 24h2v1.309H7Zm0 0"/></clipPath></defs><path d="m37.164 16.902.453.493H.488c-.093-.079-.246-.204-.441-.368.527-.203 35.418-.277 37.117-.125M0 16.375c.176-.191.332-.363.488-.531h28.578l-.55.601c-.801.149-28.055.098-28.516-.07M8.098 18.55c-.137-.16-.278-.316-.407-.476-.043-.054-.066-.125-.136-.273.39-.012.718-.035 1.047-.035q7.656-.005 15.312-.004c1.852 0 3.703.02 5.555-.004.535-.008.836.246 1.074.644a.4.4 0 0 1-.04.075c-.007.015-.023.035-.038.039-.05.011-.11.035-.164.035zM39.129 18.863c.117.102.254.223.39.348-.015.047-.027.098-.042.144-.188.016-.38.047-.567.047q-5.073.005-10.152.004-9.498-.001-18.996.004c-.446 0-.864-.027-1.13-.547zM31.191 10.953c.141.129.297.277.48.445-.468.149-25.3.18-26.003.04.031-.149.059-.297.094-.485zM33.637 13.453H5.707l-.059-.492c.239-.012.422-.031.602-.031 8.809-.004 17.617 0 26.422-.008.383 0 .707.07.965.531M35.578 15.398H6.145c-.032-.078-.079-.14-.086-.21-.012-.07.011-.145.023-.25.16-.012.309-.028.453-.028q13.84-.004 27.672-.008c.172 0 .344.012.512-.007.36-.036.625.09.86.503M6.227 9.453l.21-.46H29.31c.07.089.191.25.308.402-.012.043-.012.062-.02.078a.07.07 0 0 1-.042.03c-.075.017-.145.04-.22.04q-11.454 0-22.91-.012c-.05 0-.1-.039-.198-.078M27.344 7.023c.097.098.238.239.347.344-.035.117-.035.137-.046.153-.008.015-.028.03-.043.03q-8.533.023-17.07.04c-.997.004-1.997 0-3.15 0 .204-.258.325-.406.45-.567zM41.355 21.734l.618.649c-.227.039-.344.074-.461.074q-5.467.012-10.938.012c-.715 0-1.32-.328-1.937-.606l.023-.129zM25.77 5.594H9.29c.155-.23.26-.383.378-.555h1.262q6.922-.005 13.843-.016c.403 0 .735.082.997.57M9.605 3.617a52 52 0 0 1-.503-.5H23.39l.457.5zM6.227 1.559c.144-.137.285-.274.445-.43h14.7c.132.121.284.258.55.504-.336.031-.543.062-.75.062q-2.491.005-4.988.004c-3.118-.004-6.235-.004-9.352-.008h-.559zM27.246 20.785h1.746c3.797-.004 7.598-.008 11.395-.015.43 0 .84.02 1.082.52-.14.03-.262.077-.383.077-3.438-.004-6.879-.012-10.316-.015q-1.249-.002-2.497.015c-.402.008-.734-.097-1.027-.582M20.938.77h-10.56c.29-.489.587-.77 1.11-.762 2.024.015 4.047.02 6.07.023.739 0 1.477.008 2.212-.027.554-.024.855.277 1.168.766M6.168 2.047h8.66c-.16.535-.43.73-1.039.734-1.566.004-3.133 0-4.7 0-.566 0-1.136-.023-1.698.008-.543.035-.899-.195-1.223-.742M5.871 14.512l-.121-.614c.215-.023.39-.062.566-.062 2.02-.004 4.036.004 6.055-.008.535-.004.899.281 1.371.684zM17.793 19.855c-.535.336-1.02.649-1.621.657-1.488.011-2.98.02-4.469-.004-.629-.012-1.164-.356-1.789-.621.473-.2 7.332-.215 7.879-.032M26.234 19.73c1.891-.003 3.782-.007 5.715.004q.275.299.563.614c-.367.195-4.078.27-5.809.129-.148-.172-.34-.383-.527-.598q.03-.072.058-.149M10.688 11.918q.198.226.374.441c.02.024.008.07.012.106-.386.152-4.398.207-5.402.062l-.063-.53c.48-.153 3.918-.196 5.079-.079M21.715 14.398l.52-.566h2.18c.398 0 .796.016 1.19-.004.48-.023.754.235 1.004.688h-4.824zM37.621 22.824c.106-.031.156-.058.207-.058q2.408-.005 4.82-.016c.348 0 .61.125.778.543-.219.016-.399.043-.574.043-.926.004-1.856-.031-2.778.012-.855.039-1.629-.207-2.453-.524M9.91 9.957c.027.219.047.395.074.625H5.801c.097-.266.172-.46.23-.625zM6.633 8.629l.449-.695h3.09c-.082.265-.149.464-.223.695zM12.871 4.125c-.156.184-.312.363-.488.57H9.797C9.78 4.473 9.77 4.262 9.75 4h3.066zM43.887 24.367c-1.301.238-2.293.059-3.41-.629.195-.031.328-.07.46-.074.622-.008 1.243.012 1.864-.012.527-.02.828.254 1.086.715M8.32 6.664c.188-.406.39-.687.723-.707.687-.043 1.383-.012 2.195-.012-.168.297-.289.504-.41.72zM3.574 18.535h-1.96l-.669-.715c.766-.097 1.414-.047 2.086-.039q.304.318.61.637c-.024.039-.043.078-.067.117M5.043 19.785c.156.172.352.383.547.598q-.026.06-.05.125c-.595 0-1.192.035-1.778-.016-.348-.031-.555-.344-.785-.707zM5 21.738h1.957c.172.184.36.387.625.668-.715.102-1.352.035-1.945.051-.254-.227-.473-.418-.688-.613q.022-.052.051-.106" style="stroke:none;fill-rule:nonzero;fill:#e81d25;fill-opacity:1"/><g clip-path="url(#a)"><path d="M42.754 24.734h2.16c.191.16.344.29.492.418l-.062.121c-.848-.027-1.754.286-2.59-.539" style="stroke:none;fill-rule:nonzero;fill:#e81d25;fill-opacity:1"/></g><path d="M4.133 20.781c.562 0 1.125-.008 1.687.004.266.008.356.098.66.559-.675 0-1.308.031-1.933-.016-.172-.015-.332-.25-.496-.383zM4.492 19.363c-.687.055-1.312.086-1.933 0-.168-.023-.309-.23-.532-.41.196-.066.293-.121.391-.125.45-.012.898-.004 1.348-.008.34-.004.547.164.726.543M6.004 22.77c.676 0 1.289-.028 1.894.015.184.016.356.23.602.399-.164.078-.238.144-.316.144-.489.012-.973.008-1.461.008-.34 0-.543-.176-.72-.566M8.504 23.715v.683c-.328.02-.621.036-.93.051-.23-.215-.441-.422-.754-.719.633-.109 1.137-.078 1.684-.015" style="stroke:none;fill-rule:nonzero;fill:#e81d25;fill-opacity:1"/><g clip-path="url(#b)"><path d="M8.047 24.766h.445c.016.16.028.297.035.433-.03.02-.066.04-.097.063l-.434-.399q.026-.051.05-.097" style="stroke:none;fill-rule:nonzero;fill:#e81d25;fill-opacity:1"/></g><path d="M53.535 22.05V5.169h-6.027V1.73h16.148v3.438h-6.015v16.883z" style="stroke:none;fill-rule:nonzero;fill:#e81d25;fill-opacity:1"/><path d="M63.586 1.73h4.105v11.004c0 1.75.047 2.88.153 3.399q.264 1.248 1.254 2.004.989.755 2.71.754c1.165 0 2.04-.239 2.633-.715q.885-.71 1.067-1.754.18-1.04.18-3.45V1.73h4.105v10.672q-.002 3.662-.332 5.172-.334 1.513-1.23 2.551-.891 1.042-2.391 1.656-1.494.616-3.91.617-2.907.001-4.414-.671-1.504-.675-2.375-1.747-.879-1.076-1.153-2.253-.403-1.747-.402-5.157zM82.883 22.05V1.73h3.996l8.316 13.57V1.73h3.813v20.32H94.89L86.695 8.8v13.25zM103.223 22.05V1.73h4.101v20.32zM110.195 15.441l3.993-.39q.361 2.01 1.46 2.953c.739.629 1.727.941 2.977.941q1.98.001 2.988-.836 1.003-.838 1.004-1.964 0-.718-.422-1.227c-.285-.336-.773-.629-1.476-.879-.48-.168-1.578-.46-3.285-.887-2.204-.547-3.746-1.214-4.633-2.011q-1.87-1.676-1.871-4.09c0-1.035.293-2 .879-2.903.59-.902 1.433-1.59 2.539-2.058q1.657-.708 4-.707 3.824 0 5.757 1.676 1.937 1.68 2.032 4.48l-4.102.18c-.176-1.047-.555-1.797-1.129-2.254q-.867-.687-2.601-.688-1.787 0-2.801.735-.651.475-.652 1.261c0 .48.203.895.613 1.235q.773.65 3.77 1.36 2.993.709 4.43 1.46a5.74 5.74 0 0 1 2.245 2.067q.81 1.311.809 3.238c0 1.164-.32 2.254-.969 3.273q-.971 1.523-2.746 2.266-1.774.74-4.422.742-3.855 0-5.918-1.781-2.067-1.781-2.469-5.192M140.094 14.012l-2.801-7.543-2.742 7.543Zm7.554 8.039h-4.46l-1.778-4.613h-8.125l-1.676 4.613h-4.351l7.914-20.32h4.34zM149.7 22.05V1.73h4.105v20.32zM161.832 10.324h3.035q2.955.001 3.688-.25a2.2 2.2 0 0 0 1.152-.86q.415-.608.414-1.523-.001-1.026-.547-1.66-.545-.626-1.547-.797-.497-.065-2.992-.066h-3.203Zm-4.105 11.727V1.73h8.636q3.258-.002 4.735.546c.988.364 1.773 1.012 2.367 1.946.59.933.887 2.004.887 3.203q-.002 2.29-1.344 3.777-1.347 1.493-4.024 1.879c.887.52 1.621 1.086 2.2 1.707.578.617 1.355 1.719 2.336 3.297L176 22.05h-4.906l-2.969-4.422q-1.581-2.367-2.16-2.988-.584-.616-1.235-.844c-.433-.152-1.125-.23-2.066-.23h-.832v8.484z" style="stroke:none;fill-rule:nonzero;fill:#e81d25;fill-opacity:1"/></svg>