<?xml version="1.0" encoding="UTF-8"?>
<svg xmlns="http://www.w3.org/2000/svg" xmlns:xlink="http://www.w3.org/1999/xlink" width="176pt" height="25.31pt" viewBox="0 0 176 25.31" version="1.1">
<defs>
<clipPath id="clip1">
  <path d="M 42 24 L 46 24 L 46 25.308594 L 42 25.308594 Z M 42 24 "/>
</clipPath>
<clipPath id="clip2">
  <path d="M 7 24 L 9 24 L 9 25.308594 L 7 25.308594 Z M 7 24 "/>
</clipPath>
</defs>
<g id="surface1">
<path style=" stroke:none;fill-rule:nonzero;fill:rgb(91.104126%,11.183167%,14.370728%);fill-opacity:1;" d="M 37.164062 16.902344 C 37.265625 17.011719 37.398438 17.15625 37.617188 17.394531 C 25.175781 17.394531 12.878906 17.394531 0.488281 17.394531 C 0.394531 17.316406 0.242188 17.191406 0.046875 17.027344 C 0.574219 16.824219 35.464844 16.75 37.164062 16.902344 "/>
<path style=" stroke:none;fill-rule:nonzero;fill:rgb(91.104126%,11.183167%,14.370728%);fill-opacity:1;" d="M 0 16.375 C 0.175781 16.183594 0.332031 16.011719 0.488281 15.84375 C 9.984375 15.84375 19.453125 15.84375 29.066406 15.84375 C 28.816406 16.117188 28.648438 16.300781 28.515625 16.445312 C 27.714844 16.59375 0.460938 16.542969 0 16.375 "/>
<path style=" stroke:none;fill-rule:nonzero;fill:rgb(91.104126%,11.183167%,14.370728%);fill-opacity:1;" d="M 8.097656 18.550781 C 7.960938 18.390625 7.820312 18.234375 7.691406 18.074219 C 7.648438 18.019531 7.625 17.949219 7.554688 17.800781 C 7.945312 17.789062 8.273438 17.765625 8.601562 17.765625 C 13.707031 17.761719 18.808594 17.761719 23.914062 17.761719 C 25.765625 17.761719 27.617188 17.78125 29.46875 17.757812 C 30.003906 17.75 30.304688 18.003906 30.542969 18.402344 C 30.523438 18.445312 30.515625 18.460938 30.503906 18.476562 C 30.496094 18.492188 30.480469 18.511719 30.464844 18.515625 C 30.414062 18.527344 30.355469 18.550781 30.300781 18.550781 C 22.933594 18.550781 15.5625 18.550781 8.097656 18.550781 "/>
<path style=" stroke:none;fill-rule:nonzero;fill:rgb(91.104126%,11.183167%,14.370728%);fill-opacity:1;" d="M 39.128906 18.863281 C 39.246094 18.964844 39.382812 19.085938 39.519531 19.210938 C 39.503906 19.257812 39.492188 19.308594 39.476562 19.355469 C 39.289062 19.371094 39.097656 19.402344 38.910156 19.402344 C 35.527344 19.40625 32.144531 19.40625 28.757812 19.40625 C 22.425781 19.40625 16.09375 19.40625 9.761719 19.410156 C 9.316406 19.410156 8.898438 19.382812 8.632812 18.863281 C 18.796875 18.863281 28.914062 18.863281 39.128906 18.863281 "/>
<path style=" stroke:none;fill-rule:nonzero;fill:rgb(91.104126%,11.183167%,14.370728%);fill-opacity:1;" d="M 31.191406 10.953125 C 31.332031 11.082031 31.488281 11.230469 31.671875 11.398438 C 31.203125 11.546875 6.371094 11.578125 5.667969 11.4375 C 5.699219 11.289062 5.726562 11.140625 5.761719 10.953125 C 14.238281 10.953125 22.667969 10.953125 31.191406 10.953125 "/>
<path style=" stroke:none;fill-rule:nonzero;fill:rgb(91.104126%,11.183167%,14.370728%);fill-opacity:1;" d="M 33.636719 13.453125 C 24.289062 13.453125 15.023438 13.453125 5.707031 13.453125 C 5.6875 13.285156 5.671875 13.152344 5.648438 12.960938 C 5.886719 12.949219 6.070312 12.929688 6.25 12.929688 C 15.058594 12.925781 23.867188 12.929688 32.671875 12.921875 C 33.054688 12.921875 33.378906 12.992188 33.636719 13.453125 "/>
<path style=" stroke:none;fill-rule:nonzero;fill:rgb(91.104126%,11.183167%,14.370728%);fill-opacity:1;" d="M 35.578125 15.398438 C 25.722656 15.398438 15.945312 15.398438 6.144531 15.398438 C 6.113281 15.320312 6.066406 15.257812 6.058594 15.1875 C 6.046875 15.117188 6.070312 15.042969 6.082031 14.9375 C 6.242188 14.925781 6.390625 14.910156 6.535156 14.910156 C 15.761719 14.90625 24.984375 14.90625 34.207031 14.902344 C 34.378906 14.902344 34.550781 14.914062 34.71875 14.894531 C 35.078125 14.859375 35.34375 14.984375 35.578125 15.398438 "/>
<path style=" stroke:none;fill-rule:nonzero;fill:rgb(91.104126%,11.183167%,14.370728%);fill-opacity:1;" d="M 6.226562 9.453125 C 6.296875 9.300781 6.363281 9.15625 6.4375 8.992188 C 14.035156 8.992188 21.609375 8.992188 29.308594 8.992188 C 29.378906 9.082031 29.5 9.242188 29.617188 9.394531 C 29.605469 9.4375 29.605469 9.457031 29.597656 9.472656 C 29.589844 9.488281 29.570312 9.5 29.554688 9.503906 C 29.480469 9.519531 29.410156 9.542969 29.335938 9.542969 C 21.699219 9.542969 14.0625 9.539062 6.425781 9.53125 C 6.375 9.53125 6.324219 9.492188 6.226562 9.453125 "/>
<path style=" stroke:none;fill-rule:nonzero;fill:rgb(91.104126%,11.183167%,14.370728%);fill-opacity:1;" d="M 27.34375 7.023438 C 27.441406 7.121094 27.582031 7.261719 27.691406 7.367188 C 27.65625 7.484375 27.65625 7.503906 27.644531 7.519531 C 27.636719 7.535156 27.617188 7.550781 27.601562 7.550781 C 21.914062 7.566406 16.222656 7.578125 10.53125 7.589844 C 9.535156 7.59375 8.535156 7.589844 7.382812 7.589844 C 7.585938 7.332031 7.707031 7.183594 7.832031 7.023438 C 14.308594 7.023438 20.773438 7.023438 27.34375 7.023438 "/>
<path style=" stroke:none;fill-rule:nonzero;fill:rgb(91.104126%,11.183167%,14.370728%);fill-opacity:1;" d="M 41.355469 21.734375 C 41.523438 21.910156 41.710938 22.109375 41.972656 22.382812 C 41.746094 22.421875 41.628906 22.457031 41.511719 22.457031 C 37.867188 22.464844 34.222656 22.46875 30.574219 22.46875 C 29.859375 22.46875 29.253906 22.140625 28.636719 21.863281 C 28.644531 21.820312 28.652344 21.777344 28.660156 21.734375 C 32.875 21.734375 37.089844 21.734375 41.355469 21.734375 "/>
<path style=" stroke:none;fill-rule:nonzero;fill:rgb(91.104126%,11.183167%,14.370728%);fill-opacity:1;" d="M 25.769531 5.59375 C 20.246094 5.59375 14.832031 5.59375 9.289062 5.59375 C 9.445312 5.363281 9.550781 5.210938 9.667969 5.039062 C 10.101562 5.039062 10.515625 5.039062 10.929688 5.039062 C 15.542969 5.035156 20.160156 5.03125 24.773438 5.023438 C 25.175781 5.023438 25.507812 5.105469 25.769531 5.59375 "/>
<path style=" stroke:none;fill-rule:nonzero;fill:rgb(91.104126%,11.183167%,14.370728%);fill-opacity:1;" d="M 9.605469 3.617188 C 9.460938 3.476562 9.324219 3.339844 9.101562 3.117188 C 13.925781 3.117188 18.632812 3.117188 23.390625 3.117188 C 23.503906 3.242188 23.636719 3.386719 23.847656 3.617188 C 19.023438 3.617188 14.3125 3.617188 9.605469 3.617188 "/>
<path style=" stroke:none;fill-rule:nonzero;fill:rgb(91.104126%,11.183167%,14.370728%);fill-opacity:1;" d="M 6.226562 1.558594 C 6.371094 1.421875 6.511719 1.285156 6.671875 1.128906 C 11.550781 1.128906 16.441406 1.128906 21.371094 1.128906 C 21.503906 1.25 21.65625 1.386719 21.921875 1.632812 C 21.585938 1.664062 21.378906 1.695312 21.171875 1.695312 C 19.511719 1.699219 17.847656 1.699219 16.183594 1.699219 C 13.066406 1.695312 9.949219 1.695312 6.832031 1.691406 C 6.644531 1.691406 6.460938 1.691406 6.273438 1.691406 C 6.257812 1.648438 6.242188 1.605469 6.226562 1.558594 "/>
<path style=" stroke:none;fill-rule:nonzero;fill:rgb(91.104126%,11.183167%,14.370728%);fill-opacity:1;" d="M 27.246094 20.785156 C 27.902344 20.785156 28.445312 20.785156 28.992188 20.785156 C 32.789062 20.78125 36.589844 20.777344 40.386719 20.769531 C 40.816406 20.769531 41.226562 20.789062 41.46875 21.289062 C 41.328125 21.320312 41.207031 21.367188 41.085938 21.367188 C 37.648438 21.363281 34.207031 21.355469 30.769531 21.351562 C 29.9375 21.351562 29.105469 21.355469 28.273438 21.367188 C 27.871094 21.375 27.539062 21.269531 27.246094 20.785156 "/>
<path style=" stroke:none;fill-rule:nonzero;fill:rgb(91.104126%,11.183167%,14.370728%);fill-opacity:1;" d="M 20.9375 0.769531 C 17.375 0.769531 13.914062 0.769531 10.378906 0.769531 C 10.667969 0.28125 10.964844 0 11.488281 0.0078125 C 13.511719 0.0234375 15.535156 0.0273438 17.558594 0.03125 C 18.296875 0.03125 19.035156 0.0390625 19.769531 0.00390625 C 20.324219 -0.0195312 20.625 0.28125 20.9375 0.769531 "/>
<path style=" stroke:none;fill-rule:nonzero;fill:rgb(91.104126%,11.183167%,14.370728%);fill-opacity:1;" d="M 6.167969 2.046875 C 9.113281 2.046875 11.96875 2.046875 14.828125 2.046875 C 14.667969 2.582031 14.398438 2.777344 13.789062 2.78125 C 12.222656 2.785156 10.65625 2.78125 9.089844 2.78125 C 8.523438 2.78125 7.953125 2.757812 7.390625 2.789062 C 6.847656 2.824219 6.492188 2.59375 6.167969 2.046875 "/>
<path style=" stroke:none;fill-rule:nonzero;fill:rgb(91.104126%,11.183167%,14.370728%);fill-opacity:1;" d="M 5.871094 14.511719 C 5.828125 14.289062 5.796875 14.128906 5.75 13.898438 C 5.964844 13.875 6.140625 13.835938 6.316406 13.835938 C 8.335938 13.832031 10.351562 13.839844 12.371094 13.828125 C 12.90625 13.824219 13.269531 14.109375 13.742188 14.511719 C 11.050781 14.511719 8.492188 14.511719 5.871094 14.511719 "/>
<path style=" stroke:none;fill-rule:nonzero;fill:rgb(91.104126%,11.183167%,14.370728%);fill-opacity:1;" d="M 17.792969 19.855469 C 17.257812 20.191406 16.773438 20.503906 16.171875 20.511719 C 14.683594 20.523438 13.191406 20.53125 11.703125 20.507812 C 11.074219 20.496094 10.539062 20.152344 9.914062 19.886719 C 10.386719 19.6875 17.246094 19.671875 17.792969 19.855469 "/>
<path style=" stroke:none;fill-rule:nonzero;fill:rgb(91.104126%,11.183167%,14.370728%);fill-opacity:1;" d="M 26.234375 19.730469 C 28.125 19.726562 30.015625 19.722656 31.949219 19.734375 C 32.132812 19.933594 32.320312 20.136719 32.511719 20.347656 C 32.144531 20.542969 28.433594 20.617188 26.703125 20.476562 C 26.554688 20.304688 26.363281 20.09375 26.175781 19.878906 C 26.195312 19.832031 26.214844 19.78125 26.234375 19.730469 "/>
<path style=" stroke:none;fill-rule:nonzero;fill:rgb(91.104126%,11.183167%,14.370728%);fill-opacity:1;" d="M 10.6875 11.917969 C 10.820312 12.070312 10.945312 12.214844 11.0625 12.359375 C 11.082031 12.382812 11.070312 12.429688 11.074219 12.464844 C 10.6875 12.617188 6.675781 12.671875 5.671875 12.527344 C 5.652344 12.359375 5.628906 12.171875 5.609375 11.996094 C 6.089844 11.84375 9.527344 11.800781 10.6875 11.917969 "/>
<path style=" stroke:none;fill-rule:nonzero;fill:rgb(91.104126%,11.183167%,14.370728%);fill-opacity:1;" d="M 21.714844 14.398438 C 21.875 14.222656 22.035156 14.050781 22.234375 13.832031 C 22.945312 13.832031 23.679688 13.832031 24.414062 13.832031 C 24.8125 13.832031 25.210938 13.847656 25.605469 13.828125 C 26.085938 13.804688 26.359375 14.0625 26.609375 14.515625 C 24.957031 14.515625 23.371094 14.515625 21.785156 14.515625 C 21.761719 14.476562 21.738281 14.4375 21.714844 14.398438 "/>
<path style=" stroke:none;fill-rule:nonzero;fill:rgb(91.104126%,11.183167%,14.370728%);fill-opacity:1;" d="M 37.621094 22.824219 C 37.726562 22.792969 37.777344 22.765625 37.828125 22.765625 C 39.433594 22.761719 41.039062 22.757812 42.648438 22.75 C 42.996094 22.75 43.257812 22.875 43.425781 23.292969 C 43.207031 23.308594 43.027344 23.335938 42.851562 23.335938 C 41.925781 23.339844 40.996094 23.304688 40.074219 23.347656 C 39.21875 23.386719 38.445312 23.140625 37.621094 22.824219 "/>
<path style=" stroke:none;fill-rule:nonzero;fill:rgb(91.104126%,11.183167%,14.370728%);fill-opacity:1;" d="M 9.910156 9.957031 C 9.9375 10.175781 9.957031 10.351562 9.984375 10.582031 C 8.585938 10.582031 7.242188 10.582031 5.800781 10.582031 C 5.898438 10.316406 5.972656 10.121094 6.03125 9.957031 C 7.359375 9.957031 8.613281 9.957031 9.910156 9.957031 "/>
<path style=" stroke:none;fill-rule:nonzero;fill:rgb(91.104126%,11.183167%,14.370728%);fill-opacity:1;" d="M 6.632812 8.628906 C 6.816406 8.34375 6.945312 8.144531 7.082031 7.933594 C 8.097656 7.933594 9.085938 7.933594 10.171875 7.933594 C 10.089844 8.199219 10.023438 8.398438 9.949219 8.628906 C 8.863281 8.628906 7.816406 8.628906 6.632812 8.628906 "/>
<path style=" stroke:none;fill-rule:nonzero;fill:rgb(91.104126%,11.183167%,14.370728%);fill-opacity:1;" d="M 12.871094 4.125 C 12.714844 4.308594 12.558594 4.488281 12.382812 4.695312 C 11.542969 4.695312 10.699219 4.695312 9.796875 4.695312 C 9.78125 4.472656 9.769531 4.261719 9.75 4 C 10.816406 4 11.816406 4 12.816406 4 C 12.835938 4.042969 12.851562 4.082031 12.871094 4.125 "/>
<path style=" stroke:none;fill-rule:nonzero;fill:rgb(91.104126%,11.183167%,14.370728%);fill-opacity:1;" d="M 43.886719 24.367188 C 42.585938 24.605469 41.59375 24.425781 40.476562 23.738281 C 40.671875 23.707031 40.804688 23.667969 40.9375 23.664062 C 41.558594 23.65625 42.179688 23.675781 42.800781 23.652344 C 43.328125 23.632812 43.628906 23.90625 43.886719 24.367188 "/>
<path style=" stroke:none;fill-rule:nonzero;fill:rgb(91.104126%,11.183167%,14.370728%);fill-opacity:1;" d="M 8.320312 6.664062 C 8.507812 6.257812 8.710938 5.976562 9.042969 5.957031 C 9.730469 5.914062 10.425781 5.945312 11.238281 5.945312 C 11.070312 6.242188 10.949219 6.449219 10.828125 6.664062 C 9.992188 6.664062 9.207031 6.664062 8.320312 6.664062 "/>
<path style=" stroke:none;fill-rule:nonzero;fill:rgb(91.104126%,11.183167%,14.370728%);fill-opacity:1;" d="M 3.574219 18.535156 C 2.957031 18.535156 2.335938 18.535156 1.613281 18.535156 C 1.449219 18.359375 1.238281 18.132812 0.945312 17.820312 C 1.710938 17.722656 2.359375 17.773438 3.03125 17.78125 C 3.234375 17.992188 3.4375 18.207031 3.640625 18.417969 C 3.617188 18.457031 3.597656 18.496094 3.574219 18.535156 "/>
<path style=" stroke:none;fill-rule:nonzero;fill:rgb(91.104126%,11.183167%,14.370728%);fill-opacity:1;" d="M 5.042969 19.785156 C 5.199219 19.957031 5.394531 20.167969 5.589844 20.382812 C 5.574219 20.421875 5.554688 20.464844 5.539062 20.507812 C 4.945312 20.507812 4.347656 20.542969 3.761719 20.492188 C 3.414062 20.460938 3.207031 20.148438 2.976562 19.785156 C 3.6875 19.785156 4.332031 19.785156 5.042969 19.785156 "/>
<path style=" stroke:none;fill-rule:nonzero;fill:rgb(91.104126%,11.183167%,14.370728%);fill-opacity:1;" d="M 5 21.738281 C 5.640625 21.738281 6.285156 21.738281 6.957031 21.738281 C 7.128906 21.921875 7.316406 22.125 7.582031 22.40625 C 6.867188 22.507812 6.230469 22.441406 5.636719 22.457031 C 5.382812 22.230469 5.164062 22.039062 4.949219 21.84375 C 4.964844 21.808594 4.980469 21.773438 5 21.738281 "/>
<g clip-path="url(#clip1)" clip-rule="nonzero">
<path style=" stroke:none;fill-rule:nonzero;fill:rgb(91.104126%,11.183167%,14.370728%);fill-opacity:1;" d="M 42.753906 24.734375 C 43.578125 24.734375 44.273438 24.734375 44.914062 24.734375 C 45.105469 24.894531 45.257812 25.023438 45.40625 25.152344 C 45.386719 25.191406 45.363281 25.234375 45.34375 25.273438 C 44.496094 25.246094 43.589844 25.558594 42.753906 24.734375 "/>
</g>
<path style=" stroke:none;fill-rule:nonzero;fill:rgb(91.104126%,11.183167%,14.370728%);fill-opacity:1;" d="M 4.132812 20.78125 C 4.695312 20.78125 5.257812 20.773438 5.820312 20.785156 C 6.085938 20.792969 6.175781 20.882812 6.480469 21.34375 C 5.804688 21.34375 5.171875 21.375 4.546875 21.328125 C 4.375 21.3125 4.214844 21.078125 4.050781 20.945312 C 4.078125 20.890625 4.105469 20.835938 4.132812 20.78125 "/>
<path style=" stroke:none;fill-rule:nonzero;fill:rgb(91.104126%,11.183167%,14.370728%);fill-opacity:1;" d="M 4.492188 19.363281 C 3.804688 19.417969 3.179688 19.449219 2.558594 19.363281 C 2.390625 19.339844 2.25 19.132812 2.027344 18.953125 C 2.222656 18.886719 2.320312 18.832031 2.417969 18.828125 C 2.867188 18.816406 3.316406 18.824219 3.765625 18.820312 C 4.105469 18.816406 4.3125 18.984375 4.492188 19.363281 "/>
<path style=" stroke:none;fill-rule:nonzero;fill:rgb(91.104126%,11.183167%,14.370728%);fill-opacity:1;" d="M 6.003906 22.769531 C 6.679688 22.769531 7.292969 22.742188 7.898438 22.785156 C 8.082031 22.800781 8.253906 23.015625 8.5 23.183594 C 8.335938 23.261719 8.261719 23.328125 8.183594 23.328125 C 7.695312 23.339844 7.210938 23.335938 6.722656 23.335938 C 6.382812 23.335938 6.179688 23.160156 6.003906 22.769531 "/>
<path style=" stroke:none;fill-rule:nonzero;fill:rgb(91.104126%,11.183167%,14.370728%);fill-opacity:1;" d="M 8.503906 23.714844 C 8.503906 23.953125 8.503906 24.144531 8.503906 24.398438 C 8.175781 24.417969 7.882812 24.433594 7.574219 24.449219 C 7.34375 24.234375 7.132812 24.027344 6.820312 23.730469 C 7.453125 23.621094 7.957031 23.652344 8.503906 23.714844 "/>
<g clip-path="url(#clip2)" clip-rule="nonzero">
<path style=" stroke:none;fill-rule:nonzero;fill:rgb(91.104126%,11.183167%,14.370728%);fill-opacity:1;" d="M 8.046875 24.765625 C 8.183594 24.765625 8.316406 24.765625 8.492188 24.765625 C 8.507812 24.925781 8.519531 25.0625 8.527344 25.199219 C 8.496094 25.21875 8.460938 25.238281 8.429688 25.261719 C 8.285156 25.128906 8.140625 24.996094 7.996094 24.863281 C 8.011719 24.828125 8.03125 24.796875 8.046875 24.765625 "/>
</g>
<path style=" stroke:none;fill-rule:nonzero;fill:rgb(91.104126%,11.183167%,14.370728%);fill-opacity:1;" d="M 53.535156 22.050781 L 53.535156 5.167969 L 47.507812 5.167969 L 47.507812 1.730469 L 63.65625 1.730469 L 63.65625 5.167969 L 57.640625 5.167969 L 57.640625 22.050781 L 53.535156 22.050781 "/>
<path style=" stroke:none;fill-rule:nonzero;fill:rgb(91.104126%,11.183167%,14.370728%);fill-opacity:1;" d="M 63.585938 1.730469 L 67.691406 1.730469 L 67.691406 12.734375 C 67.691406 14.484375 67.738281 15.613281 67.84375 16.132812 C 68.019531 16.964844 68.4375 17.632812 69.097656 18.136719 C 69.757812 18.640625 70.660156 18.890625 71.808594 18.890625 C 72.972656 18.890625 73.847656 18.652344 74.441406 18.175781 C 75.03125 17.703125 75.386719 17.117188 75.507812 16.421875 C 75.628906 15.730469 75.6875 14.578125 75.6875 12.972656 L 75.6875 1.730469 L 79.792969 1.730469 L 79.792969 12.402344 C 79.792969 14.84375 79.679688 16.566406 79.460938 17.574219 C 79.238281 18.582031 78.828125 19.433594 78.230469 20.125 C 77.636719 20.820312 76.839844 21.371094 75.839844 21.78125 C 74.84375 22.191406 73.539062 22.398438 71.929688 22.398438 C 69.992188 22.398438 68.519531 22.175781 67.515625 21.726562 C 66.511719 21.277344 65.722656 20.695312 65.140625 19.980469 C 64.554688 19.261719 64.171875 18.511719 63.988281 17.726562 C 63.71875 16.5625 63.585938 14.84375 63.585938 12.570312 L 63.585938 1.730469 "/>
<path style=" stroke:none;fill-rule:nonzero;fill:rgb(91.104126%,11.183167%,14.370728%);fill-opacity:1;" d="M 82.882812 22.050781 L 82.882812 1.730469 L 86.878906 1.730469 L 95.195312 15.300781 L 95.195312 1.730469 L 99.007812 1.730469 L 99.007812 22.050781 L 94.890625 22.050781 L 86.695312 8.800781 L 86.695312 22.050781 L 82.882812 22.050781 "/>
<path style=" stroke:none;fill-rule:nonzero;fill:rgb(91.104126%,11.183167%,14.370728%);fill-opacity:1;" d="M 103.222656 22.050781 L 103.222656 1.730469 L 107.324219 1.730469 L 107.324219 22.050781 L 103.222656 22.050781 "/>
<path style=" stroke:none;fill-rule:nonzero;fill:rgb(91.104126%,11.183167%,14.370728%);fill-opacity:1;" d="M 110.195312 15.441406 L 114.1875 15.050781 C 114.429688 16.390625 114.914062 17.375 115.648438 18.003906 C 116.386719 18.632812 117.375 18.945312 118.625 18.945312 C 119.945312 18.945312 120.941406 18.667969 121.613281 18.109375 C 122.28125 17.550781 122.617188 16.894531 122.617188 16.144531 C 122.617188 15.664062 122.476562 15.257812 122.195312 14.917969 C 121.910156 14.582031 121.421875 14.289062 120.71875 14.039062 C 120.238281 13.871094 119.140625 13.578125 117.433594 13.152344 C 115.230469 12.605469 113.6875 11.9375 112.800781 11.140625 C 111.554688 10.023438 110.929688 8.660156 110.929688 7.050781 C 110.929688 6.015625 111.222656 5.050781 111.808594 4.148438 C 112.398438 3.246094 113.242188 2.558594 114.347656 2.089844 C 115.453125 1.617188 116.785156 1.382812 118.347656 1.382812 C 120.898438 1.382812 122.816406 1.941406 124.105469 3.058594 C 125.394531 4.179688 126.074219 5.671875 126.136719 7.539062 L 122.035156 7.71875 C 121.859375 6.671875 121.480469 5.921875 120.90625 5.464844 C 120.328125 5.007812 119.460938 4.777344 118.304688 4.777344 C 117.113281 4.777344 116.179688 5.023438 115.503906 5.511719 C 115.070312 5.828125 114.851562 6.25 114.851562 6.773438 C 114.851562 7.253906 115.054688 7.667969 115.464844 8.007812 C 115.980469 8.441406 117.238281 8.894531 119.234375 9.367188 C 121.230469 9.839844 122.707031 10.328125 123.664062 10.828125 C 124.621094 11.332031 125.367188 12.023438 125.910156 12.894531 C 126.449219 13.769531 126.71875 14.847656 126.71875 16.132812 C 126.71875 17.296875 126.398438 18.386719 125.75 19.40625 C 125.101562 20.421875 124.1875 21.175781 123.003906 21.671875 C 121.820312 22.164062 120.347656 22.414062 118.582031 22.414062 C 116.011719 22.414062 114.039062 21.820312 112.664062 20.632812 C 111.285156 19.445312 110.464844 17.714844 110.195312 15.441406 "/>
<path style=" stroke:none;fill-rule:nonzero;fill:rgb(91.104126%,11.183167%,14.370728%);fill-opacity:1;" d="M 140.09375 14.011719 L 137.292969 6.46875 L 134.550781 14.011719 Z M 147.648438 22.050781 L 143.1875 22.050781 L 141.410156 17.4375 L 133.285156 17.4375 L 131.609375 22.050781 L 127.257812 22.050781 L 135.171875 1.730469 L 139.511719 1.730469 L 147.648438 22.050781 "/>
<path style=" stroke:none;fill-rule:nonzero;fill:rgb(91.104126%,11.183167%,14.370728%);fill-opacity:1;" d="M 149.699219 22.050781 L 149.699219 1.730469 L 153.804688 1.730469 L 153.804688 22.050781 L 149.699219 22.050781 "/>
<path style=" stroke:none;fill-rule:nonzero;fill:rgb(91.104126%,11.183167%,14.370728%);fill-opacity:1;" d="M 161.832031 10.324219 L 164.867188 10.324219 C 166.835938 10.324219 168.066406 10.242188 168.554688 10.074219 C 169.046875 9.90625 169.429688 9.621094 169.707031 9.214844 C 169.984375 8.808594 170.121094 8.300781 170.121094 7.691406 C 170.121094 7.007812 169.9375 6.453125 169.574219 6.03125 C 169.210938 5.613281 168.695312 5.347656 168.027344 5.234375 C 167.695312 5.191406 166.699219 5.167969 165.035156 5.167969 L 161.832031 5.167969 Z M 157.726562 22.050781 L 157.726562 1.730469 L 166.363281 1.730469 C 168.535156 1.730469 170.113281 1.910156 171.097656 2.277344 C 172.085938 2.640625 172.871094 3.289062 173.464844 4.222656 C 174.054688 5.15625 174.351562 6.226562 174.351562 7.425781 C 174.351562 8.953125 173.902344 10.210938 173.007812 11.203125 C 172.109375 12.199219 170.769531 12.824219 168.984375 13.082031 C 169.871094 13.601562 170.605469 14.167969 171.183594 14.789062 C 171.761719 15.40625 172.539062 16.507812 173.519531 18.085938 L 176 22.050781 L 171.09375 22.050781 L 168.125 17.628906 C 167.070312 16.050781 166.351562 15.054688 165.964844 14.640625 C 165.574219 14.230469 165.164062 13.949219 164.730469 13.796875 C 164.296875 13.644531 163.605469 13.566406 162.664062 13.566406 L 161.832031 13.566406 L 161.832031 22.050781 L 157.726562 22.050781 "/>
</g>
</svg>
