<?xml version="1.0" encoding="UTF-8"?>
<svg xmlns="http://www.w3.org/2000/svg" xmlns:xlink="http://www.w3.org/1999/xlink" width="175.96pt" height="46.22pt" viewBox="0 0 175.96 46.22" version="1.1">
<defs>
<clipPath id="clip1">
  <path d="M 0 0 L 45 0 L 45 46.21875 L 0 46.21875 Z M 0 0 "/>
</clipPath>
<clipPath id="clip2">
  <path d="M 106 19 L 173 19 L 173 46.21875 L 106 46.21875 Z M 106 19 "/>
</clipPath>
<clipPath id="clip3">
  <path d="M 18 19 L 27 19 L 27 46.21875 L 18 46.21875 Z M 18 19 "/>
</clipPath>
<clipPath id="clip4">
  <path d="M 173 19 L 175.960938 19 L 175.960938 41 L 173 41 Z M 173 19 "/>
</clipPath>
<clipPath id="clip5">
  <path d="M 163 6 L 175.960938 6 L 175.960938 18 L 163 18 Z M 163 6 "/>
</clipPath>
</defs>
<g id="surface1">
<g clip-path="url(#clip1)" clip-rule="nonzero">
<path style=" stroke:none;fill-rule:evenodd;fill:rgb(15.783691%,17.648315%,41.532898%);fill-opacity:1;" d="M 44.84375 24.140625 C 43.796875 26.605469 42.691406 29.046875 41.714844 31.535156 C 39.867188 36.234375 38.09375 40.957031 36.289062 45.671875 C 36.253906 45.773438 36.210938 45.871094 36.109375 46.117188 C 35.808594 45.371094 35.566406 44.757812 35.320312 44.140625 C 32.761719 37.757812 30.136719 31.402344 27.148438 25.203125 C 27.070312 25.039062 26.984375 24.878906 26.898438 24.71875 C 26.019531 22.972656 25.140625 21.230469 24.257812 19.484375 C 23.195312 17.492188 22.09375 15.519531 20.675781 13.753906 C 20.238281 13.210938 19.738281 12.707031 19.226562 12.230469 C 18.609375 11.648438 17.851562 11.542969 17.109375 11.910156 C 16.515625 12.203125 15.9375 12.566406 15.441406 13 C 14.109375 14.152344 13.167969 15.621094 12.28125 17.121094 C 10.480469 20.171875 9.03125 23.398438 7.648438 26.652344 C 5.066406 32.734375 2.71875 38.90625 0.453125 45.113281 C 0.351562 45.390625 0.191406 45.652344 0.0117188 46.027344 C 0.0117188 40.59375 0.015625 35.289062 0 29.980469 C 0 29.519531 0.171875 29.15625 0.390625 28.789062 C 2.765625 24.847656 5.144531 20.90625 7.515625 16.960938 C 10.734375 11.605469 13.949219 6.246094 17.160156 0.886719 C 17.796875 -0.179688 17.792969 -0.1875 18.429688 0.835938 C 21.179688 5.265625 23.921875 9.695312 26.671875 14.125 C 26.800781 14.332031 26.941406 14.53125 27.078125 14.730469 C 27.917969 16.085938 28.757812 17.4375 29.597656 18.789062 C 30.125 19.675781 30.640625 20.570312 31.179688 21.449219 C 32.695312 23.90625 34.21875 26.359375 35.746094 28.808594 C 36.089844 29.359375 36.117188 29.359375 36.441406 28.828125 C 37.328125 27.375 38.195312 25.910156 39.074219 24.453125 C 40.144531 22.6875 41.21875 20.925781 42.292969 19.160156 C 42.359375 19.226562 42.445312 19.277344 42.484375 19.355469 C 43.265625 20.828125 44.039062 22.300781 44.808594 23.78125 C 44.859375 23.878906 44.832031 24.019531 44.84375 24.140625 "/>
</g>
<path style=" stroke:none;fill-rule:evenodd;fill:rgb(96.144104%,53.29895%,8.308411%);fill-opacity:1;" d="M 29.597656 18.789062 C 28.757812 17.4375 27.917969 16.085938 27.078125 14.730469 C 28.003906 13.238281 28.941406 11.757812 29.84375 10.253906 C 31.769531 7.054688 33.679688 3.851562 35.597656 0.648438 C 35.691406 0.492188 35.792969 0.34375 35.894531 0.1875 C 36.03125 -0.0273438 36.175781 0.00390625 36.3125 0.1875 C 36.421875 0.335938 36.523438 0.484375 36.617188 0.640625 C 38.550781 3.761719 40.480469 6.882812 42.410156 10.007812 C 43.222656 11.324219 44.035156 12.640625 44.855469 13.953125 C 44.929688 14.070312 45.074219 14.144531 45.1875 14.238281 C 45.207031 14.355469 45.191406 14.496094 45.246094 14.59375 C 45.957031 15.753906 46.675781 16.914062 47.402344 18.066406 C 47.457031 18.152344 47.597656 18.183594 47.703125 18.242188 C 47.90625 18.675781 48.074219 19.136719 48.324219 19.542969 C 50.253906 22.671875 52.203125 25.789062 54.128906 28.921875 C 54.277344 29.164062 54.386719 29.484375 54.386719 29.769531 C 54.402344 35.019531 54.398438 40.265625 54.394531 45.515625 C 54.394531 45.601562 54.359375 45.683594 54.316406 45.886719 C 53.832031 44.703125 53.390625 43.613281 52.945312 42.527344 C 51.65625 39.417969 50.40625 36.289062 49.070312 33.203125 C 47.847656 30.390625 46.535156 27.621094 45.257812 24.832031 C 45.144531 24.589844 44.980469 24.371094 44.84375 24.140625 C 44.832031 24.019531 44.859375 23.878906 44.808594 23.78125 C 44.039062 22.300781 43.265625 20.828125 42.484375 19.355469 C 42.445312 19.277344 42.359375 19.226562 42.292969 19.160156 C 42.257812 19.019531 42.246094 18.859375 42.175781 18.734375 C 41.800781 18.074219 41.414062 17.421875 41.03125 16.769531 C 40.144531 15.277344 39.171875 13.859375 37.960938 12.597656 C 36.902344 11.492188 35.761719 11.550781 34.613281 12.289062 C 33.542969 12.980469 32.71875 13.910156 32.019531 14.941406 C 31.171875 16.195312 30.402344 17.503906 29.597656 18.789062 "/>
<path style=" stroke:none;fill-rule:evenodd;fill:rgb(15.768433%,17.518616%,41.442871%);fill-opacity:1;" d="M 47.703125 18.242188 C 47.597656 18.183594 47.457031 18.152344 47.402344 18.066406 C 46.675781 16.914062 45.957031 15.753906 45.246094 14.59375 C 45.191406 14.496094 45.207031 14.355469 45.1875 14.238281 C 47.203125 10.898438 49.21875 7.558594 51.230469 4.214844 C 52 2.933594 52.75 1.644531 53.523438 0.367188 C 53.8125 -0.121094 53.890625 -0.125 54.195312 0.363281 C 55.535156 2.507812 56.867188 4.660156 58.199219 6.808594 C 61.871094 12.746094 65.539062 18.679688 69.214844 24.617188 C 70.09375 26.042969 70.992188 27.460938 71.855469 28.894531 C 72.019531 29.167969 72.152344 29.511719 72.152344 29.824219 C 72.167969 35.042969 72.160156 40.265625 72.15625 45.484375 C 72.15625 45.574219 72.132812 45.664062 72.09375 45.902344 C 71.726562 45.007812 71.402344 44.234375 71.09375 43.453125 C 68.925781 37.957031 66.621094 32.519531 64.136719 27.15625 C 62.546875 23.726562 60.894531 20.332031 58.964844 17.078125 C 58.269531 15.898438 57.46875 14.78125 56.675781 13.660156 C 56.382812 13.242188 56 12.875 55.625 12.515625 C 54.628906 11.566406 53.871094 11.46875 52.652344 12.128906 C 51.550781 12.722656 50.710938 13.621094 50.011719 14.621094 C 49.195312 15.796875 48.46875 17.03125 47.703125 18.242188 "/>
<g clip-path="url(#clip2)" clip-rule="nonzero">
<path style=" stroke:none;fill-rule:evenodd;fill:rgb(15.783691%,17.648315%,41.532898%);fill-opacity:1;" d="M 164.566406 35.085938 C 164.566406 34.050781 164.5625 33.015625 164.566406 31.980469 C 164.566406 31.621094 164.414062 31.441406 164.046875 31.488281 C 163.71875 31.53125 163.382812 31.546875 163.066406 31.628906 C 160.3125 32.335938 158.4375 34.808594 158.492188 37.648438 C 158.511719 38.464844 158.511719 38.484375 159.304688 38.492188 C 160.835938 38.515625 162.367188 38.484375 163.894531 38.535156 C 164.480469 38.554688 164.589844 38.316406 164.574219 37.816406 C 164.550781 36.90625 164.566406 35.996094 164.566406 35.085938 Z M 134.023438 38.480469 C 136.347656 38.480469 138.671875 38.496094 140.992188 38.472656 C 142.929688 38.457031 142.585938 38.800781 142.664062 36.738281 C 142.714844 35.410156 142.089844 34.472656 141.03125 33.882812 C 140.410156 33.535156 139.617188 33.402344 138.894531 33.371094 C 137.15625 33.300781 135.414062 33.347656 133.671875 33.347656 C 131.308594 33.347656 128.941406 33.339844 126.578125 33.351562 C 125.769531 33.355469 125.738281 33.390625 125.726562 34.203125 C 125.703125 35.363281 125.714844 36.523438 125.71875 37.6875 C 125.726562 38.460938 125.730469 38.472656 126.558594 38.476562 C 129.046875 38.484375 131.535156 38.480469 134.023438 38.480469 Z M 158.175781 40.011719 C 154.441406 40.011719 150.710938 40 146.976562 40.015625 C 138.5625 40.050781 130.144531 40.117188 121.730469 40.136719 C 118.710938 40.144531 115.6875 40.058594 112.664062 40.011719 C 111.761719 40 111.71875 39.914062 111.722656 40.96875 C 111.730469 42.503906 111.714844 44.035156 111.730469 45.570312 C 111.738281 46.046875 111.574219 46.226562 111.085938 46.21875 C 109.632812 46.199219 108.183594 46.21875 106.730469 46.207031 C 106.585938 46.207031 106.363281 46.140625 106.320312 46.046875 C 106.273438 45.929688 106.332031 45.707031 106.425781 45.601562 C 106.882812 45.101562 107.410156 44.707031 108.132812 44.703125 C 108.421875 44.699219 108.710938 44.703125 109.003906 44.699219 C 109.808594 44.675781 109.824219 44.675781 109.828125 43.882812 C 109.835938 40.644531 109.851562 37.410156 109.816406 34.175781 C 109.808594 33.242188 110.160156 32.578125 110.929688 32.109375 C 111.546875 31.734375 111.714844 31.816406 111.722656 32.523438 C 111.734375 33.972656 111.726562 35.425781 111.726562 36.875 C 111.726562 37.042969 111.726562 37.207031 111.726562 37.375 C 111.71875 38.617188 111.699219 38.46875 112.769531 38.472656 C 116.125 38.488281 119.484375 38.5 122.84375 38.515625 C 124.101562 38.519531 123.960938 38.558594 123.960938 37.355469 C 123.964844 35.53125 123.992188 33.707031 123.949219 31.882812 C 123.925781 30.960938 124.367188 30.40625 125.097656 29.988281 C 125.5625 29.722656 125.664062 29.777344 125.710938 30.285156 C 125.75 30.773438 125.625 31.441406 125.890625 31.691406 C 126.164062 31.949219 126.824219 31.820312 127.3125 31.820312 C 131.214844 31.828125 135.113281 31.839844 139.011719 31.820312 C 140.960938 31.808594 142.429688 32.660156 143.550781 34.191406 C 144.265625 35.164062 144.539062 36.273438 144.503906 37.464844 C 144.464844 38.628906 144.65625 38.472656 145.539062 38.476562 C 148.9375 38.476562 152.339844 38.480469 155.742188 38.492188 C 156.40625 38.492188 156.660156 38.644531 156.640625 37.597656 C 156.550781 32.824219 160.492188 29.765625 164.835938 29.785156 C 166.75 29.792969 166.414062 29.566406 166.433594 31.328125 C 166.449219 33.402344 166.429688 35.476562 166.441406 37.550781 C 166.445312 38.351562 166.46875 38.359375 167.285156 38.375 C 167.992188 38.390625 168.695312 38.386719 169.402344 38.375 C 170.320312 38.363281 170.335938 38.355469 170.335938 37.382812 C 170.339844 32.199219 170.355469 27.015625 170.320312 21.828125 C 170.316406 20.855469 170.621094 20.144531 171.453125 19.652344 C 172.027344 19.3125 172.164062 19.378906 172.191406 20.015625 C 172.199219 20.179688 172.191406 20.347656 172.191406 20.511719 C 172.191406 26.609375 172.191406 32.707031 172.191406 38.804688 C 172.191406 39.054688 172.25 39.324219 172.175781 39.546875 C 172.109375 39.730469 171.914062 39.941406 171.734375 39.992188 C 171.464844 40.066406 171.15625 40.011719 170.867188 40.011719 C 166.636719 40.011719 162.40625 40.011719 158.175781 40.011719 "/>
</g>
<g clip-path="url(#clip3)" clip-rule="nonzero">
<path style=" stroke:none;fill-rule:evenodd;fill:rgb(96.177673%,53.727722%,8.79364%);fill-opacity:1;" d="M 24.257812 19.484375 C 25.140625 21.230469 26.019531 22.972656 26.898438 24.71875 C 26.554688 25.421875 26.167969 26.109375 25.878906 26.832031 C 24.484375 30.289062 23.09375 33.75 21.746094 37.226562 C 20.726562 39.851562 19.773438 42.503906 18.78125 45.144531 C 18.675781 45.417969 18.515625 45.671875 18.304688 46.085938 C 18.304688 45.089844 18.304688 44.265625 18.304688 43.441406 C 18.304688 39.109375 18.320312 34.773438 18.292969 30.4375 C 18.289062 29.734375 18.46875 29.148438 18.828125 28.554688 C 20.582031 25.675781 22.304688 22.777344 24.039062 19.886719 C 24.117188 19.753906 24.183594 19.617188 24.257812 19.484375 "/>
</g>
<path style=" stroke:none;fill-rule:evenodd;fill:rgb(15.783691%,17.648315%,41.532898%);fill-opacity:1;" d="M 88.882812 35.003906 C 88.882812 34.132812 88.890625 33.265625 88.882812 32.394531 C 88.871094 31.433594 88.832031 31.402344 87.914062 31.5 C 84.898438 31.820312 82.3125 35.132812 82.824219 38.054688 C 82.855469 38.214844 83.128906 38.453125 83.292969 38.457031 C 84.988281 38.496094 86.683594 38.488281 88.382812 38.503906 C 88.75 38.507812 88.890625 38.34375 88.886719 37.980469 C 88.875 36.988281 88.882812 35.996094 88.882812 35.003906 Z M 98.570312 40.023438 C 96.914062 40.023438 95.261719 40.011719 93.605469 40.027344 C 89.800781 40.066406 85.992188 40.121094 82.183594 40.167969 C 81.894531 40.171875 81.589844 40.226562 81.320312 40.148438 C 81.144531 40.097656 80.898438 39.855469 80.898438 39.699219 C 80.902344 38.457031 80.796875 37.1875 81.027344 35.980469 C 81.550781 33.183594 83.386719 31.414062 85.957031 30.367188 C 87.285156 29.824219 88.699219 29.773438 90.113281 29.769531 C 90.640625 29.769531 90.714844 30.019531 90.710938 30.460938 C 90.695312 32.660156 90.703125 34.855469 90.703125 37.054688 C 90.703125 37.34375 90.714844 37.636719 90.703125 37.925781 C 90.679688 38.335938 90.835938 38.523438 91.273438 38.507812 C 92.761719 38.457031 94.246094 38.402344 95.734375 38.394531 C 97.84375 38.390625 99.957031 38.40625 102.066406 38.457031 C 102.625 38.472656 102.804688 38.273438 102.800781 37.75 C 102.785156 35.882812 102.839844 34.015625 102.777344 32.152344 C 102.746094 31.226562 103.027344 30.53125 103.789062 30.042969 C 103.976562 29.921875 104.28125 29.824219 104.453125 29.898438 C 104.582031 29.953125 104.628906 30.304688 104.628906 30.527344 C 104.640625 33.386719 104.636719 36.25 104.636719 39.109375 C 104.636719 40.011719 104.570312 40.09375 103.671875 40.101562 C 101.972656 40.113281 100.269531 40.105469 98.570312 40.105469 C 98.570312 40.078125 98.570312 40.050781 98.570312 40.023438 "/>
<g clip-path="url(#clip4)" clip-rule="nonzero">
<path style=" stroke:none;fill-rule:evenodd;fill:rgb(15.783691%,17.648315%,41.532898%);fill-opacity:1;" d="M 175.679688 29.78125 C 175.679688 32.851562 175.683594 35.917969 175.679688 38.988281 C 175.679688 40.066406 175.285156 40.382812 174.238281 40.097656 C 174.058594 40.050781 173.878906 39.792969 173.8125 39.59375 C 173.738281 39.367188 173.792969 39.101562 173.792969 38.851562 C 173.792969 32.757812 173.792969 26.664062 173.792969 20.570312 C 173.792969 20.320312 173.734375 20.050781 173.8125 19.828125 C 173.871094 19.648438 174.070312 19.449219 174.25 19.386719 C 174.472656 19.308594 174.742188 19.386719 174.988281 19.359375 C 175.546875 19.300781 175.695312 19.558594 175.691406 20.082031 C 175.671875 22.609375 175.679688 25.140625 175.679688 27.667969 C 175.679688 28.371094 175.679688 29.078125 175.679688 29.78125 "/>
</g>
<path style=" stroke:none;fill-rule:evenodd;fill:rgb(15.783691%,17.648315%,41.532898%);fill-opacity:1;" d="M 104.460938 42.542969 C 104.433594 43.046875 103.910156 43.476562 103.332031 43.464844 C 102.71875 43.457031 102.128906 42.929688 102.15625 42.421875 C 102.183594 41.929688 102.890625 41.3125 103.359375 41.363281 C 103.882812 41.421875 104.488281 42.066406 104.460938 42.542969 "/>
<path style=" stroke:none;fill-rule:evenodd;fill:rgb(15.783691%,17.648315%,41.532898%);fill-opacity:1;" d="M 88.695312 25.042969 C 89.328125 25.09375 89.84375 25.621094 89.777344 26.144531 C 89.710938 26.640625 89.171875 27.035156 88.605469 27.003906 C 87.992188 26.96875 87.457031 26.472656 87.453125 25.945312 C 87.449219 25.4375 88.066406 24.988281 88.695312 25.042969 "/>
<path style=" stroke:none;fill-rule:evenodd;fill:rgb(15.783691%,17.648315%,41.532898%);fill-opacity:1;" d="M 98.8125 41.363281 C 99.371094 41.355469 100.03125 41.988281 100.035156 42.535156 C 100.039062 43.074219 99.582031 43.472656 98.957031 43.472656 C 98.351562 43.472656 97.816406 42.980469 97.808594 42.421875 C 97.800781 41.90625 98.3125 41.367188 98.8125 41.363281 "/>
<path style=" stroke:none;fill-rule:evenodd;fill:rgb(15.783691%,17.648315%,41.532898%);fill-opacity:1;" d="M 84.140625 25.039062 C 84.773438 25.027344 85.308594 25.464844 85.347656 26.023438 C 85.382812 26.570312 84.960938 26.976562 84.320312 27.007812 C 83.699219 27.035156 83.164062 26.589844 83.121094 26.011719 C 83.082031 25.429688 83.472656 25.054688 84.140625 25.039062 "/>
<path style=" stroke:none;fill-rule:nonzero;fill:rgb(15.783691%,17.648315%,41.532898%);fill-opacity:1;" d="M 89.640625 12.261719 L 87.011719 6.777344 L 84.59375 12.261719 Z M 83.058594 15.65625 C 82.996094 15.796875 82.925781 15.953125 82.851562 16.121094 C 82.773438 16.292969 82.734375 16.425781 82.734375 16.515625 C 82.734375 16.6875 82.867188 16.773438 83.128906 16.773438 L 83.128906 17.050781 L 80.269531 17.050781 L 80.269531 16.773438 C 80.363281 16.773438 80.445312 16.765625 80.515625 16.75 C 80.582031 16.734375 80.648438 16.6875 80.710938 16.609375 C 80.773438 16.53125 80.84375 16.421875 80.921875 16.273438 C 80.996094 16.125 81.097656 15.929688 81.222656 15.679688 L 85.429688 6.289062 C 85.554688 6.023438 85.648438 5.828125 85.710938 5.695312 C 85.773438 5.5625 85.800781 5.457031 85.800781 5.382812 C 85.800781 5.195312 85.664062 5.101562 85.382812 5.101562 L 85.382812 4.824219 L 88.777344 4.824219 L 88.777344 5.101562 C 88.53125 5.101562 88.40625 5.195312 88.40625 5.382812 C 88.40625 5.472656 88.445312 5.59375 88.523438 5.742188 C 88.601562 5.890625 88.703125 6.09375 88.824219 6.359375 L 93.289062 15.609375 C 93.429688 15.890625 93.535156 16.105469 93.613281 16.261719 C 93.691406 16.417969 93.765625 16.53125 93.835938 16.609375 C 93.90625 16.6875 93.976562 16.734375 94.054688 16.75 C 94.132812 16.765625 94.242188 16.773438 94.382812 16.773438 L 94.382812 17.050781 L 91.152344 17.050781 L 91.152344 16.773438 C 91.335938 16.773438 91.460938 16.746094 91.523438 16.691406 C 91.585938 16.636719 91.613281 16.554688 91.613281 16.449219 C 91.613281 16.371094 91.59375 16.289062 91.554688 16.203125 C 91.519531 16.117188 91.4375 15.9375 91.3125 15.65625 L 90.429688 13.796875 L 83.851562 13.796875 L 83.058594 15.65625 "/>
<path style=" stroke:none;fill-rule:nonzero;fill:rgb(15.783691%,17.648315%,41.532898%);fill-opacity:1;" d="M 97.839844 6.808594 C 97.652344 6.808594 97.527344 6.855469 97.460938 6.949219 C 97.394531 7.042969 97.359375 7.179688 97.359375 7.367188 L 97.359375 15.738281 L 104.054688 15.738281 C 104.519531 15.738281 104.753906 15.539062 104.753906 15.140625 L 104.992188 15.140625 L 104.992188 17.429688 L 104.753906 17.429688 C 104.753906 17.179688 104.519531 17.050781 104.054688 17.050781 L 95.207031 17.050781 L 95.207031 16.8125 C 95.394531 16.8125 95.519531 16.769531 95.585938 16.683594 C 95.652344 16.597656 95.6875 16.480469 95.6875 16.335938 L 95.6875 7.289062 C 95.6875 7.140625 95.652344 7.027344 95.585938 6.9375 C 95.519531 6.851562 95.394531 6.808594 95.207031 6.808594 L 95.207031 6.570312 L 97.839844 6.570312 L 97.839844 6.808594 "/>
<path style=" stroke:none;fill-rule:nonzero;fill:rgb(15.783691%,17.648315%,41.532898%);fill-opacity:1;" d="M 106.296875 16.773438 C 106.542969 16.773438 106.703125 16.722656 106.78125 16.621094 C 106.859375 16.519531 106.898438 16.386719 106.898438 16.214844 L 106.898438 5.660156 C 106.898438 5.488281 106.855469 5.355469 106.769531 5.253906 C 106.6875 5.152344 106.511719 5.101562 106.246094 5.101562 L 106.246094 4.824219 L 110.179688 4.824219 L 110.179688 5.101562 C 109.820312 5.101562 109.644531 5.203125 109.644531 5.40625 C 109.644531 5.496094 109.675781 5.582031 109.734375 5.660156 L 113.523438 13.101562 L 117.453125 5.660156 C 117.46875 5.613281 117.488281 5.566406 117.511719 5.519531 C 117.535156 5.472656 117.546875 5.425781 117.546875 5.382812 C 117.546875 5.304688 117.503906 5.238281 117.417969 5.183594 C 117.335938 5.128906 117.183594 5.101562 116.964844 5.101562 L 116.964844 4.824219 L 121.128906 4.824219 L 121.128906 5.101562 C 120.863281 5.101562 120.6875 5.152344 120.605469 5.253906 C 120.519531 5.355469 120.476562 5.488281 120.476562 5.660156 L 120.476562 16.214844 C 120.476562 16.386719 120.519531 16.519531 120.605469 16.621094 C 120.6875 16.722656 120.863281 16.773438 121.128906 16.773438 L 121.128906 17.050781 L 117.871094 17.050781 L 117.871094 16.773438 C 118.136719 16.773438 118.3125 16.722656 118.394531 16.621094 C 118.480469 16.519531 118.523438 16.386719 118.523438 16.214844 L 118.523438 7.03125 L 118.453125 6.984375 L 113.503906 16.820312 L 108.550781 6.984375 L 108.527344 7.03125 L 108.527344 16.214844 C 108.511719 16.386719 108.542969 16.519531 108.621094 16.621094 C 108.695312 16.722656 108.84375 16.773438 109.0625 16.773438 L 109.0625 17.050781 L 106.296875 17.050781 L 106.296875 16.773438 "/>
<path style=" stroke:none;fill-rule:nonzero;fill:rgb(15.783691%,17.648315%,41.532898%);fill-opacity:1;" d="M 130.269531 12.945312 L 128.015625 8.242188 L 125.941406 12.945312 Z M 124.628906 15.855469 C 124.574219 15.976562 124.515625 16.109375 124.449219 16.253906 C 124.382812 16.402344 124.347656 16.515625 124.347656 16.59375 C 124.347656 16.738281 124.460938 16.8125 124.6875 16.8125 L 124.6875 17.050781 L 122.234375 17.050781 L 122.234375 16.8125 C 122.316406 16.8125 122.386719 16.804688 122.445312 16.792969 C 122.507812 16.78125 122.5625 16.738281 122.613281 16.671875 C 122.667969 16.605469 122.726562 16.511719 122.796875 16.382812 C 122.859375 16.257812 122.945312 16.089844 123.054688 15.875 L 126.660156 7.824219 C 126.765625 7.601562 126.847656 7.429688 126.898438 7.316406 C 126.953125 7.203125 126.980469 7.113281 126.980469 7.046875 C 126.980469 6.890625 126.859375 6.808594 126.621094 6.808594 L 126.621094 6.570312 L 129.53125 6.570312 L 129.53125 6.808594 C 129.316406 6.808594 129.210938 6.890625 129.210938 7.046875 C 129.210938 7.128906 129.242188 7.230469 129.3125 7.355469 C 129.378906 7.484375 129.464844 7.660156 129.570312 7.886719 L 133.394531 15.816406 C 133.515625 16.054688 133.609375 16.242188 133.675781 16.375 C 133.742188 16.507812 133.804688 16.605469 133.863281 16.671875 C 133.925781 16.738281 133.984375 16.78125 134.054688 16.792969 C 134.121094 16.804688 134.214844 16.8125 134.332031 16.8125 L 134.332031 17.050781 L 131.5625 17.050781 L 131.5625 16.8125 C 131.722656 16.8125 131.828125 16.789062 131.882812 16.742188 C 131.933594 16.695312 131.960938 16.628906 131.960938 16.535156 C 131.960938 16.46875 131.945312 16.398438 131.910156 16.324219 C 131.878906 16.25 131.808594 16.09375 131.703125 15.855469 L 130.945312 14.261719 L 125.304688 14.261719 L 124.628906 15.855469 "/>
<path style=" stroke:none;fill-rule:nonzero;fill:rgb(15.783691%,17.648315%,41.532898%);fill-opacity:1;" d="M 136.164062 13.902344 C 136.125 13.996094 136.105469 14.082031 136.105469 14.164062 C 136.105469 14.347656 136.222656 14.542969 136.453125 14.742188 C 136.6875 14.941406 136.992188 15.121094 137.371094 15.289062 C 137.75 15.453125 138.179688 15.589844 138.65625 15.695312 C 139.136719 15.804688 139.617188 15.855469 140.109375 15.855469 C 141.371094 15.855469 142.285156 15.671875 142.851562 15.296875 C 143.414062 14.925781 143.699219 14.449219 143.699219 13.863281 C 143.699219 13.585938 143.628906 13.351562 143.488281 13.167969 C 143.351562 12.980469 143.15625 12.835938 142.910156 12.738281 C 142.664062 12.636719 142.378906 12.566406 142.054688 12.527344 C 141.730469 12.488281 141.378906 12.46875 141.007812 12.46875 C 140.394531 12.46875 139.75 12.464844 139.066406 12.457031 C 138.382812 12.453125 137.753906 12.367188 137.183594 12.199219 C 136.609375 12.035156 136.140625 11.757812 135.765625 11.371094 C 135.394531 10.988281 135.210938 10.417969 135.210938 9.660156 C 135.210938 9.179688 135.34375 8.746094 135.605469 8.355469 C 135.871094 7.960938 136.234375 7.625 136.691406 7.347656 C 137.152344 7.070312 137.691406 6.847656 138.316406 6.691406 C 138.941406 6.53125 139.617188 6.449219 140.351562 6.449219 C 140.921875 6.449219 141.414062 6.492188 141.835938 6.570312 C 142.253906 6.648438 142.613281 6.738281 142.921875 6.828125 C 143.226562 6.921875 143.480469 7.007812 143.679688 7.089844 C 143.878906 7.167969 144.042969 7.207031 144.175781 7.207031 C 144.320312 7.207031 144.429688 7.179688 144.496094 7.128906 C 144.5625 7.074219 144.628906 7.015625 144.695312 6.949219 L 144.933594 7.046875 L 143.839844 9.339844 L 143.617188 9.199219 C 143.632812 9.160156 143.640625 9.074219 143.640625 8.941406 C 143.640625 8.847656 143.558594 8.734375 143.398438 8.601562 C 143.238281 8.46875 143.015625 8.339844 142.722656 8.214844 C 142.429688 8.089844 142.082031 7.980469 141.675781 7.894531 C 141.269531 7.808594 140.828125 7.765625 140.351562 7.765625 C 139.273438 7.765625 138.421875 7.9375 137.789062 8.285156 C 137.15625 8.628906 136.84375 9.082031 136.84375 9.640625 C 136.84375 9.890625 136.914062 10.09375 137.054688 10.246094 C 137.191406 10.398438 137.382812 10.519531 137.628906 10.605469 C 137.875 10.691406 138.160156 10.75 138.488281 10.773438 C 138.8125 10.800781 139.160156 10.816406 139.53125 10.816406 C 140.15625 10.816406 140.808594 10.824219 141.484375 10.84375 C 142.164062 10.863281 142.789062 10.96875 143.359375 11.152344 C 143.929688 11.339844 144.402344 11.636719 144.773438 12.050781 C 145.144531 12.460938 145.332031 13.066406 145.332031 13.863281 C 145.332031 14.289062 145.222656 14.699219 145.003906 15.089844 C 144.785156 15.480469 144.453125 15.828125 144.015625 16.136719 C 143.578125 16.441406 143.035156 16.679688 142.394531 16.851562 C 141.746094 17.027344 141 17.113281 140.152344 17.113281 C 139.433594 17.113281 138.8125 17.054688 138.289062 16.941406 C 137.761719 16.828125 137.3125 16.695312 136.941406 16.542969 C 136.570312 16.390625 136.265625 16.25 136.027344 16.125 C 135.785156 16 135.59375 15.9375 135.449219 15.9375 C 135.316406 15.9375 135.175781 16.015625 135.027344 16.175781 L 134.828125 16.054688 L 135.90625 13.765625 L 136.164062 13.902344 "/>
<path style=" stroke:none;fill-rule:nonzero;fill:rgb(15.783691%,17.648315%,41.532898%);fill-opacity:1;" d="M 153.820312 11.152344 C 154.632812 11.152344 155.203125 11 155.535156 10.695312 C 155.867188 10.390625 156.03125 9.972656 156.03125 9.441406 C 156.03125 9.175781 156 8.949219 155.933594 8.761719 C 155.867188 8.578125 155.746094 8.421875 155.574219 8.292969 C 155.402344 8.167969 155.164062 8.074219 154.867188 8.015625 C 154.566406 7.957031 154.1875 7.925781 153.722656 7.925781 L 149.457031 7.925781 L 149.457031 11.152344 Z M 149.457031 16.335938 C 149.457031 16.480469 149.488281 16.597656 149.558594 16.683594 C 149.621094 16.769531 149.75 16.8125 149.9375 16.8125 L 149.9375 17.050781 L 147.304688 17.050781 L 147.304688 16.8125 C 147.492188 16.8125 147.617188 16.769531 147.683594 16.683594 C 147.75 16.597656 147.78125 16.480469 147.78125 16.335938 L 147.78125 7.289062 C 147.78125 7.140625 147.75 7.027344 147.683594 6.9375 C 147.617188 6.851562 147.492188 6.808594 147.304688 6.808594 L 147.304688 6.570312 L 153.980469 6.570312 C 155.296875 6.570312 156.238281 6.820312 156.8125 7.316406 C 157.382812 7.816406 157.667969 8.535156 157.667969 9.480469 C 157.667969 10.316406 157.449219 10.980469 157.011719 11.472656 C 156.570312 11.964844 155.855469 12.277344 154.855469 12.410156 L 157.367188 16.292969 C 157.515625 16.507812 157.628906 16.648438 157.71875 16.714844 C 157.804688 16.78125 157.945312 16.8125 158.144531 16.8125 L 158.144531 17.050781 L 155.273438 17.050781 L 155.273438 16.8125 C 155.449219 16.8125 155.558594 16.800781 155.605469 16.773438 C 155.652344 16.746094 155.675781 16.699219 155.675781 16.632812 C 155.675781 16.554688 155.640625 16.480469 155.574219 16.414062 L 153.125 12.507812 L 149.457031 12.507812 L 149.457031 16.335938 "/>
<path style=" stroke:none;fill-rule:nonzero;fill:rgb(15.783691%,17.648315%,41.532898%);fill-opacity:1;" d="M 160.117188 16.8125 C 160.304688 16.8125 160.429688 16.769531 160.496094 16.683594 C 160.5625 16.597656 160.597656 16.480469 160.597656 16.335938 L 160.597656 7.289062 C 160.597656 7.140625 160.5625 7.027344 160.496094 6.9375 C 160.429688 6.851562 160.304688 6.808594 160.117188 6.808594 L 160.117188 6.570312 L 162.746094 6.570312 L 162.746094 6.808594 C 162.5625 6.808594 162.4375 6.851562 162.367188 6.9375 C 162.304688 7.027344 162.269531 7.140625 162.269531 7.289062 L 162.269531 16.335938 C 162.269531 16.480469 162.304688 16.597656 162.367188 16.683594 C 162.4375 16.769531 162.5625 16.8125 162.746094 16.8125 L 162.746094 17.050781 L 160.117188 17.050781 L 160.117188 16.8125 "/>
<g clip-path="url(#clip5)" clip-rule="nonzero">
<path style=" stroke:none;fill-rule:nonzero;fill:rgb(15.783691%,17.648315%,41.532898%);fill-opacity:1;" d="M 171.894531 12.945312 L 169.644531 8.242188 L 167.570312 12.945312 Z M 166.253906 15.855469 C 166.199219 15.976562 166.140625 16.109375 166.074219 16.253906 C 166.007812 16.402344 165.976562 16.515625 165.976562 16.59375 C 165.976562 16.738281 166.089844 16.8125 166.3125 16.8125 L 166.3125 17.050781 L 163.863281 17.050781 L 163.863281 16.8125 C 163.941406 16.8125 164.011719 16.804688 164.070312 16.792969 C 164.132812 16.78125 164.1875 16.738281 164.242188 16.671875 C 164.296875 16.605469 164.355469 16.511719 164.421875 16.382812 C 164.488281 16.257812 164.574219 16.089844 164.679688 15.875 L 168.285156 7.824219 C 168.394531 7.601562 168.472656 7.429688 168.527344 7.316406 C 168.578125 7.203125 168.605469 7.113281 168.605469 7.046875 C 168.605469 6.890625 168.484375 6.808594 168.246094 6.808594 L 168.246094 6.570312 L 171.15625 6.570312 L 171.15625 6.808594 C 170.945312 6.808594 170.839844 6.890625 170.839844 7.046875 C 170.839844 7.128906 170.871094 7.230469 170.9375 7.355469 C 171.003906 7.484375 171.089844 7.660156 171.195312 7.886719 L 175.023438 15.816406 C 175.144531 16.054688 175.234375 16.242188 175.300781 16.375 C 175.367188 16.507812 175.433594 16.605469 175.492188 16.671875 C 175.550781 16.738281 175.613281 16.78125 175.679688 16.792969 C 175.746094 16.804688 175.839844 16.8125 175.960938 16.8125 L 175.960938 17.050781 L 173.1875 17.050781 L 173.1875 16.8125 C 173.347656 16.8125 173.453125 16.789062 173.507812 16.742188 C 173.5625 16.695312 173.589844 16.628906 173.589844 16.535156 C 173.589844 16.46875 173.570312 16.398438 173.539062 16.324219 C 173.503906 16.25 173.4375 16.09375 173.328125 15.855469 L 172.570312 14.261719 L 166.933594 14.261719 L 166.253906 15.855469 "/>
</g>
</g>
</svg>
