<?xml version="1.0" encoding="UTF-8"?>
<svg xmlns="http://www.w3.org/2000/svg" xmlns:xlink="http://www.w3.org/1999/xlink" width="176pt" height="24.93pt" viewBox="0 0 176 24.93" version="1.1">
<defs>
<clipPath id="clip1">
  <path d="M 138 6 L 176 6 L 176 24.929688 L 138 24.929688 Z M 138 6 "/>
</clipPath>
<clipPath id="clip2">
  <path d="M 0 0 L 138 0 L 138 24.929688 L 0 24.929688 Z M 0 0 "/>
</clipPath>
</defs>
<g id="surface1">
<g clip-path="url(#clip1)" clip-rule="nonzero">
<path style=" stroke:none;fill-rule:nonzero;fill:rgb(94.856262%,35.919189%,24.217224%);fill-opacity:1;" d="M 166.519531 6.8125 L 170.316406 6.8125 L 170.316406 9.039062 C 170.730469 8.160156 171.277344 7.496094 171.957031 7.039062 C 172.640625 6.585938 173.386719 6.359375 174.199219 6.359375 C 174.773438 6.359375 175.371094 6.511719 176 6.8125 L 174.621094 10.628906 C 174.101562 10.367188 173.671875 10.238281 173.339844 10.238281 C 172.65625 10.238281 172.078125 10.660156 171.609375 11.503906 C 171.136719 12.347656 170.902344 14.003906 170.902344 16.472656 L 170.917969 17.332031 L 170.917969 24.476562 L 166.519531 24.476562 Z M 159.402344 6.8125 L 163.851562 6.8125 L 163.851562 24.476562 L 159.402344 24.476562 Z M 147.292969 10.449219 C 145.917969 10.449219 144.777344 10.933594 143.867188 11.902344 C 142.957031 12.871094 142.503906 14.113281 142.503906 15.628906 C 142.503906 17.152344 142.964844 18.410156 143.890625 19.394531 C 144.816406 20.378906 145.957031 20.871094 147.308594 20.871094 C 148.703125 20.871094 149.863281 20.386719 150.78125 19.417969 C 151.703125 18.449219 152.160156 17.179688 152.160156 15.613281 C 152.160156 14.074219 151.703125 12.832031 150.78125 11.878906 C 149.863281 10.925781 148.699219 10.449219 147.292969 10.449219 Z M 151.949219 6.8125 L 156.367188 6.8125 L 156.367188 24.476562 L 151.949219 24.476562 L 151.949219 22.609375 C 151.085938 23.429688 150.21875 24.023438 149.347656 24.386719 C 148.476562 24.75 147.53125 24.929688 146.511719 24.929688 C 144.230469 24.929688 142.253906 24.046875 140.589844 22.277344 C 138.921875 20.507812 138.089844 18.304688 138.089844 15.675781 C 138.089844 12.949219 138.894531 10.714844 140.507812 8.972656 C 142.117188 7.230469 144.078125 6.359375 146.382812 6.359375 C 147.445312 6.359375 148.4375 6.558594 149.371094 6.960938 C 150.300781 7.359375 151.160156 7.960938 151.949219 8.761719 L 151.949219 6.8125 "/>
</g>
<g clip-path="url(#clip2)" clip-rule="nonzero">
<path style=" stroke:none;fill-rule:nonzero;fill:rgb(20.153809%,40.515137%,67.851257%);fill-opacity:1;" d="M 137.015625 9.28125 L 134.269531 12.023438 C 133.15625 10.921875 132.144531 10.367188 131.234375 10.367188 C 130.738281 10.367188 130.347656 10.472656 130.066406 10.683594 C 129.785156 10.894531 129.644531 11.160156 129.644531 11.472656 C 129.644531 11.710938 129.734375 11.929688 129.910156 12.128906 C 130.089844 12.328125 130.53125 12.601562 131.234375 12.949219 L 132.859375 13.761719 C 134.566406 14.605469 135.742188 15.464844 136.382812 16.34375 C 137.019531 17.21875 137.339844 18.246094 137.339844 19.425781 C 137.339844 20.996094 136.761719 22.304688 135.609375 23.355469 C 134.457031 24.40625 132.914062 24.929688 130.976562 24.929688 C 128.398438 24.929688 126.34375 23.921875 124.808594 21.910156 L 127.535156 18.941406 C 128.054688 19.546875 128.660156 20.035156 129.359375 20.410156 C 130.058594 20.78125 130.679688 20.96875 131.21875 20.96875 C 131.804688 20.96875 132.273438 20.828125 132.632812 20.546875 C 132.988281 20.265625 133.167969 19.941406 133.167969 19.574219 C 133.167969 18.890625 132.523438 18.226562 131.234375 17.574219 L 129.742188 16.828125 C 126.886719 15.390625 125.457031 13.589844 125.457031 11.421875 C 125.457031 10.027344 125.992188 8.835938 127.070312 7.84375 C 128.148438 6.855469 129.523438 6.359375 131.203125 6.359375 C 132.351562 6.359375 133.429688 6.609375 134.441406 7.113281 C 135.453125 7.617188 136.3125 8.339844 137.015625 9.28125 Z M 114.878906 10.449219 C 113.507812 10.449219 112.363281 10.933594 111.453125 11.902344 C 110.546875 12.871094 110.089844 14.113281 110.089844 15.628906 C 110.089844 17.152344 110.554688 18.410156 111.480469 19.394531 C 112.40625 20.378906 113.542969 20.871094 114.894531 20.871094 C 116.292969 20.871094 117.449219 20.386719 118.371094 19.417969 C 119.289062 18.449219 119.75 17.179688 119.75 15.613281 C 119.75 14.074219 119.289062 12.832031 118.371094 11.878906 C 117.449219 10.925781 116.285156 10.449219 114.878906 10.449219 Z M 119.539062 6.8125 L 123.953125 6.8125 L 123.953125 24.476562 L 119.539062 24.476562 L 119.539062 22.609375 C 118.671875 23.429688 117.804688 24.023438 116.933594 24.386719 C 116.0625 24.75 115.117188 24.929688 114.101562 24.929688 C 111.816406 24.929688 109.84375 24.046875 108.175781 22.277344 C 106.507812 20.507812 105.675781 18.304688 105.675781 15.675781 C 105.675781 12.949219 106.480469 10.714844 108.09375 8.972656 C 109.707031 7.230469 111.664062 6.359375 113.972656 6.359375 C 115.03125 6.359375 116.027344 6.558594 116.957031 6.960938 C 117.890625 7.359375 118.75 7.960938 119.539062 8.761719 Z M 77.136719 6.8125 L 81.582031 6.8125 L 81.582031 8.84375 C 82.339844 8.007812 83.183594 7.386719 84.105469 6.976562 C 85.03125 6.5625 86.042969 6.359375 87.136719 6.359375 C 88.238281 6.359375 89.234375 6.628906 90.121094 7.171875 C 91.007812 7.710938 91.722656 8.5 92.265625 9.539062 C 92.96875 8.5 93.832031 7.710938 94.855469 7.171875 C 95.875 6.628906 96.992188 6.359375 98.207031 6.359375 C 99.460938 6.359375 100.566406 6.652344 101.519531 7.234375 C 102.46875 7.820312 103.15625 8.582031 103.570312 9.523438 C 103.988281 10.464844 104.195312 11.996094 104.195312 14.117188 L 104.195312 24.476562 L 99.730469 24.476562 L 99.730469 15.515625 C 99.730469 13.511719 99.484375 12.15625 98.984375 11.449219 C 98.488281 10.738281 97.742188 10.382812 96.746094 10.382812 C 95.988281 10.382812 95.308594 10.601562 94.707031 11.035156 C 94.105469 11.46875 93.660156 12.066406 93.367188 12.828125 C 93.078125 13.589844 92.929688 14.816406 92.929688 16.503906 L 92.929688 24.476562 L 88.464844 24.476562 L 88.464844 15.921875 C 88.464844 14.339844 88.347656 13.195312 88.117188 12.488281 C 87.882812 11.777344 87.535156 11.25 87.070312 10.902344 C 86.605469 10.558594 86.042969 10.382812 85.382812 10.382812 C 84.644531 10.382812 83.976562 10.605469 83.378906 11.042969 C 82.777344 11.480469 82.328125 12.09375 82.03125 12.882812 C 81.730469 13.675781 81.582031 14.917969 81.582031 16.617188 L 81.582031 24.476562 L 77.136719 24.476562 Z M 65.84375 10.449219 C 64.46875 10.449219 63.328125 10.933594 62.417969 11.902344 C 61.511719 12.871094 61.054688 14.113281 61.054688 15.628906 C 61.054688 17.152344 61.519531 18.410156 62.445312 19.394531 C 63.367188 20.378906 64.507812 20.871094 65.859375 20.871094 C 67.257812 20.871094 68.414062 20.386719 69.335938 19.417969 C 70.253906 18.449219 70.714844 17.179688 70.714844 15.613281 C 70.714844 14.074219 70.253906 12.832031 69.335938 11.878906 C 68.414062 10.925781 67.253906 10.449219 65.84375 10.449219 Z M 70.503906 6.8125 L 74.917969 6.8125 L 74.917969 24.476562 L 70.503906 24.476562 L 70.503906 22.609375 C 69.636719 23.429688 68.769531 24.023438 67.898438 24.386719 C 67.027344 24.75 66.082031 24.929688 65.066406 24.929688 C 62.78125 24.929688 60.808594 24.046875 59.140625 22.277344 C 57.472656 20.507812 56.640625 18.304688 56.640625 15.675781 C 56.640625 12.949219 57.445312 10.714844 59.058594 8.972656 C 60.671875 7.230469 62.628906 6.359375 64.9375 6.359375 C 65.996094 6.359375 66.992188 6.558594 67.921875 6.960938 C 68.851562 7.359375 69.714844 7.960938 70.503906 8.761719 Z M 39.445312 -0.00390625 L 43.847656 -0.00390625 L 43.847656 8.597656 C 44.710938 7.851562 45.582031 7.292969 46.460938 6.917969 C 47.335938 6.546875 48.222656 6.359375 49.121094 6.359375 C 50.875 6.359375 52.351562 6.964844 53.554688 8.175781 C 54.582031 9.226562 55.097656 10.769531 55.097656 12.804688 L 55.097656 24.476562 L 50.730469 24.476562 L 50.730469 16.730469 C 50.730469 14.6875 50.632812 13.300781 50.4375 12.578125 C 50.242188 11.851562 49.910156 11.308594 49.4375 10.953125 C 48.96875 10.59375 48.386719 10.417969 47.695312 10.417969 C 46.796875 10.417969 46.023438 10.714844 45.378906 11.308594 C 44.734375 11.90625 44.289062 12.71875 44.039062 13.746094 C 43.910156 14.273438 43.847656 15.488281 43.847656 17.382812 L 43.847656 24.476562 L 39.445312 24.476562 Z M 28.109375 10.449219 C 26.734375 10.449219 25.59375 10.933594 24.683594 11.902344 C 23.773438 12.871094 23.320312 14.113281 23.320312 15.628906 C 23.320312 17.152344 23.78125 18.410156 24.707031 19.394531 C 25.632812 20.378906 26.773438 20.871094 28.125 20.871094 C 29.519531 20.871094 30.679688 20.386719 31.597656 19.417969 C 32.519531 18.449219 32.976562 17.179688 32.976562 15.613281 C 32.976562 14.074219 32.519531 12.832031 31.597656 11.878906 C 30.679688 10.925781 29.515625 10.449219 28.109375 10.449219 Z M 32.765625 6.8125 L 37.183594 6.8125 L 37.183594 24.476562 L 32.765625 24.476562 L 32.765625 22.609375 C 31.902344 23.429688 31.03125 24.023438 30.160156 24.386719 C 29.289062 24.75 28.347656 24.929688 27.328125 24.929688 C 25.046875 24.929688 23.070312 24.046875 21.402344 22.277344 C 19.738281 20.507812 18.902344 18.304688 18.902344 15.675781 C 18.902344 12.949219 19.710938 10.714844 21.324219 8.972656 C 22.933594 7.230469 24.894531 6.359375 27.199219 6.359375 C 28.261719 6.359375 29.253906 6.558594 30.1875 6.960938 C 31.117188 7.359375 31.976562 7.960938 32.765625 8.761719 Z M 9.058594 10.449219 C 7.664062 10.449219 6.503906 10.925781 5.585938 11.878906 C 4.664062 12.832031 4.203125 14.074219 4.203125 15.613281 C 4.203125 17.179688 4.664062 18.449219 5.585938 19.417969 C 6.503906 20.386719 7.664062 20.871094 9.058594 20.871094 C 10.410156 20.871094 11.550781 20.378906 12.476562 19.394531 C 13.402344 18.410156 13.863281 17.152344 13.863281 15.628906 C 13.863281 14.113281 13.410156 12.871094 12.5 11.902344 C 11.589844 10.933594 10.445312 10.449219 9.058594 10.449219 Z M 4.398438 -0.00390625 L 4.398438 8.761719 C 5.199219 7.960938 6.066406 7.359375 6.996094 6.960938 C 7.925781 6.558594 8.921875 6.359375 9.984375 6.359375 C 12.289062 6.359375 14.246094 7.230469 15.859375 8.972656 C 17.472656 10.714844 18.277344 12.949219 18.277344 15.675781 C 18.277344 18.304688 17.445312 20.507812 15.777344 22.277344 C 14.113281 24.046875 12.136719 24.929688 9.855469 24.929688 C 8.835938 24.929688 7.890625 24.75 7.011719 24.386719 C 6.136719 24.023438 5.265625 23.429688 4.398438 22.609375 L 4.398438 24.476562 L 0 24.476562 L 0 -0.00390625 L 4.398438 -0.00390625 "/>
</g>
</g>
</svg>
