<svg xmlns="http://www.w3.org/2000/svg" width="176pt" height="44.32" viewBox="0 0 176 33.24"><defs><clipPath id="a"><path d="M13 19h11v14.238H13Zm0 0"/></clipPath><clipPath id="b"><path d="M138 19h38v11h-38Zm0 0"/></clipPath><clipPath id="c"><path d="m176 .004-10.371 29.273h-27.473l27.871-28.152c.602-.684 1.524-1.082 2.446-1.121Zm0 0"/></clipPath><clipPath id="d"><path d="M138 2h38v28h-38Zm0 0"/></clipPath><clipPath id="e"><path d="m176 .004-10.371 29.273h-27.473l27.871-28.152c.602-.684 1.524-1.082 2.446-1.121Zm0 0"/></clipPath><clipPath id="f"><path d="M138 .04h38V30h-38Zm0 0"/></clipPath><clipPath id="g"><path d="m176 .004-10.371 29.273h-27.473l27.871-28.152c.602-.684 1.524-1.082 2.446-1.121Zm0 0"/></clipPath><clipPath id="h"><path d="M138 13h38v17h-38Zm0 0"/></clipPath><clipPath id="i"><path d="m176 .004-10.371 29.273h-27.473l27.871-28.152c.602-.684 1.524-1.082 2.446-1.121Zm0 0"/></clipPath><clipPath id="j"><path d="M138 8h38v22h-38Zm0 0"/></clipPath><clipPath id="k"><path d="m176 .004-10.371 29.273h-27.473l27.871-28.152c.602-.684 1.524-1.082 2.446-1.121Zm0 0"/></clipPath><clipPath id="l"><path d="M138 25h38v5h-38Zm0 0"/></clipPath><clipPath id="m"><path d="m176 .004-10.371 29.273h-27.473l27.871-28.152c.602-.684 1.524-1.082 2.446-1.121Zm0 0"/></clipPath><clipPath id="n"><path d="M155 11h11v11h-11Zm0 0"/></clipPath><clipPath id="o"><path d="m176 .004-10.371 29.273h-27.473l27.871-28.152c.602-.684 1.524-1.082 2.446-1.121Zm0 0"/></clipPath><clipPath id="p"><path d="M159 11h3v3h-3Zm0 0"/></clipPath><clipPath id="q"><path d="m176 .004-10.371 29.273h-27.473l27.871-28.152c.602-.684 1.524-1.082 2.446-1.121Zm0 0"/></clipPath><clipPath id="r"><path d="M160 11h2v2h-2Zm0 0"/></clipPath><clipPath id="s"><path d="m176 .004-10.371 29.273h-27.473l27.871-28.152c.602-.684 1.524-1.082 2.446-1.121Zm0 0"/></clipPath><clipPath id="t"><path d="M159 17h4v5h-4Zm0 0"/></clipPath><clipPath id="u"><path d="m176 .004-10.371 29.273h-27.473l27.871-28.152c.602-.684 1.524-1.082 2.446-1.121Zm0 0"/></clipPath><clipPath id="v"><path d="M159 15h5v3h-5Zm0 0"/></clipPath><clipPath id="w"><path d="m176 .004-10.371 29.273h-27.473l27.871-28.152c.602-.684 1.524-1.082 2.446-1.121Zm0 0"/></clipPath><clipPath id="x"><path d="M158 16h5v4h-5Zm0 0"/></clipPath><clipPath id="y"><path d="m176 .004-10.371 29.273h-27.473l27.871-28.152c.602-.684 1.524-1.082 2.446-1.121Zm0 0"/></clipPath><clipPath id="z"><path d="M159 12h3v5h-3Zm0 0"/></clipPath><clipPath id="A"><path d="m176 .004-10.371 29.273h-27.473l27.871-28.152c.602-.684 1.524-1.082 2.446-1.121Zm0 0"/></clipPath><clipPath id="B"><path d="M160 15h5v5h-5Zm0 0"/></clipPath><clipPath id="C"><path d="m176 .004-10.371 29.273h-27.473l27.871-28.152c.602-.684 1.524-1.082 2.446-1.121Zm0 0"/></clipPath><clipPath id="D"><path d="M160 15h4v3h-4Zm0 0"/></clipPath><clipPath id="E"><path d="m176 .004-10.371 29.273h-27.473l27.871-28.152c.602-.684 1.524-1.082 2.446-1.121Zm0 0"/></clipPath><clipPath id="F"><path d="M161 16h4v4h-4Zm0 0"/></clipPath><clipPath id="G"><path d="m176 .004-10.371 29.273h-27.473l27.871-28.152c.602-.684 1.524-1.082 2.446-1.121Zm0 0"/></clipPath><clipPath id="H"><path d="M159 13h2v2h-2Zm0 0"/></clipPath><clipPath id="I"><path d="m176 .004-10.371 29.273h-27.473l27.871-28.152c.602-.684 1.524-1.082 2.446-1.121Zm0 0"/></clipPath><clipPath id="J"><path d="M159 13h2v4h-2Zm0 0"/></clipPath><clipPath id="K"><path d="m176 .004-10.371 29.273h-27.473l27.871-28.152c.602-.684 1.524-1.082 2.446-1.121Zm0 0"/></clipPath><clipPath id="L"><path d="M160 16h2v2h-2Zm0 0"/></clipPath><clipPath id="M"><path d="m176 .004-10.371 29.273h-27.473l27.871-28.152c.602-.684 1.524-1.082 2.446-1.121Zm0 0"/></clipPath><clipPath id="N"><path d="M160 13h1v1h-1Zm0 0"/></clipPath><clipPath id="O"><path d="m176 .004-10.371 29.273h-27.473l27.871-28.152c.602-.684 1.524-1.082 2.446-1.121Zm0 0"/></clipPath><clipPath id="P"><path d="M160 12h2v2h-2Zm0 0"/></clipPath><clipPath id="Q"><path d="m176 .004-10.371 29.273h-27.473l27.871-28.152c.602-.684 1.524-1.082 2.446-1.121Zm0 0"/></clipPath></defs><path d="M11.852 24.148c0 3.766-2.2 5.61-5.926 5.61-3.723 0-5.926-1.805-5.926-5.61V15.5h3.043v8.648c0 1.524.402 3.004 2.883 3.004 2.203 0 2.883-.96 2.883-3.004V15.5h3.043z" style="stroke:none;fill-rule:nonzero;fill:#100f0d;fill-opacity:1"/><g clip-path="url(#a)"><path d="M20.543 24.27c0-1.641-.559-3.082-2.363-3.082-1.563 0-2.242 1.359-2.242 2.882 0 1.442.562 3.004 2.242 3.004 1.601-.043 2.363-1.363 2.363-2.804m2.645 4.523c0 1.645-.602 4.445-5.208 4.445-2.003 0-4.324-.918-4.445-3.242h2.762c.242 1.043 1.082 1.402 2.086 1.402 1.52 0 2.242-1.043 2.199-2.484v-1.32h-.039c-.602 1.039-1.8 1.562-3.004 1.562-3.004 0-4.324-2.285-4.324-5.086 0-2.605 1.48-5.007 4.324-5.007 1.32 0 2.324.44 3.004 1.601h.039v-1.36h2.645v9.489z" style="stroke:none;fill-rule:nonzero;fill:#100f0d;fill-opacity:1"/></g><path d="M30.996 24.512c-.48.398-1.441.437-2.285.597-.84.16-1.64.48-1.64 1.485 0 1.039.8 1.281 1.683 1.281 2.16 0 2.242-1.723 2.242-2.324Zm-6.367-2.043c.16-2.606 2.48-3.364 4.723-3.364 2.003 0 4.406.438 4.406 2.883v5.246c0 .918.082 1.84.36 2.243h-2.802a8 8 0 0 1-.203-.961c-.879.922-2.16 1.242-3.402 1.242-1.922 0-3.441-.965-3.441-3.004 0-2.285 1.718-2.844 3.44-3.043 1.685-.242 3.286-.203 3.286-1.324 0-1.2-.8-1.36-1.8-1.36-1.044 0-1.723.438-1.844 1.52h-2.723zM35.68 19.344h2.644v1.402h.04a3.67 3.67 0 0 1 3.085-1.683c2.922 0 3.684 1.644 3.684 4.167v6.208h-2.766V23.75c0-1.645-.48-2.484-1.762-2.484-1.48 0-2.16.84-2.16 2.882v5.29H35.68zM51.34 21.145c-1.805 0-2.445 1.562-2.445 3.207 0 1.558.722 3.242 2.445 3.242 1.84 0 2.363-1.602 2.363-3.242 0-1.645-.562-3.207-2.363-3.207m2.402 7.007c-.683 1.082-1.804 1.563-3.086 1.563-3.043 0-4.523-2.602-4.523-5.406 0-2.723 1.48-5.204 4.445-5.204 1.2 0 2.363.52 2.961 1.48h.043V15.5h2.762v13.895h-2.64v-1.243zM64.074 24.512c-.48.398-1.441.437-2.285.597-.84.16-1.64.48-1.64 1.485 0 1.039.8 1.281 1.683 1.281 2.16 0 2.242-1.723 2.242-2.324Zm-6.41-2.043c.16-2.606 2.484-3.364 4.727-3.364 2.004 0 4.406.438 4.406 2.883v5.246c0 .918.078 1.84.36 2.243h-2.805c-.079-.32-.16-.641-.2-.961-.879.922-2.164 1.242-3.402 1.242-1.922 0-3.445-.965-3.445-3.004 0-2.285 1.722-2.844 3.445-3.043 1.68-.242 3.281-.203 3.281-1.324 0-1.2-.8-1.36-1.8-1.36-1.04 0-1.723.438-1.84 1.52h-2.727zM75.965 24.031h3.605l-1.761-5.129h-.04Zm.281-8.531h3.125l5.207 13.895h-3.164l-1.043-3.082h-5.207l-1.078 3.082H71zM84.898 19.344h2.762v10.093h-2.762Zm2.762-1.563h-2.762V15.5h2.762zM88.742 19.344h2.64v1.883h.04c.523-1.282 1.883-2.165 3.207-2.165.2 0 .441.043.598.083v2.562a7 7 0 0 0-1-.082c-2.043 0-2.723 1.445-2.723 3.246v4.524h-2.762zM96.148 15.5h2.762v13.895h-2.762zM100.715 19.344h2.762v10.093h-2.762Zm2.762-1.563h-2.762V15.5h2.762zM105 19.344h2.645v1.402h.039a3.66 3.66 0 0 1 3.082-1.683c2.921 0 3.683 1.644 3.683 4.167v6.208h-2.761V23.75c0-1.645-.481-2.484-1.762-2.484-1.485 0-2.164.84-2.164 2.882v5.29H105zM122.66 23.309c-.242-1.403-.844-2.164-2.203-2.164-1.762 0-2.242 1.363-2.281 2.164Zm-4.527 1.761c.082 1.762.922 2.563 2.484 2.563 1.121 0 2-.68 2.203-1.32h2.442c-.758 2.363-2.442 3.402-4.727 3.402-3.164 0-5.125-2.203-5.125-5.285 0-3.004 2.082-5.325 5.125-5.325 3.445 0 5.086 2.883 4.887 5.965zM128.508 26.152c.039 1.2 1.039 1.68 2.12 1.68.802 0 1.802-.32 1.802-1.281 0-.84-1.16-1.121-3.121-1.559-1.606-.363-3.204-.922-3.204-2.683 0-2.563 2.2-3.247 4.364-3.247 2.203 0 4.246.762 4.445 3.204h-2.644c-.079-1.078-.88-1.36-1.883-1.36-.64 0-1.52.121-1.52.922 0 1 1.563 1.121 3.121 1.48 1.606.36 3.203.962 3.203 2.844 0 2.641-2.28 3.524-4.601 3.524-2.324 0-4.606-.883-4.727-3.563z" style="stroke:none;fill-rule:nonzero;fill:#100f0d;fill-opacity:1"/><g clip-path="url(#b)"><g clip-path="url(#c)"><path d="M95.43 36.043c16.297 7.527 33.117 4.164 48.812-3.203 17.461-8.211 35.121-9.531 53.305-2.363-.281-2.602-.402-3.926-.684-6.606-9.09-3.125-18.3-4.605-27.953-3.644-9.45.96-16.855 4.402-24.867 9.289-15.098 9.21-31.594 13.214-48.613 6.527" style="stroke:none;fill-rule:nonzero;fill:#fad318;fill-opacity:1"/></g></g><g clip-path="url(#d)"><g clip-path="url(#e)"><path d="M95.43 36.043c9.37 2.523 18.14 2.684 27.507.16 8.692-2.363 14.622-7.289 21.028-13.414 7.246-6.93 13.812-12.094 23.867-13.898 9.367-1.68 18.621-.68 27.79 1.644-.24-2.644-.4-4.004-.68-6.61-8.97-1.8-18.06-2.523-27.07-.64-10.095 2.125-16.38 7.488-23.067 15.059-6.649 7.449-12.493 13.773-22.266 16.82-9.09 2.762-17.86 2.8-27.11.879" style="stroke:none;fill-rule:nonzero;fill:#fad318;fill-opacity:1"/></g></g><g clip-path="url(#f)"><g clip-path="url(#g)"><path d="M95.43 36.043c9.25 1.922 18.02 1.883 27.11-.922 9.772-3.004 15.655-9.371 22.265-16.816 6.687-7.532 13.015-12.938 23.066-15.059 9.05-1.883 18.102-1.16 27.07.64-.28-2.6-.441-3.925-.718-6.448-9.012-1.282-18.063-1.602-26.953.761-10.211 2.684-16.38 8.692-22.786 16.781-6.406 8.09-12.054 14.977-21.945 18.622-8.89 3.28-17.781 3.683-27.11 2.441" style="stroke:none;fill-rule:nonzero;fill:#181919;fill-opacity:1"/></g></g><g clip-path="url(#h)"><g clip-path="url(#i)"><path d="M196.902 23.828c-9.09-3.121-18.3-4.605-27.949-3.644-9.453.96-16.86 4.406-24.867 9.293-15.14 9.21-31.68 13.214-48.695 6.527 17.859 5.887 34.156 1.402 48.613-9.89 7.61-5.97 14.656-10.216 24.387-11.614 9.492-1.324 18.742-.082 27.87 2.64.243 2.684.403 4.047.641 6.688" style="stroke:none;fill-rule:nonzero;fill:#181919;fill-opacity:1"/></g></g><g clip-path="url(#j)"><g clip-path="url(#k)"><path d="M196.262 17.184c-9.13-2.727-18.38-3.965-27.871-2.645-9.73 1.36-16.739 5.645-24.387 11.613-14.457 11.293-30.754 15.778-48.613 9.891 9.367 2.523 18.136 2.684 27.507.16 8.692-2.363 14.618-7.289 21.028-13.414 7.246-6.93 13.812-12.094 23.863-13.898 9.371-1.68 18.621-.68 27.793 1.644.32 2.602.441 3.965.68 6.649" style="stroke:none;fill-rule:nonzero;fill:#ea2927;fill-opacity:1"/></g></g><g clip-path="url(#l)"><g clip-path="url(#m)"><path d="M95.43 36.043c15.894 8.488 32.797 6.047 49.132.039 18.063-6.645 35.883-7.168 53.743.844-.32-2.563-.442-3.848-.72-6.45-18.183-7.128-35.882-5.847-53.3 2.364-15.738 7.367-32.558 10.691-48.855 3.203" style="stroke:none;fill-rule:nonzero;fill:#ea2927;fill-opacity:1"/></g></g><g clip-path="url(#n)"><g clip-path="url(#o)"><path d="M160.902 21.426a4.965 4.965 0 1 0 0-9.93 4.965 4.965 0 0 0-4.964 4.965c0 2.723 2.242 4.965 4.964 4.965" style="stroke:none;fill-rule:nonzero;fill:#fff;fill-opacity:1"/></g></g><g clip-path="url(#p)"><g clip-path="url(#q)"><path d="m160.063 12.695-.364-.64c.602-.438 1.844-.239 2.043.843l-.558.118z" style="stroke:none;fill-rule:nonzero;fill:#ea1e28;fill-opacity:1"/></g></g><g clip-path="url(#r)"><g clip-path="url(#s)"><path d="m160.941 12.938-.64-.16.043-.923c.36 0 .761.122 1.039.36z" style="stroke:none;fill-rule:nonzero;fill:#f8e11a;fill-opacity:1"/></g></g><g clip-path="url(#t)"><g clip-path="url(#u)"><path d="M160.781 17.504c.281.84 0 1.078.121 1.601.082.399.082 1 .04 1.32-.481-.081-.962 0-1.2.24.238-.04.559-.04.801 0-.16.042-.36.28-.36.523.32-.364 1.083-.684 1.84-.524-.039-.117-.437-.277-.8-.238-.04-.242-.16-.883-.078-1.203.078-.438-.04-1.078.039-1.32.082-.239.199-.36.242-.602" style="stroke:none;fill-rule:nonzero;fill:#181919;fill-opacity:1"/></g></g><g clip-path="url(#v)"><g clip-path="url(#w)"><path d="M162.746 16.262c1.281.441 1.078 1.281.719 1.441-.8.32-2.082.121-3.121-.32-.442-.2-1.043-.723-.922-1.203.117-.48 1.121-.922 1.683-.602.598.281 1.399.602 1.641.684" style="stroke:none;fill-rule:nonzero;fill:#181919;fill-opacity:1"/></g></g><g clip-path="url(#x)"><g clip-path="url(#y)"><path d="M160.543 16.5c-.242.281-.16 1.043.238 1.242.364.16.524.32.684.563.16.238.2.437-.16.398-.883-.078-1.922-.16-2.203.121-.243.2-.243.48-.16.801.12-.16.038-.441.199-.562-.04.12-.04.363.082.523 0-.16.039-.563.16-.602.117.078 0 .32.117.442.082-.121 0-.281.16-.403.121-.12.36-.199.8-.16.442.04.763.04.966.04.199 0 .277-.04.398 0 .121.042.2 0 .238-.079.043-.082.122-.199-.039-.32-.12-.121-.359-.52-.199-.8.121-.2.078-.52 0-.642" style="stroke:none;fill-rule:nonzero;fill:#181919;fill-opacity:1"/></g></g><g clip-path="url(#z)"><g clip-path="url(#A)"><path d="M159.34 13.54c.043.077.281.038.722-.044 0 .082.2.16.122.281-.364.48-.883 1-1.004 1.762-.078.402.043.961.441 1.324V16.5c.04.04.078.121.16.16 0-.039.04-.238.04-.281.081.043.16.082.242.082 0-.082-.043-.242-.043-.281a.8.8 0 0 1 .203.12c-.04-.081-.121-.241-.121-.32.039.04.16.122.16.122-.04-.043-.04-.243-.078-.282.039 0 .16.078.277.121-.04-.082-.04-.28-.078-.28.078.038.199.077.238.12-.039-.082 0-.203-.039-.242.078.04.238-.039.36 0-.122-.16-.282-.238-.32-.398-.079-.524.038-1.164.32-1.364.484-.32.562-1.082-.16-1.32-.4-.16-.962.16-.762.8-.48.079-.758.161-.72.321-.038 0 0-.039.04-.039" style="stroke:none;fill-rule:nonzero;fill:#181919;fill-opacity:1"/></g></g><g clip-path="url(#B)"><g clip-path="url(#C)"><path d="M160.504 15.46c-.121.438.078 1.122.96 1.442.88.32 1.52 1 1.321 1.52.121-.04.442-.438.238-.8.282.401-.039 1.003-.398 1.241-.121.082 0 .16.121.121-.121.04-.2.16-.082.16.082 0 .32-.12.441-.199-.082.078-.242.16-.16.239.078.082.243-.04.403-.2-.082.121-.203.282-.325.32-.078.079-.078.239.082.122.403-.281.84-.684.961-1.121.079-.442.282-1.403-.8-1.926-1.082-.52-1.602-.68-1.922-.879-.403-.16-.723-.36-.84-.04" style="stroke:none;fill-rule:nonzero;fill:#bdc5bf;fill-opacity:1"/></g></g><g clip-path="url(#D)"><g clip-path="url(#E)"><path d="M162.703 16.379c-.238-.04-.918-.277-1.2-.438-.28-.16-.64-.16-.6.118.038.28.683.402.84.683.16.281.804.32 1.003.36.2.039.918-.239-.043-.723" style="stroke:none;fill-rule:nonzero;fill:#fff;fill-opacity:1"/></g></g><g clip-path="url(#F)"><g clip-path="url(#G)"><path d="M161.902 16.98c.243.16.442.204.723.563.2.281.281.64.2.922.12-.043.44-.442.241-.8.282.398-.043 1-.402 1.237-.117.082 0 .16.121.121-.12.04-.2.16-.082.16.082 0 .32-.12.442-.199-.079.078-.239.16-.16.239.081.082.242-.04.402-.2-.082.122-.2.282-.32.32-.083.083-.083.243.078.122.402-.281.84-.68.96-1.121.083-.442.282-1.364-.8-1.922-.2-.082-.72-.203-.84-.242.238.082.52.48.601.562-.16-.082-.68-.32-.8-.363.12.121.199.16.32.402a2.5 2.5 0 0 0-.684-.16c.121.04.243.2.325.281-.243-.082-.563-.039-.325.078" style="stroke:none;fill-rule:nonzero;fill:#ea1e28;fill-opacity:1"/></g></g><g clip-path="url(#H)"><g clip-path="url(#I)"><path d="M160.02 13.496c-.16.121-.32.32-.2.48.121.16.403 0 .442-.117.082-.242-.242-.242-.242-.363" style="stroke:none;fill-rule:nonzero;fill:#ea1e28;fill-opacity:1"/></g></g><g clip-path="url(#J)"><g clip-path="url(#K)"><path d="M160.344 13.938c-.524.601-.723 1.363-.762 1.843 0 .239.117.36.2.48 0-.042 0-.241-.04-.28.04.039.16.078.2.12 0-.081-.083-.242-.083-.242.043.04.16 0 .16.04 0-.04-.039-.16-.078-.16.04 0 .243.042.243.042a1.2 1.2 0 0 1-.121-.203c.039 0 .199.043.238.043-.117-.121-.399-.402.043-1.523.117-.2.117-.282 0-.16" style="stroke:none;fill-rule:nonzero;fill:#bdc5bf;fill-opacity:1"/></g></g><g clip-path="url(#L)"><g clip-path="url(#M)"><path d="M160.703 16.66a1.05 1.05 0 0 0 0 .723c-.043-.121.36-.242.64 0-.077-.121-.6-.52-.64-.723" style="stroke:none;fill-rule:nonzero;fill:#bdc5bf;fill-opacity:1"/></g></g><g clip-path="url(#N)"><g clip-path="url(#O)"><path d="M160.3 13.059c-.116 0-.116.199 0 .199.122 0 .122-.2 0-.2" style="stroke:none;fill-rule:nonzero;fill:#fff;fill-opacity:1"/></g></g><g clip-path="url(#P)"><g clip-path="url(#Q)"><path d="M160.781 12.898c.082.278-.039.438-.199.48-.16.04-.16.278.078.24.445-.079.445-.481.242-.802-.078-.078-.16-.078-.12.082" style="stroke:none;fill-rule:nonzero;fill:#bdc5bf;fill-opacity:1"/></g></g></svg>