<svg xmlns="http://www.w3.org/2000/svg" width="176pt" height="45.52" viewBox="0 0 176 34.14"><defs><clipPath id="a"><path d="M0 0h49v34.14H0Zm0 0"/></clipPath></defs><path d="M72.676 10.234c-1.414-1.195-1.031-3.433.683-4.004 1.942-.644 3.832 1.196 3.13 3.047-.575 1.508-2.571 2.008-3.813.957M145.605 19.746c.09 4.79-2.855 7.922-7.058 8.078-3.977.153-7.098-3.36-7.063-7.992.036-4.414 2.993-7.719 6.891-7.781 4.156-.063 7.148 3.215 7.23 7.695m-9.816.004c-.137 2.23.852 4.258 2.703 4.293 1.39.105 3.016-1.445 2.895-4.188-.102-2.3-.688-4.101-2.809-4.183-1.687.098-2.637 1.594-2.789 4.078M121.996 12.29l3.004.01.742 2.4c.852-2.669 3.293-2.708 4.567-2.552l.004 4.559-4.122.242-.02 10.504h-4.21zM80 12.246l3.004.012.738 2.394c.852-2.664 3.293-2.707 4.567-2.55l.007 4.558-4.125.246-.015 10.504h-4.211zM91.234 27.484v-9.96l.02-10.169 11.683-.011v3.515l-7.015.008c.004 1.442.023 3.301.02 4.742l5.843.051v3.531l-5.867-.02.016 4.782 4.171.02 2.836.015v3.496zM72.137 27.36l.008-15.13H76.3l-.024 15.168zM52.684 27.305l5.34-19.774 6.206.035 5.418 19.817-4.98.015-.895-3.43c-1.746.028-3.703.063-5.445.016l-.851 3.395Zm10.214-7.66-1.812-7.434-1.727 7.45ZM166.379 27.703c-2.297-.668-3.496-3.258-2.988-5.777.332-1.649 1.472-3.653 5.941-3.914l2.05-.121c.2-.012-.007-1.313-.382-1.813-1.328-1.89-3.816-.672-6.105-.074l-.915-2.852c.73-.379 1.665-.652 2.918-1.082 2.286-.789 5.43-.308 6.774.54.805.507 1.418 1.343 1.902 2.449.18.402.363 1.39.375 1.882l.051 10.52-3.234.023-.739-1.765c-1.734 2.078-3.328 2.636-5.648 1.984m5.125-4.191-.04-2.672c-2.6-.383-5.327 1.004-3.913 3.215.832 1.293 3.12.554 3.953-.543M109.215 27.75c-1.371-.332-2.235-.945-2.918-2.074-.531-.871-.598-1.696-.598-7.215v-6.23h4.153l.023 9.46c-.004.715.016 1.282.238 1.711.832 1.57 2.977 1.293 3.668-.23.156-.34.156-.918.156-1.363l.028-9.551 4.379-.028.011 15.52-3.433-.012-.598-1.925c-.566.582-1.21 1.207-1.883 1.566-1.046.426-2.254.558-3.226.371M148.246 11.785l3.344.016.488 1.77c.238-.743 2.106-1.985 3.512-2.008 2.324-.227 4.441 1.324 5.363 3.93.617 1.741.668 5.874.14 7.976-.769 3.047-3.804 4.718-6.702 4.25-.692-.114-1.282-.43-1.918-.645l-.04 5.336-4.18-.008Zm8.606 10.86c.32-1.137.375-2.082.359-3.305-.027-2.309-.649-4.516-2.863-4.418-.344.015-1.243.133-1.868.933l-.007 7.723c.914 1.445 3.847.95 4.379-.933" style="stroke:none;fill-rule:nonzero;fill:#3c6bbd;fill-opacity:1"/><g clip-path="url(#a)"><path d="M5.848 33.7c-1.715-.548-3.961-2.954-4.828-5.173-1.383-4.027-1.38-9.57.132-14.062C3.282 8.344 7.914 2.957 12.414 1.223 16.543-.36 22.93-.45 27.114 4.082 30.363.988 35.19-.023 37.87.02 44.54-.277 48.02 2.41 48.02 7.43c0 1.8-1.36 4.406-2.985 5.722-1.918 1.551-13.828 9.04-14.398 9.04l-.032-3.536 3.512-2.48c4.531-3.196 6.07-4.86 6.57-7.102 1.286-5.73-4.66-7.336-9.058-2.441-4.422 4.918-6.074 15.176-3.23 20.054 2.187 3.75 6.527 2.586 13.382-1.484l2.64-1.691 1.864 2.601a68.6 68.6 0 0 1-8.172 6.02c-2.476 1.375-4.84 1.984-7.668 1.984-5.261-.082-8.586-1.457-10.14-5.09-.121-.011-1.352.993-2.899 2.035-3.543 2.375-7.894 3.864-11.558 2.637m13.379-8.41c-.707-4.571.543-9.278 1.64-12.571 2.254-5.543 1.168-11.043-5.066-8.317-1.77.817-4.48 3.63-5.73 5.98-3.856 7.259-2.56 18.223 2.16 18.29 1.921-.074 4.496-1.93 6.996-3.383" style="stroke:none;fill-rule:nonzero;fill:#3c6bbd;fill-opacity:1"/></g></svg>