<?xml version="1.0" encoding="UTF-8"?>
<svg xmlns="http://www.w3.org/2000/svg" xmlns:xlink="http://www.w3.org/1999/xlink" width="176pt" height="20.31pt" viewBox="0 0 176 20.31" version="1.1">
<defs>
<clipPath id="clip1">
  <path d="M 0 0 L 176 0 L 176 20.308594 L 0 20.308594 Z M 0 0 "/>
</clipPath>
</defs>
<g id="surface1">
<g clip-path="url(#clip1)" clip-rule="nonzero">
<path style=" stroke:none;fill-rule:nonzero;fill:rgb(94.0979%,24.746704%,11.802673%);fill-opacity:1;" d="M 163.230469 9.367188 C 163.515625 9.371094 163.773438 9.417969 164.003906 9.519531 C 164.507812 10.128906 162.429688 12.707031 160.355469 14.375 C 159.035156 15.492188 157.671875 16.261719 157.015625 15.804688 C 155.949219 14.386719 158.023438 11.75 160.355469 10.332031 C 161.339844 9.726562 162.386719 9.347656 163.230469 9.367188 Z M 120.621094 9.367188 C 120.90625 9.371094 121.171875 9.417969 121.414062 9.519531 C 121.921875 10.128906 119.84375 12.707031 117.765625 14.375 C 116.398438 15.492188 115.082031 16.261719 114.425781 15.804688 C 113.363281 14.386719 115.4375 11.75 117.765625 10.332031 C 118.753906 9.726562 119.769531 9.347656 120.621094 9.367188 Z M 34.765625 9.300781 C 35.257812 9.300781 35.691406 9.453125 35.996094 9.785156 C 36.957031 10.746094 36.460938 12.917969 34.941406 14.640625 C 34.382812 15.195312 33.769531 15.699219 33.160156 16.003906 C 32.097656 16.558594 31 16.566406 30.390625 15.957031 C 29.429688 14.996094 29.925781 12.773438 31.445312 11.101562 C 32.003906 10.496094 32.601562 10.019531 33.160156 9.71875 C 33.71875 9.4375 34.273438 9.300781 34.765625 9.300781 Z M 99.195312 6.027344 L 90.625 19.761719 L 100.054688 19.761719 L 106.273438 9.277344 L 108.207031 6.027344 Z M 65.222656 5.9375 L 50.476562 6.222656 L 43.710938 17.125 L 42.039062 19.804688 L 43.710938 19.847656 L 51.488281 20.003906 C 53.007812 17.167969 55.136719 14.59375 57.464844 12.113281 C 58.730469 10.746094 62.730469 8.457031 60.300781 12.355469 L 55.488281 19.890625 L 64.914062 19.890625 L 69.417969 12.464844 C 72.253906 7.707031 70.132812 5.886719 65.222656 5.9375 Z M 36.324219 5.785156 C 35.304688 5.769531 34.238281 5.828125 33.160156 5.980469 C 32.351562 6.082031 31.492188 6.234375 30.632812 6.488281 C 26.734375 7.5 23.601562 9.363281 21.777344 11.386719 C 20.410156 12.90625 19.753906 14.492188 20.105469 15.957031 C 20.308594 16.769531 20.867188 17.519531 21.777344 18.179688 C 24.15625 19.847656 28.65625 20.804688 33.160156 20.046875 C 33.769531 19.945312 34.378906 19.847656 34.984375 19.695312 C 38.832031 18.683594 41.9375 16.761719 43.710938 14.683594 C 45.074219 13.113281 45.734375 11.449219 45.378906 9.980469 C 45.175781 9.171875 44.621094 8.414062 43.710938 7.804688 C 42.078125 6.589844 39.382812 5.832031 36.324219 5.785156 Z M 13.886719 5.761719 C 7.675781 5.90625 1.957031 8.664062 0 13.828125 L 0 16.308594 C 1.367188 21.523438 12.507812 20.464844 16.152344 18.792969 L 18.789062 14.53125 C 12.359375 16.554688 9.210938 16.300781 9.363281 13.71875 C 11.386719 10.070312 15.042969 8.753906 21.117188 10.882812 L 21.777344 9.980469 L 23.492188 7.652344 C 22.933594 7.398438 22.335938 7.195312 21.777344 6.992188 C 19.625 6.246094 17.367188 5.835938 15.140625 5.761719 C 14.722656 5.75 14.300781 5.753906 13.886719 5.761719 Z M 141.652344 5.738281 C 137.140625 5.804688 132.667969 7.027344 131.652344 9.9375 C 131.300781 11.203125 132.046875 12.453125 133.566406 13.71875 C 135.539062 15.640625 135.808594 16.808594 132.3125 16.355469 C 131.554688 16.203125 130.839844 15.960938 130.183594 15.605469 C 129.878906 15.40625 129.578125 15.195312 129.324219 14.992188 L 126.996094 18.375 C 128.007812 18.832031 129.066406 19.242188 130.183594 19.496094 C 136.003906 21.015625 142.4375 20.3125 145.828125 15.957031 C 146.335938 14.640625 145.121094 13.3125 142.992188 12.046875 C 139.144531 9.464844 141.820312 8.152344 148.199219 10.179688 L 149.058594 9.476562 L 151.1875 7.761719 C 150.632812 7.355469 149.917969 7.03125 149.058594 6.730469 C 147.0625 6.066406 144.359375 5.699219 141.652344 5.738281 Z M 123.4375 5.324219 C 121.371094 5.375 119.488281 5.566406 117.765625 5.871094 C 112.195312 6.882812 108.398438 9.015625 106.273438 11.34375 C 103.335938 14.585938 103.488281 18.128906 106.273438 19.34375 C 108.5 20.253906 112.308594 19.75 117.523438 16.507812 L 115.898438 19.761719 L 117.765625 19.761719 L 125.0625 19.804688 L 130.183594 11.34375 L 133.410156 6.027344 C 132.296875 5.875 131.242188 5.730469 130.183594 5.628906 C 127.75 5.378906 125.496094 5.273438 123.4375 5.324219 Z M 167.40625 5.300781 C 164.808594 5.289062 162.453125 5.492188 160.355469 5.871094 C 154.9375 6.835938 151.234375 8.910156 149.058594 11.191406 C 145.816406 14.53125 146.019531 18.273438 149.058594 19.386719 C 151.285156 20.25 155.042969 19.699219 160.15625 16.507812 L 158.484375 19.761719 L 160.355469 19.761719 L 167.648438 19.804688 L 176 6.027344 C 172.859375 5.542969 170.007812 5.3125 167.40625 5.300781 Z M 72.210938 0.00390625 L 72.210938 19.695312 L 81.375 19.804688 L 101.328125 4.046875 C 93.125 4.046875 86.277344 5.765625 82.277344 11.234375 C 83.792969 11.839844 85.214844 12.710938 86.582031 14.332031 C 83.492188 14.078125 81.019531 15.046875 79.550781 17.78125 C 79.703125 8.820312 76.96875 3.246094 72.210938 0.00390625 "/>
</g>
</g>
</svg>
