<svg xmlns="http://www.w3.org/2000/svg" width="235.613" height="41.267" viewBox="0 0 176.71 30.95"><defs><clipPath id="a"><path d="M92 9h16v21.95H92Zm0 0"/></clipPath><clipPath id="b"><path d="M166 9h10.71v16H166Zm0 0"/></clipPath></defs><path d="M7.07 302.39h305.86V36.493H7.07Zm0 0" style="fill:none;stroke-width:14.173;stroke-linecap:butt;stroke-linejoin:miter;stroke:#35aa7e;stroke-opacity:1;stroke-miterlimit:3.8636" transform="matrix(.1 0 0 -.1 0 30.95)"/><path d="M30.586 25.02H19.375l-7.113-12.317 5.605-9.707zM18.8 25.02H1.419l8.691-15.051Zm0 0" style="stroke:none;fill-rule:nonzero;fill:#35aa7e;fill-opacity:1"/><path d="M57.586 8.29q-1.408-1.26-2.89-1.845a8.5 8.5 0 0 0-3.173-.582q-3.466-.002-5.527 2.07c-1.375 1.383-2.062 3.243-2.062 5.57q.001 3.422 1.914 5.43 1.912 2.005 5.218 2.005 1.883.002 3.496-.63 1.62-.626 2.997-1.886l-.032 4.758a12.4 12.4 0 0 1-3.101 1.304 13.4 13.4 0 0 1-3.414.43q-5.19 0-8.512-3.223-3.328-3.221-3.328-8.183 0-4.95 3.332-8.164c2.223-2.14 5.086-3.215 8.59-3.215q1.76.001 3.402.371c1.098.246 2.18.629 3.246 1.14zM76.066 24.336h-4.093l.058-2.086q-.86 1.373-2.066 2.02-1.207.644-2.942.644-2.889 0-4.66-2.148c-1.18-1.434-1.77-3.32-1.77-5.672q-.002-3.67 1.743-5.723 1.74-2.05 4.836-2.05 1.616.001 2.84.722 1.219.725 2.05 2.16V9.805h4.004Zm-3.855-7.29q.001-1.955-.988-3.097-.985-1.14-2.66-1.14-1.718.001-2.704 1.132-.989 1.137-.988 3.106c0 1.316.324 2.336.973 3.07q.968 1.095 2.691 1.094 1.748.001 2.711-1.094c.64-.734.965-1.754.965-3.07M84.125 13.54c.426-1.411 1.035-2.47 1.828-3.169q1.194-1.05 2.957-1.05c.266 0 .703.046 1.317.148.117.02.207.031.265.043l-.637 4.539a5.03 5.03 0 0 0-1.969-.395q-1.925-.001-2.769.989-.843.985-.844 3.3v6.39h-4.218V9.806h4.16z" style="stroke:none;fill-rule:nonzero;fill:#7a7e82;fill-opacity:1"/><g clip-path="url(#a)"><path d="M92.426 30.95V9.804h4.039v2.398c.55-.969 1.23-1.687 2.035-2.168q1.208-.714 2.809-.715 3.092 0 4.843 2.051 1.746 2.05 1.746 5.723c0 2.36-.59 4.254-1.761 5.68q-1.765 2.139-4.637 2.14-1.734 0-2.941-.644-1.208-.646-2.063-2.024.072.551.11 1.195.035.64.035 1.473v6.035Zm3.847-13.903c0 1.316.32 2.336.97 3.066.648.735 1.546 1.098 2.702 1.098 1.157 0 2.059-.363 2.703-1.098q.973-1.093.973-3.066 0-1.97-.984-3.106-.99-1.132-2.719-1.132-1.676 0-2.66 1.14-.984 1.142-.985 3.098" style="stroke:none;fill-rule:nonzero;fill:#7a7e82;fill-opacity:1"/></g><path d="M125.688 24.336h-4.098l.062-2.086q-.86 1.373-2.066 2.02-1.207.644-2.941.644-2.89 0-4.66-2.148c-1.18-1.434-1.774-3.32-1.774-5.672q.001-3.67 1.742-5.723 1.74-2.05 4.84-2.05 1.612.001 2.836.722 1.225.725 2.05 2.16V9.805h4.008Zm-3.86-7.29q0-1.955-.984-3.097-.984-1.14-2.66-1.14-1.723.001-2.707 1.132-.985 1.137-.985 3.106c0 1.316.324 2.336.969 3.07q.974 1.095 2.691 1.094c1.168 0 2.07-.363 2.715-1.094.64-.734.961-1.754.961-3.07M130.191 24.336V13.113h-2.03V9.805h2.03V4.98h4.215v4.825h2.035v3.308h-2.035v11.223zM153.625 24.336h-4.094l.059-2.086q-.86 1.373-2.067 2.02-1.207.644-2.941.644-2.89 0-4.66-2.148c-1.18-1.434-1.77-3.32-1.77-5.672q-.001-3.67 1.739-5.723c1.164-1.367 2.773-2.05 4.84-2.05 1.074 0 2.023.242 2.835.722q1.225.725 2.051 2.16V9.805h4.008Zm-3.86-7.29q0-1.955-.984-3.097-.984-1.14-2.66-1.14-1.722.001-2.707 1.132-.984 1.137-.984 3.106c0 1.316.324 2.336.968 3.07q.974 1.095 2.692 1.094c1.168 0 2.07-.363 2.715-1.094.64-.734.96-1.754.96-3.07M157.766 24.336V9.805h4.214v14.53Zm-.364-20.5q.001-1.007.723-1.738a2.37 2.37 0 0 1 1.734-.727q1.021 0 1.754.723c.489.48.73 1.058.73 1.742a2.38 2.38 0 0 1-.73 1.754 2.4 2.4 0 0 1-1.754.726q-1.008.001-1.734-.742-.721-.743-.723-1.738" style="stroke:none;fill-rule:nonzero;fill:#7a7e82;fill-opacity:1"/><g clip-path="url(#b)"><path d="M170.34 13.54c.426-1.411 1.035-2.47 1.828-3.169q1.194-1.05 2.957-1.05c.266 0 .703.046 1.316.148.121.02.207.031.266.043l-.637 4.539a5.5 5.5 0 0 0-.953-.293 5 5 0 0 0-1.015-.102q-1.927-.001-2.77.989-.844.985-.844 3.3v6.39h-4.218V9.806h4.16z" style="stroke:none;fill-rule:nonzero;fill:#7a7e82;fill-opacity:1"/></g></svg>