<svg xmlns="http://www.w3.org/2000/svg" width="176pt" height="69.96" viewBox="0 0 176 52.47"><defs><clipPath id="a"><path d="M0 25h20v27.469H0Zm0 0"/></clipPath><clipPath id="b"><path d="M22 24h18v28.469H22Zm0 0"/></clipPath><clipPath id="c"><path d="M59 24h18v28.469H59Zm0 0"/></clipPath><clipPath id="d"><path d="M43 25h15v27.469H43Zm0 0"/></clipPath><clipPath id="e"><path d="M79 25h18v27.469H79Zm0 0"/></clipPath><clipPath id="f"><path d="M99 25h15v27.469H99Zm0 0"/></clipPath><clipPath id="g"><path d="M116 25h21v27.469h-21Zm0 0"/></clipPath></defs><path d="m163.094 6.457-6.457 6.453-6.453-6.453L156.637 0zM150.184 19.363l-6.454 6.453-6.453-6.453 6.453-6.453z" style="stroke:none;fill-rule:nonzero;fill:#e01937;fill-opacity:1"/><path d="M154.488 10.742v4.336l.735-.734v-2.867zM147.668 8.988l-.84.84v6.164l.84.84zM151.34 18.227l.84-.84V8.434l-.84-.84zM153.754 10.008l-.84-.84v7.484l.84-.84zM148.402 8.254v9.312l.735.735V7.52zM155.957 13.61l.7-.7-.7-.7ZM145.254 14.418l.84.84v-4.695l-.84.84zM150.605 6.86l-.406-.403-.328.328v12.25l.328.328.406-.402zM144.52 12.137l-.774.773.774.774ZM176 19.363l-6.453 6.453-6.453-6.453 6.453-6.453zM163.094 32.273l-6.457 6.454-6.453-6.454 6.453-6.457z" style="stroke:none;fill-rule:nonzero;fill:#e01937;fill-opacity:1"/><path d="M167.39 23.648v4.336l.735-.734v-2.867zM160.57 21.898l-.836.84v6.16l.836.84zM164.242 31.133l.84-.84v-8.95l-.84-.84zM166.656 22.914l-.84-.836v7.48l.84-.84zM161.309 21.164v9.309l.73.734V20.43zM168.86 26.516l.699-.7-.7-.699ZM158.16 27.324l.836.84v-4.691l-.836.836zM163.512 19.77l-.407-.407-.332.332v12.246l.332.332.407-.406zM157.426 25.043l-.774.773.774.774ZM167.39 10.742v4.336l.735-.734v-2.867zM160.57 8.988l-.836.84v6.164l.836.84zM164.242 18.227l.84-.84V8.434l-.84-.84zM166.656 10.008l-.84-.84v7.484l.84-.84zM161.309 8.254v9.312l.73.735V7.52zM168.86 13.61l.699-.7-.7-.7ZM158.16 14.418l.836.84v-4.695l-.836.84zM163.512 6.86l-.407-.403-.332.328v12.25l.332.328.407-.402zM157.426 12.137l-.774.773.774.774ZM154.488 23.648v4.336l.735-.734v-2.867zM147.668 21.898l-.84.84v6.16l.84.84zM151.34 31.133l.84-.84v-8.95l-.84-.84zM153.754 22.914l-.84-.836v7.48l.84-.84zM148.402 21.164v9.309l.735.734V20.43z" style="stroke:none;fill-rule:nonzero;fill:#e01937;fill-opacity:1"/><path d="m155.957 26.516.7-.7-.7-.699ZM145.254 27.324l.84.84v-4.691l-.84.836zM150.605 19.77l-.406-.407-.328.332v12.246l.328.332.406-.406zM144.52 25.043l-.774.773.774.774Zm0 0" style="stroke:none;fill-rule:nonzero;fill:#e01937;fill-opacity:1"/><g clip-path="url(#a)"><path d="M7.273 52.156 0 25.363h4.473l3.066 12.114c.867 3.363 1.602 6.57 2.203 9.742h.067c.601-3.172 1.402-6.418 2.304-9.66l3.27-12.196h4.37l-7.776 26.793z" style="stroke:none;fill-rule:nonzero;fill:#3e1e20;fill-opacity:1"/></g><g clip-path="url(#b)"><path d="M26.05 38.828c0 5.418 1.825 9.727 4.946 9.727 3.145 0 4.914-4.348 4.914-9.922 0-5.024-1.664-9.77-4.914-9.77-3.226 0-4.945 4.469-4.945 9.965m13.298-.394c0 8.937-3.621 14.035-8.54 14.035-5.023 0-8.195-5.73-8.195-13.563 0-8.183 3.438-13.957 8.461-13.957 5.207 0 8.274 5.895 8.274 13.485" style="stroke:none;fill-rule:nonzero;fill:#3e1e20;fill-opacity:1"/></g><g clip-path="url(#c)"><path d="M63.066 38.828c0 5.418 1.825 9.727 4.942 9.727 3.144 0 4.918-4.348 4.918-9.922 0-5.024-1.664-9.77-4.918-9.77-3.227 0-4.942 4.469-4.942 9.965m13.297-.394c0 8.937-3.625 14.035-8.539 14.035-5.023 0-8.195-5.73-8.195-13.563 0-8.183 3.437-13.957 8.457-13.957 5.21 0 8.277 5.895 8.277 13.485" style="stroke:none;fill-rule:nonzero;fill:#3e1e20;fill-opacity:1"/></g><g clip-path="url(#d)"><path d="M43.977 25.363h4.23v22.563h9.164v4.23H43.977z" style="stroke:none;fill-rule:nonzero;fill:#3e1e20;fill-opacity:1"/></g><g clip-path="url(#e)"><path d="M85.926 29.594h-6.7v-4.23H96.5v4.23h-6.7v22.562h-3.874z" style="stroke:none;fill-rule:nonzero;fill:#3e1e20;fill-opacity:1"/></g><g clip-path="url(#f)"><path d="M112.363 40.168h-8.46v7.758h9.519v4.23h-13.75V25.363h13.043v3.88h-8.813v7.05h8.461z" style="stroke:none;fill-rule:nonzero;fill:#3e1e20;fill-opacity:1"/></g><g clip-path="url(#g)"><path d="M128.715 25.363h-5.238l-7.207 26.793h4.238l4.336-17.89c.398-1.578.734-3.614 1.066-5.024h.067c.335 1.41.703 3.403 1.136 5.024l4.504 17.89h4.403z" style="stroke:none;fill-rule:nonzero;fill:#3e1e20;fill-opacity:1"/></g></svg>