<svg xmlns="http://www.w3.org/2000/svg" width="114.4pt" height="59pt" viewBox="0 0 114.4 59"><defs><clipPath id="a"><path d="M83 0h31.398v37H83Zm0 0"/></clipPath></defs><g clip-path="url(#a)"><path d="M104.719 21.54c-.2-.075-.371-.177-.559-.196-1.078-.114-2.16-.246-3.246-.293-.695-.031-1.398.097-2.098.117-.832.023-1.652.172-2.406.484-2.226.918-2.742 2.414-2.41 4.47.059.35.16.71.324 1.026.426.848 1.164 1.329 2.047 1.63 1.442.492 2.934.577 4.442.542.699-.015 1.402-.074 2.101-.12.594-.044 1.191-.106 1.805-.16zm-.016-6.692c.156-1.563-.02-2.996-.937-4.274-.528-.73-1.172-1.273-2.032-1.586-.968-.351-1.957-.55-2.984-.543-.977.008-1.953-.035-2.922.02-1.09.062-2.18.144-3.25.328-1.332.234-2.64.582-4.035.895-.04-.126-.125-.32-.156-.528-.246-1.5-.489-3.004-.719-4.508-.145-.93-.266-1.867-.406-2.84.375-.332.906-.375 1.383-.48 1.367-.3 2.75-.531 4.128-.77 1.649-.28 3.313-.457 4.989-.46.582 0 1.172-.149 1.742-.086 1.348.152 2.703.129 4.05.359 1.47.25 2.891.61 4.239 1.223 3.2 1.453 5.164 3.945 5.988 7.34.406 1.671.617 3.37.614 5.105-.016 6.816-.004 13.637-.004 20.453v.766c-.829.18-1.621.367-2.422.515-1.309.246-2.617.47-3.93.684-.547.09-1.102.14-1.652.2-.895.093-1.782.179-2.676.26-.168.017-.34.02-.512.024-2.14.004-4.289.082-6.426-.011-2.55-.11-5.043-.575-7.367-1.723-2.644-1.305-4.328-3.39-5.062-6.227a11.7 11.7 0 0 1-.375-3.023c.008-1.336.039-2.656.433-3.957.371-1.234.985-2.309 1.809-3.285 1.45-1.715 3.352-2.696 5.43-3.387 1.195-.402 2.437-.582 3.687-.758a25.5 25.5 0 0 1 4.496-.258c1.57.055 3.14.153 4.672.551.043.012.098-.008.207-.02" style="stroke:none;fill-rule:nonzero;fill:#3eb13d;fill-opacity:1"/></g><path d="M67.324 24.07a282 282 0 0 0 7.332-23.035H85.02c-.352 1.153-.668 2.266-1.024 3.363-.855 2.645-1.7 5.301-2.613 7.93a216 216 0 0 1-2.715 7.363 226 226 0 0 1-3.066 7.543c-.942 2.188-1.98 4.328-2.989 6.485-.324.703-.715 1.379-1.008 2.093-.156.383-.386.434-.73.434-1.34-.012-2.676-.004-4.016-.004h-3.867c-2.851-5.617-5.32-11.41-7.586-17.293-2.261-5.867-4.246-11.832-6.058-17.914h10.554c1.164 3.867 2.305 7.738 3.496 11.594 1.192 3.848 2.41 7.687 3.926 11.441M11.371 1.031c2.2 7.75 4.512 15.438 7.344 22.989.793-1.844 1.445-3.715 2.066-5.602.633-1.93 1.262-3.867 1.875-5.805.61-1.914 1.207-3.832 1.782-5.758.566-1.921 1.097-3.851 1.652-5.82H36.5c-1.117 3.453-2.172 6.871-3.332 10.25-2.922 8.516-6.273 16.856-10.34 24.926h-8.402c-2.88-5.586-5.32-11.39-7.586-17.273C4.574 13.066 2.586 7.102.762 1.03zM48.43 1.082v35.117h-9.934c-.125-.539-.176-33.761-.055-35.094.516-.136 9.176-.16 9.989-.023" style="stroke:none;fill-rule:nonzero;fill:#3eb13d;fill-opacity:1"/><path d="M35.25 51.531c.742.008 1.5-.73 1.516-1.48.015-.735-.727-1.54-1.47-1.524-.89.02-1.5.649-1.542 1.512-.035.738.742 1.484 1.496 1.492m-1.66 7.23c-3.117.153-6.207-2.62-6.133-6.226.066-3.336 2.773-6.125 6.25-6.078 3.469.047 6.133 2.793 6.137 6.195.004 3.461-2.922 6.285-6.254 6.11" style="stroke:none;fill-rule:nonzero;fill:#e22426;fill-opacity:1"/><path d="M7.855 48.516c-.785-.012-1.57.738-1.574 1.507 0 .743.739 1.497 1.492 1.52.727.02 1.536-.73 1.528-1.473-.008-.816-.582-1.433-1.446-1.554M6.172 58.75C3.098 58.906.004 56.371 0 52.648c-.004-3.468 2.719-6.222 6.281-6.187 3.371.031 6.074 2.707 6.098 6.148.023 3.621-3.05 6.352-6.207 6.141" style="stroke:none;fill-rule:nonzero;fill:#3eb13d;fill-opacity:1"/><path d="M85.605 57.031c1.118.297 2.137.278 3.157.23 1.468-.066 2.48-.843 3.129-2.14.484-.973.46-2.016.437-3.062a5.3 5.3 0 0 0-.578-2.23c-.363-.731-.934-1.22-1.703-1.497-1.32-.488-2.567-.242-3.793.332-.477.223-.664.523-.656 1.07.03 2.188.011 4.375.007 6.563zm-1.437-15.496c.512-.078.934-.14 1.434-.215v6.297c.746-.398 1.43-.695 2.187-.804 1.543-.22 2.965.046 4.188 1.023.84.668 1.363 1.594 1.636 2.617.434 1.598.438 3.195-.129 4.785-.722 2.028-2.738 3.34-4.593 3.367-1.485.02-2.961.032-4.391-.464-.11-.036-.215-.098-.332-.149zM55.234 51.648c.961.145 6.008.11 6.489-.035-.055-.777-.196-1.527-.578-2.222-.301-.532-.72-.93-1.282-1.133-1.324-.473-2.761-.223-3.718 1.015-.536.688-.817 1.47-.91 2.375m7.953 1.329c-.921.078-1.792.027-2.664.035-.875.011-1.75.004-2.625.004h-2.601c-.219 2.207 1.117 4.191 3.39 4.246 1.098.027 2.184.02 3.22-.43.058-.027.14-.004.245-.004.082.352.164.7.254 1.063-.566.433-1.222.578-1.851.644-1.035.117-2.086.168-3.117-.101-1.946-.508-3.114-1.754-3.567-3.711-.324-1.399-.367-2.797.035-4.172.395-1.332 1.094-2.473 2.352-3.207 1.441-.84 3.812-.918 5.34.375.414.351.773.832 1.004 1.324.562 1.207.742 2.496.586 3.934M73.34 52.8c0 .24-.016.583.008.919.015.242.07.48.14.71.766 2.536 2.301 3.114 4.332 2.79 1.336-.215 2.078-1.215 2.485-2.426.52-1.55.476-3.125-.176-4.625-.938-2.156-3.137-2.543-4.817-1.723-.867.422-1.347 1.176-1.667 2.032-.266.71-.375 1.457-.305 2.324m3.597 5.845c-2.628.097-4.664-1.95-5.082-4.528-.195-1.199-.16-2.375.172-3.531.496-1.742 1.528-3.055 3.305-3.594 2.02-.613 3.86-.23 5.34 1.344.805.855 1.203 1.937 1.41 3.07.246 1.34.09 2.653-.39 3.93-.606 1.617-1.731 2.676-3.387 3.14-.438.126-.91.118-1.368.169M50.324 53.105c-.37-.082-.715-.171-1.066-.222-.625-.094-1.254-.059-1.883-.031-.5.023-.941.168-1.387.37-.785.36-1.12 1.016-1.117 1.81 0 .823.254 1.597 1.113 1.96.309.13.645.238.973.254.875.031 1.75.024 2.625 0 .254-.008.508-.11.742-.164zm1.504 4.989c-.465.11-.875.238-1.3.304-1.325.207-2.66.29-3.993.16-.781-.074-1.515-.343-2.11-.89-1.07-.984-1.226-2.211-.921-3.543.281-1.25 1.168-1.914 2.328-2.262 1.473-.445 2.961-.406 4.508-.02.082-.894.012-1.738-.317-2.519-.347-.844-1.101-1.207-1.98-1.258-1.047-.062-2.086-.027-3.055.403-.062-.047-.125-.067-.133-.102-.43-1.46-.128-1.258.958-1.476 1.05-.211 2.117-.25 3.183-.028 1.559.325 2.578 1.543 2.723 3.18.207 2.258.062 4.52.105 6.781.008.406.004.817.004 1.27M103.148 47.05h1.438v10.868c-.492.324-1.113.367-1.691.488-1.098.235-2.223.25-3.34.164-1.914-.148-3.23-1.23-3.575-3.144a18 18 0 0 1-.257-2.672c-.04-1.629-.012-3.262-.012-4.89v-.755c.496-.175.973-.078 1.465-.078 0 1.582-.016 3.133.004 4.68.011.95.023 1.902.136 2.84.11.926.391 1.832 1.301 2.316.356.188.77.336 1.168.367 1.04.086 2.086.043 3.117-.168.067-.015.121-.07.246-.148zM106.305 58.004c.125-.45.23-.84.355-1.297.781.355 1.574.516 2.387.613.867.106 1.695.008 2.488-.328a1.576 1.576 0 0 0 .504-2.59c-.32-.316-.738-.558-1.148-.754-.743-.351-1.528-.625-2.274-.976a6 6 0 0 1-1.23-.77c-1.39-1.152-1.14-3.453.285-4.43a3.9 3.9 0 0 1 1.75-.667c1.344-.164 2.656-.094 3.98.484-.101.406-.203.79-.304 1.2-.153-.012-.254.003-.332-.032-.934-.453-1.93-.457-2.926-.39-.285.019-.582.081-.844.203-.55.253-.98.636-1.035 1.296-.055.696.203 1.254.816 1.59.575.313 1.176.574 1.77.848.598.273 1.223.492 1.789.812.71.395 1.324.93 1.52 1.778.374 1.648-.09 2.914-1.649 3.601-.328.145-.687.27-1.043.309-1.617.18-3.238.262-4.86-.5M66.758 58.387h-1.434V47.578c1.305-.805 4.406-1.105 6.07-.453l-.277 1.137c-.75-.067-1.46-.149-2.176-.192-.73-.039-1.441.094-2.183.352z" style="stroke:none;fill-rule:nonzero;fill:#e22426;fill-opacity:1"/><path d="M19.879 46.73c-2.942-.277-6.152 2.762-5.887 5.961-.219 2.895 2.617 5.95 5.973 5.918 3.133-.027 6.137-2.863 5.879-6.004.226-3.023-2.778-6.128-5.965-5.875m-6.317 5.864c-.066-3.301 2.829-6.309 6.36-6.309 3.48 0 6.367 2.88 6.36 6.383-.005 3.445-2.837 6.371-6.4 6.332-3.429-.035-6.386-2.773-6.32-6.406" style="stroke:none;fill-rule:nonzero;fill:#b0afaf;fill-opacity:1"/><path d="M23.059 50.008c.015.777-.762 1.55-1.54 1.543-.738-.012-1.484-.711-1.515-1.418-.04-.79.71-1.63 1.457-1.633.773 0 1.586.766 1.598 1.508" style="stroke:none;fill-rule:nonzero;fill:#b9b8b8;fill-opacity:1"/></svg>