<svg xmlns="http://www.w3.org/2000/svg" width="219.747" height="59pt" viewBox="0 0 164.81 59"><defs><clipPath id="a"><path d="M150 32h14.809v27H150Zm0 0"/></clipPath></defs><path d="M59.305 11.45c4.629 0 9.07.085 13.508-.04 1.914-.055 2.496-.933 2.582-2.937.109-2.645-.696-3.703-3.356-3.817-3.367-.136-6.742-.058-10.117-.043-.86.004-1.719.121-2.617.188zm-.024 10.902c5.117 0 10.063.074 15.004-.036 1.86-.043 2.485-1.234 2.38-3.73-.095-2.2-.54-2.82-2.556-2.848-4.671-.058-9.347.008-14.02.047-.257.004-.515.235-.808.375zM54 26.613V.605c.844-.082 1.602-.218 2.363-.222C61.832.363 67.297.348 72.766.379c6.05.035 8.402 2.8 7.23 8.687-.27 1.36-1.16 2.594-1.789 3.93 3.145 2.164 4.371 6.961 2.543 10.598-1.113 2.222-3.031 3.008-5.395 3.008-4.87 0-9.742.007-14.613.011zM124.434 54.578c3.996 0 7.664.016 11.328-.016.582-.007 1.164-.238 1.742-.374 2.351-.543 4.012-1.907 4.351-4.333.297-2.144.512-4.363.297-6.5-.363-3.578-2.129-5.52-5.691-5.82-3.922-.328-7.895-.074-12.027-.074zm-5.278 4.395V33.508c.313-.192.473-.38.637-.38 6.066-.015 12.144-.155 18.207.04 4.465.148 8.855 2.98 9.16 9.152.121 2.465.156 4.957-.05 7.41-.454 5.344-3.95 8.825-9.301 9.102-4.473.23-8.961.113-13.442.137-1.668.011-3.34.004-5.21.004M99.48 22.746c.012-.082.028-.164.04-.246.398 0 .793.012 1.19 0 6.634-.191 9.802-3.695 9.317-10.297-.257-3.535-2.316-6.332-5.785-7.058-2.484-.524-5.16-.832-7.648-.493-6.442.871-8.992 5.254-7.61 11.618.625 2.875 2.493 4.734 5.262 5.539 1.695.492 3.484.636 5.234.937m-.558 4.59c-1.965-.379-4.465-.61-6.805-1.348-6.863-2.168-9.047-7.457-8.683-13.328C83.906 5.078 88.477.922 96.102.172c3.207-.317 6.343-.223 9.453.516 7.55 1.785 10.476 7.562 9.61 14.87-.65 5.43-3.255 9.962-11.282 11.114-1.473.21-2.95.394-4.961.664M93.656 43.766v4.191c-6.172.43-12.398-.094-18.797.3v6.235c6.465.309 12.895-.035 19.48.207v4.09H69.52c-.226-8.539-.066-17.039-.093-25.707h24.777v4.184H75.13c-.848 2.175-.348 4.12-.473 6.398 3.367.195 6.528.074 9.676.098 3.055.02 6.113.004 9.324.004M31.031 10.332c-.98.055-1.758.07-2.531.148-1.512.16-2.547-.175-3.234-1.796-.727-1.707-2.348-2.684-4.13-3.211-3.41-1.012-6.863-1.145-10.273-.078-3.758 1.175-5.457 3.718-5.5 7.906-.043 4.449 1.563 7.082 5.332 8.351 3.485 1.176 7.051 1.133 10.586.153 1.797-.5 3.399-1.508 4.09-3.23.621-1.56 1.59-1.845 2.996-1.72.781.07 1.567.094 2.512.145.535 2.152-.621 3.703-1.668 5.195-1.297 1.84-3.152 3.035-5.29 3.723-5.495 1.773-11.015 1.68-16.41-.266C3.833 24.328 1.376 21.63.54 17.703-.617 12.243-.168 7.2 4.43 3.253 6.24 1.704 8.403.849 10.642.509c4.144-.63 8.343-.742 12.441.43 4.594 1.312 7.469 4.64 7.95 9.394M103.527 43.785c.598.117.97.23 1.344.246a25 25 0 0 0 2.363.016c1.977-.106 2.61-.824 2.72-3.027.109-2.168-.755-3.485-2.52-3.625-1.246-.102-2.504-.02-3.907-.02zm8.485 3.738c1.277 3.606 2.57 7.247 3.918 11.043-1.489.696-2.97.344-4.399.352-.988.004-1.254-.809-1.511-1.59a416 416 0 0 0-2.086-6.226c-.926-2.696-.938-2.692-4.454-2.258v9.886h-4.91c-.527-2.273-.601-22.539-.066-25.742 3.613 0 7.27-.152 10.91.043 3.582.196 5.102 1.91 5.41 5.528.067.793.059 1.593.055 2.39-.031 3.555-.262 4.078-2.867 6.574M41.93 7.227q-.218.035-.434.066c-.64 2.898-1.285 5.793-2.016 9.07 1.66-.246 2.91.317 4.247-.633zm9.308 19.07c-.527.152-.804.308-1.082.3-4-.093-4.09.805-4.836-3.644-.414-2.48-.535-2.46-3.133-2.496-.398-.004-.796-.012-1.195-.004-2.594.027-2.672.016-3.16 2.488-.824 4.168-.363 3.645-4.832 3.653-.273 0-.55-.149-1.008-.282.926-3.789 1.84-7.535 2.762-11.277 1.02-4.144 2.027-8.293 3.07-12.43.551-2.18.59-2.195 2.781-2.23C42.082.352 43.56.371 45.262.371c2.02 8.762 3.992 17.324 5.976 25.926" style="stroke:none;fill-rule:nonzero;fill:#3554ad;fill-opacity:1"/><g clip-path="url(#a)"><path d="M164.637 32.941v4.387h-9.098c-.144 1.938-.305 3.586-.383 5.242-.043.922.656 1.164 1.406 1.172 1.793.02 3.59.04 5.38-.023 2.367-.078 2.374-.114 2.413 2.12.008.587-.058 1.18-.109 2.122-1.086.05-2.133.129-3.18.148-1.394.028-2.789.032-4.183.004-1.23-.023-1.836.407-1.727 1.766.114 1.375.028 2.766.028 4.348 3.164.886 6.37-.024 9.62.605v3.95h-14.452c-.086-.63-.23-1.196-.23-1.766a4514 4514 0 0 1-.005-21.82c.008-2.364.047-2.298 2.297-2.27 3.98.05 7.957.015 12.223.015" style="stroke:none;fill-rule:nonzero;fill:#3554ad;fill-opacity:1"/></g><path d="M52.84 33.168c1.332 5.926 2.703 12.004 4.183 18.578.43-.976.774-1.512.907-2.094 1.058-4.547 2.07-9.105 3.113-13.656.7-3.055.71-3.055 3.953-2.992.484.012.969.074 1.754.14-.215 1.149-.348 2.196-.605 3.211-1.704 6.743-3.434 13.477-5.165 20.215-.605 2.356-.617 2.407-2.94 2.39-4.86-.023-3.993.54-5.114-3.815-1.684-6.54-3.29-13.102-4.914-19.66-.168-.669-.25-1.364-.422-2.317z" style="stroke:none;fill-rule:nonzero;fill:#3554ad;fill-opacity:1"/></svg>