<svg xmlns="http://www.w3.org/2000/svg" xml:space="preserve" id="Layer_1" x="0" y="0" version="1.1" viewBox="0 0 179 56"><style>.st0{fill:#0066b3}</style><path d="M6.8 13.6c0 .2-.1.4-.2.7-.1-.1-.1-.1-.1-.2.1-.2 0-.5.2-.7 0 0 0 .1.1.2M39.7 21.7c0-.1 0-.2.1-.3.1 0 .1.1.1.2-.1 0-.2.1-.2.1M102 22.6c0-.1 0-.2.1-.2.1.1.1.2.1.3-.1 0-.2 0-.2-.1M117.6 22.9c0-.1 0-.2.1-.3.1 0 .1.1.1.2-.1.1-.2.1-.2.1" class="st0"/><path d="M166.4 21.7h-.3c-.9-.2-1.8-.4-2.6-.6-.9-.2-1.9-.4-2.8-.6-.6-.1-1.2-.3-1.8-.4-.9-.2-1.8-.4-2.6-.6-.6-.1-1.2-.3-1.8-.4l-2.7-.6c-.6-.1-1.2-.3-1.8-.4l-2.7-.6c-.4-.1-.9-.2-1.3-.3a.8.8 0 0 1-.6-1.1c0-.1.1-.1.1-.2.4-.2.7-.4 1.1-.5.2-.1.5-.2.7-.3l2.7-1.2h.1c.8-.4 1.6-.8 2.5-1.2l3.3-1.5c.4-.2.9-.4 1.3-.6l3.3-1.5 1.2-.6c.7-.3 1.5-.7 2.2-1h.1c.8-.4 1.6-.8 2.4-1.1.7-.3 1.4-.6 2.1-1 0 0 .1 0 .1-.1.8-.4 1.6-.8 2.5-1.2l3.3-1.5c.4-.2.9-.4 1.3-.6 1.1-.5 2.2-1 3.3-1.6.1 0 .2 0 .3-.1 0 .1.1.1.1.2v28.9c-.1.2-.3.4-.5.5h-.6c-.6-.4-1.2-.8-1.7-1.2l-1.2-.9-3-2.1c-.9-.6-1.7-1.2-2.6-1.8-.2-.1-.3-.3-.5-.4 0-.3.1-.6.2-.9.3-.9.6-1.7.9-2.6.3-.7.6-1.5.9-2.2.2-.5.4-.9.6-1.4.3-.8.7-1.6 1-2.4.2-.4.3-.7.5-1.1.3-.6.5-1.2.8-1.8 0-.1.1-.2.1-.3.2-.5.4-1 .7-1.5.2-.5.5-1 .7-1.5s.5-1.1.7-1.6c.6-1.3 1.3-2.6 1.9-3.9.1-.1.1-.3.2-.4v-.1c-.1 0-.1.1-.2.1-.3.5-.5.9-.8 1.4s-.5.9-.8 1.4c-.1.1-.1.2-.2.3-.2.4-.4.7-.6 1.1l-.6 1.2-.9 1.5c-.2.4-.4.7-.6 1.1-.4.7-.8 1.5-1.2 2.2-.2.4-.4.7-.6 1.1l-1.2 2.1c-.2.4-.4.8-.6 1.1-.5.7-.9 1.5-1.3 2.3-.2.4-.4.7-.6 1.1s-.5.9-.7 1.3c-.1.2-.3.5-.4.8-.6-.2-.7-.2-.8-.2" style="fill:#ffc80b"/><path d="M88.2 22.2c0-.7.2-1.3.3-2 .1-.6.2-1.3.4-1.9-.1 0-.1-.1-.2-.1h-4.9c-.3.7-.6 1.5-.9 2.3s-.6 1.6-.9 2.3c-.3.8-.6 1.5-.9 2.3-.4.1-1.9.1-2.7.1-.1 0-.1 0-.2-.1l.6-1.5c.6-1.5 1.1-2.9 1.7-4.4.5-1.2.9-2.4 1.4-3.5.5-1.2.9-2.4 1.4-3.6.2-.5.5-1 .7-1.5.6-1 1.4-1.8 2.5-2.3.6-.3 1.2-.5 1.9-.6.8-.1 1.7-.2 2.5-.2.9.1 1.8.1 2.6.4.1 0 .1 0 .2.1 0 .1.1.1.1.2-.1.4-.3.8-.4 1.2-.2.8-.3 1.6-.5 2.4-.1.6-.2 1.1-.3 1.7-.2.8-.3 1.6-.5 2.5-.2 1.2-.5 2.3-.7 3.5-.2.8-.3 1.6-.4 2.4 0 .2 0 .3-.1.4-.4-.1-2.2-.1-2.7-.1m2.2-12.1c-.1-.1-.3-.1-.5-.1-.4 0-.8 0-1.2.1-.9.1-1.6.5-2.1 1.3q-.45.6-.6 1.2c-.4.9-.7 1.8-1.1 2.8 0 .1-.1.3-.1.4h4.3c.1 0 .2 0 .3-.1.3-1.8.7-3.7 1-5.6M134 17.8h-6.8c0 .1-.1.2 0 .3 0 .3.1.7.3 1s.4.5.7.7c.5.3 1 .4 1.5.4.9.1 1.7-.1 2.6-.3.1 0 .3-.1.4-.2h.3c-.1.7-.2 1.3-.4 2-.4.2-.9.3-1.3.4-.7.1-1.5.1-2.2.1-.8 0-1.6-.2-2.3-.6-1.2-.6-1.9-1.6-2.1-2.9-.1-.4 0-.7 0-1.1s0-.9.1-1.3c.4-1.7 1.3-3.1 2.8-4 .5-.3 1.1-.5 1.7-.6.5-.1 1.1-.1 1.6-.1.7 0 1.4.2 2 .5.6.4 1.1.9 1.3 1.5q.45 1.2.3 2.4c-.1.4-.1.9-.3 1.3-.1.3-.2.3-.2.5m-2.2-1.8c.2-.4.2-.8.1-1.3s-.4-.8-.9-1c-.3-.1-.7-.1-1-.1-.4 0-.8.1-1.2.4-.6.4-1.1 1-1.3 1.7 0 .1 0 .2-.1.3.1 0 .1.1.2.1 1.3-.1 2.7-.1 4.2-.1M122.3 22.2h-2.6000000000000005c-.1-.1 0-.3 0-.4.1-.4.2-.8.2-1.2.2-.9.3-1.7.5-2.6.1-.4.2-.8.2-1.2.1-.3.1-.6.1-1 0-.3 0-.6-.2-1s-.5-.7-.9-.8c-.5-.1-1-.2-1.5-.1-.3.1-.6.1-.9.2-.1 0-.1.1-.2.1-.2.9-.3 1.8-.5 2.6-.2.9-.3 1.8-.5 2.7s-.3 1.7-.5 2.6c-.4.1-2 .1-2.5 0v-.2c.1-.8.3-1.5.4-2.3.1-.6.2-1.3.4-1.9.2-1 .4-1.9.6-2.9.1-.4.1-.7.2-1.1 0-.3.1-.7.1-1 .1-.2.2-.2.4-.2.5-.1 1.1-.3 1.6-.4.9-.2 1.8-.3 2.6-.2.5 0 1.1.1 1.6.2.4.1.8.3 1.2.5.6.3.9.8 1.1 1.5.1.3.1.5.1.8v1c0 .3-.1.7-.1 1-.2.9-.3 1.7-.5 2.6-.1.6-.2 1.1-.3 1.7 0 .3-.1.6-.1 1M143.4 12.3c-.1.7-.3 1.3-.4 1.9 0 .1-.1.1-.1.2-.1 0-.2 0-.2-.1-.7-.3-1.5-.5-2.3-.5-.5 0-1 0-1.4.1s-.8.3-1 .7v.4c0 .3.1.5.4.6.1 0 .2.1.3.1.4.1.8.3 1.3.4.4.1.8.2 1.2.4s.8.4 1.2.7q.45.45.6 1.2c.1.8 0 1.6-.5 2.2q-.45.6-1.2.9c-.6.3-1.2.4-1.8.5-.8.1-1.6.1-2.5.1-.8 0-1.6-.1-2.3-.4-.1 0-.2-.1-.2-.1 0-.5.2-1.5.4-2.1h.2c.4.1.7.3 1.1.4.5.1 1 .2 1.6.2h1.2c.3 0 .6-.1.9-.2s.5-.3.5-.6V19c-.1-.4-.3-.7-.7-.8-.5-.1-.9-.3-1.4-.4q-.75-.15-1.5-.6c-.4-.2-.7-.5-.9-.8q-.3-.45-.3-.9c0-.4 0-.8.1-1.2.3-.8.7-1.4 1.5-1.8.7-.4 1.4-.6 2.2-.7.6-.1 1.3-.1 1.9-.1.7 0 1.3.1 2 .3-.2.2-.1.2.1.3M109.3 8.3v.1c-.9 4.5-1.7 9-2.6 13.5 0 .1-.1.2-.1.3-.3.1-1.8.1-2.5 0-.1-.1-.1-.2-.1-.3.1-.6.2-1.1.3-1.7.2-.8.3-1.6.5-2.5l.3-1.8c.2-.8.3-1.6.5-2.5l.3-1.8c.1-.8.3-1.6.4-2.4 0-.4.1-.7.1-1.1 0 0 .1-.1.2-.1h2.4c.2.2.2.3.3.3M104.9 12.2c-.1.6-.2 1.3-.4 1.9-.2.1-.3.1-.4 0-.7-.1-1.3-.1-2 0-.2 0-.4 0-.6.1l-.1.1c0 .6-.2 1.1-.2 1.7-.2 1.1-.4 2.1-.6 3.2-.1.7-.3 1.5-.4 2.2 0 .2 0 .3-.1.5 0 .1 0 .2-.1.2-.3.1-.9.1-2.3.1h-.3c.1-.4.1-.8.2-1.2.2-.8.3-1.6.5-2.5.1-.6.2-1.2.4-1.8.1-.7.3-1.4.4-2.1.1-.3.1-.7.2-1v-.8c.1-.2.3-.2.5-.3.7-.2 1.4-.3 2-.4 1-.1 1.9-.1 2.9-.1.1 0 .3 0 .4.2M95.6 22.2c-.7.1-2.1 0-2.5 0v-.3c.3-1.3.5-2.6.8-3.9.2-.9.3-1.8.5-2.7.1-.7.2-1.3.3-2v-.8c0-.1 0-.2.1-.3.1 0 .1-.1.2-.1h2.6v.1c-.6 3.1-1.2 6.3-1.8 9.4-.1.2-.1.4-.2.6M110.6 12.2c.3 0 2.2-.1 2.5 0 0 0 .1 0 .1.1.1.2 0 .3 0 .5-.3 1.3-.5 2.6-.8 3.9-.2 1.2-.5 2.4-.7 3.7l-.3 1.8s0 .1-.1.1c-.2.1-.5 0-.8 0h-1.7000000000000002c-.1-.2 0-.3 0-.5.2-.8.3-1.5.5-2.3.2-1.1.4-2.1.6-3.2.1-.8.3-1.5.4-2.3.1-.5.2-.9.1-1.4.1-.2.1-.3.2-.4" class="st0"/><path d="M166.4 21.7h.4c.1-.3.3-.5.4-.8.2-.4.5-.9.7-1.3s.4-.7.6-1.1c.4-.8.8-1.5 1.3-2.3.2-.4.4-.7.6-1.1l1.2-2.1c.2-.4.4-.7.6-1.1.4-.7.8-1.5 1.2-2.2.2-.4.4-.7.6-1.1l.9-1.5.6-1.2c.2-.4.4-.7.6-1.1.1-.1.1-.2.2-.3.3-.5.5-.9.8-1.4s.5-.9.8-1.4c0-.1.1-.2.2-.1v.1c-.1.1-.1.3-.2.4-.6 1.3-1.3 2.6-1.9 3.9-.2.5-.5 1-.7 1.6-.2.5-.5 1-.7 1.5s-.5 1-.7 1.5c0 .1-.1.2-.1.3-.3.6-.5 1.2-.8 1.8-.2.4-.3.7-.5 1.1-.3.8-.7 1.6-1 2.4-.2.5-.4.9-.6 1.4-.3.7-.6 1.5-.9 2.2-.3.9-.6 1.7-.9 2.6-.1.3-.2.6-.2.9-.2-.1-.4-.3-.6-.4l-1.2-.9c-.2-.1-.4-.2-.7-.3 0 .1 0 0 0 0" style="fill:#ffe800"/><path d="M111.1 9.2c0-.8.3-1.2.9-1.5.4-.2.9-.3 1.3-.1s.7.5.7.9c.1 1.1-.7 1.8-1.5 1.9h-.3c-.7 0-1.1-.5-1.1-1.2M95.4 9.1c0-.6.3-1 .8-1.3s.9-.4 1.5-.2c.4.1.7.5.7.9.2 1.1-.7 1.8-1.5 1.9h-.3c-.6.1-1.2-.5-1.1-1.2-.1 0-.1-.1-.1-.1M.1 21.9c-.1-.2-.1-.3-.1-.5.4-1.2.6-2.5.9-3.7.2-1.2.4-2.3.7-3.5.1-.8.3-1.5.5-2.3.2-1 .4-1.9.6-2.9.1-.4.2-.8.2-1.3.1 0 .1-.1.2-.1h2.6c.1.1.1.2.1.3-.3.6-.4 1.2-.5 1.8-.2.8-.3 1.6-.5 2.5-.2 1.2-.5 2.3-.7 3.5-.2.8-.3 1.7-.5 2.5-.1.4-.2.7-.2 1 0 .1-.1.3-.1.5.2.1.3.1.5.1.5 0 1 0 1.5-.2.8-.2 1.3-.7 1.7-1.4.2-.3.4-.7.5-1 .5-1.4 1.1-2.9 1.6-4.3s1-2.7 1.5-4.1c.4-.8.7-1.8 1.1-2.7.2-.5.4-1.1.6-1.7h2.9999999999999996v.2c-.3.9-.7 1.9-1 2.8-.3.8-.6 1.5-.9 2.3-.6 1.5-1.1 3.1-1.7 4.6-.3.8-.6 1.6-.9 2.5-.2.6-.4 1.1-.7 1.7-.4.7-.8 1.4-1.4 2-.5.5-1.2.9-1.9 1.2-.5.2-1 .3-1.5.4-.6.1-1.1.1-1.7.1H2.3c-.7 0-1.3-.1-1.9-.2-.2 0-.3-.1-.3-.1M70.5 17.8h-6.7c-.1.2-.1.4-.1.6q.15 1.05 1.2 1.5.6.3 1.2.3h.5c.9 0 1.7-.1 2.6-.4.1 0 .2-.1.4 0-.1.7-.3 1.3-.4 2-.1.1-.2.1-.4.2-.6.2-1.2.3-1.9.3h-1.5c-1-.1-1.9-.3-2.8-.9-.6-.4-1-1-1.3-1.7-.2-.6-.3-1.3-.3-1.9.1-1 .2-1.9.7-2.8.2-.5.5-.9.9-1.3.5-.5 1-1 1.7-1.3.6-.3 1.2-.5 1.9-.5h.8999999999999999c.4 0 .8.1 1.3.2 1.3.3 2.1 1.1 2.5 2.4.1.4.1.7.2 1.1-.2.6-.2 1.4-.6 2.2q.15-.15 0 0m-2.1-1.7c.1-.4.1-.7.1-1 0-.6-.4-1.1-1-1.3s-1.3-.2-1.9.1c-.8.4-1.3 1.1-1.6 1.9v.2c.1 0 .1.1.2.1zM25.6 21.7c-.2.1-.3.1-.4.2q-.9.3-1.8.3H22c-1-.1-1.9-.3-2.8-.9-.6-.4-1-1-1.3-1.7-.1-.3-.2-.6-.2-1 0-.3-.1-.5-.1-.8.1-1 .2-2.1.7-3 .8-1.5 2-2.5 3.6-2.9.4-.1.8-.1 1.2-.2.9 0 1.7.1 2.5.5.9.4 1.4 1.1 1.7 2.1.1.5.2 1 .1 1.5 0 .6-.1 1.1-.2 1.7 0 .1-.1.2-.1.3-.2.1-.4 0-.6 0h-6.199999999999999c0 .1-.1.2-.1.3 0 .8.4 1.4 1.1 1.8.4.2.9.3 1.3.3h.5c.9 0 1.7-.1 2.6-.4.1 0 .2-.1.3-.1h.1c-.1.6-.3 1.3-.5 2m-5.1-5.6h4.3c.1 0 .2 0 .3-.1v-.9c0-.6-.4-1.1-1-1.3s-1.3-.2-1.9.1c-.9.4-1.4 1.1-1.7 2-.1 0 0 .1 0 .2M49.8 21.5c-.5.2-1.1.3-1.6.4-1.2.3-2.4.3-3.6.2-.7 0-1.3-.2-1.9-.6-.8-.4-1.2-1.1-1.2-2 0-.4 0-.8.1-1.2.2-.7.6-1.3 1.2-1.7.5-.4 1.1-.6 1.6-.7.6-.1 1.2-.2 1.8-.2s1.2.1 1.8.2c.1 0 .2 0 .3.1q.3-.75 0-1.5c-.1-.3-.3-.4-.5-.6-.3-.2-.7-.3-1-.3h-1.5c-.5 0-1 .2-1.5.4-.2.1-.3.1-.5.1v-.2c.1-.5.2-.9.3-1.4 0-.2.1-.3.1-.5.6-.2 1.2-.3 1.8-.4.5-.1 1-.1 1.5-.1s1 .1 1.5.2c.4.1.8.2 1.1.4.8.4 1.3 1.2 1.3 2.1.1.7 0 1.4-.1 2.1-.2 1.1-.4 2.1-.6 3.2-.1.4-.1.8-.1 1.3-.2.4-.2.6-.3.7m-2.3-1.4c0-.5 0-1 .1-1.5 0-.1.1-.3.1-.4s.1-.2-.1-.4c-.1 0-.3-.1-.4-.1-.6-.2-1.1-.1-1.7-.1-.3 0-.6.1-.9.2-.5.2-.8.5-.9 1 0 .1 0 .2-.1.3 0 .2.1.4.1.5.2.3.5.5.8.6.4.1.9.2 1.4.1.2 0 .4 0 .7-.1.4.1.7.1.9-.1M53.3 22.2c0-.1-.1-.2-.1-.3-.1-.8-.2-1.6-.3-2.3l-.3-1.5c-.1-.5-.2-1-.2-1.6-.1-.6-.2-1.1-.3-1.7-.1-.5-.2-1-.2-1.6 0-.1 0-.2-.1-.4v-.6000000000000001c.3-.1.6 0 .9 0h1.7000000000000002c.1.2.1.3.2.5.1.4.1.7.1 1.1 0 .3.1.6.1.9.1.4.1.8.2 1.2 0 .3.1.6.1.9.1.7.1 1.3.2 2 0 .3.1.6.1 1 .1 0 .1-.1.2-.1l1.2-2.4c.6-1.2 1.2-2.3 1.8-3.5l.6-1.2c0-.1.1-.2.2-.3.1 0 .2-.1.2-.1h2.3000000000000003q.15.15 0 .3l-.3.6c-.5.8-.9 1.6-1.4 2.4-.6 1-1.1 2-1.7 2.9l-1.2 2.1c-.3.5-.6 1.1-.9 1.6-.4.1-.7 0-1.1 0h-1.1c-.2.1-.6.1-.9.1M32.7 12h2.7v.2c-.1.8-.3 1.6-.4 1.8-.4.1-.9 0-1.3 0h-1.3c0 .1-.1.2-.1.3-.3 1.3-.5 2.7-.8 4-.1.4-.1.7 0 1.1q.15.45.6.6c.4.1.8.2 1.2.1.3-.1.6-.1.8-.2h.2c.1.4-.1.7-.1 1.1 0 .3-.1.7-.2 1-.4.2-.8.2-1.2.3h-1.3c-.6 0-1.1-.2-1.6-.5-.6-.4-.9-.9-1-1.6 0-.2-.1-.4-.1-.6v-.4c.1-.5.1-1 .2-1.5.2-1 .4-2 .6-3.1 0-.1.1-.3 0-.5-.5-.1-.9 0-1.4 0 0-.1-.1-.2 0-.2.1-.6.2-1.1.4-1.7l.1-.1c.5-.1 1 0 1.5-.1.1-.1.1-.3.2-.5l.3-1.8c0-.1.1-.2.1-.3.4-.1 1.6-.1 2.3 0h.2c-.2.9-.4 1.8-.6 2.6M73.8 22.2c-.4.1-2 .1-2.5 0-.1-.1-.1-.2-.1-.2.3-1.3.5-2.6.8-4 .2-1.1.4-2.3.6-3.4s.5-2.3.7-3.4c.1-.6.2-1.1.3-1.7.1-.3.1-.7.1-1v-.1l.1-.1h2.5c.1.1.1.2.1.3-.1.5-.2 1.1-.3 1.6-.2.9-.3 1.7-.5 2.6-.1.6-.2 1.1-.3 1.7-.2.8-.3 1.6-.5 2.5-.2 1.2-.5 2.4-.7 3.6-.1.4-.2.8-.2 1.3-.1-.1-.1.1-.1.3M36.6 12.7c.6-.3 1.2-.4 1.8-.5.5-.1.9-.2 1.4-.2h2.1c.2 0 .3.1.5.1.1.1.1.2.1.3l-.3 1.5c0 .1-.1.2-.1.3-.6-.1-1.2-.2-1.8-.1-.4.1-.8 0-1.2.2-.1.9-.3 1.7-.4 2.6-.2.9-.3 1.7-.5 2.6s-.3 1.7-.5 2.6c-.3.1-.6.1-.9.1H36c-.3 0-.6.1-.9-.1 0-.2.1-.4.1-.6.2-.9.4-1.9.6-2.8.2-1 .4-1.9.6-2.9.1-.7.3-1.4.4-2.2v-.5c-.2-.1-.2-.2-.2-.4M15.3 22.2h-2.6c.1-.3.1-.7.2-1 .2-.8.3-1.7.5-2.5s.3-1.5.5-2.3c.1-.7.3-1.4.4-2.1.1-.4.1-.7.2-1.1v-.7c0-.1 0-.2.1-.3h2.5c.1.1.1.3 0 .4-.1.6-.2 1.2-.4 1.9-.2.8-.3 1.6-.5 2.5-.1.7-.3 1.4-.4 2.2-.1.7-.3 1.3-.4 2 0 .2 0 .6-.1 1M15 9.1c0-.9.7-1.5 1.6-1.6h.3c.8 0 1.3.7 1.1 1.5-.2.9-.8 1.3-1.7 1.4-.3 0-.5-.1-.7-.2q-.6-.3-.6-.9z" class="st0"/><path d="M33.9 17.1c0 .2-.1.4-.1.6 0 .1-.1.1-.1.2v-.1c0-.2.1-.4.1-.6 0-.1 0-.1.1-.1-.1 0 0 0 0 0M33.8 16.9c0-.2.1-.5.2-.7h.1c-.1.2-.1.4-.3.7q.15 0 0 0M33.8 16.9q.15 0 0 0c.1.1.1.1.1.2-.1-.1-.1-.2-.1-.2" class="st0"/></svg>