<?xml version="1.0" encoding="utf-8"?>
<!-- Generator: Adobe Illustrator 26.0.1, SVG Export Plug-In . SVG Version: 6.00 Build 0)  -->
<svg version="1.1" id="Layer_1" xmlns="http://www.w3.org/2000/svg" xmlns:xlink="http://www.w3.org/1999/xlink" x="0px" y="0px"
	 viewBox="0 0 179 56" style="enable-background:new 0 0 179 56;" xml:space="preserve">
<style type="text/css">
	.st0{fill:#0066B3;}
	.st1{fill:#FFC80B;}
	.st2{fill:#FFE800;}
</style>
<g>
	<path class="st0" d="M6.8,13.6c0,0.2-0.1,0.4-0.2,0.7c-0.1-0.1-0.1-0.1-0.1-0.2c0.1-0.2,0-0.5,0.2-0.7C6.7,13.4,6.7,13.5,6.8,13.6z    "/>
	<path class="st0" d="M39.7,21.7c0-0.1,0-0.2,0.1-0.3c0.1,0,0.1,0.1,0.1,0.2C39.8,21.6,39.7,21.7,39.7,21.7z"/>
	<path class="st0" d="M102,22.6c0-0.1,0-0.2,0.1-0.2c0.1,0.1,0.1,0.2,0.1,0.3C102.1,22.7,102,22.7,102,22.6z"/>
	<path class="st0" d="M117.6,22.9c0-0.1,0-0.2,0.1-0.3c0.1,0,0.1,0.1,0.1,0.2C117.7,22.9,117.6,22.9,117.6,22.9z"/>
	<path class="st1" d="M166.4,21.7c-0.1,0-0.2,0-0.3,0c-0.9-0.2-1.8-0.4-2.6-0.6c-0.9-0.2-1.9-0.4-2.8-0.6c-0.6-0.1-1.2-0.3-1.8-0.4    c-0.9-0.2-1.8-0.4-2.6-0.6c-0.6-0.1-1.2-0.3-1.8-0.4c-0.9-0.2-1.8-0.4-2.7-0.6c-0.6-0.1-1.2-0.3-1.8-0.4c-0.9-0.2-1.8-0.4-2.7-0.6    c-0.4-0.1-0.9-0.2-1.3-0.3c-0.5-0.1-0.8-0.6-0.6-1.1c0-0.1,0.1-0.1,0.1-0.2c0.4-0.2,0.7-0.4,1.1-0.5c0.2-0.1,0.5-0.2,0.7-0.3    c0.9-0.4,1.8-0.8,2.7-1.2c0,0,0.1,0,0.1,0c0.8-0.4,1.6-0.8,2.5-1.2c1.1-0.5,2.2-1,3.3-1.5c0.4-0.2,0.9-0.4,1.3-0.6    c1.1-0.5,2.2-1,3.3-1.5c0.4-0.2,0.8-0.4,1.2-0.6c0.7-0.3,1.5-0.7,2.2-1c0,0,0.1,0,0.1,0c0.8-0.4,1.6-0.8,2.4-1.1    c0.7-0.3,1.4-0.6,2.1-1c0,0,0.1,0,0.1-0.1c0.8-0.4,1.6-0.8,2.5-1.2c1.1-0.5,2.2-1,3.3-1.5c0.4-0.2,0.9-0.4,1.3-0.6    c1.1-0.5,2.2-1,3.3-1.6c0.1,0,0.2,0,0.3-0.1c0,0.1,0.1,0.1,0.1,0.2c0,0.2,0,0.3,0,0.5c0,9.3,0,18.6,0,27.8c0,0.2,0,0.4,0,0.6    c-0.1,0.2-0.3,0.4-0.5,0.5c-0.2,0-0.4,0-0.6,0c-0.6-0.4-1.2-0.8-1.7-1.2c-0.4-0.3-0.8-0.6-1.2-0.9c-1-0.7-2-1.4-3-2.1    c-0.9-0.6-1.7-1.2-2.6-1.8c-0.2-0.1-0.3-0.3-0.5-0.4c0-0.3,0.1-0.6,0.2-0.9c0.3-0.9,0.6-1.7,0.9-2.6c0.3-0.7,0.6-1.5,0.9-2.2    c0.2-0.5,0.4-0.9,0.6-1.4c0.3-0.8,0.7-1.6,1-2.4c0.2-0.4,0.3-0.7,0.5-1.1c0.3-0.6,0.5-1.2,0.8-1.8c0-0.1,0.1-0.2,0.1-0.3    c0.2-0.5,0.4-1,0.7-1.5c0.2-0.5,0.5-1,0.7-1.5c0.2-0.5,0.5-1.1,0.7-1.6c0.6-1.3,1.3-2.6,1.9-3.9c0.1-0.1,0.1-0.3,0.2-0.4    c0,0,0-0.1,0-0.1c-0.1,0-0.1,0.1-0.2,0.1c-0.3,0.5-0.5,0.9-0.8,1.4c-0.3,0.5-0.5,0.9-0.8,1.4c-0.1,0.1-0.1,0.2-0.2,0.3    c-0.2,0.4-0.4,0.7-0.6,1.1c-0.2,0.4-0.4,0.8-0.6,1.2c-0.3,0.5-0.6,1-0.9,1.5c-0.2,0.4-0.4,0.7-0.6,1.1c-0.4,0.7-0.8,1.5-1.2,2.2    c-0.2,0.4-0.4,0.7-0.6,1.1c-0.4,0.7-0.8,1.4-1.2,2.1c-0.2,0.4-0.4,0.8-0.6,1.1c-0.5,0.7-0.9,1.5-1.3,2.3c-0.2,0.4-0.4,0.7-0.6,1.1    c-0.2,0.4-0.5,0.9-0.7,1.3c-0.1,0.2-0.3,0.5-0.4,0.8C166.6,21.7,166.5,21.7,166.4,21.7z"/>
	<path class="st0" d="M88.2,22.2c0-0.7,0.2-1.3,0.3-2c0.1-0.6,0.2-1.3,0.4-1.9c-0.1,0-0.1-0.1-0.2-0.1c-1.6,0-3.1,0-4.7,0    c0,0-0.1,0-0.2,0c-0.3,0.7-0.6,1.5-0.9,2.3c-0.3,0.8-0.6,1.6-0.9,2.3c-0.3,0.8-0.6,1.5-0.9,2.3c-0.4,0.1-1.9,0.1-2.7,0.1    c-0.1,0-0.1,0-0.2-0.1c0.2-0.5,0.4-1,0.6-1.5c0.6-1.5,1.1-2.9,1.7-4.4c0.5-1.2,0.9-2.4,1.4-3.5c0.5-1.2,0.9-2.4,1.4-3.6    c0.2-0.5,0.5-1,0.7-1.5c0.6-1,1.4-1.8,2.5-2.3c0.6-0.3,1.2-0.5,1.9-0.6c0.8-0.1,1.7-0.2,2.5-0.2c0.9,0.1,1.8,0.1,2.6,0.4    c0.1,0,0.1,0,0.2,0.1c0,0.1,0.1,0.1,0.1,0.2c-0.1,0.4-0.3,0.8-0.4,1.2c-0.2,0.8-0.3,1.6-0.5,2.4c-0.1,0.6-0.2,1.1-0.3,1.7    c-0.2,0.8-0.3,1.6-0.5,2.5c-0.2,1.2-0.5,2.3-0.7,3.5c-0.2,0.8-0.3,1.6-0.4,2.4c0,0.2,0,0.3-0.1,0.4C90.5,22.2,88.7,22.2,88.2,22.2z     M90.4,10.1C90.3,10,90.1,10,89.9,10c-0.4,0-0.8,0-1.2,0.1c-0.9,0.1-1.6,0.5-2.1,1.3c-0.3,0.4-0.5,0.8-0.6,1.2    c-0.4,0.9-0.7,1.8-1.1,2.8c0,0.1-0.1,0.3-0.1,0.4c0.1,0,0.2,0,0.3,0c1.3,0,2.7,0,4,0c0.1,0,0.2,0,0.3-0.1    C89.7,13.9,90.1,12,90.4,10.1z"/>
	<path class="st0" d="M134,17.8c-0.6,0-1.2,0-1.7,0c-0.6,0-1.1,0-1.7,0c-0.6,0-1.1,0-1.7,0c-0.6,0-1.1,0-1.7,0c0,0.1-0.1,0.2,0,0.3    c0,0.3,0.1,0.7,0.3,1c0.2,0.3,0.4,0.5,0.7,0.7c0.5,0.3,1,0.4,1.5,0.4c0.9,0.1,1.7-0.1,2.6-0.3c0.1,0,0.3-0.1,0.4-0.2    c0.1,0,0.2,0,0.3,0c-0.1,0.7-0.2,1.3-0.4,2c-0.4,0.2-0.9,0.3-1.3,0.4c-0.7,0.1-1.5,0.1-2.2,0.1c-0.8,0-1.6-0.2-2.3-0.6    c-1.2-0.6-1.9-1.6-2.1-2.9c-0.1-0.4,0-0.7,0-1.1c0-0.4,0-0.9,0.1-1.3c0.4-1.7,1.3-3.1,2.8-4c0.5-0.3,1.1-0.5,1.7-0.6    c0.5-0.1,1.1-0.1,1.6-0.1c0.7,0,1.4,0.2,2,0.5c0.6,0.4,1.1,0.9,1.3,1.5c0.3,0.8,0.4,1.6,0.3,2.4c-0.1,0.4-0.1,0.9-0.3,1.3    C134.1,17.6,134,17.6,134,17.8z M131.8,16c0.2-0.4,0.2-0.8,0.1-1.3c-0.1-0.5-0.4-0.8-0.9-1c-0.3-0.1-0.7-0.1-1-0.1    c-0.4,0-0.8,0.1-1.2,0.4c-0.6,0.4-1.1,1-1.3,1.7c0,0.1,0,0.2-0.1,0.3c0.1,0,0.1,0.1,0.2,0.1C128.9,16,130.3,16,131.8,16z"/>
	<path class="st0" d="M122.3,22.2c-0.1,0-0.1,0-0.2,0c-0.7,0-1.4,0-2.2,0c0,0-0.1,0-0.2,0c-0.1-0.1,0-0.3,0-0.4    c0.1-0.4,0.2-0.8,0.2-1.2c0.2-0.9,0.3-1.7,0.5-2.6c0.1-0.4,0.2-0.8,0.2-1.2c0.1-0.3,0.1-0.6,0.1-1c0-0.3,0-0.6-0.2-1    c-0.2-0.4-0.5-0.7-0.9-0.8c-0.5-0.1-1-0.2-1.5-0.1c-0.3,0.1-0.6,0.1-0.9,0.2c-0.1,0-0.1,0.1-0.2,0.1c-0.2,0.9-0.3,1.8-0.5,2.6    c-0.2,0.9-0.3,1.8-0.5,2.7c-0.2,0.9-0.3,1.7-0.5,2.6c-0.4,0.1-2,0.1-2.5,0c0-0.1,0-0.1,0-0.2c0.1-0.8,0.3-1.5,0.4-2.3    c0.1-0.6,0.2-1.3,0.4-1.9c0.2-1,0.4-1.9,0.6-2.9c0.1-0.4,0.1-0.7,0.2-1.1c0-0.3,0.1-0.7,0.1-1c0.1-0.2,0.2-0.2,0.4-0.2    c0.5-0.1,1.1-0.3,1.6-0.4c0.9-0.2,1.8-0.3,2.6-0.2c0.5,0,1.1,0.1,1.6,0.2c0.4,0.1,0.8,0.3,1.2,0.5c0.6,0.3,0.9,0.8,1.1,1.5    c0.1,0.3,0.1,0.5,0.1,0.8c0,0.3,0,0.7,0,1c0,0.3-0.1,0.7-0.1,1c-0.2,0.9-0.3,1.7-0.5,2.6c-0.1,0.6-0.2,1.1-0.3,1.7    C122.4,21.5,122.3,21.8,122.3,22.2z"/>
	<path class="st0" d="M143.4,12.3c-0.1,0.7-0.3,1.3-0.4,1.9c0,0.1-0.1,0.1-0.1,0.2c-0.1,0-0.2,0-0.2-0.1c-0.7-0.3-1.5-0.5-2.3-0.5    c-0.5,0-1,0-1.4,0.1c-0.4,0.1-0.8,0.3-1,0.7c0,0.1,0,0.2,0,0.4c0,0.3,0.1,0.5,0.4,0.6c0.1,0,0.2,0.1,0.3,0.1    c0.4,0.1,0.8,0.3,1.3,0.4c0.4,0.1,0.8,0.2,1.2,0.4c0.4,0.2,0.8,0.4,1.2,0.7c0.3,0.3,0.5,0.7,0.6,1.2c0.1,0.8,0,1.6-0.5,2.2    c-0.3,0.4-0.7,0.7-1.2,0.9c-0.6,0.3-1.2,0.4-1.8,0.5c-0.8,0.1-1.6,0.1-2.5,0.1c-0.8,0-1.6-0.1-2.3-0.4c-0.1,0-0.2-0.1-0.2-0.1    c0-0.5,0.2-1.5,0.4-2.1c0.1,0,0.2,0,0.2,0c0.4,0.1,0.7,0.3,1.1,0.4c0.5,0.1,1,0.2,1.6,0.2c0.4,0,0.8,0,1.2,0c0.3,0,0.6-0.1,0.9-0.2    c0.3-0.1,0.5-0.3,0.5-0.6c0-0.1,0-0.1,0-0.2c0,0,0-0.1,0-0.1c-0.1-0.4-0.3-0.7-0.7-0.8c-0.5-0.1-0.9-0.3-1.4-0.4    c-0.5-0.1-1-0.3-1.5-0.6c-0.4-0.2-0.7-0.5-0.9-0.8c-0.2-0.3-0.3-0.6-0.3-0.9c0-0.4,0-0.8,0.1-1.2c0.3-0.8,0.7-1.4,1.5-1.8    c0.7-0.4,1.4-0.6,2.2-0.7c0.6-0.1,1.3-0.1,1.9-0.1c0.7,0,1.3,0.1,2,0.3C143.1,12.2,143.2,12.2,143.4,12.3z"/>
	<path class="st0" d="M109.3,8.3c0,0.1,0,0.1,0,0.1c-0.9,4.5-1.7,9-2.6,13.5c0,0.1-0.1,0.2-0.1,0.3c-0.3,0.1-1.8,0.1-2.5,0    c-0.1-0.1-0.1-0.2-0.1-0.3c0.1-0.6,0.2-1.1,0.3-1.7c0.2-0.8,0.3-1.6,0.5-2.5c0.1-0.6,0.2-1.2,0.3-1.8c0.2-0.8,0.3-1.6,0.5-2.5    c0.1-0.6,0.2-1.2,0.3-1.8c0.1-0.8,0.3-1.6,0.4-2.4c0-0.4,0.1-0.7,0.1-1.1c0,0,0.1-0.1,0.2-0.1c0.8,0,1.6,0,2.4,0    C109.2,8.2,109.2,8.3,109.3,8.3z"/>
	<path class="st0" d="M104.9,12.2c-0.1,0.6-0.2,1.3-0.4,1.9c-0.2,0.1-0.3,0.1-0.4,0c-0.7-0.1-1.3-0.1-2,0c-0.2,0-0.4,0-0.6,0.1    c0,0-0.1,0.1-0.1,0.1c0,0.6-0.2,1.1-0.2,1.7c-0.2,1.1-0.4,2.1-0.6,3.2c-0.1,0.7-0.3,1.5-0.4,2.2c0,0.2,0,0.3-0.1,0.5    c0,0.1,0,0.2-0.1,0.2c-0.3,0.1-0.9,0.1-2.3,0.1c-0.1,0-0.2,0-0.3,0c0.1-0.4,0.1-0.8,0.2-1.2c0.2-0.8,0.3-1.6,0.5-2.5    c0.1-0.6,0.2-1.2,0.4-1.8c0.1-0.7,0.3-1.4,0.4-2.1c0.1-0.3,0.1-0.7,0.2-1c0-0.1,0-0.2,0-0.4c0-0.2,0-0.3,0-0.4    c0.1-0.2,0.3-0.2,0.5-0.3c0.7-0.2,1.4-0.3,2-0.4c1-0.1,1.9-0.1,2.9-0.1C104.6,12,104.8,12,104.9,12.2z"/>
	<path class="st0" d="M95.6,22.2c-0.7,0.1-2.1,0-2.5,0c0-0.1,0-0.2,0-0.3c0.3-1.3,0.5-2.6,0.8-3.9c0.2-0.9,0.3-1.8,0.5-2.7    c0.1-0.7,0.2-1.3,0.3-2c0-0.3,0-0.5,0-0.8c0-0.1,0-0.2,0.1-0.3c0.1,0,0.1-0.1,0.2-0.1c0.6,0,2.2,0,2.6,0c0,0,0,0,0,0    c0,0,0,0.1,0,0.1c-0.6,3.1-1.2,6.3-1.8,9.4C95.7,21.8,95.7,22,95.6,22.2z"/>
	<path class="st0" d="M110.6,12.2c0.3,0,2.2-0.1,2.5,0c0,0,0.1,0,0.1,0.1c0.1,0.2,0,0.3,0,0.5c-0.3,1.3-0.5,2.6-0.8,3.9    c-0.2,1.2-0.5,2.4-0.7,3.7c-0.1,0.6-0.2,1.2-0.3,1.8c0,0,0,0.1-0.1,0.1c-0.2,0.1-0.5,0-0.8,0c-0.3,0-0.6,0-0.9,0    c-0.3,0-0.5,0-0.8,0c-0.1-0.2,0-0.3,0-0.5c0.2-0.8,0.3-1.5,0.5-2.3c0.2-1.1,0.4-2.1,0.6-3.2c0.1-0.8,0.3-1.5,0.4-2.3    c0.1-0.5,0.2-0.9,0.1-1.4C110.5,12.4,110.5,12.3,110.6,12.2z"/>
	<path class="st2" d="M166.4,21.7c0.1,0,0.3,0,0.4,0c0.1-0.3,0.3-0.5,0.4-0.8c0.2-0.4,0.5-0.9,0.7-1.3c0.2-0.4,0.4-0.7,0.6-1.1    c0.4-0.8,0.8-1.5,1.3-2.3c0.2-0.4,0.4-0.7,0.6-1.1c0.4-0.7,0.8-1.4,1.2-2.1c0.2-0.4,0.4-0.7,0.6-1.1c0.4-0.7,0.8-1.5,1.2-2.2    c0.2-0.4,0.4-0.7,0.6-1.1c0.3-0.5,0.6-1,0.9-1.5c0.2-0.4,0.4-0.8,0.6-1.2c0.2-0.4,0.4-0.7,0.6-1.1c0.1-0.1,0.1-0.2,0.2-0.3    c0.3-0.5,0.5-0.9,0.8-1.4c0.3-0.5,0.5-0.9,0.8-1.4c0-0.1,0.1-0.2,0.2-0.1c0,0,0,0.1,0,0.1c-0.1,0.1-0.1,0.3-0.2,0.4    c-0.6,1.3-1.3,2.6-1.9,3.9c-0.2,0.5-0.5,1-0.7,1.6c-0.2,0.5-0.5,1-0.7,1.5c-0.2,0.5-0.5,1-0.7,1.5c0,0.1-0.1,0.2-0.1,0.3    c-0.3,0.6-0.5,1.2-0.8,1.8c-0.2,0.4-0.3,0.7-0.5,1.1c-0.3,0.8-0.7,1.6-1,2.4c-0.2,0.5-0.4,0.9-0.6,1.4c-0.3,0.7-0.6,1.5-0.9,2.2    c-0.3,0.9-0.6,1.7-0.9,2.6c-0.1,0.3-0.2,0.6-0.2,0.9c-0.2-0.1-0.4-0.3-0.6-0.4c-0.4-0.3-0.8-0.6-1.2-0.9    C166.9,21.9,166.7,21.8,166.4,21.7C166.4,21.8,166.4,21.7,166.4,21.7z"/>
	<path class="st0" d="M111.1,9.2c0-0.8,0.3-1.2,0.9-1.5c0.4-0.2,0.9-0.3,1.3-0.1c0.4,0.2,0.7,0.5,0.7,0.9c0.1,1.1-0.7,1.8-1.5,1.9    c-0.1,0-0.2,0-0.3,0C111.5,10.4,111.1,9.9,111.1,9.2z"/>
	<path class="st0" d="M95.4,9.1c0-0.6,0.3-1,0.8-1.3c0.5-0.3,0.9-0.4,1.5-0.2c0.4,0.1,0.7,0.5,0.7,0.9c0.2,1.1-0.7,1.8-1.5,1.9    c-0.1,0-0.2,0-0.3,0c-0.6,0.1-1.2-0.5-1.1-1.2C95.4,9.2,95.4,9.1,95.4,9.1z"/>
	<path class="st0" d="M0.1,21.9C0,21.7,0,21.6,0,21.4c0.4-1.2,0.6-2.5,0.9-3.7c0.2-1.2,0.4-2.3,0.7-3.5c0.1-0.8,0.3-1.5,0.5-2.3    c0.2-1,0.4-1.9,0.6-2.9c0.1-0.4,0.2-0.8,0.2-1.3c0.1,0,0.1-0.1,0.2-0.1c0.8,0,1.6,0,2.5,0c0,0,0.1,0,0.1,0c0.1,0.1,0.1,0.2,0.1,0.3    C5.5,8.5,5.4,9.1,5.3,9.7c-0.2,0.8-0.3,1.6-0.5,2.5c-0.2,1.2-0.5,2.3-0.7,3.5c-0.2,0.8-0.3,1.7-0.5,2.5c-0.1,0.4-0.2,0.7-0.2,1    c0,0.1-0.1,0.3-0.1,0.5c0.2,0.1,0.3,0.1,0.5,0.1c0.5,0,1,0,1.5-0.2c0.8-0.2,1.3-0.7,1.7-1.4c0.2-0.3,0.4-0.7,0.5-1    c0.5-1.4,1.1-2.9,1.6-4.3c0.5-1.4,1-2.7,1.5-4.1C11,8,11.3,7,11.7,6.1c0.2-0.5,0.4-1.1,0.6-1.7c0.1,0,0.2,0,0.3,0    c0.8,0,1.6,0,2.4,0c0.1,0,0.2,0,0.3,0c0,0.1,0,0.2,0,0.2c-0.3,0.9-0.7,1.9-1,2.8c-0.3,0.8-0.6,1.5-0.9,2.3    c-0.6,1.5-1.1,3.1-1.7,4.6c-0.3,0.8-0.6,1.6-0.9,2.5c-0.2,0.6-0.4,1.1-0.7,1.7c-0.4,0.7-0.8,1.4-1.4,2c-0.5,0.5-1.2,0.9-1.9,1.2    c-0.5,0.2-1,0.3-1.5,0.4c-0.6,0.1-1.1,0.1-1.7,0.1c-0.4,0-0.9,0-1.3,0c-0.7,0-1.3-0.1-1.9-0.2C0.2,22,0.1,21.9,0.1,21.9z"/>
	<path class="st0" d="M70.5,17.8c-2.2,0-4.5,0-6.7,0c-0.1,0.2-0.1,0.4-0.1,0.6c0.1,0.7,0.5,1.2,1.2,1.5c0.4,0.2,0.8,0.3,1.2,0.3    c0.2,0,0.3,0,0.5,0c0.9,0,1.7-0.1,2.6-0.4c0.1,0,0.2-0.1,0.4,0c-0.1,0.7-0.3,1.3-0.4,2c-0.1,0.1-0.2,0.1-0.4,0.2    c-0.6,0.2-1.2,0.3-1.9,0.3c-0.5,0-1,0-1.5,0c-1-0.1-1.9-0.3-2.8-0.9c-0.6-0.4-1-1-1.3-1.7c-0.2-0.6-0.3-1.3-0.3-1.9    c0.1-1,0.2-1.9,0.7-2.8c0.2-0.5,0.5-0.9,0.9-1.3c0.5-0.5,1-1,1.7-1.3c0.6-0.3,1.2-0.5,1.9-0.5c0.1,0,0.2,0,0.3,0c0.2,0,0.4,0,0.6,0    c0.4,0,0.8,0.1,1.3,0.2c1.3,0.3,2.1,1.1,2.5,2.4c0.1,0.4,0.1,0.7,0.2,1.1C70.9,16.2,70.9,17,70.5,17.8    C70.6,17.7,70.6,17.7,70.5,17.8z M68.4,16.1c0.1-0.4,0.1-0.7,0.1-1c0-0.6-0.4-1.1-1-1.3c-0.6-0.2-1.3-0.2-1.9,0.1    c-0.8,0.4-1.3,1.1-1.6,1.9c0,0.1,0,0.1,0,0.2c0.1,0,0.1,0.1,0.2,0.1C65.5,16.1,66.9,16.1,68.4,16.1z"/>
	<path class="st0" d="M25.6,21.7c-0.2,0.1-0.3,0.1-0.4,0.2c-0.6,0.2-1.2,0.3-1.8,0.3c-0.5,0-1,0-1.4,0c-1-0.1-1.9-0.3-2.8-0.9    c-0.6-0.4-1-1-1.3-1.7c-0.1-0.3-0.2-0.6-0.2-1c0-0.3-0.1-0.5-0.1-0.8c0.1-1,0.2-2.1,0.7-3c0.8-1.5,2-2.5,3.6-2.9    c0.4-0.1,0.8-0.1,1.2-0.2c0.9,0,1.7,0.1,2.5,0.5c0.9,0.4,1.4,1.1,1.7,2.1c0.1,0.5,0.2,1,0.1,1.5c0,0.6-0.1,1.1-0.2,1.7    c0,0.1-0.1,0.2-0.1,0.3c-0.2,0.1-0.4,0-0.6,0c-1.9,0-3.8,0-5.6,0c-0.2,0-0.4,0-0.6,0c0,0.1-0.1,0.2-0.1,0.3c0,0.8,0.4,1.4,1.1,1.8    c0.4,0.2,0.9,0.3,1.3,0.3c0.2,0,0.3,0,0.5,0c0.9,0,1.7-0.1,2.6-0.4c0.1,0,0.2-0.1,0.3-0.1c0,0,0,0,0.1,0C26,20.3,25.8,21,25.6,21.7    z M20.5,16.1c0.1,0,0.1,0,0.2,0c1.4,0,2.7,0,4.1,0c0.1,0,0.2,0,0.3-0.1c0-0.3,0-0.6,0-0.9c0-0.6-0.4-1.1-1-1.3    c-0.6-0.2-1.3-0.2-1.9,0.1c-0.9,0.4-1.4,1.1-1.7,2C20.4,15.9,20.5,16,20.5,16.1z"/>
	<path class="st0" d="M49.8,21.5c-0.5,0.2-1.1,0.3-1.6,0.4c-1.2,0.3-2.4,0.3-3.6,0.2c-0.7,0-1.3-0.2-1.9-0.6c-0.8-0.4-1.2-1.1-1.2-2    c0-0.4,0-0.8,0.1-1.2c0.2-0.7,0.6-1.3,1.2-1.7c0.5-0.4,1.1-0.6,1.6-0.7c0.6-0.1,1.2-0.2,1.8-0.2c0.6,0,1.2,0.1,1.8,0.2    c0.1,0,0.2,0,0.3,0.1c0.2-0.5,0.2-1,0-1.5c-0.1-0.3-0.3-0.4-0.5-0.6c-0.3-0.2-0.7-0.3-1-0.3c-0.5,0-1,0-1.5,0c-0.5,0-1,0.2-1.5,0.4    c-0.2,0.1-0.3,0.1-0.5,0.1c0-0.1,0-0.1,0-0.2c0.1-0.5,0.2-0.9,0.3-1.4c0-0.2,0.1-0.3,0.1-0.5c0.6-0.2,1.2-0.3,1.8-0.4    c0.5-0.1,1-0.1,1.5-0.1c0.5,0,1,0.1,1.5,0.2c0.4,0.1,0.8,0.2,1.1,0.4c0.8,0.4,1.3,1.2,1.3,2.1c0.1,0.7,0,1.4-0.1,2.1    c-0.2,1.1-0.4,2.1-0.6,3.2c-0.1,0.4-0.1,0.8-0.1,1.3C49.9,21.2,49.9,21.4,49.8,21.5z M47.5,20.1c0-0.5,0-1,0.1-1.5    c0-0.1,0.1-0.3,0.1-0.4c0-0.1,0.1-0.2-0.1-0.4c-0.1,0-0.3-0.1-0.4-0.1c-0.6-0.2-1.1-0.1-1.7-0.1c-0.3,0-0.6,0.1-0.9,0.2    c-0.5,0.2-0.8,0.5-0.9,1c0,0.1,0,0.2-0.1,0.3c0,0.2,0.1,0.4,0.1,0.5c0.2,0.3,0.5,0.5,0.8,0.6c0.4,0.1,0.9,0.2,1.4,0.1    c0.2,0,0.4,0,0.7-0.1C47,20.3,47.3,20.3,47.5,20.1z"/>
	<path class="st0" d="M53.3,22.2c0-0.1-0.1-0.2-0.1-0.3c-0.1-0.8-0.2-1.6-0.3-2.3c-0.1-0.5-0.2-1-0.3-1.5c-0.1-0.5-0.2-1-0.2-1.6    c-0.1-0.6-0.2-1.1-0.3-1.7c-0.1-0.5-0.2-1-0.2-1.6c0-0.1,0-0.2-0.1-0.4c0-0.1,0-0.3,0-0.4c0-0.1,0-0.1,0-0.2c0.3-0.1,0.6,0,0.9,0    c0.3,0,0.5,0,0.8,0c0.3,0,0.6,0,0.9,0c0.1,0.2,0.1,0.3,0.2,0.5c0.1,0.4,0.1,0.7,0.1,1.1c0,0.3,0.1,0.6,0.1,0.9    c0.1,0.4,0.1,0.8,0.2,1.2c0,0.3,0.1,0.6,0.1,0.9c0.1,0.7,0.1,1.3,0.2,2c0,0.3,0.1,0.6,0.1,1c0.1,0,0.1-0.1,0.2-0.1    c0.4-0.8,0.8-1.6,1.2-2.4c0.6-1.2,1.2-2.3,1.8-3.5c0.2-0.4,0.4-0.8,0.6-1.2c0-0.1,0.1-0.2,0.2-0.3c0.1,0,0.2-0.1,0.2-0.1    c0.7,0,1.5,0,2.2,0c0,0,0.1,0,0.1,0c0.1,0.1,0.1,0.2,0,0.3c-0.1,0.2-0.2,0.4-0.3,0.6c-0.5,0.8-0.9,1.6-1.4,2.4    c-0.6,1-1.1,2-1.7,2.9c-0.4,0.7-0.8,1.4-1.2,2.1c-0.3,0.5-0.6,1.1-0.9,1.6c-0.4,0.1-0.7,0-1.1,0c-0.4,0-0.7,0-1.1,0    C54,22.2,53.6,22.2,53.3,22.2z"/>
	<path class="st0" d="M32.7,12c0.9,0,1.8,0,2.7,0c0,0.1,0,0.1,0,0.2c-0.1,0.8-0.3,1.6-0.4,1.8c-0.4,0.1-0.9,0-1.3,0    c-0.4,0-0.9,0-1.3,0c0,0.1-0.1,0.2-0.1,0.3c-0.3,1.3-0.5,2.7-0.8,4c-0.1,0.4-0.1,0.7,0,1.1c0.1,0.3,0.3,0.5,0.6,0.6    c0.4,0.1,0.8,0.2,1.2,0.1c0.3-0.1,0.6-0.1,0.8-0.2c0.1,0,0.1,0,0.2,0c0.1,0.4-0.1,0.7-0.1,1.1c0,0.3-0.1,0.7-0.2,1    c-0.4,0.2-0.8,0.2-1.2,0.3c-0.4,0-0.9,0-1.3,0c-0.6,0-1.1-0.2-1.6-0.5c-0.6-0.4-0.9-0.9-1-1.6c0-0.2-0.1-0.4-0.1-0.6    c0-0.1,0-0.2,0-0.4c0.1-0.5,0.1-1,0.2-1.5c0.2-1,0.4-2,0.6-3.1c0-0.1,0.1-0.3,0-0.5c-0.5-0.1-0.9,0-1.4,0c0-0.1-0.1-0.2,0-0.2    c0.1-0.6,0.2-1.1,0.4-1.7c0,0,0,0,0.1-0.1c0.5-0.1,1,0,1.5-0.1c0.1-0.1,0.1-0.3,0.2-0.5c0.1-0.6,0.2-1.2,0.3-1.8    c0-0.1,0.1-0.2,0.1-0.3c0.4-0.1,1.6-0.1,2.3,0c0.1,0,0.1,0,0.2,0C33.1,10.3,32.9,11.2,32.7,12z"/>
	<path class="st0" d="M73.8,22.2c-0.4,0.1-2,0.1-2.5,0c-0.1-0.1-0.1-0.2-0.1-0.2c0.3-1.3,0.5-2.6,0.8-4c0.2-1.1,0.4-2.3,0.6-3.4    c0.2-1.1,0.5-2.3,0.7-3.4c0.1-0.6,0.2-1.1,0.3-1.7c0.1-0.3,0.1-0.7,0.1-1c0,0,0-0.1,0-0.1c0,0,0.1-0.1,0.1-0.1c0.3,0,2.2,0,2.5,0    c0.1,0.1,0.1,0.2,0.1,0.3c-0.1,0.5-0.2,1.1-0.3,1.6c-0.2,0.9-0.3,1.7-0.5,2.6c-0.1,0.6-0.2,1.1-0.3,1.7c-0.2,0.8-0.3,1.6-0.5,2.5    c-0.2,1.2-0.5,2.4-0.7,3.6c-0.1,0.4-0.2,0.8-0.2,1.3C73.8,21.8,73.8,22,73.8,22.2z"/>
	<path class="st0" d="M36.6,12.7c0.6-0.3,1.2-0.4,1.8-0.5c0.5-0.1,0.9-0.2,1.4-0.2c0.5,0,1.1,0,1.6,0c0.2,0,0.3,0,0.5,0    c0.2,0,0.3,0.1,0.5,0.1c0.1,0.1,0.1,0.2,0.1,0.3c-0.1,0.5-0.2,1-0.3,1.5c0,0.1-0.1,0.2-0.1,0.3c-0.6-0.1-1.2-0.2-1.8-0.1    c-0.4,0.1-0.8,0-1.2,0.2c-0.1,0.9-0.3,1.7-0.4,2.6c-0.2,0.9-0.3,1.7-0.5,2.6c-0.2,0.9-0.3,1.7-0.5,2.6c-0.3,0.1-0.6,0.1-0.9,0.1    c-0.3,0-0.5,0-0.8,0c-0.3,0-0.6,0.1-0.9-0.1c0-0.2,0.1-0.4,0.1-0.6c0.2-0.9,0.4-1.9,0.6-2.8c0.2-1,0.4-1.9,0.6-2.9    c0.1-0.7,0.3-1.4,0.4-2.2c0-0.2,0-0.3,0-0.5C36.6,13,36.6,12.9,36.6,12.7z"/>
	<path class="st0" d="M15.3,22.2c-0.8,0-1.6,0-2.4,0c0,0-0.1,0-0.2,0c0.1-0.3,0.1-0.7,0.2-1c0.2-0.8,0.3-1.7,0.5-2.5    c0.2-0.8,0.3-1.5,0.5-2.3c0.1-0.7,0.3-1.4,0.4-2.1c0.1-0.4,0.1-0.7,0.2-1.1c0-0.2,0-0.5,0-0.7c0-0.1,0-0.2,0.1-0.3c0,0,0.1,0,0.1,0    c0.8,0,1.5,0,2.3,0c0,0,0.1,0,0.1,0c0.1,0.1,0.1,0.3,0,0.4c-0.1,0.6-0.2,1.2-0.4,1.9c-0.2,0.8-0.3,1.6-0.5,2.5    c-0.1,0.7-0.3,1.4-0.4,2.2c-0.1,0.7-0.3,1.3-0.4,2C15.4,21.4,15.4,21.8,15.3,22.2z"/>
	<path class="st0" d="M15,9.1c0-0.9,0.7-1.5,1.6-1.6c0.1,0,0.2,0,0.3,0c0.8,0,1.3,0.7,1.1,1.5c-0.2,0.9-0.8,1.3-1.7,1.4    c-0.3,0-0.5-0.1-0.7-0.2C15.2,10,15,9.7,15,9.3C15,9.2,15,9.2,15,9.1z"/>
	<path class="st0" d="M33.9,17.1c0,0.2-0.1,0.4-0.1,0.6c0,0.1-0.1,0.1-0.1,0.2c0,0,0-0.1,0-0.1c0-0.2,0.1-0.4,0.1-0.6    C33.8,17.1,33.8,17.1,33.9,17.1C33.8,17.1,33.9,17.1,33.9,17.1L33.9,17.1z"/>
	<path class="st0" d="M33.8,16.9c0-0.2,0.1-0.5,0.2-0.7c0,0,0,0,0.1,0C34,16.4,34,16.6,33.8,16.9C33.9,16.9,33.9,16.9,33.8,16.9z"/>
	<path class="st0" d="M33.8,16.9C33.9,16.9,33.9,16.9,33.8,16.9c0.1,0.1,0.1,0.1,0.1,0.2c0,0,0,0,0,0s0,0,0,0    C33.8,17,33.8,16.9,33.8,16.9z"/>
</g>
</svg>
