<?xml version="1.0" encoding="UTF-8"?>
<svg xmlns="http://www.w3.org/2000/svg" xmlns:xlink="http://www.w3.org/1999/xlink" width="176pt" height="57.06pt" viewBox="0 0 176 57.06" version="1.1">
<defs>
<clipPath id="clip1">
  <path d="M 139 16 L 165 16 L 165 57.058594 L 139 57.058594 Z M 139 16 "/>
</clipPath>
</defs>
<g id="surface1">
<path style=" stroke:none;fill-rule:nonzero;fill:rgb(43.190002%,43.742371%,44.46106%);fill-opacity:1;" d="M 87.417969 0.167969 C 88.664062 -0.203125 90.113281 0.0351562 91.09375 0.917969 C 91.921875 1.6875 92.273438 2.84375 92.28125 3.953125 C 92.285156 14.878906 92.28125 25.804688 92.28125 36.726562 C 92.222656 38.363281 92.570312 40.199219 91.554688 41.621094 C 90.546875 43.089844 88.429688 43.476562 86.875 42.703125 C 85.609375 42.074219 84.929688 40.621094 84.945312 39.246094 C 84.953125 27.949219 84.945312 16.644531 84.949219 5.347656 C 84.964844 4.335938 84.84375 3.289062 85.203125 2.324219 C 85.554688 1.316406 86.390625 0.472656 87.417969 0.167969 "/>
<path style=" stroke:none;fill-rule:nonzero;fill:rgb(43.190002%,43.742371%,44.46106%);fill-opacity:1;" d="M 65.253906 22.40625 C 63.492188 23.332031 63.058594 25.472656 62.882812 27.277344 C 66.324219 27.28125 69.765625 27.273438 73.210938 27.28125 C 73.078125 25.4375 72.464844 23.355469 70.710938 22.433594 C 69.035156 21.605469 66.941406 21.617188 65.253906 22.40625 Z M 58.3125 20.769531 C 60.175781 18.117188 63.277344 16.480469 66.472656 16.171875 C 69.871094 15.796875 73.621094 16.375 76.253906 18.707031 C 78.699219 20.859375 79.789062 24.152344 80.011719 27.320312 C 80.082031 28.566406 80.265625 29.933594 79.613281 31.066406 C 79.109375 31.960938 77.992188 32.195312 77.042969 32.203125 C 72.324219 32.210938 67.597656 32.195312 62.878906 32.210938 C 63.179688 33.964844 64 35.847656 65.746094 36.585938 C 68.179688 37.621094 70.925781 37.011719 73.359375 36.28125 C 74.324219 35.996094 75.320312 35.640625 76.34375 35.785156 C 77.765625 36.089844 78.78125 37.617188 78.617188 39.046875 C 78.480469 40.136719 77.582031 40.921875 76.6875 41.4375 C 75.039062 42.351562 73.160156 42.714844 71.308594 42.933594 C 67.808594 43.339844 64.015625 43.066406 61.011719 41.054688 C 58.035156 39.128906 56.328125 35.703125 55.910156 32.253906 C 55.425781 28.320312 55.972656 24.0625 58.3125 20.769531 "/>
<path style=" stroke:none;fill-rule:nonzero;fill:rgb(43.190002%,43.742371%,44.46106%);fill-opacity:1;" d="M 29.882812 16.367188 C 31.144531 16.011719 32.640625 16.222656 33.585938 17.183594 C 34.386719 17.972656 34.707031 19.121094 34.703125 20.21875 C 34.710938 24.273438 34.703125 28.328125 34.707031 32.382812 C 34.699219 33.84375 35.292969 35.402344 36.570312 36.210938 C 37.695312 36.9375 39.09375 37.003906 40.390625 36.851562 C 41.5 36.710938 42.609375 36.191406 43.257812 35.25 C 43.984375 34.21875 44.089844 32.910156 44.101562 31.6875 C 44.105469 27.714844 44.097656 23.738281 44.101562 19.769531 C 44.113281 18.386719 44.949219 16.996094 46.261719 16.488281 C 47.6875 15.914062 49.53125 16.183594 50.53125 17.425781 C 51.308594 18.320312 51.460938 19.554688 51.4375 20.703125 C 51.414062 24.359375 51.46875 28.019531 51.414062 31.679688 C 51.339844 34.808594 50.488281 38.15625 48.105469 40.34375 C 45.550781 42.699219 41.886719 43.269531 38.535156 43.136719 C 35.445312 43.035156 32.164062 42.105469 30.058594 39.714844 C 28.128906 37.53125 27.40625 34.539062 27.371094 31.6875 C 27.378906 27.714844 27.367188 23.738281 27.378906 19.769531 C 27.398438 18.261719 28.414062 16.789062 29.882812 16.367188 "/>
<path style=" stroke:none;fill-rule:nonzero;fill:rgb(43.190002%,43.742371%,44.46106%);fill-opacity:1;" d="M 119.9375 16.40625 C 123.378906 15.972656 127.132812 16.128906 130.164062 17.992188 C 132.253906 19.246094 133.671875 21.40625 134.285156 23.734375 C 134.707031 25.277344 134.847656 26.886719 134.851562 28.480469 C 134.847656 31.992188 134.847656 35.503906 134.851562 39.015625 C 134.871094 40.175781 134.492188 41.398438 133.605469 42.1875 C 132.289062 43.359375 130.144531 43.386719 128.78125 42.289062 C 127.886719 41.5625 127.417969 40.390625 127.453125 39.25 C 127.464844 35.734375 127.453125 32.21875 127.460938 28.703125 C 127.46875 27.15625 127.523438 25.457031 126.582031 24.128906 C 125.8125 22.992188 124.414062 22.46875 123.085938 22.421875 C 121.769531 22.382812 120.335938 22.632812 119.347656 23.574219 C 118.433594 24.488281 118.113281 25.832031 118.117188 27.09375 C 118.125 31.074219 118.113281 35.058594 118.125 39.039062 C 118.125 39.988281 117.921875 40.972656 117.328125 41.734375 C 116.066406 43.417969 113.265625 43.558594 111.820312 42.039062 C 111.101562 41.308594 110.78125 40.265625 110.785156 39.257812 C 110.785156 36.582031 110.789062 33.910156 110.785156 31.238281 C 110.8125 28.792969 110.621094 26.304688 111.28125 23.917969 C 111.832031 21.648438 113.144531 19.539062 115.085938 18.203125 C 116.53125 17.222656 118.222656 16.664062 119.9375 16.40625 "/>
<g clip-path="url(#clip1)" clip-rule="nonzero">
<path style=" stroke:none;fill-rule:nonzero;fill:rgb(43.190002%,43.742371%,44.46106%);fill-opacity:1;" d="M 151.414062 22.480469 C 150.292969 22.671875 149.203125 23.167969 148.414062 23.996094 C 146.96875 25.566406 146.636719 27.804688 146.640625 29.855469 C 146.671875 31.699219 146.8125 33.703125 147.960938 35.234375 C 149.042969 36.644531 150.96875 36.964844 152.640625 36.835938 C 154.238281 36.757812 155.816406 35.886719 156.554688 34.429688 C 157.929688 31.820312 157.441406 28.78125 157.535156 25.953125 C 157.484375 25.113281 157.789062 24.027344 156.949219 23.480469 C 155.378906 22.324219 153.277344 22.203125 151.414062 22.480469 Z M 143.695312 19.289062 C 146.199219 17.089844 149.605469 16.132812 152.894531 16.214844 C 156.117188 16.21875 159.402344 16.878906 162.226562 18.476562 C 163.523438 19.183594 164.496094 20.550781 164.46875 22.066406 C 164.46875 29.632812 164.464844 37.199219 164.46875 44.765625 C 164.421875 48.1875 163.324219 51.820312 160.644531 54.109375 C 157.960938 56.425781 154.277344 57.105469 150.824219 57.058594 C 148.171875 56.945312 145.496094 56.277344 143.214844 54.894531 C 142.386719 54.363281 141.605469 53.707031 141.128906 52.839844 C 140.253906 51.222656 141.269531 48.917969 143.070312 48.511719 C 144.398438 48.304688 145.640625 48.957031 146.832031 49.4375 C 148.449219 50.152344 150.214844 50.554688 151.984375 50.492188 C 153.5 50.488281 155.121094 50.109375 156.21875 49.007812 C 157.238281 47.945312 157.550781 46.414062 157.539062 44.988281 C 157.535156 43.667969 157.527344 42.351562 157.535156 41.03125 C 155.464844 42.851562 152.558594 43.289062 149.890625 43.117188 C 147.097656 42.949219 144.355469 41.699219 142.527344 39.554688 C 139.953125 36.605469 139.191406 32.5 139.402344 28.691406 C 139.582031 25.175781 140.980469 21.609375 143.695312 19.289062 "/>
</g>
<path style=" stroke:none;fill-rule:nonzero;fill:rgb(43.190002%,43.742371%,44.46106%);fill-opacity:1;" d="M 0.375 18.3125 C 1.148438 16.804688 3.066406 16.21875 4.648438 16.542969 C 5.90625 16.777344 6.804688 17.890625 7.117188 19.082031 C 8.566406 23.96875 10.019531 28.855469 11.457031 33.746094 C 11.535156 34.035156 11.671875 34.304688 11.828125 34.558594 C 13.34375 29.550781 14.816406 24.527344 16.300781 19.507812 C 16.578125 18.4375 17.097656 17.304688 18.152344 16.800781 C 19.84375 16.03125 22.175781 16.574219 23.136719 18.230469 C 23.746094 19.328125 23.59375 20.671875 23.148438 21.800781 C 21.089844 27.535156 19.070312 33.285156 17.015625 39.023438 C 16.585938 40.128906 16.171875 41.304688 15.3125 42.160156 C 14.421875 43.003906 13.121094 43.089844 11.957031 43.097656 C 10.664062 43.105469 9.226562 42.988281 8.234375 42.058594 C 7.324219 41.183594 6.847656 39.976562 6.417969 38.820312 C 4.378906 33.0625 2.359375 27.300781 0.3125 21.550781 C -0.0703125 20.515625 -0.160156 19.308594 0.375 18.3125 "/>
<path style=" stroke:none;fill-rule:nonzero;fill:rgb(43.190002%,43.742371%,44.46106%);fill-opacity:1;" d="M 100.28125 16.714844 C 101.824219 16.105469 103.78125 16.570312 104.722656 17.980469 C 105.28125 18.761719 105.410156 19.753906 105.40625 20.691406 C 105.394531 26.804688 105.402344 32.917969 105.402344 39.03125 C 105.402344 40.050781 105.148438 41.121094 104.449219 41.898438 C 103.132812 43.453125 100.429688 43.5 99.054688 41.992188 C 98.394531 41.253906 98.058594 40.257812 98.066406 39.269531 C 98.070312 32.925781 98.070312 26.578125 98.066406 20.230469 C 98.027344 18.765625 98.878906 17.246094 100.28125 16.714844 "/>
<path style=" stroke:none;fill-rule:nonzero;fill:rgb(96.572876%,91.212463%,27.882385%);fill-opacity:1;" d="M 169.496094 2.757812 C 170.65625 2.390625 171.9375 2.390625 173.09375 2.761719 C 174.535156 3.226562 175.675781 4.515625 175.929688 6.011719 C 176.085938 7.296875 176.03125 8.71875 175.242188 9.808594 C 173.707031 11.957031 170.371094 12.25 168.277344 10.785156 C 165.585938 8.78125 166.136719 3.742188 169.496094 2.757812 "/>
</g>
</svg>
