<svg xmlns="http://www.w3.org/2000/svg" width="176pt" height="76.08" viewBox="0 0 176 57.06"><defs><clipPath id="a"><path d="M139 16h26v41.059h-26Zm0 0"/></clipPath></defs><path d="M87.418.168c1.246-.371 2.695-.133 3.676.75.828.77 1.18 1.926 1.187 3.035.004 10.926 0 21.852 0 32.774-.058 1.636.29 3.472-.726 4.894-1.008 1.469-3.125 1.856-4.68 1.082-1.266-.629-1.945-2.082-1.93-3.457.008-11.297 0-22.601.004-33.898.016-1.012-.105-2.059.254-3.024.352-1.008 1.188-1.851 2.215-2.156M65.254 22.406c-1.762.926-2.195 3.067-2.371 4.871 3.441.004 6.883-.004 10.328.004-.133-1.843-.746-3.926-2.5-4.847-1.676-.829-3.77-.817-5.457-.028m-6.942-1.636c1.864-2.653 4.965-4.29 8.16-4.598 3.4-.375 7.15.203 9.782 2.535 2.445 2.152 3.535 5.445 3.758 8.613.07 1.246.254 2.614-.399 3.746-.504.895-1.62 1.13-2.57 1.137-4.719.008-9.445-.008-14.164.008.3 1.754 1.121 3.637 2.867 4.375 2.434 1.035 5.18.426 7.613-.305.965-.285 1.961-.64 2.985-.496 1.422.305 2.437 1.832 2.273 3.262-.137 1.09-1.035 1.875-1.93 2.39-1.648.915-3.527 1.278-5.378 1.497-3.5.406-7.293.132-10.297-1.88-2.977-1.925-4.684-5.35-5.102-8.8-.484-3.934.063-8.191 2.403-11.484M29.883 16.367c1.262-.355 2.758-.144 3.703.817.8.789 1.121 1.937 1.117 3.035.008 4.054 0 8.11.004 12.164-.008 1.46.586 3.02 1.863 3.828 1.125.727 2.524.793 3.82.64 1.11-.14 2.22-.66 2.868-1.601.726-1.031.832-2.34.844-3.562.003-3.973-.004-7.95 0-11.918.011-1.383.847-2.774 2.16-3.282 1.425-.574 3.27-.304 4.27.938.777.894.929 2.129.906 3.277-.024 3.656.03 7.317-.024 10.977-.074 3.129-.926 6.476-3.309 8.664-2.554 2.355-6.218 2.926-9.57 2.793-3.09-.102-6.37-1.032-8.476-3.422-1.93-2.184-2.653-5.176-2.688-8.028.008-3.972-.004-7.949.008-11.917.02-1.508 1.035-2.98 2.504-3.403M119.938 16.406c3.44-.433 7.195-.277 10.226 1.586 2.09 1.254 3.508 3.414 4.121 5.742.422 1.543.563 3.153.567 4.746q-.006 5.268 0 10.536c.02 1.16-.36 2.382-1.247 3.172-1.316 1.171-3.46 1.199-4.824.101-.894-.727-1.363-1.898-1.328-3.039.012-3.516 0-7.031.008-10.547.008-1.547.062-3.246-.879-4.574-.77-1.137-2.168-1.66-3.496-1.707-1.316-.04-2.75.21-3.738 1.152-.914.914-1.235 2.258-1.23 3.52.007 3.98-.005 7.965.007 11.945 0 .95-.203 1.934-.797 2.695-1.262 1.684-4.062 1.825-5.508.305-.718-.73-1.039-1.773-1.035-2.781 0-2.676.004-5.348 0-8.02.028-2.445-.164-4.933.496-7.32.551-2.27 1.864-4.379 3.805-5.715 1.445-.98 3.137-1.539 4.852-1.797" style="stroke:none;fill-rule:nonzero;fill:#6e7071;fill-opacity:1"/><g clip-path="url(#a)"><path d="M151.414 22.48c-1.121.192-2.21.688-3 1.516-1.445 1.57-1.777 3.809-1.773 5.86.03 1.843.172 3.847 1.32 5.378 1.082 1.41 3.008 1.73 4.68 1.602 1.597-.078 3.175-.95 3.914-2.406 1.375-2.61.886-5.649.98-8.477-.05-.84.254-1.926-.586-2.473-1.57-1.156-3.672-1.277-5.535-1m-7.719-3.19c2.504-2.2 5.91-3.157 9.2-3.075 3.222.004 6.507.664 9.332 2.262 1.296.707 2.27 2.074 2.242 3.59 0 7.566-.004 15.132 0 22.699-.047 3.422-1.145 7.054-3.824 9.343-2.684 2.317-6.368 2.996-9.82 2.95-2.653-.114-5.329-.782-7.61-2.164-.828-.532-1.61-1.188-2.086-2.055-.875-1.617.14-3.922 1.941-4.328 1.328-.207 2.57.445 3.762.925 1.617.715 3.383 1.118 5.152 1.055 1.516-.004 3.137-.383 4.235-1.484 1.02-1.063 1.332-2.594 1.32-4.02-.004-1.32-.012-2.636-.004-3.957-2.07 1.82-4.976 2.258-7.644 2.086-2.793-.168-5.536-1.418-7.364-3.562-2.574-2.95-3.336-7.055-3.125-10.864.18-3.515 1.578-7.082 4.293-9.402" style="stroke:none;fill-rule:nonzero;fill:#6e7071;fill-opacity:1"/></g><path d="M.375 18.313c.773-1.508 2.691-2.094 4.273-1.77 1.258.234 2.157 1.348 2.47 2.539 1.448 4.887 2.902 9.773 4.339 14.664.078.29.215.559.371.813 1.516-5.008 2.988-10.032 4.473-15.051.277-1.07.797-2.203 1.851-2.707 1.692-.77 4.024-.227 4.985 1.43.61 1.097.457 2.44.011 3.57-2.058 5.734-4.078 11.484-6.132 17.222-.43 1.106-.844 2.282-1.703 3.137-.891.844-2.192.93-3.356.938-1.293.007-2.73-.11-3.723-1.04-.91-.874-1.386-2.081-1.816-3.238C4.378 33.063 2.359 27.3.313 21.55c-.383-1.034-.473-2.241.062-3.238M100.281 16.715c1.543-.61 3.5-.145 4.442 1.265.558.782.687 1.774.683 2.711-.011 6.114-.004 12.227-.004 18.34 0 1.02-.254 2.09-.953 2.867-1.316 1.555-4.02 1.602-5.394.094-.66-.738-.996-1.734-.989-2.722q.006-9.517 0-19.04c-.039-1.464.813-2.984 2.215-3.515" style="stroke:none;fill-rule:nonzero;fill:#6e7071;fill-opacity:1"/><path d="M169.496 2.758a6 6 0 0 1 3.598.004c1.441.465 2.582 1.754 2.836 3.25.156 1.285.101 2.707-.688 3.797-1.535 2.148-4.87 2.441-6.965.976-2.691-2.004-2.14-7.043 1.22-8.027" style="stroke:none;fill-rule:nonzero;fill:#f6e947;fill-opacity:1"/></svg>