<svg xmlns="http://www.w3.org/2000/svg" width="176pt" height="41.227" viewBox="0 0 176 30.92"><defs><clipPath id="a"><path d="M41 4h21v26.922H41Zm0 0"/></clipPath></defs><path d="M0 4.398h5.305L6.21 20.7l7.566-16.3h5.563L7.246 28.136H2.457zM20.117 4.465h5.305l-3.82 18.562H16.3zM112.914 3.96h5.305l-3.82 18.563h-5.301zM36.836 11.969c.258-.68 1.45-4.852-1.746-4.852-1.938 0-3.106.906-4.004 2.68-.395.973-.59 1.621-.75 2.172Zm4.16 3.492H30.141c-.13.582-.438 4.14 3.754 4.14 2.746 0 3.558-.324 4.847-.972l.586 3.105c-1.746 1.036-3.43 1.23-5.305 1.422-5.449 0-8.863-1.617-8.796-7.695.097-9.59 8.23-11.492 10.347-11.45 9.895.196 5.422 11.45 5.422 11.45M72.54 11.969c.257-.68 1.448-4.852-1.747-4.852-1.938 0-3.106.906-4.004 2.68-.394.973-.586 1.621-.75 2.172Zm4.16 3.492H65.843c-.13.582-.438 4.14 3.754 4.14 2.746 0 3.558-.324 4.851-.972l.582 3.105c-1.75 1.036-3.43 1.23-5.304 1.422-5.45 0-8.864-1.617-8.797-7.695.097-9.59 8.23-11.492 10.347-11.45 9.895.196 5.422 11.45 5.422 11.45M46.043 1.66s.633-.972 2.523-1.433c1.895-.461 3.278-.082 3.278-.082l-1.02 4.351h2.739l-.63 3.348-3.03.074-1.891 9.531c-.07.34-.559 3.008 2.789 2.086 0 0-1.434 4.34-5.531 3.492a3.72 3.72 0 0 1-2.813-4.293zM81.844 1.66s.633-.972 2.523-1.433c1.895-.461 3.278-.082 3.278-.082l-1.02 4.351h2.738l-.629 3.348-3.03.074-1.895 9.531c-.07.34-.555 3.008 2.789 2.086 0 0-1.43 4.34-5.528 3.492a3.72 3.72 0 0 1-2.812-4.293z" style="stroke:none;fill-rule:nonzero;fill:#e62729;fill-opacity:1"/><g clip-path="url(#a)"><path d="M55.98 4.445h5.125L57.566 22.25c-1.117 5.285-6.183 10.328-12.855 8.152-2.375-.777-3.977-3.156-3.637-5.53 0 0 2.02 1.753 4.996 1.89 4.121.195 5.989-3.961 6.258-5.239z" style="stroke:none;fill-rule:nonzero;fill:#e62729;fill-opacity:1"/></g><path d="M103.066 19.129V9.387l-5.457 9.742Zm.016 3.394h-7.18l-3.168 5.305H87.56l14.296-23.86h5.56l.905 23.86h-5.238zM128.824 7.34c-.847-.219-2.715-.363-3.566 0l-3.153 15.23h-5.261l3.636-17.488c3.055-1.793 6.864-1.816 9.582-1.43zM130.938 21.61c-.512.898-1.551 1.269-2.317.831-.77-.441-.976-1.523-.465-2.421.516-.899 1.551-1.27 2.32-.829.77.442.977 1.524.462 2.418M140.758 19.008l.34 2.398c-1.434 1.262-3.97 1.176-5.07.754-3.493-1.336-3.063-5.758-2.548-7.785.536-2.094 1.407-3.617 2.72-4.828 1.405-1.098 3.128-1.7 5.105-1.274 1.613.305 2.386.957 2.386.957l-1.308 2.04c-3.055-1.649-5.074 2.89-5.266 4.242-.605 4.343 1.797 4.683 3.64 3.496" style="stroke:none;fill-rule:nonzero;fill:#e62729;fill-opacity:1"/><path d="M150.46 15.586c-.538 2.926-1.76 4.289-3.3 4.27-1.539-.282-1.574-1.723-1.039-4.645.535-2.926 1.695-4.625 3.418-4.574 1.578.05 1.457 2.027.922 4.949m1.071-7.145c-3.836-1.246-6.8.618-8.64 4.817-1.836 4.195-1.395 7.539 1.992 9.023 3.441 1.067 6.894-.12 8.73-4.316 1.836-4.2 1.438-8.383-2.082-9.524M173.867 22.402h-4.027l2.012-9.629c.558-1.554-.758-2.015-1.137-2.062-1.168-.145-2.274.36-2.43.777l-2.254 10.914h-4l2.035-9.824c.153-.418.196-1.601-1.406-1.867-.219-.035-1.55-.172-2.133.316l-2.304 11.375h-4.028c-.113 0 2.715-13.074 2.715-13.074 2.621-1.187 5.121-1.09 5.121-1.09 3.563.07 4.645 1.407 4.727 1.407.086 0 2.332-1.286 5.07-1.407 2.934 0 4.656 2.375 4.05 4.242z" style="stroke:none;fill-rule:nonzero;fill:#e62729;fill-opacity:1"/></svg>