<?xml version="1.0" encoding="UTF-8"?>
<svg xmlns="http://www.w3.org/2000/svg" xmlns:xlink="http://www.w3.org/1999/xlink" width="176pt" height="51.32pt" viewBox="0 0 176 51.32" version="1.1">
<defs>
<clipPath id="clip1">
  <path d="M 156 41 L 165 41 L 165 51.320312 L 156 51.320312 Z M 156 41 "/>
</clipPath>
<clipPath id="clip2">
  <path d="M 163 41 L 176 41 L 176 51.320312 L 163 51.320312 Z M 163 41 "/>
</clipPath>
<clipPath id="clip3">
  <path d="M 137 37 L 157 37 L 157 51.320312 L 137 51.320312 Z M 137 37 "/>
</clipPath>
<clipPath id="clip4">
  <path d="M 117 41 L 133 41 L 133 51.320312 L 117 51.320312 Z M 117 41 "/>
</clipPath>
<clipPath id="clip5">
  <path d="M 103 41 L 118 41 L 118 51.320312 L 103 51.320312 Z M 103 41 "/>
</clipPath>
<clipPath id="clip6">
  <path d="M 88 37 L 105 37 L 105 51.320312 L 88 51.320312 Z M 88 37 "/>
</clipPath>
<clipPath id="clip7">
  <path d="M 51 37 L 78 37 L 78 51.320312 L 51 51.320312 Z M 51 37 "/>
</clipPath>
<clipPath id="clip8">
  <path d="M 75 41 L 90 41 L 90 51.320312 L 75 51.320312 Z M 75 41 "/>
</clipPath>
</defs>
<g id="surface1">
<path style=" stroke:none;fill-rule:nonzero;fill:rgb(10.255432%,26.441956%,26.150513%);fill-opacity:1;" d="M 162.042969 37.84375 L 160.933594 40.550781 L 165.316406 40.550781 L 166.429688 37.84375 L 162.042969 37.84375 "/>
<g clip-path="url(#clip1)" clip-rule="nonzero">
<path style=" stroke:none;fill-rule:nonzero;fill:rgb(10.255432%,26.441956%,26.150513%);fill-opacity:1;" d="M 160.398438 41.867188 L 156.601562 51.101562 L 160.984375 51.101562 L 163.976562 43.820312 L 164.78125 41.867188 L 160.398438 41.867188 "/>
</g>
<g clip-path="url(#clip2)" clip-rule="nonzero">
<path style=" stroke:none;fill-rule:nonzero;fill:rgb(10.255432%,26.441956%,26.150513%);fill-opacity:1;" d="M 175.222656 41.648438 C 175.148438 41.636719 175.046875 41.636719 174.917969 41.636719 C 174.125 41.636719 173.398438 41.78125 172.734375 42.054688 C 172.054688 42.34375 171.390625 42.777344 170.738281 43.371094 C 170.851562 43.09375 170.957031 42.824219 171.03125 42.574219 C 171.109375 42.332031 171.160156 42.097656 171.171875 41.878906 L 166.8125 41.878906 C 166.789062 42.054688 166.738281 42.273438 166.660156 42.53125 C 166.582031 42.792969 166.46875 43.09375 166.328125 43.429688 L 163.976562 49.164062 L 163.171875 51.117188 L 167.542969 51.117188 L 169.011719 47.542969 C 169.445312 46.46875 169.972656 45.730469 170.582031 45.3125 C 171.199219 44.890625 172.039062 44.675781 173.128906 44.675781 C 173.28125 44.675781 173.445312 44.675781 173.628906 44.691406 C 173.804688 44.703125 173.984375 44.71875 174.175781 44.734375 L 175.429688 41.664062 C 175.367188 41.648438 175.300781 41.648438 175.222656 41.648438 "/>
</g>
<g clip-path="url(#clip3)" clip-rule="nonzero">
<path style=" stroke:none;fill-rule:nonzero;fill:rgb(10.255432%,26.441956%,26.150513%);fill-opacity:1;" d="M 155.117188 37.855469 L 150.066406 37.855469 L 149.007812 38.972656 L 137.566406 51.101562 L 142.128906 51.101562 L 144.214844 48.710938 L 151.28125 48.710938 L 151.332031 51.101562 L 156.40625 51.101562 Z M 146.757812 45.820312 L 149.007812 43.300781 L 151.050781 40.996094 L 151.242188 45.820312 L 146.757812 45.820312 "/>
</g>
<g clip-path="url(#clip4)" clip-rule="nonzero">
<path style=" stroke:none;fill-rule:nonzero;fill:rgb(10.255432%,26.441956%,26.150513%);fill-opacity:1;" d="M 132.246094 42.722656 C 131.800781 42 130.867188 41.648438 129.445312 41.648438 C 128.679688 41.648438 127.914062 41.78125 127.160156 42.070312 C 126.417969 42.34375 125.652344 42.777344 124.859375 43.355469 C 125.027344 42.980469 125.128906 42.675781 125.203125 42.445312 C 125.28125 42.199219 125.316406 42.011719 125.316406 41.867188 L 120.945312 41.867188 C 120.910156 42.054688 120.859375 42.285156 120.78125 42.546875 C 120.703125 42.824219 120.601562 43.09375 120.472656 43.414062 L 117.597656 50.421875 L 117.316406 51.101562 L 121.675781 51.101562 L 123.554688 46.542969 C 123.910156 45.675781 124.359375 45.023438 124.882812 44.589844 C 125.40625 44.152344 126.035156 43.953125 126.738281 43.953125 C 127.339844 43.953125 127.710938 44.109375 127.863281 44.429688 C 128.003906 44.75 127.941406 45.265625 127.644531 45.976562 L 125.535156 51.101562 L 129.910156 51.101562 L 132.066406 45.832031 C 132.632812 44.472656 132.695312 43.429688 132.246094 42.722656 "/>
</g>
<g clip-path="url(#clip5)" clip-rule="nonzero">
<path style=" stroke:none;fill-rule:nonzero;fill:rgb(10.255432%,26.441956%,26.150513%);fill-opacity:1;" d="M 117.597656 42.894531 C 117.507812 42.75 117.394531 42.632812 117.253906 42.519531 C 116.550781 41.9375 115.246094 41.648438 113.316406 41.648438 C 112.257812 41.648438 111.296875 41.722656 110.46875 41.851562 C 109.738281 41.984375 109.097656 42.15625 108.550781 42.402344 C 107.359375 42.894531 106.539062 43.660156 106.105469 44.675781 L 110.144531 44.675781 C 110.25 44.515625 110.339844 44.382812 110.46875 44.253906 C 110.605469 44.109375 110.773438 44.007812 110.964844 43.910156 C 111.308594 43.75 111.757812 43.660156 112.28125 43.660156 C 112.871094 43.660156 113.265625 43.777344 113.457031 44.007812 C 113.648438 44.242188 113.648438 44.601562 113.457031 45.066406 C 113.445312 45.09375 113.433594 45.136719 113.40625 45.179688 C 113.378906 45.238281 113.355469 45.269531 113.355469 45.28125 C 112.292969 45.296875 111.335938 45.339844 110.46875 45.414062 C 108.929688 45.53125 107.679688 45.761719 106.734375 46.09375 C 105.277344 46.613281 104.304688 47.453125 103.820312 48.628906 C 103.820312 48.640625 103.820312 48.640625 103.804688 48.65625 C 103.550781 49.308594 103.550781 49.859375 103.804688 50.292969 C 103.882812 50.40625 103.984375 50.507812 104.101562 50.609375 C 104.625 51.089844 105.570312 51.320312 106.910156 51.320312 C 107.871094 51.320312 108.726562 51.1875 109.496094 50.929688 C 109.839844 50.8125 110.160156 50.667969 110.46875 50.507812 C 110.863281 50.292969 111.246094 50.03125 111.589844 49.742188 C 111.488281 49.988281 111.425781 50.21875 111.359375 50.4375 C 111.308594 50.667969 111.273438 50.886719 111.273438 51.101562 L 115.320312 51.101562 C 115.320312 50.957031 115.347656 50.78125 115.386719 50.609375 C 115.4375 50.421875 115.515625 50.191406 115.640625 49.886719 L 117.570312 45.179688 C 117.585938 45.167969 117.585938 45.152344 117.597656 45.136719 C 117.96875 44.199219 117.96875 43.445312 117.597656 42.894531 M 112.523438 47.253906 C 112.242188 47.933594 111.847656 48.4375 111.335938 48.769531 C 111.078125 48.945312 110.785156 49.074219 110.46875 49.164062 C 110.171875 49.25 109.839844 49.277344 109.46875 49.277344 C 109.019531 49.277344 108.703125 49.191406 108.523438 49.03125 C 108.34375 48.859375 108.320312 48.613281 108.433594 48.308594 C 108.625 47.859375 109.007812 47.554688 109.597656 47.367188 C 109.828125 47.296875 110.121094 47.238281 110.46875 47.207031 C 111.015625 47.136719 111.734375 47.105469 112.589844 47.105469 L 112.523438 47.253906 "/>
</g>
<g clip-path="url(#clip6)" clip-rule="nonzero">
<path style=" stroke:none;fill-rule:nonzero;fill:rgb(10.255432%,26.441956%,26.150513%);fill-opacity:1;" d="M 103.804688 42.867188 C 103.78125 42.792969 103.742188 42.722656 103.691406 42.664062 C 103.230469 41.984375 102.285156 41.648438 100.851562 41.648438 C 100.085938 41.648438 99.320312 41.792969 98.550781 42.082031 C 97.796875 42.359375 97.042969 42.792969 96.289062 43.355469 L 98.550781 37.855469 L 94.167969 37.855469 L 89.003906 50.4375 L 88.722656 51.117188 L 89.003906 51.117188 L 93.105469 51.101562 L 94.984375 46.542969 C 95.34375 45.675781 95.789062 45.023438 96.300781 44.589844 C 96.828125 44.167969 97.441406 43.953125 98.144531 43.953125 C 98.730469 43.953125 99.101562 44.109375 99.253906 44.414062 C 99.421875 44.734375 99.371094 45.210938 99.113281 45.847656 L 96.941406 51.101562 L 101.339844 51.101562 L 103.589844 45.632812 C 103.679688 45.414062 103.753906 45.195312 103.804688 44.992188 C 104.085938 44.125 104.085938 43.414062 103.804688 42.867188 "/>
</g>
<g clip-path="url(#clip7)" clip-rule="nonzero">
<path style=" stroke:none;fill-rule:nonzero;fill:rgb(10.255432%,26.441956%,26.150513%);fill-opacity:1;" d="M 70.929688 37.855469 L 64.152344 46.0625 L 64.023438 37.855469 L 56.445312 37.855469 L 51 51.117188 L 55.382812 51.117188 L 59.769531 40.433594 L 60.101562 51.117188 L 63.578125 51.117188 L 72.539062 40.433594 L 68.152344 51.117188 L 72.523438 51.117188 L 76.488281 41.460938 L 77.972656 37.855469 L 70.929688 37.855469 "/>
</g>
<g clip-path="url(#clip8)" clip-rule="nonzero">
<path style=" stroke:none;fill-rule:nonzero;fill:rgb(10.255432%,26.441956%,26.150513%);fill-opacity:1;" d="M 89.003906 42.894531 C 88.914062 42.761719 88.796875 42.632812 88.667969 42.519531 C 87.96875 41.9375 86.652344 41.648438 84.71875 41.648438 C 83.660156 41.648438 82.714844 41.722656 81.867188 41.867188 C 81.140625 41.984375 80.488281 42.171875 79.9375 42.402344 C 78.75 42.894531 77.945312 43.660156 77.496094 44.691406 L 81.550781 44.691406 C 81.640625 44.527344 81.742188 44.382812 81.867188 44.253906 C 82.023438 44.125 82.175781 44.007812 82.367188 43.910156 C 82.726562 43.75 83.164062 43.660156 83.699219 43.660156 C 84.273438 43.660156 84.667969 43.777344 84.863281 44.007812 C 85.054688 44.242188 85.066406 44.601562 84.863281 45.082031 C 84.863281 45.09375 84.835938 45.136719 84.808594 45.179688 C 84.785156 45.238281 84.773438 45.269531 84.757812 45.28125 C 83.699219 45.296875 82.738281 45.339844 81.867188 45.414062 C 80.324219 45.542969 79.070312 45.777344 78.136719 46.109375 C 77.484375 46.324219 76.9375 46.613281 76.488281 46.976562 C 75.914062 47.425781 75.476562 47.976562 75.210938 48.628906 C 74.863281 49.480469 74.953125 50.144531 75.492188 50.609375 C 75.734375 50.828125 76.066406 51 76.488281 51.117188 C 76.972656 51.246094 77.585938 51.320312 78.316406 51.320312 C 79.261719 51.320312 80.121094 51.1875 80.886719 50.929688 C 81.230469 50.8125 81.5625 50.667969 81.867188 50.507812 C 82.269531 50.292969 82.648438 50.046875 83.007812 49.742188 C 82.90625 49.988281 82.828125 50.21875 82.777344 50.4375 C 82.714844 50.667969 82.6875 50.886719 82.675781 51.117188 L 86.742188 51.117188 C 86.726562 50.957031 86.753906 50.78125 86.792969 50.609375 C 86.84375 50.421875 86.929688 50.191406 87.046875 49.898438 L 88.976562 45.195312 C 88.988281 45.167969 88.988281 45.152344 89.003906 45.136719 C 89.375 44.199219 89.375 43.445312 89.003906 42.894531 M 83.941406 47.253906 C 83.660156 47.933594 83.261719 48.4375 82.753906 48.769531 C 82.484375 48.945312 82.203125 49.074219 81.867188 49.164062 C 81.5625 49.25 81.230469 49.277344 80.859375 49.277344 C 80.414062 49.277344 80.09375 49.203125 79.914062 49.03125 C 79.734375 48.859375 79.710938 48.613281 79.839844 48.324219 C 80.015625 47.875 80.398438 47.554688 80.988281 47.367188 C 81.21875 47.308594 81.511719 47.253906 81.867188 47.207031 C 82.433594 47.136719 83.136719 47.105469 83.992188 47.105469 L 83.941406 47.253906 "/>
</g>
<path style=" stroke:none;fill-rule:nonzero;fill:rgb(10.255432%,26.441956%,26.150513%);fill-opacity:1;" d="M 174.960938 10.582031 C 175.089844 10.335938 175.242188 10.113281 175.386719 10.152344 C 175.824219 10.152344 176.046875 10.867188 175.992188 11.683594 C 175.863281 12.472656 175.445312 13.222656 174.898438 13.4375 C 174.453125 13.617188 174.015625 13.617188 173.625 13.433594 C 172.214844 12.324219 171.882812 15.203125 170.535156 16.875 C 169.996094 18.085938 169.421875 19.363281 168.699219 20.382812 C 168.359375 20.855469 167.980469 21.21875 167.566406 21.277344 C 166.628906 21.652344 165.46875 22.089844 164.265625 22.355469 C 163.929688 22.453125 163.894531 21.941406 164.15625 21.84375 C 164.433594 21.742188 164.589844 21.683594 164.796875 21.546875 C 166.1875 20.636719 167.667969 19.644531 168.777344 18.347656 C 168.90625 18.199219 168.980469 18.042969 168.984375 17.835938 C 168.988281 17.601562 168.902344 17.621094 168.800781 17.640625 C 168.546875 17.695312 166.539062 17.699219 166.585938 16.433594 C 166.835938 15.136719 167.839844 12.527344 169.082031 12.59375 C 169.519531 12.617188 169.875 12.898438 170.1875 13.367188 C 170.777344 14.242188 170.378906 14.589844 170.726562 14.589844 C 171.070312 14.589844 171.730469 12.671875 172.195312 11.683594 C 172.578125 10.882812 173.230469 10.3125 173.960938 10.722656 C 174.519531 11.03125 174.460938 11.527344 174.960938 10.582031 "/>
<path style=" stroke:none;fill-rule:nonzero;fill:rgb(10.255432%,26.441956%,26.150513%);fill-opacity:1;" d="M 172.996094 23.195312 C 172.855469 23.695312 172.683594 24.195312 172.683594 24.691406 C 172.589844 25.5 173.730469 24.992188 173.71875 26.441406 C 173.707031 27.789062 172.152344 28.15625 171.964844 26.632812 C 171.820312 25.457031 172.539062 23.664062 172.996094 23.195312 "/>
<path style=" stroke:none;fill-rule:nonzero;fill:rgb(10.255432%,26.441956%,26.150513%);fill-opacity:1;" d="M 163.136719 9.226562 C 162.917969 11.808594 162.59375 14.40625 162.183594 16.582031 C 161.667969 18.519531 160.992188 19.875 160.246094 20.984375 C 159.988281 21.371094 159.476562 21.570312 159.898438 20.382812 C 160.605469 18.671875 160.820312 16.515625 161.109375 14.316406 C 161.132812 13.386719 161.140625 12.757812 161.527344 11.902344 L 162.652344 8.941406 C 162.90625 8.359375 163.183594 8.65625 163.136719 9.226562 "/>
<path style=" stroke:none;fill-rule:nonzero;fill:rgb(10.255432%,26.441956%,26.150513%);fill-opacity:1;" d="M 159.65625 9.273438 C 159.839844 8.976562 160.101562 9.054688 160.125 9.347656 C 159.910156 10.328125 159.367188 11.191406 158.601562 11.976562 C 158.527344 12.066406 158.449219 12.152344 158.367188 12.222656 C 158.089844 12.464844 157.777344 12.394531 157.480469 12.21875 C 156.789062 11.8125 156.453125 12.023438 155.257812 13.039062 C 154.585938 13.546875 154.402344 14.082031 154.5625 14.691406 C 154.875 15.121094 155.1875 15.554688 155.5 15.988281 C 155.832031 16.328125 155.742188 16.667969 155.359375 17.011719 C 155.015625 17.378906 154.667969 17.746094 154.320312 18.117188 C 154.050781 18.4375 153.902344 18.367188 153.402344 18.050781 C 152.902344 17.738281 152.226562 17.101562 151.53125 17.25 C 151.066406 17.261719 147.898438 20.046875 143.421875 21.980469 C 135.566406 25.367188 125.808594 26.75 121.40625 24.445312 C 119.3125 23.347656 118.289062 21.203125 118.613281 17.75 L 119.335938 10.023438 C 119.417969 9.113281 119.589844 8.375 119.871094 7.511719 C 120.199219 6.523438 120.679688 5.625 120.816406 5.363281 C 120.9375 5.144531 119.367188 16.875 120.300781 18.1875 C 121.527344 22.160156 130.1875 22.316406 137.824219 20.890625 C 142.992188 19.929688 147.902344 17.378906 150.59375 15.824219 C 151.871094 15.089844 152.527344 14.777344 152.726562 14.609375 C 153.582031 13.878906 154.660156 11.769531 155.867188 10.746094 C 156.554688 10.164062 157.464844 9.929688 157.835938 10.097656 C 159.085938 10.660156 159.425781 9.824219 159.65625 9.273438 "/>
<path style=" stroke:none;fill-rule:nonzero;fill:rgb(10.255432%,26.441956%,26.150513%);fill-opacity:1;" d="M 113.039062 7.136719 C 113.25 6.683594 113.359375 6.316406 113.921875 7.15625 C 114.457031 7.75 114.914062 9.0625 114.816406 10.589844 C 114.722656 12.085938 114.195312 13.660156 113.59375 15.03125 C 112.542969 17.417969 112.726562 17.734375 113.019531 17.878906 C 114.230469 18.476562 114.632812 19.242188 114.5625 20.757812 C 114.539062 21.257812 114.472656 21.800781 114.339844 22.355469 C 112.816406 28.523438 109.625 30.894531 106.441406 30.90625 C 99.164062 29.605469 103.8125 19.011719 105.855469 15.285156 C 106.261719 14.546875 106.558594 15.121094 106.128906 16.070312 C 103.441406 21.699219 102.503906 25.851562 106.230469 26.941406 C 108.886719 27.320312 110.90625 26.519531 112.8125 24.472656 C 113.371094 23.394531 113.742188 22.40625 112.8125 22.0625 C 111.441406 21.492188 110.53125 20.636719 111.152344 18.992188 C 111.769531 17.351562 113.324219 14.058594 113.28125 13.183594 C 113.28125 12.304688 112.261719 10.589844 112.261719 10.589844 C 112.117188 10.242188 112.078125 9.863281 112.261719 9.421875 C 112.515625 8.664062 112.785156 7.890625 113.039062 7.136719 "/>
<path style=" stroke:none;fill-rule:nonzero;fill:rgb(10.255432%,26.441956%,26.150513%);fill-opacity:1;" d="M 112.019531 2.261719 C 112.019531 2.261719 110.980469 2.132812 111.085938 2.769531 C 111.1875 3.410156 111.917969 3.160156 112.296875 3.027344 C 112.679688 2.894531 112.785156 3.089844 112.566406 3.539062 C 112.394531 3.789062 112.214844 3.925781 111.925781 4.074219 C 111.742188 4.199219 111.285156 4.464844 110.921875 4.835938 C 110.554688 5.210938 110.265625 5.613281 110.089844 5.828125 C 109.960938 5.984375 109.929688 5.992188 109.742188 5.984375 C 109.324219 5.96875 109.496094 5.382812 109.84375 4.894531 C 110.160156 4.449219 110.554688 4.214844 110.566406 4.167969 C 110.632812 3.863281 110.050781 3.800781 110.289062 3.171875 C 110.527344 2.546875 110.871094 1.800781 111.46875 1.675781 C 112.0625 1.550781 112.28125 2.199219 112.019531 2.261719 "/>
<path style=" stroke:none;fill-rule:nonzero;fill:rgb(10.255432%,26.441956%,26.150513%);fill-opacity:1;" d="M 96.867188 7.152344 C 96.65625 8.734375 96.035156 13.546875 95.914062 15.007812 C 95.773438 16.769531 96.039062 18.550781 96.886719 18.734375 C 97.730469 18.914062 97.578125 18.417969 97.855469 17.453125 C 98.132812 16.492188 98.964844 17.066406 99.03125 18.734375 C 98.414062 23.90625 94.144531 23.628906 94.511719 18.511719 L 95.308594 10.515625 C 95.46875 9.347656 96.125 8.273438 96.484375 7.046875 C 96.546875 6.835938 96.988281 6.25 96.867188 7.152344 "/>
<path style=" stroke:none;fill-rule:nonzero;fill:rgb(10.255432%,26.441956%,26.150513%);fill-opacity:1;" d="M 91.078125 3.523438 C 90.738281 4.648438 89.785156 7.519531 90.371094 9.066406 C 90.589844 9.648438 91.082031 9.945312 91.90625 10.089844 C 92.289062 10.160156 92.460938 9.777344 92.476562 10.339844 C 92.488281 10.621094 92.394531 10.964844 92.316406 11.171875 C 91.554688 13.183594 88.996094 15.921875 89.542969 17.910156 C 89.777344 18.765625 90.238281 18.742188 90.546875 17.671875 C 90.859375 16.605469 91.910156 18.476562 91.449219 19.828125 C 90.988281 21.179688 90.09375 22.699219 88.679688 22.421875 C 87.261719 22.144531 87.101562 19.9375 87.863281 18.128906 C 88.417969 16.824219 89.5 15.058594 89.949219 14.3125 C 90.070312 14.113281 90.078125 13.910156 90.027344 13.894531 C 86.371094 12.882812 89.878906 4.5625 90.78125 3.09375 C 91.09375 2.582031 91.363281 2.566406 91.078125 3.523438 "/>
<path style=" stroke:none;fill-rule:nonzero;fill:rgb(10.255432%,26.441956%,26.150513%);fill-opacity:1;" d="M 84.347656 13.621094 C 84.671875 12.679688 84.855469 12.828125 84.796875 13.839844 C 84.539062 16.742188 84.207031 19.15625 83.691406 21.910156 C 83.171875 24.664062 79.3125 31.15625 74.511719 30.894531 C 69.714844 30.636719 69.34375 25.300781 71.085938 21.144531 C 71.898438 19.195312 72.464844 18.148438 72.773438 17.550781 C 73.226562 16.679688 73.792969 16.847656 73.457031 17.449219 C 71.753906 20.511719 69.628906 26.773438 74.894531 27.097656 C 78.699219 27.332031 81.917969 24.589844 82.652344 21.945312 C 83.382812 19.300781 82.808594 17.152344 83.066406 17.050781 C 82.777344 17.359375 84.070312 13.691406 84.347656 13.621094 "/>
<path style=" stroke:none;fill-rule:nonzero;fill:rgb(10.255432%,26.441956%,26.150513%);fill-opacity:1;" d="M 147.71875 26.699219 C 147.835938 26.394531 148.09375 26.117188 148.550781 26.496094 C 149.402344 27.367188 150.179688 27.972656 149.574219 29.402344 C 149.046875 30.640625 148.664062 31.148438 148.242188 31.136719 C 147.839844 31.125 147.394531 30.621094 146.753906 29.949219 C 146.386719 29.625 146.457031 29.28125 146.628906 28.855469 L 147.71875 26.699219 "/>
<path style=" stroke:none;fill-rule:nonzero;fill:rgb(10.255432%,26.441956%,26.150513%);fill-opacity:1;" d="M 155.140625 24.941406 C 155.285156 24.648438 155.53125 24.378906 155.957031 24.800781 L 156.804688 25.796875 C 156.804688 25.796875 157.257812 26.21875 157.152344 27.015625 C 157.105469 27.15625 157.195312 27.152344 157.308594 27.121094 L 158.535156 24.941406 C 158.679688 24.648438 158.925781 24.378906 159.351562 24.800781 L 160.199219 25.796875 C 160.199219 25.796875 160.519531 26.152344 160.5625 26.816406 C 160.640625 28.035156 159.160156 29.996094 158.496094 29.117188 C 157.804688 28.460938 157.160156 27.316406 156.953125 27.824219 C 156.839844 28.109375 155.828125 29.984375 155.101562 29.117188 L 154.09375 28.042969 C 153.78125 27.796875 153.710938 27.445312 153.847656 27.238281 L 155.140625 24.941406 "/>
<path style=" stroke:none;fill-rule:nonzero;fill:rgb(10.255432%,26.441956%,26.150513%);fill-opacity:1;" d="M 151.230469 26.480469 C 151.347656 26.175781 151.605469 25.898438 152.066406 26.277344 C 152.914062 27.148438 153.691406 27.753906 153.085938 29.183594 C 152.558594 30.421875 152.175781 30.929688 151.757812 30.917969 C 151.351562 30.90625 150.910156 30.402344 150.265625 29.730469 C 149.898438 29.40625 149.96875 29.0625 150.140625 28.632812 L 151.230469 26.480469 "/>
<path style=" stroke:none;fill-rule:nonzero;fill:rgb(10.255432%,26.441956%,26.150513%);fill-opacity:1;" d="M 156.664062 29.472656 C 156.78125 29.167969 157.039062 28.890625 157.496094 29.273438 C 158.347656 30.144531 159.125 30.75 158.519531 32.175781 C 157.992188 33.414062 157.609375 33.921875 157.191406 33.910156 C 156.785156 33.898438 156.34375 33.394531 155.699219 32.722656 C 155.332031 32.398438 155.402344 32.054688 155.574219 31.628906 L 156.664062 29.472656 "/>
<path style=" stroke:none;fill-rule:nonzero;fill:rgb(10.255432%,26.441956%,26.150513%);fill-opacity:1;" d="M 77.464844 16.832031 C 77.578125 16.523438 77.839844 16.25 78.296875 16.628906 C 79.148438 17.5 79.925781 18.105469 79.320312 19.53125 C 78.792969 20.769531 78.410156 21.28125 77.988281 21.269531 C 77.582031 21.257812 77.140625 20.753906 76.5 20.082031 C 76.132812 19.753906 76.203125 19.410156 76.375 18.984375 L 77.464844 16.832031 "/>
<path style=" stroke:none;fill-rule:nonzero;fill:rgb(10.255432%,26.441956%,26.150513%);fill-opacity:1;" d="M 12.710938 18.519531 L 14.230469 12.074219 C 14.679688 10.714844 15.804688 9.835938 17.507812 9.886719 L 22.730469 10.019531 C 24.621094 10.070312 25.738281 12.230469 25.289062 14.363281 L 24.910156 16.863281 C 24.542969 19.53125 22.917969 21.445312 20.199219 22.648438 C 9.0625 26.488281 1.390625 31.574219 2.5625 40.15625 C 3.734375 48.753906 16.761719 49.769531 24.089844 39.484375 L 41.082031 15.636719 C 47.421875 6.742188 57.015625 2.695312 68.230469 1.390625 L 83.304688 0 C 80.804688 8.261719 75.472656 13.988281 67.273438 15.511719 C 53.019531 18.121094 42.558594 21 36.824219 27.550781 L 31.359375 33.867188 L 23.128906 44.148438 C 19.429688 48.753906 14.066406 50.4375 8.050781 49.339844 C 2.75 48.144531 -0.339844 44.652344 0.03125 37.28125 C 0.402344 29.894531 5.65625 21.742188 12.710938 18.519531 "/>
<path style=" stroke:none;fill-rule:nonzero;fill:rgb(10.255432%,26.441956%,26.150513%);fill-opacity:1;" d="M 19.785156 49.234375 C 22.777344 46.789062 23.757812 46.628906 27.515625 40.953125 C 31.269531 35.28125 39.234375 26.882812 44.160156 23.953125 C 49.09375 21.023438 53.777344 20.039062 59.160156 18.972656 L 67.070312 17.375 C 65.875 25.152344 59.90625 29.117188 51.613281 30.078125 C 43.363281 31.066406 36.972656 32.847656 32.898438 37.570312 L 25.886719 45.613281 C 24.210938 47.558594 22.132812 48.757812 19.785156 49.234375 "/>
<path style=" stroke:none;fill-rule:nonzero;fill:rgb(10.255432%,26.441956%,26.150513%);fill-opacity:1;" d="M 32.742188 50.238281 C 27.996094 49.011719 27.730469 42.992188 33.859375 38.964844 C 39.957031 34.921875 48.246094 34.972656 51.355469 41.234375 C 47.445312 39.792969 45.070312 39.027344 42.972656 43.042969 C 40.867188 47.066406 37.453125 51.460938 32.742188 50.238281 "/>
</g>
</svg>
