<svg xmlns="http://www.w3.org/2000/svg" width="176pt" height="35.6pt" viewBox="0 0 176 35.6"><defs><clipPath id="a"><path d="M132 20h11v15.602h-11Zm0 0"/></clipPath><clipPath id="b"><path d="M145 20h11v15.602h-11Zm0 0"/></clipPath><clipPath id="c"><path d="M93 20h11v15.602H93Zm0 0"/></clipPath></defs><path d="M0 17.871h5.105c.196 1.55-.015 3.055.149 4.73.34-.28.57-.449.773-.648 1.16-1.129 2.328-2.254 3.461-3.41.48-.492 1-.734 1.7-.711 1.335.04 2.671.012 4.058.105-1.82 2.051-3.809 3.895-5.734 5.926 2.34 2.504 4.812 4.774 7.21 7.121.063-.02.13-.039.192-.062V18.066c.738-.261 4.223-.312 5.273-.097.028.32.083.672.086 1.02.004 2.597 0 5.19.004 7.788 0 .328.028.66.051 1.11 2.762.148 5.485-.024 8.277.101v3.27c-.632.219-18.683.316-20.52.101-1.51-1.504-3.085-3.074-4.66-4.64-.07.015-.136.035-.206.054v4.641L0 31.45zM176 21.895c-1.79.074-1.953.109-2.594.578-.402 3.054-.445 6.168-.426 9.367h-1.925V20.383H176zM49.043 22.25c-1.078 3.031-2.16 6.059-3.254 9.125h-4.937c-1.059-2.98-2.13-5.977-3.196-8.977l-.246.047v8.934c-1.762.101-3.418.062-5.039.027-.223-.695-.281-12.273-.101-13.36.574-.241 7.273-.32 8.52-.07.784 2.266 1.593 4.598 2.401 6.93l.211.024 2.516-7.067c2.82-.043 5.617-.011 8.492-.015v13.547c-1.668.078-3.32.05-5.047.011-.175-1.601-.058-3.129-.082-4.652-.02-1.488-.004-2.98-.004-4.469zM16.984 14.758v-3.465c.305-.035.594-.094.887-.094q9.167-.012 18.332 0c.352 0 .703.074 1.121.121v3.399c-.293.035-.586.101-.875.101q-9.293.012-18.582.012c-.273 0-.543-.043-.883-.074" style="stroke:none;fill-rule:nonzero;fill:#5aa1dd;fill-opacity:1"/><g clip-path="url(#a)"><path d="M134.328 30.27c1.086 0 2.059.015 3.031-.004 1.09-.024 1.946-.532 2.493-1.453.996-1.68 1.043-3.446.265-5.22-.351-.804-.953-1.41-1.847-1.554-.708-.117-1.438-.121-2.16-.144-.575-.016-1.145.011-1.782.02zm.07 1.32v3.777h-2.066v-14.87c.219-.052.402-.134.582-.13 1.899.047 3.797.086 5.691.172 1.473.07 2.512.914 3.22 2.121 1.152 1.969 1.195 4.07.292 6.117-.773 1.754-2.304 2.614-4.176 2.805-.8.082-1.617.012-2.425.008z" style="stroke:none;fill-rule:nonzero;fill:#5aa1dd;fill-opacity:1"/></g><g clip-path="url(#b)"><path d="M147.195 30.414c1.364 0 2.563.066 3.746-.027.735-.055 1.34-.535 1.758-1.164 1.09-1.645 1.098-3.414.465-5.2-.25-.714-.734-1.328-1.48-1.625-1.399-.546-2.832-.27-4.332-.285-.274 2.817-.13 5.504-.157 8.301m-1.742-9.797c1.512 0 2.984-.004 4.457.004.39.004.778.094 1.168.09 1.832-.012 3.074.953 3.887 2.469.867 1.625.957 3.37.418 5.125-.637 2.074-2.535 3.457-4.723 3.484-.781.012-1.562-.008-2.344-.004-.273 0-.546.027-.957.047-.007.656-.015 1.258-.02 1.86-.003.601-.003 1.21-.003 1.878h-1.832c-.25-.633-.305-13.945-.05-14.953" style="stroke:none;fill-rule:nonzero;fill:#5aa1dd;fill-opacity:1"/></g><path d="M116.176 31.234h-1.89c-.04-.406-.102-.757-.106-1.109-.012-1.871-.055-3.742.007-5.613.051-1.563-1.003-2.54-2.488-2.473-.969.043-1.945.008-3 .008-.043.406-.101.726-.105 1.047-.008 2.375 0 4.75-.008 7.125 0 .324-.055.648-.09 1.027h-1.851c-.235-.691-.274-13.547-.04-14.484h1.97v3.414c1.214.07 2.296.094 3.366.21.774.087 1.551.231 2.29.466 1.144.363 1.863 1.199 1.914 2.398.101 2.508.109 5.023.148 7.531.004.133-.066.262-.117.453M159.766 24.902c.793.239 5.8.207 6.422-.043.128-1.882-1.56-2.922-3.227-2.918-1.914.008-3.316 1.34-3.195 2.961m7.12 5.403c.094.312.173.566.278.925-.46.196-.848.426-1.262.516-1.43.317-2.882.32-4.316.067-2.484-.438-3.926-2.286-4.172-4.782a7.4 7.4 0 0 1 .387-3.133c.68-1.98 2.453-3.3 4.547-3.363 1.086-.035 2.164-.043 3.199.434 2.09.965 3.14 3.394 2.8 5.668-.292.027-.617.082-.937.086-2.23.007-4.46 0-6.691.007-.328 0-.656.028-1.102.051 0 .297-.031.535.004.766.27 1.61 1.688 2.863 3.32 2.883.946.008 1.895-.082 2.836-.121.332-.012.664-.004 1.11-.004M127.883 26.055l-.16-.035c0-.305.023-.614-.004-.918-.121-1.329-1.063-3.02-3.223-3.149-1.734-.105-3.012.672-3.55 2.402-.356 1.16-.325 2.31.023 3.454.383 1.257 1.55 2.187 2.808 2.289 1.715.136 2.91-.43 3.508-1.817.305-.699.403-1.48.598-2.226m-9.309-.012c.11-.688.176-1.383.332-2.055.262-1.117.934-1.976 1.903-2.554 2.078-1.25 4.273-1.297 6.41-.278 2.23 1.067 2.996 3.399 2.594 6.016-.45 2.922-2.602 4.215-5.133 4.402-.739.055-1.516-.035-2.239-.203-2.214-.512-3.683-2.363-3.773-4.644-.008-.223 0-.45 0-.672z" style="stroke:none;fill-rule:nonzero;fill:#5aa1dd;fill-opacity:1"/><g clip-path="url(#c)"><path d="M94.832 35.25c1.559-.504 2.531-1.383 2.988-2.836-.332-.39-.699-.77-1.011-1.187-.786-1.043-1.29-2.239-1.586-3.489-.5-2.113-.887-4.254-1.317-6.386-.027-.153.02-.325.035-.559h1.957c.395 1.594.735 3.172 1.196 4.715.457 1.543 1.035 3.05 1.652 4.566 1.676-3.027 2.145-6.418 3.203-9.633h1.895c-.074.305-.11.543-.184.77-1.148 3.437-2.281 6.883-3.476 10.309-.32.91-.786 1.793-1.297 2.613-.86 1.379-2.52 1.863-4.055 1.117" style="stroke:none;fill-rule:nonzero;fill:#5aa1dd;fill-opacity:1"/></g><path d="M78.21 29.84c.071.496.138.957.212 1.492-.274.09-.5.227-.73.227-1.7.003-3.41.074-5.102-.055-1.766-.129-3.094-1.086-3.88-2.692-1.233-2.519-1.355-5.113-.269-7.699.883-2.105 2.684-3.031 4.844-3.187 1.356-.094 2.73.086 4.094.152.101.008.2.09.336.152v1.528c-.88-.098-1.7-.195-2.52-.274a14 14 0 0 0-1.34-.082c-2.316-.004-3.777 1.196-4.25 3.461-.273 1.336-.199 2.657.067 3.989.351 1.765 1.965 3.398 4.082 3.253 1.219-.085 2.441-.18 3.664-.265.242-.016.484 0 .793 0M86.563 22.14c-.477-.07-.88-.128-1.348-.199v-1.257c.465-.07.867-.133 1.414-.215v-3.38h2v3.388c.734.07 1.328.125 1.984.183v1.317c-.636.043-1.207.082-1.863.125-.035.335-.09.628-.094.925a504 504 0 0 0 0 4.86c.008 1.418.63 2.074 2.059 2.207.219.023.437.047.746.078.086.457.168.902.242 1.32-2.355 1.02-5.008.149-5.05-2.82-.024-1.844-.005-3.688-.016-5.531-.004-.328-.047-.653-.075-1M16.953 4.613c1.692.008 3.004 1.305 2.977 2.946a2.953 2.953 0 0 1-3.004 2.933c-1.664-.023-3.024-1.344-2.946-2.996.09-1.816 1.524-2.96 2.973-2.883M23.816 4.613c1.649.004 2.95 1.309 2.97 2.977.019 1.55-1.345 2.887-2.962 2.902a2.98 2.98 0 0 1-3.012-3.027c.02-1.555 1.391-2.856 3.004-2.852M40.414 7.52c0 1.71-1.262 2.984-2.945 2.972-1.649-.008-2.926-1.281-2.938-2.918-.011-1.68 1.274-2.926 2.977-2.969 1.387-.039 3.039 1.211 2.906 2.915M30.7 4.613c1.609.012 2.929 1.336 2.925 2.942-.004 1.62-1.375 2.953-3.031 2.933-1.633-.015-2.957-1.394-2.93-3.043.027-1.554 1.41-2.843 3.035-2.832M82.61 31.215h-1.66c-.235-.723-.259-9.547-.028-10.438h1.664c.258.653.289 9.586.023 10.438M29.574 3.227l-1.484.12c-.063.508-.121.989-.188 1.544h-1.5c-.062-.48-.125-.961-.195-1.524-.523-.05-1.035-.097-1.625-.152V1.68l1.64-.149.16-1.531h1.52c.051.5.102.96.157 1.508.488.054.968.113 1.515.18zM82.707 18.605h-1.871v-1.957h1.871z" style="stroke:none;fill-rule:nonzero;fill:#5aa1dd;fill-opacity:1"/></svg>