<svg xmlns="http://www.w3.org/2000/svg" width="176pt" height="59pt" viewBox="0 0 176 59"><path d="M0 0h176v59H0z" style="fill:#254fa1;fill-opacity:1;stroke:none"/><path d="m42.535 6.04-5.402 8.714 7.91-6.219-6.742 7.746 8.562-4.59-7.785 6.43 8.836-2.762-8.488 4.844 8.726-.816-8.82 3.043 8.234 1.164-8.765 1.11 7.383 3.097-8.329-.875 6.208 4.894L36.53 29l4.766 6.477-6.399-4.641 3.11 7.773-4.992-6.261 1.32 8.742-3.363-7.61-.528 9.313-1.59-8.617-2.347 9.484.254-9.254-4.075 9.242 2.09-9.488-5.617 8.598 3.828-9.305-6.914 7.57 5.403-8.714-7.91 6.218 6.742-7.746-8.563 4.59 7.785-6.434-8.836 2.766 8.489-4.844-8.727.817 8.82-3.043-8.234-1.168 8.766-1.106-7.383-3.097 8.332.875-6.211-4.895 7.531 2.82-4.765-6.476 6.402 4.64-3.113-7.777 4.992 6.262-1.32-8.738 3.363 7.609.527-9.316 1.59 8.62 2.351-9.488-.257 9.258 4.074-9.242-2.086 9.484 5.617-8.593-3.832 9.304z" style="stroke:none;fill-rule:evenodd;fill:#f6df05;fill-opacity:1"/><path d="M34.164 17.11c-2.723-2.063-7.117-.856-9.797 2.683-2.68 3.543-2.644 8.102.078 10.16 2.723 2.063 7.121.856 9.797-2.687 2.68-3.543 2.645-8.098-.078-10.157M23.977 30.577c-2.989-2.262-3.028-7.262-.086-11.144 2.937-3.883 7.757-5.207 10.742-2.95 2.988 2.262 3.027 7.258.09 11.145-2.942 3.887-7.758 5.207-10.746 2.95" style="stroke:none;fill-rule:nonzero;fill:#fff;fill-opacity:1"/><path d="M7.988 23.531c8.817-29.148 32.93-20.976 32.93-20.976S14.468-8.54 0 23.53z" style="stroke:none;fill-rule:nonzero;fill:#4ba1de;fill-opacity:1"/><path d="M50.344 23.531c-8.813 29.149-32.93 20.977-32.93 20.977S43.867 55.602 58.336 23.53z" style="stroke:none;fill-rule:nonzero;fill:#86cc2d;fill-opacity:1"/><path d="M70.598 14.918q1.211 0 1.996-.281a3.16 3.16 0 0 0 1.316-.867 4.2 4.2 0 0 0 .805-1.372q.28-.78.281-1.757 0-1.188-.598-1.774c-.402-.39-1.03-.586-1.894-.586q-.928 0-1.246.024l-1.43 6.613Zm3.578.977q.737.596 1.07 1.152c.223.371.414.914.57 1.621l.352 1.71c.133.618.254 1.063.375 1.325q.176.397.477.649.297.253.824.37l-.172.81h-4.363q-.404-1.15-.707-2.727l-.391-2.028c-.113-.609-.25-1.09-.402-1.441q-.234-.526-.59-.758-.352-.234-.95-.234h-.757l-.88 3.886c-.058.27-.1.5-.124.7a6 6 0 0 0-.035.73q-.001.562.285.797.288.229.898.266l-.172.808h-6.316l.172-.808q.511-.145.789-.403c.18-.172.34-.414.469-.726q.195-.468.39-1.364l2.227-10.078q.157-.72.156-1.43.001-.514-.238-.753-.239-.236-.778-.313l.172-.804h6.098q1.235 0 1.95.066.714.07 1.37.27c.434.136.809.3 1.121.5q.475.299.809.714.335.419.512.965.18.552.18 1.235 0 1.845-1.09 3.128-1.086 1.283-3.313 2.055zM97.969 11.41l.43.805q-.58 1.651-2.512 4.808-1.94 3.159-4.602 6.692H89.22l-.38-3.617a55 55 0 0 1-.206-2.211 20 20 0 0 1-.047-1.188h-.125c-.453.953-1.047 2.028-1.77 3.227a59 59 0 0 1-2.52 3.789H81.95l-.965-9.399q-.087-.855-.214-1.265-.128-.407-.368-.602c-.16-.133-.39-.21-.699-.234l.18-.805h4.265l.672 8.871q1.407-2.187 2.059-3.472.656-1.279.973-2.352c.21-.71.359-1.46.437-2.242l.172-.805h2.75l.758 8.883q1.772-2.676 2.57-4.352.801-1.67.8-2.761.002-.463-.218-.703c-.148-.157-.402-.247-.77-.262l.172-.805zM107.184 15.93c.054-.262.101-.551.136-.875q.06-.481.059-.934c0-.535-.106-.945-.309-1.223q-.303-.415-1-.414-1.137.001-2.015 1.145c-.586.762-1.063 1.785-1.418 3.07q-.54 1.935-.54 3.457c0 .598.09 1.04.262 1.332q.265.444.817.442c.535 0 1.086-.262 1.64-.79a6.2 6.2 0 0 0 1.352-1.85q.514-1.062.918-2.907Zm1.843-3.836 1.098-.88 1.371.196-1.883 8.516a25 25 0 0 0-.215 1.039q-.065.392-.066.66 0 .552.27.793.269.246.953.305l-.133.808h-4.695l.66-2.504-.157-.05q-.832 1.076-1.546 1.668c-.477.394-.946.675-1.407.835q-.69.247-1.593.247-.854.001-1.504-.403-.649-.405-1.028-1.277-.375-.875-.375-2.219 0-1.283.297-2.59.3-1.306.887-2.437a6.8 6.8 0 0 1 1.477-1.938 6.2 6.2 0 0 1 2.023-1.226 7 7 0 0 1 2.46-.422q1.823 0 3.106.879M125.094 23.531h-5.07l1.527-6.648q.33-1.419.402-1.953.074-.539.074-.844-.001-.55-.23-.82-.233-.27-.672-.27-.393 0-.855.293-.465.298-1.04.918a5.5 5.5 0 0 0-.918 1.32q-.34.697-.546 1.735l-1.348 6.27h-3.508l1.922-8.626c.04-.199.094-.476.164-.84.067-.363.106-.664.106-.91q-.001-.51-.29-.703c-.19-.125-.492-.203-.898-.238l.184-.805 3.359-.137h1.285l-.699 2.641.148.05q.843-1.04 1.563-1.632.72-.593 1.437-.855a4.5 4.5 0 0 1 1.582-.262c.84 0 1.497.234 1.98.703q.72.703.72 1.934c0 .53-.078 1.164-.243 1.894l-1.003 4.524q-.123.563-.165.867a4 4 0 0 0-.042.523q0 .552.273.77.275.222.95.293zM136.094 15.93c.047-.242.094-.528.133-.848.043-.324.058-.637.058-.95 0-.542-.097-.956-.305-1.234q-.303-.415-1-.414-1.137.001-2.015 1.145-.88 1.143-1.418 3.07-.54 1.935-.54 3.457.002.895.263 1.332.264.444.816.442c.535 0 1.086-.262 1.64-.79a6.2 6.2 0 0 0 1.352-1.85q.516-1.062.914-2.907Zm1.246-6.207q.071-.304.172-.88.093-.573.093-.866.001-.27-.05-.422a.6.6 0 0 0-.168-.25.74.74 0 0 0-.293-.153q-.183-.058-.723-.129l.195-.796 3.657-.196h1.379l-3.079 13.895q-.136.597-.207 1.008-.075.41-.074.691 0 .552.27.793.269.246.953.305l-.137.808h-4.691l.66-2.504-.156-.05q-.832 1.076-1.547 1.668c-.477.394-.946.675-1.406.835q-.692.247-1.594.247-.854.001-1.504-.403-.649-.405-1.028-1.277-.375-.875-.375-2.219 0-1.283.297-2.59.3-1.306.88-2.437a6.8 6.8 0 0 1 1.472-1.938 6.3 6.3 0 0 1 2.023-1.226 7 7 0 0 1 2.461-.422 5.9 5.9 0 0 1 2.102.379z" style="stroke:none;fill-rule:nonzero;fill:#fff;fill-opacity:1"/><path d="M146.195 16.934h3.985L150.133 14q-.029-1.564-.028-2.59-.001-.783.016-1.601h-.148Zm4.024 1.43h-4.781l-.168.304q-.28.487-.485.887a9 9 0 0 0-.36.804c-.105.274-.183.52-.226.735a3 3 0 0 0-.066.617q0 .881 1.039 1.012l-.184.808h-5.156l.184-.808q.428-.094.75-.328c.214-.157.422-.364.617-.63q.292-.396.832-1.363L149.8 6.766h3.52l.527 13.062q.022.745.086 1.18.058.434.156.738t.238.516a.97.97 0 0 0 .36.316q.222.11.492.145l-.184.808h-6.316l.18-.808q.54-.035.85-.274.311-.24.435-.648.121-.41.12-1.14 0-.528-.023-1.102zM163.977 6.535l-.637 2.992h-3.164l.672-2.992Zm-2.825 13.735c-.09.406-.144.707-.172.902a4 4 0 0 0-.035.488q-.002.529.278.758.27.234.945.305l-.137.808h-5.082l1.906-8.527q.16-.736.22-1.145.063-.41.062-.691 0-.475-.227-.676c-.148-.137-.465-.226-.945-.277l.183-.805 3.579-.137h1.394zM175.277 14.734h-2.183c0-.546-.063-.925-.18-1.136q-.176-.318-.605-.32a1.2 1.2 0 0 0-.41.081q-.212.076-.489.282-.275.2-.656.652-.387.45-.645.879a5 5 0 0 0-.425.898c-.118.317-.223.711-.32 1.192l-1.344 6.27h-3.504l1.918-8.626q.264-1.211.265-1.75 0-.51-.285-.703-.288-.186-.898-.238l.183-.805 3.36-.137h1.379l-.915 2.836.149.051q1.024-1.454 2.16-2.2a4.38 4.38 0 0 1 2.457-.745q.803.001 1.711.23z" style="stroke:none;fill-rule:nonzero;fill:#f6df05;fill-opacity:1"/></svg>