<?xml version="1.0" encoding="UTF-8"?>
<svg xmlns="http://www.w3.org/2000/svg" xmlns:xlink="http://www.w3.org/1999/xlink" width="156.38pt" height="59pt" viewBox="0 0 156.38 59" version="1.1">
<defs>
<clipPath id="clip1">
  <path d="M 132 26 L 156.378906 26 L 156.378906 59 L 132 59 Z M 132 26 "/>
</clipPath>
</defs>
<g id="surface1">
<path style=" stroke:none;fill-rule:nonzero;fill:rgb(94.456482%,29.01001%,11.08551%);fill-opacity:1;" d="M 106.417969 0 L 107.160156 0.160156 L 107.390625 0.417969 L 107.324219 1.007812 L 107.222656 5.613281 L 106.96875 5.644531 L 106.253906 3.890625 L 105.992188 2.238281 L 106.089844 0.582031 "/>
<path style=" stroke:none;fill-rule:nonzero;fill:rgb(94.456482%,29.01001%,11.08551%);fill-opacity:1;" d="M 110.730469 9.347656 L 112.902344 7.785156 L 114.070312 7.234375 L 115.210938 6.488281 L 116.277344 6.230469 L 116.570312 7.070312 L 115.691406 7.722656 L 113.746094 9.152344 L 113.128906 9.25 L 112.160156 9.605469 L 111.25 9.765625 "/>
<path style=" stroke:none;fill-rule:nonzero;fill:rgb(94.456482%,29.01001%,11.08551%);fill-opacity:1;" d="M 113.097656 12.554688 L 113.195312 12.007812 L 116.410156 11.714844 L 118.257812 11.679688 L 119.105469 11.9375 L 119.585938 12.132812 L 119.550781 12.6875 L 119.195312 13.042969 L 117.1875 13.078125 L 115.078125 12.945312 L 113.777344 12.75 "/>
<path style=" stroke:none;fill-rule:nonzero;fill:rgb(94.456482%,29.01001%,11.08551%);fill-opacity:1;" d="M 110.082031 16.875 L 110.308594 16.582031 L 110.597656 16.804688 L 110.570312 17.75 L 111.542969 19.664062 L 111.992188 20.929688 L 112.125 21.382812 L 112.15625 23.101562 L 111.703125 23.167969 L 111.019531 22.257812 L 110.570312 22.421875 L 110.242188 22.195312 L 110.210938 20.894531 L 110.015625 20.699219 L 109.953125 17.878906 "/>
<path style=" stroke:none;fill-rule:nonzero;fill:rgb(94.456482%,29.01001%,11.08551%);fill-opacity:1;" d="M 102.589844 18.882812 L 104.308594 16.804688 L 104.890625 16.609375 L 105.3125 16.644531 L 104.855469 18.039062 L 103.855469 20.117188 L 103.105469 20.859375 L 102.617188 20.992188 L 102.425781 20.832031 "/>
<path style=" stroke:none;fill-rule:nonzero;fill:rgb(94.456482%,29.01001%,11.08551%);fill-opacity:1;" d="M 93.210938 16.386719 L 94.609375 15.832031 L 97.234375 15.445312 L 98.664062 15.347656 L 98.953125 15.054688 L 98.953125 15.769531 L 97.757812 16.421875 L 95.09375 17.492188 L 93.507812 17.945312 L 92.789062 17.421875 L 92.824219 16.546875 "/>
<path style=" stroke:none;fill-rule:nonzero;fill:rgb(94.456482%,29.01001%,11.08551%);fill-opacity:1;" d="M 95.515625 7.847656 L 97.820312 7.492188 L 99.894531 8.179688 L 101.617188 9.019531 L 102.035156 9.347656 L 101.875 9.570312 L 99.796875 9.605469 L 97.847656 9.277344 L 96.265625 8.695312 L 95.484375 8.144531 "/>
<path style=" stroke:none;fill-rule:nonzero;fill:rgb(94.456482%,29.01001%,11.08551%);fill-opacity:1;" d="M 105.019531 9.347656 L 107.195312 9.636719 L 107.777344 9.960938 L 108.558594 11.195312 L 108.945312 12.714844 L 108.820312 13.722656 L 107.417969 14.082031 L 105.472656 13.042969 L 104.664062 11.839844 L 104.144531 10.839844 L 104.4375 9.765625 M 103.6875 8.109375 L 102.785156 9.082031 L 102.652344 10.414062 L 102.847656 11.324219 L 104.015625 13.789062 L 104.339844 14.046875 L 104.535156 14.507812 L 105.863281 15.25 L 107.453125 15.285156 L 109.917969 14.992188 L 110.632812 14.40625 L 110.730469 13.984375 L 110.925781 13.332031 L 110.761719 12.332031 L 110.4375 10.546875 L 108.980469 8.859375 L 107.453125 8.046875 L 105.152344 7.757812 L 103.6875 8.109375 "/>
<path style=" stroke:none;fill-rule:nonzero;fill:rgb(94.456482%,29.01001%,11.08551%);fill-opacity:1;" d="M 1.582031 43.769531 C 1.582031 43.769531 5.242188 45.304688 7.367188 45.304688 C 9.175781 45.304688 10.125 44.402344 10.125 43.316406 C 10.125 42.234375 9.398438 41.464844 7.367188 40.472656 C 4.832031 39.203125 2.714844 37.351562 2.714844 34.59375 C 2.714844 29.988281 6.734375 26.960938 12.425781 26.960938 C 15 26.960938 17.035156 27.503906 18.074219 28.09375 L 16.539062 32.703125 C 15.640625 32.292969 14.054688 31.753906 12.113281 31.753906 C 10.398438 31.753906 9.261719 32.472656 9.261719 33.695312 C 9.261719 34.59375 10.167969 35.363281 11.929688 36.179688 C 14.371094 37.394531 16.902344 39.203125 16.902344 42.277344 C 16.902344 47.339844 12.609375 50.097656 6.734375 50.050781 C 3.976562 50.007812 1.3125 49.285156 0 48.335938 L 1.582031 43.769531 "/>
<path style=" stroke:none;fill-rule:nonzero;fill:rgb(94.456482%,29.01001%,11.08551%);fill-opacity:1;" d="M 42.203125 27.457031 L 39.402344 42.367188 C 38.859375 45.167969 38.5 47.566406 38.183594 49.554688 L 32.445312 49.554688 L 32.847656 45.988281 L 32.761719 45.9375 C 30.503906 48.832031 27.835938 50.050781 25.167969 50.050781 C 21.601562 50.050781 19.476562 48.0625 19.476562 43.863281 C 19.476562 42.683594 19.609375 41.328125 19.925781 39.792969 L 22.277344 27.457031 L 28.78125 27.457031 L 26.527344 39.296875 C 26.34375 40.289062 26.210938 41.421875 26.210938 42.234375 C 26.210938 43.632812 26.796875 44.765625 28.421875 44.765625 C 30.636719 44.765625 32.941406 42.097656 33.753906 37.714844 L 35.699219 27.457031 L 42.203125 27.457031 "/>
<path style=" stroke:none;fill-rule:nonzero;fill:rgb(94.456482%,29.01001%,11.08551%);fill-opacity:1;" d="M 42.15625 49.554688 L 44.957031 34.636719 C 45.5 31.84375 45.867188 29.449219 46.132812 27.457031 L 51.875 27.457031 L 51.46875 31.117188 L 51.554688 31.117188 C 53.636719 28.273438 56.394531 26.960938 59.28125 26.960938 C 62.898438 26.960938 64.976562 29.175781 64.976562 33.019531 C 64.976562 34.003906 64.796875 35.636719 64.617188 36.71875 L 62.175781 49.554688 L 55.667969 49.554688 L 57.972656 37.308594 C 58.109375 36.539062 58.199219 35.675781 58.199219 34.867188 C 58.199219 33.285156 57.65625 32.207031 55.984375 32.207031 C 53.859375 32.207031 51.421875 34.867188 50.476562 39.746094 L 48.667969 49.554688 L 42.15625 49.554688 "/>
<path style=" stroke:none;fill-rule:nonzero;fill:rgb(94.456482%,29.01001%,11.08551%);fill-opacity:1;" d="M 74.507812 27.457031 L 74.554688 36.855469 C 74.601562 39.339844 74.511719 41.421875 74.375 43.863281 L 74.464844 43.863281 C 75.230469 41.507812 76.230469 39.296875 77.132812 37.078125 L 81.515625 27.457031 L 86.800781 27.457031 L 87.34375 36.761719 C 87.480469 39.382812 87.570312 41.507812 87.433594 43.863281 L 87.570312 43.863281 C 88.292969 41.421875 89.0625 39.253906 89.960938 36.675781 L 93.757812 27.457031 L 100.3125 27.457031 L 89.558594 49.554688 L 83.460938 49.554688 L 82.824219 41.867188 C 82.644531 39.570312 82.644531 37.445312 82.644531 34.824219 L 82.507812 34.824219 C 81.335938 37.941406 80.835938 39.570312 79.890625 41.558594 L 76.136719 49.554688 L 70.039062 49.554688 L 67.957031 27.457031 L 74.507812 27.457031 "/>
<path style=" stroke:none;fill-rule:nonzero;fill:rgb(94.456482%,29.01001%,11.08551%);fill-opacity:1;" d="M 98.003906 49.554688 L 102.210938 27.457031 L 108.667969 27.457031 L 104.511719 49.554688 L 98.003906 49.554688 "/>
<path style=" stroke:none;fill-rule:nonzero;fill:rgb(94.456482%,29.01001%,11.08551%);fill-opacity:1;" d="M 108.625 49.554688 L 111.425781 34.636719 C 111.964844 31.84375 112.328125 29.449219 112.601562 27.457031 L 118.339844 27.457031 L 117.933594 31.117188 L 118.023438 31.117188 C 120.101562 28.273438 122.855469 26.960938 125.75 26.960938 C 129.363281 26.960938 131.445312 29.175781 131.445312 33.019531 C 131.441406 34.003906 131.261719 35.636719 131.082031 36.71875 L 128.640625 49.554688 L 122.132812 49.554688 L 124.4375 37.308594 C 124.574219 36.539062 124.667969 35.675781 124.667969 34.867188 C 124.667969 33.285156 124.121094 32.207031 122.449219 32.207031 C 120.324219 32.207031 117.886719 34.867188 116.9375 39.746094 L 115.132812 49.554688 L 108.625 49.554688 "/>
<g clip-path="url(#clip1)" clip-rule="nonzero">
<path style=" stroke:none;fill-rule:nonzero;fill:rgb(94.456482%,29.01001%,11.08551%);fill-opacity:1;" d="M 134.152344 52.628906 C 135.375 53.351562 138.039062 53.851562 139.9375 53.851562 C 143.1875 53.851562 145.585938 52.402344 146.535156 47.972656 L 146.894531 46.074219 L 146.808594 46.074219 C 145.089844 48.335938 143.101562 49.375 140.480469 49.375 C 136.09375 49.375 133.429688 45.800781 133.386719 41.464844 C 133.335938 34.191406 138.585938 26.960938 148.207031 26.960938 C 151.324219 26.960938 154.03125 27.546875 156.382812 28.496094 L 153.039062 46.707031 C 152.273438 50.777344 151.007812 54.390625 148.386719 56.515625 C 145.988281 58.417969 142.78125 59 139.847656 59 C 136.863281 59 134.152344 58.460938 132.617188 57.601562 Z M 149.335938 32.34375 C 148.839844 32.113281 147.886719 31.933594 146.988281 31.933594 C 143.054688 31.933594 140.253906 36.316406 140.253906 40.472656 C 140.253906 42.730469 141.25 44.359375 143.234375 44.359375 C 145.359375 44.359375 147.484375 41.960938 148.207031 38.257812 L 149.335938 32.34375 "/>
</g>
</g>
</svg>
