<svg xmlns="http://www.w3.org/2000/svg" width="176pt" height="37.4" viewBox="0 0 176 28.05"><defs><clipPath id="a"><path d="M0 0h29v28.05H0Zm0 0"/></clipPath></defs><g clip-path="url(#a)"><path d="M13.547-.004c-6.774 0-9.395 6.309-9.395 6.309L.02 27.87l-.02.125h.012L0 28.051l.16-.055h14.477c6.773 0 9.394-6.355 9.394-6.355L28.184-.004z" style="stroke:none;fill-rule:nonzero;fill:#e41d25;fill-opacity:1"/></g><path d="M11.223 14.824s-5.98-1.062-5.98-1.965c0-.902 5.491-1.394 5.98-1.066-1.227-1.145-1.965-2.785-1.309-3.36s3.277 1.97 3.277 1.97.246-5.657 1.391-5.657c1.148 0 2.133 5.164 1.64 6.309 1.145-1.227 2.704-2.457 3.114-1.801S17.94 12.12 17.94 12.12l4.918-.328s1.145-.41 1.227.738c.082 1.145-3.031 1.965-4.914 2.293.41.985 2.129 1.395 1.476 2.375-.656.985-2.625 0-2.625 0s3.114 4.098 2.786 4.59c-.329.492-4.258-.328-5.243-3.441-.41.82-.16 1.8-.898 1.882s-.902-2.046-.902-2.046-1.887 4.035-5 3.738c-.493-.79 1.886-4.313 2.539-4.723.656-.41-2.703 0-3.032-.98-.324-.985 2.95-1.395 2.95-1.395" style="stroke:none;fill-rule:nonzero;fill:#fff;fill-opacity:1"/><path d="M8.875 21.766c2.91.195 4.594-3.34 4.742-3.653.149-.312.309.059.309.059.062.765.324 1.898.699 1.898.348-.039.414-.308.512-.82a3.8 3.8 0 0 1 .281-.977c.156-.332.305.024.305.024.761 2.414 3.425 3.46 4.617 3.46.273 0 .336-.062.336-.062.09-.328-2.434-3.98-2.781-4.394-.348-.414.203-.246.203-.246.007.004.851.418 1.578.418q.59 0 .836-.364c.297-.449.008-.714-.57-1.191-.348-.281-.758-.625-.922-1.031-.047-.172.125-.223.125-.223 2.343-.41 4.84-1.246 4.777-2.121-.031-.441-.235-.656-.625-.656-.207 0-.383.062-.383.062l-.047.008s-5.058.473-5.156.367c-.102-.105.105-.304.105-.304.715-.883 1.622-2.297 1.38-2.68-.032-.047-.083-.106-.216-.106-.5 0-1.558.778-2.636 1.934 0 0-.438.297-.274-.176.446-.824-.175-4.414-1.02-5.691-.167-.254-.327-.39-.468-.39-.68 0-1.129 3.214-1.227 5.495 0 0 0 .371-.277.114-.277-.262-2.223-2.004-2.91-2.004-.066 0-.113.011-.145.043-.125.105-.187.27-.191.484-.012.7.621 1.809 1.504 2.629 0 0 .144.316-.203.258-.348-.063-.125-.075-.79-.075-2.167 0-4.937.563-4.937 1.004 0 .457 3.024 1.301 5.848 1.805 0 0 .379.266-.008.324-.39.059-2.445.414-2.785.95a.25.25 0 0 0-.031.226c.16.48 1.414.574 2.16.629.664.05.91.07.96.27q.037.153-.155.277c-.594.37-2.766 3.62-2.52 4.426m.219.336c-.114 0-.227-.008-.344-.016l-.078-.008-.043-.07c-.547-.875 1.687-4.13 2.457-4.84a9 9 0 0 0-.52-.047c-.937-.07-2.218-.168-2.445-.851a.59.59 0 0 1 .063-.508c.304-.485 1.332-.782 2.109-.946-1.906-.375-5.215-1.148-5.215-1.957 0-1 4.152-1.332 5.266-1.332q.234 0 .398.012c-.754-.832-1.25-1.812-1.238-2.504.008-.305.11-.558.3-.723a.52.52 0 0 1 .364-.124c.781 0 2.262 1.28 2.875 1.851.086-1.457.414-5.457 1.539-5.457.258 0 .508.184.742.54.723 1.093 1.301 3.972 1.172 5.417.856-.848 1.863-1.633 2.484-1.633.22 0 .387.09.493.262.379.602-.649 2.082-1.172 2.766l4.527-.301c.063-.024.25-.074.469-.074.562 0 .91.351.953.96.098 1.376-3.422 2.169-4.828 2.426.172.27.453.5.726.72.52.425 1.114.91.633 1.628-.222.336-.597.508-1.105.508-.406 0-.836-.11-1.164-.223 1.183 1.582 2.742 3.84 2.433 4.3q-.136.207-.605.208c-1.203 0-3.805-.992-4.774-3.27a6 6 0 0 0-.109.493c-.094.503-.187 1.023-.773 1.086-.641.07-.914-.977-1.02-1.668-.59 1.03-2.191 3.375-4.57 3.375" style="stroke:none;fill-rule:nonzero;fill:#22265f;fill-opacity:1"/><path d="M16.766 14.508a2.356 2.356 0 0 1-4.711 0c0-1.301 1.054-2.352 2.355-2.352s2.356 1.051 2.356 2.352" style="stroke:none;fill-rule:nonzero;fill:#22265f;fill-opacity:1"/><path d="M12.738 13.453c-.3 0-.531-.113-.652-.312-.121-.203-.11-.461.043-.73.133-.243.36-.47.644-.641.29-.172.602-.27.883-.27.301 0 .531.11.653.309.234.398-.067 1-.688 1.375-.289.171-.605.27-.883.27" style="stroke:none;fill-rule:nonzero;fill:#e7e608;fill-opacity:1"/><path d="M13.656 11.336c-.308 0-.652.105-.969.293-.71.43-1.03 1.113-.742 1.598.149.246.438.386.793.386.309 0 .653-.101.965-.289.715-.43 1.035-1.113.746-1.597-.148-.247-.437-.391-.793-.391m0 .328c.23 0 .418.078.512.23.184.313-.098.825-.633 1.149a1.6 1.6 0 0 1-.797.246c-.23 0-.418-.078-.511-.23-.188-.313.093-.829.628-1.149.274-.164.56-.246.801-.246" style="stroke:none;fill-rule:nonzero;fill:#22265f;fill-opacity:1"/><path d="M15.441 17.914c-.34 0-.613-.137-.754-.371-.265-.445.012-1.082.637-1.457.262-.156.559-.246.828-.246.34 0 .614.137.754.37.266.446-.011 1.083-.636 1.458-.262.16-.56.246-.829.246" style="stroke:none;fill-rule:nonzero;fill:#e7e608;fill-opacity:1"/><path d="M16.152 15.676c-.3 0-.625.097-.914.27-.703.421-1.004 1.16-.691 1.683.172.285.496.45.894.45.301 0 .625-.099.914-.27.7-.422 1.004-1.16.692-1.68-.172-.29-.496-.453-.895-.453m0 .328c.27 0 .5.098.614.293.214.36-.043.91-.578 1.23-.25.149-.512.223-.747.223-.27 0-.5-.098-.613-.293-.215-.36.043-.91.578-1.23.25-.149.512-.223.746-.223" style="stroke:none;fill-rule:nonzero;fill:#22265f;fill-opacity:1"/><path d="M16.969 15.992c-.258-.047-.465-.23-.59-.52a1.6 1.6 0 0 1-.082-.921c.121-.649.547-1.117 1.02-1.117l.124.011c.254.047.461.235.586.52.114.265.145.594.082.922-.12.648-.547 1.117-1.02 1.117z" style="stroke:none;fill-rule:nonzero;fill:#e7e608;fill-opacity:1"/><path d="M17.316 13.27c-.55 0-1.046.527-1.18 1.25-.152.804.204 1.523.802 1.632q.075.017.152.016c.55 0 1.047-.527 1.18-1.25.152-.805-.2-1.52-.801-1.633q-.076-.014-.153-.015m0 .328q.048.001.094.007c.414.079.652.637.54 1.254-.106.567-.477.98-.86.98a1 1 0 0 1-.094-.007c-.41-.078-.652-.637-.539-1.25.105-.57.477-.984.86-.984" style="stroke:none;fill-rule:nonzero;fill:#22265f;fill-opacity:1"/><path d="M16.164 13.68c-.332 0-.71-.168-1.008-.457a1.6 1.6 0 0 1-.469-.797c-.062-.309 0-.578.18-.766.137-.144.332-.219.563-.219.336 0 .71.172 1.008.457.238.23.406.516.468.801.063.305 0 .574-.18.762-.136.144-.331.219-.562.219" style="stroke:none;fill-rule:nonzero;fill:#e7e608;fill-opacity:1"/><path d="M15.43 11.277a.92.92 0 0 0-.68.27c-.219.223-.297.555-.223.914.07.312.25.625.516.879.328.32.738.504 1.121.504.27 0 .512-.094.68-.27.426-.437.297-1.226-.293-1.793-.332-.32-.738-.504-1.121-.504m0 .328c.28 0 .617.141.894.41.45.434.578 1.032.285 1.333a.6.6 0 0 1-.445.172c-.281 0-.617-.145-.894-.415-.45-.433-.579-1.03-.286-1.332a.6.6 0 0 1 .446-.168" style="stroke:none;fill-rule:nonzero;fill:#22265f;fill-opacity:1"/><path d="M13.602 17.91c-.27 0-.559-.086-.82-.238a1.6 1.6 0 0 1-.641-.66c-.137-.285-.145-.563-.012-.785.14-.243.418-.383.766-.383.265 0 .558.086.816.238.289.168.52.402.644.664.137.281.141.559.012.781-.14.243-.422.383-.765.383" style="stroke:none;fill-rule:nonzero;fill:#e7e608;fill-opacity:1"/><path d="M12.895 15.68c-.407 0-.739.168-.907.465-.156.265-.156.609.004.937.14.29.39.55.707.734.285.164.606.258.899.258.41 0 .738-.168.91-.465.156-.265.152-.609-.004-.937-.14-.29-.395-.547-.711-.735a1.84 1.84 0 0 0-.898-.257m0 .328c.23 0 .488.07.734.215.539.312.805.863.594 1.222-.114.2-.348.301-.625.301-.227 0-.489-.07-.735-.215-.539-.312-.804-.863-.593-1.222.117-.2.347-.301.625-.301" style="stroke:none;fill-rule:nonzero;fill:#22265f;fill-opacity:1"/><path d="M14.41 16.172a1.665 1.665 0 0 1-1.664-1.66c0-.918.746-1.664 1.664-1.664s1.664.746 1.664 1.664c0 .914-.746 1.66-1.664 1.66" style="stroke:none;fill-rule:nonzero;fill:#e7e608;fill-opacity:1"/><path d="M14.41 12.684a1.826 1.826 0 1 0 .004 3.652 1.826 1.826 0 0 0-.004-3.652m0 .328a1.497 1.497 0 1 1 0 2.996 1.497 1.497 0 1 1 0-2.996" style="stroke:none;fill-rule:nonzero;fill:#22265f;fill-opacity:1"/><path d="M11.73 15.996c-.515 0-.886-.617-.843-1.34.043-.695.46-1.234.957-1.234.558.031.93.617.883 1.344-.04.691-.461 1.23-.957 1.23z" style="stroke:none;fill-rule:nonzero;fill:#e7e608;fill-opacity:1"/><path d="M11.844 12.996c-.59 0-1.07.64-1.121 1.434-.047.816.39 1.566.996 1.566h.054c.59 0 1.07-.644 1.118-1.437.05-.817-.387-1.563-.996-1.563Zm.156 1h-.125c.418 0 .727.422.691 1.043-.039.61-.39.957-.793.957h-.035c-.414 0-.722-.422-.687-1.047.039-.605.39-.953.793-.953" style="stroke:none;fill-rule:nonzero;fill:#22265f;fill-opacity:1"/><path d="M45.715 14.152q-.153-1.494-.805-2.144-.654-.645-1.719-.645c-.82 0-1.472.325-1.964.977q-.47.608-.594 1.812Zm5.246 2.47H40.617q.143 1.24.672 1.85.75.875 1.953.876.76-.002 1.446-.383.417-.24.898-.848l5.082.469q-1.166 2.026-2.813 2.91c-1.097.586-2.675.879-4.726.879-1.785 0-3.184-.25-4.207-.754q-1.535-.755-2.543-2.394t-1.008-3.86q.001-3.153 2.024-5.105 2.02-1.952 5.582-1.953 2.887.001 4.562.875a5.9 5.9 0 0 1 2.547 2.535q.874 1.659.875 4.32zM62.328 15.305c0-1.059-.226-1.844-.672-2.364a2.15 2.15 0 0 0-1.699-.78c-.602 0-1.102.25-1.508.75q-.61.743-.61 2.507.002 1.646.63 2.414.629.767 1.55.766.991-.001 1.649-.77c.437-.515.66-1.36.66-2.523m5.168-11.813V22.07h-4.828v-1.988q-1.013 1.266-1.848 1.711-1.119.581-2.484.582-2.749.001-4.203-2.09-1.449-2.092-1.45-5.082.002-3.345 1.602-5.121 1.606-1.771 4.074-1.773 1.206 0 2.188.406a5 5 0 0 1 1.742 1.215V3.492zM80.336 14.152q-.154-1.494-.805-2.144-.654-.645-1.719-.645-1.228 0-1.964.977c-.313.406-.508 1.008-.594 1.812Zm5.246 2.47h-10.34c.09.827.317 1.444.672 1.85q.745.875 1.95.876.76-.002 1.445-.383.417-.24.898-.848l5.082.469q-1.166 2.026-2.812 2.91-1.649.879-4.727.879-2.672.001-4.207-.754t-2.54-2.394q-1.007-1.64-1.007-3.86-.001-3.153 2.02-5.105t5.582-1.953q2.887.001 4.562.875a5.87 5.87 0 0 1 2.547 2.535q.874 1.659.875 4.32zM88.129 3.492H93.3V22.07h-5.172zM95.086 8.613h4.988l2.156 8.473 2.73-8.473h4.661l2.848 8.496 2.168-8.496h4.957l-4.957 13.457h-4.59l-2.727-8.097-2.632 8.097h-4.614zM130.492 14.152q-.152-1.494-.804-2.144-.653-.645-1.715-.645-1.231 0-1.965.977-.47.608-.598 1.812Zm5.246 2.47h-10.34q.14 1.24.672 1.85.749.875 1.953.876c.504 0 .989-.13 1.446-.383q.417-.24.898-.848l5.082.469q-1.166 2.026-2.812 2.91-1.651.879-4.73.879-2.673.001-4.208-.754-1.53-.755-2.539-2.394-1.008-1.64-1.008-3.86-.001-3.153 2.02-5.105t5.586-1.953q2.889.001 4.558.875a5.87 5.87 0 0 1 2.547 2.535c.586 1.105.875 2.547.875 4.32zM138.3 8.613h5.157V22.07h-5.156Zm0-5.12h5.157v3.51h-5.156zM145.84 18.332l5.12-.48c.212.609.505 1.043.888 1.304q.569.394 1.52.395c.69 0 1.23-.149 1.609-.446q.445-.328.445-.82 0-.557-.586-.863c-.277-.14-1.016-.32-2.219-.531-1.789-.309-3.031-.602-3.73-.868a3.94 3.94 0 0 1-1.762-1.347 3.5 3.5 0 0 1-.715-2.164q0-1.329.774-2.293.77-.96 2.129-1.434c.902-.316 2.117-.476 3.636-.476q2.408-.002 3.555.367 1.147.368 1.914 1.14.766.776 1.273 2.09l-4.89.485q-.193-.65-.637-.953-.605-.404-1.469-.403-.874 0-1.273.309-.399.31-.399.754 0 .493.504.746.51.253 2.207.453 2.574.292 3.828.812 1.255.521 1.918 1.48.669.963.668 2.114-.002 1.165-.707 2.266-.703 1.102-2.214 1.754-1.518.65-4.125.652-3.69-.002-5.254-1.05-1.564-1.055-2.008-2.993M161.691 18.332l5.121-.48q.317.913.887 1.304.57.394 1.52.395 1.041 0 1.61-.446.444-.328.444-.82 0-.557-.582-.863c-.28-.14-1.02-.32-2.218-.531-1.793-.309-3.036-.602-3.735-.868q-1.042-.398-1.758-1.347a3.5 3.5 0 0 1-.718-2.164q0-1.329.773-2.293.775-.96 2.13-1.434 1.357-.475 3.636-.476c1.605 0 2.793.12 3.554.367q1.148.368 1.915 1.14.768.776 1.273 2.09l-4.89.485q-.194-.65-.633-.953-.612-.404-1.47-.403-.877 0-1.277.309-.398.31-.398.754.002.493.508.746.509.253 2.207.453 2.571.292 3.824.812 1.254.521 1.922 1.48.663.963.664 2.114 0 1.165-.703 2.266-.702 1.102-2.219 1.754-1.512.65-4.125.652-3.684-.002-5.254-1.05-1.563-1.055-2.008-2.993" style="stroke:none;fill-rule:nonzero;fill:#234d95;fill-opacity:1"/></svg>