<?xml version="1.0" encoding="UTF-8"?>
<svg xmlns="http://www.w3.org/2000/svg" xmlns:xlink="http://www.w3.org/1999/xlink" width="176pt" height="37.77pt" viewBox="0 0 176 37.77" version="1.1">
<defs>
<clipPath id="clip1">
  <path d="M 106 29 L 143 29 L 143 37.769531 L 106 37.769531 Z M 106 29 "/>
</clipPath>
</defs>
<g id="surface1">
<path style=" stroke:none;fill-rule:nonzero;fill:rgb(74.391174%,14.700317%,21.578979%);fill-opacity:1;" d="M 87.679688 13.539062 C 84.5 13.539062 81.351562 13.539062 78.175781 13.539062 C 77.917969 14.753906 77.664062 15.964844 77.414062 17.175781 C 77.160156 18.398438 76.914062 19.621094 76.660156 20.847656 C 76.410156 22.0625 76.15625 23.277344 75.902344 24.488281 C 75.652344 25.703125 75.398438 26.914062 75.140625 28.136719 C 72.941406 28.136719 70.757812 28.136719 68.546875 28.136719 C 69.070312 25.695312 69.597656 23.265625 70.105469 20.832031 C 70.613281 18.410156 71.144531 15.992188 71.648438 13.539062 C 70.242188 13.539062 68.871094 13.539062 67.476562 13.539062 C 67.820312 11.984375 68.160156 10.460938 68.503906 8.914062 C 69.84375 8.914062 71.179688 8.914062 72.527344 8.914062 C 72.59375 8.613281 72.652344 8.332031 72.71875 8.046875 C 72.90625 7.214844 73.066406 6.371094 73.296875 5.550781 C 73.570312 4.585938 74.007812 3.699219 74.613281 2.894531 C 75.390625 1.859375 76.382812 1.109375 77.570312 0.617188 C 78.1875 0.359375 78.835938 0.207031 79.5 0.105469 C 80.265625 -0.0078125 81.039062 -0.0234375 81.808594 0.015625 C 83.015625 0.0742188 84.210938 0.214844 85.390625 0.476562 C 85.53125 0.507812 85.671875 0.554688 85.816406 0.59375 C 85.40625 2.085938 84.992188 3.578125 84.585938 5.050781 C 84.167969 4.933594 83.777344 4.8125 83.378906 4.714844 C 82.839844 4.585938 82.292969 4.574219 81.75 4.691406 C 81.316406 4.78125 80.933594 4.988281 80.605469 5.292969 C 80.078125 5.78125 79.769531 6.398438 79.574219 7.070312 C 79.410156 7.648438 79.285156 8.234375 79.148438 8.816406 C 79.144531 8.832031 79.152344 8.851562 79.15625 8.867188 C 79.160156 8.875 79.167969 8.878906 79.171875 8.886719 C 79.179688 8.890625 79.1875 8.898438 79.191406 8.898438 C 82.335938 8.90625 85.476562 8.910156 88.617188 8.914062 C 88.65625 8.914062 88.699219 8.902344 88.769531 8.898438 C 89.074219 7.539062 89.375 6.179688 89.6875 4.785156 C 91.984375 4.15625 94.304688 3.542969 96.644531 2.914062 C 96.207031 4.902344 95.769531 6.882812 95.324219 8.898438 C 95.640625 8.929688 95.9375 8.910156 96.234375 8.914062 C 96.542969 8.917969 96.851562 8.914062 97.160156 8.914062 C 97.460938 8.914062 97.761719 8.914062 98.0625 8.914062 C 98.371094 8.914062 98.679688 8.914062 98.988281 8.914062 C 99.285156 8.914062 99.585938 8.914062 99.90625 8.914062 C 99.636719 10.464844 99.371094 11.988281 99.101562 13.53125 C 97.476562 13.53125 95.878906 13.53125 94.261719 13.53125 C 94.234375 13.644531 94.214844 13.734375 94.195312 13.824219 C 93.921875 15.089844 93.648438 16.351562 93.375 17.617188 C 93.164062 18.601562 92.953125 19.589844 92.753906 20.578125 C 92.632812 21.179688 92.5625 21.789062 92.570312 22.410156 C 92.578125 23.359375 93.203125 24.191406 94.199219 24.375 C 94.644531 24.457031 95.085938 24.453125 95.523438 24.332031 C 95.890625 24.226562 96.257812 24.105469 96.621094 23.988281 C 96.695312 23.96875 96.765625 23.941406 96.867188 23.910156 C 96.621094 25.363281 96.382812 26.796875 96.140625 28.234375 C 95.539062 28.3125 94.949219 28.398438 94.355469 28.464844 C 93.984375 28.507812 93.605469 28.519531 93.230469 28.539062 C 92.726562 28.558594 92.21875 28.59375 91.714844 28.582031 C 90.566406 28.550781 89.453125 28.339844 88.441406 27.753906 C 87.230469 27.058594 86.488281 26.015625 86.15625 24.667969 C 85.972656 23.917969 85.941406 23.164062 85.980469 22.398438 C 86.03125 21.417969 86.230469 20.464844 86.429688 19.511719 C 86.71875 18.136719 87.007812 16.765625 87.300781 15.394531 C 87.417969 14.832031 87.542969 14.273438 87.664062 13.714844 C 87.675781 13.664062 87.671875 13.617188 87.679688 13.539062 "/>
<path style=" stroke:none;fill-rule:nonzero;fill:rgb(74.391174%,14.700317%,21.578979%);fill-opacity:1;" d="M 21.160156 8.921875 C 23.347656 8.921875 25.515625 8.921875 27.703125 8.921875 C 27.710938 9.023438 27.726562 9.117188 27.726562 9.207031 C 27.730469 9.886719 27.726562 10.5625 27.734375 11.242188 C 27.75 12.90625 27.742188 14.570312 27.796875 16.230469 C 27.84375 17.636719 27.820312 19.042969 27.84375 20.449219 C 27.859375 21.203125 27.875 21.953125 27.894531 22.707031 C 27.894531 22.753906 27.914062 22.800781 27.925781 22.851562 C 28.035156 22.847656 28.066406 22.773438 28.097656 22.703125 C 28.433594 21.964844 28.773438 21.222656 29.109375 20.480469 C 29.421875 19.789062 29.734375 19.09375 30.050781 18.398438 C 30.484375 17.4375 30.917969 16.476562 31.351562 15.515625 C 31.769531 14.597656 32.195312 13.679688 32.609375 12.757812 C 33.09375 11.695312 33.566406 10.632812 34.046875 9.570312 C 34.144531 9.351562 34.25 9.136719 34.351562 8.921875 C 37.015625 8.921875 39.664062 8.921875 42.328125 8.921875 C 42.335938 8.976562 42.351562 9.027344 42.351562 9.074219 C 42.363281 9.839844 42.378906 10.601562 42.382812 11.363281 C 42.394531 12.539062 42.398438 13.71875 42.410156 14.894531 C 42.414062 15.363281 42.421875 15.835938 42.429688 16.308594 C 42.441406 17.355469 42.453125 18.402344 42.464844 19.445312 C 42.46875 20.183594 42.476562 20.921875 42.484375 21.660156 C 42.488281 22.011719 42.5 22.363281 42.511719 22.714844 C 42.515625 22.757812 42.53125 22.804688 42.546875 22.859375 C 42.675781 22.832031 42.695312 22.730469 42.730469 22.648438 C 42.957031 22.148438 43.175781 21.648438 43.398438 21.148438 C 43.925781 19.964844 44.449219 18.78125 44.972656 17.597656 C 45.480469 16.445312 45.988281 15.292969 46.496094 14.140625 C 46.78125 13.5 47.074219 12.859375 47.355469 12.214844 C 47.691406 11.457031 48.023438 10.695312 48.355469 9.933594 C 48.503906 9.597656 48.65625 9.261719 48.808594 8.921875 C 51.023438 8.921875 53.226562 8.921875 55.460938 8.921875 C 55.320312 9.195312 55.195312 9.453125 55.0625 9.707031 C 54.605469 10.574219 54.152344 11.4375 53.695312 12.300781 C 53.140625 13.355469 52.585938 14.410156 52.03125 15.464844 C 51.59375 16.300781 51.164062 17.136719 50.726562 17.972656 C 50.25 18.882812 49.769531 19.792969 49.292969 20.703125 C 48.429688 22.359375 47.5625 24.015625 46.699219 25.671875 C 46.300781 26.429688 45.894531 27.183594 45.503906 27.949219 C 45.425781 28.101562 45.332031 28.152344 45.164062 28.152344 C 42.75 28.148438 40.339844 28.148438 37.925781 28.148438 C 37.867188 28.148438 37.808594 28.140625 37.738281 28.136719 C 37.726562 27.941406 37.707031 27.753906 37.703125 27.570312 C 37.691406 26.890625 37.683594 26.214844 37.671875 25.539062 C 37.65625 24.75 37.640625 23.960938 37.628906 23.171875 C 37.613281 22.503906 37.605469 21.835938 37.59375 21.164062 C 37.574219 20.085938 37.558594 19.003906 37.539062 17.925781 C 37.519531 16.949219 37.5 15.972656 37.484375 14.996094 C 37.480469 14.929688 37.484375 14.859375 37.476562 14.792969 C 37.460938 14.601562 37.441406 14.410156 37.417969 14.21875 C 37.285156 14.210938 37.273438 14.316406 37.238281 14.386719 C 37.050781 14.773438 36.871094 15.160156 36.6875 15.546875 C 36.269531 16.429688 35.851562 17.3125 35.433594 18.195312 C 34.707031 19.71875 33.980469 21.246094 33.257812 22.769531 C 32.5 24.363281 31.746094 25.960938 30.988281 27.554688 C 30.914062 27.710938 30.839844 27.863281 30.773438 28.023438 C 30.730469 28.113281 30.667969 28.15625 30.570312 28.148438 C 30.527344 28.148438 30.484375 28.148438 30.441406 28.148438 C 28.046875 28.148438 25.652344 28.148438 23.257812 28.148438 C 23.179688 28.148438 23.105469 28.148438 23.011719 28.148438 C 22.988281 27.984375 22.96875 27.835938 22.953125 27.683594 C 22.921875 27.402344 22.898438 27.121094 22.871094 26.839844 C 22.8125 26.253906 22.757812 25.664062 22.703125 25.078125 C 22.644531 24.476562 22.59375 23.871094 22.535156 23.265625 C 22.5 22.882812 22.464844 22.5 22.425781 22.117188 C 22.355469 21.402344 22.277344 20.6875 22.203125 19.972656 C 22.15625 19.515625 22.125 19.054688 22.082031 18.597656 C 22.035156 18.128906 21.980469 17.664062 21.933594 17.195312 C 21.910156 16.964844 21.898438 16.734375 21.875 16.503906 C 21.792969 15.695312 21.710938 14.886719 21.636719 14.078125 C 21.589844 13.621094 21.558594 13.160156 21.515625 12.703125 C 21.46875 12.226562 21.414062 11.75 21.367188 11.277344 C 21.347656 11.074219 21.328125 10.867188 21.308594 10.664062 C 21.257812 10.09375 21.210938 9.523438 21.160156 8.921875 "/>
<path style=" stroke:none;fill-rule:nonzero;fill:rgb(14.779663%,28.33252%,59.387207%);fill-opacity:1;" d="M 158.3125 31.492188 C 158.371094 30.902344 158.425781 30.335938 158.480469 29.769531 C 158.335938 29.683594 158.1875 29.667969 158.03125 29.667969 C 157.371094 29.667969 156.710938 29.667969 156.046875 29.664062 C 155.988281 29.664062 155.933594 29.664062 155.816406 29.664062 C 156.007812 29.539062 156.148438 29.449219 156.289062 29.351562 C 157.222656 28.726562 158.113281 28.046875 158.988281 27.34375 C 160.019531 26.511719 161 25.628906 161.933594 24.695312 C 163.085938 23.546875 164.140625 22.320312 165.050781 20.972656 C 165.648438 20.082031 166.175781 19.152344 166.574219 18.152344 C 166.824219 17.523438 166.996094 16.878906 167.15625 16.222656 C 167.347656 15.425781 167.363281 14.625 167.3125 13.824219 C 167.25 12.894531 166.96875 12.015625 166.523438 11.195312 C 165.746094 9.75 164.601562 8.667969 163.214844 7.824219 C 162.457031 7.363281 161.652344 7.011719 160.824219 6.707031 C 159.996094 6.402344 159.144531 6.203125 158.292969 5.996094 C 157.929688 5.90625 157.554688 5.875 157.179688 5.859375 C 155.652344 5.800781 154.125 5.8125 152.601562 5.8125 C 152.359375 5.8125 152.117188 5.792969 151.878906 5.824219 C 151.382812 5.886719 150.886719 5.847656 150.394531 5.871094 C 150.078125 5.886719 149.761719 5.902344 149.445312 5.925781 C 149.019531 5.957031 148.597656 5.988281 148.171875 6.039062 C 147.554688 6.109375 146.9375 6.171875 146.324219 6.28125 C 145.644531 6.398438 144.972656 6.554688 144.300781 6.707031 C 143.847656 6.808594 143.394531 6.929688 142.941406 7.039062 C 142.882812 7.050781 142.820312 7.054688 142.761719 7.054688 C 141.140625 7.054688 139.519531 7.054688 137.894531 7.054688 C 137.859375 7.054688 137.828125 7.046875 137.789062 7.042969 C 137.703125 6.894531 137.800781 6.757812 137.824219 6.625 C 137.894531 6.195312 138.003906 5.777344 138.085938 5.351562 C 138.105469 5.234375 138.164062 5.183594 138.261719 5.164062 C 138.757812 5.050781 139.257812 4.9375 139.753906 4.832031 C 140.171875 4.738281 140.589844 4.652344 141.007812 4.566406 C 141.347656 4.496094 141.6875 4.4375 142.03125 4.375 C 142.441406 4.296875 142.851562 4.21875 143.265625 4.152344 C 143.546875 4.101562 143.835938 4.066406 144.121094 4.023438 C 144.457031 3.972656 144.792969 3.921875 145.128906 3.871094 C 145.289062 3.847656 145.449219 3.828125 145.609375 3.808594 C 146 3.769531 146.390625 3.734375 146.78125 3.695312 C 147.101562 3.660156 147.421875 3.617188 147.746094 3.582031 C 147.847656 3.574219 147.949219 3.585938 148.054688 3.585938 C 148.953125 3.578125 149.855469 3.601562 150.757812 3.554688 C 152.367188 3.472656 153.980469 3.53125 155.589844 3.519531 C 156.171875 3.511719 156.753906 3.574219 157.335938 3.578125 C 157.839844 3.582031 158.34375 3.621094 158.847656 3.644531 C 159.296875 3.664062 159.746094 3.707031 160.199219 3.742188 C 160.445312 3.761719 160.691406 3.777344 160.9375 3.808594 C 161.175781 3.835938 161.410156 3.875 161.644531 3.917969 C 162.011719 3.984375 162.378906 4.054688 162.742188 4.132812 C 163.835938 4.363281 164.917969 4.628906 165.984375 4.964844 C 167.078125 5.304688 168.148438 5.707031 169.191406 6.175781 C 170.03125 6.550781 170.839844 6.980469 171.609375 7.480469 C 172.792969 8.246094 173.855469 9.144531 174.675781 10.304688 C 175.246094 11.113281 175.65625 12 175.84375 12.984375 C 175.910156 13.355469 175.941406 13.726562 175.984375 14.101562 C 176.027344 14.480469 175.972656 14.851562 175.949219 15.21875 C 175.925781 15.617188 175.816406 16.011719 175.714844 16.398438 C 175.382812 17.652344 174.890625 18.84375 174.289062 19.988281 C 173.664062 21.175781 172.933594 22.292969 172.089844 23.335938 C 171.347656 24.253906 170.53125 25.09375 169.65625 25.878906 C 168.507812 26.910156 167.257812 27.792969 165.925781 28.5625 C 164.347656 29.472656 162.6875 30.191406 160.960938 30.761719 C 160.144531 31.03125 159.3125 31.25 158.480469 31.46875 C 158.441406 31.480469 158.398438 31.480469 158.3125 31.492188 "/>
<path style=" stroke:none;fill-rule:nonzero;fill:rgb(74.391174%,14.700317%,21.578979%);fill-opacity:1;" d="M 18.511719 9.621094 C 18.5 9.820312 17.285156 13.644531 17.148438 13.902344 C 16.917969 13.820312 16.6875 13.738281 16.457031 13.652344 C 15.714844 13.382812 14.957031 13.183594 14.175781 13.054688 C 13.523438 12.945312 12.867188 12.902344 12.210938 12.871094 C 11.652344 12.84375 11.097656 12.886719 10.546875 12.972656 C 10.089844 13.042969 9.648438 13.183594 9.265625 13.472656 C 8.851562 13.785156 8.6875 14.203125 8.742188 14.707031 C 8.757812 14.835938 8.824219 14.976562 8.90625 15.078125 C 9.046875 15.238281 9.203125 15.390625 9.378906 15.511719 C 9.917969 15.886719 10.535156 16.101562 11.144531 16.332031 C 12.128906 16.703125 13.125 17.046875 14.070312 17.519531 C 14.828125 17.894531 15.535156 18.335938 16.109375 18.96875 C 16.578125 19.480469 16.878906 20.082031 16.996094 20.765625 C 17.054688 21.113281 17.089844 21.46875 17.039062 21.835938 C 16.996094 22.136719 16.984375 22.445312 16.929688 22.75 C 16.746094 23.789062 16.335938 24.726562 15.667969 25.554688 C 14.894531 26.507812 13.917969 27.179688 12.800781 27.667969 C 12.160156 27.945312 11.496094 28.136719 10.820312 28.292969 C 10.421875 28.382812 10.011719 28.417969 9.605469 28.480469 C 8.589844 28.628906 7.570312 28.601562 6.550781 28.570312 C 5.929688 28.554688 5.308594 28.480469 4.6875 28.429688 C 4.261719 28.390625 3.835938 28.359375 3.414062 28.300781 C 2.945312 28.234375 2.480469 28.15625 2.019531 28.0625 C 1.410156 27.9375 0.800781 27.792969 0.191406 27.652344 C 0.128906 27.636719 0.0664062 27.609375 0 27.585938 C 0.4375 26.097656 0.867188 24.621094 1.300781 23.144531 C 1.34375 23.144531 1.371094 23.136719 1.390625 23.144531 C 2.253906 23.53125 3.160156 23.78125 4.085938 23.964844 C 4.582031 24.0625 5.082031 24.117188 5.585938 24.164062 C 6.214844 24.222656 6.839844 24.21875 7.460938 24.191406 C 8.128906 24.164062 8.792969 24.066406 9.414062 23.800781 C 9.746094 23.65625 10.046875 23.472656 10.257812 23.152344 C 10.550781 22.710938 10.496094 22.078125 10.183594 21.691406 C 9.925781 21.375 9.59375 21.167969 9.234375 21.011719 C 8.707031 20.78125 8.167969 20.582031 7.628906 20.386719 C 6.890625 20.117188 6.140625 19.867188 5.4375 19.507812 C 4.761719 19.15625 4.144531 18.730469 3.640625 18.152344 C 3.160156 17.601562 2.835938 16.964844 2.667969 16.25 C 2.535156 15.671875 2.46875 15.085938 2.507812 14.492188 C 2.566406 13.507812 2.863281 12.597656 3.464844 11.800781 C 4.09375 10.964844 4.90625 10.34375 5.832031 9.871094 C 6.753906 9.398438 7.726562 9.070312 8.734375 8.855469 C 9.414062 8.710938 10.097656 8.613281 10.789062 8.546875 C 11.570312 8.46875 12.347656 8.480469 13.125 8.519531 C 13.636719 8.539062 14.148438 8.613281 14.652344 8.699219 C 15.292969 8.804688 15.933594 8.925781 16.5625 9.074219 C 17.195312 9.222656 17.820312 9.414062 18.445312 9.585938 C 18.46875 9.59375 18.488281 9.609375 18.511719 9.621094 "/>
<path style=" stroke:none;fill-rule:nonzero;fill:rgb(74.391174%,14.700317%,21.578979%);fill-opacity:1;" d="M 58.496094 8.921875 C 60.71875 8.921875 62.914062 8.921875 65.144531 8.921875 C 65.0625 9.511719 64.917969 10.082031 64.808594 10.652344 C 64.699219 11.242188 64.558594 11.824219 64.4375 12.410156 C 64.320312 12.988281 64.203125 13.566406 64.085938 14.144531 C 63.964844 14.730469 63.84375 15.320312 63.71875 15.90625 C 63.597656 16.480469 63.472656 17.058594 63.351562 17.636719 C 63.230469 18.222656 63.109375 18.808594 62.992188 19.394531 C 62.871094 19.972656 62.753906 20.550781 62.632812 21.128906 C 62.511719 21.714844 62.386719 22.300781 62.269531 22.890625 C 62.148438 23.464844 62.035156 24.042969 61.914062 24.621094 C 61.792969 25.210938 61.664062 25.792969 61.542969 26.382812 C 61.421875 26.957031 61.308594 27.535156 61.191406 28.109375 C 61 28.15625 54.914062 28.171875 54.519531 28.125 C 55.1875 24.917969 55.84375 21.714844 56.515625 18.511719 C 57.183594 15.316406 57.835938 12.121094 58.496094 8.921875 "/>
<g clip-path="url(#clip1)" clip-rule="nonzero">
<path style=" stroke:none;fill-rule:nonzero;fill:rgb(14.779663%,28.33252%,59.387207%);fill-opacity:1;" d="M 142.3125 30.457031 C 141.894531 30.703125 141.515625 30.933594 141.125 31.148438 C 140.257812 31.632812 139.394531 32.121094 138.515625 32.585938 C 137.398438 33.183594 136.253906 33.730469 135.078125 34.207031 C 134.257812 34.539062 133.433594 34.871094 132.597656 35.179688 C 131.734375 35.5 130.859375 35.785156 129.96875 36.015625 C 129.085938 36.242188 128.207031 36.484375 127.320312 36.691406 C 126.699219 36.832031 126.066406 36.921875 125.4375 37.03125 C 125.011719 37.109375 124.585938 37.195312 124.15625 37.261719 C 123.8125 37.316406 123.460938 37.339844 123.113281 37.382812 C 122.878906 37.410156 122.644531 37.449219 122.410156 37.476562 C 122.207031 37.503906 122.003906 37.523438 121.800781 37.539062 C 121.484375 37.5625 121.167969 37.574219 120.851562 37.597656 C 120.445312 37.628906 120.035156 37.667969 119.628906 37.703125 C 119.601562 37.703125 119.578125 37.707031 119.550781 37.707031 C 118.773438 37.707031 117.996094 37.800781 117.21875 37.757812 C 116.859375 37.738281 116.503906 37.699219 116.144531 37.664062 C 115.96875 37.644531 115.789062 37.617188 115.613281 37.601562 C 114.855469 37.53125 114.113281 37.394531 113.382812 37.214844 C 112.140625 36.914062 110.9375 36.515625 109.808594 35.902344 C 109.003906 35.46875 108.261719 34.945312 107.644531 34.265625 C 106.9375 33.484375 106.453125 32.582031 106.246094 31.539062 C 106.183594 31.21875 106.125 30.902344 106.144531 30.554688 C 107.507812 30.550781 108.832031 30.347656 110.117188 29.855469 C 110.136719 29.9375 110.152344 30 110.171875 30.082031 C 111.492188 30.082031 112.8125 30.082031 114.160156 30.082031 C 114.140625 30.253906 114.125 30.398438 114.101562 30.546875 C 114.03125 31.007812 113.976562 31.46875 114.042969 31.941406 C 114.089844 32.289062 114.148438 32.628906 114.265625 32.960938 C 114.476562 33.5625 114.859375 34.039062 115.335938 34.441406 C 115.625 34.683594 115.945312 34.878906 116.285156 35.054688 C 116.535156 35.179688 116.800781 35.207031 117.074219 35.25 C 117.824219 35.359375 118.578125 35.320312 119.332031 35.3125 C 119.757812 35.304688 120.183594 35.238281 120.605469 35.195312 C 120.78125 35.175781 120.960938 35.152344 121.136719 35.136719 C 122.054688 35.050781 122.957031 34.871094 123.851562 34.648438 C 124.359375 34.523438 124.875 34.394531 125.378906 34.238281 C 126.125 34.007812 126.875 33.761719 127.613281 33.496094 C 129.175781 32.933594 130.683594 32.230469 132.152344 31.460938 C 132.722656 31.160156 133.277344 30.839844 133.839844 30.527344 C 133.9375 30.46875 134.035156 30.429688 134.152344 30.429688 C 136.839844 30.429688 139.523438 30.429688 142.210938 30.429688 C 142.230469 30.429688 142.246094 30.4375 142.3125 30.457031 "/>
</g>
<path style=" stroke:none;fill-rule:nonzero;fill:rgb(74.391174%,14.700317%,21.578979%);fill-opacity:1;" d="M 114.179688 16.414062 C 114.058594 16.414062 113.980469 16.417969 113.90625 16.414062 C 113.289062 16.363281 112.679688 16.300781 112.0625 16.269531 C 111.207031 16.21875 110.351562 16.175781 109.492188 16.234375 C 108.773438 16.285156 108.058594 16.339844 107.347656 16.433594 C 106.675781 16.527344 106.015625 16.679688 105.367188 16.882812 C 104.269531 17.21875 103.234375 17.683594 102.320312 18.390625 C 101 19.402344 100.21875 20.726562 100.070312 22.394531 C 100.007812 23.121094 100.054688 23.851562 100.230469 24.5625 C 100.574219 25.949219 101.378906 26.960938 102.6875 27.550781 C 103.542969 27.933594 104.449219 28.113281 105.382812 28.15625 C 105.980469 28.1875 106.578125 28.195312 107.179688 28.125 C 107.933594 28.039062 108.664062 27.878906 109.371094 27.597656 C 110.496094 27.148438 111.433594 26.453125 112.144531 25.460938 C 112.234375 25.332031 112.277344 25.207031 112.269531 25.054688 C 112.257812 24.867188 112.265625 24.679688 112.265625 24.449219 C 112.519531 24.707031 112.75 24.925781 112.964844 25.15625 C 113.011719 25.203125 113.035156 25.292969 113.03125 25.359375 C 113.019531 25.601562 112.996094 25.839844 112.96875 26.078125 C 112.914062 26.5625 112.855469 27.046875 112.800781 27.53125 C 112.792969 27.59375 112.808594 27.660156 112.816406 27.71875 C 113.140625 27.769531 117.332031 27.757812 117.527344 27.703125 C 117.566406 27.441406 117.59375 27.167969 117.640625 26.902344 C 117.789062 26.039062 117.929688 25.175781 118.105469 24.324219 C 118.351562 23.132812 118.613281 21.949219 118.894531 20.765625 C 119.230469 19.324219 119.609375 17.890625 119.800781 16.417969 C 119.863281 15.925781 119.898438 15.433594 119.9375 14.9375 C 119.945312 14.777344 119.921875 14.613281 119.902344 14.453125 C 119.863281 14.097656 119.851562 13.734375 119.773438 13.386719 C 119.425781 11.769531 118.496094 10.585938 117.050781 9.796875 C 116.40625 9.449219 115.722656 9.210938 115.007812 9.039062 C 114.246094 8.859375 113.476562 8.746094 112.699219 8.714844 C 111.980469 8.691406 111.257812 8.71875 110.539062 8.742188 C 109.640625 8.769531 108.746094 8.890625 107.859375 9.042969 C 106.996094 9.191406 106.15625 9.414062 105.320312 9.675781 C 105.269531 9.695312 105.21875 9.726562 105.167969 9.753906 C 105.144531 9.882812 105.121094 10 105.105469 10.117188 C 105.042969 10.585938 104.988281 11.050781 104.925781 11.515625 C 104.835938 12.144531 104.738281 12.769531 104.652344 13.398438 C 104.640625 13.484375 104.613281 13.578125 104.664062 13.660156 C 104.6875 13.660156 104.695312 13.664062 104.703125 13.664062 C 104.847656 13.601562 104.988281 13.539062 105.128906 13.476562 C 106.480469 12.871094 107.902344 12.550781 109.378906 12.472656 C 109.820312 12.445312 110.269531 12.457031 110.714844 12.460938 C 111.410156 12.472656 112.074219 12.621094 112.703125 12.921875 C 113.246094 13.1875 113.699219 13.554688 114.011719 14.085938 C 114.320312 14.613281 114.371094 15.183594 114.3125 15.773438 C 114.292969 15.984375 114.226562 16.191406 114.179688 16.414062 Z M 118.117188 28.410156 C 116.085938 28.410156 114.070312 28.410156 112.027344 28.410156 C 112.066406 28.089844 112.105469 27.789062 112.128906 27.484375 C 112.152344 27.183594 112.242188 26.882812 112.199219 26.566406 C 112.046875 26.570312 111.988281 26.679688 111.914062 26.753906 C 111.328125 27.335938 110.652344 27.777344 109.898438 28.109375 C 109.085938 28.46875 108.234375 28.6875 107.355469 28.785156 C 106.878906 28.835938 106.398438 28.890625 105.921875 28.867188 C 104.839844 28.824219 103.773438 28.699219 102.753906 28.308594 C 101.902344 27.988281 101.171875 27.496094 100.585938 26.796875 C 100.097656 26.210938 99.777344 25.53125 99.597656 24.789062 C 99.46875 24.269531 99.40625 23.746094 99.386719 23.210938 C 99.351562 22.300781 99.480469 21.425781 99.808594 20.578125 C 100.039062 19.984375 100.363281 19.441406 100.765625 18.945312 C 101.578125 17.953125 102.617188 17.273438 103.769531 16.757812 C 104.808594 16.289062 105.894531 15.988281 107.015625 15.8125 C 107.453125 15.742188 107.894531 15.699219 108.335938 15.644531 C 109.324219 15.523438 110.316406 15.519531 111.3125 15.550781 C 111.953125 15.574219 112.59375 15.621094 113.230469 15.660156 C 113.355469 15.667969 113.480469 15.691406 113.617188 15.710938 C 113.726562 15.15625 113.617188 14.683594 113.308594 14.253906 C 112.960938 13.773438 112.464844 13.515625 111.917969 13.335938 C 111.441406 13.183594 110.949219 13.117188 110.453125 13.125 C 109.929688 13.136719 109.40625 13.140625 108.886719 13.1875 C 107.753906 13.285156 106.660156 13.558594 105.617188 14.007812 C 105.089844 14.238281 104.582031 14.503906 104.0625 14.75 C 103.980469 14.792969 103.894531 14.832031 103.773438 14.890625 C 104.035156 12.984375 104.289062 11.109375 104.550781 9.21875 C 104.78125 9.144531 105.007812 9.066406 105.234375 8.996094 C 106.085938 8.726562 106.945312 8.503906 107.824219 8.355469 C 108.625 8.21875 109.433594 8.101562 110.246094 8.078125 C 111.136719 8.050781 112.03125 8.011719 112.921875 8.054688 C 114.269531 8.121094 115.585938 8.382812 116.828125 8.929688 C 117.429688 9.195312 117.980469 9.539062 118.488281 9.953125 C 119.105469 10.457031 119.566406 11.078125 119.925781 11.777344 C 120.222656 12.359375 120.410156 12.980469 120.507812 13.628906 C 120.585938 14.164062 120.640625 14.699219 120.601562 15.238281 C 120.570312 15.691406 120.515625 16.140625 120.460938 16.589844 C 120.363281 17.414062 120.175781 18.222656 119.996094 19.03125 C 119.816406 19.816406 119.625 20.597656 119.449219 21.382812 C 119.191406 22.550781 118.9375 23.722656 118.691406 24.890625 C 118.566406 25.476562 118.460938 26.066406 118.363281 26.660156 C 118.289062 27.105469 118.238281 27.554688 118.179688 28.003906 C 118.160156 28.128906 118.140625 28.257812 118.117188 28.410156 "/>
<path style=" stroke:none;fill-rule:nonzero;fill:rgb(14.779663%,28.33252%,59.387207%);fill-opacity:1;" d="M 142.929688 30.085938 C 143.027344 29.601562 143.117188 29.164062 143.210938 28.722656 C 143.355469 28.03125 143.496094 27.34375 143.644531 26.652344 C 143.765625 26.09375 143.890625 25.539062 144.011719 24.980469 C 144.097656 24.582031 144.191406 24.1875 144.257812 23.785156 C 144.292969 23.554688 144.398438 23.40625 144.578125 23.261719 C 145.367188 22.632812 146.15625 21.996094 146.917969 21.335938 C 147.785156 20.582031 148.632812 19.804688 149.476562 19.023438 C 150.007812 18.527344 150.515625 18.003906 151.050781 17.480469 C 151.203125 17.5625 151.171875 17.746094 151.199219 17.890625 C 151.289062 18.355469 151.359375 18.828125 151.441406 19.316406 C 151.664062 19.277344 151.875 19.25 152.078125 19.203125 C 152.644531 19.074219 153.203125 18.9375 153.75 18.734375 C 154.25 18.546875 154.730469 18.332031 155.136719 17.96875 C 155.171875 17.933594 155.214844 17.910156 155.265625 17.871094 C 155.332031 18.453125 155.21875 18.992188 155.03125 19.519531 C 154.6875 20.480469 154.167969 21.34375 153.550781 22.148438 C 152.652344 23.3125 151.597656 24.308594 150.449219 25.21875 C 149.429688 26.03125 148.347656 26.753906 147.234375 27.429688 C 146.171875 28.078125 145.121094 28.738281 144.0625 29.390625 C 143.699219 29.617188 143.335938 29.839844 142.929688 30.085938 "/>
<path style=" stroke:none;fill-rule:nonzero;fill:rgb(74.391174%,14.700317%,21.578979%);fill-opacity:1;" d="M 138.386719 9.171875 C 138.371094 9.246094 138.359375 9.296875 138.351562 9.347656 C 138.222656 10.199219 138.109375 11.058594 137.964844 11.910156 C 137.820312 12.75 137.660156 13.59375 137.488281 14.429688 C 137.261719 15.542969 137.015625 16.65625 136.777344 17.765625 C 136.464844 19.257812 136.160156 20.75 135.84375 22.242188 C 135.511719 23.824219 135.171875 25.40625 134.839844 26.988281 C 134.785156 27.226562 134.742188 27.46875 134.695312 27.699219 C 134.734375 27.722656 134.746094 27.734375 134.761719 27.738281 C 134.785156 27.742188 134.8125 27.746094 134.839844 27.746094 C 136.71875 27.746094 138.597656 27.746094 140.476562 27.746094 C 140.511719 27.746094 140.546875 27.738281 140.578125 27.730469 C 140.585938 27.730469 140.59375 27.722656 140.601562 27.71875 C 140.605469 27.714844 140.613281 27.707031 140.636719 27.691406 C 140.652344 27.625 140.679688 27.542969 140.695312 27.457031 C 140.761719 27.15625 140.820312 26.855469 140.886719 26.554688 C 141.046875 25.792969 141.210938 25.03125 141.371094 24.269531 C 141.589844 23.25 141.804688 22.230469 142.019531 21.210938 C 142.164062 20.523438 142.3125 19.835938 142.453125 19.148438 C 142.574219 18.5625 142.699219 17.976562 142.910156 17.414062 C 143.316406 16.339844 143.886719 15.375 144.78125 14.625 C 145.671875 13.875 146.71875 13.550781 147.867188 13.550781 C 148.257812 13.550781 148.652344 13.605469 149.042969 13.644531 C 149.515625 13.6875 149.964844 13.832031 150.390625 14.035156 C 150.457031 14.070312 150.527344 14.09375 150.621094 14.132812 C 151.0625 12.425781 151.492188 10.75 151.925781 9.066406 C 151.851562 9.035156 151.808594 9.011719 151.757812 9 C 151.289062 8.863281 150.8125 8.757812 150.320312 8.738281 C 149.917969 8.71875 149.511719 8.683594 149.113281 8.71875 C 148.21875 8.796875 147.398438 9.117188 146.652344 9.617188 C 145.6875 10.265625 144.9375 11.109375 144.335938 12.097656 C 144.144531 12.414062 143.980469 12.742188 143.792969 13.082031 C 143.574219 13.082031 143.347656 13.082031 143.089844 13.082031 C 143.214844 12.433594 143.34375 11.789062 143.460938 11.144531 C 143.574219 10.492188 143.71875 9.847656 143.808594 9.171875 C 141.984375 9.171875 140.195312 9.171875 138.386719 9.171875 Z M 152.734375 8.648438 C 152.160156 10.867188 151.597656 13.054688 151.019531 15.28125 C 150.886719 15.179688 150.78125 15.109375 150.683594 15.027344 C 150.152344 14.59375 149.535156 14.371094 148.855469 14.296875 C 148.40625 14.25 147.964844 14.25 147.519531 14.257812 C 146.808594 14.265625 146.15625 14.488281 145.566406 14.882812 C 145.105469 15.1875 144.71875 15.574219 144.398438 16.023438 C 143.738281 16.945312 143.363281 17.984375 143.15625 19.09375 C 143.0625 19.597656 142.945312 20.097656 142.839844 20.601562 C 142.566406 21.898438 142.300781 23.195312 142.023438 24.492188 C 141.765625 25.707031 141.5 26.917969 141.234375 28.128906 C 141.21875 28.21875 141.195312 28.308594 141.175781 28.410156 C 138.734375 28.410156 136.308594 28.410156 133.855469 28.410156 C 133.9375 28.027344 134.011719 27.652344 134.089844 27.28125 C 134.269531 26.402344 134.453125 25.519531 134.636719 24.640625 C 134.800781 23.878906 134.96875 23.121094 135.128906 22.359375 C 135.34375 21.328125 135.554688 20.296875 135.769531 19.269531 C 135.929688 18.5 136.097656 17.730469 136.261719 16.960938 C 136.476562 15.949219 136.6875 14.9375 136.894531 13.921875 C 137.035156 13.242188 137.175781 12.5625 137.292969 11.878906 C 137.429688 11.078125 137.539062 10.273438 137.65625 9.472656 C 137.703125 9.140625 137.738281 8.8125 137.78125 8.46875 C 140.058594 8.46875 142.328125 8.46875 144.628906 8.46875 C 144.503906 9.304688 144.320312 10.117188 144.1875 10.933594 C 144.203125 10.945312 144.21875 10.953125 144.234375 10.964844 C 144.28125 10.925781 144.339844 10.894531 144.378906 10.847656 C 144.648438 10.550781 144.898438 10.234375 145.183594 9.949219 C 145.875 9.253906 146.671875 8.714844 147.597656 8.378906 C 148.179688 8.167969 148.777344 8.039062 149.40625 8.035156 C 150.109375 8.03125 150.8125 8.066406 151.496094 8.234375 C 151.738281 8.289062 151.976562 8.359375 152.214844 8.4375 C 152.382812 8.492188 152.546875 8.570312 152.734375 8.648438 "/>
<path style=" stroke:none;fill-rule:nonzero;fill:rgb(74.391174%,14.700317%,21.578979%);fill-opacity:1;" d="M 129.113281 27.730469 C 130.390625 21.582031 131.65625 15.457031 132.925781 9.335938 C 132.9375 9.289062 132.929688 9.238281 132.929688 9.171875 C 130.925781 9.171875 128.9375 9.171875 126.9375 9.171875 C 126.871094 9.480469 126.804688 9.777344 126.742188 10.078125 C 126.492188 11.300781 126.246094 12.527344 125.992188 13.75 C 125.734375 14.988281 125.46875 16.226562 125.210938 17.464844 C 124.886719 19.03125 124.566406 20.601562 124.246094 22.164062 C 124.074219 23.003906 123.90625 23.84375 123.730469 24.679688 C 123.554688 25.527344 123.371094 26.371094 123.195312 27.214844 C 123.160156 27.378906 123.140625 27.546875 123.109375 27.730469 C 125.125 27.730469 127.101562 27.730469 129.113281 27.730469 Z M 126.394531 8.464844 C 128.863281 8.464844 131.316406 8.464844 133.796875 8.464844 C 132.414062 15.117188 131.039062 21.761719 129.664062 28.414062 C 127.191406 28.414062 124.738281 28.414062 122.261719 28.414062 C 123.636719 21.761719 125.011719 15.125 126.394531 8.464844 "/>
<path style=" stroke:none;fill-rule:nonzero;fill:rgb(74.391174%,14.700317%,21.578979%);fill-opacity:1;" d="M 60.1875 0.941406 C 60.429688 0.894531 66.632812 0.902344 66.847656 0.949219 C 66.515625 2.535156 66.179688 4.117188 65.84375 5.703125 C 63.613281 5.703125 61.414062 5.703125 59.179688 5.703125 C 59.519531 4.105469 59.851562 2.519531 60.1875 0.941406 "/>
<path style=" stroke:none;fill-rule:nonzero;fill:rgb(74.391174%,14.700317%,21.578979%);fill-opacity:1;" d="M 133.769531 5.289062 C 133.789062 5.210938 133.8125 5.148438 133.828125 5.082031 C 134.09375 3.84375 134.355469 2.605469 134.613281 1.367188 C 134.628906 1.296875 134.617188 1.21875 134.617188 1.132812 C 132.621094 1.132812 130.636719 1.132812 128.636719 1.132812 C 128.34375 2.519531 128.050781 3.894531 127.761719 5.269531 C 127.972656 5.320312 133.398438 5.335938 133.769531 5.289062 Z M 134.320312 5.96875 C 131.84375 5.96875 129.398438 5.96875 126.925781 5.96875 C 127.3125 4.136719 127.699219 2.308594 128.089844 0.46875 C 130.558594 0.46875 133.015625 0.46875 135.492188 0.46875 C 135.097656 2.308594 134.71875 4.140625 134.320312 5.96875 "/>
<path style=" stroke:none;fill-rule:nonzero;fill:rgb(14.779663%,28.33252%,59.387207%);fill-opacity:1;" d="M 123.753906 10.625 C 123.671875 11 123.597656 11.3125 123.53125 11.628906 C 123.410156 12.226562 123.292969 12.828125 123.171875 13.425781 C 123.109375 13.726562 123.039062 14.023438 122.980469 14.320312 C 122.886719 14.769531 122.804688 15.222656 122.710938 15.667969 C 122.632812 16.050781 122.539062 16.433594 122.460938 16.816406 C 122.371094 17.230469 122.289062 17.644531 122.203125 18.0625 C 122.175781 18.191406 122.164062 18.328125 122.007812 18.453125 C 122.007812 18.34375 122 18.273438 122.011719 18.203125 C 122.078125 17.707031 122.171875 17.214844 122.210938 16.714844 C 122.277344 15.921875 122.339844 15.128906 122.285156 14.332031 C 122.234375 13.566406 122.125 12.8125 121.898438 12.078125 C 121.863281 11.964844 121.824219 11.851562 121.78125 11.714844 C 122.410156 11.339844 123.050781 10.988281 123.753906 10.625 "/>
<path style=" stroke:none;fill-rule:nonzero;fill:rgb(74.391174%,14.700317%,21.578979%);fill-opacity:1;" d="M 112.886719 19.816406 C 112.628906 19.796875 112.410156 19.769531 112.1875 19.761719 C 111.820312 19.753906 111.453125 19.765625 111.082031 19.757812 C 110.449219 19.742188 109.820312 19.804688 109.195312 19.921875 C 108.570312 20.039062 107.96875 20.230469 107.421875 20.5625 C 107.113281 20.753906 106.824219 20.964844 106.617188 21.269531 C 106.328125 21.695312 106.226562 22.160156 106.425781 22.632812 C 106.71875 23.332031 107.300781 23.667969 108.03125 23.738281 C 108.40625 23.777344 108.785156 23.75 109.15625 23.683594 C 110.324219 23.472656 111.261719 22.890625 111.953125 21.925781 C 112.402344 21.300781 112.699219 20.605469 112.886719 19.816406 Z M 113.6875 19.277344 C 113.613281 19.621094 113.566406 19.941406 113.480469 20.25 C 113.21875 21.148438 112.832031 21.984375 112.214844 22.699219 C 111.664062 23.332031 110.996094 23.796875 110.210938 24.09375 C 109.6875 24.289062 109.144531 24.398438 108.585938 24.414062 C 108.171875 24.425781 107.761719 24.429688 107.367188 24.296875 C 106.542969 24.023438 105.949219 23.5 105.722656 22.640625 C 105.585938 22.113281 105.648438 21.589844 105.925781 21.101562 C 106.296875 20.445312 106.878906 20.035156 107.546875 19.730469 C 108.257812 19.40625 109.011719 19.214844 109.792969 19.152344 C 110.269531 19.113281 110.75 19.078125 111.226562 19.070312 C 111.714844 19.0625 112.203125 19.078125 112.691406 19.109375 C 113.011719 19.128906 113.335938 19.160156 113.6875 19.277344 "/>
</g>
</svg>
