<svg xmlns="http://www.w3.org/2000/svg" width="176pt" height="50.36" viewBox="0 0 176 37.77"><defs><clipPath id="a"><path d="M106 29h37v8.77h-37Zm0 0"/></clipPath></defs><path d="M87.68 13.54h-9.504a672 672 0 0 0-.762 3.636c-.254 1.222-.5 2.445-.754 3.672q-.376 1.824-.758 3.64c-.25 1.215-.504 2.426-.761 3.649h-6.594c.523-2.442 1.05-4.871 1.558-7.305.508-2.422 1.04-4.84 1.543-7.293h-4.171c.343-1.555.683-3.078 1.027-4.625h4.023c.067-.3.125-.582.192-.867.187-.832.347-1.676.578-2.496a8 8 0 0 1 1.316-2.656A6.95 6.95 0 0 1 77.57.617c.618-.258 1.266-.41 1.93-.512.766-.113 1.54-.128 2.309-.09 1.207.06 2.402.2 3.582.462.14.03.28.078.425.117-.41 1.492-.824 2.984-1.23 4.457-.418-.117-.809-.239-1.207-.336a3.64 3.64 0 0 0-1.629-.024c-.434.09-.816.297-1.145.602-.527.488-.835 1.105-1.03 1.777-.165.578-.29 1.164-.427 1.746-.003.016.004.036.008.051q.008.01.016.02c.008.004.016.011.02.011q4.716.011 9.425.016c.04 0 .082-.012.153-.016.304-1.359.605-2.718.918-4.113 2.296-.629 4.617-1.242 6.957-1.87l-1.32 5.983c.316.032.612.012.91.016.308.004.617 0 .925 0h2.746l-.804 4.617h-4.84c-.028.114-.047.203-.067.293l-.82 3.793c-.21.985-.422 1.973-.621 2.961a8.7 8.7 0 0 0-.184 1.832c.008.95.633 1.781 1.63 1.965.445.082.886.078 1.323-.043.368-.105.735-.227 1.098-.344.074-.02.145-.047.246-.078-.246 1.453-.484 2.887-.726 4.324-.602.078-1.192.164-1.786.23-.37.044-.75.056-1.125.075-.503.02-1.011.055-1.515.043-1.149-.031-2.262-.242-3.274-.828-1.21-.695-1.953-1.738-2.285-3.086-.183-.75-.215-1.504-.176-2.27.051-.98.25-1.933.45-2.886q.433-2.061.87-4.117c.118-.563.243-1.122.364-1.68.012-.05.008-.098.016-.176M21.16 8.922h6.543c.008.101.024.195.024.285.003.68 0 1.355.007 2.035.016 1.664.008 3.328.063 4.988.047 1.407.023 2.813.047 4.22q.022 1.128.05 2.257c0 .047.02.094.032.145.11-.004.14-.079.172-.149q.506-1.108 1.011-2.223.468-1.037.942-2.082l1.3-2.882c.419-.918.844-1.836 1.258-2.758.485-1.063.957-2.125 1.438-3.188.098-.218.203-.433.305-.648h7.976c.008.055.024.105.024.152.011.766.027 1.528.03 2.29.013 1.175.016 2.355.028 3.53q.007.705.02 1.415l.035 3.136q.007 1.108.02 2.215c.003.352.015.703.027 1.055.004.043.02.09.035.144.129-.027.148-.129.183-.21.227-.5.446-1 .668-1.5q.79-1.776 1.575-3.551l1.523-3.457c.285-.641.578-1.282.86-1.926q.502-1.138 1-2.281.223-.503.453-1.012h6.652c-.14.273-.266.531-.398.785-.458.867-.91 1.73-1.368 2.594l-1.664 3.164c-.437.836-.867 1.672-1.304 2.508l-1.434 2.73q-1.296 2.484-2.594 4.969c-.398.758-.804 1.512-1.195 2.277-.078.153-.172.203-.34.203-2.414-.004-4.824-.004-7.238-.004-.059 0-.117-.007-.188-.011-.011-.196-.031-.383-.035-.567q-.016-1.019-.031-2.03-.024-1.186-.043-2.368c-.016-.668-.024-1.336-.035-2.008-.02-1.078-.035-2.16-.055-3.238q-.03-1.465-.055-2.93c-.004-.066 0-.137-.007-.203a14 14 0 0 0-.059-.574c-.133-.008-.145.097-.18.168-.187.386-.367.773-.55 1.16l-1.254 2.648q-1.092 2.288-2.176 4.575-1.135 2.391-2.27 4.785c-.074.156-.148.308-.215.468-.043.09-.105.133-.203.125h-7.558a12 12 0 0 1-.059-.464c-.031-.282-.055-.563-.082-.844q-.086-.881-.168-1.762c-.058-.601-.11-1.207-.168-1.812q-.051-.575-.11-1.149c-.07-.715-.148-1.43-.222-2.144-.047-.457-.078-.918-.121-1.375-.047-.47-.102-.934-.148-1.403-.024-.23-.036-.46-.059-.691q-.125-1.213-.238-2.426c-.047-.457-.078-.918-.121-1.375-.047-.476-.102-.953-.149-1.426l-.058-.613c-.051-.57-.098-1.14-.149-1.742" style="stroke:none;fill-rule:nonzero;fill:#be2537;fill-opacity:1"/><path d="m158.313 31.492.167-1.722a.83.83 0 0 0-.449-.102q-.989.001-1.984-.004h-.23c.19-.125.331-.215.472-.312a39 39 0 0 0 2.7-2.008 37 37 0 0 0 2.945-2.649c1.152-1.148 2.207-2.375 3.117-3.722.597-.891 1.125-1.82 1.523-2.82.25-.63.422-1.274.582-1.93.192-.797.207-1.598.156-2.399-.062-.93-.343-1.808-.789-2.629-.777-1.445-1.921-2.527-3.308-3.37-.758-.462-1.563-.813-2.39-1.118-.829-.305-1.68-.504-2.532-.71a5.6 5.6 0 0 0-1.113-.138c-1.528-.058-3.055-.046-4.578-.046-.243 0-.485-.02-.723.011-.496.063-.992.024-1.484.047-.317.016-.633.031-.95.055a28 28 0 0 0-1.273.113c-.617.07-1.234.133-1.848.242-.68.117-1.351.274-2.023.426-.453.102-.906.223-1.36.332a1 1 0 0 1-.18.016h-4.866c-.036 0-.067-.008-.106-.012-.086-.148.012-.285.035-.418.07-.43.18-.848.262-1.273.02-.118.078-.168.176-.188.496-.113.996-.226 1.492-.332.418-.094.836-.18 1.254-.266.34-.07.68-.128 1.023-.191.41-.078.82-.156 1.235-.223.28-.05.57-.086.855-.129l1.008-.152q.24-.034.48-.062c.391-.04.782-.075 1.172-.114.32-.035.64-.078.965-.113.102-.008.203.004.309.004.898-.008 1.8.016 2.703-.031 1.61-.082 3.222-.024 4.832-.035.582-.008 1.164.054 1.746.058.504.004 1.008.043 1.512.067.449.02.898.062 1.351.097.246.02.492.035.738.067q.357.042.708.109.552.099 1.097.215c1.094.23 2.176.496 3.242.832q1.642.509 3.207 1.21c.84.376 1.649.805 2.418 1.305 1.184.766 2.246 1.665 3.067 2.825.57.808.98 1.695 1.168 2.68.066.37.097.742.14 1.117.043.378-.011.75-.035 1.117-.023.398-.133.793-.234 1.18a17 17 0 0 1-1.426 3.59 20.5 20.5 0 0 1-2.2 3.347 22.08 22.08 0 0 1-6.164 5.227 26.6 26.6 0 0 1-4.964 2.199c-.816.27-1.649.488-2.48.707-.04.011-.083.011-.168.023" style="stroke:none;fill-rule:nonzero;fill:#264897;fill-opacity:1"/><path d="M18.512 9.621c-.012.2-1.227 4.024-1.364 4.281q-.345-.122-.691-.25a12.7 12.7 0 0 0-2.281-.597c-.653-.11-1.309-.153-1.965-.184a8 8 0 0 0-1.664.102c-.457.07-.899.21-1.281.5-.414.312-.578.73-.524 1.234.016.129.082.27.164.371.14.16.297.313.473.434.539.375 1.156.59 1.766.82.984.371 1.98.715 2.925 1.188.758.375 1.465.816 2.04 1.449.468.511.769 1.113.886 1.797.059.347.094.703.043 1.07-.043.3-.055.61-.11.914a6.07 6.07 0 0 1-1.261 2.805c-.773.953-1.75 1.625-2.867 2.113-.64.277-1.305.469-1.98.625-.4.09-.81.125-1.216.187-1.015.149-2.035.122-3.054.09-.621-.015-1.242-.09-1.864-.14-.425-.04-.851-.07-1.273-.13a24 24 0 0 1-1.394-.238c-.61-.125-1.22-.269-1.829-.41-.062-.015-.125-.043-.191-.066.438-1.488.867-2.965 1.3-4.441.044 0 .071-.008.09 0 .864.386 1.77.636 2.696.82.496.098.996.152 1.5.2.629.058 1.254.054 1.875.026.668-.027 1.332-.125 1.953-.39.332-.145.633-.328.844-.649.293-.441.238-1.074-.074-1.46-.258-.317-.59-.524-.95-.68-.527-.23-1.066-.43-1.605-.625-.738-.27-1.488-.52-2.191-.88-.676-.35-1.293-.777-1.797-1.355a4.4 4.4 0 0 1-.973-1.902 6 6 0 0 1-.16-1.758c.058-.984.355-1.894.957-2.691.629-.836 1.441-1.457 2.367-1.93a11.7 11.7 0 0 1 2.902-1.016 18 18 0 0 1 2.055-.308c.781-.078 1.559-.067 2.336-.027.512.02 1.023.093 1.527.18.641.105 1.282.226 1.91.374.633.149 1.258.34 1.883.512.024.008.043.023.067.035M58.496 8.922h6.649c-.082.59-.227 1.16-.336 1.73-.11.59-.25 1.172-.371 1.758l-.352 1.735c-.121.585-.242 1.175-.367 1.761-.121.574-.246 1.153-.367 1.73q-.184.88-.36 1.759-.178.867-.36 1.734c-.12.586-.245 1.172-.362 1.762-.122.574-.235 1.152-.356 1.73-.121.59-.25 1.172-.371 1.762-.121.574-.234 1.152-.352 1.726-.191.047-6.277.063-6.671.016.667-3.207 1.324-6.41 1.996-9.613.668-3.196 1.32-6.39 1.98-9.59" style="stroke:none;fill-rule:nonzero;fill:#be2537;fill-opacity:1"/><g clip-path="url(#a)"><path d="M142.313 30.457c-.418.246-.797.477-1.188.691-.867.485-1.73.973-2.61 1.438a36 36 0 0 1-3.437 1.621c-.82.332-1.644.664-2.48.973a27 27 0 0 1-2.63.836c-.882.226-1.761.468-2.648.675-.62.141-1.254.23-1.882.34-.426.078-.852.164-1.282.23-.344.055-.695.079-1.043.122-.234.027-.468.066-.703.094a11 11 0 0 1-.61.062c-.316.023-.632.035-.948.059-.407.03-.817.07-1.223.105-.027 0-.05.004-.078.004-.778 0-1.555.094-2.332.05-.36-.019-.715-.058-1.074-.093-.176-.02-.356-.047-.532-.062-.758-.07-1.5-.207-2.23-.387-1.242-.3-2.445-.7-3.574-1.313-.805-.433-1.547-.957-2.164-1.636-.707-.782-1.192-1.684-1.399-2.727-.062-.32-.121-.637-.101-.984 1.363-.004 2.687-.207 3.972-.7l.055.227h3.988c-.02.172-.035.316-.058.465-.07.46-.125.922-.059 1.394.047.348.105.688.223 1.02.21.602.593 1.078 1.07 1.48.289.243.61.438.95.614.25.125.515.152.788.195.75.11 1.504.07 2.258.063.426-.008.852-.075 1.273-.118.176-.02.356-.043.532-.058a18 18 0 0 0 2.715-.489 27 27 0 0 0 1.527-.41c.746-.23 1.496-.476 2.234-.742 1.563-.562 3.07-1.266 4.54-2.035.57-.3 1.124-.621 1.687-.934a.6.6 0 0 1 .312-.097h8.059c.02 0 .035.008.101.027" style="stroke:none;fill-rule:nonzero;fill:#264897;fill-opacity:1"/></g><path d="M114.18 16.414c-.121 0-.2.004-.274 0-.617-.05-1.226-.113-1.844-.144-.855-.051-1.71-.094-2.57-.036-.719.051-1.433.106-2.144.2-.672.093-1.332.246-1.98.449-1.098.336-2.134.8-3.048 1.508-1.32 1.011-2.101 2.336-2.25 4.004a6.6 6.6 0 0 0 .16 2.168c.344 1.386 1.149 2.398 2.457 2.988.856.383 1.762.562 2.696.605.597.032 1.195.04 1.797-.031a8.5 8.5 0 0 0 2.191-.527c1.125-.45 2.063-1.145 2.774-2.137a.62.62 0 0 0 .125-.406c-.012-.188-.004-.375-.004-.606.254.258.484.477.699.707a.3.3 0 0 1 .066.203c-.011.243-.035.48-.062.72-.055.483-.114.968-.168 1.452-.008.063.008.13.015.188.325.05 4.516.039 4.711-.016.04-.262.067-.535.114-.8.148-.864.289-1.727.464-2.579q.369-1.785.79-3.558c.335-1.442.714-2.875.906-4.348.062-.492.097-.984.136-1.48.008-.16-.015-.325-.035-.485-.039-.355-.05-.719-.129-1.066-.347-1.617-1.277-2.801-2.722-3.59a8.4 8.4 0 0 0-2.043-.758 12 12 0 0 0-2.309-.324c-.719-.024-1.441.004-2.16.027-.898.028-1.793.149-2.68.301-.863.148-1.703.371-2.539.633-.05.02-.101.05-.152.078-.023.129-.047.246-.063.363-.062.469-.117.934-.18 1.399-.09.629-.187 1.254-.273 1.882-.011.086-.039.18.012.262.023 0 .031.004.04.004q.215-.094.425-.187a11.8 11.8 0 0 1 4.25-1.004c.441-.028.89-.016 1.336-.012.695.012 1.36.16 1.988.46.543.267.996.634 1.309 1.165.308.527.36 1.098.3 1.687-.019.211-.085.418-.132.641m3.937 11.996h-6.09c.04-.32.078-.62.102-.926.023-.3.113-.601.07-.918-.152.004-.21.114-.285.188a6.6 6.6 0 0 1-2.016 1.355 8.6 8.6 0 0 1-2.543.676c-.476.05-.957.106-1.433.082-1.082-.043-2.149-.168-3.168-.558-.852-.32-1.582-.813-2.168-1.512a4.9 4.9 0 0 1-.988-2.008 7.7 7.7 0 0 1-.211-1.578 6.5 6.5 0 0 1 .422-2.633c.23-.594.554-1.137.957-1.633.812-.992 1.851-1.672 3.004-2.187 1.039-.469 2.125-.77 3.246-.945.437-.07.879-.114 1.32-.168.988-.122 1.98-.125 2.977-.094.64.023 1.28.07 1.917.11.125.007.25.03.387.05.11-.555 0-1.027-.308-1.457-.348-.48-.844-.738-1.391-.918a4.6 4.6 0 0 0-1.465-.211c-.523.012-1.047.016-1.566.063a10.5 10.5 0 0 0-3.27.82c-.527.23-1.035.496-1.555.742-.082.043-.167.082-.289.14.262-1.906.516-3.78.778-5.671.23-.074.457-.153.683-.223.852-.27 1.711-.492 2.59-.64.801-.137 1.61-.254 2.422-.278.89-.027 1.785-.066 2.676-.023 1.348.066 2.664.328 3.906.875.602.265 1.152.61 1.66 1.023.617.504 1.078 1.125 1.438 1.824a6 6 0 0 1 .582 1.852c.078.535.133 1.07.094 1.61-.032.452-.086.902-.141 1.35-.098.825-.285 1.634-.465 2.442-.18.785-.371 1.567-.547 2.352-.258 1.168-.511 2.34-.758 3.508-.125.586-.23 1.175-.328 1.77-.074.444-.125.894-.183 1.343z" style="stroke:none;fill-rule:nonzero;fill:#be2537;fill-opacity:1"/><path d="M142.93 30.086c.097-.484.187-.922.28-1.363.145-.692.286-1.38.435-2.07.12-.56.246-1.114.367-1.673.086-.398.18-.793.246-1.195.035-.23.14-.379.32-.523a74 74 0 0 0 2.34-1.926c.867-.754 1.715-1.531 2.559-2.313.53-.496 1.039-1.02 1.574-1.543.152.082.12.266.148.41.09.465.16.938.242 1.426.223-.039.434-.066.637-.113.567-.129 1.125-.265 1.672-.469.5-.187.98-.402 1.387-.765.035-.035.078-.059.129-.098.066.582-.047 1.121-.235 1.649-.344.96-.863 1.824-1.48 2.628-.899 1.165-1.953 2.16-3.102 3.07a31 31 0 0 1-3.215 2.212c-1.062.648-2.113 1.308-3.172 1.96-.363.227-.726.45-1.132.696" style="stroke:none;fill-rule:nonzero;fill:#264897;fill-opacity:1"/><path d="M138.387 9.172c-.016.074-.028.125-.035.176-.13.851-.243 1.71-.387 2.562-.145.84-.305 1.684-.477 2.52-.226 1.113-.472 2.226-.71 3.336-.313 1.492-.618 2.984-.934 4.476-.332 1.582-.672 3.164-1.004 4.746-.055.239-.098.48-.145.711.04.024.051.035.067.04a1 1 0 0 0 .078.007h5.637c.035 0 .07-.008.101-.016.008 0 .016-.007.024-.011.003-.004.011-.012.035-.028.015-.066.043-.148.058-.234.067-.3.125-.602.192-.902.16-.762.324-1.524.484-2.285q.327-1.53.649-3.06c.144-.687.292-1.374.433-2.062.121-.585.246-1.171.457-1.734.406-1.074.977-2.039 1.871-2.789.89-.75 1.938-1.074 3.086-1.074.39 0 .785.054 1.176.094.473.043.922.187 1.348.39.066.035.136.059.23.098.441-1.707.871-3.383 1.305-5.067-.074-.03-.117-.054-.168-.066-.469-.137-.946-.242-1.438-.262-.402-.02-.808-.054-1.207-.02-.894.079-1.715.4-2.46.9-.965.648-1.715 1.491-2.317 2.48-.191.316-.356.644-.543.984h-.703c.125-.648.254-1.293.37-1.937.114-.653.259-1.297.349-1.973zm14.347-.524c-.574 2.22-1.136 4.407-1.714 6.633-.133-.101-.239-.172-.336-.254-.532-.433-1.149-.656-1.829-.73-.449-.047-.89-.047-1.335-.04-.711.009-1.364.231-1.954.626-.46.305-.847.691-1.168 1.14-.66.922-1.035 1.961-1.242 3.07-.094.505-.21 1.005-.316 1.509-.274 1.296-.54 2.593-.817 3.89a546 546 0 0 1-.789 3.637c-.015.09-.039.18-.058.281h-7.32c.082-.383.156-.758.234-1.129q.27-1.32.547-2.64c.164-.762.332-1.52.492-2.282q.32-1.547.64-3.09c.16-.769.329-1.539.493-2.308q.322-1.516.633-3.04c.14-.679.28-1.358.398-2.042.137-.8.246-1.606.363-2.406.047-.332.082-.66.125-1.004h6.848c-.125.836-.309 1.648-.441 2.465q.022.016.046.03c.047-.038.106-.07.145-.116.27-.297.52-.614.805-.899.691-.695 1.488-1.234 2.414-1.57.582-.211 1.18-.34 1.808-.344.703-.004 1.406.031 2.09.2q.362.083.719.203c.168.054.332.132.52.21M129.113 27.73c1.278-6.148 2.543-12.273 3.813-18.394.012-.047.004-.098.004-.164h-5.993c-.066.308-.132.605-.195.906-.25 1.223-.496 2.45-.75 3.672-.258 1.238-.523 2.477-.781 3.715-.324 1.566-.645 3.137-.965 4.7-.172.839-.34 1.679-.516 2.515-.175.847-.359 1.691-.535 2.535-.035.164-.054.332-.086.515zm-2.718-19.265h7.402c-1.383 6.652-2.758 13.297-4.133 19.95h-7.402c1.375-6.653 2.75-13.29 4.133-19.95M60.188.941c.242-.046 6.445-.039 6.66.008q-.499 2.377-1.004 4.754H59.18c.34-1.598.672-3.183 1.008-4.762M133.77 5.29c.02-.08.042-.142.058-.208q.398-1.857.785-3.715c.016-.07.004-.148.004-.234h-5.98c-.293 1.387-.586 2.762-.875 4.137.21.05 5.636.066 6.008.02m.55.679h-7.394c.386-1.832.773-3.66 1.164-5.5h7.402c-.394 1.84-.773 3.672-1.172 5.5" style="stroke:none;fill-rule:nonzero;fill:#be2537;fill-opacity:1"/><path d="M123.754 10.625c-.082.375-.156.688-.223 1.004-.12.598-.238 1.2-.36 1.797-.062.3-.132.597-.19.894-.094.45-.176.903-.27 1.348-.078.383-.172.766-.25 1.148-.09.414-.172.829-.258 1.247-.027.128-.039.265-.195.39 0-.11-.008-.18.004-.25.066-.496.16-.988.199-1.488.066-.793.129-1.586.074-2.383-.05-.766-.16-1.52-.387-2.254-.035-.113-.074-.226-.117-.363.63-.375 1.27-.727 1.973-1.09" style="stroke:none;fill-rule:nonzero;fill:#264897;fill-opacity:1"/><path d="M112.887 19.816c-.258-.02-.477-.046-.7-.054-.367-.008-.734.004-1.105-.004a9 9 0 0 0-1.887.164c-.625.117-1.226.308-1.773.64-.309.192-.598.403-.805.708-.289.425-.39.89-.191 1.363.293.699.875 1.035 1.605 1.105.375.04.754.012 1.125-.054 1.168-.211 2.106-.793 2.797-1.758.45-.625.746-1.32.934-2.11m.8-.539c-.074.344-.12.664-.207.973-.261.898-.648 1.734-1.265 2.45a4.9 4.9 0 0 1-2.004 1.394 5 5 0 0 1-1.625.32c-.414.012-.824.016-1.219-.117-.824-.274-1.418-.797-1.644-1.656a2 2 0 0 1 .203-1.54c.37-.656.953-1.066 1.62-1.37a6.7 6.7 0 0 1 2.247-.579c.477-.039.957-.074 1.434-.082.488-.008.976.008 1.464.04.32.019.645.05.996.167" style="stroke:none;fill-rule:nonzero;fill:#be2537;fill-opacity:1"/></svg>