<svg xmlns="http://www.w3.org/2000/svg" width="176pt" height="59pt" viewBox="0 0 176 59"><path d="M0 0h176v59H0z" style="fill:#c8ecfb;fill-opacity:1;stroke:none"/><path d="M8.223 25.297c-.84.047-1.563.074-2.282.129-.453.031-.898.11-1.347.16-3.211.363-4.461-1.113-4.59-4.336-.035-.816.223-1.672.488-2.465.434-1.305 1.38-2.023 2.79-2.05a66 66 0 0 1 1.523-.016 9706 9706 0 0 1 15.082 0c.562 0 1.133.008 1.691.062 1.192.121 2.004.813 2.324 1.922.266.91.422 1.879.45 2.828.05 1.778-.7 2.57-2.489 2.758-1.343.145-2.699.223-4.047.336-.496.04-.992.102-1.613.164.527 3.16 1.262 6.129 2.5 8.973 1.246 2.86 2.785 5.523 4.902 7.843 3.118 3.422 6.848 5.692 11.551 6.004 2.809.188 5.485-.449 7.992-1.773 3.786-2.008 6.747-4.922 9.016-8.492 1.594-2.512 2.902-5.203 4.344-7.813.406-.738.765-1.515 1.262-2.191 1.058-1.445 2.074-1.621 4.03-.832 1.575.637 2.263 1.652 1.923 3.312a38.6 38.6 0 0 1-1.438 5.192c-1.812 5.023-4.387 9.625-7.933 13.648-4.309 4.887-9.52 8.258-15.993 9.465-5.226.969-9.98-.445-14.351-3.207-5.121-3.238-8.453-8.008-10.996-13.414-1.88-4-3.145-8.188-4.102-12.484-.254-1.153-.433-2.32-.687-3.723M121.664 37.602c0 1.98-.066 3.96.016 5.933.164 4.043-2.25 6.61-5.86 7.332-2.562.512-5.168.547-7.656-.515-2.715-1.164-4.152-3.266-4.195-6.188-.07-4.633-.035-9.27-.02-13.902.008-1.32.242-1.516 1.61-1.61 3.043-.21 3.183-.082 3.183 2.899 0 3.672-.004 7.344.004 11.02 0 .503-.004 1.023.09 1.515.398 2.133 1.945 3.098 4.605 2.914 2.118-.145 3.332-1.352 3.38-3.473.046-2.199.007-4.406.007-6.609s-.016-4.406.008-6.61c.016-1.32.27-1.57 1.582-1.648a13.5 13.5 0 0 1 1.863.012c1.14.098 1.36.312 1.375 1.473.031 2.148.008 4.293.008 6.44zM93.328 32.898v15.425999999999998c0 .453.098.957-.07 1.34-.184.406-.594.742-.977 1.016-.199.14-.547.082-.828.097-2.883.188-3.113-.023-3.113-2.851V32.922c-.508-.059-.934-.14-1.363-.145-1.41-.02-2.825.02-4.235-.023-.996-.031-1.156-.223-1.16-1.238-.004-.5.043-1.02.18-1.496.285-.985.68-1.254 1.699-1.32.223-.016.45-.005.676-.005 4.629 0 9.258-.004 13.883 0 1.808.004 1.91.098 1.906 1.543 0 2.008-.395 2.5-2.055 2.528-1.07.02-2.144-.004-3.215.007-.383.008-.761.07-1.328.125M66.004 13.418c-3.442.035-6.414-2.844-6.477-6.27C59.47 3.645 62.441.578 65.902.57c3.383-.004 6.371 2.977 6.407 6.39.035 3.427-2.887 6.423-6.305 6.458M126.98 39.672c0-3.043-.011-6.086 0-9.133.008-1.644.2-1.86 1.848-1.89 2.645-.047 3.18-.165 3.094 3.058-.156 5.578-.02 11.164-.008 16.746.004.395.02.79-.027 1.18-.082.629-.446 1.02-1.098 1.086a12 12 0 0 1-.844.07c-2.773.137-2.965-.047-2.965-2.824z" style="stroke:none;fill-rule:nonzero;fill:#ec1d27;fill-opacity:1"/><path d="M164.137 56.84c.722-1.668 1.383-3.203 2.05-4.738.227-.516.442-1.04.727-1.524.52-.875.375-1.664-.062-2.539-1.66-3.32-3.27-6.668-4.891-10.008-.219-.449-.399-.918-.59-1.367 1.59-1.066 2.816-.746 3.527.816a676 676 0 0 0 3.274 7.04c.183.386.445.738.777 1.277.887-1.95 1.7-3.727 2.5-5.512.395-.87.754-1.758 1.153-2.629.8-1.746 1.246-1.91 3.398-1.234-.05.25-.055.531-.164.77-2.758 6.16-5.527 12.316-8.297 18.472-.777 1.73-1.187 1.898-3.402 1.176M145.895 50.543V38.605c-.926-.097-1.684-.18-2.415-.257-.332-2.016-.312-2.04 2.25-2.364.043-.402.11-.836.133-1.27.047-.788-.008-1.589.114-2.366.285-1.871 1.222-3.309 3.136-3.801 2.012-.52 4-.512 5.95.867l-.82 1.922c-.665-.211-1.184-.395-1.716-.535-2.386-.637-3.746.355-3.828 2.797-.027.78-.004 1.558-.004 2.53h4.094c.524 1.825.207 2.29-1.492 2.329-.785.016-1.57.004-2.477.004-.05.52-.132.945-.132 1.379-.012 2.933-.008 5.87-.008 8.808 0 2.227-.16 2.348-2.785 1.895M156.383 50.52v-1.723c0-6.09-.004-12.184 0-18.277 0-2.122.281-2.352 2.707-2.06.027.509.078 1.052.078 1.595q.005 9.307.004 18.613c0 2.184-.219 2.348-2.79 1.852" style="stroke:none;fill-rule:nonzero;fill:#202d59;fill-opacity:1"/></svg>