<svg xmlns="http://www.w3.org/2000/svg" xml:space="preserve" id="Layer_1" x="0" y="0" version="1.1" viewBox="0 0 176 59"><style>.st0{fill:#0094d8}.st1{fill:#034da0}</style><path d="M.1 22.1c.3-2.2 1.4-4.1 2.6-5.9 1.3-2 2.7-3.7 4.3-5.3.1-.1.2-.2.3-.2 0 0 .1 0 .1.1s0 .3-.1.4c-1 2-1.9 4-2.2 6.2q-.15 1.5 0 3c.1 1.1.8 1.9 1.7 2.5 1.9 1.3 4.1 2 6.3 2.5 3.9.8 7.8.9 11.8.5 7.1-.7 13.9-2.7 20.5-5.1 3-1.1 6-2.4 8.9-3.6.1-.1.3-.1.4-.1l.1.1c-.1.1-.2.3-.3.3-2.5 2.2-5.1 4.1-8 5.8-5.4 3.3-11.1 5.7-17.3 7.1-8.4 1.8-16.7 1.4-24.9-1.4-2.1-.7-3.6-2-4.2-4.2-.1-.2-.1-.5-.2-.7 0-1.4.2-2 .2-2" class="st0"/><path d="M25.6 41.1c-5.6-.8-10.2-3.5-13.7-7.9-.1-.1-.1-.1-.1-.2v-.1c1.2.2 2.5.3 3.7.5 3.4.3 6.7.2 10.1-.3 7.7-1.2 14.9-4 21.8-7.6.1-.1.3-.1.5-.3-.1.3-.1.6-.2.8-2.3 7.9-7.3 13.1-15.5 14.9l-1.8.3c-.1 0-2.5.2-4.8-.1M26.6 1c1.1-.1 1.6-.1 2.8 0 1 .1 1.9.2 2.9.4q7.5 1.65 12 7.8c.1.1.1.2.2.3v.1c-2.2-1.4-4.5-2.6-7-3.4-1.9-.6-3.9-1-5.9-.2-2.9 1-4.6 3.1-5 6.2-.4 3.2 1 5.6 3.6 7.4 1.4 1 3.1 1.3 4.8 1.7.5.1 1.1.2 1.6.5-1.4.3-2.7.6-4.1.9-4.2.8-8.5 1.2-12.8 1-3-.1-6-.4-8.9-1.5-.6-.2-1.2-.5-1.7-.9-.9-.5-1.3-1.2-1.1-2.3.4-4.2 1.9-7.9 4.6-11.1 3.1-3.7 7.2-5.8 11.9-6.6zM130.4 22.1h-8.3c-1.5 0-2.9-.3-4.2-1.1-1.5-.9-2.3-2.1-2.2-3.9.1-1.7 0-3.3.1-5 0-.8.4-1.4.9-1.9 1.7-1.5 3.7-2.2 5.9-2.2h16.3c2.1 0 3.9.8 5.4 2.3.6.6.9 1.3.9 2.2v5.2c0 .9-.3 1.7-1 2.3q-2.25 2.1-5.4 2.1zm.1-10.4h-7.2c-1.2 0-2.1.8-2.1 2v2.9c0 .2 0 .4.1.6.3.9 1 1.3 2.1 1.3h14.5c1-.1 1.7-.9 1.8-1.9v-2.7c0-1.4-.8-2.2-2.2-2.2zM147.3 22v-1.6c0-3 .1-6 0-9q0-1.8 1.5-2.7c2.7-1.5 5.4-1.3 8 .4 4.5 3 8.9 6 13.4 9 .1.1.2.1.4.3V8.1h5.3v10.200000000000001c0 1.3-.6 2.3-1.7 2.9-2.5 1.4-4.9 1.3-7.3-.1-2.2-1.3-4.3-2.8-6.5-4.3-2.5-1.7-5-3.3-7.5-5-.1-.1-.2-.2-.5-.3v10.4c-1.6.1-3.3.1-5.1.1M56.8 22c.2-.2.3-.4.5-.6 2.7-3.5 5.3-7 8-10.5 1-1.3 2.2-2.3 3.9-2.7 2.7-.6 4.9.3 6.6 2.5 2.7 3.5 5.3 7 8 10.5.2.3.4.5.6.9h-5.6c-1-1.2-2.1-2.4-3.1-3.6H65.5c-.9 1.2-1.9 2.4-2.8 3.6-1.9-.1-3.9-.1-5.9-.1m13.9-10.1c-.8 1-1.6 1.9-2.4 2.9h4.8c-.9-1-1.6-2-2.4-2.9M78.3 8.1h6c2.7 3.4 5.4 6.9 8.1 10.3 2.8-3.5 5.6-6.9 8.3-10.4h5.9c-.1.1-.1.2-.2.3-2.9 3.7-5.7 7.3-8.6 11-2.2 2.8-5.3 3.2-7.7 2.4-1.4-.5-2.5-1.5-3.4-2.6-2.8-3.6-5.5-7.2-8.2-10.7-.1-.1-.1-.1-.2-.3M113.5 22.1h-5.7v-14h5.7z" class="st1"/><path d="M89.7 25.3v1.6h-7.5v.7h7.5v1.7h-7.4v.7h7.5v1.7h-7c-1.2 0-2.1-.9-2.1-2.1V27c.1-1.1.8-1.9 1.9-1.9h7.1c-.1.1-.1.2 0 .2M122.5 26.9v.8h7.5v1.7h-7.5v.7h7.5v1.8h-6.8c-1.5 0-2.4-.9-2.4-2.4v-2.1c0-1.2.8-2.1 2-2.1h7.199999999999999v1.6zM149.9 30.1v-.8h-6.1000000000000005c-1.3 0-2.3-.9-2.2-2.1 0-1 .8-1.8 2-1.9 1.1-.1 2.1-.1 3.2-.1h4.3999999999999995v1.6h-7.8v.8h6.1000000000000005c1.1 0 2 .8 2.1 1.9.1.9-.6 1.9-1.6 2.1-.2.1-.5.1-.8.1H142V30c2.6.1 5.3.1 7.9.1M140.4 25.3v1.6h-7.8v.8h6.1000000000000005c.9 0 1.5.4 1.9 1.2.4.7.3 1.4-.2 2-.5.7-1.2.9-2 .9h-7.3v-1.7h7.9v-.8h-6.1000000000000005c-1.4 0-2.4-1.1-2.2-2.4.1-.8.9-1.6 2-1.7s2.1-.1 3.2-.1c1.5.2 2.9.2 4.5.2M110.8 25.3h7.1c1.7 0 2.6 1.6 1.9 3 0 0 0 .1-.1.1.7 1 .3 2.2.4 3.3h-1.7v-2.4h-5.8v2.4h-1.7c-.1-2.1-.1-4.2-.1-6.4m7.5 1.7h-5.7v.7h5.7zM102.2 29.4v2.4h-1.7v-6.5h7.5c1.2 0 2.1 1 2.1 2.2 0 1.1-1 2-2.2 2h-5.2c-.2-.1-.3-.1-.5-.1m6.1-2.4h-6v.8h6zM93.4 28.5c-1-1.1-1.9-2.1-2.9-3.3h2.2c.8.9 1.6 1.8 2.3 2.7.8-.9 1.6-1.8 2.4-2.8h2.2c-1 1.1-1.9 2.2-2.8 3.3.9 1.1 1.9 2.1 2.8 3.2h-2.1c-.8-.9-1.7-1.8-2.5-2.7-.7.9-1.5 1.8-2.2 2.7h-2.2c.9-.9 1.8-2 2.8-3.1" class="st0"/><path d="M44.5 9.5q0 .15 0 0 0 .15 0 0 0 .15 0 0" class="st1"/></svg>