<?xml version="1.0" encoding="utf-8"?>
<!-- Generator: Adobe Illustrator 28.0.0, SVG Export Plug-In . SVG Version: 6.00 Build 0)  -->
<svg version="1.1" id="Layer_1" xmlns="http://www.w3.org/2000/svg" xmlns:xlink="http://www.w3.org/1999/xlink" x="0px" y="0px"
	 viewBox="0 0 176 59" style="enable-background:new 0 0 176 59;" xml:space="preserve">
<style type="text/css">
	.st0{fill:#0094D8;}
	.st1{fill:#034DA0;}
</style>
<path class="st0" d="M0.1,22.1c0.3-2.2,1.4-4.1,2.6-5.9C4,14.2,5.4,12.5,7,10.9c0.1-0.1,0.2-0.2,0.3-0.2c0,0,0.1,0,0.1,0.1   c0,0.1,0,0.3-0.1,0.4c-1,2-1.9,4-2.2,6.2c-0.1,1-0.1,2,0,3c0.1,1.1,0.8,1.9,1.7,2.5c1.9,1.3,4.1,2,6.3,2.5c3.9,0.8,7.8,0.9,11.8,0.5   c7.1-0.7,13.9-2.7,20.5-5.1c3-1.1,6-2.4,8.9-3.6c0.1-0.1,0.3-0.1,0.4-0.1c0,0,0.1,0.1,0.1,0.1c-0.1,0.1-0.2,0.3-0.3,0.3   c-2.5,2.2-5.1,4.1-8,5.8c-5.4,3.3-11.1,5.7-17.3,7.1c-8.4,1.8-16.7,1.4-24.9-1.4c-2.1-0.7-3.6-2-4.2-4.2c-0.1-0.2-0.1-0.5-0.2-0.7   C-0.1,22.7,0.1,22.1,0.1,22.1z"/>
<path class="st1" d="M25.6,41.1c-5.6-0.8-10.2-3.5-13.7-7.9c-0.1-0.1-0.1-0.1-0.1-0.2c0,0,0,0,0-0.1c1.2,0.2,2.5,0.3,3.7,0.5   c3.4,0.3,6.7,0.2,10.1-0.3c7.7-1.2,14.9-4,21.8-7.6c0.1-0.1,0.3-0.1,0.5-0.3c-0.1,0.3-0.1,0.6-0.2,0.8c-2.3,7.9-7.3,13.1-15.5,14.9   c-0.6,0.1-1.2,0.2-1.8,0.3C30.3,41.2,27.9,41.4,25.6,41.1z"/>
<path class="st1" d="M26.6,1c1.1-0.1,1.6-0.1,2.8,0c1,0.1,1.9,0.2,2.9,0.4c5,1.1,9,3.7,12,7.8c0.1,0.1,0.1,0.2,0.2,0.3   c0,0,0,0,0,0.1C42.3,8.2,40,7,37.5,6.2c-1.9-0.6-3.9-1-5.9-0.2C28.7,7,27,9.1,26.6,12.2c-0.4,3.2,1,5.6,3.6,7.4   c1.4,1,3.1,1.3,4.8,1.7c0.5,0.1,1.1,0.2,1.6,0.5c-1.4,0.3-2.7,0.6-4.1,0.9c-4.2,0.8-8.5,1.2-12.8,1c-3-0.1-6-0.4-8.9-1.5   c-0.6-0.2-1.2-0.5-1.7-0.9C8.2,20.8,7.8,20.1,8,19c0.4-4.2,1.9-7.9,4.6-11.1c3.1-3.7,7.2-5.8,11.9-6.6C25.2,1.2,25.9,1.1,26.6,1z"/>
<path class="st1" d="M130.4,22.1c-2.8,0-5.5,0-8.3,0c-1.5,0-2.9-0.3-4.2-1.1c-1.5-0.9-2.3-2.1-2.2-3.9c0.1-1.7,0-3.3,0.1-5   c0-0.8,0.4-1.4,0.9-1.9c1.7-1.5,3.7-2.2,5.9-2.2c5.4,0,10.9,0,16.3,0c2.1,0,3.9,0.8,5.4,2.3c0.6,0.6,0.9,1.3,0.9,2.2   c0,1.7,0,3.4,0,5.2c0,0.9-0.3,1.7-1,2.3c-1.5,1.4-3.3,2.1-5.4,2.1C136,22.1,133.2,22.1,130.4,22.1z M130.5,11.7c-2.4,0-4.8,0-7.2,0   c-1.2,0-2.1,0.8-2.1,2c0,1,0,1.9,0,2.9c0,0.2,0,0.4,0.1,0.6c0.3,0.9,1,1.3,2.1,1.3c4.7,0,9.4,0,14.1,0c0.1,0,0.3,0,0.4,0   c1-0.1,1.7-0.9,1.8-1.9c0-0.9,0-1.8,0-2.7c0-1.4-0.8-2.2-2.2-2.2C135.2,11.7,132.8,11.7,130.5,11.7z"/>
<path class="st1" d="M147.3,22c0-0.6,0-1.1,0-1.6c0-3,0.1-6,0-9c0-1.2,0.5-2.1,1.5-2.7c2.7-1.5,5.4-1.3,8,0.4c4.5,3,8.9,6,13.4,9   c0.1,0.1,0.2,0.1,0.4,0.3c0-3.5,0-6.9,0-10.3c1.8,0,3.5,0,5.3,0c0,0.1,0,0.3,0,0.4c0,3.3,0,6.5,0,9.8c0,1.3-0.6,2.3-1.7,2.9   c-2.5,1.4-4.9,1.3-7.3-0.1c-2.2-1.3-4.3-2.8-6.5-4.3c-2.5-1.7-5-3.3-7.5-5c-0.1-0.1-0.2-0.2-0.5-0.3c0,3.5,0,7,0,10.4   C150.8,22,149.1,22,147.3,22z"/>
<path class="st1" d="M56.8,22c0.2-0.2,0.3-0.4,0.5-0.6c2.7-3.5,5.3-7,8-10.5c1-1.3,2.2-2.3,3.9-2.7c2.7-0.6,4.9,0.3,6.6,2.5   c2.7,3.5,5.3,7,8,10.5c0.2,0.3,0.4,0.5,0.6,0.9c-1.9,0-3.8,0-5.6,0c-1-1.2-2.1-2.4-3.1-3.6c-3.4,0-6.8,0-10.2,0   c-0.9,1.2-1.9,2.4-2.8,3.6C60.8,22,58.8,22,56.8,22z M70.7,11.9c-0.8,1-1.6,1.9-2.4,2.9c1.6,0,3.2,0,4.8,0   C72.2,13.8,71.5,12.8,70.7,11.9z"/>
<path class="st1" d="M78.3,8.1c2,0,4,0,6,0c2.7,3.4,5.4,6.9,8.1,10.3c2.8-3.5,5.6-6.9,8.3-10.4c2,0,3.9,0,5.9,0   c-0.1,0.1-0.1,0.2-0.2,0.3c-2.9,3.7-5.7,7.3-8.6,11c-2.2,2.8-5.3,3.2-7.7,2.4c-1.4-0.5-2.5-1.5-3.4-2.6c-2.8-3.6-5.5-7.2-8.2-10.7   C78.4,8.3,78.4,8.3,78.3,8.1z"/>
<path class="st1" d="M113.5,22.1c-1.9,0-3.8,0-5.7,0c0-4.7,0-9.3,0-14c1.9,0,3.8,0,5.7,0C113.5,12.8,113.5,17.4,113.5,22.1z"/>
<path class="st0" d="M89.7,25.3c0,0.5,0,1.1,0,1.6c-2.5,0-5,0-7.5,0c0,0.3,0,0.5,0,0.7c2.5,0,5,0,7.5,0c0,0.6,0,1.1,0,1.7   c-2.5,0-4.9,0-7.4,0c0,0.2,0,0.4,0,0.7c2.5,0,5,0,7.5,0c0,0.6,0,1.2,0,1.7c0,0-0.1,0-0.1,0c-2.3,0-4.6,0-6.9,0   c-1.2,0-2.1-0.9-2.1-2.1c0-0.9,0-1.7,0-2.6c0.1-1.1,0.8-1.9,1.9-1.9c2.4,0,4.8,0,7.1,0C89.6,25.2,89.6,25.3,89.7,25.3z"/>
<path class="st0" d="M122.5,26.9c0,0.3,0,0.5,0,0.8c2.5,0,5,0,7.5,0c0,0.6,0,1.1,0,1.7c-2.5,0-5,0-7.5,0c0,0.3,0,0.5,0,0.7   c2.5,0,5,0,7.5,0c0,0.6,0,1.2,0,1.8c-0.1,0-0.2,0-0.3,0c-2.2,0-4.3,0-6.5,0c-1.5,0-2.4-0.9-2.4-2.4c0-0.7,0-1.4,0-2.1   c0-1.2,0.8-2.1,2-2.1c2.4,0,4.8,0,7.1,0c0,0,0,0,0.1,0c0,0.5,0,1.1,0,1.6C127.5,26.9,125,26.9,122.5,26.9z"/>
<path class="st0" d="M149.9,30.1c0-0.3,0-0.5,0-0.8c-0.1,0-0.3,0-0.4,0c-1.9,0-3.8,0-5.7,0c-1.3,0-2.3-0.9-2.2-2.1   c0-1,0.8-1.8,2-1.9c1.1-0.1,2.1-0.1,3.2-0.1c1.4,0,2.7,0,4.1,0c0.1,0,0.2,0,0.3,0c0,0.5,0,1.1,0,1.6c-2.6,0-5.2,0-7.8,0   c0,0.3,0,0.5,0,0.8c0.1,0,0.2,0,0.4,0c1.9,0,3.8,0,5.7,0c1.1,0,2,0.8,2.1,1.9c0.1,0.9-0.6,1.9-1.6,2.1c-0.2,0.1-0.5,0.1-0.8,0.1   c-2.4,0-4.8,0-7.2,0c0-0.5,0-1.1,0-1.7C144.6,30.1,147.3,30.1,149.9,30.1z"/>
<path class="st0" d="M140.4,25.3c0,0.6,0,1.1,0,1.6c-2.6,0-5.2,0-7.8,0c0,0.3,0,0.5,0,0.8c0.1,0,0.3,0,0.4,0c1.9,0,3.8,0,5.7,0   c0.9,0,1.5,0.4,1.9,1.2c0.4,0.7,0.3,1.4-0.2,2c-0.5,0.7-1.2,0.9-2,0.9c-2.4,0-4.8,0-7.3,0c0-0.5,0-1.1,0-1.7c2.6,0,5.3,0,7.9,0   c0-0.3,0-0.5,0-0.8c-0.2,0-0.3,0-0.4,0c-1.9,0-3.8,0-5.7,0c-1.4,0-2.4-1.1-2.2-2.4c0.1-0.8,0.9-1.6,2-1.7c1.1-0.1,2.1-0.1,3.2-0.1   C137.4,25.3,138.8,25.3,140.4,25.3z"/>
<path class="st0" d="M110.8,25.3c1.4,0,2.7,0,4.1,0c1,0,2,0,3,0c1.7,0,2.6,1.6,1.9,3c0,0,0,0.1-0.1,0.1c0.7,1,0.3,2.2,0.4,3.3   c-0.6,0-1.1,0-1.7,0c0-0.8,0-1.6,0-2.4c-1.9,0-3.8,0-5.8,0c0,0.8,0,1.6,0,2.4c-0.6,0-1.2,0-1.7,0C110.8,29.6,110.8,27.5,110.8,25.3z    M118.3,27c-1.9,0-3.8,0-5.7,0c0,0.3,0,0.5,0,0.7c1.9,0,3.8,0,5.7,0C118.3,27.4,118.3,27.2,118.3,27z"/>
<path class="st0" d="M102.2,29.4c0,0.8,0,1.6,0,2.4c-0.6,0-1.2,0-1.7,0c0-2.2,0-4.4,0-6.5c0.1,0,0.1,0,0.2,0c2.4,0,4.9,0,7.3,0   c1.2,0,2.1,1,2.1,2.2c0,1.1-1,2-2.2,2c-1.7,0-3.5,0-5.2,0C102.5,29.4,102.4,29.4,102.2,29.4z M108.3,27c-2,0-4,0-6,0   c0,0.3,0,0.5,0,0.8c2,0,4,0,6,0C108.3,27.5,108.3,27.2,108.3,27z"/>
<path class="st0" d="M93.4,28.5c-1-1.1-1.9-2.1-2.9-3.3c0.8,0,1.5,0,2.2,0c0.8,0.9,1.6,1.8,2.3,2.7c0.8-0.9,1.6-1.8,2.4-2.8   c0.7,0,1.4,0,2.2,0c-1,1.1-1.9,2.2-2.8,3.3c0.9,1.1,1.9,2.1,2.8,3.2c-0.7,0-1.4,0-2.1,0c-0.8-0.9-1.7-1.8-2.5-2.7   c-0.7,0.9-1.5,1.8-2.2,2.7c-0.7,0-1.4,0-2.2,0C91.5,30.7,92.4,29.6,93.4,28.5z"/>
<path class="st1" d="M44.5,9.5C44.5,9.6,44.5,9.6,44.5,9.5C44.5,9.6,44.5,9.6,44.5,9.5C44.5,9.6,44.5,9.6,44.5,9.5z"/>
</svg>
