<?xml version="1.0" encoding="UTF-8"?>
<svg xmlns="http://www.w3.org/2000/svg" xmlns:xlink="http://www.w3.org/1999/xlink" width="176pt" height="53.28pt" viewBox="0 0 176 53.28" version="1.1">
<defs>
<clipPath id="clip1">
  <path d="M 105 45 L 174 45 L 174 53.28125 L 105 53.28125 Z M 105 45 "/>
</clipPath>
</defs>
<g id="surface1">
<path style=" stroke:none;fill-rule:nonzero;fill:rgb(91.954041%,12.600708%,15.896606%);fill-opacity:1;" d="M 43.378906 10.964844 L 43.40625 10.964844 C 43.425781 10.964844 43.425781 10.964844 43.425781 10.964844 C 46.523438 10.632812 49.621094 7.84375 49.125 4.558594 C 48.675781 1.554688 45.957031 -0.335938 43.050781 0.0429688 C 41.394531 0.253906 39.410156 1.273438 38.582031 2.785156 C 37.800781 4.15625 37.683594 5.8125 37.992188 7.324219 C 38.535156 9.851562 40.945312 11.035156 43.378906 10.964844 "/>
<path style=" stroke:none;fill-rule:nonzero;fill:rgb(91.954041%,12.600708%,15.896606%);fill-opacity:1;" d="M 7 25.054688 C 7.355469 21.980469 5.082031 20.5625 3.003906 20.019531 C 1.160156 19.59375 -0.351562 19.355469 0.0703125 17.9375 C 0.0976562 17.890625 0.121094 17.84375 0.144531 17.796875 C 0.804688 16.378906 2.460938 15.644531 4.683594 15.054688 C 4.988281 14.984375 5.296875 14.890625 5.628906 14.816406 C 7.707031 14.34375 10.167969 14.15625 12.53125 13.730469 C 13.59375 13.542969 14.609375 13.304688 15.554688 12.972656 C 17.753906 12.003906 19.171875 9.878906 20.070312 7.726562 C 20.449219 6.851562 20.734375 5.953125 20.945312 5.125 C 21.277344 3.824219 21.515625 2.691406 21.914062 1.863281 C 22.316406 1.105469 22.886719 0.609375 23.78125 0.46875 C 25.53125 0.277344 26.242188 2.195312 26.808594 4.960938 C 27.472656 8.152344 27.375 12.644531 28.914062 15.386719 C 29.738281 16.496094 31.324219 16.898438 33.214844 16.898438 C 35.460938 16.898438 38.132812 16.308594 40.519531 15.597656 C 43.5 14.722656 46.097656 13.917969 47.753906 14.0625 C 48.605469 14.132812 49.21875 14.464844 49.527344 15.195312 C 49.597656 15.386719 49.621094 15.597656 49.621094 15.8125 C 49.265625 17.535156 46.265625 19.546875 42.433594 21.886719 C 37.589844 24.792969 31.464844 27.417969 28.984375 30.394531 C 28.558594 30.964844 28.296875 31.601562 28.203125 32.265625 C 27.519531 35.195312 29.882812 39 32.625 42.121094 C 35.25 45.101562 37.683594 47.628906 37.566406 49.285156 C 37.46875 49.617188 37.234375 49.921875 36.832031 50.160156 C 36.429688 50.417969 35.933594 50.539062 35.390625 50.515625 C 33.214844 50.441406 29.976562 48.386719 26.429688 45.761719 C 21.964844 42.476562 17.753906 38.007812 14.375 36.636719 C 14.066406 36.542969 13.761719 36.472656 13.453125 36.472656 C 10.96875 36.402344 8.796875 39.378906 7.402344 42.285156 C 6.148438 44.980469 5.203125 47.296875 4.136719 47.085938 C 3.925781 47.039062 3.710938 46.898438 3.476562 46.636719 C 2.886719 45.953125 2.695312 44.769531 2.742188 43.257812 C 2.8125 41.765625 3.144531 39.992188 3.570312 38.03125 C 4.375 34.367188 5.886719 30.371094 6.621094 27.132812 C 6.785156 26.402344 6.925781 25.714844 7 25.054688 "/>
<path style=" stroke:none;fill-rule:nonzero;fill:rgb(91.954041%,12.600708%,15.896606%);fill-opacity:1;" d="M 55.082031 36.566406 C 54.5625 37.675781 53.617188 38.148438 52.765625 38.148438 C 51.914062 38.148438 51.15625 37.558594 51.300781 36.542969 L 52.175781 30.445312 C 52.316406 29.378906 53.238281 28.835938 54.113281 28.835938 C 54.894531 28.835938 55.648438 29.355469 55.71875 30.445312 L 61.15625 28.835938 C 60.613281 24.769531 57.421875 23.636719 54.84375 23.636719 C 50.992188 23.636719 46.785156 25.574219 46.121094 30.230469 L 45.246094 36.425781 C 44.585938 41.058594 48.226562 43.351562 52.082031 43.351562 C 54.65625 43.351562 58.320312 42.027344 60.257812 37.773438 Z M 61.628906 36.636719 C 61.015625 41.082031 64.5625 43.351562 68.414062 43.351562 C 72.316406 43.351562 76.523438 41.105469 77.136719 36.636719 L 77.988281 30.632812 C 78.652344 25.929688 75.082031 23.660156 71.226562 23.636719 C 67.351562 23.683594 63.121094 25.953125 62.457031 30.632812 Z M 70.402344 29.121094 C 71.132812 29.121094 71.984375 29.640625 71.867188 30.515625 L 71.015625 36.707031 C 70.875 37.722656 69.953125 38.148438 69.148438 38.148438 C 68.34375 38.148438 67.609375 37.605469 67.707031 36.707031 L 68.558594 30.515625 C 68.675781 29.617188 69.667969 29.121094 70.402344 29.121094 M 88.414062 23.613281 C 83.828125 23.613281 80.425781 25.859375 79.714844 31.035156 L 78.058594 42.996094 L 84.253906 42.996094 L 85.910156 31.105469 C 86.191406 29 89.148438 28.695312 90.777344 29.261719 L 91.511719 24.085938 C 89.996094 23.683594 89.078125 23.613281 88.414062 23.613281 M 96.804688 35.855469 C 101.203125 36.851562 106.097656 35.054688 106.757812 30.5625 C 107.445312 25.90625 104.371094 23.589844 100.445312 23.589844 C 96.523438 23.589844 92.292969 26.09375 91.628906 30.84375 L 90.847656 36.28125 C 90.1875 40.914062 93.78125 43.328125 97.609375 43.328125 C 99.808594 43.328125 102.410156 42.925781 105.058594 40.253906 L 102.078125 37.25 C 100.328125 38.90625 96.40625 38.71875 96.804688 35.855469 M 97.65625 30.394531 C 97.800781 29.332031 98.839844 28.71875 99.714844 28.71875 C 100.894531 28.71875 101.320312 29.59375 101.179688 30.492188 C 100.96875 32.40625 98.910156 32.878906 97.398438 32.214844 Z M 106.5 42.972656 L 112.691406 42.972656 L 114.632812 29.238281 C 114.984375 29.097656 115.480469 29.023438 115.90625 29.023438 C 116.855469 29.023438 117.703125 29.425781 117.515625 30.796875 L 115.789062 42.972656 L 121.960938 42.972656 L 123.6875 30.75 C 124.417969 25.503906 120.777344 23.589844 116.191406 23.589844 C 113.730469 23.589844 111.132812 24.179688 109.003906 25.125 Z M 143.09375 16.992188 L 136.851562 16.992188 L 135.90625 23.964844 C 135.128906 23.707031 134.300781 23.589844 133.496094 23.589844 C 129.832031 23.589844 126.261719 25.714844 125.671875 29.972656 L 124.75 36.472656 C 124.015625 41.648438 127.539062 43.328125 131.535156 43.328125 C 134.324219 43.328125 137.230469 42.59375 139.59375 41.71875 Z M 133.828125 38.363281 C 133.472656 38.480469 133.046875 38.550781 132.644531 38.550781 C 131.628906 38.550781 130.636719 38.101562 130.777344 37.015625 L 131.722656 30.417969 C 131.910156 29.238281 133 28.765625 133.96875 28.765625 C 134.441406 28.765625 134.84375 28.835938 135.148438 28.976562 Z M 142.195312 36.636719 C 141.582031 41.082031 145.128906 43.351562 148.980469 43.351562 C 152.882812 43.351562 157.089844 41.105469 157.703125 36.636719 L 158.554688 30.632812 C 159.214844 25.929688 155.644531 23.660156 151.792969 23.636719 C 147.894531 23.683594 143.683594 25.953125 143.023438 30.632812 Z M 150.964844 29.121094 C 151.699219 29.121094 152.550781 29.640625 152.433594 30.515625 L 151.578125 36.707031 C 151.4375 37.722656 150.515625 38.148438 149.714844 38.148438 C 148.910156 38.148438 148.175781 37.605469 148.292969 36.707031 L 149.144531 30.515625 C 149.238281 29.617188 150.230469 29.121094 150.964844 29.121094 M 158.71875 42.972656 L 164.914062 42.972656 L 166.851562 29.238281 C 167.230469 29.097656 167.703125 29.023438 168.128906 29.023438 C 169.074219 29.023438 169.925781 29.425781 169.734375 30.796875 L 168.011719 42.972656 L 174.179688 42.972656 L 175.90625 30.75 C 176.640625 25.503906 172.996094 23.589844 168.410156 23.589844 C 165.953125 23.589844 163.351562 24.179688 161.226562 25.125 L 158.71875 42.972656 "/>
<g clip-path="url(#clip1)" clip-rule="nonzero">
<path style=" stroke:none;fill-rule:nonzero;fill:rgb(91.954041%,12.600708%,15.896606%);fill-opacity:1;" d="M 110.351562 45.785156 L 109.289062 45.785156 L 105.601562 53.183594 L 106.523438 53.183594 L 107.679688 50.820312 L 110.542969 50.820312 L 111.085938 53.183594 L 112.007812 53.183594 Z M 110.375 49.921875 L 108.105469 49.921875 C 108.648438 48.8125 109.171875 47.796875 109.691406 46.707031 Z M 118.34375 45.785156 L 117.46875 45.785156 L 116.429688 53.183594 L 117.304688 53.183594 Z M 126.898438 53.183594 L 127.964844 53.183594 L 126.003906 50.160156 C 127.277344 50.089844 128.34375 49.472656 128.554688 48.007812 C 128.742188 46.425781 127.75 45.785156 126.332031 45.785156 L 123.519531 45.785156 L 122.480469 53.183594 L 123.355469 53.183594 L 123.78125 50.160156 L 124.914062 50.160156 Z M 123.921875 49.355469 L 124.300781 46.660156 L 126.261719 46.660156 C 127.230469 46.636719 127.867188 46.96875 127.703125 48.007812 C 127.5625 49.023438 126.878906 49.355469 125.882812 49.355469 Z M 132.597656 53.183594 L 137.019531 53.183594 L 137.136719 52.308594 L 133.589844 52.308594 L 134.511719 45.785156 L 133.636719 45.785156 Z M 143.472656 45.785156 L 142.597656 45.785156 L 141.558594 53.183594 L 142.433594 53.183594 Z M 152.550781 51.980469 L 149.617188 45.785156 L 148.671875 45.785156 L 147.632812 53.183594 L 148.507812 53.183594 L 149.335938 47.25 L 152.195312 53.183594 L 153.257812 53.183594 L 154.300781 45.785156 L 153.425781 45.785156 Z M 160.230469 46.660156 L 164.109375 46.660156 L 164.226562 45.785156 L 159.476562 45.785156 L 158.4375 53.183594 L 163.1875 53.183594 L 163.304688 52.308594 L 159.429688 52.308594 L 159.761719 49.921875 L 163.328125 49.921875 L 163.445312 49.046875 L 159.878906 49.046875 Z M 169.382812 47.652344 C 169.546875 46.875 170.421875 46.542969 171.273438 46.542969 C 172.054688 46.542969 172.832031 46.847656 173.046875 47.535156 L 173.894531 47.179688 C 173.589844 46.140625 172.503906 45.667969 171.414062 45.667969 C 170.136719 45.667969 168.789062 46.328125 168.53125 47.628906 C 168.339844 49.117188 169.523438 49.496094 170.703125 49.734375 C 171.722656 49.945312 172.667969 50.160156 172.429688 51.222656 C 172.265625 52.027344 171.34375 52.40625 170.46875 52.40625 C 169.664062 52.40625 168.886719 52.050781 168.671875 51.339844 L 167.820312 51.695312 C 168.128906 52.757812 169.238281 53.28125 170.351562 53.28125 C 171.675781 53.28125 173.046875 52.617188 173.304688 51.269531 C 173.660156 49.449219 172.289062 49.167969 171.035156 48.929688 C 170.066406 48.742188 169.191406 48.550781 169.382812 47.652344 "/>
</g>
</g>
</svg>
