<?xml version="1.0" encoding="UTF-8"?>
<svg xmlns="http://www.w3.org/2000/svg" xmlns:xlink="http://www.w3.org/1999/xlink" width="176pt" height="22.37pt" viewBox="0 0 176 22.37" version="1.1">
<defs>
<clipPath id="clip1">
  <path d="M 0 6 L 14 6 L 14 22.371094 L 0 22.371094 Z M 0 6 "/>
</clipPath>
</defs>
<g id="surface1">
<g clip-path="url(#clip1)" clip-rule="nonzero">
<path style=" stroke:none;fill-rule:nonzero;fill:rgb(26.907349%,53.340149%,81.266785%);fill-opacity:1;" d="M 1.566406 10.597656 C 1.171875 11.234375 0.285156 12.089844 1.03125 12.550781 C 1.648438 12.566406 2.082031 12.710938 2.070312 13.164062 C 2.054688 13.695312 1.46875 13.722656 1.386719 14.058594 C 1.273438 14.519531 1.96875 14.578125 2.144531 14.910156 C 2.105469 15.21875 1.570312 15.3125 1.65625 15.8125 C 1.835938 16.003906 2.03125 15.953125 2.167969 16.082031 C 2.625 16.515625 1.9375 17.085938 1.878906 17.488281 C 1.773438 18.226562 3.015625 18.984375 3.9375 18.976562 C 6.039062 18.96875 8.574219 17.703125 10.753906 19.019531 C 9.949219 19.195312 7.992188 18.917969 7.917969 20.164062 C 7.898438 20.527344 8.351562 20.96875 8.550781 21.296875 C 9.328125 22.539062 9.949219 24.054688 10.101562 25.578125 C 11.390625 20.839844 12.542969 15.523438 13.761719 10.546875 C 11.355469 9.496094 9.601562 7.894531 6.753906 7.070312 C 5.546875 6.722656 4.160156 6.613281 3.125 6.753906 C 3.132812 7.265625 2.800781 7.398438 2.785156 7.75 C 2.765625 8.179688 3.476562 8.417969 3.828125 8.664062 C 4.285156 8.984375 4.53125 9.332031 4.601562 9.757812 C 4.257812 9.625 4.332031 9.308594 3.800781 9.292969 C 3.65625 9.285156 3.40625 9.433594 3.132812 9.453125 C 2.941406 9.472656 2.589844 9.125 2.488281 9.148438 C 2.148438 9.226562 1.761719 10.285156 1.566406 10.597656 "/>
</g>
<path style=" stroke:none;fill-rule:nonzero;fill:rgb(26.907349%,53.340149%,81.266785%);fill-opacity:1;" d="M 4.953125 2.070312 C 4.757812 2.347656 4.601562 2.679688 4.433594 2.996094 C 4.992188 3.070312 5.703125 3.128906 6.339844 3.257812 C 9.949219 3.992188 11.351562 6.71875 14.398438 7.78125 C 14.847656 6.308594 15.261719 4.21875 15.652344 2.675781 C 15.757812 2.253906 15.839844 1.980469 15.625 1.671875 C 15.175781 1.296875 14.351562 1.457031 13.984375 1.066406 C 13.769531 0.839844 13.953125 0.59375 13.699219 0.507812 C 12.84375 0.222656 11.976562 0.726562 11.417969 0.105469 C 11.078125 0.382812 10.34375 0.234375 9.789062 0.269531 C 9.417969 0.292969 9.070312 0.796875 8.789062 0.265625 C 8.0625 0.367188 7.714844 1.1875 6.96875 1.1875 C 6.820312 1.1875 6.660156 1.050781 6.496094 1.058594 C 5.914062 1.070312 5.761719 2.039062 5.253906 2.230469 C 5.054688 2.25 5.113281 1.992188 4.953125 2.070312 "/>
<path style=" stroke:none;fill-rule:nonzero;fill:rgb(21.096802%,32.539368%,67.033386%);fill-opacity:1;" d="M 6.808594 18.574219 C 6.808594 18.574219 7.042969 18.417969 8.300781 18.398438 C 9.96875 18.371094 10.753906 19.015625 10.753906 19.015625 C 10.671875 19.058594 10.359375 19.089844 9.726562 19.132812 C 9.074219 19.175781 8.566406 19.347656 8.566406 19.347656 C 7.738281 19.6875 7.976562 20.433594 7.976562 20.433594 C 7.273438 19.457031 6.808594 18.574219 6.808594 18.574219 "/>
<path style=" stroke:none;fill-rule:nonzero;fill:rgb(21.096802%,32.539368%,67.033386%);fill-opacity:1;" d="M 28.636719 13.515625 L 24.53125 13.515625 L 27.429688 10.871094 L 28.636719 13.515625 M 34.792969 17.996094 Z M 35.023438 17.886719 L 31 9.175781 C 30.21875 7.523438 29.363281 7.414062 28.253906 7.414062 L 26.882812 7.414062 C 26.734375 7.414062 25.828125 7.410156 25.828125 7.410156 L 26.085938 7.964844 L 15.238281 17.808594 C 15.085938 17.949219 14.992188 18.132812 14.976562 18.34375 C 14.972656 18.351562 14.972656 18.363281 14.972656 18.378906 C 14.972656 18.476562 14.996094 18.582031 15.070312 18.667969 C 15.136719 18.761719 15.253906 18.820312 15.367188 18.820312 C 15.371094 18.820312 15.375 18.820312 15.378906 18.820312 L 18.507812 18.800781 C 18.652344 18.800781 18.765625 18.734375 18.859375 18.652344 L 21.40625 16.363281 L 29.941406 16.363281 L 30.957031 18.570312 C 31.011719 18.699219 31.164062 18.808594 31.320312 18.800781 L 34.457031 18.820312 L 34.460938 18.820312 C 34.703125 18.808594 34.851562 18.660156 34.960938 18.484375 C 35.027344 18.367188 35.066406 18.238281 35.066406 18.105469 C 35.066406 18.035156 35.054688 17.960938 35.023438 17.886719 "/>
<path style=" stroke:none;fill-rule:nonzero;fill:rgb(21.096802%,32.539368%,67.033386%);fill-opacity:1;" d="M 36.117188 18.027344 L 36.117188 18.027344 M 35.871094 17.921875 C 35.847656 17.996094 35.84375 18.070312 35.855469 18.140625 C 35.875 18.273438 35.933594 18.402344 36.019531 18.519531 C 36.152344 18.695312 36.324219 18.847656 36.570312 18.855469 L 36.574219 18.855469 L 39.726562 18.839844 C 39.878906 18.847656 40.019531 18.738281 40.054688 18.605469 L 40.769531 16.386719 L 43.355469 8.472656 L 43.714844 7.390625 C 43.714844 7.390625 42.792969 7.394531 42.640625 7.390625 L 41.242188 7.390625 C 40.113281 7.394531 39.253906 7.507812 38.691406 9.164062 L 35.867188 17.921875 L 35.871094 17.921875 "/>
<path style=" stroke:none;fill-rule:nonzero;fill:rgb(21.096802%,32.539368%,67.033386%);fill-opacity:1;" d="M 53.945312 10.898438 C 53.890625 11 53.828125 11.082031 53.753906 11.15625 C 53.675781 11.234375 53.59375 11.300781 53.488281 11.363281 C 53.382812 11.421875 53.253906 11.480469 53.097656 11.527344 C 52.796875 11.625 52.375 11.6875 51.824219 11.6875 L 47.945312 11.6875 L 48.40625 10.25 L 52.433594 10.25 C 52.789062 10.25 53.078125 10.277344 53.292969 10.324219 C 53.628906 10.394531 53.78125 10.492188 53.863281 10.59375 C 53.902344 10.640625 53.921875 10.683594 53.9375 10.746094 C 53.945312 10.777344 53.949219 10.8125 53.949219 10.855469 C 53.949219 10.867188 53.945312 10.878906 53.945312 10.898438 M 58.019531 10 C 57.972656 9.683594 57.867188 9.390625 57.707031 9.113281 C 57.355469 8.507812 56.757812 8.070312 55.980469 7.792969 C 55.203125 7.515625 54.25 7.390625 53.136719 7.390625 L 48.34375 7.390625 C 48.335938 7.390625 48.332031 7.386719 48.328125 7.386719 L 48.324219 7.386719 L 47.789062 7.390625 L 45.359375 7.390625 C 45.320312 7.390625 45.285156 7.398438 45.25 7.40625 L 45.171875 7.40625 C 45.019531 7.398438 44.878906 7.507812 44.84375 7.640625 L 44.128906 9.859375 L 41.542969 17.773438 L 41.179688 18.855469 C 41.179688 18.855469 42.105469 18.851562 42.257812 18.855469 L 43.65625 18.855469 C 44.785156 18.851562 45.640625 18.742188 46.207031 17.082031 L 47.023438 14.546875 L 50.5625 14.546875 C 50.960938 14.546875 51.285156 14.574219 51.523438 14.621094 C 51.730469 14.660156 51.785156 14.679688 51.832031 14.730469 C 51.886719 14.777344 51.972656 14.933594 52.085938 15.265625 L 52.085938 15.269531 L 52.109375 15.351562 C 52.109375 15.351562 52.390625 16.140625 52.667969 16.9375 C 52.808594 17.339844 52.953125 17.738281 53.058594 18.042969 C 53.171875 18.359375 53.234375 18.539062 53.257812 18.597656 C 53.316406 18.738281 53.46875 18.839844 53.625 18.839844 C 53.632812 18.839844 53.632812 18.839844 53.636719 18.839844 L 56.683594 18.839844 C 56.84375 18.839844 56.964844 18.769531 57.066406 18.675781 C 57.164062 18.578125 57.238281 18.460938 57.277344 18.328125 L 57.300781 18.246094 L 56.203125 15.394531 L 55.472656 13.625 C 55.9375 13.433594 56.453125 13.113281 56.730469 12.890625 C 57.015625 12.652344 57.265625 12.386719 57.472656 12.089844 C 57.640625 11.847656 57.773438 11.585938 57.871094 11.316406 L 57.878906 11.316406 L 57.917969 11.1875 L 57.929688 11.1875 L 57.972656 10.984375 C 58.023438 10.773438 58.046875 10.566406 58.046875 10.363281 C 58.046875 10.238281 58.039062 10.121094 58.019531 10 "/>
<path style=" stroke:none;fill-rule:nonzero;fill:rgb(21.096802%,32.539368%,67.033386%);fill-opacity:1;" d="M 131.300781 15.167969 L 131.300781 15.152344 C 131.300781 14.613281 131.183594 14.109375 130.945312 13.675781 C 130.710938 13.246094 130.363281 12.886719 129.921875 12.597656 C 129.433594 12.277344 128.851562 12.050781 128.183594 11.902344 C 127.511719 11.753906 126.75 11.683594 125.914062 11.683594 L 122.839844 11.683594 C 122.476562 11.683594 122.179688 11.65625 121.945312 11.609375 C 121.589844 11.535156 121.40625 11.433594 121.28125 11.3125 C 121.230469 11.253906 121.191406 11.191406 121.164062 11.125 C 121.144531 11.078125 121.132812 11.027344 121.125 10.964844 C 121.164062 10.875 121.207031 10.808594 121.257812 10.742188 C 121.316406 10.675781 121.378906 10.621094 121.46875 10.558594 C 121.558594 10.503906 121.667969 10.449219 121.8125 10.402344 C 122.089844 10.3125 122.488281 10.25 123.019531 10.246094 L 131.285156 10.246094 C 131.441406 10.246094 131.585938 10.164062 131.691406 10.050781 C 131.789062 9.9375 131.851562 9.800781 131.871094 9.660156 L 132.375 7.972656 C 132.394531 7.835938 132.375 7.699219 132.308594 7.585938 C 132.238281 7.472656 132.113281 7.386719 131.953125 7.386719 L 123.484375 7.386719 C 122.648438 7.386719 121.871094 7.457031 121.15625 7.605469 C 120.445312 7.753906 119.792969 7.984375 119.21875 8.300781 L 119.207031 8.3125 C 118.691406 8.59375 118.238281 8.953125 117.878906 9.382812 C 117.519531 9.8125 117.253906 10.316406 117.097656 10.855469 L 117.09375 10.871094 C 117.085938 10.902344 117.074219 10.933594 117.070312 10.964844 C 117.066406 10.996094 117.0625 11.027344 117.0625 11.058594 L 117.0625 11.078125 C 117.054688 11.648438 117.167969 12.175781 117.410156 12.625 C 117.777344 13.300781 118.414062 13.789062 119.273438 14.097656 C 120.125 14.40625 121.183594 14.542969 122.417969 14.546875 L 125.503906 14.546875 C 125.871094 14.546875 126.171875 14.574219 126.402344 14.617188 C 126.757812 14.691406 126.949219 14.796875 127.074219 14.917969 C 127.125 14.976562 127.164062 15.035156 127.191406 15.105469 C 127.210938 15.152344 127.21875 15.203125 127.226562 15.261719 C 127.191406 15.355469 127.152344 15.421875 127.097656 15.488281 C 127.039062 15.554688 126.976562 15.613281 126.890625 15.667969 C 126.800781 15.722656 126.683594 15.777344 126.542969 15.824219 C 126.261719 15.917969 125.847656 15.984375 125.292969 15.980469 L 116.058594 15.980469 C 115.898438 15.984375 115.746094 16.066406 115.648438 16.179688 C 115.546875 16.292969 115.484375 16.429688 115.464844 16.566406 L 114.859375 18.257812 C 114.839844 18.394531 114.859375 18.53125 114.929688 18.644531 C 114.996094 18.757812 115.121094 18.84375 115.277344 18.84375 L 124.878906 18.84375 C 125.707031 18.84375 126.46875 18.777344 127.171875 18.648438 C 128.222656 18.449219 129.121094 18.089844 129.828125 17.535156 C 130.183594 17.257812 130.484375 16.9375 130.726562 16.570312 C 130.96875 16.207031 131.152344 15.800781 131.269531 15.371094 L 131.273438 15.355469 C 131.28125 15.324219 131.289062 15.292969 131.292969 15.261719 C 131.296875 15.230469 131.296875 15.199219 131.300781 15.167969 "/>
<path style=" stroke:none;fill-rule:nonzero;fill:rgb(21.096802%,32.539368%,67.033386%);fill-opacity:1;" d="M 131.898438 18 L 131.898438 18 M 131.65625 17.894531 C 131.632812 17.96875 131.628906 18.042969 131.640625 18.113281 C 131.664062 18.246094 131.714844 18.371094 131.804688 18.492188 C 131.9375 18.664062 132.109375 18.816406 132.351562 18.828125 L 132.355469 18.828125 L 135.5 18.808594 C 135.652344 18.816406 135.789062 18.707031 135.828125 18.578125 L 136.539062 16.363281 L 139.117188 8.472656 L 139.476562 7.394531 C 139.476562 7.394531 138.558594 7.398438 138.40625 7.394531 L 137.011719 7.394531 C 135.886719 7.398438 135.03125 7.507812 134.46875 9.160156 L 131.65625 17.894531 "/>
<path style=" stroke:none;fill-rule:nonzero;fill:rgb(21.096802%,32.539368%,67.033386%);fill-opacity:1;" d="M 110.351562 10.890625 C 110.296875 10.992188 110.238281 11.074219 110.160156 11.148438 C 110.085938 11.226562 110 11.292969 109.894531 11.351562 C 109.789062 11.414062 109.660156 11.472656 109.507812 11.519531 C 109.203125 11.613281 108.78125 11.679688 108.238281 11.679688 L 104.367188 11.679688 L 104.832031 10.242188 L 108.84375 10.242188 C 109.199219 10.242188 109.484375 10.273438 109.699219 10.320312 C 110.035156 10.390625 110.1875 10.488281 110.273438 10.589844 C 110.308594 10.632812 110.328125 10.679688 110.34375 10.738281 C 110.347656 10.769531 110.351562 10.804688 110.351562 10.84375 C 110.351562 10.859375 110.351562 10.875 110.351562 10.890625 M 114.414062 9.996094 C 114.367188 9.679688 114.261719 9.386719 114.101562 9.113281 C 113.75 8.507812 113.15625 8.070312 112.382812 7.796875 C 111.601562 7.519531 110.652344 7.394531 109.546875 7.394531 L 104.765625 7.394531 C 104.761719 7.394531 104.753906 7.394531 104.75 7.394531 L 101.789062 7.394531 C 101.75 7.394531 101.71875 7.398438 101.679688 7.40625 L 101.601562 7.410156 C 101.449219 7.40625 101.3125 7.511719 101.273438 7.644531 L 100.5625 9.855469 L 97.984375 17.746094 L 97.625 18.828125 C 97.625 18.828125 98.542969 18.820312 98.699219 18.824219 L 100.089844 18.824219 C 101.21875 18.820312 102.070312 18.710938 102.636719 17.058594 L 103.449219 14.527344 L 106.976562 14.527344 C 107.378906 14.527344 107.699219 14.558594 107.933594 14.605469 C 108.144531 14.648438 108.195312 14.660156 108.246094 14.710938 C 108.300781 14.761719 108.386719 14.914062 108.496094 15.246094 L 108.492188 15.25 L 108.523438 15.332031 C 108.523438 15.332031 108.800781 16.117188 109.078125 16.914062 C 109.21875 17.3125 109.359375 17.714844 109.46875 18.019531 C 109.574219 18.332031 109.640625 18.511719 109.664062 18.566406 C 109.722656 18.707031 109.878906 18.8125 110.03125 18.8125 C 110.035156 18.8125 110.039062 18.8125 110.042969 18.8125 L 113.082031 18.8125 C 113.238281 18.808594 113.359375 18.738281 113.460938 18.648438 C 113.5625 18.550781 113.632812 18.433594 113.671875 18.300781 L 113.699219 18.21875 L 112.605469 15.375 L 111.875 13.609375 C 112.339844 13.421875 112.851562 13.097656 113.125 12.875 C 113.414062 12.640625 113.660156 12.375 113.867188 12.082031 C 114.035156 11.839844 114.171875 11.578125 114.265625 11.308594 L 114.273438 11.308594 L 114.3125 11.183594 L 114.324219 11.183594 L 114.367188 10.976562 C 114.417969 10.765625 114.441406 10.558594 114.441406 10.355469 C 114.441406 10.234375 114.433594 10.113281 114.414062 9.996094 "/>
<path style=" stroke:none;fill-rule:nonzero;fill:rgb(21.096802%,32.539368%,67.033386%);fill-opacity:1;" d="M 169.222656 13.488281 L 165.105469 13.488281 L 168.011719 10.832031 L 169.222656 13.488281 M 175.402344 17.984375 Z M 175.636719 17.878906 L 171.597656 9.128906 C 170.8125 7.472656 169.953125 7.363281 168.839844 7.359375 L 167.464844 7.359375 C 167.3125 7.363281 166.402344 7.359375 166.402344 7.359375 L 166.664062 7.917969 L 155.777344 17.792969 C 155.621094 17.9375 155.527344 18.121094 155.511719 18.332031 C 155.511719 18.339844 155.511719 18.351562 155.511719 18.367188 C 155.511719 18.464844 155.53125 18.570312 155.605469 18.660156 C 155.671875 18.753906 155.792969 18.8125 155.90625 18.8125 C 155.910156 18.8125 155.910156 18.8125 155.914062 18.8125 L 159.058594 18.792969 C 159.203125 18.789062 159.316406 18.726562 159.410156 18.640625 L 161.964844 16.34375 L 170.53125 16.34375 L 171.554688 18.558594 C 171.609375 18.691406 171.765625 18.796875 171.914062 18.792969 L 175.066406 18.8125 L 175.070312 18.8125 C 175.3125 18.796875 175.460938 18.648438 175.570312 18.476562 C 175.640625 18.355469 175.679688 18.230469 175.679688 18.097656 C 175.679688 18.023438 175.667969 17.949219 175.632812 17.878906 L 175.636719 17.878906 "/>
<path style=" stroke:none;fill-rule:nonzero;fill:rgb(21.096802%,32.539368%,67.033386%);fill-opacity:1;" d="M 80.6875 7.589844 C 80.617188 7.476562 80.496094 7.390625 80.335938 7.390625 L 73.40625 7.390625 C 71.480469 7.390625 69.769531 7.605469 68.28125 8.058594 C 66.789062 8.507812 65.53125 9.203125 64.542969 10.140625 C 63.699219 10.941406 63.105469 11.925781 62.796875 13.03125 L 62.792969 13.042969 C 62.785156 13.070312 62.777344 13.101562 62.777344 13.128906 C 62.769531 13.15625 62.769531 13.1875 62.765625 13.214844 L 62.765625 13.234375 C 62.726562 14.335938 63.015625 15.320312 63.617188 16.117188 C 64.316406 17.058594 65.363281 17.75 66.722656 18.203125 C 68.085938 18.65625 69.742188 18.867188 71.679688 18.871094 L 78.488281 18.871094 C 78.648438 18.871094 78.796875 18.785156 78.898438 18.671875 C 79 18.558594 79.058594 18.421875 79.078125 18.285156 L 79.324219 16.589844 C 79.34375 16.449219 79.324219 16.316406 79.257812 16.199219 C 79.1875 16.085938 79.066406 16.003906 78.90625 16.003906 L 72.113281 16.003906 C 70.8125 16.003906 69.773438 15.859375 68.976562 15.59375 C 68.179688 15.328125 67.621094 14.945312 67.246094 14.449219 C 66.972656 14.074219 66.839844 13.660156 66.835938 13.128906 C 67.003906 12.601562 67.261719 12.1875 67.652344 11.808594 C 68.175781 11.316406 68.851562 10.933594 69.726562 10.667969 C 70.601562 10.402344 71.679688 10.257812 72.976562 10.257812 L 79.921875 10.257812 C 80.078125 10.257812 80.226562 10.171875 80.328125 10.058594 C 80.429688 9.945312 80.488281 9.808594 80.507812 9.671875 L 80.542969 9.4375 L 80.753906 7.976562 C 80.773438 7.835938 80.753906 7.703125 80.6875 7.589844 "/>
<path style=" stroke:none;fill-rule:nonzero;fill:rgb(21.096802%,32.539368%,67.033386%);fill-opacity:1;" d="M 94.511719 13.128906 C 94.464844 13.425781 94.382812 13.675781 94.257812 13.90625 C 94.132812 14.136719 93.964844 14.351562 93.742188 14.554688 C 93.296875 14.960938 92.621094 15.324219 91.671875 15.59375 L 91.667969 15.597656 C 90.917969 15.8125 89.996094 15.953125 88.902344 16.003906 C 88.015625 15.964844 87.257812 15.859375 86.628906 15.707031 C 85.984375 15.546875 85.472656 15.332031 85.082031 15.074219 C 84.6875 14.8125 84.4375 14.519531 84.296875 14.210938 C 84.160156 13.890625 84.121094 13.5625 84.1875 13.128906 C 84.234375 12.835938 84.320312 12.585938 84.445312 12.355469 C 84.570312 12.128906 84.738281 11.917969 84.960938 11.714844 C 85.398438 11.316406 86.054688 10.957031 86.976562 10.683594 L 87.015625 10.675781 C 87.785156 10.449219 88.710938 10.304688 89.800781 10.257812 C 90.839844 10.304688 91.710938 10.449219 92.429688 10.675781 C 93.289062 10.953125 93.855469 11.316406 94.175781 11.722656 C 94.335938 11.925781 94.441406 12.136719 94.492188 12.363281 C 94.546875 12.59375 94.554688 12.839844 94.511719 13.128906 M 98.566406 13.128906 L 98.566406 13.113281 C 98.65625 12.523438 98.640625 11.941406 98.507812 11.40625 C 98.375 10.875 98.132812 10.390625 97.785156 9.96875 C 97.09375 9.121094 96.015625 8.5 94.597656 8.054688 L 94.589844 8.050781 L 94.582031 8.050781 C 93.371094 7.675781 91.9375 7.460938 90.289062 7.390625 L 90.195312 7.390625 C 88.507812 7.460938 87 7.675781 85.671875 8.050781 C 84.113281 8.496094 82.839844 9.121094 81.890625 9.96875 C 81.414062 10.394531 81.023438 10.875 80.726562 11.410156 C 80.429688 11.941406 80.230469 12.523438 80.132812 13.125 C 80.132812 13.125 80.132812 13.128906 80.132812 13.128906 L 80.132812 13.136719 C 80.035156 13.738281 80.046875 14.316406 80.171875 14.851562 C 80.296875 15.382812 80.535156 15.867188 80.875 16.289062 C 81.558594 17.140625 82.640625 17.765625 84.0625 18.207031 C 85.28125 18.585938 86.734375 18.800781 88.410156 18.867188 L 88.441406 18.871094 L 88.464844 18.871094 L 88.507812 18.867188 C 90.1875 18.800781 91.699219 18.585938 93.03125 18.207031 C 94.601562 17.765625 95.882812 17.140625 96.832031 16.292969 C 97.308594 15.867188 97.699219 15.386719 97.992188 14.851562 C 98.28125 14.320312 98.472656 13.738281 98.566406 13.136719 L 98.566406 13.140625 L 98.566406 13.128906 "/>
<path style=" stroke:none;fill-rule:nonzero;fill:rgb(21.096802%,32.539368%,67.033386%);fill-opacity:1;" d="M 156.660156 7.585938 C 156.59375 7.46875 156.46875 7.386719 156.3125 7.386719 L 149.382812 7.386719 C 147.457031 7.386719 145.746094 7.601562 144.257812 8.054688 C 142.765625 8.503906 141.507812 9.199219 140.519531 10.136719 C 139.675781 10.9375 139.078125 11.921875 138.773438 13.023438 L 138.769531 13.035156 C 138.761719 13.070312 138.753906 13.097656 138.75 13.125 C 138.742188 13.152344 138.742188 13.179688 138.742188 13.210938 L 138.742188 13.230469 C 138.703125 14.328125 138.992188 15.316406 139.589844 16.113281 C 140.289062 17.054688 141.339844 17.746094 142.699219 18.199219 C 144.058594 18.652344 145.71875 18.863281 147.652344 18.867188 L 153.644531 18.867188 C 153.808594 18.867188 153.945312 18.773438 154.058594 18.667969 C 154.175781 18.558594 156.363281 16.691406 156.390625 16.585938 C 156.421875 16.480469 156.390625 16.3125 156.320312 16.199219 C 156.253906 16.082031 156.128906 16 155.972656 16 L 148.089844 16 C 146.789062 16 145.746094 15.855469 144.953125 15.589844 C 144.15625 15.324219 143.59375 14.941406 143.222656 14.441406 C 142.945312 14.070312 142.8125 13.65625 142.8125 13.125 C 142.980469 12.597656 143.238281 12.179688 143.628906 11.804688 C 144.148438 11.308594 144.828125 10.929688 145.703125 10.660156 C 146.578125 10.398438 147.65625 10.25 148.953125 10.253906 L 155.894531 10.25 C 156.054688 10.25 156.203125 10.167969 156.304688 10.054688 C 156.40625 9.9375 156.464844 9.804688 156.484375 9.667969 L 156.519531 9.433594 L 156.730469 7.972656 C 156.75 7.832031 156.730469 7.699219 156.660156 7.585938 "/>
</g>
</svg>
