<svg xmlns="http://www.w3.org/2000/svg" width="176pt" height="52.147" viewBox="0 0 176 39.11"><defs><clipPath id="a"><path d="M1 26h37v13.11H1Zm0 0"/></clipPath></defs><path d="M58.484 24.898q1.136.82 2.348 1.282c.813.308 1.68.46 2.61.46q1.522-.001 2.347-.605.824-.608.824-1.691c0-.438-.058-.82-.18-1.137a2.4 2.4 0 0 0-.593-.867q-.413-.398-1.082-.754-.675-.352-1.625-.805a20 20 0 0 1-1.95-1.015 6.3 6.3 0 0 1-1.472-1.176 4.6 4.6 0 0 1-.93-1.543q-.321-.885-.32-2.121c0-.864.152-1.633.465-2.313a4.8 4.8 0 0 1 1.3-1.715q.84-.696 2.012-1.066c.785-.25 1.657-.371 2.621-.371.98 0 1.891.121 2.735.371q1.267.37 2.14.95L69.09 14a8 8 0 0 0-1.871-1.11 5.8 5.8 0 0 0-2.281-.449q-1.243.002-2.04.582-.801.581-.8 1.582.002.61.191 1.032c.133.281.32.535.57.765.246.227.563.446.942.645q.567.304 1.316.648a50 50 0 0 1 2.04 1q.954.505 1.652 1.176.695.675 1.109 1.57.41.897.41 2.192.002 2.879-1.883 4.445-1.884 1.57-5.21 1.57-1.63 0-2.93-.433c-.867-.293-1.614-.63-2.23-1.016zM71.836 15.188h3.434v9.417q0 1.085.41 1.676.415.598 1.316.598.801 0 1.332-.504.527-.498.965-1.348v-9.84h3.383v14.145h-3.278v-1.715c-.136.211-.308.434-.503.672q-.302.356-.707.66a3.8 3.8 0 0 1-.946.5c-.351.133-.754.2-1.199.2q-1.135 0-1.938-.344a3.26 3.26 0 0 1-1.3-.989 4.15 4.15 0 0 1-.735-1.558 8 8 0 0 1-.234-2.02zM84.785 15.188h3.278v1.687a4.3 4.3 0 0 1 .492-.672q.308-.356.722-.66.41-.302.942-.5c.355-.133.75-.2 1.199-.2q2.273.001 3.238 1.333c.649.89.969 2.082.969 3.574v9.582h-3.434v-9.45q0-1.078-.41-1.671-.415-.598-1.316-.598-.802 0-1.328.504c-.356.332-.676.781-.969 1.344v9.871h-3.383zM97.863 9.777h10.61l-.13 3.036h-6.866v4.855h5.601v3.035h-5.601v5.594h7.328v3.035H97.863zM109.82 29.332a184 184 0 0 1 2.196-3.773c.34-.563.699-1.137 1.066-1.715q.557-.872 1.074-1.692a46 46 0 0 1-1.097-1.765c-.348-.602-.704-1.188-1.043-1.77a28 28 0 0 1-.98-1.715 65 65 0 0 0-.958-1.715h3.848l.847 1.665q.263.496.594 1.132c.227.422.457.828.7 1.215q.331-.531.746-1.215.414-.687.722-1.214c.156-.247.3-.5.442-.766q.203-.394.437-.817h3.613l-.992 1.715c-.32.543-.648 1.11-.996 1.688q-.492.82-1.02 1.676-.527.86-1.042 1.62.514.85 1.093 1.798.58.948 1.102 1.875c.34.613.687 1.226 1.043 1.847q.526.922 1.07 1.926h-3.847l-1.083-1.98-1.367-2.399-1.367 2.293a42 42 0 0 0-1.187 2.086zM126.898 25.66c.192.305.461.59.817.875.351.281.765.422 1.25.422q1.006-.001 1.742-1.121c.488-.75.734-1.93.734-3.55 0-1.708-.238-2.93-.722-3.669q-.726-1.108-1.832-1.11-.748 0-1.227.4-.474.392-.762.761Zm-3.378-10.472h3.378v1.027a3.9 3.9 0 0 1 1.2-.977q.739-.393 1.718-.394 2.373.002 3.727 1.832c.906 1.222 1.355 3.039 1.355 5.449q.002 3.802-1.355 5.664-1.353 1.858-3.598 1.86c-.449 0-.832-.051-1.164-.157a4.3 4.3 0 0 1-.867-.387 2.7 2.7 0 0 1-.613-.5 4.5 4.5 0 0 1-.403-.515v7.02h-3.378zM136.418 15.188h3.277v2.214c.157-.316.34-.62.559-.91.21-.289.46-.547.742-.765q.433-.33 1.012-.528c.383-.133.824-.195 1.328-.195.344 0 .644.023.902.078l-.308 2.902a2.5 2.5 0 0 0-.375-.078 3 3 0 0 0-.48-.027q-1.11.001-1.907.488-.803.486-1.367 1.676v9.289h-3.383zM151.7 20.438c-.055-2.13-.68-3.192-1.884-3.192q-.88-.001-1.457.766c-.39.508-.617 1.32-.687 2.425Zm3.148 7.917q-.673.58-1.692.938c-.68.238-1.558.355-2.644.355a6.2 6.2 0 0 1-2.559-.527 5.7 5.7 0 0 1-1.984-1.504q-.822-.977-1.274-2.336-.457-1.357-.457-2.996c0-2.355.504-4.187 1.5-5.488.996-1.3 2.36-1.953 4.078-1.953q2.578 0 3.883 1.676t1.305 4.527c0 .316-.012.644-.027.976a6 6 0 0 1-.079.79h-7.25q.025.9.336 1.636.31.743.813 1.281c.332.36.719.641 1.148.844.43.203.883.305 1.368.305 1.304 0 2.41-.434 3.3-1.297zM156.633 25.559a10 10 0 0 0 1.738 1.015q.995.462 2.055.461.333.002.683-.066.344-.062.606-.223.257-.158.426-.433c.113-.188.168-.418.168-.704q0-.79-.621-1.254c-.41-.304-.938-.593-1.57-.855-.49-.21-.946-.445-1.384-.7a5 5 0 0 1-1.144-.898 3.7 3.7 0 0 1-.778-1.215q-.285-.697-.285-1.648c0-.648.141-1.234.414-1.754.274-.52.633-.957 1.082-1.32q.674-.54 1.563-.832a6 6 0 0 1 1.844-.29c.828 0 1.547.09 2.168.266.617.176 1.18.395 1.68.66l-.442 2.72c-.45-.302-.945-.567-1.496-.794a4.6 4.6 0 0 0-1.809-.343c-.414 0-.797.117-1.16.355q-.541.357-.543 1.043.002.344.133.605c.086.176.219.344.41.504q.285.237.746.473.469.24 1.14.527.669.294 1.302.664.628.366 1.109.872c.316.332.574.726.758 1.183q.29.687.289 1.61c0 1.425-.469 2.527-1.395 3.3q-1.39 1.16-3.742 1.16c-.875 0-1.648-.09-2.324-.261a9.4 9.4 0 0 1-1.957-.766zM166.918 25.559q.751.554 1.742 1.015.99.462 2.05.461.337.002.685-.066.346-.062.605-.223.258-.158.43-.433c.11-.188.164-.418.164-.704q-.001-.79-.617-1.254a7.4 7.4 0 0 0-1.575-.855c-.484-.21-.941-.445-1.382-.7a5 5 0 0 1-1.149-.898 3.8 3.8 0 0 1-.773-1.215c-.192-.464-.282-1.015-.282-1.648 0-.648.133-1.234.41-1.754a4.2 4.2 0 0 1 1.083-1.32q.672-.54 1.562-.832a6 6 0 0 1 1.844-.29c.828 0 1.547.09 2.168.266q.93.263 1.68.66l-.442 2.72a8.2 8.2 0 0 0-1.496-.794 4.6 4.6 0 0 0-1.805-.343q-.62-.001-1.164.355-.54.357-.539 1.043 0 .344.13.605.128.264.41.504.285.237.75.473c.308.16.69.336 1.136.527.445.196.883.418 1.305.664q.629.366 1.105.872.48.498.762 1.183.286.687.285 1.61 0 2.139-1.395 3.3c-.925.774-2.175 1.16-3.742 1.16-.875 0-1.648-.09-2.32-.261a9.4 9.4 0 0 1-1.961-.766z" style="stroke:none;fill-rule:nonzero;fill:#27418c;fill-opacity:1"/><g clip-path="url(#a)"><path d="M24.625 26.512c-6.715.492-16.004 1.972-22.68 1.61a19.7 19.7 0 0 0 4.512 5.94A19.64 19.64 0 0 0 19.59 39.11c4.87 0 9.531-1.761 13.12-4.964 1.485-1.32 2.685-2.743 3.638-4.301a17.7 17.7 0 0 0 1.605-3.371c-2.875-.57-7.793-.368-13.328.039" style="stroke:none;fill-rule:nonzero;fill:#27418c;fill-opacity:1"/></g><path d="M8.781 3.336a.43.43 0 0 0-.351.07c-.356.242-.711.508-1.055.781a.44.44 0 0 0-.113.57l3.328 5.766.172.23-.008.013-.23-.172-5.77-3.332a.45.45 0 0 0-.574.11c-.27.343-.532.698-.778 1.058a.44.44 0 0 0-.066.347.46.46 0 0 0 .21.29l9.845 5.68.218.058c.125 0 .25-.051.34-.153.219-.25.457-.492.707-.71.16-.141.2-.376.094-.56L9.07 3.548a.44.44 0 0 0-.289-.211M35.777 8.777a.45.45 0 0 0-.066-.351c-.246-.356-.512-.711-.785-1.055a.437.437 0 0 0-.57-.11L28.59 10.59l-.23.168-.008-.004.171-.234 3.329-5.77a.445.445 0 0 0-.11-.57q-.518-.411-1.058-.782a.42.42 0 0 0-.348-.066.46.46 0 0 0-.29.211l-5.679 9.84-.058.222c0 .125.05.25.152.336q.382.335.71.711c.142.16.376.2.56.094l9.835-5.68a.44.44 0 0 0 .211-.289M28.219 2.11a.47.47 0 0 0-.235-.27c-.394-.184-.8-.36-1.207-.52a.45.45 0 0 0-.55.188l-3.329 5.765-.117.266-.011-.004.035-.285V.59a.443.443 0 0 0-.383-.442A19 19 0 0 0 21.117 0a.45.45 0 0 0-.336.121.43.43 0 0 0-.144.324l.004 11.364.058.222a.45.45 0 0 0 .301.215c.328.066.656.149.969.258a.45.45 0 0 0 .531-.2l5.676-9.84a.45.45 0 0 0 .043-.355M38.996 18.336a.46.46 0 0 0 .117-.34 22 22 0 0 0-.148-1.308.446.446 0 0 0-.442-.38h-6.66l-.285.032v-.012l.262-.113 5.765-3.332a.44.44 0 0 0 .192-.551c-.16-.406-.336-.812-.524-1.203a.45.45 0 0 0-.27-.23.43.43 0 0 0-.35.039l-9.844 5.68-.16.163a.45.45 0 0 0-.04.367c.11.317.2.645.262.97.043.21.227.359.438.359h11.359c.125 0 .242-.051.328-.141M2.113 10.895a.47.47 0 0 0-.273.234c-.184.39-.36.797-.52 1.207a.446.446 0 0 0 .188.55l5.765 3.329.266.113-.008.012-.281-.031H.59c-.223 0-.41.16-.442.382A21 21 0 0 0 0 17.996a.46.46 0 0 0 .117.336c.086.09.203.145.328.145l11.364-.004.222-.059a.46.46 0 0 0 .215-.3c.063-.329.149-.657.258-.97a.445.445 0 0 0-.2-.53l-9.835-5.68a.45.45 0 0 0-.356-.04M18.332.121a.45.45 0 0 0-.34-.117c-.43.035-.87.086-1.305.148a.45.45 0 0 0-.382.442v6.66l.035.281-.012.004-.117-.262-3.328-5.77a.444.444 0 0 0-.555-.187q-.61.241-1.2.524a.42.42 0 0 0-.233.27.43.43 0 0 0 .039.35l5.68 9.845.163.164a.46.46 0 0 0 .368.035q.48-.167.972-.262a.45.45 0 0 0 .36-.437L18.473.449a.44.44 0 0 0-.141-.328" style="stroke:none;fill-rule:nonzero;fill:#27418c;fill-opacity:1"/><path d="M37.871 20.934c-4.101 0-7.242.996-15.387 2.726-11.523 2.445-19.707.426-21.586.184-.277-.035-.46.11-.367.422.203.937.895 2.945 1.418 3.855 6.676.363 15.965-1.117 22.68-1.61 5.535-.406 10.453-.609 13.328-.038a22.5 22.5 0 0 0 1.035-4.215c.13-.863.028-1.324-1.12-1.324" style="stroke:none;fill-rule:nonzero;fill:#ee4b23;fill-opacity:1"/><path d="M.406 22.332c.383.152 5.711 1.965 13.98 2.082 2.348.035 5.344-.312 7.134-.703a33 33 0 0 1-5.415.437C11.34 24.133 4.113 22.461.684 20.934a.43.43 0 0 0-.438.05.44.44 0 0 0-.18.399c.016.222.04.441.063.66.02.11.055.2.277.289" style="stroke:none;fill-rule:nonzero;fill:#ee4b23;fill-opacity:1"/></svg>