<svg xmlns="http://www.w3.org/2000/svg" width="184.187" height="59pt" viewBox="0 0 138.14 59"><defs><clipPath id="a"><path d="M116 6h22.14v30H116Zm0 0"/></clipPath></defs><g clip-path="url(#a)"><path d="M138.145 26.73v.075c0 5.277-3.887 8.55-10.141 8.55-3.723 0-7.43-1.175-10.41-3.328-.688-.488-1.102-1.336-1.102-2.222 0-1.535 1.211-2.73 2.766-2.73.633 0 1.172.183 1.699.542 2.313 1.7 4.66 2.531 7.191 2.531 2.586 0 4.122-1.011 4.122-2.73v-.07c0-1.72-1.23-2.496-5.692-3.633-5.187-1.32-9.164-2.785-9.164-8.422v-.074c0-4.899 3.977-8.297 9.668-8.297 3.273 0 6.219.832 8.805 2.46a2.7 2.7 0 0 1 1.3 2.348c0 1.536-1.21 2.73-2.765 2.73-.543 0-.996-.128-1.5-.433-2.152-1.265-4.086-1.879-5.91-1.879-2.242 0-3.688.993-3.688 2.528v.074c0 1.934 1.301 2.531 6.09 3.758 5.223 1.32 8.73 3.254 8.73 8.222" style="stroke:none;fill-rule:nonzero;fill:#3eb5a8;fill-opacity:1"/></g><path d="M70.457 6.941c-7.43.02-13.035 6.164-13.035 14.262v11.113a2.966 2.966 0 0 0 5.93 0V21.203c0-4.883 2.93-8.316 7.105-8.316 4.191.02 7.121 3.433 7.121 8.316v11.113a2.95 2.95 0 0 0 2.961 2.965 2.966 2.966 0 0 0 2.965-2.965V21.203c0-8.117-5.602-14.242-13.047-14.262M55.309 7.066a2.974 2.974 0 0 0-3.977 1.34l-7.754 15.707-7.773-15.707a2.974 2.974 0 0 0-3.977-1.34c-1.465.723-2.078 2.512-1.336 3.977l9.778 19.773-4.157 8.422a2.97 2.97 0 0 0 1.356 3.98c.414.196.867.305 1.3.305a2.96 2.96 0 0 0 2.657-1.664l15.219-30.816a2.98 2.98 0 0 0-1.336-3.977M10.684 13.504a2.96 2.96 0 0 0-2.965 2.96 2.956 2.956 0 0 0 2.965 2.966 2.97 2.97 0 0 0 2.964-2.965c0-1.645-1.34-2.961-2.964-2.961" style="stroke:none;fill-rule:nonzero;fill:#3eb5a8;fill-opacity:1"/><path d="M15.148.09c-.238 0-.488-.016-.726-.035-.414-.02-.883-.055-1.39-.055C5.221 0 .413 4.863.02 13.066c-.02.13-.02.274-.02.399V32.21c0 1.644 1.32 2.96 2.965 2.96a2.95 2.95 0 0 0 2.965-2.96V14.207c0-7.41 4.066-8.262 7.101-8.262.324 0 .668.02 1.051.04.305.015.594.035.902.05 1.645.055 3-1.246 3.055-2.87A2.99 2.99 0 0 0 15.15.09M23.914.164A2.953 2.953 0 0 0 20.95 3.13V32.21c0 1.644 1.32 2.96 2.965 2.96a2.95 2.95 0 0 0 2.965-2.96V3.129A2.98 2.98 0 0 0 23.914.164M100.008 6.941c-7.719.02-13.555 6.02-13.703 13.973v.41400000000000003c.148 7.988 5.984 13.973 13.703 13.973 1.176 0 2.222-.09 2.726-.2 1.61-.308 2.676-1.863 2.371-3.468a2.955 2.955 0 0 0-3.453-2.352c-.129.02-.742.09-1.644.09-4.555 0-7.754-3.379-7.79-8.242.036-4.844 3.235-8.223 7.77-8.242 4.59.02 7.79 3.433 7.79 8.316v11.113a2.956 2.956 0 0 0 2.964 2.965 2.956 2.956 0 0 0 2.965-2.965V21.203c.035-8.117-5.855-14.242-13.7-14.262M108.016 47.555a.937.937 0 0 0-.942-.942.937.937 0 0 0-.941.942v8.457h-3.613c-.887 0-3.579 0-3.579-4.102v-4.355a.937.937 0 0 0-.941-.942.937.937 0 0 0-.941.942v4.355c0 3.813 1.988 5.985 5.46 5.985h4.575a.933.933 0 0 0 .922-.942v-9.398M111.465 53.934V43.219a.93.93 0 0 0-.938-.942.934.934 0 0 0-.941.942v10.715c0 .523.418.96.941.96a.963.963 0 0 0 .938-.96M102.883 44.047a.94.94 0 0 0 .668-.27c.18-.18.27-.418.27-.668a.926.926 0 0 0-.938-.941.93.93 0 0 0-.942.941c0 .25.11.489.27.668.164.18.418.27.672.27M91.855 46.613a.937.937 0 0 0-.94.942v5.402h-3.38c-.887 0-3.597 0-3.597-4.102V43.18a.93.93 0 0 0-.938-.938.93.93 0 0 0-.941.938v5.675c0 3.813 1.988 5.985 5.476 5.985h4.301a.937.937 0 0 0 .941-.942v-6.363c.02-.504-.398-.922-.922-.922M91.8 44.047a.926.926 0 0 0 .942-.938 1 1 0 0 0-.273-.668.91.91 0 0 0-.668-.273.91.91 0 0 0-.668.273.93.93 0 0 0-.274.668c0 .25.11.489.274.668.18.18.414.27.668.27M79.184 46.613a.934.934 0 0 0-.938.942v3.18c0 .09-.02 2.242-1.7 2.242h-2.855l.106-.254a5 5 0 0 0 .418-1.989v-3.18a.937.937 0 0 0-.942-.94.934.934 0 0 0-.937.94v3.18c0 .09-.02 2.243-1.7 2.243H68.34v-5.442a.93.93 0 0 0-.938-.937.93.93 0 0 0-.941.937v8.461h-3.543c-.887 0-3.598 0-3.598-4.101v-4.36a.93.93 0 0 0-.937-.937.93.93 0 0 0-.942.937v4.36c0 3.812 1.989 5.98 5.477 5.98h4.465a.934.934 0 0 0 .941-.941v-2.079h8.458c2.44-.16 3.323-2.546 3.323-4.12v-3.18a.92.92 0 0 0-.921-.942M120.035 56.45c-.254 0-.488.105-.672.269a.95.95 0 0 0-.289.668c0 .234.11.488.29.668a.93.93 0 0 0 .671.273c.235 0 .485-.11.668-.273.18-.18.27-.414.27-.668a.93.93 0 0 0-.27-.668 1 1 0 0 0-.668-.27M117.285 56.45c-.234 0-.488.105-.668.269a.93.93 0 0 0-.27.668c0 .234.106.488.27.668.18.164.414.273.668.273.235 0 .488-.11.668-.273a.91.91 0 0 0 .274-.668.91.91 0 0 0-.274-.668 1 1 0 0 0-.668-.27" style="stroke:none;fill-rule:nonzero;fill:#3eb5a8;fill-opacity:1"/><path d="M132.27 45.008c-2.153-.074-4.137.578-5.547 1.824l-.075.07c-.125.11-.27.239-.398.364l-.305.289v-4.32a.937.937 0 0 0-.941-.942.937.937 0 0 0-.942.941v7.719c0 .254.11.488.293.668a.93.93 0 0 0 .668.274c.25 0 .489-.11.668-.274.09-.11.18-.234.215-.398l.055-.2c.11-.343.184-.488.309-.722.18-.344.433-.703.777-1.121.219-.29.543-.559.848-.832l.074-.07c1.047-.923 2.566-1.41 4.23-1.356 2.746.11 3.29 1.21 3.29 2.984v3.106h-15.563l.11-.25c.269-.633.413-1.34.413-1.989V47.52a.93.93 0 0 0-.941-.942.93.93 0 0 0-.938.942v3.214c0 .09-.02 2.243-1.699 2.243h-1.918V47.52a.93.93 0 0 0-.937-.942.944.944 0 0 0-.942.942v6.503c0 1.754-1.465 2.91-2.133 3.164a.936.936 0 0 0-.543 1.211.96.96 0 0 0 1.211.543c1.266-.468 2.82-1.918 3.239-3.921l.035-.145h21.562a.95.95 0 0 0 .942-.957v-4.05c.015-3.11-1.7-4.735-5.117-4.86" style="stroke:none;fill-rule:nonzero;fill:#3eb5a8;fill-opacity:1"/></svg>