<?xml version="1.0" encoding="UTF-8"?>
<svg xmlns="http://www.w3.org/2000/svg" xmlns:xlink="http://www.w3.org/1999/xlink" width="176pt" height="59pt" viewBox="0 0 176 59" version="1.1">
<g id="surface1">
<path style=" stroke:none;fill-rule:nonzero;fill:rgb(92.967224%,11.306763%,14.064026%);fill-opacity:1;" d="M 44.835938 0.0273438 C 44.792969 0.90625 44.75 1.785156 44.707031 2.664062 C 44.699219 2.824219 44.691406 2.984375 44.6875 3.144531 C 44.644531 4.285156 44.515625 5.414062 44.335938 6.542969 C 44.171875 7.585938 44.015625 8.632812 43.839844 9.671875 C 43.507812 11.640625 43.042969 13.578125 42.503906 15.5 C 41.546875 18.875 40.316406 22.140625 38.65625 25.234375 C 37.574219 27.253906 36.332031 29.164062 34.871094 30.933594 C 32.65625 33.609375 30 35.738281 26.984375 37.4375 C 24.707031 38.714844 22.300781 39.679688 19.8125 40.441406 C 18 40.992188 16.171875 41.484375 14.355469 42.015625 C 12.363281 42.597656 10.394531 43.253906 8.476562 44.058594 C 6.832031 44.75 5.246094 45.550781 3.796875 46.605469 C 3.683594 46.691406 3.578125 46.785156 3.476562 46.878906 C 3.457031 46.898438 3.464844 46.949219 3.449219 47.03125 C 4.167969 46.941406 4.871094 46.84375 5.578125 46.765625 C 6.09375 46.710938 6.613281 46.648438 7.132812 46.632812 C 8.917969 46.578125 10.703125 46.40625 12.488281 46.523438 C 13.640625 46.597656 14.796875 46.65625 15.949219 46.832031 C 17.4375 47.054688 18.890625 47.371094 20.28125 47.945312 C 21.929688 48.621094 23.347656 49.59375 24.308594 51.140625 C 25.464844 53.003906 25.3125 55.367188 23.710938 57 C 22.894531 57.832031 21.878906 58.347656 20.757812 58.644531 C 19.804688 58.894531 18.832031 59.039062 17.847656 58.992188 C 16.730469 58.9375 15.613281 58.8125 14.566406 58.390625 C 13.546875 57.980469 12.640625 57.394531 12.035156 56.441406 C 11.257812 55.214844 11.453125 53.914062 12.378906 52.917969 C 13.148438 52.09375 14.125 51.738281 15.222656 51.679688 C 15.917969 51.640625 16.621094 51.632812 17.28125 51.96875 C 16.789062 52.023438 16.296875 52.046875 15.824219 52.152344 C 15.523438 52.21875 15.21875 52.363281 14.964844 52.542969 C 14.332031 52.992188 14.109375 54.101562 14.875 54.738281 C 15.238281 55.039062 15.640625 55.25 16.101562 55.339844 C 17.03125 55.519531 17.933594 55.484375 18.757812 54.941406 C 19.738281 54.292969 20.03125 53.121094 19.457031 52.097656 C 19.136719 51.527344 18.679688 51.078125 18.15625 50.695312 C 16.957031 49.824219 15.605469 49.28125 14.191406 48.894531 C 12.882812 48.53125 11.546875 48.300781 10.199219 48.140625 C 8.765625 47.972656 7.332031 47.863281 5.894531 47.773438 C 4.046875 47.65625 2.203125 47.703125 0.355469 47.691406 C 0.238281 47.6875 0.121094 47.679688 0 47.613281 C 1.070312 47.421875 2.140625 47.234375 3.25 47.039062 C 3.472656 46.625 3.703125 46.183594 3.9375 45.746094 C 4.9375 43.894531 6.351562 42.410156 8.039062 41.171875 C 9.910156 39.804688 11.949219 38.746094 14.054688 37.8125 C 15.460938 37.191406 16.882812 36.601562 18.300781 36.015625 C 22 34.476562 25.5 32.597656 28.65625 30.113281 C 30.28125 28.835938 31.824219 27.457031 33.222656 25.929688 C 35.019531 23.96875 36.542969 21.8125 37.859375 19.507812 C 39.632812 16.410156 41.054688 13.148438 42.222656 9.78125 C 42.941406 7.707031 43.472656 5.578125 43.976562 3.441406 C 44.246094 2.296875 44.484375 1.148438 44.738281 0 C 44.769531 0.0078125 44.800781 0.0195312 44.835938 0.0273438 "/>
<path style=" stroke:none;fill-rule:nonzero;fill:rgb(92.967224%,11.306763%,14.064026%);fill-opacity:1;" d="M 20.253906 42.925781 C 21.265625 42.507812 22.289062 42.113281 23.292969 41.667969 C 26.265625 40.34375 29.089844 38.753906 31.621094 36.691406 C 33.761719 34.949219 35.597656 32.910156 37.222656 30.675781 C 38.476562 28.957031 39.628906 27.179688 40.539062 25.25 C 41.390625 23.441406 42.105469 21.578125 42.660156 19.65625 C 43.097656 18.144531 43.539062 16.632812 43.90625 15.101562 C 44.226562 13.765625 44.445312 12.40625 44.710938 11.054688 C 44.765625 10.785156 44.816406 10.511719 44.898438 10.238281 C 44.90625 11.25 44.980469 12.261719 44.847656 13.269531 C 44.832031 13.390625 44.816406 13.511719 44.8125 13.628906 C 44.78125 14.890625 44.617188 16.136719 44.457031 17.386719 C 44.308594 18.578125 44.105469 19.753906 43.867188 20.925781 C 43.558594 22.476562 43.113281 23.984375 42.617188 25.480469 C 41.925781 27.566406 41.152344 29.621094 40.128906 31.574219 C 39.242188 33.265625 38.195312 34.847656 36.902344 36.265625 C 34.417969 39.003906 31.414062 40.886719 27.859375 41.914062 C 26.6875 42.25 25.5 42.5 24.300781 42.707031 C 23.671875 42.8125 23.027344 42.832031 22.390625 42.878906 C 21.691406 42.929688 20.996094 42.96875 20.296875 43.015625 C 20.28125 42.984375 20.269531 42.957031 20.253906 42.925781 "/>
<path style=" stroke:none;fill-rule:nonzero;fill:rgb(92.967224%,11.306763%,14.064026%);fill-opacity:1;" d="M 30.566406 42.859375 C 31.449219 42.390625 32.25 41.984375 33.03125 41.539062 C 34.464844 40.726562 35.78125 39.753906 36.988281 38.621094 C 38.625 37.085938 39.957031 35.320312 41.03125 33.351562 C 42.339844 30.953125 43.203125 28.386719 43.863281 25.746094 C 44.261719 24.15625 44.527344 22.542969 44.8125 20.933594 C 44.875 20.59375 44.914062 20.246094 45.027344 19.90625 C 45.027344 21.410156 45.074219 22.917969 45.011719 24.417969 C 44.964844 25.59375 44.839844 26.773438 44.65625 27.9375 C 44.265625 30.425781 43.621094 32.847656 42.535156 35.140625 C 41.828125 36.636719 40.992188 38.042969 39.8125 39.214844 C 38.074219 40.9375 35.988281 42.011719 33.59375 42.507812 C 32.632812 42.707031 31.667969 42.839844 30.566406 42.859375 "/>
<path style=" stroke:none;fill-rule:nonzero;fill:rgb(92.967224%,11.306763%,14.064026%);fill-opacity:1;" d="M 112.652344 15.347656 C 113.28125 15.347656 113.839844 15.347656 114.433594 15.347656 C 115.238281 16.679688 116.046875 18.015625 116.9375 19.484375 C 117.421875 18.042969 117.667969 16.671875 118.121094 15.351562 C 118.738281 15.351562 119.316406 15.351562 119.898438 15.351562 C 119.929688 15.929688 118.707031 20.742188 117.996094 22.835938 C 117.511719 22.835938 117.011719 22.835938 116.433594 22.835938 C 116.015625 22.179688 115.570312 21.488281 115.136719 20.789062 C 114.714844 20.113281 114.304688 19.429688 113.835938 18.660156 C 113.410156 19.367188 113.363281 20.105469 113.15625 20.785156 C 112.949219 21.464844 112.773438 22.15625 112.585938 22.832031 C 111.921875 22.832031 111.316406 22.832031 110.644531 22.832031 C 111.324219 20.296875 111.988281 17.824219 112.652344 15.347656 "/>
<path style=" stroke:none;fill-rule:nonzero;fill:rgb(92.967224%,11.306763%,14.064026%);fill-opacity:1;" d="M 108.601562 17.890625 C 108.84375 17.042969 109.078125 16.207031 109.320312 15.359375 C 110.089844 15.359375 110.824219 15.359375 111.621094 15.359375 C 110.945312 17.878906 110.285156 20.351562 109.617188 22.832031 C 108.828125 22.832031 108.09375 22.832031 107.332031 22.832031 C 107.605469 21.714844 107.867188 20.636719 108.121094 19.5625 C 108.132812 19.523438 108.085938 19.472656 108.046875 19.390625 C 107.109375 19.390625 106.152344 19.390625 105.105469 19.390625 C 104.800781 20.496094 104.488281 21.636719 104.160156 22.824219 C 103.441406 22.824219 102.707031 22.824219 101.894531 22.824219 C 102.558594 20.355469 103.21875 17.890625 103.886719 15.378906 C 104.640625 15.378906 105.371094 15.378906 106.15625 15.378906 C 105.9375 16.214844 105.726562 17.023438 105.503906 17.890625 C 106.539062 17.890625 107.515625 17.890625 108.601562 17.890625 "/>
<path style=" stroke:none;fill-rule:nonzero;fill:rgb(92.967224%,11.306763%,14.064026%);fill-opacity:1;" d="M 102.078125 30.117188 C 102.679688 30.117188 103.105469 30.140625 103.527344 30.113281 C 104.457031 30.054688 105.160156 29.277344 105.082031 28.425781 C 105.054688 28.132812 104.933594 27.921875 104.632812 27.839844 C 103.980469 27.667969 103.335938 27.675781 102.6875 27.8125 C 102.484375 28.589844 102.296875 29.296875 102.078125 30.117188 Z M 101.148438 26.585938 C 101.65625 26.585938 102.160156 26.585938 102.664062 26.585938 C 103.492188 26.585938 104.320312 26.574219 105.152344 26.59375 C 105.4375 26.597656 105.734375 26.648438 106.007812 26.738281 C 107.019531 27.082031 107.289062 27.910156 107.082031 28.695312 C 106.820312 29.679688 106.296875 30.5 105.308594 30.925781 C 105.164062 30.988281 105.03125 31.082031 104.84375 31.1875 C 105.1875 32.351562 105.53125 33.511719 105.894531 34.738281 C 105.144531 34.738281 104.464844 34.738281 103.738281 34.738281 C 103.441406 33.609375 103.144531 32.488281 102.84375 31.34375 C 102.472656 31.34375 102.144531 31.34375 101.757812 31.34375 C 101.449219 32.464844 101.140625 33.585938 100.816406 34.742188 C 100.210938 34.742188 99.613281 34.742188 98.964844 34.742188 C 99.695312 32.011719 100.414062 29.328125 101.148438 26.585938 "/>
<path style=" stroke:none;fill-rule:nonzero;fill:rgb(92.967224%,11.306763%,14.064026%);fill-opacity:1;" d="M 134.175781 31.230469 C 133.988281 31.933594 133.828125 32.542969 133.660156 33.179688 C 134.265625 33.425781 134.859375 33.28125 135.433594 33.308594 C 135.988281 33.332031 136.542969 33.3125 137.175781 33.3125 C 137.035156 33.839844 136.917969 34.289062 136.792969 34.757812 C 135 34.757812 133.242188 34.757812 131.488281 34.757812 C 131.464844 34.15625 132.785156 28.996094 133.628906 26.390625 C 134.210938 26.261719 138.277344 26.242188 139.054688 26.371094 C 138.929688 26.828125 138.808594 27.285156 138.660156 27.824219 C 138.089844 27.832031 137.511719 27.84375 136.933594 27.847656 C 136.347656 27.851562 135.761719 27.847656 135.101562 27.847656 C 134.933594 28.433594 134.769531 29.003906 134.578125 29.667969 C 135.699219 29.667969 136.734375 29.667969 137.871094 29.667969 C 137.730469 30.238281 137.609375 30.714844 137.480469 31.230469 C 136.371094 31.230469 135.308594 31.230469 134.175781 31.230469 "/>
<path style=" stroke:none;fill-rule:nonzero;fill:rgb(92.967224%,11.306763%,14.064026%);fill-opacity:1;" d="M 73.5625 32.4375 C 73.550781 33.429688 74.066406 33.925781 74.871094 33.804688 C 75.121094 33.765625 75.378906 33.648438 75.59375 33.5 C 76.386719 32.957031 76.644531 32.101562 76.722656 31.21875 C 76.789062 30.460938 76.269531 30.015625 75.503906 30.105469 C 75.203125 30.140625 74.875 30.265625 74.636719 30.449219 C 73.933594 30.980469 73.664062 31.753906 73.5625 32.4375 Z M 77.179688 29.617188 C 77.28125 29.464844 77.363281 29.332031 77.457031 29.195312 C 77.964844 29.195312 78.464844 29.195312 79.023438 29.195312 C 78.707031 30.363281 78.402344 31.480469 78.097656 32.601562 C 77.921875 33.265625 77.722656 33.929688 77.578125 34.601562 C 77.289062 35.960938 76.433594 36.792969 75.164062 37.234375 C 74.265625 37.550781 73.339844 37.605469 72.421875 37.316406 C 71.589844 37.054688 71.316406 36.609375 71.371094 35.652344 C 71.863281 35.652344 72.363281 35.652344 72.921875 35.652344 C 72.972656 35.746094 73.035156 35.890625 73.125 36.011719 C 73.4375 36.433594 74.128906 36.554688 74.730469 36.285156 C 75.492188 35.945312 75.804688 35.320312 75.839844 34.421875 C 75.539062 34.519531 75.304688 34.609375 75.0625 34.671875 C 74.351562 34.859375 73.632812 34.882812 72.945312 34.585938 C 72.347656 34.324219 71.992188 33.882812 71.945312 33.175781 C 71.820312 31.371094 73.070312 29.589844 74.519531 29.15625 C 75.472656 28.871094 76.410156 28.785156 77.179688 29.617188 "/>
<path style=" stroke:none;fill-rule:nonzero;fill:rgb(92.967224%,11.306763%,14.064026%);fill-opacity:1;" d="M 107.601562 43.800781 C 107.585938 44.335938 107.363281 44.648438 106.960938 44.894531 C 106.078125 45.445312 105.230469 46.046875 104.34375 46.589844 C 103.90625 46.863281 103.722656 47.214844 103.769531 47.765625 C 104.402344 47.882812 105.039062 47.808594 105.667969 47.824219 C 106.304688 47.835938 106.941406 47.824219 107.679688 47.824219 C 107.582031 48.238281 107.507812 48.554688 107.429688 48.890625 C 106.050781 48.890625 104.742188 48.890625 103.390625 48.890625 C 103.191406 49.59375 102.992188 50.273438 102.800781 50.957031 C 102.765625 51.082031 102.738281 51.214844 102.707031 51.34375 C 102.371094 52.671875 101.734375 53.203125 100.367188 53.082031 C 100.046875 53.054688 99.726562 53.078125 99.386719 53.078125 C 99.203125 52.804688 99.308594 52.511719 99.277344 52.148438 C 99.640625 52.144531 99.976562 52.140625 100.316406 52.132812 C 100.902344 52.113281 101.140625 51.953125 101.335938 51.417969 C 101.40625 51.21875 101.460938 51.011719 101.511719 50.808594 C 101.667969 50.199219 101.816406 49.589844 101.984375 48.910156 C 100.496094 48.910156 99.0625 48.910156 97.558594 48.910156 C 97.664062 48.519531 97.753906 48.203125 97.847656 47.847656 C 99.316406 47.847656 100.753906 47.847656 102.136719 47.847656 C 102.234375 47.765625 102.304688 47.734375 102.308594 47.695312 C 102.382812 46.75 103.078125 46.308594 103.785156 45.875 C 104.324219 45.539062 104.847656 45.183594 105.34375 44.695312 C 104.414062 44.695312 103.484375 44.699219 102.554688 44.691406 C 101.65625 44.683594 100.753906 44.730469 99.808594 44.660156 C 99.882812 44.332031 99.9375 44.082031 100 43.800781 C 102.523438 43.800781 105.027344 43.800781 107.601562 43.800781 "/>
<path style=" stroke:none;fill-rule:nonzero;fill:rgb(92.967224%,11.306763%,14.064026%);fill-opacity:1;" d="M 92.28125 46.964844 C 93.558594 46.964844 94.671875 46.964844 95.871094 46.964844 C 95.808594 47.203125 95.773438 47.367188 95.722656 47.527344 C 95.304688 48.789062 94.882812 50.050781 94.457031 51.308594 C 94.355469 51.609375 94.230469 51.902344 94.109375 52.199219 C 93.867188 52.78125 93.394531 53.039062 92.789062 53.074219 C 92.417969 53.09375 92.046875 53.074219 91.621094 53.074219 C 91.621094 52.773438 91.621094 52.5 91.621094 52.160156 C 91.855469 52.160156 92.066406 52.140625 92.269531 52.167969 C 92.835938 52.234375 93.109375 51.894531 93.277344 51.4375 C 93.582031 50.617188 93.863281 49.785156 94.148438 48.957031 C 94.25 48.65625 94.335938 48.347656 94.445312 47.988281 C 94.257812 47.957031 94.089844 47.925781 93.867188 47.886719 C 92.738281 49.910156 91.382812 51.734375 89.480469 53.167969 C 89.304688 52.941406 89.164062 52.757812 88.980469 52.515625 C 90.515625 51.242188 91.816406 49.796875 92.78125 47.945312 C 92.449219 47.933594 92.21875 47.921875 92.011719 47.914062 C 91.054688 49.34375 89.957031 50.570312 88.582031 51.625 C 88.433594 51.390625 88.300781 51.175781 88.152344 50.9375 C 89.160156 50.015625 90.222656 49.195312 90.886719 47.980469 C 90.640625 47.921875 90.417969 47.867188 90.164062 47.808594 C 90.164062 47.542969 90.164062 47.3125 90.164062 47.058594 C 91.519531 46.355469 92.871094 45.640625 94.121094 44.703125 C 93.566406 44.566406 93.019531 44.605469 92.476562 44.597656 C 91.945312 44.59375 91.410156 44.597656 90.804688 44.597656 C 90.867188 44.308594 90.917969 44.070312 90.976562 43.800781 C 92.761719 43.800781 94.515625 43.800781 96.269531 43.800781 C 96.289062 44.332031 96 44.636719 95.59375 44.882812 C 94.683594 45.441406 93.78125 46.007812 92.875 46.570312 C 92.722656 46.667969 92.574219 46.769531 92.28125 46.964844 "/>
<path style=" stroke:none;fill-rule:nonzero;fill:rgb(92.967224%,11.306763%,14.064026%);fill-opacity:1;" d="M 149.214844 30.089844 C 149.144531 30.109375 148.925781 30.132812 148.742188 30.21875 C 147.90625 30.621094 147.1875 31.972656 147.300781 32.898438 C 147.398438 33.714844 148.09375 34.128906 148.871094 33.839844 C 149.839844 33.472656 150.65625 32.09375 150.515625 31.058594 C 150.425781 30.429688 150.019531 30.085938 149.214844 30.089844 Z M 145.949219 37.320312 C 145.390625 37.320312 144.863281 37.320312 144.289062 37.320312 C 145.019531 34.59375 145.738281 31.910156 146.464844 29.191406 C 146.992188 29.191406 147.492188 29.191406 148.023438 29.191406 C 148.054688 29.296875 148.089844 29.417969 148.132812 29.546875 C 148.171875 29.546875 148.226562 29.566406 148.253906 29.546875 C 149.035156 28.949219 149.9375 28.902344 150.851562 29.015625 C 151.488281 29.09375 151.886719 29.523438 152.09375 30.125 C 152.285156 30.671875 152.246094 31.222656 152.101562 31.773438 C 151.710938 33.257812 150.90625 34.402344 149.363281 34.828125 C 148.535156 35.058594 147.675781 35.105469 146.875 34.507812 C 146.375 35.382812 146.398438 36.4375 145.949219 37.320312 "/>
<path style=" stroke:none;fill-rule:nonzero;fill:rgb(92.967224%,11.306763%,14.064026%);fill-opacity:1;" d="M 128.890625 45.710938 C 128.507812 46.65625 128.179688 48.144531 128.242188 48.664062 C 128.679688 48.664062 129.113281 48.664062 129.523438 48.664062 C 130.027344 47.488281 130.300781 46.296875 130.195312 45.710938 C 129.78125 45.710938 129.359375 45.710938 128.890625 45.710938 Z M 126.703125 49.527344 C 125.929688 49.527344 125.324219 49.527344 124.636719 49.527344 C 124.714844 49.230469 124.773438 49.011719 124.847656 48.730469 C 125.550781 48.730469 126.238281 48.730469 126.960938 48.730469 C 127.355469 47.742188 127.5625 46.765625 127.824219 45.707031 C 127.308594 45.691406 126.820312 45.675781 126.285156 45.660156 C 126.367188 45.382812 126.433594 45.164062 126.511719 44.898438 C 127 44.898438 127.476562 44.898438 128.019531 44.898438 C 128.09375 44.652344 128.152344 44.433594 128.222656 44.214844 C 128.289062 44.015625 128.367188 43.820312 128.449219 43.605469 C 128.746094 43.605469 129.035156 43.605469 129.382812 43.605469 C 129.300781 44 129.222656 44.371094 129.136719 44.777344 C 129.519531 44.984375 129.925781 44.867188 130.304688 44.890625 C 130.699219 44.910156 131.09375 44.894531 131.582031 44.894531 C 131.246094 46.167969 130.9375 47.359375 130.609375 48.601562 C 130.808594 48.644531 130.976562 48.675781 131.1875 48.71875 C 131.316406 48.976562 131.132812 49.21875 130.984375 49.511719 C 130.359375 49.511719 129.722656 49.511719 129.097656 49.511719 C 128.785156 50.566406 129.089844 51.257812 130.398438 52.503906 C 130.117188 52.738281 129.84375 52.976562 129.570312 53.207031 C 128.265625 52.371094 127.984375 51.082031 127.851562 49.449219 C 126.9375 51.199219 125.578125 52.34375 123.929688 53.203125 C 123.8125 52.976562 123.699219 52.765625 123.597656 52.550781 C 123.574219 52.507812 123.582031 52.449219 123.578125 52.378906 C 124.78125 51.707031 125.929688 50.953125 126.703125 49.527344 "/>
<path style=" stroke:none;fill-rule:nonzero;fill:rgb(92.967224%,11.306763%,14.064026%);fill-opacity:1;" d="M 58.867188 26.453125 C 59.480469 26.453125 60.066406 26.453125 60.746094 26.453125 C 60.414062 26.886719 60.140625 27.265625 59.847656 27.628906 C 58.894531 28.816406 57.945312 30.003906 56.984375 31.179688 C 56.59375 31.660156 56.269531 32.152344 56.152344 32.785156 C 56.03125 33.433594 55.804688 34.0625 55.613281 34.738281 C 55.027344 34.738281 54.453125 34.738281 53.820312 34.738281 C 53.84375 34.539062 53.847656 34.359375 53.890625 34.191406 C 53.96875 33.855469 54.042969 33.511719 54.171875 33.195312 C 54.523438 32.335938 54.441406 31.507812 54.15625 30.644531 C 53.761719 29.4375 53.433594 28.203125 53.085938 26.980469 C 53.042969 26.832031 53.039062 26.671875 53.015625 26.472656 C 53.679688 26.472656 54.316406 26.472656 55.015625 26.472656 C 55.351562 26.9375 55.332031 27.578125 55.527344 28.144531 C 55.726562 28.710938 55.84375 29.300781 56.03125 30.019531 C 57.023438 28.773438 57.925781 27.636719 58.867188 26.453125 "/>
<path style=" stroke:none;fill-rule:nonzero;fill:rgb(92.967224%,11.306763%,14.064026%);fill-opacity:1;" d="M 119.199219 31.242188 C 120.050781 31.253906 120.8125 31.304688 121.566406 31.234375 C 121.675781 30.214844 121.121094 29.761719 120.25 30.101562 C 119.75 30.292969 119.417969 30.65625 119.199219 31.242188 Z M 123.101562 32.339844 C 121.71875 32.339844 120.332031 32.339844 118.96875 32.339844 C 118.691406 32.921875 118.703125 33.289062 119.023438 33.597656 C 119.40625 33.964844 119.875 33.898438 120.300781 33.738281 C 120.59375 33.632812 120.832031 33.398438 121.101562 33.214844 C 121.617188 33.214844 122.144531 33.214844 122.75 33.214844 C 122.121094 34.308594 121.230469 34.910156 120.058594 35.0625 C 119.5625 35.128906 119.019531 35.164062 118.542969 35.035156 C 117.21875 34.683594 116.773438 33.636719 117 32.445312 C 117.355469 30.601562 118.433594 29.398438 120.289062 28.9375 C 121.046875 28.753906 121.769531 28.84375 122.46875 29.167969 C 122.976562 29.40625 123.265625 29.832031 123.335938 30.347656 C 123.421875 31.003906 123.433594 31.675781 123.101562 32.339844 "/>
<path style=" stroke:none;fill-rule:nonzero;fill:rgb(92.967224%,11.306763%,14.064026%);fill-opacity:1;" d="M 161.824219 31.222656 C 162.035156 30.84375 161.898438 30.527344 161.675781 30.308594 C 161.507812 30.136719 161.21875 30.023438 160.972656 30 C 160.316406 29.941406 159.714844 30.472656 159.546875 31.222656 C 160.3125 31.222656 161.078125 31.222656 161.824219 31.222656 Z M 163.289062 32.375 C 161.851562 32.375 160.46875 32.375 159.007812 32.375 C 159.007812 32.65625 158.988281 32.894531 159.011719 33.125 C 159.050781 33.542969 159.308594 33.789062 159.738281 33.828125 C 160.179688 33.871094 160.59375 33.820312 160.941406 33.507812 C 161.058594 33.402344 161.191406 33.308594 161.335938 33.199219 C 161.851562 33.199219 162.382812 33.199219 162.976562 33.199219 C 162.382812 34.335938 161.441406 34.902344 160.265625 35.0625 C 159.691406 35.140625 159.097656 35.167969 158.519531 34.949219 C 157.671875 34.632812 157.082031 33.796875 157.164062 32.914062 C 157.375 30.738281 158.65625 29.320312 160.675781 28.898438 C 161.324219 28.765625 161.953125 28.863281 162.558594 29.097656 C 163.3125 29.390625 163.667969 30.207031 163.644531 30.988281 C 163.640625 31.277344 163.5625 31.566406 163.496094 31.851562 C 163.460938 32.003906 163.382812 32.144531 163.289062 32.375 "/>
<path style=" stroke:none;fill-rule:nonzero;fill:rgb(92.967224%,11.306763%,14.064026%);fill-opacity:1;" d="M 91.5 31.234375 C 92.402344 31.234375 93.164062 31.234375 93.921875 31.234375 C 94.253906 30.871094 94.035156 30.539062 93.839844 30.289062 C 93.625 30.019531 93.285156 29.886719 92.90625 29.992188 C 92.277344 30.164062 91.851562 30.5625 91.5 31.234375 Z M 91.292969 32.347656 C 90.929688 32.828125 91.085938 33.21875 91.371094 33.5625 C 91.71875 33.980469 92.203125 33.890625 92.632812 33.753906 C 92.921875 33.660156 93.164062 33.417969 93.457031 33.226562 C 93.960938 33.226562 94.507812 33.226562 95.140625 33.226562 C 94.382812 34.347656 93.46875 35.039062 92.160156 35.082031 C 91.710938 35.09375 91.238281 35.121094 90.808594 35.007812 C 89.726562 34.722656 89.140625 33.742188 89.347656 32.503906 C 89.730469 30.230469 91.488281 28.832031 93.617188 28.855469 C 94.097656 28.863281 94.554688 28.976562 94.976562 29.242188 C 95.421875 29.527344 95.652344 29.9375 95.710938 30.421875 C 95.785156 31.050781 95.789062 31.695312 95.453125 32.347656 C 94.070312 32.347656 92.664062 32.347656 91.292969 32.347656 "/>
<path style=" stroke:none;fill-rule:nonzero;fill:rgb(92.967224%,11.306763%,14.064026%);fill-opacity:1;" d="M 62.726562 31.984375 C 62.03125 32.148438 61.367188 32.285156 60.714844 32.464844 C 60.523438 32.519531 60.335938 32.671875 60.199219 32.824219 C 59.785156 33.296875 59.960938 33.835938 60.570312 33.941406 C 60.820312 33.984375 61.105469 33.953125 61.351562 33.878906 C 62.234375 33.613281 62.683594 32.996094 62.726562 31.984375 Z M 63.101562 30.570312 C 62.785156 30.011719 62.496094 29.855469 61.960938 29.976562 C 61.503906 30.078125 61.121094 30.300781 60.882812 30.71875 C 60.355469 30.71875 59.855469 30.71875 59.324219 30.71875 C 59.710938 29.628906 60.550781 29.171875 61.570312 29.023438 C 62.171875 28.9375 62.796875 28.96875 63.40625 29.011719 C 64.179688 29.070312 64.679688 29.519531 64.824219 30.195312 C 64.851562 30.324219 64.878906 30.46875 64.847656 30.589844 C 64.492188 31.972656 64.128906 33.355469 63.761719 34.753906 C 63.289062 34.753906 62.867188 34.753906 62.398438 34.753906 C 62.359375 34.644531 62.308594 34.503906 62.25 34.332031 C 61.644531 34.671875 61.015625 34.917969 60.316406 35.011719 C 59.804688 35.078125 59.355469 34.976562 58.921875 34.804688 C 58.226562 34.53125 57.992188 33.867188 58.253906 33.152344 C 58.539062 32.382812 59.128906 31.949219 59.878906 31.75 C 60.492188 31.585938 61.128906 31.519531 61.753906 31.414062 C 61.9375 31.382812 62.121094 31.355469 62.300781 31.328125 C 62.707031 31.265625 63.003906 31.074219 63.101562 30.570312 "/>
<path style=" stroke:none;fill-rule:nonzero;fill:rgb(92.967224%,11.306763%,14.064026%);fill-opacity:1;" d="M 70.460938 34.769531 C 69.867188 34.769531 69.363281 34.769531 68.796875 34.769531 C 68.804688 34.605469 68.789062 34.453125 68.828125 34.3125 C 69.078125 33.335938 69.339844 32.363281 69.589844 31.390625 C 69.726562 30.867188 69.632812 30.492188 69.347656 30.324219 C 69.0625 30.160156 68.433594 30.238281 68.132812 30.464844 C 67.75 30.753906 67.582031 31.164062 67.464844 31.609375 C 67.25 32.429688 67.03125 33.25 66.808594 34.070312 C 66.746094 34.296875 66.664062 34.519531 66.585938 34.761719 C 66.039062 34.761719 65.515625 34.761719 64.894531 34.761719 C 65.378906 32.882812 65.871094 31.050781 66.390625 29.199219 C 66.882812 29.199219 67.355469 29.199219 67.875 29.199219 C 67.90625 29.347656 67.941406 29.519531 67.976562 29.699219 C 68.023438 29.695312 68.085938 29.707031 68.109375 29.683594 C 68.726562 29.140625 69.441406 28.925781 70.253906 28.996094 C 71.175781 29.070312 71.726562 29.804688 71.503906 30.714844 C 71.175781 32.054688 70.820312 33.382812 70.460938 34.769531 "/>
<path style=" stroke:none;fill-rule:nonzero;fill:rgb(92.967224%,11.306763%,14.064026%);fill-opacity:1;" d="M 116.613281 44.898438 C 115.742188 44.898438 114.929688 44.898438 114.046875 44.898438 C 114.136719 44.585938 114.199219 44.363281 114.285156 44.078125 C 114.773438 44.042969 115.269531 43.980469 115.765625 43.976562 C 117.128906 43.964844 118.492188 43.972656 119.855469 43.972656 C 120.089844 43.972656 120.324219 43.972656 120.550781 43.972656 C 120.699219 44.332031 120.566406 44.585938 120.394531 44.867188 C 119.609375 44.867188 118.8125 44.867188 117.9375 44.867188 C 117.238281 47.121094 116.710938 49.410156 116.039062 51.773438 C 117.03125 51.789062 117.921875 51.804688 118.875 51.824219 C 118.785156 52.160156 118.714844 52.429688 118.636719 52.730469 C 116.324219 52.730469 114.035156 52.730469 111.691406 52.730469 C 111.753906 52.4375 111.8125 52.167969 111.886719 51.816406 C 112.828125 51.804688 113.773438 51.792969 114.761719 51.785156 C 115.382812 49.480469 115.984375 47.234375 116.613281 44.898438 "/>
<path style=" stroke:none;fill-rule:nonzero;fill:rgb(92.967224%,11.306763%,14.064026%);fill-opacity:1;" d="M 166.492188 30.722656 C 166.636719 31.113281 167 31.15625 167.328125 31.25 C 167.761719 31.371094 168.210938 31.445312 168.636719 31.589844 C 169.425781 31.859375 169.617188 32.289062 169.472656 33.128906 C 169.320312 33.996094 168.722656 34.488281 168.007812 34.796875 C 167.007812 35.234375 165.933594 35.265625 164.890625 34.910156 C 164.113281 34.648438 163.824219 34.070312 163.949219 33.214844 C 164.019531 33.199219 164.09375 33.164062 164.167969 33.160156 C 164.59375 33.15625 165.023438 33.160156 165.484375 33.160156 C 165.617188 33.539062 165.722656 33.953125 166.214844 33.984375 C 166.667969 34.015625 167.121094 34.066406 167.484375 33.671875 C 167.855469 33.269531 167.804688 32.890625 167.304688 32.65625 C 167.140625 32.578125 166.953125 32.550781 166.773438 32.503906 C 166.386719 32.40625 166.003906 32.296875 165.617188 32.222656 C 164.535156 32.019531 164.449219 31.121094 164.824219 30.304688 C 165.066406 29.78125 165.503906 29.410156 166.035156 29.1875 C 167.023438 28.769531 168.046875 28.71875 169.078125 29.023438 C 169.59375 29.175781 169.90625 29.609375 169.933594 30.144531 C 169.9375 30.304688 169.933594 30.464844 169.933594 30.65625 C 169.429688 30.851562 168.929688 30.691406 168.460938 30.753906 C 168.191406 30.035156 168.066406 29.933594 167.507812 29.941406 C 166.925781 29.945312 166.71875 30.101562 166.492188 30.722656 "/>
<path style=" stroke:none;fill-rule:nonzero;fill:rgb(92.967224%,11.306763%,14.064026%);fill-opacity:1;" d="M 170.007812 33.1875 C 170.558594 33.1875 171.0625 33.1875 171.5625 33.1875 C 171.945312 34.058594 172.894531 34.308594 173.539062 33.710938 C 173.972656 33.304688 173.925781 32.878906 173.375 32.652344 C 173.035156 32.511719 172.660156 32.457031 172.304688 32.367188 C 172.097656 32.316406 171.894531 32.261719 171.6875 32.214844 C 170.816406 32.011719 170.488281 31.496094 170.910156 30.347656 C 171.082031 29.878906 171.453125 29.550781 171.886719 29.320312 C 172.839844 28.8125 173.859375 28.6875 174.902344 28.972656 C 175.886719 29.242188 176.105469 29.621094 175.957031 30.710938 C 175.492188 30.710938 175.019531 30.710938 174.550781 30.710938 C 174.25 29.9375 173.574219 29.695312 172.929688 30.125 C 172.714844 30.265625 172.570312 30.464844 172.597656 30.71875 C 172.621094 30.945312 172.785156 31.074219 173.027344 31.125 C 173.390625 31.203125 173.746094 31.316406 174.101562 31.414062 C 174.257812 31.457031 174.40625 31.515625 174.558594 31.546875 C 175.570312 31.746094 175.878906 32.40625 175.402344 33.589844 C 175.015625 34.550781 174.125 34.917969 173.175781 35.066406 C 172.628906 35.148438 172.050781 35.128906 171.496094 35.0625 C 170.4375 34.9375 169.953125 34.320312 170.007812 33.1875 "/>
<path style=" stroke:none;fill-rule:nonzero;fill:rgb(92.967224%,11.306763%,14.064026%);fill-opacity:1;" d="M 144.03125 34.765625 C 143.289062 34.765625 142.625 34.765625 141.933594 34.765625 C 141.71875 34.285156 141.507812 33.808594 141.296875 33.328125 C 140.777344 33.816406 140.296875 34.269531 139.785156 34.753906 C 139.179688 34.753906 138.542969 34.753906 137.789062 34.753906 C 138.785156 33.761719 139.71875 32.835938 140.675781 31.882812 C 140.261719 30.984375 139.855469 30.105469 139.429688 29.175781 C 140.148438 29.175781 140.785156 29.175781 141.503906 29.175781 C 141.675781 29.554688 141.855469 29.960938 142.054688 30.402344 C 142.371094 30.285156 142.542969 30.007812 142.757812 29.796875 C 142.96875 29.589844 143.15625 29.363281 143.328125 29.171875 C 144.039062 29.171875 144.675781 29.171875 145.421875 29.171875 C 144.472656 30.085938 143.597656 30.933594 142.6875 31.8125 C 143.140625 32.8125 143.570312 33.753906 144.03125 34.765625 "/>
<path style=" stroke:none;fill-rule:nonzero;fill:rgb(92.967224%,11.306763%,14.064026%);fill-opacity:1;" d="M 113.847656 34.761719 C 113.117188 34.761719 112.429688 34.761719 111.683594 34.761719 C 111.457031 32.917969 111.277344 31.078125 111.140625 29.195312 C 111.800781 29.195312 112.382812 29.195312 113.054688 29.195312 C 113.074219 29.835938 113.078125 30.492188 113.117188 31.148438 C 113.15625 31.804688 113.226562 32.460938 113.292969 33.25 C 114.128906 31.832031 114.894531 30.523438 115.675781 29.195312 C 116.234375 29.195312 116.785156 29.195312 117.363281 29.195312 C 116.179688 31.070312 115.011719 32.914062 113.847656 34.761719 "/>
<path style=" stroke:none;fill-rule:nonzero;fill:rgb(92.967224%,11.306763%,14.064026%);fill-opacity:1;" d="M 137.691406 49.96875 C 138.921875 49.863281 139.972656 49.773438 141.097656 49.679688 C 141.019531 49.210938 140.949219 48.804688 140.875 48.351562 C 141.179688 48.230469 141.464844 48.117188 141.796875 47.984375 C 142.070312 48.9375 142.332031 49.851562 142.617188 50.84375 C 142.246094 50.96875 141.910156 51.085938 141.527344 51.214844 C 141.433594 51.007812 141.359375 50.847656 141.246094 50.605469 C 139.664062 50.730469 138.054688 50.855469 136.390625 50.988281 C 136.292969 50.691406 136.207031 50.421875 136.097656 50.078125 C 137.140625 49.265625 138.050781 48.277344 138.957031 47.140625 C 138.28125 47.140625 137.699219 47.140625 137.035156 47.140625 C 137.113281 46.832031 137.171875 46.589844 137.230469 46.351562 C 137.789062 46.1875 142.589844 46.144531 143.695312 46.289062 C 143.828125 46.601562 143.652344 46.84375 143.492188 47.125 C 142.4375 47.125 141.371094 47.125 140.320312 47.125 C 139.46875 48.046875 138.640625 48.941406 137.691406 49.96875 "/>
<path style=" stroke:none;fill-rule:nonzero;fill:rgb(92.967224%,11.306763%,14.064026%);fill-opacity:1;" d="M 84.886719 29.132812 C 85.527344 29.007812 88.355469 28.984375 89.441406 29.089844 C 89.414062 29.660156 89.261719 30.144531 88.8125 30.550781 C 87.957031 31.320312 87.136719 32.125 86.304688 32.917969 C 86.113281 33.097656 85.9375 33.296875 85.683594 33.5625 C 86.652344 33.789062 87.546875 33.574219 88.480469 33.71875 C 88.367188 34.078125 88.257812 34.417969 88.148438 34.761719 C 86.503906 34.761719 84.90625 34.761719 83.25 34.761719 C 83.378906 34.101562 83.523438 33.527344 84.050781 33.070312 C 84.902344 32.339844 85.699219 31.542969 86.511719 30.773438 C 86.683594 30.609375 86.84375 30.433594 87.097656 30.171875 C 86.242188 30.078125 85.488281 30.164062 84.710938 30.105469 C 84.589844 29.714844 84.871094 29.441406 84.886719 29.132812 "/>
<path style=" stroke:none;fill-rule:nonzero;fill:rgb(92.967224%,11.306763%,14.064026%);fill-opacity:1;" d="M 118.785156 22.746094 C 120.515625 20.203125 122.15625 17.785156 123.808594 15.355469 C 124.5 15.355469 125.1875 15.355469 125.964844 15.355469 C 126.121094 16.117188 126.277344 16.882812 126.4375 17.648438 C 125.820312 18.28125 125.261719 18.917969 124.441406 19.441406 C 124.328125 18.800781 124.226562 18.246094 124.109375 17.578125 C 123.941406 17.761719 123.800781 17.886719 123.699219 18.042969 C 123.023438 19.0625 122.339844 20.082031 121.695312 21.125 C 121.515625 21.414062 121.300781 21.609375 121.003906 21.75 C 120.402344 22.035156 119.804688 22.332031 119.203125 22.617188 C 119.121094 22.65625 119.027344 22.671875 118.785156 22.746094 "/>
<path style=" stroke:none;fill-rule:nonzero;fill:rgb(92.967224%,11.306763%,14.064026%);fill-opacity:1;" d="M 142.5 51.839844 C 142.253906 52.269531 142.070312 52.585938 141.882812 52.90625 C 140.257812 52.90625 138.652344 52.933594 137.046875 52.898438 C 136.113281 52.875 135.28125 52.539062 134.632812 51.75 C 134.023438 52.160156 133.4375 52.554688 132.800781 52.984375 C 132.683594 52.628906 132.597656 52.359375 132.484375 52.019531 C 132.9375 51.734375 133.367188 51.425781 133.832031 51.1875 C 134.21875 50.984375 134.433594 50.742188 134.515625 50.292969 C 134.632812 49.640625 134.863281 49.011719 135.03125 48.371094 C 135.085938 48.167969 135.105469 47.957031 135.140625 47.738281 C 134.710938 47.503906 134.261719 47.71875 133.785156 47.554688 C 133.847656 47.277344 133.90625 47.011719 133.972656 46.722656 C 134.835938 46.722656 135.652344 46.722656 136.539062 46.722656 C 136.15625 48.148438 135.789062 49.523438 135.414062 50.921875 C 135.628906 51.574219 136.183594 51.742188 136.78125 51.808594 C 137.179688 51.855469 137.582031 51.839844 137.984375 51.839844 C 139.445312 51.84375 140.90625 51.839844 142.5 51.839844 "/>
<path style=" stroke:none;fill-rule:nonzero;fill:rgb(92.967224%,11.306763%,14.064026%);fill-opacity:1;" d="M 80.460938 30.238281 C 80.164062 30.171875 79.941406 30.125 79.667969 30.066406 C 79.746094 29.761719 79.816406 29.484375 79.894531 29.179688 C 80.175781 29.160156 80.433594 29.140625 80.746094 29.117188 C 80.929688 28.515625 81.113281 27.910156 81.304688 27.277344 C 81.816406 27.277344 82.3125 27.277344 82.851562 27.277344 C 83.019531 27.867188 82.535156 28.375 82.59375 28.996094 C 82.980469 29.019531 83.34375 29.039062 83.804688 29.066406 C 83.695312 29.441406 83.601562 29.753906 83.496094 30.117188 C 83.078125 30.117188 82.6875 30.117188 82.226562 30.117188 C 81.933594 31.28125 81.523438 32.363281 81.398438 33.5 C 81.757812 33.824219 82.179688 33.539062 82.539062 33.757812 C 82.453125 34.078125 82.367188 34.402344 82.261719 34.785156 C 81.648438 34.785156 81.066406 34.800781 80.484375 34.78125 C 79.703125 34.75 79.394531 34.328125 79.585938 33.546875 C 79.734375 32.929688 79.917969 32.320312 80.082031 31.703125 C 80.203125 31.246094 80.320312 30.785156 80.460938 30.238281 "/>
<path style=" stroke:none;fill-rule:nonzero;fill:rgb(92.967224%,11.306763%,14.064026%);fill-opacity:1;" d="M 86.460938 46.113281 C 86.527344 45.882812 86.589844 45.664062 86.667969 45.398438 C 87.078125 45.367188 87.496094 45.339844 87.972656 45.304688 C 88.144531 44.746094 88.316406 44.199219 88.492188 43.621094 C 88.851562 43.621094 89.1875 43.621094 89.550781 43.621094 C 89.410156 44.1875 89.277344 44.71875 89.132812 45.296875 C 89.46875 45.332031 89.753906 45.363281 90.089844 45.398438 C 90.089844 45.527344 90.109375 45.65625 90.085938 45.777344 C 90.058594 45.902344 89.992188 46.019531 89.933594 46.164062 C 89.609375 46.1875 89.296875 46.214844 88.964844 46.242188 C 88.652344 46.699219 88.601562 47.214844 88.484375 47.816406 C 88.882812 47.691406 89.199219 47.59375 89.554688 47.480469 C 89.519531 47.660156 89.472656 47.804688 89.460938 47.949219 C 89.425781 48.382812 89.175781 48.617188 88.777344 48.722656 C 88.296875 48.851562 88.035156 49.121094 87.941406 49.648438 C 87.8125 50.375 87.582031 51.085938 87.363281 51.796875 C 87.273438 52.09375 87.132812 52.390625 86.953125 52.644531 C 86.746094 52.933594 86.449219 53.113281 86.0625 53.089844 C 85.742188 53.074219 85.421875 53.085938 85.0625 53.085938 C 85.0625 52.78125 85.0625 52.507812 85.0625 52.191406 C 85.261719 52.167969 85.414062 52.128906 85.566406 52.140625 C 85.972656 52.167969 86.210938 52.015625 86.308594 51.59375 C 86.464844 50.933594 86.671875 50.285156 86.878906 49.542969 C 86.398438 49.71875 86.015625 49.855469 85.539062 50.023438 C 85.519531 49.671875 85.507812 49.390625 85.488281 49.074219 C 86.058594 48.839844 86.59375 48.621094 87.175781 48.382812 C 87.355469 47.726562 87.542969 47.042969 87.734375 46.339844 C 87.335938 46.046875 86.867188 46.335938 86.460938 46.113281 "/>
<path style=" stroke:none;fill-rule:nonzero;fill:rgb(97.795105%,90.280151%,3.910828%);fill-opacity:1;" d="M 114.90625 23.984375 C 116.085938 23.660156 123.527344 22.269531 127.648438 15.953125 C 127.355469 16.832031 127.691406 16.523438 128.050781 16.0625 C 128.351562 15.683594 129.671875 12.941406 129.671875 12.941406 C 129.671875 12.941406 128.324219 17.050781 128.988281 15.523438 C 130.007812 13.171875 130.675781 11.535156 131.238281 11.292969 C 130.433594 13.179688 132.414062 9.957031 132.414062 9.957031 C 132.414062 9.957031 130.324219 14.132812 130.96875 13.167969 C 131.609375 12.203125 131.984375 11.722656 132.414062 10.972656 C 132.84375 10.222656 131.074219 12.902344 131.984375 11.722656 C 132.894531 10.542969 133.539062 7.8125 133.539062 7.8125 L 132.789062 11.347656 L 130.324219 16.113281 L 126.847656 19.808594 L 123.3125 22.21875 L 118.976562 23.984375 L 114.90625 24.949219 L 112.070312 25.214844 C 112.070312 25.214844 116.621094 24.625 118.867188 23.394531 C 118.09375 23.726562 115.089844 24.15625 114.90625 23.984375 "/>
<path style=" stroke:none;fill-rule:nonzero;fill:rgb(92.967224%,11.306763%,14.064026%);fill-opacity:1;" d="M 125.039062 29.179688 C 125.644531 29.179688 126.199219 29.179688 126.796875 29.179688 C 126.769531 29.410156 126.742188 29.628906 126.71875 29.851562 C 126.804688 29.851562 126.867188 29.871094 126.890625 29.851562 C 127.28125 29.472656 127.738281 29.210938 128.257812 29.0625 C 128.425781 29.015625 128.609375 29.035156 128.863281 29.019531 C 128.714844 29.574219 128.589844 30.054688 128.449219 30.566406 C 128.28125 30.621094 128.109375 30.691406 127.933594 30.730469 C 126.90625 30.960938 126.230469 31.574219 125.929688 32.578125 C 125.71875 33.285156 125.539062 34.003906 125.339844 34.746094 C 124.746094 34.746094 124.195312 34.746094 123.558594 34.746094 C 124.023438 32.902344 124.527344 31.078125 125.039062 29.179688 "/>
<path style=" stroke:none;fill-rule:nonzero;fill:rgb(92.967224%,11.306763%,14.064026%);fill-opacity:1;" d="M 153.976562 34.761719 C 153.34375 34.761719 152.789062 34.761719 152.1875 34.761719 C 152.691406 32.890625 153.179688 31.058594 153.675781 29.207031 C 153.886719 29.191406 154.070312 29.167969 154.25 29.164062 C 154.644531 29.15625 155.039062 29.160156 155.449219 29.160156 C 155.40625 29.457031 155.375 29.679688 155.332031 29.960938 C 156.023438 29.476562 156.613281 28.960938 157.515625 29.011719 C 157.425781 29.359375 157.289062 29.675781 157.265625 30 C 157.230469 30.507812 156.945312 30.65625 156.503906 30.746094 C 155.765625 30.902344 155.183594 31.316406 154.824219 31.988281 C 154.6875 32.242188 154.597656 32.527344 154.515625 32.804688 C 154.332031 33.4375 154.164062 34.078125 153.976562 34.761719 "/>
<path style=" stroke:none;fill-rule:nonzero;fill:rgb(92.967224%,11.306763%,14.064026%);fill-opacity:1;" d="M 126.894531 20.085938 C 127.050781 20.925781 127.226562 21.855469 127.410156 22.835938 C 126.585938 22.835938 125.84375 22.835938 125.023438 22.835938 C 124.933594 22.472656 124.839844 22.066406 124.722656 21.585938 C 121.027344 23.894531 117.019531 25.042969 112.695312 25.082031 C 123.277344 24.449219 130.617188 17.894531 133.3125 9.964844 C 133.277344 10.152344 133.261719 10.347656 133.210938 10.53125 C 132.449219 13.070312 131.15625 15.324219 129.453125 17.335938 C 128.660156 18.269531 127.785156 19.132812 126.894531 20.085938 "/>
<path style=" stroke:none;fill-rule:nonzero;fill:rgb(92.967224%,11.306763%,14.064026%);fill-opacity:1;" d="M 124.980469 45.6875 C 124.816406 46.09375 124.605469 46.492188 124.488281 46.914062 C 123.964844 48.859375 123.46875 50.816406 122.960938 52.769531 C 122.933594 52.867188 122.863281 52.953125 122.804688 53.070312 C 122.492188 53.070312 122.179688 53.070312 121.785156 53.070312 C 122.640625 49.890625 123.480469 46.753906 124.320312 43.609375 C 124.710938 43.609375 125.023438 43.609375 125.398438 43.609375 C 125.269531 44.121094 125.136719 44.597656 125.027344 45.078125 C 124.980469 45.285156 124.980469 45.5 124.960938 45.710938 L 124.980469 45.6875 "/>
<path style=" stroke:none;fill-rule:nonzero;fill:rgb(92.967224%,11.306763%,14.064026%);fill-opacity:1;" d="M 108.5625 34.761719 C 107.957031 34.761719 107.429688 34.761719 106.824219 34.761719 C 106.921875 33.78125 107.292969 32.902344 107.496094 31.988281 C 107.707031 31.058594 108 30.152344 108.261719 29.203125 C 108.839844 29.203125 109.386719 29.203125 110.03125 29.203125 C 109.578125 31.085938 109.03125 32.917969 108.5625 34.761719 "/>
<path style=" stroke:none;fill-rule:nonzero;fill:rgb(92.967224%,11.306763%,14.064026%);fill-opacity:1;" d="M 108.984375 53.214844 C 108.734375 52.957031 108.53125 52.75 108.308594 52.519531 C 109.542969 51.332031 110.769531 50.152344 112.039062 48.929688 C 112.257812 49.070312 112.488281 49.226562 112.773438 49.414062 C 111.53125 50.730469 110.414062 52.078125 108.984375 53.214844 "/>
<path style=" stroke:none;fill-rule:nonzero;fill:rgb(92.967224%,11.306763%,14.064026%);fill-opacity:1;" d="M 138.28125 44.679688 C 138.367188 44.40625 138.4375 44.1875 138.511719 43.941406 C 140.25 43.941406 141.96875 43.941406 143.78125 43.941406 C 143.699219 44.226562 143.636719 44.460938 143.574219 44.679688 C 141.789062 44.679688 140.070312 44.679688 138.28125 44.679688 "/>
<path style=" stroke:none;fill-rule:nonzero;fill:rgb(92.967224%,11.306763%,14.064026%);fill-opacity:1;" d="M 122.164062 49.082031 C 121.855469 49.058594 121.597656 49.039062 121.269531 49.015625 C 121.75 47.84375 122.203125 46.726562 122.671875 45.585938 C 122.953125 45.585938 123.207031 45.585938 123.5625 45.585938 C 123.085938 46.785156 122.628906 47.921875 122.164062 49.082031 "/>
<path style=" stroke:none;fill-rule:nonzero;fill:rgb(92.967224%,11.306763%,14.064026%);fill-opacity:1;" d="M 110.863281 45.976562 C 111.113281 46.21875 111.34375 46.429688 111.558594 46.660156 C 111.847656 46.96875 112.117188 47.289062 112.4375 47.648438 C 112.109375 47.929688 111.816406 48.179688 111.488281 48.464844 C 110.859375 48 110.492188 47.308594 109.894531 46.800781 C 110.234375 46.511719 110.527344 46.261719 110.863281 45.976562 "/>
<path style=" stroke:none;fill-rule:nonzero;fill:rgb(92.967224%,11.306763%,14.064026%);fill-opacity:1;" d="M 136.914062 45.382812 C 136.558594 45.613281 136.273438 45.804688 135.941406 46.023438 C 135.554688 45.398438 135.179688 44.792969 134.789062 44.167969 C 135.097656 43.933594 135.390625 43.714844 135.730469 43.460938 C 136.222656 44.046875 136.621094 44.671875 136.914062 45.382812 "/>
<path style=" stroke:none;fill-rule:nonzero;fill:rgb(92.967224%,11.306763%,14.064026%);fill-opacity:1;" d="M 111.351562 44.128906 C 111.675781 43.886719 111.949219 43.679688 112.261719 43.445312 C 112.84375 43.839844 113.171875 44.449219 113.59375 45.003906 C 113.402344 45.410156 113.003906 45.539062 112.710938 45.792969 C 112.261719 45.246094 111.828125 44.714844 111.351562 44.128906 "/>
<path style=" stroke:none;fill-rule:nonzero;fill:rgb(92.967224%,11.306763%,14.064026%);fill-opacity:1;" d="M 110.714844 26.625 C 110.613281 27.03125 110.53125 27.378906 110.433594 27.777344 C 109.847656 27.777344 109.277344 27.777344 108.636719 27.777344 C 108.746094 27.394531 108.855469 27.011719 108.960938 26.625 C 109.550781 26.625 110.09375 26.625 110.714844 26.625 "/>
<path style=" stroke:none;fill-rule:nonzero;fill:rgb(92.967224%,11.306763%,14.064026%);fill-opacity:1;" d="M 124.960938 45.710938 C 125.222656 45.59375 125.480469 45.472656 125.738281 45.355469 C 125.894531 45.75 126.042969 47.339844 125.972656 47.8125 C 125.722656 47.886719 125.457031 47.964844 125.183594 48.046875 C 125.113281 47.242188 125.046875 46.464844 124.980469 45.6875 L 124.960938 45.710938 "/>
</g>
</svg>
