<svg xmlns="http://www.w3.org/2000/svg" width="168.613" height="59pt" viewBox="0 0 126.46 59"><defs><clipPath id="a"><path d="M91 0h35.46v59H91Zm0 0"/></clipPath></defs><path d="m5.305 48.629 4.03 10.281h-1.05l-1.254-3.2h-4.68l-1.238 3.2H.078L4.207 48.63zm1.394 6.246-1.984-5.27-2.063 5.27z" style="stroke:none;fill-rule:nonzero;fill:#515f53;fill-opacity:1"/><path d="M53.047 103.71 93.359.899H82.852l-12.54 31.993H23.517L11.133.898H.78l41.29 102.813Zm13.945-62.46L47.148 93.945 26.523 41.25Zm0 0" style="fill:none;stroke-width:1.5266;stroke-linecap:round;stroke-linejoin:round;stroke:#515f53;stroke-opacity:1;stroke-miterlimit:12.5" transform="matrix(.1 0 0 -.1 0 59)"/><path d="M120.156 27.5c.899-3.555 2.344-6.68 4.375-9.453 1.992-2.813 4.57-5.117 7.617-6.914 3.086-1.836 6.797-2.735 11.094-2.735 6.64 0 11.797 1.72 15.547 5.196 3.75 3.437 6.367 8.047 7.774 13.789h9.101c-1.953-8.438-5.469-14.961-10.586-19.57-5.156-4.61-12.422-6.915-21.836-6.915-5.86 0-10.898 1.016-15.195 3.125-4.258 2.032-7.734 4.883-10.43 8.477q-4.042 5.39-5.976 12.54c-1.29 4.726-1.954 9.765-1.954 15.038 0 4.883.665 9.688 1.954 14.414 1.289 4.688 3.28 8.906 5.976 12.578 2.695 3.711 6.172 6.68 10.43 8.946 4.297 2.265 9.336 3.398 15.195 3.398 5.977 0 11.055-1.21 15.274-3.633 4.218-2.383 7.656-5.547 10.312-9.414 2.617-3.867 4.531-8.36 5.664-13.398 1.172-5.04 1.64-10.157 1.446-15.352h-57.149c0-3.242.43-6.64 1.367-10.117m44.922 27.695q-1.64 4.746-4.687 8.438a23 23 0 0 1-7.344 5.898c-2.89 1.524-6.133 2.227-9.805 2.227-3.75 0-7.07-.703-9.922-2.227-2.89-1.484-5.351-3.437-7.343-5.898-2.032-2.461-3.633-5.274-4.844-8.516a39.3 39.3 0 0 1-2.344-9.844h48.086c-.117 3.438-.703 6.797-1.797 9.922" style="fill-rule:nonzero;fill:#515f53;fill-opacity:1;stroke-width:1.5266;stroke-linecap:round;stroke-linejoin:round;stroke:#515f53;stroke-opacity:1;stroke-miterlimit:12.5" transform="matrix(.1 0 0 -.1 0 59)"/><path d="M22.16 51.48v1.739h.027q.347-.908 1.075-1.395c.484-.324 1.062-.476 1.734-.445v.906q-.616-.03-1.121.164a2.6 2.6 0 0 0-.871.555 2.45 2.45 0 0 0-.57.86 2.9 2.9 0 0 0-.204 1.085v3.961h-.906v-7.43z" style="stroke:none;fill-rule:nonzero;fill:#515f53;fill-opacity:1"/><path d="M221.602 75.195V57.813h.273c2.305 6.054 5.898 10.703 10.742 13.945s10.625 4.765 17.344 4.453v-9.063c-4.102.196-7.852-.351-11.211-1.64-3.36-1.328-6.29-3.164-8.71-5.547-2.462-2.383-4.376-5.273-5.704-8.594s-2.031-6.914-2.031-10.86V.899h-9.063v74.297Zm0 0" style="fill:none;stroke-width:1.5266;stroke-linecap:round;stroke-linejoin:round;stroke:#515f53;stroke-opacity:1;stroke-miterlimit:12.5" transform="matrix(.1 0 0 -.1 0 59)"/><path d="M326.523 76.25c4.375-2.148 8.047-4.96 11.055-8.516 2.93-3.554 5.235-7.695 6.719-12.46 1.562-4.766 2.344-9.805 2.344-15.196 0-5.351-.782-10.43-2.344-15.195-1.485-4.766-3.79-8.906-6.719-12.461a32.35 32.35 0 0 0-11.055-8.399c-4.375-2.109-9.375-3.125-15.039-3.125s-10.664 1.016-15.039 3.125a31.8 31.8 0 0 0-11.015 8.399c-3.008 3.555-5.235 7.695-6.797 12.46-1.524 4.766-2.266 9.845-2.266 15.196 0 5.39.742 10.43 2.266 15.195 1.562 4.766 3.789 8.907 6.797 12.461 2.968 3.555 6.64 6.368 11.015 8.516 4.375 2.07 9.375 3.164 15.04 3.164 5.663 0 10.663-1.094 15.038-3.164m-26.406-7.227c-3.281-1.835-5.976-4.218-8.164-7.187-2.148-3.008-3.789-6.367-4.883-10.156a41.6 41.6 0 0 1-1.64-11.602c0-3.945.547-7.773 1.64-11.562 1.094-3.828 2.735-7.188 4.883-10.196 2.188-2.968 4.883-5.39 8.164-7.187 3.242-1.836 7.07-2.735 11.367-2.735 4.336 0 8.125.899 11.368 2.735a24.5 24.5 0 0 1 8.164 7.187c2.148 3.008 3.789 6.368 4.882 10.196 1.094 3.789 1.68 7.617 1.68 11.562s-.586 7.813-1.68 11.602-2.734 7.148-4.882 10.156c-2.149 2.969-4.883 5.352-8.164 7.187-3.243 1.836-7.032 2.735-11.368 2.735-4.296 0-8.125-.899-11.367-2.735" style="fill-rule:nonzero;fill:#515f53;fill-opacity:1;stroke-width:1.5266;stroke-linecap:round;stroke-linejoin:round;stroke:#515f53;stroke-opacity:1;stroke-miterlimit:12.5" transform="matrix(.1 0 0 -.1 0 59)"/><path d="M38.906 58.91h.91V48.63h-.91z" style="stroke:none;fill-rule:nonzero;fill:#515f53;fill-opacity:1"/><path d="M389.063.898h9.101v102.813h-9.101Zm0 0" style="fill:none;stroke-width:1.5266;stroke-linecap:round;stroke-linejoin:round;stroke:#515f53;stroke-opacity:1;stroke-miterlimit:12.5" transform="matrix(.1 0 0 -.1 0 59)"/><path d="m44.398 50.441 1.512-2.03h1.125l-1.902 2.03zm.403 1.04h.906v7.43h-.906z" style="stroke:none;fill-rule:nonzero;fill:#515f53;fill-opacity:1"/><path d="m443.984 85.586 15.118 20.312h11.25l-19.024-20.312Zm4.024-10.39h9.062V.897h-9.062Zm0 0" style="fill:none;stroke-width:1.5266;stroke-linecap:round;stroke-linejoin:round;stroke:#515f53;stroke-opacity:1;stroke-miterlimit:12.5" transform="matrix(.1 0 0 -.1 0 59)"/><path d="M51.96 51.48v1.282h.028a2.2 2.2 0 0 1 .922-1.09 2.7 2.7 0 0 1 1.457-.41q.78-.001 1.301.203.528.201.844.566c.21.246.363.547.449.903q.129.533.129 1.195v4.781h-.91v-4.637q0-.475-.086-.886a1.8 1.8 0 0 0-.301-.711 1.46 1.46 0 0 0-.582-.477q-.367-.176-.918-.176-.546 0-.969.2a2.05 2.05 0 0 0-.722.53 2.5 2.5 0 0 0-.461.806q-.166.47-.18 1.015v4.336h-.906v-7.43z" style="stroke:none;fill-rule:nonzero;fill:#515f53;fill-opacity:1"/><path d="M519.61 75.195V62.383h.273c1.758 4.531 4.804 8.164 9.219 10.898 4.453 2.735 9.257 4.102 14.57 4.102 5.195 0 9.531-.664 13.008-2.031 3.515-1.329 6.328-3.243 8.437-5.665 2.11-2.46 3.633-5.468 4.492-9.023q1.29-5.332 1.29-11.953V.898h-9.102v46.368c0 3.164-.274 6.132-.86 8.867-.546 2.734-1.562 5.117-3.007 7.11-1.446 2.03-3.399 3.632-5.82 4.765-2.462 1.172-5.508 1.758-9.18 1.758-3.633 0-6.875-.664-9.688-1.993-2.851-1.25-5.234-3.046-7.226-5.312-1.953-2.227-3.477-4.922-4.61-8.047-1.093-3.125-1.718-6.523-1.797-10.156V.898h-9.062v74.297Zm0 0" style="fill:none;stroke-width:1.5266;stroke-linecap:round;stroke-linejoin:round;stroke:#515f53;stroke-opacity:1;stroke-miterlimit:12.5" transform="matrix(.1 0 0 -.1 0 59)"/><path d="M623.086 27.5c.937-3.555 2.383-6.68 4.414-9.453a24.4 24.4 0 0 1 7.617-6.914c3.086-1.836 6.797-2.735 11.094-2.735 6.64 0 11.797 1.72 15.547 5.196 3.75 3.437 6.367 8.047 7.773 13.789h9.102c-1.953-8.438-5.469-14.961-10.586-19.57C662.89 3.202 655.625.898 646.21.898c-5.86 0-10.938 1.016-15.195 3.125-4.258 2.032-7.735 4.883-10.43 8.477q-4.043 5.39-5.977 12.54c-1.289 4.726-1.953 9.765-1.953 15.038 0 4.883.664 9.688 1.953 14.414 1.29 4.688 3.282 8.906 5.977 12.578 2.695 3.711 6.172 6.68 10.43 8.946 4.257 2.265 9.336 3.398 15.195 3.398 5.976 0 11.055-1.21 15.273-3.633 4.22-2.383 7.657-5.547 10.274-9.414 2.656-3.867 4.57-8.36 5.703-13.398 1.172-5.04 1.64-10.157 1.445-15.352h-57.148c0-3.242.43-6.64 1.328-10.117m44.96 27.695a27.8 27.8 0 0 1-4.687 8.438c-1.992 2.46-4.453 4.414-7.343 5.898-2.891 1.524-6.133 2.227-9.805 2.227-3.75 0-7.031-.703-9.961-2.227-2.852-1.484-5.312-3.437-7.305-5.898-2.03-2.461-3.633-5.274-4.843-8.516-1.172-3.203-1.993-6.484-2.344-9.844h48.086c-.117 3.438-.703 6.797-1.797 9.922" style="fill-rule:nonzero;fill:#515f53;fill-opacity:1;stroke-width:1.5266;stroke-linecap:round;stroke-linejoin:round;stroke:#515f53;stroke-opacity:1;stroke-miterlimit:12.5" transform="matrix(.1 0 0 -.1 0 59)"/><path d="M71.45 52.426q.228-.47.628-.778.391-.298.93-.445a4.6 4.6 0 0 1 1.18-.144c.324 0 .652.03.976.097q.491.088.883.352.387.258.633.726.246.471.246 1.215v3.946q0 .55.531.55.16 0 .285-.058v.761c-.101.02-.199.04-.277.043a2 2 0 0 1-.309.016c-.23 0-.418-.031-.554-.094a.74.74 0 0 1-.329-.265 1 1 0 0 1-.148-.41 3.6 3.6 0 0 1-.04-.524h-.026q-.246.357-.496.637a2.5 2.5 0 0 1-.563.469 2.9 2.9 0 0 1-.703.292 4 4 0 0 1-.945.098c-.344 0-.668-.039-.973-.125a2.1 2.1 0 0 1-.79-.387 1.86 1.86 0 0 1-.534-.675c-.133-.278-.196-.598-.196-.973q-.001-.78.348-1.219a2.16 2.16 0 0 1 .914-.668 5.1 5.1 0 0 1 1.281-.324c.477-.062.957-.125 1.45-.184.191-.02.359-.039.503-.07a.9.9 0 0 0 .36-.148.75.75 0 0 0 .222-.297q.078-.19.079-.488c0-.309-.051-.559-.153-.758a1.2 1.2 0 0 0-.418-.469 1.7 1.7 0 0 0-.617-.238 4 4 0 0 0-.754-.063c-.578 0-1.047.133-1.414.41q-.55.41-.574 1.317h-.906c.027-.434.117-.805.27-1.125m4.538 2.222q-.087.158-.332.227-.246.073-.433.102-.574.1-1.188.18t-1.117.238q-.504.157-.824.457c-.219.195-.324.472-.324.84q-.002.344.136.613c.09.175.211.332.367.46q.228.194.532.294c.203.066.406.101.617.101.348 0 .68-.05.996-.16.316-.102.594-.258.828-.46.234-.2.422-.442.559-.735.144-.285.21-.614.21-.977v-1.18z" style="stroke:none;fill-rule:nonzero;fill:#515f53;fill-opacity:1"/><path d="M714.492 65.742c1.524 3.125 3.633 5.742 6.29 7.774 2.616 1.992 5.702 3.476 9.296 4.453 3.555.937 7.461 1.445 11.797 1.445 3.242 0 6.523-.312 9.766-.977 3.28-.585 6.21-1.757 8.828-3.515q3.867-2.578 6.328-7.266c1.64-3.125 2.46-7.187 2.46-12.148V16.055c0-3.672 1.759-5.508 5.313-5.508 1.055 0 2.032.195 2.852.586V3.516c-1.016-.196-1.992-.391-2.774-.43-.82-.117-1.836-.156-3.086-.156-2.304 0-4.18.312-5.546.937-1.407.625-2.5 1.485-3.282 2.656-.742 1.133-1.25 2.5-1.484 4.102a36 36 0 0 0-.39 5.234h-.274c-1.64-2.382-3.281-4.492-4.961-6.367A24.6 24.6 0 0 0 750 4.805c-2.07-1.25-4.414-2.188-7.031-2.93-2.657-.625-5.782-.977-9.453-.977-3.438 0-6.68.391-9.727 1.25-3.008.82-5.664 2.07-7.89 3.868a18.6 18.6 0 0 0-5.352 6.757c-1.328 2.774-1.953 5.977-1.953 9.727 0 5.195 1.133 9.258 3.476 12.188q3.458 4.394 9.14 6.68c3.79 1.562 8.087 2.616 12.813 3.241 4.766.625 9.57 1.25 14.493 1.836 1.914.196 3.593.39 5.039.703 1.406.274 2.617.782 3.593 1.485.938.742 1.68 1.719 2.227 2.969.508 1.25.781 2.89.781 4.882 0 3.086-.508 5.586-1.523 7.578a11.8 11.8 0 0 1-4.18 4.688c-1.758 1.133-3.828 1.953-6.172 2.383s-4.883.625-7.539.625c-5.781 0-10.469-1.328-14.14-4.102-3.672-2.734-5.586-7.11-5.743-13.164h-9.062c.273 4.336 1.172 8.047 2.695 11.25m45.39-22.226c-.585-1.055-1.679-1.797-3.32-2.266a30.6 30.6 0 0 0-4.335-1.016c-3.829-.664-7.774-1.289-11.875-1.797-4.102-.546-7.813-1.328-11.172-2.382s-6.094-2.578-8.242-4.57c-2.188-1.954-3.243-4.727-3.243-8.4 0-2.304.43-4.335 1.367-6.132.899-1.758 2.11-3.32 3.672-4.61 1.524-1.288 3.282-2.265 5.313-2.929s4.062-1.016 6.172-1.016c3.476 0 6.797.508 9.96 1.602 3.165 1.016 5.938 2.578 8.282 4.61a21.35 21.35 0 0 1 5.586 7.343c1.445 2.852 2.11 6.133 2.11 9.766v11.797Zm0 0" style="fill:none;stroke-width:1.5266;stroke-linecap:round;stroke-linejoin:round;stroke:#515f53;stroke-opacity:1;stroke-miterlimit:12.5" transform="matrix(.1 0 0 -.1 0 59)"/><path d="M855.508 62.773c-1.055 2.032-2.461 3.75-4.258 5.118-1.758 1.328-3.828 2.304-6.094 2.93-2.304.624-4.765.937-7.343.937-2.032 0-4.063-.195-6.133-.625a19 19 0 0 1-5.703-2.188 12.6 12.6 0 0 1-4.18-3.945c-1.016-1.64-1.563-3.633-1.563-6.055 0-1.992.508-3.71 1.524-5.117a13.1 13.1 0 0 1 3.789-3.516c1.562-.976 3.242-1.757 5.078-2.382 1.797-.625 3.477-1.133 5.04-1.485l12.108-2.773c2.579-.39 5.118-1.094 7.657-2.07a24.9 24.9 0 0 0 6.797-3.985c1.953-1.601 3.554-3.633 4.804-6.054 1.25-2.383 1.875-5.196 1.875-8.477 0-4.063-.898-7.461-2.734-10.313-1.836-2.812-4.14-5.117-6.992-6.875-2.813-1.796-6.016-3.085-9.57-3.828-3.555-.78-7.032-1.172-10.508-1.172-8.711 0-15.82 2.07-21.25 6.172-5.43 4.18-8.516 10.782-9.297 19.922h9.101c.352-6.172 2.617-10.82 6.68-13.906 4.062-3.125 9.14-4.688 15.195-4.688 2.227 0 4.492.235 6.836.704s4.531 1.328 6.563 2.46c1.992 1.133 3.672 2.618 4.96 4.376 1.29 1.796 1.954 3.984 1.954 6.562 0 2.227-.469 4.063-1.367 5.547a12.4 12.4 0 0 1-3.672 3.75c-1.563 1.015-3.32 1.836-5.274 2.5-1.953.703-3.945 1.25-5.976 1.758l-11.64 2.578q-4.455 1.172-8.204 2.695c-2.54.977-4.688 2.227-6.563 3.711a15.8 15.8 0 0 0-4.414 5.469c-1.054 2.187-1.562 4.844-1.562 8.008 0 3.75.82 6.992 2.5 9.648a19.65 19.65 0 0 0 6.562 6.484c2.696 1.641 5.703 2.813 9.024 3.594a42.6 42.6 0 0 0 9.844 1.172c3.75 0 7.226-.508 10.43-1.445 3.241-.977 6.054-2.461 8.515-4.453 2.422-2.032 4.375-4.532 5.82-7.5 1.446-3.008 2.266-6.485 2.461-10.508h-9.101c-.079 2.734-.664 5.195-1.72 7.265" style="fill-rule:nonzero;fill:#515f53;fill-opacity:1;stroke-width:1.5266;stroke-linecap:round;stroke-linejoin:round;stroke:#515f53;stroke-opacity:1;stroke-miterlimit:12.5" transform="matrix(.1 0 0 -.1 0 59)"/><path d="M30.25 16.383H19.754l-7.297 27.3H3.293l7.293-27.3H.09l2.117-7.887h30.16zM40.008 8.496h9.312l3.746 35.188h-9.562l-.441-6.555H30.789l-3.941 6.555h-9.364zm-5.324 22.078h7.984l-.594-12.32h-.097zM80.906 30.23a56 56 0 0 0 1.824 4.836 119 119 0 0 0 1.973 4.344c.723 1.524 1.445 2.961 2.168 4.32H76.324a61 61 0 0 1-1.726-3.835 94 94 0 0 1-1.45-3.98 32 32 0 0 1-1.21-4.712h-4.88l-3.398 12.48h-9.117l9.066-33.605a53 53 0 0 1 4.29-.922 81 81 0 0 1 4.777-.633 57 57 0 0 1 6.015-.293q3.498.001 6.059.805 2.565.804 4.117 2.305a7.22 7.22 0 0 1 2.043 3.644q.492 2.133-.246 4.758-1.282 4.566-3.867 7.016-2.589 2.454-5.89 3.472m.886-10.292q.69-2.672-.738-4.055-1.429-1.388-4.68-1.387-.988.002-1.898.121c-.61.082-1.141.156-1.602.219q-.837.147-1.477.293l-2.566 9.469h4.363c1.399 0 2.676-.121 3.844-.364q1.748-.363 2.98-1.336c.82-.648 1.415-1.632 1.774-2.96" style="stroke:none;fill-rule:nonzero;fill:#485253;fill-opacity:1"/><g clip-path="url(#a)"><path d="m119.547 3.242.012-.004s-1.243.543-3.383 4.2c0 0 1.031-2.098 1.66-3.204-3.781 2.293-7.973 5.496-10.707 9.575 0 0 .05-.168.348-2.024.003-.035.003-.062.015-.094 0 0-1.828 2.196-4.219 5.88-.277.456-3.23 5.406-3.93 9.144 0 0 .114-1.375.274-2.942-2.832 5.305-5.62 11.938-6.82 19.055 0 0 5.902-15.473 21.598-31.531 0 0-25.649 28.469-22.872 47.703-.168-1.676-.43-7.52 3.27-12.203.437-.18 1.242-.36 2.008.312 0 0-.16-.578-.574-.808 0 0 1.203-.348 2.062-.313 0 0-1.613-.238-2.242-.449.156-.039.777-.2 1.242-.18 0 0-.55-.082-.992-.175.324-.301.656-.598 1.031-.88 7.324-5.53 14.809-12.546 15.992-14.011 0 0-1.703 1.02-3.117 1.3 0 0 5.223-2.464 8.246-12.515a200 200 0 0 1 1.953-6.156l-3.558 1.262c2.082-1.258 3.402-2.38 4.207-3.157C123.133 5.063 125.062.855 126.46 0c0 0-3.063 1.098-6.914 3.242" style="stroke:none;fill-rule:nonzero;fill:#e52024;fill-opacity:1"/></g></svg>