<svg xmlns="http://www.w3.org/2000/svg" xmlns:xlink="http://www.w3.org/1999/xlink" width="176pt" height="72.773" viewBox="0 0 176 54.58"><defs><clipPath id="a"><path d="M19 8h42v46.578H19Zm0 0"/></clipPath></defs><path d="M40.188 27.648c0 11.098-8.997 20.094-20.094 20.094S0 38.746 0 27.648C0 16.551 8.996 7.555 20.094 7.555c11.097 0 20.094 8.996 20.094 20.093" style="stroke:none;fill-rule:nonzero;fill:#286b31;fill-opacity:1"/><path d="M19.313 14.531c0 1.887-1.547 3.414-3.458 3.414-1.906 0-3.453-1.527-3.453-3.414 0-1.883 1.547-3.41 3.453-3.41 1.91 0 3.457 1.527 3.457 3.41M11.586 17.656c0 1.606-1.2 2.907-2.676 2.907s-2.676-1.301-2.676-2.907c0-1.605 1.2-2.902 2.676-2.902s2.676 1.297 2.676 2.902M6.637 23.082c0 1.152-.86 2.082-1.918 2.082-1.063 0-1.918-.93-1.918-2.082C2.8 21.934 3.656 21 4.719 21c1.058 0 1.918.934 1.918 2.082M5.188 27.688c0 .921-.688 1.671-1.54 1.671-.851 0-1.539-.75-1.539-1.672 0-.925.688-1.671 1.54-1.671.851 0 1.539.746 1.539 1.672M4.89 31.387c0 .695-.519 1.258-1.16 1.258s-1.16-.563-1.16-1.258.52-1.262 1.16-1.262c.641 0 1.16.566 1.16 1.262M15.527 19.59c-5.543.215-9.129 3.57-9.863 10.355.668 6.313 3.2 6.032 5.176 6.086 3.594.125 6.5-2.605 6.308-4.511.028-1.329-1.171-4.508-.93-7.114-.05-1.73 1.606-3.496-.69-4.816M18.98 31.676c-.847 2.066-2.39 4.84-4.19 5.176-.673.433-1.063 1.035-1.196 1.523-.684 2.996.125 4.215 2.242 5.2 2.262.605 7.559-3.41 7.727-5.919.199-1.797.019-3.57-1.375-5.488-.637-1.04-2.442-1.672-3.27-.434" style="stroke:none;fill-rule:nonzero;fill:#fff;fill-opacity:1"/><path d="M23.207 20.559c1.844.242 5.352-1.758 4.672 3.257l-.399 19.43 16.938-24.004c2.973-6.73 7.773-6.445 11.836-8.387 3.41-1.851 4.262-6.261 4.934-10.851-2.016 2.598-1.86 6.348-5.918 7.398-11.387 1.664-14.086 8.52-16.938 12.825l-5.543 8.148-.867-8.312c-1.203-4.075-6.16-2.348-8.715.496" style="stroke:none;fill-rule:nonzero;fill:#f1a30f;fill-opacity:1"/><g clip-path="url(#a)"><path d="M19.293 52.594c2.664.234 5.312.445 6.16-1.742l17.559-26.977c1.937-3.062 4.832-8.344 6.676-8.922.058-.125 1.55-.91 2.597-1.195.067-.012 2.445-.762 2.445-.762.063.031 3.473-1.328 5.954-4.351-.43 3.378-.778 5.433-5.7 7.87l-3.05 2.005c-7.73 6.09-14.23 21.128-21.594 31.285l-3.723 4.183c-5.351 1.551-5.762-.32-7.324-1.394" style="stroke:none;fill-rule:nonzero;fill:#f1a30f;fill-opacity:1"/></g><use xlink:href="#b" x="52.539" y="32.188" style="fill:#286b31;fill-opacity:1"/><path d="M64.04 27.426h5.714v.457h-.313c-.21 0-.527.097-.918.289a3.4 3.4 0 0 0-1.101.816c-.324.367-.746.93-1.223 1.742-1.293 2.145-2.652 4.258-3.945 6.403v4.222c0 1.036.11 1.676.336 1.938.3.352.785.523 1.45.523h.53v.461h-6.953v-.46h.578c.684 0 1.188-.212 1.473-.645q.268-.398.266-1.817v-3.988c-1.473-2.367-3.02-4.691-4.496-7.058-.52-.836-.895-1.344-1.075-1.555-.187-.211-.593-.453-1.183-.746-.157-.086-.395-.125-.696-.125v-.457h7v.457h-.359c-.379 0-.727.086-1.04.273q-.484.288-.483.82c0 .301.246.833.738 1.622 1.12 1.82 2.293 3.605 3.418 5.425 1.054-1.738 2.156-3.449 3.21-5.195.477-.785.727-1.351.727-1.738 0-.235-.066-.434-.168-.621-.12-.188-.293-.32-.511-.438-.211-.097-.54-.148-.977-.148zM70.27 36.457h5.12c-.035-.73-.12-1.238-.25-1.535a2.46 2.46 0 0 0-.894-1.094 2.25 2.25 0 0 0-1.258-.402c-.664 0-1.273.258-1.785.797-.527.543-.848 1.277-.933 2.234m0 .723c-.012 1.691.398 3.011 1.195 3.98q1.21 1.44 2.84 1.438c.726 0 1.36-.203 1.898-.621.527-.414.98-1.102 1.34-2.102.125.086.25.164.375.25-.168 1.133-.676 2.156-1.477 3.094-.796.941-1.836 1.406-3.054 1.406-1.328 0-2.473-.523-3.407-1.602-.94-1.066-1.421-2.484-1.421-4.289 0-1.949.492-3.457 1.46-4.562.954-1.09 2.184-1.629 3.645-1.629 1.246 0 2.27.418 3.055 1.254.793.855 1.199 1.98 1.199 3.383zM82.602 29.156v3.739h2.585v.867h-2.585v7.383c0 .734.113 1.226.316 1.492a.94.94 0 0 0 .785.386c.266 0 .52-.086.774-.261.253-.164.445-.41.578-.75h.468c-.27.812-.68 1.414-1.195 1.828-.512.418-1.047.62-1.594.62a2 2 0 0 1-1.086-.32 1.94 1.94 0 0 1-.785-.906c-.164-.386-.254-.996-.254-1.82v-7.652h-1.754v-.407c.446-.19.903-.496 1.372-.933a7.7 7.7 0 0 0 1.23-1.54c.176-.312.453-.894.77-1.726zM90.078 32.555v9.148c0 .711.055 1.184.156 1.414.098.242.243.426.446.54.191.109.558.175 1.082.175v.445h-5.38v-.445c.544 0 .907-.05 1.087-.164.183-.113.34-.285.449-.535.11-.246.156-.719.156-1.43v-4.387c0-1.23-.039-2.035-.11-2.394-.058-.266-.148-.45-.26-.563-.122-.101-.298-.148-.5-.148-.227 0-.493.059-.821.184q-.084-.223-.168-.446c1.105-.472 2.222-.922 3.332-1.394zm-1-5.95c.336 0 .629.122.871.36.223.25.348.547.348.894 0 .348-.125.645-.348.895a1.16 1.16 0 0 1-.87.371 1.15 1.15 0 0 1-.872-.371 1.24 1.24 0 0 1-.363-.895q0-.52.363-.894.34-.358.871-.36M108.16 37.719c-.91-2.282-1.87-4.54-2.781-6.813-.934 2.274-1.91 4.532-2.852 6.813zm.336.914h-6.34c-.367.89-.746 1.773-1.11 2.66-.276.66-.41 1.145-.41 1.469 0 .261.122.48.36.668.23.203.75.32 1.531.386v.461h-5.152v-.46c.684-.126 1.121-.286 1.328-.485.402-.402.879-1.203 1.363-2.422 1.887-4.637 3.875-9.234 5.758-13.87h.426c1.863 4.687 3.836 9.331 5.7 14.019.452 1.132.886 1.847 1.253 2.183.375.34.902.54 1.563.574v.461h-6.461v-.46q.98-.053 1.328-.333a.88.88 0 0 0 .336-.699c0-.36-.16-.941-.48-1.726-.329-.809-.669-1.614-.993-2.426M119.633 32.555v9.148q-.002 1.068.156 1.414c.094.242.242.426.445.54.196.109.559.175 1.079.175v.445h-5.376v-.445c.543 0 .907-.05 1.086-.164.18-.113.34-.285.446-.535.105-.246.16-.719.16-1.43v-4.387c0-1.23-.035-2.035-.11-2.394-.058-.266-.148-.45-.265-.563-.121-.101-.29-.148-.496-.148-.23 0-.496.059-.82.184q-.088-.223-.168-.446c1.105-.472 2.222-.922 3.332-1.394zm-1.004-5.95q.511.002.875.36c.223.25.348.547.348.894 0 .348-.125.645-.348.895a1.16 1.16 0 0 1-.875.371c-.34 0-.625-.117-.867-.371a1.24 1.24 0 0 1-.364-.895q0-.52.364-.894c.226-.238.52-.36.867-.36M125.926 32.555v2.562c.914-1.707 1.87-2.562 2.847-2.562q.676-.001 1.098.414.436.432.438.968c0 .32-.11.594-.317.82a.96.96 0 0 1-.746.337c-.277 0-.598-.145-.941-.434-.348-.293-.618-.426-.785-.426-.145 0-.305.09-.473.25-.36.34-.742.895-1.121 1.68v5.453c0 .637.074 1.106.23 1.43.106.223.29.406.555.558.262.149.652.227 1.144.227v.445h-5.664v-.445c.57 0 .985-.09 1.258-.277q.303-.205.418-.633c.04-.137.067-.547.067-1.207v-4.41c0-1.332-.028-2.114-.075-2.371-.058-.25-.16-.434-.293-.551a.82.82 0 0 0-.527-.172 2.3 2.3 0 0 0-.848.184 19 19 0 0 0-.12-.446c1.113-.472 2.238-.922 3.347-1.394zM134.73 26.605v15.098c0 .711.047 1.184.157 1.414.093.242.254.41.457.528.207.12.605.187 1.176.187v.445h-5.426v-.445c.508 0 .855-.05 1.039-.164.18-.113.328-.285.433-.535.106-.246.16-.719.16-1.43V31.367c0-1.281-.027-2.078-.085-2.379-.063-.281-.145-.48-.266-.59a.7.7 0 0 0-.484-.164c-.203 0-.473.059-.797.2l-.207-.438c1.093-.473 2.203-.918 3.297-1.39zM141.613 32.555v9.148q-.001 1.068.157 1.414c.093.242.246.426.449.54.191.109.55.175 1.074.175v.445h-5.375v-.445c.547 0 .906-.05 1.09-.164.18-.113.336-.285.441-.535.11-.246.156-.719.156-1.43v-4.387c0-1.23-.035-2.035-.105-2.394-.062-.266-.145-.45-.266-.563-.12-.101-.289-.148-.492-.148-.234 0-.5.059-.824.184q-.084-.223-.168-.446c1.105-.472 2.223-.922 3.332-1.394zm-1.004-5.95c.34 0 .633.122.871.36q.346.374.348.894 0 .521-.348.895a1.14 1.14 0 0 1-.87.371c-.337 0-.63-.117-.868-.371a1.25 1.25 0 0 1-.363-.895c0-.347.125-.644.363-.894.227-.238.52-.36.867-.36M147.895 34.969c1.273-1.614 2.535-2.414 3.71-2.414.598 0 1.122.144 1.555.46.434.317.79.837 1.04 1.544.175.496.269 1.254.269 2.285q-.006 2.432 0 4.86c0 .722.058 1.206.164 1.468.082.21.23.371.433.484.196.11.559.176 1.09.176v.445h-5.472v-.445h.23c.516 0 .883-.09 1.086-.254.203-.16.34-.394.426-.703.035-.129.043-.516.043-1.172v-4.66c0-1.027-.133-1.785-.383-2.258-.262-.465-.715-.7-1.328-.7-.953 0-1.922.528-2.863 1.618v6c0 .77.046 1.242.128 1.43q.166.355.477.523c.191.11.59.176 1.195.176v.445h-5.472v-.445h.242q.841-.001 1.144-.45c.196-.288.29-.843.29-1.679V37.48c0-1.367-.024-2.199-.083-2.5-.058-.296-.156-.492-.277-.609-.133-.113-.3-.16-.512-.16q-.337-.002-.804.184c-.059-.149-.125-.297-.18-.446 1.105-.472 2.227-.922 3.332-1.394h.52zM158.895 36.457h5.12c-.035-.73-.12-1.238-.25-1.535a2.44 2.44 0 0 0-.898-1.094 2.23 2.23 0 0 0-1.254-.402c-.664 0-1.273.258-1.789.797-.523.543-.844 1.277-.93 2.234m0 .723c-.008 1.691.398 3.011 1.195 3.98.8.961 1.754 1.438 2.84 1.438.726 0 1.36-.203 1.894-.621.531-.414.988-1.102 1.34-2.102.125.086.254.164.379.25-.168 1.133-.676 2.156-1.477 3.094-.796.941-1.836 1.406-3.054 1.406-1.328 0-2.477-.523-3.407-1.602-.94-1.066-1.421-2.484-1.421-4.289 0-1.949.492-3.457 1.457-4.562.957-1.09 2.187-1.629 3.652-1.629 1.242 0 2.266.418 3.055 1.254.785.855 1.195 1.98 1.195 3.383zM175.164 32.555v3.879h-.394c-.301-1.215-.708-2.043-1.176-2.485-.477-.437-1.098-.656-1.832-.656-.57 0-1.02.145-1.367.457-.348.316-.52.645-.52 1.02 0 .46.137.855.387 1.19.25.34.765.692 1.523 1.083.582.297 1.176.582 1.762.883 1.625.832 2.453 1.902 2.453 3.242 0 1.031-.383 1.86-1.137 2.5-.758.64-1.617.957-2.562.957-.672 0-1.45-.121-2.317-.371a2 2 0 0 0-.656-.125c-.18 0-.328.11-.43.324h-.402v-4.066h.402c.223 1.156.657 2.035 1.29 2.625.632.586 1.355.879 2.136.879.559 0 1.02-.172 1.363-.508.352-.34.524-.735.524-1.207 0-.57-.195-1.055-.582-1.442-.395-.39-1.176-.875-2.344-1.48-1.164-.602-1.933-1.125-2.293-1.613-.355-.477-.543-1.07-.543-1.79 0-.93.32-1.706.942-2.351.613-.64 1.425-.945 2.418-.945.433 0 .964.097 1.582.289.41.125.687.183.82.183s.226-.023.3-.082c.075-.062.16-.187.259-.39z" style="stroke:none;fill-rule:evenodd;fill:#286b31;fill-opacity:1"/></svg>