<svg xmlns="http://www.w3.org/2000/svg" width="176pt" height="73.307" viewBox="0 0 176 54.98"><defs><clipPath id="a"><path d="M0 0h62v54.98H0Zm0 0"/></clipPath><clipPath id="b"><path d="M58 0h104v54.98H58Zm0 0"/></clipPath></defs><path d="M2.363 39.926c-.105-.684-.215-1.332-.047-2.059l.012-.043v-.172c0-1.113-.078-2.308.078-3.343.082-.637.242-1.274.242-1.91v-.016l-.011-.086-.016-.223c-.09-.566-.383-1.047-.453-1.586-.078-.636 0-1.273 0-1.91 0-1.558-.152-3.273.066-4.84a4 4 0 0 0-.078-.52c.063.063.125.079.149.118l-.004.023c-.215-.261-.063-1.023-.063-1.332C2.156 21.31 2 20.594 2 19.797c0-.715-.082-1.512 0-2.309.078-.957.238-1.91.238-2.863 0-.719-.238-1.355-.16-2.07.078-.797.477-1.516.477-2.39 0-.556-.157-1.114-.078-1.673 0-.476.238-.875.16-1.351-.082-.559-.16-1.114-.16-1.672 0-.715-.079-1.512-.079-2.23 0-.157-.082-.716.079-.876.16-.238.718-.16.953-.16.558 0 1.035.32 1.593.242.637 0 1.196-.16 1.832-.16.477.078.875.238 1.352.317.48.16 1.035.238 1.594.238.636 0 .875-.317 1.43-.477.64-.238 1.195.082 1.832.32.718.239 1.433.239 2.152.239.394 0 .555-.082.953-.238.477-.082.957 0 1.434-.16.476-.239 1.113-.16 1.671-.239.477-.082 1.036-.398 1.512-.238.399.156.637.398 1.113.398.559.078 1.118.157 1.672.078.399-.078 1.594-.558 1.832-.16-.316-.398 1.035-.316 1.274-.238.48.238.797.32 1.355.238.477-.078 1.035-.238 1.512-.078.238 0 .477.238.715.317.32.082.719.082 1.035.082.559.078 1.195.238 1.75.078.64-.16 1.117-.239 1.754-.239.555 0 1.113-.16 1.672-.16h.953c.48.082.719.16 1.273.082.399 0 .88 0 1.356.078.238.079.554.239.797.239.398 0 .715-.078 1.113-.16.398 0 .797.082 1.273.082.399 0 .637.238 1.036.238.558 0 1.195-.477 1.832-.559.394-.078.875 0 1.273 0 .398-.078.875-.16 1.191-.16.32 0 .559.16.797.16.317.082.637 0 .957.082h.875c.477-.082.793.078 1.274.157 1.433.238 2.785-.477 4.218-.399.395.059.75.195 1.122.27.507-.098.996-.176 1.52-.188.12-.031.245-.062.382-.082.625-.078 1.172.227 1.789.39.344-.081.676-.23 1.066-.23.715 0 1.352 0 2.067-.078.558-.082 1.113-.16 1.594-.082.28 0 .503.106.726.227.363-.055.707-.172 1.117-.227.875-.238 1.832-.238 2.707-.238.637 0 1.274.16 1.832.16.555-.078 1.036-.078 1.512.078l.098.043c.39-.098.773-.137 1.242.04.207.097.434.175.672.241.219-.05.433-.12.695-.164 1.113-.078 2.227-.398 3.344-.316.398 0 .715.238 1.113.316.828.278 1.656.325 2.485.325h.035c.828 0 1.656-.047 2.48-.325.399-.078.719-.316 1.117-.316 1.114-.082 2.23.238 3.34.316.266.043.477.114.7.164.234-.066.46-.144.667-.242.473-.176.856-.137 1.243-.039l.101-.043c.473-.156.953-.156 1.512-.078.558 0 1.191-.16 1.828-.16.875 0 1.832 0 2.71.238.407.055.755.172 1.114.227.227-.121.445-.227.73-.227.477-.078 1.036 0 1.59.082.715.078 1.352.078 2.07.078.388 0 .72.149 1.063.23.618-.163 1.164-.468 1.79-.39q.202.032.382.082c.524.012 1.016.09 1.524.188.37-.075.722-.211 1.12-.27 1.43-.078 2.786.637 4.22.399.476-.079.792-.239 1.273-.157h.875c.316-.082.637 0 .957-.082.234 0 .477-.16.793-.16s.797.082 1.191.16c.403 0 .88-.078 1.278 0 .636.082 1.273.559 1.832.559.394 0 .632-.238 1.03-.238.478 0 .88-.082 1.274-.082.403.082.715.16 1.118.16.238 0 .554-.16.793-.239.48-.078.96-.078 1.355-.078.559.078.797 0 1.273-.082h.957c.555 0 1.114.16 1.668.16.637 0 1.118.079 1.754.239.559.16 1.196 0 1.75-.078.32 0 .715 0 1.036-.082.242-.079.476-.317.714-.317.48-.16 1.036 0 1.516.078.559.082.875 0 1.352-.238.238-.078 1.59-.16 1.273.238.238-.398 1.434.082 1.832.16.559.079 1.113 0 1.672-.078.476 0 .715-.242 1.113-.398.48-.16 1.035.156 1.512.238.558.078 1.195 0 1.676.238.472.16.953.079 1.43.16.398.157.558.239.952.239.72 0 1.434 0 2.153-.238.637-.239 1.191-.559 1.832-.32.555.16.797.476 1.43.476.558 0 1.117-.078 1.593-.238.477-.079.875-.239 1.356-.317.636 0 1.191.16 1.828.16.558.078 1.035-.242 1.594-.242.238 0 .797-.078.957.16.156.16.078.719.078.875 0 .719-.078 1.516-.078 2.23 0 .56-.082 1.114-.16 1.673-.083.476.16.875.16 1.351.078.559-.082 1.117-.082 1.672 0 .875.398 1.594.476 2.39.078.716-.156 1.352-.156 2.071 0 .953.156 1.906.234 2.863.082.797 0 1.594 0 2.309 0 .797-.156 1.512-.234 2.23 0 .309.148 1.07-.066 1.332l-.004-.023c.023-.04.09-.055.148-.117-.039.172-.062.343-.078.52.219 1.566.066 3.28.066 4.84 0 .636.078 1.273 0 1.91-.066.538-.363 1.019-.453 1.585l-.012.223-.011.086v.015c0 .637.16 1.274.238 1.91.156 1.036.078 2.231.078 3.344v.172l.012.043c.168.727.059 1.375-.047 2.059q.006.446.035.91c0 .559.078 1.195.238 1.754.243.715.083 1.43 0 2.148-.078 1.035-.078 2.07-.394 3.106-.16.476-.238 1.035-.16 1.59.078.558.316 1.117.316 1.671.078.399.078.797-.316.958-.559.238-1.356.238-1.91.316-.797.16-1.512.32-2.313.32-.473 0-.875-.238-1.348-.32-.636-.16-1.117.238-1.753.238-.715 0-1.356 0-2.07.082-.555.078-1.118.156-1.595.078-.554 0-.875-.398-1.43-.558-.48-.157-1.355 0-1.991 0h-2.149c-.637.082-1.351.16-1.988.398-.559.16-1.035.32-1.676.082-1.031-.48-2.465-.558-3.66-.558-.875-.078-1.75.16-2.629.238-.316 0-.637-.078-.953-.078-1.191 0-2.39-.082-3.582.316-.399.082-.719.32-1.113.32-1.118.079-2.235-.238-3.344-.32-.48-.078-.797-.238-1.277-.238-.555.082-.875.16-1.43.398-.48.16-.953.16-1.516.078-.554 0-1.191.16-1.828.16-.875 0-1.832 0-2.707-.238-.637-.078-1.113-.316-1.75-.238h-1.832c-.953 0-1.988-.398-2.945-.16-.637.16-1.196.476-1.832.398l-.07-.011c-.231.047-.532.011-.688.011-.442 0-.832-.199-1.258-.242-.328.074-.652.192-1.008.242-1.433.078-2.789-.636-4.219-.398-.43.07-.726.207-1.128.176-.063.023-.121.047-.192.062-.387.149-.75.086-1.117-.043-.223.012-.445-.011-.668.043-.238 0-.477.16-.797.16-.316 0-.797-.078-1.191-.16-.399 0-.875.082-1.274 0-.277-.035-.55-.14-.82-.254a2 2 0 0 0-.5.098c-.473.238-1.113.156-1.668.238-.48.078-1.039.399-1.512.239-.402-.16-.64-.399-1.117-.399q-.257-.036-.508-.066c-.453.066-.902.066-1.28.066l-.13-.016c-.508.145-1.383.43-1.586.094.32.399-1.035.32-1.273.238-.477-.238-.793-.316-1.352-.238-.48.082-1.035.238-1.511.082-.243 0-.481-.238-.72-.32-.28-.07-.624-.078-.921-.078h-.02c-.297 0-.64.008-.925.078-.239.082-.477.32-.715.32-.48.156-1.035 0-1.512-.082-.559-.078-.879 0-1.355.238-.239.083-1.594.16-1.274-.238-.2.336-1.078.051-1.586-.094l-.129.016c-.375 0-.828 0-1.281-.066q-.254.03-.508.066c-.476 0-.715.238-1.113.398-.477.16-1.035-.16-1.512-.238-.558-.082-1.195 0-1.672-.238a1.9 1.9 0 0 0-.5-.098c-.27.114-.543.219-.816.254-.399.082-.875 0-1.274 0-.398.082-.878.16-1.195.16-.316 0-.558-.16-.797-.16-.222-.054-.445-.031-.668-.043-.367.13-.726.192-1.117.043a1.3 1.3 0 0 1-.187-.062c-.403.03-.703-.106-1.13-.176-1.433-.238-2.788.476-4.222.398-.355-.05-.676-.168-1.008-.242-.422.043-.812.242-1.254.242-.16 0-.46.035-.691-.011l-.07.011c-.637.078-1.196-.238-1.832-.398-.954-.238-1.989.16-2.946.16h-1.832c-.633-.078-1.113.16-1.75.238-.875.239-1.828.239-2.707.239-.636 0-1.273-.16-1.828-.16-.559.081-1.035.081-1.516-.079a4.9 4.9 0 0 0-1.43-.398c-.48 0-.796.16-1.273.238-1.117.082-2.23.399-3.343.32-.399 0-.72-.238-1.118-.32-1.191-.398-2.386-.316-3.582-.316-.316 0-.636.078-.953.078-.875-.078-1.754-.316-2.629-.238-1.191 0-2.625.078-3.66.558-.637.239-1.113.078-1.672-.082-.636-.238-1.355-.316-1.992-.398h-2.148c-.637 0-1.512-.157-1.989 0-.558.16-.875.558-1.433.558-.477.078-1.035 0-1.594-.078-.715-.082-1.351-.082-2.07-.082-.637 0-1.114-.398-1.75-.238-.477.082-.875.32-1.352.32-.797 0-1.515-.16-2.308-.32-.559-.078-1.356-.078-1.91-.316-.399-.16-.399-.56-.32-.958 0-.554.237-1.113.32-1.671.078-.555 0-1.114-.16-1.59-.321-1.035-.321-2.07-.4-3.106-.077-.718-.237-1.433 0-2.148a6.6 6.6 0 0 0 .24-1.754c.023-.309.03-.613.034-.91" style="stroke:none;fill-rule:evenodd;fill:#fcd313;fill-opacity:1"/><g clip-path="url(#a)"><path d="M.688 27.879c.558 0 1.246-.125 1.804-.125.5 0 1-.125 1.563-.125.496.062.683.312 1.12.5.75.371 1.747.371 2.618.433.625.063 1.062.625 1.684.563.312 0 .437-.125.687-.187.438-.063.996 0 1.434 0 .375 0 1-.125 1.433 0 .25.125.5.437.813.625.437.187 1.058.375 1.62.375.438 0 .626-.254 1.06-.375.374-.063 1.124-.375 1.496-.125 0 .37.312.558.312.933 0 .313-.187.688-.434.813-.375.187-.812.125-1.187.187-.496.125-1.121.371-1.434.809-.25.312-.312.812-.5 1.12-.187.376-.187.876-.62 1-.5.126-.75-.374-1.188 0-.313.25-.25.626-.371.997-.25.125-.313.25-.563.312-.187 0-.375-.125-.625-.062-.25.062-.375.312-.558.437-.188.188-.438.25-.625.375-.5.25-.75.621-1.122.996-.25.188-.437.5-.75.688-.25.246-.687.246-.933.496-.129.063-.25.25-.375.313-.438.312-.996.5-1.496.75-.375.25-.75.5-1.188.687-.246.184-.87.934-.062.871.187 0 .437-.187.562-.25.313-.125.5-.062.813-.125.433 0 .87-.062 1.308-.062.25 0 .438.062.621-.125.188-.125.125-.438.25-.621.313-.375.938-.5 1.313-.813.25-.187.496-.437.746-.562.438-.247.688-.063 1.059-.063.687.125 1.25-.184 1.5-.809.496 0 1.058-.25 1.558-.25.438-.062.934-.062 1.309-.375.312-.246.437-.558.75-.683.496-.188 1.058-.125 1.496-.375.5-.25.746-.563 1.309-.625.187-.063.5-.125.687-.063.125 0 .184.063.246.063.313.062.375.187.688.125.5-.125 1.558-1.371 2.183-.934h.063c-.063.434-.25.871-.688 1.059-.562.187-.746.062-.996.75-.187.621-.625 1.308-.687 1.992-.063.5 0 .75-.25 1.25-.621 0-1.059.313-1.059.996 0 .375.125.5-.125.813s-.687.437-.871.808c-.188.5.312.375.621.625.75.625-.187.996-.5 1.434-.246.312-.187.75-.309 1.12-.125.563-.25 1.126-.25 1.747-.062.5-.812 2.996.125 2.934-.187-1.125.434-1.934.934-2.809.438-.746 1.121-1.809 1.871-2.242.313-.188.75-.25.813-.688 0-.375-.438-.687 0-1.062.433-.309.808.066 1.246-.059.558-.125.5-.5.312-.875-.187-.375-.25-.496.188-.808.187-.125.433-.063.62-.125.188-.063.25-.25.376-.313.375-.187.625 0 .933-.312.313-.25.375-.313.375-.688 0-.308-.125-.62.188-.87.25-.126.625 0 .875-.188.433-.375.433-1.122.933-1.559.25.25.125.746 0 1.059-.125.375-.187.687-.062 1.062.188.496.5.871.871 1.184.25.25.25.125.313.5.062.187 0 .437-.063.625-.125.62-.371 1.12-.371 1.742-.062.562-.062.937.309 1.312.937 1.121.625 2.68.875 4.051-.063-.062-.125-.062-.188-.125-.062.813.438 1.5.375 2.309 0 .875-.125 1.62.375 2.37.121.188.371.247.496.497.188.187.125.375.188.562.187.25.437.438.687.125.313-.375.063-1.746.063-2.183-.438-.063-.813-.746-.5-1.059.187-.187.562-.062.75-.187.125-.125.183-.5.183-.625 0-.438-.058-.188-.183-.496a.49.49 0 0 1-.125-.5c.058-.563.433-.313.683-.625.125-.25 0-.996 0-1.246 0-.5.063-.938.063-1.372.062-1.12-.125-2.183 0-3.304.125-.75.125-1.309.437-1.996.25-.625.563-.5 1.184-.688.25-.496-.188-.746-.375-1.058-.059-.25-.188-1.122-.121-1.309.125.187.308.559.558.434v.062c.188-.062.375-.125.563-.25.437-.125.562 0 .996.066-.188 1.184.75 2.555 1.434 3.43.437-.125.687.121.875.371.312.375.187.688.437 1.059.25.5.684.191 1.121.441.125.059.313.434.5.559.125.125.25.187.375.375.059.125.059.25.246.312.125.063.375-.062.563 0 .437.125.875.621 1.187.996.621.625.684 1.684 1.246 2.434 0-.062-.062-.062-.062 0 .125.246.312.559.375.871a2.6 2.6 0 0 0 1.058-1.371c.125-.5-.125-.812-.437-1.184-.188-.25-.371-.562-.621-.812-.188-.188-.688-.313-.625-.688 0-.246.375-.308.437-.558.063-.25-.187-.813-.312-1.063-.125-.558-.5-1.37-1.246-.996-.563-.437-1.063-.933-.563-1.558.25-.375.684-.688.313-1.184-.063-.062-.25-.125-.375-.187-.125-.063-.5 0-.563-.063-.187-.062-.562-.75-.683-.937-.313-.497.187-1.122.187-1.622-.125-.87-.562-1.496-.937-2.304.5.125.812.496 1.246.683.375.188.375 0 .75-.125.687-.187.87.563 1.37.75.188.125.563.063.813.063.25-.625.934-.125 1.246.062-.625 1.246 1.434 1.059 2.122 1.309.558.25 1.183.687 1.746.812.558.06 1.183.125 1.746 0 .437-.125.87-.25 1.12.434.126.438-.124.563.376.75.562.188.62-.187 1.183-.25.438 0 .938.063 1.371.25.5.188.876.621 1.31.934.25.187 1.124.75 1.5.562.62-.25.062-.562-.25-.746-.188-.066-.376-.187-.563-.25-.188 0-.438.063-.621 0-.5-.25-.188-.75-.5-1.125-.376-.375-.938-.871-1.372-1.121-.687-.313-1.25-.688-1.87-1.059-.313-.125-.626-.5-.938-.625-.309-.125-.313 0-.621.063-.563.125-.813.125-.938-.5-.062-.313-.187-.809-.558-.934-.375-.125-.75.25-1.125.188-.746-.13-.934-.688-1.434-1.063-.25-.187-.5-.312-.687-.562-.122-.184-.188-.434-.31-.621-.187-.375-.75-.875-1.124-1.125-.496-.246-.996.25-1.371-.246-.375-.438-.25-1.063-.75-1.5.312-.309 1.062.066 1.437 0 .496 0 .996-.184 1.496-.184s.997.125 1.434 0c.5-.187.809-.375 1.309-.375.625 0 1.125.125 1.746-.062.562-.125 1.058-.438 1.62-.625.626-.188 1.188-.125 1.81-.247.5-.066.937-.375 1.37-.562.626-.188.938.308 1.56.25.437-.063.75-.5 1.124-.563.496-.062.559.313.996.438.5.183.688-.125 1.188-.125.308-.063 2.492.25 2.304-.313-.25-.75-2.43-.312-2.93-.687.126-.313-.187-.5-.437-.559-.375-.066-.312.125-.562.309a1.2 1.2 0 0 1-.621.187c-.375.063-.313-.125-.563-.312-.5-.371-1.059-.246-1.621-.059-.562.246-.934 0-1.496 0-.5 0-.996-.25-1.496-.187-.375-.004-.813.308-1.246.062-.5-.25-.25-.812-.5-1.187-.313-.313-1.246-.246-1.621-.246-.875 0-1.309.62-2.246.433-.747-.187-1.06-.687-1.997-.562-.683.062-1.246.562-1.992.437-.562-.187-1-.808-.562-1.37.312-.438.933-.25 1.37-.313.75-.125.5-.746 1.06-1.059.5-.312.75.313 1.374.063.622-.25 0-.875.059-1.434.313 0 .688-.5 1.063-.625.187-.125.683-.25.875-.125.183.063.246.375.433.5.438-.187 1.434-.75 1.684-1.187.187-.372-.125-.872 0-1.122.187-.25.812-.25 1.058-.375.438-.125.563-.246.813-.558.312-.313.812-.5 1.246-.688.812-.5 1.809-.812 2.434-1.558.312-.375.624-.625 1.12-.813.438-.12.938-.246 1.25-.62-.312-.876-2.058.745-2.495.745-.25 0-.313-.125-.626-.062-.37.062-.808.25-1.183.375-.563.25-1.184.312-1.684.625-1.12.683-2.246 1.058-3.554 1.12-.871.063-1.746.188-2.555.376-.75.187-1.684.312-2.371.812 0-.004-.063.059-.063.059s.125-.059.188-.125c.125.312.125.437 0 .687-.188.375-.438.25-.809.25-.5 0-1.125.125-1.5.5.313.372-.808.559-1.058.372-.5-.434.125-.997.187-1.434.309-1.371-.062-2.68.559-3.992.187-.371.375-.809.625-1.184.312-.312.996-.37 1.187-.683.184-.25-.066-.75 0-1.063.063-.5.309-.621.621-.934.313-.375.313-1.062.5-1.496.25-.5.621-.875.746-1.496.063-.5-.125-1.187.313-1.62.312-.313 1.246 0 1.309-.5.125-.5-.622-.626-.747-1-.25-.497.313-.684.434-1.06-.371-.187-.809.438-.871.688-.188.496-.125.684-.563.996-.87.5-1.496 1.434-2.18 2.184-.374.437-.687.933-1.062 1.37-.312.313-.687.438-.562.81.062.374.5.437.25.874-.063.188-.188.25-.375.375-.246.25-.559.188-.809.438-.437.246-.187.746-.312 1.184-.746.125-1.184.87-1.621 1.433-.438.625-.375.25-.997.25-.375 0-.5.25-.687.5-.188.309-.25.746-.563.996-.246.125-.683.125-.87.375-.25.313-.063.684-.063.996-.063.188-.375.625-.5.625-.188-.437-.25-.687-.188-1.125.125-.62.063-.808-.187-1.37-.246-.497.062-.934-.121-1.434-.125-.375-.188-.313-.563-.438-.437-.125-.5-.187-.625-.558-.062-.5.063-.938.125-1.372 0-.125-.062-.187-.062-.25.062-.125.187-.125.25-.25a2.2 2.2 0 0 0-.125-.625c-.25-.437-.5-.746-.375-1.308.062-.25.187-.375.062-.688-.062-.312-.25-.37-.37-.62-.13-.376 0-.813-.063-1.126 0-.125 0-.433-.067-.558-.058-.188-.308-.25-.433-.438-.375-.437-.063-.562.187-.875.246-.308 0-.683.188-1.058.058-.375.433-.5.125-.813-.25-.371-.688-.187-.938-.496-.437-.562.125-.5.375-.75.188-.187.125-.75.063-.996-.125.187-.188.559-.375.746-.188.125-.5.188-.625.313-.621.562 0 1.246-.184 1.87-.375.934-.437 1.56-.375 2.56 0 .187 0 .433-.125.62-.062.125-.187 0-.312.125-.25.188-.375.5-.188.813.125.433.375.187.688.437.187.184.125.809-.063.871-.375.188-.687-.312-.875.25-.125.188 0 .871.125 1.059.063 0 .125.062.25.062-.125 1.184-.062 2.434-.125 3.618 0 .062-.062 0-.062.062.187.375-.25.438-.5.563-.497.12-.497.25-.434.746.063.312.371.75.309 1-.059.246-.559.558-.747.808-.25-.562-.812 0-1.183-.125-.375-.125-1-1.183-1-1.62-.063-.438.187-.934-.434-1.184-.25-.125-.437.187-.625.062-.187-.062-.375-.562-.437-.687-.375-.621-1.059-.996-1.371-1.559-.188-.437-.25-.996-.625-1.434-.125-.125-.434-.125-.559-.312-.187-.25-.062-.563-.25-.809-.25-.437-.875-.312-1.246-.562-.125-.063-.125-.375-.25-.438.063 0 .063.063.125.063-.312-.313-.812-.5-1.184-.809-.253-.187-.312-.562-.625-.75-.312-.25-.875-.062-1.062-.5-.188-.37.25-1.058.375-1.37-.313.124-.996-.997-1.309-1.247-.75-.375-.75.25-.437.809.312.5.437 1.062.625 1.625.062.183.125.496.312.62.246.25.559.188.809.313.5.188.5.875.437 1.371 0 .25 0 .313-.125.5-.125.188-.375.188-.375.438-.062.121.125.683.25.808.313.188.5-.062.872 0 .625 0 .625.688.75 1.247 0 .187.062.312 0 .5-.438.062-.625.25-.563.75.066.558.438.433.813.62.5.25.437.75.562 1.188.121.434.434.684.684.996.25.375.125.375.062.813-.062.558.125 1.37.563 1.808.125.184.375.184.496.371.125.188.125.5.187.75.188.438.375.872.563 1.372-.438-.375-1.059-.563-1.559-.81a1.5 1.5 0 0 0-.687-.374c-.188-.063-.559-.063-.746-.188-.25-.125-.125-.375-.313-.562-.062-.125-.312-.25-.437-.25-.5-.188-.684.187-1.184.125-.188 0-.625-.063-.75-.188-.25-.312.062-.37 0-.62-.184-.688-.871-.25-1.246-.188-.5.062-.996-.313-1.434-.438-.375-.062-.875 0-1.308 0 0 .063.058.063 0 .063-.313 0-1.125-.125-1.438-.375-.246-.188 0-.809-.433-1.059-.188-.125-.438-.125-.563-.125-.312 0-.437.25-.625.25-.184.063-.496-.125-.684-.125-.375.063-.187.188-.5.25-.996.313-.562-1.187-1.433-1.37-.438-.067-.25.062-.563.245-.25.188-.187.188-.5.063-.308-.063-.496-.063-.62-.246-.126-.188 0-.438-.25-.688-.188-.187-.688-.25-.934-.062 0 .312.37.437.558.62.25.192.313.438.5.688.313.438 1.121 1 1.621 1.246.438-.62 1.371-.062 1.996.188.872.375 1.622 1 2.43 1.62.563.5 1.496 1 1.621 1.685.063.25.063.437.25.625.188.25.688.437.938.562.375.188 1.246.25 1.433.559.25.437-.375.875 0 1.25.25.37.813.187 1.121.125.375-.063.25-.125.625.183.25.188.438.375.625.563.497.625.497.875.188 1.496-.25.437-.438.875-.875.25-.188-.25-.125-.371-.438-.563-.312-.183-.496-.183-.808-.183-.438 0-.938-.125-1.184.246-.312.5-.125 1.062-.875.937-.25 0-.5-.187-.812-.187-.434-.063-.746.125-1.121.312-.625.188-1.371-.062-1.934.313-.062.062 0 .187-.062.246-.063.066-.25.066-.375.125-.247.062-.497.25-.809 0-.188-.188-.25-.434-.5-.559-.313-.125-.684-.125-.996-.187 0 0 .062.062.121.062-.496-.187-.871.188-1.121.559-.434.687-1.621 1.125-2.43.812-.187-.062-.375-.187-.562-.25-.25 0-.5.125-.688.063-.246-.063-.308-.25-.683-.188-.375 0-.313.125-.563.313-.371.312-.871-.063-1.246.437.063.313.563.375.75.622-.062-.06-.062-.122-.062-.184" style="stroke:none;fill-rule:evenodd;fill:#f5792a;fill-opacity:1"/></g><g clip-path="url(#b)"><path d="M141.813 3.629S139.37.37 135.895.519c-3.48.223-8.364 2.516-9.547 6.22-1.184 3.773-1.11 4.808-1.11 4.808l-.37.293.073.445-.144 1.035-.152.594h-.293l.445 1.332s-.074 1.332.144 6.734c.297 5.325 1.48 16.055.371 19.383-1.039 3.258-3.406 5.922-5.699 6.883-2.293 1.035-6.508 1.035-6.508 1.035s2.739 4.07 5.696 3.996c2.886-.074 4.363-1.55 4.363-1.55l.371.812.371-.887.52.075.738-1.555s2.441-2.442 3.328-4.883c.961-2.52 1.703-7.402 1.406-15.316-.293-7.922-.445-18.207.743-21.313 1.18-3.105 8.214-5.105 11.172-5.031m-23.086 24.27s-7.993.37-9.696.593c-1.699.219-3.844-.222-4.289 4.067-.37 4.367-.594 10.062 1.184 11.914 1.773 1.851 3.922 2.07 5.402 1.554 1.402-.52 2.813-1.332 2.813-1.332s-1.036 2.813-2.52 3.996c-1.476 1.184-4.289 1.922-4.289 1.922l-.223.594-.445-.742-.441.742H106l-.148-.742s.074.074-.516-.074c-.52-.07-4.293-.293-5.031-5.77-.817-5.476-.45-11.469 0-15.39.515-3.922 2.363-12.282 3.398-14.946 1.04-2.594 3.777-8.363 6.219-9.398 2.516-1.035 5.473-.813 5.695-.739.227.149.668-.37.668-.37l.367.367.371-.22.223.516s.817.372 1.332.891c.442.441 1.11.145.52 3.106-.594 2.886-1.407 5.773-1.407 5.773h-.445s-.223-1.406-1.11-3.258c-.96-1.848-1.554-3.476-3.109-3.55-1.629-.15-2.738 2.292-3.77 4.66-1.112 2.367-2.663 6.808-2.89 9.324-.144 2.515.668 3.847 2.297 4.144 1.625.367 11.617.59 11.617.59ZM58.57 45.507s2.07-.961 2.367-1.477c.372-.445 2.368-6.957 2.887-10.36.52-3.405 1.48-13.023 1.48-15.538s-1.109-8.512-2.738-11.25-3.921-4.66-3.921-4.66 4.292-.075 5.843-.075c1.555 0 2.371-.296 4.516 4.883a357 357 0 0 0 3.773 8.805v.965l.664.664V18.5l.668.297.075 1.183s3.03 6.215 3.847 7.844a14.8 14.8 0 0 0 1.922 2.738s3.332-5.773 5.477-10.582c2.144-4.882 3.922-9.617 4.437-11.468.52-1.848.742-4.07 1.555-4.957.812-.961 1.039-.961 1.926-1.184.886-.223 3.035-.738 3.035-.738s-.594 5.918-.965 9.394c-.297 3.551-.738 10.657-.738 10.657l.367 1.183-.367.445.367.22-.813 1.554.223.52s-.516 7.101-.297 10.656c.223 3.55.813 7.547.813 7.547s.965-.446 1.925-1.332c.961-.891 2.145-2.075 2.145-2.075s.223 1.258-1.258 4.368c-1.402 3.105-2.144 5.03-3.328 5.03s-3.777-.296-4.293-1.405c-.516-1.036-.812-12.282-.664-15.614.148-3.254.52-13.172.52-14.281 0-1.035-.817-1.773-.817-1.773s-1.996 4.07-3.254 6.586c-1.261 2.585-6.293 12.355-7.773 14.574-1.477 2.218-3.254 4.515-3.848 4.07-.59-.441 1.559-3.035 1.852-3.7.297-.593.148-1.109-2.145-5.917-2.219-4.813-6.363-13.098-6.363-13.098s-1.406 11.098-2 14.797c-.59 3.7-2.293 12.36-3.477 14.356-1.258 1.925-3.55 3.183-3.55 3.183Zm85.832-7.25c-2.886.96-7.918 3.476-7.918 3.476s2.887-5.918 4.586-10.136c1.778-4.22 5.328-12.207 5.328-12.207l4.442 17.312s-3.625.52-6.438 1.555m14.871 9.914v-.738l-.668-.817.079-.812-.371-.739.292-.89-.511-.293s-.297-.817-.965-2.961c-.664-2.219-6.14-25.012-6.29-26.418-.148-1.477 0-1.774 0-1.774l-.519-.593.149-1.48s-.739-1.403-.887-2.516c-.223-1.258-.812-8.137-.812-8.137l-5.18 3.105 1.773 12.95s-4.293 11.32-5.55 14.43c-1.254 3.105-5.473 11.468-5.993 12.28-.59.891-3.257 2.149-3.996 3.036-.738.886-1.11 4.218-1.11 4.218l2.516 2.739s1.848-3.407 2.372-4.887c.59-1.406 2.14-3.328 3.18-3.992 1.109-.594 9.84-3.996 11.394-4.442 1.554-.445 2.144.075 2.96.668.813.516.962 1.184 1.036 1.774.148.668 2.516 8.508 2.516 8.508l1.406 1.851.37.149s-.073.445.294.738c.37.223 4.734 1.851 4.734 1.851z" style="stroke:none;fill-rule:evenodd;fill:#632390;fill-opacity:1"/></g><path d="m172.605 48.809-3.05 1.132 3.05 1.11Zm3.25-3.055v1.805l-1.867.718v3.285l1.867.676v1.758l-8.218-3.2v-1.753zM175.855 44.922h-8.218v-1.656h8.218zM171.11 40.02v-1.227q0-1.194-.098-1.492a.9.9 0 0 0-.348-.465 1.05 1.05 0 0 0-.613-.168c-.281 0-.5.074-.672.223-.168.144-.277.355-.324.625q-.029.198-.028 1.21v1.294Zm4.745 1.66h-8.218v-3.496q0-1.313.222-1.91.223-.6.786-.958a2.4 2.4 0 0 1 1.296-.359c.618 0 1.125.184 1.528.543q.598.544.758 1.629c.21-.36.437-.656.691-.89.25-.235.691-.548 1.336-.946l1.601-1.004v1.984l-1.789 1.2c-.64.43-1.043.718-1.207.875a1.3 1.3 0 0 0-.343.5c-.063.175-.09.453-.09.836v.336h3.43zM175.855 33.348h-8.152V31.69h6.766v-4.125h1.386zM175.855 26.434h-8.218v-1.66h8.218zM175.855 23.176h-8.218v-1.613l5.488-3.364h-5.488v-1.543h8.218v1.668l-5.359 3.309h5.36zM175.855 14.902h-8.218V8.81h1.39v4.433h1.825V9.117h1.378v4.125h2.239v-4.59h1.386zM173.184 7.668l-.16-1.617q.813-.143 1.195-.59c.254-.297.383-.695.383-1.203 0-.531-.118-.938-.34-1.207q-.343-.406-.793-.406-.299 0-.496.171-.206.17-.36.598c-.066.191-.183.637-.355 1.328-.223.887-.492 1.512-.817 1.871-.449.504-1.004.758-1.652.758-.418 0-.809-.121-1.176-.355q-.539-.359-.832-1.028c-.187-.449-.285-.984-.285-1.617 0-1.031.23-1.809.68-2.328q.678-.785 1.808-.82l.075 1.656q-.634.105-.91.457-.277.352-.278 1.05 0 .722.297 1.134a.623.623 0 0 0 1.008.016q.264-.312.55-1.524c.188-.809.387-1.403.59-1.79q.308-.58.836-.91.532-.327 1.309-.328.71.001 1.32.395c.414.262.719.629.918 1.11q.3.716.301 1.788c0 1.04-.238 1.836-.723 2.391q-.715.837-2.093 1" style="stroke:none;fill-rule:nonzero;fill:#632390;fill-opacity:1"/></svg>