<svg xmlns="http://www.w3.org/2000/svg" width="176pt" height="48.653" viewBox="0 0 176 36.49"><defs><clipPath id="a"><path d="M10 34h1v2.488h-1Zm0 0"/></clipPath></defs><path d="M33.602 30.637c.062-.004-.395-1.043-.98-2.215-.587-1.172-1.102-2.094-1.15-2.047-.077.078-2.038 4.285-1.945 4.281.364 0 3.63.004 4.075-.02m-9.68 4.5c-.031-.059 1.191-2.727 2.723-5.93l2.785-5.816 2.054.039 2.051.043 2.317 4.386c1.273 2.414 2.671 5.063 3.101 5.887l.785 1.5h-1.886l-1.918.008-.641-1.258-.574-1.105-.922-.012c-.527-.008-1.953.027-3.14.027h-2.165l-.527 1.172-.527 1.168H25.71c-.95 0-1.754-.05-1.79-.11" style="stroke:none;fill-rule:nonzero;fill:#db2425;fill-opacity:1"/><path d="M41.52 29.324v-5.926h3.511v11.848H41.52zM54.977 27.805c.546-.399.582-1.297.07-1.778-.344-.324-.531-.367-1.836-.41l-1.45-.05v2.703l1.426-.098c1.036-.07 1.528-.172 1.79-.367m-6.727 1.52v-5.927l3.18-.023c4.5-.031 5.73.215 6.828 1.324 1.308 1.328 1.226 3.113-.426 4.352-.402.3-.895.566-.895.625 0 .054.426.304.665.535.414.394 1.23 1.91 2.414 4.047l.547.988H59.03c-2.879 0-2.195.102-3.203-1.652-1.55-2.696-1.992-3.176-3.406-3.176h-.66v4.828H48.25zM9.406 32.2c-1.156-.54-1.777-1.688-1.625-2.993.114-.95.66-1.77 1.45-2.168 2.496-1.277 5.136 1.328 3.874 3.824-.648 1.285-2.433 1.93-3.699 1.336M13.371 26.625c-.14-.156-.215-.352-.16-.441.168-.27 2.152-1.93 2.223-1.86.097.098-1.524 2.586-1.68 2.586-.07 0-.242-.129-.383-.285M14.41 28.156c-.047-.117-.039-.242.02-.273.21-.125 2.898-.945 3.394-1.035l.512-.094-.582.32c-.633.344-2.942 1.297-3.14 1.297-.067 0-.16-.098-.204-.215M14.574 30.758c-.195-.051-.23-.168-.16-.531.047-.254.113-.493.14-.528.106-.125 3.06.63 3.489.887l.437.266-1.828-.012c-1.004-.008-1.937-.047-2.078-.082M15.137 33.848c-.793-.606-1.578-1.168-1.739-1.254-.285-.153-.28-.164.09-.54.336-.335.41-.355.582-.167 1.27 1.375 2.72 3.066 2.63 3.062-.067-.004-.77-.5-1.563-1.101" style="stroke:none;fill-rule:nonzero;fill:#da2425;fill-opacity:1"/><g clip-path="url(#a)"><path d="M10.582 35.54c-.082-.524-.094-.974-.027-1.005.222-.094.261.09.218 1.024l-.043.93z" style="stroke:none;fill-rule:nonzero;fill:#da2425;fill-opacity:1"/></g><path d="M7.293 35.348c0-.028.102-.352.23-.723.149-.445.297-.652.422-.602.149.055.106.227-.168.723-.316.559-.484.77-.484.602" style="stroke:none;fill-rule:nonzero;fill:#da2425;fill-opacity:1"/><path d="M4.527 28.64c-.09-.105-.414-.554-.715-.995-.34-.493-.914-1.055-1.496-1.457-1.054-.731-1.273-.977-1.632-1.836-.457-1.082-.383-1.165.605-.665.48.243 1.024.442 1.207.442.274 0 .121-.195-.82-1.055-.633-.578-1.238-1.262-1.348-1.515-.238-.575-.437-2.403-.262-2.399.075 0 .621.43 1.215.95.598.523 1.184.949 1.301.949.242 0 .238-.008-.855-1.317C.53 18.31.328 17.81.395 16.477l.023-.415.492.415c.27.226.93.8 1.465 1.273.535.477 1.012.828 1.055.785s-.22-.543-.582-1.11c-.676-1.054-1.442-2.5-1.606-3.023-.054-.175.028-.488.207-.785l.301-.492.707.914c.68.879 1.8 1.899 2.086 1.899.078 0-.242-.708-.711-1.57-.465-.868-1-1.888-1.187-2.27l-.34-.696.293-.66c.16-.36.343-.652.406-.652.066 0 .476.574.914 1.27.973 1.546 1.562 2.238 1.918 2.238.226 0 .156-.227-.496-1.512-.977-1.934-1.492-3.422-1.36-3.945.055-.22.29-.61.524-.871l.422-.473.258.66c.453 1.14 1.683 3.473 1.972 3.738.27.242.282.242.282-.011 0-.149-.29-1.164-.645-2.254-.356-1.094-.711-2.328-.785-2.746l-.137-.758.637-.625c.379-.371.687-.567.758-.485.066.079.367.993.668 2.036.578 2.011 1.07 3.16 1.398 3.27.156.05.176-.067.09-.575-.152-.922-.363-4.086-.367-5.559L9.047 2.23l.805-.535c.437-.293.828-.53.863-.53.031 0 .082 1.577.113 3.503.031 2.46.102 3.555.223 3.68.234.234.281.015.613-3.016.223-2.004.367-2.719.738-3.68.254-.656.559-1.273.68-1.375.117-.097.543-.21.945-.25.657-.062.727-.043.727.23 0 .169-.063.462-.133.653-.27.703-1.027 4.344-1.406 6.762-.36 2.254-.387 2.738-.313 5.121.043 1.45.215 3.812.38 5.254.484 4.207.402 5.293-.45 6.226-.434.473-.473.489-.578.22-.063-.161-.117-.606-.125-.997-.008-.59-.05-.695-.266-.656-.21.039-.265.234-.297 1.09l-.043 1.043-.605.093c-.328.055-.656.043-.727-.027s-.254-.578-.414-1.129c-.156-.55-.347-1.066-.422-1.14-.253-.254-.457.054-.386.601.246 1.977.265 1.848-.38 2.363L8 26.211l-.645-.465c-.746-.535-.785-.473-.277.418l.371.645-.336.355c-.25.266-.449.34-.808.297q-.854-.1-.11.387c.356.23.48.582.254.718-.058.04-.476.114-.93.172-.609.075-.863.051-.992-.097M5.3 30.758a142 142 0 0 1-.433-1.04l-.199-.484.91.043.91.047.133.54c.152.613.063.777-.637 1.187l-.453.265zM6.613 32.605 5.57 31.59h.637c.582 0 .676.055 1.152.68.551.722.551.722.399 1.105-.082.203-.29.063-1.145-.77M9.102 34.188c-.743-.145-.747-.149-.465-.43.215-.215.332-.246.476-.125.11.09.395.176.637.191.32.024.438.102.426.29-.024.28-.004.277-1.074.074" style="stroke:none;fill-rule:nonzero;fill:#254382;fill-opacity:1"/><path d="M67.871 29.29v-5.927h3.211l3.527 3.403c1.942 1.867 3.625 3.422 3.739 3.445.168.039.203-.52.203-3.398v-3.45h3.511v11.848h-2.816l-3.789-3.676c-2.082-2.023-3.836-3.633-3.894-3.574-.06.059-.13 1.715-.157 3.68l-.047 3.57h-3.488zM95.18 32.328c.953-.469 1.433-.965 1.722-1.781.891-2.527-.75-4.617-3.777-4.805-2.074-.129-3.734.617-4.457 2.012-.285.558-.328.816-.277 1.726.078 1.286.523 2.043 1.605 2.711 1.234.762 3.77.829 5.184.137m-4.055 2.895c-2.68-.371-4.898-1.825-5.918-3.871-.309-.614-.367-.938-.367-2.028 0-1.117.055-1.414.402-2.117.832-1.7 2.606-3.027 4.863-3.64 1.301-.352 3.98-.36 5.266-.016 2.172.582 3.836 1.77 4.695 3.351.473.875.5.996.5 2.387 0 1.254-.05 1.555-.347 2.121-1.239 2.348-3.598 3.68-6.82 3.848-.805.043-1.829.027-2.274-.035M106.344 35.223a10.7 10.7 0 0 1-2.711-.743l-.653-.28v-2.481l1.207.562c1.942.903 3.891 1.149 4.934.625.438-.218.512-.328.512-.761 0-.672-.492-1-2.567-1.692-2.593-.863-3.578-1.492-4.101-2.629-.52-1.117-.278-2.277.672-3.226.93-.926 2.207-1.293 4.535-1.29.965 0 2.05.083 2.414.184l1.426.406.765.22v2.304l-.62-.223c-1.032-.37-3.063-.781-3.84-.777-.919.008-1.665.265-1.93.668-.36.55.21.95 2.734 1.902 3.047 1.149 3.957 1.883 4.184 3.367.226 1.516-.828 2.957-2.59 3.536-1.059.347-3.145.503-4.371.328M119.8 30.383v-4.824h-5.12v-2.196h13.75v2.196h-5.118v9.652h-3.511zM137.418 27.758a1.21 1.21 0 0 0 .012-1.762c-.325-.3-.543-.348-1.903-.41l-1.539-.066v2.703l1.528-.055c1.37-.05 1.57-.094 1.902-.41m-6.793 1.508V23.32l3.766.082c3.367.07 3.855.114 4.597.395 1.547.578 2.567 1.941 2.399 3.207-.11.848-.496 1.433-1.38 2.11l-.734.558.543.543c.496.496 1.86 2.676 2.645 4.23.246.492.273.64.117.7-.105.042-.945.058-1.863.035l-1.672-.043-.734-1.332c-1.598-2.903-1.91-3.211-3.422-3.367l-.899-.094v4.867h-3.363zM147.738 34.938c-1.754-.57-2.914-1.508-3.539-2.872-.32-.695-.34-.918-.383-4.718l-.043-3.985h3.528l.004 3.621c.004 3.993.09 4.453.953 5.133 1.113.875 3.48.98 4.726.211 1.223-.758 1.258-.894 1.313-5.2l.047-3.765h3.52l-.052 4.059-.054 4.058-.406.829c-.665 1.351-1.832 2.234-3.567 2.683-1.246.324-4.976.29-6.047-.054M160.934 29.29v-5.927h2.949l2.187 2.086c1.203 1.145 2.266 2.098 2.364 2.113.097.02 1.168-.917 2.375-2.078L173 23.371l3-.008v11.848h-3.512v-7.379l-1.133 1.098c-2.406 2.336-2.789 2.648-3.078 2.496-.144-.078-1.03-.871-1.96-1.762-.934-.89-1.735-1.621-1.786-1.621-.047 0-.086 1.613-.086 3.586v3.582h-3.511z" style="stroke:none;fill-rule:nonzero;fill:#3667ba;fill-opacity:1"/><path d="M41.547 29.32v-5.894h3.414v11.793h-3.414zM53.547 28.18c1.531-.188 1.86-.403 1.86-1.227 0-.523-.165-.89-.5-1.11-.235-.155-1.634-.32-2.887-.343l-.336-.004v2.793h.496c.27 0 .886-.05 1.367-.11m-5.277 1.129v-5.907l3.597.055c2.078.035 3.828.105 4.149.176.925.195 1.68.59 2.207 1.148 1.382 1.477 1.093 3.188-.758 4.446l-.61.414.59.59c.461.456.864 1.078 1.805 2.761l1.215 2.172-1.5.031c-1.961.035-2.238-.039-2.602-.715-.906-1.671-1.687-2.894-2.144-3.363-.578-.597-.992-.758-1.938-.762h-.597v4.864H48.27zM9.43 32.133c-2.04-.957-2.133-3.918-.157-5.024.485-.27.672-.316 1.293-.312 1.145.004 2 .543 2.5 1.562.653 1.332.164 2.836-1.18 3.621-.628.372-1.835.446-2.456.153M13.48 26.648c-.093-.101-.168-.261-.168-.355 0-.16 1.715-1.73 1.895-1.73.121 0-.742 1.382-1.309 2.097-.18.223-.207.223-.418-.012" style="stroke:none;fill-rule:nonzero;fill:#db2425;fill-opacity:1"/><path d="M13.48 26.648c-.261-.289-.207-.472.27-.91.707-.644 1.422-1.207 1.473-1.156.047.043-.993 1.672-1.32 2.078-.184.223-.212.223-.423-.012M14.617 30.695c-.164-.043-.183-.113-.125-.472.04-.235.09-.45.117-.477.075-.074 2.672.59 3.172.813l.442.195-1.707-.004c-.938-.004-1.793-.027-1.899-.055M14.809 33.55c-.68-.51-1.301-.96-1.371-1.007-.176-.102-.079-.328.234-.559l.246-.18 1.066 1.2c1.625 1.824 1.61 1.875-.175.547" style="stroke:none;fill-rule:nonzero;fill:#db2425;fill-opacity:1"/></svg>