<?xml version="1.0" encoding="UTF-8"?>
<svg xmlns="http://www.w3.org/2000/svg" xmlns:xlink="http://www.w3.org/1999/xlink" width="137.38pt" height="59pt" viewBox="0 0 137.38 59" version="1.1">
<defs>
<clipPath id="clip1">
  <path d="M 0 0 L 137.378906 0 L 137.378906 59 L 0 59 Z M 0 0 "/>
</clipPath>
</defs>
<g id="surface1">
<path style=" stroke:none;fill-rule:nonzero;fill:rgb(89.411926%,12.835693%,14.929199%);fill-opacity:1;" d="M 120.433594 23.292969 C 119.878906 23.363281 118.628906 24.386719 117.4375 25.84375 C 115.695312 27.933594 113.347656 32.152344 113.164062 33.542969 C 113.085938 34.113281 113.320312 34.484375 113.71875 34.4375 C 114.363281 34.347656 115.480469 33.382812 116.691406 31.847656 C 118.3125 29.855469 120.820312 25.28125 120.976562 24.03125 C 121.050781 23.460938 120.886719 23.234375 120.433594 23.292969 "/>
<path style=" stroke:none;fill-rule:nonzero;fill:rgb(89.411926%,12.835693%,14.929199%);fill-opacity:1;" d="M 32.648438 26.363281 C 33.992188 21.359375 35.621094 16.246094 37.230469 12.429688 C 33.988281 16.683594 30.511719 22.09375 27.378906 27.5 C 29.199219 27.070312 30.972656 26.695312 32.648438 26.363281 "/>
<path style=" stroke:none;fill-rule:nonzero;fill:rgb(89.411926%,12.835693%,14.929199%);fill-opacity:1;" d="M 76.792969 27.429688 C 78.628906 27.007812 80.390625 26.648438 82.035156 26.335938 C 83.390625 21.347656 85.003906 16.238281 86.609375 12.429688 C 83.390625 16.660156 79.929688 22.046875 76.792969 27.429688 "/>
<g clip-path="url(#clip1)" clip-rule="nonzero">
<path style=" stroke:none;fill-rule:nonzero;fill:rgb(89.411926%,12.835693%,14.929199%);fill-opacity:1;" d="M 11.476562 32.5625 C 14.597656 31.199219 17.972656 30.042969 21.34375 29.066406 C 28.507812 17.019531 37.410156 4.621094 39.96875 4.847656 C 41.078125 4.941406 40.902344 6.140625 41.878906 7.226562 C 42.84375 8.304688 42.984375 8.96875 41.832031 11.832031 C 39.464844 17.710938 39.652344 16.34375 37.378906 25.515625 C 41.546875 24.824219 45.171875 24.425781 45.511719 24.375 C 46.660156 24.210938 48.640625 24.992188 47.59375 27.238281 C 47.59375 27.238281 46.496094 29.167969 46.066406 29.996094 C 45.28125 31.363281 44.269531 33.417969 43.65625 34.808594 C 43.269531 35.625 43.089844 36.253906 43.058594 36.710938 C 43.027344 37.007812 43.140625 37.175781 43.378906 37.136719 C 43.699219 37.078125 44.167969 36.730469 44.730469 36.148438 C 45.277344 35.507812 47.128906 33.988281 50.4375 28.417969 L 51.308594 26.609375 C 51.589844 26.074219 51.996094 25.125 52.070312 24.6875 C 52.164062 24.042969 52.1875 23.875 52.726562 23.53125 C 53.601562 22.976562 55.179688 22.515625 56.089844 23.109375 C 56.949219 23.675781 56.726562 24.703125 56.011719 25.949219 C 58.898438 22.703125 59.636719 22.570312 60.28125 22.464844 C 61.492188 22.242188 64.210938 23.890625 62.910156 25.414062 C 61.558594 26.984375 60.035156 26.671875 57.640625 27.671875 C 56.28125 28.234375 55.242188 29.449219 53.753906 31.585938 C 51.863281 34.359375 50.996094 37.078125 50.84375 39.117188 C 50.832031 39.722656 50.78125 40.027344 50.460938 40.234375 C 47.296875 42.300781 46.324219 40.75 46.402344 38.851562 C 46.425781 38.402344 46.582031 37.695312 46.859375 36.820312 C 44.425781 40.472656 42.269531 42.316406 40.859375 42.570312 C 38.96875 42.914062 37.90625 41.601562 38.105469 39.175781 C 38.199219 38.070312 38.53125 36.773438 39.152344 35.136719 C 39.796875 33.476562 40.820312 31.207031 41.765625 29.347656 C 42.007812 28.863281 42.238281 28.398438 42.4375 27.980469 C 41 28.257812 38.964844 28.679688 36.570312 29.226562 C 36.539062 29.304688 36.511719 29.347656 36.480469 29.351562 C 35.464844 34.105469 35.382812 35.898438 34.835938 40.046875 C 34.601562 41.859375 34.953125 43.808594 32.792969 44.109375 C 30.632812 44.421875 29.917969 42.199219 29.90625 40.296875 C 29.878906 38.367188 30.234375 36.042969 31.601562 30.417969 C 29.355469 30.988281 26.984375 31.648438 24.640625 32.367188 C 24.605469 32.421875 24.582031 32.449219 24.582031 32.449219 C 20.683594 39.582031 16.839844 48.410156 16.203125 51.261719 C 15.695312 53.550781 14.660156 54.253906 13.140625 53.589844 C 11.621094 52.925781 10.734375 51.394531 11.289062 49.6875 C 12.289062 46.625 15.339844 39.753906 18.054688 34.820312 C 18.03125 34.828125 18.054688 34.761719 18.117188 34.636719 C 16.128906 35.410156 14.277344 36.238281 12.660156 37.128906 C 11.59375 37.703125 10.253906 37.171875 9.996094 35.984375 C 9.8125 35.136719 9.410156 33.46875 11.476562 32.5625 Z M 49.351562 16.066406 C 50.90625 15.785156 52.058594 16.730469 51.945312 18.167969 C 51.828125 19.601562 50.46875 21 48.917969 21.277344 C 47.375 21.554688 46.210938 20.609375 46.335938 19.171875 C 46.453125 17.738281 47.800781 16.351562 49.351562 16.066406 Z M 89.347656 4.847656 C 90.460938 4.945312 90.289062 6.140625 91.261719 7.226562 C 92.230469 8.304688 92.367188 8.96875 91.207031 11.832031 C 88.847656 17.71875 89.042969 16.34375 86.761719 25.53125 C 86.988281 25.5 87.199219 25.464844 87.417969 25.433594 C 88.34375 25.296875 91.351562 24.941406 91.238281 26.203125 C 91.0625 28.234375 90.292969 28.203125 87.605469 28.78125 C 87.09375 28.898438 86.554688 29.011719 85.984375 29.132812 C 85.945312 29.269531 85.902344 29.347656 85.871094 29.351562 C 84.855469 34.109375 84.777344 35.90625 84.21875 40.046875 C 83.980469 41.859375 84.335938 43.8125 82.175781 44.109375 C 80.019531 44.421875 79.273438 42.199219 79.285156 40.300781 C 79.292969 36.941406 80.988281 30.359375 80.996094 30.320312 C 78.800781 30.878906 76.445312 31.515625 74.101562 32.246094 C 71.308594 36.988281 66.222656 48.410156 65.59375 51.265625 C 65.082031 53.554688 64.046875 54.253906 62.523438 53.585938 C 61.003906 52.925781 60.15625 51.410156 60.675781 49.691406 C 62.09375 44.964844 67.449219 34.730469 67.535156 34.542969 C 65.546875 35.34375 63.695312 36.199219 62.097656 37.109375 C 61.109375 37.671875 59.847656 37.136719 59.578125 35.949219 C 59.402344 35.097656 59.007812 33.433594 60.941406 32.550781 C 64.039062 31.140625 67.410156 29.957031 70.773438 28.988281 C 77.925781 16.960938 86.792969 4.621094 89.347656 4.847656 Z M 98.152344 23.519531 C 101.152344 23.417969 102.1875 25.050781 101.964844 26.023438 C 101.710938 27.085938 101.121094 27.710938 100.71875 28.128906 C 100.433594 28.429688 99.589844 28.519531 99.324219 28.148438 C 98.6875 27.242188 98.304688 26.03125 96.464844 26.757812 C 94.972656 27.34375 94.894531 29.292969 95.222656 30.238281 C 95.730469 31.769531 97.828125 32.925781 97.816406 35.117188 C 97.765625 40.789062 92.601562 41.917969 90.835938 42.101562 C 89.445312 42.238281 86.40625 41.589844 85.890625 39.230469 C 85.710938 38.476562 86.859375 36.433594 87.097656 36.082031 C 87.515625 35.472656 88.148438 35.832031 88.367188 36.140625 C 88.851562 36.8125 91.40625 39.03125 92.894531 37.597656 C 93.847656 36.675781 92.367188 35.472656 91.75 34.488281 C 89.464844 30.867188 92.550781 26.648438 93.519531 25.722656 C 95.621094 23.71875 97.105469 23.539062 98.152344 23.519531 Z M 105.160156 23.320312 C 105.257812 22.867188 105.304688 22.78125 105.660156 22.550781 C 106.101562 22.238281 106.976562 21.863281 107.507812 21.824219 C 108.855469 21.722656 110.640625 22.695312 109.460938 24.710938 L 109.011719 25.480469 C 108.949219 25.636719 108.140625 27.097656 107.675781 27.894531 C 106.820312 29.238281 105.722656 31.238281 105.03125 32.59375 C 104.605469 33.398438 104.398438 34.015625 104.339844 34.464844 C 104.292969 34.765625 104.398438 34.945312 104.632812 34.910156 C 104.960938 34.867188 105.445312 34.542969 106.035156 33.976562 C 106.640625 33.34375 107.007812 32.925781 108.355469 31.144531 L 108.84375 30.527344 C 109.230469 30.019531 112.300781 26.007812 113.222656 25.015625 C 115.695312 22.0625 118.492188 19.96875 120.285156 19.738281 C 121.464844 19.574219 122.414062 20.113281 122.875 21.203125 C 123.199219 22.089844 123.261719 22.152344 124.050781 22.492188 C 125.3125 22.992188 125.726562 23.417969 125.628906 24.058594 C 125.582031 24.519531 125.410156 24.875 124.609375 26.132812 C 124.042969 27.097656 123.421875 28.222656 122.976562 29.089844 C 122.039062 30.945312 121.527344 32.210938 122.4375 32.53125 C 122.78125 32.652344 123.417969 32.324219 124.210938 31.480469 C 125.089844 30.550781 125.714844 29.628906 126.40625 28.546875 C 127.109375 27.429688 128.601562 27.796875 128.203125 28.824219 C 127.859375 29.714844 127.207031 31.160156 125.546875 33.117188 C 123.507812 35.625 121.628906 36.84375 119.933594 37.070312 C 118.5625 37.261719 117.59375 36.675781 117.355469 35.449219 L 117.277344 35.199219 C 117.273438 34.984375 117.164062 34.875 117.046875 34.894531 C 116.921875 34.90625 116.828125 35 116.597656 35.21875 C 114.878906 37.042969 113.5625 38.164062 111.96875 38.382812 C 109.589844 38.695312 108.207031 36.835938 108.546875 34.144531 C 107.90625 35.085938 107.25 35.992188 106.644531 36.65625 C 104.789062 38.722656 103.265625 40.035156 101.851562 40.21875 C 99.945312 40.472656 98.949219 39.113281 99.269531 36.707031 C 99.414062 35.609375 99.820312 34.332031 100.519531 32.710938 C 101.242188 31.09375 102.367188 28.871094 103.40625 27.058594 C 104.234375 25.574219 105.035156 23.894531 105.160156 23.320312 Z M 110.585938 14.03125 C 112.125 13.753906 113.285156 14.691406 113.171875 16.128906 C 113.050781 17.566406 111.699219 18.960938 110.148438 19.238281 C 108.605469 19.515625 107.4375 18.578125 107.5625 17.144531 C 107.675781 15.703125 109.03125 14.308594 110.585938 14.03125 Z M 130.867188 59 C 135.035156 50.136719 137.375 40.246094 137.375 29.804688 C 137.375 19.125 134.9375 9.015625 130.589844 0 L 6.789062 0 C 2.4375 9.015625 0 19.125 0 29.804688 C 0 40.246094 2.339844 50.136719 6.511719 59 L 130.867188 59 "/>
</g>
</g>
</svg>
