<?xml version="1.0" encoding="UTF-8"?>
<svg xmlns="http://www.w3.org/2000/svg" xmlns:xlink="http://www.w3.org/1999/xlink" width="176pt" height="33.67pt" viewBox="0 0 176 33.67" version="1.1">
<defs>
<clipPath id="clip1">
  <path d="M 0 0 L 34 0 L 34 33.671875 L 0 33.671875 Z M 0 0 "/>
</clipPath>
</defs>
<g id="surface1">
<path style=" stroke:none;fill-rule:nonzero;fill:rgb(89.466858%,12.22229%,14.851379%);fill-opacity:1;" d="M 86.390625 9.867188 L 88.703125 9.867188 L 95.621094 24.484375 L 93.273438 24.484375 L 92.320312 22.386719 L 87.957031 22.386719 C 87.304688 22.386719 86.714844 22.433594 86.203125 22.519531 C 85.703125 22.609375 85.261719 22.722656 84.910156 22.863281 C 84.550781 23.003906 84.261719 23.164062 84.039062 23.328125 C 83.828125 23.488281 83.679688 23.664062 83.601562 23.804688 L 83.230469 24.484375 L 80.960938 24.484375 L 87.179688 11.636719 Z M 91.378906 20.269531 L 88.238281 14.195312 L 85.0625 21.078125 C 85.316406 20.855469 85.746094 20.664062 86.335938 20.503906 C 86.925781 20.347656 87.71875 20.269531 88.722656 20.269531 Z M 97.910156 24.484375 L 97.910156 10.113281 L 100.003906 10.113281 L 100.003906 22.363281 L 107.976562 22.363281 L 107.976562 24.484375 Z M 112.175781 16.640625 C 112.605469 16.386719 113.054688 16.21875 113.511719 16.167969 C 113.960938 16.105469 114.425781 16.070312 114.902344 16.070312 L 117.355469 16.070312 C 118.007812 16.070312 118.527344 15.902344 118.914062 15.578125 C 119.292969 15.242188 119.484375 14.742188 119.484375 14.074219 C 119.484375 13.394531 119.285156 12.910156 118.894531 12.648438 C 118.5 12.375 117.980469 12.234375 117.355469 12.234375 L 112.175781 12.234375 Z M 112.175781 22.363281 L 117.566406 22.363281 C 117.851562 22.363281 118.15625 22.316406 118.464844 22.238281 C 118.773438 22.160156 119.074219 22.027344 119.320312 21.859375 C 119.574219 21.691406 119.792969 21.464844 119.953125 21.210938 C 120.121094 20.945312 120.199219 20.628906 120.199219 20.277344 C 120.199219 19.855469 120.121094 19.503906 119.953125 19.238281 C 119.792969 18.972656 119.566406 18.753906 119.300781 18.605469 C 119.039062 18.453125 118.722656 18.339844 118.386719 18.277344 C 118.050781 18.226562 117.699219 18.183594 117.355469 18.183594 L 114.902344 18.183594 C 114.445312 18.183594 113.976562 18.226562 113.519531 18.304688 C 113.054688 18.375 112.605469 18.523438 112.175781 18.761719 Z M 122.304688 20.558594 C 122.304688 21.28125 122.160156 21.886719 121.871094 22.378906 C 121.582031 22.871094 121.191406 23.277344 120.726562 23.585938 C 120.261719 23.894531 119.722656 24.128906 119.136719 24.273438 C 118.554688 24.414062 117.945312 24.484375 117.363281 24.484375 L 110.070312 24.484375 L 110.070312 10.113281 L 117.355469 10.113281 C 117.953125 10.113281 118.519531 10.199219 119.039062 10.375 C 119.558594 10.550781 120.015625 10.808594 120.382812 11.140625 C 120.761719 11.46875 121.0625 11.882812 121.273438 12.375 C 121.484375 12.859375 121.589844 13.421875 121.589844 14.054688 C 121.589844 14.671875 121.476562 15.234375 121.265625 15.726562 C 121.042969 16.226562 120.726562 16.617188 120.296875 16.886719 C 120.542969 17.003906 120.796875 17.171875 121.035156 17.382812 C 121.28125 17.582031 121.503906 17.855469 121.679688 18.15625 C 121.855469 18.464844 122.011719 18.824219 122.125 19.21875 C 122.242188 19.609375 122.304688 20.054688 122.304688 20.558594 Z M 129.105469 9.867188 L 131.417969 9.867188 L 138.335938 24.484375 L 135.984375 24.484375 L 135.035156 22.386719 L 130.671875 22.386719 C 130.019531 22.386719 129.429688 22.433594 128.921875 22.519531 C 128.417969 22.609375 127.980469 22.730469 127.625 22.863281 C 127.265625 23.003906 126.976562 23.164062 126.753906 23.328125 C 126.542969 23.488281 126.394531 23.664062 126.316406 23.804688 L 125.945312 24.484375 L 123.675781 24.484375 L 129.894531 11.636719 Z M 134.09375 20.269531 L 130.953125 14.195312 L 127.777344 21.078125 C 128.03125 20.855469 128.460938 20.664062 129.050781 20.503906 C 129.640625 20.347656 130.433594 20.269531 131.4375 20.269531 Z M 139.234375 10.113281 L 141.945312 10.113281 L 151.175781 21.09375 L 151.175781 10.113281 L 153.269531 10.113281 L 153.269531 24.484375 L 151.191406 24.484375 L 142.964844 14.601562 L 142.964844 24.484375 L 140.90625 24.484375 L 140.90625 12.136719 Z M 157.257812 24.484375 L 157.257812 10.113281 L 159.316406 10.113281 L 159.316406 24.484375 Z M 166.777344 9.867188 L 169.082031 9.867188 L 176 24.484375 L 173.648438 24.484375 L 172.710938 22.386719 L 168.335938 22.386719 C 167.691406 22.386719 167.09375 22.433594 166.59375 22.519531 C 166.089844 22.601562 165.644531 22.730469 165.289062 22.863281 C 164.9375 23.003906 164.640625 23.171875 164.429688 23.328125 C 164.21875 23.488281 164.058594 23.671875 163.980469 23.804688 L 163.617188 24.484375 L 161.347656 24.484375 L 167.5625 11.636719 Z M 171.769531 20.269531 L 168.625 14.195312 L 165.449219 21.078125 C 165.703125 20.855469 166.125 20.664062 166.714844 20.503906 C 167.304688 20.347656 168.105469 20.269531 169.109375 20.269531 L 171.769531 20.269531 "/>
<path style=" stroke:none;fill-rule:nonzero;fill:rgb(7.008362%,6.510925%,6.420898%);fill-opacity:1;" d="M 44.84375 9.867188 L 47.160156 9.867188 L 54.078125 24.484375 L 51.726562 24.484375 L 50.777344 22.386719 L 46.402344 22.386719 C 45.75 22.386719 45.171875 22.433594 44.660156 22.519531 C 44.15625 22.609375 43.726562 22.722656 43.367188 22.863281 C 43.003906 23.003906 42.714844 23.164062 42.496094 23.328125 C 42.277344 23.496094 42.132812 23.65625 42.054688 23.804688 L 41.683594 24.484375 L 39.414062 24.484375 L 45.636719 11.636719 Z M 49.835938 20.269531 L 46.691406 14.195312 L 43.515625 21.078125 C 43.769531 20.855469 44.203125 20.664062 44.792969 20.503906 C 45.382812 20.347656 46.171875 20.269531 47.175781 20.269531 Z M 56.363281 24.484375 L 56.363281 10.113281 L 58.421875 10.113281 L 58.421875 24.484375 Z M 64.285156 16.976562 C 64.714844 16.722656 65.164062 16.554688 65.613281 16.5 C 66.050781 16.449219 66.519531 16.414062 66.996094 16.414062 L 69.730469 16.414062 C 70.460938 16.414062 71.050781 16.238281 71.5 15.894531 C 71.949219 15.558594 72.175781 15.003906 72.175781 14.238281 C 72.175781 13.871094 72.105469 13.554688 71.984375 13.308594 C 71.859375 13.050781 71.675781 12.839844 71.464844 12.683594 C 71.246094 12.523438 70.988281 12.410156 70.691406 12.339844 C 70.398438 12.269531 70.074219 12.234375 69.730469 12.234375 L 64.285156 12.234375 Z M 68.683594 18.535156 L 67.003906 18.535156 C 66.535156 18.535156 66.078125 18.570312 65.621094 18.640625 C 65.164062 18.710938 64.714844 18.859375 64.285156 19.089844 L 64.285156 24.484375 L 62.179688 24.484375 L 62.179688 10.113281 L 69.738281 10.113281 C 70.398438 10.113281 71.007812 10.210938 71.550781 10.394531 C 72.105469 10.578125 72.589844 10.859375 72.996094 11.210938 C 73.402344 11.574219 73.71875 12.011719 73.9375 12.542969 C 74.167969 13.070312 74.273438 13.675781 74.273438 14.355469 C 74.273438 15.445312 73.980469 16.34375 73.390625 17.027344 C 72.800781 17.722656 71.984375 18.199219 70.945312 18.453125 L 72.0625 20.75 C 72.238281 21.113281 72.496094 21.351562 72.660156 21.550781 C 72.828125 21.753906 72.996094 21.921875 73.144531 22.046875 C 73.304688 22.167969 73.472656 22.257812 73.628906 22.300781 C 73.804688 22.34375 74 22.371094 74.238281 22.363281 L 74.914062 22.34375 L 74.914062 24.484375 C 74.5 24.484375 74.085938 24.464844 73.664062 24.449219 C 73.25 24.421875 72.847656 24.332031 72.460938 24.191406 C 72.082031 24.050781 71.703125 23.824219 71.359375 23.523438 C 71.015625 23.214844 70.707031 22.777344 70.433594 22.210938 L 68.683594 18.535156 "/>
<g clip-path="url(#clip1)" clip-rule="nonzero">
<path style=" stroke:none;fill-rule:evenodd;fill:rgb(89.466858%,12.22229%,14.851379%);fill-opacity:1;" d="M 16.835938 0 C 26.132812 0 33.667969 7.539062 33.667969 16.835938 C 33.667969 26.132812 26.132812 33.671875 16.835938 33.671875 C 7.539062 33.671875 0 26.132812 0 16.835938 C 0 7.539062 7.539062 0 16.835938 0 "/>
</g>
<path style=" stroke:none;fill-rule:evenodd;fill:rgb(7.008362%,6.510925%,6.420898%);fill-opacity:1;" d="M 21.4375 17.628906 C 13.113281 22.117188 8.675781 19.46875 2.113281 25.003906 C 2.480469 25.671875 2.894531 26.304688 3.351562 26.910156 C 5.765625 26.496094 18.472656 25.425781 21.4375 17.628906 Z M 27.394531 5.546875 C 22.695312 13.308594 11.386719 12.417969 5.421875 17.496094 C 3.90625 18.773438 2.023438 21.253906 1.382812 23.53125 C 4.03125 21.296875 5.992188 20.59375 9.273438 19.800781 C 16.632812 18.015625 24.445312 17.8125 27.394531 5.546875 Z M 16.253906 24.78125 C 11.5 27.097656 7.523438 27.449219 4.328125 28.109375 C 5.070312 28.917969 5.878906 29.667969 6.757812 30.316406 C 11.195312 28.925781 14.777344 27.808594 16.253906 24.78125 "/>
</g>
</svg>
