<svg xmlns="http://www.w3.org/2000/svg" width="176pt" height="44.893" viewBox="0 0 176 33.67"><defs><clipPath id="a"><path d="M0 0h34v33.672H0Zm0 0"/></clipPath></defs><path d="M86.39 9.867h2.313l6.918 14.617h-2.348l-.953-2.097h-4.363c-.652 0-1.242.047-1.754.133-.5.09-.941.203-1.293.343-.36.14-.648.301-.87.465-.212.16-.36.336-.438.477l-.372.68h-2.27l6.22-12.848ZM91.38 20.27l-3.14-6.075-3.177 6.883c.254-.223.684-.414 1.274-.574.59-.156 1.383-.234 2.387-.234Zm6.531 4.214v-14.37h2.094v12.25h7.973v2.12Zm14.266-7.843c.43-.254.879-.422 1.336-.473q.675-.096 1.39-.098h2.453c.653 0 1.172-.168 1.56-.492q.569-.503.57-1.504c0-.68-.2-1.164-.59-1.426-.395-.273-.915-.414-1.54-.414h-5.18Zm0 5.722h5.39c.286 0 .59-.047.899-.125.308-.078.61-.21.855-.379.254-.168.473-.394.633-.648.168-.266.246-.582.246-.934 0-.422-.078-.773-.246-1.039a1.8 1.8 0 0 0-.652-.633 2.9 2.9 0 0 0-.914-.328 7 7 0 0 0-1.032-.093h-2.453c-.457 0-.925.043-1.382.12-.465.071-.915.22-1.344.458Zm10.129-1.804q0 1.082-.434 1.82a3.7 3.7 0 0 1-1.144 1.207 5.1 5.1 0 0 1-1.59.687 7.6 7.6 0 0 1-1.774.211h-7.293v-14.37h7.285c.598 0 1.165.085 1.684.261.52.176.977.434 1.344.766.379.328.68.742.89 1.234.211.484.317 1.047.317 1.68 0 .617-.113 1.18-.324 1.672-.223.5-.54.89-.97 1.16.247.117.5.285.74.496.245.199.468.472.644.773.175.309.332.668.445 1.063.117.39.18.836.18 1.34m6.8-10.692h2.313l6.918 14.617h-2.352l-.949-2.097h-4.363c-.652 0-1.242.047-1.75.133-.504.09-.942.21-1.297.343-.36.14-.648.301-.871.465-.211.16-.36.336-.438.477l-.37.68h-2.27l6.219-12.848Zm4.989 10.403-3.14-6.075-3.177 6.883c.254-.223.684-.414 1.274-.574.59-.156 1.383-.234 2.387-.234Zm5.14-10.157h2.711l9.23 10.98v-10.98h2.095v14.371h-2.079l-8.226-9.882v9.882h-2.059V12.137Zm18.024 14.371v-14.37h2.058v14.37Zm9.52-14.617h2.304L176 24.484h-2.352l-.937-2.097h-4.375c-.645 0-1.242.047-1.742.133a7 7 0 0 0-1.305.343 4 4 0 0 0-.86.465c-.21.16-.37.344-.449.477l-.363.68h-2.27l6.215-12.848Zm4.992 10.403-3.145-6.075-3.176 6.883q.381-.334 1.266-.574.887-.234 2.394-.234z" style="stroke:none;fill-rule:nonzero;fill:#e41f26;fill-opacity:1"/><path d="M44.844 9.867h2.316l6.918 14.617h-2.351l-.95-2.097h-4.375c-.652 0-1.23.047-1.742.133q-.755.134-1.293.343c-.363.14-.652.301-.87.465-.22.168-.364.328-.442.477l-.371.68h-2.27l6.223-12.848Zm4.992 10.403-3.145-6.075-3.175 6.883c.254-.223.687-.414 1.277-.574.59-.156 1.379-.234 2.383-.234Zm6.527 4.214v-14.37h2.059v14.37Zm7.922-7.507c.43-.254.88-.422 1.328-.477.438-.05.907-.086 1.383-.086h2.734q1.095-.002 1.77-.52c.45-.335.676-.89.676-1.656 0-.367-.07-.683-.192-.93a1.7 1.7 0 0 0-.52-.624 2.1 2.1 0 0 0-.773-.344 4 4 0 0 0-.96-.106h-5.446Zm4.399 1.558h-1.68c-.469 0-.926.035-1.383.106s-.906.218-1.336.449v5.394H62.18v-14.37h7.558c.66 0 1.27.097 1.813.28.554.184 1.039.465 1.445.817.406.363.723.8.942 1.332.23.527.335 1.133.335 1.812 0 1.09-.293 1.989-.882 2.672q-.886 1.045-2.446 1.426l1.118 2.297c.175.363.433.602.597.8.168.204.336.372.485.497.16.121.328.21.484.254.176.043.371.07.61.062l.675-.02v2.141c-.414 0-.828-.02-1.25-.035a4.4 4.4 0 0 1-1.203-.258 3.6 3.6 0 0 1-1.102-.668q-.515-.463-.925-1.312z" style="stroke:none;fill-rule:nonzero;fill:#121110;fill-opacity:1"/><g clip-path="url(#a)"><path d="M16.836 0c9.297 0 16.832 7.54 16.832 16.836 0 9.297-7.535 16.836-16.832 16.836S0 26.132 0 16.836C0 7.539 7.54 0 16.836 0" style="stroke:none;fill-rule:evenodd;fill:#e41f26;fill-opacity:1"/></g><path d="M21.438 17.629c-8.325 4.488-12.762 1.84-19.325 7.375.367.668.782 1.3 1.239 1.906 2.414-.414 15.12-1.484 18.086-9.281m5.957-12.082c-4.7 7.762-16.008 6.871-21.973 11.95-1.516 1.276-3.399 3.757-4.04 6.034 2.65-2.234 4.61-2.937 7.891-3.73 7.36-1.785 15.172-1.988 18.122-14.254M16.254 24.78C11.5 27.098 7.524 27.45 4.328 28.11c.742.809 1.55 1.559 2.43 2.207 4.437-1.39 8.02-2.507 9.496-5.535" style="stroke:none;fill-rule:evenodd;fill:#121110;fill-opacity:1"/></svg>