<?xml version="1.0" encoding="UTF-8"?>
<svg xmlns="http://www.w3.org/2000/svg" xmlns:xlink="http://www.w3.org/1999/xlink" width="176pt" height="33.17pt" viewBox="0 0 176 33.17" version="1.1">
<defs>
<clipPath id="clip1">
  <path d="M 0 12 L 25 12 L 25 33.171875 L 0 33.171875 Z M 0 12 "/>
</clipPath>
</defs>
<g id="surface1">
<path style=" stroke:none;fill-rule:nonzero;fill:rgb(90.065002%,12.763977%,14.141846%);fill-opacity:1;" d="M 25.410156 6.617188 C 25.410156 6.617188 27.6875 8.199219 27.6875 14.21875 C 27.6875 20.238281 29.199219 21.917969 29.703125 21.917969 C 30.207031 21.917969 31.234375 17.929688 35.578125 17.929688 C 39.917969 17.929688 42.941406 24.917969 44.515625 24.917969 C 46.085938 24.917969 54.417969 11.867188 55.613281 11.867188 C 56.808594 11.867188 51.878906 31.148438 44.117188 31.148438 C 36.816406 31.148438 37.394531 22.476562 35.046875 24.828125 C 32.695312 27.175781 32.703125 29.371094 29.800781 29.371094 C 27.019531 29.371094 22.917969 26.203125 22.917969 17.101562 C 22.917969 8 24.820312 6.617188 25.410156 6.617188 "/>
<path style=" stroke:none;fill-rule:nonzero;fill:rgb(90.065002%,12.763977%,14.141846%);fill-opacity:1;" d="M 78.710938 20.140625 C 78.535156 19.890625 78.394531 19.660156 78.277344 19.445312 C 78.277344 19.445312 76.097656 15.75 74.113281 14.1875 C 72.132812 12.625 67.539062 15.121094 66.351562 16.589844 C 65.332031 17.855469 61.78125 23.082031 59.953125 23.082031 C 58.128906 23.082031 61.648438 16.828125 68.753906 13.839844 C 68.753906 13.839844 70.84375 13.035156 74.316406 13.042969 C 74.316406 13.042969 76.402344 13.078125 75.695312 12.027344 C 75.257812 11.429688 73.625 9.757812 68.996094 9.757812 C 63.359375 9.757812 54.164062 14.492188 54.164062 22.882812 C 54.164062 31.273438 63.269531 30.953125 67.605469 24.296875 C 71.785156 17.875 71.648438 17.863281 75.828125 22.464844 C 79.15625 26.125 82.953125 25.726562 83.761719 25.265625 C 83.867188 25.203125 83.800781 24.929688 83.800781 24.882812 C 83.800781 24.546875 80.535156 22.785156 78.710938 20.140625 "/>
<g clip-path="url(#clip1)" clip-rule="nonzero">
<path style=" stroke:none;fill-rule:nonzero;fill:rgb(90.065002%,12.763977%,14.141846%);fill-opacity:1;" d="M 9.660156 22.105469 C 9.660156 22.105469 12.859375 17.367188 14.777344 19.054688 C 16.5 20.570312 10.199219 22.457031 9.660156 22.105469 Z M 21.980469 26.539062 C 17.507812 28.609375 12.535156 28.535156 12.183594 28.542969 C 11.832031 28.546875 11.214844 28.535156 11.214844 28.457031 C 11.214844 28.378906 11.28125 28.367188 11.28125 28.367188 C 23.394531 25.679688 24.039062 11.582031 14.949219 12.839844 C 2.351562 14.585938 3.183594 24.488281 3.183594 24.488281 C 0.605469 25.210938 0.0273438 27.234375 0.0273438 27.234375 C -0.394531 28.714844 4.171875 28.925781 4.171875 28.925781 C 7.402344 34.421875 12.996094 33.472656 17.589844 32.15625 C 23.058594 30.589844 26.457031 24.46875 21.980469 26.539062 "/>
</g>
<path style=" stroke:none;fill-rule:nonzero;fill:rgb(90.065002%,12.763977%,14.141846%);fill-opacity:1;" d="M 60.246094 31.203125 C 60.246094 31.203125 63.605469 31.34375 67.113281 29.238281 C 70.625 27.132812 73.546875 25.359375 76.164062 25.359375 C 78.78125 25.359375 77.519531 26.980469 71.675781 29.566406 C 65.828125 32.15625 62.414062 32.53125 59.339844 32.53125 C 56.261719 32.53125 53.953125 30.660156 53.578125 30.113281 C 53.199219 29.566406 54.121094 29.652344 54.878906 30.113281 C 55.632812 30.574219 57.925781 31.203125 60.246094 31.203125 "/>
<path style=" stroke:none;fill-rule:nonzero;fill:rgb(90.065002%,12.763977%,14.141846%);fill-opacity:1;" d="M 93.855469 21.894531 C 93.855469 21.894531 94.421875 21.160156 96.792969 22.128906 C 99.164062 23.09375 107.785156 25.589844 115.148438 25.589844 C 122.515625 25.589844 133.339844 22.042969 140.179688 16.796875 C 147.019531 11.554688 164.222656 2.113281 172.277344 2.113281 C 180.332031 2.113281 173.746094 5.679688 167.324219 10.296875 C 160.90625 14.910156 134.933594 29.46875 115.046875 29.46875 C 97.757812 29.46875 93.609375 22.054688 93.855469 21.894531 "/>
<path style=" stroke:none;fill-rule:nonzero;fill:rgb(96.11969%,58.375549%,48.321533%);fill-opacity:1;" d="M 101.492188 20.238281 C 101.492188 20.238281 101.8125 19.691406 103.484375 20.148438 C 105.15625 20.605469 111.160156 21.574219 116.101562 20.949219 C 121.042969 20.324219 128 16.988281 132.136719 12.832031 C 136.273438 8.675781 147.003906 0.78125 152.40625 0.0976562 C 157.8125 -0.589844 153.699219 2.402344 149.789062 6.09375 C 145.882812 9.785156 129.710938 21.914062 116.363281 23.605469 C 104.765625 25.070312 101.34375 20.367188 101.492188 20.238281 "/>
</g>
</svg>
