<svg xmlns="http://www.w3.org/2000/svg" width="176pt" height="55" viewBox="0 0 176 41.25"><defs><clipPath id="a"><path d="M77 37h99v4.25H77Zm0 0"/></clipPath></defs><path d="M145.418 16.043h.078c6.723 0 12.832-.273 12.832-7.55s-7.219-7.052-12.832-6.759ZM176 33.093v1.43l-9.238-.07c-10.285-4.351-7.094-14.601-18.035-16.394-1.524-.25-3.223-.223-3.223-.223V24.8c0 6.726.64 8.152 6.008 8.152v1.43h-16.739v-1.43c5.461 0 5.336-1.812 5.336-8.246 0-10.484-.004-12.945-.004-16.746 0-4.95-.02-6.082-5.054-6.082V.473c8.437-.328 16.8-.871 22.258.359 5.062 1.14 7.433 5.004 7.433 7.957 0 3.45-1.543 7.3-10.504 8.453 7.325.93 11.407 9.637 15.27 13.149 2.422 2.199 4.508 2.703 6.492 2.703M101.418 19.195s-.672-1.343-1.54-3.148c-.866-1.805-4.62-9.617-4.62-9.617s-3.754 7.808-4.617 9.617c-.864 1.805-1.532 3.148-1.532 3.148ZM116.278.473h15.253V1.91c-4.23 0-4.914.031-4.914 6.906 0 7.34-.02 12.715-.02 17.625 0 5.5.325 6.52 4.938 6.52l.004 1.43h-28.703v-1.43c4.27 0 4.062-2.188 3.562-3.32-.289-.66-1.777-3.739-2.71-5.711a364 364 0 0 1-1.395-2.942H88.25s-.531 1.16-1.477 3.125c-.941 1.969-1.628 3.399-2.148 4.625-1.172 2.778.531 4.219 4.887 4.219v1.43H76.344v-1.43c4.176 0 4.715-1.45 6.379-4.797C84.039 25.512 96.234.004 96.234.004h1.746s12.551 26.066 13.887 28.781c1.332 2.715 2.188 4.203 4.719 4.203 2.578 0 4.613.004 4.613-6.574 0-5.875.004-13.969.004-17.566 0-6.38-.39-6.965-4.933-6.965V.473zM64.148 16.031c6.704.133 12.434-.195 12.434-7.21 0-7.016-7.137-7.4-12.434-6.981ZM53.641.473c15.507-.676 20.351-.477 24.308 1.39s4.446 5.383 4.446 7.196c0 1.808-.946 5.285-3.68 6.812-2.328 1.305-4.973 2.078-14.567 1.902 0 0 .008 5.864.008 9.137 0 5.352.313 6.05 5.348 6.05v1.43H53.637v-1.43c4.86 0 5.113-.741 5.113-6.487V7.993c0-5.833.09-6.11-5.11-6.11z" style="stroke:none;fill-rule:nonzero;fill:#1b1918;fill-opacity:1"/><g clip-path="url(#a)"><path d="M77.094 37.777h98.25v3.473h-98.25z" style="stroke:none;fill-rule:nonzero;fill:#309c74;fill-opacity:1"/></g><path d="M.953 9.05h2.063c2.89-5.46 5.734-6.8 7.66-6.8h13.562L0 32.805l.707 1.586h28.34l4.433-9.965h-2.07c-3.222 6.101-6.312 7.867-8.617 7.867H7.727L31.793 1.988 31.113.48H4.766zM50.36 34.39H35.101v-1.43c4.543 0 4.93-.6 4.93-7.148V8.965c0-6.55-.419-7.082-4.93-7.082V.473h15.257v1.41c-4.597 0-4.933.531-4.933 7.082v16.848c0 6.546.453 7.144 4.933 7.144z" style="stroke:none;fill-rule:nonzero;fill:#1b1918;fill-opacity:1"/></svg>