<?xml version="1.0" encoding="UTF-8"?>
<svg xmlns="http://www.w3.org/2000/svg" xmlns:xlink="http://www.w3.org/1999/xlink" width="176pt" height="36.68pt" viewBox="0 0 176 36.68" version="1.1">
<defs>
<clipPath id="clip1">
  <path d="M 140 14 L 172 14 L 172 36.679688 L 140 36.679688 Z M 140 14 "/>
</clipPath>
</defs>
<g id="surface1">
<g clip-path="url(#clip1)" clip-rule="nonzero">
<path style=" stroke:none;fill-rule:evenodd;fill:rgb(74.436951%,12.530518%,17.193604%);fill-opacity:1;" d="M 147.558594 35.824219 C 147.796875 35.449219 148.011719 35.109375 148.238281 34.75 C 148.4375 34.765625 148.621094 34.769531 148.804688 34.796875 C 149.78125 34.949219 150.632812 34.730469 151.34375 34.007812 C 151.804688 33.539062 152.195312 33.023438 152.558594 32.480469 C 155.1875 28.546875 157.8125 24.609375 160.4375 20.675781 C 160.847656 20.0625 161.257812 19.445312 161.664062 18.832031 C 161.710938 18.765625 161.75 18.691406 161.820312 18.574219 C 161.308594 18.65625 160.882812 18.820312 160.480469 19.039062 C 160.03125 19.285156 159.660156 19.617188 159.375 20.054688 C 157.46875 22.957031 155.546875 25.847656 153.628906 28.742188 C 152.910156 29.828125 152.195312 30.917969 151.457031 31.988281 C 150.976562 32.6875 150.359375 33.257812 149.628906 33.691406 C 149.097656 34.007812 148.519531 34.167969 147.90625 34.230469 C 146.707031 34.34375 145.59375 34.023438 144.5 33.582031 C 144.445312 33.5625 144.398438 33.527344 144.355469 33.492188 C 144.332031 33.476562 144.316406 33.449219 144.269531 33.386719 C 144.363281 33.21875 144.464844 33.035156 144.574219 32.855469 C 144.683594 32.683594 144.800781 32.519531 144.921875 32.339844 C 145.082031 32.339844 145.246094 32.3125 145.394531 32.34375 C 146.664062 32.617188 147.648438 32.140625 148.394531 31.148438 C 149.050781 30.269531 149.660156 29.351562 150.269531 28.4375 C 151.882812 26.035156 153.480469 23.621094 155.085938 21.214844 C 155.164062 21.09375 155.238281 20.972656 155.367188 20.773438 C 155.054688 20.855469 154.839844 20.945312 154.632812 21.050781 C 153.828125 21.457031 153.171875 22.023438 152.671875 22.78125 C 151.292969 24.867188 149.898438 26.945312 148.511719 29.03125 C 148.101562 29.648438 147.65625 30.230469 147.101562 30.726562 C 146.28125 31.457031 145.347656 31.863281 144.234375 31.890625 C 143.105469 31.917969 142.074219 31.574219 141.058594 31.140625 C 141.019531 31.125 140.984375 31.09375 140.953125 31.070312 C 140.96875 30.988281 140.964844 30.925781 140.988281 30.878906 C 141.164062 30.582031 141.347656 30.285156 141.53125 29.976562 C 141.65625 29.972656 141.769531 29.960938 141.882812 29.960938 C 141.996094 29.960938 142.113281 29.960938 142.226562 29.976562 C 143.421875 30.136719 144.285156 29.578125 145.019531 28.71875 C 145.800781 27.804688 146.46875 26.800781 147.136719 25.804688 C 148.230469 24.171875 149.320312 22.535156 150.398438 20.886719 C 150.765625 20.324219 151.238281 19.886719 151.824219 19.589844 C 152.90625 19.042969 153.988281 18.488281 155.105469 18.011719 C 156.269531 17.511719 157.464844 17.070312 158.667969 16.660156 C 160.226562 16.128906 161.804688 15.671875 163.425781 15.367188 C 164.390625 15.1875 165.351562 14.984375 166.324219 14.886719 C 167.402344 14.777344 168.488281 14.789062 169.539062 15.171875 C 170.730469 15.601562 171.46875 16.390625 171.679688 17.660156 C 171.722656 17.929688 171.714844 18.175781 171.554688 18.457031 C 170.757812 18.691406 169.933594 18.941406 169.101562 19.179688 C 168.996094 19.207031 168.875 19.183594 168.753906 19.183594 C 168.703125 19.074219 168.648438 18.988281 168.621094 18.890625 C 168.347656 17.941406 167.492188 17.605469 166.550781 17.847656 C 165.953125 18 165.53125 18.378906 165.195312 18.871094 C 164.398438 20.039062 163.613281 21.21875 162.828125 22.402344 C 161.050781 25.074219 159.273438 27.75 157.496094 30.421875 C 156.769531 31.519531 156.046875 32.621094 155.3125 33.714844 C 154.910156 34.316406 154.472656 34.886719 153.9375 35.386719 C 153.105469 36.167969 152.144531 36.617188 150.988281 36.671875 C 149.832031 36.730469 148.765625 36.429688 147.730469 35.957031 C 147.679688 35.9375 147.640625 35.890625 147.558594 35.824219 "/>
</g>
<path style=" stroke:none;fill-rule:evenodd;fill:rgb(74.436951%,12.530518%,17.193604%);fill-opacity:1;" d="M 173.40625 4.878906 C 173.105469 4.550781 172.734375 4.480469 172.375 4.410156 C 171.082031 4.15625 169.851562 4.421875 168.644531 4.875 C 168.195312 5.042969 167.753906 5.222656 167.300781 5.367188 C 166.859375 5.511719 166.398438 5.589844 165.941406 5.4375 C 165.734375 5.371094 165.523438 5.300781 165.355469 5.175781 C 164.851562 4.804688 164.722656 4.207031 165.085938 3.765625 C 165.746094 4.257812 166.503906 4.25 167.265625 4.117188 C 167.589844 4.0625 167.90625 3.945312 168.214844 3.820312 C 168.71875 3.621094 168.570312 3.128906 168.269531 2.9375 C 168.011719 2.773438 167.726562 2.679688 167.414062 2.660156 C 166.867188 2.625 166.351562 2.746094 165.84375 2.914062 C 164.679688 3.304688 163.519531 3.707031 162.359375 4.105469 C 161.648438 4.351562 160.925781 4.574219 160.175781 4.636719 C 158.640625 4.761719 157.238281 4.382812 156.101562 3.296875 C 155.453125 2.679688 155.085938 1.90625 155.152344 0.933594 C 155.269531 0.976562 155.359375 1.007812 155.445312 1.042969 C 156.199219 1.34375 156.972656 1.582031 157.785156 1.644531 C 158.21875 1.675781 158.648438 1.714844 159.082031 1.722656 C 159.96875 1.730469 160.835938 1.546875 161.691406 1.339844 C 162.800781 1.078125 163.898438 0.773438 165.003906 0.5 C 165.859375 0.289062 166.722656 0.125 167.605469 0.0507812 C 168.109375 0.00390625 168.609375 -0.0507812 169.109375 0.078125 C 169.613281 0.207031 170.0625 0.4375 170.339844 0.898438 C 170.460938 1.105469 170.523438 1.347656 170.585938 1.507812 C 170.542969 1.933594 170.378906 2.214844 170.019531 2.5 C 170.355469 2.453125 170.582031 2.421875 170.8125 2.390625 C 172.257812 2.195312 173.585938 2.484375 174.699219 3.457031 C 175.496094 4.152344 175.914062 5.0625 175.984375 6.117188 C 176.015625 6.519531 175.992188 6.925781 175.992188 7.351562 C 174.683594 6.957031 173.433594 7.195312 172.199219 7.480469 C 170.480469 7.878906 168.832031 8.496094 167.222656 9.222656 C 166.070312 9.738281 164.949219 10.300781 163.890625 10.984375 C 163.523438 11.21875 163.175781 11.472656 162.816406 11.71875 C 162.734375 11.773438 162.644531 11.824219 162.558594 11.875 C 162.585938 11.914062 162.609375 11.949219 162.636719 11.984375 C 162.753906 11.953125 162.878906 11.933594 162.992188 11.890625 C 163.847656 11.582031 164.71875 11.3125 165.617188 11.164062 C 166.199219 11.066406 166.789062 11.007812 167.375 10.929688 C 168.039062 10.847656 168.703125 10.886719 169.363281 10.9375 C 171.074219 11.074219 172.605469 11.65625 173.851562 12.867188 C 174.980469 13.957031 175.652344 15.277344 175.832031 16.859375 C 175.992188 18.265625 175.726562 19.566406 175.007812 20.769531 C 174.246094 22.035156 173.089844 22.796875 171.671875 23.152344 C 170.382812 23.472656 169.121094 23.382812 167.90625 22.820312 C 166.949219 22.375 166.257812 21.660156 165.804688 20.710938 C 165.730469 20.558594 165.710938 20.410156 165.8125 20.210938 C 166.675781 19.871094 167.613281 19.648438 168.578125 19.324219 C 168.664062 19.4375 168.742188 19.539062 168.820312 19.640625 C 169.316406 20.265625 169.988281 20.421875 170.730469 20.308594 C 171.902344 20.125 172.589844 19.296875 172.710938 18.210938 C 172.941406 16.144531 171.597656 14.847656 170.296875 14.320312 C 169.691406 14.074219 169.0625 13.910156 168.40625 13.871094 C 167.785156 13.835938 167.160156 13.765625 166.546875 13.816406 C 165.699219 13.882812 164.855469 14.015625 164.019531 14.179688 C 161.925781 14.601562 159.871094 15.183594 157.847656 15.867188 C 156.269531 16.402344 154.726562 17.007812 153.230469 17.742188 C 153.03125 17.839844 152.839844 18.003906 152.566406 17.949219 C 152.453125 17.710938 152.609375 17.539062 152.734375 17.375 C 153.097656 16.890625 153.457031 16.398438 153.851562 15.9375 C 154.519531 15.15625 155.191406 14.375 155.902344 13.636719 C 156.855469 12.644531 157.910156 11.761719 159.011719 10.929688 C 160.863281 9.53125 162.839844 8.332031 164.941406 7.347656 C 166.75 6.5 168.609375 5.792969 170.5625 5.347656 C 171.421875 5.152344 172.28125 4.96875 173.164062 4.933594 C 173.230469 4.929688 173.296875 4.90625 173.40625 4.878906 "/>
<path style=" stroke:none;fill-rule:nonzero;fill:rgb(6.266785%,5.734253%,5.047607%);fill-opacity:1;" d="M 0.851562 21.488281 C 1.558594 21.914062 2.570312 22.25 3.667969 22.25 C 4.664062 22.25 5.566406 21.789062 5.566406 20.851562 C 5.566406 20.175781 5.050781 19.734375 3.953125 19.164062 C 2.675781 18.472656 1.472656 17.550781 1.472656 15.992188 C 1.472656 13.582031 3.582031 12.109375 6.1875 12.109375 C 7.640625 12.109375 8.492188 12.429688 9.003906 12.714844 L 8.207031 14.839844 C 7.816406 14.628906 6.96875 14.289062 5.972656 14.308594 C 4.785156 14.308594 4.167969 14.910156 4.167969 15.566406 C 4.167969 16.257812 4.894531 16.683594 5.902344 17.25 C 7.355469 18.015625 8.277344 18.988281 8.277344 20.40625 C 8.277344 23.066406 6.082031 24.429688 3.421875 24.429688 C 1.753906 24.429688 0.566406 24.003906 0 23.578125 L 0.851562 21.488281 "/>
<path style=" stroke:none;fill-rule:nonzero;fill:rgb(6.266785%,5.734253%,5.047607%);fill-opacity:1;" d="M 9.269531 24.253906 L 11.644531 11.667969 L 14.199219 11.667969 L 13.242188 16.683594 L 13.277344 16.703125 C 13.984375 15.902344 14.890625 15.390625 16.042969 15.390625 C 17.390625 15.390625 18.222656 16.242188 18.222656 17.730469 C 18.222656 18.136719 18.152344 18.792969 18.0625 19.289062 L 17.125 24.253906 L 14.570312 24.253906 L 15.457031 19.503906 C 15.527344 19.164062 15.582031 18.792969 15.582031 18.421875 C 15.582031 17.855469 15.332031 17.445312 14.695312 17.445312 C 13.808594 17.445312 12.90625 18.527344 12.566406 20.28125 L 11.824219 24.253906 L 9.269531 24.253906 "/>
<path style=" stroke:none;fill-rule:nonzero;fill:rgb(6.266785%,5.734253%,5.047607%);fill-opacity:1;" d="M 24.25 17.25 C 23.0625 17.25 22.386719 18.226562 22.210938 19.042969 C 24.195312 19.058594 25.1875 18.777344 25.1875 17.996094 C 25.1875 17.550781 24.835938 17.25 24.25 17.25 Z M 26.5 23.757812 C 25.488281 24.269531 24.230469 24.429688 23.273438 24.429688 C 20.792969 24.429688 19.515625 23.03125 19.515625 20.777344 C 19.515625 18.136719 21.429688 15.390625 24.570312 15.390625 C 26.324219 15.390625 27.582031 16.363281 27.582031 17.976562 C 27.582031 20.195312 25.4375 20.992188 21.960938 20.902344 C 21.960938 21.152344 22.050781 21.542969 22.226562 21.789062 C 22.566406 22.234375 23.148438 22.464844 23.894531 22.464844 C 24.835938 22.464844 25.632812 22.25 26.324219 21.914062 L 26.5 23.757812 "/>
<path style=" stroke:none;fill-rule:nonzero;fill:rgb(6.266785%,5.734253%,5.047607%);fill-opacity:1;" d="M 28.128906 24.253906 L 29.230469 18.402344 C 29.441406 17.304688 29.585938 16.347656 29.691406 15.585938 L 31.960938 15.585938 L 31.78125 17.019531 L 31.816406 17.019531 C 32.632812 15.886719 33.714844 15.390625 34.867188 15.390625 C 36.285156 15.390625 37.082031 16.257812 37.082031 17.746094 C 37.082031 18.136719 37.011719 18.792969 36.941406 19.21875 L 35.984375 24.253906 L 33.429688 24.253906 L 34.335938 19.449219 C 34.386719 19.148438 34.421875 18.792969 34.421875 18.472656 C 34.421875 17.871094 34.210938 17.445312 33.574219 17.445312 C 32.738281 17.445312 31.765625 18.492188 31.410156 20.40625 L 30.683594 24.253906 L 28.128906 24.253906 "/>
<path style=" stroke:none;fill-rule:nonzero;fill:rgb(6.266785%,5.734253%,5.047607%);fill-opacity:1;" d="M 37.703125 22.710938 L 40.519531 19.679688 C 41.246094 18.917969 41.816406 18.402344 42.648438 17.695312 L 42.664062 17.640625 L 38.960938 17.640625 L 39.351562 15.585938 L 46.121094 15.585938 L 45.839844 17.199219 L 43.074219 20.140625 C 42.3125 20.957031 41.742188 21.507812 40.964844 22.144531 L 40.964844 22.179688 L 45.023438 22.179688 L 44.617188 24.253906 L 37.417969 24.253906 L 37.703125 22.710938 "/>
<path style=" stroke:none;fill-rule:nonzero;fill:rgb(6.266785%,5.734253%,5.047607%);fill-opacity:1;" d="M 46.085938 24.253906 L 48.460938 11.667969 L 51.015625 11.667969 L 50.058594 16.683594 L 50.09375 16.703125 C 50.800781 15.902344 51.707031 15.390625 52.859375 15.390625 C 54.207031 15.390625 55.039062 16.242188 55.039062 17.730469 C 55.039062 18.136719 54.96875 18.792969 54.878906 19.289062 L 53.941406 24.253906 L 51.386719 24.253906 L 52.273438 19.503906 C 52.34375 19.164062 52.398438 18.792969 52.398438 18.421875 C 52.398438 17.855469 52.148438 17.445312 51.511719 17.445312 C 50.625 17.445312 49.71875 18.527344 49.382812 20.28125 L 48.640625 24.253906 L 46.085938 24.253906 "/>
<path style=" stroke:none;fill-rule:nonzero;fill:rgb(6.266785%,5.734253%,5.047607%);fill-opacity:1;" d="M 61.066406 17.25 C 59.878906 17.25 59.203125 18.226562 59.027344 19.042969 C 61.011719 19.058594 62.003906 18.777344 62.003906 17.996094 C 62.003906 17.550781 61.648438 17.25 61.066406 17.25 Z M 63.316406 23.757812 C 62.304688 24.269531 61.046875 24.429688 60.089844 24.429688 C 57.609375 24.429688 56.332031 23.03125 56.332031 20.777344 C 56.332031 18.136719 58.246094 15.390625 61.382812 15.390625 C 63.140625 15.390625 64.398438 16.363281 64.398438 17.976562 C 64.398438 20.195312 62.253906 20.992188 58.777344 20.902344 C 58.777344 21.152344 58.867188 21.542969 59.042969 21.789062 C 59.382812 22.234375 59.964844 22.464844 60.710938 22.464844 C 61.648438 22.464844 62.449219 22.25 63.140625 21.914062 L 63.316406 23.757812 "/>
<path style=" stroke:none;fill-rule:nonzero;fill:rgb(6.266785%,5.734253%,5.047607%);fill-opacity:1;" d="M 64.945312 24.253906 L 66.046875 18.402344 C 66.257812 17.304688 66.398438 16.347656 66.507812 15.585938 L 68.777344 15.585938 L 68.597656 17.019531 L 68.632812 17.019531 C 69.449219 15.886719 70.53125 15.390625 71.683594 15.390625 C 73.101562 15.390625 73.898438 16.257812 73.898438 17.746094 C 73.898438 18.136719 73.828125 18.792969 73.757812 19.21875 L 72.800781 24.253906 L 70.246094 24.253906 L 71.152344 19.449219 C 71.203125 19.148438 71.238281 18.792969 71.238281 18.472656 C 71.238281 17.871094 71.027344 17.445312 70.390625 17.445312 C 69.554688 17.445312 68.582031 18.492188 68.226562 20.40625 L 67.5 24.253906 L 64.945312 24.253906 "/>
<path style=" stroke:none;fill-rule:nonzero;fill:rgb(6.266785%,5.734253%,5.047607%);fill-opacity:1;" d="M 84.921875 19.203125 L 84.691406 16.632812 C 84.640625 15.976562 84.570312 15.015625 84.515625 14.289062 L 84.480469 14.289062 C 84.179688 15.015625 83.84375 15.941406 83.523438 16.632812 L 82.335938 19.203125 Z M 81.589844 21.152344 L 80.171875 24.253906 L 77.460938 24.253906 L 83.273438 12.304688 L 86.554688 12.304688 L 87.953125 24.253906 L 85.277344 24.253906 L 85.03125 21.152344 L 81.589844 21.152344 "/>
<path style=" stroke:none;fill-rule:nonzero;fill:rgb(6.266785%,5.734253%,5.047607%);fill-opacity:1;" d="M 91.269531 13.261719 C 91.285156 12.394531 91.960938 11.808594 92.738281 11.808594 C 93.484375 11.808594 94.015625 12.304688 94.015625 13.066406 C 94.015625 13.972656 93.324219 14.503906 92.511719 14.503906 C 91.800781 14.503906 91.269531 14.023438 91.269531 13.261719 Z M 89.265625 24.253906 L 90.914062 15.585938 L 93.46875 15.585938 L 91.820312 24.253906 L 89.265625 24.253906 "/>
<path style=" stroke:none;fill-rule:nonzero;fill:rgb(6.266785%,5.734253%,5.047607%);fill-opacity:1;" d="M 93.964844 24.253906 L 94.9375 19.09375 C 95.183594 17.78125 95.292969 16.328125 95.382812 15.585938 L 97.597656 15.585938 C 97.542969 16.171875 97.488281 16.753906 97.4375 17.359375 L 97.488281 17.359375 C 98.09375 16.207031 99.070312 15.390625 100.257812 15.390625 C 100.414062 15.390625 100.574219 15.390625 100.734375 15.40625 L 100.238281 17.890625 C 100.113281 17.871094 99.972656 17.871094 99.832031 17.871094 C 98.199219 17.871094 97.4375 19.324219 97.117188 21.027344 L 96.515625 24.253906 L 93.964844 24.253906 "/>
<path style=" stroke:none;fill-rule:nonzero;fill:rgb(6.266785%,5.734253%,5.047607%);fill-opacity:1;" d="M 100.519531 24.253906 L 102.933594 11.667969 L 105.484375 11.667969 L 103.074219 24.253906 L 100.519531 24.253906 "/>
<path style=" stroke:none;fill-rule:nonzero;fill:rgb(6.266785%,5.734253%,5.047607%);fill-opacity:1;" d="M 107.222656 13.261719 C 107.238281 12.394531 107.914062 11.808594 108.691406 11.808594 C 109.4375 11.808594 109.96875 12.304688 109.96875 13.066406 C 109.96875 13.972656 109.277344 14.503906 108.464844 14.503906 C 107.753906 14.503906 107.222656 14.023438 107.222656 13.261719 Z M 105.21875 24.253906 L 106.867188 15.585938 L 109.421875 15.585938 L 107.769531 24.253906 L 105.21875 24.253906 "/>
<path style=" stroke:none;fill-rule:nonzero;fill:rgb(6.266785%,5.734253%,5.047607%);fill-opacity:1;" d="M 109.914062 24.253906 L 111.015625 18.402344 C 111.226562 17.304688 111.367188 16.347656 111.476562 15.585938 L 113.742188 15.585938 L 113.566406 17.019531 L 113.605469 17.019531 C 114.417969 15.886719 115.5 15.390625 116.652344 15.390625 C 118.070312 15.390625 118.867188 16.257812 118.867188 17.746094 C 118.867188 18.136719 118.796875 18.792969 118.726562 19.21875 L 117.769531 24.253906 L 115.21875 24.253906 L 116.121094 19.449219 C 116.175781 19.148438 116.210938 18.792969 116.210938 18.472656 C 116.210938 17.871094 115.996094 17.445312 115.355469 17.445312 C 114.523438 17.445312 113.550781 18.492188 113.195312 20.40625 L 112.46875 24.253906 L 109.914062 24.253906 "/>
<path style=" stroke:none;fill-rule:nonzero;fill:rgb(6.266785%,5.734253%,5.047607%);fill-opacity:1;" d="M 124.894531 17.25 C 123.707031 17.25 123.03125 18.226562 122.855469 19.042969 C 124.839844 19.058594 125.835938 18.777344 125.835938 17.996094 C 125.835938 17.550781 125.480469 17.25 124.894531 17.25 Z M 127.144531 23.757812 C 126.136719 24.269531 124.875 24.429688 123.917969 24.429688 C 121.4375 24.429688 120.160156 23.03125 120.160156 20.777344 C 120.160156 18.136719 122.074219 15.390625 125.214844 15.390625 C 126.96875 15.390625 128.226562 16.363281 128.226562 17.976562 C 128.226562 20.195312 126.082031 20.992188 122.605469 20.902344 C 122.605469 21.152344 122.695312 21.542969 122.875 21.789062 C 123.210938 22.234375 123.796875 22.464844 124.539062 22.464844 C 125.480469 22.464844 126.277344 22.25 126.96875 21.914062 L 127.144531 23.757812 "/>
<path style=" stroke:none;fill-rule:nonzero;fill:rgb(6.266785%,5.734253%,5.047607%);fill-opacity:1;" d="M 129.09375 21.964844 C 129.589844 22.214844 130.53125 22.570312 131.363281 22.570312 C 132.089844 22.570312 132.464844 22.214844 132.464844 21.789062 C 132.464844 21.363281 132.179688 21.0625 131.382812 20.671875 C 130.371094 20.175781 129.539062 19.449219 129.539062 18.367188 C 129.539062 16.578125 131.113281 15.390625 133.347656 15.390625 C 134.359375 15.390625 135.15625 15.585938 135.582031 15.832031 L 134.980469 17.640625 C 134.609375 17.464844 134.003906 17.25 133.242188 17.25 C 132.570312 17.25 132.109375 17.550781 132.109375 18.015625 C 132.109375 18.367188 132.464844 18.667969 133.171875 19.007812 C 134.113281 19.484375 135.105469 20.175781 135.105469 21.382812 C 135.105469 23.367188 133.421875 24.429688 131.132812 24.429688 C 130.035156 24.429688 128.988281 24.148438 128.472656 23.757812 L 129.09375 21.964844 "/>
</g>
</svg>
