<?xml version="1.0" encoding="UTF-8"?>
<svg xmlns="http://www.w3.org/2000/svg" xmlns:xlink="http://www.w3.org/1999/xlink" width="176pt" height="28.68pt" viewBox="0 0 176 28.68" version="1.1">
<defs>
<clipPath id="clip1">
  <path d="M 0 21 L 175 21 L 175 28.679688 L 0 28.679688 Z M 0 21 "/>
</clipPath>
</defs>
<g id="surface1">
<path style=" stroke:none;fill-rule:evenodd;fill:rgb(8.084106%,20.899963%,43.476868%);fill-opacity:1;" d="M 71.773438 -0.00390625 L 62.761719 19.144531 L 56.953125 19.144531 L 56.496094 7.398438 L 56.445312 7.398438 L 50.988281 19.144531 L 45.074219 19.144531 L 44.5625 -0.00390625 L 49.894531 -0.00390625 L 49.613281 11.683594 L 49.6875 11.734375 L 54.964844 -0.00390625 L 60.71875 -0.00390625 L 60.984375 11.8125 L 61.035156 11.8125 L 65.964844 -0.00390625 Z M 77.351562 -0.00390625 L 76.59375 3.648438 L 71.28125 3.648438 L 72.019531 -0.00390625 Z M 76.261719 5.289062 L 73.269531 19.144531 L 67.9375 19.144531 L 70.894531 5.289062 Z M 90.375 8.601562 L 85.414062 9.136719 C 85.253906 8.296875 84.636719 7.886719 83.53125 7.886719 C 82.894531 7.886719 82.40625 8 82.066406 8.238281 C 81.753906 8.46875 81.578125 8.746094 81.578125 9.054688 C 81.578125 9.382812 81.734375 9.648438 82.015625 9.859375 C 82.296875 10.074219 83.089844 10.277344 84.355469 10.457031 C 86.414062 10.761719 87.769531 11.21875 88.441406 11.835938 C 89.128906 12.449219 89.460938 13.269531 89.460938 14.292969 C 89.460938 15.722656 88.792969 16.945312 87.472656 17.953125 C 86.152344 18.960938 84.128906 19.464844 81.417969 19.464844 C 79.21875 19.464844 77.597656 19.144531 76.558594 18.5 C 75.539062 17.855469 74.941406 16.796875 74.765625 15.316406 L 80.011719 14.855469 C 80.238281 15.980469 80.976562 16.542969 82.226562 16.542969 C 82.808594 16.542969 83.335938 16.417969 83.777344 16.164062 C 84.234375 15.910156 84.445312 15.546875 84.445312 15.082031 C 84.445312 14.652344 84.285156 14.367188 83.96875 14.21875 C 83.652344 14.070312 83.035156 13.925781 82.140625 13.785156 C 80.082031 13.464844 78.671875 12.972656 77.949219 12.328125 C 77.210938 11.667969 76.839844 10.847656 76.839844 9.855469 C 76.839844 9.046875 77.121094 8.257812 77.667969 7.480469 C 78.214844 6.703125 79.058594 6.09375 80.167969 5.644531 C 81.277344 5.199219 82.632812 4.96875 84.253906 4.96875 C 86.117188 4.96875 87.527344 5.242188 88.527344 5.785156 C 89.515625 6.328125 90.128906 7.269531 90.375 8.601562 Z M 106.777344 10.105469 L 101.976562 10.367188 C 101.746094 9.15625 100.9375 8.546875 99.527344 8.546875 C 98.242188 8.546875 97.238281 9.078125 96.535156 10.125 C 95.847656 11.171875 95.496094 12.316406 95.496094 13.550781 C 95.496094 14.300781 95.742188 14.875 96.238281 15.277344 C 96.746094 15.675781 97.277344 15.878906 97.855469 15.878906 C 99.265625 15.878906 100.320312 15.09375 101.007812 13.527344 L 105.988281 14.058594 C 104.753906 17.664062 101.976562 19.464844 97.644531 19.464844 C 92.753906 19.464844 90.304688 17.472656 90.304688 13.472656 C 90.304688 11.148438 91.113281 9.152344 92.734375 7.480469 C 94.335938 5.808594 96.605469 4.96875 99.527344 4.96875 C 101.621094 4.96875 103.3125 5.398438 104.5625 6.257812 C 105.8125 7.113281 106.550781 8.394531 106.777344 10.105469 Z M 115.066406 4.96875 C 117.550781 4.96875 119.363281 5.597656 120.488281 6.851562 C 121.632812 8.105469 122.195312 9.574219 122.195312 11.25 C 122.195312 12.535156 121.882812 13.835938 121.210938 15.15625 C 120.558594 16.480469 119.59375 17.53125 118.269531 18.300781 C 116.972656 19.078125 115.351562 19.464844 113.433594 19.464844 C 111.003906 19.464844 109.207031 18.871094 108.046875 17.671875 C 106.902344 16.472656 106.320312 14.984375 106.320312 13.199219 C 106.320312 11.796875 106.65625 10.445312 107.359375 9.136719 C 108.046875 7.832031 109.050781 6.808594 110.371094 6.074219 C 111.6875 5.339844 113.257812 4.96875 115.066406 4.96875 Z M 113.765625 15.878906 C 114.769531 15.878906 115.5625 15.371094 116.144531 14.355469 C 116.722656 13.339844 117.023438 12.214844 117.023438 10.980469 C 117.023438 10.085938 116.792969 9.453125 116.355469 9.09375 C 115.894531 8.734375 115.421875 8.546875 114.875 8.546875 C 113.75 8.546875 112.902344 9.054688 112.339844 10.078125 C 111.777344 11.097656 111.496094 12.136719 111.496094 13.199219 C 111.496094 13.964844 111.726562 14.605469 112.164062 15.113281 C 112.605469 15.621094 113.132812 15.878906 113.765625 15.878906 Z M 129.148438 7.425781 C 130.609375 5.789062 132.386719 4.96875 134.5 4.96875 C 135.75 4.96875 136.683594 5.292969 137.316406 5.933594 C 137.949219 6.570312 138.265625 7.355469 138.265625 8.289062 C 138.265625 8.84375 138.089844 9.945312 137.734375 11.582031 L 136.136719 19.144531 L 130.804688 19.144531 L 132.175781 12.703125 C 132.511719 11.125 132.671875 10.226562 132.671875 9.996094 C 132.671875 9.230469 132.316406 8.847656 131.632812 8.847656 C 130.839844 8.847656 130.152344 9.21875 129.570312 9.953125 C 128.992188 10.6875 128.550781 11.75 128.25 13.132812 L 126.945312 19.144531 L 121.597656 19.144531 L 124.574219 5.289062 L 129.554688 5.289062 L 129.097656 7.375 Z M 153.117188 8.601562 L 148.140625 9.136719 C 148 8.296875 147.363281 7.886719 146.273438 7.886719 C 145.621094 7.886719 145.144531 8 144.8125 8.238281 C 144.480469 8.46875 144.320312 8.746094 144.320312 9.054688 C 144.320312 9.382812 144.460938 9.648438 144.742188 9.859375 C 145.042969 10.074219 145.832031 10.277344 147.101562 10.457031 C 149.144531 10.761719 150.496094 11.21875 151.164062 11.835938 C 151.851562 12.449219 152.1875 13.269531 152.1875 14.292969 C 152.1875 15.722656 151.535156 16.945312 150.199219 17.953125 C 148.878906 18.960938 146.871094 19.464844 144.160156 19.464844 C 141.941406 19.464844 140.324219 19.144531 139.304688 18.5 C 138.265625 17.855469 137.667969 16.796875 137.492188 15.316406 L 142.734375 14.855469 C 142.964844 15.980469 143.703125 16.542969 144.972656 16.542969 C 145.554688 16.542969 146.0625 16.417969 146.519531 16.164062 C 146.960938 15.910156 147.1875 15.546875 147.1875 15.082031 C 147.1875 14.652344 147.027344 14.367188 146.695312 14.21875 C 146.378906 14.070312 145.765625 13.925781 144.882812 13.785156 C 142.808594 13.464844 141.414062 12.972656 140.675781 12.328125 C 139.957031 11.667969 139.585938 10.847656 139.585938 9.855469 C 139.585938 9.046875 139.867188 8.257812 140.414062 7.480469 C 140.960938 6.703125 141.785156 6.09375 142.894531 5.644531 C 144.003906 5.199219 145.378906 4.96875 146.992188 4.96875 C 148.84375 4.96875 150.269531 5.242188 151.257812 5.785156 C 152.238281 6.328125 152.855469 7.269531 153.117188 8.601562 Z M 161.761719 -0.00390625 L 161.003906 3.648438 L 155.6875 3.648438 L 156.445312 -0.00390625 Z M 160.671875 5.289062 L 157.695312 19.144531 L 152.347656 19.144531 L 155.320312 5.289062 Z M 166.882812 7.425781 C 168.34375 5.789062 170.140625 4.96875 172.234375 4.96875 C 173.5 4.96875 174.433594 5.292969 175.066406 5.933594 C 175.683594 6.570312 176 7.355469 176 8.289062 C 176 8.84375 175.824219 9.945312 175.472656 11.582031 L 173.871094 19.144531 L 168.539062 19.144531 L 169.910156 12.703125 C 170.246094 11.125 170.402344 10.226562 170.402344 9.996094 C 170.402344 9.230469 170.066406 8.847656 169.363281 8.847656 C 168.589844 8.847656 167.902344 9.21875 167.324219 9.953125 C 166.726562 10.6875 166.285156 11.75 166.003906 13.132812 L 164.683594 19.144531 L 159.332031 19.144531 L 162.308594 5.289062 L 167.285156 5.289062 L 166.828125 7.375 Z M 20.171875 19.144531 L 14.363281 19.144531 L 14.097656 16.007812 L 7.867188 16.007812 L 6.371094 19.144531 L 0 19.144531 L 10.804688 -0.00390625 L 17.125 -0.00390625 Z M 13.726562 11.945312 L 13.148438 4.96875 L 13.09375 4.96875 L 9.804688 11.945312 Z M 29.8125 -0.00390625 L 29.058594 3.648438 L 23.742188 3.648438 L 24.480469 -0.00390625 Z M 28.722656 5.289062 L 25.730469 19.144531 L 20.398438 19.144531 L 23.355469 5.289062 Z M 40.8125 5.386719 L 38.863281 9.492188 C 38.457031 9.394531 38.085938 9.347656 37.769531 9.347656 C 36.75 9.347656 35.921875 9.714844 35.269531 10.445312 C 34.65625 11.175781 34.144531 12.347656 33.808594 13.957031 L 32.703125 19.144531 L 27.386719 19.144531 L 30.324219 5.289062 L 35.304688 5.289062 L 34.691406 8.015625 L 34.742188 8.066406 C 35.570312 6.835938 36.308594 6.019531 36.925781 5.597656 C 37.558594 5.179688 38.246094 4.96875 38.984375 4.96875 C 39.546875 4.96875 40.164062 5.113281 40.8125 5.386719 "/>
<g clip-path="url(#clip1)" clip-rule="nonzero">
<path style=" stroke:none;fill-rule:evenodd;fill:rgb(63.601685%,2.500916%,25.354004%);fill-opacity:1;" d="M 168.679688 22.828125 C 169.101562 23.300781 169.875 24.191406 171.035156 25.496094 C 172.253906 26.816406 173.042969 27.660156 173.394531 28.019531 C 173.816406 28.441406 174.027344 28.640625 174.046875 28.613281 C 174.082031 28.613281 174.117188 28.578125 174.117188 28.503906 C 174.136719 28.429688 174.136719 28.242188 174.136719 27.953125 L 174.152344 22.496094 C 174.136719 22.21875 174.171875 22.011719 174.203125 21.890625 C 174.257812 21.765625 174.347656 21.691406 174.484375 21.667969 C 174.59375 21.648438 174.660156 21.640625 174.695312 21.640625 C 174.769531 21.640625 174.804688 21.617188 174.804688 21.574219 C 174.804688 21.535156 174.730469 21.515625 174.644531 21.515625 C 174.449219 21.515625 174.292969 21.519531 174.152344 21.523438 C 174.027344 21.535156 173.925781 21.542969 173.871094 21.542969 C 173.710938 21.527344 173.394531 21.519531 172.9375 21.515625 C 172.8125 21.515625 172.761719 21.535156 172.761719 21.574219 C 172.742188 21.617188 172.777344 21.640625 172.832031 21.640625 C 172.921875 21.640625 173.078125 21.65625 173.273438 21.6875 C 173.410156 21.71875 173.5 21.792969 173.554688 21.917969 C 173.605469 22.046875 173.625 22.265625 173.625 22.570312 L 173.710938 27.304688 C 173.308594 26.832031 172.585938 26.019531 171.546875 24.875 C 169.980469 23.117188 169.03125 22.054688 168.695312 21.683594 C 168.644531 21.625 168.589844 21.5625 168.539062 21.496094 C 168.46875 21.425781 168.414062 21.386719 168.378906 21.382812 C 168.34375 21.382812 168.324219 21.410156 168.308594 21.46875 C 168.289062 21.535156 168.273438 21.660156 168.273438 21.847656 L 168.273438 27.1875 C 168.273438 27.59375 168.257812 27.886719 168.222656 28.0625 C 168.1875 28.234375 168.113281 28.335938 167.992188 28.367188 C 167.832031 28.410156 167.710938 28.429688 167.621094 28.421875 C 167.585938 28.421875 167.554688 28.4375 167.554688 28.480469 C 167.554688 28.523438 167.605469 28.546875 167.691406 28.546875 C 168.148438 28.535156 168.433594 28.527344 168.574219 28.523438 C 168.660156 28.527344 168.980469 28.535156 169.523438 28.546875 C 169.628906 28.546875 169.683594 28.523438 169.683594 28.480469 C 169.683594 28.4375 169.644531 28.421875 169.609375 28.421875 C 169.503906 28.429688 169.347656 28.410156 169.152344 28.367188 C 169.046875 28.335938 168.960938 28.242188 168.90625 28.082031 C 168.835938 27.925781 168.800781 27.660156 168.800781 27.289062 Z M 157.34375 24.761719 C 157.359375 23.742188 157.609375 22.972656 158.101562 22.464844 C 158.59375 21.953125 159.226562 21.699219 159.984375 21.699219 C 160.726562 21.699219 161.355469 21.992188 161.902344 22.570312 C 162.429688 23.160156 162.710938 24.011719 162.730469 25.132812 C 162.710938 25.804688 162.625 26.347656 162.464844 26.761719 C 162.269531 27.183594 162.0625 27.507812 161.796875 27.738281 C 161.515625 27.960938 161.25 28.113281 160.96875 28.191406 C 160.703125 28.28125 160.460938 28.324219 160.230469 28.324219 C 159.402344 28.320312 158.71875 27.996094 158.1875 27.347656 C 157.644531 26.714844 157.359375 25.851562 157.34375 24.761719 Z M 156.496094 25.023438 C 156.480469 25.910156 156.765625 26.726562 157.324219 27.46875 C 157.871094 28.253906 158.769531 28.652344 160.003906 28.679688 C 161.09375 28.660156 161.972656 28.289062 162.625 27.554688 C 163.257812 26.832031 163.59375 25.9375 163.59375 24.871094 C 163.574219 23.777344 163.238281 22.917969 162.570312 22.304688 C 161.921875 21.695312 161.09375 21.386719 160.054688 21.382812 C 158.820312 21.414062 157.90625 21.832031 157.34375 22.628906 C 156.78125 23.414062 156.480469 24.207031 156.496094 25.023438 Z M 151.835938 24.210938 C 151.835938 23.507812 151.851562 23.023438 151.851562 22.765625 C 151.851562 22.507812 151.851562 22.320312 151.851562 22.199219 C 151.871094 22.03125 151.890625 21.902344 151.941406 21.816406 C 151.992188 21.738281 152.082031 21.6875 152.1875 21.671875 C 152.292969 21.648438 152.363281 21.640625 152.414062 21.640625 C 152.46875 21.640625 152.484375 21.625 152.484375 21.582031 C 152.484375 21.539062 152.433594 21.515625 152.347656 21.515625 C 152.203125 21.515625 152.027344 21.519531 151.816406 21.523438 C 151.625 21.535156 151.5 21.542969 151.464844 21.542969 C 151.289062 21.527344 150.988281 21.519531 150.550781 21.515625 C 150.460938 21.515625 150.410156 21.539062 150.410156 21.582031 C 150.410156 21.625 150.445312 21.640625 150.480469 21.640625 C 150.566406 21.640625 150.65625 21.652344 150.761719 21.679688 C 150.953125 21.710938 151.0625 21.886719 151.0625 22.199219 C 151.078125 22.292969 151.097656 22.964844 151.097656 24.210938 L 151.097656 25.847656 C 151.097656 26.777344 151.078125 27.449219 151.042969 27.875 C 151.023438 28.011719 151.007812 28.121094 150.972656 28.207031 C 150.9375 28.300781 150.867188 28.359375 150.777344 28.382812 C 150.691406 28.40625 150.605469 28.421875 150.515625 28.421875 C 150.460938 28.429688 150.445312 28.453125 150.445312 28.480469 C 150.445312 28.523438 150.480469 28.546875 150.585938 28.546875 C 150.988281 28.535156 151.289062 28.527344 151.464844 28.523438 C 151.605469 28.527344 151.976562 28.535156 152.574219 28.546875 C 152.660156 28.546875 152.714844 28.523438 152.714844 28.480469 C 152.714844 28.453125 152.695312 28.429688 152.644531 28.421875 C 152.519531 28.421875 152.398438 28.40625 152.238281 28.382812 C 152.101562 28.359375 152.011719 28.300781 151.976562 28.210938 C 151.921875 28.121094 151.90625 28.011719 151.890625 27.875 C 151.851562 27.449219 151.835938 26.777344 151.835938 25.847656 Z M 144.003906 21.914062 L 145.144531 21.933594 C 145.570312 21.941406 145.851562 21.992188 146.011719 22.082031 C 146.167969 22.179688 146.257812 22.300781 146.257812 22.445312 L 146.257812 22.542969 C 146.273438 22.652344 146.289062 22.703125 146.328125 22.699219 C 146.378906 22.699219 146.394531 22.660156 146.394531 22.578125 C 146.414062 22.328125 146.414062 21.988281 146.433594 21.558594 C 146.433594 21.492188 146.414062 21.457031 146.378906 21.449219 C 146.34375 21.449219 146.257812 21.464844 146.132812 21.496094 C 146.0625 21.503906 145.976562 21.511719 145.867188 21.523438 C 145.765625 21.535156 145.640625 21.542969 145.480469 21.542969 L 142.101562 21.542969 C 141.941406 21.542969 141.695312 21.527344 141.398438 21.496094 C 141.171875 21.429688 141.046875 21.394531 140.992188 21.382812 C 140.960938 21.398438 140.925781 21.460938 140.90625 21.558594 C 140.886719 21.625 140.851562 21.78125 140.800781 22.035156 C 140.78125 22.15625 140.765625 22.253906 140.746094 22.339844 C 140.710938 22.433594 140.710938 22.5 140.710938 22.527344 C 140.710938 22.585938 140.730469 22.617188 140.746094 22.617188 C 140.78125 22.621094 140.816406 22.585938 140.835938 22.519531 C 140.851562 22.46875 140.90625 22.375 140.992188 22.230469 C 141.0625 22.121094 141.171875 22.042969 141.292969 21.996094 C 141.433594 21.953125 141.644531 21.933594 141.90625 21.933594 L 143.246094 21.914062 L 143.246094 25.851562 C 143.246094 26.777344 143.230469 27.453125 143.191406 27.875 C 143.191406 28.011719 143.160156 28.121094 143.121094 28.207031 C 143.089844 28.300781 143.035156 28.359375 142.945312 28.382812 C 142.859375 28.40625 142.753906 28.421875 142.683594 28.421875 C 142.632812 28.429688 142.597656 28.453125 142.597656 28.480469 C 142.597656 28.523438 142.648438 28.546875 142.753906 28.546875 C 143.160156 28.535156 143.441406 28.527344 143.636719 28.523438 C 143.773438 28.527344 144.144531 28.535156 144.742188 28.546875 C 144.832031 28.546875 144.882812 28.523438 144.882812 28.480469 C 144.882812 28.453125 144.847656 28.429688 144.8125 28.421875 C 144.6875 28.421875 144.550781 28.40625 144.40625 28.382812 C 144.269531 28.359375 144.179688 28.300781 144.144531 28.210938 C 144.09375 28.121094 144.054688 28.015625 144.039062 27.875 C 144.003906 27.453125 144.003906 26.777344 144.003906 25.851562 Z M 134.164062 25.46875 C 134.128906 25.46875 134.128906 25.445312 134.148438 25.402344 L 134.9375 22.886719 C 134.976562 22.746094 135.027344 22.746094 135.0625 22.886719 L 135.925781 25.402344 C 135.941406 25.445312 135.925781 25.46875 135.890625 25.46875 Z M 132.894531 27.53125 C 132.828125 27.765625 132.738281 27.960938 132.613281 28.113281 C 132.511719 28.277344 132.351562 28.375 132.15625 28.402344 C 132.054688 28.414062 131.964844 28.421875 131.878906 28.421875 C 131.84375 28.421875 131.808594 28.4375 131.808594 28.480469 C 131.808594 28.523438 131.859375 28.546875 131.980469 28.546875 C 132.476562 28.535156 132.828125 28.527344 133.003906 28.523438 C 133.160156 28.527344 133.40625 28.535156 133.707031 28.546875 C 133.777344 28.546875 133.828125 28.523438 133.828125 28.480469 C 133.828125 28.4375 133.796875 28.421875 133.742188 28.421875 L 133.652344 28.421875 C 133.585938 28.421875 133.496094 28.398438 133.441406 28.347656 C 133.355469 28.3125 133.320312 28.246094 133.320312 28.152344 C 133.320312 27.980469 133.355469 27.769531 133.441406 27.53125 L 133.972656 25.875 C 133.988281 25.828125 134.023438 25.804688 134.078125 25.804688 L 136.015625 25.804688 C 136.050781 25.804688 136.085938 25.824219 136.085938 25.855469 L 136.929688 28.152344 C 136.945312 28.230469 136.964844 28.285156 136.945312 28.320312 C 136.929688 28.363281 136.910156 28.390625 136.875 28.402344 C 136.820312 28.40625 136.804688 28.429688 136.804688 28.46875 C 136.804688 28.507812 136.894531 28.53125 137.085938 28.53125 C 137.789062 28.542969 138.265625 28.546875 138.492188 28.546875 C 138.617188 28.546875 138.671875 28.523438 138.671875 28.480469 C 138.671875 28.4375 138.652344 28.421875 138.582031 28.421875 C 138.492188 28.429688 138.371094 28.410156 138.230469 28.367188 C 138.144531 28.347656 138.019531 28.269531 137.894531 28.136719 C 137.757812 28 137.613281 27.730469 137.457031 27.335938 C 136.539062 24.929688 135.835938 23.058594 135.34375 21.71875 C 135.257812 21.484375 135.1875 21.367188 135.148438 21.382812 C 135.113281 21.367188 135.046875 21.488281 134.957031 21.738281 Z M 124.75 21.976562 C 124.75 21.925781 124.765625 21.890625 124.820312 21.871094 C 124.925781 21.839844 125.136719 21.820312 125.417969 21.8125 C 126.4375 21.832031 126.96875 22.457031 126.984375 23.675781 C 126.96875 24.398438 126.789062 24.875 126.4375 25.109375 C 126.332031 25.175781 126.210938 25.222656 126.105469 25.25 C 125.980469 25.273438 125.855469 25.285156 125.753906 25.285156 C 125.539062 25.285156 125.363281 25.269531 125.1875 25.242188 C 125.011719 25.210938 124.890625 25.175781 124.800781 25.140625 C 124.765625 25.105469 124.75 25.070312 124.75 25.027344 Z M 124.027344 25.847656 C 124.027344 26.773438 124.011719 27.449219 123.972656 27.875 C 123.957031 28.011719 123.9375 28.121094 123.902344 28.207031 C 123.867188 28.300781 123.800781 28.359375 123.710938 28.382812 C 123.621094 28.40625 123.535156 28.421875 123.445312 28.421875 C 123.394531 28.429688 123.378906 28.453125 123.378906 28.480469 C 123.378906 28.523438 123.429688 28.546875 123.515625 28.546875 C 123.9375 28.535156 124.222656 28.527344 124.359375 28.523438 C 124.503906 28.527344 124.871094 28.535156 125.472656 28.546875 C 125.574219 28.546875 125.609375 28.523438 125.609375 28.480469 C 125.609375 28.453125 125.59375 28.429688 125.539062 28.421875 C 125.4375 28.421875 125.296875 28.40625 125.136719 28.382812 C 125.011719 28.359375 124.925781 28.300781 124.871094 28.207031 C 124.835938 28.121094 124.800781 28.011719 124.785156 27.875 C 124.75 27.449219 124.730469 26.773438 124.75 25.847656 L 124.75 25.621094 C 124.75 25.574219 124.765625 25.550781 124.800781 25.550781 L 125.910156 25.566406 C 125.964844 25.566406 125.996094 25.585938 126.03125 25.621094 C 126.261719 25.949219 126.578125 26.40625 127.019531 27 C 127.265625 27.347656 127.492188 27.636719 127.6875 27.859375 C 127.863281 28.089844 128.039062 28.257812 128.234375 28.371094 C 128.339844 28.4375 128.480469 28.480469 128.621094 28.503906 C 128.761719 28.535156 128.957031 28.546875 129.199219 28.546875 L 129.835938 28.546875 C 129.992188 28.546875 130.0625 28.523438 130.046875 28.480469 C 130.046875 28.453125 130.011719 28.429688 129.976562 28.421875 C 129.90625 28.429688 129.800781 28.421875 129.625 28.394531 C 129.503906 28.382812 129.359375 28.328125 129.183594 28.238281 C 128.992188 28.152344 128.761719 27.980469 128.515625 27.722656 C 128.003906 27.128906 127.371094 26.332031 126.648438 25.34375 C 127.054688 24.949219 127.335938 24.582031 127.511719 24.230469 C 127.652344 23.878906 127.742188 23.53125 127.742188 23.191406 C 127.722656 22.863281 127.652344 22.585938 127.511719 22.371094 C 127.460938 22.261719 127.390625 22.167969 127.320312 22.089844 C 127.246094 22.015625 127.179688 21.960938 127.125 21.921875 C 126.878906 21.75 126.613281 21.632812 126.332031 21.578125 C 126.050781 21.535156 125.769531 21.515625 125.472656 21.515625 C 125.03125 21.527344 124.660156 21.535156 124.398438 21.542969 C 124.238281 21.527344 123.902344 21.519531 123.378906 21.515625 C 123.289062 21.515625 123.234375 21.539062 123.234375 21.582031 C 123.234375 21.625 123.269531 21.640625 123.304688 21.640625 C 123.429688 21.640625 123.515625 21.648438 123.621094 21.671875 C 123.765625 21.691406 123.867188 21.746094 123.921875 21.835938 C 123.972656 21.917969 123.992188 22.035156 124.011719 22.199219 C 124.011719 22.292969 124.027344 22.964844 124.027344 24.214844 Z M 113.046875 24.761719 C 113.046875 23.742188 113.308594 22.972656 113.800781 22.464844 C 114.296875 21.953125 114.910156 21.699219 115.683594 21.699219 C 116.40625 21.699219 117.058594 21.992188 117.585938 22.570312 C 118.132812 23.160156 118.410156 24.011719 118.410156 25.132812 C 118.410156 25.804688 118.324219 26.347656 118.148438 26.761719 C 117.972656 27.183594 117.742188 27.507812 117.480469 27.738281 C 117.214844 27.960938 116.953125 28.113281 116.671875 28.191406 C 116.390625 28.28125 116.144531 28.324219 115.933594 28.324219 C 115.105469 28.320312 114.417969 27.996094 113.871094 27.347656 C 113.324219 26.714844 113.046875 25.851562 113.046875 24.761719 Z M 112.183594 25.023438 C 112.183594 25.910156 112.464844 26.726562 113.011719 27.46875 C 113.570312 28.253906 114.453125 28.652344 115.683594 28.679688 C 116.792969 28.660156 117.65625 28.289062 118.308594 27.554688 C 118.957031 26.832031 119.273438 25.9375 119.273438 24.871094 C 119.273438 23.777344 118.941406 22.917969 118.269531 22.304688 C 117.621094 21.695312 116.777344 21.386719 115.738281 21.382812 C 114.507812 21.414062 113.609375 21.832031 113.046875 22.628906 C 112.464844 23.414062 112.183594 24.207031 112.183594 25.023438 Z M 104.667969 25.847656 C 104.667969 26.777344 104.648438 27.449219 104.613281 27.875 C 104.613281 28.011719 104.578125 28.121094 104.542969 28.207031 C 104.507812 28.300781 104.457031 28.359375 104.367188 28.382812 C 104.265625 28.40625 104.175781 28.421875 104.085938 28.421875 C 104.054688 28.429688 104.015625 28.453125 104.015625 28.480469 C 104.015625 28.523438 104.066406 28.546875 104.15625 28.546875 C 104.578125 28.535156 104.859375 28.527344 105.019531 28.523438 C 105.179688 28.527344 105.546875 28.535156 106.128906 28.546875 C 106.234375 28.546875 106.285156 28.523438 106.285156 28.480469 C 106.285156 28.453125 106.25 28.429688 106.214844 28.421875 C 106.09375 28.421875 105.96875 28.40625 105.8125 28.382812 C 105.671875 28.359375 105.582031 28.300781 105.546875 28.210938 C 105.492188 28.121094 105.460938 28.011719 105.460938 27.875 C 105.40625 27.453125 105.40625 26.777344 105.40625 25.851562 L 105.40625 22.023438 C 105.40625 21.921875 105.425781 21.863281 105.476562 21.84375 C 105.582031 21.808594 105.703125 21.789062 105.863281 21.789062 C 105.988281 21.777344 106.164062 21.792969 106.390625 21.828125 C 106.621094 21.871094 106.867188 22.011719 107.097656 22.253906 C 107.234375 22.382812 107.324219 22.507812 107.394531 22.640625 C 107.464844 22.773438 107.519531 22.910156 107.554688 23.039062 C 107.589844 23.167969 107.605469 23.285156 107.605469 23.394531 C 107.605469 23.5 107.605469 23.601562 107.605469 23.691406 C 107.605469 24.128906 107.445312 24.488281 107.164062 24.765625 C 106.867188 25.058594 106.496094 25.207031 106.039062 25.210938 C 105.949219 25.210938 105.898438 25.214844 105.863281 25.21875 C 105.828125 25.230469 105.8125 25.257812 105.8125 25.292969 C 105.8125 25.335938 105.847656 25.359375 105.898438 25.359375 C 105.96875 25.363281 106.039062 25.367188 106.09375 25.367188 C 106.742188 25.359375 107.273438 25.15625 107.695312 24.753906 C 108.097656 24.355469 108.292969 23.824219 108.3125 23.148438 C 108.292969 22.894531 108.257812 22.667969 108.171875 22.472656 C 108.0625 22.277344 107.957031 22.132812 107.855469 22.046875 C 107.835938 22.003906 107.78125 21.949219 107.714844 21.894531 C 107.621094 21.832031 107.519531 21.773438 107.394531 21.71875 C 107.273438 21.65625 107.113281 21.609375 106.902344 21.570312 C 106.710938 21.53125 106.480469 21.515625 106.179688 21.515625 C 105.703125 21.527344 105.316406 21.535156 105.054688 21.542969 C 104.878906 21.527344 104.527344 21.519531 104.03125 21.515625 C 103.929688 21.515625 103.875 21.539062 103.875 21.582031 C 103.875 21.625 103.910156 21.640625 103.964844 21.640625 C 104.066406 21.640625 104.175781 21.648438 104.265625 21.671875 C 104.421875 21.691406 104.507812 21.746094 104.5625 21.835938 C 104.613281 21.917969 104.648438 22.035156 104.648438 22.199219 C 104.667969 22.292969 104.667969 22.964844 104.667969 24.214844 Z M 95.796875 21.976562 C 95.796875 21.925781 95.832031 21.890625 95.867188 21.871094 C 95.988281 21.839844 96.183594 21.820312 96.480469 21.8125 C 97.503906 21.832031 98.015625 22.457031 98.03125 23.675781 C 98.03125 24.398438 97.839844 24.875 97.484375 25.109375 C 97.382812 25.175781 97.277344 25.222656 97.152344 25.25 C 97.027344 25.273438 96.921875 25.285156 96.820312 25.285156 C 96.605469 25.285156 96.410156 25.269531 96.238281 25.242188 C 96.0625 25.210938 95.9375 25.175781 95.867188 25.140625 C 95.816406 25.105469 95.796875 25.070312 95.796875 25.027344 Z M 95.078125 25.847656 C 95.078125 26.773438 95.058594 27.449219 95.039062 27.875 C 95.023438 28.011719 95.007812 28.121094 94.96875 28.207031 C 94.933594 28.300781 94.863281 28.359375 94.777344 28.382812 C 94.6875 28.40625 94.597656 28.421875 94.492188 28.421875 C 94.460938 28.429688 94.425781 28.453125 94.425781 28.480469 C 94.425781 28.523438 94.476562 28.546875 94.582031 28.546875 C 94.984375 28.535156 95.269531 28.527344 95.425781 28.523438 C 95.570312 28.527344 95.9375 28.535156 96.535156 28.546875 C 96.621094 28.546875 96.675781 28.523438 96.675781 28.480469 C 96.675781 28.453125 96.65625 28.429688 96.605469 28.421875 C 96.5 28.421875 96.359375 28.40625 96.203125 28.382812 C 96.0625 28.359375 95.972656 28.300781 95.9375 28.207031 C 95.886719 28.121094 95.867188 28.011719 95.847656 27.875 C 95.816406 27.449219 95.796875 26.773438 95.796875 25.847656 L 95.796875 25.621094 C 95.796875 25.574219 95.816406 25.550781 95.867188 25.550781 L 96.976562 25.566406 C 97.027344 25.566406 97.066406 25.585938 97.082031 25.621094 C 97.308594 25.949219 97.644531 26.40625 98.066406 27 C 98.332031 27.347656 98.542969 27.636719 98.734375 27.859375 C 98.929688 28.089844 99.105469 28.257812 99.28125 28.371094 C 99.40625 28.4375 99.527344 28.480469 99.667969 28.503906 C 99.808594 28.535156 100.003906 28.546875 100.25 28.546875 L 100.898438 28.546875 C 101.039062 28.546875 101.113281 28.523438 101.113281 28.480469 C 101.09375 28.453125 101.078125 28.429688 101.023438 28.421875 C 100.972656 28.429688 100.847656 28.421875 100.671875 28.394531 C 100.566406 28.382812 100.425781 28.328125 100.230469 28.238281 C 100.039062 28.152344 99.828125 27.980469 99.582031 27.722656 C 99.070312 27.128906 98.4375 26.332031 97.699219 25.34375 C 98.101562 24.949219 98.402344 24.582031 98.558594 24.230469 C 98.71875 23.878906 98.789062 23.53125 98.789062 23.191406 C 98.789062 22.863281 98.71875 22.585938 98.578125 22.371094 C 98.507812 22.261719 98.457031 22.167969 98.386719 22.089844 C 98.316406 22.015625 98.242188 21.960938 98.171875 21.921875 C 97.925781 21.75 97.679688 21.632812 97.398438 21.578125 C 97.117188 21.535156 96.820312 21.515625 96.519531 21.515625 C 96.078125 21.527344 95.726562 21.535156 95.460938 21.542969 C 95.304688 21.527344 94.96875 21.519531 94.441406 21.515625 C 94.335938 21.515625 94.300781 21.539062 94.300781 21.582031 C 94.300781 21.625 94.320312 21.640625 94.371094 21.640625 C 94.476562 21.640625 94.582031 21.648438 94.667969 21.671875 C 94.828125 21.691406 94.933594 21.746094 94.984375 21.835938 C 95.023438 21.917969 95.058594 22.035156 95.058594 22.199219 C 95.078125 22.292969 95.078125 22.964844 95.078125 24.214844 Z M 84.09375 24.761719 C 84.109375 23.742188 84.355469 22.972656 84.867188 22.464844 C 85.34375 21.953125 85.976562 21.699219 86.734375 21.699219 C 87.472656 21.699219 88.105469 21.992188 88.652344 22.570312 C 89.179688 23.160156 89.460938 24.011719 89.476562 25.132812 C 89.460938 25.804688 89.390625 26.347656 89.214844 26.761719 C 89.035156 27.183594 88.808594 27.507812 88.546875 27.738281 C 88.28125 27.960938 88 28.113281 87.71875 28.191406 C 87.457031 28.28125 87.207031 28.324219 86.980469 28.324219 C 86.152344 28.320312 85.464844 27.996094 84.9375 27.347656 C 84.390625 26.714844 84.109375 25.851562 84.09375 24.761719 Z M 83.246094 25.023438 C 83.246094 25.910156 83.511719 26.726562 84.078125 27.46875 C 84.621094 28.253906 85.519531 28.652344 86.75 28.679688 C 87.839844 28.660156 88.722656 28.289062 89.375 27.554688 C 90.007812 26.832031 90.339844 25.9375 90.339844 24.871094 C 90.324219 23.777344 89.988281 22.917969 89.320312 22.304688 C 88.6875 21.695312 87.839844 21.386719 86.804688 21.382812 C 85.570312 21.414062 84.671875 21.832031 84.09375 22.628906 C 83.53125 23.414062 83.246094 24.207031 83.246094 25.023438 Z M 77.335938 28.679688 C 77.632812 28.679688 77.933594 28.660156 78.230469 28.625 C 78.53125 28.585938 78.777344 28.535156 78.953125 28.464844 C 79.042969 28.429688 79.09375 28.390625 79.113281 28.359375 C 79.148438 28.332031 79.164062 28.277344 79.199219 28.195312 C 79.234375 28.007812 79.289062 27.777344 79.324219 27.5 C 79.375 27.222656 79.394531 27.054688 79.394531 27.003906 C 79.394531 26.917969 79.375 26.871094 79.324219 26.863281 C 79.289062 26.863281 79.253906 26.910156 79.234375 27.003906 C 79.234375 27.101562 79.199219 27.222656 79.148438 27.378906 C 79.09375 27.539062 79.007812 27.671875 78.902344 27.785156 C 78.722656 27.964844 78.515625 28.089844 78.25 28.148438 C 77.984375 28.21875 77.6875 28.253906 77.335938 28.253906 C 76.367188 28.242188 75.574219 27.894531 74.992188 27.207031 C 74.394531 26.546875 74.097656 25.757812 74.078125 24.84375 C 74.078125 24.367188 74.132812 23.921875 74.253906 23.515625 C 74.359375 23.101562 74.570312 22.738281 74.90625 22.417969 C 74.976562 22.328125 75.082031 22.246094 75.1875 22.164062 C 75.308594 22.089844 75.453125 22.019531 75.609375 21.949219 C 75.769531 21.886719 75.960938 21.828125 76.191406 21.789062 C 76.417969 21.757812 76.667969 21.738281 76.964844 21.738281 C 77.808594 21.757812 78.410156 21.929688 78.761719 22.265625 C 78.882812 22.371094 78.988281 22.507812 79.042969 22.671875 C 79.113281 22.84375 79.148438 23.023438 79.148438 23.214844 C 79.148438 23.34375 79.164062 23.40625 79.21875 23.40625 C 79.269531 23.417969 79.289062 23.351562 79.304688 23.214844 C 79.304688 22.976562 79.304688 22.660156 79.324219 22.253906 C 79.359375 21.949219 79.359375 21.773438 79.375 21.734375 C 79.375 21.679688 79.339844 21.648438 79.253906 21.632812 C 78.988281 21.605469 78.671875 21.558594 78.339844 21.496094 C 77.863281 21.417969 77.421875 21.382812 77.035156 21.382812 C 76.347656 21.386719 75.785156 21.480469 75.34375 21.664062 C 74.90625 21.855469 74.554688 22.089844 74.289062 22.378906 C 73.886719 22.800781 73.621094 23.25 73.480469 23.71875 C 73.339844 24.191406 73.269531 24.589844 73.269531 24.917969 C 73.269531 25.367188 73.339844 25.832031 73.496094 26.316406 C 73.65625 26.804688 73.9375 27.257812 74.359375 27.675781 C 75.03125 28.339844 76.03125 28.675781 77.335938 28.679688 Z M 62.199219 28.679688 C 62.707031 28.679688 63.167969 28.550781 63.570312 28.289062 C 63.730469 28.164062 63.871094 28.035156 63.976562 27.898438 C 64.066406 27.757812 64.136719 27.617188 64.1875 27.480469 C 64.292969 27.1875 64.34375 26.941406 64.34375 26.746094 C 64.34375 26.378906 64.257812 26.027344 64.082031 25.6875 C 63.90625 25.359375 63.554688 24.980469 63.027344 24.558594 L 62.78125 24.355469 C 62.355469 24 62.074219 23.710938 61.898438 23.496094 C 61.742188 23.269531 61.671875 23.039062 61.671875 22.792969 C 61.671875 22.445312 61.792969 22.175781 62.003906 21.988281 C 62.199219 21.800781 62.464844 21.710938 62.78125 21.710938 C 62.988281 21.710938 63.167969 21.726562 63.308594 21.765625 C 63.449219 21.800781 63.570312 21.851562 63.640625 21.914062 C 63.730469 21.964844 63.800781 22.019531 63.835938 22.070312 C 63.871094 22.125 63.90625 22.167969 63.921875 22.203125 C 63.941406 22.25 63.976562 22.324219 63.996094 22.425781 C 64.011719 22.523438 64.03125 22.601562 64.03125 22.664062 C 64.03125 22.746094 64.046875 22.789062 64.101562 22.789062 C 64.152344 22.789062 64.167969 22.714844 64.167969 22.566406 C 64.167969 21.953125 64.1875 21.625 64.203125 21.585938 C 64.203125 21.546875 64.167969 21.523438 64.117188 21.523438 C 64.066406 21.523438 63.941406 21.507812 63.800781 21.476562 C 63.675781 21.449219 63.570312 21.417969 63.429688 21.398438 C 63.289062 21.386719 63.132812 21.382812 62.957031 21.382812 C 61.742188 21.414062 61.105469 21.972656 61.089844 23.058594 C 61.089844 23.367188 61.160156 23.683594 61.320312 24 C 61.476562 24.3125 61.792969 24.671875 62.269531 25.078125 L 62.671875 25.421875 C 63.042969 25.742188 63.324219 26.019531 63.484375 26.257812 C 63.625 26.503906 63.710938 26.785156 63.710938 27.101562 C 63.710938 27.40625 63.589844 27.683594 63.378906 27.933594 C 63.167969 28.195312 62.832031 28.328125 62.410156 28.332031 C 62.09375 28.339844 61.8125 28.269531 61.546875 28.113281 C 61.300781 27.96875 61.144531 27.726562 61.054688 27.386719 C 61.035156 27.246094 61.019531 27.132812 61.035156 27.039062 C 61.035156 26.972656 61 26.941406 60.96875 26.941406 C 60.929688 26.941406 60.894531 26.992188 60.894531 27.085938 C 60.878906 27.257812 60.859375 27.585938 60.84375 28.074219 C 60.84375 28.191406 60.859375 28.273438 60.878906 28.316406 C 60.894531 28.359375 60.929688 28.398438 60.984375 28.429688 C 61.371094 28.597656 61.777344 28.679688 62.199219 28.679688 Z M 53.34375 25.847656 C 53.34375 26.777344 53.328125 27.449219 53.292969 27.875 C 53.273438 28.011719 53.257812 28.121094 53.222656 28.207031 C 53.1875 28.300781 53.117188 28.359375 53.03125 28.382812 C 52.941406 28.40625 52.851562 28.421875 52.765625 28.421875 C 52.710938 28.429688 52.695312 28.453125 52.695312 28.480469 C 52.695312 28.523438 52.746094 28.546875 52.835938 28.546875 C 52.976562 28.546875 53.152344 28.542969 53.363281 28.53125 C 53.554688 28.523438 53.679688 28.519531 53.714844 28.519531 C 53.910156 28.539062 54.648438 28.554688 55.949219 28.574219 C 56.125 28.574219 56.25 28.5625 56.320312 28.539062 C 56.375 28.515625 56.425781 28.445312 56.445312 28.332031 C 56.480469 28.210938 56.496094 28.039062 56.53125 27.832031 C 56.550781 27.621094 56.566406 27.484375 56.566406 27.429688 C 56.566406 27.347656 56.550781 27.300781 56.496094 27.292969 C 56.460938 27.292969 56.445312 27.339844 56.425781 27.429688 C 56.375 27.792969 56.230469 28.015625 56.019531 28.101562 C 55.898438 28.144531 55.757812 28.171875 55.582031 28.183594 C 55.421875 28.195312 55.265625 28.203125 55.140625 28.203125 C 54.71875 28.210938 54.4375 28.160156 54.296875 28.058594 C 54.171875 27.953125 54.101562 27.746094 54.085938 27.441406 C 54.085938 26.96875 54.085938 26.441406 54.085938 25.851562 L 54.085938 25.035156 C 54.085938 24.996094 54.121094 24.972656 54.15625 24.972656 C 54.542969 24.972656 54.964844 24.988281 55.441406 25.015625 C 55.617188 25.035156 55.738281 25.078125 55.808594 25.140625 C 55.863281 25.203125 55.898438 25.273438 55.914062 25.34375 C 55.933594 25.457031 55.949219 25.558594 55.949219 25.644531 C 55.949219 25.703125 55.96875 25.730469 56.019531 25.730469 C 56.054688 25.730469 56.074219 25.707031 56.074219 25.664062 C 56.074219 25.628906 56.074219 25.59375 56.074219 25.558594 C 56.074219 25.421875 56.09375 25.222656 56.109375 24.960938 C 56.160156 24.664062 56.179688 24.488281 56.199219 24.441406 C 56.199219 24.390625 56.179688 24.367188 56.144531 24.367188 C 56.109375 24.367188 56.074219 24.40625 56.019531 24.488281 C 55.933594 24.566406 55.792969 24.609375 55.582031 24.617188 C 55.441406 24.625 55.195312 24.628906 54.84375 24.628906 C 54.488281 24.632812 54.242188 24.636719 54.136719 24.636719 C 54.101562 24.636719 54.085938 24.605469 54.085938 24.542969 L 54.085938 21.972656 C 54.085938 21.90625 54.101562 21.878906 54.136719 21.878906 C 54.242188 21.878906 54.4375 21.878906 54.753906 21.878906 C 55.070312 21.886719 55.28125 21.894531 55.386719 21.90625 C 55.617188 21.929688 55.773438 21.972656 55.878906 22.027344 C 55.949219 22.082031 56.003906 22.148438 56.019531 22.222656 C 56.054688 22.359375 56.074219 22.46875 56.074219 22.554688 C 56.074219 22.636719 56.109375 22.675781 56.144531 22.675781 C 56.179688 22.671875 56.214844 22.636719 56.214844 22.570312 C 56.230469 22.359375 56.25 22.15625 56.269531 21.960938 C 56.300781 21.71875 56.335938 21.570312 56.335938 21.523438 C 56.335938 21.472656 56.320312 21.449219 56.300781 21.441406 C 56.269531 21.449219 56.214844 21.464844 56.179688 21.488281 C 56.09375 21.507812 55.96875 21.519531 55.792969 21.53125 C 55.035156 21.539062 54.332031 21.542969 53.714844 21.542969 C 53.554688 21.527344 53.222656 21.519531 52.695312 21.515625 C 52.605469 21.515625 52.554688 21.539062 52.554688 21.582031 C 52.554688 21.625 52.570312 21.640625 52.625 21.640625 C 52.730469 21.640625 52.835938 21.648438 52.941406 21.671875 C 53.082031 21.691406 53.1875 21.746094 53.242188 21.835938 C 53.292969 21.917969 53.308594 22.035156 53.328125 22.199219 C 53.328125 22.292969 53.34375 22.964844 53.34375 24.21875 Z M 42.082031 22.828125 C 42.484375 23.300781 43.277344 24.191406 44.441406 25.496094 C 45.636719 26.816406 46.429688 27.660156 46.78125 28.019531 C 47.203125 28.441406 47.433594 28.640625 47.449219 28.613281 C 47.484375 28.613281 47.503906 28.578125 47.519531 28.503906 C 47.519531 28.429688 47.519531 28.242188 47.519531 27.953125 L 47.539062 22.496094 C 47.539062 22.21875 47.554688 22.011719 47.605469 21.890625 C 47.644531 21.765625 47.730469 21.691406 47.871094 21.667969 C 47.976562 21.648438 48.046875 21.640625 48.101562 21.640625 C 48.152344 21.640625 48.1875 21.617188 48.1875 21.574219 C 48.1875 21.535156 48.136719 21.515625 48.03125 21.515625 C 47.855469 21.515625 47.695312 21.519531 47.554688 21.523438 C 47.414062 21.535156 47.328125 21.542969 47.273438 21.542969 C 47.117188 21.527344 46.796875 21.519531 46.324219 21.515625 C 46.203125 21.515625 46.148438 21.535156 46.148438 21.574219 C 46.148438 21.617188 46.164062 21.640625 46.21875 21.640625 C 46.324219 21.640625 46.464844 21.65625 46.65625 21.6875 C 46.796875 21.71875 46.90625 21.792969 46.957031 21.917969 C 46.992188 22.046875 47.011719 22.265625 47.011719 22.570312 L 47.117188 27.304688 C 46.691406 26.832031 45.972656 26.019531 44.949219 24.875 C 43.367188 23.117188 42.414062 22.054688 42.082031 21.683594 C 42.046875 21.625 41.992188 21.5625 41.921875 21.496094 C 41.871094 21.425781 41.816406 21.386719 41.765625 21.382812 C 41.746094 21.382812 41.710938 21.410156 41.695312 21.46875 C 41.675781 21.535156 41.675781 21.660156 41.675781 21.847656 L 41.660156 27.1875 C 41.660156 27.59375 41.640625 27.886719 41.625 28.0625 C 41.589844 28.234375 41.5 28.335938 41.394531 28.367188 C 41.238281 28.410156 41.113281 28.429688 41.027344 28.421875 C 40.972656 28.421875 40.957031 28.4375 40.957031 28.480469 C 40.957031 28.523438 40.992188 28.546875 41.09375 28.546875 C 41.535156 28.535156 41.835938 28.527344 41.960938 28.523438 C 42.066406 28.527344 42.382812 28.535156 42.910156 28.546875 C 43.015625 28.546875 43.066406 28.523438 43.066406 28.480469 C 43.066406 28.4375 43.050781 28.421875 42.996094 28.421875 C 42.890625 28.429688 42.75 28.410156 42.554688 28.367188 C 42.433594 28.335938 42.347656 28.242188 42.292969 28.082031 C 42.242188 27.925781 42.207031 27.660156 42.207031 27.289062 Z M 36.042969 24.210938 C 36.042969 23.507812 36.042969 23.023438 36.0625 22.765625 C 36.0625 22.507812 36.0625 22.320312 36.0625 22.199219 C 36.0625 22.03125 36.097656 21.902344 36.152344 21.816406 C 36.203125 21.738281 36.273438 21.6875 36.398438 21.671875 C 36.484375 21.648438 36.574219 21.640625 36.625 21.640625 C 36.660156 21.640625 36.679688 21.625 36.695312 21.582031 C 36.695312 21.539062 36.644531 21.515625 36.554688 21.515625 C 36.398438 21.515625 36.222656 21.519531 36.027344 21.523438 C 35.835938 21.535156 35.710938 21.542969 35.675781 21.542969 C 35.5 21.527344 35.203125 21.519531 34.761719 21.515625 C 34.671875 21.515625 34.621094 21.539062 34.621094 21.582031 C 34.621094 21.625 34.636719 21.640625 34.691406 21.640625 C 34.761719 21.640625 34.867188 21.652344 34.96875 21.679688 C 35.164062 21.710938 35.253906 21.886719 35.269531 22.199219 C 35.289062 22.292969 35.289062 22.964844 35.289062 24.210938 L 35.289062 25.847656 C 35.289062 26.777344 35.269531 27.449219 35.234375 27.875 C 35.234375 28.011719 35.203125 28.121094 35.164062 28.207031 C 35.128906 28.300781 35.078125 28.359375 34.988281 28.382812 C 34.902344 28.40625 34.796875 28.421875 34.707031 28.421875 C 34.671875 28.429688 34.636719 28.453125 34.636719 28.480469 C 34.636719 28.523438 34.691406 28.546875 34.796875 28.546875 C 35.203125 28.535156 35.480469 28.527344 35.675781 28.523438 C 35.816406 28.527344 36.1875 28.535156 36.765625 28.546875 C 36.871094 28.546875 36.925781 28.523438 36.925781 28.480469 C 36.925781 28.453125 36.890625 28.429688 36.855469 28.421875 C 36.730469 28.421875 36.589844 28.40625 36.449219 28.382812 C 36.308594 28.359375 36.222656 28.300781 36.1875 28.210938 C 36.132812 28.121094 36.097656 28.011719 36.082031 27.875 C 36.042969 27.449219 36.027344 26.777344 36.042969 25.847656 Z M 27.96875 24.210938 C 27.96875 23.503906 27.96875 23.023438 27.984375 22.765625 C 27.984375 22.507812 27.984375 22.320312 27.984375 22.199219 C 27.984375 22.03125 28.019531 21.902344 28.074219 21.816406 C 28.125 21.734375 28.214844 21.6875 28.335938 21.667969 C 28.460938 21.648438 28.546875 21.640625 28.636719 21.640625 C 28.671875 21.640625 28.6875 21.625 28.707031 21.582031 C 28.707031 21.539062 28.652344 21.515625 28.566406 21.515625 C 28.40625 21.515625 28.214844 21.519531 28 21.523438 C 27.773438 21.535156 27.632812 21.542969 27.597656 21.542969 C 27.4375 21.527344 27.085938 21.519531 26.578125 21.515625 C 26.46875 21.515625 26.433594 21.539062 26.433594 21.582031 C 26.433594 21.625 26.453125 21.640625 26.503906 21.640625 C 26.609375 21.640625 26.71875 21.648438 26.804688 21.671875 C 26.964844 21.691406 27.070312 21.746094 27.121094 21.835938 C 27.15625 21.917969 27.191406 22.035156 27.191406 22.199219 C 27.210938 22.292969 27.210938 22.964844 27.210938 24.210938 L 27.210938 25.847656 C 27.210938 26.777344 27.191406 27.449219 27.15625 27.875 C 27.15625 28.011719 27.121094 28.121094 27.085938 28.207031 C 27.050781 28.300781 27 28.359375 26.910156 28.382812 C 26.824219 28.40625 26.71875 28.421875 26.628906 28.421875 C 26.59375 28.429688 26.558594 28.453125 26.558594 28.480469 C 26.558594 28.523438 26.609375 28.546875 26.71875 28.546875 C 26.859375 28.546875 27.035156 28.542969 27.226562 28.53125 C 27.421875 28.523438 27.542969 28.519531 27.597656 28.519531 C 28.019531 28.539062 28.8125 28.554688 30.007812 28.574219 C 30.238281 28.574219 30.394531 28.558594 30.464844 28.53125 C 30.519531 28.496094 30.554688 28.425781 30.570312 28.324219 C 30.605469 28.167969 30.640625 27.996094 30.675781 27.792969 C 30.695312 27.589844 30.710938 27.453125 30.710938 27.390625 C 30.710938 27.300781 30.695312 27.25 30.660156 27.25 C 30.605469 27.25 30.589844 27.292969 30.570312 27.375 C 30.554688 27.578125 30.464844 27.761719 30.34375 27.933594 C 30.238281 28.058594 30.078125 28.136719 29.902344 28.167969 C 29.710938 28.195312 29.496094 28.214844 29.253906 28.214844 C 28.898438 28.214844 28.652344 28.191406 28.496094 28.15625 C 28.335938 28.121094 28.230469 28.070312 28.160156 28 C 28.089844 27.917969 28.035156 27.714844 28 27.375 C 27.984375 27.046875 27.96875 26.546875 27.96875 25.867188 Z M 18.339844 21.976562 C 18.339844 21.925781 18.375 21.890625 18.410156 21.871094 C 18.53125 21.839844 18.726562 21.820312 19.027344 21.8125 C 20.046875 21.832031 20.574219 22.457031 20.59375 23.675781 C 20.574219 24.398438 20.382812 24.875 20.03125 25.109375 C 19.921875 25.175781 19.816406 25.222656 19.695312 25.25 C 19.589844 25.273438 19.464844 25.285156 19.359375 25.285156 C 19.148438 25.285156 18.957031 25.269531 18.796875 25.242188 C 18.621094 25.210938 18.480469 25.175781 18.410156 25.140625 C 18.375 25.105469 18.339844 25.070312 18.339844 25.027344 Z M 17.617188 25.847656 C 17.617188 26.773438 17.617188 27.449219 17.582031 27.875 C 17.566406 28.011719 17.546875 28.121094 17.511719 28.207031 C 17.476562 28.300781 17.40625 28.359375 17.320312 28.382812 C 17.230469 28.40625 17.140625 28.421875 17.054688 28.421875 C 17.003906 28.429688 16.984375 28.453125 16.984375 28.480469 C 16.984375 28.523438 17.019531 28.546875 17.125 28.546875 C 17.53125 28.535156 17.8125 28.527344 17.96875 28.523438 C 18.109375 28.527344 18.480469 28.535156 19.078125 28.546875 C 19.164062 28.546875 19.21875 28.523438 19.21875 28.480469 C 19.21875 28.453125 19.203125 28.429688 19.148438 28.421875 C 19.042969 28.421875 18.902344 28.40625 18.746094 28.382812 C 18.605469 28.359375 18.515625 28.300781 18.480469 28.207031 C 18.425781 28.121094 18.410156 28.011719 18.390625 27.875 C 18.355469 27.449219 18.339844 26.773438 18.339844 25.847656 L 18.339844 25.621094 C 18.339844 25.574219 18.375 25.550781 18.410156 25.550781 L 19.519531 25.566406 C 19.570312 25.566406 19.605469 25.585938 19.640625 25.621094 C 19.871094 25.949219 20.1875 26.40625 20.609375 27 C 20.875 27.347656 21.085938 27.636719 21.277344 27.859375 C 21.472656 28.089844 21.648438 28.257812 21.84375 28.371094 C 21.949219 28.4375 22.070312 28.480469 22.230469 28.503906 C 22.351562 28.535156 22.546875 28.546875 22.792969 28.546875 L 23.445312 28.546875 C 23.585938 28.546875 23.671875 28.523438 23.65625 28.480469 C 23.65625 28.453125 23.621094 28.429688 23.566406 28.421875 C 23.515625 28.429688 23.390625 28.421875 23.214844 28.394531 C 23.109375 28.382812 22.96875 28.328125 22.773438 28.238281 C 22.582031 28.152344 22.371094 27.980469 22.125 27.722656 C 21.613281 27.128906 20.980469 26.332031 20.257812 25.34375 C 20.644531 24.949219 20.945312 24.582031 21.101562 24.230469 C 21.261719 23.878906 21.332031 23.53125 21.332031 23.191406 C 21.332031 22.863281 21.261719 22.585938 21.121094 22.371094 C 21.050781 22.261719 20.996094 22.167969 20.925781 22.089844 C 20.855469 22.015625 20.785156 21.960938 20.714844 21.921875 C 20.488281 21.75 20.222656 21.632812 19.941406 21.578125 C 19.660156 21.535156 19.359375 21.515625 19.078125 21.515625 C 18.621094 21.527344 18.269531 21.535156 18.003906 21.542969 C 17.847656 21.527344 17.511719 21.519531 16.984375 21.515625 C 16.898438 21.515625 16.84375 21.539062 16.84375 21.582031 C 16.84375 21.625 16.859375 21.640625 16.914062 21.640625 C 17.019531 21.640625 17.125 21.648438 17.210938 21.671875 C 17.371094 21.691406 17.476562 21.746094 17.53125 21.835938 C 17.582031 21.917969 17.601562 22.035156 17.601562 22.199219 C 17.617188 22.292969 17.617188 22.964844 17.617188 24.214844 Z M 11.722656 24.210938 C 11.722656 23.507812 11.722656 23.023438 11.722656 22.765625 C 11.722656 22.507812 11.722656 22.320312 11.738281 22.199219 C 11.738281 22.03125 11.777344 21.902344 11.828125 21.816406 C 11.863281 21.738281 11.949219 21.6875 12.054688 21.671875 C 12.160156 21.648438 12.230469 21.640625 12.285156 21.640625 C 12.339844 21.640625 12.355469 21.625 12.355469 21.582031 C 12.355469 21.539062 12.320312 21.515625 12.214844 21.515625 C 12.074219 21.515625 11.898438 21.519531 11.6875 21.523438 C 11.492188 21.535156 11.386719 21.542969 11.335938 21.542969 C 11.160156 21.527344 10.859375 21.519531 10.4375 21.515625 C 10.332031 21.515625 10.277344 21.539062 10.277344 21.582031 C 10.277344 21.625 10.3125 21.640625 10.347656 21.640625 C 10.4375 21.640625 10.523438 21.652344 10.628906 21.679688 C 10.824219 21.710938 10.929688 21.886719 10.949219 22.199219 C 10.949219 22.292969 10.964844 22.964844 10.964844 24.210938 L 10.964844 25.847656 C 10.964844 26.777344 10.949219 27.449219 10.910156 27.875 C 10.894531 28.011719 10.878906 28.121094 10.84375 28.207031 C 10.804688 28.300781 10.734375 28.359375 10.648438 28.382812 C 10.558594 28.40625 10.472656 28.421875 10.382812 28.421875 C 10.332031 28.429688 10.3125 28.453125 10.3125 28.480469 C 10.3125 28.523438 10.367188 28.546875 10.453125 28.546875 C 10.859375 28.535156 11.160156 28.527344 11.335938 28.523438 C 11.476562 28.527344 11.84375 28.535156 12.445312 28.546875 C 12.53125 28.546875 12.585938 28.523438 12.585938 28.480469 C 12.585938 28.453125 12.566406 28.429688 12.515625 28.421875 C 12.40625 28.421875 12.269531 28.40625 12.109375 28.382812 C 11.984375 28.359375 11.898438 28.300781 11.84375 28.210938 C 11.792969 28.121094 11.777344 28.011719 11.757812 27.875 C 11.722656 27.449219 11.703125 26.777344 11.722656 25.847656 Z M 2.394531 25.46875 C 2.359375 25.46875 2.359375 25.445312 2.359375 25.402344 L 3.148438 22.886719 C 3.203125 22.746094 3.257812 22.746094 3.292969 22.886719 L 4.15625 25.402344 C 4.171875 25.445312 4.15625 25.46875 4.117188 25.46875 Z M 1.125 27.53125 C 1.054688 27.765625 0.96875 27.960938 0.84375 28.113281 C 0.738281 28.277344 0.578125 28.375 0.371094 28.402344 C 0.28125 28.414062 0.195312 28.421875 0.105469 28.421875 C 0.0546875 28.421875 0.0351562 28.4375 0.0351562 28.480469 C 0.0351562 28.523438 0.0898438 28.546875 0.195312 28.546875 C 0.703125 28.535156 1.039062 28.527344 1.214844 28.523438 C 1.390625 28.527344 1.621094 28.535156 1.917969 28.546875 C 2.007812 28.546875 2.042969 28.523438 2.058594 28.480469 C 2.058594 28.4375 2.023438 28.421875 1.972656 28.421875 L 1.882812 28.421875 C 1.796875 28.421875 1.726562 28.398438 1.65625 28.347656 C 1.585938 28.3125 1.53125 28.246094 1.53125 28.152344 C 1.53125 27.980469 1.585938 27.769531 1.65625 27.53125 L 2.199219 25.875 C 2.21875 25.828125 2.253906 25.804688 2.289062 25.804688 L 4.226562 25.804688 C 4.277344 25.804688 4.296875 25.824219 4.3125 25.855469 L 5.15625 28.152344 C 5.175781 28.230469 5.175781 28.285156 5.175781 28.320312 C 5.15625 28.363281 5.121094 28.390625 5.105469 28.402344 C 5.050781 28.40625 5.035156 28.429688 5.035156 28.46875 C 5.035156 28.507812 5.121094 28.53125 5.296875 28.53125 C 6.019531 28.542969 6.492188 28.546875 6.722656 28.546875 C 6.828125 28.546875 6.898438 28.523438 6.898438 28.480469 C 6.898438 28.4375 6.863281 28.421875 6.8125 28.421875 C 6.722656 28.429688 6.601562 28.410156 6.441406 28.367188 C 6.355469 28.347656 6.246094 28.269531 6.125 28.136719 C 5.984375 28 5.84375 27.730469 5.667969 27.335938 C 4.769531 24.929688 4.066406 23.058594 3.574219 21.71875 C 3.484375 21.484375 3.414062 21.367188 3.378906 21.382812 C 3.34375 21.367188 3.273438 21.488281 3.167969 21.738281 L 1.125 27.53125 "/>
</g>
</g>
</svg>
